<?xml version="1.0" encoding="UTF-8"?>
<!DOCTYPE svg PUBLIC "-//W3C//DTD SVG 1.1//EN" "http://www.w3.org/Graphics/SVG/1.1/DTD/svg11.dtd">
<!-- Creator: CorelDRAW -->
<svg xmlns="http://www.w3.org/2000/svg" xml:space="preserve" width="1.98819in" height="1.98819in" style="shape-rendering:geometricPrecision; text-rendering:geometricPrecision; image-rendering:optimizeQuality; fill-rule:evenodd; clip-rule:evenodd"
viewBox="0 0 0.114378 0.114378"
 xmlns:xlink="http://www.w3.org/1999/xlink">
 <defs>
  <style type="text/css">
   <![CDATA[
    .fil1 {fill:#0A0B0C}
    .fil0 {fill:#CCCCCC;fill-rule:nonzero}
   ]]>
  </style>
 </defs>
 <g id="Layer_x0020_1">
  <metadata id="CorelCorpID_0Corel-Layer"/>
  <path class="fil0" d="M0.0232153 0l0.0679471 0 1.58543e-006 0 0 2.2649e-006c0.00639473,4.52981e-007 0.0121988,0.00260713 0.016402,0.00681057 0.00420276,0.00420298 0.00680853,0.0100057 0.00680943,0.016399l2.2649e-006 0 0 3.39736e-006 0 0.0679471 0 1.58543e-006 -2.2649e-006 0c-4.52981e-007,0.00639473 -0.00260713,0.0121988 -0.00681057,0.016402 -0.00420298,0.00420276 -0.0100057,0.00680853 -0.016399,0.00680943l0 2.2649e-006 -3.39736e-006 0 -0.0679471 0 -1.58543e-006 0 0 -2.2649e-006c-0.00639473,-4.52981e-007 -0.0121988,-0.00260713 -0.016402,-0.00681057 -0.00420276,-0.00420298 -0.00680853,-0.0100057 -0.00680943,-0.016399l-2.2649e-006 0 0 -3.39736e-006 0 -0.0679471 0 -1.58543e-006 2.2649e-006 0c4.52981e-007,-0.00639473 0.00260713,-0.0121988 0.00681057,-0.016402 0.00420298,-0.00420276 0.0100057,-0.00680853 0.016399,-0.00680943l0 -2.2649e-006 3.39736e-006 0zm0.0679471 0.00113245l-0.0679471 0 -3.39736e-006 0 0 -2.2649e-006c-0.00607742,6.79471e-007 -0.011597,0.00248143 -0.0155982,0.00648238 -0.00400163,0.00400141 -0.00648329,0.00952234 -0.00648351,0.0156011l2.2649e-006 0 0 1.58543e-006 0 0.0679471 0 3.39736e-006 -2.2649e-006 0c6.79471e-007,0.00607742 0.00248143,0.011597 0.00648238,0.0155982 0.00400141,0.00400163 0.00952234,0.00648329 0.0156011,0.00648351l0 -2.2649e-006 1.58543e-006 0 0.0679471 0 3.39736e-006 0 0 2.2649e-006c0.00607742,-6.79471e-007 0.011597,-0.00248143 0.0155982,-0.00648238 0.00400163,-0.00400141 0.00648329,-0.00952234 0.00648351,-0.0156011l-2.2649e-006 0 0 -1.58543e-006 0 -0.0679471 0 -3.39736e-006 2.2649e-006 0c-6.79471e-007,-0.00607742 -0.00248143,-0.011597 -0.00648238,-0.0155982 -0.00400141,-0.00400163 -0.00952234,-0.00648329 -0.0156011,-0.00648351l0 2.2649e-006 -1.58543e-006 0z"/>
  <path class="fil1" d="M0.0416357 0.0638563c-0.000352193,-0.0018622 0.000692834,-0.00339758 0.00216412,-0.00370267 0.00186832,-0.000387752 0.00328547,0.000862022 0.00352804,0.0023444 0.000694646,0.00424579 -0.00500566,0.00498868 -0.00569216,0.00135826l0 0zm0.0387908 -0.00484486c-0.00052659,-0.000247554 -0.000975041,-0.000985007 -0.00253511,-0.00125453 -0.0030096,-0.000519795 -0.0058054,0.00173492 -0.00580087,0.00541584 4.30332e-006,0.00342046 0.00278017,0.00588354 0.00587946,0.00535242 0.00129915,-0.00022264 0.00167105,-0.000731338 0.00245017,-0.00122871l6.34173e-006 0.00105545 0.00264473 -1.22305e-005 -1.04186e-005 -0.0104154 -0.0026334 1.2004e-005 -9.05962e-007 0.00107515 0 0zm0.000107356 0.00408521c-6.11524e-006,0.00303837 -0.00333167,0.00401341 -0.00496037,0.00225222 -0.00169256,-0.0018305 -0.000785922,-0.00525594 0.00206491,-0.00525458 0.0017433,9.05962e-007 0.00289885,0.00131999 0.00289545,0.00300258l0 -2.2649e-007zm-0.0448326 -0.00409699c-0.000426255,-0.00014586 -0.000969605,-0.00100245 -0.00259105,-0.00125181 -0.00113449,-0.000174171 -0.0023401,8.51604e-005 -0.00314233,0.000544936 -0.00476604,0.00273238 -0.00259399,0.0111737 0.00324833,0.0102414 0.00136143,-0.000217204 0.00182121,-0.000876065 0.00248052,-0.00123188l4.52981e-006 0.00105137 0.00264495 -2.2649e-005 -8.38015e-006 -0.010405 -0.00263454 3.62385e-006 -2.03841e-006 0.00107017 0 -2.2649e-007zm-0.00349135 0.00117096c0.00189414,-0.000468156 0.00329838,0.000792263 0.00355386,0.00229344 0.000315048,0.00185156 -0.00068083,0.00329951 -0.00213694,0.00365623 -0.00387072,0.000948542 -0.00505912,-0.00504983 -0.00141692,-0.00594968l0 0zm0.0183063 0.0036098c0.000326599,0.00285446 0.00281188,0.00512389 0.00620221,0.004776 0.00283136,-0.000290587 0.00522513,-0.0028155 0.00486479,-0.00605862 -0.000309612,-0.00278493 -0.00289024,-0.0050684 -0.00617436,-0.00477917 -0.00280848,0.000247554 -0.00526024,0.0028488 -0.00489265,0.00606179l0 0zm0.00516058 -0.00361977c0.00180105,-0.000226943 0.00310292,0.00103483 0.00323021,0.0026291 0.000144501,0.00180649 -0.000929064,0.00323111 -0.00250702,0.00338784 -0.00404942,0.00040202 -0.0043921,-0.00555445 -0.000723184,-0.00601694zm0.0131663 0.00191067c0.000236003,0.000112792 0.000168962,0.00558842 0.000132497,0.00625159l0.00259014 -1.58543e-006c-0.000137706,-0.00223999 8.04041e-005,-0.00527587 -4.25802e-005,-0.00772921 -0.000207012,-0.00147264 -0.0012278,-0.00247599 -0.00257452,-0.00279195 -0.00139269,-0.000326826 -0.00265651,0.000103959 -0.00370833,0.000886936 -0.000210183,0.000156505 -0.000153334,0.000153334 -0.000416289,0.000255708l-6.79471e-006 -0.00101558 -0.00264835 2.53669e-005 1.81192e-006 0.0103982 0.00265152 -3.6012e-005c7.92716e-006,-0.00159155 -0.00021358,-0.00557302 0.0003001,-0.00677682 0.000972323,-0.00227872 0.00395158,-0.00170638 0.00372078,0.000533158l0 2.2649e-007zm-0.0352 -0.0109769c0.000343359,0.000878556 0.00127786,0.00196209 0.00158724,0.00282252 0.000927478,4.09948e-005 0.00398691,3.98623e-005 0.00489423,-1.58543e-006 -0.000174851,-0.000505074 -0.00137842,-0.00219469 -0.00153221,-0.00274461 0.000658634,-0.000296476 0.00507995,-0.00284245 0.00520045,-0.00296295 -0.000137253,-0.000416063 -0.00101762,-0.00182302 -0.0011859,-0.00218563 -0.000421046,0.00013295 -0.00676867,0.00381546 -0.00786261,0.00442698 -0.000299647,0.000167376 -0.000796567,0.000395905 -0.0011012,0.000645271l0 0zm0.0528842 0.0068613l-0.00262072 4.52981e-006 3.62385e-006 0.0103628 0.00261461 -3.17087e-006 2.49139e-006 -0.0103642 0 0zm-0.00172065 -0.00419687c-0.00233104,0.000648442 -0.00121172,0.00379892 0.000920684,0.00321299 0.00073632,-0.000202482 0.00142621,-0.00110709 0.00112973,-0.00208303 -0.000220828,-0.000727034 -0.00104933,-0.00140854 -0.00205042,-0.00112996zm-0.0425304 7.65538e-005c7.85922e-005,0.000114151 -0.0001291,0.000156505 0.000489219,0.000155146l0.00443015 -4.98279e-006 -2.71788e-006 0.00494678c-0.000276771,-0.000169868 -4.96014e-005,-0.000128873 -0.000478121,-0.000394999 -1.97047e-005,-1.2457e-005 -7.94981e-005,-5.07339e-005 -9.73909e-005,-6.11524e-005l-0.000108262 -5.57166e-005c-0.000451395,-9.92028e-005 -0.002895,-0.00177976 -0.00554313,0.000249819 -0.00125136,0.000959413 -0.00224633,0.00267417 -0.00202981,0.0050863 0.000331808,0.00369972 0.00406596,0.0059601 0.00724475,0.00427931 0.000438032,-0.0002317 0.000718428,-0.000535197 0.00105386,-0.000734055l1.76663e-005 0.00104231 0.0026436 7.92716e-006 3.85034e-006 -0.0144161 0.0131711 -7.47418e-006c-0.000105092,-0.000318219 -0.000883539,-0.00152156 -0.00110958,-0.0019032l-0.00113811 -0.00185292c-0.00101332,0.000436674 -0.00464872,0.00275707 -0.00531414,0.00292037 -0.000275186,-0.000601559 -0.00287824,-0.00495584 -0.00323542,-0.00554834 -0.000544483,-0.00090347 -0.0010482,-0.00178021 -0.00161374,-0.00274529 -0.000277904,-0.000474044 -0.000530214,-0.000938123 -0.000804041,-0.00140492 -0.000207692,-0.000354684 -0.000650027,-0.000930876 -0.000751948,-0.00136506 0.00062987,-0.000269524 0.00436606,-0.00244972 0.00522763,-0.00290089 -0.00014971,-0.00049307 -0.000916154,-0.00171181 -0.00118885,-0.00214418 -0.000369632,7.47418e-005 -0.00683593,0.00382338 -0.00787349,0.00440546 -0.000345851,0.000194102 -0.0008396,0.000412439 -0.00110709,0.000665202 0.000167829,0.000481292 0.000565547,0.000989084 0.00086474,0.00150979 0.000300326,0.000523419 0.000601332,0.00105454 0.000896902,0.00154693 0.000412213,0.000686719 0.0014672,0.00242254 0.00177319,0.00302048 -0.000443468,0.000381863 -0.00545751,0.00300689 -0.00651454,0.00375113 0.000146313,0.000213354 0.0010602,0.00175847 0.0010935,0.00195235l2.2649e-007 0zm-0.0138732 0.0170765l0 0.00456242 -0.00140266 0 0 -0.00456242 0.00140266 0zm0.00488812 0l0 0.00456242 -0.00122509 0 0 -0.00308004 -0.000489899 0.00308004 -0.000869497 0 -0.000515945 -0.00300983 0 0.00300983 -0.00122531 0 0 -0.00456242 0.00181509 0c5.34517e-005,0.000274053 0.000109168,0.000597255 0.000169415,0.000969605l0.000193196 0.00116099 0.000319351 -0.0021306 0.00182868 0zm0.00196503 0.000780033l0 0.00116122c3.98623e-005,1.81192e-006 7.40624e-005,2.71788e-006 0.000102374,2.71788e-006 0.000129553,0 0.000218337,-2.69524e-005 0.000268165,-7.97246e-005 5.00544e-005,-5.39047e-005 7.49683e-005,-0.000165564 7.49683e-005,-0.000333847l0 -0.000375068c0,-0.000155825 -2.83113e-005,-0.000257973 -8.62928e-005,-0.00030395 -5.79815e-005,-4.73365e-005 -0.000177342,-7.13445e-005 -0.000359214,-7.13445e-005zm-0.00140243 -0.000780033l0.00141171 0c0.000381863,0 0.0006763,2.49139e-005 0.000880821,7.58743e-005 0.000205653,5.11868e-005 0.00036012,0.000124117 0.000462493,0.000219469 0.000103506,9.60319e-005 0.000173945,0.000212448 0.000210183,0.000348116 3.6465e-005,0.000136574 5.45842e-005,0.00034721 5.45842e-005,0.000633041l0 0.000397264c0,0.000291493 -3.5106e-005,0.000503941 -0.000105545,0.000636665 -7.17975e-005,0.000133856 -0.000202256,0.000235777 -0.000392281,0.0003078 -0.000189799,7.13445e-005 -0.000437579,0.000106903 -0.000743115,0.000106903l-0.000376427 0 0 0.00183729 -0.00140243 0 0 -0.00456242 0 0zm0.00522468 0.00117254c0,-0.000212448 -1.35894e-005,-0.000348116 -4.19007e-005,-0.000407909 -2.74053e-005,-5.8661e-005 -8.42544e-005,-8.83313e-005 -0.000170547,-8.83313e-005 -7.38359e-005,0 -0.000129553,2.4008e-005 -0.000168282,7.20239e-005 -3.98623e-005,4.711e-005 -5.9114e-005,0.000188667 -5.9114e-005,0.000424217l0 0.00212969c0,0.000265673 1.35894e-005,0.000428973 3.87299e-005,0.000490578 2.49139e-005,6.25114e-005 8.51604e-005,9.3314e-005 0.000178474,9.3314e-005 9.53525e-005,0 0.000155599,-3.5559e-005 0.000182778,-0.000106677 2.62729e-005,-7.22504e-005 3.98623e-005,-0.000241439 3.98623e-005,-0.000510736l0 -0.00209617zm0.00140152 0.00149869c0,0.00045887 -1.26835e-005,0.000782977 -3.75974e-005,0.000973456 -2.62729e-005,0.000191384 -0.000105771,0.000365556 -0.000239853,0.000523419 -0.000134082,0.000157637 -0.000315954,0.00027881 -0.000544483,0.000363517 -0.000228302,8.47074e-005 -0.000495561,0.000127061 -0.000798832,0.000127061 -0.000288775,0 -0.00054788,-4.05418e-005 -0.000777542,-0.000120266 -0.000230567,-7.99511e-005 -0.000414704,-0.000199085 -0.000554675,-0.000358761 -0.000139745,-0.000159676 -0.00022264,-0.000333847 -0.000249819,-0.000521381 -2.62729e-005,-0.000188667 -3.98623e-005,-0.000517531 -3.98623e-005,-0.000987045l0 -0.000780033c0,-0.00045887 1.2457e-005,-0.000782977 3.85034e-005,-0.000974588 2.51404e-005,-0.000190478 0.000104639,-0.000364423 0.000239853,-0.000522287 0.000134082,-0.000157637 0.000314822,-0.00027881 0.000544483,-0.000363517 0.000228529,-8.47074e-005 0.000494429,-0.000127061 0.000799058,-0.000127061 0.000288549,0 0.000547654,4.05418e-005 0.000777315,0.000120266 0.000229661,7.99511e-005 0.00041493,0.000199085 0.000554675,0.000358761 0.000139745,0.000159676 0.000222867,0.000333847 0.000248913,0.000521381 2.71788e-005,0.000188667 3.98623e-005,0.000516625 3.98623e-005,0.000987045l0 0.000780033zm0.00349248 -0.00129077l-0.00130141 0 0 -0.000337697c0,-0.000157864 -1.69868e-005,-0.000258879 -4.98279e-005,-0.000302138 -3.30676e-005,-4.32597e-005 -8.87842e-005,-6.43233e-005 -0.00016715,-6.43233e-005 -8.40279e-005,0 -0.000147672,2.87643e-005 -0.000190931,8.74253e-005 -4.32597e-005,5.77551e-005 -6.47763e-005,0.000146313 -6.47763e-005,0.000264541 0,0.000151975 2.37815e-005,0.000267485 7.27034e-005,0.000344492 4.6657e-005,7.67802e-005 0.000179607,0.000169188 0.000396585,0.00027881 0.000623981,0.000313689 0.00101604,0.000570529 0.00117866,0.000771426 0.00016262,0.000201123 0.000243251,0.000525231 0.000243251,0.00097255 0,0.00032524 -4.55246e-005,0.000564641 -0.000135215,0.000718654 -8.99167e-005,0.000153787 -0.000263861,0.000283792 -0.000520701,0.000387525 -0.000257973,0.000103959 -0.000556713,0.000156958 -0.00089894,0.000156958 -0.000375068,0 -0.000695552,-6.06994e-005 -0.000960319,-0.000180966 -0.0002659,-0.000120266 -0.000439844,-0.000273147 -0.000521607,-0.00045887 -8.19895e-005,-0.000186628 -0.000122758,-0.000450036 -0.000122758,-0.00079249l0 -0.000298288 0.00130119 0 0 0.000555128c0,0.000171227 1.83457e-005,0.000280848 5.45842e-005,0.00032977 3.75974e-005,4.82425e-005 0.000102374,7.31564e-005 0.000195461,7.31564e-005 9.3314e-005,0 0.00016262,-3.08027e-005 0.000208145,-9.3314e-005 4.52981e-005,-6.16054e-005 6.81736e-005,-0.000153787 6.81736e-005,-0.000276092 0,-0.000268391 -4.32597e-005,-0.000444374 -0.000129553,-0.000527043 -8.87842e-005,-8.2669e-005 -0.000308027,-0.000220375 -0.000655916,-0.000413571 -0.000348795,-0.000196367 -0.000579589,-0.000337697 -0.000693287,-0.000426255 -0.000112566,-8.85577e-005 -0.000206786,-0.000210636 -0.000280622,-0.000366461 -7.49683e-005,-0.000155825 -0.000111433,-0.00035491 -0.000111433,-0.000597255 0,-0.000349248 5.23193e-005,-0.000605182 0.000157864,-0.00076667 0.000104639,-0.000161714 0.000275186,-0.000287643 0.000510509,-0.000379145 0.000235097,-9.03697e-005 0.000519343,-0.000136574 0.000852283,-0.000136574 0.000364876,0 0.000675168,5.00544e-005 0.000930876,0.000149257 0.00025684,9.98823e-005 0.000426255,0.000224905 0.000510283,0.00037688 8.28955e-005,0.000151069 0.00012389,0.000407909 0.00012389,0.00077052l0 0.00018006zm0.00195937 -0.00138046l0 0.00456242 -0.00140243 0 0 -0.00456242 0.00140243 0zm0.00196526 0.00250476l0 0.0012765c0.000196594,-4.7563e-006 0.000322749,-3.17087e-005 0.000377333,-7.88187e-005 5.43577e-005,-4.6204e-005 8.1763e-005,-0.00016262 8.1763e-005,-0.000346304l0 -0.000425122c0,-0.000195235 -2.49139e-005,-0.000313689 -7.38359e-005,-0.00035491 -4.89219e-005,-4.14477e-005 -0.000177342,-6.54557e-005 -0.00038526,-7.13445e-005zm0 -0.00172472l0 0.0010149c5.88875e-005,-1.81192e-006 0.000105545,-2.94438e-006 0.000139745,-2.94438e-006 0.00013748,0 0.000224905,-2.87643e-005 0.000262502,-8.56134e-005 3.73709e-005,-5.77551e-005 5.68491e-005,-0.000221281 5.68491e-005,-0.000491484 0,-0.000143368 -1.58543e-005,-0.000243477 -4.6657e-005,-0.0003001 -3.17087e-005,-5.77551e-005 -7.1571e-005,-9.422e-005 -0.000121625,-0.000108715 -5.00544e-005,-1.54013e-005 -0.000147672,-2.4008e-005 -0.000290814,-2.60464e-005zm-0.00140266 -0.000780033l0.00139926 0c0.000440977,0 0.000776183,2.87643e-005 0.00100358,8.74253e-005 0.00022717,5.77551e-005 0.000411307,0.00017621 0.000551051,0.000353099 0.000139971,0.000178021 0.000209277,0.000463626 0.000209277,0.000858172 0,0.000267259 -4.89219e-005,0.000452981 -0.000147898,0.000557846 -9.87498e-005,0.000105771 -0.000293079,0.000186628 -0.000584119,0.000242345 0.000323881,6.25114e-005 0.00054335,0.000165564 0.000659087,0.000308706 0.000114831,0.000144274 0.000172812,0.00036465 0.000172812,0.000660899l0 0.000423311c0,0.0003078 -4.07683e-005,0.000535876 -0.000125023,0.000684907 -8.28955e-005,0.000148125 -0.000215845,0.000249139 -0.000397717,0.00030395 -0.000181872,5.48107e-005 -0.000554675,8.1763e-005 -0.00111841,8.1763e-005l-0.0016219 0 0 -0.00456242 0 0zm0.00516783 0l0 0.00364944 0.00085251 0 0 0.000912983 -0.00225494 0 0 -0.00456242 0.00140243 0 0 0zm0.00119111 0l0.00233783 0 0 0.000912756 -0.000935179 0 0 0.000864967 0.000875159 0 0 0.000868591 -0.000875159 0 0 0.00100313 0.00102849 0 0 0.000912983 -0.00243115 0 0 -0.00456242 0 0zm0.00543849 0l0 0.00456242 -0.00140266 0 0 -0.00456242 0.00140266 0zm0.00353234 0.00138046l-0.00130141 0 0 -0.000337697c0,-0.000157864 -1.69868e-005,-0.000258879 -4.98279e-005,-0.000302138 -3.30676e-005,-4.32597e-005 -8.87842e-005,-6.43233e-005 -0.00016715,-6.43233e-005 -8.40279e-005,0 -0.000147672,2.87643e-005 -0.000190931,8.74253e-005 -4.32597e-005,5.77551e-005 -6.47763e-005,0.000146313 -6.47763e-005,0.000264541 0,0.000151975 2.37815e-005,0.000267485 7.27034e-005,0.000344492 4.6657e-005,7.67802e-005 0.000179607,0.000169188 0.000396585,0.00027881 0.000623981,0.000313689 0.00101604,0.000570529 0.00117866,0.000771426 0.00016262,0.000201123 0.000243251,0.000525231 0.000243251,0.00097255 0,0.00032524 -4.55246e-005,0.000564641 -0.000135215,0.000718654 -8.99167e-005,0.000153787 -0.000263635,0.000283792 -0.000520701,0.000387525 -0.000257973,0.000103959 -0.000556713,0.000156958 -0.00089894,0.000156958 -0.000375068,0 -0.000695552,-6.06994e-005 -0.000960319,-0.000180966 -0.0002659,-0.000120266 -0.000439844,-0.000273147 -0.000521607,-0.00045887 -8.19895e-005,-0.000186628 -0.000122758,-0.000450036 -0.000122758,-0.00079249l0 -0.000298288 0.00130119 0 0 0.000555128c0,0.000171227 1.83457e-005,0.000280848 5.45842e-005,0.00032977 3.75974e-005,4.82425e-005 0.000102374,7.31564e-005 0.000195461,7.31564e-005 9.3314e-005,0 0.00016262,-3.08027e-005 0.000208145,-9.3314e-005 4.52981e-005,-6.16054e-005 6.81736e-005,-0.000153787 6.81736e-005,-0.000276092 0,-0.000268391 -4.32597e-005,-0.000444374 -0.000129553,-0.000527043 -8.87842e-005,-8.2669e-005 -0.000308027,-0.000220375 -0.000655916,-0.000413571 -0.000348795,-0.000196367 -0.000579589,-0.000337697 -0.000693287,-0.000426255 -0.000112566,-8.85577e-005 -0.000206786,-0.000210636 -0.000280622,-0.000366461 -7.49683e-005,-0.000155825 -0.000111433,-0.00035491 -0.000111433,-0.000597255 0,-0.000349248 5.23193e-005,-0.000605182 0.000157864,-0.00076667 0.000104639,-0.000161714 0.000275186,-0.000287643 0.000510509,-0.000379145 0.000235097,-9.03697e-005 0.000519343,-0.000136574 0.000852283,-0.000136574 0.000364876,0 0.000675168,5.00544e-005 0.000930876,0.000149257 0.00025684,9.98823e-005 0.000426255,0.000224905 0.000510283,0.00037688 8.28955e-005,0.000151069 0.00012389,0.000407909 0.00012389,0.00077052l0 0.00018006zm0.00488947 -0.00138046l0 0.00456242 -0.00122871 0 -0.000729526 -0.00207397 0 0.00207397 -0.00117186 0 0 -0.00456242 0.00117186 0 0.000786375 0.00205472 0 -0.00205472 0.00117186 0zm0.00236388 0.00117254c0,-0.000212448 -1.35894e-005,-0.000348116 -4.19007e-005,-0.000407909 -2.74053e-005,-5.8661e-005 -8.42544e-005,-8.83313e-005 -0.000170547,-8.83313e-005 -7.38359e-005,0 -0.000129553,2.4008e-005 -0.000168282,7.20239e-005 -3.96358e-005,4.711e-005 -5.88875e-005,0.000188667 -5.88875e-005,0.000424217l0 0.00212969c0,0.000265673 1.35894e-005,0.000428973 3.85034e-005,0.000490578 2.49139e-005,6.25114e-005 8.51604e-005,9.3314e-005 0.000178474,9.3314e-005 9.53525e-005,0 0.000155599,-3.5559e-005 0.000183004,-0.000106677 2.60464e-005,-7.22504e-005 3.96358e-005,-0.000241439 3.96358e-005,-0.000510736l0 -0.00209617zm0.00140152 0.00149869c0,0.00045887 -1.2457e-005,0.000782977 -3.75974e-005,0.000973456 -2.60464e-005,0.000191384 -0.000105771,0.000365556 -0.000239853,0.000523419 -0.000134082,0.000157637 -0.000315954,0.00027881 -0.000544256,0.000363517 -0.000228529,8.47074e-005 -0.000495561,0.000127061 -0.000799058,0.000127061 -0.000288775,0 -0.00054788,-4.05418e-005 -0.000777315,-0.000120266 -0.000230794,-7.99511e-005 -0.00041493,-0.000199085 -0.000554675,-0.000358761 -0.000139745,-0.000159676 -0.000222867,-0.000333847 -0.000250045,-0.000521381 -2.62729e-005,-0.000188667 -3.98623e-005,-0.000517531 -3.98623e-005,-0.000987045l0 -0.000780033c0,-0.00045887 1.2457e-005,-0.000782977 3.87299e-005,-0.000974588 2.49139e-005,-0.000190478 0.000104412,-0.000364423 0.000239853,-0.000522287 0.000134082,-0.000157637 0.000314822,-0.00027881 0.000544256,-0.000363517 0.000228529,-8.47074e-005 0.000494429,-0.000127061 0.000799058,-0.000127061 0.000288775,0 0.00054788,4.05418e-005 0.000777315,0.000120266 0.000229661,7.99511e-005 0.00041493,0.000199085 0.000554675,0.000358761 0.000139745,0.000159676 0.000222867,0.000333847 0.000248913,0.000521381 2.74053e-005,0.000188667 3.98623e-005,0.000516625 3.98623e-005,0.000987045l0 0.000780033zm0.00334594 -0.00267123l0 0.000912756 -0.000831899 0 0 0.00364967 -0.00140152 0 0 -0.00364967 -0.000829634 0 0 -0.000912756 0.00306306 0zm0.00354367 0l0 0.00456242 -0.0014013 0 0 -0.00191611 -0.00041946 0 0 0.00191611 -0.00140243 0 0 -0.00456242 0.00140243 0 0 0.00163141 0.00041946 0 0 -0.00163141 0.0014013 0zm0.00196503 0l0 0.00456242 -0.00140243 0 0 -0.00456242 0.00140243 0zm-0.0169261 0.0150815c-1.92517e-005,-5.9567e-005 -3.26146e-005,-0.000146992 -4.14477e-005,-0.000262276 -7.47418e-006,-0.000115737 9.05962e-007,-0.000209957 2.62729e-005,-0.00028334 6.27378e-005,-0.000192517 0.000121852,-0.000369406 0.000173718,-0.00053112 5.25458e-005,-0.000160355 0.000101015,-0.000300553 0.000142689,-0.000419687 4.37126e-005,-0.000118228 9.08227e-005,-0.000226037 0.000140877,-0.000324561 0.000297382,-0.000617413 0.0005053,-0.0010747 0.000623528,-0.00137185 0.000119813,-0.000297608 0.000164206,-0.000491711 0.000133856,-0.000585704 -1.94782e-005,-6.09259e-005 -6.36438e-005,-0.000101241 -0.000132723,-0.000117775 -6.9759e-005,-1.76663e-005 -0.000152202,-1.1098e-005 -0.000246648,1.81192e-005 -0.000195914,6.04729e-005 -0.00042014,0.000204068 -0.000670638,0.000431238 -0.000252537,0.00022649 -0.000539953,0.000510509 -0.000864514,0.000849566 -0.000324561,0.000339056 -0.00050983,0.000515719 -0.000554449,0.000529308 -7.1571e-005,2.21961e-005 -0.000122758,-1.72133e-005 -0.000155146,-0.000118002 -2.76318e-005,-8.60664e-005 -3.98623e-005,-0.000216072 -3.5106e-005,-0.000390922 -1.31364e-005,-0.000183684 -2.06106e-005,-0.000327052 -2.51404e-005,-0.000428973 -3.17087e-006,-0.000102374 1.40424e-005,-0.000200897 5.18663e-005,-0.00029557 3.66914e-005,-9.422e-005 0.000114604,-0.000207012 0.000229661,-0.00033883 0.00011619,-0.000133403 0.000297608,-0.000321843 0.000547201,-0.000566453l8.51604e-005 0.000130911c0.000216978,-0.000174624 0.000426708,-0.000320937 0.000630323,-0.00044075 0.000203615,-0.000119813 0.000384128,-0.000204521 0.0005395,-0.000252537 0.000305309,-9.44465e-005 0.0005395,-0.000110074 0.000700535,-4.77895e-005 0.000161035,6.25114e-005 0.000295796,0.000263861 0.000405418,0.000605635 6.02464e-005,0.000186628 8.15365e-005,0.000350381 6.63617e-005,0.000491937 -1.58543e-005,0.000140424 -6.81736e-005,0.00034721 -0.000157411,0.000619225 -0.000199312,0.000636665 -0.000358534,0.0010833 -0.000477215,0.00134264 -0.000343359,0.000765764 -0.000498279,0.00119791 -0.000465664,0.00129983 1.83457e-005,5.70756e-005 6.52292e-005,7.31564e-005 0.000142236,4.93749e-005 6.34173e-005,-1.97047e-005 0.000138612,-9.08227e-005 0.000226037,-0.000215619 8.81048e-005,-0.000123211 0.000187761,-0.000293758 0.000298061,-0.00050983 0.000110301,-0.000216072 0.00026137,-0.000521834 0.000451169,-0.000919778 0.000204521,-0.000421272 0.00037303,-0.000789093 0.000504621,-0.00110505 0.000131817,-0.000314369 0.000238947,-0.000581854 0.000318446,-0.00080155 8.06306e-005,-0.000219922 0.000121625,-0.000337471 0.000125476,-0.000353099 8.85577e-005,-0.000213807 0.000189346,-0.000399303 0.000306668,-0.00055626 0.000115963,-0.000156731 0.000195461,-0.000242345 0.000237135,-0.000255255 3.12557e-005,-9.73909e-006 7.83657e-005,7.70067e-006 0.000138612,5.18663e-005 6.002e-005,4.39391e-005 0.000117775,9.87498e-005 0.000173945,0.000167376 5.50372e-005,6.88531e-005 8.85577e-005,0.000122531 0.000102147,0.000165112 3.85034e-006,1.17775e-005 -6.79471e-006,8.49339e-005 -3.39736e-005,0.000217204 -2.74053e-005,0.000132044 -5.88875e-005,0.000269977 -9.30876e-005,0.000413119 -3.57855e-005,0.000142009 -9.5126e-005,0.000364197 -0.000178927,0.000662258 -0.000182551,0.000656143 -0.000310745,0.00119949 -0.000380277,0.00163005 -7.13445e-005,0.000429652 -8.74253e-005,0.000702573 -5.00544e-005,0.000818989 1.31364e-005,4.09948e-005 4.03153e-005,7.49683e-005 8.2669e-005,9.96558e-005 4.12213e-005,2.67259e-005 7.76862e-005,3.42001e-005 0.000110074,2.42345e-005 4.19007e-005,-1.291e-005 0.000106903,-6.93061e-005 0.000196367,-0.000169868 8.94637e-005,-0.000100335 0.000182098,-0.000232379 0.000277224,-0.000398623 0.000123664,-0.000220149 0.000229208,-0.000442109 0.000316181,-0.000665429 8.85577e-005,-0.000223999 0.000167829,-0.000466797 0.000238947,-0.000730432 7.24769e-005,-0.000264088 0.000132497,-0.000511189 0.000179833,-0.000742662 4.77895e-005,-0.000230341 9.30876e-005,-0.000472912 0.0001368,-0.000724996l-0.000130911 -0.000176436c-2.06106e-005,-2.71788e-005 -3.91828e-005,-6.65882e-005 -5.50372e-005,-0.00011551 -1.2457e-005,-3.85034e-005 2.55934e-005,-0.00018844 0.000112339,-0.000449583 8.62928e-005,-0.000262502 0.000154919,-0.000400209 0.000204974,-0.00041561 5.66226e-005,-1.76663e-005 0.00011551,7.92716e-006 0.000179607,7.38359e-005 6.34173e-005,6.79471e-005 0.000107809,0.000141557 0.000133403,0.000220828 2.85378e-005,8.87842e-005 4.41656e-005,0.000276092 4.89219e-005,0.000563055 3.62385e-006,0.000288549 -2.01576e-005,0.000643686 -7.04385e-005,0.00106971 -5.05074e-005,0.000424896 -0.000138159,0.000868138 -0.000265447,0.00133131 -0.000108036,0.000403153 -0.000246648,0.000761687 -0.000416742,0.00107787 -0.000170094,0.000315954 -0.000334526,0.000561923 -0.000495561,0.000739718 -0.000159902,0.000177568 -0.000286963,0.000280848 -0.000382995,0.000310518 -0.000108036,3.35206e-005 -0.000236456,2.21961e-005 -0.000385487,-3.5106e-005 -0.000124117,-5.34517e-005 -0.000216751,-0.000106224 -0.00027813,-0.000158543 -6.31908e-005,-5.34517e-005 -0.000113245,-0.000116416 -0.00015039,-0.000190931 -3.87299e-005,-7.40624e-005 -7.45153e-005,-0.000161941 -0.000107583,-0.00026522 -7.0665e-005,-0.000219696 -9.12756e-005,-0.000495788 -6.18319e-005,-0.000829634 2.78583e-005,-0.000333167 9.5126e-005,-0.000757157 0.000199538,-0.00127288 -0.000474497,0.00115261 -0.000854548,0.0020024 -0.00114106,0.00254802 -0.00028719,0.000547201 -0.000528402,0.000850245 -0.000722957,0.000910491 -0.000129553,4.00888e-005 -0.000263408,-1.58543e-006 -0.000401115,-0.000125023 -0.000138839,-0.000122984 -0.000242345,-0.000291946 -0.000310292,-0.000503941zm0.00634626 -0.00451871c-6.63617e-005,2.03841e-005 -0.000136574,1.44954e-005 -0.000211769,-1.60808e-005 -7.51948e-005,-3.08027e-005 -0.000124796,-8.38015e-005 -0.000148578,-0.000157864 -3.66914e-005,-0.000113925 -2.21961e-005,-0.000258199 4.34862e-005,-0.000432823 6.59087e-005,-0.000173265 0.000158317,-0.00027881 0.000276998,-0.000315728 7.97246e-005,-2.4461e-005 0.000152202,-2.08371e-005 0.000220375,1.0645e-005 6.79471e-005,3.14822e-005 0.000117549,9.3314e-005 0.000146539,0.000183231 3.57855e-005,0.000111207 2.12901e-005,0.000251178 -4.32597e-005,0.000419687 -6.52292e-005,0.00016715 -0.000159676,0.00027043 -0.000283792,0.000308933zm0.005778 0.00012004l7.88187e-005 0.000245063c-0.000155825,0.0003001 -0.000293985,0.000549466 -0.000414251,0.000748098 -0.000120719,0.0001975 -0.000232606,0.000352872 -0.000332488,0.000466797 -0.000101468,0.000114378 -0.000196367,0.000184363 -0.00028266,0.000211089 -0.000206786,6.38703e-005 -0.000347663,-2.3555e-005 -0.00042399,-0.00026069 -6.16054e-005,-0.000192064 -6.93061e-005,-0.000432823 -2.21961e-005,-0.000725449 4.73365e-005,-0.00029104 0.000135668,-0.000644592 0.000266353,-0.00106043 -9.80703e-005,0.000101468 -0.000186402,0.00021041 -0.000264994,0.000326373 -7.81392e-005,0.000117322 -0.000144501,0.000233965 -0.000195688,0.00035174 -5.29988e-005,0.000116643 -9.67114e-005,0.000216072 -0.000131364,0.000298061 -0.00011098,0.000241212 -0.00021358,0.000485369 -0.0003078,0.000732923 -9.4673e-005,0.000246195 -0.000160129,0.000407456 -0.000196367,0.000484236 -3.62385e-005,7.67802e-005 -7.90452e-005,0.000123437 -0.0001291,0.000138839 -0.000206559,6.38703e-005 -0.000389337,-0.000153334 -0.000549013,-0.000650027 -4.7563e-006,-1.44954e-005 -9.28611e-006,-2.94438e-005 -1.35894e-005,-4.46186e-005 -0.00044981,0.00091706 -0.000837788,0.00142598 -0.00116688,0.00152745 -0.000118907,3.69179e-005 -0.000229208,2.15166e-005 -0.000330223,-4.77895e-005 -0.000101921,-6.74941e-005 -0.000175757,-0.000172812 -0.000221281,-0.000314595 -3.08027e-005,-9.5126e-005 -4.711e-005,-0.000215392 -4.91484e-005,-0.000360346 -2.2649e-007,-0.000144048 8.38015e-006,-0.000366461 2.80848e-005,-0.000665202 -2.62729e-005,4.30332e-005 -5.18663e-005,8.28955e-005 -7.58743e-005,0.00012389 -2.3102e-005,3.91828e-005 -4.52981e-005,7.65538e-005 -6.45498e-005,0.000108715 -2.03841e-005,3.39736e-005 -4.14477e-005,6.95326e-005 -6.40968e-005,0.000105771l-1.44954e-005 2.42345e-005 1.60808e-005 4.93749e-005c-0.000151522,0.000402247 -0.00031233,0.00071956 -0.000481066,0.000952392 -0.000168735,0.000232606 -0.000329997,0.000372577 -0.000486728,0.000421046 -0.000216072,6.68147e-005 -0.000412666,5.20928e-006 -0.000589555,-0.00018459 -0.000176889,-0.000190025 -0.000307574,-0.000416063 -0.000392281,-0.000679471 -3.26146e-005,-0.000101921 -5.25458e-005,-0.000200671 -6.20584e-005,-0.000299647 -7.70067e-006,-9.80703e-005 -6.34173e-006,-0.000181419 2.71788e-006,-0.000249819 1.0645e-005,-6.88531e-005 3.48795e-005,-0.000178248 7.22504e-005,-0.000329544 0.000190705,-0.000686266 0.000441883,-0.00107832 0.000752628,-0.00117435 0.000161941,-5.00544e-005 0.00026137,-1.38159e-005 0.000300553,0.000108036 2.62729e-005,8.19895e-005 1.67603e-005,0.000227623 -3.19351e-005,0.000436447 -4.77895e-005,0.000206786 -0.000100562,0.000361479 -0.000157411,0.00046204 -0.000159902,0.000288096 -0.000261143,0.000485369 -0.000302818,0.000591366 -4.25802e-005,0.000107809 -4.6657e-005,0.000215392 -1.17775e-005,0.000323881 2.98967e-005,9.28611e-005 9.01432e-005,0.000160129 0.000181645,0.000200218 9.17286e-005,4.00888e-005 0.000193196,4.21272e-005 0.000306668,7.0212e-006 0.000124343,-3.82769e-005 0.000246422,-0.000125476 0.000366461,-0.000260237 0.000108489,-0.000120493 0.000237362,-0.000295117 0.000386846,-0.000523646l-9.5126e-006 -2.96702e-005c0.000203841,-0.000313236 0.000410174,-0.000816724 0.000619225,-0.00151024 -4.12213e-005,9.73909e-006 -7.81392e-005,1.97047e-005 -0.000112339,2.89908e-005 -3.5559e-005,9.5126e-006 -7.61008e-005,2.19696e-005 -0.000123437,3.6465e-005 -0.000155372,4.8016e-005 -0.000268391,9.3314e-005 -0.000338603,0.000138159 -2.85378e-005,1.76663e-005 -5.57166e-005,3.48795e-005 -8.10836e-005,5.27723e-005 -2.4008e-005,1.76663e-005 -4.16742e-005,2.74053e-005 -5.25458e-005,3.08027e-005 -1.08715e-005,3.39736e-006 -1.87987e-005,-2.94438e-006 -2.33285e-005,-1.74398e-005 -2.78583e-005,-8.60664e-005 -1.47219e-005,-0.000229888 3.85034e-005,-0.000434182 4.00888e-005,-0.000171 8.78783e-005,-0.000303724 0.000143821,-0.00039817 5.57166e-005,-9.44465e-005 0.000134988,-0.000171227 0.0002394,-0.000229661 0.000103959,-6.002e-005 0.000258199,-0.000120719 0.000460908,-0.000183231l0.000170094 -5.25458e-005c6.13789e-005,-0.000289908 0.000131138,-0.000502129 0.000211769,-0.000639156 8.08571e-005,-0.000137027 0.000193876,-0.000228755 0.000338377,-0.000273374 0.00014586,-4.50716e-005 0.000229435,-3.44265e-005 0.000249819,2.89908e-005 1.04186e-005,3.19351e-005 -1.94782e-005,0.000132723 -8.87842e-005,0.000305536 -6.95326e-005,0.000171453 -0.000118907,0.000313463 -0.000146766,0.000425349 9.3314e-005,-1.85722e-005 0.000175983,-3.39736e-005 0.000247554,-4.73365e-005 7.27034e-005,-1.38159e-005 0.000130232,-2.42345e-005 0.000171227,-3.10292e-005 -6.18319e-005,0.000320484 -0.000160808,0.00065954 -0.000295796,0.00101581 -7.58743e-005,1.76663e-005 -0.000139292,3.28411e-005 -0.000190478,4.41656e-005 -5.14133e-005,1.1551e-005 -0.0001026,2.3102e-005 -0.000156505,3.53325e-005 -5.25458e-005,1.2004e-005 -0.00011619,2.71788e-005 -0.000192064,4.48451e-005 -6.95326e-005,0.000268844 -0.000125023,0.000507339 -0.000163753,0.000714351 -3.94093e-005,0.00020588 -6.13789e-005,0.000391602 -6.52292e-005,0.000554449 -3.85034e-006,0.000164206 1.54013e-005,0.000311198 5.77551e-005,0.000443695 5.75286e-005,0.000178701 0.000158996,0.000244836 0.000303497,0.000200218 0.000100109,-3.10292e-005 0.000215392,-0.000124796 0.000343812,-0.000279489 0.000122531,-0.000147445 0.000277904,-0.000360799 0.000468156,-0.000641647 -8.60664e-006,-6.50027e-005 -1.51749e-005,-0.000132723 -1.94782e-005,-0.000202935 -1.291e-005,-0.000211542 3.69179e-005,-0.00051368 0.000151749,-0.000904376 0.00024393,-0.000820801 0.000461814,-0.00149665 0.000651613,-0.00202845 0.000189799,-0.000531799 0.000358081,-0.000941747 0.000503035,-0.00122984 0.00014518,-0.000287869 0.000255934,-0.000441656 0.000332035,-0.000459323 9.44465e-005,-2.03841e-005 0.000174624,-2.46875e-005 0.000240306,-1.44954e-005 6.56822e-005,1.04186e-005 0.000104639,3.4653e-005 0.00011619,7.04385e-005 2.08371e-005,6.47763e-005 1.08715e-005,0.000185949 -3.32941e-005,0.000362611 -4.28067e-005,0.00017621 -0.00012457,0.000457737 -0.000244836,0.000841412 -0.000133176,0.000407909 -0.000228076,0.000694873 -0.000284019,0.000862249 -5.66226e-005,0.000166017 -0.000144274,0.000405644 -0.000264314,0.000716389 -0.000118002,0.000311651 -0.000229208,0.000589102 -0.000331129,0.000835976 -0.000102147,0.000245516 -0.000223093,0.000515945 -0.000360573,0.000808797l0.000149937 0.000466117c0.000229435,-0.000496014 0.000434862,-0.000905962 0.000614015,-0.00123075 0.000178701,-0.00032592 0.000339283,-0.000579362 0.000478574,-0.000760781 0.000137933,-0.000180739 0.000250272,-0.000284019 0.000335432,-0.000310292 7.81392e-005,-2.42345e-005 0.000167376,-6.79471e-007 0.000265673,6.93061e-005 9.82968e-005,6.99855e-005 0.000156731,0.000136347 0.00017553,0.000194782 8.38015e-006,2.64994e-005 5.20928e-006,6.22849e-005 -7.70067e-006,0.000110074 -0.000118907,0.000281301 -0.000211089,0.000512095 -0.000276318,0.000692381 -6.47763e-005,0.000181645 -0.000109621,0.00033815 -0.000133403,0.000472233 -2.37815e-005,0.000133856 -2.15166e-005,0.000242345 4.98279e-006,0.000324561 3.91828e-005,0.000121852 0.000118228,0.000164206 0.000236909,0.000127514 0.000127061,-3.91828e-005 0.000354457,-0.000292852 0.000681963,-0.000761008zm0.00823632 -0.00367458c-0.000177115,0.000197273 -0.000327279,0.000371897 -0.00044913,0.000524552 -0.000121625,0.000152428 -0.000219922,0.00029942 -0.000293532,0.000440071 -7.36094e-005,0.000140651 -0.000111433,0.000271788 -0.000113019,0.000391602 2.69524e-005,0.000310518 4.48451e-005,0.000476762 5.25458e-005,0.000500544 5.48107e-005,0.000170774 0.000203615,0.00021811 0.000445507,0.000143368 0.000113472,-3.5106e-005 0.000273147,-0.000189346 0.000477668,-0.000463626 -8.38015e-005,-0.000108036 -0.000144274,-0.000217431 -0.00018006,-0.000328638 -5.23193e-005,-0.000162847 -7.17975e-005,-0.00033883 -5.73021e-005,-0.000529761 1.42689e-005,-0.000190705 5.29988e-005,-0.000416742 0.000117322,-0.000678112zm0.00293826 -0.000810383c-0.000209957,0.000150616 -0.000445507,0.000360346 -0.000707556,0.000630549 -0.00026069,0.00026975 -0.000414704,0.000446866 -0.000460002,0.000532252 -4.14477e-005,6.95326e-005 -6.16054e-005,0.000182098 -6.02464e-005,0.00033883 9.05962e-007,0.000155599 1.2457e-005,0.000269977 3.57855e-005,0.00034268 1.40424e-005,4.37126e-005 3.91828e-005,7.54213e-005 7.40624e-005,9.64849e-005 3.6012e-005,1.94782e-005 7.31564e-005,2.4008e-005 0.000113698,1.1551e-005 3.6465e-005,-1.13245e-005 7.31564e-005,-4.00888e-005 0.000110754,-8.51604e-005 3.82769e-005,-4.68835e-005 9.48995e-005,-0.000129779 0.000169415,-0.000253216 7.51948e-005,-0.000122305 0.000125249,-0.000201803 0.000147898,-0.000237815 3.21616e-005,-5.23193e-005 0.000105318,-0.00016647 0.000217884,-0.000342453 0.000114604,-0.000175304 0.000194329,-0.000310518 0.000242571,-0.000405418 4.84689e-005,-9.3767e-005 8.33485e-005,-0.000193196 0.000104412,-0.000298741 2.15166e-005,-0.000104186 2.46875e-005,-0.000214486 1.13245e-005,-0.000329544zm1.13245e-005 0.00103733c-0.000149257,0.000329997 -0.000286737,0.000614242 -0.000411986,0.000852283 -0.000124117,0.000237815 -0.000230567,0.000419234 -0.00031686,0.00054335 -8.62928e-005,0.000124117 -0.000150163,0.000193423 -0.000192064,0.000206333 -6.88531e-005,2.12901e-005 -0.0001633,-9.05962e-006 -0.000284698,-9.10491e-005 -0.00012004,-8.2216e-005 -0.000238947,-0.000198406 -0.000353552,-0.000346304 -7.72332e-005,-0.000100562 -0.000140877,-0.000206559 -0.000191158,-0.000317993 -0.000112792,0.000185043 -0.00020973,0.000316407 -0.000291946,0.000394546 -8.87842e-005,8.40279e-005 -0.000234644,0.000152428 -0.000435315,0.000202709 -0.000214939,0.000504621 -0.000452301,0.00079634 -0.000714351,0.000877424 -0.000147219,4.55246e-005 -0.000297608,3.94093e-005 -0.000448451,-1.87987e-005 -0.000152655,-5.88875e-005 -0.00029172,-0.00015877 -0.000416516,-0.000302138 -0.000104639,-0.000118681 -0.000188667,-0.000258879 -0.000251631,-0.000419687 -0.000206786,0.000319578 -0.00041561,0.000628058 -0.000624887,0.000926346 -0.000223093,0.000317993 -0.000499638,0.00068151 -0.000832579,0.00109146 -0.000122984,0.000356949 -0.000231926,0.00065116 -0.000328864,0.000884898 -9.62584e-005,0.000232153 -0.000180513,0.000426934 -0.000254802,0.000583892 -7.42889e-005,0.000156958 -0.000112339,0.000237135 -0.000114151,0.000240533 -2.37815e-005,5.54902e-005 -7.0665e-005,0.000117775 -0.000144501,0.000188667 -7.22504e-005,7.04385e-005 -0.000137933,0.00011551 -0.000196141,0.000133403 -8.08571e-005,2.51404e-005 -0.000159223,1.72133e-005 -0.000231926,-2.42345e-005 -7.29299e-005,-4.16742e-005 -0.000122078,-0.000102147 -0.000147898,-0.000183004 -6.63617e-005,-0.000206559 -2.67259e-005,-0.000461814 0.000119813,-0.000763499 0.000146086,-0.000302818 0.000393187,-0.000642553 0.000742209,-0.00102125 0.00011551,-0.000361705 0.000220149,-0.000724543 0.000316634,-0.00108489 9.4673e-005,-0.000361026 0.000175304,-0.000687398 0.000238494,-0.000980703 6.50027e-005,-0.000292173 0.000118454,-0.000578004 0.00016262,-0.000856587 -0.000140198,0.000214939 -0.000281754,0.000421725 -0.000421725,0.000623755 -0.000141783,0.000201123 -0.000281075,0.000395452 -0.000417648,0.000580268 -0.00013748,0.000186628 -0.000222414,0.000301685 -0.000253896,0.000346304 -3.35206e-005,4.39391e-005 -6.16054e-005,8.1763e-005 -8.49339e-005,0.000115057 -0.000332714,0.000535197 -0.000612883,0.000837335 -0.000839826,0.000907547 -0.000216072,6.65882e-005 -0.000430785,2.24226e-005 -0.000643233,-0.000134762 -0.000211995,-0.000155825 -0.000368047,-0.000387072 -0.00046725,-0.000695552 -6.20584e-005,-0.000193423 -9.62584e-005,-0.000405644 -0.000100335,-0.000635759 -4.30332e-006,-0.000230114 2.3102e-005,-0.000477442 8.2669e-005,-0.000740397 5.8208e-005,-0.000262502 0.00014586,-0.000525458 0.000261823,-0.000788413 0.000114604,-0.000262502 0.000254575,-0.000515266 0.000417648,-0.000756478 0.00025299,-0.00036782 0.000555354,-0.000720466 0.000907321,-0.00105771 0.000353099,-0.000337697 0.000691928,-0.000618545 0.00101875,-0.000840279 0.000199765,-0.000135894 0.000370538,-0.000239853 0.000512321,-0.000312104l-0.000188667 0 0 -0.00456242 0.00117186 0 0.000786601 0.00205472 0 -0.00205472 0.00117163 0 0 0.00456242 -0.00122848 0 -0.000729752 -0.00207397 0 0.00207397 -0.000341321 0c1.51749e-005,1.65338e-005 2.94438e-005,3.44265e-005 4.28067e-005,5.41312e-005 5.16398e-005,7.29299e-005 9.15021e-005,0.000155146 0.000120493,0.000245289 2.69524e-005,8.33485e-005 2.62729e-005,0.000173945 4.52981e-007,0.0002736 -3.98623e-005,0.000134535 -0.00013748,0.000292852 -0.000289681,0.000475177 -0.00015356,0.000183004 -0.000313236,0.00035174 -0.000477442,0.000505753 -0.000165791,0.000154466 -0.000262502,0.000236909 -0.000290814,0.000245742 -1.63073e-005,4.98279e-006 -2.60464e-005,2.03841e-006 -2.94438e-005,-8.38015e-006 -7.70067e-006,-2.4008e-005 1.13245e-005,-7.0665e-005 5.57166e-005,-0.000141104 4.41656e-005,-7.04385e-005 9.3314e-005,-0.000143821 0.000150163,-0.000221055 0.000124117,-0.000172359 0.00018006,-0.000330902 0.000164206,-0.000477215 -0.000232832,0.000149031 -0.000458643,0.000319125 -0.000674715,0.000511189 -0.000217204,0.00019229 -0.000423311,0.000405871 -0.000621263,0.000640288 -0.000196367,0.000233965 -0.000387072,0.000491031 -0.000570982,0.000768935 -0.000205427,0.00031686 -0.000366235,0.000630096 -0.000481519,0.000940841 -0.000117096,0.000309839 -0.000191611,0.000586157 -0.000224452,0.000830767 -3.32941e-005,0.000243024 -3.21616e-005,0.000421725 4.52981e-006,0.00053565 2.71788e-005,8.47074e-005 7.94981e-005,0.000150163 0.000155146,0.000196594 7.58743e-005,4.6657e-005 0.000160355,5.54902e-005 0.000255028,2.62729e-005 0.000110754,-3.44265e-005 0.000233285,-0.00012457 0.000366009,-0.00027043 0.000143368,-0.000159223 0.000295343,-0.00035174 0.000455246,-0.000578909 0.000160129,-0.00022717 0.000306668,-0.000441203 0.000439844,-0.000641194 0.000133403,-0.000199765 0.000274959,-0.000419687 0.000428973,-0.000656596 0.000140877,-0.00021811 0.000249819,-0.000391602 0.000325467,-0.000521154 7.56478e-005,-0.000129779 0.000127967,-0.000238947 0.000157411,-0.000328185 6.25114e-005,-0.00018391 0.00014518,-0.000305536 0.000247328,-0.000361705 0.000101921,-5.77551e-005 0.000201803,-6.54557e-005 0.000301459,-2.33285e-005 9.96558e-005,4.19007e-005 0.000163526,0.00011098 0.000194102,0.000206333 1.01921e-005,3.19351e-005 -7.70067e-006,0.000169868 -5.48107e-005,0.000415836 -4.711e-005,0.000246195 -0.000124343,0.000606315 -0.000232153,0.00107923 -0.000106903,0.000471327 -0.000247101,0.0010328 -0.000418328,0.0016826 0.000248686,-0.000248686 0.00062149,-0.000704385 0.00111954,-0.00136778 -2.4461e-005,-0.00014133 -1.85722e-005,-0.00030395 1.83457e-005,-0.000487634 4.73365e-005,-0.000236003 0.000132723,-0.000469062 0.000254802,-0.000698949 0.000120946,-0.000229435 0.000266126,-0.000428746 0.000435541,-0.000599067 0.000168282,-0.000169868 0.000338603,-0.000282207 0.000512774,-0.000335885 0.000124343,-3.85034e-005 0.000227623,-5.00544e-005 0.000310971,-3.5106e-005 8.40279e-005,1.63073e-005 0.000135668,5.70756e-005 0.000157411,0.00012457 1.65338e-005,5.16398e-005 6.11524e-006,0.000120493 -3.30676e-005,0.000206786 0.00010645,-1.08715e-005 0.000186402,2.03841e-006 0.000238494,3.98623e-005 5.18663e-005,3.6465e-005 9.89763e-005,0.000118002 0.000139292,0.000243704 4.00888e-005,0.00012457 6.06994e-005,0.000289908 6.20584e-005,0.000497826 1.13245e-006,0.000206333 -2.28755e-005,0.000408815 -7.24769e-005,0.000606088l9.422e-005 4.8016e-005 5.9567e-005 -1.83457e-005c4.43921e-005,-1.38159e-005 8.51604e-005,-3.94093e-005 0.000121625,-7.40624e-005 3.6012e-005,-3.57855e-005 6.79471e-005,-7.04385e-005 9.35405e-005,-0.000105998 2.4008e-005,-3.03497e-005 7.0212e-005,-9.44465e-005 0.000141104,-0.000190705 -4.39391e-005,-0.000228302 7.0212e-006,-0.000488087 0.000152881,-0.000779353 0.000165564,-0.000330676 0.000379598,-0.00062987 0.000643006,-0.000895996 0.000262049,-0.0002659 0.000472912,-0.000422858 0.000631002,-0.00047178 0.000129779,-3.98623e-005 0.000282207,2.2649e-007 0.000457964,0.000122078 6.56822e-005,-0.000455246 0.000135668,-0.000867005 0.000211089,-0.00123324l-5.18663e-005 0 -0.000129553 -0.000327052c-9.53525e-005,0.00014133 -0.000215845,0.000246195 -0.000361252,0.000317313 -0.000145633,7.04385e-005 -0.000317313,0.000105998 -0.000515039,0.000105998 -0.000235097,0 -0.000455699,-4.91484e-005 -0.00066022,-0.000145407 -0.000205653,-9.71644e-005 -0.000361479,-0.000216298 -0.000468382,-0.000359667 -0.000106677,-0.000142462 -0.000172586,-0.000292399 -0.000199991,-0.00044913 -2.60464e-005,-0.000156958 -3.96358e-005,-0.000392508 -3.96358e-005,-0.000706197l0 -0.00135532c0,-0.000435768 2.71788e-005,-0.000752175 8.28955e-005,-0.000949448 5.57166e-005,-0.000198179 0.000214713,-0.000378918 0.000478574,-0.000542445 0.000262502,-0.000164659 0.000602238,-0.000247328 0.00102057,-0.000247328 0.000410174,0 0.000751269,7.1118e-005 0.0010217,0.000214486 0.00027043,0.000142462 0.000447772,0.000312783 0.000529535,0.000508924 8.19895e-005,0.000196141 0.000122758,0.000481066 0.000122758,0.000855228l0 0.000197047 -0.0014013 0 0 -0.000414477c0,-0.00026069 -1.35894e-005,-0.000424217 -3.98623e-005,-0.000490578 -2.71788e-005,-6.54557e-005 -8.96902e-005,-9.80703e-005 -0.000189799,-9.80703e-005 -8.74253e-005,0 -0.000145407,2.78583e-005 -0.000177115,8.44809e-005 -3.08027e-005,5.59431e-005 -4.6657e-005,0.000201123 -4.6657e-005,0.000433956l0 0.00218926c0,0.000204974 1.58543e-005,0.000339736 4.6657e-005,0.000404965 3.17087e-005,6.45498e-005 9.30876e-005,9.71644e-005 0.000186402,9.71644e-005 0.000102147,0 0.000171453,-3.6465e-005 0.000209051,-0.000109621 3.6465e-005,-7.40624e-005 5.45842e-005,-0.000216525 5.45842e-005,-0.000428973l0 -0.000540633 -0.000283113 0 0 -0.000693514 0.00164115 0 0 0.00244904 -0.000219696 0c-7.47418e-005,0.000301459 -0.000149031,0.000597255 -0.000224452,0.000887163 -9.48995e-005,0.000369859 -0.000163979,0.000727487 -0.000207465,0.00107289 -4.23537e-005,0.000343586 -2.28755e-005,0.000644818 5.93405e-005,0.000900299 7.49683e-005,0.000233059 0.000189346,0.00032592 0.000342001,0.000278583 9.19551e-005,-2.83113e-005 0.000191611,-0.000115737 0.000299194,-0.000261143 0.000106224,-0.000144954 0.000251404,-0.00037756 0.000431917,-0.00069827l9.10491e-005 0.00028334c-0.000337924,0.000897808 -0.000661126,0.0013936 -0.000969152,0.00148872 -0.000124343,3.85034e-005 -0.000228302,1.97047e-005 -0.000312104,-5.63961e-005 -8.42544e-005,-7.72332e-005 -0.000155599,-0.000206559 -0.000214713,-0.000390696 -7.97246e-005,-0.000247554 -0.000134762,-0.000524778 -0.000163526,-0.000831673zm-0.031279 -0.0453599c0.000122758,0.000348116 0.000669053,0.00122192 0.000861796,0.00153606 0.000326373,0.000532479 0.00253964,0.00426028 0.0026248,0.00454091l-0.00651862 0.0036696c4.8016e-005,0.000175077 0.00456333,0.00807665 0.00499978,0.00855681 0.000824878,-0.000288549 0.006014,-0.00348637 0.00660967,-0.00365556 0.000171453,0.000420593 0.000657049,0.00115487 0.000921136,0.00159698l0.00188621 0.00323496c0.000294211,0.000486275 0.000760555,0.00118137 0.000945597,0.00165361 0.00318242,9.76174e-005 0.00799013,9.96558e-006 0.0113435,8.15365e-006l0.000657955 -4.52981e-007c-0.000142915,-0.000498958 -0.00521109,-0.00887888 -0.00590325,-0.0100849 -0.000213127,-0.000370991 -0.000698043,-0.00111864 -0.000836656,-0.00148464 0.000296929,-0.000315048 0.00623392,-0.00345466 0.00670525,-0.00387434 -0.000128647,-0.000375295 -0.000395452,-0.00071503 -0.000616054,-0.00108489 -0.00077505,-0.00129892 -0.00388205,-0.0067698 -0.00435609,-0.00739808 -0.000567585,0.000163526 -0.00624434,0.00361297 -0.0068733,0.00375181 -0.000118907,-0.000286737 -0.00148464,-0.00262638 -0.00172699,-0.00301391 -0.000295343,-0.000472006 -0.00158204,-0.00264133 -0.00173831,-0.00299873 -0.000434635,0.000109395 -0.00609554,0.00337154 -0.00672835,0.00373822 -0.000477895,0.000276771 -0.00198836,0.00103257 -0.00225811,0.00130844l0 0z"/>
 </g>
</svg>
