<?xml version="1.0" encoding="UTF-8"?>
<!DOCTYPE svg PUBLIC "-//W3C//DTD SVG 1.1//EN" "http://www.w3.org/Graphics/SVG/1.1/DTD/svg11.dtd">
<!-- Creator: CorelDRAW -->
<svg xmlns="http://www.w3.org/2000/svg" xml:space="preserve" width="1.98819in" height="1.98819in" style="shape-rendering:geometricPrecision; text-rendering:geometricPrecision; image-rendering:optimizeQuality; fill-rule:evenodd; clip-rule:evenodd"
viewBox="0 0 0.114378 0.114378"
 xmlns:xlink="http://www.w3.org/1999/xlink">
 <defs>
  <style type="text/css">
   <![CDATA[
    .fil0 {fill:#0A0B0C}
    .fil1 {fill:#CCCCCC;fill-rule:nonzero}
   ]]>
  </style>
 </defs>
 <g id="Layer_x0020_1">
  <metadata id="CorelCorpID_0Corel-Layer"/>
  <path class="fil0" d="M0.0899033 0.0313191l0 -0.00835251 -0.0496515 0 0 0.000115963c0.00213988,0 0.00291471,0.00111728 0.0039441,0.00139201 7.61008e-005,-0.000912983 0.00106632,-0.00139201 0.00208824,-0.00139201l0.00382837 0c0.00069442,0 0.00120901,0.000186175 0.00162394,0.000464079 0.0005737,-0.000303724 0.000972776,-0.000464079 0.00185609,-0.000464079l0.0030164 3.42001e-005 0.00162394 -3.42001e-005 0.00290021 3.30676e-005 0.00127627 -3.30676e-005 0.00707624 3.48795e-005 0.00197228 -3.48795e-005 0.00394433 0c0.00317064,0 0.0054523,0.0014013 0.0054523,0.00452437l0 0.00359621 0.00870063 0c0.000443468,0 4.21272e-005,-3.5559e-005 0.000347889,0.000115963l2.2649e-007 0zm-0.0424586 -0.000580042l0.00110029 -1.04186e-005 -0.000620357 -0.00300326 -0.000479933 0.00301368zm0.0271453 0.00232017c0,0.000710274 0.00116008,0.000133629 0.00116008,-0.000348116l0 -0.00487226c0,-0.00027043 -0.000309386,-0.000580042 -0.000580042,-0.000580042l-0.000580042 0 0 0.00580042zm-0.0185611 0.0112527c0.000511642,-0.00034268 0.00225584,-0.0028232 0.00232017,-0.00359621 -0.000818763,0.000218563 -0.00211089,0.00269727 -0.00232017,0.00359621zm-0.00127627 0.00348025c0,0.000514133 0.000152202,0.00081378 0.000580042,0.000928158 5.75286e-005,-0.000214939 0.00183525,-0.00324833 0.000812195,-0.00324833 -0.000566453,0 -0.00139224,0.00162054 -0.00139224,0.00232017zm-0.000558299 0.00173175c0.000251178,-1.42689e-005 0.000558299,-9.64849e-005 0.000558299,-0.000339736 0,-0.000126608 -0.000299194,-0.000225131 -0.000347889,-0.000811968l-0.000341774 0.000809703 0.000131364 0.000342001zm0.000790452 0.008013c0.00157864,0 0.0040381,-0.0056036 0.00440818,-0.00719266 -0.000474497,0.000126835 -0.00313667,0.00186515 -0.00356632,0.0022341 -0.000835976,0.000718201 -0.00235006,0.0020092 -0.00235006,0.00345035 0,0.000670185 0.000489219,0.0015082 0.00104412,0.0015082l0.000464079 0zm-0.00788866 0.000580042l-0.000115963 -0.00104412c-0.000401115,0.000293985 -0.000146992,0.00074153 0.000115963,0.00104412zm0.027146 0.00568446l0.000811968 0c0.00117481,0 0.00232017,-0.000979571 0.00232017,-0.0022042l0 -0.000115963c0,-0.000390922 -0.000204974,-0.000812195 -0.000580042,-0.000812195l-0.000347889 0c-0.00112226,0 -0.00323496,0.00313236 -0.0022042,0.00313236zm-0.0343384 0.00301617l0.000554675 -6.56822e-006 0.000122078 -0.000438259 -9.67114e-005 -0.000135215c-0.000293532,0.000196594 -0.000474724,0.000185722 -0.000580042,0.000580042zm-0.00208824 0.00394433c0.000986366,0 0.0019331,-0.00182053 0.00232017,-0.00255232l0.000696232 0c-0.000197953,-0.000171906 -0.000201576,-0.000231926 -0.000580042,-0.000231926l-0.0015082 0c-0.000920231,0 -0.00208802,0.000696458 -0.00208802,0.00162416l0 0.000463852c0,0.000375974 0.000503941,0.000696232 0.000927931,0.000696232l0.000231926 0zm-0.00858444 -0.00962879c0,-0.00525571 0.00524665,-0.0107886 0.0104408,-0.0107886l0.00116008 0c0.00223206,0 0.00429222,0.0013646 0.00429222,0.00359621l0 0.000348116c0,0.00230862 -0.00237068,0.00556827 -0.00440841,0.00556827 -0.00103053,0 -0.00212063,-0.00131682 -0.00220398,-0.00232017 0.00079634,-0.000421499 0.00305218,-0.00159155 0.00313214,-0.00255209 0.000735641,0.000539047 -0.00110663,0.00189369 -0.00139201,0.00232017 0.000946277,-0.000252763 0.00255209,-0.00225086 0.00255209,-0.00348025l0 -0.000696005c0,-0.000860211 -0.000979345,-0.0015082 -0.00185609,-0.0015082l-0.000580042 0c-0.00390877,0 -0.0077727,0.00501246 -0.0077727,0.00928067 0,0.00261506 0.00152994,0.00522038 0.00406029,0.00522038l0.000928158 0c0.00174624,0 0.00341955,-0.00116778 0.00359984,-0.00278062 0.000159902,-0.00142983 0.000649348,-0.00429584 0.00208462,-0.00429584l0.000347889 0c0.00104933,0 0.00136596,0.00041176 0.00208824,0.000580042 -0.000701894,-0.00132633 -0.000776183,-0.00394433 0.00104412,-0.00394433l0.000347889 0c0.000679245,0 0.00116008,0.00137593 0.00116008,0.0022042l0 0.00104389 -0.000578909 -0.00012004c0.000881274,0.00120855 0.00497758,-0.000267712 0.0049726,0.00243953 -2.94438e-006,0.00153493 -0.00184159,0.00349044 -0.00184159,0.00556917 0,0.000141104 0.00024008,0.000348116 0.000464079,0.000348116l0.000348116 0c0.000623302,0 0.00116008,-0.000713898 0.00116008,-0.00127627 0,-0.00240601 0.000141783,-0.00359214 0.00147966,-0.00513273 0.000911397,-0.00104956 0.00244949,-0.00252378 0.00432076,-0.00252378l0.000927931 0c0.00115216,0 0.0022042,0.000921589 0.0022042,0.00208824 0,0.000399982 -8.58399e-005,0.00044913 -0.000115963,0.000811968 -0.000674262,-5.61696e-005 -0.00116484,-0.000347889 -0.00208824,-0.000347889 -0.00205585,0 -0.00464034,0.00193921 -0.00464034,0.00406029l0 0.000927931c0,0.000631682 0.000412666,0.00104412 0.00104412,0.00104412 0.00198021,0 0.00336429,-0.0029677 0.00336429,-0.00510441l0 -0.000464079 0.000348116 0c0.000874253,0 0.00232017,0.000781392 0.00232017,0.00162416 0,0.000651386 -0.00160401,0.00339079 -0.00162416,0.00429245 0.00117911,0.000274506 0.00169573,-0.000517078 0.0022042,-0.00127627l-0.000145407 -0.00115601 2.92173e-005 -0.00012004c0,-0.0033276 0.00251133,-0.00649642 0.00580042,-0.00649642 0.00103053,0 0.00266828,0.000626246 0.00266828,0.00162416l0 0.000231926c0,0.00091253 -0.0015082,0.00196843 -0.0015082,0.00290021 0,0.000313236 5.54902e-005,0.000319804 0.00011619,0.000580042 -0.000787507,-0.000183457 -0.00162416,-0.000780939 -0.00162416,-0.00174013 0,-0.000544936 0.000353552,-0.000938123 0.000580042,-0.00127605 -0.0018006,0.000480839 -0.00348025,0.00171408 -0.00348025,0.00394433l0 0.000811968c0,0.00182574 0.00171453,0.00233534 0.00324946,0.0016253 0.00110029,-0.000508924 0.00237407,-0.00148057 0.00301504,-0.00243726 0,-0.00291856 0.00258697,-0.0062645 0.00533634,-0.0062645l0.000464079 0c0.00136981,0 0.00243613,0.00138567 0.00243613,0.00278425 0,0.00223365 -0.00232991,0.00382814 -0.00464034,0.00382814 -0.000361932,0 -0.000865873,-0.000197726 -0.00127605,-0.000231926 -4.23537e-005,0.000506659 -0.000232153,0.000739265 -0.000232153,0.00127605 0,0.00068083 0.000634173,0.00162416 0.00139224,0.00162416l0.000231926 0c0.0014509,0 0.00258086,-0.000896449 0.0033353,-0.00165293 0.00128533,-0.0012885 0.00110301,-0.00153017 0.00200104,-0.00287145l0.000465211 0.000346757c-0.000886483,0.00184635 -0.000805626,0.00201531 -0.0022332,0.00345353 -0.000737453,0.000742889 -0.00249796,0.00176821 -0.00391647,0.00176821l-0.00104389 0c-0.00137321,0 -0.002211,-0.00158634 -0.00232017,-0.00290021l-0.000232153 0c-0.000326599,0.00122282 -0.00328117,0.00290021 -0.00522038,0.00290021 -0.00137842,0 -0.00262004,-0.000691475 -0.00290021,-0.00174013l-0.000231926 0c-0.000164432,0.000616054 -0.00154874,0.00162394 -0.00232017,0.00162394l-0.000348116 0c-0.00137027,0 -0.00134218,-0.000910944 -0.00174013,-0.00174013 -0.000687172,0.000460229 -0.00122101,0.00162416 -0.00266806,0.00162416l-0.000696005 0c-0.000708915,0 -0.00146381,-0.000675394 -0.00162416,-0.00127605 -0.000863834,0.000230567 -0.000976174,0.0015082 -0.00290021,0.0015082l-0.000231926 0c-0.00125272,0 -0.00197228,-0.000641421 -0.00197228,-0.00185632l0 -0.000347889c0,-0.00112317 0.000887842,-0.00359939 0.00127605,-0.00440841 -0.000485142,-0.000324787 -0.00104208,-0.000580042 -0.00185609,-0.000580042 -0.000845489,0 -0.00106518,0.00391375 -0.00243613,0.00394433 2.4461e-005,-0.00110097 0.00116008,-0.00289704 0.00116008,-0.00440841 0,-0.000390922 -0.000204974,-0.000811968 -0.000580042,-0.000811968 -0.000832579,0 -0.00243613,0.00654082 -0.00243613,0.00788843 0.000262729,7.0212e-005 0.000464079,0.00011166 0.000464079,0.000464079l0 0.000232153c0,0.000267259 -8.08571e-005,0.000347889 -0.000348116,0.000347889l-0.000580042 0c-0.000400435,0.00171884 -0.00228438,0.0037124 -0.00440841,0.0037124l-0.000347889 0c-0.00163232,0 -0.00301617,-0.00127514 -0.00301617,-0.00290021 0,-0.0010217 0.000538368,-0.00139042 0.000927931,-0.00197228 -0.0039509,0 -0.00672835,-0.00216185 -0.00672835,-0.00603235l0 -0.000580042zm0.0109046 -0.00382814c-0.000206106,0.000206106 0.000206333,-0.000206333 0,0zm0.012645 -0.00730862c0,-0.00181079 0.00111841,-0.00406482 0.0018964,-0.00564391 0.000537688,-0.00109123 0.00204249,-0.00433276 0.00332397,-0.00433276l0.000115963 0c0.000385034,0 0.000557619,0.000434635 0.000696005,0.000696005 -0.000524099,0.00109236 -0.000492843,0.00144093 -0.00125612,0.00245629 -0.000549466,0.000731111 -0.00134875,0.00133765 -0.00176006,0.00195212 0.000534744,-0.000124796 0.00174013,-0.000836429 0.00174013,0.000463852l0 0.00011619c0,0.00173537 -0.000957828,0.00225856 -0.00116008,0.00301617 0.00117277,-0.000620584 0.00266806,-0.00278832 0.00266806,-0.00452437 0.000523193,1.1551e-005 0.00116008,0.000208598 0.00116008,0.000696005l0 0.000115963c0,0.000794075 -0.00125068,0.00245901 -0.00127605,0.00359644 0.00106971,-0.000249366 0.00266828,-0.00335568 0.00266828,-0.00487249l0.000347889 0c0.00042399,0 0.000928158,0.000320257 0.000928158,0.000696232 0,0.000406777 -0.00132497,0.00302116 -0.00139201,0.00382814l0.000100562 8.10836e-005 0.00256795 -0.00319034 0.00011551 9.30876e-005c-7.51948e-005,0.000904829 -0.00172472,0.00280916 -0.00234984,0.00333439 -0.000824652,0.000692608 -0.000832352,0.000382542 -0.00128262,0.00150163 -0.00028266,0.000703026 -0.000440977,0.00135555 -0.000737906,0.00204611 -0.000916154,0.00213127 -0.00242979,0.00587879 -0.0052582,0.00587879 -0.00138001,0 -0.00173446,-0.00166335 -0.00148397,-0.00299216 0.000181192,-0.000960772 0.00124728,-0.00218133 0.00194714,-0.0026932 0.000908453,-0.000664523 0.00179697,-0.00133448 0.00286307,-0.00189323 0.00135351,-0.000709141 0.00186017,-0.000758969 0.00224203,-0.00239808 -0.000776636,0.000520022 -0.000367367,0.000733376 -0.0017399,0.00139201 -0.000647989,-0.000310971 -0.000696232,-0.000114604 -0.000696232,-0.00116008 -0.000600426,0.000402247 -0.000836203,0.000836429 -0.00169551,0.00108851 -0.000896223,0.000262955 -0.00111614,0.000767576 -0.00201667,0.000767576 -6.16054e-005,0 -0.000254575,-0.00016715 -0.000348116,-0.000231926l-0.000130232 0.000459549 -0.000797699 -0.000343586zm0.00299692 -0.00477578l-7.74597e-005 -0.000115963 -0.000154693 0.000154693 0.000115963 0.000115963 0.00011619 -0.000154693zm-0.0174919 0.0036123l-0.00745924 -0.013786 0.00292875 -1.56278e-005c0.000132723,0.00159449 0.00334255,0.00255232 0.00522038,0.00255232l0.000580042 0c0.0011363,0 0.0026855,-0.000696005 0.00313214,-0.000696005 6.31908e-005,0 0.000829181,0.000463852 0.00162416,0.000463852l0.00313214 0 0.00127627 -3.30676e-005 0.00348025 3.30676e-005c0.000770747,0 0.00148238,-0.000347889 0.00162394,-0.000347889 0.000266126,0 0.000770294,0.000347889 0.0015082,0.000347889l0.00382814 0c0.000744247,0 0.00114219,-0.000209051 0.00162416,-0.000463852 0.000481972,0.000254802 0.000880142,0.000463852 0.00162416,0.000463852l0.00742458 0 0.00127605 -3.30676e-005 0.00487226 3.30676e-005c0.00304539,0 0.00425508,-0.00232017 0.00452437,-0.00232017l0.00301617 0 -0.0121127 0.0224796c-0.000931782,-0.000202256 -0.00157569,-0.000979345 -0.00331627,-0.00101807l0.00958621 -0.0177095 -0.0409085 -3.96358e-005 0.00539387 0.0101776 -0.00144252 -0.00024393 -0.000935179 4.30332e-005 -0.00150208 0.000112566 2.2649e-007 0zm0.00567834 -0.0149617c0,-2.58199e-005 0.000512321,-0.00168192 0.000592046,-0.00219197 0.000110754,-0.000706424 0.000350834,-0.00153153 0.000439844,-0.00222844 0.000181192,-0.00142213 0.000795887,-0.00336361 0.000824199,-0.00462811l0.00452437 0c0.000588422,0 0.000992481,0.00386529 0.00116008,0.00452437 0.000197047,0.00077505 0.000288322,0.00160514 0.000488313,0.00241167 8.49339e-005,0.000342453 0.000128194,0.000751269 0.00023102,0.00116122 8.71988e-005,0.000347889 0.00044075,0.000741983 0.00044075,0.00095126l0 0.00174013 -0.00417648 0 0 -0.00197205c0.000258652,-6.90796e-005 0.000348116,-2.71788e-005 0.000348116,-0.000348116l0 -0.000463852 -0.00162416 0 0 0.000463852c0,0.000320937 8.94637e-005,0.000279036 0.000348116,0.000348116l0 0.00197205 -0.00359621 0 0 -0.00174013zm-0.00870063 -0.00661239c0,-0.00151069 0.0015963,-0.00255209 0.00313214,-0.00255209l0.00127605 0c0.00185994,0 0.00229435,0.00075829 0.00336429,0.00104412l0 0.00255209 -0.00313214 0 0 -0.000696005c0,-0.000270656 -0.000309612,-0.000580042 -0.000580042,-0.000580042l-0.00011619 0c-0.00027043,0 -0.000580042,0.000309386 -0.000580042,0.000580042 0,0.00194578 0.00475653,0.000611071 0.00475653,0.00440818l0 0.000348116c0,0.00242662 -0.00152134,0.00348025 -0.00394433,0.00348025l-0.000580042 0c-0.00209866,0 -0.00232039,-0.000734508 -0.00348025,-0.00104412l0 -0.00301617 0.0032481 0 0 0.000696005c0,0.000561243 0.000142689,0.00104412 0.000696232,0.00104412 0.000498958,0 0.000696005,-0.000432144 0.000696005,-0.000928158 0,-0.00198428 -0.0047563,-0.000759196 -0.0047563,-0.00394433l0 -0.00139201zm0.0399067 -0.00243613c0.00229752,0 0.00394433,0.000493749 0.00394433,0.00278425l0 0.00522038c0,0.0016937 -0.0012124,0.00278402 -0.00290021,0.00278402l-0.00533634 0 0 -0.00174013c0,-0.000426708 0.000347889,-0.000269297 0.000347889,-0.000696005l0 -0.00568446c0,-0.000446639 -6.43233e-005,-0.000477215 -0.000347889,-0.000580042l0 -0.00208802 0.00429222 0zm-0.00939663 0.00638046l0 0.00208802 0.000464079 0c0.000823972,0 0.000811968,-0.000699402 0.000811968,-0.00150797l0.00301617 0 0 0.00382814 -0.0080044 0 0 -0.00174013c0,-0.000379371 0.000347889,-0.000305309 0.000347889,-0.000927931l0 -0.00533634c0,-0.000622622 -0.000347889,-0.00054856 -0.000347889,-0.000928158l0 -0.00185609 0.0080044 0 0 0.00371218 -0.00301617 0c0,-0.000811062 -0.000127288,-0.00139201 -0.000927931,-0.00139201l-0.000348116 0 0 0.00197205 0.0022042 0 0 0.00174013c0,0.000267259 -8.08571e-005,0.000348116 -0.000348116,0.000348116l-0.00185609 0zm-0.00540451 -6.81736e-005c-0.000141557,0.000700308 -0.00052274,0.00447636 -0.00109191,0.00447636l-0.00429245 0c-0.000349475,-0.00150027 -0.000611751,-0.00312126 -0.000918872,-0.0046494 -0.000156278,-0.000778221 -0.000297835,-0.00160333 -0.000444374,-0.00233965 -8.06306e-005,-0.000404512 -0.000142462,-0.000847527 -0.000239627,-0.00115238 -0.000155372,-0.000486728 -0.000485142,-0.000619904 -0.000485142,-0.000907094l0 -0.00139201c0,-0.000267485 8.06306e-005,-0.000348116 0.000348116,-0.000348116l0.00348025 0c0.000267259,0 0.000347889,8.06306e-005 0.000347889,0.000348116l0 0.00139201c0,0.000172133 -0.000250498,0.000511868 -0.000347889,0.000696005l0.000740397 0.0047495 0.000713445 -0.00450897 -6.18319e-005 -0.000588649c-0.000258426,-6.88531e-005 -0.000348116,-2.69524e-005 -0.000348116,-0.000347889l0 -0.00174013 0.0037124 0 0 0.00174013c0,9.35405e-005 -0.000589555,0.00176481 -0.000668373,0.00223206 -0.000146766,0.000870629 -0.000272241,0.00149099 -0.000443921,0.0023401zm-0.0358944 -0.00816838l0.0129928 0 0.000464079 0 0 0.000115963c-0.00236524,0 -0.00440818,0.00193604 -0.00440818,0.00429222l0 0.00116008c0,0.000661352 0.000276545,0.00173922 0.000580042,0.00208824l-0.000366688 0.000567811 -0.0092621 1.22305e-005 0 0.000231926 0.0102043 0.018733 -0.00011166 6.02464e-005c-0.00151817,0.000353778 -0.00380119,0.00301436 -0.00472482,0.00420797 -0.000976627,0.00126223 -0.00223569,0.00449583 -0.00223569,0.00669687l0 0.000580042c0,0.0020212 0.000811742,0.00372826 0.00170842,0.0049042 0.00061628,0.000808571 0.000974362,0.000978665 0.00181827,0.00154602 0.000993613,0.00066792 0.0014595,0.000527949 0.00238993,0.000974362 -0.000523646,0.00109123 0.000544936,0.00302093 0.00107017,0.00356994 0.000736547,0.000769388 0.00200603,0.00153425 0.00345398,0.00153425l0.000232153 0c0.0017476,0 0.00314958,-0.000839147 0.00410582,-0.00169437 0.000466117,-0.000416969 0.000949221,-0.00106156 0.00129983,-0.00160038 0.000220149,-0.000338377 0.00123415,-0.00125974 0.0015193,-0.00132655l0.0016595 0.0032293c0.000878556,0 0.00299058,-9.98823e-005 0.00383856,-0.000231473 0.000567585,-8.81048e-005 5.41312e-005,-0.000736773 -0.000202256,-0.0012004 -0.00026975,-0.00048786 -0.000481519,-0.000871082 -0.000736094,-0.00135237 0.00190207,0 0.00273782,-0.000795434 0.00348025,-0.000811968 0.000120946,0.00051889 0.00145044,0.00313214 0.00185609,0.00313214l0.00417648 0c0.000372124,0 0.00116144,-0.00161692 0.00135237,-0.00201191 0.000373709,-0.000773465 0.00118251,-0.00079702 0.00201169,-0.00135215 0.000566679,0.000379371 0.00103302,0.000811968 0.00197228,0.000811968 -5.93405e-005,0.000712086 -0.00147944,0.00255436 -0.00112407,0.00274031 3.17087e-006,1.58543e-006 0.00374026,0.000275865 0.00402428,0.000275865 9.96558e-005,-0.000428067 0.000987951,-0.00204023 0.00125249,-0.00245969 0.000839826,-0.00133063 0.000370991,-0.001132 0.00176368,-0.00206469 0.000603597,0.000901432 0.00163005,0.00174013 0.00313214,0.00174013l0.000696005 0c0.00339962,0 0.00788866,-0.00366937 0.00788866,-0.00661239l0 -0.000348116c0,-0.000980477 -0.000633267,-0.00139994 -0.00127605,-0.00174013 0.000215392,-0.00258811 -0.00142145,-0.00487226 -0.00406029,-0.00487226l-0.000622169 -2.2649e-005 0.013615 -0.0250351 0 -0.000115963c-0.000305762,-0.000151749 9.5579e-005,-0.000115963 -0.000348116,-0.000115963l-0.00870063 0 0 -0.00359621c0,-0.00312308 -0.00228144,-0.00452437 -0.0054523,-0.00452437l-0.00394433 0 -0.00197205 3.4653e-005 -0.00707647 -3.4653e-005 -0.00127605 3.30676e-005 -0.00290021 -3.30676e-005 -0.00162416 3.39736e-005 -0.00301617 -3.39736e-005c-0.000883539,0 -0.00128239,0.000160355 -0.00185609,0.000464079 -0.00041493,-0.000277904 -0.000929743,-0.000464079 -0.00162416,-0.000464079l-0.00382837 0c-0.0010217,0 -0.00201214,0.000478801 -0.00208802,0.00139201 -0.0010294,-0.000274733 -0.00180445,-0.00139201 -0.00394433,-0.00139201l0 -0.000115963 0.0496515 0 0 -0.000580042 -0.0654285 0 0 0.000580042 0 0zm0.0461712 0.0528996l0 0.000232153c0,0.00032524 0.000139292,0.000282434 0.000348116,0.000463852 0.000712312,-0.00037688 0.000464079,-0.000277224 0.000464079,-0.000927931l0 -0.000348116c-0.000311198,-7.45153e-005 -0.00021879,-0.000115963 -0.000464079,-0.000115963 -0.000218337,0 -0.000348116,0.00042784 -0.000348116,0.000696005zm-0.0252897 -0.000347889l0 0.00104389c0,0.000190025 6.95326e-005,0.000348116 0.000231926,0.000348116 0.000271336,0 0.000580042,-0.000150843 0.000580042,-0.000464079l0 -0.000811968c0,-0.000401567 -0.000811968,-0.000700761 -0.000811968,-0.000115963zm0.0119351 0.00231768l0.000709594 2.2649e-006 -0.000328185 -0.00222051 -0.00038141 0.00221825zm0.0133546 2.2649e-006l0 0.000232153c0,0.000313236 5.54902e-005,0.000319804 0.000115963,0.000580042l0.000670412 -3.85034e-006 0.000141783 -0.000692155c-0.000184137,-0.000383675 4.52981e-007,-0.000696232 -0.000464079,-0.000696232l-0.000348116 0c-6.04729e-005,0.000260237 -0.000115963,0.000266806 -0.000115963,0.000580042zm-0.0301622 0.00359644l0.0334103 0 0 -0.00104412 -0.0334103 0 0 0.00104412zm0 -0.00104412l0.0334103 0 0 0.00104412 -0.0334103 0 0 -0.00104412zm0.0281901 -0.00174013l0.000811968 0 0 0.000696005 -0.000811968 0 0 -0.000696005zm-0.013341 -0.00406029l0.000696005 0 0 0.0047563 -0.000696005 0 0 -0.0047563zm0.00104412 0.0047563c0.000154466,-0.000663843 0.000463626,-0.0047563 0.00104389,-0.0047563l0.000928158 0 0.000697137 0.00475607 -0.000813101 2.2649e-007 0 -0.000348116c0,-0.000313236 -5.54902e-005,-0.000319804 -0.00011619,-0.000580042 -0.000305762,0.000151749 9.5579e-005,0.00011619 -0.000347889,0.00011619l-0.000580042 0 -0.000101921 0.000814233 -0.000710047 -2.2649e-006zm-0.00916471 -0.0047563l0.000811968 0 0 0.00197205 0.000812195 0 0 -0.00197205 0.000811968 0 0 0.0047563 -0.000811968 0 0 -0.00208824 -0.000812195 0 0 0.00208824 -0.000811968 0 0 -0.0047563zm-0.00255232 0l0.0015082 0c0.000375748,0 0.000696005,0.000504168 0.000696005,0.000928158l0 0.00104389c0,0.000515492 -0.000272921,0.000722504 -0.000580042,0.000928158 -0.000478121,0 -0.000928158,-0.000142009 -0.000928158,0.000347889l0 0.0015082 -0.000696005 0 0 -0.0047563zm0.0248258 0.00185609c0,0.000489219 -0.000180739,0.000231926 -0.000464079,0.000231926l-0.000348116 0 0 -0.000347889c0,-0.000267259 8.08571e-005,-0.000348116 0.000348116,-0.000348116l0.000115963 0c0.000267259,0 0.000348116,8.08571e-005 0.000348116,0.000348116l0 0.000115963zm0.000464079 -0.000927931c0,-0.000573474 0.000470647,-0.00104412 0.00104389,-0.00104412l0.000232153 0c0.000573247,0 0.00104412,0.000470647 0.00104412,0.00104412l0 0.000463852c0,0.000622622 -0.000348116,0.00054856 -0.000348116,0.000928158 0,0.000150163 0.000348116,0.000247101 0.000348116,0.000811968l0 0.000464079c0,0.000691928 -0.000236682,0.00116008 -0.000928158,0.00116008l-0.000464079 0c-0.000561017,0 -0.000927931,-0.000366914 -0.000927931,-0.000928158l0 -0.000811968c0,-0.000425802 0.000179607,-0.00056079 0.000347889,-0.000811968 -0.000159902,-0.000239174 -0.000347889,-0.000301232 -0.000347889,-0.000580042l0 -0.000696005zm-0.0105567 -0.000928158l0.00104389 0 0.000598614 0.00257701 9.73909e-005 -0.00257701 0.000696232 0 0 0.0047563 -0.000580042 0c-0.000493749,0 -0.000772106,-0.00257361 -0.00116008,-0.00313214l0 0.00313214 -0.000696005 0 0 -0.0047563zm0.00661239 0.000928158c0,-0.000573474 0.000470647,-0.00104412 0.00104412,-0.00104412l0.000115963 0c0.000573247,0 0.00104412,0.000470647 0.00104412,0.00104412l0 0.000463852c0,0.00101807 -0.00127741,0.00167739 -0.0015082,0.00266828l0.00116008 0c0.000267259,0 0.000348116,8.06306e-005 0.000348116,0.000347889l0 0.000348116 -0.0022042 0 0 -0.000811968c0,-0.000559205 0.000693061,-0.00131885 0.00101626,-0.00165202 0.000378692,-0.000390243 0.000732243,-0.00171227 0.000143821,-0.00171227 -0.000245289,0 -0.000152881,4.14477e-005 -0.000464079,0.000115963l0 0.000580042c0,0.000267259 -8.06306e-005,0.000348116 -0.000348116,0.000348116l-0.000347889 0 0 -0.000696005zm-0.0037124 -0.00011619c0,-0.000598614 0.000483104,-0.000927931 0.00104412,-0.000927931 0.0011696,0 0.00145611,0.00139201 0.000812195,0.00139201l-0.000348116 0c-5.00544e-005,-0.000215166 -0.000116869,-0.000696005 -0.000348116,-0.000696005 -0.000245289,0 -0.000152881,4.14477e-005 -0.000463852,0.000115963l0 0.000348116c0,0.00101151 0.00150797,0.00122124 0.00150797,0.00255209 0,0.000592272 -0.00031754,0.00116008 -0.000927931,0.00116008l-0.000464079 0c-0.000756251,0 -0.000928158,-0.000637118 -0.000928158,-0.00139201l0.000696005 0 0.000133629 0.000692155 0.00033045 3.85034e-006c0.000267259,0 0.000348116,-8.08571e-005 0.000348116,-0.000348116l0 -0.000231926c0,-0.000661126 -0.00139224,-0.00118975 -0.00139224,-0.00208824l0 -0.000580042zm-0.00962856 0.00011619c0,-0.000631682 0.000412439,-0.00104412 0.00104412,-0.00104412 0.000829861,0 0.00116008,0.000549692 0.00116008,0.00139201l-0.000696005 0c-9.5126e-006,-0.000420819 -5.09603e-005,-0.000696005 -0.000464079,-0.000696005 -0.00014133,0 -0.000348116,0.000239853 -0.000348116,0.000464079 0,0.00101151 0.0015082,0.00122124 0.0015082,0.00255209 0,0.000592272 -0.000317766,0.00116008 -0.000928158,0.00116008l-0.000464079 0c-0.000722051,0 -0.000912303,-0.000690569 -0.000927931,-0.00139201l0.000696005 0 0.000143821 0.000690343 0.000668147 5.66226e-006 0 -0.000464079c0,-0.000867232 -0.00139201,-0.0014176 -0.00139201,-0.00208802l0 -0.000580042zm-0.00243613 -0.000928158l0.00197205 0 0 0.000696005c-0.000260237,-6.04729e-005 -0.000266579,-0.000115963 -0.000580042,-0.000115963 -0.000358761,0 -0.000696005,1.74398e-005 -0.000696005,0.000348116l0 0.00104389 0.00104412 0 0 0.000696005 -0.00104412 0 0 0.00139224 0.00127605 0 0 0.000696005 -0.00197205 0 0 -0.0047563zm-0.00812059 0l0.00208802 0 0 0.000348116c0,0.000692608 -0.000848207,-9.76174e-005 -0.00129145,0.000316407 -3.73709e-005,3.48795e-005 -9.30876e-005,0.000977759 -0.000100562,0.00130753l0.00104412 0 0 0.000696005 -0.000696005 0c-0.000567358,0 -0.00016262,0.000943333 -0.000348116,0.00139224l0.00139201 0 0 0.000696005 -0.00208802 0 0 -0.0047563zm0.00371331 -0.000638929l-0.00382927 -5.70756e-005c-0.000375068,0 -0.000580042,0.000421046 -0.000580042,0.000811968l-2.74053e-005 0.000489446 -0.00443672 0.00138386 0.00260804 0.00845149c0.000368273,-8.15365e-006 0.00312466,-0.00086927 0.00382746,-0.0010448 0.00137004,-0.00034268 0.00273759,-0.000476536 0.00424398,-0.000744247 0.00251721,-0.000447772 0.00637593,-0.000647083 0.00921363,-0.000647083l0.000696005 0c0.00526024,0 0.0138621,0.000909585 0.0172853,0.00255209 0.000367141,-0.00157615 0.00255209,-0.00754372 0.00255209,-0.0084687 0,-0.000269524 -0.00285808,-0.00106337 -0.00334028,-0.00118387 -0.00153266,-0.000383675 -0.000703706,1.40424e-005 -0.00138997,-0.000930196 -0.000309159,-0.000425575 -0.000845036,-0.000786148 -0.00153402,-0.000786148 -0.000826916,0 -0.00124366,0.000479707 -0.00174013,0.000812195 -0.00102464,-8.53869e-005 -0.00136483,-0.000812195 -0.00208824,-0.000812195 -0.000524552,0 -0.00126495,0.000348116 -0.00127605,0.000348116 -0.000874479,0 -0.00245448,-0.000388205 -0.00287122,-0.000327732 -0.00107832,0.000156505 -0.00180988,-2.03841e-005 -0.00304516,-2.03841e-005l-0.00382859 -1.08715e-005 -0.0104394 0.000184137 0 0zm-0.00592408 0.0112867c0.000283792,0.00121422 0.00371897,0.00291561 0.00522695,0.00304109l0 -0.00429222 -3.48795e-005 -0.000131591 -0.00519207 0.00138272zm0.0294727 0.00304109c0.00141307,-0.000117549 0.00479593,-0.00186175 0.00511325,-0.00304947l-0.00511325 -0.00124275 0 0.00429222zm-0.01624 -0.00415248l0.00398804 0.00755527 0.000142009 -2.2649e-007 0.00398804 -0.00755504 -0.003131 -0.000139745 -0.00185745 -2.78583e-005 -0.00312964 0.000167603zm-0.0286551 0.00763273l0 0.000232153 0.0654285 0 0 -0.000232153 -0.00962879 0 0.000124117 -0.00556827 0.00373619 -0.00250476c-0.00179199,-0.000978665 -0.00512502,-0.00286963 -0.00745652,-0.00306374 -6.93061e-005,0.000833711 -0.00136959,0.00480703 -0.0017587,0.00531777 -0.00047178,0.000618772 -0.00117096,0.00125974 -0.0018391,0.00164115 -0.000452528,0.000258199 -0.00209005,0.000963037 -0.00231858,0.00116167 0.00220081,4.89219e-005 0.0086012,0.0019306 0.00939663,0.00301617l-0.0460552 0c0.00128375,-0.00111592 0.00703842,-0.00296114 0.0095126,-0.00301617 -0.000345624,-0.000300326 -0.00178656,-0.000804041 -0.00239061,-0.00120561 -0.000742436,-0.00049307 -0.00127944,-0.000968699 -0.00181872,-0.00166153 -0.000625567,-0.000803588 -0.00121172,-0.00409812 -0.00182302,-0.00525345 -0.000371897,0.000178474 -0.00157864,0.000394093 -0.00208824,0.000580042 -0.000676074,0.000246648 -0.00119451,0.000460229 -0.00184023,0.000711633 -0.0010867,0.000423311 -0.00234078,0.00117458 -0.00337992,0.0017245 0.00046657,0.000637118 0.00371218,0.00220941 0.00371218,0.00278425l0 0.00533634 -0.0095126 0 0 0z"/>
  <path class="fil1" d="M0.0232153 0l0.0679471 0 1.58543e-006 0 0 2.2649e-006c0.00639473,4.52981e-007 0.0121988,0.00260713 0.016402,0.00681057 0.00420276,0.00420298 0.00680853,0.0100057 0.00680943,0.016399l2.2649e-006 0 0 3.39736e-006 0 0.0679471 0 1.58543e-006 -2.2649e-006 0c-4.52981e-007,0.00639473 -0.00260713,0.0121988 -0.00681057,0.016402 -0.00420298,0.00420276 -0.0100057,0.00680853 -0.016399,0.00680943l0 2.2649e-006 -3.39736e-006 0 -0.0679471 0 -1.58543e-006 0 0 -2.2649e-006c-0.00639473,-4.52981e-007 -0.0121988,-0.00260713 -0.016402,-0.00681057 -0.00420276,-0.00420298 -0.00680853,-0.0100057 -0.00680943,-0.016399l-2.2649e-006 0 0 -3.39736e-006 0 -0.0679471 0 -1.58543e-006 2.2649e-006 0c4.52981e-007,-0.00639473 0.00260713,-0.0121988 0.00681057,-0.016402 0.00420298,-0.00420276 0.0100057,-0.00680853 0.016399,-0.00680943l0 -2.2649e-006 3.39736e-006 0zm0.0679471 0.00113245l-0.0679471 0 -3.39736e-006 0 0 -2.2649e-006c-0.00607742,6.79471e-007 -0.011597,0.00248143 -0.0155982,0.00648238 -0.00400163,0.00400141 -0.00648329,0.00952234 -0.00648351,0.0156011l2.2649e-006 0 0 1.58543e-006 0 0.0679471 0 3.39736e-006 -2.2649e-006 0c6.79471e-007,0.00607742 0.00248143,0.011597 0.00648238,0.0155982 0.00400141,0.00400163 0.00952234,0.00648329 0.0156011,0.00648351l0 -2.2649e-006 1.58543e-006 0 0.0679471 0 3.39736e-006 0 0 2.2649e-006c0.00607742,-6.79471e-007 0.011597,-0.00248143 0.0155982,-0.00648238 0.00400163,-0.00400141 0.00648329,-0.00952234 0.00648351,-0.0156011l-2.2649e-006 0 0 -1.58543e-006 0 -0.0679471 0 -3.39736e-006 2.2649e-006 0c-6.79471e-007,-0.00607742 -0.00248143,-0.011597 -0.00648238,-0.0155982 -0.00400141,-0.00400163 -0.00952234,-0.00648329 -0.0156011,-0.00648351l0 2.2649e-006 -1.58543e-006 0z"/>
 </g>
</svg>
