<?xml version="1.0" encoding="UTF-8"?>
<!DOCTYPE svg PUBLIC "-//W3C//DTD SVG 1.1//EN" "http://www.w3.org/Graphics/SVG/1.1/DTD/svg11.dtd">
<!-- Creator: CorelDRAW -->
<svg xmlns="http://www.w3.org/2000/svg" xml:space="preserve" width="1.98819in" height="1.98819in" style="shape-rendering:geometricPrecision; text-rendering:geometricPrecision; image-rendering:optimizeQuality; fill-rule:evenodd; clip-rule:evenodd"
viewBox="0 0 0.114378 0.114378"
 xmlns:xlink="http://www.w3.org/1999/xlink">
 <defs>
  <style type="text/css">
   <![CDATA[
    .fil0 {fill:black}
    .fil1 {fill:#CCCCCC;fill-rule:nonzero}
   ]]>
  </style>
 </defs>
 <g id="Layer_x0020_1">
  <metadata id="CorelCorpID_0Corel-Layer"/>
  <g id="_419707128">
   <path id="_419708400" class="fil0" d="M0.0559841 0.019858l0.00169596 -0.000721598 0.00180218 0.000773691 -0.00104956 0.00200082 0.00242345 -0.000283792 0.000826916 0.00125272 -0.00101943 0.00112747 -0.00223908 -0.000428973 0 0.00345987c0,0.00147015 0.000464079,0.00186039 0.000447998,0.00315093l-0.00118953 0.00105046c-0.00031686,-0.000212448 -0.00148283,-0.000849566 -0.00148283,-0.00123573 0,-0.00132474 0.000494429,-0.00170298 0.000494429,-0.00321277l-3.4653e-005 -0.00332307 -0.00169528 0.000604503c-0.000431238,-0.000288549 -0.00123573,-0.000799738 -0.00123573,-0.00148283 0,-0.000512774 0.000722957,-0.00123551 0.000988404,-0.00123551 0.000713218,0 0.000615601,0.000463852 0.00209526,0.000443695l-0.000828502 -0.00193989zm-0.00176096 0.000260464l-0.00123573 0c-0.000920004,0 -0.00183956,0.0007105 -0.00222414,0.00123573 0.00106609,0.00159177 0.0042014,0.00338671 0.0042014,0.005684 0,0.00167127 -0.00149665,0.00271856 -0.00321277,0.00271856l-0.00074153 0c-0.00156505,0 -0.00271856,-0.0016142 -0.00271856,-0.00321277 0,-0.00117186 0.00126789,-0.00357515 0.00172993,-0.0044485 -0.000485595,-0.00025684 -0.00072862,-0.000494429 -0.00148261,-0.000494429l-0.00148306 0c-0.000298514,-0.00111796 -0.00223501,-0.0044485 -0.00345987,-0.0044485l-0.000741303 0c-0.000770067,0 -0.00123573,0.00122282 -0.00123573,0.00197726l0 0.00148283c0,0.00124932 0.000397944,0.00131274 0.000494202,0.00247124 -0.00132723,0.000110527 -0.00186651,0.000649801 -0.00197703,0.00197726 0.00136415,0.000317766 0.0042014,0.00232742 0.0042014,0.00395407 0,0.000576418 -0.00065954,0.00123573 -0.00123573,0.00123573l-0.000988631 0c-0.00229888,0 -0.00297405,-0.00466865 -0.00381342,-0.00508358 -0.00268844,-0.00132905 -0.00243432,-0.00332511 -0.00533068,-0.00356632 0.000983874,0.00146924 0.00623981,0.0128513 0.00716706,0.0128513l0.0345991 0c0.000951033,0 0.00635872,-0.0113238 0.00716684,-0.0128513 -0.00143278,0.00011936 -0.00215732,0.000652972 -0.00290225,0.00154625 -0.00159336,0.00191067 -0.000324561,0.00083054 -0.00244089,0.00200761 -0.00095058,0.000528855 -0.00121489,0.00509603 -0.00404806,0.00509603 -0.000998143,0 -0.00172993,-0.000537915 -0.00172993,-0.00148283 0,-0.00114242 0.00298922,-0.00344945 0.0039543,-0.00370697l0 -0.00074153c0,-0.000737226 -0.000992481,-0.00117435 -0.00172993,-0.00123551 0,-0.00133471 0.000494202,-0.00221281 0.000494202,-0.00321299 0,-0.00143889 -0.000734055,-0.00201282 -0.000988631,-0.00296544 -0.00274438,6.09259e-005 -0.0037038,0.00282139 -0.0047153,0.00457669l-0.00269863 0.00061311c0.000361026,0.00155033 0.00148283,0.00230001 0.00148283,0.00420117l0 0.00123573c0,0.00136732 -0.0014253,0.00247146 -0.00271856,0.00247146l-0.000247101 0c-0.00162597,0 -0.00321277,-0.000866326 -0.00321277,-0.00247146l0 -0.000741303c0,-0.00157071 0.00314165,-0.00448043 0.00420117,-0.00519003 -0.000540859,-0.00102215 -0.000835523,-0.00130436 -0.00224882,-0.00145815 -0.00219265,-0.000238721 -0.00125815,-4.32597e-005 -0.001474,-0.00223297 -0.000171227,-0.00173718 -0.00162371,-0.00421702 -0.00344401,-0.00421702 -0.00190909,0 -0.00321277,0.00398193 -0.00321277,0.00642553l0 0z"/>
   <path id="_419708256" class="fil0" d="M0.0739942 0.039148c0.000569397,0 0.000741303,-0.000172133 0.000741303,-0.00074153l0 -0.00148283c0,-0.000569397 -0.000171906,-0.000741303 -0.000741303,-0.000741303l-0.0336105 0 0 0.00222414c0,0.000569397 0.000171906,0.00074153 0.000741303,0.00074153l0.0328692 0 0 0z"/>
   <path id="_419708328" class="fil0" d="M0.0562004 0.0450791c0,-0.000569397 0.000171906,-0.000741303 0.000741303,-0.000741303 0.000346304,0 0.000494202,0.000336791 0.000494202,0.000741303l0 0.000741303c0.000554449,0.000129326 0.000568264,0.000247328 0.00123573,0.000247328l0.00296567 0c0.000569397,0 0.000741303,-0.000172133 0.000741303,-0.00074153 0,-0.00295932 -0.00225788,-0.0044485 -0.0051898,-0.0044485l-0.00123573 0c-0.00233761,0 -0.0046956,0.00176889 -0.0046956,0.0042014l0 0.000247101c0,0.00416878 0.00509128,0.00439799 0.00642553,0.00691996l-0.000688304 0.000794302c-0.000437806,-0.000310518 -0.000794528,-0.00038073 -0.000794528,-0.00104163l0 -0.000741303 -0.00420117 0c-0.000404512,0 -0.00074153,0.000147898 -0.00074153,0.000494202 0,0.00321028 0.00242028,0.0046956 0.00568423,0.0046956l0.000247101 0c0.00241552,0 0.0051898,-0.00142327 0.0051898,-0.00370697l0 -0.00123573c0,-0.00308593 -0.00617843,-0.00462539 -0.00617843,-0.00617843l0 -0.000247101 2.2649e-007 0z"/>
   <path id="_419708112" class="fil0" d="M0.044832 0.0445849l0.0054369 0 0 -0.00345987c-0.000554222,-0.000129326 -0.000568038,-0.000247328 -0.00123573,-0.000247328l-0.00790814 0c-0.000667694,0 -0.00068151,0.000118002 -0.00123573,0.000247328l0 0.0150752 0.0103796 0 0 -0.00345987 -0.0054369 0 0 -0.00172993c0,-0.0010328 0.00145543,-0.00074153 0.00222414,-0.00074153l0.000988631 0 0 -0.00271856c0,-0.000569397 -0.000171906,-0.000741303 -0.000741303,-0.000741303l-0.00247146 0 0 -0.00222414 0 0z"/>
   <path id="_419708040" class="fil0" d="M0.0334637 0.0564475c0.0033088,0 0.0051898,-0.00299624 0.0051898,-0.00642553l0 -0.014087c-0.000554222,-0.0001291 -0.000568038,-0.000246875 -0.00123573,-0.000246875l-0.00296567 0c-0.00130866,0 -0.000741303,0.0059345 -0.000741303,0.00741394 0,0.00271856 0,0.0054369 0,0.00815547 -0.00044596,0.000298741 -0.000434409,0.000494429 -0.000988631,0.000494429 -0.00127627,0 0.000426028,-0.00321299 -0.00123573,-0.00321299l-0.00420117 0 0 0.00271856c0,0.00287733 0.00239763,0.00519003 0.0054369,0.00519003l0.00074153 0 0 0z"/>
   <path id="_419707968" class="fil0" d="M0.0633673 0.0512575c0,0.00313349 0.00218631,0.00519003 0.0051898,0.00519003l0.000988631 0c0.00302795,0 0.0051898,-0.00201305 0.0051898,-0.00519003l0 -0.0101325c-0.000554222,-0.0001291 -0.000568264,-0.000247101 -0.00123573,-0.000247101l-0.00296567 0c-0.00127469,0 -0.000741303,0.00412643 -0.000741303,0.0054369 0,0.00205948 0,0.00411895 0,0.00617843l-0.000711633 0.000530214 -0.00074153 -0.000566c-2.96702e-005,-0.00202369 -2.96702e-005,-0.00408317 -2.96702e-005,-0.00614265 0,-0.00131047 0.000533385,-0.0054369 -0.000741303,-0.0054369l-0.00296589 0c-0.000667467,0 -0.000681283,0.000118002 -0.00123551,0.000247101l0 0.0101325 0 0z"/>
   <path id="_419707944" class="fil0" d="M0.0806668 0.0413721c0,-0.000821934 0.000443695,-0.000723863 0.00123573,-0.000741303l0.000308706 0.00196707 0.00463399 9.96558e-006 0 -0.00123573c0,-0.00319284 -0.00221757,-0.00543713 -0.0054369,-0.00543713l-0.000494429 0c-0.00318151,0 -0.0051898,0.00266398 -0.0051898,0.00593133 0,0.00541674 0.00642553,0.00670117 0.00642553,0.00939142 0,0.000346077 -0.000336791,0.000494202 -0.000741303,0.000494202 -0.000300779,0 -0.00074153,-0.000511189 -0.00074153,-0.000988631l0 -0.000988631 -0.0046956 0 0 0.00197726c0,0.00258675 0.00235029,0.0046956 0.0049427,0.0046956l0.00074153 0c0.00279263,0 0.0051898,-0.00198723 0.0051898,-0.0046956l0 -0.00222436c0,-0.00311379 -0.00617843,-0.00599973 -0.00617843,-0.00766126l0 -0.000494202 0 0z"/>
   <path id="_419707440" class="fil0" d="M0.030251 0.0611431c0,-0.000569623 0.000171906,-0.00074153 0.000741303,-0.00074153l0.00296567 0 0 0.0116153 -0.00296567 0c-0.000569397,0 -0.000741303,-0.000171906 -0.000741303,-0.000741303l0 -0.0101325zm0.0247137 0c0,-0.000569623 0.000171906,-0.00074153 0.000741303,-0.00074153l0.0044485 0 0.00252877 0.00739355 0.0004369 2.03841e-005c0.000100788,-0.0012115 0.0021469,-0.00741394 0.00296567,-0.00741394l0.0044485 0 0 0.0116153 -0.00296567 0c-0.00175757,0 0.00012389,-0.00462199 -0.000988631,-0.0054369l-0.00183956 0.00539704 -0.00384445 4.00888e-005 -0.00198813 -0.00552772 -0.000236229 9.05962e-005 0 0.0054369 -0.00370697 0 0 -0.0108738zm-0.0192768 0.00148261c0,-0.00176232 0.00143572,-0.00222414 0.00321277,-0.00222414l0.00766126 0 0 0.00296567 -0.00716684 0 0 0.00172993 0.0051898 0c0.00176663,0 0.00247146,0.000704612 0.00247146,0.00247146l0 0.00172993c0,0.00167059 -0.000883992,0.00271856 -0.00247146,0.00271856l-0.00889677 0 0 -0.00222436c0,-0.000569397 0.000171906,-0.00074153 0.000741303,-0.00074153l0.00691973 0 0 -0.00148261c-0.00283022,-0.00065954 -0.00766104,0.00089577 -0.00766104,-0.00222436l0 -0.00271856 -2.2649e-007 0zm0.0402834 0.0049427c0,-0.0016373 -0.00373098,-0.00514813 -0.0042014,-0.00716684l0.00346009 0c0.000685586,0 0.00231088,0.00285921 0.00247124,0.00345987l0.000259558 0.000178021 0.00248301 -0.00362158 0.00368296 -1.63073e-005c-0.000790678,0.00149438 -0.00444827,0.00595036 -0.00444827,0.00716684l0 0.0044485 -0.0037072 0 0 -0.0044485zm-0.048933 0.00642553l0.0603013 0 0 -0.0148281c0,-0.000569397 -0.000171906,-0.000741303 -0.000741303,-0.000741303l-0.05956 0 0 0.0155694 0 0z"/>
   <path id="_419707752" class="fil0" d="M0.0384064 0.0843738c0,-0.000496014 0.00431464,-0.00623415 0.0046956,-0.00766126 -0.000651386,-0.000322975 0.000203615,-0.000247101 -0.000741303,-0.000247101l-0.0046956 0c-0.00199108,0 -0.00279376,0.00440569 -0.0042014,0.00543713 0,-0.0013107 0.000533385,-0.00543713 -0.000741303,-0.00543713l-0.0046956 0c-0.000578683,0 -0.000988631,0.000410174 -0.000988631,0.000988631l0 0.0158167c0,0.000569397 0.000171906,0.00074153 0.000741303,0.00074153l0.00568423 0 0 -0.0042014c0,-0.000667467 0.000118002,-0.00068151 0.000247101,-0.00123573l0.00308389 0.00537439 0.0063073 6.27378e-005c-4.37126e-005,-0.0019571 -0.0046956,-0.00824131 -0.0046956,-0.00963853l0 0z"/>
   <path id="_419707368" class="fil0" d="M0.0453264 0.0940121l0.00617843 0 0 -0.0168051c0,-0.000569623 -0.000172133,-0.00074153 -0.00074153,-0.00074153l-0.0046956 0c-0.000569397,0 -0.000741303,0.000171906 -0.000741303,0.00074153l0 0.0168051 0 0z"/>
   <path id="_419707656" class="fil0" d="M0.0604016 0.0878337c0,-0.000852057 -0.000182778,-0.000956922 -0.000247101,-0.00172993l0.000242798 -8.33485e-005 0.00274393 0.00798447 0.00689867 7.24769e-006 0 -0.0172996c-0.000554222,-0.0001291 -0.000568038,-0.000247101 -0.00123551,-0.000247101l-0.0042014 0c-0.00131387,0 -0.00074153,0.00638703 -0.00074153,0.00790837 -0.00123551,-0.000905282 -0.00205155,-0.00790837 -0.00370697,-0.00790837l-0.00593133 0c-0.0001291,0.000554222 -0.000247101,0.000568038 -0.000247101,0.00123551l0 0.0155696c0,0.000569397 0.000171906,0.00074153 0.00074153,0.00074153l0.0049427 0c0.000569397,0 0.000741303,-0.000172133 0.000741303,-0.00074153l0 -0.0054369 0 0z"/>
   <path id="_419707200" class="fil0" d="M0.0786898 0.0814081c0,-0.000578457 0.000409948,-0.000988631 0.000988631,-0.000988631 0.000553996,0 0.000542445,0.000195688 0.000988404,0.000494429 0,0.000911171 -0.000218563,0.00172993 0.000741303,0.00172993l0.00568423 0 0 -0.00123573c0,-0.00321571 -0.00331899,-0.0049427 -0.00667263,-0.0049427l-0.00197703 0c-0.00392802,0 -0.00617843,0.00216094 -0.00617843,0.00617843l0 0.00593133c0,0.00385373 0.00334345,0.005684 0.00716684,0.005684 0.00400163,0 0.00766126,-0.00144886 0.00766126,-0.0054369l0 -0.0039543c0,-0.000569397 -0.000171906,-0.000741303 -0.000741303,-0.000741303l-0.00593133 0c-0.000569397,0 -0.000741303,0.000171906 -0.000741303,0.000741303l0 0.00172993c0,0.000667467 0.000117775,0.00068151 0.000247101,0.00123573l0.000741303 0 0 0.00148283c0,0.000569623 -0.000171906,0.00074153 -0.000741303,0.00074153l-0.000988631 0c-0.0001291,-0.000554449 -0.000247101,-0.000568264 -0.000247101,-0.00123573l0 -0.00741416 0 0z"/>
   <path id="_419707608" class="fil0" d="M0.084157 0.0967402l0.000562829 0.000936538 0.00113676 4.25802e-005 -0.000730885 0.000513001 0.000193196 0.000981156 -0.000956469 -0.000215166 -0.00121172 0.000254122 0.000288549 -0.00102487 -0.000839826 -0.000429199 0.00124977 -8.87842e-005 0.0003078 -0.000969379zm-0.00492707 0.00244406c-0.0006002,-0.000111207 -0.000614242,-0.000229435 -0.00128171,-0.000229435 -0.000131138,0 -0.000542445,0.000356043 -0.000741303,0.000494429l0.000297382 -0.00122305 -0.000858399 -0.000401341 0.00101332 -0.000133403 0.000682416 -0.00102781c0.000158996,0.000764858 9.5126e-005,0.00105567 0.000842318,0.00105567l0.00074153 0 -0.000975494 0.000760102 0.000279942 0.000704838zm-0.00602057 2.92173e-005c-0.000657955,-0.000174851 -0.000379145,-0.000258652 -0.000945371,-0.000258652 -0.000522513,0 -0.000325693,8.85577e-005 -0.000988404,0.000247328l0.000233512 -0.000746739 -0.000727714 -0.000736094c0.00109599,-2.4461e-005 0.00114672,7.85922e-005 0.00123551,-0.000988631l0.000783204 0.000960772 0.00094673 2.78583e-005 -0.000730885 0.000513001 0.000193423 0.000981156zm-0.00703321 -0.00255028l0.000434182 0.00104639 0.00120538 9.73909e-006 -0.000730885 0.000513001 -1.0645e-005 0.000969832 -0.000978892 -0.000277451 -0.000984101 0.000331355 0.000286963 -0.00102849 -0.0008396 -0.000429199 0.00118115 -0.000121625 0.000436447 -0.00101354zm-0.00500295 0.00252922c-0.000731338,-0.000153787 -0.000452754,-0.000237588 -0.00101875,-0.000237588 -0.00052274,0 -0.00032592,8.85577e-005 -0.000988631,0.000247328l0.000301232 -0.000974588 -0.000862022 -0.0004027 0.00106858 -0.000100562 0.000279716 -0.000728846 0.000448225 -1.76663e-005 0.000233738 0.000746512 0.00100199 -4.98279e-006 -0.000686719 0.000580721 0.00022264 0.000892372zm-0.00716684 -0.00245221l0.000526817 0.000950807 0.00117277 2.83113e-005 -0.000730885 0.000513001 0.000193423 0.000981156 -0.000956695 -0.000215166 -0.000967567 0.000233965 -0.000426255 -0.00154149 0.000880595 1.87987e-005 0.0003078 -0.000969379zm-0.00492707 0.00244406c-0.000747192,-0.000145633 -0.000468382,-0.000229435 -0.00103461,-0.000229435 -0.00052274,0 -0.000325693,8.85577e-005 -0.000988404,0.000247328l0.000301006 -0.000974588 -0.000862022 -0.0004027 0.00120357 -0.000148125 0.000436221 -0.00101354c0.000214939,0.000765311 0.000151069,0.00105612 0.000898261,0.00105612l0.000741303 0 -0.000975268 0.000760102 0.000279942 0.000704838zm-0.00602057 2.92173e-005c-0.000657955,-0.000174851 -0.000379145,-0.000258652 -0.000945144,-0.000258652 -0.00052274,0 -0.00032592,8.85577e-005 -0.000988631,0.000247328l0.000233512 -0.000746739 -0.00101128 -0.000684454 0.000777768 -5.16398e-005 0.000452301 -2.78583e-005 0.000682416 -0.00102781c0.000189799,0.00113426 0.000240533,0.00103121 0.00133652,0.00105567l-0.000686719 0.000580721 0.000149257 0.000913436zm-0.00709345 -0.00247328l0.000527043 0.000950807 0.00117254 2.83113e-005 -0.000730885 0.000513001 0.000193423 0.000981156 -0.00119021 -0.000267485 -0.000976627 0.000310065 0.000286963 -0.00102849 -0.0008396 -0.000429199 0.00124977 -8.87842e-005 0.000307574 -0.000969379zm-0.0049427 0.00245221c-0.000584572,-0.000119587 -0.000598388,-0.000237588 -0.00126585,-0.000237588 -0.000131364,0 -0.000542445,0.000356043 -0.00074153,0.000494429l0.000297608 -0.00122305 -0.000858399 -0.000401341 0.00101332 -0.000133403 0.000682416 -0.00102781c0.000189572,0.00113426 0.000240306,0.00103121 0.00133652,0.00105545l-0.000686945 0.000580948 0.000222867 0.000892372zm-0.00398442 0.00149257l0.0603013 0 0 -0.0044485 -0.000741303 0 -0.00271856 -8.24425e-005 -0.0039543 8.24425e-005 -0.0130982 -1.51749e-005 -0.00914387 -5.11868e-005 -0.00321299 6.63617e-005 -0.00123573 -6.18319e-005 -0.000990896 3.12557e-005 -0.00444601 3.05762e-005 -0.00123573 -6.18319e-005 -0.00370697 6.18319e-005 -0.00123573 -6.18319e-005 -0.000247101 6.18319e-005 -0.00123573 -6.18319e-005 -0.00370697 6.18319e-005 -0.00194623 -7.61008e-005 -0.0039851 7.61008e-005 -0.00191543 -7.61008e-005 -0.00154444 7.61008e-005 0 0.0044485 0 0z"/>
  </g>
  <path class="fil1" d="M0.0232153 0l0.0679471 0 1.58543e-006 0 0 2.2649e-006c0.00639473,4.52981e-007 0.0121988,0.00260713 0.016402,0.00681057 0.00420276,0.00420298 0.00680853,0.0100057 0.00680943,0.016399l2.2649e-006 0 0 3.39736e-006 0 0.0679471 0 1.58543e-006 -2.2649e-006 0c-4.52981e-007,0.00639473 -0.00260713,0.0121988 -0.00681057,0.016402 -0.00420298,0.00420276 -0.0100057,0.00680853 -0.016399,0.00680943l0 2.2649e-006 -3.39736e-006 0 -0.0679471 0 -1.58543e-006 0 0 -2.2649e-006c-0.00639473,-4.52981e-007 -0.0121988,-0.00260713 -0.016402,-0.00681057 -0.00420276,-0.00420298 -0.00680853,-0.0100057 -0.00680943,-0.016399l-2.2649e-006 0 0 -3.39736e-006 0 -0.0679471 0 -1.58543e-006 2.2649e-006 0c4.52981e-007,-0.00639473 0.00260713,-0.0121988 0.00681057,-0.016402 0.00420298,-0.00420276 0.0100057,-0.00680853 0.016399,-0.00680943l0 -2.2649e-006 3.39736e-006 0zm0.0679471 0.00113245l-0.0679471 0 -3.39736e-006 0 0 -2.2649e-006c-0.00607742,6.79471e-007 -0.011597,0.00248143 -0.0155982,0.00648238 -0.00400163,0.00400141 -0.00648329,0.00952234 -0.00648351,0.0156011l2.2649e-006 0 0 1.58543e-006 0 0.0679471 0 3.39736e-006 -2.2649e-006 0c6.79471e-007,0.00607742 0.00248143,0.011597 0.00648238,0.0155982 0.00400141,0.00400163 0.00952234,0.00648329 0.0156011,0.00648351l0 -2.2649e-006 1.58543e-006 0 0.0679471 0 3.39736e-006 0 0 2.2649e-006c0.00607742,-6.79471e-007 0.011597,-0.00248143 0.0155982,-0.00648238 0.00400163,-0.00400141 0.00648329,-0.00952234 0.00648351,-0.0156011l-2.2649e-006 0 0 -1.58543e-006 0 -0.0679471 0 -3.39736e-006 2.2649e-006 0c-6.79471e-007,-0.00607742 -0.00248143,-0.011597 -0.00648238,-0.0155982 -0.00400141,-0.00400163 -0.00952234,-0.00648329 -0.0156011,-0.00648351l0 2.2649e-006 -1.58543e-006 0z"/>
 </g>
</svg>
