<?xml version="1.0" encoding="UTF-8"?>
<!DOCTYPE svg PUBLIC "-//W3C//DTD SVG 1.1//EN" "http://www.w3.org/Graphics/SVG/1.1/DTD/svg11.dtd">
<!-- Creator: CorelDRAW -->
<svg xmlns="http://www.w3.org/2000/svg" xml:space="preserve" width="5548in" height="7180in" style="shape-rendering:geometricPrecision; text-rendering:geometricPrecision; image-rendering:optimizeQuality; fill-rule:evenodd; clip-rule:evenodd"
viewBox="0 0 177.276 79.5202"
 xmlns:xlink="http://www.w3.org/1999/xlink">
 <defs>
  <style type="text/css">
   <![CDATA[
    .fil0 {fill:#DA251D}
   ]]>
  </style>
 </defs>
 <g id="Layer_x0020_1">
  <metadata id="CorelCorpID_0Corel-Layer"/>
  <path class="fil0" d="M74.9197 67.5558l2.42638 0 0 1.37075 -2.42638 0 0 -1.37075zm3.44537 0.0621164l2.42638 0 0 1.3711 -2.42638 0 0 -1.3711zm-56.4471 7.85075c0,0.874864 -0.377584,1.61607 -1.12961,2.21665 -0.626748,0.500072 -1.23535,0.750283 -1.82441,0.750283 -2.47838,0 -4.75644,0 -6.83455,0 -2.07776,0 -3.72873,0 -4.95256,0 -1.22418,0 -2.22153,0 -2.98857,0 -0.0376886,0.0181464 -0.0980602,0.0275685 -0.177625,0.0275685 -0.139587,0 -0.253002,-0.0184953 -0.343734,-0.055137 -0.0868932,-0.0366417 -0.132259,-0.0977112 -0.132259,-0.186 0,-0.0181464 0.00767731,-0.0516474 0.022683,-0.0973622 0.219152,-0.591851 0.479832,-1.08285 0.77471,-1.473 0.271847,-0.362927 0.589059,-0.673858 0.951637,-0.930001 0.256841,-0.18286 0.668973,-0.417715 1.22802,-0.704568 -0.657457,-0.295576 -1.20883,-0.652571 -1.6583,-1.07029 -0.494837,-0.451216 -0.74435,-0.914647 -0.74435,-1.39343l0.0341989 -9.41308 7.26099 0 0.022683 -1.50022 3.28659 0 0 1.48207 7.3252 0.0181464 0.0341989 0.689213c0,0.445284 -0.12842,0.884286 -0.385261,1.31108 -0.332218,0.548928 -0.868932,1.07971 -1.6056,1.59165l1.83592 0 0 8.73643zm-3.36231 -4.27836l0 -5.69901 -11.0578 0 0 6.61993c0,0.231715 0.0792159,0.408642 0.241835,0.533573 0.16227,0.12528 0.374094,0.189141 0.630935,0.189141 0.868583,0 1.77939,0.00314072 2.73138,0.00907318 0.951986,0.00628144 1.88129,0.00907318 2.78791,0.0122139 0.906969,0.00314072 1.8436,0.00628144 2.8071,0.0122139 0.0530432,0 0.154942,0.00314072 0.309884,0.0122139 0.154942,0.00907318 0.249164,0.0153546 0.275685,0.0153546 0.253002,0 0.464826,-0.00907318 0.638264,-0.0307092 0.173786,-0.0212871 0.306394,-0.0638613 0.396777,-0.130863 0.0907318,-0.0642102 0.154942,-0.146567 0.189141,-0.240788 0.03385,-0.0945705 0.0488556,-0.235205 0.0488556,-0.418064 0,-0.109576 0,-0.222293 0,-0.344432 0,-0.122139 0,-0.256143 0,-0.399569l0 -0.140285zm0 4.64722l0 -2.04914 -0.188443 0c-0.185651,0.295925 -0.430976,0.561142 -0.74086,0.789716 -0.457149,0.332567 -0.797044,0.500072 -1.02004,0.500072 -1.29572,0 -2.55375,0 -3.76677,0 -1.21616,0 -2.28156,0 -3.19969,0 -0.918136,0 -1.72635,0 -2.42917,0l0 0.542995c0,0.298717 0.022683,0.478436 0.0680489,0.545787 0.0792159,0.118649 0.283014,0.176578 0.608252,0.176578l9.87162 -0.0244278c0.256841,0 0.445982,-0.0425742 0.562886,-0.124931 0.121092,-0.0823566 0.196469,-0.204147 0.234158,-0.356646zm-3.92136 -5.66865c-0.604414,0 -1.17882,0 -1.72635,0 -0.544042,0 -1.06575,0 -1.56059,0l0 -2.52793 3.28694 0 0 2.52793zm28.2815 2.37857c0,0.320004 -0.0607205,0.61593 -0.177625,0.884286 -0.207636,0.46343 -0.566725,0.829149 -1.08425,1.09751 -0.702823,0.362927 -1.6583,0.546136 -2.86713,0.546136 -1.27723,0 -2.44836,0.00279175 -3.51376,0.00907318 -1.0654,0.00593247 -2.13464,0.0118649 -3.20004,0.0212871 -1.06505,0.00907318 -2.24003,0.0153546 -3.52458,0.0153546 -1.23919,0 -2.24422,-0.256143 -3.01125,-0.768778 -0.849739,-0.567074 -1.27304,-1.35993 -1.27304,-2.38415l0 -8.8645c0.109576,0 0.695494,0 1.75287,-0.00314072 1.06156,-0.00279175 2.07043,-0.00907318 3.03358,-0.0150057 0.963502,-0.00628144 1.89315,-0.0122139 2.78477,-0.0184953l0 -1.52464 3.48689 0 0 1.52464 7.62741 0 -0.03385 9.48043zm-3.40768 -0.323494l-0.0453659 -6.73579 -11.568 0.0366417c0,0.667926 0,1.42414 0,2.27493 0,0.847645 0,1.66179 0,2.44522 0,0.783784 0,1.44229 0,1.979 0,0.12528 0.0757262,0.259284 0.222642,0.40271 0.181464,0.173786 0.396777,0.259284 0.642451,0.259284l8.86694 0c0.691307,0 1.17847,-0.0488556 1.46183,-0.146567 0.279524,-0.100503 0.41946,-0.271149 0.41946,-0.515427zm-4.13318 -1.8935l-3.40768 -0.0425742 -0.0565329 -2.47593 3.46421 0 0 2.51851zm28.8143 1.53686c0,1.01236 -0.396777,1.80836 -1.19382,2.38764 -0.770872,0.558001 -1.78707,0.838572 -3.05627,0.838572l-14.2805 0c-0.0153546,-0.0429231 -0.0265216,-0.167854 -0.0341989,-0.381074 -0.00732834,-0.210428 -0.00732834,-0.463779 -0.00732834,-0.762496 0,-0.435862 0,-0.862999 0.00732834,-1.28071 0.00767731,-0.420856 0.0188443,-0.798789 0.0341989,-1.13136 0.230319,0 0.604065,-0.00593247 1.12961,-0.0181464 0.524849,-0.0122139 1.0312,-0.0244278 1.52604,-0.0366417 0,0.594643 0.101899,0.969784 0.309884,1.116 0.177625,0.124931 0.608252,0.189141 1.29572,0.189141l0.797393 0 8.63593 0.0275685c0.457498,0 0.759705,-0.234856 0.906969,-0.707708 0.0642102,-0.5245 0.109576,-0.83229 0.132259,-0.926861 0,-0.131212 0.00383865,-0.274289 0.00383865,-0.426789 0.00348969,-0.152499 0.011167,-0.310931 0.0188443,-0.478785 0,-0.106784 0,-0.21671 0,-0.329426 -0.022683,-0.118998 -0.0380376,-0.210428 -0.0453659,-0.27743 -0.0303603,-0.173786 -0.211475,-0.298717 -0.551719,-0.377933 -0.339895,-0.0823566 -0.702474,-0.122139 -1.08425,-0.122139 -1.46951,0 -2.64065,-0.00314072 -3.51725,-0.00907318 -0.872422,-0.00628144 -1.93433,-0.0153546 -3.18853,-0.0275685 -1.25035,-0.0122139 -2.2327,-0.0181464 -2.94669,-0.0181464 -0.472155,0 -0.850088,0.00314072 -1.12961,0.00907318 -0.279524,0.00593247 -0.544042,0.0122139 -0.785877,0.0181464 -0.253002,0 -0.430627,-0.0122139 -0.536365,-0.0362927 -0.109576,-0.0216361 -0.222991,-0.0795648 -0.340244,-0.167854 -0.294181,-0.204496 -0.502166,-0.46029 -0.619419,-0.77157 -0.0868932,-0.228574 -0.132259,-0.500072 -0.132259,-0.814144 0,-0.103644 0,-0.204147 0,-0.301858 0,-0.0973622 0,-0.195073 0,-0.289644 0,-0.0977112 0,-0.164713 0,-0.207287l0 -3.4855 1.17498 0 1.02004 0 0.865093 0 0.729344 0 0.611742 0 0.510192 0 0.41946 0 0.343734 0 0.290691 0 0.230668 0 0.200308 0 0.154942 0 0.13191 0c0.132259,0 0.26068,0 0.377933,0 0.116904,0 0.230319,0 0.332567,0 0,-0.243929 0,-0.500072 0,-0.762147 0,-0.265565 0,-0.536714 0,-0.817284l3.78526 0c0,0.362927 0.011516,0.7105 0.0303603,1.04272 0.0188443,0.335359 0.0261726,0.506353 0.0261726,0.518567l7.34823 0.0181464 0 2.39358 -15.2967 0c0,0.113066 -0.00383865,0.210777 -0.0150057,0.295925 -0.011516,0.0823566 -0.022683,0.170646 -0.0303603,0.268357 0,0.243929 0.0303603,0.420856 0.0868932,0.533573 0.0603716,0.113066 0.192631,0.170995 0.400616,0.170995l14.9226 0.0457149c0.00383865,0.530432 0.00383865,1.11914 0.00383865,1.77136 0,0.652571 0,1.27164 0,1.85407 0,0.585569 0,1.07343 -0.00383865,1.46672zm20.884 3.20807c-0.271847,0 -0.834384,0 -1.68063,0 -0.850088,0 -1.41681,0 -1.70401,0 0,-0.186349 -0.011516,-0.518567 -0.0380376,-0.997352 -0.0261726,-0.478785 -0.0415273,-0.969435 -0.0415273,-1.46951l3.46421 0 0 2.46686zm0.362927 -8.79715c0,0.591153 -0.143426,1.10658 -0.430627,1.54593 -0.287201,0.439003 -0.683978,0.771221 -1.18614,0.997003 -0.32489,0.143077 -0.702823,0.237997 -1.13345,0.283711 -0.430627,0.0457149 -1.0504,0.067002 -1.85477,0.067002 -0.366417,0 -0.997352,-0.00628144 -1.89281,-0.0184953 -0.891964,-0.0122139 -1.41297,-0.0181464 -1.56024,-0.0181464 -0.752027,0 -1.84744,0.00593247 -3.28345,0.0181464 -1.43182,0.0122139 -2.25155,0.0184953 -2.44767,0.0184953 -0.154942,0 -0.26068,0.0272196 -0.310233,0.0851483 -0.0526943,0.055137 -0.0792159,0.137494 -0.0792159,0.243929 0,0.0610695 0.00767731,0.12528 0.022683,0.198563 0.0153546,0.0697937 0.022683,0.109576 0.022683,0.115858l0 2.99729c-0.0868932,0.61593 -0.320702,1.17079 -0.698635,1.67086 -0.117253,0.161572 -0.442143,0.509145 -0.97118,1.04586 -0.143426,-0.118649 -0.668624,-0.600575 -1.58292,-1.44822 -0.392939,-0.362927 -0.661296,-0.606856 -0.80856,-0.731787 0.242184,-0.189141 0.393288,-0.353854 0.453659,-0.490999 0.101899,-0.237997 0.154593,-0.667926 0.154593,-1.287l0 -4.87579 13.6346 0c0.279873,0 0.464826,-0.0820076 0.551719,-0.249862 0.0453659,-0.0823566 0.0676999,-0.24707 0.0676999,-0.490999 0,-0.249862 -0.0792159,-0.396428 -0.234158,-0.442143 -0.154593,-0.0457149 -0.664436,-0.067002 -1.53756,-0.067002l-12.5046 0 0.022334 -2.34193c0.249513,0 0.589408,0.00314072 1.01236,0.00628144 0.423299,0.00279175 1.04691,0.00593247 1.87012,0.0122139 0.823915,0.00593247 1.42065,0.00907318 1.78742,0.00907318l0.445633 0 0.362578 0 0.298368 0 0.245674 0 0.188792 0 0.154942 0 0.121092 0c0.271847,0 0.42295,-0.0153546 0.45331,-0.0457149l0 -1.61642 3.44153 0 0 1.59793 7.20446 0c0,0.34164 0,0.847645 0,1.51557 0,0.670718 0,1.235 0,1.69564zm-4.85834 8.79715c-0.272196,0 -0.835082,0 -1.68098,0 -0.850437,0 -1.41681,0 -1.70401,0 0,-0.186349 -0.011516,-0.518567 -0.0380376,-0.997352 -0.0261726,-0.478785 -0.0411783,-0.969435 -0.0411783,-1.46951l3.46421 0 0 2.46686zm26.3318 -9.81893l-18.3603 -0.0181464 0 -2.232 7.3252 -0.0184953 0 -1.57943 3.77444 0 0.022334 1.57943 7.23831 0c0,0.149359 0,0.429929 0,0.841712 0,0.411783 0,0.887078 0,1.42693zm-0.154593 9.80043l-14.1748 0c-0.611742,0 -1.18614,-0.0760752 -1.71518,-0.231715 -0.532526,-0.15564 -1.02387,-0.396428 -1.47718,-0.722714 -0.396777,-0.280571 -0.660947,-0.591502 -0.785877,-0.930001 -0.0868932,-0.231715 -0.13191,-0.579288 -0.13191,-1.03679l0 -0.518567 0 -4.99165c0.309535,0 1.71134,-0.00279175 4.20472,-0.00907318 2.49338,-0.00593247 5.09634,-0.0150057 7.80154,-0.0244278 2.70869,-0.00907318 4.8545,-0.0122139 6.43324,-0.0122139l0 2.25957 -14.5447 -0.0181464c0,0.405502 -0.0188443,0.814144 -0.0565329,1.22593 -0.03385,0.408642 -0.0642102,0.746793 -0.0868932,1.00922 0,0.725855 0.0868932,1.20115 0.256841,1.42693 0.204147,0.280571 0.544042,0.420856 1.02004,0.420856l9.61478 0c0.317212,0 0.555209,-0.118998 0.71399,-0.356646 0.158432,-0.237997 0.237997,-0.576496 0.237997,-1.00957l2.68985 0 0 3.519zm14.6884 -15.3654c0,0.213569 0.00732834,0.472852 0.0188443,0.777502 0.011516,0.304999 0.0150057,0.524849 0.0150057,0.661993l0 0.0973622c0,0.219501 -0.011167,0.487858 -0.03385,0.805071l-3.43036 0 0 -2.34193 3.43036 0zm0.03385 15.3839c-1.42379,0 -2.51606,0.00279175 -3.27891,0.0122139 -0.767033,0.00872422 -1.68517,0.0212871 -2.7579,0.033501 -1.07273,0.0122139 -2.00971,0.0181464 -2.81478,0.0181464 -0.58522,0 -1.15578,-0.180068 -1.71483,-0.536714 -0.759705,-0.481926 -1.14113,-1.15858 -1.14113,-2.02786l0 -9.53208 3.63067 0 0 7.53807c0,0.124931 0,0.243929 0,0.353505 0,0.109925 0,0.213569 0,0.308139 0,0.454357 0.03385,0.798789 0.0980602,1.03679 0.0984091,0.3385 0.264518,0.509145 0.498676,0.509145l4.19356 0c-0.0150057,-0.375141 -0.0265216,-0.792857 -0.0376886,-1.25035 -0.011516,-0.46029 -0.0188443,-0.960362 -0.0188443,-1.50022l3.34312 0 0 5.03771zm-8.36792 -15.3839c0,0.262424 0.011516,0.561142 0.0303603,0.89336 0.0188443,0.335359 0.0261726,0.5245 0.0261726,0.573355 0,0.15564 -0.00348969,0.295925 -0.00732834,0.423997 -0.00767731,0.128071 -0.022683,0.27743 -0.0492046,0.451216l-3.41885 0 0 -2.34193 3.41885 0zm-65.8588 -38.1866c0.102946,-0.318259 0.153197,-0.663389 0.175531,-0.995607 -0.0753772,-0.00907318 -0.144822,-0.0164015 -0.196469,-0.0212871 -2.25713,-0.220897 -4.96198,-0.204845 -7.24564,-0.204845l-38.2787 0 0.0519963 -12.172 2.50001 0c1.78428,0 3.5689,-0.0143077 5.35283,-0.0348969 2.20025,-0.0258237 4.40049,-0.0499025 6.60039,-0.0823566 2.29831,-0.03385 4.6008,-0.0436211 6.90155,-0.0460639l0 -6.16942 17.2296 0 0 1.60944c0,0.671067 -0.00628144,1.34283 -0.0397824,2.0125 -0.0237299,0.497629 -0.0488556,0.99491 -0.0753772,1.49254 0.000697937,0.380376 0.0122139,0.760752 0.0366417,1.14183 0.00139587,0.0254747 0.00314072,0.0509494 0.00488556,0.0764241l13.6841 0c0.723063,0 1.44543,-0.010818 2.16779,-0.033501 0.77471,-0.0240788 1.54872,-0.0593247 2.32274,-0.0924767l0.0827056 -0.00348969 0.0827056 0c1.83732,0 3.51028,0.512635 4.1447,1.67784l0.0146567 0.0282665c0.470061,0.917787 0.445284,2.57644 0.445284,3.54587 0,1.69564 -0.0376886,3.39232 -0.0767731,5.08796 -0.0293134,1.25035 -0.0767731,2.50874 -0.0767731,3.75909 0,3.39302 -0.834733,7.47735 -4.91487,9.91769 -2.61238,1.56722 -6.01029,2.12487 -9.51358,2.12487 -3.15119,0 -6.30272,-0.0122139 -9.45391,-0.0233809 -3.22447,-0.011516 -6.44859,-0.022683 -9.67306,-0.0471108 -3.2133,-0.0240788 -6.42661,-0.0474597 -9.63991,-0.0701427 -0.212522,0.000348969 -0.681536,0.0125629 -0.962804,0.0631633 -0.0300113,0.106086 -0.0362927,0.252304 -0.0362927,0.324192l0 10.8606 29.2202 0.0523453c0.0160526,-0.0736324 0.0286154,-0.141332 0.0376886,-0.191933l0.00453659 -0.0244278c0.186,-0.92372 0.170995,-1.98703 0.170995,-2.91842l0 -1.67016 13.9682 0.330124 0 16.7194 -60.6312 0 0 -24.7454 0.0101201 -0.0718875c0.388053,-2.76837 1.29363,-6.19838 3.88018,-8.50576 2.02541,-1.79824 4.91627,-2.69962 8.36373,-2.69962l33.3614 0zm37.1976 16.1175l22.4858 0.0547881 0 -13.2936c0,-0.619768 0.0704917,-1.30724 0.577194,-1.85163 0.597783,-0.662691 1.67086,-1.03888 2.86364,-1.03888l13.2954 0 0.0767731 16.4019 9.23057 0 -0.1183 1.68203c-0.0429231,0.609299 -0.0530432,1.22383 -0.0614185,1.83383 -0.0101201,0.727251 -0.0125629,1.45485 -0.0125629,2.18245l0 6.35611 -9.1845 0 0 3.72454c0,0.820774 -0.0307092,1.64469 -0.121092,2.46372l-0.165411 1.49568 -10.8418 0c-0.341291,0 -0.682234,0 -1.02318,0 -0.281269,0 -0.562886,0 -0.844155,0 -1.46288,0 -2.88423,-0.384563 -3.40279,-1.3369l-0.00837525 -0.0160526 -0.00837525 -0.0160526c-0.288946,-0.568121 -0.251606,-1.56478 -0.251606,-2.16779l0 -4.24276c-3.27367,-0.00383865 -6.54735,-0.0136098 -9.82102,-0.0216361 -4.47238,-0.011516 -8.94476,-0.022683 -13.4168,-0.0471108 -4.33175,-0.0240788 -8.65826,-0.0474597 -12.9795,-0.0704917 -0.116556,0.000348969 -0.271149,0.022334 -0.375141,0.0359438 -0.379678,0.0516474 -0.792159,0.10504 -1.18056,0.10504 -1.4032,0 -2.54607,-0.547881 -2.98263,-1.40006 -0.268008,-0.522755 -0.279175,-1.21197 -0.279175,-1.76055 0,-0.552068 0,-1.10449 0,-1.65655 0,-0.689213 0,-1.37877 0,-2.06799l0 -5.80858 12.104 -16.6556 -8.95733 0 0 -8.54136c0,-0.715386 -0.00593247,-1.79544 0.363974,-2.48047 0.503213,-0.969435 1.84186,-1.50266 3.40942,-1.50266l0.2537 0 0.248466 0.032803c0.360485,0.0474597 0.778549,0.0966643 1.14811,0.0966643 1.47509,0 2.95018,0 4.42562,0 1.30061,0 2.60086,0 3.90147,0l2.50699 0 0 1.60979c0,0.59883 0,1.19836 0,1.79754 0.151103,-0.167854 0.302905,-0.335708 0.454706,-0.503213l0.0614185 -0.0683978 0.0718875 -0.0638613c1.97935,-1.76473 4.6678,-3.00706 8.14877,-3.00706 3.94055,0 7.89088,-0.00348969 11.8311,0.0474597 3.28624,0.0422252 6.57282,0.0771221 9.85976,0.117253 3.3344,0.0411783 6.67088,0.0704917 10.006,0.0704917 0.430976,0 0.861255,0 1.29223,0 0.396428,0 0.792857,0 1.18929,0 1.70681,0 3.58565,0.262075 4.33593,1.38331 0.524849,0.779945 0.486462,2.3161 0.486462,3.15188l-0.000348969 0.0181464 -0.130165 7.37196 -34.4826 0c-0.845551,0 -1.36028,0.288597 -1.82197,0.734579 -0.649082,0.61593 -1.28595,1.51697 -1.79824,2.18838 -1.24966,1.63736 -2.44522,3.29566 -3.63241,4.95221l-0.0146567 0.0202402 -0.0153546 0.0198912c-0.874864,1.13624 -1.66458,2.35868 -2.46302,3.52354 -1.0839,1.56233 -2.16081,3.12815 -3.2325,4.69398 -0.331869,0.484368 -0.664785,0.969086 -1.00154,1.45311zm-36.268 -15.3127c0.0673509,-0.102248 0.128071,-0.222642 0.15913,-0.285805 0.29104,-0.623956 0.355599,-1.36307 0.355599,-2.01111 0,-0.00732834 -0.00104691,-0.0279175 -0.0055835,-0.0348969 -0.107133,-0.143077 -1.06401,-0.265216 -1.27094,-0.285456 -2.32553,-0.227528 -5.08203,-0.213918 -7.43443,-0.213918l-37.0221 0 0.0453659 -10.5626 1.25001 0c1.79195,0 3.58391,-0.0143077 5.37516,-0.0352458 2.20269,-0.0254747 4.40503,-0.0495535 6.60702,-0.0820076 2.7059,-0.0401314 5.41809,-0.0460639 8.12608,-0.0471108l0 -6.16837 14.7226 0 0 0.804722c0,0.662342 -0.00593247,1.32608 -0.0390845,1.98738 -0.0240788,0.501468 -0.0495535,1.00259 -0.0760752,1.50405 0.000348969,0.39573 0.0122139,0.79181 0.0376886,1.18754 0.0174484,0.282665 0.0471108,0.566027 0.0830545,0.849041l14.8584 0c0.743303,0 1.48626,-0.011167 2.22851,-0.0341989 0.782039,-0.0244278 1.56338,-0.0600226 2.34472,-0.0931746l0.0411783 -0.00174484 0.0415273 0c1.29118,0 2.50908,0.30779 2.96658,1.1488 0.412132,0.804373 0.384563,2.44697 0.384563,3.2981 0,1.69145 -0.0376886,3.3843 -0.0767731,5.07575 -0.0293134,1.25489 -0.0767731,2.51676 -0.0767731,3.7713 0,3.13932 -0.729344,7.06417 -4.5167,9.32933 -2.37334,1.42379 -5.48195,1.90851 -8.65826,1.90851 -3.14909,0 -6.29819,-0.0122139 -9.44693,-0.0233809 -3.22168,-0.011516 -6.44336,-0.0230319 -9.66503,-0.0471108 -3.21889,-0.0240788 -6.43463,-0.0474597 -9.64654,-0.0704917 -0.527292,0 -1.42938,0.0380376 -1.86942,0.261029 -0.34862,0.196469 -0.391194,0.66304 -0.391194,0.931397l0 11.6632 31.4581 0.0561839c0.159479,-0.24358 0.26731,-0.732834 0.299415,-0.913251 0.194724,-0.966643 0.182511,-2.05996 0.182511,-3.028l0 -0.835082 11.4612 0.2708 0 15.1386 -58.1242 0 0 -23.904 0.00488556 -0.0362927c0.365021,-2.60261 1.21476,-5.93561 3.64812,-8.10654 1.78951,-1.58851 4.30278,-2.36601 7.34753,-2.36601l34.2911 0zm34.3287 16.1129l25.6785 0.0624654 0 -14.1015c0,-0.447727 0.0321051,-1.0476 0.403757,-1.44299 0.373047,-0.418064 1.03574,-0.642451 1.78358,-0.642451l12.0457 0 0.0767731 16.4015 9.1688 0 -0.0589757 0.841363c-0.0436211,0.618721 -0.0540901,1.24303 -0.0628144,1.86245 -0.0101201,0.730042 -0.0125629,1.45974 -0.0125629,2.18978l0 5.55139 -9.1845 0 0 4.52926c0,0.80193 -0.0296623,1.60665 -0.117951,2.40684l-0.0827056 0.74784 -9.67411 0c-0.341291,0 -0.682234,0 -1.02318,0 -0.281269,0 -0.562886,0 -0.844155,0 -0.913251,0 -1.88618,-0.185651 -2.21944,-0.797742l-0.00837525 -0.0160526c-0.228225,-0.449123 -0.189839,-1.4388 -0.189839,-1.91828l0 -5.04644c-3.68965,-0.00209381 -7.37964,-0.0136098 -11.0696,-0.0230319 -4.47029,-0.011167 -8.94058,-0.022683 -13.4109,-0.0471108 -4.3321,-0.0237299 -8.6614,-0.0471108 -12.9883,-0.0704917 -0.207287,0 -0.437258,0.0275685 -0.634774,0.0533922 -0.28406,0.0387355 -0.633727,0.0875911 -0.923022,0.0875911 -0.861952,0 -1.52464,-0.324541 -1.79195,-0.846598 -0.216012,-0.421554 -0.216361,-1.06575 -0.216361,-1.50894 0,-0.552068 0,-1.10449 0,-1.65655 0,-0.689213 0,-1.37877 0,-2.06799l0 -5.62991 12.8187 -17.639 -9.67201 0 0 -7.73663c0,-0.593945 -0.0125629,-1.65621 0.29767,-2.22223 0.330473,-0.642102 1.19452,-0.955825 2.22223,-0.955825l0.126676 0 0.124233 0.0160526c0.448774,0.0589757 0.94047,0.113066 1.39936,0.113066 1.47509,0 2.95018,0 4.42562,0 1.30061,0 2.60086,0 3.90147,0l1.2535 0 0 0.805071c0,0.798789 0,1.59758 0,2.39672 0,0.64629 0,1.29223 0,1.93852 0,0.154593 0.000348969,0.310931 0.00314072,0.467967 0.925814,-1.03644 1.85407,-2.07148 2.78861,-3.10442l0.0310582 -0.0341989 0.0359438 -0.0321051c1.73751,-1.54907 4.06479,-2.6724 7.13152,-2.6724 3.93218,0 7.87448,-0.00348969 11.806,0.0471108 3.28694,0.0422252 6.57387,0.0771221 9.86081,0.117253 3.34242,0.0411783 6.68694,0.0704917 10.0301,0.0704917 0.430976,0 0.861255,0 1.29223,0 0.396428,0 0.792857,0 1.18929,0 1.15509,0 2.65705,0.115509 3.18224,0.893011 0.421903,0.613487 0.386657,2.17128 0.386657,2.842l-0.116556 6.58085 -33.2431 0c-1.27862,0 -2.1643,0.41632 -2.86189,1.08948 -0.686421,0.651873 -1.34248,1.57455 -1.88408,2.284 -1.25419,1.64329 -2.45395,3.30752 -3.64533,4.96966l-0.00697937 0.0101201 -0.00802628 0.0101201c-0.88324,1.14741 -1.68028,2.37927 -2.48501,3.55355 -1.08459,1.56338 -2.16186,3.1299 -3.23459,4.69677 -0.589059,0.860208 -1.18265,1.72146 -1.793,2.57713zm-21.8032 -25.1889c0,1.17498 -0.0254747,2.85491 -0.0764241,5.06388 -0.0512984,2.19711 -0.0767731,3.46596 -0.0767731,3.78317 0,4.18274 -1.369,7.09628 -4.11888,8.74131 -1.88059,1.12787 -4.47727,1.6918 -7.80294,1.6918 -2.99345,0 -6.1401,-0.0118649 -9.43995,-0.0233809 -3.3002,-0.0118649 -6.52397,-0.0237299 -9.65736,-0.0471108 -3.13409,-0.0237299 -6.35751,-0.0471108 -9.65771,-0.0704917 -1.21511,0 -2.11056,0.152848 -2.67345,0.446331 -0.562886,0.305348 -0.844155,0.810654 -0.844155,1.55082l0 12.4659 33.0274 0.0589757c0.613836,0 1.03574,-0.540552 1.22802,-1.62166 0.127723,-0.634425 0.191584,-1.67993 0.191584,-3.12501l8.95419 0.211475 0 13.5581 -55.6172 0 0 -23.0633c0.499025,-3.55983 1.63736,-6.12126 3.41536,-7.70732 1.5222,-1.35121 3.63276,-2.03239 6.33169,-2.03239l34.7416 0c0.332567,0 0.626748,-0.281967 0.908365,-0.857765 0.268357,-0.575798 0.40934,-1.32748 0.40934,-2.24422 0,-0.599179 -0.780643,-0.963153 -2.34123,-1.116 -1.56059,-0.152848 -4.10562,-0.22334 -7.62322,-0.22334l-35.7651 0 0.0383865 -8.95244c1.5735,0 3.37732,-0.0118649 5.3982,-0.0355948 2.02088,-0.0233809 4.22112,-0.0467618 6.61296,-0.0820076 2.37927,-0.0352458 5.50044,-0.0471108 9.35061,-0.0471108l0 -6.16837 12.2156 0c0,0.787273 -0.0125629,1.44543 -0.0383865,1.96225 -0.0254747,0.528687 -0.0509494,1.03399 -0.0767731,1.51557 0,0.42295 0.0129118,0.834035 0.0387355,1.2336 0.0254747,0.411085 0.089336,0.951637 0.191584,1.62166l16.0023 0c0.779945,0 1.53476,-0.0118649 2.28958,-0.0355948 0.754819,-0.0233809 1.53476,-0.0586267 2.36636,-0.0938726 0.972227,0 1.56059,0.19961 1.778,0.599179 0.204496,0.399569 0.319655,1.40983 0.319655,3.04301zm69.8283 -0.587314l-0.102248 5.78032 -32.0039 0c-1.59932,0 -2.90377,0.481577 -3.90147,1.44508 -0.754819,0.716782 -2.6225,3.17247 -5.62851,7.36673 -0.370954,0.481577 -1.2022,1.68028 -2.50699,3.58356 -1.1003,1.58606 -2.17442,3.14874 -3.23633,4.69956 -1.06156,1.55082 -1.93154,2.78442 -2.60924,3.70081l28.8956 0.0704917 0 -14.9093c0,-0.528687 0.0767731,-0.881146 0.230319,-1.03399 0.140634,-0.164364 0.383517,-0.246721 0.703521,-0.246721l0.5245 0 10.2715 0 0.0767731 16.4015 9.10738 0c-0.0258237,0.364323 -0.0512984,0.987232 -0.0642102,1.89176 -0.0125629,0.892662 -0.0125629,1.62131 -0.0125629,2.19711l0 4.74632 -9.1845 0 0 4.42946 0 0.904876c0,0.869281 -0.0380376,1.65655 -0.114811,2.34961l-8.50646 0c-0.370954,0 -0.716084,0 -1.02318,0 -0.320004,0 -0.601273,0 -0.844155,0 -0.601273,0 -0.946752,-0.0938726 -1.03609,-0.258237 -0.0896849,-0.176229 -0.128071,-0.728646 -0.128071,-1.66877l0 -5.85081c-3.5689,0 -7.67487,-0.0118649 -12.3182,-0.0233809 -4.64338,-0.0118649 -9.10738,-0.0233809 -13.4049,-0.0471108 -4.28533,-0.0233809 -8.62162,-0.0467618 -12.9963,-0.0704917 -0.243231,0 -0.537412,0.0237299 -0.895453,0.0704917 -0.345479,0.0471108 -0.575798,0.0704917 -0.665134,0.0704917 -0.307092,0 -0.499025,-0.0938726 -0.601273,-0.293483 -0.102597,-0.199959 -0.153546,-0.611393 -0.153546,-1.25733 0,-0.481577 0,-1.03399 0,-1.65655 0,-0.622909 0,-1.31596 0,-2.06799l0 -5.45159 13.5334 -18.622 -10.3867 0 0 -6.93191c0,-1.03399 0.0767731,-1.6918 0.230319,-1.9619 0.140634,-0.281967 0.486113,-0.411434 1.03609,-0.411434 0.626748,0.0823566 1.17707,0.129467 1.65027,0.129467 1.56024,0 3.0444,0 4.42562,0 1.38157,0 2.68636,0 3.90147,0 0,0.869281 0,1.66807 0,2.39672 0,0.716433 0,1.36272 0,1.93852 0,0.669671 0.0254747,1.18649 0.0767731,1.56233 0.0512984,0.388053 0.179021,0.857765 0.370954,1.43356 1.54768,-1.73891 3.10826,-3.48934 4.68141,-5.22825 1.75252,-1.56268 3.78631,-2.33809 6.11463,-2.33809 5.11658,0 9.04352,0.0118649 11.7808,0.0471108 2.73731,0.0352458 6.02459,0.0704917 9.86185,0.117253 3.83761,0.0471108 7.18875,0.0708406 10.0541,0.0708406 0.460639,0 0.882542,0 1.29223,0 0.421903,0 0.805769,0 1.18929,0 1.17707,0 1.85477,0.140634 2.03414,0.411085 0.191584,0.270102 0.281269,1.10449 0.281269,2.51432zm8.62511 -5.31654c0,0.0300113 -0.187745,0.164364 -0.566725,0.398173 -0.309884,0.190886 -0.682234,0.410387 -1.12054,0.657806 -0.412132,0.231715 -0.668973,0.371652 -0.77157,0.421205 -0.431674,-0.176927 -0.780992,-0.443888 -1.04446,-0.802977 -0.303254,-0.412481 -0.455055,-0.789367 -0.455055,-1.13066 0,-0.231715 0.00348969,-0.539505 0.0101201,-0.923371 0.0066304,-0.384214 0.0164015,-0.861952 0.0261726,-1.43321 0.00977112,-0.571262 0.0136098,-1.15334 0.0136098,-1.74449l0 -0.300462 0 -0.244278 0 -0.196469 0 -0.15564 0 -0.123884 0 -0.0991071 0 -0.0760752 0 -0.0635123c0,-0.130863 -0.0167505,-0.205543 -0.0499025,-0.221246 -0.405153,0 -0.955476,-0.00348969 -1.65411,-0.010818 -0.698984,-0.0066304 -1.05807,-0.0104691 -1.07796,-0.0104691l0 -1.27025c0.438305,0 0.992118,0 1.66144,0 0.668973,0 1.41681,0 2.24073,0 0.823915,0 1.60526,0 2.34646,0l0 6.65029c0,0.0760752 0.0495535,0.175182 0.145171,0.297321 0.0956174,0.123884 0.194376,0.251257 0.296623,0.382121zm23.204 12.2893c0,0.169948 -0.00593247,0.41283 -0.0181464,0.732136 -0.0118649,0.31791 -0.0181464,0.501468 -0.0181464,0.547183 0,0.604763 -0.323494,1.02632 -0.973622,1.26396 -0.444586,0.163317 -1.05842,0.244627 -1.8443,0.244627 -0.707359,0 -1.45136,-0.00139587 -2.23131,-0.00314072 -0.779945,-0.00174484 -1.54209,-0.00348969 -2.2826,-0.00697937 -0.74086,-0.00348969 -1.50301,-0.00697937 -2.28295,-0.0101201 -0.286852,0 -0.498676,0.021985 -0.631633,0.0645592 -0.132957,0.044319 -0.19961,0.117253 -0.19961,0.224038l0 1.80277 7.80643 0.00837525c0.14552,0 0.244976,-0.078169 0.290342,-0.234507 0.0303603,-0.0917787 0.0453659,-0.242882 0.0453659,-0.451914l2.11649 0.0307092 0 1.96051 -13.1456 0 0 -3.33474c0.117602,-0.515078 0.386657,-0.885333 0.806815,-1.11461 0.360136,-0.195422 0.858812,-0.294181 1.49673,-0.294181l8.21158 0c0.0788669,0 0.148312,-0.0404804 0.214616,-0.123884 0.0638613,-0.0834035 0.0970133,-0.191933 0.0970133,-0.324541 0,-0.0865442 -0.184604,-0.139238 -0.553464,-0.161223 -0.36886,-0.022334 -0.970482,-0.0324541 -1.80207,-0.0324541l-8.45342 0 0.00907318 -1.29432c0.372001,0 0.79844,-0.00209381 1.27618,-0.00523453 0.477738,-0.00348969 0.997352,-0.00697937 1.56268,-0.0118649 0.562537,-0.00523453 1.30026,-0.00697937 2.21037,-0.00697937l0 -0.891615 2.88737 0c0,0.113764 -0.00314072,0.208683 -0.00907318,0.283363 -0.00593247,0.0767731 -0.0122139,0.149708 -0.0181464,0.219152 0,0.0614185 0.00279175,0.120743 0.00907318,0.178672 0.00593247,0.0593247 0.0212871,0.137494 0.0453659,0.234507l3.78212 0c0.184604,0 0.362927,-0.00209381 0.541599,-0.00523453 0.177974,-0.00348969 0.362578,-0.00837525 0.559397,-0.0136098 0.229272,0 0.368162,0.0289644 0.420158,0.0865442 0.0481577,0.0579288 0.0753772,0.203798 0.0753772,0.440049zm8.65372 22.304c0,0.468316 -0.188094,0.840665 -0.566725,1.1174 -0.314421,0.22683 -0.749236,0.388751 -1.30759,0.486113 -0.415273,0.0729344 -0.892313,0.108529 -1.43112,0.108529l-8.89381 0 0.0167505 -1.87885 1.89106 0c0,0.422601 0.174135,0.635123 0.518916,0.635123l6.33832 0c0.261029,0 0.479832,-0.0341989 0.648035,-0.103644 0.170995,-0.0697937 0.255445,-0.16227 0.255445,-0.278826 0,-0.210428 -0.00837525,-0.477738 -0.0254747,-0.801581 -0.0167505,-0.324192 -0.0251257,-0.592898 -0.0251257,-0.806815 -0.0394335,-0.0160526 -0.462732,-0.0272196 -1.27374,-0.03385 -0.811003,-0.0066304 -1.78148,-0.00977112 -2.9097,-0.00977112 -0.793904,0 -1.54837,0.00174484 -2.26132,0.00314072 -0.712594,0.00174484 -1.28769,0.00314072 -1.73123,0.0066304 -0.440398,0.00314072 -0.785179,0.00488556 -1.03783,0.00488556 0,-0.123186 0,-0.335359 0,-0.639659 0,-0.302905 0,-0.499025 0,-0.586616 0.757611,0 1.68622,-0.00139587 2.78617,-0.00314072 1.10239,-0.00139587 2.23305,-0.00314072 3.39756,-0.00488556 1.16451,-0.00139587 2.19117,-0.00314072 3.08069,-0.00628144 0.0195422,-0.110274 0.033501,-0.191235 0.0362927,-0.241486 0.00279175,-0.0499025 0.00279175,-0.0907318 0.00279175,-0.119696 0,-0.0907318 -0.0136098,-0.184604 -0.0390845,-0.278477l-7.09872 0.0272196c-0.246721,0 -0.502166,0 -0.768429,0 -0.26382,0 -0.536016,0 -0.816587,0 -0.283363,0 -0.465524,-0.00942215 -0.544391,-0.0289644 -0.0813097,-0.0177974 -0.120394,-0.0649082 -0.120394,-0.136098l0 -1.08669 4.29266 0c0,-0.166807 0,-0.312676 0.00279175,-0.439003 0.00244278,-0.126327 0.011167,-0.255794 0.022334,-0.390147 0.465524,0 0.799487,0.00139587 1.00154,0.00453659 1.01026,0.0146567 1.53197,0.022683 1.57141,0.022683l0 0.779247c0.21322,0 0.5751,0.00314072 1.08006,0.011516 0.507749,0.00767731 1.04621,0.011167 1.61607,0.011167 0.266612,0 0.518916,0 0.752027,0 0.232762,0 0.446331,0 0.642451,0 0.423648,0 0.670718,0.0066304 0.740511,0.0209381 0.0701427,0.0146567 0.106784,0.0568819 0.106784,0.128071 0,0.409689 -0.174135,0.777502 -0.5245,1.0996 -0.258237,0.205891 -0.513682,0.409689 -0.765986,0.615581l1.11112 0c0.0813097,0 0.140285,0.011167 0.176578,0.0355948 0.0362927,0.022683 0.0533922,0.0582778 0.0533922,0.105389l0 2.65111zm-9.52196 10.3574l-0.0205891 0.952684 -6.45662 0c-0.322796,0 -0.585918,0.0795648 -0.787273,0.238346 -0.152499,0.1183 -0.529036,0.522755 -1.13554,1.21406 -0.0746793,0.0795648 -0.242533,0.277081 -0.505656,0.590804 -0.222293,0.261377 -0.439003,0.518916 -0.65292,0.774361 -0.214267,0.255794 -0.389798,0.458894 -0.526594,0.609997l5.82952 0.011516 0 -2.45709c0,-0.0872422 0.0153546,-0.145171 0.0464128,-0.170297 0.0286154,-0.0272196 0.077471,-0.0408293 0.14203,-0.0408293l0.105737 0 2.07252 0 0.0153546 2.70311 1.83767 0c-0.00523453,0.0600226 -0.010818,0.162619 -0.0132608,0.311978 -0.00244278,0.147265 -0.00244278,0.266961 -0.00244278,0.36188l0 0.782388 -1.85302 0 0 0.730042 0 0.149359c0,0.143077 -0.00767731,0.272893 -0.0230319,0.387355l-1.71623 0c-0.0746793,0 -0.144473,0 -0.20624,0 -0.0645592,0 -0.121441,0 -0.170646,0 -0.121092,0 -0.190537,-0.0157036 -0.208683,-0.0429231 -0.0181464,-0.0289644 -0.0261726,-0.120045 -0.0261726,-0.274987l0 -0.9642c-0.719922,0 -1.54802,-0.00209381 -2.48501,-0.00383865 -0.936981,-0.00209381 -1.83732,-0.00383865 -2.70451,-0.00767731 -0.864395,-0.00383865 -1.73926,-0.00802628 -2.62215,-0.0118649 -0.0488556,0 -0.10818,0.00383865 -0.180417,0.0118649 -0.0694448,0.00767731 -0.116207,0.011516 -0.134004,0.011516 -0.0621164,0 -0.100852,-0.0153546 -0.121441,-0.0485066 -0.0205891,-0.032803 -0.0310582,-0.100852 -0.0310582,-0.207287 0,-0.0792159 0,-0.170297 0,-0.272893 0,-0.102597 0,-0.217058 0,-0.340942l0 -0.898245 2.73068 -3.06918 -2.09556 0 0 -1.14252c0,-0.170646 0.0153546,-0.278826 0.0460639,-0.323494 0.0286154,-0.0464128 0.0980602,-0.0676999 0.209032,-0.0676999 0.126676,0.0136098 0.237648,0.0212871 0.332916,0.0212871 0.31477,0 0.614534,0 0.893011,0 0.278477,0 0.541948,0 0.786924,0 0,0.143077 0,0.274987 0,0.395032 0,0.117951 0,0.224387 0,0.319306 0,0.110623 0.00523453,0.195771 0.0157036,0.257539 0.0104691,0.0638613 0.0362927,0.141681 0.0750283,0.236252 0.312327,-0.286503 0.626748,-0.5751 0.944309,-0.861604 0.353505,-0.257539 0.763892,-0.385261 1.2336,-0.385261 1.03225,0 1.82441,0.00209381 2.37683,0.00767731 0.552068,0.00593247 1.21511,0.011516 1.98947,0.0191933 0.774361,0.00802628 1.45031,0.0118649 2.02821,0.0118649 0.0931746,0 0.178323,0 0.26068,0 0.0851483,0 0.162619,0 0.240439,0 0.237299,0 0.374094,0.0230319 0.410038,0.0676999 0.0387355,0.044668 0.0568819,0.182162 0.0568819,0.414226zm-13.2783 24.6812c0,0.434815 -0.179021,0.841712 -0.534271,1.21825 -0.299415,0.323145 -0.682583,0.588012 -1.14706,0.797393 -0.411434,0.186 -0.76145,0.278826 -1.05214,0.278826 -1.09402,0 -2.09591,-0.00453659 -3.00497,-0.011516 -0.90662,-0.00697937 -1.81603,-0.011516 -2.72544,-0.0164015 -0.90662,-0.00453659 -1.91409,-0.00697937 -3.01928,-0.00697937 -0.108878,0 -0.201355,0.00488556 -0.271149,0.0118649 -0.0701427,0.0066304 -0.137494,0.0160526 -0.195771,0.0230319 -0.0785179,0 -0.125978,-0.0184953 -0.148661,-0.055835 -0.022334,-0.0348969 -0.033501,-0.120743 -0.033501,-0.253351l0 -2.42219 2.00622 0c0.0167505,0.0628144 0.0307092,0.132608 0.0390845,0.204845 0.00837525,0.0718875 0.011167,0.146218 0.011167,0.222991l0 0.158083c0,0.172042 0.0757262,0.285805 0.22683,0.34164 0.151103,0.0582778 0.537412,0.0861952 1.16137,0.0861952l5.10332 0c0.355599,0 0.612789,-0.0977112 0.772268,-0.293134 0.131561,-0.162619 0.195771,-0.392939 0.195771,-0.687817l0 -1.69494c0,-0.0764241 -0.0195422,-0.141681 -0.0614185,-0.192631 -0.0418762,-0.0537412 -0.100852,-0.0792159 -0.176229,-0.0792159 -0.973622,0 -1.95318,-0.00453659 -2.93517,-0.0139587 -0.981998,-0.00907318 -1.98668,-0.0184953 -3.00776,-0.0279175 -1.02422,-0.00907318 -2.12382,-0.0139587 -3.30194,-0.0139587l0 -4.51426 4.91069 0 0 -1.18545c0.148312,0 0.271498,0 0.369558,0 0.901037,-0.0139587 1.37912,-0.0209381 1.43252,-0.0209381 0.45331,0 0.69375,0.00697937 0.722016,0.0209381l0 1.19696c0.0809607,0.00942215 0.385959,0.0164015 0.914647,0.0188443 0.526245,0.00209381 1.18649,0.00453659 1.9783,0.00907318 0.79181,0.00488556 1.37668,0.00732834 1.75427,0.00732834l0.0167505 1.76404c-0.671416,0 -1.52464,0 -2.55724,0 -1.0326,0 -2.19641,0 -3.48655,0 -1.29258,0 -2.53212,0 -3.71826,0l0 0.899641c1.69529,0 3.01893,0.00244278 3.97022,0.00942215 0.948497,0.00697937 2.03728,0.0160526 3.26809,0.0254747 1.22837,0.00942215 2.07043,0.0139587 2.52374,0.0139587l0 4.18169zm0.994212 -16.5456l16.3837 8.01511 -0.998748 0.841712 -16.3837 -8.01511 0.998748 -0.841712zm-3.49981 3.37069l16.3837 8.01476 -0.998399 0.841712 -16.3837 -8.01476 0.998399 -0.841712zm9.12623 -16.2127l19.1594 4.85485 -0.605112 0.984091 -19.1591 -4.85485 0.604763 -0.984091zm1.3369 -2.93866l19.746 3.76258 -0.468665 1.01445 -19.746 -3.76258 0.468665 -1.01445zm0.442841 -15.2726l20.5619 -0.777502 0.0970133 1.05598 -20.5619 0.777851 -0.0970133 -1.05633zm-0.103644 3.66871l20.5549 -0.844853 0.105389 1.05563 -20.5553 0.845202 -0.10504 -1.05598zm-13.9539 -16.68l19.6714 -3.91996 0.488556 1.01061 -19.6717 3.91996 -0.488207 -1.01061zm-1.99331 -4.18623l19.4983 -4.26195 0.530781 1.00154 -19.4979 4.26195 -0.53113 -1.00154zm-140.566 46.3395l128.661 0 0 21.0156 -128.661 0 0 -21.0156z"/>
 </g>
</svg>
