<?xml version="1.0" encoding="UTF-8"?>
<!DOCTYPE svg PUBLIC "-//W3C//DTD SVG 1.1//EN" "http://www.w3.org/Graphics/SVG/1.1/DTD/svg11.dtd">
<!-- Creator: CorelDRAW -->
<svg xmlns="http://www.w3.org/2000/svg" xml:space="preserve" width="1in" height="2in" style="shape-rendering:geometricPrecision; text-rendering:geometricPrecision; image-rendering:optimizeQuality; fill-rule:evenodd; clip-rule:evenodd"
viewBox="0 0 10.2288 9.43023"
 xmlns:xlink="http://www.w3.org/1999/xlink">
 <defs>
  <style type="text/css">
   <![CDATA[
    .fil0 {fill:#7F7F7F}
   ]]>
  </style>
 </defs>
 <g id="Layer_x0020_1">
  <metadata id="CorelCorpID_0Corel-Layer"/>
  <g id="_646389512">
   <path id="_646389728" class="fil0" d="M4.09207 5.93415c0.172632,0 0.312625,-0.109168 0.312625,-0.243762 0,-0.134594 -0.139993,-0.24374 -0.312625,-0.24374 -0.172632,0 -0.312647,0.109145 -0.312647,0.24374 0,0.134594 0.140015,0.243762 0.312647,0.243762zm-0.703411 1.16576c-0.0980312,0 -0.238886,-0.161359 -0.31453,-0.360325 -0.0756442,-0.198966 -0.057476,-0.360325 0.0405779,-0.360325 0.0980539,0 0.238909,0.161359 0.314553,0.360325 0.0756442,0.198966 0.057476,0.360325 -0.0406006,0.360325zm1.41347 -1.54137c0.178484,0 0.32324,-0.112842 0.32324,-0.251996 0,-0.139176 -0.144756,-0.252019 -0.32324,-0.252019 -0.178484,0 -0.32324,0.112842 -0.32324,0.252019 0,0.139154 0.144756,0.251996 0.32324,0.251996zm0.710057 -0.371825c0.178484,0.00535293 0.32324,-0.0976003 0.32324,-0.229927 0,-0.132304 -0.144756,-0.243944 -0.32324,-0.24932 -0.178484,-0.00535293 -0.32324,0.0976229 -0.32324,0.229927 0,0.132326 0.144756,0.243967 0.32324,0.24932zm-0.545908 1.76481c0.198898,0 0.360211,-0.125749 0.360211,-0.280825 0,-0.155076 -0.161314,-0.280847 -0.360211,-0.280847 -0.198898,0 -0.360211,0.125771 -0.360211,0.280847 0,0.155076 0.161314,0.280825 0.360211,0.280825zm0.720763 -0.382598c0.187262,0 0.33914,-0.1184 0.33914,-0.264403 0,-0.146003 -0.151878,-0.264403 -0.33914,-0.264403 -0.187262,0 -0.339117,0.1184 -0.339117,0.264403 0,0.146003 0.151855,0.264403 0.339117,0.264403zm0.708401 -0.412425c0.18048,0.00542098 0.326846,-0.0987117 0.326846,-0.232512 0,-0.133801 -0.146366,-0.246688 -0.326846,-0.252109 -0.180503,-0.00542098 -0.326869,0.0987117 -0.326869,0.232512 0,0.133801 0.146366,0.246688 0.326869,0.252109zm-3.10749 1.87602c-0.0937216,0 -0.228361,-0.154237 -0.300671,-0.344447 -0.0723099,-0.190188 -0.0549356,-0.344425 0.0387861,-0.344425 0.0937443,0 0.228384,0.154237 0.300671,0.344425 0.0723099,0.19021 0.0549356,0.344447 -0.0387861,0.344447zm1.00699 0.0741925c-0.0995282,0 -0.242515,-0.154237 -0.319293,-0.344447 -0.0767783,-0.190188 -0.0583379,-0.344425 0.041213,-0.344425 0.0995055,0 0.242492,0.154237 0.319271,0.344425 0.0768009,0.19021 0.0583379,0.344447 -0.0411903,0.344447zm-0.116585 0.921997c-0.0995282,0 -0.242515,-0.151855 -0.319293,-0.339117 -0.0767783,-0.187285 -0.0583152,-0.33914 0.041213,-0.33914 0.0995282,0 0.242515,0.151855 0.319293,0.33914 0.0767783,0.187262 0.0583152,0.339117 -0.041213,0.339117zm1.09985 0.13777c-0.122006,0 -0.128969,-0.118649 -0.0155371,-0.264947 0.113455,-0.146298 0.304391,-0.264925 0.42642,-0.264925 0.122029,0 0.128969,0.118626 0.0155371,0.264925 -0.113432,0.146298 -0.304391,0.264947 -0.42642,0.264947zm1.34594 -1.58966c-0.122029,0 -0.132735,-0.118649 -0.0239294,-0.264947 0.108782,-0.146298 0.295976,-0.264947 0.418005,-0.264947 0.122029,0 0.132735,0.118649 0.0239294,0.264947 -0.108805,0.146298 -0.295999,0.264947 -0.418005,0.264947zm-3.56501 -1.28434c0.411722,0.0362003 1.0176,0.70856 1.35302,1.50143 0.33542,0.792846 0.273567,1.40648 -0.138133,1.37026 -0.411722,-0.0362003 -1.01762,-0.70856 -1.35304,-1.50143 -0.33542,-0.792869 -0.273544,-1.40648 0.138156,-1.37026zm3.66106 0.612661c0.589344,-0.101932 0.836758,0.330521 0.506827,1.03695 -0.329908,0.706405 -1.14986,1.28749 -1.79979,1.32882 -0.649927,0.0413264 -0.827028,-0.308996 -0.483125,-1.00141 0.34388,-0.692433 1.18676,-1.26245 1.77608,-1.36436zm-3.0435 -1.78822l0.423993 -0.312738c0.555548,-0.409817 1.48501,-0.403012 2.06546,0.0151288l0.234531 0.168935c0.580475,0.418118 0.600866,1.09551 0.0452958,1.50533l-0.423948 0.312761c-0.555571,0.409817 -1.48501,0.402989 -2.06548,-0.0151288l-0.234531 -0.168935c-0.580475,-0.418141 -0.600844,-1.09554 -0.0453185,-1.50535zm1.26025 -0.7226c0.698489,0 1.06698,0.110234 1.6159,0.529124 0.913151,0.696834 1.42708,2.49524 0.577436,3.39773 -0.728384,0.946153 -2.1918,1.58172 -3.38734,0.659817 -0.573036,-0.441889 -1.05489,-1.29101 -1.12736,-2.06396 -0.0538922,-0.574896 0.222237,-1.23136 0.605312,-1.5575l0.441798 -0.376134c0.364453,-0.310311 0.963958,-0.589072 1.27425,-0.589072z"/>
   <path id="_646389464" class="fil0" d="M2.328 -2.26819e-005c0.698489,0 1.06696,0.110234 1.6159,0.529146 0.913128,0.696834 1.42705,2.49521 0.577413,3.3977 -0.728361,0.946176 -2.19178,1.58172 -3.38732,0.659817 -0.573036,-0.441889 -1.05489,-1.29099 -1.12736,-2.06396 -0.0538922,-0.574896 0.222237,-1.23133 0.605312,-1.5575l0.441776 -0.376111c0.364476,-0.310311 0.963958,-0.589095 1.27427,-0.589095zm1.78325 2.51082c0.589344,-0.10191 0.836736,0.330543 0.506827,1.03695 -0.329908,0.706405 -1.14986,1.28749 -1.79979,1.32882 -0.649927,0.0413264 -0.827028,-0.308973 -0.483147,-1.00141 0.343903,-0.692433 1.18676,-1.26245 1.77611,-1.36436zm-3.66106 -0.612661c0.411699,0.036223 1.0176,0.70856 1.35302,1.50143 0.33542,0.792869 0.273567,1.40648 -0.138156,1.37028 -0.411699,-0.036223 -1.0176,-0.708583 -1.35302,-1.50143 -0.33542,-0.792869 -0.273567,-1.40648 0.138156,-1.37028zm3.56498 1.28434c-0.122006,0 -0.132735,-0.118649 -0.0239294,-0.264947 0.108805,-0.146298 0.295999,-0.264947 0.418005,-0.264947 0.122029,0 0.132757,0.118649 0.0239521,0.264947 -0.108805,0.146298 -0.295999,0.264947 -0.418028,0.264947zm-1.34592 1.58968c-0.122029,0 -0.128992,-0.118649 -0.0155371,-0.264947 0.113432,-0.146298 0.304391,-0.264947 0.426397,-0.264947 0.122029,0 0.128992,0.118649 0.0155371,0.264947 -0.113432,0.146298 -0.304369,0.264947 -0.426397,0.264947zm-1.09985 -0.13777c-0.0995282,0 -0.242515,-0.151878 -0.319293,-0.33914 -0.0767783,-0.187262 -0.0583379,-0.33914 0.0411903,-0.33914 0.0995282,0 0.242515,0.151878 0.319293,0.33914 0.0767783,0.187262 0.0583379,0.33914 -0.0411903,0.33914zm0.116562 -0.92202c-0.0995282,0 -0.242492,-0.154237 -0.319293,-0.344425 -0.0767783,-0.19021 -0.0583152,-0.344447 0.041213,-0.344447 0.0995282,0 0.242515,0.154237 0.319293,0.344447 0.0767783,0.190188 0.0583379,0.344425 -0.041213,0.344425zm-1.00699 -0.0741925c-0.0937216,0 -0.228361,-0.154237 -0.300671,-0.344425 -0.0722872,-0.190188 -0.0549129,-0.344425 0.0388087,-0.344425 0.0937216,0 0.228361,0.154237 0.300671,0.344425 0.0723099,0.190188 0.0549356,0.344425 -0.0388087,0.344425zm3.10749 -1.876c0.180503,0.00539829 0.326869,-0.0987117 0.326869,-0.232512 0,-0.133801 -0.146366,-0.246688 -0.326869,-0.252109 -0.18048,-0.00542098 -0.326846,0.098689 -0.326846,0.23249 0,0.133801 0.146366,0.246711 0.326846,0.252132zm-0.708379 0.412425c0.187262,0 0.33914,-0.1184 0.33914,-0.264403 0,-0.146026 -0.151878,-0.264426 -0.33914,-0.264426 -0.187262,0 -0.33914,0.1184 -0.33914,0.264426 0,0.146003 0.151878,0.264403 0.33914,0.264403zm-0.720786 0.382598c0.19892,0 0.360234,-0.125771 0.360234,-0.280847 0,-0.155076 -0.161314,-0.280847 -0.360234,-0.280847 -0.198898,0 -0.360189,0.125771 -0.360189,0.280847 0,0.155076 0.161291,0.280847 0.360189,0.280847zm0.545931 -1.76481c0.178484,0.00535293 0.323217,-0.0976229 0.323217,-0.229927 0,-0.132326 -0.144733,-0.243967 -0.323217,-0.24932 -0.178507,-0.00535293 -0.32324,0.0976003 -0.32324,0.229927 0,0.132304 0.144733,0.243944 0.32324,0.24932zm-0.71008 0.371825c0.178507,0 0.32324,-0.112865 0.32324,-0.252019 0,-0.139154 -0.144733,-0.252019 -0.32324,-0.252019 -0.178484,0 -0.323217,0.112865 -0.323217,0.252019 0,0.139154 0.144733,0.252019 0.323217,0.252019zm-1.41345 1.54135c-0.0980539,0 -0.238909,-0.161359 -0.314553,-0.360325 -0.0756442,-0.198966 -0.0574533,-0.360325 0.0406006,-0.360325 0.0980312,0 0.238909,0.161359 0.314553,0.360325 0.0756215,0.198966 0.0574533,0.360325 -0.0406006,0.360325zm0.703389 -1.16576c0.172655,0 0.312647,-0.109145 0.312647,-0.24374 0,-0.134617 -0.139993,-0.243762 -0.312647,-0.243762 -0.172632,0 -0.312625,0.109145 -0.312625,0.243762 0,0.134594 0.139993,0.24374 0.312625,0.24374z"/>
   <path id="_646389392" class="fil0" d="M7.60345 0.0969878c0.698489,0 1.06698,0.110234 1.6159,0.529124 0.913151,0.696834 1.42708,2.49524 0.577436,3.39773 -0.728384,0.946153 -2.1918,1.58172 -3.38734,0.659817 -0.573036,-0.441889 -1.05489,-1.29101 -1.12736,-2.06396 -0.0538922,-0.574896 0.222237,-1.23136 0.605312,-1.5575l0.441798 -0.376134c0.364453,-0.310311 0.963958,-0.589072 1.27425,-0.589072zm1.68719 3.1825c-0.122029,0 -0.132735,-0.118649 -0.0239294,-0.264947 0.108782,-0.146298 0.295976,-0.264947 0.418005,-0.264947 0.122029,0 0.132735,0.118649 0.0239294,0.264947 -0.108805,0.146298 -0.295999,0.264947 -0.418005,0.264947zm-1.34594 1.58966c-0.122006,0 -0.128969,-0.118649 -0.0155371,-0.264947 0.113455,-0.146298 0.304391,-0.264947 0.42642,-0.264947 0.122029,0 0.128969,0.118649 0.0155371,0.264947 -0.113432,0.146298 -0.304391,0.264947 -0.42642,0.264947zm-1.09985 -0.13777c-0.0995282,0 -0.242515,-0.151855 -0.319293,-0.339117 -0.0767783,-0.187285 -0.0583152,-0.33914 0.041213,-0.33914 0.0995282,0 0.242515,0.151855 0.319293,0.33914 0.0767783,0.187262 0.0583152,0.339117 -0.041213,0.339117zm0.116585 -0.921997c-0.0995282,0 -0.242515,-0.154237 -0.319293,-0.344447 -0.0767783,-0.190188 -0.0583379,-0.344425 0.041213,-0.344425 0.0995055,0 0.242492,0.154237 0.319271,0.344425 0.0768009,0.19021 0.0583379,0.344447 -0.0411903,0.344447zm-1.00699 -0.0741925c-0.0937216,0 -0.228361,-0.154237 -0.300671,-0.344447 -0.0723099,-0.190188 -0.0549356,-0.344425 0.0387861,-0.344425 0.0937443,0 0.228384,0.154237 0.300671,0.344425 0.0723099,0.19021 0.0549356,0.344447 -0.0387861,0.344447zm3.10749 -1.87602c0.18048,0.00542098 0.326846,-0.0987117 0.326846,-0.232512 0,-0.133801 -0.146366,-0.246688 -0.326846,-0.252109 -0.180503,-0.00542098 -0.326869,0.0987117 -0.326869,0.232512 0,0.133801 0.146366,0.246688 0.326869,0.252109zm-0.708401 0.412425c0.187262,0 0.33914,-0.1184 0.33914,-0.264403 0,-0.146003 -0.151878,-0.264403 -0.33914,-0.264403 -0.187262,0 -0.339117,0.1184 -0.339117,0.264403 0,0.146003 0.151855,0.264403 0.339117,0.264403zm-0.720763 0.382598c0.198898,0 0.360211,-0.125749 0.360211,-0.280825 0,-0.155076 -0.161314,-0.280847 -0.360211,-0.280847 -0.198898,0 -0.360211,0.125771 -0.360211,0.280847 0,0.155076 0.161314,0.280825 0.360211,0.280825zm0.545908 -1.76481c0.178484,0.00535293 0.32324,-0.0976003 0.32324,-0.229927 0,-0.132304 -0.144756,-0.243944 -0.32324,-0.24932 -0.178484,-0.00535293 -0.32324,0.0976229 -0.32324,0.229927 0,0.132326 0.144756,0.243967 0.32324,0.24932zm-0.710057 0.371825c0.178484,0 0.32324,-0.112842 0.32324,-0.251996 0,-0.139176 -0.144756,-0.252019 -0.32324,-0.252019 -0.178484,0 -0.32324,0.112842 -0.32324,0.252019 0,0.139154 0.144756,0.251996 0.32324,0.251996zm-1.41345 1.54137c-0.0980539,0 -0.238909,-0.161359 -0.314553,-0.360325 -0.0756442,-0.198966 -0.057476,-0.360325 0.0405779,-0.360325 0.0980539,0 0.238909,0.161359 0.314553,0.360325 0.0756442,0.198966 0.057476,0.360325 -0.0405779,0.360325zm0.703389 -1.16576c0.172632,0 0.312625,-0.109168 0.312625,-0.243762 0,-0.134594 -0.139993,-0.24374 -0.312625,-0.24374 -0.172632,0 -0.312647,0.109145 -0.312647,0.24374 0,0.134594 0.140015,0.243762 0.312647,0.243762zm1.48349 1.2556l0.964934 -0.505648c-0.00712212,0.000226819 -0.0141762,0.000430956 -0.0214571,0.000703139 0.396593,-0.163627 0.550762,-0.691617 0.453661,-1.12672 0.513473,0.771094 0.517987,1.56984 0.50347,1.5139 -0.194452,-0.12525 -0.195677,-0.363228 -0.754627,-0.387294 -0.0606741,0.0318 -0.118059,0.0618762 -0.172677,0.0905008 -0.527967,0.276651 -0.798018,0.418186 -1.30913,0.686014l-0.00095264 -0.00185992c-0.233919,0.145935 -0.393009,0.309631 -0.471103,0.488001l-0.0305298 1.17501c0.0390129,0.103112 0.117039,0.184926 0.278715,0.221126 -0.178348,0.0153783 -0.412743,-0.0452731 -0.591113,-0.0826529 0.123367,-0.0510797 0.188645,-0.13126 0.230743,-0.222963l0.0303938 -1.16887c-0.0256986,-0.154804 -0.0746462,-0.302962 -0.173312,-0.449283l-1.32394 -1.19055c-0.203366,-0.0740338 -0.339525,0.0232716 -0.41923,0.0509889 0.0264244,-0.213527 0.261749,-0.619103 0.449578,-0.778806 -0.0688169,0.203706 -0.0825168,0.439621 0.00737162,0.648022l0.971443 0.873571c0.408048,0.366925 0.906981,0.413514 1.37777,0.166803z"/>
  </g>
 </g>
</svg>
