<?xml version="1.0" encoding="UTF-8"?>
<!DOCTYPE svg PUBLIC "-//W3C//DTD SVG 1.1//EN" "http://www.w3.org/Graphics/SVG/1.1/DTD/svg11.dtd">
<!-- Creator: CorelDRAW -->
<svg xmlns="http://www.w3.org/2000/svg" xml:space="preserve" width="5548in" height="7180in" style="shape-rendering:geometricPrecision; text-rendering:geometricPrecision; image-rendering:optimizeQuality; fill-rule:evenodd; clip-rule:evenodd"
viewBox="0 0 66.9234 17.4583"
 xmlns:xlink="http://www.w3.org/1999/xlink">
 <defs>
  <style type="text/css">
   <![CDATA[
    .fil1 {fill:#00923F}
    .fil0 {fill:#1F1A17}
    .fil2 {fill:#DA251D}
   ]]>
  </style>
 </defs>
 <g id="Guía">
  <metadata id="CorelCorpID_0Corel-Layer"/>
  <g id="_503695400">
   <path id="_554555648" class="fil0" d="M0.0105391 0l2.76586 0.0252939 -1.45413 4.11315 -1.32226 -0.747487 0.0105391 -3.39096zm12.557 3.56986l0.29549 0.277179 0.00856303 0.212758 -0.304053 0.244903 0 -0.73484zm-0.486248 -0.122385l0.303922 0 0 1.59193 0.829165 -1.11701 -0.0588873 -0.0532225 -1.0742 -1.52369 0 1.102zm-1.46968 -0.5371l0.0106709 1.0269 -1.04851 -0.0661329 1.03784 -0.960772zm-2.05618 1.39432c0,0.282185 0.0422882,0.36742 0.182458,0.36742l1.88439 0 0 0.367288c0,0.282185 0.0422882,0.36742 0.182458,0.36742l0.911765 0c0.14017,0 0.182458,-0.0852351 0.182458,-0.36742l0 -0.489805 0.303922 0 0 -0.612322 -0.303922 0 0 -1.95922 -1.15509 0c-0.343707,0 -1.6852,1.60063 -2.18845,1.8367l0 0.489937zm4.96419 -0.436188l0.0634982 0.0605999 -0.922172 1.40262 0.514572 0.0750912c0.279813,0 0.550932,-0.602047 0.790302,-0.857225 0.143464,0.193524 0.426175,0.857225 0.607843,0.857225l0.851165 0 0.0391265 -0.103283 -0.927442 -1.42871 -0.0235813 -0.182458 0.806374 -1.05549 -0.745642 -0.0465038 -0.418535 0.630634 -0.429601 -0.63867 -0.994102 0.0562525 0.788194 1.22991zm4.56489 -0.976449l0.0150182 1.04522 -1.1041 -0.0436056 1.08909 -1.00161zm-2.05183 0.922699l0 0.857357 2.06685 0 0 0.734708 1.09422 0c0.140038,0 0.182327,-0.0852351 0.182327,-0.36742l0 -0.489805 0.304053 0c-0.00671868,-0.60455 -0.00395217,-0.598753 -0.304053,-0.612322l0 -1.95922 -1.15509 0c-0.368737,0 -1.66505,1.59127 -2.18832,1.8367zm-0.24319 -0.244903c0.469254,-0.220136 2.04604,-2.08174 2.37077,-2.08174l1.39815 0 0 1.95935 0.304053 0 0 1.59193c-0.194842,0.00869477 -0.304053,-0.0397852 -0.304053,0.36742l0 0.36742 -1.70207 0 0 -0.73484 -2.06685 0 0 -1.46955zm-7.47724 0c0.601388,-0.282185 1.93182,-2.08174 2.4925,-2.08174l1.27655 0 0 0.612322 1.64134 0c0.0980138,0 0.2947,0.350426 0.425517,0.489937l0.363072 -0.49468 1.52145 0.0047426 -1.11148 1.66571 1.19052 1.96054c-0.443697,0.0475577 -0.86974,0.0428151 -1.29513,0.047953 -0.816123,0.0101439 -0.649736,-0.612718 -0.911633,-0.612718 -0.0911633,0 -0.328689,0.612322 -0.486248,0.612322l-3.03961 0 0 -0.73484 -2.06685 0 0 -1.46955zm8.28954 -1.77413l-2.14972 -0.062576 -0.353719 0.519578c-0.0803607,-0.238579 -0.1432,-0.519578 -0.314988,-0.519578l-1.51974 0 0 -0.612322 -1.58047 0c-0.415505,0 -1.9803,1.93538 -2.55323,2.20426l0 2.08174 2.06685 0 0 0.734708 3.16108 0c0.237525,0 0.448439,-0.397193 0.607975,-0.612191 0.34621,1.04126 1.84408,0.612191 2.6747,0.612191l-0.381121 -0.694264 1.41461 -0.0404438 0 0.734708 2.06685 0 0 -0.367288c0,-0.407205 0.10908,-0.358725 0.303922,-0.36742l0 -2.32664 -0.303922 0 0 -1.95935 -1.51987 0c-0.559232,0 -1.994,1.91324 -2.61383,2.20426l0 1.102 -0.382043 -0.660934 1.37667 -1.97042zm45.3204 4.72231l0.985144 -2.39501 1.41 1.29631 -0.517866 1.47956 -1.87728 -0.380857zm0.0416295 -4.66329l2.63952 3.2172 2.32005 -0.159536 -2.76138 -3.28807 -2.1982 0.230411zm-7.37145 0.260711l1.10345 -1.8043 -9.05442 -0.0679773 0.566873 0.840363 6.26722 -0.116194 1.11688 1.1481zm1.91232 -1.16273l4.42221 0.658958 1.42568 1.98886 -0.71442 1.41132 -4.27229 0.0561208 -2.01679 -2.11336 1.15561 -2.0019zm-47.882 7.47816l5.39497 -0.197345 10.7679 7.50912 -0.511147 1.48628 -1.12228 0.229357 -14.5295 -9.02741zm10.4909 1.76135l5.76924 -0.248591 2.20715 1.61262 -1.60247 3.06925 -6.37392 -4.43328zm-15.2349 -10.1571l41.7179 0.382175 1.47613 1.60168 6.24983 -0.0544082 3.73888 4.15096 3.89618 -0.142673 -0.191417 0.864603 -23.9096 0.265322c0,0 -6.65532,-0.586633 -8.72098,3.63889l-1.74198 -1.52066 -8.94138 0.326844 -2.4842 -1.91364 -7.67261 0.248064 -5.05377 -3.21706 1.63699 -4.6301z"/>
   <path id="_554553776" class="fil1" d="M26.0705 2.70882l3.22589 0 0 0.944173 -0.109739 0 0 0.634982 -1.63014 0 0 0.638143 -1.48601 0 0 -0.638143 -0.896352 0 0 0.638143 -1.48601 0 0 -0.0407073c-0.118565,0.0264795 -0.247406,0.0407073 -0.385205,0.0407073l-0.678851 0c-0.36439,0 -0.666862,-0.0998581 -0.882256,-0.262029 -0.210651,-0.15835 -0.29773,-0.34621 -0.29773,-0.541974l0 -0.609161c0,-0.195896 0.0870794,-0.383624 0.29773,-0.542106 0.215393,-0.162039 0.517866,-0.262029 0.882256,-0.262029l0.678851 0c0.137799,0 0.26664,0.0142278 0.385205,0.0408391l0 -0.0408391 2.38237 0z"/>
   <path id="_554553512" class="fil1" d="M39.8331 2.64005l0 -0.0260843 2.16065 0c0.37348,0 0.683066,0.0985407 0.902543,0.258867 0.213285,0.155847 0.301023,0.340282 0.301023,0.532225l0 0.599412c0,0.191812 -0.0877381,0.376246 -0.301023,0.532225 -0.219477,0.160195 -0.529063,0.258867 -0.902543,0.258867l-2.86796 0 0 -0.520105 -0.609424 0 0 0.520105 -1.51684 0 0 -0.0409708c-0.122517,0.0266113 -0.255837,0.0409708 -0.398247,0.0409708l-1.25666 0c-0.0554621,0 -0.109343,-0.00223956 -0.161907,-0.00645521l0.00750912 0.00645521 -1.88663 0 -0.541842 -0.46438 0 0.46438 -1.51671 0 0 -2.1816 2.58498 0c0.301419,0 0.548824,0.0692947 0.732073,0.181668 0.207357,-0.114086 0.473206,-0.181668 0.782529,-0.181668l1.25666 0c0.30761,0 0.572142,0.0669234 0.779236,0.179824 0.186015,-0.111715 0.434211,-0.179824 0.731151,-0.179824l1.41461 0c0.108948,0 0.211441,0.00908999 0.30682,0.0260843z"/>
   <path id="_554553464" class="fil2" d="M43.0197 4.03226c0,0.156901 -0.0706121,0.287323 -0.211968,0.391528 -0.141356,0.104205 -0.313934,0.156374 -0.517866,0.156374l-1.73526 0 0 -1.09238 0.524584 0 0 0.688995 1.21068 0c0.133978,0 0.201034,-0.0482164 0.201034,-0.144518l0 -0.635245c0,-0.0963011 -0.0670551,-0.144518 -0.201034,-0.144518l-1.73526 0 0 -0.403385 1.73526 0c0.203932,0 0.37651,0.0521686 0.517866,0.156374 0.141356,0.104205 0.211968,0.234627 0.211968,0.391528l0 0.635245zm-2.68365 0.547902l-0.524453 0 0 -0.551327 -1.38115 0 0 -0.403253 1.38115 0 0 -0.242004c0,-0.0873429 -0.0378091,-0.13108 -0.113691,-0.13108l-1.48601 0c-0.0728516,0 -0.109212,0.0437373 -0.109212,0.13108l0 1.19658 -0.524584 0 0 -1.19658c0,-0.145703 0.059019,-0.271119 0.177057,-0.37651 0.118038,-0.105259 0.270328,-0.157955 0.456739,-0.157955l1.48601 0c0.189441,0 0.34318,0.0526956 0.461218,0.157955 0.117906,0.105391 0.176925,0.230807 0.176925,0.37651l0 1.19658zm-3.50096 -0.547902l0 -0.635245c0,-0.0963011 -0.0699534,-0.144518 -0.209728,-0.144518l-1.32002 0c-0.139907,0 -0.209728,0.0482164 -0.209728,0.144518l0 0.635245c0,0.0963011 0.0698216,0.144518 0.209728,0.144518l1.32002 0c0.139775,0 0.209728,-0.0482164 0.209728,-0.144518zm0.524453 0c0,0.156901 -0.0712708,0.287323 -0.214076,0.391528 -0.142805,0.104205 -0.316173,0.156374 -0.520105,0.156374l-1.32002 0c-0.203932,0 -0.3773,-0.0521686 -0.520105,-0.156374 -0.142805,-0.104205 -0.214207,-0.234627 -0.214207,-0.391528l0 -0.635245c0,-0.156901 0.0714025,-0.287323 0.214207,-0.391528 0.142805,-0.104205 0.316173,-0.156374 0.520105,-0.156374l1.32002 0c0.203932,0 0.3773,0.0521686 0.520105,0.156374 0.142805,0.104205 0.214076,0.234627 0.214076,0.391528l0 0.635245zm-3.18624 0.547902l-0.716791 0 -1.12321 -0.971443 1.35046 0c0.0961694,0 0.144254,-0.0592825 0.144254,-0.178111 0,-0.118697 -0.0480847,-0.178111 -0.144254,-0.178111l-1.62592 0 0 1.32766 -0.524453 0 0 -1.73105 2.18107 0c0.201034,0 0.359779,0.0605999 0.476368,0.181536 0.107762,0.109739 0.161644,0.243058 0.161644,0.399959 0,0.156901 -0.0538812,0.290221 -0.161644,0.399959 -0.116589,0.121068 -0.275334,0.181536 -0.476368,0.181536l-0.201165 0 0.660012 0.568058zm7.17305 -0.548693l0.877381 0 0 -0.633664 -0.877381 0 0 0.633664zm-2.97651 -0.551196l1.17458 0 0 -0.0824686 -1.17458 0 0 0.0824686zm-1.80192 -0.0824686l-1.20515 0 0 0.633664 1.20515 0 0 -0.633664zm-3.00865 0.065606c0.00131739,-0.0127787 0.00158087,-0.0250304 0.00158087,-0.032803 0,-0.0077726 -0.000263478,-0.0200243 -0.00158087,-0.032803l-1.23413 0 0 0.065606 1.23413 0zm8.05425 0.42275l0.342916 0 0 -0.343048 -0.342916 0 0 0.343048zm-5.31277 -0.343048l-0.670815 0 0 0.343048 0.670815 0 0 -0.343048z"/>
   <path id="_554553416" class="fil2" d="M29.057 3.30783l-1.87069 0 0 0.258867 1.75265 0 0 0.403385 -1.75265 0 0 0.665413 -0.528932 0 0 -1.73092 2.39962 0 0 0.403253zm-2.56127 0l-1.87069 0 0 0.258867 1.75265 0 0 0.403385 -1.75265 0 0 0.665413 -0.528932 0 0 -1.73092 2.39962 0 0 0.403253zm-3.14263 0.779763l0 -0.635245c0,-0.0963011 -0.0685042,-0.144518 -0.205381,-0.144518l-0.729965 0c-0.139907,0 -0.209728,0.0482164 -0.209728,0.144518l0 0.635245c0,0.0964329 0.0698216,0.144649 0.209728,0.144649l0.729965 0c0.136877,0 0.205381,-0.0482164 0.205381,-0.144649zm0.524453 0c0,0.156901 -0.0706121,0.287454 -0.211968,0.39166 -0.141356,0.104205 -0.313934,0.156242 -0.517866,0.156242l-0.729965 0c-0.203932,0 -0.3773,-0.0520369 -0.520105,-0.156242 -0.142805,-0.104205 -0.214207,-0.234759 -0.214207,-0.39166l0 -0.635245c0,-0.156769 0.0714025,-0.287323 0.214207,-0.391528 0.142805,-0.104205 0.316173,-0.156242 0.520105,-0.156242l0.729965 0c0.203932,0 0.37651,0.0520369 0.517866,0.156242 0.141356,0.104205 0.211968,0.234759 0.211968,0.391528l0 0.635245zm-0.791619 -0.634455l-0.610742 0 0 0.633796 0.610742 -0.000131739 0 -0.633664zm-0.267167 0.14544l-0.0764086 0 0 0.343048 0.0764086 0 0 -0.343048z"/>
  </g>
 </g>
</svg>
