<?xml version="1.0" encoding="UTF-8"?>
<!DOCTYPE svg PUBLIC "-//W3C//DTD SVG 1.1//EN" "http://www.w3.org/Graphics/SVG/1.1/DTD/svg11.dtd">
<!-- Creator: CorelDRAW -->
<svg xmlns="http://www.w3.org/2000/svg" xml:space="preserve" width="1.98819in" height="1.98819in" style="shape-rendering:geometricPrecision; text-rendering:geometricPrecision; image-rendering:optimizeQuality; fill-rule:evenodd; clip-rule:evenodd"
viewBox="0 0 0.0924648 0.0924648"
 xmlns:xlink="http://www.w3.org/1999/xlink">
 <defs>
  <style type="text/css">
   <![CDATA[
    .fil0 {fill:black}
    .fil1 {fill:#7F7F7F;fill-rule:nonzero}
   ]]>
  </style>
 </defs>
 <g id="Layer_x0020_1">
  <metadata id="CorelCorpID_0Corel-Layer"/>
  <path class="fil0" d="M0.0103982 0.039824l0 0.00122072c0.000227409,0.000330493 0.000483014,0.000601662 0.000483014,0.00122054l0 0.0079344 0.00712327 0c0.00027062,0 0.000265127,0.000120662 0.000483014,0.000305042l-0.000149408 0.00289644 2.85634e-005 0.000918423c0,0.000514141 0.00021331,0.00106783 0.000603676,0.00106783l0.000120662 0c0.000282704,0 0.000483014,-0.000253042 0.000483014,-0.000610268l0 -0.000152521 -0.000145014 -0.00381285c0.000242239,0.000182732 0.00023638,0.000303394 0.000507183,0.000303394l0.000120662 0c0.000326282,0 0.000333056,-7.28733e-005 0.000603859,-0.000152521 0.00027593,0.00149793 0.000611366,0.00676879 0.000604958,0.00854302 -5.85916e-006,0.00158856 -0.000409409,0.00854631 0.000602211,0.00854631 0.000284901,0 0.000537211,-0.000299366 0.000724521,-0.000457747l-0.000293873 -0.0106783 0.000220817 -0.00671972c0.000587197,0.000479718 6.40845e-005,0.000918972 0.000676733,0.000918972l0.000241507 0c0.000867888,0 0.000909634,-0.000915493 0.00169018,-0.000915493l0.00156952 0c0.000435225,0 0.00120754,0.00132692 0.00120754,0.00228873l0 0.00122072c0.00067124,-0.000226676 0.000241324,-0.00124525 0.000241324,-0.00228873 0,-4.19296e-005 8.31268e-005,-0.000278859 0.000120845,-0.000457747 0.000331409,9.75916e-005 0.000490521,0.000305042 0.000724338,0.000305042 0.000320972,0 0.000423324,-0.00106801 0.000965845,-0.00106801l0.000724338 0c0.000647254,0 6.39014e-005,0.00106801 0.000965845,0.00106801 0.000147028,0 0.000362169,-0.000315662 0.000362169,-0.000610268l0 -0.000457747 0.00434658 0 0.000152887 0.00136775c0.000105648,0.000265859 0.000230521,0.000615761 0.000571451,0.000615761l0.000120845 0c0.000621437,0 0.000724338,-0.0011407 0.000724338,-0.00198351l0.00507092 0 0 0.00122072 -7.0493e-005 0.00442348c0.000208366,0.000261465 0.000333056,0.000611733 0.000673986,0.000611733l0.000241507 0c0.000653113,0 0.000607155,-0.00126118 0.000603859,-0.00213585 -5.30986e-006,-0.00139521 -0.000305042,-0.00183135 0.000724338,-0.00183135l0.000576395 -0.00139192 0.000986169 0.00035869 0.000106563 0.00058262 0.001196 -0.000576578 0.000390916 -0.00131794 0.000545817 0.000883451c0.000537394,-0.00038231 0.00052238,-0.000827057 0.000906704,-0.000827057l0.00543309 0c0.000206718,0.00313941 0.000362352,0.00574124 0.000362169,0.00900241 -1.83099e-007,0.00123024 -0.000135127,0.00823962 0.000845183,0.00823962 0.000342578,0 0.000603493,-0.000526775 0.000603493,-0.000915493 0,-0.00276955 -9.66761e-005,-0.00573135 -0.000125239,-0.00823395 -1.61127e-005,-0.00141608 4.57747e-006,-0.00285835 4.57747e-006,-0.0042781 0,-0.00163489 -0.000264578,-0.00277596 0.000603676,-0.00335675 0.00227921,0.00152411 0.00193041,0.00489423 0.00205711,0.00899673 5.89578e-005,0.00191008 7.58028e-005,0.00410269 2.70986e-005,0.00495849 -0.000116817,0.00205345 0.00016131,0.00327673 0.000813507,0.00450734l0.000603676 0c0.000799592,-0.00150928 0.000361986,-0.00252603 0.000147944,-0.00430685 -0.000181817,-0.00151423 -0.000268789,-0.0033963 -0.000268789,-0.00439052l0 -0.00472999 0.000602578 0.000158197c0.00220158,-0.00186779 0.00388828,-0.00219023 0.00446816,-0.00565116l0.00350158 4.76056e-005 0.00422555 -4.76056e-005c0.000711704,0 0.000702183,0.00572696 0.000832,0.00673016 0.000260916,0.00201555 0.00039293,0.00498028 0.000737704,0.00684972 0.00027062,7.9831e-005 0.000277394,0.000152521 0.000603493,0.000152521 0.000883085,0 0.000483014,-0.0038892 0.000483014,-0.00534025 0,-0.000998437 3.03944e-005,-0.00206975 4.94366e-006,-0.0030583 -2.91127e-005,-0.00113137 -0.000487958,-0.00133992 -0.000487958,-0.00243485l0 -0.00137324c0,-0.000892057 0.0012112,-0.00152576 0.00193187,-0.00152576l0.00253537 0 0 0.000457747c0,0.0012577 -0.000315113,0.00686638 0.000845,0.00686638l0.000120845 0c0.0011537,0 0.000483014,-0.00782509 0.000483014,-0.0103758l0 -0.0196833 -0.00748562 0 0.000141352 -0.00121632c6.40845e-006,-0.000206718 -0.000201042,-0.000309437 -0.000382859,-0.000309437 -0.000632789,0 -0.0011982,0.00082138 -0.00132801,0.00152576l-0.0169028 0c-0.000377183,0 -0.000745944,-0.000915493 -0.00120735,-0.000915493l-0.000120845 0c-0.000396042,0 -0.000452986,0.000307789 -0.000482831,0.000762972l-0.00132838 0.000147944 -0.00229368 4.57747e-006 0 -0.000305042 0.000724338 0c0.000390366,0 0.000603859,-0.000554056 0.000603859,-0.0010682 0,-2.9662e-005 -0.000281423,-0.000476789 -0.000362352,-0.000915493l0.0015567 0.000798676c-0.000177606,-0.000937465 -0.00147632,-0.00147724 -0.00228104,-0.00171417 -1.55634e-005,-0.000889127 -8.60564e-005,-0.000727451 -0.000724338,-0.000915493 -0.000428451,0.000362535 -0.00105977,0.00122054 -0.00169037,0.00122054 -0.000326099,0 -0.000332873,-7.26902e-005 -0.000603676,-0.000152338 0.000159662,0.000865507 0.000603676,0.00150654 0.000603676,0.00259378 0,4.19296e-005 -8.31268e-005,0.000278859 -0.000120662,0.000457747l-0.00700261 0c-0.000444197,0 -0.000280507,-0.000457747 -0.000724521,-0.000457747 -0.000580056,0 -0.000627113,0.000457747 -0.00120735,0.000457747l-0.00350121 0c-0.000543803,0 -0.000241507,-0.000374803 -0.000241507,-0.000762789 0,-4.17465e-005 -8.33099e-005,-0.000278859 -0.000120662,-0.000457747l-0.00072562 0.000145197 -6.53662e-005 0.000335437c1.73944e-005,0.000366014 0.000194268,0.000739902 -0.000295704,0.000739902l-0.00350121 0c-0.000543803,0 -0.000241507,-0.000374803 -0.000241507,-0.000762789 0,-4.17465e-005 -8.31268e-005,-0.000278859 -0.000120662,-0.000457747l-0.000603859 0c-0.000798859,0 -0.000117,0.00122054 -0.00120717,0.00122054l-0.0091758 0c-0.000489972,0 -0.000313282,-0.000373887 -0.000241507,-0.000762789 -0.000187127,-0.00015838 -0.00043962,-0.000457747 -0.000724338,-0.000457747 -0.000265493,0 -0.000298451,0.000874113 -0.000362352,0.00122054l-0.00724393 0 0 0.0115964c0,0.000431014 -0.000277028,0.000588662 -0.000483014,0.000762972l0 0zm0.00301838 -0.0100706l0.00205254 0 0 0.00137324 -0.000965845 0 0 0.0152583 0.000960719 0.000104549 5.12676e-006 0.00126869 -0.00205254 0 0 -0.0180048zm0.0643511 0.016746c0.000199944,3.82676e-005 0.000483014,2.19718e-006 0.000483014,-0.000419479l0 -0.0144954c0,-0.000351732 -8.40423e-005,-0.000457747 -0.000362169,-0.000457747l-0.000724521 0 0 -0.00122072 0.00205254 0 0 0.0178523 -0.00205254 0 0 -0.00122072 0.000603676 -3.82676e-005 0 0zm-0.00382932 -0.0141554l0.00213914 3.29578e-006 0 0.0129696 -0.00205254 0 -3.68028e-005 -0.00381468 3.68028e-005 -0.000305042 -9.99719e-005 -0.00244235c-2.21549e-005,-4.92535e-005 9.99719e-005,-0.00052 9.99719e-005,-0.000761873l-1.3e-005 -0.00442385 -7.36057e-005 -0.00122511zm-0.0573827 3.29578e-006l0.0021732 0 0 0.000457747 3.02113e-005 0.000762972 -3.02113e-005 0.0105282 3.7169e-005 0.00122072 -0.00221037 0 0 -0.0129696zm0.00796845 0.00320423c0,-0.00233231 0.0014397,-0.00350945 0.00325989,-0.00350945l0 0.00213621c-0.000717564,7.54366e-005 -0.000965845,0.000559183 -0.000965845,0.00152594l0 0.00625593c0,0.000966578 0.000248282,0.00145032 0.000965845,0.00152576l0 0.00213621c-0.00182201,-0.000536479 -0.00325989,-0.000864042 -0.00325989,-0.00381468l0 -0.00625593zm0.00700261 0.000305042l0 0.00595089c0,0.00358745 -0.00338055,0.00431747 -0.00338055,0.00335693l0 -0.00167847c0.000903592,-9.50282e-005 0.00108651,-0.00104403 0.00108651,-0.00183099l0 -0.00564566c0,-0.000786958 -0.000182916,-0.00173596 -0.00108651,-0.00183099l0 -0.00213621c0.00213035,0 0.00338055,0.00111159 0.00338055,0.00381449zm0.00108669 -0.000152338c0,-0.00240939 0.00137214,-0.00366216 0.00325989,-0.00366216l0 0.00213621c-0.000565225,0.000166437 -0.000966028,0.000498578 -0.000966028,0.00137324l0 0.00656116c0,0.000874662 0.000400803,0.00120699 0.000966028,0.00137324l0 0.00213621c-0.000881437,-0.000534648 -0.00147028,5.95071e-005 -0.00244913,-0.00117751 -0.000557169,-0.000703648 -0.000810761,-0.0017572 -0.000810761,-0.00309492l0 -0.00564548zm0.00700242 0.00625593c0,0.00121413 -0.000393479,0.00225248 -0.00096255,0.00275051 -0.0011072,0.000969507 -0.00150818,0.000433028 -0.00229734,0.000911465l0 -0.00213621c0.000565225,-0.000166254 0.000966028,-0.000498578 0.000966028,-0.00137324l0 -0.00656116c0,-0.000874662 -0.000400803,-0.0012068 -0.000966028,-0.00137324l0 -0.00213621c0.00173358,0 0.00325989,0.00108321 0.00325989,0.00320441l0 0.00671368zm0.01316 -0.00640864c0,-0.00249435 0.00128132,-0.00350945 0.00325989,-0.00350945l0 0.00213621c-0.000594338,6.26197e-005 -0.000965845,0.000422042 -0.000965845,0.00122054l0 0.00686638c0,0.000798493 0.000371507,0.00115828 0.000965845,0.00122072l0 0.00198351 -0.000603676 0c-0.00170044,0 -0.00265621,-0.0013639 -0.00265621,-0.00350927l0 -0.00640864zm0.00362206 -0.00350945c0.00216478,0 0.00325989,0.00121962 0.00325989,0.0039672l0 0.000762789 -0.0021732 0 0 -0.000915493c0,-0.00104018 -0.000247549,-0.00165466 -0.00108669,-0.00167828l0 -0.00213621zm0.00639747 0.000304859l0.002899 3.66197e-007 0.00248501 0.012948 -0.00236417 2.16056e-005c-4.02817e-005,-0.000610634 -0.000232169,-0.00274648 -0.000724338,-0.00274648l-0.00169037 0c9.26479e-005,-0.000502056 0.000112972,-0.00213639 0.000603676,-0.00213639l0.000965845 0 -0.000643592 -0.00502624 -0.00181597 0.00989666 -0.00219627 -8.42254e-006 0.00248117 -0.0129491 0 0zm0.0108675 0.0119018c-0.00055131,-0.00100301 -0.0012577,-0.00334503 -0.00177056,-0.00462837 -0.000880888,-0.00220469 -0.000643958,-0.0029651 -0.000643958,-0.00605233 0.000442366,0.000643409 0.00135768,0.00357647 0.00176855,0.00463111 0.000913845,0.00234641 0.000645972,0.00279006 0.000645972,0.00604958zm-0.0280102 0c-0.000316028,-0.000459394 -0.0015318,-0.00379051 -0.00181176,-0.00457637 -0.000815338,-0.00228818 -0.000602944,-0.00279116 -0.000602944,-0.0059518 0.000250479,0.000364366 0.00160431,0.00397873 0.00179473,0.00459797 0.000327747,0.00106747 0.000628944,0.00112954 0.000621254,0.0025718 -5.85916e-006,0.00111873 -1.28169e-006,0.00223948 -1.28169e-006,0.0033584zm0.0111075 0.00122072l-0.000362169 0 0 -0.00198351c0.000796479,-8.36761e-005 0.00108669,-0.000599465 0.00108669,-0.00167847l0 -0.000915676c0,-0.000845733 -0.000168085,-0.00137324 -0.000845183,-0.00137324l-0.000483014 0 0 -0.00183099 0.0035014 0 0 0.00762935 -0.000845183 0c-0.00034093,0 -0.000434493,-0.000567972 -0.000845183,-0.000915493 -0.000123958,0.000587197 -0.000635169,0.00106801 -0.00120735,0.00106801zm-0.0357372 -0.0131221l0.00229386 0 0 0.0129696 -0.00229386 0 0 -0.00564566 -0.00181103 0 0 -0.00213603 0.00181103 0 0 -0.00518792zm0.0198003 0l0.00205235 0 0 0.0129696 -0.00205235 0 0 -0.0129696zm0.00507092 0l0.00217301 0 0 0.0129696 -0.00217301 0 0 -0.0129696zm0.00338055 0l0.00229386 0 0 0.0129696 -0.00229386 0 0 -0.0129696zm0.019559 0l0.0021732 0 0 0.0129696 -0.0021732 0 0 -0.0129696zm-0.0102566 0.032981l-5.85916e-006 0.000434859c0,0.000351549 8.38592e-005,0.000457747 0.000362169,0.000457747l0.000120662 0c0.000197563,0 0.000362352,-9.11831e-005 0.000362352,-0.000305042 0,-0.000497113 -0.000342761,-0.000588479 -0.000585733,-0.00069431l-0.000253592 0.000106747zm-0.0310345 -0.00307459c0,0.000355761 0.00032207,0.000762972 0.000603493,0.000762972l0.000241507 0c0.000423873,0 0.000483014,-0.000677099 0.000483014,-0.00122072l0 -0.000457747c0,-0.00113466 -0.000408859,-0.00207835 -0.000483014,-0.00320423 -0.000697789,0.000645972 -0.000845,0.00258755 -0.000845,0.00411972zm0.0154539 -0.002899c0,0.000477338 0.000216606,0.000432113 0.000519085,0.000661902l0.000567423 -0.000661902c-0.000138239,-0.000329944 -0.00021038,-0.000762972 -0.000603676,-0.000762972l-0.000362169 0c-6.3169e-005,0.000342211 -0.000120662,0.000350817 -0.000120662,0.000762972zm-0.0126772 -0.000915493l0.000603676 0c-1.33662e-005,-0.000753268 -7.69014e-006,-0.00074631 -0.000603676,-0.000762972l0 0.000762972zm0.0214908 -0.00183099l-0.000120845 0.000915493c0.000125789,0.000237296 0.000160028,0.000457747 0.000483014,0.000457747 0.000282521,0 0.000482831,-0.000253225 0.000482831,-0.000610268l0 -0.000305225c0,-0.000294789 -0.000215141,-0.000610451 -0.000362169,-0.000610451 -3.03944e-005,0 -0.000444197,0.000133662 -0.000482831,0.000152704zm-0.0397216 -0.0010682l0 0.000915493 0.000603859 0c0.000278127,0 0.000362169,-0.000106014 0.000362169,-0.000457747l0 -0.000152521c0,-0.000433028 -0.000416916,-0.000762972 -0.000724338,-0.000762972 -0.000169366,0 -0.00024169,0.000208 -0.00024169,0.000457747zm0.0548798 -0.00124342c-3.27747e-005,-0.000184747 -0.000210014,-0.000740268 -0.000428634,-0.000740268 -0.000146845,0 -0.000362169,0.000315845 -0.000362169,0.000610451 0,0.000351549 8.38592e-005,0.000457747 0.000362169,0.000457747l0.000344042 -7.50704e-006 8.45916e-005 -0.000320423zm-0.0417196 -0.00272359l0 0.000152338c0,0.000378465 0.000332507,0.000610451 0.000482831,0.000610451 0.000293873,0 0.000603676,-0.00031731 0.000603676,-0.000610451 0,-0.000349352 -4.0831e-005,-0.000177239 -0.000120845,-0.000610085 -0.000360338,-3.80845e-005 -0.000965662,-0.000254324 -0.000965662,0.000457747zm0.00688176 -0.000152704c0,0.000294606 0.000215324,0.000610451 0.000362169,0.000610451 0.00027831,0 0.000362169,-0.000106197 0.000362169,-0.000457747 0,-0.000351732 -8.38592e-005,-0.000457747 -0.000362169,-0.000457747 -0.000197563,0 -0.000362169,9.13662e-005 -0.000362169,0.000305042zm0.00953816 -0.0242608c0.000437972,-1.24507e-005 0.000724338,-6.70141e-005 0.000724338,-0.000610268 0,-0.000351732 -8.40423e-005,-0.000457747 -0.000362169,-0.000457747l-0.000362169 0 0 0.00106801zm0.0198003 -0.00106801c0.000113887,0.000272085 0.000268606,0.000762789 0.000603676,0.000762789 0.000544718,0 0.000965845,-0.00111507 0.000965845,-0.00183099 0,-0.000249747 -7.2324e-005,-0.000457747 -0.000241507,-0.000457747 -0.000716099,0 -0.00107772,0.000927944 -0.00132801,0.00152594zm-0.0220877 -0.000149408l0.000234732 -3.29578e-006 0 0.000305225 -0.000241324 0c7.30564e-005,0.00034569 0.000116085,0.000610268 0.000483014,0.000610268l0.000362169 0c4.11972e-005,-0.00062693 0.000120662,-0.000340747 0.000120662,-0.000915493 0,-0.000185662 -0.000249747,-0.000457747 -0.000482831,-0.000457747l-0.000339831 1.09859e-005 -0.000136592 0.000450056z"/>
  <path class="fil1" d="M0.0187676 0l0.0549296 0 1.28169e-006 0 0 1.83099e-006c0.00516961,3.66197e-007 0.00986169,0.00210765 0.0132596,0.00550578 0.00339758,0.00339776 0.00550413,0.00808875 0.00550486,0.0132573l1.83099e-006 0 0 2.74648e-006 0 0.0549296 0 1.28169e-006 -1.83099e-006 0c-3.66197e-007,0.00516961 -0.00210765,0.00986169 -0.00550578,0.0132596 -0.00339776,0.00339758 -0.00808875,0.00550413 -0.0132573,0.00550486l0 1.83099e-006 -2.74648e-006 0 -0.0549296 0 -1.28169e-006 0 0 -1.83099e-006c-0.00516961,-3.66197e-007 -0.00986169,-0.00210765 -0.0132596,-0.00550578 -0.00339758,-0.00339776 -0.00550413,-0.00808875 -0.00550486,-0.0132573l-1.83099e-006 0 0 -2.74648e-006 0 -0.0549296 0 -1.28169e-006 1.83099e-006 0c3.66197e-007,-0.00516961 0.00210765,-0.00986169 0.00550578,-0.0132596 0.00339776,-0.00339758 0.00808875,-0.00550413 0.0132573,-0.00550486l0 -1.83099e-006 2.74648e-006 0zm0.0549296 0.000915493l-0.0549296 0 -2.74648e-006 0 0 -1.83099e-006c-0.00491309,5.49296e-007 -0.0093752,0.00200603 -0.0126098,0.00524047 -0.00323499,0.0032348 -0.0052412,0.00769802 -0.00524138,0.0126122l1.83099e-006 0 0 1.28169e-006 0 0.0549296 0 2.74648e-006 -1.83099e-006 0c5.49296e-007,0.00491309 0.00200603,0.0093752 0.00524047,0.0126098 0.0032348,0.00323499 0.00769802,0.0052412 0.0126122,0.00524138l0 -1.83099e-006 1.28169e-006 0 0.0549296 0 2.74648e-006 0 0 1.83099e-006c0.00491309,-5.49296e-007 0.0093752,-0.00200603 0.0126098,-0.00524047 0.00323499,-0.0032348 0.0052412,-0.00769802 0.00524138,-0.0126122l-1.83099e-006 0 0 -1.28169e-006 0 -0.0549296 0 -2.74648e-006 1.83099e-006 0c-5.49296e-007,-0.00491309 -0.00200603,-0.0093752 -0.00524047,-0.0126098 -0.0032348,-0.00323499 -0.00769802,-0.0052412 -0.0126122,-0.00524138l0 1.83099e-006 -1.28169e-006 0z"/>
 </g>
</svg>
