<?xml version="1.0" encoding="UTF-8"?>
<!DOCTYPE svg PUBLIC "-//W3C//DTD SVG 1.1//EN" "http://www.w3.org/Graphics/SVG/1.1/DTD/svg11.dtd">
<!-- Creator: CorelDRAW -->
<svg xmlns="http://www.w3.org/2000/svg" xml:space="preserve" width="1.98819in" height="1.98819in" style="shape-rendering:geometricPrecision; text-rendering:geometricPrecision; image-rendering:optimizeQuality; fill-rule:evenodd; clip-rule:evenodd"
viewBox="0 0 0.0843817 0.0843817"
 xmlns:xlink="http://www.w3.org/1999/xlink">
 <defs>
  <style type="text/css">
   <![CDATA[
    .fil0 {fill:black}
    .fil1 {fill:yellow;fill-rule:nonzero}
   ]]>
  </style>
 </defs>
 <g id="Layer_x0020_1">
  <metadata id="CorelCorpID_0Corel-Layer"/>
  <path class="fil0" d="M0.0421909 0.00861646c0.0185394,0 0.0335744,0.015035 0.0335744,0.0335744 0,0.0185394 -0.015035,0.0335744 -0.0335744,0.0335744 -0.0185394,0 -0.0335744,-0.015035 -0.0335744,-0.0335744 0,-0.0185394 0.015035,-0.0335744 0.0335744,-0.0335744zm0.000379968 0.0120109l-0.000922685 0.0027983 0.00101024 0.003401 -0.00166508 0 -0.000650993 -0.00265727 0 0.00265727 -0.00161278 0 0 -0.0061993 0.00161278 0 0 0.00240881 0.000714989 -0.00240881 0.00151352 0zm0.000367269 0l0.00268852 0 0 0.00124033 -0.00107574 0 0 0.00117499 0.0010064 0 0 0.00118034 -0.0010064 0 0 0.00136314 0.00118285 0 0 0.0012405 -0.00279563 0 0 -0.0061993zm0.00325831 0l0.00268869 0 0 0.00124033 -0.00107574 0 0 0.00117499 0.0010064 0 0 0.00118034 -0.0010064 0 0 0.00136314 0.00118285 0 0 0.0012405 -0.00279579 0 0 -0.0061993zm0.00325847 0l0.0016233 0c0.000439119,0 0.000777649,3.39198e-005 0.00101292,0.000103263 0.000236603,6.91763e-005 0.00041439,0.000168596 0.000532023,0.000297926 0.00011897,0.000130666 0.00020001,0.000288903 0.000241783,0.000473206 4.17731e-005,0.00018564 6.26597e-005,0.000471869 6.26597e-005,0.000860025l0 0.000539709c0,0.000396176 -4.04364e-005,0.000684912 -0.000121476,0.000865372 -8.23766e-005,0.00018163 -0.000232593,0.000320149 -0.000450983,0.000418233 -0.000218223,9.67466e-005 -0.000503116,0.000145036 -0.000854678,0.000145036l-0.000432603 0 0 0.00249653 -0.00161294 0 0 -0.0061993zm0.00161294 0.00106004l0 0.00157752c4.56163e-005,2.67348e-006 8.4883e-005,4.01022e-006 0.000117466,4.01022e-006 0.000149047,0 0.00025114,-3.67604e-005 0.00030862,-0.00010861 5.74798e-005,-7.31865e-005 8.62198e-005,-0.000224739 8.62198e-005,-0.000453489l0 -0.000509799c0,-0.000211706 -3.27501e-005,-0.000350226 -9.94201e-005,-0.000413053 -6.66699e-005,-6.39965e-005 -0.000203853,-9.65795e-005 -0.000412886,-9.65795e-005zm-0.00892308 0.008175l-0.00149648 0 0 -0.000458836c0,-0.00021438 -1.97169e-005,-0.000351563 -5.76469e-005,-0.000410379 -3.793e-005,-5.88166e-005 -0.000101926,-8.75565e-005 -0.000192156,-8.75565e-005 -9.65795e-005,0 -0.000169933,3.92668e-005 -0.00021956,0.00011897 -4.96265e-005,7.83664e-005 -7.45233e-005,0.000198673 -7.45233e-005,0.000359416 0,0.000206526 2.75703e-005,0.000363259 8.37134e-005,0.000467859 5.36367e-005,0.0001046 0.000206526,0.000230086 0.000456163,0.000379133 0.000717495,0.000426086 0.00116848,0.000774975 0.00135529,0.00104817 0.000186977,0.000273196 0.000279713,0.000713652 0.000279713,0.00132137 0,0.000441793 -5.23e-005,0.000767289 -0.000155396,0.000976322 -0.00010343,0.0002092 -0.000303273,0.00038565 -0.000598693,0.000526676 -0.000296756,0.000141193 -0.000640466,0.00021321 -0.0010338,0.00021321 -0.000431433,0 -0.000800039,-8.23766e-005 -0.00110448,-0.000245793 -0.000305779,-0.000163417 -0.000505789,-0.000371113 -0.000599862,-0.000623422 -9.42402e-005,-0.000253647 -0.000141193,-0.000611726 -0.000141193,-0.00107691l0 -0.000405367 0.00149648 0 0 0.000754256c0,0.000232593 2.10537e-005,0.000381639 6.28268e-005,0.000448309 4.31099e-005,6.53332e-005 0.000117633,9.9253e-005 0.000224739,9.9253e-005 0.000107106,0 0.000186977,-4.17731e-005 0.000239277,-0.000126656 5.21329e-005,-8.37134e-005 7.83664e-005,-0.0002092 7.83664e-005,-0.000375123 0,-0.000364596 -4.96265e-005,-0.000603873 -0.000149047,-0.000716326 -0.000101926,-0.000112453 -0.000354236,-0.000299263 -0.000754089,-0.000561932 -0.000401356,-0.00026668 -0.000666699,-0.000458836 -0.000797366,-0.000579143 -0.00012933,-0.00012014 -0.00023794,-0.00028623 -0.000322823,-0.000497936 -8.62198e-005,-0.000211706 -0.000127993,-0.000482229 -0.000127993,-0.000811569 0,-0.000474543 5.99862e-005,-0.000822095 0.00018163,-0.00104182 0.000120307,-0.00021956 0.000316306,-0.00039083 0.000586829,-0.000514979 0.000270523,-0.000122813 0.000597356,-0.000185473 0.000980165,-0.000185473 0.000419737,0 0.000776479,6.78396e-005 0.00107056,0.000202516 0.00029542,0.000136013 0.000490082,0.000305946 0.000586829,0.000512306 9.54099e-005,0.000205357 0.00014253,0.000554246 0.00014253,0.001047l0 0.000244456zm0.00225324 -0.00187561l0 0.00619913 -0.00161278 0 0 -0.00619913 0.00161278 0zm0.00225993 0l0 0.00495881 0.000980165 0 0 0.00124033 -0.00259311 0 0 -0.00619913 0.00161294 0zm0.00136966 0l0.00268852 0 0 0.00124033 -0.00107557 0 0 0.00117499 0.0010064 0 0 0.00118034 -0.0010064 0 0 0.00136314 0.00118285 0 0 0.00124033 -0.00279579 0 0 -0.00619913zm0.00685798 0l0 0.00619913 -0.00141293 0 -0.000839139 -0.00281785 0 0.00281785 -0.00134743 0 0 -0.00619913 0.00134743 0 0.000904472 0.00279178 0 -0.00279178 0.0013476 0zm0.00389359 0l0 0.00124033 -0.000956772 0 0 0.00495881 -0.00161144 0 0 -0.00495881 -0.000954099 0 0 -0.00124033 0.00352231 0zm0.00340618 0l-0.000253647 0.0046674 -0.00119454 0 -0.00025231 -0.0046674 0.0017005 0zm-0.000126823 0.00495881l0 0.00124033 -0.00144685 0 0 -0.00124033 0.00144685 0zm-0.0199138 0.00427623l-0.00149648 0 0 -0.000458836c0,-0.00021438 -1.97169e-005,-0.000351563 -5.76469e-005,-0.000410379 -3.793e-005,-5.88166e-005 -0.000101926,-8.75565e-005 -0.000192156,-8.75565e-005 -9.65795e-005,0 -0.000169933,3.92668e-005 -0.00021956,0.000118803 -4.96265e-005,7.85335e-005 -7.45233e-005,0.00019884 -7.45233e-005,0.000359583 0,0.000206526 2.75703e-005,0.000363259 8.37134e-005,0.000467859 5.36367e-005,0.0001046 0.000206526,0.000230086 0.000456163,0.000378966 0.000717495,0.000426253 0.00116848,0.000775142 0.00135529,0.00104834 0.000186977,0.000273196 0.000279713,0.000713652 0.000279713,0.00132137 0,0.000441793 -5.23e-005,0.000767289 -0.000155396,0.000976322 -0.00010343,0.0002092 -0.000303273,0.00038565 -0.000598693,0.000526676 -0.000296756,0.00014136 -0.000640466,0.00021321 -0.0010338,0.00021321 -0.000431433,0 -0.000800039,-8.23766e-005 -0.00110448,-0.000245793 -0.000305779,-0.000163417 -0.000505789,-0.00037128 -0.000599862,-0.000623422 -9.42402e-005,-0.000253647 -0.000141193,-0.000611726 -0.000141193,-0.00107708l0 -0.000405032 0.00149648 0 0 0.000754089c0,0.000232593 2.10537e-005,0.000381639 6.28268e-005,0.000448309 4.31099e-005,6.53332e-005 0.000117633,9.9253e-005 0.000224739,9.9253e-005 0.000107106,0 0.000186977,-4.17731e-005 0.000239277,-0.000126656 5.21329e-005,-8.37134e-005 7.83664e-005,-0.0002092 7.83664e-005,-0.000375123 0,-0.000364763 -4.96265e-005,-0.000603873 -0.000149047,-0.000716326 -0.000101926,-0.000112453 -0.000354236,-0.000299263 -0.000754089,-0.000561932 -0.000401356,-0.00026668 -0.000666699,-0.000458836 -0.000797366,-0.000579143 -0.00012933,-0.00012014 -0.00023794,-0.00028623 -0.000322823,-0.000497936 -8.62198e-005,-0.000211706 -0.000127993,-0.000482229 -0.000127993,-0.000811569 0,-0.000474543 5.99862e-005,-0.000822263 0.00018163,-0.00104182 0.000120307,-0.00021956 0.000316306,-0.00039083 0.000586829,-0.000514979 0.000270523,-0.000122813 0.000597356,-0.000185473 0.000980165,-0.000185473 0.000419737,0 0.000776479,6.78396e-005 0.00107056,0.000202516 0.00029542,0.000135846 0.000490082,0.000305779 0.000586829,0.000512306 9.54099e-005,0.00020519 0.00014253,0.000554246 0.00014253,0.001047l0 0.000244456zm0.000640466 -0.00187561l0.00268852 0 0 0.00124033 -0.00107574 0 0 0.00117499 0.0010064 0 0 0.00118034 -0.0010064 0 0 0.00136314 0.00118285 0 0 0.00124033 -0.00279563 0 0 -0.00619913zm0.00325831 0l0.00114108 0c0.000760605,0 0.00127558,2.87399e-005 0.00154494,8.75565e-005 0.000269186,5.88166e-005 0.000488746,0.0002092 0.000658679,0.000449646 0.000169933,0.000241783 0.000254816,0.000625929 0.000254816,0.00115528 0,0.000482396 -5.99862e-005,0.000806556 -0.000180293,0.000972479 -0.00011897,0.000165923 -0.000355406,0.000265343 -0.000708472,0.000298093 0.00031898,7.97032e-005 0.000534529,0.000185473 0.000644476,0.000318813 0.000108443,0.000132003 0.000177786,0.000253647 0.000203853,0.000364763 2.74032e-005,0.000111117 4.04364e-005,0.000416896 4.04364e-005,0.000917505l0 0.001635 -0.00149648 0 0 -0.00205975c0,-0.000332013 -2.74032e-005,-0.000537203 -7.97032e-005,-0.000617073 -5.23e-005,-7.83664e-005 -0.000189483,-0.000118803 -0.000410379,-0.000118803l0 0.00279563 -0.00161294 0 0 -0.00619913zm0.00161294 0.00106004l0 0.00137885c0.000180293,0 0.000307116,-2.48968e-005 0.000380303,-7.45233e-005 7.31865e-005,-4.96265e-005 0.00010978,-0.000211706 0.00010978,-0.000484903l0 -0.000339866c0,-0.000197336 -3.52565e-005,-0.000325329 -0.000105937,-0.000386819 -7.05131e-005,-6.14901e-005 -0.000198673,-9.27364e-005 -0.000384146,-9.27364e-005zm0.00422293 -0.00106004l0 0.00619913 -0.00161278 0 0 -0.00619913 0.00161278 0zm0.0043302 0.00362958c0,0.000623422 -1.437e-005,0.00106388 -4.31099e-005,0.0013227 -3.00767e-005,0.000260163 -0.000121643,0.000496599 -0.000275703,0.000710979 -0.000154394,0.00021438 -0.000363426,0.000379133 -0.000626263,0.000494093 -0.00026267,0.000115127 -0.000569786,0.000172607 -0.000918675,0.000172607 -0.000332013,0 -0.000630106,-5.49735e-005 -0.000894112,-0.000163417 -0.000265343,-0.00010861 -0.000477049,-0.000270523 -0.000637792,-0.000487576 -0.000160743,-0.000216886 -0.000256153,-0.000453489 -0.000287566,-0.000708472 -3.00767e-005,-0.000256153 -4.57834e-005,-0.000703126 -4.57834e-005,-0.00134092l0 -0.00106004c0,-0.000623422 1.437e-005,-0.00106388 4.44466e-005,-0.00132404 2.87399e-005,-0.000258826 0.000120307,-0.000495262 0.00027587,-0.000709642 0.000154226,-0.00021438 0.00036209,-0.000379133 0.000626096,-0.000494093 0.00026267,-0.00011496 0.000568449,-0.00017244 0.000918842,-0.00017244 0.000331846,0 0.000629939,5.48064e-005 0.000893945,0.000163249 0.000264006,0.000108443 0.000477049,0.000270523 0.000637792,0.000487576 0.000160743,0.000217053 0.000256153,0.000453489 0.00028623,0.000708472 3.14134e-005,0.000256153 4.57834e-005,0.000701789 4.57834e-005,0.00134092l0 0.00106004zm-0.00161161 -0.00203636c0,-0.000288736 -1.57067e-005,-0.000473206 -4.82898e-005,-0.000554246 -3.14134e-005,-7.97032e-005 -9.67466e-005,-0.00012014 -0.000196,-0.00012014 -8.50501e-005,0 -0.000149047,3.25831e-005 -0.000193493,9.79162e-005 -4.57834e-005,6.41635e-005 -6.80067e-005,0.00025632 -6.80067e-005,0.000576469l0 0.00289371c0,0.000360753 1.57067e-005,0.000582986 4.44466e-005,0.000666699 2.87399e-005,8.4883e-005 9.80833e-005,0.000126656 0.00020519,0.000126656 0.00010978,0 0.000179123,-4.82898e-005 0.00021037,-0.000145036 3.00767e-005,-9.80833e-005 4.57834e-005,-0.000328003 4.57834e-005,-0.000694103l0 -0.00284793zm0.00587782 -0.00159323l0 0.00414323c0,0.000469196 -1.57067e-005,0.000799872 -4.57834e-005,0.000989355 -3.14134e-005,0.00019082 -0.000121643,0.00038565 -0.00027186,0.000585659 -0.00015172,0.000201179 -0.000349056,0.000352899 -0.000596019,0.000456163 -0.000245793,0.000103263 -0.000537203,0.000155563 -0.000870552,0.000155563 -0.000371113,0 -0.000697946,-6.14901e-005 -0.000980165,-0.00018447 -0.000283723,-0.000122813 -0.000495429,-0.000282219 -0.000636623,-0.000478219 -0.000139856,-0.000197336 -0.000223403,-0.000403863 -0.0002483,-0.000622253 -2.62335e-005,-0.000218223 -3.793e-005,-0.000677059 -3.793e-005,-0.00137751l0 -0.00366751 0.00161161 0 0 0.00464768c0,0.00027069 1.437e-005,0.000444466 4.44466e-005,0.00051899 2.87399e-005,7.56929e-005 8.75565e-005,0.000113623 0.000177786,0.000113623 0.000101926,0 0.00016726,-4.17731e-005 0.000197336,-0.00012415 2.87399e-005,-8.35463e-005 4.31099e-005,-0.000279713 4.31099e-005,-0.000588166l0 -0.00456798 0.00161294 0zm0.00403863 0.00187561l-0.00149648 0 0 -0.000458836c0,-0.00021438 -1.97169e-005,-0.000351563 -5.76469e-005,-0.000410379 -3.793e-005,-5.88166e-005 -0.000101926,-8.75565e-005 -0.000192156,-8.75565e-005 -9.65795e-005,0 -0.000169766,3.92668e-005 -0.000219393,0.000118803 -4.97936e-005,7.85335e-005 -7.46904e-005,0.00019884 -7.46904e-005,0.000359583 0,0.000206526 2.75703e-005,0.000363259 8.37134e-005,0.000467859 5.36367e-005,0.0001046 0.000206526,0.000230086 0.000456163,0.000378966 0.000717495,0.000426253 0.00116848,0.000775142 0.00135545,0.00104834 0.000186809,0.000273196 0.000279713,0.000713652 0.000279713,0.00132137 0,0.000441793 -5.23e-005,0.000767289 -0.000155563,0.000976322 -0.000103263,0.0002092 -0.000303273,0.00038565 -0.000598693,0.000526676 -0.000296756,0.00014136 -0.000640466,0.00021321 -0.0010338,0.00021321 -0.000431266,0 -0.000799872,-8.23766e-005 -0.00110448,-0.000245793 -0.000305779,-0.000163417 -0.000505789,-0.00037128 -0.000599862,-0.000623422 -9.42402e-005,-0.000253647 -0.000141193,-0.000611726 -0.000141193,-0.00107708l0 -0.000405032 0.00149648 0 0 0.000754089c0,0.000232593 2.10537e-005,0.000381639 6.28268e-005,0.000448309 4.31099e-005,6.53332e-005 0.000117633,9.9253e-005 0.000224739,9.9253e-005 0.000107273,0 0.000186977,-4.17731e-005 0.000239277,-0.000126656 5.23e-005,-8.37134e-005 7.83664e-005,-0.0002092 7.83664e-005,-0.000375123 0,-0.000364763 -4.96265e-005,-0.000603873 -0.000149047,-0.000716326 -0.000101926,-0.000112453 -0.000354236,-0.000299263 -0.000754089,-0.000561932 -0.000401189,-0.00026668 -0.000666699,-0.000458836 -0.000797366,-0.000579143 -0.00012933,-0.00012014 -0.000237773,-0.00028623 -0.000322823,-0.000497936 -8.62198e-005,-0.000211706 -0.000127993,-0.000482229 -0.000127993,-0.000811569 0,-0.000474543 5.99862e-005,-0.000822263 0.00018163,-0.00104182 0.000120307,-0.00021956 0.000316306,-0.00039083 0.000586829,-0.000514979 0.000270523,-0.000122813 0.000597356,-0.000185473 0.000980332,-0.000185473 0.000419569,0 0.000776312,6.78396e-005 0.00107039,0.000202516 0.00029542,0.000135846 0.000490082,0.000305779 0.000586829,0.000512306 9.54099e-005,0.00020519 0.00014253,0.000554246 0.00014253,0.001047l0 0.000244456zm-0.0208104 0.00548381l0 0.00619913 -0.00140909 0 0 -0.004185 -0.000563269 0.004185 -0.000999882 0 -0.000593346 -0.00408959 0 0.00408959 -0.00140892 0 0 -0.00619913 0.00208732 0c6.1323e-005,0.000372449 0.000125487,0.000811569 0.000194663,0.00131736l0.000222233 0.00157769 0.000367269 -0.00289505 0.00210303 0zm0.00225976 0l0 0.00619913 -0.00161278 0 0 -0.00619913 0.00161278 0zm0.00424649 0l0 0.00619913 -0.00141277 0 -0.000839306 -0.00281785 0 0.00281785 -0.00134743 0 0 -0.00619913 0.00134743 0 0.000904639 0.00279178 0 -0.00279178 0.00134743 0zm0.000646982 0l0.00120641 0c0.000778986,0 0.00130449,3.52565e-005 0.00157886,0.000107106 0.000274533,7.18498e-005 0.000483566,0.000188146 0.000626096,0.000351563 0.000143867,0.000163417 0.000232593,0.000346383 0.000269186,0.000546393 3.54236e-005,0.00020001 5.36367e-005,0.000593346 5.36367e-005,0.00118151l0 0.00217103c0,0.000556752 -2.60664e-005,0.000928032 -7.97032e-005,0.00111618 -5.23e-005,0.000186977 -0.000142363,0.000334519 -0.000273196,0.000440456 -0.000130666,0.000105937 -0.000291409,0.000179123 -0.000482229,0.000222233 -0.000192156,4.17731e-005 -0.000479723,6.26597e-005 -0.000865205,6.26597e-005l-0.00203385 0 0 -0.00619913zm0.00161294 0.00106004l0 0.00407789c0.000231256,0 0.000375123,-4.57834e-005 0.00042876,-0.000138687 5.34696e-005,-9.3906e-005 7.97032e-005,-0.000347553 7.97032e-005,-0.000760605l0 -0.00240881c0,-0.00028105 -9.19009e-006,-0.000460173 -2.62335e-005,-0.000539876 -1.82131e-005,-7.83664e-005 -5.88166e-005,-0.000137183 -0.000122813,-0.000173776 -6.39965e-005,-3.65933e-005 -0.000184303,-5.61431e-005 -0.000359416,-5.61431e-005zm0.00613647 0.000815412l-0.00149648 0 0 -0.000458669c0,-0.00021438 -1.97169e-005,-0.000351563 -5.76469e-005,-0.000410379 -3.793e-005,-5.88166e-005 -0.000101926,-8.75565e-005 -0.000192156,-8.75565e-005 -9.65795e-005,0 -0.000169933,3.90997e-005 -0.00021956,0.00011897 -4.96265e-005,7.83664e-005 -7.45233e-005,0.000198506 -7.45233e-005,0.000359416 0,0.000206526 2.74032e-005,0.000363259 8.37134e-005,0.000467859 5.36367e-005,0.0001046 0.000206526,0.000230086 0.000456163,0.000378966 0.000717663,0.000426086 0.00116848,0.000775142 0.00135545,0.00104834 0.000186809,0.000273196 0.000279713,0.000713485 0.000279713,0.00132137 0,0.000441793 -5.23e-005,0.000767122 -0.000155563,0.000976322 -0.000103263,0.0002092 -0.000303273,0.00038565 -0.000598693,0.000526676 -0.000296756,0.000141193 -0.000640466,0.000213043 -0.0010338,0.000213043 -0.000431433,0 -0.000799872,-8.23766e-005 -0.00110448,-0.000245626 -0.000305779,-0.000163417 -0.000505789,-0.00037128 -0.000599862,-0.000623422 -9.42402e-005,-0.000253647 -0.000141193,-0.000611726 -0.000141193,-0.00107708l0 -0.000405199 0.00149648 0 0 0.000754256c0,0.000232593 2.10537e-005,0.000381639 6.28268e-005,0.000448309 4.31099e-005,6.53332e-005 0.000117633,9.9253e-005 0.000224739,9.9253e-005 0.000107273,0 0.000186977,-4.17731e-005 0.000239109,-0.000126656 5.23e-005,-8.37134e-005 7.85335e-005,-0.0002092 7.85335e-005,-0.00037529 0,-0.000364596 -4.96265e-005,-0.000603873 -0.000149047,-0.000716159 -0.000101926,-0.000112453 -0.000354236,-0.000299263 -0.000754089,-0.000561932 -0.000401189,-0.00026668 -0.000666699,-0.000458836 -0.000797366,-0.000579143 -0.00012933,-0.00012014 -0.000237773,-0.00028623 -0.000322823,-0.000497936 -8.62198e-005,-0.000211706 -0.000127993,-0.000482229 -0.000127993,-0.000811569 0,-0.000474543 5.99862e-005,-0.000822263 0.00018163,-0.00104182 0.000120307,-0.00021956 0.000316306,-0.00039083 0.000586829,-0.000514979 0.000270523,-0.000122813 0.000597356,-0.000185473 0.000980332,-0.000185473 0.000419569,0 0.000776312,6.78396e-005 0.00107039,0.000202516 0.00029542,0.000135846 0.000490082,0.000305779 0.000586829,0.000512306 9.54099e-005,0.00020519 0.00014253,0.000554246 0.00014253,0.001047l0 0.000244289zm-0.0170932 0.00548398l0.000922685 0.00619913 -0.00165071 0 -7.98702e-005 -0.00111484 -0.000578976 0 -9.54099e-005 0.00111484 -0.00166909 0 0.000819589 -0.00619913 0.00233178 0zm-0.000853509 0.00398633c-8.23766e-005,-0.000701789 -0.000163417,-0.00156967 -0.000245793,-0.00260096 -0.000163249,0.00118552 -0.000265343,0.00205206 -0.000305779,0.00260096l0.000551573 0zm0.00486607 -0.00398633l0 0.00124033 -0.000956772 0 0 0.00495881 -0.00161161 0 0 -0.00495881 -0.000954099 0 0 -0.00124033 0.00352248 0zm-0.000730696 0.00735942l-0.000716326 0.00619913 -0.00201397 0c-0.000184303,-0.000952762 -0.000346383,-0.00203502 -0.000486239,-0.00324661 -6.41635e-005,0.000517486 -0.000213043,0.00159974 -0.000448309,0.00324661l-0.00200244 0 -0.000720169 -0.00619913 0.00156582 0 0.000164753 0.00216301 0.000168596 0.00208732c5.88166e-005,-0.00107959 0.000206526,-0.00249636 0.000444299,-0.00425033l0.00167694 0c2.35601e-005,0.00018163 8.23766e-005,0.000862532 0.00017645,0.00204404l0.00017645 0.00235534c8.88932e-005,-0.00149782 0.00023794,-0.00296556 0.000446973,-0.00439938l0.00156716 0zm0.00400471 0.00362942c0,0.000623589 -1.437e-005,0.00106405 -4.31099e-005,0.00132287 -3.00767e-005,0.000259996 -0.000121476,0.000496599 -0.000275703,0.000710979 -0.000154226,0.00021438 -0.000363426,0.000378966 -0.000626096,0.000494093 -0.000262837,0.00011496 -0.000569953,0.00017244 -0.000918842,0.00017244 -0.000332013,0 -0.000629939,-5.48064e-005 -0.000894112,-0.000163249 -0.000265176,-0.00010861 -0.000476882,-0.000270523 -0.000637792,-0.000487576 -0.000160743,-0.000217053 -0.000256153,-0.000453489 -0.000287399,-0.000708472 -3.02438e-005,-0.000256153 -4.57834e-005,-0.000703126 -4.57834e-005,-0.00134108l0 -0.00105987c0,-0.000623422 1.437e-005,-0.00106388 4.44466e-005,-0.00132404 2.85728e-005,-0.000258826 0.00012014,-0.000495262 0.000275703,-0.000709642 0.000154226,-0.00021438 0.00036209,-0.000379133 0.000626096,-0.000494093 0.00026267,-0.00011496 0.000568616,-0.000172607 0.000918842,-0.000172607 0.000332013,0 0.000629939,5.49735e-005 0.000893945,0.000163417 0.000264006,0.000108443 0.000477049,0.000270523 0.000637959,0.000487576 0.000160576,0.000216886 0.000256153,0.000453489 0.000286062,0.000708305 3.14134e-005,0.00025632 4.57834e-005,0.000701956 4.57834e-005,0.00134108l0 0.00105987zm-0.00161144 -0.00203619c0,-0.000288903 -1.57067e-005,-0.000473206 -4.84568e-005,-0.000554246 -3.14134e-005,-7.97032e-005 -9.67466e-005,-0.00012014 -0.000196,-0.00012014 -8.4883e-005,0 -0.000149047,3.25831e-005 -0.000193493,9.79162e-005 -4.56163e-005,6.41635e-005 -6.78396e-005,0.00025632 -6.78396e-005,0.000576469l0 0.00289371c0,0.000360753 1.55396e-005,0.000582986 4.42795e-005,0.000666699 2.87399e-005,8.4883e-005 9.80833e-005,0.000126656 0.00020519,0.000126656 0.000109947,0 0.000179123,-4.82898e-005 0.000210537,-0.000145036 3.00767e-005,-9.80833e-005 4.57834e-005,-0.000328003 4.57834e-005,-0.000694103l0 -0.00284793zm0.00221264 -0.00159323l0.00114108 0c0.000760772,0 0.00127575,2.87399e-005 0.00154494,8.75565e-005 0.000269353,5.88166e-005 0.000488913,0.000209033 0.000658846,0.000449479 0.000169766,0.000241783 0.000254816,0.000626096 0.000254816,0.00115545 0,0.000482396 -6.01533e-005,0.000806556 -0.00018046,0.000972479 -0.000118803,0.000165923 -0.000355406,0.000265343 -0.000708305,0.000298093 0.000318813,7.95361e-005 0.000534529,0.000185473 0.000644309,0.000318813 0.00010861,0.000132003 0.000177786,0.000253647 0.000203853,0.000364596 2.75703e-005,0.000111117 4.06035e-005,0.000417063 4.06035e-005,0.000917672l0 0.001635 -0.00149665 0 0 -0.00205975c0,-0.000332013 -2.74032e-005,-0.000537203 -7.97032e-005,-0.000617073 -5.23e-005,-7.83664e-005 -0.000189483,-0.00011897 -0.000410379,-0.00011897l0 0.00279579 -0.00161294 0 0 -0.00619913zm0.00161294 0.00105987l0 0.00137885c0.00018046,0 0.000307116,-2.47297e-005 0.000380303,-7.43562e-005 7.33536e-005,-4.96265e-005 0.00010978,-0.000211706 0.00010978,-0.000484903l0 -0.000339866c0,-0.000197336 -3.52565e-005,-0.000325496 -0.00010577,-0.000386819 -7.05131e-005,-6.14901e-005 -0.000198673,-9.29035e-005 -0.000384313,-9.29035e-005zm0.00645144 -0.00105987l-0.000922685 0.0027983 0.00101024 0.00340083 -0.00166508 0 -0.000650826 -0.00265711 0 0.00265711 -0.00161294 0 0 -0.00619913 0.00161294 0 0 0.00240881 0.000714822 -0.00240881 0.00151352 0zm0.00340485 0l-0.000253479 0.0046674 -0.00119471 0 -0.00025231 -0.0046674 0.0017005 0zm-0.000126823 0.00495881l0 0.00124033 -0.00144685 0 0 -0.00124033 0.00144685 0zm-0.0366947 -0.014206c-0.000440623,0 -0.0016335,-2.05524e-005 -0.00171721,-0.000334018 0.000166591,-3.85984e-005 0.000160743,-9.52428e-005 0.000333851,-9.52428e-005l0.000143031 0c0.000226076,0 0.00119688,0.000321152 0.00124033,0.000429261zm-0.00028623 0.00881079l0 -3.37527e-005c0.000406369,-3.39198e-005 0.000858689,-0.000583153 0.000858689,-0.00100172 0,-0.000266178 -0.000381639,-0.000512807 -0.000381639,-0.000667869 0,-0.000867043 -0.000334018,-0.00059485 -0.000334018,-0.00128778 -0.000613397,-0.000916169 -0.00179307,-0.00101408 -0.00210553,-0.001437l0.000102094 -0.000137183c0.000411215,9.5744e-005 0.00076378,0.000238608 0.00124033,0.000238608l0.000667869 0c0.000510468,0 0.000633448,-0.000766287 0.000346717,-0.00111016 -0.000113122,-0.000135512 -0.000823766,-0.000922685 -0.000823766,-0.000988687l0 -0.000143365c0,-0.000182298 -1.47041e-005,-1.72105e-005 4.76214e-005,-0.000143031 0.000482229,0.000128661 0.00168613,0.00200361 0.00243287,0.00200361l9.54099e-005 0c0.000113957,0 0.00117182,-0.000749076 0.00133557,-0.000858856 7.51917e-005,5.51405e-005 0.000143198,0.000110782 0.000143198,0.000238608 0,0.000246462 -0.000620248,0.00108978 -0.000620248,0.00152656l0 9.52428e-005c0,0.000482563 0.000572292,0.00104299 0.000953931,0.00114475l0 0.000238608c-0.000253814,6.78396e-005 -0.000314969,0.000236937 -0.000599695,0.000306615 -0.000308787,7.53587e-005 -0.000406035,0.000170602 -0.000735709,0.000170602 -0.000364262,0.000243621 -0.000858689,0.000499941 -0.000858689,0.00109696 0,0.000241783 0.000157568,0.00071549 0.000381639,0.00071549 0.000231423,0 0.00169482,-0.000914665 0.00196618,-0.0010866 0.000267682,-0.000169599 0.000656173,-0.000459003 0.000849833,-0.000676558 0.000238274,-0.000267014 0.000317476,-0.000706467 0.000620081,-0.000908315l-4.92923e-005 -0.00100155 -2.5231e-005 -0.000187979 -0.000212375 -0.00239043 -0.000144201 -4.5115e-005c-1.32003e-005,-0.000595518 -0.000287232,-0.000638294 -0.000666699,-0.000859357 -0.000213544,-0.000124484 -0.000835296,-0.000402192 -0.00108944,-0.000484903 -0.000167928,-5.48064e-005 -0.000427089,-6.88421e-005 -0.000629772,-0.000133674 -0.000184804,-5.89837e-005 -0.000371781,-0.00016609 -0.000577472,-0.000233261 -0.000302438,-9.89188e-005 -0.000862365,-0.00038047 -0.00118652,-0.000387655 -0.000227747,-0.00043043 -0.000604541,3.4254e-005 -0.00071549,-0.000381639 0.000157902,0 0.0012958,0.000218223 0.00140441,0.000265176 0.000414222,0.000179457 0.000823265,0.000304777 0.0012958,0.000421575 0.000599027,0.000147877 0.00203418,0.000692264 0.00224405,0.00114275 0.000257323,0.000552575 0.000398349,0.00214196 0.000398349,0.00298845 0,0.000481059 -7.55258e-005,0.00124451 4.02693e-005,0.00162899 0.000115127,0.000382308 0.000400855,0.000851504 0.000866041,0.000851504l4.76214e-005 0c0.000430932,0 0.000236937,-0.000934716 0.000238608,-0.00138353 2.1722e-006,-0.000565775 -1.67093e-007,-0.00103079 -1.67093e-007,-0.0016218l0 -0.00157401c0,-0.000644643 -0.000231924,-0.00170117 -0.000353568,-0.00231774 -0.000211873,-0.00107424 -0.000570788,-0.000936053 -0.00126823,-0.00140308 -0.000444299,0 -0.000872724,-0.000146707 -0.001243,-0.000187979 -0.000388657,-4.31099e-005 -0.00105736,-2.84057e-006 -0.00147593,-2.84057e-006 -0.000492923,0 -0.000985846,0 -0.00147877,0 -0.000565608,0 -0.000981335,-8.63869e-005 -0.00138336,-9.54099e-005l6.6837e-007 -0.000136682 0.00109646 -0.000101759 0.00343459 0c0.00245726,0 0.00286196,0.00150149 0.00285528,0.00391732l0.000122646 0.000137684 -2.05524e-005 0.000858355 0 0.00019082c0,0.0012801 -0.000145203,0.002552 0.00128795,0.0024327 2.48968e-005,-0.000107106 4.76214e-005,-0.00010978 4.76214e-005,-0.000238608l0 -0.000334018c0,-0.000553076 -0.000199007,-0.000589335 -0.000105435,-0.00120257 6.33281e-005,-0.000415559 6.26597e-005,-0.000892441 -8.68881e-006,-0.00130666 -0.00013334,-0.000775309 -0.000170267,-0.00173793 -0.000341871,-0.0024723 -0.000177954,-0.000761608 -0.00015573,-0.00173726 -0.000434608,-0.00238007 -0.000379467,-0.000875565 -0.00070112,-0.000943906 -0.00187528,-0.000989021 -0.000778818,-2.99096e-005 -0.00178889,0.000146206 -0.00267198,0.000146206 -0.00100022,0 -0.00175263,0.00019483 -0.00267131,0.000190653 -0.000653666,-3.00767e-006 -0.00184286,0.000230086 -0.00245175,0.000362591 -0.000289906,6.29939e-005 -0.000868714,0.00024195 -0.00105937,0.000371447 -0.000452988,0.00030745 -0.000365766,0.000384814 -0.000638795,0.00079252 0,0.000402693 -0.00019082,0.000786505 -0.00019082,0.00124033l-2.32259e-005 0.000192992 0.000452487 0.00462479 0 4.76214e-005c0,0.000697779 -0.000238441,0.00096379 -0.000238441,0.0016218l0 0.000286397c0,0.000356241 0.000224907,0.000877236 0.000371113,0.00110749 0.000136849,0.000215382 0.000546727,0.000682072 0.00082126,0.000704964l0 4.77885e-005 0.00262369 -1.40358e-005zm0.00863401 -0.0086198l0 0.000763112c0,0.000806389 0.00145504,0.00171721 0.00224171,0.00171721l0.000429595 0c0.000799705,0 0.000852339,-0.000287566 0.000720336,-0.000959111 -4.29428e-005,-0.000219393 -0.000707804,-0.000996707 -0.000911323,-0.000996707 -0.000106939,0 -0.0001046,3.793e-005 -0.000190653,9.54099e-005 0,0.000522164 0.000203352,0.00106973 -4.79556e-005,0.00143098 -0.000130499,-0.000560596 -0.000149381,-0.00107307 -0.000246462,-0.00166123 -5.53076e-005,-0.000335522 -0.000617908,-0.000962286 -0.000945911,-0.000962286l-0.000429261 0c-0.00026267,0 -0.000620081,0.000296088 -0.000620081,0.000572626zm-0.00868163 -0.0165047l0 4.77885e-005c0,0.000343375 0.000238274,0.000832121 0.000238274,0.0014786l0 0.000334018c0,0.000999882 -0.000243788,0.0019864 -0.000238942,0.00305228 3.00767e-006,0.000614399 -3.52565e-005,0.00103915 -9.60782e-005,0.00157351 -5.98191e-005,0.000528514 -0.000284893,0.000739719 -0.000284893,0.00138453 0,0.000269687 0.000373285,0.000621417 0.000572292,0.000667702l0 0.000190987c0,0.000182131 1.47041e-005,1.73776e-005 -6.29939e-005,0.000161077l-0.000643641 -0.000491586 -5.64773e-005 0.000139522c7.71968e-005,0.000330676 0.000572459,0.000827944 0.000572459,0.00100172 0,0.000132003 -3.69275e-005,0.000114793 -0.000143198,0.000143031l2.74032e-005 -4.41124e-005 -0.000410379 -0.000244456 -0.000197503 9.84175e-005 0.000103597 0.00176466 0 4.74543e-005c0,0.000712483 -0.000286397,0.00110064 -0.000286397,0.00162197l0 0.000143031c0,9.54099e-005 0.000123147,0.000188146 0.000143198,0.000429261 0.000106939,2.50639e-005 0.00010978,4.77885e-005 0.000238441,4.77885e-005l0.000377295 -2.95754e-005 0.00163433 -0.000251976 -8.18754e-006 -5.24671e-005 0.000187478 -7.18498e-006 0.00024195 -8.82249e-005c9.12325e-005,-0.000391832 0.000344211,-0.000651995 0.000441124,-0.00122813 7.97032e-005,-0.000473707 0.000178956,-0.000966296 0.000178956,-0.00153859l-3.84313e-006 -0.000428927 -0.000186809 -0.00243303c-1.85473e-005,-0.000225074 0.000190653,-0.000585492 0.000190653,-0.00100172 0,-0.000910153 -0.00042876,-0.00161261 -0.000428258,-0.00276789 3.34185e-007,-0.000341704 -0.000121643,-0.00101592 -0.000144201,-0.00142998 -2.94083e-005,-0.000539041 -0.000238608,-0.00105853 -0.000238608,-0.00138319 -0.000308286,-0.000206526 -0.000144368,-0.000259495 -0.000284559,-0.000526342 -3.62591e-005,-6.91763e-005 -0.000307785,-0.000340033 -0.00038565,-0.000425251 -0.000193326,-0.000210871 -0.00104683,-0.000518822 -0.00104683,4.52821e-005zm0.00777532 -0.00438852c0,0.00101809 -0.000874897,0.001765 -0.00181279,0.001765l-0.000763279 0c-0.000477216,0 -0.00117583,-0.000266178 -0.00155697,-0.000222233 -0.000389493,4.46137e-005 -0.000637124,0.000748742 -0.000637124,0.00117616l0 0.000238608c0,0.000512974 0.000858522,0.000292412 0.000858522,0.0008109l0 0.00019082c0,0.000145538 -4.57834e-005,0.000192324 -9.54099e-005,0.00028623 -0.000355406,-8.28779e-005 -0.000323992,-0.000572459 -0.00100172,-0.000572459l-0.000190653 0c-0.000185139,0 -0.000477049,6.33281e-005 -0.000477049,0.000238441 0,0.000154561 0.000214547,0.000513141 0.000286062,0.000620248 0,0.000600196 -2.43955e-005,0.000754089 0.000487075,0.000848496 0.000402192,7.43562e-005 0.000707971,0.000160576 0.000906477,0.000429261 0.000197503,0.000267348 0.000284726,0.000549735 0.000505622,0.000829949 0.000341704,0.000433104 0.000413053,0.000292245 0.000962954,0.000420572l0 0.000238274c-0.000445636,0.000103764 -0.000594682,0.000314301 -0.00110365,0.000150049 -0.000339365,-0.000109613 -0.000748575,-0.000341036 -0.00109061,-0.000341036l-4.76214e-005 0c-0.000228081,0 -0.000296422,5.43051e-005 -0.000417397,0.000145203l-5.9652e-005 0.000379634c-6.83409e-005,0.000427089 0.000204187,0.000858689 0.000667702,0.000858689l4.91252e-005 1.21978e-005 0.000571289 -5.99862e-005c6.19913e-005,-4.1606e-005 0.000992196,-0.000476882 0.00100155,-0.000476882l9.52428e-005 0c0.000111952,0 0.000190987,7.90348e-005 0.000190987,0.000190653 0,0.000978661 -0.00214647,0.000473373 -0.00214647,0.00262369l0 4.77885e-005c0,0.000651995 0.000146707,0.00113255 0.000189149,0.0016746 3.69275e-005,0.000473206 -0.000332347,0.00109663 -0.000332347,0.00156883l0 0.000143198c0,0.000271024 0.000110615,0.000524671 0.000381472,0.000524671l9.54099e-005 0c0.000147376,0 0.000725516,-0.000434775 0.000850167,-0.000533025 0.000317643,-0.000250973 0.000529516,-0.00031664 0.00084883,-0.000534529 0.000536868,-0.000366601 0.00110816,-0.000809396 0.0015568,-0.00125787 0.000343375,-0.000343542 0.00103932,-0.00108126 0.00125202,-0.00151453 0.00017244,-0.000350894 0.000311293,-0.000510301 0.000472204,-0.000910989 7.11814e-005,-0.000176784 0.000351563,-0.000932878 0.000410379,-0.00102094 0,-0.000428091 0.00019082,-0.000751749 0.000192825,-0.00109512 2.3393e-006,-0.00048791 9.32377e-005,-0.000759269 9.32377e-005,-0.00124217l2.62335e-005 -0.000860025 -0.000216886 -0.00329005 0 -9.52428e-005c0,-0.000722007 0.000154394,-0.00248049 -0.000620248,-0.00248049l-0.000143031 0c-0.000139355,0 -5.12974e-005,4.01022e-005 -0.000238441,9.54099e-005z"/>
  <path class="fil1" d="M0.017127 0l0.0501278 0 1.16965e-006 0 0 1.67093e-006c0.00471769,3.34185e-007 0.00899961,0.0019234 0.0121005,0.00502447 0.00310057,0.00310074 0.00502297,0.00738165 0.00502364,0.0120983l1.67093e-006 0 0 2.50639e-006 0 0.0501278 0 1.16965e-006 -1.67093e-006 0c-3.34185e-007,0.00471769 -0.0019234,0.00899961 -0.00502447,0.0121005 -0.00310074,0.00310057 -0.00738165,0.00502297 -0.0120983,0.00502364l0 1.67093e-006 -2.50639e-006 0 -0.0501278 0 -1.16965e-006 0 0 -1.67093e-006c-0.00471769,-3.34185e-007 -0.00899961,-0.0019234 -0.0121005,-0.00502447 -0.00310057,-0.00310074 -0.00502297,-0.00738165 -0.00502364,-0.0120983l-1.67093e-006 0 0 -2.50639e-006 0 -0.0501278 0 -1.16965e-006 1.67093e-006 0c3.34185e-007,-0.00471769 0.0019234,-0.00899961 0.00502447,-0.0121005 0.00310074,-0.00310057 0.00738165,-0.00502297 0.0120983,-0.00502364l0 -1.67093e-006 2.50639e-006 0zm0.0501278 0.000835463l-0.0501278 0 -2.50639e-006 0 0 -1.67093e-006c-0.00448359,5.01278e-007 -0.00855564,0.00183067 -0.0115075,0.00478236 -0.00295219,0.00295202 -0.00478302,0.00702507 -0.00478319,0.0115097l1.67093e-006 0 0 1.16965e-006 0 0.0501278 0 2.50639e-006 -1.67093e-006 0c5.01278e-007,0.00448359 0.00183067,0.00855564 0.00478236,0.0115075 0.00295202,0.00295219 0.00702507,0.00478302 0.0115097,0.00478319l0 -1.67093e-006 1.16965e-006 0 0.0501278 0 2.50639e-006 0 0 1.67093e-006c0.00448359,-5.01278e-007 0.00855564,-0.00183067 0.0115075,-0.00478236 0.00295219,-0.00295202 0.00478302,-0.00702507 0.00478319,-0.0115097l-1.67093e-006 0 0 -1.16965e-006 0 -0.0501278 0 -2.50639e-006 1.67093e-006 0c-5.01278e-007,-0.00448359 -0.00183067,-0.00855564 -0.00478236,-0.0115075 -0.00295202,-0.00295219 -0.00702507,-0.00478302 -0.0115097,-0.00478319l0 1.67093e-006 -1.16965e-006 0z"/>
 </g>
</svg>
