<?xml version="1.0" encoding="UTF-8"?>
<!DOCTYPE svg PUBLIC "-//W3C//DTD SVG 1.1//EN" "http://www.w3.org/Graphics/SVG/1.1/DTD/svg11.dtd">
<!-- Creator: CorelDRAW -->
<svg xmlns="http://www.w3.org/2000/svg" xml:space="preserve" width="1.98819in" height="1.98819in" style="shape-rendering:geometricPrecision; text-rendering:geometricPrecision; image-rendering:optimizeQuality; fill-rule:evenodd; clip-rule:evenodd"
viewBox="0 0 0.102261 0.102261"
 xmlns:xlink="http://www.w3.org/1999/xlink">
 <defs>
  <style type="text/css">
   <![CDATA[
    .fil1 {fill:black}
    .fil0 {fill:#333333;fill-rule:nonzero}
   ]]>
  </style>
 </defs>
 <g id="Layer_x0020_1">
  <metadata id="CorelCorpID_0Corel-Layer"/>
  <path class="fil0" d="M0.0207558 0l0.0607488 0 1.41747e-006 0 0 2.02496e-006c0.00571727,4.04992e-007 0.0109064,0.00233093 0.0146644,0.00608906 0.00375752,0.00375772 0.00608723,0.00894567 0.00608804,0.0146617l2.02496e-006 0 0 3.03744e-006 0 0.0607488 0 1.41747e-006 -2.02496e-006 0c-4.04992e-007,0.00571727 -0.00233093,0.0109064 -0.00608906,0.0146644 -0.00375772,0.00375752 -0.00894567,0.00608723 -0.0146617,0.00608804l0 2.02496e-006 -3.03744e-006 0 -0.0607488 0 -1.41747e-006 0 0 -2.02496e-006c-0.00571727,-4.04992e-007 -0.0109064,-0.00233093 -0.0146644,-0.00608906 -0.00375752,-0.00375772 -0.00608723,-0.00894567 -0.00608804,-0.0146617l-2.02496e-006 0 0 -3.03744e-006 0 -0.0607488 0 -1.41747e-006 2.02496e-006 0c4.04992e-007,-0.00571727 0.00233093,-0.0109064 0.00608906,-0.0146644 0.00375772,-0.00375752 0.00894567,-0.00608723 0.0146617,-0.00608804l0 -2.02496e-006 3.03744e-006 0zm0.0607488 0.00101248l-0.0607488 0 -3.03744e-006 0 0 -2.02496e-006c-0.00543358,6.07488e-007 -0.0103684,0.00221855 -0.0139457,0.00579564 -0.0035777,0.0035775 -0.00579645,0.00851354 -0.00579665,0.0139483l2.02496e-006 0 0 1.41747e-006 0 0.0607488 0 3.03744e-006 -2.02496e-006 0c6.07488e-007,0.00543358 0.00221855,0.0103684 0.00579564,0.0139457 0.0035775,0.0035777 0.00851354,0.00579645 0.0139483,0.00579665l0 -2.02496e-006 1.41747e-006 0 0.0607488 0 3.03744e-006 0 0 2.02496e-006c0.00543358,-6.07488e-007 0.0103684,-0.00221855 0.0139457,-0.00579564 0.0035777,-0.0035775 0.00579645,-0.00851354 0.00579665,-0.0139483l-2.02496e-006 0 0 -1.41747e-006 0 -0.0607488 0 -3.03744e-006 2.02496e-006 0c-6.07488e-007,-0.00543358 -0.00221855,-0.0103684 -0.00579564,-0.0139457 -0.0035775,-0.0035777 -0.00851354,-0.00579645 -0.0139483,-0.00579665l0 2.02496e-006 -1.41747e-006 0z"/>
  <path class="fil1" d="M0.0125139 0.0404751c0.000813224,-6.76337e-005 0.00237325,-0.000717039 0.00340153,-0.00092075 0.000862228,-0.000170502 0.0028797,-0.000623485 0.00377554,-0.000623485l0.00169793 0c0.003148,0 0.00637336,0.00204521 0.00765314,0.003975l0.00276508 -0.00104083c-0.000483156,-0.000913662 -0.00267396,-0.0023852 -0.00367166,-0.00296677 -0.00125183,-0.000729593 -0.00346916,-0.00127998 -0.00543459,-0.00127998 -0.00185466,0 -0.00420038,0.000392032 -0.00558079,0.000902322 -0.00103374,0.00038211 -0.00399079,0.00141929 -0.00460618,0.00195449zm0.0200651 0.00980587c0.00143003,0 0.00412484,0.000710559 0.00544816,0.00103475 0.000814439,0.000199459 0.001655,0.000544512 0.00239998,0.000841776 0.000312654,0.000124738 0.00216387,0.00105743 0.00218433,0.00105743 0.000148632,0 0.00118258,-0.000426862 0.00162058,-0.000463311 -0.000198649,-0.000744376 -0.00396811,-0.00179067 -0.00506058,-0.00204035 -0.00187511,-0.000428482 -0.00432795,-0.000507658 -0.00659246,-0.000507658l0 7.73535e-005zm0.0436539 -0.00874844l0.0166312 -3.72593e-005c0,0 4.63716e-005,0.0162928 4.63716e-005,0.0162928l-0.0103725 3.01719e-005c-0.0003975,0.000602021 -0.00140978,0.00200876 -0.00141727,0.00203671 -0.000432329,-3.58418e-005 -0.00373079,-0.00293397 -0.00447597,-0.00293397 -0.000162199,0 -0.00161005,0.00171717 -0.00196016,0.00197677 -0.000211406,0.000156529 -0.00218736,0.00170218 -0.00219445,0.00171798l0.00268814 0.00309981c-0.000333511,-2.7742e-005 -0.0020122,-0.00154687 -0.00240505,-0.00184028 -0.000841371,-0.000628143 -0.00158008,-0.00120364 -0.00245688,-0.00178865 -0.000534387,-0.000356596 -0.00236677,-0.00143671 -0.00386281,-0.00214079l-0.00232324 0c0.000603641,0.000456426 0.00175625,0.00108275 0.00204967,0.00126074 0.000809174,0.000491053 0.00176982,0.00112446 0.00242104,0.00174693 0.00091751,0.00087701 0.00343109,0.00336609 0.00372188,0.00461509 -0.000352748,-0.000127775 -0.00173883,-0.00165601 -0.00229995,-0.00202253 -0.000456426,-0.000298074 -0.000707724,-0.000586429 -0.00125224,-0.000909005 -0.000488016,-0.000289367 -0.000938164,-0.000455414 -0.00146364,-0.000697599 -0.0014357,-0.000661352 -0.00599166,-0.000462906 -0.00825779,-0.000462906 -0.00319316,0 -0.00521994,-0.000306984 -0.00748608,-0.00123523 -0.00111029,-0.000454806 -0.00500165,-0.00255307 -0.00524769,-0.00347463 0.000508265,-0.00011846 0.00131481,-0.000694966 0.00177508,-0.000694966 1.09348e-005,0 0.00228476,0.00147559 0.00259134,0.00165399 0.000825779,0.000480928 0.00255064,0.000873366 0.0030423,0.00120283l0.00246964 0.000231655 0.000154302 0c0.000573671,0 0.00162058,-0.000346673 0.00162058,-0.000849268 0,-0.000122105 -2.59195e-005,-0.000244008 -7.39111e-005,-0.0003651l-0.000253525 0 -1.61997e-006 -0.000417547c-0.00105136,-0.00128787 -0.00436075,-0.00238318 -0.00599915,-0.00238318l-0.000926015 0c-0.00162503,0 -0.00519504,0.000947074 -0.00642804,0.0014444 -0.000717849,0.000289569 -0.0022874,0.000708331 -0.00306883,0.000867493 -0.000567394,0.000115625 -0.00104204,0.000254538 -0.00164589,0.000360848 -0.000224568,3.94867e-005 -0.00171231,0.000261422 -0.00174531,0.000261422l-0.00401286 0c-0.00038616,0 -0.00275617,-0.000515352 -0.00320855,-0.00065062 -0.00109145,-0.000326626 -0.00182955,-0.000712786 -0.00276043,-0.00117589 -0.00155254,-0.000772522 -0.00319417,-0.00226026 -0.00457317,-0.00330008 -0.00145129,-0.00109429 -0.00276306,-0.00242773 -0.00424432,-0.00355198 -0.000800062,-0.000607083 -0.00149462,-0.00103496 -0.00244797,-0.00148855 -0.000529527,-0.000251905 -0.00237204,-0.000874176 -0.00307146,-0.000862836l-0.000219708 -0.000188119 -0.00393835 -0.000440834c0.000288152,-0.00039345 0.00594063,-0.000772117 0.00709992,-0.000772117l0.000154302 0c0.00162807,0 0.00324378,0.000176172 0.00459869,0.000495103 0.00177063,0.000416939 0.00238054,0.000722911 0.00385978,0.00131136 0.000830639,0.000330474 0.00244008,0.00150596 0.0030988,0.00207295 0.000469588,0.000404182 0.00235786,0.00219445 0.00248827,0.00268348 -0.000180019,-4.81941e-005 -0.00206404,-0.00158413 -0.00246944,-0.00185304 -0.000426659,-0.000283089 -0.00239148,-0.00146708 -0.00293255,-0.00146708l-0.000694562 0c-0.000143367,0 -0.000463108,0.000191156 -0.000463108,0.00038616l0 0.000154302c0,0.000992838 0.00285114,0.00333876 0.00362691,0.00386079 0.000906372,0.000610121 0.00398917,0.00208449 0.00541171,0.00207336l0.000222138 0.000165642c0.000425444,0 0.00146627,0.000162199 0.00146627,-0.00038616l0 -0.000154302c0,-0.000686664 -0.00207619,-0.00182449 -0.00251642,-0.00242388 -0.000569621,-0.000774952 -0.00186944,-0.00185385 -0.00211386,-0.00290379 0.000508468,0.000340598 0.00106067,0.00112345 0.00166695,0.00157501 0.000638268,0.000475663 0.00120526,0.000986156 0.00193343,0.00138568 0.0014766,0.000810187 0.00302205,0.0013632 0.00527441,0.0013632l0.00108052 0c0.00274544,0 0.00956936,-0.00237447 0.00956936,-0.00455555 0,-0.00122308 -0.00194781,-0.00108092 -0.00301901,-0.00109206l-0.000222138 0.000165642c-0.000707116,0 -0.00219546,0.000522035 -0.00301577,0.000688892 -0.000998913,0.000203306 -0.00228294,0.000314881 -0.00346673,0.000314881l-0.000308806 0c-0.00210616,0 -0.00330636,-0.000503405 -0.0046811,-0.00126196 -0.00088025,-0.000485788 -0.00293761,-0.00187491 -0.00342198,-0.00259863 0.000203306,-9.76031e-005 0.00329967,-0.00115828 0.0033183,-0.00115828 7.08736e-006,0 0.0017439,0.00113155 0.00211446,0.001282 0.000539855,0.000219101 0.00201544,0.000725543 0.00267032,0.000725543l0.000540259 0c0.00148328,0 0.00447597,-0.000439821 0.00447597,-0.00169854l0 -0.000231655c0,-0.00129618 -0.00234936,-0.0023935 -0.00362711,-0.0023935l-0.00115767 0c-0.00139803,0 -0.00419126,0.00146384 -0.00556844,0.00191825 -0.00162321,0.000535602 -0.00399403,0.00147903 -0.0060846,0.00147903l-0.00131197 0c-0.00168213,0 -0.00385269,-0.000908397 -0.00493706,-0.00154646 -0.000587239,-0.000345458 -0.00342036,-0.00243886 -0.00355198,-0.00293194 0.000569824,0.000132837 0.00250326,0.00125527 0.00342623,0.00159081 0.000473841,0.000172324 0.00140492,0.000552207 0.00183806,0.000631788 0.000404587,7.43161e-005 0.00185405,0.000402765 0.00214423,0.000402765l0.00154363 0c0.00216752,0 0.0056219,-0.00172263 0.00703836,-0.00260957 0.00164427,-0.00102989 0.00418458,-0.00302691 0.00662122,-0.00302691l0.00100641 -3.07794e-005 0.00184899 0.000185284c0.000197434,0.000132027 0.00289306,0.000874581 0.00349771,0.00113317 0.000818692,0.000350318 0.00254801,0.00110583 0.00361152,0.00109469l0.000224366 0.000144785 0.00192716 0.000175159 0.000233478 3.09819e-005 0.00301719 -0.000174147 0.000233073 -0.000114208 0.00278432 -0.000589061 -1.82246e-005 -9.84131e-005 -0.00177366 9.55781e-005c-0.00119473,7.4721e-005 -0.00374111,-0.000203104 -0.00459767,-0.000496115 -0.000798037,-0.000272965 -0.00323629,-0.00111535 -0.00358276,-0.00158858 0.000583796,1.29597e-005 0.00192878,0.000540462 0.00277825,0.000540462l0.00270109 0c0.00147134,0 0.00413477,-0.000710761 0.00547023,-0.00101268 0.00165743,-0.000374618 0.00385856,-0.000685854 0.00587421,-0.000685854 0.00238034,0 0.00455495,0.000342218 0.00642176,0.000832866 0.00114228,0.000300302 0.00177751,0.000410662 0.00281389,0.000813629 0.00050624,0.000196624 0.00234531,0.000946872 0.0027262,0.000978663l0 0.000154302c-0.000746603,0 -0.00233397,-0.000521022 -0.00324135,-0.000540462 -0.000507455,-1.09348e-005 -0.00108902,-0.000228011 -0.00169489,-0.00023449 -0.000667427,-7.08736e-006 -0.00112568,-7.43161e-005 -0.00185507,-7.43161e-005l-0.00146627 0c-0.000829221,0 -0.00151285,3.36143e-005 -0.00185223,0.000540462 0.000463108,0.000691929 0.00151386,0.000546334 0.00245445,0.000787305 0.000719469,0.000184271 0.00193566,0.000372188 0.00260086,0.000640698 0.000731821,0.000295442 0.00171251,0.000472626 0.00249131,0.000750248 0.00015086,5.3864e-005 0.000332701,0.00011927 0.00053054,0.000191764l2.02496e-007 0zm-0.018611 0.0112189l-4.45491e-006 -0.00116962c-0.000201484,0.000367733 -0.000416332,0.000744578 -0.000497533,0.00109267 0.000142557,3.23994e-006 0.000313869,3.17919e-005 0.000501988,7.69485e-005zm-1.19473e-005 -0.00313788l-1.07323e-005 -0.00287463 -0.00217704 -0.000164022 0 0.00154423c0,0.000421394 -0.000154302,0.000427672 -0.000154302,0.000849268l0 0.000231655c0.000319134,0 0.00154808,0.000287544 0.00234207,0.000413497zm-1.96421e-005 -0.00523776l-8.09984e-006 -0.00214524c-0.000788722,9.67931e-005 -0.00182773,0.000174957 -0.00246863,0.000174957 -0.000139317,9.33507e-005 -0.000135672,0.000154302 -0.000308806,0.000154302l-0.000385755 0c6.68237e-006,0.000302934 0.000513935,0.00185304 0.000771713,0.00185304l0.000463513 1.90346e-005 0.00193606 -5.60914e-005zm0.00343575 0.00149847l0.00922694 -3.94867e-005 1.53897e-005 0.00193323 -0.00372471 7.8771e-005 0 0.00564134 -0.0017927 -3.92842e-005 0 -0.00564154 -0.0037403 0 1.53897e-005 -0.00193303zm-0.00234916 0.0104148c0,0 0.0119007,0 0.0119007,0 0,0 1.53897e-005,-0.00867898 1.53897e-005,-0.00867898 0,0 -9.27432e-005,-0.00138062 0.00122105,-0.00165682 0,0 0.00726414,-3.94867e-005 0.00726414,-3.94867e-005 0,0 0.000772725,0.000197231 0.000819097,0.002012 0,0 -1.55922e-005,0.00232749 -0.00088106,0.00248523 0,0 -0.00540948,0.000157947 -0.00540948,0.000157947 0,0 -0.000309009,0.000197231 1.55922e-005,0.000552207 0,0 0.003261,0 0.003261,0 0,0 0.00143752,3.94867e-005 0.0017929,0.000710154 0,0 0.000370973,0.00063118 0.000432734,0.000986156 0,0 0.00106655,0.00335333 0.00106655,0.00335333 0,0 0.0116379,0 0.0116379,0 0,0 1.53897e-005,-0.0130187 1.53897e-005,-0.0130187 0,0 -0.0331363,7.89735e-005 -0.0331363,7.89735e-005 0,0 -6.19638e-005,0.013058 -6.19638e-005,0.013058 0,0 4.63716e-005,0 4.63716e-005,0l0 0zm0.0216995 -0.0104938c0,0 0.00778942,-3.94867e-005 0.00778942,-3.94867e-005 0,0 0.00108194,7.89735e-005 0.00128281,0.00216995 0,0 1.53897e-005,0.00331385 1.53897e-005,0.00331385 0,0 -0.000509885,0.00224852 -0.00159182,0.00224852 0,0 -0.0074958,-3.92842e-005 -0.0074958,-3.92842e-005 0,0 0,-0.00765354 0,-0.00765354zm0.00148369 0.00216995c0,0 0.00576486,0 0.00576486,0 0,0 0.000401752,0.000118258 0.000417142,0.000828411 0,0 1.55922e-005,0.00185405 1.55922e-005,0.00185405 0,0 -9.27432e-005,0.000828411 -0.000417344,0.00074964 0,0 -0.00576486,-3.94867e-005 -0.00576486,-3.94867e-005 0,0 -1.53897e-005,-0.00339262 -1.53897e-005,-0.00339262z"/>
 </g>
</svg>
