<?xml version="1.0" encoding="UTF-8"?>
<!DOCTYPE svg PUBLIC "-//W3C//DTD SVG 1.1//EN" "http://www.w3.org/Graphics/SVG/1.1/DTD/svg11.dtd">
<!-- Creator: CorelDRAW -->
<svg xmlns="http://www.w3.org/2000/svg" xml:space="preserve" width="1in" height="2in" style="shape-rendering:geometricPrecision; text-rendering:geometricPrecision; image-rendering:optimizeQuality; fill-rule:evenodd; clip-rule:evenodd"
viewBox="0 0 0.0420603 0.0500228"
 xmlns:xlink="http://www.w3.org/1999/xlink">
 <defs>
  <style type="text/css">
   <![CDATA[
    .fil0 {fill:#DA251D}
   ]]>
  </style>
 </defs>
 <g id="Layer_x0020_1">
  <metadata id="CorelCorpID_0Corel-Layer"/>
  <path class="fil0" d="M0.031763 0.0257961c0,0.00012015 -0.000186109,0.000180909 -0.00055559,0.000180909l-0.000207183 0 -0.00347641 0 -0.000210194 0c-0.000393292,0 -0.000587338,-6.29486e-005 -0.000587338,-0.000190214 2.7369e-007,-8.75807e-005 0.000111665,-0.00014834 0.000334996,-0.000180909 0.000212657,-2.79163e-005 0.000345396,-5.58327e-005 0.000396029,-8.3749e-005 4.51588e-005,-2.35373e-005 6.65066e-005,-8.07384e-005 6.65066e-005,-0.00016914l0 -0.00342003c0,-8.86754e-005 -2.13478e-005,-0.00014834 -6.65066e-005,-0.00017653 -5.03589e-005,-2.29899e-005 -0.000183372,-5.118e-005 -0.000396029,-8.3749e-005 -0.000223331,-2.79163e-005 -0.000334996,-8.62122e-005 -0.000334996,-0.000173793 2.7369e-007,-0.000126992 0.000194046,-0.000190214 0.000587338,-0.000190214l0.000210194 0 0.00347641 0 0.000207183 0c0.000369481,0 0.00055559,6.04854e-005 0.00055559,0.000180635 0,9.36018e-005 -0.000100991,0.000155456 -0.000302974,0.000183372l-0.000239205 3.39375e-005c-0.00014615,2.43584e-005 -0.000220594,9.8802e-005 -0.000220594,0.000226341l0 0.00342003c0,0.000126992 7.44436e-005,0.000201709 0.000220594,0.000226068l0.000239205 3.39375e-005c0.000201983,2.79163e-005 0.000302974,8.97702e-005 0.000302974,0.000183098zm0.00540592 -9.30545e-006c0,0.000127266 -0.000196783,0.000190214 -0.000590075,0.000190214l-0.000207183 0 -0.00349255 0 -0.000204446 0c-0.000364281,0 -0.000544916,-6.07591e-005 -0.000544916,-0.000180909 0,-8.86754e-005 9.55177e-005,-0.000150529 0.0002871,-0.000183098l0.000257816 -3.39375e-005c0.00014615,-2.43584e-005 0.000220594,-9.90756e-005 0.000220594,-0.000226068l0 -0.00155264 -0.00125979 0 0 -0.000377965 0.00125979 0 0 -0.00148942c0,-0.000127539 -7.44436e-005,-0.000201983 -0.000220594,-0.000226341l-0.000257816 -3.39375e-005c-0.000191583,-2.79163e-005 -0.0002871,-8.62122e-005 -0.0002871,-0.000173793 0,-0.000126992 0.000180635,-0.000190214 0.000544916,-0.000190214l0.000204446 0 0.00349255 0 0.000207183 0c0.000393566,0 0.000590075,6.32223e-005 0.000590075,0.000190214 0,8.75807e-005 -0.000106465,0.000145877 -0.000318848,0.000173793 -0.000223331,3.25691e-005 -0.000356344,6.07591e-005 -0.000401503,8.3749e-005 -5.03589e-005,2.819e-005 -7.69068e-005,8.78544e-005 -7.69068e-005,0.00017653l0 0.00342003c0,8.84017e-005 2.65479e-005,0.000145603 7.69068e-005,0.00016914 4.51588e-005,2.79163e-005 0.000178172,5.58327e-005 0.000401503,8.3749e-005 0.000212383,3.25691e-005 0.000318848,9.33282e-005 0.000318848,0.000180909zm-0.0155163 -5.74748e-006c0,0.00013055 -0.000228531,0.000195962 -0.000685592,0.000195962l-0.000252616 0 -0.00349228 0 -0.00020992 0c-0.000393292,0 -0.000587338,-6.29486e-005 -0.000587338,-0.000190214 0,-8.75807e-005 0.000111665,-0.00014834 0.000334722,-0.000180909 0.000212931,-2.79163e-005 0.00034567,-5.58327e-005 0.000396029,-8.3749e-005 4.51588e-005,-2.35373e-005 6.65066e-005,-8.07384e-005 6.65066e-005,-0.00016914l0 -0.00342003c0,-8.86754e-005 -2.13478e-005,-0.00014834 -6.65066e-005,-0.00017653 -5.03589e-005,-2.29899e-005 -0.000183372,-5.118e-005 -0.000396029,-8.3749e-005 -0.000223057,-2.79163e-005 -0.000334722,-8.62122e-005 -0.000334722,-0.000173793 0,-0.000126992 0.000194046,-0.000190214 0.000587338,-0.000190214l0.00020992 0 0.00347641 0 0 0.00401722c0,9.33282e-005 3.20217e-005,0.00015655 9.30545e-005,0.00018912 6.65066e-005,3.25691e-005 0.000225794,6.07591e-005 0.000478409,8.40227e-005 0.000255079,2.79163e-005 0.000382618,8.7307e-005 0.000382618,0.000182004zm0.00395481 -0.00304343c0,0.000367565 -0.000233731,0.000677655 -0.00070174,0.000929724 -0.000464999,0.000253163 -0.00110817,0.00040944 -0.00192951,0.00046883 -0.000233731,1.86109e-005 -0.000478136,3.28428e-005 -0.000730751,4.21482e-005 -0.00026849,9.30545e-006 -0.000571464,1.50529e-005 -0.00091166,1.50529e-005l0 -0.000373313c0.000340196,-3.14743e-005 0.000574201,-8.7307e-005 0.000704477,-0.000166677 0.000116865,-7.47173e-005 0.000175161,-0.000200614 0.000175161,-0.000377965l0 -0.00109175c0,-0.000163393 -6.37697e-005,-0.000281079 -0.000194046,-0.000355796 -0.000127266,-7.47173e-005 -0.00035607,-0.000124802 -0.000685592,-0.00014834l0 -0.000370849 0.000127539 0c0.000563527,0 0.00111091,2.10741e-005 0.00164241,6.32223e-005 0.000776184,6.04854e-005 0.00138761,0.000212109 0.00183399,0.000454598 0.000446661,0.000247415 0.000669718,0.000550664 0.000669718,0.000911113zm-0.015657 -0.00123872c0,8.75807e-005 -0.000106465,0.000145877 -0.000319122,0.000173793 -0.000223057,3.25691e-005 -0.00035607,6.07591e-005 -0.000398492,8.3749e-005 -5.03589e-005,2.819e-005 -7.71805e-005,8.78544e-005 -7.71805e-005,0.00017653l0 0.00342003c0,0.000126992 7.44436e-005,0.000201709 0.000223331,0.000226068l0.000236468 3.39375e-005c0.000201983,2.79163e-005 0.000302974,8.97702e-005 0.000302974,0.000183098 0,0.00012015 -0.000186109,0.000180909 -0.000555316,0.000180909l-0.000207457 0 -0.00347641 0 -0.00020992 0c-0.000393292,0 -0.000587338,-6.29486e-005 -0.000587338,-0.000190214 0,-8.75807e-005 0.000111665,-0.00014834 0.000334996,-0.000180909 0.000212657,-2.79163e-005 0.000345396,-5.58327e-005 0.000395755,-8.3749e-005 4.54325e-005,-2.35373e-005 6.65066e-005,-8.07384e-005 6.65066e-005,-0.00016914l0 -0.00342003c0,-8.86754e-005 -2.10741e-005,-0.00014834 -6.65066e-005,-0.00017653 -5.03589e-005,-2.29899e-005 -0.000183372,-5.118e-005 -0.000395755,-8.3749e-005 -0.000223331,-2.79163e-005 -0.000334996,-8.62122e-005 -0.000334996,-0.000173793 0,-0.000126992 0.000194046,-0.000190214 0.000587338,-0.000190214l0.00020992 0 0.00347641 0 0.000207457 0c0.000390555,0 0.000587338,6.32223e-005 0.000587338,0.000190214zm0.00540592 0.0042972c0,0.00012015 -0.000196783,0.000180909 -0.000592538,0.000180909l-0.00390172 0c-0.000396029,0 -0.000592812,-6.54118e-005 -0.000592812,-0.000195962 0,-7.00645e-005 9.57914e-005,-0.00012836 0.0002871,-0.000175161 0.000201983,-3.72218e-005 0.000302974,-8.15595e-005 0.000302974,-0.000133013l-6.65066e-005 -0.000103728 -0.00098583 -0.00130988c-3.20217e-005,-4.65272e-005 -6.40434e-005,-0.000102634 -9.57914e-005,-0.00016914 -2.92848e-005,-5.93906e-005 -4.51588e-005,-0.000106192 -4.51588e-005,-0.000140129 0,-8.26543e-005 7.96437e-005,-0.00016914 0.000236468,-0.000257542l0.00184987 -0.00114785c0.000180635,-0.00010756 0.000270953,-0.000219499 0.000270953,-0.000334722 2.7369e-007,-0.000150529 -0.000143413,-0.000248784 -0.000433251,-0.000293943l-0.000286827 -5.72011e-005c-0.000167498,-3.28428e-005 -0.000252616,-8.64859e-005 -0.000252616,-0.000159835 0,-0.000126992 0.000170235,-0.000190214 0.000510431,-0.000190214l0.00277467 0c0.000382618,0 0.000571464,6.7875e-005 0.000571464,0.000203078 0,9.79809e-005 -0.000117139,0.000165309 -0.000348407,0.000204172l-0.000414366 7.66331e-005c-9.57914e-005,1.28634e-005 -0.000212657,4.10534e-005 -0.000353607,8.2928e-005 -0.000138213,4.21482e-005 -0.000265753,8.75807e-005 -0.000380155,0.000134382 -0.000116592,4.65272e-005 -0.00021512,8.97702e-005 -0.000289564,0.000130276 -8.23806e-005,4.35166e-005 -0.000204446,0.000111118 -0.000366744,0.000204446l-0.000523568 0.000323227 0.00234141 0.00270132c0.000117139,0.000129455 0.000273963,0.000213478 0.000465272,0.000250973 0.000127539,2.32636e-005 0.00020992,4.65272e-005 0.000252342,6.97909e-005 4.51588e-005,2.32636e-005 6.65066e-005,5.96643e-005 6.65066e-005,0.000106192zm0.0135922 -0.00553428c-0.00217556,-0.00019432 -0.00393401,-0.00092945 -0.00528029,-0.00220922 -0.00134655,-0.00128032 -0.00201983,-0.00287018 -0.00201983,-0.00477643 0,-0.0019068 0.00066315,-0.00350295 0.00199465,-0.00478327 0.00132137,-0.00126308 0.00308968,-0.00198836 0.00530547,-0.00218213l0 0.00104166c-0.000467188,0.000108928 -0.000788773,0.00025891 -0.000969682,0.000449398 -0.000185835,0.000204446 -0.000276153,0.000527674 -0.000276153,0.000963387l0 0.00904188c0,0.000435714 9.03176e-005,0.000752373 0.000276153,0.000943134 0.000155729,0.000203899 0.000477315,0.000360997 0.000969682,0.000469651l0 0.00104194zm0.00841568 -0.00698565c0,0.00190625 -0.00066315,0.00349611 -0.00199465,0.00477643 -0.00132137,0.00127977 -0.00308996,0.0020149 -0.00530575,0.00220922l0 -0.00104194c0.00082928,-0.000177077 0.00124611,-0.000646729 0.00124611,-0.00141279l0 -0.00904188c0,-0.000435714 -8.01911e-005,-0.000758941 -0.000246047,-0.000963387 -0.000175982,-0.000190488 -0.000507421,-0.00034047 -0.00100006,-0.000449125l0 -0.00104221c0.00217556,0.000194046 0.00393429,0.000929724 0.00527564,0.00220977 0.00135148,0.00127977 0.00202476,0.00286307 0.00202476,0.0047559zm-0.0256537 0.00698565l-0.000301606 0c-0.00117057,0 -0.00215531,-8.18332e-005 -0.00295421,-0.000245226 -0.000824079,-0.000166677 -0.00151734,-0.000405334 -0.00208004,-0.000718435 -0.00112541,-0.000609233 -0.00168812,-0.00146041 -0.00168812,-0.00255298 0,-0.00138925 0.000864312,-0.00241394 0.00258746,-0.0030812 0.000502494,-0.000204172 0.00125596,-0.000408619 0.00226095,-0.000612791 -0.00120588,-0.000231541 -0.00211015,-0.000510431 -0.00271309,-0.00083749 -0.00104495,-0.000585422 -0.00156769,-0.00136845 -0.00156769,-0.00234908 0,-0.00073513 0.000281353,-0.00137857 0.000844059,-0.0019369 0.000562706,-0.000547927 0.00135668,-0.000949703 0.00238657,-0.00120861 0.0005378,-0.000149435 0.00103509,-0.000258637 0.00149736,-0.000323501 0.000447209,-5.77485e-005 0.00102497,-8.48438e-005 0.00172835,-8.48438e-005l0 0.000963114c-0.000406976,0.000136571 -0.00066835,0.000293122 -0.000793974,0.000466641 -0.000115497,0.000177077 -0.000175709,0.00048361 -0.000175709,0.000919323l0 0.00275742c0,0.000585422 0.000321585,0.000956545 0.000969682,0.00111994l0 0.00106219c-0.000648097,0.000180361 -0.000969682,0.000541358 -0.000969682,0.00108928l0 0.00340798c0,0.000625928 0.000321585,0.00100061 0.000969682,0.00112322l0 0.00104194zm0.00804894 -0.00351664c0,0.00125596 -0.000743888,0.00219554 -0.00223604,0.00282174 -0.000477315,0.000204446 -0.00112021,0.000367839 -0.00192431,0.000490452 -0.000823806,0.000136024 -0.00167799,0.000204446 -0.00256228,0.000204446l-0.000301332 0 0 -0.00104194c0.000648097,-0.000122613 0.000969682,-0.000497294 0.000969682,-0.00112322l0 -0.00340798c0,-0.000547927 -0.000321585,-0.000908923 -0.000969682,-0.00108928l0 -0.00106219c0.000648097,-0.000163393 0.000969682,-0.000534516 0.000969682,-0.00111994l0 -0.00275742c0,-0.000463083 -5.03589e-005,-0.000776457 -0.000145603,-0.00093985 -0.000105644,-0.00014615 -0.000377144,-0.000296132 -0.000824079,-0.000446114l0 -0.000963387c0.00066315,0 0.00124091,2.7369e-005 0.00172835,8.51175e-005 0.000457062,6.48644e-005 0.000959556,0.000174067 0.00149708,0.000323501 0.000984735,0.00025891 0.00176858,0.000667255 0.00235127,0.00122558 0.000582959,0.000572011 0.000874165,0.0012119 0.000874165,0.00191993 0,0.00113061 -0.000693256,0.00198836 -0.00207977,0.00257378 -0.000497568,0.000231541 -0.00123106,0.000435714 -0.00219581,0.000612791 0.00124118,0.000258637 0.00217556,0.000544916 0.00279875,0.000858017 0.00136653,0.000653571 0.00204966,0.00159999 0.00204994,0.00283597zm-0.0196381 -0.0116189c1.61477e-005,-0.000399313 3.31164e-005,-0.000798626 5.50116e-005,-0.00119356 0.00686359,-0.00131097 0.0137275,-0.00262167 0.020591,-0.00393265 0.000127266,0 0.000254258,0 0.000386723,0 0.0069134,0.00124501 0.0138268,0.0024903 0.0207399,0.00373559 1.69688e-005,0.000375776 3.33901e-005,0.000751552 5.52853e-005,0.0011276 -0.0204911,-0.00362283 -0.0204911,-0.00362256 -0.0211045,-0.00368879 -0.00690765,0.0013159 -0.0138156,0.00263153 -0.0207235,0.0039518zm0.00720652 0.00178829c-0.00204747,0.000538347 -0.00404896,0.00116127 -0.00605702,0.00186273 -3.85902e-005,0.00393757 -7.71805e-005,0.00787514 -0.000115771,0.0118174 0.000298048,0.00433223 0.00155757,0.00838749 0.00345314,0.0124001 0.000613886,0.0010433 0.00122668,0.00208634 0.00184056,0.00313402 0.00122695,0.00176201 0.00244815,0.00325171 0.00260854,0.00352403 0.00147053,0.00164925 0.00183454,0.00194511 0.00214928,0.00234935 0.00239889,0.00211453 0.00468091,0.0038437 0.00745531,0.00556329 0.00082928,0.000427777 0.00165801,0.00085528 0.00249222,0.00128306 0.0013096,-0.000479504 0.0025423,-0.00131097 0.00370877,-0.00200177 0.00272403,-0.00181374 0.00498964,-0.00377801 0.00721692,-0.00600037 0.0020836,-0.00250453 0.00383521,-0.00506983 0.00537663,-0.00785161 0.00176366,-0.00394223 0.00286279,-0.00764032 0.00337678,-0.0118127 2.7369e-007,-0.00398437 0,-0.00796902 0,-0.0119537 -2.76427e-005,-0.00022552 -5.52853e-005,-0.00045104 -8.2928e-005,-0.000671908 -0.00056298,-0.000192677 -0.00112705,-0.000376871 -0.00169031,-0.0005534l-0.008636 -0.002146 -0.00028409 -5.39169e-005c-0.00153622,-0.000174067 -0.00307244,-0.00034786 -0.00460893,-0.000521652 -0.0044896,-0.000229899 -0.0086724,-3.50323e-005 -0.0130219,0.000575569l-0.00518122 0.00105754zm0.0137491 0.0431083c-0.00212766,-0.00104768 -0.00414996,-0.00221771 -0.00609534,-0.00350049 -0.00277439,-0.00223194 -0.00579155,-0.00446388 -0.00769232,-0.00733461 -0.00170782,-0.00175271 -0.00285787,-0.00414886 -0.00399012,-0.00619305 -0.00180717,-0.00382947 -0.00287401,-0.00764497 -0.00329933,-0.0117468 3.85902e-005,-0.00496199 7.71805e-005,-0.00992371 0.000121518,-0.0148857 0.00690245,-0.00129702 0.0138041,-0.00259403 0.0207123,-0.00388612 0.000492094,6.59592e-005 0.00098364,0.000131645 0.00147573,0.000197604 0.0065431,0.0011651 0.0130917,0.00233047 0.01964,0.00349584 3.31164e-005,0.00436508 7.19804e-005,0.00873508 0.000110844,0.0131048 -7.77279e-005,0.00295065 -0.000536432,0.00569493 -0.00130413,0.00856594 -0.00073513,0.0020721 -0.00151405,0.00405936 -0.00245335,0.00607071 -0.00061936,0.00104796 -0.00123817,0.00209564 -0.00185151,0.00314798 -0.00141498,0.00200669 -0.00294572,0.00381085 -0.00460373,0.00567632 -0.000552853,0.000488536 -0.00159698,0.00124036 -0.00202257,0.00186985 -4.98115e-005,4.92641e-006 -9.38755e-005,9.57914e-006 -0.00013794,1.42319e-005 -5.74748e-006,3.77692e-005 -1.1495e-005,7.52646e-005 -1.64214e-005,0.000117413 -5.58327e-005,9.30545e-006 -0.000110844,2.35373e-005 -0.000160656,3.77692e-005 -0.00240956,0.00210029 -0.00514509,0.00362283 -0.00802376,0.00520612 -0.000138487,1.42319e-005 -0.000276427,2.819e-005 -0.000409166,4.21482e-005zm-0.00268134 -0.0207131c0.000142045,-0.000142866 0.000295037,-0.000230994 0.000533695,-0.000202804 -0.000166403,0.000133834 -0.000307627,0.000177077 -0.000533695,0.000202804zm0.00141169 0.000160108c-0.000127266,-8.01911e-005 -0.000253984,-0.000160108 -0.000380976,-0.000237289 1.75161e-005,-0.000285185 0.000441735,-0.000111118 0.000604854,-7.937e-006 -7.38962e-006,6.84224e-005 -1.42319e-005,0.000136845 -2.13478e-005,0.000205267 -6.92435e-005,1.09476e-005 -0.000138213,2.54531e-005 -0.00020253,3.99587e-005zm0.00196509 0.000196509c-8.21069e-006,-8.53912e-005 -1.50529e-005,-0.000170782 -2.18952e-005,-0.00025371 0.000111939,-8.81281e-005 0.000130824,-7.96437e-005 0.000290111,-7.96437e-005 5.36432e-005,5.09063e-005 5.36432e-005,5.09063e-005 5.03589e-005,0.000228257 -0.000108107,3.39375e-005 -0.000213752,6.84224e-005 -0.000318575,0.000105097zm-0.00473565 0.000397671c1.45055e-005,-0.000165856 2.24425e-005,-0.000234826 0.000137666,-0.000369207 7.5812e-005,0 0.000152445,0 0.000228531,0 2.49058e-005,0.000200614 -0.000163119,0.000297227 -0.000366197,0.000369207zm0.0026214 0.000276427c3.94113e-005,-0.000122613 0.000127813,-0.000148066 0.000253984,-0.000221962 2.49058e-005,8.48438e-006 5.06326e-005,1.66951e-005 7.5812e-005,2.819e-005 -0.000101265,0.000116865 -0.000166403,0.000133834 -0.000329796,0.000193772zm0.000855827 3.99587e-005c1.04002e-005,-4.24219e-005 2.10741e-005,-8.51175e-005 3.66744e-005,-0.000128087 6.86961e-005,-1.12213e-005 0.000140129,-2.0253e-005 0.000213752,-2.90111e-005 -1.06739e-005,2.90111e-005 -2.27162e-005,6.04854e-005 -3.31164e-005,9.22334e-005 -7.30751e-005,1.91583e-005 -0.000145603,4.21482e-005 -0.00021731,6.48644e-005zm-0.0031228 3.9685e-005c5.118e-005,-4.84431e-005 0.000102634,-9.63387e-005 0.000152992,-0.000145055 3.55796e-006,2.60005e-005 7.937e-006,5.14536e-005 1.39582e-005,7.96437e-005 -5.74748e-005,1.99793e-005 -0.000111939,4.26956e-005 -0.000166951,6.54118e-005zm0.00196263 0.00253902c0.000264384,-0.000516452 0.000561885,-0.000999788 0.000898249,-0.00148997 9.19597e-005,0 0.000185835,2.18952e-006 0.000279711,5.2001e-006 0,0.000397124 -0.000736499,0.00130523 -0.00117796,0.00148477zm0.00382892 0.000476767c-9.0865e-005,-2.54531e-005 -0.00018173,-4.84431e-005 -0.000268763,-7.06119e-005 -2.7369e-006,-3.12006e-005 -6.84224e-006,-6.04854e-005 -1.1495e-005,-8.92228e-005 1.9432e-005,-1.09476e-005 4.05061e-005,-2.27162e-005 6.24012e-005,-3.14743e-005 9.44229e-005,3.14743e-005 0.000188298,6.29486e-005 0.000286006,9.49703e-005 1.17687e-005,3.09269e-005 2.27162e-005,6.15802e-005 3.28428e-005,9.63387e-005 -3.66744e-005,0 -6.76013e-005,0 -0.000100991,0zm-0.000254805 0.000357165c0,-1.17687e-005 0,-2.57268e-005 0,-4.02324e-005 5.14536e-005,0 0.000101813,0 0.000153266,0 0,1.20423e-005 0,2.60005e-005 0,4.02324e-005 -5.14536e-005,0 -0.000101813,0 -0.000153266,0zm-0.00916149 0c0,-2.57268e-005 0,-5.14536e-005 0,-7.99174e-005 3.25691e-005,0 6.43171e-005,0 9.77072e-005,0 0,2.51794e-005 0,5.17273e-005 0,7.99174e-005 -3.33901e-005,0 -6.54118e-005,0 -9.77072e-005,0zm0.00548556 0.000276974c-0.000326785,-0.000134108 -0.000816142,-0.000165856 -0.001164,-5.66538e-005 -7.55383e-005,-0.00021512 0.00120697,-0.000380429 0.00131699,5.66538e-005 -5.118e-005,0 -0.00010236,0 -0.000152992,0zm-0.00619223 0.000714056c5.77485e-005,-0.000140403 0.000118508,-0.0002767 0.000180361,-0.00041464 4.02324e-005,-8.48438e-006 7.937e-005,-1.64214e-005 0.000119602,-2.27162e-005 -7.937e-005,0.000203351 -9.44229e-005,0.000306259 -0.000299964,0.000437356zm0.00689972 0.000157098c-3.64007e-005,-1.42319e-005 -6.97909e-005,-2.60005e-005 -0.000102086,-3.74955e-005 7.66331e-006,-7.41699e-005 1.86109e-005,-0.000145603 2.92848e-005,-0.000216762 7.99174e-005,0 0.000159561,0 0.000239752,0 0,6.29486e-005 0,0.000126171 0,0.000191309 -5.77485e-005,1.97057e-005 -0.000113308,3.9685e-005 -0.000166951,6.29486e-005zm-0.00508734 0.000676561c-0.000431882,-7.71805e-005 -0.00120068,-0.000305438 -0.00161723,-0.000136571 -1.47792e-005,-3.99587e-005 0.000181456,-0.000260553 0.00046062,-0.000857196 0.000507421,3.47586e-005 0.00096503,0.000662329 0.00129428,0.000962293 -4.73483e-005,8.21069e-006 -9.38755e-005,1.9432e-005 -0.000137666,3.14743e-005zm0.000804647 0.000157372c8.01911e-005,-0.000203351 0.000239752,-0.000805742 0.000555043,-0.000871428 -0.000130824,0.000280258 -0.000260826,0.000559969 -0.000391102,0.000839406 -5.52853e-005,9.30545e-006 -0.00010975,2.0253e-005 -0.00016394,3.20217e-005zm0.00634467 0.00150721c-0.000593633,-0.000407798 -0.00102907,-0.000990756 -0.000957093,-0.00162736 5.44642e-005,5.74748e-006 0.000113034,1.39582e-005 0.000170782,2.27162e-005 0.000220868,0.000608138 0.000479231,0.00106493 0.00088867,0.00160464 -3.66744e-005,0 -6.81487e-005,0 -0.00010236,0zm-0.00870853 0.000317754c-1.83372e-005,-5.47379e-005 -3.66744e-005,-0.000109476 -5.03589e-005,-0.000160656 3.20217e-005,0 6.54118e-005,0 9.71598e-005,0 -1.77898e-005,5.118e-005 -3.1748e-005,0.000105918 -4.68009e-005,0.000160656zm0.00629431 0.00198124c-0.000593633,-0.000339649 -0.00127184,-0.000736772 -0.00168593,-0.00121299 0,-5.17273e-005 0,-0.000103181 0,-0.000151898 9.74335e-005,0 0.000195414,0 0.000293943,0 0.000467736,0.000408619 0.000939576,0.000819427 0.00141032,0.00123078 -7.38962e-006,4.26956e-005 -1.47792e-005,8.84017e-005 -1.83372e-005,0.000134108zm0.00810723 0.000437082c-1.09476e-005,-4.29693e-005 -2.13478e-005,-8.26543e-005 -2.84637e-005,-0.00012316 0.000651929,-0.000624833 0.000848438,-0.00122805 0.000863491,-0.0020357 8.97702e-005,0 8.97702e-005,0 0.000145329,5.118e-005 0.000263563,0.00083968 -7.71805e-005,0.00164761 -0.000980356,0.00210768zm-0.00634522 0.00468037c-0.00113089,-0.00037167 -0.00192541,-0.000566538 -0.00312855,-0.000617444 -0.000464451,-0.000222783 -0.000725551,-5.93906e-005 -0.0012119,0 -0.000575843,-9.9623e-005 -0.00126171,-0.000322406 -0.00135203,-0.000850901 0.000921513,-0.000219773 0.00175107,1.80635e-005 0.00267231,1.80635e-005 0.000438177,9.93493e-005 0.00219745,0.000642076 0.00263618,0.00029668 -1.75161e-005,-7.77279e-005 -3.25691e-005,-0.000154635 -4.70746e-005,-0.000231541 -0.000925071,-0.00101347 -0.00134491,-0.00189311 -0.00158466,-0.00313539 0.0012576,0.000185562 0.00111009,0.000928355 0.00196181,0.00159917 0.000102086,1.99793e-005 0.000202804,4.3243e-005 0.000304069,6.56855e-005 -0.000198425,0.000910565 -0.000130003,0.00145904 0.000425314,0.0022563 0,0.000399861 -0.000214846,0.000567632 -0.000675466,0.00059938zm-0.00140978 0.00348927c-0.000577485,-0.000519737 0.00110187,-0.00164186 0.00157645,-0.00186547 0.00037386,-0.000341838 0.00115771,-0.000861028 0.00132411,-0.00132685 -0.000990209,-0.000922334 -0.00147628,-0.00195332 -0.00101594,-0.00311842 0.000329796,-0.000439819 0.000559148,-0.000671087 0.0005482,-0.00118836 -3.66744e-005,-1.9432e-005 -0.000145055,0.000362912 -0.000347586,0.000720077 -0.000139034,0.000137118 -0.000243584,0.000248236 -0.000432703,0.000336912 -5.33695e-005,-1.72424e-005 -0.000108655,-3.47586e-005 -0.000162845,-4.84431e-005 -0.00076852,-0.000836669 -0.000971051,-0.00158466 -0.00226615,-0.00182168 -0.000866501,-0.0005118 -0.00151542,-0.00107998 -0.00222263,-0.00171932 -0.000101813,-0.000157098 -0.000101813,-0.000157098 -0.000137392,-0.000388092 -0.000598833,-5.41905e-005 -0.00101566,-6.04854e-005 -0.0014002,-0.000463083 -0.000572011,-0.000176803 -0.00108463,-0.000430787 -0.00161641,-0.000679024 -0.000309269,1.12213e-005 -0.000217583,0.00017954 -0.000221962,0.000373586 0.000232636,0.000514263 0.000257268,0.0010277 0.000605949,0.00150529 1.12213e-005,9.0865e-005 2.54531e-005,0.000182551 3.9685e-005,0.00027369 0.000769342,0.000211562 0.000714056,0.000537253 0.000714056,0.00112514 -5.77485e-005,0.000117139 -0.00011495,0.000234005 -0.000173519,0.000353881 -0.000666982,8.10121e-005 -0.00113089,-0.000941766 -0.00147929,-0.00129619 -0.000108928,-0.00024851 -0.000108928,-0.00024851 -0.000366197,-0.00144481 -2.54531e-005,-6.02117e-006 -4.7622e-005,-1.1495e-005 -6.86961e-005,-1.45055e-005 -0.00023592,0.000200341 -0.000624833,0.000744983 -0.00102716,0.000588433 0,-0.000523021 9.46966e-005,-0.00101101 9.46966e-005,-0.00152828 0.000514536,-0.00101074 0.000717888,-0.00215202 0.00143359,-0.00307463 0.000753741,-0.000288743 0.000973788,-0.00010236 0.00161231,0.000279437 0.000499484,0.000237836 0.000974882,0.000664792 0.00155921,0.00047403 0.000427503,-0.000305438 0.000801911,-0.000510705 0.00130222,-0.000739236 2.76427e-005,-8.2928e-005 5.74748e-005,-0.000162572 9.00439e-005,-0.000242763 0.000601843,-0.000551485 0.00206663,-0.00169989 0.00187149,-0.00255325 -0.000867596,-8.81281e-005 -0.00144371,-0.000219773 -0.00224863,-3.14743e-005 -0.000170235,-5.74748e-006 -0.000340196,-1.12213e-005 -0.000507694,-1.72424e-005 -7.66331e-006,-7.66331e-005 -1.04002e-005,-0.000153814 -1.47792e-005,-0.000228257 -0.000137392,-1.12213e-005 -0.000276153,-2.27162e-005 -0.000409166,-3.42112e-005 -2.7369e-006,-0.00017954 -6.84224e-006,-0.000357165 -6.84224e-006,-0.000534242 0.00035087,-0.000553674 0.000558327,-0.000639065 0.0012784,-0.000691066 0.000549569,-0.000250973 0.000994588,-0.000479231 0.00156742,-0.000679024 0.000203078,-0.000448304 -0.0013055,-0.000154908 -0.00145384,-0.000303248 0.000662876,-0.000228805 0.000895239,-0.000434345 0.00162791,-0.000368113 4.37903e-005,-0.00015135 8.70333e-005,-0.000302974 0.000129729,-0.000451314 5.50116e-005,5.47379e-006 0.00011276,1.47792e-005 0.000171056,2.27162e-005 0.000224973,0.000289016 0.000232362,0.000311459 0.000195688,0.000639886 6.21275e-005,-6.02117e-006 0.000123981,-1.1495e-005 0.000185014,-1.47792e-005 0.000188298,-0.000190762 -0.000105097,-0.000396303 0.000278616,-0.000639613 0.00022552,0.000203078 0.000527126,0.000400408 0.000678477,0.000559695 0.000620454,6.65066e-005 0.000913576,0.000108655 0.00134163,0.000460072 0.000500305,3.74955e-005 0.00095025,5.47379e-006 0.0014615,7.66331e-005 -0.000282721,0.000120423 -0.000905913,0.000175161 -0.00103373,0.000374681 0.000337459,0.000102634 0.000580222,0.000297227 0.000855827,0.000479504 0.000504136,9.41492e-005 0.000620454,0.000145603 0.000881828,0.00049702 8.62122e-005,6.84224e-005 0.000176803,0.000136845 0.000268216,0.000208551 -0.000108928,0 -0.000214573,2.46321e-006 -0.000319669,5.47379e-006 -0.000431882,-0.0002819 -0.000721172,-0.000391102 -0.00127621,-0.000402597 3.33901e-005,0.000462262 0.000961198,0.000419566 0.00136681,0.000531232 0.000141498,0.000125897 0.000283816,0.00025371 0.000427503,0.000383165 -0.000333354,0 -0.000347586,-2.0253e-005 -0.00060157,-0.000191856 -0.000330343,9.03176e-006 -0.000659318,2.0253e-005 -0.000989388,3.14743e-005 1.83372e-005,6.84224e-005 1.83372e-005,6.84224e-005 8.7307e-005,0.000125897 0.000423672,7.71805e-005 0.000830101,0.00022251 0.00118863,0.000416556 -0.000412998,0.000206088 -0.00116729,-0.000117139 -0.00162873,-0.000185562 0.000411082,0.000208825 0.000471841,0.000365376 0.000603212,0.000734583 0.00012015,5.30958e-005 0.000238931,0.00010756 0.000362365,0.000165035 0.000130276,0.000279711 0.000177077,0.000422303 0.000474851,0.000608412 -0.000452956,1.39582e-005 -0.000449398,-0.000165309 -0.000822985,-0.000311459 -2.21689e-005,1.45055e-005 -3.94113e-005,2.90111e-005 -5.85696e-005,4.51588e-005 0.000425314,0.000437356 0.000479231,0.000606222 0.00114293,0.000674645 -0.000708035,0.000216762 -0.00104878,-0.000105918 -0.00167197,-0.000359902 -0.000107834,0 -0.000217857,2.46321e-006 -0.000322954,5.2001e-006 0.000122887,0.000114676 0.000249879,0.000231815 0.000377965,0.000348407 0.000355249,0.000134929 0.00118207,0.000545737 0.00106575,0.000919871 -0.000239752,-0.000122066 -0.00070694,-0.00045104 -0.000989935,-0.000434619 3.58533e-005,0.000109202 7.22541e-005,0.000220594 0.000109202,0.000331712 0.000630033,0.00029668 0.000630033,0.00029668 0.000905365,0.000391102 -0.000126718,6.29486e-005 -0.000126718,6.29486e-005 -0.00066315,0.000149161 8.7307e-005,8.53912e-005 0.000173793,0.000170782 0.0002611,0.000256995 -8.7307e-005,1.34108e-005 -8.7307e-005,1.34108e-005 -0.000642623,-0.000103181 -0.000542727,0 -0.000542727,0 -0.00073513,3.1748e-005 0,1.66951e-005 0,3.66744e-005 0,5.69274e-005 0.000561611,0.000113581 0.000996778,0.000545737 0.00154115,0.000545737 0.000464999,-0.000163393 0.000464999,-0.000163393 0.000482241,-0.000135203 -0.000688603,0.000685319 -0.000975156,0.000172424 -0.00197275,0.000126445 0,2.0253e-005 0,3.91376e-005 0,5.96643e-005 0.00039466,0.000111118 0.000598559,0.000262742 0.000823806,0.000527947 -8.70333e-005,1.47792e-005 -0.000240026,-2.57268e-005 -0.000461441,-1.9432e-005 0.00014095,0.000176803 0.000287648,0.000354154 0.000431882,0.000533695 -0.000413545,-7.99174e-005 -0.000714877,-0.000274237 -0.00106629,-0.000459525 -0.00034786,-7.41699e-005 -0.000688603,-0.000108107 -0.000975977,-0.000286279 0,0.000845154 0.000820248,0.00169085 0.00151651,0.00228832 0.0013159,0.000725004 0.0025527,0.00143906 0.00305301,0.00268955 0.00167553,-0.000253984 0.00207648,-0.00129346 0.00197577,-0.00248455 -0.0002611,-0.00094204 -0.000743615,-0.00178145 -0.00045323,-0.00274429 0.000420387,-0.000742246 0.0008197,-0.00103646 0.00169359,-0.00144809 1.45055e-005,3.80429e-005 -0.000576664,0.000456788 -0.000779742,0.000657676 -0.000307901,0.000482515 -0.000511252,0.000907828 -0.000369481,0.00145931 2.49058e-005,0 4.98115e-005,0 7.5812e-005,0 0.000246321,-0.000542453 0.000910839,-0.000894418 0.00129838,-0.00137721 0,0.000811216 -0.00113882,0.0013315 -0.000769068,0.00220758 2.13478e-005,0 4.78957e-005,0 7.22541e-005,0 0.000247142,-0.000417103 0.00067054,-0.000693529 0.00094724,-0.00109886 0,0.000508242 -0.000333354,0.000873344 -0.000508789,0.00135367 -7.11593e-005,0.00110762 0.000436261,0.0021356 -0.000151624,0.00318356 -0.000151898,0.000131097 -0.000305438,0.000263016 -0.000453504,0.000397124 -0.000304617,0.000156824 -0.000780015,0.000325417 -0.000800542,0.000376871 0.000232362,0.000507968 0.000217583,0.000825448 9.74335e-005,0.00135586 3.50323e-005,0.000117139 7.25277e-005,0.000237289 0.000109202,0.000357712 -1.72424e-005,2.7369e-006 -3.66744e-005,4.92641e-006 -5.14536e-005,1.09476e-005 -0.000370302,-0.000445293 -0.000203351,-0.00113663 -0.000656034,-0.00146752 -2.18952e-005,1.42319e-005 -4.05061e-005,2.84637e-005 -5.85696e-005,4.57062e-005 0.000214299,0.000576664 0.000272869,0.000879091 4.10534e-006,0.00145055 -0.000333628,0.000467736 -0.000671087,0.000839953 -0.000775636,0.00136817 -0.000420935,-0.000829006 0.000583506,-0.00145055 0.000337186,-0.00223659 -2.60005e-005,0 -5.118e-005,0 -7.63594e-005,0 -0.000123708,0.000337459 -0.000200067,0.000590896 -0.000214025,0.000942587 -3.28428e-005,0 -6.51381e-005,0 -9.79809e-005,0 -3.25691e-005,-7.96437e-005 -0.00013055,-0.000154087 -0.000181456,-0.00027369 0,-0.000522747 5.09063e-005,-0.00076332 2.16215e-005,-0.00117413 -4.68009e-005,-2.46321e-006 -9.05913e-005,-5.74748e-006 -0.000133834,-8.48438e-006 -0.000206362,0.000754289 -0.000431882,0.00123954 -0.00106192,0.00183071 -0.000768794,0.000490725 -0.00207813,0.000981998 -0.00119739,0.00183071 0.000134655,0.000290111 0.000160108,0.000473209 0.000152171,0.000784942 -0.000909197,0.00047622 -0.00163776,0.000964756 -0.00221497,0.00170399 -0.000118781,6.29486e-005 -0.000239205,0.000129729 -0.000358533,0.000195414 -1.47792e-005,0.000133834 -2.98322e-005,0.000267668 -4.4064e-005,0.000401776 -0.000460893,0.000348954 -0.000852543,0.000434072 -0.00147874,0.000459799z"/>
 </g>
</svg>
