<?xml version="1.0" encoding="UTF-8"?>
<!DOCTYPE svg PUBLIC "-//W3C//DTD SVG 1.1//EN" "http://www.w3.org/Graphics/SVG/1.1/DTD/svg11.dtd">
<!-- Creator: CorelDRAW -->
<svg xmlns="http://www.w3.org/2000/svg" xml:space="preserve" width="1in" height="2in" style="shape-rendering:geometricPrecision; text-rendering:geometricPrecision; image-rendering:optimizeQuality; fill-rule:evenodd; clip-rule:evenodd"
viewBox="0 0 0.106373 0.0636945"
 xmlns:xlink="http://www.w3.org/1999/xlink">
 <defs>
  <style type="text/css">
   <![CDATA[
    .fil0 {fill:#28166F;fill-rule:nonzero}
   ]]>
  </style>
 </defs>
 <g id="Layer_x0020_1">
  <metadata id="CorelCorpID_0Corel-Layer"/>
  <path class="fil0" d="M0.0669796 0.0404443l0.00247211 0 -0.000257042 0.00119119 0.0075706 0c0.000581321,-0.000170143 0.00117884,-0.000254899 0.00178549,-0.000254899 0.00102294,0 0.00202968,0.000234734 0.00289299,0.000867098 0.00013958,0.000102212 0.000273048,0.00021167 0.000399205,0.000328124l0.00060678 -0.00281202c-0.000972524,-0.00037381 -0.00188877,-0.000903584 -0.00265738,-0.00164931 -8.99236e-005,-2.61516e-005 -0.000179343,-5.35635e-005 -0.000268195,-8.18576e-005 -0.00140387,-0.000451256 -0.00272878,-0.00119459 -0.00371365,-0.00239958 -3.06887e-005,4.60646e-005 -6.16925e-005,9.131e-005 -9.31374e-005,0.000136429 -0.00120058,0.0017318 -0.00298563,0.00285859 -0.00480105,0.00362726 -0.00124746,0.000523977 -0.00258346,0.000852983 -0.00393673,0.00104758zm-0.0117396 0.00750626l-0.000932761 0.00432276 -0.000128048 0.000104984 -0.00240368 0.000533492 -0.0065844 -0.000374944 -0.00305936 0.000908626 -0.00225187 0.00103119 -0.00296994 0.00183887 0.00215609 -0.00103844 0.00249373 -0.000526371 0.004359 -0.000122629 0.00463828 0.000778813 0.00284731 -0.000656184 0.000400088 -0.000147079 -0.00111147 0.00515092 0.00388304 0 -0.00041477 0.00192242 0.00831532 0 -2.04802e-005 9.50279e-005 0.00388304 0 -0.000414833 0.00192242 0.00870892 0 0.000438023 -0.0020298c0.000556367,0.000185393 0.00113662,0.00026725 0.00172298,0.00026725 0.000990735,0 0.00196269,-0.00020373 0.00286249,-0.000671938 1.42416e-005,-7.43587e-006 2.83571e-005,-1.48087e-005 4.24097e-005,-2.22446e-005l-9.47758e-005 0.000439283 0.0153101 0 0.00243462 -0.0112828c0.000212678,-0.000985694 0.000489696,-0.00231331 0.000434116,-0.00332686 -6.88133e-005,-0.00124752 -0.000739932,-0.00220984 -0.00166135,-0.00287125 -0.000730606,-0.000523032 -0.00156418,-0.000777868 -0.00241748,-0.000861175 -0.000279979,-0.000412502 -0.00064043,-0.000766651 -0.00105073,-0.00106119 -4.41111e-005,-3.15709e-005 -8.87893e-005,-6.23227e-005 -0.000133531,-9.18771e-005l0.000374944 -0.00173754 -0.00291329 0c0.000673198,-0.000108954 0.00134129,-0.000257105 0.00200164,-0.000448988 0.00163904,-0.000469153 0.00315754,-0.00126038 0.00452214,-0.00237853 0.00122824,-0.00100063 0.00232856,-0.00221948 0.00306427,-0.00371516 0.000826516,-0.0016749 0.00136045,-0.00387661 0.00175991,-0.0057277l0.00227859 -0.0105599c0.00037507,-0.00173817 0.00082973,-0.00399848 0.000757009,-0.00578958 -6.10624e-005,-0.00150186 -0.000516919,-0.0028717 -0.0013423,-0.00406364 -0.000954249,-0.00139051 -0.00245157,-0.00227538 -0.00390093,-0.00287541 -0.0002123,-8.79701e-005 -0.000426932,-0.000169072 -0.000643266,-0.000244123 -0.000841577,-0.000735395 -0.0018441,-0.00127223 -0.00282494,-0.0016783 -0.00186042,-0.000770243 -0.00388657,-0.00103296 -0.00586293,-0.00103296 -0.00249051,0 -0.00497932,0.000408406 -0.00729478,0.00145485 -0.00178114,0.000804901 -0.00344438,0.00195463 -0.00465372,0.0036185 -9.20031e-005,-0.000123322 -0.000188795,-0.000244691 -0.000290692,-0.00036379 -0.00092419,-0.00108066 -0.00224595,-0.001748 -0.00368214,-0.0021576 -0.0021881,-0.00227223 -0.00624336,-0.00255195 -0.0090417,-0.00255195 -0.00280068,0 -0.0057996,0.000404751 -0.00836145,0.00177333l-0.00322868 0.000205117 -0.00217077 -0.00037507 -0.00543077 -0.00209124 -0.00753884 0.000252441 -0.00231911 -0.000252441c-0.00182368,-0.000584031 -0.00302003,-0.00106005 -0.00357237,-0.00144218l0.000890855 0.00131237 0.00342422 0.00156481 0.00759921 -0.000129813c0.000394731,0.000353393 0.000610119,0.000915935 0.000649693,0.00169469l-0.000227172 0.000908626 -0.00119743 0.00130518 -0.00109452 0.000403869 -0.00135534 0 -0.00201815 -0.000526497 -0.00451773 -0.00287718 -0.00248717 -0.000122629 -0.00710321 0.00168744 -0.00493131 -0.000252315 -0.00236196 -0.00131249 0.000291952 0.000656184 0.00161484 0.00131249 0.00186735 0.000656184 0.00368013 0.000252315 0.0072409 -0.00118256 0.000912028 0.000396559 0.00024551 0.000785997 -0.00089054 0.00130525 -0.00221375 0.000908626 -0.00489085 -0.000122503 -0.00184996 -0.00065631 -0.00263539 0 -0.009597 0.00221381 -0.00189652 -0.000526371 0.00112622 0.00093024 0.0010622 0.000252315 0.00375675 -0.000252315 0.00471919 -0.001435 0.00140954 -0.000151427 0.000440229 0.000533555 9.71704e-005 0.000908626 -0.000904277 0.00105274 -0.00220795 0.000908689 -0.00257193 0.000129813 -0.00458371 -0.000656184 -0.00220681 0 -0.00268845 0.000778813 -0.00216371 0.00105999 0.00349599 -0.000656247 0.00167962 0 0.004818 0.00118268 0.00246146 0.000129813 0.00239788 -0.000533681 0.00431722 -0.00209118 0.00237211 -0.000526371c0.000628142,5.75965e-005 0.00109805,0.000410926 0.0014241,0.00105274l-3.27052e-005 0.000382254 -0.000553342 0.00093024 -0.000852667 0.000908499 -0.00215602 0.0010385 -0.0101588 0.000273993 -0.00232604 0.000656184 -0.00200523 0.000908626 0.00119888 -0.000403806 0.00635509 -0.00050482 0.00433139 0.000778876 0.00250759 -0.000274056 0.00652517 -0.00299987 0.00234337 -0.000656184c0.000655806,2.87982e-005 0.0012791,0.000245195 0.00186741,0.000656184 -1.70773e-005,0.000742768 -0.000190686,0.00161529 -0.000526749,0.00261774l-0.00178612 0.00209118 -0.00205167 0.00103831 -0.00220675 0 -0.00197964 -0.000908562 -0.00226473 -0.000403806 -0.00700138 0.00196868 -0.0024672 -0.00012975 -0.00191379 -0.00052656 -0.00112597 -0.000656184 0.00193912 0.00131249 0.00197422 0.000648937 0.0026122 0 0.00473879 -0.00118256 0.00119673 0.000151364 0.000201462 0.000908689c-0.000434053,0.000742705 -0.00101991,0.0013917 -0.00174333,0.00193969l-0.00239801 0.000533618 -0.00217398 -0.000382128 -0.00169922 -0.000785997 -0.0048889 -0.000144243 -0.00470754 0.00143506 -0.00240336 0.000273993 -0.00201815 -0.000526434 3.11928e-005 0.000252441 0.00150261 0.00105993 0.00328067 0.000526434 0.0059003 -0.00157924 0.00136373 -7.12079e-006 0.000541117 0.000526371c-0.000285525,0.000764319 -0.0007986,0.00142057 -0.00153941,0.00196868 -0.000759215,0.000324469 -0.00155674,0.000497447 -0.00239542,0.000526371l-0.00201808 -0.000526371 -0.0024672 -0.000129813 -0.00469626 0.00116094 -0.00345875 0.00171624 0.00347255 -0.00093024 0.00501713 -0.000504757 0.00373337 0.00128363 0.00249996 -0.000252441 0.0134522 -0.00534343 0.00232024 -0.000656184 0.00240947 0c0.000487491,0.00022358 0.000822168,0.000663431 0.00100668,0.00131237l-0.000221312 0.000908562 -0.000909319 0.0011392 -0.00634444 0.00146342 -0.00285544 -0.000511311 -0.00215212 0.000122566 -0.00692746 0.00300705 -0.00242995 0.000396622 -0.00167962 0 -0.00238862 -0.000656184 0.000187409 0.000382191 0.00170181 0.00077875 0.0023113 0.000274056 0.00250759 -0.000274056 0.00234343 -0.000656184 0.00214758 -0.00103113 0.0023435 -0.00065631c0.000507656,0.000117399 0.000827461,0.000482323 0.000955194,0.0011053l-0.00125061 0.000362341 -0.00216378 0.00106005 0.00306919 -0.000576154 -0.000395361 0.000666141 -0.000982291 0.000656184 -0.0019729 0.000252378 -0.00668075 -0.000396622 -0.00362108 0.000778876 -0.00443298 0.00209118 0.00367685 -0.001161 0.00491713 -0.000273993 0.00515035 0.001435 0.000924442 -0.000252378 0.00761351 -0.00336271 0.00272758 0.00066948 0.0024614 0.000129813 0.000834078 -0.000185645c4.58125e-005,0.000238011 7.25943e-005,0.000500409 8.08493e-005,0.000787635 -0.000156657,0.000259058 -0.00033474,0.000504568 -0.000533492,0.000735269l-0.00362366 9.77376e-005 -0.00232604 0.000656184 -0.000703509 0.000318797 -0.00134117 -0.000250362 -0.00245573 0.000403806 -0.00226561 0.000778813 -0.00425949 0.00222106 -0.0020954 0.001435 0.0022077 -0.00118262 0.00584642 -0.00168744 0.00774736 -0.000252378 0.00255422 -0.000403806 0.0031138 -0.000877433 0.00153154 0.000275442 0.00250759 -0.000274056 0.00594416 -0.00273275 1.32333e-006 0.00099836 -0.000656751 0.00128351 -0.00191871 0.00157212 -0.00232062 0.000515092 -0.00112918 -0.000201336 -0.000473816 0.000133216 -0.00506446 -0.000288361 -0.00305936 0.000908562 -0.00180755 0.000827776 -0.000439283 0.00020121 -4.97825e-006 2.26857e-006 -0.00296994 0.0018388 0.00215602 -0.00103838 0.00180824 -0.000381687 0.00126013 0.000414203 0.0026122 0 0.0021041 -0.000525048 0.0037064 0.000622345 0.000224778 -5.1862e-005c-0.000422269,0.00067282 -0.000973343,0.00126555 -0.00164156,0.00177182l-0.00239801 0.000533555 -0.00217405 -0.000382128 -0.00169922 -0.000785997 -0.0048889 -0.000144243 -0.00470747 0.00143506 -0.00240342 0.000273993 -0.00201815 -0.000526434 3.11928e-005 0.000252441 0.00150261 0.00105999 0.00328073 0.000526371 0.00590024 -0.00157924 0.00136373 -7.12079e-006 0.000541117 0.000526371c-0.000285462,0.000764382 -0.000798537,0.00142057 -0.00153935,0.00196868 -0.000759215,0.000324469 -0.00155681,0.000497447 -0.00239542,0.000526371l-0.00201808 -0.000526371 -0.00246726 -0.000129813 -0.00469626 0.00116094 -0.00345875 0.00171624 0.00347255 -0.00093024 0.00501713 -0.000504757 0.00373344 0.00128363 0.0024999 -0.000252441 0.0134522 -0.00534343 0.00232024 -0.000656184 0.00240947 0c0.000487554,0.00022358 0.000822231,0.000663431 0.00100668,0.00131237l-0.000221249 0.000908626 -0.00114557 0.00143506 -0.00210145 0.00116094 -0.00251345 0.000274056 -0.00434872 -0.000778813 -0.00215218 0.000122629 -0.0069274 0.00300705 -0.00242995 0.000396559 -0.00167962 0 -0.00238868 -0.000656184 0.000187409 0.000382191 0.00170181 0.00077875 0.0023113 0.000274056 0.00250759 -0.000274056 0.0023435 -0.000656184 0.00214758 -0.00103113 0.00234343 -0.00065631c0.000561597,0.000129876 0.000893124,0.000562542 0.000989286,0.00131249l-0.000774654 0.00130518 -0.000982291 0.000656184 -0.00197284 0.000252441 -0.00668075 -0.000396685 -0.00362114 0.000778876 -0.00443291 0.00209118 0.00367679 -0.001161 0.00491713 -0.000273993 0.00515035 0.001435 0.000924506 -0.000252315 0.00884894 -0.00390849 0.00244999 -0.000403743 0.00191701 0.000533555c0.000313504,0.000418236 0.000478731,0.00102394 0.00050148,0.00181719 -0.000440607,0.000728337 -0.00105085,0.00134848 -0.00181152,0.00183887l-0.00238962 0.000526497 -0.00432673 -0.000807737 -0.00245579 0.000403869 -0.00226561 0.000778813 -0.00425949 0.00222106 -0.0020954 0.001435 0.00220776 -0.00118268 0.00584636 -0.00168744 0.00774736 -0.000252378 0.00255422 -0.000403806 0.00465782 -0.00131243 0.00222528 -0.000908562 0.00208419 -0.00116107 0.00228502 -0.000800427 0.000331526 0zm0.0339229 -0.0074486l-0.000837733 0.00388209c0.00050356,-0.000342365 0.0010264,-0.000597264 0.00156519,-0.000768478 0.000538849,-0.000171088 0.00109711,-0.000254899 0.00167124,-0.000254899 0.000880394,0 0.00158737,0.000193018 0.00212162,0.000575461 0.000537714,0.000385972 0.000821096,0.000826642 0.000848823,0.00132919 2.76009e-005,0.000502551 -0.000101582,0.0014166 -0.000388367,0.00274585l-0.00210681 0.0097633 -0.00503156 0 0.00214997 -0.00996362c0.000178335,-0.000826642 0.000241288,-0.00135471 0.000198752,-0.00159147 -4.33549e-005,-0.000233033 -0.000234293,-0.000353204 -0.000566071,-0.000353204 -0.000306194,0 -0.000541369,0.000123826 -0.000699539,0.000364169 -0.000162518,0.000240342 -0.000317222,0.00072109 -0.000472808,0.00144212l-0.00217984 0.010102 -0.00503585 0 0.00372714 -0.0172725 0.00503585 0zm-0.013287 0.00723245c0.000188669,-0.00087403 0.000264982,-0.00140576 0.000232087,-0.00158781 -3.66122e-005,-0.000185771 -0.000224525,-0.000280421 -0.000564811,-0.000280421 -0.000331778,0 -0.000567962,0.000109269 -0.000711386,0.000320436 -0.000140021,0.000214884 -0.000298317,0.000732055 -0.00047432,0.0015478l-0.00126599 0.00586671c-0.000184636,0.000855755 -0.000252631,0.00138748 -0.000196925,0.00160237 5.14839e-005,0.000214821 0.000245699,0.000320436 0.000577414,0.000320436 0.000323271,0 0.000548616,-9.83047e-005 0.00066759,-0.000294977 0.00012244,-0.000192955 0.000263784,-0.000670111 0.000426428,-0.00142391l0.00130991 -0.00607063zm-0.000544646 -0.00411884l-0.00035459 0.00124916c0.000555863,-0.000506206 0.00113019,-0.00088134 0.00172367,-0.00112893 0.000594492,-0.000251307 0.00121236,-0.000375133 0.0018504,-0.000375133 0.000782594,0 0.00141616,0.000178461 0.00190825,0.000538975 0.000492154,0.000360577 0.000760601,0.00077207 0.000799608,0.00124185 3.90068e-005,0.000469783 -6.07473e-005,0.00126725 -0.000302791,0.00238893l-0.00128722 0.00596514c-0.000278152,0.00128912 -0.000564685,0.00220316 -0.000861175,0.00274938 -0.000295733,0.000542692 -0.000755056,0.000975989 -0.0013779,0.00130014 -0.000622849,0.000324091 -0.00132529,0.000484277 -0.0021036,0.000484277 -0.000625243,0 -0.00117695,-0.000123763 -0.00165511,-0.000371415 -0.000477534,-0.000251307 -0.000882978,-0.000619068 -0.00121501,-0.00111072l-0.000700106 0.00324475 -0.00503585 0 0.00349057 -0.0161764 0.00512086 0zm-0.00647765 0l-0.00326391 0.00564464 0.000816811 0.00851426 -0.00484447 0 -0.000239145 -0.00616541 -0.00133033 0.00616541 -0.00503585 0 0.00372707 -0.0172725 0.00503585 0 -0.00156531 0.0072542 0.00246297 -0.00414058 0.0042363 0zm0.022892 -0.0310413c0.000362971,-0.00168215 0.000496943,-0.00273672 0.000400592,-0.00315728 -0.000102716,-0.000427184 -0.000500976,-0.000640808 -0.00120266,-0.000640808 -0.000686117,0 -0.00118716,0.00022692 -0.00150343,0.000680823 -0.000314764,0.000447223 -0.000648685,0.00148856 -0.00100006,0.00311727l-0.00333303 0.015446c-0.000397567,0.00184233 -0.000535257,0.00295034 -0.000413195,0.00332415 0.000120612,0.00038049 0.000532421,0.000567395 0.00121066,0.000567395 0.000686054,0 0.00118577,-0.000220303 0.0014914,-0.000660847 0.000314701,-0.000447223 0.000630726,-0.0014418 0.000966348,-0.0029971l0.00338338 -0.0156796zm0.00865724 0.00265669l-0.00227865 0.0105598c-0.000518494,0.00240305 -0.00105041,0.00414525 -0.00159058,0.00523996 -0.000541747,0.00110133 -0.00139366,0.00212263 -0.00255706,0.00307051 -0.00116491,0.000954501 -0.00246707,0.001642 -0.00391284,0.00205589 -0.00144728,0.000420568 -0.00300441,0.000627449 -0.00468057,0.000627449 -0.00220631,0 -0.00399861,-0.000220303 -0.00536284,-0.000654104 -0.00137059,-0.000440607 -0.00238521,-0.00112143 -0.00305192,-0.0020426 -0.000672946,-0.000927845 -0.00107852,-0.00190239 -0.00122452,-0.00292368 -0.000144621,-0.00102791 2.60886e-005,-0.00264994 0.000507089,-0.00487938l0.00238528 -0.0110539c0.000626504,-0.00290364 0.00139234,-0.00507971 0.00228962,-0.00652825 0.000897346,-0.00144848 0.00230953,-0.00260993 0.0042445,-0.00348434 0.00193503,-0.000874471 0.00414134,-0.00130827 0.00662051,-0.00130827 0.00202703,0 0.00377087,0.000300397 0.005238,0.000907743 0.00146713,0.000607473 0.00250784,0.00134841 0.00310656,0.00222282 0.000606528,0.000874408 0.000932698,0.00185569 0.000977187,0.0029504 4.44262e-005,0.00109471 -0.000192702,0.00284353 -0.000709747,0.00523989zm-0.036188 0.00935168c0.000262083,-0.00121482 0.000296048,-0.00202256 8.48193e-005,-0.00241634 -0.000202092,-0.000400529 -0.000612514,-0.000594113 -0.00123612,-0.000594113 -0.000608166,0 -0.00109288,0.000186905 -0.00144142,0.000574074 -0.000348667,0.000387106 -0.000655428,0.00119484 -0.000923308,0.00243638l-0.000885877 0.00410517c-0.000295229,0.00136839 -0.000337261,0.00224941 -0.000124582,0.00263665 0.000211229,0.000393786 0.000637279,0.000587371 0.00127658,0.000587371 0.000654798,0 0.00114096,-0.000193585 0.00145352,-0.000594113 0.000312559,-0.000400466 0.000622471,-0.00129491 0.000923497,-0.00269002l0.000872896 -0.00404505zm0.00266097 -0.0131631c0.000230512,-0.00106806 0.000273993,-0.0017756 0.000122818,-0.00212269 -0.000143424,-0.000347091 -0.000526876,-0.000520637 -0.00115067,-0.000520637 -0.000615791,0 -0.0010615,0.000186905 -0.00136051,0.000560715 -0.000291133,0.00037381 -0.000550065,0.00106799 -0.000769045,0.00208261l-0.000518494 0.00240305c-0.000205999,0.000954438 -0.000223895,0.00161535 -5.99281e-005,0.00197574 0.000170332,0.00036713 0.000536832,0.000547356 0.00111362,0.000547356 0.00061598,0 0.0010603,-0.000180225 0.00135484,-0.000533933 0.000288298,-0.000360514 0.000557312,-0.00110145 0.000799293,-0.00222282l0.000468082 -0.00216938zm0.00371523 0.00680848c0.00125572,0.000467326 0.00214134,0.00116812 0.00267395,0.00209597 0.000531224,0.000934462 0.000418047,0.00315728 -0.000338143,0.00666166 -0.000551704,0.00255662 -0.00124633,0.00443896 -0.0020932,0.00565378 -0.000837544,0.00120814 -0.0021748,0.00220272 -0.00401953,0.00298374 -0.00184321,0.000774276 -0.00417209,0.00116145 -0.00698644,0.00116145 -0.00274428,0 -0.00483086,-0.00037381 -0.00626919,-0.00111475 -0.00143676,-0.00074762 -0.00237116,-0.00172878 -0.00279992,-0.00295702 -0.000430272,-0.00122156 -0.000340349,-0.00326409 0.000276135,-0.00612098 0.000413384,-0.00191574 0.000943536,-0.00357785 0.00159039,-0.00498625 0.000646984,-0.00140847 0.00196628,-0.00253645 0.00396426,-0.00337759 -0.00104373,-0.000473942 -0.00173999,-0.00122156 -0.00208872,-0.00224273 -0.000348793,-0.0010213 -0.000356355,-0.00232295 -1.63841e-005,-0.00389829 0.000589072,-0.00273004 0.00191858,-0.00477263 0.00397435,-0.00613434 0.00206352,-0.00136165 0.00485329,-0.00204253 0.00836926,-0.00204253 0.00406181,0 0.00672058,0.000720901 0.00795947,0.00216938 0.00123883,0.00144842 0.00157199,0.00351773 0.000992941,0.00620114 -0.000368706,0.00170874 -0.000891107,0.00293692 -0.00156191,0.0036979 -0.000677357,0.000754237 -0.00188329,0.00150186 -0.00362732,0.00224948z"/>
 </g>
</svg>
