<?xml version="1.0" encoding="UTF-8"?>
<!DOCTYPE svg PUBLIC "-//W3C//DTD SVG 1.1//EN" "http://www.w3.org/Graphics/SVG/1.1/DTD/svg11.dtd">
<!-- Creator: CorelDRAW -->
<svg xmlns="http://www.w3.org/2000/svg" xml:space="preserve" width="1in" height="2in" style="shape-rendering:geometricPrecision; text-rendering:geometricPrecision; image-rendering:optimizeQuality; fill-rule:evenodd; clip-rule:evenodd"
viewBox="0 0 0.0692988 0.0849883"
 xmlns:xlink="http://www.w3.org/1999/xlink">
 <defs>
  <style type="text/css">
   <![CDATA[
    .fil0 {fill:#1F1A17}
   ]]>
  </style>
 </defs>
 <g id="Layer_x0020_1">
  <metadata id="CorelCorpID_0Corel-Layer"/>
  <path class="fil0" d="M0.0426655 0.0816382c0.000999892,0.000574131 0.00183477,0.00129934 0.00282945,0.00195983 0.0019823,0.0013164 0.00154364,0.000614502 0.0031597,0.00139028l0.00440348 -0.00664153 -0.00105129 -6.51334e-005c0.000530015,-0.00100218 0.00331515,-0.00673642 0.00335427,-0.00766244 0.000161689,-0.00380854 0.00304462,-0.00426301 0.00526561,-0.00575089 0,-0.00272458 0.000573923,-0.00340359 0.00259764,-0.00410819 0.00118655,-0.000413275 0.00410653,-0.00111101 0.00410653,-0.00259847l2.08094e-007 -0.000239516c0,-0.00126833 -0.00150327,-0.00261886 -0.00215502,-0.00359295l-0.000718341 -0.000239308c-0.00124211,-0.00185557 -0.00193756,-0.000793463 -0.00191655,-0.00407115 1.41504e-005,-0.00218187 -0.000240349,-0.00336405 -0.000238476,-0.00550991 1.35261e-005,-0.0156279 -0.000463009,-0.00791278 -0.000478824,-0.0222756 0,-0.00204036 0.00168827,-0.00363291 0.00258786,-0.00507604 0.00098158,-0.00157444 0.00132244,-0.0033139 0.00244032,-0.00498385l0.000722086 -0.000481738 0.00172468 -0.00186015c-0.000817393,-0.00025762 -0.000741023,-0.000546871 -0.00101009,-0.000532305l-0.00575942 0.000245135 -0.000966389 -0.00118801 -0.00236686 -0.000298823c-0.000171886,2.12256e-005 -0.00558358,0.0024295 -0.00599436,0.00267651 -0.00177046,0.00106503 -0.00161689,0.00323087 -0.00362188,0.00443636 -0.00034939,-8.15729e-005 -0.000808237,-0.000201643 -0.00112433,-0.000331702 -0.000574964,-0.000236811 -0.00152221,-6.76306e-005 -0.00307813,-6.76306e-005 -0.00155592,0 -0.000845694,-0.000270522 -0.00152221,-0.000778064 -0.000676306,-0.000507333 -0.00145437,-0.000168972 -0.00199562,0.00010155 -0.000541253,0.000270522 -0.00125148,0.000270522 -0.00206325,-0.000236811 -0.00065612,-0.000409945 -0.00193007,-0.000289875 -0.00239537,-0.000228695l0 -1.85204e-005c-1.5399e-005,8.32376e-006 -3.07979e-005,1.66475e-005 -4.57807e-005,2.47632e-005 -8.24052e-005,1.12371e-005 -0.000129643,1.95608e-005 -0.000129643,1.95608e-005l-4.93183e-005 8.11567e-005c-0.000340858,0.000195608 -0.000606386,0.00035376 -0.00121194,0.00035376 -0.00107314,-2.08094e-007 -0.0010259,-0.00140921 -0.00176505,-0.00206679 -0.000599727,-0.000533137 -0.0018383,-0.000983244 -0.00257454,-0.00125689 -0.00256226,-0.000952654 -0.00293995,-0.000738318 -0.00509373,-0.00232961 -0.00396253,-0.00292809 -0.00688646,0.00149911 -0.0106796,-0.00416729l0.000567681 -0.00285963c9.71799e-005,-0.0011389 -0.00376172,-0.0016198 -0.00474496,-0.00132431 -0.000785971,0.000236187 -0.0027071,0.00208365 -0.00330453,0.00268753 -0.00118967,0.00120216 -0.00523273,0.00502214 -0.00640555,0.0058079l-0.000547079 0.000334615 -0.00141691 0.00153449c0.000686918,0.00137841 0.000971799,0.00215648 0.0017251,0.00339963 0.000877741,0.00144854 0.00177837,0.000716676 0.00221308,0.00257662 0.000945163,0.00404223 0.00305399,0.00281967 0.00305399,0.00652583l0.000905833 0.000562062c5.18154e-005,0.00106294 -0.00149183,0.0124775 -0.00173384,0.0129813 -0.000770156,0.00160212 -0.00599352,0.00660262 -0.00587637,0.00873225l0.000404535 0.00597896 -0.000165019 0.00168577c0,0.00232399 0.00149183,0.00230922 0.00297387,0.00304296l0 1.66475e-006 0.000137966 7.51219e-005 0.000170429 9.28099e-005 0.00707894 0.00385557 -1.31099e-005 2.76765e-005c4.12026e-005,1.04047e-005 8.46943e-005,2.24742e-005 0.000129434,3.57922e-005l7.34572e-005 3.9746e-005 1.81042e-005 -1.22775e-005c0.000572467,0.000179793 0.00140817,0.000548744 0.00238621,0.0010257l0.000638849 0.000389136c-0.000392673,0.000245967 -0.000799705,0.000470084 -0.00119446,0.000675057l-0.00212443 0.00110269 0.00267463 0.002715 0.00102757 -0.000319008c0.000777439,-0.000241597 0.00157444,-0.000414523 0.00238184,-0.000519403 0.000775983,-0.000100926 0.00156091,-0.00016377 0.00234376,-0.00016377 0.000580582,0 0.00116158,3.68326e-005 0.00173883,0.000102798 0.00115492,0.000630525 0.00214358,0.00116408 0.00278825,0.00148101 0.00447298,0.0021981 0.00738963,0.00327041 0.00929077,0.00559939 0.000532096,0.000652167 -0.00104089,0.00205285 -0.000126313,0.00288647 0.00190031,0.00173217 0.00449546,0.00359857 0.00974359,0.00661198zm-0.0103903 -0.0444351c0,0.00207366 -0.000953071,0.00413961 -0.00285942,0.00619808 -0.00190635,0.00205847 -0.00456163,0.00395941 -0.00796563,0.00570219l-0.000612837 0c-0.00323357,0 -0.00588053,-0.000728745 -0.00794004,-0.00218603 -0.0020593,-0.0014577 -0.00308916,-0.00329829 -0.00308916,-0.00552198 0,-0.00264467 0.00188949,-0.00513867 0.00566786,-0.00748285 -0.00153178,-0.000480697 -0.0026892,-0.0011493 -0.00347226,-0.00200582 -0.00078285,-0.000856515 -0.00117427,-0.00196087 -0.00117427,-0.00331327 0,-0.00153261 0.000723335,-0.00320777 0.00217,-0.00502589 0.00144667,-0.00181833 0.0035659,-0.00374902 0.00635727,-0.00579251 0.00371032,-2.08094e-007 0.0065868,0.000563519 0.00862945,0.00169035 0.00204244,0.00112683 0.00306356,0.00275725 0.00306356,0.00489083 0,0.00246425 -0.00175319,0.00447777 -0.00525937,0.00604035 0.00200852,0.00057101 0.00359129,0.00143502 0.00474871,0.00259202 0.00115742,0.00115679 0.00173613,0.00256185 0.00173613,0.00421453zm-0.00469772 -0.0106831c0,-0.00153261 -0.000893556,-0.00265195 -0.00268067,-0.00335822 -0.00178711,-0.000706271 -0.00474017,-0.00105941 -0.00885919,-0.00105941 -0.00122547,0.00144251 -0.00183809,0.00271979 -0.00183809,0.00383164 0,0.00120195 0.000765786,0.00210362 0.00229777,0.0027046 0.00129351,0.000510663 0.00362521,0.00094662 0.00699529,0.00130725l0.00122547 0.000135261c0.00190635,-0.00129226 0.00285942,-0.00247923 0.00285942,-0.00356111zm0.00224679 0.0135681c0,-0.00300509 -0.00442533,-0.00500341 -0.013276,-0.00599519 -0.00105524,0.000781185 -0.00180418,0.00155509 -0.00224679,0.0023215 -0.000442616,0.000766202 -0.000663612,0.00160024 -0.000663612,0.00250171 0,0.00159275 0.000850896,0.00288481 0.0025529,0.00387638 0.001702,0.000991776 0.00391487,0.00148766 0.00663799,0.00148766 0.00217874,0 0.00388928,-0.00036791 0.00513181,-0.00110435 0.00124253,-0.000736237 0.00186369,-0.00176547 0.00186369,-0.0030877zm0.0296665 -0.00752801c0,0.0031855 -0.000893556,0.00609299 -0.00268067,0.00872268 -0.00178732,0.00262927 -0.00460408,0.00523627 -0.0084507,0.00782059 -0.00374465,-0.000991568 -0.00668918,-0.00281718 -0.00883359,-0.00547683 -0.00214462,-0.00265944 -0.00321713,-0.00576233 -0.00321713,-0.00930825 0,-0.00327561 0.000953279,-0.00629568 0.00285963,-0.00906041 0.00190635,-0.00276495 0.00473185,-0.00525895 0.00847609,-0.00748285 0.00408509,0.00171282 0.00708061,0.00373383 0.00898675,0.00606282 0.00190656,0.00232899 0.00285963,0.00523648 0.00285963,0.00872226zm-0.00398271 0.00207366c0,-0.0030954 -0.00108084,-0.00573216 -0.00324252,-0.00791111 -0.00216168,-0.00217854 -0.00506355,-0.00370366 -0.00870603,-0.00457516 -0.00122547,0.00132223 -0.00210196,0.00264446 -0.00262948,0.00396669 -0.000527726,0.00132223 -0.00079159,0.00271979 -0.00079159,0.00419226 0,0.0036662 0.00108937,0.00682153 0.00326812,0.0094662 0.00217833,0.00264425 0.00507188,0.00431233 0.00868023,0.00500341 0.00228071,-0.00237414 0.00342127,-0.00575484 0.00342127,-0.0101423zm-0.0223676 0.0276313l-0.00295785 0.00204432 -0.00250483 -0.00248256 -0.00325105 0.00219061c-0.000870457,-0.000292164 -0.00174986,-0.000502963 -0.00263822,-0.000632814 -0.000888145,-0.000129851 -0.00174091,-0.000194776 -0.0025581,-0.000194776 -0.000799497,0 -0.00165664,5.95149e-005 -0.00257163,0.000178545 -0.000914989,0.00011903 -0.00180771,0.000313806 -0.00267817,0.00058412l-0.000239724 -0.00024347c0.00108375,-0.000562478 0.00194963,-0.00111955 0.00259826,-0.0016712 0.000648213,-0.000551657 0.000972631,-0.00101155 0.000972631,-0.00137925 0,-0.000281343 -0.000102382,-0.000546247 -0.000306522,-0.000795127 -0.000204348,-0.00024888 -0.000448651,-0.000373113 -0.000732907,-0.000373113 -0.000408489,-2.08094e-007 -0.000706063,1.89366e-005 -0.000892723,5.68097e-005 -0.000186452,3.7665e-005 -0.000368535,0.000132348 -0.000546247,0.00028384l-0.000159816 -9.7388e-005c0.000159816,-0.00024888 0.000364165,-0.00045968 0.000612837,-0.000632814 0.000355425,-0.000259493 0.000737277,-0.000389344 0.00114577,-0.000389344 0.000497553,-2.08094e-007 0.000906041,3.51679e-005 0.00122588,0.000105504 0.000319841,7.01277e-005 0.000604097,0.000202684 0.000852769,0.00039746 0,-0.000627612 -0.000248672,-0.00118988 -0.000746225,-0.00168743 -0.000426385,-0.000432836 -0.000834873,-0.000649045 -0.00122567,-0.000649045 -0.000444073,-2.08094e-007 -0.000839451,2.16418e-005 -0.00118593,6.47172e-005 -0.000346268,4.32836e-005 -0.000670479,0.000140672 -0.000972631,0.000292164l-0.00013318 -9.7388e-005c0.000177712,-0.000454269 0.000430755,-0.000759959 0.000759543,-0.000916654 0.00032858,-0.000157111 0.000750595,-0.000235354 0.00126563,-0.000235354 0.000248672,0 0.000444073,0 0.000586409,0 0.000497345,0 0.000848191,1.62313e-005 0.00105254,4.8694e-005 0.00020414,3.22546e-005 0.000430755,9.7388e-005 0.000679427,0.000194776 0,-0.000357297 7.55381e-005,-0.000700653 0.000226614,-0.00103048 0.000150868,-0.000330037 0.000364165,-0.000635519 0.000639473,-0.000916862 0.000275308,-0.000281135 0.000688375,-0.00058953 0.0012392,-0.00092477 0.00033732,-0.000205597 0.000675057,-0.000410986 0.00101259,-0.000616583l-7.99081e-005 -6.49253e-005c-0.00101279,0.000486732 -0.00202517,0.000730202 -0.00303796,0.000730202 -0.000390801,-2.08094e-007 -0.000817185,-3.24627e-005 -0.00127895,-9.7388e-005 -0.000461969,-6.49253e-005 -0.000835081,-9.7388e-005 -0.00111934,-9.7388e-005 -0.000408697,0 -0.000817185,7.84514e-005 -0.00122588,0.000235354 -0.000408489,0.000156695 -0.000781601,0.000364997 -0.00111913,0.000624698l-0.000213296 -3.26708e-005c0.000213296,-0.000605554 0.000639681,-0.00112475 0.00127936,-0.00155758 0.000586201,-0.000389552 0.00124336,-0.00058412 0.00197169,-0.00058412 0.000692953,-2.08094e-007 0.0012881,3.24627e-005 0.00178545,9.7388e-005 0.00122588,0.000162313 0.00194526,0.00024347 0.00215856,0.00024347 0.000639681,-2.08094e-007 0.00110144,-2.72603e-005 0.0013857,-8.11567e-005 0.000319841,-8.67752e-005 0.000621785,-0.000156903 0.000906041,-0.000211007l0.00013318 0.000113619c-0.0001954,0.000162105 -0.000381853,0.000321713 -0.000559565,0.000478616 -0.000177712,0.000156903 -0.000395379,0.000435333 -0.000652999,0.000835706 -0.000257412,0.000400165 -0.000417437,0.000741023 -0.000479657,0.00102216 -6.2012e-005,0.000281135 -9.3018e-005,0.000713971 -9.3018e-005,0.00129809l0 0.00264488c0,0.000616583 -4.45321e-005,0.00107647 -0.000133388,0.00137925 -0.000142128,0.000508374 -0.000435125,0.000887105 -0.000879405,0.00113599 -0.00104817,0.000605554 -0.00162542,0.000935591 -0.00173197,0.000989695 -0.000515449,0.000281343 -0.00112829,0.000567889 -0.00183893,0.000860053l0 9.7388e-005c0.00104817,-0.000281343 0.00176776,-0.000481321 0.00215856,-0.000600351 0.000692745,-0.000205597 0.00121693,-0.000389552 0.00157215,-0.000551657 0.000621993,-0.000281551 0.00110144,-0.000595149 0.00143918,-0.000941209 0.000497345,-0.000497553 0.000746017,-0.00107085 0.000746017,-0.0017199l0 -0.0035376c0,-0.000519195 8.88561e-005,-0.000984285 0.000266568,-0.00139527 0.00012444,-0.000292372 0.000337529,-0.000621993 0.000639473,-0.000989903 0.000248672,-0.000291956 0.000461969,-0.00052731 0.000639473,-0.000705855 0.00017792,-0.000178337 0.000408697,-0.000364997 0.000692953,-0.000559773l0.000639473 -2.08094e-007c-0.000301944,0.000227447 -0.000563935,0.000438454 -0.000785971,0.000633022 -0.000222036,0.000194568 -0.000404119,0.000389344 -0.000546455,0.00058412 -0.0001954,0.000270522 -0.000390801,0.000705855 -0.000586201,0.00130621 -0.0001954,0.000600351 -0.000292996,0.00116574 -0.000292996,0.00169576l0.00495638 -0.00232025 0.00282467 0.00202808 -0.00474309 0.00220684c0.000390592,0.000205389 0.000790341,0.000405575 0.00119904,0.000600351 0.000408489,0.000216418 0.000737277,0.000432627 0.000985949,0.000649045 0.000444073,0.000378523 0.00134117,0.00118447 0.00269149,0.00241784 0.0001954,0.000183955 0.000461761,0.000427217 0.000799497,0.000729994l0.000559357 -0.000308187 0.000399749 0.00024347zm-0.00500966 -0.00569553l-0.00178545 -0.00129809 -0.00286025 0.00123587 -1.7688e-005 0.00231484 0.00466339 -0.00225262zm-0.000719589 0.00480302c-7.09601e-005,-8.65671e-005 -0.00013318,-0.000156903 -0.000186452,-0.000211007 -0.000337529,-0.000367702 -0.000688375,-0.000686918 -0.00105254,-0.000957233 -0.000364373,-0.000270522 -0.000728537,-0.000473414 -0.0010927,-0.000608467 -0.000364165,-0.000135469 -0.000901671,-0.000273227 -0.0016121,-0.000413899 -5.32721e-005,0.000245967 -0.000111122,0.00049235 -0.000173342,0.000732907 -6.2012e-005,0.00024347 -0.000146498,0.000421807 -0.000253042,0.000540836 -0.000266568,0.000289251 -0.000475287,0.000495056 -0.000626155,0.000611172 -0.000151076,0.00011903 -0.000430963,0.000308395 -0.000839451,0.000565391 0.0001954,-2.08094e-007 0.000403911,0 0.000626155,0 0.000222036,-2.08094e-007 0.000448651,0 0.000679427,0 0.000461969,-2.08094e-007 0.000835081,2.14337e-005 0.00111934,6.47172e-005 0.000639473,9.7388e-005 0.00120799,0.000211007 0.00170554,0.000340858 8.86481e-005,2.16418e-005 0.00020414,5.41044e-005 0.000346268,9.7388e-005l0.00135906 -0.000762665zm0.0158555 0.000713971c-0.000355425,0.00011903 -0.000621785,0.000205389 -0.000799497,0.000259701 -0.000319841,0.000108001 -0.000595149,0.00022162 -0.000825925,0.00034065 -0.000639681,0.000313598 -0.00129684,0.00070315 -0.00197211,0.00116824l-0.000985949 -0.000438038c-1.7688e-005,-1.08209e-005 -0.000137758,-4.8694e-005 -0.000359795,-0.000113619 -0.000222036,-6.49253e-005 -0.000484027,-0.000135053 -0.000786179,-0.000211007l0 0.00115201c0,0.000346268 8.88561e-005,0.000654664 0.000266568,0.000925186 0.000177712,0.000270314 0.000532929,0.000616375 0.00106586,0.00103839l-0.000106544 0c-0.00110144,0 -0.00214066,-0.000394754 -0.00311766,-0.00118447 -0.000444281,0.000248672 -0.000826133,0.000419101 -0.00114597,0.000511079 -0.000319632,9.19776e-005 -0.000630733,0.000137966 -0.000932677,0.000137966 0.000852769,-0.000616791 0.00127915,-0.00124399 0.00127915,-0.00188242l0 -0.00121693c-0.000284256,-5.41044e-005 -0.000604097,-8.09486e-005 -0.000959313,-8.09486e-005 -0.000390801,0 -0.000666317,1.60232e-005 -0.000826133,4.84859e-005l0 -0.000470501c7.09601e-005,-1.08209e-005 0.000470709,-0.00012444 0.00119904,-0.000340858 0.000319841,-9.7388e-005 0.000515241,-0.000145874 0.000586409,-0.000145874l0 -0.00379709c0,-0.000389344 -4.89021e-005,-0.00070315 -0.000146498,-0.000941001 -9.78042e-005,-0.00023806 -0.000270938,-0.000357089 -0.000519611,-0.000357089 -0.000106752,0 -0.000239932,4.32836e-005 -0.000399957,0.000129851 -5.32721e-005,2.16418e-005 -0.000124232,6.49253e-005 -0.000213088,0.000129851l-0.000426385 -0.000324627 0.0022651 -0.00139548c0.000457391,0.000129851 0.000817185,0.000259701 0.00107938,0.000389552 0.000190822,9.71799e-005 0.000355217,0.000208094 0.000488397,0.000332534 0.00012881,0.00012444 0.000248672,0.00030028 0.000355425,0.000527518 0.000101966,0.000227031 0.000173134,0.000454269 0.00020851,0.000681508 0.000284465,-0.000151492 0.000564143,-0.000311101 0.000839451,-0.000478824 0.000275516,-0.000167724 0.000528559,-0.000327124 0.000759543,-0.000478616 0.000106544,-7.57462e-005 0.000337529,-0.000232649 0.000692745,-0.000470501 0.000355425,-0.000238268 0.000595357,-0.000405783 0.000719589,-0.000503171 0.000484027,0.000108209 0.000888353,0.00024888 0.00121256,0.000422015 0.000319632,0.000172926 0.000626155,0.000400165 0.000914781,0.000681508 0.000230984,0.000227031 0.000391009,0.000478616 0.000470917,0.000754549 7.99081e-005,0.000275725 0.000119862,0.00062449 0.000119862,0.0010465l0 0.00415397zm-0.00271812 0.000162313l0 -0.0047383c0,-0.000151492 -0.00013318,-0.000324419 -0.000404119,-0.000519195 -0.000177712,-0.000129851 -0.000328789,-0.000227031 -0.000457599,-0.000291956 -0.000124232,-6.51334e-005 -0.000301944,-0.00012444 -0.000537299,-0.000178545l-0.00161231 0.000892307 0 0.00418644 0.0015324 0.000292164 0.00147892 0.000357089zm0.013857 -0.000633022c0,0.00048694 -0.000173342,0.000979082 -0.000519611,0.00147664 -0.000346477,0.000497761 -0.000843821,0.000916862 -0.00149224,0.00125772 -0.000648629,0.00034065 -0.00144355,0.000643635 -0.00238517,0.000908747 -0.000941625,0.000264904 -0.00203412,0.000472998 -0.00327769,0.00062449l-5.32721e-005 -0.000194568c0.000994898,-0.00024888 0.00183872,-0.000495056 0.00253167,-0.000738318 0.000692745,-0.00024347 0.00123462,-0.000489645 0.00162542,-0.000738318 0.000284256,-0.000194776 0.000501923,-0.000449067 0.000652791,-0.000762665 0.000151076,-0.000313806 0.000226614,-0.000659866 0.000226614,-0.0010386l0 -0.00454332c0,-0.000497761 -8.88561e-005,-0.000838411 -0.000266568,-0.00102216 -8.86481e-005,-6.49253e-005 -0.000186452,-0.000127145 -0.000292996,-0.00018666 -0.000106752,-5.9723e-005 -0.00025762,-0.000121735 -0.000453021,-0.00018666l-0.00207844 0.00100593 0 0.00455976 0.000799289 0.000519195 -0.00234501 0.00129809 -0.00210529 -0.0012007 0.00101259 -0.000616583 0 -0.00576046 -0.00151888 0 0 -0.000892307 0.00151888 0 0 -0.0015091c0,-0.000227239 -8.42781e-005,-0.000440743 -0.000253042,-0.00064093 -0.000168764,-0.000200186 -0.000457391,-0.000419101 -0.000866087,-0.000657161l0.000106544 -8.11567e-005c0.000355425,0 0.000719589,7.57462e-005 0.0010927,0.000227031 0.000266568,0.000108209 0.000559565,0.000270522 0.000879405,0.00048694l0.000106544 0c0.000284256,-0.000346268 0.000679427,-0.000621993 0.00118593,-0.00082759 0.000506085,-0.000205597 0.00109686,-0.000308395 0.00177192,-0.000308395l0.000106752 0.000113619c-0.000497553,0.000227239 -0.000870665,0.000473414 -0.00111934,0.000738318 -0.00024888,0.000265112 -0.000372904,0.000592444 -0.000372904,0.000981788l0 0.00314784 0.00391716 -0.00202829c0.000248672,0.000108209 0.000488397,0.000254291 0.000719381,0.000438246 0.00012444,9.71799e-005 0.000319841,0.000281135 0.000586201,0.000551657 0.000213296,0.000194776 0.000360003,0.000389344 0.000439703,0.00058412 7.99081e-005,0.000194568 0.00012007,0.000438038 0.00012007,0.000730202l0 0.00428362z"/>
 </g>
</svg>
