<?xml version="1.0" encoding="UTF-8"?>
<!DOCTYPE svg PUBLIC "-//W3C//DTD SVG 1.1//EN" "http://www.w3.org/Graphics/SVG/1.1/DTD/svg11.dtd">
<!-- Creator: CorelDRAW -->
<svg xmlns="http://www.w3.org/2000/svg" xml:space="preserve" width="1in" height="2in" style="shape-rendering:geometricPrecision; text-rendering:geometricPrecision; image-rendering:optimizeQuality; fill-rule:evenodd; clip-rule:evenodd"
viewBox="0 0 0.440376 0.476488"
 xmlns:xlink="http://www.w3.org/1999/xlink">
 <defs>
  <style type="text/css">
   <![CDATA[
    .fil0 {fill:#901E78}
   ]]>
  </style>
 </defs>
 <g id="Layer_x0020_1">
  <metadata id="CorelCorpID_0Corel-Layer"/>
  <path class="fil0" d="M0.131457 0.122264l0.0750097 0c0.0042054,0 0.0072182,0.00293766 0.00904119,0.00878653l0 0.0206415c0,0.00464793 -0.00474255,0.0094531 -0.0142499,0.0143947 0,0.000372947 -0.00436822,0.00328416 -0.0131283,0.0087587l0 0.000320067c0.0161884,0.0104411 0.0244114,0.0163693 0.0246451,0.0178389 0.00126078,0.00181603 0.00191483,0.00421932 0.00191483,0.00718341l0 0.0153549c0,0.00552741 -0.00228917,0.00937239 -0.00684386,0.0115628l-0.00247704 0.000320067 -0.0728138 0c-0.00474255,0 -0.00784859,-0.00333844 -0.00929724,-0.0100139l0 -0.0162636c0,-0.00638185 0.00235875,-0.010654 0.00710131,-0.0128444l0.0194364 -0.013138 0 -0.000320067c-0.014133,-0.00908016 -0.0222627,-0.0145004 -0.0243654,-0.0162636 -0.00196215,-0.00240328 -0.00296688,-0.00469942 -0.0030128,-0.00688979l0 -0.0190927c0,-0.00453938 0.00228917,-0.00787782 0.00684386,-0.0100139l0.00219594 -0.000321458zm0.0114932 0.0222446l0.0260242 0.0175188 0.0259992 -0.0175188 -0.0520234 0zm0.000840523 0.0606986l0.050366 0 -0.0249262 -0.0172238 -0.000537156 0 -0.0249026 0.0172238zm0.16149 -0.0829432c0.00506958,0 0.00817701,0.0036585 0.0093209,0.0109769l0.000818258 0.0844907c0,0.00427359 -0.00257028,0.00750487 -0.00766212,0.00969385l-0.0752908 0c-0.00506958,0 -0.00817562,-0.0036585 -0.00929724,-0.0109491l-0.000840523 -0.0844907c0,-0.00427359 0.00256888,-0.00750487 0.00768439,-0.00972168l0.0752672 0zm-0.0634929 0.0222446l0.000257445 0.00592819 0.000559421 0.0547704 0.0533788 0 -0.000279711 -0.00595463 -0.000537156 -0.0547439 -0.0533788 0zm-0.0923142 0.0880198l0.004801 0c0.00237684,0 0.00393404,0.0016727 0.00467158,0.00501948l0 0.0153799 0.00713053 0c0.00704982,-0.0104551 0.0115349,-0.0168926 0.0134539,-0.0193028 0.0009602,-0.000722238 0.00173393,-0.00109658 0.00233092,-0.00109658l0.00549123 0c0.0019204,0 0.00333704,0.00152519 0.00425132,0.00455051l0 0.00156554c0,0.00139299 -0.00160451,0.00410938 -0.004801,0.00816588l-0.00810326 0.0119121 0.0170846 0.0264765 -0.0113819 0c-0.000691623,-0.000762594 -0.00551489,-0.00785694 -0.0144851,-0.0212956l-0.00247008 0.000321458 -0.0127512 0 0 0.0205065 -0.000281102 0.000307542 -0.00919288 0 -0.000279711 -0.000307542 0 -0.0470234c0,-0.00227526 0.00114667,-0.00394795 0.00343028,-0.00501948l0.00110075 -0.000160033zm0.0524923 -4.03562e-005l0.0370498 0c0.00210687,0 0.00361815,0.00147231 0.00453103,0.00440301l0 0.0103479c0,0.00222099 -0.00210827,0.0044698 -0.00631088,0.00674506l-0.018806 0.0123949 -0.004801 -0.00957 0.0196257 -0.0131714 -0.026066 0 0 0.0412538 -0.000281102 0.000307542 -0.00919148 0 -0.000281102 -0.000307542 0 -0.0472238c0,-0.00227526 0.00114807,-0.00394795 0.00343028,-0.00501948l0.00110075 -0.000160033zm0.0470957 0l0.004801 0c0.00229613,0 0.00380601,0.00152519 0.00453242,0.00455051l0.000140551 0.00141943 0 0.0144294 0.0186641 0 0 -0.0144294c0,-0.0027985 0.00113554,-0.00473838 0.00343167,-0.00580991l0.00122878 -0.000160033 0.004801 0c0.00210687,0 0.00361815,0.00147231 0.00453103,0.00440301l0 0.0480003 -0.000281102 0.000307542 -0.00919148 0 -0.000269969 -0.000307542 0 -0.0207069 -0.0271653 0 0 0.0207069 -0.000281102 0.000307542 -0.00919148 0 -0.000281102 -0.000307542 0 -0.0472238c0,-0.00227526 0.00114807,-0.00394795 0.00343028,-0.00501948l0.00110075 -0.000160033zm-0.0303994 0.171996l0.00807682 0.0275591 0.0262719 -5.56638e-005 -0.0212831 0.0169775 0.00815753 0.027523 -0.0212232 -0.0170679 -0.0212427 0.0170679 0.0081784 -0.027523 -0.0212831 -0.0169775 0.0262719 5.56638e-005 0.00807542 -0.0275591zm0.0719065 -0.387811c-0.0276426,-0.0166727 -0.0222391,-0.0026496 -0.00570415,0.00979683 0.0192388,0.0138408 0.0124743,0.0270262 0.029506,0.0461495 0.00719315,0.00807264 0.0241456,0.00880879 0.0380476,0.0278931 0.00842193,0.0174979 0.0168272,0.0349986 0.0252407,0.0524965 2.78319e-005,-5.1489e-005 4.31394e-005,-0.000102978 6.40134e-005,-0.000153075 -0.000179516,0.00816449 -0.000133593,0.0163206 -0.000751461,0.0245074 -0.00134985,-0.00302394 -0.00279571,-0.00527554 -0.0042221,-0.00660729 -0.0139132,-0.0190607 -0.00651406,-0.0254119 -0.0121264,-0.0348831 -0.0132772,-0.0224339 -0.00873643,-0.000892012 -0.0168787,-0.0245603 0.000903145,-0.014602 -0.00973699,-0.0241692 -0.0107417,-0.00900223 -0.0723448,-0.0305845 -0.153217,-0.0308002 -0.225693,-0.000649875 -0.00109658,-0.0124965 -0.00918035,-0.00670192 -0.0105455,0.00463123 -0.000406346,0.000187865 -0.000812691,0.000371556 -0.00121904,0.000559421 7.79293e-005,0.00230726 0.000140551,0.00462149 0.000210131,0.00693571 -0.00694127,0.0196257 -0.00322015,0.000496799 -0.0160145,0.022086 -0.00560674,0.00946841 0.0018049,0.0158252 -0.0121291,0.0348831 -0.00140969,0.00133176 -0.00287503,0.00358614 -0.00421932,0.00660729 -0.000605344,-0.00818954 -0.000574729,-0.0163415 -0.000751461,-0.0245074 2.36571e-005,4.87058e-005 4.31394e-005,0.000101586 6.12302e-005,0.000153075 0.00842611,-0.0174979 0.0168327,-0.0349972 0.0252421,-0.0524965 0.0139132,-0.0190843 0.0308558,-0.0198191 0.0380476,-0.0278931 0.0170429,-0.0191233 0.0102741,-0.0323073 0.0295074,-0.0461495 0.0165475,-0.0124492 0.0219357,-0.0264667 -0.00568884,-0.00979404 -0.0651879,0.0168898 -0.0512844,0.0499986 -0.0647092,0.0732605 -0.00783885,0.0150181 -0.0156944,0.030039 -0.0235402,0.0450584 -0.000185082,-0.00169357 -0.000441136,-0.00338436 -0.000723629,-0.00507793 0.000171166,-0.024474 0.00955747,-0.0242179 0.010654,-0.0354648 0.00260228,-0.0266379 -0.00624826,-0.00678263 0.00104787,-0.0307821 0.0109992,-0.0129293 0.00467993,-0.031919 -0.00997217,-0.00379766 -0.0348845,0.0307668 -0.0138185,0.0428583 -0.011258,0.0702783 0.00219594,0.0162719 0.00183969,0.0508127 0.0031464,0.073408 -0.00109379,-0.00422627 -0.00261481,-0.00882689 -0.00669079,-0.015867 -0.00820345,-0.0227414 0.000574729,-0.0263986 -0.0022516,-0.0372739 -0.006688,-0.0257584 -0.0147314,-0.0205998 -0.0161745,-0.04586 0.00576538,-0.0165363 -0.00657668,-0.0315099 -0.0105372,0.000623434 -0.0188018,0.070821 0.00847203,0.0623448 0.0202171,0.0866824 0.00894517,0.0167131 0.0130935,0.0348386 0.0218035,0.0516226 0.00247565,0.0107417 0.00635541,0.0220276 0.0121236,0.0334066 -0.00136655,-0.000892012 -0.00305873,-0.00193849 -0.00519343,-0.00321458 -0.0171709,-0.0155121 -0.0148274,-0.0298205 -0.0202895,-0.0393974 -0.0106415,-0.0186919 -0.0115461,-0.0146869 -0.0239159,-0.0360159 -0.00222238,-0.0175397 -0.0154926,-0.028319 -0.0106346,0.00350543 -0.00267047,0.0633663 0.0231937,0.0627832 0.0490231,0.0802254 0.011034,0.00715141 0.0173643,0.0122947 0.025654,0.0182772 0.010302,0.0136112 0.023774,0.0269037 0.0411898,0.0390899 -0.000178124,2.50487e-005 -0.000393821,5.42722e-005 -0.000598386,8.34957e-005 -0.0265071,-0.0106986 -0.0242165,-0.0180267 -0.048337,-0.0215836 -0.019776,-0.00292096 -0.0266101,-0.00303646 -0.0395519,-0.0151656 -0.0111787,-0.0127192 -0.0266936,-0.0112204 -0.00575007,0.0113373 0.0317409,0.0529293 0.052317,0.0417882 0.0825118,0.0391052 0.0115057,-0.00194545 0.0478277,0.0105107 0.0549123,0.0086432 0.0117144,0.00734901 0.0249861,0.0158864 0.0380991,0.0247008 -0.0226426,0.0139285 -0.0449819,0.0285305 -0.0591637,0.040128 -0.00702755,0.00574729 -0.0129112,0.00880601 -0.0151072,0.0110813 -0.0174576,0.01414 0.0156874,0.0153117 0.025931,0.00333983 0.00118286,-0.000956026 0.00599499,-0.00663512 0.0145519,-0.0143209 0.0109004,-0.00978709 0.026862,-0.0216003 0.0439034,-0.033344 0.017047,0.0117423 0.0330142,0.0235583 0.0439062,0.033344 0.00857222,0.00768578 0.0133816,0.0133663 0.0145519,0.0143209 0.0102533,0.0119719 0.0433858,0.0108016 0.0259282,-0.00333983 -0.00218063,-0.00227526 -0.00807682,-0.00533398 -0.0151044,-0.0110813 -0.0141664,-0.0115976 -0.0365057,-0.0261982 -0.0591609,-0.040128 0.01312,-0.00881575 0.0263916,-0.0173504 0.0380963,-0.0247008 0.0071027,0.00186474 0.0434219,-0.0105886 0.0549137,-0.0086432 0.0302087,0.0026816 0.0507821,0.0138255 0.0825077,-0.0391052 0.0209574,-0.0225578 0.00543139,-0.0240565 -0.00575007,-0.0113373 -0.0129363,0.0121277 -0.0197648,0.0122474 -0.0395491,0.0151656 -0.0241122,0.00355552 -0.0218146,0.0108864 -0.0483384,0.0215836 -0.000186474,-3.20067e-005 -0.000400779,-5.70554e-005 -0.000596994,-8.34957e-005 0.0174214,-0.0121862 0.0308878,-0.0254787 0.041187,-0.0390899 0.00829251,-0.00598386 0.0146382,-0.0111244 0.0256582,-0.0182772 0.0258363,-0.0174436 0.0516964,-0.0168592 0.0490231,-0.0802254 0.00486362,-0.0318244 -0.00840523,-0.0210423 -0.010636,-0.00350543 -0.0123671,0.021329 -0.0132647,0.017324 -0.0239159,0.0360159 -0.00544114,0.00957556 -0.00311021,0.0238853 -0.0202895,0.0393974 -0.00212079,0.0012747 -0.00382689,0.00232535 -0.00519343,0.00321458 0.00577094,-0.0113805 0.00966602,-0.0226635 0.0121236,-0.0334066 0.00871556,-0.0167854 0.0128611,-0.0349068 0.0218035,-0.0516226 0.0117534,-0.024339 0.0390301,-0.01586 0.0202171,-0.0866824 -0.00394517,-0.0321347 -0.0162928,-0.0171584 -0.0105372,-0.000623434 -0.00144308,0.0252588 -0.00947537,0.0201044 -0.0161745,0.04586 -0.00281102,0.0108739 0.0059602,0.0145352 -0.0022516,0.0372739 -0.00407598,0.00703729 -0.00558725,0.0116435 -0.00669079,0.015867 0.00130671,-0.0225953 0.000962984,-0.0571347 0.0031464,-0.073408 0.00257584,-0.0274228 0.0236251,-0.0395102 -0.0112552,-0.0702783 -0.0146493,-0.0281241 -0.0209588,-0.00913025 -0.00997773,0.00379766 0.00731005,0.0239981 -0.00154884,0.00414417 0.00105065,0.0307821 0.00110632,0.0112441 0.0104857,0.0109922 0.0106527,0.0354648 -0.000264403,0.00169357 -0.000519065,0.00338575 -0.000720846,0.00507793 -0.00784442,-0.0150209 -0.0156944,-0.030039 -0.023543,-0.0450584 -0.013415,-0.0232619 0.000485667,-0.0563693 -0.064705,-0.0732605l1.25244e-005 -2.78319e-006zm0.0509505 0.142439c0.00676733,0.00593098 0.0159449,0.00965349 0.0239897,0.018472 0.00694406,0.00696076 0.00938492,0.0335875 -0.000385472,0.0654356 0.00123713,-0.0142652 0.00022683,-0.0236905 -0.0039563,-0.0321848 -0.00913999,-0.0185903 -0.0153395,-0.0181784 -0.020668,-0.0291372 0.000385472,-0.00732953 0.00071528,-0.0148845 0.00102004,-0.0225856zm-0.00582661 0.077882c0.00453799,0.00397579 0.0102046,0.00664904 0.0161926,0.0143724 0.00337323,0.00396744 0.00499583,0.00793905 0.00554829,0.0119371 -0.00552881,0.0122238 -0.0129502,0.0247495 -0.0225828,0.0368647 0.0023337,-0.00904954 0.00109936,-0.0198803 -0.00587253,-0.0348567 -1.25244e-005,-0.000134985 -2.36571e-005,-0.00026162 -3.33983e-005,-0.000393821 0.00282215,-0.00644587 0.00500417,-0.0160479 0.00674228,-0.0279223l5.56638e-006 -1.39159e-006zm-0.0353507 0.0638825c0.000981074,0.00918592 0.00668244,0.015405 -0.0113526,0.0392096 -0.00641386,0.00397857 -0.036784,0.0208823 -0.068806,0.0402324 -0.0320053,-0.0193529 -0.062381,-0.0362524 -0.0688088,-0.0402324 -0.0172947,-0.0228458 -0.0127401,-0.0294935 -0.0114807,-0.0381102 0.0246911,0.0245282 0.0595269,0.0515015 0.0794893,0.0531547 0.020032,-1.94823e-005 0.0560715,-0.0287684 0.0809477,-0.0542527l1.11328e-005 -1.39159e-006zm-0.189631 -0.034076c-0.0063582,0.014211 -0.00744364,0.0246229 -0.00520039,0.0333677 -0.00962288,-0.0121166 -0.0170345,-0.0246396 -0.02258,-0.0368647 0.000567771,-0.00399944 0.0021848,-0.00796966 0.00554829,-0.0119371 0.00538547,-0.0069371 0.010494,-0.00979961 0.0147773,-0.0131895 0.00189396,0.0125299 0.00430142,0.0224436 0.0074506,0.0286251l4.17478e-006 -1.39159e-006zm-0.0122878 -0.0824089c-0.00500835,0.008344 -0.0108948,0.00951851 -0.0192263,0.0264431 -0.00418313,0.0084929 -0.00518508,0.017921 -0.0039563,0.0321848 -0.00975508,-0.0318494 -0.00732396,-0.0584748 -0.000388255,-0.0654356 0.00746034,-0.00816449 0.0158739,-0.0119594 0.0224464,-0.017182 0.000327025,0.00819649 0.000693014,0.0162288 0.00111467,0.0239911l9.74116e-006 -1.39159e-006zm0.238251 -0.0717103c-0.002086,0.0704773 -0.00400501,0.144372 -0.0180072,0.15654 -0.0136223,0.022555 -0.0720707,0.0785917 -0.0992833,0.0786154 -0.0276886,-0.00229335 -0.0856582,-0.0560646 -0.0992819,-0.0786154 -0.0139911,-0.0121709 -0.0159101,-0.0860618 -0.0180086,-0.156539 0.0746368,-0.0349165 0.159953,-0.0349137 0.234581,-1.39159e-006zm-0.117085 0.228519c0.0240134,-0.000328416 0.0807362,-0.0532883 0.0943,-0.0757487l0.000527414 -0.000871138 0.000736154 -0.000641525c0.00284164,-0.0024673 0.00510019,-0.0108739 0.00598942,-0.0146201 0.00248817,-0.0104731 0.00379905,-0.0219427 0.00481909,-0.0327206 0.0013749,-0.0145241 0.00219176,-0.0291706 0.00284859,-0.0437587 0.000737545,-0.0163958 0.00124409,-0.0328068 0.00173254,-0.0492137 6.40134e-005,-0.00217367 0.000129418,-0.00434734 0.00019204,-0.00651962 -0.0710729,-0.0319663 -0.151628,-0.0319663 -0.222702,0 6.5405e-005,0.00217228 0.000129418,0.00434317 0.000194823,0.00651406 0.000489841,0.0164083 0.000997773,0.0328194 0.0017381,0.0492151 0.000658224,0.0145895 0.00147509,0.0292346 0.00284999,0.0437601 0.00102004,0.0107793 0.00233092,0.0222474 0.00481631,0.032722 0.000889229,0.00374617 0.0031464,0.0121556 0.00598386,0.0146243l0.000736154 0.000640134 0.000524631 0.000869747c0.00435013,0.00720011 0.0111188,0.0146493 0.0167284,0.0205817 0.00845533,0.0089396 0.0175035,0.0173713 0.0267896,0.0251559 0.0119329,0.0100056 0.03613,0.0286056 0.0511954,0.0300111z"/>
 </g>
</svg>
