<?xml version="1.0" encoding="UTF-8"?>
<!DOCTYPE svg PUBLIC "-//W3C//DTD SVG 1.1//EN" "http://www.w3.org/Graphics/SVG/1.1/DTD/svg11.dtd">
<!-- Creator: CorelDRAW -->
<svg xmlns="http://www.w3.org/2000/svg" xml:space="preserve" width="1in" height="2in" style="shape-rendering:geometricPrecision; text-rendering:geometricPrecision; image-rendering:optimizeQuality; fill-rule:evenodd; clip-rule:evenodd"
viewBox="0 0 0.116709 0.12414"
 xmlns:xlink="http://www.w3.org/1999/xlink">
 <defs>
  <style type="text/css">
   <![CDATA[
    .fil0 {fill:#00A03B}
   ]]>
  </style>
 </defs>
 <g id="Layer_x0020_1">
  <metadata id="CorelCorpID_0Corel-Layer"/>
  <path class="fil0" d="M0.0989362 0.00562247c0.000392639,-0.000552251 0.00173771,-0.00105895 0.00261738,-0.00168986 0.00119004,-0.000854105 0.00212215,-0.000878358 0.00212215,0.000807893 0.00279239,0.00109991 0.00358652,-0.000419514 0.00608427,0.00142438 0.000668929,0.000493585 0.00130148,0.00141815 0.00181866,0.00162332 0.000215001,8.48861e-005 0.00124117,0.000395917 0.0013336,0.000439834 0.000991758,0.000469659 -0.000229422,0.000601085 0.000834768,0.000812481 0,0.00126149 -0.00237747,0.00220474 0.000444095,0.00220474 0.000197958,0.000278256 0.00162922,0.00147912 0.00162922,0.00187405l0 0.00143323c0,0.000505056 -0.000870164,0.000638448 -0.00103666,0.00110254 8.94745e-005,0.000796422 0.0019255,0.00128116 0.0019255,0.00187405l0 0.000441145c0,0.000331678 -0.000787245,0.000733822 -0.00106681,0.000970127 -0.000312669,0.000264163 -0.000599774,0.000890812 -0.000784295,0.00118021 -0.000905233,0.00141979 -0.000666962,0.00102322 -0.000666962,0.00303132 -0.00106157,0.000211068 0.000152729,0.000258263 -0.000804287,0.00072399 -0.000568311,0.000276617 -0.000368714,5.47335e-005 -0.0010619,0.000532914 -0.000973076,0.00067024 -0.000651558,0.000877702 -0.000651558,0.00216115 -0.00185668,0.000368714 -0.00103404,0.00268784 -0.00176196,0.00386969 -0.000463104,0.000752831 -0.00268129,0.00285368 -0.00268129,0.00318601l0 0.000551268c0,1.31098e-005 0.000609279,0.00181866 0.000888846,0.00187405l0 0.00066139c-0.00033004,6.58768e-005 -0.000444423,2.58919e-005 -0.000444423,0.000331023l0 0.00165348c0,0.000305131 0.000114383,0.000265474 0.000444423,0.000331023 -0.000121594,0.000337578 -0.000888846,0.000987825 -0.000888846,0.00132278l0 0.000551268c0,0.000411976 0.00393458,0.00115629 0.00192518,0.00319749 6.55491e-007,0.00166954 -0.000574538,0.00208577 -0.00114875,0.00333415 -0.000521771,0.00113531 -0.000332006,0.00237517 -0.000332006,0.00383167 0.000315619,6.25994e-005 0.00444325,0.00476149 0.00444325,0.00529211l0 0.00198417c0,0.000295954 -0.000468676,0.000688593 -0.000888518,0.000771841 0.000286122,0.00079806 0.00145453,0.000440818 0.000628944,0.00189929 -0.000430985,0.000762336 -0.000498173,0.00130475 -0.000986842,0.00202383 -0.000676139,0.000995035 -0.0021605,0.00248759 -0.0021605,0.00379431 -0.0004536,9.013e-005 -0.00103633,0.00100815 -0.00103633,0.00110286l0 0.000440818c0,0.000457205 0.00103633,0.000644675 0.00103633,0.00110254l6.55491e-007 0.000440818c0,0.000265146 -0.000240237,0.00032414 -0.000444751,0.000551268 0.000376907,0.000382479 0.0019255,0.00140668 0.0019255,0.00209462l0 0.0016538c0,0.00151418 -0.00296216,0.0035934 -0.00296216,0.00429969l0 0.000771513c0,0.000246465 0.000444423,0.000318241 0.000444423,0.00143323 0.000254658,0.000100618 0.00103633,0.000521771 0.00103633,0.000771841l6.55491e-007 0.00352818c0,0.000426397 -0.00103699,0.000598136 -0.00103699,0.000992086l0 0.00154335 0.000319552 5.89942e-006 -4.78508e-005 0.00154237 -0.000271701 -4.91618e-006 0 0.00264622c0,0.000344788 0.000265802,0.000312341 0.000592236,0.000441145l0.000196647 0.00102945 0.000248103 -3.7363e-005c0,0.000429347 -0.00119627,0.00223916 -0.00145748,0.00244334 -0.000856399,0.000669912 -0.00150501,0.00109172 -0.00150501,0.00240729l-0.000315947 -8.84913e-005 -0.000910149 0.00179965 0.000189437 5.2767e-005c-0.000455238,0.000179605 -0.00251807,0.00270226 -0.00251807,0.00308703l3.27745e-007 0.00198483c0,0.000405093 0.000444095,0.000255969 0.000444095,0.00066139l0 0.000771513c0,0.000444423 -0.00126444,0.000708913 -0.00162922,0.00187438 -0.00227324,0 -0.00153877,-0.00296577 -0.00195599,-0.00449732 -0.000168133,-0.000618456 -0.00117202,-0.00135359 -0.00081707,-0.00230012 0.000166822,-0.00044344 0.000429347,-0.00215952 0.000847878,-0.00224276l-0.000179605 -2.29422e-005 0.000827557 -0.00360848 -0.000646642 -0.000228766c-3.27745e-007,-0.000488996 -0.000222867,-0.000999624 -0.000523737,-0.00151517 0.000193698,-0.00015699 0.00036052,-0.000331023 0.000500795,-0.000519149 0.000127493,-8.19364e-005 0.000253675,-0.000165511 0.000377235,-0.000250725 0.000668273,-0.000462121 0.000276289,-0.000161906 0.000787245,-0.00063091l0.000438196 -0.000402471 0.000121266 -0.000337578c4.03127e-005,-6.32549e-005 8.61971e-005,-0.000140603 0.000140275,-0.000237288 0.000299559,-0.000502434 0.000329712,-0.000715141 0.000329712,-0.00120512 0,-0.000821658 -0.000439179,-0.00158465 -0.00121856,-0.00209954 -0.000108812,-7.17763e-005 -0.000221884,-0.000137653 -0.000338233,-0.000196975 1.14711e-005,-0.000417876 -3.04803e-005,-0.000928831 -3.37578e-005,-0.00121069 -1.27821e-005,-0.00112286 0.000454911,-0.000970454 0.000454911,-0.00131524l0 -0.0016538c0,-0.000203858 -0.00133687,-0.00169281 -0.00148141,-0.00209462 0.000157646,-0.00140734 0.00254953,-0.00184226 0.00252004,-0.00451928 -1.63873e-005,-0.00149288 -0.00013667,-0.00186946 0.000359209,-0.00292939 0.000518166,-0.00110647 -0.000360848,-0.00257215 -0.000360848,-0.00269407l0 -0.0019845c0,-0.000439834 0.000429674,-6.71878e-005 0.000457533,-0.0010927 1.24543e-005,-0.000434918 -2.78584e-005,-0.00090425 -2.62196e-005,-0.00134245 3.6052e-006,-0.000973732 0.000541763,-0.00134867 0.00104944,-0.00186487l-0.000969471 -0.000608296 -6.68601e-005 -0.00358127 -0.000183537 6.06329e-005 -0.00140734 -0.00236599c0.000594203,-0.000840667 0.00115432,-0.00167773 0.00167937,-0.00249218l0.000183537 -0.000285139 0.00028055 -0.00103436c0.000420497,-0.000667945 0.000843289,-0.00136408 0.001173,-0.00205693l1.31098e-005 -2.72029e-005 1.21266e-005 -2.75306e-005c0.000203202,-0.000460155 0.00037363,-0.00093473 0.000465399,-0.00141947 0.000325779,-0.000714157 0.000614195,-0.00144011 0.000871803,-0.00217262 0.000327745,-0.000886224 0.000615178,-0.00178326 0.000875408,-0.00268456l7.89867e-005 -0.000273012 0 -0.000280878c0,-0.000137653 3.37578e-005,-0.000292021 6.65323e-005,-0.000426725l9.83236e-006 -3.99849e-005 8.19364e-006 -3.99849e-005c3.08081e-005,-0.000152729 0.000114055,-0.000332662 0.000181899,-0.000476214l0.000196975 -0.000417876 0 -0.000797077c0,-8.94745e-005 3.6052e-006,-0.000181571 2.32699e-005,-0.000269735 5.76832e-005,-0.00023401 0.000134376,-0.000468348 0.000215657,-0.000697442l7.37427e-005 -0.000207135 2.72029e-005 -0.000214673c7.17763e-005,-0.000567655 0.00017731,-0.00114383 0.000278256,-0.00170821 0.000151418,-0.000856399 0.000277273,-0.00172886 0.000321846,-0.00259214l2.62196e-006 -5.04728e-005 0 -5.08006e-005c0,-0.000372974 -1.14711e-005,-0.000758731 -7.89867e-005,-0.0011281l-4.26069e-006 -2.19589e-005c-3.6052e-006,-1.76983e-005 -7.2104e-006,-3.67075e-005 -9.50462e-006,-5.5389e-005 6.55491e-007,-0.00042017 1.31098e-005,-0.000840339 4.16237e-005,-0.00126018 3.57243e-005,-0.000526032 5.11283e-005,-0.0010537 5.11283e-005,-0.00158104 0,-0.00353474 -0.0018534,-0.00659424 -0.00472314,-0.00916573 -0.00113564,-0.00101273 -0.00237812,-0.00188224 -0.00372712,-0.00256985l0.000273012 -0.00296446 0.000266785 -1.96647e-005 -0.00211855 -0.00218049 -0.000105206 0.000191731 -0.00412074 -0.00115399 6.78433e-005 -0.000134376c-0.00207463,0.00113138 -0.00241319,0.000945546 -0.00481229,0.000385101 -0.00187372,-0.000437868 -0.000855088,-0.000300543 -0.00201695,-0.000930469 -0.000702359,-0.00038084 -0.000346099,-2.75306e-005 -0.00110909,-0.000169772 -0.000672861,-0.000125527 -0.000225489,-0.000243843 -0.000948168,-0.000387395l-1.50763e-005 0.000291038 -0.00399849 -0.000116677 1.50763e-005 -0.000284811 -0.000444423 0 0 -0.00066139c0,-1.70428e-005 0.00155089,-0.000951773 0.00183505,-0.0011694 0.000607968,-0.000466382 0.00103764,-0.000747915 0.00159252,-0.00124019 0.00145978,-0.00129558 0.00241581,-0.000897695 0.0054586,-0.000897695l0.00232175 -0.00144569 -9.99624e-005 -9.76682e-005c0.00244629,0 0.00403815,-0.000145847 0.00442686,-0.0016656 0.0004477,-0.00174885 0.00121561,-0.00208315 0.00386707,-0.00208315zm-0.0391007 -0.00297658c0.00155679,0 0.00174754,0.000175672 0.00269898,-0.000306114 0.000964555,-0.000488013 0.00153713,-0.000329712 0.00218442,-0.000579126 0.000675811,-0.000260558 0.00284581,-0.00176065 0.00355899,-0.00176065l0.000740377 0c0.00130082,0 0.000118316,0.00220507 0.00385101,0.00220507 0.000245809,0.000685316 0.00110286,0.000189109 0.00218082,0.00102224 0.000609279,0.000470315 0.00104256,0.00100749 0.00183275,0.00128181 0.00237222,0.000823624 0.00256887,0.000368058 0.00413222,0.00210609l-0.000117005 -7.89867e-005 -0.00105436 0.000870164 3.80185e-005 0.000365436 0.00518493 0.00100782 -5.2767e-005 0.000150107c0,0.000919654 -0.00038379,0.000879341 -0.00107107,0.00140865 -0.00115366,0.000888846 -0.00054078,0.000385101 -0.0018924,0.000574538 -0.00127231,0.000177966 -0.00245318,0.00132016 -0.00310899,0.00198614 3.27745e-007,0.00213297 -0.000525376,0.00189568 -0.00211101,0.00305885 -0.00128181,0.00094063 -0.00121692,0.00256231 -0.00233224,0.0027842l3.27745e-007 0.00143323c0.000369697,7.3415e-005 0.000907527,0.00157154 0.000918343,0.00187438 2.88416e-005,0.000811826 -0.000893434,0.00154893 -0.000918015,0.00186159l-0.00140111 0.000489652 -0.000198942 0.00192878c-0.000153713,0.000205169 -0.000394606,0.000449011 -0.000540452,0.000596169l-1.50763e-005 1.57318e-005c-0.0006237,0.000639431 -0.00125658,0.00135719 -0.00165282,0.00211232l-0.000332006 0.000632549 0.000114055 0.00061059 -0.000472937 0.000469332 -0.000480147 0.00119201c-0.000547663,-0.00261049 -0.00203301,-0.0049329 -0.00437311,-0.0069115 -0.00250463,-0.00211691 -0.00553628,-0.0034646 -0.00893598,-0.00413549l0.00104715 -0.000478836 0.000194681 -0.00412402 0.00030677 1.01601e-005 -0.00166364 -0.00142537 0.000170428 -0.00014978 0.00104879 -0.000307753c3.6052e-006,-0.000948495 -0.00131065,-0.00119758 -0.00196877,-0.00216378 -0.000578471,-0.000849189 -0.00157646,-0.00104256 -0.00276748,-0.00146797l-0.00101372 0.000788228 -0.00351081 -0.000928831 8.12809e-005 -0.000189765c-0.00179473,0 -0.00533176,0.000163545 -0.00533176,0.000992086l0 0.000220245c0,3.44133e-005 0.000838701,0.00162463 0.000888518,0.00176425 -0.000181571,0.000507022 -0.00148108,0.0010891 -0.00148108,0.00154335l3.27745e-007 0.000771513c0,0.000492929 0.000475886,8.8819e-005 0.000588303,0.000995363 0.000110122,0.000885896 8.61971e-005,0.000503417 0.000299887,0.00109959 -0.000856071,0.000467365 -0.00163447,0.000977009 -0.00285925,0.0011789 -0.00129296,0.000212707 -0.00198352,0.00075742 -0.00245416,0.00148043 -0.0008446,0.00129853 -0.00061059,0.00099733 -0.00061059,0.00285302l0 0.00138014c-0.000724318,0.000365436 -0.00141619,0.000744966 -0.00203333,0.00113367l-0.00139816 0.000512594 -0.000780034 0.00110909c-0.00026318,0.000175999 -0.00052046,0.000357898 -0.000771841,0.000544058 -0.000552907,0.0003969 -0.00105632,0.000857054 -0.00153614,0.00131229l-0.000879013 0.000834112 0.000672206 0.00367567 0.00148534 0.000313325c-0.000178294,0.000152402 -0.000352982,0.000307753 -0.000524393,0.000465726l-1.40931e-005 1.31098e-005c-0.000917032,0.00085771 -0.00172624,0.00178916 -0.00244138,0.00276748l-0.000823297 0.00112646 9.11132e-005 0.000150107 -0.000317585 0.00249578 0 0.000124871c0,0.000386412 3.93295e-005,0.000534881 0.000101929,0.000701703 0.000240565,0.00435508 0.00517313,0.00784819 0.00938827,0.0101949 -0.00342134,0.00297429 -0.00772037,0.00719106 -0.00901235,0.0112581 -0.00081707,-0.000383134 -0.0018711,-0.000954723 -0.0018711,-0.00130574l0 -0.00066139c0,-0.000476214 0.000592564,-6.75156e-005 0.000592564,-0.00143323 0.000335611,-6.65323e-005 0.000592236,-0.000105862 0.000592236,-0.000440818l0 -0.00231552c0,-0.000475886 -0.000592236,-6.71878e-005 -0.000592236,-0.0014329 0.000335611,-6.68601e-005 0.000592236,-0.000105862 0.000592236,-0.000441145l0 -0.00110254c0,-0.000312014 -0.000426069,-0.000394606 -0.000740377,-0.000551268l-0.0018416 -0.0068253c-0.000980942,-0.000421808 -0.000206807,-0.000770202 -0.000961278,-0.00178261 -0.000365108,-0.000490307 -0.000676467,-0.00120774 -0.00105501,-0.00175016 -0.000428691,-0.000613867 -0.002659,-0.00236173 -0.002659,-0.00298183l0 -0.00132278c0,-0.00086066 0.000592564,-4.09682e-005 0.000592564,-0.00154368l0.000396572 2.26144e-005 0.000285466 -0.00277371 0.00153549 -0.00360323 0.0011163 -0.00262295 0.0002209 4.71954e-005c-0.000206152,-0.000209757 -0.00103666,-0.00103109 -0.00103666,-0.00132311l0 -0.000330695c0,-0.000343805 0.000466054,-0.00019337 0.000454583,-0.00131524 -4.91618e-006,-0.000469659 4.26069e-005,-0.00111663 0,-0.00155909 -6.39104e-005,-0.000655491 -0.0012569,-0.00192747 -0.000454583,-0.00208708l0 -0.000330695c-0.000174033,-3.44133e-005 -0.00399915,-0.00210904 -0.00399915,-0.00253544l0 -0.000551596c0,-0.000253347 0.000576832,-0.000599447 0.000888518,-0.00066139l0 -0.00110254c-0.000902283,-0.000179277 0.000151746,-0.00297658 -0.00473953,-0.00297658l-0.000347082 -0.00041722c-0.00225259,-2.35977e-005 -0.00234764,-0.000123888 -0.00396113,-0.000344461 -0.000350688,-4.81786e-005 -0.00338659,-0.000781673 -0.00339315,-0.000781673l-0.00518362 0c-9.83236e-007,0 -0.00182325,0.000450978 -0.0019255,0.00066139 -0.00047687,-2.94971e-005 -0.000888846,-0.000197303 -0.000888846,-0.00055094l0 -0.0002209c0,-0.000415254 0.00273176,-0.00178425 0.00327123,-0.00197499 0.000618456,-0.000218606 0.00133425,-0.000557495 0.00219557,-0.000570605 0.00072104,-1.08156e-005 0.00253118,0.000248759 0.00253118,-0.000320535l0 -0.000330695 0.0019255 0c0.00130574,0 0.00123658,-0.00106288 0.00235715,-0.00122216 0.00133229,-0.000188781 0.00023401,-0.000327745 0.00164037,-0.000342494 0.00134671,-1.44208e-005 0.000877375,0.000351999 0.00148239,0.000351999l0.00325845 0c0.000414926,0 0.000179605,-0.000326762 0.00178261,-0.00032709 0.00113039,0 0.000827885,-4.06404e-005 0.00143815,-0.000472609 0.000739066,-0.000522754 0.00158137,-0.000452289 0.00225882,-0.0014057l0.00133327 0 0.00237878 -0.00176032 -0.000157318 -0.000113728c0.00159415,0 0.00296216,0.00128673 0.00296216,0.00187405l0 0.000331023 0.000444095 0c6.84988e-005,0 0.002053,0.000788228 0.00384773,0.000774135 0.00157875,-1.27821e-005 0.00316405,-2.62196e-006 0.00474281,-2.62196e-006l-0.000117005 8.02976e-005 0.00177474 0.00143487 7.57092e-005 -0.000138964 0.00868198 -0.00371106 0.00010029 0.000129787c0.000131098,0.000269735 0.0001701,0.000331023 0.000740377,0.000331023l0.00296249 0c0.000405421,0 0.00186028,-0.00124412 0.00207332,-0.00154368l0.00385068 -0.00066139zm0.011534 0.0658372c-0.000375269,0.000373958 -0.00171575,0.00154008 -0.00192223,0.0018439 -0.000242859,0.000356915 -0.000120938,0.00106386 -0.000120283,0.001564 1.96647e-006,0.00114252 -0.000224178,0.000554545 -0.000456549,0.00120348 0.000282844,0.000789211 0.000948168,0.000932108 0.000911132,0.00221064 -1.50763e-005,0.00051456 -0.000628288,0.00188454 -0.000911132,0.0021995l0.000969143 0.000608296 6.75156e-005 0.00214772c-8.06254e-005,1.60595e-005 -0.000148141,2.55641e-005 -0.000204841,3.57243e-005 -0.000111106,-0.000123232 -0.000233683,-0.000240893 -0.000367075,-0.000352654l-3.4741e-005 -2.91693e-005 -3.6052e-005 -2.85139e-005c-0.00075447,-0.000591581 -0.00171608,-0.000920965 -0.00276158,-0.000920965 -0.000610918,0 -0.00120545,0.000127165 -0.00172591,0.000390673 -0.000341511,0.000171083 -0.000640742,0.000390673 -0.000885241,0.000647625l-0.000724645 0.000430658 -0.00111991 0.00144995 1.11433e-005 4.62121e-005 -0.000617473 0.00079085 -7.76757e-005 0.000131426 -7.2104e-006 3.27745e-006 -0.00175147 0.0021582 -0.000782328 0.000836079 -2.32699e-005 -0.003715c0.00033004,-6.55491e-005 0.000444423,-2.58919e-005 0.000444423,-0.000330695l0 -0.0016538c0,-0.000925226 -0.00296216,-0.00293332 -0.00296216,-0.0036383l0 -0.000771841c0,-5.89942e-006 0.00146666,-0.00194615 0.00163414,-0.00253183 0.000408371,-0.00142569 0.000883602,-0.00074136 0.000883602,-0.00298019l0.00142012 -0.000929486c6.09607e-005,-0.00166429 0.000613212,-0.00120446 0.00066434,-0.00214903 9.47184e-005,-0.00172984 0.000498501,-0.00144274 0.000588631,-0.00220835 0.000404766,-0.00342592 -1.70428e-005,-0.00168494 0.00155351,-0.00413549 0.000979959,-0.0015286 -0.000587648,-0.00346984 -0.000670895,-0.00446979 -9.70127e-005,-0.00116055 -0.000422136,-0.000795766 -0.000431641,-0.0023247 -7.86589e-006,-0.0012143 -0.000743327,-0.00099143 -0.00164299,-0.00131295l4.19514e-005 -0.0015427 -4.19514e-005 -0.000882946 3.70352e-005 -0.00055094 -2.55641e-005 -0.000534553 0.000654508 -0.000622716 0.00231126 -0.00203432 3.17913e-005 -2.98248e-005c0.000605674,-0.000569622 0.00118414,-0.00115891 0.00172787,-0.00176884 -0.000625666,0.00296937 -0.00101339,0.00598627 -0.00126313,0.0089776l-8.32474e-005 0.000996674 0.000310703 0.000290383c-3.343e-005,0.00024417 -4.88341e-005,0.000489324 -4.88341e-005,0.000736772 0,0.000830507 0.000207791,0.00183472 0.000354621,0.002659 8.35751e-005,0.000481458 0.000175344,0.000963572 0.000266785,0.00144831l0.000151418 0.000804943 0.000333973 0.000261869 8.25919e-005 0.000324468c0.000255969,0.00100749 0.00071809,0.00196615 0.00132671,0.00286384 0.000670895,0.000989464 0.00152566,0.00192387 0.00240434,0.00279403l0.000553562 0.000548318 0.000710224 0.00018026 0.000212707 0.000295954 0.000551268 0.000303165c0.000160923,8.81635e-005 0.00032414,0.000176983 0.000488996,0.000265802zm-0.00146666 0.0161211c2.62196e-006,2.03202e-005 3.93295e-006,4.22792e-005 3.93295e-006,6.62046e-005l3.27745e-007 0.00118382c-0.000209102,-4.68676e-005 -0.000422792,-8.19364e-005 -0.000640415,-0.000105206l4.32624e-005 -8.61971e-005 0.000186159 -0.000422136c0.000153713,-0.000203858 0.000289399,-0.000416892 0.000406732,-0.000636482zm-0.00192124 0.0111178l0 0.000965866c0.00157875,0.000313652 9.93069e-005,0.00158072 0.00172296,0.00268653 0.00051456,0.000350032 0.00096095,0.000612556 0.00121331,0.0010809 0.000210413,0.000391 0.000448028,0.0011009 0.00091441,0.00119365 0,0.000532586 -0.000744638,0.00169608 -0.00103535,0.0020956 -0.000228439,0.000313652 -0.000766269,0.000557495 -0.000828868,0.000808548 -0.000145191,0.000580765 0.000531275,0.000339544 0.000531275,0.000844272l0 0.00187438c0,3.80185e-005 -0.000955378,0.00167838 -0.00102486,0.00199302 -0.000122577,0.000555201 -1.17988e-005,0.00209036 -1.17988e-005,0.00274716l-0.000979959 0.000597808c-5.67e-005,0.00123986 -6.22716e-005,0.00252692 -5.63722e-005,0.00381266 3.93295e-006,0.000755781 0.000186815,0.00132114 -0.000324796,0.00174295 -0.00111073,0.000915065 -0.00031103,0.000181899 -0.000836734,0.001251 -0.000647953,0.00131655 -0.00158203,0.0014021 -0.0022349,0.00219524 -0.000819691,0.000995363 -0.000243843,0.0024322 -0.00178785,0.0025279 -0.000572899,-0.000113728 -0.00133294,-0.00118644 -0.00133294,-0.00143323l0 -0.00132311c0,-0.000142242 0.000352982,-0.000295626 0.000453272,-0.0012061 5.04728e-005,-0.000460482 0.000212051,-0.000602724 0.000508333,-0.00105468 0.000570933,-0.000871148 0.000371336,-0.0013903 0.000371336,-0.0027003 0.000320207,-0.000125854 0.000740377,-0.000192059 0.000740377,-0.000551268l0 -0.00297658c0,-0.000544713 -0.00106124,-0.000457533 -0.00117825,-0.00143782 -0.00013667,-0.00114055 -0.000378218,-0.000555856 -0.000445078,-0.00198417 -3.17913e-005,-0.000685316 -0.00070072,-0.00144864 -0.00142471,-0.00199761 0.000378546,-0.00016289 0.000726284,-0.000371663 0.00103502,-0.000614195l0.000546352 -0.000428691 0.000211724 -0.000559789 0.00133818 -0.00195533 0 -0.000330695 0.000318569 -0.000596169 0.0002776 -0.000170755 0.000858693 -0.0021369 2.94971e-005 -0.00019337 3.343e-005 -3.67075e-005 0.000945546 -0.00207725 0.000503745 -0.000913099 0.000158629 -7.40705e-005 0.000351015 -0.000875736c9.99624e-005,-0.000242859 0.000282844,-0.000537503 0.000439179,-0.000789867zm-0.0288311 -0.0223398l-0.00104846 0.00333055 -0.000478508 0.000246465c-3.93295e-006,0.00106222 -0.000911132,0.0024417 -0.000905889,0.00340233 4.91618e-006,0.00081117 0.000299887,0.00319716 0.000901956,0.00331678l0.000240893 0.00201826 0.000351343 -3.37578e-005c0,0.000327418 6.06329e-005,0.00059453 0.000139292,0.000830179 -0.000127821,0.000138964 -0.000256297,0.000277928 -0.000384773,0.000415909l-0.000115694 0.000124543 -6.9482e-005 2.13035e-005 -0.00052046 0.000602396c-5.63722e-005,6.48936e-005 -0.000125199,0.000128148 -0.000192059,0.000187143 -0.000192387,0.000161579 -0.000376252,0.000329712 -0.000568638,0.000490963l-0.00023991 0.000201563 -0.000125527 0.000171083c-4.91618e-006,2.62196e-006 -9.50462e-006,5.24393e-006 -1.44208e-005,7.53815e-006l-0.000285466 0.000147813 -0.0006178 0.000515216 -0.000410337 0.000254003 -0.000105206 9.17687e-005c-0.000243515,9.96346e-005 -0.000477197,0.000214673 -0.000698753,0.00034741l-5.70277e-005 3.40855e-005 -5.50612e-005 3.63797e-005c-2.26144e-005,1.50763e-005 -4.49011e-005,2.98248e-005 -6.71878e-005,4.52289e-005l-0.000840995 0.000113072 -0.000753159 0.00104223c-4.91618e-005,3.67075e-005 -9.86514e-005,7.30872e-005 -0.000148469,0.000109467 -7.4726e-005,4.85063e-005 -0.000151091,9.63572e-005 -0.000230405,0.000139292l-0.00150665 0.000815103 9.43907e-005 0.00064402c-3.4741e-005,5.34225e-005 -7.27595e-005,0.000114383 -0.000116677,0.000186159l-1.21266e-005 2.0648e-005 -0.00193566 -0.00337217 -0.000233027 7.73479e-005 0 -0.00143323 0.00015699 8.35751e-005 0.00134245 -0.00139685c-0.000514233,-0.0005611 -0.00143553,-0.00154434 -0.00177736,-0.00211789 -0.000684005,-0.00114908 0.000277928,-0.0027098 0.000277928,-0.00296315l0 -0.00121299c0,-0.00043754 -0.00147518,-0.000782328 -0.00211298,-0.00129328 -0.000312341,-0.00025007 -0.00140701,-0.00137325 -0.00144175,-0.0016833 0.000132409,-0.000368386 0.000858365,-0.000658768 0.00117825,-0.00099733 0.000471298,-0.000498173 0.000179277,-0.000664668 0.000607968,-0.00131131 0.000224833,-0.000339217 0.0014293,-0.00208184 0.00166069,-0.00229192 0.000970454,-0.000882946 0.000997985,-0.00133458 0.000996346,-0.00289629 -3.27745e-007,-0.000471954 -3.27745e-006,-0.00094489 1.63873e-006,-0.00141684l0.000616817 0.000587648c0.000549301,0.000523082 0.00115727,0.00100061 0.00179539,0.00144929l1.50763e-005 1.04879e-005 1.50763e-005 1.04879e-005c0.000614851,0.000420497 0.00125494,0.000812153 0.00191797,0.00117956l0.00114219 0.000633532 0.000658441 -0.000161906 0.000603052 0.000384118 0.000828213 6.9482e-005c0.000832474,6.98098e-005 0.00166527,0.000137653 0.00249971,0.000186159l2.78584e-005 1.63873e-006zm-0.00152566 0.0248408c3.27745e-007,0.000151746 1.63873e-006,0.00030382 4.26069e-006,0.000456222 2.52364e-005,0.00146174 -0.000463104,0.000592236 -0.000468021,0.00185668 -2.29422e-006,0.000720712 0.000314963,0.00173672 -0.00043033,0.00188454l3.27745e-007 0.000331023c0.000573882,0.000113728 0.000786589,0.004966 0.000879669,0.0058496 8.48861e-005,0.000808876 0.000438851,0.000518166 0.000850827,0.00102027 6.03052e-005,7.30872e-005 0.000551268,0.00122478 0.000559134,0.00124052 0.000527998,0.00113367 -0.000726284,0.00173508 -0.000808876,0.00247317l0.000863282 0.00122282 0.000102584 8.84913e-005 -0.00131721 0.00057126 -9.2752e-005 -0.000118644c-6.65323e-005,-0.000185176 -0.00222211,-0.00178097 -0.00222211,-0.00220474l6.55491e-007 -0.000771841c0,-0.000490963 0.000591908,-0.000170428 0.000591908,-0.00066139l0 -0.00121266c0,-7.30872e-005 -0.00234928,-0.00224932 -0.00251741,-0.00231519l0 -0.000992413c-0.000882946,-0.000347738 -0.00104551,-0.00363994 -0.00103633,-0.00485162 1.21266e-005,-0.00157056 -0.000889501,-0.00355243 -0.000889501,-0.00485031l-0.000330695 4.26069e-005 -0.00016289 -0.00070367c3.4741e-005,2.16312e-005 6.98098e-005,4.29347e-005 0.00010619,6.32549e-005 0.000544058,0.000308409 0.00114449,0.000442784 0.00179277,0.000481458l0.000105534 6.55491e-006 0.000105534 0c0.000113728,0 0.000225489,-4.91618e-006 0.000337578,-1.17988e-005 0.000380513,-5.24393e-006 0.000461466,-3.40855e-005 0.00057126,-5.34225e-005 0.000513577,-6.52214e-005 0.00100487,-0.000197303 0.0014529,-0.000419186l5.89942e-005 -2.91693e-005 5.73555e-005 -3.17913e-005c0.000104551,-5.73555e-005 0.000204513,-0.000119299 0.000299887,-0.000185176 0.000242859,-9.53739e-005 0.000471298,-0.000211724 0.000683022,-0.000346427 1.90092e-005,0.000792489 0.000307753,0.00153483 0.000852466,0.00217099zm0.00419154 -0.0463045l-0.00145224 -0.000961278 -0.000355276 -0.000179932c-0.00607149,-0.00322272 -0.00909953,-0.00624453 -0.00909953,-0.00907658 0,-4.22792e-005 -1.5404e-005,-0.000105534 -4.65399e-005,-0.000179605 -3.08081e-005,-8.45583e-005 -4.62121e-005,-0.000147813 -4.62121e-005,-0.000190092l0.000185504 -0.00145814 0.000896056 -0.000465071 -0.000448028 -0.000739722c0.00066434,-0.000908511 0.00137489,-0.00171149 0.00213198,-0.00241942 0.000757092,-0.000697442 0.00154466,-0.00129984 0.00239451,-0.00178589l0.0015758 -0.000496534 0.000556184 0.000369697 7.70202e-005 0.000612884c-3.08081e-005,0.000105534 -7.70202e-005,0.000221884 -0.000123232,0.000348721 -0.000401816,0.000782001 -0.000586992,0.00137358 -0.000586992,0.00176458l0 0.000211396 7.70202e-005 0.0023247 0 0.00083444 0.000556184 0.000243187c4.62121e-005,0.000834768 0.000463432,0.00168002 0.00122052,0.00254658 0.000741688,0.000866559 0.00230208,0.00213428 0.00465005,0.00380381l0 0.00043328 0.00054078 0 0.00118972 0.00102486 0.0015758 -0.00120446 0.00149845 -0.000190092 0.0001701 -0.000623372 0.0015912 -0.00173312 0.000448028 -0.00043328 0.000185504 -0.000834768 0.000679744 -0.00012651c0,0 9.24242e-005,-9.53739e-005 0.000262524,-0.000306442 0.00106616,-0.00132114 0.00227095,-0.0026944 0.00363076,-0.00412107l0.00126674 -0.00126805 9.2752e-005 -0.000581093c0.000509972,-0.000581093 0.00100421,-0.00120446 0.00149845,-0.00188093 0.000479164,-0.000665651 0.000973404,-0.00143684 0.00149878,-0.0023034l0.000633204 -0.000496534 -0.000185504 -0.00070793c3.11358e-005,-6.35826e-005 4.65399e-005,-0.000126838 6.19439e-005,-0.00019042 1.5404e-005,-6.32549e-005 3.08081e-005,-0.000158301 3.08081e-005,-0.000306442 0,-0.000623372 -0.000525048,-0.0011517 -0.00156007,-0.00160595 -0.00105075,-0.000454255 -0.00244138,-0.000750209 -0.00420235,-0.000866559l-0.00185406 0.000243187 -0.00098848 0c-0.00148338,0 -0.00301264,0.000105534 -0.00460417,0.000327418 -0.0015758,0.000211396 -0.00329056,0.000549629 -0.00512889,0.00100388l-0.000865248 0.000464743c-0.00105075,0.000126838 -0.00205464,0.000327745 -0.00298183,0.000602396 -0.000942268,0.000274651 -0.00185373,0.000665651 -0.00276552,0.00116251l-0.00265703 -0.000560117 -0.000185504 -0.00101437c0.000478836,-0.000454583 0.000896056,-0.00082428 0.00126706,-0.00108844 0.000355276,-0.000264163 0.000725956,-0.000517838 0.00108123,-0.000739722l0.00058732 -0.000834768 0.00086492 -0.00031693c0.00108156,-0.000718418 0.00325976,-0.00178589 0.00651951,-0.00318044 0.00101962,-0.00043328 0.00182325,-0.000771185 0.00239484,-0.00102486 0.000834112,-0.000105862 0.00165282,-0.000221884 0.00240991,-0.000359209 0.000772496,-0.000126838 0.00154499,-0.000274978 0.00228668,-0.000444095l0.00118939 0.000370025 0.00211658 -0.000370025c0.00383134,0.000412304 0.00699835,0.00166954 0.00948594,0.00377235 0.00248726,0.00210282 0.00375432,0.0045963 0.00378513,0.00745982l-0.000278256 0.000739722 0.000278256 0.000380513c-0.000355604,0.00175409 -0.00100421,0.00341281 -0.00194648,0.00499779 -0.000927192,0.00157449 -0.00219393,0.00311719 -0.00380086,0.00462842l-0.00231716 0.00203923 -0.00185406 0.00176458 -0.00140603 0.00111991c-0.000154368,0.000137325 -0.000571588,0.000570605 -0.00126674,0.00127854 -0.000695148,0.000718746 -0.00128214,0.00128935 -0.0017613,0.00172263l0.00054078 0.000464743c0.00389329,0.00324402 0.00583977,0.00568475 0.00583977,0.00733331 0,0.000391 -0.00020058,0.00128902 -0.000586992,0.0026944l-4.62121e-005 0.000221884 -0.00122052 0.0015427 -0.000818708 0.000750209 -0.000865248 0.000898023c-0.00261082,0.00136309 -0.00519083,0.00241974 -0.00770923,0.00316995 -0.00251807,0.000750209 -0.00469659,0.00113072 -0.00653492,0.00113072 -0.000448028,0 -0.00105075,-2.13035e-005 -0.0017613,-6.32549e-005 -0.000726284,-4.22792e-005 -0.00152959,-0.000105862 -0.00240991,-0.000179932l-0.00112777 -0.000718418 -0.000772824 0.000190092c-0.000571588,-0.00031693 -0.00112777,-0.000654835 -0.00168396,-0.00103535 -0.000556184,-0.000391 -0.00105042,-0.000782001 -0.00148305,-0.00119398l0.00041722 -0.000560117 -0.00117431 -0.000560117c-9.24242e-005,-0.000327418 -0.000154368,-0.000570277 -0.000169772,-0.00070793 -1.5404e-005,-0.000147813 -1.5404e-005,-0.000295626 -1.5404e-005,-0.00043328 0,-0.00313816 0.00325976,-0.00743851 0.00976387,-0.0129122l0.00114318 -0.000961605zm0.00614883 0.00442751l-0.00244072 0.00152172 -0.00239484 0.00240893 -0.00380054 0.00309621 -0.000277928 0.000771185 -0.000448356 0.000623372 -0.000185176 0.00136309c9.2752e-005,0.000306442 0.00024712,0.000560117 0.000478836,0.000761025 0.000216312,0.000190092 0.00054078,0.000369697 0.000973404,0.000538814l0.00203923 0.000401488c0.000231716,2.09757e-005 0.000463432,4.22792e-005 0.00066434,5.2767e-005 0.000216312,1.04879e-005 0.000432624,1.04879e-005 0.000633204,1.04879e-005 0.000556184,0 0.00123626,-0.000116022 0.00203956,-0.000337906 0.000818708,-0.000232699 0.00183832,-0.000581421 0.00307425,-0.00105665l0.00222474 -0.00120479c0.00066434,-0.000718418 0.0011435,-0.00138407 0.00142143,-0.00198647 0.00029366,-0.000591581 0.000432624,-0.00120446 0.000432624,-0.00182784 0,-0.000803304 -0.000339872,-0.00159579 -0.00101994,-0.00239877 -0.000679416,-0.000792489 -0.00182292,-0.00170133 -0.00341412,-0.00273667zm0.0299251 0.00461761c0.000509972,0.000739722 0.00115858,0.00128902 0.00193108,0.00163774 0.000757092,0.000348721 0.00168396,0.000528326 0.00278092,0.000528326 0.00066434,0 0.00132868,-0.000105534 0.00200842,-0.000327418 0.000679744,-0.000211396 0.00165315,-0.000676467 0.00291988,-0.00137391l0.00122052 -0.00163774 0.00109696 -0.000528326 0.000355276 -0.00126805c0.00199302,-0.00142635 0.00378513,-0.00385658 0.00539174,-0.0072907 0.0015912,-0.00344461 0.00239484,-0.00669912 0.00239484,-0.00977403 0,-0.0013844 -0.000216312,-0.00273667 -0.000633532,-0.0040683 -0.00041722,-0.0013313 -0.000988808,-0.00239844 -0.00166855,-0.00320142 -0.00103502,-0.00132081 -0.00231716,-0.00227193 -0.00384675,-0.00284254 -0.00154499,-0.000560117 -0.00366157,-0.000866559 -0.00634974,-0.000908511 -0.000756764,0.000242859 -0.00154499,0.000538814 -0.00239451,0.000866231 -0.000849844,0.000327745 -0.00171509,0.000686955 -0.00262655,0.00108844 -0.00066434,0.000475559 -0.00123593,0.000972093 -0.00171476,0.00151091 -0.000494568,0.000538814 -0.000896056,0.00113072 -0.00122052,0.00176458l0.00054078 0.000718746c-0.00037068,0.000823952 -0.00071088,0.00177507 -0.00105075,0.00286351 -0.00032414,0.00107763 -0.000695148,0.00241974 -0.00108123,0.00400472 3.08081e-005,4.22792e-005 6.19439e-005,9.50462e-005 9.2752e-005,0.000158301 0.000185176,0.000306442 0.000262524,0.000539141 0.000262524,0.00070793 0,0.000327745 -0.000200908,0.00105665 -0.000633532,0.00216607 -7.70202e-005,0.000253675 -0.000138964,0.00043328 -0.000169772,0.000560117l0.000633532 0.000465071 -0.00046376 0.00278944 -0.000355276 0.000802976c0.000216312,0.000243187 0.00037068,0.000517838 0.000478836,0.000802976 0.000108156,0.000285466 0.000154696,0.000602396 0.000154696,0.000930142 0,0.00020058 0,0.000369697 -1.57318e-005,0.000475559 -1.5404e-005,0.000116022 -4.62121e-005,0.000221556 -7.70202e-005,0.000327418l0.000278256 0.000591581c3.08081e-005,0.000137653 6.16162e-005,0.000348721 9.24242e-005,0.000612884 0.0001701,0.00159579 0.000262524,0.00267342 0.000262524,0.00325451l0.000278256 0.000306442 0.000942596 0.00272619 0.000185176 0.000560117zm-0.00670502 -0.0244616l-0.000169772 -0.000644348 0.0015758 -0.00390968 0.000958 -0.000951117 -0.000185504 -0.000993069c0.000216312,-0.000412304 0.000633204,-0.000930142 0.00125133,-0.001564 0.0006178,-0.000623372 0.00100421,-0.00113072 0.00114318,-0.00150042l9.2752e-005 -0.000898023c0.000695148,-0.000243187 0.00118939,-0.000465071 0.00149845,-0.000644675 0.00029366,-0.000190092 0.000509972,-0.000391 0.000633532,-0.000623372l0.000896056 -0.000243187 0.00177671 0.000560117 -0.00091146 0.00191272 -0.000185504 0.0013313 0.00100421 -0.000591908 0.00194681 -0.00163774 0.00103469 -0.000242859 0.000278256 -0.000655163c0.00139062,-0.00082428 0.00261082,-0.00139488 0.00369238,-0.00172263 0.00106583,-0.00031693 0.00230208,-0.000475231 0.00372352,-0.000475231 0.00332137,0 0.0063032,0.00118349 0.00894483,0.00353965 0.00264196,0.00236698 0.00395523,0.00488177 0.00395523,0.0075447 0,0.000507022 -1.57318e-005,0.000993069 -4.65399e-005,0.00144732 -3.08081e-005,0.000454583 -4.62121e-005,0.000929814 -4.62121e-005,0.00142668 0,0.000105534 1.5404e-005,0.000242859 4.62121e-005,0.000401488 3.08081e-005,0.000169117 4.65399e-005,0.000422792 4.65399e-005,0.000771185 -3.11358e-005,0.000602396 -0.00012356,0.0013844 -0.00029366,0.002346 -0.0001701,0.00095079 -0.000262524,0.00156367 -0.000293332,0.00180686 -0.000123888,0.000348721 -0.00021664,0.000655163 -0.000278256,0.000908511 -6.19439e-005,0.000264163 -7.73479e-005,0.00050735 -7.73479e-005,0.000729234l0 0.000348721c-0.000154368,0.000327418 -0.000277928,0.000644348 -0.000339872,0.000951117 -7.73479e-005,0.00031693 -0.00012356,0.000612884 -0.00012356,0.000898023 -0.000262524,0.000908838 -0.00054078,0.00176458 -0.000834112,0.00255707 -0.000278256,0.000792489 -0.000586992,0.00155319 -0.000926864,0.00227193 -3.11358e-005,0.000337906 -0.000154696,0.000728906 -0.000355604,0.00118316 -0.000216312,0.000454583 -0.0006178,0.00115203 -0.00122052,0.00210282l-0.000277928 0.00102519c-0.00304344,0.00472314 -0.00602527,0.00814644 -0.00891435,0.0102597 -0.00290448,0.00211363 -0.00605608,0.00317028 -0.0094548,0.00317028 -0.0015758,0 -0.00290448,-0.000179932 -0.00401685,-0.000528326 -0.00109696,-0.000348721 -0.00250299,-0.000993397 -0.00423316,-0.00194451l-0.000448028 -0.000623372 -0.000957672 -0.000242859c-0.000896384,-0.000887535 -0.00160694,-0.00170133 -0.00210118,-0.00243023 -0.00049424,-0.000729234 -0.00083444,-0.00145847 -0.00101962,-0.00218737l9.24242e-005 -0.000771513 -0.000633204 -0.000496534c-6.16162e-005,-0.000327418 -0.000154696,-0.000802976 -0.000262524,-0.00142668 -0.000216312,-0.00121495 -0.000324468,-0.00198614 -0.000324468,-0.00231388 0,-0.000211396 1.5404e-005,-0.000422792 6.16162e-005,-0.000655163 4.65399e-005,-0.000221884 0.00012356,-0.000486047 0.000216312,-0.000771185l-0.000463432 -0.00043328c0.00037068,-0.004438 0.00101962,-0.00833719 0.00194648,-0.0117077 0.000942596,-0.00336037 0.00180784,-0.00525147 0.00258001,-0.00566377zm-0.0138679 0.056696c-0.000220573,0.00021074 -0.000686955,0.000491946 -0.0013903,0.000838045l-9.013e-005 4.85063e-005c-0.00013077,2.19589e-005 -0.000237288,5.44058e-005 -0.000318896,9.20965e-005 -7.37427e-005,4.32624e-005 -0.000163545,0.000118972 -0.000261869,0.000221556 -0.000556184,0.000275962 -0.00105501,0.000481458 -0.00149681,0.000611245 -0.000441473,0.000135031 -0.000842306,0.000199925 -0.00121036,0.000199925 -0.000507022,0 -0.00121856,-0.000259574 -0.00213493,-0.000778723 -0.000237288,-0.000135031 -0.000425086,-0.000248759 -0.000572571,-0.000329712 -1.60595e-005,-6.48936e-005 -6.52214e-005,-0.000124216 -0.000147158,-0.00017305 -7.37427e-005,-5.4078e-005 -0.000171739,-9.20965e-005 -0.000286122,-0.0001134l-0.000932436 -0.000476214c-9.83236e-005,-5.37503e-005 -0.000179932,-8.61971e-005 -0.000253675,-0.000107828 -7.37427e-005,-2.19589e-005 -0.000131098,-3.24468e-005 -0.000179932,-3.24468e-005 -6.52214e-005,0 -0.000138964,2.68751e-005 -0.000237288,7.53815e-005 -3.27745e-005,1.11433e-005 -5.70277e-005,2.19589e-005 -7.3415e-005,3.24468e-005 -0.000122577,9.73404e-005 -0.00032709,0.000243515 -0.000597152,0.000443767 -0.00063812,0.000475886 -0.00109598,0.00082723 -0.00136604,0.00104879l-0.000482441 0.000313652 -0.000188126 0.000173377c-0.000163545,4.29347e-005 -0.000294643,0.000107828 -0.000409026,0.000183537 -0.000114383,8.12809e-005 -0.000204513,0.000178621 -0.000286122,0.000292021 -0.000131098,8.68526e-005 -0.000261869,0.000167806 -0.000409026,0.000248759 -0.000139292,7.57092e-005 -0.00028645,0.000151746 -0.000433607,0.000211068 -0.00010619,7.57092e-005 -0.0002209,0.000162234 -0.000335284,0.000264818 -0.000106517,9.73404e-005 -0.0002209,0.000211068 -0.000335284,0.000340855 -0.000237288,0.000199925 -0.000499156,0.000351343 -0.000777085,0.000448684 -0.000278256,0.000102912 -0.000564378,0.000151418 -0.000850827,0.000151418 -0.000416892,0 -0.00078495,-0.000140603 -0.00110417,-0.000427052 -0.000318896,-0.000286777 -0.000474248,-0.000627305 -0.000474248,-0.00103305 0,-0.000102584 0,-0.000178294 8.19364e-006,-0.000221556 8.19364e-006,-3.80185e-005 2.45809e-005,-8.09531e-005 4.09682e-005,-0.000124543l0 -0.000410993c0,-0.00028645 4.88341e-005,-0.000589286 0.000155351,-0.000913754 9.79959e-005,-0.000318896 0.000245154,-0.000648936 0.000441473,-0.000989791l0 -0.000394606c6.55491e-005,-0.000329712 0.000179932,-0.000730217 0.000343805,-0.00121135 0.000171739,-0.00048113 0.000400505,-0.00107074 0.000686955,-0.00176819l-0.000335284 -5.96497e-005 -0.000359865 0.000535536c-0.00019632,0.000243187 -0.000343805,0.000427052 -0.000458188,0.000546024 -0.00010619,0.000124543 -0.0002209,0.000237943 -0.000335284,0.000340855 -0.000204513,9.73404e-005 -0.000384445,0.000199925 -0.000540125,0.000318896 -0.00014683,0.000113728 -0.000269735,0.000248759 -0.00036773,0.000394933l-0.00112876 0.000746276 -0.000163545 0.000124216 -0.000335284 0.00017305c-4.91618e-005,7.57092e-005 -0.000114711,0.000135359 -0.000179932,0.000183865 -7.37427e-005,4.88341e-005 -0.000163873,8.12809e-005 -0.000278256,0.000102584 -0.000147158,3.24468e-005 -0.000343477,0.000118972 -0.000597152,0.000254331 -6.52214e-005,3.24468e-005 -0.000106517,5.4078e-005 -0.000122577,6.48936e-005l-0.000474575 0.00015699 -0.000556184 0.000237615c-0.00010619,9.73404e-005 -0.0002209,0.000162234 -0.000335284,0.000200252 -0.00010619,3.24468e-005 -0.000228766,5.96497e-005 -0.000359865,7.04653e-005 -7.3415e-005,0.000124216 -0.000163545,0.000216312 -0.000261869,0.000270062 -9.79959e-005,4.88341e-005 -0.00023696,8.65248e-005 -0.00043328,0.000108156 -7.37427e-005,1.08156e-005 -0.000155679,2.19589e-005 -0.0002209,2.19589e-005 -7.37427e-005,5.24393e-006 -0.000138964,1.04879e-005 -0.000204513,1.04879e-005 -0.000179932,-1.04879e-005 -0.000294643,-3.24468e-005 -0.000351671,-6.45659e-005 -5.73555e-005,-3.24468e-005 -8.19364e-005,-9.73404e-005 -8.19364e-005,-0.000205824 0,-5.37503e-005 1.63873e-005,-0.000102584 4.91618e-005,-0.000156662 3.27745e-005,-5.4078e-005 8.19364e-005,-0.000108156 0.000138964,-0.00015699 6.55491e-005,-9.73404e-005 0.000131098,-0.000156662 0.000179932,-0.000183865 5.73555e-005,-2.68751e-005 0.000139292,-3.76907e-005 0.000253675,-3.76907e-005l-4.91618e-005 -0.000335284c0.000179932,-9.73404e-005 0.000343477,-0.000199925 0.000507022,-0.000308081 0.000155679,-0.000113728 0.000351999,-0.000254331 0.000572571,-0.000438196l0.000261869 -0.000362159 0.000482769 -6.48936e-005c0.000122577,-0.000167806 0.000277928,-0.000302837 0.000441473,-0.000410993 0.000171739,-0.000102912 0.000392639,-0.000194681 0.000679089,-0.00027039l0.000359537 -0.000313652 0.000384773 -0.000237943 0.000531603 -0.00044344c0.000188126,-9.73404e-005 0.000359865,-0.000200252 0.000498829,-0.000308409 0.000147158,-0.0001134 0.000286122,-0.000254003 0.000408699,-0.000421808 0.000213035,-0.000178294 0.00040116,-0.000351343 0.000589286,-0.000508333 0.000179932,-0.000156662 0.000335284,-0.000308081 0.000466054,-0.000459499l0.000409026 -0.000124543 0.00023696 -0.00055684c0.00063812,-0.000686955 0.00117792,-0.00128706 0.00160333,-0.00180621 0.000433607,-0.000513577 0.000785278,-0.000957345 0.00105501,-0.00133032 0.00019632,-0.000113728 0.000335611,-0.000232699 0.000433607,-0.000346099 9.83236e-005,-0.000118972 0.000147158,-0.000237943 0.000147158,-0.00036773 0,-2.16312e-005 -8.19364e-006,-5.4078e-005 -2.45809e-005,-0.000102912 -1.63873e-005,-4.85063e-005 -2.42532e-005,-8.09531e-005 -2.42532e-005,-0.000102584 0.00023696,-0.00044344 0.000613212,-0.00105993 0.00112056,-0.00184422 0.000515216,-0.000789211 0.000858693,-0.00135719 0.00103043,-0.00170329 0.000114383,-9.73404e-005 0.000204513,-0.000194681 0.000269735,-0.000302837 5.73555e-005,-0.000102584 9.013e-005,-0.000205496 9.013e-005,-0.000297593 0.00019632,-0.000362159 0.00041722,-0.000729889 0.000662374,-0.00110844 0.000245481,-0.00038379 0.00054799,-0.000800354 0.000899989,-0.00125461l0.000286122 -0.000205496 -0.000147158 -0.000254003c0.000277928,-0.000313652 0.000605346,-0.000762664 0.000981598,-0.00134671 0.000580437,-0.000875736 0.00108779,-0.00131393 0.00153778,-0.00131393 0.00043328,0 0.000858693,0.000248759 0.00128411,0.000746276 0.000416892,0.000491946 0.000629599,0.000957017 0.000629599,0.00138964 0,4.32624e-005 -1.63873e-005,0.000102912 -5.73555e-005,0.000167806 -4.06404e-005,7.01375e-005 -8.16086e-005,0.000129787 -0.00013077,0.000183865 -0.000147158,0.00054078 -0.000515216,0.0012923 -0.00110417,0.00225489 -0.000588959,0.00096816 -0.000981598,0.00167642 -0.00116972,0.00213067l-9.79959e-005 0.000129787 -0.000572571 0.000838373c-9.79959e-005,7.53815e-005 -0.000179932,0.000156662 -0.000253347,0.000254003 -7.37427e-005,9.73404e-005 -0.000139292,0.000221556 -0.000204841,0.000378546 -0.000212379,0.000308409 -0.000474248,0.000703014 -0.000801338,0.00118414 -0.000327418,0.000481458 -0.00054799,0.000805926 -0.000662701,0.000973404l-0.000261541 0.000238271c-0.000114711,0.000291693 -0.000204513,0.000518821 -0.000278256,0.00067024 -7.37427e-005,0.00015699 -0.000138964,0.000297593 -0.000204513,0.000438196 -8.98023e-005,7.01375e-005 -0.000163217,0.000151418 -0.000212379,0.000237943 -4.91618e-005,8.09531e-005 -7.37427e-005,0.000162234 -7.37427e-005,0.000237943l0 0.000108156c-0.000122577,0.000264818 -0.000400833,0.000859676 -0.000809859,0.00178457 -0.00041722,0.00092457 -0.000768563,0.00169248 -0.00105501,0.00230372l-0.00019632 0.000318896c0,0.00015699 -4.09682e-005,0.000318896 -0.000114711,0.000486702 -8.16086e-005,0.00017305 -0.000195992,0.000335284 -0.000335284,0.000492274 -3.27745e-005,9.73404e-005 -8.19364e-005,0.000232372 -0.000147158,0.000410993 -0.000188126,0.000562411 -0.000286122,0.000908511 -0.000286122,0.00104879 0,0.000124543 1.63873e-005,0.000211068 5.70277e-005,0.000254331 4.09682e-005,4.32624e-005 0.000114711,5.93219e-005 0.000229094,5.93219e-005 0.000155351,0 0.000318896,-3.76907e-005 0.000466382,-0.000124216 0.000155351,-8.65248e-005 0.000277928,-0.000189437 0.000368058,-0.000319224l0.000245481 -0.000140275 0.000187798 -0.000378546c0.00028645,-0.00033004 0.000711863,-0.000805926 0.00127624,-0.00142766l0.000261541 -0.00027039c0.000253675,-0.00110876 0.000588959,-0.00187667 0.000989791,-0.00230372 0.000408699,-0.00042738 0.000973076,-0.000643692 0.00169313,-0.000643692l9.79959e-005 0c0.000204513,-3.24468e-005 0.000376252,-8.65248e-005 0.000498829,-0.000162234 0.000131098,-8.09531e-005 0.000253675,-0.000216312 0.000384445,-0.000405421 0.000188126,-0.000211068 0.000564378,-0.000605674 0.0011127,-0.0011789 0.000556184,-0.000578799 0.000989464,-0.00104387 0.00130869,-0.00140603 0.000187798,-4.88341e-005 0.000310375,-9.17687e-005 0.000359537,-0.000118972 4.91618e-005,-2.72029e-005 7.37427e-005,-5.96497e-005 7.37427e-005,-0.000102912 0,-5.93219e-005 -8.19364e-006,-0.0001134 -2.45809e-005,-0.000156662 -1.63873e-005,-4.32624e-005 -4.09682e-005,-8.65248e-005 -7.3415e-005,-0.000124216 0.000351343,-0.000497518 0.000695148,-0.000892451 0.00103043,-0.00119004 0.000335611,-0.000297265 0.000597152,-0.00044344 0.000793472,-0.00044344 0.000237288,0 0.000474248,7.04653e-005 0.000719729,0.000205824 0.000237288,0.000135031 0.000351671,0.000297265 0.000351671,0.000475559 -2.45809e-005,0.00036773 -4.09682e-005,0.00063812 -4.09682e-005,0.000805926 0,0.000108156 -3.24468e-005,0.000194681 -8.98023e-005,0.000264818 -4.91618e-005,6.48936e-005 -0.000139292,0.000129787 -0.000245481,0.000195009 -3.27745e-005,0.000199925 -0.000106517,0.000372974 -0.0002209,0.000508006 -0.00010619,0.000135359 -0.000286122,0.000259574 -0.00052341,0.000362487l-9.83236e-005 0.000178294c-0.000147158,0.000221884 -0.000302509,0.00042738 -0.000482441,0.000616489 -0.000171739,0.000189437 -0.000368058,0.000356915 -0.000597152,0.000508333 -3.24468e-005,0.000113728 -8.98023e-005,0.000221884 -0.000163545,0.000324468 -8.19364e-005,9.73404e-005 -0.000212707,0.000205496 -0.000384445,0.000324468l-0.000335284 0.000237943c-0.000269735,0.000410993 -0.000498829,0.000741033 -0.000687282,0.000995035 -0.000179605,0.000254331 -0.000359537,0.000475886 -0.000539469,0.000665323 1.60595e-005,0.000199925 0.000220573,0.000508333 0.000605346,0.000918998 0.000204185,0.000200252 0.00036773,0.000368058 0.000474248,0.000492274 9.83236e-005,7.57092e-005 0.000237288,0.000167806 0.000408699,0.00028645 0.000670895,0.000465399 0.00121102,0.00069777 0.00160333,0.00069777 0.000229094,0 0.000466382,-4.32624e-005 0.000736116,-0.000129787 0.000261869,-8.09531e-005 0.000572571,-0.000216312 0.000924242,-0.000394606l0.000351671 -0.000302837c0.000131098,-4.32624e-005 0.000253675,-9.73404e-005 0.000376252,-0.000167806 0.000122905,-6.48936e-005 0.000253675,-0.000156662 0.000392639,-0.000275634l0.000433607 -9.20965e-005c0.000400833,-2.16312e-005 0.000736116,-0.000151418 0.00100618,-0.000389362 0.000269735,-0.000237943 0.00054799,-0.000362159 0.000842306,-0.000372974l0.000425414 -0.000221884c0.000163545,-6.48936e-005 0.000286122,-0.000108156 0.000376252,-0.000124216 8.16086e-005,-2.16312e-005 0.000179932,-3.24468e-005 0.000269735,-3.24468e-005 0.000163545,0 0.00028645,2.68751e-005 0.000359865,7.57092e-005 8.19364e-005,5.4078e-005 0.000122905,0.000135031 0.000122905,0.000237943 0,4.32624e-005 -1.63873e-005,9.73404e-005 -4.91618e-005,0.000167478 -3.27745e-005,7.04653e-005 -8.19364e-005,0.000146174 -0.000138964,0.000232699l-0.000147485 0.000248759c-0.000187798,0.000194681 -0.000392639,0.000362159 -0.000613212,0.000508333 -0.000212707,0.000151418 -0.000466382,0.000292021 -0.000752504,0.000427052 -1.63873e-005,0.00017305 -6.55491e-005,0.00028645 -0.000155679,0.000340855 -8.98023e-005,5.93219e-005 -0.000253347,8.65248e-005 -0.000490307,8.65248e-005 -0.000131098,0.000194681 -0.000278256,0.000351343 -0.000441801,0.000475886 -0.000171739,0.000129459 -0.000400833,0.000237943 -0.000687282,0.000335284zm0.00103076 0.012005l-0.00028645 -3.24468e-005 -0.000547663 -0.000616489 -4.91618e-005 -0.00044344 -9.83236e-005 -0.000508333c0.000147485,-0.00204939 0.000376252,-0.00394769 0.000686955,-0.00569425 0.00031103,-0.00174656 0.000597152,-0.00296872 0.000875408,-0.00366649l0.000163545 -0.000221884 -4.91618e-005 -0.000400177 0.000335284 -0.00129754 4.91618e-005 -0.000254331 0 -0.000156662c0,-5.4078e-005 -8.19364e-006,-9.73404e-005 -3.24468e-005,-0.000129787 -2.49087e-005,-2.72029e-005 -4.91618e-005,-4.32624e-005 -6.55491e-005,-4.32624e-005 -9.013e-005,0 -0.000212707,8.65248e-005 -0.000359865,0.000264818 -0.000139292,0.000183865 -0.000319224,0.00033004 -0.00052341,0.00044344l-0.000384773 0.000459827 -0.000596825 0.00028645c-0.000736444,0.000221884 -0.00139062,0.000470643 -0.0019632,0.000740705 -0.000580765,0.000265146 -0.00087508,0.000400177 -0.000891468,0.000400177 -0.000188126,0 -0.000343477,-4.85063e-005 -0.000449995,-0.000151418 -0.000114383,-9.73404e-005 -0.000171411,-0.000232372 -0.000171411,-0.000399849 0,-6.52214e-005 0.000195992,-0.00027039 0.000596825,-0.000622061 0.000400833,-0.000346099 0.000801665,-0.000627305 0.0012025,-0.000838045 0.000171739,-0.000167806 0.000359865,-0.000319224 0.00054799,-0.000449011 0.00019632,-0.000135031 0.000409026,-0.000254331 0.000645986,-0.000356915l0.00019632 -0.00028645c6.55491e-005,-7.57092e-005 0.000147158,-0.000167806 0.000261869,-0.000286777 0.000686955,-0.000697442 0.00117759,-0.00111401 0.00148862,-0.00124904l0.000400833 -0.000189437 -9.013e-005 -0.000162234 0.000188126 -0.000394606 0.000695148 -0.000681383 0.000720057 -0.000648936 0.00112876 -0.0012061 0.00143946 -0.00177343 0.000188126 -9.20965e-005 0.000384445 -0.000648936 0.000793472 -0.00101667 0.000188126 -0.000221884 0.000212379 -9.17687e-005 -4.88341e-005 -0.000205496 0.00019632 -0.000254003 0.000482441 -0.000286777 0.000335284 -0.000286777c4.09682e-005,-6.48936e-005 9.79959e-005,-0.000107828 0.000155351,-0.000135031 4.91618e-005,-2.68751e-005 0.000122905,-3.76907e-005 0.000204513,-3.76907e-005 0.00028645,0 0.000531931,8.65248e-005 0.000752504,0.000259574 0.000212707,0.000178294 0.000318896,0.000389362 0.000318896,0.000643364 0,0.000356915 -5.70277e-005,0.00069777 -0.000179932,0.00102191 -0.000114383,0.000319224 -0.000286122,0.000611245 -0.000515216,0.000865248l-0.000286122 0.000648936 -0.000695148 0.00139521 -0.000720057 0.00148731 -0.000449667 0.000886879 -0.000147158 0.000318896 -0.000335611 0.000616489 -0.000359865 0.000286777 0 0.000297265 -0.000138964 0.000410993 -0.00019632 0.000146174 -9.79959e-005 0.000475886 -0.000736444 0.00175737 -0.000384118 0.00110844 -0.00028645 0.00100061 -0.000605346 0.00151943 -0.000286122 0.000951773 -9.83236e-005 0.000378546 -0.000163545 9.73404e-005 -9.79959e-005 0.000237943 4.91618e-005 0.00015699c-0.000253675,0.00081117 -0.000458188,0.00154663 -0.000597152,0.00221163 -0.000147158,0.000659752 -0.0002209,0.00114121 -0.0002209,0.00144929l0 0.000140603 9.79959e-005 3.24468e-005 0.00019632 -0.000427052 0 -0.000319224 9.013e-005 -0.000108156 9.79959e-005 -0.000254003 9.83236e-005 -0.000384118 4.91618e-005 -0.000329712 0.000138964 -0.000221884 0.00019632 -0.000491946 0.000310703 -0.000254331 4.91618e-005 -0.000427052 0.000286122 -0.00042738 9.013e-005 -0.000221556 0.00019632 -0.000362487 0 -0.000351343 0.000409026 -0.000773479 0.000188126 -0.00055684 0.000147158 -0.000189109 4.88341e-005 -0.000238271 0.000646314 -0.00146011 0.000139292 -0.000378546 0.000645986 -0.00132999 0.000866887 -0.00136277c0.000122905,-0.000183865 0.000278256,-0.000416565 0.000458188,-0.00071383 0.000171739,-0.000297593 0.000302509,-0.000470643 0.000376252,-0.000524721l0.000147158 -0.000156662 0.000261869 -0.000557167 0.000335284 -0.000205496 0 -0.000281206c0.000335284,-0.000254003 0.000670567,-0.00044344 0.000997657,-0.000562411 0.000327418,-0.000124216 0.000662701,-0.000183865 0.00101437,-0.000183865 0.000449995,0 0.000826246,0.000102912 0.00114514,0.000308409 0.000310703,0.000205496 0.000564378,0.000524393 0.000776757,0.000957017l0.000474575 0.000616489 0.00050735 0.000475886 0.000335284 0.00042738 0.00023696 0.000335284 0.000360192 0.000410993c0.00013077,0.000264818 0.000335284,0.000459499 0.000613212,0.000584042 0.000278256,0.000129787 0.000654508,0.000194681 0.00113695,0.000194681 8.19364e-005,0 0.000425414,-0.000167806 0.00103076,-0.000492274 0.000605018,-0.000329712 0.00122675,-0.00063812 0.00187274,-0.000935386l0.000711863 3.24468e-005c6.55491e-005,8.09531e-005 0.000114383,0.000156662 0.000138964,0.00021074 2.45809e-005,5.96497e-005 3.27745e-005,0.000108156 3.27745e-005,0.000151418 0,0.000232372 -0.000490963,0.000719401 -0.00146437,0.00144929 -0.000973076,0.000735461 -0.00207758,0.00133589 -0.00330433,0.00180096l-0.000981598 6.45659e-005 -0.000531603 -6.45659e-005 -0.000695148 -0.000173377 -0.000474575 -0.000318896 -0.00045786 -0.00042738c-0.000155351,-0.000107828 -0.00032709,-0.000227128 -0.000498829,-0.000356587 -0.000179932,-0.000129787 -0.000368058,-0.000281206 -0.000580765,-0.000454255l-0.00052341 -0.000519149 -0.000556184 -0.000286777 -0.000425414 0.000124543 -0.00045786 3.24468e-005 -0.00028645 0.00036773 -0.000286122 0.000156662 -0.00019632 0.000351671c-0.000171739,0.00032414 -0.000441801,0.000778723 -0.000785278,0.00136244 -0.000351999,0.000578799 -0.000588959,0.00100061 -0.000695148,0.00126543l-0.000335611 0.00015699 -9.79959e-005 0.000621733 -0.000507022 0.000919326 -0.00083444 0.00183341 -0.000245481 0.00027039 -8.98023e-005 0.000589286 -0.000482769 0.00120053 -0.000359865 0.000221884 0 0.000254003 -0.000474248 0.000886879c-8.19364e-005,0.000118972 -0.000139292,0.000221884 -0.000163545,0.000308409 -1.63873e-005,9.17687e-005 -3.27745e-005,0.000178294 -3.27745e-005,0.000264818l-0.000932436 0.00136277c-6.55491e-005,8.09531e-005 -0.000114711,0.000162234 -0.000155351,0.000237943 -4.09682e-005,7.04653e-005 -7.37427e-005,0.000151418 -0.000106517,0.000237943 -0.00013077,0.000102584 -0.000277928,0.000189437 -0.00043328,0.000248759 -0.000163545,6.48936e-005 -0.000319224,9.73404e-005 -0.000482769,9.73404e-005 -8.98023e-005,-1.08156e-005 -0.000188126,-3.24468e-005 -0.000269735,-6.48936e-005 -9.013e-005,-3.24468e-005 -0.000229094,-9.73404e-005 -0.000425414,-0.000205496zm0.0187631 -0.012454l-0.000261541 0.000221884 -0.000286122 0.000270062 -0.000433607 9.73404e-005c-0.000654508,0.000232699 -0.00133327,0.000524721 -0.00203661,0.000887207 -0.000703342,0.000356587 -0.00118611,0.000535208 -0.00145585,0.000535208 -0.000131098,0 -0.000245481,-3.24468e-005 -0.000335611,-9.17687e-005 -9.79959e-005,-6.48936e-005 -0.000147158,-0.000146174 -0.000147158,-0.000238271 0,-0.000107828 4.91618e-005,-0.000205169 0.000147158,-0.000291693 9.013e-005,-9.20965e-005 0.000253675,-0.000178621 0.000474575,-0.000265146l0 -0.000286777c0.000335284,-0.000221556 0.000670567,-0.000475559 0.000997657,-0.00076758 0.00032709,-0.000286777 0.000564378,-0.000432624 0.00072825,-0.000432624l9.79959e-005 0 0.000400833 -0.000410993 0.000482441 -0.000205496 0.000188126 -0.000286777 0.000556184 -0.000221556 0.000237288 -0.000146174 0.000384445 -0.000221556 0.00054799 -0.000346099 0.000286122 -0.000762664 0.000458188 -0.000805598 -0.000212707 -0.000189437c0.000155351,-0.00038379 0.000441801,-0.000995035 0.000859021,-0.00183865 0.000204185,-0.000432624 0.000368058,-0.000762336 0.000482441,-0.00098422l0.000237288 -0.000156662 0 -0.000335284c0.00184029,-0.00314734 0.00412238,-0.00587812 0.00685414,-0.00820347 0.00273176,-0.00232535 0.00482572,-0.00353113 0.00628157,-0.00362847l0.000809859 3.24468e-005 4.91618e-005 -3.24468e-005c0.000621405,0.000135031 0.00103043,0.00028645 0.00122675,0.000448684 0.000188126,0.000167478 0.000286122,0.000410993 0.000286122,0.000741033 0,0.000189109 -4.06404e-005,0.000394606 -0.00010619,0.000616162 -7.37427e-005,0.000221884 -0.000179932,0.000470643 -0.00032709,0.000746276l-0.000310703 0.000265146 0.000122577 0.00028645 -0.000507022 0.00107632 -0.00028645 0.000221556 -0.000793472 0.00142766 -9.79959e-005 0.00027039 -0.000425414 0.000567983c-0.000163545,5.4078e-005 -0.000277928,0.000129459 -0.000351671,0.000232372 -7.37427e-005,9.73404e-005 -0.000122577,0.000286777 -0.000155351,0.000562411l-0.000695476 0.000410993 -0.000188126 0.00042738c-0.000686955,0.000783967 -0.00121856,0.00136244 -0.00158662,0.00173574 -0.000368058,0.000372974 -0.000654508,0.000632549 -0.000859021,0.000767908l-0.00054799 0.000319224 -9.79959e-005 0.000313325c-0.000580765,0.000465399 -0.00147223,0.00123855 -0.00268292,0.00231454l-0.000507022 0.000459827 -0.00103043 0.000746276 -9.79959e-005 0.000156662 -0.00206119 0.00170886 0 0.000146174c-0.000155679,0.000502762 -0.000302837,0.00111401 -0.000441801,0.00182784 -0.00013077,0.00071383 -0.0002209,0.00113564 -0.000253675,0.00127591l-0.000237288 0.00015699 0.000147158 0.000237943 4.91618e-005 0.000492274c0,9.17687e-005 2.45809e-005,0.000161906 8.19364e-005,0.000205169 5.73555e-005,4.35902e-005 0.000163545,7.04653e-005 0.000318896,8.12809e-005 6.55491e-005,0 0.00019632,-9.20965e-005 0.000400833,-0.000281206 0.00019632,-0.000183865 0.000376252,-0.000335284 0.000539797,-0.000448684l0.00112056 -0.00131426 0.000818053 -0.00104911 0.000163545 -0.000124216 0.000384445 -0.00058437 0.000384445 -0.000161906 0 -0.000346099 0.000645986 -0.000648936c9.83236e-005,-0.00033004 0.000368058,-0.000632877 0.000818053,-0.000914082 0.000449995,-0.000281206 0.000858693,-0.000416237 0.00124314,-0.000416237l4.91618e-005 0 0.000458188 -0.000146174c4.88341e-005,-1.08156e-005 9.79959e-005,-1.60595e-005 0.000155351,-2.16312e-005 5.70277e-005,-5.24393e-006 0.00013077,-1.08156e-005 0.000228766,-1.08156e-005 0.000417548,0 0.000687282,0.000292021 0.000809859,0.00087082 6.55491e-005,0.000275634 0.000122905,0.000486702 0.000171739,0.00063812 0.000253675,0.000767908 0.000629927,0.00136801 0.00111237,0.00178982 0.000490635,0.000421808 0.00104715,0.000632877 0.00166855,0.000632877 0.000155351,0 0.000302837,-2.72029e-005 0.000441801,-8.65248e-005 0.000138964,-5.96497e-005 0.000286122,-0.00015699 0.000441801,-0.000292021l0.000408699 2.68751e-005 4.91618e-005 -0.000205496 0.00116972 -0.000616489c0.00019632,-5.4078e-005 0.000368058,-9.73404e-005 0.000515216,-0.000135031 0.000155351,-3.80185e-005 0.00031103,-6.48936e-005 0.000474248,-8.65248e-005 0.000122905,-0.000146174 0.000270062,-0.000265146 0.000441801,-0.000346099 0.000163545,-8.65248e-005 0.000359865,-0.000146174 0.000588959,-0.000178621l0.000425086 -0.000248759c0.000147485,-5.4078e-005 0.000262196,-9.17687e-005 0.000335611,-0.000102584 8.16086e-005,-1.63873e-005 0.000188126,-2.72029e-005 0.000310703,-2.72029e-005 0.000147158,0 0.000261869,2.72029e-005 0.000351671,8.65248e-005 9.013e-005,5.96497e-005 0.00013077,0.000135359 0.00013077,0.000232699 0,5.93219e-005 -1.60595e-005,0.000124216 -4.88341e-005,0.000178294 -3.27745e-005,5.96497e-005 -9.013e-005,0.000124543 -0.000163545,0.000200252l-7.37427e-005 0.000205496c-0.000147158,0.000135031 -0.000310703,0.00027039 -0.000490635,0.000394606 -0.000188126,0.000129787 -0.000474575,0.000313652 -0.000875408,0.000557167 -3.24468e-005,0.000178294 -0.00010619,0.000308081 -0.000229094,0.000378546 -0.000122577,7.57092e-005 -0.000302509,0.000118972 -0.000539469,0.000129787 -0.000131098,0.000189109 -0.000294643,0.000356587 -0.000490963,0.000497518 -0.00019632,0.000140275 -0.000466054,0.000281206 -0.000801665,0.000421481l-0.000932108 0.000535536 -0.000556184 0.00027039c-0.000122905,0.000189109 -0.000400833,0.000356915 -0.000809859,0.000497518 -0.00041722,0.000146174 -0.00083444,0.000216312 -0.00125166,0.000216312 -4.88341e-005,0 -0.000122577,-5.24393e-006 -0.000228766,-1.63873e-005 -9.83236e-005,-1.08156e-005 -0.000253675,-2.68751e-005 -0.000466382,-4.85063e-005l-0.00052341 9.73404e-005c-0.000654508,-3.24468e-005 -0.00123495,-0.000167478 -0.0017423,-0.000405749 -0.000498829,-0.000237943 -0.000948495,-0.000589286 -0.00134933,-0.00105436l-0.000482769 -0.000427052 -0.000498829 0.000156662 -0.00112876 0.00101667 -0.000482441 0.000156662 -0.00031103 0.000524721 -0.00196287 0.00182226 -0.000858693 0.000475886 -0.000360192 0.00033004c-0.000212379,8.65248e-005 -0.000416892,0.000145847 -0.000629599,0.000189109 -0.000204513,4.32624e-005 -0.00041722,6.48936e-005 -0.000646314,6.48936e-005l-0.000188126 0 -0.000645986 -3.24468e-005c-0.00063812,-6.48936e-005 -0.00107959,-0.000297265 -0.00131688,-0.000697442 -0.000237288,-0.000400177 -0.000359865,-0.00134638 -0.000359865,-0.00283369 0,-0.00015699 3.24468e-005,-0.000421808 8.98023e-005,-0.000794783 0,-5.96497e-005 8.19364e-006,-0.000108484 2.45809e-005,-0.000140931l9.79959e-005 -0.000491946zm0.00525114 -0.00532128l0.00121889 -0.000902939 0.000147158 -0.000146174 0.00074431 -0.000708258 0.000981598 -0.000876064 0.00131688 -0.00120053 0.000335284 -0.00015699 7.3415e-005 -0.000221556 0.00028645 -0.000302837 0.000670567 -0.00055684 0.000163873 -0.000281206 0.000335284 -0.000254331c0.00125133,-0.00156269 0.00216738,-0.00276879 0.00274815,-0.00360684 0.000580765,-0.000838373 0.00087508,-0.00135752 0.00087508,-0.00155745 0,-0.000108156 -3.27745e-005,-0.000189437 -9.79959e-005,-0.000237943 -6.55491e-005,-5.4078e-005 -0.000155351,-8.12809e-005 -0.00028645,-8.12809e-005 -0.0002209,0 -0.000613212,0.000227128 -0.00117759,0.000681383 -0.000556184,0.000454255 -0.00132508,0.00118972 -0.00229848,0.00220114l-0.00162758 0.00149255 -4.91618e-005 0.000156662 -0.000384445 0.000302837 0 0.00015699 -0.00148862 0.00105993 0.000147158 0.00055684 -0.000147158 0.000237943 -0.000188126 9.17687e-005 -9.79959e-005 0.000254331 -0.00112056 0.00172492 -0.000147485 0.000162234 -9.79959e-005 0.000459827 -0.00083444 0.00155187z"/>
 </g>
</svg>
