<?xml version="1.0" encoding="UTF-8"?>
<!DOCTYPE svg PUBLIC "-//W3C//DTD SVG 1.1//EN" "http://www.w3.org/Graphics/SVG/1.1/DTD/svg11.dtd">
<!-- Creator: CorelDRAW -->
<svg xmlns="http://www.w3.org/2000/svg" xml:space="preserve" width="1in" height="2in" style="shape-rendering:geometricPrecision; text-rendering:geometricPrecision; image-rendering:optimizeQuality; fill-rule:evenodd; clip-rule:evenodd"
viewBox="0 0 0.14642 0.119541"
 xmlns:xlink="http://www.w3.org/1999/xlink">
 <defs>
  <style type="text/css">
   <![CDATA[
    .fil0 {fill:#00923F}
   ]]>
  </style>
 </defs>
 <g id="Layer_x0020_1">
  <metadata id="CorelCorpID_0Corel-Layer"/>
  <path class="fil0" d="M0.0719543 0.0596863c0,0.00144878 -0.00116609,0.00263525 -0.00348241,0.00355965 -0.00233218,0.000924172 -0.0054422,0.00138626 -0.00932916,0.00138626 -0.00383871,0 -0.0069809,-0.000462086 -0.00945895,-0.0013926 -0.00244566,-0.000918056 -0.00367676,-0.00211699 -0.00367676,-0.00359091 0,-0.0013738 0.00155501,-0.00266039 0.0046485,-0.00385932 -0.00309348,-0.00152375 -0.0046485,-0.00319134 -0.0046485,-0.00498985l0 -0.00999827c0,-0.00169862 0.00119848,-0.00307265 0.00357958,-0.00412185 0.00241327,-0.00104898 0.00555523,-0.00157358 0.00945895,-0.00157358 0.00380632,-2.26513e-007 0.00691589,0.000524604 0.00931307,0.00157358 0.00239718,0.00104921 0.00359566,0.00242323 0.00359566,0.00412185l0 0.00999827c0,0.000930514 -0.000356305,0.0017924 -0.00106914,0.00259176 -0.000712609,0.000799364 -0.0018787,0.00159873 -0.00349849,0.00239809 0.00304524,0.0011491 0.00456763,0.00244792 0.00456763,0.00389693zm-0.00777437 -0.00888678l0 -0.00999827c0,-0.00172376 -0.00171697,-0.00258542 -0.00515067,-0.00258542 -0.00174913,0 -0.00301262,0.000199784 -0.00379001,0.000605695 -0.000842175,0.000418369 -0.00126326,0.00108047 -0.00126326,0.00197972l0 0.00999827c0,0.000955431 0.000388696,0.00170496 0.00116586,0.00225448 0.000777618,0.00054952 0.0020735,0.00101161 0.00388741,0.00138626 0.00186261,-0.000399569 0.00319089,-0.000874113 0.00398436,-0.00142363 0.000777618,-0.00052483 0.00116631,-0.00126168 0.00116631,-0.00221711zm0 0.00873682c0,-0.000574436 -0.000453705,-0.00104921 -0.00137674,-0.00142386 -0.00097174,-0.000349736 -0.00221892,-0.000524604 -0.00377393,-0.000524604 -0.00150631,0 -0.00270502,0.000174868 -0.00361197,0.000524604 -0.000955431,0.000374652 -0.0014413,0.000849423 -0.0014413,0.00142386 0,0.000574436 0.000453479,0.00104921 0.00136044,0.0014302 0.000890875,0.00036831 0.00212175,0.000555636 0.00369284,0.000555636 0.00149,0 0.00272087,-0.000187326 0.00367653,-0.000555636 0.000988275,-0.000381221 0.00147415,-0.000855765 0.00147415,-0.0014302zm0.0387588 0.000149951c0,0.00144878 -0.00119848,0.00263525 -0.00359566,0.00355965 -0.00239696,0.000924172 -0.00550698,0.00138626 -0.00931307,0.00138626 -0.00383871,0 -0.00694851,-0.000462086 -0.00936177,-0.0013926 -0.00244566,-0.000892913 -0.00367676,-0.00207961 -0.00367676,-0.00355331l0 -0.0196658c0,-0.00145489 0.0012311,-0.00264159 0.00367676,-0.00355942 0.00241327,-0.000905598 0.00552306,-0.00135523 0.00936177,-0.00135523 0.00367653,-2.26513e-007 0.00675393,0.000462086 0.00923221,0.0013926 0.00244566,0.00091783 0.00367653,0.00209207 0.00367653,0.00352227l0 0.0196656zm-0.00777437 -0.00082428l0 -0.0180608c0,-0.000974231 -0.000421087,-0.00164856 -0.00126326,-0.00202344 -0.000842401,-0.000374652 -0.00213828,-0.000561978 -0.00388741,-0.000561978 -0.00174913,0 -0.00301262,0.000199784 -0.00379001,0.000599579 -0.000842175,0.000424485 -0.00126349,0.00108658 -0.00126349,0.00198584l0 0.0180608c0,0.00172965 0.00171697,0.00259153 0.00515067,0.00259153 0.00336892,0 0.0050535,-0.000861881 0.0050535,-0.00259153zm-0.0312635 0.0150984l-0.0043538 0 0 -0.00133325c0,-0.000172603 -0.000106461,-0.000290389 -0.000327537,-0.000353133 -0.000238971,-5.32305e-005 -0.000734581,-7.97325e-005 -0.00146916,-7.97325e-005l-0.00409716 0 0 0.00176612 -0.00424779 0 0 -0.00176612 -0.00366362 0 -0.00255756 -0.000875472 0.00622117 0 0 -0.00587031 0.00424779 0 0 0.00587031c0.00201755,-0.000319157 0.00350415,-0.000695168 0.00446004,-0.00113007 0.000955884,-0.000423579 0.0014336,-0.000932327 0.0014336,-0.00152692l2.26513e-007 -0.00321331 0.0043538 0 0 0.00321331c0,0.00116994 -0.00146894,0.00205674 -0.00440726,0.00265699 0.00162863,7.58818e-005 0.00277002,0.000212695 0.00345138,0.000408176 0.000637407,0.000207033 0.000955884,0.000514864 0.000955884,0.00092304l0 0.00131038zm0.0195927 -0.00507072c0,0.000752022 -0.000831981,0.00142069 -0.00248711,0.00200554 -0.00170745,0.000592557 -0.00416784,0.00107865 -0.00738885,0.0014567l0 0.00160847 -0.00435426 0 0 -0.00888768c0.000566282,0 0.0017967,9.85331e-005 0.00366384,0.000298091 0.00280513,0.00029424 0.00508838,0.000677953 0.00684952,0.00114887 0.0024776,0.000660964 0.00371685,0.00145104 0.00371685,0.00237zm-0.00435403 0.00010261c0,-0.000668439 -0.000920548,-0.00127232 -0.00276096,-0.00181165 -0.000593237,-0.000174641 -0.00151356,-0.000376011 -0.00276096,-0.000603883l0 0.00470399c0.00124741,-0.000218358 0.00216773,-0.000410215 0.00276096,-0.000577381 0.00184042,-0.000518261 0.00276096,-0.00108817 0.00276096,-0.00171108zm0.0224596 0.0049681l-0.00424757 0 0 -0.00176612 -0.00552193 0 0 0.00176612 -0.00424779 0 0 -0.00176612 -0.00371685 0 -0.00249549 -0.000875472 0.00621234 0 0 -0.00587031 0.00424779 0 0 0.00587031 0.00552193 0 0 -0.00587031 0.00424757 0 0 0.0085119zm0.038429 -0.0166843c0.000899709,-0.000238518 0.00172512,-0.000395491 0.00231949,-0.000407723l0.0040727 -8.26772e-005 -0.000925984 0.00369692c-0.000301942,0.00122045 -0.000952486,0.00167438 -0.00151922,0.00261509 -0.000343393,0.000632877 -0.00059301,0.00128025 -0.000867317,0.00194325 -0.000591651,0.00143473 -0.00135976,0.00288532 -0.00186397,0.00433817 -0.000675008,0.00195934 -0.00189659,0.00376759 -0.00344549,0.005285 6.56887e-006,0 9.06051e-006,0 1.17787e-005,0 0.000272948,-7.24841e-006 0.000542045,-8.38097e-006 0.000816352,-8.38097e-006l0.00441858 0 -0.000285859 0.00319066c-0.000172603,0.00193102 -0.0018001,0.00269663 -0.00310889,0.00381244 -0.000492212,0.0004904 -0.00114548,0.00128863 -0.00154255,0.00183996 -0.00114661,0.00160009 -0.0027741,0.00350325 -0.00423579,0.00485779 -0.000773088,0.000713062 -0.00158038,0.00133008 -0.00242686,0.00185808 7.92795e-006,2.49164e-006 1.83475e-005,4.98328e-006 2.62755e-005,6.11584e-006l0.00394313 7.79204e-005 -0.00103448 0.00362375c-0.000523698,0.0018377 -0.00171493,0.00208097 -0.00322486,0.00275145 -0.000481793,0.000304207 -0.00120686,0.000609772 -0.00157902,0.00090288 -0.0011679,0.000949089 -0.00244135,0.00172082 -0.00366384,0.00259697 -0.00193827,0.0013883 -0.00398232,0.00254804 -0.00623431,0.00323551 0.00118489,0.000746133 0.00218404,0.00165513 0.0024896,0.00272835l0.00106461 0.00370552 -0.00550539 0c-0.00095611,5.3457e-005 -0.00369782,0.00101002 -0.00459776,0.00140166 -0.00131264,0.000571945 -0.00343643,0.00107095 -0.00489539,0.00138377 -0.000600712,0.000167846 -0.00126168,0.000354039 -0.0018599,0.000354039l-0.00208981 2.80876e-005c0.000762669,0.000788491 0.00137267,0.00161345 0.00160122,0.00241168l0.00106053 0.00370666 -0.000836965 0 3.76011e-005 0.000411347 -0.00371979 -0.000290842c-0.000884306,-6.81803e-005 -0.00167438,-0.000479528 -0.0024477,-0.000511013 -0.000467522,2.67285e-005 -0.000935271,8.8793e-005 -0.00140166,0.000121637 -0.00151243,0.000105781 -0.00302485,0.000239651 -0.00454,0.000265246l-7.92795e-006 0 -0.00351344 9.24172e-005 -0.000869809 -0.000139985c-0.000604789,-5.45896e-005 -0.00120188,-0.00015199 -0.00179353,-0.000286992l-0.00275598 -0.000440567 -0.000466163 -0.000646241c-0.000173735,-8.8793e-005 -0.000371028,-0.000176453 -0.000568094,-0.000260263l0.000164448 0.00181663 -0.00765409 0 -0.000433545 -0.00181188c-0.000837191,-0.00110742 -0.00200101,-0.00288645 -0.00293108,-0.00373588 -0.000931194,0.000854406 -0.00210159,0.00264182 -0.00293742,0.00374924l-0.000458462 0.00179851 -0.0076174 0 0.000159238 -0.00181663c-0.000195707,8.38097e-005 -0.000390508,0.00017147 -0.000562884,0.000260263l-0.000467522 0.000646241 -0.00275983 0.000440567c-0.000588027,0.000135002 -0.00118625,0.000232402 -0.00178832,0.000285859l-0.00087366 0.000141117 -0.00352001 -9.24172e-005c-0.00151265,-2.55959e-005 -0.00302916,-0.000159465 -0.00453773,-0.000265246 -0.000470241,-3.28444e-005 -0.000936404,-9.49089e-005 -0.00140551,-0.000121637 -0.000773088,3.14853e-005 -0.00156452,0.000442832 -0.00244362,0.000511013l-0.00372251 0.000290842 3.64686e-005 -0.000411347 -0.00083855 0 0.00106597 -0.00370666c0.000228551,-0.000798231 0.00083855,-0.00162319 0.00159737,-0.00241168l-0.0020624 -2.80876e-005c-0.000623137,0 -0.00128659,-0.000186194 -0.00188866,-0.000354039 -0.00145376,-0.000312814 -0.00357777,-0.000811822 -0.0048929,-0.00138377 -0.000897217,-0.000391641 -0.00365977,-0.0013482 -0.00457941,-0.00140166l-0.00552102 0 0.00106053 -0.00370552c0.000308284,-0.00107322 0.00130494,-0.00198221 0.0024896,-0.00272835 -0.00225176,-0.000687466 -0.00429196,-0.00184721 -0.00623431,-0.00323687 -0.00122385,-0.000874792 -0.00249481,-0.00164652 -0.00366362,-0.00259561 -0.000372387,-0.000293108 -0.00109859,-0.000599806 -0.00158061,-0.00090288 -0.00150858,-0.000670478 -0.00269573,-0.000913753 -0.0032235,-0.00274896l-0.00104083 -0.00362624 0.0039497 -7.79204e-005c1.17787e-005,-1.13256e-006 2.08392e-005,-3.6242e-006 2.98997e-005,-6.11584e-006 -0.000847611,-0.000528001 -0.00165875,-0.00114502 -0.00242935,-0.00185808 -0.00145897,-0.00135455 -0.00309031,-0.00325771 -0.00423715,-0.00485779 -0.000395718,-0.000551332 -0.00105011,-0.00135205 -0.00154119,-0.00184132 -0.00131015,-0.00111693 -0.00293764,-0.00188119 -0.00311002,-0.00381357l-0.000280876 -0.00318817 0.00441745 0c0.000270456,0 0.000538194,1.13256e-006 0.000804573,8.38097e-006 7.92795e-006,0 1.31377e-005,0 1.97066e-005,0 -0.00154663,-0.00151741 -0.00276663,-0.00332566 -0.00344571,-0.005285 -0.000504217,-0.00145285 -0.0012721,-0.00290344 -0.00186375,-0.00433931 -0.000270456,-0.000662097 -0.000518714,-0.00129837 -0.000860749,-0.00193351 -0.000577381,-0.00096132 -0.00122,-0.00140325 -0.00152556,-0.0026237l-0.000923493 -0.00369692 0.00407383 8.26772e-005c0.00059301,1.22317e-005 0.00141593,0.000169205 0.00231587,0.000407723 -0.000574889,-0.00152488 -0.000505577,-0.00258587 -0.000949542,-0.00416285 -0.000574889,-0.00201415 -0.000134549,-0.00359838 -0.000377597,-0.00550154 -0.00010329,-0.000833567 -0.000184155,-0.00166487 -0.000283367,-0.00249844 -7.18046e-005,-0.000406364 -0.000207712,-0.000749531 -0.000329123,-0.00112667l-0.0039198 -0.00475314 0.003537 0.000212922 -3.12588e-005 -0.000636501 0.00404756 0.000871395c0.000479528,0.000102157 0.000645335,0.00017147 0.000832208,0.000266379 -4.71147e-005,-0.000316438 -7.18046e-005,-0.00062291 -7.18046e-005,-0.000915112l-2.87671e-005 -0.00383441 0.000875019 -0.00723935 1.83475e-005 -0.000686107 -0.000974458 -0.00667578 0.00418754 0.00210498 0.001003 0.00033841c0.00110765,0.000374879 0.00255235,0.00173531 0.00376827,0.00309824 0.00010329,-0.00286222 0.00157268,-0.00546394 0.00289189,-0.00798163 0.00121592,-0.00232674 0.00201143,-0.00350574 0.00265541,-0.0060941l0.000744547 -0.00296664 0.00208981 0.000524377 0.00058395 -0.000374879 0.00149272 0.00101976c0.000134549,7.54288e-005 0.00024554,0.000154708 0.000339769,0.000233761 0.000748398,0.000514637 0.00138966,0.00135432 0.00192785,0.00236434 0.000489721,-0.000881135 0.00110493,-0.00174256 0.00187168,-0.00258949 0.0014302,-0.00158219 0.00273106,-0.00311772 0.00445913,-0.0044478 0.000581232,-0.000445324 0.00120029,-0.00116813 0.00171765,-0.00169998 0.000807065,-0.000913979 0.00115454,-0.00203454 0.00227124,-0.0027963l0.00069109 -0.000469787 0.00105917 -0.000104649 0.00303278 -0.000755647 7.0672e-005 0.000452573 2.21983e-005 -1.13256e-006 4.96063e-005 0.000499008 0.000884306 0.00585173 -8.49423e-005 0.0027929 -8.8793e-005 0.000547481c0.000892234,-0.000324819 0.0017215,-0.000561978 0.00240194,-0.000670478 0.00035268,-8.51688e-005 0.000702643,-0.000165354 0.00105804,-0.000239651 0.00284341,-0.000660738 0.00597835,-0.00110493 0.00884646,-0.00153326 0.00193578,-0.000321195 0.00398776,-0.000654622 0.00594823,-0.000764254 0.000166034,-1.31377e-005 0.000332974,-2.31043e-005 0.000499008,-2.53694e-005l7.83734e-005 -2.71815e-006 7.83734e-005 2.49164e-006c6.52357e-005,1.35908e-006 0.000134549,-1.13256e-006 0.000203635,-1.13256e-006l0.00592354 0 -0.00329553 0.0045853c-0.00144198,0.00200781 -0.00317911,0.00370666 -0.00479754,0.00557448 -0.000805706,0.000933459 -0.0021342,0.00181074 -0.00321558,0.00249821 -1.04196e-005,9.74005e-006 -2.35573e-005,1.83475e-005 -8.74339e-005,6.09319e-005 -0.000757685,0.000523245 -0.00152443,0.00101251 -0.00235505,0.00142748 -0.000180304,0.000105781 -0.000364459,0.000211563 -0.000545896,0.000318703l-0.000520073 0.000723935c0.00152443,0.000920095 0.0027587,0.00201053 0.00310481,0.00321399l0.000309643 0.00108296 0.00716415 0c0.00201415,0 0.00402694,7.24841e-006 0.00602796,1.58559e-005 0.00201778,-8.60749e-006 0.00402672,-1.58559e-005 0.00604223,-1.58559e-005l0.00716415 0 0.000308284 -0.00108318c0.000347471,-0.00120346 0.00158559,-0.00229367 0.00310843,-0.00321354l-0.000520979 -0.000724161c-0.000181663,-0.000107141 -0.000368536,-0.000214055 -0.000548614,-0.000318703 -0.000830622,-0.000415198 -0.00159873,-0.000906731 -0.00235754,-0.00143224 -5.48161e-005,-3.64686e-005 -5.61752e-005,-3.78276e-005 -6.93129e-005,-4.64351e-005 -0.00108273,-0.000689958 -0.00241893,-0.00157087 -0.00323007,-0.00250795 -0.00161821,-0.00186782 -0.00335148,-0.00356667 -0.00479482,-0.00557448l-0.00329553 -0.0045853 0.00592354 0c8.8793e-005,0 0.000181437,1.35908e-006 0.00027023,3.6242e-006 0.000300582,-9.74005e-006 0.000175094,-9.74005e-006 0.000591651,2.31043e-005 0.00196069,0.000110765 0.00401131,0.000443059 0.0059181,0.00076063 0.0028971,0.00043196 0.00603204,0.000876151 0.00887545,0.00153689 0.000349962,7.42962e-005 0.000705361,0.000154482 0.00105668,0.000239651 0.000676594,0.0001085 0.00150858,0.000345658 0.00239809,0.000670704l-8.74339e-005 -0.000547708 -8.49423e-005 -0.0027929 0.000875019 -0.0058019 5.88933e-005 -0.000549973 2.6049e-005 2.26513e-006 6.52357e-005 -0.000452573 0.00303301 0.000755647 0.00106438 0.000104649 0.000689731 0.000469787c0.00111399,0.000761762 0.00146939,0.00189093 0.00226218,0.00278656 0.000517355,0.00052936 0.00114276,0.00126439 0.00172535,0.00171108 0.00173078,0.00132623 0.00302644,0.00286335 0.004458,0.00444645 0.000770596,0.000846931 0.00138581,0.00170836 0.00187168,0.00258949 0.000542045,-0.00101002 0.0011833,-0.0018497 0.00192649,-0.00236434 9.53619e-005,-7.92795e-005 0.000210204,-0.000158332 0.000344979,-0.000233761l0.00149295 -0.00101976 0.000578514 0.000374879 0.00209366 -0.000524377 0.000742056 0.00296664c0.000647827,0.00258836 0.0014379,0.00376759 0.0026579,0.0060941 0.00132057,0.00251905 0.00278475,0.00512077 0.00289302,0.00798163 0.00121615,-0.00136542 0.00265677,-0.00272472 0.00376827,-0.00309824l0.000996883 -0.000337051 0.00418845 -0.00210634 -0.000972872 0.00667578 2.21983e-005 0.000686107 0.000869809 0.00723935 -2.33308e-005 0.00382603c0,0.000294467 -2.62755e-005,0.000604789 -7.58818e-005,0.000925984 0.000180078,-9.49089e-005 0.000351321,-0.000166713 0.000833341,-0.000268871l0.00400339 -0.000862787 -2.21983e-005 0.000631518 0.00360223 -0.000219038 -0.0039497 0.00476039c-0.000120052,0.000376011 -0.000258678,0.000716913 -0.000327991,0.00111965 -9.92126e-005,0.000833567 -0.000181437,0.00166827 -0.000287218,0.0025007 -0.000237838,0.00190316 0.000198425,0.00348762 -0.000372387,0.00550154 -0.000449175,0.00157585 -0.000378729,0.00263819 -0.000953166,0.00416285zm-0.036392 -0.0535223l6.34236e-006 -6.31971e-005 0.000167393 1.69885e-005c0.000336824,0.000227645 0.00124718,0.00182909 0.00179194,0.00238767 0.000576022,0.000592557 0.00141978,0.00151741 0.00205447,0.00200645 0.00156883,0.00120097 0.00274941,0.0026323 0.00405299,0.00407179 0.00310866,0.00342918 0.00311795,0.0071091 0.00263729,0.0124963 4.98328e-006,4.12253e-005 7.70143e-006,8.15446e-005 1.29112e-005,0.000120505 0.000950901,0.00130924 0.00267625,0.00275372 0.0038557,0.00421042 0.000580099,0.000721443 0.00289325,0.00350574 0.0033542,0.00447567 2.62755e-005,1.92536e-005 4.96063e-005,3.64686e-005 6.79538e-005,5.09654e-005 0,-0.0016549 -0.00462902,-0.00810191 -0.00462902,-0.0105942l2.26513e-007 -0.00117787c0,-0.00268078 0.00133461,-0.00788785 0.00280536,-0.00889176 7.92795e-006,3.6242e-006 2.10657e-005,2.19717e-005 3.14853e-005,4.98328e-005 9.40028e-005,-9.96656e-005 0.000178945,-0.000164222 0.000252109,-0.00018121 0.000812275,0.00325386 0.00153077,0.0041069 0.00289687,0.00671588 0.000926211,0.00177314 0.00257704,0.00457193 0.00257704,0.00701533l2.26513e-007 0.00170134c0,0.000576702 -0.000700378,0.00371753 -0.000893593,0.00413726 -0.000165807,0.000352907 -0.00149295,0.00349736 -0.00149295,0.0035789 0,4.98328e-005 0.00232629,0.00472279 0.00262279,0.00540165 0.00037216,0.000854406 0.000884306,0.00207372 0.00113891,0.00286357 0.000197293,0.000615662 0.000361741,0.00090288 0.000535476,0.00146259 0.000159465,0.000526869 8.63014e-005,0.000928476 0.000258678,0.00117311 0.000484511,-0.00099054 -0.000628346,-0.00905847 -0.000628346,-0.0106393 0,-0.00217339 0.00132578,-0.00460704 0.00230409,-0.00596385 0.000624496,-0.000866411 0.0033243,-0.00408878 0.00415628,-0.00436875 0,7.18046e-005 -1.35908e-006,0.000141344 -2.71815e-006,0.000210657 4.96063e-005,-3.05792e-005 9.808e-005,-5.73077e-005 0.000142477,-7.9053e-005l-0.000171244 0.00117288 3.14853e-005 0.00105034 0.000865958 0.00719042 -2.35573e-005 0.00366407c0,0.00171697 -0.00149816,0.00447816 -0.00229888,0.00557471 -0.000493571,0.000672743 -0.00290344,0.00367472 -0.00364686,0.00406658l-9.12846e-005 0.000104875c3.66951e-005,0.000962453 0.000787585,0.00436128 0.000997789,0.00554164 0.000286086,0.00161232 5.75342e-005,0.00440862 0.000373746,0.0058993l3.12588e-005 0c0,-0.00207961 0.000323913,-0.00412752 0.000552465,-0.00602592 0.000309643,-0.00261033 0.000356531,-0.00327334 0.00141457,-0.00521931 0.000788944,-0.00144674 0.00501703,-0.00574368 0.00703753,-0.00630453 0.000110991,-5.48161e-005 0.000198425,-9.12846e-005 0.000261169,-0.000105781l-1.13256e-006 5.23245e-005c2.6049e-005,-3.85072e-006 5.61752e-005,-6.11584e-006 8.35832e-005,-7.47492e-006l-9.01521e-005 0.000109632c-6.41031e-005,0.000781243 -0.000453252,0.00135319 -0.000542045,0.00207961 -9.808e-005,0.000829943 -0.000186873,0.00172422 -0.000282235,0.00248371 -0.000227192,0.00180214 0.000160598,0.00349124 -0.000289936,0.00509133 -0.000547255,0.00192626 -0.000204994,0.00256163 -0.00110244,0.00446728 -0.000439888,0.000934365 -0.0015908,0.00250433 -0.00234962,0.00317231 -0.000425844,0.00037352 -0.000939122,0.000977176 -0.00141978,0.00142499 -0.000577155,0.000536609 -0.00100458,0.000812954 -0.00155184,0.00129973 -0.00172014,0.00151605 -0.00191992,0.000417237 -0.00227917,0.00324162 -0.000198425,0.00158582 -0.000604789,0.00322849 -0.000855539,0.00469108 -0.000212922,0.00123042 -0.000828131,0.00268327 -0.00116903,0.00388809 0.000577381,-0.000473412 0.0021564,-0.00418618 0.0024178,-0.00481521 0.000748398,-0.00178651 0.00143156,-0.00348513 0.00265405,-0.00485054 0.00140529,-0.00157109 0.00244906,-0.0020735 0.004335,-0.00315532 0.000919642,-0.00052936 0.00451145,-0.00188255 0.00581254,-0.00190928l0 0c-0.000132057,0.000529134 -0.00095747,0.00138354 -0.00126847,0.00195798 -0.000426977,0.000788491 -0.000631971,0.00132872 -0.000995071,0.00221348 -0.000546122,0.00133484 -0.00148003,0.00322464 -0.00191879,0.00448903 -0.00100436,0.00290231 -0.00356055,0.00534706 -0.00630362,0.00668303 -0.00161685,0.000788491 -0.00272064,0.00140438 -0.0046485,0.00194461 -0.0012995,0.000362647 -0.00116767,0.000421087 -0.00167053,0.00158446 -0.000274307,0.000641258 -0.00071193,0.00159035 -0.00105283,0.00215618 -0.000727333,0.00119871 -0.00172014,0.00292428 -0.00233671,0.00410351 -0.000481793,0.000925984 -0.00238744,0.00321739 -0.00254691,0.00377098 0.00144855,-0.00090288 0.00251429,-0.00255529 0.00364935,-0.00379409 0.00116382,-0.00127187 0.00225448,-0.00269663 0.00354221,-0.00389058 0.00257975,-0.0023922 0.00610497,-0.00332679 0.0110253,-0.00342306 0.000241689,-7.24841e-006 0.000489721,-8.38097e-006 0.000734128,-8.38097e-006l0.000140891 0 0.000699018 0 0.000140891 0c-4.05458e-005,0.000481793 -0.00177767,0.00156724 -0.00221258,0.00199082 -0.000408856,0.000394132 -0.00156996,0.00178628 -0.00191743,0.00227056 -0.000892007,0.00124491 -0.00272721,0.00337821 -0.0038335,0.00440273 -0.00213828,0.00197746 -0.00464736,0.00307763 -0.00800677,0.00357052 -0.000791436,0.000119146 -0.00164697,0.000201823 -0.00259131,0.000254147l-4.68881e-005 3.6242e-006 -2.49164e-005 1.35908e-006 -2.71815e-006 0c-0.000765387,4.00928e-005 -0.00156996,5.95729e-005 -0.00242165,5.95729e-005 -0.000569227,0.000356531 -0.00160915,0.00179375 -0.00221122,0.0023888 -0.000769237,0.000767878 -0.00150993,0.00143836 -0.00225312,0.00221348 -0.000907637,0.000949089 -0.00437555,0.00349351 -0.00478576,0.00413975 0.000943199,-0.000178719 0.00228189,-0.00130335 0.00299246,-0.00175593 0.00105804,-0.000674102 0.00201664,-0.00130698 0.00305906,-0.00198584 0.00147596,-0.000965171 0.00468904,-0.00303618 0.00699041,-0.00303618l0.000702643 0 0.00238518 0 6.00259e-005 0 0.000359249 0c0.000322554,0 0.000754967,6.56887e-005 0.00123155,0.000166713 0.000445551,8.13181e-005 0.000884306,0.000175094 0.0014225,0.000238518 0.0010175,0.000119146 0.00202842,0.000624269 0.00282507,0.000639899 -0.000172376,0.000596408 -0.00121456,0.000581685 -0.00194212,0.00106982 -0.000569453,0.000382127 -0.0013362,0.000675235 -0.00188617,0.00112056 -0.00112192,0.000911487 -0.00231972,0.00162953 -0.00351072,0.00248122 -0.0019958,0.00142748 -0.00469833,0.00306177 -0.00804596,0.00328081 -0.000173735,1.69885e-005 -0.0003332,2.55959e-005 -0.00048066,2.55959e-005l-0.00212107 9.12846e-005 -0.00474408 -0.000810463 -0.00100436 -0.000146101 -0.000410215 -4.98328e-005c-5.61752e-005,0 -0.00429717,0.00266492 -0.00495542,0.002968 -0.000914206,0.000421087 -0.00180644,0.000972193 -0.00268282,0.00129588 -0.000299223,0.000109632 -0.000761536,0.000269097 -0.00121094,0.000460047 -0.000440114,0.000234894 -0.000826772,0.000458915 -0.00109836,0.000649865 -8.10916e-005,8.15446e-005 -0.000138399,0.000165581 -0.000163316,0.00025075 5.3457e-005,-1.35908e-006 0.000110991,-7.47492e-006 0.000181663,-1.58559e-005l0.00796872 -0.00244 0.00157381 -0.000207939c0.0004417,-6.93129e-005 0.000870036,-0.000127753 0.00127232,-0.000165581l0.00037737 -4.98328e-005c0.000377597,-5.48161e-005 0.000852821,-3.89602e-005 0.00139622,3.28444e-005 0.00187439,0.000142477 0.00343778,0.000743415 0.00487591,0.00131785 0.000971966,0.000388243 0.00417848,0.0018155 0.00439389,0.00257364l-0.000278158 0 -0.00112214 0c-0.00138966,0 -0.00489924,0.00123404 -0.00592331,0.00167937 -0.000561525,0.000244634 -0.00272835,0.000853047 -0.0043572,0.00120233 -0.000556542,0.000153349 -0.000974458,0.000257998 -0.00109338,0.000257998l-0.00252856 3.39769e-005 -0.00196047 -0.000165581c-0.000139758,-8.51688e-005 -0.00289189,-0.000963585 -0.00311795,-0.00102089 -0.00109451,-0.000270003 -0.00199059,-0.00085418 -0.00300922,-0.0012508 -0.0010372,-0.00040659 -0.00105147,-0.000876378 -0.00177654,-0.000847158 -0.000190497,2.08392e-005 -0.000411347,6.09319e-005 -0.000647827,0.000110765 -0.000182796,4.87002e-005 -0.000395718,0.000113256 -0.000647827,0.000194801 -0.000365592,0.000122996 -0.000813634,0.000226286 -0.00126417,0.000332068 -0.000632424,0.000193668 -0.00128138,0.000399342 -0.00188232,0.000572171 -5.3457e-005,2.67285e-005 -0.000101931,5.45896e-005 -0.00014746,8.51688e-005l-0.000372387 5.95729e-005c-0.000318477,8.63014e-005 -0.000616568,0.000156973 -0.000882947,0.000205674 -0.000914206,0.000166713 -0.00618856,0.000945464 -0.00646943,0.00129701l6.79538e-006 0.000129112 0.00283549 -5.23245e-005 0.00417848 -9.74005e-005 0.00407111 2.06127e-005c0.00158446,0 0.00488633,0.00176589 0.00585807,0.00252018 0.000945691,0.000735034 0.00396284,0.00301806 0.00424893,0.00401947 -6.1385e-005,0 -0.00011756,-1.13256e-006 -0.000173735,-3.6242e-006 1.69885e-005,4.87002e-005 3.12588e-005,9.37763e-005 3.26178e-005,0.000135002 -0.00073141,-5.84403e-005 -0.00132057,-0.000514637 -0.00276504,-0.000524377 -0.000577381,2.78611e-005 -0.00105804,9.60414e-005 -0.00158446,0.00013251 -0.00149295,0.000104649 -0.00306812,0.000239877 -0.00446683,0.000257998l-2.49164e-005 2.49164e-006 -0.00310345 8.0412e-005 -0.000685654 -0.000109632c-0.000522338,-4.14518e-005 -0.00103969,-0.000125262 -0.00154912,-0.000248258l-0.00154119 -0.000245766c-0.000260037,-0.000362647 -0.00176725,-0.000950448 -0.00234463,-0.00121569 -0.000713062,-0.00032867 -0.0015686,-0.00102814 -0.00220465,-0.00147845 -0.000602297,-0.000426071 -0.0038557,-0.00332226 -0.00401245,-0.00332226l-0.000986237 0 -0.00135976 0.000175321 -0.00116903 0.000175321c0.000301942,0.00067161 0.0057276,0.0044136 0.00590134,0.00632039l-0.000142477 0 -0.00140529 0 -0.000137267 0c-1.04196e-005,-4.25844e-005 -2.35573e-005,-8.63014e-005 -4.16784e-005,-0.00013251 -0.000792795,-0.000851915 -0.00347969,-0.00556497 -0.00585694,-0.00574867 -0.00237703,0.000183702 -0.00505984,0.00489562 -0.005854,0.00574867 -1.56294e-005,4.48495e-005 -3.01262e-005,8.99256e-005 -3.91867e-005,0.00013251l-0.000141117 0 -0.00140529 0 -0.000139758 0c0.000171017,-0.00190678 0.00559668,-0.00564878 0.00589703,-0.00632039l-0.00116382 -0.000175321 -0.00136474 -0.000175321 -0.000981027 0c-0.000156747,0 -0.00341151,0.00289619 -0.00401494,0.00332226 -0.000637407,0.000450307 -0.00148909,0.00114978 -0.00220623,0.00147845 -0.000577155,0.000265246 -0.00208075,0.000853047 -0.00234056,0.00121569l-0.0015464 0.000247125c-0.000505577,0.000121637 -0.00102406,0.000205447 -0.00154527,0.000246899l-0.000684295 0.000109632 -0.00310345 -8.0412e-005 -3.01262e-005 -2.49164e-006c-0.00139351,-1.8121e-005 -0.00297004,-0.000153349 -0.00446434,-0.000257998 -0.000525057,-3.64686e-005 -0.00100458,-0.000104649 -0.00158695,-0.00013251 -0.00143949,9.74005e-006 -0.0020325,0.000465937 -0.00276391,0.000524377 5.20979e-006,-4.12253e-005 1.42703e-005,-8.63014e-005 3.12588e-005,-0.000135002 -5.48161e-005,2.49164e-006 -0.000110991,3.6242e-006 -0.000171017,3.6242e-006 0.000288804,-0.00100141 0.00330459,-0.00328444 0.00425164,-0.00401947 0.000967889,-0.000754288 0.00426841,-0.00252018 0.00585536,-0.00252018l0.00406998 -2.06127e-005 0.00417825 9.74005e-005 0.00283956 5.23245e-005 2.71815e-006 -0.000129112c-0.000276799,-0.000351548 -0.00555251,-0.0011303 -0.00646807,-0.00129701 -0.000267738,-4.87002e-005 -0.000562884,-0.000120505 -0.000885665,-0.000205674l-0.000370801 -5.95729e-005c-4.43965e-005,-3.05792e-005 -9.53619e-005,-5.84403e-005 -0.000144968,-8.51688e-005 -0.000600938,-0.000172829 -0.00125012,-0.000378503 -0.00188481,-0.000572171 -0.000450534,-0.000105781 -0.000893366,-0.000209071 -0.00126439,-0.000332068 -0.000252109,-8.15446e-005 -0.000465031,-0.000146101 -0.000647827,-0.000194801 -0.000237612,-4.98328e-005 -0.000453252,-8.99256e-005 -0.000647827,-0.000110765 -0.000724841,-2.92201e-005 -0.00073662,0.000440567 -0.00177767,0.000847158 -0.00101863,0.000396624 -0.00191086,0.0009808 -0.00300809,0.0012508 -0.000224701,5.73077e-005 -0.00297932,0.000935724 -0.00311387,0.00102089l-0.00196296 0.000165581 -0.00253015 -3.39769e-005c-0.000118919,0 -0.000536835,-0.000104649 -0.00109066,-0.000257998 -0.00162727,-0.000349283 -0.00379817,-0.000957696 -0.00435992,-0.00120233 -0.00102384,-0.000445324 -0.00453501,-0.00167937 -0.00591946,-0.00167937l-0.00112577 0 -0.000278384 0c0.000216999,-0.000758138 0.00342216,-0.0021854 0.00439797,-0.00257364 0.00143813,-0.000574436 0.00299608,-0.00117537 0.00487433,-0.00131785 0.000542272,-7.18046e-005 0.00101885,-8.76604e-005 0.00139758,-3.28444e-005l0.000373746 4.98328e-005c0.000402287,3.78276e-005 0.000829263,9.62679e-005 0.00127074,0.000165581l0.00157925 0.000207939 0.00797008 0.00244c6.52357e-005,8.38097e-006 0.000126621,1.44968e-005 0.000175094,1.58559e-005 -2.35573e-005,-8.51688e-005 -7.83734e-005,-0.000169205 -0.000158106,-0.000251882 -0.000277025,-0.000189818 -0.000663682,-0.000413839 -0.00109972,-0.000647374 -0.000448042,-0.000192309 -0.000914432,-0.000351774 -0.00121343,-0.000461407 -0.000877737,-0.000323687 -0.00176997,-0.000874792 -0.00268033,-0.00129588 -0.000660964,-0.000303074 -0.00489811,-0.002968 -0.00495406,-0.002968l-0.000415424 4.98328e-005 -0.00100323 0.000146101 -0.00474137 0.000810463 -0.00212356 -9.12846e-005c-0.000142477,0 -0.000306925,-8.60749e-006 -0.00048066,-2.55959e-005 -0.00334378,-0.000219038 -0.00605152,-0.00185333 -0.00804211,-0.00328081 -0.00119236,-0.000851688 -0.00239401,-0.00156973 -0.0035148,-0.00248122 -0.000547255,-0.000445324 -0.00131128,-0.000738432 -0.00188209,-0.00112056 -0.000727559,-0.000488135 -0.00177518,-0.000473412 -0.00194235,-0.00106982 0.000791662,-1.56294e-005 0.00180508,-0.000520753 0.00282144,-0.000639899 0.000536835,-6.34236e-005 0.000978309,-0.0001572 0.00142227,-0.000238518 0.00048066,-0.000101025 0.000909222,-0.000166713 0.00123178,-0.000166713l0.0003631 0 5.48161e-005 0 0.00238631 0 0.000702869 0c0.00230658,0 0.00551445,0.00207101 0.00699041,0.00303618 0.00104219,0.000678859 0.00200486,0.00131174 0.00306291,0.00198584 0.000711703,0.000452573 0.0020479,0.00157721 0.00298838,0.00175593 -0.000411347,-0.000646241 -0.00387926,-0.00319066 -0.0047844,-0.00413975 -0.000744547,-0.000775127 -0.00148117,-0.0014456 -0.00225448,-0.00221348 -0.000600712,-0.000595049 -0.00164176,-0.00203227 -0.00221122,-0.0023888 -0.000847611,0 -0.00165105,-1.94801e-005 -0.0024178,-5.95729e-005l-7.70143e-006 0 -2.35573e-005 -1.35908e-006 -4.71147e-005 -3.6242e-006c-0.000940255,-5.23245e-005 -0.00179987,-0.000135002 -0.00259131,-0.000254147 -0.00335669,-0.000492892 -0.00586849,-0.00159306 -0.0080027,-0.00357052 -0.00110629,-0.00102452 -0.00294535,-0.00315781 -0.00383758,-0.00440273 -0.000347244,-0.000484284 -0.00150858,-0.00187643 -0.00191335,-0.00227056 -0.000440341,-0.000423579 -0.00217226,-0.00150903 -0.00221779,-0.00199082l0.00014225 0 0.000702643 0 0.000141117 0c0.000244181,0 0.000489947,1.13256e-006 0.000734128,8.38097e-006 0.00491623,9.62679e-005 0.00844417,0.00103086 0.0110212,0.00342306 0.00129044,0.00119395 0.00238246,0.00261871 0.00354628,0.00389058 0.00113098,0.0012388 0.0022008,0.00289121 0.00364935,0.00379409 -0.000159465,-0.000553597 -0.00206897,-0.002845 -0.00255235,-0.00377098 -0.000615209,-0.00117923 -0.00160507,-0.0029048 -0.0023315,-0.00410351 -0.000344752,-0.000565829 -0.000779657,-0.00151492 -0.00105668,-0.00215618 -0.000498781,-0.00116337 -0.000370801,-0.00122181 -0.00166781,-0.00158446 -0.00192649,-0.000540233 -0.00303165,-0.00115612 -0.00465121,-0.00194461 -0.00274171,-0.00133597 -0.00529904,-0.00378072 -0.0063034,-0.00668303 -0.000435131,-0.00126439 -0.00136882,-0.00315419 -0.00192015,-0.00448903 -0.000361741,-0.000884759 -0.000568094,-0.00142499 -0.000993938,-0.00221348 -0.000309643,-0.000574436 -0.00113234,-0.00142884 -0.00126553,-0.00195798l1.13256e-006 0c0.00130109,2.67285e-005 0.00488883,0.00137992 0.00581232,0.00190928 0.00188096,0.00108183 0.00292972,0.00158423 0.00433138,0.00315532 0.00122249,0.00136542 0.0019095,0.00306404 0.00265405,0.00485054 0.00026502,0.000629026 0.00183906,0.0043418 0.00241893,0.00481521 -0.000342261,-0.00120482 -0.000953392,-0.00265767 -0.00116518,-0.00388809 -0.000251882,-0.00146259 -0.000662097,-0.00310526 -0.000860749,-0.00469108 -0.000356531,-0.00282439 -0.000560393,-0.00172557 -0.00227532,-0.00324162 -0.000552465,-0.000486776 -0.000978309,-0.000763122 -0.00155546,-0.00129973 -0.00048066,-0.000447816 -0.000993938,-0.00105147 -0.00141593,-0.00142499 -0.000764028,-0.000667986 -0.0019095,-0.00223772 -0.00235234,-0.00317231 -0.000898576,-0.00190565 -0.000553824,-0.00254102 -0.00109972,-0.00446728 -0.00045597,-0.00160031 -6.54622e-005,-0.00328919 -0.000291295,-0.00509133 -9.53619e-005,-0.000759497 -0.000186873,-0.00165377 -0.000283594,-0.00248371 -8.60749e-005,-0.000726653 -0.00047545,-0.00129837 -0.000539327,-0.00207961l-9.26437e-005 -0.000109632c2.6049e-005,1.35908e-006 5.59487e-005,3.6242e-006 8.60749e-005,7.47492e-006l-5.20979e-006 -5.23245e-005c6.2744e-005,1.44968e-005 0.000150178,5.09654e-005 0.000261169,0.000105781 0.00202072,0.000560846 0.00625266,0.00485779 0.00703617,0.00630453 0.0010594,0.00194597 0.00110651,0.00260897 0.00142001,0.00521931 0.000224474,0.0018984 0.000547028,0.00394631 0.000547028,0.00602592l3.14853e-005 0c0.000321195,-0.00149068 8.8793e-005,-0.00428698 0.000378729,-0.0058993 0.000206353,-0.00118058 0.00095747,-0.00457918 0.000995297,-0.00554164l-8.8793e-005 -0.000104875c-0.000748398,-0.000391867 -0.00315691,-0.00339384 -0.00364663,-0.00406658 -0.0008048,-0.00109655 -0.00229888,-0.00385751 -0.00229888,-0.00557471l-2.49164e-005 -0.00366407 0.000867317 -0.00719042 2.7408e-005 -0.00105034 -0.000167166 -0.00117288c4.05458e-005,2.17452e-005 8.8793e-005,4.87002e-005 0.000141117,7.9053e-005 -1.35908e-006,-6.95394e-005 -1.35908e-006,-0.000138626 -1.35908e-006,-0.000210657 0.000830622,0.00027997 0.00353179,0.00350234 0.00415085,0.00436875 0.000979668,0.00135681 0.00230545,0.00379046 0.00230545,0.00596385 0,0.00158083 -0.00111286,0.00964876 -0.000624269,0.0106393 0.000172376,-0.000244634 9.53619e-005,-0.000646241 0.000258451,-0.00117311 0.000169885,-0.000559713 0.0003332,-0.000846931 0.000531625,-0.00146259 0.000256186,-0.00078985 0.000766746,-0.00200917 0.00113891,-0.00286357 0.000297864,-0.000678859 0.00262687,-0.00535159 0.00262687,-0.00540165 0,-8.15446e-005 -0.00133235,-0.00322599 -0.00149702,-0.0035789 -0.000191856,-0.000419728 -0.000893366,-0.00356055 -0.000893366,-0.00413726l0 -0.00170134c0,-0.00244339 0.00165105,-0.00524219 0.00258225,-0.00701533 0.00136497,-0.00260897 0.00208075,-0.00346202 0.00289438,-0.00671588 7.31636e-005,1.69885e-005 0.000155614,8.15446e-005 0.000249617,0.00018121 1.42703e-005,-2.80876e-005 2.35573e-005,-4.62086e-005 3.12588e-005,-4.98328e-005 0.00147075,0.0010039 0.00280944,0.00621098 0.00280944,0.00889176l0 0.00117787c0,0.00249209 -0.004634,0.00893933 -0.004634,0.0105942 2.21983e-005,-1.47233e-005 4.68881e-005,-3.14853e-005 7.04455e-005,-5.09654e-005 0.000458462,-0.000969928 0.00277297,-0.00375422 0.00335556,-0.00447567 0.00117945,-0.0014567 0.0029048,-0.00290118 0.00385706,-0.00421042 0,-3.91867e-005 6.34236e-006,-7.92795e-005 7.70143e-006,-0.000120505 -0.00047545,-0.00538715 -0.00046639,-0.00906708 0.00263842,-0.0124963 0.00130358,-0.00143972 0.00248824,-0.0028706 0.00405163,-0.00407179 0.000640125,-0.000489041 0.00148117,-0.00141389 0.00205583,-0.00200645 0.00054884,-0.000558807 0.00145897,-0.00216003 0.00179217,-0.00238767l0.000168526 -1.69885e-005 5.20979e-006 6.20645e-005c3.91867e-005,-2.19717e-005 7.04455e-005,-3.64686e-005 0.000107141,-4.5076e-005l0.000492439 0.00326133 -7.18046e-005 0.00236185 -0.000599579 0.00365795c-0.000166034,0.000130245 -0.00130222,0.00227577 -0.00172943,0.00280378 -0.000739338,0.000907863 -0.00146418,0.00156611 -0.00218789,0.00240942 -0.00129679,0.00152217 -0.00301828,0.00272835 -0.00425799,0.00432005 0.000757685,-0.000256865 0.00273129,-0.00211744 0.00357754,-0.00259946 0.000659605,-0.00037352 0.00228189,-0.00264408 0.00295056,-0.0033986 0.000975817,-0.00109768 0.00599534,-0.00389761 0.00836716,-0.00416308 0.000374879,-9.7174e-005 0.000752475,-0.000182343 0.0011312,-0.000259131 0.00162342,-0.000380994 0.00534729,-0.0010039 0.00866366,-0.00149929 0.00197496,-0.000328444 0.00414971,-0.000647374 0.00562544,-0.000728918 0.000143836,-9.74005e-006 0.000262755,-1.69885e-005 0.000356758,-1.92536e-005l0 4.75677e-006c9.78535e-005,-2.49164e-006 0.000190724,-4.75677e-006 0.000282008,-4.75677e-006 -0.00140529,0.00195662 -0.00310209,0.00360178 -0.00462902,0.00536518 -0.000455744,0.000526869 -0.00152149,0.00126666 -0.00263049,0.00197247 -3.37504e-005,2.42369e-005 -6.79538e-005,4.62086e-005 -9.40028e-005,6.56887e-005 -0.000764028,0.000526869 -0.00139487,0.000920095 -0.00206104,0.00124741 -0.000710571,0.000418596 -0.00121615,0.000714195 -0.00125533,0.000765387 -0.00111399,0 -0.00141321,0.000293334 -0.00212899,0.000501273 -0.000554956,0.000160598 -0.00157653,0.000216773 -0.00221507,0.000287218l-2.35573e-005 2.49164e-006c-0.00136768,0.000219038 -0.00285927,0.000385751 -0.00391323,0.000385751l-0.0012696 7.42962e-005 -0.00391573 -0.000310549 -0.0016993 -0.000114162c-0.000278158,-6.45561e-005 -0.00475065,0.00333902 -0.00490604,0.00388311 0.000434905,-2.26513e-007 0.00329418,-0.000680218 0.00449583,-0.0010064 0.000156747,-4.5076e-005 0.000308284,-9.01521e-005 0.000450534,-0.000129112l6.56887e-006 -2.49164e-006c0.00070151,-0.000238518 0.00441088,-0.00108658 0.00515135,-0.00108658l0.000709212 -5.11919e-005 0.000561752 5.11919e-005 0.000694941 0c0.000403646,0 0.000911714,7.42962e-005 0.00148502,0.000203182l0.000621778 5.95729e-005c8.8793e-005,5.36835e-005 0.000262528,0.000136361 0.000497649,0.000238744 0.0030355,0.00091262 0.00694466,0.002845 0.00722168,0.00381493l-0.000141117 -2.26513e-007 -0.000839909 0c-0.000704002,0 -0.00132442,5.73077e-005 -0.0018873,0.000146101 -0.00169658,0.000288351 -0.00297932,0.000929608 -0.00457148,0.00129248 -0.000381448,8.85665e-005 -0.000795513,0.000198199 -0.00122521,0.000316212 -0.000160598,7.65613e-005 -0.000334333,0.000148592 -0.000604789,0.000202049 -0.000130471,2.67285e-005 -0.000263887,4.98328e-005 -0.000393226,7.42962e-005 -0.00132691,0.00036378 -0.00276232,0.000715554 -0.00409195,0.000715554l-0.000280876 -2.26513e-007c-0.000121411,0 -0.00024554,-1.13256e-006 -0.0003631,-2.26513e-006 -0.000110991,1.13256e-006 -0.000221983,2.49164e-006 -0.000340902,2.49164e-006l-0.00182343 -2.26513e-007c-0.000459821,0 -0.00327198,-0.00116677 -0.00387926,-0.00135659 -0.000671384,-0.000208165 -0.00296369,-0.00168797 -0.00336462,-0.00188866 -0.00102791,0.000467296 -0.0072543,0.0078865 -0.00735487,0.00900003 3.26178e-005,-1.35908e-006 7.18046e-005,-6.11584e-006 0.000118693,-1.69885e-005 0.00113007,-0.000479528 0.00395786,-0.00193986 0.00445528,-0.00225856 0.00102678,-0.000649865 0.00377484,-0.00199195 0.00500004,-0.00227691 0.000260037,-6.07054e-005 0.000527775,-0.000114389 0.000799364,-0.000164222 0.000922134,-0.000247125 0.00197496,-0.000514637 0.00212107,-0.000514637l0.0291977 0c0.00202185,0 0.00402944,6.11584e-006 0.0060343,1.44968e-005 0.00200622,-8.60749e-006 0.00401652,-1.44968e-005 0.00603589,-1.44968e-005l0.0292013 0c0.000142477,0 0.00119916,0.000267738 0.00211721,0.000514637 0.000274533,4.98328e-005 0.000543404,0.000103516 0.000803441,0.000164222 0.00122249,0.000284953 0.00396805,0.00162704 0.00499461,0.00227691 0.000502858,0.000318703 0.00333064,0.00177903 0.00445664,0.00225856 4.71147e-005,1.08726e-005 8.8793e-005,1.58559e-005 0.00012277,1.69885e-005 -0.000100572,-0.00111354 -0.0063256,-0.00853274 -0.00735895,-0.00900003 -0.00039685,0.00020069 -0.00269324,0.0016805 -0.00336575,0.00188866 -0.000604789,0.000189591 -0.00341695,0.00135681 -0.00387813,0.00135681l-0.00182456 -2.26513e-007c-0.00011235,0 -0.000228551,-1.13256e-006 -0.000339769,-2.26513e-006 -0.000118693,1.13256e-006 -0.000237612,2.49164e-006 -0.000362873,2.49164e-006l-0.000278384 -2.26513e-007c-0.00133212,0 -0.0027664,-0.000351548 -0.00409331,-0.000714195 -0.000130698,-2.31043e-005 -0.000262528,-4.87002e-005 -0.000393226,-7.54288e-005 -0.000269097,-5.3457e-005 -0.000443965,-0.000125262 -0.000606148,-0.000202049 -0.000428336,-0.000118013 -0.000839683,-0.000227419 -0.00122498,-0.000316212 -0.00158831,-0.000362873 -0.0028749,-0.00100413 -0.0045665,-0.00129135 -0.000566735,-8.99256e-005 -0.00118466,-0.000147007 -0.0018898,-0.000147007l-0.000842628 -2.26513e-007 -0.00014225 0c0.000279517,-0.000969701 0.00418754,-0.00290208 0.00722689,-0.0038147 0.00022991,-0.000101251 0.000408856,-0.000185061 0.000496289,-0.000238518l0.000619286 -5.86668e-005c0.000573304,-0.000128886 0.00108137,-0.000204315 0.00148366,-0.000204315l0.0006963 0 0.000561525 -5.11919e-005 0.000709212 5.11919e-005c0.000741829,0 0.00445392,0.00084829 0.00515135,0.00108681l6.56887e-006 2.26513e-006c0.000142477,3.89602e-005 0.000292655,8.40362e-005 0.000450534,0.000129112 0.00120052,0.000325952 0.00406364,0.0010064 0.0044999,0.0010064 -0.000155614,-0.000544084 -0.00462766,-0.00394766 -0.00491125,-0.00388311l-0.00169794 0.000114162 -0.00391709 0.000310549 -0.00126439 -7.42962e-005c-0.00105804,0 -0.00254827,-0.000166713 -0.00391844,-0.000385751l-1.83475e-005 -2.49164e-006c-0.00063854,-7.04455e-005 -0.00166396,-0.000126621 -0.00221643,-0.000287218 -0.00071578,-0.000207939 -0.00101614,-0.000501273 -0.00213307,-0.000501273 -3.78276e-005,-5.11919e-005 -0.000544537,-0.000346791 -0.00125262,-0.000767878 -0.000667307,-0.000325046 -0.0012995,-0.000718046 -0.00205968,-0.00124491 -2.87671e-005,-1.8121e-005 -6.00259e-005,-4.00928e-005 -9.26437e-005,-6.31971e-005 -0.00111286,-0.000707173 -0.00217883,-0.0014481 -0.00263072,-0.00197496 -0.00152806,-0.0017634 -0.0032235,-0.00340856 -0.00463015,-0.00536518 8.8793e-005,-2.26513e-007 0.000182796,2.26513e-006 0.00027929,4.75677e-006l0 -4.98328e-006c9.42293e-005,2.49164e-006 0.000212922,9.74005e-006 0.000355399,1.94801e-005 0.00147732,8.15446e-005 0.00365592,0.000401607 0.00563088,0.000728918 0.00331751,0.000495383 0.00704387,0.00111852 0.00866366,0.00149929 0.000374879,7.65613e-005 0.000752249,0.000161957 0.00112962,0.000259131 0.00236955,0.000265473 0.00739292,0.0030654 0.00836738,0.00416308 0.000670025,0.000754288 0.00228959,0.00302508 0.0029492,0.0033986 0.00084897,0.000482019 0.00282008,0.0023426 0.00357482,0.00259946 -0.00123427,-0.00159193 -0.00295441,-0.00279766 -0.00425663,-0.00432005 -0.000719631,-0.000843307 -0.00144719,-0.00150155 -0.00218268,-0.00240942 -0.000432186,-0.000528228 -0.00156996,-0.00267353 -0.00173577,-0.00280378l-0.000596861 -0.00365795 -6.93129e-005 -0.00236185 0.00049108 -0.00326133c3.28444e-005,8.60749e-006 6.79538e-005,2.31043e-005 0.000104649,4.62086e-005zm0.0186307 0.0329291c-0.000720764,0.000162863 -0.00167189,0.000477036 -0.00265133,0.000754288l-1.35908e-006 1.35908e-006c-7.04455e-005,2.31043e-005 -0.00012798,4.12253e-005 -0.000172376,5.45896e-005 -4.68881e-005,1.35908e-005 -0.000113709,3.05792e-005 -0.000198425,4.87002e-005 -0.000892234,0.00024101 -0.00178311,0.00043196 -0.00251565,0.00043196l-0.000564243 0 -0.00168231 0 -0.000142477 0c-0.000278158,0 -0.000560393,-3.39769e-005 -0.000836059,-8.74339e-005 -0.00126168,-0.000217905 -0.0023392,-0.00077037 -0.00309416,-0.000827451l0 0 0 0.00118149c3.85072e-006,0.000219038 0.000181663,0.000333427 0.000446683,0.000386884l0.00095747 0c0.000156747,0 0.000313267,2.49164e-006 0.000465031,6.11584e-006 0.000202276,-1.22317e-005 0.000378729,-1.69885e-005 0.000520979,-7.24841e-006 0.000282235,1.94801e-005 0.000581232,6.09319e-005 0.000892234,0.000103516 0.000212922,2.42369e-005 0.000421767,5.3457e-005 0.000625628,8.63014e-005 0.000337051,4.12253e-005 0.000676594,7.31636e-005 0.00100821,7.31636e-005 0.000164675,0.000101931 0.00035789,0.000194574 0.00057874,0.000282235 0.000394585,0.000116654 0.000773088,0.000248258 0.00113641,0.000397756 0.00063854,0.000215414 0.00131128,0.000458915 0.00187168,0.000816579 0.00105147,0.000676594 0.00182456,0.00138241 0.00275077,0.00214168 0.000918056,0.00075089 0.00412344,0.00403895 0.00515656,0.00454158 -0.000431054,-0.00160892 -0.00363508,-0.0099797 -0.004552,-0.0103861zm-0.0950887 0.000858936c-8.49423e-005,-1.8121e-005 -0.000155388,-3.51095e-005 -0.000199784,-4.87002e-005l-0.000169885 -5.45896e-005 -6.34236e-006 -1.35908e-006c-0.000979668,-0.000277252 -0.00192921,-0.000591425 -0.00264771,-0.000754288 -0.000916924,0.000406364 -0.00412344,0.00877714 -0.00455177,0.0103861 0.00102927,-0.000502632 0.00423579,-0.00379069 0.00515271,-0.00454158 0.000930061,-0.000759271 0.0016993,-0.00146508 0.00275462,-0.00214168 0.000555183,-0.000357664 0.00123178,-0.000601165 0.00186782,-0.000816579 0.000361741,-0.000149498 0.000741829,-0.000281102 0.00113641,-0.000397756 0.000220623,-8.76604e-005 0.000417916,-0.000180078 0.000582364,-0.000282235 0.0003332,0 0.000670251,-3.17118e-005 0.00100458,-7.31636e-005 0.000204994,-3.28444e-005 0.000416557,-6.20645e-005 0.000629479,-8.63014e-005 0.000309643,-4.25844e-005 0.000609999,-8.40362e-005 0.000890648,-0.000103516 0.000138626,-9.74005e-006 0.000320063,-4.98328e-006 0.000518714,7.24841e-006 0.000155388,-3.6242e-006 0.000308284,-6.11584e-006 0.000464804,-6.11584e-006l0.000961547 0c0.000262528,-5.3457e-005 0.000438755,-0.000167846 0.000443965,-0.000386884l0 -0.00118149 -1.13256e-006 0c-0.000754967,5.70812e-005 -0.00183,0.000609546 -0.00309439,0.000827451 -0.000276799,5.3457e-005 -0.000553824,8.74339e-005 -0.000837191,8.74339e-005l-0.000141117 0 -0.00168344 0 -0.000560393 0c-0.000735487,0 -0.00162749,-0.00019095 -0.00251452,-0.00043196zm0.0192318 0.0488932c0.000809783,0.0028706 0.00742939,0.00747288 0.00742939,0.0136608l0 0.000654622 0.000157879 2.55959e-005 -0.000915565 0.00495882 -8.74339e-005 0.000116881c0,0.000769011 0.00861655,0.00250908 0.0121837,0.00292043 0.000532985,2.31043e-005 0.000873886,-1.94801e-005 0.000873886,-0.000175321 0,-0.000313947 -0.00243343,-0.00197496 -0.0042333,-0.00319677 -0.000157879,-9.83065e-005 -0.000321422,-0.00021043 -0.00049108,-0.0003332 -0.000628346,-0.000424711 -0.00112192,-0.000763122 -0.00131264,-0.000916471 -0.00208981,-0.00165626 -0.00391459,-0.00285361 -0.00482903,-0.00570337 -0.000493571,-0.00153938 -0.000595502,-0.00252879 -0.00100821,-0.0041581 -0.000718499,-0.00280876 0.000347471,-0.00152013 -0.00191992,-0.00331366 -0.000740697,-0.000585309 -0.00490332,-0.00399636 -0.00584765,-0.00454022zm0.053599 0c-0.00094705,0.000542725 -0.00510447,0.00395491 -0.00584516,0.00454022 -0.00226739,0.00179353 -0.00120165,0.000504897 -0.00191992,0.00331366 -0.000416784,0.00162931 -0.000517355,0.00261871 -0.00100979,0.0041581 -0.000916697,0.00284976 -0.00274148,0.0040471 -0.00482744,0.00570337 -0.000195934,0.000153349 -0.000693582,0.000494024 -0.00132578,0.000923719 -0.000165807,0.000118013 -0.000325272,0.000226286 -0.000476583,0.000324819 -0.00179874,0.00122181 -0.00423466,0.00288396 -0.00423466,0.00319791 0,0.000155841 0.000339543,0.000198425 0.000871168,0.000175321 0.00356984,-0.000411347 0.0121812,-0.00215142 0.0121812,-0.00292043l-8.63014e-005 -0.000116881 -0.000916697 -0.00495882 0.000163089 -2.55959e-005 0 -0.000654622c0,-0.00618924 0.0066144,-0.0107902 0.0074269,-0.0136608zm-0.0340997 0.0140877c0.000388016,0.000860522 0.00147732,0.0025605 0.00167461,0.00350483 0.000171017,0.000783508 0.000351321,0.00146508 0.000592784,0.00219514 0.000150404,0.000456423 7.70143e-005,0.00232561 0.000159465,0.00257251 0.000305566,5.95729e-005 0.000799364,0.000150858 0.00135047,0.00025075 0.00058916,5.3457e-005 0.00118217,9.49089e-005 0.00135704,0.000128886 0.000424711,7.79204e-005 0.00160145,0.000359023 0.00216433,0.00043196 0.000566961,-7.29371e-005 0.00174505,-0.000354039 0.00216433,-0.00043196 0.000180304,-3.39769e-005 0.000773315,-7.54288e-005 0.0013584,-0.000128886 0.000552465,-9.98921e-005 0.00104354,-0.000191177 0.0013507,-0.00025075 8.60749e-005,-0.000246899 9.06051e-006,-0.00211608 0.000159238,-0.00257251 0.000244181,-0.000730051 0.000425844,-0.00141163 0.000591651,-0.00219514 0.000203861,-0.000944332 0.00128795,-0.00264431 0.00167982,-0.00350483 -0.00174777,0.000475903 -0.00550154,0.00310436 -0.00688214,0.00310436l-0.000138399 0 -0.000561752 0 -0.000140891 0c-0.00138218,0 -0.00513595,-0.00262845 -0.00687965,-0.00310436zm0.0103865 -0.00410804c-0.000260037,0.000364912 -0.00246333,0.00156973 -0.00280423,0.00156973 -7.70143e-005,0 -0.000172376,-1.69885e-005 -0.000283594,-4.62086e-005 -0.000109632,2.92201e-005 -0.000204994,4.62086e-005 -0.000278158,4.62086e-005 -0.000339316,0 -0.00254827,-0.00120482 -0.00280695,-0.00156973l-0.00014225 -0.0214906 0.00645765 0 -0.000142477 0.0214906zm0.012074 -0.00784776c0,0.000605922 -0.00516064,0.00412638 -0.00603838,0.0043162l0 -0.000160598c-5.3457e-005,1.69885e-005 -9.92126e-005,2.67285e-005 -0.000135908,3.03527e-005l0 -0.018222 0.00614008 0 3.42034e-005 0.0140361zm-0.0241442 0.00418596c-3.91867e-005,-2.26513e-006 -8.60749e-005,-1.33643e-005 -0.000140891,-3.03527e-005l0 0.000160598c-0.000876378,-0.000189818 -0.006042,-0.00371028 -0.00603589,-0.0043162l0.000141117 -0.0140361 0.00603566 0 0 0.000393226 0 0.0178288zm-0.0120752 -0.00876265c-3.14853e-005,-3.6242e-006 -6.65948e-005,-9.74005e-006 -0.000105781,-2.31043e-005l0 2.31043e-005c-0.00106461,-8.0412e-005 -0.00540754,-0.00430895 -0.00606714,-0.00523154l0.000138399 -0.00422786 0.00603317 2.19717e-005 1.35908e-006 0.00943743zm0.0482934 -0.00523154c-0.000663682,0.000922587 -0.00500774,0.00515113 -0.00606714,0.00523154l0 -2.31043e-005c-3.91867e-005,1.33643e-005 -7.83734e-005,1.94801e-005 -0.000109632,2.31043e-005l1.35908e-006 -0.00943743 0.00599511 -0.000167393 0.000180304 0.00437328zm-0.0644336 -0.0368618l-1.13256e-006 0c-0.000329123,8.15446e-005 -0.0044059,0.00419955 -0.00530833,0.00486278 -0.00176974,0.00129837 -0.00449311,0.00272336 -0.00760562,0.00272336l-0.00084376 0 -0.00336734 0c-6.1385e-005,0.000689958 -0.000315985,0.00237544 -0.000505577,0.00305928 -0.000296279,0.00105623 -0.000180078,0.00194348 -0.000393,0.00303369 -0.000188232,0.000954072 -0.000277025,0.00534457 -0.00010329,0.00636546 0.000940481,-0.000582817 0.00222186,-0.00362738 0.00278996,-0.00438438 0.000290163,-0.000386884 0.00121479,-0.00191041 0.0014447,-0.00231564 0.000457103,-0.000805706 0.000987369,-0.00151152 0.00153349,-0.00223183 0.000826545,-0.0010927 0.00316733,-0.00245449 0.00463672,-0.00300333 0.00101614,-0.000378503 0.00499076,-0.00170111 0.00617678,-0.00170111l0.000283367 6.11584e-006c4.71147e-005,-2.49164e-006 9.53619e-005,-6.11584e-006 0.000139758,-6.11584e-006l-3.85072e-006 8.38097e-006 1.42703e-005 0 -1.56294e-005 1.83475e-005c-9.40028e-005,0.000397983 -0.00139894,0.00190203 -0.00171629,0.00229254 -0.000582364,0.000714421 -0.00104875,0.00172308 -0.00150722,0.00252131 -0.000501499,0.00087751 -0.000864599,0.00175842 -0.00140415,0.00261645 -0.000404778,0.000649639 -0.00126689,0.00191426 -0.00154391,0.00248235 -0.00120278,0.00247873 -0.00649027,0.00540188 -0.0103929,0.00561367 -9.92126e-005,3.76011e-005 -0.000190724,8.26772e-005 -0.000275666,0.000137493 2.21983e-005,0.00249572 0.000666174,0.0046374 0.00109066,0.00670138 0.000212922,0.00102203 0.00130992,0.00501839 0.00187824,0.00585558 0.000585083,-8.51688e-005 0.000862108,-0.00352159 0.00099643,-0.00414949 0.000307151,-0.00144946 0.000576022,-0.00287445 0.000884306,-0.00440658 0.000347471,-0.00169975 0.00315827,-0.00622049 0.00441473,-0.00622049l0.000181663 0c0.00104898,-0.000800723 0.00323913,-0.00248485 0.0036088,-0.00248485l0.000356758 0c0.000110991,-0.000306698 0.000403419,-0.000615888 0.000907637,-0.000653716 0,0.000339543 -6.2744e-005,0.000754741 -0.000236479,0.00102361 0.000156973,0.000949089 -0.0021419,0.00339135 -0.00215232,0.00342306l0.000424485 0.000122996 0.000820203 -0.000304433c2.08392e-005,0.000602297 -0.000710571,0.0047434 -0.000902653,0.00533596 -0.000267738,0.000824053 -0.000199784,0.00177563 -0.000596861,0.00245585 -0.000286086,0.000492892 -0.000602071,0.00145534 -0.00095747,0.00211382 -0.000630838,0.00116813 -0.00202978,0.00253105 -0.00300288,0.00334876 -0.000413839,0.000344299 -0.00378503,0.00228053 -0.00378503,0.00249096 0,0.000761762 0.00211971,0.00427973 0.00257568,0.00505486 0.000429695,0.000735034 0.00206512,0.00357165 0.00300945,0.00422628 0.000428336,-0.000333427 0.000150178,-0.00119621 5.73077e-005,-0.00172422 -6.52357e-005,-0.000407723 -0.000172376,-0.00211133 -0.000173735,-0.002452 -1.56294e-005,-0.00164652 -0.00027544,-0.00305928 -0.00027544,-0.00484443l0 -0.00130698c0,-0.00245336 0.00453343,-0.00864124 0.00644837,-0.00936291 0.000155388,-8.99256e-005 0.000301715,-0.00015199 0.000431054,-0.000184834 0,0.000861655 -0.000342261,0.00210045 -0.000280876,0.00274647l0.000794154 0.00810078 -9.40028e-005 0.0010551c0,0.00525578 -0.00561389,0.00940776 -0.00561389,0.00980823 0,0.000216546 0.00384143,0.00416897 0.00431688,0.00460954 0.000666174,0.000620418 0.00392751,0.0035592 0.00494636,0.00386476 -3.12588e-005,-0.000826319 -0.000616568,-0.00201528 -0.000915565,-0.00265156 -0.000419275,-0.000908996 -0.000577381,-0.00174619 -0.000933912,-0.00265903 -0.000586442,-0.0014943 -0.00165898,-0.0035447 -0.00165898,-0.00551717l0 -0.000916471c0,-0.00214644 0.00243229,-0.00839026 0.00373565,-0.0088759 6.54622e-005,-5.95729e-005 0.000130698,-0.000108273 0.000197293,-0.000148366 0.000148819,0.000286992 0.000214281,0.00148321 0.000293787,0.00194937 0.000142477,0.000850555 0.000401154,0.000974684 0.000606148,0.00165853 0.000286086,0.000974684 0.000337051,0.000871395 0.000645335,0.00162093 0.000193215,0.000463672 0.000609772,0.00128863 0.000705361,0.00156724 0.000690864,0.00201528 0.00196047,0.00447838 0.00196047,0.00706788 0,0.00130562 -0.000538194,0.00355195 -0.000983518,0.00444645 -0.000232629,0.000464804 -0.000705361,0.00138241 -0.000863467,0.00181188 -0.000176227,0.000486776 -0.000963812,0.0014968 -0.000963812,0.00171946l0 0.000130245c0,0.00073141 0.00896787,0.00550018 0.010948,0.00574368 -8.22241e-005,-0.000522112 -0.00342986,-0.0050501 -0.00396556,-0.00570971 -0.00136361,-0.00168276 -0.00277161,-0.00394268 -0.00277161,-0.00683525l0 -0.000784867 -0.000181437 -2.67285e-005 0.00116767 -0.0065127c5.20979e-006,-3.17118e-005 -0.00282008,-0.00303867 -0.00312701,-0.00336711 -0.00103448,-0.00111354 -0.00173577,-0.0025981 -0.00266968,-0.00378933 -0.001408,-0.00179489 -0.00318703,-0.00659447 -0.00318703,-0.00932145 2.26513e-007,-0.0089767 -0.000141117,-0.0169699 -0.000141117,-0.0269419zm0.00365071 0.0183093l3.01262e-005 0.000266606 -0.000134549 0.00112305c4.71147e-005,0.000226513 7.31636e-005,0.000455291 4.82472e-005,0.000573304l6.56887e-006 0.000784867 4.96063e-005 0 0 0.0058848c0,0.000256639 0.000632197,0.00285972 0.000758818,0.00321512 0.000371028,0.00103063 0.000889516,0.00200781 0.00117424,0.00283028 0.000270456,0.000783734 0.00105804,0.00205424 0.00181822,0.00316393 0.000532985,0.000716913 0.00109066,0.00140914 0.00161051,0.00214304 2.49164e-005,4.12253e-005 5.61752e-005,8.0412e-005 8.74339e-005,0.00012277 0.000791662,0.000951807 0.00161957,0.0018266 0.00248439,0.00265405 0.000602071,0.000563564 0.00124469,0.00113913 0.00189251,0.00169522 0.00115476,0.000979668 0.00237068,0.00191652 0.00364935,0.00287784 0.00315963,0.00238042 0.00616636,0.00454271 0.00946167,0.00687783 0.00122657,0.000871395 0.00925939,0.00580824 0.0104728,0.00580824l0.000279517 0c0.00120958,0 0.0092424,-0.00493685 0.0104726,-0.00580824 0.00329553,-0.00233512 0.00629706,-0.00449741 0.00945781,-0.00687783 0.00127866,-0.00096132 0.00249617,-0.00190203 0.00365592,-0.00288147 0.000649186,-0.000561072 0.00130358,-0.00114276 0.00190701,-0.00171221 0.00085803,-0.000821335 0.00167959,-0.00168888 0.00246718,-0.00263457 2.89936e-005,-4.12253e-005 5.75342e-005,-8.26772e-005 8.76604e-005,-0.000121637 0.000514637,-0.000733901 0.00107503,-0.00142499 0.0016053,-0.00214168 0.000764028,-0.00110991 0.00154776,-0.00238156 0.0018232,-0.00316529 0.000283594,-0.000822694 0.000799364,-0.00179964 0.00117039,-0.00283028 0.000126621,-0.000355399 0.000764028,-0.00295826 0.000764028,-0.00321512l0 -0.0058848 4.71147e-005 0 2.71815e-006 -0.000784867c-2.35573e-005,-0.000118013 6.34236e-006,-0.000346791 5.3457e-005,-0.000573304l-0.000134549 -0.00112305 3.12588e-005 -0.000266606 0 -0.00169998 2.71815e-006 -0.000393 -2.71815e-006 0 0 -0.00444645 0 -0.0197487c0,-0.000613397 -0.000315985,-0.000674102 -0.000702643,-0.000915112l-0.0318803 0 -0.000100572 0 -0.000167166 0 -0.000355399 0 -0.000167166 0 -0.000355172 0 -0.000172376 0 -0.000355399 0 -0.000165807 0 -9.6721e-005 0 -0.0318803 0c-0.000385298,0.00024101 -0.00070151,0.000301715 -0.00070151,0.000915112l0 0.0197487 0 0.00444645 -7.70143e-006 0 7.70143e-006 0.000393 0 0.00169998zm0.0746305 -0.00054499c-0.000168299,-0.000269097 -0.00023127,-0.000684069 -0.00023127,-0.00102361 0.000500367,3.78276e-005 0.000791662,0.000347018 0.000904012,0.000653716l0.000360608 0c0.000365592,0 0.00255869,0.00168412 0.00360495,0.00248485l0.000181437 0c0.00125783,0 0.00406998,0.00452074 0.00441473,0.00622049 0.000312135,0.00153213 0.000581232,0.00295712 0.000885665,0.00440658 0.00013319,0.000627893 0.000409988,0.00406432 0.000993938,0.00414949 0.000574663,-0.000837418 0.00166668,-0.00483356 0.00187938,-0.00585558 0.000426071,-0.00206398 0.00106982,-0.00420566 0.00109066,-0.00670138 -8.08651e-005,-5.48161e-005 -0.000174868,-9.98921e-005 -0.00027544,-0.000137493 -0.00390282,-0.000211789 -0.00918872,-0.00313471 -0.0103892,-0.00561367 -0.000276799,-0.000568094 -0.0011414,-0.00183249 -0.00154776,-0.00248235 -0.000536609,-0.00085803 -0.000901294,-0.00173894 -0.00140529,-0.00261645 -0.000457103,-0.000798231 -0.000923493,-0.00180689 -0.00150201,-0.00252131 -0.000322781,-0.000390508 -0.00162614,-0.00189455 -0.00171629,-0.00229254l-1.97066e-005 -1.83475e-005 1.44968e-005 0 -1.35908e-006 -8.38097e-006c4.43965e-005,0 9.12846e-005,3.6242e-006 0.000141117,6.11584e-006l0.000279517 -6.11584e-006c0.00118987,0 0.00516449,0.00132261 0.00617655,0.00170111 0.00146961,0.00054884 0.00381402,0.00191064 0.00463694,0.00300333 0.000544763,0.000720311 0.00108024,0.00142612 0.00153349,0.00223183 0.000231043,0.000405005 0.00115839,0.00192876 0.00144447,0.00231564 0.000568094,0.000757006 0.00184948,0.00380156 0.00279381,0.00438438 0.000173735,-0.00102089 7.97325e-005,-0.00541139 -0.000107141,-0.00636546 -0.000208845,-0.00109043 -9.64944e-005,-0.00197746 -0.000390508,-0.00303369 -0.000191856,-0.000683842 -0.000442606,-0.00236932 -0.000504217,-0.00305928l-0.00337232 0 -0.00083855 0c-0.00311115,0 -0.00583588,-0.00142499 -0.00760562,-0.00272336 -0.000906504,-0.000663229 -0.00498305,-0.00478101 -0.00531218,-0.00486278l0 0c0,0.0100544 -0.000138399,0.0179971 -0.000138399,0.0269419 0,0.00272699 -0.00178288,0.00752657 -0.00319089,0.00932145 -0.00093278,0.00119123 -0.00163406,0.0026758 -0.00266991,0.00378933 -0.000306925,0.000328444 -0.00312814,0.0033354 -0.00312678,0.00336711l0.00116767 0.0065127 -0.000181663 2.67285e-005 0 0.000784867c0,0.00289257 -0.00140664,0.00515249 -0.00277161,0.00683525 -0.000531625,0.000659605 -0.00387926,0.0051876 -0.00396556,0.00570971 0.00198153,-0.000243501 0.0109483,-0.00501227 0.0109483,-0.00574368l0 -0.000130245c0,-0.000222662 -0.000783734,-0.00123268 -0.000964038,-0.00171946 -0.000157879,-0.000429468 -0.000632197,-0.00134707 -0.000862108,-0.00181188 -0.000441247,-0.000894499 -0.0009808,-0.00314083 -0.0009808,-0.00444645 0,-0.00258949 0.00126575,-0.00505259 0.00196047,-0.00706788 9.42293e-005,-0.000278611 0.000512145,-0.00110357 0.000704002,-0.00156724 0.000306925,-0.000749531 0.000355399,-0.000646241 0.000646694,-0.00162093 0.000203635,-0.000683842 0.000459594,-0.000807971 0.000604789,-0.00165853 7.56553e-005,-0.000466163 0.000146101,-0.00166238 0.000296279,-0.00194937 6.2744e-005,4.00928e-005 0.000126847,8.8793e-005 0.000194574,0.000148366 0.00130494,0.000485643 0.00373316,0.00672947 0.00373316,0.0088759l0 0.000916471c0,0.00197247 -0.00106846,0.00402287 -0.00165898,0.00551717 -0.000357664,0.000912846 -0.000511919,0.00175004 -0.000933686,0.00265903 -0.000296505,0.000636274 -0.000884306,0.00182524 -0.000915565,0.00265156 0.00101885,-0.000305566 0.00428019,-0.00324434 0.00494749,-0.00386476 0.000478168,-0.000440567 0.00431688,-0.00439299 0.00431688,-0.00460954 0,-0.000400475 -0.00561525,-0.00455245 -0.00561525,-0.00980823l-8.99256e-005 -0.0010551 0.000792795 -0.00810078c6.2744e-005,-0.000646014 -0.000283367,-0.00188481 -0.000283367,-0.00274647 0.00013183,3.28444e-005 0.00027544,9.49089e-005 0.000433545,0.000184834 0.00191471,0.00072167 0.00644587,0.00690955 0.00644587,0.00936291l0 0.00130698c0,0.00178515 -0.000261169,0.00319791 -0.000275666,0.00484443 -1.13256e-006,0.000340675 -0.000105781,0.00204428 -0.000175094,0.002452 -8.72074e-005,0.000528001 -0.000365592,0.00139079 6.1385e-005,0.00172422 0.00094184,-0.000654622 0.00257704,-0.00349124 0.00301081,-0.00422628 0.00045597,-0.000775127 0.00257568,-0.0042931 0.00257568,-0.00505486 0,-0.00021043 -0.00337391,-0.00214666 -0.00378526,-0.00249096 -0.00097695,-0.000817711 -0.00237589,-0.00218064 -0.00300288,-0.00334876 -0.000355172,-0.000658473 -0.000675235,-0.00162093 -0.00096132,-0.00211382 -0.000394359,-0.000680218 -0.000325046,-0.0016318 -0.000592784,-0.00245585 -0.000193442,-0.000592557 -0.000923493,-0.00473344 -0.000906504,-0.00533596l0.000820203 0.000304433 0.000425618 -0.000122996c-9.06051e-006,-3.17118e-005 -0.00230771,-0.00247397 -0.00215504,-0.00342306z"/>
 </g>
</svg>
