<?xml version="1.0" encoding="UTF-8"?>
<!DOCTYPE svg PUBLIC "-//W3C//DTD SVG 1.1//EN" "http://www.w3.org/Graphics/SVG/1.1/DTD/svg11.dtd">
<!-- Creator: CorelDRAW -->
<svg xmlns="http://www.w3.org/2000/svg" xml:space="preserve" width="1in" height="2in" style="shape-rendering:geometricPrecision; text-rendering:geometricPrecision; image-rendering:optimizeQuality; fill-rule:evenodd; clip-rule:evenodd"
viewBox="0 0 0.166605 0.0718111"
 xmlns:xlink="http://www.w3.org/1999/xlink">
 <defs>
  <style type="text/css">
   <![CDATA[
    .fil0 {fill:#28166F;fill-rule:nonzero}
   ]]>
  </style>
 </defs>
 <g id="Layer_x0020_1">
  <metadata id="CorelCorpID_0Corel-Layer"/>
  <path class="fil0" d="M0.071637 0.00824843l0.0133654 0c0.00361596,0 0.00633326,0.000306199 0.00812801,0.000930343 0.0018055,0.000624143 0.00306511,0.00151911 0.00376778,0.00268491 0.000711022,0.00117768 0.00105345,0.00260255 0.00101934,0.00426302 -3.66477e-005,0.00167207 -0.000452224,0.00425114 -0.00124942,0.00774852l-0.00110849 0.00486353c-0.000813183,0.00356813 -0.00173999,0.00617068 -0.00277744,0.00779578 -0.00105104,0.00163684 -0.00257312,0.00288498 -0.00457163,0.00376821 -0.00199567,0.00087148 -0.00444088,0.00130729 -0.00733577,0.00130729l-0.0035619 0 -0.00512615 0.0224921 -0.0132795 0 0.0127298 -0.0558537zm0.0111027 0.00955034l-0.00323943 0.0142137c0.000371288,2.34885e-005 0.000691354,3.53742e-005 0.00096034,3.53742e-005 0.00122692,0 0.00214142,-0.000329829 0.00276245,-0.000977461 0.00062386,-0.000659376 0.00117202,-0.00202539 0.00164165,-0.00408629l0.00104679 -0.00459257c0.000434679,-0.00190766 0.000450102,-0.00315595 3.01389e-005,-0.00372123 -0.000417275,-0.000577025 -0.00148006,-0.00087148 -0.00320194,-0.00087148zm0.0413153 0.015144l-0.0112885 0 0.000563583 -0.00247294c0.000483071,-0.00211962 0.00068145,-0.00346229 0.000584241,-0.00402743 -8.63132e-005,-0.000565139 -0.000570799,-0.00084785 -0.00145317,-0.00084785 -0.000721069,0 -0.00131804,0.000259081 -0.00179135,0.000777243 -0.000473166,0.00051802 -0.000833276,0.00129526 -0.00106943,0.00233159 -0.0003195,0.00140124 -0.000458733,0.00243771 -0.000434254,0.00308534 3.28273e-005,0.000659376 0.000407087,0.00137776 0.00112306,0.002155 0.000713428,0.000788987 0.00228249,0.00193129 0.00472076,0.00341503 0.00325103,0.00197841 0.00524558,0.00385084 0.00601051,0.00559366 0.000751491,0.00175456 0.000755735,0.00428637 -6.65036e-006,0.00763079 -0.000847991,0.00372123 -0.00193073,0.00653575 -0.00324523,0.00843166 -0.00131451,0.00189592 -0.00313246,0.00335603 -0.00543193,0.00438061 -0.00229975,0.00102458 -0.00491179,0.001531 -0.00783893,0.001531 -0.00322825,0 -0.00587849,-0.000553536 -0.0079319,-0.00164872 -0.00205057,-0.00110693 -0.00329164,-0.00260255 -0.00372307,-0.00448673 -0.000431424,-0.00188403 -0.00020984,-0.00474567 0.0006598,-0.00856099l0.00050189 -0.00220212 0.0112885 0 -0.000660225 0.00289673c-0.000560894,0.00246134 -0.000786016,0.0040628 -0.000661781,0.00479293 0.000110651,0.000741869 0.00058693,0.00110693 0.00142629,0.00110693 0.000904166,0 0.00159538,-0.000247195 0.00206331,-0.000741869 0.000467789,-0.000494673 0.00088945,-0.0015426 0.00124914,-0.00312072 0.000499201,-0.00219023 0.000584666,-0.00355639 0.000248044,-0.00410978 -0.000358129,-0.000553395 -0.0024629,-0.00217863 -0.00629803,-0.00489877 -0.0032216,-0.00229635 -0.00502795,-0.00438075 -0.00541636,-0.00626478 -0.000391098,-0.00187243 -0.000292757,-0.00409818 0.000295021,-0.0066771 0.000832002,-0.00365062 0.00188785,-0.00634727 0.00316755,-0.00809009 0.00127687,-0.00173107 0.00307855,-0.0030736 0.00541325,-0.00401554 0.00232395,-0.000942228 0.0048849,-0.00141327 0.00768272,-0.00141327 0.0027657,0 0.00504465,0.000388692 0.00680728,0.00115405 0.00177055,0.000777243 0.00303553,0.00179008 0.00378151,0.00305011 0.000754037,0.00127177 0.00112306,0.00243757 0.00109151,0.00352101 -2.09416e-005,0.00108344 -0.000299832,0.00277914 -0.00082323,0.0050755l-0.000603909 0.00264953zm0.0340353 -0.0146258l-0.0163861 0.0457852 -0.0166153 0 0.00403196 -0.0457852 0.0113748 0 -0.00403889 0.0333967c0.000824644,-0.00243757 0.0026508,-0.00841978 0.00546504,-0.0179347 0.00159778,-0.00531109 0.00319302,-0.0104689 0.00479378,-0.0154619l0.0113747 0zm-0.0151074 -0.000101736l0.000410058 -0.0033914 -0.016432 0 -0.000360817 0.00409832c-0.000165127,-7.99458e-005 -0.000330395,-0.000156213 -0.000495381,-0.000228801 -8.43322e-005,-3.65062e-005 -0.000169372,-7.18805e-005 -0.000254412,-0.000106689 -0.00117895,-0.00159227 -0.00277136,-0.0025993 -0.00433264,-0.00328471 -0.00234857,-0.00101991 -0.00500899,-0.00130248 -0.00750939,-0.00130248 -0.00279372,0 -0.00563158,0.000438075 -0.00838398,0.00155392 -0.000323038,0.00013046 -0.0006465,0.000271674 -0.000968547,0.000424349 -0.000257808,-0.00113481 -0.000668573,-0.00218061 -0.00123159,-0.00311322 -0.00116523,-0.00193299 -0.00297908,-0.00298502 -0.00473095,-0.00362006 -0.0012139,-0.00185927 -0.00304516,-0.00286036 -0.00478798,-0.00346286 -0.0026542,-0.000922985 -0.00591627,-0.00102642 -0.00869641,-0.00102642l-0.0153108 0 -0.000432839 0.00189946 -0.00291031 0.000240686 -0.00314279 -0.00066164 -0.00831267 -0.00368939 -0.0103076 0.000445291 -0.00329971 -0.000445291c-0.00274532,-0.00103038 -0.00458252,-0.00187017 -0.00549405,-0.00254426l0.00174197 0.00231532 0.00533741 0.00276061 0.0104389 -0.000229084c0.000682723,0.000623436 0.00119975,0.0016159 0.00155831,0.00298983l4.11756e-005 0.00160288 -0.00114344 0.00230258 -0.00135314 0.000712437 -0.00187087 0 -0.00299125 -0.000928786 -0.00735912 -0.00507578 -0.00348111 -0.000216349 -0.00914608 0.00297696 -0.00690534 -0.00044515 -0.00377273 -0.00231546 0.000659234 0.00115759 0.00274136 0.00231546 0.00283376 0.00115759 0.00517837 0.00044515 0.00953322 -0.00208623 0.0014137 0.000699703 0.000645651 0.00138653 -0.000719654 0.00230286 -0.00270104 0.00160288 -0.00679893 -0.000216207 -0.00280971 -0.00115773 -0.00363775 0 -0.012383 0.0039056 -0.00282329 -0.000928645 0.00191771 0.00164108 0.00156482 0.00044515 0.00508696 -0.00044515 0.00595391 -0.00253166 0.00188658 -0.000267146 0.000815872 0.000941379 0.000488872 0.00160288 -0.000837238 0.00185729 -0.00269297 0.00160316 -0.00349936 0.000228942 -0.00658343 -0.00115759 -0.00304601 0 -0.00340696 0.00137394 -0.00257298 0.00187017 0.0045695 -0.00115787 0.00231857 0 0.00711206 0.00208651 0.00344828 0.000228942 0.00310161 -0.000941521 0.00514285 -0.00368925 0.00306893 -0.000928645c0.00088945,0.000101736 0.00167603,0.000725031 0.00237672,0.00185743l0.000104 0.000674233 -0.000400719 0.00164108 -0.000822098 0.00160288 -0.00257072 0.0018321 -0.0139158 0.000483354 -0.00295446 0.00115759 -0.00241323 0.00160302 0.00149718 -0.000712437 0.00857514 -0.000890582 0.00628275 0.00137408 0.00335447 -0.000483495 0.00783582 -0.00529227 0.00297851 -0.00115773c0.000916476,5.09389e-005 0.00186139,0.000432698 0.0028339,0.00115773 0.000266297,0.0013104 0.000367185,0.00284961 0.000294738,0.00461818l-0.00164915 0.00368925 -0.00242667 0.00183182 -0.00304615 0 -0.00308718 -0.00160288 -0.00328372 -0.000712437 -0.00889577 0.00347319 -0.00345621 -0.000228942 -0.0028472 -0.000928928 -0.00181045 -0.00115773 0.00318906 0.0023156 0.00297851 0.00114485 0.00360563 0 0.00607942 -0.00208637 0.00171112 0.000267146 0.000632775 0.00160302c-0.000309171,0.00131026 -0.000864547,0.00245526 -0.00164915,0.0034221l-0.00310176 0.000941238 -0.00315001 -0.000674092 -0.00265236 -0.00138667 -0.00680459 -0.000254412 -0.00593792 0.00253166 -0.00321057 0.000483354 -0.00299125 -0.000928645 0.000141638 0.000445291 0.00248794 0.00187002 0.00473392 0.000928645 0.00752792 -0.00278608 0.00187965 -1.25932e-005 0.000952416 0.000928645c-9.5652e-005,0.00134847 -0.000547735,0.00250605 -0.00135639,0.00347304 -0.000921287,0.000572497 -0.00195464,0.000877706 -0.00310091,0.000928645l-0.00299125 -0.000928645 -0.00345621 -0.000228942 -0.00602919 0.00204817 -0.0041044 0.00302775 0.00443013 -0.00164122 0.00672847 -0.000890441 0.0056545 0.00226452 0.00335221 -0.000445291 0.0164827 -0.00942681 0.00294653 -0.00115773 0.00332589 0c0.000760263,0.000394494 0.00139389,0.00117046 0.00190186,0.00231532l4.9241e-005 0.00160302 -0.00102104 0.00253166 -0.00244747 0.00204817 -0.00336239 0.000483495 -0.0063068 -0.00137394 -0.0029229 0.000216207 -0.00838837 0.00530501 -0.00319925 0.000699703 -0.00231843 0 -0.00355341 -0.00115759 0.000407936 0.000674233 0.00265307 0.00137379 0.0032973 0.000483495 0.00335447 -0.000483495 0.00297851 -0.00115759 0.00256194 -0.00181909 0.00297851 -0.00115787c0.000825918,0.000229225 0.00145247,0.00099246 0.00187795,0.00231546l-0.000559762 0.00230258 -0.00109971 0.00115773 -0.00262477 0.000445291 -0.00937658 -0.000699844 -0.0046943 0.00137408 -0.0053026 0.00368925 0.00462214 -0.00204817 0.00668036 -0.000483354 0.00766942 0.00253152 0.00117754 -0.00044515 0.0106888 -0.00689529 0.00322401 -0.000712296 0.00285456 0.000941379c0.000595985,0.000737765 0.00106052,0.00180635 0.00140153,0.00320576 -0.000323745,0.00128493 -0.000923975,0.00237899 -0.00178258,0.0032441l-0.00309298 0.000928786 -0.0062877 -0.00142487 -0.00323207 0.000712437 -0.00282343 0.00137394 -0.00501239 0.00391833 -0.00233229 0.00253166 0.00258572 -0.00208637 0.00741133 -0.00297696 0.0105956 -0.000445291 0.00336805 -0.000712296 0.00591698 -0.00231546 0.00271703 -0.00160288 0.00242356 -0.00204831 0.00191375 -0.000951001 -0.00188276 0.00826116 -0.00881215 -0.000631218 -0.00386839 0.00160288 -0.00270571 0.00181937 -0.00338178 0.00324396 0.00257072 -0.00183182 0.00323674 -0.000928786 0.00596905 -0.000216207 0.00601362 0.00123201 -5.36274e-005 0.000235309 0.00536005 0 -0.000772998 0.0033914 0.0183495 0 0.00512629 -0.0224921 0.00161646 0c0.00205425,0 0.00421307,-0.000198803 0.00629379,-0.000816862l-0.000396475 0.00173942c-0.000755877,0.00331669 -0.00141554,0.00744104 -0.000670696,0.0106938 0.000757433,0.00330707 0.00283602,0.00525591 0.00503842,0.00644476 0.000394918,0.000210548 0.000798468,0.000399729 0.00120923,0.000568535 0.000946049,0.00125055 0.00214255,0.00215613 0.00337782,0.00282301 0.00270302,0.00144171 0.00582472,0.0018638 0.00877097,0.0018638 0.00286192,0 0.00580024,-0.000449819 0.00860641,-0.00169994 0.00172471,-0.00076847 0.00341432,-0.00184526 0.00490315,-0.00335886l-7.41444e-005 0.000843039 0.00488561 0 -0.0002987 0.0033914 0.0208176 0 0.0188865 -0.0527716 -0.00580095 0 0.0012139 -0.0033914 -0.0168117 0 -0.00073069 0.00227952c-0.000118857,0.000370298 -0.000237573,0.000741303 -0.000355723,0.00111188l-0.00113679 0zm-0.0182238 0.0216123l-0.000706919 0c0.000221726,0.000181116 0.000441188,0.000368741 0.000657395,0.000562026l4.95239e-005 -0.000562026zm-0.0270476 0.00415548c-0.000180267,0.00019187 -0.000364496,0.000375675 -0.000552121,0.000551697l0.00109575 0c-0.000183663,-0.000178569 -0.000365487,-0.000362374 -0.000543631,-0.000551697z"/>
 </g>
</svg>
