<?xml version="1.0" encoding="UTF-8"?>
<!DOCTYPE svg PUBLIC "-//W3C//DTD SVG 1.1//EN" "http://www.w3.org/Graphics/SVG/1.1/DTD/svg11.dtd">
<!-- Creator: CorelDRAW -->
<svg xmlns="http://www.w3.org/2000/svg" xml:space="preserve" width="1in" height="2in" style="shape-rendering:geometricPrecision; text-rendering:geometricPrecision; image-rendering:optimizeQuality; fill-rule:evenodd; clip-rule:evenodd"
viewBox="0 0 0.0489796 0.058252"
 xmlns:xlink="http://www.w3.org/1999/xlink">
 <defs>
  <style type="text/css">
   <![CDATA[
    .fil0 {fill:#DA251D}
   ]]>
  </style>
 </defs>
 <g id="Layer_x0020_1">
  <metadata id="CorelCorpID_0Corel-Layer"/>
  <path class="fil0" d="M0.0420641 0.0223809l-0.0011536 0.00472503 -0.00322307 0 -0.00432206 -0.0161528c-0.000116716,-0.000387268 -0.000279119,-0.000627125 -0.000495775,-0.000723853 -0.000237001,-8.74477e-005 -0.000395478,-0.000188816 -0.000478642,-0.000299464 -8.35215e-005,-0.000110648 -0.000124925,-0.000258417 -0.000124925,-0.000442593 0,-0.000553241 0.000391195,-0.000829861 0.00117822,-0.000829861l0.00542176 0c0.000216656,0 0.000399761,0 0.000549671,0 0.00014991,0 0.000316596,4.60439e-005 0.000499701,0.000133849 0.000166329,0.000115288 0.000249851,0.000327304 0.000249851,0.000640688 0,0.000331944 -0.000158477,0.000571444 -0.000474716,0.000719213 -0.000333015,0.000165972 -0.000499701,0.000451516 -0.000499701,0.000857345l4.5687e-005 0.000354788 0.0028276 0.0110177zm0.00476786 -0.013009c0,0.000299464 -0.000141701,0.00052076 -0.000420463,0.000668529l-0.00062891 0.000331944c-0.000233075,0.000110648 -0.000474716,0.000377988 -0.000724567,0.000802021 -0.000249851,0.000424032 -0.000441522,0.000885185 -0.000574656,0.00138774l-0.00194455 0.00787815 -0.000653895 -0.00254455 0.00140345 -0.00567518 7.49552e-005 -0.000631408c0,-0.000663532 -0.000237358,-0.00110612 -0.000703865,-0.00132278l-0.000370493 -0.000143129c-0.000316596,-0.000115288 -0.000478999,-0.000340868 -0.000478999,-0.000691372 0,-0.000516477 0.000341581,-0.000774537 0.00102867,-0.000774537l0.00296894 0c0.000682806,0 0.00102439,0.000239857 0.00102439,0.000714573zm-0.0229609 0.0180938c-0.00046615,0 -0.000974417,-0.000110648 -0.00152409,-0.000331944 -0.000549671,-0.000221296 -0.00110755,-0.000451873 -0.00166972,-0.000691372 -0.000120642,-3.56929e-007 -0.000287328,0.000138132 -0.000499701,0.000414752 -0.000237358,0.000295181 -0.000470433,0.000442593 -0.000703865,0.000442593 -0.000445448,0 -0.000670314,-0.000396549 -0.000670314,-0.00118929l0 -0.004891c0,-0.000613205 0.000233075,-0.000922306 0.000695299,-0.000922306 0.000316596,0 0.000541462,0.00027198 0.00067888,0.000807018 0.000345508,0.00147519 0.000970134,0.00271052 0.0018696,0.00370636 0.000499701,0.000571444 0.00110755,0.000940152 0.00182391,0.00110612l0 0.00154907zm0.00714144 -0.00638939c0,0.00183033 -0.000570373,0.00335157 -0.00171969,0.0045637 -0.00114931,0.00121713 -0.00262343,0.00182569 -0.00441807,0.00182569l0 -0.00154907c0.00131172,-0.000350148 0.00196954,-0.00105116 0.00196954,-0.00209732 0,-0.000590004 -0.000174895,-0.00108328 -0.000524686,-0.00147519 -0.00036621,-0.000364425 -0.00107436,-0.000793097 -0.00212373,-0.0012953 -0.00148233,-0.000700653 -0.00252349,-0.00128173 -0.00312313,-0.00174253 -0.0015116,-0.00123569 -0.00226936,-0.00286293 -0.00226936,-0.00486816 0,-0.00180713 0.000516477,-0.00328232 0.00154479,-0.00442557 0.00103295,-0.00114325 0.00242355,-0.00171469 0.00417679,-0.00171469l0 0.00154872c-0.00107043,0.000313384 -0.00160333,0.000940509 -0.00160333,0.00188102 0,0.000811301 0.000399761,0.00148411 0.00119928,0.00201915 0.000216656,0.000128852 0.000457941,0.00025806 0.00072885,0.000387268 0.000245567,0.000147412 0.000520403,0.000285544 0.000824507,0.000410112 0.000682806,0.000350505 0.00119893,0.000627125 0.00154907,0.000829861 0.00107828,0.000631408 0.00176966,0.00110184 0.00206948,0.00141523 0.00114931,0.00116181 0.00171969,0.00259059 0.00171969,0.00428708zm-0.000620343 -0.00711289c0,0.000613205 -0.000241641,0.000921949 -0.000724567,0.000921949 -0.000382985,0 -0.000633193,-0.000327304 -0.000749552,-0.000972633 -0.000183105,-0.00101439 -0.000583223,-0.0018903 -0.00119928,-0.00262771 -0.000616417,-0.000737773 -0.00134919,-0.00121713 -0.00219869,-0.00143843l0 -0.00149339c0.000553955,0 0.00106187,9.20878e-005 0.00152409,0.00027662 0.000482926,0.0002395 0.000890896,0.000433312 0.00122427,0.000580724 0.000304104,-0.000184533 0.000528969,-0.000313384 0.00067888,-0.000382628 0.000462224,-0.0002627 0.000736702,-0.000391909 0.00082415,-0.000391909 0.00041261,0 0.0006207,0.000359785 0.0006207,0.00107864l0 0.00444877zm-0.0192132 0.0123683c0,0.00051612 -0.000358357,0.00077418 -0.00107436,0.00077418l-0.000395478 0 -0.00547173 0 -0.000329089 0c-0.000616417,0 -0.000920164,-0.00024878 -0.000920164,-0.000751337 0,-0.000345508 0.000174539,-0.000585364 0.000524686,-0.000714573 0.000333015,-0.000110648 0.000541105,-0.000221296 0.000620343,-0.000331944 7.0672e-005,-9.20878e-005 0.000103866,-0.000318024 0.000103866,-0.000668172l3.56929e-007 -0.0135162c0,-0.000350505 -3.35514e-005,-0.000585364 -0.000104223,-0.000696012 -7.92383e-005,-9.24447e-005 -0.000287328,-0.000203093 -0.000620343,-0.000331944 -0.000349791,-0.000110648 -0.000524686,-0.000341225 -0.000524686,-0.000687089 0,-0.0005022 0.000303747,-0.000751337 0.000920164,-0.000751337l0.000329089 0 0.00544674 0 0 0.0158766c0,0.000368708 4.96132e-005,0.000617488 0.000145627,0.000746696 0.000103866,0.000129208 0.000353717,0.0002395 0.000749552,0.000331944 0.000399761,0.000110648 0.000599285,0.000345865 0.000599642,0.000719213zm0.00619594 -0.0120271c0,0.00145199 -0.00036621,0.00267804 -0.00109934,0.00367387 -0.000728493,0.00100047 -0.00173646,0.00161796 -0.00302284,0.00185318 -0.000366567,7.38844e-005 -0.000749909,0.000129208 -0.00114539,0.000165972 -0.000420463,3.67637e-005 -0.000895179,5.99642e-005 -0.00142843,5.99642e-005l3.56929e-007 -0.00147519c0.000532896,-0.000124568 0.000899105,-0.000345865 0.00110327,-0.000659249 0.000183462,-0.000295181 0.000274836,-0.00079274 0.000274836,-0.00149375l0 -0.00431492c0,-0.000645328 -9.99403e-005,-0.00111076 -0.000304104,-0.00140595 -0.000199524,-0.000294824 -0.000557881,-0.00049292 -0.00107436,-0.000585364l3.56929e-007 -0.00146591 0.000199881 0c0.000882687,0 0.00174039,8.31646e-005 0.0025731,0.000249137 0.00121606,0.0002395 0.0021737,0.000838784 0.00287328,0.00179785 0.000699939,0.000977273 0.00104937,0.00217584 0.00104937,0.00360035zm0.00716964 0.0439473c-0.0024778,-0.00121998 -0.00483282,-0.00258238 -0.00709826,-0.00407613 -0.00323057,-0.00259916 -0.00674418,-0.00519796 -0.0089575,-0.00854132 -0.00198845,-0.00204128 -0.00332837,-0.0048314 -0.00464686,-0.00721176 -0.0021041,-0.00445948 -0.00334657,-0.00890253 -0.00384199,-0.0136793 4.533e-005,-0.00577869 8.99462e-005,-0.0115563 0.000141701,-0.0173346 0.00803805,-0.00151053 0.016075,-0.00302069 0.0241195,-0.00452515 0.000573229,7.63829e-005 0.00114539,0.000153123 0.00171862,0.000229863 0.00761973,0.00135669 0.0152452,0.00271409 0.0228706,0.00407114 3.89053e-005,0.00508303 8.38784e-005,0.0101718 0.000129208,0.0152605 -9.03032e-005,0.0034358 -0.000624627,0.00663175 -0.00151873,0.00997511 -0.000855917,0.00241284 -0.00176287,0.00472753 -0.00285722,0.0070697 -0.000720998,0.00121998 -0.00144164,0.00243997 -0.00215585,0.00366567 -0.00164759,0.00233682 -0.00343045,0.0044377 -0.00536108,0.00660998 -0.000643901,0.000568946 -0.0018596,0.00144449 -0.00235538,0.00217763 -5.78226e-005,5.71087e-006 -0.00010922,1.10648e-005 -0.000160618,1.64188e-005 -6.42473e-006,4.39023e-005 -1.32064e-005,8.78046e-005 -1.92742e-005,0.000137061 -6.46042e-005,1.07079e-005 -0.000128852,2.71266e-005 -0.000187031,4.35454e-005 -0.00280547,0.00244568 -0.00599142,0.00421891 -0.00934334,0.0060628 -0.000161332,1.64188e-005 -0.000322307,3.24806e-005 -0.000476501,4.88993e-005zm0.000203807 -0.00188316c-0.00235752,-0.00114681 -0.00459868,-0.00242676 -0.00675418,-0.00383057 -0.00307388,-0.00244211 -0.00641723,-0.00488458 -0.00852312,-0.00802592 -0.00189244,-0.00191814 -0.00316704,-0.00454014 -0.00442164,-0.00677666 -0.00200202,-0.00419035 -0.00318417,-0.00836571 -0.00365567,-0.0128541 4.28315e-005,-0.00542997 8.56631e-005,-0.0108592 0.000134919,-0.0162888 0.00764828,-0.00141915 0.0152951,-0.0028383 0.0229499,-0.00425246 0.000545745,7.20998e-005 0.00109006,0.0001442 0.00163545,0.000216299 0.00724995,0.00127495 0.014506,0.00255026 0.0217616,0.00382521 3.71207e-005,0.00477643 7.99522e-005,0.00955857 0.000122784,0.01434 -8.56631e-005,0.00322914 -0.000594288,0.00623199 -0.00144485,0.00937332 -0.000814513,0.00226722 -0.00167757,0.00444234 -0.00271837,0.00664317 -0.000686375,0.00114646 -0.00137204,0.00229327 -0.00205163,0.00344473 -0.00156763,0.00219547 -0.00326412,0.00417001 -0.00510124,0.00621129 -0.000612134,0.00053468 -0.00176966,0.0013574 -0.00224116,0.00204628 -5.49671e-005,4.99701e-006 -0.000103866,1.0351e-005 -0.000152766,1.5348e-005 -6.0678e-006,4.10469e-005 -1.24925e-005,8.24507e-005 -1.82034e-005,0.000128852 -6.13919e-005,9.6371e-006 -0.000122784,2.5342e-005 -0.000178108,4.10469e-005 -0.00266948,0.00229791 -0.00570088,0.00396406 -0.0088904,0.00569659 -0.000153123,1.5348e-005 -0.000306602,3.06959e-005 -0.0004533,4.64008e-005zm-0.0246067 -0.0503992c1.89173e-005,-0.000465079 3.85484e-005,-0.000930158 6.38904e-005,-0.00138988 0.00799272,-0.00152659 0.0159854,-0.00305317 0.0239782,-0.00457976 0.000148483,-3.56929e-007 0.000296251,0 0.000450802,0 0.00805054,0.00144985 0.0161011,0.00290005 0.0241516,0.00435026 1.96311e-005,0.000437239 3.89053e-005,0.000875191 6.42473e-005,0.00131314 -0.0238618,-0.00421891 -0.0238622,-0.00421891 -0.0245764,-0.00429565 -0.00804376,0.00153194 -0.0160882,0.00306424 -0.0241324,0.00460189zm0.0234239 0.0473645c-0.000637119,-0.00061606 0.00121534,-0.00194634 0.00173896,-0.00221118 0.00041261,-0.000405472 0.00127709,-0.00102082 0.00146056,-0.00157299 -0.0010922,-0.00109363 -0.00162867,-0.0023154 -0.00112076,-0.00369672 0.000364068,-0.000521474 0.000616774,-0.000795596 0.000604995,-0.00140844 -4.0333e-005,-2.35573e-005 -0.000160618,0.0004301 -0.000383699,0.000853418 -0.000153123,0.000162403 -0.000268411,0.00029411 -0.000477215,0.000399404 -5.85364e-005,-2.10588e-005 -0.000119571,-4.10469e-005 -0.000179536,-5.74656e-005 -0.000847707,-0.000991907 -0.0010715,-0.00187852 -0.00249993,-0.00215942 -0.000955857,-0.000607137 -0.00167186,-0.00128031 -0.00245211,-0.00203807 -0.000112076,-0.000186674 -0.000112076,-0.000186317 -0.000151695,-0.000460439 -0.00066032,-6.42473e-005 -0.00112004,-7.13859e-005 -0.00154443,-0.000548958 -0.000630694,-0.000209518 -0.00119643,-0.000510766 -0.00178322,-0.000804876 -0.000340868,1.32064e-005 -0.000240214,0.000213087 -0.000244854,0.000442949 0.000256989,0.000609636 0.000284116,0.00121856 0.000668529,0.00178465 1.24925e-005,0.000107436 2.81974e-005,0.000216299 4.39023e-005,0.000324449 0.000848778,0.000250208 0.000787743,0.000637119 0.000787743,0.00133349 -6.35334e-005,0.000138846 -0.000127067,0.000277691 -0.000191671,0.000419749 -0.000735275,9.6014e-005 -0.00124747,-0.00111612 -0.00163188,-0.00153658 -0.000119571,-0.000294824 -0.000119928,-0.000294467 -0.000403687,-0.0017129 -2.81974e-005,-7.13859e-006 -5.28256e-005,-1.35633e-005 -7.6026e-005,-1.71326e-005 -0.000259845,0.000237358 -0.000689231,0.0008834 -0.00113289,0.000697797 0,-0.000619986 0.00010458,-0.00119893 0.00010458,-0.00181213 0.000567518,-0.00119821 0.00079167,-0.00255097 0.0015812,-0.00364461 0.000831646,-0.000342295 0.00107436,-0.000121356 0.00177858,0.000331231 0.000551099,0.000281617 0.00107543,0.000788457 0.00172004,0.000562164 0.000471861,-0.000362283 0.000884828,-0.000605709 0.00143664,-0.000876619 3.0339e-005,-9.81556e-005 6.31765e-005,-0.000192742 9.92264e-005,-0.000287685 0.000664603,-0.000653895 0.00227971,-0.00201487 0.00206448,-0.0030264 -0.000956928,-0.000104937 -0.00159226,-0.000260915 -0.00248066,-3.78345e-005 -0.000187388,-6.78166e-006 -0.000375133,-1.32064e-005 -0.000559665,-2.0345e-005 -8.56631e-006,-9.06601e-005 -1.17787e-005,-0.000182391 -1.64188e-005,-0.000270553 -0.000151338,-1.32064e-005 -0.000304461,-2.67697e-005 -0.000451516,-4.0333e-005 -2.85544e-006,-0.000213444 -7.85245e-006,-0.000423675 -7.85245e-006,-0.000633193 0.000387625,-0.00065675 0.000616417,-0.000758118 0.00141059,-0.000819153 0.000606423,-0.000298036 0.0010972,-0.000568589 0.00172897,-0.000805233 0.000224509,-0.000531468 -0.00144021,-0.000183462 -0.00160368,-0.000359428 0.000731348,-0.000271266 0.000987624,-0.000515049 0.00179571,-0.000436525 4.85424e-005,-0.000179536 9.6014e-005,-0.000359071 0.000143486,-0.000535037 6.0678e-005,6.42473e-006 0.000124211,1.74895e-005 0.000188816,2.71266e-005 0.000247709,0.000342295 0.000255918,0.000369065 0.000215585,0.000758475 6.85305e-005,-7.13859e-006 0.000136704,-1.35633e-005 0.000204164,-1.74895e-005 0.00020809,-0.000226293 -0.000116002,-0.000470076 0.000307316,-0.000758475 0.00024878,0.000240927 0.000581438,0.000475073 0.000748481,0.000663889 0.000684591,7.85245e-005 0.00100761,0.000128495 0.00147983,0.000545388 0.00055217,4.39023e-005 0.0010483,6.42473e-006 0.00161261,9.06601e-005 -0.000311956,0.000142415 -0.000999759,0.000207733 -0.00114039,0.00044402 0.000372277,0.000121713 0.000639975,0.000352289 0.000944078,0.000568589 0.000556096,0.000111719 0.000684234,0.000172754 0.000972633,0.000589291 9.53002e-005,8.1023e-005 0.00019524,0.000162046 0.000295895,0.000246995 -0.000120285,0 -0.000236644,2.85544e-006 -0.000352646,6.42473e-006 -0.000476144,-0.000334086 -0.000795596,-0.000463294 -0.00140773,-0.000477215 3.67637e-005,0.000547887 0.00106008,0.00049756 0.00150767,0.000629981 0.000156692,0.000149197 0.000313027,0.000300535 0.000471504,0.000454371 -0.000367637,-3.56929e-007 -0.000383342,-2.46281e-005 -0.000663532,-0.000227721 -0.000364068,1.0351e-005 -0.000727422,2.42712e-005 -0.00109149,3.74776e-005 2.0345e-005,8.1023e-005 2.0345e-005,8.1023e-005 9.6371e-005,0.00014884 0.000467578,9.13739e-005 0.000915524,0.000264128 0.001311,0.00049399 -0.000455085,0.00024414 -0.00128744,-0.000138846 -0.00179643,-0.000219869 0.000453657,0.000247352 0.000520403,0.000432955 0.000665317,0.000870908 0.000132778,6.28196e-005 0.000263414,0.000127424 0.000399761,0.00019524 0.000143486,0.000331587 0.00019524,0.000501129 0.000523972,0.000721354 -0.000499344,1.64188e-005 -0.000495775,-0.000195597 -0.000908029,-0.000369065 -2.42712e-005,1.71326e-005 -4.35454e-005,3.42652e-005 -6.46042e-005,5.35394e-005 0.000469362,0.000518262 0.000528613,0.000718499 0.00126103,0.000799522 -0.000780962,0.000256632 -0.00115717,-0.000125282 -0.00184461,-0.000426174 -0.000118858,-3.56929e-007 -0.000240214,2.85544e-006 -0.000356573,6.0678e-006 0.000136347,0.000135633 0.000275906,0.000274836 0.000417251,0.00041261 0.000391909,0.000159904 0.00130386,0.000647113 0.00117573,0.00109042 -0.000264128,-0.000144556 -0.000779891,-0.000534323 -0.0010922,-0.000514692 3.99761e-005,0.000128852 7.95953e-005,0.000260915 0.000120642,0.000392979 0.000695299,0.000351576 0.000694942,0.000351932 0.000998689,0.000463651 -0.000139559,7.45983e-005 -0.000139559,7.45983e-005 -0.000731348,0.00017668 9.6371e-005,0.000101368 0.000191671,0.000202379 0.000288042,0.000304818 -9.6371e-005,1.57049e-005 -9.6371e-005,1.60618e-005 -0.000708862,-0.000122427 -0.000598928,-3.56929e-007 -0.000598928,0 -0.000811301,3.74776e-005 3.56929e-007,1.99881e-005 0,4.39023e-005 0,6.78166e-005 0.00061963,0.000134562 0.0010997,0.000646756 0.00170006,0.000646756 0.000513265,-0.000193813 0.000512908,-0.000193813 0.000532182,-0.000159904 -0.000759546,0.000812015 -0.00107579,0.000204164 -0.0021762,0.000149553 0,2.35573e-005 0,4.64008e-005 0,7.0672e-005 0.000435454,0.000131707 0.000659963,0.000311242 0.000908742,0.000626054 -9.6014e-005,1.74895e-005 -0.000264842,-3.0339e-005 -0.000508981,-2.28435e-005 0.000155621,0.000209161 0.00031731,0.000419392 0.000476144,0.000632479 -0.000455799,-9.49432e-005 -0.000788457,-0.000325163 -0.00117644,-0.000544674 -0.000383699,-8.81616e-005 -0.000759546,-0.000128495 -0.00107614,-0.00033944 0,0.00100154 0.000904816,0.00200416 0.00167257,0.00271266 0.00145199,0.000859486 0.00281617,0.00170577 0.00336799,0.00318809 0.00184889,-0.000300892 0.00229077,-0.00153337 0.00217977,-0.00294503 -0.000288042,-0.00111719 -0.000820581,-0.00211195 -0.000500058,-0.00325341 0.000464008,-0.000880188 0.000904459,-0.00122855 0.00186853,-0.00171647 1.57049e-005,4.46162e-005 -0.000636405,0.000541462 -0.0008602,0.000779534 -0.000339797,0.000572158 -0.000564305,0.00107614 -0.00040797,0.00172968 2.78405e-005,-3.56929e-007 5.49671e-005,0 8.38784e-005,0 0.00027198,-0.000643187 0.00100476,-0.00106008 0.001432,-0.0016326 3.56929e-007,0.000961925 -0.00125603,0.0015787 -0.000848421,0.00261701 2.42712e-005,0 5.31825e-005,0 7.99522e-005,0 0.000273051,-0.000494347 0.000739558,-0.000822009 0.00104509,-0.00130244 0,0.000602854 -0.000367994,0.0010351 -0.000561093,0.0016044 -7.85245e-005,0.00131314 0.000480784,0.00253206 -0.0001674,0.00377417 -0.000167757,0.000155264 -0.000337298,0.000311956 -0.000500415,0.00047079 -0.000335871,0.00018596 -0.000860557,0.000385841 -0.0008834,0.000446519 0.000256632,0.000602497 0.00024057,0.000978701 0.000107793,0.00160761 3.89053e-005,0.000138846 7.99522e-005,0.00028126 0.000120642,0.000424032 -1.92742e-005,2.85544e-006 -4.069e-005,5.71087e-006 -5.71087e-005,1.28495e-005 -0.00040797,-0.000527899 -0.000224152,-0.00134741 -0.000723496,-0.00173967 -2.39143e-005,1.67757e-005 -4.49731e-005,3.39083e-005 -6.46042e-005,5.42533e-005 0.000236644,0.00068352 0.000300892,0.00104223 4.28315e-006,0.00171933 -0.000367637,0.000554668 -0.000740272,0.000995833 -0.00085556,0.00162224 -0.000464008,-0.000982627 0.000643901,-0.00171969 0.000371921,-0.00265163 -2.85544e-005,0 -5.60379e-005,0 -8.42354e-005,0 -0.000136347,0.000400118 -0.000220582,0.000700653 -0.00023593,0.00111755 -3.60499e-005,-3.56929e-007 -7.20998e-005,0 -0.00010815,0 -3.56929e-005,-9.42294e-005 -0.0001442,-0.000182748 -0.000200237,-0.000324449 0,-0.00061963 5.60379e-005,-0.000904816 2.39143e-005,-0.00139167 -5.13978e-005,-3.56929e-006 -9.99403e-005,-7.13859e-006 -0.000147769,-1.0351e-005 -0.000227721,0.000894108 -0.000476501,0.00146948 -0.00117144,0.00217013 -0.000847707,0.000581795 -0.0022922,0.0011643 -0.00132064,0.00217013 0.000148483,0.00034408 0.00017668,0.000561093 0.000167757,0.000930515 -0.00100261,0.000564662 -0.00180678,0.0011436 -0.00244354,0.00202022 -0.000130993,7.45983e-005 -0.000263771,0.00015348 -0.000395478,0.00023129 -1.60618e-005,0.000158477 -3.28375e-005,0.000317667 -4.85424e-005,0.000476858 -0.000508268,0.000413324 -0.000940509,0.000514335 -0.00163117,0.000544674zm0.00155514 -0.0041361c-0.00124783,-0.000440808 -0.00212409,-0.000671384 -0.00345151,-0.000732062 -0.000512194,-0.000264128 -0.000800236,-7.03151e-005 -0.0013367,0 -0.000634978,-0.000118144 -0.00139202,-0.000381915 -0.00149161,-0.00100833 0.00101654,-0.000260915 0.0019317,2.10588e-005 0.00294824,2.10588e-005 0.000483282,0.000117787 0.00242391,0.000760974 0.0029079,0.000351932 -1.96311e-005,-9.24447e-005 -3.60499e-005,-0.000183462 -5.21117e-005,-0.000274479 -0.0010201,-0.00120178 -0.0014834,-0.00224437 -0.00174788,-0.00371706 0.00138738,0.000219869 0.00122427,0.00110041 0.00216406,0.00189565 0.000112433,2.35573e-005 0.000223795,5.13978e-005 0.000335514,7.81676e-005 -0.000218798,0.00107935 -0.000143486,0.00172968 0.000469005,0.00267447 3.56929e-007,0.000474002 -0.000237001,0.000673169 -0.000744912,0.000710647zm0.00699974 -0.00554811c-1.21356e-005,-5.10409e-005 -2.35573e-005,-9.81556e-005 -3.14098e-005,-0.000146341 0.000719213,-0.000740629 0.000935869,-0.00145556 0.000952288,-0.00241284 9.92264e-005,-3.56929e-007 9.92264e-005,0 0.000160618,6.03211e-005 0.000290541,0.000995476 -8.53061e-005,0.00195312 -0.0010815,0.00249886zm-0.00894358 -0.000518619c-0.000654609,-0.00040226 -0.00140309,-0.000873049 -0.00185996,-0.00143771 3.56929e-007,-6.10349e-005 0,-0.00012207 0,-0.000179892 0.000107436,0 0.000215585,0 0.000324449,0 0.00051612,0.000483996 0.00103617,0.000971205 0.0015555,0.00145877 -7.49552e-006,5.0684e-005 -1.60618e-005,0.000104937 -1.99881e-005,0.000158834zm-0.00694335 -0.00234824c-2.0345e-005,-6.53181e-005 -4.069e-005,-0.000130279 -5.5681e-005,-0.0001906 3.5336e-005,0 7.17428e-005,0 0.000107079,0 -1.96311e-005,6.03211e-005 -3.5336e-005,0.000125282 -5.13978e-005,0.0001906zm0.00960676 -0.000376918c-0.000654966,-0.000483639 -0.00113539,-0.0011743 -0.0010558,-0.0019292 5.99642e-005,7.13859e-006 0.000124568,1.67757e-005 0.000188102,2.71266e-005 0.00024414,0.000720998 0.000528969,0.00126246 0.000980128,0.00190208 -3.99761e-005,0 -7.49552e-005,0 -0.000112433,0zm-0.00699939 -0.00178679c8.85185e-005,-0.000240927 0.000264485,-0.000955143 0.000612491,-0.0010326 -0.0001442,0.000331944 -0.000288042,0.000663532 -0.000431528,0.000995119 -6.10349e-005,1.07079e-005 -0.000120999,2.39143e-005 -0.000180963,3.74776e-005zm-0.000887327 -0.000186674c-0.000476501,-9.13739e-005 -0.00132492,-0.000361926 -0.00178429,-0.000161689 -1.60618e-005,-4.71147e-005 0.000200237,-0.000308744 0.000507911,-0.00101618 0.000560022,4.069e-005 0.00106472,0.000785245 0.00142807,0.00114075 -5.21117e-005,9.6371e-006 -0.000103866,2.32004e-005 -0.000151695,3.71207e-005zm0.005612 -0.000801664c-4.0333e-005,-1.71326e-005 -7.70968e-005,-3.06959e-005 -0.00011279,-4.42593e-005 8.56631e-006,-8.85185e-005 2.07019e-005,-0.000172754 3.21237e-005,-0.000256989 8.81616e-005,-3.56929e-007 0.000176323,0 0.000264842,0 0,7.42413e-005 0,0.000149197 0,0.000226293 -6.38904e-005,2.35573e-005 -0.000124925,4.74716e-005 -0.000184176,7.49552e-005zm-0.00761152 -0.000186317c6.38904e-005,-0.000166686 0.000130636,-0.000328018 0.00019881,-0.000491492 4.42593e-005,-9.99403e-006 8.78046e-005,-1.92742e-005 0.000132064,-2.71266e-005 -8.78046e-005,0.000240927 -0.000104223,0.000362997 -0.000330874,0.000518619zm0.00683127 -0.000846637c-0.000360856,-0.000158834 -0.000900533,-0.000196311 -0.00128423,-6.71027e-005 -8.35215e-005,-0.000254848 0.00133099,-0.000450802 0.00145235,6.74597e-005 -5.63949e-005,-3.56929e-007 -0.000112433,0 -0.000168114,-3.56929e-007zm-0.00605174 -0.000328375c0,-3.0339e-005 -3.56929e-007,-6.10349e-005 -3.56929e-007,-9.45863e-005 3.60499e-005,0 7.1029e-005,0 0.000107793,0 3.56929e-007,2.96251e-005 0,6.13919e-005 0,9.45863e-005 -3.64068e-005,0 -7.17428e-005,0 -0.000107436,0zm0.0101068 0c0,-1.39202e-005 -3.56929e-007,-3.0339e-005 -3.56929e-007,-4.74716e-005 5.71087e-005,0 0.000112433,0 0.000168828,0 3.56929e-007,1.42772e-005 0,3.06959e-005 0,4.74716e-005 -5.63949e-005,0 -0.000112076,0 -0.000168471,0zm0.000280903 -0.000422961c-0.000100297,-3.06959e-005 -0.000200951,-5.78226e-005 -0.000296608,-8.42354e-005 -3.21237e-006,-3.67637e-005 -7.85245e-006,-7.13859e-005 -1.28495e-005,-0.000105651 2.17727e-005,-1.32064e-005 4.49731e-005,-2.67697e-005 6.88874e-005,-3.71207e-005 0.00010458,3.71207e-005 0.000207733,7.45983e-005 0.000315526,0.000112433 1.32064e-005,3.67637e-005 2.49851e-005,7.31705e-005 3.64068e-005,0.000114574 -4.0333e-005,0 -7.49552e-005,0 -0.000111362,0zm-0.00422426 -0.000565733c0.000292325,-0.000611777 0.000619986,-0.00118501 0.000991193,-0.00176609 0.000101368,0 0.000204878,2.85544e-006 0.000308387,6.42473e-006 3.56929e-007,0.00047079 -0.000812371,0.00154729 -0.00129958,0.00175966zm-0.00216478 -0.00300963c5.63949e-005,-5.71087e-005 0.000113147,-0.000114217 0.000168471,-0.00017204 4.28315e-006,3.06959e-005 8.92324e-006,6.13919e-005 1.57049e-005,9.45863e-005 -6.35334e-005,2.35573e-005 -0.000123855,5.0684e-005 -0.000184176,7.74537e-005zm0.00344508 -4.67578e-005c1.14217e-005,-5.0684e-005 2.28435e-005,-0.000101368 3.99761e-005,-0.000152052 7.63829e-005,-1.32064e-005 0.00015455,-2.39143e-005 0.00023593,-3.42652e-005 -1.17787e-005,3.42652e-005 -2.49851e-005,7.13859e-005 -3.64068e-005,0.00010922 -8.03091e-005,2.24866e-005 -0.000160618,4.99701e-005 -0.0002395,7.70968e-005zm-0.000944078 -4.74716e-005c4.31885e-005,-0.000145627 0.00014063,-0.000175609 0.000279833,-0.000263057 2.78405e-005,9.6371e-006 5.60379e-005,1.96311e-005 8.35215e-005,3.35514e-005 -0.000111362,0.000138132 -0.000183462,0.000158477 -0.000363354,0.000229506zm-0.0028922 -0.000328018c1.64188e-005,-0.000196668 2.49851e-005,-0.000278405 0.000151695,-0.000437239 8.38784e-005,-3.56929e-007 0.000168471,0 0.000252349,0 2.78405e-005,0.000237358 -0.000179892,0.000351932 -0.000404044,0.000437239zm0.00522438 -0.000471504c-8.92324e-006,-0.000101011 -1.67757e-005,-0.000202022 -2.42712e-005,-0.000300178 0.000123498,-0.000104937 0.0001442,-9.45863e-005 0.000319809,-9.45863e-005 5.96072e-005,5.99642e-005 5.92503e-005,5.99642e-005 5.5681e-005,0.000270553 -0.000119214,3.99761e-005 -0.000235573,8.1023e-005 -0.000351219,0.000124211zm-0.00216763 -0.000232718c-0.000140273,-9.49432e-005 -0.000280547,-0.00018953 -0.000420463,-0.00028126 1.96311e-005,-0.000338012 0.000487209,-0.000131707 0.000667101,-9.28017e-006 -7.85245e-006,8.1023e-005 -1.57049e-005,0.000162046 -2.35573e-005,0.000243426 -7.63829e-005,1.24925e-005 -0.000152409,3.0339e-005 -0.000223081,4.71147e-005zm-0.00155728 -0.00018953c0.000156335,-0.000169185 0.000325163,-0.000274122 0.00058822,-0.00024057 -0.000183105,0.000158834 -0.000339083,0.000209875 -0.00058822,0.00024057z"/>
 </g>
</svg>
