<?xml version="1.0" encoding="UTF-8"?>
<!DOCTYPE svg PUBLIC "-//W3C//DTD SVG 1.1//EN" "http://www.w3.org/Graphics/SVG/1.1/DTD/svg11.dtd">
<!-- Creator: CorelDRAW -->
<svg xmlns="http://www.w3.org/2000/svg" xml:space="preserve" width="1in" height="2in" style="shape-rendering:geometricPrecision; text-rendering:geometricPrecision; image-rendering:optimizeQuality; fill-rule:evenodd; clip-rule:evenodd"
viewBox="0 0 0.0965292 0.072397"
 xmlns:xlink="http://www.w3.org/1999/xlink">
 <defs>
  <style type="text/css">
   <![CDATA[
    .fil0 {fill:#00923F}
   ]]>
  </style>
 </defs>
 <g id="Layer_x0020_1">
  <metadata id="CorelCorpID_0Corel-Layer"/>
  <path class="fil0" d="M0.0753481 0.0361326c-0.00011122,-0.000163007 -0.000152403,-0.0004143 -0.000152403,-0.00061997 0.000329714,2.29345e-005 0.000521821,0.000210109 0.000595803,0.000395805l0.000237729 0c0.000241182,0 0.00168679,0.00101997 0.00237655,0.00150504l0.000119604 -2.46607e-007c0.00082934,0 0.00268333,0.00273808 0.00291046,0.00376766 0.000205917,0.000927736 0.000383228,0.00179086 0.000583966,0.00266854 8.77922e-005,0.000380268 0.000270281,0.00246139 0.000655235,0.00251293 0.000378789,-0.000507024 0.00109888,-0.00292723 0.00123895,-0.00354621 0.000280886,-0.00124981 0.000705297,-0.00254696 0.000719107,-0.00405841 -5.32672e-005,-3.3292e-005 -0.000115412,-6.06654e-005 -0.000181503,-8.33532e-005 -0.0025731,-0.000128236 -0.00605791,-0.00189863 -0.00684927,-0.00339973 -0.000182489,-0.000344264 -0.000752645,-0.00110998 -0.00102046,-0.00150356 -0.000353881,-0.000519601 -0.000594077,-0.00105301 -0.000926503,-0.00158445 -0.000301354,-0.00048335 -0.000608627,-0.0010942 -0.000990128,-0.00152699 -0.000212822,-0.000236496 -0.00107225,-0.00114746 -0.00113143,-0.0013884l-1.30702e-005 -1.10973e-005 9.61768e-006 0 -9.86429e-007 -5.17875e-006c2.93463e-005,0 6.01722e-005,2.21946e-006 9.29709e-005,3.69911e-006l0.000184462 -3.69911e-006c0.000784211,0 0.00340466,0.000801227 0.00407198,0.00103032 0.000968673,0.000332426 0.00251441,0.00115708 0.00305694,0.00181897 0.00035906,0.000436248 0.000711955,0.000863618 0.00101084,0.00135141 0.000152403,0.000245621 0.000763742,0.00116818 0.000952397,0.00140246 0.000374596,0.000458443 0.00121923,0.00230257 0.00184191,0.00265547 0.000114426,-0.000618491 5.25273e-005,-0.00327741 -7.07763e-005,-0.00385521 -0.000137607,-0.000660167 -6.36247e-005,-0.00119752 -0.000257458,-0.00183722 -0.000126509,-0.0004143 -0.000291736,-0.00143501 -0.000332426,-0.00185276l-0.00222316 0 -0.000552893 0c-0.00205103,0 -0.00384732,-0.000862879 -0.00501402,-0.00164931 -0.000597529,-0.000401723 -0.00328505,-0.00289566 -0.00350207,-0.00294498l0 0 0 0.00443572c0,0.000240442 4.29096e-005,0.000289024 9.19845e-005,0.000474719l-0.000183229 0.000213808 0 0.00121824c0.000167939,0.000154623 0.000276447,0.000340318 0.000276447,0.000548208 0,0.000118618 -0.000140566,0.000177557 -0.000276447,0.000215288l0 0.000282858 0.000349442 0.000986922c-0.00027546,6.55975e-005 -0.000348703,3.89639e-005 -0.000349442,0.000247594l0 0.000109c5.17875e-006,0.00041282 0.000183229,0.000426137 0.000183229,0.000852028l0 0.00126682 -0.000120591 0.000770154c9.61768e-006,3.00861e-005 1.99752e-005,6.26382e-005 2.86064e-005,0.000100862 -1.82489e-005,3.18123e-005 -3.89639e-005,6.28848e-005 -6.04188e-005,9.44505e-005l-6.18984e-005 0.000377309 2.58938e-005 0.000320589 5.17875e-006 0 0 7.89143e-005c0.000226385,7.00364e-005 0.000276447,9.12447e-005 0.000276447,0.000395805 0,0.000501846 -0.000276447,0.000587912 -0.000276447,0.00095141l0 5.91857e-006c2.46607e-006,0.000134894 0.000141059,0.000124537 0.000276447,0.000151663l0 0.00031689c0,0.000425397 -0.000276447,0.00037435 -0.000276447,0.00063378l0 0.000316397 0 0.000951164c0,0.00165177 -0.00117558,0.00455829 -0.00210381,0.00564533 -0.000614792,0.000721573 -0.00107718,0.0016207 -0.00176004,0.00229493 -0.000202218,0.000199012 -0.00206238,0.00202021 -0.00206139,0.00203919l0.000769661 0.00394448 -0.000119604 1.60295e-005 0 0.000475459c0,0.0017519 -0.00092749,0.00312032 -0.00182711,0.00413955 -0.000350429,0.000399504 -0.00255756,0.00314178 -0.00261428,0.00345793 0.00130628,-0.000147471 0.00721745,-0.00303549 0.00721745,-0.00347864l0 -7.86677e-005c0,-0.000134894 -0.000516395,-0.00074648 -0.00063526,-0.00104142 -0.000104315,-0.000260171 -0.000416766,-0.000815777 -0.00056843,-0.0010974 -0.000290996,-0.000541549 -0.000646604,-0.00190208 -0.000646604,-0.00269295 0,-0.00156818 0.000834272,-0.0030599 0.00129247,-0.00428036 6.18984e-005,-0.000168679 0.000337605,-0.000668305 0.000464115,-0.000949191 0.000202218,-0.000454004 0.000234277,-0.000391366 0.000426137,-0.000981497 0.000134401,-0.0004143 0.00030308,-0.000489515 0.000398764,-0.00100468 5.00613e-005,-0.000282119 9.64234e-005,-0.00100665 0.000195559,-0.00118051 4.11834e-005,2.41675e-005 8.33532e-005,5.37604e-005 0.000128236,8.9765e-005 0.000860166,0.000294202 0.00246089,0.00407568 0.00246089,0.00537554l0 0.000554866c0,0.00119481 -0.00070431,0.00243648 -0.00109346,0.00334153 -0.000236003,0.000552893 -0.000337605,0.00105992 -0.000615778,0.00161034 -0.000195313,0.000385447 -0.000582979,0.00110554 -0.000603448,0.00160591 0.000671511,-0.000184955 0.00282168,-0.00196472 0.00326163,-0.0023408 0.000315164,-0.000266582 0.00284609,-0.0026604 0.00284609,-0.00279159 0,-0.000242415 -0.00370207,-0.00275707 -0.00370207,-0.00594003l-5.91857e-005 -0.000638959 0.000522561 -0.004906c4.143e-005,-0.000391366 -0.000186928,-0.00114154 -0.000186928,-0.00166337 8.70523e-005,1.99752e-005 0.000181749,5.74595e-005 0.000286064,0.00011196 0.00126238,0.000436988 0.00424929,0.00418468 0.00424929,0.00567024l0 0.000791609c0,0.00108113 -0.000172132,0.00193685 -0.000181503,0.00293389 -9.86429e-007,0.00020641 -6.97898e-005,0.00123821 -0.000115412,0.00148507 -5.77061e-005,0.00031985 -0.000241182,0.00084241 4.04436e-005,0.00104438 0.00062071,-0.000396544 0.00169888,-0.00211441 0.00198469,-0.00255954 0.000300614,-0.00046954 0.00169814,-0.00259998 0.00169814,-0.00306138 0,-0.000127496 -0.00222415,-0.00130011 -0.00249542,-0.00150874 -0.000644138,-0.000495187 -0.00156645,-0.00132058 -0.00197976,-0.0020281 -0.00023403,-0.000398764 -0.000445126,-0.000981743 -0.00063378,-0.00128014 -0.000259924,-0.000412081 -0.000214302,-0.000988402 -0.000390872,-0.00148729 -0.000127496,-0.000358813 -0.000608627,-0.00286681 -0.000597529,-0.00323154l0.00054081 0.000184216 0.000280639 -7.44754e-005c-5.91857e-006,-1.92354e-005 -0.00152157,-0.00149814 -0.0014207,-0.00207298zm-0.0492011 0.00032996l1.97286e-005 0.000161528 -8.8532e-005 0.000680143c3.08259e-005,0.000137114 4.80884e-005,0.000275707 3.18123e-005,0.000347223l4.19232e-006 0.000475212 3.27988e-005 0 0 0.00356397c0,0.000155609 0.000416766,0.00173192 0.000500366,0.00194721 0.000244388,0.000624163 0.000586185,0.00121602 0.0007741,0.00171417 0.00017805,0.000474719 0.000697405,0.00124413 0.00119851,0.00191614 0.000351415,0.000434275 0.000719107,0.000853507 0.00106189,0.00129789 1.62761e-005,2.49073e-005 3.69911e-005,4.85816e-005 5.74595e-005,7.44754e-005 0.000522067,0.000576321 0.00106781,0.00110603 0.00163796,0.00160739 0.000397038,0.000341058 0.000820462,0.00068976 0.00124759,0.00102663 0.000761276,0.00059309 0.001563,0.00116078 0.0024059,0.00174277 0.00208309,0.00144167 0.00406532,0.00275115 0.00623768,0.00416544 0.000808625,0.000527739 0.00610451,0.0035176 0.00690426,0.0035176l0.000184462 0c0.000797281,0 0.00609292,-0.00298987 0.00690426,-0.0035176 0.00217236,-0.00141429 0.00415114,-0.00272378 0.00623497,-0.00416544 0.00084315,-0.000581993 0.00164561,-0.0011519 0.00241034,-0.00174499 0.000427863,-0.000339825 0.000859426,-0.000692226 0.0012572,-0.00103698 0.000565717,-0.000497407 0.00110727,-0.00102293 0.00162662,-0.00159555 1.89888e-005,-2.51539e-005 3.77309e-005,-5.00613e-005 5.77061e-005,-7.37355e-005 0.000339085,-0.000444386 0.000708502,-0.000863125 0.00105819,-0.00129715 0.000503818,-0.000672005 0.00102046,-0.00144216 0.00120196,-0.00191688 0.000186928,-0.000498147 0.000527,-0.00109 0.000771634,-0.00171417 8.35998e-005,-0.000215288 0.000503818,-0.0017916 0.000503818,-0.00194696l0 -0.00356421 3.08259e-005 0 1.97286e-006 -0.000475212c-1.55363e-005,-7.15161e-005 4.19232e-006,-0.000210109 3.52648e-005,-0.000347223l-8.87786e-005 -0.000680143 2.0715e-005 -0.000161528 0 -0.00102958 1.72625e-006 -0.000237976 -1.72625e-006 0 0 -0.00269295 0 -0.0119602c0,-0.000371637 -0.000208383,-0.000408381 -0.000463375,-0.000554373l-0.0210176 0 -6.60907e-005 0 -0.000110233 0 -0.000234277 0 -0.000110233 0 -0.000234277 0 -0.000113686 0 -0.000234277 0 -0.000109247 0 -6.36247e-005 0 -0.0210176 0c-0.000254005,0.000145991 -0.000462388,0.000182736 -0.000462388,0.000554373l0 0.0119602 0 0.00269295 -5.17875e-006 0 5.17875e-006 0.000237976 0 0.00102958zm-0.00234647 0.000728231c-1.97286e-005,-3.15657e-005 -4.31563e-005,-6.26382e-005 -6.04188e-005,-9.44505e-005 1.03575e-005,-3.82241e-005 2.17014e-005,-7.05297e-005 3.03327e-005,-0.000100862l-0.000123304 -0.000770154 0 -0.00126682c0,-0.000425891 0.000179037,-0.000439207 0.000186188,-0.000852028l0 -1.99752e-005 0 -7.94075e-005 0 -9.61768e-006c-4.43893e-006,-0.00020863 -7.66948e-005,-0.000181996 -0.000352402,-0.000247594l0.000352402 -0.000986922 0 -0.000282858c-0.00013884,-3.77309e-005 -0.000279899,-9.667e-005 -0.000279899,-0.000215288 0,-0.00020789 0.000109247,-0.000393585 0.000279899,-0.000548208l0 -0.00121824 -0.000186188 -0.000213808c5.17875e-005,-0.000185695 9.29709e-005,-0.000234277 9.29709e-005,-0.000474719l0 -0.00443572 -7.39822e-007 0c-0.000217014,4.93214e-005 -0.00290454,0.00254326 -0.0034996,0.00294498 -0.0011667,0.00078643 -0.002962,0.00164931 -0.00501402,0.00164931l-0.000556346 0 -0.00221971 0c-4.06902e-005,0.000417753 -0.000208383,0.00143871 -0.000333413,0.00185276 -0.000195313,0.000639699 -0.000118865,0.00117706 -0.000259184,0.00183722 -0.000124043,0.000577801 -0.000182489,0.00323672 -6.80636e-005,0.00385521 0.00061997,-0.000352895 0.00146485,-0.00219702 0.00183944,-0.00265547 0.000191121,-0.000234277 0.000800734,-0.00115683 0.000952397,-0.00140246 0.000301354,-0.000487789 0.000650796,-0.000915159 0.00101084,-0.00135141 0.000545002,-0.000661894 0.00208802,-0.00148655 0.00305694,-0.00181897 0.000669785,-0.000229098 0.00329023,-0.00103032 0.00407198,-0.00103032l0.000186928 3.69911e-006c3.10725e-005,-1.47964e-006 6.28848e-005,-3.69911e-006 9.19845e-005,-3.69911e-006l-2.46607e-006 5.17875e-006 9.61768e-006 0 -1.03575e-005 1.10973e-005c-6.2145e-005,0.000240935 -0.000922311,0.0011519 -0.00113168,0.0013884 -0.000383967,0.000432796 -0.000691487,0.00104364 -0.00099358,0.00152699 -0.0003307,0.000531438 -0.000570156,0.0010651 -0.000925763,0.00158445 -0.000266829,0.000393585 -0.000835259,0.0011593 -0.00101775,0.00150356 -0.000793089,0.0015011 -0.00427888,0.00327149 -0.00685173,0.00339973 -6.53509e-005,2.26879e-005 -0.00012577,5.00613e-005 -0.000181749,8.33532e-005 1.47964e-005,0.00151146 0.000439207,0.00280861 0.000719107,0.00405841 0.000140319,0.000618984 0.000863618,0.00303919 0.00123821,0.00354621 0.00038594,-5.15409e-005 0.00056843,-0.00213266 0.000656962,-0.00251293 0.000202464,-0.000877675 0.000379775,-0.0017408 0.000582979,-0.00266854 0.000229098,-0.00102958 0.0020821,-0.00376742 0.00291046,-0.00376742l0.000119851 -2.46607e-007c0.000691487,-0.00048483 0.00213537,-0.0015048 0.00237902,-0.0015048l0.000235263 0c7.29957e-005,-0.000185695 0.000265843,-0.00037287 0.000598516,-0.000395805 0,0.00020567 -4.143e-005,0.000456963 -0.000156102,0.00061997 0.000103575,0.000574841 -0.00141207,0.00205374 -0.00141898,0.00207298l0.000279899 7.44754e-005 0.00054081 -0.000184216c1.381e-005,0.000364732 -0.000468554,0.00287273 -0.000595063,0.00323154 -0.000176571,0.000498886 -0.000131688,0.00107521 -0.000393585,0.00148729 -0.000188654,0.000298395 -0.000397038,0.000881374 -0.000631068,0.00128014 -0.000416026,0.000707516 -0.00133834,0.00153291 -0.00197976,0.0020281 -0.000272994,0.00020863 -0.00249542,0.00138125 -0.00249542,0.00150874 0,0.000461402 0.00139752,0.00259184 0.00169814,0.00306138 0.000283352,0.000445126 0.00136127,0.00216299 0.00198395,0.00255954 0.000282365,-0.000201971 9.88895e-005,-0.000724532 3.77309e-005,-0.00104438 -4.29096e-005,-0.000246854 -0.000113439,-0.00127866 -0.000114426,-0.00148507 -1.03575e-005,-0.000997033 -0.000181749,-0.00185276 -0.000181749,-0.00293389l0 -0.000791609c0,-0.00148556 0.00298888,-0.00523325 0.00425126,-0.00567024 0.000102589,-5.45002e-005 0.000198765,-9.19845e-005 0.000284091,-0.00011196 0,0.000521821 -0.000225399,0.001272 -0.000185202,0.00166337l0.000523794 0.004906 -6.2145e-005 0.000638959c0,0.00318296 -0.00370083,0.00569761 -0.00370083,0.00594003 0,0.000131195 0.00253241,0.00252501 0.00284585,0.00279159 0.000439207,0.000376076 0.00258913,0.00215584 0.00326089,0.0023408 -2.0715e-005,-0.000500366 -0.000406409,-0.00122046 -0.000603694,-0.00160591 -0.0002762,-0.000550427 -0.000380515,-0.00105745 -0.000615532,-0.00161034 -0.00038668,-0.000905048 -0.0010937,-0.00214672 -0.0010937,-0.00334153l0 -0.000554866c0,-0.00129987 0.00160344,-0.00508134 0.00246287,-0.00537554 4.29096e-005,-3.60046e-005 8.60659e-005,-6.55975e-005 0.000129962,-8.9765e-005 9.81497e-005,0.000173858 0.000141059,0.00089839 0.000193833,0.00118051 9.37107e-005,0.000515162 0.000264116,0.000590378 0.000399504,0.00100468 0.000188408,0.000590131 0.000222193,0.000527493 0.000425397,0.000981497 0.000127249,0.000280886 0.00040197,0.000780512 0.000464855,0.000949191 0.00045573,0.00122046 0.00129247,0.00271219 0.00129247,0.00428036 0,0.000790869 -0.000354621,0.0021514 -0.00064833,0.00269295 -0.000153143,0.000281625 -0.000465101,0.000837231 -0.000569169,0.0010974 -0.000116399,0.000294942 -0.000635507,0.000906528 -0.000635507,0.00104142l0 7.86677e-005c0,0.000443153 0.00591216,0.00333117 0.0072177,0.00347864 -5.42536e-005,-0.00031615 -0.00226114,-0.00305842 -0.00261428,-0.00345793 -0.000898883,-0.00101923 -0.00182736,-0.00238765 -0.00182736,-0.00413955l2.46607e-007 -0.000475459 -0.000119851 -1.60295e-005 0.000769908 -0.00394448c3.4525e-006,-1.89888e-005 -0.00185917,-0.00184018 -0.00206139,-0.00203919 -0.000682115,-0.000674224 -0.0011445,-0.00157335 -0.00176028,-0.00229493 -0.000928229,-0.00108704 -0.00210085,-0.00399356 -0.00210085,-0.00564508l0 -0.00095141 0 -0.000316397c0,-0.000259431 -0.000279899,-0.000208383 -0.000279899,-0.00063378l0 -0.00031689c0.000137853,-2.71268e-005 0.00027546,-1.67693e-005 0.000279899,-0.000151663l0 -5.91857e-006c0,-0.000363499 -0.000279899,-0.000449565 -0.000279899,-0.00095141 0,-0.00030456 5.15409e-005,-0.000325768 0.000279899,-0.000395805l0 -7.89143e-005 4.93214e-006 0 2.24413e-005 -0.000320589 -6.01722e-005 -0.000377309zm0.0424182 0.0105077c-0.000437481,0.000558812 -0.00330133,0.00311983 -0.00399972,0.00316841l0 -1.40566e-005c-2.58938e-005,8.13804e-006 -5.15409e-005,1.18371e-005 -7.22559e-005,1.40566e-005l7.39822e-007 -0.00571561 0.00395237 -0.000101356 0.000118865 0.00264856zm-0.031838 0.00316841c-2.0715e-005,-2.21946e-006 -4.38961e-005,-5.91857e-006 -6.97898e-005,-1.40566e-005l0 1.40566e-005c-0.000701844,-4.85816e-005 -0.00356495,-0.0026096 -0.00399972,-0.00316841l9.12447e-005 -0.00256052 0.00397753 1.33168e-005 7.39822e-007 0.00571561zm0.00796073 0.00530699c-2.56471e-005,-1.47964e-006 -5.67197e-005,-8.13804e-006 -9.29709e-005,-1.84955e-005l0 9.74098e-005c-0.000577801,-0.000115166 -0.0039832,-0.00224708 -0.00397901,-0.00261428l9.29709e-005 -0.00850055 0.00397901 0 0 0.000238223 0 0.0107977zm0.0159173 -0.00253537c0,0.000367198 -0.00340219,0.00249912 -0.00398073,0.00261428l0 -9.74098e-005c-3.52648e-005,1.03575e-005 -6.53509e-005,1.62761e-005 -8.95184e-005,1.84955e-005l0 -0.0110359 0.00404781 0 2.24413e-005 0.00850055zm-0.00795974 0.00475286c-0.000171392,0.00022096 -0.00162415,0.000950671 -0.00184881,0.000950671 -5.08011e-005,0 -0.000113686,-1.03575e-005 -0.000186928,-2.78666e-005 -7.22559e-005,1.75091e-005 -0.000135141,2.78666e-005 -0.000183476,2.78666e-005 -0.000223673,0 -0.00167989,-0.000729711 -0.00185029,-0.000950671l-9.39573e-005 -0.0130152 0.00425718 0 -9.37107e-005 0.0130152zm-0.00684754 0.00248802c0.000255732,0.000521081 0.000973852,0.00155067 0.00110406,0.00212255 0.000112699,0.000474719 0.000231564,0.000887293 0.000390872,0.00132946 9.91361e-005,0.000276447 5.08011e-005,0.00140837 0.000105055,0.00155806 0.000201478,3.60046e-005 0.000527,9.14913e-005 0.000890252,0.000151663 0.000388406,3.25521e-005 0.000779279,5.77061e-005 0.000894691,7.81745e-005 0.000279899,4.7102e-005 0.00105573,0.000217508 0.00142687,0.00026165 0.000373856,-4.41427e-005 0.00115042,-0.000214548 0.00142687,-0.00026165 0.000118865,-2.04684e-005 0.000509737,-4.56223e-005 0.000895431,-7.81745e-005 0.000364239,-6.01722e-005 0.000688034,-0.000115659 0.000890499,-0.000151663 5.67197e-005,-0.000149691 5.91857e-006,-0.00128162 0.000105055,-0.00155806 0.000161034,-0.000442167 0.000280639,-0.00085474 0.000390133,-0.00132946 0.000134154,-0.000571882 0.000848822,-0.00160147 0.00110727,-0.00212255 -0.00115215,0.000288284 -0.00362685,0.00188013 -0.00453708,0.00188013l-9.12447e-005 0 -0.000370404 0 -9.29709e-005 0c-0.000910967,0 -0.00338567,-0.00159185 -0.00453535,-0.00188013zm0.0224805 -0.00853187c-0.000624163,0.000328727 -0.00336495,0.00239505 -0.00385324,0.00274967 -0.00149493,0.0010863 -0.000792349,0.000305793 -0.00126583,0.00200689 -0.00027472,0.000986675 -0.000341058,0.00158593 -0.000665593,0.00251811 -0.000604434,0.001726 -0.00180738,0.00245128 -0.00318271,0.00345423 -0.000128976,9.27243e-005 -0.00045721,0.000299135 -0.000873976,0.000559305 -0.000109247,7.15161e-005 -0.000214302,0.000137114 -0.000314178,0.000196793 -0.00118569,0.000739822 -0.00279184,0.00174672 -0.00279184,0.00193685 0,9.42039e-005 0.000223919,0.000120098 0.000574348,0.000106041 0.00235337,-0.000249073 0.00803076,-0.00130307 0.00803076,-0.00176867l-5.69663e-005 -7.07763e-005 -0.000604434 -0.00300318 0.000107521 -1.55363e-005 0 -0.000396544c0,-0.00374818 0.00436051,-0.00653484 0.00489614,-0.00827318zm-0.0353356 0c0.000533905,0.00173833 0.00489787,0.00452573 0.00489787,0.00827318l0 0.000396544 0.000104068 1.55363e-005 -0.000603448 0.00300318 -5.77061e-005 7.07763e-005c0,0.000465594 0.0056806,0.00151959 0.00803224,0.00176867 0.000351415,1.40566e-005 0.000576074,-1.18371e-005 0.000576074,-0.000106041 0,-0.000190134 -0.00160418,-0.00119629 -0.00279085,-0.00193611 -0.000104068,-5.96789e-005 -0.000211836,-0.000127496 -0.000323795,-0.000201971 -0.000414053,-0.000257211 -0.000739575,-0.000462142 -0.000865345,-0.000554866 -0.00137779,-0.00100295 -0.00258074,-0.00172822 -0.00318345,-0.00345423 -0.000325521,-0.000932175 -0.000392599,-0.00153143 -0.000664853,-0.00251811 -0.000473486,-0.0017011 0.000229098,-0.000920585 -0.00126583,-0.00200689 -0.000488282,-0.000354621 -0.00323253,-0.0024202 -0.00385496,-0.00274967zm-0.0126788 -0.0296111c-5.59798e-005,-1.10973e-005 -0.000102342,-2.12082e-005 -0.000131688,-2.93463e-005l-0.00011196 -3.3292e-005 -4.19232e-006 -7.39822e-007c-0.000645864,-0.000167939 -0.001272,-0.000358074 -0.00174549,-0.000456716 -0.000604681,0.000245867 -0.0027186,0.00531562 -0.00300096,0.00628996 0.000678416,-0.000304313 0.00279258,-0.00229567 0.00339701,-0.00275041 0.000613065,-0.000459922 0.00112034,-0.000887293 0.00181602,-0.00129715 0.000365965,-0.000216521 0.000812077,-0.000363992 0.00123131,-0.000494447 0.000238469,-9.07514e-005 0.000489269,-0.000170159 0.000749193,-0.000240935 0.000145498,-5.32672e-005 0.00027546,-0.000109247 0.000383967,-0.000170899 0.000219727,0 0.00044192,-1.92354e-005 0.000662387,-4.43893e-005 0.000135141,-1.99752e-005 0.000274474,-3.74843e-005 0.00041504,-5.22807e-005 0.000203944,-2.58938e-005 0.00040197,-5.08011e-005 0.000587172,-6.26382e-005 9.12447e-005,-5.91857e-006 0.000210849,-2.95929e-006 0.000341798,4.43893e-006 0.000102589,-2.21946e-006 0.000203204,-3.69911e-006 0.000306533,-3.69911e-006l0.00063378 0c0.000173118,-3.23055e-005 0.00028927,-0.000101602 0.000292723,-0.000234277l0 -0.000715654 -7.39822e-007 0c-0.000497653,3.4525e-005 -0.0012064,0.000369171 -0.00203993,0.000501106 -0.000182489,3.23055e-005 -0.000364979,5.30205e-005 -0.000551907,5.30205e-005l-9.29709e-005 0 -0.00110998 0 -0.000369418 0c-0.00048483,0 -0.00107299,-0.000115659 -0.00165769,-0.00026165zm0.0626883 -0.000520095c-0.000475212,9.86429e-005 -0.00110209,0.000288777 -0.00174795,0.000456716l-7.39822e-007 7.39822e-007c-4.66088e-005,1.40566e-005 -8.45863e-005,2.51539e-005 -0.000113686,3.3292e-005 -3.10725e-005,8.13804e-006 -7.49686e-005,1.82489e-005 -0.000130948,2.93463e-005 -0.000588158,0.000145991 -0.00117533,0.00026165 -0.00165843,0.00026165l-0.00037213 0 -0.00110899 0 -9.39573e-005 0c-0.000183229,0 -0.000369418,-2.04684e-005 -0.00055092,-5.30205e-005 -0.000831806,-0.000131935 -0.00154228,-0.000466581 -0.00203993,-0.000501106l0 0 0 0.000715654c2.46607e-006,0.000132675 0.000119604,0.000201971 0.000294449,0.000234277l0.000631068 0c0.000103575,0 0.000206657,1.47964e-006 0.000306779,3.69911e-006 0.000133414,-7.39822e-006 0.000249566,-1.03575e-005 0.000343524,-4.43893e-006 0.000185942,1.18371e-005 0.000382981,3.67445e-005 0.000588158,6.26382e-005 0.000140319,1.47964e-005 0.000277926,3.25521e-005 0.000412327,5.22807e-005 0.000222193,2.51539e-005 0.000446112,4.43893e-005 0.000664853,4.43893e-005 0.000108507,6.16518e-005 0.000235756,0.000117632 0.000381501,0.000170899 0.000259924,7.07763e-005 0.000509737,0.000150184 0.000748946,0.000240935 0.000421205,0.000130455 0.000864605,0.000277926 0.00123402,0.000494447 0.000693213,0.000409861 0.00120295,0.000837231 0.00181355,0.00129715 0.000605174,0.000454744 0.00271835,0.0024461 0.00339948,0.00275041 -0.000284091,-0.000974345 -0.00239653,-0.0060441 -0.00300096,-0.00628996zm-0.0122825 -0.0199429l4.19232e-006 -3.82241e-005 0.000110233 1.03575e-005c0.000222193,0.000137853 0.000822435,0.00110776 0.00118149,0.00144586 0.000379775,0.00035906 0.000935874,0.000919105 0.00135461,0.00121528 0.00103402,0.000727491 0.00181256,0.00159407 0.00267199,0.00246607 0.00204931,0.00207668 0.00205522,0.00430527 0.00173833,0.00756788 3.4525e-006,2.51539e-005 5.17875e-006,4.9568e-005 8.63125e-006,7.29957e-005 0.000626875,0.000793089 0.00176447,0.0016678 0.00254203,0.00254992 0.000382241,0.000436988 0.00190726,0.00212329 0.00221133,0.00271071 1.72625e-005,1.15905e-005 3.25521e-005,2.1948e-005 4.46359e-005,3.08259e-005 0,-0.00100221 -0.00305176,-0.00490674 -0.00305176,-0.00641598l2.46607e-007 -0.000713435c0,-0.00162366 0.000879894,-0.00477703 0.00184955,-0.00538516 5.17875e-006,2.21946e-006 1.381e-005,1.33168e-005 2.0715e-005,3.03327e-005 6.18984e-005,-6.04188e-005 0.000117878,-9.96293e-005 0.000166213,-0.000109987 0.000535384,0.00197088 0.00100912,0.00248753 0.00190973,0.00406754 0.000610599,0.00107373 0.00169912,0.00276866 0.00169912,0.00424855l0 0.00103032c0,0.000349442 -0.000461649,0.00225152 -0.000589145,0.00250578 -0.000109247,0.000213562 -0.000984209,0.00211811 -0.000984209,0.00216743 0,3.03327e-005 0.00153365,0.00286015 0.00172921,0.00327149 0.000245374,0.000517382 0.000582733,0.00125572 0.000750672,0.00173414 0.000130209,0.00037287 0.000238469,0.000546728 0.000353141,0.000885813 0.000105055,0.00031911 5.67197e-005,0.000562264 0.000170406,0.000710475 0.000319603,-0.000599995 -0.000414053,-0.00548602 -0.000414053,-0.0064436 0,-0.00131614 0.000873976,-0.00279011 0.00151885,-0.00361181 0.000411587,-0.00052478 0.0021916,-0.00247618 0.00274005,-0.00264585 0,4.36495e-005 -7.39822e-007,8.55727e-005 -1.72625e-006,0.000127743 3.27988e-005,-1.84955e-005 6.46111e-005,-3.47716e-005 9.39573e-005,-4.80884e-005l-0.000112946 0.000710475 2.0715e-005 0.000636 0.000570896 0.00435484 -1.55363e-005 0.00221897c0,0.00103994 -0.000987662,0.00271219 -0.0015154,0.0033763 -0.000325521,0.000407395 -0.00191416,0.00222538 -0.00240417,0.00246287l-6.04188e-005 6.3378e-005c2.41675e-005,0.000582733 0.000519355,0.00264141 0.000657948,0.00335608 0.000188654,0.000976564 3.79775e-005,0.00267026 0.000246361,0.00357284l2.04684e-005 0c0,-0.00125942 0.000213562,-0.00249961 0.000364485,-0.00364929 0.000203944,-0.001581 0.000235017,-0.00198248 0.000932422,-0.00316101 0.000520095,-0.000876442 0.0033075,-0.00347864 0.00463942,-0.00381822 7.32423e-005,-3.3292e-005 0.000130948,-5.524e-005 0.000172378,-6.41179e-005l-7.39822e-007 3.18123e-005c1.72625e-005,-2.46607e-006 3.69911e-005,-3.94571e-006 5.49934e-005,-4.68554e-006l-5.94323e-005 6.63373e-005c-4.21698e-005,0.000473239 -0.000298888,0.000819476 -0.000357334,0.00125967 -6.46111e-005,0.000502585 -0.000123057,0.00104413 -0.000185942,0.00150406 -0.000149937,0.00109148 0.000105794,0.00211441 -0.000191367,0.00308358 -0.00036054,0.00116645 -0.000135141,0.00155141 -0.000726505,0.00270553 -0.000290257,0.000565963 -0.00104907,0.00151663 -0.00154919,0.00192107 -0.000280639,0.000226385 -0.000619231,0.000591857 -0.000936121,0.000863125 -0.000380515,0.000325028 -0.00066214,0.000492228 -0.00102293,0.000786924 -0.00113415,0.000918365 -0.00126583,0.000253019 -0.00150258,0.00196349 -0.000130702,0.000960288 -0.000398764,0.0019551 -0.000563991,0.00284091 -0.000140319,0.000745247 -0.000545988,0.00162514 -0.000770647,0.00235485 0.000380515,-0.000286804 0.00142169,-0.00253537 0.00159382,-0.00291638 0.000493461,-0.00108187 0.000943766,-0.00211071 0.00174968,-0.00293758 0.000926503,-0.00095141 0.00161454,-0.00125572 0.00285793,-0.00191096 0.000606407,-0.000320589 0.00297433,-0.00114006 0.00383203,-0.00115634l0 0c-8.70523e-005,0.000320589 -0.000631314,0.000837971 -0.000836245,0.00118593 -0.000281625,0.000477431 -0.000416766,0.000804679 -0.000655975,0.00134056 -0.000360046,0.000808378 -0.000975825,0.00195288 -0.00126509,0.0027186 -0.00066214,0.00175782 -0.00234721,0.00323845 -0.00415558,0.00404756 -0.00106608,0.000477431 -0.00179357,0.000850302 -0.00306459,0.00117755 -0.000856713,0.000219727 -0.000769908,0.000254992 -0.00110135,0.000959549 -0.00018101,0.000388406 -0.000469293,0.000963248 -0.000694199,0.00130603 -0.000479404,0.000726012 -0.0011339,0.00177089 -0.00154031,0.00248506 -0.000317877,0.000560785 -0.00157409,0.00194844 -0.00167915,0.00228383 0.000954863,-0.000546728 0.00165745,-0.00154771 0.0024059,-0.00229789 0.000767195,-0.000770154 0.0014863,-0.00163303 0.00233512,-0.00235608 0.00170085,-0.00144882 0.00402488,-0.00201478 0.0072685,-0.00207323 0.000159308,-4.43893e-006 0.000323055,-5.17875e-006 0.00048409,-5.17875e-006l9.29709e-005 0 0.000460662 0 9.29709e-005 0c-2.66336e-005,0.000291983 -0.00117188,0.000949438 -0.00145868,0.00120591 -0.000269542,0.000238716 -0.00103501,0.00108187 -0.00126411,0.00137508 -0.000588158,0.000753878 -0.00179801,0.00204585 -0.00252723,0.00266632 -0.00140961,0.00119777 -0.00306385,0.00186386 -0.00527863,0.0021625 -0.000521821,7.20093e-005 -0.00108581,0.000122317 -0.00170825,0.000153883l-3.10725e-005 2.21946e-006 -1.62761e-005 7.39822e-007 -1.72625e-006 0c-0.000504805,2.44141e-005 -0.00103526,3.62513e-005 -0.00159653,3.62513e-005 -0.000375336,0.000215781 -0.0010609,0.00108606 -0.00145794,0.0014466 -0.000507024,0.000465101 -0.000995307,0.000871017 -0.00148532,0.00134056 -0.000598516,0.000574841 -0.00288456,0.00211589 -0.00315509,0.00250726 0.000621697,-0.000108507 0.0015043,-0.00078939 0.00197286,-0.00106362 0.000697405,-0.000408135 0.00132946,-0.000791362 0.00201675,-0.0012027 0.000972865,-0.000584459 0.00309122,-0.0018387 0.00460835,-0.0018387l0.000463375 0 0.00157237 0 3.97038e-005 0 0.000236743 0c0.000212575,0 0.000497653,3.97038e-005 0.000812077,0.000100862 0.000293463,4.93214e-005 0.000582733,0.000106288 0.0009376,0.000144512 0.000670772,7.22559e-005 0.00133735,0.000378049 0.00186262,0.000387666 -0.000113686,0.000361033 -0.00080098,0.000352155 -0.00128063,0.000647837 -0.000375336,0.000231318 -0.000880881,0.000408875 -0.00124339,0.000678663 -0.000739575,0.000552153 -0.00152921,0.000986922 -0.00231441,0.00150282 -0.0013159,0.000864358 -0.00309739,0.00185424 -0.00530452,0.00198691 -0.000114426,1.01109e-005 -0.00021948,1.52896e-005 -0.00031689,1.52896e-005l-0.00139826 5.524e-005 -0.00312747 -0.000490748 -0.00066214 -8.82854e-005 -0.000270528 -3.03327e-005c-3.69911e-005,0 -0.00283302,0.00161404 -0.00326705,0.00179752 -0.000602708,0.000254992 -0.00119087,0.000588898 -0.00176867,0.000784951 -0.000197039,6.63373e-005 -0.000501846,0.000162761 -0.000798021,0.00027842 -0.000290257,0.000142292 -0.000545248,0.000277926 -0.000724285,0.000393585 -5.35138e-005,4.93214e-005 -9.12447e-005,0.000100369 -0.000107767,0.00015191 3.55114e-005,-7.39822e-007 7.32423e-005,-4.43893e-006 0.000119851,-9.61768e-006l0.00525347 -0.00147767 0.00103748 -0.000126016c0.000291243,-4.19232e-005 0.000573608,-7.74347e-005 0.000838711,-0.000100123l0.000249073 -3.03327e-005c0.000248827,-3.30454e-005 0.000562264,-2.36743e-005 0.000920338,1.99752e-005 0.00123575,8.63125e-005 0.00226657,0.000450305 0.00321452,0.000798021 0.000640685,0.000235263 0.0027546,0.00109962 0.00289665,0.0015588l-0.000183229 0 -0.000739822 0c-0.000916146,0 -0.00323006,0.00074722 -0.00390502,0.00101701 -0.000370157,0.000148211 -0.00179875,0.000516642 -0.00287273,0.000728231 -0.000366705,9.27243e-005 -0.000642165,0.000156102 -0.000720586,0.000156102l-0.00166706 2.0715e-005 -0.00129247 -0.000100369c-9.22311e-005,-5.15409e-005 -0.00190652,-0.000583473 -0.00205547,-0.000618244 -0.000721573,-0.000163501 -0.00131244,-0.000517382 -0.00198395,-0.000757577 -0.000683842,-0.000246114 -0.000693213,-0.000530699 -0.00117114,-0.000512943 -0.00012577,1.2577e-005 -0.000271268,3.67445e-005 -0.000427124,6.70772e-005 -0.000120591,2.93463e-005 -0.00026091,6.85568e-005 -0.000427124,0.000117878 -0.000240935,7.44754e-005 -0.000536371,0.000137114 -0.000833532,0.000201231 -0.000416766,0.000117138 -0.00084463,0.000241675 -0.00124068,0.000346236 -3.52648e-005,1.62761e-005 -6.73238e-005,3.3292e-005 -9.74098e-005,5.17875e-005l-0.000245374 3.60046e-005c-0.000210109,5.22807e-005 -0.000406409,9.49438e-005 -0.000581993,0.000124537 -0.000602955,0.000101109 -0.00407987,0.000572622 -0.00426507,0.00078569l4.19232e-006 7.79279e-005 0.00186953 -3.15657e-005 0.0027546 -5.89391e-005 0.00268407 1.2577e-005c0.00104438,0 0.00322118,0.00106929 0.00386187,0.00152625 0.00062367,0.000445126 0.00261256,0.00182785 0.00280121,0.00243426 -4.04436e-005,0 -7.74347e-005,-7.39822e-007 -0.000114426,-2.21946e-006 1.10973e-005,2.95929e-005 2.04684e-005,5.67197e-005 2.14548e-005,8.18736e-005 -0.000482117,-3.55114e-005 -0.000870523,-0.000311711 -0.00182292,-0.000317877 -0.000380515,1.70159e-005 -0.000697405,5.84459e-005 -0.00104463,8.03939e-005 -0.000984209,6.3378e-005 -0.00202267,0.000145252 -0.00294474,0.000156349l-1.65227e-005 1.47964e-006 -0.00204585 4.85816e-005 -0.000452031 -6.63373e-005c-0.00034451,-2.51539e-005 -0.000685568,-7.5955e-005 -0.00102145,-0.00015043l-0.00101602 -0.000148704c-0.000171392,-0.000219727 -0.00116497,-0.000575581 -0.00154549,-0.000736369 -0.00047028,-0.000199012 -0.00103427,-0.000622683 -0.00145375,-0.000895431 -0.000396791,-0.000257951 -0.00254178,-0.00201182 -0.00264511,-0.00201182l-0.000650303 0 -0.00089617 0.000106041 -0.000770647 0.000106041c0.000198765,0.000406902 0.0037758,0.00267322 0.00389023,0.00382808l-9.37107e-005 0 -0.000926503 0 -9.05048e-005 0c-6.905e-006,-2.58938e-005 -1.55363e-005,-5.22807e-005 -2.762e-005,-8.03939e-005 -0.000522561,-0.000515902 -0.00229394,-0.00337038 -0.00386113,-0.0034816 -0.00156719,0.00011122 -0.00333586,0.00296496 -0.0038594,0.0034816 -1.03575e-005,2.73734e-005 -1.97286e-005,5.45002e-005 -2.58938e-005,8.03939e-005l-9.29709e-005 0 -0.000926503 0 -9.19845e-005 0c0.000112699,-0.00115486 0.00368974,-0.00342118 0.00388776,-0.00382808l-0.000767442 -0.000106041 -0.000899623 -0.000106041 -0.000646851 0c-0.000103328,0 -0.00224906,0.00175387 -0.00264683,0.00201182 -0.000420219,0.000272748 -0.000981743,0.000696419 -0.00145449,0.000895431 -0.000380515,0.000160788 -0.00137163,0.000516642 -0.00154302,0.000736369l-0.00101947 0.000149444c-0.000333413,7.37355e-005 -0.00067521,0.000124537 -0.00101873,0.000149691l-0.000451291 6.63373e-005 -0.00204585 -4.85816e-005 -1.97286e-005 -1.47964e-006c-0.000918858,-1.10973e-005 -0.00195831,-9.29709e-005 -0.00294326,-0.000156349 -0.000346236,-2.1948e-005 -0.000662387,-6.3378e-005 -0.00104635,-8.03939e-005 -0.000948944,6.16518e-006 -0.00133982,0.000282365 -0.00182193,0.000317877 3.4525e-006,-2.51539e-005 9.37107e-006,-5.22807e-005 2.04684e-005,-8.18736e-005 -3.60046e-005,1.47964e-006 -7.29957e-005,2.21946e-006 -0.000112699,2.21946e-006 0.000190381,-0.000606407 0.00217853,-0.00198913 0.00280294,-0.00243426 0.000637973,-0.000456963 0.00281403,-0.00152625 0.00386014,-0.00152625l0.00268333 -1.2577e-005 0.0027546 5.89391e-005 0.001872 3.15657e-005 1.72625e-006 -7.79279e-005c-0.000182489,-0.000213069 -0.00366064,-0.000684582 -0.00426433,-0.00078569 -0.000176324,-2.95929e-005 -0.000370897,-7.29957e-005 -0.000583719,-0.000124537l-0.000244388 -3.60046e-005c-2.93463e-005,-1.84955e-005 -6.28848e-005,-3.55114e-005 -9.56836e-005,-5.17875e-005 -0.000396051,-0.000104561 -0.000824161,-0.000229098 -0.00124265,-0.000346236 -0.000296915,-6.41179e-005 -0.000588898,-0.000126756 -0.000833532,-0.000201231 -0.000166213,-4.93214e-005 -0.000306533,-8.8532e-005 -0.000427124,-0.000117878 -0.000156596,-3.03327e-005 -0.000298641,-5.45002e-005 -0.000427124,-6.70772e-005 -0.000477678,-1.77557e-005 -0.00048557,0.000266829 -0.00117188,0.000512943 -0.000671511,0.000240195 -0.00125967,0.000594077 -0.00198297,0.000757577 -0.000148211,3.47716e-005 -0.00196423,0.000566703 -0.002053,0.000618244l-0.00129419 0.000100369 -0.0016678 -2.0715e-005c-7.84211e-005,0 -0.000353881,-6.3378e-005 -0.000719107,-0.000156102 -0.00107299,-0.000211589 -0.00250405,-0.00058002 -0.00287421,-0.000728231 -0.00067521,-0.000269788 -0.00298987,-0.00101701 -0.00390256,-0.00101701l-0.000742288 0 -0.000183476 0c0.000143032,-0.000459183 0.00225621,-0.00132354 0.00289936,-0.0015588 0.000948205,-0.000347716 0.00197532,-0.000711708 0.00321354,-0.000798021 0.000357334,-4.36495e-005 0.000671758,-5.30205e-005 0.000921324,-1.99752e-005l0.000246361 3.03327e-005c0.000265103,2.26879e-005 0.000546728,5.81993e-005 0.000837725,0.000100123l0.00104118 0.000126016 0.00525446 0.00147767c4.29096e-005,5.17875e-006 8.35998e-005,8.87786e-006 0.000115412,9.61768e-006 -1.55363e-005,-5.15409e-005 -5.17875e-005,-0.000102589 -0.000104315,-0.00015265 -0.000182489,-0.000114919 -0.000437481,-0.000250553 -0.000725025,-0.000392105 -0.000295435,-0.000116399 -0.000602708,-0.000212822 -0.000799994,-0.000279159 -0.00057854,-0.000196053 -0.0011667,-0.000529959 -0.00176694,-0.000784951 -0.000435755,-0.000183476 -0.00322907,-0.00179752 -0.00326607,-0.00179752l-0.000273734 3.03327e-005 -0.0006614 8.82854e-005 -0.00312575 0.000490748 -0.00140024 -5.524e-005c-9.37107e-005,0 -0.000202218,-5.17875e-006 -0.00031689,-1.52896e-005 -0.00220417,-0.000132675 -0.00398936,-0.00112256 -0.00530156,-0.00198691 -0.000786184,-0.000515902 -0.00157853,-0.000950671 -0.00231737,-0.00150282 -0.000360786,-0.000269788 -0.000864358,-0.000447345 -0.00124068,-0.000678663 -0.000479651,-0.000295682 -0.0011704,-0.000286804 -0.00128038,-0.000647837 0.000521574,-9.61768e-006 0.00118988,-0.000315411 0.00185991,-0.000387666 0.000353881,-3.82241e-005 0.000644878,-9.51904e-005 0.0009376,-0.000144512 0.00031689,-6.11586e-005 0.000599255,-0.000100862 0.000812077,-0.000100862l0.000239456 0 3.60046e-005 0 0.00157335 0 0.000463128 0c0.00152083,0 0.00363548,0.00125424 0.00460859,0.0018387 0.000687294,0.000411341 0.00132181,0.000794568 0.00201922,0.0012027 0.000469293,0.000274227 0.00135017,0.00095511 0.00197014,0.00106362 -0.000271021,-0.000391366 -0.00255732,-0.00193241 -0.00315411,-0.00250726 -0.000490748,-0.00046954 -0.000976564,-0.000875455 -0.0014863,-0.00134056 -0.000396051,-0.00036054 -0.00108236,-0.00123082 -0.0014577,-0.0014466 -0.000558812,0 -0.00108852,-1.18371e-005 -0.00159407,-3.62513e-005l-4.93214e-006 0 -1.55363e-005 -7.39822e-007 -3.10725e-005 -2.21946e-006c-0.00061997,-3.15657e-005 -0.00118667,-8.18736e-005 -0.00170849,-0.000153883 -0.00221281,-0.000298641 -0.00386877,-0.000964727 -0.00527567,-0.0021625 -0.000729464,-0.000620464 -0.00194178,-0.00191244 -0.00252994,-0.00266632 -0.000229098,-0.000293216 -0.000994567,-0.00113637 -0.00126164,-0.00137508 -0.00029001,-0.000256471 -0.00143205,-0.000913926 -0.00146213,-0.00120591l9.39573e-005 0 0.000463128 0 9.32175e-005 0c0.000160788,0 0.000322809,7.39822e-007 0.000483843,5.17875e-006 0.00324116,5.84459e-005 0.00556691,0.000624409 0.00726579,0.00207323 0.000850795,0.000723052 0.00157064,0.00158593 0.00233784,0.00235608 0.00074574,0.000750179 0.00145104,0.00175116 0.0024059,0.00229789 -0.000105055,-0.000335386 -0.00136398,-0.00172304 -0.0016826,-0.00228383 -0.000405422,-0.000714174 -0.00105819,-0.00175905 -0.00153686,-0.00248506 -0.000227372,-0.000342784 -0.000514176,-0.000917625 -0.000696665,-0.00130603 -0.000328974,-0.000704557 -0.000244634,-0.000739822 -0.00109962,-0.000959549 -0.00127003,-0.000327248 -0.00199875,-0.000700118 -0.00306631,-0.00117755 -0.00180763,-0.000809365 -0.00349344,-0.00228975 -0.00415582,-0.00404756 -0.000286558,-0.000765715 -0.000902336,-0.00191022 -0.00126559,-0.0027186 -0.000238716,-0.000535877 -0.000374596,-0.000863125 -0.000655482,-0.00134056 -0.000203944,-0.000347963 -0.00074648,-0.000865345 -0.000834272,-0.00118593l7.39822e-007 0c0.0008577,1.62761e-005 0.00322316,0.000835752 0.00383203,0.00115634 0.00123994,0.000655235 0.00193143,0.000959549 0.00285522,0.00191096 0.000806159,0.000826874 0.00125893,0.00185572 0.00174992,0.00293758 0.000174598,0.000381008 0.00121232,0.00262957 0.00159456,0.00291638 -0.000225399,-0.000729711 -0.000628602,-0.00160961 -0.000767935,-0.00235485 -0.000166213,-0.000885813 -0.000436741,-0.00188063 -0.000567443,-0.00284091 -0.000235263,-0.00171071 -0.000369418,-0.00104512 -0.00150011,-0.00196349 -0.000364239,-0.000294696 -0.000644878,-0.000461895 -0.00102539,-0.000786924 -0.000317137,-0.000271268 -0.000655482,-0.00063674 -0.000933655,-0.000863125 -0.000503572,-0.000404436 -0.00125893,-0.00135511 -0.00155067,-0.00192107 -0.000592597,-0.00115437 -0.000365225,-0.00153908 -0.000725025,-0.00270553 -0.000300614,-0.000969166 -4.31563e-005,-0.00199209 -0.000192107,-0.00308358 -6.28848e-005,-0.000459922 -0.000123057,-0.00100147 -0.000186928,-0.00150406 -5.67197e-005,-0.000440194 -0.000313438,-0.00078643 -0.000355608,-0.00125967l-6.11586e-005 -6.63373e-005c1.72625e-005,7.39822e-007 3.69911e-005,2.21946e-006 5.69663e-005,4.68554e-006l-3.69911e-006 -3.18123e-005c4.143e-005,8.87786e-006 9.91361e-005,3.08259e-005 0.000172378,6.41179e-005 0.00133217,0.000339578 0.00412204,0.00294202 0.00463868,0.00381822 0.000698392,0.00117854 0.000729464,0.00158001 0.000936121,0.00316101 0.000147964,0.00114968 0.000360786,0.00238987 0.000360786,0.00364929l2.04684e-005 0c0.000211836,-0.000902582 5.86925e-005,-0.00259628 0.000249813,-0.00357284 0.000136127,-0.000714914 0.000631068,-0.0027731 0.000656222,-0.00335608l-5.86925e-005 -6.3378e-005c-0.000493214,-0.000237483 -0.00208112,-0.00205547 -0.00240417,-0.00246287 -0.000530452,-0.000664113 -0.0015154,-0.00233636 -0.0015154,-0.0033763l-1.65227e-005 -0.00221897 0.000571882 -0.00435484 1.80023e-005 -0.000636 -0.000109987 -0.000710475c2.66336e-005,1.33168e-005 5.84459e-005,2.95929e-005 9.29709e-005,4.80884e-005 -9.86429e-007,-4.21698e-005 -9.86429e-007,-8.4093e-005 -9.86429e-007,-0.000127743 0.000547715,0.000169666 0.00232846,0.00212107 0.0027366,0.00264585 0.000645864,0.000821695 0.00151984,0.00229567 0.00151984,0.00361181 0,0.000957576 -0.000733656,0.0058436 -0.000411587,0.0064436 0.000113686,-0.000148211 6.28848e-005,-0.000391366 0.000170406,-0.000710475 0.00011196,-0.000339085 0.000219727,-0.000512943 0.000350429,-0.000885813 0.000168926,-0.000478418 0.000505545,-0.00121676 0.000750919,-0.00173414 0.000196299,-0.000411341 0.00173168,-0.00324116 0.00173168,-0.00327149 0,-4.93214e-005 -0.000878415,-0.00195362 -0.000986675,-0.00216743 -0.000126756,-0.000254252 -0.000589145,-0.00215633 -0.000589145,-0.00250578l0 -0.00103032c0,-0.00147989 0.00108852,-0.00317482 0.00170233,-0.00424855 0.00089987,-0.00158026 0.00137188,-0.00209665 0.00190825,-0.00406754 4.8335e-005,1.03575e-005 0.000102342,4.9568e-005 0.000164487,0.000109987 9.37107e-006,-1.70159e-005 1.55363e-005,-2.81132e-005 2.0715e-005,-3.03327e-005 0.000969413,0.000607887 0.00185202,0.0037615 0.00185202,0.00538516l0 0.000713435c0,0.00150924 -0.00305497,0.00541377 -0.00305497,0.00641598 1.45498e-005,-8.87786e-006 3.08259e-005,-1.89888e-005 4.63621e-005,-3.08259e-005 0.00030234,-0.000587418 0.0018281,-0.00227372 0.00221231,-0.00271071 0.000777552,-0.000882114 0.0019149,-0.00175683 0.00254277,-0.00254992 0,-2.36743e-005 4.19232e-006,-4.78418e-005 5.17875e-006,-7.29957e-005 -0.000313438,-0.00326261 -0.000307519,-0.0054912 0.00173932,-0.00756788 0.000859426,-0.000872003 0.00164043,-0.00173858 0.002671,-0.00246607 0.000422191,-0.000296175 0.000976564,-0.00085622 0.00135535,-0.00121528 0.000361773,-0.000338345 0.000962015,-0.001308 0.00118149,-0.00144586l0.000110973 -1.03575e-005 3.69911e-006 3.74843e-005c2.56471e-005,-1.30702e-005 4.63621e-005,-2.1948e-005 7.05297e-005,-2.71268e-005l0.000324535 0.00197508 -4.73486e-005 0.00143032 -0.000395065 0.00221552c-0.000109494,7.89143e-005 -0.000858686,0.00137829 -0.00114006,0.00169789 -0.000487542,0.000549934 -0.000965467,0.000948698 -0.00144241,0.00145942 -0.000854987,0.000921818 -0.00199012,0.00165227 -0.00280713,0.00261626 0.00049938,-0.000155609 0.00180048,-0.00128236 0.00235855,-0.00157434 0.000434768,-0.000226139 0.0015043,-0.00160147 0.00194524,-0.00205843 0.000643152,-0.000664606 0.00395237,-0.00236052 0.00551611,-0.00252107 0.0002471,-5.89391e-005 0.000495927,-0.00011048 0.00074574,-0.000156842 0.00107028,-0.000230824 0.00352525,-0.000608133 0.00571142,-0.000908008 0.00130209,-0.000199012 0.00273586,-0.000392105 0.00370873,-0.000441427 9.46972e-005,-6.16518e-006 0.000173118,-1.03575e-005 0.000235017,-1.18371e-005l0 2.95929e-006c6.46111e-005,-1.47964e-006 0.00012577,-2.95929e-006 0.000186188,-2.95929e-006 -0.000926503,0.00118495 -0.00204511,0.00218124 -0.00305176,0.0032493 -0.000300614,0.00031911 -0.0010032,0.000767195 -0.00173414,0.00119457 -2.24413e-005,1.47964e-005 -4.48825e-005,2.81132e-005 -6.2145e-005,3.99504e-005 -0.000503572,0.000318863 -0.000919598,0.000557086 -0.00135881,0.000755358 -0.000468307,0.000253512 -0.00080172,0.000432549 -0.000827367,0.000463375 -0.000734643,0 -0.000931682,0.000177804 -0.00140369,0.00030382 -0.000365965,9.71632e-005 -0.00103945,0.000131195 -0.00146041,0.000173858l-1.55363e-005 1.47964e-006c-0.000901596,0.000132675 -0.00188482,0.000233537 -0.00257976,0.000233537l-0.000836985 4.51291e-005 -0.00258148 -0.000188161 -0.00112034 -6.905e-005c-0.000183476,-3.92105e-005 -0.00313191,0.00202218 -0.00323425,0.00235165 0.000286804,0 0.00217162,-0.000412081 0.00296373,-0.000609613 0.000103575,-2.71268e-005 0.000203451,-5.45002e-005 0.000297162,-7.79279e-005l4.43893e-006 -1.47964e-006c0.000462388,-0.000144512 0.00290775,-0.000658195 0.00339603,-0.000658195l0.000467567 -3.10725e-005 0.000370404 3.10725e-005 0.00045795 0c0.000266089,0 0.000600982,4.48825e-005 0.00097903,0.000123057l0.000409861 3.60046e-005c5.86925e-005,3.25521e-005 0.000173118,8.26134e-005 0.000328234,0.000144512 0.00200122,0.000552647 0.00457826,0.00172304 0.004761,0.00231046l-9.29709e-005 0 -0.00055388 0c-0.000464115,0 -0.000872989,3.4525e-005 -0.00124413,8.8532e-005 -0.00111861,0.000174598 -0.00196423,0.000563004 -0.00301379,0.000782485 -0.000251539,5.37604e-005 -0.000524533,0.000120344 -0.000807885,0.000191614 -0.000105794,4.63621e-005 -0.000220467,9.00116e-005 -0.000398517,0.000122317 -8.60659e-005,1.62761e-005 -0.000174105,3.03327e-005 -0.000259184,4.51291e-005 -0.000874962,0.00022022 -0.00182119,0.000433289 -0.00269788,0.000433289l-0.000185202 0c-8.01473e-005,0 -0.000161774,-7.39822e-007 -0.000239209,-1.47964e-006 -7.32423e-005,7.39822e-007 -0.000146485,1.47964e-006 -0.000224906,1.47964e-006l-0.00120196 0c-0.00030308,0 -0.00215707,-0.000706776 -0.00255756,-0.000821695 -0.00044266,-0.000126016 -0.00195387,-0.00102219 -0.00221823,-0.00114376 -0.000677677,0.000282858 -0.00478245,0.00477629 -0.00484879,0.00545051 2.17014e-005,-7.39822e-007 4.73486e-005,-3.69911e-006 7.84211e-005,-1.01109e-005 0.000745,-0.000290503 0.0026091,-0.00117484 0.00293709,-0.00136793 0.000676937,-0.000393585 0.00248876,-0.0012064 0.0032964,-0.00137903 0.000171392,-3.67445e-005 0.000347963,-6.905e-005 0.000527,-9.93827e-005 0.000607887,-0.000149691 0.00130184,-0.000311711 0.00139826,-0.000311711l0.0192489 0c0.00133291,0 0.00265645,3.69911e-006 0.00397827,8.87786e-006 0.00132255,-5.17875e-006 0.00264782,-8.87786e-006 0.00397925,-8.87786e-006l0.0192514 0c9.37107e-005,0 0.000790376,0.000162021 0.0013958,0.000311711 0.000180763,3.03327e-005 0.000358074,6.26382e-005 0.000529466,9.93827e-005 0.000806159,0.000172625 0.00261601,0.000985442 0.00329295,0.00137903 0.00033144,0.000193093 0.00219579,0.00107743 0.00293808,0.00136793 3.08259e-005,6.41179e-006 5.84459e-005,9.37107e-006 8.08872e-005,1.01109e-005 -6.63373e-005,-0.000674224 -0.00417037,-0.00516765 -0.0048515,-0.00545051 -0.00026165,0.000121577 -0.00177557,0.00101775 -0.00221897,0.00114376 -0.000398764,0.000114919 -0.00225251,0.000821695 -0.00255658,0.000821695l-0.00120295 0c-7.39822e-005,0 -0.000150677,-7.39822e-007 -0.000223919,-1.47964e-006 -7.81745e-005,7.39822e-007 -0.000156596,1.47964e-006 -0.000239456,1.47964e-006l-0.000183229 0c-0.000878415,0 -0.00182391,-0.000213069 -0.00269887,-0.000432549 -8.60659e-005,-1.40566e-005 -0.000172872,-2.95929e-005 -0.000259184,-4.58689e-005 -0.000177311,-3.23055e-005 -0.000292723,-7.5955e-005 -0.000399504,-0.000122317 -0.000282365,-7.12695e-005 -0.000553633,-0.000137607 -0.000807639,-0.000191614 -0.00104709,-0.00021948 -0.00189518,-0.000607887 -0.00301033,-0.000781745 -0.000373856,-5.47468e-005 -0.000781005,-8.92718e-005 -0.00124611,-8.92718e-005l-0.000555359 0 -9.39573e-005 0c0.000184462,-0.000587418 0.00276077,-0.00175782 0.00476445,-0.00231046 0.000151663,-6.11586e-005 0.000269542,-0.00011196 0.000327248,-0.000144265l0.000408135 -3.55114e-005c0.000378049,-7.81745e-005 0.000712941,-0.000123797 0.000978291,-0.000123797l0.000458936 0 0.000370404 -3.10725e-005 0.000467567 3.10725e-005c0.000489022,0 0.00293611,0.000513683 0.00339603,0.000658195l4.43893e-006 1.47964e-006c9.37107e-005,2.34277e-005 0.000192847,5.08011e-005 0.000296915,7.79279e-005 0.000791362,0.000197532 0.00267889,0.000609613 0.00296644,0.000609613 -0.000102342,-0.000329467 -0.00305078,-0.00239086 -0.00323771,-0.00235165l-0.00111935 6.905e-005 -0.00258247 0.000188161 -0.000833532 -4.51291e-005c-0.000697405,0 -0.00167989,-0.000100862 -0.00258321,-0.000233537l-1.20838e-005 -1.47964e-006c-0.000420958,-4.2663e-005 -0.00109716,-7.66948e-005 -0.00146115,-0.000173858 -0.000472006,-0.000126016 -0.000670032,-0.00030382 -0.0014064,-0.00030382 -2.49073e-005,-3.08259e-005 -0.00035906,-0.000209863 -0.000825641,-0.000464855 -0.000439947,-0.000196793 -0.000856713,-0.000434768 -0.00135807,-0.000753878 -1.87421e-005,-1.10973e-005 -3.94571e-005,-2.44141e-005 -6.0912e-005,-3.84707e-005 -0.000733656,-0.00042811 -0.00143649,-0.000876935 -0.00173439,-0.00119604 -0.00100739,-0.00106806 -0.00212526,-0.00206435 -0.0030525,-0.0032493 5.84459e-005,0 0.000120591,1.47964e-006 0.000184216,2.95929e-006l0 -2.95929e-006c6.18984e-005,1.47964e-006 0.000140319,5.91857e-006 0.000234277,1.18371e-005 0.000973852,4.93214e-005 0.00241009,0.000243155 0.00371218,0.000441427 0.00218716,0.000299874 0.00464386,0.000677183 0.00571167,0.000908008 0.0002471,4.63621e-005 0.000495927,9.7903e-005 0.000744754,0.000156842 0.00156201,0.000160541 0.0048737,0.00185646 0.00551611,0.00252107 0.000441673,0.000456963 0.00150948,0.00183229 0.00194425,0.00205843 0.000559798,0.000291983 0.00185917,0.00141873 0.00235682,0.00157434 -0.000813557,-0.000964234 -0.0019477,-0.00169444 -0.00280614,-0.00261626 -0.000474472,-0.000510723 -0.000954123,-0.000909487 -0.00143895,-0.00145942 -0.000285078,-0.00031985 -0.00103501,-0.00161898 -0.0011445,-0.00169789l-0.000393338 -0.00221552 -4.56223e-005 -0.00143032 0.000323795 -0.00197508c2.14548e-005,5.17875e-006 4.46359e-005,1.40566e-005 6.88034e-005,2.78666e-005zm0.0239919 0.0324145c0.00059309,-0.000144512 0.00113735,-0.000239456 0.00152921,-0.000246854l0.00268481 -5.00613e-005 -0.000610353 0.00223895c-0.000199012,0.000739082 -0.000627862,0.00101405 -0.00100172,0.00158371 -0.000226385,0.000383228 -0.000390872,0.000775333 -0.000571635,0.00117706 -0.000390133,0.000868797 -0.000896417,0.00174721 -0.00122884,0.00262711 -0.000445126,0.00118667 -0.0012503,0.00228186 -0.0022715,0.00320071 4.19232e-006,0 5.91857e-006,0 7.64482e-006,0 0.000180023,-4.43893e-006 0.000357334,-4.93214e-006 0.000538343,-4.93214e-006l0.00291292 0 -0.000188408 0.00193217c-0.000113686,0.00116966 -0.00118667,0.00163328 -0.00204955,0.00230898 -0.000324535,0.000296915 -0.000755111,0.000780512 -0.00101701,0.00111442 -0.000755851,0.00096892 -0.00182884,0.00212156 -0.00279233,0.00294178 -0.000509737,0.000432056 -0.00104192,0.000805666 -0.00159999,0.00112552 5.17875e-006,1.47964e-006 1.20838e-005,2.95929e-006 1.72625e-005,3.69911e-006l0.00259949 4.7102e-005 -0.000681869 0.0021948c-0.00034525,0.00111294 -0.00113069,0.00126016 -0.002126,0.00166632 -0.00031763,0.000184216 -0.000795801,0.000369171 -0.00104118,0.000546728 -0.000769908,0.000574841 -0.00160936,0.00104216 -0.00241527,0.00157286 -0.00127792,0.000840684 -0.00262563,0.00154327 -0.00410996,0.00195954 0.000781005,0.000451784 0.00143969,0.00100221 0.00164117,0.00165227l0.000701844 0.00224413 -0.00362956 0c-0.000630328,3.25521e-005 -0.00243771,0.000611586 -0.00303105,0.000849069 -0.000865345,0.000346236 -0.00226558,0.00064833 -0.00322735,0.000837971 -0.000396051,0.000101602 -0.000831806,0.000214302 -0.00122613,0.000214302l-0.00137779 1.70159e-005c0.000502832,0.000477431 0.000905048,0.000977304 0.00105573,0.00146065l0.000699131 0.00224487 -0.000551907 0 2.49073e-005 0.000249073 -0.00245226 -0.000176078c-0.000582979,-4.143e-005 -0.00110406,-0.000290503 -0.0016138,-0.000309492 -0.000308259,1.60295e-005 -0.000616518,5.37604e-005 -0.000924037,7.34889e-005 -0.000997033,6.41179e-005 -0.00199407,0.000145252 -0.00299307,0.000160788l-5.17875e-006 0 -0.00231638 5.59798e-005 -0.000573362 -8.48329e-005c-0.000398764,-3.30454e-005 -0.000792349,-9.19845e-005 -0.00118223,-0.000173858l-0.001817 -0.000266829 -0.000307519 -0.000391366c-0.000114426,-5.37604e-005 -0.000244388,-0.000106781 -0.000374596,-0.000157582l0.000108754 0.00110036 -0.00504608 0 -0.000286064 -0.0010974c-0.00055166,-0.000670772 -0.0013191,-0.0017482 -0.00193217,-0.00226262 -0.000613805,0.000517382 -0.00138544,0.00159999 -0.00193661,0.00227076l-0.000302094 0.00108926 -0.00502191 0 0.000105055 -0.00110036c-0.000129222,5.08011e-005 -0.000257458,0.000103822 -0.000371144,0.000157582l-0.000308506 0.000391366 -0.00181922 0.000266829c-0.000387666,8.18736e-005 -0.000781991,0.000140813 -0.00117903,0.000173118l-0.000576074 8.55727e-005 -0.00232057 -5.59798e-005c-0.000997033,-1.55363e-005 -0.00199678,-9.667e-005 -0.00299135,-0.000160788 -0.000309985,-1.97286e-005 -0.000617504,-5.74595e-005 -0.00092675,-7.34889e-005 -0.00050949,1.89888e-005 -0.00103156,0.000268062 -0.00161108,0.000309492l-0.00245399 0.000176078 2.41675e-005 -0.000249073 -0.000552893 0 0.000702584 -0.00224487c0.000150677,-0.00048335 0.000552893,-0.000983223 0.00105326,-0.00146065l-0.00135979 -1.70159e-005c-0.000410601,0 -0.000848082,-0.000112699 -0.00124512,-0.000214302 -0.000958315,-0.000189641 -0.00235855,-0.000491735 -0.00322562,-0.000837971 -0.000591611,-0.000237483 -0.0024128,-0.000816516 -0.00301897,-0.000849069l-0.00363992 0 0.000699378 -0.00224413c0.000203204,-0.000650057 0.000860166,-0.00120048 0.00164117,-0.00165227 -0.00148458,-0.000416273 -0.00282957,-0.00111886 -0.00410996,-0.00196028 -0.000806899,-0.000529959 -0.00164487,-0.000997279 -0.00241552,-0.00157212 -0.000245374,-0.000177557 -0.000724039,-0.000363252 -0.00104192,-0.000546728 -0.000994567,-0.000406162 -0.0017773,-0.000553387 -0.00212501,-0.00166485l-0.000686308 -0.00219628 0.00260393 -4.7102e-005c7.64482e-006,-7.39822e-007 1.381e-005,-2.21946e-006 1.97286e-005,-3.69911e-006 -0.000558812,-0.00031985 -0.0010937,-0.000693459 -0.00160171,-0.00112552 -0.000961768,-0.000820215 -0.00203722,-0.00197286 -0.00279332,-0.00294178 -0.00026091,-0.000333906 -0.000692226,-0.000818982 -0.00101602,-0.00111516 -0.000863618,-0.00067669 -0.00193661,-0.00113933 -0.00205029,-0.00230972l-0.000185202 -0.00193069 0.00291243 0c0.00017805,0 0.000354621,4.93214e-007 0.000530205,4.93214e-006 5.17875e-006,0 8.63125e-006,0 1.30702e-005,0 -0.00101947,-0.000918858 -0.00182391,-0.00201404 -0.0022715,-0.00320071 -0.000332426,-0.000879894 -0.000838711,-0.00175831 -0.00122884,-0.00262809 -0.000178297,-0.000400737 -0.000341798,-0.000786184 -0.000567443,-0.00117089 -0.000380761,-0.00058224 -0.000804433,-0.000849808 -0.00100591,-0.00158889l-0.000608627 -0.00223895 0.0026858 5.00613e-005c0.000390872,7.39822e-006 0.000933408,0.000102342 0.0015265,0.000246854 -0.000378789,-0.000923297 -0.000333166,-0.00156596 -0.000625889,-0.00252107 -0.000378789,-0.00121972 -8.87786e-005,-0.00217927 -0.000248827,-0.00333191 -6.80636e-005,-0.000504805 -0.000121577,-0.00100813 -0.000186928,-0.00151294 -4.73486e-005,-0.000246361 -0.000136867,-0.000454004 -0.000217014,-0.000682609l-0.00258395 -0.00287865 0.00233167 0.000128976 -2.0715e-005 -0.000385447 0.00266854 0.000527739c0.00031615,6.18984e-005 0.000425397,0.000103822 0.000548454,0.000161528 -3.08259e-005,-0.00019186 -4.73486e-005,-0.000377556 -4.73486e-005,-0.000554373l-1.87421e-005 -0.0023223 0.000576814 -0.00438418 1.20838e-005 -0.000415533 -0.000642412 -0.00404312 0.00276077 0.00127496 0.000661154 0.000204931c0.000730204,0.000226879 0.0016826,0.00105079 0.00248432,0.00187619 6.80636e-005,-0.0017334 0.00103674,-0.00330898 0.00190652,-0.00483375 0.000801473,-0.00140911 0.00132601,-0.00212329 0.00175042,-0.00369072l0.000490995 -0.00179678 0.00137779 0.00031763 0.000384954 -0.000226879 0.000983963 0.000617504c8.87786e-005,4.56223e-005 0.000162021,9.34641e-005 0.000223919,0.000141553 0.000493461,0.000311711 0.000916392,0.000820215 0.00127101,0.0014318 0.000323055,-0.000533658 0.000728478,-0.00105523 0.00123402,-0.00156818 0.000942779,-0.000958315 0.00180048,-0.00188827 0.0029398,-0.00269369 0.000383228,-0.000269788 0.000791362,-0.000707516 0.00113217,-0.00102958 0.000532178,-0.000553633 0.000761276,-0.0012323 0.00149765,-0.00169345l0.000455483 -0.000284585 0.000698392 -6.3378e-005 0.00199924 -0.000457703 4.66088e-005 0.000274227 1.45498e-005 -7.39822e-007 3.27988e-005 0.000302094 0.000582979 0.00354399 -5.59798e-005 0.00169148 -5.84459e-005 0.000331687c0.000587912,-0.000196793 0.00113489,-0.000340565 0.00158346,-0.000406162 0.000232551,-5.15409e-005 0.000463128,-0.000100123 0.000697405,-0.000145005 0.00187471,-0.000400243 0.00394128,-0.000669292 0.00583226,-0.000928723 0.00127595,-0.000194573 0.00262883,-0.000396544 0.0039213,-0.000462882 0.000109494,-7.89143e-006 0.00021948,-1.40566e-005 0.000328974,-1.52896e-005l5.15409e-005 -1.72625e-006 5.17875e-005 1.47964e-006c4.31563e-005,7.39822e-007 8.87786e-005,-4.93214e-007 0.000134401,-4.93214e-007l0.00390502 0 -0.00217261 0.0027768c-0.000950671,0.00121602 -0.00209591,0.00224487 -0.00316274,0.00337605 -0.000531192,0.000565224 -0.00140714,0.00109666 -0.00212008,0.00151318 -6.905e-006,5.91857e-006 -1.55363e-005,1.10973e-005 -5.77061e-005,3.67445e-005 -0.00049938,0.00031689 -0.00100492,0.000613065 -0.00155239,0.000864605 -0.000118865,6.38713e-005 -0.000240195,0.000128236 -0.000360046,0.000193093l-0.000342784 0.000438468c0.00100492,0.000557086 0.00181873,0.0012175 0.00204684,0.00194622l0.000204191 0.000655975 0.00472302 0c0.00132773,0 0.00265473,4.43893e-006 0.00397407,9.61768e-006 0.0013302,-5.17875e-006 0.00265448,-9.61768e-006 0.00398345,-9.61768e-006l0.00472302 0 0.000203204 -0.000655975c0.000229098,-0.000728971 0.00104537,-0.00138914 0.00204931,-0.00194622l-0.000343524 -0.000438714c-0.000119604,-6.46111e-005 -0.000242908,-0.000129715 -0.000361773,-0.000192847 -0.000547468,-0.000251539 -0.00105375,-0.000549194 -0.00155412,-0.000867564 -3.62513e-005,-2.1948e-005 -3.69911e-005,-2.26879e-005 -4.56223e-005,-2.78666e-005 -0.000713928,-0.000417999 -0.00159481,-0.000951657 -0.00212945,-0.0015191 -0.00106707,-0.00113119 -0.0022096,-0.00216003 -0.00316126,-0.00337605l-0.00217236 -0.0027768 0.00390502 0c5.84459e-005,0 0.000119604,7.39822e-007 0.00017805,1.97286e-006 0.000198272,-5.91857e-006 0.000115412,-5.67197e-006 0.000390133,1.40566e-005 0.00129271,6.70772e-005 0.00264437,0.000268309 0.00390157,0.000460662 0.00190997,0.00026165 0.00397654,0.000530699 0.00585125,0.000930942 0.000230824,4.48825e-005 0.000465101,9.34641e-005 0.000696665,0.000145005 0.000446112,6.55975e-005 0.000994567,0.000209369 0.001581,0.000406162l-5.77061e-005 -0.000331687 -5.59798e-005 -0.00169148 0.000577061 -0.00351366 3.84707e-005 -0.000333166 1.72625e-005 1.47964e-006 4.31563e-005 -0.000274227 0.00199949 0.000457703 0.000701597 6.3378e-005 0.000454744 0.000284338c0.000734396,0.000461402 0.000968673,0.00114524 0.00149148,0.00168778 0.000341058,0.000320589 0.000753385,0.000765715 0.00113735,0.00103624 0.00114105,0.0008032 0.0019953,0.00173414 0.00293906,0.00269295 0.000508011,0.000512696 0.00091368,0.00103452 0.00123378,0.00156818 0.000357334,-0.000611586 0.000780265,-0.00112009 0.00127027,-0.0014318 6.28848e-005,-4.80884e-005 0.000138593,-9.59302e-005 0.000227372,-0.000141553l0.000984209 -0.000617504 0.000381501 0.000226879 0.00138026 -0.00031763 0.000489022 0.00179678c0.000427124,0.00156744 0.000947958,0.00228161 0.00175239,0.00369072 0.000870523,0.00152551 0.00183574,0.00310133 0.00190726,0.00483375 0.00080172,-0.000826874 0.0017514,-0.00165005 0.00248432,-0.00187619l0.000656962 -0.000204191 0.00276151 -0.0012757 -0.000641425 0.00404312 1.45498e-005 0.000415533 0.000573608 0.00438418 -1.55363e-005 0.00231712c0,0.000178297 -1.72625e-005,0.000366458 -5.00613e-005,0.000560785 0.000118865,-5.74595e-005 0.000231564,-0.000100862 0.000549441,-0.000162761l0.00263919 -0.000522561 -1.45498e-005 0.000382488 0.00237483 -0.000132675 -0.00260393 0.00288308c-7.91609e-005,0.000227865 -0.000170406,0.000434029 -0.000216028,0.00067817 -6.55975e-005,0.000504558 -0.000119851,0.00101035 -0.000189641,0.00151441 -0.000156596,0.00115264 0.000130948,0.00211219 -0.000245374,0.00333191 -0.000296175,0.00095437 -0.000249566,0.00159777 -0.000628355,0.00252107zm-0.0507611 -0.00372254c0,0.00180245 -0.0008286,0.0034091 -0.0024858,0.00481994 -0.0016572,0.00141084 -0.00407321,0.00257137 -0.00724778,0.00348185l0 0.00385028 -0.00429121 0 0 -0.0213002c0.000558072,0 0.00176176,0.000236743 0.00361082,0.000709982 0.00275608,0.000710229 0.00500637,0.00162958 0.00675087,0.0027583 0.0024419,0.00158371 0.0036631,0.00347716 0.0036631,0.00567986zm-0.00429121 0.000245867c0,-0.00160196 -0.000907021,-0.0030493 -0.00272131,-0.00434201 -0.00059309,-0.000418739 -0.00150011,-0.000901103 -0.00272106,-0.00144734l0 0.0112781c0.00122095,-0.000527739 0.00212797,-0.000992101 0.00272106,-0.00139259 0.00181429,-0.00123797 0.00272131,-0.00260343 0.00272131,-0.00409615zm0.0146527 -0.00849266c-0.00174425,0.000873729 -0.00310478,0.0018932 -0.00408184,0.00305842 -0.000976811,0.00116522 -0.00146509,0.00233932 -0.00146509,0.00352278 0,0.00112872 0.000767442,0.00263968 0.00230257,0.00453289 0.00153488,0.00189345 0.00230257,0.00332254 0.00230257,0.00428751 0,0.00176571 -0.000837231,0.00343154 -0.00251194,0.00499725l-0.00539009 0c0.00244215,-0.00156571 0.0036631,-0.00318592 0.0036631,-0.00486087 0,-0.000363992 -0.00102909,-0.00204807 -0.00308752,-0.00505199 -0.000976811,-0.00141996 -0.00146534,-0.00272156 -0.00146534,-0.00390478 0,-0.00125622 0.000313931,-0.00242587 0.000942039,-0.00350922 0.000627862,-0.0010831 0.00163969,-0.00210726 0.00303524,-0.00307199l0.0057563 0zm0.0173742 0l-0.00795456 0.0218462 -0.0080066 -0.0218462 0.00439577 0 0.00361082 0.0110278 0.00366335 -0.0110278 0.00429121 0z"/>
 </g>
</svg>
