<?xml version="1.0" encoding="UTF-8"?>
<!DOCTYPE svg PUBLIC "-//W3C//DTD SVG 1.1//EN" "http://www.w3.org/Graphics/SVG/1.1/DTD/svg11.dtd">
<!-- Creator: CorelDRAW -->
<svg xmlns="http://www.w3.org/2000/svg" xml:space="preserve" width="1in" height="2in" style="shape-rendering:geometricPrecision; text-rendering:geometricPrecision; image-rendering:optimizeQuality; fill-rule:evenodd; clip-rule:evenodd"
viewBox="0 0 0.0967895 0.105896"
 xmlns:xlink="http://www.w3.org/1999/xlink">
 <defs>
  <style type="text/css">
   <![CDATA[
    .fil0 {fill:#00A03B}
   ]]>
  </style>
 </defs>
 <g id="Layer_x0020_1">
  <metadata id="CorelCorpID_0Corel-Layer"/>
  <path class="fil0" d="M0.0770135 0.00479597c0.000305608,-0.000471065 0.00135253,-0.000903198 0.00203739,-0.00144142 0.000926232,-0.000728333 0.00165197,-0.000749096 0.00165197,0.000689402 0.00217365,0.000938236 0.002792,-0.000358165 0.00473628,0.00121497 0.000520377,0.000421103 0.00101285,0.00120946 0.00141546,0.00138464 0.000167403,7.23467e-005 0.000966137,0.000337726 0.00103816,0.000375359 0.000771806,0.000400664 -0.000178434,0.000512591 0.000649823,0.000692971 0,0.00107612 -0.00185084,0.00188101 0.000345837,0.00188101 0.000154102,0.000237154 0.00126818,0.00126136 0.00126818,0.00159844l0 0.00122276c0,0.000430511 -0.000677399,0.000544385 -0.000807168,0.000940507 6.94269e-005,0.000679021 0.00149884,0.00109299 0.00149884,0.00159844l0 0.000376333c0,0.000282898 -0.000612838,0.00062614 -0.000830203,0.000827283 -0.000243643,0.0002258 -0.000467171,0.000760127 -0.000610567,0.00100701 -0.00070465,0.00121108 -0.000519079,0.000873027 -0.000519079,0.00258599 -0.000826634,0.000180056 0.000118739,0.000220284 -0.000626464,0.000617705 -0.000442191,0.000235857 -0.000286791,4.63927e-005 -0.000826634,0.000454194 -0.000757207,0.000571961 -0.000507076,0.000749096 -0.000507076,0.00184371 -0.00144499,0.000314367 -0.000804898,0.00229271 -0.00137134,0.00330102 -0.00036076,0.000642036 -0.00208735,0.00243448 -0.00208735,0.00271771l0 0.000470416c0,1.13549e-005 0.000474309,0.0015514 0.000691998,0.00159876l0 0.000564174c-0.000256944,5.5801e-005 -0.000346161,2.20609e-005 -0.000346161,0.000282249l0 0.0014106c0,0.000260189 8.92168e-005,0.000226124 0.000346161,0.000282249 -9.44076e-005,0.000288089 -0.000691998,0.000842531 -0.000691998,0.00112835l0 0.000470416c0,0.000351352 0.00306289,0.000986251 0.00149884,0.00272744 3.24425e-007,0.00142422 -0.000447382,0.00177947 -0.000894439,0.00284423 -0.00040618,0.000968408 -0.000258566,0.00202603 -0.000258566,0.00326858 0.000113224,2.46563e-005 0.000853886,0.000886004 0.00162115,0.00185344l-3.27669e-005 3.79577e-005 -5.54766e-005 0.000292631 -0.000301715 0.000208929 -0.000255322 0.00064009c-0.000243318,0.000609594 -0.00051616,0.00121237 -0.000832474,0.00179893 -0.000305284,0.000565797 -0.000647552,0.00111862 -0.00102972,0.00165197l-0.00032118 0.00044803 -5.48278e-005 0.000445435 -0.000218013 0.000131716 -0.000936614 0.00144953c0,-9.73274e-007 0,-1.62212e-006 0,-2.27097e-006 0,-0.000496694 -6.81292e-005,-0.000998579 -0.00023975,-0.00147581 -6.09918e-005,-0.000178758 -0.000136583,-0.000353947 -0.0002258,-0.000524595l3.30913e-005 -0.000306257 -0.000193033 -0.000559308 6.48849e-005 -0.000907091 -0.000239101 -0.000454194 7.98085e-005 -0.000958675 -0.000184598 -0.000243967c0,-3.92554e-005 0,-7.85108e-005 0,-0.000117766l0 -7.04001e-005 -5.19079e-006 -7.04001e-005c-6.74803e-005,-0.000932396 -0.000129121,-0.00188296 -0.000258566,-0.00281049l-7.00757e-005 -0.000502209 -4.67171e-005 -6.48849e-005 7.68886e-005 -0.000740986 -0.000133014 -0.00273068 0 -0.000350054c0,-9.40831e-005 7.13734e-006,-0.00018914 1.81678e-005,-0.000282898l1.2977e-006 -1.16793e-005c2.20609e-005,-0.000191735 5.19079e-005,-0.000383794 8.30527e-005,-0.00057488l5.06102e-005 -0.000310474 -4.93125e-005 -0.000310799c-2.04388e-005,-0.000128472 -4.9637e-005,-0.000257593 -6.58582e-005,-0.000386065l-7.46177e-006 -5.93697e-005 -1.10304e-005 -5.87209e-005c-5.83964e-006,-3.17936e-005 -1.23281e-005,-6.32628e-005 -1.84922e-005,-9.4732e-005 1.2977e-006,-5.45033e-005 4.21752e-006,-0.000109331 1.10304e-005,-0.000159292l0.000198548 -0.000790298 -0.000162861 -0.000259864c0.000228395,-0.00067675 0.00028452,-0.00145245 0.000312745,-0.00214315 2.10876e-005,-0.000512591 3.8931e-005,-0.00105795 0.000117117,-0.00156665l6.74803e-005 -0.000439271 -8.59725e-005 -0.000284845 9.21366e-005 -0.000308528 6.55338e-005 -0.00142293 0.000195952 -0.000754936c0.000144369,-0.000328318 0.000156048,-0.000511942 0.000156048,-0.000850317l0 -0.000202441 -4.18508e-005 -0.000199521c-4.15264e-005,-0.000199521 6.48849e-006,-0.000266677 -0.000265055,-0.000776024 -0.00018622,-0.000362058 -0.000462305,-0.000672857 -0.000803924,-0.000941805 -0.000221582,-0.000193357 -0.000468794,-0.000365302 -0.000726387,-0.000526866l-3.76333e-005 -2.3683e-005 -3.86065e-005 -2.23853e-005c-0.000202117,-0.000118415 -0.000404558,-0.00023683 -0.000606674,-0.000355245l-0.00106444 -0.000623544 -0.00115592 0.000225475 -0.000541789 -0.000477877 0.000257269 -0.000133663 0.000435378 -0.000221906 0.000548602 -0.00191248 0.000144045 3.27669e-005c-8.56481e-005,-0.00010414 -0.000691998,-0.00135058 -0.000691998,-0.0014106l0 -0.000470416 0.000178434 1.00572e-005 0.000349405 -0.00415718 0.000207632 -1.68701e-005 -0.00164905 -0.00185993 -8.20794e-005 0.00016351 -0.00320759 -0.000984629 5.28812e-005 -0.000114522c-0.00161499,0.000965163 -0.00187842,0.00080652 -0.00374613,0.000328642 -0.00145829,-0.000373413 -0.000665395,-0.00025662 -0.00156989,-0.000793543 -0.000546656,-0.000325073 -0.000269272,-2.3683e-005 -0.000863294,-0.000145018 -0.000523946,-0.00010706 -0.000175514,-0.000207956 -0.000738066,-0.000330589l-1.16793e-005 0.000248509 -0.00311285 -9.95984e-005 1.20037e-005 -0.000242994 -0.000345837 0 0 -0.000564174c0,-1.45991e-005 0.00120718,-0.00081171 0.00142844,-0.000997606 0.000473011,-0.000397745 0.000807817,-0.000637819 0.0012393,-0.00105762 0.00113646,-0.00110531 0.00188069,-0.000766291 0.00424931,-0.000766291l0.00180737 -0.00123281 -7.78619e-005 -8.37016e-005c0.00190437,0 0.00314335,-0.000124255 0.00344604,-0.00142098 0.000348432,-0.0014917 0.000946022,-0.00177655 0.00301001,-0.00177687zm0.00645605 0.0624193l0 0.000592075c0,0.000210227 0.000345837,0.000271543 0.000345837,0.00122276 0.000198548,8.56481e-005 0.000807168,0.000445111 0.000807168,0.000658582l3.24425e-007 0.00300936c0,0.00036368 -0.000807493,0.00051032 -0.000807493,0.000846424l0 0.00131652 0.000249158 4.86637e-006 -3.76333e-005 0.00131587 -0.000211525 -4.21752e-006 0 0.00225735c0,0.000294253 0.000207307,0.000266353 0.000461332,0.000376333l0.000153128 0.000878217 0.000193033 -3.2118e-005c0,0.000366275 -0.000931099,0.00191021 -0.00113451,0.00208443 -0.000666693,0.000571312 -0.0011715,0.000931099 -0.0011715,0.00205361l-0.000245914 -7.52665e-005 -0.000708868 0.00153485 0.000147613 4.5095e-005c-0.000354272,0.000153128 -0.00195985,0.00230504 -0.00195985,0.00263335l3.24425e-007 0.00169285c0,0.000345837 0.000345512,0.000218662 0.000345512,0.000564499l0 0.000658258c0,0.000378928 -0.000984304,0.000604728 -0.00126818,0.00159876 -0.00176974,0 -0.00119778,-0.00252986 -0.00152252,-0.00383665 -0.000130743,-0.00052719 -0.000912606,-0.0011543 -0.000636197,-0.0019618 0.000130094,-0.000378279 0.000334157,-0.00184241 0.000660204,-0.00191346l-0.000139827 -1.94655e-005 0.000643983 -0.00307814 -0.000503183 -0.000194979c-9.73274e-007,-0.00146251 -0.00212952,-0.00315179 -0.00155237,-0.00445565 0.000265704,-0.000600834 0.0016776,-0.000553144 0.00197412,-0.00140541 0.000107385,-0.000307879 3.37402e-005,-0.00111699 2.98471e-005,-0.00148003 -9.73274e-006,-0.000957702 0.000354272,-0.000827932 0.000354272,-0.00112186l0 -0.00141092c0,-0.000173567 -0.00104075,-0.00144401 -0.00115301,-0.00178693 7.13734e-006,-7.1049e-005 2.07632e-005,-0.000139503 3.95798e-005,-0.000205361 0.000200494,2.75761e-005 0.000402935,4.41218e-005 0.000607972,4.41218e-005 0.000545033,0 0.00110596,-0.000102518 0.0016338,-0.000217689 0.000176811,-3.2118e-005 0.000352325,-7.04001e-005 0.000524595,-0.00011582l0.00104822 -0.000276734 7.29955e-005 -0.000102843c0.000553793,-0.000224177 0.00103783,-0.000565797 0.00143655,-0.000979114l4.02287e-005 -4.15264e-005 0.000527839 0 0.000754936 -0.000672208zm-0.0368926 -0.0649582c0.00121173,0 0.00136031,0.000149884 0.00210097,-0.000261162 0.000750719,-0.000416237 0.00119648,-0.000281276 0.00170031,-0.000494099 0.000525892,-0.000222231 0.00221517,-0.00150176 0.00277026,-0.00150176l0.000576503 0c0.00101253,0 9.21366e-005,0.00188069 0.00299736,0.00188069 0.000191735,0.000584938 0.000858752,0.000161563 0.00169804,0.000872053 0.000473984,0.000401313 0.000811386,0.000859725 0.0014265,0.00109364 0.0018463,0.000702704 0.00199975,0.000314043 0.00321667,0.00179634l-9.14877e-005 -6.71559e-005 -0.00082047 0.000742284 2.95226e-005 0.000311772 0.00403617 0.000859725 -4.12019e-005 0.000128148c0,0.000784134 -0.000298795,0.00075007 -0.000833447,0.00120167 -0.000898332,0.00075818 -0.000421103,0.000328318 -0.00147354,0.000489881 -0.000990144,0.000151831 -0.00190956,0.00112608 -0.00241988,0.00169415 3.24425e-007,0.00182002 -0.000408775,0.00161726 -0.00164321,0.00260967 -0.000997606,0.000802302 -0.00094732,0.00218565 -0.00181548,0.00237479l3.24425e-007 0.00122276c0.000287765,6.2614e-005 0.000706272,0.00134052 0.000714707,0.00159909 2.27097e-005,0.000701406 -0.000715032,0.00133858 -0.000715032,0.00159844l3.24425e-007 0.000376333c0,0.000781863 0.00195985,0.00185344 0.00195985,0.00216294l0 0.000752341c0,0.000293929 -0.000206983,0.000266353 -0.000461332,0.000376333l0.0001129 3.08203e-005 -0.00088503 0.00214185 0.000270246 0.000542762c-0.00138594,0.000430511 -0.00275696,0.000910984 -0.00410722,0.00140346l-0.000679994 0.000248185 -0.000186869 0.00020309 -0.000256944 6.00186e-005 -0.000382821 0.000243643c-9.27854e-005,4.76904e-005 -0.000191735,9.2461e-005 -0.000285169,0.000137556l-3.40646e-005 1.65457e-005 -3.34157e-005 1.71945e-005c-0.0012101,0.000621598 -0.0024228,0.00126071 -0.00358165,0.0019459l-0.000651769 0.000385092 -3.82821e-005 7.332e-005c-8.24039e-005,4.15264e-005 -0.00016351,8.43504e-005 -0.000243318,0.000128797l-6.78047e-005 3.76333e-005 -6.52094e-005 4.08775e-005c-0.000231964,0.000145342 -0.000449653,0.000303661 -0.000650796,0.000475282 -0.00071633,0.000366924 -0.00136648,0.000816252 -0.00195206,0.00131716l0 -0.000608945c0,-0.000285818 0.00020017,-0.000319234 0.000461007,-0.000376008l0 -0.00178693c0.000256944,-5.61255e-005 0.000345837,-2.20609e-005 0.000345837,-0.000282249l0 -0.000846424 -0.000153453 1.10304e-005 -0.000132041 -0.0012127 0.000285494 -2.10876e-005 0 -0.000187842c-0.00109753,-0.000239101 -0.000557037,-0.00209578 -0.00115301,-0.0028212l0.000749421 -0.00224632c0.000196926,-0.00012101 0.000403584,-9.31099e-005 0.000403584,-0.000387363l0 -0.0014106c0,-0.000573258 -0.00167338,-0.000803275 -0.00214282,-0.0011676 -0.000278356,-0.000216067 -0.000939534,-0.00173178 -0.000969705,-0.00202992l-9.14877e-005 -0.00012101 0.00119713 -0.000599861 0.000151506 -0.00351806 0.000238777 8.75947e-006 -0.00129478 -0.00121594 0.000132365 -0.000128148 0.000816577 -0.000262135c2.5954e-006,-0.000809439 -0.00102032,-0.00102194 -0.00153258,-0.00184598 -0.000450301,-0.00072444 -0.00122697,-0.000889248 -0.00215418,-0.00125195l-0.000789325 0.000672208 -0.00273263 -0.000792569 6.32628e-005 -0.000161563c-0.00139697,0 -0.00415036,0.000139503 -0.00415036,0.000846099l0 0.000188166c0,2.91982e-005 0.000652742,0.00138562 0.000691673,0.00150468 -0.000141449,0.000432458 -0.00115301,0.000929152 -0.00115301,0.00131652l3.24425e-007 0.000658258c0,0.000420454 0.000370493,7.59154e-005 0.000458088,0.000849019 8.56481e-005,0.000755909 6.68315e-005,0.000429214 0.000233261,0.000937912 -0.000666368,0.000398718 -0.00127239,0.000833447 -0.00222588,0.00100572 -0.00100604,0.000181678 -0.00154394,0.000646254 -0.00191021,0.00126299 -0.000657284,0.00110759 -0.000475282,0.000850641 -0.000475282,0.00243383 0,0.000909038 0,0.00181808 0,0.00272744 0.000771806,0.000146316 0.00195985,0.000701082 0.00195985,0.00131652l0 0.000376008c0,0.000509996 -0.000321505,-7.46177e-005 -0.00045095,0.000666693 -7.1049e-005,0.000409424 9.99228e-005,0.000498316 -0.000116144,0.000845775 -6.13163e-005,9.83007e-005 -0.000870107,0.00104335 -0.00100377,0.00115625 -7.29955e-005,6.16407e-005 -0.000947969,0.00102259 -0.00103719,0.001129 -0.000172269,0.000205685 -0.000203739,0.000568068 -0.00019725,0.000946022 -0.00031599,-0.000159941 -0.000646903,-0.000299444 -0.000987873,-0.000421752l-0.00019433 -6.97513e-005 -0.000408451 -9.11633e-005c-0.000291333,-0.000195952 -0.000599537,-0.000375035 -0.000920068,-0.000537896l-2.40074e-005 -1.23281e-005 -2.49807e-005 -1.16793e-005c-0.00058072,-0.000282249 -0.00120491,-0.000515186 -0.00183267,-0.000716654l-1.97899e-005 -6.48849e-006 -0.00119583 -0.000367249 -0.000294578 -0.000282574 -0.00210811 -0.000571636 -0.000830527 0 -0.000260837 -4.70416e-005c-0.000134312,-4.05531e-005 -0.000224826,-5.32056e-005 -0.000405531,-8.92168e-005l-2.07632e-005 -3.8931e-006 -2.07632e-005 -4.21752e-006c-4.99614e-005,-9.08389e-006 -9.34343e-005,-1.78434e-005 -0.000132365,-2.5954e-005l0.000555415 -0.00143039 0.000171945 4.02287e-005c-0.000160266,-0.000178434 -0.000806844,-0.000879515 -0.000806844,-0.00112835l0 -0.000282249c0,-0.00029328 0.000362707,-0.000165132 0.000353623,-0.00112186 -3.56867e-006,-0.00040034 3.34157e-005,-0.000952835 0,-0.00133014 -4.9637e-005,-0.000558984 -0.000978465,-0.00164418 -0.000353623,-0.00178012l0 -0.000282249c-0.000135609,-2.95226e-005 -0.00311318,-0.00179893 -0.00311318,-0.00216294l0 -0.000470416c0,-0.000216067 0.000449328,-0.000511293 0.000691998,-0.000564174l0 -0.000940507c-0.000702379,-0.000152804 0.000117766,-0.00253927 -0.00368936,-0.00253927l-0.00027057 -0.000355894c-0.00175352,-2.01143e-005 -0.00182716,-0.000105762 -0.00308333,-0.000293604 -0.000272841,-4.12019e-005 -0.00263627,-0.000667017 -0.00264114,-0.000667017l-0.00403519 0c-6.48849e-007,0 -0.00141903,0.000384768 -0.00149884,0.000564174 -0.000371142,-2.53051e-005 -0.000691673,-0.000168376 -0.000691673,-0.000470091l0 -0.000188166c0,-0.000354272 0.00212628,-0.00152188 0.00254608,-0.00168474 0.000481446,-0.000186544 0.00103881,-0.000475607 0.00170907,-0.000486637 0.000561579,-9.40831e-006 0.00197056,0.000211849 0.00197056,-0.000273814l0 -0.000281925 0.00149884 0c0.00101642,0 0.000962568,-0.000906767 0.00183495,-0.00104238 0.00103686,-0.000161239 0.000182002,-0.000279978 0.00127661,-0.000292307 0.00104854,-1.23281e-005 0.000683238,0.000300093 0.00115398,0.000300093l0.00253635 0c0.000323127,0 0.000139827,-0.000278681 0.00138756,-0.000279005 0.000880164,0 0.000644632,-3.47134e-005 0.00111959,-0.000402935 0.000575205,-0.000446084 0.00123119,-0.000385741 0.00175838,-0.00119907l0.00103783 -3.24425e-007 0.00185149 -0.00150144 -0.000121984 -9.7003e-005c0.0012406,0 0.00230569,0.00109753 0.00230569,0.00159876l0 0.000282249 0.000345512 0c5.32056e-005,0 0.00159812,0.000672532 0.00299541,0.000660204 0.0012286,-1.10304e-005 0.00246271,-1.94655e-006 0.00369163,-1.94655e-006l-9.08389e-005 6.84536e-005 0.0013814 0.00122405 5.90453e-005 -0.000118415 0.00675809 -0.00316606 7.78619e-005 0.000110953c0.000102194,0.000230017 0.000132365,0.000282249 0.000576503,0.000282249l0.00230601 0c0.000315665,0 0.00144823,-0.00106119 0.00161401,-0.00131684l0.00299736 -0.000564174zm0.0112601 0.0371158c-0.000144045,0.000592724 -8.56481e-005,0.00107936 0.000211525,0.0019605 0.000315665,0.000937263 0.000427267,0.00228135 0.0010122,0.00312421 0.000428241,0.000616731 0.000399042,0.000633277 0.00076694,0.00134928 0.000216067,0.000421103 6.32628e-005,0.000336753 0.000135934,0.000829554 9.27854e-005,0.000624517 0.00033286,0.000287116 0.00033286,0.000668964l0 0.000631655c-0.000877569,-0.000819497 -0.00174281,-0.00164808 -0.00258599,-0.00248963 -0.000886653,-0.000890546 -0.00187809,-0.00187907 -0.00262135,-0.0028598l-0.000568068 -0.000749421 -0.000102843 -2.62784e-005 -0.00040034 -0.000782837 -8.88923e-005 -0.000127174c-0.000146964,-0.000210876 -0.000295551,-0.000440893 -0.000397096,-0.000669612 -8.75947e-006,-1.97899e-005 -2.72517e-005,-6.32628e-005 -2.82249e-005,-8.56481e-005 0,-0.000233586 8.27283e-005,-0.000468145 0.000200819,-0.000686158 5.12591e-005,2.27097e-005 0.000102843,4.41218e-005 0.000155399,6.52094e-005l2.88738e-005 1.13549e-005 2.91982e-005 1.10304e-005c0.000536598,0.000200819 0.00110175,0.000322803 0.00169447,0.000322803 0.000462305,0 0.000474633,-1.58968e-005 0.000754287,-6.06674e-005l6.22895e-005 -1.00572e-005 3.47134e-005 -6.81292e-006c0.000136583,-2.43318e-005 0.000268948,-5.12591e-005 0.000402611,-8.66214e-005l0.00010998 -2.88738e-005 0.000106411 -3.63356e-005c0.000253051,-8.56481e-005 0.000504805,-0.000175514 0.000754287,-0.000268624zm-0.00345772 0.027786l3.76333e-005 0.00130678c-0.000257269,5.61255e-005 -0.000346161,2.23853e-005 -0.000346161,0.000282574l0 0.000376008 0.000150533 1.88166e-005 -0.000174216 0.000933045 -9.18122e-005 0.00158709c0,0.000419481 0.000461332,0.000145667 0.000461332,0.000564499l3.24425e-007 0.00103459c0,0.000312421 -0.000732226,0.000666044 -0.000959972,0.000912931 -0.00063717,0.000689727 0.000152804,0.00103848 0.000152804,0.00125033l0 0.00300936 -0.000178434 -1.20037e-005 -0.000288089 0.00284845 -0.000225475 -1.5248e-005 0 0.00122276c0.00122892,0.00026765 7.72131e-005,0.00134863 0.00134117,0.00229174 0.000400664,0.000298795 0.000748123,0.000522648 0.0009444,0.000922339 0.000164159,0.000333509 0.000349081,0.000938885 0.000712112,0.00101804 0,0.000454194 -0.000579747,0.00144693 -0.000806195,0.00178758 -0.000177785,0.000267975 -0.000596292,0.000475607 -0.000645281,0.000689727 -0.0001129,0.000495721 0.000413641,0.000290036 0.000413641,0.000720547l3.24425e-007 0.00159876c0,3.24425e-005 -0.000743906,0.00143169 -0.00079776,0.00169999 -9.57053e-005,0.000473984 -9.40831e-006,0.00178336 -9.40831e-006,0.00234364l-0.000763047 0.000509996c-4.37973e-005,0.00105762 -4.83393e-005,0.00215548 -4.37973e-005,0.00325236 3.24425e-006,0.000644632 0.000145667,0.00112673 -0.000252727,0.00148651 -0.000864592,0.00078089 -0.000242021,0.000155399 -0.000651445,0.00106736 -0.000504156,0.00112316 -0.00123152,0.00119615 -0.00173956,0.00187258 -0.000637819,0.000849344 -0.000189788,0.00207502 -0.00139146,0.00215645 -0.000446084,-9.7003e-005 -0.00103751,-0.0010122 -0.00103751,-0.00122276l0 -0.00112835c0,-0.000121335 0.000274463,-0.000252402 0.00035265,-0.00102907 3.92554e-005,-0.000392878 0.000164808,-0.000514213 0.000395474,-0.00089963 0.000444462,-0.000742932 0.000289387,-0.0011861 0.000289387,-0.00230341 0.000249158,-0.000107385 0.000576178,-0.000163834 0.000576178,-0.000470091l0 -0.0025396c0,-0.000464576 -0.00082631,-0.000389958 -0.000917148,-0.00122633 -0.000106411,-0.000972949 -0.000294578,-0.000473984 -0.000346486,-0.00169285 -3.79577e-005,-0.000890221 -0.00122697,-0.00193519 -0.00196439,-0.00225313l0 -0.000846424c-0.000254024,-0.000109656 -0.000461332,-8.20794e-005 -0.000461332,-0.000376008l0 -0.000658906c0,-0.0002962 0.00251559,-0.00198515 0.0012685,-0.0022567l0 -0.00122276c-0.000525243,-0.000114197 -0.000461332,-0.000409099 -0.000461332,-0.000752341l0 -0.000752341c0,-0.000965812 -0.000948293,-0.00267877 0.000345837,-0.0033857 -0.000165781,-0.000507725 -0.000686158,-0.000956079 -0.000712436,-0.0015063 -2.91982e-005,-0.000607323 0.0003666,-0.000834096 0.0003666,-0.00178563l0 -0.000752341c0,-0.0013668 -0.000691673,-0.000334806 -0.000691673,-0.00216294l-0.000436351 -0.000220609 -2.46563e-005 -0.00438752c0.000233261,-5.06102e-005 0.000328318,-2.75761e-005 0.000343566,-0.000217689l0.000430187 7.59154e-005 0.000815928 -0.000268299c0.000157022,-5.15835e-005 0.00033805,-8.59725e-005 0.000503183,-0.0001129 0.000292955,-4.80148e-005 0.000595319,-7.72131e-005 0.000892817,-0.00010122l0.000899954 -7.332e-005 0.000508049 -0.000357192 0.000468145 -0.000117442 0.000412668 -0.000316963c0.000368871,-0.000126201 0.000733524,-0.000261162 0.00108844,-0.000409099l7.52665e-005 2.98471e-005 0.00132008 -0.000625166c0.000285169,-0.000134961 0.000569041,-0.000272517 0.000850966,-0.000412344zm-0.00832701 -0.00745333l0.000823065 -0.000590453c4.7366e-005,-0.00141968 0.000477229,-0.00102745 0.000517133,-0.00183332 7.36444e-005,-0.00147548 0.000388012,-0.00123087 0.000458088,-0.00188361 0.000285818,-0.00265152 4.24996e-005,-0.00167565 0.00090774,-0.0030324l0.000288413 0.000257918 0.000188815 7.81863e-005 0.000149235 0.000136258c0.000425645,0.000388336 0.000866214,0.000767589 0.00130646,0.00114489l1.88166e-005 1.58968e-005c0.000599212,0.000504156 0.00231477,0.00198937 0.00313848,0.00300612l-0.000388661 0.000148911 -0.00016643 0.000198872c-1.81678e-005,-3.24425e-007 -3.63356e-005,-3.24425e-007 -5.45033e-005,-3.24425e-007 -0.000512591,0 -0.000539194,-1.42747e-005 -0.00115106,0.000148586 -0.000432782,0.000114197 -0.000376657,8.49993e-005 -0.000728009,0.000252727l-0.00530759 0.00195174zm-0.0138026 -0.00311188c5.32056e-005,9.86251e-005 9.63541e-005,0.000207632 0.000127823,0.000327669 0.000193357,0.000739688 -0.000672857,0.00182392 -0.000672857,0.00279816l-0.000457763 0.000193357 -0.00158773 0.00552657 -0.000372439 0.000210227c-3.24425e-006,0.000906118 -0.000709192,0.00208281 -0.000705299,0.0029023 3.8931e-006,0.000691673 0.000233586,0.00272744 0.000702055,0.00282931l0.000187842 0.00172172 0.00027349 -2.88738e-005c0,0.00127661 0.00097522,0.00148684 -0.000122308,0.00290976 -0.000919419,0.00119226 6.81292e-006,0.00213536 6.81292e-006,0.00301553 -0.000283547,6.16407e-005 -0.00103751,0.00152188 -0.00103751,0.00159844l0 0.000376333c0,0.000512266 0.000705624,0.000135934 0.000702379,0.00130808 -1.62212e-006,0.000632952 -1.33014e-005,0.00126104 -3.24425e-006,0.00189561 1.94655e-005,0.00124709 -0.000360436,0.000505129 -0.000364329,0.00158384 -1.94655e-006,0.00061446 0.000245265,0.00148132 -0.000334806,0.00160752l0 0.000282249c0.000446733,9.73274e-005 0.000612514,0.00423634 0.00068486,0.00498998 6.61826e-005,0.000690051 0.000341619,0.000442191 0.000662151,0.000870431 4.70416e-005,6.22895e-005 0.000429538,0.00104497 0.000435378,0.00105827 0.000411046,0.000966785 -0.000565472,0.00148003 -0.000629384,0.00210973l0.000671883 0.00104303 7.98085e-005 7.55909e-005 -0.00102551 0.000487286 -7.20223e-005 -0.00010122c-5.19079e-005,-0.000157995 -0.00172951,-0.00151928 -0.00172951,-0.00188101l0 -0.000658258c0,-0.000418832 0.000461007,-0.000145342 0.000461007,-0.000564174l0 -0.00103459c0,-6.22895e-005 -0.00182878,-0.00191865 -0.00195952,-0.0019751l0 -0.000846099c-0.000687456,-0.000296849 -0.000813981,-0.00310507 -0.000806844,-0.00413869 9.40831e-006,-0.00133987 -0.000692322,-0.00303045 -0.000692322,-0.00413739l-0.000257269 3.60111e-005 -0.00065988 -0.00312421 -0.00166819 -0.0031852 -0.000181353 6.61826e-005 0 -0.00122276 0.000122308 7.13734e-005 0.00104465 -0.00119161c-0.00040034,-0.000478526 -0.00111732,-0.00131749 -0.00138367,-0.00180672 -0.000532056,-0.000979762 0.000216716,-0.0023112 0.000216716,-0.00252759l0 -0.00103459c0,-0.000373413 -0.00114846,-0.000667341 -0.00164516,-0.00110337 -9.18122e-005,-8.07817e-005 -0.00027057,-0.000267975 -0.000459061,-0.000484042l0.000108682 -0.000216716c0.000318585,-0.00040618 0.000505778,-0.000859725 0.000505778,-0.00136291 0,-0.000241372 -4.15264e-005,-0.000470091 -0.000120686,-0.00068778 3.63356e-005,-0.000170972 4.99614e-005,-0.000350054 0.000233586,-0.000653716 0.000175189,-0.000289387 0.00111245,-0.0017759 0.00129283,-0.00195531 0.000751692,-0.000749421 0.000776673,-0.00113484 0.000775699,-0.00245233 0.000794192,-0.000232288 0.00158319,-0.000475282 0.00236733,-0.000729307 0.00237673,-0.000767264 0.00470578,-0.00163672 0.0069615,-0.00262524l0.000164483 -7.20223e-005 0.000159617 -9.37587e-005zm-0.0114606 -0.00437876c0.000134312,-9.89495e-005 0.000308852,-0.00024267 0.000308852,-0.000959648 0.000261162,-5.67743e-005 0.000461332,-9.019e-005 0.000461332,-0.000376008l0 -0.00168733 0.000452572 -0.00161207 0 -0.000217365 0.000536598 -0.000852588 -8.30527e-005 -0.00048469c0.000651769,-0.00133241 0.00123087,-0.00269402 0.00169025,-0.00407834l4.21752e-006 -1.33014e-005c0.000204063,-0.000628411 0.000426618,-0.00133825 0.000581693,-0.00204452l0.00020017 0.000182975 0 0.000372439 0.000878217 0.000522648c0.000192059,0.000221582 0.000378928,0.000468469 0.000552495,0.000687131 0.000345512,0.000443813 0.000697513,0.000885355 0.0010599,0.00132073l0 0.000121335 0.000156373 0.000374386c4.70416e-005,0.000113224 0.000102843,0.000220933 0.000158319,0.000331238 1.84922e-005,3.666e-005 4.05531e-005,8.01329e-005 5.77476e-005,0.000121984l0 0.000412668 0.000141449 0.00035784c0.000157346,0.000398393 0.000303337,0.000810413 0.000402287,0.00122146 4.28241e-005,0.000182002 7.75375e-005,0.000377955 8.33771e-005,0.000568716 -2.27097e-006,1.5248e-005 -4.86637e-006,3.08203e-005 -7.46177e-006,4.57439e-005 -1.81678e-005,0.000116793 -3.47134e-005,0.000233261 -4.5095e-005,0.000349405 -8.82435e-005,0.000514862 -0.000212823,0.00109428 -0.000432458,0.00157573 -0.000106736,0.000218338 -0.000255647,0.00045971 -0.000458088,0.000628086l-0.000366924 0.000304959 -4.31485e-005 7.91596e-005 -0.00161888 0.00081463 -0.000112251 0.000148586c-0.000169999,7.23467e-005 -0.000336753,0.000150857 -0.000499614,0.000235532l-2.1412e-005 1.10304e-005 -2.10876e-005 1.13549e-005c-0.000278032,0.000150209 -0.000546007,0.000313719 -0.000796138,0.000494423l-8.49993e-005 3.666e-005c-0.00105243,0.000430511 -0.00211492,0.000858428 -0.0031865,0.00126363l5.12591e-005 -0.000268624zm-0.00434177 0.00700984l-0.000372439 0.00344182c3.17936e-005,0.000118415 6.39117e-005,0.000211525 8.49993e-005,0.000279005 2.1412e-005,5.93697e-005 3.2118e-005,0.00010998 3.2118e-005,0.00014372 0,6.78047e-005 -6.39117e-005,0.00020309 -0.000181029,0.00039742 -2.1412e-005,3.40646e-005 -4.24996e-005,6.78047e-005 -6.39117e-005,0.000101545 4.24996e-005,6.78047e-005 7.46177e-005,0.00012685 9.57053e-005,0.00018622 2.1412e-005,5.90453e-005 3.2118e-005,0.00010998 3.2118e-005,0.00016059 0,6.74803e-005 -1.0706e-005,0.000118415 -2.1412e-005,0.00016059 -1.0706e-005,4.21752e-005 -2.10876e-005,8.46748e-005 -4.24996e-005,0.000135285l0.000553468 0.000989495c0.000127823,8.46748e-005 0.000234235,0.000152155 0.00032994,0.000211525 9.57053e-005,5.90453e-005 0.000223529,0.000118415 0.000393852,0.000185895 6.35872e-005,3.37402e-005 0.000117117,7.62398e-005 0.000169999,0.000135285 5.35301e-005,5.93697e-005 7.46177e-005,9.31099e-005 7.46177e-005,0.00010998 0,1.68701e-005 -3.17936e-005,6.78047e-005 -9.57053e-005,0.000135285 -5.32056e-005,7.62398e-005 -0.000106411,0.000152155 -0.000148911,0.00023683l-0.00230958 0.00233391c-0.000308528,0.00031307 -0.000606674,0.000541465 -0.000872702,0.00069362 -0.000266028,0.00014372 -0.000553468,0.000219635 -0.000840909,0.000219635 -0.000287116,-1.68701e-005 -0.000510644,-5.90453e-005 -0.000638468,-0.000135285 -0.000138205,-7.59154e-005 -0.000244941,-0.000202765 -0.00032994,-0.000388985l-0.000500263 -0.000862645 -0.000276734 -0.000346486c-8.49993e-005,-0.000262135 -0.000148911,-0.000515835 -0.000191411,-0.00074423 -4.24996e-005,-0.000228395 -6.39117e-005,-0.000439595 -6.39117e-005,-0.00061738 0,-0.000169025 1.0706e-005,-0.00032118 2.1412e-005,-0.000456465 1.03816e-005,-0.000144045 2.10876e-005,-0.000304635 4.24996e-005,-0.00049053l-0.000117117 -0.000388985 0.000308528 -0.000651445c0,-0.000109656 2.1412e-005,-0.000388661 6.39117e-005,-0.000837016 4.24996e-005,-0.00044803 6.39117e-005,-0.00077797 6.39117e-005,-0.000989495l-0.000127823 -0.00039742 0.000340646 -0.00066799 -0.000212823 -0.00044803c1.0706e-005,-5.09347e-005 3.17936e-005,-0.00010998 5.32056e-005,-0.000177785 2.1412e-005,-5.93697e-005 3.17936e-005,-0.00012685 3.17936e-005,-0.000194655 -2.10876e-005,-0.00010122 -5.32056e-005,-0.000169025 -0.000106411,-0.000202765 -5.32056e-005,-2.53051e-005 -0.000148911,-4.24996e-005 -0.000297822,-4.24996e-005l-0.000181029 0c-0.000106411,0 -0.000191411,-1.68701e-005 -0.000266028,-5.06102e-005 -7.46177e-005,-3.37402e-005 -0.000148911,-0.000101545 -0.000234235,-0.000202765l-0.000255322 -0.000245265c-0.000159617,-0.000101545 -0.000298146,-0.00016935 -0.000404558,-0.000211525 -0.000106411,-4.21752e-005 -0.000223529,-7.62398e-005 -0.000372439,-0.00010998 -0.000127823,-8.43504e-005 -0.000202117,-0.000169025 -0.000244616,-0.000245265 -4.24996e-005,-8.43504e-005 -6.39117e-005,-0.000169025 -6.39117e-005,-0.0002537 0,-6.74803e-005 0,-0.000118415 1.0706e-005,-0.00016059 1.0706e-005,-4.24996e-005 3.17936e-005,-7.62398e-005 5.32056e-005,-0.00010998 0,-0.00017746 7.42932e-005,-0.000338375 0.000244616,-0.00045679 0.000170323,-0.00012685 0.000393852,-0.000202765 0.000691998,-0.000236506l0.00102161 -0.00039742 0.000191411 -0.00027057 0.000468469 -0.00034681 0.000180705 -0.00111635 0.000319558 -0.00061738 -0.000255647 -0.000448355 0.000500263 -0.00334871 0.000276734 -0.000515835 -0.000212823 -0.000498965c0.000106411,-0.0002112 0.000181029,-0.00043116 0.000212823,-0.00066799 4.24996e-005,-0.000228395 6.39117e-005,-0.000482095 6.39117e-005,-0.000769535l0 -0.000439595c2.10876e-005,-0.000135285 0.000117117,-0.000558335 0.000266028,-0.0012685 0.000159617,-0.00071049 0.000276734,-0.00130224 0.000361733,-0.00178434l0.000181029 -0.000245265 -0.000117117 -0.00066799c8.53237e-005,-0.00016935 0.000148911,-0.00034681 0.000212823,-0.0005499 6.39117e-005,-0.00019433 0.000138529,-0.000465225 0.000223529,-0.00081171 6.39117e-005,-0.00038055 9.57053e-005,-0.000659555 0.000117117,-0.000828905 2.1412e-005,-0.00017746 5.32056e-005,-0.000346486 9.57053e-005,-0.0005074l0.000191735 -0.000549575 0 -0.000465225c0.000106411,-0.000600186 0.000244616,-0.0012007 0.000414939,-0.00180121 0.000181029,-0.000600186 0.000372439,-0.00118383 0.000585262,-0.00174184l0 -0.00060051 0.000244941 -0.00049053c-8.49993e-005,-0.00020309 -0.000159617,-0.00038055 -0.000223529,-0.000532705 -5.32056e-005,-0.00016059 -0.000106411,-0.00031307 -0.000148911,-0.00045679 -0.000191735,-0.00028744 -0.000415264,-0.000549575 -0.000670586,-0.00079484 -0.000266028,-0.0002537 -0.000542762,-0.00047366 -0.000861996,-0.00066799l-0.000181029 -0.00066799 -0.000564174 -5.09347e-005 -0.000659555 -0.0010148 -5.32056e-005 -0.000693295c9.57053e-005,-0.00021996 0.000223204,-0.000388985 0.000351027,-0.00052427 0.000138529,-0.000135285 0.000319234,-0.000245265 0.000553468,-0.00034681l0.00139405 -0.00136161 0.000968732 -0.00032118c0.00032994,-0.0002962 0.000649174,-0.000515835 0.000936614,-0.000642685 0.000287116,-0.000135285 0.000574556,-0.00020309 0.000840584,-0.00020309 6.39117e-005,0 0.000191735,1.68701e-005 0.000372439,5.06102e-005 8.53237e-005,1.71945e-005 0.000149235,3.40646e-005 0.000191735,5.09347e-005l0.000840584 0.000152155 0.000681292 0 0.000904496 0.000245265 0.000255322 0.000245265 0.00187323 0.000575205c0.000553468,0.00017746 0.00103232,0.000363356 0.00141546,0.000549575 0.000383145,0.00019433 0.000723791,0.00041429 0.00101123,0.000659555l0.000872702 0.000194655c0.00032994,0.000118415 0.000627762,0.0002537 0.00089379,0.00041429 0.000255647,0.000152155 0.000489557,0.000355245 0.000702379,0.000608621l0.000457763 4.24996e-005 0.000564174 0.00052427 0.000468145 0 0.00106444 0.00141222 0.000649174 0c0.00191573,0.0014544 0.0034269,0.00301066 0.00452313,0.00468502 0.00110694,0.00166592 0.00180932,0.00349243 0.00211784,0.00547142l0 0.00039742c0,1.68701e-005 1.0706e-005,5.06102e-005 3.2118e-005,0.000101545 6.39117e-005,0.00019433 9.57053e-005,0.000372115 9.57053e-005,0.000515835 0,6.74803e-005 0,0.00014372 -1.0706e-005,0.000228071 -1.0706e-005,7.62398e-005 -3.17936e-005,0.00016935 -5.32056e-005,0.00027057l0 0.00076986c0,0.00057488 -9.57053e-005,0.0012007 -0.000297822,0.00186869 -0.000191735,0.00066799 -0.000479175,0.00133631 -0.000851615,0.00201273l-0.000372439 0.00032994c-0.000213147,0.000659555 -0.000564174,0.001226 -0.00106444,0.00169123 -0.000499938,0.00047366 -0.00113873,0.000845451 -0.00193682,0.00113322 -0.000308528,4.21752e-005 -0.000585262,0.00014372 -0.000840909,0.000279005 -0.000244616,0.00014372 -0.000489557,0.000338375 -0.000713085,0.00058364l-0.000808791 0.000473336c-0.00206464,0.00090482 -0.00427819,0.00174216 -0.00666238,0.0025117 -0.00237317,0.000769535 -0.00486377,0.0014544 -0.00746047,0.00204647zm0.000713085 -0.0032981c4.24996e-005,0 0.000106411,8.43504e-006 0.000191411,2.53051e-005 7.46177e-005,1.71945e-005 0.000138529,2.56295e-005 0.000181029,2.56295e-005 0.000808791,0 0.0033844,-0.000879515 0.00770541,-0.00264698l0.000468145 -0.00020309c0.000181029,-0.00016059 0.000415264,-0.000312745 0.000681292,-0.000456465 0.000276734,-0.000144045 0.000585262,-0.000262135 0.000936614,-0.00036368l0.000223204 -0.000295875 0.00127726 -0.00064301 0.000468469 -0.000169025 0.000244616 -0.00044803c0.000457763,-0.00038055 0.000819497,-0.000862645 0.00109623,-0.00143785 0.000266028,-0.00057488 0.000468469,-0.00131068 0.00061738,-0.00220706 0,-5.06102e-005 1.03816e-005,-0.000135285 3.17936e-005,-0.00027057 2.1412e-005,-0.000135285 3.2118e-005,-0.000228395 3.2118e-005,-0.000295875 0,-0.00031307 -4.28241e-005,-0.00067675 -0.000138529,-0.00108261 -9.57053e-005,-0.00039742 -0.000255322,-0.00090482 -0.000489557,-0.0014969l0 -0.000169025c0,-0.00021996 -8.49993e-005,-0.000515835 -0.000276734,-0.000896385 -4.24996e-005,-8.46748e-005 -7.46177e-005,-0.00014372 -9.57053e-005,-0.000194655l0 -0.000473336c-0.000457763,-0.000524595 -0.000968408,-0.00115009 -0.00152188,-0.00186058 -0.000564174,-0.00071049 -0.000883408,-0.00108228 -0.000968732,-0.00113322 0,-0.00030431 -7.42932e-005,-0.00052427 -0.00023391,-0.00066799 -0.000159617,-0.000152155 -0.000425645,-0.00027057 -0.000798409,-0.00034681 -0.00085129,-0.00077797 -0.00164937,-0.00142909 -0.00238387,-0.0019618 -0.000734497,-0.00052427 -0.00140476,-0.00092169 -0.00201143,-0.00119226 -6.39117e-005,-0.000194655 -0.000148911,-0.000355245 -0.000276734,-0.000482095 -0.000127823,-0.000118415 -0.000276734,-0.00018622 -0.000436351,-0.00018622 -2.10876e-005,1.68701e-005 -5.32056e-005,3.37402e-005 -9.57053e-005,4.21752e-005 -4.28241e-005,8.75947e-006 -9.60297e-005,1.71945e-005 -0.000159617,3.40646e-005l-0.00320337 -0.00133631 -3.2118e-005 0.00061738c0.000202117,0.000152155 0.000372439,0.000304635 0.000510969,0.00047366 0.000138205,0.00016059 0.000244616,0.00034681 0.000329615,0.00054114l0.000585586 5.09347e-005 0.000787703 0.000718601c0,0.00020309 4.24996e-005,0.000355245 0.000116793,0.00047366 8.53237e-005,0.00010998 0.000234235,0.000202765 0.000436351,0.00027057 8.53237e-005,0.000101545 0.000202117,0.00023683 0.000351352,0.00042305 0.000500263,0.000642361 0.000744879,0.00111602 0.000744879,0.0014119l0 0.000101545 0 9.31099e-005c0,0.000625815 -0.000234235,0.00163218 -0.000680967,0.00301066 -0.000457763,0.00137816 -0.00108585,0.00284975 -0.00187323,0.00439725l6.39117e-005 0.000372115 -0.000436351 0.000693295 0 0.00052427 -0.000840909 0.00299379 -0.000191411 0.00039742 6.39117e-005 0.000295875 -0.000127823 0.000372115 -0.000872702 0.00455817zm0.0452102 0.00099793l0.000628086 -0.00012685c4.24996e-005,-1.68701e-005 8.49993e-005,-3.37402e-005 0.000138205,-5.93697e-005 5.32056e-005,-2.53051e-005 8.53237e-005,-4.21752e-005 0.000106411,-4.21752e-005 0.000106411,0 0.000202441,3.37402e-005 0.00028744,0.000101545 7.46177e-005,6.74803e-005 0.000138529,0.000152155 0.000181029,0.000245265l0 0.00039742c0,3.37402e-005 2.10876e-005,0.000118415 5.32056e-005,0.000245265 2.10876e-005,0.000135285 5.32056e-005,0.000262135 7.42932e-005,0.000372115 -4.24996e-005,0.0002537 -0.000138205,0.00044803 -0.000297822,0.000583315 -0.000159617,0.00014372 -0.000425645,0.00027057 -0.000798409,0.00038931l-0.0017772 0.000693295 -0.000276734 0.00021996c-0.000500263,0.00044803 -0.00106444,0.000913255 -0.0017029,0.00141222 -0.000627762,0.000498965 -0.00138335,0.00105698 -0.00225605,0.00168279l-0.000500263 0.000152155 -0.000500263 0.00039742c-0.000681292,0.00039742 -0.00131976,0.000752665 -0.00191573,0.00106573 -0.000585262,0.000312745 -0.00117052,0.000600186 -0.00172399,0.000862321l-0.000127823 -5.06102e-005c-0.000351027,0.00021996 -0.000723791,0.000405855 -0.00110661,0.00057488 -0.000383145,0.000160915 -0.000851615,0.00032994 -0.00138367,0.000498965l-0.000319234 0.000245265 -0.000404558 0.000101545 -0.000276734 0.000194655c-0.000414939,3.37402e-005 -0.000808791,7.59154e-005 -0.00117085,0.000135285 -0.000361733,5.90453e-005 -0.000702379,0.000135285 -0.00101091,0.00023683l-0.00028744 -5.09347e-005 -0.000180705 0c-0.000457763,0 -0.000968732,-8.43504e-005 -0.00152188,-0.000262135 -0.000543087,-0.000169025 -0.00117085,-0.000439595 -0.00185214,-0.000803275l-0.000340321 -0.000515835c0,-5.09347e-005 -1.0706e-005,-0.000135285 -3.2118e-005,-0.00023683 -2.10876e-005,-0.00010998 -3.17936e-005,-0.00017746 -3.17936e-005,-0.000211525 0,-0.000152155 1.0706e-005,-0.00028744 4.24996e-005,-0.00041429 3.17936e-005,-0.000118415 8.49993e-005,-0.000228395 0.000138529,-0.00032994l-3.2118e-005 -0.000228395c2.1412e-005,-0.00019433 0.000415264,-0.000490206 0.00117085,-0.000887626 0.000766291,-0.00039742 0.0016922,-0.000778295 0.00279881,-0.00114165l0.000372764 -0.000245265 0.00614071 -0.002258c0.000106411,-5.06102e-005 0.000202441,-8.46748e-005 0.000298146,-0.00010998 9.57053e-005,-2.53051e-005 0.000180705,-3.37402e-005 0.000265704,-3.37402e-005 0.000191735,0 0.00038347,7.62398e-005 0.000596292,0.00023683 0.000202117,0.000152155 0.000308528,0.000279005 0.000308528,0.00038055 0,0.000135285 -6.39117e-005,0.000262135 -0.000202117,0.00038055 -0.000138205,0.00012685 -0.00032994,0.00023683 -0.00057488,0.000338375l-0.000372439 0.00010122 -0.000468145 0.0002962c-0.000340646,3.37402e-005 -0.000585262,9.27854e-005 -0.000755585,0.000169025 -0.000159617,8.46748e-005 -0.000298146,0.00021996 -0.000404558,0.00039742l-0.000212823 0.00027057c2.1412e-005,3.37402e-005 6.39117e-005,7.62398e-005 0.000127823,0.00012685 0.000117117,6.78047e-005 0.000223529,0.000101545 0.000308528,0.000101545 0.000436351,0 0.00114944,-0.000338375 0.00212855,-0.0010148 0.00098982,-0.000676425 0.00147938,-0.00123476 0.00147938,-0.00166592l0 -0.000169025 0 -0.00020309c0,-5.90453e-005 2.1412e-005,-0.000135285 5.32056e-005,-0.00020309 3.17936e-005,-7.59154e-005 7.46177e-005,-0.00016059 0.000138205,-0.000236506 0.000308528,-0.000118739 0.00061738,-0.000245589 0.000904496,-0.000372439 0.00028744,-0.000135285 0.000553468,-0.000262135 0.000776997,-0.00039742 2.1412e-005,-0.000118091 4.28241e-005,-0.000228071 5.32056e-005,-0.00033805 1.10304e-005,-0.000101545 1.10304e-005,-0.000245265 1.10304e-005,-0.00043116 0,-0.000989495 -0.00145829,-0.00270635 -0.00436384,-0.00515024 -0.000542762,-0.000465225 -0.000957702,-0.000828581 -0.00124514,-0.00109104l-0.000223529 -0.000346486 -0.000489557 -0.00020309 -0.00085129 -0.0007611 -0.000372439 -0.00010122c-0.000393852,-0.000380875 -0.000798409,-0.00075299 -0.00121335,-0.00111635 -0.000414939,-0.00036368 -0.000840909,-0.000718925 -0.00127726,-0.00106573l-0.000755585 -0.00116696 -0.000468145 -0.00014372 -0.000553468 -0.000575205 0 -0.00019433c0,-8.46748e-005 -3.2118e-005,-0.000152155 -8.53237e-005,-0.000194655 -5.32056e-005,-5.06102e-005 -0.000127499,-8.43504e-005 -0.00023391,-0.00010122 -0.000393852,-0.00071049 -0.000691998,-0.00137005 -0.00090482,-0.00197056 -0.000202117,-0.000600186 -0.000308528,-0.00113322 -0.000308528,-0.00159812 0,-0.000101545 2.1412e-005,-0.00020309 6.39117e-005,-0.000321505 4.24996e-005,-0.000118415 0.000106411,-0.00023683 0.000180705,-0.00034681l-5.32056e-005 -0.000591751c5.32056e-005,-0.000135285 0.000202441,-0.000414615 0.000415264,-0.00083734 0.000223529,-0.00041429 0.000383145,-0.000752665 0.000489557,-0.00099793l0.000680967 -0.000600186 0.000191735 -0.00056677c0.000702379,-0.00090482 0.00136226,-0.00163218 0.00195823,-0.00216489 0.000606674,-0.00054114 0.00123444,-0.000946996 0.00187323,-0.001226 0.000148911,-0.00016935 0.00032994,-0.00031307 0.000532056,-0.00043992 0.000212823,-0.000118415 0.000500263,-0.000245265 0.000872702,-0.00038055l0.000127823 -0.000245265c0.000872702,-0.000515835 0.00201111,-0.00113322 0.0034269,-0.00186025 0.000244616,-0.000118415 0.000425645,-0.00020309 0.000532056,-0.00027057l0.000649174 -0.00015248 0.000319234 -0.000346486c0.00194752,-0.00071049 0.00357581,-0.00125163 0.00488519,-0.00163218 0.00130905,-0.00038055 0.00238387,-0.00061738 0.00321407,-0.000718925 8.49993e-005,-1.68701e-005 0.000159617,-3.37402e-005 0.000234235,-4.21752e-005 7.42932e-005,-8.43504e-006 0.000138205,-8.43504e-006 0.000202117,-8.43504e-006 0.000414939,0 0.000766291,0.00017746 0.00104303,0.00054114 0.000287116,0.00036368 0.000425645,0.00069362 0.000425645,0.00099793l0 9.31099e-005 -6.39117e-005 -5.09347e-005 0 0.000769535 -6.39117e-005 0.000295875 -3.17936e-005 7.62398e-005c0,0.000118415 1.0706e-005,0.000228395 2.10876e-005,0.000321505 1.0706e-005,0.000101545 1.0706e-005,0.0002112 1.0706e-005,0.00032118 0,0.000101545 -3.17936e-005,0.000228395 -9.57053e-005,0.000372115 -6.39117e-005,0.000152155 -0.000148911,0.000321505 -0.000276734,0.00052427l-0.000564174 0.00027057 -0.000276734 0.000245265c-0.00139405,0.00102324 -0.00285202,0.00195369 -0.0043846,0.00278227 -0.00152188,0.000820145 -0.00296946,0.00146316 -0.00434242,0.00192806 -6.39117e-005,1.68701e-005 -0.000127499,2.53051e-005 -0.000170323,3.37402e-005 -5.28812e-005,8.75947e-006 -0.000127499,1.71945e-005 -0.000202117,1.71945e-005 -0.000148911,0 -0.000319234,-4.24996e-005 -0.000499938,-0.00010998 -0.000191735,-7.62398e-005 -0.000362058,-0.00018622 -0.000532381,-0.000338375l-0.000127499 -0.000295875c0,-0.000135285 3.17936e-005,-0.000262135 9.57053e-005,-0.00038055 6.39117e-005,-0.00012685 0.000159617,-0.0002537 0.000276734,-0.000388985 0.000170323,-0.000101545 0.000372439,-0.00021996 0.000627762,-0.000372115 0.00153258,-0.00088795 0.00230958,-0.00166592 0.00230958,-0.00232548 -0.000414939,8.43504e-005 -0.000894114,0.00027057 -0.00142617,0.000566445 -0.000521675,0.000295875 -0.00114944,0.000735795 -0.00188361,0.00131911l-0.000468469 9.31099e-005 -0.000244616 0.000372115c-0.00104303,0.00081171 -0.00182002,0.00159001 -0.00234137,0.00233391 -0.000521675,0.000735795 -0.000776997,0.00146316 -0.000776997,0.00217332 0,0.000287765 6.39117e-005,0.00058364 0.000202117,0.000896385 0.000138529,0.00031307 0.000340646,0.000659555 0.000606674,0.00104043l0.000276734 0.00054114 0 0.000152155 0 0.00021996c0,0.000169025 9.57053e-005,0.000329615 0.000266028,0.000498965 0.000181029,0.00016059 0.000404558,0.000279005 0.000670586,0.000346486 0.00056385,0.00074423 0.00151117,0.0017759 0.00284131,0.00311221 0.00133047,0.00132755 0.00300125,0.00290068 0.00501301,0.00471876 8.49993e-005,0.00017746 0.000202117,0.000338375 0.000351027,0.000482095 0.000138529,0.000135285 0.000351352,0.000279005 0.00061738,0.00043116 0.00032994,0.000482095 0.000574556,0.000955755 0.000734173,0.00142066 0.000159941,0.00047366 0.000234235,0.00099793 0.000234235,0.00157314 0,0.00028744 0,0.000532705 -1.0706e-005,0.000735471 -1.03816e-005,0.00020309 -3.17936e-005,0.000405855 -5.32056e-005,0.000608945zm0.014336 0.00613941c-0.000138529,-0.000262135 -0.000255647,-0.000498965 -0.000340646,-0.000693295 -8.49993e-005,-0.000194655 -0.000138205,-0.00036368 -0.000159617,-0.00049053l-0.000244941 -0.000228395 -0.00109591 -0.00227487c0,-0.000279005 -5.35301e-005,-0.00055801 -0.000170323,-0.000820145 -0.000117117,-0.000262135 -0.00028744,-0.00052427 -0.000510969,-0.00079484 -0.00028744,-0.00049053 -0.000500263,-0.00099793 -0.000638468,-0.00150533 -0.000138529,-0.000515835 -0.000202441,-0.00104011 -0.000202441,-0.00159001 0,-3.37402e-005 1.0706e-005,-8.43504e-005 3.2118e-005,-0.00016059 2.10876e-005,-7.62398e-005 3.17936e-005,-0.00012685 3.17936e-005,-0.00016059 0,-0.000118415 -4.24996e-005,-0.000228395 -0.000117117,-0.00034681 -6.39117e-005,-0.000118415 -0.000202117,-0.000245265 -0.000383145,-0.00039742 -0.000276734,-0.000608945 -0.000489557,-0.0012685 -0.000638468,-0.00197867 -0.000159617,-0.00071049 -0.000266028,-0.00146316 -0.00032994,-0.002258 2.1412e-005,-6.78047e-005 4.24996e-005,-0.00015248 7.46177e-005,-0.000262135 3.17936e-005,-0.000101545 5.32056e-005,-0.00016935 5.32056e-005,-0.00018622 0,-7.59154e-005 -3.2118e-005,-0.00016059 -8.53237e-005,-0.000245265 -5.32056e-005,-8.43504e-005 -0.000127499,-0.00016059 -0.00023391,-0.000245265 -0.000181029,-0.00081171 -0.00032994,-0.00155594 -0.000436351,-0.0022408 -9.60297e-005,-0.000685185 -0.000149235,-0.00126007 -0.000149235,-0.00172529l6.39117e-005 -0.000862645c-6.39117e-005,-0.000135285 -0.000117117,-0.000245265 -0.000148911,-0.00033805 -3.17936e-005,-9.31099e-005 -4.24996e-005,-0.00016059 -4.24996e-005,-0.000211525 0,-8.46748e-005 1.0706e-005,-0.00017746 4.24996e-005,-0.00028744 3.17936e-005,-0.000101545 8.49993e-005,-0.000262135 0.000148911,-0.000482095 -0.000234235,-0.00016059 -0.000404558,-0.00038055 -0.00052135,-0.000642685 -0.000106411,-0.000262135 -0.000170323,-0.000592075 -0.000170323,-0.000989495 0,-0.00019433 1.0706e-005,-0.000354921 2.10876e-005,-0.000473336 1.0706e-005,-0.00010998 2.1412e-005,-0.000228395 4.28241e-005,-0.00034681 0,-3.37402e-005 -1.0706e-005,-9.31099e-005 -3.2118e-005,-0.00018622 -2.10876e-005,-8.43504e-005 -2.10876e-005,-0.00016059 -2.10876e-005,-0.0002112 0,-0.00010998 2.10876e-005,-0.000262135 8.49993e-005,-0.00043992 2.1412e-005,-5.06102e-005 3.2118e-005,-8.43504e-005 3.2118e-005,-0.00010122l-0.000117117 -0.00069362c1.03816e-005,-0.000169025 3.17936e-005,-0.000321505 5.32056e-005,-0.00047366 2.10876e-005,-0.00014372 5.32056e-005,-0.00038055 9.57053e-005,-0.000693295l-0.00028744 -0.00021996 -0.000340646 -0.00121757c0,-0.000262135 1.0706e-005,-0.000448355 2.1412e-005,-0.000558335 1.0706e-005,-0.00010122 2.1412e-005,-0.0002112 4.24996e-005,-0.000329615l-0.000308528 -0.0005499 0.000585262 -0.00131068 6.39117e-005 -0.000820145c6.39117e-005,-0.000177785 0.000138205,-0.000372115 0.000234235,-0.000575205 9.57053e-005,-0.0002112 0.000244616,-0.000515835 0.000457439,-0.000930125 0.00032994,-0.000152155 0.00057488,-0.000338375 0.000745203,-0.000558335 0.000170323,-0.000228071 0.000287116,-0.000498641 0.000372439,-0.000828581 0.000255322,-0.000118415 0.000585262,-0.00027057 0.00101091,-0.000448355 0.00042597,-0.000185895 0.000691998,-0.000295875 0.000798409,-0.000346486 6.35872e-005,1.68701e-005 0.000117117,2.53051e-005 0.000170323,3.37402e-005 5.32056e-005,8.43504e-006 0.000127499,1.68701e-005 0.00023391,1.68701e-005 0.000127823,0 0.000244941,-3.37402e-005 0.000362058,-0.000101545 0.000117117,-6.74803e-005 0.000223529,-0.00017746 0.00032994,-0.000346486l0.00164937 -0.000321505c0.000202441,0.000118415 0.000404558,0.00023683 0.000606674,0.000355245 0.000202441,0.00012685 0.000340646,0.000228395 0.000425645,0.000312745 9.60297e-005,6.78047e-005 0.000170323,0.000135285 0.000202441,0.00020309 3.17936e-005,5.90453e-005 5.32056e-005,0.00014372 7.42932e-005,0.000245265 0,5.06102e-005 -1.03816e-005,0.000101545 -3.17936e-005,0.00014372 -2.1412e-005,5.06102e-005 -3.17936e-005,8.46748e-005 -3.17936e-005,0.000101545l-0.000276734 0.00106541 -6.39117e-005 0.00138692 -0.000191735 0.000642685 0.000127823 0.000422725c-6.39117e-005,0.000414615 -0.000106411,0.00100637 -0.000138205,0.00178434 -3.2118e-005,0.000778295 -0.000106411,0.00132787 -0.000234235,0.00165749 -0.000106411,0.000135285 -0.000181029,0.000245265 -0.000234235,0.000338375 -5.32056e-005,9.31099e-005 -7.42932e-005,0.00016059 -7.42932e-005,0.000211525 0,8.43504e-005 4.24996e-005,0.000228395 0.000148911,0.00044803 4.24996e-005,7.62398e-005 7.42932e-005,0.000135285 9.57053e-005,0.00016935 -4.24996e-005,0.000169025 -6.39117e-005,0.000422725 -6.39117e-005,0.000769211 0,3.40646e-005 2.1412e-005,0.00012685 5.32056e-005,0.0002962 2.1412e-005,0.000169025 5.32056e-005,0.000312745 7.46177e-005,0.00044803 -4.24996e-005,0.00026246 -7.46177e-005,0.000482095 -9.57053e-005,0.000668315 -2.1412e-005,0.00017746 -3.2118e-005,0.000354921 -3.2118e-005,0.000515835l0 0.00039742 0.000127823 0.00262979 -6.39117e-005 0.00061738c-6.39117e-005,0.000135285 -9.57053e-005,0.00021996 -0.000106411,0.000262135 -1.0706e-005,4.24996e-005 -2.1412e-005,6.78047e-005 -2.1412e-005,8.46748e-005 0,0.000118415 2.1412e-005,0.000228395 6.39117e-005,0.000338375 4.24996e-005,0.000101545 0.000106411,0.0002112 0.000191735,0.000329615 8.49993e-005,0.000608945 0.000159617,0.00150533 0.000244616,0.00268072 0,0.00010998 0,0.00020309 0,0.00027057 -2.10876e-005,6.78047e-005 -3.17936e-005,0.00012685 -4.24996e-005,0.00018622 -1.0706e-005,5.90453e-005 -2.1412e-005,0.00010998 -2.1412e-005,0.00016059 0,3.37402e-005 2.1412e-005,7.62398e-005 5.35301e-005,0.000135285 3.17936e-005,5.93697e-005 7.42932e-005,0.00012685 0.000138205,0.000211525l-6.39117e-005 0.000769535 0.000244941 0.0004649 -5.35301e-005 0.00074423 0.000181029 0.00052427 -6.39117e-005 0.000592075c0.000191735,0.000211525 0.00032994,0.00043992 0.000404558,0.00066799 8.49993e-005,0.000228395 0.000127823,0.0005074 0.000127823,0.00082047 0,1.68701e-005 -1.0706e-005,0.00010998 -4.28241e-005,0.000295875 -3.17936e-005,0.00017746 -6.35872e-005,0.000355245 -8.49993e-005,0.000515835l6.39117e-005 0.000101545 0 0.00044803 -6.39117e-005 5.09347e-005 0.000383145 0.00034681 0.000308528 0.000566445c0.000181029,0.00114165 0.000383145,0.00199586 0.000595968,0.00257918 0.000202441,0.000575205 0.000479175,0.00109948 0.000840909,0.00155626 0.000223529,-0.00027933 0.000447057,-0.000575205 0.000670586,-0.000888275 0.000212498,-0.000312745 0.000425645,-0.00065112 0.000638468,-0.00101448l0.000340646 -0.0002962c0,-0.00021996 5.28812e-005,-0.000405855 0.000159292,-0.00055801 9.60297e-005,-0.00016059 0.000255647,-0.000295875 0.000468469,-0.00041429l-6.39117e-005 -0.0002962 0.00184143 -0.00284975c0.000266028,-0.00016059 0.000457439,-0.000355245 0.000585262,-0.00056677 0.000127499,-0.0002112 0.000212823,-0.000498641 0.000255322,-0.000845451 0.000436351,-0.000608945 0.000830203,-0.0012432 0.00118155,-0.00189432 0.000351027,-0.00065112 0.000659555,-0.00132755 0.000936289,-0.00202117l0.000500263 -0.00034681 0.000117117 -0.000617056 0.000255322 -0.0002962c0,-0.000329615 5.32056e-005,-0.00060051 0.000170323,-0.000803275 0.000117117,-0.000211525 0.000308528,-0.00041429 0.00057488,-0.000608945l9.57053e-005 -0.000515835c0.000212823,-0.00030431 0.000393852,-0.000608945 0.000564174,-0.00092169 0.000159617,-0.00031307 0.000319234,-0.00065112 0.000468145,-0.0010148l6.39117e-005 -0.000718925c0.000117117,-0.000118415 0.000212823,-0.00023683 0.000276734,-0.000372115 6.39117e-005,-0.000135285 9.57053e-005,-0.0002537 9.57053e-005,-0.000372115 0,-0.00016059 -9.57053e-005,-0.000371791 -0.00028744,-0.000617056l-3.17936e-005 -5.09347e-005 3.17936e-005 -7.59154e-005c0.000436351,-0.000938885 0.00065988,-0.00160688 0.00065988,-0.0020043 0,0 -1.0706e-005,-5.09347e-005 -3.17936e-005,-0.000152155 -2.1412e-005,-9.31099e-005 -3.2118e-005,-0.000194655 -3.2118e-005,-0.0002962l0.000968732 -0.00242702c0.000351027,-0.00016059 0.000670261,-0.000295875 0.000968408,-0.000405855 0.00028744,-0.00010998 0.000553468,-0.00019433 0.000808791,-0.000262135l0.000776997 -5.06102e-005 0.000308528 -0.000321505 0.00127726 -0.00049053c4.24996e-005,0 9.57053e-005,-8.43504e-006 0.000148911,-2.53051e-005 5.32056e-005,-1.68701e-005 8.53237e-005,-2.53051e-005 0.000106411,-2.53051e-005 0.000106411,0 0.000181029,2.53051e-005 0.000244941,8.46748e-005 6.39117e-005,5.90453e-005 0.000116793,0.00016059 0.000159617,0.000312745l0 0.00158125c0,0.000608945 -5.32056e-005,0.00111635 -0.000170323,0.0015222 -0.000117117,0.00040618 -0.000298146,0.00077797 -0.000542762,0.00110791l0.000117117 0.00041429c-7.46177e-005,0.00036368 -0.000149235,0.000659555 -0.000212823,0.000896385 -6.39117e-005,0.000228395 -0.000138529,0.00045679 -0.000223529,0.000668315 -0.000244941,0.00016059 -0.00042597,0.00033805 -0.000542762,0.000532705 -0.000117117,0.000185895 -0.000170323,0.00039742 -0.000170323,0.00063425 0,0.00010998 0,0.000202765 1.0706e-005,0.00027057 1.03816e-005,6.74803e-005 3.17936e-005,0.00012685 5.32056e-005,0.000169025l-9.60297e-005 0.000304635c-0.000414939,0.00116696 -0.000744879,0.00201241 -0.0010002,0.00251981l-0.000372439 0.00039742c-4.28241e-005,0.00021996 -0.000117442,0.00043992 -0.000213147,0.000668315 -0.000106411,0.00023683 -0.000287116,0.000583315 -0.000532056,0.00104011 -0.000234235,0.00044803 -0.000489557,0.00092169 -0.000776997,0.00142909 -0.000297822,0.000498965 -0.00065988,0.00109072 -0.00109623,0.00176747l6.39117e-005 0.00020309c-0.000649174,0.00130224 -0.00128764,0.00248607 -0.00191573,0.00355148 -0.000638468,0.00106573 -0.00120264,0.00194525 -0.0017029,0.00263855l-0.00114911 0.00193649c-0.000521675,0.0008036 -0.00094732,0.00144629 -0.00128797,0.00191962 -0.00032994,0.000465225 -0.000670261,0.00091358 -0.00102161,0.00131943 0.00028744,5.06102e-005 0.000510644,0.00012685 0.000649174,0.0002112 0.000148911,9.31099e-005 0.000234235,0.000211525 0.000255322,0.00036368 0,0.000211525 -0.000127499,0.000439595 -0.000393852,0.00069362 -0.000255322,0.000245265 -0.000670261,0.000532705 -0.00123444,0.000862321l-0.000244616 0.000372115 -0.00158579 0.00141222c-6.39117e-005,0 -0.000170323,8.43504e-006 -0.000319234,2.56295e-005 -0.000351352,3.37402e-005 -0.000585586,7.59154e-005 -0.000713085,0.00012685 -0.000127823,7.59154e-005 -0.000234235,0.000185895 -0.000308528,0.00030431 -8.53237e-005,0.00012685 -0.000149235,0.00027057 -0.000191735,0.00043116 -2.1412e-005,3.37402e-005 -3.2118e-005,5.09347e-005 -3.2118e-005,5.09347e-005 -0.000244616,0.0002537 -0.000478851,0.000372115 -0.000680967,0.000372115 -2.1412e-005,0 -7.46177e-005,-8.43504e-006 -0.000148911,-2.53051e-005 -6.39117e-005,-1.71945e-005 -0.000127823,-2.56295e-005 -0.000170323,-2.56295e-005l-0.000181029 0.0002537c-6.39117e-005,1.68701e-005 -0.000170323,4.24996e-005 -0.000319234,6.78047e-005 -0.000457763,0.000101545 -0.000776997,0.000152155 -0.000957702,0.000152155 -0.000170323,0 -0.000489881,-7.62398e-005 -0.000968732,-0.00021996l-0.000127499 -5.06102e-005c-0.000191735,-8.46748e-005 -0.000340646,-0.00020309 -0.000468469,-0.00036368 -0.000127823,-0.000152155 -0.000234235,-0.00038055 -0.000340646,-0.000676425 -4.24996e-005,-5.09347e-005 -8.49993e-005,-0.000101545 -0.000127499,-0.00015248 -0.000223529,-0.000262135 -0.000340646,-0.000439595 -0.000340646,-0.000515511 0,-6.78047e-005 3.17936e-005,-0.000144045 9.57053e-005,-0.000228395 6.39117e-005,-7.62398e-005 0.000181029,-0.000211525 0.000372439,-0.00039742 0.00028744,-0.000245589 0.000532381,-0.00049053 0.000734497,-0.000735795 0.000191411,-0.0002537 0.000340646,-0.000532705 0.000447057,-0.000845775z"/>
 </g>
</svg>
