<?xml version="1.0" encoding="UTF-8"?>
<!DOCTYPE svg PUBLIC "-//W3C//DTD SVG 1.1//EN" "http://www.w3.org/Graphics/SVG/1.1/DTD/svg11.dtd">
<!-- Creator: CorelDRAW -->
<svg xmlns="http://www.w3.org/2000/svg" xml:space="preserve" width="1in" height="2in" style="shape-rendering:geometricPrecision; text-rendering:geometricPrecision; image-rendering:optimizeQuality; fill-rule:evenodd; clip-rule:evenodd"
viewBox="0 0 0.213904 0.115721"
 xmlns:xlink="http://www.w3.org/1999/xlink">
 <defs>
  <style type="text/css">
   <![CDATA[
    .fil0 {fill:#1F1A17}
   ]]>
  </style>
 </defs>
 <g id="Layer_x0020_1">
  <metadata id="CorelCorpID_0Corel-Layer"/>
  <path class="fil0" d="M0.0348178 0.0409218l0 0.00338467 0 0.00035436 0 0.00193834 -1.29273e-005 9.12516e-006 0.00042432 0.00869856c0.000688949,-0.000147523 9.12516e-005,-1.14064e-005 0.000563478,-0.000116346 0.000817462,-0.000182503 -0.000581729,0.00012471 0.000837993,-0.000200753 0.00165698,-0.000380215 0.00302043,-0.000712523 0.00408883,-0.000996163l-2.28129e-006 -6.08344e-006 2.28129e-006 0 2.43337e-005 0c0.00113912,-0.000303411 0.00239763,-0.000667657 0.00377553,-0.00109122 0.0014144,-0.000435726 0.00258698,-0.000818222 0.00351547,-0.00114749 0.00543175,-0.00192693 0.0098757,-0.00416487 0.0133326,-0.00671003l0.000225087 -0.000244098c-0.000362725,-0.000330026 -0.000736856,-0.000645605 -0.00112087,-0.000947495 -0.00115737,-0.000908713 -0.00239611,-0.0016623 -0.0037147,-0.00226 -0.00137638,-0.000624313 -0.00284705,-0.00108894 -0.00441277,-0.00139539 -0.00160451,-0.000314057 -0.00341129,-0.000470706 -0.00542034,-0.000470706l-0.00203567 0c-0.00229117,0.000174138 -0.00432989,0.00037109 -0.00611385,0.000588573 -0.00150869,0.000184784 -0.00282728,0.00038858 -0.00395652,0.000612146zm0.134028 -0.0140915c0.000960423,0.000879817 0.00580132,0.00151173 0.00782862,0.00180526 0.00155736,0.000224327 0.00284325,0.000427361 0.00434586,0.000695793 0.000702637,0.00012471 0.0014144,0.000208358 0.00201666,0.000370329 0.00069047,0.000185545 0.00102658,0.000770315 0.00149957,0.000770315 0.00462721,0 0.00451695,-0.00206381 0.00451695,-0.00411164 -0.000257786,-0.000206076 -0.000492758,-0.000482873 -0.00112924,-0.000482873l-0.000225848 0c-0.00297556,0 -0.00589333,-0.000863848 -0.00858221,-0.00145166 -0.00139463,-0.000304172 -0.00282576,-0.000560437 -0.00426145,-0.000863088 -0.00225163,-0.000475269 -0.00277405,-0.00120452 -0.00381127,-0.00133607l-0.00219764 0.00460364zm-0.0909177 0.00146535l0 0.000604542c0,0.000756628 0.000853202,0.0015528 0.00248432,0.00157181 0.000362725,0.00083191 0.000494279,0.00205544 0.00225848,0.00205544 0.000291245,0 0.00401507,-0.00235733 0.00513366,-0.00281435 0.000633438,-0.000258546 0.00638685,-0.00209042 0.00638685,-0.00214289 0,-0.000282119 -0.000603021,-0.000604542 -0.00113,-0.000604542l-0.000677543 0c-0.00274895,0 -0.00472303,0.000250181 -0.00790619,0.000240296 -0.00182123,-4.56258e-006 -0.00654958,0.000304172 -0.00654958,0.0010897zm-0.0469801 -0.00749708l-0.0047428 0c-0.0042873,0 -0.0103076,-0.00157181 -0.0128733,-0.00157181 -0.000317099,0 -0.000451695,0.000164253 -0.000451695,0.000362725l0 0.000241817c0,0.000830389 0.00474964,0.00215734 0.00646365,0.00246379 0.00122049,0.000218243 0.00785524,0.00116346 0.00889399,0.00116346 0.000805295,0 0.000885901,-0.000286682 0.000908713,-0.000706439l0.0137737 -0.000865369c0.000862327,-0.00172998 0.00609789,-0.00206076 0.00609789,-0.00253984 0,-0.000701116 -0.00307974,-0.00157181 -0.00496865,-0.00157181l-0.000225848 0c-0.00367972,0 -0.00465763,0.00302347 -0.0128756,0.00302347zm0.170076 -0.000967267l0 -0.000484394c-0.000507207,-6.23552e-005 -0.000519373,-0.000120148 -0.00113,-0.000120148l-0.000225087 0c-0.000406069,0 -0.00629788,0.000990079 -0.00754422,0.00116042 -0.00217483,0.000298088 -0.00650928,0.000626594 -0.00876547,0.000437247 -0.00359227,-0.000301891 -0.005031,-0.000180982 -0.0076811,-0.00108741 -0.00224783,-0.000769555 -0.00319228,-0.00196191 -0.00627583,-0.00196191l-0.000677543 0c-0.00113152,0 -0.00406526,0.000917078 -0.00406526,0.00157181 0,0.000376413 0.00296415,0.000825066 0.00366679,0.00106004 0.00150489,0.000502644 0.00179994,0.00109122 0.00290028,0.00140756l0.0133098 0.000918599c1.44482e-005,0.000339152 0.000117106,0.00072545 0.000677543,0.00072545 0.00124482,0 0.00797767,-0.000924682 0.00910538,-0.00117106 0.00151478,-0.000331547 0.00253603,-0.000532301 0.00381127,-0.000982475 0.00234745,-0.000828108 0.00132087,-0.000506446 0.00289343,-0.00147371zm-0.0566916 -0.00133075c-0.000855483,-3.80215e-005 -0.0018813,-0.000422799 -0.00225848,-0.00072545l0.00225848 0.00072545zm-0.00259839 -0.000906432c3.80215e-006,-2.28129e-006 -7.45221e-005,8.06055e-005 -0.000111783,6.00739e-005l0.000111783 -6.00739e-005zm-0.00169272 -0.00405081c-0.000120908,-0.000780201 -0.00141592,-0.00144177 -0.00203263,-0.00193453 0.000895786,-0.000564999 0.00248432,0.000960423 0.00248432,0.00193453l-0.000451695 0zm-0.00361356 0.00072545c0,0.000993121 -0.00090339,0.00178777 -0.00090339,0.00278089l0 0.000362725c0,0.00148664 0.00704918,0.00333753 0.00966506,0.00377325 0.00206457,0.000345235 0.0116505,0.00173986 0.012468,0.00239383 -0.00127144,0 -0.00194138,-0.000241817 -0.00203263,-0.000241817 -0.00193073,0 -0.00273298,0.00218319 -0.00173378,0.00298393 0.00054827,0.000440289 0.00429339,0.00132239 0.00552376,0.00151706 0.00193986,0.000305693 0.00468425,0.000977152 0.00638305,0.000340672 0.00122657,-0.000458539 0.00315274,-0.00181971 0.00315274,-0.00290712l0.000451695 0 0 -0.00072545c0,-0.000659293 0.000451695,-0.000669939 0.000451695,-0.00132999l0 -0.0014509c0,-0.000946735 -0.00563402,-0.00194974 -0.00763623,-0.00223566l-0.00117182 0.0012684c-0.00236874,-0.0001057 -0.0134718,-0.00270105 -0.0156626,-0.00334437 -0.00328658,-0.000964225 -0.00288659,-0.00184936 -0.00285769,-0.00439604 1.97712e-005,-0.00172465 -0.00306073,-0.00290104 -0.00564619,-0.00290104 -0.00160223,0 -0.0023695,0.00115585 -0.00263565,0.00198548 -0.000423559,0.00131706 0.00218395,0.00124787 0.00218395,0.00212616zm-0.0537571 0.0222494l-0.00158093 -0.000362725c0.000878296,-0.000887421 0.00196495,-0.00120452 0.000753586,-0.00270029 -0.000426601,-0.000526217 -0.00193149,-0.00213681 -0.00301206,-0.00213681 -0.000251702,0 -0.00125015,0.00090339 -0.00286682,0.00141668l-0.000107221 -7.75638e-005c-0.000133075,-9.65746e-005 -0.000266911,-0.000191628 -0.000400746,-0.000286682l0.00267367 -0.00168511 -0.000202274 -9.27724e-005c-0.000260067,-0.000291245 -0.000503404,-0.000846358 -0.00135585,-0.000846358 -0.000700356,0 -0.00222502,0.000519373 -0.00342345,0.00107981 -0.00221133,-0.00139311 -0.0045238,-0.00261284 -0.00693892,-0.00365767 -0.00198624,-0.000858525 -0.00403636,-0.00159462 -0.00614883,-0.00220753 -0.000169576,-0.00172998 -0.00126155,-0.0013817 -0.00404092,-0.0013817 -0.000530019,0 -0.00140908,-0.000569562 -0.00151706,-0.000996163l0.000838754 0.000633438 0.00113 0c0.000384017,0 0.0109509,-0.0018448 0.0123752,-0.00208054 0.00252387,-0.000415955 0.00930614,-0.00229726 0.00930614,-0.00384473l0 -0.000241817c0,-0.00100529 -0.00090263,-0.00171173 -0.00090263,-0.00278089 0,-0.00103038 0.00203263,-0.000558916 0.00203263,-0.00169272l0 -0.000604542c0,-0.000674501 -0.00119692,-0.00181439 -0.00225924,-0.00181439 -0.00314894,0 -0.00604998,0.00129957 -0.00595873,0.00312156 0.000143721,0.00287899 0.000279078,0.00334665 -0.00353067,0.00437399 -0.0029786,0.000803774 -0.00514811,0.00122733 -0.00835256,0.00193681 -0.00136269,0.000301891 -0.00333677,0.000469185 -0.00460288,0.000800732 -0.00189347,0.00049504 -0.000253984,0.00148664 -0.000140679,0.00222198 -0.00126231,-0.00049504 -0.0010684,-0.00230258 -0.00361356,-0.00302271 -0.0019756,0.000246379 -0.00606899,0.00118855 -0.00700128,0.00193453l-5.32301e-006 0.00085016 -0.00112392 -0.000366527c-0.00108589,0.00038934 -0.00180602,0.000699595 -0.00244934,0.000970308 -0.00849856,0.000963464 -0.0156367,0.00249725 -0.0214152,0.00460288 -0.00682486,0.00248661 -0.011814,0.00577318 -0.0149653,0.00985897 -0.000949777,0.00123038 -0.00171629,0.00249649 -0.00229802,0.00379454 -9.27724e-005,0.000206076 -0.000201514,0.000469185 -0.000326224,0.000787045 -4.25841e-005,0.000108741 -0.000131554,0.000361965 -0.00026615,0.000761951l-6.08344e-006 -1.52086e-006 -7.6043e-007 3.04172e-006 0 1.82503e-005c-0.000125471,0.00037109 -0.000237254,0.000735335 -0.00033611,0.00109274l-0.000631157 0 0 0.00472379 0 3.80215e-006 0 0.0021216 4.86675e-005 0.000406069 1.29273e-005 0.00010646 2.43337e-005 0.000184784c0.000200753,0.00118323 0.000405309,0.00214061 0.000615188,0.00287214 0.000268432,0.00093761 0.000590093,0.00177104 0.000966506,0.00250029 0.000670699,0.0013011 0.00157789,0.00235353 0.00271854,0.00315502 0.000227368,0.00015969 0.000536103,0.000344475 0.000925443,0.000553593 0.00145242,0.00077944 0.00305921,0.00116878 0.00482036,0.00116954l0 1.90107e-005 1.52086e-006 0 0.000730012 0 0.00131402 -0.000111023 0.000445612 -7.37617e-005 0.000355881 -9.2012e-005 6.84387e-006 3.26985e-005c0.000232691,0.00106612 0.000539145,0.00238699 0.000918599,0.00396564 0.000476029,0.0019756 0.000819743,0.00337022 0.00103266,0.00418617l8.36473e-006 3.11776e-005c0.000363485,0.00139463 0.000795409,0.00298241 0.00129577,0.00476713 8.82098e-005,0.000312537 0.00017718,0.000626594 0.00026615,0.000942172 0.000342193,0.00120604 6.46365e-005,0.000250181 0.000272234,0.000970308l7.6043e-007 0 0 3.80215e-006c0.000111783,0.00038858 0.000457018,0.00155052 0.00103647,0.00348733 0.000343714,0.00114825 0.000614427,0.00204632 0.000810618,0.0026942l-0.000482112 0.00214061 -7.30012e-005 0.00107068 3.11776e-005 0.000390861 0.000243337 0.00108894c0.000355881,0.000892744 0.000923922,0.00177408 0.0017026,0.00264325 0.00070796,0.000790086 0.00153074,0.00150489 0.00246835,0.00214289 0.000801493,0.000545228 0.0017429,0.00107677 0.00282424,0.00159462 0.000979433,0.000469185 0.00204327,0.000910234 0.00319228,0.00132163l0.000427361 0.000152846 0.00235961 0.000846358 0.00245923 -0.000698835 0.000445612 -0.000126231c0.00235125,-0.000666897 0.00429719,-0.00153227 0.00582565,-0.00259154 0.000364246,-0.000252463 0.000686668,-0.000498081 0.000966506,-0.000736856 0.00026615,-0.000228129 0.0004958,-0.000438768 0.000688949,-0.000631917l4.56258e-006 3.04172e-006 7.6043e-007 -1.52086e-006 3.95423e-005 -4.71466e-005c4.56258e-005,-4.63862e-005 8.89703e-005,-9.2012e-005 0.000130033,-0.000136117l-1.0646e-005 -5.32301e-006 1.14064e-005 -1.44482e-005c0.000193149,-0.000209118 0.000379454,-0.000431924 0.000558916,-0.000668418 3.57402e-005,-4.71466e-005 6.99595e-005,-9.27724e-005 0.000102658,-0.000137638 0.00543707,0.000170336 0.0116985,0.00021292 0.0141531,0.00021292l0.000225848 3.80215e-006 0.00271017 0.000117106 0.00740659 0c0.000429643,0.000169576 0.000868411,0.000333068 0.0013163,0.000489717 0.0025847,0.00090263 0.00547966,0.00157637 0.00868411,0.00202122 0.00311624,0.000432684 0.00643628,0.000648647 0.00995859,0.000648647l0.000924682 -5.55114e-005 0.000125471 -1.44482e-005 4.33445e-005 2.88963e-005 0 0.00304856c0,0.00419757 0.000288203,0.0100179 0.00148892,0.0137136 0.00116422,0.00359227 0.00903771,0.00539145 0.0168055,0.00539145l0.00203263 0c0.00468577,0 0.00876243,-0.000983236 0.0114817,-0.00207521 0.00460744,-0.00184936 0.00359759,-0.00220981 0.00460744,-0.00563478 0.00118779,-0.00401659 0.00107601,-0.0109859 0.00107601,-0.0156276l0 -0.00120908 -3.80215e-005 -0.00408807c0.000409872,-0.00012395 0.000817462,-0.000249421 0.00122277,-0.000376413l1.52086e-005 0.000473748 -7.072e-005 0.0035071c0,0.000232691 0.000403788,0.000483633 0.000677543,0.000483633 0.00363333,0 0.00406298,-0.00345007 0.00444699,-0.00617241 0.000596937,-0.000215962 0.00118779,-0.000434966 0.00177256,-0.000658532 0.00161059,-0.000614427 0.00317023,-0.00125243 0.00467892,-0.00191476 0.000895026,-0.000393142 0.00177028,-0.000793889 0.00262652,-0.00120072 0.000978673,-0.000118627 0.00198168,-0.000211399 0.00296415,-0.000211399 -0.000426601,0.000981715 -0.000916318,0.000476029 -0.00090339,0.00217711 6.84387e-006,0.000983236 -0.000192389,0.00152618 -0.000216722,0.00254364 -8.74494e-005,0.0034014 -0.00161363,0.00176572 -0.00588649,0.00203415l-0.00250942 0.000131554 -0.00176572 0.00218015 0.000214441 0.000365767 0.00474356 0c0.00740278,0 0.0142284,-0.000120908 0.0214563,-0.000120908 0.00241589,0 0.00477854,-5.47509e-005 0.00710545,-0.000126231 0.000155128,0.000111023 0.000311776,0.000222045 0.000469185,0.000331547 0.00449186,0.00312004 0.00930386,0.00467968 0.0144307,0.00468044l0 1.82503e-005 7.6043e-007 0c0.00458235,0 0.00847499,-0.00155964 0.0116696,-0.0046774 0.000481352,-0.000469185 0.000978673,-0.00102278 0.0014912,-0.00165926 0.000412153,-0.00051253 0.000845598,-0.00111935 0.00129957,-0.00181971l7.6043e-007 -1.52086e-006c0.0004593,-0.000709481 0.000830389,-0.00132847 0.00111175,-0.00185621 2.05316e-005,-3.72611e-005 4.03028e-005,-7.90847e-005 0.000143721,-0.000280599l0.000413674 0 0.00118019 -0.0035801 7.6043e-007 -2.28129e-006 3.72611e-005 -0.000171857 0.0152763 -0.044968 0.000146002 -0.000498081 4.03028e-005 -0.000211399 7.30012e-005 -0.000663855 0 -0.000535342c0,-0.00139387 -0.000341433,-0.00271245 -0.00102506,-0.00395728 -0.000685147,-0.00124634 -0.001695,-0.00236037 -0.00303031,-0.00334285 -0.00116422,-0.000856244 -0.0025193,-0.00157561 -0.00406678,-0.00216038 -0.00139463,-0.000526978 -0.00296187,-0.000958141 -0.00470174,-0.00129501l-0.000610625 -0.000117867 -0.00336946 -0.000651688 -0.00252006 0.0018699 -0.000427361 0.000317099 0 -7.6043e-007 -0.00219004 0.00162352 -0.000412153 0.000305693 -0.0022714 0.00168359 0.000446372 0.00235733 8.1366e-005 0.000426601 0.000589333 0.0031132c-0.0034417,0.0126497 -0.00678379,0.0228007 -0.0100209,0.0304484 -0.00061975,0.00146307 -0.00124482,0.00285237 -0.00187522,0.00416639 -0.00063724,0.00132847 -0.0012357,0.00249725 -0.00179461,0.00350558l-9.12516e-006 -2.28129e-006 -7.6043e-007 1.52086e-006 0 1.82503e-005 -7.45221e-005 0.000133836c-0.000664616,-0.00106536 -0.00135509,-0.00226076 -0.00206989,-0.00358619 0.000257025,-0.000262348 0.000498081,-0.000581729 0.000498081,-0.000842556l0 -0.000241817c0,-0.000269192 -0.000515571,-0.000332308 -0.00123342,-0.000307214 -0.000135356,-0.000260067 -0.000271473,-0.000524696 -0.00040759,-0.000793889 0.000178701,-5.93135e-005 0.000285922,-0.000134596 0.000285922,-0.00022965 0,-0.000216722 -0.000241056,-0.000384017 -0.000657772,-0.000509488 -0.000275276,-0.000551312 -0.000553593,-0.00112011 -0.000835712,-0.0017064 -0.0015893,-0.00330635 -0.00328201,-0.00714804 -0.00507891,-0.0115258 -0.00102354,-0.00507739 -0.00270789,-0.00899969 -0.00504697,-0.0117661 -0.000515571,-0.000609865 -0.00109958,-0.00119464 -0.00175051,-0.00175279l-0.000118627 -0.000100377c0.00104635,-7.37617e-005 0.00188434,-0.00017718 0.00242197,-0.000330026 -0.000549791,-0.000438768 -0.00203871,-0.000523936 -0.00358391,-0.000554353 -0.000279078,-0.000191628 -0.000563478,-0.000372611 -0.000853202,-0.000542947l-2.28129e-006 -7.6043e-007 0 0c-0.000674501,-0.000396184 -0.00139159,-0.0007437 -0.00215278,-0.00104103l0 -0.00116194 -0.00200525 0c-0.000811378,-0.00133912 -0.00355045,-0.002698 -0.00620054,-0.00349265 -0.000126231,-0.000337631 -0.000275276,-0.000670699 -0.000445612,-0.000998444 -0.00065473,-0.00125471 -0.00162808,-0.00239992 -0.00292081,-0.00343562l-2.43337e-005 0c-0.00116042,-0.000930766 -0.00249649,-0.00172541 -0.00400899,-0.00238319 -0.00133379,-0.000580208 -0.00285693,-0.00108665 -0.00456942,-0.00151782l0 -0.000330026 -0.00489413 0c4.48654e-005,-0.000554353 4.71466e-005,-0.00107449 4.48654e-005,-0.00146687 -6.84387e-006,-0.00153911 0.000358923,-0.00391241 0.000695033,-0.00543327 0.000368808,-0.00167447 0.000930005,-0.00338619 0.00181058,-0.00483481 0.000533822,-0.000876775 0.00291169,-0.00367896 0.00291169,-0.00436639 0,-0.000688189 -0.00318924,-0.0014509 -0.00474356,-0.0014509 -0.00462645,0 -0.00627735,0.0115677 -0.00667429,0.0177233 -0.00175963,0.000130033 -0.00352611,0.000333068 -0.00529867,0.000609104 -0.000742179,0.000116346 -0.00137714,0.000223566 -0.00190564,0.000322422 -0.000392382,7.30012e-005 -0.00101669,0.000203795 -0.00187294,0.000390861l-2.35733e-005 0 -6.08344e-006 1.52086e-006 1.52086e-006 4.56258e-006c-0.000426601,9.27724e-005 -0.000783243,0.000171857 -0.0010684,0.000234973l-0.000770315 -0.00368808 0 -0.00265998c0,-0.00129501 0.00026539,-0.00306073 0.000621271,-0.00414206 0.000200753,-0.000610625 0.00141136,-0.00376945 0.00141136,-0.00383941l0 -0.000362725 0.000451695 0 0 -0.00072545 0.000225848 0c0,0.000882859 -0.000451695,0.000886661 -0.000451695,0.00157181l0 0.000362725c0,0.000271473 0.000180222,0.00026615 0.000451695,0.000484394 0.00185165,0 0.00709101,0.000185545 0.00812215,0.000121669 0.00132999,-8.28868e-005 0.0013855,-0.000740659 0.00164329,-0.00142428 0.000143721,-0.000384777 0.00085016,-0.00152086 0.00085016,-0.00184176 0,-0.00037109 -0.000661574,-0.000483633 -0.00135509,-0.000483633l-0.00564619 0c-0.0014144,0 -0.00237254,0.000438768 -0.00338771,0.000483633 0.00198244,-0.00200601 0.00213529,-0.00297024 0.00483101,-0.00491085 0.00136269,-0.000980194 0.00645072,-0.00246531 0.00962476,-0.00246531l0.00293678 0c0.00663475,0 0.0133128,0.00410024 0.0157363,0.00656859 0.00170716,0.00173758 0.00295047,0.00325084 0.00404777,0.00533061 0.000523176,0.00099084 0.000969548,0.00198396 0.00135889,0.00302043 0.000309495,0.000821264 0.000382496,0.00273527 0.00189347,0.00273527 0.000517853,0 0.000263869,-4.10632e-005 0.000904151,-0.000121669l0 -0.00157181c0,-0.00379683 -0.00432532,-0.00915633 -0.00722788,-0.0114871 -0.00177788,-0.00142733 -0.00440517,-0.00301282 -0.00699595,-0.00399378 -0.00156649,-0.000593135 -0.00283108,-0.000879817 -0.00466828,-0.00136953 -0.00130566,-0.000349037 -0.00483937,-0.000678303 -0.00550019,-0.000924682l-0.00225924 0c-0.000554353,0.000187066 -0.0042873,0.000453216 -0.00551083,0.000677543 -0.00170412,0.000312537 -0.00277937,0.000917839 -0.00392001,0.00152922 -0.00287366,0.00153911 -0.00386602,0.00227216 -0.00592375,0.00420442 -0.00288963,0.00271702 -0.00474812,0.00791379 -0.00474812,0.012211 0,0.00117562 -0.0001057,0.00551692 0.000923162,0.00731381 -0.00038858,0.0001057 -0.000723169,0.000199993 -0.00100605,0.00028288l-0.000341433 9.96163e-005 -4.56258e-006 -7.6043e-006c0.000268432,-8.28868e-005 0.000597698,-0.000183264 -1.52086e-006,-3.04172e-006l-7.6043e-006 5.32301e-006 -9.50537e-005 2.96568e-005 7.52825e-005 -1.97712e-005 1.52086e-006 3.80215e-006 1.52086e-006 -7.6043e-007 7.6043e-007 7.6043e-007 -2.28129e-006 7.6043e-007 0 -7.6043e-007 -7.68034e-005 2.28129e-005c-0.000206076,5.93135e-005 -0.000137638,3.65006e-005 0,-6.84387e-006 -0.00109806,0.000287442 -0.00217255,0.000575645 -0.0032227,0.000864609l-0.00437475 0c-0.00470554,0 -0.01117,0.00155812 -0.0139661,0.00267975 -0.00286834,0.00115053 -0.00681421,0.00405157 -0.00681421,0.00663095zm0.00795942 -0.00367592c0.000268432,-0.000130794 0.000532301,-0.000237254 0.000784763,-0.000312537 -0.000263869,0.000103418 -0.000525457,0.000208358 -0.000784763,0.000312537zm0.0242577 0.0121501c0.00171325,0.00184936 0.00292081,0.00427894 0.00437323,0.00434357l0 -0.000604542c0,-0.00152542 -0.00164633,-0.00309571 -0.00271778,-0.00426753 0.000221285,-6.99595e-005 9.42933e-005,-3.26985e-005 -3.80215e-006,-4.56258e-006l-1.52086e-006 -7.6043e-007 0.000154367 -4.63862e-005c0.000253223,-7.68034e-005 -0.00015893,4.94279e-005 0.000342193,-9.96163e-005l2.28129e-006 -7.6043e-007 0 7.6043e-007c0.000468425,-0.000139159 0.000936089,-0.000272234 0.00140375,-0.000398465 0.00141972,0.000277557 0.0030364,0.000463862 0.00465991,0.000463862 0.00461809,0 0.00763471,-0.00063724 0.0111449,-0.00113684l0.00298469 0.000906432 0.000598458 -0.00133379 0.000646365 4.71466e-005 -0.000703397 0.00130794 0.0019908 0.00211323 0.000360444 0.000382496c0.000380975,0.000403788 0.0014798,0.0025923 0.00329494,0.00657239 0.000222045,0.000487435 0.000631917,0.00140679 0.00122809,0.0027558 0.000190868,0.000432684 0.000578687,0.00132543 0.0011665,0.00268888 -0.00127524,-0.000626594 -0.002625,-0.00122049 -0.00404853,-0.00178245 -0.000137638,-5.47509e-005 -0.000263869,-9.35328e-005 -0.00121517,-0.000445612 -0.000751305,-0.000279078 -0.0011627,-0.000431164 -0.00122277,-0.000451695l-2.28129e-006 -7.6043e-007 -0.000608344 -0.000184784 -0.000206837 -5.32301e-005 -0.000535342 -0.000111023c-0.0071199,-0.00130794 -0.0132611,-0.00250029 -0.0184229,-0.00357706 -0.00503785,-0.00105167 -0.00934416,-0.00203947 -0.0129174,-0.00296339 -0.000342954,-8.89703e-005 -0.000676022,-0.00017642 -0.000999205,-0.000261588 0.00174138,-0.000860806 0.00347821,-0.00164481 0.0052097,-0.00235125 0.000665376,-0.000271473 0.00127904,-0.00051329 0.00184024,-0.000723929 0.000534582,-0.000200753 0.00114445,-0.000418997 0.00182959,-0.00065397l2.28129e-006 -7.6043e-007 0.000372611 -0.000127752zm0.0335912 -0.00923618c0.000115585,-0.000136117 0.000144482,-0.00033611 0.000144482,-0.000688949 0.000181743,-6.76782e-005 0.000556635,-0.000241817 0.000677543,-0.000241817 0.000891224,0 0.00146991,0.000456258 0.00182427,0.000930766l-0.00132087 0 -3.04172e-006 0 -0.00132239 0zm-0.0766498 -0.0182229l0.000451695 0c-0.000401507,0.000323183 -0.00193605,0.000857004 -0.00271017,0.000967267 0.000564239,-0.000410632 0.00104255,-0.000261588 0.00135509,-0.00072545l0.00090339 0 0 -0.000241817zm0.00135509 -0.0043527c0,-0.000995402 0.00106536,-0.00135509 0.00225848,-0.00169348 -0.000104939,0.000677543 -0.0016661,0.00103038 -0.00180678,0.00193529 -0.000172618,-6.46365e-005 -0.000451695,-6.46365e-005 -0.000451695,-0.000241817zm0.00406602 -0.00556254c0,0.000663855 0.00224555,0.0030037 0.00280218,0.00406145 0.000676022,0.00128437 0.00160603,0.00316871 0.00171249,0.00464699 0.000225848,0.00314742 0.00158474,0.00716781 0.00158474,0.0103974 0.00125699,0.000355881 0.00419909,0.000196191 0.00542034,-0.000241817 0,-0.00424396 -0.00134216,-0.0204358 -0.00677695,-0.0204358 -0.00175203,0 -0.0047428,0.000679824 -0.0047428,0.00157181zm0.0234904 0.00169272l0 0.000483633c0,0.00116346 0.000853202,0.00290256 0.00293602,0.00290256l0.00632373 0c0.00212692,0 0.00293602,-0.00178777 0.00293602,-0.00290256l0 -0.000483633c0,-0.000279078 -0.000155888,-0.000362725 -0.000677543,-0.000362725l-0.0108407 0c-0.000520894,0 -0.000677543,8.36473e-005 -0.000677543,0.000362725zm0.072275 0.00411164c0.00206989,0 0.00916774,-0.000590854 0.0106171,-0.000483633l0.00428046 0.00028364 0.000660053 0.000216722 0.00143341 0.000115585c-0.00292765,7.52825e-005 -0.00531616,-0.000146002 -0.00840123,-0.000130033 -0.00294514,1.67295e-005 -0.00560056,0.000118627 -0.00858981,0.000118627l0 -0.000120908zm0.00158093 -0.00544163c0.000520894,0 0.000677543,-8.36473e-005 0.000677543,-0.000362725 0,-0.000441049 -0.0034303,-0.00122353 -0.00446752,-0.00135661 -0.00206076,-0.00026615 -0.00461429,8.44077e-005 -0.00479223,-0.00106156l0.00293602 0c0.0055519,0 0.0122794,0.00192845 0.0159645,0.00306149 0.00250942,0.000771836 0.0101669,0.00444927 0.0102361,0.0061283l-0.00113228 -0.000237254c3.04172e-006,-0.00165698 -0.00996087,-0.0054462 -0.0124186,-0.0054462 -0.00028288,0 -0.000453977,0.000223566 -0.000677543,0.000362725 0.000769555,0.000860046 0.000882098,0.000581729 0.0023079,0.00106156 0.000606823,0.000204556 0.0019832,0.000807576 0.0019832,0.0012357 0,0.000196191 -0.00061899,0.000282119 -0.00090339,0.000362725l-2.28129e-005 -0.000160451 -0.0101426 0.000397705 -0.00180678 5.32301e-006c-0.00422495,0 -0.00299685,-0.00278165 -0.00632373,-0.00278165 -0.000900349,0 -0.00146383,0.00189803 -0.00248432,0.00229726l-0.00053154 -0.00192921 7.98451e-005 -0.000368048c0,-0.000564239 0.000526217,-0.000846358 0.00158093,-0.000846358 0.00515571,0 0.00439224,0.00302271 0.00880806,0.00302271l0.000225848 0c0.00159386,0 -0.00148816,-0.00139995 -0.00184784,-0.0016699 -0.000499602,-0.000374131 -0.000729252,-0.000666136 -0.00111327,-0.00109654 -0.000559676,-0.000628875 -0.00155584,-0.000310255 -0.00155584,-0.000860806 0,-0.000581729 0.00412609,0.000241817 0.00496865,0.000241817l0.000451695 0zm-0.0173903 -0.00181362c0,0.00171933 0.00349798,0.00606138 0.00587204,0.00616708 0,0.00151858 -0.00383941,0.00541198 -0.00383941,0.00592451 0,0.000490477 0.000243337,0.00108817 0.00112924,0.00108817 0.00121289,0 0.00392306,-0.00536559 0.00542034,-0.00628723l0 0.000967267c0.00353144,0.00100073 0.0124148,0.000846358 0.0180701,0.000846358 0.00376261,0 0.00611614,0.000181743 0.00925443,0.000365767 0.00258774,0.000151326 0.00597546,0.0013087 0.00745905,0.00132695 -7.14804e-005,-0.00172009 -0.00504545,-0.00517548 -0.00694653,-0.00619674 -0.00326376,-0.00174899 -0.00621043,-0.00307518 -0.0105958,-0.0042432 -0.00469337,-0.00125015 -0.00798451,-0.00184708 -0.0137554,-0.00255124 -0.00581577,-0.00070796 -0.012068,-0.00100681 -0.012068,0.0025923zm-0.0740841 -0.00616708l-0.00406526 0c-0.000323943,0.000120908 -0.00437171,0.00079617 -0.00532681,0.00101669 -0.00144938,0.00033611 -0.00358695,0.0009916 -0.004666,0.00149272 -0.00317784,0.00147828 -0.00451239,0.00227292 -0.00698911,0.00411849 -0.00365691,0.00272386 -0.006507,0.00752369 -0.006507,0.0122361l0 0.000120908c0,0.000323183 0.000324703,0.000357402 0.000677543,0.000483633 0.00180298,-0.000511769 0.00136345,-0.00156496 0.00175127,-0.00281131 0.000365006,-0.00117258 0.000851681,-0.00215126 0.00136421,-0.00313905 0.000857004,-0.00165165 0.0028326,-0.00409415 0.0044295,-0.00536711 0.0034668,-0.00276568 0.00847423,-0.00633742 0.0168473,-0.00633742 0.00982703,0 0.0128399,0.00380747 0.0160367,0.00737617 -0.000931526,-0.000133075 -0.00188282,-0.000483633 -0.00316187,-0.000483633l-0.00632373 0c-0.000815941,0 -0.00111099,0.000380215 -0.00112924,0.000846358 0.00163264,0.0003536 0.000200753,0.0027634 0.0027231,0.00290484 0.00106992,6.00739e-005 0.00623628,-0.00012319 0.00811835,-0.00012319 0.000271473,-0.000218243 0.000451695,-0.00021292 0.000451695,-0.000484394l0 -0.000362725c0,-0.000677543 -0.000451695,-0.000742179 -0.000451695,-0.00169272 0.00135813,0.00104635 0.00305541,0.00707808 0.00283412,0.00919588l-0.00125319 0.00700736c0.000268432,0.000272994 0.000604542,0.00072621 0.00135509,0.00072621l0.000225848 0c0.00192085,0 0.00208206,-0.00683246 0.00204099,-0.00834876 -6.91991e-005,-0.00254136 -0.00112696,-0.00635947 -0.0022349,-0.0083556 -0.00119692,-0.0021581 -0.00335958,-0.00486447 -0.00573744,-0.00636175 -0.00134748,-0.0008494 -0.00283108,-0.00161439 -0.00458995,-0.00225696 -0.00194366,-0.000711762 -0.00541502,-0.00102734 -0.00641955,-0.00140071zm-0.0616975 0.0138048c-9.12516e-005,-8.82098e-005 0.0040721,-0.000576406 0.00436715,-0.000603781 0.000473748,-4.48654e-005 0.00483937,-0.00012471 0.00515571,-0.00012471 0.00121669,0 0.00349798,0.000104939 0.00519678,0.000104179 0.00217635,-1.52086e-006 0.00331091,0.000241817 0.00496865,0.000241817l0 0.000120908c-0.00354436,0 -0.0178853,-0.000160451 -0.0194624,0.000382496l-0.000225848 -0.000120908zm0.0169781 -0.00582413l0.000673741 0.000112544 0.00564999 -0.000596177c-9.96163e-005,0.000481352 -0.00203415,0.00129501 -0.00263717,0.00185393 -0.000624313,0.000579447 -0.00242957,0.00159766 -0.00255732,0.00189423 0.00026463,3.80215e-005 0.000615188,0.000120908 0.000677543,0.000120908 0.00391393,0 0.00417552,-0.00302271 0.00835636,-0.00302271l0.00090339 0c0.000542947,0 0.000663855,0.000196191 0.0012433,0.000369569l-0.000339912 0.00156496 0 0.00157181c-0.00157713,-0.000304932 -0.000764232,-0.00265998 -0.00271017,-0.00265998 -0.00302119,0 -0.00140299,0.00278165 -0.00813051,0.00278165l-0.00136573 4.41049e-005 -0.00879969 -0.000528499 -0.00112924 0c0.000215202,-0.00137714 0.0044584,-0.00122429 0.00451695,-0.00265998 -0.00415955,0 -0.0123737,0.00341053 -0.0130992,0.00507891 0.00113076,0.000200753 -0.00269953,0.00127828 -0.000409111,-0.000581729 0.000926203,-0.000754346 0.00153455,-0.00119159 0.00260903,-0.00186838 0.00171933,-0.00108437 0.00434053,-0.00239916 0.00661498,-0.0031094 0.00531236,-0.00165698 0.0107456,-0.00304248 0.0185096,-0.00338239l0.000682866 0.000114064c-0.000275276,0.00177104 -0.00916698,0.000674501 -0.00925975,0.00290256zm-0.025298 0.00870616c0.00099084,-1.14064e-005 0.00471162,-0.000990079 0.00650015,-0.0012357 0.00215582,-0.000297328 0.00499602,-0.000698835 0.00772901,-0.000698835 0.00403332,0 0.00777691,0.000120908 0.0115205,0.000120908 0.00370786,0 0.00875635,0.000206837 0.0090339,-0.00157181 0.00183188,0.000657011 0.00387895,0.00604542 0.00542034,0.00604542 0.000734575,0 0.00112924,-0.00051253 0.00112924,-0.000846358 0,-0.000934568 -0.0040029,-0.00476865 -0.0040759,-0.0062667l0.000914036 0.000100377c0.00216646,-0.00173302 0.00519526,-0.00355121 0.00519526,-0.00652981 0,-0.00564847 -0.0224274,-0.000622031 -0.0260926,0.000419757 -0.00542034,0.00154063 -0.0172739,0.0064819 -0.0172739,0.0104628zm0.0829454 0.0488751c0.000373371,0.000433445 0.000750544,0.000805295 0.00107297,0.00106764 0.00068971,0.000561197 0.00158626,0.0013452 0.00242729,0.00184404 0.00139767,0.000827347 0.00153683,0.000927724 0.00347668,0.00144101l0.00177865 -0.000626594c7.98451e-005,0.00051405 0.00056576,0.00072545 0.00158093,0.00072545l0.00090339 0c0.000520894,0 0.000677543,-8.36473e-005 0.000677543,-0.000362725 0,-0.000425841 -0.00054903,-0.00126992 -0.000851681,-0.0016334l0.000964225 0.000199993c0.000448654,0.00102734 0.00103875,0.00215886 0.00327517,0.00215886 0.000806055,0 0.00225848,-0.000325464 0.00225848,-0.00072545 0,-0.000118627 -0.000152846,-0.000249421 -0.000380215,-0.0003901l0.000631917 0.00012471 0.000766513 0.000151326c0.00021292,0.000171097 0.000414434,0.000342954 0.0006015,0.000511009 -0.00246988,0.000880578 -0.00500211,0.00163873 -0.00759821,0.00227368 -0.003755,0.000917839 -0.00775486,0.00161287 -0.0119996,0.00208434 -0.00127448,0.00014144 -0.00257101,0.000260827 -0.0038896,0.000359683l0.000185545 -0.0014874 0 -0.00072545c0,-0.000752825 -0.000561958,-0.00181362 -0.00180678,-0.00181362 -0.00171249,0 -0.00361356,0.00215658 -0.00361356,0.00326452l0 0.000241817c0,0.000198472 0.000135356,0.000362725 0.000451695,0.000362725 0.00105091,0 0.000945975,-0.000819743 0.00198852,-0.0012068l0.000162732 0.00153151c-0.00168283,8.82098e-005 -0.0034014,0.000142961 -0.00515419,0.000164253 -0.000171097,-0.000574885 -0.000433445,-0.00097259 -0.000837993,-0.00097259 -0.00049504,0 -0.000761951,0.000444091 -0.000934568,0.000982475l-0.00245391 0c-0.000650928,-0.000199233 -0.00131326,-0.000444091 -0.00198624,-0.000734575 -6.00739e-005,-2.58546e-005 -0.000137638,-6.76782e-005 -0.000599979,-0.00028288 -0.000401507,-0.000187826 -0.000615188,-0.000287442 -0.000628875,-0.000294286l-6.08344e-006 6.08344e-006 -2.1292e-005 -7.6043e-006c-0.000788566,-0.000394663 -0.00161819,-0.000863088 -0.00248965,-0.00140451 -0.000854723,-0.000532301 -0.00175963,-0.00114977 -0.00271397,-0.00185317l-0.0020197 -0.000996163 -0.000785524 -0.000240296 -0.00231171 -0.000332308c-0.00164633,0 -0.00318848,0.000342954 -0.00463254,0.00102962 -0.00107373,0.000511769 -0.00203871,0.00118551 -0.00289572,0.00202198 -0.000451695,0.000439528 -0.000963464,0.00104483 -0.00153759,0.00181439 -0.000449414,0.000603781 -0.00088438,0.00124863 -0.00130414,0.00193681 -0.00174443,-4.94279e-005 -0.00344399,-7.6043e-005 -0.00431468,0.000282119 -0.00136877,0.000562718 -0.00185849,0.0027885 -0.000209879,0.0027885l0.00248432 0c0.000465383,0 0.000859286,-0.000269953 0.00127904,-0.000475269l0 0.000735335 -0.00442798 0.00010646 -0.000419757 0.000456258 0.00040683 0.00026539c0.00141972,0 0.00175887,0.000131554 0.00316187,0.000120908 0.000688189,-5.32301e-006 0.00112468,7.6043e-007 0.00139159,1.97712e-005l6.69178e-005 0.000380215c-5.93135e-005,6.08344e-005 -0.000102658,0.000128513 -0.000102658,0.000204556 0,0.000183264 0.000240296,0.000401507 0.000363485,0.000523936l2.1292e-005 4.41049e-005 -0.000913276 0.000284401 -0.000149805 -0.000731533c-0.00250562,-0.000897307 -0.00338771,0.000375652 -0.00338771,0.00181439l-7.22408e-005 0.00012319 0.000523936 0.00386678 9.12516e-006 0.00187598 -0.00819059 0.00037185c6.76782e-005,-0.000139919 0.000127752,-0.000272994 0.000178701,-0.000400746 3.04172e-005,-7.83243e-005 5.93135e-005,-0.000154367 8.51681e-005,-0.000225848l-1.67295e-005 -3.80215e-006c0.000154367,-0.000427361 2.1292e-005,1.97712e-005 9.7335e-005,-0.000222806l-2.28129e-005 -3.80215e-006 8.82098e-005 -0.000277557 5.32301e-006 7.6043e-007 0 -1.52086e-006 1.52086e-006 -2.1292e-005 0.00112924 -0.00356794 -0.00219688 -0.000704918c-0.000930005,-0.00177636 -0.00172541,-0.00344703 -0.00238471,-0.00501199 -3.57402e-005,-8.59286e-005 -0.000108741,-0.00028364 -0.000438768,-0.00112011 -0.000243337,-0.000616708 -0.000382496,-0.00097411 -0.000419757,-0.00107525l-7.6043e-007 0 0 -2.28129e-006c-1.0646e-005,-2.88963e-005 -0.000107221,-0.000323183 -0.000347516,-0.00103647l-6.08344e-006 1.52086e-006 -6.84387e-005 -0.000203795 -5.32301e-006 1.52086e-006 -6.69178e-005 -0.000203795 0 -1.90107e-005 -7.6043e-007 -2.28129e-006 -6.08344e-006 7.6043e-007c-0.000250942,-0.000774117 -0.000466904,-0.00152238 -0.000647886,-0.00224403 0.002898,-0.000358923 0.0058766,-0.000926203 0.00893581,-0.00170108 0.00104103,-0.000263869 0.00209955,-0.000554353 0.00317479,-0.000870692 0.00124254,-0.000366527 0.00232387,-0.000703397 0.00324019,-0.00100909l8.89703e-005 -3.04172e-005c0.000974871,-0.000326985 0.00207978,-0.000721648 0.00331471,-0.00118323l0.000242577 -9.2012e-005 0.000104179 0.000158169 0.00561045 -0.00248128c0.00342345,-0.00137562 0.00644388,-0.00266987 0.00906128,-0.00388199 0.00266455,-0.00123494 0.00493595,-0.00239992 0.00681269,-0.00349417l2.96568e-005 2.6615e-005c0.000361965,0.000316339 0.00070872,0.000606823 0.00103799,0.000869171l-7.6043e-007 7.6043e-007 2.28129e-006 1.52086e-006 2.43337e-005 1.82503e-005c0.000613667,0.000486675 0.00122961,0.000943693 0.00184404,0.00136801 0.000320141,0.000220525 -0.000238014,-0.000168815 0.000393903,0.000255504 0.000301891,0.000203035 0.000332308,0.000225087 0.000377934,0.000254744l2.43337e-005 1.90107e-005 7.6043e-007 7.6043e-007 1.52086e-006 -2.28129e-006c0.00053078,0.000348277 0.000996163,0.000643324 0.00139615,0.00088438 0.000455497,0.000274515 0.000958141,0.00056576 0.00150869,0.000872213l0.00487664 0.00271702 0.000857004 -0.000835712c0.00144634,0.000387819 0.00305084,0.000793128 0.00481352,0.00121517zm0.00544848 0.00125167c0.000380975,0.000269192 0.000590093,0.000527738 0.00037109,0.000780961 -0.000691991,-0.0002479 -0.00155432,-0.000710241 -0.00235581,-0.00122505 0.000644844,0.000146002 0.00130642,0.000294286 0.00198472,0.000444091zm-0.0364451 0.00017642c0.00169804,0.00021216 0.00485686,0.000298849 0.00659597,0.00046006 0.00228509,0.000210639 0.00382724,0.00047831 0.00596329,0.000797691 0.00386374,0.000577927 0.00771228,0.00140299 0.0125121,0.00140299 0.00229802,0 0.00813127,-0.000483633 0.00813127,-0.00145166 0,-0.000182503 -0.000151326,-0.000387059 -0.000462341,-0.000400746l-0.00382876 0.000280599 -0.00158169 0c-0.00401203,0 -0.0103441,-0.00119159 -0.0138208,-0.00166914 -0.00246531,-0.000339152 -0.0134345,-0.00122277 -0.013509,0.000580208zm0.0521153 0.0453117l-0.000166534 -8.6689e-005 0.00090263 0c0,0.00111403 -0.00107221,0.0014509 -0.00318848,0.00143645l0.00245239 -0.00134976zm-0.0182351 0.00136421c-0.00240068,0 -0.00261056,-0.000342193 -0.00328658,-0.00119083l0.000158169 -0.000254744 0.000869171 -5.32301e-006c0.000400746,0.000801493 0.00153379,0.000870692 0.00225924,0.0014509zm0.0146801 -0.004958c0.00274591,-0.000342954 0.00489945,-0.00153835 0.00564695,-0.00157181l0 0.00120908 -0.000472987 0.00241665 -0.000656251 1.52086e-006c-0.00111327,0 -0.0042508,-0.00152086 -0.00451771,-0.00205544zm-0.019197 -0.00157181c0.000746742,3.34589e-005 0.00290028,0.00122885 0.00564619,0.00157181 -0.000361204,0.000723929 -0.00345767,0.00203491 -0.0051945,0.00205544l-0.000451695 -0.00217635 0 -0.0014509zm0.0274599 -0.00653057l0.000320141 7.6043e-007 -0.000158169 0.00532149 -0.000346756 -1.52086e-006 0.000184784 -0.00532073zm-0.00301662 -0.000809097c0.000334589,0.000101898 0.000852442,0.000226608 0.000852442,0.000568041l0 0.00241817 -0.000341433 0.00218243 -0.000234973 6.08344e-005 -0.00563022 -0.00304552 0.00535419 -0.00218395zm-0.0244433 0.00516332c-0.000352839,-0.000392382 -0.000453977,-0.00210639 -0.000451695,-0.00278165 1.52086e-006,-0.0013087 -0.000683626,-0.00178473 0.000676782,-0.00241817l0.00504925 0.00203795 0.000146002 -0.000103418c-0.000136877,0.000874494 -0.00422191,0.00283564 -0.00542034,0.00326529zm-0.00349113 -0.00834115l0.000328506 -2.28129e-006 0.000400746 0.00798831 -0.000729252 -0.00798603zm0.0283138 -0.00569334c0.000332308,0.000129273 0.000924682,0.000470706 0.000924682,0.000733054l0 0.00398997 -0.000341433 0.00218243 -0.000245619 4.48654e-005 -0.00449794 -0.00351927 0.00416031 -0.00343106zm-0.0224395 0.00192997c0.000661574,0.000580208 0.0013125,0.00112848 0.00190792,0.00134216l-0.00462037 0.00367364 -0.000245619 -4.10632e-005 -0.000403788 -0.00290408 3.72611e-005 -0.00160831 0.0033246 -0.000462341zm0.0201712 -0.00347592c1.90107e-005,3.57402e-005 3.11776e-005,6.99595e-005 3.11776e-005,0.000101898l0 0.000121669c0,0.00044333 -0.000350558,0.00058401 -0.000678303,0.000846358l-0.00292005 -0.000187826c0.000256265,0.000688949 0.00111327,0.000877536 0.00111327,0.00151782l0 0.000120908c0,0.000643324 -0.000922401,0.00090263 -0.00158093,0.00120908 -0.00101898,-0.000288203 -0.00321662,-0.00132999 -0.00406526,-0.00132999 -0.000172618,0 -0.000956621,0.00030037 -0.00112924,0.000362725 0.000939131,0.00215962 0.00835636,0.00415119 0.00835636,0.00616708l0 0.000241817c0,0.000326224 -0.00010646,0.000333068 -0.000225848,0.000604542 -0.00112696,-0.000320141 -0.00196647,-0.0014509 -0.00293602,-0.0014509 -0.000200753,0 -0.000451695,0.000133836 -0.000451695,0.000241817 0,0.000332308 0.000677543,0.000634198 0.000677543,0.00132999l0 0.000120908c0,0.000326224 -0.000107981,0.000333068 -0.000225848,0.000604542 -0.00186381,0 -0.0047428,-0.0014874 -0.0047428,-0.000846358 0,0.00287671 0.00858221,0.00657924 0.00858221,0.00701344 0,0.000430403 -0.000534582,0.000473748 -0.00135509,0.000483633 -0.000228889,-0.00046082 -0.000951298,-0.000846358 -0.00203263,-0.000846358 -0.000520894,0 -0.000677543,8.36473e-005 -0.000677543,0.000362725l0 0.000241817c0,0.000298088 0.000682866,0.000526217 0.00090339,0.000967267 -0.000595416,0.000158169 0.000187066,0.000120908 -0.000677543,0.000120908 -0.00175127,0 -0.00192389,-0.00127068 -0.00383941,-0.00181362l-0.000661574 0.000143721 -1.5969e-005 0.00046082c0,0.00265846 0.00654958,0.00463406 0.00654958,0.00519982 0,0.000107221 -0.000250181,0.000241817 -0.000451695,0.000241817 -0.00115737,0 -0.000798451,-0.000600739 -0.00271017,-0.000362725l0.000231171 0.000967267c-0.00105624,-0.000298088 -0.00201438,-0.00120908 -0.00294134,-0.00120908l-0.00090339 0c-0.000149044,0.000342193 -0.000225848,0.000206076 -0.000225848,0.000483633 0,0.00107297 0.00237254,0.00188434 0.00271017,0.00265998l-0.00247672 0.000148284 -0.00271778 -2.73755e-005 -0.00272462 -0.00019543c0.000921641,-0.000771836 0.00295047,-0.00154747 0.00295047,-0.00270637 0,-3.34589e-005 -0.000156649,-0.000221285 -0.000225848,-0.000362725l-0.000677543 0c-0.000987038,0 -0.00195278,0.000912516 -0.00316187,0.000967267 0.000149044,-0.000342954 0.000225848,-0.000206837 0.000225848,-0.000483633 0,-0.000165774 -0.000471466,-0.000288963 -0.000677543,-0.000362725l-0.00157257 0.000146002c3.95423e-005,-0.00120376 0.00586367,-0.00286758 0.00586367,-0.00462037l0 -0.000362725c0,-0.000326985 -0.000108741,-0.000333068 -0.000225848,-0.000604542 -0.00157181,6.99595e-005 -0.0047428,0.00225163 -0.0047428,0.00120908 0,-0.000466904 0.00090339,-0.000622031 0.00090339,-0.00108817 0,-0.000147523 -0.000467664,-0.000362725 -0.00090339,-0.000362725 -0.000917839,0 -0.00206685,0.000875255 -0.00248432,0.00120908 -0.000489717,-0.000138398 -0.00112924,-0.000210639 -0.00112924,-0.000604542 0,-0.000629636 0.00813051,-0.00368884 0.00813051,-0.00652981l0 -0.000483633c0,-0.000279078 -0.000156649,-0.000362725 -0.000677543,-0.000362725 -0.0010243,0 -0.00125775,0.00157181 -0.00316187,0.00157181 -0.000604542,0 -0.000669178,-0.000174138 -0.00090339,-0.000362725l0.000904911 -0.00181362 -0.000269953 -0.00035436c-0.00188358,1.44482e-005 -0.00165774,0.000907193 -0.00311928,0.00132163 -0.000119387,-0.000271473 -0.000225848,-0.000278317 -0.000225848,-0.000604542l0 -0.000241817c0,-0.00189119 0.00835636,-0.00493975 0.00835636,-0.00580436 0,-0.000391621 -0.000624313,-0.00072545 -0.00135509,-0.00072545 -0.000480592,0 -0.00313221,0.00112924 -0.00383941,0.00132999 -0.000412913,-0.000192389 -0.000929245,-0.000365767 -0.00125775,-0.000627354l0.00570018 -0.000792368 7.6043e-007 3.04172e-006 3.49798e-005 -3.80215e-006 0.000438007 -5.55114e-005c0.00393066,-0.000652449 0.00770239,-0.00140375 0.0113144,-0.00225391zm0.00565532 -0.0014471c8.36473e-006,0.000440289 2.20525e-005,0.000846358 2.20525e-005,0.00118627l-0.000225848 0c0,-0.000277557 -4.56258e-006,-0.000673741 -2.35733e-005,-0.00112392l0.000227368 -6.23552e-005zm-0.00230638 0.00061899c-3.11776e-005,0.000273755 -7.83243e-005,0.000510248 -0.000155888,0.000688189 -0.000114064,-4.03028e-005 -0.000446372,-0.000199233 -0.000888182,-0.000421278 0.000349037,-8.82098e-005 0.000697314,-0.00017642 0.00104407,-0.000266911zm0.0267223 -0.00185089c7.30012e-005,0.000465383 0.000641803,0.000720127 0.00112924,0.000967267l-0.000677543 0c-0.000528499,0 -0.00090339,-0.000200753 -0.00090339,-0.000483633 0,-0.000269953 0.000260067,-0.000364246 0.000451695,-0.000483633zm0.00703017 -0.000830389l0.00324703 0.00161895 0.000981715 -0.000446372 3.42193e-005 -0.00058401 0.000225087 0 0 0.00120908 -0.00609789 0c-0.000748263,0 -0.000844077,-0.000345996 -0.000713283,-0.000617469l0.00232311 -0.00118019zm-0.00330483 0.000649407c6.08344e-006,-3.04172e-006 -7.45221e-005,7.98451e-005 -0.000111783,6.00739e-005l0.000111783 -6.00739e-005zm-0.00259611 -0.002479c0.000656251,0 0.000846358,-0.000365006 0.00090339,-0.00072545l0.00264097 0.00112924c-0.000273755,0.000645605 -0.00227292,0.000539905 -0.00106004,0.00189347l-0.00237558 -0.00103494 -0.00148512 0.000660053 2.1292e-005 -0.00204327c0.000928485,4.10632e-005 0.000504925,0.000120908 0.00135509,0.000120908zm0.00835636 0.000362725c0.0009551,-4.33445e-005 0.00172541,-0.000313297 0.00180754,-0.000846358 0.00110566,0.000158169 0.00056652,0.00210183 0,0.00253907l0 -0.000604542 -0.00180754 -0.00108817zm0.000126231 -0.00409111c-0.000203035,0.000305693 -0.000352079,0.000120148 -0.000352079,0.000463102l0 0.000120908c0,0.00038934 0.000438007,0.000462341 0.00112772,0.000479831l9.12516e-005 0.000121669c-0.000706439,0.000539145 -0.00257405,0.00117182 -0.00257405,0.00169652l0 0.000362725 -0.00597013 -0.00261968c-0.00148816,0.000713283 -0.00118019,0.00103038 -0.000805295,0.00189423 -0.00267975,0.000333829 0.000346756,-0.00144177 -0.00225848,-0.00181439l0 -0.000241817 0.00608876 -0.00040759c-0.000295047,0.000288963 -0.000894265,0.000533822 -0.000894265,0.000891224 0,3.04172e-006 0.000366527,0.000410632 0.000451695,0.000604542l0.00112924 0c0.000507207,0 0.00180678,-0.000500363 0.00180678,-0.000846358l0 -0.000120908c0,-0.000326224 -0.000107981,-0.000333068 -0.000222045,-0.000587052l0.0022714 -0.000152086 0.000109502 0.000155128zm-0.00644996 -0.00135052c0.000293526,-0.000586291 0.00114369,-0.000714804 0.00203263,-0.000967267 0.000723929,0.00033611 0.00139767,0.000846358 0.00271017,0.000846358l0 0.000120908 -0.0047428 0zm-0.00248432 -0.00072545c0.000604542,0 0.0014106,0.000382496 0.00158093,0.00072545l-0.00202578 -0.000147523c-0.000447893,-8.36473e-006 -0.000384017,-3.80215e-006 -0.000684387,-9.42933e-005 0.000257786,-0.000206837 0.000490477,-0.000483633 0.00112924,-0.000483633zm0.0162238 0.0102567c-0.00058477,-3.87819e-005 -0.00117334,-7.30012e-005 -0.00176876,-9.96163e-005l0 -0.000846358c0,-0.000225087 6.84387e-006,-0.000446372 1.82503e-005,-0.000664616 0.000490477,0.000480592 0.000984756,0.000939891 0.00148208,0.00137714 8.97307e-005,7.83243e-005 0.000178701,0.000155888 0.000268432,0.000233452zm-0.00823241 -0.00954263l-0.000234212 -8.36473e-006 0.00019543 -4.86675e-005 3.87819e-005 5.70322e-005zm-0.00199537 -0.00313373c-0.000961183,-6.84387e-006 -0.00199689,-4.10632e-005 -0.00302803,-6.61574e-005 0.000545989,-0.000359683 0.00107829,-0.000720127 0.00159614,-0.00108285 9.58141e-005,-6.69178e-005 0.000273755,-0.00019391 0.000533061,-0.000380215 0.000298088,0.000519373 0.000597698,0.00102886 0.000898828,0.00152922zm-0.09205 0.0119722l-0.00654958 -0.000120908 0 -0.0014509 2.43337e-005 3.87819e-005 0.000834191 0.00122353 0.000382496 9.88559e-006 0.00306453 -0.00152922c0.000517092,0.000446372 0.00106232,0.000874494 0.00163568,0.00128437 0.000215202,0.000154367 0.000434205,0.000304932 0.000657011,0.000453216 -2.28129e-005,2.28129e-005 -3.95423e-005,5.24696e-005 -4.86675e-005,9.12516e-005zm-0.00654806 -0.00205468c-0.000119387,-0.000272234 -0.000228129,-0.000279078 -0.000228129,-0.000605302l0 -0.00157181 0.000451695 0c8.21264e-005,0.000533061 0.000852442,0.000803014 0.00192845,0.000904911l-0.00215202 0.0012722zm-0.0116985 -0.0583341c0.00719062,0 0.013763,0.00128817 0.019724,0.00386602 0.00593363,0.00256645 0.0112399,0.00640662 0.0159242,0.0115228l0.000180982 0.000323943 0.000649407 0.00254896c0.00169196,-0.00241817 0.0050675,-0.00479831 0.0101312,-0.0071412 0.00559904,-0.00259154 0.013303,-0.00516788 0.023114,-0.00773129 0.000691231,-0.00021216 0.00142961,-0.000422038 0.00221361,-0.000628115 0.000746742,-0.000196951 0.00150565,-0.000379454 0.00227368,-0.000546749 0.00392686,-0.000859286 0.00793052,-0.00129197 0.0119988,-0.00129197l0 3.80215e-006 0.00377173 0 0.000348277 4.03028e-005c0.00272386,0.000671459 0.00478538,0.00156801 0.00618686,0.00269192 0.00147067,0.00118019 0.00220525,0.00258774 0.00220525,0.00422647l0 0.000683626 -0.000882098 0.000149044 -4.56258e-006 7.6043e-007c-0.000383257,6.46365e-005 -0.00077868,0.000138398 -0.00118703,0.000222045 -0.000396184,8.06055e-005 -0.00072621,0.000154367 -0.00099084,0.000221285 -0.00112924,0.000284401 -0.00170032,0.000469185 -0.00170032,0.000549791l0 0.000939131 -0.00123494 -9.04911e-005 -0.0026174 -0.000190868 -6.91991e-005 0.000155888 -0.000701116 -0.00021292 -0.000911755 -6.61574e-005 9.96163e-005 -0.000179461 -0.000295047 -8.97307e-005 -9.50537e-005 0 -2.28129e-006 0 0 -3.04172e-006c-0.00546293,0 -0.0110566,0.000847879 -0.0167766,0.00254668 -0.000930005,0.000276036 -0.00186762,0.000576406 -0.00281283,0.000900349 -0.00480896,0.00164937 -0.00970384,0.00389264 -0.0146831,0.0067298l-0.00245619 0.0026577c0.000519373,0.000687428 0.00379074,0.00180982 0.00981563,0.0033687 0.00708568,0.00183264 0.0177112,0.00404929 0.0318757,0.00665148l0.000207597 5.32301e-005c0.0026615,0.000928485 0.00504697,0.00196571 0.0071564,0.00311092 0.00212084,0.00115129 0.00397477,0.00241893 0.0055595,0.00380367l0.000277557 0.000558155 0 0.00190031 0 0.00035436 -0.000330787 0.000250942 -2.28129e-006 1.52086e-006 -1.29273e-005 6.84387e-006c-0.00151554,0.00111935 -0.0031132,0.00219156 -0.00479299,0.00321586 -0.00168207,0.00102582 -0.00344551,0.00200373 -0.00529183,0.00293374 -0.00946811,0.0047717 -0.0211209,0.00830845 -0.0349395,0.0106019l-3.49798e-005 3.80215e-006 -0.0132611 0.0018448 -0.000526978 7.37617e-005 -0.000408351 -0.00026463 -0.000528499 -0.000342193 -0.00226152 0.00051329 -0.000322422 3.65006e-005c-0.00643856,0 -0.0117851,-0.000741419 -0.0160382,-0.0022273 -0.00433597,-0.00151402 -0.00752521,-0.00379454 -0.00956697,-0.00684159l-0.00012319 -0.000384017 0 -0.0012357 0.0001057 -0.00035436c0.000782482,-0.00129425 0.00150793,-0.00226912 0.00218243,-0.00292613 0.00085016,-0.000830389 0.00171781,-0.0012433 0.00261208,-0.0012433l0.000784763 0.000240296c0.00209498,0.00154367 0.00413826,0.00281587 0.0061283,0.00381127 0.0019102,0.0009551 0.00377934,0.00166078 0.00560665,0.00211019l0.00358771 0 0 -3.80215e-006c0.00992665,0 0.01901,-0.00100909 0.0272553,-0.00302575 0.00805447,-0.00196951 0.0153242,-0.00490249 0.0218137,-0.00879589l0 -0.000173378c-0.020886,-0.00379606 -0.0348665,-0.00681953 -0.0419377,-0.00907041l-0.00022965 -0.000102658 -1.52086e-006 1.52086e-006c-0.000904911,-0.000504165 -0.00175203,-0.00101517 -0.00254136,-0.00153303 -0.000791607,-0.000519373 -0.00151782,-0.00104179 -0.00217787,-0.00156496 -0.00216038,-0.00171401 -0.00365082,-0.0034706 -0.00447285,-0.00526674 -0.000822024,0.00113988 -0.00243109,0.00241056 -0.00482493,0.00381432 -0.00339912,0.00199233 -0.00846662,0.00433901 -0.0151957,0.00704006l7.6043e-007 0 -3.80215e-006 1.52086e-006 0 -7.6043e-007 -1.29273e-005 5.32301e-006c-0.00147143,0.000644084 -0.00294743,0.00125395 -0.00442494,0.00182807 -0.00149424,0.000580208 -0.00293298,0.00110186 -0.00431468,0.00156572 -0.00716781,0.00240296 -0.0137813,0.00363181 -0.0198343,0.0036858 0.000101898,0.00228585 0.000608344,0.00483025 0.00151934,0.00763015 0.000171097,0.000527738 0.000352839,0.00105243 0.000543707,0.00157333 0.00100681,0.00274819 0.0023771,0.00572071 0.00411088,0.00891528l5.32301e-005 0.000521655 -7.6043e-007 2.28129e-006 4.56258e-006 7.6043e-007c-7.30012e-005,0.00023041 -0.000179461,0.000463862 -0.000321662,0.000699595 -0.000133075,0.000221285 -0.000296568,0.000437247 -0.000488956,0.000645605 -0.00092012,0.000994642 -0.00250638,0.00181286 -0.00473672,0.00244478l-0.000445612 0.000126992 -0.000427361 -0.000153607c-0.0018775,-0.00067298 -0.00338011,-0.00139159 -0.00450707,-0.00215962 -0.001203,-0.000818983 -0.00199309,-0.00170032 -0.00237026,-0.00264553l-3.04172e-005 -0.000390861 0.000691231 -0.00307518c-0.000755867,-0.00243642 -0.00145774,-0.00478234 -0.00210563,-0.00703702 -0.00065473,-0.00227749 -0.00125775,-0.00447513 -0.00181058,-0.0065914 -0.00262576,-0.0100612 -0.0040759,-0.0182427 -0.00435878,-0.0245383 -0.000739898,0.000995402 -0.00160527,0.00282119 -0.00258546,0.00547661l0.000594656 0.00132087 0.000508727 0.00113 -0.000447133 0 0 0.000213681 -4.56258e-006 0c0,0.00110795 -0.000278317,0.00203947 -0.000834191,0.00279686 -0.000585531,0.00079693 -0.00145926,0.0013855 -0.00261816,0.00176724l-0.000445612 7.37617e-005 -0.000730012 0c-0.00113304,0 -0.00202426,-0.000628875 -0.00267367,-0.00188891 -0.000493519,-0.000958141 -0.000899588,-0.0023733 -0.00121593,-0.004247l-1.29273e-005 -0.00010646 0 -0.0021216 0 -3.80215e-006 3.80215e-006 0c7.6043e-007,-0.00163797 0.000248661,-0.00319 0.0007437,-0.00465383 0.000497321,-0.00147371 0.00124482,-0.00285541 0.00224023,-0.00414586 0.00503252,-0.00652373 0.016385,-0.0106605 0.0340558,-0.0124102l0.000145242 -9.88559e-006zm-0.0148329 0.010624l0 0.00628267 0 0.0003536 -0.000330787 0.000250942 -0.000215202 0.000162732 0.000488196 0.00112315 5.32301e-005 0.000237254 0.000685147 0.014055 0.00119616 0.000629636c0.0021178,-0.000373371 0.0041778,-0.000777159 0.00617849,-0.00120984 0.00215734,-0.000466143 0.00420518,-0.000958141 0.00614351,-0.00147447 0.00999357,-0.0026615 0.0177826,-0.00611994 0.0233672,-0.0103593l0.00303335 -0.00327365c-0.00256873,-0.00320901 -0.00564847,-0.00562718 -0.0092415,-0.00725526 -0.00375044,-0.00170032 -0.00809021,-0.00254972 -0.0130208,-0.00254972l0 -3.04172e-006 -0.0020813 0c-0.00531616,0.000390861 -0.00938979,0.000888182 -0.012214,0.00149424 -0.00235049,0.000504165 -0.00369949,0.00101669 -0.00404168,0.00153607zm0.17096 -0.00989623c0.002625,0.000507967 0.00461277,0.00125851 0.00596937,0.00225619 0.00144025,0.00105928 0.00215734,0.00236494 0.00215734,0.00392306l0 0.000535342 -4.03028e-005 0.000210639 -0.0153295 0.0451254 -8.36473e-006 3.34589e-005 -7.6043e-007 2.28129e-006 -1.52086e-006 -7.6043e-007c-0.000358923,0.000924682 -0.000736096,0.00178397 -0.00113076,0.00257938 -0.000393903,0.000792368 -0.000812139,0.00153151 -0.00125547,0.00221513 -0.0023733,0.00366755 -0.00533974,0.00550095 -0.00888714,0.00550095 -0.00880806,0 -0.0169454,-0.00717389 -0.0243596,-0.0215209l-2.6615e-005 -5.70322e-005 -4.56258e-006 -9.88559e-006 0 -3.04172e-006c-0.000923922,-0.00225848 -0.00175203,-0.00425993 -0.00248204,-0.00600435 -0.000716325,-0.00171021 -0.00145242,-0.00344323 -0.00220829,-0.00519678 -0.00350938,-0.0081442 -0.00576862,-0.012738 -0.00675262,-0.0137828l-0.000361204 -0.000382496 0.000233452 -0.000433445c0.000416715,-0.000775638 0.000842556,-0.00137182 0.00127904,-0.00178777 0.000595416,-0.00056652 0.00125319,-0.00085016 0.0019794,-0.00085016l0.00148436 0 3.04172e-006 0 0 3.80215e-006c0.000856244,0 0.00167142,0.000103418 0.00244478,0.000309495 0.000758148,0.000201514 0.00147219,0.000499602 0.00214213,0.000892744 0.00318848,0.00187218 0.00540437,0.00597926 0.00663703,0.0123273 0.00377858,0.00923922 0.0071085,0.016166 0.00999053,0.0207787 0.00270713,0.00433293 0.00483177,0.00649939 0.00637544,0.00649939l0 -3.04172e-006 0.000220525 0c0.000722408,-0.000748263 0.00145166,-0.00163721 0.00218852,-0.00266683 0.000862327,-0.00120376 0.00173302,-0.00259763 0.00261132,-0.00417932 0.00455802,-0.00820808 0.00930842,-0.021435 0.0142413,-0.0396731l0 -0.000412153 -0.000691991 -0.00365615 -8.06055e-005 -0.000427361 0.000411392 -0.000304932 0.00219004 -0.00162352 0.000451695 -0.000335349 0.000610625 0.000117867z"/>
 </g>
</svg>
