<?xml version="1.0" encoding="UTF-8"?>
<!DOCTYPE svg PUBLIC "-//W3C//DTD SVG 1.1//EN" "http://www.w3.org/Graphics/SVG/1.1/DTD/svg11.dtd">
<!-- Creator: CorelDRAW -->
<svg xmlns="http://www.w3.org/2000/svg" xml:space="preserve" width="1in" height="2in" style="shape-rendering:geometricPrecision; text-rendering:geometricPrecision; image-rendering:optimizeQuality; fill-rule:evenodd; clip-rule:evenodd"
viewBox="0 0 0.225771 0.241298"
 xmlns:xlink="http://www.w3.org/1999/xlink">
 <defs>
  <style type="text/css">
   <![CDATA[
    .fil0 {fill:#28166F}
   ]]>
  </style>
 </defs>
 <g id="Layer_x0020_1">
  <metadata id="CorelCorpID_0Corel-Layer"/>
  <path class="fil0" d="M0.141844 0.231786c0.00283965,0.00162987 0.00520965,0.00368877 0.00803345,0.00556436 0.00562777,0.00373633 0.00438233,0.00174382 0.00897075,0.00394737l0.012502 -0.018857 -0.0029853 -0.000185281c0.00150602,-0.0028446 0.00941364,-0.0191255 0.00952461,-0.0217551 0.000458743,-0.0108127 0.00864379,-0.0121037 0.0149493,-0.0163275 0,-0.00773522 0.00162987,-0.00966432 0.00737555,-0.0116638 0.00336874,-0.0011741 0.0116598,-0.00315472 0.0116598,-0.00737754l0 -0.000679692c0,-0.00234226 -0.00180624,-0.00478262 -0.00357681,-0.00696338l0.00107403 -0.000645014c0.00361446,-0.00186866 0.00762524,-0.00327065 0.0115151,-0.00442593l0.00488467 -0.00145054 0 -0.0509878c0,-0.00210447 -0.000539989,-0.00415048 -0.00136434,-0.00607463 -0.00073815,-0.00172004 -0.00163384,-0.00338063 -0.00260384,-0.0049788 -0.00111367,-0.00183794 -0.00238586,-0.00357383 -0.0037928,-0.00519776l-2.77425e-005 -3.17058e-005 -2.87334e-005 -3.17058e-005c-0.00132867,-0.00149513 -0.00278614,-0.00293873 -0.00420101,-0.0043536l-0.00449429 -0.00449429 -0.0127209 0.0110138c-0.000164474,-0.00442593 -0.000286343,-0.0109672 -0.000299223,-0.0227063 0,-0.00579324 0.00479253,-0.0103153 0.00734781,-0.0144113 0.00278614,-0.00447051 0.00375416,-0.00940968 0.00692771,-0.0141507l0.00205097 -0.0013683 0.00489656 -0.00528099c-0.00232047,-0.000731214 -0.00210348,-0.00155358 -0.00286739,-0.00151197l-0.0163523 0.000697527 -0.00274354 -0.00337369 -0.00672063 -0.00084912c-0.000488467,6.04391e-005 -0.0158519,0.00689799 -0.0170191,0.00760047 -0.00502636,0.00302295 -0.0045904,0.00917188 -0.0102826,0.0125941 -0.000992787,-0.000231848 -0.0022957,-0.000571695 -0.00319337,-0.000941265 -0.00163285,-0.000671766 -0.0043209,-0.000192216 -0.0087389,-0.000192216 -0.00441701,0 -0.00240072,-0.000767874 -0.00432189,-0.00220851 -0.00192018,-0.00144162 -0.00412869,-0.000480541 -0.00566443,0.000288324 -0.00153773,0.000767874 -0.00355501,0.000767874 -0.00585962,-0.000672757 -0.00186172,-0.0011642 -0.00547915,-0.000823359 -0.0067999,-0.000648977l0 -5.25127e-005c-4.35954e-005,2.17977e-005 -8.71909e-005,4.75587e-005 -0.000129795,7.03472e-005 -0.000234821,3.26966e-005 -0.00036858,5.54851e-005 -0.00036858,5.54851e-005l-0.000140694 0.000229867c-0.000967026,0.000555842 -0.00172202,0.00100468 -0.00344008,0.00100468 -0.00304673,-9.90805e-007 -0.00291396,-0.00400087 -0.00501149,-0.00586755 -0.0017022,-0.00151395 -0.00522055,-0.0027911 -0.00731016,-0.00356888 -0.00727449,-0.0027049 -0.00834753,-0.00209654 -0.0144618,-0.00661462 -0.0112506,-0.00831286 -0.0195526,0.0042565 -0.0303216,-0.0118312l0.00161204 -0.00811866c0.000275444,-0.00323399 -0.0106799,-0.00459932 -0.013472,-0.00376011 -0.00223129,0.000670775 -0.00768568,0.0059161 -0.00938293,0.00763019 -0.00337666,0.00341332 -0.0148561,0.0142587 -0.0181852,0.01649l-0.00155358 0.000949192 -0.00402267 0.00435756c0.0019499,0.00391269 0.00275939,0.00612219 0.00489854,0.00965143 0.00249088,0.00411283 0.00504815,0.00203511 0.0062827,0.00731611 0.000490449,0.00209654 0.00109187,0.00369372 0.0017458,0.00496988 -0.000414157,-1.08989e-005 -0.000828313,-1.68437e-005 -0.00124247,-1.68437e-005 -0.00593591,0 -0.0113715,0.00185875 -0.0160768,0.00547816 -0.0019073,0.00146738 -0.00359464,0.00333406 -0.00509472,0.00520866l-0.00381757 0.00477271 0.00872503 0.00872404 0.0041812 -0.00167248c0.000943247,-0.000377497 0.00190532,-0.000758957 0.00287036,-0.00107998 0.00108493,-0.000361644 0.00270391,-0.000853083 0.00387504,-0.000867945 0.000740132,0.000150602 0.00222039,0.00137326 0.0027376,0.00183794 0.000695545,0.000625198 0.00172796,0.00167644 0.00172796,0.00270391l0 0.00725864 -0.0272501 0.0189234 0.00574964 0.00766883 0.00167842 0.000719325c0.00294071,0.0012603 0.00570902,0.00300908 0.00825935,0.00493124 0.00177552,0.00133759 0.00349259,0.00280497 0.00504617,0.00441503 -0.00211438,0.0030497 -0.00358672,0.00584773 -0.00347872,0.00779764l0.00043001 0.00636592c-0.00142676,0.000673748 -0.00282974,0.00139505 -0.00418813,0.00217779 -0.0024572,0.00137425 -0.00456959,0.00338063 -0.00640853,0.00549203 -0.0029526,0.00332217 -0.0056466,0.00714172 -0.00815532,0.0108047l-0.00320426 0.00467759 0.00400979 0.00400979c0.00027049,0.00027049 0.00054098,0.000539989 0.000810479,0.000810479l0.00330334 0.00330533 0.00427731 -0.00188154c0.00173688,-0.000763911 0.00347971,-0.0015298 0.00522353,-0.00227687 0.00286739,-0.00124049 0.00572586,-0.00249386 0.00855263,-0.00379379 0.000474596,-0.000217977 0.000961081,-0.000404249 0.00145351,-0.000560796 0.000967026,0.000382451 0.00199251,0.00076292 0.00301799,0.0012712l0 4.95403e-006 0.000391368 0.000213023 0.000481531 0.000261573 0 0.0244115 0.00682863 0c0.000631143,0 0.00126328,0 0.00189442,0 0.00145153,0 0.00290207,2.57609e-005 0.00435162,6.53932e-005 0.00188847,5.05311e-005 0.00377794,6.93564e-005 0.00566642,7.03472e-005 0.00220157,0 0.00441602,0.000131777 0.00660867,0.000314085 0.00210645,0.000176363 0.00423272,0.000379478 0.00632431,0.000692573l0.00784024 0.0011751 0 -0.00633026c0.00692771,0.00375119 0.0137167,0.00755687 0.0171251,0.00923133 0.0126992,0.00624108 0.0209803,0.00928583 0.0263772,0.0158985 0.00151197,0.00185082 -0.00295458,0.00582792 -0.000358672,0.00819495 0.00539593,0.00491737 0.0127645,0.0102172 0.0276643,0.0187728zm0.056248 -0.0956008c-0.000203115,-0.00312698 -0.000497384,-0.00590916 -0.000494412,-0.0098169 7.92644e-006,-0.00873791 -3.86414e-005,-0.0148977 -0.000118897,-0.0194802l0.000826332 -0.000660867 0 0.0300581c-7.1338e-005,-3.26966e-005 -0.000142676,-6.6384e-005 -0.000213023,-0.000100071zm-0.0294844 -0.0617004c0.000480541,-0.000796607 0.00100369,-0.0015734 0.0015625,-0.0023274 0.00313986,-0.00423867 0.00719226,-0.00752021 0.0118381,-0.00998633l0.00258006 -0.0013683 0.00536719 0.00715659 -0.00259591 0.00206583c-0.00184785,0.00147036 -0.00534539,0.00457257 -0.00534539,0.00721108 0,0.0012613 0.00112952,0.00324588 0.0017775,0.00427433 0.00198557,0.00315869 0.00397115,0.00631737 0.00595672,0.00947606l0.000176363 0.000281389 0.000119887 0.000310122c0.00043001,0.00111862 0.000780755,0.00228282 0.00108394,0.00345296l0.0179633 -0.0155527 0.00224616 0.00224715c0.00136632,0.00136632 0.0027802,0.00276336 0.00406428,0.00420696l2.77425e-005 3.26966e-005c0.00128111,0.00147729 0.00243936,0.00305763 0.00345296,0.0047301 0.000886771,0.00146243 0.00171112,0.00298133 0.00238487,0.00455473 0.000639069,0.00149017 0.0010879,0.00309726 0.0010879,0.00472911l0 0.0484395 -0.00244234 0.000725269c-0.00413463,0.0012286 -0.0083733,0.00272174 -0.0122087,0.00471722 -0.00188847,0.00113249 -0.00377695,0.00226597 -0.00566542,0.00339945 -0.00135443,0.00081147 -0.00291495,0.00181714 -0.00403555,0.00293873l-0.00214708 0.00214608 -0.00238388 -0.00188154c-0.00177057,-0.00139902 -0.00366994,-0.00265536 -0.00561588,-0.00381064 -0.00202917,-0.0012177 -0.00411283,-0.00235316 -0.00625,-0.00335289 -0.00232344,-0.00107601 -0.00467561,-0.00208267 -0.00704661,-0.00304772 -0.00207673,-0.000845157 -0.00427532,-0.00163681 -0.006465,-0.00213519l-0.00273264 -0.000621235 0 0.00133263 -0.00227687 0.000803543c-0.00154467,0.000545934 -0.00308438,0.00110376 -0.00461913,0.00167347 -0.0015298,0.000568722 -0.00300808,0.00130588 -0.00441998,0.0021233 -0.00168734,0.000976934 -0.00325876,0.00220652 -0.00470533,0.00350943 -0.00127021,0.0011424 -0.00254042,0.00228975 -0.00382649,0.00341531l-0.00208267 0.00182308 -0.00221445 -0.00166158c-0.00182804,-0.00137028 -0.00379776,-0.00255529 -0.00590718,-0.00344107 -0.00183002,-0.000768865 -0.00373236,-0.00115528 -0.00571695,-0.00115528 -0.00117311,0 -0.00234623,0 -0.00351934,0 -0.00173787,0 -0.00397412,0.000169428 -0.0055495,0.000977925 -0.00156646,0.000802552 -0.00295062,0.00196378 -0.00415643,0.00323597l-0.00222436 0.00234821 -0.0076074 -0.006466 0.0189174 -0.0254984 -0.0125416 -0.00797301 0 -0.0280289 0.00285253 -0.000475587c0.00130786,-0.000218968 0.00256817,-0.00081147 0.0036858,-0.00151098 0.00155061,-0.00107899 0.00310816,-0.00216095 0.00468948,-0.00319337 0.00112655,-0.000734187 0.00240568,-0.00212924 0.00330632,-0.00312896 0.00130291,-0.00149017 0.00263356,-0.00295656 0.00398799,-0.00440116l0.00182506 -0.00194693 0.00233037 0.00130093c0.00337171,0.00188154 0.00683259,0.00366499 0.0103807,0.00519182 0.00209654,0.000902624 0.00473209,0.00182011 0.00704264,0.00182011 0.0016814,0 0.00322507,-0.000396322 0.00466372,-0.00126625 0.00032003,-0.000194198 0.000830295,-0.000519182 0.00109385,-0.000914513 -0.000491439,-0.000772828 -0.00114834,-0.00163186 -0.0016061,-0.00226597 -0.00111961,-0.00150305 -0.00187956,-0.003233 -0.00187956,-0.00513435 0,-0.0016923 0.000435954,-0.00330235 0.00133957,-0.00473308 0.00116023,-0.00183893 0.00301106,-0.00287829 0.00518786,-0.00287829 0.0025107,0 0.0047202,0.00098486 0.00633818,0.00291099 0.000162492,0.000193207 0.000315076,0.000392359 0.000456761,0.000595474zm-0.00202124 0.0166435c-0.000482522,0.000717343 -0.000985851,0.00141487 -0.00149116,0.00208862l-0.0122107 0.0164761 0.0124782 0.00693663 0 0.0263455 0.00163978 -0.00105719c0.00367589,-0.00236802 0.00452798,-0.00671172 0.00452798,-0.0108028l0 -0.0313253c-0.00194891,-0.00258105 -0.0038037,-0.00553365 -0.00494412,-0.00866162zm-0.0730105 0.0637712c-0.00257411,0.00235911 -0.00512643,0.00474299 -0.00767181,0.0071338l-0.00195486 0.00183695 -0.00224814 -0.0014654c-0.00143667,-0.000937302 -0.00288721,-0.00189244 -0.00435855,-0.00277525l-3.36874e-005 -2.08069e-005 -3.36874e-005 -2.08069e-005c-0.00145351,-0.000918477 -0.00299917,-0.00167149 -0.00462805,-0.00222733 -0.00163879,-0.000560796 -0.00327758,-0.00112655 -0.00491142,-0.00170617 -3.76506e-005,-1.28805e-005 -7.53012e-005,-2.67517e-005 -0.000113943,-3.96322e-005l0 0.0264396 -0.00392062 -0.000587548c-0.00216491,-0.000323993 -0.0043645,-0.000536026 -0.00654625,-0.000718334 -0.00228678,-0.000190235 -0.00459536,-0.000325975 -0.00689105,-0.000325975 -0.00185875,-9.90805e-007 -0.0037175,-1.98161e-005 -0.00557526,-6.93564e-005 -0.00148026,-3.96322e-005 -0.00296152,-6.6384e-005 -0.00444277,-6.6384e-005 -0.000632134,0 -0.00126328,0 -0.00189541,0l-0.00341432 0 0 -0.0268052c-0.00134948,0 -0.00269895,9.90805e-007 -0.00404843,9.90805e-007 -0.00212429,0.000151593 -0.00419606,0.000622226 -0.00613705,0.00151494 -0.00280398,0.00128904 -0.00563471,0.00253151 -0.00847238,0.00375812 -0.00175472,0.00075103 -0.00350547,0.00152089 -0.00525226,0.00228876l-0.00213816 0.000941265 -0.00165167 -0.00165266c-0.00027049,-0.00027049 -0.00054098,-0.00054098 -0.00081147,-0.00081147l-0.00200539 -0.0020044 0.00160312 -0.00233929c0.00242846,-0.00354609 0.0050432,-0.00726458 0.00790167,-0.0104778 0.00157538,-0.00181218 0.00341828,-0.00360257 0.00552968,-0.00477865 0.00267319,-0.0015407 0.00553464,-0.00283469 0.00839906,-0.00398799 0.00224616,-0.00089866 0.00455374,-0.00164672 0.00690988,-0.00219067 -0.000238784,-0.0019499 -0.000710407,-0.00387009 -0.00133858,-0.00573082 -0.000882808,-0.00261275 -0.0021015,-0.00519083 -0.00383144,-0.00735376 -0.00217581,-0.00271976 -0.00480243,-0.00509868 -0.00757867,-0.00719027 -0.00277227,-0.00208862 -0.00577342,-0.00397214 -0.00896976,-0.00534143l-0.000839212 -0.000359662 -0.00307744 -0.0041059 0.0258085 -0.0179227 0 -0.00904407c0,-0.00214014 -0.00133362,-0.00387207 -0.00286045,-0.00524433 -0.00117113,-0.00105124 -0.00328056,-0.00271282 -0.00496195,-0.00271282 -0.00159718,0 -0.00350844,0.000541971 -0.00501149,0.00104332 -0.00102945,0.000342819 -0.00205295,0.000747067 -0.00305961,0.00114933l-0.0020906 0.00083624 -0.00497186 -0.00497087 0.00190928 -0.00238685c0.00132173,-0.00165266 0.00282776,-0.00334 0.00451015,-0.00463499 0.00410788,-0.00316067 0.00881123,-0.00476875 0.0139951,-0.00476875 0.00578036,-9.90805e-007 0.0116955,0.00107205 0.0165455,0.0043853l2.08069e-005 1.38713e-005c0.003987,0.00276633 0.00637286,0.00649077 0.00743798,0.0108245l0.000874881 -0.000554851 0 -0.0150761 0.010348 0 0 0.00781944 0.010775 -0.00781944 0.00274849 0 0.000736168 0.000379478c0.0032112,0.00165464 0.00622226,0.00365112 0.00900147,0.00595177 0.00271382,0.00223427 0.00535233,0.00471227 0.0079314,0.0071011 0.00351538,0.0032548 0.00665623,0.00710011 0.00848823,0.0115657 0.00182209,0.00444178 0.00242153,0.0093859 0.00242153,0.0141566l0 0.047951 -0.0103559 0.00819099c-0.00198161,0.00158529 -0.00390278,0.00331127 -0.00579225,0.00500555zm-0.00754895 -0.0606928c-0.000349754,-0.00255132 -0.000874881,-0.00517696 -0.00174084,-0.00753805 -0.000831286,-0.00226696 -0.00215203,-0.00421489 -0.00389783,-0.00588836 -0.00279407,-0.00268805 -0.0069396,-0.00595078 -0.0110366,-0.00595078 -0.000412175,0 -0.00116023,-3.96322e-006 -0.00159321,8.91725e-005 -4.35954e-005,2.27885e-005 -8.91725e-005,4.85495e-005 -0.000136731,7.72828e-005l0 0.019068c0.00104926,0.000815433 0.00222535,0.00152782 0.00346286,0.00190235 0.00201133,0.000608354 0.00443683,0.000733196 0.00652445,0.000733196 0.00155755,0 0.00367192,-9.11541e-005 0.00514426,-0.000654922 0.00106908,-0.000408212 0.00221841,-0.00110871 0.00327362,-0.00183794zm0.000216986 0.0179148l0 -0.00714569c-0.00067672,0.000254637 -0.00135938,0.000489458 -0.00204998,0.00070149 -0.00220058,0.000684646 -0.00447745,0.00110078 -0.00678702,0.00110078 -0.00239478,0 -0.00478955,-0.000267517 -0.00713182,-0.000745086 -0.000902624,-0.000182308 -0.00178642,-0.000423074 -0.00265338,-0.000715361l0 0.00640357c0.000628171,-0.000207078 0.00126427,-0.000384432 0.00190631,-0.000525127 0.00243243,-0.000528099 0.0049887,-0.000687619 0.00747265,-0.000687619 0.00322408,0 0.00631143,0.000543952 0.00924322,0.00161303zm0 0.0251783l0 -0.0142775c-0.000989815,-0.000788681 -0.00209555,-0.00139604 -0.00332911,-0.00176363 -0.00200341,-0.00059052 -0.00410193,-0.000807506 -0.0061856,-0.000807506 -0.00194495,-9.90805e-007 -0.00390476,0.000186271 -0.00578234,0.000692573 -0.00117708,0.000321021 -0.00228876,0.000834258 -0.00332514,0.00147333l0 0.00940472c0.000717343,0.000140694 0.00143469,0.000275444 0.00213519,0.000413166 0.00258006,0.000501347 0.00514327,0.00108295 0.00769261,0.00173688 0.00281884,0.000731214 0.00558022,0.00172796 0.0082544,0.00287631l5.74667e-005 2.47701e-005 5.54851e-005 2.67517e-005c0.000142676,6.73748e-005 0.000284361,0.000133759 0.000427037,0.000200143zm-0.0513079 -0.0366212l0 -0.00282082 -0.0018538 0.00119887c0.000625198,0.000531072 0.00124346,0.00107304 0.0018538,0.00162195zm0.10999 0.00367787c-0.000743104,7.23288e-005 -0.00148621,0.000119887 -0.00220157,0.000119887 -0.00258798,0 -0.00511751,-0.000464688 -0.00754597,-0.00136236 -0.000821378,-0.000303186 -0.00163483,-0.000636097 -0.00244134,-0.000992787l0 0.0107651 0.00418318 0.00238388 0.00800571 -0.0109137zm0.00142379 0.0362734l0 -0.0122037 -0.00479946 -0.00293675 -0.0097634 0.0128993c0.0010889,-8.22368e-005 0.00217977,-0.000128805 0.00326669,-0.000128805 0.00396223,0 0.00773918,0.000863982 0.0112962,0.00237001zm0.0553692 0.000847139l0 -0.0367024c-3.36874e-005,-0.000168437 -0.000149612,-0.000423074 -0.000216986,-0.000567731 -0.000365607,-0.000775801 -0.000819396,-0.00153575 -0.00128012,-0.00225904l-0.000148621 -0.00023383 -0.000109979 -0.000255628c-7.33196e-005,-0.0001724 -0.000317058,-0.000411184 -0.000473605,-0.000551879l-0.00732304 0.00585764 0 0.0299283c0.000582594,0.000365607 0.00117113,0.000720315 0.00176363,0.00104926l7.72828e-005 4.35954e-005 7.43104e-005 4.65679e-005c0.00103935,0.000648977 0.00216095,0.00130192 0.00329443,0.00177453l4.35954e-005 1.88253e-005c0.00142181,0.00061529 0.00286145,0.00126625 0.0042991,0.00185182zm-0.0954106 -0.00142676l-0.00906983 0.00717442c-0.00135344,0.00108295 -0.00333901,0.00279803 -0.00595573,0.00514426 -0.0021659,0.00198557 -0.00473803,0.00437738 -0.00771639,0.00717541 -0.00207574,-0.00135344 -0.00356492,-0.00230164 -0.00446754,-0.00284262 -0.00171508,-0.00108394 -0.00349754,-0.00194099 -0.00534738,-0.00257213 -0.00185082,-0.000633125 -0.00347475,-0.00119689 -0.00487377,-0.0016923 -0.00139902,-0.000497384 -0.00295557,-0.000879835 -0.00467066,-0.00115132l0 0.0268043c-0.00180525,-0.00027049 -0.00406131,-0.000518191 -0.00676819,-0.000744095 -0.00270787,-0.000225904 -0.00509968,-0.000338855 -0.00717541,-0.000338855 -0.00198557,0 -0.00381262,-2.17977e-005 -0.00548312,-6.73748e-005 -0.00166951,-4.5577e-005 -0.00318049,-6.73748e-005 -0.00453492,-6.73748e-005 -0.00081147,0 -0.0014436,0 -0.00189541,0l0 -0.0268052c-0.00252655,0 -0.00505311,9.90805e-007 -0.00758065,9.90805e-007 -0.00270787,0.000179336 -0.00518984,0.000789672 -0.0074459,0.00182705 -0.00225606,0.00103737 -0.0050541,0.00227885 -0.00839311,0.00372345 -0.00126328,0.00054098 -0.00302295,0.00130786 -0.00528,0.00230065 -0.000360653,-0.000360653 -0.000631143,-0.000631143 -0.00081147,-0.00081246 0.00309032,-0.00451213 0.00564065,-0.00789672 0.00764803,-0.0101528 0.00164771,-0.00189541 0.00318148,-0.00324885 0.00464787,-0.00406131 0.00218869,-0.00126328 0.00485098,-0.00252655 0.00798787,-0.00378983 0.00315869,-0.00126427 0.00622721,-0.00212131 0.00922737,-0.00257213 0,-0.00306951 -0.000563768,-0.00627279 -0.0016913,-0.0096118 -0.00112853,-0.00334 -0.00259492,-0.00613705 -0.00440017,-0.00839311 -0.0021659,-0.00270787 -0.00489656,-0.00530279 -0.00819,-0.00778476 -0.00329443,-0.00248197 -0.00652049,-0.00439918 -0.00967918,-0.00575361l-0.00040623 -0.000541971 0.0243669 -0.016921 0 -0.0108305c0,-0.00279803 -0.00133065,-0.00539196 -0.00399295,-0.00778377 -0.00266229,-0.0023918 -0.00507689,-0.00358771 -0.00724279,-0.00358771 -0.00162492,0 -0.00365508,0.00040623 -0.00609246,0.00121869 -0.00081147,0.00027049 -0.00189442,0.00067672 -0.00324885,0.00121869l-0.0012177 -0.00121869c0.0014436,-0.00180525 0.00275246,-0.00315869 0.00392557,-0.00406131 0.00351934,-0.00270787 0.00749049,-0.00406131 0.0119134,-0.00406131 0.00604589,0 0.0109197,0.00126328 0.0146203,0.00379082 0.00442196,0.00306753 0.00663344,0.00767081 0.00663344,0.0138079l0.00703967 -0.00446754 0 -0.0135384 0.00351934 0 0 0.011102 0.015298 -0.011102 0.00081147 0c0.00297836,0.00153476 0.0057764,0.00338558 0.0083941,0.00555148 0.00153377,0.00126328 0.00412869,0.00358771 0.00778377,0.00697131 0.00365508,0.00338459 0.00620442,0.00683656 0.00764803,0.0103569 0.00144459,0.00351934 0.0021659,0.00780656 0.0021659,0.0128607l0 0.0462984zm-0.0166505 -0.0442682c-0.000450816,-0.00415147 -0.00117311,-0.00758065 -0.0021659,-0.0102885 -0.000992787,-0.00270688 -0.00257213,-0.00509868 -0.00473803,-0.00717442 -0.00478361,-0.00460328 -0.00925115,-0.00690492 -0.0134026,-0.00690492 -0.00126328,0 -0.0021659,9.11541e-005 -0.00270688,0.000271481 -0.000541971,0.000180327 -0.00135443,0.000722297 -0.00243738,0.00162393l0 0.0223377c0.00198557,0.00180426 0.00394836,0.00300016 0.00588935,0.00358672 0.00194,0.000587548 0.00444475,0.000879835 0.00751328,0.000879835 0.00270688,0 0.00482819,-0.000292288 0.00636196,-0.000879835 0.00153476,-0.000586557 0.00343017,-0.00173688 0.00568623,-0.00345197zm0 0.0217957l0 -0.0178702c-0.00227885,0.00117311 -0.00442196,0.00207673 -0.0064759,0.00270787 -0.00203016,0.000632134 -0.00394836,0.000948201 -0.0057754,0.000948201 -0.00207574,0 -0.00424164,-0.000225904 -0.00645312,-0.00067672 -0.00223328,-0.000451807 -0.00446754,-0.00135443 -0.00674639,-0.00270787l0 0.0170567c0.00218869,-0.00126328 0.00419705,-0.00209753 0.00604688,-0.00250377 0.00187262,-0.00040623 0.00410689,-0.000609345 0.00674639,-0.000609345 0.00453492,0 0.00875476,0.00121869 0.0126575,0.00365508zm0 0.0249088l0 -0.0209833c-0.00171508,-0.00171409 -0.00365508,-0.00288721 -0.0057764,-0.00351934 -0.00214311,-0.000632134 -0.00451213,-0.00094721 -0.00715163,-0.00094721 -0.00246017,-9.90805e-007 -0.00467066,0.00027049 -0.00667902,0.00081147 -0.00198557,0.000541971 -0.00394836,0.00153476 -0.00584377,0.00297836l0 0.0139436c0.000722297,0.000180327 0.00236902,0.000519182 0.00489656,0.00101558 0.00254934,0.000496393 0.00503131,0.00106016 0.00749049,0.0016923 0.00243639,0.000631143 0.00503131,0.00153377 0.00776197,0.00270787 0.00171409,0.00081147 0.00349655,0.00157934 0.0053018,0.00230065zm-0.0289702 0.0301888l0 -0.097741 -0.00636295 0.00460229 0 0.0931387 0.00636295 0zm-0.0223377 -0.0643033l0 -0.0167872 -0.0111 0.00717541c0.00180426,0.00135344 0.0036095,0.00284262 0.00541475,0.00446754 0.00243639,0.00225606 0.0043318,0.00397115 0.00568524,0.00514426zm0.128608 -0.0276167c0,0.00153377 -0.000361644,0.0031141 -0.00108394,0.00473803 -0.000721306,0.00162492 -0.00189442,0.00352033 -0.00351934,0.00568623l-0.0145302 0.0196061 0.0141239 0.00785213 0 0.0277752c-0.00153377,0.00054098 -0.00309131,0.00110574 -0.00467066,0.0016923 -0.00157934,0.000586557 -0.00322606,0.00137623 -0.00494115,0.00236802 -0.00171409,0.000992787 -0.00347376,0.00230164 -0.00527901,0.00392656 -0.00180525,0.00162393 -0.00306852,0.00275246 -0.00379082,0.0033836 -0.0021659,-0.00162393 -0.00437738,-0.00291 -0.00663344,-0.00385721 -0.00225606,-0.000948201 -0.00460229,-0.00142181 -0.00703967,-0.00142181 -0.00153377,0 -0.00270787,0 -0.00351934,0 -0.00297836,0 -0.00534738,0.000450816 -0.00710804,0.00135344 -0.00175967,0.000902624 -0.00345197,0.00221148 -0.0050759,0.00392557l-0.00270787 -0.00230065 0.0192008 -0.0258798 -0.0140566 -0.00893409 0 -0.0232621c0.00162492,-0.000271481 0.00329443,-0.00094721 0.00500852,-0.00203115 0.00207673,-0.0014436 0.00363328,-0.00250377 0.00467066,-0.00318049 0.00103836,-0.000677711 0.00236902,-0.0019182 0.00399394,-0.00372345 0.00126328,-0.00144459 0.00257213,-0.0028882 0.00392557,-0.0043318 0.00388098,0.0021659 0.0074459,0.00394836 0.0106948,0.00534738 0.00324984,0.00139803 0.00604688,0.00209853 0.00839311,0.00209853 0.00234722,-9.90805e-007 0.00449033,-0.000586557 0.00643033,-0.00176066 0.00194099,-0.00117311 0.00291099,-0.00261672 0.00291099,-0.0043318 0,-0.00027049 -0.00081246,-0.00153377 -0.00243639,-0.00379082 -0.00081246,-0.00108295 -0.00121869,-0.00212032 -0.00121869,-0.00311311 0,-0.00108295 0.00027049,-0.00205295 0.00081246,-0.00291 0.00054098,-0.000858037 0.00130885,-0.00128706 0.00230164,-0.00128706 0.00153377,0 0.00277525,0.000564759 0.00372246,0.0016923 0.00094721,0.00112853 0.00142181,0.00268508 0.00142181,0.00467066zm-0.0144856 0.0190879c-0.00162492,0.00027049 -0.00342918,0.000541971 -0.00541475,0.00081246 -0.00198557,0.00027049 -0.00343017,0.00040623 -0.00433279,0.00040623 -0.0021659,0 -0.00428622,-0.000383442 -0.00636196,-0.00115032 -0.00207574,-0.000767874 -0.00442295,-0.00187262 -0.00703967,-0.00331722l0 0.0182754 0.00855065 0.00487377 0.0145985 -0.0199003zm-0.00270787 0.0464341l0 -0.0197646 -0.00906983 -0.00555049 -0.0168546 0.0222683c0.0011741,-0.000473605 0.00291099,-0.000856056 0.00521263,-0.00112754 0.00227885,-0.000293278 0.00428622,-0.000428028 0.00600131,-0.000428028 0.00494115,0 0.0098595,0.00153377 0.0147105,0.00460229zm0.069177 -0.00040623c-0.00516705,0.00153476 -0.00945327,0.00320426 -0.0129052,0.00500852 -0.00180525,0.00108295 -0.00372345,0.00223427 -0.00575361,0.00345197 -0.00203115,0.00121869 -0.00361049,0.00237001 -0.00469344,0.00345197 -0.00171409,-0.00135344 -0.00369967,-0.00270688 -0.00597852,-0.00406131 -0.00225705,-0.00135344 -0.00444475,-0.00252655 -0.00656607,-0.00351934 -0.00214311,-0.000992787 -0.00453492,-0.00203016 -0.00719721,-0.00311311 -0.00266229,-0.00108295 -0.00500951,-0.00184983 -0.00699509,-0.00230164 0.00406131,-0.00261771 0.00609246,-0.00717442 0.00609246,-0.0136731l0 -0.0324905c-0.00406131,-0.00514426 -0.00609246,-0.00965639 -0.00609246,-0.0135374 0,-0.0036095 0.00135443,-0.00724279 0.00406131,-0.0108969 0.00270787,-0.00365607 0.00627279,-0.00665623 0.0106948,-0.00900345l0.00162492 0.0021659c-0.00442196,0.00352033 -0.00663344,0.00681476 -0.00663344,0.00988328 0,0.00162393 0.000766883,0.00365508 0.00230164,0.00609147 0.00198557,0.00315869 0.00397115,0.00631737 0.00595672,0.00947606 0.000450816,0.00117311 0.000879835,0.0026405 0.00128507,0.00440017 0.000407221,0.00175967 0.000609345,0.00322606 0.000609345,0.00439918l0.0201708 -0.0174639c0.0018964,0.00189541 0.00320426,0.00324984 0.00392656,0.0040623 0.00117311,0.00135344 0.00221049,0.00277525 0.00311311,0.00426443 0.000902624,0.00148819 0.00162492,0.00286541 0.00216689,0.00412869 0.00054098,0.00126328 0.00081147,0.0023918 0.00081147,0.00338459l0 0.0458921zm-0.0138079 0.00013574l0 -0.0412898c0,-0.000541971 -0.000180327,-0.0011959 -0.000541971,-0.00196279 -0.000360653,-0.000767874 -0.000857047,-0.00164672 -0.00148918,-0.0026405 -0.00027049,-0.000632134 -0.000744095,-0.00124049 -0.00142081,-0.00182705 -0.00067672,-0.000586557 -0.00137623,-0.0011959 -0.00209853,-0.00182705l-0.0108305 0.0086636 0 0.0334377c0.00153476,0.000992787 0.00270787,0.00171508 0.00352033,0.0021659 0.0014436,0.000902624 0.00270787,0.00157934 0.00378983,0.00203115 0.00270787,0.00117212 0.00428721,0.00184983 0.00473902,0.00203016 0.00153377,0.000632134 0.00297836,0.00103836 0.0043318,0.00121869z"/>
 </g>
</svg>
