<?xml version="1.0" encoding="UTF-8"?>
<!DOCTYPE svg PUBLIC "-//W3C//DTD SVG 1.1//EN" "http://www.w3.org/Graphics/SVG/1.1/DTD/svg11.dtd">
<!-- Creator: CorelDRAW -->
<svg xmlns="http://www.w3.org/2000/svg" xml:space="preserve" width="1in" height="2in" style="shape-rendering:geometricPrecision; text-rendering:geometricPrecision; image-rendering:optimizeQuality; fill-rule:evenodd; clip-rule:evenodd"
viewBox="0 0 13.0874 11.8001"
 xmlns:xlink="http://www.w3.org/1999/xlink">
 <defs>
  <style type="text/css">
   <![CDATA[
    .fil0 {fill:#901E78}
   ]]>
  </style>
 </defs>
 <g id="Layer_x0020_1">
  <metadata id="CorelCorpID_0Corel-Layer"/>
  <path class="fil0" d="M5.70093 3.91923c0,0.30366 -0.051861,0.560174 -0.155273,0.768424 -0.102916,0.209119 -0.245037,0.3384 -0.426613,0.387531 -0.051737,0.0153846 -0.105831,0.0269851 -0.1616,0.0347395 -0.0591191,0.00763027 -0.126365,0.012531 -0.201613,0.012531l0.000186104 -0.308561c0.0753102,-0.0259926 0.126799,-0.0722705 0.155583,-0.137841 0.0259305,-0.0617246 0.0387717,-0.165819 0.0387717,-0.312345l0 -0.902419c0,-0.13505 -0.0141439,-0.23232 -0.042928,-0.294045 -0.0278536,-0.0616625 -0.0787221,-0.103102 -0.151613,-0.122395l0.000186104 -0.306638 0.0281017 0c0.124566,0 0.245596,0.0173697 0.363089,0.0521092 0.17165,0.050062 0.306762,0.175434 0.405521,0.375993 0.0989454,0.204342 0.148015,0.455025 0.148015,0.752916l0.000186104 0zm-0.874442 2.51526c0,0.108002 -0.0506824,0.162035 -0.151737,0.162035l-0.0557692 -6.20347e-005 -0.772084 0 -0.0465261 0c-0.0867246,0 -0.129901,-0.0520471 -0.129901,-0.157134 0.000124069,-0.0723325 0.0246898,-0.122395 0.0740074,-0.14938 0.0472084,-0.023139 0.0764268,-0.0462779 0.0875931,-0.0694169 0.0102978,-0.0193548 0.0146402,-0.0665633 0.0146402,-0.139826l0.000186104 -2.82674c0,-0.073263 -0.00477667,-0.122333 -0.0148263,-0.145533 -0.0108561,-0.0192928 -0.0405087,-0.0423697 -0.0875931,-0.0693548 -0.0492556,-0.023263 -0.0740074,-0.071402 -0.0740074,-0.143672 0.000124069,-0.105149 0.042928,-0.157134 0.129901,-0.157134l0.0465261 -6.20347e-005 0.76861 0 0 3.32035c0,0.0770471 0.00694789,0.129156 0.0204715,0.156203 0.0148883,0.0269231 0.049938,0.0501241 0.105769,0.0693548 0.0566377,0.023139 0.0846154,0.0723325 0.0847395,0.150372zm2.71148 -2.58666c0,0.128226 -0.0343052,0.192928 -0.102481,0.192928 -0.0540323,-6.20347e-005 -0.08933,-0.0684864 -0.105769,-0.203412 -0.0256203,-0.212221 -0.0822581,-0.395285 -0.169231,-0.549566 -0.0867866,-0.15428 -0.190447,-0.254529 -0.310298,-0.300806l6.20347e-005 -0.312407c0.0784119,0 0.149752,0.0193548 0.21495,0.0578784 0.0685484,0.050062 0.125806,0.0906328 0.172829,0.121464 0.0431762,-0.0385856 0.0746278,-0.0655087 0.0958437,-0.0799628 0.0653226,-0.0550248 0.10397,-0.0819479 0.116315,-0.0819479 0.0583127,-0.000124069 0.087469,0.0751861 0.087469,0.225558l0.000310174 0.930273zm0.087469 1.48759c0,0.382754 -0.0807072,0.700931 -0.242866,0.954529 -0.162097,0.254404 -0.370223,0.381762 -0.623449,0.381762l0.000186104 -0.324007c0.184926,-0.073263 0.277792,-0.219727 0.277792,-0.438586 0.000186104,-0.123449 -0.0247519,-0.226551 -0.0740695,-0.308499 -0.051737,-0.0762407 -0.151675,-0.165819 -0.29969,-0.270906 -0.209057,-0.146588 -0.356141,-0.268052 -0.440757,-0.364454 -0.213151,-0.258375 -0.320285,-0.598697 -0.320285,-1.01805 0.000248139,-0.377978 0.0728908,-0.686414 0.218052,-0.925496 0.145844,-0.239206 0.341998,-0.358623 0.589392,-0.358623l0.000310174 0.323821c-0.151303,0.0656328 -0.226551,0.196774 -0.226551,0.393424 0.000310174,0.169665 0.0563896,0.310422 0.169231,0.42227 0.0305831,0.0269851 0.0647022,0.0539702 0.102854,0.0809553 0.0349256,0.0308313 0.0734491,0.0598015 0.116315,0.085794 0.0966501,0.073263 0.169231,0.131141 0.21861,0.173573 0.152543,0.13201 0.24969,0.230397 0.29206,0.295968 0.162345,0.242928 0.24268,0.541811 0.24268,0.896588l0.000186104 -6.20347e-005zm-1.00769 1.33623c-0.0659429,0 -0.137779,-0.0230769 -0.215323,-0.0693548 -0.0775434,-0.04634 -0.156328,-0.0944789 -0.23567,-0.144603 -0.0168114,-6.20347e-005 -0.0405087,0.0289082 -0.0704715,0.0867246 -0.0334367,0.0617246 -0.0664392,0.0925558 -0.0993176,0.0925558 -0.0628412,-6.20347e-005 -0.094665,-0.0828784 -0.094665,-0.248697l0.000248139 -1.02289c0,-0.128226 0.0326303,-0.192804 0.0979529,-0.192804 0.044665,-6.20347e-005 0.0763027,0.0568859 0.0957816,0.168672 0.0488213,0.308499 0.136911,0.566935 0.263772,0.775124 0.0706576,0.119541 0.156328,0.196712 0.257444,0.23139l0.000248139 0.323883zm3.24032 -3.78406c0,0.0627171 -0.0202854,0.109057 -0.0596774,0.139888l-0.0881514 0.0694169c-0.0333127,0.023139 -0.0675558,0.0790323 -0.102854,0.167742 -0.0352357,0.0886476 -0.0622829,0.185112 -0.0811414,0.290199l-0.274069 1.64752 -0.0923077 -0.532072 0.197829 -1.18685 0.0111042 -0.13201c0,-0.138834 -0.0341191,-0.23139 -0.099938,-0.276737l-0.0520471 -0.0299007c-0.0444169,-0.0241315 -0.067866,-0.0712779 -0.067866,-0.144541 0.000558313,-0.108065 0.048263,-0.161973 0.145223,-0.161973l0.419541 -6.20347e-005c0.0957816,0 0.143983,0.0501861 0.143983,0.149442l0.000372208 -6.20347e-005zm-0.673201 2.72072l-0.162407 0.988151 -0.454529 0 -0.610422 -3.37816c-0.0166253,-0.0809553 -0.0395782,-0.131017 -0.0701613,-0.151303 -0.0332506,-0.0183002 -0.0557692,-0.0395161 -0.0675558,-0.0626551 -0.0114764,-0.023139 -0.0176179,-0.0539702 -0.0176179,-0.0925558 0.000248139,-0.115695 0.0551489,-0.173511 0.166253,-0.173511l0.765323 -6.20347e-005c0.0305831,0 0.0562655,6.20347e-005 0.0772953,6.20347e-005 0.0212779,-6.20347e-005 0.044665,0.00961538 0.0706576,0.0279156 0.0235112,0.0240695 0.0351737,0.0684864 0.0351737,0.134057 0.000124069,0.0693548 -0.0223325,0.119541 -0.0669355,0.150372 -0.0467742,0.0346154 -0.0705335,0.0944789 -0.0705335,0.17928l0.007134 0.0742556 0.398325 2.30416zm1.01811 -2.99218c-0.0659429,1.77916 -0.126055,3.64454 -0.565881,3.95174 -0.427916,0.569355 -2.26365,1.984 -3.11842,1.98462 -0.869789,-0.0579404 -2.69057,-1.41532 -3.11849,-1.98462 -0.439888,-0.307258 -0.499752,-2.17258 -0.565633,-3.95174 2.34411,-0.881452 5.02413,-0.88139 7.36818,0l0.000248139 0zm-7.48387 1.81024c-0.157196,0.210608 -0.341998,0.240323 -0.603784,0.667556 -0.131203,0.214392 -0.162779,0.452357 -0.124132,0.812469 -0.306886,-0.804032 -0.230087,-1.47618 -0.0122208,-1.65186 0.234181,-0.206141 0.498573,-0.301923 0.705025,-0.433747 0.0104839,0.206948 0.0217122,0.409677 0.0349876,0.605583l0.000124069 0zm0.386228 2.0804c-0.200248,0.358685 -0.233933,0.621588 -0.1634,0.842308 -0.302295,-0.305893 -0.535112,-0.622022 -0.709305,-0.930645 0.0176799,-0.100931 0.0687965,-0.201179 0.174318,-0.301365 0.169169,-0.175124 0.329653,-0.247333 0.464082,-0.33294 0.0593672,0.316377 0.135174,0.566563 0.233995,0.722643l0.000310174 0zm5.95602 0.860236c0.0305211,0.231824 0.210112,0.388834 -0.35639,0.989764 -0.201613,0.100434 -1.15533,0.527171 -2.16117,1.01569 -1.00565,-0.488524 -1.95937,-0.915199 -2.16129,-1.01569 -0.54361,-0.576675 -0.400124,-0.744541 -0.360608,-0.962097 0.775434,0.619169 1.86979,1.30019 2.49677,1.34187 0.62928,-0.000496278 1.7611,-0.726241 2.54249,-1.36954l0.000186104 0zm1.11042 -1.61266c0.142928,0.10031 0.32072,0.167804 0.508809,0.362717 0.106079,0.100124 0.156886,0.200434 0.174256,0.301365 -0.173697,0.308561 -0.406762,0.624814 -0.709367,0.930645 0.0735112,-0.228412 0.0345533,-0.501861 -0.184429,-0.879963 -0.000248139,-0.00334988 -0.000806452,-0.00657568 -0.00105459,-0.00992556 0.0889578,-0.162717 0.157196,-0.405087 0.211787,-0.704839zm0.183189 -1.96613c0.212407,0.14969 0.500744,0.243672 0.753536,0.466315 0.218114,0.175682 0.294727,0.847891 -0.0121588,1.65186 0.0387097,-0.360112 0.00725806,-0.598077 -0.124194,-0.812469 -0.287469,-0.469293 -0.481824,-0.458871 -0.649256,-0.735546 0.0126551,-0.185112 0.0225806,-0.375744 0.032072,-0.570161zm-1.60037 -3.59572c-0.867866,-0.420968 -0.698635,-0.0669975 -0.179156,0.247208 0.604591,0.349442 0.391811,0.682258 0.926799,1.16501 0.226055,0.203846 0.758375,0.222395 1.1951,0.704218 0.264206,0.441687 0.528536,0.883437 0.792804,1.32519 0.000930521,-0.00136476 0.00130273,-0.00260546 0.00192308,-0.00384615 -0.00514888,0.206079 -0.00409429,0.411973 -0.0235112,0.618672 -0.0419975,-0.0763027 -0.0879032,-0.133189 -0.132568,-0.166811 -0.437593,-0.481141 -0.204715,-0.641501 -0.381017,-0.880583 -0.417432,-0.566377 -0.274318,-0.0225186 -0.530025,-0.620037 0.0279156,-0.36861 -0.305893,-0.610112 -0.337469,-0.227233 -2.27258,-0.772146 -4.81253,-0.777605 -7.08902,-0.0163772 -0.0347395,-0.315447 -0.2884,-0.169231 -0.331266,0.116873 -0.0126551,0.00471464 -0.0255583,0.00936725 -0.0382754,0.0141439 0.00241935,0.0582506 0.00440447,0.116625 0.00657568,0.175062 -0.21861,0.495471 -0.101179,0.012531 -0.502978,0.557568 -0.176117,0.23902 0.0566998,0.399442 -0.381017,0.880583 -0.044603,0.0336228 -0.0901365,0.0905087 -0.132506,0.166811 -0.0193548,-0.206762 -0.0180521,-0.412531 -0.0235732,-0.618672 0.000744417,0.00124069 0.00130273,0.00254342 0.00198511,0.00384615 0.264268,-0.441811 0.528536,-0.883499 0.792804,-1.32519 0.436849,-0.481886 0.969169,-0.500372 1.1951,-0.704218 0.534988,-0.482816 0.322705,-0.815571 0.926675,-1.16501 0.519603,-0.314268 0.68902,-0.668114 -0.17866,-0.247208 -2.04764,0.426365 -1.61079,1.26216 -2.03244,1.84938 -0.246278,0.379094 -0.492928,0.758313 -0.739454,1.13747 -0.00620347,-0.0427419 -0.0138337,-0.0853598 -0.0227047,-0.128164 0.00539702,-0.617866 0.300124,-0.611352 0.334615,-0.895285 0.0816377,-0.672519 -0.196216,-0.171216 0.0329404,-0.777047 0.345037,-0.326427 0.147022,-0.805831 -0.313275,-0.0959057 -1.09541,0.776613 -0.433933,1.08195 -0.353536,1.77413 0.0687345,0.410794 0.0577543,1.28275 0.0988213,1.85316 -0.0346154,-0.106638 -0.082134,-0.222829 -0.210174,-0.400558 -0.257878,-0.574069 0.0180521,-0.666439 -0.0707196,-0.940943 -0.210422,-0.650248 -0.462717,-0.520037 -0.508127,-1.15775 0.181141,-0.417432 -0.206452,-0.795409 -0.330955,0.0157568 -0.590695,1.78784 0.266129,1.57388 0.635174,2.18821 0.280831,0.42196 0.411166,0.879467 0.684739,1.30323 0.0774194,0.271154 0.19969,0.556079 0.380831,0.8433 -0.042804,-0.0225186 -0.0960298,-0.0489454 -0.163151,-0.0811414 -0.53933,-0.391625 -0.465757,-0.752792 -0.637221,-0.994541 -0.334491,-0.471898 -0.362779,-0.370782 -0.751179,-0.909243 -0.0697891,-0.442742 -0.486725,-0.714888 -0.334181,0.0885236 -0.0836849,1.59963 0.728536,1.58493 1.53989,2.02525 0.346402,0.180521 0.545347,0.31036 0.805831,0.461414 0.323759,0.343486 0.74665,0.679156 1.2938,0.986787 -0.0060794,0.000558313 -0.0124069,0.00136476 -0.0187345,0.00210918 -0.833002,-0.270099 -0.760794,-0.455087 -1.51836,-0.544913 -0.621092,-0.0737593 -0.835918,-0.0766129 -1.24231,-0.382816 -0.351117,-0.321092 -0.838524,-0.283251 -0.180645,0.286166 0.996898,1.33617 1.64324,1.05496 2.59175,0.987221 0.360856,-0.0491315 1.50211,0.265323 1.72475,0.218238 0.368052,0.185422 0.784801,0.400993 1.19665,0.623511 -0.711352,0.351613 -1.41284,0.720223 -1.85831,1.01303 -0.220596,0.145037 -0.405521,0.22227 -0.474442,0.279715 -0.548077,0.35701 0.49268,0.386538 0.814392,0.0843052 0.0370347,-0.0241935 0.188337,-0.167494 0.457072,-0.361476 0.342308,-0.247084 0.843797,-0.545285 1.37909,-0.841749 0.535484,0.296464 1.03697,0.594665 1.37909,0.841749 0.268921,0.193983 0.420285,0.337407 0.457072,0.361476 0.32196,0.302171 1.36272,0.272705 0.81433,-0.0843052 -0.0683623,-0.0575062 -0.25366,-0.134615 -0.474442,-0.279715 -0.444789,-0.292804 -1.14653,-0.661352 -1.85819,-1.01303 0.411973,-0.222519 0.82897,-0.438027 1.19665,-0.623511 0.223015,0.0470844 1.3639,-0.26737 1.72475,-0.218238 0.948821,0.0676799 1.59516,0.349007 2.59175,-0.987221 0.658437,-0.569479 0.170533,-0.607258 -0.180707,-0.286166 -0.405893,0.306141 -0.620906,0.309181 -1.24218,0.382816 -0.757196,0.0898263 -0.685298,0.274876 -1.51842,0.544913 -0.00632754,-0.000806452 -0.0125931,-0.00148883 -0.0187345,-0.00210918 0.547457,-0.307692 0.970223,-0.643238 1.29373,-0.986787 0.260732,-0.151055 0.459739,-0.280831 0.805831,-0.461414 0.811725,-0.440385 1.62382,-0.42562 1.53983,-2.02525 0.152605,-0.803412 -0.263958,-0.531203 -0.334057,-0.0885236 -0.388524,0.5384 -0.416625,0.437345 -0.751241,0.909243 -0.170968,0.241749 -0.0976427,0.602978 -0.637221,0.994541 -0.0667494,0.032196 -0.120161,0.0586849 -0.163213,0.0811414 0.181824,-0.287283 0.30366,-0.572084 0.380955,-0.8433 0.273511,-0.423759 0.403784,-0.881203 0.684801,-1.30323 0.369479,-0.614454 1.22599,-0.400372 0.63505,-2.18821 -0.124007,-0.811228 -0.511787,-0.433127 -0.331017,-0.0157568 -0.0449132,0.637717 -0.297581,0.507506 -0.508065,1.15775 -0.0885856,0.274442 0.187221,0.366873 -0.0707196,0.940943 -0.127543,0.177667 -0.175372,0.293921 -0.210112,0.400558 0.0416253,-0.570471 0.030273,-1.44237 0.0986973,-1.85316 0.0810794,-0.692246 0.742122,-0.997395 -0.353474,-1.77413 -0.46005,-0.709926 -0.658375,-0.230521 -0.313275,0.0959057 0.229404,0.605769 -0.0487593,0.104591 0.0328784,0.777047 0.0348015,0.283871 0.329467,0.277481 0.334677,0.895285 -0.00837469,0.0427419 -0.0163772,0.0854839 -0.0227047,0.128164 -0.245968,-0.379218 -0.49299,-0.758313 -0.739454,-1.13747 -0.421216,-0.587221 0.0152605,-1.42301 -2.03244,-1.84938l0.000434243 0zm-2.25868 9.78995l0.25335 0.695782 0.825496 -0.00148883 -0.668672 0.428598 0.256762 0.694789 -0.666935 -0.430893 -0.666935 0.430893 0.256452 -0.694789 -0.668672 -0.428598 0.825496 0.00148883 0.25366 -0.695782z"/>
 </g>
</svg>
