<?xml version="1.0" encoding="UTF-8"?>
<!DOCTYPE svg PUBLIC "-//W3C//DTD SVG 1.1//EN" "http://www.w3.org/Graphics/SVG/1.1/DTD/svg11.dtd">
<!-- Creator: CorelDRAW -->
<svg xmlns="http://www.w3.org/2000/svg" xml:space="preserve" width="5548in" height="7180in" style="shape-rendering:geometricPrecision; text-rendering:geometricPrecision; image-rendering:optimizeQuality; fill-rule:evenodd; clip-rule:evenodd"
viewBox="0 0 126.414 63.2071"
 xmlns:xlink="http://www.w3.org/1999/xlink">
 <defs>
  <style type="text/css">
   <![CDATA[
    .fil0 {fill:#141516}
   ]]>
  </style>
 </defs>
 <g id="Layer_x0020_1">
  <metadata id="CorelCorpID_0Corel-Layer"/>
  <path class="fil0" d="M85.2282 59.0621c-0.457846,0.313825 -1.58165,0.314194 -2.29365,0.298355 0.039044,-0.0419907 0.0913482,-0.096505 0.11971,-0.122657 0.0261521,-0.0239421 0.0843498,-0.0843498 0.114922,-0.11087l0.400017 -0.249366 -0.0110502 -1.73783c-0.0198903,-0.585292 -0.219162,-1.52898 -0.155071,-2.03913 0.0677745,-0.543669 0.38602,-1.01293 0.442007,-1.79934 0.0504625,-0.710895 0.0198903,-2.59827 0.188958,-3.17472 0.503152,-1.71388 2.48519,0.219162 3.78211,0.639069 1.00741,0.32598 1.15659,0.0198903 2.13637,0.096505 0.38823,0.0305722 0.80077,0.172383 1.189,0.200008 0.334084,0.0246787 0.19964,0.0504625 0.543669,-0.00994517 0.653066,-0.114185 0.207007,-0.0530409 0.447533,-0.164648 1.86527,-0.865598 1.13007,0.350291 2.76807,0.348449 0.524147,-0.00036834 0.484366,-0.159123 0.893223,-0.0850864 0.797823,0.144757 1.86674,1.62364 2.18462,2.63068 -0.457109,0.755464 -1.17721,1.13191 -1.57281,2.03213 -0.889908,2.0255 0.204428,1.78645 -0.201113,2.32717 -0.452321,0.602972 -1.90837,0.428747 -2.60563,0.474053 -1.98867,0.129656 -7.03492,0.619179 -8.37088,0.447164l0 0zm-26.9971 -0.96947c-0.148809,0.332611 -0.366866,0.631334 -0.655276,0.895065 -0.252681,0.231317 -0.532251,0.413277 -0.838709,0.546248l0.997832 0.0239421 0.661906 -1.15622c-0.0640911,-0.179381 -0.118605,-0.269993 -0.165753,-0.309037zm-2.8911 1.40853l0 -1.11018c0.429852,0 0.794508,-0.144021 1.0936,-0.431694 0.298355,-0.287673 0.447901,-0.632071 0.447901,-1.03282 0,-0.530409 -0.188222,-0.936687 -0.564665,-1.21884 -0.340714,-0.254154 -0.791562,-0.381231 -1.35291,-0.381231l0 4.16592 0.376075 0.00884015zm-1.91758 -0.0453058l0 -5.54277 1.56839 0c1.08071,0 1.94115,0.293198 2.58022,0.880331 0.419539,0.384178 0.69211,0.847549 0.816977,1.39011 -0.00294672,-0.0707212 -0.00847181,-0.146231 -0.0169436,-0.228739 -0.0324139,-0.313825 0.0751413,-0.797087 0.211795,-1.32455l1.12786 0.00994517c-0.443481,-2.7526 0.86744,-3.17914 -0.861546,-3.76369 -0.960629,-0.324875 -0.170541,0.0891382 -0.959524,-0.57903 -0.729681,-0.617705 -1.42032,-0.307564 -2.01371,0.177171 -1.03798,0.848286 -1.42916,1.48183 -3.17619,2.67636 -0.777565,-0.564665 -1.3437,-0.904274 -1.45715,-2.32643l0.942213 -0.458951c1.08992,-0.542564 0.928584,-0.939634 1.36507,-1.20889 0.19964,-0.123025 0.636491,-0.142547 1.00373,-0.325612 0.1175,-1.03724 -0.320455,-1.90174 -0.578293,-2.80085 -2.01113,0.153598 -3.58947,0.311984 -5.4761,0.300933l0 1.9161c0,0.406647 -0.101662,0.759148 -0.304617,1.05824 -0.202955,0.299092 -0.510519,0.513465 -0.922691,0.643489l0 2.09917 -1.5415 0 0 -2.09917c-0.454163,-0.118605 -0.791562,-0.352869 -1.01257,-0.702792 -0.185275,-0.287673 -0.277728,-0.620652 -0.277728,-0.998937l0 -2.0907 1.54113 0 0 1.95551c0,0.174961 0.039044,0.314562 0.116764,0.418802 0.0773513,0.104608 0.200008,0.156913 0.367235,0.156913 0.161333,0 0.282148,-0.0523042 0.362814,-0.156913 0.0806664,-0.10424 0.120815,-0.243841 0.120815,-0.418802l0 -1.8266 -0.0530409 -0.00294672 -0.0548826 -3.57289c1.2542,-0.27294 5.51294,-0.0324139 6.43858,-0.330769 0.491365,-0.158018 0.198535,-0.0935582 0.351764,-0.184538 1.30503,-0.776828 2.17615,-0.446796 2.56364,-0.98052 0.320087,-0.787878 -0.216215,-1.66084 -0.462266,-2.85353 -0.283621,-1.37796 -0.739626,-1.37464 -1.08108,-2.61853 -0.266678,-0.970575 -0.47037,-2.09585 -0.680323,-3.03991 -0.854548,-3.84104 -0.0360973,-1.4962 0.141074,-2.94672 -0.0036834,-0.00221004 -1.17721,-0.371286 -1.75882,-1.19563 -0.149914,0.182696 -0.377548,0.289147 -0.682901,0.318982 0.337399,0.0836131 0.559139,0.159859 0.664853,0.228371 0.211427,0.132602 0.317509,0.342924 0.317509,0.632807l0 1.76508 -1.32971 0 0 -1.54482c0,-0.152124 -0.0581976,-0.257101 -0.174225,-0.316404 -0.115659,-0.0589343 -0.319719,-0.0880331 -0.611812,-0.0880331l0 -1.15474c0.246787,0 0.425432,-0.036834 0.536671,-0.110502 0.110502,-0.0736679 0.166121,-0.205902 0.166121,-0.39707 0,-0.137391 -0.0467791,-0.240526 -0.139969,-0.309037 -0.0928216,-0.0688795 -0.200377,-0.103135 -0.320824,-0.103135 -0.161333,0 -0.281411,0.0541459 -0.359499,0.162438 -0.0777196,0.107187 -0.116764,0.289147 -0.116764,0.543669l0 3.31763 -1.36028 0 0 -3.3099c0,-0.60334 0.167594,-1.07003 0.502783,-1.40116 0.334821,-0.331506 0.789352,-0.496522 1.36359,-0.496522 0.528936,0 0.954368,0.134812 1.27703,0.404437 0.162806,0.135917 0.28399,0.297987 0.364656,0.486208l0.797455 0.0250471c0.0169436,-0.0659328 0.241262,-0.674061 0.246787,-0.680323 0.352501,-0.458951 0.276623,-0.152493 0.751413,-0.473316 -0.734101,-4.5361 -1.61296,-6.88979 -2.41778,-10.6807 -0.157281,-0.739994 -0.471843,-1.19674 0.30388,-1.48293 1.61443,-0.595973 1.63064,2.862 2.06233,5.2632 0.283621,1.57686 0.682901,5.20979 1.46525,6.15901 0.615495,-0.229107 0.51899,-0.377548 1.13154,-0.513465 0.769093,0.753623 0.417697,0.803349 0.755096,1.33007 0.611075,-0.041254 0.697267,-0.0928216 1.19637,-0.200745 0.362446,-0.0784563 0.448638,-0.150651 0.846813,-0.0839814 0.0556193,0.00957683 0.109765,0.0324139 0.159491,0.0453058 0.0489892,0.0125235 0.11308,0.0511992 0.152493,0.0640911 1.36396,0.452321 -2.06233,3.32574 -2.19273,3.41635 0.251208,0.428379 -0.00957683,-0.00257838 0.236842,0.347713 0.755464,1.07371 1.28035,1.42547 2.99718,1.63616 0.438324,-0.766515 -0.267783,-0.247156 0.586765,-0.653803 0.588238,-0.27957 1.64058,-0.182328 2.4583,-0.396333 0.650488,-0.170541 0.163543,-0.271466 1.04572,-0.0593027 0.331506,-1.30171 0.653066,-0.919375 1.88074,-1.47815 0.810347,-0.369813 1.56655,-0.905379 2.37579,-1.19563 2.90436,-1.04019 2.99534,-1.9592 4.73795,-2.2454 0.0232054,-1.54187 1.08734,-2.55812 2.10469,-4.53794 0.831711,-1.61922 2.27044,-3.27712 2.62479,-4.45801 -2.13195,0.0847181 -2.15736,1.28661 -3.96407,1.27003 -0.970575,-1.08881 -0.718999,-1.03209 -2.42036,-2.01003 -0.546248,-0.314194 -0.385651,-0.277728 -0.613654,-0.865598 -1.0634,0.0511992 -1.59491,0.864861 -1.73377,-0.511624 -0.193747,-1.915 0.953999,-2.60637 -1.34886,-2.0266 -2.41299,0.60776 -1.64353,-0.841656 -1.76766,-2.33306 -0.168331,-2.00929 -1.30429,-3.75485 0.679218,-6.1218 0.426169,-0.509045 0.830974,-0.856021 1.33265,-1.28145 2.80564,-2.37911 3.96591,-1.72088 5.46984,-2.45461l0.823607 0c0.532987,0.280306 1.36949,0.316404 2.16399,0.714579 0.831711,0.416592 1.2623,0.681428 1.81113,1.19047 0.577925,0.536302 1.07739,0.774986 1.45568,1.53008l1.14259 2.03986c0.692478,2.12495 -1.87522,2.57469 0.459688,4.1464 1.02398,0.6899 1.10465,0.341819 2.28076,0.719735 0.977573,0.313825 1.25383,0.655276 2.45167,0.670378 1.28403,-1.50909 2.0325,-2.77875 4.22191,-3.53569 2.08296,-0.720104 4.16518,-1.72236 6.69089,-1.36212 2.57911,0.367603 4.28121,1.0052 5.45143,2.43251 1.16764,1.42547 2.63768,3.2005 3.07306,4.97516 2.71687,-1.04056 3.5961,-0.556561 5.0573,1.11239 2.27376,2.59532 4.25874,5.94832 4.99321,9.51789 0.534829,2.59827 0.261153,3.97954 -0.871491,5.91001 -2.22109,3.7869 -4.03626,4.77331 -7.59516,6.98003 -0.773881,0.479946 -1.46194,0.853074 -2.44283,1.10649 -3.08705,0.797823 -1.87116,0.739994 -3.06495,3.48191l-0.12192 0.252313c-0.169436,0.270361 -0.128182,0.167594 -0.261153,0.298723 -0.696162,0.689163 -0.864125,1.04535 -1.21736,2.6351 0.22395,0.0320455 2.62994,0.605919 2.69256,0.635017 1.56765,1.18495 0.591922,5.51367 0.476631,7.57932 -0.0854548,1.54592 -0.908325,1.77945 -1.56065,2.65094 -0.273676,0.365761 -0.654908,0.900222 -0.935951,1.29582 -0.430221,0.604445 -0.637596,0.794877 -0.989728,1.24572 6.67358,0.280675 16.292,-1.26598 25.8379,-0.691742l0 0.389703c-3.09074,1.77945 -5.94905,2.97729 -9.80372,3.20971 -4.20607,0.253786 -8.60736,0.248629 -12.8377,0.279201 -17.484,0.125235 -33.7347,0.432799 -51.1929,0.956578 -2.7003,0.0810347 -24.5333,0.674798 -25.1557,0.840551l-9.26816 0c-0.840182,-0.348818 -3.18319,-0.773881 -4.32799,-0.824344 -1.57023,-0.0685112 -3.18503,-0.155071 -4.77884,-0.27515 -2.76107,-0.207375 -6.62017,-0.287673 -9.049,-1.17979l0 -0.218057c3.87898,-1.34444 16.5686,-1.49546 17.0578,-1.71794 0.671851,-0.306827 0.0335189,-0.0136286 0.489523,-0.711264 0.442744,0.369813 0.139232,0.297987 0.856021,0.611075l-0.4037 -1.67742c0.472211,0.29725 0.0784563,-0.041254 0.401122,0.319719 0.0176803,0.0198903 0.29062,0.390808 0.338504,0.461898 0.212532,0.314562 0.296145,0.536302 0.610707,0.728944l0.00294672 -8.33442 -0.672956 0c-0.824712,0 -1.50393,-0.283621 -2.03913,-0.850496 -0.534461,-0.567243 -0.801875,-1.26267 -0.801875,-2.08664 0,-0.835394 0.267414,-1.53634 0.801875,-2.10396 0.535197,-0.566875 1.21442,-0.850496 2.03913,-0.850496l0.675166 0 0.00810347 -19.3945 -11.343 -0.0228371 0.00847181 -4.93612 -1.12675 0 0 -2.0487 -1.21773 0 0 -1.3286 1.21773 0 0 -0.559139c0,-0.219899 -0.0718262,-0.395965 -0.214374,-0.528936 -0.142547,-0.132234 -0.334452,-0.198535 -0.574978,-0.198535 -0.247893,0 -0.443481,0.0644594 -0.586397,0.194483 -0.142547,0.130024 -0.214005,0.307564 -0.214005,0.532987l0 3.93644 -1.93894 0 0 -3.86867c0,-0.637596 0.251944,-1.15106 0.755096,-1.5404 0.50352,-0.389335 1.16506,-0.584186 1.98425,-0.584186 0.819187,0 1.48257,0.195957 1.98977,0.588238 0.507572,0.392282 0.760989,0.904642 0.760989,1.53634l0 3.50586 0.938529 0.00036834 0.5724 -4.3523c0.0604077,-0.457478 0.18417,-0.77646 0.372023,-0.956578 0.225424,-0.214374 0.612549,-0.321929 1.16101,-0.321929 0.796718,0 1.26672,0.358394 1.40927,1.07481l0.563928 2.84432 0.0563559 0 0.574978 -2.84432c0.142547,-0.71642 0.612549,-1.07481 1.40927,-1.07481 0.555824,0 0.943318,0.104608 1.16101,0.313457 0.187853,0.174593 0.311615,0.496153 0.372023,0.96505l0.572768 4.35525 1.32455 0.000736679 0.0228371 -9.03021 5.88459 0.00773513 0.060776 8.99043 1.83765 0.00663011 0 -8.06222c0,-1.42989 0.448269,-2.58169 1.34591,-3.45466 0.897643,-0.873333 2.0767,-1.30982 3.53643,-1.30982 1.4601,0 2.64247,0.439429 3.54637,1.31939 0.904274,0.879226 1.35659,2.02771 1.35659,3.44508l0 8.67403 -0.0235737 0 0.00478841 4.68196 -11.6067 0.0313089 0 1.73598c0.039044,-0.040149 0.0810347,-0.078088 0.12634,-0.11308 0.27736,-0.215847 0.645331,-0.32377 1.10355,-0.32377l1.36764 0 0 1.18458 -1.32234 0c-0.0906115,0 -0.163911,0.0158386 -0.21953,0.0475158 -0.0552509,0.0320455 -0.0832447,0.0872965 -0.0832447,0.165384 0,0.107923 0.169436,0.272203 0.506835,0.493207 0.48805,0.318614 0.803349,0.546248 0.944054,0.683638 0.342924,0.32377 0.514202,0.661906 0.514202,1.01478 0,0.436482 -0.098715,0.772776 -0.294672,1.00815 -0.292093,0.348081 -0.813662,0.522305 -1.56434,0.522305l-1.0785 0 0.000736679 20.4583c0.404805,-0.272571 0.858968,-0.437956 1.36101,-0.496153l0 -3.28743c0,-0.637227 0.200008,-1.15106 0.600393,-1.5404 0.400385,-0.389335 0.926006,-0.584186 1.57686,-0.584186 0.651593,0 1.17869,0.196325 1.58165,0.588238 0.403332,0.392282 0.60555,0.904274 0.60555,1.53634l0 3.86867 -1.55955 0 0 -2.04834 -0.967996 0 0 -1.32897 0.967996 0 0 -0.558771c0,-0.220267 -0.0567243,-0.396333 -0.170173,-0.529304 -0.113817,-0.132234 -0.266309,-0.198903 -0.457478,-0.198903 -0.197062,0 -0.352133,0.0651961 -0.465581,0.19522 -0.113449,0.129287 -0.170173,0.307564 -0.170173,0.532987l0 3.51543c0.417329,0.149546 0.795613,0.38823 1.13412,0.716789 0.618074,0.60113 0.927111,1.31939 0.927111,2.15442 0,0.823976 -0.309037,1.53634 -0.927111,2.13784 -0.549563,0.534092 -1.2041,0.830606 -1.96325,0.890277l-0.237579 1.43984c0.702423,-0.338504 0.755464,-0.636491 1.33818,-1.08402l0.134076 0.988255 11.7854 0.278465c-0.0519359,-0.0449374 -0.103135,-0.0917165 -0.152861,-0.140337 -0.615495,-0.598183 -0.923059,-1.31203 -0.923059,-2.14153 0,-0.841287 0.30609,-1.56029 0.918639,-2.15847 0.61218,-0.598552 1.36028,-0.897643 2.24466,-0.897643 0.489523,0 0.957314,0.0817714 1.40227,0.245682 0.444954,0.163543 0.843866,0.39486 1.19674,0.693952l-1.08476 1.03282c-0.256733,-0.208849 -0.485103,-0.354343 -0.685848,-0.436114 -0.200008,-0.0817714 -0.449374,-0.122657 -0.747729,-0.122657 -0.50794,0 -0.906852,0.155071 -1.19674,0.465581 -0.289515,0.310142 -0.434272,0.696898 -0.434272,1.1599 0,0.473685 0.155071,0.865966 0.46595,1.17648 0.31051,0.31051 0.710895,0.465213 1.20079,0.465213 0.262626,0 0.532987,-0.0968733 0.811084,-0.291725 0.277728,-0.194852 0.467423,-0.433167 0.569085,-0.715684l-1.56839 0 0 -1.3286 3.26201 0 0 0.626546c0,0.846444 -0.283621,1.56876 -0.851601,2.16694 -0.10203,0.107923 -0.209217,0.206638 -0.32156,0.296145l3.04396 0.0721945c-0.12634,-0.0924532 -0.248261,-0.19522 -0.365393,-0.309037 -0.615495,-0.598183 -0.923059,-1.31203 -0.923059,-2.14153 0,-0.841287 0.306458,-1.56029 0.918639,-2.15847 0.61218,-0.598552 1.36065,-0.897643 2.24466,-0.897643 0.884383,0 1.63543,0.300197 2.25387,0.901327 0.618074,0.601498 0.927479,1.31939 0.927479,2.15479 0,0.823607 -0.309405,1.53634 -0.927479,2.13747 -0.156544,0.151756 -0.321929,0.284726 -0.495417,0.398543l2.22956 0.0523042 0 0zm-2.37505 -2.58832c0,-0.42359 -0.156913,-0.788983 -0.47037,-1.09655 -0.313457,-0.307564 -0.69432,-0.461529 -1.14259,-0.461529 -0.447901,0 -0.827291,0.152493 -1.1378,0.457478 -0.310879,0.304617 -0.466318,0.671483 -0.466318,1.1006 0,0.422854 0.153966,0.785668 0.461898,1.08734 0.307564,0.302038 0.688427,0.453058 1.14222,0.453058 0.448269,0 0.829132,-0.151019 1.14259,-0.453058 0.313457,-0.30167 0.47037,-0.664485 0.47037,-1.08734zm-16.7329 -1.53045l-1.75624 0 0 2.09917 -1.5415 0 0 -4.0801c0,-0.530409 0.167226,-0.96505 0.501678,-1.30392 0.159859,-0.161333 0.344766,-0.284726 0.555088,-0.368708l0 -3.44471c0,-0.693583 0.198535,-1.23136 0.595973,-1.61259 0.397438,-0.380495 0.936319,-0.571295 1.61775,-0.571295 0.626914,0 1.13154,0.155439 1.51424,0.46595 0.382336,0.310142 0.573505,0.738889 0.573505,1.28661 0,0.744783 -0.355448,1.15106 -1.06671,1.21884 0.400753,0.0961366 0.663379,0.183433 0.788983,0.262258 0.250839,0.152861 0.376075,0.395228 0.376075,0.728207l0 2.03139 -1.57686 0 0 -1.77761c0,-0.174961 -0.0688795,-0.296145 -0.20627,-0.363919 -0.137391,-0.0677745 -0.379021,-0.101662 -0.725997,-0.101662l0 -1.3286c0.293198,0 0.504993,-0.0427274 0.636491,-0.127445 0.131497,-0.0847181 0.197062,-0.236842 0.197062,-0.457109 0,-0.158018 -0.0552509,-0.276623 -0.165753,-0.355079 -0.110502,-0.079193 -0.237211,-0.118974 -0.380863,-0.118974 -0.191537,0 -0.333347,0.0622494 -0.4258,0.18638 -0.0928216,0.12413 -0.138864,0.332979 -0.138864,0.626177l0 3.31432 0.628019 0 0 1.41332 -1.21 0c-0.202955,0 -0.344766,0.0353606 -0.425432,0.106082 -0.0806664,0.0707212 -0.120815,0.187485 -0.120815,0.351396l0 0.558403 1.75624 0 0 1.36322zm-7.02092 2.19567c-0.0637227,0.0036834 -0.127814,0.00515675 -0.192642,0.00515675 -0.17975,0 -0.353238,-0.0125235 -0.521937,-0.0375706l-0.208849 1.19747c0.611444,-0.460424 0.251944,-0.273676 0.737784,-0.926742 0.129287,-0.174593 0.137391,-0.191905 0.185643,-0.238316zm-1.16027 -0.131497c-0.290252,-0.0869281 -0.561718,-0.216215 -0.815135,-0.387125l0 1.69068c0.579766,-0.69432 0.562823,-0.933741 0.815135,-1.30355zm2.58059 -2.90252c0,-0.422854 -0.157281,-0.788615 -0.470738,-1.09618 -0.313457,-0.307564 -0.69432,-0.461529 -1.14222,-0.461529 -0.448269,0 -0.827659,0.152861 -1.13817,0.457478 -0.31051,0.304617 -0.46595,0.671483 -0.46595,1.10023 0,0.423222 0.153966,0.786037 0.461529,1.08807 0.307564,0.30167 0.688058,0.453058 1.14259,0.453058 0.447901,0 0.828764,-0.151388 1.14222,-0.453058 0.313457,-0.302038 0.470738,-0.664853 0.470738,-1.08807zm15.1082 -2.45056l-1.46967 0 -0.278465 -4.79983 -0.788247 4.14824c-0.0419907,0.225792 -0.134444,0.407752 -0.277728,0.546248 -0.143284,0.137759 -0.31051,0.207007 -0.501678,0.207007 -0.191537,0 -0.355816,-0.0677745 -0.493207,-0.203323 -0.137391,-0.135181 -0.229844,-0.318982 -0.277728,-0.549931l-0.770566 -4.01269 -0.278096 4.66428 -1.47851 0 0.493207 -4.71511c0.0475158,-0.456741 0.146231,-0.775723 0.295408,-0.956578 0.179381,-0.214005 0.486945,-0.32156 0.922691,-0.32156 0.633544,0 1.00704,0.358394 1.12049,1.07518l0.447901 2.84432 0.0453058 0 0.456741 -2.84432c0.113449,-0.716789 0.486945,-1.07518 1.12012,-1.07518 0.442376,0 0.749939,0.104608 0.923059,0.313089 0.149178,0.17533 0.247893,0.49689 0.295777,0.96505l0.493207 4.71511zm-24.4673 -6.18479c-0.593763,0.00994517 -0.996358,0.0648278 -1.20852,0.163174 -0.235737,0.110134 -0.455268,0.371286 -0.658223,0.78309l1.86638 0 0.00036834 -0.946264zm-0.00110502 2.22477l-1.86564 0c0.202955,0.417329 0.422485,0.678113 0.658223,0.782722 0.211795,0.0935582 0.61439,0.145494 1.20742,0.154703l0 -0.937424zm-4.38398 2.30212l-1.55918 0 0 -2.41226 -1.22804 0 0 2.41226 -1.54076 0 0 -5.89159 1.54076 0 0 2.06528 1.22804 0 0 -2.06528 1.55918 0 0 5.89159zm-4.9468 -4.47827l-1.13817 0 0 4.47827 -1.55034 0 0 -4.47827 -1.13743 0 0 -1.41332 3.82594 0 0 1.41332zm32.7266 -7.16531c0,0.254154 -0.0836131,0.460056 -0.251576,0.618442 -0.167226,0.157649 -0.358026,0.236842 -0.573136,0.236842 -0.209217,0 -0.391177,-0.0593027 -0.546616,-0.177908 -0.179013,-0.141074 -0.367603,-0.389703 -0.564665,-0.744783l-1.44279 -2.62442 -0.0180486 3.44545 -1.54076 0 0 -5.18033c0,-0.237579 0.0865598,-0.432062 0.259679,-0.584555 0.17312,-0.152124 0.391177,-0.228371 0.653803,-0.228371 0.483998,0 0.839814,0.20848 1.06671,0.626177l1.38017 2.59053 0.0180486 -3.11505 1.55918 0 0 5.13797 0 0zm-5.90559 0.753623l-1.5415 0 0 -5.89159 1.5415 0 0 5.89159zm11.3283 -7.99555l-0.748098 0c-0.695057,0 -1.26782,-0.246787 -1.71867,-0.739257 -0.451216,-0.492838 -0.67664,-1.09728 -0.67664,-1.81334 0,-0.725629 0.225424,-1.33486 0.67664,-1.82733 0.450848,-0.493207 1.02362,-0.739626 1.71867,-0.739626l0.748098 0 0 1.18458c-0.599657,0 -0.998937,0.0475158 -1.19784,0.143284 -0.198535,0.0953999 -0.38381,0.322297 -0.555456,0.680323l1.7533 0 0 1.11091 -1.7533 0c0.171646,0.362814 0.356921,0.588975 0.555456,0.680323 0.198903,0.0906115 0.598183,0.135917 1.19784,0.135917l0 1.18421zm-3.78543 0l-1.29987 0 0 -5.11955 1.29987 0 0 5.11955zm-2.02513 -2.50839c0,0.725629 -0.250839,1.32565 -0.751781,1.79823 -0.50131,0.473316 -1.13007,0.710159 -1.88553,0.710159l0 -1.22878c0.362814,0 0.67001,-0.124867 0.921954,-0.374601 0.251576,-0.250471 0.378285,-0.549563 0.378285,-0.897275 0,-0.461529 -0.158754,-0.814399 -0.476263,-1.05971 -0.287305,-0.220635 -0.667431,-0.331137 -1.14075,-0.331137l0 3.89151 -1.30024 0 0 -5.11955 1.32234 0c0.912009,0 1.63764,0.255259 2.17652,0.765041 0.503888,0.475526 0.755464,1.09139 0.755464,1.84612l0 0zm-4.76779 2.50839l-0.997463 0c-0.639806,0 -1.11091,-0.130392 -1.41295,-0.390072 -0.302407,-0.259679 -0.453426,-0.67885 -0.453426,-1.25751l0 -3.47197 1.2995 0 0 3.35447c0,0.205533 0.0467791,0.346607 0.139969,0.422485 0.0931899,0.0762463 0.27073,0.113817 0.532619,0.113817l0.89175 0 0 1.22878zm-3.49849 -2.55259c0,0.716052 -0.260784,1.33523 -0.782353,1.85754 -0.520832,0.521937 -1.15438,0.783458 -1.8999,0.783458 -0.740731,0 -1.37022,-0.260048 -1.88921,-0.780143 -0.518622,-0.519359 -0.777933,-1.13964 -0.777933,-1.86085 0,-0.730417 0.257838,-1.35549 0.77425,-1.87558 0.516044,-0.519727 1.14738,-0.779406 1.8929,-0.779406 0.745519,0 1.37906,0.261153 1.8999,0.78309 0.521569,0.522305 0.782353,1.14627 0.782353,1.8719zm-1.32234 0c0,-0.367603 -0.132234,-0.685112 -0.396333,-0.952526 -0.264836,-0.267414 -0.586028,-0.400753 -0.963576,-0.400753 -0.377916,0 -0.698003,0.132602 -0.959524,0.397438 -0.261889,0.264468 -0.393387,0.583081 -0.393387,0.955841 0,0.367971 0.130024,0.682901 0.389335,0.945159 0.259311,0.262258 0.580871,0.393755 0.963576,0.393755 0.377548,0 0.69874,-0.131497 0.963576,-0.393755 0.264099,-0.262258 0.396333,-0.577188 0.396333,-0.945159zm-7.45593 1.36838l1.03319 0c0.327822,0 0.491365,-0.0931899 0.491365,-0.279201 0,-0.137391 -0.161333,-0.316772 -0.48363,-0.537039 -0.483998,-0.329296 -0.786037,-0.552141 -0.906852,-0.669641 -0.0482525,-0.0460424 -0.0924532,-0.0928216 -0.134076,-0.139601l0 1.62548zm8.12962 -10.5378l0 -4.00311 -2.17062 0 0 -2.97987 2.17062 0 0 -1.25272c0,-0.493943 -0.127445,-0.88954 -0.381968,-1.18679 -0.254891,-0.297618 -0.596342,-0.445691 -1.02509,-0.445691 -0.442007,0 -0.790457,0.145126 -1.04461,0.436482 -0.254523,0.290988 -0.381968,0.6899 -0.381968,1.196l0 8.22576 2.83364 0.00994517zm-17.2479 0.0018417l-0.323034 -4.43886 -0.99157 4.14787c-0.0250471,0.10645 -0.0644594,0.203692 -0.118237,0.29062l1.43284 0.00036834zm-3.14562 -0.000736679c-0.0519359,-0.0865598 -0.0917165,-0.183433 -0.11971,-0.290252l-0.96947 -4.01232 -0.322297 4.30184 1.41148 0.000736679zm48.2164 15.1726c0.0302038,0.0272571 0.0740362,0.0721945 0.107555,0.100557 0.262626,0.22174 0.18859,0.251576 0.577188,0.335189 1.13043,0.243472 2.59201,-0.759148 3.26607,-0.723419 0.975363,0.0515675 1.36101,0.400017 2.62074,0.167226 0.839446,-0.155439 1.20705,-0.531146 2.0918,-0.610339 0.328927,2.96734 -0.237947,6.29234 1.09802,8.75212l2.66088 4.60793 1.05713 1.39085c-0.633912,1.37059 -0.498732,2.3128 -0.096505,3.69629 -0.871491,0.716052 -3.69739,1.90063 -4.95232,2.2745 -1.56728,0.466686 -4.01601,-0.0677745 -3.6985,3.72428 0.328927,0.257838 1.26414,0.910535 1.78903,0.983835l-7.5808 -0.114554c0.795982,-0.306458 2.0034,-0.267783 2.64394,-0.750308 0.961366,-1.07334 -1.92752,-6.88132 -1.52935,-8.10273 0.449743,-1.37796 0.946633,1.12933 0.0898748,-3.99943 -0.106818,-0.641647 -0.363183,-3.61083 -0.0939266,-3.96444 1.10723,-0.153598 0.527831,-0.185643 1.45052,2.82922 0.864125,-0.0567243 0.843866,-0.0968733 1.46341,-0.373128 1.21626,-0.543669 1.35107,0.00884015 0.994885,-2.40857 -0.198535,-1.34665 -0.19301,-0.851601 -1.06155,-1.37317 -0.201113,-1.18937 -0.21069,-2.16915 -0.569085,-3.16477 -1.09876,-0.127814 -1.31866,-0.0239421 -2.06123,0.414014 -0.161333,0.980151 0.373865,1.80118 -0.800402,1.84759 -1.00888,0.0394123 -0.867808,-0.737416 -0.823607,-1.34739 0.102398,-1.4321 -0.6166,-2.74744 -0.612549,-4.13424l1.74446 -0.269256c0.0419907,0.0305722 0.0869281,0.0836131 0.113449,0.107555 0.0254154,0.0235737 0.0795613,0.0766146 0.11087,0.104608l0 0zm15.106 -2.79128c1.60007,-1.66268 4.84993,-2.43472 6.25809,-4.45212 0.361341,-0.517885 1.04203,-1.49104 1.59638,-2.00193l2.60858 5.20685 -10.4631 1.2472 0 0z"/>
 </g>
</svg>
