<?xml version="1.0" encoding="UTF-8"?>
<!DOCTYPE svg PUBLIC "-//W3C//DTD SVG 1.1//EN" "http://www.w3.org/Graphics/SVG/1.1/DTD/svg11.dtd">
<!-- Creator: CorelDRAW -->
<svg xmlns="http://www.w3.org/2000/svg" xml:space="preserve" width="25in" height="39in" style="shape-rendering:geometricPrecision; text-rendering:geometricPrecision; image-rendering:optimizeQuality; fill-rule:evenodd; clip-rule:evenodd"
viewBox="0 0 0.257507 0.128754"
 xmlns:xlink="http://www.w3.org/1999/xlink">
 <defs>
  <style type="text/css">
   <![CDATA[
    .fil0 {fill:fuchsia}
   ]]>
  </style>
 </defs>
 <g id="Layer_x0020_1">
  <metadata id="CorelCorpID_0Corel-Layer"/>
  <path class="fil0" d="M0.17361 0.12031c-0.000932703,0.000638699 -0.00322188,0.000639712 -0.00467162,0.00060727 7.9077e-005,-8.51598e-005 0.000185527,-0.000196679 0.000243314,-0.000249397 5.37318e-005,-4.86627e-005 0.000172347,-0.000172347 0.000234189,-0.000226079l0.000815101 -0.000507917 -2.23038e-005 -0.00354021c-4.05523e-005,-0.00119224 -0.000447089,-0.00311442 -0.000316308,-0.00415357 0.000137878,-0.00110708 0.000786714,-0.0020631 0.000900261,-0.00366491 0.000103408,-0.00144873 4.05523e-005,-0.00529309 0.000385247,-0.00646708 0.00102496,-0.00349155 0.00506194,0.000446075 0.00770392,0.00130173 0.00205195,0.000664044 0.00235609,4.05523e-005 0.00435227,0.000196679 0.00079077,6.18422e-005 0.00163122,0.000350777 0.00242199,0.00040755 0.000680265,4.96766e-005 0.000406537,0.000102395 0.00110708,-2.02761e-005 0.00133011,-0.000233176 0.000421744,-0.000108477 0.000911413,-0.00033557 0.00379975,-0.00176301 0.00230236,0.00071372 0.0056388,0.000709665 0.00106754,-1.01381e-006 0.000986434,-0.000324418 0.00181978,-0.000173361 0.00162513,0.000295018 0.00380279,0.00330704 0.0044496,0.00535898 -0.000930675,0.00153896 -0.00239765,0.0023054 -0.00320363,0.00413937 -0.00181269,0.0041262 0.000416675,0.00363855 -0.000409578,0.00474056 -0.000921551,0.00122772 -0.00388694,0.000872888 -0.00530728,0.000965144 -0.00405117,0.000264604 -0.0143302,0.00126118 -0.0170522,0.000911413zm-0.054993 -0.0019749c-0.000303128,0.000677223 -0.000747176,0.00128551 -0.00133518,0.00182283 -0.000514,0.00047142 -0.00108376,0.000842474 -0.00170827,0.00111316l0.00203268 4.86627e-005 0.00134836 -0.00235507c-0.000130781,-0.000365984 -0.000241286,-0.000550497 -0.000337598,-0.000629574zm-0.00588921 0.00286907l0 -0.0022618c0.000875929,0 0.00161804,-0.00029299 0.00222733,-0.000878971 0.000608284,-0.000585981 0.000912426,-0.00128754 0.000912426,-0.00210365 0,-0.00108072 -0.000383219,-0.00190799 -0.00114966,-0.00248281 -0.000694458,-0.000518055 -0.00161297,-0.000776576 -0.00275654,-0.000776576l0 0.00848557 0.000766438 1.82485e-005zm-0.0039062 -9.22565e-005l0 -0.0112908 0.00319451 0c0.00220199,0 0.00395486,0.000597132 0.00525659,0.00179342 0.000854639,0.000782659 0.00140919,0.00172651 0.00166366,0.00283156 -6.08284e-006,-0.000143961 -1.72347e-005,-0.000298059 -3.44694e-005,-0.000466351 -6.58975e-005,-0.000638699 0.000153085,-0.00162311 0.000431882,-0.00269774l0.00229729 2.02761e-005c-0.000903302,-0.00560737 0.00176707,-0.0064762 -0.0017549,-0.00766641 -0.00195665,-0.000662016 -0.000347736,0.000181471 -0.00195462,-0.00118007 -0.00148624,-0.00125813 -0.00289341,-0.000626533 -0.00410186,0.000360915 -0.0021148,0.00172854 -0.00291165,0.00301912 -0.00647012,0.00545225 -0.00158357,-0.00115067 -0.00273728,-0.00184209 -0.00296843,-0.00473955l0.00191914 -0.00093473c0.00222024,-0.00110505 0.00189176,-0.00191407 0.00278087,-0.00246254 0.000406537,-0.00025041 0.00129666,-0.000289949 0.00204485,-0.00066303 0.000239258,-0.00211277 -0.000652892,-0.00387376 -0.00117804,-0.00570571 -0.00409679,0.000313266 -0.00731158,0.000635657 -0.0111549,0.000613353l0 0.00390316c0,0.00082828 -0.000206817,0.00154606 -0.00062045,0.00215535 -0.000413633,0.000609298 -0.00104017,0.00104625 -0.0018796,0.00131085l0 0.00427624 -0.00313976 0 0 -0.00427624c-0.000925606,-0.000241286 -0.00161297,-0.000718789 -0.0020631,-0.0014315 -0.000377136,-0.000585981 -0.000565704,-0.00126422 -0.000565704,-0.00203471l0 -0.004259 0.00313976 0 0 0.00398325c0,0.00035686 7.9077e-005,0.000640726 0.000237231,0.000853626 0.000158154,0.0002129 0.00040755,0.000319349 0.00074819,0.000319349 0.000328474,0 0.000574829,-0.00010645 0.000739065,-0.000319349 0.000164237,-0.0002129 0.000246355,-0.000496766 0.000246355,-0.000853626l0 -0.00372067 -0.000108477 -6.08284e-006 -0.000111519 -0.00727812c0.00255479,-0.000555566 0.0112299,-6.58975e-005 0.0131156,-0.000673168 0.00100063,-0.000322391 0.000404509,-0.000190596 0.000716762,-0.000376122 0.0026582,-0.00158255 0.00443236,-0.000910399 0.00522212,-0.0019972 0.000651878,-0.00160486 -0.000441006,-0.00338307 -0.000941827,-0.00581317 -0.00057787,-0.00280622 -0.00150652,-0.00280014 -0.00220199,-0.00533364 -0.000543401,-0.00197692 -0.000958048,-0.00426914 -0.00138587,-0.00619233 -0.00174071,-0.00782456 -7.40079e-005,-0.0030475 0.000286907,-0.00600275 -7.09665e-006,-4.05523e-006 -0.00239765,-0.0007563 -0.00358279,-0.00243516 -0.000305156,0.000372067 -0.000768466,0.000589022 -0.00139094,0.00064985 0.000687361,0.00017032 0.00113952,0.000325432 0.00135445,0.000465337 0.000430868,0.000269673 0.000646809,0.000698513 0.000646809,0.00128855l0 0.00359597 -0.00270889 0 0 -0.00314686c0,-0.000310225 -0.000118615,-0.000524138 -0.000354833,-0.000644781 -0.000235203,-0.000119629 -0.000650864,-0.000179444 -0.00124597,-0.000179444l0 -0.00235203c0.000502848,0 0.000866805,-7.50217e-005 0.00109288,-0.000225065 0.000225065,-0.000150043 0.000338612,-0.000419716 0.000338612,-0.000809018 0,-0.000279811 -9.52979e-005,-0.000489669 -0.00028488,-0.000629574 -0.000189582,-0.000139905 -0.000408564,-0.000209858 -0.000653906,-0.000209858 -0.000328474,0 -0.000572801,0.000110505 -0.000731969,0.000330501 -0.000158154,0.000218982 -0.000238245,0.000589022 -0.000238245,0.00110809l0 0.00675804 -0.00277073 0 0 -0.00674283c0,-0.00122873 0.000341653,-0.00217969 0.00102395,-0.00285387 0.000682292,-0.000675196 0.0016079,-0.00101178 0.00277783,-0.00101178 0.00107768,0 0.00194448,0.000274742 0.00260143,0.000824225 0.000331515,0.000276769 0.000578884,0.00060727 0.000743121,0.00099049l0.00162412 5.06904e-005c3.44694e-005,-0.000133823 0.000491696,-0.00137269 0.000502848,-0.00138587 0.000717775,-0.00093473 0.000563677,-0.000310225 0.00153085,-0.000964131 -0.00149537,-0.00923984 -0.00328575,-0.0140341 -0.00492508,-0.0217563 -0.000320363,-0.00150753 -0.000961089,-0.00243821 0.000618422,-0.00302115 0.00328879,-0.00121353 0.00332225,0.0058304 0.00420122,0.010721 0.00057787,0.00321275 0.00139094,0.0106125 0.00298465,0.0125459 0.00125408,-0.000466351 0.0010574,-0.000768466 0.0023054,-0.00104524 0.00156633,0.0015349 0.000850584,0.00163628 0.00153795,0.00270889 0.00124496,-8.4146e-005 0.00142034,-0.000188568 0.00243719,-0.000408564 0.000738052,-0.000160182 0.00091344,-0.000307184 0.00172449,-0.000171333 0.000113546,1.92623e-005 0.000224051,6.58975e-005 0.000325432,9.22565e-005 9.93531e-005,2.53452e-005 0.000230134,0.000104422 0.000310225,0.000130781 0.00277885,0.000921551 -0.00420122,0.00677426 -0.00446683,0.00695877 0.000511973,0.000872888 -1.92623e-005,-5.06904e-006 0.000482572,0.000708651 0.00153896,0.00218678 0.00260853,0.00290354 0.00610515,0.00333238 0.000893164,-0.00156126 -0.000545428,-0.000502848 0.00119528,-0.00133113 0.00119832,-0.00056976 0.00334252,-0.000372067 0.00500821,-0.000808004 0.00132505,-0.000346722 0.000332529,-0.000552525 0.00213001,-0.000120643 0.000675196,-0.00265111 0.00133011,-0.0018725 0.00383118,-0.00301101 0.00165048,-0.000753259 0.00319045,-0.00184412 0.0048389,-0.00243516 0.00591658,-0.00211886 0.00610211,-0.00399136 0.00965144,-0.0045743 4.76489e-005,-0.00314077 0.00221517,-0.00521097 0.00428739,-0.00924389 0.00169407,-0.00329791 0.00462499,-0.00667491 0.00534682,-0.00908067 -0.00434315,0.000172347 -0.00439485,0.00262069 -0.00807497,0.00258724 -0.00197692,-0.00221821 -0.00146495,-0.00210264 -0.00493014,-0.00409477 -0.00111316,-0.000639712 -0.000785701,-0.000565704 -0.00125002,-0.00176301 -0.00216651,0.000104422 -0.00324925,0.001762 -0.0035321,-0.00104219 -0.000394371,-0.00390113 0.00194347,-0.00530931 -0.00274742,-0.00412822 -0.00491494,0.00123786 -0.00334759,-0.00171435 -0.00360104,-0.00475273 -0.000342667,-0.00409274 -0.00265617,-0.00764816 0.00138385,-0.0124698 0.000867819,-0.00103712 0.00169306,-0.00174375 0.00271498,-0.00261055 0.00571483,-0.004846 0.00807802,-0.00350575 0.0111417,-0.0050001l0.00167785 0c0.00108579,0.000570773 0.00279,0.000644781 0.00440803,0.00145583 0.00169407,0.000848557 0.00257101,0.0013879 0.00368924,0.00242503 0.00117703,0.00109187 0.00219489,0.0015785 0.00296539,0.00311644l0.0023277 0.0041556c0.00141021,0.00432794 -0.00382003,0.00524442 0.000935744,0.00844603 0.00208642,0.00140514 0.00225065,0.000696486 0.00464628,0.00146597 0.00199112,0.000639712 0.00255378,0.00133518 0.00499401,0.0013656 0.00261562,-0.00307386 0.00414039,-0.00566009 0.00860013,-0.00720209 0.00424278,-0.00146698 0.00848455,-0.00350879 0.0136296,-0.00277479 0.00525355,0.000749203 0.00872077,0.00204789 0.0111042,0.00495549 0.00237839,0.00290354 0.00537318,0.00651878 0.00626026,0.010134 0.00553437,-0.00211987 0.00732476,-0.00113344 0.0103013,0.00226586 0.00463208,0.005287 0.00867515,0.012117 0.0101715,0.019388 0.00108984,0.00529309 0.000532249,0.0081064 -0.00177518,0.012039 -0.00452462,0.00771406 -0.00822198,0.00972342 -0.0154717,0.0142186 -0.00157647,0.00097731 -0.00297755,0.00173767 -0.00497577,0.00225369 -0.00628865,0.00162513 -0.00381191,0.00150753 -0.00624302,0.00709259l-0.000248383 0.000514c-0.000345708,0.000550497 -0.000261562,0.000341653 -0.000532249,0.000608284 -0.00141832,0.00140412 -0.00175997,0.00213001 -0.00247977,0.00536811 0.000456213,6.48837e-005 0.00535696,0.0012338 0.0054847,0.00129362 0.00319349,0.00241387 0.00120542,0.011231 0.000971227,0.0154393 -0.000174375,0.00314889 -0.0018502,0.00362436 -0.0031793,0.00539954 -0.000557594,0.000745148 -0.00133417,0.00183398 -0.00190697,0.00263995 -0.000875929,0.00123076 -0.00129869,0.00161905 -0.00201545,0.00253756 0.0135941,0.000571787 0.033187,-0.00257913 0.0526318,-0.00140919l0 0.000793811c-0.00629574,0.00362436 -0.012118,0.00606459 -0.01997,0.00653804 -0.00856768,0.000517042 -0.0175338,0.000506904 -0.0261512,0.000568746 -0.035615,0.000255479 -0.0687179,0.000882012 -0.10428,0.00194854 -0.00550092,0.000165251 -0.0499746,0.00137472 -0.0512429,0.00171232l-0.0188791 0c-0.00171131,-0.000710679 -0.00648431,-0.00157647 -0.00881607,-0.00167886 -0.00319856,-0.000139905 -0.00648837,-0.000316308 -0.00973458,-0.000560635 -0.0056246,-0.000422758 -0.0134857,-0.000585981 -0.018433,-0.00240374l0 -0.000444048c0.00790161,-0.00273829 0.0337507,-0.00304649 0.0347472,-0.00349966 0.00136864,-0.000624505 6.79251e-005,-2.73728e-005 0.000996572,-0.00144873 0.000902288,0.000753259 0.000283866,0.00060727 0.00174375,0.00124496l-0.000822198 -0.00341653c0.000962103,0.000605243 0.000160182,-8.4146e-005 0.000817129,0.000650864 3.64971e-005,4.05523e-005 0.000592063,0.000795839 0.000689389,0.000940813 0.000432896,0.000640726 0.000603215,0.00109288 0.00124394,0.00148523l6.08284e-006 -0.0169772 -0.00137067 0c-0.00167988,0 -0.00306373,-0.00057787 -0.00415357,-0.0017326 -0.00108883,-0.00115574 -0.00163324,-0.00257203 -0.00163324,-0.00425089 0,-0.00170117 0.000544414,-0.00312962 0.00163324,-0.00428536 0.00108984,-0.00115473 0.00247369,-0.0017326 0.00415357,-0.0017326l0.00137574 0 1.62209e-005 -0.0395071 -0.0231057 -4.66351e-005 1.72347e-005 -0.0100549 -0.00229526 0 0 -0.00417283 -0.00248079 0 0 -0.00270687 0.00248079 0 0 -0.00113851c0,-0.000448103 -0.000145988,-0.000806991 -0.000436951,-0.00107768 -0.000289949,-0.000269673 -0.000681278,-0.000404509 -0.00117095,-0.000404509 -0.000504876,0 -0.000903302,0.000131795 -0.00119426,0.000396399 -0.000290963,0.000264604 -0.000435937,0.000626533 -0.000435937,0.00108579l0 0.0080182 -0.00394979 0 0 -0.00788032c0,-0.00129869 0.000512986,-0.00234494 0.00153795,-0.00313773 0.00102597,-0.000792797 0.00237332,-0.00119021 0.00404205,-0.00119021 0.00166873,0 0.00302013,0.00039944 0.0040532,0.00119832 0.00103408,0.00079888 0.00155011,0.0018431 0.00155011,0.00312962l0 0.00714126 0.00191204 1.01381e-006 0.00116588 -0.00886574c0.000122671,-0.000931689 0.000375109,-0.00158154 0.000757314,-0.00194854 0.000459255,-0.000436951 0.001248,-0.000655933 0.00236521,-0.000655933 0.00162311,0 0.00258014,0.000729941 0.0028711,0.00218982l0.00114864 0.00579391 0.00011456 0 0.00117095 -0.00579391c0.000290963,-0.00145988 0.001248,-0.00218982 0.0028711,-0.00218982 0.00113242,0 0.00192116,0.0002129 0.00236521,0.000638699 0.000382205,0.000355846 0.000634643,0.00101077 0.000757314,0.00196577l0.00116689 0.00887183 0.00269774 1.01381e-006 4.66351e-005 -0.0183945 0.0119873 1.62209e-005 0.000123684 0.0183134 0.00374298 1.31795e-005 0 -0.0164227c0,-0.00291267 0.00091344,-0.00525862 0.00274235,-0.00703684 0.00182789,-0.00177923 0.0042296,-0.00266834 0.0072031,-0.00266834 0.00297451,0 0.00538332,0.000895192 0.00722439,0.0026876 0.00184209,0.0017914 0.00276364,0.00413025 0.00276364,0.00701757l0 0.0176696 -4.86627e-005 0 1.01381e-005 0.00953688 -0.023643 6.38699e-005 0 0.00353616c7.9077e-005,-8.21184e-005 0.000165251,-0.000159168 0.000257507,-0.000230134 0.000564691,-0.000439992 0.00131389,-0.000659988 0.00224761,-0.000659988l0.00278594 0 0 0.00241286 -0.00269369 0c-0.000184513,0 -0.000333543,3.24418e-005 -0.000447089,9.73255e-005 -0.000112533,6.48837e-005 -0.000169306,0.000177416 -0.000169306,0.000336584 0,0.000219996 0.000344694,0.000554553 0.00103206,0.00100468 0.000994545,0.000648837 0.00163628,0.00111316 0.00192319,0.00139297 0.000698513,0.000658975 0.00104726,0.00134836 0.00104726,0.00206715 0,0.000889109 -0.000200734,0.00157343 -0.000600174,0.00205296 -0.000595105,0.000709665 -0.00165757,0.0010645 -0.0031864,0.0010645l-0.00219692 0 1.01381e-006 0.0416736c0.000825239,-0.000555566 0.00174983,-0.00089215 0.00277276,-0.00101077l0 -0.0066962c0,-0.00129869 0.00040755,-0.00234494 0.00122265,-0.00313773 0.000816115,-0.000793811 0.0018867,-0.00119021 0.00321275,-0.00119021 0.00132707,0 0.0024007,0.00039944 0.00322188,0.00119832 0.000821184,0.00079888 0.00123279,0.00184209 0.00123279,0.00312962l0 0.00788032 -0.00317626 0 0 -0.00417283 -0.00197185 0 0 -0.00270687 0.00197185 0 0 -0.00113851c0,-0.000448103 -0.000115574,-0.000806991 -0.000346722,-0.00107768 -0.000232162,-0.000269673 -0.000542387,-0.000405523 -0.000931689,-0.000405523 -0.000401468,0 -0.000717775,0.000132809 -0.000948924,0.000397412 -0.000231148,0.00026359 -0.000346722,0.000626533 -0.000346722,0.00108579l0 0.00716153c0.000850584,0.000304142 0.00162108,0.00079077 0.00231047,0.00145988 0.00125915,0.00122468 0.00188872,0.0026876 0.00188872,0.00438877 0,0.00167785 -0.000629574,0.00312962 -0.00188872,0.0043543 -0.00111924,0.00108782 -0.0024524,0.00169204 -0.00399947,0.0018137l-0.000483586 0.00293294c0.00143048,-0.000689389 0.00153896,-0.00129666 0.00272613,-0.00220807l0.000272714 0.00201342 0.024007 0.000566718c-0.000105436,-9.12426e-005 -0.000209858,-0.000186541 -0.000311239,-0.000285894 -0.00125408,-0.0012186 -0.00188061,-0.0026724 -0.00188061,-0.00436241 0,-0.00171333 0.000623491,-0.00317829 0.00187149,-0.00439688 0.00124698,-0.0012186 0.00277073,-0.00182789 0.00457227,-0.00182789 0.000997586,0 0.00195056,0.000166264 0.00285691,0.000499807 0.000906344,0.000333543 0.0017184,0.000804963 0.00243719,0.00141426l-0.00220909 0.00210365c-0.000523124,-0.000425799 -0.000988462,-0.000721831 -0.00139703,-0.000888095 -0.00040755,-0.000167278 -0.000915468,-0.00025041 -0.00152375,-0.00025041 -0.00103408,0 -0.00184716,0.000316308 -0.00243719,0.000948924 -0.000590036,0.000631602 -0.000885054,0.00141933 -0.000885054,0.00236217 0,0.000965144 0.000316308,0.00176402 0.000948924,0.00239664 0.000632616,0.000632616 0.00144873,0.00094791 0.00244632,0.00094791 0.00053529,0 0.00108579,-0.000197692 0.00165251,-0.000594091 0.000565704,-0.000397412 0.000951965,-0.000883026 0.00115878,-0.00145785l-0.00319451 0 0 -0.00270687 0.00664449 0 0 0.00127638c0,0.00172449 -0.00057787,0.00319552 -0.00173462,0.00441412 -0.00020783,0.000219996 -0.000425799,0.00042073 -0.000654919,0.000603215l0.00620044 0.000147002c-0.000257507,-0.000188568 -0.00050589,-0.000397412 -0.000744134,-0.000629574 -0.00125408,-0.0012186 -0.00188061,-0.0026724 -0.00188061,-0.00436241 0,-0.00171333 0.000624505,-0.00317829 0.00187149,-0.00439688 0.00124698,-0.0012186 0.00277175,-0.00182789 0.00457227,-0.00182789 0.00180154,0 0.00333137,0.000611326 0.00459153,0.001836 0.00125915,0.00122468 0.00188872,0.0026876 0.00188872,0.00438877 0,0.00167785 -0.000629574,0.00312962 -0.00188872,0.0043543 -0.000319349,0.000309211 -0.000655933,0.000579898 -0.00100975,0.00081206l0.00454186 0.00010645zm-0.00483789 -0.00527281c0,-0.00086275 -0.000319349,-0.00160688 -0.000958048,-0.00223342 -0.000638699,-0.000626533 -0.00141426,-0.000939799 -0.0023277,-0.000939799 -0.000912426,0 -0.00168495,0.000310225 -0.00231756,0.000931689 -0.000633629,0.00062045 -0.000949937,0.00136763 -0.000949937,0.00224153 0,0.000861736 0.000313266,0.0016008 0.000940813,0.00221517 0.000626533,0.000615381 0.0014021,0.000922565 0.00232669,0.000922565 0.00091344,0 0.001689,-0.000307184 0.0023277,-0.000922565 0.000638699,-0.000614367 0.000958048,-0.00135343 0.000958048,-0.00221517zm-0.0340852 -0.00311746l-0.00357773 0 0 0.00427624 -0.00313976 0 0 -0.00831119c0,-0.00108072 0.000340639,-0.00196577 0.00102192,-0.00265617 0.000325432,-0.000328474 0.000702568,-0.000579898 0.00113039,-0.000751231l0 -0.00701656c0,-0.00141325 0.000404509,-0.00250816 0.00121454,-0.00328474 0.000809018,-0.000775562 0.00190697,-0.00116385 0.00329487,-0.00116385 0.0012774,0 0.0023054,0.000316308 0.00308502,0.000948924 0.000778604,0.000631602 0.00116791,0.0015055 0.00116791,0.00262069 0,0.00151767 -0.000723858,0.00234494 -0.00217259,0.00248281 0.000816115,0.000195665 0.0013514,0.000374095 0.00160688,0.000534276 0.000510959,0.000311239 0.000766438,0.000804963 0.000766438,0.0014832l0 0.00413836 -0.00321275 0 0 -0.00362132c0,-0.000355846 -0.000139905,-0.000603215 -0.000419716,-0.000741093 -0.000279811,-0.000137878 -0.000772521,-0.000206817 -0.00147914,-0.000206817l0 -0.00270687c0.000597132,0 0.00102901,-8.71874e-005 0.00129666,-0.000259535 0.000267645,-0.000172347 0.000401468,-0.000482572 0.000401468,-0.000930675 0,-0.000322391 -0.000112533,-0.000563677 -0.000337598,-0.000723858 -0.000225065,-0.000161195 -0.000483586,-0.0002423 -0.000775562,-0.0002423 -0.000390316,0 -0.000679251,0.000126726 -0.000867819,0.000380178 -0.000188568,0.000252438 -0.000282852,0.000678237 -0.000282852,0.00127537l0 0.00675094 0.00127942 0 0 0.00287921 -0.00246457 0c-0.000413633,0 -0.000702568,7.19803e-005 -0.000866805,0.000215941 -0.000164237,0.000143961 -0.000246355,0.000382205 -0.000246355,0.000715748l0 0.00113749 0.00357773 0 0 0.00277682zm-0.0143018 0.00447292c-0.000129767,7.09665e-006 -0.000260548,1.01381e-005 -0.000392343,1.01381e-005 -0.000365984,0 -0.000719803,-2.53452e-005 -0.00106348,-7.60355e-005l-0.000424785 0.00243922c0.00124496,-0.000937772 0.000512986,-0.000557594 0.00150246,-0.00188771 0.00026359,-0.000355846 0.000279811,-0.00039133 0.00037815,-0.000485614zm-0.00236318 -0.000267645c-0.00059105,-0.000177416 -0.00114459,-0.000441006 -0.00166062,-0.000788742l0 0.0034439c0.00118109,-0.00141426 0.00114662,-0.0019019 0.00166062,-0.00265516zm0.00525659 -0.00591252c0,-0.000861736 -0.000320363,-0.00160688 -0.000959062,-0.00223342 -0.000638699,-0.000626533 -0.00141426,-0.000939799 -0.00232669,-0.000939799 -0.00091344,0 -0.00168596,0.000311239 -0.00231858,0.000931689 -0.000632616,0.00062045 -0.000948924,0.00136763 -0.000948924,0.00224153 0,0.000861736 0.000313266,0.0016008 0.000939799,0.00221618 0.000626533,0.000614367 0.0014021,0.000922565 0.0023277,0.000922565 0.000912426,0 0.00168799,-0.000308197 0.00232669,-0.000922565 0.000638699,-0.000615381 0.000959062,-0.00135445 0.000959062,-0.00221618zm0.0307751 -0.00499199l-0.00299377 0 -0.000566718 -0.00977716 -0.00160587 0.00845008c-8.51598e-005,0.000459255 -0.000273728,0.000830308 -0.000565704,0.00111215 -0.000291976,0.000280825 -0.000632616,0.000421744 -0.00102192,0.000421744 -0.000390316,0 -0.000724872,-0.000137878 -0.00100468,-0.000413633 -0.000279811,-0.000275756 -0.000468379,-0.00064985 -0.000565704,-0.00112026l-0.00156937 -0.00817433 -0.000566718 0.0095014 -0.00301202 0 0.00100468 -0.00960481c9.73255e-005,-0.000930675 0.000298059,-0.00158053 0.000602201,-0.00194854 0.000364971,-0.000435937 0.000991503,-0.000654919 0.0018796,-0.000654919 0.00129058,0 0.00205093,0.000729941 0.00228208,0.00218982l0.000912426 0.00579391 9.22565e-005 0 0.000930675 -0.00579391c0.000231148,-0.00145988 0.000991503,-0.00218982 0.00228107,-0.00218982 0.000901275,0 0.00152781,0.0002129 0.00188061,0.000637685 0.000304142,0.00035686 0.000504876,0.00101178 0.000602201,0.00196577l0.00100468 0.00960481zm-0.0498398 -0.0125986c-0.00120947,2.02761e-005 -0.00202964,0.000131795 -0.00246152,0.000332529 -0.000480545,0.000224051 -0.000927634,0.0007563 -0.00134127,0.00159472l0.00380178 0 1.01381e-006 -0.00192725zm-2.02761e-006 0.00453172l-0.00380076 0c0.000413633,0.000850584 0.000860722,0.00138182 0.00134127,0.00159472 0.000430868,0.000190596 0.00125104,0.000296032 0.0024595,0.000315294l0 -0.00191001zm-0.00893063 0.00468987l-0.00317626 0 0 -0.00491392 -0.00250106 0 0 0.00491392 -0.00313875 0 0 -0.0120014 0.00313875 0 0 0.0042073 0.00250106 0 0 -0.0042073 0.00317626 0 0 0.0120014zm-0.0100762 -0.00912224l-0.00231858 0 0 0.00912224 -0.00315801 0 0 -0.00912224 -0.00231756 0 0 -0.00287921 0.00779415 0 0 0.00287921zm0.0666639 -0.0145958c0,0.000517042 -0.00017032,0.000936758 -0.000511973,0.00125915 -0.000340639,0.000321377 -0.000729941,0.000482572 -0.00116791,0.000482572 -0.000425799,0 -0.000796852,-0.000120643 -0.00111316,-0.000361929 -0.000364971,-0.000287921 -0.000749203,-0.000793811 -0.00115067,-0.00151767l-0.00293903 -0.00534581 -3.64971e-005 0.00701859 -0.00313875 0 0 -0.0105527c0,-0.000483586 0.000176402,-0.000879985 0.000529207,-0.00119021 0.000352805,-0.000310225 0.000796852,-0.000465337 0.00133214,-0.000465337 0.000985421,0 0.00171029,0.000424785 0.00217259,0.00127537l0.00281129 0.00527687 3.64971e-005 -0.00634542 0.00317626 0 0 0.0104665zm-0.0120298 0.0015349l-0.00313976 0 0 -0.0120014 0.00313976 0 0 0.0120014zm0.0230763 -0.0162868l-0.00152375 0c-0.00141629,0 -0.00258318,-0.000502848 -0.00350169,-0.00150652 -0.000918509,-0.00100367 -0.00137776,-0.00223443 -0.00137776,-0.0036933 0,-0.00147813 0.000459255,-0.00271903 0.00137776,-0.0037227 0.000918509,-0.00100468 0.0020854,-0.00150652 0.00350169,-0.00150652l0.00152375 0 0 0.00241286c-0.00122164,0 -0.00203471,9.73255e-005 -0.00244023,0.000291976 -0.000404509,0.000194651 -0.000781645,0.000656947 -0.00113141,0.00138587l0.00357164 0 0 0.00226282 -0.00357164 0c0.000349763,0.000739065 0.0007269,0.00120035 0.00113141,0.00138587 0.000405523,0.000184513 0.0012186,0.000276769 0.00244023,0.000276769l0 0.00241286zm-0.00771102 0l-0.00264806 0 0 -0.010429 0.00264806 0 0 0.010429zm-0.00412518 -0.00510959c0,0.00147813 -0.000510959,0.00269977 -0.00153186,0.00366289 -0.0010209,0.000964131 -0.00230134,0.0014467 -0.0038403,0.0014467l0 -0.00250309c0.000739065,0 0.00136458,-0.000254466 0.00187757,-0.000763397 0.000512986,-0.000509945 0.000770493,-0.00111924 0.000770493,-0.00182789 0,-0.000939799 -0.000323404,-0.00165859 -0.000970213,-0.0021584 -0.000584967,-0.000449117 -0.00135952,-0.000674182 -0.00232365,-0.000674182l0 0.00792696 -0.00264806 0 0 -0.010429 0.00269369 0c0.00185729,0 0.00333543,0.000520083 0.00443338,0.00155822 0.00102597,0.0009692 0.00153896,0.00222328 0.00153896,0.00376122zm-0.00971227 0.00510959l-0.00203167 0c-0.00130376,0 -0.00226282,-0.000265617 -0.0028782,-0.000794825 -0.000616395,-0.000529207 -0.000923578,-0.00138283 -0.000923578,-0.00256189l0 -0.00707232 0.00264705 0 0 0.00683306c0,0.000418702 9.52979e-005,0.000706624 0.00028488,0.000860722 0.000189582,0.000155112 0.000551511,0.000232162 0.00108477,0.000232162l0.00181674 0 0 0.00250309zm-0.00712605 -0.00519982c0,0.00145887 -0.000531235,0.00272004 -0.0015937,0.00378353 -0.00106146,0.00106348 -0.00235203,0.00159573 -0.00387072,0.00159573 -0.00150855,0 -0.00279101,-0.000529207 -0.00384841,-0.00158864 -0.00105639,-0.00105841 -0.00158458,-0.00232162 -0.00158458,-0.00379062 0,-0.00148827 0.000525152,-0.00276161 0.00157748,-0.00382104 0.00105132,-0.00105841 0.00233683,-0.00158762 0.00385551,-0.00158762 0.00151868,0 0.00280926,0.000532249 0.00387072,0.00159573 0.00106247,0.00106348 0.0015937,0.0023348 0.0015937,0.00381293zm-0.00269369 0c0,-0.000749203 -0.000269673,-0.00139601 -0.000808004,-0.00194043 -0.000539345,-0.000544414 -0.00119325,-0.000816115 -0.00196273,-0.000816115 -0.00076948,0 -0.00142136,0.000269673 -0.00195462,0.000809018 -0.000533263,0.000539345 -0.000800908,0.00118818 -0.000800908,0.00194752 0,0.000749203 0.000264604,0.00139094 0.000792797,0.00192522 0.000528194,0.000534276 0.00118311,0.000801921 0.00196273,0.000801921 0.00076948,0 0.00142339,-0.000267645 0.00196273,-0.000801921 0.000538332,-0.000534276 0.000808004,-0.00117602 0.000808004,-0.00192522zm-0.0151878 0.00278696l0.00210466 0c0.000667085,0 0.00100063,-0.000189582 0.00100063,-0.000568746 0,-0.000279811 -0.000328474,-0.000644781 -0.000985421,-0.0010939 -0.000985421,-0.000670127 -0.0016008,-0.00112431 -0.00184716,-0.00136357 -9.83393e-005,-9.42841e-005 -0.000188568,-0.000189582 -0.000272714,-0.00028488l0 0.00331109zm0.0165595 -0.0214653l0 -0.00815405 -0.00442121 0 0 -0.00607068 0.00442121 0 0 -0.00255175c0,-0.0010057 -0.000259535,-0.00181167 -0.00077759,-0.00241692 -0.000519069,-0.000606257 -0.00121454,-0.000908371 -0.00208844,-0.000908371 -0.000900261,0 -0.00160993,0.000296032 -0.00212798,0.000889109 -0.000518055,0.000593077 -0.00077759,0.00140514 -0.00077759,0.00243618l0 0.0167562 0.0057716 2.02761e-005zm-0.0351335 4.05523e-006l-0.000657961 -0.00904215 -0.00202052 0.00844907c-5.06904e-005,0.000216955 -0.000130781,0.000414647 -0.000240272,0.000592063l0.00291875 1.01381e-006zm-0.00640828 -2.02761e-006c-0.000105436,-0.000176402 -0.000186541,-0.000373081 -0.000243314,-0.00059105l-0.0019749 -0.00817331 -0.000656947 0.00876335 0.00287516 1.01381e-006zm0.0982176 0.0309069c6.18422e-005,5.57594e-005 0.000151057,0.000147002 0.000218982,0.000204789 0.00053529,0.000452158 0.000384233,0.000512986 0.00117602,0.000683306 0.00230236,0.000495752 0.00527991,-0.00154707 0.0066526,-0.00147408 0.00198706,0.000105436 0.00277276,0.000815101 0.00533871,0.000340639 0.00171029,-0.000316308 0.00245848,-0.00108173 0.00426103,-0.00124293 0.000670127,0.00604432 -0.0004846,0.0128176 0.00223646,0.0178278l0.00542083 0.00938684 0.00215333 0.00283258c-0.00129159,0.00279202 -0.00101583,0.00471116 -0.000196679,0.00752955 -0.00177518,0.00145887 -0.00753157,0.00387173 -0.0100884,0.0046331 -0.00319248,0.000950951 -0.00818041,-0.000137878 -0.0075336,0.00758632 0.000670127,0.000525152 0.00257507,0.00185527 0.00364464,0.0020043l-0.0154423 -0.000233176c0.00162108,-0.000624505 0.00408057,-0.000545428 0.00538534,-0.00152882 0.00195868,-0.00218577 -0.00392648,-0.0140169 -0.00311543,-0.0165048 0.000916482,-0.00280723 0.00192826,0.00230033 0.000183499,-0.00814695 -0.000217969,-0.0013068 -0.000740079,-0.00735517 -0.00019161,-0.00807599 0.00225572,-0.000312253 0.00107565,-0.00037815 0.00295525,0.00576349 0.00175997,-0.000115574 0.0017184,-0.000197692 0.00298059,-0.000760355 0.00247774,-0.00110708 0.00275249,1.82485e-005 0.0020266,-0.00490581 -0.000404509,-0.00274336 -0.000393357,-0.00173462 -0.00216245,-0.00279709 -0.000409578,-0.002423 -0.00042884,-0.00441919 -0.00115878,-0.0064468 -0.00223849,-0.000260548 -0.00268659,-4.86627e-005 -0.00419919,0.000843488 -0.000328474,0.00199619 0.000761369,0.00366897 -0.0016302,0.00376325 -0.00205499,8.00908e-005 -0.00176808,-0.00150246 -0.00167785,-0.00274438 0.000208844,-0.00291774 -0.00125611,-0.00559723 -0.001248,-0.0084217l0.00355339 -0.00054847c8.61736e-005,6.18422e-005 0.000177416,0.00017032 0.000231148,0.000218982 5.17042e-005,4.76489e-005 0.000162209,0.000156126 0.000226079,0.0002129zm0.0307711 -0.00568543c0.00325939,-0.00338713 0.00987955,-0.00495954 0.0127476,-0.00906952 0.000736024,-0.00105436 0.00212291,-0.00303737 0.00325229,-0.00407753l0.00531336 0.0106065 -0.0213133 0.0025406z"/>
 </g>
</svg>
