<?xml version="1.0" encoding="UTF-8"?>
<!DOCTYPE svg PUBLIC "-//W3C//DTD SVG 1.1//EN" "http://www.w3.org/Graphics/SVG/1.1/DTD/svg11.dtd">
<!-- Creator: CorelDRAW -->
<svg xmlns="http://www.w3.org/2000/svg" xml:space="preserve" width="5548in" height="7180in" style="shape-rendering:geometricPrecision; text-rendering:geometricPrecision; image-rendering:optimizeQuality; fill-rule:evenodd; clip-rule:evenodd"
viewBox="0 0 247.893 123.947"
 xmlns:xlink="http://www.w3.org/1999/xlink">
 <defs>
  <style type="text/css">
   <![CDATA[
    .fil0 {fill:#141516}
   ]]>
  </style>
 </defs>
 <g id="Layer_x0020_1">
  <metadata id="CorelCorpID_0Corel-Layer"/>
  <path class="fil0" d="M167.129 115.819c-0.897727,0.615117 -3.10148,0.615878 -4.49702,0.584646 0.0761754,-0.0818886 0.178631,-0.189296 0.234239,-0.239953 0.0514184,-0.0468479 0.165682,-0.166062 0.225479,-0.217862l0.784607 -0.488665 -0.02171 -3.40809c-0.0388495,-1.14796 -0.430391,-2.99827 -0.304321,-3.99845 0.132545,-1.06569 0.757184,-1.98627 0.866496,-3.52807 0.0997898,-1.39477 0.0392303,-5.09576 0.370974,-6.22582 0.986853,-3.36124 4.87294,0.429629 7.41644,1.25309 1.97523,0.639493 2.26812,0.0392303 4.18965,0.189296 0.761373,0.0597977 1.57036,0.337838 2.33173,0.392303 0.654728,0.0479905 0.391161,0.0986472 1.06569,-0.0194247 1.28051,-0.224337 0.406015,-0.10436 0.87716,-0.322984 3.65794,-1.69719 2.21632,0.687102 5.42826,0.683294 1.02799,-0.00114263 0.949908,-0.312319 1.75203,-0.166824 1.56426,0.283753 3.66061,3.18337 4.28334,5.1586 -0.895823,1.48161 -2.30812,2.21937 -3.08396,3.98512 -1.74518,3.97217 0.401064,3.50255 -0.394208,4.56329 -0.887063,1.18186 -3.74174,0.840596 -5.10909,0.92934 -3.90018,0.254807 -13.7954,1.21386 -16.4158,0.87716l0 0zm-52.94 -1.90096c-0.291752,0.652062 -0.719096,1.23747 -1.28508,1.7547 -0.494759,0.454006 -1.04322,0.810887 -1.64463,1.07179l1.95695 0.0468479 1.29803 -2.26736c-0.12607,-0.352311 -0.232335,-0.5298 -0.325269,-0.605976zm-5.66898 2.76174l0 -2.17709c0.842881,0 1.55741,-0.28223 2.14396,-0.846309 0.585789,-0.564079 0.878303,-1.23937 0.878303,-2.02512 0,-1.04018 -0.368689,-1.83659 -1.10645,-2.39 -0.66882,-0.498949 -1.55284,-0.747662 -2.65395,-0.747662l0 8.16867 0.73814 0.0175203zm-3.7604 -0.0887444l0 -10.8691 3.0752 0c2.11958,0 3.80725,0.574744 5.06033,1.72652 0.822695,0.753375 1.3563,1.66177 1.60159,2.72556 -0.00609403,-0.138258 -0.0167586,-0.286801 -0.0331363,-0.448673 -0.0636065,-0.615117 0.147019,-1.56274 0.415537,-2.5972l2.21137 0.0194247c-0.869543,-5.39779 1.70138,-6.2342 -1.68919,-7.37988 -1.88344,-0.637588 -0.334791,0.174442 -1.88153,-1.13616 -1.43096,-1.21119 -2.78535,-0.603309 -3.94893,0.34736 -2.03579,1.66405 -2.80288,2.90647 -6.22848,5.24887 -1.52427,-1.10797 -2.63491,-1.77336 -2.85772,-4.56253l1.84764 -0.900013c2.13748,-1.06379 1.82097,-1.84268 2.67719,-2.37058 0.391161,-0.241095 1.24813,-0.279183 1.96837,-0.63835 0.230431,-2.03388 -0.628447,-3.72917 -1.13425,-5.49263 -3.9436,0.301655 -7.03861,0.61207 -10.7385,0.59036l0 3.75735c0,0.797557 -0.198818,1.48847 -0.597215,2.07502 -0.398017,0.586551 -1.00133,1.00704 -1.80917,1.26185l0 4.11652 -3.02264 0 0 -4.11652c-0.891253,-0.232335 -1.55284,-0.691673 -1.98627,-1.37801 -0.362976,-0.564079 -0.544273,-1.2169 -0.544273,-1.95885l0 -4.09976 3.02226 0 0 3.83429c0,0.343551 0.0761754,0.617021 0.228526,0.821933 0.152351,0.204912 0.392303,0.307368 0.720239,0.307368 0.316128,0 0.553415,-0.102456 0.711479,-0.307368 0.158064,-0.204912 0.237286,-0.478382 0.237286,-0.821933l0 -3.58177 -0.104741 -0.00571316 -0.107407 -7.00624c2.4597,-0.535132 10.8108,-0.0636065 12.6261,-0.648253 0.963238,-0.310415 0.389637,-0.183583 0.690149,-0.361833 2.55873,-1.52351 4.26697,-0.876398 5.0272,-1.92267 0.627305,-1.54522 -0.424678,-3.25688 -0.906869,-5.59623 -0.556081,-2.70156 -1.45038,-2.69547 -2.11958,-5.13461 -0.523325,-1.90324 -0.922484,-4.10966 -1.33421,-5.96111 -1.67586,-7.53261 -0.071224,-2.9339 0.276136,-5.77867 -0.00685579,-0.00380877 -2.30812,-0.727856 -3.44922,-2.3443 -0.293656,0.358405 -0.739663,0.567126 -1.33878,0.625781 0.661584,0.163777 1.09693,0.313081 1.30374,0.447912 0.414775,0.259377 0.622734,0.672248 0.622734,1.24052l0 3.46141 -2.60787 0 0 -3.02912c0,-0.298608 -0.113882,-0.504662 -0.341647,-0.62083 -0.226241,-0.115025 -0.626543,-0.172537 -1.19938,-0.172537l0 -2.26431c0.484095,0 0.834502,-0.0723667 1.05236,-0.216719 0.216338,-0.144352 0.32565,-0.404111 0.32565,-0.778894 0,-0.26928 -0.0914105,-0.471145 -0.274232,-0.605976 -0.18244,-0.134831 -0.393065,-0.202246 -0.629209,-0.202246 -0.316509,0 -0.55151,0.106646 -0.704623,0.318413 -0.152351,0.210625 -0.229669,0.567126 -0.229669,1.06684l0 6.50538 -2.66728 0 0 -6.49091c0,-1.183 0.329078,-2.09825 0.98571,-2.74727 0.657013,-0.650157 1.54788,-0.973903 2.67414,-0.973903 1.03751,0 1.87201,0.264329 2.50427,0.793367 0.319175,0.266233 0.557604,0.584646 0.715668,0.953336l1.5635 0.0487523c0.0331363,-0.128736 0.473049,-1.32126 0.484095,-1.33383 0.690911,-0.900013 0.542369,-0.298989 1.47361,-0.928198 -1.43972,-8.89501 -3.16318,-13.5101 -4.74116,-20.9441 -0.308511,-1.45152 -0.925151,-2.34735 0.595311,-2.90838 3.16585,-1.16815 3.19823,5.61261 4.04415,10.3206 0.556462,3.09272 1.33916,10.2163 2.87334,12.0776 1.20738,-0.449054 1.01808,-0.739663 2.21937,-1.00628 1.50789,1.47742 0.818886,1.57531 1.48047,2.60787 1.19862,-0.0811268 1.36735,-0.181678 2.3462,-0.393446 0.710717,-0.154255 0.879445,-0.295561 1.66024,-0.16492 0.109312,0.018663 0.215576,0.0636065 0.313081,0.0887444 0.0956002,0.0243761 0.221671,0.100552 0.298608,0.12607 2.67528,0.887063 -4.04415,6.52138 -4.3001,6.69887 0.492855,0.840215 -0.0182821,-0.0049514 0.46467,0.682151 1.48161,2.10511 2.51112,2.79526 5.87732,3.20813 0.85964,-1.50294 -0.52523,-0.484095 1.15063,-1.28165 1.15368,-0.548463 3.21765,-0.358025 4.82114,-0.777751 1.27556,-0.333648 0.320318,-0.531705 2.05064,-0.116168 0.649776,-2.55188 1.28051,-1.80269 3.68803,-2.89848 1.58902,-0.72519 3.07139,-1.77527 4.65813,-2.3443 5.69602,-2.0396 5.87427,-3.84229 9.29112,-4.4037 0.0460861,-3.0234 2.13253,-5.01615 4.12757,-8.89843 1.63092,-3.17499 4.45207,-6.42578 5.14717,-8.74189 -4.18089,0.166062 -4.23078,2.52293 -7.7737,2.49056 -1.90286,-2.1352 -1.41001,-2.02398 -4.74611,-3.9417 -1.07141,-0.615878 -0.756041,-0.544654 -1.20319,-1.69719 -2.08568,0.100552 -3.12814,1.69605 -3.40009,-1.00323 -0.379735,-3.75545 1.87087,-5.11137 -2.64519,-3.97407 -4.73126,1.19138 -3.2226,-1.65034 -3.46636,-4.57548 -0.32984,-3.93979 -2.55721,-7.36274 1.33231,-12.0041 0.835264,-0.99866 1.62977,-1.67891 2.61358,-2.51303 5.50139,-4.66536 7.77637,-3.37495 10.7255,-4.81353l1.6153 0c1.04513,0.549606 2.68595,0.62083 4.24335,1.40125 1.63092,0.816982 2.47532,1.33612 3.55168,2.33478 1.13311,1.05084 2.11273,1.51932 2.85467,3.00017l2.2407 4.00035c1.35745,4.16642 -3.67737,5.04853 0.900774,8.13058 2.00875,1.35288 2.16681,0.670344 4.47302,1.41115 1.91657,0.615878 2.45818,1.28546 4.80743,1.31479 2.51798,-2.95903 3.98588,-5.44883 8.27913,-6.93311 4.08415,-1.41229 8.16791,-3.378 13.1208,-2.67147 5.05729,0.721381 8.39491,1.97142 10.6893,4.77049 2.28983,2.79526 5.17269,6.27571 6.02662,9.75579 5.32771,-2.04074 7.05118,-1.09121 9.9169,2.18128 4.45893,5.08966 8.35111,11.6647 9.79159,18.6641 1.04932,5.09537 0.51228,7.80379 -1.709,11.5897 -4.35571,7.42596 -7.91501,9.36044 -14.8938,13.6876 -1.5178,0.940767 -2.86648,1.67281 -4.79029,2.16948 -6.05366,1.56464 -3.66937,1.45152 -6.00986,6.82798l-0.239191 0.494759c-0.332506,0.5298 -0.25176,0.329078 -0.51228,0.585408 -1.36544,1.35173 -1.69414,2.05064 -2.38734,5.16774 0.439532,0.0624639 5.15708,1.18796 5.2801,1.24547 3.07444,2.32373 1.16053,10.8116 0.935053,14.863 -0.167967,3.0314 -1.78136,3.48883 -3.06073,5.19783 -0.536656,0.717192 -1.28432,1.76537 -1.83583,2.54159 -0.843262,1.18453 -1.25004,1.55855 -1.94019,2.44257 13.0866,0.550368 31.948,-2.48256 50.6669,-1.3563l0 0.76404c-6.06052,3.48883 -11.6655,5.83809 -19.2244,6.294 -8.2479,0.497806 -16.8793,0.487904 -25.1748,0.54732 -34.2854,0.246047 -66.1527,0.849356 -100.387,1.87582 -5.29534,0.159207 -48.1086,1.32355 -49.3297,1.64844l-18.1743 0c-1.64729,-0.684055 -6.2422,-1.51741 -8.48709,-1.61606 -3.07901,-0.134831 -6.246,-0.304702 -9.3711,-0.539703 -5.41455,-0.407158 -12.9822,-0.564079 -17.7447,-2.31421l0 -0.427344c7.6065,-2.63605 32.4907,-2.93275 33.4498,-3.36886 1.31783,-0.601405 0.0655109,-0.0266614 0.95943,-1.39477 0.868781,0.72519 0.27347,0.584646 1.67853,1.19862l-0.791463 -3.28926c0.926293,0.582742 0.154255,-0.080746 0.786892,0.626543 0.0350407,0.0392303 0.569792,0.766325 0.663488,0.905726 0.41668,0.617021 0.580838,1.05236 1.19748,1.42981l0.00609403 -16.3434 -1.31974 0c-1.6172,0 -2.94913,-0.556081 -3.99845,-1.66786 -1.04817,-1.11254 -1.57226,-2.47608 -1.57226,-4.09214 0,-1.63777 0.524087,-3.01274 1.57226,-4.12528 1.04932,-1.11178 2.38124,-1.66786 3.99845,-1.66786l1.32431 0 0.015616 -38.0321 -22.2428 -0.0449435 0.0163777 -9.67961 -2.20947 0 0 -4.01711 -2.3881 0 0 -2.60558 2.3881 0 0 -1.09616c0,-0.431534 -0.140544,-0.776989 -0.420488,-1.03751 -0.279183,-0.259377 -0.65587,-0.389256 -1.1274,-0.389256 -0.485999,0 -0.869543,0.126832 -1.14949,0.381639 -0.280326,0.254426 -0.419727,0.602929 -0.419727,1.04513l0 7.71886 -3.8023 0 0 -7.58631c0,-1.25004 0.493617,-2.25708 1.48047,-3.02036 0.987614,-0.763278 2.2845,-1.14568 3.89104,-1.14568 1.60654,0 2.90724,0.384305 3.90171,1.1533 0.995613,0.769372 1.49228,1.77451 1.49228,3.01274l0 6.87483 1.84078 0.00114263 1.12245 -8.53508c0.118072,-0.896585 0.361072,-1.52237 0.728999,-1.87582 0.442198,-0.420488 1.20129,-0.631113 2.27688,-0.631113 1.56236,0 2.4837,0.702718 2.76403,2.10777l1.10569 5.57757 0.110074 0 1.1274 -5.57757c0.279945,-1.40506 1.20129,-2.10777 2.76403,-2.10777 1.09007,0 1.84916,0.204912 2.27688,0.614736 0.367927,0.342409 0.610927,0.973141 0.728999,1.8922l1.12321 8.54079 2.5972 0.000761754 0.0449435 -17.7077 11.5394 0.015616 0.119215 17.6297 3.6031 0.0129498 0 -15.8098c0,-2.80364 0.879445,-5.06224 2.64024,-6.7739 1.75965,-1.7128 4.07158,-2.56864 6.93425,-2.56864 2.86343,0 5.18221,0.861544 6.95444,2.5873 1.77336,1.72423 2.66043,3.97598 2.66043,6.75524l0 17.01 -0.0468479 0 0.00990281 9.18104 -22.7605 0.0613212 0 3.40428c0.0761754,-0.0792225 0.159207,-0.153113 0.247951,-0.221671 0.543512,-0.423535 1.26489,-0.635303 2.16376,-0.635303l2.68176 0 0 2.32297 -2.59301 0c-0.177489,0 -0.321079,0.0312319 -0.430391,0.0936958 -0.108169,0.0624639 -0.163015,0.170633 -0.163015,0.323746 0,0.211768 0.331744,0.53399 0.993709,0.967428 0.957144,0.624639 1.57493,1.07141 1.85144,1.34069 0.672248,0.634541 1.00818,1.29803 1.00818,1.99008 0,0.855831 -0.193486,1.51475 -0.577791,1.97637 -0.57322,0.683294 -1.59588,1.02456 -3.06758,1.02456l-2.11501 0 0.00114263 40.1178c0.79451,-0.534752 1.68462,-0.858878 2.66919,-0.97276l0 -6.44635c0,-1.25004 0.392303,-2.25746 1.17691,-3.02074 0.78575,-0.76404 1.8164,-1.14568 3.09272,-1.14568 1.27784,0 2.31116,0.384686 3.10186,1.15368 0.79032,0.768991 1.18681,1.77336 1.18681,3.01274l0 7.58631 -3.05768 0 0 -4.01711 -1.89829 0 0 -2.60596 1.89829 0 0 -1.09578c0,-0.431534 -0.111216,-0.776989 -0.334029,-1.03751 -0.223194,-0.259758 -0.522183,-0.390399 -0.896966,-0.390399 -0.386209,0 -0.690911,0.127594 -0.913343,0.382401 -0.222432,0.253664 -0.333648,0.603309 -0.333648,1.04551l0 6.89388c0.818886,0.292895 1.56045,0.761373 2.22394,1.40544 1.21233,1.1792 1.81831,2.5873 1.81831,4.22507 0,1.6153 -0.605976,3.01274 -1.81831,4.19155 -1.07712,1.04741 -2.36068,1.62901 -3.84991,1.74594l-0.465432 2.82344c1.37687,-0.663488 1.48123,-1.24813 2.62424,-2.12568l0.262424 1.93828 23.1109 0.545797c-0.101694,-0.0879826 -0.202246,-0.179774 -0.29975,-0.275374 -1.20738,-1.1731 -1.81031,-2.57244 -1.81031,-4.19955 0,-1.6492 0.600262,-3.05959 1.80155,-4.23269 1.20052,-1.1731 2.66728,-1.75965 4.40142,-1.75965 0.960572,0 1.87772,0.159968 2.75031,0.481048 0.87259,0.321079 1.65415,0.775085 2.3462,1.36164l-2.12644 2.02512c-0.50352,-0.409824 -0.951812,-0.695101 -1.34488,-0.855069 -0.392303,-0.161111 -0.88135,-0.241095 -1.46676,-0.241095 -0.995613,0 -1.77832,0.304702 -2.3462,0.913724 -0.568269,0.60788 -0.852022,1.36621 -0.852022,2.27384 0,0.928959 0.304321,1.69833 0.913343,2.30735 0.609023,0.609023 1.39477,0.912201 2.35496,0.912201 0.515327,0 1.04513,-0.190058 1.59092,-0.571697 0.544654,-0.382782 0.91639,-0.850118 1.11559,-1.40353l-3.07558 0 0 -2.60558 6.39645 0 0 1.22871c0,1.65986 -0.556081,3.07596 -1.66977,4.24907 -0.199961,0.211768 -0.409824,0.405253 -0.630352,0.580838l5.96873 0.141305c-0.24757,-0.181298 -0.486761,-0.382401 -0.716049,-0.605976 -1.20738,-1.1731 -1.81069,-2.57244 -1.81069,-4.19955 0,-1.6492 0.601405,-3.05959 1.80193,-4.23269 1.20014,-1.1731 2.66804,-1.75965 4.40142,-1.75965 1.73413,0 3.20699,0.588455 4.42008,1.76765 1.21233,1.17881 1.81831,2.5873 1.81831,4.22469 0,1.6153 -0.605976,3.01274 -1.81831,4.19193 -0.307368,0.297465 -0.631494,0.557985 -0.971999,0.78156l4.37209 0.102456 0.000380877 0zm-4.65737 -5.07595c0,-0.830312 -0.307368,-1.54674 -0.922484,-2.15005 -0.614736,-0.602929 -1.36125,-0.904583 -2.2407,-0.904583 -0.878303,0 -1.62216,0.298608 -2.2308,0.896966 -0.610165,0.597215 -0.914486,1.31631 -0.914486,2.15767 0,0.82955 0.301274,1.54103 0.905345,2.13253 0.603309,0.592264 1.34983,0.888206 2.23994,0.888206 0.879445,0 1.62596,-0.295942 2.2407,-0.888206 0.615117,-0.591502 0.922484,-1.30298 0.922484,-2.13253zm-32.8126 -3.00093l-3.44427 0 0 4.11652 -3.02264 0 0 -8.00071c0,-1.04056 0.327935,-1.89258 0.983806,-2.55721 0.313462,-0.316128 0.676438,-0.558366 1.08817,-0.723286l0 -6.75448c0,-1.36049 0.389256,-2.41438 1.16929,-3.16204 0.778894,-0.746519 1.83583,-1.12054 3.17195,-1.12054 1.22947,0 2.21937,0.304702 2.9697,0.913724 0.749566,0.60788 1.12435,1.44924 1.12435,2.52255 0,1.46104 -0.697005,2.25746 -2.0914,2.39039 0.785369,0.188153 1.3007,0.359929 1.54674,0.514184 0.492093,0.29975 0.737759,0.775085 0.737759,1.42791l0 3.98398 -3.09272 0 0 -3.48617c0,-0.342789 -0.134831,-0.580838 -0.404111,-0.713383 -0.26928,-0.132926 -0.743472,-0.199199 -1.42372,-0.199199l0 -2.60596c0.574744,0 0.990281,-0.083793 1.24813,-0.249855 0.257473,-0.165682 0.38659,-0.464289 0.38659,-0.895823 0,-0.310415 -0.10855,-0.54275 -0.325269,-0.697005 -0.216338,-0.155017 -0.465432,-0.233097 -0.746519,-0.233097 -0.375545,0 -0.653966,0.121881 -0.835264,0.366023 -0.181678,0.243 -0.272327,0.652823 -0.272327,1.22757l0 6.49891 1.23176 0 0 2.77202 -2.37286 0c-0.398017,0 -0.676057,0.0693196 -0.834121,0.207578 -0.158445,0.138639 -0.237286,0.367927 -0.237286,0.689007l0 1.09502 3.44427 0 0 2.67338zm-13.7679 4.30582c-0.124928,0.00685579 -0.250998,0.00990281 -0.37783,0.00990281 -0.352311,0 -0.692816,-0.0243761 -1.0238,-0.0731284l-0.408681 2.34811c1.19824,-0.90306 0.493617,-0.537037 1.44619,-1.81716 0.253664,-0.342789 0.26928,-0.377068 0.364119,-0.467717zm-2.27498 -0.257473c-0.56903,-0.171014 -1.10188,-0.424678 -1.59854,-0.759469l0 3.31554c1.13692,-1.36164 1.10378,-1.83088 1.59854,-2.55607zm5.06033 -5.69183c0,-0.82955 -0.308511,-1.54712 -0.923246,-2.15005 -0.615117,-0.603309 -1.36164,-0.904964 -2.23994,-0.904964 -0.879445,0 -1.62292,0.29975 -2.23194,0.896966 -0.609023,0.597596 -0.913343,1.31669 -0.913343,2.15805 0,0.82955 0.301274,1.54103 0.904583,2.13329 0.602929,0.591502 1.34983,0.888206 2.2407,0.888206 0.878303,0 1.62482,-0.296703 2.23994,-0.888206 0.614736,-0.592264 0.923246,-1.30374 0.923246,-2.13329zm29.6261 -4.80553l-2.8821 0 -0.545416 -9.41224 -1.54598 8.13439c-0.0818886,0.442198 -0.263567,0.799461 -0.544654,1.07065 -0.281087,0.270423 -0.609023,0.406015 -0.983806,0.406015 -0.375545,0 -0.697767,-0.132545 -0.967047,-0.398017 -0.26928,-0.265471 -0.450959,-0.625781 -0.544654,-1.07864l-1.51094 -7.86892 -0.545416 9.14677 -2.89962 0 0.967428 -9.24655c0.0936958,-0.895823 0.286801,-1.52122 0.579695,-1.87582 0.351169,-0.419346 0.954478,-0.630352 1.80917,-0.630352 1.24242,0 1.97447,0.702718 2.1969,2.10816l0.878303 5.57757 0.0891253 0 0.895823 -5.57757c0.222432,-1.40544 0.954478,-2.10816 2.19576,-2.10816 0.867638,0 1.47095,0.204912 1.81069,0.613974 0.292514,0.343551 0.485999,0.973903 0.579695,1.8922l0.967047 9.24655zm-47.9791 -12.1283c-1.16434,0.0194247 -1.9539,0.126832 -2.36982,0.319937 -0.462385,0.215576 -0.892776,0.728237 -1.29117,1.53532l3.65985 0 0.00114263 -1.85525zm-0.00190439 4.36219l-3.65909 0c0.398398,0.818886 0.828789,1.3304 1.29117,1.53532 0.414775,0.183583 1.20433,0.284896 2.36791,0.303559l0 -1.83887zm-8.59716 4.51492l-3.05768 0 0 -4.73049 -2.40791 0 0 4.73049 -3.0215 0 0 -11.5531 3.0215 0 0 4.05025 2.40791 0 0 -4.05025 3.05768 0 0 11.5531zm-9.70018 -8.7815l-2.23194 0 0 8.7815 -3.04016 0 0 -8.7815 -2.23118 0 0 -2.77202 7.50328 0 0 2.77202zm64.1751 -14.0509c0,0.497806 -0.164158,0.901917 -0.492855,1.21195 -0.327935,0.309653 -0.702718,0.46467 -1.12435,0.46467 -0.409824,0 -0.767087,-0.116168 -1.07141,-0.348503 -0.35155,-0.276898 -0.721381,-0.76404 -1.10797,-1.46104l-2.82916 -5.14603 -0.0350407 6.75638 -3.02188 0 0 -10.1588c0,-0.465432 0.169871,-0.847071 0.509614,-1.14568 0.339742,-0.298608 0.767087,-0.447912 1.28241,-0.447912 0.948765,0 1.64653,0.409062 2.0914,1.22757l2.70651 5.08014 0.0350407 -6.10851 3.05768 0 0 10.0757 0 0zm-11.5806 1.47742l-3.02264 0 0 -11.5531 3.02264 0 0 11.5531zm22.2147 -15.6788l-1.46676 0c-1.36354,0 -2.48675,-0.484095 -3.37114,-1.45 -0.884016,-0.966285 -1.32621,-2.15119 -1.32621,-3.55549 0,-1.42296 0.442198,-2.61739 1.32621,-3.58367 0.884397,-0.967428 2.0076,-1.45038 3.37114,-1.45038l1.46676 0 0 2.32297c-1.17615,0 -1.95885,0.0936958 -2.34925,0.281087 -0.389256,0.187392 -0.752232,0.632256 -1.08893,1.33383l3.43818 0 0 2.17862 -3.43818 0c0.336695,0.711479 0.699671,1.1552 1.08893,1.33383 0.390399,0.17787 1.1731,0.266614 2.34925,0.266614l0 2.32259zm-7.4233 0l-2.54921 0 0 -10.0395 2.54921 0 0 10.0395zm-3.97103 -4.91865c0,1.42296 -0.492093,2.59911 -1.47476,3.52616 -0.982663,0.928198 -2.21518,1.39249 -3.69679,1.39249l0 -2.40943c0.711479,0 1.31365,-0.244904 1.80726,-0.735093 0.493998,-0.49057 0.741949,-1.07712 0.741949,-1.75965 0,-0.904583 -0.311558,-1.59664 -0.933911,-2.07768 -0.563317,-0.432296 -1.30907,-0.649015 -2.23689,-0.649015l0 7.63087 -2.54921 0 0 -10.0395 2.59301 0c1.78784,0 3.21079,0.500853 4.26773,1.50028 0.987614,0.932768 1.48161,2.14015 1.48161,3.62062l0 0zm-9.34977 4.91865l-1.9558 0c-1.25499,0 -2.17824,-0.255569 -2.7705,-0.764801 -0.593407,-0.509614 -0.889348,-1.33155 -0.889348,-2.46656l0 -6.80818 2.54845 0 0 6.57813c0,0.402968 0.0914105,0.680247 0.274232,0.828408 0.18244,0.149304 0.530943,0.223575 1.04398,0.223575l1.74899 0 0 2.40943zm-6.85998 -5.00549c0,1.40429 -0.511518,2.61853 -1.53417,3.64233 -1.02189,1.0238 -2.26431,1.53608 -3.72612,1.53608 -1.45228,0 -2.68671,-0.509614 -3.70479,-1.52922 -1.01694,-1.01885 -1.52541,-2.23499 -1.52541,-3.64918 0,-1.43286 0.505424,-2.65852 1.51856,-3.67851 1.01199,-1.01885 2.24946,-1.52808 3.71165,-1.52808 1.46181,0 2.70423,0.51228 3.72612,1.53608 1.02266,1.0238 1.53417,2.24756 1.53417,3.67051zm-2.59301 0c0,-0.721381 -0.259758,-1.34412 -0.777751,-1.8682 -0.519516,-0.524087 -1.14873,-0.785369 -1.88953,-0.785369 -0.740806,0 -1.36849,0.259377 -1.88153,0.778894 -0.513422,0.519136 -0.771276,1.14377 -0.771276,1.87468 0,0.721381 0.254807,1.33916 0.763278,1.85335 0.508471,0.514184 1.13882,0.772038 1.88953,0.772038 0.740806,0 1.37002,-0.257854 1.88953,-0.772038 0.517993,-0.514184 0.777751,-1.13197 0.777751,-1.85335zm-14.6207 2.6829l2.02589 0c0.642159,0 0.963238,-0.18244 0.963238,-0.547701 0,-0.26928 -0.316128,-0.620449 -0.948384,-1.05274 -0.948765,-0.645206 -1.54103,-1.08245 -1.77832,-1.31288 -0.0948384,-0.0906488 -0.181678,-0.18244 -0.262424,-0.274232l0 3.18756zm15.9412 -20.6641l0 -7.8495 -4.2563 0 0 -5.84418 4.2563 0 0 -2.45628c0,-0.96819 -0.249855,-1.74404 -0.748805,-2.32678 -0.499711,-0.583504 -1.16891,-0.874494 -2.01027,-0.874494 -0.866876,0 -1.54979,0.284896 -2.04874,0.855831 -0.498568,0.570935 -0.748424,1.35288 -0.748424,2.34544l0 16.1305 5.55624 0.0194247zm-33.8219 0.00418965l-0.633399 -8.70457 -1.94514 8.13363c-0.0487523,0.208721 -0.125689,0.399159 -0.231192,0.569792l2.80973 0.00114263zm-6.16907 -0.00190439c-0.101313,-0.169871 -0.179393,-0.359167 -0.234239,-0.56903l-1.90096 -7.86816 -0.632637 8.43605 2.76783 0.00114263zm94.5509 29.753c0.0594168,0.0537037 0.145495,0.141305 0.210625,0.196913 0.515327,0.435343 0.369832,0.493998 1.13235,0.657775 2.21632,0.477239 5.08281,-1.48923 6.40407,-1.41877 1.91277,0.101313 2.66919,0.784607 5.13956,0.327935 1.64615,-0.304702 2.36639,-1.0417 4.10167,-1.19672 0.645206,5.81866 -0.466194,12.3393 2.1531,17.1623l5.2184 9.03631 2.07311 2.7267c-1.24356,2.68785 -0.978093,4.53549 -0.189296,7.24847 -1.709,1.40467 -7.25038,3.72726 -9.71199,4.46007 -3.0733,0.915629 -7.87502,-0.132545 -7.25228,7.30332 0.645206,0.505424 2.47913,1.78593 3.50864,1.92952l-14.866 -0.224718c1.56083,-0.601024 3.92837,-0.524849 5.1845,-1.47171 1.88534,-2.10397 -3.77982,-13.4933 -2.99903,-15.8887 0.882112,-2.70232 1.85601,2.21442 0.176346,-7.84264 -0.209482,-1.25804 -0.71224,-7.08051 -0.184345,-7.77446 2.17138,-0.300512 1.03561,-0.364119 2.84515,5.54824 1.69414,-0.111216 1.65415,-0.190439 2.86915,-0.732046 2.38505,-1.06569 2.64976,0.0175203 1.95085,-4.7225 -0.389256,-2.641 -0.378592,-1.66977 -2.08149,-2.6928 -0.394589,-2.33249 -0.412871,-4.25402 -1.11559,-6.20601 -2.155,-0.250998 -2.58654,-0.0468479 -4.04263,0.81203 -0.316128,1.92153 0.733189,3.53187 -1.56921,3.62252 -1.97828,0.0773181 -1.70214,-1.44619 -1.6153,-2.64176 0.201103,-2.80897 -1.20928,-5.38827 -1.20129,-8.10735l3.42066 -0.527896c0.0830312,0.0594168 0.171014,0.163777 0.222432,0.210625 0.0498949,0.0460861 0.15616,0.150446 0.217862,0.205293l0 0zm29.6223 -5.4732c3.13767,-3.26069 9.5105,-4.7743 12.2715,-8.73085 0.708812,-1.01504 2.04379,-2.92399 3.13081,-3.92532l5.11518 10.2102 -20.5175 2.44599 0 0z"/>
 </g>
</svg>
