<?xml version="1.0" encoding="UTF-8"?>
<!DOCTYPE svg PUBLIC "-//W3C//DTD SVG 1.1//EN" "http://www.w3.org/Graphics/SVG/1.1/DTD/svg11.dtd">
<!-- Creator: CorelDRAW -->
<svg xmlns="http://www.w3.org/2000/svg" xml:space="preserve" width="5548in" height="7180in" style="shape-rendering:geometricPrecision; text-rendering:geometricPrecision; image-rendering:optimizeQuality; fill-rule:evenodd; clip-rule:evenodd"
viewBox="0 0 209.917 15.7438"
 xmlns:xlink="http://www.w3.org/1999/xlink">
 <defs>
  <style type="text/css">
   <![CDATA[
    .fil0 {fill:red}
   ]]>
  </style>
 </defs>
 <g id="Layer_x0020_1">
  <metadata id="CorelCorpID_0Corel-Layer"/>
  <path class="fil0" d="M16.655 0.00516529c-0.713637,0.00599174 -1.41591,0.0177686 -2.10641,0.035124l0.775207 0.795661 -2.2874 2.62665 -1.82831 -1.87603 1.28574 -1.47645c-0.628099,0.0270661 -1.24587,0.0590909 -1.85331,0.0960744l0.613637 0.629752 -2.2874 2.62665 -1.82831 -1.87603 1.04318 -1.19793c-0.453719,0.0400827 -0.890289,0.082438 -1.3093,0.127066l0.31219 0.320248 -2.2876 2.62665 -1.8281 -1.87603 0.530579 -0.609298c-0.347521,0.0646694 -0.673967,0.132438 -0.979339,0.202893 -1.60227,0.371488 -2.40351,0.772314 -2.40351,1.20372 0,0.135744 0.0793389,0.268388 0.23781,0.397934 -0.27562,0.358058 -0.454339,0.924174 -0.454339,1.55826l0 6.48368c0,0.867149 0.334298,1.60703 0.793182,1.86178 -0.470661,0.215909 -0.706199,0.440703 -0.706199,0.67438 0,0.431405 0.801653,0.832232 2.40496,1.20372 0.291736,0.0673554 0.602686,0.132025 0.932851,0.194215l1.93141 -2.21777 1.82831 1.87603 -0.683884 0.785124c0.243182,0.0268595 0.492562,0.0530992 0.747934,0.0783058l-0.110124 -0.11281 2.2874 -2.62665 1.82831 1.87603 -0.964256 1.10723c0.440909,0.0278926 0.887604,0.0533058 1.33967,0.0758265l-0.421488 -0.432438 2.2876 -2.62665 1.8281 1.87603 -1.11591 1.28161c0.532851,0.0142562 1.07273,0.0254132 1.61963,0.0330579l-0.549587 -0.56405 2.2874 -2.62665 1.82831 1.87603 -1.15537 1.32665c0.558678,-0.00206612 1.11033,-0.00743802 1.65496,-0.0161157l-0.545661 -0.559917 2.2874 -2.62665 1.82831 1.87603 -1.08471 1.24545c0.492769,-0.0181818 0.979132,-0.0392562 1.4593,-0.0632232l-0.420661 -0.431612 2.2876 -2.62665 1.8281 1.87603 -0.871281 1.00041c0.338017,-0.0268595 0.666942,-0.0549587 0.986777,-0.0840909l-0.161364 -0.165703 2.2874 -2.62665 1.82831 1.87603 -0.636777 0.730992c0.209504,0.025 0.42376,0.0493802 0.642769,0.0729339l-0.0520661 -0.0533058 2.2874 -2.62665 1.82831 1.87603 -0.936157 1.075c0.422727,0.0289256 0.85062,0.0553719 1.28368,0.0793389l-0.393595 -0.403719 2.2876 -2.62665 1.8281 1.87603 -1.1031 1.26694c0.525827,0.0163223 1.05888,0.0295455 1.59855,0.0392562l-0.541322 -0.555579 2.2874 -2.62665 1.82831 1.87603 -1.1562 1.32769 0.00475207 0c0.559504,0 1.1124,-0.00330579 1.65806,-0.00991736l-0.552686 -0.567149 2.2874 -2.62665 1.82831 1.87603 -1.10062 1.26384c0.505992,-0.0163223 1.00537,-0.0355372 1.49835,-0.0578513l-0.443802 -0.455372 2.2876 -2.62665 1.8281 1.87603 -0.908058 1.04277c0.174793,-0.0128099 0.348554,-0.0260331 0.521488,-0.0396694 0.183678,-0.0144628 0.36467,-0.0293388 0.543182,-0.0446281l-0.202479 -0.207851 2.2874 -2.62665 1.82831 1.87603 -0.586364 0.673347c0.179132,0.0229339 0.36219,0.0454546 0.548967,0.0673554l2.27872 -2.61674 1.82831 1.87603 -0.905992 1.0405c0.402686,0.0295455 0.810124,0.0570248 1.22252,0.0820248l-0.362603 -0.371901 2.2876 -2.62665 1.8281 1.87603 -1.08864 1.25c0.517769,0.0183884 1.04236,0.0336777 1.57376,0.0454546l-0.530992 -0.544835 2.2874 -2.62665 1.82831 1.87603 -1.15537 1.32665c0.173141,0.000619835 0.347108,0.00103306 0.521901,0.00103306 0.384917,0 0.766736,-0.00165289 1.14525,-0.00475207l-0.557851 -0.572314 2.2874 -2.62665 1.82831 1.87603 -1.11446 1.27975c0.517769,-0.0142562 1.02872,-0.0318182 1.53306,-0.0524794l-0.464463 -0.476653 2.2874 -2.62665 1.8281 1.87603 -0.941942 1.08161c0.36157,-0.0243802 0.719422,-0.0504132 1.07335,-0.0785124l0.063843 -0.00495868 -0.241116 -0.247521 2.2874 -2.62665 1.82831 1.87603 -0.574794 0.659918c0.0677686,-0.0088843 0.135124,-0.0177686 0.20186,-0.0266529 0.126446,0.0169422 0.254752,0.0336777 0.385331,0.0502066l2.22893 -2.5595 1.82831 1.87603 -0.873761 1.00331c0.380992,0.0301653 0.766322,0.0582645 1.15599,0.0840909l-0.328099 -0.336777 2.2874 -2.62665 1.8281 1.87603 -1.07211 1.2312c0.508265,0.0202479 1.02314,0.0373967 1.54463,0.0512397l-0.518389 -0.531818 2.2874 -2.62665 1.82831 1.87603 -1.15289 1.32376c0.343182,0.00268595 0.688843,0.00392562 1.03719,0.00392562 0.211364,0 0.421488,-0.000413223 0.630579,-0.00144628l-0.560951 -0.57562 2.2874 -2.62665 1.82831 1.87603 -1.12603 1.29318c0.527893,-0.0123967 1.04917,-0.0278926 1.56343,-0.0464876l-0.483265 -0.496074 2.2874 -2.62665 1.8281 1.87603 -0.972727 1.11694c0.406198,-0.025 0.807438,-0.0522727 1.20413,-0.0818182l-0.277273 -0.284504 2.2874 -2.62665 1.82831 1.87603 -0.63781 0.732232c0.233471,-0.027686 0.460744,-0.0561984 0.682232,-0.0855372l2.1969 -2.52273 1.82831 1.87603 -0.839256 0.963843c0.157851,0.0134298 0.317975,0.0264463 0.479959,0.0392562 0.200207,0.0159091 0.401446,0.0309917 0.603926,0.0456612l-0.290496 -0.298141 2.2874 -2.62665 1.8281 1.87603 -1.05351 1.20992c0.497108,0.0223141 1.00083,0.0413223 1.51095,0.0572314l-0.503306 -0.516529 2.2874 -2.62665 1.82831 1.87603 -1.14876 1.31901c0.511157,0.00578513 1.0281,0.00867769 1.55103,0.00867769l0.11405 0 -0.562397 -0.577066 2.2874 -2.62665 1.82831 1.87603 -1.13574 1.30413c0.536777,-0.010124 1.06694,-0.0235537 1.58988,-0.0402893l-0.5 -0.513223 2.2874 -2.62665 1.8281 1.87603 -1.00062 1.14917c0.427066,-0.0239669 0.848967,-0.0504132 1.26591,-0.0793389l-0.311157 -0.319215 2.2874 -2.62665 1.82831 1.87603 -0.694835 0.797727c0.230372,-0.025 0.455579,-0.0508265 0.675207,-0.0774794l2.26095 -2.59628 1.82831 1.87603 -0.802686 0.921694c0.31219,0.0283058 0.632645,0.0553719 0.961364,0.081405l0.0448347 0.0035124 -0.24938 -0.255992 2.2874 -2.62665 1.8281 1.87603 -1.03326 1.18657c0.484711,0.0239669 0.975827,0.0448347 1.47335,0.0626033l-0.485951 -0.498554 2.2874 -2.62665 1.82831 1.87603 -1.14277 1.31219c0.545868,0.00826446 1.09876,0.0132231 1.65868,0.014876l-0.561984 -0.576446 2.2876 -2.62665 1.8281 1.87603 -1.14339 1.31302c0.544422,-0.00805785 1.08182,-0.0194215 1.61219,-0.0340909l-0.51467 -0.528306 2.2874 -2.62665 1.8281 1.87603 -1.02603 1.17831c0.446488,-0.0227273 0.887397,-0.0481405 1.32293,-0.0760331l-0.342769 -0.351653 2.2874 -2.62665 1.82831 1.87603 -0.746488 0.857232c0.248967,-0.025 0.491942,-0.0506198 0.729339,-0.0770661l-0.0289256 -0.0295455 2.2876 -2.62665 1.8281 1.87603 -0.76343 0.876653c0.299174,0.0291322 0.606612,0.0570248 0.922108,0.0838843l-0.204546 -0.209917 2.2874 -2.62665 1.8281 1.87603 -1.01095 1.16095c0.470868,0.0254132 0.947934,0.0479339 1.43099,0.067562l-0.465909 -0.477893 2.2874 -2.62665 1.82831 1.87603 -1.13512 1.30331c0.542562,0.0105372 1.09215,0.017562 1.64855,0.021281l-0.559504 -0.573967 2.2876 -2.62665 1.8281 1.87603 -1.14938 1.31984c0.55062,-0.00599174 1.09422,-0.0152893 1.63079,-0.0280992l-0.527273 -0.541116 2.2874 -2.62665 1.8281 1.87603 -1.04876 1.20434c0.46405,-0.021281 0.922521,-0.0452479 1.375,-0.0719008l-0.372108 -0.381818 2.2874 -2.62665 1.82831 1.87603 -0.793802 0.911364c0.282231,-0.0258265 0.557438,-0.0528926 0.825827,-0.0807851l-0.0780992 -0.0799587 2.2876 -2.62665 1.8281 1.87603 -0.721694 0.828719c0.270041,0.0283058 0.547314,0.0553719 0.831405,0.0816116l-0.155579 -0.159711 2.2874 -2.62665 1.8281 1.87603 -0.98657 1.13306c0.455372,0.0268595 0.916736,0.0510331 1.38388,0.0723141l-0.443182 -0.454752 2.2874 -2.62665 1.82831 1.87603 -1.12562 1.29256c0.53781,0.0126033 1.08285,0.0216942 1.63471,0.0274793l-0.555165 -0.569422 2.2876 -2.62665 1.8281 1.87603 -1.15331 1.32438c0.555579,-0.00392562 1.10393,-0.011157 1.64545,-0.0216942l-0.538017 -0.552066 2.2874 -2.62665 1.8281 1.87603 -1.06901 1.22769c0.480165,-0.0196281 0.954339,-0.0421488 1.42231,-0.067562l-0.399174 -0.409504 2.2874 -2.62665 1.82831 1.87603 -0.836984 0.961157c0.313017,-0.0266529 0.618182,-0.0543389 0.915083,-0.0832645l-0.124174 -0.127273 2.2876 -2.62665 1.8281 1.87603 -0.349793 0.401653c0.253099,-0.0446281 0.495868,-0.0904959 0.727893,-0.138017l1.86343 -2.13967 1.00826 1.03471c0.0452479,-0.0708678 0.0679752,-0.142355 0.0679752,-0.214876 0,-0.272314 -0.319628,-0.532438 -0.958885,-0.780785 0.378512,-0.319835 0.640496,-0.98781 0.640496,-1.75537l0 -6.48368c0,-0.508471 -0.115083,-0.973141 -0.302686,-1.3219 0.41405,-0.203719 0.621075,-0.415083 0.621075,-0.634298 0,-0.137603 -0.0816116,-0.272107 -0.244628,-0.403512l-1.29091 1.48223 -1.8281 -1.87603 0.450413 -0.517355c-0.167562,-0.0345041 -0.340703,-0.0681818 -0.519422,-0.10124l-2.17252 2.49463 -1.82831 -1.87603 0.919215 -1.05558c-0.414463,-0.0450413 -0.846281,-0.0880165 -1.29566,-0.128512l0.422521 0.433471 -2.2874 2.62665 -1.82831 -1.87603 1.19566 -1.37314c-0.606818,-0.0378099 -1.22417,-0.0704546 -1.85186,-0.0981405l0.702066 0.720661 -2.2874 2.62665 -1.8281 -1.87603 1.34401 -1.5436c-0.690496,-0.0179752 -1.39277,-0.0301653 -2.10682,-0.0369835l0.808678 0.829959 -2.2874 2.62665 -1.82831 -1.87603 1.38037 -1.58512c-0.718802,0.00330579 -1.42603,0.0121901 -2.12169,0.0264463l0.787397 0.808058 -2.2874 2.62665 -1.82831 -1.87603 1.30579 -1.49959c-0.645041,0.0243802 -1.27955,0.0541322 -1.9031,0.088843l0.643182 0.660124 -2.2874 2.62665 -1.8281 -1.87603 1.08698 -1.24835c-0.48657,0.0394628 -0.954339,0.081405 -1.40331,0.125826l0.36219 0.371901 -2.2874 2.62665 -1.82831 -1.87603 0.874174 -1.00372c-0.384091,-0.0450413 -0.784091,-0.0878099 -1.2,-0.128512l0.371901 0.381612 -2.2874 2.62665 -1.82831 -1.87603 1.16901 -1.34236c-0.590496,-0.0396694 -1.19091,-0.0743802 -1.80145,-0.104339l0.678306 0.696075 -2.2874 2.62665 -1.8281 -1.87603 1.33203 -1.52975c-0.684711,-0.0206612 -1.38099,-0.0355372 -2.08926,-0.0450413l0.803099 0.824174 -2.2874 2.62665 -1.82831 -1.87603 1.38161 -1.58657c-0.722108,0.000826446 -1.43285,0.00702479 -2.13203,0.0188017l0.796488 0.817149 -2.2874 2.62665 -1.82831 -1.87603 1.3219 -1.51798c-0.659091,0.0219008 -1.30703,0.0491736 -1.94401,0.0816116l0.667975 0.685744 -2.2874 2.62665 -1.8281 -1.87603 1.12355 -1.2905c-0.123554,0.00929752 -0.246694,0.0188017 -0.369215,0.0285124 -0.382645,0.0303719 -0.753926,0.0621901 -1.11364,0.0954546l0.405165 0.415909 -2.2874 2.62665 -1.82831 -1.87603 0.82624 -0.948761c-0.351446,-0.0440083 -0.716942,-0.0863637 -1.09669,-0.126653l0.316529 0.324793 -2.2876 2.62665 -1.8281 -1.87603 1.14029 -1.3095c-0.572314,-0.0413223 -1.15434,-0.0778926 -1.74607,-0.109917l0.651653 0.668802 -2.2874 2.62665 -1.8281 -1.87603 1.31839 -1.51405c-0.677686,-0.0231405 -1.36694,-0.0409091 -2.06798,-0.0528926l0.795455 0.816322 -2.2874 2.62665 -1.82831 -1.87603 1.3812 -1.58595c-0.123967,-0.000413223 -0.248347,-0.000619835 -0.373141,-0.000619835 -0.596281,0 -1.18492,0.00371901 -1.7655,0.0113636l0.803513 0.824587 -2.2876 2.62665 -1.8281 -1.87603 1.33595 -1.53409c-0.671488,0.0194215 -1.33182,0.0442149 -1.98099,0.0743802l0.690909 0.709091 -2.2874 2.62665 -1.8281 -1.87603 1.15723 -1.32913c-0.304546,0.0210744 -0.606405,0.0433884 -0.905372,0.0671488 -0.221074,0.017562 -0.438223,0.0355372 -0.651653,0.0539256l0.445661 0.457438 -2.2874 2.62665 -1.82831 -1.87603 0.779339 -0.894835 -0.0210744 0.00268595c-0.310744,-0.0419422 -0.633265,-0.0822314 -0.967975,-0.120868l0.255785 0.262397 -2.2876 2.62665 -1.8281 -1.87603 1.1095 -1.27417c-0.552686,-0.0427686 -1.11467,-0.0809918 -1.68595,-0.115083l0.622314 0.638637 -2.2874 2.62665 -1.8281 -1.87603 1.30289 -1.49628c-0.669422,-0.0258265 -1.35041,-0.0460744 -2.04298,-0.0609504l0.785951 0.806612 -2.2874 2.62665 -1.82831 -1.87603 1.37934 -1.58388c-0.289463,-0.0018595 -0.580785,-0.00268595 -0.873761,-0.00268595 -0.42686,0 -0.849587,0.0018595 -1.2686,0.00578513l0.809091 0.830165 -2.2876 2.62665 -1.8281 -1.87603 1.34793 -1.54793c-0.682645,0.0169422 -1.35393,0.0392562 -2.01364,0.0669422l0.71157 0.730372 -2.2874 2.62665 -1.8281 -1.87603 1.18802 -1.36446c-0.486364,0.0309917 -0.965909,0.0650827 -1.43884,0.102479 -0.0626033,0.00495868 -0.125,0.00991736 -0.186984,0.0150826l0.483678 0.496281 -2.2874 2.62665 -1.82831 -1.87603 0.842562 -0.967562c-0.2,0.0245868 -0.395661,0.0497934 -0.586777,0.0754132 -0.130579,-0.017562 -0.26343,-0.0349174 -0.398347,-0.0518595l0.188636 0.193388 -2.2876 2.62665 -1.8281 -1.87603 1.07665 -1.23657c-0.103926,-0.00847108 -0.208884,-0.0171488 -0.314463,-0.0254132 -0.429752,-0.0340909 -0.865083,-0.0652893 -1.3062,-0.0940083l0.589876 0.605372 -2.2874 2.62665 -1.8281 -1.87603 1.28554 -1.47645c-0.659711,-0.0283058 -1.3312,-0.0512397 -2.01384,-0.0685951l0.774174 0.794422 -2.2874 2.62665 -1.82831 -1.87603 1.37562 -1.57975c-0.452686,-0.00454546 -0.910331,-0.00681818 -1.37273,-0.00681818 -0.257851,0 -0.514463,0.000619835 -0.769422,0.00206612l0.812603 0.833884 -2.2876 2.62665 -1.8281 -1.87603 1.35785 -1.5593c-0.692356,0.0140496 -1.37314,0.0336777 -2.04236,0.0590909l0.730372 0.749587 -2.2874 2.62665 -1.8281 -1.87603 1.21612 -1.39669c-0.572314,0.0332645 -1.13574,0.0708678 -1.68967,0.113017l0.519422 0.533058 -2.2874 2.62665 -1.82831 -1.87603 0.899794 -1.03326c-0.349174,0.0392562 -0.685537,0.0801653 -1.0095,0.122934l0.155785 0.159711 -2.2876 2.62665 -1.8281 -1.87603 1.04194 -1.19649c-0.255372,-0.0225207 -0.516116,-0.0444215 -0.782438,-0.0654959 -0.253926,-0.0200413 -0.509917,-0.0392562 -0.767975,-0.057438l0.554339 0.568802 -2.2874 2.62665 -1.8281 -1.87603 1.26653 -1.45455c-0.648967,-0.0307851 -1.3093,-0.0561984 -1.98099,-0.0762397l0.760331 0.780165 -2.2874 2.62665 -1.82831 -1.87603 1.37045 -1.57376c-0.614463,-0.00847108 -1.23781,-0.0128099 -1.87004,-0.0128099 -0.0896694,0 -0.179339,0 -0.268802,0.000206612l0.814463 0.835744 -2.2876 2.62665 -1.8281 -1.87603 1.36612 -1.5688c-0.700827,0.0115703 -1.38988,0.0285124 -2.06756,0.0512397l0.747314 0.766942 -2.2874 2.62665 -1.82831 -1.87603 1.24194 -1.42603c-0.592562,0.031405 -1.17562,0.0673554 -1.74897,0.107851l0.553099 0.567562 -2.2874 2.62665 -1.82831 -1.87603 0.95186 -1.09318c-0.386777,0.0400827 -0.759091,0.0820248 -1.11694,0.126033l0.211157 0.216529 -2.2876 2.62665 -1.8281 -1.87603 1.00475 -1.15393c-0.401446,-0.0380165 -0.817356,-0.073967 -1.24773,-0.108058 -0.0754132,-0.00599174 -0.150826,-0.0117769 -0.226653,-0.017562l0.515496 0.528926 -2.2874 2.62665 -1.82831 -1.87603 1.24587 -1.43058c-0.636984,-0.0330579 -1.28492,-0.0609504 -1.9438,-0.0836777l0.744008 0.763637 -2.2874 2.62665 -1.82831 -1.87603 1.36384 -1.56612c-0.699174,-0.0121901 -1.40992,-0.0190083 -2.13223,-0.0202479l0.814463 0.835744 -2.2876 2.62665 -1.8281 -1.87603 1.37252 -1.57603c-0.707851,0.00867769 -1.40413,0.0231405 -2.08884,0.0431818l0.76219 0.782232 -2.2874 2.62665 -1.82831 -1.87603 1.26508 -1.45269c-0.611157,0.0293388 -1.2124,0.0634298 -1.80331,0.102479l0.584298 0.599587 -2.2874 2.62665 -1.82831 -1.87603 0.999587 -1.14793c-0.421694,0.0402893 -0.827273,0.0826446 -1.21674,0.127273l0.263223 0.270041 -2.2876 2.62665 -1.8281 -1.87603 0.965289 -1.10868c-0.445455,-0.0450413 -0.909504,-0.0876033 -1.39256,-0.127479l0.473141 0.485537 -2.2874 2.62665 -1.82831 -1.87603 1.22293 -1.40434c-0.623347,-0.0355372 -1.25744,-0.0657025 -1.90248,-0.0909091l0.72562 0.744628 -2.2874 2.62665 -1.82831 -1.87603 1.35537 -1.55641c-0.695661,-0.0150826 -1.4031,-0.0243802 -2.12211,-0.0283058l0.81281 0.834091 -2.2876 2.62665 -1.8281 -1.87603 1.37707 -1.58141zm1.06922 10.9709c-3.19091,0 -6.16013,0.107851 -8.90104,0.324587 -0.748554,0.0592975 -1.45372,0.12438 -2.11508,0.195455l-5.16384 0c-0.473554,0 -0.860951,-0.66281 -0.860951,-1.47314l0 -4.88203c0,-0.810124 0.387397,-1.47293 0.860951,-1.47293l1.43884 0c1.51736,0.322314 3.50537,0.580372 5.96426,0.775207 2.73926,0.216736 5.70661,0.324587 8.89546,0.324587 0.328099,0 0.653719,-0.00123967 0.97686,-0.0035124l0 6.05951c0,0.052686 0.00123967,0.104959 0.00371901,0.156612 -0.36343,-0.00289256 -0.729752,-0.00433884 -1.09917,-0.00433884zm185.572 0.520041c-0.66157,-0.0710744 -1.36653,-0.136157 -2.11508,-0.195455 -2.74112,-0.216736 -5.71013,-0.324587 -8.90413,-0.324587 -0.454959,0 -0.905372,0.00227273 -1.35103,0.00661157 0.00247934,-0.0524794 0.00371901,-0.105372 0.00371901,-0.158884l0 -6.06281c0.448141,0.00454546 0.900827,0.00681818 1.35806,0.00681818 3.19215,0 6.15951,-0.107851 8.89876,-0.324587 2.45888,-0.194835 4.4469,-0.452893 5.96426,-0.775207l0.903719 0c0.473554,0 0.861157,0.66281 0.861157,1.47293l0 4.88203c0,0.810331 -0.387603,1.47314 -0.861157,1.47314l-4.75827 0zm-15.8434 -0.431198c-1.41033,0.0539256 -2.76963,0.132438 -4.07686,0.235744 -0.748554,0.0592975 -1.45351,0.12438 -2.11488,0.195455l-2.90124 0c-0.661364,-0.0710744 -1.36632,-0.136157 -2.11488,-0.195455 -1.32769,-0.104959 -2.70909,-0.184298 -4.1436,-0.23843 0.00578513,-0.0780992 0.00867769,-0.157645 0.00867769,-0.23843l0 -6.14174c1.43884,-0.0539256 2.82417,-0.133471 4.15579,-0.238843 1.32417,-0.104959 2.51198,-0.228099 3.56322,-0.370041 1.05124,0.141942 2.23884,0.265083 3.56322,0.370041 1.29959,0.102686 2.65041,0.180992 4.05186,0.234917l0 6.14566c0,0.0816116 0.00289256,0.161984 0.00867769,0.241116zm-18.6742 -0.0811984c-0.473967,-0.00516529 -0.953306,-0.00764463 -1.43781,-0.00764463 -3.19091,0 -6.16013,0.107851 -8.90104,0.324587 -0.748554,0.0592975 -1.45351,0.12438 -2.11488,0.195455l-2.90124 0 -0.0516529 -0.00557851c0.0444215,-0.208265 0.0688017,-0.432851 0.0688017,-0.666736l0 -6.48368c0,-0.0301653 -0.000413223,-0.0603306 -0.00123967,-0.0902893 0.516116,-0.0551653 1.00558,-0.11405 1.4688,-0.176653 1.05103,0.141942 2.23884,0.265083 3.56322,0.370041 2.73926,0.216736 5.70641,0.324587 8.89546,0.324587 0.474174,0 0.943595,-0.00247934 1.40785,-0.00723141l0 6.06322c0,0.053719 0.00123967,0.107025 0.00371901,0.159917zm-18.8015 0.221488c-2.36405,-0.152893 -4.88884,-0.229132 -7.57252,-0.229132 -2.77107,0 -5.375,0.081405 -7.80744,0.244835 0.0157025,-0.128306 0.0239669,-0.261157 0.0239669,-0.397108l0 -6.30227c2.4374,0.164256 5.04711,0.246281 7.82521,0.246281 2.65971,0 5.16322,-0.075 7.50889,-0.225207l0 6.2812c0,0.130372 0.00743802,0.257851 0.0219008,0.381405zm-21.4895 0.290909c-0.661364,-0.0710744 -1.36632,-0.136157 -2.11508,-0.195455 -2.74091,-0.216736 -5.70992,-0.324587 -8.90413,-0.324587 -0.512397,0 -1.01922,0.00289256 -1.52045,0.00847108 0.00268595,-0.0530992 0.00392562,-0.106612 0.00392562,-0.160744l0 -6.06508c0.518389,0.00599174 1.04298,0.00909091 1.57376,0.00909091 3.19194,0 6.1593,-0.107851 8.89856,-0.324587 1.32438,-0.104959 2.51219,-0.228099 3.56322,-0.370041 0.412397,0.0557851 0.845868,0.108471 1.30041,0.158471 -0.00123967,0.0359504 -0.0018595,0.0721075 -0.0018595,0.108471l0 6.48368c0,0.23595 0.0247934,0.462397 0.0700413,0.672314l-2.86839 0zm-16.0122 -0.424587c-1.35,0.0535124 -2.65289,0.129959 -3.90806,0.229132 -0.748554,0.0592975 -1.45351,0.12438 -2.11488,0.195455l-2.90103 0c-0.661364,-0.0710744 -1.36632,-0.136157 -2.11508,-0.195455 -1.37975,-0.109091 -2.81736,-0.190496 -4.31219,-0.244628 0.00516529,-0.0762397 0.00805785,-0.153719 0.00805785,-0.232231l0 -6.13389c1.51612,-0.0539256 2.97335,-0.136157 4.37128,-0.246694 1.32438,-0.104959 2.51198,-0.228099 3.56322,-0.370041 1.05124,0.141942 2.23884,0.265083 3.56322,0.370041 1.23285,0.0975207 2.51178,0.172934 3.83636,0.226446l0 6.15413c0,0.0838843 0.00309917,0.166529 0.00909091,0.247727zm-18.6746 -0.0896694c-0.418802,-0.00371901 -0.841529,-0.00578513 -1.2686,-0.00578513 -3.19091,0 -6.15992,0.107851 -8.90083,0.324587 -0.74876,0.0592975 -1.45372,0.12438 -2.11508,0.195455l-2.90103 0c-0.0719008,-0.00785124 -0.144422,-0.0154959 -0.217355,-0.0229339 0.0421488,-0.203512 0.0650827,-0.422108 0.0650827,-0.64938l0 -6.48368c0,-0.0225207 -0.000413223,-0.0450413 -0.000826446,-0.067562 0.595661,-0.0617769 1.15682,-0.128306 1.68388,-0.19938 1.05124,0.141942 2.23884,0.265083 3.56322,0.370041 2.73926,0.216736 5.70661,0.324587 8.89546,0.324587 0.401033,0 0.798554,-0.0018595 1.19236,-0.00516529l0 6.06116c0,0.0533058 0.00123967,0.105992 0.00371901,0.158058zm-18.8027 0.212397c-2.31488,-0.145455 -4.78265,-0.218182 -7.40186,-0.218182 -2.83616,0 -5.49711,0.0853306 -7.9781,0.256405 0.0165289,-0.131818 0.0252066,-0.268595 0.0252066,-0.408678l0 -6.31715c2.49876,0.17438 5.18058,0.261157 8.0407,0.261157 2.57831,0 5.01013,-0.0704546 7.29339,-0.211777l0 6.26777c0,0.126653 0.00702479,0.250413 0.0206612,0.370455zm-21.319 0.30186c-0.661364,-0.0710744 -1.36632,-0.136157 -2.11488,-0.195455 -2.74091,-0.216736 -5.71013,-0.324587 -8.90413,-0.324587 -0.570455,0 -1.13368,0.0035124 -1.68988,0.0105372 0.00268595,-0.053719 0.00392562,-0.108058 0.00392562,-0.16281l0 -6.06777c0.58843,0.00785124 1.18492,0.0117769 1.78926,0.0117769 3.19215,0 6.1593,-0.107851 8.89856,-0.324587 1.32438,-0.104959 2.51219,-0.228099 3.56322,-0.370041 0.347108,0.0469008 0.709091,0.0917356 1.08574,0.134504 -0.00165289,0.0438017 -0.00268595,0.0880165 -0.00268595,0.132438l0 6.48368c0,0.23595 0.0247934,0.462397 0.0700413,0.672314l-2.69917 0zm-16.1808 -0.417769c-1.29008,0.0530992 -2.53657,0.127273 -3.73926,0.222314 -0.748554,0.0592975 -1.45351,0.12438 -2.11488,0.195455l-2.90124 0c-0.661364,-0.0710744 -1.36632,-0.136157 -2.11488,-0.195455 -1.43161,-0.113223 -2.92562,-0.196694 -4.4812,-0.25062 0.00495868,-0.0741736 0.00764463,-0.149793 0.00764463,-0.22624l0 -6.12624c1.5938,-0.0539256 3.12273,-0.138636 4.58678,-0.254339 1.32438,-0.104959 2.51198,-0.228099 3.56322,-0.370041 1.05124,0.141942 2.23905,0.265083 3.56322,0.370041 1.16591,0.0921488 2.37293,0.164669 3.62087,0.217562l0 6.16302c0,0.086157 0.00330579,0.171074 0.00971075,0.254546zm164.131 -2.53265c-0.377273,0.389256 -0.882025,0.346281 -1.34835,0.559504 0.0704546,0.378512 1.00496,1.47562 1.21405,1.72004 0.440083,-0.320041 0.104959,-0.888223 0.626653,-1.6188 0.0326446,0.0530992 0.480165,1.25248 1.26219,1.34835 0.732645,0.0900827 1.1405,-0.602686 1.25041,-1.06674 0.200413,-0.846075 0.435537,-3.00496 0.429132,-4 -0.00433884,-0.689463 -0.458265,-0.409504 -1.60971,-0.30186 -0.915703,0.0855372 -3.04215,0.0159091 -2.95372,1.75806 0.0196281,0.386984 0.233678,0.792356 0.410537,1.03719 0.330579,0.457851 0.410537,0.284917 0.718802,0.564256zm-5.23843 0.471901c0.298141,0.463223 0.183471,0.998554 0.307851,1.53079 0.355372,-0.0188017 1.49442,-0.857851 1.74835,-1.04566 -0.22562,-0.520248 -0.793389,-0.245455 -1.38079,-0.914876 0.0530992,-0.0270661 1.2126,-0.327893 1.41694,-1.1531 0.191529,-0.772727 -0.378306,-1.31426 -0.784504,-1.50165 -0.740909,-0.341529 -2.6719,-0.916736 -3.57934,-1.05888 -0.628513,-0.0983471 -0.441529,0.430785 -0.515703,1.68265 -0.0590909,0.995661 -0.440496,3.26777 1.1595,3.43347 0.355579,0.0367769 0.756818,-0.132231 1.0062,-0.285537 0.466529,-0.286364 0.320868,-0.398141 0.621488,-0.68719zm-14.5922 -1.87541c-0.377273,-0.389256 -0.882025,-0.346281 -1.34814,-0.559504 0.0702479,-0.378306 1.00475,-1.47562 1.21384,-1.71984 0.440083,0.319835 0.104959,0.888223 0.626653,1.6186 0.0326446,-0.0528926 0.480165,-1.25227 1.26219,-1.34835 0.732645,-0.0898761 1.1405,0.602686 1.25041,1.06674 0.200413,0.846075 0.435537,3.00496 0.429339,4.00021 -0.00454546,0.689256 -0.458471,0.409298 -1.60992,0.30186 -0.915496,-0.0855372 -3.04215,-0.0159091 -2.95372,-1.75806 0.0196281,-0.38719 0.233678,-0.792562 0.410537,-1.0374 0.330579,-0.457851 0.410537,-0.284917 0.718802,-0.564256zm-5.23843 -0.471901c0.298141,-0.463223 0.183471,-0.998554 0.307851,-1.53079 0.355372,0.0190083 1.49442,0.857851 1.74835,1.04587 -0.22562,0.520041 -0.793389,0.245248 -1.38079,0.91467 0.0533058,0.0270661 1.2126,0.327893 1.41694,1.1531 0.191529,0.772727 -0.378306,1.31426 -0.784504,1.50165 -0.740703,0.341529 -2.6719,0.916736 -3.57934,1.05888 -0.628513,0.0983471 -0.441529,-0.430785 -0.515703,-1.68265 -0.0590909,-0.995661 -0.440496,-3.26756 1.1595,-3.43327 0.355579,-0.0369835 0.756818,0.132231 1.0062,0.285331 0.466529,0.28657 0.321074,0.398141 0.621488,0.68719zm-13.7543 1.87541c-0.377273,0.389256 -0.882025,0.346281 -1.34814,0.559504 0.0702479,0.378512 1.00475,1.47562 1.21405,1.72004 0.439876,-0.320041 0.104752,-0.888223 0.626653,-1.6188 0.0326446,0.0530992 0.479959,1.25248 1.26219,1.34835 0.732438,0.0900827 1.1405,-0.602686 1.25041,-1.06674 0.200207,-0.846075 0.435331,-3.00496 0.429132,-4 -0.00433884,-0.689463 -0.458471,-0.409504 -1.60971,-0.30186 -0.915703,0.0855372 -3.04215,0.0159091 -2.95393,1.75806 0.0196281,0.386984 0.233678,0.792356 0.410537,1.03719 0.330785,0.457851 0.410537,0.284917 0.718802,0.564256zm-5.23843 0.471901c0.298141,0.463223 0.183471,0.998554 0.308058,1.53079 0.355165,-0.0188017 1.49422,-0.857851 1.74814,-1.04566 -0.22562,-0.520248 -0.793389,-0.245455 -1.38058,-0.914876 0.0530992,-0.0270661 1.2124,-0.327893 1.41694,-1.1531 0.191322,-0.772727 -0.378512,-1.31426 -0.784711,-1.50165 -0.740703,-0.341529 -2.6719,-0.916736 -3.57934,-1.05888 -0.628513,-0.0983471 -0.441322,0.430785 -0.515703,1.68265 -0.0588843,0.995661 -0.440496,3.26777 1.15971,3.43347 0.355372,0.0367769 0.756612,-0.132231 1.0062,-0.285537 0.466322,-0.286364 0.320868,-0.398141 0.621281,-0.68719zm-13.5062 -1.87541c-0.377273,-0.389256 -0.882025,-0.346281 -1.34835,-0.559504 0.0704546,-0.378306 1.00496,-1.47562 1.21405,-1.71984 0.440083,0.319835 0.104959,0.888223 0.626653,1.6186 0.0326446,-0.0528926 0.480165,-1.25227 1.26219,-1.34835 0.732645,-0.0898761 1.1405,0.602686 1.25041,1.06674 0.200413,0.846075 0.435537,3.00496 0.429132,4.00021 -0.00433884,0.689256 -0.458265,0.409298 -1.60971,0.30186 -0.915703,-0.0855372 -3.04215,-0.0159091 -2.95372,-1.75806 0.0196281,-0.38719 0.233678,-0.792562 0.410537,-1.0374 0.330579,-0.457851 0.410537,-0.284917 0.718802,-0.564256zm-5.23843 -0.471901c0.298141,-0.463223 0.183471,-0.998554 0.307851,-1.53079 0.355372,0.0190083 1.49442,0.857851 1.74835,1.04587 -0.22562,0.520041 -0.793389,0.245248 -1.38079,0.91467 0.0530992,0.0270661 1.2126,0.327893 1.41694,1.1531 0.191529,0.772727 -0.378306,1.31426 -0.784504,1.50165 -0.740909,0.341529 -2.6719,0.916736 -3.57934,1.05888 -0.628513,0.0983471 -0.441529,-0.430785 -0.515703,-1.68265 -0.0590909,-0.995661 -0.440496,-3.26756 1.1595,-3.43327 0.355579,-0.0369835 0.756818,0.132231 1.0062,0.285331 0.466529,0.28657 0.320868,0.398141 0.621488,0.68719zm-12.2614 1.87541c-0.377273,0.389256 -0.882025,0.346281 -1.34814,0.559504 0.0702479,0.378512 1.00475,1.47562 1.21384,1.72004 0.440083,-0.320041 0.104959,-0.888223 0.626653,-1.6188 0.0328512,0.0530992 0.480165,1.25248 1.26219,1.34835 0.732645,0.0900827 1.1407,-0.602686 1.25041,-1.06674 0.200413,-0.846075 0.435537,-3.00496 0.429339,-4 -0.00433884,-0.689463 -0.458471,-0.409504 -1.60992,-0.30186 -0.915496,0.0855372 -3.04215,0.0159091 -2.95372,1.75806 0.0196281,0.386984 0.233678,0.792356 0.410537,1.03719 0.330579,0.457851 0.410537,0.284917 0.718802,0.564256zm-19.5502 -1.40351c-0.377273,-0.389256 -0.882025,-0.346281 -1.34814,-0.559504 0.0702479,-0.378306 1.00475,-1.47562 1.21384,-1.71984 0.440083,0.319835 0.104959,0.888223 0.626653,1.6186 0.0328512,-0.0528926 0.480165,-1.25227 1.26219,-1.34835 0.732645,-0.0898761 1.1407,0.602686 1.25041,1.06674 0.200413,0.846075 0.435537,3.00496 0.429339,4.00021 -0.00454546,0.689256 -0.458471,0.409298 -1.60992,0.30186 -0.915496,-0.0855372 -3.04215,-0.0159091 -2.95372,-1.75806 0.0196281,-0.38719 0.233678,-0.792562 0.410537,-1.0374 0.330579,-0.457851 0.410537,-0.284917 0.718802,-0.564256zm-18.5703 1.40351c-0.377273,0.389256 -0.882025,0.346281 -1.34814,0.559504 0.0702479,0.378512 1.00475,1.47562 1.21405,1.72004 0.439876,-0.320041 0.104752,-0.888223 0.626653,-1.6188 0.0326446,0.0530992 0.479959,1.25248 1.26219,1.34835 0.732438,0.0900827 1.1405,-0.602686 1.25041,-1.06674 0.200207,-0.846075 0.435331,-3.00496 0.429132,-4 -0.00433884,-0.689463 -0.458471,-0.409504 -1.60971,-0.30186 -0.915703,0.0855372 -3.04215,0.0159091 -2.95393,1.75806 0.0196281,0.386984 0.233678,0.792356 0.410537,1.03719 0.330785,0.457851 0.410537,0.284917 0.718802,0.564256zm-18.8012 -1.40351c-0.377273,-0.389256 -0.882025,-0.346281 -1.34814,-0.559504 0.0702479,-0.378306 1.00475,-1.47562 1.21384,-1.71984 0.440083,0.319835 0.104959,0.888223 0.626653,1.6186 0.0328512,-0.0528926 0.480165,-1.25227 1.26219,-1.34835 0.732645,-0.0898761 1.1407,0.602686 1.25041,1.06674 0.200413,0.846075 0.435537,3.00496 0.429339,4.00021 -0.00454546,0.689256 -0.458471,0.409298 -1.60992,0.30186 -0.915496,-0.0855372 -3.04215,-0.0159091 -2.95372,-1.75806 0.0196281,-0.38719 0.233678,-0.792562 0.410537,-1.0374 0.330579,-0.457851 0.410537,-0.284917 0.718802,-0.564256zm-18.6326 1.40351c-0.377273,0.389256 -0.882025,0.346281 -1.34814,0.559504 0.0702479,0.378512 1.00475,1.47562 1.21384,1.72004 0.440083,-0.320041 0.104959,-0.888223 0.626653,-1.6188 0.0326446,0.0530992 0.480165,1.25248 1.26219,1.34835 0.732645,0.0900827 1.1405,-0.602686 1.25041,-1.06674 0.200413,-0.846075 0.435537,-3.00496 0.429339,-4 -0.00454546,-0.689463 -0.458471,-0.409504 -1.60992,-0.30186 -0.915496,0.0855372 -3.04215,0.0159091 -2.95372,1.75806 0.0196281,0.386984 0.233678,0.792356 0.410537,1.03719 0.330579,0.457851 0.410537,0.284917 0.718802,0.564256zm-18.7254 -1.40351c-0.377273,-0.389256 -0.882025,-0.346281 -1.34814,-0.559504 0.0704546,-0.378306 1.00475,-1.47562 1.21405,-1.72004 0.440083,0.320041 0.104752,0.88843 0.626653,1.6188 0.0326446,-0.0528926 0.479959,-1.25227 1.26219,-1.34835 0.732438,-0.0898761 1.1405,0.602686 1.25041,1.06674 0.200207,0.846075 0.435537,3.00496 0.429132,4.00021 -0.00433884,0.689256 -0.458265,0.409298 -1.60971,0.30186 -0.915703,-0.0855372 -3.04215,-0.0159091 -2.95393,-1.75806 0.0198347,-0.38719 0.233678,-0.792562 0.410537,-1.0374 0.330785,-0.457851 0.410744,-0.284917 0.718802,-0.564256zm89.0413 1.87541c0.298141,0.463223 0.183471,0.998554 0.308058,1.53079 0.355165,-0.0188017 1.49422,-0.857851 1.74814,-1.04566 -0.22562,-0.520248 -0.793389,-0.245455 -1.38079,-0.914876 0.0533058,-0.0270661 1.2126,-0.327893 1.41694,-1.1531 0.191529,-0.772727 -0.378306,-1.31426 -0.784504,-1.50165 -0.740703,-0.341529 -2.6719,-0.916736 -3.57934,-1.05888 -0.628513,-0.0983471 -0.441529,0.430785 -0.515703,1.68265 -0.0590909,0.995661 -0.440496,3.26777 1.1595,3.43347 0.355579,0.0367769 0.756818,-0.132231 1.00641,-0.285537 0.466322,-0.286364 0.320868,-0.398141 0.621281,-0.68719zm-19.5502 -2.34731c0.298141,-0.463223 0.183471,-0.998554 0.308058,-1.53079 0.355165,0.0190083 1.49422,0.857851 1.74814,1.04587 -0.22562,0.520041 -0.793389,0.245248 -1.38058,0.91467 0.0530992,0.0270661 1.2124,0.327893 1.41674,1.1531 0.191529,0.772727 -0.378306,1.31426 -0.784504,1.50165 -0.740703,0.341529 -2.6719,0.916736 -3.57934,1.05888 -0.628513,0.0983471 -0.441529,-0.430785 -0.515703,-1.68265 -0.0590909,-0.995661 -0.440496,-3.26756 1.1595,-3.43327 0.355579,-0.0369835 0.756818,0.132231 1.00641,0.285331 0.466322,0.28657 0.320868,0.398141 0.621281,0.68719zm-18.5703 2.34731c0.298141,0.463223 0.183471,0.998554 0.308058,1.53079 0.355165,-0.0188017 1.49422,-0.857851 1.74814,-1.04566 -0.22562,-0.520248 -0.793389,-0.245455 -1.38058,-0.914876 0.0530992,-0.0270661 1.2124,-0.327893 1.41694,-1.1531 0.191322,-0.772727 -0.378512,-1.31426 -0.784711,-1.50165 -0.740703,-0.341529 -2.6719,-0.916736 -3.57934,-1.05888 -0.628513,-0.0983471 -0.441322,0.430785 -0.515703,1.68265 -0.0588843,0.995661 -0.440496,3.26777 1.15971,3.43347 0.355372,0.0367769 0.756612,-0.132231 1.0062,-0.285537 0.466322,-0.286364 0.320868,-0.398141 0.621281,-0.68719zm-18.8012 -2.34731c0.298141,-0.463223 0.183471,-0.998554 0.307851,-1.53079 0.355372,0.0190083 1.49442,0.857851 1.74835,1.04587 -0.22562,0.520041 -0.793389,0.245248 -1.38079,0.91467 0.0533058,0.0270661 1.2126,0.327893 1.41694,1.1531 0.191529,0.772727 -0.378306,1.31426 -0.784504,1.50165 -0.740703,0.341529 -2.6719,0.916736 -3.57934,1.05888 -0.628513,0.0983471 -0.441529,-0.430785 -0.515703,-1.68265 -0.0590909,-0.995661 -0.440496,-3.26756 1.1595,-3.43327 0.355579,-0.0369835 0.756818,0.132231 1.00641,0.285331 0.466322,0.28657 0.320868,0.398141 0.621281,0.68719zm-18.6326 2.34731c0.298141,0.463223 0.183471,0.998554 0.307851,1.53079 0.355372,-0.0188017 1.49442,-0.857851 1.74835,-1.04566 -0.22562,-0.520248 -0.793389,-0.245455 -1.38079,-0.914876 0.0533058,-0.0270661 1.2126,-0.327893 1.41694,-1.1531 0.191529,-0.772727 -0.378306,-1.31426 -0.784504,-1.50165 -0.740703,-0.341529 -2.6719,-0.916736 -3.57934,-1.05888 -0.628513,-0.0983471 -0.441529,0.430785 -0.515703,1.68265 -0.0590909,0.995661 -0.440496,3.26777 1.1595,3.43347 0.355579,0.0367769 0.756818,-0.132231 1.0062,-0.285537 0.466529,-0.286364 0.321074,-0.398141 0.621488,-0.68719zm-18.7254 -2.34731c0.298347,-0.463223 0.183678,-0.998554 0.308058,-1.53079 0.355165,0.0190083 1.49442,0.857851 1.74814,1.04587 -0.22562,0.520041 -0.793389,0.245248 -1.38058,0.91467 0.0530992,0.0270661 1.2124,0.327893 1.41694,1.1531 0.191529,0.772727 -0.378306,1.31426 -0.784711,1.50165 -0.740703,0.341529 -2.6719,0.916736 -3.57934,1.05888 -0.628513,0.0983471 -0.441322,-0.430785 -0.515703,-1.68265 -0.0588843,-0.995661 -0.440289,-3.26756 1.15971,-3.43347 0.355372,-0.0367769 0.756612,0.132438 1.0062,0.285537 0.466322,0.28657 0.320868,0.398141 0.621281,0.68719zm-15.6004 1.87541c-0.377273,0.389256 -0.882025,0.346281 -1.34814,0.559504 0.0702479,0.378512 1.00475,1.47562 1.21384,1.72004 0.440083,-0.320041 0.104959,-0.888223 0.626653,-1.6188 0.0326446,0.0530992 0.480165,1.25248 1.26219,1.34835 0.732645,0.0900827 1.1405,-0.602686 1.25041,-1.06674 0.200413,-0.846075 0.435537,-3.00496 0.429132,-4 -0.00433884,-0.689463 -0.458265,-0.409504 -1.60971,-0.30186 -0.915703,0.0855372 -3.04215,0.0159091 -2.95372,1.75806 0.0196281,0.386984 0.233678,0.792356 0.410537,1.03719 0.330579,0.457851 0.410537,0.284917 0.718802,0.564256zm-5.23843 0.471901c0.298141,0.463223 0.183471,0.998554 0.307851,1.53079 0.355372,-0.0188017 1.49442,-0.857851 1.74835,-1.04566 -0.22562,-0.520248 -0.793389,-0.245455 -1.38079,-0.914876 0.0530992,-0.0270661 1.2126,-0.327893 1.41694,-1.1531 0.191529,-0.772727 -0.378306,-1.31426 -0.784504,-1.50165 -0.740909,-0.341529 -2.6719,-0.916736 -3.57934,-1.05888 -0.628513,-0.0983471 -0.441529,0.430785 -0.515703,1.68265 -0.0590909,0.995661 -0.440496,3.26777 1.1595,3.43347 0.355579,0.0367769 0.756818,-0.132231 1.0062,-0.285537 0.466529,-0.286364 0.321074,-0.398141 0.621488,-0.68719z"/>
 </g>
</svg>
