<?xml version="1.0" encoding="UTF-8"?>
<!DOCTYPE svg PUBLIC "-//W3C//DTD SVG 1.1//EN" "http://www.w3.org/Graphics/SVG/1.1/DTD/svg11.dtd">
<!-- Creator: CorelDRAW -->
<svg xmlns="http://www.w3.org/2000/svg" xml:space="preserve" width="5548in" height="7180in" style="shape-rendering:geometricPrecision; text-rendering:geometricPrecision; image-rendering:optimizeQuality; fill-rule:evenodd; clip-rule:evenodd"
viewBox="0 0 73.5196 73.156"
 xmlns:xlink="http://www.w3.org/1999/xlink">
 <defs>
  <style type="text/css">
   <![CDATA[
    .fil0 {fill:#DA251D}
   ]]>
  </style>
 </defs>
 <g id="Layer_x0020_1">
  <metadata id="CorelCorpID_0Corel-Layer"/>
  <path class="fil0" d="M33.411 6.26841c0.149644,0.432579 0.814794,1.51786 1.04939,1.90818 0.397411,0.661387 3.0926,5.29167 3.19607,5.64031l-7.93736 4.55792c0.0584683,0.21752 5.55652,10.0321 6.08794,10.6286 1.00438,-0.358336 7.3233,-4.33071 8.04866,-4.5407 0.208691,0.522452 0.800032,1.4345 1.12161,1.98373l2.29676 4.0181c0.358336,0.604076 0.926086,1.46735 1.15142,2.05392 3.87497,0.121423 9.72933,0.0124462 13.8129,0.0102754l0.801045 -0.000723618c-0.174102,-0.619851 -6.3454,-11.0284 -7.18842,-12.5267 -0.2592,-0.4608 -0.849817,-1.38949 -1.01871,-1.84407 0.361664,-0.391188 7.59104,-4.29105 8.16487,-4.8122 -0.156591,-0.466299 -0.481495,-0.888168 -0.750247,-1.34767 -0.943598,-1.61338 -4.72682,-8.40887 -5.30426,-9.18922 -0.691055,0.202902 -7.60334,4.48773 -8.36936,4.66024 -0.144724,-0.356165 -1.80774,-3.26221 -2.10298,-3.74356 -0.359638,-0.58642 -1.92627,-3.28103 -2.11658,-3.72489 -0.529399,0.135751 -7.42258,4.18787 -8.19309,4.64317 -0.581933,0.343863 -2.42123,1.28268 -2.7496,1.62525zm38.0878 56.342c-0.181773,0.410002 -0.349073,0.762838 -0.501757,1.05865 -0.150947,0.295381 -0.280764,0.520715 -0.385833,0.674991 -0.105069,0.154275 -0.182786,0.240241 -0.233729,0.256305 -0.0839397,0.0264844 -0.198995,-0.0114332 -0.346758,-0.113174 -0.146171,-0.102175 -0.291039,-0.246319 -0.430408,-0.430263 -0.0940703,-0.124752 -0.171497,-0.25645 -0.232715,-0.394951 -0.137343,0.229821 -0.255582,0.393069 -0.35573,0.490034 -0.108108,0.104635 -0.285684,0.189443 -0.529978,0.251964 -0.26166,0.626798 -0.550673,0.989185 -0.869789,1.08977 -0.179312,0.0565869 -0.362388,0.049206 -0.546187,-0.0231558 -0.185825,-0.0733748 -0.355152,-0.197258 -0.507111,-0.375413 -0.127501,-0.147473 -0.229676,-0.321431 -0.306524,-0.52115 -0.251674,0.396687 -0.505809,0.779915 -0.760812,1.15055 -0.271646,0.394806 -0.608418,0.846343 -1.01393,1.35563 -0.149644,0.443288 -0.282066,0.808715 -0.400305,1.09918 -0.117081,0.288145 -0.219835,0.530267 -0.310287,0.72521 -0.0904522,0.194798 -0.136764,0.294512 -0.139079,0.298709 -0.0289447,0.0688884 -0.0858211,0.14646 -0.175694,0.234452 -0.0881366,0.087413 -0.168169,0.143421 -0.238794,0.165708 -0.0987015,0.0311156 -0.194074,0.0214191 -0.282645,-0.0302472 -0.0885708,-0.0516663 -0.148486,-0.126778 -0.180036,-0.227071 -0.0809005,-0.25674 -0.0327075,-0.573829 0.145881,-0.948373 0.17801,-0.376137 0.47889,-0.798295 0.903943,-1.26865 0.140382,-0.449222 0.267739,-0.899891 0.385254,-1.34738 0.115345,-0.448643 0.213757,-0.854014 0.290605,-1.21814 0.0790191,-0.363111 0.144289,-0.718118 0.197982,-1.06415 -0.170774,0.26716 -0.342995,0.523899 -0.513479,0.77485 -0.172655,0.249648 -0.342416,0.491192 -0.508703,0.720868 -0.167445,0.231702 -0.270633,0.374689 -0.309274,0.430118 -0.0406673,0.0544161 -0.0746774,0.101306 -0.103188,0.142842 -0.405371,0.66486 -0.746339,1.03998 -1.02262,1.12711 -0.263252,0.0829266 -0.524623,0.0279316 -0.783244,-0.1673 -0.258187,-0.193495 -0.448209,-0.480772 -0.568908,-0.864 -0.0756904,-0.240096 -0.117226,-0.503783 -0.122291,-0.789612 -0.00521005,-0.285974 0.0282211,-0.592932 0.100728,-0.919573 0.0707698,-0.326207 0.177576,-0.652703 0.318681,-0.979344 0.139658,-0.326062 0.309998,-0.640112 0.508559,-0.939545 0.307972,-0.457037 0.676293,-0.89497 1.10482,-1.31395 0.430118,-0.419409 0.842725,-0.768337 1.24057,-1.04375 0.243136,-0.168892 0.451103,-0.297841 0.623903,-0.38757l-0.229676 0 0 -5.66708 1.42683 0 0.95778 2.55206 0 -2.55206 1.42683 0 0 5.66708 -1.49615 0 -0.888458 -2.57608 0 2.57608 -0.415501 0c0.0185246,0.020406 0.0358914,0.0428382 0.0521005,0.0672965 0.0629547,0.0904522 0.111437,0.192627 0.14675,0.304498 0.0325628,0.103622 0.0318392,0.216072 0.000434171,0.339811 -0.0486271,0.1673 -0.167445,0.363835 -0.352836,0.590472 -0.186983,0.227071 -0.381347,0.436631 -0.581355,0.6281 -0.201745,0.191903 -0.31955,0.294223 -0.354139,0.305077 -0.0196824,0.00622311 -0.0316945,0.00274975 -0.0357467,-0.0104201 -0.00940703,-0.0295236 0.0138935,-0.0875577 0.0677306,-0.175115 0.0538372,-0.087413 0.113608,-0.178589 0.182786,-0.274541 0.151381,-0.214046 0.219546,-0.411015 0.200153,-0.592932 -0.283369,0.185101 -0.558488,0.396687 -0.821451,0.635047 -0.264699,0.238939 -0.515505,0.504217 -0.75647,0.795401 -0.239373,0.290605 -0.471509,0.60972 -0.695397,0.955175 -0.250227,0.393503 -0.445893,0.782376 -0.58642,1.1685 -0.142553,0.38482 -0.233294,0.728104 -0.273238,1.03188 -0.0403779,0.302038 -0.0390754,0.524044 0.0054995,0.665439 0.0331417,0.105214 0.0966753,0.186549 0.189009,0.244293 0.0923336,0.0576 0.195232,0.068599 0.310432,0.0322734 0.134738,-0.042404 0.283948,-0.154565 0.445604,-0.335759 0.174537,-0.197837 0.359638,-0.43692 0.554581,-0.719131 0.194943,-0.281921 0.373242,-0.547923 0.535622,-0.796269 0.162235,-0.248201 0.334746,-0.521294 0.522163,-0.815517 0.171353,-0.271067 0.304209,-0.486416 0.396253,-0.647493 0.0921889,-0.161077 0.156012,-0.296828 0.191614,-0.407542 0.0762693,-0.228374 0.176997,-0.379465 0.301459,-0.449511 0.123883,-0.0714934 0.245596,-0.0810452 0.366874,-0.0288 0.121423,0.0521005 0.19914,0.137922 0.236334,0.25645 0.0124462,0.0393648 -0.00940703,0.210862 -0.0667176,0.516374 -0.0574553,0.305656 -0.151526,0.752997 -0.28279,1.34043 -0.130106,0.585407 -0.30088,1.28297 -0.509427,2.0901 0.302906,-0.30884 0.756904,-0.875143 1.3633,-1.69905 -0.0296683,-0.175405 -0.0225769,-0.377439 0.0224322,-0.605668 0.0576,-0.293065 0.161656,-0.582657 0.310432,-0.868197 0.147039,-0.284961 0.323891,-0.532438 0.530267,-0.744024 0.204784,-0.211007 0.412173,-0.350376 0.624337,-0.417383 0.151236,-0.047614 0.277001,-0.0619417 0.378742,-0.0434171 0.102175,0.0202613 0.16513,0.0709145 0.191614,0.154854 0.0202613,0.0641125 0.0073809,0.149499 -0.0402331,0.25674 0.129528,-0.0137487 0.226927,0.00260502 0.29046,0.0494955 0.0630995,0.0452985 0.120265,0.14646 0.169616,0.302762 0.0487718,0.154709 0.0736643,0.360217 0.075401,0.618114 0.00130251,0.25645 -0.0279316,0.50798 -0.0881366,0.752997l0.114621 0.0596261 0.0723618 -0.0227216c0.0542713,-0.0172221 0.103912,-0.0490613 0.148342,-0.0920442 0.0438512,-0.0444301 0.0826371,-0.0875577 0.113897,-0.131698 0.0292342,-0.0377728 0.0855316,-0.117226 0.171642,-0.236912 -0.053403,-0.283513 0.00868341,-0.606247 0.186404,-0.968056 0.201455,-0.410725 0.462247,-0.782231 0.782954,-1.11292 0.318971,-0.330259 0.575855,-0.525202 0.768193,-0.585841 0.158038,-0.0497849 0.343718,0.000144724 0.557765,0.151526 0.0798874,-0.565435 0.165274,-1.07703 0.257029,-1.53175l-0.0630995 0 -0.157749 -0.406239c-0.116213,0.17555 -0.262963,0.305801 -0.440104,0.394227 -0.177142,0.0872683 -0.386122,0.131409 -0.626942,0.131409 -0.286408,0 -0.555015,-0.0609286 -0.804084,-0.180326 -0.250516,-0.120699 -0.440104,-0.268896 -0.570211,-0.446906 -0.130106,-0.176852 -0.210283,-0.363256 -0.24357,-0.558054 -0.0318392,-0.194653 -0.0483377,-0.487429 -0.0483377,-0.87688l0 -1.68357c0,-0.541266 0.0331417,-0.934335 0.101017,-1.17935 0.0677306,-0.24603 0.261515,-0.470786 0.582657,-0.673833 0.319694,-0.20435 0.733459,-0.307103 1.24274,-0.307103 0.499586,0 0.914798,0.0884261 1.24419,0.266436 0.329391,0.176852 0.545174,0.388293 0.644888,0.632152 0.0995698,0.243714 0.149499,0.597419 0.149499,1.06213l0 0.245017 -1.70644 0 0 -0.515071c0,-0.323747 -0.0166432,-0.526938 -0.0484824,-0.609286 -0.0331417,-0.0813346 -0.109266,-0.121857 -0.231124,-0.121857 -0.106517,0 -0.177142,0.0345889 -0.215928,0.105069 -0.0373387,0.0693226 -0.0567316,0.249793 -0.0567316,0.538951l0 2.71936c0,0.254569 0.019393,0.421724 0.0567316,0.503059 0.0387859,0.0800321 0.113608,0.120699 0.227071,0.120699 0.124462,0 0.208981,-0.0454432 0.254569,-0.136185 0.0442854,-0.0920442 0.0664281,-0.268896 0.0664281,-0.533017l0 -0.671373 -0.344587 0 0 -0.861539 1.99849 0 0 3.04209 -0.267594 0c-0.0911758,0.3744 -0.181628,0.741853 -0.273238,1.10193 -0.115634,0.459497 -0.199719,0.903799 -0.252687,1.33276 -0.0516663,0.426645 -0.0277869,0.800755 0.0722171,1.11813 0.0913206,0.289592 0.230545,0.404792 0.416514,0.346179 0.111871,-0.0353125 0.23315,-0.144 0.364269,-0.324615 0.129383,-0.180036 0.305946,-0.468904 0.525781,-0.867328l0.111003 0.351968c-0.411594,1.11524 -0.805097,1.73118 -1.18022,1.84928 -0.151236,0.0477588 -0.278014,0.0244583 -0.380044,-0.0700462 -0.102609,-0.0959517 -0.189443,-0.25674 -0.261515,-0.485258 -0.0969648,-0.307682 -0.163827,-0.651835 -0.198995,-1.03318zm-0.0138935 -1.28847c-0.255582,0.187272 -0.542279,0.44763 -0.861395,0.783244 -0.317523,0.33518 -0.50494,0.55516 -0.560225,0.661242 -0.0505085,0.0864 -0.0751115,0.226203 -0.0733748,0.421001 0.00115779,0.193061 0.015196,0.335035 0.0437065,0.425487 0.0170774,0.0544161 0.047614,0.0934914 0.0901628,0.119831 0.0438512,0.0241688 0.089005,0.0298131 0.138356,0.0143276 0.0444301,-0.0140382 0.0891497,-0.0497849 0.134882,-0.105793 0.0467457,-0.0581789 0.115489,-0.161222 0.206376,-0.314629 0.0914653,-0.151815 0.152394,-0.250516 0.179891,-0.295381 0.0392201,-0.0648362 0.12837,-0.20681 0.265568,-0.425487 0.139369,-0.21752 0.236478,-0.385544 0.295091,-0.503493 0.0591919,-0.116358 0.101596,-0.239952 0.127212,-0.370926 0.026195,-0.129383 0.0301025,-0.266291 0.0137487,-0.409423zm-3.57757 1.00655c-0.215638,0.245162 -0.398713,0.461958 -0.54691,0.651545 -0.148197,0.189588 -0.267883,0.37194 -0.357467,0.546621 -0.0895839,0.174681 -0.135895,0.33764 -0.137777,0.486416 0.0328522,0.385688 0.0545608,0.592209 0.0639678,0.621877 0.0668623,0.212165 0.248056,0.270778 0.542424,0.17801 0.138211,-0.0435618 0.332864,-0.235176 0.581644,-0.57571 -0.101885,-0.134303 -0.17555,-0.270199 -0.219111,-0.40841 -0.0636784,-0.202324 -0.087413,-0.420856 -0.0699015,-0.657769 0.0175115,-0.237057 0.0646914,-0.517676 0.143132,-0.842581zm-10.0293 4.56444l0.0959517 0.304354c-0.189877,0.372663 -0.358046,0.682372 -0.504506,0.92927 -0.146894,0.245162 -0.283079,0.438223 -0.404937,0.579763 -0.123449,0.141974 -0.238794,0.228953 -0.344153,0.262094 -0.25153,0.0793085 -0.423316,-0.0292342 -0.516084,-0.323747 -0.0751115,-0.238504 -0.0843738,-0.537503 -0.027208,-0.900904 0.0577447,-0.361809 0.165274,-0.800755 0.324325,-1.31742 -0.119252,0.126199 -0.226782,0.261371 -0.322444,0.405371 -0.0950834,0.145737 -0.175984,0.290605 -0.23836,0.43692 -0.0646914,0.145013 -0.11795,0.268607 -0.15992,0.370348 -0.135317,0.299433 -0.260213,0.602774 -0.374979,0.910166 -0.1152,0.305801 -0.194798,0.506388 -0.238939,0.601616 -0.0441407,0.0952281 -0.0963859,0.153262 -0.15717,0.17251 -0.251674,0.0793085 -0.474114,-0.190601 -0.668623,-0.807268 -0.00564422,-0.0182352 -0.0112884,-0.0367598 -0.0166432,-0.0555738 -0.547489,1.13897 -1.02016,1.77113 -1.42075,1.89733 -0.144724,0.0455879 -0.279172,0.0264844 -0.402187,-0.0594814 -0.124028,-0.0837949 -0.214046,-0.214625 -0.269475,-0.390609 -0.0373387,-0.118384 -0.0573105,-0.267739 -0.0597708,-0.44763 -0.000434171,-0.179023 0.0101306,-0.4553 0.0342995,-0.826371 -0.0319839,0.053403 -0.0633889,0.103043 -0.0926231,0.153841 -0.0280764,0.0487718 -0.054995,0.0952281 -0.0785849,0.135172 -0.024603,0.0421146 -0.0503638,0.0864 -0.0778613,0.131264l-0.0176563 0.0301025 0.019393 0.0615075c-0.184378,0.499296 -0.380189,0.893813 -0.585551,1.18283 -0.205507,0.288868 -0.402042,0.462971 -0.592788,0.523031 -0.263107,0.0830713 -0.50248,0.00651256 -0.717829,-0.229387 -0.215349,-0.235899 -0.374545,-0.516663 -0.477588,-0.844028 -0.0399437,-0.126633 -0.0641125,-0.249214 -0.0756904,-0.372084 -0.00955175,-0.121857 -0.00781507,-0.225335 0.00332864,-0.310287 0.0128804,-0.0853869 0.042404,-0.221282 0.0879919,-0.409278 0.232281,-0.852566 0.538082,-1.33942 0.916245,-1.45881 0.197548,-0.0620864 0.318392,-0.0170774 0.366006,0.134159 0.0322734,0.10203 0.0205507,0.282935 -0.0387859,0.542134 -0.0581789,0.257029 -0.122581,0.449077 -0.191614,0.573974 -0.194653,0.357901 -0.318102,0.602918 -0.368756,0.734617 -0.051811,0.133869 -0.0567316,0.267449 -0.0143276,0.402331 0.0363256,0.1152 0.1097,0.198705 0.221282,0.24849 0.111437,0.0499296 0.23532,0.0523899 0.373387,0.00897286 0.151381,-0.0477588 0.299867,-0.156012 0.446038,-0.323312 0.132133,-0.149789 0.289158,-0.366729 0.47122,-0.650532l-0.0115779 -0.0367598c0.248056,-0.389306 0.499441,-1.01451 0.75401,-1.87605 -0.0503638,0.0123015 -0.0952281,0.024603 -0.136908,0.0360362 -0.0432723,0.0118673 -0.0926231,0.0273528 -0.150223,0.0454432 -0.189154,0.0596261 -0.326931,0.115779 -0.412462,0.171642 -0.0347337,0.0218533 -0.0677306,0.0431276 -0.0987015,0.0655598 -0.0292342,0.0218533 -0.0506532,0.03401 -0.0638231,0.038207 -0.0131698,0.00405226 -0.0228663,-0.00376281 -0.0286553,-0.0218533 -0.0335759,-0.106806 -0.0176563,-0.28554 0.0470352,-0.53924 0.0487718,-0.212454 0.107095,-0.377294 0.175115,-0.49452 0.0678753,-0.117226 0.164406,-0.212744 0.291473,-0.285395 0.126778,-0.0742432 0.314484,-0.149789 0.561238,-0.227505l0.207244 -0.0652703c0.0746774,-0.359927 0.15963,-0.623614 0.257897,-0.793809 0.0982673,-0.170195 0.236044,-0.284092 0.412028,-0.339521 0.177576,-0.056008 0.279316,-0.0429829 0.304209,0.0360362 0.0124462,0.0395095 -0.0238794,0.16484 -0.108253,0.379465 -0.0846633,0.213033 -0.144868,0.389306 -0.178734,0.528386 0.113753,-0.0233005 0.21448,-0.042404 0.301459,-0.0589025 0.0887155,-0.0170774 0.158617,-0.0301025 0.208402,-0.0386412 -0.0752562,0.398134 -0.195522,0.81928 -0.359927,1.2617 -0.0924784,0.021998 -0.169761,0.0409568 -0.232137,0.0551397 -0.0625206,0.0143276 -0.124896,0.0285105 -0.190601,0.0438512 -0.0639678,0.0146171 -0.14125,0.0335759 -0.233729,0.0555738 -0.0846633,0.334022 -0.152249,0.630126 -0.199429,0.887445 -0.0479035,0.255582 -0.0746774,0.486416 -0.079598,0.688595 -0.00434171,0.20406 0.0188141,0.386557 0.0706251,0.550963 0.0700462,0.222151 0.19364,0.304354 0.369624,0.24878 0.121713,-0.0383517 0.262094,-0.154854 0.418541,-0.347047 0.14921,-0.18322 0.338364,-0.448209 0.569921,-0.796993 -0.0105648,-0.0809005 -0.0183799,-0.164985 -0.0235899,-0.252253 -0.0159196,-0.262529 0.0448643,-0.637941 0.184812,-1.12334 0.296973,-1.01943 0.562251,-1.85883 0.793375,-2.51935 0.231268,-0.660663 0.435907,-1.16995 0.612615,-1.52756 0.176563,-0.357757 0.31159,-0.548502 0.404213,-0.5705 0.114911,-0.0253266 0.212744,-0.0308261 0.292631,-0.0180904 0.0800321,0.0127357 0.127501,0.0429829 0.14154,0.087413 0.0253266,0.080611 0.0130251,0.230834 -0.0406673,0.45038 -0.0521005,0.218967 -0.15167,0.568619 -0.298131,1.04505 -0.16209,0.506822 -0.27758,0.863276 -0.345889,1.0711 -0.0688884,0.206086 -0.175694,0.503783 -0.32172,0.88976 -0.14371,0.387136 -0.279172,0.731722 -0.4032,1.03839 -0.124462,0.305077 -0.271791,0.640836 -0.439236,1.00467l0.182641 0.578894c0.279461,-0.616088 0.529399,-1.12523 0.747642,-1.52857 0.217809,-0.404937 0.41333,-0.71971 0.582802,-0.9449 0.167879,-0.224756 0.304643,-0.352836 0.40841,-0.385544 0.0953728,-0.0299578 0.203915,-0.00101306 0.323602,0.0861105 0.119686,0.0869789 0.19089,0.169471 0.213757,0.241833 0.0102754,0.0328522 0.00622311,0.0775718 -0.00940703,0.136764 -0.144868,0.349507 -0.257029,0.63606 -0.336482,0.860092 -0.0790191,0.225624 -0.133435,0.419988 -0.16238,0.58642 -0.0288,0.166432 -0.026195,0.30117 0.00593367,0.4032 0.0477588,0.151381 0.144,0.204205 0.288723,0.158472 0.154565,-0.0486271 0.431421,-0.363835 0.830279,-0.94519zm-7.03588 -0.14921c-0.080611,0.0253266 -0.165998,0.0179457 -0.257608,-0.0201166 -0.09161,-0.0380623 -0.152104,-0.103912 -0.181194,-0.1961 -0.0445749,-0.141395 -0.0269186,-0.320563 0.0529688,-0.537503 0.0804663,-0.215204 0.192772,-0.346323 0.337495,-0.392056 0.0971095,-0.0305367 0.185391,-0.0257608 0.268173,0.0131698 0.0827819,0.0389306 0.143276,0.115779 0.178444,0.22765 0.0435618,0.138211 0.0260502,0.311879 -0.0526794,0.52115 -0.0793085,0.207534 -0.194219,0.336048 -0.3456,0.383807zm-7.72766 5.61281c-0.0234452,-0.0739537 -0.0396543,-0.182786 -0.0503638,-0.325917 -0.00911758,-0.143566 0.00101306,-0.260647 0.0319839,-0.351823 0.076414,-0.239228 0.148197,-0.458918 0.211586,-0.659795 0.0638231,-0.19914 0.12287,-0.373242 0.173813,-0.521294 0.0531135,-0.146894 0.110424,-0.280764 0.171208,-0.403055 0.362243,-0.76689 0.615509,-1.33493 0.759509,-1.70398 0.145737,-0.369624 0.199863,-0.610878 0.163103,-0.72767 -0.0238794,-0.0756904 -0.0777165,-0.12562 -0.161801,-0.146171 -0.084808,-0.021998 -0.185246,-0.0138935 -0.300446,0.0224322 -0.238504,0.0751115 -0.511453,0.253411 -0.81653,0.535767 -0.307393,0.281343 -0.657334,0.634034 -1.05257,1.05518 -0.395385,0.421146 -0.620864,0.640546 -0.675135,0.657624 -0.0872683,0.0274975 -0.149644,-0.0215638 -0.189009,-0.146605 -0.0337206,-0.106951 -0.0486271,-0.268607 -0.0428382,-0.485548 -0.0159196,-0.228229 -0.0248925,-0.406239 -0.0305367,-0.532872 -0.00390754,-0.127212 0.0172221,-0.249503 0.0632442,-0.367164 0.0445749,-0.117081 0.139514,-0.257318 0.279751,-0.420856 0.14125,-0.165708 0.362098,-0.399871 0.666018,-0.703646l0.103767 0.162669c0.264265,-0.217085 0.519702,-0.398858 0.767614,-0.547634 0.247911,-0.148631 0.467747,-0.254135 0.6569,-0.313761 0.371795,-0.117081 0.6569,-0.136474 0.853001,-0.0590472 0.196245,0.0774271 0.360072,0.327799 0.493797,0.752128 0.0730854,0.231847 0.0992804,0.435184 0.080611,0.611168 -0.0192482,0.174102 -0.0829266,0.431131 -0.191614,0.769206 -0.242557,0.790625 -0.436631,1.34549 -0.58092,1.66765 -0.418251,0.950978 -0.606971,1.48776 -0.567027,1.61454 0.0222874,0.0706251 0.0791638,0.0907417 0.172945,0.0612181 0.0772824,-0.0244583 0.168748,-0.113029 0.275409,-0.267739 0.107385,-0.153118 0.228663,-0.364993 0.362822,-0.63331 0.134303,-0.268317 0.318247,-0.648217 0.549515,-1.14245 0.249069,-0.52332 0.453998,-0.980357 0.614351,-1.37256 0.160643,-0.390609 0.291039,-0.722894 0.387714,-0.995698 0.0982673,-0.273238 0.148052,-0.419119 0.152828,-0.438657 0.107964,-0.265568 0.230689,-0.495968 0.373531,-0.691055 0.141105,-0.194508 0.237781,-0.30088 0.288868,-0.317089 0.0377728,-0.0118673 0.0952281,0.0098412 0.168458,0.064402 0.0733748,0.0547055 0.14371,0.123015 0.21202,0.208112 0.0668623,0.0855316 0.107819,0.152249 0.124318,0.204929 0.00463115,0.0147618 -0.00824924,0.105648 -0.0415357,0.269909 -0.0331417,0.164117 -0.0714934,0.335324 -0.113174,0.513045 -0.0437065,0.176418 -0.115924,0.452406 -0.217954,0.822753 -0.222295,0.815083 -0.378452,1.48993 -0.462971,2.02468 -0.0868341,0.53374 -0.106517,0.872683 -0.0609286,1.01726 0.0160643,0.0510874 0.049206,0.0930572 0.100583,0.123883 0.0500743,0.032997 0.0946492,0.0425487 0.134159,0.0301025 0.0509427,-0.0160643 0.130106,-0.0862552 0.239083,-0.211007 0.108977,-0.124752 0.221716,-0.288723 0.337495,-0.495244 0.150657,-0.273528 0.279172,-0.548936 0.385109,-0.826516 0.107674,-0.278014 0.204205,-0.579763 0.290894,-0.907272 0.0882814,-0.327944 0.161511,-0.634902 0.219111,-0.922468 0.0581789,-0.285974 0.113319,-0.587288 0.166432,-0.900615l-0.159485 -0.219111c-0.0251819,-0.0337206 -0.0477588,-0.0826371 -0.067007,-0.143421 -0.0150512,-0.0477588 0.0311156,-0.234018 0.136908,-0.558488 0.105069,-0.326062 0.188575,-0.497125 0.249503,-0.516229 0.0690331,-0.0218533 0.140527,0.0098412 0.218822,0.0918995 0.0771377,0.0840844 0.131264,0.17555 0.16238,0.274251 0.0347337,0.110279 0.0538372,0.34285 0.0594814,0.699159 0.00448643,0.35848 -0.024603,0.799742 -0.0856763,1.329 -0.0615075,0.527517 -0.168169,1.07819 -0.323312,1.65332 -0.131409,0.500743 -0.300157,0.946347 -0.507401,1.33898 -0.207099,0.39249 -0.407397,0.698002 -0.603497,0.918995 -0.194653,0.220414 -0.349363,0.348784 -0.466155,0.385544 -0.131554,0.0415357 -0.288,0.0274975 -0.469483,-0.0437065 -0.151091,-0.0662834 -0.263976,-0.131988 -0.338798,-0.196969 -0.0768482,-0.0661387 -0.137777,-0.144579 -0.18322,-0.237057 -0.0470352,-0.0918995 -0.0904522,-0.201021 -0.130975,-0.329391 -0.0859658,-0.273093 -0.111003,-0.615943 -0.0752562,-1.03043 0.0341548,-0.414054 0.115779,-0.940703 0.243136,-1.5811 -0.577736,1.43161 -1.04071,2.48707 -1.38949,3.16481 -0.349797,0.679767 -0.643441,1.05634 -0.880209,1.13087 -0.157893,0.0497849 -0.320707,-0.00188141 -0.488442,-0.155144 -0.169327,-0.152828 -0.295091,-0.362677 -0.378018,-0.625929zm20.6108 -18.733l0 5.66708 -1.70788 0 0 -5.66708 1.70788 0zm-2.39286 0l0 5.66708 -1.70644 0 0 -2.38012 -0.510729 0 0 2.38012 -1.70774 0 0 -5.66708 1.70774 0 0 2.02642 0.510729 0 0 -2.02642 1.70644 0zm-4.31522 0l0 1.13391 -1.01306 0 0 4.53318 -1.70629 0 0 -4.53318 -1.01032 0 0 -1.13391 3.72967 0zm-4.07426 3.31808c0,0.569921 -0.015196,0.972542 -0.0457326,1.20902 -0.0318392,0.237781 -0.128659,0.454143 -0.292052,0.650098 -0.163248,0.195956 -0.384675,0.346468 -0.662834,0.451537 -0.278159,0.105214 -0.603352,0.157749 -0.972976,0.157749 -0.351389,0 -0.667031,-0.0502191 -0.946637,-0.149355 -0.280908,-0.0991356 -0.505085,-0.247333 -0.67528,-0.445604 -0.170195,-0.198416 -0.271212,-0.414633 -0.304498,-0.647638 -0.0318392,-0.234163 -0.0484824,-0.642862 -0.0484824,-1.22581l0 -0.969069c0,-0.569921 0.0153407,-0.972542 0.0470352,-1.21032 0.0305367,-0.236623 0.127357,-0.45284 0.292052,-0.648796 0.163393,-0.195956 0.383373,-0.346468 0.662979,-0.451682 0.278159,-0.105214 0.60205,-0.157749 0.972832,-0.157749 0.351534,0 0.667176,0.0502191 0.946637,0.149355 0.279606,0.0991356 0.50523,0.247333 0.675425,0.445749 0.170195,0.198271 0.271212,0.414488 0.303051,0.647493 0.0332864,0.234163 0.0484824,0.641704 0.0484824,1.22595l0 0.969069zm-1.70644 -1.86158c0,-0.26412 -0.0166432,-0.432579 -0.0512321,-0.506677 -0.0331417,-0.0727959 -0.102464,-0.109845 -0.207534,-0.109845 -0.0900181,0 -0.157893,0.0298131 -0.204784,0.0895839 -0.0484824,0.0584683 -0.0720723,0.234163 -0.0720723,0.526938l0 2.64526c0,0.329825 0.0166432,0.533017 0.0470352,0.609431 0.0305367,0.0777165 0.103912,0.115924 0.217375,0.115924 0.116213,0 0.189588,-0.0442854 0.22273,-0.132711 0.0318392,-0.0895839 0.0484824,-0.299867 0.0484824,-0.634468l0 -2.60343zm-2.87855 -1.4565l0 5.66708 -1.49615 0 -0.888458 -2.57608 0 2.57608 -1.42683 0 0 -5.66708 1.42683 0 0.95778 2.55206 0 -2.55206 1.42683 0zm-5.95378 1.71454l-1.58458 0 0 -0.419409c0,-0.195956 -0.0208402,-0.321431 -0.0609286,-0.375123 -0.0400884,-0.0538372 -0.107964,-0.0800321 -0.203481,-0.0800321 -0.102464,0 -0.179891,0.0357467 -0.232426,0.108687 -0.0526794,0.0716382 -0.0788743,0.181628 -0.0788743,0.328522 0,0.188864 0.0289447,0.332141 0.0885708,0.427803 0.0567316,0.0955175 0.218533,0.210283 0.482942,0.346468 0.759799,0.389596 1.23724,0.708567 1.43508,0.958215 0.197982,0.249793 0.296249,0.652414 0.296249,1.20801 0,0.403923 -0.0554291,0.70133 -0.164695,0.89251 -0.109411,0.19118 -0.321142,0.352547 -0.633889,0.481495 -0.31405,0.129093 -0.678175,0.194798 -1.09469,0.194798 -0.456748,0 -0.846922,-0.0752562 -1.16937,-0.224611 -0.323891,-0.149355 -0.535622,-0.339232 -0.635336,-0.569921 -0.0995698,-0.231847 -0.149355,-0.559212 -0.149355,-0.984554l0 -0.370348 1.58458 0 0 0.689318c0,0.212744 0.0221427,0.348928 0.0664281,0.409857 0.0457326,0.0597708 0.124607,0.0908864 0.23807,0.0908864 0.113463,0 0.197837,-0.038207 0.253266,-0.115924 0.0552844,-0.076414 0.0830713,-0.19118 0.0830713,-0.342995 0,-0.333298 -0.0526794,-0.551976 -0.157893,-0.654729 -0.107964,-0.102754 -0.374979,-0.273528 -0.79844,-0.513769 -0.424908,-0.243714 -0.705817,-0.419409 -0.844317,-0.529254 -0.136908,-0.10999 -0.251819,-0.26166 -0.341837,-0.4553 -0.0913206,-0.193495 -0.135606,-0.440828 -0.135606,-0.741998 0,-0.433736 0.0636784,-0.751549 0.192338,-0.952281 0.127357,-0.200732 0.335035,-0.357178 0.621443,-0.470641 0.286408,-0.112305 0.632442,-0.169761 1.03796,-0.169761 0.444301,0 0.82203,0.0622311 1.13347,0.185246 0.312748,0.124173 0.518979,0.279606 0.621443,0.468325 0.101017,0.187562 0.150802,0.506677 0.150802,0.957057l0 0.223453zm-4.30133 -1.71454l0 5.66708 -1.70774 0 0 -5.66708 1.70774 0zm-6.62212 0l2.84671 0 0 1.13391 -1.13897 0 0 1.07414 1.0656 0 0 1.07891 -1.0656 0 0 1.24621 1.25244 0 0 1.13391 -2.96018 0 0 -5.66708zm-1.45042 0l0 4.53318 1.03796 0 0 1.13391 -2.74584 0 0 -5.66708 1.70788 0zm-6.29287 0l1.70369 0c0.536924,0 0.94519,0.0358914 1.22205,0.108687 0.276711,0.0716382 0.501033,0.218677 0.671228,0.438512 0.170195,0.220993 0.254569,0.575855 0.254569,1.06574 0,0.332141 -0.0594814,0.56283 -0.179891,0.693081 -0.12041,0.131409 -0.357033,0.231702 -0.711316,0.301025 0.394372,0.0777165 0.661531,0.205507 0.802637,0.383517 0.139803,0.179312 0.210428,0.45284 0.210428,0.820872l0 0.525781c0,0.38236 -0.0497849,0.665439 -0.152249,0.850685 -0.101017,0.183944 -0.262963,0.309419 -0.48439,0.377584 -0.221427,0.0681648 -0.675425,0.101596 -1.36185,0.101596l-1.9749 0 0 -5.66708zm1.70788 0.968924l0 1.26054c0.0719276,-0.00231558 0.128659,-0.00347337 0.170195,-0.00347337 0.167445,0 0.273962,-0.0358914 0.319694,-0.106372 0.0455879,-0.0717829 0.0691779,-0.27483 0.0691779,-0.610589 0,-0.17801 -0.019393,-0.302328 -0.0567316,-0.372808 -0.0387859,-0.0716382 -0.0871236,-0.117081 -0.148052,-0.135027 -0.0609286,-0.0191035 -0.180036,-0.0298131 -0.354283,-0.0322734zm0 2.14234l0 1.58559c0.239373,-0.00593367 0.393069,-0.0395095 0.459353,-0.0979778 0.0664281,-0.0574553 0.0997145,-0.201889 0.0997145,-0.430118l0 -0.528096c0,-0.242557 -0.0303919,-0.389596 -0.0900181,-0.440973 -0.0594814,-0.0513769 -0.215783,-0.0811899 -0.469049,-0.0884261zm-2.39286 -3.11127l0 5.66708 -1.70788 0 0 -5.66708 1.70788 0zm-2.38606 1.71454l-1.58458 0 0 -0.419409c0,-0.195956 -0.0206955,-0.321431 -0.0607839,-0.375123 -0.0402331,-0.0538372 -0.107964,-0.0800321 -0.203481,-0.0800321 -0.102464,0 -0.179891,0.0357467 -0.232571,0.108687 -0.0525346,0.0716382 -0.0788743,0.181628 -0.0788743,0.328522 0,0.188864 0.0290894,0.332141 0.0885708,0.427803 0.0567316,0.0955175 0.218677,0.210283 0.483087,0.346468 0.759799,0.389596 1.23724,0.708567 1.43508,0.958215 0.197982,0.249793 0.296249,0.652414 0.296249,1.20801 0,0.403923 -0.0554291,0.70133 -0.164695,0.89251 -0.109411,0.19118 -0.321142,0.352547 -0.633889,0.481495 -0.314195,0.129093 -0.678175,0.194798 -1.09469,0.194798 -0.456748,0 -0.847067,-0.0752562 -1.16951,-0.224611 -0.323747,-0.149355 -0.535477,-0.339232 -0.635192,-0.569921 -0.0995698,-0.231847 -0.149499,-0.559212 -0.149499,-0.984554l0 -0.370348 1.58472 0 0 0.689318c0,0.212744 0.0221427,0.348928 0.0664281,0.409857 0.0455879,0.0597708 0.124462,0.0908864 0.237926,0.0908864 0.113463,0 0.197982,-0.038207 0.253266,-0.115924 0.0554291,-0.076414 0.0830713,-0.19118 0.0830713,-0.342995 0,-0.333298 -0.0525346,-0.551976 -0.157749,-0.654729 -0.107964,-0.102754 -0.374979,-0.273528 -0.798585,-0.513769 -0.424764,-0.243714 -0.705817,-0.419409 -0.844172,-0.529254 -0.137053,-0.10999 -0.251819,-0.26166 -0.341837,-0.4553 -0.0913206,-0.193495 -0.135606,-0.440828 -0.135606,-0.741998 0,-0.433736 0.0636784,-0.751549 0.192338,-0.952281 0.127357,-0.200732 0.33489,-0.357178 0.621443,-0.470641 0.286408,-0.112305 0.632442,-0.169761 1.03796,-0.169761 0.444157,0 0.82203,0.0622311 1.13347,0.185246 0.312748,0.124173 0.518979,0.279606 0.621298,0.468325 0.101017,0.187562 0.150802,0.506677 0.150802,0.957057l0 0.223453zm-4.2527 1.60354c0,0.569921 -0.0153407,0.972542 -0.0457326,1.20902 -0.0318392,0.237781 -0.128659,0.454143 -0.292052,0.650098 -0.163248,0.195956 -0.384675,0.346468 -0.662834,0.451537 -0.278159,0.105214 -0.603497,0.157749 -0.972976,0.157749 -0.351534,0 -0.667031,-0.0502191 -0.946637,-0.149355 -0.280908,-0.0991356 -0.505085,-0.247333 -0.67528,-0.445604 -0.17034,-0.198416 -0.271357,-0.414633 -0.304498,-0.647638 -0.0318392,-0.234163 -0.0484824,-0.642862 -0.0484824,-1.22581l0 -0.969069c0,-0.569921 0.015196,-0.972542 0.0470352,-1.21032 0.0305367,-0.236623 0.127357,-0.45284 0.292052,-0.648796 0.163393,-0.195956 0.383373,-0.346468 0.662834,-0.451682 0.278303,-0.105214 0.60205,-0.157749 0.972976,-0.157749 0.351534,0 0.667031,0.0502191 0.946637,0.149355 0.279606,0.0991356 0.505085,0.247333 0.675425,0.445749 0.170195,0.198271 0.271212,0.414488 0.303051,0.647493 0.0331417,0.234163 0.0484824,0.641704 0.0484824,1.22595l0 0.969069zm-1.70644 -1.86158c0,-0.26412 -0.0166432,-0.432579 -0.0512321,-0.506677 -0.0332864,-0.0727959 -0.102464,-0.109845 -0.207678,-0.109845 -0.0898733,0 -0.157749,0.0298131 -0.204784,0.0895839 -0.0484824,0.0584683 -0.0719276,0.234163 -0.0719276,0.526938l0 2.64526c0,0.329825 0.0166432,0.533017 0.0470352,0.609431 0.0303919,0.0777165 0.103767,0.115924 0.21723,0.115924 0.116358,0 0.189733,-0.0442854 0.222874,-0.132711 0.0318392,-0.0895839 0.0484824,-0.299867 0.0484824,-0.634468l0 -2.60343zm-6.36205 -1.4565l1.71888 0c0.464997,0 0.823477,0.0309708 1.07255,0.0943598 0.250516,0.0633889 0.438657,0.154131 0.563264,0.27237 0.125909,0.119542 0.211731,0.26412 0.256016,0.432579 0.0442854,0.169616 0.0664281,0.431276 0.0664281,0.786138l0 0.493507c0,0.362098 -0.0428382,0.626074 -0.128659,0.791059 -0.0872683,0.165998 -0.246319,0.292631 -0.477443,0.382215 -0.231124,0.0884261 -0.532872,0.132711 -0.905101,0.132711l-0.458195 0 0 2.28215 -1.70774 0 0 -5.66708zm1.70774 0.968924l0 1.44217c0.0484824,0.0024603 0.0900181,0.00361809 0.124607,0.00361809 0.157749,0 0.265712,-0.0334311 0.326641,-0.0991356 0.0609286,-0.067007 0.0913206,-0.205507 0.0913206,-0.414633l0 -0.46601c0,-0.193495 -0.0345889,-0.320129 -0.105214,-0.377584 -0.0704804,-0.0584683 -0.215783,-0.0884261 -0.437355,-0.0884261zm-2.39271 -0.968924l0 5.66708 -1.49196 0 0 -3.82591 -0.59655 3.82591 -1.05865 0 -0.628245 -3.73864 0 3.73864 -1.49196 0 0 -5.66708 2.21022 0c0.0649809,0.340535 0.132856,0.741998 0.206086,1.20439l0.23532 1.44217 0.388872 -2.64656 2.22686 0zm-5.95248 0l0 5.66708 -1.70774 0 0 -5.66708 1.70774 0zm16.8931 -21.211c0.095807,0.141684 -0.157025,0.194364 0.595972,0.192772l5.39443 -0.00607839 -0.00347337 6.14438c-0.336772,-0.211007 -0.0603497,-0.160064 -0.582078,-0.490758 -0.0241688,-0.0153407 -0.0968201,-0.0630995 -0.118529,-0.0758351l-0.131843 -0.0691779c-0.54966,-0.123304 -3.52547,-2.2108 -6.74976,0.310287 -1.52379,1.19165 -2.73528,3.32169 -2.47173,6.31776 0.404213,4.59541 4.95114,7.40319 8.82177,5.31541 0.533596,-0.28771 0.874709,-0.66486 1.28312,-0.911903l0.0215638 1.2947 3.21909 0.00998593 0.00463115 -17.9065 16.0384 -0.00940703c-0.128225,-0.395385 -1.07602,-1.88994 -1.35128,-2.36391l-1.38587 -2.30154c-1.23391,0.542279 -5.66057,3.42459 -6.47073,3.62735 -0.335035,-0.747063 -3.50492,-6.15553 -3.93981,-6.89174 -0.662979,-1.12219 -1.27632,-2.21123 -1.96491,-3.40969 -0.338364,-0.58888 -0.645756,-1.16546 -0.979055,-1.74537 -0.253121,-0.440394 -0.791638,-1.15605 -0.915666,-1.69529 0.76689,-0.334746 5.31642,-3.04296 6.36552,-3.60333 -0.182207,-0.612325 -1.11538,-2.12613 -1.44752,-2.66335 -0.450235,0.0929125 -8.32392,4.7491 -9.5875,5.47214 -0.421146,0.240965 -1.02218,0.512177 -1.34796,0.826371 0.20435,0.597708 0.688739,1.22827 1.05286,1.87533 0.365861,0.649953 0.732446,1.30975 1.09237,1.92135 0.501757,0.853001 1.78647,3.00895 2.15884,3.75167 -0.539964,0.474404 -6.64527,3.73503 -7.9323,4.65923 0.177865,0.265134 1.29079,2.18431 1.33146,2.42513zm51.7883 -0.0950834c-2.83832,0.805531 -1.47531,4.71871 1.12132,3.9909 0.896562,-0.251385 1.73654,-1.37516 1.3756,-2.58737 -0.268896,-0.903075 -1.27776,-1.74942 -2.49692,-1.40353zm2.09516 5.21294l-3.19115 0.00578894 0.00448643 12.8717 3.18377 -0.00376281 0.00289447 -12.8737zm-64.3959 -8.52234c0.418251,1.09107 1.55592,2.43714 1.93264,3.50593 1.12942,0.050798 4.8549,0.0494955 5.95957,-0.00217085 -0.212888,-0.627232 -1.67836,-2.72587 -1.86563,-3.40896 0.802058,-0.368466 6.18592,-3.53068 6.33252,-3.68032 -0.167011,-0.516663 -1.23927,-2.26434 -1.4442,-2.71487 -0.512756,0.16513 -8.24186,4.73926 -9.5739,5.49877 -0.364993,0.207968 -0.969937,0.491915 -1.34101,0.801624zm42.8622 13.6344c0.287421,0.140237 0.205797,6.94138 0.161222,7.76529l3.15396 -0.00202613c-0.16759,-2.78246 0.0979778,-6.55323 -0.051811,-9.60053 -0.251964,-1.82916 -1.49499,-3.07538 -3.13471,-3.46801 -1.69587,-0.40595 -3.23486,0.129238 -4.51566,1.10178 -0.255871,0.194219 -0.186693,0.190601 -0.506967,0.317668l-0.00810452 -1.26156 -3.22487 0.0315497 0.00231558 12.9159 3.22849 -0.045009c0.00969648,-1.97692 -0.260068,-6.92213 0.365427,-8.41741 1.18398,-2.8305 4.81191,-2.11933 4.53072,0.6624zm-16.0323 -2.37318c2.19314,-0.281921 3.7783,1.28543 3.93344,3.2654 0.175694,2.24394 -1.1313,4.01362 -3.0528,4.20827 -4.93088,0.499441 -5.34826,-6.89912 -0.880643,-7.47367zm-6.28404 4.49613c0.3977,3.54558 3.42387,6.36451 7.5524,5.93222 3.44775,-0.360941 6.36248,-3.4971 5.92368,-7.52534 -0.37686,-3.45933 -3.51953,-6.29547 -7.51839,-5.93627 -3.41982,0.307248 -6.40532,3.53864 -5.95769,7.52939zm-22.2912 -4.48383c2.30646,-0.581499 4.01637,0.983975 4.32752,2.84888 0.383662,2.29966 -0.828977,4.09814 -2.60198,4.54128 -4.7135,1.17805 -6.16045,-6.27232 -1.72554,-7.39016zm4.25154 -1.45433c-0.519268,-0.181194 -1.1808,-1.24535 -3.15512,-1.55491 -1.38153,-0.216506 -2.84961,0.105793 -3.82635,0.676872 -5.80341,3.39377 -3.15859,13.8788 3.95529,12.7209 1.65766,-0.269909 2.21774,-1.08818 3.02053,-1.53002l0.00564422 1.3057 3.22068 -0.0279316 -0.0102754 -12.9242 -3.20809 0.00448643 -0.00231558 1.32914zm54.5915 5.08891c-0.0073809,3.77396 -4.05704,4.98515 -6.04004,2.79751 -2.06115,-2.27375 -0.957057,-6.52862 2.51443,-6.52689 2.12266,0.00101306 3.52966,1.63943 3.52561,3.72938zm-0.130685 -5.07444c-0.64127,-0.307538 -1.18731,-1.22349 -3.0871,-1.55824 -3.66469,-0.645756 -7.06902,2.15508 -7.06338,6.72704 0.00521005,4.24865 3.38523,7.30811 7.15933,6.64846 1.58197,-0.276567 2.03467,-0.90843 2.98348,-1.5264l0.00767035 1.31105 3.22024 -0.0150512 -0.0125909 -12.9373 -3.2065 0.0149065 -0.00115779 1.33551zm-47.2347 6.01804c-0.428816,-2.31312 0.843738,-4.22028 2.63527,-4.59946 2.27491,-0.481351 4.00059,1.07095 4.29597,2.91242 0.845764,5.27344 -6.09518,6.19634 -6.93125,1.68704z"/>
 </g>
</svg>
