<?xml version="1.0" encoding="UTF-8"?>
<!DOCTYPE svg PUBLIC "-//W3C//DTD SVG 1.1//EN" "http://www.w3.org/Graphics/SVG/1.1/DTD/svg11.dtd">
<!-- Creator: CorelDRAW -->
<svg xmlns="http://www.w3.org/2000/svg" xml:space="preserve" width="1.98819in" height="1.98819in" style="shape-rendering:geometricPrecision; text-rendering:geometricPrecision; image-rendering:optimizeQuality; fill-rule:evenodd; clip-rule:evenodd"
viewBox="0 0 0.637353 0.637353"
 xmlns:xlink="http://www.w3.org/1999/xlink">
 <defs>
  <style type="text/css">
   <![CDATA[
    .fil1 {fill:#0A0B0C}
    .fil0 {fill:#7F7F7F;fill-rule:nonzero}
   ]]>
  </style>
 </defs>
 <g id="Layer_x0020_1">
  <metadata id="CorelCorpID_0Corel-Layer"/>
  <path class="fil0" d="M0.129364 0l0.378626 0 8.8346e-006 0 0 1.26209e-005c0.0356337,2.52417e-006 0.0679759,0.0145279 0.0913977,0.0379509 0.0234193,0.0234205 0.0379396,0.0557552 0.0379446,0.0913813l1.26209e-005 0 0 1.89313e-005 0 0.378626 0 8.8346e-006 -1.26209e-005 0c-2.52417e-006,0.0356337 -0.0145279,0.0679759 -0.0379509,0.0913977 -0.0234205,0.0234193 -0.0557552,0.0379396 -0.0913813,0.0379446l0 1.26209e-005 -1.89313e-005 0 -0.378626 0 -8.8346e-006 0 0 -1.26209e-005c-0.0356337,-2.52417e-006 -0.0679759,-0.0145279 -0.0913977,-0.0379509 -0.0234193,-0.0234205 -0.0379396,-0.0557552 -0.0379446,-0.0913813l-1.26209e-005 0 0 -1.89313e-005 0 -0.378626 0 -8.8346e-006 1.26209e-005 0c2.52417e-006,-0.0356337 0.0145279,-0.0679759 0.0379509,-0.0913977 0.0234205,-0.0234193 0.0557552,-0.0379396 0.0913813,-0.0379446l0 -1.26209e-005 1.89313e-005 0zm0.378626 0.00631043l-0.378626 0 -1.89313e-005 0 0 -1.26209e-005c-0.0338655,3.78626e-006 -0.0646226,0.0138274 -0.0869186,0.0361222 -0.0222985,0.0222973 -0.0361272,0.0530619 -0.0361285,0.086935l1.26209e-005 0 0 8.8346e-006 0 0.378626 0 1.89313e-005 -1.26209e-005 0c3.78626e-006,0.0338655 0.0138274,0.0646226 0.0361222,0.0869186 0.0222973,0.0222985 0.0530619,0.0361272 0.086935,0.0361285l0 -1.26209e-005 8.8346e-006 0 0.378626 0 1.89313e-005 0 0 1.26209e-005c0.0338655,-3.78626e-006 0.0646226,-0.0138274 0.0869186,-0.0361222 0.0222985,-0.0222973 0.0361272,-0.0530619 0.0361285,-0.086935l-1.26209e-005 0 0 -8.8346e-006 0 -0.378626 0 -1.89313e-005 1.26209e-005 0c-3.78626e-006,-0.0338655 -0.0138274,-0.0646226 -0.0361222,-0.0869186 -0.0222973,-0.0222985 -0.0530619,-0.0361272 -0.086935,-0.0361285l0 1.26209e-005 -8.8346e-006 0z"/>
  <path class="fil1" d="M0.188631 0.374427c-0.00294445,-0.0155716 0.00579297,-0.0284096 0.0180958,-0.0309615 0.0156208,-0.00324104 0.0274706,0.00720777 0.0294987,0.019604 0.00580812,0.0354999 -0.0418533,0.0417119 -0.0475945,0.0113575l0 0zm0.324345 -0.0405117c-0.00440342,-0.00206982 -0.00815181,-0.00823511 -0.021198,-0.0104892 -0.0251647,-0.00434662 -0.0485411,0.0145077 -0.048502,0.0452836 3.53384e-005,0.0286001 0.0232451,0.0491948 0.0491608,0.0447548 0.0108628,-0.00186158 0.0139713,-0.00611481 0.0204862,-0.0102746l5.30076e-005 0.0088245 0.022113 -0.000100967 -8.70839e-005 -0.0870877 -0.0220183 0.000100967 -7.57251e-006 0.00898857 0 0zm0.000897343 0.0341596c-5.04834e-005,0.0254045 -0.027858,0.0335576 -0.0414747,0.0188316 -0.014153,-0.0153053 -0.00657168,-0.0439484 0.0172653,-0.0439357 0.0145758,6.31043e-006 0.0242384,0.0110357 0.0242093,0.0251041l0 0zm-0.374862 -0.0342568c-0.00356539,-0.00121917 -0.00810764,-0.00838277 -0.021665,-0.0104665 -0.00948584,-0.00145771 -0.0195674,0.000711816 -0.0262741,0.00455613 -0.0398504,0.0228463 -0.0216902,0.0934272 0.0271588,0.0856325 0.011384,-0.0018174 0.0152296,-0.00732515 0.0207424,-0.0102999l3.78626e-005 0.00878917 0.0221155 -0.000188051 -7.06768e-005 -0.0870006 -0.0220297 3.02901e-005 -1.5145e-005 0.00894819 0 -1.26209e-006zm-0.0291933 0.00979c0.0158379,-0.00391373 0.0275778,0.00662343 0.0297145,0.0191774 0.00263524,0.0154807 -0.00569201,0.0275867 -0.0178661,0.0305702 -0.0323662,0.00793095 -0.0423013,-0.0422231 -0.0118485,-0.0497476l0 0zm0.153066 0.0301828c0.00273115,0.0238686 0.0235114,0.042844 0.0518604,0.0399337 0.0236742,-0.00242952 0.0436884,-0.0235417 0.0406758,-0.0506563 -0.00258854,-0.023288 -0.0241677,-0.0423796 -0.0516269,-0.0399614 -0.0234824,0.00206856 -0.0439837,0.0238206 -0.0409092,0.0506854l0 -1.26209e-006zm0.0431507 -0.0302648c0.0150592,-0.00189818 0.0259434,0.0086516 0.0270086,0.0219817 0.00120782,0.0151046 -0.00776814,0.0270162 -0.020962,0.0283275 -0.0338592,0.0033622 -0.0367254,-0.0464422 -0.00604665,-0.0503093zm0.110088 0.0159742c0.0019739,0.00094404 0.00141354,0.0467275 0.00110685,0.0522731l0.0216574 -1.38829e-005c-0.00115102,-0.0187306 0.000672692,-0.0441137 -0.000355908,-0.0646264 -0.00172906,-0.0123142 -0.0102658,-0.0207033 -0.0215249,-0.0233461 -0.011644,-0.00273242 -0.0222127,0.000869577 -0.0310082,0.00741728 -0.00175682,0.00130752 -0.00128102,0.00128228 -0.00348083,0.00213797l-5.55318e-005 -0.00849131 -0.0221446 0.00021203 1.64071e-005 0.0869438 0.0221685 -0.000302901c6.68905e-005,-0.0133074 -0.00178459,-0.0465975 0.00250903,-0.0566626 0.00813036,-0.0190537 0.0330427,-0.0142666 0.0311117,0.00445895l0 0zm-0.29432 -0.0917801c0.00287125,0.00734408 0.0106836,0.0164059 0.0132708,0.0235997 0.00775426,0.000342025 0.0333367,0.000333191 0.0409219,-1.5145e-005 -0.00146276,-0.00422168 -0.0115254,-0.0183482 -0.0128114,-0.0229472 0.00550774,-0.00248 0.0424768,-0.0237663 0.0434839,-0.0247735 -0.00114724,-0.00347831 -0.00850898,-0.0152435 -0.00991621,-0.018275 -0.00352122,0.00111064 -0.0565945,0.0319017 -0.0657408,0.0370145 -0.0025065,0.00139965 -0.00666129,0.00331045 -0.00920818,0.00539542l0 1.26209e-006zm0.442183 0.0573694l-0.0219123 3.78626e-005 3.02901e-005 0.0866472 0.0218631 -2.65038e-005 1.89313e-005 -0.0866586 0 0zm-0.0143865 -0.0350923c-0.0194904,0.00542192 -0.0101308,0.0317642 0.00769872,0.0268648 0.00615772,-0.00169246 0.0119254,-0.00925614 0.00944671,-0.0174168 -0.00184643,-0.00607947 -0.00877402,-0.0117765 -0.0171454,-0.00944797zm-0.355613 0.000639877c0.000657547,0.000954137 -0.00107782,0.00130878 0.00409168,0.00129742l0.0370422 -4.03867e-005 -2.39796e-005 0.0413611c-0.0023134,-0.00142111 -0.000415226,-0.00107782 -0.00399703,-0.00330414 -0.000165333,-0.000102229 -0.000665119,-0.000424061 -0.000814045,-0.000509883l-0.000904916 -0.00046571c-0.0037749,-0.000830452 -0.0242081,-0.0148825 -0.0463476,0.00208875 -0.0104652,0.00802182 -0.0187836,0.0223604 -0.0169738,0.0425285 0.00277533,0.030935 0.0339981,0.0498347 0.0605763,0.0357814 0.00366384,-0.0019373 0.00600627,-0.00447536 0.00881062,-0.00613879l0.000148926 0.00871596 0.0221042 6.68905e-005 3.15521e-005 -0.120539 0.11013 -6.31043e-005c-0.000879674,-0.00266174 -0.00738825,-0.0127231 -0.00927885,-0.0159136l-0.00951486 -0.0154921c-0.00847364,0.00364995 -0.0388697,0.0230533 -0.0444343,0.0244176 -0.00230078,-0.00502941 -0.0240667,-0.0414368 -0.0270515,-0.0463917 -0.00455234,-0.00755485 -0.00876519,-0.014885 -0.0134942,-0.0229536 -0.00232224,-0.00396295 -0.00443245,-0.00784513 -0.00672187,-0.0117488 -0.00173789,-0.00296464 -0.0054358,-0.00778202 -0.00628771,-0.0114118 0.00526542,-0.00225409 0.0365058,-0.0204837 0.0437098,-0.024256 -0.00125199,-0.00412197 -0.0076596,-0.0143133 -0.00994019,-0.0179292 -0.00309085,0.000625995 -0.0571573,0.0319686 -0.0658342,0.0368365 -0.00289144,0.00162178 -0.00701846,0.00344802 -0.00925488,0.00556201 0.00140218,0.00402479 0.00472904,0.00826919 0.00722923,0.0126246 0.00251155,0.00437565 0.00502941,0.00881693 0.00750058,0.0129339 0.00344549,0.00574123 0.0122675,0.0202552 0.0148245,0.0252543 -0.00370801,0.00319434 -0.0456307,0.0251433 -0.0544691,0.0313654 0.0012217,0.00178333 0.00886363,0.014702 0.00914381,0.0163238l0 0zm-0.116 0.142784l0 0.0381478 -0.0117273 0 0 -0.0381478 0.0117273 0zm0.0408726 0l0 0.0381478 -0.0102444 0 0 -0.0257541 -0.00409547 0.0257541 -0.00727088 0 -0.00431381 -0.0251673 0 0.0251673 -0.0102444 0 0 -0.0381478 0.0151766 0c0.000446778,0.00229195 0.000912488,0.00499407 0.00141606,0.00810638l0.00161547 0.00970923 0.00267057 -0.0178156 0.0152902 0zm0.0164311 0.00652246l0 0.00970796c0.000331929,1.64071e-005 0.00061716,2.39796e-005 0.000854432,2.39796e-005 0.00108413,0 0.00182498,-0.000224651 0.00224273,-0.000667643 0.000419012,-0.000449303 0.000627257,-0.00138325 0.000627257,-0.00279047l0 -0.00313628c0,-0.00130373 -0.000237272,-0.00215564 -0.000721913,-0.00254184 -0.000484641,-0.000395033 -0.00148169,-0.000595704 -0.0030025,-0.000595704zm-0.0117273 -0.00652246l0.011803 0c0.00319308,0 0.00565414,0.000208244 0.00736553,0.000634829 0.00172022,0.000426585 0.0030126,0.00103743 0.00386703,0.00183381 0.000864529,0.000805211 0.00145392,0.00177828 0.00175809,0.00291163 0.000304163,0.00114219 0.000456875,0.00290406 0.000456875,0.00529319l0 0.00332181c0,0.00243709 -0.000295328,0.0042141 -0.000884722,0.00532348 -0.000598229,0.00111821 -0.00169119,0.00197138 -0.00327764,0.00257465 -0.0015877,0.000594442 -0.00365879,0.000892295 -0.00621577,0.000892295l-0.00314512 0 0 0.0153621 -0.0117273 0 0 -0.0381478 0 0zm0.0436858 0.00980388c0,-0.00177702 -0.000113588,-0.00291163 -0.00035086,-0.00341016 -0.000228438,-0.000490951 -0.000704244,-0.000739582 -0.00142616,-0.000739582 -0.00061716,0 -0.00108413,0.000200672 -0.00140596,0.000603277 -0.000333191,0.000393771 -0.000494738,0.00157635 -0.000494738,0.00354646l0 0.017808c0,0.00222001 0.000113588,0.00358685 0.000323094,0.00410178 0.000209506,0.000522504 0.000713078,0.000779969 0.00149179,0.000779969 0.0007989,0 0.00130247,-0.000297852 0.00152965,-0.000892295 0.000219603,-0.000603277 0.000333191,-0.00201934 0.000333191,-0.0042709l0 -0.0175266zm0.0117172 0.0125312c0,0.00383674 -0.000104753,0.0065477 -0.000312997,0.00814045 -0.000219603,0.00160032 -0.000884722,0.00305551 -0.00200545,0.00437439 -0.00112199,0.00132014 -0.00264155,0.0023336 -0.00455234,0.00304036 -0.00190954,0.00070803 -0.00414343,0.00106268 -0.00668022,0.00106268 -0.00241437,0 -0.00458137,-0.000338239 -0.00649974,-0.00100588 -0.00192973,-0.000667643 -0.00346947,-0.00166469 -0.00463817,-0.00299998 -0.00116869,-0.00133529 -0.00186284,-0.00279173 -0.00209128,-0.00435924 -0.000218341,-0.00157635 -0.000331929,-0.00432769 -0.000331929,-0.00825278l0 -0.00652246c0,-0.00383674 0.000104753,-0.0065477 0.000323094,-0.00814803 0.000209506,-0.00159275 0.000874625,-0.00304794 0.00200545,-0.00436682 0.00112073,-0.00132014 0.00263145,-0.00233233 0.00455108,-0.00304036 0.0019108,-0.00070803 0.00413459,-0.00106141 0.00668148,-0.00106141 0.00241311,0 0.00458011,0.000336977 0.00649974,0.00100462 0.00191963,0.000667643 0.00346821,0.00166469 0.0046369,0.00299998 0.00116995,0.00133529 0.0018641,0.00279047 0.00208244,0.00435924 0.000227175,0.00157635 0.000331929,0.00431886 0.000331929,0.00825278l0 0.00652246zm0.0292034 -0.0107934l-0.0108817 0 0 -0.00282329c0,-0.00131888 -0.000142616,-0.00216322 -0.00041775,-0.00252543 -0.000275135,-0.000362219 -0.000740844,-0.000538911 -0.00139713,-0.000538911 -0.000702982,0 -0.00123558,0.000241058 -0.00159654,0.00073201 -0.000360957,0.000482117 -0.000541435,0.00122296 -0.000541435,0.00221117 0,0.00127092 0.00019941,0.00223642 0.000608325,0.00288008 0.000389985,0.000643664 0.00150188,0.0014148 0.00331676,0.00233233 0.00521746,0.00262261 0.0084951,0.00476942 0.00985437,0.00645052 0.00135927,0.0016811 0.00203448,0.00439206 0.00203448,0.00813162 0,0.00271853 -0.00038115,0.00472146 -0.00113209,0.00600753 -0.000749679,0.00128733 -0.00220486,0.00237272 -0.00435167,0.0032423 -0.00215817,0.000868315 -0.0046571,0.00131131 -0.00751698,0.00131131 -0.00313628,0 -0.00581569,-0.000507358 -0.00803065,-0.00151324 -0.0022238,-0.00100462 -0.00367772,-0.00228438 -0.00436177,-0.00383548 -0.00068405,-0.0015612 -0.00102608,-0.0037648 -0.00102608,-0.00662847l0 -0.00249262 0.0108804 0 0 0.00464069c0,0.00143121 0.000152712,0.00234874 0.000456875,0.00275892 0.000312997,0.000401343 0.000854432,0.00061085 0.0016344,0.00061085 0.000778707,0 0.00135927,-0.000257465 0.00173915,-0.000779969 0.000379888,-0.000514931 0.000570463,-0.00128733 0.000570463,-0.00230835 0,-0.00224399 -0.000362219,-0.00371558 -0.00108413,-0.0044072 -0.000740844,-0.000691623 -0.00257465,-0.00184265 -0.0054825,-0.00345938 -0.00291794,-0.00164071 -0.00484641,-0.00282329 -0.00579676,-0.00356287 -0.000941516,-0.000739582 -0.00173032,-0.00176187 -0.00234748,-0.00306434 -0.000627257,-0.00130247 -0.000931419,-0.00296716 -0.000931419,-0.00499534 0,-0.0029192 0.000436682,-0.00505844 0.00132014,-0.00641013 0.000874625,-0.00135043 0.00229952,-0.00240427 0.00426711,-0.00316784 0.00196759,-0.000757251 0.00434284,-0.00114219 0.00712826,-0.00114219 0.0030492,0 0.00564405,0.00041775 0.00778202,0.00124568 0.00214807,0.000836763 0.00356413,0.00188177 0.00426711,0.00315269 0.000694147,0.00126335 0.00103617,0.00341142 0.00103617,0.00644295l0 0.00150441zm0.0163831 -0.0115418l0 0.0381478 -0.0117273 0 0 -0.0381478 0.0117273 0zm0.0164311 0.0209443l0 0.0106722c0.0016445,-3.91247e-005 0.00269834,-0.000265038 0.00315521,-0.000658809 0.000455613,-0.000386198 0.00068405,-0.00135927 0.00068405,-0.00289522l0 -0.0035553c0,-0.00163314 -0.000209506,-0.00262261 -0.00061716,-0.00296843 -0.000408916,-0.000345812 -0.00148295,-0.000546483 -0.00322211,-0.000594442zm0 -0.0144219l0 0.008485c0.000493476,-1.5145e-005 0.00088346,-2.27175e-005 0.00116869,-2.27175e-005 0.00114976,0 0.00188177,-0.00024232 0.00219477,-0.000716865 0.000314259,-0.000482117 0.000475806,-0.00185022 0.000475806,-0.00410935 0,-0.00119898 -0.000132519,-0.00203574 -0.000389985,-0.00251029 -0.0002663,-0.000482117 -0.000598229,-0.000787542 -0.00101724,-0.000908702 -0.00041775,-0.000128733 -0.00123432,-0.000200672 -0.00243204,-0.000217079zm-0.0117273 -0.00652246l0.0116983 0c0.00368781,0 0.00649091,0.000241058 0.00839161,0.00073201 0.0019007,0.000482117 0.00344045,0.00147159 0.00460914,0.00295202 0.00116869,0.001488 0.00174925,0.00387587 0.00174925,0.0071737 0,0.00223642 -0.000408916,0.00378878 -0.00123684,0.00466593 -0.000825404,0.00088346 -0.00245097,0.00155994 -0.00488427,0.00202565 0.00270844,0.000523766 0.00454351,0.00138325 0.00551153,0.00258223 0.000960447,0.00120655 0.00144509,0.00304794 0.00144509,0.00552541l0 0.00353889c0,0.00257465 -0.000342025,0.0044804 -0.00104501,0.00572735 -0.000694147,0.00123811 -0.00180604,0.00208244 -0.00332686,0.00254184 -0.00152081,0.000458137 -0.0046369,0.000682788 -0.00935079,0.000682788l-0.0135611 0 0 -0.0381478 0 0zm0.04321 0l0 0.0305147 0.00712826 0 0 0.00763309 -0.0188543 0 0 -0.0381478 0.011726 0 0 0zm0.00996038 0l0.0195472 0 0 0.00763309 -0.00782115 0 0 0.00723049 0.00731757 0 0 0.0072633 -0.00731757 0 0 0.00838782 0.00860111 0 0 0.00763309 -0.0203272 0 0 -0.0381478 0 0zm0.0454717 0l0 0.0381478 -0.011726 0 0 -0.0381478 0.011726 0zm0.0295353 0.0115418l-0.0108804 0 0 -0.00282329c0,-0.00131888 -0.000142616,-0.00216322 -0.00041775,-0.00252543 -0.000276397,-0.000362219 -0.000742106,-0.000538911 -0.00139713,-0.000538911 -0.000702982,0 -0.00123558,0.000241058 -0.00159654,0.00073201 -0.000360957,0.000482117 -0.000541435,0.00122296 -0.000541435,0.00221117 0,0.00127092 0.00019941,0.00223642 0.000608325,0.00288008 0.000388722,0.000643664 0.00150062,0.0014148 0.00331676,0.00233233 0.0052162,0.00262261 0.0084951,0.00476942 0.00985437,0.00645052 0.00135927,0.0016811 0.00203322,0.00439206 0.00203322,0.00813162 0,0.00271853 -0.000379888,0.00472146 -0.00113083,0.00600753 -0.000750941,0.00128733 -0.00220486,0.00237272 -0.00435293,0.0032423 -0.0021569,0.000868315 -0.00465583,0.00131131 -0.00751572,0.00131131 -0.00313628,0 -0.00581695,-0.000507358 -0.00803065,-0.00151324 -0.0022238,-0.00100462 -0.00367772,-0.00228438 -0.00436177,-0.00383548 -0.00068405,-0.0015612 -0.00102608,-0.0037648 -0.00102608,-0.00662847l0 -0.00249262 0.0108804 0 0 0.00464069c0,0.00143121 0.000152712,0.00234874 0.000455613,0.00275892 0.000314259,0.000401343 0.000855694,0.00061085 0.00163566,0.00061085 0.000778707,0 0.001358,-0.000257465 0.00173915,-0.000779969 0.000379888,-0.000514931 0.000569201,-0.00128733 0.000569201,-0.00230835 0,-0.00224399 -0.000360957,-0.00371558 -0.00108287,-0.0044072 -0.000740844,-0.000691623 -0.00257592,-0.00184265 -0.00548376,-0.00345938 -0.00291668,-0.00164071 -0.00484641,-0.00282329 -0.00579676,-0.00356287 -0.000940254,-0.000739582 -0.00172906,-0.00176187 -0.00234748,-0.00306434 -0.000625995,-0.00130247 -0.000931419,-0.00296716 -0.000931419,-0.00499534 0,-0.0029192 0.000437944,-0.00505844 0.0013214,-0.00641013 0.000874625,-0.00135043 0.00229952,-0.00240427 0.00426711,-0.00316784 0.00196633,-0.000757251 0.00434284,-0.00114219 0.007127,-0.00114219 0.00305046,0 0.00564531,0.00041775 0.00778328,0.00124568 0.00214807,0.000836763 0.00356413,0.00188177 0.00426711,0.00315269 0.000694147,0.00126335 0.00103491,0.00341142 0.00103491,0.00644295l0 0.00150441zm0.0408827 -0.0115418l0 0.0381478 -0.0102721 0 -0.00610092 -0.0173411 0 0.0173411 -0.00979883 0 0 -0.0381478 0.00979883 0 0.00657547 0.0171795 0 -0.0171795 0.00979757 0zm0.0197668 0.00980388c0,-0.00177702 -0.000113588,-0.00291163 -0.000352122,-0.00341016 -0.000227175,-0.000490951 -0.000702982,-0.000739582 -0.00142489,-0.000739582 -0.000618422,0 -0.00108287,0.000200672 -0.00140596,0.000603277 -0.000333191,0.000393771 -0.000494738,0.00157635 -0.000494738,0.00354646l0 0.017808c0,0.00222001 0.000113588,0.00358685 0.000323094,0.00410178 0.000209506,0.000522504 0.000713078,0.000779969 0.00149179,0.000779969 0.0007989,0 0.00130247,-0.000297852 0.00152965,-0.000892295 0.000219603,-0.000603277 0.000333191,-0.00201934 0.000333191,-0.0042709l0 -0.0175266zm0.0117172 0.0125312c0,0.00383674 -0.000104753,0.0065477 -0.000312997,0.00814045 -0.000219603,0.00160032 -0.000884722,0.00305551 -0.00200545,0.00437439 -0.00112199,0.00132014 -0.00264155,0.0023336 -0.00455234,0.00304036 -0.00190954,0.00070803 -0.00414343,0.00106268 -0.00668022,0.00106268 -0.00241437,0 -0.00458011,-0.000338239 -0.006501,-0.00100588 -0.00192847,-0.000667643 -0.00346821,-0.00166469 -0.0046369,-0.00299998 -0.00116869,-0.00133529 -0.00186284,-0.00279173 -0.00209128,-0.00435924 -0.000218341,-0.00157635 -0.000331929,-0.00432769 -0.000331929,-0.00825278l0 -0.00652246c0,-0.00383674 0.000104753,-0.0065477 0.000323094,-0.00814803 0.000209506,-0.00159275 0.000874625,-0.00304794 0.00200545,-0.00436682 0.00112073,-0.00132014 0.00263145,-0.00233233 0.00455108,-0.00304036 0.0019108,-0.00070803 0.00413459,-0.00106141 0.00668148,-0.00106141 0.00241311,0 0.00458011,0.000336977 0.00649974,0.00100462 0.00191963,0.000667643 0.00346821,0.00166469 0.00463817,0.00299998 0.00116869,0.00133529 0.00186158,0.00279047 0.00208118,0.00435924 0.000227175,0.00157635 0.000331929,0.00431886 0.000331929,0.00825278l0 0.00652246zm0.0279767 -0.0223351l0 0.00763309 -0.00695535 0 0 0.0305147 -0.0117172 0 0 -0.0305147 -0.00693769 0 0 -0.00763309 0.0256102 0zm0.0296313 0l0 0.0381478 -0.0117172 0 0 -0.0160222 -0.00350734 0 0 0.0160222 -0.011726 0 0 -0.0381478 0.011726 0 0 0.0136406 0.00350734 0 0 -0.0136406 0.0117172 0zm0.0164311 0l0 0.0381478 -0.0117273 0 0 -0.0381478 0.0117273 0zm-0.141528 0.126103c-0.000160285,-0.000497262 -0.000271348,-0.00122927 -0.000344549,-0.00219351 -6.31043e-005,-0.000966758 6.31043e-006,-0.0017543 0.000218341,-0.00236767 0.000525028,-0.00161168 0.0010185,-0.00309085 0.00145266,-0.00444254 0.000439206,-0.00134034 0.000844335,-0.00251155 0.00119393,-0.0035086 0.000364743,-0.000989475 0.000758514,-0.00188934 0.00117626,-0.00271348 0.00248757,-0.00516193 0.00422546,-0.00898605 0.00521494,-0.0114698 0.00100083,-0.00248883 0.00137189,-0.00411314 0.00111947,-0.00489942 -0.000164071,-0.000508621 -0.0005326,-0.000845597 -0.00111064,-0.000983165 -0.000581822,-0.000148926 -0.00127218,-9.33943e-005 -0.00206351,0.000150188 -0.00163693,0.000506096 -0.00351112,0.00170634 -0.00560619,0.00360704 -0.00211021,0.00189439 -0.00451322,0.00426837 -0.00722797,0.00710302 -0.00271475,0.00283464 -0.00426333,0.00431129 -0.00463564,0.0044274 -0.000599491,0.000184265 -0.00102734,-0.00014514 -0.00129869,-0.000986951 -0.000230962,-0.000719389 -0.000333191,-0.00180857 -0.000292804,-0.0032688 -0.000109801,-0.00153722 -0.000171644,-0.00273494 -0.000210768,-0.00358685 -2.65038e-005,-0.000855694 0.000118636,-0.00167984 0.00043542,-0.00247243 0.000305425,-0.000787542 0.000957923,-0.00173158 0.00191963,-0.00283212 0.000970544,-0.00111568 0.00248757,-0.00269203 0.0045738,-0.00473661l0.000711816 0.00109423c0.00181488,-0.0014615 0.00356918,-0.00268446 0.00527173,-0.00368529 0.00170255,-0.00100083 0.00321201,-0.00171139 0.00451069,-0.00211273 0.0025532,-0.000788804 0.00451069,-0.000918798 0.00585734,-0.000397557 0.00134665,0.000521241 0.00247243,0.00220613 0.00339122,0.00506349 0.00050231,0.00155994 0.000681526,0.0029293 0.000552794,0.00411314 -0.000132519,0.00117248 -0.000569201,0.0029028 -0.00131509,0.00517834 -0.00166595,0.00532222 -0.00299872,0.00905673 -0.00398945,0.0112263 -0.00287125,0.0064013 -0.00416741,0.0100147 -0.00389353,0.0108678 0.000152712,0.000475806 0.000543959,0.00061085 0.00118762,0.00041144 0.000531338,-0.000164071 0.00115859,-0.000759776 0.00189187,-0.001801 0.000735796,-0.00103112 0.00156877,-0.00245728 0.0024901,-0.00426333 0.000922585,-0.00180604 0.00218593,-0.00436429 0.00377364,-0.00769115 0.00171013,-0.00352248 0.00311735,-0.00659818 0.00421789,-0.00923973 0.00110433,-0.00262892 0.00199914,-0.00486534 0.002663,-0.00670168 0.000675216,-0.00183886 0.00101724,-0.00282202 0.00105006,-0.00295328 0.000740844,-0.00178711 0.00158392,-0.00333822 0.00256456,-0.00465079 0.000969282,-0.00131005 0.00163314,-0.00202691 0.00198274,-0.00213545 0.00025999,-7.95114e-005 0.000655023,6.56285e-005 0.00115859,0.000434158 0.00050231,0.000367267 0.000985689,0.000826666 0.00145518,0.00139965 0.000459399,0.000576773 0.000739582,0.00102608 0.00085317,0.00138072 3.28142e-005,9.97048e-005 -5.67939e-005,0.000710554 -0.000285231,0.00181614 -0.000228438,0.00110559 -0.000490951,0.00225787 -0.000776183,0.00345433 -0.000300376,0.00118762 -0.000796376,0.00304541 -0.0014981,0.00553803 -0.00152586,0.00548629 -0.00259737,0.0100298 -0.00317919,0.0136293 -0.000595704,0.0035919 -0.000730748,0.00587375 -0.00041775,0.00684808 0.000109801,0.000343287 0.000338239,0.000625995 0.000690361,0.000832977 0.000344549,0.000223389 0.000649974,0.000286493 0.000921323,0.000203196 0.00035086,-0.000108539 0.000893557,-0.000580559 0.00164197,-0.00142111 0.000748417,-0.000839287 0.00152334,-0.00194235 0.00231845,-0.00333317 0.00103365,-0.00184138 0.00191585,-0.00369539 0.00264407,-0.00556327 0.00073832,-0.00187294 0.00140218,-0.00390363 0.00199662,-0.00610723 0.000605801,-0.00220865 0.00110937,-0.00427468 0.00150441,-0.00621072 0.000400081,-0.00192468 0.000778707,-0.00395285 0.00114345,-0.0060618l-0.00109549 -0.00147538c-0.000171644,-0.000227175 -0.000328142,-0.00055658 -0.000459399,-0.000965496 -0.000103491,-0.000321832 0.000213292,-0.00157508 0.000938992,-0.00375975 0.000721913,-0.00219477 0.00129616,-0.00334579 0.00171391,-0.00347452 0.000474544,-0.000146402 0.000965496,6.68905e-005 0.00150314,0.000618422 0.000528814,0.000566677 0.000901129,0.00118257 0.00111442,0.00184643 0.000238534,0.000742106 0.000369791,0.00230835 0.000408916,0.00470632 3.02901e-005,0.00241311 -0.000169119,0.00538406 -0.000588132,0.00894566 -0.000422799,0.00355151 -0.00115607,0.00725826 -0.00222001,0.0111303 -0.000903653,0.00337103 -0.00206225,0.00636975 -0.00348462,0.00901255 -0.00142237,0.00264281 -0.00279804,0.00469875 -0.00414469,0.00618674 -0.00133529,0.00148421 -0.00239923,0.00234748 -0.00320065,0.00259611 -0.000903653,0.000278921 -0.00197769,0.000184265 -0.00322337,-0.000294066 -0.00103743,-0.000446778 -0.00181362,-0.000888508 -0.00232602,-0.00132645 -0.000528814,-0.000445516 -0.000946564,-0.00097433 -0.0012583,-0.00159528 -0.000323094,-0.000618422 -0.000622208,-0.00135422 -0.000899867,-0.00221748 -0.000590656,-0.00183886 -0.0007623,-0.00414721 -0.000516193,-0.00693769 0.000233486,-0.00278669 0.000795114,-0.00633188 0.00166848,-0.0106432 -0.00396674,0.00963729 -0.00714593,0.0167428 -0.00954011,0.021304 -0.00240301,0.00457759 -0.00441856,0.00711059 -0.00604539,0.00761416 -0.00108413,0.000334453 -0.00220234,-1.38829e-005 -0.00335336,-0.00104501 -0.00116238,-0.0010286 -0.00202691,-0.00244214 -0.00259611,-0.0042141zm0.0530644 -0.0377831c-0.000554056,0.000171644 -0.00114093,0.00012116 -0.00176944,-0.000135043 -0.000629781,-0.000256203 -0.00104501,-0.000699196 -0.00124442,-0.00132014 -0.000306687,-0.000951613 -0.000184265,-0.00215817 0.000363481,-0.00361714 0.000552794,-0.00145014 0.00132393,-0.00233233 0.00231845,-0.00264028 0.000666381,-0.00020572 0.00127218,-0.000174168 0.00184138,8.8346e-005 0.000567939,0.000262514 0.000983165,0.000779969 0.00122549,0.00153343 0.000297852,0.000928895 0.000177954,0.00209885 -0.000362219,0.00350734 -0.000545221,0.00139713 -0.00133402,0.00226166 -0.00237272,0.00258349zm0.0483126 0.00100462l0.000658809 0.00204837c-0.00130373,0.00250903 -0.00245854,0.00459399 -0.00346443,0.00625616 -0.00100841,0.00165081 -0.00194361,0.00294949 -0.00278037,0.00390237 -0.000848122,0.000955399 -0.00164071,0.00154101 -0.00236262,0.0017644 -0.00172906,0.000533862 -0.00290785,-0.000196885 -0.00354394,-0.00217962 -0.000516193,-0.00160537 -0.000580559,-0.0036184 -0.000188051,-0.00606432 0.000397557,-0.00243583 0.00113588,-0.00539037 0.00222758,-0.00886868 -0.000819094,0.000850646 -0.00155741,0.00176061 -0.0022137,0.00272989 -0.00065376,0.000980641 -0.00120908,0.00195497 -0.00163819,0.00294066 -0.000442992,0.000976854 -0.000808997,0.00180731 -0.00109801,0.00249262 -0.000928895,0.00201555 -0.00178711,0.00405887 -0.00257339,0.00612743 -0.000791328,0.00205846 -0.00133907,0.00340763 -0.00164071,0.00405003 -0.000304163,0.00064114 -0.000661333,0.00103112 -0.00108035,0.00116112 -0.0017278,0.000533862 -0.00325492,-0.00128228 -0.00459021,-0.00543454 -3.91247e-005,-0.000122422 -7.82493e-005,-0.000247369 -0.00011485,-0.000373577 -0.00375975,0.00766591 -0.00700458,0.0119217 -0.00975592,0.0127723 -0.000994524,0.000306687 -0.00191711,0.000177954 -0.00276144,-0.000401343 -0.000851908,-0.000564152 -0.00147033,-0.00144509 -0.00185148,-0.00262892 -0.000256203,-0.000797638 -0.000392509,-0.00180226 -0.000410178,-0.00301386 -2.52417e-006,-0.00120403 7.06768e-005,-0.00306434 0.00023601,-0.00556327 -0.000219603,0.000360957 -0.00043542,0.000695409 -0.000634829,0.00103617 -0.000193099,0.000328142 -0.000378626,0.00064114 -0.000540173,0.000909964 -0.000169119,0.000283969 -0.000347074,0.000581822 -0.000535124,0.00088346l-0.00012116 0.000203196 0.000133781 0.000413964c-0.00126713,0.00336093 -0.00261126,0.00601636 -0.00402227,0.00796124 -0.00140975,0.00194614 -0.00275892,0.00311735 -0.00407023,0.00352248 -0.00180604,0.000557842 -0.00344928,4.29109e-005 -0.00492844,-0.00154479 -0.00147916,-0.0015877 -0.00257213,-0.00347831 -0.00328016,-0.00568191 -0.000273873,-0.000851908 -0.000439206,-0.00167731 -0.000519979,-0.00250398 -6.43664e-005,-0.000820356 -5.30076e-005,-0.00151829 2.39796e-005,-0.00208875 8.8346e-005,-0.000575511 0.000291542,-0.00149052 0.000604539,-0.00275513 0.00159401,-0.00573997 0.00369413,-0.0090176 0.0062915,-0.00982029 0.00135548,-0.000419012 0.00218593,-0.00011485 0.00251281,0.000903653 0.000220865,0.000686575 0.000141354,0.00190449 -0.0002663,0.00364869 -0.000400081,0.00173032 -0.000841811,0.0030227 -0.00131636,0.00386324 -0.00133655,0.00240932 -0.00218341,0.00405887 -0.00253174,0.00494611 -0.000355908,0.000901129 -0.000389985,0.00179973 -9.71806e-005,0.00270844 0.000248631,0.000774921 0.000752203,0.00133655 0.00151829,0.00167226 0.000766086,0.000335715 0.00161547,0.000353384 0.00256456,5.9318e-005 0.0010387,-0.00032057 0.00205846,-0.00105006 0.00306308,-0.00217584 0.000906178,-0.00100841 0.001984,-0.00246864 0.00323473,-0.00437944l-7.95114e-005 -0.000247369c0.00170382,-0.00262009 0.00342909,-0.00682915 0.00517834,-0.0126284 -0.000345812,8.32977e-005 -0.000655023,0.000166595 -0.000940254,0.00024232 -0.000297852,7.95114e-005 -0.000636091,0.000184265 -0.00103239,0.000306687 -0.00129869,0.000401343 -0.00224525,0.000778707 -0.00283212,0.00115481 -0.000238534,0.000146402 -0.000464448,0.00029028 -0.00067774,0.00044173 -0.000200672,0.000146402 -0.000348336,0.000228438 -0.000437944,0.000256203 -9.08702e-005,2.77659e-005 -0.000157761,-2.39796e-005 -0.000196885,-0.000146402 -0.000230962,-0.000719389 -0.00012116,-0.00192216 0.000323094,-0.00362976 0.000335715,-0.00142994 0.000735796,-0.00253932 0.00120277,-0.00332938 0.00046571,-0.000788804 0.0011283,-0.00143121 0.00200167,-0.00192089 0.000869577,-0.000499786 0.00215943,-0.00100714 0.00385315,-0.00153091l0.00142363 -0.000440468c0.000512407,-0.00242194 0.00109675,-0.0041977 0.00177071,-0.00534241 0.000675216,-0.00114597 0.00162052,-0.00191332 0.00282833,-0.0022869 0.00122044,-0.000376102 0.00191963,-0.000287756 0.00209001,0.000243583 8.58218e-005,0.000265038 -0.000164071,0.00110937 -0.000743369,0.00255446 -0.000581822,0.00143373 -0.000994524,0.00262009 -0.00122801,0.00355656 0.000781231,-0.000156499 0.00147285,-0.000285231 0.00206982,-0.000396295 0.000609587,-0.00011485 0.00109044,-0.000203196 0.00143121,-0.00025999 -0.000516193,0.00267941 -0.00134286,0.00551531 -0.00247116,0.00849384 -0.000634829,0.000147664 -0.00116491,0.000275135 -0.00159401,0.000369791 -0.000429109,9.59185e-005 -0.000856956,0.000191837 -0.00130878,0.000295328 -0.000439206,9.97048e-005 -0.000969282,0.000225913 -0.00160537,0.000374839 -0.000580559,0.00224777 -0.00104501,0.00424187 -0.00136936,0.00597345 -0.000328142,0.00172022 -0.000512407,0.00327385 -0.000546483,0.00463564 -3.02901e-005,0.00137315 0.000129995,0.00260116 0.000485903,0.00370927 0.000479593,0.00149431 0.00132898,0.00204837 0.00253679,0.00167479 0.000835501,-0.000258728 0.001801,-0.00104374 0.00287503,-0.00233738 0.00102355,-0.00123306 0.00232224,-0.00301639 0.00391247,-0.00536513 -7.19389e-005,-0.000543959 -0.000124946,-0.00110937 -0.000161547,-0.00169751 -0.000108539,-0.00176692 0.000307949,-0.00429362 0.0012684,-0.00756116 0.00204079,-0.00686322 0.00386198,-0.0125136 0.00544842,-0.0169599 0.0015877,-0.00444759 0.00299367,-0.00787542 0.00420653,-0.0102835 0.00121286,-0.0024068 0.0021405,-0.0036916 0.00277533,-0.00383926 0.000790066,-0.000171644 0.0014615,-0.000208244 0.0020105,-0.000122422 0.000549007,8.58218e-005 0.000874625,0.00029028 0.000970544,0.000588132 0.00017543,0.000542697 9.08702e-005,0.00155489 -0.000278921,0.00303153 -0.00035717,0.00147538 -0.00104122,0.00382791 -0.00204584,0.00703613 -0.00111442,0.00341142 -0.00190701,0.00581064 -0.00237651,0.00720903 -0.00047202,0.00138829 -0.00120655,0.00339249 -0.00220865,0.00598986 -0.000986951,0.00260621 -0.00191711,0.00492592 -0.00276902,0.00699069 -0.000854432,0.00205341 -0.00186536,0.00431381 -0.00301512,0.00676226l0.00125325 0.00389732c0.00191963,-0.00414721 0.00363607,-0.00757378 0.00513416,-0.0102898 0.00149557,-0.00272611 0.00283843,-0.00484515 0.00400207,-0.00636091 0.00115355,-0.00151198 0.00209254,-0.00237525 0.00280435,-0.00259485 0.000655023,-0.000201934 0.00140092,-6.31043e-006 0.00222253,0.000579297 0.000821618,0.000585608 0.00131005,0.00114093 0.00146654,0.00162809 7.19389e-005,0.000220865 4.4173e-005,0.000522504 -6.43664e-005,0.000920061 -0.000994524,0.00235253 -0.0017644,0.00428226 -0.00230962,0.00579045 -0.000542697,0.00151829 -0.000916274,0.00282707 -0.00111568,0.0039478 -0.000198147,0.00111947 -0.000179216,0.00202691 4.16488e-005,0.00271348 0.00032688,0.0010185 0.000988213,0.00137441 0.00198147,0.00106772 0.00106141,-0.000328142 0.00296212,-0.00244971 0.0057021,-0.00636344zm0.068867 -0.0307255c-0.00148043,0.00164955 -0.00273746,0.00310978 -0.00375471,0.00438575 -0.00101724,0.00127597 -0.00184012,0.00250398 -0.00245476,0.00367898 -0.000615898,0.00117753 -0.000933943,0.00227302 -0.000946564,0.00327511 0.000225913,0.00259611 0.000374839,0.00398693 0.000439206,0.00418634 0.000459399,0.00142742 0.00170382,0.00182245 0.00372568,0.00119772 0.000949089,-0.000292804 0.00228438,-0.00158266 0.00399324,-0.00387587 -0.000700458,-0.000903653 -0.00120529,-0.00181867 -0.00150441,-0.00274882 -0.000437944,-0.00136179 -0.000599491,-0.00283212 -0.000479593,-0.00442866 0.000119898,-0.00159528 0.000444254,-0.00348462 0.000981903,-0.00567055zm0.0245678 -0.00677614c-0.00175556,0.00126082 -0.00372568,0.00301386 -0.00591666,0.00527299 -0.00217962,0.00225535 -0.00346695,0.00373704 -0.00384558,0.00445011 -0.000347074,0.000581822 -0.000516193,0.00152334 -0.000504834,0.00283464 8.8346e-006,0.00129995 0.000104753,0.00225535 0.000300376,0.00286493 0.000117374,0.000364743 0.00032688,0.000628519 0.000619684,0.000806473 0.000300376,0.000162809 0.00061085,0.000200672 0.000949089,9.59185e-005 0.000305425,-9.46564e-005 0.000613374,-0.000335715 0.000926371,-0.000711816 0.00032057,-0.000391247 0.000793852,-0.00108539 0.00141732,-0.00211778 0.000627257,-0.00102229 0.00104753,-0.00168741 0.00123558,-0.00198905 0.000270086,-0.00043542 0.000880936,-0.00139208 0.00182371,-0.00286367 0.000956661,-0.00146402 0.00162304,-0.00259611 0.00202691,-0.00338996 0.000406392,-0.000782493 0.000696671,-0.00161421 0.000873363,-0.00249641 0.000179216,-0.000870839 0.00020572,-0.00179342 9.46564e-005,-0.0027564zm9.46564e-005 0.00867432c-0.00124946,0.00275892 -0.0023967,0.00513416 -0.00344549,0.00712574 -0.00103743,0.00198779 -0.0019272,0.00350481 -0.00264912,0.00454351 -0.000721913,0.0010387 -0.00125578,0.00161799 -0.00160537,0.00172653 -0.000576773,0.000176692 -0.00136558,-7.82493e-005 -0.00238156,-0.0007623 -0.00100336,-0.000687837 -0.00199788,-0.00165838 -0.00295454,-0.00289649 -0.000646188,-0.000840549 -0.00117753,-0.00172653 -0.00159906,-0.00265921 -0.000942778,0.00154732 -0.0017543,0.00264659 -0.00244214,0.00329909 -0.000742106,0.000704244 -0.00196128,0.00127471 -0.00363859,0.00169624 -0.00179721,0.00421915 -0.00378247,0.00665876 -0.00597345,0.00733524 -0.00123053,0.00038115 -0.00248883,0.000330666 -0.00374966,-0.000155237 -0.00127723,-0.000494738 -0.00243835,-0.00132771 -0.00348209,-0.0025267 -0.000875888,-0.000993262 -0.00157761,-0.00216448 -0.00210516,-0.0035086 -0.0017278,0.00266931 -0.00347452,0.00524901 -0.00522504,0.00774542 -0.0018641,0.00265669 -0.0041775,0.00569706 -0.00696167,0.00912488 -0.00102734,0.00298357 -0.0019373,0.00544338 -0.00274882,0.00739835 -0.000803949,0.00194109 -0.00150945,0.00357044 -0.0021304,0.00488301 -0.000622208,0.00131131 -0.000940254,0.00198147 -0.000955399,0.0020105 -0.000198147,0.000463185 -0.000589394,0.000985689 -0.00120655,0.00157887 -0.000604539,0.000588132 -0.00115481,0.000964234 -0.00164071,0.00111442 -0.000676478,0.000209506 -0.0013315,0.000143878 -0.00193983,-0.000203196 -0.000608325,-0.000347074 -0.00101977,-0.00085317 -0.00123684,-0.00152965 -0.000555318,-0.00172653 -0.000223389,-0.00386198 0.0010021,-0.00638363 0.0012217,-0.00253174 0.003289,-0.0053727 0.00620694,-0.00853927 0.000964234,-0.00302396 0.00183886,-0.00605801 0.00264659,-0.00907061 0.000791328,-0.00302017 0.00146654,-0.00574754 0.0019941,-0.00819977 0.000542697,-0.0024434 0.000991999,-0.00483379 0.00136053,-0.0071636 -0.00117248,0.00179847 -0.00235505,0.00352753 -0.00352627,0.0052162 -0.0011851,0.0016811 -0.00235127,0.00330666 -0.00349345,0.00485272 -0.00114976,0.00155994 -0.00185779,0.00252165 -0.00212283,0.00289522 -0.000280183,0.000367267 -0.000513669,0.000682788 -0.000709292,0.000961709 -0.0027829,0.00447536 -0.00512533,0.00700079 -0.00702225,0.00758766 -0.00180731,0.000557842 -0.00360199,0.000188051 -0.00537775,-0.00112578 -0.00177323,-0.00130373 -0.00307697,-0.00323725 -0.00390742,-0.00581695 -0.000519979,-0.00161673 -0.000803949,-0.00339122 -0.000839287,-0.00531464 -3.53384e-005,-0.00192594 0.000194361,-0.00399198 0.000691623,-0.00619179 0.000485903,-0.00219477 0.00121917,-0.00439332 0.00218846,-0.00659187 0.000959185,-0.00219477 0.00212914,-0.00430876 0.00349219,-0.00632431 0.00211526,-0.00307697 0.00464448,-0.0060252 0.0075864,-0.0088447 0.00295328,-0.00282329 0.00578666,-0.00517203 0.00851782,-0.00702603 0.001671,-0.00113714 0.00309842,-0.00200545 0.00428478,-0.00260999l-0.00157635 0 0 -0.0381478 0.00979757 0 0.00657673 0.0171795 0 -0.0171795 0.00979757 0 0 0.0381478 -0.0102734 0 -0.00610092 -0.0173411 0 0.0173411 -0.00285358 0c0.000126209,0.000137567 0.000246107,0.000289018 0.000358432,0.000453089 0.000431633,0.000609587 0.000764824,0.00129742 0.00100714,0.00205089 0.000223389,0.000697933 0.000218341,0.00145392 2.52417e-006,0.0022869 -0.000333191,0.00112578 -0.00114976,0.00244971 -0.00242194,0.00397431 -0.0012848,0.00152965 -0.00261883,0.0029394 -0.00399198,0.00422799 -0.00138577,0.00129238 -0.00219477,0.00198147 -0.00243204,0.00205468 -0.000136305,4.16488e-005 -0.000218341,1.76692e-005 -0.000246107,-7.06768e-005 -6.43664e-005,-0.00019941 9.59185e-005,-0.000589394 0.00046571,-0.00117879 0.000369791,-0.000588132 0.000779969,-0.00120277 0.00125578,-0.00184769 0.0010387,-0.0014413 0.00150693,-0.00276649 0.00137315,-0.00399198 -0.00194614,0.00124694 -0.00383422,0.00267057 -0.00564026,0.00427595 -0.0018174,0.0016079 -0.00354015,0.00339375 -0.00519475,0.00535377 -0.00164324,0.00195623 -0.00323725,0.0041043 -0.00477447,0.00642906 -0.00171896,0.00264912 -0.00306182,0.00526795 -0.00402732,0.00786658 -0.000979379,0.00259106 -0.00160159,0.00490194 -0.00187672,0.00694526 -0.000276397,0.00203322 -0.000267562,0.00352753 3.78626e-005,0.0044804 0.000228438,0.00070803 0.000665119,0.00125578 0.00129869,0.0016445 0.000633567,0.00038746 0.00134034,0.000461923 0.00213166,0.000217079 0.000925109,-0.000285231 0.00194992,-0.00103996 0.00306056,-0.0022604 0.00119772,-0.0013315 0.00246864,-0.00294192 0.00380645,-0.0048401 0.00133907,-0.00189944 0.00256456,-0.00368908 0.00367898,-0.00536008 0.00111316,-0.001671 0.00229826,-0.00350986 0.00358559,-0.00549007 0.00117626,-0.00182498 0.00208875,-0.00327511 0.00272106,-0.00435924 0.000632305,-0.00108413 0.00107025,-0.00199788 0.00131509,-0.00274377 0.000523766,-0.00153722 0.00121539,-0.00255446 0.00206982,-0.00302522 0.000850646,-0.000482117 0.00168741,-0.000545221 0.00252039,-0.000194361 0.000832977,0.000352122 0.00136684,0.000928895 0.00162304,0.00172653 8.45597e-005,0.000265038 -6.56285e-005,0.00141985 -0.000459399,0.00347705 -0.000393771,0.0020572 -0.00103996,0.00506854 -0.00194109,0.00902265 -0.000893557,0.00394023 -0.00206603,0.00863645 -0.0034985,0.0140697 0.00207992,-0.00207992 0.00519727,-0.00589142 0.00936089,-0.011437 -0.000203196,-0.00118131 -0.000155237,-0.00254058 0.000153974,-0.0040778 0.000396295,-0.00197264 0.00111064,-0.0039213 0.00213166,-0.00584346 0.00100967,-0.00191963 0.00222506,-0.00358559 0.00364238,-0.00500922 0.00140596,-0.00141985 0.0028296,-0.00235884 0.00428604,-0.0028094 0.00103996,-0.00032057 0.00190323,-0.00041775 0.00260116,-0.000292804 0.00070172,0.000136305 0.00113335,0.000478331 0.00131509,0.00104248 0.000138829,0.000431633 5.17455e-005,0.00100714 -0.000275135,0.00172906 0.000888508,-9.21323e-005 0.00155741,1.64071e-005 0.0019941,0.000333191 0.000432895,0.000304163 0.000825404,0.000985689 0.00116364,0.00203701 0.000335715,0.00104122 0.000507358,0.00242447 0.000518717,0.0041611 8.8346e-006,0.00172653 -0.000191837,0.00341899 -0.000604539,0.00506854l0.000786279 0.000402605 0.000497262 -0.000153974c0.000372315,-0.00011485 0.000713078,-0.000330666 0.00101724,-0.000618422 0.000301639,-0.000300376 0.000569201,-0.000589394 0.000783755,-0.000887246 0.000200672,-0.000253679 0.00058687,-0.000788804 0.00117753,-0.00159401 -0.000366005,-0.00190954 6.05801e-005,-0.00408159 0.00127975,-0.00651741 0.00138325,-0.00276523 0.00317415,-0.00526668 0.00537649,-0.00749174 0.00219098,-0.0022238 0.00395411,-0.0035351 0.00527552,-0.00394402 0.00108413,-0.000334453 0.0023601,1.26209e-006 0.00382917,0.00101977 0.000549007,-0.00380645 0.00113588,-0.00724942 0.00176566,-0.0103112l-0.000432895 0 -0.00108413 -0.00273368c-0.000797638,0.00118131 -0.00180478,0.00205846 -0.00302143,0.0026529 -0.00121665,0.000588132 -0.00265164,0.000885984 -0.00430497,0.000885984 -0.00196759,0 -0.00381024,-0.000410178 -0.00552163,-0.00121539 -0.00172022,-0.000811521 -0.00302143,-0.00180983 -0.00391499,-0.00300755 -0.000893557,-0.00119015 -0.00144383,-0.00244592 -0.00167226,-0.00375597 -0.000219603,-0.00131131 -0.000333191,-0.00328269 -0.000333191,-0.00590404l0 -0.0113323c0,-0.00364364 0.000228438,-0.00629024 0.000694147,-0.00793852 0.00046571,-0.00165712 0.00179595,-0.0031691 0.00400081,-0.0045372 0.00219477,-0.00137441 0.00503698,-0.00206603 0.00853422,-0.00206603 0.00343035,0 0.0062814,0.000594442 0.00854306,0.00179342 0.00226166,0.00119015 0.00374335,0.00261378 0.00442866,0.00425449 0.00068405,0.00164071 0.00102608,0.00402101 0.00102608,0.00714972l0 0.00164955 -0.0117172 0 0 -0.00346695c0,-0.00217962 -0.00011485,-0.00354646 -0.000333191,-0.00410178 -0.000228438,-0.000546483 -0.000750941,-0.000820356 -0.00158644,-0.000820356 -0.00073201,0 -0.00121665,0.000233486 -0.00148295,0.00070803 -0.000256203,0.00046571 -0.000389985,0.0016811 -0.000389985,0.00362723l0 0.0183053c0,0.00171391 0.000133781,0.00283969 0.000389985,0.00338744 0.0002663,0.000538911 0.000778707,0.000811521 0.00155868,0.000811521 0.000855694,0 0.00143499,-0.000305425 0.00174799,-0.000916274 0.000304163,-0.000619684 0.000456875,-0.00180983 0.000456875,-0.00358811l0 -0.00451953 -0.00236641 0 0 -0.00579928 0.0137227 0 0 0.0204773 -0.0018376 0c-0.000625995,0.00252165 -0.00124694,0.00499407 -0.00187672,0.00741854 -0.00079259,0.00309337 -0.00137063,0.00608325 -0.00173411,0.00897091 -0.000355908,0.00287251 -0.000191837,0.00539037 0.000496,0.00752834 0.000625995,0.00194866 0.00158266,0.00272358 0.00285989,0.00232855 0.000767348,-0.000237272 0.00160032,-0.000969282 0.00250145,-0.00218467 0.000888508,-0.0012116 0.00210137,-0.00315648 0.00360957,-0.00583841l0.0007623 0.0023702c-0.00282581,0.00750689 -0.00552794,0.0116528 -0.00810385,0.012448 -0.0010387,0.000321832 -0.00190954,0.000164071 -0.00260999,-0.000470758 -0.000704244,-0.00064745 -0.00129995,-0.00172906 -0.00179469,-0.00326754 -0.000666381,-0.00207108 -0.00112578,-0.00438827 -0.00136684,-0.00695409zm-0.261536 -0.379273c0.00102608,0.00291163 0.00559483,0.0102178 0.00720525,0.0128455 0.00272863,0.00445138 0.0212359,0.0356211 0.0219464,0.0379673l-0.0545032 0.0306826c0.000401343,0.00146528 0.0381554,0.0675317 0.0418041,0.0715476 0.0068973,-0.00241185 0.0502865,-0.0291517 0.0552667,-0.0305665 0.00143373,0.00351743 0.00549386,0.00965622 0.00770251,0.0133541l0.015771 0.0270478c0.00245981,0.0040677 0.00635965,0.00987835 0.00790697,0.0138261 0.0266073,0.000817832 0.0668072,8.32977e-005 0.094847,6.94147e-005l0.00550017 -3.78626e-006c-0.00119393,-0.00417372 -0.043571,-0.0742397 -0.0493589,-0.084325 -0.0017808,-0.00310221 -0.00583588,-0.00935332 -0.00699574,-0.0124139 0.00248252,-0.00263271 0.0521254,-0.0288854 0.0560644,-0.032394 -0.00107404,-0.00313881 -0.0033054,-0.0059785 -0.00515057,-0.00907187 -0.00647955,-0.0108602 -0.0324583,-0.0566045 -0.0364225,-0.0618573 -0.00474544,0.00136558 -0.05221,0.0302105 -0.0574703,0.0313704 -0.000993262,-0.00239796 -0.0124126,-0.0219603 -0.0144408,-0.0252001 -0.00246864,-0.0039478 -0.0132267,-0.0220865 -0.0145329,-0.0250739 -0.00363481,0.00091375 -0.0509681,0.0281912 -0.05626,0.0312556 -0.00399576,0.00231467 -0.0166242,0.00863519 -0.0188795,0.010941l0 -1.26209e-006z"/>
 </g>
</svg>
