<?xml version="1.0" encoding="UTF-8"?>
<!DOCTYPE svg PUBLIC "-//W3C//DTD SVG 1.1//EN" "http://www.w3.org/Graphics/SVG/1.1/DTD/svg11.dtd">
<!-- Creator: CorelDRAW -->
<svg xmlns="http://www.w3.org/2000/svg" xml:space="preserve" width="1in" height="2in" style="shape-rendering:geometricPrecision; text-rendering:geometricPrecision; image-rendering:optimizeQuality; fill-rule:evenodd; clip-rule:evenodd"
viewBox="0 0 0.406079 0.324795"
 xmlns:xlink="http://www.w3.org/1999/xlink">
 <defs>
  <style type="text/css">
   <![CDATA[
    .fil0 {fill:#28166F}
   ]]>
  </style>
 </defs>
 <g id="Layer_x0020_1">
  <metadata id="CorelCorpID_0Corel-Layer"/>
  <path class="fil0" d="M0.180492 0.0941276c-0.000399236,-0.000227808 -0.000799234,-0.000456379 -0.00114133,-0.000684949 -0.0013699,0 -0.00228342,-0.00125561 -0.00353903,-0.00171199 -0.00496607,-0.00496683 -0.0107885,-0.00616531 -0.0176388,-0.0051375 -0.0023398,0.00114133 -0.00547959,0.00114133 -0.00793444,0.00022857 -0.00154056,-0.00182704 -0.0013699,-0.00331122 -0.00125561,-0.00565178 0.00199771,-0.00490893 0.00742092,-0.00565102 0.0121584,-0.00639235 0.0108457,0 0.0224334,0.00205409 0.0253446,0.0138133 -0.00114209,0.00319694 -0.0027398,0.00508036 -0.00599388,0.00553674zm-0.0212913 0.012387c-0.0041097,-0.00114209 -0.0121013,-0.00325332 -0.0121013,-0.00873367 0.00091352,-0.00319618 0.00319618,-0.0041097 0.00616454,-0.00508036 0.00382474,-0.000284951 0.00901939,-0.00131276 0.0125013,0.00108495 0.00388113,0.00131276 0.00867653,0.00433827 0.00690664,0.00901863 -0.00342475,0.00342475 -0.00896148,0.00353903 -0.0134712,0.00371046zm0.208919 0.0551982c-0.00142704,-0.0014278 -0.00525179,0.000513521 -0.00525179,-0.00256913 0.00091352,-0.0013699 0.00091352,-0.0013699 0.0017699,-0.00205485 0.000513521,-0.00205485 0.0033676,-0.00405255 0.00450893,-0.00593673 0.00119847,-0.0013699 0.00713521,-0.00833368 0.00662168,-0.00941786 5.71426e-005,0 0.000171428,0 0.000284951,5.71426e-005 0.00319694,-0.00519464 0.00622245,-0.0106179 0.00810587,-0.0163824 0.000684949,-0.000457141 0.00142704,-0.000285713 0.00228342,-0.00022857 0,0.000570664 0.00296837,0.00285408 0.00302551,0.00291122 0.0013699,0.00165561 0.00285408,0.00262551 0.00285408,0.00479464 -0.00131276,0.00433827 -0.00331122,0.00896224 -0.00587959,0.0126148 0,0.00154133 -0.00251199,0.00371046 -0.00342475,0.00525179 -0.00222628,0.00234056 -0.00439541,0.00468036 -0.00656454,0.00702092 -0.000856377,0 -0.00519464,0.00359617 -0.00548036,0.00382474 -0.0009699,0 -0.00194056,5.71426e-005 -0.00285332,0.000114285zm-0.0744347 0.0165538c-0.000742092,-0.000342856 -0.00473826,-0.00108495 -0.00548036,-0.00148418 -0.00399541,-0.000628569 -0.00861939,-0.00268342 -0.0122148,-0.00456684 -0.00262627,-0.000399236 -0.00468112,-0.00234056 -0.00719311,-0.00308265 0,-0.000171428 0,-0.000284951 0,-0.000399236 -0.0033676,-0.00159847 -0.00719159,-0.00496607 -0.0106163,-0.00582245 -0.000342856,-0.00114133 -0.00810587,-0.00587959 -0.00884796,-0.00587959 -0.00216913,-0.00331046 -0.00879082,-0.00456684 -0.012387,-0.0051375 -0.00416684,-0.00182628 -0.00998929,-0.00279694 -0.0145554,-0.00319618 -0.00228342,-0.00091352 -0.00490893,-0.00125561 -0.00736378,-0.00159847 -0.000114285,-0.000171428 -0.00861939,-0.00165561 -0.00901939,-0.00188342 -0.00450893,-0.000571426 -0.00616454,-0.000970662 -0.00827653,-0.00108495 -0.000799234,-0.000284951 -0.00616454,-0.0009699 -0.00656454,-0.00119847 -0.00873291,-0.000513521 -0.0174094,-0.00199771 -0.0262003,-0.00228342 -0.00022857,-0.000171428 -0.01056,-0.000342094 -0.0111306,-0.000570664 -0.0089051,0 -0.0178102,-0.000513521 -0.0267717,0 -0.000799234,0.00022857 -0.00696378,0.000399236 -0.00713521,0.000570664 -0.0051375,0.000285713 -0.0103321,0.00114209 -0.0154696,0.00165561 -0.000855615,0.000856377 -0.00365255,-5.71426e-005 -0.00450893,0.000799234 -0.00119923,0.000114285 -0.00405255,0.000114285 -0.00490893,0.0009699 -0.00639311,0.000342856 -0.0127862,0.00222628 -0.0190651,0.00342551 -0.00114209,0.000570664 -0.00268342,0.000399236 -0.00365408,0.00114133 -0.00998853,0.00165561 -0.0196929,0.00547959 -0.0292822,0.00856225 -0.000799234,0.000399236 -0.00445255,0.00228342 -0.00519464,0.00205485 -0.000970662,0.000799234 -0.00131276,0.000799234 -0.00262627,0.000799234 -0.000855615,-0.00639311 -0.000855615,-0.0127291 -0.000570664,-0.0191793 0.000171428,-0.000114285 0.000171428,-0.000114285 0.00154133,-0.0109028 0.000285713,-0.000570664 0.00159847,-0.00525179 0.00148418,-0.00547959 0.00313903,-0.000627807 0.0065074,0.00091352 0.00964643,0.00148418 0.00182704,0.0013699 0.00508036,0.000742092 0.00673597,0.00194056 0.00468112,0.000799234 0.00913291,0.00262551 0.013814,0.0033676 0.000399236,0.00165561 0.00365332,0.00022857 0.00428112,-0.000114285 0.00730663,-0.00690664 0.0152403,-0.0128434 0.0228898,-0.0194643 0.000399236,-0.000114285 0.000856377,-0.000285713 0.000856377,-0.000742092 0.00450893,-0.00285408 0.0088472,-0.00747806 0.0136418,-0.00970434 0.00159847,-0.00199771 0.00844872,-0.00496607 0.00844872,-0.00633597 0.000912758,0 0.00416684,-0.00211199 0.00462322,-0.00302551 0.000171428,0 0.000399236,0 0.000627807,0 0.00291122,-0.00331046 0.00822015,-0.00502245 0.011702,-0.00776301 0.00536531,-0.00296837 0.0105028,-0.00639311 0.0156975,-0.00958929 0.00713521,-0.00365332 0.0148411,-0.0085051 0.0224334,-0.0113592 0.000799234,-0.00119923 0.0027398,-0.000799234 0.0033676,-0.00211199 0.00131276,-0.000171428 0.00199771,-0.000742854 0.00308265,-0.00154133 0.000855615,-0.00022857 0.00296761,-0.00148418 0.00536531,-0.00245485 0.000627807,-0.000570664 0.00091352,-0.000570664 0.00142704,-0.00114133 -0.000114285,-0.00022857 -0.00022857,-0.000399998 -0.000342094,-0.000570664 -0.0212921,-0.0023977 -0.0437819,-0.00228342 -0.0650161,0.00119847 -0.00645026,0.000627807 -0.0126727,0.00194056 -0.0190087,0.00279694 -0.00405255,0.00159847 -0.009475,0.00131276 -0.0134712,0.00331046 -0.0023977,-0.000342094 -0.00622169,0.00182704 -0.00879082,0.00216913 0,-0.000171428 0,-0.000284951 0,-0.000399236 0.00119923,-0.000456379 0.00211199,-0.00142704 0.00308265,-0.00228342 0.00125561,-0.000684949 0.00627883,-0.00456684 0.0101036,-0.00724949 0.00302551,-0.00251123 0.00627883,-0.00496607 0.00976072,-0.00690664 5.71426e-005,-0.000171428 0.000114285,-0.000342856 0.000171428,-0.000456379 0.00171275,-0.000571426 0.00308265,-0.0027977 0.00490893,-0.00308265 0.00108419,-0.00091352 0.00108419,-0.00091352 0.00416684,-0.00268342 0,-0.000113523 0,-0.000227808 0,-0.000284951 0.00582245,-0.00291122 0.0111878,-0.00707806 0.0174102,-0.00913291 0.0009699,-0.000970662 0.00331046,-0.00119923 0.00393827,-0.00211199 0.00331122,-0.00142704 0.00633597,-0.00274056 0.00981862,-0.00382474 0.0009699,-0.000399236 0.00199771,-0.000799234 0.00302475,-0.00114209 0.00685025,-0.00211123 0.0138712,-0.00450893 0.0209492,-0.0057074 0.00022857,-0.000114285 0.000456379,-0.00022857 0.000684949,-0.000342856 0.00479541,-0.000570664 0.00964719,-0.00154133 0.014499,-0.00211199 0.00245408,-0.000742092 0.00525102,-0.000284951 0.00759158,-0.00114133 0.00970357,-0.000742092 0.00970357,-0.000742092 0.00998929,-0.000970662 0.0142133,-0.000399236 0.0283694,-0.000456379 0.0425827,0 0,5.71426e-005 0,0.000114285 5.71426e-005,0.00022857 0.0082773,0.000627807 0.0160975,0.00171199 0.0242026,0.00342475 0.00422474,0.000399236 0.00799234,0.00245485 0.0121584,0.00285408 0.00119923,0.00119847 0.00342551,0.00114133 0.00496683,0.00205485 0.0033676,0.0010278 0.0065074,0.00256837 0.00981786,0.00365332 0.000742092,0.000342856 0.0109028,0.00622169 0.0117592,0.00605102 0.000684187,0.00114133 0.00256837,0.00171199 0.0037097,0.00216913 0.000970662,0.00199771 0.00570816,0.00279618 0.00673597,0.00490817 0.00388113,0.00234056 0.00799082,0.0055375 0.0110163,0.00856301 0.000399998,0 0.000399998,0 0.0013699,0.000799234 0.00148418,0.00171199 0.00371046,0.00393827 0.0055375,0.00513674 0,0.00296837 -0.000285713,0.0085051 -0.00279694,0.0105036 -0.000742092,0.0023398 -0.00348189,0.00365255 -0.00462398,0.00565102 0.000399998,0.00154133 0.00114209,0.00285408 0.00182628,0.00428112 0.000285713,0.00125561 0.000685711,0.00199771 0.00256913,0.00793368 0.000399236,0.00359694 0.000799234,0.00719311 0.00125561,0.0107885 0.000285713,0 0.000627807,0 0.000970662,0 0.000627807,-0.0009699 0.00108419,-0.00165485 0.00119847,-0.00279618 0.000856377,-0.000399998 0.000856377,-0.000571426 0.000970662,-0.00154209 0.00131276,-0.00114133 0.00262551,-0.00605026 0.00308265,-0.00804796 0.000113523,-5.71426e-005 0.000227808,-0.000114285 0.000342094,-0.000171428 0.00199771,0.00142704 0.00405255,0.00388189 0.00525179,0.00605026 5.71426e-005,0 0.000170666,0 0.000284951,0 0.000171428,0.000742854 0.000742092,0.0013699 0.0041676,0.00799158 0.00228266,0.00319694 0.00262551,0.00782092 0.00445179,0.0112457 0.000171428,0.000227808 0.000399998,0.000456379 0.000627807,0.000684949 0.00302551,-0.00148418 0.00199771,-0.00782015 0.00348189,-0.0104464 5.79045e-005,-0.000799234 0.000114285,-0.00159847 0.00022857,-0.0023398 0.000171428,0 0.000342856,0 0.000513521,0 0.00188418,0.00222628 0.00485255,0.00359617 0.00656454,0.00622169 0.00405331,0.00382474 0.0089051,0.0101036 0.0106171,0.0153546 0.00279694,0.00188418 -0.00616454,0.0133569 -0.00730587,0.0159832 -0.00182704,0.00245408 -0.00182704,0.00245408 -0.00285408,0.00348189 -0.00268342,0.00171275 -0.0037676,0.00211199 -0.00382474,0.00234056 -0.00148418,0 -0.00296837,0 -0.00445255,0 -0.0115878,-0.00308265 -0.0245446,-0.00593673 -0.0365895,-0.00593673 -0.000513521,-0.00108419 -0.0216334,-0.00154133 -0.0236319,-0.00159847 -0.000170666,-0.000114285 -0.000284951,-0.000227808 -0.000399236,-0.000284951 -0.00679235,-0.000114285 -0.0133569,0 -0.0200357,0.000742092 -5.71426e-005,0.000342094 -5.71426e-005,0.000684949 -5.71426e-005,0.00102704 0.00622169,0.00216913 0.0135855,0.00205561 0.0196929,0.00450969 0.00148495,0 0.00251199,0.000627807 0.00399617,0.00108495 0.00428112,0.0009699 0.00970357,0.0027398 0.0134712,0.00479464 0.00456684,0.00125561 0.00867653,0.00399541 0.0130148,0.0061074 0.0013699,0.000970662 0.0027398,0.00188342 0.00422398,0.00262551 0.00582245,0.0041676 0.00627883,0.00468112 0.00719235,0.00519464 0.000684949,0.000570664 0.00593673,0.00411046 0.00593673,0.00605102 -0.00548036,0.00405255 -0.0134712,0.00936148 -0.0202643,0.0104457 -0.00662168,0.00262551 -0.0144418,0.00439541 -0.0214628,0.00536607 -0.00256837,0 -0.0051375,5.71426e-005 -0.00764873,0.000114285zm-0.249219 0c-5.71426e-005,-0.000171428 -0.000114285,-0.000342856 -0.000114285,-0.000514283 0.00673521,-0.00262551 0.0130148,-0.0065074 0.0200929,-0.00856225 0.00199771,-0.00114133 0.00496607,-0.00131276 0.00667806,-0.00245408 0.00605102,-0.00142704 0.0134712,-0.00416684 0.0199214,-0.00456684 0.00302551,-0.0010278 0.00639311,-0.00108495 0.00936148,-0.00211199 0.00188418,-5.71426e-005 0.00365332,-0.000342856 0.00548036,-0.000799234 0.00262551,-0.000171428 0.0111878,-0.00131276 0.0161538,-0.00165561 0.013414,-0.00188342 0.0274566,-0.00154056 0.040985,-0.00154056 0.00901863,0.000170666 0.0180373,0.0013699 0.0269995,0.00171199 0.00154133,0.000742092 0.0037676,0.000627807 0.00553674,0.000742092 0.00142704,0.00022857 0.00291122,0.000513521 0.00439541,0.000799234 0,0.00022857 0,0.000456379 0,0.000742092 -0.00114133,0.000742092 -0.00211199,0.00119847 -0.00359617,0.00188342 -5.71426e-005,0.000171428 -5.71426e-005,0.000342856 -5.71426e-005,0.000513521 -0.00234056,0.000342856 -0.00416684,0.00245485 -0.00633597,0.00348265 -0.0101036,-0.00108495 -0.0202643,-0.00211199 -0.0304242,-0.00285408 -0.00308265,0 -0.00308265,0 -0.0051375,-0.000342856 -0.00770663,0 -0.0153554,0 -0.0230041,0 -0.000456379,0.000114285 -0.00091352,0.00022857 -0.00131276,0.000342856 -0.0296829,0 -0.0578809,0.00673521 -0.0856225,0.0151839zm0.0114156 0.0174666c-0.000284951,-5.71426e-005 -0.000513521,-0.000114285 -0.00074133,-0.000171428 0,-0.000171428 0,-0.000284951 0,-0.000399236 0.00142704,-0.000570664 0.00285408,-0.00114209 0.0043375,-0.00171275 0.000399998,-0.000856377 0.00724949,-0.00279694 0.00822015,-0.00313903 0.014499,-0.00445255 0.0290543,-0.00707882 0.0440097,-0.00924796 0.0121013,-0.00102704 0.0239176,-0.00176913 0.0244883,-0.00199694 0.0178666,-0.00017219 0.0178666,-0.00017219 0.0275709,0 0.00502245,0.000399236 0.00502245,0.000399236 0.0061074,0.000627045 5.71426e-005,0.000171428 0.000114285,0.000342856 0.00022857,0.000514283 -0.00091352,0.000684949 -0.00182704,0.0013699 -0.0027398,0.00205485 0,0.000114285 0,0.00022857 0,0.000342094 -0.00182704,0.00119923 -0.00382474,0.00319694 -0.00570816,0.00411046 -0.0055375,-0.00137066 -0.0118163,0.000513521 -0.0174673,-0.000970662 -0.00228342,0 -0.00485179,-0.00022857 -0.00707806,0.000285713 -5.71426e-005,0.000113523 -0.000114285,0.000227808 -0.000171428,0.000342094 -0.00742092,0 -0.0146696,-0.000114285 -0.0219763,0.000684949 -0.00216913,0 -0.00839158,0.000627807 -0.00844796,0.000799234 -0.00473826,0.000114285 -0.00959005,0.000684949 -0.0142704,0.00114209 -0.00148418,0.000342094 -0.00679311,0.0009699 -0.00685025,0.00114133 -0.00496607,0.000399236 -0.00993215,0.0013699 -0.0148411,0.00205485 -0.0041097,0.00142704 -0.00913291,0.00228342 -0.0134712,0.00296837 -0.000399998,0.000170666 -0.000799234,0.000342856 -0.00119923,0.000570664zm0.176212 0.129062c-0.00199771,-0.000627807 -0.00479541,-5.71426e-005 -0.0065074,-0.00108419 -0.0010278,-0.000114285 -0.00205485,-0.00022857 -0.00308265,-0.000342856 -0.00462322,-0.00131276 -0.0078773,-0.00285332 -0.0121013,-0.0047375 -0.00353903,-0.00228342 -0.00702092,-0.00468036 -0.0104457,-0.00719235 -0.00679311,-0.00582245 -0.00879082,-0.0078773 -0.00936148,-0.00821939 -0.00262551,-0.00325408 -0.00724949,-0.0055375 -0.00976072,-0.00901939 -0.000399998,-0.000171428 -0.00091352,-0.000912758 -0.00234056,-0.00188342 -0.00530893,-0.0047375 -0.0111306,-0.00919005 -0.0164967,-0.0138712 -0.000342094,-0.000171428 -0.000627807,-0.000284951 -0.00091352,-0.000399236 -0.0104457,-0.00867653 -0.0217477,-0.016211 -0.0332783,-0.023289 -0.00713521,-0.00353979 -0.0143276,-0.00702168 -0.021862,-0.00959005 -0.00159847,-0.000799234 -0.0128441,-0.00519464 -0.0136434,-0.00536607 -0.0013699,-0.000742092 -0.00296761,-0.00176913 -0.00445179,-0.00205485 -0.00399541,-0.00171199 -0.00776301,-0.00405255 -0.0117592,-0.00582245 -0.00022857,-0.000284951 -0.00525102,-0.00296761 -0.00559388,-0.0033676 -0.00764873,-0.00428112 -0.0146133,-0.00970357 -0.021577,-0.0150125 -0.000399236,-0.00022857 -0.000799234,-0.000399236 -0.00114133,-0.000570664 0,-0.00188342 -0.00422398,-0.0027398 -0.00490893,-0.00439541 -0.00331122,-0.0013699 -0.00473826,-0.00673597 -0.00764949,-0.00816301 -0.0041097,-0.0061074 -0.0092472,-0.0132997 -0.0112449,-0.0205492 -0.0013699,-0.00182628 -0.00211199,-0.00525102 -0.00262551,-0.00753444 -0.00182704,-0.00599388 -0.00285408,-0.0122156 -0.00365332,-0.0184372 0,-0.00696454 -0.0010278,-0.0156411 0.0013699,-0.0223191 0.000399998,-0.00485179 0.00268265,-0.00941862 0.00490893,-0.0136426 0,-0.00022857 0,-0.000399236 0,-0.000570664 -0.000856377,-0.000627807 -0.0013699,-0.00091352 -0.00228342,-0.00108495 -0.00702092,-0.00291122 -0.0142133,-0.00582245 -0.021177,-0.00890434 -0.000171428,-0.000285713 -0.000342856,-0.000513521 -0.000513521,-0.000742092 0.00211199,-0.00365332 0.00565102,-0.00719235 0.00839082,-0.0105036 0.000456379,-0.000227808 0.00388113,-0.0043375 0.00764873,-0.00839082 0.000513521,0 0.00148418,-0.00165485 0.00171275,-0.00205485 0.00605026,-0.00587959 0.0124441,-0.0121013 0.0182658,-0.0182087 0.00222628,-0.00171275 0.00319694,-0.00274056 0.00450969,-0.00359617 0.00776301,-0.00799158 0.0178094,-0.0146704 0.026886,-0.0210635 0.00222551,-0.000570664 0.00616454,-0.00382474 0.00787654,-0.00496607 0.0113592,-0.00639311 0.0230612,-0.0131291 0.0351625,-0.0178666 0.000799234,-5.71426e-005 0.00142704,-0.000285713 0.00194132,-0.000799234 0.00770587,-0.00285408 0.0153546,-0.00536531 0.0231748,-0.00793444 0.0114163,-0.00291122 0.0230612,-0.00605026 0.0348197,-0.00742016 0.00188418,-0.000628569 0.00399617,-0.000799234 0.00599388,-0.000742092 0.00479464,-0.00131276 0.0103314,-0.00154133 0.0153546,-0.00154133 0.00508036,-0.00199771 0.0113592,0.00022857 0.0164967,-0.00131276 0.00959005,-0.000114285 0.0194079,-0.000684949 0.0289408,0.000570664 0.0136426,0.000513521 0.0270566,0.00256837 0.0403564,0.00605102 0.00993215,0.00313903 0.0194651,0.00656378 0.028998,0.010902 0.000284951,0.000342856 0.000284951,0.000342856 0.0065074,0.00359617 0.00684949,0.00428112 0.013699,0.0085051 0.0199786,0.0135855 0.00102704,0.00205485 0.00565102,0.00365332 0.00639311,0.00587959 0.0033676,0.00222628 0.00622169,0.00570816 0.00901863,0.00861939 0.000399236,0.00353903 0.000513521,0.00707806 0.000513521,0.0106171 -0.000513521,0.00279694 -0.00102704,0.00565102 -0.00154056,0.0085051 0.00456607,0.00285408 0.00576455,0.00388113 0.00684949,0.00433827 0.00399541,0.0031398 0.00799158,0.00633597 0.011987,0.00953291 0.00022857,0.000456379 0.000970662,0.0009699 0.00119847,0.00142704 0.00131276,0.00102704 0.0106179,0.00930434 0.0106179,0.0111306 0.00490893,0.00433827 0.00799082,0.0110171 0.0109592,0.0167253 0.00724949,0.00450893 0.0126719,0.010902 0.0170674,0.0186087 -0.000342094,0.00684949 -0.00393827,0.0137561 -0.00650664,0.020035 -0.00022857,0.000171428 -0.000399998,0.000399998 -0.000571426,0.000628569 -0.000856377,0.00291122 -0.00302551,0.00570816 -0.0047375,0.00816225 -0.00308265,0.00319694 -0.00616454,0.00639311 -0.00919005,0.00964719 -0.0037676,0.00279694 -0.00450969,0.00308189 -0.00719235,0.00502322 -0.000684949,0.00154056 -0.00605102,0.0140418 -0.00822015,0.0147268 -0.00399541,0.00702092 -0.0111878,0.0131291 -0.0174666,0.0181523 -0.00216913,0.00148418 -0.00433827,0.00302551 -0.0065074,0.00456607 -0.00119923,0.000399998 -0.00119923,0.000399998 -0.00896224,0.00439541 -0.00565102,0.00194132 -0.011302,0.0037676 -0.0171237,0.0051375 -0.00256913,0.000285713 -0.0051375,0.000570664 -0.00764949,0.000856377 0,-0.00228342 0.00148418,-0.00616531 0.000513521,-0.00810587 -0.00114133,0 -0.00821939,0.00433827 -0.0101028,0.00587959 -0.0103321,0.00439541 -0.0204357,0.00907577 -0.0309385,0.0129577 -0.00245485,0.00542245 -0.000513521,0.0117584 0.000856377,0.0172388 0.00154133,0.00291122 0.00234056,0.00570816 0.00502322,0.00764873 0.00262551,-0.00108495 0.00559388,-0.00302551 0.00833368,-0.00371046 0.000684949,-0.0013699 0.00359617,-0.00148418 0.00399541,-0.00268265 0.00428112,-0.0023977 0.00822015,-0.00587959 0.0118735,-0.00919005 0.00142704,-0.00182704 0.0037097,-0.00353903 0.00485179,-0.00547959 0.00325408,0 0.0047375,0.0123291 0.00530817,0.0152403 0,0.00553674 -0.000284951,0.0106171 -0.00171199,0.0159832 -0.00131276,0.00131276 -0.00245408,0.00673521 -0.00308265,0.00856225 -0.00114133,0.00142704 -0.00165561,0.00536531 -0.00302551,0.00627883 0,0.00211199 -0.00433827,0.00804873 -0.00570816,0.0104457 -0.00142628,0.00194132 -0.00279694,0.00388189 -0.00416684,0.00587959 -0.00262551,0.00279694 -0.00353903,0.00405255 -0.00759158,0.00810587 -0.00148418,0.0009699 -0.00342475,0.00251123 -0.00456684,0.00388113 -0.00616454,0.00428112 -0.0127291,0.00804873 -0.0198643,0.0105036 -0.00570816,0.00148342 -0.0120441,0.00359541 -0.0180373,0.0033676 -0.00022857,5.71426e-005 -0.000457141,0.000114285 -0.000628569,0.000227808 -0.00376684,0 -0.0074773,5.71426e-005 -0.0111878,0.000114285zm-0.0027977 -0.0693132c0,-0.000113523 0,-0.000227808 0,-0.000342094 -0.00131276,-0.000399998 -0.00371046,-0.000799234 -0.00450969,-0.00205485 -0.000342094,0 -0.000627807,0 -0.00091352,0 -0.00154056,-0.00154133 -0.00359617,-0.00188418 -0.00508036,-0.00359617 -0.0009699,0 -0.00570816,-0.00342475 -0.0061074,-0.00462398 -0.0027398,-0.000456379 -0.00919005,-0.00793444 -0.00998929,-0.00953215 -0.00119847,-0.00108495 -0.0027398,-0.00262627 -0.0031398,-0.00416684 -0.000627807,-0.000171428 -0.00114133,-0.000799234 -0.00114133,-0.00148418 -0.00022857,-5.71426e-005 -0.000457141,-0.000114285 -0.000627807,-0.000171428 -0.0013699,-0.00199771 -0.0037676,-0.00542245 -0.00439541,-0.00770663 -0.00262551,-0.00262551 -0.00194056,-0.00696378 -0.00542321,-0.00901863 -0.000798473,0 -0.00211199,0 -0.00268265,-0.000570664 -0.00251123,-0.000171428 -0.00502322,-0.000285713 -0.0074773,-0.000399998 -0.000114285,-0.000170666 -0.00022857,-0.000284951 -0.000342856,-0.000399236 -0.00245408,-5.71426e-005 -0.00490893,-0.000114285 -0.00730663,-0.000171428 -0.0009699,-0.000799234 0.000856377,-0.00239694 0.00159847,-0.00262551 0.000513521,-0.00165561 0.00148418,-0.00268265 0.00308265,-0.00331046 0.000399236,-0.000570664 0.000856377,-0.000799234 0.00108419,-0.00125638 0.00285408,-0.00142704 0.00479541,-0.0050796 0.00799158,-0.00587883 0.00131276,-0.00348189 0.00747806,-0.0023977 0.00993215,-0.0023977 0.00091352,0.000114285 0.0023977,0.000171428 0.00302551,0.000799234 0.00142704,0.000114285 0.00285408,0.00022857 0.00428112,0.000399236 5.71426e-005,5.71426e-005 0.000114285,0.000171428 0.00022857,0.000285713 0.00313903,0.000342094 0.00388113,0.000456379 0.00433827,0.00359617 0.000399236,0.000285713 0.000399236,0.000285713 0.000798473,0.00114133 0,0.00194132 0.00154209,0.0037676 0.00154209,0.00576531 0.00125561,0.00171275 0.00131276,0.00450969 0.00279618,0.00599388 0.00091352,0.0037676 0.00388189,0.00719235 0.00519464,0.0107314 0.00188418,0.00188342 0.0027398,0.00468036 0.00553674,0.00559388 0.0010278,0.0010278 0.00228342,0.0013699 0.00325408,0.00234056 5.71426e-005,-0.000342856 0.000114285,-0.000684949 0.000171428,-0.0010278 -0.00148418,-0.00165485 -0.00211199,-0.00291122 -0.00251199,-0.00502322 -0.00131276,-0.00131276 -0.00194056,-0.00388113 -0.0023398,-0.00565102 -0.000799234,-0.000513521 -0.000628569,-0.0013699 -0.000685711,-0.00222628 -0.00108419,-0.000912758 -0.000912758,-0.00199771 -0.0009699,-0.0033676 -0.000171428,-0.000114285 -0.000285713,-0.00022857 -0.000399998,-0.000342856 -5.71426e-005,-0.00159771 -0.000113523,-0.00313903 -0.000170666,-0.00468036 -0.00091352,-0.00188342 -0.00165561,-0.00742092 -0.000514283,-0.00913291 0.000856377,0 0.00188418,-0.00022857 0.00251199,0.000399236 0.00348189,0.000399998 0.00645026,0.00222628 0.00976072,0.00268265 0.00142704,0.00114209 0.00405255,0.00211199 0.00576531,0.00251199 5.71426e-005,0.000285713 0.000742092,0.000742092 0.00091352,0.00131276 -5.71426e-005,0.00205485 -0.000114285,0.0041097 -0.000171428,0.00622169 -0.000171428,5.71426e-005 -0.000285713,0.000171428 -0.000399236,0.000285713 0,0.00199771 0,0.00405255 5.63807e-005,0.0061074 0.000114285,0.000114285 0.00022857,0.00022857 0.000342856,0.000342856 0.000171428,0.00308265 0.00102704,0.0114735 0.00331046,0.0137569 0.000399998,0.00239694 0.00274056,0.0047375 0.00331122,0.00713521 0.00302475,0.00148418 -0.00359617,0.00662168 -0.00433827,0.00736301 -0.000684949,0.00022857 -0.00456684,0.00319694 -0.00456684,0.00399617 -0.00176913,0.000399236 -0.00285408,0.00176913 -0.00462322,0.00239694zm-0.0154689 -0.218436c-0.00256837,-0.00102704 -0.00405255,-0.00222628 -0.00490893,-0.00525179 0.00022857,-0.00102704 0.000514283,-0.00205485 0.000799234,-0.00302475 0.0010278,-0.000970662 0.0010278,-0.000970662 0.00154133,-0.00182704 0.000627807,-0.000284951 0.000627807,-0.000284951 0.00302551,-0.0023398 0.00422398,-0.00222628 0.00742016,-0.00371046 0.0121013,-0.00462398 0.00313903,5.71426e-005 0.00627883,0.000114285 0.00941862,0.000171428 0.00662092,0.00119847 0.0166102,0.00439541 0.0147839,0.0131291 -0.000399998,0.000170666 -0.000570664,0.000570664 -0.00291122,0.00176913 -0.00131276,0 -0.00262551,0 -0.00388113,0 -0.00125638,-0.000342856 -0.00291122,-0.00119847 -0.00582245,-0.00228342 -0.00159847,-0.00022857 -0.00319694,-0.000342094 -0.00468112,-0.000970662 -0.00154056,0 -0.00308189,0 -0.00456607,0 -0.000114285,0.000114285 -0.00022857,0.00022857 -0.000342856,0.000342856 -0.00422398,0.000456379 -0.00793444,0.00211199 -0.0116449,0.00393827 -0.000684949,0.000685711 -0.00199771,0.000399998 -0.00291122,0.000970662zm0.0492623 0.00325408c-0.00022857,-0.000285713 -0.00022857,-0.000285713 -0.0023977,-0.00091352 -0.00325408,-0.00216913 -0.00251123,-0.00348189 -0.00251123,-0.00696378 0.000342094,-0.00108495 0.000342094,-0.00108495 0.0009699,-0.00188418 0.000456379,-0.00199771 0.00102704,-0.00388113 0.0013699,-0.00593597 0.00194132,-0.000970662 0.0103893,0.00154056 0.0117592,0.00325332 0,0.0061074 -0.00256913,0.011987 -0.00919005,0.0124441zm-0.0923013 0.00513674c-0.00216913,-0.000570664 -0.00422398,-0.0013699 -0.00599388,-0.0027398 -0.00536531,-0.0107885 0.0101036,-0.0100464 0.015926,-0.0122727 0.00216913,-0.00148342 0.00468036,-0.0037097 0.00599312,-0.00605026 0.000114285,-5.71426e-005 0.00022857,-0.000114285 0.000399998,-0.000114285 0.0010278,-0.0051375 0.0103314,-0.00496607 0.0125005,-0.000570664 0,0.00182628 0,0.00365332 0,0.00553674 -0.00222628,0.00622245 -0.00525102,0.0101036 -0.0110163,0.013414 -0.00605102,0.00245485 -0.0112449,0.00268342 -0.0178094,0.00279694zm-0.0323084 0.00473826c-0.00348189,-0.00148418 -0.00433827,-0.0031398 -0.00342475,-0.00685025 0.00256837,-0.00422398 0.00519388,-0.00684949 0.00964643,-0.00907577 0.00428112,-0.00119847 0.00724949,-0.00171275 0.011702,-0.00091352 0.000684949,0.000856377 0.00142704,0.00171275 0.00216913,0.00256913 -0.000285713,0.00570816 -0.0065074,0.0104457 -0.0110742,0.0128434 -0.0013699,0.000399236 -0.00268265,0.000856377 -0.00399541,0.00131276 -0.00171275,0 -0.0033676,5.71426e-005 -0.00502322,0.000114285zm-0.0245454 0.00399541c-0.000684949,-0.000170666 -0.00131276,-0.000284951 -0.00194056,-0.000399236 0,-0.000114285 0,-0.00022857 0,-0.000342856 -0.00291122,-0.00194056 -0.000285713,-0.00622169 0.00194056,-0.00753444 0.000342856,-0.000114285 0.000742092,-0.00022857 0.00114209,-0.000285713 0,-0.000171428 0,-0.000284951 0,-0.000399236 0.00433827,-0.00182704 0.00873291,-0.00365332 0.0131283,-0.00542321 0.000285713,0 0.000628569,0 0.000970662,5.71426e-005 0,0.00211199 -0.00291122,0.00565102 -0.00405255,0.00736378 -0.000970662,0.00108419 -0.00171275,0.00251199 -0.00296837,0.00291122 -0.00256913,0.00228342 -0.00468112,0.00342475 -0.00822015,0.00405255zm0.118902 0.000570664c-0.00496607,-0.00125561 -0.0138712,-0.00353903 -0.00976072,-0.0103885 0.00605026,-0.00525179 0.0137561,-0.00428112 0.0206064,-0.00165561 5.63807e-005,0.000114285 0.000114285,0.000285713 0.00022857,0.000457141 5.63807e-005,-5.71426e-005 0.000170666,-0.000114285 0.000284951,-0.000171428 0.00188342,0.00114133 0.00302551,0.00222628 0.00371046,0.00450969 -0.000399998,0.00353903 -0.00382474,0.00456607 -0.00679311,0.00599312 -0.000227808,-5.71426e-005 -0.00730663,0.00091352 -0.00827653,0.00125561zm0.0578237 0.00131276c-0.00696378,-0.00228266 -0.0132434,-0.0061074 -0.0147839,-0.0140418 0,-0.00804873 0.0130712,-0.00382474 0.0160395,-0.000342094 0.0037676,0.00279694 0.00936148,0.0102742 0.00450969,0.0142704 -0.00194056,0 -0.00388189,5.63807e-005 -0.00576531,0.000113523zm0.0203778 0.00707882c-0.000170666,-0.000171428 -0.000342094,-0.000342856 -0.000513521,-0.000514283 -0.00302475,-0.000342094 -0.00439541,-0.00256837 -0.00439541,-0.00542245 -0.000570664,-0.00262551 -0.00114133,-0.00525179 -0.00165485,-0.0078773 -0.00131276,-0.0031398 -0.00251199,-0.00616454 -0.00422398,-0.00913291 5.63807e-005,-0.000285713 0.000113523,-0.000513521 0.000170666,-0.000742092 0.000399998,0 0.000799234,5.71426e-005 0.00119923,0.000113523 0.00490893,0.0027977 0.0111878,0.00599388 0.0147839,0.0103321 0.000456379,0.0013699 0.00091352,0.0027398 0.00142704,0.00411046 0.000114285,0.00416608 0.000114285,0.00416608 -0.000114285,0.00599312 -0.000399236,0.000285713 -0.000399236,0.000285713 -0.000799234,0.00114133 -0.00222628,0.0017699 -0.0031398,0.00188418 -0.00587959,0.00199847zm-0.113763 0.000170666c-0.00850587,-0.00468036 -0.000570664,-0.0180944 0.0047375,-0.0224327 0.00353903,-0.00205485 0.00627883,-0.00319694 0.00827653,0.00125561 0.000685711,0.00393827 0.000171428,0.00684949 -0.0009699,0.0106171 -0.00251199,0.00473826 -0.00639311,0.00993215 -0.0120441,0.01056zm0.0829398 0.00856225c-0.000457141,-0.000284951 -0.000457141,-0.000284951 -0.00348189,-0.000684949 -0.00302551,-0.00114133 -0.00302551,-0.00114133 -0.00519464,-0.00171199 -0.00262627,-0.00194056 -0.00536607,-0.00353903 -0.00770587,-0.00587959 -0.00308265,-0.00428112 -0.00844872,-0.0129577 -0.00114209,-0.0158689 0.00159847,0 0.0031398,5.71426e-005 0.00468112,0.000456379 0.00319618,0.00302551 0.00547959,0.00667883 0.00901863,0.0093051 0.00468036,0.00239694 0.0104457,0.00188342 0.0130148,0.00702092 0,0.00131276 0,0.00268265 0,0.00405255 -0.00211199,0.00393827 -0.00530893,0.00319694 -0.00919005,0.00331046zm-0.0489194 0.00188418c-0.000285713,-0.000171428 -0.000570664,-0.000285713 -0.000856377,-0.000399998 -0.0047375,0 -0.0159253,-0.00405255 -0.0123298,-0.01056 0.000571426,-0.000570664 0.00114209,-0.00114133 0.00171275,-0.00171199 0.00724949,-0.00125638 0.013414,0.00376684 0.020835,0.00131276 0.00251123,0 0.00508036,0 0.00764873,5.71426e-005 0.00222628,0.00142704 0.00319694,0.00228266 0.00302551,0.00490893 -0.00199771,0.0023398 -0.00371046,0.0041097 -0.00679311,0.00496607 -0.00348189,0.00171199 -0.00936072,0.0013699 -0.0132426,0.00142704zm-0.030425 0.00839082c-0.000170666,-0.000114285 -0.000342094,-0.00022857 -0.000456379,-0.000285713 -0.00947577,-0.000742092 -0.0187793,-0.00245408 -0.0224898,-0.0125577 0,-0.00131276 0,-0.00262551 0,-0.00388189 0.0013699,-0.00382398 0.00319618,-0.00348189 0.00696378,-0.00376684 0.00256837,0.000742092 0.00502322,0.00348189 0.00667883,0.00547959 0.000742092,0.000513521 0.00148342,0.0010278 0.00228266,0.00159847 0.000856377,0.000171428 0.000856377,0.000171428 0.00131352,0.000570664 0.00154133,0.000171428 0.00154133,0.000171428 0.00810511,0.000171428 0.00450969,-0.000970662 0.00764949,-0.0010278 0.0107885,0.00251123 0.000627807,0.00251199 0.000627807,0.00251199 0.000856377,0.0027977 -0.000456379,0.000912758 -0.000456379,0.000912758 -0.000856377,0.00245408 -0.0041097,0.0041097 -0.00742016,0.00439541 -0.0131862,0.00490893zm0.078773 0.00645026c-0.00159771,-0.000970662 -0.00513674,-0.000970662 -0.00713521,-0.00165561 -0.00342475,-0.00256837 -0.0101607,-0.00690664 -0.00656378,-0.0117584 0.00662092,-0.00291122 0.0202064,0.0027398 0.0202064,0.0108457 -0.00119847,0.00239694 -0.00416684,0.00245408 -0.0065074,0.00256837zm0.0168967 0.00251123c-0.000742092,-0.000342094 -0.00148418,-0.000627807 -0.00216913,-0.000912758 -0.00302551,-0.00302551 -0.0031398,-0.00685025 -0.000627807,-0.0103321 0.0037097,-0.00331046 0.00793368,-0.00582245 0.0127291,-0.00719235 0.000912758,-0.000171428 0.00182628,-0.000342094 0.00279694,-0.000513521 0.00565102,0 0.0164395,0 0.013414,0.00907577 -0.000570664,0.000571426 -0.00114133,0.00114209 -0.00171199,0.00171275 -0.00159847,0.000399236 -0.00159847,0.000399236 -0.00228342,0.000799234 -0.00251199,5.71426e-005 -0.00291122,-0.000171428 -0.0069074,-0.000171428 -0.00416684,0.00091352 -0.00730587,0.00268265 -0.0103885,0.00576531 -0.0013699,0.000856377 -0.00325408,0.00165561 -0.00485179,0.00176913zm-0.0468074 0.0224334c-0.00302551,-0.000856377 -0.0078773,-0.00291122 -0.00844796,-0.00633597 0.00142704,-0.00142704 0.00816301,0.00159847 0.0103893,0.00205485 0.00405255,0 0.00587883,-0.00142704 0.00730587,-0.00530893 0.00108495,-0.00108419 0.00302551,-0.000227808 0.00439541,0 0.000342856,0.00536607 -0.00262551,0.00736378 -0.00713521,0.00947577 -0.00216913,0 -0.00433827,5.71426e-005 -0.0065074,0.000114285zm-0.18112 0.00593673c-0.000571426,-0.000342856 -0.00359617,-0.0010278 -0.00462398,-0.00148418 -0.00131276,-0.000171428 -0.00148418,-0.000399236 -0.0149554,-0.00416684 -0.00353903,-0.000570664 -0.00684949,-0.00199847 -0.0103314,-0.00285408 -0.00216913,0 -0.00422398,-0.00182704 -0.00627959,-0.00148418 -0.00142628,-0.00142704 -0.00702092,-0.0023977 -0.00907577,-0.00262551 -0.000627807,-0.000457141 -0.000627807,-0.000457141 -0.00154133,-0.000799234 -5.71426e-005,-0.000171428 -5.71426e-005,-0.000342856 -5.71426e-005,-0.000514283 0.00251199,-0.000684949 0.0051375,-0.00102704 0.0119878,-0.00256837 0.00684949,-0.00091352 0.0136997,-0.00199771 0.0205492,-0.00268265 0.00199771,0 0.00439541,0.000114285 0.00627883,-0.000342856 0.00622169,0 0.0124441,0 0.018723,0 0.00342475,0.000856377 0.00713521,5.71426e-005 0.0107314,0.00119923 -0.000457141,0.0023398 -0.00901939,0.00799082 -0.0114163,0.0103885 -0.000571426,0.000284951 -0.00302551,0.00171275 -0.00302551,0.00245408 -0.00228342,0.000571426 -0.00485179,0.00399617 -0.00696378,0.00548036zm0.228498 0.00433827c-0.00131276,-0.000285713 -0.00131276,-0.000285713 -0.00216913,-0.000799234 -0.00165561,-5.71426e-005 -0.00896148,-0.000970662 -0.00941862,-0.00165561 -0.00114133,0 -0.00382474,0.000399236 -0.00450969,-0.000627807 0.00171275,-0.00091352 0.00171275,-0.00091352 0.00302551,-0.00131276 0.000514283,-0.00108495 0.00194132,-0.0013699 0.00302551,-0.00154133 0.000742092,-0.00154133 0.00730663,-0.00319618 0.00913291,-0.00302551 5.71426e-005,-0.000114285 0.000114285,-0.000227808 0.000171428,-0.000342094 0.00804873,-0.00154133 0.0173531,-0.00382474 0.0255725,-0.00199771 0.00433827,0.000170666 0.00941862,0.000799234 0.013414,0.00256837 0.000285713,0.000742092 0.000285713,0.000742092 0.00022857,0.00114133 -0.00211199,0.0010278 -0.00844796,0.000571426 -0.0110735,0.000628569 -0.000342856,0.000227808 -0.00256913,0.000227808 -0.00959005,0.00102704 -0.00268265,0.000627807 -0.00530817,0.00131276 -0.00793444,0.00199771 -0.000284951,0.000627807 -0.0037676,0.00142704 -0.00456607,0.00148418 -0.000628569,0.00131276 -0.00382474,0.00216913 -0.00530893,0.00245485zm-0.102918 0.000570664c-0.00439541,-0.00142704 -0.00804873,-0.00251199 -0.0109599,-0.00627883 0,-0.00131276 0,-0.00262551 5.71426e-005,-0.00388189 0.00382474,-0.00502322 0.0111306,-0.00422398 0.016611,-0.00325332 0.00428112,0.00194056 0.00930434,0.00376684 0.00884796,0.00913291 -0.00416684,0.00416684 -0.0089051,0.00399541 -0.0145561,0.00428112zm-0.0435533 0c-0.0017699,-0.000399998 -0.00428112,-0.00142704 -0.00610816,-0.00142704 -0.00405255,-0.00154133 -0.0118727,-0.00570816 -0.00873291,-0.0112449 0.00285408,-0.00251199 0.00405255,-0.00245485 0.00799082,-0.00245485 0.0023977,0.00119847 0.00485255,0.00285408 0.00747806,0.00342475 0.00154133,0.00154133 0.00867653,0.000571426 0.009875,0.000571426 0.00405331,-0.00188418 0.00707806,-0.00348265 0.0116449,-0.00285484 0.00234056,0.00211275 0.00405255,0.00702168 0.000456379,0.00879082 -0.00536531,0.00536607 -0.0156403,0.00508036 -0.0226041,0.00519464zm0.100236 0.00171199c-0.00348189,-0.00353903 -0.00742092,-0.00679235 -0.0114163,-0.00981786 -0.00171275,-0.00108419 -0.00473826,-0.00262551 -0.00764949,-0.00450969 -0.000570664,0 -0.000855615,-0.000284951 -0.00125561,-0.000570664 -0.00388113,-0.00108419 -0.00730663,-0.00359617 -0.0113592,-0.00422398 -0.00279694,-0.00182628 -0.00941862,-0.00262551 -0.0128434,-0.00325332 -0.00428112,-0.00022857 -0.00867653,-0.00108495 -0.0129577,-0.00131276 -0.00810587,0 -0.00810587,0 -0.0110163,0.000227808 -0.000684949,0.000399998 -0.000457141,-0.000799234 -0.000457141,-0.00114133 0.00245485,-0.000513521 0.00684949,-0.00119847 0.00901863,-0.00234056 0.0110742,-0.00205485 0.0220342,-0.00416684 0.0332791,-0.00416684 0.0023977,-0.000684949 0.00496607,-0.000513521 0.00742016,-0.000970662 0.00610816,-0.000227808 0.0122163,-0.000399236 0.0183809,-0.000570664 0.000114285,-0.000114285 0.000227808,-0.00022857 0.000342094,-0.000342094 -0.00159771,-0.00245485 -0.00445255,-0.00308265 -0.00627883,-0.00490893 -0.0115306,-0.00228342 -0.0238033,-0.00171275 -0.0355046,-0.00125638 -5.71426e-005,-0.000171428 -5.71426e-005,-0.000284951 -5.71426e-005,-0.000399236 0.00222628,-0.00251199 0.00456684,-0.00353903 0.00799158,-0.00353903 0.000742092,-0.00154133 0.0115306,-0.00142704 0.0135283,-0.00188418 0.00827653,0 0.0171245,-0.000570664 0.0253439,0.000742092 0.00159847,0.000799234 0.00542321,0.00262627 0.00582245,0.00422474 0.00234056,0.000742092 0.00433827,0.00308189 0.0065074,0.00433827 0.00154133,0.00182628 0.00450969,0.0027398 0.00570816,0.00456607 0.00114209,0 0.00468112,0.00262551 0.00582245,0.0037676 0.00125561,0.000456379 0.00125561,0.000456379 0.00171199,0.000799234 0.00816301,0.0009699 0.0164395,0.00194056 0.0240319,0.00519388 0,0.00022857 0,0.000457141 0,0.000684949 -0.00839082,0.000171428 -0.0170102,0.000684949 -0.0250018,0.00325408 -0.0013699,0 -0.00473826,0.00114133 -0.00547959,0.00211199 -0.00450969,0.00148418 -0.00844872,0.00433827 -0.0126727,0.00645026 -0.0023398,0.00171275 -0.0023398,0.00171275 -0.0041097,0.00268265 -0.00199771,0.0017699 -0.00439541,0.00359617 -0.00582245,0.00587959 -0.000342094,5.71426e-005 -0.000684949,0.000171428 -0.00102704,0.000284951zm-0.145502 0.00022857c-0.00479464,-0.00159847 -0.00776301,-0.00724949 -0.0023398,-0.0106171 0.00462322,-0.00125561 0.00879006,-0.00342475 0.0118727,-0.00713521 0.00108419,-0.00331046 0.00251123,-0.00593673 0.00462322,-0.00861939 0.00439541,-0.00216913 0.0105036,-0.00211199 0.0115878,0.00382474 0,0.00976072 -0.00702092,0.0156403 -0.0144411,0.0203207 -0.00131352,0.000399998 -0.00131352,0.000399998 -0.00194132,0.00091352 -0.00313903,0.000799234 -0.00616454,0.00119847 -0.00936148,0.00131276zm-0.036361 0.0190087c-0.000171428,-0.000114285 -0.000342094,-0.00022857 -0.000456379,-0.000342856 0,-0.00553674 0.00821939,-0.0126719 0.0133569,-0.0142133 0.00599388,0 0.00896224,-0.000285713 0.00867653,0.00645026 -0.00108419,0.00165561 -0.00262551,0.00268265 -0.00371046,0.00422398 -0.000284951,0.000114285 -0.000513521,0.00022857 -0.000742092,0.000342856 -0.00582245,0.000627807 -0.0113592,0.00268265 -0.0171245,0.00353903zm-0.024374 0.00342475c-0.00171199,-0.00119847 -0.00462322,-0.00108495 -0.00656378,-0.00245485 0.000227808,-0.0041097 0.000855615,-0.00804873 0.00114133,-0.0121013 0.00159771,-0.000856377 0.00428112,0.00119923 0.00599312,0.00188342 0.00291122,0.000399998 0.00291122,0.000399998 0.00519464,0.000399998 0.00285408,-0.000627807 0.00530893,-0.00108419 0.00822015,-0.000742092 0.00228342,0.00199771 0.00188342,0.00291122 0.00188342,0.00605102 -0.00268265,0.00622169 -0.00993215,0.00673521 -0.0158689,0.00696378zm0.24431 0.013699c-0.000170666,-0.000284951 -0.00228266,-0.00102704 -0.00331046,-0.00159771 -0.000627807,-5.71426e-005 -0.0031398,-0.00114209 -0.011702,-0.00416684 -0.00108419,-0.000742092 -0.00251123,-0.00091352 -0.00382398,-0.00131276 -0.00336837,-0.00188418 -0.00804873,-0.00296837 -0.0115878,-0.00405331 -0.00565102,-0.000799234 -0.011302,-0.00393827 -0.0170674,-0.00496607 -0.00508036,-0.00176913 -0.0106171,-0.00313903 -0.0159832,-0.00399541 -0.00188342,-0.00091352 -0.00479464,-0.00119923 -0.00690664,-0.00148418 -0.00388189,-0.00148418 -0.00930434,-0.0010278 -0.0126719,-0.00291122 -0.00696454,-0.000456379 -0.0136997,-0.00216913 -0.0206643,-0.00245485 -0.000912758,-0.000227808 -0.00182628,-0.000399236 -0.0027398,-0.000570664 -0.0104457,-0.000684949 -0.0210056,-0.00142704 -0.031452,-0.00125561 -0.000170666,-0.000114285 -0.000284951,-0.000171428 -0.000399236,-0.00022857 -0.0174102,0.000171428 -0.0174102,0.000171428 -0.0178094,0.000342856 -0.0115306,0.000342094 -0.0228898,0.00182628 -0.0343633,0.00285408 -0.00159847,0.000627807 -0.00365332,0.00131276 -0.00365332,-0.00091352 0.00656454,-0.00171199 0.0133005,-0.00285408 0.0200929,-0.00365332 0.0017699,-0.000742092 0.00365332,-0.000399236 0.00530893,-0.00119847 0.00450893,-0.000342856 0.00958929,-0.000570664 0.0139847,-0.00142704 0.00684949,-0.000171428 0.0135855,-0.000799234 0.0203778,-0.00119923 0.0131291,0 0.0259725,0.000856377 0.0390444,0.00171275 0.00479464,0.00091352 0.00993215,0.00131276 0.0147839,0.00176913 0.000171428,0.000115047 0.000399998,0.00022857 0.000627807,0.000342856 0.00873367,0.00091352 0.0172388,0.00256837 0.025801,0.00439541 0.00108419,0 0.0017699,0.000171428 0.0027398,0.000570664 0.00296837,0.000399998 0.00296837,0.000399998 0.00867653,0.00171275 0.00188342,0.00102704 0.00479464,0.000970662 0.00685025,0.00188342 0.00565102,0.00131276 0.011587,0.00342475 0.017238,0.00456684 0.000742092,0.000399236 0.0069074,0.00228342 0.00759235,0.00268265 0.00382398,0.00125561 0.00776301,0.00251123 0.011302,0.00445255 0.00234056,0.000799234 0.00759158,0.00256837 0.00873367,0.00450893 -0.00165561,0.00285408 -0.00587959,0.00525179 -0.00901939,0.00559388zm-0.0150125 0.0551982c0.000856377,-0.00285408 0.00325408,-0.00542245 0.00485179,-0.00787654 0.00148495,-0.00285484 0.00148495,-0.00285484 0.00148495,-0.0031398 0.000113523,-5.71426e-005 0.000227808,-5.71426e-005 0.000399236,-5.71426e-005 0.000114285,-0.000457141 0.000227808,-0.00091352 0.000399236,-0.00131276 0.00125638,-0.000627807 0.00268342,-0.00736378 0.00302551,-0.00867653 -5.71426e-005,-0.000742092 -5.71426e-005,-0.00142704 -5.71426e-005,-0.00211199 -0.0105028,-0.00553674 -0.0206064,-0.00947577 -0.032137,-0.0135283 -0.00102704,0.000170666 -0.00713521,-0.00182704 -0.00827653,-0.00245485 -0.00587959,-0.00142704 -0.0118727,-0.00291122 -0.0178666,-0.0033676 -5.71426e-005,-0.000114285 -5.71426e-005,-0.000171428 -5.71426e-005,-0.00022857 -0.00279694,-0.000284951 -0.00553674,-0.000570664 -0.0082773,-0.000856377 0.000628569,-0.00388113 0.0167253,-0.00753444 0.0197508,-0.00827653 0.000799234,0 0.00159847,0 0.0023977,0 0.0009699,0.000570664 0.00279618,0.0013699 0.00348189,0.00228342 0.00296837,0.00182628 0.00936072,0.00530817 0.0100464,0.00547959 0.0085051,0.00428112 0.0171816,0.0082773 0.0260288,0.0120441 0.000114285,-5.71426e-005 0.00022857,-5.71426e-005 0.000399236,-5.71426e-005 0,0.000114285 0,0.00022857 5.71426e-005,0.000399998 0.0037676,0.00131276 0.00747806,0.00285408 0.0114742,0.00325332 0.00890434,0 0.0176952,-0.000912758 0.0263717,-0.00302551 0.00639235,-0.00188342 0.0128426,-0.00416684 0.0189508,-0.00650664 0.00022857,-0.000742854 0.00462322,-0.00199847 0.00565102,-0.00228342 0.00228342,-0.00108495 0.00462322,-0.00262551 0.00690664,-0.00348189 0.00148418,-0.00108495 0.00331122,-0.00234056 0.00502322,-0.00296837 0.00319694,0.000227808 0.00622245,0.00154133 0.00930434,0.00256837 0.000514283,0.00222628 -0.00205485,0.00519464 -0.00251123,0.0075352 -0.000456379,0 -0.00587959,0.00844796 -0.00685025,0.00970357 -0.00222551,0.00222628 -0.00445179,0.00445255 -0.00662092,0.00673597 -0.000799234,0.000627807 -0.00622245,0.00393827 -0.00707882,0.00565102 -0.000170666,-5.71426e-005 -0.000284951,-5.71426e-005 -0.000399236,-5.71426e-005 -0.00331046,0.00205485 -0.00867653,0.00530817 -0.0127291,0.00490893 0.000171428,-0.000456379 0.000342856,-0.000856377 0.000570664,-0.00125561 0.000114285,-5.71426e-005 0.000285713,-0.000114285 0.000456379,-0.000114285 0,-0.000171428 5.71426e-005,-0.000342856 0.000114285,-0.000457141 0.00622245,-0.00496531 0.0125584,-0.0153546 0.0125584,-0.0235176 -0.000970662,0.000171428 -0.00131276,0.000285713 -0.00131276,0.0013699 -0.000742092,0.00114209 -0.0051375,0.00964719 -0.00742092,0.00873367 -0.000627807,-0.00165485 0.000742092,-0.00639311 -0.00108419,-0.00639311 -0.0023977,0.00399617 -0.00450969,0.00696454 -0.00770663,0.0101607 -0.000227808,-0.000114285 -0.000399236,-0.00022857 -0.000570664,-0.000285713 -0.000114285,-0.000627807 -0.000627807,-0.00656378 -0.00182628,-0.00684949 -0.00125561,0.00182704 -0.00450969,0.00782015 -0.00724949,0.00782015 -0.00091352,-0.00188342 0,-0.00433827 -0.00125561,-0.00627883 -0.00245485,0.00194056 -0.00485179,0.00645026 -0.00696454,0.00913291 -0.00205485,0.00199771 -0.00439465,0.00399541 -0.00627883,0.0061074 -0.00782015,0.0055375 -0.0156403,0.0102179 -0.0251732,0.0115306zm-0.052914 0.0686694c-0.0037676,-0.00171199 -0.00730663,-0.00616454 -0.00953291,-0.00941786 -0.000114285,0 -0.00022857,0 -0.000285713,0 0.000171428,-0.000970662 -0.0033676,-0.00468112 -0.00416684,-0.00599388 -0.000114285,-5.71426e-005 -0.00022857,-5.71426e-005 -0.000342094,-5.71426e-005 0,-0.00279694 -0.00411046,-0.00422398 -0.00468112,-0.00667883 -0.00205485,-0.00262551 -0.00536531,-0.0061074 -0.00707806,-0.00913291 -0.000114285,0 -0.00022857,0 -0.000285713,0 -0.000513521,-0.00182628 -0.00342475,-0.00439541 -0.00490893,-0.00553674 -0.000970662,-0.00228342 -0.00490893,-0.00445255 -0.00633597,-0.00662168 0.00262551,0 0.00976072,0.00645026 0.0112449,0.00599388 0,0.00142704 0.0065074,0.00416684 0.00764949,0.00587959 0.000570664,0.000227808 0.000570664,0.000456379 0.00565102,0.00445179 0.00142704,0.00131276 0.00587883,0.00445255 0.00645026,0.00616454 0.000171428,0 0.000399236,5.71426e-005 0.000627807,0.000114285 5.71426e-005,0.00022857 0.000170666,0.000457141 0.000285713,0.000742092 0.000113523,0 0.000227808,0 0.000399236,0 0.000171428,0.000285713 0.000342094,0.000571426 0.000513521,0.000856377 0.000114285,-5.71426e-005 0.00022857,-5.71426e-005 0.000342856,-5.71426e-005 0.000170666,0.000684949 0.00490893,0.00388189 0.00530817,0.0037676 0,0.00154133 0.00445255,0.00171275 0.00542245,0.00171275 0.00216913,-0.0013699 0.00445331,-0.00291122 0.00673597,-0.00405331 0.00530893,-0.00376684 0.0102179,-0.00816225 0.0149554,-0.0126719 0.0013699,-0.00159847 0.00268342,-0.00393827 0.00479541,-0.00433827 5.71426e-005,0.000570664 0.000114285,0.00114209 0.000227808,0.00171275 -0.000113523,0.00428112 0.000114285,0.0120441 -0.00154133,0.0162681 -5.71426e-005,0.00091352 -0.000399236,0.00211199 0.000114285,0.00291122 0.00296837,-0.0017699 0.0055375,-0.00547959 0.00776377,-0.00816301 0.000170666,0 0.000399236,0 0.000627045,0 0.000742854,0.00182704 0.00142704,0.0037676 0.00154133,0.00576531 0.0031398,0.00188342 0.00502322,-0.0061074 0.00804873,-0.00536531 0.0010278,0.0013699 0.00091352,0.00376684 0.00114133,0.00547959 5.71426e-005,0 0.000114285,0 0.00022857,5.71426e-005 0,0.000799234 0,0.000799234 0.00022857,0.00108495 0.000114285,0 0.00022857,0 0.000399236,0 0.00148418,-0.00171275 0.00336837,-0.0051375 0.00570816,-0.00542321 0.000399998,0.00234056 0.000742092,0.00485179 0.000856377,0.00724949 0.00211199,0 0.00593673,-0.00365332 0.00719235,-0.00456684 0.00382474,-0.00325332 0.00405255,-0.0037097 0.00450969,-0.00393827 0.000627807,-0.00091352 0.00547959,-0.00639311 0.00656378,-0.00605102 -0.000170666,0.00199847 -0.000399236,0.00256913 -0.000342094,0.00411046 -0.000456379,0.000456379 -0.00228342,0.00724873 -0.00228342,0.00742016 -0.000170666,0.000114285 -0.000284951,0.00022857 -0.000399236,0.000342856 -0.00142704,0.00348189 -0.0069074,0.0154689 -0.0108457,0.0141561 -0.00296837,-0.00279694 -0.00639311,-0.00519464 -0.00941862,-0.00759158 -0.00171199,-0.000799234 -0.00399541,-0.00171275 -0.00593597,-0.00148495 -5.71426e-005,-0.000113523 -5.71426e-005,-0.000170666 -5.71426e-005,-0.000227808 -0.0131291,0 -0.0251161,0.00782015 -0.0377888,0.00970357 -0.000627807,0.00125561 -0.00804796,0.0013699 -0.00930358,0.00142704zm0.0144982 0.0246026c-0.0051375,-0.000742092 -0.0103314,-0.00154133 -0.0152411,-0.00319694 -0.00142628,-0.000684949 -0.00365255,-0.00171199 -0.00519388,-0.00199771 0,-0.000627807 -0.00251199,-0.00171199 -0.0031398,-0.00159847 0,-0.000113523 0,-0.00022857 5.71426e-005,-0.000342094 -0.00342475,-0.00245485 -0.00342475,-0.00245485 -0.0051375,-0.00399541 -0.0009699,-0.000171428 -0.00165561,-0.000856377 -0.00211199,-0.0017699 -0.000170666,0 -0.000284951,0 -0.000399236,0 -0.000457141,-0.00142704 -0.0037676,-0.00422398 -0.00490893,-0.0051375 0,0 -0.00279694,-0.00302551 -0.00325408,-0.00302551 -5.71426e-005,-0.00022857 -0.000114285,-0.000456379 -0.000114285,-0.000627807 -0.000627807,-0.000284951 -0.000912758,-0.000856377 -0.00131276,-0.00148418 -0.00525102,-0.00525102 -0.0105028,-0.0105028 -0.0156975,-0.0156975 -0.000399236,-0.000171428 -0.000799234,-0.000342094 -0.00119847,-0.000456379 0,-0.000114285 0,-0.00022857 5.71426e-005,-0.000342856 -0.000570664,-0.000456379 -0.000856377,-0.00102704 -0.00154133,-0.00119847 0,-0.000114285 0,-0.00022857 0,-0.000342856 -0.00599388,-0.00570816 -0.0126719,-0.0112449 -0.0192936,-0.016211 -0.000742092,0 -0.00194056,-0.00131276 -0.0023977,-0.00182628 -0.00707806,-0.00445255 -0.014099,-0.0103893 -0.021862,-0.013414 -0.000627807,-0.000514283 -0.000627807,-0.000514283 -0.00108495,-0.000514283 -0.000342094,-0.000742092 -0.00222628,-0.00154056 -0.00302475,-0.00154056 -0.00302551,-0.00148495 -0.00605102,-0.00342551 -0.00936148,-0.00428189 -0.000342856,-0.000742092 -0.00559388,-0.00251123 -0.00713521,-0.0027398 -0.00371046,-0.00182628 -0.00804873,-0.00222628 -0.0119299,-0.00371046 0.00239694,-0.00159847 0.00998929,0.00091352 0.0126719,0.0013699 0.000855615,0.000399998 0.00302475,0.000799234 0.009875,0.00308265 0.00222628,0.000342856 0.00587959,0.00171275 0.00753444,0.00302551 0.00119923,0.000171428 0.00428112,0.00131276 0.00502322,0.00228342 0.00119923,0.000399236 0.00291122,0.000856377 0.0037676,0.00171199 0.00456684,0.00171275 0.00861939,0.00479541 0.0130719,0.00667883 0.0037097,0.00251199 0.00861939,0.00462398 0.0118727,0.00759158 0.00296837,0.00148418 0.00742092,0.00445255 0.00970434,0.00702168 0.000227808,5.71426e-005 0.000456379,0.000113523 0.000684187,0.000227808 0.00371046,0.00308265 0.00782015,0.00576531 0.0112457,0.00919005 0.000171428,5.71426e-005 0.000342094,0.000114285 0.000570664,0.000171428 0.000171428,0.000171428 0.0124434,0.0128434 0.013414,0.0128434 0,0.000114285 0,0.00022857 5.71426e-005,0.000399998 0.0051375,0.00576531 0.00936148,0.0114163 0.016211,0.0150117 0.00131276,0.000457141 0.00131276,0.000457141 0.00194132,0.000970662 0.00154056,0.00022857 0.00308265,0.000514283 0.00462322,0.000799234 0.00422398,0.000171428 0.010275,5.71426e-005 0.0140426,-0.00194056 0.00382398,-0.00119923 0.00816225,-0.00251199 0.0117584,-0.00428112 5.71426e-005,-0.000114285 0.000114285,-0.00022857 0.000171428,-0.000285713 0.000399236,0 0.000799234,0 0.00119847,0 0.00422398,-0.00199771 0.00919005,-0.00325332 0.013814,-0.00359617 0,-0.000113523 0,-0.000170666 5.71426e-005,-0.00022857 0.00405255,0.000399998 0.00405255,0.000399998 0.00547959,0.000799234 0.00262551,0.0014278 0.00776301,0.00462398 0.00776301,0.00776301 -0.0023398,0.0023977 -0.00519388,0.00439541 -0.00799158,0.00622245 0,5.71426e-005 0,0.000171428 0,0.000284951 -0.00148342,0.000399998 -0.00296761,0.00131276 -0.00422398,0.00228342 -0.00165485,0.000457141 -0.00331046,0.00125561 -0.0047375,0.00211199 -0.00804873,0.00268342 -0.00804873,0.00268342 -0.0110171,0.00342475 -0.00445179,0.000171428 -0.00890434,0.000342856 -0.0133569,0.000514283z"/>
 </g>
</svg>
