<?xml version="1.0" encoding="UTF-8"?>
<!DOCTYPE svg PUBLIC "-//W3C//DTD SVG 1.1//EN" "http://www.w3.org/Graphics/SVG/1.1/DTD/svg11.dtd">
<!-- Creator: CorelDRAW -->
<svg xmlns="http://www.w3.org/2000/svg" xml:space="preserve" width="1in" height="2in" style="shape-rendering:geometricPrecision; text-rendering:geometricPrecision; image-rendering:optimizeQuality; fill-rule:evenodd; clip-rule:evenodd"
viewBox="0 0 0.144634 0.0286613"
 xmlns:xlink="http://www.w3.org/1999/xlink">
 <defs>
  <style type="text/css">
   <![CDATA[
    .fil0 {fill:#1F1A17}
    .fil1 {fill:#E77817}
   ]]>
  </style>
 </defs>
 <g id="Layer_x0020_1">
  <metadata id="CorelCorpID_0Corel-Layer"/>
  <g id="_646410560">
   <path id="_646410704" class="fil0" d="M0.115339 0.0216916c0.0010401,0.00157578 0.00240396,0.00295461 0.0040079,0.00406096l0.00594064 -0.00721676c-0.000567093,-0.000399439 -0.0010515,-0.000891169 -0.00142538,-0.00145094l-0.00852316 0.00460673zm-0.00220375 -0.00642472c0.000133472,0.00187756 0.000663941,0.00365713 0.00151735,0.00526905l0.00888125 -0.00401702c-0.00027492,-0.000552444 -0.000449084,-0.00115502 -0.000501171,-0.00178852l-0.00989743 0.000536492zm0.00121622 -0.00654029c-0.000751349,0.0016059 -0.00118937,0.00336219 -0.00124454,0.00520508l0.00992055 7.24329e-005c3.93905e-005,-0.000594601 0.000186372,-0.001163 0.000423366,-0.00168907l-0.00909937 -0.00358844zm0.00350543 -0.00465394c-0.00112149,0.000995017 -0.0020807,0.00214043 -0.00283774,0.0034006l0.00876194 0.00422536c0.00031724,-0.000505566 0.000723027,-0.000959045 0.00119815,-0.00134351l-0.00712236 -0.00628246zm0.00523226 -0.00308255c-0.00150042,0.000537631 -0.00288788,0.00127905 -0.00412217,0.00218601l0.00654468 0.006796c0.000383488,-0.000244807 0.000800994,-0.000448596 0.00124454,-0.000604693l-0.00366706 -0.00837732zm0.00548228 -0.000990134c-0.0014454,2.42528e-005 -0.00284311,0.000225763 -0.00416856,0.000580766l0.00306009 0.0085842c0.000449898,-0.000100918 0.000920142,-0.000154795 0.00140422,-0.000154795 3.92277e-005,0 7.82927e-005,8.13853e-007 0.000117358,1.46494e-006l-0.000413112 -0.00901163zm0.00542694 0.000773812c-0.00125984,-0.00039423 -0.00259196,-0.000647176 -0.00397339,-0.00073849l-0.000498241 0.0090087c0.000370466,3.77628e-005 0.000730677,0.000106778 0.00107689,0.000204603l0.00339474 -0.00847482zm0.00421218 0.00201136c-0.000881403,-0.000590695 -0.00183247,-0.00110033 -0.00284051,-0.00151588l-0.00426036 0.00814602c0.000444038,0.000167817 0.000860406,0.00038365 0.00124129,0.000640665l0.00585958 -0.0072708zm0.00334233 0.00303372c-0.000618854,-0.000760953 -0.00131812,-0.00146494 -0.00208721,-0.00210007l-0.00656128 0.00676068c0.000208835,0.000181164 0.00040302,0.000376326 0.000580603,0.000583696l0.00806789 -0.00524431zm0.00212318 0.00358047c-0.000322937,-0.000801157 -0.000723027,-0.00156846 -0.00119116,-0.00229539l-0.00858713 0.00450826c0.000165701,0.000253271 0.000309264,0.000519727 0.000427598,0.000797739l0.00935069 -0.00301061zm0.000928444 0.00406634c-5.01334e-005,-0.000765999 -0.000166514,-0.00151539 -0.000343609,-0.00224444l-0.00966874 0.00200582c4.98078e-005,0.000214857 8.52918e-005,0.00043476 0.000105638,0.000658407l0.00990671 -0.000419785zm2.94615e-005 0.00505647l0 -0.0011783 -0.00991566 -6.46199e-005 0 -0.00115616 0.00991566 0.000152516 0 -0.00112816 -2.62061e-005 0c7.81299e-006,-0.000126636 1.39983e-005,-0.000253759 1.83931e-005,-0.000381209l-0.00990785 -7.40606e-005 0 0.00143092 0.00991566 0.000152516 0 0.00106826 -0.00991566 -6.46199e-005 0 0.00115469 0.00991566 8.82217e-005zm-0.0105197 0.0101391l0.0105197 0 0 -0.000907121 -0.0092903 0 0 -0.000816458 0.0092903 0 0 -0.00108845 -0.0092903 0 0 -0.000816458 0.0092903 0 0 -0.00126994 -0.0092903 0 0 -0.000816295 0.0092903 0 0 -0.00117927 -0.0092903 0 0 -0.000816458 0.0092903 0 0 -0.0013606 -0.00991566 0 0 5.7458e-005 -0.000604042 0 0 0.00901359zm-0.00524707 0c0.000134449,0 0.000268409,-1.46494e-006 0.000402043,-4.55758e-006l0 4.55758e-006 0.00410817 0 0 -0.00901359 -0.00429226 0 -0.000519727 0.00901098c0.000100429,1.79048e-006 0.000201022,2.60433e-006 0.000301777,2.60433e-006zm-0.000503124 -0.00903296c-0.000916236,-7.0968e-005 -0.00177225,-0.000334168 -0.00251936,-0.000744676l-0.00571081 0.00737823c0.00212351,0.00128719 0.00461015,0.00211862 0.00729017,0.00233999l0.00094 -0.00897355z"/>
   <path id="_646410632" class="fil0" d="M0.101824 0.0155091c0.000147145,0.000507844 0.000357933,0.000904516 0.000632364,0.00119083 0.000399276,0.000416205 0.000937884,0.000627481 0.0016181,0.000627481 0.000718958,0 0.00126261,-0.000186047 0.00162592,-0.000561396 0.000365908,-0.000372094 0.000548863,-0.000807342 0.000548863,-0.00130558 0,-0.000321635 -7.73161e-005,-0.000592973 -0.000231948,-0.000816783 -0.000152028,-0.000227065 -0.000420599,-0.000421576 -0.000803924,-0.000586625 -0.000260759,-0.000112475 -0.000857639,-0.000709354 -0.00178836,-0.000992087 -0.0011975,-0.000363792 -0.00203724,-0.000811086 -0.00251985,-0.00134025 -0.000679405,-0.000745001 -0.00102041,-0.0012535 -0.00102041,-0.00232583 0,-0.000690636 0.000159678,-0.00133407 0.000479197,-0.00193632 0.000319519,-0.000599322 0.000780811,-0.00105654 0.00138111,-0.00137199 0.000603065,-0.000312194 0.00132707,-0.000469919 0.00217738,-0.000469919 0.00139153,0 0.00243505,0.000372256 0.00313838,0.00111644 0.000556676,0.000593462 0.000903377,0.00134221 0.00104092,0.002249l-0.00220994 0.000608437c-0.000107429,-0.000568558 -0.000299824,-0.000986716 -0.000575394,-0.00125219 -0.00031431,-0.000305846 -0.000785857,-0.000457223 -0.00141464,-0.000457223 -0.000649292,0 -0.00115942,0.000160817 -0.00152532,0.0004888 -0.000236994,0.000208184 -0.000355654,0.0004888 -0.000355654,0.00083892 0,0.000321635 0.000110847,0.000596066 0.000332378,0.000823131 0.000280942,0.000290057 0.000966858,0.000591509 0.00205368,0.000905168 0.00108796,0.000313822 0.00189221,0.000938536 0.00241194,0.00127384 0.000521192,0.000336447 0.000928607,0.000794321 0.00122387,0.00137818 0.000294778,0.000582882 0.00044062,0.00100316 0.00044062,0.00185786 0,0.000775765 -0.000175304,0.00150433 -0.000528191,0.00217917 -0.00035305,0.000678102 -0.000850314,0.00118269 -0.00149456,0.00151067 -0.000644246,0.000331075 -0.00144817,0.000495148 -0.00240917,0.000495148 -0.00139934,0 -0.00247379,-0.00039423 -0.00322351,-0.00118578 -0.000515495,-0.000544142 -0.000888565,-0.00125984 -0.0011184,-0.00214597 -1.12312e-005,-4.36225e-005 -2.22996e-005,-8.77334e-005 -3.28797e-005,-0.00013217l0.00214743 -0.000662965zm-0.0167237 -0.0049899l0 0.00911678 -0.00282537 0 0 -0.00963212c7.11308e-005,-0.00117927 -0.00102448,-0.00179503 -0.00224461,-0.00189058 -0.00146477,-0.000114591 -0.00229751,0.000295266 -0.00254638,0.00189058l0 0.00963212 -0.00282554 0 0 -0.00963212c-0.000555373,-0.00130103 -0.00152939,-0.00206361 -0.00279054,-0.00193811 -0.000906795,9.03377e-005 -0.00173741,0.000413112 -0.00236896,0.00193811l0 0.00963212 -0.00282554 0 0 -0.00929827c0,-0.000692915 0.000101081,-0.00104059 0.000418646,-0.00167068 0.00221433,-0.00439302 0.00617845,-0.00388468 0.00897908,-0.00177794 0.00193192,-0.00219464 0.00723597,-0.00267481 0.00877399,0.00184256 0.00021502,0.00063155 0.000255224,0.00113044 0.000255224,0.00178755zm0.000737188 -0.0093458l0.00233381 0 0 0.00274448 -0.00233381 0 0 -0.00274448zm0 0.0049899l0.00233381 0 0 0.0134727 -0.00233381 0 0 -0.0134727zm0.00323344 -0.00470635l0.00275782 0 0 0.00935606 0.000476267 0.000480824 0.00532992 -0.0055954 0.00306692 0 -0.00657056 0.00708101 0.00651213 0.00693224 -0.0031151 -7.56883e-005 -0.00519759 -0.00525538 -0.000501985 0.000623249 0 0.00454146 -0.00275782 0 0 -0.004491 0 -0.00424131 0 -0.00935606zm-0.0276186 0.00756672c-0.000715865,-0.000554722 -0.00160996,-0.000884496 -0.00257975,-0.000884496 -0.00235122,0 -0.00425792,0.00193632 -0.00425792,0.00432384 0,0.000398137 5.33888e-005,0.000783741 0.000152679,0.00114997l0.00668499 -0.00458932zm-0.00257975 -0.00348411c0.00292955,0 0.00543556,0.00184403 0.00645402,0.00445113l-0.00231671 0.00157334 -4.39481e-006 -1.87186e-005 -0.00294843 0.00202405 -0.000990948 0.000673219 2.70199e-005 -1.13939e-005 -0.00271257 0.00186226c0.000700728,0.000514681 0.0015613,0.000818085 0.00249202,0.000818085 0.00235122,0 0.00425792,-0.00193616 0.00425792,-0.00432368l-3.25541e-007 -4.21576e-005 1.95325e-005 -8.3013e-006 0.00265967 -0.000178397c2.27879e-006,7.60139e-005 4.06927e-006,0.000152191 4.06927e-006,0.000228856 0,0.00389185 -0.00310827,0.00704813 -0.00694087,0.00704813 -0.0038326,0 -0.00694087,-0.00315629 -0.00694087,-0.00704813 0,-0.00389201 0.00310827,-0.00704829 0.00694087,-0.00704829zm-0.014364 0.0143372c0.00341688,0 0.00624795,-0.00255062 0.00674733,-0.00587862l7.82927e-005 0 0 -0.00105264 0 -0.0114221 -0.00282537 0 0 0.00580635c-0.00112426,-0.0008272 -0.00250602,-0.00131551 -0.00400025,-0.00131551 -0.00376912,0 -0.00682562,0.00310387 -0.00682562,0.00693126 0,0.00382739 0.00305651,0.00693126 0.00682562,0.00693126zm0 -0.00295754c0.00235122,0 0.00425792,-0.00193616 0.00425792,-0.00432368 0,-0.00238752 -0.0019067,-0.00432368 -0.00425792,-0.00432368 -0.00235122,0 -0.00425792,0.00193616 -0.00425792,0.00432368 0,0.00238752 0.0019067,0.00432368 0.00425792,0.00432368z"/>
   <path id="_646410512" class="fil1" d="M0.0316395 0.0198767c0.00162836,0 0.00312927,-0.000555211 0.00433116,-0.00148951l0 0.000874404 0.00281658 0 0 -0.00171577c-0.000939349,-0.00123755 -0.00149814,-0.00278794 -0.00149814,-0.00447082 0,-0.00125919 0.000312845,-0.00244433 0.000863824,-0.00347955 -0.00112247,-0.00252425 -0.0036166,-0.00428119 -0.00651343,-0.00428119 -0.00394686,0 -0.00714758,0.00326062 -0.00714758,0.00728122 0,0.0040206 0.00320072,0.00728122 0.00714758,0.00728122zm9.55464e-005 -0.00295754c0.00235122,0 0.00425792,-0.00193616 0.00425792,-0.00432368 0,-0.00238752 -0.0019067,-0.00432368 -0.00425792,-0.00432368 -0.00235122,0 -0.00425792,0.00193616 -0.00425792,0.00432368 0,0.00238752 0.0019067,0.00432368 0.00425792,0.00432368zm-0.0245873 0.00295754c0.00162836,0 0.00312927,-0.000555211 0.00433116,-0.00148951l0 0.000874404 0.00281658 0 0 -0.00661158 -6.51083e-007 0c0,-1.80675e-005 6.51083e-007,-3.62979e-005 6.51083e-007,-5.45282e-005 0,-0.0040206 -0.00320072,-0.00728122 -0.00714775,-0.00728122 -0.00394686,0 -0.00714758,0.00326062 -0.00714758,0.00728122 0,0.0040206 0.00320072,0.00728122 0.00714758,0.00728122zm2.26251e-005 -0.00295754c0.00235122,0 0.00425792,-0.00193616 0.00425792,-0.00432368 0,-0.00238752 -0.0019067,-0.00432368 -0.00425792,-0.00432368 -0.00235122,0 -0.00425775,0.00193616 -0.00425775,0.00432368 0,0.00238752 0.00190653,0.00432368 0.00425775,0.00432368zm0.00794679 -0.0152215l0.00275799 0 0 0.00935606 0.000476267 0.000480824 0.00532992 -0.0055954 0.00306692 0 -0.00657073 0.00708101 0.00651229 0.00693224 -0.0031151 -7.56883e-005 -0.00519759 -0.00525538 -0.000501985 0.000623249 0 0.00454146 -0.00275799 0 0 -0.004491 0 -0.00424131 0 -0.00935606z"/>
  </g>
 </g>
</svg>
