<?xml version="1.0" encoding="UTF-8"?>
<!DOCTYPE svg PUBLIC "-//W3C//DTD SVG 1.1//EN" "http://www.w3.org/Graphics/SVG/1.1/DTD/svg11.dtd">
<!-- Creator: CorelDRAW -->
<svg xmlns="http://www.w3.org/2000/svg" xml:space="preserve" width="1.98819in" height="1.98819in" style="shape-rendering:geometricPrecision; text-rendering:geometricPrecision; image-rendering:optimizeQuality; fill-rule:evenodd; clip-rule:evenodd"
viewBox="0 0 0.067265 0.067265"
 xmlns:xlink="http://www.w3.org/1999/xlink">
 <defs>
  <style type="text/css">
   <![CDATA[
    .fil1 {fill:#FF6600}
    .fil0 {fill:red;fill-rule:nonzero}
   ]]>
  </style>
 </defs>
 <g id="Layer_x0020_1">
  <metadata id="CorelCorpID_0Corel-Layer"/>
  <g id="_548545072">
   <path id="_548545456" class="fil0" d="M0.0136528 0l0.0399594 0 9.32386e-007 0 0 1.33198e-006c0.00376071,2.66396e-007 0.00717404,0.00153324 0.00964593,0.00400526 0.00247162,0.00247175 0.00400406,0.00588429 0.0040046,0.0096442l1.33198e-006 0 0 1.99797e-006 0 0.0399594 0 9.32386e-007 -1.33198e-006 0c-2.66396e-007,0.00376071 -0.00153324,0.00717404 -0.00400526,0.00964593 -0.00247175,0.00247162 -0.00588429,0.00400406 -0.0096442,0.0040046l0 1.33198e-006 -1.99797e-006 0 -0.0399594 0 -9.32386e-007 0 0 -1.33198e-006c-0.00376071,-2.66396e-007 -0.00717404,-0.00153324 -0.00964593,-0.00400526 -0.00247162,-0.00247175 -0.00400406,-0.00588429 -0.0040046,-0.0096442l-1.33198e-006 0 0 -1.99797e-006 0 -0.0399594 0 -9.32386e-007 1.33198e-006 0c2.66396e-007,-0.00376071 0.00153324,-0.00717404 0.00400526,-0.00964593 0.00247175,-0.00247162 0.00588429,-0.00400406 0.0096442,-0.0040046l0 -1.33198e-006 1.99797e-006 0zm0.0399594 0.00066599l-0.0399594 0 -1.99797e-006 0 0 -1.33198e-006c-0.0035741,3.99594e-007 -0.00682014,0.00145932 -0.00917321,0.00381226 -0.00235334,0.00235321 -0.00381279,0.00560004 -0.00381293,0.00917494l1.33198e-006 0 0 9.32386e-007 0 0.0399594 0 1.99797e-006 -1.33198e-006 0c3.99594e-007,0.0035741 0.00145932,0.00682014 0.00381226,0.00917321 0.00235321,0.00235334 0.00560004,0.00381279 0.00917494,0.00381293l0 -1.33198e-006 9.32386e-007 0 0.0399594 0 1.99797e-006 0 0 1.33198e-006c0.0035741,-3.99594e-007 0.00682014,-0.00145932 0.00917321,-0.00381226 0.00235334,-0.00235321 0.00381279,-0.00560004 0.00381293,-0.00917494l-1.33198e-006 0 0 -9.32386e-007 0 -0.0399594 0 -1.99797e-006 1.33198e-006 0c-3.99594e-007,-0.0035741 -0.00145932,-0.00682014 -0.00381226,-0.00917321 -0.00235321,-0.00235334 -0.00560004,-0.00381279 -0.00917494,-0.00381293l0 1.33198e-006 -9.32386e-007 0z"/>
   <path id="_422901680" class="fil1" d="M0.00578492 0.0396105l0.000269326 0.000391735 0.00026946 0.000392002 -0.000538786 0 -0.000538653 0 0.00026946 -0.000392002 0.000269193 -0.000391735zm0.0589781 0.00327068l-6.71318e-005 7.31257e-005 6.71318e-005 -7.31257e-005zm-0.0188731 -0.00343637c0,0.000249879 -5.581e-005,0.00197413 6.7265e-005,0.00197413l0.0012089 0c0.000211119,-0.000121743 0.000343118,-0.000103628 0.000470056,-0.000292503l0.000134397 -0.000219377 7.28593e-005 -0.000142255 -5.72751e-006 -0.000734986 -6.71318e-005 -7.31257e-005 -6.7265e-005 -0.000219377 -6.71318e-005 -7.31257e-005 -6.71318e-005 -7.31257e-005 -0.000134264 -7.31257e-005 -6.71318e-005 -7.31257e-005 -0.000202861 -6.89966e-005 -0.00120757 -4.12914e-006 -6.7265e-005 7.31257e-005zm0.00463436 0.000731124l0.00114177 0 0.000272123 6.26031e-006 0.0001308 -7.92528e-005 7.29925e-005 -0.000142389 -5.72751e-006 -0.000369491 -6.7265e-005 -7.31257e-005 -0.000134264 -7.31257e-005 -6.7265e-005 -7.31257e-005 -0.00141043 0c0,0.000306755 -4.40885e-005,0.000613244 6.7265e-005,0.000804249zm-0.00308953 -0.000657998l0.000134264 7.31257e-005 6.71318e-005 7.31257e-005 6.71318e-005 7.31257e-005 6.7265e-005 0.000219377 6.71318e-005 7.31257e-005 -6.71318e-005 -7.31257e-005 -6.7265e-005 -0.000219377 -6.71318e-005 -7.31257e-005 -6.71318e-005 -7.31257e-005 -0.000134264 -7.31257e-005 -6.71318e-005 -7.31257e-005 6.71318e-005 7.31257e-005zm0.0012089 7.31257e-005l6.7265e-005 0.000219377 6.71318e-005 7.31257e-005 -6.71318e-005 -7.31257e-005 -6.7265e-005 -0.000219377 -6.71318e-005 -7.31257e-005 6.71318e-005 7.31257e-005zm0.00329106 -0.000146251l0.000134264 7.31257e-005 6.7265e-005 7.31257e-005 5.72751e-006 0.000369491 -7.29925e-005 0.000142389 0.000134397 -7.31257e-005 0 -0.000146251c0,-0.000240822 4.36889e-005,-0.000191672 -6.71318e-005,-0.000292503l-6.7265e-005 -7.31257e-005 -0.000134264 -7.31257e-005 -6.7265e-005 -7.31257e-005 6.7265e-005 7.31257e-005zm-0.00355972 -0.000219244l6.71318e-005 7.31257e-005 6.7265e-005 7.29925e-005 -6.7265e-005 -7.29925e-005 -6.71318e-005 -7.31257e-005 -6.71318e-005 -7.31257e-005 6.71318e-005 7.31257e-005zm-0.000134397 -7.31257e-005l-6.69986e-005 -7.31257e-005 6.69986e-005 7.31257e-005zm-0.000201395 -0.000146251l-0.000134397 -7.31257e-005 0.000134397 7.31257e-005zm-0.0415746 -0.000146251l-6.7265e-005 -7.31257e-005 6.7265e-005 7.31257e-005zm0.0189402 -0.00241275l-6.71318e-005 -7.31257e-005 6.71318e-005 7.31257e-005zm0.0263954 -0.00723811l-6.69986e-005 7.31257e-005 -6.7265e-005 7.31257e-005 -6.71318e-005 0.000146118 -6.71318e-005 7.31257e-005 -6.7265e-005 7.31257e-005c-0.000220309,0.000453273 -0.000507618,0.000694228 -0.000738716,0.00116988l-6.7265e-005 7.31257e-005 -6.71318e-005 7.31257e-005 -6.71318e-005 7.29925e-005 0 7.31257e-005 -6.7265e-005 7.31257e-005 -0.00013413 0.000219377 -6.7265e-005 7.31257e-005 -6.71318e-005 7.31257e-005 -0.000134397 0.00029237 -6.71318e-005 7.31257e-005 -6.71318e-005 7.31257e-005 -6.7265e-005 7.31257e-005c-7.91196e-005,0.000163034 -0.000111886,0.000220176 -0.000201395,0.000365628l-6.71318e-005 7.29925e-005 -6.71318e-005 7.31257e-005 -6.7265e-005 0.000146251 -6.71318e-005 7.31257e-005c-0.000118147,0.000192071 -0.000154909,0.000204725 -0.00026866,0.000438754l-6.7265e-005 7.29925e-005 -6.69986e-005 0.000146251 -5.60763e-005 8.53799e-005 -7.83204e-005 6.08715e-005c-7.64556e-005,0.000157307 -0.00026866,0.000394 -0.00026866,0.000511747 0,9.89661e-005 7.25929e-005,4.06254e-005 0.000134397,0.000292503 0.000205258,5.20804e-005 0.000258138,0.000113751 0.000402924,0.000219377l0.00449996 0 6.7265e-005 -7.31257e-005 0.00396264 0c9.47038e-005,-0.000123475 0.000123475,-7.31257e-005 0.000335792,-7.31257e-005 0.000129602,0 0.000119612,-2.30433e-005 0.000201395,-7.31257e-005l0.000134397 0 0.000335925 -0.000365628 6.71318e-005 -7.29925e-005 0 -0.000219377 0 -0.000146251 6.69986e-005 -0.000219377 0 -0.000877375 -6.69986e-005 -7.29925e-005 0 -0.000146251 -6.71318e-005 -0.000146251 -6.7265e-005 -7.31257e-005 -6.71318e-005 -0.000146251 -6.71318e-005 -7.31257e-005 -6.7265e-005 -0.000146118 -6.71318e-005 -7.31257e-005c-0.000183414,-0.000298363 -0.000792395,-0.000891094 -0.00107451,-0.00109675l-6.7265e-005 -7.31257e-005 -6.71318e-005 -7.31257e-005 -6.71318e-005 -7.31257e-005 -6.7265e-005 -7.29925e-005 -0.000134264 -7.32589e-005 -6.7265e-005 -7.29925e-005 -6.71318e-005 -7.31257e-005 -6.71318e-005 -7.31257e-005 -6.71318e-005 -7.31257e-005 -6.71318e-005 0 -6.7265e-005 -7.31257e-005 -0.000201529 -0.000146251 -6.71318e-005 -7.31257e-005c-0.000133464,-9.73677e-005 -0.000186078,-0.000133065 -0.000335792,-0.000219244l-6.71318e-005 -7.31257e-005 -0.000134397 -7.31257e-005 -6.71318e-005 -7.31257e-005 -6.71318e-005 -7.31257e-005 -6.7265e-005 0 -6.71318e-005 -7.31257e-005 -0.000134397 -7.31257e-005 -0.00013413 -7.31257e-005 -6.7265e-005 -7.31257e-005 -6.71318e-005 0 -6.71318e-005 -7.31257e-005c-0.000244418,-6.19371e-005 -0.000215381,-4.0359e-005 -0.000335925,-0.000219244l-0.000473652 -0.000133731 -0.000265064 -1.25206e-005 -0.0001308 -7.9386e-005 -0.000272257 6.26031e-006 -0.000268527 0 -0.0001308 7.9386e-005 -0.000272257 -6.26031e-006c-0.000491101,0.000256406 -0.00067931,0.000340454 -0.000940378,0.000877375zm-0.0264626 -0.00541037c-0.000188742,0.000245883 -0.0014424,7.31257e-005 -0.00181336,7.31257e-005l-0.0001308 7.9386e-005 -0.00141403 -6.26031e-006 -6.7265e-005 7.31257e-005 -0.000134264 0 -0.000671717 0 -0.0001308 7.92528e-005 -0.000339255 -6.26031e-006c-0.000129735,0 -0.000119612,2.30433e-005 -0.000201529,7.31257e-005 -9.47038e-005,0.000123475 -0.000123475,7.31257e-005 -0.000335792,7.31257e-005l-6.71318e-005 7.31257e-005 -0.000201529 0 -0.000671584 0.000219377 -0.000134397 7.31257e-005 -0.0001308 7.9386e-005 -0.00013786 -6.26031e-006 -6.71318e-005 7.31257e-005 -0.000134397 0 -6.71318e-005 7.29925e-005 -0.000134397 0 -6.71318e-005 7.31257e-005 -0.000134397 7.31257e-005 -0.000604452 0.000219377 -6.71318e-005 7.31257e-005 -0.000134264 7.31257e-005 -0.000335792 0.000146251 -6.7265e-005 7.29925e-005 -6.71318e-005 0 -6.71318e-005 7.32589e-005 -0.000134264 7.29925e-005c-0.000133731,7.71216e-005 -0.000910541,0.000487238 -0.00100751,0.00051188l-6.71318e-005 7.31257e-005 -6.7265e-005 0 -6.71318e-005 7.31257e-005 -0.000134264 7.29925e-005 -6.7265e-005 7.31257e-005c-0.000392002,9.94989e-005 -0.000535056,0.000352975 -0.000873113,0.000438754l-6.71318e-005 7.31257e-005 -6.71318e-005 0 -6.7265e-005 7.31257e-005 -0.000134264 7.29925e-005 -6.7265e-005 7.31257e-005 -6.71318e-005 0 -6.69986e-005 7.31257e-005 -6.7265e-005 0 -6.71318e-005 7.31257e-005 -0.000134397 7.31257e-005 -0.000134264 7.31257e-005 -6.7265e-005 7.31257e-005 -0.000201395 7.31257e-005 -6.71318e-005 7.31257e-005 -6.71318e-005 0 -6.7265e-005 7.31257e-005 -0.000134264 7.29925e-005 -6.7265e-005 7.31257e-005 -6.71318e-005 0 -6.71318e-005 7.31257e-005 -6.7265e-005 0 -6.71318e-005 7.31257e-005 -0.000134264 7.31257e-005 -0.000134264 7.31257e-005 -6.7265e-005 7.31257e-005c-0.000258937,0.000149182 -0.000490568,0.0002957 -0.000738716,0.000438621l-6.7265e-005 7.31257e-005 -6.71318e-005 0 -6.71318e-005 7.31257e-005 -0.000134264 7.31257e-005 -6.71318e-005 7.31257e-005c-0.000311017,0.000179018 -0.00049523,0.000332729 -0.000806114,0.000511747l-6.71318e-005 7.31257e-005 -0.000134397 7.31257e-005 -6.71318e-005 7.31257e-005 -0.000268527 0.000146251 -6.7265e-005 7.31257e-005 -6.71318e-005 7.31257e-005 -0.000134397 7.29925e-005 -6.71318e-005 7.32589e-005 -0.000134397 0 -0.000134264 0.000146118 -6.71318e-005 7.31257e-005 -6.71318e-005 7.31257e-005c-0.000174356,0.000100431 -0.000498427,0.00035404 -0.000604452,0.000511747l-0.000134397 0 -6.71318e-005 7.31257e-005 -6.71318e-005 7.31257e-005 -6.7265e-005 7.31257e-005c-0.000424902,0.000244818 -0.000674914,0.000608448 -0.00114164,0.000877375l-6.7265e-005 7.31257e-005 -6.71318e-005 7.31257e-005 -6.71318e-005 7.31257e-005 -6.7265e-005 7.31257e-005 -0.000134264 7.29925e-005 -6.7265e-005 7.31257e-005 -6.71318e-005 7.31257e-005 -6.71318e-005 7.31257e-005c-0.00020326,0.000148249 -0.000358303,0.00030822 -0.000537321,0.000438754l-6.7265e-005 7.31257e-005 -6.71318e-005 7.29925e-005 -6.71318e-005 7.31257e-005 -6.71318e-005 7.31257e-005 -0.000134264 7.31257e-005 -6.7265e-005 7.31257e-005 -6.71318e-005 7.31257e-005 -6.71318e-005 7.31257e-005 -6.7265e-005 7.31257e-005c-0.000301693,0.00021991 -0.00141816,0.00136674 -0.00161196,0.00168162l-6.69986e-005 7.29925e-005 -6.71318e-005 7.31257e-005 -6.7265e-005 7.31257e-005 -6.71318e-005 7.31257e-005 0 7.31257e-005 -6.71318e-005 7.31257e-005 -6.7265e-005 7.31257e-005 -6.71318e-005 7.31257e-005 0 7.31257e-005 -6.71318e-005 7.31257e-005 -6.7265e-005 7.29925e-005 -6.71318e-005 0.000219377 -6.69986e-005 7.31257e-005 -6.7265e-005 0.000146251 -6.71318e-005 7.31257e-005 0 0.000146251 -7.29925e-005 0.000142255 5.86071e-006 0.00022324 -7.29925e-005 0.000142389 5.72751e-006 0.000369491 0 0.00467911 0 0.000219377 8.19168e-005 0.00028824c0.000149715,0.000124141 0.000200596,0.000243619 0.000343118,0.000345782 0.0001645,0.000118013 0.000271857,7.81872e-005 0.000448211,0.000170227l0.000268527 0 0.0597761 0 0.000402924 0 0.0001308 -7.9386e-005 0.000272257 6.26031e-006 0.000264798 -8.91094e-005 0.000257605 -0.000292769 1.49182e-005 -0.000129868 6.71318e-005 -7.31257e-005 0 -0.000292503 7.29925e-005 -0.000142389 -5.72751e-006 -0.000369358 0 -0.00833486 0 -0.000584872 -7.29925e-005 -0.000142389 5.72751e-006 -0.000515743 -6.71318e-005 -7.29925e-005 0 -0.000219377 -6.71318e-005 -7.31257e-005 0 -0.000146251 -6.7265e-005 -7.31257e-005 -6.71318e-005 -0.000146251 -0.000134264 -0.00029237 -6.71318e-005 -7.31257e-005 -6.71318e-005 -7.31257e-005 -6.7265e-005 -0.000146251 -6.71318e-005 -7.31257e-005 -6.71318e-005 -7.31257e-005 -0.000738849 -0.000804116 -6.71318e-005 -7.32589e-005 -6.7265e-005 -7.29925e-005 -6.71318e-005 -7.31257e-005 -6.71318e-005 -7.31257e-005 -6.71318e-005 -7.31257e-005 -6.71318e-005 -7.31257e-005 -6.71318e-005 -7.31257e-005 -6.7265e-005 -7.31257e-005 -6.71318e-005 -7.31257e-005 -6.71318e-005 -7.31257e-005 -6.7265e-005 0 -6.71318e-005 -7.31257e-005 -6.71318e-005 -7.29925e-005 -6.7265e-005 -7.31257e-005 -6.69986e-005 -7.31257e-005 -6.71318e-005 -7.31257e-005 -6.7265e-005 -7.31257e-005 -6.71318e-005 -7.31257e-005 -6.71318e-005 -7.31257e-005 -6.7265e-005 -7.31257e-005 -6.71318e-005 -7.31257e-005c-0.000516675,-0.000297564 -0.0008201,-0.000868318 -0.0013433,-0.00116974l-6.71318e-005 -7.31257e-005 -6.7265e-005 -7.31257e-005 -6.71318e-005 -7.31257e-005 -6.71318e-005 -7.31257e-005 -6.7265e-005 0 -6.69986e-005 -7.31257e-005 -6.71318e-005 -7.31257e-005 -6.7265e-005 -7.29925e-005 -6.71318e-005 -7.31257e-005c-0.000259203,-0.000149315 -0.000423037,-0.000330597 -0.000671584,-0.00051188l-6.7265e-005 -7.31257e-005 -0.000134264 -7.29925e-005 -6.7265e-005 -7.31257e-005 -6.71318e-005 -7.31257e-005 -6.71318e-005 0 -6.7265e-005 -7.31257e-005 -6.69986e-005 -7.31257e-005 -6.71318e-005 -7.31257e-005 -6.7265e-005 0 -6.71318e-005 -7.31257e-005 -0.00026866 -0.000146251 -6.7265e-005 -7.31257e-005 -6.71318e-005 -7.29925e-005 -0.000134264 -7.32589e-005 -6.71318e-005 -7.29925e-005c-0.00017702,-4.48877e-005 -0.000655467,-0.000386541 -0.000873113,-0.00051188l-6.7265e-005 -7.31257e-005 -6.71318e-005 -7.31257e-005 -0.000402924 -0.000146118 -6.7265e-005 -7.31257e-005 -0.000134264 -7.31257e-005 -6.7265e-005 -7.31257e-005 -0.000134264 0 -6.7265e-005 -7.31257e-005 -0.00013413 0 -6.7265e-005 -7.31257e-005 -0.000134264 0 -0.000134397 -7.31257e-005c-0.000133997,0 -0.000268527,5.30128e-005 -0.000268527,-7.31257e-005l-6.73982e-005 -7.31257e-005 -0.000470056 0 -6.71318e-005 -7.29925e-005 -0.000134397 0 -0.00181336 0 -0.0001308 -7.9386e-005 -0.00201848 6.26031e-006 -0.00322379 0c-0.000129735,0 -0.000119612,-2.30433e-005 -0.000201529,-7.31257e-005l-0.00382851 0c-0.000376284,0.0001966 -0.000399061,-4.39553e-006 -0.000671584,0.000438621l-6.69986e-005 7.31257e-005 -6.7265e-005 7.31257e-005 -6.71318e-005 7.31257e-005c-0.000149581,0.000307687 -0.000312482,0.000479779 -0.000470189,0.000804249l-6.71318e-005 7.31257e-005 -6.71318e-005 7.31257e-005 -6.71318e-005 7.29925e-005 0 0.000146251c-0.000109622,8.75111e-005 -0.000256539,0.000309552 -0.000335925,0.000438754l-6.71318e-005 7.31257e-005 -6.7265e-005 0.000146251 -6.71318e-005 7.29925e-005 -6.69986e-005 7.31257e-005 -6.7265e-005 0.000146251 -6.71318e-005 7.31257e-005 0 7.31257e-005 -6.71318e-005 7.31257e-005 -6.7265e-005 7.31257e-005 -6.71318e-005 7.31257e-005c-0.000157706,0.000324337 -0.000320608,0.000496429 -0.000470056,0.000804249l-6.7265e-005 7.29925e-005 -6.71318e-005 0.000146251 -6.71318e-005 7.31257e-005 -6.7265e-005 7.31257e-005c-3.58303e-005,5.60763e-005 -3.60967e-005,0.000146251 -0.000134264,0.000146251 -0.000150647,0 -0.000129868,-0.000276253 -0.000201529,-0.000438754 -0.000113351,-0.000102962 -6.71318e-005,-0.000134397 -6.71318e-005,-0.000365495 -0.000113351,-0.000103095 -6.71318e-005,-0.00013453 -6.71318e-005,-0.000365628l0 -7.29925e-005 -6.7265e-005 -7.31257e-005 0 -0.000292503 -7.28593e-005 -0.000142389 5.72751e-006 -0.000296232 -7.28593e-005 -0.000142389 5.72751e-006 -0.000296366 -6.7265e-005 -7.31257e-005 0 -7.31257e-005c-0.000113218,-0.000103095 -6.71318e-005,-0.000134397 -6.71318e-005,-0.000365495l-6.71318e-005 -0.000219377 -5.59432e-005 -8.52467e-005 -7.83204e-005 -6.10047e-005 -6.71318e-005 -7.31257e-005 -6.7265e-005 -7.31257e-005 -0.000201529 0 -0.0001308 -7.92528e-005 -0.00013786 6.26031e-006 -6.69986e-005 7.29925e-005 -0.00376124 0 -6.7265e-005 7.31257e-005 -0.000134264 7.31257e-005c-0.000438088,0.00025241 -0.000415578,0.000349245 -0.000738849,0.000584872l-6.71318e-005 7.32589e-005 -6.7265e-005 7.29925e-005 -6.69986e-005 7.31257e-005 -6.71318e-005 7.31257e-005 -6.7265e-005 7.31257e-005 -6.71318e-005 7.31257e-005 -6.71318e-005 7.31257e-005 -6.7265e-005 7.31257e-005 -6.71318e-005 7.31257e-005 -6.71318e-005 7.31257e-005 -6.7265e-005 7.31257e-005 -6.71318e-005 7.29925e-005 -6.69986e-005 7.31257e-005 -6.73982e-005 7.31257e-005 -6.69986e-005 7.31257e-005 -6.71318e-005 7.31257e-005 -6.7265e-005 7.31257e-005 -6.71318e-005 7.31257e-005 -6.71318e-005 7.31257e-005 -6.7265e-005 7.31257e-005 -6.71318e-005 7.31257e-005 -6.71318e-005 7.29925e-005 -6.7265e-005 7.31257e-005 -6.71318e-005 7.31257e-005 -6.69986e-005 7.31257e-005 -6.7265e-005 7.31257e-005 -6.71318e-005 7.31257e-005 -6.71318e-005 7.31257e-005 -6.7265e-005 7.31257e-005 -0.000724197 0.000747107 -1.46518e-005 -0.00359861c0,-0.000320741 -0.000497761,-0.000811575 -0.000738716,-0.000950368l-0.000134397 -7.31257e-005 -6.71318e-005 -7.31257e-005 -0.000134264 0 -0.00450009 0 -0.000134264 7.31257e-005zm0.0237761 0.00175462c-0.000110155,0.000179151 -0.000168362,0.000316612 -0.000335792,0.000438754l0 0.000146251c-0.000213117,0.000155309 -0.000543315,0.000686369 -0.000671717,0.000950501 -9.75009e-005,0.000158506 -0.000126804,0.00025241 -0.00026866,0.000365495 -0.000138659,0.000225371 -0.000283312,0.000411981 -0.000402924,0.000657998l-5.60763e-005 8.53799e-005 -7.83204e-005 6.08715e-005 0 7.31257e-005 -5.59432e-005 8.52467e-005 -7.83204e-005 6.10047e-005 -6.7265e-005 0.000146251c-9.75009e-005,0.000158506 -0.000126804,0.00025241 -0.000268527,0.000365495 -0.000138792,0.000225371 -0.000283445,0.000411981 -0.000403057,0.000657998 -9.75009e-005,0.000158506 -0.000126938,0.000252543 -0.000268527,0.000365628l-0.000134397 0.00029237 -0.000201529 0.000219377 -6.71318e-005 0.000146251c-0.000119079,0.000244951 -5.02156e-005,0.000206324 -0.000268794,0.000365495 -7.91196e-005,0.000163034 -0.000111886,0.000220176 -0.000201395,0.000365628l-6.71318e-005 7.31257e-005c-8.9509e-005,0.000145319 -0.000122276,0.000202461 -0.000201529,0.000365495l-0.000201529 0.000219377c-7.91196e-005,0.000163034 -0.00011202,0.000220176 -0.000201395,0.000365628l-5.60763e-005 8.52467e-005 -7.83204e-005 6.08715e-005 -0.000134264 0.000292503 -5.59432e-005 8.52467e-005 -7.84536e-005 6.10047e-005 -0.000134264 0.000219377 -6.7265e-005 7.29925e-005 0 7.31257e-005 -0.000201395 0.000219377 0 7.31257e-005 -6.7265e-005 7.31257e-005 -6.71318e-005 0.000146251 -5.59432e-005 8.52467e-005 -7.84536e-005 6.08715e-005 -0.000134264 0.000146251 0 0.000146251 -0.000201395 0.000219377c-0.000134663,0.000218578 -0.000271457,0.000443949 -0.000403057,0.000657998l-6.7265e-005 7.31257e-005 -6.71318e-005 0.000146251 -5.59432e-005 8.52467e-005 -7.83204e-005 6.08715e-005 -6.71318e-005 0.000146251 -6.71318e-005 7.31257e-005c-0.000119612,0.000246017 -0.000264398,0.000432627 -0.000403057,0.000657998l-6.71318e-005 7.31257e-005 -0.000201529 0.000292503 -0.000201529 0.000219244 -0.00026866 0.000146251 -0.000134264 0 -0.00329106 0 -0.000132932 -3.99594e-006 -0.000202861 -6.91298e-005 -0.000201529 -0.000219244 -0.000134397 -0.000292503 0 -0.000146251 5.72751e-006 -0.000223107 -7.27261e-005 -0.000142389 0 -0.000219377c0,-0.000254009 -0.000134397,-0.00011162 -0.000134397,-0.000365495l5.72751e-006 -0.00022324 -7.28593e-005 -0.000142389 5.72751e-006 -0.000369491 -7.28593e-005 -0.000142255 0 -0.000219377 0 -0.000146251 -0.000134397 -7.31257e-005 0 -0.000146251 5.72751e-006 -0.000296232 -7.28593e-005 -0.000142389 0 -0.000292503 -6.7265e-005 -0.000146118 0 -0.000292503 0 -0.000146251 -6.71318e-005 -7.31257e-005 0 -0.000365495 -0.000134397 -7.31257e-005 0 -0.000146251 5.72751e-006 -0.000296366 -7.27261e-005 -0.000142255 0 -0.000219377c0,-0.000279583 2.05125e-005,-2.66396e-005 -6.71318e-005,-0.000219377l0 -0.000146251c-5.42116e-005,-4.08918e-005 -0.000165831,-0.000146118 -0.000201529,-0.000146118 -0.000407319,0 -0.000656266,0.000524001 -0.000940378,0.000731124l-0.000671717 0.000731124c-0.000702619,0.000512146 -0.00155762,0.0018372 -0.00226556,0.0024322 -0.000727128,0.000611379 -0.00171013,0.00201382 -0.00236866,0.00239317l-0.000134397 0 -0.00201489 0 -0.000132798 -3.99594e-006 -0.000202994 -6.91298e-005 -0.00026866 -0.00029237 1.99797e-006 -0.0115479 0.000266662 -0.000150247 0.000134264 0 0.0014777 0 0.000339388 -6.26031e-006 0.000130667 7.9386e-005 0.000134397 0 0.000124673 8.79107e-006 0.000143987 0.000210586 6.71318e-005 7.31257e-005 0 7.29925e-005c0.000211918,0.000192737 6.7265e-005,0.00492246 6.7265e-005,0.00562975l0.00013413 7.31257e-005c0.000488837,-0.000356305 0.000839414,-0.000948636 0.00134343,-0.001316l0.00127617 -0.00138912 0.000402924 -0.000365628c0.000197133,-0.000320474 0.00137127,-0.00153031 0.00167909,-0.00175475 0.000133598,-9.73677e-005 0.000186078,-0.000133065 0.000335792,-0.000219244l0.000198731 -0.000151846 0.00275653 5.59432e-006 6.71318e-005 0 5.59432e-005 -8.53799e-005 0.000136928 0.000453672 8.65787e-006 0.000143454c0,0.00014119 2.11785e-005,0.000130134 6.71318e-005,0.000219377l-5.72751e-006 0.000296366 7.29925e-005 0.000142255 0 0.000219377c0,0.000279583 -2.07789e-005,2.66396e-005 6.69986e-005,0.000219377 0.000110954,0.000100831 6.71318e-005,5.16808e-005 6.71318e-005,0.00029237l7.29925e-005 0.000142389 -5.72751e-006 0.00022324c0,0.00014119 2.11785e-005,0.000130134 6.71318e-005,0.000219377l-5.72751e-006 0.000296232 7.28593e-005 0.000142389 0 0.000292503 0.0001308 7.92528e-005 3.59635e-006 0.000139991 0 0.000219377 7.29925e-005 0.000142389 -5.86071e-006 0.000150114c0,0.000141057 2.11785e-005,0.000130134 6.7265e-005,0.000219377l-5.72751e-006 0.000296232 7.28593e-005 0.000142389 0 0.000292503c0.000195934,0.000156241 8.205e-005,4.67525e-005 0.000201395,0.00029237l0.000134397 0c0.000195934,-0.000156241 8.205e-005,-4.67525e-005 0.000201529,-0.00029237l0.000201529 -0.000219377 6.69986e-005 -0.000146251 6.7265e-005 -7.31257e-005 0 -7.31257e-005 0.000201529 -0.000219244c0.000212451,-0.000437289 0.000526265,-0.000732722 0.000738716,-0.00116988 6.7931e-005,-0.000110421 0.000123874,-0.000195135 0.000201529,-0.000292503 0.000162502,-0.000264265 0.000323405,-0.00042943 0.000470189,-0.000731124 0.000110022,-0.000179018 0.000168362,-0.000316478 0.000335792,-0.000438621 0.000119612,-0.000246017 0.000264398,-0.000432627 0.000402924,-0.000657998 0.000119079,-0.000244951 5.02156e-005,-0.000206324 0.000268794,-0.000365628l0 -7.31257e-005 0.000201395 -0.000219244c7.92528e-005,-0.000163034 0.00011202,-0.000220176 0.000201529,-0.000365628l6.71318e-005 -7.31257e-005c0.000118147,-0.000192071 0.000154909,-0.000204592 0.000268527,-0.000438621l6.7265e-005 -7.31257e-005 6.71318e-005 -7.31257e-005c8.205e-005,-5.00824e-005 7.17937e-005,-7.31257e-005 0.000201529,-7.31257e-005l0.00559245 8.92426e-006 -0.000152112 0.000356571zm-0.0303582 0.0035095l-0.00026866 7.31257e-005 -6.71318e-005 7.31257e-005 -6.7265e-005 0 -6.71318e-005 7.31257e-005 -0.000537321 0.00029237 -6.71318e-005 7.31257e-005c-0.000299829,0.000172758 -0.000584473,0.000345649 -0.000873113,0.000511747l-6.7265e-005 7.32589e-005 -6.69986e-005 0c-0.000143721,0.00021325 -4.30229e-005,8.92426e-005 -0.00026866,0.000219244l-6.7265e-005 0 -6.71318e-005 7.31257e-005 -0.000268527 0.000146251 -6.7265e-005 7.31257e-005 -0.00026866 0.000146251c-0.00013493,0.00020033 -0.000198199,0.000174489 -0.000403057,0.00029237l-0.000402924 0.000219377 -5.59432e-005 8.52467e-005 -7.84536e-005 6.10047e-005 -0.000201395 7.31257e-005 -6.71318e-005 7.31257e-005 -0.000134397 7.29925e-005 -6.71318e-005 7.31257e-005 -6.7265e-005 0 -5.581e-005 8.53799e-005 -7.84536e-005 6.08715e-005 -0.000134397 0c-0.000218311,0.00032447 -0.000520538,0.000242687 -0.000604452,0.000584872l0.00503728 0c0,-0.000128936 0.000254009,-0.000106692 0.000335925,0l0.00021658 3.19675e-006 -8.23164e-005 0.000362432 -0.000201395 0.000219377 0 7.31257e-005 -0.000201529 0.000219244 0 7.31257e-005 -5.59432e-005 8.52467e-005 -7.84536e-005 6.10047e-005c-0.00015118,0.00031115 -0.000251611,0.000346848 -0.000402924,0.000657998l-6.71318e-005 7.31257e-005 -6.7265e-005 0.000146251 -5.581e-005 8.52467e-005 -7.84536e-005 6.10047e-005 -6.7265e-005 0.000146118 -6.71318e-005 7.31257e-005c-0.000153977,0.000250412 -0.000161836,0.000226836 -0.000402924,0.000365628l-0.000134397 0 -0.00725356 0c-0.000206457,0 -0.000441685,0.000393067 -0.000604586,0.000511747l-0.000470189 0.000511747 -0.000470056 0.00051188 -0.00026866 0.00029237c0,0.000133598 -0.00115309,7.31257e-005 -0.0013433,7.31257e-005 -0.000470189,0 -0.000940378,0 -0.00141043,0l-0.00128629 -3.59635e-006 7.7388e-005 -0.000142655 0.00147757 -0.00160837 0.000201395 -0.000219377c0.000275054,-0.000200463 0.000561563,-0.000577014 0.000873246,-0.000804249l0.000201529 -0.000219377c0.00026946,-0.000196467 0.000469123,-0.000388405 0.000738716,-0.000584872l0.000201395 -0.000219377 0.000201529 -0.000146118c8.03184e-005,-0.000119345 0.000284378,-0.000279183 0.000403057,-0.000365628l6.71318e-005 0 0.000201529 -0.000219377c0.000225904,-0.000130134 0.00039733,-0.000287708 0.000604452,-0.000438621l6.71318e-005 -7.31257e-005 6.71318e-005 0 0.000201529 -0.000219377 0.000268794 -0.000146251 0.000201395 -0.000219244 6.71318e-005 0 6.71318e-005 -7.31257e-005 0.000134397 -7.31257e-005 6.71318e-005 -7.31257e-005 6.7265e-005 0 5.59432e-005 -8.52467e-005 7.83204e-005 -6.10047e-005c0.000320341,-0.000184479 0.000552905,-0.000400393 0.000873113,-0.000584872l5.60763e-005 -8.52467e-005 7.83204e-005 -6.10047e-005 6.71318e-005 0 6.71318e-005 -7.31257e-005 0.00026866 -0.000146118 6.71318e-005 -7.32589e-005c0.000175955,-0.000128136 0.000278517,-0.000181948 0.000470189,-0.00029237l5.59432e-005 -8.52467e-005 7.83204e-005 -6.10047e-005 0.000134397 0c0.000132532,-0.000196867 0.00114111,-0.000795325 0.00141043,-0.000950501l0.000134264 -7.31257e-005 6.7265e-005 -7.29925e-005 0.000402924 -0.000219377 6.71318e-005 -7.31257e-005 0.000134397 -7.31257e-005 0.000402924 -0.000219377 6.7265e-005 -7.31257e-005c0.000325403,-0.00018741 0.00145146,-0.000875644 0.00174623,-0.000950368l6.71318e-005 -7.31257e-005 0.000134397 -7.31257e-005 0.000470056 -0.000219377 6.7265e-005 -7.31257e-005 0.000134264 -7.31257e-005c0.000186744,-0.000107491 0.000302892,-0.000159838 0.000537321,-0.000219244l6.71318e-005 -7.31257e-005 0.000201529 -7.31257e-005 6.71318e-005 -7.31257e-005 6.71318e-005 0 6.7265e-005 -7.31257e-005 0.000403057 -0.000146251 0.00013413 -7.31257e-005 0.000201529 -7.31257e-005c0.000202727,-0.000105759 0.00041984,-0.000122809 0.000604452,-0.000219244 9.2839e-005,-0.000120811 4.75517e-005,-7.31257e-005 0.000268794,-7.31257e-005 9.49702e-005,-0.000124007 0.000194602,-7.31257e-005 0.000402924,-7.31257e-005l6.71318e-005 -7.31257e-005 0.000470189 0 6.7265e-005 -7.31257e-005 0.000742312 6.26031e-006 0.000130667 -7.9386e-005 0.000335925 0c0.000101364,-0.000132266 0.00174623,-0.000113751 0.00174623,0 0.000700755,0.000366028 0.00043649,-3.36991e-005 0.000805981,0.000804249l0 0.0104551 6.71318e-005 7.31257e-005 0 0.000731124 -0.00490302 0c-0.000256806,0 -2.43752e-005,2.25105e-005 -0.000201529,-7.31257e-005 -0.000195801,-0.000156241 -8.19168e-005,-4.67525e-005 -0.000201395,-0.00029237l-1.79817e-005 -0.00708826 -6.08715e-005 -0.000355772 -0.000324204 -0.000305956 -6.71318e-005 -7.31257e-005 -0.000134397 0 -0.000604452 0 -0.000134264 7.31257e-005zm0.0442612 0.00782312l-0.000201395 0.000146118 -0.000134397 0c-0.000256806,0 -2.45084e-005,-2.23773e-005 -0.000201529,7.31257e-005l-0.00490302 0c0,0.000133731 -0.0012145,7.31257e-005 -0.00141043,7.31257e-005 -0.00051481,0 -0.00102975,0 -0.00154483,0l-0.000201395 0 -0.00913432 0 -0.000470189 -0.000146251 -7.83204e-005 -6.08715e-005 -5.59432e-005 -8.52467e-005 -0.000201529 -0.000219377 -6.71318e-005 -0.000146251c-0.000118413,0 -9.80337e-005,-0.000276386 0,-0.000365495 0,-0.000240822 -4.38221e-005,-0.000191672 6.71318e-005,-0.000292503l6.7265e-005 -7.31257e-005c0.00016703,-0.00034405 0.000283046,-0.000500425 0.000470056,-0.000804249l6.71318e-005 -7.31257e-005 0 -7.31257e-005 6.7265e-005 -7.31257e-005 6.71318e-005 -7.29925e-005 6.71318e-005 -7.31257e-005 0 -7.31257e-005 6.7265e-005 -7.31257e-005 6.71318e-005 -7.31257e-005 6.69986e-005 -7.31257e-005 0 -7.31257e-005 6.7265e-005 -7.31257e-005c0.000156508,-0.000254275 0.000313681,-0.000476849 0.000470189,-0.000731124l6.71318e-005 -7.31257e-005 6.7265e-005 -7.31257e-005 0 -7.29925e-005 6.69986e-005 -7.31257e-005 6.71318e-005 -7.31257e-005 6.7265e-005 -0.000146251 6.71318e-005 -7.31257e-005 6.71318e-005 -7.31257e-005c0.000166764,-0.000343118 0.000353641,-0.000499492 0.000537321,-0.000877375l6.71318e-005 -7.31257e-005 6.7265e-005 -7.31257e-005 6.71318e-005 -7.29925e-005 0 -0.000146251 0.000134397 -0.000146251 6.71318e-005 -7.31257e-005 6.71318e-005 -7.31257e-005c8.93758e-005,-0.000145452 0.000122276,-0.000202594 0.000201395,-0.000365495l6.7265e-005 -7.31257e-005 6.71318e-005 -7.31257e-005 6.71318e-005 -7.31257e-005c7.9386e-005,-0.000163034 0.000112153,-0.000220176 0.000201529,-0.000365628l6.7265e-005 -7.29925e-005 6.69986e-005 -7.32589e-005c0.000119745,-0.000245883 0.000264398,-0.000432627 0.000403057,-0.000657998l6.7265e-005 -7.31257e-005 6.71318e-005 -0.000146118 6.71318e-005 -7.31257e-005 6.7265e-005 -7.31257e-005c0.000212318,-0.000437156 0.000526265,-0.000732589 0.000738716,-0.00116988l6.71318e-005 -7.31257e-005 6.71318e-005 -7.29925e-005 6.71318e-005 -0.000146251c0.000162635,-0.000264265 0.000323538,-0.00042943 0.000470322,-0.000731124l6.71318e-005 -7.31257e-005 6.69986e-005 -7.31257e-005 6.7265e-005 -0.000146251 6.71318e-005 -7.31257e-005 6.71318e-005 -7.31257e-005c0.000277451,-0.000570487 0.000682107,-0.00101244 0.0012089,-0.001316l0.000134397 0 0.00181349 0 0.000402924 0 0.0001308 7.9386e-005 0.000339388 -6.26031e-006 6.71318e-005 7.31257e-005c0.000133997,0 0.00026866,-5.30128e-005 0.00026866,7.31257e-005 0.000133997,0 0.000268794,-5.30128e-005 0.000268794,7.31257e-005l6.69986e-005 7.29925e-005 0.000134397 0 6.71318e-005 7.32589e-005 0.000134397 0 6.71318e-005 7.29925e-005 6.71318e-005 0 0.000134397 7.31257e-005 0.000134264 7.31257e-005 6.71318e-005 7.31257e-005 0.000470189 0.000219377 6.71318e-005 7.31257e-005 0.000134397 7.31257e-005 6.71318e-005 7.31257e-005 6.71318e-005 0 6.7265e-005 7.29925e-005 6.71318e-005 7.31257e-005c0.000350977,0.000202195 0.000561829,0.000405588 0.000873113,0.000585006l6.7265e-005 7.29925e-005 6.69986e-005 0 6.71318e-005 7.31257e-005 6.7265e-005 7.31257e-005 6.71318e-005 7.31257e-005 6.71318e-005 0 6.7265e-005 7.31257e-005 0.000201529 0.000146251 6.71318e-005 7.31257e-005 6.69986e-005 7.31257e-005 0.000134397 7.31257e-005 6.71318e-005 7.29925e-005 6.7265e-005 0 6.71318e-005 7.31257e-005 6.71318e-005 7.31257e-005 6.7265e-005 7.31257e-005 6.71318e-005 7.31257e-005 6.71318e-005 0 6.71318e-005 7.31257e-005 6.71318e-005 7.31257e-005 6.71318e-005 7.31257e-005 6.7265e-005 7.31257e-005c0.000370557,0.000213516 0.000616707,0.000568223 0.000940245,0.000804249l6.7265e-005 7.31257e-005 0.000335792 0.00029237 6.71318e-005 7.31257e-005 6.71318e-005 7.31257e-005 6.7265e-005 7.31257e-005 6.71318e-005 7.31257e-005 6.71318e-005 7.31257e-005 6.7265e-005 0 6.71318e-005 7.31257e-005 6.69986e-005 7.29925e-005 6.73982e-005 7.32589e-005 6.69986e-005 7.29925e-005 6.71318e-005 7.31257e-005 6.7265e-005 7.31257e-005 6.71318e-005 7.31257e-005 6.71318e-005 7.31257e-005 6.7265e-005 7.31257e-005 6.71318e-005 7.31257e-005 0.000335792 0.00029237 6.71318e-005 7.31257e-005 6.71318e-005 7.31257e-005 6.7265e-005 7.31257e-005 6.71318e-005 7.31257e-005 6.71318e-005 7.31257e-005 6.7265e-005 7.31257e-005 6.71318e-005 7.31257e-005 6.71318e-005 0.000146251 6.71318e-005 7.29925e-005 6.71318e-005 7.31257e-005 6.71318e-005 7.31257e-005 0 7.31257e-005 6.7265e-005 7.31257e-005 0.000134264 0.000292503 6.7265e-005 0.000146118 6.71318e-005 0.000219377c8.77775e-005,0.000192737 6.71318e-005,-6.02055e-005 6.71318e-005,0.000219377l0 0.000219377 7.28593e-005 0.000142255 -5.59432e-006 0.000442617 0 0.00182774 0 0.000365628 -7.29925e-005 0.000142389 5.72751e-006 0.000223107c-0.000170094,0.000350177 -0.000215648,0.000399727 -0.000537321,0.000585006zm-0.00671637 0.00190087l6.71318e-005 0.000219377 6.71318e-005 0.000146251 0.000201529 0.000584872c0.000159172,0.000199397 0.000100298,0.000208988 0.000201529,0.000438621l6.71318e-005 0.000219377 0 0.000146251 0.000134397 7.31257e-005 0 0.000146251 0.000134264 0.000219244 5.59432e-005 -8.52467e-005 7.84536e-005 -6.08715e-005 0.000134264 -0.000438754c5.87403e-005,-0.000274921 2.74388e-005,-0.000299829 0.000201529,-0.000438621l0 -0.000146251 6.71318e-005 -7.31257e-005 0.000134397 -0.000438621 3.46315e-006 -0.000139991 0.0001308 -7.9386e-005c1.58506e-005,-0.000206457 -1.59838e-006,-0.000292503 0.000201395,-0.000292503l0.000940378 0c-0.00013746,0.000223506 -0.000271191,0.000502156 -0.000335925,0.000804249 -0.000119212,0.00024575 -5.46112e-006,0.000136128 -0.000201395,0.000292503l-6.71318e-005 0.00029237c-0.00010829,0.00022284 -8.45807e-005,0.000291837 -0.00026866,0.000438754l-6.7265e-005 0.00029237c-0.00010829,0.00022284 -8.44475e-005,0.000291837 -0.000268527,0.000438754l-6.71318e-005 0.00029237c-0.000119479,0.00024575 -5.59432e-006,0.000136262 -0.000201529,0.000292503l-0.00100751 0c-2.03793e-005,-8.32487e-005 -0.000620969,-0.00145479 -0.000694361,-0.00158372 -0.000292503,-0.000513611 -0.000464328,-0.00104214 -0.000716206,-0.00156015l0.00107477 0zm-0.0318359 0.00102363l-6.69986e-005 0.000146251 -6.71318e-005 0.000219244 -6.7265e-005 7.31257e-005 -6.71318e-005 0.000292503c-0.000126005,0.000285976 2.02461e-005,0.000188608 -0.000201529,0.000365495l-6.71318e-005 0.000292503c-0.00010123,0.000229767 -4.2357e-005,0.000239357 -0.000201529,0.000438621l-6.71318e-005 0.000219377 -6.71318e-005 7.31257e-005 -0.000940378 0 -0.000119212 -7.61892e-005 -8.23164e-005 -0.000362432 -8.65787e-006 -0.000216713 -0.000125606 -0.000441285 -0.000134264 -0.000292503 0 -0.000219377 -0.000134397 -0.000438621 -0.000134397 0 -1.77153e-005 0.000141723 -0.000120145 0.000656266 -0.000115616 8.24495e-005 -8.21832e-005 0.000362432 0 0.000219377 -0.000201529 0.000584872c-0.000256806,0 -0.000881637,9.0841e-005 -0.00100751,-7.31257e-005 -0.00017409,-0.000138792 -0.000142655,-0.000163834 -0.000201395,-0.000438621l-6.7265e-005 -0.000219377 -6.71318e-005 -7.31257e-005 -6.71318e-005 -0.000219377c-0.000159305,-0.000199264 -0.000100298,-0.000208854 -0.000201529,-0.000438621l-6.7265e-005 -0.000292503c-0.000221775,-0.000176887 -7.53901e-005,-7.95192e-005 -0.000201529,-0.000365495l-6.69986e-005 -0.000292503 -6.71318e-005 -7.31257e-005 0 -0.000146118 -0.000134397 -7.31257e-005 0 -0.000146251 -6.71318e-005 -0.000292503 0.000873113 0 0.000139591 -1.99797e-006 0.000196201 0.00058687 0.000134264 0.000292503 0 0.000146251c0.000151712,0.000344317 0.000159038,0.000828891 0.000403057,0.00102363 0.000111487,-0.0002295 0.000111087,-0.000380014 0.000201395,-0.000585006l0 -0.000219244 0.000137993 -0.000651871 0.0001308 -7.92528e-005 1.17214e-005 -0.000216047 5.54104e-005 -0.000295833 0.000940245 0c0.000268927,0 0.000162102,0.000197 0.00026866,0.000438754l0 0.000219244 0.000112819 7.85868e-005 0.000155842 0.000652537 0 0.000219377 6.7265e-005 7.31257e-005 0 0.000219377 0.000201395 0c2.15781e-005,-0.000281181 4.30229e-005,-0.000385475 0.000201529,-0.00051188l5.19472e-006 -0.00014412 0.000196334 -0.000587003 6.71318e-005 -0.000146118 0.000134264 -0.00051188 0.00107464 0c-5.68755e-005,0.00026613 -3.7029e-005,0.000234428 -0.000201529,0.000365628 -2.15781e-005,0.000283845 -0.000104694,0.000458867 -0.000201529,0.000657998zm0.0362016 -0.000365628c-4.60865e-005,8.92426e-005 -6.7265e-005,7.81872e-005 -6.7265e-005,0.000219377l0 0.000146251c0,0.000279583 -2.06457e-005,2.66396e-005 6.7265e-005,0.000219377l0.00201489 0 6.71318e-005 7.31257e-005 0 0.000511747c0,0.000133864 -0.00189181,7.31257e-005 -0.00214928,7.31257e-005l0 0.000146251 0 0.000365495 6.7265e-005 7.31257e-005c0.000402924,0 0.000805981,0 0.0012089,0 0.000320208,0 0.00107464,-0.000141856 0.00107464,0.000219377 0,0.000226836 4.67525e-005,0.000335126 -6.71318e-005,0.000438621l-0.00329119 0 0 -0.00314387 0.00315679 0c0.000154776,0 0.000201529,5.08816e-005 0.000201529,0.000219377l0 0.000219377c0,0.000357104 -0.000693562,0.000219244 -0.00100751,0.000219244 -0.000425301,0 -0.000850735,0 -0.00127604,0zm-0.0278733 0.000585006c0.000110821,0.00018994 6.73982e-005,0.000360434 6.73982e-005,0.000657998l-0.00221655 0 0 0.000584872 0.00235068 0 0 0.000657998 -0.00329092 0c-0.000122809,0 -6.7265e-005,-0.00132212 -6.7265e-005,-0.00153537 0,-0.000352042 -0.000127337,-0.00143148 6.7265e-005,-0.0016085l0.00329092 0 0 0.000657998 -0.00235068 0 4.79513e-006 0.00049816 0.0001966 8.68451e-005 0.00194775 0zm0.00194789 -7.31257e-005l0.000134397 7.31257e-005 0.00201489 0c0.000110688,0.00018994 6.71318e-005,0.000360434 6.71318e-005,0.000657998l-0.00221641 0 0 0.000584872 0.000134397 0c0.000359368,0 0.00209147,-8.96422e-005 0.00221641,7.31257e-005l0 0.000584872 -0.00329119 0 0 -0.00314387 0.00329119 0 0 0.000657998 -0.00235081 0 0 0.00051188zm0.0179328 0.000438621l0 0.000146251 0.00026866 0.000146251c5.46112e-006,0.000268261 5.50108e-005,0.000405188 0.000134397,0.000584872l0 0.000219377 0 7.31257e-005c0,0.000237625 5.80743e-005,5.5144e-005 0.00013413,0.000365495l-0.00100738 0 -0.000134397 -7.31257e-005 0 -0.000657998 -6.71318e-005 -0.000219377 -7.83204e-005 -6.08715e-005 -5.60763e-005 -8.52467e-005c-0.000150514,-3.82278e-005 -0.000154376,-7.31257e-005 -0.000335659,-7.31257e-005l-0.00107477 0 0 0.00116974 -0.00100738 0 0 -0.00314387 0.00255221 0c0.000441019,0 0.000611912,0.00010203 0.000873246,0.000292503l6.71318e-005 7.31257e-005 6.71318e-005 7.31257e-005 6.7265e-005 7.31257e-005 6.71318e-005 0.000146118 0 0.000438754 0 0.000146251 -6.71318e-005 7.31257e-005c-0.000130534,0.000211918 -0.000139059,0.000225371 -0.000403057,0.00029237zm-0.0264627 0.000292503c0,0.000300095 9.60357e-005,0.00109449 -6.71318e-005,0.00124287l-0.000940378 0 0 -0.00314387 0.00100751 0 0 0.00116988 0.0014777 0c0.000154776,0 0.000201529,-5.08816e-005 0.000201529,-0.000219377l0 -0.000950501 0.000940111 0 0 0.00314387 -0.000940111 0 0 -0.00102363c0,-0.000197399 -3.21007e-005,-0.000201529 -6.7265e-005,-0.000365495l-0.00141043 0 -0.000128536 3.86274e-006 -7.29925e-005 0.000142389zm0.0224328 0.000438621l-6.71318e-005 7.31257e-005c-0.000157307,0.000323804 -3.84942e-005,0.000194203 -0.000335925,0.000365628 -0.000143454,0.00021325 -4.28897e-005,8.92426e-005 -0.000268527,0.000219244l-0.000201529 7.31257e-005 -0.000198332 2.90372e-005 -0.000473386 4.40885e-005 -0.00208202 0 0 -0.00314387 0.00221641 0c0.0002624,0 0.00049896,5.60763e-005 0.000671584,0.000146251l0.000134397 7.31257e-005 0.000134397 7.31257e-005 6.69986e-005 7.31257e-005 6.7265e-005 0 6.71318e-005 7.31257e-005 6.71318e-005 7.31257e-005 6.7265e-005 7.29925e-005 6.71318e-005 0.000146251 6.71318e-005 7.31257e-005 6.7265e-005 0.000219377 6.71318e-005 7.31257e-005 0 0.000950501 -0.000134397 0.00029237zm-0.0449327 0.000804249l0 -7.31257e-005 0 -7.31257e-005c0.000119345,-0.000245617 5.46112e-006,-0.000136128 0.000201529,-0.00029237l0.000134264 -0.000365628 6.7265e-005 -7.31257e-005 6.69986e-005 -0.000146251 6.71318e-005 -7.29925e-005c0.000106425,-0.000218578 0.000286775,-0.00050149 0.000335925,-0.000731124l6.71318e-005 -7.31257e-005 0 -7.31257e-005 6.7265e-005 -7.31257e-005 6.71318e-005 -7.31257e-005 0 -7.31257e-005 6.69986e-005 -7.31257e-005 0.000134397 -0.000365495 6.71318e-005 -7.31257e-005 6.7265e-005 -0.000146251 6.71318e-005 -0.000146251 6.71318e-005 -7.31257e-005c0,-0.000133331 0.000968349,-7.31257e-005 0.00114177,-7.31257e-005l6.7265e-005 7.31257e-005 0 7.31257e-005 6.71318e-005 7.31257e-005 0 7.31257e-005 6.71318e-005 7.31257e-005 6.7265e-005 0.000146251 6.71318e-005 7.29925e-005c0.00012747,0.000596061 0.000678377,0.00115882 0.000805981,0.00175475l6.69986e-005 7.31257e-005 6.7265e-005 0.000146251 6.71318e-005 7.31257e-005 0 7.31257e-005 6.71318e-005 7.31257e-005 6.7265e-005 0.000219244 6.71318e-005 7.31257e-005c0,0.000133331 -0.000906679,7.31257e-005 -0.00107451,7.31257e-005l-6.7265e-005 -7.31257e-005c-0.00010123,-0.000229767 -4.2357e-005,-0.000239357 -0.000201529,-0.000438621l-6.71318e-005 -7.31257e-005 -0.00141856 -1.06558e-005 -0.000193403 0.000156907c-1.90473e-005,0.000248281 -5.1148e-005,0.000267595 -0.000134264,0.000438621l-0.00107464 0zm0.00483575 -7.31257e-005l0 -0.00307075 0.000940378 0c0,0.000547843 -0.000128403,0.00215048 6.71318e-005,0.00248587 0.000366028,0 0.00215741,-9.12406e-005 0.00228355,7.31257e-005l0 0.000584872 -0.00329106 0 0 -7.31257e-005zm0.00470149 -0.000657998l6.71318e-005 7.31257e-005 6.71318e-005 0c0.000359368,0 0.00209161,-8.96422e-005 0.00221655,7.31257e-005l0 0.000584872 -0.00329106 0 0 -0.00314387 0.000940245 0 0 0.00175475 0 0.000657998zm0.0255223 -0.00241275l6.7265e-005 7.31257e-005c0,0.000438754 0,0.000877375 0,0.001316 0,0.000341653 -0.000126671,0.00109675 0.000201529,0.00109675l0.00194775 0c0.000154776,0 0.000201529,5.08816e-005 0.000201529,0.000219377l0 0.000438621 -0.00329119 0 0 -0.00314387 0.000873113 0zm0.015112 0l0.000940245 0 0 0.00314387 -0.000940245 0 0 -0.00314387z"/>
  </g>
 </g>
</svg>
