<?xml version="1.0" encoding="UTF-8"?>
<!DOCTYPE svg PUBLIC "-//W3C//DTD SVG 1.1//EN" "http://www.w3.org/Graphics/SVG/1.1/DTD/svg11.dtd">
<!-- Creator: CorelDRAW -->
<svg xmlns="http://www.w3.org/2000/svg" xml:space="preserve" width="1in" height="2in" style="shape-rendering:geometricPrecision; text-rendering:geometricPrecision; image-rendering:optimizeQuality; fill-rule:evenodd; clip-rule:evenodd"
viewBox="0 0 0.576641 0.122547"
 xmlns:xlink="http://www.w3.org/1999/xlink">
 <defs>
  <style type="text/css">
   <![CDATA[
    .fil0 {fill:black}
   ]]>
  </style>
 </defs>
 <g id="Layer_x0020_1">
  <metadata id="CorelCorpID_0Corel-Layer"/>
  <g id="_649874792">
   <path id="_649876952" class="fil0" d="M0.128304 0.00740217c0,-0.00192526 0.00136456,-0.00328983 0.00328983,-0.00328983 0.00267924,0 0.00317139,0.00233419 0.00411234,0.00411234 -0.00137599,0.00145036 -0.00199054,0.00246731 -0.00493486,0.00246731 -0.00189495,0 -0.00246731,-0.000572357 -0.00246731,-0.00246731l0 -0.000822515zm-0.00164503 0.000822515l0 0.00328983 0 0.0016448c0.00103863,0.000549742 0.00271957,0.00164503 0.00411234,0.00164503 0.00435854,0 0.00478285,-0.00399367 0.00657965,-0.00657965 -0.000563497,-0.00100343 -0.000822282,-0.000879867 -0.000822282,-0.00246754 0,-0.00332223 -0.00179074,-0.00575714 -0.00493486,-0.00575714 -0.00182222,0 -0.00493486,0.00541302 -0.00493486,0.00822468z"/>
   <path id="_649877264" class="fil0" d="M0.0148043 0.0156269c0.00189589,0 0.00160446,0.00229899 0.0016448,0.00411234l-0.00411234 -0.000822515c0,-0.00233745 0.000126128,-0.00328983 0.00246754,-0.00328983zm-0.00493486 0.00411234l0.00493486 0.00328983c-0.00275547,0.00411491 -0.00657266,0.00711098 -0.0108291,0.0100066l0.000959368 0.000685429c8.50958e-005,8.50958e-005 0.00610568,-0.00376403 0.00659294,-0.00409929 0.00286831,-0.00197376 0.0032875,-0.0026818 0.00502065,-0.00588956l0.00236846 0.00176416c0.000563497,-0.0010032 0.000822282,-0.000879634 0.000822282,-0.00246731 0,-0.00184413 -0.000650924,-0.00180543 -0.0016448,-0.00328983 0.000563497,-0.00100343 0.000822515,-0.000879867 0.000822515,-0.00246754 0,-0.00190102 -0.000919501,-0.00493462 -0.00246754,-0.00493462 -0.00370761,0 -0.00529646,0.0047276 -0.00657965,0.00740217z"/>
   <path id="_649877360" class="fil0" d="M0.341322 0.0263188c0.00588816,-0.00137179 0.0129672,-0.00504117 0.0165865,-0.00918428l-0.000959601 -0.000685429c-5.61865e-005,-5.61865e-005 -0.0142537,0.00472736 -0.0156269,0.00986971z"/>
   <path id="_649876832" class="fil0" d="M0.383268 0.0222065c0.00088896,-0.00332946 0.00247221,-0.00402072 0.00657965,-0.00411234 -0.000896886,0.0033593 -0.00263331,0.00378385 -0.00657965,0.00411234zm-0.00164503 -0.00164503c-0.00103863,-0.000549509 -0.00271933,-0.0016448 -0.00411211,-0.0016448 -0.00212227,0 -0.00604343,0.00674495 -0.00623251,0.00930622l0.00294245 -0.00437159 0.00164503 0c0.00254075,0 0.0027254,0.00246754 0.00575714,0.00246754 0.00400906,0 0.0106922,-0.00560257 0.0106922,-0.010692 0,-0.00134615 -0.000492623,-0.00246754 -0.00164503,-0.00246754 -0.00309073,0 -0.00766468,0.00533772 -0.0090472,0.00740217z"/>
   <path id="_649876784" class="fil0" d="M0.462224 0.0263188c0.00189589,0 0.00160446,0.00229899 0.0016448,0.00411234l-0.00411234 -0.000822515c0,-0.00233722 0.000126128,-0.00328983 0.00246754,-0.00328983zm-0.00493486 0.00411234l0.00523281 0.00361179 -0.011127 0.0096846 0.000959368 0.000685429c8.50958e-005,8.50958e-005 0.00610568,-0.00376403 0.00659294,-0.00409929 0.00286831,-0.00197376 0.00328726,-0.0026818 0.00502065,-0.00588956l0.00236823 0.00176416c0.00056373,-0.0010032 0.000822515,-0.000879634 0.000822515,-0.00246731 0,-0.00184413 -0.000650924,-0.00180543 -0.0016448,-0.00328983 0.000563497,-0.00100343 0.000822282,-0.000879867 0.000822282,-0.00246754 0,-0.00190102 -0.000919268,-0.00493462 -0.00246731,-0.00493462 -0.00370761,0 -0.00529646,0.0047276 -0.00657965,0.00740217z"/>
   <path id="_649876496" class="fil0" d="M0.332275 0.0271414c0.00189589,0 0.00160446,0.00229899 0.0016448,0.00411211l-0.00411234 -0.000822282c0,-0.00233745 0.000126128,-0.00328983 0.00246754,-0.00328983zm-0.00493486 0.00411211l0.00493486 0.00329006c-0.00275547,0.00411491 -0.00657266,0.00711098 -0.0108291,0.0100066l0.000959368 0.000685429c8.53289e-005,8.50958e-005 0.00610568,-0.00376403 0.00659294,-0.00409929 0.00286831,-0.00197376 0.0032875,-0.0026818 0.00502065,-0.00588956l0.00236846 0.00176416c0.000563497,-0.00100343 0.000822282,-0.000879634 0.000822282,-0.00246731 0,-0.00184413 -0.000650924,-0.00180566 -0.0016448,-0.00329006 0.00056373,-0.0010032 0.000822515,-0.000879634 0.000822515,-0.00246731 0,-0.00190102 -0.000919501,-0.00493486 -0.00246754,-0.00493486 -0.00370761,0 -0.00529646,0.00472783 -0.00657965,0.00740217z"/>
   <path id="_649876664" class="fil0" d="M0.350369 0.033721l0 -0.00657965c-0.00361179,0.00264613 -0.00118481,0.00822445 -0.00657965,0.00822445 -0.00134615,0 -0.00246754,-0.00049239 -0.00246754,-0.0016448 0,-0.0018418 0.000943514,-0.0024827 0.00178212,-0.00342691l-0.000959601 -0.000685429c-0.000303547,-0.000303547 -0.00246731,0.00511927 -0.00246731,0.00657965 0,0.00139301 0.00109529,0.00307371 0.0016448,0.00411234 0.00484137,-0.000402864 0.00450728,-0.00135127 0.00740217,-0.00328983 0.0018446,0.000429675 0.00189099,0.000822515 0.00411234,0.000822515 0.00217076,0 0.0059989,-0.00892713 0.00246754,-0.0115145 0,0.00489849 9.81516e-005,0.00729003 -0.00493486,0.00740217z"/>
   <path id="_649876400" class="fil0" d="M0.432616 0.0435905c0.00588793,-0.00137179 0.0129672,-0.00504093 0.0165862,-0.00918405l-0.000959601 -0.000685429c-5.61865e-005,-5.64197e-005 -0.0142537,0.00472713 -0.0156266,0.00986948z"/>
   <path id="_649876376" class="fil0" d="M0.540358 0.0452355c0.00588816,-0.00137179 0.0129672,-0.00504117 0.0165865,-0.00918428l-0.000959601 -0.000685429c-5.61865e-005,-5.61865e-005 -0.0142537,0.00472736 -0.0156269,0.00986971z"/>
   <path id="_649876088" class="fil0" d="M0.222887 0.0386556c0,-0.00192503 0.0013648,-0.00328983 0.00328983,-0.00328983 0.00267924,0 0.00317162,0.00233419 0.00411234,0.00411234 -0.00137575,0.00145059 -0.00199031,0.00246754 -0.00493462,0.00246754 -0.00189519,0 -0.00246754,-0.000572357 -0.00246754,-0.00246754l0 -0.000822515zm-0.0016448 0.000822515l0 0.00328983 0 0.00164503c0.00103863,0.000549509 0.00271933,0.0016448 0.00411234,0.0016448 0.00435854,0 0.00478262,-0.00399344 0.00657965,-0.00657965 -0.00056373,-0.0010032 -0.000822515,-0.000879634 -0.000822515,-0.00246731 0,-0.00332223 -0.00179051,-0.00575737 -0.00493486,-0.00575737 -0.00182222,0 -0.00493462,0.00541302 -0.00493462,0.00822468z"/>
   <path id="_649876304" class="fil0" d="M0.242419 0.0459643l0.00678715 0.00256103c0.000526195,-0.00225889 0.00164503,-0.00334275 0.00164503,-0.00493486 0,-0.00119344 -0.00464553,-0.0035239 -0.00554964,-0.00401862l-0.00288253 0.00639244z"/>
   <path id="_649876520" class="fil0" d="M0.500057 0.042768c0,-0.00158861 0.00146645,-0.00328983 0.00246754,-0.00328983 0.00308723,0 0.00385216,0.00206655 0.00493462,0.00411234 -0.00137575,0.00145059 -0.00199031,0.00246731 -0.00493462,0.00246731 -0.00189519,0 -0.00246754,-0.000572123 -0.00246754,-0.00246731l0 -0.000822515zm-0.0016448 0.000822515l0 0.00164503c0,0.00301845 0.00118598,0.00493462 0.00411234,0.00493462 0.00435854,0 0.00478262,-0.00399367 0.00657965,-0.00657965 -0.00056373,-0.0010032 -0.000822515,-0.000879634 -0.000822515,-0.00246731 0,-0.00332223 -0.00179051,-0.00575737 -0.00493486,-0.00575737 -0.00182222,0 -0.00493462,0.00541302 -0.00493462,0.00822468z"/>
   <path id="_649875968" class="fil0" d="M0.262366 0.055105c0.00588793,-0.00137179 0.0129672,-0.00504093 0.0165862,-0.00918405l-0.000959601 -0.000685429c-5.61865e-005,-5.64197e-005 -0.0142537,0.00472713 -0.0156266,0.00986948z"/>
   <path id="_649876472" class="fil0" d="M0.443308 0.0526377c0,0.00151844 0.00385869,0.00313176 0.00575714,0.00328983 0.000526195,-0.00225889 0.00164503,-0.00334275 0.00164503,-0.00493486 0,-0.00151844 -0.00385892,-0.00313176 -0.00575737,-0.00328983 -0.000526195,0.00225865 -0.0016448,0.00334275 -0.0016448,0.00493486z"/>
   <path id="_649876280" class="fil0" d="M0.105275 0.05675c0.00588816,-0.00137179 0.0129672,-0.00504117 0.0165865,-0.00918428l-0.000959601 -0.000685429c-5.61865e-005,-5.61865e-005 -0.0142537,0.00472713 -0.0156269,0.00986971z"/>
   <path id="_649875584" class="fil0" d="M0.190811 0.0608621c0.00588793,-0.00137156 0.0129672,-0.00504093 0.0165865,-0.00918405l-0.000959601 -0.000685429c-5.64197e-005,-5.61865e-005 -0.0142537,0.00472713 -0.0156269,0.00986948z"/>
   <path id="_649875392" class="fil0" d="M0.435905 0.0756665l-0.000822515 0c-0.00751734,0 -0.00774465,-0.00923791 -0.0082051,-0.0164687 -0.00041662,-0.00654468 -0.00187794,-0.0154704 -0.0024869,-0.0221869l-0.000667711 -0.0098837 -0.000977319 -0.00738795c-0.00397595,0.00291307 -0.000774255,0.0174775 2.19151e-005,0.0246519 0.000815987,0.00735228 0.00244563,0.0185905 0.00244563,0.0263408 0,0.00605299 0.00288813,0.0115145 0.00904696,0.0115145 0.00457489,0 0.00807594,-0.00294268 0.0090472,-0.00657989 0.00308933,0.00206888 0.00602735,0.00575737 0.0115145,0.00575737 0.0061973,0 0.00730891,-0.00634861 0.00986948,-0.00822468 0.000952607,0.00408949 0.00409789,0.00740217 0.00904696,0.00740217 0.00445925,0 0.00777659,-0.00174714 0.0106922,-0.00328983 0.00305832,0.00204789 0.00725412,0.00328983 0.0123368,0.00328983 0.00589492,0 0.00897026,-0.00493486 0.00986971,-0.00493486 5.12906e-005,0 0.00545522,0.00329006 0.00986948,0.00329006 0.00189495,0 0.00436087,-0.00278555 0.00493486,-0.00493486l0.0016448 0c0.00031567,0.00379224 0.00362322,0.00493486 0.00740217,0.00493486 0.00791554,0 0.0168886,-0.00270744 0.0224881,-0.00547574 0.0119677,-0.00591637 0.00707181,-0.00439397 0.0219249,-0.00439397l0.00173922 -0.0057231 -0.00256173 -3.40383e-005c-0.0144744,0 -0.0249951,-0.00822468 -0.032076,-0.00822468 -0.00734015,0 -0.00712263,0.00503627 -0.0090472,0.0090472 0.00450052,-0.00010025 0.00579934,-0.00164503 0.0106922,-0.00164503 0.00496959,0 0.00747817,0.00234958 0.0115143,0.00328983 -0.00242558,0.00331081 -0.014242,0.00657965 -0.0205615,0.00657965l-0.00246731 0c-0.00415734,0 -0.00822468,-0.00296716 -0.00822468,-0.00740217l0 -0.00411234c-0.00261955,0.00301379 -0.00302801,0.0115145 -0.00740217,0.0115145 -0.00339894,0 -0.00601592,-0.00204207 -0.00740217,-0.00411234 0.00062458,-0.00130185 0.000822515,-0.00118062 0.000822515,-0.00328983l0 -0.00328983c-0.00423264,0.00310122 -0.0033269,0.012337 -0.0115145,0.012337l-0.00411234 0c-0.00250951,0 -0.00331897,-0.000789875 -0.00493486,-0.00164503l0.00131467 -0.00566668c-0.00512556,0.00301216 -0.00608959,0.00731171 -0.014474,0.00731171 -0.00891221,0 -0.0131595,-0.0167816 -0.0131595,-0.0254963l-0.000822282 0c0,0.00383654 -0.000822515,0.00109809 -0.000822515,0.00493462l-0.000205629 0.00411234 0.00204113 0.0131285c3.82348e-005,0.00143987 -0.00408203,0.00414335 -0.00677036,0.00414335 -0.00270325,0 -0.00822468,-0.00384633 -0.00822468,-0.00493486 0,-0.00309749 0.000541349,-0.00155527 0.000822515,-0.00493486 -0.00555874,0.0014844 -0.00544333,0.010692 -0.0131593,0.010692z"/>
   <path id="_649875248" class="fil0" d="M0.118559 0.00496213c-0.00431517,0.000321266 -0.0251986,0.0118568 -0.030022,0.0144882 -0.00747747,0.00407924 -0.0219176,0.0112506 -0.0219176,0.0216728l0 0.000822515c0,0.00565712 0.00369502,0.00562332 0.00740217,0.00740217l0.00248456 -0.000777519c0.00441705,0.00380926 0.0131421,0.011058 0.0131421,0.0188717 0,0.00383281 -0.0119423,0.00657965 -0.0172716,0.00657965l-0.00246731 0c-0.00555151,0 -0.00857253,-0.00575737 -0.00986971,-0.00575737 -0.0019973,0 -0.00504606,0.00740217 -0.010692,0.00740217l-0.0016448 0c-0.0121792,0 -0.011332,-0.0355162 -0.0131595,-0.0477028l-0.0009209 -0.00738725c-0.00134708,0.00164829 -0.00262328,0.00407877 -0.00236893,0.00738725l0.00106381 0.0139634 0.00294455 0.0329267 0.000850025 0.00822398c0.000822049,0.0062866 -0.0133055,0.0131504 -0.0196627,0.0131504l-0.00246731 0c-0.00573266,0 -0.010692,-0.00548763 -0.010692,-0.0115145l0 -0.00411234c0,-0.00353765 0.000958901,-0.00445809 0.0016448,-0.00740217 -0.00264496,0.00193785 -0.00493462,0.009406 -0.00493462,0.0139818 0,0.00975757 0.00437742,0.0164494 0.0139818,0.0164494 0.00989093,0 0.0238513,-0.00783208 0.0238513,-0.0180942l0 -0.00986971c0.00261978,0.00301402 0.00330801,0.00657989 0.0090472,0.00657989 0.0030005,0 0.00195953,-0.000737885 0.00575714,-0.000822515 0.000695454,-0.0010384 0.00458352,-0.00575737 0.00575737,-0.00575737 0.000945146,0 0.00499874,0.00551164 0.00986948,0.00493486l0.00823378 -0.000746045c0.00811114,-0.00103817 0.0156178,-0.0065258 0.0156178,-0.0148808 0,-0.0187234 -0.021384,-0.0257136 -0.021384,-0.0279636 0,-0.00260976 0.0417645,-0.0257754 0.0467556,-0.0271686l0.00107174 -0.00488007z"/>
   <path id="_649875200" class="fil0" d="M0.155282 0.08214l0.000163664 0.000106311c0,-0.00317302 0.000822282,-0.0018404 0.000822282,-0.00575737l0 -0.000822515 -0.00524796 -0.0443717c-0.00127877,0.00179028 -0.00215421,0.00389762 -0.00215421,0.0073609l-0.00032756 0.00169795 0.00674378 0.0417865z"/>
   <path id="_649875656" class="fil0" d="M0.227822 0.0707319c-0.000919268,0.0034423 -0.00561586,0.00493462 -0.00986948,0.00493462l-0.00246754 0c-0.00600357,0 -0.0118822,-0.00179634 -0.0131593,-0.00657965l-0.00164503 0c-0.00144173,0.00398342 -0.00751874,0.00204743 -0.0107141,0.00738002 -0.00142052,0.00237079 -0.00385029,0.0105204 -0.00314202,0.0146861 0.00118854,0.00699231 0.00398668,0.0246167 0.00398668,0.0313941 0.00128926,-0.00094468 0.00164503,-0.000151307 0.00164503,-0.00246754l0 -0.000822282c0,-0.00913229 -0.00234701,-0.0173905 -0.00326302,-0.0255234 -0.00105775,-0.00939154 -0.000117735,-0.0155998 0.0106652,-0.0155998 0,0.00705759 0.00197772,0.00990189 0.00657965,0.0123368 0.00119297,-0.00178142 0.00246731,-0.00273775 0.00246731,-0.00575714l0 -0.00328983c0.0037976,8.46295e-005 0.00275687,0.000822515 0.00575737,0.000822515 0.00199031,0 0.00758635,-0.00144103 0.00932743,-0.00218685 0.00211481,-0.000906212 0.00616397,-0.00439304 0.00629919,-0.00439304 0.000529226,0 0.00416387,0.00657989 0.012337,0.00657989 0.00622831,0 0.010692,-0.00324576 0.010692,-0.00986971l0 -0.00411234c0,-0.00449959 -0.00239527,-0.00883131 -0.00493486,-0.010692l-0.00165156 0.00740077c0.00214931,0.003201 0.00367637,0.00373023 0.0041191,0.0090486 -0.00294408,0.000685895 -0.00386451,0.0016448 -0.00740217,0.0016448l-0.00164503 0c-0.00373699,0 -0.00428999,-0.00175647 -0.00637752,-0.00318981l0.00407854 -0.00824124c-0.00252466,-0.00279417 -0.00582801,-0.0058406 -0.0108603,-0.0058406 -0.00670858,0 -0.00972353,0.0049598 -0.00986971,0.0115145 0.0018446,-0.000429675 0.00189099,-0.000822515 0.00411234,-0.000822515 0.00159211,0 0.0026762,0.00111883 0.00493486,0.00164503z"/>
   <path id="_649875632" class="fil0" d="M0.389684 0.08214l0.000163431 0.000106311c0,-0.00317302 0.000822515,-0.0018404 0.000822515,-0.00575737l0 -0.000822515 -0.0052482 -0.0443717c-0.00127854,0.00179028 -0.00215397,0.00389762 -0.00215397,0.0073609l-0.00032756 0.00169795 0.00674378 0.0417865z"/>
   <path id="_649875752" class="fil0" d="M0.318293 0.0715544c0,-0.00121769 0.0129712,-0.00972214 0.0148043,-0.0106922l0 0.0106922c-0.00294408,0.000685662 -0.00386451,0.0016448 -0.00740217,0.0016448l-0.00493486 0c-0.00134615,0 -0.00246731,-0.00049239 -0.00246731,-0.0016448zm0.0370108 0.0016448c0.0036076,0.00241579 0.00658921,0.0090472 0.0131593,0.0090472l0.00164503 0c0.00144896,-0.00273869 0.00328983,-0.005759 0.00328983,-0.00986971l0 -0.00328983c0,-0.00457442 -0.00647661,-0.0292424 -0.00822468,-0.0312535l-0.000822515 0.00740217c-0.00045672,0.0030455 0.00639291,0.024454 0.00740217,0.0287862 -0.00216796,0.001075 0.000677269,0.000822515 -0.00246731,0.000822515 -0.00636493,0 -0.0110799,-0.00722382 -0.0121922,-0.0124818 -0.000732989,-0.00346561 -0.00425712,-0.0187759 -0.00425712,-0.0204167l-0.000822515 0c0,0.00342505 -0.00127107,0.00402095 -0.000822282,0.00657965l0.00321103 0.0197529c-0.000843497,0.00394495 -0.00437229,0.00738818 -0.0089684,0.00738818l-0.00246731 0c-0.00424406,0 -0.00740217,-0.00673049 -0.00740217,-0.0115143l0 -0.00575737c0,-0.0051638 0.00239084,-0.00587044 -0.000822515,-0.00822468 -0.00259321,0.0111308 -0.00297066,0.00782858 -0.011352,0.0133218 -0.00660087,0.00432636 -0.00673492,0.00694825 -0.010032,0.0138196 0.00133309,0.00199101 0.00240973,0.00328983 0.00575714,0.00328983l0.00246754 0 0.00738725 -0.0009209 0.00503068 -0.00474951c0.00113306,0.0051244 0.00413542,0.00896024 0.0106109,0.00896024 0.00567554,0 0.00867697,-0.00688343 0.0106922,-0.010692z"/>
   <path id="_649875704" class="fil0" d="M0.0731992 0.0970507c0.00338728,-0.000789176 0.00540463,-0.00250788 0.00935937,-0.00380017 0.00213066,-0.000696153 0.00799271,-0.00434431 0.00708976,-0.00524703l-0.000685196 -0.000959601c-0.00518944,0.0036477 -0.0139627,0.00326092 -0.0157639,0.0100068z"/>
   <path id="_649875728" class="fil0" d="M0.244272 0.0986955c0.00338728,-0.000789176 0.00540463,-0.00250764 0.00935937,-0.00379993 0.00213043,-0.000696387 0.00799248,-0.00434431 0.00708976,-0.00524703l-0.000685429 -0.000959601c-0.00518921,0.0036477 -0.0139625,0.00326092 -0.0157637,0.0100066z"/>
   <polygon id="_649875944" class="fil0" points="0.0684804,0.0946682 0.0625139,0.0912828 0.0598321,0.0977795 0.0659117,0.101208 "/>
   <path id="_649875824" class="fil0" d="M0.0567498 0.101985c0.000539018,-0.00209452 0.00164503,-0.00349849 0.00164503,-0.00493462 0,-0.00151867 -0.00385892,-0.00313199 -0.00575737,-0.00328983 -0.000526195,0.00225865 -0.0016448,0.00334252 -0.0016448,0.00493462 0,0.00151867 0.00385869,0.00313199 0.00575714,0.00328983z"/>
   <path id="_649875104" class="fil0" d="M0.467981 0.10363c0.000539018,-0.00209452 0.00164503,-0.00349849 0.00164503,-0.00493486 0,-0.00151844 -0.00385892,-0.00313176 -0.00575737,-0.00328983 -0.000526195,0.00225865 -0.0016448,0.00334275 -0.0016448,0.00493486 0,0.00151844 0.00385869,0.00313176 0.00575714,0.00328983z"/>
   <path id="_649874816" class="fil0" d="M0.115145 0.0715544c0.00264007,0 0.00389179,0.00228733 0.00411211,0.00493462l-0.00493462 0c-0.00222135,0 -0.00226774,-0.000392606 -0.00433103,-0.000922065l0.00183434 -0.00402585 0.00167417 1.32889e-005 0.00164503 0zm0.0345433 -0.0493479c0.00088896,-0.00332946 0.00247221,-0.00402072 0.00657965,-0.00411234 -0.000896886,0.0033593 -0.00263331,0.00378385 -0.00657965,0.00411234zm-0.0016448 0.00411234c0.00400883,0 0.010692,-0.00560257 0.010692,-0.010692 0,-0.00134615 -0.00049239,-0.00246754 -0.00164503,-0.00246754 -0.00309049,0 -0.00766445,0.00533772 -0.00904696,0.00740217 -0.00103863,-0.000549509 -0.00271957,-0.0016448 -0.00411234,-0.0016448 -0.00182641,0 -0.00524936,0.00549975 -0.00575737,0.00740217l-0.00553123 -0.00675847c-0.00184017,0.00710701 -0.00162428,0.0106547 -0.000225912,0.0190953l0.00538435 0.0328241 -0.000449725 0.00254192c-0.00287227,0.000669109 -0.00276923,0.0016448 -0.00575714,0.0016448l-0.00657965 0c-0.00111744,-0.00479591 -0.00339078,-0.0115143 -0.0090472,-0.0115143 -0.00570398,0 -0.00707927,0.0082431 -0.00822445,0.0131593 0.00150212,0.00313059 0.00138764,0.00575714 0.00657965,0.00575714l0.00575714 0c0.00158768,0 0.00146411,-0.000258784 0.00246731,-0.000822282 -0.000253422,0.0113763 -0.0135039,0.0205615 -0.0254963,0.0205615l-0.00657965 0 0.0172404 0.00506052c0.00795284,-0.00197119 0.0164806,-0.0121848 0.0164806,-0.0215097 0,-0.00222135 0.000392839,-0.00226774 0.000822515,-0.00411234 0.00906282,0 0.0163106,-0.00216586 0.0148043,-0.012337l-0.00498288 -0.0378261c-0.000225446,-0.00185392 0.00434665,-0.00547504 0.0058054,-0.00823191l0.0016448 0c0.00254075,0 0.0027254,0.00246754 0.00575737,0.00246754z"/>
   <path id="_649875056" class="fil0" d="M0.275525 0.0756665c-0.0018446,0.000429909 -0.00189099,0.000822515 -0.00411234,0.000822515 -0.00173945,0 -0.00108433,-0.000294455 -0.00328983,-0.000822515 0.00055627,-0.00208333 0.00158908,-0.00411211 0.00411234,-0.00411211 0.00269859,0 0.0030856,0.00165902 0.00328983,0.00411211zm-0.00411234 0.00740217c0.00473203,0 0.00573779,-0.00311264 0.00822468,-0.00493462 0.001075,0.00216796 0.000822515,-0.000677269 0.000822515,0.00246731l0 0.00164503c0,0.0119314 -0.0145173,0.0205615 -0.0271414,0.0205615l-0.00493486 0c0.00326535,0.00283824 0.012932,0.00373209 0.0180944,0.00493486 0.00948177,-0.00501715 0.0164491,-0.0118733 0.0164491,-0.0263188l0 -0.00411234c0,-0.00566085 -0.00365049,-0.0131593 -0.00904696,-0.0131593 -0.00549579,0 -0.00711657,0.0084028 -0.00822468,0.0131593 0.00130325,0.00271654 0.00172756,0.00575714 0.00575714,0.00575714z"/>
  </g>
 </g>
</svg>
