<?xml version="1.0" encoding="UTF-8"?>
<!DOCTYPE svg PUBLIC "-//W3C//DTD SVG 1.1//EN" "http://www.w3.org/Graphics/SVG/1.1/DTD/svg11.dtd">
<!-- Creator: CorelDRAW -->
<svg xmlns="http://www.w3.org/2000/svg" xml:space="preserve" width="25in" height="39in" style="shape-rendering:geometricPrecision; text-rendering:geometricPrecision; image-rendering:optimizeQuality; fill-rule:evenodd; clip-rule:evenodd"
viewBox="0 0 0.143206 0.110155"
 xmlns:xlink="http://www.w3.org/1999/xlink">
 <defs>
  <style type="text/css">
   <![CDATA[
    .fil0 {fill:#330099}
   ]]>
  </style>
 </defs>
 <g id="Layer_x0020_1">
  <metadata id="CorelCorpID_0Corel-Layer"/>
  <path class="fil0" d="M0.110218 0.102368c9.77259e-006,-0.000287164 -0.000307461,-0.000301447 -0.000646118,-0.000309716 -0.00181282,-4.5856e-005 -0.004271,0.00133546 -0.00556887,0.00213343 -0.00112122,0.000688592 -0.00353429,0.00226273 -0.00357414,0.00344446 -1.4283e-005,0.000399924 0.000264987,0.000489757 0.000782935,0.000503288 0.00168953,4.20973e-005 0.00540612,-0.00259613 0.00650779,-0.00339372 0.000501785,-0.000363841 0.00247961,-0.00183161 0.0024984,-0.00237775zm-0.0125807 -0.000611539c-8.26911e-005,-2.40556e-005 -0.000247322,-3.23247e-005 -0.000309716,-3.38282e-005 -0.000997556,-2.48073e-005 -0.00234016,0.000481864 -0.00317308,0.00083518 -0.000960345,0.000406314 -0.00186732,0.000882164 -0.00272204,0.00140199 0.00137643,-0.000219132 0.00273896,-0.000519451 0.00400037,-0.000940424 0.00050404,-0.000168013 0.00216989,-0.000758879 0.00220447,-0.00126292zm-0.0278624 0.00158617c0.000127795,0.000148092 0.000199962,0.000318361 0.000193197,0.000507423 -3.49558e-005,0.00102311 -0.00181244,0.00129149 -0.00290208,0.00139109 -0.000525089,4.84871e-005 -0.000998308,0.000187559 -0.001408,0.000430746 -0.000254463,0.000151475 -0.000519075,0.000359331 -0.000528096,0.000614545 -8.64498e-006,0.000250329 0.000187934,0.000420221 0.000453298,0.000561924 0.000426235,0.000226649 0.000938169,0.00030934 0.00145461,0.000322871 0.00139147,3.49558e-005 0.00257996,-0.000431873 0.00359067,-0.00109152 0.000983649,-0.00064048 0.00173839,-0.00143657 0.00177297,-0.00243037 8.26911e-006,-0.000249201 1.50348e-006,-0.000499154 -2.18004e-005,-0.000748355 -3.68351e-005,-0.000381883 -2.66867e-005,-0.000778048 -1.35313e-005,-0.00115956 -0.00085886,0.000537868 -0.00172486,0.00107085 -0.00259124,0.0016012zm0.00558052 0.00267243c-0.000100733,0.00015373 -0.000224394,0.000298064 -0.000366848,0.000432625 -7.89324e-006,2.8566e-005 -1.20278e-005,5.71321e-005 -1.31554e-005,8.64498e-005 -8.26911e-006,0.000249953 0.000188686,0.000420221 0.000454049,0.000561172 0.000425859,0.000227401 0.000937793,0.000310843 0.00145424,0.000323247 0.00139109,3.53317e-005 0.00257959,-0.000431873 0.00359105,-0.00109077 0.000982521,-0.000640856 0.00173802,-0.00143695 0.00177297,-0.00243074 8.26911e-006,-0.000249577 7.51738e-007,-0.000499154 -2.25521e-005,-0.000748355 -3.68351e-005,-0.000381507 -2.66867e-005,-0.000777673 -1.39071e-005,-0.00115956 -0.000858484,0.000537868 -0.00172336,0.00107047 -0.00259086,0.0016012 0.000127044,0.000148092 0.000199962,0.000317985 0.000193572,0.000507799 -3.53317e-005,0.00102274 -0.00181244,0.00129036 -0.00290246,0.00139109 -0.000524337,4.81112e-005 -0.000998683,0.000186807 -0.00140725,0.000429994 -5.07423e-005,3.08212e-005 -0.000100357,6.27701e-005 -0.000148844,9.58465e-005zm-0.00984964 -0.00506709c-8.26911e-005,-2.33039e-005 -0.000247698,-3.19488e-005 -0.000309716,-3.34523e-005 -0.000996804,-2.51832e-005 -0.00233941,0.000481112 -0.00317308,0.000834805 -0.000959593,0.000406314 -0.00186656,0.00088254 -0.00272091,0.00140237 0.00137568,-0.000219507 0.00273858,-0.000519827 0.004,-0.000940424 0.000504792,-0.000168389 0.00217027,-0.000758879 0.00220372,-0.0012633zm-0.0321116 -0.00414546c0.000411576,-4.13456e-005 0.000853222,-2.48073e-005 0.00112498,-1.76658e-005 0.000959969,2.40556e-005 0.0019797,0.000159368 0.00292576,0.000304454 0.00136403,-0.000199586 0.00270362,-0.000575455 0.00374253,-0.00126555 0.000855101,-0.000568314 0.00137342,-0.00125277 0.00140312,-0.00210862 2.70626e-005,-0.000793459 -0.000578462,-0.00143168 -0.00135125,-0.00194249 -0.00302837,0.00120917 -0.00563803,0.00304115 -0.00784513,0.00502988zm0.0520578 0.00825145c0.00092802,-0.00180267 0.00421875,-0.00287164 0.00644577,-0.003461 0.001676,-0.000443525 0.00374328,-0.00088893 0.00554707,-0.00084345 0.000638977,1.57865e-005 0.00125691,0.000130051 0.00179628,0.000390528 0.000513813,0.000248449 0.000875398,0.000601014 0.000859236,0.00106371 -3.57075e-005,0.00105619 -0.00155535,0.0016245 -0.00273557,0.00193197 -0.0022586,0.000589362 -0.0052787,0.000859988 -0.00769779,0.00105694 -0.000596504,0.000471715 -0.00144409,0.00123435 -0.00146626,0.0018598 -2.33039e-005,0.000680698 0.000982521,0.000757 0.00170983,0.000775041 0.00325427,8.23153e-005 0.00705618,-0.00222627 0.00927005,-0.00373426 4.73595e-005,-3.27006e-005 9.58465e-005,-6.35218e-005 0.000137568,-8.75774e-005l-3.00695e-006 2.25521e-006c0.00106183,-0.000706257 0.00242548,-0.00124112 0.00373426,-0.00166247 0.00188724,-0.000608156 0.00449765,-0.00134223 0.00659913,-0.00128885 0.000821273,2.02969e-005 0.00158955,0.000217628 0.00189814,0.000702875l0.00801916 -0.0067912 0.000335651 6.50253e-005c0.00048036,9.28396e-005 0.000975755,0.00014922 0.0014719,0.000162375 0.000485998,1.20278e-005 0.0010156,-8.64498e-006 0.00150348,-1.57865e-005l0.00130351 -2.02969e-005 -0.000873143 0.000701747c-0.00400375,0.00321819 -0.00814019,0.00646118 -0.0119906,0.00977597 -0.000391279,0.000337154 -0.00238038,0.00207592 -0.00240819,0.00250592 -7.14151e-006,0.000198083 0.000206728,0.000195452 0.000446908,0.00020109 0.00194512,4.88629e-005 0.00611388,-0.002975 0.00735538,-0.00388799 0.000184927,-0.00015561 0.000406314,-0.000269498 0.000703626,-0.000261605 0.0003894,9.02085e-006 0.000700995,0.000211238 0.000691223,0.000505168l-3.38282e-006 8.98326e-005 -5.4501e-005 8.00601e-005c-7.55496e-005,0.000110881 -0.00025108,0.000232663 -0.000373614,0.000318361l-0.00108814 0.000754369c-0.00157602,0.0010934 -0.00506821,0.00345912 -0.00742416,0.00339973 -0.000820146,-2.02969e-005 -0.00158729,-0.000198459 -0.00219958,-0.000611539 -0.000593873,-0.000401052 -0.000876526,-0.000912234 -0.000856605,-0.00149896 0,-1.4283e-005 3.75869e-007,-2.8566e-005 1.87934e-006,-4.2849e-005 -0.00156286,0.000982897 -0.00351776,0.00198797 -0.005031,0.00195001 -0.000974252,-2.44315e-005 -0.00184664,-0.000268746 -0.00254501,-0.00077429 -0.00069423,-0.000502912 -0.00102349,-0.00112723 -0.000999059,-0.00183649 3.75869e-007,-2.14245e-005 1.50348e-006,-4.17214e-005 2.63108e-006,-6.23942e-005 -0.00224544,0.00126142 -0.00507498,0.0024563 -0.00780341,0.00238827 -0.00118662,-3.04454e-005 -0.00228791,-0.000276639 -0.00321293,-0.00083518 -0.000772034,-0.000467205 -0.00123849,-0.00105882 -0.00130953,-0.00176658 -0.000434504,0.000674684 -0.00132832,0.00115956 -0.00225935,0.00150761 -0.00168089,0.000628828 -0.00354219,0.000834053 -0.00542228,0.000786693 -0.00104341,-2.63108e-005 -0.00212028,-0.000192821 -0.00297613,-0.000658146 -0.000330765,-0.000180417 -0.000607028,-0.00039391 -0.000808494,-0.000641608 -0.000207104,9.62224e-005 -0.000420973,0.000184176 -0.000638601,0.000265363 -0.00168126,0.000628828 -0.00354181,0.000834429 -0.00542191,0.000786693 -0.00104379,-2.59349e-005 -0.00212103,-0.000192821 -0.00297613,-0.000658146 -0.000531103,-0.000288667 -0.000895695,-0.000650253 -0.00106859,-0.00107649 -0.00178951,0.000828791 -0.00392407,0.00153467 -0.0060372,0.00148092 -0.00118624,-2.93178e-005 -0.00228791,-0.000275512 -0.00321217,-0.00083518 -0.000770907,-0.000465701 -0.00123661,-0.00105506 -0.00130953,-0.0017617 -0.00166886,0.0010607 -0.004056,0.00238113 -0.00582108,0.00233678 -0.000778048,-1.91693e-005 -0.00150648,-0.000190565 -0.0020887,-0.000580341 -0.000567562,-0.000380003 -0.000846457,-0.000862995 -0.000826911,-0.00142266 2.02969e-005,-0.000596504 0.000312723,-0.00113663 0.000782935,-0.00161699 0.00124713,-0.00127833 0.00302875,-0.00266453 0.0044454,-0.00385641 0.00232437,-0.00195527 0.00463108,-0.00392557 0.00688216,-0.00592745 7.55496e-005,-0.000250329 0.000116895,-0.000505168 0.00012554,-0.00076151 3.38282e-005,-0.000988911 -0.000485622,-0.00177072 -0.00154858,-0.00238865 -0.00127908,-0.000743844 -0.00291712,-0.00100545 -0.00451193,-0.00104529 -0.00247773,-6.23942e-005 -0.00489419,0.000295809 -0.00719676,0.000917496 0.00148017,0.000769779 0.0027367,0.00182296 0.00268859,0.00322195 -7.85566e-005,0.00228152 -0.00300282,0.00315955 -0.00577936,0.00351174 0.00234204,0.000791204 0.00425596,0.00207029 0.0041838,0.00418229 -6.61529e-005,0.00193197 -0.00186957,0.00327908 -0.00401653,0.00422213 -0.00268821,0.00118136 -0.00568502,0.00163089 -0.00881901,0.00155159 -0.00136478,-3.45799e-005 -0.002813,-0.000229656 -0.00396429,-0.000805487 -0.00101635,-0.00050855 -0.0015888,-0.00121781 -0.0015576,-0.00212216 5.26216e-005,-0.00153806 0.00164631,-0.00273896 0.00323661,-0.00359255 0.00183123,-0.000982521 0.00392069,-0.00164631 0.00623942,-0.00158842 0.00106333,2.70626e-005 0.00210862,0.000214621 0.00296636,0.000699492 0.000787445,0.000444277 0.00123135,0.00103853 0.00120654,0.00176959 -1.76658e-005,0.000509302 -0.000369103,0.00103965 -0.000720916,0.00146626 -0.000299567,0.000361962 -0.000821273,0.000953579 -0.00148694,0.000936665 -0.000428866,-1.01485e-005 -0.00081977,-0.000192445 -0.000808118,-0.000535237 5.26216e-006,-0.000146965 9.735e-005,-0.000266867 0.000210487,-0.000382634l2.44315e-005 -2.36797e-005 2.89419e-005 -2.14245e-005c0.000498402,-0.000371734 0.00116707,-0.00095809 0.00118511,-0.00151099 1.39071e-005,-0.000388648 -0.0002165,-0.000671678 -0.000641232,-0.000902837 -0.000583724,-0.000317609 -0.0013426,-0.000422101 -0.00205074,-0.000439391 -0.0019158,-4.81112e-005 -0.0036339,0.000523961 -0.00512535,0.00135313 -0.00121518,0.000676188 -0.00250479,0.00163992 -0.00254576,0.00283367 -1.729e-005,0.000489381 0.000309716,0.000852095 0.000832925,0.0011464 0.000696109,0.000391279 0.00154031,0.00054501 0.00240255,0.000566434 0.0024875,6.27701e-005 0.00465739,-0.000570193 0.00657432,-0.00170231 0.00169667,-0.00100169 0.00301221,-0.0022834 0.00306859,-0.00393497 5.26216e-005,-0.0015249 -0.00158128,-0.00237211 -0.00334561,-0.00289795l-0.00130802 5.37492e-005c-0.000407066,1.39071e-005 -0.000816763,1.69141e-005 -0.00122458,6.38977e-006 -0.000587859,-1.46589e-005 -0.0019376,-2.8566e-005 -0.00230182,-0.000503664 -0.000391655,0.000378876 -0.000768276,0.000760383 -0.00113212,0.00114227 -0.00155309,0.00163052 -0.0034937,0.00346701 -0.00565983,0.00468596 -0.00200225,0.00112648 -0.00459199,0.00190641 -0.00698402,0.00247322 -0.00299868,0.000710016 -0.00626536,0.00121819 -0.00944182,0.00113813 -0.00195414,-4.92388e-005 -0.00398308,-0.000305957 -0.00572185,-0.00100131 -0.00129675,-0.000519075 -0.00246119,-0.00130126 -0.00242135,-0.00245818 2.02969e-005,-0.000584476 0.000379627,-0.00106897 0.000984024,-0.00144334 0.000620184,-0.000384514 0.00135388,-0.000558917 0.00216989,-0.000538244 0.00115993,2.93178e-005 0.00205901,0.000431497 0.00202706,0.00135764 -1.4283e-005,0.00043037 -0.000280022,0.00079158 -0.000737079,0.00105882 -0.000463446,0.000272129 -0.00102725,0.000387897 -0.00162112,0.000372862 -0.000345423,-8.26911e-006 -0.000670926,-5.56286e-005 -0.000946438,-0.000146213 0.000307837,0.000399924 0.000903964,0.000694606 0.00144484,0.000905844 0.00144672,0.000565683 0.00318323,0.000765645 0.00480022,0.000806239 0.00344709,8.72016e-005 0.00664198,-0.000506295 0.00955684,-0.00183274 0.00116407,-0.000529975 0.00228754,-0.00112535 0.00329336,-0.00180793 0.00225409,-0.00152828 0.00447096,-0.00332418 0.00659537,-0.0049547 0.00185416,-0.00142304 0.00393572,-0.00271001 0.00607254,-0.00390077 0.00154595,-0.00086074 0.00327833,-0.00177598 0.0050404,-0.00246457 -0.00296748,-0.00117985 -0.00686825,-0.00152753 -0.0101037,-0.00160909 -0.00647246,-0.000162751 -0.0125469,0.000875398 -0.0179203,0.00350949 -0.00245856,0.00120428 -0.00620409,0.00334147 -0.00628678,0.00574816 -2.96936e-005,0.00088254 0.000481488,0.00154407 0.00146063,0.00205863 0.00127081,0.000666415 0.00294831,0.000876902 0.00447246,0.000915241 0.00360759,9.09602e-005 0.00702048,-0.000876902 0.0100364,-0.00223379 0.00201729,-0.000907347 0.00513174,-0.00254651 0.00519827,-0.00449238 4.54801e-005,-0.00131065 -0.00157752,-0.00155384 -0.00306408,-0.00159105 -0.00274309,-6.95357e-005 -0.00540875,0.000837812 -0.00763314,0.00192031 -0.00156361,0.000759631 -0.0040545,0.00215298 -0.00410674,0.00368727 -7.14151e-006,0.000213869 0.000135689,0.000371358 0.000366472,0.000511557 0.000290922,0.000184176 0.00063146,0.000272505 0.00101372,0.000281902l3.11971e-005 1.12761e-006 3.04454e-005 3.38282e-006c0.000405187,4.36008e-005 0.000902461,0.000155234 0.000889681,0.000530727 -1.50348e-005,0.000422852 -0.000582972,0.000509302 -0.00104567,0.00049765 -0.000915992,-2.2928e-005 -0.00171622,-0.000265363 -0.0023597,-0.000747603 -0.000638977,-0.000479233 -0.000950948,-0.0010607 -0.000928396,-0.00172599 6.65288e-005,-0.00193572 0.00255553,-0.00334035 0.00462694,-0.00423228 0.00277128,-0.00119226 0.00579063,-0.00186957 0.00903401,-0.00178763 0.00233039,5.82597e-005 0.00478443,0.000610411 0.0047149,0.00263183 -8.23153e-005,0.0024003 -0.00330577,0.00423942 -0.00583649,0.0053847 -0.00333997,0.00151174 -0.00706333,0.00251607 -0.0110551,0.00241608 -0.00204134,-5.11182e-005 -0.00412591,-0.000390528 -0.00577109,-0.00133133 -0.0014813,-0.000847208 -0.00222552,-0.0019703 -0.00217891,-0.00333884 0.000117271,-0.00340349 0.0046946,-0.0056354 0.00842435,-0.00698515 0.00557413,-0.00201691 0.0115696,-0.00284833 0.0178053,-0.00269197 0.0041338,0.000104116 0.00838451,0.000632587 0.0121312,0.00199173 0.00278707,-0.000831798 0.00574703,-0.00132531 0.0087818,-0.00124864 0.0019782,4.96147e-005 0.00399812,0.000372862 0.00560195,0.0012757 0.001405,0.000790828 0.00216125,0.00183649 0.00213681,0.0031261 0.000267243,3.53317e-005 0.000538244,5.97631e-005 0.000807366,6.65288e-005 0.00052584,1.35313e-005 0.00106784,-1.01485e-005 0.00157865,-0.000102988l0.00171772 -0.000311595 -0.0011573 0.000974628c-0.00282165,0.00237624 -0.00564217,0.00475361 -0.00845103,0.00713775 -0.00133471,0.00113287 -0.00269761,0.00226912 -0.00398872,0.00342755 -0.000307837,0.000276639 -0.00165645,0.00150911 -0.00166848,0.00186656 -6.76564e-006,0.000190565 0.000130051,0.000192821 0.000380003,0.000199586 0.00156474,3.87145e-005 0.00508814,-0.00232475 0.00622439,-0.00310392 0.00121857,-0.00143582 0.00398233,-0.00234805 0.00606577,-0.00289945 0.00167525,-0.000443149 0.0037429,-0.00088893 0.00554707,-0.00084345 0.000638601,1.57865e-005 0.00125653,0.000130051 0.00179553,0.000390152 0.000513813,0.000248449 0.00087615,0.000601766 0.000859988,0.00106446 -3.64593e-005,0.00105582 -0.0015561,0.00162413 -0.00273595,0.00193159 -0.0022586,0.000589738 -0.00527908,0.00086074 -0.00769779,0.00105694 -0.000597631,0.000472091 -0.00144522,0.00123473 -0.00146664,0.00186017 -2.2928e-005,0.000680323 0.000983273,0.000757 0.00170983,0.000775041 0.00204285,5.1494e-005 0.00422138,-0.000837436 0.00585679,-0.00167788 0.000232287,-0.000637473 0.000795714,-0.00117083 0.00145386,-0.00161135 0.000873895,-0.000584476 0.00192595,-0.00100733 0.00314527,-0.000976507 9.77259e-005,2.63108e-006 0.000195452,9.39672e-006 0.000291674,2.21763e-005l0.00180793 -0.00111708c0.000782559,-0.000466453 0.00154783,-0.000953579 0.00231084,-0.00143657 0.000317609,-0.000608156 0.000787445,-0.00115016 0.00142379,-0.00160759 0.000570193,-0.000410073 0.00129637,-0.000752865 0.00213005,-0.000731817 0.000529975,1.31554e-005 0.000944934,0.000254463 0.000931027,0.000661153 -2.59349e-005,0.000750234 -0.00229205,0.0018192 -0.00323961,0.00226311 -5.33734e-005,0.000151851 -9.47189e-005,0.000311219 -0.000100357,0.000463446 -2.06728e-005,0.000613418 0.000769028,0.00173388 0.00116219,0.0022616 7.25427e-005,9.84776e-005 0.000143206,0.000198459 0.000210111,0.000299943 0.000826535,-0.000507423 0.00180304,-0.00085886 0.00291787,-0.000830294 9.735e-005,2.25521e-006 0.000195828,9.39672e-006 0.00029205,2.18004e-005l0.0018083 -0.00111708c0.000781807,-0.000465701 0.00154708,-0.000953579 0.00230971,-0.00143657 0.000317985,-0.000608156 0.000787445,-0.00115016 0.00142417,-0.00160759 0.000570193,-0.000410449 0.00129675,-0.000752489 0.0021308,-0.000731441 0.000529975,1.27795e-005 0.000944182,0.000254463 0.000929899,0.000660777 -2.59349e-005,0.000750234 -0.00229167,0.00181883 -0.00323886,0.00226311 -5.37492e-005,0.000151851 -9.50948e-005,0.000311219 -0.000100357,0.000463822 -2.10487e-005,0.000613794 0.000769028,0.00173351 0.00116181,0.0022616 0.000283029,0.000380003 0.000560044,0.000828415 0.000653636,0.00127382zm0.0241623 -0.00258861c-2.18004e-005,-3.75869e-007 -4.17214e-005,-3.75869e-007 -5.67562e-005,-7.51738e-007 -0.00161473,-4.05938e-005 -0.00400789,0.00131028 -0.00519451,0.00203946 -0.000990414,0.000609283 -0.0033441,0.00214508 -0.00337831,0.00314565 -3.75869e-007,1.50348e-005 -3.75869e-007,4.24732e-005 2.63108e-006,6.5777e-005 7.17909e-005,1.20278e-005 0.000189438,1.61624e-005 0.000238301,1.729e-005 0.00140838,3.57075e-005 0.00507648,-0.00253636 0.00609997,-0.0032772 0.000431497,-0.000312347 0.00199173,-0.00149821 0.00228867,-0.00199023zm-0.0135933 -0.00012742c-0.000497274,0.000139823 -0.000993421,0.000328133 -0.00138357,0.000487878 0.000188686,-5.60044e-005 0.000375493,-0.00011464 0.000560796,-0.000176658 0.000156737,-5.26216e-005 0.000484119,-0.00017102 0.000822777,-0.000311219zm-0.0242169 0.000290171c-0.000449539,0.000278519 -0.000900206,0.00055591 -0.001352,0.000832925 5.22458e-005,0.000129299 7.70531e-005,0.000264987 7.25427e-005,0.000403307 -4.39766e-005,0.00127645 -0.00197444,0.00165082 -0.00338319,0.00178049 -0.000422477,3.87145e-005 -0.000800225,0.000146965 -0.00112873,0.000343544 -0.00010374,6.12666e-005 -0.000322495,0.000204097 -0.00032663,0.000312347 -3.00695e-006,9.77259e-005 0.000125164,0.000167262 0.00022289,0.000219883 0.000330389,0.000175907 0.00074422,0.00023379 0.00114302,0.000243939 0.0012445,3.19488e-005 0.0023037,-0.00040218 0.00320353,-0.000989287 0.000862243,-0.000561548 0.00155948,-0.00126179 0.00158917,-0.0021402 9.02085e-006,-0.000236421 1.50348e-006,-0.000473219 -2.02969e-005,-0.00070964 -9.39672e-006,-9.96052e-005 -1.57865e-005,-0.000197707 -2.02969e-005,-0.000297312zm0.00984626 0.000247698c-0.000450291,0.000278519 -0.000901333,0.000556662 -0.00135275,0.000833677 5.26216e-005,0.000129299 7.70531e-005,0.000264236 7.25427e-005,0.000402555 -4.36008e-005,0.00127645 -0.00197406,0.00165082 -0.00338357,0.00178087 -0.000420973,3.87145e-005 -0.000798721,0.000146965 -0.00112836,0.000342792 -1.729e-005,1.01485e-005 -3.34523e-005,2.02969e-005 -4.99905e-005,3.11971e-005 -7.93083e-005,0.000112009 -0.000169517,0.000220259 -0.000269498,0.000323623 2.81902e-005,7.63014e-005 0.000133433,0.000133058 0.000216125,0.000177786 0.000330765,0.000175907 0.000743468,0.00023379 0.00114227,0.000243939 0.00124488,3.1573e-005 0.00230445,-0.00040218 0.00320466,-0.000989287 0.000861115,-0.000561172 0.00155835,-0.00126217 0.0015888,-0.0021402 7.89324e-006,-0.000236046 1.12761e-006,-0.000473595 -2.06728e-005,-0.000709264 -9.77259e-006,-9.92294e-005 -1.57865e-005,-0.000198083 -1.95452e-005,-0.000297688zm-0.0177587 -0.00134674c-0.00049765,0.000140951 -0.000994549,0.000328509 -0.00138508,0.000488254 0.000189062,-5.60044e-005 0.000375493,-0.00011464 0.000560044,-0.000176282 0.000156737,-5.22458e-005 0.000485622,-0.00017102 0.000825032,-0.000311971zm-0.0292854 -0.00514865c0.000947189,2.89419e-005 0.00190415,0.000152603 0.00283405,0.000293929 0.00122533,-0.000189062 0.00243638,-0.000531854 0.00337042,-0.00115279 0.000740837,-0.000492388 0.00119827,-0.00107498 0.00122345,-0.00182033 1.95452e-005,-0.000563051 -0.000367224,-0.00103364 -0.000881036,-0.00142567 -0.002489,0.00104679 -0.00466528,0.00251381 -0.00654688,0.00410486zm0.029323 0.00766396c-0.00197669,0.000375493 -0.00414922,0.000566434 -0.00611877,0.000727682 -0.000467581,0.000382259 -0.00116858,0.0010295 -0.00118474,0.00148656 -1.16519e-005,0.000354068 0.000836308,0.000346175 0.00116745,0.000354444 0.00184589,4.66077e-005 0.00386543,-0.000769403 0.00536327,-0.00152565 0.000169517,-0.000382259 0.000439391,-0.000729561 0.000772786,-0.00104304zm-0.0571903 -0.00164029c7.96842e-005,0.000186055 0.00011915,0.000395038 0.000111633,0.000626949 -1.91693e-005,0.000550648 -0.000360834,0.00102199 -0.000943055,0.0013629 -0.000382634,0.000224394 -0.000822777,0.000364969 -0.00129149,0.000426235 2.59349e-005,1.05243e-005 5.11182e-005,2.06728e-005 7.63014e-005,2.96936e-005 0.00136779,0.000534861 0.0030265,0.00072054 0.00455553,0.000758879 0.0033332,8.38187e-005 0.00642322,-0.000487878 0.00924524,-0.0017726 0.00113625,-0.00051682 0.00222853,-0.00109566 0.00321067,-0.00176095 0.00230107,-0.00156061 0.00440744,-0.0032772 0.00657094,-0.00493816 0.00187822,-0.00144183 0.00397218,-0.0027367 0.00613681,-0.00394249 0.0013396,-0.000746475 0.00272843,-0.00148543 0.0041868,-0.00211727 -0.00272204,-0.000875023 -0.00604848,-0.00115392 -0.00892425,-0.00122608 -0.00634354,-0.000159744 -0.0123108,0.00085247 -0.0175925,0.00344108 -0.0023037,0.00112949 -0.00596692,0.00319714 -0.00604322,0.00542454 -2.51832e-005,0.000747979 0.000399924,0.00128096 0.00122646,0.00171509 0.00117158,0.000614545 0.002757,0.000802856 0.0041635,0.000838187 0.00349408,8.79533e-005 0.00680849,-0.000861115 0.00972786,-0.00217478 0.00184476,-0.000828791 0.0048769,-0.00240067 0.00493666,-0.00415899 3.60834e-005,-0.00104416 -0.00141364,-0.00114302 -0.00252133,-0.00117083 -0.00261868,-6.61529e-005 -0.00518436,0.000820522 -0.00730764,0.00185341 -0.00139673,0.000678819 -0.00381544,0.00201015 -0.00386168,0.00336177 -3.38282e-006,8.15635e-005 8.3067e-005,0.000136816 0.000173276,0.000191693 0.000193197,0.000122157 0.000410449,0.000175531 0.000663784,0.00018192l6.20184e-005 1.87934e-006 6.23942e-005 6.38977e-006c0.000713023,7.7429e-005 0.00138959,0.000343168 0.00136891,0.000946813 -2.2928e-005,0.000666791 -0.000822777,0.000910354 -0.00161586,0.000890433 -0.00105882,-2.66867e-005 -0.00199699,-0.000313099 -0.00274196,-0.00087164 -0.000744596,-0.000558165 -0.00111445,-0.00124751 -0.00108776,-0.00202255 7.21668e-005,-0.00209885 0.00263559,-0.00359518 0.00489795,-0.00456869 0.00285923,-0.00123059 0.0059827,-0.00192821 0.00933357,-0.00184401 0.0026371,6.61529e-005 0.00533583,0.00077241 0.00525728,0.00305205 -8.79533e-005,0.00256192 -0.00337305,0.00448487 -0.00609697,0.00571809 -0.00343394,0.00155422 -0.00726216,0.00257884 -0.0113655,0.00247585 -0.00157113,-3.98421e-005 -0.0031573,-0.000244315 -0.00457432,-0.000734823zm0.0300943 0.0024424c-0.000422101,-0.000153354 -0.000713775,-0.000448411 -0.000700619,-0.000839315 7.89324e-006,-0.000233039 0.000133058,-0.000423604 0.000315354,-0.000608532l4.84871e-005 -4.84871e-005 5.75079e-005 -4.36008e-005c0.000384138,-0.000284157 0.00101372,-0.000816387 0.00102838,-0.00123811 8.26911e-006,-0.000254839 -0.000139447,-0.000413832 -0.000414959,-0.000563803 -0.000484495,-0.00026386 -0.00114903,-0.000343544 -0.00173614,-0.000358579 -0.00178312,-4.43525e-005 -0.00338395,0.000500281 -0.0047709,0.00127119 -0.00106747,0.000594249 -0.0022928,0.00147303 -0.00232888,0.00252396 -1.24037e-005,0.000355948 0.000237173,0.000599887 0.000613794,0.000810749 0.000599511,0.00033753 0.00133772,0.00046307 0.00207968,0.000481864 0.0021853,5.4501e-005 0.0040996,-0.000461191 0.0058083,-0.00138733zm-0.00611125 -0.00471152c0.0014798,-0.000567186 0.00309152,-0.000900582 0.00482465,-0.000857357 0.00118286,3.00695e-005 0.00233715,0.000246946 0.0032896,0.00078519 0.000584852,0.000330389 0.00101034,0.000737079 0.00123736,0.00120842 1.24037e-005,-9.32155e-005 2.06728e-005,-0.000186807 2.40556e-005,-0.000283029 4.43525e-005,-0.00130389 -0.00139974,-0.00201729 -0.00288028,-0.00247246l-0.00118699 4.92388e-005c-0.000422477,1.35313e-005 -0.000846457,1.69141e-005 -0.00126893,6.38977e-006 -0.000656267,-1.65382e-005 -0.00156625,-4.24732e-005 -0.00220409,-0.000308212 -0.00025747,0.000255215 -0.000510054,0.000514189 -0.000758879,0.000774666 -0.00034392,0.000361586 -0.000702499,0.000729561 -0.00107649,0.00109716zm0.0670802 0.00431723c-8.15635e-005,2.33039e-005 -0.000164255,4.51043e-005 -0.000245818,6.72805e-005 -0.00233039,0.000607404 -0.00513286,0.000857733 -0.00761548,0.0010607 -0.000466077,0.000382259 -0.0011682,0.00102988 -0.00118399,0.00148619 -1.16519e-005,0.000354444 0.000835556,0.000347303 0.0011667,0.00035482 0.00261417,6.61529e-005 0.00571809,-0.00158992 0.00787859,-0.00296899zm-0.0122142 -0.000424356c0.00139147,-0.00139598 0.00404472,-0.0022695 0.00611614,-0.00281751 0.00176433,-0.000467205 0.0038598,-0.000915241 0.00575455,-0.000867129 0.000742717,1.80417e-005 0.00146025,0.000155234 0.00208682,0.000458184 0.000676564,0.000327006 0.00113249,0.00080887 0.00111144,0.00141665 -7.89324e-006,0.000234166 -7.17909e-005,0.000448411 -0.000179289,0.000644615 0.000749482,-0.000343544 0.00155008,-0.000633715 0.00234317,-0.000890057 0.00199774,-0.00064236 0.00463221,-0.00137831 0.00684194,-0.00132231 0.000681074,1.69141e-005 0.00139447,0.000146589 0.00190114,0.000468333l0.00780454 -0.00660853 0.000671302 0.000130051c0.000440142,8.56981e-005 0.000893064,0.000137944 0.00134749,0.00014922 0.000489381,1.20278e-005 0.000982897,-8.64498e-006 0.00147341,-1.57865e-005l0.0026059 -4.0218e-005 -0.00174629 0.00140312c-0.00402368,0.00323398 -0.00810636,0.00643224 -0.0119778,0.00976545 -0.000356699,0.000306709 -0.00166172,0.00146138 -0.00212216,0.00202217 0.00178726,-0.00021838 0.0055591,-0.00292125 0.00667468,-0.00374102 0.000297688,-0.000249953 0.000664912,-0.00040669 0.00113324,-0.000395038 0.000696485,1.729e-005 0.00125164,0.000407066 0.00123398,0.000925765l-6.38977e-006 0.000179289 -0.00010825 0.00016012c-0.000113512,0.000166134 -0.000306709,0.000304454 -0.000488254,0.000431122l-0.00108776 0.000754369c-0.00177335,0.00122947 -0.00526028,0.00357451 -0.00782408,0.00351024 -0.000954707,-2.40556e-005 -0.00184777,-0.000239428 -0.00256004,-0.000720916 -0.000444653,-0.000299943 -0.000747979,-0.000654763 -0.000906971,-0.00105055 -0.00133208,0.000771283 -0.00309829,0.00160609 -0.00461755,0.0015685 -0.00111445,-2.81902e-005 -0.00212103,-0.00031385 -0.00292163,-0.000893816 -0.000563427,-0.000407442 -0.000922758,-0.000889306 -0.00107837,-0.00142342 -0.00212967,0.00110543 -0.00474685,0.00209697 -0.0073456,0.00203157 -0.0013084,-3.30765e-005 -0.00252885,-0.000311595 -0.00355046,-0.000929524 -0.000526968,-0.000318361 -0.000937041,-0.000695357 -0.00119827,-0.0011261 -0.000500657,0.000380003 -0.00112573,0.000680323 -0.0017617,0.000917872 -0.0017647,0.000660026 -0.00371772,0.000880661 -0.00569366,0.00083067 -0.00116143,-2.89419e-005 -0.00233941,-0.000222138 -0.00329111,-0.00073971 -0.000231535,-0.000125916 -0.000444653,-0.00026837 -0.000630332,-0.000427739 -7.63014e-005,3.00695e-005 -0.000152979,6.0139e-005 -0.000230408,8.90809e-005 -0.0017647,0.000660401 -0.00371809,0.000880285 -0.00569328,0.000831046 -0.00116181,-2.96936e-005 -0.00234053,-0.000222138 -0.00329186,-0.000740086 -0.000410449,-0.000223266 -0.00075061,-0.00049314 -0.000993421,-0.00080887 -0.0017429,0.000750234 -0.00376245,0.00134599 -0.00579627,0.00129487 -0.00130915,-3.27006e-005 -0.00252922,-0.000311219 -0.00355121,-0.000929148 -0.000605525,-0.000366096 -0.00105619,-0.000809997 -0.00130502,-0.00132343 -0.0015373,0.000923885 -0.00371396,0.00203683 -0.00548656,0.00199248 -0.000911482,-2.33039e-005 -0.00176658,-0.000231159 -0.00244841,-0.000688592 -0.000688216,-0.000460439 -0.00103326,-0.00105732 -0.00100996,-0.00173501 2.2928e-005,-0.000677316 0.000352565,-0.00129562 0.000885171,-0.00184176 0.00133697,-0.00137042 0.00296824,-0.00261605 0.00447772,-0.00388611 0.0022928,-0.00192858 0.00456643,-0.00386919 0.00678706,-0.00584288 5.1494e-005,-0.0001947 7.96842e-005,-0.000393159 8.6074e-005,-0.000591617 2.96936e-005,-0.000861115 -0.000411576,-0.00152039 -0.00133584,-0.00205713 -0.00117948,-0.000685961 -0.00271302,-0.000919375 -0.00418192,-0.000956962 -0.0020639,-5.18699e-005 -0.00409058,0.000199586 -0.00603984,0.000654763 0.00124149,0.000797969 0.00214621,0.0018177 0.00210186,0.00309302 -7.25427e-005,0.00212103 -0.00230896,0.00315655 -0.00476827,0.00365833 0.0019267,0.000897951 0.00323585,0.00219583 0.00317271,0.00403533 -7.17909e-005,0.00208081 -0.00197181,0.00354219 -0.00428302,0.00455741 -0.0027818,0.00122195 -0.0058846,0.00169028 -0.00912309,0.00160909 -0.00147641,-3.7211e-005 -0.0030171,-0.000255215 -0.00426122,-0.000877654 -0.00117309,-0.000585979 -0.00183837,-0.00142567 -0.00180267,-0.00247059 9.77259e-006,-0.000293554 6.91599e-005,-0.000575831 0.000169893,-0.000846081 -0.00200601,0.00105732 -0.00446457,0.00179139 -0.00679684,0.00234392 -0.00306897,0.00072693 -0.0063815,0.00123999 -0.00963126,0.00115768 -0.00204623,-5.1494e-005 -0.0041526,-0.000323623 -0.0059718,-0.00105206 -0.00148919,-0.000595376 -0.00275925,-0.0015046 -0.00271377,-0.00282766 2.48073e-005,-0.000700995 0.000455177,-0.00129224 0.00117797,-0.00174065 0.000725427,-0.000449539 0.00159331,-0.000657019 0.00254614,-0.000633339 7.96842e-005,1.87934e-006 0.000158992,5.63803e-006 0.000236421,1.05243e-005 -0.00115768,-0.00086525 -0.00173839,-0.00195076 -0.00169479,-0.00321593 0.000123285,-0.00358015 0.00478368,-0.00590828 0.00872918,-0.00733508 0.00565758,-0.00204698 0.0117512,-0.00289306 0.0180699,-0.00273407 0.00413606,0.000104116 0.00836909,0.000626197 0.0121342,0.00195264 0.00279233,-0.000811877 0.00575117,-0.00128585 0.00877917,-0.00120955 0.00210073,5.26216e-005 0.00422439,0.000403307 0.00592482,0.00136102 0.00140688,0.000791956 0.00223266,0.00183349 0.00234392,0.00309302 9.24637e-005,7.14151e-006 0.000184176,1.20278e-005 0.000277015,1.39071e-005 0.000474346,1.20278e-005 0.000964479,-7.89324e-006 0.00142567,-9.05844e-005l0.00343657 -0.00062507 -0.0023146 0.00195038c-0.00282165,0.00237624 -0.00564217,0.00475248 -0.00845066,0.00713662 -0.00133546,0.001134 -0.00268558,0.00225897 -0.00397857,0.0034189 -0.000243563,0.000218756 -0.00102575,0.000943055 -0.00137681,0.00136967 0.00146664,-0.000274008 0.00447434,-0.00226423 0.00544596,-0.00292764 0.00131028,-0.00149784 0.00409058,-0.00243337 0.00630557,-0.00301973 0.00176433,-0.000467205 0.00386017,-0.000915241 0.00575418,-0.000867505 0.000742717,1.84176e-005 0.00146063,0.00015561 0.00208607,0.000458184 0.00067694,0.000327382 0.001134,0.000809246 0.00111295,0.00141627 -1.20278e-005,0.000357075 -0.000153354,0.000667167 -0.000381883,0.000936665 3.49558e-005,3.75869e-007 6.99116e-005,3.75869e-007 0.00010374,1.50348e-006 3.42041e-005,7.51738e-007 6.72805e-005,1.87934e-006 0.000100357,3.75869e-006l0.0016324 -0.00100846c0.000744972,-0.000443901 0.00146965,-0.000904716 0.00219507,-0.0013644 0.000344672,-0.000623566 0.00084345,-0.00118173 0.00150084,-0.00165457 0.000683705,-0.000491636 0.00154181,-0.000872391 0.00253674,-0.000847208 0.000837436,2.06728e-005 0.00149445,0.000448787 0.00147228,0.00108137 -3.11971e-005,0.000936665 -0.00217741,0.00197519 -0.00330238,0.00250366 -1.9921e-005,7.4422e-005 -3.38282e-005,0.000149972 -3.64593e-005,0.000223266 -1.57865e-005,0.000467581 0.000632963,0.00142417 0.00100282,0.00193197 0.000810749,-0.000401428 0.001729,-0.00064687 0.00274422,-0.000621687 3.42041e-005,1.12761e-006 6.72805e-005,1.50348e-006 0.000100357,3.75869e-006l0.00163165 -0.00100846c0.000744972,-0.000443901 0.00147002,-0.000904716 0.00219583,-0.0013644 0.000344672,-0.000623566 0.000843074,-0.00118136 0.00150009,-0.00165495 0.000683705,-0.000491261 0.00154332,-0.000872016 0.00253787,-0.000846832 0.00083706,2.06728e-005 0.00149408,0.000449163 0.0014719,0.00108137 -3.1573e-005,0.000936665 -0.00217778,0.00197519 -0.00330276,0.00250366 -1.9921e-005,7.4422e-005 -3.38282e-005,0.000149596 -3.68351e-005,0.000223266 -1.729e-005,0.000508926 0.000753617,0.00159782 0.00109491,0.00205563 0.000105619,0.00014283 0.00020748,0.000289419 0.000300695,0.000439766zm0.0227397 -0.000955834c-0.00130953,0.000393535 -0.0028224,0.00126405 -0.00360383,0.00174403 -0.000688592,0.000423604 -0.00246382,0.00157827 -0.00301635,0.00242962 0.00145837,-0.000438639 0.00446645,-0.0025311 0.00522458,-0.00308024 0.000262732,-0.000190565 0.000880285,-0.000654012 0.0013956,-0.0010934zm-0.0380793 0.00214283c-0.000780304,0.000511557 -0.00198083,0.000736703 -0.00303326,0.000833301 -0.000293178,2.70626e-005 -0.00055591,9.58465e-005 -0.0007897,0.000222514 0.00020109,6.12666e-005 0.000431873,8.19394e-005 0.00064048,8.75774e-005 0.00109415,2.78143e-005 0.00202781,-0.000372862 0.00281789,-0.00088705 0.000125164,-8.23153e-005 0.000247698,-0.000167637 0.000364593,-0.000256343zm0.00104304 -0.00173539c-7.59255e-005,4.62319e-005 -0.000152227,9.35913e-005 -0.000228528,0.000140199 1.46589e-005,8.53222e-005 2.10487e-005,0.000171772 1.76658e-005,0.000258598 -1.20278e-005,0.000341289 -0.000127044,0.000631084 -0.000318737,0.000876526 0.000306709,-0.000333771 0.000511933,-0.000710392 0.000526592,-0.00113362 1.50348e-006,-4.69836e-005 3.00695e-006,-9.47189e-005 3.00695e-006,-0.000141703zm0.00880548 0.00198083c-0.000779552,0.000513061 -0.00198271,0.000738958 -0.00303589,0.000835932 -0.000292802,2.70626e-005 -0.000555158,9.54707e-005 -0.000789324,0.000222138 0.000200338,6.16425e-005 0.000431497,8.23153e-005 0.000639729,8.72016e-005 0.00109415,2.81902e-005 0.00202894,-0.000372486 0.00281826,-0.00088705 0.000126668,-8.23153e-005 0.000249953,-0.000168389 0.000367224,-0.000258222zm0.00104078 -0.00173313c-7.63014e-005,4.66077e-005 -0.000152603,9.39672e-005 -0.000228904,0.000139823 1.4283e-005,8.53222e-005 2.06728e-005,0.000171772 1.76658e-005,0.000259349 -1.16519e-005,0.000341665 -0.000128171,0.000632211 -0.000320992,0.000878405 0.000308212,-0.000334523 0.000514564,-0.00071152 0.000528847,-0.00113588 1.50348e-006,-4.73595e-005 3.00695e-006,-9.43431e-005 3.38282e-006,-0.000141703zm-0.0453764 -0.00767975c0.000560796,5.33734e-005 0.00112009,0.000128547 0.00167149,0.000211238 0.00108852,-0.000177034 0.00217064,-0.000487502 0.00300169,-0.00103928 0.000628453,-0.000417214 0.00102199,-0.000898702 0.00104304,-0.00153204 1.16519e-005,-0.000333396 -0.000172524,-0.00062958 -0.000437511,-0.000887802 -0.00195903,0.000870512 -0.00371621,0.00200714 -0.0052787,0.00324788zm0.0270223 0.00860815c-0.00155647,0.000232287 -0.00317421,0.000378124 -0.00469197,0.000502537 -0.00033302,0.000287164 -0.000776169,0.000711144 -0.000884043,0.00100582 0.000193948,2.96936e-005 0.00048224,4.0218e-005 0.000599511,4.2849e-005 0.00164593,4.09697e-005 0.00350686,-0.000699116 0.00488329,-0.00138094 2.89419e-005,-5.78838e-005 5.97631e-005,-0.00011464 9.32155e-005,-0.000170269zm-0.0475252 -0.00410599c0.00198045,-0.000366848 0.00386543,-0.00101898 0.00560308,-0.00180041 0.00164067,-0.000738582 0.00462131,-0.00225296 0.00467581,-0.0038271 2.51832e-005,-0.000735575 -0.00123435,-0.000731441 -0.00198008,-0.000750234 -0.00249314,-6.27701e-005 -0.00496147,0.000803607 -0.00698214,0.00178613 -0.00116256,0.000565307 -0.00342905,0.00178688 -0.00360684,0.00292614 8.56981e-005,4.5856e-005 0.000175531,6.08907e-005 0.000284909,6.38977e-005l9.43431e-005 1.87934e-006 9.28396e-005 1.05243e-005c0.00100094,0.000107498 0.00187709,0.000540123 0.0018489,0.0013629 -2.63108e-006,7.93083e-005 -1.24037e-005,0.000154106 -3.08212e-005,0.000226273zm0.013906 -0.00464311c0.00154632,-0.00108513 0.00320428,-0.00208795 0.00490772,-0.00303664 0.00106258,-0.000591617 0.00215561,-0.00117835 0.00328885,-0.00171283 -0.00244202,-0.000623942 -0.00525352,-0.000837436 -0.00770042,-0.000899454 -0.00622702,-0.000156361 -0.0120812,0.000831798 -0.0172655,0.00337305 -0.00211614,0.00103665 -0.00572899,0.00304754 -0.00580041,0.00510016 -2.14245e-005,0.000611163 0.000317985,0.00101748 0.000991918,0.00137192 0.000748731,0.000392031 0.00170456,0.000592369 0.00265063,0.00068784 -8.83292e-005,-5.71321e-005 -0.000175155,-0.000116895 -0.000259349,-0.000180417 -0.000849839,-0.000637098 -0.00127758,-0.00143319 -0.00124713,-0.00231836 7.81807e-005,-0.00226085 0.00272204,-0.00385341 0.00516857,-0.00490546 0.00294982,-0.00126931 0.0061759,-0.00198684 0.00963277,-0.00190002 0.00296072,7.47979e-005 0.00588648,0.000946813 0.00580003,0.00347303 -1.12761e-005,0.000326254 -6.91599e-005,0.000641608 -0.000167637,0.000947189zm-0.0217579 0.007137c0,3.75869e-007 3.75869e-007,7.51738e-007 3.75869e-007,1.50348e-006 -2.36797e-005,0.000669422 -0.000439766,0.00125202 -0.00114866,0.00166773 -7.06633e-005,4.09697e-005 -0.000142454,7.96842e-005 -0.000215373,0.000115768 0.00103514,0.000248449 0.00216613,0.000347679 0.00321856,0.000373989 0.00322345,8.11877e-005 0.00620522,-0.000469836 0.00893515,-0.00171208 0.00110543,-0.000503288 0.00217064,-0.00106634 0.0031261,-0.00171434 8.38187e-005,-5.71321e-005 0.000167637,-0.000114264 0.000250704,-0.00017102 -0.00315767,0.00125465 -0.0066089,0.00203232 -0.010274,0.00194023 -0.00132419,-3.34523e-005 -0.00265251,-0.000180041 -0.00389287,-0.000501785zm0.0285183 0.00176658c-0.000228528,-0.000221763 -0.000359706,-0.000500281 -0.000348806,-0.000817139 1.12761e-005,-0.000316482 0.000170644,-0.000581845 0.00041947,-0.000834053l7.32944e-005 -7.40462e-005 8.75774e-005 -6.46494e-005c0.000251456,-0.000187183 0.000860364,-0.000684457 0.000870136,-0.000965607 3.75869e-006,-0.000113888 -6.38977e-005,-0.000156737 -0.000189438,-0.00022477 -0.000381507,-0.00020748 -0.000958465,-0.000265739 -0.00141928,-0.000277015 -0.00165044,-4.13456e-005 -0.00313587,0.000476602 -0.00441683,0.00118887 -0.000914865,0.00050855 -0.00208194,0.00130878 -0.00211351,0.00221349 -7.14151e-006,0.000216125 0.000168389,0.00034843 0.000394286,0.000475474 0.000502912,0.000282277 0.00113625,0.000380755 0.00175719,0.000396166 0.00181695,4.62319e-005 0.00342717,-0.000328509 0.00488592,-0.00101673zm0.000685961 -0.00586205c0.000454049,5.67562e-005 0.000895695,0.000145085 0.00131892,0.000272129 -0.000260477,-0.000110881 -0.000533358,-0.000207104 -0.000805487,-0.000293178l-0.000513437 2.10487e-005zm-0.00428791 0.000254839c0.00050855,-0.000117647 0.00102913,-0.000206728 0.00156211,-0.000263484 -0.000386769,-2.8566e-005 -0.0007788,-7.81807e-005 -0.00114001,-0.000170644 -0.000141703,0.000143582 -0.000282653,0.000288291 -0.000422101,0.000434128zm0.0131618 0.00328321c0.00104492,-0.00092802 0.00217215,-0.00181357 0.00324262,-0.00271452 0.00225709,-0.00189889 0.00449652,-0.00381018 0.00668445,-0.00575192 3.04454e-005,-0.000141703 4.84871e-005,-0.000284533 5.37492e-005,-0.000427363 2.44315e-005,-0.00073332 -0.000337906,-0.00127006 -0.00112422,-0.00172674 -0.00107912,-0.000627701 -0.00250968,-0.000833301 -0.00385153,-0.000866753 -0.00168765,-4.2849e-005 -0.00334974,0.000124788 -0.00496372,0.000443525 0.000988535,0.000794962 0.00163616,0.00176057 0.00159669,0.0029111 -6.91599e-005,0.00201541 -0.00188385,0.00315467 -0.00412103,0.00378237 0.00158015,0.00094531 0.00258222,0.00222514 0.00252471,0.00391129 -5.26216e-006,0.000148844 -1.84176e-005,0.000295057 -4.17214e-005,0.000439015zm0.0497767 0.00292388c-0.00166172,0.000264612 -0.00340763,0.000422477 -0.00503815,0.000556662 -0.00033302,0.00028754 -0.000776169,0.000710768 -0.000884419,0.00100545 0.000193572,3.00695e-005 0.000481864,4.0218e-005 0.000599135,4.2849e-005 0.0016666,4.20973e-005 0.00360571,-0.000707009 0.00532343,-0.00160496zm-0.0095621 -0.00211652c0.00152828,-0.00118248 0.00386694,-0.00195151 0.00581056,-0.0024657 0.00183875,-0.000485998 0.00398947,-0.0009408 0.00596278,-0.000890809 0.000846457,2.10487e-005 0.00166284,0.000180793 0.00237624,0.00052584 0.000784438,0.000378876 0.00131742,0.000939296 0.00136215,0.00162263 0.000455553,-0.000175531 0.000918999,-0.000336403 0.00138207,-0.000484871 0.00208645,-0.000672053 0.00477504,-0.00141477 0.00708362,-0.00135689 0.000626573,1.57865e-005 0.00125728,0.000116519 0.00178838,0.000333396l0.00770606 -0.00652508 0.00100695 0.000195076c0.000399924,7.78048e-005 0.000810749,0.000125164 0.00122308,0.000135689 0.000479233,1.16519e-005 0.0009626,-8.64498e-006 0.00144221,-1.57865e-005l0.00391016 -6.0139e-005 -0.00261943 0.00210487c-0.00401992,0.00323022 -0.00809847,0.00642585 -0.0119662,0.00975492 -0.000142454,0.000122909 -0.000381507,0.000330765 -0.000651005,0.000572448 0.00168201,-0.000907723 0.00368615,-0.0023349 0.00437774,-0.00284157 0.000403307,-0.000330013 0.000924261,-0.000531854 0.00154708,-0.000515692 0.00100432,2.51832e-005 0.00180267,0.000602518 0.00177673,0.00134599l-9.39672e-006 0.000268746 -0.000163127 0.00024018c-0.000145837,0.000215373 -0.000367224,0.000381131 -0.000601766,0.000543882l-0.00108814 0.000754369c-0.00191881,0.00133058 -0.00544183,0.00369028 -0.00822251,0.00362074 -0.0010904,-2.74384e-005 -0.00210975,-0.000280774 -0.00292276,-0.000829542 -0.000313475,-0.00021199 -0.000567186,-0.000448787 -0.000761134,-0.00070513 -0.00133396,0.000715654 -0.00293403,0.00136816 -0.00440105,0.00133133 -0.00125503,-3.19488e-005 -0.00239579,-0.000360082 -0.00329637,-0.00101221 -0.000437511,-0.000316482 -0.000768652,-0.000674684 -0.000991918,-0.00106408 -0.00210299,0.00102048 -0.00457282,0.00185303 -0.00705694,0.00179064 -0.00143319,-3.60834e-005 -0.0027709,-0.000346927 -0.00388911,-0.00102311 -0.000390152,-0.000235294 -0.000723172,-0.000500657 -0.000989287,-0.000792707 -0.000419094,0.00024657 -0.000884795,0.000455929 -0.00136065,0.000633715 -0.00184965,0.00069235 -0.00389362,0.000927268 -0.00596504,0.000875023 -0.00127833,-3.19488e-005 -0.00256004,-0.00025108 -0.00360684,-0.000820146 -0.000144334,-7.85566e-005 -0.00028115,-0.000161999 -0.0004112,-0.000252208 -0.00181394,0.000652884 -0.00380793,0.000875398 -0.00582672,0.000824656 -0.00127946,-3.19488e-005 -0.00256192,-0.00025108 -0.00360796,-0.000820522 -0.000317985,-0.0001729 -0.000599135,-0.000370982 -0.00083518,-0.000593121 -0.00172486,0.000695357 -0.00366735,0.00120955 -0.00563916,0.00116068 -0.00143319,-3.60834e-005 -0.00277053,-0.000346927 -0.00388949,-0.00102424 -0.000476226,-0.000288667 -0.000867881,-0.000620184 -0.00115655,-0.000991542 -0.00157301,0.000895319 -0.0035591,0.00179853 -0.00529674,0.00175493 -0.00104529,-2.63108e-005 -0.00202706,-0.000272129 -0.00280849,-0.00079609 -0.000807366,-0.000540875 -0.00121932,-0.00125202 -0.00119226,-0.00204773 7.51738e-007,-2.21763e-005 2.25521e-006,-4.39766e-005 3.75869e-006,-6.61529e-005 -0.00066416,0.000475098 -0.00143281,0.000890057 -0.00225521,0.00125127 -0.00287389,0.00126292 -0.00608081,0.0017508 -0.00942754,0.0016666 -0.00158767,-3.98421e-005 -0.00322232,-0.000280022 -0.00455854,-0.000949069 -0.00132644,-0.000663408 -0.00208382,-0.00162977 -0.00204773,-0.00280962 -0.00182522,0.000815259 -0.00389889,0.00141665 -0.005894,0.00188874 -0.00313249,0.000742341 -0.00650554,0.00126066 -0.00982183,0.00117722 -0.00213569,-5.37492e-005 -0.00432249,-0.000341665 -0.006221,-0.00110167 -0.00168201,-0.000672429 -0.00305769,-0.00171321 -0.0030062,-0.00319827 2.74384e-005,-0.000816011 0.000528472,-0.0015155 0.0013723,-0.00203758 0.000591242,-0.000366848 0.00127044,-0.000595 0.00200676,-0.000685961 -0.000769779,-0.00081977 -0.00115166,-0.00178162 -0.00111445,-0.00285585 0.000129675,-0.00375681 0.00488291,-0.00618417 0.00903513,-0.00768614 0.00574027,-0.00207668 0.0119241,-0.00293666 0.0183349,-0.00277579 0.00413456,0.000104116 0.00835594,0.000621687 0.0121376,0.00191655 0.00279571,-0.000792707 0.00575267,-0.00124939 0.00877578,-0.00117346 0.00222176,5.60044e-005 0.00445066,0.000434128 0.00624769,0.00144634 0.0013971,0.000786318 0.00227138,0.00180981 0.00251118,0.00302499 0.000355196,7.51738e-007 0.000717909,-2.02969e-005 0.00105957,-8.23153e-005l0.00515504 -0.000935913 -0.00347265 0.00292464c-0.00282052,0.00237549 -0.00564029,0.00475211 -0.0084484,0.00713512 -0.00122383,0.00104003 -0.00246119,0.00207141 -0.0036542,0.00312986 0.00116068,-0.000653636 0.00236609,-0.00144522 0.00288968,-0.00180154 0.00140124,-0.00155873 0.00421762,-0.00252133 0.0065435,-0.00313663 0.00183837,-0.000486374 0.00398872,-0.0009408 0.00596203,-0.000891561 0.000846457,2.14245e-005 0.00166209,0.000181169 0.00237662,0.000526592 0.000816763,0.000394662 0.00135989,0.000984776 0.00136478,0.0017072l0.000543506 -0.000335651c0.000706633,-0.000420973 0.00139635,-0.000857357 0.00208494,-0.00129412 0.000370231,-0.000637849 0.000893816,-0.00121143 0.00157301,-0.00170005 0.000795338,-0.000570945 0.00178989,-0.00099079 0.00294305,-0.000961848 0.0011449,2.8566e-005 0.00204435,0.000643487 0.00201541,0.00150122 -3.7211e-005,0.00108739 -0.00201992,0.00210487 -0.00333959,0.00273106 -6.38977e-006,0.000276264 0.000353317,0.000874647 0.000667167,0.00133922 0.000739334,-0.000291298 0.00155008,-0.000461943 0.00242511,-0.000454801l0.00147679 -0.000912234c0.000706633,-0.000421725 0.00139598,-0.000857733 0.00208494,-0.00129487 0.000370231,-0.000638225 0.000893816,-0.00121105 0.00157339,-0.00169968 0.000794587,-0.000572072 0.00178914,-0.000991542 0.00294305,-0.0009626 0.00114414,2.8566e-005 0.0020436,0.000644615 0.00201428,0.00150235 -3.7211e-005,0.00108664 -0.00201992,0.00210487 -0.00333884,0.00273031 -8.64498e-006,0.000368351 0.000635218,0.00131028 0.00094982,0.00174328zm-0.00379515 -0.0333865c-0.00116594,-0.000509678 -0.00256455,-0.000872767 -0.00373426,-0.00113287 -0.00214922,-0.000478105 -0.00435256,-0.000629956 -0.00656605,-0.000484495 -0.000952452,6.23942e-005 -0.00189475,0.000204473 -0.00281601,0.00041947 -0.000471339,0.000110505 -0.000935537,0.000240932 -0.00139034,0.000391655l0 0.00143732c0.00483142,0.000422477 0.00972485,0.00102349 0.0144653,0.00175005l4.13456e-005 -0.00238113zm-0.0442488 -0.0581277c0.000657019,0.0004003 0.00100658,0.00094982 0.00115617,0.00162375 3.49558e-005,0.00015561 0.000112385,0.000620935 7.51738e-006,0.000768276 -6.84081e-005,9.69741e-005 -0.000423228,0.000163127 -0.000535613,0.000179289 -0.000488629,6.95357e-005 -0.0015031,-0.00113512 -0.00171734,-0.00140988 -0.000284533,-0.00036572 -0.000574328,-0.000729185 -0.000871264,-0.00108814 -0.00109979,-0.00132569 -0.00278669,-0.00318586 -0.00452659,-0.00391655 -0.00154219,-0.000647998 -0.00330577,-0.000671678 -0.00497049,-0.00043488 -0.00232212,0.000330013 -0.00441082,0.00117948 -0.00581958,0.0028348 -0.00141026,0.00165758 -0.00166209,0.00360345 -0.00122082,0.00558579 0.000208231,0.000935537 0.000568314,0.00183649 0.00109415,0.00267619 0.00112798,0.00180267 0.00275625,0.00374102 0.00479646,0.00486299 0.00019921,0.000109378 0.000416463,0.000216876 0.000647622,0.00031573 -0.00166096,0.000467205 -0.00325803,0.00111182 -0.00471715,0.00182672 -0.0048363,0.00236835 -0.00922044,0.00595639 -0.0125897,0.00973275 -0.00384664,0.00431159 -0.00715203,0.00976883 -0.00782521,0.0152264 -0.00121819,0.00988234 -0.000178914,0.024787 0.00905994,0.0318917 0.00629693,0.00484269 0.0145957,0.00476902 0.022321,0.00286224 0.0148859,-0.00367412 0.0288641,-0.0051355 0.0441947,-0.00274384 0.011988,0.00186995 0.0237575,0.00580417 0.0351494,0.0094298 0.0186356,0.00593083 0.0287231,-0.00225258 0.0312727,-0.0176722 0.000803983,-0.00486261 0.000827663,-0.010074 0.000230783,-0.0149592 -0.000696861,-0.00570155 -0.00420447,-0.0115392 -0.00811839,-0.016109 -0.00342642,-0.004 -0.0078861,-0.007897 -0.0128175,-0.0105371 -0.00293666,-0.00157188 -0.0065559,-0.00294456 -0.0101315,-0.00297726 0.000145085,-5.48768e-005 0.000284533,-0.000113137 0.000416463,-0.000172148 0.00214696,-0.000965231 0.0039673,-0.00277429 0.00527532,-0.00448562 0.000609283,-0.000797218 0.00106033,-0.00166773 0.00136328,-0.0025841 0.00064236,-0.00194136 0.000590114,-0.00389889 -0.000645367,-0.00565607 -0.0012336,-0.00175418 -0.00322796,-0.00275662 -0.00550723,-0.00325916 -0.0016339,-0.000360082 -0.00339297,-0.000469084 -0.00499605,6.12666e-005 -0.00180793,0.000597631 -0.00367825,0.00232475 -0.00490922,0.00356286 -0.000332644,0.000334899 -0.000658522,0.000675812 -0.000979514,0.0010186 -0.000240932,0.000257846 -0.00137493,0.00138169 -0.00185454,0.00127607 -0.000110881,-2.44315e-005 -0.000457432,-0.000116895 -0.000515692,-0.00021838 -8.90809e-005,-0.000154858 3.57075e-005,-0.000612666 8.6074e-005,-0.000765269 0.00021838,-0.000660026 0.000622439,-0.00118136 0.0013178,-0.00153091 0.00131441,-0.000660026 0.00262432,-0.00160195 0.00330877,-0.00279158 0.00053411,-0.000929148 0.000683329,-0.00209321 -0.000154858,-0.00293366 -0.00109528,-0.00109829 -0.00292276,-0.000804359 -0.00424844,-0.000229656 -0.00198684,0.000861867 -0.003785,0.00257207 -0.00513362,0.00412478 -0.0005514,-0.00125878 -0.00128923,-0.00253523 -0.00223416,-0.0038271 -0.00233377,-0.00318925 -0.00561698,-0.00598985 -0.00912309,-0.00824431 -0.00122646,-0.000788197 -0.00252058,-0.00154069 -0.00385266,-0.00219282 -0.000931027,-0.000456305 -0.00218756,-0.00110844 -0.00329599,-0.000836308l-0.000366848 9.02085e-005 -0.030345 0.0193509 -0.000987783 7.14151e-006 8.64498e-005 -9.69741e-005c0.00141703,-0.00162714 0.00167374,-0.00355534 0.00123774,-0.0055155 -0.000243187,-0.00109303 -0.000685961,-0.00213569 -0.00134899,-0.00309415 -0.00120316,-0.00173764 -0.00292351,-0.00379064 -0.00496297,-0.0048769 -0.00126142,-0.000671678 -0.00305205,-0.0011013 -0.00425521,-8.8705e-005 -0.000920879,0.00077429 -0.000891185,0.00194512 -0.000454425,0.00291035 0.00056042,0.00123623 0.00176921,0.00227288 0.00301071,0.00302875zm-0.0105961 0.0124138c0.000789324,0.000137944 0.00158955,7.96842e-005 0.00222138,-0.00036572 0.00170757,-0.000172524 0.00342642,-8.04359e-005 0.00507197,0.000399549 0.00310167,0.000905092 0.00518098,0.0029765 0.00651944,0.00546814l0.00116482 0.00216876 -0.00238564 -0.00123698c-0.00324488,-0.00168276 -0.00682014,-0.00248186 -0.01058,-0.00177899 -0.0108946,0.00203721 -0.0178932,0.0149968 -0.01962,0.0235959 -0.0004003,0.00199398 -0.000481112,0.00404585 -0.000280774,0.00606088 0.00109979,0.0110566 0.0100665,0.0198914 0.0235884,0.0147247 0.00304529,-0.00116407 0.00697199,-0.00190114 0.011458,-0.00229242l0.00136816 -0.000107874c0.00441195,-0.000309716 0.00931027,-0.000307837 0.014418,-6.16425e-005l-2.63108e-006 0.000598383 0.0073971 0 0 -9.05844e-005c0.00482728,0.000425483 0.00971771,0.00102988 0.0144522,0.00175944l-1.24037e-005 0.000719413c-0.018383,-0.00280849 -0.0388468,-0.00363315 -0.0487295,0.000143206 -0.0176128,0.00672993 -0.0269972,-0.00913361 -0.0244995,-0.0215775 0.00276677,-0.0137763 0.0158102,-0.030448 0.0314865,-0.0223187 -0.0082616,-0.0153798 -0.0358413,0.00458334 -0.0378297,0.0207153 -0.00158015,0.0128107 0.000316857,0.0403236 0.029205,0.0331937 0.0338725,-0.00836045 0.0519973,-0.00232437 0.0804149,0.00672053 0.0288885,0.00919375 0.0307855,-0.0181838 0.0292054,-0.0311073 -0.00198835,-0.016274 -0.0295685,-0.0382074 -0.0378297,-0.0234181 0.0156764,-0.0070092 0.0284984,0.0106277 0.0314862,0.0245687 0.00316331,0.0147589 -0.00461454,0.0274125 -0.0244991,0.0198271 -0.003299,-0.00125878 -0.00745611,-0.00248224 -0.0121394,-0.00360458l1.01485e-005 -0.000726554c0.00492388,0.00116594 0.00921856,0.00241947 0.0124777,0.00366247 0.00562939,0.00214771 0.0129968,0.00363728 0.01828,6.38977e-006 0.006165,-0.00423717 0.00632775,-0.0129757 0.00502912,-0.0190329 -0.00073971,-0.00345311 -0.00202518,-0.00689907 -0.00368765,-0.0101064 -0.00446682,-0.00861717 -0.0141563,-0.0194922 -0.0265608,-0.0139455l-0.00227513 0.0010171 0.00110693 -0.00198158c0.00123586,-0.00221236 0.00311445,-0.00405074 0.00588272,-0.004866 0.00437549,-0.00128885 0.00932831,0.000440142 0.0130306,0.0024221 0.00483893,0.00259011 0.00922006,0.00642473 0.0125815,0.0103495 0.00382033,0.00446006 0.0072772,0.0101853 0.00795789,0.0157519 0.000589738,0.00482578 0.000567186,0.00997744 -0.000227401,0.0147807 -0.00247322,0.0149581 -0.0120214,0.0228513 -0.030127,0.0170889 -0.0114445,-0.00364254 -0.0232509,-0.00758541 -0.0352945,-0.009464 -0.0154632,-0.00241233 -0.0295696,-0.00094531 -0.0445848,0.00276076 -0.00742829,0.00183349 -0.0154471,0.00196091 -0.0215125,-0.00270325 -0.0089998,-0.00692125 -0.00996654,-0.0216553 -0.00878067,-0.0312708 0.000655515,-0.00531892 0.00390603,-0.0106581 0.00765419,-0.0148588 0.003299,-0.0036978 0.00759856,-0.00722232 0.0123349,-0.00954218 0.00171697,-0.000840443 0.00365119,-0.00159256 0.0056557,-0.0020451zm0.00289682 -0.00115317c0.000820522,-0.00179177 -0.0019376,-0.00424093 -0.00325728,-0.00522833 -0.00053223,-0.000398421 -0.000864874,-0.000882916 -0.000996804,-0.00147679 -4.62319e-005,-0.000206728 -8.38187e-005,-0.00051682 4.0218e-005,-0.00071152 6.69046e-005,-0.000106371 0.000176282,-0.000134561 0.000311971,-0.000154106 0.000655139,-9.28396e-005 0.00152903,0.000926892 0.00182672,0.00130239 0.000203345,0.000255967 0.000412328,0.00050855 0.000632211,0.000784438 0.0001729,0.000206352 0.000339034,0.000417214 0.000518699,0.000651005 0.00087615,0.0010795 0.00200526,0.0023473 0.00326217,0.00311896 0.000837436,0.000514189 0.00181018,0.000797218 0.00282277,0.000930651 0.00112422,0.000147716 0.00226762,0.000112761 0.00338733,-4.69836e-005 0.00192144,-0.000272881 0.00373163,-0.000875398 0.00511482,-0.00200977l0.000154858 0.0131445 -0.00212479 -0.00395452c-0.00143807,-0.00267844 -0.00369141,-0.00488404 -0.00702085,-0.00585566 -0.00152264,-0.000444277 -0.00309866,-0.000581469 -0.00467205,-0.000494267zm0.00802968 -0.0116579c0.000778048,0.000473219 0.00120842,0.00113174 0.00138658,0.00192971 6.95357e-005,0.000312723 0.000139823,0.000823153 -6.54012e-005,0.00111257 -0.000182296,0.000257846 -0.0006059,0.000361586 -0.000929899,0.000407442 -0.000857733,0.000122157 -0.00189475,-0.00111896 -0.00228528,-0.00162037 -0.000281902,-0.000361962 -0.000567938,-0.000721292 -0.000862243,-0.00107574 -0.00103101,-0.00124375 -0.00267994,-0.00307573 -0.00431272,-0.00376169 -0.0014298,-0.000601014 -0.003084,-0.000610411 -0.00462507,-0.000391279 -0.00217215,0.000308588 -0.00413418,0.00109077 -0.00545198,0.0026401 -0.00131629,0.00154708 -0.00153354,0.00336064 -0.00112234,0.00520766 0.000197331,0.00088705 0.000538244,0.00174102 0.00103702,0.00253749 0.00192069,0.00306897 0.00411539,0.00465589 0.00582559,0.00517872 0.000444653,-0.000105995 0.000892688,-0.000198459 0.00134336,-0.00027476 -0.0014689,0.000125916 -0.0042725,-0.00130953 -0.00666641,-0.00513437 -0.000465326,-0.000743468 -0.000789324,-0.00154444 -0.000979138,-0.00239842 -0.000426235,-0.00191468 -8.75774e-005,-0.00352377 0.00102274,-0.00482916 0.00111032,-0.00130502 0.00280736,-0.00212253 0.005084,-0.00244615 0.0017196,-0.000244691 0.0031464,-0.000128547 0.00428115,0.000348055 0.00112573,0.000472843 0.00249502,0.0016775 0.00409885,0.00360571 0.000211614,0.000260477 0.000501033,0.000614545 0.000852846,0.00106408 0.00104304,0.00134148 0.00199737,0.00195339 0.00285322,0.00183161 0.000643112,-9.1712e-005 0.0010904,-0.00030295 0.00132419,-0.00063597 0.000234918,-0.000328509 0.000280022,-0.000815635 0.000137192,-0.00145687 -0.000214245,-0.000964103 -0.000753241,-0.00171133 -0.00161548,-0.00223604 -0.00617214,-0.00375869 -0.00120654,-0.00867768 0.00501935,0.000318737 0.0005841,0.000840818 0.000985152,0.00176921 0.00120992,0.00277917 0.000420973,0.00189212 7.81807e-005,0.00347829 -0.00103176,0.00475023 -0.00110919,0.00127607 -0.00284194,0.00207968 -0.00519714,0.00241458 -0.00109115,0.000155234 -0.00209998,0.000170269 -0.00302687,4.47284e-005 -0.000933282,-0.00011915 -0.00170381,-0.000376245 -0.00233151,-0.000758879 -0.00088254,-0.000544634 -0.00187483,-0.00150836 -0.00299041,-0.00288254 -0.000216876,-0.000283029 -0.000396166,-0.000505168 -0.00052772,-0.000662281 -0.000146213,-0.000184176 -0.000357075,-0.000440142 -0.000616049,-0.000764893 -0.00101372,-0.00127908 -0.00199962,-0.00185266 -0.00295696,-0.00171659 -0.000518323,7.36703e-005 -0.00089983,0.000289795 -0.00112723,0.000650629 -0.000228152,0.000355948 -0.000280774,0.000811125 -0.000158617,0.00135989 0.000176658,0.000793835 0.000634842,0.00147115 0.00136628,0.00202894 0.00336966,0.00251682 0.00353429,0.00435482 0.00224619,0.00468145 0.00036572,-5.67562e-005 0.00073332,-0.000103364 0.00110092,-0.000137944 0.000592369,-0.00092351 -7.02875e-005,-0.00273896 -0.00297162,-0.00491073 -0.000627701,-0.000469836 -0.00102612,-0.00105206 -0.00118211,-0.00175268 -7.36703e-005,-0.000333396 -9.62224e-005,-0.000727682 9.96052e-005,-0.00103589 0.00015561,-0.000244691 0.000404059,-0.000357451 0.000719789,-0.000402555 0.000976131,-0.00013832 0.00192482,0.000920503 0.0023924,0.00150986 0.000202969,0.000255967 0.000412328,0.00050855 0.000623566,0.000774666 0.000177034,0.000211614 0.000348055,0.000428115 0.000523585,0.000656267 0.000834053,0.00102763 0.00192933,0.00226611 0.00312648,0.00300094 0.00076339,0.000469084 0.0016542,0.000723547 0.00257658,0.000844953 0.00106446,0.000139823 0.00214771,0.000104867 0.00320729,-4.5856e-005 0.00217403,-0.000309716 0.00421349,-0.00105732 0.0055606,-0.00260439 0.00132043,-0.00151588 0.00154069,-0.00330952 0.00113475,-0.00513286 -0.000230783,-0.0010374 -0.000649501,-0.00202744 -0.00127946,-0.00293666 -0.00115053,-0.00166247 -0.00282127,-0.00367149 -0.00477353,-0.00471152 -0.00101673,-0.000541627 -0.0025623,-0.000989663 -0.00355422,-0.000155234 -0.000749106,0.000630332 -0.000673181,0.00161097 -0.000321744,0.00238677 0.000517571,0.00114189 0.00166322,0.00210938 0.00280887,0.00280736zm0.0707483 0.0186811c-0.000388272,-0.000109378 -0.000741213,-0.000304078 -0.00102838,-0.000611539 -0.00180943,-0.0019376 0.00177786,-0.00463296 0.00336854,-0.00562751 0.000570569,-0.000357075 0.000951324,-0.000814884 0.00114377,-0.00139635 6.69046e-005,-0.000202593 0.000136065,-0.00050855 3.27006e-005,-0.000711895 -5.63803e-005,-0.000110881 -0.000161999,-0.000147716 -0.000295433,-0.000176658 -0.000642736,-0.000142078 -0.00161774,0.00080887 -0.00195264,0.00116031 -0.000228904,0.00024018 -0.00046307,0.00047585 -0.000710016,0.000734448 -0.000192821,0.000192821 -0.000380003,0.000390152 -0.000582972,0.000609659 -0.000983273,0.00100958 -0.00223755,0.00218831 -0.0035685,0.00286262 -0.00088705,0.000449539 -0.00188461,0.000658898 -0.00290697,0.00071603 -0.00113512,6.3146e-005 -0.00227062,-5.75079e-005 -0.00337004,-0.000300319 -0.00141703,-0.000312347 -0.00275286,-0.000805487 -0.00386431,-0.00155422 -0.00148055,0.00422552 -0.00482653,0.00810599 -0.00910129,0.0115155 0.00559932,0.00210411 0.0110701,0.00769667 0.0117425,0.0120376 6.91599e-005,0.000317985 0.000307461,0.000700619 0.000396917,0.00108213 0.000119526,0.000508926 0.000180793,0.0010265 0.000180793,0.00154557l0 0.0169325 -8.98326e-005 0.00652884c0.00505205,0.00119038 0.00946475,0.00247585 0.0128152,0.00375418 0.00530388,0.0020233 0.0123954,0.00354106 0.0173963,0.00010374 0.00588272,-0.00404322 0.0059579,-0.0125709 0.00472354,-0.01833 -0.000727682,-0.00339635 -0.00199323,-0.00678706 -0.00362826,-0.00994173 -0.0042413,-0.00818078 -0.013499,-0.018907 -0.0253832,-0.0135933l-0.00454914 0.0020342 0.00221349 -0.00396316c0.00133659,-0.00239278 0.0033862,-0.00436158 0.00637624,-0.00524224 0.000212366,-6.27701e-005 0.000425859,-0.000118775 0.000640856,-0.000168389zm-0.0145972 -0.00497237c-0.000301071,-0.000275888 -0.000576959,-0.000577334 -0.000823904,-0.000907347 -0.00109754,0.00431497 -0.00458673,0.00905543 -0.0118981,0.0140417 0.00554933,-0.000190565 0.01342,0.00659349 0.0141545,0.0113362 6.5777e-005,0.000423604 0.000326254,0.00079609 0.000418718,0.00119338 9.39672e-005,0.000397669 0.000139823,0.000794962 0.000139823,0.00119376l0 0.0169434 4.13456e-006 0.00605938c0.000299943,6.72805e-005 0.000597631,0.000134937 0.000893816,0.000202969l0.000147716 -0.00626799 0 -0.0169378c0,-0.000460063 -5.48768e-005,-0.000918247 -0.000160872,-0.00136967 -8.90809e-005,-0.000380379 -0.000354068,-0.000794211 -0.000407066,-0.00113512 -0.000683705,-0.00441458 -0.00697199,-0.0104597 -0.0126946,-0.011832 0.00488254,-0.0036339 0.00875511,-0.00786167 0.0102259,-0.0125209zm-0.00102687 -0.00785829c0.000202969,-0.000398045 0.00043676,-0.000784438 0.000702875,-0.00115617 -0.000544258,-0.00139786 -0.00132907,-0.00281977 -0.00238564,-0.00426386 -0.00226461,-0.00309528 -0.0054625,-0.00581619 -0.00886487,-0.00800375 -0.000909602,-0.000584852 -0.00501785,-0.00318286 -0.00623228,-0.00288442l-0.000183048 4.51043e-005 -0.0304664 0.0194279 -0.00101372 7.51738e-006 0.0005841 0.049576 0.0126641 -0.00337643 -0.000973124 -0.045176 0.00434316 -0.00207442 -0.000233039 0.0507355c0.00174929,9.39672e-005 0.00351851,0.000214997 0.00529975,0.00036121l0 -0.00194587c0.000699116,-0.000266491 0.00142116,-0.000485622 0.00216012,-0.000658522 0.000985528,-0.000230032 0.00199323,-0.000381507 0.00301184,-0.000448411 0.00232738,-0.000152979 0.00464912,7.89324e-006 0.00690922,0.000510806 0.00145649,0.000323999 0.00317308,0.00078519 0.00451644,0.00147153l-8.19394e-005 0.00306483c0.000377372,5.93873e-005 0.000752865,0.000119902 0.00112761,0.000181169l0 -0.00373426c-0.00120917,-0.00071603 -0.002975,-0.00133208 -0.005299,-0.00184927 -0.00232588,-0.00051682 -0.00474196,-0.000696109 -0.00725239,-0.000536741 -0.0011152,7.85566e-005 -0.00218568,0.000237925 -0.00320691,0.000477729 -0.00102311,0.000237925 -0.00199962,0.000556662 -0.00293027,0.000953955l0 0.00163916 -0.00320691 0 0.000237925 -0.05175 -0.00688742 0.0032896 -1.09002e-005 9.92294e-005 0.000452546 -3.75869e-006 0.000963728 0.0447382 -0.0105732 0.00281902 -0.000559669 -0.0474775 0.000308588 -2.25521e-006 0.0305875 -0.0195053c0.000534861,-0.000131554 0.0135234,0.00598308 0.0164912,0.0154486zm0.00737755 -0.000658146c-0.000823529,0.000413832 -0.0013193,0.00103702 -0.00157827,0.00181883 -0.000101485,0.000306333 -0.000224018,0.000809246 -4.92388e-005,0.00111332 0.00015561,0.000270626 0.000567186,0.000405187 0.000885171,0.000475474 0.000841946,0.000185679 0.00200188,-0.000973124 0.00244202,-0.00144334 0.000317985,-0.00033941 0.000639729,-0.000676188 0.00096899,-0.00100733 0.00115429,-0.00116143 0.00298365,-0.00286337 0.00468069,-0.00342454 0.00148581,-0.000491261 0.00313437,-0.000376996 0.00464762,-4.36008e-005 0.00213155,0.000470212 0.00400639,0.00139598 0.00516105,0.00303815 0.00115279,0.00163954 0.00118399,0.0034625 0.000585228,0.00527194 -0.000287164,0.000868633 -0.000713775,0.00169404 -0.00129224,0.00244991 -0.00633339,0.00828528 -0.0136568,0.00447772 -0.0055279,-0.000604773 0.000673557,-0.000421349 0.00112911,-0.000971621 0.00135651,-0.00165796 0.000107498,-0.00032663 0.000169893,-0.000717534 6.38977e-006,-0.00103928 -0.000129675,-0.000255215 -0.00036572,-0.000386393 -0.000675436,-0.000454425 -0.000958465,-0.000211614 -0.00201165,0.000772786 -0.00253749,0.00132419 -0.000228528,0.00024018 -0.00046307,0.000476226 -0.000700995,0.000725427 -0.000197707,0.000197331 -0.000390152,0.0004003 -0.000588235,0.000614545 -0.000935913,0.000961472 -0.00215373,0.00211313 -0.00342116,0.00275587 -0.000808494,0.000409697 -0.00172185,0.000596504 -0.00265326,0.000648374 -0.00107461,6.0139e-005 -0.00214997,-5.60044e-005 -0.00319037,-0.000285284 -0.00141552,-0.000312723 -0.00275249,-0.00081338 -0.003838,-0.00159444 5.48768e-005,-0.000176282 0.000106747,-0.000352941 0.000155234,-0.000530727 0.00095809,0.000750986 0.00223341,0.00130126 0.00382522,0.00165232 0.00107123,0.000236421 0.00207442,0.00032663 0.00301108,0.000271377 0.000941551,-4.92388e-005 0.00173539,-0.000247698 0.00239955,-0.000581469 0.000935162,-0.000476977 0.00202217,-0.00136252 0.00327382,-0.002648 0.000245066,-0.000265739 0.000446156,-0.000473595 0.000593873,-0.000620559 0.000164255,-0.000172148 0.0004003,-0.000411576 0.000691223,-0.000715654 0.00114076,-0.00119789 0.00218154,-0.00169592 0.00312159,-0.00148882 0.000508926,0.000112385 0.000866378,0.000356324 0.00105619,0.000732568 0.000190941,0.000371734 0.000196955,0.000829167 1.91693e-005,0.00136703 -0.000257094,0.000777297 -0.000783311,0.0014174 -0.0015685,0.00191843 -0.00745949,0.00465438 -0.00102199,0.00744822 0.00471452,-5.60044e-005 0.000539372,-0.000705506 0.000944182,-0.00147942 0.00122082,-0.00231573 0.000620184,-0.00187559 0.000447284,-0.00350385 -0.000525465,-0.00488742 -0.000972373,-0.00138282 -0.00257959,-0.002324 -0.0048145,-0.00281676 -0.00168803,-0.000372486 -0.00312121,-0.000363841 -0.00430031,2.59349e-005 -0.0011697,0.000386769 -0.00265702,0.00148431 -0.00445141,0.00328547 -0.000237925,0.000243563 -0.0005623,0.000574328 -0.000958465,0.000996052 -0.00117647,0.00125803 -0.00218944,0.00179628 -0.0030295,0.00161097 -0.00063146,-0.000139447 -0.00105544,-0.000383386 -0.00125427,-0.000732568 -0.000200338,-0.000344672 -0.000195452,-0.000833677 1.20278e-005,-0.00146138 0.000312347,-0.000944558 0.000925389,-0.00164856 0.001838,-0.00210674 0.0065326,-0.00328246 0.00208908,-0.0085544 -0.00503251,-5.78838e-005 -5.75079e-005,6.76564e-005 -0.000113137,0.000136816 -0.000167637,0.000205976 -6.8784e-005,-0.000193572 -0.000142078,-0.000387521 -0.000219132,-0.000581845 0.00131178,-0.00155083 0.00314865,-0.00337229 0.00515993,-0.00424506 0.00106897,-0.00046307 0.00265401,-0.000793835 0.00355685,0.000111633 0.000681826,0.000683705 0.000505919,0.00165533 7.66772e-005,0.00240143 -0.000632587,0.00109904 -0.00187258,0.00197707 -0.00308513,0.00258635zm-0.0404811 0.0534617l0.000225897 -0.049155 -0.00223379 0.00106709 0.000976507 0.0453106 -0.0100079 0.00266829c0.00348919,-0.000118399 0.00720616,-7.32944e-005 0.0110393,0.000109002zm-0.0157981 0.000171396l-0.000431122 -0.0365852 -0.00456906 -0.00236948c-0.00305506,-0.00158391 -0.00641195,-0.00235219 -0.00995413,-0.00168953 -0.0105044,0.00196354 -0.0172975,0.0147265 -0.0189596,0.0230047 -0.000387897,0.00193234 -0.000465701,0.00392219 -0.000271377,0.00587483 0.000517947,0.00521217 0.00320127,0.0112697 0.00867468,0.0140898 0.00435294,0.00224356 0.00923848,0.00173802 0.0137124,2.81902e-005 0.0031385,-0.0011994 0.00718285,-0.00195602 0.0117981,-0.00235331zm0.0332283 -0.0575429l-0.00987295 0.00471527 -0.000288291 0.018878c0.00144522,-0.000173276 0.00288517,-0.000265363 0.00438489,-0.000364217 0.00126292,-8.3067e-005 0.00300056,-0.00018192 0.0041308,-0.000706257 0.000639353,-0.000296936 0.00108137,-0.000723923 0.00144334,-0.00125878 0.00278669,-0.00411915 0.00355459,-0.00927569 0.00355459,-0.0139594 0,-0.00186205 -0.000154482,-0.00643112 -0.00182823,-0.00786355 -6.76564e-006,-5.26216e-006 -1.31554e-005,-1.09002e-005 -1.9921e-005,-1.65382e-005l-0.00150423 0.000575455zm-0.0100391 0.0501973c0.00123736,-0.000204473 0.00248712,-0.000371358 0.00372185,-0.00046495 0.00163804,-0.000124413 0.00329299,-0.000118023 0.00492426,6.80323e-005l4.20973e-005 4.88629e-006c0.00134185,0.000176658 0.00266792,0.000439015 0.00396993,0.000768652 0.00061417,0.00015561 0.00123059,0.000306709 0.00184852,0.000453674l0 -0.00554895c-0.000795338,0.000164631 -0.00159782,0.000301447 -0.00240594,0.000407066 -0.00160421,0.000208231 -0.00322495,0.000317609 -0.0048472,0.000317609 -0.00162225,0 -0.00324224,-0.000109378 -0.00484532,-0.000317609 -0.000809621,-0.000105619 -0.00161248,-0.000242811 -0.00240819,-0.000407442l0 0.00471903zm-7.14151e-006 -0.0110152c0.00215523,0.000937793 0.00445066,0.00141515 0.00691298,0.00141515 0.00265702,0 0.00519751,-0.000557413 0.00759443,-0.0014798 -2.14245e-005,-0.00132832 -0.000112009,-0.00301372 -0.000500281,-0.0039485 -0.000702123,-0.00168878 -0.00182935,-0.00377297 -0.00387558,-0.00453749 -0.00273332,-0.00102124 -0.00746363,0.00029844 -0.0101812,0.00106183l4.96147e-005 0.00748881zm0.00957714 -0.0399827l-0.0104413 0.00498703 -0.000312347 0.0204585c0.00183499,-0.00028754 0.00363428,-0.000399549 0.00552677,-0.000523961 0.00145273,-9.54707e-005 0.00324826,-0.000208231 0.00454876,-0.000812252 0.000811125,-0.000376245 0.00138996,-0.00091712 0.00184965,-0.00159669 0.00288554,-0.00426461 0.00369517,-0.00955534 0.00369517,-0.0144074 0,-0.0021962 -0.000170269,-0.00681525 -0.00213456,-0.00849576 -0.00018192,-0.00015561 -0.000375117,-0.000299943 -0.000578838,-0.000433001l-0.00215335 0.000823529zm-0.0106157 0.0520935c0.00160346,-0.000295057 0.003246,-0.000547265 0.00485998,-0.000669422 0.00156098,-0.000118775 0.0031385,-0.000114264 0.00471452,6.61529e-005 0.00129562,0.000170644 0.00257583,0.00042398 0.00383236,0.000741965 0.0010592,0.000267994 0.00212403,0.000522458 0.00319075,0.000768276l0 -0.0078831c-0.00118511,0.000291674 -0.00239015,0.000525465 -0.00360872,0.000684081 -0.00155196,0.000202217 -0.00311971,0.000307837 -0.00468971,0.000307837 -0.00157,0 -0.003137,-0.000105995 -0.00468859,-0.000307837 -0.00121932,-0.000158617 -0.00242473,-0.000392783 -0.0036106,-0.000684457l0 0.0069765zm-3.38282e-006 -0.0115726c0.00246457,0.00117309 0.00511031,0.00177147 0.00795489,0.00177147 0.00303777,0 0.00593234,-0.000684833 0.00864536,-0.00180643 -7.14151e-006,-0.00147867 -6.5777e-005,-0.00361172 -0.000566434,-0.00481601 -0.000814132,-0.0019594 -0.00208607,-0.00417741 -0.00444202,-0.00505807 -0.00311295,-0.00116294 -0.00801164,0.000213493 -0.0110457,0.00106596 -0.000210862,5.93873e-005 -0.000408569,0.000139071 -0.000602894,0.000225145l5.67562e-005 0.00861792zm0.01015 -0.0413211l-0.0110099 0.0052584 -0.000336778 0.0220924c0.00660176,-0.00135275 0.0113358,0.000188686 0.0138921,-0.00358955 0.00255628,-0.00377823 0.00383612,-0.00873106 0.00383612,-0.0148558 0,-0.0046931 -0.000813756,-0.00773613 -0.00244089,-0.00912835 -0.000360834,-0.000308212 -0.000763014,-0.000582221 -0.00120729,-0.000822401l-0.00273332 0.00104529zm-0.0111919 0.0540105c0.00241796,-0.000477729 0.00441759,-0.000775417 0.00599736,-0.000895319 0.00158128,-0.000119902 0.00306859,-9.99811e-005 0.00446344,5.93873e-005 0.00120767,0.000158992 0.00243976,0.000398797 0.00369479,0.000715654 0.00125503,0.000318737 0.00276564,0.000676564 0.00453298,0.00107386l0 -0.0102612c-0.00167337,0.000477729 -0.00327795,0.000814508 -0.0048115,0.00101447 -0.00153354,0.000198835 -0.00304529,0.000297688 -0.0045326,0.000297688 -0.00148769,0 -0.00299793,-9.88535e-005 -0.00453147,-0.000297688 -0.00153542,-0.000199962 -0.00313775,-0.000536741 -0.004813,-0.00101447l0 0.00930764zm0 -0.0121714c0.00279045,0.00143168 0.005788,0.00214771 0.0089968,0.00214771 0.00320691,0 0.00643713,-0.00071603 0.00969178,-0.00214771 0,-0.00270438 -0.000184552,-0.00460139 -0.000627701,-0.00566848 -0.00303439,-0.0073005 -0.00807253,-0.00699492 -0.0167991,-0.00454237 -0.000531854,0.000149596 -0.000953955,0.000377748 -0.00132607,0.000537117l6.42736e-005 0.00967374z"/>
 </g>
</svg>
