<?xml version="1.0" encoding="UTF-8"?>
<!DOCTYPE svg PUBLIC "-//W3C//DTD SVG 1.1//EN" "http://www.w3.org/Graphics/SVG/1.1/DTD/svg11.dtd">
<!-- Creator: CorelDRAW -->
<svg xmlns="http://www.w3.org/2000/svg" xml:space="preserve" width="1in" height="2in" style="shape-rendering:geometricPrecision; text-rendering:geometricPrecision; image-rendering:optimizeQuality; fill-rule:evenodd; clip-rule:evenodd"
viewBox="0 0 0.0574891 0.0603042"
 xmlns:xlink="http://www.w3.org/1999/xlink">
 <defs>
  <style type="text/css">
   <![CDATA[
    .fil0 {fill:#191919}
   ]]>
  </style>
 </defs>
 <g id="Layer_x0020_1">
  <metadata id="CorelCorpID_0Corel-Layer"/>
  <path class="fil0" d="M0.0057226 0.040283l8.02527e-005 0c0.000324193,0 0.000563063,0.000222854 0.000720071,0.000668598 2.73104e-005,8.7736e-005 4.09481e-005,0.000179668 4.09481e-005,0.00027716l0 0.00133856c0.000399305,-0.000130922 0.000779798,-0.000194984 0.00113815,-0.000194984l4.09481e-005 0c0.00108696,0 0.0019197,0.000440149 0.00249986,0.00132184 0.000160401,0.00030503 0.00023887,0.000608697 0.00023887,0.000913727l0 3.34299e-005c0,0.000736821 -0.000392417,0.00134552 -0.00117907,0.00182745 -0.000479523,0.0002716 -0.000999959,0.000408117 -0.00155967,0.000408117l-4.09481e-005 0c-0.00103577,0 -0.00184969,-0.000408117 -0.00243839,-0.00122435 -0.00019967,-0.000323144 -0.000300344,-0.000661604 -0.000300344,-0.00101122l0 -0.00342789c0,-0.000435987 0.000199635,-0.000735458 0.000600654,-0.000898411 4.94804e-005,-2.22749e-005 0.000102388,-3.20312e-005 0.000158652,-3.20312e-005zm0.000880542 0.00425944l0 0.000130922c0,0.000402557 0.000286672,0.000685313 0.000860015,0.000848266 6.9972e-005,1.1155e-005 0.000136482,1.67149e-005 0.000199635,1.67149e-005l0.000119417 0c0.000493196,0 0.000841272,-0.000234009 0.00104091,-0.000702028 1.36727e-005,-5.71036e-005 1.87781e-005,-0.00011141 1.87781e-005,-0.000162953l0 -9.74922e-005c0,-0.000408117 -0.000298596,-0.000696468 -0.00089925,-0.000864981l-0.000319088 0c-0.000411265,0 -0.000737171,0.000206139 -0.000981181,0.000619817 -2.55969e-005,9.74922e-005 -3.92347e-005,0.000168548 -3.92347e-005,0.000211734zm0.00776664 -0.00220354c0.000457318,0 0.000911244,9.74922e-005 0.00136003,0.000293875 0.000167184,-0.000196383 0.000366855,-0.000293875 0.000600619,-0.000293875 0.000353217,0 0.000605759,0.000196383 0.000759341,0.000587786 4.09481e-005,0.00010029 5.96912e-005,0.000225652 5.96912e-005,0.000376086l0 0.00257823c0,0.000558552 -0.00023887,0.000884458 -0.000720071,0.000979188l-9.89609e-005 1.67149e-005c-0.000230373,0 -0.000430008,-9.74922e-005 -0.000600619,-0.00029391 -0.00045564,0.000196418 -0.000909531,0.00029391 -0.00136003,0.00029391 -0.00103238,0 -0.0018463,-0.000396962 -0.00243842,-0.00119092 -0.000160401,-0.000261844 -0.000240583,-0.000435952 -0.000240583,-0.000522325l0 -0.00111011c3.92347e-005,-0.00029391 0.000286672,-0.000653282 0.000740563,-0.00107811 0.000595549,-0.000423434 0.00124222,-0.000636532 0.00193844,-0.000636532zm-0.00111938 0.00230243c0,0.000396962 0.000293491,0.000685278 0.000880472,0.000864981 6.85383e-006,0 9.2142e-005,5.55999e-006 0.000259396,1.53162e-005 0.000506764,0 0.000866834,-0.000239569 0.00108014,-0.000717344 0,-5.55999e-006 6.78389e-006,-7.6616e-005 2.04566e-005,-0.000213098 0,-0.000413677 -0.000293491,-0.000706189 -0.000880507,-0.000880297 -0.000112634,-1.1155e-005 -0.000199635,-1.67149e-005 -0.000259326,-1.67149e-005 -0.000450499,0 -0.000790078,0.000194984 -0.00102045,0.000587786 -5.29073e-005,9.47297e-005 -8.01828e-005,0.000214497 -8.01828e-005,0.000359371zm0.00585205 -0.00435833l8.02527e-005 0c0.000324193,0 0.000563063,0.000222854 0.000720071,0.000668598 2.72754e-005,8.7736e-005 4.09481e-005,0.000179668 4.09481e-005,0.00027716l0 0.00133856c0.000399305,-0.000130922 0.000779798,-0.000194984 0.00113815,-0.000194984l4.09481e-005 0c0.00108696,0 0.0019197,0.000440149 0.00249986,0.00132184 0.000160401,0.00030503 0.00023887,0.000608697 0.00023887,0.000913727l0 3.34299e-005c0,0.000736821 -0.000392452,0.00134552 -0.0011791,0.00182745 -0.000479488,0.0002716 -0.000999924,0.000408117 -0.00155963,0.000408117l-4.09481e-005 0c-0.00103577,0 -0.00184969,-0.000408117 -0.00243839,-0.00122435 -0.00019967,-0.000323144 -0.000300344,-0.000661604 -0.000300344,-0.00101122l0 -0.00342789c0,-0.000435987 0.000199635,-0.000735458 0.000600654,-0.000898411 4.94804e-005,-2.22749e-005 0.000102388,-3.20312e-005 0.000158652,-3.20312e-005zm0.000880507 0.00425944l0 0.000130922c0,0.000402557 0.000286707,0.000685313 0.00086005,0.000848266 6.9972e-005,1.1155e-005 0.000136482,1.67149e-005 0.000199635,1.67149e-005l0.000119417 0c0.000493161,0 0.000841272,-0.000234009 0.00104091,-0.000702028 1.36727e-005,-5.71036e-005 1.87781e-005,-0.00011141 1.87781e-005,-0.000162953l0 -9.74922e-005c0,-0.000408117 -0.000298596,-0.000696468 -0.00089925,-0.000864981l-0.000319088 0c-0.000411265,0 -0.000737171,0.000206139 -0.000981181,0.000619817 -2.55969e-005,9.74922e-005 -3.92696e-005,0.000168548 -3.92696e-005,0.000211734zm0.00516786 -0.00217847l0.00144021 0 8.01828e-005 4.87461e-005c2.2205e-005,0.00172996 6.9972e-005,0.00259494 0.000139909,0.00259494 0.000238905,0.000359371 0.000598941,0.00053904 0.00107843,0.00053904 0.00048802,0 0.000841272,-0.000228449 0.00105965,-0.000685313 1.36727e-005,-7.38185e-005 2.04915e-005,-0.00013372 2.04915e-005,-0.000179668l0 -3.34299e-005c0,-0.000470781 -6.81886e-006,-0.00121599 -2.04915e-005,-0.00223557l8.02178e-005 -4.87461e-005 0.0014999 0c2.04915e-005,0 4.7767e-005,2.08762e-005 8.02178e-005,6.5461e-005l0 0.00439037c0,0.000513967 -0.000286707,0.00102517 -0.000860015,0.00153494 -0.000590408,0.000402557 -0.00123033,0.000603137 -0.0019197,0.000603137l-2.04566e-005 0c-0.000889039,0 -0.00162278,-0.000314786 -0.00219952,-0.000947157l0 -4.87461e-005c5.79778e-005,-5.9901e-005 0.000457283,-0.000303666 0.00120127,-0.000734059l7.84693e-005 0c0.000286707,0.000260445 0.000587051,0.000391402 0.000900998,0.000391402l0.000119452 0c0.000423189,0 0.000755914,-0.000195019 0.000999924,-0.000587821 3.92347e-005,-0.000117005 5.97262e-005,-0.000214497 5.97262e-005,-0.000293875l0 -4.87461e-005 -2.04915e-005 0c-0.000349755,0.000130922 -0.000721785,0.000196383 -0.00111938,0.000196383 -0.000906069,0 -0.00167226,-0.000342656 -0.00229848,-0.00102793 -0.000293491,-0.000390004 -0.000440253,-0.000775846 -0.000440253,-0.00115889 -1.36727e-005,-0.00122155 -2.04566e-005,-0.00198348 -2.04566e-005,-0.00228572l8.01828e-005 -4.87461e-005zm0.00414915 0.00895487l1.67499e-005 0c0.000423678,0 0.000756649,0.000244535 0.000998176,0.000733569 8.16515e-005,0.000196978 0.000122145,0.000398956 0.000122145,0.000605899l0 2.0037e-005c0,0.000506589 -0.000204531,0.000904705 -0.000613557,0.0011926 -0.000167534,9.7667e-005 -0.000336432,0.000146903 -0.000506764,0.000146903l-1.67499e-005 0c-0.000423678,0 -0.000756683,-0.000244535 -0.000997442,-0.000733604 -8.16864e-005,-0.000195264 -0.000122879,-0.000397242 -0.000122879,-0.000605899l0 -2.0037e-005c0,-0.000509911 0.000204531,-0.000907992 0.000613557,-0.00119344 0.000163338,-9.76321e-005 0.000332271,-0.000146028 0.000506764,-0.000146028zm-0.00044952 0.00132031l0 7.75951e-005c0,0.000210301 0.000111654,0.000373883 0.000335068,0.00048907l9.84014e-005 1.0001e-005 4.8851e-005 0c0.000201733,0 0.000344125,-0.000140189 0.000425777,-0.000420601 5.59496e-006,-3.42342e-005 7.69307e-006,-6.67898e-005 7.69307e-006,-9.7667e-005l0 -5.83974e-005c0,-0.000244535 -0.000122145,-0.000417314 -0.000367834,-0.000518303l-0.000130537 0c-0.000175892,0 -0.000312723,0.000133545 -0.000409062,0.000400599l-8.35747e-006 0.000117704zm0.00320983 -0.00132031c0.000364372,0 0.0006722,0.00018862 0.000924183,0.000566665 0.000136797,0.000223659 0.000204496,0.000478229 0.000204496,0.000762803l0 0.00133031c0,1.0036e-005 -1.04556e-005,2.25547e-005 -3.21011e-005,3.92347e-005l-0.000589114 0 -3.28005e-005 -2.91987e-005c-1.11899e-005,-0.000790358 -1.67499e-005,-0.00125687 -1.67499e-005,-0.00139878 0,-9.09531e-005 -4.3291e-005,-0.000198621 -0.000130502,-0.000322969 -0.000103332,-0.000104311 -0.000212923,-0.000156064 -0.00032741,-0.000156064 -0.000175892,0 -0.000314821,0.000100989 -0.00041672,0.000302967 -2.79049e-005,6.67549e-005 -4.11579e-005,0.000128509 -4.11579e-005,0.000186102l0 0.0013495c0,4.59136e-005 -1.8883e-005,6.84334e-005 -5.72434e-005,6.84334e-005l-0.000547956 0c-3.83954e-005,0 -5.72434e-005,-4.25567e-005 -5.72434e-005,-0.000126866l0 -3.00379e-005c0,-0.000327165 -2.76251e-006,-0.000773643 -8.35747e-006,-0.0013395 1.60505e-005,-0.000237856 9.28064e-005,-0.000463193 0.000228939,-0.000675172 0.000247087,-0.000351329 0.000546558,-0.00052743 0.00089974,-0.00052743zm-0.00931218 0.0023915l7.56718e-005 0c0.00030587,0 0.000531207,0.000222854 0.000679333,0.000668598 2.57368e-005,8.7736e-005 3.86052e-005,0.000179668 3.86052e-005,0.00027716l0 0.00133856c0.000376716,-0.000130922 0.000735667,-0.000194984 0.00107371,-0.000194984l3.86402e-005 0c0.00102542,0 0.00181098,0.000440149 0.00235831,0.00132184 0.000151309,0.00030503 0.000225337,0.000608697 0.000225337,0.000913727l0 3.34299e-005c0,0.000736821 -0.000370212,0.00134552 -0.00111231,0.00182745 -0.000452353,0.0002716 -0.000943345,0.000408117 -0.00147133,0.000408117l-3.86402e-005 0c-0.00097709,0 -0.00174496,-0.000408117 -0.0023003,-0.00122435 -0.000188375,-0.000323144 -0.00028335,-0.000661604 -0.00028335,-0.00101122l0 -0.00342789c0,-0.000435987 0.00018834,-0.000735458 0.00056663,-0.000898411 4.6683e-005,-2.22749e-005 9.6583e-005,-3.20312e-005 0.0001497,-3.20312e-005zm0.000830642 0.00425944l0 0.000130922c0,0.000402557 0.000270446,0.000685313 0.000811339,0.000848266 6.59856e-005,1.1155e-005 0.000128754,1.67149e-005 0.00018834,1.67149e-005l0.000112669 0c0.000465221,0 0.00079361,-0.000234009 0.000981951,-0.000702028 1.29034e-005,-5.71036e-005 1.76941e-005,-0.00011141 1.76941e-005,-0.000162953l0 -9.74922e-005c0,-0.000408117 -0.000281671,-0.000696468 -0.000848301,-0.000864981l-0.000301044 0c-0.000387976,0 -0.000695419,0.000206139 -0.000925616,0.000619817 -2.41283e-005,9.74922e-005 -3.70316e-005,0.000168548 -3.70316e-005,0.000211734zm0.00738322 -0.00217011l3.86052e-005 0c0.000977125,0 0.00174503,0.000408117 0.00230198,0.00122432 0.00018834,0.000328739 0.000281706,0.0006658 0.000281706,0.00101125l0 3.34299e-005c0,0.000845469 -0.00047169,0.00150987 -0.00141497,0.00199041 -0.000386332,0.000162988 -0.000775916,0.000245164 -0.00116872,0.000245164l-3.86052e-005 0c-0.000977125,0 -0.00174496,-0.000408117 -0.00230033,-0.00122435 -0.000188375,-0.000325941 -0.00028335,-0.000663003 -0.00028335,-0.00101122l0 -3.34299e-005c0,-0.000851063 0.00047169,-0.00151547 0.001415,-0.00199184 0.000376681,-0.000162953 0.00076623,-0.00024373 0.00116868,-0.00024373zm-0.00103668 0.00220354l0 0.000129523c0,0.000351014 0.000257543,0.000624013 0.000772699,0.000816235l0.000226946 1.67149e-005 0.000112669 0c0.000465256,0 0.000793645,-0.000234009 0.000981951,-0.000702028 1.29034e-005,-5.71036e-005 1.7729e-005,-0.00011141 1.7729e-005,-0.000162953l0 -9.74922e-005c0,-0.000408117 -0.000281706,-0.000696468 -0.000848336,-0.000864981l-0.000301044 0c-0.00040567,0 -0.000721155,0.000222854 -0.00094331,0.000668563l-1.93026e-005 0.000196418zm0.00732685 -0.00223697c0.000431406,0 0.000859631,9.74922e-005 0.00128299,0.000293875 0.000157743,-0.000196383 0.000346118,-0.000293875 0.00056663,-0.000293875 0.000333215,0 0.000571455,0.000196383 0.00071633,0.000587786 3.86402e-005,0.00010029 5.63343e-005,0.000225652 5.63343e-005,0.000376086l0 0.00257823c0,0.000558552 -0.000225337,0.000884458 -0.000679298,0.000979188l-9.33659e-005 1.67149e-005c-0.000217329,0 -0.00040567,-9.74922e-005 -0.00056663,-0.00029391 -0.000429833,0.000196418 -0.000858022,0.00029391 -0.00128299,0.00029391 -0.000973908,0 -0.00174175,-0.000396962 -0.00230037,-0.00119092 -0.000151309,-0.000261844 -0.000226946,-0.000435952 -0.000226946,-0.000522325l0 -0.00111011c3.70316e-005,-0.00029391 0.000270446,-0.000653282 0.000698636,-0.00107811 0.000561804,-0.000423434 0.0011719,-0.000636532 0.00182868,-0.000636532zm-0.00105598 0.00230243c0,0.000396962 0.000276846,0.000685278 0.000830607,0.000864981 6.46917e-006,0 8.69317e-005,5.55999e-006 0.000244675,1.53162e-005 0.000478089,0 0.000817773,-0.000239569 0.00101898,-0.000717344 0,-5.55999e-006 6.4342e-006,-7.6616e-005 1.93376e-005,-0.000213098 0,-0.000413677 -0.000276881,-0.000706189 -0.000830677,-0.000880297 -0.000106234,-1.1155e-005 -0.000188305,-1.67149e-005 -0.00024464,-1.67149e-005 -0.000424972,0 -0.000745354,0.000194984 -0.000962648,0.000587786 -4.99001e-005,9.47297e-005 -7.56369e-005,0.000214497 -7.56369e-005,0.000359371zm0.00733167 -0.002269l7.56369e-005 0c1.93376e-005,0 4.50744e-005,2.08762e-005 7.56718e-005,6.40623e-005l0 0.00120904c0,4.31511e-005 -0.000119103,6.96223e-005 -0.000358952,8.07772e-005 -0.000304296,9.88909e-005 -0.000518338,0.000245129 -0.000640728,0.000441547 -0.000101409,0.00011141 -0.000151309,0.000351014 -0.000151309,0.000717344l0 0.00192634c0,1.67149e-005 -2.41283e-005,3.75911e-005 -7.56369e-005,6.5461e-005l-0.00137636 0c-1.93026e-005,0 -4.34309e-005,-2.22749e-005 -7.56369e-005,-6.5461e-005l0 -0.00225229c0,-0.000724303 0.000395983,-0.001333 0.00118799,-0.00182885 0.000450709,-0.000238205 0.000896627,-0.000357973 0.00133933,-0.000357973zm0.00584103 -0.00208933c0.000358952,0 0.000603626,0.0002716 0.000735632,0.000816235l0 0.00350867c0,0.000870541 -0.000471655,0.0015447 -0.00141497,0.00202384 -0.000376681,0.000162988 -0.000779098,0.000245164 -0.00120732,0.000245164 -0.000851553,0 -0.00155501,-0.000320346 -0.00211199,-0.000962473 -0.000313877,-0.000384444 -0.000471655,-0.000819032 -0.000471655,-0.00130653 0,-0.00079952 0.000428154,-0.00144165 0.00128299,-0.00192634 0.000402418,-0.000206174 0.00085477,-0.000309226 0.0013586,-0.000309226 0.000357378,0 0.000709896,6.96223e-005 0.00105601,0.000211699l0 -0.00135527c6.92027e-005,-0.000630972 0.000326781,-0.000945758 0.000772699,-0.000945758zm-0.00292333 0.00425944l0 0.000130922c0,0.000408117 0.000283315,0.000696433 0.000848336,0.000864981l0.000302617 0c0.000373464,0 0.000676116,-0.000196383 0.000904705,-0.000587786 3.86402e-005,-0.000105885 6.28034e-005,-0.000214532 7.56369e-005,-0.000325941 0,-0.000213133 -9.33309e-005,-0.000419272 -0.00028328,-0.000621215 -0.000231806,-0.000195019 -0.000465256,-0.000292512 -0.000697062,-0.000292512l-0.000188305 0c-0.00039927,0 -0.000708287,0.000211699 -0.000925651,0.000636532 -2.41283e-005,7.52173e-005 -3.69967e-005,0.000140678 -3.69967e-005,0.000195019zm-0.0321752 -0.0534869c0,0.00216375 0.00180584,0.00489042 0.00366959,0.00489042l0.000407698 0c0.000777595,0 0.00155222,-0.000336257 0.00218791,-0.000827949 0.00270076,-0.00208881 0.00171713,-0.00854532 -0.00218791,-0.00854532 -0.00268778,0 -0.00407729,0.00189613 -0.00407729,0.00448286zm0.0260944 0.0476812c0.00785998,-0.000346083 0.0132801,-0.0120206 0.0138627,-0.019969 0,-0.00414583 -0.00698251,-0.0093732 -0.0114164,-0.0093732l-0.00163086 0c-0.00421769,0 -0.00620806,0.00474586 -0.00613096,0.00938754 3.85703e-005,0.00232201 0.000801338,0.00439183 0.000348007,0.00724656 -0.000759901,0.00478621 -0.00315668,0.0127081 0.00496752,0.0127081zm-0.0327076 -0.0186569c0.00182903,0.00289046 0.00445953,0.00561584 0.00905954,0.00561584l0.000815431 0c0.00855931,0 0.00449097,-0.00974572 0.00447258,-0.0142584 -1.12948e-005,-0.00277979 0.000420182,-0.00487325 0.000420182,-0.0081557 0,-0.00338684 -0.00316913,-0.0069281 -0.00693135,-0.0069281l-0.000815396 0c-0.00311503,0 -0.00757117,0.00268649 -0.009887,0.00569773 -0.00392147,0.005099 -5.71735e-005,0.0134091 0.00286602,0.0180287zm0.046978 -0.00375733c0,0.00207479 0.00203181,0.00258875 0.00266673,0.00130635 0.000117564,-0.000237506 0.000187291,-0.000536627 0.000187291,-0.00089883 0,-0.00276279 -0.00285402,-0.00251658 -0.00285402,-0.000407523zm-0.00244636 -0.00407533c0,0.00125135 0.00037752,0.00244517 0.00163086,0.00244517 0.00159988,0 0.00203866,-0.00160268 0.00203866,-0.0028527 0,-0.000953906 -0.000676536,-0.00163009 -0.00163086,-0.00163009 -0.000950759,0 -0.00203866,0.00108738 -0.00203866,0.00203761zm-0.00366952 -0.00326022c0,0.00184885 0.00167594,0.00323403 0.00332089,0.00219253 0.000758782,-0.000480467 0.00116407,-0.00157012 0.00116407,-0.00260008 0,-0.000950234 -0.00108791,-0.00203761 -0.00203859,-0.00203761l-0.000407698 0c-0.00115711,0 -0.00203866,0.00140668 -0.00203866,0.00244517zm-0.0130472 -0.00448289l0 0.000407558c0,0.00183581 0.00168108,0.00407533 0.00326183,0.00407533 0.00254721,0 0.00448503,-0.00238573 0.00448503,-0.00489042 0,-0.00198922 -0.00127667,-0.00448279 -0.00326179,-0.00448279 -0.00280007,0 -0.00448506,0.00200611 -0.00448506,0.00489031zm0.00815455 0.00163016l0 0.000407558c0,0.00375821 0.00489269,0.00276576 0.00489269,0l0 -0.00122264c0,-0.000950304 -0.00108791,-0.00203761 -0.00203866,-0.00203761 -0.00190334,0 -0.00285402,0.000950234 -0.00285402,0.0028527zm-0.0436265 -0.00244524c0,0.00212745 0.00285399,0.00236877 0.00285399,-0.000407453 0,-0.00211741 -0.00285399,-0.00233768 -0.00285399,0.000407453zm0.00366952 -0.00203761c0.00110053,0 0.00163086,-0.00108493 0.00163086,-0.00203761 0,-0.00103856 -0.000881591,-0.00244524 -0.00203866,-0.00244524 -0.00254871,0 -0.00195827,0.00448286 0.000407803,0.00448286zm0.000815431 -0.00570539c0,0.00288567 0.00448496,0.00350689 0.00448496,0.000407453 0,-0.00137335 -0.000720596,-0.0028527 -0.00203866,-0.0028527l-0.000407733 0c-0.001157,0 -0.00203856,0.00140668 -0.00203856,0.00244524zm0.00448496 -0.00366778l0 0.000814976c0,0.00358522 0.00489265,0.00394228 0.00489265,0 0,-0.00190246 -0.000950654,-0.0028527 -0.00285399,-0.0028527 -0.000950759,0 -0.00203866,0.00108738 -0.00203866,0.00203772z"/>
 </g>
</svg>
