<?xml version="1.0" encoding="UTF-8"?>
<!DOCTYPE svg PUBLIC "-//W3C//DTD SVG 1.1//EN" "http://www.w3.org/Graphics/SVG/1.1/DTD/svg11.dtd">
<!-- Creator: CorelDRAW -->
<svg xmlns="http://www.w3.org/2000/svg" xml:space="preserve" width="1in" height="2in" style="shape-rendering:geometricPrecision; text-rendering:geometricPrecision; image-rendering:optimizeQuality; fill-rule:evenodd; clip-rule:evenodd"
viewBox="0 0 0.177101 0.265711"
 xmlns:xlink="http://www.w3.org/1999/xlink">
 <defs>
  <style type="text/css">
   <![CDATA[
    .fil0 {fill:black}
   ]]>
  </style>
 </defs>
 <g id="Layer_x0020_1">
  <metadata id="CorelCorpID_0Corel-Layer"/>
  <path class="fil0" d="M0.0810861 0.257362c-0.00179255,0.000520103 -0.003659,0.000766823 -0.00554716,0.000766823l-0.0221977 0 -0.0180512 3.29468e-005 -9.04609e-006 -3.29468e-005 -0.0151607 0c-0.0108445,0 -0.0181924,-0.00924882 -0.0181924,-0.0196385l0 -0.0236131c0,-0.0109569 0.00737866,-0.0196382 0.0186745,-0.0196382l0.00293341 0c-0.000587996,-0.00061361 -0.00117656,-0.00123322 -0.00176827,-0.00185816 -0.0130004,-0.0137319 -0.0217675,-0.036737 -0.0217675,-0.0556077l0 -0.00674657c0,-0.0211497 0.00956724,-0.0412984 0.0240991,-0.0565021l-0.00193158 0 0 -0.0744555 0.0326495 0c0.000944793,0 0.00187987,6.15134e-005 0.00279953,0.000184731l1.58069e-005 -8.60807e-005 0.0370629 -0.000164639 0 6.59888e-005 0.00616201 0 -1.61877e-006 -6.85598e-005 0.0195633 8.82708e-005 3.42799e-006 -1.9711e-005 0.0364384 0 0 0.0148193c0,0.00683284 -0.00280429,0.0152269 -0.0047929,0.0218109 -0.000787105,0.00260584 -0.00147927,0.00524149 -0.00213212,0.0078841 -0.000386696,0.00156469 -0.00116418,0.0041153 -0.0012674,0.0057077l0 0.0211427c0.0027164,0.00267374 0.00528034,0.00552049 0.00779421,0.00854589 0.0114472,0.0137757 0.020638,0.034913 0.020638,0.0529746l0 0.00192758c0,0.0236744 -0.00558763,0.0387035 -0.0201108,0.0572403 -0.000838715,0.00107039 -0.00171466,0.00210983 -0.00262546,0.003117l0.00213402 0c0.0100493,0 0.0177108,0.00889735 0.0177108,0.0186745l0 0.024095c0,0.00989204 -0.00594157,0.0180026 -0.0152743,0.0197648l0.000114362 0.000419929 -0.0194419 -6.43701e-005 -0.0169309 0 -4.18977e-006 4.42782e-005 -0.00549955 -1.94253e-005 -0.0160907 0.00755767 -0.000695025 -0.0076169 -0.00288494 -1.01888e-005c-0.000581521,6.69411e-005 -0.000284619,4.45639e-005 -0.00124131,4.45639e-005l-0.00963808 0c-0.00187683,0 -0.00374146,-0.000255861 -0.00553649,-0.000766823zm0.0349942 -0.0064889l-1.99966e-006 2.09488e-005 -0.00051258 -1.80922e-006 -0.00819871 0.00385087 -0.000354131 -0.00388106 -0.00989785 -3.49465e-005c-0.000284714,3.03758e-005 -0.000569808,4.59922e-005 -0.000854332,4.59922e-005l-0.00963808 0c-0.00201118,0 -0.00391477,-0.0004504 -0.00558553,-0.00126988 -0.00155364,0.000814148 -0.0033939,0.00126988 -0.00549812,0.00126988l-0.0210568 0 0 -2.09488e-006 -0.0136651 2.49482e-005 -6.28465e-006 -2.28533e-005 -0.0206904 0c-0.00680647,0 -0.0109367,-0.00604107 -0.0109367,-0.0123828l0 -0.0236131c0,-0.00690597 0.00412359,-0.0123825 0.0114187,-0.0123825l0.0106018 0c0.000163496,0 0.000326707,4.7611e-006 0.000489631,1.40929e-005l0.0110336 -2.9614e-005c-0.00604498,-0.00398809 -0.0105795,-0.00868786 -0.0156909,-0.0140867 -0.0116865,-0.0123441 -0.0197807,-0.0335589 -0.0197807,-0.0506194l0 -0.00674657c0,-0.0253763 0.015426,-0.0496055 0.0367092,-0.0637578l-0.0145417 0 0 -0.0599441 0.0253938 0c0.00340447,0 0.0062239,0.00118056 0.00830783,0.00313433l0.000560572 -0.00306253 0.0237541 -0.000105506 0 3.37086e-005 0.0199049 0c0.000318327,0 0.000632084,8.76042e-006 0.000941174,2.59956e-005l-1.42833e-006 -6.09421e-005 0.018238 8.22718e-005 8.18909e-006 -4.73253e-005 0.0230747 0 0 0.00756358c0,0.00545851 -0.0028458,0.0142925 -0.00448296,0.0197129 -0.000819004,0.00271135 -0.00155098,0.00549231 -0.00223019,0.00824146 -0.000481157,0.001947 -0.00139434,0.00529625 -0.00147927,0.00725963l0 0.0171665 -0.00931271 0c0.000633321,0.000419358 0.00121903,0.000818243 0.00174685,0.00118828 0.00666164,0.0046694 0.0118565,0.00992708 0.0170353,0.0161597 0.0103221,0.0124216 0.0189628,0.0319657 0.0189628,0.0483373l0 0.00192758c0,0.0222911 -0.00518179,0.0356817 -0.0185664,0.0527653 -0.00280353,0.00357787 -0.00607688,0.00675457 -0.00971445,0.00947868 -0.00382116,0.0028619 -0.00526321,0.00348731 -0.00791,0.00536909l0.0228443 0c0.00603546,0 0.0104551,0.0056759 0.0104551,0.0114187l0 0.024095c0,0.00715936 -0.00436898,0.0128647 -0.0119007,0.0128647l-0.00551811 0 8.95087e-006 3.28516e-005 -0.00992413 -3.28516e-005 -0.0235391 0zm-0.070419 -0.20948l0.00530082 0 0 0.0106018 -0.00530082 0 0 -0.0106018zm0 -0.0187942l0.00385506 0c0.00111038,0 0.00144576,0.000335467 0.00144576,0.00144576l0 0.00915617c0,0.00111038 -0.000335372,0.00144566 -0.00144576,0.00144566l-0.00385506 0 0 -0.0120476zm-0.00867434 0.0371065l0.0168664 0c0.00289875,0 0.00626475,-0.00189911 0.00626475,-0.00433717l0 -0.0134933c0,-0.00257528 -0.000420786,-0.0041314 -0.00289123,-0.00433717 0.00099307,-0.00135501 0.0024094,-0.00171333 0.0024094,-0.00433689l0 -0.0125294c0,-0.00332906 -0.00154421,-0.00578293 -0.00481918,-0.00578293l-0.0178301 0 0 0.0448169zm0.0377366 -0.0274473l9.50315e-005 1.29502e-005 0.0021663 0.0149049 -0.00439573 -8.28431e-006 0.0021344 -0.0149096zm-0.0129168 0.0274034l0.00930176 3.29468e-005 0.000575236 -0.00577198 0.00621752 5.52288e-006 0.000526387 0.0057716 0.00819499 -0.00384944c0,-0.00544784 -0.00225981,-0.0149411 -0.00325764,-0.0198736 -0.000813577,-0.00402161 -0.00348903,-0.0166968 -0.00348903,-0.0196421l0 -0.00144595 -0.00988071 4.38973e-005 -0.00818852 0.0447291zm0.0373453 -0.0182684l0.00385554 0c0.00111029,0 0.00144557,0.000335372 0.00144557,0.00144604l0 0.00867396 -0.0053011 0 0 -0.01012zm0 -0.018312l0.0053011 0 0 0.00915598c0,0.00130149 -0.000230152,0.00132844 -0.000482014,0.0024095l-0.00481909 0 0 -0.0115655zm0.0110838 0.0144567c0.00105344,-0.00143766 0.00289142,-0.00180684 0.00289142,-0.0048188l0 -0.0115656c0,-0.00388801 -0.00183159,-0.00626485 -0.00578283,-0.00626485l-0.0173482 0 0 0.0395159c0.00168286,-0.000392124 0.0016223,-0.000963647 0.00337314,-0.000963647l0.00433708 0c0.00409321,0 0.00981805,0.00290075 0.0106018,0.00626465 0.00250491,-0.000583616 0.00481899,-0.00179589 0.00481899,-0.00481909l0 -0.0149388c0,-0.00154707 -0.00134025,-0.00228057 -0.00289142,-0.00240978zm0.019276 -0.00337305l0 0.000963837 -0.000963742 0 0 -0.000963837 -0.00357701 -0.0192358 -0.00895239 -4.03741e-005c8.09387e-005,0.00363843 0.00293655,0.0130526 0.00394838,0.0167735 0.000545336,0.00200757 0.00424395,0.0153982 0.00424395,0.0164777l0 0.0115657 0.00963799 0 0 -0.00963808c0,-0.00321984 0.00300549,-0.0142528 0.00403256,-0.017653 0.00111657,-0.0036968 0.00415987,-0.0137493 0.00415987,-0.0175258l-0.00915617 0 -0.00337343 0.0192762zm-0.0406016 0.052511c0.00281105,-0.00178436 0.00445915,-0.00745674 0.00445915,-0.0120314l0 -0.000481918c0,-0.00620771 -0.00560667,-0.0134932 -0.0115658,-0.0134932 -0.00235351,0 -0.00338581,0.000507152 -0.00433717,0.00192748 0.00288742,0.00431184 0.0134899,0.00840391 0.0120476,0.0192762l-0.000603803 0.0048029zm-0.0119254 0.0207379l-0.000482109 0c-0.00166124,0 -0.00186597,0.000356416 -0.00337333,0.000481728l0 0.000964027 0.00144585 0c0.00112371,0 0.00240959,0.00128569 0.00240959,0.0024095l0 0.000963742c0,0.0022061 -0.00128312,0.00337314 -0.00337343,0.00337314 -0.00239379,0 -0.00275458,-0.00162487 -0.00385525,-0.00289132 0,0.00469283 0.0019769,0.00867425 0.00626465,0.00867425l0.00144566 0c0.00346922,0 0.00626475,-0.0035035 0.00626475,-0.00722859l0 -0.000481728c0,-0.00335905 -0.00321536,-0.00626475 -0.00674638,-0.00626475zm0.03807 0.00963789l0 -0.00289142c0,-0.0025968 -0.00259575,-0.00578274 -0.00530091,-0.00578274l-0.00385516 0c-0.00136091,0 -0.0018593,0.00110572 -0.00240959,0.00192739 0.00015426,-5.97042e-005 0.00180608,-0.000481538 0.00192786,-0.000481538 0.000759776,0 0.00289123,0.00162906 0.00289123,0.00289123l0 0.000963932c0,0.00184845 -0.00139053,0.00337314 -0.00289123,0.00337314l-0.000482109 0c-0.0026068,0 -0.00268288,-0.0015425 -0.00385516,-0.00289142 0,0.00449562 0.00315023,0.00819252 0.00722849,0.00819252 0.00251158,0 0.00674657,-0.00307748 0.00674657,-0.0053011zm-0.0207216 0.0125294c0.0028619,0 0.00458532,-0.00345722 0.0048188,-0.00626465 -0.00191177,0.00140081 -0.0019392,0.00385516 -0.00578264,0.00385516 -0.00120284,0 -0.00329087,-0.00127836 -0.00530091,-0.00144566 7.5511e-005,0.00339305 0.00284895,0.00385516 0.00626475,0.00385516zm-0.0134933 0.0245771l-0.00144576 0.00144566c0.000603993,0.00114124 0.0024095,0.00475891 0.0024095,0.00626465l0 0.00144595 0.000398314 0.000375365 0.00297493 -0.00374898 0.00337343 0c0.00187806,0 0.00127874,-0.0024095 0.00626475,-0.0024095l0 -0.00385516c0,-0.000591043 -0.00218163,-0.00448829 -0.0024094,-0.0072284 0.000502106,-0.000750064 0.000638654,-0.00144585 0.00192758,-0.00144585l0.000481823 0c0.00165591,0 0.00275944,0.00221305 0.00337333,0.00337352l0.000963647 -0.00144585 -0.00203194 -0.00428185c0.00399932,-0.000142071 0.0109408,-0.00502277 0.0135977,-0.0068019l0.00191339 0.000990213 -0.00454656 -0.00836601 0.000771203 0.0054346c-0.00231961,0.00337962 -0.0117894,0.00820595 -0.017414,0.00820595l-0.00289151 0c-0.00444639,0 -0.0134931,-0.00526882 -0.0134931,-0.00867406 0,-0.000397552 0.00300892,-0.00393676 0.00337305,-0.00530101l-0.00796408 0.00517122 -0.000228152 0.000611516 0.00337333 0c0.000442782,0.00532129 0.00805349,0.0106017 0.0139752,0.0106017l0.00337333 0 0 0.00433727c0,0.00348703 0.00184693,0.00408931 0.00192748,0.00771041l-0.0110837 0 -0.000963742 -0.0024095zm-0.0166153 -0.00356435c0.0025928,0.00177294 0.00547793,0.00520664 0.00890478,0.00549183 0,0.0151577 0.00437821,0.0237741 0.0134932,0.0298779 0,0.00594185 -0.000657603,0.0114454 0.00144585,0.0154207 -0.00839696,0 -0.0154185,-0.000473158 -0.0212741,-0.00282095 -0.00381869,-0.00153098 -0.0135287,-0.00602403 -0.0153505,-0.00874471 0.000311757,-0.00374603 0.0014667,-0.0102362 0.00240293,-0.0134997 0.000761205,-0.0026545 0.0038184,-0.00961018 0.00386201,-0.0115589l-0.000446972 -0.000199585 -0.00992727 0.0222538 -0.00754482 -0.00670648 0.0244348 -0.0295139zm0.0349274 -0.00366424l-0.000963647 0.00144585 0.00213907 0.010073 0.00431803 0.00316042c0.0012535,-0.000505343 0.00397209,-0.00311376 0.00510847,-0.00311376l0.000481918 0c0.00111057,0 0.00144576,0.000335562 0.00144576,0.00144576l0 0.000964027c0,0.0018016 -0.00332839,0.00268659 -0.00336686,0.00819871 -2.73287e-005,0.00392324 -0.00179017,0.00581206 -0.00337981,0.00818585 0.00340628,0.000909656 0.0107358,0.00593928 0.0110837,0.01012l0.000963837 0 0 -0.00289142c0,-0.00230513 -0.00642815,-0.00718736 -0.00867425,-0.0077106 0.000154641,-0.00185921 0.00146547,-0.00526397 0.0019491,-0.00913426 0.000379745,-0.00303444 0.00335181,-0.00312109 0.00335181,-0.00773231l0 -0.00192758c0,-0.00112809 -0.000799674,-0.00192758 -0.00192758,-0.00192758l-0.000482109 0c-0.00248815,0 -0.0051557,0.00230799 -0.00674638,0.00337343l-0.00141119 -0.000571713 -3.43751e-005 -0.00135606c0.00202442,-0.000471539 0.00764575,-0.00289123 0.00915588,-0.00289123l0.000481823 0c0.00200671,0 0.00841648,0.00947687 0.00948544,0.0117182 0.00100497,0.00210631 0.00448991,0.013755 0.00448991,0.0162321 0,0.0106949 -0.00610125,0.024095 -0.0168667,0.024095 -0.00341742,0 -0.0117392,-0.0053112 -0.0140687,-0.00713498 -0.00600232,-0.00469835 -0.00394733,-0.012634 -0.00595137,-0.0152524 -0.00226581,-0.00296064 -0.00725192,-0.00263451 -0.0109948,-0.0102091 -0.00196814,-0.00398333 -0.00368185,-0.0116686 -0.00368185,-0.0175212l0 -0.000482014c0,-0.00112362 0.00128559,-0.0024095 0.00240921,-0.0024095 0.00150746,0 0.00136539,0.000865092 0.00192767,0.00192767l0.00144576 -0.00144566c-0.000854427,-0.00161477 -0.00136529,-0.00289151 -0.00385506,-0.00289151 -0.00182036,0 -0.00291208,0.00117342 -0.00433708,0.00192739 -0.00903142,-0.00604745 -0.0101147,-0.00635616 -0.0154209,-0.0163843 -0.00168314,0.000392029 -0.00162277,0.000963742 -0.00337352,0.000963742l-0.000963647 0c-0.00319375,0 -0.00674657,-0.00536538 -0.00674657,-0.00819242l0 -0.0024095c0,-0.00130083 0.00128283,-0.00192767 0.0024094,-0.00192767 0.00221505,0 0.00380012,0.000898419 0.00385535,0.00337333 0.00155231,-0.0022341 -0.000481918,-0.0107321 -0.000481918,-0.0154207l0 -0.000481918c0,-0.0106984 0.0043126,-0.0179635 0.00895563,-0.0242953 0.00278753,-0.00380145 0.0136044,-0.0140386 0.0180307,-0.0152207 0.000559524,0.00209546 0.00192767,0.00197329 0.00192767,0.00578293 0,0.00075911 -0.0012935,0.0044363 -0.00144576,0.00626475 0.00186683,-0.000987833 0.00530091,-0.00322564 0.00530091,-0.00578274l0 -0.00240959c0,-0.00435564 -0.00647386,-0.0139752 -0.0096378,-0.0139752l-0.00144585 0c-0.00200176,0 -0.00289142,0.00301473 -0.00289142,0.00530101l0.00289142 0.00192748 0.00141129 0.000571998 3.45656e-005 0.000873662c-0.0100899,0.00235075 -0.0265048,0.0203766 -0.0265048,0.0332514l0 0.00915588c0,0.00394495 0.000745112,0.00566666 0.00144576,0.00867425 -0.00197805,-0.000460684 -0.00313804,-0.00144566 -0.00578274,-0.00144566 -0.000132263,0 -0.000880518,0.000332039 -0.00144585,0.000481918 -0.000164829,0.00198024 -0.000481823,0.00107639 -0.000481823,0.00289142 0,0.00349903 0.00160801,0.00873586 0.00307005,0.0109052 0.000956314,0.00141824 0.00601574,0.00547936 0.00801369,0.00547936l0.00144547 0 -0.000442497 0.00030233 0.00527768 0.00772641 0.000649795 -0.00016502 -0.0230269 0.0276355c-0.00372775,-0.00246454 -0.00892306,-0.013248 -0.0110406,-0.0184822 -0.00264812,-0.00654565 -0.00418663,-0.0161593 -0.00418663,-0.0252093 0,-0.0165805 0.00770146,-0.0323116 0.0157816,-0.0410827 0.00481604,-0.00522788 0.00945659,-0.00887355 0.0157375,-0.0126948 0.00312614,-0.00190177 0.0057696,-0.00317023 0.00928862,-0.00468625 0.00203156,-0.000875376 0.00932147,-0.00309729 0.0102737,-0.00370166l-0.00342713 -0.00233703 0.00117504 -0.00485518c-0.0275839,0.00635359 -0.0560579,0.0343497 -0.0560579,0.06743l0 0.00674657c0,0.0175874 0.00911979,0.0363463 0.0177098,0.0454194 0.00530358,0.005602 0.00984167,0.0104703 0.0168291,0.0144945 0.0037845,0.00217954 0.00631769,0.00351083 0.0104326,0.00547003 0.00294112,0.00140062 0.00962418,0.00281324 0.011411,0.0040098l0.0134584 0.00171066 0.00919111 -0.000264908 0.00722068 -0.000563619c0.00131187,0.00254624 0.00297778,0.00490079 0.00675429,0.00490079l0.00192767 0c0.0042549,0 0.00840125,-0.00332629 0.0108729,-0.00551183 0.00334705,-0.00295921 0.00491717,-0.00787619 0.00671686,-0.0096676 0.00050601,-0.000503724 0.00814624,-0.00554516 0.00968627,-0.00669858 0.00313756,-0.0023497 0.00591805,-0.00505648 0.00829479,-0.00808977 0.0103195,-0.0131714 0.0169565,-0.0246924 0.0169565,-0.0481002l0 -0.00192758c0,-0.0163449 -0.00961904,-0.0343606 -0.0172164,-0.0435033 -0.00484899,-0.00583558 -0.00938013,-0.0104688 -0.0155596,-0.0148003 -0.00355845,-0.00249472 -0.0153336,-0.00971874 -0.0202331,-0.0101264l0 0.0024094c0,0.00161344 -0.000758919,0.00286666 -0.00144585,0.00385516 0.000696739,0.00192425 0.00680571,0.00344837 0.00900162,0.00449172 0.00316242,0.00150241 0.00580911,0.00297121 0.00863673,0.0048567 0.00609173,0.00406093 0.00929405,0.00771365 0.0140431,0.0129431 0.00712479,0.00784591 0.015063,0.0240934 0.015063,0.0389097l0 0.00578312c0,0.0185898 -0.0131485,0.0426247 -0.0245771,0.048672 0,-0.00736971 -0.00201756,-0.0144595 -0.00455932,-0.0195356 -0.00165363,-0.00330287 -0.00924129,-0.0135446 -0.00941565,-0.0141976 0.00640092,-0.00149108 0.0130568,-0.0117488 0.0153642,-0.0178868 0.00166972,-0.0044422 0.00167162,-0.0092093 0.00281781,-0.0135668 0.000772917,-0.00293722 0.00543118,-0.00532977 0.00543118,-0.0109537l0 -0.0024094c0,-0.00132987 -0.00238912,-0.00289113 -0.00337343,-0.00289113l-0.00337314 0c-0.00198271,-0.00851066 -0.00476491,-0.0139375 -0.00934699,-0.020049 -0.00166458,-0.0022202 -0.00528815,-0.00580797 -0.0074296,-0.0075094 -0.00256918,-0.00204146 -0.00692092,-0.00409074 -0.00876423,-0.00569304l-0.00190911 -0.000540956c0.000615515,-0.00231608 0.00239093,-0.00309414 0.00239093,-0.00668744l0 -0.0024094c0,-0.00326202 -0.00692749,-0.00674676 -0.0110835,-0.00674676l-0.00192777 0c-0.00423338,0 -0.01285,0.0030034 -0.0149391,0.00481899 0.00949373,0 0.0183124,0.00565571 0.0183124,0.0144571l0 0.00530091c0,0.00613982 -0.00663945,0.010936 -0.00867434,0.0139751 0.0054248,-0.00126379 0.0139485,-0.0122028 0.0144571,-0.0183122 0.012978,0.00622723 0.0228848,0.0172312 0.0265048,0.0327693 0.00150727,-0.000125217 0.00171162,-0.000482014 0.00337314,-0.000482014 0.00112676,0 0.0024094,0.000626942 0.0024094,0.00192786l0 0.00192748c0,0.00300006 -0.0027402,0.00661031 -0.00481871,0.00771051 0,0.0182617 -0.0152337,0.0322488 -0.0298782,0.0356607l-0.0024095 -0.00819252zm-0.0303597 0.0828869l0.00385544 0 0 0.00771041 -0.00385544 0 0 -0.00771041zm0 -0.0139751l0.00385544 0 0 0.00867425 -0.00385544 0 0 -0.00867425zm0.00867415 0.0101201c0.0010424,-0.000472492 0.00144576,0.000209393 0.00144576,-0.00144585l0 -0.0110837c0,-0.00224971 -0.00112362,-0.00337324 -0.00337324,-0.00337324l-0.0134932 0 0 0.0332511 0.0134932 0c0.00287228,0 0.00385516,-0.0019451 0.00385516,-0.00481909l0 -0.00963799c0,-0.00146413 -0.000835954,-0.0016361 -0.00192767,-0.00192767l0 -0.000963551zm0.0115657 -0.0101201l0.00240969 0c0.00111048,0 0.00144557,0.000335372 0.00144557,0.00144557l0 0.0187943c0,0.00111048 -0.000335086,0.00144557 -0.00144557,0.00144557l-0.00240969 0 0 -0.0216855zm-0.00674657 0.0236131c0,0.00248672 0.00200642,0.00385535 0.00433708,0.00385535l0.00963808 0c0.00116618,0 0.00337333,-0.00220734 0.00337333,-0.00337343l0 -0.0250588c0,-0.00287418 -0.000982881,-0.0048189 -0.00385525,-0.0048189l-0.0106019 0c-0.00116028,0 -0.00289132,0.00173075 -0.00289132,0.00289142l0 0.0265044zm0.0467445 -0.0236131l0.00337333 0 0.000511437 0.0115653 -0.00436669 2.85666e-007 0.000481918 -0.0115656zm0.00771041 0.0168666c0.00170504,-0.000455256 0.00289142,-0.00119047 0.00289142,-0.00337333l0 -0.0149389c0,-0.00233084 -0.00136853,-0.00433708 -0.00385506,-0.00433708l-0.0134932 0 0 0.0332511 0.00674648 0 0 -0.0106018 0.000963647 0 0.00296112 0.0105797 0.00667706 2.20915e-005 -0.00289142 -0.0106018zm0.0120476 -0.0168666l0.00385516 0 0 0.0216855 -0.00385516 0 0 -0.0216855zm0.00626465 0.0274684c0.00312014,0 0.00433717,-0.00216582 0.00433717,-0.00530101l0 -0.024095c0,-0.00176113 -0.00132997,-0.00385516 -0.00289151,-0.00385516l-0.0144569 0 0 0.0332511 0.0130112 0zm-0.131559 -0.0274684l0.00385535 0 0 0.0216855 -0.00385535 0 0 -0.0216855zm-0.00674638 0.0226493c0,0.00249158 0.00120675,0.00481909 0.00337314,0.00481909l0.01012 0c0.00233084,0 0.00385516,-0.00152431 0.00385516,-0.00385535l0 -0.0265044c0,-0.00116066 -0.00173104,-0.00289142 -0.00289132,-0.00289142l-0.0106018 0c-0.00287256,0 -0.00385516,0.00194472 -0.00385516,0.0048189l0 0.0236131zm0.0265044 -0.00722849l0.00332372 0.0120601 0.00679628 -1.24741e-005 0 -0.0332511 -0.00674648 0 0 0.0120475 -0.00330706 -0.0120644 -0.00633112 1.69495e-005 0 0.0332511 0.00626465 0 0 -0.0120476zm0.068296 -0.00551821l6.09421e-005 8.37954e-006 0.00138662 0.00954096 -0.00281362 -5.23721e-006 0.00136605 -0.0095441zm-0.00826813 0.0175416l0.00595414 2.10441e-005 0.000368319 -0.00369461 0.0039799 3.14233e-006 0.000337086 0.00369461 0.00524568 -0.00246387c0,-0.00348751 -0.0014468,-0.00956419 -0.00208527,-0.0127218 -0.000520864,-0.00257395 -0.00223343,-0.0106875 -0.00223343,-0.0125732l0 -0.000925463 -0.00632483 2.84714e-005 -0.00524159 0.0286317z"/>
 </g>
</svg>
