<?xml version="1.0" encoding="UTF-8"?>
<!DOCTYPE svg PUBLIC "-//W3C//DTD SVG 1.1//EN" "http://www.w3.org/Graphics/SVG/1.1/DTD/svg11.dtd">
<!-- Creator: CorelDRAW -->
<svg xmlns="http://www.w3.org/2000/svg" xml:space="preserve" width="1in" height="2in" style="shape-rendering:geometricPrecision; text-rendering:geometricPrecision; image-rendering:optimizeQuality; fill-rule:evenodd; clip-rule:evenodd"
viewBox="0 0 0.0714054 0.0612545"
 xmlns:xlink="http://www.w3.org/1999/xlink">
 <defs>
  <style type="text/css">
   <![CDATA[
    .fil0 {fill:black}
   ]]>
  </style>
 </defs>
 <g id="Layer_x0020_1">
  <metadata id="CorelCorpID_0Corel-Layer"/>
  <path class="fil0" d="M0.0380916 0.00519266c0,-0.0063733 0.00526128,-0.00296814 0.00526128,-0.00133327l0 0.000701721c0,0.00194273 -0.00152769,0.0032514 -0.00182389,0.00406993l-0.00035079 0c-0.000246211,-0.00092244 -0.0030866,-0.00240985 -0.0030866,-0.00273666l0 -0.000701721zm0.00266573 -0.00519266l-0.00133289 0c-4.23146e-005,0.000116946 -0.000906519,0.000452051 -0.00127494,0.000899932 -0.000359366,0.000436888 -0.000546868,0.000876098 -0.00079815,0.00144713 -0.000428074,0.000972857 -0.000600365,0.0026255 -0.00064993,0.00385561 -3.79078e-005,0.000941015 0.00165316,0.00151688 0.00239165,0.00205816 0.000893014,0.000654431 0.00161909,0.00230679 0.00194486,0.00254556 0.00100811,-8.39185e-005 0.00357765,-0.00418872 0.00357765,-0.00554355l0 -0.00161393c0,-0.00198604 -0.00385798,-0.00364811 -0.00385826,-0.00364891zm-0.0217466 0.00673641c-2.04228e-005,0.000245643 -0.00202494,0.00231356 -0.00236194,0.00275988 -0.000481287,0.000637326 -0.00167131,0.00248751 -0.00272562,0.00214326 -0.00321245,-0.00104877 -0.00154147,-0.00511363 0.00150992,-0.00511363l0.00224481 0 0.00133284 0.000210483zm-0.00329708 -0.00161393c-0.00187132,0.000450866 -0.00209976,-0.000104957 -0.00353074,0.00131 -0.000721623,0.000713568 -0.00152328,0.00180332 -0.00146253,0.00324861 0.000108322,0.00257769 0.00367043,0.00458945 0.00547313,0.00265781 0.0016797,-0.00179982 0.00249002,-0.00344999 0.00461409,-0.00506823 0.00163515,-0.00124575 0.00153181,-0.0011487 -0.000808811,-0.00173315 -0.000840512,-0.000209867 -0.00335323,-0.000639553 -0.00428515,-0.000415043zm0.0183092 0.00603474c0.000420303,0.000112255 -6.97978e-005,0.000163146 0.000676228,0.000446317 0.000260853,9.89868e-005 0.000627138,0.000197405 0.000879794,0.000312834 0.000588235,0.000268767 0.000896236,0.000555966 0.00130109,0.00101413 5.53928e-005,6.26901e-005 0.00242421,0.00350728 0.00184123,0.000719254 -0.000706981,-0.0033811 -0.00469835,-0.00467536 -0.00469835,-0.00249254zm-0.0165555 0.00561368c0.000571366,0.000133151 0.00235645,-0.00125124 0.00336129,-0.00161985 0.000890834,-0.000326766 0.00301088,-0.00133274 0.00204371,-0.00251741 -0.000818951,-0.00100314 -0.00186507,0.000786682 -0.00306134,0.00135914 -0.000831888,0.000398127 -0.00226864,0.00187658 -0.00234365,0.00277812zm0.0167659 0.00399975c0.000248533,-0.00106706 -0.00214075,-0.00189459 -0.00315678,-0.00189459l-0.00154328 0c-0.00255873,0 -0.00729006,0.00447838 -0.00329348,0.00245984 0.000974468,-0.000492186 0.00250026,-0.00122656 0.00378079,-0.00130024 0.00170599,-9.82287e-005 0.00277054,0.00061496 0.00421275,0.000734986zm0.00596276 -0.00126304c-0.000657654,-0.000315678 -0.00108611,0.000288858 -0.00164387,-3.37854e-005 -0.000286441,-0.000165657 -0.000423336,-0.000794406 -0.000903391,-0.00107502 -0.000999961,-0.000584539 -0.00226225,0.000288479 -0.00197723,0.00154408 0.000332641,0.00146523 0.000878941,0.00162719 0.00197325,0.0009449 0.000780001,-0.000486358 0.00255125,-0.000504601 0.00255125,-0.00138018zm-0.017257 0.00421023c0,-0.000950065 -0.00040713,-0.000572882 -0.000150162,-0.00148371 0.000172623,-0.000611833 0.00031255,-0.000930448 -0.000110028,-0.00148144 -0.00105815,-0.00137956 -0.00204584,0.000311982 -0.00238407,0.000463471 -0.00134151,0.000600744 -0.00189838,-0.00011922 0.000249007,0.00110843 0.00063325,0.00036202 0.00155806,0.00139326 0.00239525,0.00139326zm0.00694491 -0.00224547c-0.00134715,0.000324538 -0.00392763,0.000438973 -0.00330391,0.00258792 0.000312266,0.00107582 0.00193349,0.00269259 0.0032215,0.00281319 0.0035739,0.000334631 0.00477222,-0.00653095 8.24022e-005,-0.00540111zm-0.00883627 0.00841786c0.000721149,0.000696557 0.00158095,0.00141046 0.00238483,0.00203527 0.00118751,0.000922961 0.00381438,0.00308992 0.00574991,0.00308992l0.000982145 0c0.00388413,0 0.00772031,-0.00507069 0.00855831,-0.00821003l0.000982097 0.000280708c0.000193662,-0.000831461 -0.00080014,-0.00143576 -0.00143917,-0.00172556 -0.00175731,-0.000797012 -0.00163828,0.000813313 -0.000735459,0.000813313 -0.000254125,0.00305438 -0.00410703,0.00778902 -0.00729565,0.00778902l-0.00105227 0c-0.00162283,0 -0.00699802,-0.00391967 -0.00722547,-0.00477165l0.000634103 -6.77603e-006c-4.08457e-005,-0.00177466 -0.00370829,-0.000835299 -0.00449236,-0.000835299 2.17022e-005,0.000974184 0.00189473,0.000522796 0.00294899,0.0015411zm-0.0151551 -0.00273396l0 -0.000842075c0,-0.00291222 0.00346828,-0.00430927 0.00473711,-0.0023527 0.000346099,0.0005336 0.000757162,0.00247543 0.00111032,0.00331016 0.000569755,0.00134677 0.000790994,0.00176513 0.00158673,0.00290374 0.00156934,0.00224552 0.00186729,0.0036175 0.000624295,0.00651532 -0.0003343,0.00077929 -0.00265687,0.00582866 -0.00265687,0.00625408l0 0.00182441c0,0.00178897 0.00266568,-0.00272358 0.00266568,-0.000701674l0 0.00133322c0,0.00140311 -0.0060725,0.0032279 -0.00820757,0.0032279l-0.000210436 0c-0.00241539,0 -0.00434931,-0.00144258 -0.00434931,-0.00392957l0 -7.01769e-005c0,-0.00239289 0.000955372,-0.00363617 0.00199945,-0.00501706 0.000364057,-0.000481524 0.00304945,-0.00360873 0.00333196,-0.00368417l4.44469e-005 -7.21197e-005 0.00207735 0.00128062 5.28814e-005 -8.57665e-005c0.000108227,-0.00130123 -0.000411963,-0.00262474 0.000793601,-0.00223073 0.00168951,0.00055208 0.00162971,-0.00014097 0.00101858,-0.00161682 -0.00049683,-0.00119974 -0.00368384,-0.00254816 -0.00377643,-0.00366081l-0.000210436 0c-1.14197e-005,-0.000511851 -0.000631355,-0.00127498 -0.000631355,-0.00238578zm-0.00126271 -0.00105261l0 0.0016841c0,0.000730816 0.00138397,0.00290123 0.0018146,0.00337754 0.000418929,0.000463329 0.00286119,0.00233062 0.00288545,0.00237654l-4.87116e-005 8.78988e-005 -0.00312275 -0.00173168 -0.000129977 0.000135757 0.000857807 0.00178882 -0.000292222 0.000140212c-0.001388,0.00207342 -0.00659412,0.0062783 -0.00659412,0.00940294l0 0.00231565c0,0.00201859 0.0029924,0.0041401 0.00505084,0.0041401l0.00105223 0c0.00258882,0 0.00571456,-0.0013644 0.00741174,-0.00233986 0.00128915,-0.000740909 0.00191212,-0.000986125 0.00165615,-0.00307357 -0.00012249,-0.000998587 -0.000341455,-0.00367943 -0.000860271,-0.00405969l-8.11228e-005 -5.20759e-005 -0.00160251 0.00236772c2.07072e-005,-0.00092969 0.0032269,-0.00603118 0.0032269,-0.00856087l0 -0.0016841c0,-0.000834636 -0.00198585,-0.00338427 -0.00232162,-0.00413347 -0.000596954,-0.00133208 -0.00120064,-0.00361281 -0.00179977,-0.00472559 -0.00184673,-0.00343014 -0.00710265,-0.00105057 -0.00710265,0.00254362zm0.0275204 0.0122148c0.00055426,-0.000554402 -0.00138098,-0.00109013 -0.00188061,-0.00130303 -0.000516494,-0.000220055 -0.00186919,-0.0012448 -0.00206934,-0.00129825 0,0.001917 0.00325003,0.00330144 0.00394995,0.00260128zm-0.0160859 -0.021337c0,-0.00441328 0.00743965,-0.0103151 0.0125569,-0.0103151 0.00376088,0 0.00904889,0.00158782 0.0102455,0.00399615 0.000892445,0.00179607 0.000816203,0.00379093 0.00165449,0.00550247 0.00118988,0.00242923 0.00233418,0.00202153 0.00369379,0.00339242 0.00351989,0.00354898 -0.000155564,0.00651157 -0.00161312,0.00958457 -0.00161364,0.00340213 -0.00263839,0.0064793 -0.00499388,0.00917915 -0.00098603,0.00113017 -0.0069413,0.00578279 -0.00878751,0.00534662 -0.00111918,-0.000264455 -0.00130351,-0.000775263 -0.00170509,-0.00188317 -0.000342355,-0.000944426 -0.0010789,-0.0011669 -0.00180598,-0.00170201 -0.00139169,-0.00102422 -0.00275254,-0.00188767 -0.00414897,-0.00293705 -0.000954756,-0.000717501 -0.00351126,-0.00219648 -0.0034942,-0.00366223 2.86204e-005,-0.00246102 -0.000819947,-0.0037977 -0.00185469,-0.00523209 -0.00104711,-0.00145144 -0.00136748,-0.00325358 -0.00206498,-0.0050697 -0.000527535,-0.00137345 0.00171993,-0.000356049 0.00210734,-0.000165373 0.000379221,0.000186696 0.00204802,0.00109483 0.00238502,0.00112288 0.000165847,-0.00199343 -0.00217463,-0.00449525 -0.00217463,-0.00554355l0 -0.00161393zm0.000491049 0.00505231c-0.000599323,-0.000317194 -0.00150224,-0.000716979 -0.00242402,-0.000733232 -0.001367,-2.40715e-005 -0.00152953,0.000724229 -0.00213578,0.000943763l0 0.00028066c0.000476075,0.00019224 0.00186085,0.0050281 0.0024804,0.00593945 0.000541419,0.000796444 0.00117396,0.00174447 0.00158175,0.00263351 0.000460249,0.00100333 7.5484e-005,0.00304324 0.000490385,0.00364413 0.000528625,0.000765596 0.00364877,0.00325183 0.00456121,0.00392811 0.000580132,0.000430017 0.00503966,0.00314825 0.00477601,0.00357296l-2.14179e-005 0.000128081 -0.00110099 -0.000198258c1.43576e-005,0.00064595 0.00227641,0.00184109 0.00285076,0.00220083 0.00149182,0.000934333 0.00210019,0.000461481 0.00361977,-0.000219344 0.00263848,-0.00118206 0.00414489,-0.00218017 0.00615519,-0.00394758 0.00336389,-0.00295747 0.00527412,-0.00843653 0.00748258,-0.0127245 0.00115865,-0.00224964 0.00317118,-0.00385651 0.00127986,-0.00740563 -0.00140766,-0.00264147 -0.00357409,-0.00166648 -0.0048587,-0.00524455 -0.00114643,-0.00319326 -0.000340318,-0.00487883 -0.00330751,-0.00679616 -0.00113534,-0.000733564 -0.00598342,-0.00256257 -0.00739952,-0.00256257l-0.00245524 0c-0.00423805,0 -0.00810702,0.00318213 -0.0101369,0.0055082 -0.00135246,0.00154972 -0.00238426,0.00256598 -0.0028483,0.00501009 -0.000794596,0.00418498 0.00139188,0.00520967 0.00141046,0.00604208zm0.00778665 0.0242793l0 -0.000210531 -0.000140306 0 0 -0.00028066 7.01769e-005 0 0 0.000210483c0.000252893,6.75707e-005 0.000187644,6.39695e-006 0.000210436,0.000280708l-0.000140306 0zm0.0234977 -0.0161478l0.000375382 0.000232517 -0.00783522 0.0118122 0.00745984 -0.0120447zm0.00105488 0.00744662c0,-0.00225623 -0.00040514,-0.0025747 0.000109412,-0.00515338 0.000205413,-0.00102929 0.00118121,-0.0035531 0.00183384,-0.00397592 0.0003796,-0.000246022 -0.00115534,0.00300325 -0.00131607,0.00379211 -0.000316673,0.00155398 -0.000486926,0.00347975 -0.000486926,0.00533719l-0.000140259 0zm0.00146338 -0.0111535c4.59633e-005,-4.32149e-005 0.000467735,-0.000577336 0.000513699,-0.000620504l0.000291464 -0.000273742c0.000303689,-5.65301e-005 -0.000423004,0.000882637 -0.000702669,0.00108071 -0.000271515,0.000192288 -0.000160587,1.75324e-006 -0.000102493,-0.000186459zm-0.00167387 -0.00442451c0,-0.000611738 -0.000379694,-0.000957315 -0.000631355,-0.00133322l0.00103934 0.000261327 0.00233512 0.000842454 -7.24987e-006 0.000229437c-0.000290848,7.77111e-005 -0.000973142,0.000434329 -0.00130531,0.000588946 -0.000368417,0.000171486 -0.000880599,0.000674144 -0.00122006,0.000674144l0 -0.000982382c0,-0.000187691 -0.000101261,-0.000207545 -0.000210483,-0.000280708zm-0.000491049 0.00287702c0,0.000314256 -0.00263943,0.00428226 -0.00300562,0.00492285 -0.000976174,0.00170756 -0.00171419,0.00351856 -0.00263199,0.00529658 -0.00203077,0.00393422 -0.00348401,0.00635004 -0.00718595,0.00867057 -0.00162392,0.00101792 -0.00337185,0.0018617 -0.00550247,0.00242634 -0.00172125,0.000456173 -0.00148603,0.000267582 -0.00281058,-0.000524265 -0.00111975,-0.000669358 -0.00137383,-0.000855011 -0.00233327,-0.00166577 -0.00149926,-0.00126688 -0.00227485,-0.00277737 -0.00386016,-0.00406808 -0.000443048,-0.000360693 -0.00434452,-0.00354149 -0.00444801,-0.00355012l-0.000179825 -2.87626e-005 -0.000360314 0.00225518 0.00011922 1.90487e-005c-0.000533932,4.44469e-005 -0.00105223,0.00104531 -0.00105223,0.00147357l0 0.000701721c0,0.000615955 0.000701485,0.00237232 0.000701485,0.0041401l5.60562e-005 0.000710156 -0.000316057 0.00209981 -7.8564e-005 2.67724e-005 -0.00037415 -0.00072584 4.73848e-005 5.44451e-005 -0.00355685 0.00213971 -5.70039e-005 -9.47696e-005c0,0.00130673 0.00304518,0.0017748 0.00426567,0.00125508 0.00119732,-0.000509813 0.00241795,-0.00282276 0.0029598,-0.00321989 0.000186554,0.000388934 0.000112539,0.00140344 0.000491049,0.00140344l0.000841838 0 5.87572e-006 -9.33007e-005 0.00657668 0.000416039 -1.85275e-005 -0.000154711 -0.0020538 -0.0022332 0.000119694 -0.00011017c0.00121589,0.000324775 0.00112529,0.00280689 0.00666425,0.00280689 0.00269307,0 0.00329632,-0.00113515 0.00501781,-0.00178731 0.000464466,-0.000175987 0.00224955,-0.000749012 0.00265075,-0.000793222 0.00105535,-0.000116377 0.00158796,0.000376093 0.00297742,-3.17478e-005 0.000159734,-4.6911e-005 0.0025358,-0.00319999 0.00309333,-0.00371331 0.00119964,-0.00110459 0.00298794,-0.00159559 0.00464456,-0.00208616 0.00179934,-0.000532842 0.00393246,-0.000686416 0.00551602,-0.00111676 0.00293468,-0.000797486 0.00269212,-0.000213232 0.00388555,-0.00288588 0.000697741,-0.00156261 0.00159995,-0.00291109 0.00274704,-0.00405875 0.00310645,-0.00310792 0.0024416,-0.000497114 0.00426203,-0.000648651 0.00072276,-0.00310328 -0.00201646,-0.00333371 -0.00467593,-0.00269269 -0.00104611,0.000252135 -0.00448895,-0.00200694 -0.00619732,-0.00214914l0.00020655 -0.000176082 -0.00261071 -0.00306423 -0.000225883 0.000258911 -0.00101778 0.000946464c8.98416e-005,-0.00038576 0.00140302,-0.00193666 0.00140302,-0.00224547l0 -0.00105261c0,-0.00125541 -0.00452572,-0.00215473 -0.00577393,-0.00254442 -0.00172367,-0.000538054 -2.57299e-005,0.00135762 0.000268861,0.00201641 0.000121305,0.000271278 0.000801988,0.00347402 0.000804973,0.0034752zm0.0157946 0.00839417l0.000199632 0.000166747c0.000162293,0.000608042 0.00596276,0.00295008 0.00596276,0.00870122 0,0.00499521 -0.00469943,0.00616045 -0.00953529,0.00618021 -0.00235995,9.6665e-006 -0.0053822,0.000204939 -0.00724708,0.000680067 -0.0019722,0.000502468 -0.00393521,0.00163042 -0.00622688,0.00163042 -0.004016,0 -0.0036338,-0.00374473 -0.00135511,-0.00570608 0.00273742,-0.00235621 0.00392199,-0.00184834 0.00779835,-0.00272501 0.00297179,-0.000672059 0.0057148,-0.0011777 0.00802879,-0.00249453 0.00107573,-0.000612212 0.00256314,-0.00111601 0.00266203,-0.0026898 0.000162056,-0.00257911 -0.00165254,-0.000239104 -0.00315426,-0.000308902l0.00286706 -0.00343436zm-0.00120338 0.00423667c-0.00104569,0.000909172 -0.00342019,0.001956 -0.00491674,0.00244975 -0.00217501,0.000717501 -0.00390512,0.000781186 -0.00612993,0.00130635 -0.00197272,0.00046565 -0.0041547,0.000869985 -0.00560899,0.00182754 -0.00104659,0.000689117 -0.00319686,0.00275704 -0.00319686,0.00424032l0 0.00154375c0,0.00142406 0.0022359,0.00294719 0.00406874,0.00294719l0.000631355 0c0.00157758,0 0.00475928,-0.00144164 0.00630047,-0.00176731 0.0018218,-0.000384907 0.00537623,-0.000647276 0.00751779,-0.000619793 0.00235782,3.02315e-005 0.00514722,-0.000590604 0.00660047,-0.00146732 0.00137482,-0.000829424 0.00329206,-0.0027966 0.00329206,-0.0048468l0 -0.00252618c0,-0.00277405 -0.00630483,-0.00927671 -0.00785858,-0.00829836 -0.00153892,0.000969019 -0.00275519,0.00298155 -0.00366991,0.00462561 -0.00234673,0.00421791 0.00126025,0.000623347 0.00297013,0.00058525zm-0.0476737 0.0199586c0.000417365,-0.000458969 0.00118704,0.000287626 0.000587666,0.000799855 -9.52434e-005,8.14071e-005 -0.000190866,0.000152532 -0.000335532,0.000152532 -0.00058615,0 -0.000623063,-0.000544072 -0.000252135,-0.000952387zm-0.0121644 -0.000100171c9.8513e-005,0 0.000491049,0.00016234 0.000491049,0.000350837l0 0.000210531c0,0.000110738 -2.44506e-005,0.000205318 -6.97504e-005,0.000281087 -8.07911e-005,0.000134999 -0.000227968,0.000210104 -0.000421298,0.000210104l-0.000210483 0c-0.000300467,3.55386e-006 -0.000259763,-0.000367185 -0.000227684,-0.000676513 2.37398e-005,-0.000229579 9.31585e-005,-0.000376046 0.00036799,-0.000376046l7.01769e-005 0zm0.00604516 -0.000838569l0.000112728 0.00111525 -0.000543883 8.61456e-005 -1.99016e-006 -0.000222472c0,-0.000256304 0.000183853,-0.000897752 0.000433144,-0.000978923zm0.00602067 -0.0012666c0,-0.000308001 8.42028e-005,-0.000317052 0.000280613,-0.000421014 0.000154664,8.18809e-005 0.000280565,6.12212e-005 0.000280565,0.000280708l0 0.00028066 -0.000527251 0.000333731 -3.39275e-005 -0.000474085zm-0.0119255 -7.01769e-005c0,0.000176461 -0.000240194,0.000400165 -0.000491096,0.000421061 4.90433e-005,-0.000240667 0,-0.000333968 0,-0.000561368 0,-8.54348e-005 0.00014514,-0.000210531 0.000280613,-0.000210531 0.000108085,0 0.000210483,0.000235597 0.000210483,0.000350837zm0.00224481 0.00463134l-2.74358e-005 6.48698e-005 0.00192145 0.000847335 0.000491049 0 0.000336243 -0.00119741 0.00162601 -0.00016651 -5.09387e-005 6.21215e-005 0.000706981 0.00118969c0.000312313,-3.41171e-005 0.00168481,-0.00082151 0.00204513,-0.000782939 0.000609416,6.52489e-005 0.00020873,0.000182621 0.000295397,0.0004104 0.00055715,0.00146334 0.00468294,0.000446128 0.00533539,-0.00114785 0.000821842,-0.0020076 -0.00027232,-0.00223675 -0.000818383,-0.00327614l0.000569802 -0.000934286 -8.42502e-005 -5.14599e-005c0.00127517,0.000106142 0.00196419,0.00364858 0.001955,0.00552166l0.00190326 0.000372729 7.01295e-005 0c0.000628702,-0.000546631 3.97558e-005,-0.00198992 0.000372871,-0.00285493 2.95207e-005,-7.6716e-005 0.00107142,-0.00174442 0.0012139,-0.00194339 0.000343587,-0.000479771 0.00129351,-0.00140103 0.000934665,-0.00199026 -0.000136563,-0.000224177 -0.0015148,-0.00128015 -0.00181991,-0.00135127l-0.00145552 0.00232631 -6.94661e-005 1.89539e-005 -0.00134251 -0.00235024 -7.82323e-005 -7.43468e-005 -0.00138416 0.00121438 5.07017e-005 5.78568e-005 -0.000350742 0c-0.000389503,-0.00145917 -0.0033756,-0.0014323 -0.004643,-0.000855153 -0.000798813,0.000363773 -0.000337664,0.00469792 -0.000337664,0.00583729l-6.59596e-005 3.7434e-005 -0.00376965 -0.00664638 -0.000132962 -3.81448e-005 -0.0027694 0.00600588 -0.000337901 0.000196457c0.000324538,-0.00111951 -0.000195794,-0.00176347 -0.000921255,-0.00229191 1.12302e-005,-0.000504459 0.00160492,-0.00235341 -0.000393531,-0.00326022 -0.000659786,-0.000299377 -0.00394147,-0.000125901 -0.00409608,0.000453378 -0.000119931,0.000189065 1.42154e-007,0.00367806 -4.73848e-008,0.00435064 -5.68618e-007,0.00198703 0.000165894,0.00264459 0.000334442,0.00288768 0.00111918,0.00161407 0.0037796,0.000281418 0.00478658,-0.000642206zm0.0228689 -0.00315772c0,-0.00111425 0.00222462,-0.00247922 0.00216956,-0.000146656 -5.08913e-005,0.00215833 -0.00216956,0.00238753 -0.00216956,0.00133957l0 -0.00119291zm0.00346852 0.00276784c0.000430728,-0.000506496 0.000810659,-0.00101678 0.000810659,-0.00192577 0.000436035,0.000116424 0.000133388,0.0026843 0.000420919,0.00322785l0.000491049 0c0.00142424,-0.00090396 0.00168358,0.00144732 0.00168358,-0.00217529l0.000280613 0c0.000248865,0 0.00191074,0.0014034 0.00273586,0.0014034l0.000338138 -0.00512789 8.27812e-005 5.40187e-006 0 -0.00182446c0,-0.000514267 -0.00189108,-0.000410021 -0.00238511,-0.000421014l-0.000139548 -9.99819e-006 -0.000200959 0.00281257c-0.000388887,-4.4826e-005 -0.00186616,-0.00185251 -0.00227419,-0.00224874 -0.00117879,-0.00114472 -0.000752518,0.00155536 -0.000752518,0.00288455l-7.01769e-005 0c0,-0.00169415 -0.00065391,-0.00357874 -0.00217463,-0.00357874l-0.0011224 0c-0.00127953,0 -0.00306968,0.00225978 -0.0032886,0.00365877 -0.000639458,0.00408623 0.00305168,0.00627408 0.00556454,0.00331935zm0.0123854 -0.00206612c0.000143292,0 0.000491049,0.000227352 0.000491049,0.000421014l0 0.000280708c0,0.000147319 -0.000482662,0.000421014 -0.000491049,0.000421014 -0.00026417,0 -0.00013263,-4.62002e-005 -0.000420872,-7.01769e-005l0 -0.000350837c0,-0.000302315 -9.03154e-005,-0.000701721 0.000350742,-0.000701721l7.01295e-005 0zm0.00596281 -0.00217534c0.00113633,-0.000344345 0.00109407,0.00318307 -0.000498346,0.00323288 -0.00146533,4.57737e-005 -0.00113984,-0.00273642 0.000498346,-0.00323288zm-0.00624337 -0.000140306c0,-0.00023337 0.000125949,-0.000205508 0.000350742,-0.000210531l7.26409e-005 0.000350221 -0.000379505 0.000459964 -0.000101735 -0.000322217c4.09879e-005,-0.000107848 5.78568e-005,-9.75179e-005 5.78568e-005,-0.000277438zm0.00193212 0.00523076c0.000657796,-0.000326339 0.000639884,-0.000863162 0.00108431,-0.00116083 0.00113558,0.00124238 0.00180508,0.00226694 0.00460684,0.000961485 0.00103067,-0.000480198 0.00158715,-0.00163463 0.00174495,-0.00329343 0.000157649,-0.00165728 -0.000421156,-0.00433434 -0.00207261,-0.00433434l-0.00105223 0c-0.00153115,0 -0.00337124,0.00236123 -0.00350752,0.00399975l-5.037e-005 5.77147e-005 -0.000676181 -0.000590415c0.000138269,-0.000452809 0.000805447,-0.000973995 0.000624058,-0.00187374 -7.12667e-005,-0.000353538 -0.000760242,-0.00138278 -0.00116022,-0.00138278l-0.00217468 0c-0.000338564,0 -0.00175376,0.00029407 -0.00175376,0.000561368l0 0.00694694c0,0.00105109 0.00382841,0.000385618 0.00438741,0.000108274zm0.010274 -0.00298529c0.000217781,-8.79462e-005 0.000210436,-0.000253035 0.000210436,-0.000561368 6.28322e-005,9.04102e-005 0.000280613,0.000447929 0.000280613,0.000561368l0 0.000350837 -0.000491049 0 0 -0.000350837zm0.00628507 -0.00217842c0.00121779,7.29726e-006 0.000800756,0.000736597 0.000255072,0.00128237l-0.000229864 0.000111876 -0.000164188 -0.000131066 0.00013898 -0.00126318zm-0.0078284 0.0056168l0.000491049 0c0.000252371,-0.000344535 0.000346288,-0.00133327 0.000701532,-0.00133327l0.0011224 0c0.000318758,0 0.00050588,0.000895336 0.00091192,0.00119291l4.74796e-005 9.94133e-005 0.00220993 -0.00105545 0.000287199 0.000950871 0.0008226 0.000145519 0.00119258 0 7.01295e-005 -0.000701721c5.93258e-005,-0.000353917 -2.9805e-005,-0.000548621 0.000280613,-0.000631545 0.000124717,0.000467214 0.00111269,0.00101982 0.00147315,0.00133327l0.000140306 0 0.00120523 -0.00165202 -0.000125428 -0.000136279 -0.00135345 -0.00109729c7.23566e-005,-0.000288526 0.00253262,-0.00264848 0.00104256,-0.00462002 -0.000800471,-0.0010591 -0.00497792,-0.000489438 -0.00497792,0.000137653 0,0.00191387 0.000126896,0.00369241 0.000161108,0.00568348l-7.22144e-005 2.90943e-005 -0.00380386 -0.00680607 -0.000231901 -3.36432e-005 -0.00351998 0.00750248 0.000129692 0.000179067 0.00179527 0.00081355zm0.0134688 -0.00519266c0.000322359,-8.60982e-005 0.000177124,-0.000210531 0.000420919,-0.000210531l0.000280613 0 0.000277059 0.00049375c3.50648e-006,0.00112212 9.85604e-005,0.00165226 -0.000673622,0.00220652 -0.000457453,0.000328329 -0.000304969,-0.000568239 -0.000304969,-0.00101617 0,-0.000491191 0,-0.000982382 0,-0.00147357zm-0.000771661 0.00519266l0.000280613 0c0.000813171,-0.000516068 0.00102455,0.000102209 0.00243956,-0.0012086 0.000523507,-0.000484936 0.00107402,-0.00154996 0.00132971,-0.00224865 0.00059321,-0.0016208 -1.81484e-005,-0.00482297 -0.00166477,-0.00482297l-0.00133284 0c-0.00245662,0 -0.00269766,0.000472853 -0.00260024,0.00266217 4.31676e-005,0.000969256 -0.000110975,0.00485021 0.000215127,0.00533733l0.00133284 0.000280708z"/>
 </g>
</svg>
