<?xml version="1.0" encoding="UTF-8"?>
<!DOCTYPE svg PUBLIC "-//W3C//DTD SVG 1.1//EN" "http://www.w3.org/Graphics/SVG/1.1/DTD/svg11.dtd">
<!-- Creator: CorelDRAW -->
<svg xmlns="http://www.w3.org/2000/svg" xml:space="preserve" width="1in" height="2in" style="shape-rendering:geometricPrecision; text-rendering:geometricPrecision; image-rendering:optimizeQuality; fill-rule:evenodd; clip-rule:evenodd"
viewBox="0 0 0.131435 0.224184"
 xmlns:xlink="http://www.w3.org/1999/xlink">
 <defs>
  <style type="text/css">
   <![CDATA[
    .fil0 {fill:#FFF500}
   ]]>
  </style>
 </defs>
 <g id="Layer_x0020_1">
  <metadata id="CorelCorpID_0Corel-Layer"/>
  <path class="fil0" d="M0.101607 0.0199346l2.60525e-006 6.01211e-007 2.35474e-005 0c0.000994303,0.000232168 0.00192508,0.000592393 0.00279102,0.00106154 0.000859331,0.000465638 0.001639,0.00102837 0.00233911,0.00167026 0.00304093,0.00278802 0.00458794,0.00720091 0.00458794,0.0113553 0,0.0018369 -0.000400807,0.00299674 -0.000911637,0.0039695 0.000264834,0.000619749 0.000529266,0.0013389 0.000747205,0.00227448l-0.0013906 0.000925865c0.000259723,0.000178259 0.000519647,0.000354414 0.00077927,0.000528264l-0.00108909 0.00162608 0.0053099 0.00375446 -0.000828569 0.0026814c0.00141595,0.00308902 0.00169511,0.00662695 0.00112887,0.0099259 -0.000501009,0.00291868 -0.00170243,0.00576612 -0.00338532,0.00801374 0.000212929,0.000690892 0.000391388,0.00149561 0.000597203,0.00242629 9.71958e-006,4.43894e-005 -1.95394e-005,-8.96807e-005 9.90996e-005,0.000354815l-0.0031262 0.00990155c-0.000475658,0.0020352 -0.00113048,0.00370336 -0.00237599,0.0052603 -0.000245294,0.000306618 -0.000501811,0.000594898 -0.000770753,0.000865143 -1.2926e-005,5.48104e-005 -2.60525e-005,0.000109921 -4.01809e-005,0.000166536l0 2.34472e-005c-0.000155012,0.000613937 -0.000319243,0.00111765 -0.000499406,0.0015387 0.00120964,0.000823459 0.00235023,0.00174381 0.00459476,0.00327119l1.42287e-005 -2.1343e-005 9.01817e-007 6.01211e-007 2.35474e-005 4.69947e-005c0.000491891,0.000334374 0.0010419,0.000731674 0.00157347,0.00113839 0.000571752,0.000437481 0.00128228,0.000996007 0.0020837,0.00164191 0.00470047,0.00378903 0.0114103,0.010156 0.0114103,0.0138459l0 0.000633977 0 6.01211e-007 -2.34472e-005 0c-8.01615e-007,0.00136665 -0.000416439,0.00270365 -0.00107477,0.00396108 -0.000230564,0.000440688 -0.000368142,0.000695201 -0.000426459,0.000791695 -0.000170844,0.00028287 -0.000361027,0.000573856 -0.000562233,0.000866345 0.00993321,0.0130984 0.00705862,0.0310105 0.00822597,0.0450356l-0.00362661 -0.00265735 -4.73955e-005 0.000777667 -0.00171756 0.000422551 -0.000626462 0.00145062 -0.000200905 0.000465237 0.00182097 0.00148199 0.00370997 0.00301928 -0.00211296 0.00428443 -0.0118704 0.0240691c0.00233731,0.000888791 0.00425066,0.00212598 0.00573986,0.00370987 0.00188159,0.00200173 0.00299123,0.00440217 0.00333031,0.0071995l0 0.000147397 6.01211e-007 -1.00202e-007c2.47499e-005,0.000254012 4.18844e-005,0.000484977 5.08023e-005,0.000691794 7.11433e-006,0.000164932 9.31877e-006,0.000397 6.61332e-006,0.000695 -1.11224e-005,0.00120012 -0.000170544,0.00237679 -0.000473053,0.00352881l-7.41494e-006 -2.00404e-006c-0.000145694,0.000607223 -0.000325355,0.00118789 -0.000539186,0.00174091 -0.000262128,0.000677866 -0.000547102,0.0012905 -0.000854522,0.0018372 -0.00153389,0.00272749 -0.00402932,0.00509025 -0.00748768,0.00708297l-0.000821956 0.000399204 -2.54513e-005 9.91998e-006c-0.000316939,0.000123148 -0.000725963,0.000268341 -0.00122767,0.000435578 -0.000501911,0.000167237 -0.00090833,0.000293992 -0.00121946,0.000380166 -0.00215835,0.000597804 -0.00429656,0.000868149 -0.00641342,0.000814942l-0.00448934 -0.000112928 -0.00293391 0.00194792 -0.00202378 -0.00290545 -0.00453333 0.000624759 -0.00584127 0.000804922 -9.7797e-005 -0.000634578 -0.00514998 0.00300265 -0.000513334 -0.00178299 -0.00402701 -0.00200294 -0.00263962 -0.00131295c-0.000664839,0.000394395 -0.00136134,0.000731574 -0.00208961,0.00101094 -0.00171325,0.000657124 -0.00355596,0.000985385 -0.00552794,0.000985385l-0.000469746 -2.34472e-005c-0.00188139,-0.000152507 -0.0035746,-0.000641392 -0.00507913,-0.00146655 -0.00113398,0.00052105 -0.00241547,0.000916847 -0.00384505,0.00118659 -0.00245104,0.000462432 -0.00546902,0.000580069 -0.00905404,0.000353913l-0.00490638 -0.000309624 -4.32872e-005 -0.000320446 -0.000233671 0.000605319 -0.00411188 1.00202e-007 -0.00238541 0 -2.40484e-006 2.34472e-005 -0.00541321 0 -0.00433614 0 -0.00594297 0 -2.50505e-006 -0.000323852c-0.000968752,0.000182969 -0.00197378,0.000274553 -0.00301457,0.000274553l-0.000469746 -2.34472e-005c-0.00270355,-0.000219141 -0.00502272,-0.0011417 -0.00695762,-0.00276958 -0.00186856,-0.00157227 -0.00318923,-0.00366228 -0.00396138,-0.00627123l-2.34472e-005 -9.38891e-005c-0.000225454,-0.000814441 -0.00038728,-0.00161706 -0.000482773,-0.00240715 -8.25663e-005,-0.000683377 -0.000121445,-0.0014913 -0.000115032,-0.00242749l0 -0.000422752 6.01211e-007 -7.91595e-006c5.82173e-005,-0.000766644 0.000176656,-0.0015908 0.000354915,-0.00247198 0.000183369,-0.000906326 0.000398803,-0.00170664 0.000645901,-0.00239973 0.000201306,-0.000564638 0.000427561,-0.00110763 0.000677966,-0.00162868l-0.000584978 -0.00432932 -0.00435257 -0.0322062 -0.00030261 -0.00223891 -0.00254433 -0.00136435 0.00217117 -0.00504356 0.0139731 -0.0324602 -0.000484175 -0.000456319c-0.0070011,-0.00659899 -0.00143319,-0.0107852 0.00445708,-0.0172986 0.00473153,-0.00523154 0.0117594,-0.0117103 0.0161189,-0.0154088 -0.000388382,-0.00111465 -0.000611532,-0.00219602 -0.000634278,-0.00321618l0.00634258 -0.00243511c-0.000985886,-0.000330366 -0.00194692,-0.000796404 -0.00286888,-0.00137056l-0.00222989 9.00815e-005 0.000906727 -0.00100743c-0.00197207,-0.00151024 -0.00378262,-0.00355386 -0.00510629,-0.00564006 -0.0011397,-0.00179622 -0.00199382,-0.00373382 -0.00238531,-0.00554587 -0.000475358,-0.00220003 -0.000563235,-0.00539767 -0.000124651,-0.00845523 0.000342791,-0.00239001 0.00102887,-0.00484436 0.0021338,-0.00691774 0.00102707,-0.00192728 0.00239022,-0.00352791 0.00414565,-0.00458854 0.000103208,-0.00169361 0.000569147,-0.00336989 0.00132297,-0.00495769 0.000590991,-0.00124451 0.00136495,-0.00244673 0.00227027,-0.00355166l0.000699609 -0.00205233 0.00298131 -0.00874542 0.00162608 -0.00248551 -4.50908e-006 -4.90989e-006 1.90384e-005 -1.74351e-005 3.30666e-006 -5.01009e-006 1.10222e-006 -1.00202e-006 1.00202e-006 1.10222e-006c0.00121304,-0.00110913 0.00239503,-0.00182377 0.00360126,-0.00255294 0.00083909,-0.000507122 0.00169982,-0.00102747 0.00204482,-0.00141144 0.000539888,-0.00060081 0.000961337,-0.00115703 0.00135242,-0.00167337 0.00117116,-0.00154581 0.00217097,-0.00286567 0.00464245,-0.00472772l0.000126154 -9.50916e-005c0.00323612,-0.00243921 0.00982219,-0.00740191 0.0165532,-0.00699569 0.000498304,-0.00300806 0.00159682,-0.0052607 0.0031272,-0.00691593l0.000169742 -0.000757626 0.000682375 -6.5031e-005c0.00295275,-0.00255074 0.0071478,-0.00334183 0.0116619,-0.00324133 0.00418042,9.29873e-005 0.0083893,0.00110192 0.0116682,0.0018878 0.000869351,0.00020842 -0.00162978,-0.000391188 0.00129922,0.000290786l0.00505599 0.00117737 -0.000429465 0.0051635c-0.000584978,0.00703197 -0.0037729,0.00829281 -0.00855924,0.00856355 -0.000336077,0.000623155 -0.000726564,0.00123409 -0.00116194,0.00181937l0.00443744 0.00102396zm0.00262308 0.00808689c0,0.00219422 -0.00107687,0.00117847 -0.00259272,0.00321668l0.00289974 0.00350135 -0.000441089 0.000538284 -0.00296818 -0.00120383 -0.00206736 0.000431068 0.00770492 0.0055596c-0.000405517,-0.00174061 -0.00126775,-0.00257609 -0.00126775,-0.00380316 0,-0.0017354 0.00126775,-0.00206747 0.00126775,-0.00380296 0,-0.00365005 -0.00171746,-0.00745873 -0.00507072,-0.00824 0.000926166,0.00255875 0.00253541,0.00128649 0.00253541,0.00380296zm-0.0165523 0.0331218c-0.00135473,-0.00210905 0.000480468,-0.00118449 -0.00258601,-0.00115413l0.00258601 0.00115413zm0.0159184 -0.00269693l0.00316928 0.00570459c0.00381719,-0.00279673 0.00571151,-0.0108292 0.00210795,-0.0151364l0.00161886 -0.00523875 -0.00182528 0.00135964c-0.0116979,-0.00783328 -0.0210676,-0.0183815 -0.0412001,-0.0183815 0.00171806,0.0011937 0.0112056,0.00334314 0.0143881,0.00462732 0.00471299,0.00190163 0.00897127,0.00409164 0.0130034,0.00664589 0.00345686,0.00219011 0.00840684,0.0057579 0.0107676,0.00888169 0.00245454,0.00324824 0.00572533,0.0115375 -0.00202979,0.0115375zm-0.0405663 0.00380296l0 -0.00126755c0.0013887,-0.00207368 0.00184542,-0.00309744 0.00507092,-0.00316928 -0.00210684,0.00287549 -0.00263791,-0.000564337 -0.00380316,0.00443684l-0.00126775 0zm0.00760632 0.0120432c0.0021361,0.000177658 0.0107754,-4.02812e-005 0.0107754,0.00316928l0 0.000633877c0,0.00146034 -0.000441089,0.00190153 -0.00190153,0.00190153l-0.000633877 0c-0.00382781,0 -0.00683367,-0.00304674 -0.00824,-0.00570469zm-0.0221847 0.00190153l0.0013389 0.000107416 0.00246406 -0.00200895 0.00121084 -4.88985e-005 0.00449385 -0.00502182 0 -0.00126785 0.00214763 -0.00303101 -0.000585379 -0.000328662 -0.00156225 0.00335967 -0.00570469 0.00633857 -0.00380296 0.00190153c-0.00292449,-0.00140333 -0.00887388,-0.00281788 -0.00866255,-0.00697225l-0.000211326 -0.00570469c0.00871866,-0.000194191 -0.000450407,0.00112206 0.00611502,0.00402601 0.0030269,0.0013387 0.00459856,0.00294503 0.00739931,0.00496811l0.00762987 -0.0129226 -0.000861035 -0.000508524 0.00142928 2.62529e-005 -0.000790693 0.0044185 0.0025305 -0.00127547c0.00320646,0.00605981 0.00781074,0.0196493 0.0164802,0.0196493 0.00259473,0 0.00485318,-0.00140774 0.00697225,-0.00190143 -0.00118048,-0.00246016 0.00253541,-0.00631973 0.00253541,-0.0120433 0,-0.0083893 -0.00584017,-0.00495268 -0.00640991,-0.00900985l-0.0392272 -0.00556862c-0.00550158,-0.00078919 -0.00676423,0.00966106 -0.00582273,0.0140184 0.000955725,0.00442361 0.00712125,0.0111938 0.0108936,0.00880013zm0.0397708 0.000561832c0.00210895,-0.00135473 0.00118439,0.000480368 0.00115402,-0.00258621l-0.00115402 0.00258621zm0.0128386 -0.00373112l-0.00253541 0.00316928c0.000773158,0.000434375 0.000677866,0.000633877 0.00190153,0.000633877 0.00103739,0 0.00190143,-0.000379464 0.00190143,-0.00126785 0,-0.000926667 -0.000781374,-0.000929773 -0.00126755,-0.00126755l0 -0.00126775 0.00321448 -0.00265365 0.00180213 0.000718748 0.000721453 -0.0012885 0.00123419 0.000687986c-0.00037716,-0.00141245 -0.000148098,-0.00190143 -0.00190153,-0.00190143 -0.00144371,0 -0.00394525,0.00241547 -0.00507072,0.00316918l0 0.00126765zm-0.0450033 0.00443704c0.00169972,-0.00040702 0.00119481,-0.000633877 0.00253541,-0.000633877 0.0017849,0 0.00117356,0.000274152 0.0018882,0.00123308l0.00193951 -0.000676864 0.00251076 0.000711533 0 -0.00126775c-0.00374204,0 -0.00877828,-0.00282609 -0.00887388,0.000633877zm0.00936697 0.00176065c0.0023321,-0.000444395 0.00209101,-0.000203109 0.00253531,-0.00253541l-0.00253531 0.00253541zm0.0343684 0.00267619l0.000633977 0.00253541c0.00195173,-0.00140954 0.00122477,0.000254914 0.000633877,-0.00253541 0.0024335,-0.000649709 0.0032249,-0.00195554 0.00380316,-0.00443684l-0.00126785 0c-0.000256316,0.00308161 -0.00163319,0.00328873 -0.00380316,0.00443684zm-0.0449864 0.00507883c0.00140483,-0.000339183 0.0014406,-0.000641793 0.00315255,-0.000641793 0.00659709,0 0.00668026,0.00285986 0.00964453,0.00303451l-0.00586672 -0.00604588 -0.00485428 -0.000700511 -0.00207608 0.00435367zm-0.000768649 0.00438353c0.00443954,0.000141786 0.00209572,0.00131305 0.00455508,0.00131305l0.00192267 -0.000140683 0.00549387 0.00101985 0.00295044 0.00150473 -0.00214893 -0.00381559 -0.00504877 0.000798008c-0.00411419,-0.000958631 -0.00379996,-0.000411128 -0.00700712,-0.00254894l-0.000717245 0.00186957zm0.0387829 -0.0221392l0.00200654 0.00242448c-0.00551792,0.00373563 -0.00243561,0.00940505 -0.0115144,0.0115201 0.000874462,0.00130593 0.00190173,0.00164531 0.00190173,0.00316928 0,0.00872788 -0.0133468,0.0109504 -0.0219556,0.0115884 -0.00832477,0.000616943 -0.0146734,-0.00823088 -0.0192447,-0.0134901 0.000128158,0.00574608 0.0125517,0.0158463 0.0183817,0.0158463l0.000633677 0c5.55118e-005,0 0.0196295,-0.00321568 0.0200566,-0.00339604 0.00233581,-0.000986788 0.00976577,-0.0108282 0.0103683,-0.0130841l0.00296247 0.00217548 -0.00134511 -0.00330917 0.00345336 -0.0020355 0.00221847 -0.00158479 -0.000452812 -0.000452712 -0.00176566 0.0020375 -0.00126775 -0.00190173 0.00126775 0 -0.000126856 -0.00139441 -0.0011409 0.00139441c-0.000878069,-0.00150884 0.0025334,-0.0112963 0.00760632,-0.0114093l0 -0.00126755c-0.00040682,-0.000147297 -0.0134631,-0.0132719 -0.0181704,-0.0160574 -0.00530619,-0.00313993 -0.0172198,-0.00929653 -0.0249313,-0.00929653l-0.00760612 0c-0.00588816,0 -0.0125461,0.00842387 -0.00760632,0.0120432 0,-0.00628977 0.00172828,-0.0101416 0.00760632,-0.0101416l0.00760612 0c0.00890334,0 0.03296,0.0111891 0.03296,0.0183817 0,0.000568646 -0.00160694,0.00445698 -0.00190143,0.00507072l-0.00380316 -0.00380316c0.000397,0.00170423 0.00190163,0.00427872 0.00190163,0.00570459 0,0.00231246 -0.000568646,0.00151034 -0.000482071,0.00452892l0.0023836 -0.00326107zm0 -0.00316928l0.00506841 -0.000648406c0.00180985,-0.000274553 0.0028785,-0.000489486 0.00443914,-0.000619348l0 0.00126775c-0.00198249,0.000164932 -0.00225164,0.000633877 -0.00443684,0.000633877l-0.00190153 0c-0.00191636,0 -0.00175263,0.000745802 -0.00190163,0.00253541l-0.00126755 0 0 -0.00316928zm0.0194688 0.0523158l0.00776785 0.00110603c0.00055121,0.000616642 0.0038219,0.0138938 0.0038219,0.0163014l0 0.000633877c0,0.00290856 -0.000918551,0.00680761 0.00190143,0.00887388 -0.00076915,-0.00924472 -0.00130192,-0.0262032 -0.00765392,-0.0305027l-0.00583726 0.00358743zm-0.0999677 0.0332536c0.00132477,-0.00276066 0.0054614,-0.0131897 0.00681683,-0.014734 0.00230715,-0.0026288 0.00459245,-0.0102089 0.00459245,-0.0150568l-0.0146152 0.0339521 0.000681874 0.000365637 0.00694319 -0.000867448 0.00762406 0.000143689 0.00696112 0.000723758 0.00225795 -0.0069496 -0.0101565 -0.0068991c0.00085352,0.00221566 0.00157127,0.00312129 0.00157127,0.0061527 0,0.00256918 -0.000683076,0.00570469 -0.00316928,0.00570469l-0.00126755 0c-0.00416198,0 -0.00577453,-0.000884382 -0.0082402,-0.00253561zm0.0228186 -0.0259877c0,0.00569798 -0.0105921,0.00914452 -0.012043,0.0145784l0.0113303 0.00771955 0.00326828 -0.0104646 0.000613636 0.000209622c0.00134431,0.00576992 -0.00190153,0.00182658 -0.00190153,0.00697245 0,0.00122146 0.00205785,0.00136826 0.00316928,0.00190153l-0.00381158 0.0101386c2.29462e-005,-4.00807e-006 0.0284549,-0.00200424 0.0291655,-0.00189862l0.0107564 0.00139621c0.00135964,7.09429e-005 0.00848529,-0.00202989 0.0120622,-0.00202989l0.00126765 0c0.00463263,0 0.00677655,0.00190143 0.0114093,0.00190143l0.00633847 0 0.0145589 -0.000529467 0.00219292 -0.00507743 -4.91991e-005 0.000806725 -0.018959 0.0046661 -0.000278962 -0.00113368c8.00613e-005,-0.000963441 0.0046643,-0.0117693 0.00542282,-0.0129586 0.00301798,-0.00473023 0.00767336,-0.00570409 0.00978942,-0.00859221l-0.0101592 0.00116485 -0.00505308 -0.00813719c0,-0.00543285 0.00925154,-0.01603 0.0133107,-0.0171138l0.000760532 0.00215504c0.00103979,-0.00126024 0.00240875,-0.00311558 0.00240875,-0.00405667l0 -0.000633977c0,-0.00197618 -0.0103894,-0.010295 -0.0124146,-0.0116715 -0.00729419,-0.00495809 -0.00586973,-0.00495849 -0.0161087,-0.00734379l-0.00230675 0.00336287 0.00120553 0.00288652c-0.00504266,0.00335426 -0.00837738,0.0133999 -0.0198156,0.0133999 -0.010529,0 -0.0222647,-0.0125254 -0.0240863,-0.0126769l-0.00146776 0.00400547 -0.00136465 -0.00849211c-0.00649158,0.00441449 -0.0239931,0.0175432 -0.0239931,0.0257709l0.00315476 0.00245044 0.00021834 -0.0021839c-0.00210594,-0.00353182 0.0126351,0.00156575 0.0114093,0.00950775zm0.0690896 0.000633777l0.00252849 0.0133121 0.00727195 -0.00553104c-0.000624959,0.0031278 -0.00598766,0.00463794 -0.00818609,0.0103135 -0.00191015,0.00493093 -0.003027,0.00879141 -0.00731904,0.0110625l0.00557764 -0.0105 -0.00370847 -0.00073969 -0.000209723 -0.000632073 0.00452441 -0.00236827 0.000154712 -0.000972459 -0.0107632 0.000782877 -0.00635079 -0.000149c-0.00257258,0 -0.0174759,-0.00383453 -0.0183816,-0.00507072l0.0183714 0.00259483 0.00698247 -5.94197e-005 0.0102491 -0.00113308 -0.000112827 -0.000723558 -0.0329551 -0.00384575 -0.00380276 -2.30464e-006 -0.00569327 0.00070993 -0.000146295 -0.00122647 0.0209999 -0.00246246c0.00725001,-0.000400507 0.0148695,0.00349113 0.0203351,0.00361288l-0.00161345 -0.00395006 0.00107156 -0.00167818 -0.0041219 -0.0223275 0.00148249 0.00011924 0.000390086 -0.00830914 0.00152347 1.63329e-005c-0.000164932,0.00198269 -0.000633677,0.00225164 -0.000633677,0.00443684l0 0.00507072c0,0.00171195 0.000302509,0.00174772 0.000633677,0.00316928l0.000709529 9.97009e-005 0.00170714 -0.0121594c0.0018862,0.000730071 0.00202037,0.00189722 0.00202037,0.00445357l0 0.00126785c0,0.00731444 -0.00380316,0.00781234 -0.00380316,0.0158461l0.00296267 -0.00217548 -0.00169481 0.00914773zm-0.0450033 -0.0190154c0.00659849,0.00176185 0.0101742,0.00689048 0.0196567,0.00254272 0.00460478,-0.00211115 0.0114399,-0.00740672 0.0126694,-0.0126843 0.000993602,0.000727866 0.00126785,0.000116635 0.00126785,0.00190143 0,0.00457081 -0.0126414,0.0145786 -0.0183817,0.0145786l-0.00253541 0c-0.00406489,0 -0.0118694,-0.00331408 -0.0126768,-0.00633847zm-0.0191495 0.0186655c0.000465237,-0.00170544 0.000767747,-0.00174121 0.000767747,-0.00345316 0,-0.00433062 -0.00159421,-0.00708377 -0.00190143,-0.0107753l0.00126775 0 0.00141675 0.00460227 0.000484777 -0.00206696 0.00126755 0 -0.00327901 0.0210066 0.00210434 0.00167938 0.00304383 -0.000630671 3.24654e-005 0.00139691 -0.00251076 0.000711533 -2.45495e-005 0.0011902 0.00316347 0.000656523 5.71151e-006 0.00124491 -0.00691974 0.00151846 0.00122286 -0.0027813 -0.00175253 -0.00576111 0.0018364 -0.0062564 -0.0037706 -0.00333893 0.00354494 0.00105703zm-0.0217653 0.0800368c0.000176756,0.00156595 0.000891897,0.00235104 0.00214552,0.00235104 0.00114671,0 0.00230164,-0.000822056 0.00346889,-0.00245785 0.00038227,-0.000715141 0.00055081,-0.00159882 0.000505619,-0.00265104 0,-0.00156595 -0.000678166,-0.00234693 -0.00203861,-0.00234693 -0.00140162,0 -0.00266337,0.00102346 -0.00377721,0.00307029 -0.000250705,0.000690491 -0.000349404,0.00136866 -0.000304213,0.0020345zm0.00397451 -0.00969162c0.0028278,6.16241e-005 0.00480067,0.00132347 0.00592273,0.00378132 0.000332871,0.000986387 0.000468544,0.00207558 0.000410928,0.00326337 0,0.00277439 -0.000986387,0.00539246 -0.00296337,0.00785032 -0.00159471,0.00156595 -0.00363332,0.00234693 -0.00611582,0.00234693 -0.00288942,-0.000234272 -0.00476771,-0.00181255 -0.00563495,-0.00474306 -0.00026303,-0.000949513 -0.000394595,-0.00201807 -0.000386378,-0.00321418 0.000328762,-0.00435257 0.0023345,-0.00729129 0.00600901,-0.00881616 0.000974062,-0.000312329 0.00189061,-0.000468544 0.00275786,-0.000468544zm0.0203039 0c-0.00110152,0.0110069 -0.00175083,0.0167693 -0.00195223,0.0172912l-0.00320185 0 -0.00390046 -0.00683918 -0.000698708 0.00683918 -0.00433614 0c-3.29664e-005,-0.00431149 0.000176656,-0.00985606 0.000628767,-0.0166295l0.00420056 0 0.00275786 0.00546641 0.00160303 -0.00575409 0.00489917 -0.000374054zm0.012092 0.0132346c0.00207558,-0.000184973 0.00314013,-0.000637083 0.00318943,-0.00135222 8.62738e-005,-0.000390487 -9.44904e-005,-0.0006453 -0.000554818,-0.000756223 -0.000867247,-0.000201406 -0.00177558,-0.000131565 -0.00273331,0.000205514l9.86988e-005 0.00190293zm-0.000748107 -0.00923951l0.00016854 0.00166455c0.00117136,-0.000312329 0.00180844,-0.000838489 0.00191536,-0.00157828 -3.28662e-005,-0.000209622 -0.000172648,-0.000353412 -0.000423353,-0.000431569 -0.000464436,-0.000106815 -0.00101935,8.21655e-006 -0.00166055,0.000345296zm0.0132181 0.00569658c0.000176756,0.00156595 0.000891897,0.00235104 0.00214552,0.00235104 0.00114671,0 0.00230164,-0.000822056 0.00346889,-0.00245785 0.00038227,-0.000715141 0.00055081,-0.00159882 0.000505619,-0.00265104 0,-0.00156595 -0.000678166,-0.00234693 -0.00203861,-0.00234693 -0.00140162,0 -0.00266337,0.00102346 -0.00377721,0.00307029 -0.000250705,0.000690491 -0.000349404,0.00136866 -0.000304213,0.0020345zm0.00397451 -0.00969162c0.0028278,6.16241e-005 0.00480067,0.00132347 0.00592273,0.00378132 0.000332871,0.000986387 0.000468544,0.00207558 0.000410928,0.00326337 0,0.00277439 -0.000986387,0.00539246 -0.00296337,0.00785032 -0.00159471,0.00156595 -0.00363332,0.00234693 -0.00611582,0.00234693 -0.00279764,-0.000226857 -0.00464726,-0.00171395 -0.00554918,-0.0044683 -9.33881e-005,0.000839591 -0.00035722,0.00161636 -0.000792697,0.00232689 -0.00163179,0.00187017 -0.00554046,0.00260585 -0.0117303,0.00221536l-0.00212077 -0.0156924c0.00298802,-0.00138098 0.00572944,-0.00181666 0.00822437,-0.00131114 0.00237969,0.000723457 0.00348943,0.00212087 0.00333732,0.00419235 -0.000226055,0.000928871 -0.000846606,0.00182077 -0.00186596,0.00267158l0.000986487 0.000230164c0.00172477,0.000607123 0.00289173,0.00146856 0.00350175,0.0025834 -9.61938e-006,-0.000230063 -1.39281e-005,-0.000464836 -1.23248e-005,-0.000705121 0.000328762,-0.00435257 0.0023345,-0.00729129 0.00600901,-0.00881616 0.000974062,-0.000312329 0.00189061,-0.000468544 0.00275786,-0.000468544zm0.0120056 0.0117261l0.00271266 -9.44904e-005 -0.000916546 -0.00305796 -0.000748007 0 -0.00104811 0.00315245zm-0.00124942 -0.0117261l0.00489927 0 0.00503484 0.0143772 -0.00499787 0.00291407 -0.000686383 -0.0023839 -0.00387591 0 -0.000941196 0.0022853 -0.00469376 -0.0023346 0.005261 -0.014858zm0.0159431 0.00492392l0.000193189 0.00182898c0.0018865,-0.000152106 0.00284413,-0.000538385 0.0028771,-0.00116725 2.46497e-005,-0.000394595 -0.000226055,-0.000637083 -0.000756324,-0.000735682 -0.00062065,-6.17243e-005 -0.0013892,-3.70747e-005 -0.00231396,7.3949e-005zm0.00175914 -0.0048171c0.00235915,0.000152106 0.00420457,0.00128649 0.00554036,0.00339504 0.00023848,0.000571251 0.000341187,0.00121244 0.000300105,0.00192758 -7.40492e-005,0.00146325 -0.00104811,0.00284834 -0.0029264,0.0041677 0.000336979,0.000295896 0.00165634,0.0019358 0.00396208,0.00492392l-0.00406078 0.00269623 -0.00392511 -0.00563495 0.000242489 0.00493624 -0.00524867 0.000723357 -0.00249483 -0.0161815c0.000986487,-0.000345296 0.00344023,-0.000682275 0.00735712,-0.00101114l0.00125363 5.75159e-005zm0.0127866 0.00449235l0.000830273 0.00761194c0.00183309,-0.00078909 0.00296337,-0.00216186 0.00339905,-0.0041183 0.000213731,-0.00130292 -0.000226055,-0.00232629 -0.00132757,-0.00307439 -0.00103579,-0.000505518 -0.00200163,-0.0006453 -0.00290175,-0.000419245zm0.00307029 -0.00424976c0.00354294,0.00116314 0.00549106,0.00323872 0.00585279,0.00622264 9.03821e-005,0.000916546 4.10828e-006,0.00186195 -0.000250705,0.00283191 -0.000596001,0.00267158 -0.00261817,0.00500609 -0.00607063,0.00699539 -0.00226466,0.00088368 -0.00445948,0.00129471 -0.00658447,0.0012413l-0.00245785 -0.016535c0.00301688,-0.00115493 0.00618987,-0.00140563 0.00951086,-0.000756223zm-0.0918998 -0.0115233c0.00425988,-0.000379565 0.00644458,-0.00130753 0.00654579,-0.00277529 0.000177157,-0.000801314 -0.000193991,-0.00132427 -0.00113869,-0.00155203 -0.00177989,-0.000413333 -0.00364414,-0.000269944 -0.0056096,0.00042175l0.000202508 0.00390557zm-0.00153529 -0.0189627l0.000345897 0.00341628c0.00240404,-0.000641092 0.00371158,-0.00172077 0.00393092,-0.00323913 -6.75361e-005,-0.000430267 -0.000354314,-0.000725462 -0.00086885,-0.000885684 -0.00095322,-0.000219342 -0.00209201,1.68339e-005 -0.00340797,0.000708527zm0.0298697 0.0158669l0.00556732 -0.000193991 -0.00188109 -0.00627584 -0.00153519 0 -0.00215103 0.00646983zm-0.00256437 -0.0240661l0.010055 0 0.0103333 0.0295069 -0.0102574 0.00598065 -0.00140874 -0.00489246 -0.00795453 0 -0.00193169 0.00469005 -0.00930825 -0.00462973c-6.4029e-005,0.000112727 -0.000130262,0.000224853 -0.0001984,0.000336077 -0.00334885,0.00383813 -0.0113709,0.00534807 -0.0240746,0.00454666l-0.00435257 -0.0322062c0.00613245,-0.00283431 0.0117589,-0.00372841 0.0168791,-0.00269092 0.00488404,0.00148469 0.00716163,0.00435267 0.0068495,0.00860413 -0.000463935,0.00190634 -0.0017377,0.00373683 -0.00382962,0.00548295l0.00202448 0.000472352c0.00512873,0.00180524 0.00785332,0.00470698 0.00818228,0.00869692 3.01608e-005,0.000495198 3.51709e-005,0.000980976 1.44291e-005,0.00145764l0.00897769 -0.0253551zm0.0322315 0.0271619c0.00425988,-0.000379565 0.00644458,-0.00130753 0.00654579,-0.00277529 0.000177157,-0.000801314 -0.000193991,-0.00132427 -0.00113869,-0.00155203 -0.00177989,-0.000413333 -0.00364414,-0.000269944 -0.0056096,0.00042175l0.000202508 0.00390557zm-0.00153529 -0.0189627l0.000345897 0.00341628c0.00240404,-0.000641092 0.00371158,-0.00172077 0.00393092,-0.00323913 -6.75361e-005,-0.000430267 -0.000354314,-0.000725462 -0.00086885,-0.000885684 -0.00095322,-0.000219342 -0.00209201,1.68339e-005 -0.00340797,0.000708527zm0.00508655 -0.00755813c0.00488404,0.00148469 0.00716163,0.00435267 0.0068495,0.00860413 -0.000463935,0.00190634 -0.0017377,0.00373683 -0.00382962,0.00548295l0.00202448 0.000472352c0.00512873,0.00180524 0.00785332,0.00470698 0.00818228,0.00869692 0.000160323,0.0026318 -0.000396499,0.00500218 -0.00167858,0.00709409 -0.00334885,0.00383813 -0.0113709,0.00534807 -0.0240746,0.00454666l-0.00435257 -0.0322062c0.00613245,-0.00283431 0.0117589,-0.00372841 0.0168791,-0.00269092zm0.0191062 -0.000151806l0.00760863 0.0100634 0.00494316 -0.0104345 0.00792917 0.006453 -0.0143317 0.0290598 -0.00973441 -0.00696754 0.00630129 -0.0105274 -0.00988632 -0.011413 0.00717014 -0.00623376zm-0.0234237 -0.145608l-0.00380306 0.00316928c-0.00488654,-0.00234472 -0.0119581,0.00306958 -0.0149554,0.00532763 -0.00275445,0.00207528 -0.00308682,0.00333051 -0.00514947,0.00562603 -0.0016889,0.00187989 -0.00435778,0.00281297 -0.00607083,0.00438704l-0.00298131 0.00874542c0.00292549,-0.000780973 0.00355015,-0.00454666 0.00484526,-0.0071977 0.00289163,-0.00591973 0.00555249,-0.00251727 0.00708708,-0.00558996 0.00315686,-0.00632113 0.00815323,-0.00876305 0.0153231,-0.00876305 0.00271687,0 0.00276898,-0.00253541 0.00507072,-0.00253541l0.000633977 0c0.00218691,0 0.00338362,0.00316928 0.00697235,0.00316928 0.0017849,0 0.00117366,-0.000274253 0.00190153,-0.00126775 -0.0061574,0.00143449 -0.00359454,-0.00336588 -0.00774771,-0.00447271l0.00136786 -0.0061038 0.0120545 -0.00114831 0.000256216 0.000726363 -0.0086847 0.00478083 -0.000526461 -0.00063558 0.00275435 0.00251406 -0.00200945 0.00243761c0.00169972,0.00040682 0.00119481,0.000633677 0.00253541,0.000633677 0.0026308,0 0.00563936,-0.00404605 0.00570459,-0.00697225 0.00390938,-8.70754e-005 0.00668817,0.000245996 0.00697225,-0.00316918 -0.00710521,-0.00165533 -0.02128,-0.00581642 -0.0215507,0.00633847z"/>
 </g>
</svg>
