<?xml version="1.0" encoding="UTF-8"?>
<!DOCTYPE svg PUBLIC "-//W3C//DTD SVG 1.1//EN" "http://www.w3.org/Graphics/SVG/1.1/DTD/svg11.dtd">
<!-- Creator: CorelDRAW -->
<svg xmlns="http://www.w3.org/2000/svg" xml:space="preserve" width="5548in" height="7180in" style="shape-rendering:geometricPrecision; text-rendering:geometricPrecision; image-rendering:optimizeQuality; fill-rule:evenodd; clip-rule:evenodd"
viewBox="0 0 95.3534 143.03"
 xmlns:xlink="http://www.w3.org/1999/xlink">
 <defs>
  <style type="text/css">
   <![CDATA[
    .fil0 {fill:#141516}
   ]]>
  </style>
 </defs>
 <g id="Layer_x0020_1">
  <metadata id="CorelCorpID_0Corel-Layer"/>
  <path class="fil0" d="M68.3663 18.3858l0.00149153 0 0.0137967 0c0.573495,0.133865 1.11007,0.341561 1.60936,0.612274 0.495189,0.268103 0.944886,0.592512 1.34835,0.962785 1.75292,1.60713 2.64486,4.15131 2.64486,6.54634 0,1.05899 -0.231188,1.7272 -0.525393,2.28839 0.152509,0.357222 0.305019,0.771869 0.43068,1.31106l-0.802072 0.533596c0.149899,0.102543 0.299798,0.20434 0.449697,0.304273l-0.628308 0.937802 3.06137 2.16459 -0.478036 1.5456c0.816615,1.78089 0.9777,3.82056 0.651054,5.72264 -0.288612,1.68208 -0.981429,3.32388 -1.9513,4.62002 0.122306,0.398239 0.225222,0.862106 0.344171,1.39869 0.00559325,0.0253561 -0.0115594,-0.0514579 0.057424,0.204713l-1.80252 5.70847c-0.274069,1.17309 -0.6518,2.13476 -1.3696,3.03266 -0.141323,0.176747 -0.289357,0.34268 -0.444104,0.498545 -0.00745767,0.0316951 -0.0149153,0.0630173 -0.0234917,0.0962039l0 0.0134238c-0.089492,0.353493 -0.184204,0.64397 -0.287866,0.887089 0.697665,0.47468 1.35506,1.00529 2.64859,1.88604l0.00820343 -0.0123052 0.000372883 0.000372883 0.0141696 0.0272205c0.283391,0.192408 0.600342,0.421731 0.907225,0.655902 0.329629,0.252442 0.739055,0.574613 1.20106,0.946751 2.70974,2.18435 6.57804,5.85501 6.57804,7.98194l0 0.365426 0 0.000372883 -0.0130509 0c-0.000745767,0.788275 -0.24051,1.55903 -0.619732,2.28391 -0.133119,0.253934 -0.212171,0.400477 -0.24573,0.456036 -0.0984412,0.163323 -0.208442,0.330748 -0.324409,0.499664 5.72674,7.55163 4.06928,17.8775 4.7427,25.9631l-2.09076 -1.5318 -0.0275934 0.448206 -0.990378 0.243866 -0.360951 0.836004 -0.115967 0.268476 1.05004 0.854276 2.13886 1.74062 -1.21784 2.46998 -6.84353 13.8761c1.3476,0.512715 2.45022,1.22567 3.30859,2.13849 1.08509,1.15407 1.72496,2.53822 1.92035,4.15094l0 0.0850174 0 0c0.0145425,0.14617 0.0242374,0.27929 0.0294578,0.398612 0.00410172,0.0950853 0.00522037,0.22895 0.00372883,0.40085 -0.00633902,0.691699 -0.0984412,1.36997 -0.272578,2.03408l-0.00410172 -0.00111865c-0.0842716,0.349765 -0.18756,0.684987 -0.310985,1.00343 -0.151018,0.390409 -0.315086,0.744275 -0.492206,1.05936 -0.884479,1.57208 -2.32306,2.93422 -4.31687,4.08307l-0.473562 0.229696 -0.0145425 0.00559325c-0.182713,0.0712207 -0.418748,0.155119 -0.708105,0.251696 -0.289357,0.0962039 -0.523528,0.169289 -0.702885,0.219255 -1.24431,0.344544 -2.47706,0.500409 -3.69751,0.469833l-2.58781 -0.0652546 -1.69177 1.12275 -1.16675 -1.67462 -2.61354 0.359832 -3.36751 0.46424 -0.0563054 -0.365799 -2.9689 1.73092 -0.295696 -1.02767 -2.32157 -1.15482 -1.52174 -0.756953c-0.383324,0.227086 -0.784919,0.421731 -1.20441,0.582817 -0.988141,0.379222 -2.05011,0.568274 -3.18703,0.568274l-0.271086 -0.0134238c-1.08434,-0.0880005 -2.06055,-0.369527 -2.92788,-0.845699 -0.653664,0.300171 -1.39272,0.528749 -2.21679,0.684241 -1.41323,0.266612 -3.15273,0.334476 -5.21962,0.203967l-2.82869 -0.178238 -0.0249832 -0.18495 -0.134984 0.349392 -2.37042 0 -1.37519 0 -0.00149153 0.0130509 -3.12066 0 -2.50018 0 -3.42605 0 -0.00149153 -0.186442c-0.558579,0.105526 -1.13767,0.158103 -1.73801,0.158103l-0.270713 -0.0130509c-1.55903,-0.126407 -2.89581,-0.658512 -4.01111,-1.59706 -1.07726,-0.905734 -1.83906,-2.11089 -2.28391,-3.6151l-0.0134238 -0.0536952c-0.130136,-0.469833 -0.222984,-0.932581 -0.278171,-1.38787 -0.0477291,-0.394138 -0.0701021,-0.859869 -0.0663732,-1.3998l0 -0.243493 0.000372883 -0.0044746c0.0339324,-0.44224 0.101797,-0.917293 0.204713,-1.42516 0.105526,-0.522037 0.229696,-0.983666 0.372138,-1.38377 0.115967,-0.325154 0.246476,-0.638376 0.390782,-0.938547l-0.337087 -2.49571 -2.50913 -18.567 -0.174509 -1.29092 -1.46692 -0.786784 1.25177 -2.90774 8.0554 -18.7135 -0.278917 -0.262883c-4.03609,-3.80416 -0.826309,-6.21783 2.56917,-9.97276 2.72801,-3.01625 6.77939,-6.75068 9.29263,-8.8832 -0.22373,-0.642851 -0.352375,-1.26631 -0.365426,-1.85398l3.65612 -1.40428c-0.568274,-0.190171 -1.12201,-0.459019 -1.65374,-0.79014l-1.28533 0.0522037 0.52241 -0.580952c-1.13692,-0.871055 -2.18025,-2.04899 -2.94391,-3.25154 -0.656648,-1.0355 -1.14885,-2.15228 -1.37482,-3.1971 -0.274069,-1.26818 -0.324409,-3.11171 -0.0719665,-4.87433 0.197628,-1.3778 0.592885,-2.7929 1.23014,-3.98836 0.592139,-1.11082 1.37818,-2.03371 2.39018,-2.64523 0.0592885,-0.976209 0.328137,-1.94235 0.762546,-2.85815 0.340815,-0.717428 0.78753,-1.41024 1.30882,-2.04788l0.40346 -1.18279 1.71862 -5.04176 0.937429 -1.43299 -0.00261018 -0.00261018 0.0108136 -0.0100679 0.00186442 -0.00335595 0.000372883 -0.000372883 0.000745767 0.000372883c0.699156,-0.639122 1.38079,-1.05079 2.07621,-1.47177 0.48363,-0.291968 0.979565,-0.592512 1.17868,-0.814004 0.311358,-0.346036 0.554478,-0.666715 0.780072,-0.964649 0.674919,-0.890818 1.2514,-1.65187 2.67618,-2.72503l0.0730851 -0.0551867c1.86554,-1.40614 5.66261,-4.26728 9.54283,-4.03273 0.28712,-1.73428 0.920276,-3.03303 1.80289,-3.98687l0.0976954 -0.437019 0.393392 -0.0376612c1.70221,-1.47028 4.12036,-1.92632 6.72346,-1.86852 2.40995,0.0536952 4.8363,0.63502 6.72644,1.08807 0.501528,0.120441 -0.939666,-0.225594 0.749496,0.167798l2.91446 0.678648 -0.247595 2.9771c-0.336714,4.05361 -2.17503,4.78074 -4.93437,4.9366 -0.193526,0.359087 -0.418748,0.711461 -0.669698,1.04892l2.55798 0.590274 -0.000745767 0zm1.51204 4.66179c0,1.26519 -0.620478,0.679393 -1.49452,1.85472l1.67201 2.01804 -0.254306 0.310612 -1.71116 -0.693936 -1.19174 0.24834 4.44216 3.20493c-0.233798,-1.00306 -0.731224,-1.48519 -0.731224,-2.19255 0,-1.00045 0.731224,-1.19174 0.731224,-2.19218 0,-2.10455 -0.990378,-4.30009 -2.92341,-4.75053 0.533969,1.4755 1.46208,0.741665 1.46208,2.19255l-0.00111865 0zm-9.54208 19.095c-0.780818,-1.21635 0.277052,-0.682749 -1.49079,-0.665224l1.49079 0.665224zm9.17703 -1.55492l1.82713 3.28883c2.20076,-1.61235 3.29293,-6.24319 1.21523,-8.72622l0.933327 -3.02036 -1.05228 0.783801c-6.74397,-4.51562 -12.1456,-10.597 -23.7523,-10.597 0.990751,0.688343 6.4602,1.92781 8.29479,2.66761 2.7172,1.09628 5.17226,2.35886 7.49682,3.83175 1.99269,1.26221 4.84636,3.31903 6.20739,5.12006 1.41509,1.87225 3.30076,6.65112 -1.17011,6.65112l0 0.000372883zm-23.3869 2.19218l0 -0.730851c0.800953,-1.19546 1.06384,-1.78574 2.92378,-1.82713 -1.21448,1.65784 -1.52099,-0.325527 -2.19255,2.55761l-0.731224 0 0 0.000372883zm4.38511 6.94309c1.23163,0.10217 6.21224,-0.0231188 6.21224,1.8275l0 0.365426c0,0.841598 -0.253934,1.0959 -1.09628,1.0959l-0.365799 0c-2.20635,0 -3.93951,-1.75628 -4.75016,-3.28846l0 -0.000372883zm-12.7895 1.09665l0.771869 0.0618986 1.42069 -1.15818 0.697665 -0.0279663 2.59079 -2.89507 0 -0.730851 1.23797 -1.74733 -0.337087 -0.189425 -0.900886 1.93713 -3.28846 3.65388 -2.19255 1.09628c-1.68618,-0.809157 -5.11596,-1.62465 -4.99365,-4.01968l-0.121933 -3.28846c5.02647,-0.111865 -0.259527,0.646953 3.52524,2.32083 1.74509,0.771869 2.6512,1.69774 4.26579,2.86449l4.39853 -7.45021 -0.496308 -0.293459 0.824072 0.0156611 -0.456036 2.54717 1.45872 -0.735699c1.84876,3.49392 4.50294,11.3286 9.50107,11.3286 1.49564,0 2.79774,-0.811394 4.01968,-1.09665 -0.680512,-1.41808 1.46133,-3.64307 1.46133,-6.94271 0,-4.83667 -3.36676,-2.85554 -3.6949,-5.19464l-22.6146 -3.21015c-3.17212,-0.454918 -3.89961,5.56939 -3.35744,8.0815 0.551494,2.55052 4.10582,6.45349 6.28047,5.07345l0 -0.000372883zm22.9282 0.323663c1.21597,-0.781191 0.682749,0.276679 0.665224,-1.49116l-0.665224 1.49116zm7.40136 -2.15116l-1.4617 1.8275c0.445968,0.250205 0.390782,0.365426 1.09628,0.365426 0.598105,0 1.09665,-0.218883 1.09665,-0.731224 0,-0.533969 -0.450816,-0.535833 -0.731224,-0.730851l0 -0.730851 1.85323 -1.52957 1.03923 0.414273 0.415765 -0.742784 0.711461 0.396748c-0.217391,-0.814377 -0.0853903,-1.09628 -1.09628,-1.09628 -0.832276,0 -2.27422,1.39235 -2.92341,1.82676l0 0.730851zm-25.9445 2.55835c0.979937,-0.234917 0.688716,-0.365426 1.4617,-0.365426 1.02879,0 0.676783,0.158103 1.08845,0.710716l1.1179 -0.390036 1.44753 0.410172 0 -0.730851c-2.15713,0 -5.0604,-1.62913 -5.11559,0.365426zm5.4001 1.01462c1.34424,-0.256171 1.20516,-0.117085 1.4617,-1.4617l-1.4617 1.4617zm19.8132 1.54299l0.365426 1.46133c1.12573,-0.81214 0.706241,0.147662 0.365799,-1.46133 1.40279,-0.374748 1.85882,-1.1276 2.19255,-2.55761l-0.730851 0c-0.147662,1.77642 -0.94153,1.89611 -2.19293,2.55761zm-25.9348 2.92788c0.809903,-0.195391 0.830784,-0.3699 1.81743,-0.3699 3.80341,0 3.85114,1.64889 5.56006,1.74957l-3.38242 -3.48571 -2.79849 -0.403833 -1.19696 2.50988 0.000372883 0zm-0.442985 2.52703c2.5591,0.0816615 1.20851,0.756953 2.62622,0.756953l1.10858 -0.0812886 3.16727 0.58841 1.70109 0.867327 -1.23909 -2.20001 -2.91073 0.460138c-2.37191,-0.552613 -2.19032,-0.237154 -4.03945,-1.46953l-0.413528 1.07763 -0.000372883 0.000372883zm22.3585 -12.7631l1.15706 1.39757c-3.18069,2.1534 -1.40428,5.4221 -6.63807,6.64143 0.504138,0.752851 1.09628,0.948615 1.09628,1.82713 0,5.03169 -7.69445,6.31329 -12.6575,6.68095 -4.79938,0.355731 -8.45923,-4.74494 -11.0948,-7.7776 0.0738309,3.31307 7.23617,9.13564 10.597,9.13564l0.365426 0c0.032068,0 11.3166,-1.8536 11.5627,-1.95801 1.34685,-0.568647 5.62979,-6.24244 5.97769,-7.54268l1.70781 1.25438 -0.775224 -1.90804 1.99082 -1.17346 1.27899 -0.913937 -0.261018 -0.261018 -1.01797 1.17458 -0.730851 -1.09628 0.730851 0 -0.0730851 -0.803936 -0.657766 0.803936c-0.506376,-0.869937 1.46058,-6.51241 4.38511,-6.57766l0 -0.730851c-0.234544,-0.0850174 -7.76194,-7.65119 -10.4754,-9.2572 -3.05913,-1.80998 -9.92765,-5.35945 -14.3732,-5.35945l-4.38511 0c-3.39436,0 -7.23282,4.85606 -4.38511,6.94309 0,-3.62592 0.996717,-5.84644 4.38511,-5.84644l4.38511 0c5.13274,0 19.0018,6.45014 19.0018,10.597 0,0.327764 -0.926615,2.56917 -1.09665,2.92303l-2.19255 -2.19255c0.22895,0.982548 1.09665,2.46662 1.09665,3.28883 0,1.33306 -0.327764,0.870683 -0.278171,2.61056l1.3737 -1.88008 0.000372883 0.00111865zm0 -1.8275l2.92229 -0.373629c1.04333,-0.158475 1.6597,-0.2819 2.55947,-0.356849l0 0.730478c-1.14289,0.0954581 -1.29838,0.365426 -2.55798,0.365426l-1.09628 0c-1.10485,0 -1.01014,0.429934 -1.09628,1.46208l-0.731224 0 0 -1.8275zm11.2238 30.1603l4.47833 0.637631c0.317697,0.355731 2.20337,8.00991 2.20337,9.39815l0 0.365426c0,1.67648 -0.529494,3.9246 1.09628,5.11596 -0.443358,-5.32999 -0.750614,-15.1062 -4.4127,-17.5852l-3.36527 2.06801zm-57.6317 19.1707c0.763665,-1.59109 3.14863,-7.60346 3.93019,-8.49391 1.33007,-1.51577 2.64747,-5.88559 2.64747,-8.68035l-8.42567 19.5738 0.393019 0.210679 4.0029 -0.500037 4.39555 0.083153 4.01297 0.417256 1.30174 -4.00626 -5.85539 -3.97755c0.491833,1.2775 0.905734,1.79954 0.905734,3.54687 0,1.48109 -0.393392,3.28883 -1.82676,3.28883l-0.731224 0c-2.39913,0 -3.32873,-0.509732 -4.75016,-1.46208l-0.000372883 -0.000372883zm13.1553 -14.9817c0,3.2851 -6.10634,5.27182 -6.94271,8.40479l6.5318 4.44999 1.88418 -6.03251 0.353866 0.120441c0.775224,3.32612 -1.09628,1.05302 -1.09628,4.01968 0,0.704004 1.18651,0.789021 1.82713,1.09628l-2.1974 5.84532c0.0134238,-0.0022373 16.4043,-1.15557 16.8141,-1.09479l6.20105 0.804682c0.784174,0.0410172 4.89186,-1.17011 6.9539,-1.17011l0.730851 0c2.67096,0 3.9067,1.09628 6.57766,1.09628l3.65426 0 8.39323 -0.305019 1.26407 -2.92713 -0.0283391 0.464986 -10.93 2.68998 -0.160713 -0.653664c0.0458647,-0.555596 2.68886,-6.78499 3.12588,-7.47072 1.74025,-2.7269 4.42426,-3.28846 5.64396,-4.95376l-5.85688 0.671563 -2.91296 -4.69125c0,-3.13185 5.33335,-9.24079 7.67319,-9.86612l0.438511 1.24282c0.599969,-0.726377 1.38899,-1.79655 1.38899,-2.3391l0 -0.365053c0,-1.13953 -5.98963,-5.93518 -7.15712,-6.72868 -4.20501,-2.85852 -3.38354,-2.85852 -9.28666,-4.23409l-1.3297 1.93899 0.695055 1.66418c-2.907,1.9334 -4.82959,7.72465 -11.424,7.72465 -6.0698,0 -12.8358,-7.22089 -13.8854,-7.30814l-0.846445 2.30964 -0.786411 -4.89596c-3.74263,2.54493 -13.8321,10.1137 -13.8321,14.8572l1.81892 1.41248 0.125662 -1.25885c-1.21374,-2.03594 7.28465,0.902751 6.57766,5.48139l-0.000745767 -0.000372883zm39.8299 0.365053l1.45797 7.67468 4.19195 -3.18853c-0.360205,1.80326 -3.45141,2.67357 -4.71921,5.94562 -1.10112,2.84286 -1.74509,5.0686 -4.21918,6.37742l3.21537 -6.05302 -2.13811 -0.426206 -0.120814 -0.364307 2.60795 -1.3655 0.089492 -0.560444 -6.20478 0.451189 -3.66134 -0.0857632c-1.48333,0 -10.0749,-2.21045 -10.5973,-2.92303l10.5914 1.49564 4.02528 -0.0339324 5.90871 -0.653664 -0.0648817 -0.416884 -18.9988 -2.21716 -2.19218 -0.00111865 -3.28212 0.409426 -0.0846445 -0.706987 12.1068 -1.41994c4.17965,-0.230815 8.57259,2.01282 11.7235,2.08293l-0.929971 -2.27757 0.617495 -0.967259 -2.37639 -12.8719 0.854649 0.0686105 0.224849 -4.79043 0.878513 0.00969497c-0.0950853,1.14326 -0.365799,1.29801 -0.365799,2.55798l0 2.92303c0,0.986649 0.174882,1.00753 0.365799,1.82713l0.409053 0.057424 0.984039 -7.00946c1.08733,0.420612 1.16451,1.09329 1.16451,2.5673l0 0.731224c0,4.21656 -2.19255,4.50369 -2.19255,9.13527l1.70781 -1.25438 -0.976954 5.27369 0 -0.000745767zm-25.9441 -10.962c3.80416,1.01573 5.86545,3.97233 11.3323,1.4658 2.65456,-1.21709 6.59519,-4.26989 7.30404,-7.31262 0.572749,0.419867 0.730478,0.067119 0.730478,1.09665 0,2.63479 -7.288,8.40442 -10.597,8.40442l-1.46208 0c-2.34283,0 -6.84241,-1.91065 -7.30777,-3.65426zm-11.04 10.7607c0.268103,-0.983293 0.442613,-1.0038 0.442613,-1.99082 0,-2.49645 -0.918785,-4.08345 -1.09628,-6.21186l0.731224 0 0.816615 2.65344 0.27929 -1.19136 0.731224 0 -1.89052 12.1101 1.21299 0.968005 1.75479 -0.363561 0.0190171 0.805428 -1.44753 0.410172 -0.0137967 0.686105 1.8234 0.378849 0.00298307 0.717428 -3.98873 0.87553 0.70475 -1.6034 -1.01014 -3.32127 1.05862 -3.6069 -2.17391 -1.9252 2.04377 0.609664 -0.000372883 -0.000372883zm-12.5479 46.1413c0.10217,0.902751 0.514579,1.35543 1.23685,1.35543 0.661495,0 1.32709,-0.473935 2.00015,-1.41696 0.220374,-0.412409 0.316951,-0.921768 0.291222,-1.52845 0,-0.902751 -0.391155,-1.35282 -1.17533,-1.35282 -0.808038,0 -1.53553,0.589901 -2.17764,1.77008 -0.144306,0.397867 -0.201357,0.789021 -0.175255,1.17272l0 0zm2.29174 -5.58728c1.62987,0.0357968 2.76717,0.763292 3.41412,2.18025 0.192035,0.568274 0.269968,1.19621 0.237154,1.88157 0,1.5993 -0.568647,3.10836 -1.70855,4.52531 -0.91953,0.903123 -2.09449,1.35319 -3.52598,1.35319 -1.66567,-0.135357 -2.74852,-1.04519 -3.24856,-2.73473 -0.151391,-0.54702 -0.227459,-1.1634 -0.222611,-1.85286 0.189052,-2.50913 1.34536,-4.20351 3.46409,-5.0824 0.561189,-0.180103 1.08994,-0.269968 1.58997,-0.269968l0.000372883 -0.000372883zm11.7052 0c-0.635393,6.34536 -1.0094,9.66775 -1.12573,9.96866l-1.84577 0 -2.24886 -3.94324 -0.402714 3.94324 -2.49981 0c-0.0193899,-2.48564 0.101797,-5.682 0.362443,-9.5872l2.4215 0 1.59035 3.15124 0.924005 -3.31717 2.82459 -0.215527 0 0zm6.97105 7.62994c1.19658,-0.106272 1.81035,-0.36729 1.83869,-0.779326 0.0499664,-0.225222 -0.054441,-0.372138 -0.319561,-0.435901 -0.500037,-0.11634 -1.02356,-0.0760682 -1.57581,0.118577l0.0566783 1.09665 0 0zm-0.431426 -5.32664l0.0973226 0.959802c0.675665,-0.180103 1.04258,-0.483257 1.10411,-0.909835 -0.0190171,-0.120814 -0.0995599,-0.203594 -0.243866,-0.248713 -0.26773,-0.0615258 -0.588037,0.00484748 -0.957564,0.198747zm7.62024 3.28398c0.101797,0.902751 0.514579,1.35543 1.23685,1.35543 0.661122,0 1.32672,-0.473935 2.00015,-1.41696 0.220374,-0.412409 0.317324,-0.921768 0.291222,-1.52845 0,-0.902751 -0.390782,-1.35282 -1.17533,-1.35282 -0.808038,0 -1.53553,0.589901 -2.17801,1.77008 -0.144306,0.397867 -0.200984,0.789021 -0.175255,1.17272l0.000372883 0zm2.29137 -5.58728c1.63025,0.0357968 2.76754,0.763292 3.41449,2.18025 0.192035,0.568274 0.269968,1.19621 0.237154,1.88157 0,1.5993 -0.568647,3.10836 -1.70855,4.52531 -0.91953,0.903123 -2.09449,1.35319 -3.52598,1.35319 -1.61272,-0.130882 -2.67879,-0.988141 -3.19897,-2.57625 -0.0536952,0.484003 -0.206204,0.932208 -0.457155,1.34126 -0.940412,1.07838 -3.19412,1.50272 -6.76261,1.2775l-1.22231 -9.0469c1.72272,-0.796106 3.30263,-1.04743 4.74121,-0.755835 1.37184,0.416884 2.01171,1.22268 1.92408,2.41703 -0.130509,0.53546 -0.488104,1.04967 -1.07577,1.54038l0.568274 0.132374c0.99448,0.350137 1.66716,0.846818 2.01879,1.4893 -0.00559325,-0.132746 -0.00783055,-0.268103 -0.00708478,-0.406816 0.189425,-2.50876 1.34611,-4.20351 3.46446,-5.0824 0.561189,-0.17973 1.08957,-0.269968 1.5896,-0.269968l0.000372883 0zm6.92146 6.76038l1.56387 -0.054441 -0.528376 -1.76299 -0.431426 0 -0.604071 1.81706 0 0.000372883zm-0.720411 -6.76038l2.82422 0 2.90252 8.28845 -2.8809 1.68021 -0.395629 -1.37482 -2.23432 0 -0.542545 1.31777 -2.70601 -1.34611 3.03303 -8.5655 -0.000372883 0zm9.19157 2.83913l0.111119 1.05414c1.0877,-0.0876276 1.6392,-0.309866 1.65859,-0.672682 0.0141696,-0.227832 -0.130509,-0.36729 -0.436274,-0.424341 -0.357595,-0.0354239 -0.800581,-0.0216272 -1.3338,0.0428816l0.000372883 0zm1.01387 -2.77724c1.35991,0.0876276 2.42374,0.741665 3.19375,1.95726 0.137594,0.329256 0.19651,0.698783 0.173018,1.11119 -0.0425087,0.843462 -0.603698,1.64181 -1.68655,2.40286 0.194272,0.170408 0.954581,1.11604 2.28428,2.83839l-2.34133 1.55492 -2.26266 -3.24856 0.139831 2.84547 -3.02595 0.416884 -1.43821 -9.3288c0.568274,-0.198747 1.98337,-0.393392 4.24155,-0.582817l0.722648 0.0331866 -0.000372883 0zm7.37153 2.58967l0.478409 4.38846c1.05675,-0.454918 1.70892,-1.24655 1.95987,-2.37415 0.123052,-0.75136 -0.130509,-1.34163 -0.76553,-1.77269 -0.597359,-0.291222 -1.15407,-0.372138 -1.67275,-0.241628zm1.77008 -2.44947c2.04265,0.670444 3.16578,1.86703 3.37422,3.58676 0.0522037,0.528749 0.0022373,1.07353 -0.144306,1.63286 -0.343798,1.54038 -1.5098,2.88612 -3.49988,4.03311 -1.30546,0.509732 -2.57103,0.74614 -3.79633,0.715563l-1.41696 -9.53239c1.73913,-0.66597 3.56849,-0.810276 5.48325,-0.435901l0 0zm-52.9808 -6.64366c2.45581,-0.218883 3.71541,-0.753597 3.77395,-1.59967 0.101797,-0.462375 -0.111865,-0.763665 -0.65702,-0.89492 -1.02617,-0.2379 -2.10045,-0.155492 -3.23364,0.24312l0.11634 2.25184 0.000372883 -0.000372883zm-0.884852 -10.9318l0.19912 1.96957c1.38563,-0.3699 2.1396,-0.992243 2.26638,-1.8674 -0.0391528,-0.247967 -0.20434,-0.418375 -0.501155,-0.51085 -0.54963,-0.126407 -1.2059,0.00969497 -1.96435,0.408307l0 0.000372883zm17.2198 9.1472l3.20978 -0.111865 -1.08434 -3.61809 -0.885225 0 -1.24021 3.72995zm-1.47848 -13.8742l5.79684 0 5.95718 17.0109 -5.91356 3.44768 -0.81214 -2.82049 -4.58572 0 -1.11343 2.70378 -5.36616 -2.66873c-0.0369155,0.0648817 -0.0753224,0.129391 -0.114475,0.193526 -1.93079,2.21269 -6.55529,3.083 -13.8795,2.62062l-2.50876 -18.5666c3.53493,-1.63397 6.77865,-2.1493 9.73076,-1.55119 2.81527,0.855767 4.12894,2.50913 3.94883,4.96047 -0.26773,1.09851 -1.00194,2.15377 -2.20784,3.16056l1.16675 0.272205c2.95659,1.04109 4.52755,2.71384 4.71697,5.01416 0.0175255,0.285629 0.0205086,0.565664 0.00857632,0.840479l5.17562 -14.6174zm18.5819 15.6589c2.45544,-0.218883 3.71504,-0.753597 3.77358,-1.59967 0.10217,-0.462375 -0.111865,-0.763665 -0.656648,-0.89492 -1.02617,-0.2379 -2.10082,-0.155492 -3.23402,0.24312l0.116712 2.25184 0.000372883 -0.000372883zm-0.885225 -10.9318l0.19912 1.96957c1.38601,-0.3699 2.13998,-0.992243 2.26638,-1.8674 -0.0391528,-0.247967 -0.20434,-0.418375 -0.500782,-0.51085 -0.54963,-0.126407 -1.2059,0.00969497 -1.96472,0.408307l0 0.000372883zm2.93273 -4.35751c2.81527,0.85614 4.12856,2.5095 3.94846,4.96047 -0.26773,1.09889 -1.00156,2.15415 -2.20784,3.16093l1.16712 0.272205c2.95659,1.04109 4.52755,2.71384 4.71697,5.01379 0.0924751,1.51764 -0.228577,2.88425 -0.967632,4.09016 -1.93079,2.21269 -6.55529,3.083 -13.8795,2.62062l-2.50876 -18.5666c3.53493,-1.63397 6.77865,-2.14967 9.73076,-1.55157l0.000372883 0zm11.0146 -0.0876276l4.38623 5.80169 2.84995 -6.01535 4.57118 3.71988 -8.26198 16.7529 -5.61227 -4.01633 3.63263 -6.06942 -5.69952 -6.57953 4.13378 -3.59385zm-13.504 -83.9435l-2.19218 1.82713c-2.81713,-1.35133 -6.89424,1.7697 -8.62218,3.07181 -1.58811,1.19621 -1.7794,1.9196 -2.96852,3.24334 -0.973598,1.0836 -2.51212,1.62167 -3.49988,2.52889l-1.71862 5.04176c1.68655,-0.45007 2.04676,-2.62062 2.79327,-4.14945 1.66716,-3.41263 3.2012,-1.45126 4.08606,-3.22283 1.81967,-3.64382 4.70019,-5.05182 8.83361,-5.05182 1.56611,0 1.59631,-1.46208 2.92303,-1.46208l0.365799 0c1.26035,0 1.95055,1.8275 4.01931,1.8275 1.02916,0 0.67641,-0.158103 1.09628,-0.730851 -3.54985,0.827055 -2.07174,-1.94048 -4.46677,-2.57849l0.788648 -3.51927 6.94905 -0.661868 0.148035 0.418748 -5.0067 2.75635 -0.303527 -0.366544 1.58811 1.4494 -1.15855 1.40502c0.979937,0.234544 0.688716,0.365426 1.4617,0.365426 1.51652,0 3.25117,-2.33239 3.28883,-4.01931 2.25371,-0.0499664 3.85599,0.141696 4.01968,-1.82676 -4.0965,-0.954208 -12.2679,-3.35297 -12.4241,3.65388l-0.000372883 0zm-56.3583 -14.2777l95.3534 0 0 143.03 -95.3534 0 0 -143.03z"/>
 </g>
</svg>
