<?xml version="1.0" encoding="UTF-8"?>
<!DOCTYPE svg PUBLIC "-//W3C//DTD SVG 1.1//EN" "http://www.w3.org/Graphics/SVG/1.1/DTD/svg11.dtd">
<!-- Creator: CorelDRAW -->
<svg xmlns="http://www.w3.org/2000/svg" xml:space="preserve" width="1in" height="2in" style="shape-rendering:geometricPrecision; text-rendering:geometricPrecision; image-rendering:optimizeQuality; fill-rule:evenodd; clip-rule:evenodd"
viewBox="0 0 0.0777123 0.0969024"
 xmlns:xlink="http://www.w3.org/1999/xlink">
 <defs>
  <style type="text/css">
   <![CDATA[
    .fil0 {fill:black}
   ]]>
  </style>
 </defs>
 <g id="Layer_x0020_1">
  <metadata id="CorelCorpID_0Corel-Layer"/>
  <path class="fil0" d="M0.0504267 0.00663015c-0.00186702,-0.000155474 -0.00290917,-0.00178512 -0.00586512,-0.00178512l-0.00178506 0c-0.000879223,0 -0.000987411,0.000188703 -0.00178506,0.000255049l0 0.000765035c0.00277614,0.00064679 0.00519455,0.000430804 0.00729962,0.00188058 0.0017071,0.00117572 0.00340132,0.00308192 0.00487726,0.00455798 0.00146456,0.0014645 0.00357146,0.00306164 0.0044903,0.00494494 0.000704246,0.00144316 0.000740641,0.00178845 0.000952571,0.00363758 0.000245213,0.00213941 0.000627175,0.00246908 0.00099569,0.00384935 0.00351556,-0.000938624 -0.00113477,-0.00932595 -0.00126352,-0.0104668 -0.000381628,-0.00338103 0.00047059,-0.00340082 -0.00194976,-0.00519044 -0.000771203,-0.000570164 -0.00367181,-0.0028301 -0.00367181,-0.00372321 0,-0.0036058 0.00714753,-0.00662054 0.0099479,-0.000512765 0.00094468,0.0020605 0.000943402,0.00463655 0.00162826,0.00704207 0.000951904,0.00334458 0.00169105,0.0035694 0.00295918,0.00596597 -0.000700411,0.000163142 -0.00103642,0.000509986 -0.00153007,0.000509986 -0.00177189,0 -0.00196337,-0.00158764 -0.00433516,-0.00178501 0.000348733,0.00419069 0.00816022,0.00316622 0.00816022,0.00127502 0,-0.000157086 -0.00236729,-0.00330285 -0.00281131,-0.00432888 -0.000638344,-0.00147539 -0.000979354,-0.00424509 -0.00126774,-0.00612739 -0.000619063,-0.00404027 -0.00254604,-0.00739413 -0.0071412,-0.00739413l-0.00127502 0c-0.00340771,0 -0.00636144,0.00340109 -0.00663015,0.00663015zm-0.00612017 0.0109653c0,0.00360302 0.0047094,0.00816022 0.00841527,0.00816022l0.000254938 0c0.000879168,0 0.000987411,-0.000188703 0.00178501,-0.000255049l0 -0.000765035c-0.00256349,-0.000597225 -0.00466256,-0.0012084 -0.00622041,-0.00295962 -0.00143661,-0.0016147 -0.00240735,-0.00515987 -0.00423481,-0.00520055l0 0.00102003zm0.000764979 0.0127503l0.0023659 -0.000657737 -0.00134587 -0.000617284c-0.000731473,0.000386963 -0.0013791,0.000512653 -0.00102003,0.00127502zm-0.00739513 -0.0155554c0,0.00173722 0.00102003,0.00259788 0.00102003,0.00433516 0,0.0100536 -0.00651986,0.00966212 -0.00714025,0.0119853l0.000765146 0c0.00431716,0 0.00841516,-0.00640456 0.00841516,-0.0112203l0 -0.000510042c0,-0.00226065 -0.000558884,-0.00428932 -0.00178506,-0.00535508 -0.000447141,0.000214485 -0.00127502,0.000273552 -0.00127502,0.000764979zm-0.00841522 0.00841522c0,0.0068742 -0.00505058,0.00759484 -0.00561018,0.00969024 0.00356879,0.000755867 0.00765024,-0.00555345 0.00765024,-0.00994523 0,-0.00105648 -0.000224543,-0.00255004 -0.00127502,-0.00255004l-0.000255049 0c-0.00141683,0 -0.000509986,0.00178073 -0.000509986,0.00280504zm-0.00241279 0.0128876l0.00299363 -0.000795096 -0.00146356 -0.000734918 -0.00153007 0.00153001zm-0.0139077 -0.0154377c-0.00191959,0 -0.00375988,-0.00127502 -0.00612017,-0.00127502l-0.000254938 0c-0.00245358,0 -0.00477936,0.00216341 -0.00561474,0.00382051 -0.00152396,0.00302285 -0.00109521,0.00418208 0.000427359,0.00697705 0.00278103,0.00510509 0.00529557,0.0052804 0.00595241,0.013173 0.00230333,-5.13431e-005 0.00510008,-0.00400915 0.00510008,-0.0068852l0 -0.000254938c0,-0.000688631 -0.000121801,-0.000703079 -0.000254938,-0.00127502 -0.00179179,0.000149028 -0.00100414,0.00134176 -0.00142361,0.00291161 -0.00041219,0.00154274 -0.00109893,0.00189503 -0.00138149,0.00295351l-0.000510097 0c-0.00045931,-0.00552028 -0.00688509,-0.0102949 -0.00688509,-0.0142804l0 -0.00127502c0,-0.00226849 0.00223365,-0.00484504 0.00433505,-0.00484504l0.00127513 0c0.000891003,0 0.00306003,0.000572609 0.00306003,0.00127497 0,0.00188519 -0.00153007,0.00423492 -0.00153007,0.00612022 0,0.00221876 0.0025451,0.00252493 0.00357463,0.00458554 0.000530935,0.00106248 0.00194387,0.00510464 0.00305553,0.00510464l0.000765035 0c-0.000169032,-0.00203089 -0.00229499,-0.00354457 -0.00229499,-0.00688509l0 -0.000510097c0,-0.00195015 0.00128936,-0.00906373 0.0018114,-0.0106839 0.000873611,-0.00271063 0.00296673,-0.00605216 0.00495122,-0.00779904 0.00247958,-0.00218286 0.00448197,-0.00352206 0.00780816,-0.00468712 0.00198249,-0.000694521 0.00272563,-0.000986744 0.00512848,-0.00126613 0.00180679,-0.00021004 0.00305886,0.00079004 0.00554634,0.000210596 -0.000623008,-0.00233317 -0.00632065,-0.00167999 -0.00877929,-0.00112916 -0.00353973,0.000793151 -0.00528117,0.00167276 -0.00784783,0.00337253 -0.00208768,0.00138237 -0.0042257,0.003488 -0.00571592,0.00550433 -0.000708246,0.000958405 -0.00347077,0.00704262 -0.00417769,0.00704262zm0.0328959 0.0127503c0,0.00247608 0.000776815,0.00360763 0.00280498,0.00408011 0.00220125,-0.00147395 0.000765146,-0.00230561 0.000765146,-0.00484504 -0.000195648,-0.000131081 -0.00107926,-0.000765146 -0.00127513,-0.000765146 -0.00106181,0 -0.00229499,0.00045053 -0.00229499,0.00153007zm-0.00746226 0.00633927c0.00108448,-0.000201094 0.00209173,-0.000267051 0.00261617,-0.000978187l-0.0019721 -0.000225043 -0.000644067 0.00120323zm-0.010616 -0.00118173c7.94596e-006,0.00152179 0.00146906,0.00453264 0.00303291,0.00453264 0.00208312,0 0.00166715,-0.00415224 -0.000556773,-0.00570831l-0.00247614 0.00117567zm0.0150296 0.00277909l-1.14466e-005 0.000988633c-0.000482203,0.000720026 -0.00136682,0.00153007 -0.0025501,0.00153007 -0.000787761,0 -0.00121507,-0.000549772 -0.00153174,-0.00102475l0.00409328 -0.00149395zm-0.00613161 0.000733584c-0.000308226,0.00046031 -0.000509986,0.000448363 -0.000509986,0.00101997l0 0.000255049c0,0.00229722 0.00209784,0.00382517 0.00433505,0.00382517 0.00254421,0 0.00561013,-0.00222237 0.00561013,-0.0045901l0 -0.000255049c0,-0.00105192 -0.000905228,-0.00280509 -0.00204,-0.00280509 -0.000547882,0 -0.00317066,0.00255004 -0.00739519,0.00255004zm-0.0104552 0.0153005c0,-0.0016202 0.0024872,-0.00215825 0.0029644,-0.00315571 0.000941235,-0.00196732 0.00164315,-0.00185969 0.00341071,-0.00092451l0.00126202 -0.000306947c-0.000281054,0.00358635 -0.00114005,0.00209207 -0.00202705,0.00209207 -0.000591613,0 -0.00183424,0.0022951 -0.00280498,0.0022951 -0.000431916,0 -0.000953071,-0.000339676 -0.00127502,-0.000510097l-0.00136798 0.00165865 -0.000162086 -0.00114855zm0.000764924 -0.00484515c0.000502985,0 0.000631398,-0.00102008 0.00153007,-0.00102008 0.000492316,0 0.000453976,8.02931e-005 0.000765035,0.000255049 -0.00051382,0.00192437 -0.00372893,0.00314666 -0.00510008,0.00127502 0.000914341,-0.00124807 0.00130925,-0.000509986 0.00280498,-0.000509986zm0.0188705 0.00306003c0.00552856,0 0.004923,-0.00440979 0.00586512,-0.00510008 0.000172477,0.000645901 0.000492594,0.00127502 0.00127502,0.00127502l0.000254938 0c0.000996023,0 0.00189481,-0.000195482 0.00255015,-0.000509986 -0.000198427,0.000851551 -0.00119845,0.00194093 -0.000805765,0.00235734 0.000740197,0.000784983 0.00193715,-0.000280276 0.00233583,0.00121268l-0.00194654 0.00162353 0.000261605 2.22265e-005 0.00132397 0.000951904 -0.00014914 0.00020754c-0.00123774,0.000288277 -0.00395981,0.000679852 -0.00507464,0.00104537 -0.00131219,0.00043036 -0.00304597,0.00150456 -0.00461555,0.00150456l-0.0022951 0c-0.00193509,0 -0.00389174,-0.00152996 -0.00510014,-0.00152996l-0.000764979 0 -0.00382101 0.000298057 0.000316283 -0.00513859c0.00336492,0.000280831 0.00648046,0.0017804 0.0103899,0.0017804zm0.0255006 -0.00612006c0.00116783,0 0.000511987,-0.00127513 0.00178501,-0.00127513 0.000565052,0 0.00153007,0.00167832 0.00153007,0.00255015l0 0.00127502c0,0.00461621 -0.00656325,0.00585412 -0.0051002,0.00280498l-0.00172333 -0.00214785 0.000290889 2.5227e-005 0.00178951 -0.00101186 -0.0012808 -0.00212735 0.00270885 -9.31845e-005zm-0.0221981 -0.000524989c0.000885113,0.00183346 -0.00118462,0.00421086 -0.0025376,0.00486004l-0.0015758 -0.000947736c-0.000518488,0.000226265 -0.00119834,0.000692688 -0.00199427,0.000692688l-0.000509986 0c-0.00111405,0 -0.000926066,-0.000509986 -0.00204011,-0.000509986l-0.00280504 0c0.000390741,-0.00146322 0.00224226,-0.00083127 0.00393692,-0.00116317 0.00148217,-0.000290444 0.00344883,-0.00138688 0.00371326,-0.00138688 0.000960406,0 0.000482259,0.000167754 0.00158319,0.000318505l0.00222943 -0.00186347zm-0.0323734 -0.0073803c0,-0.00115028 0.000607505,-0.00179368 0.00153007,-0.00204006l0.00238268 0.00582833 -0.00110754 3.67848e-005c-0.00163153,0 -0.0028052,-0.00189636 -0.0028052,-0.00357001l0 -0.000255049zm0.038165 -0.00664121l0.0135575 0.00210568 4.38973e-005 -0.000309615 0.000254938 0 0.00331091 -0.000295056 4.16746e-006 0.00463022 -0.00101808 0.000513154c-0.00207695,-3.16727e-006 -0.00605677,-0.0012294 -0.00714203,0.000251881l0.00762234 0.00122018 0.000456143 0.000610505c-0.000251604,0.000626564 -0.000173311,-0.00025566 -0.000173311,0.00071936l0 0.000765035 -0.000770369 0.00024099c-0.00245286,-0.000190536 -0.00586512,-0.0012174 -0.00789995,-0.00024099l0.000302669 0.000746698 0.0070564 0.00083277 3.08948e-005 -0.0002905 0.000752088 0.000288611c-0.000275108,0.00105092 -0.00259544,0.00212224 -0.00406183,0.00199244l-0.00407544 -0.000307614c0.000223987,0.00214274 0.0038204,0.000852052 0.0038204,0.00260272 0,0.000940068 -0.000765035,0.000997301 -0.000765035,0.00178512l0 0.000254938c0,0.00124101 0.00178512,0.00287327 0.00178512,0.00484515 0,0.00067135 -0.00318,0.00141938 -0.00408011,0.00127502l-0.00561035 -0.00076409c3.73405e-005,-0.00167099 0.00102025,-0.00257794 0.00102025,-0.00357107 0,-0.00132397 -0.00134526,-0.00261322 -0.00182996,-0.00352528 -0.000881057,-0.00165787 -0.00135943,-0.00131986 -0.00378022,-0.00131986 -0.000142138,-0.000212318 -0.000526323,-0.000638733 -0.000654125,-0.000783594l0.00184313 -0.0142728zm0.0181915 -0.00100891c0,0.00137743 -0.00390058,0.00178501 -0.00535513,0.00178501 -0.00277431,0 -0.0124954,-0.00183702 -0.0124954,-0.00408011l0 -0.000255049c0,-0.000587612 0.000177534,-0.000764924 0.000765146,-0.000764924 0.00139488,0 0.00591118,0.00229499 0.0102002,0.00229499l0.00102008 0 0.00534919 -0.000557662c0.000314116,0.000507875 0.000515932,0.000496039 0.000515932,0.00106765l0 0.000510097zm-0.0155554 -0.0051002c0.0016841,-0.00251487 0.00302313,-0.00142138 0.00453876,-0.00285638 0.00137476,-0.00130164 0.00163631,-0.00428382 0.00285643,-0.00428382l0.000255049 0c0.00266379,0 0.0012409,0.00295984 0.00264467,0.00500551 0.000941624,0.00137254 0.00272052,0.00241146 0.00373043,0.0039198 -0.00356096,0.00170866 -0.0121358,0.000793707 -0.0140253,-0.00178512zm-0.0382509 0.00714025c0,-0.00363464 0.00408011,-0.00420964 0.00408011,-0.00816022l0 -0.00102008c0,-0.000782316 -0.00062912,-0.00110254 -0.00127502,-0.00127502l-0.000513154 0.00101808c3.05614e-006,0.00605171 -0.00484209,0.00717581 -0.00484209,0.00841716 0,0.000199983 0.00102008,0.00110288 0.00102008,0.0022951 0,0.000764924 -0.00280509,0.00233506 -0.00280509,0.00433505l0 0.000509986c0,0.00288061 0.00235923,0.00467956 0.00509992,0.00484537 0.00423764,0.000256549 0.00418208,0.00298418 0.00637538,0.0035699l-0.00424348 0.0028067 0.000141638 0.000298057 0.00328424 0.00159392c-0.000204317,0.000993968 -0.000967407,0.00211074 -0.000967407,0.00295145l0 0.000255049c0,0.000797541 0.000457698,0.000722471 0.00102008,0.00102008 0.000958683,-0.000460088 0.00250665,-0.000482759 0.00391414,-0.00118606 0.000736752,-0.000368015 0.00292178,-0.00148873 0.00348094,-0.00161914l6.95688e-005 0.00204017c-6.95688e-005,0.000778037 0.000175311,0.00102897 0.000440529,0.00152996 0.00141427,0 0.00522327,8.97394e-005 0.00658215,0.000302947 0.00185269,0.000290778 0.00314971,0.000972074 0.00565814,0.000972074 0.00347672,0 0.00555578,-0.00178501 0.00765013,-0.00178501l0.00102008 0c0.00418152,0 0.0115046,0.00100547 0.0141171,-0.000418247 0.00123813,-0.000674795 0.00373699,-0.00203055 0.00486137,-0.00278881 0.00139582,-0.000941402 0.00269707,-0.00279259 0.00269707,-0.00495317l0 -0.00127502c0,-0.00217997 -0.00202594,-0.00286244 -0.0028052,-0.00433505l0.00136621 -0.0135066c-4.80647e-005,-0.000455587 -0.00409739,-0.00520327 -0.00464005,-0.00591502 -0.00169949,-0.00222926 -0.000484315,-0.00633404 -0.00412123,-0.00633404l-0.000255049 0c-0.00349728,0 -0.0038244,0.00294412 -0.00510008,0.00535513 -0.00261522,5.82333e-005 -0.0070045,0.00369204 -0.00714953,0.00585584 -0.000174922,0.00260839 3.78961e-005,0.003777 -0.000395464,0.0062348 -0.000351178,0.00199255 -0.000643678,0.00350989 -0.000897671,0.00547738 -0.000527045,0.0040825 -0.00346622,0.00484298 -0.00688954,0.00611589 -0.00279453,0.00103898 -0.0069276,0.00207178 -0.0106785,0.00207178l-0.000254993 0c-0.00411901,0 -0.008741,-0.00247836 -0.0104554,-0.00484515 -0.00167476,-0.00231222 -0.00458999,-0.00664571 -0.00458999,-0.0104552zm0.0285607 0.042076c0,-0.000688798 0.00012169,-0.000703134 0.000254938,-0.00127502l0.00407556 0.000307614c0.000269774,0.000448308 0.000514654,0.000699356 0.000514654,0.00147739 0,0.000509986 -0.00105976,0.00102003 -0.00178512,0.00102003l-0.00204006 0c-0.000596947,0 -0.00101997,-0.000423081 -0.00101997,-0.00102003l0 -0.000509986zm0.00408 -0.00586512c-0.000667572,0.000768091 -0.0010727,0.00127502 -0.00254993,0.00127502 -0.00108315,0 -0.00125102,-0.00223204 -0.00127513,-0.00331519 0.00217608,4.85648e-005 0.00303914,0.000554606 0.00382506,0.00204017zm0.0022951 0.00255004c0.000357624,-0.000533991 0.00101997,-0.00169316 0.00101997,-0.00255004l0 -0.000765035c0,-0.00260361 -0.00260566,-0.00433516 -0.00510008,-0.00433516l-0.00357007 0c-0.0023395,0 -0.00204,0.0114853 -0.00204,0.0142804l0.000808432 0.000980687 0.00275441 0.000352123 0.0012823 -5.77888e-005c0.00366159,0 0.00663015,-0.000390352 0.00663015,-0.00408011l0 -0.000764979c0,-0.00149812 -0.00117839,-0.00215397 -0.00178512,-0.00306008zm0.0158104 -0.000509986c-0.00283071,0 -0.00055405,0.00841516 0.00127513,0.00841516 0.00159314,0 0.00637511,-0.00354395 0.00637511,-0.00535513 0,-0.0015468 -0.000997524,-0.0017949 -0.00204006,-0.0022951l-0.00281654 0.002026c-0.000122468,-0.00159642 -0.00116128,-0.00279092 -0.00279364,-0.00279092zm-0.0337771 -0.00360808c0.00137593,0.000374238 0.00203772,0.00269285 0.0021563,0.00411806l-0.00358113 0.000251381 0.00142483 -0.00436945zm-0.00166876 0.0110032c0,-0.00570403 0.00104809,-0.00274764 0.00382506,-0.00408l0.0007542 0.000529157c1.0891e-005,0.00195193 3.47289e-005,0.00482592 0.00205089,0.00482592 0.000720193,0 0.000983799,-0.000585223 0.00127508,-0.00102003 0,-0.00474535 -0.00103459,-0.0150454 -0.00510014,-0.0150454l-0.000509986 0c-0.00448852,0 -0.00535524,0.00733707 -0.00535524,0.0119854l0 0.00229505c0,0.000782927 0.000236212,0.00153001 0.00102008,0.00153001l0.000765035 0c0.000720193,0 0.000983799,-0.000585167 0.00127502,-0.00102008zm-0.0209105 0.00178512c0.000351289,-0.0015079 0.0022951,-0.0048711 0.0022951,-0.00612017 0,-0.00110977 -0.000488704,-0.00280504 -0.00153007,-0.00280504l-0.000509986 0c-0.00121029,0 -0.0017879,0.00173655 -0.00255015,0.00229505 -0.000789484,-0.000528768 -0.00130091,-0.00178512 -0.00255004,-0.00178512 -0.000738474,0 -0.00178501,0.000917231 -0.00178501,0.00204006l0 0.000510097c0,0.00240518 0.00491644,0.00471751 0.00663015,0.00586512zm0.0535514 -0.0145353c-0.000760256,0 -0.0043885,0.00525723 -0.00484515,0.00612006 -0.00167699,-0.00112294 -0.00203739,-0.00663015 -0.00357013,-0.00663015l-0.000765035 0c-0.000529157,0 -0.00127502,0.000745976 -0.00127502,0.00102008 0,0.00284304 0.00331508,0.00649963 0.00331508,0.0102002l0 0.000510042c0,0.00133103 -0.000509986,0.00147545 -0.000509986,0.00255004 0,0.000592558 0.00133687,0.00102003 0.00204006,0.00102003 6.99022e-005,0 0.000466033,-0.0001757 0.000765035,-0.000254993 0.000758645,-0.0032564 0.000409634,-0.00518405 0.00261217,-0.00733307 0.00076009,-0.000741642 0.00401799,-0.004662 0.00401799,-0.00567231 0,-0.000974853 -0.000754977,-0.00152996 -0.00178501,-0.00152996zm-0.0453912 0.0112203c-5.37325e-005,-0.00240985 -0.000873945,-0.00255004 0.00306003,-0.00255004 0.000521766,0 0.00127863,0.000899505 0.00153007,0.00127502 -0.0010587,0.00158091 -0.0015538,0.00131525 -0.00357001,0.00178501l-0.00102008 -0.000509986zm-0.00101997 -0.00816022c0,-0.000422247 0.00134498,-0.000787206 0.00178501,-0.00101997 0.000614673,0.000411523 0.00178512,0.000780871 0.00178512,0.00152996l0 0.000765035c0,0.000935956 -0.00155991,0.00127508 -0.00255015,0.00127508 -0.000717248,0 -0.00101997,-0.00171872 -0.00101997,-0.0025501zm-0.00331508 -0.00204006c0,0.00230266 0.000651624,0.00558384 0.000964795,0.00770536 0.000346511,0.0023475 -0.000263828,0.00631998 0.00235028,0.00631998 0.0039437,0 0.0091802,-0.00112794 0.0091802,-0.00510008l0 -0.000510097c0,-0.00163159 -0.00145033,-0.00273313 -0.00255004,-0.00331508 0.000224321,-0.000963128 0.000509986,-0.00159508 0.000509986,-0.00280498l0 -0.000255049c0,-0.00213969 -0.00211618,-0.00382517 -0.00433516,-0.00382517 -0.00200422,0 -0.00612006,-4.21747e-005 -0.00612006,0.00178512zm0.0104724 0.0168465l-0.000272107 -1.61698e-005c-0.000571943,-0.000133137 -0.00058639,-0.000254993 -0.00127513,-0.000254993 -0.0011041,0 -0.00127502,0.00471023 -0.00127502,0.00612022 -0.00127074,-0.000931178 -0.00306225,-0.00586523 -0.0045901,-0.00586523 -0.00113605,0 -0.00127502,0.00347372 -0.00127502,0.00484515l0 0.00331508c0,0.000704801 0.000830214,0.00123224 0.00127502,0.00153001 0.00126507,-0.00188914 0.00101997,-0.000970574 0.00101997,-0.00408006 0.00143377,0.000960072 0.00244586,0.00433505 0.00459021,0.00433505l0.000764924 0 0.000509097 -0.00102003 0.000528156 -0.00890903zm0.0252899 0.00178606c0.000804598,0.000214041 0.00113183,0.0012948 0.00121362,0.00227788l-0.00184657 -1.71699e-005 0.000632954 -0.00226071zm0.00146295 0.00455415c4.52309e-005,0.00179345 0.000750699,0.00329368 0.00255577,0.00333386 0.000133192,-0.000571887 0.000254938,-0.000586279 0.000254938,-0.00127502 0,-0.00290222 -0.00104175,-0.00969024 -0.00382506,-0.00969024 -0.00345827,0 -0.00453648,0.00876056 -0.00306014,0.0109653l0.00259205 -0.000914397 -0.000529712 -0.00181651 0.00201216 -0.000602948zm-0.0117246 0.000273774c0,-0.00336259 -0.000605949,-0.00294312 0.00229505,-0.00433505l0.00174922 0.00347405c-0.000323673,0.000251993 -0.00225265,0.00188108 -0.00225926,0.00188108 -0.000755755,0 -0.00127185,-0.000676407 -0.00178501,-0.00102008zm0.00178501 0.00331508c0.00251959,0 0.00433516,-0.00237201 0.00433516,-0.00484509l0 -0.000254993c0,-0.00198782 -0.00165176,-0.0045901 -0.00357013,-0.0045901l-0.00153001 0c-0.00241691,0 -0.00331508,0.00280198 -0.00331508,0.00535513 0,0.00194804 0.00117461,0.00433505 0.00306008,0.00433505l0.00101997 0zm-0.0336608 -0.00535513c0,-0.00104909 0.00124752,-0.00255004 0.00204006,-0.00255004l0.000509986 0c0.00143416,0 0.00200805,0.00182796 0.0022951,0.00306008 -0.000915119,0.00172955 -0.000773481,0.00186502 -0.00255015,0.00280504 -0.00134215,-0.000710136 -0.00229499,-0.00118428 -0.00229499,-0.00331508zm0.00153007 -0.00510008c-0.00435411,0 -0.0061829,0.0107103 0.000254938,0.0107103l0.000765035 0c0.00224854,0 0.0045901,-0.00251609 0.0045901,-0.00484515 0,-0.00300063 -0.0013187,-0.00586512 -0.00433505,-0.00586512l-0.00127502 0zm0.0232584 0.0064414l0.00147184 0.00070908c-0.000600781,0.000894949 -0.00106987,0.00123185 -0.00254476,0.00126469l-0.000328063 -0.000856664 0.00140099 -0.0011171zm-0.00132559 -0.00389058l0.00127691 0.000500151c-0.000424137,0.000636288 -0.000829547,0.00143416 -0.00190236,0.0015039l0.000625453 -0.00200405zm-0.00306242 -0.00102075c0,0.0021004 0.000590446,0.0091802 0.0022951,0.0091802 3.76739e-005,0 0.00431449,-0.000787373 0.00449591,-0.000859275 0.00148895,-0.000589613 0.00214341,-0.00163548 0.00169755,-0.00328152 -0.000548605,-0.00202555 -0.00088528,-0.000721082 -0.00139449,-0.00397326 -0.000213652,-0.00136465 -0.00113099,-0.00259622 -0.00275886,-0.00259622l-0.00153007 0c-0.00158903,0 -0.00217014,0.000581778 -0.00280515,0.00153007zm0.038251 0.00663015c0.000676629,-0.00141016 -7.22916e-005,-0.00535513 0.00178501,-0.00535513 0.000985577,0 0.00106643,0.00117761 0.00204006,0.00153001 -7.24583e-005,0.000871666 2.21709e-005,0.00357007 -0.00101997,0.00357007 -0.000688743,0 -0.00070319,-0.000121745 -0.00127502,-0.000254993l-0.00153007 0.000510042zm-0.00816022 -0.00510008c0,-0.000417469 0.000152696,-0.00076509 0.000509986,-0.00076509 0.000649846,0 0.00153007,0.000551383 0.00153007,0.00127502 0,0.000984188 -0.0010307,0.00102003 -0.00204006,0.00102003l0 -0.00152996zm0.00331508 0.00331508c0,-5.5455e-005 0.00153007,-0.00174694 0.00153007,-0.00331508 0,-0.00236028 -0.00336881,-0.00338359 -0.00561018,-0.00357013 -0.00124557,0.000834048 -0.0022951,0.00544365 -0.0022951,0.00765013l0 0.00127502c0,0.00138449 0.000891892,0.0018224 0.00178512,0.0022951l0.00133487 -0.00364397c0.000446307,0.000767702 0.00313365,0.00338892 0.00402027,0.00338892 0.000430471,0 0.000892837,-0.000764924 0.00153007,-0.000764924 7.32362e-005,0 0.00125113,0.00101997 0.00280498,0.00101997l0.000510097 0c0.00350778,0 0.00512142,-0.0022207 0.00637511,-0.0045901 -0.000798875,-0.00342927 -0.0015548,-0.00612017 -0.00586512,-0.00612017l-0.00102008 0c-0.00275892,0 -0.00235223,0.00666372 -0.00331508,0.00867021 -0.000381684,-0.000255604 -0.00178501,-0.00178645 -0.00178501,-0.00229499z"/>
 </g>
</svg>
