<?xml version="1.0" encoding="UTF-8"?>
<!DOCTYPE svg PUBLIC "-//W3C//DTD SVG 1.1//EN" "http://www.w3.org/Graphics/SVG/1.1/DTD/svg11.dtd">
<!-- Creator: CorelDRAW -->
<svg xmlns="http://www.w3.org/2000/svg" xml:space="preserve" width="25in" height="39in" style="shape-rendering:geometricPrecision; text-rendering:geometricPrecision; image-rendering:optimizeQuality; fill-rule:evenodd; clip-rule:evenodd"
viewBox="0 0 0.391749 0.410931"
 xmlns:xlink="http://www.w3.org/1999/xlink">
 <defs>
  <style type="text/css">
   <![CDATA[
    .fil0 {fill:#141516}
   ]]>
  </style>
 </defs>
 <g id="Layer_x0020_1">
  <metadata id="CorelCorpID_0Corel-Layer"/>
  <path class="fil0" d="M0.0389961 0.274501l0.000546719 0c0.00220836,0 0.00383658,0.0015184 0.00490614,0.00455519 0.000186219,0.000598048 0.000279328,0.00122475 0.000279328,0.00188845l0 0.00912232c0.00272166,-0.000892894 0.00531439,-0.0013286 0.00775553,-0.0013286l0.000279328 0c0.00740696,0 0.0130819,0.0029986 0.0170342,0.00900654 0.00109344,0.00207944 0.00162822,0.00414814 0.00162822,0.00622639l0 0.000227998c0,0.00502074 -0.00267391,0.00916888 -0.00803486,0.0124528 -0.00326718,0.00185144 -0.00681369,0.00278134 -0.0106276,0.00278134l-0.000279328 0c-0.00705721,0 -0.0126044,-0.00278134 -0.0166152,-0.00834283 -0.00136083,-0.00220239 -0.00204721,-0.00450864 -0.00204721,-0.00689128l0 -0.0233585c0,-0.00297114 0.00136083,-0.00501119 0.00409323,-0.00612253 0.00033782,-0.000151601 0.00069832,-0.000217255 0.0010815,-0.000217255zm0.00599958 0.029025l0 0.000891701c0,0.00274314 0.0019541,0.00466979 0.00586111,0.00577994 0.00047629,7.63974e-005 0.000929899,0.000114596 0.00135963,0.000114596l0.00081411 0c0.00336029,0 0.00573219,-0.0015948 0.00709302,-0.00478439 9.31093e-005,-0.000389149 0.000127727,-0.000759199 0.000127727,-0.00111015l0 -0.000664896c0,-0.00278015 -0.00203408,-0.00474499 -0.00612731,-0.00589334l-0.00217494 0c-0.00280164,0 -0.00502313,0.0014038 -0.00668596,0.00422334 -0.000174282,0.000663702 -0.000267391,0.00114835 -0.000267391,0.00144319zm0.0529243 -0.0150157c0.00311677,0 0.00620967,0.000663702 0.00926796,0.00200185 0.0011388,-0.00133815 0.00249963,-0.00200185 0.00409323,-0.00200185 0.00240652,0 0.00412785,0.00133815 0.00517354,0.00400489 0.000279328,0.000683995 0.000407055,0.0015375 0.000407055,0.00256289l0 0.017569c0,0.00380554 -0.00162822,0.00602704 -0.00490734,0.00667164l-0.000673252 0.000114596c-0.00157092,0 -0.00293056,-0.000664896 -0.00409323,-0.00200304 -0.00310484,0.00133815 -0.00619774,0.00200304 -0.00926796,0.00200304 -0.00703453,0 -0.0125805,-0.00270494 -0.0166164,-0.00811483 -0.00109224,-0.0017846 -0.00163896,-0.00297114 -0.00163896,-0.00355964l0 -0.00756453c0.000267391,-0.00200304 0.0019541,-0.00445134 0.005047,-0.00734728 0.00405742,-0.00288519 0.00846459,-0.00433675 0.0132084,-0.00433675zm-0.0076278 0.0156889c0,0.00270494 0.00200066,0.00466979 0.00599958,0.00589454 4.77484e-005,0 0.000627891,3.81987e-005 0.00176788,0.000103853 0.0034534,0 0.00590647,-0.0016318 0.00736041,-0.00488824 0,-3.7005e-005 4.65547e-005,-0.000521651 0.000139664,-0.00145155 0,-0.00281954 -0.00199946,-0.00481184 -0.00599958,-0.00599839 -0.000767555,-7.63974e-005 -0.00136083,-0.000114596 -0.00176788,-0.000114596 -0.00307022,0 -0.00538363,0.0013286 -0.00695336,0.00400609 -0.0003605,0.000644603 -0.000546719,0.0014611 -0.000546719,0.0024483zm0.0398782 -0.0296983l0.000546719 0c0.00220836,0 0.00383658,0.0015184 0.00490614,0.00455519 0.000186219,0.000598048 0.000279328,0.00122475 0.000279328,0.00188845l0 0.00912232c0.00272046,-0.000892894 0.0053132,-0.0013286 0.00775553,-0.0013286l0.000279328 0c0.00740696,0 0.0130819,0.0029986 0.0170342,0.00900654 0.00109344,0.00207944 0.00162822,0.00414814 0.00162822,0.00622639l0 0.000227998c0,0.00502074 -0.00267391,0.00916888 -0.00803486,0.0124528 -0.00326718,0.00185144 -0.00681369,0.00278134 -0.0106276,0.00278134l-0.000279328 0c-0.00705721,0 -0.0126044,-0.00278134 -0.0166152,-0.00834283 -0.00136083,-0.00220239 -0.00204721,-0.00450864 -0.00204721,-0.00689128l0 -0.0233585c0,-0.00297114 0.00136083,-0.00501119 0.00409323,-0.00612253 0.000336626,-0.000151601 0.000697126,-0.000217255 0.0010815,-0.000217255zm0.00599958 0.029025l0 0.000891701c0,0.00274314 0.0019541,0.00466979 0.00586111,0.00577994 0.00047629,7.63974e-005 0.000929899,0.000114596 0.00135963,0.000114596l0.00081411 0c0.00336029,0 0.00573219,-0.0015948 0.00709302,-0.00478439 9.31093e-005,-0.000389149 0.000127727,-0.000759199 0.000127727,-0.00111015l0 -0.000664896c0,-0.00278015 -0.00203408,-0.00474499 -0.00612731,-0.00589334l-0.00217494 0c-0.00280164,0 -0.00502313,0.0014038 -0.00668596,0.00422334 -0.000174282,0.000663702 -0.000267391,0.00114835 -0.000267391,0.00144319zm0.0352156 -0.014845l0.00981348 0 0.000546719 0.000331851c0.000151601,0.0117891 0.00047629,0.0176824 0.000953774,0.0176824 0.00162703,0.00244949 0.00408129,0.00367304 0.00734847,0.00367304 0.00332567,0 0.00573219,-0.0015566 0.00722075,-0.00466979 9.31093e-005,-0.000502552 0.000139664,-0.0009108 0.000139664,-0.00122355l0 -0.000227998c0,-0.00320869 -4.65547e-005,-0.00828673 -0.000139664,-0.0152341l0.000546719 -0.000331851 0.0102205 0c0.000139664,0 0.000325883,0.000142051 0.000546719,0.000446447l0 0.0299167c0,0.00350234 -0.0019541,0.00698559 -0.00586111,0.0104593 -0.0040228,0.00274314 -0.00838342,0.00410994 -0.0130807,0.00410994l-0.000139664 0c-0.00605807,0 -0.0110585,-0.0021451 -0.0149882,-0.00645439l0 -0.000331851c0.000395118,-0.000408249 0.00311558,-0.0020687 0.00818646,-0.00500164l0.000533588 0c0.0019541,0.00177385 0.00400131,0.00266675 0.00614044,0.00266675l0.00081411 0c0.00288281,0 0.00515085,-0.0013286 0.00681369,-0.00400609 0.000267391,-0.000797398 0.000407055,-0.0014611 0.000407055,-0.00200185l0 -0.000331851 -0.000139664 0c-0.00238384,0.000891701 -0.00491928,0.00133815 -0.0076278,0.00133815 -0.00617386,0 -0.0113951,-0.00233489 -0.0156627,-0.00700468 -0.00199946,-0.00265839 -0.00299979,-0.00528694 -0.00299979,-0.00789758 -9.31093e-005,-0.00832373 -0.000139664,-0.0135164 -0.000139664,-0.0155755l0.000546719 -0.000331851zm0.028273 0.0610212l0.000114596 0c0.00288639,0 0.00515563,0.00166642 0.00680175,0.00499806 0.000556268,0.00134292 0.000832015,0.00271927 0.000832015,0.00412904l0 0.000136083c0,0.00345221 -0.00139306,0.00616551 -0.00418037,0.00812677 -0.00114238,0.00066609 -0.00229312,0.00100152 -0.0034534,0.00100152l-0.000114596 0c-0.00288639,0 -0.00515563,-0.00166642 -0.00679698,-0.00499925 -0.000556268,-0.00132979 -0.00083679,-0.00270614 -0.00083679,-0.00412904l0 -0.000136083c0,-0.00347489 0.00139306,-0.00618699 0.00418037,-0.00813274 0.00111373,-0.000664896 0.00226447,-0.00099436 0.0034534,-0.00099436zm-0.00306306 0.00899699l0 0.000528813c0,0.00143245 0.000760393,0.00254738 0.00228357,0.00333284l0.000670865 6.80414e-005 0.000331851 0c0.00137515,0 0.00234564,-0.000956161 0.00290191,-0.0028661 3.81987e-005,-0.000233967 5.25232e-005,-0.000455997 5.25232e-005,-0.00066609l0 -0.000397505c0,-0.00166642 -0.000832015,-0.00284461 -0.00250679,-0.00353219l-0.000889313 0c-0.00119848,0 -0.00213077,0.000909606 -0.00278731,0.00273001l-5.7298e-005 0.000802173zm0.0218723 -0.00899699c0.00248291,0 0.00458146,0.00128443 0.00629801,0.00386165 0.000932287,0.00152317 0.00139306,0.00325883 0.00139306,0.00519741l0 0.00906503c0,6.80414e-005 -7.04288e-005,0.000153988 -0.000218449,0.000267391l-0.00401444 0 -0.000223224 -0.000199349c-7.63974e-005,-0.00538482 -0.000114596,-0.00856486 -0.000114596,-0.00953177 0,-0.000619535 -0.000294846,-0.00135247 -0.000889313,-0.00220001 -0.000704288,-0.000711451 -0.00145036,-0.00106359 -0.00223104,-0.00106359 -0.00119848,0 -0.0021451,0.000687576 -0.00283864,0.00206392 -0.000190993,0.000454803 -0.000280522,0.000876182 -0.000280522,0.00126891l0 0.00919514c0,0.000312752 -0.000128921,0.00046674 -0.000390343,0.00046674l-0.00373392 0c-0.000261422,0 -0.000390343,-0.000290071 -0.000390343,-0.000864245l0 -0.000205318c0,-0.00222865 -1.90993e-005,-0.00527142 -5.7298e-005,-0.0091271 0.000109821,-0.00162106 0.000632666,-0.00315617 0.00156018,-0.00460055 0.00168432,-0.00239458 0.00372437,-0.00359426 0.00613089,-0.00359426zm-0.0634552 0.0162965l0.000515682 0c0.00208422,0 0.00361933,0.0015184 0.0046292,0.00455519 0.000175475,0.000598048 0.000262616,0.00122475 0.000262616,0.00188845l0 0.00912232c0.00256767,-0.000892894 0.00501358,-0.0013286 0.00731624,-0.0013286l0.00026381 0c0.00698797,0 0.0123406,0.0029986 0.0160697,0.00900654 0.00103136,0.00207944 0.0015363,0.00414814 0.0015363,0.00622639l0 0.000227998c0,0.00502074 -0.0025235,0.00916888 -0.00758005,0.0124528 -0.00308216,0.00185144 -0.00642812,0.00278134 -0.010026,0.00278134l-0.00026381 0c-0.00665732,0 -0.0118905,-0.00278134 -0.0156746,-0.00834283 -0.00128324,-0.00220239 -0.00193023,-0.00450864 -0.00193023,-0.00689128l0 -0.0233585c0,-0.00297114 0.00128324,-0.00501119 0.00386046,-0.00612253 0.00031872,-0.000151601 0.000658927,-0.000217255 0.00102062,-0.000217255zm0.00565937 0.029025l0 0.000891701c0,0.00274314 0.00184309,0.00466979 0.00552926,0.00577994 0.000450028,7.63974e-005 0.000877376,0.000114596 0.00128324,0.000114596l0.000767555 0c0.00317049,0 0.0054087,-0.0015948 0.00669193,-0.00478439 8.71408e-005,-0.000389149 0.000120565,-0.000759199 0.000120565,-0.00111015l0 -0.000664896c0,-0.00278015 -0.00191948,-0.00474499 -0.00578113,-0.00589334l-0.00205079 0c-0.00264407,0 -0.00473903,0.0014038 -0.00630756,0.00422334 -0.000164732,0.000663702 -0.000253066,0.00114835 -0.000253066,0.00144319zm0.0503125 -0.0147877l0.000262616 0c0.00665851,0 0.0118905,0.00278015 0.0156865,0.00834283 0.00128324,0.0022394 0.00191948,0.00453609 0.00191948,0.00689009l0 0.000227998c0,0.00576084 -0.00321466,0.0102886 -0.00964159,0.0135629 -0.00263332,0.00111134 -0.00528813,0.00167119 -0.00796443,0.00167119l-0.000262616 0c-0.00665851,0 -0.0118917,-0.00278134 -0.0156758,-0.00834283 -0.00128324,-0.00222149 -0.00193023,-0.00451819 -0.00193023,-0.00689128l0 -0.000227998c0,-0.00579904 0.00321346,-0.0103268 0.00964159,-0.0135725 0.00256647,-0.00111015 0.00522128,-0.00166045 0.00796443,-0.00166045zm-0.00706437 0.0150145l0 0.000883345c0,0.00239219 0.00175475,0.00425199 0.00526545,0.00556149l0.00154585 0.000114596 0.000767555 0c0.00317049,0 0.0054087,-0.0015948 0.00669193,-0.00478439 8.71408e-005,-0.000389149 0.000120565,-0.000759199 0.000120565,-0.00111015l0 -0.000664896c0,-0.00278015 -0.00191948,-0.00474499 -0.00578113,-0.00589334l-0.00205079 0c-0.00276463,0 -0.0049145,0.0015184 -0.00642812,0.00455519l-0.000131308 0.00133815zm0.0499269 -0.0152425c0.00294011,0 0.00585753,0.000663702 0.00874273,0.00200185 0.00107434,-0.00133815 0.00235877,-0.00200185 0.00386165,-0.00200185 0.00227043,0 0.00389388,0.00133815 0.00488108,0.00400489 0.000262616,0.000683995 0.000383181,0.0015375 0.000383181,0.00256289l0 0.017569c0,0.00380554 -0.00153511,0.00602704 -0.00462801,0.00667164l-0.000636247 0.000114596c-0.00148139,0 -0.00276463,-0.000664896 -0.00386165,-0.00200304 -0.00292936,0.00133815 -0.00584679,0.00200304 -0.00874273,0.00200304 -0.00663702,0 -0.011869,-0.00270494 -0.0156758,-0.00811483 -0.00103017,-0.0017846 -0.00154585,-0.00297114 -0.00154585,-0.00355964l0 -0.00756453c0.000251873,-0.00200304 0.00184309,-0.00445134 0.00476051,-0.00734728 0.00382823,-0.00288519 0.00798591,-0.00433675 0.0124611,-0.00433675zm-0.00719568 0.0156889c0,0.00270494 0.00188606,0.00466979 0.00565937,0.00589454 4.41672e-005,0 0.000593273,3.81987e-005 0.00166761,0.000103853 0.00325763,0 0.00557223,-0.0016318 0.00694381,-0.00488824 0,-3.7005e-005 4.41672e-005,-0.000521651 0.000131308,-0.00145155 0,-0.00281954 -0.00188606,-0.00481184 -0.00566057,-0.00599839 -0.000723388,-7.63974e-005 -0.00128204,-0.000114596 -0.00166642,-0.000114596 -0.00289594,0 -0.00507923,0.0013286 -0.00655943,0.00400609 -0.000340207,0.000644603 -0.000515682,0.0014611 -0.000515682,0.0024483zm0.0499603 -0.0154609l0.000515682 0c0.000131308,0 0.000306783,0.000142051 0.000515682,0.000435704l0 0.00823898c0,0.000293652 -0.000811722,0.000473903 -0.0024471,0.0005503 -0.00207347,0.000674446 -0.00353099,0.00167 -0.00436539,0.00300934 -0.000691158,0.000759199 -0.00103136,0.002391 -0.00103136,0.00488824l0 0.013126c0,0.000114596 -0.000164732,0.000256647 -0.000515682,0.000446447l-0.00937897 0c-0.000131308,0 -0.00029604,-0.000151601 -0.000514489,-0.000446447l0 -0.0153475c0,-0.00493599 0.00269778,-0.00908293 0.00809454,-0.0124623 0.00307141,-0.00162344 0.0061106,-0.00243875 0.0091271,-0.00243875zm0.0398018 -0.0142374c0.00244591,0 0.00411352,0.00185025 0.00501358,0.00556149l0 0.0239088c0,0.00593273 -0.00321466,0.0105261 -0.00964278,0.0137909 -0.00256647,0.00111134 -0.00530842,0.00167119 -0.00822704,0.00167119 -0.00580262,0 -0.0105954,-0.00218329 -0.0143914,-0.00655824 -0.00213913,-0.00262019 -0.00321346,-0.00558178 -0.00321346,-0.00890388 0,-0.00544809 0.00291743,-0.00982303 0.00874273,-0.013126 0.00274195,-0.001405 0.00582411,-0.0021069 0.00925721,-0.0021069 0.00243517,0 0.0048381,0.000473903 0.00719568,0.001442l0 -0.00923573c0.000471515,-0.00429855 0.00222746,-0.00644364 0.00526545,-0.00644364zm-0.0199206 0.029025l0 0.000891701c0,0.00278134 0.00193142,0.00474619 0.00578113,0.00589454l0.00206273 0c0.00254499,0 0.00460652,-0.00133815 0.00616431,-0.00400609 0.00026381,-0.000721 0.000428542,-0.0014611 0.000515682,-0.0022203 0,-0.00145274 -0.000636247,-0.00285774 -0.00193023,-0.00423289 -0.00157928,-0.00132979 -0.00317049,-0.00199349 -0.00474977,-0.00199349l-0.00128324 0c-0.00272046,0 -0.00482736,0.001442 -0.00630756,0.00433675 -0.000164732,0.000513295 -0.000253066,0.000958548 -0.000253066,0.00132979zm-0.219251 -0.364475c0,0.0147435 0.0123059,0.0333248 0.0250058,0.0333248l0.00277776 0c0.00529887,0 0.0105775,-0.00229192 0.0149094,-0.00564266 0.0184034,-0.0142338 0.0117007,-0.0582303 -0.0149094,-0.0582303 -0.0183151,0 -0.0277836,0.0129207 -0.0277836,0.0305482zm0.177815 0.324912c0.0535605,-0.00235758 0.0904951,-0.0819111 0.0944642,-0.136074 0,-0.0282503 -0.0475801,-0.0638718 -0.077794,-0.0638718l-0.0111134 0c-0.0287397,0 -0.0423027,0.03234 -0.0417774,0.0639697 0.000262616,0.0158226 0.00546003,0.0299275 0.00237071,0.0493802 -0.00517831,0.0326145 -0.0215106,0.0865964 0.03385,0.0865964zm-0.222879 -0.127132c0.0124635,0.0196962 0.0303883,0.0382679 0.0617339,0.0382679l0.00555672 0c0.0583258,0 0.0306031,-0.0664108 0.0304778,-0.097162 -7.75911e-005,-0.0189418 0.00286251,-0.0332078 0.00286251,-0.0555743 0,-0.0230792 -0.0215942,-0.04721 -0.0472315,-0.04721l-0.00555672 0c-0.0212265,0 -0.0515921,0.0183055 -0.0673729,0.0388254 -0.0267212,0.0347465 -0.000389149,0.0913737 0.0195303,0.122853zm0.320122 -0.0256039c0,0.0141383 0.0138446,0.0176406 0.0181718,0.00890149 0.000800979,-0.00161867 0.00127608,-0.00365633 0.00127608,-0.00612492 0,-0.018826 -0.0194479,-0.0171488 -0.0194479,-0.00277657zm-0.0166701 -0.0277704c0,0.00852666 0.00257244,0.0166618 0.0111122,0.0166618 0.0109021,0 0.0138924,-0.0109212 0.0138924,-0.0194384 0,-0.00650094 -0.0046101,-0.0111087 -0.0111134,-0.0111087 -0.00647826,0 -0.0138912,0.00741055 -0.0138912,0.0138852zm-0.0250058 -0.0222161c0,0.0125984 0.0114202,0.0220371 0.0226291,0.0149405 0.00517115,-0.00327434 0.00793339,-0.0106992 0.00793339,-0.0177182 0,-0.00647468 -0.00741413,-0.013884 -0.0138924,-0.013884l-0.00277776 0c-0.00788445,0 -0.0138924,0.00958548 -0.0138924,0.0166618zm-0.0889075 -0.0305482l0 0.00277776c0,0.0125101 0.0114548,0.0277704 0.0222269,0.0277704 0.0173577,0 0.0305625,-0.0162571 0.0305625,-0.0333248 0,-0.0135546 -0.00869975,-0.030547 -0.0222269,-0.030547 -0.0190802,0 -0.0305625,0.0136704 -0.0305625,0.0333236zm0.0555672 0.0111087l0 0.00277776c0,0.0256086 0.0333403,0.0188463 0.0333403,0l0 -0.00833209c0,-0.00647587 -0.00741293,-0.013884 -0.0138924,-0.013884 -0.0129696,0 -0.0194479,0.00647468 -0.0194479,0.0194384zm-0.297284 -0.016663c0,0.0144976 0.0194479,0.0161425 0.0194479,-0.00277537 0,-0.0144296 -0.0194479,-0.01593 -0.0194479,0.00277537zm0.0250058 -0.013884c0.00749888,0 0.0111134,-0.00739383 0.0111134,-0.0138852 0,-0.0070775 -0.00600794,-0.016663 -0.0138924,-0.016663 -0.0173685,0 -0.0133445,0.0305482 0.00277895,0.0305482zm0.00555672 -0.0388779c0,0.0196628 0.0305613,0.0238969 0.0305613,0.00277657 0,-0.00935868 -0.00491092,-0.0194396 -0.0138924,-0.0194396l-0.00277776 0c-0.00788445,0 -0.0138912,0.00958548 -0.0138912,0.016663zm0.0305613 -0.0249939l0 0.00555313c0,0.0244316 0.0333403,0.0268644 0.0333403,0 0,-0.0129637 -0.00647826,-0.0194384 -0.0194479,-0.0194384 -0.00647945,0 -0.0138924,0.00740935 -0.0138924,0.0138852z"/>
 </g>
</svg>
