<?xml version="1.0" encoding="UTF-8"?>
<!DOCTYPE svg PUBLIC "-//W3C//DTD SVG 1.1//EN" "http://www.w3.org/Graphics/SVG/1.1/DTD/svg11.dtd">
<!-- Creator: CorelDRAW -->
<svg xmlns="http://www.w3.org/2000/svg" xml:space="preserve" width="25in" height="39in" style="shape-rendering:geometricPrecision; text-rendering:geometricPrecision; image-rendering:optimizeQuality; fill-rule:evenodd; clip-rule:evenodd"
viewBox="0 0 5.28018 5.32119"
 xmlns:xlink="http://www.w3.org/1999/xlink">
 <defs>
  <style type="text/css">
   <![CDATA[
    .fil0 {fill:black}
   ]]>
  </style>
 </defs>
 <g id="Dummy_x0025_Layer_x0025_Dummy_x0025_Layer">
  <metadata id="CorelCorpID_0Corel-Layer"/>
  <path class="fil0" d="M3.0713 0.403883c0,0.0179553 0.00120023,0.00170801 -0.00343526,0.0134102l-0.0974817 -0.098078 0.00317944 -0.00456239 0.0117272 0c0.016128,0 0.0860104,0.0767548 0.0860104,0.0892302zm-2.28075 4.5887c-0.0799862,0.0491304 -0.161069,0.097878 -0.242699,0.14637 -0.186816,-0.033689 -0.368156,-0.0719731 -0.547849,-0.110001 0.0252009,-0.0436428 0.0496747,-0.0873875 0.0745063,-0.130928 0.0250201,-0.0438736 0.0498555,-0.0875414 0.0750564,-0.131313 0.0191747,0.00421233 0.0383495,0.00854968 0.0575242,0.012762 0.0416367,-0.0760566 0.0841581,-0.152357 0.126004,-0.228297 0.0419733,-0.076172 0.0849178,-0.152369 0.127103,-0.228552 -0.0164358,-0.00421233 -0.0339679,-0.00854968 -0.0509499,-0.012889 0.0246527,-0.0438986 0.0496189,-0.0879319 0.0745063,-0.131823 0.0249662,-0.0440313 0.0504037,-0.0879242 0.0750564,-0.132079 0.145181,0.0391785 0.292553,0.0788648 0.445403,0.114468 0.0164358,0.0691668 0.033966,0.138459 0.0531407,0.207497 -0.0175302,0.041602 -0.0352932,0.0832329 -0.0531407,0.124804 -0.0177629,0.0413731 -0.0350623,0.0830752 -0.0531427,0.124548 -0.019721,0.0136545 -0.0399921,0.027182 -0.059715,0.0407096 0.00602613,0.0187574 0.0120523,0.0375167 0.0180784,0.056149 -0.019721,0.0464491 -0.0390035,0.0932136 -0.0586187,0.139351 -0.0198287,0.0466395 -0.039994,0.0929001 -0.0602632,0.139224zm-0.0531427 -0.500238c0.0136968,-0.0303711 0.028488,-0.0608691 0.0438294,-0.0912421 -0.0306808,-0.00663586 -0.0613596,-0.0132717 -0.0914922,-0.0206731 -0.0153394,0.0305 -0.0306788,0.060871 -0.0460202,0.091371 0.0306808,0.00740139 0.0619078,0.0139084 0.093683,0.0205442zm-0.175312 0.364715c0.0180784,-0.0377725 0.0356105,-0.0755469 0.0531407,-0.113319 -0.0328696,-0.00650891 -0.0662894,-0.0130159 -0.0986127,-0.0202903 -0.0186266,0.0379013 -0.0372531,0.0756738 -0.0558797,0.113446 0.0334178,0.00714749 0.0673857,0.0136545 0.101352,0.0201634zm0.66509 0.382324c-0.144085,-0.0172282 -0.285977,-0.0371358 -0.426228,-0.0580628 0.0180803,-0.0433889 0.0355894,-0.0867855 0.0536908,-0.130292 0.0180553,-0.0433947 0.0356086,-0.0869028 0.0536889,-0.130419 0.0213655,0.00331793 0.0427311,0.00676281 0.0635504,0.0102096 0.0295844,-0.0755469 0.0605229,-0.151246 0.0903958,-0.226894 0.0298421,-0.0755699 0.0602632,-0.151475 0.0903958,-0.227148 -0.0191767,-0.00357182 -0.0383514,-0.00701862 -0.0580724,-0.0105904 0.0180784,-0.0436447 0.0356663,-0.0874876 0.0536889,-0.131057 0.018138,-0.0438467 0.0361587,-0.0874145 0.0536889,-0.131313 0.113954,0.022333 0.229549,0.0446641 0.347338,0.0632965 -0.014245,0.0436428 -0.0290189,0.0871663 -0.0432812,0.130673 -0.0142238,0.0433947 -0.0290362,0.0869048 -0.042733,0.130292 -0.019721,-0.0028063 -0.0394439,-0.00574146 -0.0586187,-0.00854968 -0.0257491,0.075418 -0.052104,0.151003 -0.0777954,0.226127 -0.0258068,0.0754603 -0.0520463,0.150709 -0.0777954,0.226 0.0213675,0.00280822 0.042733,0.00548757 0.0646467,0.00842273 -0.0147912,0.04326 -0.0290362,0.0866489 -0.0432793,0.12978 -0.0142431,0.0431331 -0.028488,0.0863931 -0.0432812,0.129526zm0.82342 0.0687821c-0.187364,-0.0113579 -0.374182,-0.024118 -0.558807,-0.0405807 -0.0421848,-0.0631676 -0.0821789,-0.127101 -0.121623,-0.192438 0.0334178,-0.103366 0.0662413,-0.206446 0.0986127,-0.309968 0.0322734,-0.10321 0.065193,-0.206858 0.0975164,-0.310224 0.0679339,-0.0513 0.134223,-0.102727 0.199418,-0.155558 0.1019,0.0125062 0.2038,0.0250124 0.306796,0.0345834 0.0405422,0.0598497 0.0816307,0.119444 0.12491,0.179037 -0.0109559,0.056149 -0.0208174,0.112427 -0.031227,0.168576 -0.090944,-0.00689168 -0.181338,-0.0136545 -0.271185,-0.0209289 0.00602613,-0.0255221 0.0126004,-0.0510442 0.0180784,-0.0766952 -0.0383495,-0.0042104 -0.0761508,-0.00829386 -0.113406,-0.0125043 -0.019721,0.0749064 -0.0397017,0.149878 -0.0591669,0.224723 -0.0194306,0.074714 -0.0388977,0.149688 -0.0586206,0.224469 0.0416367,0.00408346 0.0827251,0.00803997 0.124362,0.0117407 0.00602805,-0.0270551 0.0131486,-0.0541082 0.0191747,-0.0810344 -0.0147912,-0.00127524 -0.0306788,-0.0028063 -0.0454701,-0.0042104 0.019721,-0.0782262 0.0388958,-0.156452 0.0580705,-0.234679 0.105735,0.00957103 0.210924,0.0173552 0.317206,0.0251393 -0.0175302,0.0951986 -0.0342487,0.19032 -0.0520444,0.28534 -0.017813,0.0951198 -0.0350623,0.190268 -0.0525945,0.285211zm0.932442 -0.62721c-0.0925866,0.00204269 -0.184079,0.00370069 -0.276117,0.00280822 0.0021908,-0.0200364 0.00328715,-0.040071 0.00438351,-0.0601055 -0.0383495,-0.000382764 -0.0761508,-0.000765528 -0.113954,-0.00114829 -0.00438159,0.0376455 -0.00821693,0.075418 -0.0115041,0.113064 0.0679339,0.000638581 0.135866,0.00127524 0.204348,0.00204077 -0.0021908,0.0403268 -0.00465857,0.0805401 -0.00712249,0.120721 -0.00246585,0.0402152 -0.00492977,0.0805228 -0.00712057,0.120721 -0.0723174,-0.000638581 -0.143538,-0.00114829 -0.214758,-0.001658 -0.0027409,0.0296056 -0.00602805,0.0592111 -0.00876703,0.0888167 0.0219156,0.000126947 0.0443756,0.000255817 0.0668375,0.000382764 -0.00383341,0.0424945 -0.00794572,0.085141 -0.0115041,0.127484 -0.00356221,0.0423906 -0.00767067,0.0847351 -0.0115041,0.127101 -0.151755,-0.000636658 -0.302963,-0.00472012 -0.453622,-0.0095691 0.00767067,-0.0424964 0.0139815,-0.085164 0.0213675,-0.127739 0.00740331,-0.0426695 0.0142431,-0.0853718 0.0219137,-0.127995 0.0230101,0.000765528 0.0460182,0.00165993 0.0695765,0.0025524 0.0109578,-0.0741428 0.0230005,-0.148414 0.0345142,-0.222682 0.0114945,-0.0741428 0.0230101,-0.148539 0.0345161,-0.222809 -0.0213675,-0.00102135 -0.0432812,-0.00191382 -0.0635523,-0.00280822 0.00657431,-0.0428773 0.0142469,-0.0856276 0.0213675,-0.128505 0.00712057,-0.0428753 0.0142431,-0.0858815 0.0213655,-0.128888 0.227906,0.011231 0.456907,0.0151875 0.687004,0.0126351 -0.00109444,0.0527022 -0.00246585,0.105399 -0.00383341,0.157855 -0.00136949,0.0525676 -0.00219272,0.105152 -0.00383533,0.157728zm0.785618 0.419842c-0.0525945,0.0617635 -0.106283,0.1234 -0.161069,0.184781 -0.128745,0.00944408 -0.258585,0.0167166 -0.388427,0.0229697 -0.0602632,-0.0541063 -0.118884,-0.108215 -0.176956,-0.163852 0.00109636,-0.102729 0.00301403,-0.205454 0.00383533,-0.308183 0.000819384,-0.102725 0.0021908,-0.205454 0.00383533,-0.30831 0.0520463,-0.0558932 0.1019,-0.112808 0.151207,-0.170361 0.0478801,-0.00281591 0.0956487,-0.00575877 0.143313,-0.00903439 -0.0462144,-0.0245912 -0.0819788,-0.0563837 -0.0854487,-0.0563837l-0.0312751 0c-0.01015,0 -0.0964931,0.0117464 -0.120059,0.0154567 -0.0193152,0.00304095 -0.0988205,0.00219657 -0.125258,-0.00254855 -0.0691553,-0.01241 -0.169093,-0.0252932 -0.169093,-0.120925 0,-0.114021 0.0496132,-0.175235 0.0716442,-0.252072 0.00806497,-0.0281322 -0.00365645,-0.0427696 0.00859969,-0.0742024 0.00712249,-0.0182669 0.0151913,-0.0436466 0.0207289,-0.0596343 0.00481052,-0.013893 0.0436793,-0.111444 0.0436793,-0.116597l0 -0.0234813 -0.0234563 0 -0.00432773 -0.00293132 0.109642 -0.227847 -0.0225081 0.0119696 -0.00374301 -0.00492208 0.18431 -0.268791 -0.00534523 -0.00528753c-0.0156626,-0.00502402 -0.0203904,-0.0187843 -0.0390939,-0.0187843l-0.0166339 0.000194267 0.0028967 0.0360914 -0.108701 -0.0924693 -0.00266588 0.00452393 0 0.0140892c0,0.0110463 0.0299864,0.0432293 0.00701478,0.033789 -0.00261395,-0.00107328 -0.0331716,-0.0266492 -0.0369031,-0.0307596 -0.00718019,-0.00789956 -0.0600324,-0.095441 -0.0600324,-0.049994l0 0.00469703c0,0.0058434 0.0375532,0.0693611 -0.00152144,0.0357606 -0.0172859,-0.0148662 -0.0302884,-0.0403076 -0.0453893,-0.0451527 -0.0299075,0.00959026 -0.112925,0.140888 -0.180882,0.139801l0.0284092 -0.0411789c-0.0405942,0.00405653 -0.0974279,0.0798361 -0.165593,0.0787148l0.0131198 -0.0270551c-0.0265242,-0.00742255 -0.0596073,0.0281764 -0.0977356,0.0281764 -0.0155356,0 -0.0196556,-0.00939215 -0.0351893,-0.00939215 -0.0752814,0 -0.105489,0.0491188 -0.143673,0.0951025 -0.0230024,0.0277013 -0.0290189,0.0474108 -0.0774549,0.0392324 -0.0258568,-0.0043662 -0.0856411,-0.0216233 -0.0955429,-0.0216233 -0.0229178,0 -0.0655604,0.0785032 -0.0724655,0.104731l-0.011154 -0.0238699 -0.00303903 -0.00599151 -0.0855372 0.117959 -0.0193729 -0.0143681c-0.013693,0.0310904 -0.050823,0.0745582 -0.050823,0.117409l0 0.0234813c0,0.0525656 0.0768779,0.116585 0.114141,0.129043l-0.0242219 0.0118445c0.00850736,0.0382726 0.115047,0.103394 0.152446,0.117441 0.0784782,0.0294748 0.179865,-0.014847 0.179865,0.0891975 0,0.0732118 -0.0184361,0.0885666 -0.0639255,0.106364 -0.0282188,0.0110405 -0.043889,0.000730906 -0.0681416,0.00737446 -0.0150528,0.00412577 -0.0328427,0.0318464 -0.0516789,0.0318464l-0.0470165 -0.00246969 -0.210816 0.0121292 -0.000198114 -0.00496247c-0.0163108,0.0131217 -0.0402152,0.0375705 -0.0664625,0.0375705l-0.0273667 0c-0.0427522,0 -0.0261145,-0.0424368 -0.117453,-0.0420675 -0.0519309,0.000209655 -0.0846293,-0.0233371 -0.1137,-0.0512692 -0.032483,-0.0312078 -0.136341,-0.154281 -0.136341,-0.211924 0,-0.0234313 0.0244257,-0.0920692 0.0317367,-0.112217 0.0206827,-0.0570107 -0.0144085,-0.0617096 -0.0412981,-0.0876318 -0.0264819,-0.0255317 -0.041477,-0.0492342 -0.0573223,-0.0861181 -0.00348142,-0.00810344 -0.0386746,-0.10501 -0.0386746,-0.108522l0 -0.0328754c0,-0.0242526 0.0592707,-0.0855853 0.0767086,-0.0957064 0.0382553,-0.0222042 0.0151528,-0.0195171 0.0414828,-0.0440948 0.0257221,-0.0240141 0.0326696,0.00526637 0.0421002,-0.0433543l-0.00304095 0.00365261 -0.0156375 -0.0187843 0.00304095 -0.00365261c0.0205365,-0.00658777 0.128136,-0.130686 0.147607,-0.156125 0.0255048,-0.0333139 0.0347219,-0.0663644 0.0558085,-0.102031 0.0195037,-0.0329966 0.0549295,-0.0571857 0.071423,-0.0871894l-0.0214771 -0.0167858 0.153908 -0.0323926 -0.000678973 -0.00466241 0.00391227 0c0.0929828,0 0.238481,0.0687571 0.238481,-0.075141 0,-0.0453162 0.0284457,-0.0592342 0.0107905,-0.0909017l-0.0225215 0.0157606c-0.0110578,-0.0570145 0.0516405,-0.167699 0.0694938,-0.212388 0.0326234,-0.0816595 0.0536812,-0.11959 0.0644659,-0.227823 0.00932867,-0.0936253 0.0245046,-0.16616 0.0549545,-0.239245 0.0210251,-0.0504595 0.0886628,-0.128774 0.0886628,-0.198755 0,-0.0421618 -0.0351989,0.0183881 -0.0469146,0.0234813 0.0156202,-0.0391093 0.0236121,-0.097047 0.0387534,-0.136601 0.00371416,-0.0096999 0.017511,-0.0612346 0.0193094,-0.0707652 0.00684551,-0.0362914 0.02437,-0.0509307 -0.0111482,-0.0509307 0.00155029,-0.022385 0.0657989,-0.295869 0.031277,-0.295869l-0.0078207 0c-0.00344103,0 -0.0734061,0.0516597 -0.108686,0.052606l0.0511115 -0.0606402 -0.00497786 -0.00605498c-0.0357432,0 -0.174604,0.0955275 -0.230661,0.079838 0.00431812,-0.00774953 0.0189132,-0.0328735 -0.00391227,-0.0328735l-0.0938291 0c-0.0233659,0 -0.0203846,0.115077 -0.0267954,0.136874 -0.00513558,0.0174379 -0.0356625,0.124773 -0.0357567,0.12612l-0.00859969 -7.50141e-005 0.000344295 -0.0457393 -0.148695 0.263061 -0.00738792 -0.00583763 -0.00871894 -0.0229889 -0.00481052 -0.00532215 -0.0645198 0.122161c0.00393343,0.0177052 0.068736,0.10979 0.0813941,0.127649 0.0365511,0.0515712 0.0560797,0.0652507 0.102352,0.102471 0,0.0771799 0.00286785,0.0904535 0.0191151,0.146102 0.00716865,0.0245392 0.0395266,0.0990763 0.0395266,0.121586l0 0.0281784c0,0.0231601 -0.0574608,0.0563567 -0.0821,0.0563567l-0.0469146 0c-0.0572203,0 -0.0927866,-0.173763 -0.109467,-0.173763l-0.0430042 0c-0.0290708,0 -0.0902823,0.0512058 -0.106224,0.0743428 -0.0203654,0.0295671 -0.034518,0.110153 -0.034518,0.165168 0,0.0847082 0.0781897,0.0963796 0.0781897,0.187853l0 0.0187862c0,0.108103 -0.0215656,0.0988589 -0.0781897,0.131496 0,0.0878646 -0.00903246,0.17846 -0.0781916,0.17846 -0.0611442,0 -0.0555123,-0.108014 -0.0938311,-0.108014l-0.00390458 0c-0.00801689,0 -0.048186,0.0469627 -0.062554,0.0469627l-0.0234582 0c-0.0425214,0 -0.0333178,-0.0856507 -0.037834,-0.128314 -0.00299287,-0.0282611 -0.00367184,-0.0480109 -0.00672049,-0.0764643 -0.00419309,-0.0391843 -0.0179976,-0.0474878 -0.0179976,-0.0676069l0 -0.00939407c0,-0.05351 0.0273667,-0.12462 0.0273667,-0.173763l0 -0.0187843c0,-0.0587149 0.0234563,-0.0912537 0.0228793,-0.141965l-0.035497 0.0276033 0.00683013 0.00296017 0.0502383 -0.328871 -0.00827463 -0.00587995 -0.0322657 0.0328773c0,-0.029367 0.0571492,-0.198997 0.0672299,-0.266765 0.01015,-0.0682378 0.0309981,-0.266662 -0.0164069,-0.296792 0,-0.0306673 -0.00781877,-0.0298267 -0.00781877,-0.0563548l0 -0.0845351c0,-0.0161896 0.00289285,-0.0181842 0.00390843,-0.0328735l-0.00409692 -0.00548372 -0.0289824 0.0312482 -0.00691091 0.000323138 0.0543352 -0.30952 -0.033891 0.0392227c0,-0.0755988 0.108624,-0.128434 0.109515,-0.173581l-0.0665086 0.0232986c0.0113868,-0.0512308 0.115693,-0.0991936 0.157587,-0.125349 0.0371358,-0.0231832 0.056701,-0.015349 0.0918095,-0.0493881 0.0127466,-0.01236 0.024795,-0.0223446 0.0350797,-0.0387553 0.0237468,-0.037886 -0.0132929,-0.0131448 -0.0225408,-0.0119311l-0.00326984 -0.00525676 0.112729 -0.101184 -0.00391227 -0.0063108 -0.0312655 0.00943446 0 -0.00939215 0.0156375 0 -0.00345257 -0.00555681 0.15978 -0.143217 -0.0036603 -0.00779762 -0.0236506 -0.00310443 0 -0.0140892c0.0113137,-0.0036276 0.074539,-0.0615789 0.09039,-0.0745755 0.0129101,-0.0105828 0.0389342,-0.0259856 0.0487765,-0.035624 0.0250951,-0.0245777 0.00416809,-0.0410077 -0.021881,-0.0259933 0.00336217,-0.0485206 0.232571,-0.0698189 0.288704,-0.0805574 0.052531,-0.01005 0.110492,-0.00669356 0.166481,-0.0160472 0.0887301,-0.014822 0.0812537,0.0132025 0.147909,-0.0402479l-0.00884589 -0.0228216c0.00583956,-0.001633 0.0368088,-0.019696 0.0487476,-0.0259741 0.0255606,-0.013441 0.0385611,-0.00742255 0.0566799,-0.0164492 0.0282361,-0.014068 -0.00274475,-0.0221888 0.0432581,-0.0325715 0.0209193,-0.00472204 0.0379398,-0.00953833 0.062429,-0.00953833l0.0157337 -0.0010829 0.0507287 0.00577801c-0.00147912,-0.0213271 -0.0148355,-0.0422656 0.00391035,-0.0422656l0.0508249 0c0.0321003,0 0.1209,0.0328735 0.13683,0.0328735l0.0078207 0c0.0319137,0 -0.0136372,-0.045697 -0.0156395,-0.0516597l0.00404691 -0.00731868 0.174356 0.139045 -0.00226196 0.00530484 0.0554623 -0.019848 -0.00482783 -0.0290554 0.128391 0.00613961 -0.00721866 -0.0238218c0.0831271,0 0.167258,0.0516597 0.211117,0.0516597l0.0156375 0c0.0046778,0 0.0547103,-0.0450508 0.0627964,-0.0513673 0.0269031,-0.0210212 0.0408077,-0.025399 0.0707036,-0.0418694 0.0294324,-0.0162146 0.0525618,-0.00893052 0.0828328,-0.0272955 0.0131409,-0.00797265 0.0623059,-0.0344468 0.0768836,-0.0344468l0.0547314 0c0.0187843,0 0.0203115,0.0140892 0.0390958,0.0140892l0.00781877 0c0.0896399,0 0.0829021,-0.0199326 0.169128,0.0175629 0.0340391,0.0148009 0.0949986,0.0683359 0.117774,0.0980357 0.0326715,0.0426041 0.127509,0.255786 0.127509,0.325855l0 0.0798361c0,0.0194498 -0.0377821,0.0582359 -0.0339044,0.0965066 0.00500863,0.0494477 0.0146951,0.0762605 0.0227312,0.112912l0.175375 0.0723616 -0.000288516 0.0114714 -0.0622636 -0.0114714c0.0105481,0.0544006 0.127668,0.101277 0.129013,0.173763 -0.00640697,-0.00515481 -0.0390958,-0.0498613 -0.0390958,-0.0140892l0 0.00469511c0,0.0205981 0.0547333,0.0894225 0.0547333,0.19255l-0.00510288 -0.00193498 -0.0143662 -0.0290843 -0.00742639 0.00319098 0.00734753 0.0888801c0.000944408,0.0133602 -0.00656469,0.0241699 -0.00954987,0.0444295l-0.0199922 -0.0231101 -0.00361991 0.00198306 -0.00202346 0.0424464c0.0180438,0.0078457 0.0547333,0.159574 0.0547333,0.197245l0 0.108014c0,0.098555 -0.0223965,0.0518463 0.0426561,0.122525 0.0271589,0.0295075 0.0582302,0.0618404 0.0755526,0.10437l-0.0165608 0.0173148c0.0211482,0.0480129 0.0887436,0.15733 0.0899188,0.220726l-0.00998649 -0.00161761 -0.011958 -0.0185727 -0.00596073 0.00201576 0.0200865 0.243598 0 0.00469703c0,0.0217868 -0.00509711,0.0376859 -0.0146951,0.0466453l-0.00876318 -0.0419483 -0.00781685 0c-0.00623001,0.0321156 -0.00514712,0.0891571 -0.0133602,0.115449 -0.0025851,0.00827463 -0.0218272,0.103308 -0.0218272,0.105277l0 0.0375705c0,0.013441 0.0474127,0.254453 0.0508249,0.262994 -0.0125273,0.000334678 -0.0195479,-0.00153106 -0.0195479,0.0140892l0.00165416 0.0372878 0.0218022 0.174046c-0.0166089,-0.00722251 -0.0508249,-0.0911498 -0.0508249,-0.0469627l-0.000438544 0.00943639 0.0195383 0.272792 0.00435851 -0.000450084 0 0.070444c0,0.0266223 -0.0429254,0.0832425 -0.0543833,0.108436 -0.0119272,0.0262338 -0.0311866,0.107595 -0.0589918,0.107595l-0.0195479 0c-0.011731,0 -0.0480975,-0.0384803 -0.0586437,-0.0469627 -0.025499,0.0205115 -0.0282188,0.070444 -0.0703709,0.070444 -0.0482187,0 -0.062554,-0.0883839 -0.062554,-0.154977 -0.0177533,-0.0142815 -0.0469126,-0.0413404 -0.0469126,-0.075141l0 -0.075141c0,-0.0956756 0.113377,-0.107934 0.113377,-0.239512l0 -0.0140892c0,-0.063083 -0.111373,-0.159674 -0.179839,-0.159674 -0.0279841,0 -0.0424657,0.140888 -0.105556,0.140888l-0.0117291 0c-0.0565914,0 -0.0871914,-0.0434601 -0.0761374,-0.110138 0.00296209,-0.0178726 0.0172994,-0.0636081 0.0234121,-0.0799919 0.00492592,-0.0131775 0.0128697,-0.0727233 0.0162877,-0.0884551 0.0212328,-0.0977241 0.0626483,-0.0302845 0.110713,-0.0830386 0.0181996,-0.0199768 0.0781954,-0.0920365 0.0781954,-0.126793l0 -0.0140873c0,-0.00197152 -0.0116541,-0.0247239 -0.0170147,-0.0453373 -0.00587226,-0.0225908 -0.0136641,-0.0260491 -0.0338083,-0.0204115 -0.00304865,-0.0439909 -0.0167243,-0.129603 -0.0442102,-0.139442 -0.0376436,-0.0134756 -0.0535273,-0.148572 -0.0535273,-0.0108405 -0.0389727,-0.0169455 -0.0894475,-0.208699 -0.0982896,-0.276421 -0.00705709,-0.0540332 -0.00983454,-0.0404768 -0.0369954,-0.046376 -0.0164031,-0.00356221 -0.0321676,-0.0312212 -0.0426195,-0.0458394 -0.0195248,-0.0272994 -0.0536562,-0.098455 -0.0744736,-0.104073l-0.0134718 0.0171667c-0.00275052,-0.0141815 -0.00226196,-0.0281764 -0.0156375,-0.0281764l-0.00781877 0c-0.000273128,0 -0.0761566,0.0474108 -0.103825,0.0537408 -0.0469646,0.0107443 -0.0640774,0.0416597 -0.0916768,0.0730272 -0.0273474,0.0310808 -0.0453143,0.0640159 -0.0695207,0.0996475 -0.0162146,0.0238699 -0.0470742,0.100811 -0.0596958,0.111769l-0.00661663 -0.0425368 -0.00561067 -0.00280053 -0.0685629 0.151859 -0.00499517 -0.00325446c-0.0134698,-0.0337313 0.00355067,-0.0979184 -0.0265204,-0.0801093 -0.00996341,0.00590303 -0.0399421,0.0564279 -0.0399421,0.0754141l0 0.00469511c0,0.00924212 0.12375,0.119517 0.139763,0.137376 0.047482,0.0529542 0.087301,0.0931021 0.132502,0.150788 0.0467222,0.0596304 0.0758565,0.0969432 0.128753,0.150596 0.0349873,0.0354817 0.118953,0.098255 0.118953,0.167066l0 0.211334c0,0.0708229 -0.0488149,0.11546 -0.0806767,0.151992 -0.0265011,0.0303788 -0.0639774,0.115072 -0.0639774,0.172053l-0.00578378 -0.00113868 -0.014522 -0.0273898 -0.0696111 0.221078 -0.0156375 0 0 -0.0469646c0,-0.0146874 -0.0070167,-0.0133044 -0.0190593,-0.019219l-0.00830925 0.117841 -0.00302364 0.0145816 0.0143296 0.127014 0.00433351 -0.000705902 0 0.0234813c0,0.0152663 -0.00338717,0.00354682 -0.00781877,0.0234813 0.0605383,0.108603 0.122515,0.103739 0.238481,0.136195 -0.00683974,0.0352643 0.034695,0.0469627 0.0625521,0.0469627 0.0185304,0 0.0277879,-0.00939407 0.0430061,-0.00939407 0.0442391,0 0.122302,0.0358663 0.162448,0.049063 0.0573608,0.0188535 0.103785,0.0645467 0.0525752,0.129397 0,0.0243603 -0.00226966,0.0433812 -0.00715711,0.0580936l0.0001231 -1.92344e-005c0.0619078,0.0496401 0.12491,0.0983877 0.18846,0.147391 0.0268454,0.1026 0.0545102,0.205 0.0816307,0.307415 0.0271147,0.1024 0.0542371,0.204817 0.0816288,0.307288 -0.0410885,0.0661028 -0.0832733,0.132206 -0.126553,0.197287 -0.12491,0.0151855 -0.24982,0.030373 -0.375826,0.0441544 -0.0679339,-0.051427 -0.133675,-0.102856 -0.19887,-0.154283 -0.0136968,-0.102727 -0.0276802,-0.205617 -0.0416367,-0.30831 -0.0139815,-0.102889 -0.0279399,-0.205708 -0.0410885,-0.308691 0.0281476,-0.0412347 0.0560374,-0.0825386 0.0833445,-0.123852 -0.0120984,-0.00283707 -0.02673,-0.00680128 -0.0389188,-0.00680128l-0.0156375 0c-0.000565491,0 -0.0472454,0.0281784 -0.0781916,0.0281784 -0.0146354,0 -0.0674126,-0.0234813 -0.0703709,-0.0234813l-0.0117291 0c-0.00445853,0 -0.0497747,0.0147258 -0.0772741,0.0228851 0.0433639,0.0403941 0.0871298,0.0807978 0.13153,0.121192 0.0115041,0.10145 0.0243776,0.202744 0.0361587,0.304097 0.0117734,0.10129 0.0235563,0.202648 0.0361587,0.303844zm-0.259799 -0.764961c0.00533369,-0.000484706 0.0106732,-0.000973259 0.0160049,-0.00147335l0.000196191 0.000182727 0.0622444 -0.00530099 0.0061877 0.004522 0.0278571 -0.0654469 -0.00663201 -0.00407384c0.0181842,0.0251297 0.0655238,0.0798361 0.101648,0.0798361l0.00781877 0c0.0212367,0 0.070369,-0.0183631 0.070369,-0.0422656l0 -0.00939215c0,-0.0227427 -0.0811114,-0.0881915 -0.0899169,-0.117409 0.0345353,0 0.0739889,0.0456489 0.0958237,0.0680474 0.0415674,0.0426445 0.0241276,0.0735215 0.0766221,0.0771722 0.00626271,-0.00958257 0.0124908,-0.0191651 0.0186766,-0.0287496 0.0169032,-0.00245431 0.0337602,-0.0049567 0.0505826,-0.00749564l-0.00322368 -0.0244411c-0.0165089,-0.00165031 -0.0615519,-0.0381918 -0.0703786,-0.0516481 -0.0228081,-0.03477 -0.0546256,-0.0223754 -0.0781858,-0.0469742 0.100432,0 0.100319,0.0577416 0.170236,0.103754l0.00330447 0.016003c0.03085,-0.00472204 0.0615769,-0.00956141 0.0922096,-0.01447 5.96266e-005,-0.000650122 0.000101942,-0.00130217 0.000101942,-0.00196768l0 -0.00939215c0,-0.0200057 -0.0660201,-0.0814864 -0.0782166,-0.10255l-0.0547083 -0.00546641c0.00457778,-0.00791495 0.00055972,-0.00939215 0.0117291,-0.00939215l0.0586437 0c0.0103058,0 0.0474224,0.0458047 0.0593784,0.05547 0.0171744,0.0138853 0.0441506,0.0573915 0.0521598,0.0653661 0.0165858,-0.00269666 0.0331447,-0.00540871 0.0496882,-0.00812268 0.0106462,-0.00540294 0.0186112,-0.0131794 0.0186112,-0.0234833l0 -0.00469703c0,-0.0138468 -0.0885031,-0.0915095 -0.10556,-0.122104l-0.0388784 -0.000136564 -0.00803228 -0.0186497 -0.0312789 0 -5.77031e-006 -0.00909209 0.0430119 -0.000300056 0.0195479 0c0.0283899,0 0.0911075,0.0877184 0.127678,0.102056l0.03261 -0.0410038c-0.00871317,-0.0392112 -0.0848505,-0.0587187 -0.123987,-0.0670895 -0.0234082,-0.00500671 -0.0374878,-0.0172417 -0.0726732,-0.0209424 -0.0226523,-0.00238314 -0.0541082,0.00819577 -0.0848217,0.00819577l-0.0508115 -0.00108482 -0.0404999 0.00220618 0.0145104 0.0259337 -0.00240237 0.0109174 -0.114171 -0.0171667 0.0301326 0.0388515 0.00295055 -0.00330254c-0.0210501,0.037759 -0.102952,-0.0104096 -0.133229,-0.0105154l-0.0600055 -0.00690514 0.0210463 0.0416751 -0.132146 -0.0411789 -0.00397959 0.00530292 0.0176745 0.0326927 -0.026101 0.0213848 -0.0953737 -0.0479628 -0.00557412 0.0215156 -0.043637 -0.0113117c-0.00379687,0.054816 -0.0667875,-0.0328754 -0.0781897,-0.0328754l-0.0078207 0c-0.0122254,0 -0.0110752,0.00843043 -0.0156375,0.0187862 -0.0305846,0 -0.135302,0.0530657 -0.152473,0.0140892 0.00404884,-0.00664163 0.0415482,-0.0281784 0.0117291,-0.0281784l-0.00391227 0c-0.0187824,0 -0.0203077,0.0140892 -0.0390919,0.0140892l-0.0117407 -0.00151567 -0.046903 0.00151567c0.00543756,-0.0180457 0.0477013,-0.0469627 0.0195479,-0.0469627l-0.00781877 0c-0.00511442,0 -0.0519886,0.0328735 -0.0703709,0.0328735 -0.0243488,0 -0.000575108,-0.0219003 0,-0.0469627 -0.041327,0.0132544 -0.0703747,0.0596516 -0.0703747,0.122104l0 0.00939215c0,0.0755873 0.096822,0.085039 0.160365,0.0894379 0.0418963,0.00290054 0.178909,0.00737254 0.223811,-0.00547218l-0.00885935 -0.0229139c0.0180438,0.000482783 0.0952429,0.0576243 0.124483,0.0711941 0.0458451,0.0212771 0.0949659,0.0321253 0.160915,0.0321253l0.00751679 0.00114637zm-0.043712 0.705365c-0.00492977,-0.0735042 -0.00931713,-0.147262 -0.0142431,-0.220766 -0.00493362,-0.0736311 -0.00931329,-0.147391 -0.014245,-0.221024 -0.0388977,0.00293517 -0.0777954,0.0051048 -0.116691,0.00727444 0.00328715,0.07376 0.00684551,0.147507 0.00986146,0.221151 0.00300826,0.0734926 0.00547795,0.147262 0.00876511,0.220895 0.0421848,-0.00216964 0.0849159,-0.00433928 0.126553,-0.00753026zm0.789454 -0.0800112c-0.0153394,-0.0741428 -0.0314924,-0.148232 -0.0471165,-0.222426 -0.015601,-0.074087 -0.031227,-0.148541 -0.0471146,-0.222682 -0.036705,0.00561451 -0.07396,0.011229 -0.111761,0.0168435 0.014245,0.0741428 0.0282245,0.148336 0.0421848,0.222299 0.0139795,0.0740658 0.0279399,0.14803 0.0421848,0.222044 0.0405403,-0.0053587 0.0810806,-0.0107193 0.121623,-0.016078zm0.954904 -0.554089c-0.0668395,0.0155683 -0.133129,0.0311366 -0.199418,0.0467049 -0.0126004,-0.032158 -0.0246546,-0.0644429 -0.0378013,-0.0967297 -0.00931329,0.00242545 -0.0191747,0.00472204 -0.02849,0.00689168 0.0290362,0.0756738 0.0578339,0.151567 0.0865605,0.227019 0.0287958,0.0756373 0.0575242,0.151221 0.0865605,0.226766 0.0202711,-0.00408346 0.039994,-0.00829386 0.0602651,-0.0125043 0.0175302,0.0435139 0.0345142,0.0871606 0.0520444,0.130546 0.0175302,0.043387 0.0339679,0.0869028 0.0509499,0.130292 -0.135318,0.0255221 -0.273376,0.0486187 -0.411983,0.0717173 -0.0131486,-0.0428773 -0.0268647,-0.0860065 -0.0405403,-0.128888 -0.0137141,-0.0429984 -0.0273936,-0.0861373 -0.0405422,-0.12927 0.0208193,-0.00382764 0.0421848,-0.00765721 0.0630041,-0.0114848 -0.0246546,-0.0750352 -0.0487591,-0.150201 -0.0734118,-0.225235 -0.0246527,-0.0750352 -0.0498555,-0.150199 -0.07396,-0.225361 -0.0104096,0.00216964 -0.0197229,0.0042104 -0.0295844,0.0062531 0.0104096,0.0319021 0.0208193,0.0639331 0.031227,0.0958353 -0.0684802,0.0142931 -0.138059,0.0270551 -0.207635,0.0393054 -0.0164358,-0.0589572 -0.0328465,-0.117766 -0.0493054,-0.17687 -0.0164127,-0.0589399 -0.0328715,-0.118168 -0.0487591,-0.177252 0.224619,-0.0488746 0.442662,-0.102088 0.654132,-0.159005 0.0262972,0.0603613 0.0523867,0.120684 0.0783435,0.180699 0.0260895,0.0603209 0.0520463,0.120338 0.0783435,0.18057zm-1.66907 -4.1582l-0.0884262 0.0708248 0.00272743 0.00575877 0.0622424 -0.0155318c-0.00522983,0.0235236 -0.0594015,0.0688341 -0.07778,0.0897226 -0.0163877,0.0186208 -0.0602767,0.0793456 -0.086422,0.0793456 0.00763797,-0.0393728 0.0547622,-0.0882492 0.0781897,-0.112712 -0.0315713,0 -0.0486745,0.0281764 -0.0586418,0.0281764 -0.0496189,0 0.100625,-0.140888 0.136833,-0.140888l0.0117291 0 0 -0.0187862 -0.0312751 0c-0.0110098,0 -0.00723982,-0.00203115 -0.0117291,-0.00939215 0.00876703,-0.00245431 0.00899015,-0.00469703 0.019546,-0.00469703l0.0156395 0c0.010954,0 0.0225677,0.0195691 0.0273667,0.0281784zm-0.398775 0.154979c0,0.0107559 -0.00132333,0.00546064 -0.00418925,0.0179091l-0.0114483 0.0055722c-0.0139526,-0.0112271 -0.0346834,-0.0341449 -0.0351835,-0.0610518l0.00781877 0 0 -0.0140892c0,-0.0196922 -0.0565529,-0.0825328 -0.0586456,-0.112712 0.0328562,0.000879011 0.101648,0.134906 0.101648,0.164371zm-0.774084 0.0892302l-0.041527 0.0398267 -0.00299864 -0.00353913 0.0255433 -0.0415501 -0.00838234 -0.0135237c0.021631,-0.0388034 0.0772953,-0.113975 0.117284,-0.126801 -0.0171244,0.056828 -0.0899188,0.0803362 -0.0899188,0.145587zm1.11031 -0.0845351c-0.0230312,0.00738792 -0.0912075,0.127114 -0.109467,0.117409 -0.00887666,-0.0226312 0.0757584,-0.125899 0.109467,-0.126801l0 0.00939215zm-0.0694284 0.207581l0.0303326 0.00375263c0.00639928,0 0.0117291,0.00281207 0.0117291,0.00939407 0,0.00593381 -0.0756969,0.144644 -0.0821,0.150282 -0.0034795,-0.00234852 -0.0078207,-0.00305827 -0.0078207,-0.00939407 0,-0.017159 0.0452816,-0.0841215 0.0508249,-0.112712l-0.00267358 -0.00618193 -0.0911536 0.0531465c0.00372185,-0.0537543 0.0916326,-0.150282 0.142863,-0.147601l-0.0520021 0.059313zm-1.05991 -0.0171648c0.0741428,0.00213309 0.224985,0.117951 0.226235,0.185289l-0.0117291 0c-0.0104731,0 -0.150542,-0.164371 -0.2264,-0.164721l-0.017886 -0.0259433 0.00246585 -0.00422387 0.0273147 0.00959988zm1.57893 0.175896c-0.0338429,-0.000905939 -0.0403903,-0.0375705 -0.0781916,-0.0375705 -0.00900746,0 -0.0117291,0.00326792 -0.0117291,0.0140892l0 0.0140892c0,0.0256144 0.0132352,-0.00181765 0.0158395,0.0319156l0.0193459 0.00565491 0 0.00939215c-0.0242295,-0.000648198 -0.0469146,-0.0303653 -0.0469146,-0.0563567l0 -0.0187843c0,-0.0126831 0.00186766,-0.0129486 0.00391035,-0.0234813l0.0117291 0c0.0236852,0 0.0810383,0.0386803 0.0860104,0.0610518zm-0.00782262 -0.154979c0.0107963,0.0245046 0.0181457,0.0516597 0.0469184,0.0516597 0.00405461,0.0209116 0.0215598,0.0626618 0.0316944,0.108109 0.00886897,0.0397978 0.0504037,-0.0215367 0.0504037,-0.056449l0.000888628 -0.00952486 -0.00479705 -0.051527c0.0071975,0.00230813 0.0234563,0.0191324 0.0234563,0.0234813 0,0.0376821 -0.00666471,0.0584167 -0.0106405,0.0858392 -0.00443929,0.0306154 -0.0165473,0.0272378 -0.041302,0.0490092 -0.0218252,0.0191921 -0.125533,0.0197518 -0.139603,-0.00309289l0.0508038 -0.00495478 0 -0.0234813c0,-0.0363587 0.0273667,0.0215367 0.0273667,-0.0140892l0 -0.00469703c0,-0.0238083 -0.0566741,-0.0827136 -0.0801881,-0.0915249 -0.0265684,-0.00995187 -0.0188766,-0.031981 -0.047859,-0.0337082 -0.024393,-0.00145412 -0.0257914,-0.0109597 -0.0673607,-0.0108116l0.0262895 -0.0172513 -0.00290054 -0.00637812c0.0715057,0 0.0911998,0.0383976 0.13683,0.00939215zm-0.562967 0.300564l-0.0195498 -0.00939215c0.00949601,-0.0215521 0.0120407,-0.0444333 0.0234525,-0.0704536 0.0101904,-0.0232428 0.0215521,-0.0417848 0.0325734,-0.064187 0.0088055,-0.0178995 0.0691149,-0.103939 0.0812787,-0.103327 0.0209135,0.00105212 -0.0479359,0.103648 -0.05517,0.115908 -0.0258645,0.0438371 -0.0411385,0.0827655 -0.0625848,0.131452zm0.888376 -0.16682l-0.0926578 0.0498497 -0.00208501 -0.00513366c-0.00291785,0.00523367 -0.0117291,0.0157972 -0.0117291,0.0187862 0,0.0167801 0.0171513,0.0184073 0.031277,0.0187843 -0.00163108,0.0224177 0.00248508,0.0161299 -0.0117907,0.00390265l-0.0580147 0.00605498 -0.00813614 0.0133256 0.0153875 0.0330735c-0.0388554,0 -0.0351874,-0.0212886 -0.0351874,0.0422656 -0.00871125,-0.00279475 -0.0117253,-0.00109636 -0.0117253,-0.0140892l0.00230235 -0.0093883 -0.00217156 -0.10873 0.0222426 0.00460086 0.0245392 -0.0461567 0.0389727 -0.000217348 0.0353066 -0.027961c0.00314867,0.00262934 0.00965373,0.00939407 0.011731,0.00939407 0.00876511,0 0.00858238,-0.003718 0.0151471,-0.00807651l0.0365915 0.0197152zm-0.823891 0.208778l0.00672626 -0.00158491 0.0265242 -0.0685494c0.0291285,0.00934214 -0.0141815,0.0862989 -0.0195864,0.107968 -0.00731099,0.0293324 -0.0120061,0.0229331 -0.0159972,0.0606191 -0.00201384,0.0190132 -0.00913056,0.0460817 -0.0267416,0.0523983l-0.00866124 -0.132434 -0.0189305 0.0194633c-0.00251009,-0.0125927 -0.00391227,-0.00885358 -0.00391227,-0.0187862 0,-0.00801689 0.023389,-0.0557605 0.0281822,-0.0647698 0.0154894,-0.0291305 0.0122081,-0.0442468 0.0430773,-0.0524983l-0.0106808 0.0981742zm-0.541448 0.164681l0.0482167 0.025047 -0.0169416 0.0172186c-0.0132506,-0.00370646 -0.0547353,-0.0195171 -0.0547353,-0.0328735 0,-0.0188708 0.00704555,-0.00986916 0.0234602,-0.00939215zm1.27841 0.262994c0,0.00744947 -0.0287265,0.0334659 -0.0395555,0.0558047 -0.00614538,0.0126735 -0.0363664,0.0410269 -0.0542736,0.0428176 0.00857276,-0.0385553 0.0306038,-0.0361645 0.0492862,-0.0535081 0.0120619,-0.0112002 -0.00267935,-0.0440583 0.044543,-0.0592034l0 0.0140892zm-0.680258 -0.403883c0,0.0345969 -0.0117291,0.0466895 -0.0117291,0.075141l0 0.0234813c0,0.0161915 0.00289285,0.0181842 0.0039065,0.0328754 0.00674357,-0.00542025 0.0234582,-0.0206885 0.0234582,0.00469511l-0.00125408 0.0421771 -0.0142642 0.286854 -0.010023 0.000525098 -0.00964027 -0.127614 -0.000932867 -0.00946908 0.00484129 -0.0985454c-0.0128274,-0.0103173 -0.0273686,-0.0162627 -0.0273686,-0.0422675l0 -0.070444c0,-0.0509499 0.0430061,-0.184989 0.0430061,-0.117409zm-0.774086 0.680966c-0.0351047,-0.00982492 -0.0359721,-0.0938984 -0.0351874,-0.136193 0.0243584,0.007813 0.0351874,0.099384 0.0351874,0.136193zm0.039242 -0.286517l0.0193998 -0.0328331c0.0316617,0.00316598 0.0197576,0.119488 0.0405615,0.158447l0.0255471 -0.0733253 0.00257548 0.00633965 0.0506056 0.183244 0.00581455 -0.00231967c0.0312001,-0.0100076 0.0290747,-0.0141161 0.0548141,0.01869 0.00905939,0.0115483 0.039969,0.0431581 0.0436043,0.0529638l0.250218 0.0704055 -0.000515481 0.00472781 -0.070544 0.012889c-0.0652949,0.013566 -0.110138,-0.0422675 -0.172661,-0.041427l-0.0444391 -0.0474281 -0.00669741 0.0471935 -0.00786109 0.00522598 -0.10847 -0.132633c-0.00309481,0.00774761 -0.013114,0.110552 -0.0290805,0.0350835 -0.0068032,-0.032156 -0.0157549,-0.061425 -0.017836,-0.0914383l-0.00778031 9.61719e-006 -0.00785532 0.0375609c-0.0294228,-0.0187016 -0.0273686,-0.0731002 -0.0273686,-0.126801l0 -0.0281784 -0.0156375 0c-0.0290151,0 -0.0164916,-0.132408 -0.00391035,-0.154979l0.00841696 -0.00229851 0.0190997 0.10088zm0.551094 0.408621l-0.0156356 0c-0.0110098,0 -0.00723982,-0.00203115 -0.0128774,-0.0122619l0.159214 -0.0919192 0.00222542 0.00555873 0 0.0187843c0.00589534,-0.00746871 0.0283534,-0.0137622 0.0443372,-0.0265761 0.014947,-0.011983 0.0258279,-0.0278052 0.0455816,-0.0297787 -0.0123369,0.0554989 -0.162665,0.136193 -0.222846,0.136193zm-0.496507 0.0845332c-0.0219099,-0.000586648 -0.0423618,-0.023791 -0.0608133,-0.0302691 -0.0306769,-0.0107674 -0.0427946,0.000771298 -0.0586264,-0.0300787l0.00215233 -0.0100961 0.0195479 0c0.0334794,0 0.0953429,0.035876 0.0977395,0.070444zm0.508238 0.0610518c-0.0138853,0.0227639 -0.106932,0.0845332 -0.144656,0.0845332l-0.00390458 0c-0.0118214,0 -0.0108136,-0.00552604 -0.011731,-0.0187843 0.0479802,-0.00479705 0.137257,-0.075141 0.148561,-0.075141 0.00706863,0 0.0107289,0.00235044 0.011731,0.00939215zm1.01648 0.244209c-0.0299248,0 0.00781877,-0.122425 0.00781877,-0.126801l0 -0.0234813c0,-0.0126851 -0.00186766,-0.0129486 -0.00390843,-0.0234813l0.0117272 0c0.0105597,0 0.0107809,-0.00224273 0.0195479,-0.00469703 -0.000477013,0.0257414 -0.024318,0.17846 -0.0351854,0.17846zm-0.613798 1.00501c0,0.00508749 -0.0207154,0.0501036 -0.0235467,0.0609441 -0.00464126,0.0177783 -0.0119503,0.0493419 -0.0180842,0.0675069 -0.00457586,0.0135602 -0.0167705,0.0527849 -0.0216483,0.0632272 -0.0155741,0.0333486 0.0027736,0.0313482 -0.030548,0.052531 0.00105597,-0.0570684 0.0626848,-0.248308 0.0938272,-0.258298l0 0.0140892zm-0.539515 0.366313c0.00228504,-0.0329773 0.0873895,-0.154283 0.113375,-0.154979 -0.016305,0.040825 -0.07165,0.153862 -0.113375,0.154979zm0.207208 -0.00939215c0,0.0391458 -0.0201672,0.0663663 -0.0274475,0.0985262 -0.0073206,0.0323311 -0.0313982,0.0749006 -0.0351066,0.0940215 -0.0065897,-0.00549911 -0.00781877,-0.000673203 -0.00781877,-0.0140892l0 -0.00469511c0,-0.0250162 0.053385,-0.1871 0.0703728,-0.19255l0 0.0187862zm1.21195 0.00469511l0.00781877 0c0.0191594,0 0.0491958,-0.0798111 0.050823,-0.103317 -0.0245931,0.000657816 -0.0701843,0.0556047 -0.0820981,0.075141 0.00451623,0.0080996 0.0139853,0.0281764 0.0234563,0.0281764zm-3.1124 -0.136397c-0.013741,-0.0193536 -0.02849,-0.0232774 -0.0582321,-0.0232774 -0.023791,0 -0.0821,0.054566 -0.0821,0.079838l0 0.00939215c0,0.0851352 0.113377,0.249043 0.113377,0.183156l0 -0.00469511c0,-0.0109828 -0.00805728,-0.0139411 -0.0117291,-0.0328754 0.0141488,0.00453739 0.0351854,0.0406038 0.0351854,0.0563567l0 0.0516597c0,0.113825 -0.0762739,0.125322 0.00331024,0.230839 0.0262588,0.0348161 0.103746,0.144866 0.149165,0.144866l0.0547314 0c0.071373,0 0.0702882,0.0469627 0.117285,0.0469627l0.0156375 0c0.0255471,0 0.0586437,-0.0301133 0.0586437,-0.0610518l0 -0.0140892c0,-0.0226793 -0.0181188,-0.0362414 -0.031554,-0.0419444 -0.00325253,-0.00138103 -0.0663509,-0.0191074 -0.0270897,-0.0191074l0.00391035 0c0.0513096,0 0.0731945,0.0446545 0.0742812,0.103317 0.00876703,0.00245431 0.00898822,0.00469703 0.0195479,0.00469703l0.019544 0c0.0131236,0 0.0390977,-0.036955 0.0390977,-0.0516597l0 -0.00939215c0,-0.0429061 -0.0410058,-0.0626117 -0.0437871,-0.0826559l-0.0109463 -0.0112694c0.0824308,0.00220426 0.0628579,0.15028 0.0821,0.15028l0.0234563 0c0.0267396,0 0.0547353,-0.0336275 0.0547353,-0.0657469 0,-0.0666433 -0.0606421,-0.0651988 -0.0860104,-0.0845332 0.0155298,-0.00155414 0.00941715,-0.00469703 0.0195498,-0.00469703 0.0381668,0 0.0860065,0.0411519 0.0860065,0.0845332l0 0.00469703c0,0.0225485 -0.0193479,0.0563548 0.00782262,0.0563548l0.0156356 0c0.114916,0 0.0255182,-0.148447 -0.0430042,-0.150282l0 -0.00939215c0.0437197,0 0.0691957,0.0226312 0.0929636,0.0480013 0.0361414,0.0385726 0.0106001,0.0834945 0.0634177,0.0834945 0.0335775,0 0.0625521,-0.0196748 0.0625521,-0.0610518 0,-0.029444 -0.0241141,-0.075141 -0.0430042,-0.075141l-0.0156395 0c-0.0388073,0 -0.0534139,0.00738215 -0.0899688,6.53969e-005 -0.0372416,-0.00745332 -0.0200865,-0.0171859 -0.0861123,-0.0186766 -0.0166781,-0.000376994 -0.034066,-0.00790918 -0.0441006,-0.00197922 -0.0198345,0.0117234 0.00628772,0.0194979 -0.0348681,0.0130121 -0.0181188,-0.0028563 -0.080167,-0.0108174 -0.0883608,-0.0154067l-0.0123562 0.0229851c-0.0209905,-0.00587418 -0.0689091,-0.0315925 -0.0883146,-0.0441948 -0.0798707,-0.0518655 -0.0438063,-0.0194402 -0.0406999,0.0254105 -0.0493304,-0.00493169 -0.0483398,-0.0764624 -0.0826097,-0.0798842l-0.00606845 0.0940888 -0.00493554 0.00205231 -0.041402 -0.0975048 -0.00963642 0.0248912 -0.0117291 0c-0.00676665,-0.0348835 -0.0163858,-0.0894899 -0.0221676,-0.123654 -0.00762643,-0.0450931 0.00348527,-0.106862 -0.0302114,-0.116456l-0.0101731 0.0381706 -0.0204558 0.000155798 -0.00691091 -0.0706017 -0.000925174 -0.00947485 0.0048336 -0.0891475c-0.0405518,-0.0326215 -0.0238275,0.0036603 -0.0637677,0.004095l0.032081 -0.0935291zm3.14035 -0.0695323c-0.00664932,0.0105885 -0.04713,0.0838253 -0.0201384,0.0838253 0.0213617,0 0.0673319,-0.0835984 0.0863393,-0.098605l0.0021831 -0.0609384 -0.0181534 -0.000130794c-0.00442198,0.019898 -0.0381206,0.0565625 -0.0502306,0.0758488zm0.0541428 -0.169776c0,-0.020827 0.000590495,-0.0657469 -0.0156375,-0.0657469l-0.00391035 0c-0.0106847,0 -0.0610691,0.0676896 -0.0686725,0.0818769 -0.0222022,0.0414174 -0.0245084,0.078432 -0.0397978,0.111869 -0.0230139,0.0503287 -0.122192,0.112048 -0.122192,0.172565l0 0.0328754c0,0.0213559 0.0230024,0.0610518 0.0390958,0.0610518l0.00391035 0c0.021304,0 0.0979376,-0.139053 0.105897,-0.178051 0.0126851,-0.0621463 0.101307,-0.15892 0.101307,-0.183565l0 -0.0328754zm-3.37001 -0.258297c-0.0060973,-0.0109405 -0.0473954,-0.0700016 -0.0596035,-0.0684648 -0.0162146,0.00204077 0.00213309,0.0966258 0.00487207,0.110732l0.019546 0c0.0184381,0 0.0289477,-0.0266531 0.0351854,-0.0422675zm3.00252 -0.169066c-0.0105577,0 -0.0107789,-0.00224273 -0.0195479,-0.00469703 0.00558566,-0.0251297 0.0378302,-0.0422675 0.0117291,-0.0422675 -0.0149567,0 -0.0329985,0.0140892 -0.062554,0.0140892l-0.00476243 0.0185169 -0.0650603 -0.0168358c-0.00512981,0.0236314 -0.0192113,0.104985 -0.0240122,0.120415 -0.004899,0.0157318 -0.0312693,0.0961565 -0.0312693,0.108024 0,0.0183977 0.014547,0.0328735 0.031277,0.0328735l0.0156375 0c0.0682109,0 0.0876895,-0.113333 0.110332,-0.130511 0.0401979,-0.030498 0.13902,0.0130274 0.167247,0.0365857l-0.0273686 0c0,0.048511 0.0977376,0.103539 0.0977376,0.164371l0 0.00469511c0,0.0101442 -0.0354355,0.136027 -0.0499998,0.146574 -0.0304942,0.0220868 -0.0790148,0.0466568 -0.0790148,0.107028l0 0.0187843c0,0.0472416 0.00931329,0.0403749 0.0234563,0.0657489 0.06376,-0.0405268 0.10432,-0.080517 0.137222,-0.159211 0.0128851,-0.0308173 0.0322137,-0.0744736 0.0523021,-0.0968451 0.0142123,-0.015826 0.0645967,-0.0597843 0.0645967,-0.0820789l0 -0.00469511c0,-0.000925174 -0.0421367,-0.101865 -0.0469146,-0.112712l-0.0189978 0.0106251 -0.00461625 -5.19328e-005 -0.0356625 -0.177033 -0.00549718 0.00307173 -0.0251489 0.0623425 -0.0039065 -0.0022735c-0.0114887,-0.0287669 0.0110098,-0.102044 -0.0547333,-0.0187862l0.0180226 -0.0742062 -0.00316983 -0.00326215 -0.0995437 0.0484976 -0.00199653 -0.00439698 0.0226235 -0.044718c-0.0408846,-0.00175033 -0.0316213,0.0123389 -0.0610403,0.0123389l-0.0273667 0zm-2.99079 0.0892283c-0.00304095,-0.043889 -0.0153894,-0.0701343 -0.0312578,-0.0986454 -0.00585879,-0.0105308 -0.0389515,-0.0751179 -0.0469338,-0.0751179 -0.0064339,0 -0.0156375,0.0186785 -0.0156375,0.0281784 0,0.042079 0.0670991,0.150282 0.0781897,0.150282 0.00826886,0 0.00515481,-0.00168108 0.0156395,-0.00469703zm0.172019 0.0892302c0,-0.108428 -0.0969124,-0.12496 -0.106256,-0.210491 -0.00402575,-0.03683 -0.0779858,-0.216873 -0.100948,-0.216873l-0.00391035 0c-0.0128236,0 -0.0273647,0.0601651 -0.0273647,0.0704459l0 0.0234813c0,0.0395651 0.0775761,0.136301 0.0886743,0.217523 0.00619924,0.0453527 0.0732445,0.205144 0.0989801,0.205144l0.00391035 0c0.0314694,0 0.0469146,-0.0489977 0.0469146,-0.0892302zm0.883554 -0.211334c-0.00453354,-0.0102904 -0.0331466,-0.0593207 -0.0394266,-0.0653488 -0.0287842,-0.0276225 -0.0248777,0.0135064 -0.0477109,-0.0507057 -0.00987685,-0.0277821 -0.0167839,-0.0544333 -0.0264242,-0.080969 -0.0107828,-0.0296767 -0.00560874,-0.0684436 -0.0271839,-0.0753622l-0.0673857 0.142459 0.00483745 0.00312559c0.00705325,-0.00567414 0.00687052,-0.00939215 0.0156375,-0.00939215l0.00781877 0c0.0269301,0 -0.0268031,0.0914768 -0.0273686,0.122104 0.00731099,0.00317944 0.0273686,0.0215329 0.0273686,0.0328754l0 0.0140892c0,0.0199999 -0.0203519,0.0879126 -0.0390958,0.0939253l0.0102058 -0.0697477 -0.0102058 -0.000696284c0,0.0295325 -0.0409711,0.119269 -0.0542294,0.136799 -0.0110694,0.0146393 -0.0314828,0.03904 -0.0486918,0.0461413 -0.0318521,0.0131428 0.00549141,-0.0301056 0.00909209,-0.0420521 -0.23087,0 -0.312564,-0.0113156 -0.410502,0.164371l0.031277 0 0 0.0187862 -0.00281399 -0.00432773 -0.164531 0.154473 0.00304095 0.00426618 0.0501229 -0.0132371c-0.00989032,0.052531 -0.0999226,0.081523 -0.100844,0.131211l0.0156395 0c0.0148009,0 0.0430042,-0.011306 0.0430042,0.0187843 0,0.0345334 -0.0234582,0.027861 -0.0234582,0.0704459 0.00877088,-0.00245431 0.00899015,-0.00469703 0.0195498,-0.00469703 0.0321272,0 0.0195479,0.0888167 0.0195479,0.131498l0.0117272 0 0.01246 -0.0262299 0.00317944 0.00274859c0.00533754,0.0275225 0.0216291,0.0670703 0.0295825,0.114745 0.00932675,0.0559066 -0.00189074,0.0893418 0.0407884,0.101284l0.0113387 0.0531003 0.00430081 -0.00144065c0.00750525,-0.038713 0.018992,-0.0458817 0.0387727,-0.0137699 0.0243584,0.039544 0.0107424,0.0278591 0.0472339,0.0278591 0.0313097,0 0.0778608,0.0539774 0.10165,0.0563567l0 -0.0281784c0.0558913,-0.0156414 0.0417213,0.0591899 0.109465,0.00469511l0.0779762 0.0199326 0.000217348 -0.0105385c-0.0442044,-0.00442006 -0.154683,-0.149147 -0.16029,-0.23012 -0.0249855,0.0200961 -0.0156433,0.0186823 -0.0156433,0.0469627 0,0.0200749 -0.019544,0.0200749 -0.019544,0l0 -0.0469627c0,-0.0112213 0.0126985,-0.050598 0.0156375,-0.0657489l0.0193709 0.0143681c0.0289073,-0.0655007 0.0461625,-0.0972182 0.0890917,-0.14707 0.0308539,-0.0358298 0.042783,-0.0175148 0.066624,-0.0467665 0.0126562,-0.0155221 0.0501325,-0.0511211 0.0555758,-0.060044l-0.0262184 -0.0298864 0.00606845 -0.0221138 -0.0487034 0.0141353 -0.00151952 -0.00909786c-0.0029871,-0.00810921 0.0322945,-0.0281784 0.0351893,-0.0281784l0.00781493 0c0.0153029,0 0.00555873,0.0109924 0.0234582,0.0140892l0.00100788 -0.0084035 0.124219 0.0215002 0.0467915 0.000992494c0.0174225,0 0.0701247,-0.0611365 0.0742812,-0.0798361l-0.0243199 -0.00512788c0.0137449,-0.0253855 0.249806,-0.0731733 0.293484,-0.0848159 0.0923789,-0.0246258 0.194467,-0.127693 0.239076,-0.140176 -0.000690514,-0.0373089 -0.0691861,-0.0891148 -0.0938291,-0.103319 0.00102904,0.0148701 0.0183631,0.0676588 -0.0186958,0.0276571 -0.0126197,-0.0136237 -0.0270589,-0.0289093 -0.0389862,-0.0429023 -0.0360837,-0.0423426 -0.0502806,-0.0366992 -0.0976183,-0.0611903 -0.0483283,-0.0249989 -0.0562375,-0.00399113 -0.113156,-0.0425349 -0.0486899,-0.0329735 -0.0341045,-0.054793 -0.0951294,-0.054793zm-0.465233 -0.314653c0,-0.0391439 -0.018692,-0.0666837 -0.0272513,-0.0987589 -0.00875549,-0.032785 -0.0137353,-0.0728098 -0.0225735,-0.104385 -0.0152586,-0.0545198 -0.00831502,-0.0498324 -0.0628541,-0.0559932 -0.0377475,-0.00426426 -0.0624098,-0.0203731 -0.0867086,-0.0179437l0.00425272 0.0327965 -0.109094 -0.0151355 0.000346219 0.00542025 0.00849967 0.0326177 -0.00478744 0.00714365 -0.0912729 -0.0618001c-0.00423733,0.00743216 -0.00733022,0.00721289 -0.00733022,0.0177418l0 0.00469703c0,0.0227293 0.00993263,0.0210501 0.0117291,0.0469627l-0.00232351 0.00408538 -0.0429119 -0.0352143 -0.0132275 0.0452796 -0.0306327 -0.0204519 -0.0560759 0.178812 -0.00552411 -0.0037584 -0.00635696 -0.0519174c-0.0238641,0.0171628 -0.0540601,0.0976972 -0.0540601,0.136766 0,0.0448238 0.0337583,0.0738177 0.0496805,0.104689 0.0152663,0.0295959 0.0282918,0.0767432 0.0392804,0.112488 0.0185804,0.060444 0.0227716,0.0556027 0.0566683,0.0962988 0.0163723,0.0196556 0.0471396,0.0716211 0.0733022,0.0716211 0.0204808,0 0.0312751,-0.0415809 0.0312751,-0.0704459l0 -0.0140873c0,-0.063435 -0.0344603,-0.0839254 -0.0618597,-0.113542 -0.0143585,-0.0155202 -0.0241488,-0.121875 -0.0241488,-0.154148l0 -0.0516597c0,-0.0589553 0.0717365,-0.0894879 0.0899188,-0.122104l-0.0180149 -0.0172821c0.0218252,-0.0351047 0.125866,-0.0484668 0.186125,-0.0484668 0.0233371,0 0.013793,0.19255 0.129013,0.19255l0.00782262 0c0.0125697,0 0.0390939,-0.0114541 0.0390939,-0.0281784l0 -0.00469703zm2.06032 -1.95366c-0.00715519,-0.0162434 -0.042456,-0.0632272 -0.0639793,-0.0633638 -0.0242295,-0.000155798 -0.0563913,-0.0399556 -0.0806728,-0.0399556l-0.00390843 0c-0.0318598,0 0.00748025,0.0297633 0.0117253,0.0516597 -0.0251932,-0.0025197 -0.103791,-0.0382341 -0.125102,0l0.107441 0.0405172 -0.000271205 0.00849775 -0.0521098 0.0591419 0.00347565 0.00629349 0.046953 0.00407961c-0.0222946,0.0222272 -0.125037,0.0335505 -0.125037,0.0834118l0 0.0281764c0,0.032885 0.0345873,0.0618001 0.0351854,0.0939272 -0.0398632,0.0229755 -0.0926905,0.0980357 -0.0581282,0.163748 0.0145623,0.0276802 0.033414,0.0466511 0.0505826,0.0707402 0.0181861,0.0255202 0.0173302,0.0496247 0.0388207,0.0848601 -0.00600882,0.0107809 -0.0234563,0.0742582 -0.0234563,0.0892302 0,0.01839 0.0370358,0.0375705 0.0508249,0.0375705l0.0039065 0c0.00049817,0 0.047055,-0.0187843 0.0781897,-0.0187843 0.0872414,0 0.136883,0.0610518 0.168114,0.0610518l0.00391035 0c0.0291324,0 0.0430004,-0.0336602 0.0430004,-0.0704459 0.00885935,-0.00283899 0.0156395,-0.00451431 0.0156395,-0.0187843l0 -0.070444c0,-0.0156202 -0.00702055,-0.0137545 -0.0195479,-0.0140892l0 -0.0187862 0.00504325 0.00356221 0.0186862 -0.0381764 0.00321406 -0.00354682 0.00236583 0.0427022c-0.000950178,0.018113 -0.00110021,0.0471185 0.0136987,0.0471185l0.00781685 0c0.0178149,0 0.0692322,-0.0413251 0.079336,-0.0550045 0.0235737,-0.0319021 0.00667433,-0.0636581 0.00667433,-0.118759l0 -0.00939215c0,-0.0452046 0.0781897,-0.0368396 0.0781897,-0.0986223 0,-0.0708768 -0.0271493,-0.094762 -0.0351874,-0.136193 0.00886128,-0.00284092 0.0156375,-0.00451623 0.0156375,-0.0187862l0 -0.00469703c0,-0.0955295 -0.0228601,-0.0740081 -0.0312751,-0.117407l-0.0472589 -0.00690706 -0.00356605 -0.00248508c-0.012887,0 -0.0300114,0.0140546 -0.0469146,0.0187843l-0.00438544 -0.0186035 -0.0548891 0.0104616 0.00392574 -0.000571261 -0.0433158 -0.0512038 -0.0141065 0.0137545 -0.012964 -0.0237872 -0.0188805 0.00437005 -0.0101673 -0.0202269 -0.017234 0.0153625zm0.0742812 -0.314653c-0.0416482,0 -0.0917018,-0.0845332 -0.156381,-0.0845332l-0.0351854 0 -0.0509422 0.00857276c0.00332947,0.0060896 0.13944,0.0806555 0.0939465,0.0806555l-0.00781877 0c-0.00823424,0 -0.100869,-0.0469627 -0.129015,-0.0469627l-0.0117291 0c-0.0250893,0 -0.0958584,0.0292401 -0.0977376,0.0563567 0.0320098,0 0.111227,0.000913633 0.117287,0.0281764 -0.0500094,0 -0.0905554,-0.00143681 -0.135164,0.0067051 -0.0483745,0.00882666 -0.078984,0.0355624 -0.111138,0.0355624 -0.023589,0 -0.0400979,-0.0210386 -0.074187,-0.023591 -0.0257048,-0.00192536 -0.0614327,-0.0101038 -0.086045,-0.00957487 -0.0585725,0.00125985 -0.115701,0.0135949 -0.166479,0.0261568 -0.0369031,0.00912864 -0.01206,0.0257452 0.00457778,0.0558355 0.0134564,0.0243353 0.0247796,0.0436274 0.03703,0.0682301 0.0143238,0.0287573 0.0466222,0.127289 0.0466222,0.169418l0 0.0234813 -0.00437582 0.0421829 -0.00735138 8.46313e-005c-0.0251528,-0.12969 -0.0401383,-0.20896 -0.111092,-0.289222 -0.038815,-0.0439044 -0.155775,-0.156928 -0.22122,-0.156928l-0.00216579 0.00423926 0.048034 0.0353816 0.00104635 0.0120369 -0.140169 -0.0314405 0.0171186 0.0240449c-0.0108232,0.00515481 -0.0110425,0.00739562 -0.0216002,0.00739562l-0.00391035 0c-0.0149586,0 -0.0329985,-0.0140873 -0.0625521,-0.0140873l-0.0625521 0c-0.000992494,0 -0.0331524,0.0273532 -0.0662894,0.0330831 -0.0248008,0.00428734 -0.048386,0.018188 -0.069513,0.0292112 -0.0436909,0.0227947 -0.0828905,0.0507114 -0.117439,0.0843447 -0.0388284,0.0377994 -0.0615077,0.0722405 -0.0951044,0.111682 -0.0369627,0.0433966 -0.0176668,-0.0136603 -0.00567606,-0.0354932 0.00897861,-0.0163454 0.0362914,-0.0525964 0.0373493,-0.0678512l-0.0545372 -0.0110944 -0.191763 0.00170224c-0.0135795,0 -0.0159126,0.0294498 -0.0597343,0.0362645 -0.0293844,0.00457009 -0.0483014,0.00501248 -0.0718673,0.016984 -0.02487,0.0126351 -0.109578,0.0605383 -0.122515,0.0641601l0 0.00939215c0.0269454,0 0.0656662,-0.0186554 0.0524002,0.0099711 -0.00391227,0.00844004 -0.0400614,0.0301633 -0.0491977,0.0361472 -0.0176245,0.0115464 -0.0892129,0.0583917 -0.0931252,0.0759854l0.031454 0.00844197 -0.194121 0.213854 0.00173879 0.00460279 0.0232755 0.0145104 0.000817461 0.0168878c-0.0658893,0.00658777 -0.184385,0.101773 -0.228035,0.144044 -0.0517212,0.0500882 -0.124796,0.161046 -0.13164,0.259839l0.0154875 0.00527214c0.000150028,0.0735099 -0.0302884,0.135189 -0.00805151,0.201799 0.00471819,0.0141296 0.0160222,0.186735 0.0160222,0.215596 0.0413212,0.0132544 0.0117272,0.0858796 0.0117272,0.150282l0.0372993 -0.0353682c0.00134256,0.0269301 -0.0328677,0.0833272 -0.0412789,0.119819 -0.00807651,0.0350489 -0.0212636,0.100952 -0.0234313,0.140919 -0.00519713,0.0958564 -0.0458355,0.22611 -0.0468684,0.281834l0.019344 0.00565298 -0.0149509 0.111861 0.0088959 -0.0180842c0.02884,-0.00480282 0.0754642,-0.184613 0.0844466,-0.230928l0.0156414 0 0.00821116 0.0433658 0.0365088 -0.125614 0.00981723 0.000907863 0.0122331 0.0436447 0.0058511 0.00336602 0.0146354 -0.0401537 0.0036603 -0.00586456 0.0219118 0.0298171 0.004899 -0.0338967 0.0408096 0.0268185 -0.00302557 -0.0455528 0.119553 0.0628079 0.000842466 -0.00548757 -0.0426503 -0.0915364 0.00551834 -0.00436043 0.129844 0.0652065 0.00278321 -0.0080015c-0.0244027,-0.0437755 -0.0419213,-0.0866951 -0.0688206,-0.13336 -0.0107366,-0.0186227 -0.0797419,-0.113773 -0.0797419,-0.120242l0 -0.00469511c0,-0.0105308 0.00309481,-0.0103096 0.0078207,-0.0187862l-0.00786878 -0.0187497 0.00922288 -0.0178053 -0.0111232 -0.0332043 0.00871894 -0.00607037 0.0574685 0.104254 -0.00467203 0.00592034 -0.017486 0.0158434c0.0428503,0.0132044 0.0787455,-0.0819173 0.0986954,-0.115903 0.00982684,-0.0167454 0.0776088,-0.136999 0.0820673,-0.140923l0.00278514 -0.00378917 0.0272724 0.0289285c0.0132256,-0.0635696 0.050219,-0.159863 0.0702055,-0.233442 0.0118695,-0.0436909 0.0226408,-0.250322 0.0404807,-0.266025l0.0055145 -0.00133102 0.0237006 0.141775c0.00691861,0.00289862 0.0071398,0.00514135 0.0177014,0.00514135l0.0351835 0c0.106655,0 0.263297,-0.0345353 0.33403,-0.0777723 0.0475935,-0.029092 0.0838965,-0.0523906 0.121003,-0.094158 0.0262607,-0.0295575 0.0661797,-0.105152 0.107939,-0.105152 -0.00293709,0.0423753 -0.0852294,0.0534619 0.0234544,0.14089 0.0622367,-0.0016657 0.0543275,0.0187843 0.0821039,0.0187843 0.0533427,0 0.0369223,0.00664548 0.0781897,0.0328754l0.00918634 -0.0130524c0.0429908,-0.00103673 0.10028,0.0915364 0.10028,0.149245 -0.0236025,-0.00236006 -0.0222272,-0.0334274 -0.0423887,-0.0430042 -0.0270762,-0.0128582 -0.0268897,-0.00556451 -0.0560817,-0.0265627 -0.0171532,-0.0123369 -0.0870317,-0.0614538 -0.104825,-0.0619308 0.00321983,0.0106789 0.0242199,0.0325138 0.00171763,0.0354566 -0.00737061,0.000965566 -0.0367857,-0.00684744 -0.0426041,-0.00982107 -0.0236083,-0.01206 -0.0460509,-0.0269589 -0.0681032,-0.0408807 -0.028363,-0.0179014 -0.0924539,0.0671184 -0.121671,0.0856911l-0.0100577 0.136422c-0.00341025,0.0180207 0.0288112,-0.00614731 0.0178841,0.0364645 -0.00523367,0.0204077 -0.00725521,0.0341756 -0.0119811,0.0569434 -0.00752449,0.0362587 -0.023214,0.0673299 -0.023214,0.113l0.0144162 -0.0198941c0.0350239,0.0119503 -0.00909594,0.143915 -0.0167262,0.176795 -0.00645121,0.0277975 -0.0175552,0.0622405 -0.0247296,0.0879915 -0.0202923,0.0728137 0.0152452,0.0181015 0.03095,0.0181015l0.00390843 0c0.0290901,0 -0.0373243,0.0549757 -0.0478898,0.0692707 -0.0180303,0.0243969 -0.0381918,0.0583206 -0.0526464,0.0870432 -0.0173917,0.0345565 -0.0675704,0.172496 -0.0675704,0.219391l0 0.122104c0,0.160347 0.187656,0.35705 0.301033,0.37101l0.0659547 0.00590495 0.0857719 0.0807151 0.00567991 -0.0074437 -0.00987493 -0.0221618 0.132648 0.146564 0.0163396 -0.0165262c0.0138237,0.012435 0.0361299,0.0404307 0.0482764,0.056274 0.0421348,0.0549526 0.0245527,0.0088632 0.0226966,-0.0179034l0.127703 0.125022 0.00522021 -0.00761489c-0.0600805,-0.107784 0.0365665,-0.0149605 0.0807074,0.00167724 0.0268608,0.0101231 0.155908,0.0418252 0.157778,0.0687687l-0.0050471 -0.00735138 -0.156416 0.154929 0.00507788 0.00739946c0.0144142,-0.00144065 0.0505903,-0.0281784 0.0547353,-0.0281784l0.00391227 0c0.0322522,0 -0.0857353,0.10696 -0.0972028,0.118055 -0.0211193,0.0204346 -0.0917134,0.110713 -0.0982742,0.140244l0.0026178 0.00460663 0.0518943 -0.0425657 0.0157414 0.0100384c-0.0267012,0.0478513 -0.0541775,0.0979222 -0.0820846,0.145212 -0.0115022,0.0195017 -0.0300787,0.052431 -0.0399883,0.0740908 -0.040875,0.0893014 0.0127216,0.00130986 0.0127216,0.0434331l0 0.0281784c0,0.0185785 -0.0407615,0.0521713 -0.0430023,0.0845332l0.0196075 0.00922673 0.0035372 0.00218695 -0.0341025 0.0876434 0.0377975 -0.0206096 0.00611846 0.00478744 -0.035499 0.0842889 0.084135 -0.0201519 0.00772068 0.0267319 0.0202134 -0.00956526c0.00401229,0.00714172 0.00512019,0.0139218 0.0155722,0.0139218 0.0233852,0 0.0395247,-0.00442198 0.0547353,-0.0140892l0.020525 0.0171763 -0.0139565 0.0237891 0.00260818 0.00419117 0.0380187 -0.0257798 0.0229389 0.00962104c0.0587456,-0.0523117 0.0372358,0.00406422 0.0823385,0.00857276 0.00821308,-0.0369396 0.038438,-0.0052683 0.0508249,0.00469511 0.017963,-0.0057607 0.00986916,-0.0140873 0.0234563,-0.0140873l0.00390843 0c0.0237487,0 0.0104847,0.0140873 0.0469165,0.0140873 -0.00250047,-0.0112406 -0.016153,-0.0281764 0.00390458,-0.0281764l0.00391227 0c0.0187862,0 0.0203115,0.0140892 0.0390958,0.0140892l0.00391035 0 -5.57797e-005 -0.00509519 0.0665009 -0.00105981c-0.0434947,-0.0765971 0.159478,0.0202423 0.187674,0.0202423l-0.0520482 -0.0545949 0.00561067 -0.0203634 0.119851 0.0408654 0.00873241 -0.0222253 0.0624367 0.0056299c-0.00218695,-0.0335659 -0.0522887,-0.0433908 -0.0772568,-0.0583648 -0.0104712,-0.00628002 -0.0788686,-0.0404287 -0.086874,-0.041227 0.00247354,0.0356932 0.0124408,0.0680128 -0.0230889,0.0089613 -0.0110482,-0.0183611 -0.0297094,-0.0413424 -0.0378475,-0.0625617 -0.0166493,-0.0434004 -0.038236,-0.116807 -0.0307058,-0.17848 0.0112617,-0.0921673 0.0115502,-0.109574 0.028715,-0.186343 0.00490284,-0.0219195 0.0193863,-0.0541813 0.0289266,-0.0732676 0.0227023,-0.0454047 0.00828232,-0.0310212 0.0535485,-0.0436909 0.0118522,-0.171086 0.172021,-0.23961 0.172021,-0.389792l0 -0.0704459c0,-0.126154 -0.0294401,-0.110386 -0.0833445,-0.167574 -0.0425695,-0.0451604 -0.0751179,-0.0814864 -0.115064,-0.12947 -0.0740889,-0.0889994 -0.148745,-0.178901 -0.236644,-0.251112 -0.0476455,-0.0391458 -0.0870933,-0.0660201 -0.137951,-0.101977 -0.0530176,-0.037484 -0.096495,-0.0529484 -0.152036,-0.0850525 -0.052681,-0.0304499 -0.110228,-0.046576 -0.166776,-0.0673511 -0.0261126,-0.00959218 -0.057255,-0.0232313 -0.0850025,-0.0293901 -0.0418963,-0.0092979 -0.0499651,-0.0122465 -0.067026,-0.0509788l-0.140699 0.0103577c0.00639543,-0.0223311 0.0306288,-0.0291439 0.0546872,-0.0291439l0.0586437 0c0.0320137,0 0.239789,0.0711018 0.283803,0.0864451 0.0484418,0.0168878 0.23711,0.101407 0.267442,0.101407 0.00352374,-0.015853 0.132923,-0.224758 0.132923,-0.173763l0 0.00939215c0,0.0217637 -0.00729752,0.0141257 -0.00782262,0.0422675 0.0271147,-0.00869586 0.0491073,-0.0815249 0.0694111,-0.109172 0.0289381,-0.0394074 0.0798861,-0.0468876 0.0830617,-0.0927693 -0.0709287,0 -0.221484,-0.0115752 -0.234569,-0.070444 0.00876703,-0.00245431 0.00898822,-0.00469703 0.0195479,-0.00469703 0.189451,0 0.240707,0.0410923 0.396057,-0.0596169 0.0541736,-0.0351181 0.0902765,-0.0732003 0.133821,-0.121021 0.0226523,-0.0248739 0.0958834,-0.126606 0.12301,-0.129318l0.00438159 0.00345834 -0.0911709 0.166602 0.00469126 0.00370262c0.00552219,0.0164435 0.0441083,0.0190266 0.0625521,0.0187862l0.0586187 -0.00272936 2.69281e-005 0.0121215 0.00101942 0.00628387 -0.150463 0.0352778 -0.00141565 0.00954025 0.150699 0.120592 -0.00320252 0.00799958 0.0184496 -0.0118599 -0.00238699 0.00800727 0.153592 0.0960372 0.00181573 -0.00418925 0 0.0140892 -0.0469011 -0.00151375 -0.00783224 0.00151375c-0.0135852,0 -0.0059665,-0.00939215 -0.0195479,-0.00939215l-0.00391035 0c-0.0127101,0 -0.00295248,0.00406999 -0.0195498,0.00939215l-0.0150336 -0.0148893c-0.011304,0.00940753 -0.0279687,0.0310712 -0.0279687,0.0524598l0 0.0469646c0,0.0201999 0.00455855,0.0254567 0.00781877,0.0422656l0.0225235 -0.0157587 0.0106174 0.0865239 0.017461 -0.00604152 0.00962873 -0.0241218c0.0306788,0.0107616 0.0382822,0.0639639 0.0453277,0.100288l0.0195133 -0.00486437 0.025651 0.050221 0.0167705 -0.0178553c0.040775,0.0426061 0.0438486,0.216706 0.067078,0.216706 0.0557778,0 -0.0148259,0.0492765 -0.0357682,0.0697458 -0.0112386,0.0109848 -0.0626944,0.0802997 -0.0658777,0.0946254 0.0676165,0 0.108418,-0.0942042 0.136833,-0.103319l0.006582 0.00608768 -0.083883 0.130928c0.0314636,-0.000821308 0.0556124,-0.00967681 0.0787282,-0.0226216 0.0583744,-0.0326927 0.033087,-0.0103616 0.0259376,0.0264954l0.0461971 -0.0206712 0.0111829 0.0307038 0.0137218 -0.0268685 0.0105789 0.0591842c0.0108597,-0.00927097 0.0355144,-0.0926539 0.0401018,-0.00551065 0.00259664,0.0493246 0.0114983,0.0655777 0.0189593,0.104052l0.0126562 -0.0324503 0.0108039 -0.000423156 0.0473223 0.149095 0.00741101 -0.00351027c0,-0.0246585 -0.00134448,-0.0459125 -0.00232351,-0.0678666 -0.00165416,-0.0371877 0.0179611,-0.0160376 0.0179611,-0.0401479l0 -0.0234833c0,-0.0756373 -0.0349392,-0.233017 -0.0242949,-0.30146 0.0156375,-0.100532 0.0438409,-0.15114 0.0438409,-0.280882l0 -0.0610518c0,-0.106666 -0.0179745,-0.17948 -0.0451181,-0.25576 -0.019169,-0.0538832 -0.0867105,-0.169291 -0.0917134,-0.195087l-0.0195479 0 0.00704171 0.0051048 -0.0696304 0.138591 -0.00487591 -0.0075418 -0.038588 0.0117964 0.0209289 -0.0865451 0.0186266 -0.00521829 -0.0095364 0.0226562 0.00957295 0.000994417 0 -0.0140892c0.027684,-0.00276783 0.0560663,-0.135275 0.0547314,-0.183157l-0.0049567 -0.131298 0.0049567 -0.000198114 0 -0.00939215c0,-0.029317 -0.02241,-0.0636812 -0.0273667,-0.0892302l-0.0559759 0.130676 -0.00657623 -0.00387573c0,-0.0545391 0.0277456,-0.120865 0.0345776,-0.169797 0.00883627,-0.0632869 0.0201576,-0.109632 0.0201576,-0.182427l0 -0.0610518c0,-0.122279 -0.113444,-0.272388 -0.195477,-0.272388 -0.00700324,0 -0.0625521,0.0486534 -0.0625521,0.0610538 0,0.0528984 0.0296786,0.0650872 -0.00519713,0.115874 -0.0251913,0.0366896 -0.00653199,0.0635638 -0.00653199,0.123637l0 0.0187862c0,0.0430138 -0.00672626,0.049417 -0.031277,0.0469627 0,0.0574069 -0.0796169,0.223653 -0.117285,0.201942l0.0164665 -0.0465953 -0.126674 0.117103 -0.00316983 -0.00475858c0,-0.0457374 0.021279,-0.053108 -0.0219984,-0.0218002 -0.0196998,0.0142507 -0.0351027,0.0231428 -0.0572223,0.0346507 -0.048009,0.0249778 -0.0831444,0.0309289 -0.139717,0.0294151l-0.00361991 -0.00682243 0.0475243 -0.0364203 0.0030121 0.00567222 0 -0.00939215 -0.253534 0.042783 -0.000444314 -0.00525483 -0.00484514 -0.0231986 -0.00702247 -0.00024043 -0.0384457 0.0609595 -0.00720327 -0.00554335 0.0344141 -0.139774 0.00732445 -0.000175033 0.00217733 0.0377686c0.0176995,-0.00714172 0.0329754,-0.0565106 0.0570915,-0.0557508 0.0265896,0.000836695 -0.0123542,0.0655469 -0.0123542,0.0790341l0 0.00469703c0,0.0352643 0.103494,-0.0312905 0.115545,-0.0396613 0.021154,-0.0146874 0.0943388,-0.0683301 0.111205,-0.0730502l0.00416424 0.00625117 -0.086322 0.0828886c0.0518309,8.84781e-005 0.133733,-0.0609634 0.172078,-0.0609634l0.00391035 0c0.00900746,0 0.0117291,0.00326792 0.0117291,0.0140892l0 0.00469703c0,0.0256144 -0.013239,-0.00181765 -0.0156395,0.0328735 0.05929,-0.00592611 0.141867,-0.123787 0.172021,-0.126801l0.00475281 0.0327561 0.00697438 0.000119253 0.07361 -0.15506 -0.00131948 -0.00588957 0.00944985 0.0624059 0.00815153 0.00108097 0.0160626 -0.155496 -0.00430465 -0.000642428c-0.0637158,0.0063685 -0.0713922,0.159674 -0.140742,0.159674l-0.0078207 0c-0.0424387,0 -0.0983608,-0.070444 -0.191569,-0.070444 -0.00261588,0 -0.0415463,0.0328735 -0.0469126,0.0328735l-0.031277 0c-0.0211924,0 -0.0547353,-0.0407499 -0.0547353,-0.0610518 0,-0.0331755 0.0117291,-0.0464087 0.0117291,-0.0657489l0 -0.0469627c0,-0.0549911 -0.0696131,-0.102802 -0.0842581,-0.157376 -0.0221888,-0.0826732 0.0409461,-0.121588 0.0608018,-0.16667 -0.0086824,-0.0197133 -0.0351854,-0.0511154 -0.0351854,-0.075141l0 -0.0140892c0,-0.0472204 0.0236679,-0.0499998 0.031277,-0.0892302l-0.0639043 0.0470819 -0.00494708 -0.00703593 0.0220387 -0.034193 0.00380841 0.00354105 0 -0.0187862 -0.0050221 -0.000200038 0.000648198 -0.0233005 0.0968374 -0.033866 0.00136564 0.00570684 0 -0.00939215 -0.0900053 0.000875164 -0.00182342 -0.00427965 0.0795668 -0.0270339c-0.0222869,-0.0151317 -0.0905112,0.000201961 -0.0932963,-0.0400056l0.0966027 -0.0458163 -0.0536697 -0.0148374c0.0103577,-0.0188535 0.0297614,-0.0238814 0.0548045,-0.0238814 0.040823,0 0.109095,0.0279629 0.125104,0.0234813l-0.12717 -0.0894995 0.00206577 -0.00442583c0.0845543,0 0.126755,0.0747102 0.172017,0.0892302l0.00471627 -0.00420848 -0.0340775 -0.0550622 0.00663586 -0.00705325 0.0778973 0.0989551 -0.00434697 0.00493939 0.0078207 0 0.00727444 -0.00581648 -0.0684763 -0.123635 0.00527214 -0.00654738 0.0393555 0.0342295 0.008617 -0.0251086 0.00412577 -0.00352181 0.0586918 0.093883 -0.0040373 0.00364107 0.0078207 0c0,-0.0369569 -0.0117291,-0.0459144 -0.0117291,-0.0563548l0 -0.00469703c0,-0.013416 0.00122908,-0.00858815 0.00781685,-0.0140892l0.0277129 0.0579666 -0.00425657 0.00308712 0.00782454 0 -0.00556451 -0.0393651 -0.00616462 0.00179457 0 -0.0375705c0.0438044,0.0140507 0.0554104,0.192215 0.0664567,0.20194l0.0103981 -0.141013 0.00948255 -0.00164839 0.0157049 0.104154 0.00349681 0.00452777 0.0279976 -0.0878415 0.0072052 -0.000282745 0.00604344 0.00216387 -0.0332832 0.134075 0.0669087 -0.0526483 0.00333524 0.00563952c-0.00868047,0.0288073 -0.019521,0.0340737 0.0156356,0.0187862 -0.003266,0.0472127 -0.00501056,0.0164627 0.0234602,0.0328735l-0.00721866 0.0238218 0.046251 0.00940561 0.00475474 0.0156145c0.00312751,-0.143669 -0.0318637,-0.0561836 -0.0325003,-0.118757 -0.000473166,-0.046226 -0.00754372,-0.103987 -0.0293921,-0.124369 -0.0455393,-0.042483 -0.0216752,-0.0464452 -0.0561894,-0.0921731 -0.0147143,-0.019494 -0.0505576,-0.0591303 -0.0742678,-0.0657662l-0.00614923 0.0153548c-0.023589,-0.0205539 -0.0200461,-0.0482283 -0.0642255,-0.0482283l0.0611076 0.0873798 -0.00637235 0.00654546 -0.0117272 0 -0.0310174 -0.0469261 -0.00260433 0.00371993 -0.00625887 -0.0150278 -0.005753 0.00282553 0.00653776 0.022535z"/>
 </g>
</svg>
