<?xml version="1.0" encoding="UTF-8"?>
<!DOCTYPE svg PUBLIC "-//W3C//DTD SVG 1.1//EN" "http://www.w3.org/Graphics/SVG/1.1/DTD/svg11.dtd">
<!-- Creator: CorelDRAW -->
<svg xmlns="http://www.w3.org/2000/svg" xml:space="preserve" width="25in" height="39in" style="shape-rendering:geometricPrecision; text-rendering:geometricPrecision; image-rendering:optimizeQuality; fill-rule:evenodd; clip-rule:evenodd"
viewBox="0 0 0.0458622 0.0378549"
 xmlns:xlink="http://www.w3.org/1999/xlink">
 <defs>
  <style type="text/css">
   <![CDATA[
    .fil0 {fill:#28166F}
   ]]>
  </style>
 </defs>
 <g id="Layer_x0020_1">
  <metadata id="CorelCorpID_0Corel-Layer"/>
  <path class="fil0" d="M0.0144883 0.0326665l0.00112615 1.17364e-005 -3.79175e-006 -0.000445441c-0.000194643,-0.000164129 -0.000499248,-0.000114475 -0.000748059,-0.000111766 -0.000347397,3.61119e-006 -0.000469455,-5.92236e-005 -0.0003743,0.000545471zm0.0166653 -0.0206405c0.000330244,0.000417273 0.000913813,0.000311104 0.00108859,-0.000226783 -0.000247908,-0.000405718 -0.00101854,-0.00060343 -0.00108859,0.000226783zm-0.00101619 -0.00312657c9.8405e-005,0.000726753 0.000368161,0.000820283 0.000706891,0.000756906 -0.000186518,-0.000154198 -0.000428107,-0.000246283 -0.000345591,-0.000797893 0.000146795,-0.000982245 0.00180506,-0.000864339 0.00195456,-0.000115739 1.04725e-005,0.000464219 -4.62233e-005,0.000651459 -0.000282395,0.000700391l0.000463316 2.04032e-005c6.89738e-005,-0.000229852 0.000134517,-0.000298646 0.000157629,-0.000616611 -0.00037412,-0.0011935 -0.00223966,-0.00101005 -0.00265441,5.25429e-005zm-0.0224038 0.0233812c-2.00421e-005,0.000482455 -1.22781e-005,0.000960216 1.08336e-006,0.00144357 1.73337e-005,0.000616611 1.46253e-005,0.000793921 0.000289798,0.000937105 0.000143003,-0.000434246 -4.91122e-005,-0.00143148 4.69455e-005,-0.00206326 0.000763045,-0.000284201 0.000941077,0.000215408 0.0010635,-0.000395787 -7.67379e-005,-8.81131e-005 -3.99037e-005,-6.84321e-005 -0.000155101,-0.000120433 -0.000257478,-0.0001161 -0.0010142,-5.25429e-005 -0.00124622,0.000198796zm-0.00253127 -0.0143455c0.000615347,0.00111387 0.00237617,0.000707975 0.00219091,-0.000349383 -9.98495e-005,-0.000569485 -0.000806199,-0.000717905 -0.00121264,-0.000693349 -0.000454469,2.78062e-005 -0.000953536,0.000195185 -0.000978272,0.00104273zm0.00030316 -2.78062e-005c0.000112308,-0.00115161 0.0010532,-0.000930243 0.00158441,-0.000478122 -3.43063e-005,0.000763767 -0.000267228,0.000938549 -0.000684682,0.000979536 -0.000433885,4.27926e-005 -0.00067421,-8.05296e-005 -0.000899729,-0.000501414zm0.0251346 0.00210858c0.000273367,0.000649834 0.00173283,0.000625639 0.00160012,-0.000520012 -0.000237255,-0.000214685 -0.000575444,-0.00029359 -0.000908215,-0.000185435 -0.000327535,0.00010635 -0.000604514,0.000225158 -0.000691905,0.000705447zm-0.000227686 -0.00814071c0.000191393,0.00117418 0.00157773,0.00101583 0.00205874,0.000655973 0.00167957,-0.00125597 -0.00148691,-0.00259139 -0.00205874,-0.000655973zm0.0010969 -0.000784712c0.000265062,-0.000164129 0.000873548,3.30424e-005 0.00101312,0.000421787 0.000371772,0.00103407 -0.00145621,0.00139591 -0.00167144,0.00056768 -0.000188143,-0.000723864 0.00036148,-0.000805838 0.000658321,-0.000989467zm-0.0218582 0.00433271c-0.000446163,0.000122781 -0.00130761,0.000564791 -0.00079356,0.00145459 0.000303521,0.000525429 0.00115486,0.000695696 0.00167487,0.000534276 0.00170593,-0.000529582 0.0007096,-0.00242672 -0.000881312,-0.00198886zm0.000265062 0.000190129c0.00108372,-0.000524706 0.00174385,0.00141324 0.000304424,0.00158983 -0.000371772,4.56816e-005 -0.00101059,-3.43063e-005 -0.00110214,-0.000595486 -0.000125308,-0.000769906 0.000628167,-0.000912368 0.000797713,-0.000994342zm0.0184218 0.0187889l9.00993e-005 9.65994e-005c0.000261992,0.000196629 0.000830394,0.000171532 0.00108444,6.40987e-005 0.000118267,-0.000384412 3.90009e-005,-0.000460788 0.000117364,-0.000813241l0.00280788 -2.27505e-005 7.04183e-006 -0.000821547 -0.00281222 -3.17785e-005 -0.000118086 -0.000716822c-0.00145332,-0.000463677 -0.00126681,0.000146073 -0.00125182,0.00124821l2.85284e-005 0.00078724c9.55161e-005,0.000690821 -7.20433e-005,-0.000102738 4.6765e-005,0.000209991zm0.000399037 -0.0018789l0.000324466 3.64731e-005 4.65844e-005 0.00155642 -0.000354439 -3.53897e-005 -1.66115e-005 -0.00155751zm-0.00107577 -0.00724243c0.000315438,-0.000389106 0.000472344,8.37797e-005 0.000416371,-0.000577069l-0.00213999 4.98345e-005 -1.98616e-006 0.000387662 0.000466025 0.000213783 -4.33343e-006 0.002452c-0.000292507,5.18206e-005 -0.00035823,-8.23352e-005 -0.000426301,0.000323924 0.000105627,0.000173157 -0.000171712,0.000189588 0.000540054,0.000147337 0.00030334,-1.8056e-005 0.00142335,0.00011303 0.00162034,-9.96689e-005 -1.20975e-005,-0.000770629 -8.97382e-005,-8.6127e-005 -0.000410412,-0.00059675 -0.000172434,-0.000415468 -0.000106711,-0.00172128 -5.97653e-005,-0.00230105zm-0.0102032 -0.000490942c-4.15287e-006,-5.41679e-007 -0.000236172,1.9681e-005 -0.000239603,2.00421e-005 -0.000427204,3.82787e-005 -0.00129768,-7.15016e-005 -0.00156166,9.53355e-005 2.16672e-006,0.000968342 -2.83479e-005,-8.48631e-006 0.000453385,0.000615167l0.000379717 0.000619139c0.000149142,0.000210713 0.000257659,0.000420523 0.000382787,0.000627806 0.000208727,0.000345952 0.000197713,0.0004709 0.000159795,0.00109816 -0.000311285,0.000112669 -0.000391995,-9.10021e-005 -0.00043226,0.000392176 0.000194282,0.000211616 0.00196467,0.000127475 0.00212898,-6.40987e-005 -7.8724e-005,-0.00046765 0.000122419,-0.000138309 -0.00019681,-0.000349744 -0.000701113,-0.0004644 -6.78904e-005,-0.00131447 0.000195185,-0.00183611 7.34878e-005,-0.000145892 0.000270117,-0.000474511 0.000384231,-0.000598555 0.000314896,-0.000342883 0.000403009,8.3238e-005 0.000426301,-0.000529401 -0.000166837,-0.000152934 -0.00135203,-0.000138309 -0.00151923,1.8056e-005 -0.000215588,0.000335119 0.000137406,0.000388745 0.00026127,0.000620584 -9.37105e-005,0.000214324 -0.000210171,0.000414565 -0.000337827,0.00064514 -0.000204394,-8.01685e-005 -0.000450135,-0.000482636 -0.000540415,-0.000775684 0.000262534,-0.000364189 0.000227144,0.000199157 0.000302257,-0.000437496l-8.75714e-005 -9.71411e-005c-1.49865e-005,-9.93078e-006 -3.15979e-005,-2.52784e-005 -4.89317e-005,-3.37647e-005 -8.7752e-005,-4.33343e-005 -2.78062e-005,-1.67921e-005 -0.0001096,-2.96118e-005zm0.00269142 -0.0197798l-7.22239e-007 4.87511e-006c1.8056e-006,-1.08336e-006 1.8056e-006,-2.7084e-006 7.22239e-007,-4.87511e-006zm-0.00472434 0.0205564c-0.000128197,-0.00113572 -0.00343298,-0.000520373 -0.00343388,-0.000519831 -3.53897e-005,0.00055504 7.43906e-005,0.000326813 0.000392898,0.000501053 9.60578e-005,0.000528859 0.000123322,0.00186283 5.05567e-005,0.00232037 -3.08757e-005,3.44869e-005 -3.57508e-005,4.89317e-005 -0.000123503,9.80439e-005 -0.000350466,0.000196629 -0.000246464,-0.000111947 -0.000260367,0.000413482 1.8056e-007,0 0.0034792,0.000483719 0.0035935,-0.000809268 -6.55432e-005,-0.00103045 -0.000406259,-0.000706169 -0.000775504,-0.00111929 0.000346313,-0.000185074 0.000521276,-0.000230755 0.000556304,-0.000884562zm-0.00180469 -0.000120433c0.000360578,-1.75143e-005 0.000450316,-6.73488e-005 0.00069353,0.000284201 -4.06259e-005,0.000723864 -0.000301715,0.000660487 -0.000717364,0.000583388l2.38339e-005 -0.000867589zm3.19591e-005 0.00151742c0.000128197,-0.000108516 0.000479025,-0.000221727 0.000770268,0.000230033 9.20854e-006,0.000584111 -0.000134156,0.000704544 -0.000465663,0.000729642 -0.000395245,2.99729e-005 -0.0003743,-0.000263617 -0.000304604,-0.000959675zm0.0158416 -0.00153115c0.000117003,-0.000189588 0.000166115,-0.000252784 0.000385314,-0.000282215 0.000143726,-1.93199e-005 0.000367258,-2.34728e-006 0.000512067,2.38339e-005 0.000346313,6.24737e-005 0.000537346,0.00032266 0.000742461,0.000655612l0.000577069 -9.89467e-005 -4.80289e-005 -0.00109816c-0.000336563,2.20283e-005 -0.000581402,0.000141017 -0.000885104,5.32651e-005 -0.00217827,-0.00062907 -0.00291586,0.00104815 -0.00226982,0.00168986 0.00078724,0.000781643 0.00190454,0.000333494 0.00214306,0.00119224 -0.000291423,0.000408787 -0.000785615,0.000361661 -0.00119819,9.56966e-005 -0.000694433,-0.000447788 0.000105808,-0.000557027 -0.00106584,-0.000709419l4.51399e-005 0.0013105c0.000436774,0.00016467 0.000497081,-0.000129822 0.000982425,2.582e-005 0.000350466,0.000112308 0.000693891,0.000124767 0.00105862,0.000103461 0.000341258,-2.00421e-005 0.000627625,-9.35299e-005 0.000941438,-0.000292868 0.000352994,-0.000224075 0.000442913,-0.000338008 0.000488233,-0.00106097 -0.000157448,-0.00131014 -0.00205748,-0.000824977 -0.00240885,-0.0016077zm-0.00623671 -0.000653445c3.61119e-005,0.000795185 -3.73759e-005,0.000324646 0.000298646,0.000611736l7.94463e-006 0.000733433 -0.000965092 1.24586e-005c-0.000176948,-0.00119079 0.00010328,-0.000712308 0.000264339,-0.00118339 -9.96689e-005,-0.000183629 4.51399e-006,-0.000211977 -0.000432079,-0.000182726l-0.00143635 4.6765e-005c-0.000227686,7.99879e-005 -2.61812e-005,-1.13753e-005 -0.000130184,9.19049e-005 5.25429e-005,0.000699488 6.93349e-005,0.000101294 0.00044508,0.000549985l5.48901e-005 0.00223605c-0.000495275,0.00050322 -0.000409509,-0.000186879 -0.000436232,0.000546915 0.000114655,0.000110141 -1.8056e-007,6.60848e-005 0.000182004,8.82937e-005 0.000344688,4.18898e-005 0.00162901,2.79868e-005 0.00178555,-0.000156004 -3.66536e-005,-0.00075817 -0.000169546,-7.90851e-005 -0.000289618,-0.000638098 -9.46133e-005,-0.000440566 -3.75564e-005,-0.000747878 0.000180379,-0.000783448 0.000670057,-0.000109419 0.000853325,-0.000170268 0.000804935,0.000954619 -0.000275895,0.000301535 -0.000233464,-7.11405e-005 -0.000273548,0.000476316 0.00020638,0.000225158 0.00167325,0.000184532 0.00197532,4.35149e-005l2.257e-005 -0.000331688 -0.00044833 -0.00020638 -5.57929e-005 -0.00243593c0.00045808,-0.000107614 0.000395967,-8.07102e-005 0.000457538,-0.00035823 -8.66686e-005,-0.000180921 7.40295e-006,-0.000121697 -0.000140114,-0.000168462 -2.88895e-006,-9.02798e-007 -0.000229311,2.47367e-005 -0.000239964,2.56395e-005l-0.0016319 2.67228e-005zm0.00685549 0.00949491c-0.000256214,0.000532832 1.02919e-005,0.00081631 -0.000661932,0.000909118 -0.000298285,4.11676e-005 -0.000863256,1.49865e-005 -0.00115287,-0.000109419 -0.000372134,-0.000159795 -0.000481553,-0.000467469 -0.000495997,-0.00123683 -9.02798e-006,-0.000490039 -6.39181e-005,-0.00159813 7.18628e-005,-0.00193072 0.000200241,-0.0004904 0.00169997,-0.000580138 0.00200223,-0.000143184 0.000168462,0.000243575 8.10713e-005,0.000422871 0.00030966,0.000523984 4.00842e-005,1.78754e-005 0.00152302,0.000139573 0.001644,-4.02648e-005 5.0015e-005,-7.43906e-005 0.000451038,-0.00222594 -0.00189696,-0.0022774 -0.00112073,-2.43756e-005 -0.00266452,-0.00015492 -0.00351026,0.000784532 -0.000446344,0.000495817 -0.000528679,0.00114854 -0.000493289,0.00248486 3.34035e-005,0.00126338 -4.64038e-005,0.00209215 0.000426301,0.00262823 0.000879687,0.000997592 0.00212338,0.000865603 0.00327698,0.000860547 0.00102919,-4.51399e-006 0.00248667,-0.000152031 0.00228137,-0.00246554l-0.00180108 1.20975e-005zm0.00472236 -0.00273963c0.000464219,-0.000105447 0.00121553,-0.000251881 0.00159254,2.94312e-005 0.000380981,0.000284381 0.00111333,0.000221547 0.00157647,0.00015492l-1.01113e-005 -0.00170791 -0.00539711 9.96689e-005 -9.02798e-006 0.00130815 0.000359855 0.000197893 -2.00421e-005 0.00366446 -0.000331869 0.000215227 4.47788e-005 0.00120939c0.000584652,9.19049e-005 0.00513187,0.000194824 0.00540072,3.90009e-005 0.000102919,-0.00037087 5.05567e-005,-0.00113283 4.3876e-005,-0.0016579l-0.00132079 -5.66957e-005c-0.000405356,5.38068e-005 -5.57929e-005,-6.31959e-006 -0.000289979,0.000180199 -0.000187963,0.000149684 -0.00140385,0.000188865 -0.00157936,-4.17093e-005 -0.0001161,-0.000181643 -9.94884e-005,-0.000680168 -6.89738e-005,-0.000921938 9.11826e-005,-0.000720614 0.00152338,-0.000169726 0.00242636,-0.000340716l-1.5167e-005 -0.00114962c-0.000711766,-0.000216491 -0.00176714,0.000141017 -0.00243232,-0.000141378l3.01535e-005 -0.00108047zm-0.013674 0.00496738c1.19169e-005,-0.00030659 2.97923e-005,-0.000739572 4.15287e-006,-0.00104382 -5.68763e-005,-0.000676196 -2.16672e-005,-0.000156545 -0.000130545,-0.000470539 0.000519109,-3.0334e-005 0.00105014,-2.23894e-005 0.00157845,-3.14174e-005 0.000674571,-1.17364e-005 0.000452663,0.000174421 0.00043244,0.000237436 -4.24315e-005,0.000132892 -5.52513e-005,6.77099e-005 -8.73909e-005,0.000300451 -4.42371e-005,0.00031923 4.87511e-006,0.000727836 3.25007e-005,0.0010709l0.00246897 -1.44448e-006 -1.95004e-005 -0.00139392 -0.000453385 -4.06259e-005 -0.00166133 -0.00504791 -0.0026963 6.75293e-005c-0.000184713,0.000402106 -0.000634126,0.00199753 -0.000763406,0.00254896 -0.000207463,0.000883479 -0.00050647,0.00164688 -0.000737406,0.00251989l-0.000432079 6.78904e-005 3.55703e-005 0.00130382 0.00242925 -8.72103e-005zm0.000316521 -0.00322082c5.05567e-005,-0.000582486 0.000347036,-0.00136431 0.000466747,-0.0017953 0.000143906,0.000159073 0.000568041,0.00141559 0.000595305,0.00180867l-0.00106205 -1.33614e-005zm-0.00949274 -0.00302112c-6.89738e-005,0.000331146 -3.21396e-005,0.000793921 -2.14866e-005,0.00127367l0.00031941 0.000183088 5.83208e-005 0.00321902c-0.000103641,0.000578694 -4.76678e-005,1.55281e-005 -0.000296298,0.000441288l4.0987e-005 0.00118393 0.00228733 -3.43063e-005c9.75022e-005,-0.000394523 5.2904e-005,-0.000855853 4.92928e-005,-0.00130418 -0.000185074,-6.87932e-005 -0.000231297,3.79175e-005 -0.00029359,-0.000244478 0.000201324,-0.0001096 0.00112453,-4.82094e-005 0.00138923,-2.02227e-005 0.000636292,6.71682e-005 0.000610653,0.00048065 0.000637015,0.00159488l0.00206903 9.20854e-006 -2.36533e-005 -0.00136955c-0.000662293,-7.60156e-005 -0.000247367,-0.000974119 -0.00131447,-0.00112218 0.000355522,-0.000495817 0.00121137,-0.000133975 0.000920493,-0.00254968 -0.000139573,-0.00115811 -0.000784351,-0.00128504 -0.00149648,-0.00136286 -0.000610472,-6.68071e-005 -0.0039678,-0.000121336 -0.00432513,0.000102377zm0.00205567 0.00138218c0.000744628,-1.02919e-005 0.0023164,-0.000538068 0.00198309,0.00137857 -0.000168462,0.000527415 -0.0017359,0.00032916 -0.00198146,0.00024827l-1.62504e-006 -0.00162684zm-0.00114312 -0.0204576c-0.000120975,0.000237255 -0.000326994,0.000561721 -0.000450135,0.000686488 0.000322118,1.02919e-005 0.000759073,-0.000378995 0.00116064,-0.000404093 0.000517123,-3.23202e-005 0.000138309,0.00014192 0.000775865,0.000623292 0.000503762,0.000380439 -3.57508e-005,0.000586277 0.000510442,0.00164219 0.000223352,0.000431718 0.000338008,0.000605958 0.000624375,0.000967619 0.0010783,0.0013625 0.00176533,0.00197677 0.0030892,0.00276888 0.000645501,0.000386217 0.00123792,0.000592055 0.00181282,0.00102558 -0.000210533,0.00106386 -0.00130238,0.00155715 -0.00184171,0.00182293 -0.000944869,0.000465844 -0.00274451,0.000999578 -0.00369967,0.000107072 -0.0012984,-0.00121336 0.000326632,-0.00175179 -0.000209088,-0.00294258 -0.00022895,-0.000508817 -0.000630153,-0.000657237 -0.000933132,-0.000952633 -0.000627084,-0.000611556 -0.00122113,-0.0013031 -0.00159813,-0.00214541 -0.000208185,-0.000464941 -0.000465663,-0.000868853 -0.000623111,-0.0014703 -0.000447969,-0.00171153 -0.000555402,-0.00177996 -0.00139193,-0.00264917 -0.000743906,-0.000772795 -0.00101312,-0.000998856 -0.000447607,-0.00330713 0.000562624,-0.00229708 0.000386578,-0.00194842 0.00142931,-0.000286368 0.000495997,0.000790671 0.000335299,0.00069696 0.000809088,0.00140313 0.000173337,0.000258561 0.000186338,0.000408245 0.000403912,0.000706349l0.00104851 0.00162143c0.000232741,0.000357328 0.000125128,6.60848e-005 0.000203671,0.000551971 -0.000426843,-3.79175e-005 -0.00102666,-0.000852061 -0.00134427,-0.00121788 -0.000432802,-0.000498345 -0.000860909,-0.00137352 -0.00116353,-0.0014015 3.61119e-006,0.000657779 0.000465302,0.00116894 0.000781101,0.00153223l0.00105339 0.00131791zm0.0242952 0.00565964c4.51399e-006,-4.69455e-006 9.02798e-006,-9.3891e-006 1.3542e-005,-1.42642e-005 -6.86127e-006,3.43063e-006 -1.10141e-005,8.48631e-006 -1.3542e-005,1.42642e-005zm-2.47367e-005 2.47367e-005c8.30575e-006,-7.76407e-006 1.66115e-005,-1.60698e-005 2.47367e-005,-2.47367e-005 -1.40837e-005,3.35841e-005 3.26813e-005,9.13632e-005 -2.47367e-005,2.47367e-005zm-0.00175811 -8.84742e-005c3.06951e-005,0.000201685 -4.31538e-005,7.22239e-006 -7.24044e-005,8.30575e-006 2.49172e-005,-6.13903e-006 4.89317e-005,-8.66686e-006 7.24044e-005,-8.30575e-006zm-0.000185796 0.00058086l4.33343e-006 -1.98616e-005c6.22931e-005,9.31688e-005 4.91122e-005,8.23352e-005 -4.33343e-006,1.98616e-005zm-0.0035359 0.020229c7.34878e-005,0.000117183 -0.000168101,-0.000174601 -1.01113e-005,-1.08336e-005l1.01113e-005 1.08336e-005zm-0.00719422 -0.0291886l5.03762e-005 5.65152e-005c8.21547e-005,0.000309118 9.28077e-005,0.000245561 0.000149865,0.000481733 0.000360578,0.00149016 -0.000183449,0.000837255 0.000729461,0.00242131 0.000472886,0.000820644 0.000718447,0.001761 0.00094848,0.0028337 0.0002257,0.00105176 0.000774059,0.000503039 0.00112037,0.00113807 -0.00022263,0.00029991 -0.000766295,0.000672224 -0.00111134,0.000923924l-0.001618 0.00162522c-0.000676557,0.00086452 -0.000927355,0.00183268 -0.00159633,0.0016068 -0.000247367,-8.34186e-005 -0.000959675,-0.000624917 -0.00124279,-0.000813241 -0.00102197,-0.000680168 -0.00239639,-0.000905868 -0.00394306,-0.00212049 -0.000392356,-0.000308215 -0.000776587,-0.000639001 -0.00116082,-0.00100301 -0.00173608,-0.00164508 -0.00176371,-0.00312874 -0.00266344,-0.00446524 -0.00018056,-0.000268312 -0.000307674,-0.000383509 -0.000457899,-0.000710141l-0.000888895 -0.00149359c-0.000817755,-0.00139753 -0.000951008,-0.00146596 -0.00165248,-0.00319717 -5.2904e-005,-0.000130906 -0.000143726,-0.000361661 -0.000168282,-0.000493831 -3.44869e-005,-0.000184713 -3.25007e-005,-4.64038e-005 -2.83479e-005,-0.000275354 1.8056e-007,-6.13903e-006 -2.14866e-005,-0.00021938 6.48209e-005,-0.000389467 0.000395426,-0.000530484 0.000915438,0.000364008 0.00127728,0.000714294 0.00137063,0.00132675 0.000952452,0.00118592 0.00163443,0.00212735 0.00044183,0.000609931 0.0013282,0.00167957 0.00185435,0.00168859 -0.000140475,-4.33343e-006 -0.00149341,-0.00184875 -0.00178375,-0.00224707l-0.000498706 -0.000748239c-0.000642973,-0.000839061 -0.0015019,-0.00200981 -0.00230123,-0.00207734 -0.0011693,-9.87661e-005 -0.000701655,0.000545471 -0.00115919,0.00111189 -0.000185796,0.000229852 -0.000297562,0.00032248 -0.000560999,0.000303701 -9.19049e-005,-0.000496178 -0.000159795,-0.00116064 -7.67379e-005,-0.00170918 0.000179657,-0.00118808 0.000685766,-0.000145712 0.000897201,-0.000194824 -5.63346e-005,-0.000481553 -0.0002582,-0.00128829 -0.000207463,-0.00160987 0.000661751,-0.000456455 0.00161763,0.000376647 0.00213783,0.000916882 0.00190689,0.00198056 0.00270442,0.00152988 0.00445567,0.00430238l0.00068378 0.000966536c6.6446e-005,5.88625e-005 -2.16672e-005,1.5167e-005 0.000131447,9.65994e-005l-0.000213422 -0.000594402c-0.00011285,-0.000267228 -0.000196088,-0.000328438 -0.000362744,-0.00057743 -0.000160879,-0.000240325 -0.00016124,-0.000383148 -0.00031941,-0.000618236 -7.20433e-005,-0.000106891 -4.11676e-005,-4.92928e-005 -0.000107252,-0.000141378 -9.93078e-006,-1.39031e-005 -2.4195e-005,-3.35841e-005 -3.39452e-005,-4.74872e-005 -9.56966e-006,-1.37225e-005 -2.32922e-005,-3.46675e-005 -3.28619e-005,-4.85706e-005l-0.000203491 -0.000287812c-0.000491483,-0.00064857 -0.00127457,-0.00132188 -0.00190274,-0.00172109 -0.000680891,-0.00043244 -0.00133777,-0.00107722 -0.00192025,-0.00162323 -0.00102666,-0.000962383 -0.00101637,-0.000724044 -0.00221872,-0.00106007 -0.000195907,-0.00167902 0.00111857,-0.00109437 0.00173103,-0.000876437l0.00208438 0.00177725c0.00245128,0.00161944 0.0018204,0.000610292 0.00408155,0.00319663l0.000179296 0.000218116c0.000389106,0.000531207 0.00150984,0.0020322 0.00220283,0.00184604 -0.00081956,-0.000228227 -0.00200168,-0.00247439 -0.00352146,-0.00361137l-0.00380818 -0.0025941c-0.00026145,-0.000298826 -9.678e-005,5.68763e-005 -0.000174782,-0.000435871 1.33614e-005,-2.31116e-005 3.46675e-005,-8.82937e-005 4.29732e-005,-6.33764e-005l0.000177851 -0.000176407c0.000511164,-0.000311827 0.00116244,0.000146073 0.00176912,0.000419621 0.00067114,0.000302437 0.00126554,0.000657959 0.00193704,0.000996148 0.000663196,0.000334035 0.00120794,0.000597833 0.00186915,0.00104165 0.000570027,0.000382787 0.0004904,0.000451219 0.000911465,0.000901896 0.000129822,0.000139031 0.000425399,0.000534276 0.000469997,0.000773157 2.582e-005,0.00013867 -2.11255e-005,0.000110503 5.85013e-005,0.000142642l6.26542e-005 2.43756e-005c0.000208005,0.000167559 0.000193199,0.000581763 0.001135,0.00145332 0.00029684,0.000274631 0.000813241,0.000821185 0.00113139,0.000825699 9.20854e-006,0 2.99729e-005,-1.26392e-006 4.44177e-005,-7.40295e-006 -0.000280409,-7.096e-005 -0.000316341,-0.000171351 -0.000605597,-0.000482997 -1.20975e-005,-1.31809e-005 -2.76256e-005,-2.8709e-005 -3.95426e-005,-4.2251e-005l-0.00107144 -0.00138525c-8.68492e-005,-0.000117544 -0.000101294,-0.000127836 -0.000171893,-0.000252242 -0.000105266,-0.000186157 -0.000107614,-0.000230394 -0.000240505,-0.000446705 -0.000156545,-0.000255131 -0.000182546,-0.000239603 -0.000207463,-0.00067421 0.000251159,-0.000440927 0.00105086,-0.00088727 0.00130707,-0.00022263 0.000163948,0.000425579 2.04032e-005,0.000396148 0.000339091,0.0010523 4.6765e-005,9.64189e-005 6.50015e-006,4.15287e-006 8.37797e-005,0.000179296 0.000388384,0.000878603 0.00091309,0.00139717 0.00145748,0.00198941 0.000423593,0.000461149 0.000727836,0.000807824 0.00106404,0.00138598zm2.72645e-005 -0.00060975c2.16672e-006,-0.000176407 1.93199e-005,-0.000108336 -0.000100211,-0.000110864 -0.000531568,-0.000632862 -0.00150984,-0.00165537 -0.00192567,-0.00239928 -0.000108697,-0.000194102 -0.00017406,-0.000325369 -0.000261089,-0.000543124 -0.000397773,-0.000995245 -0.000326271,-0.00205116 -0.00167289,-0.0012585 -0.000970689,0.000571291 -0.000855853,-7.2585e-005 -0.00164309,-0.000523081 -0.000552332,-0.00031616 -0.00456834,-0.00247674 -0.00513855,-0.00253271 -0.00119151,-0.000117183 -0.000923382,0.000569846 -0.00179621,-5.59735e-005 -0.000392898,-0.000165212 -0.00184893,-0.000882034 -0.00209124,0.000289798 -0.000186338,0.000901173 8.46825e-005,0.000428649 -0.000356425,0.00113319 1.31809e-005,0.000582305 0.000205838,0.000731086 3.25007e-006,0.00112272 -0.000124586,0.000240867 -0.000272645,0.000107614 -0.000436774,0.00062275 -0.000384412,0.00120632 0.000143184,0.00203924 0.000235811,0.0023034 9.20854e-006,2.63617e-005 4.24315e-005,0.000177671 4.45982e-005,0.000207283 6.6446e-005,0.000936202 -0.0011433,0.00260981 -0.000137767,0.00378417l0.000734517 0.000765934c0.000361661,0.000391815 0.000639001,0.000544568 0.000882215,0.00117526 0.000116642,0.000302257 0.000135239,0.000541318 0.000241047,0.000891965 9.13632e-005,0.000302076 0.000204574,0.000600722 0.000316521,0.000877881l0.000664279 0.00147571c-0.000182365,4.08065e-005 -0.0013049,-0.000545651 -0.0018381,-0.000559374l-5.43485e-005 -0.000189046c-0.00020006,-0.000231297 -0.00050015,0.000149323 -0.00072603,3.4848e-005 -0.000189588,-9.62383e-005 5.72374e-005,1.22781e-005 -0.000156365,-0.000365814 -0.000118808,-0.000209991 -0.000786699,-0.000249895 -0.000913632,-0.000139753 -0.000118628,0.000213602 -0.000217394,0.000411676 -0.000287451,0.000763767 -0.000113933,0.000572555 -2.52784e-006,0.000597833 -0.000263075,0.000812338 -0.00012567,-0.000492206 0.000185074,-0.00135311 0.000330063,-0.00167469l-0.000741017 -0.000187421c0.000202407,-0.000955341 0.000707975,-0.00126915 0.00125435,-0.00144466 0.000338369,-0.000108516 0.00155209,-0.000394884 0.00141703,0.000824616 -0.000393981,0.000169726 -0.000749864,-0.00070021 -0.00139085,8.75714e-005 3.26813e-005,0.000336202 0.000189768,0.000411857 0.000388203,0.000460969 0.000446163,0.000110503 0.00145712,-0.000122239 0.00148601,-0.00108589 -0.000407523,-0.000814324 -0.00168751,-0.000609208 -0.00227343,-0.000363647 -0.00143003,0.000599278 -0.00125742,0.00113771 -0.00161077,0.001995 -0.000301896,-0.000304785 -0.000258561,-0.000678904 -0.000289798,-0.00151472 -0.000128558,-0.000253506 -0.00127963,-0.00106115 -0.00148546,-0.00108354 1.20975e-005,0.000447607 -3.59314e-005,0.00106169 2.27505e-005,0.00144466 0.000497622,0.000439482 0.000933855,0.00057743 0.00140891,0.00120596 -7.421e-005,7.16822e-005 0.00011935,0.000295215 -0.000452663,-6.8071e-005 -0.00105302,-0.000668613 -0.0036641,-0.000249714 -0.00349961,0.00120253 9.28077e-005,0.000818477 0.00120939,0.000612639 0.00158802,0.000457177 0.000272284,-0.000111947 0.000332591,-7.90851e-005 0.000382606,-0.000524887 -0.000152753,-0.000382967 -0.000845742,-0.000486428 -0.00106097,-2.32922e-005 -4.5501e-005,0.000232741 -1.76948e-005,0.000182726 2.97923e-005,0.00044183 -0.000905507,0.000189227 -0.000714655,-0.00152988 0.00125597,-0.00154126l0.00068703 0.000231478c1.02919e-005,1.0653e-005 2.81673e-005,3.52091e-005 4.15287e-005,5.43485e-005 -0.000191393,0.000267589 -0.000149323,3.86398e-005 -0.000239242,0.000408426 0.000207102,0.000351008 0.000763045,0.000391634 0.0010579,0.000506831 0.000393801,0.000154017 0.000686488,0.000382606 0.00100102,0.000570388 -0.000119169,0.00020981 3.62925e-005,0.000102197 -0.000151128,0.00018399 -0.000551068,0.000240686 -0.00163587,-0.00156455 -0.00248956,-0.000334216 0.000355341,0.000221366 0.000246825,0.0001096 0.000358592,0.00044851 -0.000184171,0.000115919 -0.000426121,0.000155101 -0.000546193,0.000384412l0.000681793 -5.77791e-005c-0.000241769,0.000209449 -0.000689557,0.000744086 -0.00071935,0.00129227 -4.49594e-005,0.000824616 0.000482455,0.00106007 0.000754559,0.00145278 -0.000734156,0.000189768 -0.000973397,0.000290701 -0.00141234,0.000929521l-4.33343e-006 0.000637737c0.000337285,0.000555943 0.000813602,0.000956786 0.00138489,0.000892687 -4.44177e-005,0.000685585 -7.07794e-005,0.00105537 0.000137045,0.00152519 0.000434065,0.000981342 0.00121553,0.00153909 0.0015873,0.00254914 0.000379536,0.00103118 -0.000182907,0.00156076 -0.000747156,0.00171225 -0.000283659,7.60156e-005 -0.000665362,6.95155e-005 -0.000875714,-0.00019681 -0.000486608,-0.00061625 0.000206019,-0.000560999 0.000442552,-0.000513512 -6.12097e-005,-0.000675474 -0.000216852,-0.000822269 -0.000591333,-0.000852783 -0.000874992,-7.15016e-005 -0.00131466,0.00101619 -0.000598375,0.00218297l0.000133072 0.000246645c-0.000310563,-6.73488e-005 -0.000453024,-0.00029359 -0.00059675,-0.000626362 -0.000166476,-0.000385134 -0.000235992,-0.000939994 -0.000267589,-0.00106657 -8.45019e-005,-0.000340355 -0.000431357,-0.000375384 -0.000628167,-0.000210713 -0.000236714,0.000197893 -0.000118267,0.000443455 -7.18628e-005,0.000859464 -0.000825699,-0.000649293 -0.00132657,-0.00115919 -0.00233987,-0.000383509 -0.00019681,0.000150587 -0.000404273,0.000489317 -0.000591875,0.000588805 0.00285375,0.000128017 0.00226982,0.000971231 0.00406386,0.00159073 0.00303015,0.0010467 0.00340861,-0.00176569 0.00369804,-0.00198561l0.00342955 -0.000151851c3.9362e-005,-0.000170087 3.59314e-005,-4.24315e-005 4.78483e-005,-0.00027084 7.40295e-006,-0.000138309 -7.22239e-007,-0.000113572 -1.28197e-005,-0.000246283 -0.000904423,-0.000211435 -0.00188865,-1.08336e-006 -0.0027994,1.39031e-005 -0.000337105,5.41679e-006 -0.000701655,0.000198796 -0.000669515,-0.00042576 0.00102305,-0.000258742 0.00211724,-7.7099e-005 0.00315347,-0.000120253 0.000268853,-1.11947e-005 0.000215408,0.000115739 0.000313452,-0.000217936 -0.000398315,-0.000438218 -0.0029489,0.000250617 -0.00362329,-2.257e-005 -0.000166115,-6.73488e-005 -0.000534818,-0.000653626 -0.000913813,-0.000844478 0.000239242,-0.000269214 0.00122997,-0.000202227 0.00187728,-0.000202588 0.000662654,-3.61119e-007 0.00131899,-5.20012e-005 0.00198074,-6.37376e-005l0.0118835 -0.000256575c0.00157899,-5.65152e-005 0.00325766,0.000117183 0.00486265,-4.85706e-005 0.000414023,-4.27926e-005 0.000532471,0.0001161 0.000830394,-0.000306229 0.000226241,-0.000320674 0.000505928,-0.000442191 0.000790671,-0.000431718 0.000341619,1.26392e-005 0.000502678,0.000278784 0.000757087,0.000494011 0.000173518,0.000146795 0.00345338,0.000115919 0.0039241,0.000102738 0.000698224,-1.9681e-005 0.00359097,-0.000225519 0.00405808,9.73217e-005 -0.000159976,0.000131809 -0.000304063,0.000255673 -0.000421065,0.000360397 -0.000233464,0.000209088 -0.000283659,0.000407884 -0.000421607,0.000540776 -0.000305146,0.000294312 -0.00100138,8.66686e-005 -0.00141559,9.24466e-005 -0.000575263,8.30575e-006 -0.00229473,-0.000171893 -0.0026842,7.36684e-005 5.59735e-005,0.000313813 0.000146434,0.000227686 0.000339813,0.000234366 0.000810352,2.81673e-005 0.00259482,-0.000196449 0.00324953,-1.58893e-005 1.30003e-005,3.43063e-006 0.000110141,3.82787e-005 0.000114475,4.08065e-005 0.000150767,9.24466e-005 5.18206e-005,1.82365e-005 0.000142823,0.000158531 -9.93078e-005,0.000556124 -0.000296118,0.000316521 -0.00086145,0.000315979l-0.00298971 4.58622e-005 -1.98616e-006 0.00053861c0.000965092,0.000212158 0.00243683,-2.257e-005 0.00348011,2.72645e-005 0.000663918,3.15979e-005 0.00044183,0.000673668 0.000978814,0.00126572 0.000178935,0.000197171 0.000345411,0.000425218 0.00053229,0.000575985l0.000637015 0.00045826c1.46253e-005,1.39031e-005 3.57508e-005,3.68342e-005 5.32651e-005,5.66957e-005 -0.00202299,7.76407e-006 -0.00408137,0.000130003 -0.00611104,5.27234e-005 -0.000127836,-4.87511e-006 -0.000307313,-3.73759e-005 -0.000425579,-2.79868e-005 -0.000156184,1.22781e-005 -8.54047e-005,-3.43063e-005 -0.000204032,8.05296e-005 -4.15287e-006,4.15287e-006 -6.33764e-005,9.10021e-005 -7.72795e-005,0.000111044l-7.33072e-005 0.000131086c-0.000141739,5.83208e-005 -0.00392374,-0.00115937 -0.00560764,0.000526151 -0.000655251,0.000655793 -0.000621125,0.000856214 -0.000934938,0.00212952 -0.000333855,-0.000479025 -0.000761962,-0.00203455 -0.000976467,-0.00279633 -0.001187,-5.66957e-005 -0.00300686,-0.000185074 -0.00410918,6.69876e-005l-0.00105302 0.00365976c-0.00011628,-0.00155119 -0.000107252,-0.00254607 -0.00126139,-0.00325477 -0.00081956,-0.000503581 -0.00193506,-0.00045826 -0.00286368,-0.000433885 -0.000972675,2.56395e-005 -0.00197298,8.12519e-005 -0.00294114,7.05988e-005 -0.000570569,-6.31959e-006 -0.000800602,0.000173698 -0.00132079,4.91122e-005 -0.000482094,-0.000115558 -0.00100481,-9.24466e-005 -0.00150027,-0.000107252 -0.00169383,-5.01956e-005 -0.00419314,-6.93349e-005 -0.00419458,0.0033102 -9.02798e-007,0.00224616 1.85976e-005,0.00320746 0.000824436,0.00414782 0.000988745,0.00115414 0.00284833,0.00106133 0.00409293,0.00095155 0.000456274,-4.02648e-005 0.0009548,-0.000221727 0.0013356,-0.000254409 0.000327896,-2.81673e-005 0.000204032,0.000242492 0.000580499,0.000246464l0.00834529 -1.26392e-005c0.00199988,4.17093e-005 0.00407487,-6.39181e-005 0.00606319,6.28348e-005 0.000499428,3.17785e-005 0.000377911,-0.00018399 0.000602167,-0.000207283 9.29882e-005,-9.56966e-006 0.000531026,0.000156184 0.000668251,0.000186157 0.000502498,0.000109961 0.00100716,0.000129642 0.00149576,0.000165393 0.0011796,8.6127e-005 0.00172814,3.61119e-007 0.00281493,-0.000342522l6.30153e-005 0.000102377c3.62925e-005,5.07373e-005 5.88625e-005,8.37797e-005 7.18628e-005,0.000104544 9.65994e-005,0.000104544 -2.63617e-005,4.29732e-005 0.000163045,8.59464e-005 0.000137767,3.12368e-005 0.000336744,1.37225e-005 0.000482275,2.14866e-005l0.00288119 5.34457e-005c0.00125001,2.02227e-005 0.00261432,0.00019681 0.00384303,3.9362e-005l1.39031e-005 -0.00370454 -0.00075817 -7.13211e-005c-9.19049e-005,-0.000426843 -7.58351e-005,-0.000627987 -3.99037e-005,-0.00105898l0.000727114 -0.0001161 9.02798e-007 -0.00376124c0.00197966,-0.000391634 0.00111478,0.00018399 0.0031421,-0.00109726 0.00203202,-0.00128414 0.0026721,-0.000877881 0.00301426,-0.00105952 0.000193921,-0.000102919 8.52242e-005,-6.8071e-005 0.000154017,-0.000182365 -0.000481733,-0.000461872 -0.00103262,-0.000802046 -0.00169419,-0.000808727 -0.000925549,-9.3891e-006 -0.00113933,0.000778754 -0.00161727,0.000888354 0.000299368,-0.00122257 -0.000217936,-0.00114926 -0.000759434,-0.000941619 -0.000143906,0.00114637 -0.00036148,0.0019282 -0.00103677,0.00209756 0.00196052,-0.00206849 -0.00124081,-0.00376503 -0.00112543,-0.00173012 0.000156004,-7.85435e-005 0.000446705,-0.000280229 0.000570207,-7.76407e-006 0.000274812,0.000965272 -0.00159741,0.00138255 -0.00210966,-0.000182726 -0.000121697,-0.000849714 0.000705266,-0.00184965 0.00104851,-0.00207499 -0.00110123,-0.000731989 -0.0029953,-0.000452121 -0.00434029,-0.00297996 -0.000126031,-0.000236894 -0.000263437,-0.0007356 -0.000413482,-0.000927355 -0.000274992,9.44327e-005 -0.000501414,0.000588263 -0.000826963,0.000798977 -0.000350827,0.000226964 -0.000610111,0.000393801 -0.000979717,0.000508998 -0.000375203,0.000117183 -0.000813963,0.000187963 -0.00119458,0.000152392 -0.000369606,-3.46675e-005 -0.000842311,-7.43906e-005 -0.00112778,-0.000537165 0.00019049,-0.00163551 0.000830213,0.00102937 0.002857,-0.000510081 0.00035498,-0.000269576 0.000519831,-0.000524165 0.000402648,-0.00124893 -0.000896118,-0.000808366 -0.00133686,-0.000423412 -0.00234583,-0.000282034 9.8405e-005,-0.000522179 0.000233644,-0.000677279 0.000555943,-0.000765392 0.000245742,-6.71682e-005 0.000666626,-0.000111405 0.000918868,-9.31688e-005 0.000304063,2.18477e-005 0.000573999,0.000126392 0.000868131,0.0002647 0.000304965,0.000143364 0.0004839,0.000420523 0.000692266,0.000476858 0.000101836,-0.000504845 -3.35841e-005,-0.000537346 0.000360036,-0.000381523 5.18206e-005,6.04875e-005 0.000154198,0.00125796 0.000759976,0.00202787 0.000432982,0.000550346 0.000642251,0.000815046 0.0012204,0.00131159 0.00174854,0.00150208 0.00487529,0.00135636 0.00676034,0.000660848 0.000762323,-0.000281312 0.00243268,-0.000959855 0.00280156,-0.0017601 -0.000323563,1.08336e-006 -0.00070021,0.000128739 -0.000821185,-0.000479928 0.000105808,-0.000375384 0.000184713,-0.000380981 0.000455733,-0.000454288 0.00045483,-0.000123322 0.000649293,0.000156365 0.000670238,-0.000414926 2.81673e-005,-0.000763226 -0.000505387,-0.00127963 -0.000834547,-0.00152067 -0.000443093,-0.000324285 -0.00116154,-0.00051297 -0.00167234,-0.000577069 -0.000678904,-8.50436e-005 -0.00351784,0.000106711 -0.00347505,0.000784171l5.59735e-006 1.01113e-005c-0.000686307,-9.94884e-005 -0.00176623,0.00170503 -0.000343244,0.00236028 0.000874992,0.000402829 0.00202588,0.000102016 0.00264791,-0.000687932l1.53476e-005 -0.000389648c-0.000343244,-0.000596208 -0.00137857,-0.00065164 -0.00184622,-0.000117364 -0.000304604,0.000348119 -6.40987e-005,0.00041619 -0.000286729,0.000511706 -0.000231297,9.91273e-005 -0.000217033,-8.45019e-005 -0.00021938,-8.64881e-005 -4.45982e-005,-0.000210894 -7.421e-005,0.000290701 -4.02648e-005,-0.00030641 2.00421e-005,-0.000355161 -2.38339e-005,-5.23623e-005 4.80289e-005,-0.000252422 6.17514e-005,-0.000172434 0.000156906,-0.000234547 0.000264881,-0.000319049 0.0012065,-0.000945049 0.00416894,-0.000990189 0.00458242,0.000606681 -0.000516762,0.000211255 -0.00129859,2.63617e-005 -0.00179567,0.000609931 -0.000189227,0.000222269 -0.000108516,7.47517e-005 -0.000142642,0.000422149 4.24315e-005,9.20854e-005 1.44448e-005,7.16822e-005 9.78633e-005,0.000162504 2.20283e-005,2.4195e-005 0.000136323,0.000111044 0.00017099,0.000133614 4.5501e-005,2.97923e-005 0.000152212,8.46825e-005 0.00018056,0.000107794l0.000133434 0.000139212c1.13753e-005,1.30003e-005 2.94312e-005,3.90009e-005 4.29732e-005,6.08486e-005 -0.000947938,0.000528318 -0.000594222,0.000802949 -0.00235107,0.00116371 -0.000917063,0.000188324 -0.00195185,0.000143184 -0.00287397,-0.00010635 -0.00100879,-0.000272826 -0.00358104,-0.00107271 -0.00324538,-0.00381017 9.64189e-005,-0.00078724 0.000169365,-0.000292687 0.000299368,-0.000884381 -0.000131989,-0.000154017 -0.00050972,-0.00062275 -0.00060975,-0.000625098 -0.000439121,-1.04725e-005 -0.00067096,0.00100554 -0.00162486,0.000473066 -0.000139392,-7.78212e-005 -0.000296118,-0.000181824 -0.000398856,-0.000274631 -0.000202949,-0.000183088 -0.000246283,-0.000237617 -0.00031923,-0.000547276 0.000202949,-0.000893951 0.00109528,-0.000523262 0.00151941,-0.000584472 0.000105266,-1.5167e-005 0.000257659,5.59735e-006 0.000339813,-1.64309e-005 0.000123683,-3.3223e-005 4.71261e-005,7.58351e-006 0.000137948,-7.65573e-005l0.000109961 -0.000162684c0.000147517,0.000195185 0.000367981,0.00040012 0.000564791,0.000610111 0.000163226,0.00017424 0.000390009,0.000221005 0.000445982,0.000508456 9.3891e-006,4.78483e-005 1.60698e-005,8.54047e-005 2.05838e-005,0.000114655 0.000264881,3.79175e-006 0.000449052,0.000390189 0.000695516,0.000680168 0.000213241,0.000250797 0.000495997,0.000723503 0.000722058,0.000581944l-0.00340951 -0.00407018c-0.000156726,-0.000206741 -0.000137406,-0.000128017 -0.000175323,-0.000423774 0.000583388,-0.000506109 0.00103804,0.000543846 0.00151219,0.00107577 0.000169004,0.000189407 0.000319952,0.0003613 0.00048065,0.000560818 0.000165934,0.00020656 0.000260187,0.000329883 0.000431718,0.000537707 0.000394884,0.000478483 0.00101655,0.00159795 0.00150081,0.00114601 -2.00421e-005,-2.31116e-005 -5.23623e-005,-6.12097e-005 -0.000104363,-0.000120433l-0.00245507 -0.00296894c-0.000239964,-0.000287632 -0.000484261,-0.000369786 -0.000600722,-0.000935299 0.000240325,-0.000653626 0.000591875,-0.000988023 9.15438e-005,-0.00179855 -0.000655973,-0.00106241 -0.00174023,-0.0012511 -0.00260746,-0.00119332 -0.000552693,3.68342e-005 -0.000989828,0.000324285 -0.00143924,0.000371772 -3.61119e-007,-6.86127e-006 4.87511e-006,-2.38339e-005 4.87511e-006,-1.84171e-005 1.8056e-007,6.86127e-006 4.15287e-006,-2.16672e-005 4.15287e-006,-2.43756e-005l-9.02798e-006 -0.000213241c-0.000108877,-9.8405e-005 -0.000199338,-0.000307493 -0.000338188,-0.000369245 3.55703e-005,-0.000366897 -9.56966e-005,-0.000519109 4.35149e-005,-0.000894132 0.000423051,-0.00113951 0.00195564,-0.00129895 0.0026257,-0.00100048 0.000285104,0.000126933 0.000768462,0.000376286 0.000865423,0.000930785 3.14174e-005,0.000520012 -2.85284e-005,0.000837436 -0.000214866,0.000936924 0.000224255,0.000209269 0.000535901,0.000356966 0.000711766,1.89588e-005 0.000720433,-0.00138309 -0.000872464,-0.00220897 -0.00147319,-0.00234312 -0.00101131,-0.0002257 -0.00183846,-1.60698e-005 -0.00273981,0.000707613l-0.000560638 0.00098387c-0.000661571,8.03491e-005 -0.00146849,-0.000276437 -0.00214144,0.000276979l-0.000126031 0.000113933c-0.000460247,0.000424496 -0.000583388,0.000880048 -0.000198255,0.00149937 0.000601986,0.00096798 0.00193343,0.000621125 0.0026062,0.000373217l-0.000108336 0.000763767c-0.000451941,8.63075e-005 -0.00126121,0.000572916 -0.00148601,0.000958591 -0.000428829,0.00073542 -3.34035e-005,0.00133542 0.000334397,0.00164797l0.000375564 0.000418898c-0.00148294,0.000130545 -0.00146705,-0.00130978 -0.00210244,-0.00314336 -0.000290882,-0.000839422 -0.000486608,-0.000947397 -0.000718989,-0.00215877 -0.000212519,-0.00110737 -0.000408245,-0.00133054 -0.000885826,-0.00189786zm0.00372278 0.00180776c-0.00104977,-0.000247367 -0.000599819,0.000336202 -0.000951911,-0.000293229 0.00047108,-6.95155e-005 0.000560277,-0.000246103 0.00107884,-0.000141017 0.000707975,0.000143545 0.00101384,0.000733614 0.000784351,0.00136593 -8.3238e-005,0.000229491 -0.000127836,0.000236172 -0.000258381,0.000329341 -0.000459705,0.000328077 -0.0010384,0.0004709 -0.00155209,0.000248992 -0.000386759,-0.000167198 -0.000382606,-0.00024195 -0.000620042,-0.000562624l3.25007e-006 -0.000584652c0.000299007,-0.000523262 0.000387301,-0.000579958 0.000623653,-0.000457899 -6.42792e-005,0.000284743 5.21817e-005,1.28197e-005 -0.000137948,0.000311465 -0.000185796,0.000291784 -1.42642e-005,-0.00010635 -0.000168101,0.000237075 4.73066e-005,0.000402106 0.000167379,0.000468372 0.000383148,0.000620764 0.000221547,0.000156365 0.00033566,0.000144448 0.000582847,0.000170629 0.00111712,0.000118267 0.00109257,-0.00109365 0.000304424,-0.00119151l0.000327174 0.000256936c-9.49744e-005,0.00122311 -0.00104652,0.000917424 -0.00134156,0.00050322 2.8709e-005,-0.000967258 0.000546915,-0.000623111 0.000942341,-0.000813421zm0.00332627 0.000678182c1.08336e-006,-3.61119e-007 6.87932e-005,-5.56124e-005 0.000163407,-8.48631e-005 0.000273728,-8.48631e-005 0.000916882,9.98495e-005 0.00117057,0.000234186 0.000900271,0.000476136 0.00121462,0.00171315 5.7418e-005,0.0025932 -0.00110539,0.000840686 -0.00323762,0.000353355 -0.00327806,-0.00101872 -2.582e-005,-0.000882034 0.000349022,-0.00104598 0.000720975,-0.00133072 0.000481553,-0.000368522 0.000745531,-0.000206741 0.00116569,-0.000393078zm-0.000779476 0.00363358c-0.000377009,0.00111712 -0.00291387,0.00133777 -0.00285465,-0.000507012 0.000169365,-0.000560999 0.00079681,-0.000982064 0.00122799,-0.000803129l-0.000429371 0.000392356c-0.000180921,0.000107433 -0.000463136,0.000374842 -0.000449052,0.000735058 1.33614e-005,0.000340355 -3.0334e-005,0.000108516 0.000105989,0.000291604 8.07102e-005,0.000108155 0.000376467,0.000276979 0.000440927,0.00030316 0.00103262,0.00041926 0.00155209,-0.000510803 0.001709,-0.000533554l0.000249172 0.000121517zm0.00150045 3.30424e-005c0.000333313,-0.000324827 0.000594402,-0.000214505 0.000918868,0.000171712 0.000231658,0.000276076 0.000544929,0.000601625 0.000752573,0.000925188 -0.000119892,0.000186518 -0.000257298,0.000205838 -0.000488053,0.000165032 -0.000355703,-6.30153e-005 -0.000519831,-0.000420704 -0.000818477,-0.000724586l-0.000364911 -0.000537346zm-0.00847746 0.00849894c5.12789e-005,-0.00228498 0.00179422,-0.00487565 0.00287415,-0.00597147 0.000611917,-0.000620764 0.00151435,-0.00116804 0.00240415,-0.00119115 0.000233103,-6.13903e-006 0.0023888,0.000162323 0.00266939,0.000362203 0.000147337,0.000105086 8.43214e-005,5.10984e-005 0.000146073,0.000180921 -0.000302618,0.000349202 -0.00124207,0.000784712 -0.0018919,0.00233103l-0.000689919 0.00159868c-0.000192477,0.000528679 -0.000462233,0.00127168 -0.000681974,0.00172976 -0.000616431,0.00128468 -0.000676196,0.00208474 -0.00208402,0.00180524 -0.000885645,-0.000175685 -0.0018919,-0.000475053 -0.00274595,-0.0008452zm-0.0120137 -0.0057297c-0.000633042,0.00186356 -0.00402287,0.0013031 -0.00347505,-0.000617153 0.000531387,-0.00186229 0.00414926,-0.00136774 0.00347505,0.000617153zm-0.00404706 0.00113247c-9.62383e-005,0.000387481 -0.000397412,0.000720433 -0.000587361,0.0008387 -0.000917243,0.00057111 -0.00254336,0.000193921 -0.0022774,-0.00114294 0.000314716,-0.00158206 0.00325982,-0.00128667 0.00286476,0.000304243zm0.0131978 0.00125417c0.000327716,0.00160788 -0.000126572,0.00155841 -0.000617875,0.00213458 -0.000888173,0.00104183 -0.000504303,0.000910743 -0.00128631,0.00127024 -0.00155029,0.00071303 -0.00845128,0.00179928 -0.00693494,-0.00378002 0.000284743,-0.00104797 0.000523984,-0.00116335 0.000926632,-0.0019932 0.000384953,1.40837e-005 0.000933855,0.000805296 0.00101781,0.000991092 0.00027084,0.000598916 -0.000475775,0.000581402 -0.000230575,0.00196232 0.000532832,0.00299964 0.00483575,0.00141342 0.00609353,0.000215047 0.000366717,-0.000349564 0.000648751,-0.000900451 0.00103172,-0.00080006zm-0.0138116 0.00505206c-0.000411676,1.53476e-005 -0.000904965,0.000248089 -0.00125471,-0.00016449 -0.0002257,-0.000266506 -0.000507373,-0.000784171 -0.000562624,-0.0014257 -0.00011935,-0.00138832 0.000653084,-0.00229943 0.0011805,-0.00278856 0.00103045,-0.000955341 0.00340518,-0.00158387 0.00463352,-0.00092591 -8.30575e-005,0.000905146 -6.24737e-005,0.00075799 -0.000602347,0.000648931 -0.0030399,-0.000613903 -0.00542185,0.00215949 -0.00373325,0.004148 3.99037e-005,4.69455e-005 0.000157809,0.000175143 0.000189407,0.000219199 0.000107975,0.000150767 9.20854e-005,8.08907e-005 0.000149503,0.000288534zm0.0255097 -0.00412434c-0.000213783,0.000523984 -0.000893229,0.000678904 -0.00133506,0.000680349 -0.000394342,1.26392e-006 -0.00135474,-0.000226241 -0.000952452,-0.00111044 0.000385856,-0.000847728 0.0028319,-0.000904965 0.00228751,0.000430093zm-0.0283688 0.000406801c0.000190671,0.000696058 0.000553777,0.000344327 0.000849353,0.000772976 -0.000311827,0.000203491 -0.000872826,7.83629e-005 -0.00111008,-0.00066771 9.96689e-005,-0.000595486 0.000420704,-0.000839061 0.000791935,-0.000938549 0.000514595,-0.000137948 0.00068721,4.29732e-005 0.001083,0.000249533 -0.000312188,0.000438038 -0.00129425,-0.000646584 -0.0016142,0.000583749zm0.0167498 0.00341511l-0.00075817 -4.15287e-006c7.69184e-005,-0.00123629 0.00062582,-0.00192585 0.00117039,-0.00242672 0.000436232,-0.000401204 0.0013356,-0.000972494 0.00194246,-0.000908937 -0.000140837,0.00108751 -0.00037755,0.000362203 -0.00136774,0.00133127 -0.000477219,0.000466927 -0.000889618,0.000846464 -0.000986939,0.00200855zm-0.0157275 -0.00286729c-0.00038712,-3.97231e-005 -0.000678182,4.44177e-005 -0.000795907,-0.000542762 0.000186699,-0.000647126 0.000794101,-0.000466747 0.00105826,-0.00027734 -3.64731e-005,0.000497622 -0.000133253,0.000432982 -0.000262353,0.000820102zm0.00592904 0.000199518c-0.000242853,-0.00023238 -0.000824977,-0.000134517 -0.00115269,-3.21396e-005 -0.000338369,0.000105627 -0.00218297,-0.000292868 -0.00226277,0.000825699 -4.18898e-005,0.000588263 0.0004839,0.0009613 0.000784893,0.00115269 0.0011888,0.000756184 0.00112019,0.000747156 0.00225447,-9.29882e-005 0.000598555,-0.000443455 0.000747337,-0.000913271 0.000894673,-0.000905687 0.000137225,7.04183e-006 0.000629973,0.000547457 -0.000139934,0.00122618 -0.000763767,0.000673307 -0.00142642,0.000834727 -0.0023861,0.000739392 -0.00234619,-0.000232922 -0.00283822,-0.00308595 -0.00023563,-0.00379302 0.000421246,-0.000114294 0.00228209,-0.000287451 0.00224309,0.000879867zm-0.00277683 0.000899368c0.000236353,-0.000841408 0.000853144,-0.000422149 0.0012641,-0.000368161 0.000482094,6.33764e-005 0.000676918,-0.000543665 0.00136286,0.000179115 -8.12519e-005,0.000937827 -0.00105555,0.00131736 -0.00126139,0.00131231 -0.000199518,-4.87511e-006 -0.000544387,-0.000262534 -0.000740836,-0.000390189 -0.000261089,-0.000169546 -0.000526873,-0.000335841 -0.000624737,-0.000733072zm0.0230205 0.000507192c0.000219922,-0.000925729 0.00108823,-0.000347216 0.00139193,-0.000360397 7.38489e-005,-3.25007e-006 0.00117201,-0.000644598 0.00143202,0.00042269 -0.000175504,0.00049365 -0.000945591,0.00109491 -0.00136449,0.00109871 -0.000177851,1.44448e-006 -0.000607583,-0.000291062 -0.000808727,-0.000412579 -0.000400481,-0.00024195 -0.00056443,-0.000324466 -0.000650737,-0.00074842zm-0.00198273 0.000114114c0.000129822,-0.000179296 0.000361661,-0.000313452 0.000622028,-0.000287632 0.000717002,7.11405e-005 0.000546554,0.0010783 -0.000122058,0.00102738 -0.000356605,-2.72645e-005 -0.000471983,-0.000166476 -0.00049997,-0.000739753zm-0.0222502 0.0138116c0.000916882,0.000185254 0.00321956,0.00032248 0.00389142,-0.000635209 0.000395065,-0.000562985 0.000314174,-0.00181553 0.000271923,-0.00281836l-0.00284905 -3.91815e-005 4.69455e-006 0.00117201 0.00113211 8.03491e-005c-5.65152e-005,0.00129046 -0.00121878,0.00103894 -0.00172507,0.000865784 -0.000330966,-0.00011303 -0.00054204,-0.000449594 -0.000596028,-0.000929882 -2.76256e-005,-0.000245742 -4.17093e-005,-0.00169744 -8.84742e-006,-0.00193903 0.000133614,-0.000981161 0.00134806,-0.000907854 0.00186338,-0.000718628 0.000524887,0.000193018 0.000108516,0.000536623 0.000897743,0.000514053 0.000386759,-1.08336e-005 0.000830213,3.4848e-005 0.00118303,-5.25429e-005l2.49172e-005 -0.000214685c8.30575e-006,-0.000278423 4.69455e-006,-0.000477219 -0.000115017,-0.00079374 -0.000528498,-0.00139753 -0.00382155,-0.000849714 -0.00448962,-0.000598375 -0.000986036,0.00037087 -0.00113066,0.00124261 -0.00109401,0.00316846 4.04454e-005,0.00212392 0.000286007,0.00205098 0.000605597,0.00239964 0.00038405,0.000259103 0.000578694,0.000453566 0.00100283,0.000539332zm0.00414366 -0.00626957c7.69184e-005,-0.000336744 -3.06951e-006,-0.000323744 0.000120072,-0.000632681 0.00157466,8.84742e-006 0.00316521,-0.00013867 0.00474258,-2.60006e-005 0.00127258,9.10021e-005 0.00212735,0.000592416 0.0020786,0.00293536 -2.16672e-005,0.00104057 -0.00029684,0.00118574 -0.000437857,0.00142859 0.000121878,0.000370328 0.000570569,0.000963466 0.000926632,0.000543665 0.000112128,-0.00013217 0.00141107,-0.00484135 0.00142931,-0.00495654l0.00284598 -5.25429e-005c0.000783629,1.75143e-005 0.000595666,0.000221366 0.0011099,0.0016662 0.000158531,0.00044526 0.000239242,0.00079699 0.000372495,0.00120325 5.99458e-005,0.000182546 0.000124586,0.00033241 0.000189949,0.000537165l0.000345772 0.00114583c0.000114655,0.000381161 8.68492e-005,0.000403009 0.000261631,0.000524706 9.56966e-006,-2.32922e-005 1.9681e-005,-9.24466e-005 2.22088e-005,-7.72795e-005 2.7084e-006,1.53476e-005 1.71532e-005,-5.97653e-005 2.04032e-005,-8.05296e-005 0.000193018,-0.00123575 -0.000703099,-0.00441938 0.00218784,-0.00489317 0.00137532,-0.000225519 0.0034059,-0.000393801 0.00442299,0.000792657l5.7418e-005 -0.000797713c7.83629e-005,-1.02919e-005 0.00619049,-0.000216491 0.00635606,4.11676e-005 0.00014842,0.000231116 7.98074e-005,0.00235739 5.50707e-005,0.0027084l-0.000729281 9.93078e-005 7.04183e-006 0.0020405 0.00077424 8.05296e-005c9.91273e-005,0.000588263 5.09178e-005,0.00215751 2.96118e-005,0.00281962 -0.00115648,0.000134878 -0.00382028,-1.57087e-005 -0.00522052,-5.77791e-005 -0.00142371,-4.27926e-005 -0.00110773,0.000210352 -0.00124983,-0.000627084 -6.50015e-006,-3.75564e-005 -1.31809e-005,-6.73488e-005 -1.98616e-005,-0.000101655l-5.09178e-005 -0.000200782c-0.00128071,0.000969967 -0.00147102,0.000933855 -0.00300108,0.000916882 -0.000861089,-9.3891e-006 -0.00233608,-2.04032e-005 -0.00304731,-0.00095805l-4.69455e-005 0.00077424c-0.000337466,0.000157809 -0.0030641,0.000137406 -0.00336076,-2.81673e-005l-6.93349e-005 -0.000635751c-1.19169e-005,-0.000342161 -3.97231e-006,-0.000507012 -4.36954e-005,-0.000852242l-0.000814685 -4.69455e-005 -2.99729e-005 0.00156112 -0.00587451 3.14174e-005c-1.44448e-005,-0.00155787 5.88625e-005,-0.0017498 -0.000858561,-0.00159452l-5.9043e-005 0.00146109c-4.87511e-006,2.27505e-005 -1.44448e-005,5.95847e-005 -2.52784e-005,8.50436e-005l-0.0031161 5.54318e-005c-0.000111766,-0.000364731 -6.24737e-005,-0.000438579 -0.000106711,-0.00081956 -0.000205477,0.000104183 -0.000253506,0.000241408 -0.000455733,0.000403731 -0.00106964,0.000758892 -0.0035861,0.000566416 -0.00482636,-7.69184e-005 -0.00090009,-0.000425399 -0.00106783,-0.00148402 -0.00112236,-0.0033669 -5.65152e-005,-0.00195745 0.000271381,-0.00268709 0.00110683,-0.003182 0.000812699,-0.000481553 0.00301896,-0.000585013 0.00397069,-0.000360758 0.000471261,0.000111225 0.000811435,0.000472886 0.00113337,0.000569666z"/>
 </g>
</svg>
