<?xml version="1.0" encoding="UTF-8"?>
<!DOCTYPE svg PUBLIC "-//W3C//DTD SVG 1.1//EN" "http://www.w3.org/Graphics/SVG/1.1/DTD/svg11.dtd">
<!-- Creator: CorelDRAW -->
<svg xmlns="http://www.w3.org/2000/svg" xml:space="preserve" width="1.98819in" height="1.98819in" style="shape-rendering:geometricPrecision; text-rendering:geometricPrecision; image-rendering:optimizeQuality; fill-rule:evenodd; clip-rule:evenodd"
viewBox="0 0 0.0924648 0.0924648"
 xmlns:xlink="http://www.w3.org/1999/xlink">
 <defs>
  <style type="text/css">
   <![CDATA[
    .fil1 {fill:red}
    .fil0 {fill:red;fill-rule:nonzero}
   ]]>
  </style>
 </defs>
 <g id="Layer_x0020_1">
  <metadata id="CorelCorpID_0Corel-Layer"/>
  <path class="fil0" d="M0.0187676 0l0.0549296 0 1.28169e-006 0 0 1.83099e-006c0.00516961,3.66197e-007 0.00986169,0.00210765 0.0132596,0.00550578 0.00339758,0.00339776 0.00550413,0.00808875 0.00550486,0.0132573l1.83099e-006 0 0 2.74648e-006 0 0.0549296 0 1.28169e-006 -1.83099e-006 0c-3.66197e-007,0.00516961 -0.00210765,0.00986169 -0.00550578,0.0132596 -0.00339776,0.00339758 -0.00808875,0.00550413 -0.0132573,0.00550486l0 1.83099e-006 -2.74648e-006 0 -0.0549296 0 -1.28169e-006 0 0 -1.83099e-006c-0.00516961,-3.66197e-007 -0.00986169,-0.00210765 -0.0132596,-0.00550578 -0.00339758,-0.00339776 -0.00550413,-0.00808875 -0.00550486,-0.0132573l-1.83099e-006 0 0 -2.74648e-006 0 -0.0549296 0 -1.28169e-006 1.83099e-006 0c3.66197e-007,-0.00516961 0.00210765,-0.00986169 0.00550578,-0.0132596 0.00339776,-0.00339758 0.00808875,-0.00550413 0.0132573,-0.00550486l0 -1.83099e-006 2.74648e-006 0zm0.0549296 0.000915493l-0.0549296 0 -2.74648e-006 0 0 -1.83099e-006c-0.00491309,5.49296e-007 -0.0093752,0.00200603 -0.0126098,0.00524047 -0.00323499,0.0032348 -0.0052412,0.00769802 -0.00524138,0.0126122l1.83099e-006 0 0 1.28169e-006 0 0.0549296 0 2.74648e-006 -1.83099e-006 0c5.49296e-007,0.00491309 0.00200603,0.0093752 0.00524047,0.0126098 0.0032348,0.00323499 0.00769802,0.0052412 0.0126122,0.00524138l0 -1.83099e-006 1.28169e-006 0 0.0549296 0 2.74648e-006 0 0 1.83099e-006c0.00491309,-5.49296e-007 0.0093752,-0.00200603 0.0126098,-0.00524047 0.00323499,-0.0032348 0.0052412,-0.00769802 0.00524138,-0.0126122l-1.83099e-006 0 0 -1.28169e-006 0 -0.0549296 0 -2.74648e-006 1.83099e-006 0c-5.49296e-007,-0.00491309 -0.00200603,-0.0093752 -0.00524047,-0.0126098 -0.0032348,-0.00323499 -0.00769802,-0.0052412 -0.0126122,-0.00524138l0 1.83099e-006 -1.28169e-006 0z"/>
  <path class="fil1" d="M0.0278581 0.0635178c0.000128169,-0.000515972 -5.12676e-006,-0.000496197 0.000199761,-0.000969507 0.00262069,1.37324e-005 0.00526775,-0.000212578 0.00789283,-3.97324e-005 0.00211772,0.000139338 0.00354021,0.000907803 0.0034591,0.00449763 -3.60704e-005,0.00159442 -0.000493817,0.00181707 -0.000728549,0.00218913 0.000202873,0.000567423 0.00094955,0.00147596 0.00154206,0.000833099 0.000186761,-0.00020269 0.00234824,-0.00741824 0.00237863,-0.00759493l0.0047364 -8.03803e-005c0.00130421,2.69155e-005 0.000991296,0.000339099 0.0018471,0.00255294 0.000263845,0.000682226 0.000398056,0.00122127 0.000619972,0.00184362 9.97888e-005,0.000279775 0.000207451,0.00050938 0.000316211,0.000823211l0.000575479 0.00175573c0.000190606,0.000584085 0.000144465,0.000617409 0.000435409,0.000803986 1.57465e-005,-3.58873e-005 3.25916e-005,-0.000141535 3.69859e-005,-0.000118465 4.39437e-006,2.34366e-005 2.83803e-005,-9.15493e-005 3.36901e-005,-0.000123408 0.000321338,-0.00189342 -0.00117018,-0.00677154 0.00364092,-0.00749771 0.0022891,-0.000345507 0.00566837,-0.00060331 0.00736111,0.00121468l9.55775e-005 -0.00122237c0.000130183,-1.55634e-005 0.010302,-0.000331775 0.0105776,6.3169e-005 0.000247,0.00035393 0.00013293,0.00361217 9.17324e-005,0.00414993l-0.00121358 0.000152338 1.17183e-005 0.00312659 0.00128847 0.000123225c0.000164972,0.000901395 8.45916e-005,0.00330585 4.92535e-005,0.00432058 -0.00192473,0.000206535 -0.00635755,-2.43521e-005 -0.00868803,-8.88028e-005 -0.0023693,-6.55493e-005 -0.00184344,0.000322437 -0.00208018,-0.000960535 -1.04366e-005,-5.76761e-005 -2.17887e-005,-0.000103268 -3.27747e-005,-0.000155817l-8.45916e-005 -0.000307789c-0.00213163,0.00148639 -0.00244839,0.00143073 -0.00499456,0.00140492 -0.00143311,-1.44648e-005 -0.00388792,-3.11268e-005 -0.00507147,-0.00146808l-7.81831e-005 0.0011863c-0.00056138,0.000241873 -0.0050993,0.000210563 -0.00559293,-4.28451e-005l-0.000115535 -0.000974268c-1.95916e-005,-0.000524211 -6.59155e-006,-0.000776888 -7.25071e-005,-0.00130604l-0.00135585 -7.17747e-005 -4.99859e-005 0.00239218 -0.00977637 4.79718e-005c-2.39859e-005,-0.00238687 9.79578e-005,-0.0026813 -0.00142872,-0.00244345l-9.81409e-005 0.00223893c-8.23944e-006,3.49718e-005 -2.4169e-005,9.15493e-005 -4.21127e-005,0.000130366l-0.00518609 8.47747e-005c-0.000185845,-0.000558634 -0.000104,-0.000671972 -0.000177423,-0.00125551 -0.000342211,0.000159479 -0.000422042,0.000369859 -0.000758578,0.000618507 -0.0017799,0.00116286 -0.00596792,0.000868071 -0.00803217,-0.000117732 -0.00149793,-0.000652014 -0.00177697,-0.0022739 -0.00186761,-0.00515917 -9.41127e-005,-0.00299916 0.000451521,-0.00411716 0.00184179,-0.00487573 0.00135255,-0.000737704 0.00502423,-0.000896451 0.00660803,-0.000552592 0.000784578,0.000170465 0.00135072,0.000724521 0.00188628,0.000872831l-1.83099e-007 0zm-0.00689568 0.00960664c0.00152576,0.000283803 0.00535802,0.000494183 0.00647602,-0.000973352 0.000657324,-0.000862578 0.00052293,-0.00278182 0.00045262,-0.0043182l-0.00474152 -6.04225e-005 7.87324e-006 0.00179601 0.0018839 0.000123225c-9.39296e-005,0.0019771 -0.00202818,0.00159168 -0.00287099,0.00132655 -0.000550761,-0.000173394 -0.000901761,-0.000689 -0.000991662,-0.00142469 -4.59578e-005,-0.000376634 -6.95775e-005,-0.00260128 -1.4831e-005,-0.00297132 0.000222648,-0.00150324 0.00224369,-0.001391 0.00310114,-0.00110097 0.000873564,0.000295521 0.000180535,0.000822113 0.0014939,0.00078769 0.000643775,-1.68451e-005 0.00138185,5.32817e-005 0.00196886,-8.07465e-005l4.15634e-005 -0.000328662c1.39155e-005,-0.000426803 7.69014e-006,-0.000731479 -0.000191521,-0.00121651 -0.000879423,-0.00214134 -0.00635975,-0.00130201 -0.00747171,-0.000916958 -0.00164075,0.000568338 -0.00188152,0.00190423 -0.00182055,0.00485504 6.71972e-005,0.0032544 0.000475873,0.00314252 0.00100777,0.00367699 0.000639197,0.000396958 0.000963099,0.000695042 0.00166913,0.000826324zm0.0505524 -0.0190483c2.01408e-005,9.88733e-006 3.93662e-005,1.99578e-005 5.60282e-005,3.05775e-005 -0.000266409,0.000201958 -0.000506085,0.000391831 -0.000700718,0.000552409 -0.000388718,0.00032024 -0.000472211,0.000624733 -0.000701817,0.000828521 -0.000507733,0.000450789 -0.00166656,0.000132747 -0.00235575,0.000141718 -0.00095724,1.24507e-005 -0.00381907,-0.000263479 -0.00446706,0.000112789 9.31972e-005,0.000480817 0.000243704,0.000348803 0.000565592,0.000359056 0.00134834,4.32113e-005 0.00431802,-0.000300831 0.00540782,-2.43521e-005 2.16056e-005,5.30986e-006 0.000183465,5.85916e-005 0.000190423,6.26197e-005 0.000251028,0.000141535 8.62395e-005,2.7831e-005 0.000237662,0.000242972 -0.000165338,0.000852141 -0.000492902,0.000484845 -0.00143348,0.000484113l-0.00497552 7.01268e-005 -3.29578e-006 0.000825409c0.00160596,0.000325 0.00405509,-3.46056e-005 0.00579141,4.15634e-005 0.001105,4.87042e-005 0.000735507,0.00103249 0.00162903,0.00193956 0.000297718,0.000302296 0.000574747,0.000651465 0.000885831,0.000882535l0.00106032 0.000702366c2.43521e-005,2.10563e-005 5.9324e-005,5.63944e-005 8.84366e-005,8.67888e-005 -0.00336663,1.19014e-005 -0.00679223,0.000199211 -0.01017,8.07465e-005 -0.000212761,-7.50704e-006 -0.000511211,-5.73099e-005 -0.000708042,-4.28451e-005 -0.00026,1.88592e-005 -0.000142268,-5.25493e-005 -0.000339831,0.000123592 -6.95775e-006,6.04225e-006 -0.000105465,0.000139338 -0.000128535,0.000169916l-0.000122127 0.000200859c-0.000235831,8.93521e-005 -0.00652985,-0.00177661 -0.00933217,0.000806183 -0.00109035,0.00100485 -0.00103377,0.00131208 -0.00155579,0.00326318 -0.000555704,-0.000734226 -0.00126832,-0.00311762 -0.00162537,-0.00428469 -0.00197508,-8.7155e-005 -0.0050039,-0.000283803 -0.00683855,0.000102352l-0.00175225 0.00560776c-0.000193718,-0.0023768 -0.000178521,-0.00390128 -0.00209923,-0.00498724 -0.00136408,-0.000771395 -0.00322052,-0.000702 -0.00476587,-0.000664648 -0.00161878,3.91831e-005 -0.00328332,0.000124507 -0.00489459,0.000108211 -0.00094955,-9.70423e-006 -0.00133223,0.000266042 -0.00219792,7.50704e-005 -0.000802338,-0.000177056 -0.00167261,-0.000141535 -0.00249673,-0.000164056 -0.00281917,-7.70845e-005 -0.00697844,-0.00010638 -0.00698082,0.00507202 -1.64789e-006,0.00344171 3.09437e-005,0.00491455 0.00137177,0.00635554 0.00164569,0.00176837 0.00474042,0.00162628 0.00681164,0.00145801 0.000759493,-6.18873e-005 0.00158893,-0.000339648 0.00222282,-0.000389817 0.000545634,-4.32113e-005 0.000339648,0.000371507 0.000966211,0.000377732l0.0138882 -1.94085e-005c0.00332818,6.37183e-005 0.00678142,-9.79578e-005 0.0100904,9.61268e-005 0.000831085,4.87042e-005 0.000628944,-0.000281972 0.0010021,-0.000317493 0.000154718,-1.46479e-005 0.000883817,0.00023931 0.00111214,0.000285268 0.000836211,0.000168451 0.00167627,0.000198662 0.00248923,0.000253409 0.00196337,0.000132014 0.00287611,5.49296e-007 0.00468476,-0.000524761l0.000104732 0.000156916c6.04225e-005,7.74507e-005 9.79578e-005,0.000128352 0.000119563,0.000159845 0.000160944,0.000160394 -4.37606e-005,6.59155e-005 0.000271352,0.000131831 0.000229239,4.79718e-005 0.000560465,2.10563e-005 0.000802888,3.29578e-005l0.00479462 8.18451e-005c0.00208055,3.09437e-005 0.00435079,0.000301747 0.00639582,6.04225e-005l2.30704e-005 -0.00567624 -0.00126173 -0.000109493c-0.00015307,-0.000653845 -0.000126338,-0.000962183 -6.64648e-005,-0.00162262l0.0012101 -0.000177972 1.46479e-006 -0.00576321c0.00329468,-0.000599831 0.00185516,0.000281972 0.0052293,-0.00168139 0.00338165,-0.00196758 0.00444692,-0.00134504 0.00501617,-0.00162317 0.000322803,-0.000157831 0.000141901,-0.000104366 0.000256338,-0.000279592 -0.000801789,-0.000707676 -0.00171856,-0.00122914 -0.00281954,-0.00123921 -0.00154023,-1.42817e-005 -0.00189599,0.00119344 -0.00269118,0.00136134 0.000498028,-0.00187328 -0.000362901,-0.00176104 -0.00126411,-0.00144282 -0.000239493,0.00175628 -0.000601662,0.0029543 -0.00172534,0.00321393 0.00326263,-0.00316944 -0.00206499,-0.00576889 -0.00187292,-0.00265109 0.000259451,-0.000120296 0.000743197,-0.000429183 0.000948634,-1.19014e-005 0.000457747,0.00147907 -0.00265823,0.00211845 -0.00351055,-0.000279958 -0.000179803,-0.00115572 0.000884366,-0.00249289 0.00152521,-0.00302021l-0.00139375 0 0 0zm-0.0530494 0c0.000611183,0.000752718 0.00126338,0.00144904 0.00164972,0.00241544 0.000631507,0.00158014 -0.000304493,0.00239163 -0.00124342,0.00262362 -0.000472028,0.000116451 -0.00110738,0.000106563 -0.00145728,-0.000301563 -0.000810028,-0.00094424 0.000342944,-0.000859648 0.00073624,-0.000786775 -0.00010162,-0.00103506 -0.000360704,-0.0012599 -0.000983972,-0.00130677 -0.00145618,-0.000109493 -0.00218785,0.00155707 -0.00099569,0.00334503l0.000221366 0.000377732c-0.000516887,-0.000103085 -0.000753817,-0.00044969 -0.000993127,-0.00095962 -0.000277211,-0.000590127 -0.00039293,-0.00144025 -0.000445296,-0.00163434 -0.00014062,-0.000521282 -0.00071793,-0.000575113 -0.00104549,-0.000322803 -0.000393845,0.000303211 -0.000196831,0.000679662 -0.000119563,0.00131703 -0.00137397,-0.000995141 -0.0022078,-0.00177624 -0.00389414,-0.000587747 -0.00032738,0.000230704 -0.000672704,0.000749789 -0.000984888,0.000902127 0.00474921,0.000196282 0.00377751,0.00148823 0.00676311,0.00243759 0.00504272,0.00160358 0.00567276,-0.00270565 0.00615431,-0.00304237l0.00570755 -0.000233085c6.55493e-005,-0.000260366 5.98733e-005,-6.48169e-005 7.96479e-005,-0.000414718 1.20845e-005,-0.000212028 -1.28169e-006,-0.000174127 -2.14225e-005,-0.000377549 -0.00150507,-0.000323901 -0.00314325,-1.46479e-006 -0.00465876,2.12394e-005 -0.000560831,8.42254e-006 -0.00116762,0.000304859 -0.00111416,-0.000652197 0.00170245,-0.000396409 0.00352337,-0.000118099 0.00524797,-0.000184197 0.000447493,-1.70282e-005 0.000358507,0.000177239 0.000521648,-0.000334155 -0.000662817,-0.000671423 -0.00490778,0.000384141 -0.0060298,-3.44225e-005 -0.000276662,-0.000103268 -0.000890226,-0.00100155 -0.001521,-0.00129396 0.00039824,-0.000412521 0.00204723,-0.000309986 0.00312421,-0.000310535 0.00110299,-3.66197e-007 0.00219499,-7.94648e-005 0.00329651,-9.74085e-005l0.0197767 -0.000393113c0.00262801,-8.67888e-005 0.00542155,0.000179437 0.00809259,-7.47042e-005 0.000485211,-4.61409e-005 0.000726535,6.07887e-005 0.000999902,-9.77747e-005l-0.0294679 0c-0.000488507,7.30564e-005 -0.00101089,7.30564e-005 -0.00160065,1.90423e-005 -5.87747e-005,-5.30986e-006 -0.000116817,-1.17183e-005 -0.00017431,-1.90423e-005l-0.00332745 0c9.15493e-006,2.91127e-005 1.95916e-005,6.40845e-005 3.22254e-005,0.00010638 -0.000624183,2.14225e-005 -0.00136134,0.000319324 -0.00192748,-0.00010638l-0.000397873 0zm0.04318 0.0206966c0.000122493,0.000179803 -0.000279592,-0.000267507 -1.68451e-005,-1.62958e-005l1.68451e-005 1.62958e-005zm-0.029369 -0.0091141c0.00123921,-1.55634e-005 0.00385478,-0.000824493 0.00330017,0.00211241 -0.000280324,0.000808014 -0.00288893,0.000504254 -0.00329761,0.000380479l-2.56338e-006 -0.00249289zm-0.00342138 -0.0021179c-0.00011462,0.000507366 -5.34648e-005,0.00121669 -3.55211e-005,0.00195183l0.000531535 0.000280324 9.68592e-005 0.00493249c-0.000172113,0.000886747 -7.90986e-005,2.38028e-005 -0.000492902,0.000676183l6.82958e-005 0.00181396 0.00380644 -5.25493e-005c0.000162408,-0.000604409 8.82535e-005,-0.00131117 8.22113e-005,-0.00199834 -0.000308155,-0.000105465 -0.000385056,5.80423e-005 -0.000488873,-0.00037462 0.000335254,-0.000167901 0.00187163,-7.36057e-005 0.00231217,-3.07606e-005 0.00105886,0.000102901 0.0010162,0.000736423 0.00105996,0.00244363l0.00344335 1.42817e-005 -3.93662e-005 -0.00209849c-0.00110207,-0.000116634 -0.000411789,-0.00149299 -0.00218748,-0.00171966 0.000591775,-0.000759493 0.00201592,-0.000205254 0.0015318,-0.00390678 -0.000232169,-0.00177459 -0.00130531,-0.00196904 -0.00249032,-0.00208842 -0.0010162,-0.000102352 -0.00660327,-0.000185845 -0.00719816,0.000156916zm0.0157981 0.00462928c8.40423e-005,-0.000892423 0.000577493,-0.00209044 0.000776888,-0.00275069 0.00023931,0.000243521 0.000945338,0.0021688 0.000990564,0.0027712l-0.00176745 -2.0507e-005zm-0.000526592 0.00493524c1.95916e-005,-0.000469831 4.96197e-005,-0.00113338 6.77465e-006,-0.00159973 -9.4662e-005,-0.00103579 -3.60704e-005,-0.000239676 -0.000217338,-0.000720859 0.000864042,-4.65071e-005 0.00174768,-3.42394e-005 0.00262692,-4.81549e-005 0.00112258,-1.79437e-005 0.000753451,0.000267507 0.000719944,0.000364 -7.08592e-005,0.000203606 -9.20986e-005,0.000103817 -0.000145563,0.000460127 -7.36057e-005,0.000489423 7.87324e-006,0.00111544 5.3831e-005,0.00164093l0.0041091 -2.19718e-006 -3.24085e-005 -0.00213585 -0.000754549 -6.22535e-005 -0.00276479 -0.00773464 -0.00448738 0.000103634c-0.00030724,0.000615944 -0.0010552,0.00306049 -0.00127052,0.00390568 -0.000345141,0.00135365 -0.000842803,0.00252328 -0.00122694,0.00386118l-0.000719395 0.000104 5.9324e-005 0.00199761 0.004043 -0.000133479zm0.0227562 -0.00761141c0.000772493,-0.000161676 0.00202287,-0.000385789 0.00265017,4.52254e-005 0.000634254,0.000435775 0.00185314,0.000339282 0.00262362,0.000237296l-1.6662e-005 -0.00261703 -0.0089819 0.000152704 -1.50141e-005 0.00200438 0.000598733 0.000303211 -3.3324e-005 0.0056149 -0.000552409 0.000329761 7.47042e-005 0.00185314c0.000973169,0.000140803 0.00854045,0.000298451 0.00898795,5.98733e-005 0.00017138,-0.000568155 8.42254e-005,-0.00173578 7.28733e-005,-0.00254049l-0.00219792 -8.67888e-005c-0.000674535,8.23944e-005 -9.2831e-005,-9.70423e-006 -0.000482648,0.000276113 -0.000312916,0.000229423 -0.00233616,0.000289479 -0.00262838,-6.37183e-005 -0.000193169,-0.00027831 -0.000165704,-0.00104238 -0.000114803,-0.00141279 0.000151789,-0.00110427 0.00253537,-0.000260183 0.00403806,-0.000522197l-2.52676e-005 -0.00176159c-0.00118465,-0.000331592 -0.00294093,0.000216239 -0.00404776,-0.000216423l4.99859e-005 -0.00165558 0 0zm-0.00785896 0.00419772c-0.000426437,0.00081662 1.72113e-005,0.00125093 -0.00110152,0.00139301 -0.000496563,6.3169e-005 -0.00143677,2.28873e-005 -0.00191869,-0.000167535 -0.000619423,-0.000244986 -0.000801423,-0.000716465 -0.000825409,-0.00189507 -1.51972e-005,-0.000751071 -0.00010638,-0.00244894 0.000119563,-0.00295851 0.00033324,-0.000751437 0.00282906,-0.000888944 0.00333203,-0.000219535 0.000280507,0.000373338 0.000135127,0.000647986 0.000515423,0.000803254 6.6831e-005,2.70986e-005 0.00253482,0.000213676 0.00273586,-6.18873e-005 8.33099e-005,-0.00011407 0.000750704,-0.00341076 -0.00315699,-0.00348949 -0.00186523,-3.75352e-005 -0.0044341,-0.000237479 -0.00584158,0.00120186 -0.000743014,0.000759859 -0.000879972,0.00175994 -0.000821197,0.00380772 5.5662e-005,0.00193572 -7.70845e-005,0.00320569 0.00070969,0.00402707 0.00146387,0.00152851 0.0035338,0.00132618 0.00545359,0.00131849 0.00171252,-6.95775e-006 0.00413821,-0.000232901 0.00379637,-0.00377769l-0.00299714 1.83099e-005zm-0.0114091 -0.0145487c6.00564e-005,0.00121852 -6.22535e-005,0.000497479 0.00049693,0.000937282l1.33662e-005 0.00112386 -0.00160614 1.90423e-005c-0.000294423,-0.00182458 0.000171747,-0.00109145 0.000439986,-0.00181341 -0.000165887,-0.000281056 7.32395e-006,-0.000324634 -0.000719211,-0.000279775l-0.00239035 7.17747e-005c-0.000378831,0.00012231 -4.37606e-005,-1.77606e-005 -0.000216606,0.00014062 8.7338e-005,0.00107186 0.000115352,0.000155268 0.000740634,0.000842803l9.13662e-005 0.00342632c-0.00082431,0.000770845 -0.000681493,-0.000286366 -0.000725986,0.000837859 0.000190789,0.000168817 -3.66197e-007,0.000101254 0.000303028,0.000135127 0.000573465,6.42676e-005 0.00271096,4.32113e-005 0.00297151,-0.000238761 -6.11549e-005,-0.00116176 -0.000282338,-0.000121211 -0.000481916,-0.00097793 -0.000157465,-0.000674902 -6.28028e-005,-0.00114583 0.000300099,-0.00120039 0.00111507,-0.000167718 0.00141993,-0.000260916 0.00133955,0.00146277 -0.000459028,0.000461958 -0.000388718,-0.000109127 -0.000455183,0.000729648 0.00034331,0.000345324 0.00278456,0.000282887 0.00328735,6.6831e-005l3.73521e-005 -0.000508282 -0.000745944 -0.000316028 -9.2831e-005 -0.00373265c0.000762423,-0.000164789 0.000658789,-0.000123592 0.000761324,-0.00054893 -0.000144282,-0.000277028 1.24507e-005,-0.000186578 -0.000233085,-0.000257986 -4.94366e-006,-1.28169e-006 -0.000381578,3.79014e-005 -0.000399338,3.9e-005l-0.0027159 4.11972e-005zm0.0103793 0.00100118c0.000194817,-0.000290394 0.000276479,-0.000387437 0.000641211,-0.000432479 0.00023931,-2.94789e-005 0.000611183,-3.47887e-006 0.000852324,3.66197e-005 0.000576028,9.57606e-005 0.000894071,0.000494366 0.00123555,0.00100448l0.000960352 -0.000151606 -8.01972e-005 -0.00168268c-0.000559733,3.38732e-005 -0.000967493,0.000216056 -0.00147266,8.1662e-005 -0.00362517,-0.000963831 -0.00485285,0.00160614 -0.00377751,0.0025892 0.00131007,0.00119765 0.00316944,0.000511211 0.0035664,0.00182696 -0.000485028,0.00062638 -0.00130751,0.00055424 -0.00199413,0.000146662 -0.00115572,-0.000686254 0.000176141,-0.000853606 -0.00177368,-0.00108706l7.50704e-005 0.00200804c0.000727085,0.00025231 0.00082724,-0.000199028 0.00163489,3.95493e-005 0.000583535,0.000172296 0.00115499,0.000191338 0.00176178,0.000158563 0.000567972,-3.07606e-005 0.00104476,-0.000143183 0.00156696,-0.000448592 0.00058738,-0.000343493 0.000737155,-0.000517986 0.000812592,-0.00162573 -0.000262197,-0.00200768 -0.00342431,-0.00126411 -0.00400894,-0.00246359zm-0.026364 0.00234604c0.000213493,-0.00016607 0.000797211,-0.000339465 0.00128206,0.000352465 1.53803e-005,0.000894986 -0.000223197,0.00107973 -0.000775057,0.00111818 -0.00065769,4.59578e-005 -0.000622718,-0.000404099 -0.000507,-0.00147065zm-5.29155e-005 -0.0023248c0.000599831,-2.69155e-005 0.000749423,-0.000103451 0.00115407,0.000435409 -6.75634e-005,0.00110903 -0.000502056,0.0010118 -0.0011938,0.000893888l3.97324e-005 -0.0013293zm0.00300318 0.00018438c-0.00021331,-0.00174017 -0.00571304,-0.000797395 -0.00571451,-0.000796479 -5.89578e-005,0.000850493 0.000123775,0.000500775 0.000653662,0.000767549 0.000160028,0.000810395 0.000205437,0.00285469 8.42254e-005,0.00355559 -5.12676e-005,5.27324e-005 -5.9324e-005,7.48873e-005 -0.000205437,0.000150324 -0.000583535,0.000301197 -0.000410324,-0.000171563 -0.000433394,0.000633521 1.83099e-007,0 0.00579013,0.000741 0.00598018,-0.00124013 -0.000108944,-0.00157886 -0.000675817,-0.00108193 -0.0012903,-0.00171508 0.000576395,-0.000283437 0.000867338,-0.000353563 0.000925564,-0.0013553zm0.00338311 -0.00118977c-6.59155e-006,-1.09859e-006 -0.000392747,3.00282e-005 -0.000398423,3.05775e-005 -0.000711155,5.87747e-005 -0.00215965,-0.000109676 -0.00259909,0.000146113 3.66197e-006,0.00148365 -4.72394e-005,-1.3e-005 0.000754549,0.000942409l0.000632056 0.000948634c0.000247916,0.000322986 0.000428634,0.000644507 0.000637,0.000962183 0.000347338,0.000530071 0.000329028,0.000721409 0.000265859,0.00168249 -0.000518169,0.000172662 -0.000652197,-0.000139338 -0.000719395,0.00060093 0.000323169,0.000324268 0.00326959,0.000195549 0.00354314,-9.81409e-005 -0.000130916,-0.000716465 0.000203789,-0.000212028 -0.000327563,-0.000535747 -0.00116689,-0.000711521 -0.000112972,-0.00201427 0.000324817,-0.00281368 0.00012231,-0.00022338 0.00044969,-0.000726902 0.00063938,-0.000917141 0.000524028,-0.000525127 0.00067069,0.00012762 0.000709507,-0.000811127 -0.000277578,-0.000234183 -0.0022501,-0.000212028 -0.00252841,2.7831e-005 -0.00035869,0.000513409 0.000228873,0.00059562 0.000435042,0.000950648 -0.000156183,0.000328662 -0.000349901,0.000635535 -0.000562296,0.00098855 -0.000340197,-0.000122676 -0.000749057,-0.000739352 -0.000899564,-0.00118831 0.00043724,-0.000558085 0.000378282,0.000305225 0.000503338,-0.000670507l-0.000146113 -0.000148676c-2.47183e-005,-1.51972e-005 -5.23662e-005,-3.88169e-005 -8.11127e-005,-5.2e-005 -0.000146113,-6.60986e-005 -4.6324e-005,-2.56338e-005 -0.000182732,-4.50423e-005zm0.0169806 0.000752169c0.000525127,-0.000596169 0.000786042,0.000128169 0.000692845,-0.000884366l-0.00356127 7.63521e-005 -3.29578e-006 0.000593972 0.000775606 0.000327563 -7.32395e-006 0.00375718c-0.000486676,7.94648e-005 -0.000596352,-0.000126155 -0.000709324,0.000496563 0.000175775,0.000265127 -0.000286,0.000290211 0.000898648,0.000225394 0.000504803,-2.74648e-005 0.00236875,0.000173211 0.00269649,-0.000152521 -2.01408e-005,-0.0011808 -0.000149408,-0.000132014 -0.000683141,-0.000914395 -0.000286732,-0.000636634 -0.000177239,-0.00263754 -9.92395e-005,-0.00352575zm0.00179052 0.0110972l0.000539775 5.58451e-005 7.74507e-005 0.00238486 -0.000589578 -5.41972e-005 -2.76479e-005 -0.00238651zm-0.000664282 0.00287904l0.000149958 0.000148127c0.000435958,0.000301197 0.00138185,0.000262747 0.00180462,9.81409e-005 0.000196831,-0.000589028 6.5e-005,-0.000706028 0.000195366,-0.00124599l0.00467304 -3.49718e-005 1.17183e-005 -0.0012588 -0.00468018 -4.87042e-005 -0.000196465 -0.00109841c-0.00241873,-0.000710606 -0.0021082,0.000223747 -0.00208348,0.00191247l4.76056e-005 0.00120644c0.000159113,0.00105849 -0.00011993,-0.000157465 7.78169e-005,0.000321704zm-0.0342902 -0.00325092c-3.31409e-005,0.000739352 -2.0507e-005,0.00147138 2.01408e-006,0.00221201 2.85634e-005,0.000944789 2.4169e-005,0.00121632 0.000482099,0.00143586 0.000238028,-0.00066538 -8.18451e-005,-0.00219334 7.81831e-005,-0.0031612 0.00126979,-0.000435592 0.00156623,0.000329944 0.00177001,-0.000606606 -0.000127986,-0.000134944 -6.64648e-005,-0.000104916 -0.000258169,-0.00018438 -0.000428634,-0.000178155 -0.00168799,-8.07465e-005 -0.00207414,0.00030431zm0.0112415 0.000591225l0.00187401 1.81268e-005 -6.40845e-006 -0.000682592c-0.000323901,-0.000251578 -0.000830719,-0.000175408 -0.00124489,-0.00017138 -0.000577859,5.67606e-006 -0.000781282,-9.06338e-005 -0.000622718,0.000835845zm0.00238669 -0.015045c-0.000217155,-0.000273916 -0.000603676,-0.000478071 -0.00103689,-0.000436873 -0.0011927,0.000112972 -0.000903775,0.00165521 0.000208732,0.00157318 0.00059324,-4.37606e-005 0.000784578,-0.000257986 0.000828155,-0.00113631zm-0.00330054 -0.000163141c-0.000370775,-0.001417 -0.00181286,-0.000525676 -0.00231839,-0.000544169 -0.000122859,-4.39437e-006 -0.00195385,-0.000980493 -0.00238101,0.000656226 0.000294972,0.000755465 0.00157978,0.00167224 0.00227701,0.00167554 0.00029607,1.28169e-006 0.00100961,-0.00044969 0.00134358,-0.000637 0.000665197,-0.000372972 0.000937465,-0.000500409 0.00107882,-0.00115059zm0.0383079 -0.000913845c-0.00039769,-0.00128792 -0.00142194,-0.000641761 -0.00210563,-0.00055662 -0.000801972,9.97888e-005 -0.00112954,-0.000829071 -0.00226694,0.000282521 0.00014007,0.00143641 0.00176379,0.00201244 0.00210618,0.00200347 0.000331958,-8.97183e-006 0.00090469,-0.000405747 0.00123079,-0.000602395 0.000433761,-0.000261465 0.000875211,-0.00051762 0.00103561,-0.00112697zm0.00523992 -0.00170245c0.000644324,-6.33521e-005 0.00112917,6.39014e-005 0.00132179,-0.000836578 -0.00031438,-0.000990197 -0.00132417,-0.000710423 -0.00176269,-0.000418563 6.3169e-005,0.00076224 0.00022393,0.000662451 0.000440902,0.00125514zm-0.0261578 0.00448683l0.00126155 -1.08028e-005c-0.000134761,-0.00189397 -0.0010519,-0.00294734 -0.0019608,-0.00371141 -0.000728366,-0.000612282 -0.00222813,-0.00148237 -0.00323773,-0.0013813 0.000240409,0.00166547 0.000630409,0.000552775 0.00228342,0.00203166 0.000796662,0.00071262 0.00148511,0.00129176 0.00165356,0.00307185zm0.0278564 -0.00533256c-0.000313648,0.00106783 -0.000919888,0.000531169 -0.00140931,0.00118959 0.000520183,0.000309803 0.00145307,0.000114986 0.00184362,-0.00102975 -0.000169183,-0.000911831 -0.000704747,-0.00128316 -0.00132307,-0.00143348 -0.000856902,-0.000208183 -0.00114327,7.01268e-005 -0.00180096,0.000388902 0.000521831,0.000669226 0.00215049,-0.00099862 0.00268972,0.000884733zm-0.0472136 -0.000454634c0.000358324,0.000801789 0.00149024,0.00103487 0.00222538,0.00103451 0.000656409,-5.49296e-007 0.00225339,-0.000354845 0.00157886,-0.00170703 -0.000646704,-0.0012967 -0.00471754,-0.00136994 -0.00380424,0.000672521zm0.0194628 -0.00149116c-0.000536479,0.00246597 0.000218986,0.00238724 0.00103982,0.00326721 0.00148383,0.00159094 0.000844451,0.00139247 0.00214756,0.00193883 0.00258389,0.00108339 0.0140748,0.00270656 0.0115206,-0.00583334 -0.000479718,-0.00160394 -0.000878507,-0.00177954 -0.00155286,-0.00304878 -0.000640845,2.39859e-005 -0.00154993,0.00123976 -0.00168872,0.00152485 -0.00044731,0.000919338 0.000795197,0.000888028 0.000394578,0.00300556 -0.000870268,0.00459925 -0.00803986,0.00219425 -0.0101396,0.000365465 -0.000612282,-0.000533183 -0.00108468,-0.0013758 -0.00172131,-0.0012198l0 0zm0.021957 -0.00200017c0.000162225,0.00059324 0.000665197,0.00110152 0.000982141,0.00128187 0.00152961,0.000869535 0.00423342,0.000282155 0.00378355,-0.00176507 -0.000532268,-0.00242203 -0.0054318,-0.00195201 -0.00476569,0.000483197zm-0.00674133 -0.00171124c0.0010638,0.00285194 0.00670196,0.00197307 0.00577969,-0.000966211 -0.000894437,-0.0028503 -0.00691271,-0.00207085 -0.00577969,0.000966211zm-0.019962 0.00885117c-9.79578e-005,-0.00350121 -0.0030127,-0.00746035 -0.00481586,-0.00913296 -0.00102169,-0.000947535 -0.00252676,-0.00178063 -0.00400748,-0.00181103 -0.000388169,-7.87324e-006 -0.00397452,0.000263113 -0.00444051,0.000571085 -0.00024462,0.000161859 -0.00014007,7.87324e-005 -0.000242056,0.000278127 0.000505352,0.000533183 0.00207139,0.0011949 0.0031612,0.00356035l0.00115682 0.00244547c0.000323352,0.00080893 0.000776338,0.00194579 0.00114473,0.00264651 0.00103249,0.00196465 0.00113649,0.00319013 0.00347778,0.0027538 0.00147321,-0.000274648 0.003146,-0.000739352 0.00456538,-0.00131135l0 0zm-0.0141548 -0.0129724c-0.000556254,-0.000495831 -0.000990564,-0.000325183 -0.00152814,0.000268606 -0.000383958,0.00042424 -0.000903775,0.000925014 -0.00124763,0.00142194 0.000200676,0.000285085 0.000429549,0.000314014 0.000813141,0.000250113 0.000591775,-9.86902e-005 0.000862944,-0.000647803 0.00135841,-0.00111525l0.000604225 -0.000825409zm0.00249673 -5.95071e-005c0.000633887,0.00170923 0.00485669,0.00203239 0.00474811,-0.000794099 -0.000285085,-0.000858549 -0.00133149,-0.00149976 -0.00204814,-0.00122328l0.000716648 0.000598733c0.00030193,0.000163507 0.000772859,0.000571634 0.000751437,0.00112349 -2.03239e-005,0.000521831 5.12676e-005,0.000166254 -0.000174676,0.000447676 -0.000133662,0.000166254 -0.000625099,0.00042662 -0.000732028,0.000467085 -0.00171637,0.000648535 -0.00258609,-0.000773409 -0.00284718,-0.000807465l-0.000414169 0.000187859zm-0.00131685 -0.0055629c-1.83099e-006,-7.32395e-007 -0.000114986,-8.49578e-005 -0.000272451,-0.000129268 -0.000456099,-0.000128352 -0.00152521,0.000158563 -0.00194689,0.000365831 -0.00149555,0.000734958 -0.00201189,0.00263223 -8.12958e-005,0.00397397 0.00184417,0.00128132 0.00539006,0.000522014 0.00544975,-0.00158051 3.82676e-005,-0.00135182 -0.000586465,-0.00160065 -0.00120717,-0.00203478 -0.000803254,-0.000561747 -0.00124196,-0.000312366 -0.00194194,-0.000595254zm0.00553196 -0.00105904c0.00174566,-0.000385423 0.000999902,0.000511578 0.00158252,-0.000455183 -0.000784578,-0.000103451 -0.000933803,-0.000373521 -0.00179638,-0.000209465 -0.00117751,0.000224113 -0.00168304,0.00113008 -0.0012978,0.00209758 0.000139887,0.000351183 0.000214042,0.000361254 0.00043193,0.000503338 0.000766817,0.000499859 0.00173083,0.000715 0.00258425,0.000372056 0.000642859,-0.000258352 0.000635352,-0.000372972 0.00102883,-0.00086569l-8.60564e-006 -0.000895902c-0.000500409,-0.000799775 -0.000647803,-0.000886197 -0.00104055,-0.000697789 0.000108761,0.000435775 -8.66057e-005,1.99578e-005 0.000231437,0.000476423 0.000310718,0.000445845 2.30704e-005,-0.000162958 0.000280873,0.000362352 -7.63521e-005,0.00061631 -0.00027593,0.000718479 -0.000634254,0.000953211 -0.000367662,0.000241141 -0.000557535,0.00022338 -0.000968775,0.000264944 -0.00185845,0.000188042 -0.00182421,-0.00166913 -0.000513225,-0.00182385l-0.000543071 0.000395493c0.000164606,0.00187365 0.00174676,0.00139979 0.00223545,0.000763338 -5.30986e-005,-0.001482 -0.000913845,-0.000951564 -0.00157263,-0.00124086zm0.00623414 -0.0018579l-8.36761e-005 8.67888e-005c-0.000134944,0.000474225 -0.000152887,0.000376817 -0.000246634,0.000739169 -0.000591775,0.00228544 0.000309803,0.00128169 -0.00120076,0.00371434 -0.000782564,0.00126027 -0.00118611,0.00270272 -0.00156311,0.00434768 -0.000369676,0.00161273 -0.00128535,0.000775423 -0.00185827,0.00175024 0.000372423,0.000458479 0.00127913,0.00102554 0.00185461,0.00140913l0.00270162 0.00248062c0.00113082,0.00132069 0.00155341,0.00280269 0.00266537,0.00245261 0.00041124,-0.000129451 0.00159387,-0.000963099 0.0020637,-0.00125349 0.00169714,-0.00104824 0.00398313,-0.00140217 0.00655054,-0.00327252 0.000651465,-0.000474592 0.00128901,-0.000983606 0.00192656,-0.0015437 0.00287996,-0.00253097 0.00291786,-0.00480469 0.00440792,-0.00685778 0.000299183,-0.000412155 0.00050993,-0.000589578 0.000758211,-0.0010909l0.0014712 -0.00229368c0.00135328,-0.00214647 0.00157447,-0.00225193 0.00273238,-0.00490887 8.75211e-005,-0.000200859 0.000237479,-0.000554972 0.000277578,-0.000757662 5.62113e-005,-0.000283254 5.3831e-005,-7.12254e-005 4.55916e-005,-0.000422225 -1.83099e-007,-9.33803e-006 3.46056e-005,-0.000336169 -0.000110042,-0.000596169 -0.000660803,-0.000810395 -0.00152137,0.000563211 -0.00212175,0.00110189 -0.0022739,0.002041 -0.00157868,0.00182275 -0.0027084,0.00326959 -0.000732028,0.000937282 -0.00220121,0.00258132 -0.00307697,0.00259835 0.000234,-7.50704e-006 0.00247549,-0.00284169 0.00295631,-0.00345361l0.000825958 -0.00114968c0.00106563,-0.0012892 0.00248868,-0.00308851 0.00381834,-0.00319672 0.00194561,-0.00015838 0.00117092,0.000831634 0.00193535,0.00169678 0.000310352,0.000351366 0.00049693,0.000492352 0.000935268,0.000461958 0.000150141,-0.000760592 0.000259451,-0.00177917 0.000118282,-0.00261923 -0.000305409,-0.00181927 -0.00114199,-0.000219169 -0.00149408,-0.000293141 9.08169e-005,-0.000738071 0.000422409,-0.00197563 0.000336352,-0.00246799 -0.00110372,-0.000695592 -0.0026899,0.000586648 -0.00355266,0.00141773 -0.00316266,0.00304603 -0.00449251,0.00236014 -0.00739169,0.00661865l-0.00113283 0.00148493c-0.000110042,9.08169e-005 3.64366e-005,2.30704e-005 -0.00021807,0.000149042l0.000351916 -0.000912014c0.000186578,-0.000410141 0.000324634,-0.000504437 0.000600564,-0.00088693 0.000266225,-0.00036931 0.000266409,-0.000588113 0.000528056,-0.000949183 0.000119197,-0.000164423 6.82958e-005,-7.58028e-005 0.000177972,-0.000217521 1.64789e-005,-2.12394e-005 3.97324e-005,-5.14507e-005 5.60282e-005,-7.26902e-005 1.59296e-005,-2.10563e-005 3.84507e-005,-5.32817e-005 5.43803e-005,-7.47042e-005l0.000337268 -0.000442366c0.00081424,-0.000996423 0.00211387,-0.00203294 0.00315699,-0.00264816 0.00113082,-0.000666845 0.00222044,-0.00165869 0.00318701,-0.00249893 0.00170318,-0.00148054 0.00168725,-0.00111525 0.00368632,-0.00163745 0.000316944,-0.00257363 -0.00186761,-0.00167023 -0.00288545,-0.00133241l-0.0034591 0.00273531c-0.00407047,0.00249618 -0.00302607,0.000946071 -0.00677502,0.00492242l-0.000297169 0.000335254c-0.00064469,0.000816437 -0.00250186,0.00312275 -0.00365593,0.00284187 0.00136262,-0.000354845 0.00331756,-0.00380351 0.00584048,-0.00555466l0.00632349 -0.00399741c0.000433578,-0.000459394 0.00016131,8.64226e-005 0.000288747,-0.000668859 -2.25211e-005,-3.55211e-005 -5.84085e-005,-0.000135127 -7.21409e-005,-9.68592e-005l-0.00029662 -0.000269338c-0.00085269,-0.000474775 -0.00193389,0.000230704 -0.00294221,0.000653479 -0.00111525,0.000467451 -0.00210252,0.00101565 -0.00321814,0.00153803 -0.0011017,0.000515606 -0.00200694,0.000923 -0.0031048,0.00160724 -0.00094662,0.000589944 -0.00081369,0.00069431 -0.00151185,0.00138716 -0.000215507,0.000213859 -0.000705296,0.00082138 -0.000777986,0.00118739 -4.22958e-005,0.000212944 3.57042e-005,0.000169183 -9.68592e-005,0.000218986l-0.000104 3.77183e-005c-0.000345324,0.000258169 -0.000318225,0.000892606 -0.00188079,0.00223362 -0.000492718,0.000422592 -0.00134907,0.0012632 -0.00187859,0.0012718 -1.51972e-005,3.66197e-007 -4.96197e-005,-1.64789e-006 -7.36057e-005,-1.09859e-005 0.000465986,-0.000110408 0.00052531,-0.000264394 0.00100503,-0.000743747 2.01408e-005,-1.99578e-005 4.57747e-005,-4.41268e-005 6.55493e-005,-6.48169e-005l0.00177532 -0.00212907c0.000143916,-0.000180535 0.000168085,-0.000196282 0.000284718,-0.00038762 0.00017431,-0.000285634 0.000177972,-0.000353563 0.000398056,-0.000685887 0.000258901,-0.000391648 0.000302479,-0.000368028 0.000341479,-0.00103396 -0.000420578,-0.000674169 -0.0017539,-0.00135347 -0.00217631,-0.000333606 -0.00027062,0.000653113 -3.20423e-005,0.000607155 -0.000558817,0.00161456 -7.72676e-005,0.000147944 -1.06197e-005,6.22535e-006 -0.000138423,0.000275197 -0.000641578,0.00134852 -0.00151203,0.00214628 -0.00241452,0.00305701 -0.000702549,0.000709141 -0.00120699,0.00124196 -0.00176324,0.00212999zm-0.0178082 0.0137921l-7.14085e-006 -3.03944e-005c-0.000103451,0.000143183 -8.14789e-005,0.000126521 7.14085e-006,3.03944e-005zm-0.000312183 -0.000888944c-5.0169e-005,0.000309254 7.17747e-005,1.08028e-005 0.000120296,1.20845e-005 -4.13803e-005,-8.97183e-006 -8.12958e-005,-1.28169e-005 -0.000120296,-1.20845e-005zm-0.00292537 0.000146113c-1.39155e-005,-1.19014e-005 -2.7831e-005,-2.45352e-005 -4.15634e-005,-3.79014e-005 2.36197e-005,5.12676e-005 -5.3831e-005,0.000140254 4.15634e-005,3.79014e-005zm-4.15634e-005 -3.79014e-005c-7.50704e-006,-7.14085e-006 -1.50141e-005,-1.42817e-005 -2.25211e-005,-2.19718e-005 1.15352e-005,5.49296e-006 1.8493e-005,1.31831e-005 2.25211e-005,2.19718e-005zm0.0404014 -0.00881638c0.000202507,0.000362718 0.000547099,0.000858733 0.000752718,0.00104916 -0.00053593,1.75775e-005 -0.00126539,-0.000576211 -0.0019337,-0.000612282 -0.00086093,-4.6324e-005 -0.000229423,0.000218437 -0.00128755,0.00095962 -0.000836395,0.000585916 6.26197e-005,0.000898099 -0.000840606,0.00251944 -0.000369493,0.000663 -0.000559366,0.000930324 -0.00103377,0.00148639 -0.00178723,0.0020941 -0.0029272,0.00303925 -0.00512621,0.00426107 -0.00107186,0.000595437 -0.00205656,0.000914395 -0.00301106,0.00158197 0.000356127,0.00162885 0.00217594,0.00237827 0.00307478,0.00278237 0.0015752,0.000708042 0.00457307,0.00151514 0.00615779,0.000142085 0.00215416,-0.00186687 -0.000553141,-0.00268221 0.000331958,-0.00451009 0.000378099,-0.000780916 0.00104494,-0.00101089 0.00154755,-0.00146534 0.00104018,-0.000940578 0.00202507,-0.00200383 0.00264797,-0.00329651 0.000343859,-0.000713718 0.000770113,-0.00133442 0.00102865,-0.00225669 0.000736423,-0.00262509 0.000914578,-0.00273092 0.00230228,-0.00406772 0.00123354,-0.00118831 0.0016803,-0.00153656 0.000726718,-0.00507 -0.000948817,-0.00351641 -0.000654211,-0.00298323 -0.00238047,-0.000430099 -0.000821014,0.00121431 -0.000554056,0.00106985 -0.00133863,0.0021547 -0.000287099,0.000397324 -0.000307789,0.000626564 -0.00066831,0.00108468l-0.00173596 0.00249069c-0.000385423,0.000548747 -0.000207817,0.000102169 -0.000335986,0.000846831 0.000710057,-6.04225e-005 0.00170392,-0.00131154 0.00223051,-0.00187401 0.00071738,-0.000766268 0.00142524,-0.00210966 0.00192876,-0.00215452 -2.56338e-006,0.00100814 -0.000768282,0.001794 -0.00129158,0.00235263l-0.00174585 0.00202562zm-0.0121028 -0.00941713l1.46479e-006 7.50704e-006c-3.11268e-006,-1.46479e-006 -3.29578e-006,-4.21127e-006 -1.46479e-006,-7.50704e-006zm0.0170884 0.0161861c-0.00180645,-0.000797578 -0.00289442,0.00217558 -0.000498028,0.00243796 0.000618873,6.77465e-005 0.00168158,-5.85916e-005 0.0018308,-0.000919338 0.000204521,-0.00118007 -0.00105044,-0.00139393 -0.00133277,-0.00151862zm0.000439986 -0.000292958c0.000743197,0.000185479 0.00217924,0.000857817 0.00132875,0.0022241 -0.00050224,0.000806916 -0.00191832,0.00107296 -0.00278475,0.000828704 -0.00284169,-0.000801423 -0.00119399,-0.00371434 0.001456,-0.0030528zm-0.0364002 -0.00650897c-0.000442,-0.000249747 -0.00145344,5.58451e-005 -0.00168378,0.00065238 -0.000612831,0.00158655 0.00243118,0.00213017 0.00278493,0.000860014 0.00030907,-0.00111031 -0.000606056,-0.0012328 -0.00110116,-0.00151239zm0.0018297 0.00119582c-0.000312,0.00180023 -0.00261996,0.00156586 -0.00342266,0.00101748 -0.00280196,-0.00191448 0.00246048,-0.00397947 0.00342266,-0.00101748zm-0.000334521 0.0124751c-0.000451155,0.000997521 -0.00288014,0.000968958 -0.00266555,-0.000787324 0.000393479,-0.000330127 0.000955958,-0.000453169 0.00151038,-0.000289479 0.000545634,0.000160944 0.00100723,0.000341662 0.00115517,0.0010768zm0.0418177 -0.00338018c-0.000192986,-0.00176397 -0.00175775,-0.0014192 -0.00263937,-0.000723057 6.1338e-005,0.00117 0.000450056,0.00143623 0.00114492,0.00149683 0.000722141,6.28028e-005 0.00112148,-0.000127437 0.00149445,-0.000773775zm0.00050462 4.0831e-005c-0.00101785,0.00171051 -0.00395054,0.00109896 -0.00364787,-0.000522197 0.000163141,-0.000873197 0.00133772,-0.001105 0.00201408,-0.00106966 0.000756747,3.97324e-005 0.00158801,0.000293324 0.00163379,0.00159186zm-0.0415465 -0.0136969c-0.000159662,0.00111416 -0.000608254,0.00125899 -0.0011722,0.00116377 0.000309437,-0.000237296 0.000710972,-0.000379747 0.000570902,-0.00122438 -0.000249747,-0.00150434 -0.00300886,-0.00131373 -0.00325348,-0.000165887 -1.50141e-005,0.000711521 8.05634e-005,0.000998071 0.000473676,0.00107149l-0.000770845 3.42394e-005c-0.000116268,-0.000352099 -0.000225578,-0.000457014 -0.000265676,-0.000944057 0.000615944,-0.00183099 0.00372185,-0.00156092 0.00441762,6.48169e-005zm-0.00167407 0.00479682c-0.000547282,0.000641211 -0.0015188,0.000481916 -0.00181268,-0.000341296 0.000410324,-0.000623085 0.00169147,-0.00093069 0.00181268,0.000341296zm0.0423566 0.018323l-0.000398056 1.46479e-006c5.49296e-005,-4.17465e-005 0.000108394,-9.00845e-005 0.000159845,-0.000146296 0.000374254,-0.000409592 0.00084024,-0.00120461 0.000928493,-0.00218785 0.000191155,-0.00212816 -0.00109914,-0.00351971 -0.00197985,-0.00426602 -0.00171966,-0.00145747 -0.00567551,-0.00240647 -0.00771578,-0.001391 0.000143,0.00138642 0.000108028,0.00116103 0.00100576,0.000990747 0.00505554,-0.000958521 0.00903482,0.00327673 0.00623579,0.00633356 -6.62817e-005,7.2324e-005 -0.000261831,0.000269338 -0.000314197,0.000337085 -0.000155268,0.000200676 -0.000156183,0.000147028 -0.000215141,0.000336535l-0.00332745 1.17183e-005c0.00375187,-0.000482648 0.00446687,-0.00474189 0.000197014,-0.00579361 -0.000701634,-0.000172662 -0.00379948,-0.000426803 -0.00372825,0.00136152 0.000403,-0.000357592 0.00137214,-0.000211113 0.00191814,-5.62113e-005 0.000563944,0.000159845 0.00363121,-0.000461592 0.00377037,0.00125203 7.30564e-005,0.000901028 -0.000799958,0.00147559 -0.0013,0.00177075 -0.00197435,0.00116561 -0.00185992,0.00115132 -0.00375224,-0.000129268 -0.000998803,-0.000675817 -0.00124892,-0.00139485 -0.00149408,-0.00138221 -0.000228141,1.15352e-005 -0.00104531,0.00084262 0.000239676,0.00187786 0.000803986,0.000647803 0.00153986,0.000983789 0.00237442,0.00110555l-0.0294679 0.000105282c-0.000114986,-6.62817e-005 -0.000235831,-0.000179254 -0.000383042,-0.000370042 -0.000378282,-0.000490155 -0.000844634,-0.000674718 -0.00131831,-0.000656775 -0.000568521,2.14225e-005 -0.000835113,0.000429916 -0.00125716,0.000761141 -0.000288014,0.000226127 -0.00574673,0.000198296 -0.00653021,0.000180901 -0.00113723,-2.52676e-005 -0.00577218,-0.000311451 -0.00669702,0.000142451l-0.00139375 4.94366e-006c-8.12958e-005,-6.62817e-005 -0.000155817,-0.00011993 -0.000220085,-0.00015838 0.00182861,-0.00112789 0.00498211,-0.000710423 0.00720658,-0.00459175 0.000208549,-0.000363817 0.000434493,-0.00112862 0.000683141,-0.00142341 0.000458113,0.000143183 0.000837676,0.000898282 0.00138075,0.00121907 0.000585183,0.00034569 0.00101766,0.000600014 0.00163306,0.000774324 0.000625282,0.000177239 0.00135566,0.00028307 0.001989,0.00022631 0.000614845,-5.52958e-005 0.00140144,-0.000119014 0.00187401,-0.00082962 -0.000325916,-0.00250497 -0.00137599,0.00158197 -0.00475745,-0.000764803 -0.000592324,-0.000410873 -0.000867888,-0.000800141 -0.000676916,-0.00191118 0.00148694,-0.00124379 0.00222245,-0.000656592 0.00390238,-0.000446211 -0.00016662,-0.000799409 -0.00039238,-0.00103616 -0.000929409,-0.00116945 -0.000409592,-0.000101437 -0.00111013,-0.000166803 -0.00152961,-0.000137324 -0.000505902,3.55211e-005 -0.000954676,0.000197014 -0.00144337,0.000410873 -0.000506817,0.000221549 -0.000802888,0.000647254 -0.00114949,0.000734775 -0.000172296,-0.000772859 5.30986e-005,-0.000823578 -0.000601479,-0.000582437 -8.55071e-005,9.30141e-005 -0.000249563,0.00192821 -0.00125331,0.00311176 -0.000717564,0.000845916 -0.00106454,0.00125258 -0.00202379,0.00201683 -0.00290193,0.00231199 -0.00810633,0.00210728 -0.011247,0.00105282 -0.00127034,-0.00042662 -0.0040538,-0.00145637 -0.00467231,-0.0026802 0.000538859,-3.66197e-007 0.00116616,0.000192986 0.00136427,-0.000740451 -0.000178155,-0.000574564 -0.00030962,-0.000582437 -0.000760958,-0.000693211 -0.000757662,-0.000186211 -0.00107973,0.000243338 -0.00111782,-0.000631873 -5.09014e-005,-0.00116927 0.000834014,-0.00196373 0.00138075,-0.00233506 0.000735507,-0.00049931 0.00193004,-0.000792817 0.00277999,-0.000894071 0.00112935,-0.000134394 0.00585476,0.000142634 0.0057872,0.0011808l-8.97183e-006 1.55634e-005c0.00114162,-0.000156549 0.00294862,0.00260201 0.000583902,0.00361437 -0.00145399,0.000622535 -0.00337085,0.000168634 -0.00441048,-0.00103835l-2.76479e-005 -0.000596902c0.000567972,-0.000915676 0.00229075,-0.00100649 0.00307203,-0.000190606 0.000508831,0.000531352 0.000108944,0.000637183 0.000479902,0.000782197 0.000385606,0.00015069 0.000360704,-0.000130732 0.000364549,-0.000133662 7.30564e-005,-0.000323535 0.000125239,0.000444747 6.55493e-005,-0.000469831 -3.55211e-005,-0.000543986 3.91831e-005,-8.03803e-005 -8.14789e-005,-0.000386521 -0.000103817,-0.000263662 -0.00026238,-0.000358324 -0.000442366,-0.000487225 -0.00201317,-0.0014408 -0.00694365,-0.00149244 -0.00762295,0.000956873 0.000861296,0.000320606 0.0021613,3.27747e-005 0.00299165,0.000923733 0.000316211,0.000339465 0.000180901,0.00011407 0.000239859,0.000645972 -7.01268e-005,0.000141535 -2.36197e-005,0.000110042 -0.000162042,0.000249747 -3.66197e-005,3.7169e-005 -0.00022631,0.000170831 -0.000283803,0.000205803 -7.56197e-005,4.57747e-005 -0.000252859,0.000130549 -0.000300099,0.00016607l-0.000221183 0.000214225c-1.86761e-005,1.97747e-005 -4.85211e-005,6.00564e-005 -7.12254e-005,9.31972e-005 0.00158051,0.000804169 0.00099331,0.00122694 0.00391923,0.00176947 0.00152723,0.00028307 0.0032489,0.000207634 0.00478217,-0.000180169 0.00167737,-0.000424056 0.00595382,-0.00166492 0.00538017,-0.00585733 -0.000164789,-0.0012057 -0.000283437,-0.000447676 -0.000503155,-0.00135347 0.000218803,-0.000236747 0.000845,-0.000957057 0.00101125,-0.000961451 0.000730747,-1.8493e-005 0.00112221,0.00153675 0.00270675,0.000715366 0.00023162,-0.000120113 0.000491803,-0.000280324 0.000662451,-0.000423141 0.000336535,-0.000281789 0.000408493,-0.000365648 0.00052824,-0.000840606 -0.000342761,-0.00136848 -0.00182568,-0.000795197 -0.00253207,-0.000886564 -0.000174859,-2.25211e-005 -0.000428451,1.02535e-005 -0.000565592,-2.30704e-005 -0.000205803,-5.0169e-005 -7.81831e-005,1.17183e-005 -0.000229789,-0.000116634l-0.000183831 -0.000248648c-0.000244437,0.000300099 -0.000610268,0.000615395 -0.000936733,0.000938381 -0.000270803,0.000267873 -0.00064762,0.00034093 -0.000739535,0.000781648 -1.51972e-005,7.34226e-005 -2.6e-005,0.000130916 -3.3324e-005,0.000175775 -0.000440902,7.69014e-006 -0.000745211,0.000600747 -0.00115389,0.00104641 -0.000353563,0.000385606 -0.000821564,0.00111159 -0.00119838,0.000895902l0.00565171 -0.00625666c0.000259817,-0.000317676 0.000228141,-0.000197197 0.000289479,-0.000650366 -0.000973719,-0.000771944 -0.00172461,0.000839507 -0.00251065,0.00165723 -0.000280141,0.00029131 -0.000530437,0.000555338 -0.000796662,0.000862211 -0.00027538,0.000317493 -0.00043138,0.000507 -0.000715733,0.000826507 -0.000654395,0.000735324 -0.00168304,0.00245462 -0.00249124,0.00176489 3.29578e-005,-3.55211e-005 8.67888e-005,-9.41127e-005 0.000172845,-0.000185113l0.00406937 -0.00456392c0.000398056,-0.000442183 0.000803986,-0.000569437 0.000994592,-0.00143677 -0.000403549,-0.000999902 -0.000990197,-0.0015102 -0.000161859,-0.00275509 0.00108577,-0.00163178 0.00288911,-0.0019273 0.00433266,-0.00184399 0.000919888,5.30986e-005 0.00164899,0.000490887 0.00239713,0.000561014 7.32395e-007,-1.04366e-005 -8.05634e-006,-3.64366e-005 -8.23944e-006,-2.81972e-005 -1.83099e-007,1.04366e-005 -6.77465e-006,-3.31409e-005 -6.95775e-006,-3.7169e-005l1.37324e-005 -0.000326831c0.000180718,-0.000151606 0.00033031,-0.000472394 0.000560831,-0.000567972 -6.09718e-005,-0.000561747 0.000156732,-0.00079593 -7.70845e-005,-0.00136958 -0.000710423,-0.00174347 -0.0032619,-0.00197875 -0.00437532,-0.00151752 -0.000473859,0.000196282 -0.00127675,0.000581338 -0.00143513,0.00143147 -4.94366e-005,0.000797028 5.2e-005,0.00128279 0.000362718,0.00143439 -0.000372056,0.000321704 -0.000889859,0.000549845 -0.00118447,3.3324e-005 -0.00120644,-0.00211516 0.00143989,-0.00339025 0.00243906,-0.00359917 0.00168158,-0.000351732 0.0030594,-3.57042e-005 0.00456337,0.00106801l0.000938381 0.00150416c0.00110134,0.000119197 0.00244254,-0.000432296 0.00356511,0.000411606l0.000210563 0.000173944c0.000768465,0.00064762 0.000975733,0.00134486 0.000338,0.00229606 -0.000996423,0.00148694 -0.00321411,0.000963465 -0.00433486,0.00058738l0.000184197 0.00116963c0.000752718,0.000129634 0.00210216,0.000870451 0.00247824,0.00146003 0.000717564,0.00112423 6.29859e-005,0.00204594 -0.000547282,0.00252713l-0.000622902 0.000644324c0.00246854,0.000190972 0.0024343,-0.00201573 0.00348162,-0.00482904 0.000479535,-0.0012881 0.000804535,-0.00145472 0.00118483,-0.00331207 0.000347521,-0.00169824 0.000672338,-0.00204137 0.00146387,-0.00291328 -4.57747e-006,-0.00027062 -3.27747e-005,-0.000165887 0.000165887,-0.000170648 0.00088162,-0.000972803 0.00250387,-0.00254544 0.00319196,-0.00368761 0.00017962,-0.000298085 0.000287831,-0.000499676 0.00043138,-0.000833831 0.000656592,-0.00152741 0.000531902,-0.0031449 0.00277724,-0.00193847 0.00161841,0.000869719 0.00142377,-0.000116085 0.00273165,-0.000811127 0.000917324,-0.000487775 0.00758889,-0.00382218 0.00853752,-0.00391135 0.00198241,-0.000186578 0.00153986,0.000867704 0.00298909,-9.6493e-005 0.000652747,-0.000255423 0.00307221,-0.00136225 0.0034818,0.000431747 0.000315113,0.00137965 -0.000138606,0.000657507 0.000599282,0.00173431 -1.86761e-005,0.00089224 -0.000338549,0.0011213 7.32395e-007,0.00172021 0.000208549,0.000368394 0.000454268,0.000163141 0.000730197,0.000951747 0.000646338,0.001846 -0.000227042,0.00312531 -0.000379747,0.00353069 -1.51972e-005,4.04648e-005 -6.97606e-005,0.000272451 -7.30564e-005,0.000317859 -0.000105465,0.00143494 0.00191686,0.0039921 0.000250113,0.00579745l-0.00121834 0.00117824c-0.000599831,0.000602395 -0.00106032,0.000837859 -0.00146186,0.00180572 -0.000192437,0.000463972 -0.000221916,0.000830535 -0.000396409,0.0013683 -0.000150141,0.000463423 -0.000336901,0.000921719 -0.000521648,0.00134724l-0.00109749 0.00226493c0.000303578,6.15211e-005 0.0021688,-0.000843902 0.00305592,-0.000868071l8.95352e-005 -0.000290028c0.000331592,-0.000355578 0.000833099,0.000225944 0.00120827,4.92535e-005 0.00031493,-0.000148493 -9.50282e-005,1.90423e-005 0.000258352,-0.00056138 0.000196465,-0.00032262 0.00130787,-0.00038762 0.00151972,-0.000219535 0.000198662,0.000326282 0.000364,0.000629493 0.000482465,0.00116835 0.00019262,0.000876676 7.32395e-006,0.000916226 0.000442366,0.00124324 0.000206169,-0.000754916 -0.000315662,-0.00207213 -0.000558634,-0.0025643l0.00123225 -0.00029131c-0.000342211,-0.00146259 -0.0011852,-0.00194048 -0.00209538,-0.00220616 -0.000563578,-0.000164423 -0.00258517,-0.000595986 -0.00235373,0.0012718 0.000656409,0.000257803 0.00124416,-0.00107735 0.00231492,0.000125972 -5.23662e-005,0.000515423 -0.000313465,0.00063224 -0.000643226,0.000708592 -0.000741916,0.000172113 -0.00242569,-0.000178521 -0.00247897,-0.00165521 0.000673803,-0.00124983 0.00280489,-0.000943507 0.00378135,-0.000570535 0.00238303,0.000909817 0.00209886,0.00173578 0.00269173,0.00304749 0.000500409,-0.000468916 0.000426437,-0.00104183 0.000473676,-0.00232279 0.000212761,-0.000389268 0.00212376,-0.00163361 0.00246634,-0.00166894 -1.75775e-005,0.000685704 6.57324e-005,0.00162628 -2.98451e-005,0.00221366 -0.000825958,0.000676183 -0.00155103,0.000890042 -0.00233817,0.00185589 0.000123775,0.000109676 -0.000197197,0.000453352 0.000752902,-0.000106747 0.00174878,-0.00103085 0.00609664,-0.000404465 0.00583059,0.00182183 -0.000150141,0.00125477 -0.00200932,0.000945888 -0.0026401,0.00070969 -0.000453902,-0.000169916 -0.000554056,-0.000119014 -0.000639747,-0.000801789 0.000252127,-0.000587747 0.00140492,-0.000750338 0.00176544,-4.19296e-005 7.72676e-005,0.00035631 3.03944e-005,0.000279592 -4.68733e-005,0.000677282 0.00150782,0.000284169 0.0011808,-0.00234879 -0.00209868,-0.00235447l-0.00114217 0.000359056c-1.72113e-005,1.62958e-005 -4.66902e-005,5.3831e-005 -6.90282e-005,8.33099e-005 0.00032024,0.000408859 0.000248648,5.84085e-005 0.000400437,0.000624549 -0.000342578,0.000538859 -0.00126759,0.000604592 -0.00175756,0.00078293 -0.000654578,0.000238211 -0.00114052,0.000590127 -0.00166308,0.000879789 0.000199761,0.000320789 -5.95071e-005,0.000156732 0.000252676,0.000280873 0.000918423,0.000365648 0.00271389,-0.00240701 0.00414132,-0.000526775 -0.00059031,0.000341296 -0.000410324,0.000169366 -0.000594338,0.000689366 0.000307056,0.000176507 0.000710057,0.000235282 0.000911282,0.000585916l-0.00113503 -8.47747e-005c0.000403183,0.00031969 0.00115132,0.00113631 0.00120406,0.00197582 7.92817e-005,0.00126338 -0.000797028,0.0016272 -0.00124763,0.00223069 0.00122255,0.000286366 0.00162134,0.00043962 0.00235538,0.00141572l1.08028e-005 0.000977381c-0.000558451,0.000853789 -0.0013487,0.00147083 -0.0022999,0.00137599 7.76338e-005,0.00105007 0.000123408,0.00161658 -0.000219901,0.0023378 -0.000269155,0.000565775 -0.000620338,0.00104 -0.000986352,0.00149408z"/>
 </g>
</svg>
