<?xml version="1.0" encoding="UTF-8"?>
<!DOCTYPE svg PUBLIC "-//W3C//DTD SVG 1.1//EN" "http://www.w3.org/Graphics/SVG/1.1/DTD/svg11.dtd">
<!-- Creator: CorelDRAW -->
<svg xmlns="http://www.w3.org/2000/svg" xml:space="preserve" width="25in" height="39in" style="shape-rendering:geometricPrecision; text-rendering:geometricPrecision; image-rendering:optimizeQuality; fill-rule:evenodd; clip-rule:evenodd"
viewBox="0 0 3.82706 4.06294"
 xmlns:xlink="http://www.w3.org/1999/xlink">
 <defs>
  <style type="text/css">
   <![CDATA[
    .fil0 {fill:black}
   ]]>
  </style>
 </defs>
 <g id="Layer_x0020_1">
  <metadata id="CorelCorpID_0Corel-Layer"/>
  <path class="fil0" d="M3.62374 3.73448c-0.00416958,-0.0129246 -0.0118902,-0.029187 -0.0231513,-0.0487979 -0.0133405,-0.0233539 -0.0256466,-0.0394137 -0.0369077,-0.0481688l-0.0281526 0.0975958c0.0145989,0.000415891 0.0291977,0.000629169 0.0437966,0.000629169 0.0104186,0 0.0205386,-0.000213278 0.0303387,-0.000629169 0.00980011,-0.000415891 0.0144922,-0.000629169 0.0140763,-0.000629169zm-0.741001 -0.369184c-0.019035,0.00769932 -0.0389232,0.016625 -0.05863,0.0233539 0.0425489,0.0449696 0.0914001,0.0887662 0.146575,0.131368 0.0062597,0.00500136 0.0248149,0.0168916 0.0556868,0.03566 0.000831783,-0.000415891 0.00124767,-0.00146095 0.00124767,-0.00312452 0,-0.0104293 -0.00312452,-0.0317037 -0.00938422,-0.0638233 -0.00500136,-0.0233539 -0.0112611,-0.0481688 -0.0187684,-0.0744446 0.00125834,0 0.00479875,-0.00156759 0.0106319,-0.00469211 0.00584381,-0.00312452 0.00876571,-0.00552389 0.00876571,-0.00719812 0,-0.000831783 -0.00354041,-0.00260199 -0.0106426,-0.00531061 -0.00709148,-0.00271929 -0.0108452,-0.005108 -0.0112504,-0.00719812 -0.00125834,-0.00667559 -0.00313518,-0.0164757 -0.00563053,-0.029411 0,-0.000831783 -0.000949086,-0.00291124 -0.00282593,-0.00624903 -0.00187684,-0.0033378 -0.00260199,-0.00584381 -0.0021861,-0.00751804 0.000831783,-0.00332713 0.00125834,-0.0068782 0.00125834,-0.0106319 0,-0.00667559 -0.00178087,-0.0166783 -0.00532128,-0.0300295 -0.000106639,-0.000405228 -0.000234605,-0.000810455 -0.000341244,-0.00120502 -0.0121568,0.0243776 -0.0505788,0.0377501 -0.0991848,0.0604535zm-0.142928 0.0270543c-0.0125194,-0.0057585 -0.0240471,-0.0156119 -0.0341138,-0.0310639 -0.0347536,-0.0771639 -0.0635141,-0.145786 -0.113837,-0.210868 -0.0494271,-0.10874 -0.101627,-0.216999 -0.157282,-0.322988 -0.0667239,-0.0735168 -0.19837,0.0322369 -0.256392,0.0630342 -0.0892993,0.0393711 -0.185253,0.0771958 -0.26953,0.126271 -0.0437113,0.0379208 -0.1118,0.0746472 -0.170579,0.0766733 -0.165791,0.0629809 -0.330964,0.128734 -0.496638,0.192238 0.00140763,0.000106639 0.00269796,0.000159958 0.00391364,0.000159958 0.0120928,0 0.0214771,-0.00229273 0.0281526,-0.00688887 0.0308719,0.08176 0.0617225,0.163509 0.0925945,0.245259 0.0247082,0.067801 0.044639,0.128382 0.0597711,0.181745 0.00475609,-0.00294323 0.00987475,-0.00603576 0.0153986,-0.00923492 0.0170942,-0.00959749 0.0260625,-0.0154306 0.026905,-0.0175208 -0.014183,-0.0221062 -0.0283659,-0.0442125 -0.0425489,-0.0663187 -0.0158465,-0.0262758 -0.0237698,-0.0494164 -0.0237698,-0.0694432 0,-0.0341991 0.0216797,-0.0663187 0.065071,-0.0963482 0.0337832,-0.0241963 0.080491,-0.0525516 0.140134,-0.0850871 0.0062597,-0.00250601 0.0150147,-0.0062597 0.0262758,-0.0112611 0.039627,-0.0191843 0.0790407,-0.0385713 0.118241,-0.0581821 0.0575636,-0.0283659 0.0986516,-0.0465052 0.123253,-0.0544285 0.014183,-0.00458547 0.0202294,-0.00688887 0.0181393,-0.00688887 0.00209012,0 0.00563053,0.00125834 0.0106426,0.00375369 -0.0143856,0.00667559 -0.0348176,0.0251668 -0.061296,0.0554522 0.00796592,-0.0010024 0.0159212,-0.00151427 0.0238871,-0.00151427 0.0341991,0 0.0659028,0.00500136 0.0950898,0.0150147 0.00542792,0.00167423 0.0291977,0.0137671 0.0713307,0.0362892 0.00124767,0 0.00354041,-0.000629169 0.0068782,-0.00187684 0.0033378,-0.00125834 0.00563053,-0.00187684 0.0068782,-0.00187684 0.000341244,0 0.00544924,0.00313518 0.0153027,0.00939488 -0.000479875,-0.000842447 -0.000981077,-0.00170622 -0.00149294,-0.00255933 -0.0104293,-0.017734 -0.0156333,-0.0265957 -0.0156333,-0.0265957 0,-0.0226288 0.00958683,-0.0339858 0.0287712,-0.0339858 0.00124767,0 0.0104293,0 0.0275235,0 0.0171049,0 0.0262865,0 0.0275341,0l0.295923 -0.029411 0.135133 -0.00375369c0.0346256,0 0.0556868,0.000831783 0.0631942,0.00250601 0.00250601,0.000415891 0.00855243,0.00343377 0.0181499,0.00907496 0.00958683,0.00563053 0.016465,0.010312 0.0206346,0.0140657 0.00750737,0.00709148 0.0112611,0.0231513 0.0112611,0.0481794 0,0 -0.000618505,0.00886169 -0.00187684,0.0265851 -0.00124767,0.017734 -0.00187684,0.0309786 -0.00187684,0.0397336 -0.0145989,0.00541725 -0.0308613,0.0185552 -0.0487979,0.0394137 -0.0137671,0.0175208 -0.0275235,0.0350309 -0.0412906,0.0525516 -0.00416958,0.00250601 -0.00980011,0.00584381 -0.0168916,0.0100134 -0.00917094,0.00792326 -0.0241963,0.0250281 -0.0450442,0.0512933 0.0196002,0.00709148 0.0367051,0.0112717 0.0512933,0.0125194 0.00418024,0.000415891 0.019195,0.000629169 0.0450549,0.000629169l0.134941 -0.00651563c-0.00190883,-0.010312 -0.00451082,-0.0214237 -0.00774198,-0.0333246 -0.00875505,-0.0321196 -0.0185552,-0.0552709 -0.0294003,-0.0694539 -0.00167423,-0.000405228 -0.00416958,-0.000618505 -0.00750737,-0.000618505l0 -0.0062597c0,-0.00500136 0.00167423,-0.0114743 0.00500136,-0.0193869 0.00209012,-0.00584381 0.00636634,-0.0111651 0.0128287,-0.0159532 0.00506534,-0.00375369 0.0112077,-0.00784862 0.0184379,-0.0122421zm-1.62087 -0.0749778c-0.0490752,0.0124981 -0.0952071,0.0319916 -0.147567,0.0468678 -0.0257959,0.0018022 -0.0511333,0.00588646 -0.0762574,0.0109945 0.0333033,0.0770999 0.0721198,0.182363 0.116482,0.315779 0.0100134,0.00125834 0.0201227,-0.000213278 0.0303387,-0.00437219 0.010216,-0.00418024 0.0182566,-0.0091816 0.0240897,-0.0150147 0.016689,-0.0158572 0.0250281,-0.0273209 0.0250281,-0.0344123 0,-0.00124767 -0.00156759,-0.00678223 -0.00469211,-0.0165823 -0.00313518,-0.00980011 -0.005108,-0.0165823 -0.00593978,-0.020336 -0.00167423,-0.00833916 -0.00302854,-0.0263718 -0.0040736,-0.0541192 -0.0010344,-0.0277261 -0.00343377,-0.0513999 -0.00718746,-0.0710108l0.0200161 0c0.00500136,0.0129353 0.0154306,0.0223195 0.0312772,0.0281633 0.0133512,0.00458547 0.0264891,0.00896832 0.0394137,0.0131379 0.014183,0.00709148 0.0365025,0.0291977 0.0669479,0.0663187 0.01285,0.0156333 0.0239937,0.0281313 0.0334419,0.0374516 -0.00488406,-0.0106212 -0.0119435,-0.0259772 -0.0211571,-0.0460147 -0.0116876,-0.0271076 -0.0287925,-0.0656895 -0.0513039,-0.115746 -0.00418024,-0.00833916 -0.0106426,-0.0212638 -0.0193976,-0.0387845 -0.00584381,-0.0125087 -0.0139803,-0.0298269 -0.024399,-0.0519331 -0.00542792,-0.0104186 -0.0111651,-0.0211571 -0.0172008,-0.0322156 -0.00386033,-0.00703816 -0.00646231,-0.0130739 -0.00785928,-0.0181713zm-0.358829 0.0881476c-0.0199628,0.00376435 -0.0400749,0.00677157 -0.0604322,0.00836048 0.0148868,0.0326421 0.0335592,0.0700404 0.0560707,0.112173 0.0596431,0.110947 0.0936289,0.177468 0.101979,0.199575 0.00541725,0.00667559 0.0131379,0.0168916 0.0231513,0.0306587 0.00540659,0.00811521 0.0100667,0.0156333 0.013959,0.0225861 -0.00155693,-0.0130633 -0.00413759,-0.0302428 -0.00774198,-0.0515705 -0.00792326,-0.0296136 -0.0260625,-0.0811202 -0.0544285,-0.15453 -0.0251454,-0.0662547 -0.0493098,-0.122005 -0.0725571,-0.167252zm-0.216413 0.00859509c-0.00214344,-0.00013863 -0.00404161,-0.00033058 -0.00557721,-0.000597177 -0.143898,0.0119649 -0.320322,-0.0616799 -0.395737,-0.188783 -0.0448736,-0.101797 -0.0644738,-0.151331 -0.0471557,-0.262641 -0.00950152,-0.11292 0.0413972,-0.236045 0.0665426,-0.344827 0.0301681,-0.055079 0.0326848,-0.132264 0.0550363,-0.189849 0.00505468,-0.066372 0.0411519,-0.136743 0.0557828,-0.205098 0.0325995,-0.0546524 0.0175527,-0.141232 0.0501522,-0.195896 0.0261052,-0.0845966 0.0539592,-0.173693 0.0649644,-0.262086 0.0300828,-0.0468251 0.0445324,-0.149412 0.0584061,-0.202507 0.0149188,-0.118465 0.0768013,-0.228527 0.0928717,-0.346011 0.0257106,-0.0888941 0.0458867,-0.183557 0.0670865,-0.274211 0.00311385,-0.0640259 0.012914,-0.0772918 -0.0173715,-0.13927 -0.0464519,-0.0630662 -0.27499,-0.227845 -0.315822,-0.0852897 -0.0181926,0.0348602 -0.022842,0.0615306 -0.0305094,0.0999632 -0.00102373,0.0146202 -0.00175954,0.0298589 -0.0081792,0.0423889 -0.064943,0.0286325 -0.257469,0.0351801 -0.21894,-0.0787634 0.0053426,-0.116471 0.0492565,-0.221606 0.0865054,-0.328288 0.00375369,-0.0016529 0.0634181,-0.160705 0.0705416,-0.181745 0.0789021,-0.101904 0.209215,-0.293609 0.361932,-0.266949 0.224677,-0.026681 0.421863,0.0974679 0.603064,0.21749 0.0584807,0.0227034 0.105157,0.0558254 0.168873,0.065039 0.0551429,0.0286325 0.128308,0.0321836 0.188015,0.0424209 0.05124,0.0147162 0.0933623,0.0155373 0.143237,0.00175954 0.124053,-0.00620638 0.235299,-0.0567319 0.328202,-0.138705 0.0543218,-0.0239511 0.0404801,0.0850765 0.0403628,0.106767 0.0214237,0.106159 0.0112931,0.157623 -0.0749244,0.227695 -0.0597071,0.0844899 -0.150574,0.155874 -0.230734,0.221052 -0.035724,0.0560174 -0.0967321,0.0918587 -0.137447,0.143376 -0.0171155,0.0440845 0.0532448,0.105562 0.076652,0.133288 0.0362465,0.0653056 0.102011,0.114637 0.153187,0.168148 0.0284939,0.0426449 0.0698484,0.0721518 0.09959,0.114242 0.0619465,0.04578 0.112621,0.109966 0.176359,0.15645 0.0434233,0.0561987 0.110766,0.085439 0.155629,0.143227 0.0684728,0.0436579 0.126463,0.114317 0.194861,0.1595 0.0629916,0.0244416 0.22119,-0.0870599 0.271438,-0.115181 0.0258493,-0.0158572 0.04594,-0.0396483 0.0700404,-0.0577236 0.110574,-0.0621598 0.214824,-0.157346 0.276685,-0.267408 0.0173075,-0.041941 0.0173075,-0.041941 0.0205813,-0.0463666 -0.0127647,-0.0644845 -0.0457481,-0.0902164 -0.103162,-0.122347 -0.0912722,-0.0649324 0.0468358,-0.108654 0.0883503,-0.158273 0.0341458,-0.0105892 0.0643459,-0.0097148 0.0994514,-0.00283659 0.0935862,0.0363318 0.198295,0.0386566 0.289823,0.0855777 0.0220103,0.00595045 0.106351,0.0500669 0.107609,0.0495231 0.0107385,0.024367 0.115703,0.0780276 0.141275,0.0988435 0.0256893,0.0311812 0.0587367,0.0553989 0.0799685,0.0900565 0.0288991,0.0655615 0.0723438,0.184389 0.0490539,0.25508 -0.0297842,0.198092 -0.166346,0.373918 -0.307461,0.517412 -0.0668199,0.0480941 -0.113314,0.118572 -0.1746,0.172435 -0.0326741,0.0561667 -0.0885849,0.100209 -0.124384,0.157761 -0.0473903,0.044767 -0.09943,0.109465 -0.125876,0.169598 -0.0393711,0.0494378 -0.0691979,0.1036 -0.0945993,0.161035 -0.0742526,0.100603 -0.128052,0.384625 -0.0258173,0.469339 0.0121995,0.0174568 0.0201547,0.0320236 0.0244629,0.0444257 0.00130099,-0.00149294 0.00285792,-0.00297522 0.00463879,-0.00441485 0.00647298,-0.00521464 0.0124128,-0.00781663 0.01783,-0.00781663 -0.00416958,0 0.00209012,-0.000629169 0.0187791,-0.00187684 0.011677,-0.000842447 0.0181393,-0.000213278 0.0193976,0.00187684 0.020432,0.0462919 0.0446177,0.106564 0.0725677,0.180806 0.017926,0.0512933 0.045876,0.127839 0.0838288,0.229604 0.00167423,0.00375369 0.00605709,0.0125087 0.0131379,0.0262758 0.00584381,0.0121035 0.00876571,0.0189817 0.00876571,0.0206453 0,0.0108452 -0.00730476,0.0237805 -0.0219036,0.0387952 -0.0129246,0.0133512 -0.022938,0.0208479 -0.0300295,0.0225221 -0.0100134,0.00250601 -0.0252307,0.00375369 -0.0456627,0.00375369 -0.0033378,0 -0.00564119,-0.000202614 -0.00688887,-0.000629169 -0.017926,-0.0150147 -0.0471237,-0.0379528 -0.0875825,-0.068814 -0.0488086,-0.0375475 -0.0963482,-0.0736234 -0.142651,-0.108238 -0.00166357,0.0104293 -0.00250601,0.0223195 -0.00250601,0.03566l0.0206559 0.188943c0,0.00458547 -0.00584381,0.0154306 -0.0175208,0.0325248 0,0 -0.00313518,0.00751804 -0.00938422,0.0225328 -0.00166357,-0.00124767 -0.00416958,-0.0033378 -0.00750737,-0.0062597 -0.0029219,0.0029219 -0.0068782,0.00438286 -0.0118902,0.00438286 -0.00124767,0 -0.00447883,0 -0.00969347,0 -0.00521464,0 -0.00844579,0 -0.00970413,0 -0.00124767,0 -0.0039563,0.000309253 -0.00813654,0.000938422 -0.00415891,0.000618505 -0.0068782,0.000938422 -0.00812588,0.000938422 -0.00833916,0 -0.0175208,-0.00344443 -0.0275235,-0.0103226 -0.0100134,-0.0068782 -0.0162731,-0.0144922 -0.0187684,-0.022842 -0.00416958,-0.0145989 -0.00710215,-0.0379528 -0.00876571,-0.0700617 -0.0029219,-0.0446283 -0.00458547,-0.0696565 -0.00500136,-0.0750737 0.00124767,-0.0129353 0.00166357,-0.0267024 0.00124767,-0.0413012l-0.00762468 -0.0470064c-0.00885102,0.00300721 -0.0186938,0.00629169 -0.0294856,0.00989608 -0.00584381,0.00207946 -0.0143962,0.00698484 -0.0256573,0.0147055 -0.0112504,0.00770999 -0.0220956,0.0134472 -0.0325248,0.0172008 -0.0275235,0.0104186 -0.0784115,0.015228 -0.152664,0.0143856l-0.090707 0 -0.00125834 0.00125834c-0.000415891,0.0150041 -0.000202614,0.025444 0.000629169,0.0312772 0.00250601,0.0125194 0.00563053,0.0306587 0.00938422,0.0544285 0.00124767,0.0100134 0.00104506,0.0210612 -0.000629169,0.0331647 0.000842447,0.00124767 0.00209012,0.00291124 0.00375369,0.00500136 0.0033378,0.011677 0.00833916,0.0289844 0.0150254,0.0519331 -0.00125834,0 -0.00187684,0.0010344 -0.00187684,0.00312452 0,0.00541725 0.00698484,0.0300295 0.0209545,0.0738261 0.0139697,0.0437859 0.0209545,0.0706909 0.0209545,0.0807043 0,0.0029219 -0.000415891,0.00479875 -0.00124767,0.00563053 -0.00416958,0.000415891 -0.022938,-0.0110478 -0.0563053,-0.0344123 -0.016689,-0.011677 -0.0392111,-0.045876 -0.0675664,-0.102608 -0.0179366,-0.0362785 -0.0358733,-0.072781 -0.0538099,-0.109475 -0.0233539,-0.0400429 -0.0435833,-0.0830077 -0.0606882,-0.128884 -0.0120928,-0.0367051 -0.0241857,-0.0734102 -0.0362892,-0.110115 -0.0183525,-0.0529675 -0.037121,-0.0980117 -0.0563053,-0.135133l-0.041973 0c0.0116983,0.0109945 0.0227567,0.023066 0.0331753,0.0362252 0.0212744,0.0267024 0.037121,0.0538099 0.0475503,0.0813334 0.0062597,0.0175208 0.0137671,0.0415038 0.0225221,0.0719492 0.0112611,0.0412906 0.0168916,0.070275 0.0168916,0.086964 0,0.0175208 -0.00813654,0.0481688 -0.024399,0.0919653 -0.0179366,0.0487979 -0.0511013,0.0917627 -0.0994727,0.128884 -0.00375369,0.00291124 -0.0133512,0.00646231 -0.0287818,0.0106319 -0.00750737,0.0029219 -0.0187684,0.00667559 -0.0337832,0.0112611 -0.02795,0.00501202 -0.0454601,0.00750737 -0.0525516,0.00750737 -0.00750737,0 -0.0185658,-0.00187684 -0.0331647,-0.00563053 -0.0158465,-0.00375369 -0.0271076,-0.00770999 -0.0337832,-0.0118902 -0.00708082,-0.00207946 -0.0164757,-0.00541725 -0.0281526,-0.0100027 -0.0179366,-0.00834982 -0.0352441,-0.0206453 -0.0519224,-0.0369184 -0.0354574,-0.034615 -0.060059,-0.0711068 -0.0738261,-0.109475 -0.0108452,-0.0300402 -0.0162624,-0.0657002 -0.0162624,-0.106991 0,-0.0156759 0.000959749,-0.0312985 0.00284726,-0.0468998 -0.000159958,0.000159958 -0.000319916,0.000319916 -0.000479875,0.000479875 -0.00751804,0.00541725 -0.0181499,0.0131379 -0.0319063,0.0231513 -0.0487979,0.0396163 -0.0813334,0.0694432 -0.0976065,0.0894593 0.00542792,0.0158465 0.0104293,0.02795 0.0150254,0.0362892 0.00583314,0.0112611 0.0173075,0.0302428 0.0344017,0.0569345 0.0145989,0.022938 0.0219036,0.0350309 0.0219036,0.0362785 0,0.00418024 -0.00125834,0.00751804 -0.00375369,0.0100134 -0.00750737,0.00750737 -0.0133512,0.0112611 -0.0175208,0.0112611 -0.0137671,-0.000415891 -0.0279394,0.000309253 -0.0425382,0.0021861 -0.0145989,0.00188751 -0.0239831,0.00282593 -0.0281633,0.00282593 -0.0154306,0 -0.0260625,-0.00271929 -0.0319063,-0.00813654 -0.00416958,-0.00375369 -0.0106319,-0.0143962 -0.0193869,-0.0319063 -0.0121035,-0.0229487 -0.0239831,-0.0408747 -0.0356707,-0.0538099 -0.043594,0.0192163 -0.0755643,0.0299229 -0.095911,0.0321089 -0.000170622,0.00019195 -0.000351908,0.000394564 -0.00052253,0.000586514 0.00833916,0.00876571 0.0135538,0.0173075 0.0156333,0.0256573 0.000842447,0.0033378 0.00125834,0.0108452 0.00125834,0.0225221 0,0.000831783 -0.000415891,0.00479875 -0.00125834,0.0118902 -0.000831783,0.00833916 -0.00124767,0.0141723 -0.00124767,0.0175101 -0.0062597,0.00167423 -0.00833916,0.00772065 -0.0062597,0.0181499 -0.00666493,-0.00416958 -0.0139697,-0.0129353 -0.0218929,-0.0262758 -0.0112611,-0.0183525 -0.0175208,-0.0283659 -0.0187684,-0.0300402 -0.0179366,-0.0216797 -0.04337,-0.0548337 -0.0763214,-0.0994727 -0.0107172,-0.0166996 -0.0214237,-0.0350095 -0.0321409,-0.0549936 -0.000650497,0.00116236 -0.00133299,0.00231406 -0.0020368,0.00349775 -0.00792326,0.0133405 -0.016689,0.0231406 -0.0262758,0.0294003 -0.00501202,0.00124767 -0.0129353,0.0033378 -0.0237805,0.0062597 -0.020432,0.00708082 -0.0373236,0.0150147 -0.0506748,0.0237698 -0.0366944,0.0275341 -0.0736128,0.0548443 -0.110734,0.0819626 -0.0454708,0.0321089 -0.0817493,0.0481688 -0.108868,0.0481688 -0.0267983,0 -0.0464412,-0.0136604 -0.0590033,-0.040928 -0.000703816,0.00285792 -0.00168489,0.00593978 -0.00288991,0.00922426 -0.00375369,0.00917094 -0.00793393,0.0145989 -0.0125194,0.0162731l-0.060059 0c-0.0108452,0 -0.0185552,-0.00209012 -0.0231513,-0.0062597 -0.0120928,-0.0108452 -0.0250281,-0.025444 -0.0387845,-0.0437966 -0.011677,-0.0158465 -0.0235672,-0.0316931 -0.03566,-0.0475503 -0.0150147,0.0062597 -0.0354574,0.00959749 -0.0613173,0.0100134 -0.0312772,0.000415891 -0.0510907,0.00146095 -0.0594298,0.00312452 -0.0208586,0.00375369 -0.037121,0.0133512 -0.0487979,0.0287818 -0.0033378,0.0112611 -0.00896832,0.0279394 -0.0169023,0.0500456 -0.0112504,0.0241963 -0.0341991,0.0609014 -0.068814,0.110115 -0.00667559,0.0104293 -0.014183,0.0216903 -0.0225221,0.0337832 -0.00666493,0.00584381 -0.0131379,0.0114743 -0.0193869,0.0168916 -0.0100134,0.00833916 -0.0187791,0.0125087 -0.0262865,0.0125087 -0.0216903,0 -0.0325248,0 -0.0325248,0l0.0231406 -0.0650603c0,-0.00124767 0.000842447,-0.0029219 0.00250601,-0.00500136 0.00166357,-0.00209012 0.00249535,-0.00355107 0.00249535,-0.00438286 0.00459613,-0.0350415 0.0110584,-0.0675664 0.0193976,-0.0975958 0.00666493,-0.0181819 0.0148974,-0.0418771 0.0246976,-0.0710428 -0.0227141,0.0130952 -0.0468038,0.0249002 -0.0722265,0.0353828 -0.0266917,0.0108452 -0.0473476,0.0177234 -0.0619358,0.0206346 -0.0229487,0.00459613 -0.0471344,0.00688887 -0.0725784,0.00688887 -0.0462919,0 -0.0884249,-0.00855243 -0.126378,-0.0256466 -0.00709148,-0.00501202 -0.0175208,-0.0125194 -0.0312772,-0.0225328 -0.0158572,-0.0104186 -0.0317037,-0.0254334 -0.0475503,-0.0450442 -0.0158465,-0.0196002 -0.026905,-0.0381554 -0.0331647,-0.0556761 -0.00415891,-0.0112611 -0.00624903,-0.0256466 -0.00624903,-0.0431674 0,-0.0725784 0.0510907,-0.136594 0.153283,-0.192078 -0.0121035,-0.0108452 -0.0225328,-0.022938 -0.0312878,-0.0362785 -0.0104293,-0.0158572 -0.0156439,-0.0294003 -0.0156439,-0.040672 0,-0.00750737 0.00167423,-0.0145989 0.00501202,-0.0212638 0.00416958,-0.00875505 0.00980011,-0.0131379 0.0168916,-0.0131379 0.00541725,0 0.0142789,0.00229273 0.0265851,0.0068782 0.0123061,0.00458547 0.0211678,0.0068782 0.0265851,0.0068782 0.00125834,0 0.0034551,-0.000202614 0.00657962,-0.000618505 0.00312452,-0.000415891 0.00552389,-0.000629169 0.00718746,-0.000629169 0.0125194,0 0.0289951,0.00375369 0.0494271,0.0112611 0.0029219,0.00124767 0.020432,0.0114637 0.0525516,0.0306587 0.0421223,0.0246016 0.088009,0.045876 0.137639,0.0638127 0.00834982,0.00207946 0.0168916,0.00458547 0.0256466,0.00750737 0.00876571,0.0029219 0.0131486,0.00855243 0.0131486,0.0168916 0,0.0137671 -0.00313518,0.0262758 -0.00938422,0.0375369 -0.00458547,0.00917094 -0.0135538,0.0160598 -0.026905,0.0206453 -0.0104293,0.00416958 -0.0208586,0.0062597 -0.0312772,0.0062597l-0.0957297 -0.0125087c-0.0237698,0 -0.0554735,0.0100027 -0.0950898,0.0300295 -0.0425489,0.0212638 -0.0671505,0.0423356 -0.0738261,0.0631835 -0.00541725,0.0158465 -0.00813654,0.0225221 -0.00813654,0.0200161 0,0.000842447 0.00198348,0.00479875 0.00595045,0.0118902 0.0039563,0.00709148 0.00655829,0.0123061 0.00781663,0.0156439 0.00583314,0.0162624 0.0208586,0.0321089 0.0450442,0.0475503 0.0216903,0.0137564 0.0389978,0.0206453 0.0519224,0.0206453 0.0179366,0 0.0369184,-0.0033378 0.0569451,-0.0100134 0.0246016,-0.00792326 0.044831,-0.015228 0.0606775,-0.0218929 0.0263185,-0.011485 0.0677796,-0.029219 0.124384,-0.0532234 0.00463879,-0.018054 0.00967214,-0.038486 0.0151214,-0.0612747 0.0104293,-0.0450442 0.0156439,-0.0690273 0.0156439,-0.0719385l0 -0.0475503c0,-0.014183 -0.000213278,-0.0187791 -0.000629169,-0.0137671 0.000415891,-0.0029219 0.00354041,-0.0118902 0.00938422,-0.026905 0.00124767,-0.00375369 0.00478808,-0.0072941 0.0106319,-0.0106319 0.00459613,-0.00209012 0.00896832,-0.00418024 0.0131379,-0.0062597 -0.00139697,-0.00399896 -0.00325248,-0.00900032 -0.00558787,-0.0149614zm-0.049907 -0.122272c-0.00469211,-0.0156013 -0.00705949,-0.0295176 -0.00705949,-0.0416958 0,-0.014183 -0.000213278,-0.0200268 -0.000629169,-0.0175208 0.000415891,-0.00250601 0.00354041,-0.0112611 0.00938422,-0.0262758 0.00209012,-0.00500136 0.00958683,-0.0109411 0.0225221,-0.01783 0.0129246,-0.0068782 0.0218929,-0.0103226 0.0268943,-0.0103226 0.0208586,0 0.0417171,0.00542792 0.062565,0.0162624 0.0233646,0.0121035 0.0373343,0.0264891 0.0419197,0.0431674 0.00135431,0.0125301 0.00409493,0.030712 0.00820053,0.0545031 0.00666493,0.000394564 0.0132765,0.000703816 0.0199095,0.0010344 0.0124341,-0.00161025 0.0247722,-0.00328448 0.0370037,-0.00505468 0.000490539,-0.00900032 0.00336979,-0.0165503 0.0086804,-0.0225221 0.00166357,0.00709148 0.00541725,0.0106319 0.0112611,0.0106319 0.00124767,0 0.00563053,-0.00146095 0.0131379,-0.00437219 0.00750737,-0.0029219 0.0118902,-0.00438286 0.0131379,-0.00438286 0.00416958,0 0.00792326,0.00354041 0.0112611,0.0106319 0.0108452,-0.00584381 0.0223195,-0.00875505 0.0344123,-0.00875505 0.0044575,0 0.00928824,0.00033058 0.0144496,0.000959749 0.126314,-0.0242177 0.246186,-0.0585554 0.373247,-0.106394 0.250057,-0.0587687 0.487371,-0.182032 0.72219,-0.285547 0.122901,-0.0578942 0.246624,-0.113933 0.363862,-0.181286 0.174088,-0.16175 0.248138,0.100976 0.335411,0.204224 0.0449056,0.0883609 0.0796699,0.190862 0.149156,0.26392 0.0096828,-0.0169449 0.014183,-0.109923 0.0142576,-0.130099 0.0125621,-0.0510267 0.00554522,-0.114317 0.0295283,-0.161441 0.0213278,-0.0869746 0.06891,-0.236237 0.137628,-0.298599 0.0264464,-0.0601336 0.0641113,-0.118518 0.107439,-0.167434 0.0395523,-0.0845752 0.144986,-0.141488 0.186255,-0.223824 0.0654229,-0.0698698 0.13493,-0.135549 0.196269,-0.209577 0.0359906,-0.0300402 0.0881157,-0.0776331 0.107577,-0.119777 0.0652523,-0.0854497 0.171251,-0.235853 0.14569,-0.351386 -0.0157825,-0.0527009 -0.038166,-0.101776 -0.0645485,-0.149796 -0.0473476,-0.0634181 -0.126655,-0.0978305 -0.19195,-0.13766 -0.056284,-0.0177127 -0.249194,-0.135538 -0.264997,-0.0241537 0.00801924,0.0807576 0.0263824,0.124117 -0.0250495,0.195266 -0.0252307,0.0476676 -0.0665959,0.112888 -0.104751,0.149849 -0.0603469,0.040768 -0.108868,0.0897686 -0.170174,0.13171 -0.0433487,0.0556441 -0.116108,0.0817493 -0.171134,0.126143 -0.0740287,0.0520291 -0.159596,0.0897366 -0.242027,0.126079 -0.0473263,-0.0007678 -0.0462919,-0.00346576 -0.0808109,-0.0411946 -0.0660414,-0.0499496 -0.161835,-0.172563 -0.248671,-0.171582 -0.0496937,0.0226394 -0.208756,0.0577129 -0.17187,0.141403 0.0523703,0.0731222 0.139825,0.115874 0.190958,0.189561 -0.039691,0.0622344 -0.114232,0.0995793 -0.18023,0.13091 -0.144261,0.0635781 -0.288597,0.128681 -0.433881,0.188271 -0.172915,0.0493631 -0.342033,0.127636 -0.523863,0.127999 -0.105189,0.0202507 -0.200374,0.0107385 -0.294856,-0.0512826 -0.0514106,-0.067577 -0.0810348,-0.124639 -0.0862388,-0.212595 0.00634501,-0.0363638 0.011517,-0.117697 0.0307333,-0.148548 0.0254334,-0.0895233 0.0204853,-0.17686 0.0772172,-0.256306 0.148772,-0.0685688 0.310191,-0.12031 0.46181,-0.184155 0.120043,-0.0559321 0.198657,-0.0890861 0.282422,-0.127487 0.0774518,-0.0155053 0.0910802,0.0374089 0.152366,0.0715546 0.0627143,0.0491818 0.135218,0.154466 0.229977,0.122379 0.0666279,-0.0316077 0.214088,-0.0980971 0.100113,-0.173896 -0.086708,-0.0833489 -0.18119,-0.164032 -0.259228,-0.256434 -0.0330474,-0.024207 -0.0516025,-0.0510907 -0.0768546,-0.0847139 -0.0783475,-0.0609441 -0.134376,-0.159308 -0.194776,-0.237101 -0.0522637,-0.0880943 0.0497044,-0.142747 0.0995153,-0.205717 0.0438286,-0.0342524 0.0797765,-0.0761934 0.124501,-0.110083 0.0206879,-0.0292404 0.0373556,-0.0455454 0.066244,-0.0679929 0.0234392,-0.0229913 0.0377395,-0.0531595 0.0588113,-0.0781129 -0.0143856,-0.056316 -0.0875078,-0.0293043 -0.126975,-0.0156333 -0.100774,0.00488406 -0.198753,-0.0227781 -0.297106,-0.0361079 -0.0386992,-0.0150147 -0.0802564,-0.0213171 -0.117473,-0.0414505 -0.0572864,-0.00981077 -0.109763,-0.0493311 -0.164864,-0.0660627 -0.103365,-0.0551323 -0.199468,-0.146276 -0.315811,-0.173309 -0.131678,-0.070243 -0.252723,-0.0250815 -0.37394,0.0484887 -0.0432207,0.040672 -0.0740073,0.0892993 -0.107833,0.137777 -0.010152,0.039531 -0.129907,0.221361 -0.0232259,0.207892 0.0552816,-0.0184165 0.141627,-0.0154413 0.194264,0.0143109 0.0946953,0.0320876 0.170238,0.10024 0.242177,0.166975 0.0890861,0.0345723 0.0435193,0.154605 0.0406187,0.220774 -0.0172435,0.0911442 -0.0706482,0.222086 -0.0685688,0.311428 -0.0101307,0.0260839 -0.0151214,0.05365 -0.0276088,0.0778037 -0.00792326,0.0497257 -0.0265851,0.100464 -0.0338792,0.149924 -0.02795,0.0600696 -0.0397443,0.133139 -0.0593552,0.196962 -0.00663293,0.061104 -0.03839,0.117633 -0.0477209,0.177682 -0.0659988,0.258066 -0.15083,0.51401 -0.209204,0.77246 -0.00659028,0.0849272 -0.0542258,0.166335 -0.0612853,0.255219 -0.0366304,0.106404 0.00910696,0.266 0.08947,0.341713 0.0468358,0.0285792 0.115671,0.0501736 0.184005,0.0596004zm0.212531 0.404374c-0.00416958,-0.0129246 -0.0118902,-0.029187 -0.0231513,-0.0487979 -0.0133512,-0.0233539 -0.0256466,-0.0394137 -0.0369077,-0.0481688l-0.0281526 0.0975958c0.0145989,0.000415891 0.0291977,0.000629169 0.0437966,0.000629169 0.0104186,0 0.0205386,-0.000213278 0.0303387,-0.000629169 0.00980011,-0.000415891 0.0144922,-0.000629169 0.0140763,-0.000629169zm1.12493 -0.392911c-0.00151427,0.0018022 -0.00306053,0.00362572 -0.00459613,0.00548124 -0.0137671,0.016689 -0.0298269,0.029411 -0.0481794,0.038166 -0.000415891,0.00166357 -0.00104506,0.0033378 -0.00187684,0.00501202 -0.00458547,0.00124767 -0.00792326,0.00312452 -0.0100134,0.00561987 0.000426555,0.00167423 0.000629169,0.00313518 0.000629169,0.00438286 0,0.00375369 -0.00416958,0.00813654 -0.0125087,0.0131379 -0.00834982,0.00501202 -0.0133512,0.00896832 -0.0150147,0.0118902 0,0.000831783 0.00187684,0.0033378 0.00563053,0.00750737 -0.00875505,0.0120928 -0.0223195,0.0235672 -0.040672,0.0344123 -0.0162624,0.00958683 -0.0325355,0.0189817 -0.0487979,0.0281526 -0.0196002,0.011677 -0.0360759,0.0223088 -0.0494164,0.0319063 -0.00375369,0.0029219 -0.0112611,0.00980011 -0.0225328,0.0206453 -0.0129246,0.0129246 -0.0193869,0.0210612 -0.0193869,0.024399 0,-0.0033378 0.00166357,0.00209012 0.00500136,0.0162624 0.000831783,0.00542792 0.00229273,0.0123061 0.00437219,0.0206559 0.00209012,0.00833916 0.00563053,0.0175101 0.0106426,0.0275235 0.0062597,0.0125087 0.0112611,0.0187684 0.0150147,0.0187684 0.00125834,0 0.00855243,-0.0033378 0.0218929,-0.0100134 0.0171049,-0.00792326 0.0275341,-0.012722 0.0312878,-0.0143856 0.0237698,-0.00833916 0.0573504,-0.0208586 0.10072,-0.0375369 0.00488406,-0.00234605 0.0108985,-0.00519331 0.0180433,-0.0085631 0.00189817,-0.00837115 0.00405228,-0.0167423 0.0064943,-0.0250921 0.0137671,-0.0458867 0.0337832,-0.0807149 0.060059,-0.104485 0.00207946,-0.00167423 0.0139697,-0.00563053 0.03566,-0.0118902 0.0246122,-0.00667559 0.0406614,-0.0100134 0.0481688,-0.0100134 -0.00166357,0 0.00438286,0.000842447 0.0181499,0.00250601 0.00584381,0.00959749 0.0179366,0.0200268 0.0362892,0.0312878 0.0137671,0.00875505 0.0206453,0.0187684 0.0206453,0.0300295 0,0.00500136 -0.00479875,0.0212638 -0.0143856,0.0487979 -0.00501202,0.014183 -0.0100134,0.0283553 -0.0150254,0.0425382 -0.0108452,0.0504722 -0.0162624,0.08176 -0.0162624,0.0938528 0,0.0296136 0.00396696,0.0542152 0.0118796,0.0738154 0.00668625,0.0171049 0.0206559,0.0387952 0.0419197,0.065071 0.0596431,-0.0513039 0.08947,-0.105316 0.08947,-0.162038 0,-0.0233539 -0.00261265,-0.048382 -0.00781663,-0.0750737 -0.00521464,-0.0266917 -0.0206559,-0.0566252 -0.0463026,-0.0897792 -0.0256466,-0.0331647 -0.05349,-0.0593338 -0.0835195,-0.0785182 -0.0241963,-0.0154413 -0.0609014,-0.0339965 -0.110105,-0.0556868 0.00124767,-0.00708082 -0.00209012,-0.0125087 -0.0100134,-0.0162624 -0.0020368,-0.000842447 -0.00387099,-0.00166357 -0.00554522,-0.00248468zm0.697525 0.0769932l0 -0.0131379 -0.0519224 -0.000309253 -0.122624 0.0159532c-0.00167423,0.00541725 -0.00250601,0.0120928 -0.00250601,0.0200161 0,0.0108452 0.00355107,0.029411 0.0106426,0.0556761 0.00541725,0.0196109 0.0108452,0.0394137 0.0162624,0.0594405 0.0229487,-0.011677 0.0471344,-0.0302428 0.0725784,-0.0556868 0.0258599,-0.0271076 0.0517092,-0.0544285 0.0775691,-0.0819519zm0.831697 0.464028c-0.0158679,-0.0201761 -0.035596,-0.0461746 -0.0591312,-0.0780596 -0.0179366,-0.02795 -0.0358626,-0.0604749 -0.0537993,-0.0975958 -0.00250601,-0.00541725 -0.0121035,-0.0262758 -0.0287818,-0.062565 -0.011677,-0.0271076 -0.0287818,-0.0656895 -0.0513039,-0.115746 -0.00416958,-0.00833916 -0.0106319,-0.0212638 -0.0193869,-0.0387845 -0.00584381,-0.0125194 -0.0139803,-0.0298269 -0.0244096,-0.0519331 -0.00541725,-0.0104186 -0.0111544,-0.0211571 -0.0172008,-0.0322156 -0.00604642,-0.0110478 -0.00907496,-0.0197069 -0.00907496,-0.0259666 0,-0.00458547 0.00250601,-0.0125087 0.00750737,-0.0237698 0.0033378,-0.00667559 0.00647298,-0.0133512 0.00938422,-0.0200161 0.016689,-0.00125834 0.0368117,0.0017702 0.0603789,0.00907496 0.0235672,0.00728343 0.0403521,0.0109411 0.0503549,0.0109411 0.0121035,0 0.0214877,-0.00229273 0.0281633,-0.00688887 0.0308613,0.08176 0.0617225,0.163509 0.0925945,0.245259 0.0218076,0.0598564 0.0399042,0.114093 0.0542472,0.162688 0.00553455,-0.0210825 0.0116983,-0.0458867 0.0185125,-0.0743592 0.0104293,-0.0450442 0.0156439,-0.0690273 0.0156439,-0.0719492l0 -0.0475396c0,-0.0141936 -0.000213278,-0.0187791 -0.000629169,-0.0137671 0.000415891,-0.0029219 0.00355107,-0.0118902 0.00938422,-0.026905 0.00124767,-0.00375369 0.00479875,-0.0072941 0.0106426,-0.0106319 0.00458547,-0.00209012 0.00895766,-0.00418024 0.0131272,-0.0062597 -0.00583314,-0.0166783 -0.0198135,-0.0504722 -0.0419197,-0.10135 -0.0137564,-0.0308719 -0.0206346,-0.0567212 -0.0206346,-0.0775797 0,-0.014183 -0.000213278,-0.0200268 -0.000629169,-0.0175208 0.000415891,-0.00250601 0.00354041,-0.0112611 0.00938422,-0.0262758 0.00209012,-0.00500136 0.00959749,-0.0109518 0.0225221,-0.01783 0.0129246,-0.0068782 0.0218929,-0.0103226 0.026905,-0.0103226 0.0208479,0 0.0417064,0.00542792 0.0625543,0.0162624 0.0233646,0.0121035 0.0373343,0.0264891 0.0419197,0.0431674 0.00167423,0.0154306 0.00542792,0.0394137 0.0112611,0.0719492 0.0112717,0.0467185 0.0429648,0.11887 0.0951005,0.216477 0.0596431,0.110947 0.0936395,0.177468 0.101979,0.199575 0.00541725,0.00667559 0.0131379,0.0168916 0.0231513,0.0306587 0.0191843,0.0287712 0.0287712,0.0502589 0.0287712,0.0644312 0,0.00542792 -0.00146095,0.0121035 -0.00437219,0.0200268 -0.00375369,0.00917094 -0.00793393,0.0145989 -0.0125194,0.0162624l-0.060059 0c-0.0108452,0 -0.0185552,-0.00209012 -0.0231406,-0.00624903 -0.0121035,-0.0108452 -0.0250388,-0.025444 -0.0387952,-0.0437966 -0.011677,-0.0158465 -0.0235672,-0.0317037 -0.03566,-0.0475503 -0.0150147,0.0062597 -0.0354574,0.00959749 -0.0613067,0.0100134 -0.0312878,0.000415891 -0.0511013,0.00146095 -0.0594405,0.00312452 -0.0208586,0.00375369 -0.037121,0.0133405 -0.0487979,0.0287818 -0.0033378,0.0112611 -0.00896832,0.0279394 -0.0168916,0.0500456 -0.0112611,0.0241963 -0.0342097,0.0609014 -0.0688247,0.110115 -0.00667559,0.0104293 -0.014183,0.0216903 -0.0225221,0.0337832 -0.00666493,0.00584381 -0.0131379,0.0114743 -0.0193869,0.0168916 -0.0100134,0.00833916 -0.0187791,0.0125087 -0.0262865,0.0125087 -0.0216903,0 -0.0325248,0 -0.0325248,0l0.0231406 -0.0650603c0,-0.00125834 0.000842447,-0.0029219 0.00250601,-0.00501202 0.00166357,-0.00207946 0.00250601,-0.00354041 0.00250601,-0.00437219 0.00458547,-0.0350415 0.0110478,-0.0675664 0.0193869,-0.0975958 0.00468144,-0.0127967 0.0101627,-0.0283233 0.0164011,-0.0465692zm-1.57032 -1.74273c-0.0862282,0.0327914 -0.17171,0.0689847 -0.255464,0.107385 -0.159862,0.063738 -0.286101,0.102245 -0.453748,0.1314 -0.115703,0.0353294 -0.2387,0.0574783 -0.318679,-0.051208 -0.0289738,-0.0894273 0.0281526,-0.215314 0.0438925,-0.306523 0.00623837,-0.00275128 0.012754,-0.0488726 0.0225648,-0.0621598 0.0569771,-0.0467398 0.144069,-0.0657322 0.21219,-0.0905364 0.12882,-0.0411306 0.260881,-0.0799471 0.37812,-0.1473 0.035596,-0.0156866 0.0628742,-0.0299442 0.101595,-0.0216477 0.0724184,0.0441485 0.144016,0.105082 0.204608,0.166389 0.0644632,0.0379634 0.107161,0.102672 0.170313,0.142715 0.0641326,0.0828584 -0.0403628,0.101318 -0.105391,0.131486zm-0.518521 -0.67544c-0.148079,0.0481261 -0.297597,0.106586 -0.439981,0.169342 -0.0924025,0.0340284 -0.0580328,-0.101211 -0.0460253,-0.153496 0.00479875,-0.0550896 0.02056,-0.109017 0.0284192,-0.163936 0.0187471,-0.0589926 0.0306053,-0.126868 0.0409067,-0.1881 0.0185018,-0.0223195 0.00823252,-0.087913 0.0323649,-0.112717 0.0740927,-0.00281526 0.117335,0.0885102 0.178887,0.123264 0.0554309,0.0479235 0.116983,0.0894167 0.16497,0.145839 0.0416425,0.0234072 0.0900138,0.0654762 0.107631,0.112173 -0.0111864,0.0287925 -0.039595,0.0539912 -0.0671718,0.0676303zm-0.280023 -0.0227461c-0.0814081,-0.00364705 -0.0500776,-0.0950259 -0.0354467,-0.14473 0.0464732,-0.0823892 0.190372,0.0443724 0.136775,0.097084 -0.095623,0.0436473 -0.095623,0.0436473 -0.101328,0.0476462z"/>
 </g>
</svg>
