<?xml version="1.0" encoding="UTF-8"?>
<!DOCTYPE svg PUBLIC "-//W3C//DTD SVG 1.1//EN" "http://www.w3.org/Graphics/SVG/1.1/DTD/svg11.dtd">
<!-- Creator: CorelDRAW -->
<svg xmlns="http://www.w3.org/2000/svg" xml:space="preserve" width="1.98819in" height="1.98819in" style="shape-rendering:geometricPrecision; text-rendering:geometricPrecision; image-rendering:optimizeQuality; fill-rule:evenodd; clip-rule:evenodd"
viewBox="0 0 0.0924648 0.0924648"
 xmlns:xlink="http://www.w3.org/1999/xlink">
 <defs>
  <style type="text/css">
   <![CDATA[
    .fil1 {fill:black}
    .fil0 {fill:#7F7F7F;fill-rule:nonzero}
   ]]>
  </style>
 </defs>
 <g id="Layer_x0020_1">
  <metadata id="CorelCorpID_0Corel-Layer"/>
  <path class="fil0" d="M0.0187676 0l0.0549296 0 1.28169e-006 0 0 1.83099e-006c0.00516961,3.66197e-007 0.00986169,0.00210765 0.0132596,0.00550578 0.00339758,0.00339776 0.00550413,0.00808875 0.00550486,0.0132573l1.83099e-006 0 0 2.74648e-006 0 0.0549296 0 1.28169e-006 -1.83099e-006 0c-3.66197e-007,0.00516961 -0.00210765,0.00986169 -0.00550578,0.0132596 -0.00339776,0.00339758 -0.00808875,0.00550413 -0.0132573,0.00550486l0 1.83099e-006 -2.74648e-006 0 -0.0549296 0 -1.28169e-006 0 0 -1.83099e-006c-0.00516961,-3.66197e-007 -0.00986169,-0.00210765 -0.0132596,-0.00550578 -0.00339758,-0.00339776 -0.00550413,-0.00808875 -0.00550486,-0.0132573l-1.83099e-006 0 0 -2.74648e-006 0 -0.0549296 0 -1.28169e-006 1.83099e-006 0c3.66197e-007,-0.00516961 0.00210765,-0.00986169 0.00550578,-0.0132596 0.00339776,-0.00339758 0.00808875,-0.00550413 0.0132573,-0.00550486l0 -1.83099e-006 2.74648e-006 0zm0.0549296 0.000915493l-0.0549296 0 -2.74648e-006 0 0 -1.83099e-006c-0.00491309,5.49296e-007 -0.0093752,0.00200603 -0.0126098,0.00524047 -0.00323499,0.0032348 -0.0052412,0.00769802 -0.00524138,0.0126122l1.83099e-006 0 0 1.28169e-006 0 0.0549296 0 2.74648e-006 -1.83099e-006 0c5.49296e-007,0.00491309 0.00200603,0.0093752 0.00524047,0.0126098 0.0032348,0.00323499 0.00769802,0.0052412 0.0126122,0.00524138l0 -1.83099e-006 1.28169e-006 0 0.0549296 0 2.74648e-006 0 0 1.83099e-006c0.00491309,-5.49296e-007 0.0093752,-0.00200603 0.0126098,-0.00524047 0.00323499,-0.0032348 0.0052412,-0.00769802 0.00524138,-0.0126122l-1.83099e-006 0 0 -1.28169e-006 0 -0.0549296 0 -2.74648e-006 1.83099e-006 0c-5.49296e-007,-0.00491309 -0.00200603,-0.0093752 -0.00524047,-0.0126098 -0.0032348,-0.00323499 -0.00769802,-0.0052412 -0.0126122,-0.00524138l0 1.83099e-006 -1.28169e-006 0z"/>
  <g id="_416672944">
   <path id="_416672848" class="fil1" d="M0.0344982 0.0319749c3.02113e-005,0.0016001 5.60282e-005,0.00167682 0.000834747,0.00112587 0.000610451,-0.00043193 0.0011169,-0.000629127 0.00190294,-0.000845183 -0.000219901,0.000971155 -0.00178539,0.00084738 -0.00178539,0.00266701l0 0.000280873c0,0.000323352 8.27606e-005,0.000420944 0.000357042,0.000420944l0.000119014 0c0.000668859,0 0.00106545,-0.000771395 0.00122017,-0.00145508l0.000803437 0.000613014c0.000513409,-0.000290578 0.000503704,0.000103268 0.000757845,-0.000510113 0.000282887,-0.000683507 -0.00010107,-0.00034624 0.000550211,-0.000746493l0.00070969 0.000167352 9.8324e-005 0.000111873 -0.00127547 0.00112935 7.0493e-005 0.000130732 0.00264193 -0.00196025 0.000374803 0.00111599c-2.7831e-005,-0.00147816 -0.00067124,-0.00350909 -0.00190441,-0.00350909l-0.000357225 0c-0.00103799,0 -0.00179601,0.000444014 -0.00262563,0.000552958 -0.00126558,0.000166254 -0.0018839,-0.000361437 -0.00249252,0.00071024z"/>
   <path id="_416672776" class="fil1" d="M0.042235 0.0437659c0.000381944,-0.000851226 0.000452071,-0.00217301 -0.000119014,-0.0029477 -0.000397873,0.00201427 -0.000352099,0.00225852 -0.00195092,0.00289278 -0.00130934,0.000519634 -0.00150086,0.00129451 -0.00150086,0.00328332 0,0.000629859 0.000274282,0.00126686 0.000595071,0.00154407l0.000890042 -0.00353106 0.00039769 0.000461592c0.000116817,-0.000500042 0.00059031,-0.00184344 0.000973902,-0.00184344 0.000448225,0 0.000225028,9.24648e-005 0.000714085,0.000140437z"/>
   <path id="_416672536" class="fil1" d="M0.049833 0.0419644l0.00162042 -0.00114986 6.57324e-005 0.000143916 0 0.000701817c0,0.00102096 -0.000376451,0.00160596 -0.000952113,0.0019652 -0.00109639,-0.000620338 -0.0017409,-0.00129524 -0.00318518,-0.00157776 -0.00144282,-0.000282338 -0.00208256,-0.000839873 -0.00240921,-0.00249289 0.000550211,0.000173211 0.00053593,0.000982507 0.00107131,0.000982507l0.000119014 0c0.000611183,0 0.000789155,-0.000459578 0.00107113,-0.000842254l-0.000389451 -0.000768099 -5.25493e-005 0.00091055 -0.000391099 -2.01408e-006c-1.62958e-005,-0.000866057 -0.000176873,-0.00121706 -0.000808014,-0.00118117 -0.00124635,7.10423e-005 -0.000625282,0.000109493 -0.00133461,-0.000503155 -0.000164789,0.000367479 -0.000531902,0.0012632 -0.000952113,0.0012632 -0.00068369,0 -0.000960352,-0.00056138 -0.00178539,-0.00056138l-0.000119014 0c-0.000274282,0 -0.000357225,9.75916e-005 -0.000357225,0.000420944l0 0.000140437c0,0.000478254 0.000662817,0.000842254 0.00107131,0.000842254 0.000421127,0 0.000359972,-0.000421127 0.000595254,-0.000421127 0.000438704,0 0.000465437,0.000421127 0.000833099,0.000421127 0.000197014,0 0.000888944,-0.000447859 0.00107131,-0.000561564 0.000276479,0.00140016 0.000409958,0.000644507 0.000158563,0.00230448 -0.000151423,0.000999902 0.000352282,0.00134523 0.00115077,0.00134523 -0.000338,0.000543803 -0.00230741,0.000764437 -0.00321778,0.000837493 -0.000854338,6.84789e-005 -0.00133918,0.0011982 -0.00261465,0.00154865l0 0.00028069c0.000398789,0.000125606 0.000487225,0.000421127 0.000833099,0.000421127 1.24507e-005,0 0.00126247,-0.000751254 0.00143952,-0.000829071 0.00034569,-0.000152155 0.00148237,-0.000227958 0.00190185,-0.000283803 0.00208769,-0.000277578 0.00214299,0.000260183 0.00368138,0.000411056l0.000342761 -0.000301014c-7.03099e-005,0.000394211 -0.000320056,0.000862578 -0.000699803,0.000862578l-0.000119014 0c-0.000266958,0 -0.000261465,-0.000111141 -0.00047624,-0.000280873 -0.00110683,0.000690831 -0.00334649,0.00140382 -0.00499914,0.00140382 0.000337085,0.00148859 0.00238138,0.000718479 0.00369273,0.000718113 0.000430282,0 0.00100247,0.000396225 0.00202525,0.000399338 0.000735873,2.38028e-006 0.00130476,0.000274282 0.00130476,0.00112825 0,0.000677099 -0.000630775,0.000368944 -0.000833282,0.00126338l-0.000410141 -0.000513042c-0.000851226,4.02817e-005 -0.00227921,0.00219755 -0.00387492,0.00219755l-0.000357042 0c-0.00165539,0 -0.00164752,-0.000970789 -0.00238047,-0.0019652l8.42254e-005 0.00140748c-0.00147339,-0.000418197 -0.00159516,-0.00239017 -0.00222685,-0.00239017l-0.000119014 0c-0.000321521,0 -0.000328113,6.71972e-005 -0.000595071,0.000140437 0.000174859,0.000772859 0.000714085,0.00059562 0.000714085,0.00154407 0,0.000328479 -0.000197563,0.00056138 -0.000476056,0.00056138 -0.000383592,0 -0.0017431,-0.00218949 -0.00189342,-0.00268001 -0.00032738,-0.0010682 -0.000344409,-0.0029283 -0.000844268,-0.00377678l0.00011407 0.00350945c-0.000921902,-0.000801057 -0.000886564,-0.00416037 -0.00115627,-0.00578958 -0.000291493,-0.00175976 -0.00145747,-0.0039639 -0.00145747,-0.00529979l0 -0.000701817 0.000416183 -0.00574875c-0.000740268,0.000180901 -0.00104055,0.000450423 -0.0014181,0.00105794 -0.000236197,0.000380113 -0.000258352,0.000463606 -0.000474042,0.000844634 -0.000136408,0.000241324 -0.000124324,0.000152704 -0.000262747,0.000392014 -6.6831e-005,0.000115901 -3.09437e-005,5.96902e-005 -8.89859e-005,0.000175775 -1.88592e-005,3.79014e-005 -3.46056e-005,0.000240042 -7.67183e-005,0.000190239l-0.000138789 -0.000116817c0.000602211,-0.0011061 0.00047862,-0.00151423 0.00135054,-0.00280562 0.000592141,-0.000877042 0.000919704,-0.00171234 0.00116872,-0.00297297 -0.000565775,0.000446944 -0.00146424,0.00192418 -0.00192492,0.00264266 -0.000719028,0.00112148 -0.000766817,0.00214537 -0.00128773,0.00325385 -0.000523479,0.00111379 -0.00140107,0.00138935 -0.00211662,0.00227665 -0.000455183,0.000564127 -0.00131447,0.00263589 -0.000502972,0.00333697l-9.08169e-005 -9.08169e-005 0.00098562 -0.00137013 0.000530071 0.00034569c-0.000164789,0.000844085 -0.000591775,0.00135218 -0.000591775,0.0022382 0,0.00113503 0.000532085,0.00185296 0.000971521,0.00250387 0.000275197,0.000407578 0.000442732,0.000563761 0.000791718,0.000891324 0.000123592,0.000115901 0.00097555,0.000674169 0.000974451,0.000675451l-9.92395e-005 0.000163873c-0.000900845,-0.000682775 -0.000953211,-0.000199761 -0.00195604,-0.00138972 -0.000526592,-0.000624916 -0.000816071,-0.0018471 -0.00115847,-0.0021428 -4.79718e-005,0.000680395 -0.000238028,0.000879789 -0.000238028,0.00168432 0,0.0016933 0.00110921,0.00307697 0.00187273,0.00396756 0.00100796,0.00117531 0.00232535,0.00166821 0.00312641,0.00248923l-0.00306525 -0.00134907 -7.81831e-005 0.000118831 0.000530254 0.00108632c-0.000444014,0.000709507 -0.000719578,0.000747592 -0.000719578,0.00210911l0 0.000701817c0,0.000964197 0.000971338,0.00204887 0.00154517,0.00238889 0.00180316,0.0010682 0.00154956,-0.000208916 0.00154956,0.00196263l0 0.000701817 -0.00605892 0.0011993 -0.000577676 0.000978662 -0.00121925 6.79296e-005c-0.00185296,0 -0.00583242,0.00364678 -0.00583242,0.00519359 0,0.00168066 0.0044374,0.00546604 0.00595144,0.00561472 -0.000627479,-0.00100979 -0.00202342,-0.0019013 -0.00202342,-0.0039304 0,-0.00312092 0.00511248,-0.00155744 0.00673418,-0.000923183 0.00225449,0.00088162 0.00404648,0.00262856 0.00533549,0.00465675 0.00132618,0.00208659 0.00267031,0.00416165 0.00487793,0.00519616 0.0010898,0.000510479 0.00236765,0.000920071 0.00361547,0.00121065 0.000992028,0.00023107 0.00296583,0.000322986 0.00348052,0.00122951 0.000392014,-0.00024462 0.00116652,-0.000396225 0.00166308,-0.000568338 0.000729099,-0.000252676 0.00104494,2.85634e-005 0.00155066,0.000427902l0.000369676 -6.33521e-005 0.00033031 0.000224113 0.00297425 -0.000939662c0.000302296,-0.000427535 0.000610817,-0.000299916 0.000610817,-0.000765169 0,-0.000393662 -0.000142817,-0.000341845 -0.000357042,-0.00056138l-0.00213786 0.000586831c0.000502423,-0.000440902 0.0015827,-0.000601113 0.00230558,-0.000810028 0.000537944,-0.000155634 0.00196318,-0.00118044 0.00197472,-0.00118044 0.000388535,0 0.00254855,0.000755465 0.003263,0.000924465 0.00114876,0.000271901 0.0021472,0.000468 0.00333111,0.000703831 0.00199156,0.000396775 0.005148,0.000843902 0.00721335,0.000898282 -0.00188116,-0.0033128 -0.00693376,-0.00749844 -0.0102764,-0.00935781 -0.00243155,-0.00135255 -0.00528734,-0.000618324 -0.00808344,-0.00127547 -0.00205803,-0.000483747 -0.0053809,-0.00168817 -0.00580295,-0.00382456l-0.000238028 0 -8.82535e-005 0.00140089 -0.00479609 0.000957789 0.000931423 -0.000717747c-4.57747e-006,-0.000375169 -6.06056e-005,-0.000658423 -0.000451155,-0.000658423 -0.00059269,0 -0.00144813,0.000403366 -0.00202342,0.000561564 0.000793366,-0.000813507 0.00328644,-0.000768465 0.00428487,-0.00252676l-0.00187932 0.000911648c4.41268e-005,-0.00104952 0.000842254,-0.000494549 0.00152228,-0.0010519 -0.000878507,0 -0.00382749,0.000774873 -0.00469007,0.00106637 -0.00150599,0.000508648 -0.0028384,0.0010433 -0.0043561,0.00146021 9.48451e-005,9.70423e-005 0.000334338,0.000421127 0.00047624,0.000421127 0.000230338,0 0.000387254,-0.000190972 0.000714085,-0.00028069l-0.000705662 0.000714451c-8.03803e-005,-0.000330676 -0.000122859,-0.000574197 -0.000484662,-0.000574197 -0.000462324,0 -0.000357042,0.000464887 -0.000357042,0.000982507l-0.0029153 -0.00182385 -7.76338e-005 0.000122676 0.000272634 -0.000387437c0.000518535,0.000286366 0.000973902,-0.000297535 0.00164899,-0.000297535 0.00035924,0 0.000846465,0.000383775 0.00107131,0.00056138l0.000481549 -0.000115718 0.000208916 0.000284169c0.000483747,-0.00028838 0.00149317,-0.000459394 0.00211882,-0.000645423 0.001339,-0.00039824 0.000901578,-0.000482282 0.00179363,-0.000972803 0.000924465,-0.000508465 0.00257766,-0.00177862 0.00361016,-0.00177862 0.000812226,0 0.001898,0.00187859 0.00261849,0.00210563 -0.000192803,-0.000339831 -0.000595071,-0.0010118 -0.000595071,-0.00154407 0,-0.0021049 0.00369127,0.00172992 0.00409445,0.00204942 0.00123189,0.000976282 0.00343255,0.00174035 0.00542778,0.00174035 0.0014441,0 0.00385038,-0.000793183 0.00440407,-0.00168432 -0.00248666,0 -0.00583242,-0.000782747 -0.00583242,-0.00364952l0 -0.000701817 0.000476056 0c0.00156,0 0.00417721,0.00264486 0.00583242,0.00280727 -0.000888395,-0.00142982 -0.00261849,-0.00130714 -0.00261849,-0.00435134l0 -0.000140437c0,-0.0018427 0.0026802,-0.000896634 0.00273751,-0.00393021 -0.000896268,0.000246085 -0.00106838,0.000530437 -0.00166638,-0.000280873 0.000226127,-0.000503704 0.000422775,-0.000842071 0.00107131,-0.000842071 0.00134797,0 0.00223527,0.00154316 0.0028567,0.00238614 0,-0.00332232 -0.000952296,-0.00368944 -0.000952296,-0.00561472 0,-0.000314747 9.42958e-005,-0.000307972 0.000238028,-0.00056138l0.00106911 0.000157099c0.000408127,5.51127e-005 0.001781,-0.000865873 0.00190661,-0.00142048 -0.00187145,0.000467451 -0.00571341,-0.000531718 -0.00571341,-0.0029477 0,-0.000170831 0.000246268,-0.000421127 0.00047624,-0.000421127 0.000753817,0 0.001807,0.00140382 0.00357079,0.00140382 0.00110299,0 0.00326245,-0.000855986 0.00368999,-0.00154407 -0.00184051,-4.8338e-005 -0.00439199,-0.00122108 -0.00504052,-0.00275893 -0.00044731,-0.00106106 -0.000597268,-0.00206096 -0.000863127,-0.00333349 -0.000446211,-0.00213731 -0.000733859,-0.00151258 -0.00135713,-0.00261044 0.000658606,-0.0014679 0.00190441,-0.00298982 0.00190441,-0.00519359l0 -0.00028069c0,-0.00191576 -0.00335363,-0.00734757 -0.00431216,-0.00853057 -0.00182421,-0.00225175 -0.00476679,-0.00354113 -0.008424,-0.00354113l-0.00214244 0 -0.00311085 0.000425887 -3.66197e-006 0.00015893 -0.000119014 -0.000140254c0.00204613,-0.00128792 0.00321668,-0.00100594 0.0058522,-0.00100594 -0.000770296,-0.000789704 -0.00333844,-0.00154407 -0.00488013,-0.00154407 -0.00343292,0 -0.00572861,0.00154114 -0.00785438,0.00308997 -0.00114785,0.000836211 -0.00523882,0.00443941 -0.00523882,0.00617427 0,0.000473493 0.000416183,0.00208256 0.000595071,0.00238614 1.75775e-005,-0.00092355 0.000417465,-0.00191393 0.000715733,-0.00252475 0.000143549,-0.000294056 0.00124049,-0.00176562 0.00130787,-0.00168616l0.000138789 0.000117c-0.00090524,0.000722507 -0.00240042,0.00554825 -0.00240042,0.00718204l0 0.000140437c0,0.000542704 0.000710606,0.00205839 0.000952296,0.00238614 0.000489056,-0.00247604 0.00303816,-0.00504199 0.00487885,-0.00603713 0.00159332,-0.000861479 0.00624641,-0.00154261 0.00869041,-0.00154261l0.000714085 0c0.00259707,0 0.00484461,0.000540873 0.00662542,0.00159131 0.0012643,0.000745761 0.00385569,0.00289589 0.00420632,0.00444454 -0.00052531,-0.000414718 -0.00113576,-0.00114638 -0.0016878,-0.00165942 -0.000157465,-0.000146296 -0.00170666,-0.00149647 -0.00176416,-0.00142872l-0.000138789 0.000117c0.000632606,0.000854704 0.000734042,0.002262 0.000734042,0.00381321 -0.000829254,-0.000654761 -0.00222831,-0.00280727 -0.00345196,-0.00280727 -3.22254e-005,0 -0.00194414,0.000756197 -0.00235428,0.000873197 -0.00089224,0.000254324 -0.00160797,0.000249747 -0.00276387,0.000249747l-0.000113704 -7.17747e-005 -0.000653845 0.00144172c0.000317676,0.000262197 0.000529521,0.000624733 0.000529521,0.00115663l0 0.00028069c0,0.0010173 -0.000357042,0.00160248 -0.000357042,0.00266701 0,0.000586648 0.000124324,0.00108797 0.000357042,0.00140363l-0.000123408 -0.000700535 0.00103725 -0.000911831 -0.000346972 -0.00118227 0.000477887 -0.000605324 0.00180956 -0.000400803c9.42958e-005,0.000416916 0.000307972,0.000712803 0.000716465,0.000712803 0.000648169,0 0.000711155,-0.00069138 0.00119032,-0.000842254 7.87324e-005,0.00039824 0.000119014,0.000239859 0.000119014,0.00056138 0,0.000516704 -0.00115517,0.000520916 -0.00154737,0.000842254 0.00111617,0 0.00141242,-0.000597268 0.00238065,-1.83099e-007 0.00106325,0.000655676 0.00106637,0.000280873 0.00226145,0.000280873 0.000448225,0 0.000225028,9.24648e-005 0.000714268,0.000140437 0,0.00148401 -0.000931057,0.00307661 -0.00157648,0.00389616 -0.000210747,0.000267507 -0.00208348,0.00329797 -0.00177624,0.00370701l0.000119014 0.000140437 0 0zm-0.00233835 0.0345518c-7.67183e-005,-0.000284169 -0.000160761,-0.00060624 -0.000379563,-0.00060624 -0.000278493,0 -0.000476056,0.000232901 -0.000476056,0.00056138l-2.16056e-005 0.00048393 -0.0028351 -0.00146644c0.000474775,-4.66902e-005 0.00119142,-0.000421127 0.00142835,-0.000421127 0.000453352,0 0.000940761,0.000136592 0.00107516,0.000582803l0.000658789 -9.37465e-005 0.000644141 0.000626014 0.000498394 -0.000296254 9.33803e-005 0.000151972 -0.000685887 0.000477704zm0.000929775 -0.00257144c0.00055369,-0.000414169 0.00140656,-0.000505902 0.00212083,-0.000727451 0.00040831,-0.000126521 0.00174694,-0.00109731 0.00180718,-0.00109731 0.000340014,0 0.00198516,0.00144685 0.00297572,0.00154407l-0.00691179 0.00163434 0.00229148 -0.000854888 -0.000284169 -0.000972437 -0.00199925 0.000473676zm0.00761196 -3.51549e-005l5.85916e-006 0.000315845 -0.00140894 0.000493268 -1.70282e-005 -0.000479535 0.00142011 -0.000329578zm-0.0148726 -0.000526225c0.000731479,-1.94085e-005 0.000836211,-0.000319873 0.00149848,-0.000489423 0.000759676,-0.000194451 0.00105556,0.000348986 0.00135823,0.000348986 0.000251578,0 0.000156916,-5.0169e-005 0.000476056,-0.000140254l2.47183e-005 0.00014007 -0.00132637 0.000324817 0.000369676 0.000496014 0.000589395 -0.000195 0.000124324 5.27324e-005 -0.000711521 0.000489423 -0.000455733 -0.000789521c-0.000207085,0.000331958 -0.000399887,0.000407211 -0.000399887,0.000744662l0 0.000421127 -0.00154737 -0.00140363zm0.0045229 -0.00182476c0.000524028,-0.000537028 0.00143439,-0.000622535 0.00218034,-0.000938014 0.000824127,-0.00034862 0.00124599,-0.000817719 0.00186669,-0.00130787l0.00215617 0.00222666 -0.00549717 0.00108431c0.000639747,-0.000459761 0.00171087,-0.000312183 0.00179363,-0.00148621 -0.00119655,-0.000328845 -0.00124251,7.56197e-005 -0.00249966,0.000421127zm0.00607045 0.00028069c0.000518902,-9.17324e-005 0.000181634,-0.000340747 0.00047624,0.000140437l-0.00153913 0.000588845 -8.23944e-006 -0.000588845 0.00107113 -0.000140437zm-0.0105934 0.000421127c-0.000196648,0 -0.000386338,-0.000403183 -0.00047624,-0.000561564l0.000389268 0.000220817 0.000674902 -0.000245169c-0.000107479,0.000141901 -0.000427902,0.000585916 -0.00058793,0.000585916zm-0.00190459 -0.00140382c0.000875211,0 0.00109676,-0.000415451 0.0017019,-0.000502972 0.000428268,-6.17042e-005 0.000809845,0.000362718 0.00163104,0.000362718 -0.000346789,0.000355394 -0.000782197,0.000399887 -0.00129469,0.000578775 -0.00090469,0.000316028 -0.000450789,0.000182916 -0.00108596,0.000684606l0 0.000701634 -0.00133772 -0.00151038 0.000385423 -3.35071e-005 0 -0.000280873zm0 -0.00112276c-0.000196648,0 -0.000386155,-0.000403183 -0.000476056,-0.000561564l0.000475141 0.000282521 0.000494733 -0.000226127 0.000121211 6.06056e-005c-0.000104,7.58028e-005 -0.000604225,0.000444563 -0.000615028,0.000444563zm0.0102306 -0.000736972l-0.00140235 0.000925564 -1.79437e-005 -0.000596169 0.0014203 -0.000329394zm-0.00558854 3.49718e-005c0.000438155,-0.000448958 0.00134431,-0.000635169 0.002002,-0.000867704 0.000358873,-0.000126887 0.00172259,-0.00109731 0.001807,-0.00109731 0.000138239,0 0.00134559,0.00145893 0.00142835,0.00182476l-0.00333807 0.000813873 0.000406662 -0.000609352c4.52254e-005,-0.000342394 -1.08028e-005,-0.000625648 -0.000401352,-0.000625648 -0.000515423,0 -0.00135823,0.000411423 -0.00190459,0.00056138zm0.00226163 -0.00168432c0.00018493,-0.00052824 -0.000180535,-0.000374803 0.000548014,-0.000617042 0.000601479,-0.000199944 0.000472211,-0.000409775 0.000761324,5.5662e-005l-0.00130934 0.00056138zm-0.00902896 -0.000859099l0.000679662 -0.000317676 -0.000686254 0.000634986 -0.00038762 -0.000604592 0.000119197 -0.000140254 0.000275014 0.000427535zm0.0047439 -0.000263845c0.000544169,-0.000445845 0.00161383,-0.000559549 0.00228049,-0.000819733 0.000711887,-0.000278127 0.00139613,-0.000991296 0.00188555,-0.00114547l0.00110024 0.00208201c-0.00164661,0.000468 -0.00338092,0.000845 -0.00489404,0.0014452 -0.000726352,0.000288197 -0.00157135,0.000605324 -0.00235062,0.000877409 -0.00089938,0.000313831 -0.00159241,0.000290394 -0.00159241,0.00163123l-0.0015893 -0.00220432c0.000693028,-0.000105465 0.00135658,-0.000602944 0.00230338,-0.000602944l0.000119014 0c0.000638831,0 0.000562845,0.000420944 0.000952296,0.000420944 0.000724338,0 0.00139759,-0.000205803 0.00221366,-0.000477338 0.000392563,-0.000130732 0.000776155,-0.000228507 0.00112569,-0.000357042 0.000586648,-0.000215324 0.000241873,-0.000385056 0.000826507,-0.000569254l0 -0.00056138 -0.000389085 -0.000220817 -0.00199138 0.000501507zm-0.00714176 -0.00056138c0.000160578,-9.08169e-005 0.00165942,-0.000561564 0.00190459,-0.000561564 0.000445113,0 0.000692479,0.000216056 0.000952113,0.000421127l0.000589028 -0.000169c-0.000486493,0.000821747 -0.00189818,0.000139338 -0.00189818,0.00157263 0,0.000379197 5.67606e-005,0.000387071 0.000118831,0.000701817l-0.00166638 -0.00196501zm0.00987945 -0.00154407c0.000268789,0 0.000926296,-0.000208183 0.00119032,-0.00028069l-0.00151642 0.000925564c-3.11268e-006,-0.000479718 -3.38732e-005,-0.000644873 0.000326099,-0.000644873zm-0.0146406 -0.00336883c0.00106252,0 0.00124031,5.16338e-005 0.00228672,-0.000251211 0.000624183,-0.000180535 0.00176306,-0.000689183 0.00199834,-0.000310352l-0.00356401 0.000880704c0.000152521,0.000124873 0.000298634,0.000382676 0.000588296,0.000382676 0.000251761,0 0.000156916,-5.03521e-005 0.000476056,-0.000140437l-0.000585549 0.000576761 -0.000555887 -0.000774507c-0.000221366,0.000361437 -0.00040593,0.000524761 -0.00040593,0.00104 0,0.000271718 0.000162042,0.000456648 0.000238211,0.000842254l-0.00336242 -0.00114162c0.000646155,-0.000315845 0.001768,-0.00152539 0.0021721,-0.00152539 0.00028069,0 0.000529521,0.00027538 0.000714085,0.000421127zm0.00345434 -0.00195092l-2.38028e-006 0.000266409 -0.00130732 0.000160394 7.69014e-006 -0.000104916 0.00130201 -0.000321887zm-0.00644983 -3.77183e-005l0.000234 0.000332324 0.000612831 -0.000197197 -0.000691197 0.000491437 -0.000274648 -0.000486127 0.000119014 -0.000140437zm0.0118036 -0.0377353c0.000839324,-0.00086038 0.00163214,-0.000294423 0.00166638,-0.00210563l0.000238028 0 0.000399155 0.000955958c0.000225028,-4.66902e-005 0.00023162,-0.000113704 0.000553141,-0.000113704l0.000833099 0c0.0015492,0 0.00507641,0.000628578 0.00583242,0.00140363l-0.00486768 -0.000822296 -0.000369493 0.000120479c-0.00265475,0 -0.00118025,0.00111123 -0.00130934,0.00126338l-9.92395e-005 0.00016369c-0.000202324,-0.00021038 -0.000417465,-0.000584817 -0.000733859,-0.000584817 -0.00015307,0 -0.000491437,0.000561014 -0.000595254,0.000701817 -3.36901e-005,-0.000477155 -5.73099e-005,-0.00112294 -0.000476056,-0.00112294l-0.000238211 0c-0.000410324,0 -0.000460859,0.000103817 -0.000833099,0.000140437z"/>
   <path id="_416672968" class="fil1" d="M0.0584229 0.0651016c0.000443648,0.000363634 0.00179748,0.000495099 0.00245572,0.000753634 0.000880338,0.000345873 0.00144813,0.000636085 0.00218638,0.00107113 0.00135694,0.000799775 0.0025502,0.00168616 0.0037614,0.00272304 0.00130165,0.00111434 0.00220469,0.00227592 0.00335803,0.00333899 0.000645423,0.000594887 0.00102517,0.00108669 0.00159918,0.00176361 0.000266592,0.00031438 0.00053062,0.00057438 0.000756197,0.000933254 7.83662e-005,0.000124873 0.000614113,0.000960169 0.000642676,0.000926479l0.000138789 -0.000117c-0.000259085,-0.000468183 -0.00104293,-0.00357811 -0.0013672,-0.00447035 -0.000445845,-0.00122731 -0.00114583,-0.00277559 -0.00172314,-0.0038632 -0.000918057,-0.00172955 -0.0029413,-0.00600728 -0.00502331,-0.00600728l-0.000119197 0c-0.000878507,0 -0.00284297,0.0029477 -0.00666552,0.0029477z"/>
  </g>
 </g>
</svg>
