<?xml version="1.0" encoding="UTF-8"?>
<!DOCTYPE svg PUBLIC "-//W3C//DTD SVG 1.1//EN" "http://www.w3.org/Graphics/SVG/1.1/DTD/svg11.dtd">
<!-- Creator: CorelDRAW -->
<svg xmlns="http://www.w3.org/2000/svg" xml:space="preserve" width="1in" height="2in" style="shape-rendering:geometricPrecision; text-rendering:geometricPrecision; image-rendering:optimizeQuality; fill-rule:evenodd; clip-rule:evenodd"
viewBox="0 0 1.05167 1.06041"
 xmlns:xlink="http://www.w3.org/1999/xlink">
 <defs>
  <style type="text/css">
   <![CDATA[
    .fil0 {fill:black}
   ]]>
  </style>
 </defs>
 <g id="Layer_x0020_1">
  <metadata id="CorelCorpID_0Corel-Layer"/>
  <path class="fil0" d="M0.497058 1.06041c-0.0227364,-0.00361572 -0.0570458,-0.00630482 -0.0764745,-0.0198383 -0.0287278,-0.0390635 -0.0405098,-0.0753389 -0.0405098,-0.123702 0.00723418,-0.00609585 0.0108526,-0.0112651 0.0158102,-0.0194286 -0.0427809,-0.0756441 -0.0854629,-0.155627 -0.111191,-0.238923 -0.0471253,0.01333 -0.0835024,0.0226347 -0.130628,0.00361847 -0.0141577,-0.00888669 -0.0393687,-0.0231488 -0.0430861,-0.0409222 0.0469163,-0.0192252 0.0934175,-0.0304848 0.143534,-0.0394732 -0.0826693,-0.010025 -0.156867,-0.026869 -0.184457,-0.114092 -0.00144629,-0.0105419 -0.00289532,-0.0210811 -0.00423987,-0.0316231 0,-0.0633452 0.0180868,-0.142091 0.0559103,-0.193764 0.0010311,0.0691358 -0.0113668,0.157288 0.0581759,0.197382 0.0306882,0.01209 0.0546674,0.0129176 0.0875278,0.0129176 0.0831917,-0.00557618 0.166488,-0.0111606 0.249776,-0.0143611 0.165036,0.00433886 0.255459,0.00857324 0.299995,0.00857324 0.0364844,-0.00475405 0.0691358,-0.0149853 0.0911463,-0.0466029 0.0257307,-0.0519866 0.0221177,-0.111507 0.0178779,-0.167929 0.000932113,0 0.00185873,0 0.00289532,0 0.0363771,0.0775001 0.0771949,0.16224 0.0451566,0.248324 -0.0159119,0.0275922 -0.033688,0.0439193 -0.0595232,0.0624185 -0.0358575,0.0178806 -0.0713025,0.0271742 -0.110468,0.0344084 0.0214936,0.00579065 0.0214936,0.00579065 0.0502241,0.0114713 0.027177,0.00858148 0.0544612,0.0171575 0.0817427,0.0258352 0.000926613,0.000934862 0.00185873,0.00186423 0.00289257,0.00289532 -0.0329649,0.0372048 -0.0633507,0.0516676 -0.113366,0.0516676 -0.0199456,-0.00330226 -0.0383403,-0.00733042 -0.0574583,-0.013638 -0.03214,0.081641 -0.0701669,0.160799 -0.108296,0.239751 0,0.0126069 0.00774836,0.0196349 0.0158074,0.028626 0,0.0434023 -0.022016,0.0837032 -0.0463967,0.118015 -0.0420633,0.0178806 -0.0873244,0.0176689 -0.132379,0.018392zm0.00288982 -0.00578515c-0.0243862,-0.00382469 -0.0466029,-0.00940636 -0.0702686,-0.0165388 -0.0309027,-0.0303803 -0.0394787,-0.0742968 -0.0423713,-0.11553 0.073164,-0.0460887 0.149017,-0.0511535 0.228901,-0.0222222 0.0229399,0.0114713 0.0229399,0.0114713 0.0502186,0.0280101 -0.00433886,0.0404025 -0.0181858,0.073054 -0.042264,0.106233 -0.0399901,0.0181858 -0.0809178,0.0193241 -0.124216,0.0200473zm-0.0702686 -0.0258324c-0.0010366,-0.00238115 -0.00196596,-0.00475955 -0.00289532,-0.0071352 0.0703759,-0.0234595 0.128244,-0.0262504 0.198103,0 -0.000926613,0.00341225 -0.000926613,0.00341225 -0.00382194,0.00619759 -0.0165388,-0.00412989 -0.032349,-0.00991504 -0.0567351,-0.0156039 -0.0337925,-0.00278809 -0.0609695,-0.00164976 -0.0943468,0.00423987 -0.0134373,0.00403366 -0.0268718,0.00816355 -0.0403036,0.0123017zm0.0602464 -0.0429954c-0.00485578,-0.00629932 0.000824878,-0.0124997 0.000307955,-0.0198411 -0.0107482,0.0162226 -0.0337925,0.0177761 -0.0507383,0.0117848 -0.0573538,-0.0454728 0.0423658,-0.084429 0.061074,-0.0295581 0,0.015505 -0.000929363,0.0226347 -0.00723693,0.0366878 -0.00113008,0.000305205 -0.00226567,0.000621408 -0.00340675,0.000926613zm0.0645852 -0.00433886c-0.0211801,-0.0466056 0.0161236,-0.0757486 0.060766,-0.0580769 0.0212901,0.016635 0.0118865,0.0387528 -0.00754214,0.0514614 -0.0161209,0.00454783 -0.0383376,0.00434161 -0.0485716,-0.0117765 0.000307955,0.00671451 0.00175699,0.0109516 0.00165526,0.0174654 -0.00216943,0.000307955 -0.00423713,0.000618659 -0.00630757,0.000926613zm0.0889769 -0.0746102c-0.00960983,-0.0148836 -0.0615882,-0.0242844 -0.077709,-0.0281119 -0.0388573,-0.00392367 -0.0719266,-0.00258187 -0.11016,0.00568616 -0.0148836,0.00547719 -0.0297671,0.0110561 -0.0446452,0.0166405 0.0106409,-0.0504303 0.0106409,-0.0504303 0.0120927,-0.0647997 0,-0.0393714 -0.00599687,-0.0724436 -0.0171575,-0.110157 0.000104485,-0.0013473 0.000313454,-0.0026891 0.000516924,-0.00392917 0.0454728,0.0154005 0.0865957,0.0156039 0.120083,-0.0231433 0.0318293,0.0334791 0.0557013,0.0360637 0.0995133,0.0261376 0.0143694,-0.00578515 0.0143694,-0.00578515 0.0232561,-0.00785009 -0.00362122,0.0143666 -0.00723143,0.0287305 -0.0108526,0.0431961 -0.00733867,0.0510517 -0.0037202,0.0963128 0.00795733,0.146331 -0.0010366,0 -0.00196321,0 -0.00289532,0zm-0.239644 -0.0114713c-0.0258379,-0.0430944 -0.0485716,-0.0869092 -0.0698589,-0.132277 0.00392367,-0.000618659 0.0139514,0.00227666 0.0280046,0.00227666 0.011782,-0.00692898 0.0201518,-0.015296 0.0231516,-0.0293492 0.000926613,0 0.00185873,0 0.00288707,0 0.0211911,0.0543567 0.0248096,0.0989991 0.0178806,0.156559 -0.000723143,0.000929363 -0.00144629,0.00186423 -0.00206495,0.00279084zm0.246878 0c-0.0105392,-0.0574555 0.000720394,-0.101169 0.0142621,-0.157901 0.000926613,0 0.00186148,0 0.00289257,0 0.0129176,0.0187027 0.021807,0.0269653 0.0460887,0.0220105 0.000827628,0.0157029 -0.0159147,0.0422613 -0.0225274,0.0570431 -0.0388573,0.0779208 -0.0388573,0.0779208 -0.040716,0.0788474zm-0.130619 -0.047436c-0.00868047,-0.00165251 -0.017262,-0.00330226 -0.0258379,-0.00495752 -0.0438148,-0.0171547 -0.0638621,-0.0572493 -0.0674805,-0.102618 0.0023784,0 0.00475405,0 0.0071352,0 0.00877671,0.0642773 0.0467019,0.110163 0.114809,0.096827 0.0467046,-0.0164288 0.0669636,-0.052597 0.0789491,-0.0997168 0.00578515,0.00216668 0.00578515,0.00216668 0.00682174,0.00382194 -0.0129176,0.0450549 -0.0328632,0.083288 -0.0785339,0.101686 -0.0129258,0.00279359 -0.0129258,0.00279359 -0.035863,0.00495752zm-0.173717 -0.0875223c-0.0113696,-0.00651379 -0.0229426,-0.0135418 -0.0243862,-0.0272897 0.0234595,0.00806456 0.0384393,0.000618659 0.0602464,-0.0100195 -0.00620309,0.0255217 -0.00826803,0.0355495 -0.0358602,0.0373092zm0.345877 -0.0057934c-0.0111579,-0.0060931 -0.020358,-0.0142594 -0.0188045,-0.0281064 0.022115,0.00971432 0.0319338,0.00806181 0.054563,0.000101735 0.00124007,0.00020622 0.00248288,0.000412439 0.00382194,0.000621408 -0.00950535,0.0196349 -0.0180813,0.0259397 -0.0395804,0.0273832zm-0.355902 -0.0229371c-0.0342022,-0.0140559 -0.0376117,-0.0486761 -0.0491875,-0.081432 -0.0500179,0.0193241 -0.0970387,0.0255245 -0.144678,-0.00382744 -0.00619759,-0.00568066 -0.0192197,-0.0142621 -0.0213891,-0.0223212 0.0577662,-0.0232533 0.121114,-0.0364816 0.183219,-0.0406115 0.00557893,-0.0443345 0.0146773,-0.0859771 0.0276967,-0.128764 0.0486733,-0.00268635 0.0974456,-0.00537271 0.146221,-0.00806181 0.0806071,0 0.160802,0.00186148 0.241307,0.00517199 0.0111579,0.0424675 0.0177706,0.0834969 0.0232478,0.127312 0.0474305,0.00444609 0.0900135,0.0110589 0.136204,0.0225302 0.0153977,0.00527372 0.0307982,0.0106437 0.0462977,0.0160109 0,0.0186065 -0.0451593,0.0363826 -0.0577662,0.0414419 -0.0344167,0.00837252 -0.0675878,-0.000514174 -0.099725,-0.0129121 -0.0178834,0.022115 -0.0172592,0.0548682 -0.0405098,0.0745085 -0.0217025,0.00960983 -0.0338943,0.0114686 -0.0520828,-0.00382744 0.0404025,-0.00991779 0.0546674,-0.017152 0.0678957,-0.0571476 0.0010256,-0.00495752 0.00206495,-0.00991779 0.00309879,-0.0147736 0.0138497,-0.00413539 0.0156039,-0.00351398 0.0156039,-0.0179823 -0.0244934,-0.0536363 -0.0980698,0.0274904 -0.116052,0.0443345 -0.0231516,0.0170502 -0.0368913,0.0193241 -0.0656191,0.0193241 -0.0200528,-0.00558443 -0.0309027,-0.0160191 -0.0393742,-0.0349281 -0.00216943,-0.00868322 -0.00423713,-0.0173637 -0.00630207,-0.0259397 0.0378234,-0.00186423 0.075952,-0.00392642 0.113259,-0.0109544 0.000310704,-0.00155077 0.000720394,-0.00310154 0.00113833,-0.00454508 -0.00134455,-0.000415189 -0.00258462,-0.000833127 -0.00382469,-0.00113833 -0.0373037,0.00453958 -0.0745058,0.00826803 -0.112021,0.00950535 -0.000514174,-0.00816355 -0.0010311,-0.0163271 -0.00144354,-0.0243862 0.0348264,-0.00310154 0.0766752,-0.00372295 0.110366,-0.0138497 0.000929363,-0.0026836 0.000929363,-0.0026836 0,-0.00403091 -0.00836977,-0.00020622 -0.00836977,-0.00020622 -0.0485688,0.00558168 -0.0206715,0.00113833 -0.0412357,0.0023784 -0.0617971,0.00361847 0,-0.0100278 0,-0.0200528 0,-0.0300696 0.035544,-0.00299706 0.07089,-0.00692898 0.106126,-0.0124062 0.000621408,-0.000723143 0.00124282,-0.00144354 0.00196596,-0.00206495 -0.000313454,-0.00123732 -0.000516924,-0.00248013 -0.000723143,-0.00361572 -0.0357585,0.00392642 -0.071407,0.00733592 -0.107369,0.00940086 -0.000310704,-0.00919464 -0.000621408,-0.0182903 -0.000932113,-0.027386 -0.00206495,-0.00185598 -0.00206495,-0.00185598 -0.00402816,-0.0013418 -0.000316203,0.0095081 -0.000621408,0.0191179 -0.000830378,0.0287278 -0.036993,-0.0013418 -0.0735791,-0.00402816 -0.110366,-0.00795733 -0.000932113,0.000313454 -0.00186148,0.000723143 -0.0026891,0.00113833 0,0.00113558 0,0.00237565 0,0.00361847 0.0373065,0.00661277 0.0751299,0.0107454 0.113055,0.0118865 0,0.0100168 0,0.0200418 0,0.0300696 -0.0368913,-0.00165526 -0.0726415,-0.00588963 -0.109228,-0.0108499 -0.00165801,0.000305205 -0.00331051,0.000618659 -0.00496027,0.000923864 0.00020347,0.00413814 0.00020347,0.00413814 0.00216668,0.00620309 0.0367896,0.00640656 0.0733702,0.00919739 0.110575,0.0124034 0,0.00805906 0,0.0162226 0,0.0243862 -0.0352388,-0.00144629 -0.0699579,-0.00423438 -0.104996,-0.00806181 -0.00216393,0.000313454 -0.00423713,0.000618659 -0.00630207,0.000932113 0.000310704,0.00154802 0.000621408,0.00320328 0.000932113,0.00485853 0.0362726,0.00485578 0.0724436,0.00805631 0.108922,0.0108499 -0.00682449,0.0255217 -0.0159174,0.0399874 -0.0353433,0.0579724 -0.060766,0.0195304 -0.0891831,-0.0228409 -0.132797,-0.0616927 -0.0223185,-0.0143639 -0.0637603,-0.027287 -0.0637603,0.0135363 0.00331051,0.00568341 0.00961258,0.00620034 0.0157084,0.00826803 0.00713245,0.0449531 0.0260414,0.0583849 0.0684127,0.0652039 -0.00433886,0.0145756 -0.0265556,0.0165388 -0.0387528,0.0171602zm0.344433 -0.0243944c-0.00020622,-0.00257912 -0.000412439,-0.00516374 -0.000618659,-0.00774561 0.0320328,-0.00610135 0.0394759,-0.0162254 0.0437103,-0.0482636 0.00330776,-0.000929363 0.00661827,-0.00185873 0.0100223,-0.00278534 -0.0023729,0.0240782 -0.00547444,0.0415409 -0.0286233,0.0537353 -0.0081663,0.00165251 -0.0163271,0.00330226 -0.0244906,0.00505925zm-0.327174 -0.00288707c-0.0255245,-0.00992329 -0.0385466,-0.0236685 -0.0379279,-0.0522918 0.00299706,-0.000313454 0.0060986,-0.000618659 0.00919464,-0.000830378 0.00351673,0.0328632 0.0157139,0.0404053 0.0473315,0.0445434 0,0.00278809 0,0.00568341 0,0.00857873 -0.00619759,0 -0.0124007,0 -0.0185983,0zm-0.101996 -0.130625c-0.0878413,-0.0101268 -0.162454,-0.0308999 -0.178677,-0.12773 0,-0.0401991 0,-0.0401991 0.00144629,-0.0516704 0.00568341,-0.0064093 0.0183948,-0.0258324 0.0265556,-0.0265556 0.0191207,0.0162254 0.0263576,0.0246969 0.0380296,0.0467101 0.0477467,0.0593115 0.118532,0.0461904 0.18736,0.0401963 -0.0114741,0.0394759 -0.0214963,0.0784349 -0.0272842,0.119049 -0.0158129,0 -0.0316231,0 -0.0474305,0zm0.4981 0c-0.00671726,-0.040925 -0.0142649,-0.081432 -0.0229399,-0.121939 0.0281036,0.000618659 0.05621,0.0013418 0.0844235,0.0020622 0.0428909,-0.00413264 0.0651049,-0.0113641 0.0970387,-0.0410239 0.00599137,-0.0095081 0.0119855,-0.0190162 0.0179796,-0.0285243 0.0244961,-0.0123979 0.0287305,-0.0220105 0.0507465,0.000827628 0.00402541,0.0402046 0.000824878,0.0659298 -0.0157112,0.103033 -0.00650829,0.0081608 -0.0129176,0.0164288 -0.0193269,0.0246969 -0.0568369,0.0463994 -0.120493,0.0573538 -0.19221,0.0608678zm-0.671712 -0.193764c0.00754214,-0.0393714 0.0210839,-0.0747147 0.0358575,-0.111917 0.000929363,0 0.00186423,0 0.00289257,0 -0.00040969,0.03762 0.000412439,0.0727488 0.00599687,0.11016 -0.00547994,-0.00475405 -0.0177761,-0.0190134 -0.0246996,-0.0190134 -0.00671726,0.00692348 -0.0134318,0.0138497 -0.0200473,0.0207704zm0.852553 -0.00568066c0.00455058,-0.0361709 0.00568891,-0.0712035 0.0064093,-0.107682 0.0187082,0.0324507 0.0283181,0.0717177 0.0380296,0.107682 -0.00620034,-0.00413264 -0.0123979,-0.0081663 -0.0186038,-0.0121945 -0.0114686,0.00423713 -0.0114686,0.00423713 -0.0258352,0.0121945zm-0.831582 -0.280951l0.0326487 0.0147186c-0.00278259,0.0172015 -0.0091369,0.0313261 -0.0190712,0.0422805 -0.010058,0.0110341 -0.0239407,0.0165746 -0.0415931,0.0165746 -0.0240974,0 -0.0419286,-0.00807006 -0.0535291,-0.0242102 -0.0116363,-0.0160989 -0.0174352,-0.0357172 -0.0174352,-0.0588523 0,-0.0233413 0.00570816,-0.0431549 0.0170942,-0.0594572 0.0113861,-0.0162913 0.0261651,-0.0244384 0.0443675,-0.0244384 0.0147791,0 0.0268113,0.00466331 0.0360692,0.0140422l0 -0.0108004 0.0302043 0 0 0.0588578 -0.0313756 0c-0.00160576,-0.00731942 -0.00435261,-0.0131321 -0.00821304,-0.0173637 -0.00385218,-0.00415189 -0.00826528,-0.00625258 -0.0132008,-0.00625258 -0.0136352,0 -0.020424,0.0150293 -0.020424,0.0450521 0,0.0301053 0.00703346,0.0451731 0.0211334,0.0451731 0.0123732,0 0.020149,-0.0117903 0.0233248,-0.035324zm0.127642 0.0710413l-0.06618 0 0 -0.0386043 0.0095026 0 0 -0.0839754 -0.00965933 0 0 -0.0386043 0.0663367 0 0 0.0385631 -0.00804806 0 0 0.0245676 0.0291237 0 0 -0.0245676 -0.0081443 0 0 -0.0385631 0.0662735 0 0 0.0386043 -0.00950535 0 0 0.0839754 0.00950535 0 0 0.0386043 -0.0662735 0 0 -0.0386043 0.0081443 0 0 -0.0264209 -0.0291237 0 0 0.0264209 0.00804806 0 0 0.0386043zm0.178432 0l-0.0716709 0 0 -0.0386043 0.0115675 0 0 -0.0839754 -0.0115675 0 0 -0.0386043 0.0716709 0 0 0.0386043 -0.0114768 0 0 0.0839754 0.0114768 0 0 0.0386043zm0.127367 -0.0710413l0.0326432 0.0147186c-0.00277434,0.0172015 -0.00913415,0.0313261 -0.0190712,0.0422805 -0.0100553,0.0110341 -0.0239407,0.0165746 -0.0415876,0.0165746 -0.0240947,0 -0.0419286,-0.00807006 -0.0535319,-0.0242102 -0.011628,-0.0160989 -0.0174297,-0.0357172 -0.0174297,-0.0588523 0,-0.0233413 0.00570266,-0.0431549 0.0170915,-0.0594572 0.0113806,-0.0162913 0.0261624,-0.0244384 0.0443675,-0.0244384 0.0147763,0 0.026814,0.00466331 0.0360664,0.0140422l0 -0.0108004 0.030207 0 0 0.0588578 -0.0313784 0c-0.00160576,-0.00731942 -0.00435261,-0.0131321 -0.00821029,-0.0173637 -0.00385493,-0.00415189 -0.00826253,-0.00625258 -0.0132008,-0.00625258 -0.013638,0 -0.0204267,0.0150293 -0.0204267,0.0450521 0,0.0301053 0.00703071,0.0451731 0.0211334,0.0451731 0.0123759,0 0.0201518,-0.0117903 0.0233276,-0.035324zm0.113171 -0.049248l-0.011848 0.0446232 0.0225247 0 -0.0106767 -0.0446232zm-0.011848 0.120289l-0.0497952 0 0 -0.0385658 0.00959333 0 0.023575 -0.0840139 -0.0101213 0 0 -0.0386043 0.0904012 0 0 0.0386043 -0.0101213 0 0.0240397 0.0840139 0.00922214 0 0 0.0385658 -0.0656273 0 0 -0.0353213 0.0110204 0 -0.00478704 -0.020292 -0.0321785 0 -0.00552394 0.020292 0.0103027 0 0 0.0353213zm0.201262 -0.0555336l-0.0128379 0 0 -0.0305755 0.056221 0c0,0.0176029 -0.000956859,0.0306937 -0.00290082,0.0392752 -0.00185048,0.00826803 -0.00576865,0.0166515 -0.0117545,0.025156 -0.00583189,0.00842751 -0.0128956,0.0145591 -0.0212269,0.0184333 -0.00833127,0.00383843 -0.017251,0.0057769 -0.0267508,0.0057769 -0.0141632,0 -0.0270313,-0.00300806 -0.0386016,-0.00905716 -0.0116308,-0.00585664 -0.0206082,-0.0155847 -0.026935,-0.0291567 -0.00638731,-0.0133658 -0.00959059,-0.0283593 -0.00959059,-0.0449724 0,-0.0250763 0.00644505,-0.0453271 0.0193406,-0.0607138 0.0127774,-0.015384 0.0284473,-0.0230581 0.0470236,-0.0230581 0.0154857,0 0.0276142,0.00482004 0.0364074,0.0144739l0 -0.0112321 0.0302978 0 0 0.0563254 -0.0302978 0c-0.00265336,-0.00696472 -0.0060766,-0.0121807 -0.0103357,-0.0157442 -0.00425912,-0.00355798 -0.00919464,-0.00533971 -0.0148698,-0.00533971 -0.00796283,0 -0.013792,0.00332151 -0.0175287,0.00997003 -0.00367071,0.00664852 -0.00552668,0.0188292 -0.00552668,0.0365889 0,0.0176771 0.00194671,0.0297039 0.00580164,0.0360307 0.00389068,0.0064093 0.00960158,0.00961258 0.0170695,0.00961258 0.0113201,0 0.0169952,-0.00728093 0.0169952,-0.0217933zm0.129432 -0.025475c0,0.0179136 0.00136105,0.0300228 0.00407765,0.0362726 0.00255987,0.00632957 0.00662927,0.00949435 0.0121862,0.00949435 0.00549094,0 0.00959608,-0.00304655 0.0123099,-0.0091369 0.00268635,-0.00621133 0.00404465,-0.0183948 0.00404465,-0.0366301 0,-0.0176799 -0.0013253,-0.0297451 -0.00398416,-0.0361517 -0.00259012,-0.00632957 -0.00669526,-0.0094916 -0.0123704,-0.0094916 -0.00543045,0 -0.00950535,0.0030438 -0.0121862,0.0091369 -0.0027166,0.0061261 -0.00407765,0.0182738 -0.00407765,0.0365064zm-0.0546069 0c0,-0.0134483 0.00255712,-0.0264621 0.00767962,-0.0390415 0.005062,-0.0124969 0.0129313,-0.0230581 0.0236053,-0.0316451 0.00379444,-0.00300256 0.00768512,-0.00537546 0.011694,-0.00715444 0.00401166,-0.00178174 0.00836427,-0.00316753 0.0130798,-0.00411614 0.00468806,-0.000984355 0.00962633,-0.00146003 0.0148121,-0.00146003 0.0225522,0 0.0399846,0.008466 0.0523275,0.0253898 0.00617284,0.00830927 0.0108004,0.0173692 0.0139459,0.0270973 0.00311254,0.00972807 0.00469081,0.0200528 0.00469081,0.0309302 0,0.0224669 -0.00639006,0.0420083 -0.0191619,0.0586214 -0.0127746,0.016613 -0.0300503,0.0249196 -0.0518024,0.0249196 -0.0210426,0 -0.0380709,-0.00779235 -0.0511562,-0.023421 -0.0131403,-0.0155022 -0.0197146,-0.0355578 -0.0197146,-0.0601199zm-0.673948 0.225475l0 0.0317248 0.0109186 0c0.00700597,0 0.012035,-0.00114933 0.015087,-0.00348374 0.0030273,-0.00229316 0.00453958,-0.00640656 0.00453958,-0.0122604 0,-0.00549644 -0.00136105,-0.00953284 -0.00407215,-0.0121422 -0.0027166,-0.00257362 -0.00796008,-0.00383843 -0.0157387,-0.00383843l-0.0107344 0zm0 -0.0587368l0 0.0293904 0.0107344 0c0.00731392,0 0.0120982,-0.00135005 0.0143831,-0.0040364 0.00215568,-0.00273035 0.00326377,-0.00624983 0.00326377,-0.0106822 0,-0.0037587 -0.0010146,-0.00715444 -0.00299156,-0.0101625 -0.00200445,-0.00300531 -0.0074349,-0.00450933 -0.0163518,-0.00450933l-0.00903792 0zm0.0115703 0.125821l-0.0711485 0 0 -0.0385658 0.0109186 0 0 -0.0840166 -0.0109186 0 0 -0.0386016 0.0768264 0c0.0150568,0 0.0267206,0.00110809 0.0349886,0.00336275 0.0081443,0.00233441 0.0145289,0.00692348 0.0191564,0.0138057 0.00463032,0.00700047 0.00697847,0.01523 0.00697847,0.0245649 0,0.00909566 -0.00222717,0.0163738 -0.00660728,0.0217905 -0.00453133,0.00553493 -0.00999478,0.00941736 -0.0164453,0.0115538 0.00885644,0.0033985 0.0156424,0.00865847 0.0204295,0.0157799 0.00480904,0.00723418 0.00721494,0.0153867 0.00721494,0.0244439 0,0.0107949 -0.0027166,0.0200143 -0.0081443,0.0275674 -0.0054002,0.00751189 -0.0128654,0.0124199 -0.0223075,0.0147186 -0.00934862,0.00240864 -0.0229894,0.00359647 -0.0409415,0.00359647zm0.103822 -0.122582l-0.00965658 0 0 -0.0386016 0.0643625 0 0 0.0386016 -0.00595837 0 0 0.0543485c0,0.0129781 0.000962358,0.0217933 0.00287333,0.0265006 0.00194396,0.00463307 0.00539745,0.00697022 0.0103935,0.00697022 0.00417113,0 0.00719019,-0.00198521 0.00904342,-0.00589788 0.00188347,-0.00387693 0.00280734,-0.0117903 0.00280734,-0.023773l0 -0.0581484 -0.00632407 0 0 -0.0386016 0.0472683 0 0 0.0386016 -0.00993428 0 0 0.0583849c0,0.0149138 -0.00169925,0.0270973 -0.00505925,0.0366301 -0.0033985,0.00941186 -0.00898018,0.0167643 -0.0168193,0.0221122 -0.00783359,0.00533696 -0.0174902,0.00798757 -0.0289395,0.00798757 -0.00919464,0 -0.0173664,-0.00142429 -0.0244989,-0.00427012 -0.00722318,-0.00281284 -0.0129258,-0.00704446 -0.017152,-0.0127801 -0.00422888,-0.00561742 -0.00731392,-0.0124639 -0.00932113,-0.0204845 -0.0020347,-0.00779785 -0.00308504,-0.0197806 -0.00308504,-0.035918l0 -0.0516621zm0.258896 0.122582l-0.119682 0 0 -0.0385658 0.0112926 0 0 -0.0840166 -0.0112926 0 0 -0.0386016 0.0718607 0 0 0.0386016 -0.0119415 0 0 0.0839781 0.0297424 0 0 -0.0258297 0.0300201 0 0 0.064434zm0.141992 0l-0.119682 0 0 -0.0385658 0.0112926 0 0 -0.0840166 -0.0112926 0 0 -0.0386016 0.0718579 0 0 0.0386016 -0.0119442 0 0 0.0839781 0.0297451 0 0 -0.0258297 0.0300228 0 0 0.064434zm0.0523908 0l-0.0282906 0 0 -0.0516951 0.0282906 0c0.00339575,0.0140807 0.00975281,0.0211224 0.0190987,0.0211224 0.00672826,0 0.0101213,-0.00348099 0.0101213,-0.0104485 0,-0.00363771 -0.00117133,-0.00663752 -0.00354698,-0.00901317 -0.00252963,-0.00265611 -0.00783909,-0.00625258 -0.0159834,-0.0109186 -0.010245,-0.00593088 -0.0177734,-0.0110726 -0.0226182,-0.0153895 -0.00450384,-0.00395117 -0.00835877,-0.00941186 -0.0115703,-0.0163711 -0.00317578,-0.00684374 -0.00478154,-0.0144766 -0.00478154,-0.0228244 0,-0.0149908 0.00379719,-0.0266986 0.0113861,-0.0351233 0.00752839,-0.00842476 0.0168138,-0.0126206 0.0278644,-0.0126206 0.0110121,0 0.0203635,0.00403915 0.0280101,0.0120652l0 -0.00996728 0.0284775 0 0 0.0458825 -0.0281036 0c-0.00345624,-0.0126949 -0.00953559,-0.0190272 -0.0182656,-0.0190272 -0.00614259,0 -0.00922764,0.00336275 -0.00922764,0.0100855 0,0.00324452 0.000866122,0.00569991 0.00262311,0.00732217 0.00169375,0.00169925 0.0071242,0.00541945 0.0163546,0.0112321 0.0123704,0.00787484 0.0206082,0.013649 0.0247738,0.0172482 0.00209794,0.00177624 0.00425637,0.00426737 0.00648079,0.00747615 0.00218868,0.00320053 0.00400616,0.00652479 0.00546069,0.00992054 0.00329951,0.00755864 0.00496302,0.0157497 0.00496302,0.0245704 0,0.0135253 -0.00391817,0.0249553 -0.0117518,0.0343314 -0.00783909,0.00949435 -0.0177101,0.0142347 -0.0296516,0.0142347 -0.0110754,0 -0.0211334,-0.00423163 -0.0301136,-0.0126564l0 0.0105639z"/>
 </g>
</svg>
