<?xml version="1.0" encoding="UTF-8"?>
<!DOCTYPE svg PUBLIC "-//W3C//DTD SVG 1.1//EN" "http://www.w3.org/Graphics/SVG/1.1/DTD/svg11.dtd">
<!-- Creator: CorelDRAW -->
<svg xmlns="http://www.w3.org/2000/svg" xml:space="preserve" width="5548in" height="7180in" style="shape-rendering:geometricPrecision; text-rendering:geometricPrecision; image-rendering:optimizeQuality; fill-rule:evenodd; clip-rule:evenodd"
viewBox="0 0 195.469 102.096"
 xmlns:xlink="http://www.w3.org/1999/xlink">
 <defs>
  <style type="text/css">
   <![CDATA[
    .fil0 {fill:#0A0B0C}
   ]]>
  </style>
 </defs>
 <g id="Layer_x0020_1">
  <metadata id="CorelCorpID_0Corel-Layer"/>
  <path class="fil0" d="M0 0l195.469 0 0 102.096 -195.469 0 0 -102.096zm2.51647 0l189.669 0 0 57.5898 -189.669 0 0 -57.5898zm55.3142 46.3396c0,1.59222 -0.943099,3.03477 -2.83045,4.3284 -1.88697,1.29325 -3.99134,1.94007 -6.31388,1.94007l-22.8179 0c-2.26444,0 -4.35457,-0.646817 -6.27078,-1.94007 -1.91583,-1.29363 -2.87393,-2.73618 -2.87393,-4.3284l0 -35.4611c0,-1.59222 0.958105,-3.03477 2.87393,-4.3284 1.91621,-1.29325 4.00634,-1.94007 6.27078,-1.94007l22.8179 0c2.32254,0 4.42691,0.646817 6.31388,1.94007 1.88735,1.29363 2.83045,2.73618 2.83045,4.3284l0 11.7008 -18.289 0 0 -5.43273 -4.52888 0 0 22.9245 4.52888 0 0 -5.43234 18.289 0 0 11.7008zm20.4669 6.20883l-18.3764 0 0 -10.8054 18.3764 0 0 10.8054zm20.3792 0l-18.289 0 0 -47.998 18.289 0 0 47.998zm20.4665 0l-18.3764 0 0 -10.8054 18.3764 0 0 10.8054zm53.7355 -7.9996l-5.31267 0 0 7.9996 -18.289 0 0 -7.9996 -4.52888 0 0 7.9996 -18.289 0 0 -7.9996 -5.22571 0 0 -12.5369 5.22571 0 0 -21.1333c0,-1.59222 0.943484,-3.03477 2.83045,-4.3284 1.88697,-1.29325 3.99172,-1.94007 6.31388,-1.94007l22.8183 0c2.26405,0 4.35418,0.646817 6.2704,1.94007 1.91583,1.29363 2.87393,2.73618 2.87393,4.3284l0 21.1333 5.31267 0 0 12.5369zm-23.6017 -12.5369l0 -14.8653 -4.52888 0 0 14.8653 4.52888 0zm-132.936 48.6198l5.85599 0.283969c-0.385166,5.72439 -1.43793,10.1444 -3.14905,13.2684 -1.71074,3.11519 -3.94324,4.67702 -6.6975,4.67702 -2.80121,0 -5.14645,-1.775 -7.03111,-5.31614 -1.88466,-3.54999 -2.8293,-7.94304 -2.8293,-13.1972 0,-5.28959 0.963492,-9.73612 2.88586,-13.3481 1.92198,-3.60348 4.29108,-5.40502 7.11114,-5.40502 2.77273,0 5.08527,1.76615 6.94184,5.30729 1.28325,2.44067 2.19479,5.84867 2.72579,10.2152l-5.9922 0.754556c-0.667595,-3.87859 -1.94122,-5.82213 -3.81203,-5.82213 -1.19359,0 -2.17594,0.781106 -2.95127,2.34293 -0.775719,1.55336 -1.16589,3.54114 -1.16589,5.95526 0,2.31638 0.380933,4.24221 1.14203,5.75979 0.761482,1.51796 1.72497,2.27213 2.89048,2.27213 1.18474,0 2.12938,-0.665672 2.82968,-2.00586 0.704919,-1.33096 1.11856,-3.24794 1.24554,-5.74209zm15.6464 -5.45812l0 9.36327 -1.56029 0 0 13.4369 -5.58856 0 0 -35.4918 5.58856 0 0 12.6916 1.56029 0zm6.53782 -12.6916l0 35.4918 -5.58856 0 0 -35.4918 5.58856 0zm9.34826 9.54104l0 25.9508 -5.58856 0 0 -35.4918 7.17732 0c2.18517,0 3.87744,1.02082 5.08065,3.07094 1.33942,2.28983 2.01164,5.19185 2.01164,8.70645 0,3.59463 -0.831897,6.61208 -2.49107,9.0793l3.21946 14.6352 -5.86561 0 -2.71194 -11.4399 0 -9.12393 0.441729 0c1.17512,0 1.76268,-0.95849 1.76268,-2.86662 0,-1.67726 -0.681832,-2.52032 -2.04011,-2.52032l-0.996199 0zm16.8684 -9.54104l0 35.4918 -5.58856 0 0 -35.4918 5.58856 0zm12.5866 -0.159684l0 10.1178c-0.40402,-0.257419 -0.719156,-0.390553 -0.935403,-0.390553 -0.422875,0 -0.789571,0.292819 -1.09009,0.887306 -0.305516,0.586022 -0.455966,1.29594 -0.455966,2.13015 0,0.709921 0.164302,1.61531 0.497907,2.70694l0.427877 1.40214c0.770717,2.52955 1.15627,4.97907 1.15627,7.33085 0,3.45264 -0.648741,6.37236 -1.95046,8.76878 -1.29748,2.38757 -2.88124,3.58539 -4.75667,3.58539 -0.897695,0 -1.79077,-0.390168 -2.66961,-1.17127l0 -10.2687c0.530998,0.639122 1.00582,0.95849 1.41946,0.95849 0.484055,0 0.893077,-0.266269 1.21745,-0.789956 0.324371,-0.532537 0.488672,-1.19782 0.488672,-1.99663 0,-0.514837 -0.26319,-1.6511 -0.784954,-3.39916 -0.836514,-2.77812 -1.25477,-5.54701 -1.25477,-8.32513 0,-3.34567 0.629887,-6.23038 1.89389,-8.64411 1.26439,-2.42297 2.7685,-3.63003 4.52618,-3.63003 0.771102,0 1.52758,0.239719 2.27021,0.727621zm11.0121 10.3483l0 25.3032 -5.58818 0 0 -25.3032 -4.28185 0 0 -10.1886 14.1426 0 0 10.1886 -4.27261 0zm18.9743 -10.1886l0 35.4918 -5.58856 0 0 -35.4918 5.58856 0zm12.5866 -0.159684l0 10.1178c-0.404405,-0.257419 -0.719156,-0.390553 -0.935403,-0.390553 -0.422875,0 -0.789571,0.292819 -1.09047,0.887306 -0.305516,0.586022 -0.455966,1.29594 -0.455966,2.13015 0,0.709921 0.164686,1.61531 0.498292,2.70694l0.427877 1.40214c0.770717,2.52955 1.15588,4.97907 1.15588,7.33085 0,3.45264 -0.648356,6.37236 -1.95046,8.76878 -1.2971,2.38757 -2.88086,3.58539 -4.75628,3.58539 -0.897695,0 -1.79077,-0.390168 -2.66961,-1.17127l0 -10.2687c0.530998,0.639122 1.00582,0.95849 1.41946,0.95849 0.484055,0 0.893077,-0.266269 1.21706,-0.789956 0.324371,-0.532537 0.489057,-1.19782 0.489057,-1.99663 0,-0.514837 -0.26319,-1.6511 -0.784954,-3.39916 -0.836514,-2.77812 -1.25477,-5.54701 -1.25477,-8.32513 0,-3.34567 0.629502,-6.23038 1.89389,-8.64411 1.26439,-2.42297 2.7685,-3.63003 4.52618,-3.63003 0.770717,0 1.52758,0.239719 2.27021,0.727621zm16.6991 17.8392l0 9.36327 -1.61223 0 0 8.44903 -5.58818 0 0 -22.5693c0,-4.36688 0.629887,-7.76604 1.89389,-10.1798 1.25977,-2.42297 3.03631,-3.63003 5.32076,-3.63003 2.20403,0 3.83511,1.10047 4.88788,3.29257 1.05738,2.1921 1.58376,5.57356 1.58376,10.1532l0 22.9333 -5.58818 0 0 -22.2323c0,-1.38444 -0.0892692,-2.35178 -0.26319,-2.88432 -0.173921,-0.541387 -0.484055,-0.807656 -0.935403,-0.807656 -0.874223,0 -1.31133,1.23361 -1.31133,3.69198l0 4.41998 1.61223 0zm9.48948 -17.6795l5.58818 0 0 21.0876c0,1.64186 0.141215,2.74234 0.422875,3.29257 0.277427,0.541387 0.831897,0.816506 1.65918,0.816506l0.291664 0 0 10.2952 -1.48987 0c-2.04011,0 -3.62849,-1.11817 -4.7659,-3.36376 -1.13741,-2.2452 -1.70612,-5.36039 -1.70612,-9.35442l0 -22.7737zm15.4347 0l0 35.4918 -5.58818 0 0 -35.4918 5.58818 0zm17.2678 0l-8.19199 37.5154 -8.13581 -37.5154 6.47202 0 1.71997 11.0763 1.8989 -11.0763 6.23692 0zm11.2518 13.8098l0 7.90764 -3.65157 0c-0.493674,0 -0.846134,0.141984 -1.05276,0.417103 -0.207012,0.275503 -0.310518,0.736856 -0.310518,1.39368 0,0.745321 0.103506,1.23361 0.315136,1.47333 0.211245,0.230484 0.643739,0.345918 1.2971,0.345918l3.76008 0 0 10.1444 -4.39459 0c-2.0632,0 -3.64234,-0.93194 -4.73281,-2.79582 -1.09509,-1.8635 -1.64032,-4.55273 -1.64032,-8.07617l0 -13.9075c0,-3.39916 0.516761,-6.03491 1.54605,-7.90764 1.03429,-1.87273 2.48646,-2.80467 4.35726,-2.80467l4.8644 0 0 10.1886 -3.56731 0c-0.963492,0 -1.44755,0.594872 -1.44755,1.77538 0,0.692221 0.112741,1.17127 0.34284,1.43754 0.230484,0.275119 0.639506,0.408253 1.22668,0.408253l3.08787 0z"/>
 </g>
</svg>
