<?xml version="1.0" encoding="UTF-8"?>
<!DOCTYPE svg PUBLIC "-//W3C//DTD SVG 1.1//EN" "http://www.w3.org/Graphics/SVG/1.1/DTD/svg11.dtd">
<!-- Creator: CorelDRAW -->
<svg xmlns="http://www.w3.org/2000/svg" xml:space="preserve" width="1in" height="2in" style="shape-rendering:geometricPrecision; text-rendering:geometricPrecision; image-rendering:optimizeQuality; fill-rule:evenodd; clip-rule:evenodd"
viewBox="0 0 0.265681 0.281266"
 xmlns:xlink="http://www.w3.org/1999/xlink">
 <defs>
  <style type="text/css">
   <![CDATA[
    .fil0 {fill:black}
   ]]>
  </style>
 </defs>
 <g id="Layer_x0020_1">
  <metadata id="CorelCorpID_0Corel-Layer"/>
  <path class="fil0" d="M0.13406 0.281266c-0.0240399,-0.000927858 -0.048757,-0.00337453 -0.0722311,-0.0110512 -0.0034821,-0.000813979 -0.0034821,-0.000813979 -0.00499986,-0.00103306 -0.00250006,0.000187781 -0.00482155,0.000438155 -0.0073437,-9.41533e-005 -0.009793,-0.00110249 -0.0200447,-0.00852456 -0.025156,-0.020537 -0.00120532,-0.00385082 -0.00185256,-0.00754489 -0.00232122,-0.0116461 2.23548e-005,-0.0011898 6.68015e-005,-0.00139573 0.000111511,-0.00258553 -0.00864291,-0.00165478 -0.0193974,-0.0093843 -0.0219193,-0.0318833 -0.00103516,-0.014881 0.0019738,-0.0266207 0.00813743,-0.0353388 0.00574388,-0.00812428 0.0168371,-0.0134079 0.0246808,-0.0156473 0.00502432,-0.00143465 0.0100365,-0.00164321 0.0151497,-0.00104568 0.00024564,-0.00541592 0.00178576,-0.0106128 0.00390631,-0.0150585 4.47097e-005,-0.000438155 4.47097e-005,-0.000438155 -8.94194e-005,-0.00513425 2.23548e-005,-0.0040073 0.00029035,-0.00829628 -2.20918e-005,-0.0122723 -0.0010491,-0.000594639 -0.00236619,-0.000876573 -0.0034821,-0.00122084 -0.00266417,-0.00086053 -0.00654129,-0.00352575 -0.0100389,-0.0072172 -0.00197985,-0.00208952 -0.00386134,-0.00440653 -0.00518685,-0.00737499 -0.00124845,-0.00279541 -0.00196328,-0.00570759 -0.00314467,-0.0085122 -0.000401861,0.000751386 -0.00102674,0.00172185 -0.00156247,0.00228545 -0.00136154,0.00222286 -0.00296872,0.00428897 -0.00488835,0.00535333 -0.000156221,0.000469715 -0.00151776,0.000845276 -0.00194198,0.000939166 -0.00140625,0 -0.00140625,0 -0.00292401,-0.000187781 -0.0013839,-0.000720089 -0.0013839,-0.000720089 -0.00189727,-0.000876573 0,-6.25936e-005 0,-0.000125187 0,-0.000187781 -0.000468663,-0.000281671 -0.00122768,-0.000970463 -0.0013839,-0.00162796 -6.70645e-005,0 -0.000111511,0 -0.000156221,0 -0.000111511,-0.000312968 -0.000468663,-0.00140888 -0.000736658,-0.00153407 -0.00151776,-0.00463324 -0.00133919,-0.00995553 -0.000691948,-0.0148707 0.000200931,-0.000688792 0.00107145,-0.00350629 0.00203113,-0.00259842 0,0.00234805 -0.000848169,0.00478999 -0.00136154,0.00698129 -8.91564e-005,0.00410119 -8.91564e-005,0.00795201 0.00261157,0.0103627 0.000580437,0.000281671 0.00118297,0.000563605 0.00178576,0.000876573 0.000892879,3.12968e-005 0.00178576,6.25936e-005 0.00270073,9.38903e-005 0.000736658,-0.000250374 0.00149567,-0.000500748 0.00225468,-0.000720089 0.00120532,-0.000782683 0.00345974,-0.00262972 0.00399547,-0.00441416 0.000156221,-9.38903e-005 0.000334797,-0.000438418 0.000513372,-0.000501011 8.91564e-005,-0.000813979 0.000468663,-0.000782683 0.000624884,-0.00150251 0.000111511,-0.000250637 0.00024564,-0.000501011 0.000379506,-0.000720089 0,-0.00494647 -0.000781368,-0.0103314 0.000647238,-0.0149959 0.000825814,-0.00144018 0.00142861,-0.00128369 0.00256686,-0.000657495 0.000982298,0.00319332 0.000491281,0.00585434 8.94194e-005,0.00920415 -0.00116061,0.00529073 -0.00116061,0.00529073 -0.0013839,0.00591693 0,0.000970463 0.000401861,0.00184704 0.000558082,0.0027862 6.68015e-005,3.12968e-005 0.000133866,9.38903e-005 0.000223022,0.000156747 -2.23548e-005,0.000125187 -4.44467e-005,0.000250374 -6.68015e-005,0.000406858 4.44467e-005,0 8.91564e-005,0 0.000133866,0 0.000290087,0.00106435 0.000290087,0.00106435 0.00116061,0.00356889 4.47097e-005,0 8.94194e-005,0 0.000156221,0 0.000334797,0.00115851 0.000334797,0.00115851 0.000647501,0.00194119 4.44467e-005,0 8.91564e-005,0 0.000156221,0 0.000558082,0.00134602 0.00154012,0.00369407 0.00267837,0.00428897 -0.000669593,-0.00313073 -0.000781105,-0.00623016 -0.000825814,-0.00945478 0.000305078,-0.00198564 0.000935484,-0.0062875 0.00267864,-0.00648027 0.000669593,0.000939166 -0.000401861,0.00241064 -0.000535727,0.0033811 -6.70645e-005,0 -0.000111774,0 -0.000156221,0 -2.23548e-005,0.000156484 -4.47097e-005,0.000312968 -4.47097e-005,0.000500748 -0.000781368,0.00165926 -0.000602792,0.00453961 -8.91564e-005,0.00632405 4.44467e-005,0 8.91564e-005,0 0.000133866,0 0.000312442,0.00137758 0.00125003,0.00225416 0.00225442,0.00256713 0,6.25936e-005 0,0.000125187 0,0.000187781 0.00506692,0.000626199 0.00986585,0.000939166 0.0149104,-0.000344265 0.000290087,-0.000219077 0.00116061,-0.000626199 0.00125003,-0.00106435 -0.00184888,-0.00138469 -0.00478104,-0.00453646 -0.00747756,-0.00630301 -0.00206164,-0.00135128 -0.00434236,-0.00431264 -0.00540172,-0.00728426 -4.47097e-005,0 -8.94194e-005,0 -0.000133866,0 -0.000195671,-0.000823447 -0.000554137,-0.00274965 -0.000937588,-0.00328721 -0.000691948,-0.00413249 -0.000781105,-0.00801434 -0.000357151,-0.0122094 0.00104226,-0.00621359 0.00258738,-0.011827 0.0060579,-0.0161005 0.00209189,-0.0025758 0.00531072,-0.00553006 0.00688608,-0.00689844 0.00246508,-0.00214133 0.00542407,-0.00321778 0.00819423,-0.00430055 0.00345974,-0.000845276 0.00667384,-0.00109591 0.0101783,-0.000720089 0.00189727,0.000438155 0.00370538,0.00103306 0.00553559,0.00181574 0,6.25936e-005 0,0.000125187 0,0.000187781 0.00200904,0.000939166 0.00366067,0.00222286 0.00546878,0.00375693 0.000133866,0.000375561 0.000446308,0.000469452 0.000714303,0.000594639 0.000111511,0.000469715 0.000267732,0.000501011 0.000580437,0.000720089 0.000111511,0.000250637 0.00075875,0.000939166 0.00191962,0.00256713 0.000468663,0.000532308 0.000535727,0.000782683 0.0011159,0.00159666 0.00111616,3.12968e-005 0.00254477,0.000344528 0.00359387,-0.000125187 0.00120532,-0.00460194 0.00232122,-0.00942322 0.00361596,-0.0139628 0,-0.000187781 2.23548e-005,-0.000375561 4.47097e-005,-0.000532045 -0.00056755,-0.000484443 -0.00183546,-0.0015033 -0.00171896,-0.00256713 0.00819213,0 0.0164058,-0.000457354 0.024598,-0.000720089 -0.000336901,-0.00756567 0.00117718,-0.0139013 0.00676326,-0.0175317l0.00452883 -0.0176953 0.00471214 0.0179438c0.00673249,0.00265576 0.00799436,0.0095371 0.00763378,0.0175962 0.00866553,0.000726664 0.0178634,8.46854e-005 0.0259595,0.00134629 -0.000227493,0.0028722 -0.00130105,0.00629433 -0.00229913,0.00895377 0.000111774,0.000657232 0.000223285,0.00134602 0.000334797,0.00203482 4.47097e-005,0 8.94194e-005,0 0.000134129,0 0.000111511,0.00169055 0.000736395,0.0034124 0.00109355,0.00500906 4.47097e-005,0 8.94194e-005,0 0.000156484,0 -0.000223285,0.00134629 0.000937325,0.00100176 0.00151776,0.00106435 0.00220971,-3.12968e-005 0.00441942,-6.25936e-005 0.00665175,-6.25936e-005 0.000156221,-0.000281671 0.000245377,-0.000438155 0.000491018,-0.000500748 0,-0.00195644 0.00628092,-0.00683322 0.0073437,-0.00738841 6.68015e-005,-9.38903e-005 0.000156221,-0.000188044 0.000245377,-0.000281934 0.00622753,-0.00313047 0.012165,-0.00360018 0.0185934,-0.00147121 0.00746652,0.00338321 0.0137943,0.00922282 0.0179909,0.0187526 0.00312942,0.00874995 0.00417957,0.021877 -0.00262709,0.0292925 -0.00184309,0.00200799 -0.00428555,0.00351523 -0.00598873,0.00467532 0,6.25936e-005 0,0.000125187 0,0.000187781 -0.000647501,0.000438418 -0.000647501,0.000438418 -0.00218762,0.00175315 0,6.28566e-005 0,0.00012545 0,0.000188044 -0.000446308,0.000375561 -0.00151776,0.000876573 -0.00167398,0.00172185 0.00508928,0.00237934 0.0104907,0.00187833 0.0157809,0.00128343 0.00236619,-0.000939166 0.00294637,-0.0034124 0.00294637,-0.00666832 -8.91564e-005,-0.000406858 -0.000156221,-0.000563342 -8.91564e-005,-0.000970463 -0.000111774,-9.38903e-005 -0.000200931,-0.000187781 -0.00029035,-0.000250374 0.000134129,-0.000813979 -0.000446308,-0.00313073 -0.00095968,-0.00347499 -4.47097e-005,-0.000688792 -4.47097e-005,-0.000688792 4.47097e-005,-0.00137758 0.00154012,-0.00144018 0.00256686,0.00491517 0.00274544,0.00607342 0,0.00300554 0.000133866,0.00695025 -0.000825814,0.00967386 0.000423953,-0.000187781 0.00133919,-0.00112695 0.0014507,-0.00181574 4.47097e-005,-3.12968e-005 8.94194e-005,-6.25936e-005 0.000156221,-9.38903e-005 0.00133945,-0.00281776 0.00408489,-0.00767034 0.00408489,-0.0111453 -0.000178576,-0.000688792 -0.000357151,-0.00137732 -0.000535727,-0.00203482 -4.47097e-005,0 -8.94194e-005,0 -0.000133866,0 0,-0.00021934 0,-0.000407121 2.23548e-005,-0.000594902 -0.000535727,-0.00262972 -0.00270099,-0.0121471 0.000580174,-0.0129298 0.000334797,9.41533e-005 0.000669593,0.000188044 0.00100465,0.000281934 0.00218736,0.00438286 0.0011159,0.0106443 0.0011159,0.0156847 0.000468663,0.00122084 0.00111616,0.00316176 0.00207584,0.00369407 0,0.00112695 0.00194198,0.00256713 0.00247771,0.00309943 0.00283486,0.00159666 0.00575887,0.0021913 0.0083928,-0.000281671 0.00196407,-0.00297425 0.00225442,-0.00669988 0.00167398,-0.0105817 -0.000446308,-0.00165926 -0.00156247,-0.00422638 -0.0010491,-0.00601082 0.00296872,0 0.00247771,0.0090474 0.00234384,0.0115206 -0.000446571,0.00457091 -0.00120532,0.00767034 -0.00430817,0.00983035 -0.00191962,0.000657495 -0.00357125,0.000782683 -0.00546852,0 -0.00177629,7.02205e-005 -0.00646686,-0.00689371 -0.00707597,-0.00792045 -0.000647238,0.0022226 -0.000647238,0.0022226 -0.00140599,0.00432027 -0.00156247,0.00369407 -0.00200904,0.00450805 -0.00220997,0.00519684 -4.44467e-005,0 -8.91564e-005,0 -0.000133866,0 -0.00111616,0.00228545 -0.00294637,0.00432027 -0.00437497,0.00616757 -0.000535727,0.000375561 -0.000915234,0.000719826 -0.00133919,0.00125213 -0.00296872,0.00228545 -0.00611602,0.00488388 -0.00948661,0.00576045 -0.00145622,0.000893668 -0.0018807,0.000485495 -0.00292401,0.00100176 4.47097e-005,0.00172185 -0.000111511,0.00932933 -0.000111511,0.0137751 0.000223022,0.000782683 2.23548e-005,0.0028175 0,0.00366278 0.000111511,0.000250637 0.000223022,0.000532308 0.000334797,0.000813979 4.47097e-005,0 8.91564e-005,0 0.000156221,0 4.47097e-005,0.000250637 0.000178576,0.000438418 0.000178576,0.000720089 0.00169634,0.00432027 0.00258922,0.00848406 0.00305788,0.0133679 0.0013839,-3.12968e-005 0.00332587,0.000219077 0.00462061,-0.000375561 0.000312442,0.000125187 0.00479893,0.000406858 0.00609367,0.000594639 0.000736658,0.00021934 0.000736658,0.00021934 0.00328117,0.000626199 0.00430791,0.0012211 0.008058,0.00281776 0.0120758,0.005291 0.0315942,0.0157397 0.030582,0.0736839 -0.000513372,0.0777031 -0.000173316,0.00413302 -0.00160455,0.0116224 -0.00319017,0.0151605 -0.00345448,0.00770716 -0.01124,0.014882 -0.017309,0.0176524 -0.00698418,0.00318806 -0.0131276,0.00301001 -0.020371,0.000998341 -0.00127212,0 -0.00261157,0.00100176 -0.00379454,0.00162796 -0.00406253,0.00162796 -0.00406253,0.00162796 -0.00850431,0.00325592 -0.0178389,0.00439128 -0.0366806,0.00608499 -0.0546868,0.0068874zm0.0746418 -0.0141506c0.00226915,-0.00211714 0.00857979,-0.00324303 0.00845986,-0.00594823 2.23548e-005,-0.00216027 4.44467e-005,-0.00432027 6.68015e-005,-0.00648054 -6.68015e-005,-3.12968e-005 -0.000133866,-3.12968e-005 -0.000178576,-3.12968e-005 -4.44467e-005,-0.00181574 -6.68015e-005,-0.00363148 -8.91564e-005,-0.00541618 0.000133866,-3.12968e-005 0.000267732,-3.12968e-005 0.000423953,-3.12968e-005 0.00153196,0.000383977 0.0172982,-0.00879282 0.0175223,-0.0116461 6.68015e-005,-3.12968e-005 0.000133866,-6.25936e-005 0.000223285,-6.25936e-005 6.68015e-005,-0.000219077 0.000133866,-0.000438155 0.000200668,-0.000657232 0.00170344,-0.000217236 0.00262551,0.00027194 0.00435262,0.000125187 -0.00195039,0.0187936 -0.0190708,0.0313591 -0.0309817,0.0301483zm-0.156092 0.000501011c-0.00190358,0.000274833 -0.00910447,-0.00214528 -0.0157057,-0.00702442 -0.00660125,-0.00487914 -0.0126026,-0.0122173 -0.0121063,-0.0217778 0.00138206,-0.000129132 0.00334008,-0.000859215 0.00415169,0.000563605 0.00223207,0.00181574 0.0045759,0.00331851 0.00691948,0.00482102 0.00258922,0.0011898 0.00520079,0.00237934 0.00781236,0.00360044 -0.000604107,0.0025019 -0.000926806,0.00459353 -0.000513372,0.00757619 0.00145096,0.00457064 0.00566971,0.00713777 0.00857137,0.00942322 0.00280014,0.00102464 0.00130526,0.000614364 0.00406253,0.00234805 -0.00107119,0.00028246 -0.0020719,0.000546773 -0.00319201,0.000469715zm0.0603115 -0.0211322c-2.20918e-005,-6.25936e-005 -4.44467e-005,-9.38903e-005 -6.68015e-005,-0.000125187 -0.00214291,0 -0.00428582,-0.000250374 -0.00636166,-0.000563605 0,6.25936e-005 0,0.00012545 0,0.000188044 -0.00734343,-0.000782683 -0.00796858,-0.000970726 -0.0106917,-0.00128369 -0.000558082,-0.000156484 -0.00109381,-0.000312968 -0.00162954,-0.000438155 -0.000290087,0.000406858 -0.00290166,-0.000344528 -0.00341503,-0.000407121 -2.23548e-005,-9.38903e-005 -4.47097e-005,-0.000156484 -4.47097e-005,-0.000219077 6.70645e-005,0 0.000133866,0 0.000223285,0 0,-0.000125187 0,-0.00021934 0,-0.000313231 -8.94194e-005,-3.12968e-005 -0.000178576,-6.25936e-005 -0.00024564,-9.38903e-005 -0.000223285,-0.00172185 -0.000558082,-0.00391315 -0.00107145,-0.00550981 4.47097e-005,0 8.94194e-005,0 0.000156221,0 -0.000200668,-0.000970726 -0.000624884,-0.001816 -0.00102674,-0.00266128 -0.000870524,3.12968e-005 -0.00174105,6.25936e-005 -0.00261157,0.00012545 2.23548e-005,0.000219077 4.47097e-005,0.000469452 6.70645e-005,0.000719826 6.70645e-005,3.12968e-005 0.000156221,6.28566e-005 0.00024564,9.41533e-005 0.000200668,0.000594639 0.000334797,0.000688529 0.000334797,0.00090787 0.00100439,0.00178444 0.00165163,0.00438286 0.00154012,0.00669962 -0.00444204,-0.000845276 -0.00444204,-0.000845276 -0.00939719,-0.00197249 -0.00444204,-0.00122084 -0.00888381,-0.00256713 -0.0133035,-0.00397574 -0.00107145,-0.000563605 -0.00107145,-0.000563605 -0.00305788,-0.00131499 -0.00334823,-0.00165926 -0.00671881,-0.00331851 -0.00986611,-0.00566656 -0.000223022,-0.000250374 -0.000580174,-0.000532308 -0.000669593,-0.00090787 0.00433026,-0.00241064 0.00872759,-0.00504036 0.0130802,-0.00735711 0,0.00325592 0,0.00651183 0,0.00979905 0.0235489,0.000312968 0.0471198,0.000626199 0.070691,0.000970463 0.000959943,0.00100176 0.00191962,0.00200378 0.00290166,0.00300554 0,6.25936e-005 0,0.000125187 0,0.000219077 0.00133945,-0.000751386 0.00236619,-0.00266102 0.00363832,-0.00372537 0.0186605,0.000219077 0.0373434,0.000594639 0.0560039,0.00100176 0.000111511,-6.25936e-005 0.000245377,-9.38903e-005 0.000379506,-0.000125187 0,-0.00012545 2.23548e-005,-0.000250637 4.44467e-005,-0.000344528 0.000223285,-3.12968e-005 0.000446571,-6.25936e-005 0.000669856,-6.25936e-005 -0.000200931,-0.00184704 -0.000379506,-0.00369407 -0.000558082,-0.00551007 0,-0.00122084 -0.000200931,-0.00316176 0.000111511,-0.00428897 0.00359361,0.00237934 0.00718748,0.00478999 0.0108034,0.00720063 -0.000982035,0.000563605 -0.00196433,0.00112695 -0.00292401,0.00169055 -0.000401861,0.000782683 -0.00158483,0.00147147 -0.00225442,0.00159666 0,9.38903e-005 0,0.000187781 0,0.000312968 -0.00310259,0.00156537 -0.00624989,0.00309943 -0.00939719,0.00453961 -0.00508928,0.00153407 -0.00508928,0.00153407 -0.00792413,0.00228545 0,-6.28566e-005 0,-0.00012545 0,-0.000188044 0.000156221,0 0.000156221,0 0.000156221,-9.38903e-005 -8.91564e-005,0 -0.000156221,0 -0.000223022,0 -4.47097e-005,0.000125187 -8.94194e-005,0.000250637 -0.000134129,0.000407121 -0.00390605,0.000939166 -0.00785681,0.00203482 -0.0118078,0.00253583 0.00024564,-0.00241064 0.000959943,-0.00450831 0.00167425,-0.00673091 4.44467e-005,-6.25936e-005 0.000111511,-9.38903e-005 0.000178576,-0.00012545 -8.94194e-005,-0.000156484 -0.000156221,-0.000281671 -0.000223285,-0.000406858 -0.000736658,0 -0.0017634,-9.38903e-005 -0.00205349,0.00115824 -6.70645e-005,0 -0.000134129,3.12968e-005 -0.000200931,6.25936e-005 -4.47097e-005,0.000313231 -0.000290087,0.000751386 -0.00122768,0.0040073 -0.000156221,0.000845276 -0.000379506,0.00165926 -0.000669593,0.00244194 -0.000312442,6.25936e-005 -0.000602792,0.000125187 -0.000892879,0.00021934 0,-9.41533e-005 0,-0.000156747 0,-0.00021934 -4.47097e-005,0 -8.94194e-005,0 -0.000133866,0 -2.23548e-005,6.25936e-005 -4.47097e-005,0.000125187 -6.70645e-005,0.00021934 -0.0062946,0.00100176 -0.0126784,0.00175315 -0.0189953,0.00228519 -0.0035489,0.000187781 -0.00732134,0.000594902 -0.0109149,0.000469715 -4.47097e-005,-6.25936e-005 -6.70645e-005,-0.000125187 -8.94194e-005,-0.000187781 -8.91564e-005,9.38903e-005 -0.000178576,0.000219077 -0.000267732,0.000344265 -0.00955183,0 -0.0171288,0.000702468 -0.0284819,-0.000688792zm0.123972 -0.013055c-2.20918e-005,-6.25936e-005 -4.44467e-005,-0.000125187 -6.68015e-005,-0.000187781 -8.94194e-005,0 -0.000178576,0 -0.00024564,3.12968e-005 -2.23548e-005,-0.000156484 -4.47097e-005,-0.000312968 -4.47097e-005,-0.000438155 0.000513372,0 0.000736658,-9.38903e-005 0.00120558,-0.000344528 -6.70645e-005,-9.38903e-005 -0.000111774,-0.000187781 -0.000156484,-0.000250374 0.000200931,-0.000281671 0.000379506,-0.000281671 0.000669856,-0.000250374 -2.23548e-005,-9.38903e-005 -2.23548e-005,-0.000188044 -2.23548e-005,-0.000281934 -0.000647501,-0.000187781 -0.00120532,-0.000375561 -0.00187518,-0.000281671 -0.000691948,-0.00197222 -0.000356889,-0.00435157 -0.000892616,-0.0062612 0,-0.000281934 0,-0.000563605 2.20918e-005,-0.000813979 0.0010491,-0.000845276 0.00205375,-0.00175341 0.00292428,-0.00291165 8.91564e-005,0 0.000178576,0 0.000267732,0 0.00116061,0.00328721 0.00136154,0.00788942 0.00116061,0.0115209 -0.00095968,0.000312968 -0.00194172,0.000406858 -0.00294637,0.000469452zm0.00537936 -0.00112695c-0.000707202,-0.00297635 -0.00193093,-0.00816478 -0.00229887,-0.0117087 0.000111511,-0.000312968 0.000156221,-0.000501011 0.000156221,-0.000876573 0.000434736,-0.000265891 0.00122031,-0.00174526 0.00189175,-0.00331088 0.00177971,-0.00415011 0.00250585,-0.00990109 0.00261709,-0.0146593 0.000379506,-0.00109565 -6.70645e-005,-0.00482128 -6.70645e-005,-0.00616731 -0.000245377,-0.00115851 -0.000513372,-0.00259842 -0.000669593,-0.00378823 -0.00137574,-0.00578885 -0.00348025,-0.0108581 -0.00638481,-0.0148644 -0.00375982,-0.00518606 -0.00849668,-0.00803565 -0.0135583,-0.00887408 -0.00350945,-0.0005807 -0.00547694,-0.000235909 -0.00873943,0.000508901 -2.23548e-005,-0.000532045 -4.47097e-005,-0.00106435 -4.47097e-005,-0.00159666 0.000178576,-0.000845276 0.000379506,-0.00165926 0.000580437,-0.00247323 0,-0.00162796 0.000647238,-0.00328721 0.000513372,-0.00478972 6.68015e-005,-0.000845276 0.000133866,-0.00169055 0.000223285,-0.00250453 0.000156221,-0.00012545 0.000156221,-0.00012545 0.000982035,-0.00021934 0.00808404,-0.00118007 0.0230555,0.00416799 0.0305359,0.00994843 0.0122752,0.00948555 0.0240827,0.0405748 0.00461983,0.0598029 -0.000160955,0.000472608 -0.0012645,0.00132262 -0.00220577,0.00198406 -0.00209873,0.00147437 -0.00575992,0.00326933 -0.00815136,0.00358861zm-0.221671 -0.00181574c-0.0181229,-0.00789941 -0.0235028,-0.0428145 -0.00946925,-0.0605627 0.002251,-0.00284696 0.00522683,-0.00553559 0.00799593,-0.00715381 0.00304604,-0.00262683 0.00825867,-0.00495173 0.0118381,-0.00577097 0.00462219,-0.0010583 0.0123251,-0.00256318 0.0170901,-0.0013355 -0.000200668,0.00424532 0.000924439,0.00764641 0.00156247,0.0116774 -0.00431054,-0.00129553 -0.00881149,-0.00156352 -0.0130876,0.000171212 -0.0065952,0.00267548 -0.010845,0.00848958 -0.0147976,0.0171996 -0.003202,0.00705519 -0.0029803,0.0199216 -0.000395549,0.0272726 0.000356889,0.000250374 0.000580174,0.00100176 0.000647238,0.00153381 0.000736658,0.000688792 0.0014507,0.00291165 0.00194198,0.0040073 0.00052284,0.00532387 -0.00127686,0.00856269 -0.00205375,0.0127733 -0.000178576,0.000125187 -0.000178576,0.000125187 -0.00127212,0.000187781zm0.188234 -0.00601082c-0.000513372,-0.000438418 -0.00127239,-0.000626199 -0.00183047,-0.000876573 -0.00133919,-0.000751386 -0.00265628,-0.00150277 -0.00397311,-0.00225416 -0.00183047,-0.00140888 -0.00363832,-0.0028175 -0.00544643,-0.00422638 -4.47097e-005,-0.000187781 -8.91564e-005,-0.000375824 -0.000133866,-0.000563605 0.000334797,-0.000156484 0.000669593,-0.000281671 0.00102674,-0.000406858 0.000669593,9.38903e-005 0.00169634,0.000500748 0.00254451,0.000688529 0.00334823,-6.25936e-005 0.00669646,-0.000125187 0.0100447,-0.000187781 0.000513372,-0.00181574 0.0010491,-0.00363148 0.00158483,-0.00541592 0.000200668,-0.000281934 0.000491018,-0.000125187 0.00075875,-9.38903e-005 0.00165189,0.000751386 0.00392867,0.00212871 0.00573652,0.00212871 0.000468926,0.000125187 0.000937588,0.000250374 0.00140625,0.000375824 -0.00285695,0.00165926 -0.00591509,0.00244194 -0.00883911,0.00394445 -0.00200878,0.00140888 -0.00236593,0.00397601 -0.00270073,0.00679377 -6.70645e-005,3.12968e-005 -0.000134129,6.25936e-005 -0.000178576,9.38903e-005zm-0.154418 -0.00134629c2.20918e-005,-0.000375561 6.68015e-005,-0.000720089 0.000111511,-0.00106435 -0.000982035,-0.000469715 -0.00200904,-0.000563605 -0.00305814,-0.000720089 -0.000156221,-0.000344528 -0.000133866,-0.000751386 -0.000133866,-0.00115824 -0.000334797,-0.00021934 -0.000446308,-0.0012211 -0.000580174,-0.00165926 -0.000401861,-0.000626199 -0.000781368,-0.0012524 -0.00116087,-0.0018786 -0.000290087,-3.12968e-005 -0.000446308,-9.38903e-005 -0.000580174,-0.000406858 -0.00033506,-6.25936e-005 -0.00111616,-0.000532308 -0.00337058,-0.00134629 -0.0010491,-0.000970463 -0.00267864,-0.000813979 -0.00372774,-0.00190963 -0.000446308,-3.12968e-005 -0.000848169,-0.000125187 -0.00109355,-0.000594902 0.000312442,3.12968e-005 0.000513372,0.000125187 0.00075875,-0.000125187 0.00247771,0 0.00482155,-0.000782683 0.00716512,-0.00165926 0.000111511,0 0.00024564,0 0.000379506,3.12968e-005 0.000446308,0.00128369 -0.000178576,0.00334981 0.000290087,0.00485258 0.00517843,0 0.0104463,-9.38903e-005 0.0156471,0.000156484 0,0.00162796 -0.000602529,0.00178444 -0.00154012,0.00222286 6.70645e-005,3.12968e-005 0.000133866,6.25936e-005 0.000200931,9.38903e-005 -0.000200931,0.000219077 -0.000200931,0.000219077 -0.000848169,0.000500748 -0.0017634,0.0018473 -0.00468742,0.00341266 -0.00674091,0.00410119 -0.000580437,0 -0.00113852,0.000469715 -0.00171869,0.000563605zm0.180734 -0.00181574c0,-0.00256713 6.70645e-005,-0.00513425 0.000178576,-0.00770138 6.70645e-005,0 0.000134129,0 0.000200931,0 0.000156221,0.000657232 0.00129474,0.00256713 0.00158483,0.0028488 6.70645e-005,0.000312968 0.000156221,0.000626199 0.00024564,0.000939166 0.000133866,0.00187833 -0.00102674,0.00325592 -0.00220997,0.00391341zm0.00328143 -0.00510295c-0.000714303,-0.00175315 -0.00162954,-0.00353785 -0.00252242,-0.00513425 -0.000290087,-0.000344528 -0.000290087,-0.000532308 -0.000290087,-0.00103332 0.00189727,-0.00216 0.00388369,-0.00428897 0.00582567,-0.00635509 8.94194e-005,0.000219077 8.94194e-005,0.000219077 0.000133866,0.00106435 -6.68015e-005,0.00234805 -0.000914971,0.0110199 -0.00314704,0.0114583zm-0.0228346 -0.000407121c0,-3.12968e-005 0,-6.25936e-005 0,-0.000125187 2.23548e-005,0 4.44467e-005,0 6.68015e-005,0 0,3.12968e-005 0,6.25936e-005 0,0.000125187 -2.23548e-005,0 -4.44467e-005,0 -6.68015e-005,0zm-0.190422 -0.00134602c-0.00174105,-0.00203508 -0.00334797,-0.00983035 -0.00256686,-0.0125855 0.000602792,0.000188044 0.00200904,0.0018786 0.00229913,0.00272387 0.000424216,0.00316203 0.000669593,0.00648054 0.000669593,0.0097049 -0.000133866,3.12968e-005 -0.000267732,9.41533e-005 -0.000401861,0.000156747zm0.194707 -0.00569786c-0.00187491,-0.000375824 -0.00412933,-0.000594902 -0.00584803,-0.00184704 0,-0.00112721 0.000669593,-0.00253609 0.00100439,-0.00356915 -0.000156221,-0.00244194 -0.000290087,-0.00488388 -0.000424216,-0.00729452 -0.000133866,-0.000219077 -0.000133866,-0.000219077 -0.000267732,-0.00115824 -0.00272308,9.38903e-005 -0.00544643,0.000187781 -0.00816951,0.000312968 -0.000223285,-0.0015651 -0.000625147,-0.0034437 -0.000357151,-0.00504036 0.00247771,0 0.00486599,0.00100202 0.00723192,0.00200378 0.00377586,0.00176524 0.00804853,0.00500222 0.0123436,0.00801434 0,6.25936e-005 0,0.00012545 0,0.00021934 0.000401861,0.000375561 0.000781368,0.000625936 0.00102701,0.00122084 -0.000669856,0 -0.00207611,0.000281671 -0.00232148,0.00131499 -0.000781368,0.000344265 -0.00125003,0.00259842 -0.00154012,0.00350629 -0.000312442,0.0028488 -0.000691948,0.00225416 -0.00267864,0.00231675zm-0.177966 -0.00153407c-0.000334797,-0.000626199 -0.000379243,-0.00162796 -0.000491018,-0.00241064 -0.000290087,-0.000939166 -0.000290087,-0.000939166 -0.000290087,-0.00131499 -0.000223285,-0.000344265 -0.000223285,-0.000344265 -0.00107145,-0.00225389 -0.000848169,-0.000720089 -0.0013839,-0.00109591 -0.00234384,-0.00134629 0,-6.25936e-005 0,-0.000125187 0,-0.000187781 0.000915234,-0.000876573 0.00183047,-0.00234805 0.00292428,-0.00262972 0.000401598,-0.000688792 0.00095968,-0.000688792 0.00127212,-0.0012524 0.00223233,-0.00137732 0.00446439,-0.00272361 0.00674117,-0.00397601 0.000111511,3.12968e-005 0.000223022,6.25936e-005 0.000334797,9.41533e-005 -2.23548e-005,0.000563342 8.91564e-005,0.00190963 -0.000134129,0.00237908 0.000379506,0.00106462 6.70645e-005,0.00281776 6.70645e-005,0.0040386 0.000647238,0.00090787 0.000357151,0.00438313 0.000357151,0.00560396 0.000580437,0.000813979 8.91564e-005,0.00131499 -0.000156221,0.00206611 -0.000803459,0.000250637 -0.00160718,0.000532308 -0.00241064,0.000813979 -0.00160718,0.00021934 -0.00319201,0.000344528 -0.00479919,0.000375824zm-0.00734343 -9.38903e-005c-6.70645e-005,-6.25936e-005 -0.000134129,-0.000125187 -0.000200931,-0.000187781 0,-0.000250637 0,-0.000469715 0,-0.000688792 0.000267732,-0.000375824 0.000446308,-0.000501011 0.000781105,-0.000720089 4.47097e-005,3.12968e-005 8.94194e-005,6.25936e-005 0.000156221,9.38903e-005 2.23548e-005,0.000469715 8.94194e-005,0.000939166 0,0.00140888 -0.000245377,3.12968e-005 -0.000491018,6.25936e-005 -0.000736395,9.38903e-005zm-0.00263393 -0.000407121c-0.000647501,-0.000438155 0.00214265,-0.00363148 0.00245535,-0.0040386 6.68015e-005,3.12968e-005 0.000133866,6.28566e-005 0.000200668,9.41533e-005 0,9.38903e-005 0,0.000187781 0,0.000281671 -0.000245377,0.000344265 -0.000267732,0.000594902 -0.000379243,0.00106435 -0.000379506,0.000813979 -0.000379506,0.000813979 -0.000937588,0.00241064 -0.000178576,0.000125187 -0.000178576,0.000125187 -0.00133919,0.000187781zm0.204082 -0.000625936c0.000312705,-0.00256739 0.000312705,-0.00256739 0.000915234,-0.00613627 -6.68015e-005,-9.38903e-005 -0.000111511,-0.000187781 -0.000156221,-0.000250374 -0.000290087,0.000250374 -0.000870524,0.00122084 -0.00133919,0.00175315 -0.000669593,0.00131499 -0.00191962,0.00275491 -0.00294637,0.0033811 -4.47097e-005,6.25936e-005 -6.70645e-005,0.000156484 -8.94194e-005,0.000250374 -0.000558082,0 -0.00214291,-0.00212871 -0.00223207,-0.00253583 -0.000424216,-0.000375561 -0.00127239,-0.000970463 -0.00158483,-0.00156537 -0.00637797,-0.00558713 -0.00672986,-0.00686557 -0.0113744,-0.0091334 -0.00319701,-0.00156063 -0.00742312,-0.00255713 -0.0102548,-0.005205 0,-0.000438155 0.00252242,-0.00162796 0.00301343,-0.00194093 0.000424216,-0.000501011 0.000759013,-0.000751386 0.00165189,-0.00181574 0.000892616,-0.00134629 0.00151776,-0.00281776 0.002165,-0.00435183 0.000580437,-0.000813979 0.000937588,-0.00313047 0.00113852,-0.00422638 0.00397311,-0.00153407 0.00852666,-0.000469452 0.0123659,0.00131499 0.00226494,0.00137995 0.00551639,0.00365646 0.00799856,0.00663018 0.00318938,0.0038211 0.00596191,0.0121739 0.00628671,0.0179454 -0.000803459,0.0012211 -0.00191962,0.00313073 -0.00305788,0.00366304 -0.000379506,0.00090787 -0.0017634,0.00197222 -0.00250006,0.00222286zm-0.205667 -0.000720089c-0.0010491,-0.00103332 -0.0020982,-0.00203508 -0.00312494,-0.00303684 -0.00102674,-0.00125213 -0.0020314,-0.00275491 -0.00294637,-0.00416379 -8.94194e-005,0 -0.000178576,3.12968e-005 -0.00024564,6.25936e-005 8.94194e-005,0.00137758 0.000223285,0.00190963 0.000223285,0.00219156 -4.47097e-005,3.12968e-005 -8.94194e-005,6.25936e-005 -0.000111774,9.38903e-005 -0.000647238,-0.000563605 -0.00100439,-0.0011898 -0.00147305,-0.00203508 -0.000156221,-0.00262972 0.000602529,-0.00529073 0.0013839,-0.00763878 4.47097e-005,-3.12968e-005 8.91564e-005,-6.25936e-005 0.000156221,-9.38903e-005 0.000647238,-0.00397601 0.00312494,-0.00757619 0.00504457,-0.010425 0.000156221,-0.000156747 0.000312442,-0.000281934 0.000491018,-0.000407121 0.00185282,-0.00241064 0.00388396,-0.00388212 0.00616073,-0.00551007 0.000892879,-0.000312968 0.000892879,-0.000312968 0.00296872,-0.00140862 0.00325881,-0.000970463 0.00683033,-0.00137758 0.0101115,-0.000313231 0.000223022,0.000313231 0.000870524,0.000344528 0.00122768,0.000532308 0,0.00212897 0,0.00212897 8.91564e-005,0.00316203 -0.000178576,0.00178444 -8.91564e-005,0.00388185 -6.70645e-005,0.00572915 -0.000156221,0.000312968 -0.000156221,0.000312968 -0.00107119,0.00137732 -0.000111774,0.0018786 -0.000111774,0.00375693 -8.94194e-005,0.00563526 -4.47097e-005,0.000187781 -6.68015e-005,0.000375824 -8.91564e-005,0.000563605 -0.000200931,0.000219077 -0.000870524,0.000438155 -0.00493306,0.00266102 -0.00024564,0.000219077 -0.00024564,0.000219077 -0.000759013,0.000406858 -0.000267732,0.000782683 -0.00214265,0.00112721 -0.00232122,0.00194119 -0.00252242,0.00169055 -0.00558029,0.00425768 -0.00761169,0.00710647 -0.0018302,0.00212897 -0.00263366,0.00319332 -0.00279015,0.00328721 -6.68015e-005,0.00021934 -6.68015e-005,0.00021934 -0.000223022,0.000281934zm0.011473 -0.000313231c0,-3.12968e-005 0,-6.25936e-005 0,-9.38903e-005 2.23548e-005,0 4.47097e-005,0 8.91564e-005,0 0,3.12968e-005 0,6.25936e-005 0,9.38903e-005 -2.23548e-005,0 -4.44467e-005,0 -8.91564e-005,0zm-0.0180356 -0.00100176c0,-3.12968e-005 0,-6.25936e-005 0,-9.38903e-005 2.23548e-005,0 4.47097e-005,0 8.94194e-005,0 0,3.12968e-005 0,6.25936e-005 0,9.38903e-005 -2.23548e-005,0 -4.47097e-005,0 -8.94194e-005,0zm0.005893 -0.0040699c0,-3.12968e-005 0,-6.25936e-005 0,-0.000125187 2.20918e-005,0 4.44467e-005,0 8.91564e-005,0 0,3.12968e-005 0,6.25936e-005 0,0.000125187 -2.23548e-005,0 -4.47097e-005,0 -8.91564e-005,0zm0.172587 -0.00460194c-0.000111511,-0.00021934 -0.000111511,-0.00021934 -0.000178576,-0.0012524 2.23548e-005,-0.00178444 4.47097e-005,-0.00356889 6.70645e-005,-0.00532203 0.000491018,-0.000876573 0.00136154,0.000782683 0.00154012,0.00131473 -6.70645e-005,0.00165926 0.000267995,0.00360044 0.000468663,0.0052597 -0.000647238,0 -0.00127212,0 -0.00189727,0zm0.00881701 -0.000813979c-6.70645e-005,-3.12968e-005 -0.000111774,-6.25936e-005 -0.000156221,-9.38903e-005 0,-9.41533e-005 0,-0.000156747 0,-0.00021934 4.44467e-005,0 0.000111511,3.12968e-005 0.000178313,6.25936e-005 -2.20918e-005,6.25936e-005 -2.20918e-005,0.000156747 -2.20918e-005,0.000250637zm0.00180785 -0.042045c-0.000401598,-0.000939166 -0.00167398,-0.00190963 -0.0018302,-0.0028175 -0.000826077,-0.00021934 -0.0013839,-0.00140888 -0.00216526,-0.00175315 2.23548e-005,-0.00012545 4.47097e-005,-0.000250637 8.94194e-005,-0.000375824 0.000535727,-0.000187781 0.000870524,-0.000939166 0.00147305,-0.00109565 0.000133866,-0.000626199 0.000781368,-0.00131499 0.00113852,-0.00172185 0.000669593,-0.00140888 0.000870524,-0.00162796 0.00102674,-0.00206638 4.47097e-005,0 8.91564e-005,0 0.000133866,0 0.000312442,0.000657495 0.000468663,0.00200378 0.000848169,0.00241064 0.000468663,0.00169055 0.00111616,0.00419508 0.00100439,0.00604212 0.000803722,0.00112721 -0.00158483,0.00137758 -0.00171869,0.00137758zm-0.160154 -0.00813979c-0.000379506,0 -0.00178576,3.12968e-005 -0.00203113,-0.000312968 0.000513372,-0.00178444 0.0011159,-0.00350629 0.00180785,-0.00519684 0.000315072,-3.94497e-006 0.0023541,0.00461404 0.00292428,0.00541592 -0.000915234,3.12968e-005 -0.00180811,6.25936e-005 -0.00270099,9.38903e-005zm0.159998 -0.0302109c-4.47097e-005,-0.00153407 4.47097e-005,-0.00641794 0.000133866,-0.00720063 0.00133945,-6.25936e-005 0.00267864,-9.38903e-005 0.00401782,-0.000125187 0,6.25936e-005 0,0.000125187 0,0.000187781 4.47097e-005,0 8.94194e-005,0 0.000156221,0 0,-6.25936e-005 0,-0.000125187 0,-0.000187781 0.00285721,-0.000156484 0.00537936,-0.000845276 0.008058,-0.00222286 0.000111511,0 0.00024564,0 0.000379506,3.12968e-005 4.47097e-005,0.000469715 8.91564e-005,0.000939429 0.000156221,0.00140888 -0.000468663,0.00134629 -0.00156247,0.00237934 -0.00241064,0.00316203 -0.00334823,0.00241064 -0.00669646,0.00435157 -0.010491,0.00494647zm-0.160935 -0.00140888c-0.000424216,-9.38903e-005 -0.000848432,-0.000156484 -0.00125003,-0.000219077 0,-6.25936e-005 0,-0.000125187 0,-0.000187781 -0.00024564,-3.12968e-005 -0.000491018,-3.12968e-005 -0.000736658,-3.12968e-005 -2.23548e-005,-6.25936e-005 -4.47097e-005,-0.00012545 -4.47097e-005,-0.000188044 -0.000245377,-3.12968e-005 -0.000491018,-6.25936e-005 -0.000736658,-9.38903e-005 0,-9.38903e-005 0,-0.000156484 0,-0.000219077 -0.00075875,-0.000281671 -0.00151776,-0.000563605 -0.00225442,-0.000813979 0,-6.25936e-005 0,-0.000125187 0,-0.000187781 -0.00154012,-0.000782683 -0.00301317,-0.00165926 -0.00450884,-0.00256713 0,-6.25936e-005 0,-0.000125187 0,-0.000188044 -0.000111511,0 -0.000200931,0 -0.000290087,0 -2.23548e-005,-9.38903e-005 -4.47097e-005,-0.000187781 -6.70645e-005,-0.000250374 -0.000133866,-6.25936e-005 -0.000267732,-0.000125187 -0.000401598,-0.000156484 -2.23548e-005,-9.38903e-005 -4.47097e-005,-0.000156484 -4.47097e-005,-0.000219077 -8.94194e-005,-3.12968e-005 -0.000178576,-6.25936e-005 -0.00024564,-9.38903e-005 0,-0.000407121 -0.000535727,-0.000407121 -0.000624884,-0.000813979 -8.94194e-005,0 -0.000156221,0 -0.000223285,0 -0.000357151,-0.000782683 -0.00122768,-0.0012524 -0.00129448,-0.00225416 -6.70645e-005,0 -0.000111774,0 -0.000156221,0 0,-0.000125187 0,-0.000219077 0,-0.000312968 -4.47097e-005,0 -8.94194e-005,0 -0.000134129,0 0,-0.000156747 0,-0.000281934 0,-0.000407121 -6.68015e-005,0 -0.000111511,0 -0.000156221,0 -0.000178576,-0.00109565 -0.000178576,-0.00109565 -0.000156221,-0.00175315 4.47097e-005,0 8.94194e-005,0 0.000156221,0 2.23548e-005,6.25936e-005 4.47097e-005,0.000156484 6.70645e-005,0.000250374 8.91564e-005,0 0.000178576,0 0.000290087,0 0,6.25936e-005 0,0.000125187 0,0.000187781 0.000513372,0.000344528 0.000513372,0.000344528 0.000803722,0.000407121 0,6.25936e-005 0,0.000125187 0,0.000219077 0.000245377,6.25936e-005 0.000491018,0.000125187 0.000736395,0.000187781 0,6.28566e-005 0,0.00012545 0,0.00021934 0.000178576,3.12968e-005 0.000379506,6.25936e-005 0.000580437,9.38903e-005 0,6.25936e-005 0,0.000125187 0,0.000187781 0.000624884,0.000187781 0.00113826,0.000469715 0.00174105,0.000532308 0,6.25936e-005 0,0.000125187 0,0.000187781 0.000178576,0 0.000379506,0 0.000580437,0 0,6.25936e-005 0,0.000125187 0,0.000219077 0.00196407,0.000250374 0.00196407,0.000250374 0.00218736,0.000187781 0,6.25936e-005 0,0.00012545 0,0.00021934 0.00265628,6.25936e-005 0.00531256,0.000125187 0.00799094,0.000187781 0,0.000751386 -0.000468663,0.00169055 -0.000691948,0.00234805 -0.000312442,0.00178444 -0.000624884,0.00353759 -0.000825814,0.00532203 -0.000111774,0 -0.000200931,0 -0.000290087,0zm0.157319 -0.0190971c-0.00296872,-0.000281671 -0.0060266,-0.000375561 -0.00886146,-0.00175315 0.0017634,0 0.00334823,-0.000187781 0.00506692,-0.000657495 0.00075875,-0.000469452 0.00075875,-0.000469452 0.00131683,-0.000626199 0,-9.38903e-005 0,-0.000156484 0,-0.000219077 0.0013839,-0.000970463 0.00287957,-0.00250453 0.00363832,-0.00438286 4.47097e-005,0 8.94194e-005,0 0.000133866,0 0.000558082,-0.00144018 0.00107145,-0.00288036 0.00154038,-0.00438286 4.44467e-005,0 8.91564e-005,0 0.000133866,0 -0.000156221,0.00118954 0.000624884,0.00272361 0.000982035,0.00375667 0.000424216,0.00256713 0.000312442,0.00522814 -0.000401598,0.00767008 -0.000178576,6.28566e-005 -0.000178576,6.28566e-005 -0.000647501,0.000532308 -0.000982035,0 -0.00194198,3.12968e-005 -0.00290166,6.25936e-005zm0.00522314 -0.00109565c0.000111511,-0.000751386 0.000223285,-0.00150277 0.000334797,-0.00222286 0.000379506,-0.000532045 0.000223285,-0.0040073 -2.23548e-005,-0.00472739 8.94194e-005,-0.000532045 -0.000178576,-0.000751123 -6.70645e-005,-0.00128343 -0.000669593,-0.000939166 -0.000825814,-0.00444546 -0.002433,-0.00350629 0.000223285,-0.00200378 0.000379506,-0.0040386 0.000491281,-0.00607368 -8.94194e-005,-0.00106435 -8.94194e-005,-0.00106435 -2.23548e-005,-0.00184704 -0.000824762,-0.0088917 -0.0032141,-0.0159458 -0.00897323,-0.020506 -0.000937325,-0.000563342 -0.00187491,-0.00109565 -0.00279015,-0.00162796 -0.0011159,-0.000406858 -0.0011159,-0.000406858 -0.0014507,-0.000625936 -0.000826077,-0.000156484 -0.00256713,-0.000125187 -0.00321436,-0.000813979 -0.00127239,0.000375561 -0.00263393,-0.000156484 -0.00388396,0.000532045 -0.00296872,0.000438418 -0.00638375,0.00234805 -0.00839253,0.00551007 -2.23548e-005,-0.000156484 -2.23548e-005,-0.000312968 -2.23548e-005,-0.000469715 -0.00158483,-0.000156484 -0.00158483,-0.000156484 -0.0020314,-0.000281671 -0.000423953,-0.000594902 -0.00131683,-0.000312968 -0.00189727,-0.000406858 -2.23548e-005,-6.25936e-005 -4.44467e-005,-0.00012545 -6.68015e-005,-0.000156747 0.000334797,-0.000156484 0.000602529,-0.000500748 0.000803459,-0.000845276 0.0168066,-0.0160374 0.0394726,0.00100439 0.0405317,0.0230731 0.000297451,0.00621281 -0.00228282,0.00988873 -0.00439365,0.0148707 -0.000848432,0.000720089 -0.00151803,0.00128369 -0.00250006,0.00140888zm-0.161382 -0.000407121c-0.00151776,-0.00118954 -0.00136154,-0.00435157 -0.00136154,-0.00648027 0.000133866,-0.000782683 0.000401598,-0.00281776 0.000982035,-0.00335007 0,-0.000657232 0.00024564,-0.00150251 0.000357151,-0.0021913 0.000111511,0.000125187 0.000111511,0.000125187 0.000424216,0.00118954 0.000200668,0.00112721 0.00071404,0.00250453 0.00129448,0.00331851 0.00127239,0.00281776 0.00339294,0.00438313 0.00558029,0.00557267 0.00147332,0.000219077 0.0028125,0.000438418 0.00428555,0.000281671 0,3.12968e-005 0,6.25936e-005 0,0.000125187 -0.000491018,6.28566e-005 -0.00158456,0.000313231 -0.00203113,0.000626199 -0.0031473,0.000626199 -0.00633904,0.000845276 -0.00953105,0.00090787zm-0.00274307 -0.00131841c-0.00463245,-0.00356652 -0.00648764,-0.0108944 -0.00607315,-0.0180632 0.000422112,-0.00730898 0.00324513,-0.0140202 0.00749071,-0.0183028 0.00381794,-0.00385135 0.00913261,-0.00728531 0.013915,-0.00766771 0.00594008,-0.000475501 0.0166307,0.000558608 0.0194861,0.00603107 0.000156221,6.25936e-005 0.000312442,0.000125187 0.000468663,0.000219077 0,9.38903e-005 2.23548e-005,0.000187781 4.47097e-005,0.000313231 -0.00162954,0.000125187 -0.00328117,0.000156484 -0.0049107,0.000156484 -0.00162954,-0.00169055 -0.00290166,-0.00284906 -0.00477684,-0.00388212 -0.00357835,-0.0014052 -0.00722693,-0.00161402 -0.0108253,-0.000391341 -0.00452751,0.00153959 -0.0081177,0.00440154 -0.010663,0.0111848 -0.00122873,0.00327459 -0.00208821,0.00811086 -0.00193435,0.0163327l0.000119401 0.00186387c-0.00272519,0.000477605 -0.00307077,0.0115419 -0.00234121,0.012206zm0.010734 -0.000340846c4.47097e-005,-3.12968e-005 8.91564e-005,-3.12968e-005 0.000156221,-3.12968e-005 -6.70645e-005,0 -0.000111511,0 -0.000156221,3.12968e-005zm0.134708 -0.00109565c-0.00482128,-0.00253583 -0.00968727,-0.00488388 -0.0146203,-0.0068874 -0.000647238,-0.000438418 -0.000937325,-0.000720089 -0.00125003,-0.00159666 4.47097e-005,-6.25936e-005 0.000111774,-0.000125187 0.000178576,-0.000156484 -6.68015e-005,0 -0.000133866,3.12968e-005 -0.000178576,6.25936e-005 4.47097e-005,-0.00162796 0.000111774,-0.00325592 0.000178576,-0.00485258 2.23548e-005,-6.25936e-005 4.47097e-005,-9.38903e-005 8.94194e-005,-0.000125187 -6.70645e-005,-3.12968e-005 -0.000133866,-3.12968e-005 -0.000178576,-3.12968e-005 0.000312442,-0.00413249 0.000312442,-0.00413249 0.000580437,-0.00610498 0.00240249,-0.0104842 0.00727953,-0.0169492 0.0141617,-0.0172774 0.00578123,-0.000275359 0.0119143,0.00441863 0.0142753,0.0119241 0.000781368,0.000532045 0.00131709,0.0068561 0.00140625,0.00788916 0,0.00225416 0,0.00225416 -0.000156221,0.00532229 -0.000290087,0.00187833 -0.00102674,0.00491517 -0.00216526,0.00604212 0,0.000688792 -0.00142834,0.00206638 -0.00191962,0.00231675 -2.20918e-005,6.25936e-005 -4.44467e-005,0.000125187 -6.68015e-005,0.000219077 -0.00477684,0.00334981 -0.0108929,0.00153407 -0.0131473,-0.00557267 2.23548e-005,-6.25936e-005 4.47097e-005,-9.38903e-005 8.94194e-005,-0.000125187 -8.94194e-005,-3.12968e-005 -0.000156221,-6.25936e-005 -0.000223285,-9.38903e-005 -0.000491018,-0.00206611 -0.000937325,-0.00413249 -0.00102674,-0.00638665 -0.000156221,-0.000469452 -0.000267732,-0.000939166 -0.000178576,-0.00150251 6.70645e-005,-3.12968e-005 0.000133866,-6.25936e-005 0.000200931,-6.25936e-005 -8.94194e-005,-6.28566e-005 -0.000178576,-9.41533e-005 -0.00024564,-0.00012545 -4.44467e-005,-0.000876573 8.94194e-005,-0.00137732 -0.000535727,-0.00150251 -0.000937325,0.00184704 -0.000580174,0.00507166 -0.000468663,0.00723166 -4.47097e-005,6.25936e-005 -6.70645e-005,0.000125187 -8.91564e-005,0.00021934 0.000245377,0.000344265 0.000848169,0.0028175 0.000736395,0.00334981 0.000357151,0.000312968 0.000513372,0.00109565 0.000558082,0.00165926 0.000156221,0.000156484 0.000759013,0.00118954 0.000669593,0.00143991 0.000870524,0.00090787 0.00140625,0.00275517 0.00238855,0.0034437 0.000111511,0.000532308 0.00071404,0.000813979 0.0010491,0.00115851 -4.47097e-005,3.12968e-005 -8.94194e-005,6.25936e-005 -0.000111774,0.000125187zm0.0384593 -0.000312968c-0.000669593,-0.00256713 -0.00196407,-0.007451 -0.000691948,-0.00995553 0.000134129,0 0.000267995,0 0.000401861,0 0.000624884,0.000782683 0.000357151,0.00190963 0.000714303,0.0028175 -4.47097e-005,0.00237934 -8.94194e-005,0.00475869 -0.000133866,0.00713803 -0.000111774,0 -0.000200931,0 -0.00029035,0zm-0.165533 -0.000626199c0.000178576,-0.000250374 0.000178576,-0.000250374 0.000714303,-0.000532308 0.000334797,-0.000720089 0.000937588,-0.00140862 0.00151776,-0.00172185 -2.23548e-005,-6.25936e-005 -2.23548e-005,-0.000125187 -2.23548e-005,-0.000187781 0.00156247,-0.00181574 0.00299108,-0.00510295 0.00343765,-0.00792072 4.44467e-005,-0.000125187 8.91564e-005,-0.000250374 0.000133866,-0.000344265 0.000133866,-0.00234805 0.000714303,-0.00588564 -0.000200931,-0.00801461 -0.000267732,0 -0.000267732,0 -0.000379506,0.000156747 -0.000688266,0.00868867 -0.00175525,0.0131299 -0.00776765,0.0163732 -0.00127239,0.000125187 -0.00339294,0.000720089 -0.0045759,-9.38903e-005 -0.002165,0 -0.00410698,-0.00297398 -0.00533465,-0.00516555 2.23548e-005,-0.000125187 4.47097e-005,-0.000250374 6.68015e-005,-0.000344528 -0.000825814,-0.000281671 -0.0013839,-0.00466454 -0.00151776,-0.00541592 -6.70645e-005,-0.00322462 0,-0.00369407 -6.70645e-005,-0.00457091 0.000176735,-0.00305998 0.00167109,-0.00958444 0.00412776,-0.0134518 0.00125687,-0.00197827 0.00333639,-0.00323172 0.0050877,-0.00426609 0.00167188,-0.000987558 0.00326223,-0.00164505 0.00520421,-0.00187991 0.00124977,9.38903e-005 0.00252215,0.000187781 0.00379454,0.000281671 0.00243957,0.001032 0.00430896,0.00232201 0.00642294,0.00422822 0.00182416,0.00164479 0.00416826,0.00464534 0.00505009,0.0116442 0.00109381,0.00388212 0.00109381,0.00923544 0.000848169,0.0133053 -0.000647238,0.000782683 -0.00136154,0.00109591 -0.002165,0.00153407 -0.00339294,0.0012524 -0.00339294,0.0012524 -0.00359387,0.00144018 -0.00189727,0.000813979 -0.0052455,0.00244194 -0.00566945,0.00253583 -0.000200931,0.000563605 -0.00426346,0.00212897 -0.00511163,0.00241064zm-0.0378788 -0.00112695c-0.000335323,-0.000963888 -0.000517054,-0.00907528 0.000557819,-0.0102062 0.000111774,-3.12968e-005 0.000223285,-3.12968e-005 0.000357151,-3.12968e-005 0.00107145,0.00225416 -2.20918e-005,0.00695025 -0.000468663,0.00926674 -0.000133866,0.000156747 -0.000357151,0.00090787 -0.000446308,0.000970726zm0.0560036 -0.00895377c0,-0.000313231 0,-0.000626199 0,-0.000939166 -6.70645e-005,0 -0.000111511,0 -0.000156221,0 0,-0.00259868 -0.000312442,-0.0052597 -0.000513372,-0.00785812 -6.70645e-005,-3.12968e-005 -0.000111774,-6.25936e-005 -0.000156221,-9.38903e-005 -3.44528e-005,-0.000432632 -4.99697e-005,-0.00253583 -0.000334797,-0.00253583 0.000271677,-0.00275754 -0.00165215,-0.00540225 -0.00185282,-0.00776397 0.000401861,0.000469452 0.000803722,0.000939166 0.00122768,0.00140862 0.000599373,0.000840805 0.00392867,0.00508638 0.00392867,0.00663702 -0.000602792,0.00360044 -0.00100465,0.00773293 -0.00200904,0.0111453 -4.47097e-005,0 -8.91564e-005,0 -0.000133866,0zm-0.0190789 0.0380535l7.33765e-005 -0.00427924c0,-0.00135944 -0.000135181,-0.00231754 -0.000405806,-0.00287404 -0.000276148,-0.000556767 -0.000704309,-0.00083949 -0.00128475,-0.00083949 -0.00110433,0 -0.00166215,0.00124083 -0.00166215,0.00371353l0 0.0211953c0,0.00139599 0.00014649,0.00234489 0.00043947,0.00284696 0.00029298,0.000510742 0.000698786,0.000766377 0.00122268,0.000766377 0.000614364,0 0.001037,-0.000310338 0.00126791,-0.000921546 0.000231175,-0.000611471 0.000349262,-0.00151461 0.000349262,-0.00269179l0 -0.00684295 0.00879019 0 0 0.0156021c-0.00104226,0.001305 -0.00216369,0.00233595 -0.00337506,0.00307497 -0.00121163,0.000739025 -0.00240617,0.00125003 -0.00358361,0.00153302 -0.00117771,0.000282723 -0.00230465,0.000428687 -0.0033811,0.000428687 -0.00252426,-8.20554e-005 -0.00456959,-0.000638823 -0.00615284,-0.00168792 -0.00157799,-0.00104016 -0.00274412,-0.00263708 -0.00350498,-0.00478104 -0.000755068,-0.00214422 -0.00113247,-0.00491807 -0.00113247,-0.00831232l0 -0.0205291c0,-0.00905134 0.00350471,-0.0135768 0.0105144,-0.0135768 0.00134655,0 0.00267627,0.000237224 0.00399494,0.000720615 0.0013242,0.000483654 0.00254687,0.00111327 0.0036683,0.00188885 0.00112695,0.000775582 0.00211293,0.00161507 0.00295242,0.00253635l0 0.0130295 -0.00879019 0zm0.0108921 -0.0171901l0.0110554 0 0 0.00831206c-0.000417115,0.00044736 -0.000693,0.000958102 -0.000828444,0.00154222 -0.000135181,0.000583856 -0.000219603,0.00153275 -0.00025353,0.00284669 4.52357e-005,0.000364778 6.75905e-005,0.000967044 6.75905e-005,0.00180653l0 0.0224545 0.00114956 0c0.000867631,-0.000109407 0.00142571,-0.000547299 0.00166793,-0.00131368 0.000242221,-0.00076664 0.00036057,-0.00202561 0.00036057,-0.00377744l0 -0.0077282 0.00791125 0 0 0.0227738 -0.0211303 0 0 -0.0083302c0.000676168,-0.000666174 0.00101438,-0.0018523 0.00101438,-0.00354942l0 -0.00104936 0 -0.0222812c0,-0.00162401 -0.000338216,-0.00275543 -0.00101438,-0.00339425l0 -0.00831206zm0.0405701 0l0.00375824 0.0304384c0.000276148,0.00228098 0.000484706,0.003905 0.000631196,0.0048723 0.00014649,0.000967044 0.000309812,0.00167872 0.000501537,0.00213502 0.00018594,0.000456039 0.000473134,0.00083949 0.000856322,0.00114062l0 0.0083302 -0.0114273 0 0 -0.0083302c0.000659336,-0.000310338 0.000986243,-0.00113142 0.000986243,-0.00245456 0,-0.000666174 -2.26178e-005,-0.00117692 -6.75905e-005,-0.00154196l-0.00436708 0c-1.13089e-005,7.31135e-005 -6.75905e-005,0.000583856 -0.000163322,0.00154196 9.57313e-005,0.00138679 0.000512846,0.00220813 0.0012453,0.00245456l0 0.0083302 -0.00997342 0 0 -0.0083302c0.00036057,-0.000465507 0.000636719,-0.00111327 0.000822658,-0.00195276 0.00018594,-0.00083949 0.000349262,-0.00197065 0.000495752,-0.0034032l0.0038261 -0.0332303 0.0128753 0zm-0.00554453 0.0255021l-0.00152144 -0.013896 -6.75905e-005 -5.47036e-005 -0.00138626 0.0139507 0.0029753 0zm0.0131512 0.00482654l0.00885804 0 0 0.00201667c0,0.000364778 -2.26178e-005,0.000656706 -7.33765e-005,0.000884989 5.62816e-005,0.00142335 0.000197249,0.00251821 0.000422638,0.00327538 0.000230912,0.00076664 0.000721141,0.00116797 0.00147621,0.00121374 0.000524155,0 0.000952316,-0.00033769 0.00128475,-0.00101281 0.000338216,-0.000684321 0.00050706,-0.00162428 0.00050706,-0.00281934 0,-0.000191726 -1.13089e-005,-0.000456302 -3.36638e-005,-0.000802933 -2.26178e-005,-0.000346895 -3.39268e-005,-0.000593061 -3.39268e-005,-0.000739025 -0.000197249,-0.00138705 -0.000574651,-0.00232674 -0.00113826,-0.00282855 -0.000563342,-0.000492859 -0.00161139,-0.00104016 -0.00314967,-0.00164242 -0.00153828,-0.000602266 -0.00288509,-0.00127738 -0.00403465,-0.00203455 -0.0013071,-0.0008579 -0.00228756,-0.00192541 -0.00293006,-0.00320253 -0.000642242,-0.00127738 -0.00105909,-0.00264602 -0.00125082,-0.00411513 -0.000191463,-0.0014599 -0.000315598,-0.00333035 -0.000383188,-0.00561133 0,-0.00926095 0.00336953,-0.013896 0.0101144,-0.013896 0.00398942,0 0.00768586,0.00164216 0.0110891,0.00492701l0 0.0111133 -0.00845749 0 0 -0.00169713c0,-0.00263682 -0.000529941,-0.00401467 -0.00158351,-0.00416063 -0.00121716,0 -0.00187071,0.000948897 -0.00196644,0.00284669 0,0.00109486 0.000140967,0.00197091 0.000416852,0.00262788 0.000276148,0.000656706 0.000952316,0.00124083 0.00201746,0.00175157 0.000219603,0.000118875 0.000873154,0.00042895 0.00194961,0.00093075 0.00108171,0.000492859 0.00194934,0.00093075 0.00261446,0.00129579 0.000664859,0.000364778 0.00127344,0.000775319 0.00182547,0.00122242 0.000896035,0.000720878 0.00163427,0.00154222 0.00222023,0.00245456 0.00058596,0.000912341 0.00104805,0.00218052 0.00139179,0.003814 0.000343739,0.00162401 0.000518369,0.00373168 0.000518369,0.00632274 -7.88994e-005,0.00462614 -0.000811349,0.00816636 -0.00219761,0.0106117 -0.000935221,0.0015964 -0.00219735,0.00280093 -0.00378665,0.00361307 -0.00159456,0.000812138 -0.00338058,0.00121347 -0.00537542,0.00121347 -0.00433868,-0.000145964 -0.0077758,-0.00178839 -0.0103116,-0.00492701l0 -0.0126463zm0.024376 0l0.00885778 0 0 0.00201667c0,0.000364778 -2.26178e-005,0.000656706 -7.33765e-005,0.000884989 5.65446e-005,0.00142335 0.000197249,0.00251821 0.000422638,0.00327538 0.000231175,0.00076664 0.000721404,0.00116797 0.00147621,0.00121374 0.000524155,0 0.000952316,-0.00033769 0.00128475,-0.00101281 0.000338216,-0.000684321 0.000507323,-0.00162428 0.000507323,-0.00281934 0,-0.000191726 -1.13089e-005,-0.000456302 -3.39268e-005,-0.000802933 -2.23548e-005,-0.000346895 -3.36638e-005,-0.000593061 -3.36638e-005,-0.000739025 -0.000197249,-0.00138705 -0.000574914,-0.00232674 -0.00113826,-0.00282855 -0.000563342,-0.000492859 -0.00161165,-0.00104016 -0.00314993,-0.00164242 -0.00153828,-0.000602266 -0.00288483,-0.00127738 -0.00403439,-0.00203455 -0.00130736,-0.0008579 -0.00228782,-0.00192541 -0.00293006,-0.00320253 -0.000642242,-0.00127738 -0.00105936,-0.00264602 -0.00125082,-0.00411513 -0.000191726,-0.0014599 -0.000315598,-0.00333035 -0.000383188,-0.00561133 0,-0.00926095 0.00336953,-0.013896 0.0101141,-0.013896 0.00398942,0 0.00768586,0.00164216 0.0110893,0.00492701l0 0.0111133 -0.00845776 0 0 -0.00169713c0,-0.00263682 -0.000529678,-0.00401467 -0.00158351,-0.00416063 -0.00121689,0 -0.00187071,0.000948897 -0.00196644,0.00284669 0,0.00109486 0.000140967,0.00197091 0.000417115,0.00262788 0.000275885,0.000656706 0.000952316,0.00124083 0.0020172,0.00175157 0.000219866,0.000118875 0.000873417,0.00042895 0.00194961,0.00093075 0.00108171,0.000492859 0.00194961,0.00093075 0.00261446,0.00129579 0.000664859,0.000364778 0.00127344,0.000775319 0.00182573,0.00122242 0.000895772,0.000720878 0.00163401,0.00154222 0.00221997,0.00245456 0.00058596,0.000912341 0.00104805,0.00218052 0.00139179,0.003814 0.000343739,0.00162401 0.000518369,0.00373168 0.000518369,0.00632274 -7.88994e-005,0.00462614 -0.000811349,0.00816636 -0.00219761,0.0106117 -0.000935221,0.0015964 -0.00219735,0.00280093 -0.00378638,0.00361307 -0.00159456,0.000812138 -0.00338084,0.00121347 -0.00537542,0.00121347 -0.00433894,-0.000145964 -0.00777607,-0.00178839 -0.0103116,-0.00492701l0 -0.0126463zm0.0240378 -0.0303287l0.0110215 0 0 0.00820265c-0.000337953,0.000392393 -0.000569128,0.000757435 -0.000698786,0.00107671 -0.000129658,0.000328485 -0.000208295,0.000720878 -0.000236698,0.00117718 -3.36638e-005,0.000446834 -4.49727e-005,0.00123162 -4.49727e-005,0.00234489l0 0.0208668c0,0.00157851 5.07586e-005,0.00260947 0.000157799,0.00309312 0.00010704,0.000474449 0.000383188,0.00113142 0.000822658,0.0019525l0 0.00820265 -0.0109539 0 -6.75905e-005 -0.0083302c0.000405543,-0.000410803 0.000670382,-0.000894194 0.000794517,-0.0014599 0.000118086,-0.000565709 0.000180154,-0.00129579 0.000180154,-0.00219893l0 -0.00158772 0 -0.0205383 0 -0.000985454c0,-0.00168792 -0.000326644,-0.0028559 -0.000974671,-0.00350392l0 -0.00831206zm0.0257843 0.0171901l7.33765e-005 -0.00427924c0,-0.00135944 -0.000135181,-0.00231754 -0.000405806,-0.00287404 -0.000276148,-0.000556767 -0.000704309,-0.00083949 -0.00128475,-0.00083949 -0.00110433,0 -0.00166215,0.00124083 -0.00166215,0.00371353l0 0.0211953c0,0.00139599 0.00014649,0.00234489 0.00043947,0.00284696 0.00029298,0.000510742 0.000698786,0.000766377 0.00122268,0.000766377 0.000614364,0 0.001037,-0.000310338 0.00126791,-0.000921546 0.000231175,-0.000611471 0.000349262,-0.00151461 0.000349262,-0.00269179l0 -0.00684295 0.00879019 0 0 0.0156021c-0.00104226,0.001305 -0.00216369,0.00233595 -0.00337506,0.00307497 -0.00121163,0.000739025 -0.00240617,0.00125003 -0.00358361,0.00153302 -0.00117771,0.000282723 -0.00230465,0.000428687 -0.0033811,0.000428687 -0.00252426,-8.20554e-005 -0.00456959,-0.000638823 -0.00615284,-0.00168792 -0.00157799,-0.00104016 -0.00274412,-0.00263708 -0.00350498,-0.00478104 -0.000755068,-0.00214422 -0.00113247,-0.00491807 -0.00113247,-0.00831232l0 -0.0205291c0,-0.00905134 0.00350471,-0.0135768 0.0105144,-0.0135768 0.00134655,0 0.00267627,0.000237224 0.00399494,0.000720615 0.0013242,0.000483654 0.00254687,0.00111327 0.0036683,0.00188885 0.00112695,0.000775582 0.00211293,0.00161507 0.00295242,0.00253635l0 0.0130295 -0.00879019 0zm-0.142291 0.0343089l0.0110217 0 0 0.00831206c-0.000405806,0.000392393 -0.000670645,0.000866842 -0.000794517,0.00143255 -0.000118349,0.000556504 -0.000202772,0.00139599 -0.000253793,0.00251821 5.10216e-005,0.000145964 7.33765e-005,0.000365041 7.33765e-005,0.000656969l0 0.00503641 0.00340898 0 0 -0.00559318c0,-0.00114036 -5.62816e-005,-0.00198879 -0.000163322,-0.00254556 -0.000112563,-0.000565709 -0.000383188,-0.00106751 -0.000811349,-0.0015054l0 -0.00831206 0.0110215 0 0 0.00831206c-0.000383188,0.00041054 -0.000648027,0.000884989 -0.000783209,0.00141414 -0.000140967,0.000529152 -0.000225389,0.00122268 -0.000264839,0.00208952 4.49727e-005,0.000218814 6.75905e-005,0.000556504 6.75905e-005,0.000985454l0 0.0203195c0,0.00072982 -2.26178e-005,0.00129553 -6.75905e-005,0.00169686 3.94497e-005,0.000967307 0.000123872,0.00173368 0.000259053,0.00229939 0.000135444,0.000574914 0.000400283,0.0010583 0.000788994,0.00146911l0 0.0083302 -0.0110215 0 0 -0.0083302c0.000647764,-0.000647764 0.000974671,-0.00189779 0.000974671,-0.0037685l0 -0.00777344 -0.00340898 0 0 0.00652367c0,0.0005018 -2.23548e-005,0.000921283 -7.33765e-005,0.00124977 5.10216e-005,0.000994659 0.000140967,0.00177024 0.000270625,0.00232674 0.000135181,0.000565709 0.000388711,0.00104936 0.000777686,0.00144176l0 0.0083302 -0.0110217 0 0 -0.0083302c0.000653813,-0.000638823 0.000980457,-0.00178839 0.000980457,-0.00344896l0 -0.023431c0,-0.000957839 -6.18046e-005,-0.00166951 -0.000196986,-0.00212581 -0.000129658,-0.000447097 -0.000394497,-0.000875784 -0.000783472,-0.00126818l0 -0.00831206zm0.0261339 0l0.0110217 0 0 0.00820239c-0.000338216,0.000392393 -0.000569128,0.000757435 -0.000698786,0.00107671 -0.000129658,0.000328485 -0.000208558,0.000720878 -0.000236698,0.00117718 -3.36638e-005,0.000447097 -4.49727e-005,0.00123162 -4.49727e-005,0.00234489l0 0.0208668c0,0.00157851 5.07586e-005,0.00260973 0.000157799,0.00309312 0.00010704,0.000474449 0.000382925,0.00113142 0.000822658,0.00195276l0 0.00820239 -0.0109539 0 -6.78535e-005 -0.0083302c0.000405806,-0.000410803 0.000670645,-0.000894194 0.000794517,-0.0014599 0.000118349,-0.000565709 0.000180417,-0.00129579 0.000180417,-0.00219893l0 -0.00158772 0 -0.0205383 0 -0.000985454c0,-0.00168792 -0.000326907,-0.0028559 -0.000974934,-0.00350366l0 -0.00831206zm0.013653 0l0.0127457 0c0.00171291,0 0.00314414,0.000191463 0.00428818,0.000565709 0.0011493,0.000373983 0.00214107,0.00116771 0.00298634,0.00239039 0.0010086,0.0015054 0.00166215,0.00328458 0.00197196,0.00534675 0.000310075,0.00205296 0.000462351,0.00452567 0.000462351,0.00739972l0 0.00427924c-7.33765e-005,0.00237224 -0.000276148,0.00440706 -0.000614364,0.00611313 -0.000337953,0.00170633 -0.00087894,0.00308418 -0.0016227,0.00412407 -0.00144254,0.00215343 -0.00367382,0.00322094 -0.00669409,0.00322094l-0.00348236 0c0,0.000365041 -2.26178e-005,0.000665911 -6.75905e-005,0.000884989 3.94497e-005,0.00125003 0.000118349,0.00217158 0.000236698,0.00276464 0.000123872,0.000584119 0.000394497,0.00108566 0.000811349,0.00149646l0 0.0083302 -0.0110215 0 0 -0.0083302c0.000394497,-0.000419745 0.000659336,-0.000903399 0.000788731,-0.00146911 0.000129658,-0.000565709 0.000191726,-0.00133209 0.000191726,-0.00229939l0 -0.00203455 0 -0.0194345 0 -0.000766377c0,-0.00118612 -5.62816e-005,-0.00208926 -0.000174631,-0.00272808 -0.000118349,-0.000629618 -0.000388711,-0.00114956 -0.000805826,-0.00154196l0 -0.00831206zm0.010041 0.00979011l0 0.0136954c0.000428424,0 0.000755068,3.65567e-005 0.000980457,0.000109407 0.000135444,-7.28505e-005 0.000298766,-0.000109407 0.00047892,-0.000109407 0.000540987,-0.000145964 0.000941007,-0.000401335 0.00121163,-0.000739025 0.000270362,-0.000346632 0.000456302,-0.000876047 0.000557819,-0.00159666 0.000101254,-0.000730083 0.000152013,-0.00175183 0.000152013,-0.00309312l0 -0.00333035c0,-0.00329379 -0.000912867,-0.00493621 -0.00273834,-0.00493621l-0.000642504 0zm0.0129487 0.0129929l0.0115004 0 0 0.011104 -0.0115004 0 0 -0.011104zm0.0129542 -0.022783l0.0110215 0 0 0.00831206c-0.000405543,0.000392393 -0.000670645,0.000866842 -0.000794517,0.00143255 -0.000118349,0.000556504 -0.000202772,0.00139599 -0.00025353,0.00251821 5.07586e-005,0.000145964 7.33765e-005,0.000365041 7.33765e-005,0.000656969l0 0.00503641 0.00340898 0 0 -0.00559318c0,-0.00114036 -5.65446e-005,-0.00198879 -0.000163322,-0.00254556 -0.000112826,-0.000565709 -0.000383451,-0.00106751 -0.000811612,-0.0015054l0 -0.00831206 0.0110217 0 0 0.00831206c-0.000383188,0.00041054 -0.000648027,0.000884989 -0.000783472,0.00141414 -0.000140704,0.000529152 -0.000225389,0.00122268 -0.000264576,0.00208952 4.49727e-005,0.000218814 6.75905e-005,0.000556504 6.75905e-005,0.000985454l0 0.0203195c0,0.00072982 -2.26178e-005,0.00129553 -6.75905e-005,0.00169686 3.91867e-005,0.000967307 0.000123872,0.00173368 0.000259053,0.00229939 0.000135181,0.000574914 0.00040002,0.0010583 0.000788994,0.00146911l0 0.0083302 -0.0110217 0 0 -0.0083302c0.000648027,-0.000647764 0.000974934,-0.00189779 0.000974934,-0.0037685l0 -0.00777344 -0.00340898 0 0 0.00652367c0,0.0005018 -2.26178e-005,0.000921283 -7.33765e-005,0.00124977 5.07586e-005,0.000994659 0.000140967,0.00177024 0.000270625,0.00232674 0.000135181,0.000565709 0.000388711,0.00104936 0.000777423,0.00144176l0 0.0083302 -0.0110215 0 0 -0.0083302c0.00065355,-0.000638823 0.000980457,-0.00178839 0.000980457,-0.00344896l0 -0.023431c0,-0.000957839 -6.20676e-005,-0.00166951 -0.000197249,-0.00212581 -0.000129658,-0.000447097 -0.000394497,-0.000875784 -0.000783209,-0.00126818l0 -0.00831206zm0.026269 0.0335586l0 -0.0202009c0,-0.00347631 0.000405806,-0.0062683 0.00121137,-0.00838517 0.000805826,-0.00210767 0.00200615,-0.00363122 0.00360071,-0.00456197 0.00159456,-0.00093075 0.00360071,-0.00139599 0.0060124,-0.00139599 0.00367382,0 0.0063898,0.00106751 0.00814768,0.00321173 0.00175236,0.00214422 0.0026313,0.00585776 0.0026313,0.0111314l0 0.0202009c0,0.00250006 -0.000208295,0.00464402 -0.000630933,0.00644161 -0.000422638,0.00178839 -0.00107067,0.00327564 -0.0019383,0.00444362 -0.000873417,0.00116771 -0.00198906,0.00203455 -0.00334718,0.00260026 -0.00135234,0.000574914 -0.00297504,0.000857637 -0.00486257,0.000857637 -0.00189911,0 -0.00353312,-0.000282723 -0.00489098,-0.000857637 -0.00136365,-0.000565709 -0.00248507,-0.00144149 -0.00336401,-0.00261867 -0.000873417,-0.00117692 -0.00152144,-0.00266417 -0.00194382,-0.00447071 -0.000417115,-0.0018068 -0.000625673,-0.00393261 -0.000625673,-0.00639612zm0.0125484 0.000547299l0 -0.0211953c0,-0.00247271 -0.000574651,-0.00371353 -0.00172395,-0.00371353 -0.00117218,0 -0.00175814,0.00124083 -0.00175814,0.00371353l0 0.0211953c0,0.0024088 0.00058596,0.00361333 0.00175814,0.00361333 0.000568865,0 0.00100281,-0.00031928 0.00129027,-0.000967307 0.000287457,-0.000647764 0.000433684,-0.00152355 0.000433684,-0.00264602zm0.0118276 -0.0341059l0.0127457 0c0.00171291,0 0.00314414,0.000191463 0.00428792,0.000565709 0.00114956,0.000373983 0.00214133,0.00116771 0.00298634,0.00239039 0.00100886,0.0015054 0.00166241,0.00328458 0.00197222,0.00534675 0.000310075,0.00205296 0.000462088,0.00452567 0.000462088,0.00739972l0 0.00427924c-7.33765e-005,0.00237224 -0.000276148,0.00440706 -0.000614101,0.00611313 -0.000338216,0.00170633 -0.000879203,0.00308418 -0.0016227,0.00412407 -0.00144254,0.00215343 -0.00367408,0.00322094 -0.00669436,0.00322094l-0.0034821 0c0,0.000365041 -2.26178e-005,0.000665911 -6.75905e-005,0.000884989 3.94497e-005,0.00125003 0.000118349,0.00217158 0.000236698,0.00276464 0.000123872,0.000584119 0.000394234,0.00108566 0.000811349,0.00149646l0 0.0083302 -0.0110215 0 0 -0.0083302c0.000394234,-0.000419745 0.000659073,-0.000903399 0.000788731,-0.00146911 0.000129658,-0.000565709 0.000191463,-0.00133209 0.000191463,-0.00229939l0 -0.00203455 0 -0.0194345 0 -0.000766377c0,-0.00118612 -5.62816e-005,-0.00208926 -0.000174631,-0.00272808 -0.000118349,-0.000629618 -0.000388711,-0.00114956 -0.000805563,-0.00154196l0 -0.00831206zm0.010041 0.00979011l0 0.0136954c0.000428161,0 0.000755068,3.65567e-005 0.000980457,0.000109407 0.000135181,-7.28505e-005 0.000298503,-0.000109407 0.00047892,-0.000109407 0.000540987,-0.000145964 0.000941007,-0.000401335 0.00121137,-0.000739025 0.000270362,-0.000346632 0.000456565,-0.000876047 0.000557819,-0.00159666 0.000101517,-0.000730083 0.000152276,-0.00175183 0.000152276,-0.00309312l0 -0.00333035c0,-0.00329379 -0.000912867,-0.00493621 -0.0027386,-0.00493621l-0.000642242 0zm-0.0972249 -0.121184l0.00372326 0.0160723 0.012049 0 -0.00974776 0.00993318 0.00372326 0.0160723 -0.00974776 -0.00993318 -0.00974803 0.00993318 0.00372353 -0.0160723 -0.00974803 -0.00993318 0.0120493 0 0.00372326 -0.0160723zm0.064716 0.000600951l0.00372353 0.0160723 0.012049 0 -0.00974803 0.00993318 0.00372353 0.0160723 -0.00974803 -0.00993318 -0.00974776 0.00993318 0.00372326 -0.0160723 -0.00974776 -0.00993318 0.012049 0 0.00372326 -0.0160723zm-0.032253 -0.0331015l0.00820212 0.0316855 0.0265431 0 -0.0214738 0.0195826 0.00820212 0.0316855 -0.0214735 -0.0195826 -0.0214735 0.0195826 0.00820239 -0.0316855 -0.0214738 -0.0195826 0.0265428 0 0.00820212 -0.0316855z"/>
 </g>
</svg>
