<?xml version="1.0" encoding="UTF-8"?>
<!DOCTYPE svg PUBLIC "-//W3C//DTD SVG 1.1//EN" "http://www.w3.org/Graphics/SVG/1.1/DTD/svg11.dtd">
<!-- Creator: CorelDRAW -->
<svg xmlns="http://www.w3.org/2000/svg" xml:space="preserve" width="1.98819in" height="1.98819in" style="shape-rendering:geometricPrecision; text-rendering:geometricPrecision; image-rendering:optimizeQuality; fill-rule:evenodd; clip-rule:evenodd"
viewBox="0 0 0.102261 0.102261"
 xmlns:xlink="http://www.w3.org/1999/xlink">
 <defs>
  <style type="text/css">
   <![CDATA[
    .fil0 {fill:black}
    .fil1 {fill:#333333;fill-rule:nonzero}
   ]]>
  </style>
 </defs>
 <g id="Layer_x0020_1">
  <metadata id="CorelCorpID_0Corel-Layer"/>
  <g id="_414402552">
   <path id="_414404952" class="fil0" d="M0.0428174 0.0332102l-0.000681197 0.0013628c0.00014276,-0.000612956 0.000121903,-0.00121356 0.000681197,-0.0013628zm0.00449238 -1.21498e-006l-0.00108538 0.000273775 0 -0.00013628c0.000699826,0 0.000903537,-0.000446301 0.00125426,-0.000810794l-0.000168882 0.000673299zm-0.00530985 -0.00613118c0,-0.00212479 0.00153715,-0.0037964 0.00340679,-0.00395212 -0.000615993,0.000535602 -0.00156712,0.000647582 -0.00220761,0.00147194 -0.000835904,0.00107627 -0.000755513,0.0018415 -0.00119918,0.00248017zm-0.000409042 -0.000681399l0 0.00027256c0,0.00405215 0.00545119,0.00440368 0.00545119,0.00585983 0,0.00122632 -0.00400233,0.00027256 -0.00472201,0.000286329l-0.000863241 0.00309616 0.00231453 0.000160579 0.000545119 0c0.00352303,0 0.00734372,-0.000737086 0.00713171,-0.00415259 -0.000257777,-0.00415785 -0.00590519,-0.00441705 -0.00590519,-0.00552288 0,-0.000447111 0.000833676,-0.000715419 0.00123077,-0.000731213l0.00312998 0.000322374c6.41913e-005,-0.000771308 0.00119412,-0.00327072 0.00040884,-0.00327072l-0.00381563 0c-0.0023771,0 -0.00490607,0.00134761 -0.00490607,0.00367956z"/>
   <path id="_414404976" class="fil0" d="M0.0523568 0.0261238c0,0.00053054 0.000374415,0.000953959 0.000953756,0.000953959l0.00040884 0c0.000579544,0 0.000953959,-0.000423419 0.000953959,-0.000953959 0,-0.00053054 -0.000374415,-0.000953959 -0.000953959,-0.000953959l-0.000545119 0c-0.000384945,0 -0.000817477,0.000568406 -0.000817477,0.000953959z"/>
   <path id="_414405528" class="fil0" d="M0.0695274 0.0306208l0 0.00027256c0,0.000769688 0.00117407,0.0035125 0.00163536,0.00367956l0.00014681 -3.32094e-005 -0.00110077 -0.00432775c-0.000436784,9.71981e-006 -0.000681399,-4.43466e-005 -0.000681399,0.00040884z"/>
   <path id="_414405480" class="fil0" d="M0.058898 0.0334827c0,-0.000657707 0.00157501,-0.0013464 0.00231655,-0.0013628 3.54368e-005,0.000426254 0.00013628,0.000484168 0.00013628,0.000953959 0,0.00049085 -0.000887743,0.00122652 -0.00122652,0.00122652l-0.000681399 0c-0.000318931,0 -0.000544917,-0.000226188 -0.000544917,-0.000545119l0 -0.00027256zm0.00122632 -0.00708635c0,-0.000719469 0.000939177,-0.00177164 0.00149908,-0.00177164l0.000817679 0c0.000314071,0 0.00040884,9.49707e-005 0.00040884,0.00040884l0 0.00013628c0,0.000945252 -0.00189354,0.00239533 -0.0027256,0.00258932l0 -0.0013628zm-0.00231655 0.00040884c0,0.00205412 0.000252715,0.00164488 -0.000545119,0.00340679 -0.000439821,0.000971171 -0.00075369,0.00204784 -0.00190792,0.00231676 -0.00138021,-0.000924192 0.000137495,-0.00463331 -0.00258911,-0.00463331 -0.000300504,0 -0.00040884,0.000728176 -0.00040884,0.00109004l0 0.000545119c0,0.00458552 0.00472727,0.00517357 0.00608096,-0.000354773l0.00223171 0.00212641c-0.000221531,0.000829626 -0.00258911,0.000688284 -0.00258911,0.00231676 0,0.000819097 0.000868101,0.0013628 0.00177144,0.0013628l0.00027256 0c0.00133951,0 0.00299816,-0.000804719 0.00299816,-0.0020442l0 -0.000545119c0,-0.000469791 -0.000100843,-0.000527705 -0.00013628,-0.000953959 0.00122085,-0.000101653 0.00408819,-0.00192554 0.00408819,-0.00299795 0,-0.000223151 -8.16059e-005,-0.00040884 -0.00027256,-0.00040884 -0.000177792,0 -0.00213168,0.00286167 -0.00422447,0.00286167 -0.000285114,0 -0.0020444,-0.00200572 -0.00218048,-0.00258911 0.00151103,-0.000352141 0.00290663,-0.00184433 0.00327072,-0.003407 -0.000339991,-0.000642318 -0.000809377,-0.00109024 -0.00177164,-0.00109024 -0.00181943,0 -0.00408819,0.00128484 -0.00408819,0.00299816z"/>
   <path id="_414404736" class="fil0" d="M0.0700725 0.0349816c-0.000615386,-0.00116293 -0.00276306,-0.00391627 -0.00436075,-0.00395191 0,0.00118723 0.00101754,0.00181517 0.00181538,0.00227282 0.000754905,0.000433139 0.00191237,0.00153168 0.00254538,0.0016791z"/>
   <path id="_414404304" class="fil0" d="M0.0204274 0.0253061l0.000440024 0.000161794 -0.000388792 0.00651632 -0.000146607 -6.07488e-007 9.23382e-005 -0.00395333 3.03744e-006 -0.000407422 0 -0.00231676zm0.00630957 -0.0020442l0.000681399 0 -0.000462906 0.00612834 -8.22134e-005 4.04992e-006 -0.00013628 -0.00354307 0 -0.00258932zm0.00599611 0.00381584c0.000408435,-0.000851293 -0.000301314,-0.00395212 0.000545119,-0.00395212 0.000488016,0 -0.00027256,0.00346208 -0.00027256,0.00436096l-0.00027256 -0.00040884zm-0.0152627 -0.00395212l0.000408637 0 -0.000325209 0.00121234 -8.34284e-005 1.41747e-005 0 -0.00122652zm-0.000272762 0.00177164c0,0.00106776 0.0027256,-0.000250083 0.0027256,0.000817679l0 0.00994802 0.003407 0 2.5717e-005 -0.000679982 0.000521832 -0.009557 0.00122389 0.000152682 0.000934722 -2.42995e-006 0.000155517 -0.00149665 0.000104285 6.07488e-007 0.000168274 0.0107651 0 0.000817679 0.003407 0c0,-0.000942822 0.000136482,-0.00162463 0.000136077,-0.00272539 0,-0.000897058 -0.000186499,-0.00231676 0.00040884,-0.00231676l0.00177164 0 0 0.00504215 0.00397905 -6.07488e-007 -0.000299492 -0.0128091 -0.00299816 0c-0.000689702,0 -0.000410055,0.00190265 -0.00040884,0.00258911 2.42995e-006,0.00115281 -0.00013628,0.00179493 -0.0001379,0.00297953l-0.00215557 0.000155922 0.000249273 -0.00572456 -0.0132185 0 0 0.002044 -2.02496e-007 0z"/>
   <path id="_414404880" class="fil0" d="M0.0372301 0.0231257l0.000681399 0 -0.000452579 0.00640171 -9.25407e-005 3.23994e-006 -0.00013628 -0.00449703 0 -0.00190792zm0.00013628 0.0125373l0.00305567 2.83494e-006 0.00062389 -0.012949 -0.00313444 0c-0.00139965,0 -0.00108659,0.000152277 -0.00109024,0.0020442 -2.42995e-006,0.00128342 0.00013628,0.00226856 0.00013628,0.00367935 0,0.00127208 0,0.00254396 0,0.00381584 0,0.00075774 -0.000302732,0.00340679 0.00040884,0.00340679l0 0z"/>
   <path id="_414404184" class="fil0" d="M0.0651667 0.0349816c0.000454604,0.000859191 0.00367773,0.00218999 0.00436075,0.00190792 -0.000472828,-0.000706306 -0.0028151,-0.00218048 -0.00395212,-0.00218048 -2.97669e-005,0 -0.0004056,0.000269522 -0.000408637,0.00027256z"/>
   <path id="_414404640" class="fil0" d="M0.0709267 0.039622l9.69956e-005 0.000121903 0.000411472 -0.00012899c-1.41747e-005,-0.000644342 0.00013871,-0.000534995 -0.00037806,-0.000675527l-0.000130407 0.000682614z"/>
   <path id="_414404472" class="fil0" d="M0.0789303 0.0393426l0 0.00027256c0,0.00038373 5.89264e-005,0.00025231 0.00027256,0.00040884 8.74783e-005,-0.000365505 0.00013628,-0.000256968 0.00013628,-0.000545119 0,-0.000312249 -4.61691e-005,-0.000158554 -0.00013628,-0.000545119 -0.000229631,0.000159567 -0.00027256,1.94396e-005 -0.00027256,0.00040884z"/>
   <path id="_414404328" class="fil0" d="M0.0726617 0.0393426l0 0.00027256c0,0.000364493 0.000196826,0.000402967 0.00040884,0.000545119 7.6341e-005,-0.000109753 0.00027256,-0.000336548 0.00027256,-0.00040884 0,-0.000469791 -0.000100843,-0.000527705 -0.00013628,-0.000953959 -0.000308604,8.24159e-005 -0.000545119,0.000131015 -0.000545119,0.000545119z"/>
   <path id="_414404784" class="fil0" d="M0.0505851 0.0393426c0,0.000476473 0.00147235,0.00243643 0.0020442,0.00258911 -2.75395e-005,-0.00123259 -0.00109024,-0.00151467 -0.00109024,-0.00258911l0 -0.00027256c0,-0.000587239 0.00109024,-0.00106736 0.00109024,-0.0020442l0 -0.000545119c-0.000409245,0.000148227 -0.0020442,0.00235989 -0.0020442,0.00286188z"/>
   <path id="_414404760" class="fil0" d="M0.0521595 0.039299c0.00053378,0.00074964 0.00126661,0.00255165 0.00224123,0.00263265 -9.49707e-005,-0.00114147 -0.00109024,-0.00163819 -0.00109024,-0.00258911l0 -0.00013628c0,-0.000872151 0.00105865,-0.00130185 0.00109024,-0.0027256l-0.00024583 1.90346e-005 -0.0019954 0.00279931z"/>
   <path id="_414404376" class="fil0" d="M0.021286 0.0367532c0,0.000853723 0.00109024,0.00186661 0.00109024,0.00258932l0 0.00027256c0,0.000950314 -0.000953959,0.00103455 -0.000953959,0.00245283 0.000507455,-0.00013547 0.00190792,-0.00197393 0.00190792,-0.00258911 0,-0.000331891 -0.00165014,-0.00280923 -0.00190792,-0.00299816 -2.22746e-006,2.63245e-006 -0.00013628,0.000254335 -0.00013628,0.00027256z"/>
   <path id="_414404856" class="fil0" d="M0.0238751 0.0393426c0,0.00129456 -0.00130225,0.00197231 -0.000953756,0.00272539 0.000596351,-0.000159162 0.00190772,-0.00205959 0.00190772,-0.00258911 0,-0.00065953 -0.00144785,-0.00255388 -0.00190772,-0.00286188 0,0.00158878 0.000953756,0.00174633 0.000953756,0.0027256z"/>
   <path id="_414403896" class="fil0" d="M0.0255105 0.0389337l0 0.000681399c0,0.00108983 -0.000953959,0.00114451 -0.000953959,0.00245283 0.000486193,-0.000175969 0.00190792,-0.00198203 0.00190792,-0.00258911 0,-0.000536615 -0.00155861,-0.0025964 -0.00190792,-0.00299816 0,0.00216671 0.000953959,0.00174774 0.000953959,0.00245304z"/>
   <path id="_414403656" class="fil0" d="M0.0539921 0.0392063l0 0.00013628c0,0.000774952 0.00138264,0.00237366 0.00190772,0.00272539 4.25242e-005,-0.000159769 0.00013628,-0.000371378 0.00013628,-0.00040884 0,-0.000618828 -0.00122632,-0.00156165 -0.00122632,-0.00218028 0,-0.000989193 0.00119351,-0.00151994 0.00122632,-0.00299816 -0.000625105,6.84437e-005 -0.000823956,0.000758955 -0.00111737,0.00119918 -0.000180019,0.000269927 -0.000926622,0.00127451 -0.000926622,0.00152642z"/>
   <path id="_414403968" class="fil0" d="M0.0271458 0.0427493l0.00149908 0 0 -0.00231655 0.00109024 0c0.000313869,0 0.00040884,9.47682e-005 0.00040884,0.00040884l0 0.000817477c0,0.000569216 -0.000414509,0.00109024 0.00027256,0.00109024l0.000817477 0c0.000314071,0 0.00040884,-9.47682e-005 0.00040884,-0.00040884l0 -0.00531471c0,-0.000313869 -9.47682e-005,-0.00040884 -0.00040884,-0.00040884l-0.000817477 0c-0.000662972,0 -0.00027256,0.00113742 -0.00027256,0.00177164 0,0.000312249 -4.63716e-005,0.000158352 -0.00013628,0.000545119l-0.0013628 0 0 -0.00190792c0,-0.000313869 -9.47682e-005,-0.00040884 -0.00040884,-0.00040884l-0.00109024 0 0 0.00613239z"/>
   <path id="_414403872" class="fil0" d="M0.0338233 0.0397512c0,-0.000669452 0.000486801,-0.00149888 0.00109024,-0.00149888l0.000545119 0c0.00190569,0 0.00159364,0.00299795 -0.00013628,0.00299795l-0.00013628 0c-0.000753893,0 -0.0013628,-0.000785887 -0.0013628,-0.00149908zm-0.00149908 -0.000272357l0 0.000681197c0,0.00124454 0.00148814,0.00258932 0.00286188,0.00258932l0.00013628 0c0.00405397,0 0.00374435,-0.00613239 0,-0.00613239 -0.00155011,0 -0.00299816,0.00132534 -0.00299816,0.00286188z"/>
   <path id="_414404112" class="fil0" d="M0.0406371 0.0427493l0.000817679 0c0.00063118,0 0.000290987,-0.000568001 0.000817679,-0.000953756 3.68543e-005,0.000444884 7.9581e-005,0.000953756 0.000544917,0.000953756l0.00118987 -1.35672e-005 0.00221713 -0.00611882 -0.00122652 0c-0.000486396,0 -0.00150252,0.00297345 -0.00163536,0.00354328 -0.00112163,-0.000821729 0.00143509,-0.00354328 0.00027256,-0.00354328l-0.00120971 5.2649e-006 -0.000152885 0.000539855 -0.00027256 0c-3.19944e-005,-0.000384743 3.03744e-006,-0.000545119 -0.00040884,-0.000545119l-0.00122652 0c7.06711e-005,0.000849876 0.000953959,0.00232141 0.000953959,0.00286188 0,0.000353153 -9.13257e-005,0.000139925 -0.00013628,0.000681399l-0.00027256 0c-4.88016e-005,-0.000585011 -0.0010949,-0.00354328 -0.00149908,-0.00354328l-0.00122652 0c1.27573e-005,0.000568204 0.000801479,0.00257291 0.00104792,0.00317676 0.000224973,0.000551599 0.000909612,0.00295563 0.00140512,0.00295563z"/>
   <path id="_414403800" class="fil0" d="M0.0481321 0.0427493l0.00149908 0 0 -0.00572355c0,-0.000313869 -9.47682e-005,-0.00040884 -0.00040884,-0.00040884l-0.00109024 0 0 0.00613239z"/>
   <path id="_414403488" class="fil0" d="M0.0849264 0.0446573c-2.63245e-005,-0.00118521 -0.00328287,-0.00248827 -0.00449703,-0.00258932 0.0002677,0.00100215 0.00306741,0.00258932 0.00449703,0.00258932z"/>
   <path id="_414404160" class="fil0" d="M0.084109 0.0482005c-2.79445e-005,-0.00124657 -0.00118318,-0.00183117 -0.00194538,-0.00241558 -0.00051596,-0.00039588 -0.00199459,-0.00176273 -0.00255186,-0.0018091 0.000799657,0.00119432 0.00272965,0.00422468 0.00449724,0.00422468z"/>
   <path id="_414403464" class="fil0" d="M0.0794755 0.0487455c0.000240363,-0.000227808 0.00040884,-0.000329664 0.00040884,-0.000817477l0 -0.00027256c0,-0.000649405 -0.0010544,-0.00324601 -0.00149908,-0.003407 0,0.00161693 1.07323e-005,0.00392599 0.00109024,0.00449703z"/>
   <path id="_414404136" class="fil0" d="M0.018561 0.056922l-9.31482e-005 -6.07488e-007 -0.000180019 -0.0130819 0.000981701 1.41747e-006 -0.000708534 0.013081 0 0zm-0.000613563 0.00926784l0.00677633 -2.02496e-006 -0.000167262 -0.00749418 0 -0.00163536c0.00116233,0 0.00178035,-0.00014033 0.00286167,-0.000136482 0.000698611,2.63245e-006 0.0027256,0.000284912 0.0027256,-0.000408637l0 -0.00367935c-0.00115261,0 -0.00249354,0.000305972 -0.0036753,0.000412889 -0.00194356,0.000175564 -0.00218453,0.00100114 -0.00218453,-0.00123057l-2.83494e-006 -0.00281227 0.00886082 0.000495508 0 -0.00654123 -0.0155871 8.09984e-007 0.00039264 0.0230309 0 0z"/>
   <path id="_414403056" class="fil0" d="M0.0578078 0.0438396l0.000953959 0 -0.000745388 0.0113066 -7.22911e-005 4.25242e-006 -4.41441e-005 -0.0012247 -9.21357e-005 -0.00177326 0 -0.00831287zm0.00958333 -0.000135672l0.00104609 -6.07488e-007 -0.00117124 0.00804112 0.000125143 -0.00804051zm-0.00999217 0.0211222l0.00529669 -8.09984e-007 0.000290582 -0.00640414 1.61997e-006 -0.00215314 0.00343595 -0.000162807 -0.000167059 0.00694926 0 0.00177164 0.00585983 0c0.000868303,0 0.000269725,-0.00454907 0.00027256,-0.00531471 7.28986e-006,-0.00202678 -7.08736e-005,-0.00404891 -0.000141342,-0.00585477 -7.33036e-005,-0.00187673 0.000143367,-0.00403352 6.27738e-006,-0.00586611 -6.82412e-005,-0.000912042 -0.000137697,-0.00173843 -0.000137495,-0.00286066 6.07488e-007,-0.00145109 0.000326626,-0.00177164 -0.000953756,-0.00177164l-0.00163536 3.72593e-005 -0.00109024 -3.72593e-005 -0.000681399 0c-0.00111616,0 -0.000961654,0.000191359 -0.000952541,0.0015005 6.47987e-006,0.000907182 -0.0001379,0.00152743 -0.000137697,0.0025879 6.07488e-007,0.00192979 -0.000136077,0.00352768 -0.000139925,0.00527968l-0.00339221 0.000307997 0.000397905 -0.00964043 -0.00517843 -3.56393e-005 -0.00013628 0c-0.00101147,0 -0.00141302,-0.00011279 -0.00119817,0.00119695 0.000139317,0.000848864 0.00010793,0.00184373 0.00010793,0.00289144 0,0.00187248 5.1839e-005,0.00451708 8.14034e-005,0.00571829 8.40359e-005,0.00341186 0.000191156,0.00814723 0.000191156,0.0118612z"/>
   <path id="_414402960" class="fil0" d="M0.0497675 0.0533788l0.000545119 0 -0.000567799 0.00194416 2.26796e-005 -0.00126277 0 -0.000681399zm-0.00885779 0.00027256c0,-0.00439396 0.00273775,-0.00817153 0.00626867,-0.00899407 -0.000187309,0.000255753 -0.00164123,0.00103374 -0.00221632,0.00159952 -0.000699826,0.000688689 -0.00123077,0.00119027 -0.00183502,0.00198041 -0.000999926,0.00130772 -0.00208105,0.00316603 -0.00208105,0.00541414l-0.00013628 0zm-0.000817679 -0.000545119l0 0.00218048c0,0.00378749 0.00214585,0.00693853 0.00472282,0.00822337 0.00365424,0.00182206 0.00624538,0.0014521 0.0109488,0.0014521 0.000573064,-0.00108275 0.000331486,-0.00456163 0.00062713,-0.00618666 0.00014033,-0.000771915 0.000156732,-0.00240079 0.000185689,-0.00322131 2.3287e-005,-0.00066439 0.00053378,-0.00272053 -0.00013142,-0.00272053l-0.00681379 0c-0.000606881,0 -0.000544917,0.00286188 -0.000544917,0.00354328l0.00245283 0 0 0.00258911c0,0.000314071 -9.47682e-005,0.00040884 -0.00040884,0.00040884 -0.00257332,0 -0.00476959,-0.002223 -0.00476959,-0.00476959l0 -0.000817679c0,-0.00262658 0.00342968,-0.00504215 0.00613239,-0.00504215l0.0027256 0c0.000469791,0 0.000527502,0.000100843 0.000953959,0.00013628l3.28044e-005 -0.00122794 -0.000171514 -0.00447415 -0.00176921 -0.000157744 -0.00286188 0c-0.00614636,0 -0.0113108,0.00401469 -0.0113108,0.0100843z"/>
   <path id="_414403320" class="fil0" d="M0.034232 0.0439759c-3.23994e-006,-0.000189739 0.000187916,-0.00027256 0.00040884,-0.00027256l0.000545119 0 -0.000709344 0.0119904 -0.000108335 1.82246e-006 -0.00013628 -0.0117197zm-0.000681197 0.00177144l0.00027256 0.0196237 0.00531471 0 0 -0.000681197c0,-0.003018 0.000550182,-0.00760089 0.000545119,-0.0107659 -3.23994e-006,-0.00196259 0.000278635,-0.00380652 0.000272965,-0.00545038 -3.84743e-006,-0.00115706 0.00014195,-0.00183765 0.00013628,-0.00286188 -4.04992e-006,-0.000748628 0.000400537,-0.00245344 -0.000272965,-0.00245344l-0.00626867 0 0 0.00258932 0 -2.02496e-007z"/>
   <path id="_414402936" class="fil0" d="M0.0146085 0.0706859c0.00186074,-0.00124616 0.00931968,-0.0020442 0.0126736,-0.0020442l0.00367935 0c0.000855951,0 0.003407,0.000517985 0.003407,-0.00013628l0 -0.000681399 1.09348e-005 -0.000152885 -0.00886123 -0.000635433 -0.00164305 0.000106918c-0.00198892,0 -0.00391465,0.000198244 -0.0057193,0.000413092 -0.00199418,0.000237123 -0.00381989,0.0001379 -0.00381989,0.00231251l0 0.00027256c0,0.000305567 0.00010793,0.000299087 0.00027256,0.000545119z"/>
   <path id="_414402816" class="fil0" d="M0.0375027 0.0697319l0.000843599 0.00208429 0.000839954 -0.00211689c8.80858e-005,0.000755108 -0.000205938,0.00303056 0.000496925,0.00303056l0.00027256 0c0.000314071,0 0.00040884,-9.47682e-005 0.00040884,-0.00040884l0 -0.00654123 -0.000817679 0c-0.00066196,0 -0.000732226,0.00174795 -0.00122652,0.00231676 -0.000115828,-0.00049733 -0.000594933,-0.00231676 -0.00109024,-0.00231676l-0.000817679 0 0 0.00695007 0.00109024 0 0 -0.00299795z"/>
   <path id="_414402984" class="fil0" d="M0.015835 0.0738201c0.00239047,-0.00126479 0.00840298,-0.002044 0.0121285,-0.002044l0.00422447 0 0.00340538 0.000163617 1.61997e-006 -0.00111758c-0.00123624,-2.75395e-005 -0.00396042,-0.000375428 -0.00532443,-0.000535602 -0.0018822,-0.000220721 -0.00370305,-7.20886e-005 -0.00543621,-4.45491e-006 -0.00209239,8.18084e-005 -0.00347929,0.000179007 -0.00532403,0.000399525 -0.00170097,0.000203509 -0.00381158,0.00010712 -0.00381158,0.00191197l0 0.000545119c0,0.000368138 6.50012e-005,0.000375833 0.00013628,0.000681399z"/>
   <path id="_414403392" class="fil0" d="M0.0414548 0.0657798c-0.000368138,0 -0.000375833,6.52037e-005 -0.000681399,0.00013628 0.000321969,0.000608906 0.00149888,0.00319357 0.00149888,0.00395212l0 0.00286167 0.000681399 0c0.000772725,0 0.000219101,-0.00289448 0.000558687,-0.00380207 0.000250285,-0.00066844 0.00116071,-0.00252047 0.00121295,-0.003148l-0.000953959 0c-0.000647177,0 -0.000436784,0.00102038 -0.00109024,0.00149908 -9.71981e-005,-0.000417749 -0.00036105,-0.00149908 -0.000817679,-0.00149908l-0.000408637 0z"/>
   <path id="_414403104" class="fil0" d="M0.0478595 0.0701408l0.000953959 0c9.01107e-005,0.000386565 0.00013628,0.00023287 0.00013628,0.000545119 0,0.000190954 -0.000185689,0.00027256 -0.00040884,0.00027256l-0.000681399 0 0 -0.000817679zm0.000681399 -0.00177164l-0.000681399 0c-1.27573e-005,-0.000571849 -0.000276002,-0.000817679 0.00027256,-0.000817679l0.000681399 0c9.01107e-005,0.000386767 0.00013628,0.000233073 0.00013628,0.000545119 0,0.000190954 -0.000185689,0.00027256 -0.00040884,0.00027256zm-0.00190772 0.00395212c0,0.000675324 0.0025798,0.000756323 0.00323305,-0.000582581 0.000311439,-0.00063847 0.000173742,-0.00302084 0.000173742,-0.00418721 0,-0.00092237 -0.000334726,-0.00111758 -0.000681399,-0.00163516l-0.00149523 -0.000167262 -0.000821527 3.09819e-005c-0.000313869,0 -0.000408637,9.47682e-005 -0.000408637,0.00040884l0 0.00613239z"/>
   <path id="_414402648" class="fil0" d="M0.0525182 0.0687814l0.00024745 -3.44243e-006 0.000267902 0.00136381 -0.000701851 -4.45491e-006 0.000186499 -0.00135591zm-0.000433949 -0.0030016c-8.78833e-005,0.00105683 -0.000842991,0.00336002 -0.00114471,0.00457904 -9.29457e-005,0.000375833 -0.000584809,0.00211892 -0.000547549,0.00221328 3.74618e-005,9.53756e-005 0.00078204,0.000207761 0.000988788,0.000146405 0.00036915,-0.00010955 0.000328246,-0.000501583 0.000430912,-0.000942417l0.0013628 0c0.000730201,0 0.0001217,0.000953756 0.000953959,0.000953756l0.000408637 0c0.000725138,0 -0.000233073,-0.00259782 -0.000406815,-0.00327234 -0.000203509,-0.00079014 -0.000819502,-0.00272074 -0.000819502,-0.00354145 -0.000305769,-7.10761e-005 -0.000313464,-0.00013628 -0.000681399,-0.00013628l-0.000545119 0z"/>
   <path id="_414403080" class="fil0" d="M0.0563087 0.0727299c0.000702054,0 0.00027256,-0.000705496 0.00027256,-0.0013626l0 -0.003407c0,-0.000313869 9.47682e-005,-0.00040884 0.00040884,-0.00040884l0.000545119 0 0 -0.0013626c0,-0.000314071 -9.47682e-005,-0.00040884 -0.00040884,-0.00040884l-0.00245304 0 0 0.00177144 0.000817679 0 0 0.00476979c0,0.000313869 9.47682e-005,0.000408637 0.00040884,0.000408637l0.00040884 0z"/>
   <path id="_414402696" class="fil0" d="M0.0612146 0.0665975c1.09348e-005,-0.000386362 -2.34895e-005,-0.000817679 -0.00040884,-0.000817679l-0.00218028 0c-0.000314071,0 -0.00040884,9.47682e-005 -0.00040884,0.00040884l0 0.0013628 0.000953959 0 0 0.00517843 0.000817477 0c0.000574886,0 0.000272762,-0.000212216 0.000272762,-0.000545119l0 -0.00463331 0.000953756 0 0 -0.000953959z"/>
   <path id="_414401952" class="fil0" d="M0.061896 0.0723211c0,0.000314071 9.49707e-005,0.00040884 0.00040884,0.00040884l0.00245304 0 0 -0.00177164 -0.00163536 0 0 -0.00476959c0,-0.000314071 -9.47682e-005,-0.00040884 -0.00040884,-0.00040884l-0.00040884 0c-0.000313869,0 -0.00040884,9.47682e-005 -0.00040884,0.00040884l0 0.00613239z"/>
   <path id="_414402216" class="fil0" d="M0.0666658 0.067824c0,-0.000190954 0.000185689,-0.00027256 0.00040884,-0.00027256l0.0013626 0 0 -0.00177164 -0.00286167 0 0 0.00695007 0.00245283 0c0.000314071,0 0.00040884,-9.47682e-005 0.00040884,-0.00040884l0 -0.0013626 -0.00163516 0 0 -0.000817679 0.00122632 0 0.000157744 -0.00176941 -0.00138406 -2.22746e-006c-9.01107e-005,-0.000386565 -0.00013628,-0.000233073 -0.00013628,-0.000545119z"/>
   <path id="_414402000" class="fil0" d="M0.0703451 0.0680966c0,-0.000288354 4.88016e-005,-0.000179614 0.00013628,-0.000545119l0.00040884 0 0.00149665 0.000155517 2.42995e-006 -0.0016546c-0.000409852,-9.53756e-005 -0.00102625,-0.00027256 -0.00149908,-0.00027256 -0.000996888,0 -0.00163536,0.000877618 -0.00163536,0.00190792l0 0.000545119c0,0.000962666 0.000546537,0.00190772 0.00149908,0.00190772l0.00040884 0 0 0.00040884c0,0.00028066 -0.000100641,0.000447516 -0.00040884,0.00040884l-0.00149665 -0.000155517 -2.42995e-006 0.0016546c0.0017765,0.000413902 0.00313444,0.000256968 0.00313444,-0.00190792l0 -0.000544917c0,-0.0017526 -0.0020442,-0.00147721 -0.0020442,-0.00190792z"/>
   <path id="_414401976" class="fil0" d="M0.0805657 0.0404328l-0.000545119 0 0 -0.00040884 0.000545119 0 0 0.00040884zm-0.0118559 -0.0020442l0.000545119 0 0 0.000953959 0.00040884 0 0 -0.000953959 0.000545119 0 0 0.00218048c-0.000334119,7.06711e-005 -0.000545119,0.000231655 -0.000545119,-0.000272762l0 -0.000408637 -0.00040884 0 0 0.000681399c-0.000334119,7.06711e-005 -0.000545119,0.000231655 -0.000545119,-0.000272762l0 -0.00190772zm0.00354328 0.000681399c0,-0.000317919 0.00036348,-0.000681399 0.000681399,-0.000681399l0.00013628 0c0.000327436,0 0.000400537,0.000220721 0.000681399,0.00040884 0,0.00108862 0.000327436,0.00137394 -0.000681399,0.00190792 -0.000508265,-0.000244008 -0.000817679,-0.000161389 -0.000817679,-0.000953959l0 -0.000681399zm0.00613239 0.00040884c0,-0.00063442 0.000390817,-0.000864456 0.000817679,-0.00109024l0.00052406 0.000431924c2.10596e-005,0.000603236 0.000230036,0.00174855 -0.00066034,0.00174855 -0.000303339,0 -0.000681399,-0.000738503 -0.000681399,-0.00109024zm-0.00436096 -0.00109024l0.000681399 0 0.000448326 0.00113661c9.67931e-005,-0.000887338 -0.000115625,-0.00107363 0.000641913,-0.00113661l0 0.00218048 -0.000681399 0 -0.000464121 -0.000997496c-8.09984e-005,0.0008843 0.00013142,0.0010706 -0.000626118,0.00113378l0 -0.00231676zm0.00654143 0.000953959l-0.000545322 0 0 -0.00040884 0.000545322 0 0 0.00040884zm0.00122632 -0.000545119l0 0.0013626c0,0.000412079 -0.000160377,0.000376845 -0.000545119,0.000409042l0 -0.000681399c0,-0.000500368 -0.000211001,-0.000658922 -0.00040884,-0.000953959 0.00025717,-0.000172324 0.000953959,-0.000952339 0.000953959,-0.00013628zm0.00027256 -0.00040884l0.00109024 0 0 0.000545119 -0.000817679 0 0.000663985 0.000327639c0.000108538,0.000117043 0.000289974,0.000395475 0.000289974,0.00062632 0,0.000244615 -0.00040074,0.000484371 -0.000545119,0.000681399l-0.000719266 -0.000329866 0.000713394 -0.000246033 5.87239e-006 -0.00037806 -0.000681399 0 0 -0.00122652zm-0.00517843 0.00163536c0,-0.000529932 0.000543904,-0.000575291 0.000681399,-0.00109024 -0.000469588,9.94256e-005 -0.000493483,0.000212216 -0.000545119,-0.00040884 0.00036672,-3.84743e-005 0.00122652,-0.000145392 0.00122652,0.00040884 0,0.000720279 -0.000600806,0.000413902 -0.000817679,0.00122632l0.000681399 0 0 0.000409042 -0.00122652 0 0 -0.000545119zm-0.00926662 0.000545119c-0.00107505,0 -0.000988788,-0.00218048 0,-0.00218048 0.000605463,0 0.000702661,0.000187916 0.000817477,0.000681399l-0.000956591 -0.000119675c-8.72758e-005,0.00036996 -0.000133445,0.000216266 -0.000133445,0.000528515 0,0.000418154 0.000187714,0.000585821 0.000544917,0.000681197l0 -0.000408637 0.000545119 0c-3.54368e-005,0.000426659 -9.33507e-005,0.000817679 -0.000545119,0.000817679l-0.000272357 0zm-0.00313444 -0.000681399c0,-0.000658922 0.000489028,-0.000233478 0.000681399,-0.000953959l-0.000539855 0.000152885 -0.00013385 -0.000531957 0.000543702 -0.000142152 0.000531147 0.000142152c7.8771e-005,0.0002758 0.000143975,0.000283494 0.000143975,0.000651632 0,0.000278837 -0.000420382,0.000475258 -0.000681399,0.000545119l0 0.000408637 0.000545119 0 0 0.000409042 -0.00109024 0 0 -0.000681399zm0.00593354 -0.00150313c0.000568609,4.04992e-006 0.00156165,0.000103475 0.00156165,0.000685449l0 0.00013628c0,0.000524667 -7.5531e-005,0.000560712 -0.00040884,0.000681399l0.00027418 0.000543904 -0.000830841 -8.70733e-005 -0.000471006 0.000364695 -0.000125143 -0.00232465zm0.013145 -0.00122247c-0.000840764,0 -0.00536453,0.000238338 -0.00560671,3.58418e-005 -0.000202496,-0.000169489 -0.000115828,-0.00383507 -0.00011684,-0.00494171 -1.82246e-006,-0.00207275 -0.00013628,-0.00377291 -0.00013628,-0.00572355 0,-0.00235685 -0.000258182,-0.0035046 -0.00040884,-0.00531471 -0.00079419,6.60137e-005 -0.000552814,0.000452781 -0.000545119,0.0013626 7.08736e-006,0.000819299 -0.000122713,0.0011599 -0.00013628,0.00177164l-0.000551397 -0.000112385 -0.000164022 0.00229104 -0.0007545 -0.00276326 -0.00013628 5.1434e-005 -0.000509278 0.0012411c-0.000171312,-0.000482953 -0.000187714,-0.00120262 -0.000457844,-0.0015414 -0.000404587,-0.000507253 -0.000484573,-0.000429292 -0.000560914,-0.0013468l-0.00027256 0 -0.000192574 0.0151269 -0.00825657 -4.04992e-007c-0.000689499,0 -0.00104528,0.000131217 -0.00204946,0.000130812 -0.00109834,-2.02496e-007 -0.000891793,0.000263852 -0.00135733,0.000959426l0.000325209 0.00121234 -0.00222968 0.000312856 -3.44243e-006 0.000518795 -0.00012899 -0.000110158 -0.000691322 0.000809377 -0.000480321 0.000577924 0.0143831 8.56558e-005c0.000802087,0 0.000298277,0.00398978 0.000437796,0.00487692 0.000228618,0.00145473 0.000107323,0.0035206 0.000107323,0.00520739l0 0.00122652c0,0.00940959 0.000272357,0.0180635 0.000272357,0.0279366l0.00013628 0 0.000298682 -0.00285884 0.000549372 -0.000517782 7.6746e-005 -0.00289367 0.000569014 0.000154504c4.07017e-005,-0.000442859 0.000141545,-0.000500773 0.000141545,-0.000970564l0 -0.00231676 0.00027256 0 0.000349306 0.00368604 0.000204319 7.10761e-005 0.000636445 -0.00118744 0.0010469 0.00272134 0.000216063 2.3692e-005c0.000204521,-0.0024579 0.00013628,-0.00536412 0.00013628,-0.00804011 0,-0.0013628 1.21498e-006,-0.0027256 0,-0.0040884 -1.21498e-006,-0.00138426 0.000260612,-0.00248159 0.000277622,-0.00367409 7.41136e-005,-0.00514704 -0.000277622,-0.0105632 -0.000277622,-0.0159496l0 -0.0013626c0,-0.00136746 -0.000197029,-0.00219911 0.00108619,-0.00218453 0.00119918,1.35672e-005 0.00217319,-9.98306e-005 0.00313322,-0.000137495 0.00179979,-7.00636e-005 0.0049569,0.00037725 0.00572861,-0.000676134 -0.000522845,-0.000780825 -0.000590681,-0.000273572 -0.00116779,-0.000603641 -0.000106918,-6.11538e-005 -0.000500773,-0.000877618 -0.000603843,-0.00103151l-0.00124677 -0.000146405 0.00179472 -0.000381098c-0.000100843,-0.00119493 -0.00166472,-0.0015167 -0.00300079,-0.0015167l-0.00013628 0 0 0z"/>
  </g>
  <path class="fil1" d="M0.0207558 0l0.0607488 0 1.41747e-006 0 0 2.02496e-006c0.00571727,4.04992e-007 0.0109064,0.00233093 0.0146644,0.00608906 0.00375752,0.00375772 0.00608723,0.00894567 0.00608804,0.0146617l2.02496e-006 0 0 3.03744e-006 0 0.0607488 0 1.41747e-006 -2.02496e-006 0c-4.04992e-007,0.00571727 -0.00233093,0.0109064 -0.00608906,0.0146644 -0.00375772,0.00375752 -0.00894567,0.00608723 -0.0146617,0.00608804l0 2.02496e-006 -3.03744e-006 0 -0.0607488 0 -1.41747e-006 0 0 -2.02496e-006c-0.00571727,-4.04992e-007 -0.0109064,-0.00233093 -0.0146644,-0.00608906 -0.00375752,-0.00375772 -0.00608723,-0.00894567 -0.00608804,-0.0146617l-2.02496e-006 0 0 -3.03744e-006 0 -0.0607488 0 -1.41747e-006 2.02496e-006 0c4.04992e-007,-0.00571727 0.00233093,-0.0109064 0.00608906,-0.0146644 0.00375772,-0.00375752 0.00894567,-0.00608723 0.0146617,-0.00608804l0 -2.02496e-006 3.03744e-006 0zm0.0607488 0.00101248l-0.0607488 0 -3.03744e-006 0 0 -2.02496e-006c-0.00543358,6.07488e-007 -0.0103684,0.00221855 -0.0139457,0.00579564 -0.0035777,0.0035775 -0.00579645,0.00851354 -0.00579665,0.0139483l2.02496e-006 0 0 1.41747e-006 0 0.0607488 0 3.03744e-006 -2.02496e-006 0c6.07488e-007,0.00543358 0.00221855,0.0103684 0.00579564,0.0139457 0.0035775,0.0035777 0.00851354,0.00579645 0.0139483,0.00579665l0 -2.02496e-006 1.41747e-006 0 0.0607488 0 3.03744e-006 0 0 2.02496e-006c0.00543358,-6.07488e-007 0.0103684,-0.00221855 0.0139457,-0.00579564 0.0035777,-0.0035775 0.00579645,-0.00851354 0.00579665,-0.0139483l-2.02496e-006 0 0 -1.41747e-006 0 -0.0607488 0 -3.03744e-006 2.02496e-006 0c-6.07488e-007,-0.00543358 -0.00221855,-0.0103684 -0.00579564,-0.0139457 -0.0035775,-0.0035777 -0.00851354,-0.00579645 -0.0139483,-0.00579665l0 2.02496e-006 -1.41747e-006 0z"/>
 </g>
</svg>
