<?xml version="1.0" encoding="UTF-8"?>
<!DOCTYPE svg PUBLIC "-//W3C//DTD SVG 1.1//EN" "http://www.w3.org/Graphics/SVG/1.1/DTD/svg11.dtd">
<!-- Creator: CorelDRAW -->
<svg xmlns="http://www.w3.org/2000/svg" xml:space="preserve" width="25in" height="39in" style="shape-rendering:geometricPrecision; text-rendering:geometricPrecision; image-rendering:optimizeQuality; fill-rule:evenodd; clip-rule:evenodd"
viewBox="0 0 2.70742 3.34922"
 xmlns:xlink="http://www.w3.org/1999/xlink">
 <defs>
  <style type="text/css">
   <![CDATA[
    .str0 {stroke:black;stroke-width:3.15202e-005}
    .fil0 {fill:#DA251D}
   ]]>
  </style>
 </defs>
 <g id="Layer_x0020_1">
  <metadata id="CorelCorpID_0Corel-Layer"/>
  <path class="fil0 str0" d="M0.862759 2.29292c-0.00807456,-0.00700018 0.00807096,0.00700108 0,0zm1.37583 -0.0669335c0.00807096,0.00700018 -0.00807456,-0.00699747 0,0zm-0.131679 -0.110241c0.00807096,-0.00700108 -0.00807456,0.00699657 0,0zm0.267901 -0.161431c-0.00807456,0.00700018 0.00807096,-0.00700018 0,0zm-1.63919 -0.0787445c-0.00807006,-0.00700018 0.00807456,0.00700018 0,0zm1.81628 -0.377978c-0.00807096,-0.00700018 0.00807096,0.00700018 0,0zm-0.631156 -0.224427c0.00807096,0.00700018 -0.00807366,-0.00699657 0,0zm0.322387 -0.0944929c0.00807456,-0.00700018 -0.00807096,0.00700018 0,0zm0.0454097 -0.181117c0.00807096,-0.00699657 -0.00807456,0.00700018 0,0zm-0.13168 -0.0511824c-0.00807366,0.00700018 0.00807096,-0.00700018 0,0zm0.404119 -0.0866201c-0.00807096,-0.00700108 0.00807456,0.00700018 0,0zm-0.0635689 -0.00393822c0.00807456,-0.00700018 -0.00807096,0.00700018 0,0zm-0.20887 -0.2008c-0.00807456,-0.00700018 0.00807096,0.00699747 0,0zm-0.358716 -0.157493c-0.00807096,0.00700018 0.00807456,-0.00700018 0,0zm-1.52567 2.04345c0.0293236,0 0.134727,-0.0341408 0.140763,-0.039375l0.00529629 -0.0032808 -0.00605367 -0.00393822c0.0152621,-0.00170209 0.0980241,-0.0437491 0.118027,-0.0525153 0.0427846,-0.01875 0.0880889,-0.0315301 0.123316,-0.0345137 0.0553233,-0.0046857 0.0730259,-0.00823937 0.120226,0.00224784 0.0269182,0.00598252 0.111401,0.0605034 0.111422,0.0605034 0.00291156,0 0.0312509,-0.0258141 0.0447145,-0.0320965 0.0188689,-0.00880313 0.0226666,-0.0136554 0.0495956,-0.023406 0.0179359,-0.00649765 0.0747676,-0.0146911 0.0929826,-0.0136338 0.0253125,0.00146884 0.0728728,0.011368 0.108787,0.0210762 0.0307691,0.00832132 0.0899252,0.0388788 0.108043,0.0401846l-0.00492885 0.0076666 0.049438 0.0176567 -0.00403278 0.00596721c0.0412905,0.00315922 0.0936752,0.0474567 0.172936,0.0474567l0.0408636 0c0.0309789,0 0.0734068,-0.0241453 0.0862743,-0.039375 0.00529899,-0.00833303 0.0224919,-0.0243426 0.0273541,-0.0354016 0.0113419,-0.0257871 0.00956501,-0.0127161 0.0271352,-0.0354674l0.0305556 0.0106079c0.0076693,0.0212401 0.00925432,0.0219731 0.0167075,0.0451333 0.00527467,0.0163905 -0.00645172,0.0442435 0.0208474,0.0505655 0.0185609,-0.06028 0.0518885,-0.0900252 0.112386,-0.142723 0.0211167,-0.0183925 0.145326,-0.111483 0.169137,-0.113201l-0.00492975 -0.0076666c0.0191444,-0.0015634 0.0782726,-0.044737 0.0949144,-0.0560473 0.0435446,-0.029601 0.0397397,-0.0389004 0.0548523,-0.0711968 0.0239751,-0.0512401 -0.000747478,-0.116935 -0.017699,-0.152512l-0.0130737 0.0084456c0.00538634,0.00980817 0.00399405,-0.00381034 0.00399405,0.011241 0,0.014918 -0.0203764,0.05778 -0.0322838,0.0706538 -0.0221217,0.0239211 -0.0355448,0.0356529 -0.0857744,0.0356529 -0.047962,0 -0.102367,-0.00115994 -0.0850945,-0.0729259 0.00795569,-0.0330565 0.0871082,-0.0956501 0.116879,-0.0806258l0.00226945 -0.00787553 0.0793299 -0.0085996 0.0410005 0.000724063 0.0227017 0.000984329 0.0405916 0.00463166c0.110067,0.0118705 0.142404,-0.0512464 0.16374,-0.0528611 -0.00475054,-0.00997478 0.0383087,-0.0625207 -0.0300009,-0.0219948 -0.0288517,0.0171208 -0.0464562,0.0141192 -0.0744362,0.0141192 -0.0274559,0 -0.0284015,0.00164175 -0.064375,-0.00538905 -0.0115724,-0.00226315 -0.0597991,-0.021304 -0.0718425,-0.0221731 0.00504412,-0.0111897 -0.0152621,-0.014991 -0.0161248,-0.0385428 -0.000634906,-0.0172469 0.0138491,-0.0219822 0.0070416,-0.0362644l0.0136212 0c-0.00807816,-0.0169596 0.0735743,-0.0307907 0.0899324,-0.0339382 0.0271244,-0.00522154 0.104573,-0.0284123 0.10532,-0.029058l0.00529629 -0.0032808 -0.00605367 -0.00393732c0.0469911,-0.00399225 0.119885,-0.0929241 0.13206,-0.111783 0.0340183,-0.0527071 0.0504782,-0.087735 0.0621938,-0.140296 0.0165256,-0.0741471 0.00333753,-0.129279 -0.0189661,-0.174783 -0.0170002,-0.0346776 -0.0642669,-0.0985464 -0.110962,-0.113201 0.00217489,0.0226576 0.0389031,0.0829214 0.0494101,0.110837 0.0153881,0.0408933 0.0244785,0.0721208 0.00653188,0.116552 -0.0464427,0.114958 -0.183083,0.115633 -0.183083,0.0482204l0 -0.0433105c0,-0.0105232 0.0120164,-0.039284 0.0181637,-0.0472478l-0.00518101 -0.0117048c-0.0285762,0.00199928 -0.0624063,0.0466669 -0.0779998,0.0658681 -0.0130773,0.0160996 -0.0257943,0.0656168 -0.0257943,0.0836401l0 0.0354368c0,0.037065 0.0499477,0.0880025 0.0499477,0.118118 0,0.0342075 -0.0223172,0.0370335 -0.0454061,0.0669344 -0.0336275,0 -0.0202197,0.00787553 -0.0363265,0.00787553l-0.031784 0c-0.0372973,0 -0.0521992,-0.0497172 -0.0582384,-0.0677368 -0.00872748,-0.0260293 -0.0049991,-0.0438769 0.00439121,-0.0735626 0.00702719,-0.0222064 0.00926512,-0.0429674 0.0291841,-0.068885 0.0186275,-0.0242381 0.0457727,-0.0525936 0.0587689,-0.0752242 0.0312158,-0.0543452 0.034085,-0.092191 0.0340499,-0.151559 -2.07132e-005,-0.0369092 0.010389,-0.075579 0.0165886,-0.0964463 0.00654899,-0.0220587 0.0479439,-0.0652197 0.0423937,-0.0768668 0.0182114,-0.00137878 0.055271,-0.0551206 0.108979,-0.0551206 0.0773964,0 0.094945,-0.0239427 0.120177,-0.0658375 0.0148847,-0.0247118 0.0320947,-0.082056 0.0319236,-0.104444 -0.000236851,-0.0310906 0.000757384,-0.0603242 -0.0132547,-0.0964796 -0.00353656,-0.00912373 -0.0310798,-0.0974351 -0.0571145,-0.0994064l0 0.0118138c0,0.0146578 0.0090796,0.0228512 0.0090796,0.0433096l0 0.0118111c0,0.0416255 -0.0272532,0.0705835 -0.0508411,0.0824639 -0.0202404,0.0101963 -0.0267021,0.0183267 -0.0436887,0.0114715 -0.0168435,-0.00679755 -0.0457375,-0.0137491 -0.0371496,-0.027002l-0.0136212 0c0.0020353,-0.00427413 -0.0326891,-0.0662797 -0.034239,-0.0757879 -0.00275036,-0.016884 0.0129512,-0.0483807 0.0228341,-0.0676675 0.024003,-0.0468416 0.0386473,-0.11207 0.0386473,-0.187275 0,-0.0729043 -0.0316408,-0.13203 -0.0715174,-0.166346 -0.0481601,-0.0414382 -0.121696,-0.0766723 -0.17822,-0.0777665 0.00810248,0.0263112 0.058378,0.0413688 0.0499477,0.0590589l0.0220416 0.00894182c-0.00355367,0.00778187 0.0630385,0.0693542 0.0667768,0.114342 0.00659402,0.079393 -0.0849576,0.0403908 -0.116062,0.0381457l0.00492975 -0.0076666 -0.00355367 0.00361401 -0.0724468 -0.0451062 -0.0176531 -0.0240634 -0.00133375 -0.00617975 -0.0045416 0.00524946c-0.00151477,-0.00857528 -0.0405709,-0.0734501 -0.0420794,-0.0756249 -0.0143372,-0.020652 -0.0244011,-0.0623748 -0.0319551,-0.0819308 -0.00491894,-0.0127287 -0.0227017,-0.133772 -0.0129935,-0.169894l-0.00973973 -0.0113382c-0.0397676,0.0229971 -0.0583708,0.163536 -0.0583708,0.204265 0,0.030579 -0.00792777,0.0620181 0.00112752,0.0966165 0.00474423,0.0181115 0.00682817,0.0268137 0.0148154,0.0501891 0.00436329,0.0127738 0.0385293,0.0321479 0.0340048,0.0421839l0.0561752 0.0345857 0.00323937 -0.00288004 -0.0053161 0.00745767c0.0261779,0.00206862 0.0855439,0.0560383 0.104545,0.0713229 0.0429169,0.0345227 0.0426963,0.0629241 0.0638481,0.0903133 -0.00366534,0.015009 0.00428674,0.0383969 -0.00191282,0.0693326 -0.00553674,0.0276414 -0.0177062,0.0595677 -0.0162473,0.0763463l-0.000561959 0.0157871c0.00835374,0.0896559 0.118618,0.139367 0.118618,0.181077 0,0.0320911 -0.0421145,0.0272226 -0.0696893,0.0131835 -0.0209384,-0.0106628 -0.0527926,-0.0393732 -0.065,-0.0578197 -0.0152657,-0.0230727 -0.0311527,-0.0377638 -0.0454719,-0.0587653 -0.011304,-0.0165778 -0.0277251,-0.0465634 -0.030752,-0.0609852 -0.00321506,-0.0153242 -0.00948757,-0.0201342 -0.00951909,-0.0295182 -4.59294e-005,-0.0157421 0.00288364,-0.0105232 -0.004221,-0.0283249 -0.00561329,-0.0140643 -0.00726044,-0.0334051 -0.0089193,-0.0406295 -0.00306466,-0.0133772 -0.00432456,-0.0151126 -0.00767921,-0.0273559 -0.00636437,-0.0232304 -0.00767651,-0.0485329 -0.0154197,-0.0730898 -0.00554394,-0.0175684 -0.0248514,-0.0522037 -0.0248514,-0.073731 -0.00909041,-0.00528008 -0.0285176,-0.0354773 -0.0510401,-0.0502377 -0.0212806,-0.0139499 -0.0493894,-0.0251603 -0.0657753,-0.0326666 -0.0183798,-0.00841498 -0.140215,-0.0347046 -0.155624,-0.0273406l0.0505655 0.0225639 0.00316642 0.00565201c0.0117291,-0.00486761 0.0764994,0.0354223 0.0904484,0.047563 0.0324658,0.0282502 0.0328944,0.0522982 0.0556097,0.0817101l-0.00429304 0.0118957c0.037799,0.0240904 -0.0111293,0.107427 -0.0739796,0.104534 -0.0445263,-0.00204791 -0.118068,-0.0962319 -0.121517,-0.132178 -0.0448685,0.0260537 -0.0156637,0.171472 0.0317849,0.212613l0.00378422 0.00459564 0.052771 0.0263076 0.00247208 -0.00334114 -0.00272334 0.00708483c0.01913,-0.00591588 0.194146,0.080063 0.22185,0.0982042 0.0686275,0.0449306 0.144128,0.0913211 0.144128,0.162445 0,0.0201099 -0.0206448,0.0748099 -0.0635689,0.0748099l-0.0227017 0c-0.0200828,0 -0.0266525,-0.0263653 -0.0314004,-0.0400387 -0.00442273,-0.0127467 -0.00107169,-0.010208 -0.002346,-0.0180845 -0.00247478,-0.0152846 -0.0054701,-0.00240184 -0.00941462,-0.0157087 -0.00357799,-0.0120677 -0.00162014,-0.0185654 -0.019284,-0.037391 -0.0151504,-0.0161482 -0.0106538,-0.0285861 -0.0374495,-0.0305214l0.00492525 -0.0076666 -0.0293723 -0.0138157c-0.0321442,-0.00214157 -0.0165535,-0.0100144 -0.0527476,-0.0100144l-0.0136212 0 -0.0227044 -0.000984329 -0.0317849 0.000984329 -0.00392021 0.00339877 0.0227053 0.0196857 0.0199568 0.0145155c-0.00520082,0.0132132 0.0175801,0.0142345 0.0263211,0.0303125 0.00683177,0.0125684 0.0071947,0.0170479 0.0199018,0.0314607 0.0138518,0.0157114 0.0347271,0.0651981 0.0388643,0.0764391 0.0212212,0.0576864 0.05326,0.120522 0.05326,0.166732l0 0.0275585c0,0.0268714 -0.0101306,0.0453458 -0.0112095,0.0658231 -0.00126351,0.0239661 -0.0313968,0.0627413 -0.0251162,0.0759212l-0.0136221 0c0.0137824,0.028931 -0.107816,0.110241 -0.158925,0.110241l-0.0227053 0c-0.0342102,0 -0.0498883,-0.0329692 -0.0541849,-0.0552755 -0.00913634,-0.0474207 0.0139526,-0.0476414 0.0360257,-0.0667795l0.00529539 -0.0032799 -0.00605277 -0.00393822c0.0738949,-0.00593389 0.117472,-0.0377999 0.123354,-0.0990885l-0.0227008 0c-0.0333591,0 -0.0217453,0.0150819 -0.0703908,-0.00586725 -0.0366994,-0.015806 -0.0279998,-0.0343101 -0.0431295,-0.0531907 0.0117957,-0.0152729 0.0021884,-0.0147064 0.0202467,-0.0414958 0.0112761,-0.0167237 0.0365607,-0.0228548 0.029701,-0.0372487l0.0615967 -0.0339175 0.00727125 -0.000862752 -0.000757384 -0.00853025 -0.0635374 0.00110591c-0.0303224,0.0164805 -0.0555439,0.0144155 -0.085244,0.0391868 -0.0214481,0.0178899 -0.0446911,0.0363193 -0.0526359,0.0548694 -0.0245794,0.0573811 -0.0280142,0.0514832 -0.0347937,0.153112 -0.00498108,0.0746802 -0.0144065,0.207379 -0.117964,0.267507l-0.00817272 -0.00865994c0.00353296,-0.00723703 0.00817272,-0.0233852 0.00817272,-0.0307123 0,-0.0705664 -0.0565102,-0.0819407 -0.0659077,-0.132963 -0.00447586,-0.0242876 0.00904088,-0.0892984 0.0295848,-0.122961l-0.00999099 -0.00708483c-0.10304,0.0595677 -0.0922009,0.132069 -0.092191,0.20099 1.08069e-005,0.0431889 0.00129593,0.153143 -0.0283285,0.232893 -0.0200027,0.0538418 -0.0554737,0.0705628 -0.101874,0.0882375 -0.0191895,0.00731267 -0.0840714,0.00171109 -0.115158,-0.0125765 -0.0478422,-0.0219948 -0.0404205,-0.0799504 -0.0272046,-0.115582 0.0028134,-0.00758555 0.0591741,-0.0974801 0.0568984,-0.0994551l-0.00378422 -0.00459474c-0.00305115,0.00337085 -0.0870487,0.0475783 -0.0915732,0.0479052l0.00492885 0.0076666c-0.0449063,0.00341949 -0.141824,0.145073 -0.149801,0.166564 -0.00418858,0.0112833 -0.0141165,0.0322145 -0.0218137,0.0433105 -0.00264679,0.00381664 -0.0106718,0.0341687 -0.0139112,0.0437644 -0.0159681,0.047291 -0.0162122,0.0685185 -0.0302485,0.107191 -0.00937679,0.0258294 -0.0285591,0.0722721 -0.044492,0.0911851 -0.0164661,0.019547 -0.0661239,0.0612977 -0.0908429,0.0661743 -0.0533753,0.0105295 -0.0533654,0.0182808 -0.0999333,0.0157574 -0.0137374,-0.000744776 -0.0333348,-0.00584294 -0.0500315,-0.0208465 -0.0314391,-0.0282466 -0.0097046,-0.0192768 -0.026032,-0.0404205l0.0149171 -0.0508429 0.00998378 -0.00361401 0.129201 -0.0602098c-0.00414715,-0.00933537 0.0224568,-0.0191715 0.0334879,-0.0399144 0.00520533,-0.00979016 0.0201459,-0.0467453 0.0258222,-0.054094l-0.00581232 -0.0205187 -0.0404349 0.0430619 -0.00445785 -0.00351405 -0.0045416 0.00393732 0.00605637 0.00393822c-0.0359348,0.00319614 -0.047092,0.0138644 -0.0790787,0.00253872 -0.0185086,-0.00655259 -0.0641102,-0.0263842 -0.069755,-0.0484294 -0.00741084,-0.0289346 -0.014592,-0.0437103 0.00777017,-0.0748135 0.0153431,-0.0213364 0.0352756,-0.0614814 0.0585743,-0.0636932l0.00888058 -0.019792 -0.0179638 0.000106268c-0.0419749,0.0243723 -0.0482168,0.0186473 -0.0884248,0.04932 -0.0362563,0.0276621 -0.0443588,0.0422109 -0.0637292,0.070969 -0.0271938,0.0403692 -0.03404,0.115158 -0.0385536,0.167134l0.000558357 0.0157844 0 0.0157484 -0.00394812 0.0984221c-0.00150036,0.0121371 -0.026485,0.0653224 -0.0238563,0.0708447l-0.0148433 0.00628512c-0.0418344,0.0213463 -0.0591534,0.0250837 -0.108364,0.0100774 -0.0389193,-0.0118678 -0.0652476,-0.0395479 -0.0596938,-0.0725468 0.00462896,-0.0274919 0.0248865,-0.0675918 0.0391012,-0.0881619 0.0115868,-0.0167723 0.0612725,-0.0722172 0.0575261,-0.0800774l0.0136257 0 -0.00383645 -0.00224153 0.018976 -0.0244335 -0.0023532 -0.00342579 -0.0803944 0.0198226c-0.007509,0.00753692 -0.0616741,0.0377152 -0.0856493,0.0585041 -0.022101,0.0191652 -0.0566606,0.0545335 -0.0668047,0.0767336 -0.0132556,0.0290066 -0.0323334,0.0598946 -0.0373109,0.0855268 -0.00520893,0.0268164 -0.0188472,0.0950206 -0.0196118,0.0966192l0.0181628 0 0.0130773 -0.0084447c0.0480691,0.0292066 0.0289535,0.0319272 0.0570055,0.0657312 0.0156853,0.0189022 0.058288,0.0450855 0.0933816,0.0450855l0.0499477 0zm0.308769 -0.0787472l-0.0227044 0c-0.00346632,0.00448847 -0.0870596,0.048777 -0.10671,0.0570866 -0.0234303,0.00990813 -0.0351459,0.0172352 -0.0603989,0.0263743 -0.0267642,0.00969019 -0.0484501,0.0079845 -0.0599243,0.0228449 -0.0680412,0.0268687 -0.138396,0.00448937 -0.200178,-0.0198919 0.00512788,-0.0079818 -0.0370974,-0.0387752 -0.0495596,-0.0549144 -0.0188409,0.00917777 -0.0330277,0.126729 -0.042509,0.152015 -0.00970821,0.0259024 -0.0301441,0.131443 -0.0301441,0.147218 0,0.0106565 -0.00452719,0.019701 -0.00965867,0.0305484 -0.00427683,0.00903908 -7.74495e-005,0.0147703 -0.00193083,0.0237608 -0.00592759,0.0287338 -0.0108672,0.0467633 -0.016096,0.0671244 -0.00689841,0.0268687 -0.0268038,0.101261 -0.0268038,0.130552 0,0.0193137 0.0367939,0.0374306 0.0310311,0.0479025l0.004538 0.00393732 0.00409492 -0.00196866 0.00120407 0.00918677c0.0136248,0.00129413 0.0675666,0.0451675 0.110504,0.0537977 0.0611842,0.012292 0.0668542,0.00132385 0.134692,0.00132385 0.0120965,-0.00702179 0.0549783,-0.0187689 0.0692768,-0.0226126 0.0253368,-0.00680925 0.0516822,-0.0176837 0.0657546,-0.0234033 0.0146515,-0.00595461 0.106525,-0.0523946 0.110168,-0.0642264 0.0200342,0.00717669 0.0808636,-0.0259258 0.103058,-0.0295488 0.0491687,-0.00802683 0.0667318,-0.00982618 0.142139,-0.00982618 0.0162392,0.00942993 0.050181,0.013913 0.0719605,0.0240301 0.0280286,0.0130187 0.046558,0.0339256 0.0691093,0.0468696l0.0042309 -0.0315247c0.000429575,-0.00372838 -0.00473703,-0.029782 -0.0042309,-0.0314724l0.00366895 -0.0314868 0 -0.015752 0 -0.0157484 0 -0.0157484 0 -0.0157484 0 -0.0157511 -0.000792507 -0.0157574 0.000792507 -0.0314877 0 -0.0157511 0 -0.0157484 0 -0.0157484 0 -0.0157484 0 -0.0157511 0 -0.0157484 0 -0.0157484 0 -0.015752 0 -0.0157484 0 -0.0157484 0 -0.0157484 0 -0.0157511 0 -0.0157484 0 -0.0157484 0 -0.0157484 0 -0.0157511 0 -0.0157484 0 -0.0157484 -0.000572766 -0.0157844 0.00204251 -0.0204737 -0.00919128 -0.00691012 0.00374189 -0.0159267c-0.0119705,-0.00695154 -0.0306079,-0.0413472 -0.0596001,-0.0546271 -0.0472946,-0.0216606 -0.0466831,-0.0206826 -0.0992804,-0.0246055l-0.0182051 0.00048451c-0.0382844,-0.0024982 -0.0999198,0.00601945 -0.113517,0.0236248zm0.308765 0.0866201l-0.000558357 0.0157123 0 0.0157511 0 0.0157484 0 0.0157484 0 0.0157484 0 0.0157511 0 0.0157484 0 0.0157484 0 0.0157484 0 0.0157511 0 0.0157484 0 0.0157484 0 0.0157484 0 0.015752 0 0.0157475 0.000558357 0.0157853c-0.00061059,0.0070335 -0.00457312,0.018505 -0.00318354,0.0196587l0 0.0314967 0 0.0314994 0 0.0315003 0 0.0314958 0 0.0315003 0 0.0314967 0.000586275 0.0315544 -0.00184618 0.0398262 0.0188229 0.000175612 0.00378422 -0.00459474c0.00779448,-0.00675792 0.0191543,-0.0190535 0.0396947,-0.0325144 0.0214445,-0.014058 0.0387977,-0.0164697 0.0465787,-0.0265445 0.0296515,0 0.0288382,-0.00787553 0.0544893,-0.00787553l0.0771901 0c0.015688,0 0.123197,0.0296461 0.148565,0.0444191 0.0242687,0.0141336 0.044348,0.0207979 0.0706277,0.0372514 0.00231088,0.00144813 0.0582907,0.0276288 0.071413,0.0285735l0.000806916 0.00585554 0.108168 0.0335176c0.0459014,0 0.103191,0.00774495 0.14031,-0.00432907 0.0282826,-0.00919938 0.0980412,-0.0365769 0.0912688,-0.0507925 0.0191507,-0.00181736 0.0504223,-0.0450999 0.0524468,-0.0619542 0.00195155,-0.0162419 -0.0161239,-0.0604971 -0.0161239,-0.0797865 0,-0.0150549 -0.00139319,-0.00143282 0.0045416,-0.0118138 -0.0102666,-0.00652107 -0.0136221,-0.0212455 -0.0136221,-0.0275612 0,-0.0237941 -0.00870587,-0.0223154 -0.00662193,-0.0390273l-0.0901206 -0.391164 -0.0352089 0.0356952 -0.00426963 -0.00316823c0.0129548,0.0271956 -0.0977485,0.0483231 -0.114665,0.0524666 -0.0167948,0.00411383 -0.0896046,-0.0105556 -0.134005,-0.0218939 -0.0348631,-0.00890309 -0.117294,-0.0522703 -0.141789,-0.0663409 -0.0189166,-0.0108654 -0.115956,-0.0421983 -0.122893,-0.0482348l-0.0587337 -0.00310248 -0.0182051 0.00048451c-0.0420686,-0.00274676 -0.0829854,0.00914535 -0.112424,0.0285104 -0.0440228,0.028958 -0.0524639,0.0458519 -0.0555817,0.0817345zm-0.644777 0.799266c0.0372658,0.00243516 0.345936,-0.044819 0.349633,-0.0433096l0.00226945 -0.00787283 0.0474829 -0.00245047c0.00403548,-0.00209654 0.134326,-0.0369218 0.150039,-0.0369218 0.00898865,0 0.0443407,0.0314967 0.0726521,0.0314967l0.031784 0c0.0306925,0 0.0709771,-0.0314967 0.0862743,-0.0314967 0.00303674,0 0.0819029,0.0210609 0.0838265,0.0217786 0.0182925,0.00681916 0.0569083,0.0141345 0.0819767,0.0186446 0.0490814,0.00883014 0.130059,0.0237482 0.188372,0.0304458l0.05 0.00358609c0.0154503,0.00213256 0.0347937,-0.000542147 0.0498955,0.00822676 0.00710734,-0.00466408 -0.00924801,-0.00393732 0.0090796,-0.00393732l0.0136212 0 0.0227044 0.000984329 0.0136221 -0.000984329 0.0227044 0.000984329 0.0136212 -0.000984329 0.0227053 0.000984329 0.0136212 -0.000984329 0.0227008 0.000984329 0.0136248 -0.000984329c0.0824135,0 0.23041,-0.0241877 0.295144,-0.0551206l0.00042237 -0.0197262c-0.00646793,-0.0496713 -0.0209375,-0.090452 -0.0308519,-0.147426 -0.0102323,-0.0587833 -0.0222541,-0.112238 -0.0375477,-0.179723 -0.0119389,-0.0526729 -0.0199018,-0.111026 -0.038369,-0.1777 -0.00307907,-0.0111167 -0.00681376,-0.0585464 -0.0102522,-0.0689751 -0.0126963,-0.0384879 0.00767651,-0.0442921 -0.0468651,-0.0482267l-0.0435527 -0.189319c-0.024185,0.00674891 -0.0282303,0.116962 -0.188926,0.112667 -0.0691237,-0.00184798 -0.171204,-0.0371487 -0.21705,-0.0769029l-0.00378422 -0.00459204c-0.00560969,0.00263508 -0.0971865,-0.0336662 -0.119762,-0.04192 -0.0296893,-0.0108537 -0.0772316,-0.0181934 -0.102363,-0.0184933 -0.0325486,-0.000389949 -0.0557772,0.0105629 -0.0886923,0.0197505 -0.0494137,0.0137914 -0.0612274,0.0432402 -0.098604,0.0649405 -0.00918767,-0.0118984 -0.0160438,-0.036585 -0.0454061,-0.0393723l0.00492975 -0.0076666c-0.00561329,-0.000584474 -0.0525072,-0.0216733 -0.05288,-0.0218642 -0.0205935,-0.0106106 -0.0260807,-0.0032835 -0.0467192,-0.0104143 -0.0407483,-0.0140787 -0.0489877,-0.00131124 -0.090407,0.00253242 -0.0745199,0.00691282 -0.122617,0.0432438 -0.200045,0.0775126 -0.0900441,0.0398568 -0.128412,0.0569983 -0.208451,0.0564346 -0.0898666,-0.000633105 -0.126238,-0.0470019 -0.160183,-0.108345 -0.0237662,0.0137977 -0.0322739,0.0432285 -0.037971,0.0658492l-0.0422568 0.12187c0.00434978,0.00962355 -0.0130809,0.0819227 -0.0215184,0.117732 -0.01279,0.0542966 -0.0143399,0.0900585 -0.0304998,0.14305 -0.00291787,0.00956231 -0.0104341,0.0494767 -0.0105908,0.0602332 -0.000157601,0.0108204 -0.0118101,0.0378251 -0.0145785,0.0629421 -0.00412284,0.0374099 -0.0242129,0.0889805 -0.0242129,0.117345 0,0.000529539 0.00446866,0.00779989 0.0045416,0.00787553 -0.0123154,0.0078206 -0.027246,0.104146 -0.027246,0.114179 0,0.000530439 -0.00446866,0.00779989 -0.0045416,0.00787644l0.0377647 0.0268894 0.00310338 -0.00326549 -0.00272334 0.00708483c0.0560635,0.0262779 0.119493,0.0392696 0.193434,0.0440976l0.0182051 -0.00048451 0.108936 0.00157511 0.0181592 -0.0010906zm0.227033 -0.240172c0.00378422,0.00145083 0.081195,-0.0314301 0.0941525,-0.0359132 0.00724423,-0.0025081 0.0869443,-0.0192102 0.0920163,-0.0192102l0.0408681 0c0.0674126,0 0.160629,0.0457123 0.172544,0.0944956 0.0305205,0.000588076 0.0156151,0.000866354 0.0227044,0.0157484 -0.0101234,-0.000729466 -0.0701215,-0.0461995 -0.088043,-0.0575315 -0.0309015,-0.019538 -0.051177,-0.0208735 -0.0842218,-0.0254142 -0.035942,-0.00493786 -0.0447217,-0.00115454 -0.0947631,0.00211365 -0.0202927,0.00132385 -0.0738913,0.0217732 -0.0826053,0.0217732l-0.0136212 0c-0.00552593,0.0132376 -0.0511932,0.0230214 -0.0734762,0.0350198 -0.0143894,0.00774855 -0.0557384,0.0337653 -0.0752773,0.0375918 -0.00126351,0.000247658 -0.0616075,0.026386 -0.0657997,0.0285401 -0.0196118,0.0100747 -0.0482718,0.0102747 -0.0768236,0.0202125 -0.0784753,0.0273172 -0.23647,-0.0104134 -0.276209,-0.105616 0.015335,0.00890579 0.0261464,0.0206016 0.0397361,0.0324784 0.0205061,0.0179233 0.0229566,0.0146335 0.0441147,0.0287644 0.00972532,0.00649495 0.0849783,0.0293155 0.111398,0.0293155l0.0272424 0c0.0205791,0 0.0920307,-0.0164175 0.104437,-0.0236239l0.027264 0.000526837 -0.00274405 -0.00761437c0.031195,-0.00133645 0.1432,-0.0595947 0.152569,-0.0677188l0.004538 -0.00393822zm-0.476771 0.0157484c0.0127702,0.000921289 0.045371,0.0217156 0.0581583,0.0286158 0.0103224,0.00556736 0.0398415,0.0128044 0.0517417,0.0158573 0.035063,0.00899405 0.075407,0.012844 0.0977134,0.00632204 0.0155205,-0.0045344 0.0442615,-0.00382565 0.0549396,-0.00806916 0.0262482,-0.0104386 0.0327485,-0.00898504 0.0607411,-0.0186176 0.0177062,-0.00609149 0.0821271,-0.0294641 0.105181,-0.0462995 0.0144696,-0.0105683 0.0971091,-0.0470812 0.117709,-0.0537608 0.0374712,-0.012147 0.0684005,-0.0184348 0.107042,-0.0248901 0.0361932,-0.00604286 0.0665679,-0.00295659 0.102576,0.00493696 0.0494596,0.0108447 0.0815823,0.0500018 0.102392,0.0565327 -0.010634,0.0127648 -0.0238959,-0.00669398 -0.0440553,-0.0137824 -0.00882114,-0.00310158 -0.031694,-0.0155421 -0.042219,-0.0216525l-0.0227044 0c-0.0152062,-0.00882924 -0.0247505,-0.0092264 -0.0454061,-0.00787553l-0.0182051 -0.000487211 -0.0360681 0.00222352c-0.0103989,-0.000788004 -0.0133204,0.000566462 -0.0229206,0.00613922 -0.102559,0 -0.228203,0.105174 -0.327714,0.127577 -0.0624657,0.0140607 -0.102806,0.0200828 -0.150943,0.0154269 -0.0530475,-0.00513058 -0.119465,-0.0215066 -0.147957,-0.068197zm0.953546 -0.0708717c0.0101234,-0.000730367 0.0306538,-0.0111599 0.0446731,-0.0163851 0.0181313,-0.00675432 0.0330556,-0.00769992 0.0426486,-0.0108321 0.0293543,-0.00958663 0.0538742,-0.0075054 0.0726062,-0.00510356 0.0343299,0.00439841 0.0496442,0.0134132 0.0877575,0.017799 0.0141525,0.00162644 0.0592579,0.0268534 0.0701639,0.0223973l0 0.00787553 0.048994 0.0174721 -0.00397604 0.0059429 0.0809185 0.0336743 0.00650036 0.00131214 -0.00605637 0.00393732c0.0198316,0.0020326 0.0939327,0.0291552 0.106322,0.0335473 0.00969019,0.00343209 0.0828701,0.0124018 0.0930979,0.0123982 0.0293831,-2.70173e-006 0.0579034,-0.00425882 0.102339,-0.0188527 0.00956862,-0.00314481 0.0374955,-0.0171515 0.0475117,-0.0212104 0.0197055,-0.00798721 0.0193255,-0.0268858 0.0465291,-0.028849l0.00151207 -0.00918767 0.00731988 0.0132069 -0.0133735 -8.10518e-005c0.00826999,0.0173595 -0.0614292,0.0553746 -0.0803422,0.0641984 -0.0379458,0.0177053 -0.082291,0.0165301 -0.106954,0.0165274 -0.0188229,-3.6023e-006 -0.0211752,0.00049982 -0.048858,-0.00183267 -0.0418489,-0.00352305 -0.0216336,-0.00136617 -0.0510023,-0.0104899 -0.0064121,-0.00199027 -0.103309,-0.0346082 -0.107882,-0.0329692l0 -0.0118138c-0.0121208,0.00434438 -0.0912761,-0.0354701 -0.105568,-0.0429674 -0.0210915,-0.011069 -0.0210816,-0.0155881 -0.0499405,-0.0221974 -0.00848252,-0.00194164 -0.0475846,-0.0154611 -0.057907,-0.0214526l-0.031784 0c-0.0152062,-0.00882924 -0.0247505,-0.0092264 -0.0454061,-0.00787553l-0.0182051 -0.000487211c-0.0264787,0.00221992 -0.0672172,0.00340778 -0.0910356,0.0157087 -0.02423,0.0125099 -0.0705781,0.028913 -0.0723865,0.0477746l-0.0105989 0.00104287 0.00227305 0.00355007 -0.0045416 0.00393732 -0.004538 -0.00524946c0.0124937,-0.0165021 0.023759,-0.0444281 0.053731,-0.0465904l-0.0045416 -0.00787553zm-0.0227044 0.0629962c-0.00637067,-0.0141309 0.0408645,-0.0356259 0.0579484,-0.0436923 0.0198739,-0.0093804 0.0535716,-0.0102323 0.069193,-0.0193038l0.113537 0.00769992c0.0200099,0.0118074 0.0600153,0.0191742 0.0960761,0.0349676 0.0207015,0.0090661 0.0861067,0.0430106 0.0991516,0.0439526l-0.00272244 0.00708843 0.0208862 0.000787103 0.0113734 0.0102017 0.00300522 -0.00298361 0.0045416 0.00393822 -0.00605637 0.00393822 0.0361545 0.0106619 0.00622838 0.00114823 -0.00605727 0.00393822 0.0739859 0.018822c0.0321442,0.00151837 0.0564301,0.0133312 0.0811563,0.0133312l0.0136212 0c0.0211833,0 0.0764508,-0.0109591 0.0871712,-0.0149424 0.0155556,-0.00577629 0.0694614,-0.0318119 0.0762932,-0.0323055l-0.00492885 -0.0076666c0.017545,-0.00144452 0.0256646,-0.00498018 0.0185501,-0.0159573l0.0097046 -0.00158681 0.00316282 -0.00694344 0.0045416 0.00524946 0.00614463 -0.0121857c0.0277314,0.00793587 -0.0351675,0.0352134 -0.0280917,0.0509041 -0.0166832,0.00120227 -0.0385527,0.0226693 -0.0580745,0.0317696 -0.0220515,0.0102774 -0.0209798,0.0113283 -0.0496992,0.0172325 -0.0470785,0.00967759 -0.0561932,0.00983789 -0.0951476,0.00818443 -0.0281259,-0.00119687 -0.098405,-0.0193408 -0.120237,-0.028931 -0.0449072,-0.0197253 -0.0690183,-0.0269596 -0.112676,-0.0519461 -0.07076,-0.0404998 -0.145231,-0.0648991 -0.213527,-0.0706538 -0.0361725,-0.00305115 -0.0863679,-0.00465598 -0.119098,0.00885626 -0.0178773,0.00737932 -0.0314328,0.0098568 -0.0546749,0.0253296 -0.0130629,0.00869416 -0.0434861,0.030652 -0.0486806,0.028659 -0.00216048,-0.00423181 0.0075027,-0.0256871 0.0272433,-0.0275621zm-0.631156 0.114182c0.00451729,-0.00584924 0.0797109,-0.0359195 0.0942579,-0.0411203 0.0221839,-0.00793317 0.0617606,-0.0287068 0.0898657,-0.0433681 0.0595091,-0.0310419 0.122994,-0.0533177 0.188214,-0.0533177l0.0136221 0c0.0439958,0 0.0833519,0.00151117 0.117957,0.0240111 0.0149514,0.00972352 0.0719263,0.038288 0.0727503,0.0704845l-0.0124865 -0.00885986 0.00340688 -0.00295029c-0.0117957,-0.00112122 -0.0780664,-0.0528611 -0.126045,-0.0571559 -0.0256439,-0.00229647 -0.0947045,8.46541e-005 -0.105529,-0.00190562 -0.0186518,0.0108321 -0.0871676,0.0222244 -0.129878,0.0409357 -0.0175108,0.0076693 -0.0531106,0.0235329 -0.0666723,0.0330475 -0.0131124,0.00919308 -0.0407357,0.0184987 -0.0531871,0.0244506l-0.00227305 0.00393822 -0.00151117 0.00459204c-0.00512157,-0.00243876 -0.138595,0.0527701 -0.209628,0.0465904l-0.0404521 -0.00357709c-0.0144425,-0.00456502 -0.0377017,-0.00701909 -0.0508978,-0.0116471 -0.0145011,-0.00508285 -0.0358231,-0.0228395 -0.0539544,-0.024148l0.00492885 -0.0076666c-0.0257835,-0.00261707 -0.0656709,-0.05778 -0.0639562,-0.0592678l0.00378332 -0.00459204 0.0516552 0.0434681 0.00358879 -0.0034411 0 0.0118129c0.0197856,0.00142741 0.0424414,0.016485 0.0557285,0.0211734 0.00897154,0.00316913 0.019339,-0.00145353 0.039628,0.0103233 0.0363157,0 0.0755223,0.00147244 0.110085,-0.00159942 0.0251828,-0.00224153 0.0354115,-0.0124919 0.0670001,-0.0102107zm0.599371 -0.0590589c0.00898594,-0.00412194 0.0591669,-0.0444245 0.0762238,-0.0562626 0.0203656,-0.0141336 0.0724045,-0.0178053 0.0872406,-0.0264193 0.00711095,0.00466138 -0.00924351,0.00393462 0.00908321,0.00393462l0.0136221 0c0.0254485,0 0.06788,-0.00458033 0.0817317,0.0118129 0.048722,-0.0202702 0.267167,0.130864 0.308769,0.114183 0.00869596,0.0112617 0.0650945,0.0236203 0.0771901,0.0236203l0.0953539 0c0.0204251,0 0.0632726,-0.0169957 0.0884798,-0.0295848 0.015353,-0.0076666 0.0677899,-0.0514616 0.0704466,-0.0491597l0.00529539 0.0032808 -0.0482682 0.050362 -0.00167957 0.00607348 -0.0531313 0.0258285 0.000611491 0.0042264 -0.0040706 -0.00251441 -0.050108 0.0153512 -0.0484573 0.00348073 -0.0586608 -0.00363472c-0.0353449,-0.0164634 -0.126879,-0.0281799 -0.171658,-0.0562175 -0.0513679,-0.0321659 -0.109984,-0.0564418 -0.164016,-0.0743948 -0.0490571,-0.0162995 -0.110842,-0.0217579 -0.149403,-0.0212104 -0.00253062,3.69236e-005 -0.0710707,0.0153368 -0.0837535,0.0210347 -0.0383888,0.0172442 -0.048677,0.0359186 -0.0763004,0.0519578l-0.0045416 -0.0157484zm-0.899056 0.0551206c0.0127702,0.00121217 0.0629061,0.0396848 0.100286,0.0472091 0.0335266,0.00674891 0.0741462,0.0136644 0.116795,0.00616984 0.0259267,-0.00455511 0.0718596,-0.0117768 0.106067,-0.02519 0.0331979,-0.013016 0.0666795,-0.0247631 0.0961248,-0.0383726 0.0173847,-0.00803314 0.029592,-0.0203161 0.0495182,-0.0274405 0.00928944,-0.00332583 0.0401765,-0.0187626 0.0542453,-0.0248208 0.0345668,-0.0148847 0.0583465,-0.0194227 0.0981637,-0.0285699 0.0501432,-0.0115229 0.061041,-0.0137284 0.110891,-0.00427143 0.0274306,0.00520353 0.0784744,0.0185564 0.0943128,0.0322901l0.00529899 0.0032808 -0.00605277 0.00393732 0.0120362 0.00392921 0.0277179 0.0222757 0.012962 0.0247784 0.0209276 -0.00153548c0.0361275,-0.0587617 0.12489,-0.0960383 0.190474,-0.0960383l0.004538 0c0.0581403,0 0.128457,0.0271956 0.17585,0.0460572 0.0325243,0.0129467 0.0616246,0.0324784 0.0943128,0.046476 0.0268065,0.0114805 0.0802071,0.0303881 0.0941597,0.0370371 0.0473081,0.0225513 0.135914,0.0345434 0.184183,0.0261437 0.00763778,-0.00132655 0.033261,-0.00621848 0.048704,-0.01221 0.015263,-0.00591858 0.0144281,-0.0015661 0.021567,-0.00526477 0.0126999,-0.00658231 0.00160573,-0.00474964 0.0180025,-0.0105142 0.0232736,-0.00818083 0.0699225,-0.0513517 0.0761122,-0.0489805 0.00496037,0.00972081 -0.0388887,0.0525369 -0.0628854,0.0635906 -0.0236437,0.0108898 -0.0109231,0.0137491 -0.0489211,0.0245146 -0.0239958,0.00680025 -0.0347379,0.0111833 -0.0529007,0.0121551 -0.0289013,0.00154809 -0.0426233,0.00926332 -0.0770722,0.000848342 -0.00761347,-0.00185699 -0.0284186,-0.00299892 -0.0430943,-0.00702719 -0.0133528,-0.00366534 -0.0301198,-0.00885446 -0.0459086,-0.0117561 -0.0698847,-0.0128404 -0.119825,-0.0577197 -0.183463,-0.0805439 -0.0111365,-0.00399585 -0.00960014,-0.00789084 -0.0204287,-0.0116102 -0.00222442,-0.000763688 -0.018034,-0.0046893 -0.0181637,-0.00474423 -0.0184492,-0.00757564 -0.0195002,-0.00986581 -0.0459888,-0.0174811 -0.0318471,-0.00915705 -0.0680196,-0.0167147 -0.104981,-0.0191282l-0.0182051 0.00048451c-0.0256925,-0.00216588 -0.0866579,0.0141129 -0.108294,0.0236905 -0.0252738,0.0111897 -0.0628953,0.0534393 -0.0778332,0.0545695l0.00272694 0.00708843 -0.0163482 0.00275576c-0.0297838,-0.0488319 -0.107868,-0.0837725 -0.181627,-0.0885887l-0.0182051 0.00048451c-0.0665291,-0.00483429 -0.136794,0.0245812 -0.186874,0.0461149 -0.0668605,0.0287527 -0.095706,0.0535212 -0.162103,0.0759888 -0.0752251,0.025453 -0.119511,0.0323838 -0.167493,0.0329746 -0.0169272,0.000206232 -0.0539904,-0.00837896 -0.0729529,-0.0121893 -0.0342804,-0.00689121 -0.0715381,-0.0395299 -0.087101,-0.041005 0.00733789,-0.0162725 -0.0401279,-0.0343353 -0.0408636,-0.0629962l0.00745947 0.0109681 0.0243246 0.0244659zm0.681104 -1.18118c0.00807456,-0.00700018 -0.00807096,0.00700018 0,0zm-0.0181637 -1.56704l0.000561959 0.0157114 0 0.0157484 0 0.015752 0 0.0157475 0 0.0157484 0 0.0157484 0 0.015752 0 0.0157484 0 0.0157484 0 0.0157484 -0.000561959 0.0157871c0.00071956,0.00826638 0.0108609,0.0433105 -0.0136212,0.0433105l-0.621541 7.29466e-005 -0.00507294 0.023551c-0.000121578,0.000654719 -3.42219e-005,0.0303098 0.00135447,0.0314697l0 0.0314967 0 0.0314994 0 0.0314967 0 0.0314994 0 0.0314967 0 0.0314994 0 0.0314967 -0.00135447 0.0315274c0.00148775,0.0536212 -0.0065697,0.0531574 0.0442786,0.0531637 0.0303323,6.30403e-006 0.0536554,-2.43155e-005 0.0839877,-2.07132e-005 0.0567858,5.40345e-006 0.109924,2.9719e-005 0.168006,2.07132e-005 0.109634,-1.17075e-005 0.228122,-0.00640039 0.344836,0.00192993l-0.000310699 0.0354277 0 0.0157484 0 0.0157484 0 0.015752 0 0.0157484 0 0.0157484 0 0.0157484 0 0.0157511 0 0.0157484 0 0.0157484 0 0.0157484 0 0.0157511 0 0.0157484 0 0.0157484 0 0.0157484 0 0.0157511 0 0.0157484 0 0.0157484 0 0.0157484 0 0.015752 0 0.0157484 0 0.0157484 0 0.0157475 0 0.015752 0 0.0157484 0 0.0157484 0 0.0157484 0 0.0157511 0 0.0157484 0 0.0157484 0 0.0157484 0 0.0157511 0 0.0157484 0 0.0157484 0 0.0157511 0 0.0157484 0 0.0157484 0 0.0157484 0 0.015752 0 0.0157484 0 0.0157484 0 0.0157484 0 0.0157511 0 0.0157484 0 0.0157484 0 0.0157484 0 0.0157511 0 0.0157484 0 0.0157484 0 0.0157484 0 0.0157511 0 0.0157484 0 0.0157484 0.000796109 0.0157574 -0.000796109 0.0314913 0 0.0157475 0 0.0157484 0 0.015752 -0.000184618 0.0157511 0.00416426 0.0315328c0.0849441,-0.0156025 0.0635698,-0.116457 0.0635698,-0.220489 0,-0.097119 0,-0.194238 0,-0.291358 0,-0.097119 0,-0.194238 0,-0.291361 0,-0.048559 0,-0.097119 0,-0.145679 0,-0.0236113 -0.000181916,-0.0472811 2.07132e-005,-0.070887 0.000307096,-0.0360041 -0.00355007,-0.0359132 -0.0272325,-0.0342408l-0.0363265 0 -0.0363256 0 -0.0363229 0 -0.0363265 0 -0.0363256 0 -0.0363265 0 -0.0363256 0 -0.0363229 0 -0.0363265 0 -0.0363256 0 -0.0363265 0 -0.0363256 0 -0.0363265 0 -0.0363229 0 -0.0363256 0 -0.036358 -0.00117885c-0.0118444,0.000248559 -0.0317876,0.00288995 -0.0317876,-0.0118101l-7.20461e-006 -0.232387 0.0226702 -0.000399856 0.0181628 0 0.0181628 0 0.0181628 0 0.0181637 0 0.0181628 0 0.0181592 0 0.0181637 0 0.0181628 0 0.0181628 0 0.0181637 0 0.0181628 0 0.0181628 0 0.0181637 0 0.0181628 0 0.0181628 0 0.0181628 0 0.0181637 0 0.0181592 0 0.0181628 0 0.0181637 0 0.0181628 0 0.0181628 0 0.0181637 0 0.0181628 0 0.0181628 0 0.0181637 0 0.0181628 0 0.0181628 0 0.0181601 0 0.0181628 0 0.0181628 0 0.0182466 -0.000708753 0.0272046 0.00119687c0.00548811,-0.00710644 0.0090805,-0.00692182 0.0090805,-0.0157484l0 -0.354358c0,-0.0106322 -0.00216859,-0.0108564 -0.0045425,-0.0196857l-0.0090796 0c-0.00632835,0.015163 -0.0298082,0.0361914 -0.034329,0.0520911 -0.0034456,0.0121163 -0.0203728,0.059619 -0.0201603,0.0620911zm0.295147 -0.200803l-0.0045344 0.011956 0.0453989 -0.000142291 0.0136212 0 0 0.429164c0,0.0238968 -0.00568984,0.0375855 0.0272046,0.0349468 0.204032,0 0.40827,-0.00153278 0.612284,0.000488112 -0.00482799,0.0813976 -0.0010933,0.163787 -0.000181916,0.245288 -0.199734,0 -0.43951,0.00138689 -0.63922,-0.00115724l-8.73558e-005 0.759872 0.0635725 -0.0236203 0 -0.665401 0.640235 -0.00448036 0 -0.231757c0,-0.0162608 -0.0303674,-0.0504106 -0.0396244,-0.0683006 -0.00897874,-0.0173658 -0.00944704,-0.0695028 -0.0284861,-0.0695028l-0.571657 2.70173e-006 -0.000468299 -0.425229c-0.00753962,-0.00546109 -0.0241012,-0.00787553 -0.0317876,-0.00787553 -0.0178737,0 -0.0682961,0.00715778 -0.0862707,0.0157484zm0.295144 -0.0669308c0.00807096,-0.00700018 -0.00807096,0.00699747 0,0zm0.0817327 -0.00787553c0.00807096,-0.00700018 -0.00807096,0.00700018 0,0zm0.0817317 -0.102369c0.00807456,-0.00700018 -0.00807096,0.00700018 0,0zm-0.0635689 -0.0472478c0.00807096,-0.00700018 -0.00807096,0.00700018 0,0zm-0.249647 -0.0497739c-0.0165508,0.00814481 -0.0354926,0.00373739 -0.0483627,0.00959023 -0.0185897,0.0084537 -0.0341444,0.0138788 -0.0539481,0.0224207 -0.0198388,0.00855727 -0.0869515,0.0537887 -0.0892453,0.0525432l-0.0045416 0.00393462 0.00348793 0.00276297 -0.0208934 0.0215184c0.0122145,0.0043777 0.151732,-0.0551206 0.208871,-0.0551206l0.0408672 0c0.0556484,0 0.0889517,0.0617029 0.0341624,0.084746 -0.0421596,0.0177287 -0.0900441,0.000487211 -0.115231,0.00950828l0.00387518 0.015987c0.0353665,0.00714607 0.0545064,0.0472487 0.127141,0.0472487l0.0226801 -0.000197226 0.149822 -0.012101 0.0181628 0 0.0182051 0.000487211c0.0342939,-0.00224153 0.0387734,0.0096938 0.0684978,0.01202l-0.00492885 0.0076666c0.0213887,0.00154179 0.104318,0.108839 0.0998991,0.118117 0.0123991,0.0009393 0.0545308,0.0432042 0.0537274,0.0439679l0.0045416 0.00393732 0.00245137 -0.00345641 0.0255493 0.01461c0.000132385,-9.45605e-005 0.0084483,-0.00397784 0.00904178,-0.00345011l0.0183618 0.00117795 0.0452071 -0.00215057 0.0181628 0 0.0181628 0 0.0181637 0 0.0181628 0 0.0182051 0.000487211c0.0198559,-0.00129863 0.000987932,-0.00867164 0.0225648,0.00102125l0.0410041 -0.00102125c-0.0188337,-0.0243867 -0.0411608,-0.0408321 -0.0482438,-0.0740552 -0.00273325,-0.0128314 -0.0211653,-0.0810653 -0.0107871,-0.0952476 -0.00576008,-0.00746037 -0.013569,-0.0405259 -0.0156601,-0.0502098 -0.0037563,-0.0174234 -0.023424,-0.0414688 -0.0252044,-0.0600342l-0.0136212 0c0.0053134,-0.0111536 -0.0159294,-0.0300279 -0.0367138,-0.0317057l0.00492525 -0.0076666c-0.020969,-0.00151477 -0.0577629,-0.0339382 -0.10104,-0.033496 -0.0134393,0.000139589 -0.0266354,-0.000866354 -0.0406367,7.56484e-005 -0.0199018,0.00133555 -0.0459339,0.0147703 -0.0608357,0.0105836l0.00114103 0.00478926 -0.0208402 0.0131277 0.120578 0.0267444 0.0297424 0.0142669 -0.00605637 0.00393462 0.00529899 0.0032835c0.0192345,0.016676 0.035108,0.0216192 0.0177684,0.0581529 -0.0126225,0.0266048 -0.0282195,0.0324027 -0.0677161,0.0324027 -0.108877,0 -0.173193,-0.123418 -0.20926,-0.126199l0.00492885 -0.0076666c-0.0101198,-0.000960014 -0.0768695,-0.0477332 -0.101871,-0.0539634 -0.0539796,-0.0134555 -0.0757204,-0.0247847 -0.125162,-0.0247847l-0.0137122 -0.0014085 -0.058849 0.0028206zm0.935292 2.64838c0.00807096,0.00700018 -0.00807096,-0.00699747 0,0zm-0.213412 0.102369c0.0221217,-0.000427773 0.0512464,-0.023016 0.0614148,-0.0293678 0.0220632,-0.0137824 0.0436014,-0.0200099 0.0670217,-0.0325657 0.00997748,-0.00534672 0.109038,-0.0474234 0.121301,-0.0483087l-0.00492885 -0.0076666c0.0517066,-0.0039103 0.077581,-0.0955952 0.077581,-0.118326 0,-0.000530439 -0.00446776,-0.00779989 -0.0045416,-0.00787553l0.00998738 -0.00708843 -0.000582672 -0.0677188c-0.000324207,-0.00789355 -0.00395173,-0.00995316 -0.00486311,-0.0275612l-0.00379052 -0.0472784c-0.0234627,0.0104503 -0.0292885,0.0618146 -0.0417543,0.0817399 -0.00481808,0.00769722 -0.0342705,0.0639688 -0.063433,0.0639688l-0.0408681 0c-0.0112896,0 -0.017074,-0.00984419 -0.0272424,-0.0157484 0,-0.0703872 0.0110618,-0.0419407 0.0272424,-0.0944956l-0.0359879 0.00873288 0.00459114 0.00680925c-0.0166345,0.00174802 -0.0329926,0.0125738 -0.0276306,0.0238328l-0.0136212 0c0.002663,0.00559528 -0.0342597,0.0518011 -0.0340472,0.0797235 0.000230547,0.029982 0.00838526,0.0476414 0.0113419,0.0817038l-0.000561959 0.0157853 0 0.0157511c0.00229016,0.0198649 -0.0258465,0.0668948 -0.0766282,0.0668948l-0.00817543 0.00866354c0.00131574,0.0223604 0.00817543,0.0225333 0.00817543,0.0385843l0 0.0118111zm-0.899056 -2.49623c0.00807096,-0.00699747 -0.00807456,0.00700018 0,0zm-0.108979 -0.0393723l-0.0139814 -0.00457132 -0.113156 0.0478809c0.004538,0.0100657 -0.0289463,0.0380394 -0.0397127,0.0522586 -0.0119488,0.015788 -0.00811239,0.0356007 -0.020607,0.0501197l0.000866354 0.0905853 0.00496397 -3.6023e-005c0.00285933,-0.00449838 0.0506106,-0.130058 0.0824891,-0.117463l0.00378422 -0.00459204c0.00473072,-0.00410482 0.0170668,-0.00946595 0.0398559,-0.0128044 0.031313,-0.00458573 0.0242822,0.00694254 0.0509564,0.00886617 -0.00708303,0.0148667 0.0045416,0.00763688 0.0045416,0.0275621l0.00168228 0.0120524 -0.0107619 0.0470055c0.0327656,0.0117381 0.0565805,-0.0454268 0.0678593,-0.0640715 0.0168642,-0.02788 0.00668137,-0.054094 0.0352233,-0.0788418 0.0499711,-0.0433249 0.140515,-0.0303269 0.18752,-0.0303269l0.0227044 0 0 -0.0118111 -0.0136212 0c-0.00185699,0 -0.0705025,-0.0214247 -0.103606,-0.0243867 -0.0307547,-0.00275036 -0.047581,-0.00711275 -0.082563,-0.00711275l-0.0045416 0c-0.0164319,0 -0.0902188,0.00715778 -0.0998955,0.0196866zm-0.154385 1.97651l0.000561959 0.0314598 0 0.015752 0.00049982 0.0157448 0.00110951 0.0235852 -0.000338616 0.00462536 0.0634122 -0.0200738 0.00286653 -0.0159726 0 -0.0984311 -0.0227017 0c-0.00975324,0.0233573 -0.045996,0.0221154 -0.0454097,0.0433105zm-0.0090796 -1.9647c7.38472e-005,7.56484e-005 0.0045416,0.00734329 0.0045416,0.00787283 0,0.0150549 0.00139319,0.00143282 -0.0024991,0.011223l0.0024991 0.00846361 0.0181601 0 0 -0.00787283 0.00947045 -0.000208934 -0.00334384 -0.00536743 0.0211194 -0.0141102c-0.00246848,-0.000884365 -0.0172208,-0.00393732 -0.0227044,-0.00393732 -0.0156745,0 -0.00971901,0.0023478 -0.0272433,0.00393732z"/>
 </g>
</svg>
