<?xml version="1.0" encoding="UTF-8"?>
<!DOCTYPE svg PUBLIC "-//W3C//DTD SVG 1.1//EN" "http://www.w3.org/Graphics/SVG/1.1/DTD/svg11.dtd">
<!-- Creator: CorelDRAW -->
<svg xmlns="http://www.w3.org/2000/svg" xml:space="preserve" width="25in" height="39in" style="shape-rendering:geometricPrecision; text-rendering:geometricPrecision; image-rendering:optimizeQuality; fill-rule:evenodd; clip-rule:evenodd"
viewBox="0 0 6.25183 5.02867"
 xmlns:xlink="http://www.w3.org/1999/xlink">
 <defs>
  <style type="text/css">
   <![CDATA[
    .fil0 {fill:black}
   ]]>
  </style>
 </defs>
 <g id="Dummy_x0025_Layer_x0025_Dummy_x0025_Layer">
  <metadata id="CorelCorpID_0Corel-Layer"/>
  <g id="_235405208">
   <path id="_235406456" class="fil0" d="M6.25183 2.20683l0 -0.0614244c-0.0157529,-0.00787109 -0.00769475,-0.00736879 -0.0255102,-0.0155284 -0.0260179,-0.0119001 -0.0621351,-0.00546648 -0.0923156,-0.0517045 -0.025585,-0.0392112 -0.0176712,-0.106701 -0.0484502,-0.145586 -0.0302607,-0.038244 -0.109036,-0.019317 -0.154921,-0.0137864 -0.0846423,0.0101902 -0.114695,-0.028166 -0.199839,-0.0813399l-0.283968 -0.197515c-0.0390615,-0.0294271 -0.0730841,-0.0582877 -0.0511541,-0.129047 -0.0773109,-0.00502831 -0.0475632,0.0640535 -0.173319,-0.0345035 -0.0330981,-0.0259538 -0.123661,-0.081388 -0.142006,-0.113519l0.0256171 -0.0543335c-0.0464838,-0.00727261 -0.083969,0.0364058 -0.171737,-0.0249866 -0.022801,-0.0159452 -0.103184,-0.0801643 -0.116068,-0.10483 0.0030779,-0.0660413 0.00588328,-0.0325851 -0.0601046,-0.043144 -0.00888637,-0.00142139 -0.185155,-0.0918187 -0.247899,0.058587 -0.0315538,0.0756651 0.0172491,0.133301 0.0636153,0.162434l0.121406 0.065881c0.0187025,0.00939935 0.0260232,0.0113498 0.0399646,0.0250667 -0.000160307,0.0258789 -0.0114459,0.0482418 -0.0142834,0.0771666 0.0381799,-0.00269316 0.0617985,-0.0376134 0.0965103,-0.025927l0.0886446 0.0441433c0.124511,0.0561236 0.0977661,0.124933 0.114208,0.148861 0.0418723,-0.017201 0.0360691,-0.0508014 0.104798,-0.0112536l0.138735 0.0860637c0.0160895,0.0104948 0.0279736,0.0152506 0.0479319,0.0272629 0.0586084,0.035273 0.0283103,0.0502029 0.0508976,0.0990218 0.0198354,-0.0101421 0.0263011,-0.0230362 0.050935,-0.0228759 0.0330661,0.00022443 0.0679703,0.0334882 0.104943,0.0547343 0.0449341,0.0258469 0.221251,0.137025 0.238804,0.160484 -0.0225873,0.0466761 -0.107278,0.145735 -0.148904,0.187976 -0.158699,0.160997 -0.309249,0.123239 -0.532402,0.142861 -0.255316,0.0224591 -0.348332,-0.0503686 -0.540626,0.140766 -0.027279,0.0271347 -0.0535106,0.0576091 -0.0899324,0.0790475l-0.869341 0.493453c-0.00593671,0.00312599 -0.199022,0.123495 -0.183979,0.15429 0.0154162,0.0315859 0.0543175,-0.0204285 0.127808,-0.0207491 0.0614084,-0.000272522 0.0914767,0.0313561 0.131463,0.0347119 0.112472,0.00946347 0.0340012,-0.0855774 0.343026,-0.169252l0.126931 -0.0408891c0.0966065,-0.030421 0.245853,-0.0848186 0.333124,-0.136283l0.234439 -0.150395c0.0369882,0.0142193 0.0821468,0.103414 0.101154,0.145687 0.0555091,0.123511 0.0769689,0.287981 0.04798,0.425472 -0.0530938,0.251837 -0.131511,0.24184 -0.23679,0.513021 -0.047483,0.122293 -0.0847278,0.248642 -0.118553,0.380495 -0.0248744,0.0969592 -0.0612962,0.354985 -0.0225873,0.448722 0.031276,0.0757612 0.085385,0.0745536 0.172688,0.0677672 0.0659291,-0.00512983 0.12426,-0.0529174 0.145767,-0.106396 0.0426578,-0.105974 0.00222293,-0.273003 0.0512342,-0.447594 0.00588862,-0.0209415 0.00885431,-0.0307469 0.0142887,-0.0489472 0.00565885,-0.0190285 0.0098963,-0.026456 0.0166987,-0.0467884 0.0176391,-0.0527197 0.0949981,-0.224345 0.128208,-0.248017 0.00928714,0.0124505 0.0125253,0.0335684 0.0134284,0.0514961 0.00101528,0.0198835 0.000165651,0.0425349 6.41229e-005,0.0626534 -0.00144811,0.279004 0.164582,0.508687 0.338997,0.710103 0.0389654,0.0450143 0.0595862,0.110489 0.164192,0.0696054 0.107732,-0.0421127 0.164192,-0.0883721 0.112648,-0.239424 -0.0429196,-0.125788 -0.23352,-0.277919 -0.289771,-0.498075 -0.0427059,-0.167254 -0.0299561,-0.283546 0.00759322,-0.452622 0.0538846,-0.242727 0.0412578,-0.440102 -0.0704871,-0.660204 -0.0148658,-0.0292828 -0.0263118,-0.0577694 -0.0406112,-0.090595 -0.0146093,-0.0335203 -0.0333279,-0.0641977 -0.0381959,-0.0998447 0.131158,-0.0309233 0.220866,-0.0372287 0.334449,-0.101186 0.00949554,-0.00533823 0.021572,-0.0137544 0.0308111,-0.0189804 0.0198781,-0.0112696 0.0158758,-0.00721917 0.0352409,-0.0211018 0.161483,-0.115843 0.153986,-0.120904 0.279197,-0.270732 0.0285828,-0.0342096 0.0656832,-0.0969271 0.129945,-0.0786788 0.0715558,0.0203002 0.0484983,0.0803247 0.147542,0.0672329 0.0762261,-0.010078 0.0852888,-0.096831 0.107828,-0.107005z"/>
   <path id="_235406336" class="fil0" d="M1.53795 5.0281c0.059287,0 0.141749,-0.010591 0.206241,-0.0103184 0.141204,0.000598481 0.490936,-0.0059474 0.593057,-0.044528 0.117821,-0.0445173 0.0282141,-0.300704 -0.0162712,-0.395136l-0.0980065 -0.220022c-0.0616702,-0.14767 -0.0351821,-0.134802 0.140456,-0.221929 0.234359,-0.11626 0.193197,-0.0934966 0.267072,-0.00541839 0.0352623,0.0420165 0.162888,0.2095 0.195554,0.230217 0.0993318,0.0630542 0.261477,0.0209896 0.261477,-0.100107 0,-0.0826598 -0.0468044,-0.125595 -0.0907393,-0.177124l-0.227444 -0.279015c-0.0518167,-0.0637809 -0.0952653,-0.0925614 -0.181088,-0.0925614 -0.0760338,0 -0.53867,0.166175 -0.66154,0.211835 -0.0762422,0.0283263 -0.13461,0.0610878 -0.13461,0.155568 0,0.0829964 0.116698,0.373591 0.159987,0.467472 0.0121887,0.02644 0.0588168,0.110649 0.0487388,0.137993 -0.062445,0 -0.145025,0.00549854 -0.203339,0.0120444 -0.0602809,0.00675428 -0.137704,0.0051138 -0.196825,0.00856041 -0.0545419,0.00317943 -0.134316,0.00919095 -0.185085,0.021572 -0.138671,0.0338088 -0.0825315,0.22746 -0.0581061,0.258191 0.0408677,0.0514426 0.120353,0.0427059 0.180474,0.0427059z"/>
   <path id="_235406168" class="fil0" d="M3.6968 0.816739c0.00114353,0.029566 0.0720849,0.15397 0.0941111,0.191182 0.0159132,0.0268889 0.0267446,0.0386768 0.0310996,0.073036 -0.043128,0.0157636 -0.198327,0.115389 -0.227652,0.122304 -0.0110933,-0.0146254 -0.132788,-0.214026 -0.140413,-0.245756 -0.0309233,0.00570694 -0.182814,0.0946882 -0.226744,0.121176 0.00135192,0.0295714 0.0745482,0.150796 0.0940096,0.18578l0.173233 0.314261c0.0112536,0.0181575 0.0190445,0.0294912 0.0282836,0.0475792l0.103329 0.181105c0.0297958,-0.00187025 0.211622,-0.110682 0.223698,-0.122288 -0.00269316,-0.0267019 -0.0201346,-0.0481456 -0.0340813,-0.0713742l-0.0783742 -0.145767c-0.0156834,-0.0252324 -0.034434,-0.0455273 -0.0353531,-0.0791117 0.0204071,-0.0143956 0.211461,-0.119274 0.226183,-0.1196 0.01983,0.0046596 0.129641,0.232376 0.166821,0.276119 0.0293576,0.000790849 0.0873835,-0.040841 0.116212,-0.0564923 0.038789,-0.021059 0.0733085,-0.0397135 0.110307,-0.0632359 -0.0102223,-0.0343913 -0.120241,-0.220524 -0.145067,-0.271812 -0.0151437,-0.0312599 -0.0362455,-0.0639573 -0.0516724,-0.0921072l-0.195233 -0.349117c-0.00575503,-0.00765735 -0.00430158,-0.00606496 -0.00959172,-0.0111414 -0.0343752,0.00172598 -0.0846904,0.03966 -0.114711,0.0566366 -0.0340332,0.0192529 -0.0731643,0.0404028 -0.108394,0.0586244z"/>
   <path id="_235406288" class="fil0" d="M1.106 2.55412c0,-0.0602969 0.0371592,-0.107181 0.0837873,-0.129304 0.193988,-0.0920271 0.310456,0.183931 0.310456,0.273089 0,0.0532487 -0.0188147,0.0838033 -0.0557656,0.112904 -0.0539167,0.0424654 -0.111649,0.0617023 -0.173399,0.0289729 -0.0759376,-0.0402585 -0.165079,-0.174174 -0.165079,-0.285662zm-0.250918 0.0750185c0.00207865,0.0155124 0.00362829,0.0293469 0.005739,0.0499357 0.0019985,0.0195201 0.00556266,0.0250988 0.0120124,0.0463983 0.0442395,0.145912 0.125275,0.239339 0.250448,0.311808 0.157694,0.0913217 0.361696,0.0164475 0.489082,-0.102346 0.0691779,-0.0645183 0.149006,-0.168542 0.138281,-0.31176 -0.00688253,-0.0918027 -0.0524472,-0.210724 -0.116629,-0.277519 -0.0433738,-0.0451425 0.00693062,-0.00719245 -0.0849041,-0.0838193 -0.0593618,-0.0495296 -0.165159,-0.0934004 -0.24698,-0.0849522 -0.176237,0.0181682 -0.327839,0.120759 -0.40834,0.264881 -0.0209254,0.0374638 -0.0463181,0.130367 -0.0387089,0.187373z"/>
   <path id="_235405832" class="fil0" d="M2.06466 1.72887c0.0389814,0.102896 0.265073,0.433957 0.265073,0.512652 0,0.0492892 -0.0140269,0.0768567 -0.0534785,0.107117 -0.124131,0.0952706 -0.199599,-0.0161697 -0.249839,-0.120353 -0.0155231,-0.032179 -0.0347279,-0.0602007 -0.0519289,-0.0918347 -0.0241049,-0.0443196 -0.132547,-0.252318 -0.161451,-0.272004l-0.215496 0.117115c0.00190231,0.030763 0.00767338,0.0326332 0.0216842,0.0543976 0.039644,0.0615687 0.116292,0.222929 0.17132,0.309585 0.0539274,0.0849468 0.0960241,0.170011 0.183488,0.228892 0.118681,0.0798865 0.311327,0.0142513 0.408276,-0.0513037 0.0623115,-0.0421288 0.13017,-0.0829804 0.171411,-0.159725 0.0781017,-0.145329 0.00990165,-0.240648 -0.0653413,-0.397145l-0.188409 -0.367355c-0.0365982,0.0113177 -0.210756,0.105616 -0.23531,0.129961z"/>
   <path id="_235405616" class="fil0" d="M2.53963 1.61634c0,0.0992356 -0.00375653,0.158068 0.0505289,0.254707 0.070781,0.125996 0.18686,0.260943 0.355455,0.274147 0.116843,0.00914286 0.356636,-0.123079 0.412241,-0.209783 0.0374692,-0.058448 0.0522548,-0.123955 0.0522548,-0.19402 0,-0.00311531 -0.00830392,-0.10802 -0.0403707,-0.10802 -0.0169659,0 -0.202564,0.0435929 -0.210179,0.0478838 -0.00339851,0.029037 0.00986959,0.0361279 0.00986959,0.0913965 0,0.073036 -0.0725818,0.147472 -0.143539,0.147472 -0.0912362,0 -0.102538,-0.0279736 -0.160115,-0.112242 -0.0314042,-0.0459654 -0.0662657,-0.112616 -0.0756116,-0.173543 -0.0143849,-0.0937691 0.0913004,-0.186929 0.179635,-0.163567 0.109036,0.0288446 0.0366302,0.0951103 0.213946,-0.0654268 0.0192048,-0.0173933 0.0305706,-0.0202949 0.0369081,-0.0453189 -0.0174949,-0.0282141 -0.0599603,-0.0566847 -0.0911454,-0.0724696 -0.107812,-0.054606 -0.186245,-0.0453883 -0.303927,-0.0030779 -0.0912523,0.0327935 -0.175253,0.104104 -0.229437,0.183584 -0.0222026,0.0325531 -0.0565137,0.116036 -0.0565137,0.148279z"/>
   <path id="_235405568" class="fil0" d="M0 2.86734l0 0.0153681 0.0102223 0.00547717 0.0891736 0.158357c0.0732818,-0.00418936 0.167468,-0.106439 0.241663,-0.107486 0.0182163,0.0531686 0.0826919,0.149326 0.109004,0.202644 0.0505289,0.102378 0.128727,0.220508 0.181735,0.329848 0.0218606,-0.00184888 0.0330821,-0.0134605 0.0633962,-0.0286149 0.0218125,-0.0109169 0.0300683,-0.0203002 0.0550869,-0.032163 0.0303462,-0.0144009 0.0937531,-0.0468845 0.109944,-0.0689268 -0.00809552,-0.0211178 -0.0244095,-0.0462219 -0.0358287,-0.0676817l-0.22194 -0.403547c-0.0125788,-0.0241369 -0.0255904,-0.040857 -0.0327134,-0.0668642 0.0265041,-0.0275996 0.0714223,-0.0454311 0.107037,-0.0666665 0.0341294,-0.020343 0.0781605,-0.0371753 0.105781,-0.0641817 -0.00359623,-0.0269744 -0.0751628,-0.153195 -0.0948645,-0.178427 -0.0336806,0.00288553 -0.314651,0.167836 -0.344511,0.183685 -0.0807575,0.0428341 -0.278208,0.163658 -0.343186,0.189179z"/>
   <path id="_235405784" class="fil0" d="M1.12646 3.47314c0,0.019846 0.0133162,0.0561717 0.018617,0.0751788l0.0514961 0.208613c-0.0749383,-0.00367638 -0.188115,-0.229923 -0.266249,-0.20437l-0.124981 0.0696161c-0.0282622,0.0173666 -0.0393394,0.0116917 -0.057187,0.0385165l0.140285 0.261221c0.0470128,0.087095 0.0926897,0.166319 0.143117,0.254734 0.0305385,0.00134124 0.124067,-0.0555892 0.137944,-0.0720849 -0.0112696,-0.0332424 -0.0257133,-0.0528159 -0.0437051,-0.0822537 -0.01843,-0.0301645 -0.121855,-0.219851 -0.127337,-0.243566 0.0327615,0.0170246 0.171352,0.174511 0.215351,0.218542 0.0255209,0.025537 0.0415463,0.0602007 0.0829964,0.0418242 0.103329,-0.0457731 0.094608,-0.0645878 0.0633962,-0.182269 -0.0108528,-0.0408997 -0.0565618,-0.193037 -0.048322,-0.226584 0.0164956,0.00746498 0.0172865,0.0150582 0.0282141,0.0342256l0.145719 0.261076c0.0300843,-0.00122902 0.123902,-0.0556587 0.137298,-0.0710696l-0.247707 -0.456042c-0.0117559,-0.0203002 -0.0252805,-0.047451 -0.0361974,-0.0639466 -0.0332103,0.00138933 -0.0897507,0.0400822 -0.119595,0.0585122 -0.0393234,0.0242972 -0.0931546,0.0255049 -0.0931546,0.0801269z"/>
   <path id="_235405448" class="fil0" d="M4.35842 2.09774c0.010607,-0.0190605 0.0171048,-0.0291652 0.0428662,-0.0291652 0.000438173,0 0.0778399,0.0174895 0,0.0789193 -0.0184247,-0.0115635 -0.0342897,-0.0277973 -0.0428662,-0.049754zm0.099134 0.196115c0.033376,0 0.130693,-0.0121727 0.0992195,0.0526877 -0.0101261,0.0208613 -0.035273,0.0403066 -0.0560755,0.0484502 0.0217537,0.0307416 0.0820667,0.0268728 0.125644,0.0268728 0.0309393,0 0.0908034,-0.0237308 0.118243,-0.0370951 0.140771,-0.0686169 0.236293,-0.363855 0.0793094,-0.522084 -0.0703108,-0.0708719 -0.123437,-0.106455 -0.222555,-0.106455 -0.114582,0 -0.280597,0.105904 -0.33058,0.235871 -0.0534144,0.138944 0.0214598,0.300608 0.0749864,0.317211 0.0331676,0.0103024 0.0754246,-0.015459 0.111809,-0.015459z"/>
   <path id="_235405352" class="fil0" d="M3.6149 2.20892c0.0366302,-0.0285828 0.0868011,-0.0542373 0.134444,-0.0350646l0.0173346 0.00959172c0.00835201,0.0663459 -0.0494495,0.106326 -0.1042,0.125804 -0.00725658,-0.0120444 -0.00767872,-0.0098963 -0.0138986,-0.0210858 -0.0162017,-0.0291172 -0.0327615,-0.0510472 -0.0336806,-0.0792452zm0.0549266 0.508896c0.01843,-0.0026611 0.156439,-0.0752108 0.160131,-0.0886767 -0.00620389,-0.0517686 -0.105648,-0.176237 -0.100539,-0.221748 0.132254,-0.00833598 0.22412,0.141231 0.292673,0.117986 0.0345516,-0.0117238 0.142604,-0.0759536 0.164967,-0.0963019 -0.0102383,-0.0160895 -0.109506,-0.0691993 -0.125884,-0.0786628 -0.0281981,-0.0162658 -0.123132,-0.0620069 -0.130239,-0.0834987 -0.0055306,-0.0167361 0.0750505,-0.120679 -0.0169445,-0.225392 -0.0323286,-0.0367905 -0.0835148,-0.0548518 -0.131628,-0.0548518 -0.0372554,0 -0.297878,0.148103 -0.350181,0.173495 -0.0772254,0.0374852 -0.0557335,0.0263438 -0.0179918,0.0995081 0.00043283,0.000822911 0.238067,0.440936 0.255637,0.458142z"/>
   <path id="_235405400" class="fil0" d="M2.64764 0.491016c0.00363898,0.0365501 0.119354,0.214491 0.132008,0.260168 -0.0228919,-0.000470235 -0.201453,-0.0939454 -0.233985,-0.1112 -0.0852247,-0.0452067 -0.0957355,-0.0465426 -0.182847,0.00722452 -0.0204125,0.0126108 -0.0381157,0.0166239 -0.0535907,0.0319706 0.00654588,0.0267019 0.127124,0.236165 0.153761,0.287255l0.0901889 0.160035c0.0133002,0.0208132 0.0212621,0.0467082 0.0372073,0.0614618 0.035631,-0.0104841 0.112183,-0.058945 0.145703,-0.0801804 -0.00512983,-0.0272629 -0.0871591,-0.173415 -0.110553,-0.216719 -0.0095276,-0.0176552 -0.0277011,-0.031308 -0.0104146,-0.0385005 0.00878484,-0.00366035 0.24053,0.119338 0.268926,0.131655 0.0649565,0.0281981 0.149438,-0.0328737 0.187971,-0.0680505 -0.00388478,-0.0266538 -0.114518,-0.215351 -0.135577,-0.25406l-0.139783 -0.252447c-0.0324996,0.00846423 -0.0507693,0.0225392 -0.077049,0.0376615 -0.0247461,0.0142353 -0.0499785,0.0289568 -0.0719673,0.0437265z"/>
   <path id="_235405736" class="fil0" d="M1.40823 1.34127c0.0904774,-0.0840652 0.163145,-0.0347439 0.218574,0.0555732 0.0378058,0.061574 0.0362295,0.113701 -0.0104788,0.166965 -0.0115956,0.0132254 -0.0155124,0.0171903 -0.0267499,0.0289729l-0.0266164 0.0252163c-0.0269263,-0.013733 -0.0292454,-0.0372608 -0.0478678,-0.0667947 -0.0102223,-0.0162178 -0.0112375,-0.0211392 -0.019285,-0.036534 -0.00504434,-0.00963981 -0.0127979,-0.0208453 -0.0182964,-0.0318103 -0.0145933,-0.0291332 -0.0699581,-0.114374 -0.0692795,-0.141589zm-0.234102 -0.0388371c0.000438173,0.0355188 0.0765361,0.151677 0.0990272,0.197451l0.141797 0.258105c0.00848026,0.0159292 0.0271187,0.0498716 0.041728,0.0597038l0.216896 -0.11571c0.0696642,-0.043128 0.136945,-0.0881744 0.155648,-0.176803 0.0341615,-0.161932 -0.123757,-0.388489 -0.266265,-0.388489l-0.0500105 0c-0.0148498,0 -0.31557,0.150277 -0.33882,0.165742z"/>
   <path id="_235405712" class="fil0" d="M3.12338 3.61692c0.00764132,-0.0331622 0.0192476,-0.0305011 0.0476113,-0.041883 0.0168162,0.0153628 0.0236667,0.015801 0.0291652,0.0437906 -0.0209148,0.00900927 -0.0294752,0.0190071 -0.0561877,0.0242759l-0.0205888 -0.0261835zm-0.145554 0.0337981c0.0243774,0.00481991 0.0360478,0.0170086 0.0486052,0.0343539 0.0416959,0.057561 -0.00520464,0.107395 0.0674894,0.104424 0.0196857,-0.000801537 0.0508869,-0.00662604 0.0665382,-0.0130223 0.12737,-0.0520945 0.213401,-0.350314 -0.0475739,-0.490001 -0.110895,-0.0593458 -0.212338,-0.0372608 -0.292759,0.0372768 -0.164689,0.152618 -0.108309,0.410884 0.0346317,0.483514 0.0255102,0.0129635 0.049193,0.0226888 0.0773429,0.0226888 0.124997,0 0.0313561,-0.107347 0.045725,-0.179234z"/>
   <path id="_235405256" class="fil0" d="M2.04831 0.975935c0.127049,-0.0348294 0.21548,0.164983 0.185556,0.235967 -0.0134605,0.0319546 -0.0409959,0.0562839 -0.0765628,0.0677298 -0.0844178,0.0271347 -0.13135,-0.0696001 -0.161761,-0.127674 -0.0376776,-0.0719833 -0.0392593,-0.150812 0.0527678,-0.176023zm0.00229239 0.462877c0.0822751,0 0.102426,0.0071123 0.182542,-0.0337447 0.264261,-0.134802 0.215832,-0.424152 0.0204232,-0.554647 -0.11276,-0.0752963 -0.262701,-0.029021 -0.345361,0.0423051 -0.10086,0.0870469 -0.147328,0.184492 -0.0972852,0.324884 0.0205888,0.0577694 0.0514319,0.101576 0.0916584,0.13998 0.0334722,0.0319546 0.0985569,0.0812224 0.148022,0.0812224z"/>
   <path id="_235405856" class="fil0" d="M3.2504 2.67916c-0.0141391,0.016362 -0.0557014,0.0421929 -0.0827399,0.0448005l-0.0332745 -0.141733c-0.00369241,-0.0150903 -0.0148819,-0.0362722 0.00386875,-0.0276958 0.0037405,0.00170994 0.106343,0.100363 0.112146,0.124628zm0.364501 0.0722291c-0.0123009,-0.0286523 -0.293966,-0.263802 -0.34978,-0.311488 -0.0163674,-0.0139948 -0.0156086,-0.0114513 -0.032521,-0.0237201 -0.0753551,-0.0546541 -0.0798544,-0.102506 -0.132302,-0.0696482 -0.178075,0.111601 -0.15265,0.00215881 -0.109004,0.362225 0.010078,0.083098 0.0530617,0.279955 0.0552526,0.350827 0.0227797,0.00175804 0.0665543,-0.0274232 0.0880301,-0.0404669 0.126515,-0.0768246 0.0720849,-0.0129635 0.0655871,-0.148199 0.0256331,-0.0165597 0.0715826,-0.0414181 0.0996203,-0.0552526 0.0525594,-0.0259057 0.0491716,-0.0452708 0.104456,-0.00822377 0.068152,0.0456769 0.120535,0.00790315 0.21066,-0.0560541z"/>
   <path id="_235405472" class="fil0" d="M2.65702 3.11313c-0.0313294,0 -0.0566259,-0.0206048 -0.0713635,-0.037373 -0.127268,-0.144699 -0.068697,-0.276017 0.00577641,-0.287383 0.0791918,-0.0120925 0.0772414,0.0854491 0.219589,-0.0726299 -0.0221865,-0.0410494 -0.0760658,-0.0676016 -0.130047,-0.078791 -0.113984,-0.0236079 -0.175526,0.0290691 -0.237709,0.066084 -0.0399539,0.0237789 -0.0814521,0.0688253 -0.100219,0.112103 -0.028524,0.0657634 -0.0235705,0.0805117 -0.0235705,0.145361 0,0.0939294 0.164176,0.463764 0.512679,0.238094 0.0471945,-0.0305653 0.111991,-0.103393 0.111991,-0.181842 0,-0.154392 -0.0336164,-0.10343 -0.182334,-0.0763918 0.00298172,0.0166399 0.00822377,0.0290049 0.00822377,0.0451425 0,0.0703428 -0.0294859,0.127626 -0.113017,0.127626z"/>
   <path id="_235405904" class="fil0" d="M1.88513 3.71731c0.0213636,-0.0169178 0.0565618,-0.0330874 0.080501,-0.0471303 0.0838728,-0.0492197 0.0922729,-0.0312439 0.0216842,-0.139441 -0.130218,-0.199599 -0.00523671,-0.364213 -0.0394516,-0.536527 -0.0201987,0.0019985 -0.0587152,0.029053 -0.0861759,0.0400768 -0.134701,0.0541572 -0.0756437,0.102671 -0.102426,0.272554 -0.0196857,-0.00134124 -0.0644222,-0.0312599 -0.0903011,-0.0457731 -0.0780002,-0.0437746 -0.0909797,-0.0633107 -0.139927,-0.0405952 -6.41229e-005,3.20615e-005 -0.00944744,0.00461151 -0.0127391,0.00621992l-0.132398 0.0755689c0.0352623,0.0259431 0.236549,0.126531 0.29667,0.159629 0.106861,0.0588168 0.159794,0.207288 0.189248,0.24216 0.00915889,0.0108368 0.00206262,0.00475578 0.0153147,0.0132574z"/>
   <path id="_235405280" class="fil0" d="M3.05707 0.264699c0.00557869,0.0235545 0.0364379,0.0692314 0.0503365,0.0947363 0.0162979,0.029892 -0.00106337,0.0476113 0.0972157,-0.0088169 0.0307149,-0.0176231 0.0495296,-0.0252324 0.0775834,-0.0376295 0.0229934,0.029908 0.0328577,0.0530243 0.0526716,0.0878805 0.00538633,0.00946882 0.00809552,0.0134177 0.0139147,0.0235438l0.146345 0.259783c0.0217484,-0.00258095 0.145522,-0.0760872 0.157678,-0.0869026l-0.0962806 -0.18686c-0.0225071,-0.0400982 -0.0944638,-0.154697 -0.100347,-0.188249 0.00122368,-0.0129315 0.0219888,-0.0216361 0.0345997,-0.0287805 0.0336432,-0.0190231 0.0909317,-0.0510899 0.112808,-0.0745322 -0.0116276,-0.00577106 -0.0256492,-0.0415517 -0.0348241,-0.0581541 -0.0165597,-0.0300042 -0.0178796,-0.040499 -0.0416158,-0.0607191 -0.0771613,0.0431921 -0.448401,0.243854 -0.470085,0.264699z"/>
   <path id="_235405880" class="fil0" d="M2.94462 0.496397c0.0334241,-0.00359623 0.0385806,-0.0177995 0.0785346,-0.0217323 -0.00440311,0.0265202 -0.00748101,0.0358875 -0.016688,0.0593939 -0.00667413,0.0170781 -0.014075,0.0318263 -0.015459,0.0507426l0.0526075 0.0363363c0.0287591,-0.0109116 0.0695039,-0.0755796 0.0695039,-0.130121 0,-0.08313 -0.0646519,-0.160051 -0.0998821,-0.212338 -0.0179437,0.004868 -0.137896,0.0684726 -0.142925,0.077904 -0.0120925,0.0226995 0.0601206,0.129576 0.0743078,0.139815z"/>
  </g>
 </g>
</svg>
