<?xml version="1.0" encoding="UTF-8"?>
<!DOCTYPE svg PUBLIC "-//W3C//DTD SVG 1.1//EN" "http://www.w3.org/Graphics/SVG/1.1/DTD/svg11.dtd">
<!-- Creator: CorelDRAW -->
<svg xmlns="http://www.w3.org/2000/svg" xml:space="preserve" width="25in" height="39in" style="shape-rendering:geometricPrecision; text-rendering:geometricPrecision; image-rendering:optimizeQuality; fill-rule:evenodd; clip-rule:evenodd"
viewBox="0 0 6.0812 3.74792"
 xmlns:xlink="http://www.w3.org/1999/xlink">
 <defs>
  <style type="text/css">
   <![CDATA[
    .fil0 {fill:black}
   ]]>
  </style>
 </defs>
 <g id="Layer_x0020_1">
  <metadata id="CorelCorpID_0Corel-Layer"/>
  <path class="fil0" d="M1.92564 0.9077l0.0292728 -0.117124c-0.11747,-0.0786676 -1.09183,-0.32209 -1.28834,-0.32209 -0.0107159,0 -0.218681,0.207873 0.0563821,0.236193 0.135256,0.0139291 0.258653,0.0416423 0.399611,0.069114 0.276765,0.053934 0.546448,0.0741203 0.803069,0.133906zm-1.43475 1.17122c0,-0.165187 0.177752,-0.351365 0.351363,-0.351365l0.0585645 0c0.495628,0 0.469565,0.849133 -0.0292809,0.849133 -0.20408,0 -0.380646,-0.195356 -0.380646,-0.409919l0 -0.0878481zm1.60893 -0.16971l-0.0199555 0.14193 -0.15471 -0.058798 0.000480499 -0.0598261c0,-0.00393257 0.0288085,-0.0579927 0.0292728,-0.0585564l0.144912 0.0352509zm1.3484 -0.210936l-0.380646 -0.0585564 0 -0.0878481 0.379326 0.093708 0.0013207 0.0526965zm1.52844 -0.784716c1.00475,0.229584 0.609036,0.00858992 0.609036,0.755433l-0.0644164 0.0527045 -0.696817 -0.170043 0.0936409 -0.579538 0.0585564 -0.0585564zm-2.70064 0.144984l0.000979788 0.112681 -0.08784 0c-0.0973856,0 -0.085757,-0.052573 -0.0878481,-0.146405l0.174708 0.0337235zm-1.97333 -0.100175l0.0125091 0.095732 -0.068816 -0.00647197 0.0563069 -0.08926zm3.67258 0.359257c0,-0.185652 0.0790917,-0.451661 0.117121,-0.614888l0.79398 0.191373 -0.132792 0.632237c-0.132202,-0.00632433 -0.778309,-0.145921 -0.778309,-0.208722zm-3.22086 -0.351363c-0.119472,-0.00994284 -0.116767,-0.00596731 -0.146405,-0.0878481l0.146405 0 0 0.0878481zm1.69827 -0.0292836c0,-0.137887 0.312064,-0.379873 0.351365,-0.527051l0.914097 0.208722 -0.131225 0.609495c-0.0934235,0.0230559 -1.13424,-0.197858 -1.13424,-0.291166zm3.04518 -0.204969c0,0.0821197 -0.0351596,0.0713313 -0.0878481,0.117132 -0.313674,-0.150514 -1.06166,-0.15355 -1.25906,-0.380657l0.0313827 -0.111658 0.0863529 -0.0331356c0.175197,0.0393499 1.22918,0.250063 1.22918,0.379046l0 0.0292728zm-0.292809 2.13749l0.0602342 0.269917 0.12573 -0.0339973 -0.0688429 0.466817 0.0606905 0.000424127 0.085714 -0.468919c0.230801,-0.0616273 0.332682,-1.00617 0.392742,-1.30553 0.0502135,-0.250302 0.0974661,-0.447535 0.146802,-0.702331 0.0881621,-0.455279 0.170639,-0.376719 -0.223314,-0.475133 -0.921433,-0.230186 -1.77881,-0.474338 -2.93551,-0.485594l-0.33957 0.362181 0.0887366 -0.320042 0.0874078 0.0274153 0.0296728 -0.142826 -0.23359 -0.061877 -0.0585564 0 -0.0585645 0.117124 0.0624487 0.00100395 -0.178633 0.731647 0.173653 -0.255526 0.0441227 0.0236303 -0.0888681 0.409704 -0.0277374 0.0105495 -0.124202 -0.140128 0.0220949 -0.0195877c-0.0260624,0.0299869 -0.0560412,0.0930772 -0.0899553,0.100703l-1.75471 -0.276381c-0.0994928,-0.0163692 -0.334905,0.571058 -0.242088,0.759792l-0.0223016 0.146302 -0.116257 0.060159c-0.00470835,0.211087 -0.116069,0.236816 0.204958,0.263525 -0.00761819,0.0915901 -0.0292809,0.104024 -0.0292809,0.204969 0,0.375543 0.275551,0.732012 0.644172,0.732012l0.0585645 0c0.338915,0 0.644174,-0.342609 0.644174,-0.673455l0 -0.0585564c0,-0.35529 -0.267552,-0.702736 -0.614899,-0.702736l-0.117121 0c-0.264266,0 -0.347997,0.163235 -0.497155,0.261923l-0.0884547 -0.027681c0.0334094,-0.143398 0.268532,-0.439203 0.439214,-0.439203 0.0657451,0 0.440298,0.0945214 0.527682,0.116482 0.204711,0.0514429 0.286168,0.0866616 0.334282,0.30989 0.122933,0.570245 0.0882212,0.494374 0.659521,0.62758l-0.0264945 0.256978 0.378963 0.0945375c0.0310902,-0.373603 0.143358,-0.240104 0.504024,-0.152664 0.201469,0.0488471 0.511049,0.152664 0.725755,0.152664 0.368886,0 0.23738,-0.608642 0.783844,-0.491271 0.496259,0.106598 0.650904,0.0950099 0.650904,0.725513zm-3.66749 -0.205949c0.0668913,-0.0425872 0.0952596,-0.10164 0.0952596,-0.203981 0,-0.111951 -0.00898721,-0.0106569 0.0292836,-0.0878373l-0.0858643 0.000263066 -0.0386788 0.291555zm2.90619 0.762283c-0.374464,0 -0.441353,-0.849143 0.0878373,-0.849143 0.174451,0 0.380649,0.198728 0.380649,0.380657l0 0.117121c0,0.175895 -0.175463,0.351365 -0.351365,0.351365l-0.117121 0zm0.761293 -0.556334c-0.151467,-0.217983 -0.196229,-0.585607 -0.644172,-0.585607l-0.0585564 0c-0.324232,0 -0.644172,0.348558 -0.644172,0.673455l0 0.0585564c0,0.384614 0.309914,0.73202 0.673445,0.73202 0.448501,0 0.673455,-0.400162 0.673455,-0.878424zm-4.08687 0.196588l0.027528 0 0 -0.113865 -0.027528 0 0 0.113865zm-0.159614 -0.128752l-0.00252866 0 0 -0.0417041 0.229488 0c0.0106918,0 0.0200145,0.00208306 0.0278904,0.00621159 0.00231123,0.00117306 0.00440502,0.00265214 0.00635654,0.00443186l0.0224734 0.0115534c0.00758866,0.00397821 0.0114192,0.0087134 0.0114192,0.0142056l0 0.170456c0,0.00560492 -0.00397821,0.0104931 -0.0118541,0.0146592 -0.00787589,0.00367488 -0.0167611,0.00552976 -0.0266637,0.00552976l-0.210407 0 -0.0284004 -0.0148874 -0.00209379 0 -0.039817 -0.0417041 0.0758007 0 0 -0.113865 -0.023268 0 -0.0283951 -0.0148874zm0.226959 0.163829c0.00736854,0 0.0136553,-0.00132607 0.0190723,-0.00397821 0.00534723,-0.00284004 0.00802084,-0.00624917 0.00802084,-0.0102274l0 -0.170456c0,-0.00386278 -0.00267361,-0.00715916 -0.00802084,-0.00999921 -0.00541702,-0.00280515 -0.0117038,-0.00420638 -0.0190723,-0.00420638l-0.216775 0 0 0.0284112 0.054197 0 0 0.142048 -0.0677101 0 0.0270985 0.0284085 0.203189 0zm-0.108386 -0.0284085l0 -0.142048 0.0812875 0 0 0.142048 -0.0812875 0zm0.341197 -0.106102l0.027528 0 0 -0.0144311 -0.027528 0 0 0.0144311zm0.00635923 0.0692428c-0.00144418,-0.000603979 -0.00252866,-0.00113548 -0.0033957,-0.0016643 -0.00086973,-0.000493921 -0.00180657,-0.001063 -0.00296352,-0.00166698l0 0.0355301 0.000434865 0.00022817 0 -0.00223606 0.0270932 0 0 -0.0190911c-0.00310311,-0.00177972 -0.00679141,-0.00378762 -0.010979,-0.0059861 -0.00426543,-0.00223338 -0.00766114,-0.00393794 -0.0101898,-0.00511369zm0.117271 -0.0181811c-0.00758329,0.00352187 -0.0158242,0.00537944 -0.0245645,0.00552976l0.00809063 0.00420638 0 0.000907311 0.028328 0.0148498 0 0.0248866 0.0270932 0.0142056 0 0.040378 -0.131219 0 -0.00426007 -0.00223338 0 0.00223338 -0.158318 0 -0.0283951 -0.0148874 -0.00252866 0 0 -0.0417041 0.0541917 0 0 -0.113865 -0.0054895 0 -0.0284004 -0.0148874 -0.00209379 0 -0.039817 -0.0417041 0.251097 0c0.0106918,0 0.0200172,0.00208306 0.0278904,0.00621159 0.00231123,0.00117306 0.00440502,0.00265214 0.00635654,0.00443186l0.0224734 0.0115534c0.00758866,0.00397821 0.0114192,0.0087134 0.0114192,0.0142056l0 0.0710226c0,0.00560761 -0.00397821,0.0104931 -0.0118541,0.0146592zm-0.137573 0.0834484l0 -0.0284085 -0.0270985 0 0 -0.0710252 0.0812875 0.0426141 0 0.0284112 -0.0270985 0 0 0.0284085 0.108389 0 0 -0.0284085 -0.0270985 0 0 -0.0426141 -0.0541917 -0.0284112 0.0270985 0c0.00729607,0 0.0136553,-0.00132607 0.019075,-0.00397552 0.00534454,-0.00284273 0.00801816,-0.00625185 0.00801816,-0.0102301l0 -0.0710226c0,-0.00386278 -0.00267361,-0.00715916 -0.00801816,-0.00999921 -0.0054197,-0.00280515 -0.0117065,-0.00420638 -0.019075,-0.00420638l-0.230288 0 0.0270985 0.0284112 0.0406115 0 0 0.142048 -0.054197 0 0 0.0284085 0.135487 0zm-0.0270985 -0.127842l0 -0.0426141 0.0812875 0 0 0.0426141 -0.0812875 0zm0.195523 0.13447l-0.00252866 0 0 -0.0417041 0.0270958 0 0 -0.115873 -0.0245672 -0.0128419 -0.00252866 0 0 -0.0417417 0.133748 0 0 0.00132607 0.0283977 0.0148847 0 0.0403807 -0.0270985 0 0 0.115873 0.0270985 0.0142056 0 0.040378 -0.131219 0 -0.0283977 -0.0148874zm0.118576 -0.00662766l0 -0.0284085 -0.0270985 0 0 -0.142048 0.0270985 0 0 -0.0284112 -0.108386 0 0 0.0284112 0.0270985 0 0 0.142048 -0.0270985 0 0 0.0284085 0.108386 0zm0.165466 -0.114547c0.00115696,-0.00117575 0.00217164,-0.00238639 0.00318096,-0.0036373 0.001012,-0.00128849 0.00216359,-0.00249913 0.00361314,-0.00367488 0.00563445,-0.00605858 0.0111991,-0.0120447 0.0166886,-0.0178778 0.00549487,-0.00583309 0.0114192,-0.0119319 0.0176308,-0.0182965l-0.0110568 -0.00579551 -0.00252329 0 0 -0.0417041 0.133742 0 0 0.00132607 0.0284004 0.0148847 0 0.0403807 -0.0313586 0c-0.00874562,0.00901405 -0.0171288,0.017765 -0.025147,0.0261751 -0.00809063,0.00844497 -0.0160444,0.0167799 -0.0239176,0.0249994 -0.00794836,0.0081819 -0.0157518,0.0163262 -0.0234854,0.0243954 -0.00780341,0.00806647 -0.0156068,0.0163262 -0.0235525,0.0247336l0.00129923 0.00155424 0.0270985 0.014015 0.032588 0.0343946 -0.0330229 0.0343946 -0.0453065 0 -0.0270932 -0.0142056 -0.121899 0 -0.0284004 -0.0148874 -0.00252866 0 0 -0.0417041 0.0270985 0 0 -0.115873 -0.0245699 -0.0128419 -0.00252866 0 0 -0.0417417 0.133748 0 0 0.00132607 0.0284004 0.0148847 0 0.0403807 -0.0270985 0 0 0.0343946zm0.0537595 0.128752l0.0270985 -0.0284112 -0.0270985 -0.0284085 -0.0270958 0 0 0.0142056 -0.0406062 0 0.135479 -0.142048 0.0270985 0 0 -0.0284112 -0.108389 0 0 0.0284112 0.0270985 0 -0.108386 0.113637 0 -0.113637 0.0270985 0 0 -0.0284112 -0.108389 0 0 0.0284112 0.0270985 0 0 0.142048 -0.0270985 0 0 0.0284085 0.148995 0 0 0.0142056 0.0270958 0zm0.301818 -0.162919l0.0317935 0 -0.000437549 -0.00022817 -0.0313559 0 0 0.00022817zm0 0.113637l0.027528 0 0 -0.0284085 0.0795561 0 0 0.00132607 0.0284004 0.0148847 0 0.0687892 -0.287443 0 -0.0283924 -0.0148471 -0.00340107 0 0.039817 -0.0417443 0.035981 0 0 -0.113865 -0.0232653 0 -0.0283951 -0.0148874 -0.00252866 0 0 -0.0417041 0.269227 0 0 0.00132607 0.0284004 0.0148847 0 0.0545863 -0.0762356 0 0.00426543 0.00223338 0.032588 0.0343946 -0.0330229 0.0343946 -0.0453065 0 -0.0177731 -0.00931738 0 0.037954zm0.0944382 0.0350764l0 -0.0568197 -0.0541917 0 0 0.0284112 -0.0812902 0 0 -0.0710252 0.0406062 0 0 0.0142056 0.0270985 0 0.0270985 -0.0284112 -0.0270985 -0.0284085 -0.0270985 0 0 0.0142056 -0.0406062 0 0 -0.0426141 0.0812902 0 0 0.0142029 0.0541917 0 0 -0.0426141 -0.243868 0 0 0.0284112 0.054197 0 0 0.142048 -0.0406115 0 -0.0270985 0.0284085 0.257381 0zm0.14587 8.85836e-005l-0.00217164 0 0 -0.0417041 0.0232787 0 0 -0.115873 -0.0211071 -0.0128419 -0.00217164 0 0 -0.0417417 0.114904 0 0 0.00132607 0.0243954 0.0148847 0 0.0403807 -0.0232787 0 0 0.115873 0.0232787 0.0142056 0 0.040378 -0.112729 0 -0.0243981 -0.0148874zm0.101871 -0.00662766l0 -0.0284085 -0.0232814 0 0 -0.142048 0.0232814 0 0 -0.0284112 -0.0931148 0 0 0.0284112 0.0232787 0 0 0.142048 -0.0232787 0 0 0.0284085 0.0931148 0zm0.211986 -0.0350764l0.022162 0 0 0.00132607 0.0243954 0.0148874 0 0.040378 -0.177105 0 -0.0243927 -0.0148471 -0.00291521 0 0.0342013 -0.0417443 0.030913 0 0 -0.113865 -0.00037044 0 0 0.0142056 -0.0661746 0 -0.0243981 -0.0148874 -0.00217164 0 0 -0.0559097 0.254573 0 0 0.00132607 0.0243954 0.0148847 0 0.0545863 -0.0661693 0 -0.0232787 -0.0142056 -0.00366414 0 0 0.113865zm0.0113011 0.0350764l0 -0.0284085 -0.0465601 0 0 -0.142048 0.0465601 0 0 0.0142029 0.0465547 0 0 -0.0426141 -0.232784 0 0 0.0426141 0.0465547 0 0 -0.0142029 0.0465601 0 0 0.142048 -0.0349503 0 -0.0232814 0.0284085 0.151346 0zm0.239592 -0.038346l0.0236545 0 0 -0.0284085 0.0683436 0 0 0.00132607 0.0243981 0.0148847 0 0.0687892 -0.205844 0 -0.0243981 -0.0148874 -0.00217432 0 0 -0.0417041 0.0232814 0 0 -0.122957 -0.0211071 -0.0128795 -0.00217432 0 0 -0.0250745 0.0574827 -0.0173114 0.057421 0.0175369 0 0.00110058 0.0243981 0.0148847 0 0.0237511 -0.0232814 0 0 0.120949zm0.0811372 0.0350764l0 -0.0568197 -0.0465601 0 0 0.0284112 -0.0698334 0 0 -0.149169 0.0232787 0 0 -0.0142056 -0.0465601 -0.0142056 -0.0465547 0.0142056 0 0.0142056 0.0232787 0 0 0.149169 -0.0232787 0 0 0.0284085 0.18623 0zm0.0283038 0.00662766l-0.00217432 0 0 -0.0417041 0.0232814 0 0 -0.115873 -0.0211071 -0.0128419 -0.00217432 0 0 -0.0417417 0.114904 0 0 0.00132607 0.0243981 0.0148847 0 0.0403807 -0.0232814 0 0 0.115873 0.0232814 0.0142056 0 0.040378 -0.112732 0 -0.0243954 -0.0148874zm0.101868 -0.00662766l0 -0.0284085 -0.0232787 0 0 -0.142048 0.0232787 0 0 -0.0284112 -0.0931148 0 0 0.0284112 0.0232787 0 0 0.142048 -0.0232787 0 0 0.0284085 0.0931148 0zm0.216023 -0.101858l0.00328565 0.00197031 -0.00328565 -0.00197031zm-0.0436422 0.0323867c0.00508953,0.0032588 0.00955897,0.0059861 0.0134701,0.00821948l-0.0134701 -0.00821948zm0 -0.0750383l0.00732559 -0.00443186 -0.00732559 0 0 0.00443186zm0.00546265 0.079242c-0.00124017,-0.000603979 -0.00217164,-0.00113548 -0.00291521,-0.0016643 -0.000743565,-0.000493921 -0.00155424,-0.001063 -0.00254745,-0.00166698l0 0.0355301 0.000373125 0.00022817 0 -0.00223606 0.0232814 0 0 -0.0190911c-0.00267093,-0.00177972 -0.00583846,-0.00378762 -0.00943818,-0.0059861 -0.00366414,-0.00223338 -0.00657934,-0.00393794 -0.00875367,-0.00511369zm0.0571096 -0.0261724c0.000496605,0.000263066 0.00080799,0.000453655 0.00105495,0.000528817 0.000252329,7.51618e-005 0.000620085,0.000265751 0.00111669,0.000569082l0.0272542 0.0166296 0 0.000907311 0.0109253 0.00685583c-0.000496605,-0.000263066 -0.00086973,-0.000566398 -0.00124285,-0.00086973 -0.00037044,-0.000303332 -0.000805305,-0.000606663 -0.00130191,-0.000872414l0.0160148 0.00973614 0 0.0248866 0.023276 0.0142056 0 0.040378 -0.112727 0 -0.00366414 -0.00223338 0 0.00223338 -0.136008 0 -0.0243927 -0.0148874 -0.00217432 0 0 -0.0417041 0.0465547 0 0 -0.118068 -0.0174402 -0.0106461 -0.00186294 0 -0.0341396 -0.0417417 0.145068 0 0 0.00132607 0.00148981 0.000907311 0 -0.00223338 0.114904 0 0 0.00132607 0.0243927 0.0148847 0 0.0403807 -0.023276 0 0 0.024849 -0.0498457 0.0301882 -0.00397552 0.00246423zm-0.0745498 0.0914397l0 -0.0284085 -0.0232814 0 0 -0.0710252 0.0698361 0.0426141 0 0.0284112 -0.023276 0 0 0.0284085 0.0931094 0 0 -0.0284085 -0.0232733 0 0 -0.0426141 -0.0581699 -0.0355328 0.0112394 -0.007084 0.00037044 0 0.0465601 -0.0284085 0 -0.0284085 0.0232733 0 0 -0.0284112 -0.0931094 0 0 0.0284112 0.023276 0 0 0.0142029 -0.0698361 0.0426141 0 -0.056817 0.0232814 0 0 -0.0284112 -0.116396 0 0.0232814 0.0284112 0.0232787 0 0 0.142048 -0.0465601 0 0 0.0284085 0.116396 0zm0.300384 -0.148713l0.0273133 0 -0.000373125 -0.00022817 -0.0269401 0 0 0.00022817zm0 0.113637l0.0236491 0 0 -0.0284085 0.0683463 0 0 0.00132607 0.0243981 0.0148847 0 0.0687892 -0.246942 0 -0.0243927 -0.0148471 -0.00292057 0 0.0342067 -0.0417443 0.030913 0 0 -0.113865 -0.0199904 0 -0.0243927 -0.0148874 -0.00217164 0 0 -0.0417041 0.231292 0 0 0.00132607 0.0243981 0.0148847 0 0.0545863 -0.0654928 0 0.00366414 0.00223338 0.0279951 0.0343946 -0.0283682 0.0343946 -0.0389231 0 -0.0152686 -0.00931738 0 0.037954zm0.0811318 0.0350764l0 -0.0568197 -0.0465574 0 0 0.0284112 -0.0698334 0 0 -0.0710252 0.0348831 0 0 0.0142056 0.0232814 0 0.0232787 -0.0284112 -0.0232787 -0.0284085 -0.0232814 0 0 0.0142056 -0.0348831 0 0 -0.0426141 0.0698334 0 0 0.0142029 0.0465574 0 0 -0.0426141 -0.209506 0 0 0.0284112 0.0465601 0 0 0.142048 -0.0348885 0 -0.0232814 0.0284085 0.221115 0zm-2.62316 0.306376l0.0108018 0 0 0.00132607 0.0249833 0.0148874 0 0.040378 -0.13927 0 -0.0249833 -0.0148874 -0.00222533 0 0 -0.0417041 0.0357207 0 0 -0.0628031c-0.00743565,-0.00890131 -0.0146163,-0.0174644 -0.0216063,-0.025759 -0.00692831,-0.00829464 -0.0140499,-0.0167047 -0.0212305,-0.0253027l-0.0435455 0 -0.0249779 -0.0148498 -0.00299305 0 0.0350281 -0.0417417 0.113588 0 0 0.00132607 0.0015274 0.000907311 0 -0.00223338 0.11766 0 0 0.00132607 0.0249779 0.0148847 0 0.0403807 -0.0279656 0c-0.00940865,0.0110971 -0.0186885,0.0221217 -0.0277159,0.0330685 -0.0090919,0.0109468 -0.018369,0.0220466 -0.027775,0.0332967l0 0.0474996zm-0.000383862 0.0350764l0 -0.0284085 -0.035726 0 0 -0.0710252 0.0596275 -0.0710226 0.0238344 0 0 -0.0284112 -0.0953455 0 0 0.0284112 0.0238344 0 -0.0357207 0.0426141 -0.0357905 -0.0426141 0.0238397 0 0 -0.0284112 -0.0953481 0 -0.0238397 0.0284112 0.0476768 0 0.0595604 0.0710226 0 0.0710252 -0.0357207 0 0 0.0284085 0.119118 0zm0.169468 -0.0350764l0.0242155 0 0 -0.113865 -0.0242155 0 0 0.113865zm-0.078571 0.0385983c-0.0012697,-0.000263066 -0.00228707,-0.000681825 -0.00317559,-0.00121064 -0.000891205,-0.000493921 -0.00190857,-0.00106032 -0.00317827,-0.00166698 -0.00667598,-0.00412853 -0.0100475,-0.0090919 -0.0100475,-0.0148498l0 -0.170456c0,-0.00534186 0.00324538,-0.0101522 0.00966366,-0.0144311 0.00724775,-0.00428154 0.015639,-0.00643976 0.0253644,-0.00643976l0.119183 0c0.00941133,0 0.0176093,0.00208306 0.0245377,0.00621159 0.00203474,0.00117306 0.00387889,0.00265214 0.00559419,0.00443186l0.0197676 0.0115534c0.00667598,0.00397821 0.0100448,0.0087134 0.0100448,0.0142056l0 0.170456c0,0.00560492 -0.00349503,0.0104931 -0.0104233,0.0146592 -0.00692831,0.00367488 -0.0147478,0.00552976 -0.0234559,0.00552976l-0.119188 0c-0.00946771,0 -0.0174778,-0.00193273 -0.0242155,-0.00575793l-0.0204709 -0.0122353zm0.137809 -0.00352187c0.00648271,0 0.0120152,-0.00132607 0.0167799,-0.00397821 0.00470835,-0.00284004 0.00705984,-0.00624917 0.00705984,-0.0102274l0 -0.170456c0,-0.00386278 -0.00235149,-0.00715916 -0.00705984,-0.00999921 -0.00476472,-0.00280515 -0.0102972,-0.00420638 -0.0167799,-0.00420638l-0.119183 0c-0.00667598,0 -0.0123963,0.00140123 -0.0171611,0.00420638 -0.00445065,0.00284004 -0.00667598,0.00613643 -0.00667598,0.00999921l0 0.170456c0,0.00397821 0.00222533,0.00738733 0.00667598,0.0102274 0.00476472,0.00265214 0.0104851,0.00397821 0.0171611,0.00397821l0.119183 0zm-0.0953481 -0.0284085l0 -0.142048 0.0715111 0 0 0.142048 -0.0715111 0zm0.264749 -0.00666793l0.0242209 0 0 -0.115873 -0.000383862 -0.00022817 0 0.00223606 -0.023837 0 0 0.113865zm-0.0785656 0.0385983c-0.0012697,-0.000263066 -0.00228707,-0.000681825 -0.00318096,-0.00121064 -0.000885836,-0.000493921 -0.0019032,-0.00106032 -0.00317559,-0.00166698 -0.00667598,-0.00412853 -0.0100448,-0.0090919 -0.0100448,-0.0148498l0 -0.136744 -0.0216117 -0.0128419 -0.00222533 0 0 -0.0417417 0.11766 0 0 0.00132607 0.00152471 0.000907311 0 -0.00223338 0.11766 0 0 0.00132607 0.0249779 0.0148847 0 0.0403807 -0.0238317 0 0 0.150267c0,0.00560492 -0.00349771,0.0104931 -0.0104287,0.0146592 -0.00692831,0.00367488 -0.0147451,0.00552976 -0.0234559,0.00552976l-0.119183 0c-0.00947307,0 -0.0174832,-0.00193273 -0.0242182,-0.00575793l-0.0204682 -0.0122353zm0.137809 -0.00352187c0.00648271,0 0.0120152,-0.00132607 0.0167799,-0.00397821 0.00470298,-0.00284004 0.00705984,-0.00624917 0.00705984,-0.0102274l0 -0.156251 0.0238317 0 0 -0.0284112 -0.0953481 0 0 0.0284112 0.0238397 0 0 0.142048 -0.0715111 0 0 -0.142048 0.023837 0 0 -0.0284112 -0.0953481 0 0 0.0284112 0.0238397 0 0 0.156251c0,0.00397821 0.00222533,0.00738733 0.00667061,0.0102274 0.00477009,0.00265214 0.0104904,0.00397821 0.0171611,0.00397821l0.119188 0zm0.240649 -0.0386251l0.0242209 0 0 -0.0428422 -0.0201541 0 0.0197729 0.0117816 0 0.0237511 -0.0238397 0 0 0.00730949zm0 -0.0994337l0.0279683 0 -0.0015274 -0.00086973 -0.00221996 0 0 -0.0135613 -0.0242209 0 0 0.0144311zm-0.0785656 0.138032c-0.0012697,-0.000263066 -0.00228707,-0.000681825 -0.00317827,-0.00121064 -0.00088852,-0.000493921 -0.00190589,-0.00106032 -0.00317559,-0.00166698 -0.00667598,-0.00412853 -0.0100475,-0.0090919 -0.0100475,-0.0148498l0 -0.0301882 -0.0216117 -0.0128795 -0.00222533 0 0 -0.0250772 0.0420826 -0.012195 -0.000762356 -0.000681825c-0.00222533,-0.00072209 -0.00470567,-0.00193273 -0.00743565,-0.00356213 -0.00667598,-0.00412853 -0.0100475,-0.0090919 -0.0100475,-0.0148498l0 -0.0710226c0,-0.00534186 0.00324538,-0.0101522 0.00966366,-0.0144311 0.00724775,-0.00428154 0.0156363,-0.00643976 0.0253617,-0.00643976l0.119185 0c0.00940597,0 0.0176093,0.00208306 0.0245377,0.00621159 0.00203205,0.00117306 0.00387889,0.00265214 0.00559419,0.00443186l0.0197676 0.0115534c0.00667598,0.00397821 0.0100448,0.0087134 0.0100448,0.0142056l0 0.0485975 -0.0238397 0 0.0137949 0.00821948c0.00667598,0.00397821 0.0100448,0.0087134 0.0100448,0.0142056l0 0.0994337c0,0.00560492 -0.00349503,0.0104931 -0.0104287,0.0146592 -0.00692831,0.00367488 -0.0147425,0.00552976 -0.0234559,0.00552976l-0.119183 0c-0.00947307,0 -0.0174832,-0.00193273 -0.0242155,-0.00575793l-0.0204709 -0.0122353zm0.137809 -0.00352187c0.00648271,0 0.0120152,-0.00132607 0.0167799,-0.00397821 0.00470298,-0.00284004 0.00705984,-0.00624917 0.00705984,-0.0102274l0 -0.0994337c0,-0.00386278 -0.00235686,-0.00715916 -0.00705984,-0.00999921 -0.00476472,-0.00280246 -0.0102972,-0.00420369 -0.0167799,-0.00420369l-0.0953481 0 0 -0.0426141 0.0715111 0 0 0.0284085 0.0476768 0 0 -0.0426141c0,-0.00386278 -0.00235686,-0.00715916 -0.00705984,-0.00999921 -0.00476472,-0.00280515 -0.0102972,-0.00420638 -0.0167799,-0.00420638l-0.119185 0c-0.0066733,0 -0.0123936,0.00140123 -0.0171637,0.00420638 -0.00444529,0.00284004 -0.00667061,0.00613643 -0.00667061,0.00999921l0 0.0710226c0,0.00397821 0.00222533,0.00738733 0.00667061,0.0102301 0.00477009,0.00264945 0.0104904,0.00397552 0.0171637,0.00397552l0.0953481 0 0 0.0710252 -0.0715111 0 0 -0.0355328 0.0238397 0 0 -0.0142029 -0.0476768 -0.0142056 -0.0476741 0.0142056 0 0.0142029 0.0238397 0 0 0.0497357c0,0.00397821 0.00222533,0.00738733 0.00667061,0.0101898 0.00477009,0.00268972 0.0104904,0.00401579 0.0171637,0.00401579l0.119185 0zm0.240912 -0.0350764l0.0226935 0 0 0.00132607 0.0249833 0.0148874 0 0.040378 -0.181357 0 -0.0249779 -0.0148471 -0.002985 0 0.0350227 -0.0417443 0.0316539 0 0 -0.113865 -0.000378493 0 0 0.0142056 -0.0677638 0 -0.0249806 -0.0148874 -0.00222533 0 0 -0.0559097 0.26068 0 0 0.00132607 0.0249833 0.0148847 0 0.0545863 -0.0677584 0 -0.0238397 -0.0142056 -0.00375004 0 0 0.113865zm0.0115722 0.0350764l0 -0.0284085 -0.0476768 0 0 -0.142048 0.0476768 0 0 0.0142029 0.0476714 0 0 -0.0426141 -0.23837 0 0 0.0426141 0.0476714 0 0 -0.0142029 0.0476768 0 0 0.142048 -0.0357878 0 -0.0238397 0.0284085 0.154978 0zm0.169399 -0.0350764l0.0242182 0 0 -0.113865 -0.0242182 0 0 0.113865zm-0.0785683 0.0385983c-0.0012697,-0.000263066 -0.00228975,-0.000681825 -0.00317559,-0.00121064 -0.000893889,-0.000493921 -0.00191126,-0.00106032 -0.00318096,-0.00166698 -0.00667598,-0.00412853 -0.0100448,-0.0090919 -0.0100448,-0.0148498l0 -0.170456c0,-0.00534186 0.0032427,-0.0101522 0.00966098,-0.0144311 0.00724775,-0.00428154 0.0156417,-0.00643976 0.0253671,-0.00643976l0.119183 0c0.00940865,0 0.0176067,0.00208306 0.024535,0.00621159 0.00203742,0.00117306 0.00387889,0.00265214 0.00559687,0.00443186l0.0197649 0.0115534c0.00667598,0.00397821 0.0100448,0.0087134 0.0100448,0.0142056l0 0.170456c0,0.00560492 -0.00349503,0.0104931 -0.0104233,0.0146592 -0.00692831,0.00367488 -0.0147478,0.00552976 -0.0234559,0.00552976l-0.119188 0c-0.00946771,0 -0.0174778,-0.00193273 -0.0242155,-0.00575793l-0.0204682 -0.0122353zm0.137809 -0.00352187c0.00648271,0 0.0120125,-0.00132607 0.0167799,-0.00397821 0.00470567,-0.00284004 0.00705716,-0.00624917 0.00705716,-0.0102274l0 -0.170456c0,-0.00386278 -0.00235149,-0.00715916 -0.00705716,-0.00999921 -0.00476741,-0.00280515 -0.0102972,-0.00420638 -0.0167799,-0.00420638l-0.119183 0c-0.00667598,0 -0.0123963,0.00140123 -0.0171637,0.00420638 -0.00445065,0.00284004 -0.00667598,0.00613643 -0.00667598,0.00999921l0 0.170456c0,0.00397821 0.00222533,0.00738733 0.00667598,0.0102274 0.00476741,0.00265214 0.0104878,0.00397821 0.0171637,0.00397821l0.119183 0zm-0.0953508 -0.0284085l0 -0.142048 0.0715111 0 0 0.142048 -0.0715111 0zm0.264749 -0.00666793l0.0242209 0 0 -0.0284085 0.0699837 0 0 0.00132607 0.0249833 0.0148847 0 0.0687892 -0.210783 0 -0.0249833 -0.0148874 -0.00222533 0 0 -0.0417041 0.0238397 0 0 -0.122957 -0.0216144 -0.0128795 -0.00222533 0 0 -0.0250745 0.0588624 -0.0173114 0.058798 0.0175369 0 0.00110058 0.0249833 0.0148847 0 0.0237511 -0.0238397 0 0 0.120949zm0.0830833 0.0350764l0 -0.0568197 -0.0476768 0 0 0.0284112 -0.0715111 0 0 -0.149169 0.0238397 0 0 -0.0142056 -0.0476768 -0.0142056 -0.0476741 0.0142056 0 0.0142056 0.0238397 0 0 0.149169 -0.0238397 0 0 0.0284085 0.190699 0zm0.188404 -0.148713l0.0279709 0 -0.000383862 -0.00022817 -0.0275871 0 0 0.00022817zm0 0.113637l0.0242182 0 0 -0.0284085 0.0699864 0 0 0.00132607 0.0249833 0.0148847 0 0.0687892 -0.252866 0 -0.0249779 -0.0148471 -0.00299037 0 0.0350281 -0.0417443 0.0316539 0 0 -0.113865 -0.0204709 0 -0.0249779 -0.0148874 -0.00222533 0 0 -0.0417041 0.236843 0 0 0.00132607 0.0249833 0.0148847 0 0.0545863 -0.0670631 0 0.00375004 0.00223338 0.0286689 0.0343946 -0.02905 0.0343946 -0.0398572 0 -0.0156363 -0.00931738 0 0.037954zm0.083078 0.0350764l0 -0.0568197 -0.0476714 0 0 0.0284112 -0.0715111 0 0 -0.0710252 0.0357233 0 0 0.0142056 0.023837 0 0.0238397 -0.0284112 -0.0238397 -0.0284085 -0.023837 0 0 0.0142056 -0.0357233 0 0 -0.0426141 0.0715111 0 0 0.0142029 0.0476714 0 0 -0.0426141 -0.214531 0 0 0.0284112 0.0476768 0 0 0.142048 -0.035726 0 -0.023837 0.0284085 0.226417 0zm0.149532 0.00634849l-0.00222533 0 0 -0.0417041 0.023837 0 0 -0.115873 -0.0216117 -0.0128419 -0.00222533 0 0 -0.0417417 0.11766 0 0 0.00132607 0.0249806 0.0148847 0 0.0403807 -0.023837 0 0 0.115873 0.023837 0.0142056 0 0.040378 -0.115432 0 -0.0249833 -0.0148874zm0.104311 -0.00662766l0 -0.0284085 -0.023837 0 0 -0.142048 0.023837 0 0 -0.0284112 -0.0953481 0 0 0.0284112 0.0238397 0 0 0.142048 -0.0238397 0 0 0.0284085 0.0953481 0zm0.233063 -0.0413363l0.0226962 0 0 0.00132607 0.0249806 0.0148874 0 0.040378 -0.181355 0 -0.0249779 -0.0148471 -0.002985 0 0.0350227 -0.0417443 0.0316539 0 0 -0.113865 -0.000378493 0 0 0.0142056 -0.0677638 0 -0.0249806 -0.0148874 -0.00222533 0 0 -0.0559097 0.26068 0 0 0.00132607 0.0249833 0.0148847 0 0.0545863 -0.0677584 0 -0.0238397 -0.0142056 -0.00375272 0 0 0.113865zm0.0115749 0.0350764l0 -0.0284085 -0.0476768 0 0 -0.142048 0.0476768 0 0 0.0142029 0.0476714 0 0 -0.0426141 -0.23837 0 0 0.0426141 0.0476714 0 0 -0.0142029 0.0476768 0 0 0.142048 -0.0357878 0 -0.0238397 0.0284085 0.154978 0zm0.119276 0.00662766l-0.00222533 0 0 -0.0417041 0.0699864 0 0 0.00132607 0.0249833 0.0148874 0 0.040378 -0.0677611 0 -0.0249833 -0.0148874zm0 -0.056817l-0.00222533 0 0 -0.155343 0.0699864 0 0 0.00132607 0.0249833 0.0148847 0 0.154017 -0.0677611 0 -0.0249833 -0.0148847zm0.0566344 -0.00663035l0 -0.142048 -0.0476714 0 0 0.142048 0.0476714 0zm0 0.0568197l0 -0.0284085 -0.0476714 0 0 0.0284085 0.0476714 0zm0.0289883 0.00662766l-0.00222533 0 0 -0.0417041 0.0699891 0 0 0.00132607 0.0249806 0.0148874 0 0.040378 -0.0677611 0 -0.0249833 -0.0148874zm0 -0.056817l-0.00222533 0 0 -0.155343 0.0699891 0 0 0.00132607 0.0249806 0.0148847 0 0.154017 -0.0677611 0 -0.0249833 -0.0148847zm0.0566371 -0.00663035l0 -0.142048 -0.0476741 0 0 0.142048 0.0476741 0zm0 0.0568197l0 -0.0284085 -0.0476741 0 0 0.0284085 0.0476741 0zm0.0289856 0.00662766l-0.00222533 0 0 -0.0417041 0.0699891 0 0 0.00132607 0.0249833 0.0148874 0 0.040378 -0.0677638 0 -0.0249833 -0.0148874zm0 -0.056817l-0.00222533 0 0 -0.155343 0.0699891 0 0 0.00132607 0.0249833 0.0148847 0 0.154017 -0.0677638 0 -0.0249833 -0.0148847zm0.0566371 -0.00663035l0 -0.142048 -0.0476714 0 0 0.142048 0.0476714 0zm0 0.0568197l0 -0.0284085 -0.0476714 0 0 0.0284085 0.0476714 0z"/>
 </g>
</svg>
