<?xml version="1.0" encoding="UTF-8"?>
<!DOCTYPE svg PUBLIC "-//W3C//DTD SVG 1.1//EN" "http://www.w3.org/Graphics/SVG/1.1/DTD/svg11.dtd">
<!-- Creator: CorelDRAW -->
<svg xmlns="http://www.w3.org/2000/svg" xml:space="preserve" width="1in" height="2in" style="shape-rendering:geometricPrecision; text-rendering:geometricPrecision; image-rendering:optimizeQuality; fill-rule:evenodd; clip-rule:evenodd"
viewBox="0 0 0.160602 0.0926638"
 xmlns:xlink="http://www.w3.org/1999/xlink">
 <defs>
  <style type="text/css">
   <![CDATA[
    .fil0 {fill:#1F1A17}
   ]]>
  </style>
 </defs>
 <g id="Layer_x0020_1">
  <metadata id="CorelCorpID_0Corel-Layer"/>
  <path class="fil0" d="M0.0366586 0.0711351l-0.0279043 -0.0184175 0.0123106 -0.00383693 -0.0210649 -0.0211036 0.0415829 -0.0122782 -0.00793374 -0.00537196c0,0 0.0125842,-0.00268585 0.0199708,-0.00345324 0.00738629,-0.000767387 0.017235,-0.00153477 0.017235,-0.00153477l-0.00601852 -0.00422063c0,0 0.0238005,-0.00230216 0.0339228,0.000383693 0.0101221,0.00268585 0.01915,0.0057554 0.01915,0.0057554 0,0 0.00656573,0.00383693 0.00930126,0.00422063 0.00273578,0.000383693 0.0147731,0.00191872 0.0147731,0.00191872l-0.00136802 0.00729018c0,0 0.00563458,0.000272854 0.00984871,0.00345324 0.0216249,0.0130301 0.0043462,0.046884 -0.0117637,0.0379864 9.98552e-007,0.000676519 0.00543661,-0.00820834 0.000547206,-0.01036 -0.00488941,-0.00215188 -0.00844026,0.00170827 -0.0082071,0.00268585 0.000232912,0.000977582 0.00711268,0.0134295 0.00656573,0.0195686 -0.000547206,0.00613934 0.00246193,0.00959259 -0.00437715,0.00767412 -0.00683933,-0.00191847 -0.0229802,-0.0130458 -0.0232538,-0.0157317 -0.000273354,-0.00268585 -0.012037,-0.00383693 -0.0125842,0 -0.000546957,0.00383693 -0.00082056,0.0141969 0.00136802,0.015348 0.00218858,0.00115108 -0.000820809,0.00729018 -0.00218858,0.00729018 -0.00136802,0 -0.0101221,0.00306955 -0.0131315,0.00115108 -0.00300938,-0.00191847 -0.00300938,0.00306955 -0.00300938,0.00306955 -0.0197848,0.000532727 -0.031031,-0.00384542 -0.048422,-0.0164991l0.00465075 -0.00498801zm0.0913727 -0.0368351c7.96345e-005,-0.000735683 0.00351989,-0.00630186 0.00576763,-0.00280318 0.00181012,0.00281766 -0.00407434,0.00354111 -0.00576763,0.00280318zm-0.00340306 0.0224252l0.00183908 -0.00143617c0,0 0.0053118,0.0109127 0.00572095,0.0134964 0.000409157,0.0025835 0.00163463,0.00602975 0.00163463,0.00602975 -0.00708647,0.00342953 -0.0251642,-0.01761 -0.0245187,-0.0223973 0.00145714,-0.00154626 0.00592116,-0.00234959 0.00694717,-0.003446 0.00131534,-0.00140446 0.00590144,-0.00695042 0.00826401,-0.0144538 0.00293599,-0.00932472 0.0133846,-0.0103031 0.020137,-0.00650781 0.00510709,0.00287009 0.00980752,0.00574317 0.00960332,0.012922 -0.000204453,0.00717859 -0.00572145,0.0163673 -0.00572145,0.0163673l-0.00224724 0.000286584c-0.000787857,9.93559e-005 0.00205527,-0.00759923 0.000655549,-0.011532 -0.0016234,-0.00456188 -0.0139455,-0.00381896 -0.0167971,-0.00311199 -0.00543087,0.00134605 -0.0158036,0.0122487 -0.0143033,0.0126339 0,0 0.00613036,0.0106241 0.00756053,0.0117732 0.00142993,0.00114883 0.00510734,0.00459359 0.00612936,0.00401967 0.00260522,-0.00146263 -0.00395726,-0.0130184 -0.00490389,-0.0146438zm-0.102367 -0.0255559c0,0 -0.00224724,-7.48914e-007 -0.00163438,0.0017225 0.000612861,0.0017235 0.00939912,0.00918867 0.00939912,0.00918867 0,0 0.00245169,0.00258525 0.00490364,0.00143617 0.00245194,-0.00114883 0.00572095,-0.00402042 0.014507,-0.00832767 0.00878601,-0.004307 0.0145075,-0.0077525 0.0204326,-0.00803959 0.00592516,-0.000287333 0.00612936,0 0.00612936,0l-0.000204204 0.00143542c0,0 -0.00980702,0.00229717 -0.015324,0.00488142 -0.00551725,0.0025845 -0.018798,0.0109114 -0.0212497,0.0132086 -0.00245194,0.00229717 -0.00653852,0.00660417 -0.00653852,0.00660417 0,0 -0.00245244,0.00201008 -0.00122622,0.00201008 0.00122622,0 0.00899021,0.00660417 0.0112379,0.0068915 0.00224749,0.000287084 0.00388187,0.00200983 0.00490364,0.000287084 0.00102202,-0.00172275 0.00899046,-0.0100497 0.0159376,-0.0132083 0.00694692,-0.00315892 0.00960307,-0.00631709 0.0165502,-0.00631709 0.00694692,0 0.0128726,0.00086175 0.0128726,0.00086175l-0.00143043 0.00114808c0,0 -0.00449523,-0.000287832 -0.00939887,0.00114833 -0.00490389,0.00143617 -0.0140986,0.00401992 -0.0208413,0.0117729 -0.00674272,0.00775325 -0.00980752,0.0117732 -0.00980752,0.0117732 0,0 -0.00163463,0.000861001 0,0.00200983 0.00163488,0.00114883 0.00224774,0.00402067 0.00694717,0.00574317 0.00469943,0.00172275 0.0104204,0.00287158 0.0104204,0.00287158 0.00174647,-0.0248762 0.0392146,-0.0291487 0.0328963,-0.0261303 -0.00517849,0.00247366 -0.00878051,0.00450571 -0.0134647,0.00843052 -0.00383094,0.00320934 -0.00839807,0.007582 -0.00839807,0.0119567 0,0.00143542 0.000204453,0.00229717 0.00265615,0.00287158 0.00245194,0.000574417 0.00449523,0.000574417 0.00449523,0.000574417 0,0 -0.00122572,-0.00660492 0.00204329,-0.0106246 0.00576713,-0.00709171 0.0102941,-0.00788356 0.0169589,-0.0114858 0,0 0.00183908,-0.00315817 -0.000204204,-0.00373259 -0.00204329,-0.000574417 -0.00612936,-0.00287158 -0.00612936,-0.00287158 0.000575166,-0.000382445 0.00427655,-0.000758899 0.00742473,-0.00075815 0.00574042,2.24674e-006 0.0118226,-0.00518972 0.0121901,-0.00728169l-0.00490364 -0.00086175c-0.00771481,-0.00472015 -0.00694243,-0.00811797 -0.0110337,-0.0149311 -0.00167682,-0.0027917 -0.00367742,-0.00574317 -0.00367742,-0.00574317l-0.0155984 -0.000953118c0,0 -0.000338759,-0.00105697 0.0086512,-0.00134405 0.00898996,-0.000287333 0.0128728,0.00086175 0.0140983,0.00086175 0.00122572,0 0.000817314,-0.00229717 0.000817314,-0.00229717 0.00278446,0.0032725 0.00722727,0.0105282 0.0134854,0.0103368 0.00436692,-0.000133057 0.0083776,-0.00086175 0.00960332,-0.0025845 0.00122572,-0.0017225 0.00245194,-0.00373259 0.00245194,-0.00373259 0,0 -0.00919466,-0.00200983 -0.0136899,-0.004307 -0.00449523,-0.00229717 -0.0132815,-0.00689225 -0.016346,-0.00804034 -0.0030648,-0.00114833 -0.0161413,-0.0034455 -0.0171631,-0.00315817 -0.00102202,0.000287084 0.00347321,0.00287158 0.00347321,0.00287158 0,0 -0.0253365,0.00200983 -0.0302401,0.0034455 -0.00490364,0.00143542 -0.00510809,0.00229692 -0.00510809,0.00229692l0.00919466 0.000287333c0.00962953,0.000300314 -0.0288199,0.00729043 -0.0410694,0.0178029zm0.0954558 -0.00090294c0.000939637,0.00133556 0.00152704,0.00280843 0.00152704,0.00408108 0,0.00248714 -0.00223476,0.003277 -0.00498851,0.00176369 -0.00275376,-0.00151106 -0.00498801,-0.00475336 -0.00498801,-0.00724125 0,-0.00127215 0.000587148,-0.00210145 0.00152704,-0.00240301 -0.000302811,0.000329023 -0.000477308,0.000804084 -0.000477308,0.00140671 0,0.0019337 0.00176394,0.00446677 0.00393829,0.00566054 0.0021741,0.00119277 0.00393779,0.000595886 0.00393779,-0.00133706 0,-0.000602376 -0.000173998,-0.00126841 -0.000476309,-0.0019307z"/>
 </g>
</svg>
