<?xml version="1.0" encoding="UTF-8"?>
<!DOCTYPE svg PUBLIC "-//W3C//DTD SVG 1.1//EN" "http://www.w3.org/Graphics/SVG/1.1/DTD/svg11.dtd">
<!-- Creator: CorelDRAW -->
<svg xmlns="http://www.w3.org/2000/svg" xml:space="preserve" width="1.98819in" height="1.98819in" style="shape-rendering:geometricPrecision; text-rendering:geometricPrecision; image-rendering:optimizeQuality; fill-rule:evenodd; clip-rule:evenodd"
viewBox="0 0 0.0719183 0.0719183"
 xmlns:xlink="http://www.w3.org/1999/xlink">
 <defs>
  <style type="text/css">
   <![CDATA[
    .fil2 {fill:black}
    .fil4 {fill:#663333}
    .fil3 {fill:#E5E5E5}
    .fil1 {fill:red}
    .fil0 {fill:#663333;fill-rule:nonzero}
   ]]>
  </style>
 </defs>
 <g id="Dummy_x0025_Layer_x0025_Dummy_x0025_Layer">
  <metadata id="CorelCorpID_0Corel-Layer"/>
  <g id="_548558320">
   <path id="_548529064" class="fil0" d="M0.0145973 0l0.0427237 0 9.96887e-007 0 0 1.42412e-006c0.00402087,2.84825e-007 0.00767033,0.00163931 0.0103132,0.00428234 0.0026426,0.00264275 0.00428106,0.00629135 0.00428163,0.0103114l1.42412e-006 0 0 2.13619e-006 0 0.0427237 0 9.96887e-007 -1.42412e-006 0c-2.84825e-007,0.00402087 -0.00163931,0.00767033 -0.00428234,0.0103132 -0.00264275,0.0026426 -0.00629135,0.00428106 -0.0103114,0.00428163l0 1.42412e-006 -2.13619e-006 0 -0.0427237 0 -9.96887e-007 0 0 -1.42412e-006c-0.00402087,-2.84825e-007 -0.00767033,-0.00163931 -0.0103132,-0.00428234 -0.0026426,-0.00264275 -0.00428106,-0.00629135 -0.00428163,-0.0103114l-1.42412e-006 0 0 -2.13619e-006 0 -0.0427237 0 -9.96887e-007 1.42412e-006 0c2.84825e-007,-0.00402087 0.00163931,-0.00767033 0.00428234,-0.0103132 0.00264275,-0.0026426 0.00629135,-0.00428106 0.0103114,-0.00428163l0 -1.42412e-006 2.13619e-006 0zm0.0427237 0.000712062l-0.0427237 0 -2.13619e-006 0 0 -1.42412e-006c-0.00382135,4.27237e-007 -0.00729194,0.00156027 -0.0098078,0.00407599 -0.00251614,0.002516 -0.00407656,0.00598745 -0.0040767,0.00980965l1.42412e-006 0 0 9.96887e-007 0 0.0427237 0 2.13619e-006 -1.42412e-006 0c4.27237e-007,0.00382135 0.00156027,0.00729194 0.00407599,0.0098078 0.002516,0.00251614 0.00598745,0.00407656 0.00980965,0.0040767l0 -1.42412e-006 9.96887e-007 0 0.0427237 0 2.13619e-006 0 0 1.42412e-006c0.00382135,-4.27237e-007 0.00729194,-0.00156027 0.0098078,-0.00407599 0.00251614,-0.002516 0.00407656,-0.00598745 0.0040767,-0.00980965l-1.42412e-006 0 0 -9.96887e-007 0 -0.0427237 0 -2.13619e-006 1.42412e-006 0c-4.27237e-007,-0.00382135 -0.00156027,-0.00729194 -0.00407599,-0.0098078 -0.002516,-0.00251614 -0.00598745,-0.00407656 -0.00980965,-0.0040767l0 1.42412e-006 -9.96887e-007 0z"/>
   <g>
    <path id="_548546056" class="fil1" d="M0.0154506 0.0465644c0,0.000180721 0,0.000361443 0,0.000587451 -0.000902183,0.000180721 -0.0014499,0.00103947 -0.00235208,0.00135577 -0.00251315,-0.00126548 -0.00502645,-0.00253081 -0.0075396,-0.003751 0.000322137,-0.00497091 0.00293199,-0.0112526 0.00260985,-0.016088 -0.00157878,-0.00126533 -0.00315757,-0.00253081 -0.00473649,-0.00379615 0,-0.000225866 0,-0.000451875 0,-0.000632596 0.00202995,-4.51447e-005 0.0039632,-4.51447e-005 0.00583193,-0.000226009 0.000128883,-0.000723028 0.000257766,-0.0014462 0.00038665,-0.00216923 -0.00621858,-0.00438345 -0.00621858,-0.00438345 -0.00773285,-0.00510662 0,-0.000225866 0,-0.000451875 0,-0.000632596 0.00650853,-4.51447e-005 0.0130172,-9.04319e-005 0.0195579,-0.000135577 0.000128883,-0.000135577 0.000257766,-0.000271153 0.000418835,-0.000361585 6.43704e-005,0.00031644 6.43704e-005,0.00031644 0.000451163,0.000271153 0.000161068,-0.000451875 0.000354322,-0.000903749 0.000547718,-0.00135562 0.00934396,-9.04319e-005 0.0187203,-0.000678026 0.0279997,-0.000678026 0.000451163,0.000678026 0.000451163,0.000678026 0.000998881,0.00248552 0.000225581,-9.02895e-005 0.00045102,-0.000180721 0.000708787,-0.000225866 0,-0.000226009 0,-0.00040673 0,-0.000587594 0.0169804,-0.000180721 0.0169804,-0.000180721 0.0173992,0 0,0.000180864 0,0.000361585 0,0.000587594 -0.000934368,0.000497019 -0.00186874,0.000994181 -0.00277092,0.00153649 -6.45128e-005,0.000180721 -9.6698e-005,0.000361443 -0.000128883,0.000587451 -0.000129026,-9.04319e-005 -0.000225581,-0.000135577 -0.000322137,-0.000180721 -0.00125679,0.000903892 -0.00248111,0.00185293 -0.00370543,0.00280182 0,0.00442874 0.00161097,0.0115237 0.00296431,0.016043 -3.23276e-005,0.000406587 -6.45128e-005,0.000813317 -9.68404e-005,0.00122019 0.000129026,0 0.000257909,0 0.000418977,0 -0.000225581,0.00176235 0.000547718,0.00352485 0.00045102,0.00546807 -0.00267422,0.00153649 -0.0053164,0.00307298 -0.00795843,0.00460961 -0.00126277,0 -0.00240164,-0.00121492 -0.0029018,-0.00275141 0.000108518,-0.00189394 -0.000590869,-0.00385809 -0.0025751,-0.00510549 -0.00107464,-0.000846215 -0.00251144,-0.000918702 -0.00251144,-0.000918702l0.000348768 -0.00193951c0,0 -0.0030697,-0.000408439 -0.00376738,-0.000510406 -0.000697536,-0.00010211 -0.00237202,-0.00112306 -0.00237202,-0.00112306 0,0 -0.00230238,-0.000816593 -0.00488361,-0.00153122 -0.00258137,-0.000714341 -0.0100055,-0.00010211 -0.0100055,-0.00010211l0.00153478 0.00112292c0,0 -0.00115696,0.000204219 -0.00304065,0.000408296 -0.00188355,0.000204077 -0.00595654,0.000918845 -0.00595654,0.000918845l0.00202325 0.00142911 -0.00974087 0.0032668 0.00267009 0.00279086c-0.000699387,-2.7628e-005 -0.000519663,0.00119954 -0.00222334,0.00241816zm-0.007366 -0.00458055c0.000225581,-0.00144606 0.00119228,-0.0111623 0.00251329,-0.0130152 0.00045102,0 0.000902183,0 0.00138539,0 0,-0.000225866 0,-0.000451875 0,-0.000632596 -0.00109544,-0.000949036 -0.00219102,-0.00185293 -0.00325427,-0.00275668 0.000708929,-0.000135577 0.00141772,-0.000271153 0.00215883,-0.00040673 0.000322279,-0.00135562 0.000644416,-0.00271139 0.000998738,-0.00406716 0.000354607,-0.000135577 0.000741114,-0.000271296 0.00112776,-0.000361585 -0.00164315,-0.00112976 -0.00328645,-0.00221437 -0.00492975,-0.00329898 0.00434984,-9.04319e-005 0.00873187,-0.000180721 0.0131138,-0.000225866 0,0.00167206 -0.000483205,0.0032537 -0.000869855,0.00488062 -0.000644416,-0.000135577 -0.000644416,-0.000135577 -0.00128883,-0.000768315 -0.00183669,-0.000271011 -0.00183669,-0.000271011 -0.00280325,-0.000135577 -0.000225581,0.00131062 -0.000418835,0.00262124 -0.000612089,0.00397687 0.00119213,9.04319e-005 0.00238427,0.000180864 0.00360859,0.000271153 -0.000225439,0.00117504 -0.00045102,0.00239509 -0.000644416,0.00361528 -0.00112762,9.04319e-005 -0.0022232,0.000180721 -0.00331878,0.000271296 -0.00045102,0.0018075 -0.00045102,0.0018075 -0.000612089,0.00429316 0.00141772,0 0.00286762,-0.00126548 0.00418863,-0.00103947 0.00199776,-0.00714027 0.00199776,-0.00714027 0.00335096,-0.0129699 0.00145004,0 0.00289994,0 0.00438203,0 0.000193396,0.003796 0.00038665,0.00759215 0.000580046,0.0113883 0.000676601,0.000271011 0.000676601,0.000271011 0.00109544,0.000135434 9.6698e-005,-0.00320855 0.000902183,-0.00827003 -0.000193254,-0.011117 -0.000161211,0 -0.000322279,0 -0.000451163,0 0,-0.000226009 0,-0.000451875 0,-0.000632738 0.00235208,4.51447e-005 0.00470417,9.02895e-005 0.00708858,0.000135719 0.00045102,0.000632596 0.00045102,0.000632596 0.000869855,0.000768173 -6.4228e-005,0.000994181 -0.000128741,0.00203365 -0.000193254,0.00307298 -0.000612089,0 -0.00122432,0 -0.00180422,0 -6.45128e-005,-0.000542306 -9.68404e-005,-0.00108461 -0.000129026,-0.00162692 -0.000773299,-0.000451875 -0.00132102,-0.000361443 -0.00215883,-0.000225866 0,0.00248552 -0.000644416,0.00709499 0.000128883,0.00926421 0.000612231,-0.000180864 0.00122446,-0.000361585 0.00183669,-0.000497162 0,-0.00203351 0.000257766,-0.00307298 -0.000644559,-0.00465475 0.000902325,0 0.00183669,0 0.00277106,0 6.45128e-005,0.00212394 0.000129026,0.00429331 0.000225581,0.00646239 -0.00157878,0.000226009 -0.00312538,0.000452017 -0.00467198,0.000723028 -0.00180437,-0.000316298 -0.00202995,-0.000632596 -0.00267436,-0.000768173 0,0.00040673 0,0.00081346 0,0.00122005 -0.000998881,0.000180864 -0.00199762,0.000361728 -0.0029965,0.000587594 -9.6698e-005,-0.00122019 -0.000161068,-0.00244038 -0.000225581,-0.00361528 -0.00112776,4.51447e-005 -0.00225539,0.000135577 -0.00338315,0.000225866 0.00038665,0.00135577 -6.43704e-005,0.00311826 -0.000257766,0.00460961 -0.00467198,0.00135577 -0.0089895,0.00415759 -0.0133072,0.00691427zm0.0571273 -0.000587451c-0.00302883,-0.00262124 -0.00686314,-0.00411244 -0.0103107,-0.00542306 -0.000257766,-0.00149134 -0.00115995,-0.00524206 -0.000966695,-0.00704984 0.00103107,-9.04319e-005 0.00206213,-0.000135577 0.00312553,-0.000180721 0.000354465,0.00203365 0.000708787,0.00406716 0.00106325,0.00614595 0.000612231,0.000271296 0.00180437,0.00117504 0.0024166,0.000768315 0,-0.00280182 -0.000418977,-0.00650754 -0.00199776,-0.00827003 -0.00260985,-0.000316298 -0.00260985,-0.000316298 -0.00415645,-0.000949036 -0.00132102,-0.00253067 -0.0021265,-0.00551321 -0.00151441,-0.00867676 0.00306101,-0.00212394 0.00786188,-0.00122019 0.0113095,-0.00135577 0,0.000226009 0,0.000452017 3.21852e-005,0.000678026 -0.00103107,0.000677741 -0.00202995,0.00135562 -0.00302883,0.00207865 3.23276e-005,0.0011299 0.000580046,0.00225966 0.000386792,0.00338942 -0.000966695,-4.51447e-005 -0.00193325,-4.51447e-005 -0.00289994,-4.51447e-005 -0.000193254,-0.000858604 -0.00038665,-0.00167221 -0.000547718,-0.00248552 0.000128883,-9.04319e-005 0.000257766,-0.000180721 0.000418835,-0.000226009 -3.21852e-005,-0.000225866 -3.21852e-005,-0.00040673 -3.21852e-005,-0.000587451 -0.000708929,0 -0.00141772,0 -0.0021265,4.51447e-005 -0.000805627,0.00112976 -3.23276e-005,0.00469989 0.000644274,0.00564893 0.00196558,0.000135577 0.00393101,-0.000226009 0.00538091,0.00180764 0.000966553,0.00465475 0.00193325,0.00935464 0.0028998,0.0140545 -3.20428e-005,0.000180864 -6.43704e-005,0.00040673 -9.65556e-005,0.000632738zm-0.0122439 -0.00601052c-0.000644416,-0.000497162 -0.000644416,-0.000497162 -0.00782955,-0.0026211 -0.000290094,-0.00384129 -0.000580046,-0.00768258 -0.000837812,-0.0114786 -0.00122432,-0.00112976 -0.00122432,-0.00112976 -0.0016433,-0.00126533 -6.43704e-005,-0.000226009 -0.000128883,-0.000451875 -0.000161068,-0.000677883 0.00296431,-4.52871e-005 0.00596081,-9.04319e-005 0.00895746,-0.000135577 0.000612089,0.000858604 0.000515391,0.00289225 0.000644416,0.0041123 -0.000741114,-9.02895e-005 -0.00148223,-0.000180721 -0.00222334,-0.000225866 -0.000128883,-0.000587451 -0.000257766,-0.00117504 -0.00038665,-0.0017625 -0.000741114,4.52871e-005 -0.00148209,9.04319e-005 -0.0022232,0.000180864 0.000128883,0.0011749 0.000257766,0.00234995 0.00038665,0.00352485 0.000612231,0 0.00122432,4.51447e-005 0.00186888,9.04319e-005 3.21852e-005,0.000497019 6.43704e-005,0.000994181 0.000128741,0.00149134 -0.000740972,0.000451875 -0.000740972,0.000451875 -0.00170752,0.000587451 -6.45128e-005,0.00506148 -0.000773442,0.00415759 0.00270641,0.00510662 -3.21852e-005,-0.00122019 -3.21852e-005,-0.00239509 -3.21852e-005,-0.00357014 0.000708929,4.51447e-005 0.0014499,9.02895e-005 0.00219102,0.000180721 0.000451163,0.00248552 0.000451163,0.00248552 0.000805485,0.00646239 -0.000225439,0 -0.000451163,0 -0.000644416,0zm-0.0122439 -0.00271139c-0.00138539,-0.000135577 -0.00273873,-0.000226009 -0.00409194,-0.00031644 0.000322279,-0.000858604 0.000644416,-0.00171735 0.000966553,-0.00257581 -6.43704e-005,-0.00329913 0.000193396,-0.00664325 -0.000966553,-0.00949022 -0.000418835,-0.000135577 -0.000418835,-0.000135577 -0.000741114,-0.000903892 0.00161097,-4.51447e-005 0.00322208,-9.04319e-005 0.00486538,-9.04319e-005 6.45128e-005,0.000632738 0.000128741,0.00126533 0.000193254,0.00189807 -0.00177204,0.000361585 -0.000515533,0.00646239 -0.00045102,0.0084509 -0.000161068,0 -0.000289952,0 -0.000418835,0 0,0.000271153 0,0.000587451 0,0.000903749 0.000773299,0 0.00154646,0 0.00235208,0 0,-0.000632596 0,-0.00122005 0,-0.00180764 0.000483348,0 0.000998738,0 0.00151441,0 6.43704e-005,0.00131048 0.000128883,0.0026211 0.000225439,0.00393172 -0.00115995,0 -0.0023199,0 -0.00344766,0zm-0.0173991 -0.00483561c-0.000193396,-0.00194322 0.000483348,-0.00388643 0.000869997,-0.00573922 0.000161068,4.51447e-005 0.000322137,9.02895e-005 0.000483348,0.000180721 0.000128883,0.0034797 0.00115981,0.00506148 -0.00135335,0.0055585z"/>
    <path id="_548529520" class="fil2" d="M0.0254293 0.0526668l-0.00663086 -0.00462413 0.00292544 -0.000963135 -0.0050058 -0.00529845 0.00988143 -0.0030828 -0.00188526 -0.00134879c0,0 0.00299038,-0.000674323 0.00474547,-0.000867149 0.00175538,-0.000192399 0.00409564,-0.000385226 0.00409564,-0.000385226l-0.00142996 -0.00105955c0,0 0.00565534,-0.000578052 0.00806083,9.62708e-005 0.0024052,0.00067418 0.00455079,0.00144506 0.00455079,0.00144506 0,0 0.00156013,0.00096342 0.00221024,0.00105969 0.000649685,9.61284e-005 0.00351047,0.000481781 0.00351047,0.000481781l-0.000325128 0.00183028c0,0 0.00133896,6.85004e-005 0.00234012,0.000867007 0.00513895,0.00327136 0.00103306,0.0117711 -0.00279513,0.00953722 2.84825e-007,0.00017004 0.00129182,-0.00206071 0.000130023,-0.00260102 -0.00116194,-0.000540455 -0.00200574,0.000428804 -0.00195034,0.000674323 5.53984e-005,0.000245519 0.00169015,0.00337161 0.00156027,0.00491309 -0.000130023,0.00154133 0.00058503,0.00240834 -0.00104018,0.0019267 -0.00162521,-0.000481924 -0.00546095,-0.00327549 -0.00552574,-0.00394967 -6.49401e-005,-0.000674323 -0.00286035,-0.00096342 -0.00299038,0 -0.000130023,0.000963135 -0.000195105,0.0035643 0.000324985,0.00385325 0.000520233,0.00028924 -0.000194963,0.00183043 -0.00052009,0.00183043 -0.000324843,0 -0.0024052,0.000770736 -0.00312026,0.000289097 -0.000715338,-0.000481639 -0.000715338,0.000770736 -0.000715338,0.000770736 -0.00470132,0.000133725 -0.00737383,-0.000965699 -0.0115065,-0.00414249l0.00110526 -0.00125252z"/>
    <path id="_548529592" class="fil2" d="M0.0463335 0.049049l0.000437064 -0.000360446c0,0 0.0012622,0.00273973 0.00135947,0.00338856 9.74101e-005,0.000648404 0.000388501,0.0015137 0.000388501,0.0015137 -0.00168403,0.000861168 -0.00597975,-0.00442134 -0.00582638,-0.0056233 0.000346205,-0.000388074 0.00140703,-0.00058973 0.00165084,-0.000865013 0.000312453,-0.000352613 0.00140234,-0.00174512 0.00196358,-0.0036291 0.000697821,-0.00234112 0.00318078,-0.00258678 0.00478548,-0.00163376 0.00121335,0.000720464 0.00233044,0.00144178 0.00228187,0.0032443 -4.85626e-005,0.00180237 -0.00135961,0.00410917 -0.00135961,0.00410917l-0.000534047 7.22031e-005c-0.000187272,2.47798e-005 0.000488475,-0.00190818 0.000155942,-0.00289553 -0.000385938,-0.00114528 -0.00331394,-0.000958863 -0.00399154,-0.000781275 -0.00129054,0.000338087 -0.00375542,0.00307525 -0.00339896,0.00317209 0,0 0.00145688,0.00266738 0.00179653,0.00295577 0.000339938,0.000288385 0.00121378,0.00115326 0.00145645,0.00100913 0.000619209,-0.000366997 -0.000940349,-0.00326836 -0.00116522,-0.00367652z"/>
    <path id="_548529688" class="fil1" d="M0.0216646 0.0431014c0,0 -0.000534047,0 -0.000388074,0.000432507 0.000145545,0.000432934 0.00223331,0.00230722 0.00223331,0.00230722 0,0 0.000582752,0.000648973 0.00116522,0.000360588 0.000582752,-0.000288528 0.00135933,-0.00100956 0.00344709,-0.0020909 0.00208805,-0.00108148 0.00344752,-0.00194649 0.00485584,-0.00201855 0.00140775,-7.19183e-005 0.00145631,0 0.00145631,0l-4.85626e-005 0.000360588c0,0 -0.00233044,0.000576485 -0.00364163,0.00122574 -0.00131076,0.000648546 -0.00446662,0.0027393 -0.00504952,0.00331593 -0.000582467,0.00057677 -0.00155358,0.00165811 -0.00155358,0.00165811 0,0 -0.000582752,0.000504852 -0.000291376,0.000504852 0.000291376,0 0.00213633,0.00165797 0.00267052,0.00173003 0.000533904,7.20607e-005 0.000922405,0.000504567 0.00116522,7.20607e-005 0.000242956,-0.000432507 0.00213647,-0.00252312 0.00378732,-0.00331607 0.00165084,-0.000793095 0.00228187,-0.00158605 0.00393272,-0.00158605 0.00165099,0 0.00305902,0.000216324 0.00305902,0.000216324l-0.000339938 0.000288243c0,0 -0.00106809,-7.22031e-005 -0.0022336,0.000288385 -0.00116536,0.000360588 -0.00335011,0.00100913 -0.00495239,0.00295577 -0.00160242,0.00194664 -0.00233058,0.00295591 -0.00233058,0.00295591 0,0 -0.000388359,0.000216182 0,0.00050471 0.000388359,0.000288528 0.000534331,0.0010097 0.00165099,0.00144193 0.00111666,0.000432507 0.00247612,0.000720892 0.00247612,0.000720892 0.00041499,-0.0062455 0.00931861,-0.00731829 0.00781716,-0.00656066 -0.00123059,0.000621061 -0.00208663,0.00113132 -0.00319972,0.00211668 -0.0009103,0.000805769 -0.00199548,0.00190377 -0.00199548,0.00300205 0,0.000360446 4.84202e-005,0.000576628 0.000631172,0.000721034 0.000582467,0.000144121 0.00106824,0.000144121 0.00106824,0.000144121 0,0 -0.000291376,-0.00165839 0.000485484,-0.00266753 0.00137015,-0.00178072 0.00244608,-0.00197925 0.0040297,-0.00288371 0,0 0.000437206,-0.000792952 -4.82778e-005,-0.000937074 -0.000485626,-0.000144406 -0.00145659,-0.000721034 -0.00145659,-0.000721034 0.000136716,-9.5986e-005 0.00101625,-0.00019069 0.00176435,-0.000190405 0.00136431,4.27237e-007 0.00280923,-0.00130293 0.00289667,-0.00182815l-0.00116522 -0.000216324c-0.00183328,-0.00118516 -0.00164971,-0.00203821 -0.0026221,-0.00374886 -0.000398328,-0.000700811 -0.0008737,-0.00144193 -0.0008737,-0.00144193l-0.00370671 -0.000239253c0,0 -8.0463e-005,-0.000265314 0.00205587,-0.000337375 0.00213633,-7.22031e-005 0.00305873,0.000216182 0.00335011,0.000216182 0.000291518,0 0.000194108,-0.000576628 0.000194108,-0.000576628 0.00066179,0.000821577 0.00171735,0.00264332 0.00320471,0.00259518 0.00103776,-3.34669e-005 0.00199078,-0.000216324 0.00228202,-0.000648831 0.000291233,-0.000432507 0.000582609,-0.000937216 0.000582609,-0.000937216 0,0 -0.00218489,-0.000504567 -0.00325327,-0.00108134 -0.00106795,-0.000576628 -0.003156,-0.00173045 -0.00388416,-0.00201884 -0.000728155,-0.0002881 -0.00383559,-0.000865013 -0.00407869,-0.000792668 -0.000242671,7.19183e-005 0.000825565,0.000720892 0.000825565,0.000720892 0,0 -0.00602063,0.000504567 -0.00718585,0.000865013 -0.00116536,0.000360446 -0.00121392,0.000576913 -0.00121392,0.000576913l0.00218489 7.20607e-005c0.00228828,7.53362e-005 -0.00684847,0.00183014 -0.00975938,0.00446947z"/>
    <path id="_548528560" class="fil3" d="M0.0250405 0.0165381l0 -0.000594287 -0.000479645 0 0 0.000594287 0.000479645 0zm-0.00130749 0.00111537l0 -0.00211112 0.00149889 0 0.000636441 0.000290521 0 0.000816308 -0.000635871 0.000293512 -0.000671617 0 0 0.00071078 -0.000827843 0zm0.00249863 0l0 -0.00211112 0.000827701 0 0 0.000867149 0.000570219 0 0 -0.000867149 0.000827843 0 0 0.00211112 -0.000827843 0 0 -0.000843936 -0.000570219 0 0 0.000843936 -0.000827701 0zm0.00263292 0l0 -0.00211112 0.000827416 0 0 0.00211112 -0.000827416 0zm0.00124226 0l0 -0.00211112 0.000827843 0 0 0.00171094 0.000982076 0 0 0.000400179 -0.00180992 0zm0.002973 -0.000795943l0.000497589 0 -0.000202083 -0.000921124 -8.2172e-005 0 -0.000213334 0.000921124zm-0.000990763 0.000795943l0.000603117 -0.00211112 0.00132714 0 0.000581612 0.00211112 -0.000838097 0 -9.02895e-005 -0.000394198 -0.000687852 0 -8.48778e-005 0.000394198 -0.000810754 0zm0.00359121 -0.000400179l0.000539601 0 0 -0.00130948 -0.000539601 0 0 0.00130948zm-0.000827843 0.000400179l0 -0.00211112 0.00161624 0 0.000581612 0.000290521 0 0.00153008 -0.000581612 0.000290521 -0.00161624 0zm0.00258806 0l0 -0.00211112 0.00175025 0 0 0.000401461 -0.000922405 0 0 0.000388501 0.000769739 0 0 0.000400179 -0.000769739 0 0 0.000520802 0.000922405 0 0 0.000400179 -0.00175025 0zm0.00210827 0l0 -0.00211112 0.000827843 0 0 0.00171094 0.000982076 0 0 0.000400179 -0.00180992 0zm0.00345379 -0.00111537l0 -0.000594287 -0.000479787 0 0 0.000594287 0.000479787 0zm-0.00130749 0.00111537l0 -0.00211112 0.00149861 0 0.000636583 0.000290521 0 0.000816308 -0.000635729 0.000293512 -0.000671759 0 0 0.00071078 -0.000827701 0zm0.00249848 0l0 -0.00211112 0.000827843 0 0 0.000867149 0.000570219 0 0 -0.000867149 0.000827559 0 0 0.00211112 -0.000827559 0 0 -0.000843936 -0.000570219 0 0 0.000843936 -0.000827843 0zm0.00263306 0l0 -0.00211112 0.000827274 0 0 0.00211112 -0.000827274 0zm0.00206897 -0.000795943l0.000497731 0 -0.000202226 -0.000921124 -8.23144e-005 0 -0.000213191 0.000921124zm-0.000990763 0.000795943l0.000603259 -0.00211112 0.00132714 0 0.000581327 0.00211112 -0.000837955 0 -9.01471e-005 -0.000394198 -0.000687994 0 -8.48778e-005 0.000394198 -0.000810754 0z"/>
    <path id="_548529112" class="fil1" d="M0.0447364 0.0429962c0.00022316,0.000384229 0.000362582,0.000808048 0.000362582,0.00117405 0,0.00071548 -0.000530771,0.000942628 -0.00118516,0.000507558 -0.000654385,-0.000434785 -0.0011853,-0.00136801 -0.0011853,-0.00208349 0,-0.000365857 0.000139422,-0.000604398 0.000362724,-0.00069127 -7.19183e-005,9.45618e-005 -0.00011336,0.000231278 -0.00011336,0.000404736 0,0.000556405 0.000419262,0.00128499 0.000935934,0.00162849 0.00051653,0.000342929 0.000935507,0.000171465 0.000935507,-0.000384656 0,-0.000173316 -4.11572e-005,-0.000365003 -0.000112933,-0.000555408z"/>
    <path id="_548529400" class="fil4" d="M0.0461789 0.0495873l0.000437064 -0.000360446c0,0 0.0012622,0.00273973 0.00135947,0.00338842 9.74101e-005,0.000648546 0.000388501,0.0015137 0.000388501,0.0015137 -0.00168403,0.000861168 -0.00597975,-0.00442134 -0.00582638,-0.0056233 0.000346205,-0.000388074 0.00140703,-0.00058973 0.00165099,-0.000865013 0.00031231,-0.000352613 0.00140219,-0.00174512 0.00196344,-0.00362895 0.000697821,-0.00234126 0.00318078,-0.00258692 0.00478548,-0.0016339 0.00121335,0.000720607 0.00233044,0.00144193 0.00228187,0.0032443 -4.85626e-005,0.00180237 -0.00135961,0.00410931 -0.00135961,0.00410931l-0.000534047 7.20607e-005c-0.000187272,2.49222e-005 0.000488475,-0.00190804 0.000155942,-0.00289539 -0.000385938,-0.00114528 -0.00331394,-0.000959005 -0.00399154,-0.000781417 -0.00129054,0.000338229 -0.00375542,0.0030754 -0.00339896,0.00317224 0,0 0.00145688,0.00266738 0.00179653,0.00295577 0.000339938,0.000288385 0.00121378,0.00115326 0.00145645,0.00100913 0.000619209,-0.000366997 -0.000940207,-0.00326836 -0.00116522,-0.00367652z"/>
    <path id="_548530576" class="fil1" d="M0.0471396 0.0435104c1.53805e-005,-0.000149533 0.000677171,-0.001281 0.00110968,-0.000569934 0.000348341,0.000572925 -0.000783838,0.000720037 -0.00110968,0.000569934z"/>
   </g>
  </g>
 </g>
</svg>
