<?xml version="1.0" encoding="UTF-8"?>
<!DOCTYPE svg PUBLIC "-//W3C//DTD SVG 1.1//EN" "http://www.w3.org/Graphics/SVG/1.1/DTD/svg11.dtd">
<!-- Creator: CorelDRAW -->
<svg xmlns="http://www.w3.org/2000/svg" xml:space="preserve" width="1in" height="2in" style="shape-rendering:geometricPrecision; text-rendering:geometricPrecision; image-rendering:optimizeQuality; fill-rule:evenodd; clip-rule:evenodd"
viewBox="0 0 0.100071 0.0647894"
 xmlns:xlink="http://www.w3.org/1999/xlink">
 <defs>
  <style type="text/css">
   <![CDATA[
    .fil0 {fill:black}
   ]]>
  </style>
 </defs>
 <g id="Layer_x0020_1">
  <metadata id="CorelCorpID_0Corel-Layer"/>
  <path class="fil0" d="M0.019891 0.0480915c0,0.000265678 0,0.000531356 0,0.000863454 -0.00132606,0.000265678 -0.00213118,0.00152781 -0.00345724,0.00199274 -0.00369398,-0.0018599 -0.00738813,-0.00371981 -0.0110821,-0.00551329 0.000473492,-0.00730662 0.00430965,-0.0165397 0.00383616,-0.0236471 -0.00232064,-0.0018599 -0.00464128,-0.00371981 -0.00696192,-0.00557971 0,-0.000332098 0,-0.000664196 0,-0.000929874 0.00298359,-6.64196e-005 0.00582517,-6.64196e-005 0.00857201,-0.000332253 0.000189459,-0.00106271 0.000378918,-0.00212558 0.000568377,-0.00318829 -0.00914039,-0.00644316 -0.00914039,-0.00644316 -0.0113663,-0.00750603 0,-0.000332098 0,-0.000664196 0,-0.000929874 0.00956659,-6.64196e-005 0.0191333,-0.000132839 0.0287472,-0.000199259 0.000189459,-0.000199259 0.000378918,-0.000398517 0.000615664,-0.000531512 9.47295e-005,0.000465092 9.47295e-005,0.000465092 0.000663107,0.000398673 0.000236746,-0.000664351 0.000520935,-0.00132855 0.000805123,-0.00199274 0.0137342,-0.000132839 0.0275159,-0.000996449 0.0411554,-0.000996449 0.000663107,0.000996449 0.000663107,0.000996449 0.00146823,0.00365339 0.000331476,-0.000132839 0.000662951,-0.000265678 0.00104187,-0.000332098 0,-0.000332098 0,-0.000597776 0,-0.00086361 0.0249585,-0.000265678 0.0249585,-0.000265678 0.0255742,0 0,0.000265834 0,0.000531512 0,0.00086361 -0.00137334,0.000730615 -0.00274685,0.00146139 -0.0040729,0.00225842 -9.47295e-005,0.000265678 -0.000142017,0.000531356 -0.000189459,0.000863454 -0.000189459,-0.000132839 -0.000331476,-0.000199259 -0.000473492,-0.000265678 -0.00184715,0.00132855 -0.0036467,0.00272351 -0.0054464,0.00411832 0,0.00650958 0.00236793,0.0169382 0.00435709,0.0235808 -4.74425e-005,0.000597776 -9.47295e-005,0.00119555 -0.000142172,0.00179348 0.000189459,0 0.000378918,0 0.00061582,0 -0.000331631,0.00259052 0.000804968,0.00518104 0.000662951,0.00803723 -0.00393089,0.00225858 -0.00781433,0.004517 -0.0116978,0.00677542 -0.00185601,0 -0.00353004,-0.00178571 -0.00426516,-0.00404413 0.000159438,-0.00278371 -0.000868587,-0.00567071 -0.00378514,-0.00750416 -0.00157945,-0.00124377 -0.0036915,-0.00135048 -0.0036915,-0.00135048l0.00051269 -0.00285075c0,0 -0.00451202,-0.00060042 -0.0055374,-0.000750214 -0.00102538,-0.000150105 -0.00348648,-0.00165069 -0.00348648,-0.00165069 0,0 -0.00338413,-0.00120037 -0.00717829,-0.00225064 -0.00379416,-0.00105011 -0.0147066,-0.000150105 -0.0147066,-0.000150105l0.00225593 0.00165053c0,0 -0.00170062,0.00030021 -0.00446924,0.000600109 -0.00276862,0.000299899 -0.00875525,0.00135048 -0.00875525,0.00135048l0.00297379 0.00210069 -0.0143175 0.00480165 0.00392466 0.00410215c-0.00102803,-4.05984e-005 -0.000763903,0.00176315 -0.00326794,0.0035543zm-0.0110348 -0.0062439c0.000331631,-0.00212558 0.00175242,-0.0164069 0.00369414,-0.0191304 0.000662951,0 0.00132606,0 0.00203645,0 0,-0.000332098 0,-0.000664196 0,-0.000929874 -0.00161025,-0.00139497 -0.00322049,-0.00272351 -0.0047833,-0.0040519 0.00104187,-0.000199259 0.00208374,-0.000398517 0.00317305,-0.000597776 0.000473648,-0.00199274 0.00094714,-0.00398548 0.00146807,-0.00597823 0.00052109,-0.000199259 0.00108931,-0.000398673 0.00165769,-0.000531512 -0.00241537,-0.00166049 -0.00483074,-0.00325471 -0.00724611,-0.00484894 0.00639354,-0.000132839 0.0128345,-0.000265678 0.0192754,-0.000332098 0,0.00245768 -0.000710394,0.00478252 -0.00127862,0.00717378 -0.000947295,-0.000199259 -0.000947295,-0.000199259 -0.00189443,-0.00112913 -0.00269956,-0.000398517 -0.00269956,-0.000398517 -0.00412035,-0.000199259 -0.000331476,0.00192632 -0.000615664,0.00385265 -0.000899697,0.00584539 0.00175226,0.000132839 0.00350453,0.000265678 0.00530423,0.000398517 -0.000331476,0.00172706 -0.000663107,0.00352039 -0.000947295,0.00531388 -0.00165753,0.000132839 -0.00326778,0.000265678 -0.00487803,0.000398673 -0.000662951,0.00265694 -0.000662951,0.00265694 -0.000899697,0.00631032 0.00208374,0 0.00421492,-0.0018599 0.00615664,-0.00152781 0.0029363,-0.0104951 0.0029363,-0.0104951 0.00492547,-0.0190638 0.00213118,0 0.00426236,0 0.00644083,0 0.000284189,0.00557955 0.000568377,0.0111593 0.000852566,0.016739 0.000994427,0.000398517 0.000994427,0.000398517 0.00161009,0.000199259 0.000142172,-0.0047161 0.00132621,-0.0121557 -0.000284033,-0.0163405 -0.000236902,0 -0.000473648,0 -0.000663107,0 0,-0.000332098 0,-0.000664196 0,-0.000930029 0.00345724,6.64196e-005 0.00691448,0.000132839 0.0104192,0.000199414 0.000662951,0.000929874 0.000662951,0.000929874 0.00127862,0.00112913 -9.4574e-005,0.00146139 -0.000189303,0.00298919 -0.000284033,0.00451684 -0.000899853,0 -0.00179971,0 -0.00265212,0 -9.47295e-005,-0.000797035 -0.000142172,-0.00159422 -0.000189459,-0.00239126 -0.00113675,-0.000664196 -0.00194188,-0.000531356 -0.00317321,-0.000332098 0,0.00365339 -0.00094714,0.0104286 0.000189459,0.0136171 0.000899853,-0.000265834 0.00179971,-0.000531512 0.00269956,-0.000730771 0,-0.00298904 0.000378918,-0.00451684 -0.000947295,-0.00684168 0.00132621,0 0.00269956,0 0.00407306,0 9.47295e-005,0.00312187 0.000189459,0.00631032 0.000331476,0.00949862 -0.00232064,0.000332253 -0.00459384,0.000664351 -0.00686719,0.00106287 -0.00265212,-0.000464937 -0.00298359,-0.000929874 -0.00393089,-0.00112929 0,0.000597932 0,0.00119571 0,0.00179348 -0.00146807,0.000265678 -0.00293615,0.000531512 -0.00440438,0.00086361 -0.000142017,-0.00179348 -0.000236746,-0.00358697 -0.000331476,-0.00531403 -0.00165769,6.64196e-005 -0.00331522,0.000199259 -0.00497276,0.000332098 0.000568222,0.00199274 -9.47295e-005,0.00458342 -0.000378918,0.00677542 -0.00686719,0.00199274 -0.0132133,0.00611107 -0.0195595,0.010163zm0.0839686 -0.00086361c-0.00445182,-0.00385265 -0.0100877,-0.00604465 -0.0151552,-0.00797097 -0.000378763,-0.002192 -0.00170482,-0.00770513 -0.00142079,-0.0103622 0.00151552,-0.000132839 0.00303103,-0.000199259 0.00459399,-0.000265678 0.000520935,0.00298919 0.00104187,0.00597823 0.0015628,0.00903368 0.000899853,0.000398673 0.00265212,0.00172706 0.00355197,0.00112929 0,-0.00411832 -0.000615664,-0.00956519 -0.0029363,-0.0121557 -0.00383616,-0.000464937 -0.00383616,-0.000464937 -0.00610935,-0.00139497 -0.00194172,-0.00371965 -0.00312576,-0.00810365 -0.00222591,-0.0127535 0.00449911,-0.00312187 0.0115558,-0.00179348 0.0166232,-0.00199274 0,0.000332098 0,0.000664351 4.7287e-005,0.000996449 -0.00151552,0.000996293 -0.00298359,0.00199274 -0.00445182,0.00305545 4.74425e-005,0.00166064 0.000852566,0.00332129 0.000568377,0.00498193 -0.00142079,-6.64196e-005 -0.00284157,-6.64196e-005 -0.00426236,-6.64196e-005 -0.000284189,-0.00126213 -0.000568377,-0.00245783 -0.000805123,-0.00365339 0.000189459,-0.000132839 0.000378918,-0.000265678 0.000615664,-0.000332098 -4.7287e-005,-0.000332098 -4.7287e-005,-0.000597932 -4.7287e-005,-0.00086361 -0.00104202,0 -0.00208389,0 -0.00312576,6.64196e-005 -0.00118404,0.00166064 -4.74425e-005,0.00690826 0.00094714,0.00830307 0.00288902,0.000199259 0.00577788,-0.000332098 0.00790906,0.00265709 0.00142079,0.00684168 0.00284157,0.0137498 0.00426236,0.020658 -4.7287e-005,0.000265678 -9.47295e-005,0.000597776 -0.000142017,0.000929874zm-0.0179967 -0.00883442c-0.00094714,-0.000730771 -0.00094714,-0.000730771 -0.0115083,-0.00385265 -0.000426205,-0.00564613 -0.00085241,-0.0112923 -0.00123133,-0.0168718 -0.00179971,-0.00166064 -0.00179971,-0.00166064 -0.00241537,-0.0018599 -9.47295e-005,-0.000332098 -0.000189459,-0.000664196 -0.000236746,-0.000996449 0.00435709,-6.64196e-005 0.00876147,-0.000132839 0.013166,-0.000199259 0.000899697,0.00126213 0.000757681,0.00425116 0.00094714,0.00604465 -0.00108931,-0.000132839 -0.00217862,-0.000265678 -0.00326778,-0.000332098 -0.000189459,-0.000863454 -0.000378918,-0.00172706 -0.000568377,-0.00259052 -0.00108931,6.64196e-005 -0.00217847,0.000132839 -0.00326778,0.000265678 0.000189459,0.00172706 0.000378918,0.00345413 0.000568222,0.00518104 0.000899853,0 0.00179971,6.64196e-005 0.002747,0.000132995 4.7287e-005,0.000730615 9.4574e-005,0.00146123 0.000189303,0.002192 -0.00108916,0.000664196 -0.00108916,0.000664196 -0.00250994,0.000863454 -9.47295e-005,0.00743961 -0.00113675,0.00611107 0.00397817,0.00750603 -4.74425e-005,-0.00179348 -4.74425e-005,-0.00352055 -4.74425e-005,-0.00524761 0.00104202,6.64196e-005 0.00213118,0.000132839 0.00322049,0.000265678 0.000663107,0.00365339 0.000663107,0.00365339 0.00118404,0.00949877 -0.000331476,0 -0.000663107,0 -0.000947295,0zm-0.0179966 -0.00398548c-0.00203645,-0.000199259 -0.00402562,-0.000332098 -0.00601462,-0.000464937 0.000473648,-0.00126213 0.00094714,-0.00252425 0.00142079,-0.00378623 -9.47295e-005,-0.00484909 0.000284189,-0.00976445 -0.00142079,-0.0139492 -0.000615664,-0.000199259 -0.000615664,-0.000199259 -0.00108931,-0.00132855 0.00236793,-6.64196e-005 0.00473601,-0.000132839 0.00715138,-0.000132839 9.47295e-005,0.000930029 0.000189303,0.0018599 0.000284033,0.00278993 -0.00260467,0.000531356 -0.000757681,0.00949862 -0.000662951,0.0124214 -0.000236746,0 -0.000426205,0 -0.000615664,0 0,0.000398517 0,0.000863454 0,0.00132839 0.0011366,0 0.0022732,0 0.00345724,0 0,-0.000929874 0,-0.00179333 0,-0.00265694 0.000710394,0 0.00146807,0 0.00222591,0 9.47295e-005,0.00192632 0.000189459,0.00385265 0.000331476,0.00577897 -0.00170498,0 -0.00340995,0 -0.00506749,0zm-0.0255742 -0.00710751c-0.000284189,-0.0028562 0.000710394,-0.00571239 0.00127877,-0.00843591 0.000236746,6.64196e-005 0.000473492,0.000132839 0.000710394,0.000265678 0.000189459,0.00511477 0.00170482,0.00743961 -0.00198916,0.00817023zm0.00283364 0.0357877l-0.00974641 -0.00679673 0.00429985 -0.00141581 -0.00735764 -0.00778789 0.0145241 -0.00453131 -0.00277096 -0.00198248c0,0 0.00439536,-0.00099116 0.00697514,-0.00127442 0.0025801,-0.000282944 0.00601991,-0.000566355 0.00601991,-0.000566355l-0.00210194 -0.00155736c0,0 0.00831255,-0.00084961 0.0118483,0.00014155 0.00353532,0.000991005 0.00668893,0.00212403 0.00668893,0.00212403 0,0 0.00229311,0.00141597 0.00324865,0.00155752 0.000955073,0.000141394 0.00515988,0.000708216 0.00515988,0.000708216l-0.000477847 0.00269023c0,0 0.00196817,0.00010064 0.00343966,0.00127426 0.00755347,0.0048085 0.00151832,0.0173017 -0.00410852,0.0140184 4.66648e-007,0.000249812 0.00189895,-0.00302901 0.00019117,-0.00382325 -0.00170793,-0.000794235 -0.00294813,0.000630286 -0.00286677,0.00099116 8.15078e-005,0.000360874 0.00248443,0.00495596 0.00229342,0.00722169 -0.00019117,0.00226542 0.000859877,0.00353984 -0.00152889,0.00283193 -0.00238877,-0.000708527 -0.00802681,-0.00481456 -0.00812201,-0.00580541 -9.55073e-005,-0.000991316 -0.00420434,-0.00141612 -0.00439536,0 -0.00019117,0.00141565 -0.000286833,0.0052389 0.000477692,0.00566371 0.000764525,0.000424961 -0.000286677,0.00269038 -0.000764525,0.00269038 -0.000477381,0 -0.00353517,0.00113287 -0.00458637,0.000424961 -0.00105136,-0.000707905 -0.00105136,0.00113287 -0.00105136,0.00113287 -0.00691028,0.000196459 -0.0108384,-0.00141939 -0.0169129,-0.00608898l0.00162471 -0.00184093zm0.0319145 -0.0135935c2.78433e-005,-0.000271434 0.00122946,-0.00232562 0.00201452,-0.00103456 0.000632463,0.00104 -0.00142296,0.00130708 -0.00201452,0.00103456zm-0.00118871 0.00827584l0.000642419 -0.000529801c0,0 0.00185539,0.00402702 0.00199819,0.00498053 0.000143261,0.000953206 0.000571177,0.00222498 0.000571177,0.00222498 -0.00247541,0.0012657 -0.00878931,-0.00649869 -0.00856392,-0.00826542 0.000508802,-0.000570399 0.00206818,-0.000866876 0.00242657,-0.00127146 0.000459182,-0.00051829 0.00206118,-0.00256501 0.00288606,-0.0053341 0.00102569,-0.00344122 0.00467519,-0.00380225 0.00703394,-0.00240153 0.00178353,0.00105914 0.00342535,0.00211936 0.00335411,0.00476867 -7.13971e-005,0.00264916 -0.0019985,0.00603998 -0.0019985,0.00603998l-0.000784902 0.000105929c-0.000275322,3.65541e-005 0.00071786,-0.00280455 0.000229124,-0.00425583 -0.000567288,-0.00168335 -0.00487103,-0.00140943 -0.00586701,-0.00114842 -0.00189692,0.00049698 -0.00551982,0.00452026 -0.00499593,0.00466259 0,0 0.00214145,0.00392062 0.00264076,0.00434449 0.000499624,0.000423872 0.00178399,0.00169518 0.00214067,0.00148332 0.000910119,-0.000539445 -0.00138206,-0.00480398 -0.00171275,-0.00540394zm-0.0357546 -0.00943142c0,0 -0.000785057,0 -0.000570555,0.000635886 0.000214036,0.000636352 0.00328271,0.00339113 0.00328271,0.00339113 0,0 0.000856454,0.000953984 0.0017126,0.000530112 0.00085661,-0.000424183 0.00199819,-0.00148394 0.00506686,-0.00307334 0.00306899,-0.00158956 0.00506717,-0.00286102 0.00713722,-0.00296695 0.00206927,-0.000105774 0.00214067,0 0.00214067,0l-7.13971e-005 0.000529956c0,0 -0.00342535,0.000847433 -0.00535261,0.00180157 -0.00192663,0.000953362 -0.00656527,0.00402639 -0.00742203,0.00487398 -0.000856143,0.000847899 -0.00228362,0.0024373 -0.00228362,0.0024373 0,0 -0.00085661,0.00074197 -0.000428227,0.00074197 0.000428227,0 0.00314007,0.00243699 0.00392513,0.00254292 0.000784902,0.000105929 0.00135592,0.000741659 0.00171275,0.000105929 0.000357141,-0.00063573 0.00314023,-0.00370876 0.0055668,-0.00487429 0.00242641,-0.00116553 0.00335411,-0.00233122 0.00578052,-0.00233122 0.00242672,0 0.00449631,0.000318098 0.00449631,0.000318098l-0.000499624 0.000423561c0,0 -0.00156996,-0.000106085 -0.00328302,0.000424027 -0.00171291,0.000529956 -0.00492422,0.00148316 -0.0072794,0.00434449 -0.00235517,0.00286117 -0.00342551,0.0043448 -0.00342551,0.0043448 0,0 -0.000570866,0.000317632 0,0.000741659 0.00057071,0.000424183 0.000785368,0.0014841 0.00242657,0.00211951 0.00164136,0.00063573 0.00363954,0.0010596 0.00363954,0.0010596 0.000610064,-0.00918005 0.013697,-0.0107569 0.0114901,-0.00964328 -0.00180873,0.000912919 -0.00306697,0.00166298 -0.00470319,0.0031113 -0.00133788,0.00118435 -0.00293304,0.00279818 -0.00293304,0.00441247 0,0.000529801 7.12416e-005,0.000847588 0.000927852,0.00105991 0.000856143,0.000211858 0.00157011,0.000211858 0.00157011,0.000211858 0,0 -0.000428383,-0.00243761 0.000713505,-0.00392093 0.00201405,-0.00261727 0.00359537,-0.00290924 0.00592316,-0.00423856 0,0 0.000642574,-0.00116553 -7.1086e-005,-0.00137739 -0.00071366,-0.000212169 -0.00214098,-0.00105991 -0.00214098,-0.00105991 0.000201125,-0.000140928 0.00149374,-0.000280144 0.00259347,-0.000279833 0.00200519,7.77746e-007 0.00412906,-0.00191512 0.0042577,-0.00268711l-0.00171275 -0.000317943c-0.00269474,-0.001742 -0.00242486,-0.00299588 -0.00385404,-0.00551018 -0.000585643,-0.00103005 -0.00128437,-0.00211951 -0.00128437,-0.00211951l-0.00544811 -0.000351541c0,0 -0.000118373,-0.000390118 0.0030217,-0.000496047 0.00314007,-0.000106085 0.004496,0.000317787 0.00492422,0.000317787 0.000428383,0 0.000285277,-0.000847588 0.000285277,-0.000847588 0.000972805,0.00120768 0.00252425,0.00388531 0.0047105,0.00381469 0.00152532,-4.91536e-005 0.00292604,-0.000317943 0.00335411,-0.000953673 0.000428072,-0.00063573 0.000856454,-0.0013777 0.000856454,-0.0013777 0,0 -0.00321163,-0.000741659 -0.0047819,-0.00158925 -0.0015698,-0.000847744 -0.00463879,-0.0025437 -0.00570913,-0.00296741 -0.00107033,-0.000423561 -0.00563773,-0.00127146 -0.00599503,-0.00116522 -0.000356675,0.000105774 0.00121344,0.0010596 0.00121344,0.0010596 0,0 -0.00884951,0.000741659 -0.0105621,0.00127146 -0.00171291,0.000529801 -0.00178431,0.000847899 -0.00178431,0.000847899l0.00321147 0.000105929c0.00336344,0.000110751 -0.0100662,0.00269007 -0.0143448,0.00656947zm0.0333409 -0.00033272c0.000328053,0.00049278 0.000533067,0.00103642 0.000533067,0.00150587 0,0.000917896 -0.000780235,0.00120924 -0.001742,0.000651129 -0.000961917,-0.0005578 -0.00174231,-0.00175475 -0.00174231,-0.00267249 0,-0.000469292 0.000205014,-0.000775258 0.000533223,-0.000886787 -0.000105774,0.000121328 -0.000166593,0.000296633 -0.000166593,0.000519224 0,0.00071366 0.000616131,0.0016482 0.00137568,0.00208887 0.000759236,0.000439893 0.00137506,0.000219947 0.00137506,-0.000493402 0,-0.00022228 -6.05087e-005,-0.000468203 -0.000166127,-0.000712416zm-0.0282582 -0.0373583l0 -0.000873565 -0.000705105 0 0 0.000873565 0.000705105 0zm-0.00192181 0.00163933l0 -0.00310305 0.00220304 0 0.000935473 0.000426983 0 0.00119991 -0.00093454 0.000431494 -0.000987271 0 0 0.00104467 -0.00121671 0zm0.00367252 0l0 -0.00310305 0.00121671 0 0 0.00127457 0.0008381 0 0 -0.00127457 0.00121671 0 0 0.00310305 -0.00121671 0 0 -0.00124035 -0.0008381 0 0 0.00124035 -0.00121671 0zm0.00387007 0l0 -0.00310305 0.00121624 0 0 0.00310305 -0.00121624 0zm0.00182584 0l0 -0.00310305 0.00121686 0 0 0.00251492 0.0014435 0 0 0.000588132 -0.00266036 0zm0.00437 -0.00116989l0.000731393 0 -0.000297099 -0.0013539 -0.000120862 0 -0.000313432 0.0013539zm-0.00145641 0.00116989l0.000886631 -0.00310305 0.00195059 0 0.000854899 0.00310305 -0.00123179 0 -0.000132684 -0.000579421 -0.00101107 0 -0.000124751 0.000579421 -0.00119182 0zm0.00527857 -0.000588132l0.000793146 0 0 -0.00192477 -0.000793146 0 0 0.00192477zm-0.00121686 0.000588132l0 -0.00310305 0.0023757 0 0.000854899 0.000426983 0 0.00224909 -0.000854899 0.000426983 -0.0023757 0zm0.00380411 0l0 -0.00310305 0.00257263 0 0 0.000590154 -0.00135577 0 0 0.000571021 0.00113131 0 0 0.000588132 -0.00113131 0 0 0.000765614 0.00135577 0 0 0.000588132 -0.00257263 0zm0.00309885 0l0 -0.00310305 0.00121686 0 0 0.00251492 0.0014435 0 0 0.000588132 -0.00266036 0zm0.00507651 -0.00163933l0 -0.000873565 -0.000705105 0 0 0.000873565 0.000705105 0zm-0.00192181 0.00163933l0 -0.00310305 0.00220289 0 0.000935629 0.000426983 0 0.00119991 -0.00093454 0.000431494 -0.000987271 0 0 0.00104467 -0.00121671 0zm0.00367252 0l0 -0.00310305 0.00121671 0 0 0.00127457 0.0008381 0 0 -0.00127457 0.00121655 0 0 0.00310305 -0.00121655 0 0 -0.00124035 -0.0008381 0 0 0.00124035 -0.00121671 0zm0.00387007 0l0 -0.00310305 0.00121608 0 0 0.00310305 -0.00121608 0zm0.00304114 -0.00116989l0.000731548 0 -0.000297255 -0.0013539 -0.000120862 0 -0.000313432 0.0013539zm-0.00145625 0.00116989l0.000886631 -0.00310305 0.00195074 0 0.000854588 0.00310305 -0.00123179 0 -0.000132528 -0.000579421 -0.00101123 0 -0.000124751 0.000579421 -0.00119166 0z"/>
 </g>
</svg>
