<?xml version="1.0" encoding="UTF-8"?>
<!DOCTYPE svg PUBLIC "-//W3C//DTD SVG 1.1//EN" "http://www.w3.org/Graphics/SVG/1.1/DTD/svg11.dtd">
<!-- Creator: CorelDRAW -->
<svg xmlns="http://www.w3.org/2000/svg" xml:space="preserve" width="5548in" height="7180in" style="shape-rendering:geometricPrecision; text-rendering:geometricPrecision; image-rendering:optimizeQuality; fill-rule:evenodd; clip-rule:evenodd"
viewBox="0 0 59.9951 75.7426"
 xmlns:xlink="http://www.w3.org/1999/xlink">
 <defs>
  <style type="text/css">
   <![CDATA[
    .fil0 {fill:black}
   ]]>
  </style>
 </defs>
 <g id="Layer_x0020_1">
  <metadata id="CorelCorpID_0Corel-Layer"/>
  <g id="_556902312">
   <path id="_556903800" class="fil0" d="M28.2195 4.27618c0,0.264204 0.0797683,0.344122 0.344122,0.344122l0.573586 0c0.159835,0.686305 0.454306,4.05238 0.319669,4.90821 -0.332045,2.11334 0.496054,3.18477 -1.12272,4.26887 0.203372,0.303567 0.408086,0.573586 0.917708,0.573586l0.114807 0c1.67513,0 1.89118,-2.96499 1.9544,-4.69902 0.074848,-2.05295 0.021023,-1.00687 1.72642,-0.927847 1.02267,0.0474137 1.48116,-0.794104 1.47579,-1.86106l-1.71524 0.260924c-0.472049,0.0806629 -0.92233,-0.114658 -1.46803,-0.112868l0.206205 -2.41079c2.27436,0 2.6492,0.513499 3.53306,-1.35367l-0.206503 -0.252426c-1.5226,0 -6.65327,0.0311618 -6.65327,1.26198z"/>
   <path id="_556904088" class="fil0" d="M42.788 11.6178c0,-1.17341 0.484574,-3.55617 1.49129,-3.55617 0.03146,0 0.209634,0.0790228 0.344122,0.114658l-0.369767 3.32358c0.00641128,0.157151 0.200837,1.03714 0.255109,1.1503l-0.883564 0.728948c-0.521252,-0.298497 -0.837194,-0.796043 -0.837194,-1.532l0 -0.229315zm-5.96503 -0.917708c0,-1.08887 0.715678,-2.63847 1.72061,-2.63847l0.344271 0c0.0392132,0.471304 0.114658,0.256302 0.114658,0.688244 0,0.921883 -0.949466,1.95022 -1.83542,1.95022l-0.344122 0zm-2.17954 0.229315l0 0.229464c0,1.74611 0.993152,3.04596 2.74418,2.97558 0.678552,-0.0272852 1.66529,-0.444615 2.09798,-0.771739 0.638892,-0.483232 1.00508,-1.37589 1.35233,-1.63025 0.0970638,1.16656 0.885502,2.63847 2.06488,2.63847 1.05279,0 1.32356,-0.727755 1.95007,-1.14717 0.305505,0.456245 0.979882,1.03237 1.72076,1.03237 1.7227,0 3.088,-2.86927 3.2119,-4.35907 1.22992,0.0274343 1.02789,0.19204 0.730737,1.07471 -0.196662,0.583725 -0.386615,1.30328 -0.386615,2.02254l0 0.344122c0,1.2909 0.784711,2.52366 2.06488,2.52366l0.573586 0c1.14598,0 2.03715,-1.84675 2.42525,-2.73672 0.261073,-0.598784 1.47504,-3.20117 1.47504,-3.80189 0,-0.101984 -0.127331,-0.229464 -0.229464,-0.229464 -0.804839,0 -2.12303,5.96518 -3.44137,5.96518 -0.438502,0 -0.688393,-0.339649 -0.688393,-0.80305l0 -1.26183c0,-1.41615 0.917857,-2.77638 0.917857,-4.35907l0 -0.114807c0,-0.414199 -0.627858,-0.425083 -1.12436,-0.509473l-0.711205 1.42733c-0.702706,-0.0158046 -0.901158,-0.469365 -1.03237,-1.03251 -0.529602,-0.0117789 -0.384528,-0.114658 -0.802901,-0.114658 -0.316389,0 -0.917708,0.192189 -0.917708,0.458779 0,0.519612 0.282395,0.694655 0.688244,0.80305 -0.123902,1.48861 -1.23395,3.3364 -2.409,3.9003 -0.384379,-0.203521 -0.688244,-0.325037 -0.688244,-0.917708 0,-1.23499 0.845395,-5.16213 -0.344122,-5.16213 -0.574332,0 -0.802305,0.229315 -1.37664,0.229315 -0.340693,0 -0.306847,-0.229315 -0.80305,-0.229315l-0.344122 0c-1.4822,0 -2.25051,1.53707 -2.49652,2.78026 -0.204117,1.03132 -1.33459,2.95545 -2.43614,2.95545 -0.954983,0 -1.72061,-0.684814 -1.72061,-1.6061 0,-0.274791 2.86778,-0.467874 2.86778,-2.86778 0,-0.600424 -0.512604,-1.26183 -1.14717,-1.26183l-1.03237 0c-1.37843,0 -2.75312,2.03819 -2.75312,3.55602z"/>
   <path id="_556903680" class="fil0" d="M13.5362 17.2387c1.55899,-0.129717 2.23679,-1.90967 2.98259,-2.409l0 2.63847 -2.98259 0 0 -0.229464zm-7.1122 -0.114658c0.1573,0 0.273896,0.239305 0.343227,0.382291l-0.344122 0 -0.343376 -0.0381695c0.0702259,-0.104817 0.186822,-0.344122 0.344271,-0.344122zm-2.86793 0c0.00223649,-0.00193829 0.213958,-0.114807 0.229464,-0.114807 0.39407,0 0.540337,0.174446 0.573586,0.573586 -0.525427,-0.122411 -0.540784,-0.0670948 -0.80305,-0.458779zm4.01495 -0.344271c-0.264204,0 -0.344122,-0.0797683 -0.344122,-0.344122l0 -0.229315c0,-0.268528 0.1904,-0.458928 0.458928,-0.458928l0.458779 0c0.130015,0 1.94769,1.56077 2.06488,1.72076l-1.83542 0c0.130015,-0.486959 0.229464,-0.200688 0.229464,-0.573586l0 -0.344122c0,-0.264354 -0.0799174,-0.344122 -0.344122,-0.344122l-0.114807 0c-0.541381,0 -0.19547,0.573437 -0.573586,0.573437zm5.04747 -4.7032c0,-0.494265 0.736701,-0.80305 1.26183,-0.80305 1.78099,0 2.2596,1.88238 1.4907,3.21146 -0.520059,0.898772 -2.06473,2.29479 -3.44077,2.29479l-0.573586 0c-0.984206,0 -1.95022,-0.881178 -1.95022,-1.83542 0,-0.316091 0.653802,-0.917559 1.14717,-0.917559l0.229464 0c0.701663,0 0.792762,0.464743 1.03237,0.917559l-0.401525 0.401525 -0.10273 -0.0520357 -0.0940818 -0.805436 -0.430749 -0.238559c-0.85285,0.204266 -0.689586,0.155064 -1.03579,0.809312 0.333088,0.693909 0.396605,1.26183 1.49129,1.26183l0.458928 0c0.727308,0 1.26183,-0.730886 1.26183,-1.49129l0 -0.458779 0.688244 0c0.901158,0 1.6061,-0.601766 1.6061,-1.49129 0,-0.619211 -0.746989,-1.26183 -1.37664,-1.26183l-0.344122 0c-0.324142,0 -0.688244,0.478311 -0.688244,0.802901 0,0.0132699 0.204714,0.412111 0.229315,0.458928l0.694058 -0.0758917 0.240349 0.29149 -0.268976 0.22022c-0.550774,-0.110632 -1.12421,-0.179516 -1.12421,-0.894747l0 -0.344122zm1.83542 -2.06488c0,-0.292235 0.247953,-0.688244 0.573586,-0.688244l0.114658 0c0.309829,0 0.316389,0.0547195 0.573586,0.114807l0 0.344122c-0.346507,0.0806629 -0.688244,0.0663493 -0.688244,0.458779 0,0.176683 0.385124,0.344122 0.573586,0.344122 0.334729,0 0.594758,-0.154169 0.917708,-0.229315l0 1.60595c-0.252873,-0.169377 -2.06488,-1.67856 -2.06488,-1.95022zm1.72076 -1.37649c0,-0.157449 0.239305,-0.274045 0.344122,-0.344122l0 0.688244c-0.255706,-0.0682876 -0.344122,-0.0268379 -0.344122,-0.344122zm-0.100791 -1.95455l-0.142837 -0.449982c0.580296,0.00820048 0.575077,0.00283289 0.58775,0.569113l-0.444913 -0.119131zm0.444913 -2.17521l0 1.03251c-0.471453,-0.0392132 -0.256302,-0.114658 -0.688393,-0.114658 -0.754593,0 -0.632331,0.682429 -0.849718,0.985548 -0.19875,0.277325 -0.985697,0.263459 -0.985697,0.849718 0,0.309829 0.0548686,0.316389 0.11928,0.559571l0.454306 0.128822c0.0767863,-0.145074 0.157598,-0.458928 0.344122,-0.458928 0.264354,0 0.344271,0.0797683 0.344271,0.344122 0,0.723282 -1.83556,0.537206 -1.83556,1.95022 0,1.34786 0.0308636,0.233192 -1.12794,0.936793 -0.411962,0.250189 -0.936793,0.738192 -0.936793,1.3574l0 0.917708 -1.03251 0c-0.869549,0 -1.83542,0.900412 -1.83542,1.83542l-0.917708 0c-1.54199,0 -1.26451,1.60595 -2.06473,1.60595 -0.257197,0 -0.251829,-0.0908016 -0.499633,-0.297454l0.61429 -0.276132c-0.0921435,-0.395412 -0.35098,-0.688244 -0.80305,-0.688244 -0.514394,0 -0.761899,0.53989 -0.802901,1.03251l-0.344122 0c-0.419268,0 -0.917708,0.316538 -0.917708,0.688244 0,1.00791 0.0399587,0.688244 -1.47474,0.70211l-0.246014 0.330256c2.71495,0 5.42976,0 8.14471,0 1.37649,0 2.75312,0 4.12961,0 0.715827,0 3.78549,0.266888 3.78549,-0.344122l0.0283289 -5.73631 -0.142986 -7.91465c-0.195619,0.131059 -0.458779,0.249742 -0.458779,0.573586z"/>
   <path id="_556904232" class="fil0" d="M15.0274 1.86717c0,0.635462 1.3908,0.426425 1.99465,0.75847 0.52483,0.288657 0.893703,1.11795 1.17863,1.68915 0.830783,1.66544 0.792166,2.45701 0.957219,4.66369 0.25332,3.38441 0.269125,7.57143 0.343227,10.8986 -1.54482,0 -4.24218,0.223351 -5.64566,0.434178 -0.794701,0.11928 -2.00643,0.127033 -2.51963,0.462954 -0.732675,0.479504 -1.86732,0.39079 -2.04207,1.03684l1.25974 0.130909 1.83542 -0.0137172 29.5961 -0.10094 1.03237 0c0.704346,0 0.321608,1.64487 0.688244,2.409 0.767714,-0.514095 1.26198,-2.33892 1.26198,-3.67083l0 -1.03251c0,-1.23708 -0.342929,-1.99197 -0.573586,-2.98244 -1.53483,1.76564 -0.0515885,2.01627 -3.66159,2.41825 -1.8129,0.201881 -3.65026,0.369618 -5.63462,0.445211 -3.78459,0.144179 -7.69965,0.57791 -11.6964,0.57791l0 -13.5362c0,-1.07635 0.119429,-2.77161 0.810654,-3.08964 0.646794,-0.297752 3.43376,0.261968 3.43376,-0.58119 0,-0.826459 -4.66518,-2.58867 -5.9531,-2.7661 -1.36799,-0.188611 -6.66535,1.07844 -6.66535,1.84839z"/>
   <path id="_556904136" class="fil0" d="M28.1048 29.0543c0,0.306698 0.165501,0.339202 0.344122,0.458779 0.247953,-0.131208 0.573437,-0.199943 0.573437,-0.573586 0,-0.306698 -0.165501,-0.339202 -0.344122,-0.458779 -0.247953,0.131208 -0.573437,0.199793 -0.573437,0.573586z"/>
   <path id="_556903872" class="fil0" d="M48.6385 29.1689c0.119429,0.178472 0.151932,0.344122 0.458779,0.344122 0.268528,0 0.458928,-0.1904 0.458928,-0.458779l0 -0.114807c0,-0.264354 -0.0799174,-0.344122 -0.344271,-0.344122 -0.373644,0 -0.442229,0.325484 -0.573437,0.573586z"/>
   <path id="_556903632" class="fil0" d="M47.606 31.2338l0.489643 0.471751 -1.06323 2.39603c0.140004,0.0785755 0.122709,0.114658 0.344122,0.114658l1.03251 0c0.590136,0 0.229464,-0.556589 0.229464,-0.917708 0,-0.318775 0.470856,-2.30985 0.573437,-2.52366 -0.0922926,-0.0641128 -0.28314,-0.229464 -0.344122,-0.229464 -0.35441,0 -1.07605,0.410918 -1.26183,0.688393z"/>
   <path id="_556903728" class="fil0" d="M27.0723 31.0044c0.0159537,0.713441 0.229464,0.463849 0.229464,0.688244 0,1.65978 -0.730439,1.60506 -0.917708,2.409 0.257197,0.059938 0.263757,0.114658 0.573586,0.114658l0.688244 0c0.309829,0 0.31624,-0.0547195 0.573586,-0.114658 -0.0141645,-0.632033 -0.229464,-0.586707 -0.229464,-0.917708 0,-0.270616 0.977049,-2.63847 0.344122,-2.63847 -0.590285,0 -0.803647,0.336518 -1.26183,0.458928z"/>
   <path id="_556903608" class="fil0" d="M41.7306 32.3112c0.0250487,0.636208 -0.108246,1.16834 -0.606239,1.2663 -0.83287,0.163711 -0.55301,-0.405104 -0.519165,-0.861796l1.1254 -0.404507zm-1.35144 -0.962736c0,0.160729 0.156256,0.229464 0.344122,0.229464 0.463998,0 0.45371,-0.573586 0.917708,-0.573586l0.114658 0c0.264354,0 0.344122,0.0797683 0.344122,0.344122 0,0.884011 -2.52366,0.442975 -2.52366,2.06488l0 0.229464c0,0.257048 0.0908016,0.25168 0.23021,0.431196l2.52291 0.142241c0.184138,0.00506939 0.573586,-0.170123 0.573586,-0.344122 0,-0.398394 -0.229464,-0.175043 -0.229464,-0.573586l0 -0.114658c0,-0.845096 0.344122,-1.14046 0.344122,-1.83542l0 -0.229464c0,-0.424337 -0.586856,-0.688244 -1.03237,-0.688244 -0.732526,0 -1.60595,0.217387 -1.60595,0.917708z"/>
   <path id="_556903968" class="fil0" d="M49.9003 31.2338c0.0766372,0.144776 0.229315,0.379309 0.229315,0.573437 0,1.47087 -0.765328,1.84257 -0.802901,2.29434l1.49129 0c0.695102,0 0.114658,-0.549134 0.114658,-0.688244 0,-0.641426 0.321757,-2.29434 0.917708,-2.29434 0.262713,0 0.133444,0.038915 0.458779,0.114807l0 0.344122c0,1.72061 -0.62428,1.75699 -0.800963,2.50741l1.25989 0.130909 0.114658 0c0.187865,0 0.344271,-0.0685858 0.344271,-0.229315 0,-0.398543 -0.229464,-0.175043 -0.229464,-0.573586 0,-0.694953 0.344122,-0.990319 0.344122,-1.83542l0 -0.458928c0,-0.325484 -0.396008,-0.573586 -0.688244,-0.573586 -1.15448,0 -2.24425,-0.0715678 -2.75312,0.688393z"/>
   <path id="_556903536" class="fil0" d="M44.3941 34.2163l0.344122 0.114807c0.568069,-0.300734 1.01641,-1.19086 1.42405,-1.788 0.240199,-0.351875 1.31178,-1.67633 1.32907,-1.88283l-1.14717 0c-0.187716,0 -0.344122,0.0685858 -0.344122,0.229464 0,0.810356 0.0192338,1.20219 -0.688244,1.72061 -0.133146,-0.277325 -0.229464,-0.501869 -0.229464,-0.917708 0,-0.648434 0.291341,-0.398245 0.344122,-1.03237l-1.49129 0c-0.588943,0 0.0281798,0.744305 0.111676,1.49428 0.0754444,0.676912 0.20367,1.44567 0.347253,2.06175z"/>
   <path id="_556903080" class="fil0" d="M29.596 31.6926l0 0.229464c0,1.08023 1.49129,1.08038 1.49129,2.17954l0 0.229464c0,0.946037 -2.06488,1.0437 -2.06488,0l0 -0.229464c0,-0.376327 0.231403,-0.43045 0.573586,-0.458779 0.080812,0.346358 0.0664984,0.688244 0.458928,0.688244l0.114658 0c0.268528,0 0.458928,-0.1904 0.458928,-0.458928 0,-0.535417 -0.267485,-0.802901 -0.80305,-0.802901l-0.458779 0c-0.618614,0 -1.03251,0.567175 -1.03251,1.14702l0 0.114807c0,0.75668 0.821837,1.26183 1.60595,1.26183l0.229464 0c1.04638,0 1.96856,-0.823626 2.04594,-1.74402 0.0924417,-1.1008 -1.58702,-1.77488 -1.58702,-2.27094 0,-0.268528 0.190251,-0.458928 0.458779,-0.458928l0.114807 0c0.544512,0 0.639339,0.688244 1.03237,0.688244 0.520656,0 0.487406,-1.26183 -0.80305,-1.26183l-0.344122 0c-0.754593,0 -1.49129,0.402271 -1.49129,1.14717z"/>
   <path id="_556902912" class="fil0" d="M55.98 34.9047c-0.322801,0.0751462 -0.58283,0.229315 -0.917708,0.229315 -0.466533,0 -0.763241,-0.211572 -0.802901,-0.688244 0.138812,-0.0538249 0.392877,-0.114658 0.573586,-0.114658l0.458779 0c0.469365,0 0.650223,0.116149 0.688244,0.573586zm-0.802901 -2.86793c0,-0.595802 0.370065,-0.870592 0.688244,-1.14702l0.452368 0.139706c0.082303,0.300436 0.121218,0.171017 0.121218,0.433731 0,0.548537 -0.404954,1.14717 -1.03237,1.14717 -0.160729,0 -0.229464,-0.156405 -0.229464,-0.344122l0 -0.229464zm-1.03237 0.114807c0,0.309829 0.0547195,0.31624 0.121963,0.579103l-0.580892 0.797384 0 0.688244c-0.0588943,0.0879687 -0.344122,0.485468 -0.344122,0.573586 0,1.22545 3.67083,0.995836 3.67083,-0.458779 0,-0.74013 -0.760408,-0.917708 -1.49129,-0.917708l0 -0.229464c0.827204,-0.068884 1.83542,-0.771739 1.83542,-1.60595l0 -0.344122 0.458928 0c0.309829,0 0.31624,-0.0548686 0.573437,-0.114807l0 -0.573586c-0.136873,-0.0362312 -0.30968,-0.114508 -0.344569,-0.0108843l-1.94963 -0.103773c-0.977497,-0.00477119 -1.95007,0.731781 -1.95007,1.72076z"/>
   <path id="_556903056" class="fil0" d="M36.1347 29.0543c0,0.257048 0.0908016,0.251829 0.252575,0.464594l-0.999713 3.95695 -0.486661 0.548985 0.0866268 0.0767863 1.83542 0c-0.0174446,-0.782027 -0.229464,-0.357839 -0.229464,-0.80305l0 -0.114658c0,-0.614439 0.439695,-2.409 1.03251,-2.409 0.262713,0 0.133295,0.038915 0.441633,0.120472l0.131804 0.223649c-0.196513,0.844053 -0.802901,2.89566 -0.802901,3.67083 0,0.675719 0.621298,1.03251 1.26183,1.03251 0.441931,0 1.37649,-0.361119 1.37649,-0.80305l0 -0.114658c0,-0.268528 -0.190251,-0.458928 -0.458779,-0.458928 -0.469067,0 -0.314004,0.611159 -1.03251,0.80305 -0.565833,-1.17953 1.59209,-4.93266 0.114807,-4.93266l-1.37664 0c0.0138663,-0.617421 0.229464,-0.936494 0.229464,-1.6061 0,-0.187716 -0.0685858,-0.344122 -0.229464,-0.344122 -0.392132,0 -1.14702,0.434178 -1.14702,0.688393z"/>
   <path id="_556903368" class="fil0" d="M40.6085 40.1814l0 0.344122c0,0.371705 0.498589,0.688244 0.917708,0.688244 0.644557,0 1.14717,-0.502615 1.14717,-1.14717 0,-0.382589 -0.561062,-0.688244 -0.917708,-0.688244 -0.509921,0 -1.14717,0.326528 -1.14717,0.80305z"/>
   <path id="_556903416" class="fil0" d="M24.2045 39.1489c0,0.958114 0.850762,-0.362312 1.08589,0.747138 0.122858,0.580146 0.175937,1.36516 0.175937,2.00613l0 4.93266c0,2.60939 -0.932767,1.95022 -1.14717,2.75312 0.754444,0.201434 0.737148,0.714336 1.80351,0.197557 0.574481,-0.278518 0.856875,-0.982417 1.05279,-1.58582 0.218431,-0.672588 0.470409,-3.78951 0.470409,-4.69157 0.484723,0.112868 0.829888,0.344122 1.37649,0.344122l0.688393 0c0.80305,0 1.26183,-0.661704 1.26183,-1.49129l0.0001491 -0.458183 -1.6061 0.228719 -1.14717 0c-0.309829,0 -0.316389,-0.0547195 -0.590136,-0.115701l0.131208 -2.63742c0.358883,0.029969 0.407489,0.114807 0.80305,0.114807l1.26183 0c1.00612,0 1.72076,-0.7121 1.72076,-1.72076 -1.8041,0 -7.34166,-0.0888633 -7.34166,1.37649z"/>
   <path id="_556903104" class="fil0" d="M33.6109 46.8349c0,-1.16491 0.576866,-3.67083 1.49129,-3.67083 0.257197,0 0.251829,0.0906525 0.458928,0.229315l-0.386913 3.43615c0.000298199,0.350533 0.204266,1.09066 0.272107,1.38185l-1.00508 0.724624c-0.459376,-0.411813 -0.830335,-0.71031 -0.830335,-1.52767l0 -0.573437zm14.7981 2.06473c-0.540784,0 -0.688393,-1.82751 -0.688393,-2.52366l-0.00357839 -5.18941 1.83914 -0.202179c0.0641128,-0.0922926 0.229315,-0.28314 0.229315,-0.344122 0,-0.476224 -1.09722,-0.458779 -1.60595,-0.458779l-0.362461 0.0010437 -0.0964674 -2.18058c-0.210081,-0.10094 -0.856577,-0.344122 -1.14702,-0.344122 -0.309829,0 -0.31624,0.0547195 -0.566429,0.115403l-0.236621 2.52291c-0.452666,0.0377222 -1.03237,0.229912 -1.03237,0.688244 0,0.264354 0.0797683,0.344271 0.344122,0.344271l0.573586 0 0 3.32656c0,1.20905 -1.58284,4.35922 -3.09725,4.35922 -0.0957219,-0.41062 -0.229464,-0.538995 -0.229464,-1.03251l-0.0520357 -1.61147 0.396158 -3.66531c-0.203372,-0.303716 -0.408086,-0.573586 -0.917708,-0.573586l-0.344122 0c-0.395561,0 -0.444168,0.0848377 -0.80305,0.114807 -0.0295217,1.32982 -0.3146,3.73599 -0.733868,4.77223 -0.50664,1.25199 -2.59284,3.20072 -2.59284,0.963332 0,-1.0923 0.847184,-5.50625 -0.229315,-5.50625l-0.458928 0c-0.54317,0 -0.733421,0.229464 -1.03237,0.229464 -0.230806,0 -0.966463,-0.344122 -1.26183,-0.344122 -1.63592,0 -2.86793,2.06324 -2.86793,3.78549 0,1.6058 0.631288,3.78564 2.06488,3.78564l0.573586 0c0.786202,0 1.20338,-0.800814 1.72076,-1.14717 0.483828,0.323993 0.84942,1.03237 1.60595,1.03237l0.573586 0c0.822135,0 2.00241,-1.08515 2.06473,-1.83542l0.229464 0c0.0787246,0.945291 0.908762,1.83542 1.95022,1.83542l0.688244 0c1.59015,0 2.1275,-2.19683 2.75312,-3.09725 0.114061,1.37052 0.60609,3.09725 2.06473,3.09725l0.688393 0c1.31401,0 2.06637,-2.53275 2.52366,-2.86778 0,2.02939 -0.299243,2.86778 1.83542,2.86778l0 -3.67083c0,-1.54855 0.58119,-2.78443 1.60357,-3.3203l0.405998 0.113017 -0.288806 4.2398 0 0.802901c0,0.992556 0.723729,1.83542 1.72061,1.83542 2.15538,0 3.78564,-3.8092 3.78564,-5.85037 -0.864777,0.230955 -1.71375,4.818 -3.09725,4.818l-0.229464 0c-0.264354,0 -0.344122,-0.0797683 -0.344122,-0.344122l-0.035933 -1.03729 0.380055 -3.20713c0.120025,-0.88923 -0.515885,-2.17954 -1.37664,-2.17954l-0.344122 0c-1.10155,0 -1.43896,0.728053 -2.06488,1.14717 0,-1.16924 0.409129,-6.07983 -0.573586,-6.07983 -1.3905,0 -1.37649,4.74703 -1.37649,6.42395 0,2.17566 0.0998967,1.74596 -0.648881,3.25141 -0.284631,0.572393 -1.20159,2.14003 -1.87478,2.14003z"/>
   <path id="_556902888" class="fil0" d="M34.7615 53.3797l-0.00342929 0.223202 0 0.458779c0.699426,0 0.679894,-0.00939327 0.956026,-0.497098l-0.500527 -0.426872 -0.45207 0.241989z"/>
   <path id="_556902960" class="fil0" d="M33.7218 55.5403l0.118534 1.15985c0.131804,0.957816 -0.753847,1.36024 -0.802901,1.95007 0.358734,0.0298199 0.407489,0.114807 0.802901,0.114807l0.114807 0c0.415839,0 0.640234,-0.0963183 0.917559,-0.229464 -0.073357,-0.315047 -0.229315,-0.466234 -0.229315,-0.688244 0,-0.782027 0.458779,-1.21054 0.458779,-2.17969l-0.0216194 -0.53154 -1.35874 0.404209z"/>
   <path id="_556902840" class="fil0" d="M42.6733 55.4384c0.0736552,0.307592 0.114658,0.216194 0.114658,0.458779 0,0.663195 -0.491581,1.9046 -0.444317,2.27705 0.0824521,0.649478 1.5159,1.03997 1.59149,0.131953 -0.323844,-0.026987 -0.458779,0.00268379 -0.458779,-0.344122 0,-0.906973 0.390939,-1.36471 0.456543,-2.1937l0.805287 -0.100642c-0.0141645,-0.634568 -0.0562105,-0.414497 -0.573586,-0.688244 0.059938,-0.257197 0.114658,-0.263757 0.114658,-0.573586 0,-0.892659 -1.51068,0.890274 -1.60595,1.03251z"/>
   <path id="_556902864" class="fil0" d="M50.7032 56.0118c0,-0.325932 0.0175937,-0.458779 0.344122,-0.458779 0.187865,0 0.344122,0.0687349 0.344122,0.229464 0,0.160729 -0.156256,0.229315 -0.344122,0.229315l-0.344122 0zm-0.458779 2.75327l0.114658 0c0.820644,0 1.77175,-0.611905 1.83542,-1.37664 -0.936793,0.0208739 -0.766819,0.80305 -1.49129,0.80305 -0.268081,0 -0.573586,-0.149249 -0.573586,-0.458928l0 -0.458779c0,-0.352322 0.106308,-0.688393 0.458928,-0.688393l1.84943 0.00238559 0.0556141 -0.868058 -0.595653 0.428214 0.0442826 0.116298 -0.237516 -0.30133 0.402718 -0.185927 -0.14239 -0.682727 -1.14702 0c-1.67812,0 -2.68856,3.67083 -0.573586,3.67083z"/>
   <path id="_556902744" class="fil0" d="M45.5411 53.7176c0.394667,0.745796 -0.0235577,1.58612 -0.252276,2.50085 -0.0969147,0.387212 -0.216194,0.864777 -0.319073,1.28688 -0.253618,1.04027 -0.514095,0.40406 -0.575673,1.14494l1.81812 -0.00566578 0.131953 -0.223798c-0.158195,-0.236323 -0.344122,-0.297752 -0.344122,-0.573437l0 -0.114807c0,-0.595653 0.427319,-2.2942 1.03237,-2.2942l0.114807 0c0.358734,0 0.324888,0.205907 0.458779,0.458779 -0.124349,0.259433 -0.80305,2.95933 -0.80305,3.32671 0,0.567026 0.465489,1.03237 1.03251,1.03237l0.344122 0c0.499185,0 1.26183,-0.219773 1.26183,-0.688244l0 -0.229464c0,-0.264204 -0.0797683,-0.344122 -0.344122,-0.344122l-0.114658 0c-0.375582,0 -0.498142,0.521998 -0.900561,0.751462l-0.246611 -0.0632182c0,-1.71524 0.80305,-2.87166 0.80305,-4.12961 0,-0.382888 -0.366785,-0.753698 -0.806927,-0.71374l-1.02864 0.140154c0,-0.462954 0.219475,-1.67126 0.0229613,-1.86762 -0.32623,-0.32623 -1.12108,0.361566 -1.28479,0.605792z"/>
   <path id="_556902576" class="fil0" d="M35.7906 55.3235c0.0562105,0.675719 0.229315,0.239305 0.229315,0.688244l0 0.229464c0,1.36217 -0.759215,1.88402 -0.802901,2.409l1.83542 0c-0.0421952,-0.505895 -0.229464,-0.501869 -0.229464,-0.802901 0,-0.659616 0.445957,-2.409 1.03237,-2.409 0.194277,0 0.428661,0.152678 0.573586,0.229315 -0.0957219,1.15075 -0.802901,2.39215 -0.802901,3.55617l0 0.458779c0,0.494265 0.736701,0.80305 1.26183,0.80305 0.604301,0 1.37649,-0.307443 1.37649,-0.917708 0,-0.139557 -0.237217,-0.344122 -0.458779,-0.344122l-0.114807 0c-0.509324,0 -0.548537,0.688244 -0.802901,0.688244 -0.264354,0 -0.344271,-0.0797683 -0.344271,-0.344122 0,-1.22247 0.917708,-2.79442 0.917708,-3.78549 0,-0.371109 -0.273598,-0.93068 -0.571946,-0.882819l-1.83691 -0.0348893c-0.239007,0.0102879 -0.913384,0.377669 -1.26183,0.458779z"/>
   <path id="_556902528" class="fil0" d="M52.0799 74.8249c-1.9878,-1.05175 0.654696,-3.70542 1.49129,-3.9003 -0.13747,1.65053 -0.315942,3.2784 -1.49129,3.9003zm-10.783 -10.783c0.857323,0 0.312065,2.02283 -1.10528,2.24126 -0.940371,0.144925 0.297603,-2.24126 0.990468,-2.24126l0.114807 0zm-10.4391 0.114658c-0.467725,-0.108992 -0.796192,-0.348297 -0.917708,-0.80305 0.740428,0 0.901456,0.0697786 0.917708,0.80305zm-0.458779 -3.9003c0.632033,0 0.688244,0.288209 0.688244,0.917708 -0.776958,0 -1.01537,-0.154765 -1.03237,-0.917708l0.344122 0zm1.26183 0.573586c0,-1.03743 -0.734017,-1.26183 -1.83542,-1.26183l-0.37424 -0.905929 -0.39899 0.324441 0.243927 0.913831c-1.06084,0.283289 -1.30611,1.55854 -1.30611,2.87971 -0.792912,1.184 -1.83318,1.15284 -1.50397,3.5684 0.199943,1.46639 0.851209,2.85555 2.42168,2.85555l0.458928 0c2.30821,0 2.64219,-1.7394 3.55602,-2.409 -0.122709,0.57955 -0.540486,3.2119 0.458928,3.2119l0.688244 0c0.449982,-1.93129 -0.328765,-3.82962 1.14717,-4.818 0,1.96767 -0.531391,4.58869 1.37649,4.58869 0.632331,0 1.46147,-1.17982 1.60595,-1.72076 0.560614,0.375284 0.602511,1.03237 1.83542,1.03237l0.573586 0c1.51694,0 1.85003,-1.22709 2.52366,-1.72061 0,1.87463 -0.423145,2.409 1.49129,2.409l0 -1.49144c0,-1.0176 0.358734,-2.96798 1.03251,-3.2119l0 0.344122 0.136426 3.44032c0.181603,0.30476 0.386317,0.57463 0.895939,0.57463l0.458928 0 -0.141943 -2.17745 0.0271361 -0.460867c0,-0.8445 0.127927,-1.76996 0.80305,-1.95022 0.0290744,1.30417 -0.0268379,4.818 1.49129,4.818l0.229464 0c0.744454,0 1.34801,-0.761601 1.49114,-1.37664 0.538249,0.143732 0.6872,1.02834 1.49129,0.917857l1.14419 -0.135979 0.00298199 0.480101c0,1.0191 -2.86778,2.11438 -2.86778,4.24442 0,1.04325 0.932171,1.95007 1.95007,1.95007 1.94262,0 2.2596,-3.29928 2.29091,-5.39726 0.0301181,-2.00941 2.64175,-2.51292 2.64175,-4.69753l0 -0.114658c0,-0.346955 -0.134935,-0.317284 -0.458779,-0.344271 -0.239305,1.02685 -1.24573,3.10798 -2.06488,3.32671l0.515437 -3.66308 -0.0566578 -0.122411c0,-0.350235 -0.216045,-0.917708 -0.573586,-0.917708l-1.03237 0c-0.121814,0.522594 -0.233788,2.1111 -0.229912,2.75268 0.00700768,1.15239 0.176087,1.83586 -1.03192,1.83586 -0.275685,0 -0.344122,-0.810505 -0.344122,-1.14717l0 -0.344122 0.134786 -2.75193c-0.151038,-0.196811 -0.269721,-0.459972 -0.593714,-0.459972l-0.917708 0c0,2.00107 0.167439,4.35863 -1.03237,5.16198 -1.8302,-0.968402 0.994643,-7.32854 -3.09725,-4.58854l-0.635313 -0.741174c-0.471602,0.253767 -0.715082,0.215598 -1.08291,0.514394 -0.257197,0.209038 -0.406744,0.495458 -0.690778,0.685709 0,-1.18355 -0.576419,-1.47146 -1.49129,-1.03237l0.271958 1.36948 -0.0424934 0.351129c0,1.08023 -0.99181,2.86778 -1.95007,2.86778l-0.114807 0c-0.93724,0 -1.37649,-0.55301 -1.37649,-1.49114 1.17356,-0.0976602 2.409,-1.01611 2.409,-2.17954 0,-0.548537 -0.404954,-1.14717 -1.03251,-1.14717l-0.802901 0c-1.90042,0 -2.29434,2.46894 -2.29434,3.78549 0,0.360374 -0.804392,1.6732 -1.37649,1.72076 -0.306251,-1.31401 0.686156,-5.04747 -0.688393,-5.04747l-0.573586 0c-0.448939,0 -0.770248,0.870592 -1.37649,1.03251 -0.0156555,-0.701663 -0.209932,-1.03251 -0.917708,-1.03251 -0.242585,0 -0.151187,0.0411515 -0.458779,0.114807 0.0298199,0.358734 0.114658,0.407489 0.114658,0.802901l0 0.573586c0,1.1175 -1.6067,3.09725 -2.86793,3.09725 -0.759215,0 -1.49114,-1.08559 -1.49114,-1.95007l0 -0.80305c0,-0.403016 0.3064,-1.37649 0.573437,-1.37649 0.400631,0 2.52575,1.1515 2.4758,-0.310873 -0.0746989,-2.18162 -1.90221,-1.09007 -1.90221,-1.86866l0 -0.573586c0,-0.350086 0.110185,-0.462954 0.229464,-0.688244 0.20367,0.136426 0.656485,0.573586 0.917708,0.573586l0.458928 0c0.268379,0 0.458779,-0.1904 0.458779,-0.458928l0 -0.229464z"/>
   <path id="_556902480" class="fil0" d="M17.8952 65.1889c0,-0.66573 0.294919,-1.01432 0.344122,-1.60595l0.229464 0 0 2.17954c-0.399289,-0.0331001 -0.573586,-0.179367 -0.573586,-0.573586zm0.229464 -7.45632c0,-0.307443 0.163264,-0.441037 0.344122,-0.573586l0 1.49129c-0.2733,-0.200092 -0.344122,-0.441335 -0.344122,-0.917708zm-1.03251 -1.60595c-1.25467,0 -1.02461,-3.18671 -0.537206,-4.20804 0.1573,-0.329659 1.90728,-3.8171 1.91384,-3.82187l0 4.58854c-0.256899,-0.172061 -0.403016,-0.458928 -0.688244,-0.458928l-0.114807 0c-0.449833,0 -0.573586,0.567473 -0.573586,1.03251l0 0.229315c0,0.578059 0.774125,0.274641 0.869996,1.41063 0.0432389,0.51335 -0.289999,1.22783 -0.869996,1.22783zm-6.99739 -18.6983c0,-1.93889 0.906973,-4.93266 2.75312,-4.93266 2.81097,0 5.16198,7.418 5.16198,10.8977l0 0.573586c0,1.92756 -0.806032,5.96518 -2.2942,5.96518l-0.458779 0c-0.893703,0 -1.49129,-2.27481 -1.49129,-3.32671 0,-1.04817 0.498291,-3.21205 1.37649,-3.21205l0.114807 0c0.370811,0 0.573437,0.416435 0.573437,0.80305l0 0.229464c0,0.466831 -0.181156,0.616974 -0.458779,0.802901l-0.682727 -0.142241 -0.145819 1.05622 0.025496 0.806778c0,0.516928 0.458034,1.72076 0.80305,1.72076 1.13152,0 1.72061,-2.68841 1.72061,-4.0151 0,-1.46803 -0.47354,-4.12961 -1.83527,-4.12961l-0.458928 0c-0.309829,0 -0.31624,0.0547195 -0.573586,0.114658l0 -2.98244c0,-1.16849 -0.531242,-3.32671 -1.60595,-3.32671l-0.114807 0c-1.17386,0 -1.72061,2.49831 -1.72061,3.78549l0 0.114807c0,0.665282 0.346806,2.06473 0.917708,2.06473 0.845991,0 0.458779,-1.55526 0.458779,-2.2942 0,-0.26823 0.149249,-0.573586 0.458928,-0.573586 0.268528,0 0.458779,0.190251 0.458779,0.458779l0 1.26183c0,0.955579 -0.440291,2.29434 -1.37649,2.29434l-0.114658 0c-1.05413,0 -1.49129,-1.63756 -1.49129,-2.75312l0 -1.26183zm-7.11235 -5.73571c0,-0.551967 0.314749,-1.26183 0.80305,-1.26183 0.242585,0 0.151187,0.0410024 0.458779,0.114658l0 0.573586c0,0.480399 -0.540039,1.1336 -1.14702,1.14717 -0.059938,-0.257346 -0.114807,-0.263757 -0.114807,-0.573586zm2.98259 -0.917708c0,-0.264354 0.0797683,-0.344122 0.344122,-0.344122l0.458928 0c0.306698,0 0.339202,0.16565 0.458779,0.344122l-0.468173 1.14285c-0.512903,-0.0390641 -0.793657,-0.494712 -0.793657,-1.02804l0 -0.114807zm9.06242 -0.344122c1.02223,0 2.07114,0.0523339 3.08278,-0.0342929 0.597442,-0.0511412 0.358584,1.55705 0.358584,2.44329 0,1.98839 0,3.97678 0,5.96503 -0.0818557,-0.11764 -1.11526,-3.74195 -1.41317,-4.4372 -0.758619,-1.77056 -1.59045,-2.33177 -2.25767,-3.5927l0.229464 -0.344122zm-6.3093 0.344122c0,-0.264354 0.0797683,-0.344122 0.344122,-0.344122l1.83542 0c0.257197,0 0.251829,0.0908016 0.458928,0.229464 -0.616079,0.919795 -1.13733,1.3085 -1.59253,2.53723 -0.319968,0.863585 -0.720896,2.18088 -0.931276,3.08368l-0.573437 0c-0.682727,0 -1.03251,-1.30909 -1.03251,-2.06488 0,-0.691673 0.268677,-1.3249 0.688393,-1.60595l0.484275 0.433432 0.177279 1.74998c0.331896,-0.443124 0.485468,-1.23961 0.485468,-1.95395 0,-0.826608 -0.344122,-1.44015 -0.344122,-2.06488zm7.11816 32.1135c0.283289,1.35278 0.832572,1.03818 1.37067,1.84168 0,1.06845 0.0736552,2.71138 0.802901,3.09725l0.434178 -0.269125 0.0247505 4.97232 0.809014 0.209932 -0.126586 -43.2274 -6.99098 -0.142837 -9.6366 0.0281798 -2.409 0.114658c0.138812,1.08261 0.892957,0.917708 2.06488,0.917708l0.206503 0.252426 -0.118534 1.69526 0.0266888 0.117192c0,2.15494 1.33086,1.64159 1.47534,2.42496 0.369916,2.00584 0.111974,1.18922 1.73671,2.04878 -0.177876,-0.666028 -0.80305,-0.927101 -0.80305,-1.95007l0 -0.229464c0,-0.350235 0.216194,-0.917708 0.573586,-0.917708l0.229464 0c1.17759,0 0.659766,4.818 2.52366,4.818l0.344122 0c0.395412,0 0.444168,-0.0848377 0.80305,-0.114658l0 0.573437c0,1.67469 0.868058,5.54382 2.17954,5.39159l1.37395 -0.136873 0.00253469 0.595802c0,1.79248 -0.162071,2.89909 0.386466,4.54619 0.222606,0.668115 0.455499,1.34473 0.762048,1.87627 0.51991,0.901456 0.610861,0.612054 1.48995,1.03386l-0.141197 1.48846 0.0265397 1.37932c0,1.67126 0.603108,2.40915 1.4069,3.29629 0.427319,0.471602 0.676316,0.814382 0.826012,1.58866 0.107501,0.555694 -0.0791719,1.53901 -0.626964,1.53901 -0.417777,0 -0.483828,-0.991363 -0.573586,-1.37649 -0.429705,0.618316 -0.639935,1.62414 -0.452964,2.5174z"/>
   <path id="_556902120" class="fil0" d="M27.187 25.4981c1.70943,0 3.47298,-0.234235 4.98171,-0.524532 1.70242,-0.327721 2.78831,-1.00985 4.08071,-1.31088 -0.480101,-0.655293 -6.62882,-0.229464 -8.14456,-0.229464 -2.67186,0 -5.5301,0.114658 -8.37418,0.114658l-18.1247 0 0 -1.03237c0,-0.449982 -0.0238559,-1.14702 -0.458928,-1.14702 -0.398841,0 -1.14702,2.49265 -1.14702,3.2119l0 1.26183c0,1.11079 0.456692,2.4339 0.917708,3.09725 0.18712,-2.24872 1.14464,-2.11617 3.18477,-2.43614 1.66485,-0.261073 3.37383,-0.227973 5.18121,-0.439844 3.00391,-0.352173 7.45304,-0.610861 10.5618,-0.680043 0.600126,2.57599 0.57627,9.4963 0.573437,12.7331 -0.00387659,4.43556 0.001491,8.87128 0,13.3068 -0.000596398,2.05951 0.114807,4.30227 0.114807,6.53861 0,1.23052 0.116596,2.07025 0.114658,3.2119 -0.00238559,1.37425 0.248847,1.82095 0.431345,2.89536 0.363057,2.13779 0.474733,3.74016 1.04534,5.60808 0.270019,0.88431 0.491432,1.6635 0.748927,2.57778 0.256899,0.911297 0.696891,1.80023 0.871636,2.45507 0.232297,-0.170123 0.344122,-0.263459 0.344122,-0.688393l0 -2.2942c0,-2.68812 -0.232148,-5.16436 -0.339798,-7.91957 -0.0717169,-1.84019 -0.385721,-6.26427 -0.0946782,-8.11594 0.296112,-1.88343 0.0903543,-5.92552 0.0903543,-8.16902 0,-2.61565 0,-5.79118 0,-8.02991l0 -0.573586 -0.0951255 -8.25967 -0.019532 -5.16183 3.55602 0z"/>
  </g>
 </g>
</svg>
