<?xml version="1.0" encoding="UTF-8"?>
<!DOCTYPE svg PUBLIC "-//W3C//DTD SVG 1.1//EN" "http://www.w3.org/Graphics/SVG/1.1/DTD/svg11.dtd">
<!-- Creator: FutureCorp VMX -->
<svg xmlns="http://www.w3.org/2000/svg" xml:space="preserve" shape-rendering="geometricPrecision" text-rendering="geometricPrecision" image-rendering="optimizeQuality" fill-rule="evenodd" clip-rule="evenodd"
 xmlns:xlink="http://www.w3.org/1999/xlink">
 <g id="Layer_1">
  <metadata id="FutureCorpID_Layer"/>

  <path fill="#007FFF" d="M1950.56,118.2 C1951.44,118.29 1952.39,117.87 1953.45,116.93 C1954.16,116.3 1954.85,115.51 1955.89,114.14 C1952.84,113.9 1950.93,114.36 1950.33,115.48 C1950.16,115.8 1950.09,116.3 1950.13,116.84 C1950.17,117.39 1950.33,117.88 1950.56,118.2 L1950.56,118.2 zM1884.11,178.39 C1883.69,178.39 1883.47,178.48 1882.94,178.84 L1882.05,179.38 C1880.31,180.27 1878.39,179.86 1875.06,177.89 C1872.53,176.39 1869.9,174.6 1867.06,172.45 C1861.69,168.39 1857.37,164.22 1853.93,159.78 C1852.39,157.8 1850.82,156.14 1846.96,152.42 C1844.68,150.21 1843.7,149.24 1842.65,148.12 C1840.96,146.3 1837.54,144.99 1828.64,142.73 C1825.51,141.94 1824.34,141.62 1823.23,141.25 C1805.49,135.36 1796.1,131.76 1787.01,127.35 C1775.86,121.93 1765.35,115.09 1753.13,105.29 C1750.01,102.79 1748.21,99.99 1745.27,93.09 L1744.04,90.21 C1743.45,88.92 1742.73,87.7 1742.27,87.24 C1741.7,88.17 1741.3,91.32 1741.41,93.9 C1741.51,95.95 1741.81,97.64 1742.32,98.95 C1743.69,102.47 1745.48,105.22 1750.33,111.22 L1751.71,112.92 C1752.54,113.95 1753.5,114.8 1756.01,116.72 C1759.19,119.16 1760.34,120.27 1761.14,121.66 C1762.3,123.7 1761.95,125.71 1760.06,127.91 C1754.81,133.96 1755.63,136.87 1763.87,141.53 L1764.46,141.86 C1771.14,145.64 1773.55,148.18 1772.52,150.38 C1772.22,151.02 1771.86,151.46 1771,152.23 C1769.56,153.52 1769.52,154.29 1770.8,156.18 C1772.53,158.71 1778.32,162.63 1786.32,166.69 C1788.09,167.58 1789.89,168.37 1792.84,169.53 L1792.99,169.59 C1795.07,170.41 1795.88,170.92 1796.39,171.7 C1796.95,172.55 1796.95,173.56 1796.41,175.24 C1796.04,176.38 1795.64,177.39 1794.64,179.71 L1794.22,180.69 C1797.8,185.14 1799.23,186.13 1806.32,189.1 L1808.09,189.84 C1809.11,190.26 1810.03,190.61 1812.15,191.39 L1814.27,192.16 C1822.2,195.04 1824.72,197.79 1822.58,201.23 C1822.1,202 1821.99,202.61 1822.26,203.09 C1822.98,204.42 1825.8,205.14 1833.14,205.88 C1835.15,206.08 1835.84,206.16 1836.43,206.27 C1839.5,206.82 1843.41,207.84 1846.3,208.84 C1850.77,210.4 1853.34,212.02 1853.82,213.58 L1853.96,214.03 L1852.16,216.52 C1856.37,218.24 1862.61,218.12 1868.54,216.21 C1875.55,213.96 1880.87,209.69 1882.99,204.64 L1884.41,201.24 C1885.48,198.69 1885.71,195.46 1885.2,190.38 L1884.73,186.94 C1884.12,182.4 1883.97,180.41 1884.11,178.39 L1884.11,178.39 zM2009.59,391.85 C2009.54,391.45 2009.74,391.05 2010.13,390.79 C2010.45,390.58 2010.82,390.49 2011.2,390.52 C2011.55,390.56 2011.87,390.7 2012.1,390.91 C2012.11,390.93 2012.12,390.93 2012.13,390.94 C2012.14,390.96 2012.15,390.97 2012.17,390.98 L2012.21,391.03 C2012.27,391.09 2012.27,391.09 2012.31,391.14 L2012.34,391.2 C2012.55,391.49 2012.62,391.81 2012.55,392.12 C2012.47,392.45 2012.24,392.72 2011.88,392.91 C2011.38,393.17 2010.87,393.21 2010.44,393 C2009.98,392.79 2009.66,392.35 2009.59,391.85 L2009.59,391.85 zM1686.72,280.95 L1681.2,282.25 C1680.44,282.43 1680.63,282.38 1679.87,282.55 C1682.75,282.03 1684.61,281.61 1686.11,281.14 L1686.72,280.95 L1686.72,280.95 zM1918.54,131.26 C1917.21,129.57 1917.05,128.39 1917.88,126.41 C1918.61,124.67 1920.03,122.87 1921.65,121.67 C1923.66,120.18 1925.82,119.65 1927.89,120.16 L1928.87,120.4 C1930.57,120.82 1931.38,121.85 1931.22,123.41 C1931.04,125.07 1929.64,127.33 1928,128.6 C1927.17,129.24 1926.3,129.73 1925.29,130.14 C1924.58,130.42 1923.96,130.61 1922.47,131.01 C1921.35,131.32 1920.83,131.47 1920.23,131.67 L1919.15,132.03 L1918.54,131.26 L1918.54,131.26 zM1695.42,278.27 C1704.16,275.58 1709.17,273.9 1714.08,271.99 C1717.29,270.74 1720.46,269.15 1726.19,265.93 C1731.31,263.04 1736.36,260.06 1741.33,256.98 L1748.25,252.69 C1756.75,247.43 1760.48,245.18 1764.82,242.7 C1784.16,231.66 1805.29,226.61 1823.77,228.59 L1824.62,228.68 C1840.89,230.43 1848.09,230.97 1856.17,231.05 L1862.16,231.3 C1867.09,231.58 1869.25,231.61 1871.79,231.46 L1879.38,230.64 C1884.57,230.07 1887.06,230.23 1887.82,231.16 C1888.17,231.59 1888.32,232.07 1888.29,232.58 C1888.16,233.99 1886.5,235.16 1883.01,236.29 C1880.51,237.1 1877.62,237.78 1873.44,238.53 C1870.43,239.07 1867.41,239.53 1864.38,239.92 L1863.76,240 C1861.24,240.32 1860.08,240.43 1858.98,240.44 C1853.18,240.52 1848.2,240.27 1836.81,239.3 L1826.92,238.45 C1807.03,237.12 1793.1,240.24 1769.44,251.33 C1763.64,254.05 1758.69,256.84 1747.76,263.55 L1743.69,266.06 C1730.55,274.14 1724.42,277.43 1717.63,280.08 C1709.63,283.19 1700.04,286.28 1689.95,288.98 C1673.23,293.47 1662.61,294.49 1658,292.05 L1656.96,291.5 L1657.57,290.58 C1658.95,288.51 1661.51,286.89 1665.42,285.6 C1664.8,285.73 1664.17,285.86 1663.54,285.99 L1662,286.31 C1643.7,290.04 1633.79,292.94 1630.37,295.57 L1634.62,297.54 L1654.44,300.31 L1655.09,301.8 L1654.56,307.31 L1654.99,307.64 C1655.9,308.34 1656.37,308.57 1657.31,308.8 L1660.24,309.52 C1662.98,310.2 1665.63,310.26 1670.89,309.8 L1671.54,309.74 C1676.55,309.3 1678.78,309.39 1680.94,310.12 C1681.39,310.28 1681.82,310.46 1682.23,310.68 L1683.08,311.12 L1680.44,318.05 L1680.83,318.34 C1681.65,318.95 1682.03,319.15 1682.53,319.28 L1684,319.63 C1689.62,321.01 1695.28,320.68 1703.89,318.47 L1705.79,317.98 C1713.08,315.96 1716.45,315.7 1718.88,316.98 L1719.69,317.41 L1717.13,325.6 C1727.17,327.61 1737.21,325.45 1757.86,316.87 C1770.1,311.78 1774.11,310.66 1777.31,311.45 L1778.42,311.72 L1778.25,312.66 C1777.97,314.26 1777.6,315.56 1776.56,318.56 L1776.28,319.37 C1775.59,321.33 1775.46,322.32 1775.76,323.08 C1776.17,324.13 1777.66,324.93 1780.53,325.63 L1782,325.99 C1784.19,326.53 1789.83,324.77 1798.07,320.97 C1803.84,318.31 1810.94,314.56 1813.63,312.76 L1814.89,311.91 C1821.01,307.79 1823.78,306.04 1826.93,304.26 L1827.13,304.15 C1830.35,302.33 1832.13,301.91 1833.29,302.7 C1834.23,303.33 1834.29,304.42 1833.51,306.79 L1833.27,307.51 C1832.37,310.25 1832.07,311.45 1831.94,312.86 C1831.75,314.79 1832.06,316.33 1832.88,317.56 C1837.99,318.42 1844.43,313.75 1852.73,303.18 C1854.54,300.87 1856.03,298.83 1859.37,294.1 L1862.18,290.13 C1864.95,286.21 1866.7,284.44 1868.15,284.1 C1869.34,283.78 1870.38,284.09 1872.87,285.5 C1875.02,286.72 1876,287.1 1877.16,287.19 C1881.31,287.49 1885.85,282.51 1890.69,272.35 L1890.73,272.26 C1893.04,267.4 1894.96,265.43 1897.66,265.12 C1898.5,265.03 1899.15,265.06 1900.55,265.25 C1902.53,265.52 1903.5,265.48 1904.9,265.08 C1905.42,264.92 1905.92,264.72 1906.39,264.47 C1907.98,263.62 1909.17,262.48 1911.74,259.37 C1913.78,256.89 1914.73,255.91 1915.92,254.99 L1917.04,254.13 L1917.97,255.06 C1920.35,257.41 1920.59,259.43 1918.98,263.29 L1917.96,265.72 C1915.44,271.73 1912.67,274.16 1905.68,276.49 C1900.32,278.27 1898.15,279.67 1895.97,282.78 C1887.39,295.01 1878.17,302.17 1872.73,300.83 L1869.8,300.11 C1868.85,299.87 1867.93,299.58 1867.04,299.24 L1866.07,298.89 C1865.59,299.26 1864.31,300.96 1862.02,304.27 L1861.75,304.65 C1859.14,308.42 1856.39,311.9 1853.31,315.36 L1852.36,316.42 C1843.06,326.82 1837.21,330.15 1830.95,328.62 L1829.48,328.26 C1827.93,327.88 1826.67,327.17 1825.71,326.12 C1824.76,325.08 1824.13,323.74 1823.77,321.96 L1823.09,316.9 C1821.75,317.41 1819.46,318.67 1815.8,320.93 L1815.45,321.14 C1807.41,326.09 1803.81,328.12 1799.44,330.19 C1792.78,333.34 1786.93,335.1 1781.61,335.55 L1780.61,335.64 C1772.62,336.31 1768.82,335.9 1767.2,334.17 C1766.37,333.28 1766.07,332.23 1766.01,329.89 L1766,329.43 C1765.92,326.48 1765.83,325.22 1765.58,323.69 C1764.42,323.44 1761.4,324.46 1753.24,327.88 C1749.26,329.55 1747.96,330.06 1747.09,330.3 L1742.53,331.55 C1734.76,333.7 1731.37,334.55 1727.24,335.38 C1709.94,338.86 1701.42,336.75 1702.77,329.29 C1703,328.07 1703.01,327.05 1702.8,326.78 C1702.45,326.75 1701.28,327.06 1698.24,327.98 L1696.53,328.5 C1692.34,329.49 1688.61,329.91 1684.23,329.89 C1670.63,329.84 1665.43,326.09 1668.08,318.25 C1666.35,318.08 1664.34,318.1 1660.02,318.36 L1658.12,318.47 C1653.27,318.76 1650.45,318.64 1648.06,318.05 L1646.1,317.57 C1640.85,316.29 1638.58,314.45 1638.94,311.78 C1639.03,311.11 1639.2,310.57 1639.62,309.63 C1640.33,308.02 1639.95,307.75 1636.54,307.45 C1626.74,306.56 1620.12,304.16 1618.43,300.87 C1617.41,298.9 1617.29,296.99 1618.06,295.18 C1619.46,291.89 1623.7,289.06 1630.89,286.63 C1633.85,285.63 1636.86,284.78 1639.93,284.07 L1645.91,282.7 C1649.56,281.74 1652.76,280.95 1660.12,279.18 C1669.68,276.88 1673.81,275.84 1678.5,274.53 C1689.07,271.57 1699.07,267.64 1710.85,261.8 C1719.71,257.4 1727.18,252.99 1743.68,242.4 L1746.03,240.89 C1757.9,233.27 1763.12,230.04 1769.29,226.5 C1782.19,219.11 1790.98,216.17 1802.47,215.4 C1803.9,215.3 1805.25,215.28 1808.29,215.3 L1809.4,215.31 C1813.14,215.33 1816.87,215.38 1820.61,215.45 C1823.23,215.5 1825.86,215.57 1828.49,215.64 L1818.61,214.18 L1817.21,213.88 C1810.01,212.33 1806.92,211.12 1805.36,209.24 C1803.83,207.4 1803.6,204.82 1804.5,199.66 C1803.4,199.07 1800.93,198.12 1796,196.38 L1793.79,195.6 C1789.07,193.93 1786.97,193.05 1785.3,192.05 C1780.4,189.11 1778.49,186.12 1779.1,182.36 C1779.22,181.58 1779.42,180.89 1779.98,179.27 C1780.74,177.09 1780.96,176.15 1780.97,175.09 C1778.74,173.17 1776.15,171.78 1772.34,170.46 L1770.27,169.75 C1766.64,168.56 1765.13,167.94 1763.6,167.02 C1759.08,164.29 1757.43,159.8 1758.11,152.09 C1758.26,150.38 1756.91,148.94 1752.13,145.72 C1748.87,143.52 1747.71,142.57 1746.96,141.47 C1744.03,137.19 1744.1,134.5 1747.33,128.09 L1749.01,124.76 L1745.08,121.06 C1737.62,114.03 1735.4,110.9 1732.95,103.97 C1731.28,99.24 1730.58,93.11 1731.17,88.49 C1732.03,81.74 1735.43,77.75 1741.08,76.84 C1746.72,75.93 1749.98,79.14 1754.55,90.08 C1756.4,94.53 1757.21,96.08 1758.27,97.28 C1760.3,99.57 1763.23,101.85 1769.68,106.14 C1773.58,108.72 1777.53,111.25 1781.53,113.73 C1784.43,115.52 1788.15,117.2 1794.08,119.41 C1799.09,121.28 1804.65,123.1 1811.45,125.11 C1823.59,128.69 1834.19,131.37 1843.69,133.27 C1848.94,134.32 1853.48,137.98 1861.67,147.77 L1864.47,151.11 C1870.4,157.76 1880.06,166.72 1882.72,168.04 C1883.01,166.57 1882.99,163.99 1882.64,157.3 C1882.43,153.29 1882.39,151.96 1882.46,151.09 C1883.03,143.58 1884.72,136.19 1887.27,130.15 L1887.68,129.18 C1889.06,125.91 1891.12,122.94 1893.86,120.25 C1901.73,112.54 1916.17,106.26 1929.55,104.73 C1931.51,104.51 1933.69,104.6 1938.57,105.09 L1941.12,105.35 C1948.61,106.11 1952.17,105.54 1952.46,103.55 C1952.55,102.94 1952.51,102.18 1952.33,100.47 L1952.25,99.79 C1952.02,97.7 1951.85,95.61 1951.75,93.51 C1951.38,85.62 1952.97,81.83 1956.85,81.34 C1957.27,81.25 1957.68,81.23 1958.1,81.31 C1960.54,81.76 1961.51,85.25 1961.55,93.73 L1961.55,95.88 C1961.82,99.72 1963.2,104.91 1965.09,109.15 C1965.81,110.76 1966.82,111.76 1968.23,112.26 C1970.09,112.92 1972.63,112.82 1978.04,111.87 L1979.17,111.67 C1986.35,110.41 1990.44,110.32 1994.56,111.33 L1995.53,111.57 C1997.68,112.1 2000.31,113.13 2002.76,114.4 C2007.18,116.69 2009.36,119.01 2009.1,121.18 C2008.91,122.81 2007.37,124.19 2004.56,125.23 C2002.95,125.82 2000.5,126.16 1993.86,126.69 C1988.14,127.15 1986.12,127.41 1984.74,127.85 C1986.08,130.52 1987.83,132.05 1990.08,132.51 C1992.9,133.08 1995.73,132.45 2003.4,129.54 C2014.48,125.34 2019.77,124.48 2025.6,125.91 L2029.01,126.75 C2031.6,127.38 2033.59,128.93 2034.44,130.98 C2036.05,134.86 2033.23,138.87 2027.64,140.64 C2026.51,141 2025.17,141.28 2021.5,141.92 C2016.47,142.8 2014.48,143.26 2012.89,143.89 L2015.46,145.77 C2021.14,149.91 2021.14,149.91 2026.43,149.63 C2030.01,149.43 2032.33,149.37 2035.43,149.39 C2043.2,149.43 2047.61,151.21 2049.6,155.12 C2050.14,156.17 2050.91,157.05 2053.06,159.03 C2056.3,162.01 2057.17,163.37 2056.94,165.08 L2056.92,165.21 L2056.86,165.34 C2056.43,166.32 2055.74,167.17 2054.81,167.91 C2052.39,169.8 2048.38,170.67 2043.26,170.4 C2039.03,170.18 2034.5,169.19 2032.2,167.97 C2029.22,166.4 2027.03,164.51 2025.17,161.89 L2024.08,160.18 C2022.89,158.33 2022.32,157.56 2021.57,156.83 C2020.78,156.06 2019.85,155.48 2018.77,155.1 L2018.41,158.22 L2018.36,158.91 C2018.06,162.55 2017.86,164.13 2017.49,165.94 C2015.75,174.46 2010.78,178.75 2002.3,179.04 C2001.58,179.06 2000.91,178.95 2000.28,178.69 C1995.64,176.78 1996.5,164.64 2002.33,149.73 L1996.45,147.24 C1995.64,148.74 1995.26,150.18 1995,152.62 C1994.61,156.35 1994.22,157.89 1993.15,159.92 C1991.5,163.07 1988.49,166.26 1983.71,169.92 L1983.02,170.45 L1982.17,170.16 C1978.38,168.87 1975.33,165.89 1973.75,161.93 C1972.17,157.94 1972.25,153.41 1973.98,149.28 L1975,146.85 C1975.48,145.7 1976.03,144.78 1977.48,142.72 L1978,142 C1979.12,140.41 1979.5,139.56 1979.4,138.88 C1979.27,137.98 1977.92,137.14 1975.47,136.42 L1973.26,144.24 L1972.48,145.74 C1971.61,147.78 1969.36,150.49 1966.88,152.5 C1963.81,154.98 1960.8,156.13 1958.35,155.75 L1957.87,155.67 L1957.57,155.37 C1954.78,152.62 1953.68,145.97 1954.93,139.46 C1955.76,135.12 1956.85,132.61 1959.09,129.86 C1961.36,127.08 1962.24,125.74 1963.17,123.65 L1961.06,121.18 L1949.84,151.37 L1949.83,151.36 L1954.36,157.66 C1958.91,163.98 1963.46,170.32 1968.01,176.66 C1972.2,182.5 1976.37,188.36 1980.53,194.23 L1987.53,204.1 C1996.08,216.8 2000.25,225.1 2002.84,234.55 C2006.27,247.07 2007.2,265.98 2004.69,271.99 C2002.33,277.62 1997.2,284.98 1990.02,293.03 C1977.61,306.94 1966.44,314.32 1960.31,312.67 L1959,312.32 L1959.48,311.24 C1960.21,309.6 1962.91,307.03 1969.32,301.87 L1971.12,300.42 C1975.68,296.75 1977.64,294.95 1979.23,292.97 C1983.3,287.91 1986.16,283.58 1988.41,279.1 C1989.43,277.06 1990.24,275.27 1992.02,271.13 L1992.69,269.58 C1998.49,256.09 1996.95,243.5 1987.37,226.24 C1984.11,220.36 1980.08,214.59 1974.4,207.69 L1970.86,203.38 C1965.71,197.13 1963.52,194.37 1961.11,191.13 C1959.72,189.25 1958.33,187.55 1954.85,183.46 C1942.43,168.88 1938.77,161.88 1939.5,154.13 L1936.16,154.5 C1932.39,154.85 1930.53,154.55 1929.66,153.46 C1928.73,152.29 1929.37,150.75 1931.69,148.56 C1932.53,147.76 1933.49,147.05 1934.55,146.44 L1936.72,145.18 C1940.07,143.24 1941.32,142.28 1942.96,140.41 C1947.8,134.89 1949.16,130.95 1947.37,127.62 C1946.81,126.58 1946.15,125.77 1944.42,124 C1942.41,121.95 1941.68,120.99 1941.16,119.72 L1940.91,119.02 C1939.95,116.39 1939.44,115.25 1939.1,115.03 C1938.71,114.77 1936.86,114.68 1932.81,114.72 L1931.96,114.73 L1928.56,114.63 C1923.91,114.5 1922.25,114.68 1918.22,115.73 C1908.56,118.25 1901.89,124.05 1898.01,133.32 L1895.98,138.18 C1893.25,144.71 1892.51,151.33 1893.58,159.67 C1893.9,162.21 1894.28,164.41 1895.26,169.45 C1896.4,175.34 1896.82,177.92 1897.13,180.9 C1898.05,189.81 1897,197.49 1893.79,205.14 C1889.11,216.32 1879.59,223.11 1864.87,225.78 C1854.93,227.57 1844.01,227.57 1824.68,225.75 C1808.35,224.21 1798.49,224.6 1789.8,227.11 C1782.63,229.18 1777.58,231.82 1762,241.62 L1747.97,250.44 C1737.66,256.92 1733.11,259.64 1727.74,262.55 C1726.03,263.47 1724.63,264.34 1721.48,266.45 C1717.05,269.41 1715.03,270.59 1712.46,271.7 C1710.49,272.55 1708.75,273.21 1704.7,274.66 C1700.35,276.21 1698.47,276.94 1696.38,277.87 C1696.07,278 1695.75,278.14 1695.42,278.27 L1695.42,278.27 zM2014.32,395.78 L2013.14,396.41 L2011.92,393.81 L2014.94,391.49 L2015.29,392.72 L2019.91,395.25 C2028.83,400.14 2032.96,402 2037.18,403.04 L2039.14,403.52 C2047.2,405.49 2053.27,404.91 2055.65,401.93 C2057.15,400.06 2057.1,397.31 2055.5,394.32 C2053.7,390.95 2050.15,387.63 2045.4,384.91 L2044.59,384.44 L2044.9,383.66 C2045.53,382.06 2047.26,380.5 2051.6,377.58 L2052.75,376.81 C2056.87,374.04 2058.58,372.32 2058.69,370.83 C2058.83,369.02 2056.25,367.21 2051.02,365.46 C2047.51,364.29 2044.43,363.32 2037.34,361.17 C2028.27,358.41 2024.35,357.15 2019.89,355.57 C2011.26,352.5 2000.22,346.95 1992.52,341.79 C1981.07,334.12 1975.79,326.95 1977.11,320.89 C1976.87,320.65 1976.73,320.36 1976.68,320.02 C1976.62,319.63 1976.82,319.23 1977.21,318.97 C1977.39,318.85 1977.57,318.77 1977.76,318.73 L1977.86,318.43 L1978.41,318.72 C1978.72,318.78 1978.97,318.9 1979.17,319.08 L1979.24,319.16 C1979.25,319.16 1979.25,319.16 1979.25,319.16 L1979.51,319.3 C1980.92,320.05 1982.24,320.9 1983.46,321.84 C1986.32,324.07 1988.44,326.36 1992.88,332.01 C1995.76,335.67 1997.06,337.21 1998.67,338.86 C2005.63,346.04 2014.27,350.15 2026.29,352.02 C2034.74,353.33 2042.93,355.7 2058.37,361.33 C2066.86,364.42 2070.6,367.62 2069.92,371.24 C2069.53,373.35 2067.74,375.35 2063.87,378 L2062.68,378.77 C2059.7,380.72 2058.37,381.69 2057.64,382.5 C2058.48,383.39 2059.48,384.17 2061.87,385.8 L2063.17,386.7 C2066.45,389.03 2068.09,390.76 2068.85,392.71 C2070.03,395.69 2068.8,398.91 2065.17,402.38 C2062.41,405.02 2059.65,406.83 2056.6,407.99 C2055.03,408.59 2053.71,408.94 2050.59,409.59 L2049.32,409.86 C2046.23,410.5 2044.29,411.26 2042.35,412.59 C2042.47,413.51 2042.88,414.63 2044.02,417.17 L2044.74,418.79 C2047.13,424.97 2045.21,428.79 2038.59,430.98 C2036.29,431.75 2020.8,432.64 2014.61,432.36 C2014.26,433.57 2014.09,434.79 2013.89,437.47 L2013.81,438.48 C2013.41,443.93 2012.52,446.41 2010.33,448.14 C2007.89,450.06 2004.18,450.39 1999.05,449.14 L1992.71,447.58 C1989.71,446.84 1987.93,445.29 1987.43,442.98 L1987.11,441.54 L1986.79,441.73 C1986.48,442.05 1986.09,442.28 1985.63,442.42 L1983.18,443.87 L1982.69,442.94 L1982.58,442.96 C1981.51,443.51 1980.28,444.62 1978.83,446.32 C1975.89,449.8 1972.69,450.71 1967.69,449.48 L1962.81,448.28 C1959.99,447.59 1957.32,445.88 1954.29,442.83 C1953.56,442.1 1952.96,441.46 1951.59,439.94 L1949.21,437.32 C1947.92,435.99 1946.83,435.2 1946.35,435.24 C1946,435.28 1945.36,436.05 1944.86,437.07 C1942.17,442.49 1938.42,445.47 1933.98,445.69 C1929.47,445.91 1924.5,443.24 1920.19,438.29 C1912.89,429.9 1912.11,410.61 1918.06,385.64 C1920.4,375.84 1921.01,367.65 1920.03,359.16 C1919.59,355.34 1919.03,352.02 1917.54,344.4 C1916.65,339.85 1916.28,337.85 1915.9,335.58 C1915.33,332.22 1913.94,328.42 1909.53,318.19 C1905.77,309.48 1904.28,305.69 1903.05,301.72 C1901.23,295.86 1900.89,291.77 1901.99,289.12 L1902.46,288 L1903.82,288.37 C1906.84,289.18 1910.3,295.12 1914.53,306.75 L1914.73,307.29 C1916.59,312.41 1918.41,317.89 1920.83,325.64 L1922.9,332.29 C1924.93,338.79 1925.76,341.63 1926.57,344.93 C1927.7,349.49 1927.94,352.97 1927.39,356.84 L1927.01,359.51 C1926.46,363.29 1926.29,364.94 1926.22,366.94 C1926.07,371.63 1925.63,376.28 1924.58,384.27 C1923.05,396.02 1922.6,403 1922.89,410.23 C1923.22,418.22 1924.41,424.63 1926.62,430.24 C1927.81,433.28 1929.25,435.01 1930.57,434.98 C1932.3,434.95 1934.17,433.17 1938.08,427.84 C1939.63,425.73 1940.18,425.04 1940.71,424.57 L1941.02,424.28 L1941.47,424.2 C1942.68,423.96 1943.8,423.99 1944.83,424.29 C1946.7,424.83 1948.19,426.14 1950.94,429.65 L1952.2,431.26 C1955.64,435.24 1959.42,437.55 1964.62,438.82 C1965.82,439.12 1966.74,439.1 1967.3,438.77 C1969.43,437.54 1968.98,431.76 1965.96,421.61 L1964.72,417.45 C1963.73,414.11 1963.3,412.65 1962.85,410.97 L1962.82,410.85 C1961.78,407.05 1961.49,405.09 1961.74,403.65 L1962.45,399.59 L1984.38,440.3 C1984.43,440.3 1984.48,440.3 1984.53,440.3 L1991.22,436.34 L1988.53,439.63 L1991.08,439.19 L1987.43,441.35 L1989.14,441.62 C1997.77,442.97 2000.95,441.15 2002.11,434.18 C2002.82,429.94 2002.26,428.2 1998.98,424.46 C1997.61,422.89 1996.93,422.08 1996.15,421.03 L1993.81,417.88 C1983.63,404.17 1979.89,397.46 1980.41,393.79 L1980.63,392.22 L1982.4,392.83 C1983.8,393.3 1985.72,395.64 1990.94,403.19 C1995.28,409.48 1996.95,411.63 1998.39,412.81 C2006.57,419.52 2016.14,425.27 2021.84,426.89 C2026.03,428.08 2029.52,427.82 2031.62,426.16 C2033.05,425.03 2033.79,423.26 2033.71,421.13 C2033.62,418.74 2032.52,416.08 2030.52,413.45 C2030,412.76 2029.4,412.11 2027.99,410.68 L2027.36,410.05 C2025.57,408.24 2023.77,406.42 2021.98,404.61 L2021.36,403.99 C2017.46,400.04 2015.36,397.6 2014.32,395.78 L2014.32,395.78 z"/>
  <path fill="#231F20" d="M101.29,33.39 L100.59,40.07 L88.48,63.25 L92.44,33.39 L101.29,33.39 L101.29,33.39 zM179.28,62.86 L142.26,118.25 L173.69,196.82 L111.76,276.57 L108.04,262.43 L162.01,192.89 L130.81,114.19 L169.5,57.36 L179.28,62.86 L179.28,62.86 zM169.04,41.25 L120.84,112.75 L151.11,189.75 L96.86,259.68 L70.78,137.11 L56.81,242 L0,231 L45.87,23.18 L86.38,20.82 L74.98,104.89 L123.17,13.75 L169.04,41.25 L169.04,41.25 zM77.92,209.46 L70.09,271.07 L2.8,258.11 L5.36,245.08 L62.63,255.75 L72.41,183.46 L77.92,209.46 L77.92,209.46 z"/>
  <path fill="#231F20" d="M244.47,17.68 L229.11,242.39 L174.63,220.79 L206.99,12.57 L244.47,17.68 L244.47,17.68 zM259.61,32.21 L243.31,274.61 L177.42,249.07 L179.79,235.84 L236.02,257.65 L250.76,31.43 L259.61,32.21 L259.61,32.21 z"/>
  <path fill="#231F20" d="M415.64,23.18 L414.71,238.07 L367.45,261.25 L361.39,249.86 L405.4,228.64 L406.56,26.32 L415.64,23.18 L415.64,23.18 zM347.66,79.36 L344.67,98.35 L313.9,18.46 L317.39,0 L347.66,79.36 L347.66,79.36 zM399.35,16.5 L398.18,218.43 L347.85,242.78 L312.42,175.08 L301.09,234.93 L256.62,233.36 L302.25,11.79 L347.42,129.64 L363.02,29.46 L399.35,16.5 L399.35,16.5 zM322.55,213.45 L313.2,261.25 L260.58,260.07 L263.61,246.32 L306.68,247.5 L315.76,199.96 L322.55,213.45 L322.55,213.45 z"/>
  <path fill="#231F20" d="M571.14,114.32 C560.58,110.65 549.25,108.82 537.14,108.82 C510.75,108.82 497.56,120.21 497.56,143 C497.56,147.45 498.26,152.3 499.66,157.54 C492.52,155.44 488.95,149.02 488.95,138.28 C488.95,125.19 493.45,114.45 502.44,106.07 C511.44,97.69 522.84,93.5 536.64,93.5 C543.16,93.5 551.15,94.68 560.62,97.04 L555.77,32.61 C559.65,33.66 562.83,35.1 565.31,36.93 L571.14,114.32 L571.14,114.32 zM552.27,83.28 C546.69,81.45 541.26,80.54 535.98,80.54 C519.99,80.54 506.99,85.9 496.98,96.64 C486.97,107.38 481.96,121.39 481.96,138.68 C481.96,148.63 484.02,156.62 488.13,162.64 C492.24,168.67 497.72,171.68 504.54,171.68 L505.94,171.68 L512,142.21 L551.58,142.21 L539,256.53 L493.6,259.68 L496.86,242.39 C477.3,241.87 461.63,232.64 449.83,214.7 C438.03,196.75 432.14,173.25 432.14,144.18 C432.14,106.99 441.29,75.69 459.61,50.29 C477.93,24.88 500.51,12.18 527.36,12.18 C532.8,12.18 539.39,13.1 547.15,14.93 L552.27,83.28 L552.27,83.28 zM566.25,156.36 L552.27,282.07 L495.93,286 L498.73,271.86 L545.17,268.71 L557.63,156.36 L566.25,156.36 L566.25,156.36 zM487.32,253.39 L484.52,267.93 L483.36,267.53 C470.94,263.34 461.71,257.71 455.65,250.64 C449.6,243.57 445.41,233.09 443.08,219.21 C453.48,238.59 468.22,249.99 487.32,253.39 L487.32,253.39 z"/>
  <path fill="#231F20" d="M826.78,111.18 C826.78,159.37 815.86,198.93 794.01,229.85 C774.42,257.59 752.66,271.46 728.76,271.46 C706.41,271.46 692.59,259.94 687.32,236.89 C697.41,250.51 711.07,257.32 728.29,257.32 C752.66,257.32 773.7,242.92 791.39,214.11 C809.09,185.3 817.93,151.38 817.93,112.36 C817.93,77.26 810.87,49.76 796.75,29.86 C805.28,34.05 811.87,41.38 816.52,51.86 C823.36,67.31 826.78,87.08 826.78,111.18 L826.78,111.18 zM810.72,112.36 C810.72,148.24 802.41,179.27 785.8,205.46 C769.19,231.65 749.4,244.75 726.43,244.75 C709.05,244.75 694.69,235.58 683.36,217.25 C672.03,198.92 666.36,175.61 666.36,147.32 C666.36,127.15 669.08,107.97 674.51,89.77 C679.94,71.57 687.47,56.31 697.08,43.99 C713.23,23.31 731.48,12.96 751.81,12.96 C768.88,12.96 782.97,22.33 794.07,41.05 C805.17,59.78 810.72,83.55 810.72,112.36 L810.72,112.36 zM761.59,115.11 C761.59,105.94 759.76,98.41 756.12,92.52 C752.47,86.62 747.77,83.68 742.03,83.68 C734.74,83.68 728.53,87.93 723.41,96.45 C718.28,104.96 715.72,115.37 715.72,127.68 C715.72,137.63 717.47,145.68 720.96,151.84 C724.45,157.99 728.99,161.07 734.58,161.07 C741.57,161.07 747.81,156.36 753.32,146.93 C758.83,137.5 761.59,126.89 761.59,115.11 L761.59,115.11 zM754.14,113.93 C751.5,111.83 748.86,110.79 746.22,110.79 C741.88,110.79 738.35,113.21 735.63,118.05 C732.91,122.9 731.55,129.25 731.55,137.11 C731.55,139.2 731.79,143 732.25,148.5 C726.66,145.36 723.87,138.55 723.87,128.07 C723.87,119.69 725.66,112.49 729.23,106.46 C732.8,100.44 737.06,97.43 742.03,97.43 C749.64,97.43 753.67,102.93 754.14,113.93 L754.14,113.93 z"/>
  <path fill="#231F20" d="M974.63,29.07 L962.52,95.86 L911.57,103.71 L913.39,89.96 L955.38,83.68 L965.08,30.25 L974.63,29.07 L974.63,29.07 zM960.19,13.36 L949.72,71.89 L907.57,78.18 L902.68,116.68 L928.76,113.93 L922.71,162.64 L896.4,165.39 L886.39,242.39 L828.18,236.89 L861.71,85.25 L851.23,86.82 L864.03,27.89 L960.19,13.36 L960.19,13.36 zM944.59,125.32 L936.44,187.39 L910.13,190.14 L899.42,270.28 L829.81,263.61 L832.84,250.25 L892.05,256.14 L902.41,177.18 L928.92,174.43 L935.28,126.11 L944.59,125.32 L944.59,125.32 z"/>
  <path fill="#231F20" d="M1144.13,33.39 L1143.43,40.07 L1131.32,63.25 L1135.28,33.39 L1144.13,33.39 L1144.13,33.39 zM1222.13,62.86 L1185.11,118.25 L1216.53,196.82 L1154.6,276.57 L1150.88,262.43 L1204.86,192.89 L1173.66,114.19 L1212.35,57.36 L1222.13,62.86 L1222.13,62.86 zM1211.88,41.25 L1163.69,112.75 L1193.95,189.75 L1139.7,259.68 L1113.63,137.11 L1099.66,242 L1042.85,231 L1088.71,23.18 L1129.23,20.82 L1117.82,104.89 L1166.01,13.75 L1211.88,41.25 L1211.88,41.25 zM1120.77,209.46 L1112.93,271.07 L1045.64,258.11 L1048.2,245.08 L1105.48,255.75 L1115.26,183.46 L1120.77,209.46 L1120.77,209.46 z"/>
  <path fill="#231F20" d="M1287.32,17.68 L1271.95,242.39 L1217.47,220.79 L1249.83,12.57 L1287.32,17.68 L1287.32,17.68 zM1302.45,32.21 L1286.16,274.61 L1220.27,249.07 L1222.64,235.84 L1278.86,257.65 L1293.61,31.43 L1302.45,32.21 L1302.45,32.21 z"/>
  <path fill="#231F20" d="M1458.49,23.18 L1457.55,238.07 L1410.29,261.25 L1404.24,249.86 L1448.24,228.64 L1449.41,26.32 L1458.49,23.18 L1458.49,23.18 zM1390.5,79.36 L1387.51,98.35 L1356.74,18.46 L1360.24,0 L1390.5,79.36 L1390.5,79.36 zM1442.19,16.5 L1441.03,218.43 L1390.69,242.78 L1355.27,175.08 L1343.94,234.93 L1299.46,233.36 L1345.09,11.79 L1390.27,129.64 L1405.87,29.46 L1442.19,16.5 L1442.19,16.5 zM1365.39,213.45 L1356.04,261.25 L1303.42,260.07 L1306.45,246.32 L1349.52,247.5 L1358.61,199.96 L1365.39,213.45 L1365.39,213.45 z"/>
  <path fill="#231F20" d="M1613.98,114.32 C1603.42,110.65 1592.09,108.82 1579.99,108.82 C1553.6,108.82 1540.4,120.21 1540.41,143 C1540.41,147.45 1541.1,152.3 1542.5,157.54 C1535.36,155.44 1531.79,149.02 1531.79,138.28 C1531.79,125.19 1536.29,114.45 1545.29,106.07 C1554.28,97.69 1565.68,93.5 1579.48,93.5 C1586,93.5 1593.99,94.68 1603.47,97.04 L1598.61,32.61 C1602.5,33.66 1605.68,35.1 1608.16,36.93 L1613.98,114.32 L1613.98,114.32 zM1595.12,83.28 C1589.53,81.45 1584.1,80.54 1578.82,80.54 C1562.83,80.54 1549.83,85.9 1539.82,96.64 C1529.81,107.38 1524.8,121.39 1524.8,138.68 C1524.8,148.63 1526.86,156.62 1530.97,162.64 C1535.08,168.67 1540.55,171.68 1547.38,171.68 L1548.78,171.68 L1554.85,142.21 L1594.43,142.21 L1581.85,256.53 L1536.45,259.68 L1539.7,242.39 C1520.15,241.87 1504.47,232.64 1492.68,214.7 C1480.88,196.75 1474.98,173.25 1474.98,144.18 C1474.97,106.99 1484.13,75.69 1502.45,50.28 C1520.77,24.88 1543.35,12.18 1570.21,12.18 C1575.64,12.18 1582.24,13.1 1590,14.93 L1595.12,83.28 L1595.12,83.28 zM1609.09,156.36 L1595.12,282.07 L1538.78,286 L1541.56,271.86 L1588.02,268.71 L1600.48,156.36 L1609.09,156.36 L1609.09,156.36 zM1530.16,253.39 L1527.37,267.93 L1526.2,267.53 C1513.78,263.34 1504.55,257.71 1498.5,250.64 C1492.44,243.57 1488.25,233.09 1485.92,219.21 C1496.32,238.59 1511.07,249.99 1530.16,253.39 L1530.16,253.39 z"/>
  <path fill="#231F20" d="M1749.95,67.57 L1747.4,69.16 C1734.83,77.01 1726.44,82.7 1722.25,86.23 C1718.06,89.77 1715.96,93.5 1715.96,97.43 C1715.96,100.05 1717.34,103.98 1720.1,109.23 L1723.82,116.3 C1733.17,134.1 1737.84,151.38 1737.84,168.14 C1737.85,198 1729.27,223.08 1712.12,243.38 C1694.96,263.67 1673.82,273.82 1648.67,273.82 C1639.36,273.82 1629.81,271.86 1620.03,267.93 L1622.36,254.57 C1633.53,258.5 1642.92,260.46 1650.53,260.46 C1672.11,260.46 1690.67,251.43 1706.21,233.37 C1721.7,215.37 1729.46,193.89 1729.46,169.06 C1729.46,153.34 1725.52,138.27 1717.64,123.83 L1711.8,113.13 C1708.52,107.11 1706.88,101.62 1706.87,96.64 C1706.87,83.3 1715.65,72.54 1733.23,64.37 L1735.78,63.18 L1710.6,19.64 C1712.78,17.02 1715.57,14.67 1718.99,12.57 L1749.95,67.57 L1749.95,67.57 zM1723.18,59.32 C1707.03,70.32 1698.96,82.76 1698.96,96.64 C1698.96,106.07 1702.99,117.73 1711.05,131.61 C1718.05,143.66 1721.54,155.83 1721.54,168.14 C1721.54,189.62 1714.52,208.15 1700.47,223.73 C1686.43,239.31 1669.63,247.11 1650.07,247.11 C1638.58,247.11 1627.01,243.83 1615.38,237.28 L1629.11,169.32 C1633.77,172.46 1638.5,174.03 1643.31,174.03 C1648.59,174.03 1652.94,172.14 1656.35,168.34 C1659.77,164.54 1661.47,159.76 1661.47,154 C1661.47,149.81 1660.39,146.01 1658.21,142.61 C1657.59,141.82 1654.54,139.09 1649.06,134.42 C1639.49,126.26 1634.7,114.19 1634.7,98.21 C1634.7,77.26 1643.29,57.21 1660.47,38.06 C1669.37,28.14 1681.19,19.25 1695.94,11.39 L1723.18,59.32 L1723.18,59.32 z"/>
  <path fill="#231F20" d="M226.67,323.12 C223.95,328.22 217.47,330.77 207.22,330.77 L159.9,330.77 L144.92,355.63 L116.39,355.63 L131.38,330.77 L106.93,330.77 C80.14,350.15 53.98,359.84 28.45,359.84 C21.02,359.84 14.75,359.01 9.66,357.35 C3.22,355.25 -0,352.16 0,348.08 C0,344.6 2.4,341.21 7.19,337.89 C14.89,332.57 26.54,328.64 42.16,326.1 C54.37,324.11 67.85,323.11 82.62,323.12 L98.09,323.12 L146.36,288.35 L184.76,288.35 L164.2,323.12 L226.67,323.12 L226.67,323.12 zM152.43,296.28 L117.51,323.12 L135.29,323.12 L152.43,296.28 L152.43,296.28 zM87.32,330.77 C67.41,330.77 53.45,332.49 45.43,335.95 C38.79,338.8 35.47,341.85 35.47,345.07 C35.47,347.8 37.85,349.17 42.62,349.17 C49.21,349.18 57.46,346.96 67.36,342.51 C75.99,338.64 82.65,334.72 87.32,330.77 L87.32,330.77 z"/>
  <path fill="#231F20" d="M247.23,347.98 C245.9,350.78 242.84,352.86 238.07,354.21 C234.72,355.16 231.13,355.64 227.29,355.64 L196.62,355.63 C188.76,355.63 184.84,354.02 184.84,350.8 C184.84,349.95 185.13,349.01 185.71,347.98 L215.27,297.96 L243.47,297.96 L213.75,347.98 L247.23,347.98 L247.23,347.98 z"/>
  <path fill="#231F20" d="M308.25,347.98 C306.92,350.78 303.86,352.86 299.09,354.21 C295.74,355.16 292.15,355.64 288.31,355.64 L257.64,355.63 C249.79,355.63 245.86,354.02 245.86,350.8 C245.86,349.94 246.15,349.01 246.74,347.98 L276.29,297.96 L304.5,297.96 L274.77,347.98 L308.25,347.98 L308.25,347.98 z"/>
  <path fill="#231F20" d="M526.53,288.35 L515.77,300.39 L486.21,300.39 L461.89,341.42 C456.27,350.9 445.4,355.63 429.26,355.63 L373.49,355.63 C375.83,352.06 377.87,349.53 379.61,348.03 C382.71,345.38 386.32,344.06 390.46,344.06 C391.09,344.06 391.75,344.09 392.44,344.16 L429.64,347.7 L457.54,300.39 L411.48,300.39 C404.69,300.39 398.58,301.59 393.14,303.98 C387.21,306.6 384.24,309.88 384.24,313.83 C384.24,316.57 385.77,318.14 388.85,318.53 C390.39,315.3 393.29,312.8 397.56,311.03 C401.42,309.42 405.79,308.62 410.69,308.62 C416.91,308.62 421.93,309.82 425.75,312.22 C429.31,314.45 431.09,317.11 431.09,320.19 C431.08,323.48 428.99,326.21 424.82,328.39 C420.08,330.87 413.46,332.1 404.95,332.11 C395.65,332.11 387.68,330.57 381.04,327.47 C373.51,323.97 369.74,319.18 369.73,313.11 C369.73,306.58 374.11,300.97 382.89,296.27 C392.76,290.99 406.23,288.35 423.28,288.35 L526.53,288.35 L526.53,288.35 z"/>
  <path fill="#231F20" d="M599.82,347.98 C598.44,350.79 595.49,352.86 590.98,354.19 C587.73,355.16 584.27,355.63 580.54,355.63 L546.6,355.63 C540.6,355.63 537.6,354.33 537.6,351.72 C537.6,350.66 538.01,349.41 538.81,347.98 L544.54,337.79 L514.32,352.71 C510.62,354.66 506.68,355.63 502.55,355.63 L486.12,355.63 L520.22,297.86 L548.91,297.86 L524.93,338.51 L549.21,326.56 C555.49,323.46 562.62,321.92 570.59,321.92 C575.9,321.92 578.55,323.54 578.55,326.79 C578.55,327.98 578.07,329.34 577.12,330.85 L567,347.98 L599.82,347.98 L599.82,347.98 z"/>
  <path fill="#231F20" d="M699.98,347.98 C698.86,350.44 696.31,352.37 692.31,353.77 C688.78,355.01 684.7,355.63 680.13,355.63 L635.74,355.63 C609.93,355.63 597.03,350.97 597.02,341.63 C597.02,335.63 601.44,330.93 610.27,327.52 C617.85,324.59 626.88,323.12 637.35,323.12 L648.91,323.12 C655.66,323.12 661.58,323.74 666.66,324.98 C673.46,326.64 677.03,329.16 677.35,332.54 C677.6,335.96 674.86,338.8 669.14,341.04 L642.76,341.04 L651.38,330.77 L634.55,330.77 L628.02,342.3 C627.66,342.93 627.48,343.54 627.48,344.11 C627.48,346.69 630.93,347.98 637.81,347.98 L699.98,347.98 L699.98,347.98 z"/>
 </g>
</svg>

