<?xml version="1.0" encoding="UTF-8"?>
<!DOCTYPE svg PUBLIC "-//W3C//DTD SVG 1.1//EN" "http://www.w3.org/Graphics/SVG/1.1/DTD/svg11.dtd">
<!-- Creator: CorelDRAW -->
<svg xmlns="http://www.w3.org/2000/svg" xml:space="preserve" width="5548in" height="7180in" style="shape-rendering:geometricPrecision; text-rendering:geometricPrecision; image-rendering:optimizeQuality; fill-rule:evenodd; clip-rule:evenodd"
viewBox="0 0 37.6335 43.3777"
 xmlns:xlink="http://www.w3.org/1999/xlink">
 <defs>
  <style type="text/css">
   <![CDATA[
    .fil0 {fill:black}
   ]]>
  </style>
 </defs>
 <g id="Layer_x0020_1">
  <metadata id="CorelCorpID_0Corel-Layer"/>
  <path class="fil0" d="M11.649 3.92397c-0.259583,-0.716927 -1.50618,-0.868322 -2.09801,-0.748435 -1.06873,0.216376 -1.53735,0.584915 -2.26998,1.05763 -0.614887,0.396889 -1.16095,1.01331 -1.50934,1.71282 -0.173852,0.349156 -0.395181,0.806244 -0.488511,1.17444 -0.113226,0.446841 -0.00187856,1.10476 -0.182306,1.48082 0.150029,0.223976 0.167704,0.245152 0.325759,0.505674 0.178207,0.293995 0.401756,0.252496 0.401756,0.429678 0,0.0753986 -1.53043,3.04993 -1.65621,3.2289 -0.221926,0.315683 -2.04464,0.252496 -2.97316,1.70402 -0.60891,0.951918 -1.13474,2.2459 -1.19545,3.69052 -0.0936718,2.22789 1.66739,2.84107 1.66739,3.12165l0.00597724 1.35154 -0.00597724 1.87053c-0.55409,0.63743 -0.606775,0.183501 -1.14695,1.13977 -0.337628,0.597638 -0.516092,1.10049 -0.516092,1.87446l0 0.311841c0,1.56006 0.483729,2.3897 1.10809,3.36117 0.702923,1.09366 1.5347,1.41994 2.73757,1.41994l0.311841 0 -0.104687 0.0479033 1.5598 3.27817c-2.46262,2.83321 1.91938,7.12589 4.67574,6.4508 3.16845,-0.776101 0.625475,-6.76265 -3.80895,-6.77938l-1.6983 -3.6211c1.80453,-2.07607 -0.0134061,-6.99994 -2.07871,-7.17174 -0.0650665,-0.271537 -0.106566,-0.206983 -0.0707876,-0.415418l0.0707876 -2.70274 0 -0.623682c1.50191,-0.124924 3.01424,-2.97274 3.01424,-4.78111 0,-0.943379 -0.245921,-2.10245 -0.835788,-2.49678l1.87514 -3.73953c2.31797,0 3.77642,-1.25232 4.65857,-2.72101 0.426945,-0.710864 0.742202,-2.36237 1.01468,-2.51906 0.302534,-0.174023 2.36997,-0.908711 2.74577,-0.996235 0.341129,0.228416 0.328748,0.354536 0.637173,0.61002 0.296642,0.245579 0.451794,0.236699 0.796083,0.451196 0.463919,0.289042 1.38928,0.497818 1.89273,0.497818l0.7276 0c1.06642,0 3.13754,-0.647335 3.42991,-1.45512l0.0496965 -0.119886 3.17238 1.36716c0,2.43752 2.14702,5.09295 4.46935,5.09295l0.7276 0c0.182135,0.781993 1.55903,2.93576 1.55903,3.53391l0 0.103919c0,0.111347 -0.727515,1.25368 -0.727515,2.28672l0 0.623597c0,1.09375 0.708303,2.58089 1.18221,3.28705 0.987525,1.47108 1.72802,0.532828 1.72802,2.53349l-0.0259583 0.623597 0.0259583 0.519763 -0.0339849 0.313122 0.0339849 0.830153c-0.909308,0.608995 -1.29569,0.717354 -1.91417,1.72366 -0.457002,0.743568 -0.996064,1.58576 -0.996064,2.74569l0 0.935438c0,0.648872 0.623597,1.74791 0.623597,1.76696 0,0.407562 -1.50003,3.18544 -1.76696,3.74175 -2.48986,0 -5.50871,2.43615 -5.50871,4.78119 0,1.239 0.939878,1.95789 2.07026,2.09511 1.10493,0.134146 2.18161,-0.510798 2.91877,-1.05567 0.765172,-0.565532 1.49474,-1.29296 1.90537,-2.25222 0.904868,-2.11398 -0.346253,-2.77489 -0.346253,-3.04873 0,-0.0106736 1.69583,-3.20303 1.87088,-3.53391 2.18237,0.508492 3.94959,-2.51181 3.94959,-4.67719 0,-1.25599 -0.644175,-3.03336 -1.66295,-3.11815l0 -3.63783c0.935352,-0.217913 1.66295,-1.58081 1.66295,-2.70239l0 -0.831519c0,-2.15257 -1.62282,-4.57327 -3.81783,-4.58727l-1.69087 -3.51991c0.386471,-0.103235 0.7276,-0.669451 0.7276,-1.14327l0 -0.519763c0,-1.64972 -1.3605,-3.36561 -2.25009,-3.8823 -0.691054,-0.401329 -1.26837,-0.861149 -2.24257,-0.937487 -1.46818,-0.115104 -1.22619,0.272391 -2.1594,0.766196 -0.559384,-0.295959 -1.35419,-0.535987 -2.00724,-0.799071 -1.50114,-0.60464 -0.654422,-0.355902 -1.31311,-1.49328 -0.602932,-1.04123 -2.22422,-1.79718 -3.8367,-1.73178 -1.49414,0.0605409 -3.32377,0.697287 -3.79315,1.8047 -0.477154,1.12551 -0.258814,0.94261 -1.43078,1.37553 -0.396376,0.146442 -1.85115,0.713426 -2.17033,0.739982zm4.67719 -2.0788c0.881301,-0.319014 1.08171,-0.935438 2.80631,-0.935438 1.34881,0 4.2692,1.3512 1.87088,1.3512 -0.0694213,0.131243 -0.207837,0.343691 -0.207837,0.519678 0,0.167277 0.302619,0.200067 0.41576,0.623682l0.416699 -0.0128938 -0.00093928 0.428653c-0.509431,0.042353 -0.858587,0.623597 -2.18272,0.623597l-0.727515 0c-0.613435,0 -1.86481,-0.531035 -2.0788,-0.935438 0.347107,-0.518397 0.831434,-0.241993 0.831434,-0.7276 0,-0.280674 -0.0496111,-0.286566 -0.103833,-0.519678l-1.03944 -0.41576zm-6.5233 3.05121l-0.0247628 0.378786c0,0.243274 0.172401,0.41576 0.415674,0.41576l0.104004 0c0.403207,0 0.018871,-0.192125 0.727515,-0.207922l0 0.41576c0,0.766026 -1.14345,1.93039 -1.6405,2.30918 -0.466224,0.355133 -0.567411,0.556908 -1.24736,0.733663 -0.992051,0.25796 -0.452733,-0.312439 -0.437961,-0.96447l-0.735029 -0.315598 -0.304583 0.627781 -0.311756 0c-0.0543075,-0.233027 -0.103919,-0.238919 -0.103919,-0.519678l0 -0.103919c0,-1.41464 1.9438,-3.53391 3.11807,-3.53391l0.519678 0c0.280759,0 0.286651,0.0496111 0.519763,0.103919l-0.0248482 0.274867 -0.573985 0.385788zm17.8968 -0.3752c0.486803,-0.113141 0.291945,-0.181452 0.683369,-0.181452 1.40977,0 3.42999,2.01996 3.42999,3.74175 0,0.317135 -0.0999052,0.419431 -0.207922,0.623682 -0.255655,-0.171291 -0.554346,-0.7276 -0.7276,-0.7276 -0.350181,0 -0.727515,0.183672 -0.727515,0.519678 0,0.406879 0.156945,0.0114421 0.207837,0.623682 -1.08564,0.229953 -3.32599,-1.6177 -3.32599,-3.11815 0,-0.703862 1.45512,0.576974 1.45512,-0.41576l-0.0292031 -0.481765 -0.758084 -0.584061zm-24.3658 10.4203c0,0.296727 0.339763,0.467249 0.530608,0.640333l0.508748 -0.328577c0.551272,1.14891 -0.30074,4.28021 -1.55903,4.57327 -0.133805,-0.289298 0.0554175,-1.03936 -0.519678,-1.03936l-0.207922 0c-0.371357,0 -0.407391,0.456063 -0.415674,0.831519 -1.3985,-0.325845 -0.227562,-5.13487 1.76687,-5.30087 -0.0355219,0.427116 -0.103919,0.232173 -0.103919,0.623682zm31.1342 -0.315171c1.34257,0.119716 2.12602,1.86071 2.12602,3.32932l0 0.623682c0,0.602335 -0.240114,1.22106 -0.727515,1.3512 -0.00836813,-0.37187 -0.0455978,-0.7276 -0.41576,-0.7276l-0.311841 0c-0.261974,0 -0.422591,0.306974 -0.3939,0.414393l-0.0218596 0.521044c-0.614289,-0.163947 -1.16761,-1.2758 -1.39116,-1.93492 -0.498331,-1.46946 -0.411319,-1.25129 0.0217742,-2.80008l0.230551 0.450171 0.518226 0.132951 0.431898 -0.214668 -0.0664327 -1.14549zm0.255143 12.3719c0,0.290408 0.525911,0.311926 0.914688,0.291091l0.187514 -0.197078 0.248995 -0.613691c0.347534,0.254716 0.519678,0.95576 0.519678,1.55912l0 0.727515c0,1.01143 -1.21142,2.91032 -1.97479,2.91032l-0.519678 0c0.117752,-0.441205 0.207837,-0.181793 0.207837,-0.519678l0 -0.103919c0,-0.280759 -0.0496111,-0.286566 -0.103919,-0.519763l-0.669792 0.085816 -0.473568 0.226025 0 -0.831519c0,-1.42412 0.68149,-3.38491 1.76696,-3.63783 -0.0355219,0.427116 -0.103919,0.232173 -0.103919,0.623597zm-33.2602 -0.935352l0.519678 1.03936c0.290664,-0.13944 0.7276,-0.200323 0.7276,-0.623682l0 -0.519678c0.914944,0.244384 1.76696,2.06309 1.76696,3.22216l0 0.935438c0,0.578682 -0.474934,0.307059 -0.623682,-0.104004 -0.742544,0.0165655 -0.601395,0.144222 -0.810343,0.613264l0.290664 0.738018c-1.46869,-0.0327894 -1.74108,-1.67986 -2.28663,-2.49456 0,-1.18144 -0.336689,-2.25504 0.41576,-2.80631zm5.67675 10.7207l0.351632 -0.119032c0.916737,0.485095 1.28895,0.496794 2.00562,1.32054 0.300484,0.345484 0.457429,0.58056 0.709925,0.953028 0.389203,0.5739 0.180086,0.909735 0.40261,1.26034 -0.362135,0.540855 -0.255313,1.03748 -1.0911,1.1811 -0.507894,0.0872677 -1.38638,-0.231063 -1.75611,-0.516519 -0.70557,-0.544782 -1.93398,-1.70223 -1.93398,-2.8473 0,-0.376737 0.087353,-0.580134 0.228672,-0.848084l0.637088 0.790447 0.677562 -0.559982 -0.231917 -0.614545zm4.40522 -22.05c-1.55374,0 -3.09527,-1.10809 -3.22207,0.41576l-0.623597 0c-0.397401,0 -0.0378274,0.0319355 -0.311841,-0.103919l0 0.207837 -0.311756 0 -0.031167 1.76721 0.135 11.5369 0.00196395 2.17025 0.933559 0.116385 9.77022 0 0.0259583 0.7276 -0.0259583 0.519678 0.0259583 0.103919 -0.0259583 0.519678 0.0259583 0.103919 -0.0259583 0.519763 0.0320209 1.35086 -0.0320209 1.24762 0 0.831519 -0.935523 0c-0.780798,0 -1.21031,-0.0896585 -1.87241,-0.102638 -1.55647,-0.0307401 -0.659631,-0.213729 -0.743141,0.620949l-0.0855599 0.752876 1.9736 -0.127913 1.58499 0 -0.0233112 0.519422 0.0442316 0.936633 0.0571253 1.6621 0 0.623597c0,0.495342 -0.209545,0.808122 -0.311841,1.24728 0.452306,0.163776 0.285712,0.409526 1.28041,0.472116 0.723929,0.0455124 0.864565,-0.247031 1.31807,-0.368112 -0.0137476,-0.616082 -0.454355,-1.13807 -0.400304,-1.87011l0.0884631 -1.24813c0.0566984,-1.07855 -0.414735,-1.92655 0.638796,-1.79087 0.465541,0.0599431 2.6369,0.303558 2.65825,0.292885 0.130645,-0.0651519 0.229953,-1.02783 0.242932,-1.20962 0.0561006,-0.789166 -0.108871,-0.533426 -0.838606,-0.516348 -1.11066,0.0261291 -1.52069,0.20408 -2.70137,0.105882 0.0712145,-0.126888 0.103919,-0.111262 0.103919,-0.311841l-0.0259583 -0.519678 0.0259583 -0.519678 -0.0308255 -0.103065 -0.0730931 -4.47029 0.311329 0.0170778 2.39107 0.0868407 7.37958 0c0.973777,0 0.581073,-1.21389 0.64409,-2.0548 0.0479887,-0.639479 0.0835105,-1.63956 0.0835105,-2.41455l0 -0.831434c0,-2.09528 -0.103919,-3.10415 -0.103919,-5.30087 0,-1.00477 0,-2.00946 0,-3.01424 0,-0.788227 0.198957,-2.49456 -0.311841,-2.49456l-0.623597 0c-0.368112,0 -0.96447,0.303302 -0.519763,-0.623597 -1.22747,0.102125 -2.92637,0.702325 -4.32795,0.378274 -1.47774,-0.341556 -2.23916,-0.897952 -4.195,-0.897952l-0.207837 0c-0.542477,0 -0.601395,0.207837 -1.03944,0.207837 -0.194004,0 -0.415674,-2.51283 -0.415674,-3.11815l-0.207837 0c0,0.911529 -0.289127,1.55502 -0.391765,2.31071 -0.0885485,0.652629 0.111518,0.711206 -0.642041,0.709156 -0.476983,-0.00128084 -0.993417,-0.0262998 -1.46587,-0.0106736 -0.339507,0.011186 -1.7381,0.49278 -2.19834,0.607885 -0.681234,0.170437 -1.66398,0.332591 -2.47381,0.332591zm9.00368 13.6787c-0.677733,0.0960627 -0.901197,0.360513 -0.901965,-0.472799 -0.000512335,-0.520703 0.00555029,-1.04345 0.00555029,-1.56484 0,-2.2348 -0.104004,-4.18996 -0.104004,-6.34023 0,-1.59789 -0.372638,-5.04231 -0.207922,-5.82055 0.584061,-0.0130645 0.578511,-0.207922 1.14336,-0.207922l0.935523 0c0.99632,0 2.52,0.831519 3.84567,0.831519l0.7276 0c3.49327,0 2.80631,-1.17401 2.80631,2.39064 0,1.78984 0,4.05667 0,5.50871l0 1.14336 -0.0317647 4.6777c-2.12175,0.476983 -3.42325,0.773881 -5.59538,0.117922 -0.738018,-0.222951 -2.09895,-0.337799 -2.62298,-0.263511zm-7.96424 -13.4708c1.14379,0 3.0869,-0.935523 3.94959,-0.935523l1.35128 0c0.239431,0 0.311756,0.0723246 0.311756,0.311841l0 0.519678 -0.252496 12.7855 -0.05926 0.206898 0.00631879 0.727771c-0.280332,-0.13611 0.0792411,-0.104175 -0.31816,-0.104175l-0.104004 0c-0.377249,0 -0.101101,-0.0238236 -0.207837,0.103919 -0.952772,-0.638027 -2.96949,0.0163947 -4.24973,0.219621 -0.888474,0.140977 -1.34138,0.185551 -2.29005,0.0838521 -0.577913,-0.0619071 -1.71128,-0.53317 -1.98316,-0.407391l-0.00947819 -7.5875 0.00947819 -0.103919 -0.0259583 -0.519678 0.0259583 -2.70248 -0.0259583 -0.519678 0.0259583 -2.39055 2.59506 0.336262 1.25069 -0.0244213zm7.06783 14.3435c0,-0.250275 1.1303,-0.519763 1.45512,-0.519763 1.01886,0 2.582,0.310646 4.01098,0.562373 1.67149,0.294336 3.08494,-0.406452 4.20012,-0.666291l0.0701044 -4.36543 0.0338141 -0.311756 -0.0786434 -6.96357 -0.0194687 -0.832373 -0.00580646 -0.727003c0,-0.200664 0.032704,-0.185038 0.103919,-0.311841 0.329858,0.241651 0.311841,4.46192 0.311841,4.88511l0 9.77022 -0.7276 0 -3.32616 -0.0356073 -2.28663 0.0111006 -0.519593 0.0245067 -1.03901 -0.0386813 -1.7679 -0.0385105 -0.311158 -0.0267268c-0.0687382,-0.294934 -0.103919,-0.177695 -0.103919,-0.41576zm-1.0607 -15.1745l0.125266 -0.000512335 0.103833 0 0.0775333 4.46995 0.0264706 0.622999 -0.10204 0.831775 -0.00196395 0.103662 0.0549906 3.01389 -0.0420968 0.41704 0 0.41576 -0.0128938 1.76602 0.134061 11.0171 -0.26223 0.00093928 -0.10093 -22.6586zm-10.8922 1.14276l0.623597 0 0 4.98911 0.0496965 2.07829 -0.0496965 6.23673c0.555371,0.148321 0.767221,0.517543 1.66005,0.522667 0.732211,0.00418407 1.2384,0.101015 2.08179,0.101015 1.20475,0 1.87216,-0.414308 2.81297,-0.513103 1.42685,-0.149772 1.72785,0.0972582 3.00757,0.0972582l0 0.935523 -0.932022 0.126974 -0.315257 -0.0230551 -7.89883 -0.00597724 -0.93595 -0.0979413 0 -1.03944 -0.0370589 -4.88502 0.0370589 -0.104004 -0.103919 -5.19695 0 -3.22207zm10.3761 22.6616c0.548454,0.385873 0.225598,2.24403 0.225598,2.69941l0 0.311841c0,0.316537 0.0472202,0.380152 0.0732638,0.618815l-0.177182 1.14814c-0.313805,-0.226623 0,-0.65058 0,-1.3512l-0.0225427 -1.03901 0.0403037 -1.56245 -0.13944 -0.825542zm-6.58102 -30.4274l1.48073 0 0 0.586538 -0.606006 0 0 0.555627 0.539318 0 0 0.558103 -0.539318 0 0 1.23123 -0.874726 0 0 -2.93149zm2.81613 0.753388c0,-0.136623 -0.00853891,-0.223719 -0.0262145,-0.262059 -0.0170778,-0.0376566 -0.0525143,-0.0568691 -0.106309,-0.0568691 -0.0461101,0 -0.0808635,0.0154554 -0.104943,0.0463663 -0.0248482,0.0303131 -0.0368881,0.121167 -0.0368881,0.272562l0 1.36845c0,0.170522 0.00853891,0.275636 0.0240797,0.315171 0.0156262,0.0402183 0.0531974,0.0599431 0.111347,0.0599431 0.0595162,0 0.0970874,-0.0228843 0.11408,-0.0685674 0.0163093,-0.0463663 0.0248482,-0.155152 0.0248482,-0.328236l0 -1.34676zm0.873957 0.962933c0,0.294849 -0.00777041,0.503113 -0.0233966,0.625475 -0.0163093,0.123046 -0.0659204,0.234905 -0.149516,0.336262 -0.0836813,0.101357 -0.197078,0.179232 -0.339592,0.233625 -0.142429,0.0543929 -0.309023,0.081632 -0.498245,0.081632 -0.180086,0 -0.341727,-0.0259583 -0.484839,-0.0772771 -0.143881,-0.0513188 -0.258729,-0.127913 -0.345911,-0.230551 -0.0871823,-0.102638 -0.138928,-0.214497 -0.15592,-0.334981 -0.0163093,-0.121167 -0.0248482,-0.332505 -0.0248482,-0.634185l0 -0.501234c0,-0.294849 0.00777041,-0.503113 0.0240797,-0.626073 0.0156262,-0.122363 0.0652373,-0.234308 0.149602,-0.335665 0.0835959,-0.101357 0.19631,-0.179232 0.339507,-0.233539 0.142514,-0.0544782 0.30834,-0.081632 0.498331,-0.081632 0.18,0 0.341642,0.0259583 0.484839,0.0772771 0.143198,0.0513188 0.258729,0.127913 0.345911,0.230551 0.0870969,0.102552 0.138843,0.214412 0.155237,0.334981 0.0169924,0.121082 0.0247628,0.331907 0.0247628,0.634099l0 0.501234zm2.36741 -0.438217l-0.873957 0 0 -0.510456c0,-0.148406 -0.00990513,-0.241053 -0.0283492,-0.278198 -0.018444,-0.0363758 -0.0595162,-0.0549906 -0.123302,-0.0549906 -0.0723246,0 -0.117666,0.0222866 -0.137562,0.0667743 -0.0191272,0.0450854 -0.0290323,0.14149 -0.0290323,0.289896l0 1.36153c0,0.142856 0.00990513,0.235503 0.0290323,0.278795 0.0198957,0.04389 0.0631025,0.0654934 0.131158,0.0654934 0.0652373,0 0.107761,-0.0216034 0.127571,-0.0654934 0.0198957,-0.0432923 0.0304839,-0.145247 0.0304839,-0.305949l0 -0.367088 0.873957 0 0 0.113653c0,0.302875 -0.0247628,0.51797 -0.0736908,0.644688 -0.048928,0.126717 -0.158055,0.237979 -0.326016,0.333103 -0.168046,0.0952088 -0.375712,0.143454 -0.621633,0.143454 -0.25668,0 -0.467847,-0.040816 -0.633672,-0.12185 -0.165911,-0.0809489 -0.27649,-0.192809 -0.33037,-0.335579 -0.0538805,-0.143368 -0.0807781,-0.358463 -0.0807781,-0.645883l0 -0.85594c0,-0.211423 0.00845352,-0.369649 0.0248482,-0.475361 0.0169924,-0.105626 0.065835,-0.207666 0.148833,-0.305351 0.0822297,-0.0975997 0.19631,-0.174877 0.342325,-0.231148 0.146015,-0.0555883 0.313976,-0.0840229 0.503283,-0.0840229 0.25796,0 0.470665,0.04389 0.637942,0.130389 0.167277,0.0871823 0.277088,0.19537 0.330285,0.325162 0.0524289,0.129791 0.0786434,0.331822 0.0786434,0.605665l0 0.27871zm2.30089 -1.2781l0 1.95925c0,0.221926 -0.00853891,0.378274 -0.0248482,0.467847 -0.0169924,0.0902563 -0.0659204,0.182306 -0.147382,0.276917 -0.0823151,0.0952088 -0.189308,0.166936 -0.323283,0.215693 -0.133207,0.0488426 -0.291262,0.0736054 -0.472031,0.0736054 -0.201347,0 -0.37853,-0.0291177 -0.531633,-0.0871823 -0.153871,-0.05815 -0.268634,-0.133549 -0.345228,-0.226196 -0.0758255,-0.0933303 -0.121167,-0.191015 -0.134659,-0.294251 -0.0141746,-0.103235 -0.0205788,-0.320124 -0.0205788,-0.651433l0 -1.73425 0.873957 0 0 2.19783c0,0.127913 0.0078558,0.210143 0.0241651,0.245408 0.0155408,0.035778 0.0474763,0.0537097 0.0964043,0.0537097 0.0552467,0 0.0906832,-0.0197249 0.106993,-0.0587477 0.0156262,-0.0395352 0.0233966,-0.132182 0.0233966,-0.278027l0 -2.16017 0.874726 0zm2.19014 0.886937l-0.811538 0 0 -0.216974c0,-0.101357 -0.0106736,-0.166253 -0.031167,-0.194089 -0.0205788,-0.0278368 -0.0553321,-0.0414137 -0.10426,-0.0414137 -0.0524289,0 -0.0921348,0.0186148 -0.119032,0.0562714 -0.026983,0.0370589 -0.040389,0.093928 -0.040389,0.169924 0,0.0976851 0.0148577,0.171888 0.0453416,0.221329 0.0290323,0.0494403 0.11203,0.1087 0.247372,0.179232 0.389118,0.201433 0.633672,0.36649 0.735029,0.495684 0.101357,0.129194 0.151651,0.337458 0.151651,0.624877 0,0.208862 -0.0282638,0.362733 -0.084279,0.461699 -0.0560152,0.0988806 -0.164459,0.182306 -0.324649,0.24908 -0.160873,0.0667743 -0.347363,0.100759 -0.560665,0.100759 -0.233966,0 -0.433777,-0.0390228 -0.599004,-0.116215 -0.165826,-0.0772771 -0.27427,-0.17556 -0.325332,-0.294849 -0.0509773,-0.119886 -0.0765086,-0.289213 -0.0765086,-0.509261l0 -0.191613 0.811623 0 0 0.356585c0,0.110067 0.0112714,0.180513 0.0339849,0.212021 0.0233966,0.0309109 0.0637857,0.046964 0.121936,0.046964 0.0580646,0 0.101357,-0.0197249 0.129706,-0.0599431 0.0283492,-0.0395352 0.0425238,-0.0988806 0.0425238,-0.177353 0,-0.172486 -0.0268976,-0.285541 -0.0808635,-0.338739 -0.0552467,-0.053112 -0.19204,-0.14149 -0.408928,-0.265731 -0.217657,-0.12612 -0.361537,-0.216974 -0.43241,-0.273843 -0.0701898,-0.0568691 -0.129023,-0.135342 -0.175048,-0.235418 -0.0467932,-0.100161 -0.0695067,-0.228074 -0.0695067,-0.383824 0,-0.224403 0.0326186,-0.388777 0.098539,-0.49261 0.0652373,-0.103919 0.171547,-0.184782 0.318245,-0.24353 0.146784,-0.05815 0.323966,-0.08778 0.531633,-0.08778 0.227562,0 0.421054,0.0321063 0.58056,0.0958066 0.16019,0.064298 0.265731,0.144649 0.318245,0.242249 0.0517458,0.0970874 0.0771917,0.262059 0.0771917,0.495086l0 0.115617zm0.347363 -0.886937l1.45802 0 0 0.586538 -0.583293 0 0 0.555627 0.545722 0 0 0.558103 -0.545722 0 0 0.644688 0.641443 0 0 0.586538 -1.51617 0 0 -2.93149zm2.64177 0.501234l0 1.92834c0.125437,0 0.203397,-0.0216034 0.232515,-0.0654934 0.0290323,-0.0444877 0.0432069,-0.164374 0.0432069,-0.359659l0 -1.13918c0,-0.132865 -0.00495257,-0.217486 -0.0141746,-0.255228 -0.00990513,-0.0370589 -0.0319355,-0.0648957 -0.0666035,-0.0822297 -0.0347534,-0.017334 -0.0999052,-0.026556 -0.194943,-0.026556zm-0.874726 -0.501234l0.654251 0c0.422505,0 0.707449,0.0166509 0.856282,0.0506357 0.148833,0.0340702 0.26223,0.0890608 0.339507,0.166253 0.0779602,0.0772771 0.126205,0.163776 0.146015,0.258387 0.0191272,0.0945257 0.0290323,0.280589 0.0290323,0.558786l0 1.02655c0,0.263255 -0.0141746,0.438815 -0.0432069,0.52779 -0.0283492,0.0883777 -0.0772771,0.158311 -0.14815,0.208349 -0.0708729,0.050038 -0.158055,0.0846206 -0.261547,0.105029 -0.104175,0.0198103 -0.260095,0.0297154 -0.469213,0.0297154l-1.10297 0 0 -2.93149zm-11.9913 13.1884c0,-0.205702 -0.011186,-0.336945 -0.0344972,-0.394668 -0.0222866,-0.0567837 -0.0688236,-0.0855599 -0.139611,-0.0855599 -0.0604555,0 -0.106053,0.0232258 -0.137733,0.0697629 -0.0325332,0.0455978 -0.0484156,0.182391 -0.0484156,0.410465l0 2.06044c0,0.256936 0.011186,0.415076 0.0316794,0.474678 0.0204934,0.0604555 0.0698483,0.0902563 0.146101,0.0902563 0.0782164,0 0.127571,-0.0344118 0.149858,-0.103235 0.0214327,-0.0698483 0.0326186,-0.233625 0.0326186,-0.494232l0 -2.02791zm1.14746 1.44999c0,0.443938 -0.0101613,0.757487 -0.0306547,0.941842 -0.0214327,0.185209 -0.0865845,0.353596 -0.196395,0.506272 -0.10981,0.15259 -0.258729,0.269915 -0.445816,0.351803 -0.187088,0.0818881 -0.405769,0.12279 -0.654251,0.12279 -0.236357,0 -0.448549,-0.0390228 -0.636576,-0.1163 -0.188966,-0.0772771 -0.339678,-0.192638 -0.454185,-0.347107 -0.114421,-0.154554 -0.182391,-0.323027 -0.204763,-0.504479 -0.0213473,-0.182391 -0.0325332,-0.500722 -0.0325332,-0.954821l0 -0.75484c0,-0.443938 0.0102467,-0.757572 0.0316794,-0.942781 0.020408,-0.18427 0.0855599,-0.352657 0.19631,-0.505333 0.10981,-0.152676 0.25779,-0.269915 0.445816,-0.351803 0.187088,-0.0818881 0.40483,-0.122875 0.654251,-0.122875 0.236442,0 0.448549,0.0391082 0.636576,0.116385 0.188027,0.0771917 0.339678,0.192638 0.454185,0.347107 0.114507,0.154469 0.182391,0.322942 0.203824,0.504479 0.0223719,0.182391 0.0325332,0.499697 0.0325332,0.954821l0 0.75484zm2.99118 -2.58456l0 4.41419 -1.00605 0 -0.597467 -2.00647 0 2.00647 -0.959517 0 0 -4.41419 0.959517 0 0.644005 1.98794 0 -1.98794 0.959517 0zm8.7061 -3.65431c0,-0.0966605 -0.0122106,-0.159763 -0.0356073,-0.188368 -0.0244213,-0.0290323 -0.0701044,-0.0511481 -0.136879,-0.0671158 -0.0812904,-0.0175902 -0.199213,-0.028093 -0.354023,-0.0321063 -0.155835,-0.00401329 -0.23371,-0.0195541 -0.23371,-0.0470494 0,-0.0156262 0.00999052,-0.026556 0.031167,-0.0321063 0.0200664,-0.00597724 0.0590039,-0.00896585 0.115788,-0.00896585l3.06547 0c0.0544782,0 0.092391,0.00298862 0.114592,0.00896585 0.0211765,0.00555029 0.0323625,0.0164801 0.0323625,0.0321063 0,0.0245067 -0.0578938,0.0390228 -0.172571,0.0440608 -0.115702,0.00503796 -0.204848,0.0120399 -0.268207,0.0220304 -0.0824005,0.0135769 -0.139184,0.0356073 -0.169241,0.0661765 -0.030057,0.030057 -0.0455978,0.0976851 -0.0455978,0.202372l0 1.04832c0,0.274014 -0.171461,0.475446 -0.515409,0.604213 -0.342837,0.128852 -0.879337,0.192894 -1.60728,0.192894 -0.684564,0 -1.22661,-0.0660912 -1.62513,-0.198871 -0.399621,-0.13278 -0.598834,-0.310133 -0.598834,-0.532145 0,-0.14482 0.0923056,-0.264535 0.278283,-0.359744 0.185807,-0.0946965 0.420712,-0.142344 0.703435,-0.142344 0.264962,0 0.480911,0.0385959 0.647847,0.115788 0.168046,0.0776187 0.251556,0.177353 0.251556,0.29963 0,0.0821443 -0.0367173,0.15481 -0.109127,0.217486 -0.0723246,0.0625902 -0.176926,0.111689 -0.311585,0.146784 -0.0556737,0.0145161 -0.158141,0.030057 -0.306205,0.0470494 -0.147979,0.0165655 -0.221499,0.0441462 -0.221499,0.0822297 0,0.051575 0.062334,0.0987098 0.185892,0.140807 0.123643,0.0420968 0.269403,0.0631025 0.436338,0.0631025 0.296129,0 0.510968,-0.0380835 0.645627,-0.114678 0.134659,-0.0762525 0.202543,-0.198957 0.202543,-0.368369l0 -1.24216zm-1.94841 3.93166l0 -1.39756c0,-0.102638 -0.0134061,-0.169839 -0.0412429,-0.200835 -0.0266414,-0.031594 -0.0767648,-0.0541367 -0.151395,-0.0676282 -0.0601139,-0.0100759 -0.142429,-0.0170778 -0.245921,-0.0221158 -0.103577,-0.00503796 -0.154725,-0.0195541 -0.154725,-0.0440608 0,-0.0155408 0.00999052,-0.026556 0.031167,-0.0321063 0.019981,-0.00597724 0.0590039,-0.00896585 0.115702,-0.00896585l2.80947 0c0.239346,0 0.442999,-0.00606263 0.61446,-0.0175902 0.170266,-0.0119545 0.31056,-0.0290323 0.421822,-0.051575 0.0824005,-0.0175902 0.161471,-0.0410722 0.237126,-0.0701898 0.0768502,-0.0295446 0.125778,-0.0440608 0.150285,-0.0440608 0.0433777,0 0.0712145,0.0164801 0.0846206,0.0501234l0 0.00093928 0.329431 0.867895c0.0122106,0.0380835 0.0211765,0.0676282 0.0256167,0.0882069 0,0.00947819 -0.00666035,0.0185294 -0.0211765,0.026556 -0.0144308,0.00751424 -0.030057,0.0115275 -0.0467078,0.0115275 -0.0479033,0 -0.114678,-0.0426092 -0.199298,-0.12834 -0.0845352,-0.0856453 -0.173596,-0.161812 -0.267097,-0.228501 -0.193662,-0.140721 -0.397401,-0.246433 -0.61113,-0.31611 -0.213729,-0.0701898 -0.438558,-0.105199 -0.675599,-0.105199 -0.171461,0 -0.289469,0.0175048 -0.356243,0.053112 -0.0656642,0.0350095 -0.0990513,0.114763 -0.0990513,0.238919l0 0.549223 0.0356073 0c0.279393,0 0.493122,-0.0225427 0.638967,-0.0676282 0.145759,-0.0450854 0.245921,-0.118264 0.297154,-0.219962 0.0133207,-0.0245921 0.0267268,-0.056613 0.0389374,-0.0957212 0.0178463,-0.0506357 0.0490133,-0.0761671 0.0946111,-0.0761671 0.0278368,0 0.0490133,0.00452562 0.0613094,0.0129791 0.0133207,0.00905124 0.019981,0.0216034 0.019981,0.0385959l0 0.961567c0,0.0165655 -0.00666035,0.0291177 -0.019981,0.0380835 -0.012296,0.00853891 -0.0334725,0.0130645 -0.0613094,0.0130645 -0.0522581,0 -0.0889754,-0.0410722 -0.110152,-0.123302 -0.0156262,-0.0510627 -0.030057,-0.0941842 -0.0422676,-0.129279 -0.0323625,-0.0891462 -0.124753,-0.155835 -0.274953,-0.200408 -0.150285,-0.0445731 -0.358463,-0.0666035 -0.62223,-0.0666035l-0.0556737 0 0 0.763122c0,0.128254 0.0333871,0.208947 0.0990513,0.241993 0.0667743,0.0335579 0.187002,0.0501234 0.362904,0.0501234 0.191442,0 0.385105,-0.030057 0.580987,-0.0902563 0.197078,-0.0601139 0.401841,-0.152249 0.61668,-0.276575 0.152505,-0.0901709 0.297239,-0.184355 0.434118,-0.282553 0.136879,-0.0981975 0.219279,-0.147382 0.248226,-0.147382 0.0189564,0 0.0367173,0.00409868 0.0511481,0.0116129 0.0156262,0.00794119 0.0233966,0.0175048 0.0233966,0.0280076 0,0.0145161 -0.00111006,0.0286053 -0.00444023,0.0410722 -0.00333017,0.0125522 -0.00888047,0.0255313 -0.0156262,0.0380835l-0.400646 0.911443c-0.00888047,0.0195541 -0.0211765,0.0335579 -0.0356073,0.0415845 -0.0156262,0.00853891 -0.0344972,0.0125522 -0.0590039,0.0125522 -0.0211765,0 -0.0578938,-0.0140038 -0.110237,-0.0415845 -0.0522581,-0.0280076 -0.109042,-0.0501234 -0.169156,-0.0656642 -0.129108,-0.0350949 -0.294934,-0.0601139 -0.500892,-0.0746301 -0.204848,-0.0145161 -0.494232,-0.0220304 -0.867126,-0.0220304l-2.65031 0c-0.0566984,0 -0.0957212,-0.00298862 -0.115702,-0.00956358 -0.0211765,-0.00648957 -0.031167,-0.0175048 -0.031167,-0.0330456 0,-0.0235674 0.0511481,-0.0375712 0.154725,-0.0426092 0.103492,-0.00503796 0.185807,-0.0129791 0.245921,-0.0235674 0.0746301,-0.0124668 0.124753,-0.0345826 0.151395,-0.0660912 0.0278368,-0.0310816 0.0412429,-0.0981975 0.0412429,-0.200921zm1.7965 2.23899l-0.861576 -0.132268c-0.46742,-0.0712145 -0.805817,-0.160361 -1.01733,-0.267097 -0.210399,-0.106736 -0.31611,-0.241993 -0.31611,-0.406367 0,-0.224488 0.184782,-0.404403 0.554346,-0.540684 0.369564,-0.135769 0.860381,-0.203909 1.47373,-0.203909 0.178036,0 0.418492,0.00999052 0.720172,0.0295446 0.302704,0.0195541 0.514213,0.0291177 0.635551,0.0291177 0.131328,0 0.242676,-0.00905124 0.336177,-0.0271537 0.0935011,-0.0180171 0.164716,-0.0450001 0.212619,-0.080095 0.0122106,-0.0105029 0.0289469,-0.0270683 0.0478179,-0.0486718 0.0333871,-0.0380835 0.07241,-0.0571253 0.118008,-0.0571253 0.0567837,0 0.092391,0.028093 0.107932,0.0836813 0.00222012,0.00802657 0.00333017,0.0146015 0.00563568,0.0190418l0.192552 0.606775c0.00222012,0.00759963 0.00555029,0.0186148 0.00888047,0.033131 0.00333017,0.0140038 0.00444023,0.0230551 0.00444023,0.0270683 0,0.0105029 -0.00666035,0.0195541 -0.0210911,0.0260437 -0.0145161,0.00700191 -0.0312524,0.0105029 -0.0501234,0.0105029 -0.042353,0 -0.115788,-0.0350949 -0.222609,-0.105199 -0.105797,-0.0696775 -0.219279,-0.131328 -0.338397,-0.183928 -0.193662,-0.083169 -0.398511,-0.147296 -0.61335,-0.191869 -0.214839,-0.0445731 -0.428568,-0.0666035 -0.642211,-0.0666035 -0.214839,0 -0.378444,0.0210057 -0.492012,0.0625902 -0.112457,0.0415845 -0.169156,0.100759 -0.169156,0.178378 0,0.0625902 0.0444877,0.115275 0.132438,0.158311 0.0879508,0.0431215 0.23038,0.0801804 0.427458,0.111774l0.887107 0.145332c0.554346,0.0891462 0.93279,0.184867 1.13422,0.287078 0.202628,0.102211 0.3039,0.239004 0.3039,0.41038 0,0.25352 -0.217059,0.455465 -0.650067,0.606263 -0.434118,0.150883 -1.01733,0.226025 -1.74979,0.226025 -0.207069,0 -0.46298,-0.00999052 -0.77132,-0.030057 -0.30723,-0.0200664 -0.507638,-0.030057 -0.601139,-0.030057 -0.300484,0 -0.506443,0.0520873 -0.62001,0.155835 -0.0277515,0.0245067 -0.0511481,0.0365465 -0.0678843,0.0365465 -0.0389374,0 -0.0678843,-0.00452562 -0.0845352,-0.0129791 -0.0178463,-0.00905124 -0.030057,-0.0251044 -0.0368027,-0.0486718l-0.214754 -0.85483 0 -0.0159678 0 -0.0175902c0,-0.0155408 0.00555029,-0.0270683 0.0177609,-0.0345826 0.0122106,-0.00751424 0.031167,-0.0110152 0.0567837,-0.0110152 0.0544782,0 0.161385,0.0631879 0.319441,0.189393 0.0545636,0.0441462 0.0990513,0.0791557 0.134744,0.105712 0.188027,0.145845 0.419602,0.260608 0.692249,0.344289 0.272733,0.0836813 0.551016,0.125778 0.835959,0.125778 0.262742,0 0.474251,-0.030057 0.634526,-0.0897439 0.159165,-0.0596016 0.23926,-0.137306 0.23926,-0.233454 0,-0.0742031 -0.0534536,-0.136281 -0.161385,-0.186404 -0.106822,-0.0501234 -0.284943,-0.0941842 -0.532059,-0.132268zm-1.89675 1.43172c0,-0.102723 -0.0133207,-0.169839 -0.0411575,-0.200921 -0.0267268,-0.031594 -0.0767648,-0.0541367 -0.151395,-0.0676282 -0.0601139,-0.0100759 -0.142429,-0.0170778 -0.246006,-0.0220304 -0.103492,-0.00503796 -0.154725,-0.0195541 -0.154725,-0.0441462 0,-0.0155408 0.0100759,-0.026556 0.0312524,-0.0321063 0.019981,-0.00597724 0.0589185,-0.00896585 0.115702,-0.00896585l2.84286 0c0.0567837,0 0.0957212,0.00298862 0.115788,0.00896585 0.0211765,0.00555029 0.031167,0.0165655 0.031167,0.0321063 0,0.0245921 -0.0512335,0.0391082 -0.154725,0.0441462 -0.103577,0.00495257 -0.184782,0.0119545 -0.242676,0.0220304 -0.0745447,0.0134915 -0.125778,0.0360342 -0.153615,0.0676282 -0.0278368,0.0310816 -0.0422676,0.0981975 -0.0422676,0.200921l0 1.23464c0,0.191955 0.0567837,0.317647 0.171376,0.377334 0.113567,0.0596016 0.315,0.0896585 0.604469,0.0896585 0.191442,0 0.371699,-0.0140038 0.54094,-0.0420968 0.170351,-0.0274953 0.3039,-0.0651519 0.401841,-0.112201 0.0935011,-0.0441462 0.159165,-0.0957212 0.198103,-0.15481 0.0389374,-0.0591746 0.0590039,-0.158909 0.0590039,-0.298691l0 -0.375797c0,-0.233966 -0.0444877,-0.421908 -0.132438,-0.563739 -0.0879508,-0.141746 -0.22816,-0.252496 -0.421908,-0.331651 -0.104602,-0.0431215 -0.219279,-0.0761671 -0.343947,-0.0987098 -0.125778,-0.0225427 -0.188027,-0.0420968 -0.188027,-0.0586623 0,-0.0155408 0.00999052,-0.026556 0.0310816,-0.0321063 0.0200664,-0.00597724 0.0590039,-0.00896585 0.115788,-0.00896585l1.9958 0c0.0544782,0 0.092391,0.00350095 0.114592,0.0105029 0.0211765,0.00657496 0.0323625,0.0181025 0.0323625,0.0335579 0,0.0165655 -0.0523435,0.0336433 -0.156945,0.0506357 -0.103577,0.0170778 -0.198188,0.0405598 -0.282723,0.0696775 -0.207069,0.0716415 -0.354023,0.176328 -0.441889,0.315171 -0.0879508,0.138245 -0.132524,0.343179 -0.132524,0.614289l0 0.429934c0,0.244981 -0.165826,0.421908 -0.497562,0.530608 -0.331651,0.109213 -0.870456,0.163862 -1.61846,0.163862 -0.750229,0 -1.2711,-0.0485864 -1.56168,-0.145845 -0.291604,-0.0976851 -0.437448,-0.269061 -0.437448,-0.514555l0 -1.18204zm1.89675 3.63647l-0.861576 -0.132268c-0.46742,-0.0711291 -0.805817,-0.160361 -1.01733,-0.267097 -0.210399,-0.106651 -0.31611,-0.241993 -0.31611,-0.406367 0,-0.224488 0.184782,-0.404317 0.554346,-0.540598 0.369564,-0.135854 0.860381,-0.203995 1.47373,-0.203995 0.178036,0 0.418492,0.0100759 0.720172,0.0295446 0.302704,0.0195541 0.514213,0.0291177 0.635551,0.0291177 0.131328,0 0.242676,-0.00905124 0.336177,-0.0270683 0.0935011,-0.0180171 0.164716,-0.0450854 0.212619,-0.0801804 0.0122106,-0.0105029 0.0289469,-0.0270683 0.0478179,-0.0485864 0.0333871,-0.0380835 0.07241,-0.0571253 0.118008,-0.0571253 0.0567837,0 0.092391,0.0280076 0.107932,0.0836813 0.00222012,0.00802657 0.00333017,0.0145161 0.00563568,0.0190418l0.192552 0.606775c0.00222012,0.00751424 0.00555029,0.0185294 0.00888047,0.0330456 0.00333017,0.0140892 0.00444023,0.0230551 0.00444023,0.0270683 0,0.0105029 -0.00666035,0.0195541 -0.0210911,0.0260437 -0.0145161,0.00708729 -0.0312524,0.0105029 -0.0501234,0.0105029 -0.042353,0 -0.115788,-0.0350095 -0.222609,-0.105199 -0.105797,-0.0695921 -0.219279,-0.131243 -0.338397,-0.183843 -0.193662,-0.0832544 -0.398511,-0.147296 -0.61335,-0.191955 -0.214839,-0.0445731 -0.428568,-0.0666035 -0.642211,-0.0666035 -0.214839,0 -0.378444,0.0210057 -0.492012,0.0625902 -0.112457,0.0416699 -0.169156,0.100759 -0.169156,0.178463 0,0.0625902 0.0444877,0.11519 0.132438,0.158311 0.0879508,0.0430361 0.23038,0.0801804 0.427458,0.111689l0.887107 0.145332c0.554346,0.0892316 0.93279,0.184953 1.13422,0.287078 0.202628,0.102296 0.3039,0.239089 0.3039,0.41038 0,0.253606 -0.217059,0.455551 -0.650067,0.606348 -0.434118,0.150797 -1.01733,0.22594 -1.74979,0.22594 -0.207069,0 -0.46298,-0.00999052 -0.77132,-0.030057 -0.30723,-0.019981 -0.507638,-0.030057 -0.601139,-0.030057 -0.300484,0 -0.506443,0.0520873 -0.62001,0.155835 -0.0277515,0.0245921 -0.0511481,0.0366319 -0.0678843,0.0366319 -0.0389374,0 -0.0678843,-0.00452562 -0.0845352,-0.0130645 -0.0178463,-0.00905124 -0.030057,-0.025019 -0.0368027,-0.0485864l-0.214754 -0.85483 0 -0.0160531 0 -0.0175048c0,-0.0155408 0.00555029,-0.0270683 0.0177609,-0.0345826 0.0122106,-0.00751424 0.031167,-0.0110152 0.0567837,-0.0110152 0.0544782,0 0.161385,0.0631025 0.319441,0.189393 0.0545636,0.0440608 0.0990513,0.0791557 0.134744,0.105712 0.188027,0.145845 0.419602,0.260522 0.692249,0.344203 0.272733,0.0836813 0.551016,0.125778 0.835959,0.125778 0.262742,0 0.474251,-0.030057 0.634526,-0.0896585 0.159165,-0.059687 0.23926,-0.137306 0.23926,-0.233539 0,-0.0741177 -0.0534536,-0.136281 -0.161385,-0.186404 -0.106822,-0.050038 -0.284943,-0.0941842 -0.532059,-0.132268zm-14.4681 4.19576l0 0.883265 -0.868151 0 0 3.53092 -1.46229 0 0 -3.53092 -0.865845 0 0 -0.883265 3.19628 0zm1.79804 0l0 4.41419 -1.46357 0 0 -4.41419 1.46357 0zm2.05062 0l0 3.53101 0.889498 0 0 0.883179 -2.35307 0 0 -4.41419 1.46357 0zm2.70641 0l0 3.53101 0.889498 0 0 0.883179 -2.35307 0 0 -4.41419 1.46357 0zm5.40547 0.743483l0 2.90374c0.239004,0 0.387496,-0.0326186 0.442913,-0.0987098 0.0553321,-0.0670304 0.0823151,-0.247543 0.0823151,-0.541623l0 -1.71521c0,-0.200152 -0.0093928,-0.327638 -0.026983,-0.384422 -0.0189564,-0.0558445 -0.0607116,-0.0976851 -0.126974,-0.123729 -0.0660912,-0.0261291 -0.190332,-0.0400475 -0.371272,-0.0400475zm-1.66611 -0.754754l1.24617 0c0.804792,0 1.34761,0.0251044 1.6311,0.0763379 0.283577,0.0511481 0.499612,0.133975 0.646737,0.250275 0.148577,0.116385 0.24037,0.246689 0.278112,0.389033 0.0364611,0.142429 0.0554175,0.422505 0.0554175,0.841339l0 1.54588c0,0.396462 -0.026983,0.660741 -0.0824005,0.794802 -0.0539659,0.133036 -0.147125,0.238236 -0.282126,0.313634 -0.135086,0.0753132 -0.301167,0.127486 -0.498245,0.158226 -0.19853,0.0298008 -0.495513,0.0446585 -0.893853,0.0446585l-2.10091 0 0 -4.41419zm6.1434 0l0 4.41419 -1.66611 0 0 -4.41419 1.66611 0zm0.668426 0l2.77728 0 0 0.883179 -1.11117 0 0 0.836728 1.0397 0 0 0.840314 -1.0397 0 0 0.970703 1.22192 0 0 0.883265 -2.88803 0 0 -4.41419zm2.23719 6.28968c0,0.391509 0.0683967,0.196566 0.103919,0.623682l0.41576 0c0.97002,0 0.242761,-0.557335 1.03936,-0.623682 0.0543075,0.233112 0.104004,0.239004 0.104004,0.519678l0 0.41576c0,1.49713 -2.87249,3.99237 -4.53561,2.66474 -0.834678,-0.666291 0.0248482,-2.16863 0.508663,-2.74193 0.694982,-0.823236 1.36785,-1.30526 2.55621,-1.58055l0.119545 0.202628c-0.0389374,0.07352 -0.311841,0.510371 -0.311841,0.519678z"/>
 </g>
</svg>
