<?xml version="1.0" encoding="UTF-8"?>
<!DOCTYPE svg PUBLIC "-//W3C//DTD SVG 1.1//EN" "http://www.w3.org/Graphics/SVG/1.1/DTD/svg11.dtd">
<!-- Creator: CorelDRAW -->
<svg xmlns="http://www.w3.org/2000/svg" xml:space="preserve" width="1.68497in" height="2.65172in" style="shape-rendering:geometricPrecision; text-rendering:geometricPrecision; image-rendering:optimizeQuality; fill-rule:evenodd; clip-rule:evenodd"
viewBox="0 0 0.0632605 0.0995561"
 xmlns:xlink="http://www.w3.org/1999/xlink">
 <defs>
  <style type="text/css">
   <![CDATA[
    .str0 {stroke:#1F1A17;stroke-width:0.000112632}
    .fil0 {fill:#1F1A17}
   ]]>
  </style>
 </defs>
 <g id="Layer_x0020_1">
  <metadata id="CorelCorpID_0Corel-Layer"/>
  <path class="fil0 str0" d="M0.0111143 0.0610922c-0.000159192,0.00298858 -0.000852129,0.00516805 -0.00207955,0.00653796 -0.00461613,0.00521668 -0.00930808,0.00222706 -0.00896073,-0.00429641 0.00018565,-0.00348671 -0.000131256,-0.0102977 0.00186064,-0.0160262 0.00283205,-0.00270168 0.00731678,-0.00224332 0.00740502,-0.000411801 0.000206787,0.00112085 0.000613414,0.003487 0.00122018,0.00709846 0.000469299,0.00286383 0.000653767,0.00523013 0.000554438,0.00709802zm0.0510318 0.0300289c-0.00011278,0.00211665 -0.00135099,0.00410929 -0.00371448,0.00597717 -0.0051478,0.0040679 -0.00754677,0.0020117 -0.0128919,0.000747183 -0.00395586,-0.000747183 -0.00948516,-0.0011207 -0.0165881,-0.0011207 -0.00204215,0 -0.00517131,0.000404854 -0.00938746,0.00121427 -0.0042163,0.000809264 -0.00734545,0.00121397 -0.00938761,0.00121397 -0.00221953,0 -0.00411328,-0.0011207 -0.00568081,-0.0033621 -0.00156768,-0.00224155 -0.00226875,-0.00491899 -0.0021029,-0.00803248 0.000397759,-0.00747154 0.00474295,-0.0132001 0.0130347,-0.0171851 0.00610798,-0.00298888 0.0125358,-0.00448325 0.0192837,-0.00448325 0.00701436,0 0.0130478,0.00174343 0.0181006,0.00523043 0.00668031,0.00460785 0.00979172,0.0112077 0.00933425,0.0198006zm-0.038753 -0.0330175l-3.97611e-005 0.000747183c-0.00219469,0.00286413 -0.00435761,0.00429612 -0.00648845,0.00429612 -0.00124309,0 -0.00236142,-0.00108951 -0.0033553,-0.00326869 -0.000993879,-0.00217947 -0.00144101,-0.004203 -0.00134153,-0.00607088 0.000125935,-0.00236615 0.00115588,-0.00544845 0.00308939,-0.0092466 0.00193351,-0.00379814 0.00365506,-0.00569736 0.00516451,-0.00569736 0.00266384,0 0.00365418,0.00641336 0.00297114,0.0192402zm-0.0107726 -0.0353044c-0.00191134,0.00647603 -0.00403508,0.0124804 -0.00288896,0.0192401 -0.00126216,-0.00205989 -0.00475655,-0.00156694 -0.00729283,0.000903419 0.00185473,-0.0059989 0.00492697,-0.0182577 0.0101818,-0.0201435zm0.0246179 0.0254041c-0.000245366,0.00460785 -0.00146525,0.00834362 -0.00365994,0.0112079 -0.00113829,0.00136991 -0.0023734,0.00205457 -0.00370517,0.00205457 -0.00150944,0 -0.0027583,-0.00155659 -0.003747,-0.00466964 -0.000837496,-0.00261507 -0.00119313,-0.00510583 -0.00106705,-0.00747198 0.000125935,-0.00236586 0.00115248,-0.00538578 0.00307949,-0.00905961 0.00192686,-0.00367369 0.00364501,-0.00551038 0.00515446,-0.00551038 0.00133177,0 0.0023898,0.00180551 0.00317424,0.00541682 0.000639873,0.00298903 0.000896915,0.00566647 0.000770981,0.00803233zm-0.0114024 -0.0384799c-0.000424217,0.00642873 -0.00189213,0.0133342 -0.00440446,0.0207154 -0.000212847,0.000625683 -0.000433677,0.00125477 -0.000661453,0.00188695 -0.001215,0.0025252 -0.00335368,0.00256452 -0.00493067,0.00130753 -0.000175451,-0.000871935 -0.000249948,-0.00155659 -0.00022349,-0.00205457 0.00029843,-0.0056041 0.00370488,-0.0128889 0.0102201,-0.0218553zm0.0256568 0.0409082c-0.000232063,0.00435849 -0.00136459,0.00728515 -0.00339743,0.00877951 -0.000891003,0.000684807 -0.00234073,0.00122269 -0.00434933,0.00161321 -0.00611833,0.00118869 -0.00504626,-0.00774558 -0.00479601,-0.0124474 0.000125935,-0.00236586 0.00108656,-0.00498137 0.00288142,-0.0078455 0.00179501,-0.00286398 0.00353622,-0.00429627 0.00522304,-0.00429627 0.00133207,0 0.00247213,0.00193026 0.00342093,0.00579093 0.000804238,0.00323779 0.00114332,0.00603969 0.00101738,0.00840555zm0.010308 0.0140096c-0.00103364,0.00273982 -0.00221642,0.00410973 -0.0035482,0.00410973 -0.000976733,0 -0.00217016,-0.000934016 -0.00357983,-0.0028019 -0.00140997,-0.00186833 -0.00207866,-0.003487 -0.00200564,-0.00485691 0.000159044,-0.00298858 0.00100408,-0.00635084 0.00253495,-0.010087 0.00121988,-0.00345168 0.0030551,-0.00447157 0.00458657,-0.00454902 0.00525807,-0.00026532 0.00317956,0.0148831 0.00201215,0.0181852zm-0.0320955 -0.037546c9.28251e-005,-0.00174343 0.00163907,-0.0107719 0.00463874,-0.0270853 0.000758417,0.00590459 0.000864988,0.0154144 0.000318976,0.0285309 -0.000237088,0.00568436 -0.00524418,0.00393457 -0.00495772,-0.00144559zm0.0145486 0.00691163c-0.000794926,0.000107458 -0.00147574,-0.000878883 -0.00204245,-0.00295932 -0.000499896,-0.00183566 -0.000911105,-0.00452301 -0.00123289,-0.00806174 -0.000425251,-0.00535489 -0.000531675,-0.0100245 -0.000319567,-0.0140095 0.00468811,0.0103358 0.00697238,0.0166246 0.00685295,0.0188661 -0.000291926,0.00548333 -0.00361323,0.00616445 -0.00325804,0.00616445zm0.0161421 0.00881765c-0.000532414,-0.00155748 -0.00228146,-0.00246341 -0.00490303,0.000957813 0.000278623,-0.00523043 -0.000701805,-0.0125774 -0.00172303,-0.0234116 0.000752652,0.00087164 0.00210615,0.00379829 0.0040608,0.00877922 0.00211103,0.0053809 0.00293256,0.00767566 0.00256526,0.0136746z"/>
 </g>
</svg>
