<?xml version="1.0" encoding="UTF-8"?>
<!DOCTYPE svg PUBLIC "-//W3C//DTD SVG 1.1//EN" "http://www.w3.org/Graphics/SVG/1.1/DTD/svg11.dtd">
<!-- Creator: CorelDRAW -->
<svg xmlns="http://www.w3.org/2000/svg" xml:space="preserve" width="3in" height="0.915585in" style="shape-rendering:geometricPrecision; text-rendering:geometricPrecision; image-rendering:optimizeQuality; fill-rule:evenodd; clip-rule:evenodd"
viewBox="0 0 0.188708 0.0575928"
 xmlns:xlink="http://www.w3.org/1999/xlink">
 <defs>
  <style type="text/css">
   <![CDATA[
    .fil0 {fill:black}
   ]]>
  </style>
 </defs>
 <g id="Layer_x0020_1">
  <metadata id="CorelCorpID_0Corel-Layer"/>
  <path class="fil0" d="M0.0808748 0.033085c0,0.00300923 0.00490149,-0.00175468 0.00490149,-0.00285869l0 -0.00408482c0,-0.00131205 -0.00328714,-0.00364025 -0.00490149,-0.00367608l0 0.0106196zm0.0894524 -0.000816676l-0.0420709 0c0.000440252,0.00164753 0.00595261,0.00612726 0.00816927,0.00612726l0.0273669 0 0 0.0175635c0,0.000941598 0.000283739,0.00122534 0.00122534,0.00122534l0.00694315 0c0.00111142,0 0.00762569,-0.00671014 0.00888377,-0.00786337 0.00172474,-0.00158053 0.00786344,-0.00616159 0.00786344,-0.00847474l0 -0.0392122c-0.000915981,-0.000214009 -0.000938792,-0.000408374 -0.00204201,-0.000408374l-0.0196063 0c-0.00356217,0 0.00111106,0.0208313 -0.00245031,0.0208313l-0.0224654 0c-0.00116669,0 -0.000747306,-0.000128449 -0.00122541,-0.000817035l0.0194278 -0.0157363c-1.89255e-005,-0.00215981 -0.00396385,-0.00550365 -0.00676576,-0.00550365l-0.00326778 0c-0.00730215,0 -0.0119529,0.000180908 -0.0151123,0.00449312 0.00107595,0.000533656 -0.000336198,0.000408302 0.00122498,0.000408302l0.0142957 0c-0.00083042,0.00310976 -0.022398,0.0168375 -0.025324,0.0208313 0.00107674,0.000534088 -0.000336198,0.000408734 0.00122498,0.000408734l0.044522 0c0.00355433,0 -0.00110279,-0.0200146 0.00245111,-0.0200146l0.00816891 0 0 0.0343107c0,0.00104839 -0.00898516,0.00885232 -0.0102113,0.00898595l0 -0.0159295c0,-0.000941167 -0.000284171,-0.00122577 -0.00122577,-0.00122577zm-0.0763813 -0.0232824l-0.0204234 0c-0.00110322,0 -0.00112646,0.000195516 -0.00204201,0.000408302 0.000269203,0.00209922 0.00819489,0.00793598 0.0101352,0.00947031 0.00176216,0.00139408 0.00979701,0.00815272 0.0111047,0.00850195 -4.88609e-005,0.00218982 -0.00385188,0.00476153 -0.00532196,0.00570673 -0.00202985,0.00130615 -0.00407892,0.00343214 -0.00603861,0.00498936 -0.00224458,0.00178382 -0.010979,0.00784488 -0.0115139,0.010136l0.0232824 0c0.00115093,0 0.0111435,-0.00870372 0.0114375,-0.00980298l0.00122498 0c0.00244636,0 0.0100453,0.00980298 0.0130707,0.00980298l0.00122541 0 0.00449355 -0.000117079 0.0167461 0.000117079c-5.55532e-005,-0.00250709 -0.00365486,-0.00413728 -0.00523416,-0.00538629 -0.00206446,-0.00163328 -0.00381007,-0.00305967 -0.00596247,-0.00465712 -0.00238411,-0.00176806 -0.00981954,-0.00865882 -0.011677,-0.00915419 7.36872e-005,-0.00328987 0.0083817,-0.00756977 0.0107284,-0.0096954 0.00178699,-0.0016191 0.0094683,-0.00818813 0.0113286,-0.00868595 -0.000612884,-0.00229546 -0.0108135,-0.00163371 -0.0138877,-0.00163371l-0.00571853 0c-0.00756193,0 -0.0125182,0.00898631 -0.0155212,0.00898631 -0.000491056,0 -0.00984472,-0.00898631 -0.0114366,-0.00898631zm-0.0845514 0.0220571c0.000326771,-0.00122339 0.0314131,-0.0253241 0.0318601,-0.0253241l0.00571774 0c0.000788683,0 0.000727589,0.000128089 0.00122577,0.000407942l-0.0251586 0.0197052c0.00131996,0.000843085 -9.37641e-005,0.00071773 0.0014682,0.00071773l0.0441137 0c0.000940807,0 0.00122455,-0.000283739 0.00122455,-0.00122534l0 -0.0183806 0.0151136 0c0.000941167,0 0.00122534,-0.000284602 0.00122534,-0.00122498l0 -0.00285948c0,-0.000941598 -0.000284171,-0.00122534 -0.00122534,-0.00122534l-0.0212396 0 0 0.0196059c0,0.000941239 -0.000283811,0.00122541 -0.00122577,0.00122541l-0.0232824 0c0.000239627,-0.00287286 0.0165872,-0.0129928 0.0187897,-0.0171556 -0.000977506,-0.0014595 -0.00387793,-0.00490149 -0.00612647,-0.00490149l-0.0126632 0c-0.0021914,0 -0.0173164,0.0125556 -0.0200848,0.0146339 -0.00213585,0.00160414 -0.0191271,0.0141432 -0.0191271,0.0151841 0,0.00127823 0.00695962,0.00776766 0.00817007,0.00857722 0.00912145,0 0.0182438,0 0.0273656,0 0.00449434,0 0.00898674,0 0.0134795,0 0.00244521,0 0.0122545,-0.000937281 0.0122545,0.00122498l0 0.0175643 0.00816891 0c0.00113193,0 0.00663724,-0.00546825 0.00735224,-0.00653556 -0.00830413,-0.003984 -0.00817129,0.00715312 -0.00816927,-0.0130708 0,-0.00636099 0.00125844,-0.00572443 -0.00490149,-0.00571817 -0.00340379,3.16625e-006 -0.00680793,0 -0.0102121,0 -0.0140234,0 -0.0280475,0 -0.0420709,0l-0.00204244 -0.00122534z"/>
 </g>
</svg>
