<?xml version="1.0" encoding="UTF-8"?>
<!DOCTYPE svg PUBLIC "-//W3C//DTD SVG 1.1//EN" "http://www.w3.org/Graphics/SVG/1.1/DTD/svg11.dtd">
<!-- Creator: CorelDRAW -->
<svg xmlns="http://www.w3.org/2000/svg" xml:space="preserve" width="5548in" height="7180in" style="shape-rendering:geometricPrecision; text-rendering:geometricPrecision; image-rendering:optimizeQuality; fill-rule:evenodd; clip-rule:evenodd"
viewBox="0 0 116.485 96.7891"
 xmlns:xlink="http://www.w3.org/1999/xlink">
 <defs>
  <style type="text/css">
   <![CDATA[
    .fil0 {fill:#0A0B0C}
   ]]>
  </style>
 </defs>
 <g id="Layer_x0020_1">
  <metadata id="CorelCorpID_0Corel-Layer"/>
  <path class="fil0" d="M70.6866 55.7458c0.415164,-0.286176 1.36019,-0.977608 0.559205,-1.36153 -0.26617,0.296655 -0.473848,0.966748 -0.559205,1.36153zm-12.6733 -6.87851c-0.203867,0.924641 0.0853574,1.98227 0.670665,2.74725 1.14223,0.144993 2.1789,-0.896062 2.04686,-2.04343 -0.663234,-0.253214 -2.2755,-0.829567 -2.71753,-0.703817zm-6.84878 18.9996c-0.0243878,0.758309 -0.0645896,2.08116 0.289986,2.69924 0.700769,1.22282 2.41878,0.102505 2.50794,-1.05039 0.0520146,-0.673904 -0.0550631,-0.545677 -0.700197,-0.762691 -0.881391,-0.296464 -1.27293,-0.888059 -2.09773,-0.886154zm-10.3886 -16.1773c-0.361626,-0.300847 -3.68923,-1.55796 -4.27282,-1.60655 -0.164237,4.12497 3.75153,4.13735 4.27282,1.60655zm17.9292 -5.14507c0.356291,0.467751 1.61493,1.8851 2.55596,1.51605 0.283127,-0.894919 0.495759,-4.24177 -0.770693,-4.44163 -0.34886,-0.0550631 -0.914924,0.0283889 -1.04791,0.304467 -0.355338,0.737541 0.414402,-0.337619 0.152614,0.70496 -0.129941,0.517479 -0.889203,0.760404 -0.889965,1.91616zm-6.19832 16.3356c0.129941,0.519575 0.22311,0.397636 0.37744,0.944075 -1.21425,1.49928 -1.65742,1.4084 0.0264836,2.88062 0.504332,0.441077 0.793366,0.752212 1.65056,0.728777 0.0998376,-1.18757 0.283127,-2.41782 0.0217204,-3.60635 -0.231684,-1.05306 -1.20682,-1.61131 -2.0762,-0.947124zm29.8213 -32.8266l-0.0201962 -0.0186719m-10.0487 39.6609c1.09536,0.149566 1.34171,-0.517288 1.77688,-1.29732 0.396302,-0.710867 0.761738,-1.35886 1.06297,-2.10345 0.387347,-0.957603 1.91311,-3.90777 0.615983,-4.71485 -2.26216,-1.40763 -4.53137,5.88051 -3.45583,8.11562zm37.565 -13.0439c-0.0422976,-0.636751 0.136991,-1.20262 0.268838,-1.82547l0.278745 -1.34152c0.156616,-0.331522 0.00952649,-0.0908827 0.249022,-0.325044 0.227493,1.03648 0.796796,2.15489 0.734874,3.22072 -0.492329,0.246165 -0.983705,0.255882 -1.53148,0.271314zm-3.5551 9.77285c0.113365,-0.80556 1.07802,-3.0037 1.54443,-3.537l0.875485 4.16022c-0.95284,-0.0314374 -1.61436,-0.473276 -2.41992,-0.623223zm-6.2429 8.90098c0.14023,-0.674094 0.973798,-1.50309 1.40802,-1.80051 -0.00019053,0.748401 -0.1368,1.59245 -0.540533,2.10212l-0.867482 -0.301609zm-8.08075 7.08314c0.363531,-0.531578 1.82108,-1.28779 2.3982,-1.75306 -0.00304848,0.241592 -0.524338,2.57253 -0.852811,2.98293 -0.567588,-0.0563968 -1.30723,-0.774694 -1.54539,-1.22987zm-10.2193 5.59891c0.245021,-0.302942 1.21158,-0.68343 1.74582,-0.827852 -0.283127,0.730491 -0.172239,0.386394 -0.64723,0.758118 -0.330569,0.258739 -0.170143,0.214727 -0.573304,0.550631l-0.525291 -0.480897zm-40.6812 3.59206c0.0811657,-0.797558 0.269981,-0.854526 0.515383,-1.45984 0.878914,0.0221015 1.99447,0.277602 2.42773,0.814705l-2.94311 0.645134zm30.0848 -0.103839c1.02772,-0.183671 1.82432,-0.442601 2.90672,-0.655613 -0.250547,0.791842 -1.71744,2.00094 -2.39077,2.2111 -0.256644,-0.365627 -0.460892,-0.962938 -0.515955,-1.55549zm-17.7578 2.73124c-1.74964,-0.982372 -2.05829,-0.847858 -2.04743,-1.84566l4.68017 0.566255 0.110126 2.6798c-0.910542,-0.217395 -2.04267,-1.00714 -2.74287,-1.40039zm35.4405 -85.4235l-1.8409 2.15127c-0.892823,0.0207677 -3.05934,-1.2171 -3.68447,-1.63627l5.52536 -0.515002zm4.81012 6.69979l3.9876 1.17881 -0.258168 0.868435c-1.69171,0.242926 -2.1528,-0.44584 -3.33046,-1.65075l-0.398969 -0.396493zm11.7121 -3.47641c-0.00743066,0.221015 0.00228636,-0.066876 0,0zm-12.9657 17.0116c0.104029,-0.499379 0.778314,-1.91825 1.08373,-2.36657 0.800225,-1.17404 0.780791,-0.953792 1.84014,-1.77898 0.356291,-0.277602 0.651993,-0.528149 1.00886,-0.808799 0.602646,-0.474038 2.55196,-2.17356 2.79317,-2.87624 -1.35772,0.358387 -4.07753,2.72991 -4.96692,2.96503 0.0865005,-3.2855 1.15366,-2.77564 4.12135,-5.40476 1.006,-0.891298 3.63398,-2.61407 4.41686,-3.73858l1.30075 -1.59874c1.11784,-1.32952 0.740018,-1.25826 1.57759,-1.58044l0.236066 0.607028c0.442601,1.35962 0.193769,4.99988 -0.113365,6.29034 -1.03896,4.36485 -6.99854,6.52889 -10.8173,8.87869 -0.705532,0.434027 -2.15222,1.17195 -2.48089,1.41202zm-8.83106 -1.85919l1.73153 -1.25921c0.038106,-0.0247689 0.150519,-0.0945028 0.188625,-0.119272l3.82279 -2.68056c0.585498,-0.4748 0.46737,-0.514049 1.0683,-0.899872 1.0984,-0.70496 1.51185,-1.32228 2.39267,-1.55301 0.245212,3.55891 -1.33142,9.21917 -4.60072,10.8366 -0.573876,0.283889 -1.19481,-0.823851 -1.53643,-1.22358 -0.52872,-0.61846 -0.997995,-0.94236 -1.5351,-1.49413 -0.780982,-0.802131 -0.524529,-0.726109 -1.53167,-1.60693zm8.19259 6.80477c0.403542,-0.304848 1.32666,-0.578067 1.85271,-0.822708 0.696577,-0.324282 1.25102,-0.639228 1.91025,-0.946552 0.8953,-0.417641 3.11116,-1.78126 3.44059,-2.27912 -0.905398,0.012575 -4.19261,1.53434 -5.20585,2.02419 -2.12898,1.02943 -4.25224,2.31341 -5.08143,0.813562 0.34886,-0.643038 1.42002,-1.0422 2.14594,-1.48937 2.61788,-1.61303 4.56147,-2.49042 7.14163,-3.89214 1.84528,-1.00257 5.78201,-2.43878 7.93766,-2.95664 1.47565,-0.354576 1.92092,-0.487947 2.96769,0.166523 0.145946,3.02504 -3.82031,7.1342 -6.79391,7.92871 -1.3781,0.368294 -2.44793,1.34743 -3.12469,1.36172 -0.755641,0.015814 0.358196,-0.559777 -2.02324,0.325997 -0.847858,0.315327 -1.84452,0.591595 -2.75354,0.861004 -1.2032,0.356481 -1.24702,0.0552536 -2.41382,-1.09517zm-1.66942 0.97094c1.47146,-0.0457272 2.18233,1.02715 1.53834,2.41363 -0.576162,-0.236066 -1.12089,-1.84242 -1.53834,-2.41363zm2.67294 5.46649c-0.223491,-0.388109 -0.422976,-0.825185 -0.542629,-1.24454 1.62693,-0.313612 7.1704,-0.707247 7.58213,-2.59101 -0.549107,0.0842142 -7.66463,1.65742 -6.3536,-0.0754498 0.189958,-0.251118 0.675238,-0.368294 1.12698,-0.540343 3.97064,-1.51376 9.59318,-3.34685 13.7603,-2.57596 2.56872,0.474991 2.47155,1.95674 1.09193,3.48631 -0.854526,0.947124 -3.01761,2.01523 -4.31474,2.46736 -1.63665,0.570446 -10.7699,1.42059 -12.3503,1.07364zm17.7258 1.9958l-0.280269 -1.04906c0.417451,0.135657 3.7401,3.40324 3.86071,3.56538 0.278745,0.374582 0.222348,0.477849 0.105935,0.689527l-3.33027 0.20863c-0.12575,-0.603408 -0.0289605,-1.23082 -0.0760214,-1.86548 -0.0466798,-0.631035 -0.19777,-0.961604 -0.280079,-1.54901zm-51.7603 -38.3971c0.686669,-0.488709 5.01017,-2.28655 5.67722,-2.19814 0.124035,1.00695 0.00342954,1.63208 -0.221967,2.5531l-5.45525 -0.354957zm-10.65 0.957984c0.319328,-0.394778 1.45108,-0.938359 1.95865,-1.17214 0.821565,-0.378392 1.21025,-0.699625 2.11031,-0.97818l0.0278174 1.34495 -0.981038 0.390015c-1.16014,0.272648 -1.84338,0.452699 -3.11573,0.415355zm-30.8405 12.5087c0.0965986,-0.4889 0.0948838,-0.718107 0.315898,-1.07821 0.778314,-0.0127655 0.662091,0.0312469 1.14394,0.373057 1.56006,1.10603 1.44422,1.13689 -0.397064,2.80536 -0.367532,0.333046 -1.2352,1.14108 -1.84738,1.30723l0.784602 -3.40744zm-12.5673 5.92433c0.399541,0.325044 0.795843,0.678096 1.24264,1.03743 0.693719,0.558062 1.81537,1.30437 2.72172,1.80013l2.91358 1.63684c3.53052,1.85176 2.7402,0.595025 3.42249,3.77763 -0.847096,-0.0800225 -3.05134,-1.19481 -4.5952,-1.70353l1.92664 1.40916c0.778886,0.423548 1.29313,0.669522 1.99923,1.16433 0.681144,0.477277 1.36781,0.82366 1.80032,1.4023 0.458796,0.613697 0.860814,1.18986 1.19291,1.91235 -1.19958,-0.0179098 -8.26366,-2.69866 -10.406,-3.9051 -2.52528,-1.42231 -3.57186,-3.78335 -3.94073,-6.76686 -0.0996471,-0.80537 -0.27703,-2.27855 0.476896,-2.84632 0.91702,0.225968 0.174144,0.209964 1.24549,1.08164zm17.6993 12.0548c-0.400303,0.561491 -0.563016,1.23044 -1.18414,1.76583 -1.68447,-0.365436 -3.07687,-1.95198 -3.90148,-3.45412 -0.741161,-1.3499 -1.74868,-3.87176 -1.50538,-5.52308l8.70855 4.21623 -0.822136 1.26512c-0.373819,0.458986 -0.477277,0.639418 -0.828043,1.13441 -0.144231,0.203486 -0.308658,0.372867 -0.46737,0.595596zm-10.8598 2.18881c0.873008,1.18071 6.0076,2.01676 6.82344,2.53367 -0.372486,1.92549 -2.73315,0.961032 -4.47859,0.6941 -1.73096,-0.264646 -3.75344,-0.278745 -5.39276,-0.702483 -1.77078,-0.457653 -6.37437,-3.38743 -6.37132,-5.8104 4.12935,-1.68695 17.1629,2.96045 18.4728,4.15412 -0.300275,1.03648 -0.889584,0.832996 -1.91082,0.579782 -1.92988,-0.478992 -5.41448,-1.57359 -7.14277,-1.44879zm6.80058 6.89242c0.076593,0.156616 0.256453,0.556347 0.000762119,1.08373 -0.216251,0.44584 -0.0735445,0.312278 -0.778505,0.397064l-6.79124 0.646468c-4.2633,0.311516 -9.85706,-2.47289 -7.30949,-4.11525 0.5251,-0.338571 0.937216,-0.612934 1.59092,-0.819659 2.92863,-0.926928 5.90985,-0.321043 8.88307,0.135848 2.2292,0.342382 3.22167,0.142326 3.65436,1.18814 -1.15766,0.822136 -4.76191,0.00495378 -5.70599,0.452889 1.34933,1.7584 4.67465,0.649135 6.4561,1.03077zm1.55263 30.786l-0.00571589 -0.00457272 0.0342954 0.0175287 -0.0285795 -0.012956zm60.072 -69.696c-0.137181,-0.143469 -0.236448,-0.269409 -0.347526,-0.397445 -0.135848,-0.156425 -0.207296,-0.229969 -0.339143,-0.396683 -1.21444,-0.51062 -0.0792604,-1.24435 -2.51899,-0.950744 -5.6151,0.675809 -4.17737,1.44079 -7.22508,-1.12508 -2.9614,-2.49308 -2.57806,-3.59015 -5.79268,-2.07601 -0.961413,0.452889 -4.28311,1.96493 -5.32226,2.14136 -1.84261,0.31285 -4.10039,-1.48518 -6.13106,-1.29503 -1.1851,0.111079 -3.86604,1.90987 -4.99398,2.374 -2.56758,1.05687 -7.19098,-2.66589 -8.96138,-0.932262 -1.26893,1.24283 -1.12946,1.84604 -1.60312,1.91768l-0.0375344 0.196627 -0.186719 0.162903c-0.221967,0.544153 -1.01171,1.28646 -1.62865,2.13203 -1.66294,2.28026 -6.34617,-0.0661138 -8.29052,2.74058 -2.23377,3.22415 -1.29408,3.59092 -3.62845,3.79783 -1.37277,0.121749 -5.69379,0.438409 -6.6291,0.827852 -0.851668,2.02819 -0.417451,5.36913 -1.85633,6.88479 -0.427168,0.449841 -4.8446,3.13898 -5.56252,3.25577 -0.325234,-0.260264 -0.590071,-0.522814 -0.972655,-0.782696 -0.465464,-0.31647 -0.652755,-0.403923 -0.968273,-0.69048 -0.649135,-0.58969 -1.22015,-0.97799 -1.80394,-1.53034 -0.246165,-0.232827 -0.221967,-0.243878 -0.454414,-0.45689l-1.22644 -1.19672c-1.31237,-1.3701 -0.78765,-1.64313 -1.63856,-1.64218 -0.581116,1.60502 -0.797558,6.57899 -0.344668,8.34178 0.302942,1.17957 0.756403,2.18614 1.42383,3.1205 0.881772,1.23425 1.80108,1.90187 2.01104,2.57882 -1.55682,0.131847 -3.69647,0.0424881 -4.69504,0.925975 -0.332856,1.4989 0.807656,3.17575 1.40744,3.95006 0.609314,0.786888 2.13774,1.69343 2.94635,2.45021 -0.310754,0.628748 -1.5734,1.16033 -2.14251,1.58578 -0.57521,0.430216 -1.70105,1.13232 -1.90282,1.74868 -0.40259,1.23082 2.51366,2.81851 3.34685,3.58348 -0.163856,0.29113 -0.275697,0.472133 -0.494044,0.751259 -0.103077,0.131656 -0.176812,0.203295 -0.272839,0.332475l-1.31828 1.72239c-2.45288,3.63474 -2.69028,2.5047 1.62865,6.60929 2.00495,1.9053 0.0847858,3.04695 0.211298,5.58195 4.3094,3.54843 3.97388,1.95579 3.40039,6.06133 -0.166333,1.191 -0.464512,1.80679 0.151281,2.59864l0.278745 0.164618c0.0278174,0.0156234 0.066876,0.0392491 0.0965986,0.0552536 0.0302942,0.016195 0.0685907,0.038106 0.100028,0.0541105l1.66637 0.639609c1.22415,0.459558 3.60959,1.02353 4.05771,1.66809 0.285033,0.41002 0.741542,1.71134 0.81642,2.16556 0.295321,0.757737 0.041345,0.969035 0.72992,1.30037 0.307515,0.148042 1.05268,0.350765 1.47527,0.497854 0.964843,0.335904 2.23834,0.634464 2.80136,1.26417 0.693719,0.776028 1.49699,3.78849 2.35666,4.89166 0.382774,0.491186 -0.272267,0.149756 0.576734,0.446411 0.403923,-0.323329 8.5807,2.69028 8.58985,3.12736 0.494044,0.461654 0.505857,0.559205 1.07821,0.204248 1.13937,0.417451 1.89596,0.446792 2.50204,0.684383 1.72239,0.0306753 1.61836,0.104601 2.35876,1.02905 0.516907,0.645134 1.0925,1.20167 1.62674,1.85386 0.358577,0.437838 1.34209,1.61607 1.63246,1.84661 0.918735,0.729348 3.99427,-0.283699 5.61834,-0.631797 1.20529,-0.258358 1.69057,0.0720203 2.48527,0.552346l6.56261 3.74353c0.774504,0.397636 1.41735,0.992851 2.42163,0.515764 1.59264,-0.756784 3.00675,-1.54443 4.57672,-2.24044 1.85805,-0.82366 2.60168,-1.74544 5.20775,-1.09993 1.50157,0.371914 4.25872,1.21996 5.80106,1.16566l1.97808 -2.07468c0.269409,-0.217966 0.327711,-0.203295 0.594453,-0.460892 0.231113,-0.22292 0.261026,-0.323901 0.512335,-0.551012 2.39267,-2.16232 1.7786,-1.65189 4.37685,-1.58997 3.24282,0.0773551 2.63293,0.332284 5.32531,-2.47651 0.72287,-0.753926 0.982943,-1.50938 2.39496,-1.66466 2.30579,-0.253405 6.53479,0.307896 7.09038,-0.950172 0.636179,-1.44117 1.11308,-5.2893 2.22691,-5.95615l2.93797 -1.14013c0.497664,-0.199294 0.922736,-0.363531 1.45908,-0.526624 0.777552,-0.236257 0.644562,-0.19777 0.917401,-1.03591 0.954935,-2.93263 -0.309992,-3.72753 2.75277,-5.42172l4.96787 -2.60149c1.09821,-0.650469 -0.765358,-4.23376 -0.793938,-6.3134 -0.0251499,-1.82147 2.40753,-2.90882 3.37809,-3.96283 1.77555,-1.92835 -1.57644,-4.82231 -0.281794,-6.93624 0.305419,-0.498426 1.98989,-2.65827 2.50909,-3.02085l0.133371 -0.340096c0.251309,0 0.199866,0.0643991 0.16919,-0.17986 0.493472,-0.438409 0.584355,-0.577115 0.653517,-0.978371 0.27703,0.00666854 0.201199,0.0554442 0.10422,-0.228636 0.000762119,-0.00019053 0.757737,-0.145374 0.43879,-0.885773l-5.55413 -5.55795c-0.0249594,-0.981229 0.53234,-2.37191 1.00924,-2.97569 0.2877,-0.364102 0.541105,-0.677333 0.880438,-1.08183 1.2916,-1.54005 -0.123273,-2.1507 -0.808418,-2.58682 -2.05696,-1.3097 -2.30503,-1.19557 -4.53404,-1.83004 0.53596,-1.09593 1.87424,-1.84185 2.73182,-3.34685 0.618269,-1.08507 1.44936,-3.60902 1.00219,-4.86766 -0.897776,-1.14547 -4.41686,-0.0847858 -5.85365,-0.0632559 0.477468,-1.3259 5.3939,-4.27168 1.56215,-14.3029 -0.289986,-0.482612 -0.371533,-0.619412 -0.498617,-1.26931 -0.503189,0.293797 -0.0382965,-0.0754498 -0.509096,0.336476 -0.317613,0.277602 -0.35972,0.603217 -0.631225,0.992089l-0.0312469 0.135276 -0.222539 0.151852 -0.123844 0.337238 -0.166523 0.252643 -0.245783 0.508143c-0.481659,0.826518 -0.7947,1.33904 -1.37201,2.09183 -0.540152,0.704008 -1.03343,1.12374 -1.54291,1.77631 -0.374391,0.479564 -0.49976,0.514049 -0.941979,0.879295 -1.55815,1.28684 -0.955888,1.48556 -3.14107,0.663425 -4.26006,-1.60293 -4.47593,-1.76945 -5.50441,-4.63807 -0.284461,-0.793557 -0.674666,-1.40306 -0.976846,-2.27778 -0.239305,0 -0.159664,0.0516336 -0.174906,-0.220062l-0.0451556 -0.247498c-0.00019053,-0.000571589 -0.250166,-0.609505 -0.400684,-0.854526 -0.997043,-0.157187 -4.7379,0.355338 -5.83936,0.587403 -0.807465,0.169953 -1.96036,0.58245 -2.57768,0.174335 -0.112413,-0.0744972 -1.20529,-1.2977 -1.40001,-1.82604 -0.259311,0.0512525 -0.246736,0.130132 -0.169,-0.105554l-0.11165 -0.145374 -0.198532 -0.193007 -0.110317 0zm-54.1347 74.2148c-1.29122,-0.83776 -4.31417,-2.83184 -4.99569,-3.75172l-0.941598 -0.767073c-0.731444,-0.334189 -0.682668,-0.578449 -1.29389,-1.05363l-3.553 -3.31369c-1.75726,-0.903683 -6.86574,-9.5705 -6.96863,-12.9263 2.4767,0.0994566 2.23568,1.59035 3.66122,4.79011 0.853193,1.91521 4.3336,7.69474 5.57509,8.19735l0.155663 0.153186 0.130703 0.166142 0.0485851 0.0941217c2.60149,2.47365 7.04293,5.31064 7.88812,6.1122l0.00457272 -0.0131466 7.25118 4.47307c0.0140992,0.145184 0.0950744,0.107078 0.458605,0.317042 0.660376,0.38125 2.14156,1.02962 2.59826,1.51928 0.542248,0.121558 1.58673,0.746115 2.38124,1.0723 3.17613,1.30437 4.05447,1.76088 7.84087,2.76325 12.9179,3.41982 23.906,1.63189 35.3795,-3.92225 3.69514,-1.78869 5.49926,-3.05591 8.73503,-5.46897l3.77668 -3.3398c3.41468,-3.21786 6.83545,-8.30291 8.66587,-12.667 1.49375,-3.56119 2.17966,-7.24528 2.52242,-8.06494 0.214727,-0.513287 0.41364,-0.586451 0.982372,-0.847286 0.540152,-0.247689 0.74078,-0.472704 1.20243,-0.673142 -0.841761,-3.09668 -1.97465,-1.91178 -1.51395,-4.42906 0.353814,-0.767073 1.06316,-1.18243 2.05448,-1.1226l0.0367723 1.58788c0.0973607,6.44296 -2.16328,12.1821 -4.85661,17.4422 -1.22111,2.38505 -0.570827,1.30437 -2.04934,3.41468 -0.508715,0.725919 -0.163094,0.648563 -0.421833,1.38687 -0.280079,0.185957 -0.638465,0.327902 -0.918163,0.602646l-1.39182 1.62617c-0.236448,0.248832 -0.527577,0.485089 -0.671808,0.688956 -0.542819,0.767835 0.688384,0.509286 -1.24473,1.51319 -0.434027,0.225397 -1.0664,0.919878 -1.54882,1.29675 -2.52204,1.97065 -3.21767,2.99646 -6.6573,5.14602 -5.03818,3.1487 -10.225,5.68312 -16.1733,7.27386 -11.3384,3.03209 -24.2699,2.01542 -34.9971,-3.13345 -3.39581,-1.62998 -8.58337,-3.59587 -11.1521,-6.14325zm7.55946 1.63417c-1.96074,-1.45946 -9.83477,-5.87403 -10.7712,-7.15211 -0.446983,-0.609886 0.632368,0.263312 -0.408496,-0.152614 -0.594834,-0.237591 -1.86262,-1.35048 -2.30084,-1.82051 -0.404495,-0.433836 -0.777362,-0.644753 -1.19443,-1.07116 -0.148994,-0.152233 -0.096027,-0.0994566 -0.21949,-0.232256l-0.885202 -1.05706c-1.18948,-0.581116 -5.9693,-8.32139 -6.10419,-10.8735 0.660376,0.0363912 1.71153,0.130703 2.19338,0.465083l0.543201 3.63645c2.26845,0.537485 2.54414,0.551965 5.06905,0.527387l2.77831 4.07905c0.581688,0.441267 1.54329,1.70962 2.03029,2.1406 0.0234352,0.0207677 0.0565874,0.0504904 0.0802131,0.0708771 0.0234352,0.0205772 0.0567779,0.0501093 0.0805941,0.070496l1.55968 1.30742c3.4886,2.69981 4.13431,3.29693 8.25413,5.52479 3.23482,1.74925 3.56824,2.01123 7.01569,3.57301 0.726871,0.329236 1.02696,0.251118 1.50271,0.689146 0.705341,0.0689718 3.31236,1.02467 4.38752,1.29332 8.31034,2.0762 16.1177,1.86719 24.2234,-0.923498 2.67066,-0.919497 5.57204,-2.18309 7.70007,-3.50461 2.47422,-1.53662 4.8246,-2.86042 6.59652,-4.75505 0.480516,-0.514049 1.03324,-0.859861 1.52443,-1.3499 0.542248,-0.541295 0.840427,-0.893204 1.35981,-1.36591 1.69648,-1.54367 3.64179,-4.39914 4.87299,-6.32292 1.40668,-2.19776 0.869959,-2.93759 2.49365,-3.08906 7.25785,-0.676762 4.47078,-1.95769 5.0077,-5.56995 0.473657,-0.324091 0.840236,-0.434789 1.39277,-0.622461 2.36105,-0.801749 1.18776,-0.0783078 1.24378,2.59521 0.0213393,1.02295 -0.0447745,0.581878 -0.465464,1.21901 -0.206915,0.313612 -0.313422,0.770693 -0.468894,1.18243 -1.23501,3.26911 -1.9495,3.96512 -3.34227,6.49783 -0.501665,0.912066 -0.00628748,0.449269 -0.933977,1.65189 -1.8348,2.37838 -2.44526,3.41525 -4.75467,5.84374l-2.54586 2.44659c-0.341239,0.410973 0.0257215,0.552918 -0.415546,0.94217 -0.383346,0.33819 -0.589118,0.109745 -1.17481,0.485089l-1.90092 1.29008c-4.25682,3.31027 -11.8125,6.38142 -16.8819,7.64348 -3.97159,0.98904 -4.78268,0.961604 -8.44485,1.48613 -1.0744,0.153948 -1.87157,0.0912638 -3.03952,0.119843 -4.3035,0.104601 -7.84811,-0.473276 -11.8182,-1.32132 -1.81823,-0.3883 -8.58947,-2.40582 -9.51963,-3.32475 -0.142326,-0.032009 -0.398398,-0.0817373 -0.468894,-0.111079 -0.532912,-0.221967 -0.240639,-0.105744 -0.422024,-0.270743l-0.0455366 0.0272458c-0.201771,-0.0752593 -0.303895,-0.101552 -0.451746,-0.193197 -0.237019,-0.147089 -0.265408,-0.22654 -0.292273,-0.260835l-0.149185 -0.0114318 -2.20919 -1.29313c-0.13661,-0.0828805 -0.0243878,-0.105744 -0.28065,-0.159283zm39.6519 -75.7882c0.958556,0.141754 3.14317,-0.705341 3.82698,-0.373819l-0.163475 0.305419 -0.528149 0.976656c-0.800606,0.0272458 -2.57558,-0.563397 -3.13536,-0.908256zm-35.8615 2.33266l-0.204629 -0.0335332 -0.279507 0.0937407 -1.03591 0.237781c0.332284,-0.903873 0.346955,-0.558252 0.985611,-1.28646l1.199 -1.34952c0.187862,-0.186338 0.0946933,-0.0764025 0.228445,-0.242544l1.33047 -1.48518c-0.0485851,0.470037 0.158902,0.601312 0.244831,1.16757l0.203676 0.253214 -0.0550631 0.273601c0.234352,0.678096 0.30923,0.565492 0.186529,1.30341 -0.788031,0.418785 -2.22063,0.456128 -2.80346,1.06792zm4.88233 2.7764l-0.0405829 0.00724013c-0.381441,0.00876437 -0.318756,-0.106125 -0.318756,0.208249 -0.865767,-0.0655423 -1.70696,0.569494 -2.6034,0.733921l-0.239115 0.189958 -0.221777 -0.0739256c-0.4889,0.437266 -2.5289,1.20262 -3.14793,1.46136 -4.57329,1.91197 -8.20326,4.4986 -11.9666,7.52688 -1.50614,1.21196 -2.64436,2.03619 -4.05829,3.50232 -0.4245,0.439933 -0.586641,0.867292 -0.971702,1.29198 -0.232446,0.256644 -0.235304,0.211679 -0.497473,0.550631l-0.56454 0.621699c-0.957222,-0.218347 -0.993422,-0.365246 -1.71496,-0.863672 0.233971,-0.632368 0.657899,-0.974179 1.0582,-1.40782l3.66579 -3.60406c1.86948,-1.72429 3.40058,-2.8187 5.40666,-4.27873 3.04867,-2.2191 9.52744,-5.76086 12.5559,-6.63368l0.82004 -0.312088 0.338381 -0.142135c0.808227,0.0386776 2.40334,-0.66876 3.27654,-0.882534 1.17138,-0.286747 2.28598,-0.516145 3.46517,-0.762881 2.23777,-0.468322 5.04637,-0.745924 7.42457,-0.945981 10.6032,-0.89187 18.7354,0.637894 28.2258,4.69847 2.49118,1.06582 9.28776,4.87242 10.2126,6.40256 -0.165951,0.647611 -0.384108,0.836045 -1.00676,1.1186 -0.955126,0.433265 -0.884058,-0.24826 -2.41573,-1.14604 -2.11774,-1.24111 -3.91882,-2.48165 -6.22956,-3.75763 -6.96615,-3.84642 -18.6066,-5.92433 -26.6458,-5.77648 -2.96217,0.0544915 -11.3074,1.17557 -13.8067,2.27378zm-5.74657 9.21917l-2.44354 1.35733c-1.47927,0.836235 -3.21576,1.90682 -4.54585,2.99627 -0.400303,0.327902 -0.694862,0.655804 -1.04982,0.92769l-0.508905 0.408877c-0.872245,0.865196 -1.53072,1.14585 -2.016,1.75268l-0.399922 0.518432c-2.03962,2.14975 -2.23606,2.19548 -4.57919,0.87034 -0.745353,-0.421642 -1.78736,-0.779457 -2.23873,-1.38077 0.254167,-0.854526 0.371724,-0.858337 0.994947,-1.39258 0.452508,-0.387919 0.658281,-0.820993 1.16376,-1.24759l6.50488 -5.4482c0.498998,-0.289034 0.894919,-0.613697 1.37086,-0.926928l6.07866 -3.43582c1.06487,-0.501665 2.10593,-1.03991 3.23482,-1.47394 1.04086,-0.400113 2.40029,-0.815468 3.36133,-1.2373l0.318185 -0.0070496 0.21225 -0.137944 1.01438 -0.259121c0.536341,-0.121367 0.311326,-0.00800225 0.439552,-0.225016l0.217395 0.0495378c4.49898,-0.850525 7.97463,-1.65666 12.7251,-1.7946 9.76618,-0.283699 21.2496,1.75554 29.322,7.287 1.352,0.926546 3.59168,2.0522 4.11849,3.39257 -0.503951,0.269028 -0.70858,0.422976 -1.22187,0.789174l-1.19119 0.92426c-0.435361,0.379535 -2.06706,1.84852 -2.72762,1.70143l-3.61778 -2.32561c-1.21348,-0.760786 -2.4727,-1.40897 -3.83765,-2.04667 -3.03343,-1.41678 -5.29158,-2.16137 -8.7196,-3.07039 -7.68273,-2.03695 -13.5751,-1.57568 -21.406,-0.398969 -0.46032,0.237781 -2.06477,0.551012 -2.79431,0.760023 -0.886345,0.253786 -1.76526,0.536532 -2.74287,0.872817 -1.80546,0.621508 -3.35656,1.39677 -5.0357,2.20005zm8.78057 -0.538056l-0.228255 -0.0236257 -0.333046 0.194721 -0.206534 -0.0419166c-0.371914,0.0137181 -0.322376,-0.103267 -0.322376,0.170905l-2.16575 0.527768c0,0.274553 0.0569684,0.177002 -0.266932,0.196436l-0.155853 0.0411544c-0.810704,0.540533 -5.04161,1.85938 -9.10809,4.8608l-2.50947 1.86472c-0.0931691,0.0598264 -0.190149,0.114508 -0.281222,0.185004l-1.12184 0.997043c-3.0439,2.95493 -2.26064,2.71638 -3.90796,2.15375 0.582259,-1.5412 1.7342,-2.15356 2.81946,-3.10659 0.547773,-0.480707 0.885202,-0.903683 1.49166,-1.38039 0.464893,-0.365246 1.03801,-0.673713 1.5955,-1.12641l6.93224 -4.36256 0.197198 -0.16176 0.16538 0.00647801 0.170524 -0.150519 0.174144 0.00285795 3.27673 -1.29141c8.80495,-2.72686 13.8538,-3.54595 23.4133,-2.08992 7.4661,1.13727 10.9997,3.31941 16.8484,6.60815 0.439933,0.247308 0.654279,0.436313 1.00162,0.674094 0.633131,0.433455 0.709724,0.230351 0.937407,1.10221 -1.91178,0.756403 -0.868435,0.825375 -2.47517,-0.171858 -4.58586,-2.84575 -8.39894,-5.10239 -14.1497,-6.28348 -1.01038,-0.207487 -2.02133,-0.472514 -3.05248,-0.580925 -1.40687,-0.148042 -2.30751,-0.0266742 -2.63884,-0.715249 -0.00495378,-0.0100981 -0.0150519,-0.0506809 -0.0308658,-0.0710676 -3.49908,0.624176 -0.988469,0.223873 -4.08572,0.29132 -3.11078,0.0676381 -5.79877,-0.239305 -8.3595,0.708199 -1.07783,0.398779 -2.77297,0.313993 -3.62388,0.972083zm47.3851 26.4067c1.14299,6.4361 -1.54844,14.2309 -4.45573,18.28 -2.77907,3.87061 -1.55225,2.18823 -3.91024,4.71447l-6.3113 5.1967c-0.585879,0.355529 -1.05249,0.660757 -1.67609,1.0361 -10.7579,6.47268 -25.5333,6.95796 -36.8765,1.34057 -2.56491,-1.27026 -5.28377,-2.62474 -7.35845,-4.14059 -3.74486,-2.73639 -7.5648,-6.35512 -9.64652,-10.4774 -1.76011,-3.48517 -2.90329,-6.98139 -2.99589,-11.2087 -0.0760214,-3.4745 0.548916,-6.85202 1.68714,-9.80371 0.544153,-1.41106 3.14165,-6.15221 4.14555,-7.20584l4.18632 -4.45421c0.280269,-0.291892 0.538056,-0.35229 0.882725,-0.625319 0.3058,-0.242163 0.418975,-0.414021 0.720203,-0.648563 0.282365,-0.219681 0.593881,-0.473086 0.832234,-0.683812 1.02924,-0.910161 0.702293,-0.48909 1.65742,-1.22434 0.778886,-0.599788 4.05771,-2.27378 4.30997,-2.69562 0.0302942,0.0382965 0.0567779,0.0937407 0.076593,0.124797 0.019053,0.0297227 0.0522052,0.0842142 0.0746877,0.118891 0.0205772,0.032009 0.048204,0.076974 0.0697339,0.109174l0.243497 0.320281c0.209773,-0.815277 -0.470228,-0.461844 0.95665,-1.16261 1.77212,-0.869959 3.23939,-1.38839 5.12411,-2.05372l0.267123 0.0794509 0.278745 -0.202724 0.517288 -0.0893585 0.379916 -0.243688 0.273982 0.0581116 0.414021 -0.181765c2.66856,0.0512525 5.22299,-1.96532 16.4176,-0.78746 4.9593,0.521671 9.36702,2.31913 13.6244,4.5247 1.40878,0.729729 4.30959,2.55729 5.36742,3.5591 2.09888,1.98761 1.31713,1.04906 3.4423,3.37505l1.03572 1.22987c1.05401,1.40097 0.517288,0.447555 1.94912,2.5832 1.71725,2.56148 3.5368,6.49554 3.97845,9.66844l0.317804 1.57054zm12.5121 0.770693c-2.49499,0.716964 -3.02695,0.474038 -5.99388,0.335904l-4.73733 -0.29475c-0.318185,-0.150137 -0.329617,0.0325806 -0.348098,-1.1407 -0.0144803,-0.627415 -0.40259,-0.428692 -0.982753,-0.328283 -0.422405,-0.673904 -0.136991,-0.603408 0.277602,-1.77078 0.352861,-0.993994 -0.0466798,-0.94217 0.0100981,-1.72277 1.1729,-0.41345 2.97112,-0.29113 4.26901,-0.411354 4.26387,-0.395349 7.12086,-1.48308 9.98071,1.42211 0.421071,0.427739 0.822898,0.752974 0.849191,1.67057l-3.32455 2.24006zm-98.6398 4.48107c-0.00609695,-2.35076 2.19052,-3.50441 4.26901,-3.68523 2.43688,-0.21206 5.06295,-0.523576 7.49983,-0.491186 -0.120224,2.56987 0.139277,1.67895 -4.74591,2.76478 0.452889,0.317994 2.27054,0.19072 2.99799,0.202343 1.73592,0.0272458 1.70981,-0.300466 1.68314,1.47241 -1.89139,0.474991 -4.14841,0.903683 -6.13163,1.27102 -1.32418,0.245402 -2.10783,0.123844 -3.19042,-0.285033 -1.19805,-0.452318 -1.49375,-0.709533 -2.382,-1.24911zm87.7287 -3.30245c0.927309,-0.25531 5.28682,0.396874 6.48716,0.586451 1.84109,0.290558 2.71753,0.463559 3.62654,1.84357 0.446983,0.678477 1.25369,1.50271 -1.23425,2.97303 -2.3056,1.36267 -6.77867,0.159855 -9.09456,-0.502999l0.215108 -4.90005zm-89.2646 7.82963c-0.684002,-0.205201 -1.10907,-0.742114 -1.77783,-1.39849 -0.478039,-0.469275 -1.24721,-0.956269 -1.39868,-1.66599l2.78421 -0.0329617 0.392301 3.09744zm2.32961 -2.22005c1.28246,-0.0624938 2.15356,0.321805 2.04915,1.67533 -0.0201962,0.260835 -1.02048,2.36028 -1.1468,2.47117 -0.404876,-0.212822 -0.374772,-0.288843 -0.478801,-0.900634l-0.423548 -3.24587zm2.96579 3.46193c0.00400113,-0.961985 0.600359,-1.86491 1.00085,-2.31913 0.816992,-0.926546 5.78563,-2.3902 7.00007,-2.25168l0.73735 4.18689c-0.646658,0.481088 -3.47584,1.37658 -4.40048,1.56082 -1.60102,0.318756 -3.52976,-0.57883 -4.33779,-1.1769zm82.2361 1.99961c0.0281984,-0.356481 1.25997,-4.88557 1.34247,-4.9574 0.39916,-0.347907 1.81403,0.283508 2.43249,0.434027 0.940265,0.228445 1.65723,0.255691 2.18423,0.85586 0.39554,0.450412 0.956269,1.56711 0.933025,2.34752 -0.0790699,2.64036 -5.11992,2.08173 -6.89223,1.31999zm-71.523 2.76154c-0.665711,0.535008 -2.17528,0.680382 -3.24815,0.674857 -3.71285,-0.0186719 -2.11145,-3.4122 -1.12108,-3.92911 0.488709,-0.254929 2.12003,-0.900444 2.67066,-0.944647 0.185195,0.396493 1.67571,4.04952 1.69857,4.1989zm68.5002 3.02657c0.137563,-0.562635 1.73916,-2.9614 2.03905,-3.83346 0.355529,0.436313 0.211488,0.818516 0.0722108,1.40859 -0.30561,1.29522 -0.632368,2.85071 -2.11126,2.42487zm-82.9412 -3.45126c0.324091,0.394587 0.481659,0.908827 0.564159,1.36038 -0.684193,-0.0470609 -1.46346,-0.452318 -1.68505,-1.14261l1.12089 -0.217776zm16.6283 3.90777c0.3199,0.412497 0.48204,0.635989 0.746115,1.01514 -1.15175,-0.101743 -1.51185,-0.895871 -1.72753,-2.19586 0.7122,0.396683 0.260454,0.251118 0.981419,1.18071zm19.8364 15.1749l-2.75258 -1.04658c-3.45297,-1.65113 -6.65616,-3.64293 -9.92127,-5.69875 -1.505,-0.947886 -6.05675,-4.17032 -6.32673,-5.55699 0.472704,-0.307325 0.74783,-0.32009 1.41373,-0.33438 1.48366,1.63094 2.93511,2.97722 4.71733,4.27739l1.50652 1.21634c1.61988,1.12965 7.29691,4.27435 8.92708,4.84384l2.6758 1.20186c0.415736,0.0236257 2.35095,0.579973 2.96903,0.731634 12.4568,3.05858 23.3197,1.0401 33.8345,-5.91843 2.45421,-1.62427 6.62415,-5.41219 7.94128,-7.63167 0.64361,-0.0609695 1.54291,0.172811 2.15718,0.320662 -0.1871,0.914353 -0.277602,0.340286 -0.547583,1.14985 -0.267123,0.801178 0.245593,0.216823 -0.644753,0.843094 -0.261978,0.184242 -0.337619,0.265218 -0.566636,0.488137 -0.516717,0.50338 -0.480897,0.584927 -0.861004,1.11117 -0.139468,0.193007 -2.45193,2.09202 -3.53318,3.27292 -0.889203,0.971321 -0.881772,0.329617 -1.7424,1.29065 -0.891108,0.995518 -0.353814,0.247689 -1.29427,0.823851l-2.40925 1.52519c-2.03962,1.35105 -5.97692,2.889 -8.39798,3.70942 -4.06152,1.37639 -9.04216,2.18557 -13.8248,1.96112 -5.78201,-0.271314 -8.4157,-0.98542 -13.3199,-2.58035zm-34.3224 -10.3351c0.340477,-0.272267 1.72182,-0.986182 2.30884,-0.678096 0.251309,0.131847 1.12089,1.47089 1.19157,1.90282 -1.1186,-0.220634 -2.68437,-0.584736 -3.50041,-1.22473zm7.7378 5.5991c0.869959,-0.373629 1.07135,0.00666854 1.21348,0.507952 -0.346193,-0.0276268 -0.401827,-0.00362007 -0.749735,-0.11146 -0.727252,-0.225397 -0.301609,-0.232827 -0.46375,-0.396493zm6.75276 6.80973l0.860052 -0.9315c0.877009,-0.0600169 1.86757,0.249404 1.96798,0.99609 -0.791461,0.0985039 -2.20386,0.236638 -2.82803,-0.0645896zm20.3707 -48.5087c1.37296,-0.99609 1.37239,-0.367151 2.47613,-1.89425 0.619984,-0.857765 1.14585,-1.8489 1.74392,-2.65351 1.36934,-1.84242 6.49878,-1.0361 7.01778,-0.513097 -0.218157,0.538247 -0.0912638,0.225016 -0.572352,0.601312 -2.56891,2.00933 -2.25092,5.17155 -6.96768,4.99188 -0.690671,-0.0262931 -3.18718,-0.304657 -3.6978,-0.53234zm39.8708 -3.02218l-0.139277 -0.0691623 -0.131656 -0.195674 -0.602265 -0.559586 -0.00323901 -0.0137181 -0.00666854 -0.0261026c-0.00362007,0.00609695 -0.0070496,0.0135276 -0.0102886,0.0211488l-0.619412 -0.575781c-0.278364,-0.185957 -0.295131,-0.204248 -0.605694,-0.438219l-0.0144803 -0.0272458 -0.0903111 -0.156806c-0.323139,-0.379345 -1.07687,-0.942551 -1.58426,-1.33485 -0.631416,-0.488137 -1.1026,-0.894156 -1.86376,-1.22015l-0.054301 -0.00323901 -0.46756 -0.270171 0.0266742 -0.0358196 -0.164999 -0.162141 -0.215489 -0.0232446 -0.972274 -0.667235 -0.278745 0.0249594c0,-0.242735 0.0527768,-0.158902 -0.222348,-0.191673l-0.0632559 -0.0264836 -0.239305 -0.153377c-0.5251,-0.54301 -4.84117,-2.22005 -5.91919,-2.56053 -5.14183,-1.62293 -9.95671,-2.10974 -15.4247,-1.79936 -2.11393,0.120034 -6.80172,1.13594 -7.40189,1.12698l-0.159092 0.223301 -0.452318 0.0394397c-0.12937,0.115461 -3.73515,1.21444 -4.35132,1.49032 -1.8047,0.807656 -4.31112,1.96608 -5.99712,3.0782 -2.87243,1.89444 -2.94445,2.2111 -5.06771,3.80545 0.201581,1.68733 1.03591,3.58463 0.533293,5.39961 -0.598073,2.16023 -1.88358,1.08297 -1.99942,4.34427 -1.45508,-0.255882 -4.77792,-2.65046 -2.04381,-5.78868 0.854717,-0.981038 1.79689,-1.31732 2.57463,-3.13993 -1.01667,0.588166 -2.50699,2.90024 -3.07668,3.52899 -0.358577,0.39573 -0.598835,0.753736 -0.922164,1.19596 -0.670665,0.917401 -2.35209,3.79669 -2.76306,4.97854l-0.0403923 0.813562c1.53491,0.528149 3.62597,0.351909 5.05323,1.06773 1.1428,0.573114 1.76926,1.42021 2.34942,2.31608 0.0264836,0.0409639 0.306372,0.430216 0.318375,0.442982 0.282365,0.297227 0.0792604,0.195103 0.430978,0.29132 -0.0918354,-0.765358 -2.8387,-3.98493 -0.42793,-8.12381 0.57902,-0.993804 0.609886,-1.04029 2.03943,-1.93235l2.53024 -1.28741c2.21548,-0.722299 1.60788,0.115461 1.89196,-0.602455 -0.95303,-0.213584 -1.43698,0.307134 -2.45479,0.231303 -0.183671,-1.65532 -0.110317,-2.69371 0.961032,-3.43601 0.536532,-0.371533 2.40734,-1.19615 3.10926,-1.26779 0,-0.255882 -0.0546821,-0.169 0.238543,-0.1871 0.0489662,-0.230922 0.740399,-0.498426 1.13689,-0.862338 1.16661,-1.07097 0.620746,-0.947886 1.28512,-1.14928 0.808227,0.883677 0.358387,5.07781 -1.72258,6.17107 -0.810704,0.426025 -1.63227,0.256072 -2.14079,0.500141 0.317042,0.265599 2.16118,0.105172 2.78612,0.158521 0.824994,0.070496 1.66733,0.232827 2.52281,0.364293 0.764787,0.117747 4.24691,0.874913 4.54223,1.08049 1.73173,0.310754 5.0801,1.20682 6.43419,1.05877l-0.875294 -0.0901206 0.584736 -0.605313c0.367532,-0.245974 0.264074,-0.08631 0.593119,-0.435932 0.351337,-0.373438 0.515574,-0.72287 0.800797,-1.18395 0.291892,-0.471561 0.438981,-0.771455 0.70496,-1.25102 0.454985,-0.820802 1.07973,-1.5915 1.89749,-2.04286 1.09593,-0.604742 4.52908,-2.68552 4.18384,-0.657137 -0.0354385,0.20844 -0.126702,0.543391 -0.174335,0.740589 -0.130894,0.540152 -0.265218,1.02677 -0.43136,1.52481 -1.38458,4.14879 -3.83289,3.4463 -7.29215,4.06533 0.149566,0.092407 -0.0472514,0.0243878 0.327521,0.126131 1.64637,0.446983 5.24548,0.422786 6.85526,0.0845952 0.730301,-0.153567 1.45508,-0.457843 2.07868,-0.52129 -0.0371533,-0.0154329 -0.0912638,-0.022292 -0.116985,-0.0297227l-0.630273 -0.24083c1.15385,-1.15995 -0.615221,-2.4565 0.572733,-4.41191 0.326759,-0.537866 0.876628,-0.847477 1.47565,-1.2394 1.32475,-0.866339 0.720584,-0.94236 1.73954,-1.05534 0.743447,3.97712 0.255119,3.94092 -1.45489,5.92338 3.67513,-1.6336 3.79459,-6.80325 4.43172,-7.07971 0.492329,1.39658 -0.405257,4.14479 -0.925403,5.23633 1.36115,-0.896062 1.03534,-2.27607 6.64759,-2.02419 0.0935501,0.963319 -1.52919,2.70152 -1.99351,3.05229 -2.56796,1.93978 -5.28701,0.340858 -6.31664,1.10374 -2.79679,2.07277 -1.85405,1.31618 -5.1262,2.45574 0.932643,0.485089 4.09144,-1.74887 7.68673,-0.0019053 0.916639,0.445459 0.32009,-0.17262 0.785173,0.727443 1.99523,3.86032 0.302371,2.63712 -0.71201,2.39839 -2.59406,-0.610839 -5.39218,1.69552 -8.18268,-0.774885 -0.521671,-0.462035 -1.57987,-1.45279 -2.0019,-2.09792 -2.45136,-0.152424 -4.08782,-0.247498 -6.45877,-0.762119 -1.84928,-0.401256 -4.2652,-1.04448 -6.10057,-1.28436 -3.86756,-1.03515 -9.27728,-1.5008 -12.6165,0.519765 -2.83546,1.71591 -3.44668,4.78363 -1.87824,7.56994 0.390967,0.694862 0.921593,1.73725 1.63132,2.01428 0.193197,-0.255691 0.166333,-0.110698 0.24464,-0.885583 0.182337,-1.8047 0.660757,-3.13002 1.53034,-4.76439 0.343525,-0.646087 0.248641,-0.608933 0.753164,-1.06106 2.06649,-1.85157 4.30464,-1.67514 7.20355,-0.919116 1.04582,0.272648 1.48499,0.890346 1.51928,2.16918 0.0371533,1.38687 -0.454604,4.88671 -3.08087,3.59358 -0.0261026,-1.27274 1.03477,-2.37991 0.0741161,-4.12992 -0.386394,-0.703627 -0.786888,-0.516526 -1.49756,-0.278555 -0.636751,0.213012 -1.08431,0.679048 -1.40478,1.01495 -1.706,1.7885 -2.3439,4.88233 -2.05525,7.74142 1.50442,0.618269 3.28759,1.80203 5.16583,2.02781 0.408877,-0.999329 0.466798,-2.56434 0.778314,-3.34208 0.86672,-0.346193 1.8106,0.153758 2.69619,0.19072l-0.0436313 2.35171c0.457272,-0.16557 1.36076,-1.07573 1.70619,-1.62636 0.40621,-0.64742 0.788222,-1.85347 0.882534,-2.74553 -0.914543,-0.194912 -1.61474,-0.546821 -1.69819,-1.65856 -0.256263,-3.41448 2.82327,-2.33113 3.20338,-1.61874 0.308468,0.907303 -0.174716,1.16204 -0.292654,2.11964 1.33276,-0.186529 1.41183,-0.757165 2.81031,-0.47842 0.869388,0.173192 1.77593,0.733921 2.2071,1.07402 0.195103,1.30037 -1.46651,4.28197 -0.70115,6.32616 0.722299,0.146136 0.788603,0.151471 1.29236,-0.303514 1.75592,-1.5854 -0.599788,-4.86499 2.39801,-7.44381 0.617888,-0.531769 0.28046,-0.394587 0.677905,-0.839474 1.1165,-1.24949 4.50146,0.0682097 5.6414,0.854526 1.17366,0.809752 1.27617,3.00027 1.28798,4.33684 0.631035,0.159283 1.11536,-0.389252 1.25521,-0.906731 0.204438,-0.756213 -0.05754,-2.54681 0.487185,-4.22062 0.0583021,-0.179289 0.244069,-0.716773 0.331141,-0.8812 0.648182,-1.22549 2.60168,-0.340477 3.65246,0.109174 -0.0373438,1.11479 -1.75383,6.27491 -0.841951,8.07637 2.85318,0.691814 1.33733,-7.79057 3.51775,-8.22346 0.987707,-0.196246 2.33228,0.269409 2.96941,0.709343 0.527005,1.84928 -1.02829,4.84574 -0.452889,7.37846 1.51243,0.520909 2.13908,-1.42802 2.60416,-2.79583 0.439933,-1.2937 0.524719,-0.932834 0.0438219,-2.09449 -0.156997,-0.379535 -0.234542,-0.853193 -0.264074,-1.27941 -0.0426787,-0.614459 -0.0264836,-0.845762 0.201199,-1.2775 -0.08631,-0.771455 0.252261,-1.72944 0.652184,-2.29798 0.385823,-0.548535 0.846333,-1.24149 1.95045,-0.850144 1.57625,0.558824 1.71496,2.10269 1.39525,3.9895 -0.10422,0.655613 -0.425834,1.29998 -0.262169,1.94588 2.55882,0.400684 2.66189,-2.45898 3.44992,-2.34733 1.40135,0.198532 0.469084,2.46679 -1.43393,3.56748 -2.03086,1.17443 -2.31075,-0.633893 -4.0057,2.19738 -0.556919,0.930357 -0.557109,1.25712 -1.26759,1.91254 -3.48441,3.21443 -5.9028,-0.0295321 -6.38961,-0.21568 -0.6076,0.728205 -0.432884,0.915686 -1.39716,1.34762 -0.628367,0.281603 -1.39258,0.417451 -2.08725,0.229779 -1.76126,-0.475562 -2.12403,-1.09974 -2.60073,-2.78898 -0.536913,0.0453461 -1.09097,0.231875 -1.49261,0.473657 -1.02086,0.61484 -0.822136,1.95598 -2.82232,3.08239 -2.13813,1.20415 -4.1625,-0.0150519 -5.64044,-1.15347 -0.472704,0.4245 -1.41259,1.44383 -2.26292,1.50519 -4.39,0.31647 -3.75382,-4.40867 -3.38152,-7.45486 -2.83375,-0.319137 -1.17023,2.20462 -4.02932,4.95378 -0.485279,0.466608 -1.03019,0.968654 -1.04525,1.80203 1.38839,1.12813 2.72019,0.934358 4.0579,2.88138 1.81804,2.64608 -1.12946,4.9191 -2.62302,6.44905l-1.529 1.95827c-1.21901,2.14556 1.01133,3.95045 0.87377,5.53394 -0.628177,0.155091 -1.69419,0.236066 -2.22177,0.0299132 -0.430978,-0.733349 -0.135467,-3.37066 -0.162903,-4.38695 -0.96008,-0.745543 -2.34485,-1.35295 -2.21453,-3.08296 0.0933596,-1.23882 1.22701,-2.08402 1.63151,-3.50613 0.339715,0.141945 0.160045,0.067257 0.411544,0.258739 2.32827,1.77364 0.144231,4.74324 0.111841,4.82936 -0.408877,1.08659 0.0281984,0.768216 0.229779,0.954173 0.0882153,-0.623414 0.110317,-1.27293 0.495378,-1.91654l0.305038 -0.459558c1.00123,-1.48937 1.19519,-1.54996 2.69181,-2.63407 1.40363,-1.01705 1.50137,-2.92349 0.725347,-3.96836 -0.46737,-0.629129 -0.744209,-0.710676 -1.29027,-1.12813 -0.562444,-0.430216 -0.822708,-0.536151 -1.75021,-0.639418 0.0487756,1.18376 0.57178,2.78364 0.26617,3.69475 -0.448698,0.229779 -1.26721,0.177764 -1.83671,-0.0230541 -1.52462,-0.537485 -0.584545,-3.47965 -1.34895,-4.62359 -1.06068,0.92769 -0.660948,2.70629 -3.35733,2.47822 -3.93863,-0.333046 -4.71314,-3.50327 -5.2731,-6.22918 -0.335332,-1.63265 -1.9114,-1.51528 -2.46641,-3.10468 -0.227112,0.161379 -0.277792,0.524148 -0.278364,0.5251 -1.82966,-0.488328 -3.51737,-0.40278 -5.30968,-0.841761 -2.0783,-0.509096 -3.2491,-2.26921 -3.6536,-2.4323 -2.21491,8.05808 -0.734302,14.9875 3.18432,20.7601 2.36486,3.48365 3.48784,4.16003 6.30158,6.73085l3.78659 2.72019c12.5494,7.24051 25.1532,8.4279 38.6221,1.98608 1.97522,-0.944837 3.25101,-1.90015 5.00103,-3.03057 1.82985,-1.18186 -0.366008,-1.27007 -1.29579,-1.91063 -0.841951,-0.580163 -0.889012,-1.1569 -1.38992,-1.50957 -0.15814,0.22654 -0.126321,0.195865 -0.242926,0.486042 -0.434217,1.07992 -0.108221,0.733349 -0.128608,1.52824 0.169381,0.210726 0.172429,-0.361626 0.138896,0.466036l-0.655613 0.0979323c-0.686479,0.0586832 -1.80775,0.362959 -2.07296,0.928642 -0.105172,0.0851668 -0.0724013,0.109364 -0.277411,0.199866 -0.131275,0.0581116 0.0682097,0.0306753 -0.329236,0.102124 -0.971893,0.174906 -0.509667,-0.331712 -1.0904,-0.787079 -0.928642,-0.206915 -1.10584,-0.669141 -1.86433,-0.717345 -1.30246,-0.0826899 -0.937216,0.250737 -1.76907,0.596358 -1.26969,0.527577 -3.09668,-0.123082 -3.86585,-0.750497 -1.10107,-0.898158 -1.25807,-1.70753 -0.998757,-3.53128 0.210726,-1.48194 0.563397,-2.84099 0.743828,-4.24958 -1.29751,0.244259 -1.86186,0.167476 -2.05848,0.655994l-0.430026 2.33323c-0.153948,0.71201 -0.580544,1.65037 -0.939121,2.06858 -0.446221,0.520527 -1.05992,0.822517 -1.94017,1.07916 -1.17862,0.343525 -1.05115,0.419356 -1.61112,1.43259 -0.693529,1.25483 -1.7986,2.32389 -3.88681,2.03581 -2.42945,-0.335142 -3.17575,-1.75668 -3.84261,-2.16804l-0.658471 1.81041 -6.32254 0.373057c-0.262169,0.185004 -3.54728,0.968273 -4.79544,-0.224635 -0.105744,-0.101171 -0.319519,-0.344668 -0.39916,-0.527196 -0.314184,-0.71925 0.0754498,-0.604742 1.9838,-1.02029 -0.405447,-0.450794 -0.652565,-0.540724 -0.955698,-1.11955 -0.495949,-1.92092 -0.218919,-11.5827 0.347526,-13.7764 0.0278174,-0.107459 0.0649707,-0.226349 0.117366,-0.343525 0.41707,-0.931119 3.20452,0.0834521 3.376,0.367532 0.341429,0.565874 -1.77974,12.4883 -0.529101,14.3724 0.886916,0.0583021 6.06018,-1.05172 7.22527,-1.33904 -0.134514,-2.08059 -0.431931,-3.18413 0.401256,-5.19213 0.228445,-0.55025 1.88548,-2.81775 3.26454,-2.76802 1.49223,0.0537294 3.71743,0.933215 4.48907,1.71458 1.21806,1.2333 1.49051,2.55843 1.28627,4.73657 2.00971,-0.330188 2.59006,-2.94997 2.64665,-4.48907 -0.45327,-0.257215 -0.746686,-0.240258 -1.14223,-0.602455 -0.217776,-0.199104 -0.571208,-0.776028 -0.631416,-1.21577 -0.392301,-2.8589 2.63255,-3.32341 3.83422,-1.98837 0.591405,0.657137 -0.279317,1.04086 -0.484327,2.44926 1.53929,0.0577305 1.99809,-0.880438 3.43868,-0.405638 0.863291,0.284461 2.43116,0.644562 2.41077,1.5814 -0.0293416,1.34933 -2.05925,4.45745 -1.52557,6.51669 0.570065,0.758118 1.41869,0.367723 1.85576,-0.150328 0.867863,-1.02905 -0.401256,-7.41066 4.19108,-9.44228 2.09716,-0.92788 2.84823,0.151662 4.60434,0.135467 0.512716,-0.860242 0.707628,-2.92235 0.990374,-4.05924 0.370199,-1.48804 0.593691,-2.55158 1.33257,-3.66294 1.4042,-0.139468 2.52338,0.259311 3.58101,0.682097 -0.0400113,0.99266 -1.49833,6.3595 -1.87481,7.6915 -0.430407,1.52329 -1.71153,6.99454 -1.05268,8.22098 2.05143,1.2171 3.48517,-4.17946 4.59329,-5.15421l0.776409 0.171286c0.200818,1.19824 -0.35229,1.69381 -0.587975,2.66361 0.19053,-0.309039 0.571971,-0.680001 0.833187,-1.04334 0.262741,-0.365436 0.493853,-0.623032 0.772027,-1.04144 4.22309,-6.34941 5.80259,-12.3719 4.37152,-20.3244 -0.183671,-1.38039 -0.92407,-3.30893 -1.44746,-4.5167 -0.353242,-0.815087 -1.55491,-3.38648 -2.00475,-3.76182 -0.305419,-0.764787 -0.813181,-1.40516 -1.31694,-1.98361l-1.36686 -1.81156c-0.324091,-0.33438 -0.231303,-0.174525 -0.52129,-0.534055 -0.39211,-0.485851 -0.0251499,-0.250737 -0.569875,-0.57521zm-52.1699 11.1376c-0.0221015,-3.69571 1.26817,-3.31846 3.5469,-4.14688 0.712582,-0.259121 1.18833,-0.698863 1.70905,-0.812991 -0.0274363,0.152614 -0.213774,0.857956 -0.292273,0.994566 -0.108602,0.188625 -0.337238,0.353433 -0.592929,0.644943 -1.36762,1.55911 -0.648754,1.25197 -2.89586,2.24863 -0.897586,0.398207 -0.948838,0.831663 -1.47489,1.07173zm23.5685 2.96293c-0.840046,-0.66152 0.260645,-0.81623 -1.34114,-1.93521 -2.5872,-1.80737 -1.3762,-1.9796 -2.07144,-3.9895 -0.270362,-0.781363 -0.901968,-0.844809 -1.37982,-1.7805 1.19672,0.066876 3.33999,0.671237 4.33894,1.38477 1.94931,1.39258 2.06572,2.79965 1.16223,5.11439 -0.475753,1.21882 -0.213584,0.893013 -0.708771,1.20605zm-15.3887 -2.02819c0.624747,0.438028 1.58921,2.06268 1.8188,3.07534 0.389062,1.71439 -0.878724,3.07039 -1.509,3.28816 -0.345431,0.119272 -2.35819,-0.501665 -1.71686,-2.77583 0.410973,-1.45717 0.753926,-0.55368 1.40706,-3.58768zm-14.9936 8.13391c3.49851,-0.450412 2.10955,-0.108221 4.33646,-1.53434l1.65685 -1.20453c0.719822,-0.455557 1.58121,-0.40983 2.37457,-0.0245783 -0.0474419,0.696768 -0.29113,2.29836 -0.587784,2.85699 -1.11689,2.10364 -4.91891,1.25026 -6.79086,0.548916 -0.190339,-0.0712582 -0.444697,-0.151662 -0.631606,-0.271696 -0.340858,-0.219109 -0.19072,-0.089168 -0.357624,-0.370771zm39.4587 6.22175c1.88301,0.138325 1.09536,-3.49775 2.07963,-5.3939 0.646087,0.0533483 0.532721,0.0617317 0.945409,0.382774 0.0859289,1.02372 -0.450412,1.73039 -0.353814,2.68171 0.00228636,0.0238162 0.0232446,0.128417 0.025531,0.108221 0.00247689,-0.0200056 0.0152424,0.0729729 0.0302942,0.106697 1.00085,-1.24054 0.679429,-1.53624 2.48222,-0.828995 0.129179,1.03439 -0.33095,1.54977 -0.239687,2.68228 1.35295,-0.427549 0.608552,-1.3821 1.18795,-2.54033 0.921402,-1.84109 3.69723,-0.974751 2.46222,0.96008 -0.340858,0.534246 -0.887488,0.601884 -1.5029,0.916067 0.800225,1.78431 2.65122,-1.08964 2.87376,-1.36667 0.372105,0.691433 -0.45689,1.71248 -0.839665,2.04629 -0.76231,0.66514 -1.38458,0.608171 -2.53614,0.35248 -1.29198,-0.286747 -0.540343,0.0760214 -1.36038,0.261407 -2.05486,0.464512 -1.42573,-2.22596 -1.47832,-2.62988 -0.703817,0.519194 -0.900063,1.6458 -1.23844,2.50623 -1.23597,0.216632 -0.573114,-0.50357 -1.63722,0.329236 -0.679048,0.531388 -2.20557,0.477087 -2.15184,-1.49452 0.0405829,-1.48518 -0.0579211,-0.840999 -0.33095,-1.90968 0.989993,-0.376677 0.489471,-0.387157 0.923879,-1.41659l1.07021 0.205582c0.012575,0.219109 -0.0259121,0.469847 -0.0232446,0.497473 0.0948838,0.964081 0.407924,-0.132228 0.599216,0.954173 -0.244069,0.322186 -0.464512,0.299513 -0.520146,0.321805 -0.170715,0.0680191 -0.0908827,-0.0533483 -0.450984,0.115271l-0.0165761 2.1528zm-8.47115 -2.80212c-0.997233,-0.416308 -0.859861,-0.854336 -0.404495,-1.56025 0.527768,-0.0411544 0.781363,0.108983 1.11365,0.303705 0.0133371,0.772408 -0.185576,1.00295 -0.709152,1.25654zm-5.77763 4.45459c0.26236,-0.613125 0.714677,-0.720774 1.09993,-1.35791 0.511191,-0.845762 0.208059,-3.99236 3.28188,-4.16555 -0.0722108,0.901206 -0.381441,1.14185 -0.489281,2.13184 -0.180432,1.65285 0.127846,3.64598 -3.89252,3.39162zm8.19888 -3.4604c0.965224,-1.3882 2.1709,-0.794128 2.0522,0.380488 -0.0192435,0.189387 -0.0632559,0.306562 -0.108793,0.492329 -0.160426,0.655232 -0.313993,0.631035 0.0506809,1.06258 0.471561,0.325997 0.74783,-0.726109 0.936645,-0.998376l0.247117 -0.256072c0.0196246,0.0379154 0.0358196,0.0912638 0.0428692,0.120605 0.0337238,0.140611 0.176431,0.110698 0.0236257,0.724966 -0.172239,0.692004 -0.653708,1.38534 -1.56539,1.22377 -1.25693,-0.222729 -0.948457,-1.46651 -0.904636,-2.65275 -0.411925,0.237972 -0.48547,0.449079 -0.726109,1.12698 -0.180051,0.507 -0.249404,0.982753 -0.34867,1.50614 -1.64332,-0.0173382 -2.06934,0.627986 -2.70305,-0.204057 -0.537104,-0.70496 -0.393825,-2.01771 0.0243878,-2.63617 1.94969,-0.0196246 0.150519,1.42497 1.04944,2.43897 1.03,-0.606266 0.00266742,-2.75354 1.1428,-2.70133l0.786888 0.371914zm-12.2412 -0.887107c1.60598,0.950744 2.62055,1.49242 2.35285,3.0803 -0.231303,1.37296 -0.662282,1.11555 -0.704579,1.12908l-0.289415 -0.469847c-0.647992,-1.48023 -0.230732,-0.468322 -0.826137,-1.47241 -0.338571,-0.570827 -0.670474,-1.45908 -0.532721,-2.26711zm0.047823 11.7928c-0.461654,-1.09688 -0.600741,-2.38181 0.25188,-3.19671 0.552727,-0.528149 2.01695,-1.33904 2.97112,-1.48651 -0.123844,2.76135 -1.16471,2.61464 -2.2353,3.72962 -0.538437,0.560729 -0.255882,0.698101 -0.987707,0.953602z"/>
 </g>
</svg>
