<?xml version="1.0" encoding="UTF-8"?>
<!DOCTYPE svg PUBLIC "-//W3C//DTD SVG 1.1//EN" "http://www.w3.org/Graphics/SVG/1.1/DTD/svg11.dtd">
<!-- Creator: CorelDRAW -->
<svg xmlns="http://www.w3.org/2000/svg" xml:space="preserve" width="25in" height="39in" style="shape-rendering:geometricPrecision; text-rendering:geometricPrecision; image-rendering:optimizeQuality; fill-rule:evenodd; clip-rule:evenodd"
viewBox="0 0 0.590197 0.391831"
 xmlns:xlink="http://www.w3.org/1999/xlink">
 <defs>
  <style type="text/css">
   <![CDATA[
    .fil0 {fill:white}
   ]]>
  </style>
 </defs>
 <g id="Layer_x0020_1">
  <metadata id="CorelCorpID_0Corel-Layer"/>
  <path class="fil0" d="M0.0767567 0.316683l-0.0167498 0 0 0.0112292 0.0140052 0c0.00128944,0 0.00226757,0.000305781 0.00290124,0.000908134 0.000635509,0.000613405 0.000957869,0.00142023 0.000957869,0.00244257 0,0.00102234 -0.00032236,0.00182916 -0.00096708,0.0024223 -0.00065393,0.000602352 -0.00162101,0.000898924 -0.00289203,0.000898924l-0.0140052 0 0 0.0144565c0,0.00182916 -0.000399726,0.00319965 -0.00119181,0.00408752 -0.000792084,0.000889713 -0.00180706,0.00132812 -0.0030486,0.00132812 -0.00125076,0 -0.00227678,-0.000449462 -0.00306887,-0.00134839 -0.000790242,-0.000898924 -0.00119181,-0.00225836 -0.00119181,-0.00406726l0 -0.0337686c0,-0.00127655 0.000186048,-0.00231915 0.000547091,-0.00312597 0.000361043,-0.000806821 0.000928396,-0.00139996 0.00170022,-0.00176653 0.000771822,-0.000368411 0.00175916,-0.000552617 0.00296018,-0.000552617l0.0200434 0c0.00135944,0 0.0023652,0.000316834 0.00302097,0.000939449 0.00065393,0.000633667 0.000987342,0.00145154 0.000987342,0.00247388 0,0.00104076 -0.000333412,0.00186785 -0.000987342,0.00250151 -0.000655772,0.000624457 -0.00166153,0.000941291 -0.00302097,0.000941291zm0.0280969 0.0331662c-0.00189732,0.00153259 -0.00372464,0.00268572 -0.0054838,0.00345386 -0.00176837,0.000764453 -0.00375227,0.00115313 -0.00594063,0.00115313 -0.00201337,0 -0.00377253,-0.000418147 -0.0052867,-0.00124523 -0.00151601,-0.000828925 -0.00268756,-0.00194337 -0.00350912,-0.00336175 -0.000821557,-0.00142023 -0.00123049,-0.00295282 -0.00123049,-0.00460883 0,-0.0022381 0.000674193,-0.00413726 0.00203179,-0.00572143 0.0013576,-0.00157496 0.00321439,-0.00263598 0.00559064,-0.00316834 0.000488145,-0.000121576 0.00171864,-0.000386832 0.00369332,-0.000806821 0.00196363,-0.000429199 0.00364543,-0.000806821 0.00505276,-0.00115497 0.00139628,-0.000357359 0.0029215,-0.000775506 0.00456277,-0.00127655 -9.7629e-005,-0.00215705 -0.000508408,-0.00373937 -0.0012397,-0.00474145 -0.000744191,-0.00101129 -0.00225836,-0.00151233 -0.00457383,-0.00151233 -0.00198389,0 -0.00347964,0.000287361 -0.0044762,0.000869451 -0.0010076,0.00058209 -0.001866,0.00144049 -0.00258072,0.00260467 -0.000712876,0.00115497 -0.00122128,0.00192126 -0.00151417,0.00228968 -0.000302097,0.000368411 -0.000937607,0.000550775 -0.00190653,0.000550775 -0.000878661,0 -0.00164127,-0.000296571 -0.00227494,-0.000887871 -0.000646562,-0.00058209 -0.000957869,-0.00133918 -0.000957869,-0.00225836 0,-0.00143128 0.000478935,-0.0028294 0.00145522,-0.00418884 0.00097629,-0.00135944 0.0024923,-0.00247388 0.00455356,-0.00335254 0.0020631,-0.000878661 0.00462356,-0.00131707 0.00770164,-0.00131707 0.00343912,0 0.00613589,0.000429199 0.00810136,0.00127655 0.00196363,0.000847346 0.0033507,0.00218652 0.00416305,0.00402674 0.000810505,0.00182916 0.00122128,0.00426989 0.00122128,0.00730375 0,0.00191205 -1.10523e-005,0.00354596 -2.02626e-005,0.00487408 -9.21028e-006,0.00133918 -1.84206e-005,0.00283124 -3.86832e-005,0.00446514 0,0.00153259 0.000243151,0.00313702 0.000733138,0.00480224 0.000488145,0.00166522 0.000722086,0.00273914 0.000722086,0.00321807 0,0.000838136 -0.000370253,0.00160443 -0.00112365,0.00228968 -0.000751559,0.000685245 -0.0016118,0.00103155 -0.00256046,0.00103155 -0.000801295,0 -0.00159154,-0.000397884 -0.00237441,-0.00118444 -0.000792084,-0.000786558 -0.0016118,-0.00192126 -0.00249046,-0.00342254zm-0.00051946 -0.0118223c-0.00114208,0.000438409 -0.00281282,0.000898924 -0.00499382,0.00138891 -0.00218836,0.000491829 -0.00370253,0.000849188 -0.00454435,0.00108313 -0.000839978,0.000224731 -0.00164127,0.000674193 -0.00240388,0.00134839 -0.000760769,0.000664982 -0.00114208,0.00159522 -0.00114208,0.00279072 0,0.00124707 0.000449462,0.00229889 0.00134839,0.0031665 0.000898924,0.000869451 0.00207231,0.00129865 0.00351833,0.00129865 0.00154364,0 0.0029694,-0.000357359 0.0042791,-0.00106287 0.0013097,-0.000705508 0.00226757,-0.00162469 0.00288282,-0.0027373 0.000703666,-0.00123786 0.0010555,-0.00327149 0.0010555,-0.00611194l0 -0.00116418zm0.0234144 -0.0121594l0 0.0236225c0,0.00163575 -0.000370253,0.00287177 -0.00111444,0.0037099 -0.000742349,0.000838136 -0.00168917,0.00125628 -0.00283308,0.00125628 -0.00115313,0 -0.00208152,-0.000429199 -0.0027944,-0.0012876 -0.000714718,-0.000858398 -0.00107576,-0.00208521 -0.00107576,-0.00367859l0 -0.0233757c0,-0.00162654 0.000361043,-0.00284229 0.00107576,-0.00365832 0.000712876,-0.000817873 0.00164127,-0.00122681 0.0027944,-0.00122681 0.00114392,0 0.00209073,0.000408937 0.00283308,0.00122681 0.000744191,0.000816031 0.00111444,0.00196179 0.00111444,0.00341149zm-0.00387016 -0.0084403c-0.00108497,0 -0.00201337,-0.000346307 -0.00278519,-0.00105181 -0.000771822,-0.000694455 -0.00116234,-0.00168548 -0.00116234,-0.00295282 0,-0.00116418 0.000399726,-0.00211468 0.00119181,-0.00286071 0.000792084,-0.000746033 0.00171127,-0.00112365 0.00275572,-0.00112365 0.00101682,0 0.00191574,0.000337096 0.00269861,0.00102234 0.000781032,0.000674193 0.00117155,0.00166522 0.00117155,0.00296203 0,0.00125628 -0.000381306,0.0022381 -0.00114392,0.00294361 -0.000760769,0.000703666 -0.00167075,0.00106102 -0.00272624,0.00106102zm0.0123731 0.00452777l0.00086024 0 0 -0.00491461c0,-0.00131891 2.76308e-005,-0.00235046 9.7629e-005,-0.0030965 6.6314e-005,-0.000755243 0.000254204,-0.00139996 0.000556301,-0.00193048 0.00031315,-0.000561827 0.000753401,-0.00101129 0.00131891,-0.00137049 0.000576564,-0.000346307 0.00121207,-0.00051946 0.00192495,-0.00051946 0.000987342,0 0.00188627,0.000386832 0.00268756,0.00116418 0.00053788,0.000521302 0.000869451,0.00115497 0.00101682,0.001901 0.000145522,0.000755243 0.000215521,0.00181811 0.000215521,0.00319781l0 0.00556854 0.00286256 0c0.00110523,0 0.00195442,0.000274466 0.00253099,0.000827083 0.000585774,0.000541565 0.000878661,0.00124707 0.000878661,0.00210547 0,0.00109234 -0.000419989,0.00186969 -0.00124891,0.00230994 -0.00083261,0.000438409 -0.00201337,0.000652088 -0.00356806,0.000652088l-0.00145522 0 0 0.0150201c0,0.00127655 3.86832e-005,0.00226941 0.000127102,0.00295282 8.65767e-005,0.000685245 0.00031315,0.00124707 0.000683403,0.00167627 0.000381306,0.000429199 0.000987342,0.000642878 0.00182732,0.000642878 0.000449462,0 0.00107576,-8.10505e-005 0.00185679,-0.000254204 0.000781032,-0.000174995 0.00139812,-0.000256046 0.00182732,-0.000256046 0.000635509,0 0.00120102,0.000265256 0.00170943,0.00079761 0.000508408,0.000530512 0.000753401,0.00117339 0.000753401,0.00196179 0,0.00131707 -0.000683403,0.00231915 -0.0020631,0.0030136 -0.00136681,0.000705508 -0.00334149,0.00105181 -0.00592037,0.00105181 -0.00244441,0 -0.0043012,-0.000429199 -0.00555196,-0.0012876 -0.00125997,-0.000858398 -0.00209073,-0.00204284 -0.00248125,-0.00356622 -0.000390516,-0.00151049 -0.000585774,-0.00353491 -0.000585774,-0.00606958l0 -0.0156833 -0.00102787 0c-0.00113286,0 -0.00199311,-0.000274466 -0.00257888,-0.000836294 -0.000596826,-0.000563669 -0.000889713,-0.00126733 -0.000889713,-0.00212573 0,-0.000858398 0.00031315,-0.00156391 0.000928396,-0.00210547 0.000626299,-0.000552617 0.00152522,-0.000827083 0.00270782,-0.000827083zm0.0279679 -0.00790979l0 0.0121189c0.000996553,-0.00119549 0.00196363,-0.002146 0.00290308,-0.00284045 0.000946817,-0.000694455 0.00199311,-0.00122497 0.00313702,-0.00157312 0.00114208,-0.000348149 0.00237441,-0.000521302 0.00369332,-0.000521302 0.00198389,0 0.00375227,0.000438409 0.0052867,0.00131891 0.00153443,0.000878661 0.00274466,0.00215521 0.00361596,0.00383148 0.000556301,0.000968922 0.000926554,0.0020631 0.00112365,0.00327886 0.000186048,0.0012047 0.000283677,0.00259546 0.000283677,0.00416857l0 0.015663c0,0.00163575 -0.000362885,0.00287177 -0.00107576,0.0037099 -0.000712876,0.000838136 -0.00166153,0.00125628 -0.00284414,0.00125628 -0.00257888,0 -0.00387016,-0.00165417 -0.00387016,-0.00496618l0 -0.0138025c0,-0.00261572 -0.000370253,-0.00462909 -0.0011126,-0.00602905 -0.000744191,-0.00140917 -0.00216073,-0.00211468 -0.00424226,-0.00211468 -0.00138707,0 -0.00264888,0.000418147 -0.00376148,0.00124707 -0.00111444,0.000827083 -0.00195442,0.00196179 -0.00251257,0.00339123 -0.000419989,0.00121576 -0.000624457,0.00338202 -0.000624457,0.00649878l0 0.0108092c0,0.00161548 -0.000351833,0.00284045 -0.00104629,0.00368964 -0.000694455,0.000847346 -0.00166153,0.00127655 -0.00290124,0.00127655 -0.00258072,0 -0.00387016,-0.00165417 -0.00387016,-0.00496618l0 -0.0354449c0,-0.00165417 0.00034078,-0.00289019 0.00101497,-0.00371727 0.000676035,-0.000828925 0.00163206,-0.00124707 0.00285519,-0.00124707 0.0012397,0 0.00220678,0.000418147 0.00290124,0.00125628 0.000694455,0.000838136 0.00104629,0.00207416 0.00104629,0.00370806zm0.0515389 0.000419989l0 0.0125776 0.0183524 0 0 -0.0125776c0,-0.00178679 0.000390516,-0.00313702 0.00116234,-0.00403595 0.000771822,-0.000898924 0.00178864,-0.00134839 0.0030486,-0.00134839 0.00127102,0 0.00230625,0.000438409 0.00309834,0.00132812 0.000792084,0.000889713 0.00119181,0.00224731 0.00119181,0.00405621l0 0.0345754c0,0.0018089 -0.000399726,0.00316834 -0.00120102,0.00406726 -0.000801295,0.000898924 -0.00183837,0.00134839 -0.00308913,0.00134839 -0.00127839,0 -0.00230441,-0.000449462 -0.00306702,-0.00135944 -0.000762611,-0.000908134 -0.00114392,-0.00225652 -0.00114392,-0.00405621l0 -0.014753 -0.0183524 0 0 0.014753c0,0.00181995 -0.000399726,0.00316834 -0.00120102,0.00406726 -0.000801295,0.000898924 -0.00183837,0.00134839 -0.00308913,0.00134839 -0.00128023,0 -0.00230625,-0.000449462 -0.00306887,-0.00135944 -0.000762611,-0.000908134 -0.00114208,-0.00225652 -0.00114208,-0.00405621l0 -0.0345754c0,-0.00178679 0.000379464,-0.00313702 0.00113286,-0.00403595 0.000751559,-0.000898924 0.00177943,-0.00134839 0.00307808,-0.00134839 0.00127102,0 0.00230625,0.000438409 0.00309834,0.00132812 0.000792084,0.000889713 0.00119181,0.00224731 0.00119181,0.00405621zm0.0647022 0.0233775c0,0.00243151 -0.000361043,0.00467882 -0.00108497,0.00673456 -0.000733138,0.00205205 -0.00177758,0.00382043 -0.00315544,0.00530144 -0.00136865,0.0014718 -0.00300992,0.00260651 -0.00491645,0.00339307 -0.00191574,0.000786558 -0.00405621,0.00118444 -0.00643983,0.00118444 -0.00237441,0 -0.00449462,-0.000397884 -0.00639009,-0.00119549 -0.00188627,-0.00079761 -0.00351833,-0.00194153 -0.00490724,-0.00343175 -0.00138707,-0.00148286 -0.00243336,-0.00324018 -0.00314623,-0.00526276 -0.000712876,-0.00203363 -0.00107392,-0.00427173 -0.00107392,-0.00672351 0,-0.00247204 0.000361043,-0.00474145 0.00108313,-0.00679535 0.000733138,-0.00205205 0.00177022,-0.00380937 0.00312781,-0.00527197 0.00134839,-0.0014497 0.0029915,-0.00257335 0.00491645,-0.00336175 0.00193416,-0.000786558 0.00405437,-0.00118444 0.00639009,-0.00118444 0.0023652,0 0.00450567,0.000397884 0.00643983,0.00119549 0.00192495,0.00079761 0.00357727,0.00194153 0.00494592,0.00341333 0.00137786,0.00148101 0.0024223,0.00323834 0.00313702,0.00527197 0.000712876,0.00203363 0.00107392,0.00428094 0.00107392,0.00673272zm-0.00784716 0c0,-0.00333044 -0.000703666,-0.0059259 -0.00209994,-0.00778453 -0.00140733,-0.00184942 -0.00328439,-0.00277966 -0.00564959,-0.00277966 -0.00153443,0 -0.00287177,0.000418147 -0.00403595,0.00124523 -0.00116234,0.000828925 -0.00206126,0.00204468 -0.00268756,0.00365832 -0.000633667,0.00162469 -0.000946817,0.00350543 -0.000946817,0.00566064 0,0.00213679 0.00031315,0.00399542 0.000928396,0.00559985 0.000624457,0.00159338 0.00150496,0.00282019 0.00265809,0.00366753 0.00116234,0.000847346 0.00252178,0.00126733 0.00408384,0.00126733 0.0023652,0 0.00424226,-0.000930239 0.00564959,-0.00279993 0.00139628,-0.00186048 0.00209994,-0.00444488 0.00209994,-0.0077348zm0.0212168 -0.0120249l0 0.000979974c0.00146443,-0.00188995 0.00299887,-0.00328991 0.00458304,-0.00417963 0.00158233,-0.000887871 0.00338017,-0.00132812 0.00538249,-0.00132812 0.00240573,0 0.00462356,0.00064472 0.00664614,0.00194153 0.00202258,0.00129865 0.00362517,0.00319781 0.00479856,0.00569195 0.00117339,0.0024923 0.00175916,0.00544512 0.00175916,0.00885845 0,0.00251257 -0.000342623,0.0048225 -0.00101682,0.00692797 -0.000674193,0.00210363 -0.0016118,0.003872 -0.0027944,0.00530144 -0.0011826,0.00143128 -0.00258072,0.00252362 -0.00419252,0.00329175 -0.0016118,0.000764453 -0.00335254,0.00115313 -0.00520013,0.00115313 -0.00223626,0 -0.00411331,-0.000469724 -0.00562748,-0.00140917 -0.00151417,-0.000930239 -0.00296018,-0.00230994 -0.00433804,-0.00412805l0 0.012281c0,0.00358648 -0.0012526,0.00538433 -0.00375411,0.00538433 -0.00146443,0 -0.00244257,-0.000458672 -0.0029215,-0.00138891 -0.000478935,-0.000930239 -0.000712876,-0.00227862 -0.000712876,-0.00405621l0 -0.0352717c0,-0.00155285 0.00032236,-0.00271703 0.00097629,-0.00348333 0.00064472,-0.000766295 0.00153443,-0.00115497 0.00265809,-0.00115497 0.00110523,0 0.00201337,0.000397884 0.00270782,0.00118444 0.000694455,0.0007884 0.00104629,0.00192126 0.00104629,0.00340412zm0.0153222 0.0118831c0,-0.00215705 -0.00031315,-0.00400647 -0.000948659,-0.00555933 -0.000624457,-0.0015418 -0.00150496,-0.00272809 -0.00261756,-0.00355517 -0.00111444,-0.000827083 -0.00235599,-0.00124707 -0.00370438,-0.00124707 -0.00216073,0 -0.003977,0.000889713 -0.00546354,0.0026673 -0.00147549,0.00177758 -0.00221784,0.00438225 -0.00221784,0.00783611 0,0.00326044 0.000733138,0.00578222 0.00220863,0.00759111 0.00146628,0.0018089 0.0032936,0.00270782 0.00547275,0.00270782 0.00128944,0 0.00250151,-0.000397884 0.00360675,-0.00118444 0.00110339,-0.000786558 0.00199311,-0.00197284 0.00265625,-0.00354596 0.000674193,-0.00157312 0.0010076,-0.00348333 0.0010076,-0.00571038zm0.0359219 0.00214415l-0.0152835 0c2.02626e-005,0.00186048 0.000381306,0.00349438 0.00107576,0.00491461 0.000692613,0.00142023 0.00162285,0.00248309 0.00277598,0.00319781 0.00115129,0.00072577 0.00243336,0.00108313 0.00382043,0.00108313 0.000937607,0 0.00178864,-0.000112365 0.00256046,-0.000346307 0.000771822,-0.000224731 0.00152338,-0.00058209 0.00224731,-0.00107208 0.000733138,-0.000491829 0.00139812,-0.00101313 0.00200232,-0.00157496 0.000617089,-0.000561827 0.00140733,-0.00131891 0.00238546,-0.00227862 0.000401568,-0.000357359 0.00096708,-0.000541565 0.00170943,-0.000541565 0.000801295,0 0.00145707,0.000235783 0.00195442,0.000696297 0.000488145,0.000458672 0.000742349,0.00110339 0.000742349,0.00193969 0,0.000736823 -0.000281835,0.00160443 -0.000828925,0.00259546 -0.000558143,0.000981816 -0.00138891,0.00193232 -0.00251257,0.00284045 -0.00111444,0.000909976 -0.00251072,0.00166522 -0.00420173,0.00225836 -0.00169101,0.000602352 -0.00363622,0.000898924 -0.00582458,0.000898924 -0.00502329,0 -0.00893213,-0.00149207 -0.0117173,-0.00448541 -0.00278519,-0.00299334 -0.00418147,-0.0070606 -0.00418147,-0.0121889 0,-0.00241125 0.00034078,-0.0046604 0.00103524,-0.00672351 0.000683403,-0.0020631 0.00169101,-0.00383148 0.00300071,-0.00531249 0.00131891,-0.0014718 0.00294176,-0.00260651 0.00487592,-0.00339307 0.00192495,-0.000786558 0.00406542,-0.00118444 0.00641036,-0.00118444 0.00305781,0 0.00567722,0.000674193 0.00785637,0.00202258 0.00219021,0.00134839 0.00382227,0.00308544 0.00491645,0.00522039 0.00108497,0.00213679 0.00163206,0.00431225 0.00163206,0.00653009 0,0.00205389 -0.000567353,0.00338202 -0.00169101,0.00399358 -0.00112365,0.000604195 -0.00271703,0.000909976 -0.00475987,0.000909976zm-0.0152835 -0.0046383l0.0141709 0c-0.000186048,-0.00278887 -0.000909976,-0.00488329 -0.00216073,-0.00626299 -0.00125076,-0.00139075 -0.00289203,-0.00208521 -0.00493487,-0.00208521 -0.00195442,0 -0.0035478,0.000705508 -0.00479856,0.00210547 -0.00125076,0.00140917 -0.00201337,0.00349438 -0.00227678,0.00624273zm0.0518428 -0.0207416l0 0.0319394 0.017238 0c0.00136865,0 0.00242415,0.000348149 0.00315728,0.00105366 0.000742349,0.000694455 0.00110339,0.00157312 0.00110339,0.00262493 0,0.00108313 -0.000361043,0.00195258 -0.00108497,0.00262677 -0.000722086,0.00066314 -0.00178864,0.00100024 -0.00317571,0.00100024l-0.0205316 0c-0.00184758,0 -0.00318676,-0.000429199 -0.00399726,-0.0012876 -0.000810505,-0.000856556 -0.00121207,-0.00224731 -0.00121207,-0.00415752l0 -0.0337999c0,-0.00178679 0.000392358,-0.00313702 0.00116418,-0.00403595 0.000771822,-0.000898924 0.00178864,-0.00134839 0.0030486,-0.00134839 0.00127102,0 0.00230625,0.000438409 0.0030965,0.00132812 0.000792084,0.000889713 0.00119365,0.00224731 0.00119365,0.00405621zm0.0557996 0.0233775c0,0.00243151 -0.000361043,0.00467882 -0.00108497,0.00673456 -0.000733138,0.00205205 -0.00177943,0.00382043 -0.00315728,0.00530144 -0.00136681,0.0014718 -0.00300992,0.00260651 -0.00491461,0.00339307 -0.00191574,0.000786558 -0.00405621,0.00118444 -0.00643983,0.00118444 -0.00237441,0 -0.00449462,-0.000397884 -0.00639009,-0.00119549 -0.00188811,-0.00079761 -0.00351833,-0.00194153 -0.00490724,-0.00343175 -0.00138707,-0.00148286 -0.00243336,-0.00324018 -0.00314623,-0.00526276 -0.000712876,-0.00203363 -0.00107392,-0.00427173 -0.00107392,-0.00672351 0,-0.00247204 0.000361043,-0.00474145 0.00108313,-0.00679535 0.000733138,-0.00205205 0.00176837,-0.00380937 0.00312781,-0.00527197 0.00134839,-0.0014497 0.00298966,-0.00257335 0.00491645,-0.00336175 0.00193416,-0.000786558 0.00405437,-0.00118444 0.00639009,-0.00118444 0.0023652,0 0.00450567,0.000397884 0.00643983,0.00119549 0.00192495,0.00079761 0.00357727,0.00194153 0.00494408,0.00341333 0.0013797,0.00148101 0.00242415,0.00323834 0.00313702,0.00527197 0.000714718,0.00203363 0.00107576,0.00428094 0.00107576,0.00673272zm-0.00784716 0c0,-0.00333044 -0.000703666,-0.0059259 -0.00210179,-0.00778453 -0.00140733,-0.00184942 -0.00328254,-0.00277966 -0.00564775,-0.00277966 -0.00153443,0 -0.00287361,0.000418147 -0.00403595,0.00124523 -0.00116234,0.000828925 -0.00206126,0.00204468 -0.00268756,0.00365832 -0.000635509,0.00162469 -0.000948659,0.00350543 -0.000948659,0.00566064 0,0.00213679 0.00031315,0.00399542 0.000930239,0.00559985 0.000624457,0.00159338 0.00150496,0.00282019 0.00265809,0.00366753 0.00116234,0.000847346 0.00251993,0.00126733 0.00408384,0.00126733 0.0023652,0 0.00424041,-0.000930239 0.00564775,-0.00279993 0.00139812,-0.00186048 0.00210179,-0.00444488 0.00210179,-0.0077348zm0.0187521 -0.0115257l0.00633299 0.0185661 0.00681192 -0.0193729c0.000536038,-0.00155285 0.00106471,-0.00265625 0.00157312,-0.00331018 0.000517618,-0.00064472 0.00129865,-0.000970764 0.00235415,-0.000970764 0.000987342,0 0.00183837,0.000346307 0.00253099,0.00105181 0.000694455,0.000696297 0.00104629,0.00150312 0.00104629,0.0024223 0,0.000357359 -5.89458e-005,0.000777348 -0.000186048,0.00125628 -0.000127102,0.000480777 -0.000263414,0.000930239 -0.000429199,0.00134839 -0.000165785,0.000419989 -0.000351833,0.000900766 -0.000558143,0.00143128l-0.00750454 0.019465c-0.000204468,0.000550775 -0.000478935,0.00126549 -0.000810505,0.00212389 -0.000333412,0.000858398 -0.000712876,0.00158417 -0.00112365,0.00219757 -0.000410779,0.000613405 -0.000909976,0.00108313 -0.00151601,0.00142023 -0.000594984,0.000337096 -0.00132812,0.00051025 -0.00218836,0.00051025 -0.00110339,0 -0.00199311,-0.000265256 -0.00264704,-0.00079761 -0.000655772,-0.00051946 -0.00114392,-0.00110339 -0.00145707,-0.00173522 -0.00032236,-0.000624457 -0.00085103,-0.00187153 -0.00159338,-0.00371911l-0.00744559 -0.0192513c-0.000167627,-0.000478935 -0.000351833,-0.000959711 -0.00052867,-0.00144049 -0.000186048,-0.000478935 -0.00033157,-0.000959711 -0.000458672,-0.00146075 -0.000127102,-0.000501039 -0.000186048,-0.000930239 -0.000186048,-0.0012876 0,-0.000561827 0.000165785,-0.0011126 0.000488145,-0.00166522 0.00032236,-0.000550775 0.000771822,-0.00100024 0.00135023,-0.00134839 0.000565511,-0.000348149 0.00119181,-0.000521302 0.00185495,-0.000521302 0.00130049,0 0.00219021,0.000388674 0.00267835,0.00116418 0.000488145,0.000777348 0.00102603,0.00208521 0.0016118,0.00392358zm0.0472985 0.0135281l-0.0152835 0c1.84206e-005,0.00186048 0.000381306,0.00349438 0.00107392,0.00491461 0.000694455,0.00142023 0.00162285,0.00248309 0.00277598,0.00319781 0.00115313,0.00072577 0.00243336,0.00108313 0.00382043,0.00108313 0.000939449,0 0.00178864,-0.000112365 0.0025623,-0.000346307 0.00076998,-0.000224731 0.00152338,-0.00058209 0.00224731,-0.00107208 0.000731296,-0.000491829 0.00139628,-0.00101313 0.00200232,-0.00157496 0.000615247,-0.000561827 0.00140733,-0.00131891 0.00238362,-0.00227862 0.000401568,-0.000357359 0.000968922,-0.000541565 0.00171127,-0.000541565 0.000801295,0 0.00145522,0.000235783 0.00195442,0.000696297 0.000488145,0.000458672 0.000742349,0.00110339 0.000742349,0.00193969 0,0.000736823 -0.000283677,0.00160443 -0.000830767,0.00259546 -0.000556301,0.000981816 -0.00138707,0.00193232 -0.00251072,0.00284045 -0.00111444,0.000909976 -0.00251257,0.00166522 -0.00420357,0.00225836 -0.00168917,0.000602352 -0.00363438,0.000898924 -0.00582274,0.000898924 -0.00502329,0 -0.00893213,-0.00149207 -0.0117173,-0.00448541 -0.00278519,-0.00299334 -0.00418331,-0.0070606 -0.00418331,-0.0121889 0,-0.00241125 0.000342623,-0.0046604 0.00103708,-0.00672351 0.000683403,-0.0020631 0.00168917,-0.00383148 0.00299887,-0.00531249 0.00131891,-0.0014718 0.00294176,-0.00260651 0.00487777,-0.00339307 0.00192495,-0.000786558 0.00406542,-0.00118444 0.00641036,-0.00118444 0.00305781,0 0.00567722,0.000674193 0.00785637,0.00202258 0.00219021,0.00134839 0.00382043,0.00308544 0.00491645,0.00522039 0.00108313,0.00213679 0.00163022,0.00431225 0.00163022,0.00653009 0,0.00205389 -0.000565511,0.00338202 -0.00168917,0.00399358 -0.0011255,0.000604195 -0.00271703,0.000909976 -0.00475987,0.000909976zm-0.0152835 -0.0046383l0.0141691 0c-0.000186048,-0.00278887 -0.000908134,-0.00488329 -0.00215889,-0.00626299 -0.00125076,-0.00139075 -0.00289203,-0.00208521 -0.00493487,-0.00208521 -0.00195442,0 -0.0035478,0.000705508 -0.00479856,0.00210547 -0.00125076,0.00140917 -0.00201337,0.00349438 -0.00227678,0.00624273zm-0.227393 -0.0338441c0.00772558,-0.000464198 0.0106213,-0.0296811 0.012432,-0.0391492l0.016293 -0.0864238c0.00261388,-0.0136625 0.00696297,-0.0290677 0.00804794,-0.0426933 0.00396226,0.0047654 0.0046033,0.0120213 0.00676587,0.0178551 0.0109713,0.0295834 0.0178698,0.00331018 0.0218449,-0.00289755 0.0117321,0.00285887 0.0159135,0.0224381 0.0345736,0.0224381 0.0147015,0 0.0212997,-0.00328254 0.032527,-0.0121134 0.00589642,-0.00464014 0.0164993,-0.0128097 0.0246743,-0.0141746 0.0268369,-0.00447436 0.0261793,0.0246117 0.0345975,0.0412455 0.00452777,-0.00317018 0.0058209,-0.00922318 0.00788953,-0.0154364 0.00421278,-0.0126549 0.0237183,-0.0476577 0.0323428,-0.0571756 0.00198021,-0.00218468 0.0031886,-0.00396963 0.00502145,-0.00597011l0.00433252 -0.00419436c0.000180522,-0.000174995 0.000434725,-0.000431041 0.000613405,-0.000606037 0.014217,-0.0137731 0.0410668,-0.0201558 0.0568569,-0.00362148 0.0187042,0.0195811 0.00720244,0.0475508 -0.0052167,0.0663398 -0.0286458,0.0433362 -0.0721018,0.0539741 -0.104529,0.0876561l-0.0107171 0.0149722c-0.00216257,0.0036178 0.000112365,0.00276308 -0.0044762,0.00404516 0,-0.0159817 -0.00571959,-0.0372261 -0.0127212,-0.0502697 -0.00782506,-0.0145744 -0.0136883,-0.0295061 -0.0325805,-0.0295061 0.00312597,0.0122405 0.029379,0.0412436 0.0309687,0.074817 0.000311308,0.00658167 0.00149391,0.0105587 0.00127286,0.0161327 -0.000235783,0.00590379 -0.00209073,0.0159393 -0.000508408,0.0239578 -0.000900766,0.000263414 -0.00178864,0.000574722 -0.0026673,0.000932081 -0.00364727,0.00149207 -0.00692982,0.00371543 -0.00965053,0.0066443 -0.0026194,0.00281835 -0.00460146,0.00615615 -0.00595168,0.00981632l0 -0.0113894c0,-0.00502697 -0.00145338,-0.00984395 -0.00477461,-0.013576 -0.00335991,-0.00377437 -0.007954,-0.00578037 -0.0128778,-0.00578037 -0.00499934,0 -0.00965053,0.00209258 -0.0129939,0.00598853 -0.0031886,0.00371543 -0.00458119,0.00844214 -0.00458119,0.0133678l0 0.00419436c-0.00213494,-0.00304676 -0.00484645,-0.00555748 -0.00800005,-0.0075027 -0.00445962,-0.0027594 -0.00947922,-0.00396042 -0.014648,-0.00396042 -0.00386095,0 -0.00766848,0.000668667 -0.0112697,0.00214231 -0.00223073,0.000906292 -0.00432146,0.00209626 -0.00622615,0.00356438 -0.000698139,-0.000561827 -0.00143128,-0.0010905 -0.00219205,-0.00158048 -0.0041391,-0.0026544 -0.00878293,-0.00400463 -0.0136367,-0.00400463 -0.00255309,0 -0.00506381,0.000372095 -0.00746954,0.00114576 -0.00196179,-0.000795768 -0.00407463,-0.00120655 -0.0062501,-0.00120655 -0.00390148,0 -0.00759848,0.00130786 -0.0105771,0.00379279 -0.0010555,-0.000611563 -0.00215152,-0.00114944 -0.0032807,-0.00161733 -0.00363254,-0.00149759 -0.0074677,-0.00217547 -0.0113544,-0.00217547 -0.00325676,0 -0.00647483,0.000484461 -0.0095658,0.00151785 -0.000489987,-0.00195995 -0.00126181,-0.00382964 -0.00233757,-0.00554091zm-0.164707 -0.00327333l0 -0.123858c0.00521302,-0.000121576 0.00744191,-0.00130602 0.0142796,-0.00127655 0.00482066,2.21047e-005 0.0107668,0.000353675 0.0154659,-3.1315e-005 0.0388821,-0.00318676 0.0469227,-0.0298542 0.0620534,-0.0298542 0.0100797,0 0.00982,0.0349014 0.02146,0.0349014 0.0145615,0 0.0313757,-0.0414721 0.0348259,-0.055829 0.00128207,-0.00534012 0.00365648,-0.0202166 0.00690034,-0.0227015 0,0.0379924 0.000151049,0.0684674 0.00115313,0.103501 0.000174995,0.00615247 0.00109418,0.00622984 0.00126918,0.0123823 0.000641036,0.0223736 -0.000558143,0.043537 0.00121576,0.0660414 0.000215521,0.0027244 -0.000178679,0.00988263 0.00115865,0.0148525 -0.00284966,-0.00195995 -0.00619668,-0.00298045 -0.00971316,-0.00298045 -0.00500118,0 -0.00965053,0.00209258 -0.0129939,0.00599037 -0.000136312,0.000158417 -0.00026894,0.000318676 -0.000397884,0.000478935 -0.00018789,-0.000233941 -0.000381306,-0.000462356 -0.00058209,-0.000688929 -0.00335991,-0.00377437 -0.00795584,-0.00578037 -0.0128797,-0.00578037 -0.00507118,0 -0.00979053,0.00212021 -0.0131357,0.00612115 -0.00310018,0.00370438 -0.00443751,0.00837399 -0.00443751,0.0132352l0 0.00398253c-0.00203731,-0.00341701 -0.00482987,-0.0062022 -0.00823399,-0.00815294 -0.00282387,-0.00161733 -0.00588721,-0.00256414 -0.00905002,-0.00289755 -0.000701824,-0.00224731 -0.00179785,-0.0043491 -0.00333596,-0.00620773 -0.00329912,-0.00398068 -0.00798163,-0.00608063 -0.0130031,-0.00608063 -0.00383885,0 -0.00748243,0.00123786 -0.01045,0.0036049 -0.00264519,-0.00166153 -0.00565696,-0.0025623 -0.0088124,-0.0025623 -0.00278335,0 -0.00549301,0.000679719 -0.00795032,0.00201705 -0.00274835,-0.00177022 -0.00589642,-0.0027023 -0.00918081,-0.0027023 -0.00436199,0 -0.00846609,0.00166522 -0.0117044,0.00471935 -0.00231546,0.00218284 -0.00396226,0.00490355 -0.00484829,0.00791532 -0.00288282,-0.000670509 -0.00587248,-0.00090445 -0.00880503,-0.00090445 -0.00176837,0 -0.00353675,0.000103155 -0.00528854,0.000342623 -0.000863924,-0.00265072 -0.0023431,-0.00505645 -0.00437673,-0.00702376l-8.47346e-005 -8.10505e-005c-0.000169469,-0.000162101 -0.000342623,-0.000320518 -0.000517618,-0.000473409zm-0.0369922 -0.158549c-3.68411e-006,-0.003802 -1.10523e-005,-0.00760401 -2.57888e-005,-0.0114079 -3.1315e-005,-0.0079761 0.0012526,-0.0157146 0.00122497,-0.0236538 -4.23673e-005,-0.0118536 -0.00162285,-0.023711 0.00057288,-0.0354559 -0.000106839,-0.00119549 -5.15776e-005,-0.00241125 0.000180522,-0.0036178 0.00168917,-0.00875161 0.00668667,-0.00951975 0.0124412,-0.0108018l0.00079761 -0.000176837 0.00567906 -0.000539723 0.0277985 0 0.000274466 0.0128649c2.21047e-005,0.00104445 9.21028e-005,0.00169653 0.000307623,0.00269309 0.00065393,0.00302097 0.000887871,0.00570853 0.000887871,0.00880687l0 0.0619299c0.0125555,0.000263414 0.0274927,2.57888e-005 0.0353804,-0.00496987 0.00293992,-0.00186416 0.00555748,-0.00431778 0.00818794,-0.00658535 0.00431962,-0.00371911 0.00854162,-0.00682298 0.0137767,-0.00918265 0.0100853,-0.00454804 0.0211708,-0.00612115 0.0309355,0.000180522 0.00443015,0.00285887 0.00758559,0.0066793 0.0101295,0.0109418 0.000152891,-0.000401568 0.000291045,-0.000764453 0.000410779,-0.00107945 0.00475435,-0.0125518 0.00877924,-0.0255548 0.0125315,-0.0384382 0.00376701,-0.0129257 0.00726323,-0.0259564 0.0104831,-0.0390295 0.00198389,-0.00805163 0.00417778,-0.0166522 0.00550775,-0.0248328 0.000648404,-0.00399358 0.000928396,-0.00785637 0.00193969,-0.0118205 0.00278151,-0.0109252 0.00816768,-0.0148138 0.0194024,-0.0150754l0.0124523 -0.000291045 0.00262493 0.0339252c0.00110523,0.00805531 0.00108681,0.0174295 0.00121207,0.0255383 0.000193416,0.0126733 0.000160259,0.0253633 8.47346e-005,0.0380366 -2.76308e-005,0.00461804 -7.18402e-005,0.00923791 -0.000123418,0.0138596 0.00334702,-0.00925633 0.00767032,-0.017378 0.0134728,-0.0214397l0.00753954 -0.00527933 0.00754138 0.00527933c0.00974448,0.00682114 0.0128115,0.0194963 0.0152007,0.030451 2.21047e-005,0.000101313 4.60514e-005,0.000211836 7.18402e-005,0.000329728 0.00306518,-0.00128944 0.0065743,-0.00199679 0.0105679,-0.00199679 0.00917897,0 0.0158785,0.00720797 0.0212076,0.0137915 0.001971,0.00243336 0.0045462,0.00625747 0.00670324,0.00835004 0.00339675,0.00307071 0.00754875,0.00593326 0.0122313,0.00391621 0.000427357,-0.000184206 0.000839978,-0.000397884 0.0012397,-0.000633667 0.00271519,-0.00159338 0.00537512,-0.00430857 0.00760954,-0.00651351 0.00293808,-0.00289571 0.00583932,-0.00575458 0.00913844,-0.00825241 0.0222355,-0.016829 0.0509881,-0.0197358 0.0681561,-0.00284598 0.00433804,-0.00752296 0.00935212,-0.0147033 0.0140567,-0.021331 0.00508408,-0.00716376 0.00996737,-0.0141452 0.0168088,-0.0198058 0.00786742,-0.0065043 0.0124505,-0.0107963 0.022042,-0.0152983 0.0422144,-0.0198132 0.0902737,0.0114115 0.0902737,0.0580303 0,0.0140144 -0.00307623,0.0274337 -0.00899845,0.04012 -0.0107189,0.0229631 -0.0295963,0.0412381 -0.0493892,0.0565272 -0.0121355,0.00937423 -0.0249028,0.0178274 -0.0376811,0.0262843 -0.0100503,0.00665167 -0.0206734,0.0134875 -0.0299721,0.0211744l-0.0111665 0.0113508c-0.0025052,0.0030965 -0.00472672,0.0055888 -0.00683219,0.00874424 0.00297861,0.000200784 0.00588905,0.000827083 0.00864109,0.00186969 0.00335438,-0.00128207 0.00694455,-0.00194153 0.0106121,-0.00194153 0.00340228,0 0.00674377,0.000578406 0.00990105,0.00169653 0.00400647,-0.00118628 0.00816584,-0.00175732 0.0123713,-0.00175732 0.00764269,0 0.0150349,0.00188811 0.0215502,0.00591853 0.00629431,0.00388121 0.011336,0.00928949 0.0147162,0.0158804l2.21047e-005 4.42094e-005c0.00300624,0.00591853 0.00462356,0.0123989 0.00462356,0.0190469 0,0.00237257 -0.000226573,0.00474514 -0.000696297,0.00706797 0.000158417,0.00127839 0.000237625,0.00256598 0.000237625,0.00385542 0,0.00563485 -0.00154364,0.0110155 -0.00425515,0.0159301l-5.52617e-005 9.7629e-005 -0.000110523 0.000195258c-0.00228599,0.00402674 -0.00533644,0.00752664 -0.00892845,0.0104371 -0.00359754,0.00293071 -0.00767769,0.00512644 -0.012047,0.00666456 -0.00465672,0.00165048 -0.00954738,0.00238546 -0.0144804,0.00238546 -0.00650983,0 -0.0128115,-0.00126733 -0.0185385,-0.00391437 -3.86832e-005,2.21047e-005 -7.55243e-005,4.23673e-005 -0.000114208,6.4472e-005 -0.00457567,0.00256967 -0.00969474,0.0038499 -0.0149354,0.0038499 -0.00528118,0 -0.0104003,-0.0012876 -0.0149372,-0.00382779 -0.000515776,0.000237625 -0.00103708,0.00046604 -0.00156391,0.000683403 -0.00519276,0.00213494 -0.0107281,0.00314439 -0.0163335,0.00314439 -0.00461435,0 -0.00917344,-0.000688929 -0.0135391,-0.0021331 -0.00303387,0.000930239 -0.00620957,0.00138707 -0.0094258,0.00138707l-0.0205316 0c-0.00660009,0 -0.0128999,-0.00177943 -0.0182032,-0.00540644 -0.00250151,0.00153628 -0.00517249,0.00278519 -0.00795768,0.00376701 -0.00465856,0.00165048 -0.00954922,0.00238546 -0.0144822,0.00238546 -0.00618747,0 -0.012222,-0.00114576 -0.0177648,-0.00356806 -0.00153996,0.000718402 -0.00312229,0.00133181 -0.00473593,0.00183653 -0.00533828,0.00853056 -0.0143901,0.0138596 -0.0251201,0.0138596 -0.00971316,0 -0.0185642,-0.00442094 -0.0240996,-0.012141 -0.000370253,7.36823e-006 -0.000742349,1.28944e-005 -0.0011126,1.28944e-005 -0.00496066,0 -0.00985684,-0.000795768 -0.0145191,-0.00247204 -0.0037578,0.00162285 -0.00783427,0.00247204 -0.0120231,0.00247204 -0.00474882,0 -0.00931896,-0.00108313 -0.0134286,-0.0031186 -0.00411515,0.00203547 -0.00868161,0.0031186 -0.0134249,0.0031186 -0.00560722,0 -0.0109658,-0.00150864 -0.0156096,-0.00431225 -0.00461619,0.00280177 -0.00994158,0.00431225 -0.0155156,0.00431225 -0.0034778,0 -0.00688561,-0.000559985 -0.0101,-0.00167811 -0.00317939,0.00110892 -0.00654483,0.00167811 -0.00997105,0.00167811 -0.00219573,0 -0.00437857,-0.000222889 -0.00651351,-0.000677877 -0.00264335,0.000475251 -0.00533091,0.000677877 -0.00802768,0.000677877 -0.00405989,0 -0.00804426,-0.00053788 -0.0118315,-0.00174443 -0.00321623,0.00115129 -0.00662404,0.00174443 -0.0100982,0.00174443 -0.00239099,0 -0.00476172,-0.000281835 -0.00706797,-0.00084182 -0.00228783,0.000558143 -0.00464014,0.00084182 -0.00701455,0.00084182 -0.00248125,0 -0.00493303,-0.000324202 -0.0073056,-0.000956027 -0.00294545,0.000642878 -0.00595721,0.000956027 -0.00898371,0.000956027 -0.00622799,0 -0.0122994,-0.00145154 -0.0177777,-0.00444304 -0.000738665,-0.00040341 -0.00145891,-0.000830767 -0.00216257,-0.00128023 -0.00510986,0.00370253 -0.0112531,0.00572327 -0.0177224,0.00572327 -0.00878108,0 -0.0169598,-0.00372095 -0.0227641,-0.0103137 -0.00544143,-0.00617826 -0.00800558,-0.0140438 -0.00800558,-0.0222189l0 -0.0337686c0,-0.00497171 0.000919186,-0.00987342 0.0029565,-0.0144233 0.0029565,-0.00660377 0.00806637,-0.0119384 0.0146001,-0.0150496 0.0011126,-0.000530512 0.00224731,-0.000989184 0.00340044,-0.00137786 0.000165785,-0.00631089 0.000366569,-0.0126218 0.000567353,-0.018929 0.00045683,-0.0143478 0.00116602,-0.0289277 0.00116602,-0.0432681 0,-0.00791532 -5.15776e-005,-0.0158306 -4.05252e-005,-0.023746 3.68411e-006,-0.00340965 0.000256046,-0.00677693 0.000532354,-0.0101405 -0.0025273,-0.000209994 -0.00505276,-0.000373937 -0.00759111,-0.000377622 -0.00795584,-1.28944e-005 -0.0159098,4.23673e-005 -0.0238657,4.23673e-005l-0.012141 0 -0.000963396 -0.0121042c-0.000128944,-0.00162654 -0.000512092,-0.00300439 -0.000981816,-0.00455725 -0.00174811,-0.00579327 -0.00263598,-0.010286 -0.00263598,-0.0164293l0 -0.0131468 0.044143 0c0.00239283,0 0.00475803,-0.000152891 0.00711771,-0.000353675zm0.0172509 -0.0721036c-0.00407831,0.000908134 -0.00158785,-0.000246836 -0.00208889,0.00181258 -0.00256414,0.0105716 -0.000856556,0.0243244 -0.000817873,0.0351814 3.49991e-005,0.00987895 -0.00125812,0.0146517 -0.00122313,0.0236502 3.1315e-005,0.00790611 2.76308e-005,0.0158085 2.76308e-005,0.0237128 -0.0083261,0 -0.0116344,0.00124707 -0.0202663,0.00124707l-0.0309981 0c0,0.0100889 0.00297676,0.0123989 0.00357727,0.0199439 0.00795953,0 0.0159283,-5.34196e-005 0.0238841,-4.23673e-005 0.00787295,1.10523e-005 0.0123952,0.00128944 0.0214194,0.00128944 0,0.00943501 -0.00122313,0.0141617 -0.00123418,0.0223939 -9.21028e-006,0.00790242 4.23673e-005,0.0158196 4.23673e-005,0.0237275 0,0.0136275 -0.00157864,0.0507321 -0.00198758,0.0736307l-0.0021331 0c-0.00293255,0 -0.0058209,0.000532354 -0.00850293,0.00181074 -0.00366017,0.00174443 -0.00655219,0.00474514 -0.00825978,0.00855635 -0.00127286,0.00284414 -0.00180706,0.00592221 -0.00180706,0.00905002l0 0.0337686c0,0.00500487 0.00143865,0.0097979 0.00472487,0.0135299 0.0033507,0.00380569 0.007954,0.0058559 0.0128981,0.0058559 0.00490355,0 0.00947554,-0.00201521 0.0128281,-0.00577669 0.00182548,-0.00205205 0.0030836,-0.0044283 0.0038499,-0.00698692 0.000233941,0.000477093 0.000486303,0.000948659 0.000755243,0.0014147 0.00211468,0.00366017 0.00512829,0.00653377 0.00875529,0.00851583 0.00355885,0.00194337 0.0074677,0.00283308 0.0114742,0.00283308 0.00322913,0 0.00642694,-0.000506566 0.0094737,-0.00159338 0.00210547,0.00102787 0.00440436,0.00159338 0.00681561,0.00159338 0.00245362,0 0.00482803,-0.000541565 0.00701087,-0.00156391 0.00218284,0.00102603 0.00458119,0.00156391 0.00707165,0.00156391 0.00354227,0 0.00690771,-0.00108129 0.00974632,-0.0031186 0.00368043,0.00229336 0.00790058,0.0031186 0.0121834,0.0031186 0.00282019,0 0.00565143,-0.000287361 0.00835004,-0.00109602 0.00187521,0.000711034 0.00394753,0.00109602 0.00619115,0.00109602 0.00364175,0 0.00710297,-0.00111076 0.00998763,-0.00323834 0.00272993,0.00204837 0.00614694,0.00323834 0.0100834,0.00323834 0.00494224,0 0.00953817,-0.002076 0.0128281,-0.00594063 0.0010905,-0.00128207 0.00196732,-0.00268572 0.00264519,-0.00417594 0.000659456,0.00141838 0.00149943,0.0027594 0.00253467,0.00399542 0.00334149,0.00398989 0.00805163,0.00612115 0.0131173,0.00612115 0.00491645,0 0.00950501,-0.00202626 0.0128649,-0.00579511 0.000198942,-0.000224731 0.000392358,-0.000453146 0.000578406,-0.000685245 9.57869e-005,0.000119734 0.000193416,0.000239467 0.000291045,0.000355517 0.00334702,0.00399174 0.00805531,0.00612484 0.0131191,0.00612484 0.00417963,0 0.00812347,-0.00146443 0.0112771,-0.00422015 0.00123049,0.000768138 0.00252362,0.00143865 0.003872,0.00200968 0.0036399,0.00153075 0.0074898,0.00221047 0.0113931,0.00221047 0.00300255,0 0.00597563,-0.000399726 0.00884556,-0.00126918 0.000366569,0.00160627 0.000909976,0.0031665 0.00167811,0.00465856 0.00295282,0.00573432 0.00855819,0.00873872 0.0146886,0.00873872 0.00809215,0 0.0138044,-0.00510065 0.0160535,-0.0122349 0.0028994,-0.000265256 0.0057288,-0.00103155 0.00839425,-0.00229889 0.00186416,-0.000886029 0.00359938,-0.00198942 0.00518907,-0.0032936 0.00516513,0.00396226 0.0114152,0.00569932 0.017984,0.00569932 0.00342991,0 0.00684877,-0.000478935 0.0101018,-0.0016339 0.00293071,-0.00102971 0.0056938,-0.00247941 0.00813636,-0.00447251 0.00203916,-0.00165048 0.00384437,-0.00359938 0.00527197,-0.00586695 0.000821557,0.00211836 0.00201337,0.00407831 0.00363254,0.00578958 0.00361596,0.00382779 0.00844951,0.00543775 0.0135004,0.00543775l0.0205316 0c0.00332675,0 0.00655404,-0.000795768 0.00937607,-0.00250704 0.000714718,0.000377622 0.00144601,0.00072577 0.00219573,0.0010426 0.0036399,0.00153075 0.0074898,0.00221047 0.0113931,0.00221047 0.00388121,0 0.00771269,-0.000668667 0.0113323,-0.00215521 0.00276861,-0.00114208 0.00531986,-0.00271335 0.00757822,-0.00468803 0.000921028,0.00117155 0.00197837,0.00222889 0.00314255,0.00315913 0.00311308,0.00250335 0.00687824,0.00368411 0.0107816,0.00368411 0.0029694,0 0.00587984,-0.000696297 0.00850293,-0.0021681 0.00215336,-0.0012047 0.00401753,-0.00284966 0.00552249,-0.00484277 0.00544512,0.00489434 0.0123086,0.00701087 0.0195626,0.00701087 0.00342807,0 0.00684877,-0.000478935 0.0101018,-0.0016339 0.00292887,-0.00102971 0.00569195,-0.00247941 0.00813452,-0.00447251 0.00229336,-0.00185495 0.00429015,-0.00408752 0.00578958,-0.00672535l8.47346e-005 -0.000152891c0.00162469,-0.00294361 0.0026194,-0.00615615 0.0026194,-0.00957869 0,-0.00148286 -0.000178679,-0.00293624 -0.000524986,-0.00433252 0.000657614,-0.00207231 0.000983658,-0.00429936 0.000983658,-0.00659088 0,-0.00459777 -0.00113655,-0.00903529 -0.00319781,-0.0130933 -0.00231546,-0.00451488 -0.00572695,-0.00810321 -0.00992132,-0.0106895 -0.00445962,-0.0027594 -0.00947922,-0.00396042 -0.0146462,-0.00396042 -0.00386095,0 -0.00766848,0.000668667 -0.0112697,0.00214231 -0.000585774,0.000237625 -0.00116234,0.000495513 -0.00172785,0.000771822 -0.0027373,-0.00186416 -0.00593326,-0.00285335 -0.00927475,-0.00285335 -0.00391805,0 -0.00763901,0.00131523 -0.0105845,0.00387384 -0.00297124,-0.00256967 -0.00676587,-0.00387384 -0.0107779,-0.00387384 -0.00301913,0 -0.00596274,0.000825241 -0.00857109,0.00241309 -0.000246836,0.000149207 -0.000488145,0.000303939 -0.00072577,0.000464198 -0.000512092,-0.000248678 -0.00103339,-0.000484461 -0.00156022,-0.000701824 -0.00185495,-0.000764453 -0.00376148,-0.00131523 -0.00569932,-0.00167075 0.000921028,-0.00534933 0.0023081,-0.0117689 0.00577301,-0.0177372 0.00368043,-0.00634036 0.00571038,-0.00811242 0.00989369,-0.0133402l0.0120894 -0.0122884c0.0375135,-0.0312873 0.121802,-0.0660359 0.121802,-0.134415 0,-0.0379887 -0.0389134,-0.0614436 -0.0715399,-0.0461306 -0.00907765,0.00426068 -0.0119899,0.00752664 -0.0192495,0.0135299 -0.00572327,0.00473409 -0.010065,0.01108 -0.0144675,0.0172822 -0.00811978,0.0114392 -0.019104,0.0271188 -0.0223073,0.041496l-0.00238362 0c-0.00743086,-0.0333467 -0.0390663,-0.030521 -0.0603089,-0.0144436 -0.00705139,0.00533644 -0.0125389,0.0134691 -0.0207231,0.0169911 -0.0104702,0.00450751 -0.0195461,-0.000173153 -0.0262806,-0.0062722 -0.00430857,-0.00389963 -0.0130897,-0.0187135 -0.0190598,-0.0187135 -0.00845688,0 -0.0122534,0.00574722 -0.0143054,0.0149593 -0.00995447,-0.00697034 -0.0075948,-0.0380827 -0.0190763,-0.0461214 -0.0089395,0.00625931 -0.0150735,0.0392597 -0.0178808,0.0511079 -0.00219205,0.00925818 -0.00487777,0.0183156 -0.00716192,0.0274153 -0.00120839,0.00481882 -0.00242599,0.00908318 -0.00357543,0.0137123 -0.00126181,0.0050896 -0.00125076,0.00978132 -0.00476172,0.0124707 0,-0.0178219 -0.00119734,-0.0317239 -0.00119365,-0.0486137 5.52617e-006,-0.0224731 0.00170759,-0.104708 -0.000688929,-0.121438l-0.00169469 -0.0219094c-0.00574906,0.00013447 -0.00579879,0.000580248 -0.0069685,0.00517802 -0.000874977,0.00342807 -0.00108129,0.00684877 -0.0017039,0.0106839 -0.00321439,0.0197782 -0.028795,0.120319 -0.042592,0.129977 -0.00911265,-0.014228 -0.0100595,-0.0390811 -0.034977,-0.0278464 -0.00848635,0.00382779 -0.0127415,0.0100797 -0.0203345,0.0148893 -0.0146222,0.0092637 -0.0381471,0.00672535 -0.0555619,0.00672535l0 -0.0747893c0,-0.00626483 -0.00107208,-0.00558327 -0.00119181,-0.01122l-0.0143054 0 -0.0042441 0.000405252z"/>
 </g>
</svg>
