<?xml version="1.0" encoding="UTF-8"?>
<!DOCTYPE svg PUBLIC "-//W3C//DTD SVG 1.1//EN" "http://www.w3.org/Graphics/SVG/1.1/DTD/svg11.dtd">
<!-- Creator: CorelDRAW -->
<svg xmlns="http://www.w3.org/2000/svg" xml:space="preserve" width="5548in" height="7180in" style="shape-rendering:geometricPrecision; text-rendering:geometricPrecision; image-rendering:optimizeQuality; fill-rule:evenodd; clip-rule:evenodd"
viewBox="0 0 1794.19 1191.16"
 xmlns:xlink="http://www.w3.org/1999/xlink">
 <defs>
  <style type="text/css">
   <![CDATA[
    .fil0 {fill:#9900CC}
   ]]>
  </style>
 </defs>
 <g id="Layer_x0020_1">
  <metadata id="CorelCorpID_0Corel-Layer"/>
  <path class="fil0" d="M233.337 962.717l-50.9191 0 0 34.1371 42.5756 0c3.92005,0 6.89326,0.929037 8.82029,2.76042 1.93148,1.86475 2.91168,4.31747 2.91168,7.42563 0,3.10742 -0.980197,5.56088 -2.93985,7.36408 -1.98783,1.83064 -4.92842,2.73224 -8.79212,2.73224l-42.5756 0 0 43.948c0,5.56014 -1.21524,9.72635 -3.62347,12.426 -2.40749,2.70481 -5.49341,4.0372 -9.26739,4.0372 -3.80216,0 -6.92144,-1.36649 -9.32893,-4.09874 -2.4023,-2.73299 -3.62347,-6.86583 -3.62347,-12.3644l0 -102.656c0,-3.88075 0.565727,-7.05045 1.66307,-9.50317 1.09735,-2.45272 2.8227,-4.25592 5.16865,-5.37032 2.34595,-1.11959 5.34808,-1.68013 8.99898,-1.68013l60.9316 0c4.13284,0 7.18984,0.963144 9.1836,2.85607 1.98783,1.92629 3.00139,4.41237 3.00139,7.52053 0,3.16451 -1.01356,5.67803 -3.00139,7.60506 -1.99376,1.89811 -5.05076,2.86126 -9.1836,2.86126l0 -0.00074145zm85.4143 100.825c-5.76774,4.65853 -11.3227,8.16411 -16.6708,10.4997 -5.37551,2.32371 -11.4065,3.50558 -18.0595,3.50558 -6.12067,0 -11.468,-1.27159 -16.0717,-3.78585 -4.60811,-2.52019 -8.17004,-5.90788 -10.6672,-10.2194 -2.49795,-4.31747 -3.74062,-8.97674 -3.74062,-14.0112 0,-6.80355 2.04937,-12.5772 6.17628,-17.3929 4.12765,-4.78754 9.77157,-8.0136 16.9955,-9.63218 1.48364,-0.369242 5.22426,-1.17594 11.2278,-2.45272 5.96942,-1.30495 11.0817,-2.45272 15.3599,-3.51077 4.2448,-1.08622 8.88183,-2.35781 13.8711,-3.88075 -0.29658,-6.55739 -1.54592,-11.3679 -3.76879,-14.4138 -2.26216,-3.07479 -6.86509,-4.59773 -13.9044,-4.59773 -6.03096,0 -10.5783,0.873428 -13.6078,2.64327 -3.06293,1.76984 -5.6721,4.37901 -7.84529,7.91795 -2.16652,3.51151 -3.71244,5.84115 -4.60292,6.96074 -0.917916,1.12033 -2.85014,1.67419 -5.79592,1.67419 -2.6707,0 -4.98922,-0.901604 -6.91551,-2.69888 -1.96558,-1.76984 -2.91168,-4.0713 -2.91168,-6.86509 0,-4.35157 1.45547,-8.60157 4.42349,-12.7344 2.96803,-4.1321 7.57688,-7.52053 13.8429,-10.1912 6.27193,-2.67145 14.0557,-4.00457 23.4128,-4.00457 10.4552,0 18.6534,1.30495 24.628,3.88149 5.96942,2.5758 10.186,6.64636 12.6558,12.2406 2.46384,5.56088 3.71244,12.9806 3.71244,22.2035 0,5.81297 -0.0333653,10.7799 -0.0615404,14.8171 -0.0274337,4.0713 -0.0556088,8.6075 -0.117149,13.5745 0,4.65853 0.739226,9.53653 2.2288,14.5984 1.48364,5.06262 2.19469,8.32723 2.19469,9.78344 0,2.54762 -1.12552,4.87726 -3.41586,6.96074 -2.28441,2.08273 -4.8995,3.13559 -7.78375,3.13559 -2.43566,0 -4.83796,-1.20931 -7.21802,-3.60048 -2.40749,-2.39118 -4.90025,-5.84115 -7.57095,-10.4048zm-1.57929 -35.9396c-3.47147,1.33239 -8.55041,2.73224 -15.1812,4.22182 -6.65229,1.49551 -11.2552,2.58173 -13.8147,3.29278 -2.55355,0.682876 -4.98922,2.04937 -7.30773,4.09874 -2.31258,2.02194 -3.47221,4.84983 -3.47221,8.48442 0,3.79104 1.36649,6.98817 4.09948,9.62625 2.73224,2.64327 6.29936,3.94748 10.6954,3.94748 4.69264,0 9.02716,-1.08622 13.008,-3.23124 3.98159,-2.14502 6.89401,-4.9388 8.76394,-8.3213 2.13908,-3.76286 3.209,-9.94507 3.209,-18.58l0 -3.53968 0 0.00074145zm71.18 -36.965l0 71.8124c0,4.97291 -1.12552,8.73058 -3.38769,11.2782 -2.25697,2.54762 -5.13529,3.81847 -8.61269,3.81847 -3.50558,0 -6.32754,-1.30421 -8.4948,-3.91412 -2.17245,-2.60916 -3.2698,-6.33866 -3.2698,-11.1826l0 -71.0621c0,-4.94473 1.09735,-8.64086 3.2698,-11.121 2.16726,-2.48682 4.98996,-3.7295 8.4948,-3.7295 3.47814,0 6.35571,1.24341 8.61269,3.7295 2.26216,2.48089 3.38769,5.96349 3.38769,10.3707zm-11.7653 -25.6579c-3.29797,0 -6.12067,-1.05286 -8.46662,-3.19788 -2.34669,-2.11091 -3.53375,-5.12342 -3.53375,-8.97674 0,-3.53894 1.21524,-6.42837 3.62273,-8.69647 2.40823,-2.2681 5.20276,-3.41586 8.37765,-3.41586 3.09111,0 5.82409,1.02468 8.20415,3.10816 2.37412,2.04937 3.56119,5.06188 3.56119,9.00417 0,3.81921 -1.15963,6.80429 -3.4774,8.94856 -2.31258,2.13908 -5.07968,3.22605 -8.28793,3.22605zm37.6145 13.7643l2.61435 0 0 -14.9402c0,-4.00976 0.0845253,-7.14536 0.297322,-9.41345 0.200933,-2.29627 0.772591,-4.25592 1.69051,-5.86858 0.952022,-1.7083 2.29034,-3.07479 4.00976,-4.16621 1.75279,-1.05286 3.68427,-1.57929 5.85153,-1.57929 3.00139,0 5.73438,1.17594 8.17078,3.53894 1.6349,1.58522 2.64253,3.51151 3.09111,5.77886 0.441904,2.29627 0.654701,5.52751 0.654701,9.7219l0 16.9281 8.7024 0c3.35951,0 5.94124,0.834873 7.69403,2.515 1.78096,1.64602 2.67145,3.79029 2.67145,6.4002 0,3.32096 -1.27678,5.68396 -3.79697,7.02228 -2.53057,1.33313 -6.12067,1.98264 -10.8467,1.98264l-4.42349 0 0 45.6607c0,3.88075 0.117149,6.8992 0.386296,8.97674 0.263215,2.08273 0.952022,3.79104 2.07754,5.09599 1.15963,1.30421 3.00139,1.95372 5.55495,1.95372 1.36649,0 3.27054,-0.246162 5.64466,-0.772591 2.37412,-0.53162 4.24999,-0.778523 5.55495,-0.778523 1.93222,0 3.6509,0.806698 5.19683,2.42528 1.54518,1.61265 2.29034,3.56712 2.29034,5.96349 0,4.00383 -2.07829,7.05045 -6.27193,9.16136 -4.15509,2.14502 -10.1579,3.19788 -17.998,3.19788 -7.43082,0 -13.0755,-1.30495 -16.8776,-3.91412 -3.83033,-2.60991 -6.35571,-6.21039 -7.54352,-10.8415 -1.18706,-4.5918 -1.78022,-10.7458 -1.78022,-18.451l0 -47.6775 -3.12521 0c-3.44404,0 -6.05839,-0.834132 -7.83935,-2.54243 -1.81433,-1.71349 -2.70481,-3.85258 -2.70481,-6.46174 0,-2.60991 0.952022,-4.75418 2.8227,-6.40094 1.9033,-1.68013 4.63629,-2.51426 8.23158,-2.51426l0 -0.00074145zm85.0221 -24.046l0 36.8412c3.02957,-3.63385 5.96942,-6.52328 8.82548,-8.63493 2.87831,-2.11091 6.05839,-3.72356 9.53653,-4.78161 3.47147,-1.05879 7.21802,-1.58522 11.2278,-1.58522 6.03096,0 11.4065,1.33313 16.0709,4.00976 4.66521,2.6707 8.34428,6.55146 10.9927,11.6474 1.69125,2.94504 2.81677,6.27193 3.41586,9.96732 0.565727,3.66276 0.862307,7.89051 0.862307,12.6729l0 47.6152c0,4.97291 -1.10328,8.73058 -3.27054,11.2782 -2.16652,2.54762 -5.05076,3.81847 -8.64605,3.81847 -7.83935,0 -11.7653,-5.02852 -11.7653,-15.0967l0 -41.9602c0,-7.95131 -1.12552,-14.072 -3.38175,-18.3279 -2.26291,-4.28336 -6.56925,-6.42837 -12.8968,-6.42837 -4.21663,0 -8.05289,1.27085 -11.4346,3.79104 -3.38769,2.51426 -5.94198,5.96349 -7.63842,10.3091 -1.27678,3.69613 -1.89811,10.2817 -1.89811,19.7559l0 32.8603c0,4.91063 -1.06991,8.63493 -3.18082,11.2159 -2.11165,2.57654 -5.0515,3.88075 -8.81955,3.88075 -7.84603,0 -11.7661,-5.02852 -11.7661,-15.0967l0 -107.753c0,-5.02852 1.03581,-8.78619 3.08592,-11.3004 2.0553,-2.52019 4.96179,-3.79104 8.67942,-3.79104 3.76879,0 6.70864,1.27159 8.81955,3.81921 2.11165,2.54762 3.18082,6.30529 3.18082,11.2723l0.00074145 0.00074145zm156.677 1.27678l0 38.2359 55.7912 0 0 -38.2359c0,-5.43187 1.1878,-9.53653 3.53375,-12.2688 2.34669,-2.73299 5.4378,-4.09948 9.26739,-4.09948 3.86444,0 7.01115,1.33313 9.41939,4.03794 2.40749,2.70481 3.62273,6.83172 3.62273,12.3303l0 105.109c0,5.49934 -1.21524,9.63218 -3.6509,12.3644 -2.43566,2.73299 -5.58831,4.09948 -9.39121,4.09948 -3.88594,0 -7.00522,-1.36649 -9.323,-4.13284 -2.31852,-2.76042 -3.47814,-6.8599 -3.47814,-12.3311l0 -44.8488 -55.7912 0 0 44.8488c0,5.5327 -1.21524,9.63218 -3.6509,12.3644 -2.43566,2.73299 -5.58831,4.09948 -9.39121,4.09948 -3.89187,0 -7.01041,-1.36649 -9.32893,-4.13284 -2.31852,-2.76042 -3.47221,-6.8599 -3.47221,-12.3311l0 -105.109c0,-5.43187 1.1537,-9.53653 3.44404,-12.2688 2.28515,-2.73299 5.40962,-4.09948 9.3571,-4.09948 3.86444,0 7.01115,1.33313 9.41939,4.03794 2.40749,2.70481 3.62273,6.83172 3.62273,12.3303zm196.694 71.0673c0,7.39226 -1.09735,14.224 -3.29797,20.4729 -2.2288,6.23856 -5.40369,11.6141 -9.59288,16.1169 -4.16028,4.47391 -9.1495,7.92388 -14.9454,10.3143 -5.82409,2.39118 -12.3311,3.60122 -19.5773,3.60122 -7.21876,0 -13.6634,-1.21005 -19.426,-3.63459 -5.73438,-2.42454 -10.6954,-5.90194 -14.918,-10.4322 -4.21663,-4.50802 -7.39745,-9.85017 -9.56471,-15.999 -2.16726,-6.18221 -3.26461,-12.9858 -3.26461,-20.4396 0,-7.5146 1.09735,-14.4138 3.29278,-20.6575 2.2288,-6.23856 5.38145,-11.5807 9.50836,-16.0272 4.09874,-4.40644 9.09389,-7.82304 14.9462,-10.2194 5.8797,-2.39118 12.3251,-3.60048 19.426,-3.60048 7.18984,0 13.6968,1.20931 19.5773,3.63385 5.85153,2.42528 10.8749,5.90194 15.0351,10.3766 4.18919,4.50209 7.36408,9.84424 9.53653,16.0264 2.16726,6.18221 3.26461,13.0139 3.26461,20.4677l0 0zm-23.8554 0c0,-10.1245 -2.13908,-18.0143 -6.38389,-23.6649 -4.27817,-5.62242 -9.98437,-8.45031 -17.175,-8.45031 -4.66446,0 -8.72984,1.27159 -12.2688,3.78585 -3.53375,2.52019 -6.266,6.21558 -8.17004,11.121 -1.92629,4.9388 -2.87831,10.6561 -2.87831,17.2083 0,6.49585 0.952022,12.1457 2.82196,17.023 1.89885,4.8439 4.57549,8.57339 8.08107,11.1492 3.53301,2.57654 7.66586,3.85258 12.4148,3.85258 7.18984,0 12.896,-2.82789 17.175,-8.51185 4.2448,-5.65578 6.38389,-13.5122 6.38389,-23.5136l-0.00074145 0.00074145zm64.4995 -36.555l0 2.97915c4.45167,-5.7455 9.11613,-10.0014 13.9319,-12.7062 4.81053,-2.69962 10.2758,-4.0372 16.3631,-4.0372 7.31367,0 14.0549,1.95965 20.2038,5.90194 6.14885,3.94748 11.0209,9.72116 14.588,17.3032 3.56712,7.57688 5.34734,16.5536 5.34734,26.9295 0,7.63842 -1.041,14.6607 -3.09111,21.0616 -2.04937,6.39427 -4.8995,11.7705 -8.4948,16.1162 -3.59529,4.35083 -7.84529,7.67179 -12.7448,10.0066 -4.90025,2.32371 -10.192,3.50558 -15.8085,3.50558 -6.79836,0 -12.5046,-1.42803 -17.1075,-4.28336 -4.60367,-2.82863 -8.99898,-7.02228 -13.1874,-12.5498l0 37.3342c0,10.903 -3.80809,16.369 -11.4131,16.369 -4.45167,0 -7.42488,-1.39467 -8.88109,-4.22256 -1.45621,-2.82789 -2.16726,-6.92663 -2.16726,-12.3303l0 -107.226c0,-4.72081 0.980197,-8.2605 2.96803,-10.5894 1.96039,-2.32964 4.66446,-3.51151 8.08033,-3.51151 3.36025,0 6.12067,1.21005 8.23232,3.60122 2.11091,2.39637 3.18082,5.8404 3.18082,10.3484l0 -0.00074145zm46.5794 36.1242c0,-6.55739 -0.952022,-12.1798 -2.88424,-16.8999 -1.89811,-4.68745 -4.57475,-8.29386 -7.95724,-10.8081 -3.38769,-2.51426 -7.16241,-3.79029 -11.2611,-3.79029 -6.56925,0 -12.0901,2.70481 -16.6092,8.1085 -4.48577,5.40369 -6.74275,13.3216 -6.74275,23.8213 0,9.91171 2.2288,17.5783 6.71457,23.0776 4.4576,5.4986 10.0125,8.23158 16.6374,8.23158 3.91931,0 7.60431,-1.21005 10.9638,-3.60122 3.35432,-2.39118 6.05913,-5.99685 8.07514,-10.7792 2.04937,-4.78235 3.06293,-10.5894 3.06293,-17.3596l0.00074145 -0.00074145zm109.202 6.51809l-46.4622 0c0.0622818,5.65578 1.15963,10.6228 3.27054,14.9402 2.10572,4.31747 4.93361,7.54871 8.43919,9.7219 3.49965,2.20656 7.39745,3.29278 11.6141,3.29278 2.85014,0 5.43706,-0.341809 7.783,-1.05286 2.34669,-0.682876 4.6311,-1.76984 6.83246,-3.25942 2.22806,-1.49476 4.24999,-3.07998 6.08657,-4.78754 1.87587,-1.7083 4.27817,-4.00976 7.25138,-6.92737 1.22117,-1.08622 2.94059,-1.64602 5.19683,-1.64602 2.43641,0 4.42942,0.716982 5.94198,2.11684 1.48364,1.39393 2.25623,3.35432 2.25623,5.89675 0,2.23992 -0.856375,4.87726 -2.52019,7.88977 -1.69644,2.98434 -4.22182,5.87451 -7.63768,8.63493 -3.38769,2.76635 -7.63249,5.06262 -12.7737,6.86583 -5.14048,1.83064 -11.0543,2.73299 -17.7066,2.73299 -15.2702,0 -27.1534,-4.53619 -35.62,-13.636 -8.46736,-9.09982 -12.7122,-21.4642 -12.7122,-37.054 0,-7.33072 1.03581,-14.1676 3.14746,-20.4396 2.07754,-6.27193 5.14048,-11.6474 9.12206,-16.1503 4.00902,-4.47391 8.94263,-7.92388 14.8231,-10.3143 5.85153,-2.39118 12.3585,-3.60122 19.4868,-3.60122 9.2963,0 17.2587,2.05011 23.8836,6.14885 6.65822,4.09874 11.62,9.38009 14.9462,15.87 3.29797,6.49585 4.96179,13.1088 4.96179,19.8516 0,6.24375 -1.72461,10.281 -5.14122,12.1398 -3.41512,1.83731 -8.25976,2.76709 -14.4694,2.76709l0 -0.00074145zm-46.4622 -14.1002l43.0797 0c-0.565727,-8.47848 -2.76635,-14.8453 -6.56851,-19.0397 -3.8029,-4.22775 -8.79212,-6.33866 -15.0025,-6.33866 -5.94124,0 -10.7851,2.14502 -14.5873,6.4002 -3.80216,4.2841 -6.12067,10.6228 -6.92144,18.9782l0 0zm157.602 -63.0544l0 97.0951 52.4035 0c4.16028,0 7.36927,1.05879 9.59807,3.20307 2.25697,2.11165 3.35432,4.78235 3.35432,7.98023 0,3.29278 -1.09735,5.93531 -3.29797,7.98542 -2.19543,2.016 -5.4378,3.04069 -9.65442,3.04069l-62.416 0c-5.61649,0 -9.68779,-1.30495 -12.1516,-3.91412 -2.46384,-2.60397 -3.68427,-6.83172 -3.68427,-12.6388l0 -102.752c0,-5.43187 1.19225,-9.53653 3.53894,-12.2688 2.34669,-2.73299 5.43706,-4.09948 9.26739,-4.09948 3.86444,0 7.01115,1.33313 9.41345,4.03794 2.40823,2.70481 3.6294,6.83172 3.6294,12.3303l-0.00074145 0zm169.63 71.0673c0,7.39226 -1.09809,14.224 -3.29871,20.4729 -2.22806,6.23856 -5.40888,11.6141 -9.59807,16.1169 -4.15509,4.47391 -9.15024,7.92388 -14.9402,10.3143 -5.82409,2.39118 -12.3311,3.60122 -19.5773,3.60122 -7.21802,0 -13.6634,-1.21005 -19.426,-3.63459 -5.73957,-2.42454 -10.6954,-5.90194 -14.918,-10.4322 -4.21663,-4.50802 -7.39745,-9.85017 -9.56471,-15.999 -2.16652,-6.18221 -3.26461,-12.9858 -3.26461,-20.4396 0,-7.5146 1.09809,-14.4138 3.29278,-20.6575 2.2288,-6.23856 5.37626,-11.5807 9.5091,-16.0272 4.09874,-4.40644 9.08796,-7.82304 14.9454,-10.2194 5.88044,-2.39118 12.3251,-3.60048 19.426,-3.60048 7.19059,0 13.6976,1.20931 19.5773,3.63385 5.85153,2.42528 10.8749,5.90194 15.0299,10.3766 4.19438,4.50209 7.36927,9.84424 9.53653,16.0264 2.17319,6.18221 3.27054,13.0139 3.27054,20.4677l0 0zm-23.8554 0c0,-10.1245 -2.13908,-18.0143 -6.38982,-23.6649 -4.27817,-5.62242 -9.97844,-8.45031 -17.169,-8.45031 -4.66446,0 -8.73577,1.27159 -12.2688,3.78585 -3.53375,2.52019 -6.266,6.21558 -8.17078,11.121 -1.93148,4.9388 -2.8835,10.6561 -2.8835,17.2083 0,6.49585 0.952022,12.1457 2.82789,17.023 1.89811,4.8439 4.57475,8.57339 8.08033,11.1492 3.53375,2.57654 7.66066,3.85258 12.4156,3.85258 7.18984,0 12.8909,-2.82789 17.169,-8.51185 4.24999,-5.65578 6.38908,-13.5122 6.38908,-23.5136l0 0.00074145zm57.0064 -35.038l19.2518 56.4407 20.7087 -58.8934c1.62897,-4.72081 3.23643,-8.07514 4.78161,-10.063 1.5741,-1.95965 3.94822,-2.95097 7.15722,-2.95097 3.00139,0 5.58831,1.05286 7.69403,3.19713 2.11091,2.11684 3.18082,4.56956 3.18082,7.36408 0,1.08622 -0.179431,2.363 -0.565727,3.81921 -0.387037,1.4614 -0.800766,2.82789 -1.30495,4.09874 -0.504186,1.27678 -1.06991,2.73818 -1.69718,4.35083l-22.8137 59.1737c-0.621335,1.67419 -1.45547,3.84739 -2.46384,6.45655 -1.01282,2.60916 -2.16652,4.81572 -3.41512,6.68047 -1.24934,1.86475 -2.76709,3.29278 -4.60886,4.31747 -1.80914,1.02468 -4.0372,1.55111 -6.65303,1.55111 -3.35432,0 -6.05839,-0.806698 -8.04696,-2.42454 -1.99376,-1.57929 -3.4774,-3.35506 -4.42942,-5.27542 -0.979456,-1.89811 -2.58692,-5.68915 -4.8439,-11.3056l-22.6343 -58.5242c-0.510118,-1.45547 -1.06917,-2.91761 -1.60746,-4.37901 -0.565727,-1.45547 -1.00763,-2.91761 -1.39393,-4.44055 -0.387037,-1.52294 -0.565727,-2.82789 -0.565727,-3.91412 0,-1.70756 0.504186,-3.3825 1.48364,-5.06188 0.980197,-1.67419 2.34669,-3.04069 4.10467,-4.09874 1.71942,-1.05879 3.62347,-1.58522 5.63947,-1.58522 3.95341,0 6.65822,1.18187 8.14187,3.53894 1.48438,2.36374 3.11928,6.3394 4.90025,11.9277l0 0zm143.787 41.1253l-46.4622 0c0.0563502,5.65578 1.15963,10.6228 3.26461,14.9402 2.11165,4.31747 4.93361,7.54871 8.43919,9.7219 3.50558,2.20656 7.39745,3.29278 11.6141,3.29278 2.85607,0 5.43706,-0.341809 7.78894,-1.05286 2.34076,-0.682876 4.6311,-1.76984 6.83172,-3.25942 2.22361,-1.49476 4.2448,-3.07998 6.08731,-4.78754 1.87068,-1.7083 4.27817,-4.00976 7.24619,-6.92737 1.22117,-1.08622 2.94578,-1.64602 5.20202,-1.64602 2.43641,0 4.42423,0.716982 5.94198,2.11684 1.48364,1.39393 2.25623,3.35432 2.25623,5.89675 0,2.23992 -0.862307,4.87726 -2.52538,7.88977 -1.69051,2.98434 -4.21663,5.87451 -7.63249,8.63493 -3.38769,2.76635 -7.63768,5.06262 -12.7789,6.86583 -5.13454,1.83064 -11.0484,2.73299 -17.7006,2.73299 -15.2709,0 -27.1541,-4.53619 -35.6208,-13.636 -8.46736,-9.09982 -12.7174,-21.4642 -12.7174,-37.054 0,-7.33072 1.04174,-14.1676 3.15265,-20.4396 2.07754,-6.27193 5.13529,-11.6474 9.11613,-16.1503 4.00976,-4.47391 8.94337,-7.92388 14.829,-10.3143 5.85153,-2.39118 12.3585,-3.60122 19.4875,-3.60122 9.29556,0 17.2587,2.05011 23.8829,6.14885 6.65897,4.09874 11.6141,9.38009 14.9462,15.87 3.29278,6.49585 4.95585,13.1088 4.95585,19.8516 0,6.24375 -1.71868,10.281 -5.13454,12.1398 -3.42179,1.83731 -8.25976,2.76709 -14.4701,2.76709l0 -0.00074145zm-46.4622 -14.1002l43.0738 0c-0.564985,-8.47848 -2.76042,-14.8453 -6.56258,-19.0397 -3.80216,-4.22775 -8.79212,-6.33866 -15.0025,-6.33866 -5.94124,0 -10.7851,2.14502 -14.5873,6.4002 -3.80216,4.2841 -6.12067,10.6228 -6.92144,18.9782zm-691.273 -102.886c23.4854,-1.41098 32.2887,-90.2301 37.7932,-119.013l49.5304 -262.728c7.94612,-41.5338 21.1669,-88.3661 24.4656,-129.787 12.0449,14.4865 13.9934,36.5446 20.5678,54.2794 33.3534,89.9327 54.3246,10.063 66.4087,-8.80843 35.6652,8.69054 48.3767,68.2112 105.104,68.2112 44.6924,0 64.7509,-9.97844 98.8813,-36.8249 17.9253,-14.1061 50.1584,-38.941 75.0103,-43.0901 81.5833,-13.6026 79.5843,74.819 105.176,125.386 13.7643,-9.63737 17.6955,-28.0387 23.9837,-46.9271 12.8071,-38.4709 72.1038,-144.879 98.3222,-173.813 6.01909,-6.64117 9.69298,-12.0678 15.265,-18.1492l13.1704 -12.7507c0.548673,-0.532361 1.32126,-1.31088 1.86475,-1.8425 43.2199,-41.8697 124.843,-61.2735 172.845,-11.0091 56.8611,59.5259 21.8958,144.554 -15.8589,201.672 -87.0826,131.742 -219.189,164.081 -317.767,266.474l-32.5801 45.5154c-6.57444,10.9979 0.341809,8.39915 -13.6078,12.297 0,-48.5843 -17.387,-113.167 -38.6718,-152.82 -23.7887,-44.3061 -41.6124,-89.6984 -99.0444,-89.6984 9.50243,37.2112 89.3114,125.38 94.1442,227.443 0.946091,20.008 4.54138,32.0981 3.86963,49.0432 -0.716982,17.9475 -6.35571,48.456 -1.54518,72.8319 -2.73818,0.800766 -5.4378,1.7476 -8.10924,2.83308 -11.0869,4.53619 -21.0661,11.2953 -29.337,20.1993 -7.96318,8.56746 -13.9889,18.7142 -18.0936,29.8412l0 -34.6235c0,-15.282 -4.41756,-29.9257 -14.5146,-41.2713 -10.2142,-11.4739 -24.1802,-17.5724 -39.1486,-17.5724 -15.1975,0 -29.337,6.36164 -39.5015,18.2048 -9.69298,11.2953 -13.9267,25.6646 -13.9267,40.6382l0 12.7515c-6.48991,-9.2622 -14.7334,-16.8954 -24.3196,-22.8085 -13.5574,-8.38877 -28.8172,-12.0397 -44.53,-12.0397 -11.7372,0 -23.3119,2.03306 -34.2602,6.5129 -6.7813,2.75523 -13.137,6.37202 -18.927,10.8356 -2.12277,-1.7083 -4.35157,-3.31502 -6.66416,-4.8046 -12.5832,-8.0692 -26.7004,-12.1739 -41.4552,-12.1739 -7.7615,0 -15.394,1.13071 -22.7077,3.48259 -5.96423,-2.41935 -12.3867,-3.66795 -19.0004,-3.66795 -11.8602,0 -23.0991,3.9764 -32.1545,11.5303 -3.20826,-1.85882 -6.54033,-3.49446 -9.97325,-4.91656 -11.0424,-4.55251 -22.7017,-6.61374 -34.5167,-6.61374 -9.90059,0 -19.6833,1.47326 -29.0804,4.61479 -1.48957,-5.95829 -3.83552,-11.6423 -7.10606,-16.8443l0 0zm-500.708 -9.951l0 -376.527c15.8478,-0.369984 22.6231,-3.97047 43.4097,-3.88149 14.6548,0.067472 32.7313,1.0751 47.0161,-0.0949056 118.201,-9.68779 142.645,-90.7565 188.642,-90.7565 30.6419,0 29.853,106.1 65.238,106.1 44.2668,0 95.3824,-126.075 105.871,-169.72 3.89706,-16.2333 11.1158,-61.4581 20.9771,-69.012 0,115.496 0.458958,208.14 3.50558,314.642 0.53162,18.7038 3.32615,18.9389 3.85777,37.6427 1.94927,68.0155 -1.69644,132.352 3.69613,200.765 0.655442,8.282 -0.542742,30.0428 3.52263,45.1514 -8.66311,-5.95829 -18.838,-9.06052 -29.5283,-9.06052 -15.2034,0 -29.337,6.3609 -39.5015,18.2108 -0.414471,0.481201 -0.817078,0.968334 -1.20931,1.45547 -0.571658,-0.711051 -1.15963,-1.40579 -1.76984,-2.09386 -10.2142,-11.4739 -24.1854,-17.5724 -39.1538,-17.5724 -15.4162,0 -29.7633,6.44543 -39.933,18.6082 -9.42383,11.2611 -13.4899,25.457 -13.4899,40.2348l0 12.1071c-6.19333,-10.3877 -14.6822,-18.8551 -25.0306,-24.7852 -8.58451,-4.91656 -17.8971,-7.79487 -27.5123,-8.80843 -2.13315,-6.83172 -5.46523,-13.2208 -10.1416,-18.8714 -10.0289,-12.1012 -24.264,-18.4851 -39.5289,-18.4851 -11.6704,0 -22.7462,3.76286 -31.7682,10.9594 -8.04103,-5.0515 -17.1972,-7.78968 -26.7893,-7.78968 -8.46143,0 -16.6989,2.06642 -24.1691,6.13179 -8.35466,-5.38145 -17.9253,-8.21453 -27.9097,-8.21453 -13.2601,0 -25.7365,5.06188 -35.5807,14.3463 -7.03933,6.63598 -12.0456,14.9069 -14.7393,24.063 -8.76394,-2.03825 -17.8519,-2.75004 -26.7671,-2.75004 -5.37551,0 -10.751,0.313633 -16.0769,1.04174 -2.62622,-8.05808 -7.12311,-15.3717 -13.3053,-21.3523l-0.257283 -0.246162c-0.515308,-0.492323 -1.04174,-0.974266 -1.5741,-1.43916l0 0.00074145zm-112.456 -481.988c-0.0111218,-11.5577 -0.0341067,-23.1162 -0.0785937,-34.6799 -0.0949056,-24.2469 3.80809,-47.7724 3.72431,-71.9073 -0.129012,-36.0345 -4.93361,-72.0808 1.74167,-107.785 -0.324755,-3.63459 -0.157187,-7.33072 0.548673,-10.9979 5.13529,-26.6055 20.3276,-28.9403 37.8206,-32.8374l2.42528 -0.538293 17.2639 -1.64083 84.5075 0 0.834132 39.1093c0.067472,3.17563 0.280268,5.15753 0.93571,8.18709 1.98783,9.1836 2.69888,17.3544 2.69888,26.773l0 188.266c38.1684,0.800766 83.5778,0.0785937 107.556,-15.1085 8.93744,-5.6669 16.8947,-13.1259 24.8912,-20.0192 13.1311,-11.3056 25.9663,-20.7421 41.8808,-27.9149 30.6597,-13.8266 64.3594,-18.6082 94.0441,0.548673 13.4677,8.69054 23.0598,20.3046 30.7932,33.2629 0.464889,-1.22117 0.88455,-2.32445 1.2486,-3.28166 14.4538,-38.1573 26.6892,-77.6862 38.0957,-116.852 11.4524,-39.2939 22.0804,-78.9074 31.869,-118.649 6.03096,-24.4768 12.7003,-50.6225 16.7434,-75.4915 1.97152,-12.1405 2.8227,-23.8836 5.89675,-35.9344 8.4555,-33.2125 24.8297,-45.0335 58.9831,-45.829l37.8547 -0.88455 7.98023 103.132c3.35951,24.4879 3.3039,52.9855 3.68427,77.6365 0.58797,38.5265 0.487133,77.1042 0.258025,115.631 -0.0837839,14.0386 -0.218728,28.0832 -0.375174,42.1329 10.1749,-28.1388 23.3179,-52.8291 40.957,-65.1765l22.9205 -16.0487 22.9256 16.0487c29.6232,20.7361 38.9469,59.2686 46.2102,92.5708 0.0667305,0.308443 0.139393,0.64432 0.217986,1.00244 9.31855,-3.91931 19.9858,-6.07025 32.1263,-6.07025 27.9045,0 48.2706,21.9121 64.4713,41.9261 5.99166,7.39745 13.8199,19.0226 20.3773,25.3843 10.3262,9.33486 22.9486,18.0373 37.183,11.9047 1.29902,-0.559795 2.55355,-1.20931 3.76879,-1.92629 8.25457,-4.8439 16.3408,-13.0977 23.1333,-19.8012 8.93151,-8.8025 17.7511,-17.4938 27.7807,-25.087 67.5958,-51.1601 155.003,-59.9967 207.194,-8.65198 13.1874,-22.8693 28.4309,-44.6976 42.7327,-64.8458 15.4555,-21.7779 30.3009,-43.0019 51.0985,-60.2095 23.917,-19.7737 37.8496,-32.821 67.0071,-46.5067 128.332,-60.2325 274.432,34.691 274.432,176.412 0,42.6037 -9.35191,83.3976 -27.3551,121.964 -32.5853,69.8075 -89.9728,125.364 -150.143,171.842 -36.8916,28.4976 -75.7043,54.1956 -114.55,79.9039 -30.5529,20.2216 -62.8476,41.0022 -91.1153,64.3705l-33.9458 34.5064c-7.61618,9.41345 -14.3693,16.9903 -20.7695,26.5825 9.05459,0.610214 17.9023,2.51426 26.2688,5.68396 10.1972,-3.8978 21.1113,-5.90269 32.2605,-5.90269 10.3432,0 20.5011,1.75872 30.0992,5.15753 12.1798,-3.60641 24.8238,-5.34215 37.6086,-5.34215 23.2341,0 45.706,5.73957 65.5123,17.992 19.1346,11.7987 34.4611,28.2404 44.7369,48.2766l0.067472 0.134203c9.13912,17.9928 14.0557,37.6924 14.0557,57.9028 0,7.21283 -0.688807,14.4249 -2.11684,21.4865 0.481201,3.88594 0.722173,7.8008 0.722173,11.7201 0,17.1305 -4.69264,33.4876 -12.9353,48.4278l-0.168309 0.29658 -0.335877 0.593902c-6.94961,12.2406 -16.2229,22.8804 -27.1423,31.7281 -10.9364,8.90927 -23.3401,15.5845 -36.6232,20.2609 -14.1558,5.01739 -29.0233,7.25138 -44.0199,7.25138 -19.7901,0 -38.9469,-3.85258 -56.3569,-11.8995 -0.117891,0.0667305 -0.22985,0.129012 -0.346999,0.195743 -13.9103,7.81192 -29.4727,11.7038 -45.4042,11.7038 -16.0546,0 -31.6162,-3.91412 -45.4086,-11.6363 -1.56817,0.722173 -3.15265,1.41691 -4.75418,2.07754 -15.7862,6.48991 -32.6134,9.55878 -49.6534,9.55878 -14.0275,0 -27.8874,-2.09386 -41.1594,-6.48398 -9.2229,2.82789 -18.8766,4.21663 -28.6541,4.21663l-62.416 0c-20.0636,0 -39.2153,-5.40962 -55.3374,-16.4357 -7.60431,4.6704 -15.7239,8.46662 -24.1913,11.4517 -14.1617,5.01739 -29.0293,7.25138 -44.0258,7.25138 -18.8099,0 -37.1548,-3.48259 -54.005,-10.8467 -4.68152,2.18357 -9.49131,4.04906 -14.3967,5.58312 -16.2281,25.9322 -43.7463,42.1329 -76.3649,42.1329 -29.5283,0 -56.4348,-13.4395 -73.2627,-36.9087 -1.12552,0.0222435 -2.25623,0.0392969 -3.3825,0.0392969 -15.0804,0 -29.9642,-2.41935 -44.1378,-7.5146 -11.4235,4.93287 -23.8161,7.5146 -36.5498,7.5146 -14.4368,0 -28.3301,-3.29278 -40.8235,-9.48018 -12.5098,6.18814 -26.3919,9.48018 -40.8109,9.48018 -17.0467,0 -33.3363,-4.58587 -47.4536,-13.1088 -14.0334,8.51704 -30.2223,13.1088 -47.1674,13.1088 -10.5723,0 -20.9319,-1.70237 -30.7035,-5.10118 -9.66555,3.37137 -19.8968,5.10118 -30.312,5.10118 -6.67528,0 -13.3113,-0.677686 -19.8012,-2.06049 -8.03584,1.44435 -16.2059,2.06049 -24.4041,2.06049 -12.3422,0 -24.4545,-1.6349 -35.9685,-5.30285 -9.77676,3.49965 -20.137,5.30285 -30.6983,5.30285 -7.26844,0 -14.4753,-0.856375 -21.4865,-2.55875 -6.9548,1.69644 -14.1061,2.55875 -21.3241,2.55875 -7.54277,0 -14.9966,-0.985387 -22.2087,-2.90649 -8.9545,1.95446 -18.1099,2.90649 -27.3106,2.90649 -18.9329,0 -37.3906,-4.41237 -54.0443,-13.5063 -2.24511,-1.22636 -4.43461,-2.52538 -6.5737,-3.89187 -15.5341,11.2552 -34.209,17.3981 -53.876,17.3981 -26.6944,0 -51.5575,-11.3116 -69.2025,-31.353 -16.5425,-18.7824 -24.3374,-42.6935 -24.3374,-67.5454l0 -102.657c0,-15.1137 2.79453,-30.0147 8.98786,-43.8464 8.98786,-20.0755 24.522,-36.2925 44.384,-45.7505 3.3825,-1.61265 6.83172,-3.00732 10.3373,-4.18919 0.504186,-19.185 1.1144,-38.3701 1.72461,-57.544 1.38874,-43.6173 3.54487,-87.9397 3.54487,-131.535 0,-24.0623 -0.156446,-48.1246 -0.123081,-72.1876 0.0111218,-10.3647 0.778523,-20.6012 1.61859,-30.8265 -7.68365,-0.638389 -15.3606,-1.13664 -23.0769,-1.14851 -24.1861,-0.0392969 -48.3655,0.129012 -72.5517,0.129012l-36.9087 0 -2.92873 -36.7967c-0.391486,-4.94473 -1.55705,-9.13319 -2.98434,-13.854 -5.31472,-17.6117 -8.0136,-31.2692 -8.0136,-49.9448l0 -39.9664 134.194 0c7.27437,0 14.4642,-0.464889 21.6377,-1.0751l-0.0014829 0.00074145zm52.442 -219.194c-12.3978,2.76116 -4.82684,-0.750348 -6.34978,5.51046 -7.79561,32.1374 -2.60397,73.9456 -2.48682,106.951 0.106769,30.0317 -3.8244,44.5411 -3.71837,71.8962 0.0956471,24.0349 0.0837839,48.0578 0.0837839,72.0868 -25.3109,0 -35.3679,3.79104 -61.6093,3.79104l-94.2339 0c0,30.6701 9.0494,37.6924 10.8749,60.6291 24.1972,0 48.4219,-0.162378 72.6073,-0.129012 23.934,0.0341067 37.6812,3.92005 65.1149,3.92005 0,28.6823 -3.71837,43.0516 -3.75174,68.0777 -0.0281751,24.023 0.129012,48.0912 0.129012,72.1313 0,41.4271 -4.79941,154.225 -6.04282,223.836l-6.48398 0c-8.9152,0 -17.6962,1.61859 -25.8492,5.50453 -11.1269,5.30359 -19.9183,14.4257 -25.11,26.0116 -3.86889,8.64605 -5.49266,18.0032 -5.49266,27.5115l0 102.657c0,15.2146 4.37307,29.7855 14.3634,41.1305 10.186,11.5696 24.1794,17.8022 39.2101,17.8022 14.9061,0 28.8053,-6.1266 38.9973,-17.5613 5.54901,-6.23856 9.37416,-13.4625 11.7038,-21.2403 0.711051,1.45028 1.47771,2.88424 2.29553,4.30041 6.42837,11.1269 15.5905,19.8627 26.6158,25.8885 10.8192,5.90788 22.7017,8.61269 34.8815,8.61269 9.8168,0 19.538,-1.53999 28.8002,-4.8439 6.40094,3.12447 13.3891,4.8439 20.7191,4.8439 7.45973,0 14.6778,-1.64676 21.3137,-4.75418 6.63524,3.11854 13.9267,4.75418 21.4976,4.75418 10.7681,0 20.9994,-3.28759 29.6284,-9.48093 11.1885,6.97186 24.0178,9.48093 37.0377,9.48093 8.57339,0 17.1801,-0.87417 25.3843,-3.33208 5.70101,2.16133 12.0004,3.33208 18.821,3.33208 11.0706,0 21.5933,-3.37731 30.3624,-9.84498 8.29905,6.22744 18.6868,9.84498 30.653,9.84498 15.0247,0 28.9959,-6.31123 38.9973,-18.0595 3.31502,-3.8978 5.98054,-8.16485 8.04177,-12.6951 2.00414,4.31228 4.55844,8.38877 7.70515,12.1464 10.1579,12.1286 24.4768,18.6082 39.8767,18.6082 14.9462,0 28.8951,-6.15997 39.1093,-17.6176 0.604282,-0.682876 1.19225,-1.37687 1.75798,-2.08273 0.29139,0.363311 0.58797,0.727363 0.88455,1.08029 10.1749,12.1353 24.4886,18.62 39.8819,18.62 12.7062,0 24.6955,-4.45241 34.2824,-12.8293 3.74062,2.33483 7.67179,4.37307 11.7713,6.10881 11.0647,4.65408 22.7685,6.72051 34.6346,6.72051 9.128,0 18.1663,-1.21524 26.8902,-3.85851 1.1144,4.88319 2.76709,9.62625 5.10192,14.1617 8.97674,17.4322 26.0168,26.5662 44.6531,26.5662 24.5998,0 41.9653,-15.506 48.8023,-37.1941 8.81436,-0.806698 17.4159,-3.13633 25.5185,-6.98891 5.66765,-2.69369 10.9423,-6.04727 15.7751,-10.0125 15.7017,12.0456 34.7021,17.3262 54.6708,17.3262 10.427,0 20.8207,-1.45621 30.7094,-4.96698 8.90927,-3.1304 17.3092,-7.53758 24.7348,-13.5967 6.19927,-5.01739 11.6867,-10.9416 16.0264,-17.8348 2.49795,6.4395 6.12067,12.3978 11.0432,17.5998 10.9927,11.6371 25.6861,16.5306 41.0408,16.5306l62.416 0c10.1134,0 19.9243,-2.41861 28.5036,-7.62137 2.17245,1.14851 4.39532,2.20656 6.67454,3.1697 11.0654,4.65334 22.7692,6.71976 34.6354,6.71976 11.7987,0 23.4461,-2.03306 34.45,-6.5522 8.4162,-3.47147 16.1725,-8.24789 23.0376,-14.2514 2.79972,3.56193 6.01465,6.77611 9.55359,9.60401 9.46387,7.61025 20.9096,11.1996 32.7758,11.1996 9.02716,0 17.8749,-2.11684 25.8492,-6.59075 6.54552,-3.66276 12.2132,-8.66311 16.7879,-14.7222 16.5536,14.8787 37.418,21.313 59.4702,21.313 10.4211,0 20.8199,-1.45621 30.7094,-4.96698 8.90334,-3.1304 17.3032,-7.53758 24.7289,-13.5967 6.97186,-5.63873 13.0414,-12.426 17.5998,-20.4448l0.258025 -0.464889c4.9388,-8.94856 7.96244,-18.7142 7.96244,-29.119 0,-4.50802 -0.542742,-8.92632 -1.5956,-13.1704 1.99895,-6.3001 2.99027,-13.0703 2.99027,-20.0362 0,-13.9778 -3.45516,-27.4678 -9.72116,-39.804 -7.03933,-13.725 -17.41,-24.6332 -30.1607,-32.4955 -13.5574,-8.38877 -28.8172,-12.0404 -44.5248,-12.0404 -11.7372,0 -23.3119,2.03306 -34.2595,6.5129 -1.78096,0.722173 -3.53375,1.50589 -5.25243,2.34595 -8.32204,-5.6669 -18.0373,-8.67423 -28.1951,-8.67423 -11.9114,0 -23.223,3.99864 -32.1775,11.7765 -9.03235,-7.81118 -20.5678,-11.7765 -32.7647,-11.7765 -9.17767,0 -18.1262,2.50907 -26.056,7.33591 -0.750348,0.453768 -1.48364,0.923847 -2.20581,1.41098 -1.55705,-0.755538 -3.14153,-1.47252 -4.7438,-2.13315 -5.63873,-2.32445 -11.4346,-3.99864 -17.3255,-5.07893 2.79972,-16.2622 7.01634,-35.7779 17.5501,-53.9212 11.1885,-19.2747 17.3596,-24.6614 30.0762,-40.5544l36.7515 -37.3565c114.041,-95.1132 370.277,-200.748 370.277,-408.621 0,-115.485 -118.296,-186.788 -217.481,-140.236 -27.596,12.9524 -36.449,22.8804 -58.5182,41.1305 -17.3989,14.3916 -30.5974,33.6833 -43.9814,52.5377 -24.6844,34.7755 -58.0756,82.4411 -67.8138,126.147l-7.24619 0c-22.5905,-101.373 -118.762,-92.7836 -183.339,-43.9079 -21.4361,16.2222 -38.118,40.9459 -62.9981,51.6524 -31.829,13.7027 -59.4198,-0.52643 -79.8928,-19.0671 -13.0977,-11.855 -39.7922,-56.8893 -57.9414,-56.8893 -25.709,0 -37.2505,17.4715 -43.4883,45.4761 -30.2616,-21.1892 -23.088,-115.771 -57.9918,-140.208 -27.1756,19.0278 -45.8231,119.349 -54.3572,155.367 -6.66416,28.1447 -14.829,55.68 -21.7727,83.3427 -3.67314,14.6488 -7.37521,27.6124 -10.8689,41.6851 -3.83626,15.4726 -3.80216,29.7351 -14.4753,37.9104 0,-54.1778 -3.63978,-96.4397 -3.6294,-147.785 0.0170534,-68.318 5.19164,-318.311 -2.09386,-369.17l-5.1516 -66.6045c-17.4775,0.408539 -17.6287,1.76391 -21.1847,15.741 -2.65958,10.4211 -3.28685,20.8207 -5.17977,32.4792 -9.77157,60.1249 -87.5364,365.769 -129.479,395.129 -27.7028,-43.2525 -30.5811,-118.806 -106.33,-84.6529 -25.7988,11.6371 -38.7341,30.6427 -61.8169,45.2633 -44.4514,28.1618 -115.967,20.4455 -168.908,20.4455l0 -227.359c0,-19.0449 -3.25942,-16.9733 -3.62347,-34.1089l-43.4875 0 -12.9027 1.23229 0.0014829 0.0044487z"/>
 </g>
</svg>
