<?xml version="1.0" encoding="UTF-8"?>
<!DOCTYPE svg PUBLIC "-//W3C//DTD SVG 1.1//EN" "http://www.w3.org/Graphics/SVG/1.1/DTD/svg11.dtd">
<!-- Creator: CorelDRAW -->
<svg xmlns="http://www.w3.org/2000/svg" xml:space="preserve" width="5548in" height="7180in" style="shape-rendering:geometricPrecision; text-rendering:geometricPrecision; image-rendering:optimizeQuality; fill-rule:evenodd; clip-rule:evenodd"
viewBox="0 0 257.085 118.74"
 xmlns:xlink="http://www.w3.org/1999/xlink">
 <defs>
  <style type="text/css">
   <![CDATA[
    .fil0 {fill:#141516}
   ]]>
  </style>
 </defs>
 <g id="Layer_x0020_1">
  <metadata id="CorelCorpID_0Corel-Layer"/>
  <path class="fil0" d="M53.4905 31.3462c-0.0289156,-8.4333 2.88653,-17.0372 10.9594,-20.7547 7.16018,-3.29638 13.2446,-0.272393 17.1335,5.5694l0 -1.0351 6.80313 -2.53661c7.39653,-2.75746 15.6907,0.988998 21.6289,5.40722 4.59758,3.42126 6.69753,8.28579 6.62922,13.0259 0.0553168,0 0.110215,0 0.165112,0 2.2462,-0.0134101 4.4815,-0.179361 6.7256,0.0821371 2.34552,0.272813 4.34614,0.929909 5.99852,1.92519 -0.129073,-3.54489 -0.262336,-7.09061 -0.262336,-10.6426l0 -10.457 24.3889 0 0 23.0885c2.57475,-1.32844 5.4353,-2.09114 8.42031,-2.09114 4.63278,0 8.56782,0.643268 12.0922,2.47669 8.90727,-4.52341 21.5291,-3.11911 27.8692,4.58669 0.275327,0.334415 0.53892,0.670507 0.79036,1.00827 0.101414,-1.04473 0.159245,-2.10958 0.277422,-3.1518 0.196123,-1.73913 0.475222,-3.50005 0.996122,-5.1738 1.56312,-5.01833 5.59119,-8.81256 11.1275,-8.81256 3.17108,0 6.19381,1.01624 8.61895,3.08643 5.48223,4.68098 4.72121,10.6502 5.28527,16.9177 0.383865,4.26568 0.7275,8.52005 1.23373,12.7753 0.18397,1.54217 0.466421,4.11859 0.869145,6.41508 5.79192,-4.74007 15.1861,-4.68014 20.7438,0.41781 3.87972,3.55788 5.80659,8.81549 4.8662,14.0291 -1.43405,7.94467 -8.51628,12.6059 -16.2833,12.6059 -3.35589,0 -6.03163,-0.841905 -8.46892,-2.63677 -0.870821,0.0284965 -1.84348,0.125301 -2.47585,0.168884 -3.11702,0.212886 -6.22943,0.19319 -9.10087,-0.35495 -0.018858,0.0448402 -0.0381351,0.0896803 -0.0578312,0.13452 0.289575,0.834781 0.521319,1.68423 0.699004,2.54709l6.50182 4.89512 -6.40041 7.78375 -0.328967 7.32152 -6.31492 0c-1.19225,0.933262 -2.4901,1.72823 -3.88098,2.36647 -0.47145,0.216658 -0.949605,0.412781 -1.43363,0.588789l0 0.960501 -3.73472 0c-1.12897,0.178522 -2.27553,0.264431 -3.43048,0.264431 -1.11807,0 -2.23363,-0.0867468 -3.33493,-0.264431l-20.1546 0c-1.26055,1.14321 -2.68329,2.10078 -4.22377,2.85552l-0.121529 0.0586694c-2.50351,1.19811 -5.23121,1.78564 -8.00334,1.78564 -2.23279,0 -4.44965,-0.34112 -6.56845,-1.04809l-10.9456 -3.65175 -14.6552 0 0 -3.72802 -2.82828 0.225877c-2.2835,1.61383 -4.84525,2.72016 -7.56751,3.32404l0 0.178103 -0.886326 0c-1.36616,0.245573 -2.76794,0.367941 -4.19109,0.367941 -1.40178,0 -2.79392,-0.120691 -4.16008,-0.367941l-12.8926 0c-1.3561,0.232582 -2.73273,0.34112 -4.11356,0.34112 -1.38585,0 -2.76919,-0.106862 -4.13326,-0.34112l-7.34834 0c-1.08287,0.177684 -2.1804,0.265269 -3.2792,0.265269 -1.12394,0 -2.2441,-0.0867468 -3.34793,-0.265269l-36.212 0c-1.85814,2.92299 -4.73504,4.85698 -9.253,4.85698 -4.47941,0 -8.62984,-1.68423 -11.241,-5.46966 -1.76385,-2.55631 -2.32582,-5.3255 -2.30403,-8.36248 0.00419067,-0.593399 0.0796227,-1.42273 0.018858,-2.0023l-0.0297537 -0.190256 -1.46925 -12.9668c-1.35736,0.259402 -2.80104,0.359559 -4.34824,0.359559 -6.45447,0 -12.0716,-4.06243 -13.9139,-10.273 -2.96909,-10.0153 4.87249,-18.7524 14.9079,-18.7524 0.0699842,0 0.139549,0.000838134 0.208695,0.0012572 0.486537,-1.38124 1.1516,-2.68706 2.08611,-3.93085 1.82378,-2.42724 4.2221,-4.00837 6.92466,-4.85615l0.176427 -1.94992 0.0163436 -0.134101c0.138711,-1.1935 -0.0322681,-2.85971 -0.0176008,-4.1056l0.0037716 -0.325196 1.01624 -13.7559 0.0050288 -0.06286c0.123625,-1.43488 -0.0695651,-3.16605 -0.0238868,-4.66212 0.0486118,-1.58533 0.25144,-2.75369 0.507071,-4.28454 0.0113148,-0.0846515 0.0150864,-0.173913 0.0201152,-0.259821 0.0905184,-1.62053 -0.0808799,-3.34457 -0.0301728,-5.00031 0.0452592,-1.4835 0.0729176,-2.91419 0.238868,-4.39685 0.78575,-7.00805 4.91984,-13.3599 12.7124,-13.3599 8.61099,0 12.6583,7.20376 12.9366,14.8433 0.0833943,2.27679 0.44924,4.50245 0.505814,6.79726 0.0808799,3.24651 0.349083,6.4771 0.663383,9.70559l0 0zm31.0608 31.6458l0.8352 0c-0.243478,-0.0620219 -0.484022,-0.128234 -0.722471,-0.199057 -0.037716,0.0666316 -0.0745939,0.133263 -0.112729,0.199057zm55.673 -20.085l0 1.90843c-2.58019,0 -9.30706,-0.709061 -8.80669,4.23677 0.510842,5.05143 11.7867,5.71817 11.7867,-0.895965l0 -25.7693 -3.477 0c0,7.39234 0.497013,13.0904 0.497013,20.52l0 0zm61.1934 42.1468c0.241802,-0.0167627 0.486537,-0.0255631 0.732948,-0.0255631 1.62682,0 3.1958,0.391408 4.61476,1.20314 1.45793,0.838134 2.61037,2.04044 3.36259,3.53692 0.738815,1.45835 1.02336,3.06296 1.02336,4.68726 0,0.279937 -0.0117339,0.560711 -0.0238868,0.840229l-0.0088004 0.19738 1.53798 1.15788 -1.68213 2.04505 -0.0368779 0.815504 -0.633629 0 -0.573703 0.697746c-0.916918,1.11514 -2.03834,2.01865 -3.35295,2.6221 -1.33221,0.611419 -2.77716,0.860344 -4.23677,0.860344 -1.15034,0 -2.25877,-0.177265 -3.29093,-0.541015l0 0.276584 -22.0236 0 0 -8.41989 -2.9473 7.56374c-0.362074,0.943319 -0.809218,1.88622 -1.43405,2.68957 -0.70068,0.895965 -1.5979,1.58868 -2.61707,2.08779l-0.0356207 0.0171817c-1.09376,0.522995 -2.28098,0.761444 -3.48999,0.761444 -1.10759,0 -2.20764,-0.160084 -3.2595,-0.510842l-3.51178 -1.17213 0.447144 -3.01686 -15.3881 0 0 -10.1921c0,-1.14824 -0.0050288,-2.29816 -0.0280775,-3.44641l-0.0930328 -4.50455 7.72592 0c0.619381,-0.147092 1.25846,-0.216658 1.90592,-0.216658 1.00408,0 1.98386,0.170141 2.9012,0.526348 0.19738,-0.0766892 0.398114,-0.144578 0.60178,-0.204924l-0.044002 -0.104767 0.445887 0c0.628181,-0.147092 1.27564,-0.216658 1.93106,-0.216658 0.65584,0 1.30539,0.068727 1.93693,0.216658l14.9527 0 0 -5.3431 11.1652 0 0 0.734624c0.870402,0.0775274 1.69932,0.344892 2.43939,0.783236 0.255212,-0.203666 0.525929,-0.391408 0.810475,-0.562388 1.32844,-0.796646 2.84044,-1.10676 4.3759,-1.10676 0.846096,0 1.69135,0.0984807 2.51189,0.306338l3.61403 0.917337 -0.325196 4.04022 0 0zm-87.7803 -2.71807c1.57402,-0.742167 3.31272,-1.09586 5.1386,-1.09586 1.53295,0 3.03446,0.264431 4.44672,0.852801 1.35736,0.560292 2.58103,1.36322 3.58763,2.43645l2.89952 3.09104 -4.75222 4.83855 4.62692 5.10507 -2.80942 2.96909c-2.15023,2.27302 -5.02042,3.26244 -8.11565,3.26244 -1.92016,0 -3.74478,-0.395599 -5.3783,-1.22619l0 0.858249 -12.067 0 0 -0.17517c-1.20021,0.369198 -2.46034,0.51629 -3.72089,0.51629 -1.04222,0 -2.08821,-0.0984807 -3.10026,-0.34112l-9.39632 0c-0.735043,0.178942 -1.49481,0.265269 -2.26422,0.265269 -1.27606,0 -2.51901,-0.212886 -3.66725,-0.684755l0 0.419486 -28.7413 0 0 -12.4542c0,-1.61089 -0.00670507,-3.22262 -0.0389732,-4.8331l-0.0930328 -4.50455 9.19726 0c0.790779,-0.205762 1.61089,-0.301309 2.44148,-0.301309 1.41561,0 2.78763,0.281194 4.03855,0.888841 1.26893,-0.619381 2.66024,-0.888841 4.08297,-0.888841 1.27271,0 2.52572,0.214562 3.69491,0.703194l0 -0.401885 20.5917 0 0 0.191094c1.18596,-0.407752 2.45489,-0.586694 3.74394,-0.586694 0.962177,0 1.91388,0.104348 2.83666,0.328129 0.0108957,-1.52624 0.542692,-2.95442 1.51912,-4.10392 -20.0159,0.0674698 -45.9113,-0.0536406 -47.5448,-0.685174 -1.76301,-0.681822 -2.06223,-1.58994 -2.68873,-3.62116 -0.470612,-1.52415 -0.913566,-3.36469 -1.17045,-4.60261 -0.499947,-2.40838 -0.0792036,-3.65259 -2.1121,-4.17432 0,3.34415 -0.429124,8.36835 -2.98082,10.4989l-1.96794 -0.535567c-1.97632,-3.82357 -2.36312,-35.6911 -3.99329,-42.4133 -0.0683079,0.10309 -0.124044,0.160084 -0.142902,0.339863 -0.018858,0.181037 -0.110634,0.26485 -0.135359,0.346987 -0.142064,0.462231 -0.18858,0.592561 -0.310109,1.13441 -0.226715,1.0066 -0.297118,1.34143 -0.383027,2.49387l-1.05689 29.5576c-0.386799,7.48956 -0.0477736,16.9295 -1.0879,24.2162 -0.336511,2.35935 -0.487794,18.2646 -2.84463,18.2646 -4.39978,0 -2.61917,-3.26202 -3.18994,-6.95693l-3.26788 -28.8339c-0.864535,3.56584 -2.52194,4.05112 -6.05174,4.68433 -4.33147,0.777369 -1.29659,2.47417 -6.8639,2.47417 -5.28569,0 -5.86358,-8.1123 0.994027,-8.1123 3.08349,0 6.57097,4.53849 8.74425,-1.14447 1.47595,-3.86254 -0.00293347,-8.40061 5.66117,-8.40061 0.442535,1.59287 1.26684,2.69921 1.43782,4.34572 0.218334,2.09617 0.291251,4.10183 0.475222,5.7475 0.425353,3.80345 0.570769,7.44347 0.570769,11.3819l2.90749 -32.0431c0.200733,-1.71315 0.0335253,-3.47406 0.0532215,-5.19852l0.986902 -13.3678c0.14374,-1.66914 -0.0410686,-3.55159 0.0104767,-5.24001 0.0695651,-2.28182 0.397275,-2.17957 0.515033,-4.27742 0.0955472,-1.69764 -0.0712414,-3.5562 -0.0184389,-5.26641 0.062441,-2.06097 -0.0201152,-7.62031 2.49973,-7.62031 2.09785,0 2.41508,2.75914 2.48758,4.76856 0.104348,2.84421 0.44463,4.34069 0.50288,6.67532 0.227134,9.16583 1.95118,18.3903 1.97716,27.21 0.012572,4.48443 0.993188,9.26683 0.993188,13.8397l0.993607 0c0,-1.97548 0.376322,-3.0441 0.70487,-5.04976 0.423677,-2.58271 0.0238868,-3.2595 1.77894,-4.49449 2.71513,0.69607 3.39821,6.55923 4.47354,10.4959 1.02378,3.74897 1.30749,9.54676 5.4617,9.54676l67.5578 0c2.40461,0 2.80104,-3.69868 4.47061,-4.77191 2.02074,1.42273 2.91671,9.68003 2.98082,12.4073l2.96616 -23.8747c0.368779,-2.36396 0.163436,-1.43824 2.00063,-2.37192 1.32635,1.90256 1.10298,1.84096 1.70644,4.56448 1.14866,5.1805 1.88832,10.7046 4.25479,15.0005l20.3666 0c-1.07365,-3.86128 -12.4182,-8.90559 -12.4182,-17.6565l0 -3.33996c0,-4.76311 4.44169,-10.022 9.43739,-10.022 4.68642,0 7.60271,0.587532 10.6267,4.10853 1.1143,1.29659 0.576636,1.17925 2.28894,1.61802 1.89125,-6.80523 14.7281,-7.63288 18.9707,-2.47627 5.25719,6.38909 1.87155,12.8897 -2.07606,18.2294 -1.15453,1.56186 -2.19088,3.19287 -3.60733,4.64745 -1.34772,1.38418 -3.34038,3.0617 -3.84913,4.89135 3.83404,0 8.08464,0.504137 11.8981,-0.0222105 2.15191,-0.297118 2.89659,-1.30456 3.58051,-3.24148 0.386799,-1.0967 0.755997,-2.24997 1.22326,-3.59727 0.815085,-2.34971 1.43447,-5.75756 3.16773,-6.97746 2.6154,0.670507 2.3803,2.45615 2.86055,4.888 0.448402,2.26757 1.11388,4.18815 1.11388,6.56468l0.993188 0c0,-5.4684 2.93766,-22.2642 3.82818,-28.7727 0.288318,-2.10916 0.415714,-8.92654 2.13305,-8.92654 3.76867,0 2.96029,4.59423 3.49083,10.4855 0.50749,5.64106 1.72153,22.1485 4.08381,26.6174 1.68046,3.18072 8.67091,2.02828 13.7856,2.02828 0.298376,-1.23206 0.248507,-1.4022 1.17003,-2.21644 1.79277,-1.58365 5.46715,-1.6 7.15347,-0.0536406 3.31021,3.03698 1.80366,8.47395 -4.34991,8.47395 -3.05374,0 -2.62042,-1.72404 -4.59591,-2.26631 -5.41141,-1.48517 -15.1229,2.53074 -17.3624,-3.36343 -1.56982,-4.13158 -1.52415,-18.3698 -2.87941,-23.9576l-0.297118 0.668831c-0.860344,2.45825 -0.924881,5.48475 -1.34479,8.25226 -0.394342,2.59402 -1.03216,6.52864 -1.29366,9.25593 -0.331063,3.45563 -0.70487,5.86568 -1.18973,9.35567 -0.215819,1.55641 0.0473546,5.0485 -1.31,6.44567 -1.48224,1.52624 -0.957149,0.634467 -1.51912,0.380513 -2.33085,-0.818857 -2.0396,-3.57925 -2.69376,-6.95609 -0.533891,-2.75914 -1.27983,-5.50989 -1.27983,-8.31387l-0.993188 0c-0.369617,1.52079 -0.750968,3.34834 -1.28947,4.96468 -0.624829,1.87532 -1.35861,3.14719 -3.67815,3.14719l-15.8965 0c-2.02158,0 -2.67155,-0.753482 -3.477,-1.90885 0.577474,-2.3803 3.7276,-4.76228 5.39507,-6.74781 3.80932,-4.5343 9.5455,-9.66787 7.30853,-16.4195 -2.96406,-8.94708 -15.0621,-5.43069 -17.1742,2.16993 -1.45668,-0.372969 -1.5451,-0.934519 -2.30193,-2.08318 -9.92769,-15.0822 -27.3475,3.06254 -6.20764,18.8484 3.3211,2.4792 3.88307,6.14101 -1.92226,6.14101 -4.98145,0 -16.4312,0.766054 -20.8679,-0.473126 -1.72488,-0.481508 -1.877,-0.837296 -2.45028,-2.41802 -0.510004,-1.40513 -1.47847,-6.34383 -1.51912,-8.08422l-3.11702 26.5927c-0.464326,3.37852 0.711576,6.52739 -2.84379,6.81193 -1.9847,-3.97233 -1.56731,-20.5142 -3.47742,-24.3381 -2.68245,0.688108 -0.862021,1.42189 -3.53692,1.77684l-0.67805 0.0398114c-0.117339,0.00796227 -0.255631,0.0138292 -0.382608,0.0209533 -0.475641,0.0255631 -0.840229,0.0486118 -1.33263,0.062441 -2.08109,0.0595075 -6.5408,0.115243 -12.2472,0.156312 1.01624,1.1692 1.56438,2.63509 1.56438,4.20282 0,0.24264 -0.0129911,0.483184 -0.0381351,0.719957l0 0zm-21.5983 -59.9488c0,8.07919 0.497013,14.4457 0.497013,22.4285 -3.244,0 -5.56479,-0.455526 -7.35295,1.04892 -7.2574,6.10622 10.3334,11.386 10.3334,2.76919l0 -21.952c3.01896,0.0645363 8.44462,1.91094 8.44462,5.24923 0,2.16825 -1.06108,2.48884 -1.9868,3.81812 4.38805,-0.982293 5.9893,-6.24619 1.79905,-9.36363 -2.40712,-1.79067 -8.15965,-5.33137 -11.7343,-3.99832l0 0zm26.3279 41.0401c-5.57485,0 -5.70727,8.11272 1.49062,8.11272 1.19225,0 3.33619,-1.05563 4.13577,-1.75296 1.22368,-1.06569 1.67752,-2.066 1.82462,-3.97527l-0.9429 -21.0447c-0.0310109,-2.48716 -0.306338,-3.01519 -2.5496,-3.27668 -1.36909,-0.159245 -3.96312,-0.0209533 -5.45164,-0.012572 -10.9586,0.0683079 -11.3265,-2.16322 -11.0085,1.87616l0.075432 13.8845c0.0201152,3.60146 0.723309,3.62535 -0.0318491,4.38134 -2.05427,2.05594 -7.41162,-1.33054 -7.41162,5.62472 0,3.13713 9.04179,4.76228 11.042,-0.389732l-0.113986 -14.8811c1.11556,0.0238868 10.7935,0.79036 11.3404,1.03593 1.84306,0.829333 0.961339,2.53787 1.08035,5.16584 0.0976426,2.15778 0.495337,2.59528 0.495337,5.25175l-3.97443 0 0 0zm2.9804 -14.317c-2.25207,-0.179361 -3.42252,-0.518386 -6.45908,-0.476479 -2.36396,0.0335253 -5.46296,0.695232 -5.46296,-1.43195l0 -2.86348 11.922 0.477317 0 4.2946 0 0zm-52.6553 -4.2946c0,-5.99182 0.214981,-4.54352 3.3672,-7.741 3.69198,-3.74478 4.02472,-9.54383 1.27648,-14.3769 -1.07868,-1.89753 -2.15652,-3.69324 -4.51335,-2.60827 -5.31083,2.44526 -5.57401,11.5072 -4.10434,17.5681 -2.04379,1.31545 -5.55641,3.36343 -7.04787,5.15955 -4.31387,5.19391 -4.43205,12.6298 0.777369,16.6122 5.13566,3.92624 7.26452,0.907699 7.26452,4.95169 0,5.15955 -2.71555,5.31544 -2.72435,3.06841 -0.00921947,-2.58522 2.13598,-2.0484 -1.74709,-4.0222 -1.54091,0.782817 -2.48297,1.04138 -2.48297,3.33996 0,4.71534 10.431,11.3366 10.431,-4.77233 10.5936,-2.37066 9.61172,-16.3708 -0.496594,-17.1792l0 0zm-1.9868 -13.8393c0,-3.37768 1.39926,-6.77547 3.47742,-8.11188 2.30571,4.18648 2.78218,12.0105 -2.48381,13.3611 -0.437506,-1.80199 -0.994027,-2.98501 -0.994027,-5.24923l0.000419067 0zm-8.44462 19.5662c0,-4.32896 3.27249,-7.76573 6.95441,-8.59003l0 3.34038c-2.95903,0.662126 -6.34509,4.65541 -3.47742,6.20345 0.329387,-1.18554 0.61058,-1.55139 1.62472,-2.32792 2.49093,-1.90885 1.94489,0.210791 1.9034,1.35275l-0.0507071 8.13367c-4.41319,-0.987741 -6.95441,-3.25657 -6.95441,-8.1123l0 0zm10.4314 -0.955053c0,-3.0529 4.96762,0.131168 4.96762,3.3408 0,2.87522 -1.91472,5.18428 -4.96762,5.24923l0 -8.59003zm-10.7147 49.426l-3.23939 0 0 -8.04022c0,-1.96794 -0.0129911,-3.60733 -0.0402304,-4.9232l3.08182 0 0 2.02577c0.49827,-0.786588 1.07365,-1.37496 1.71608,-1.75673 0.646201,-0.381351 1.42357,-0.570769 2.33546,-0.570769 1.03803,0 1.91346,0.25144 2.63216,0.750549 0.517128,0.35914 0.966368,0.92069 1.34353,1.68423 0.463069,-0.80838 1.02881,-1.41477 1.68842,-1.82336 0.665059,-0.409009 1.48308,-0.611419 2.45699,-0.611419 0.858249,0 1.59958,0.15715 2.22399,0.46726 0.62441,0.310109 1.11891,0.72289 1.48685,1.2308 0.367941,0.507909 0.62441,1.08287 0.76354,1.7253 0.14835,0.647039 0.22462,1.53546 0.22462,2.66778l0 7.17401 -3.23855 0 0 -7.187c0,-0.768569 -0.0716604,-1.36993 -0.215819,-1.79696 -0.147931,-0.422419 -0.403561,-0.76354 -0.776531,-1.0242 -0.372969,-0.260241 -0.822209,-0.38638 -1.35233,-0.38638 -0.45343,0 -0.871659,0.09429 -1.25343,0.287899 -0.381351,0.19319 -0.69146,0.448821 -0.921109,0.76773 -0.23342,0.32352 -0.39057,0.68727 -0.466421,1.10089 -0.0905184,0.412781 -0.135778,0.94751 -0.135778,1.60293l0 6.63509 -3.2331 0 0 -6.67029c0,-1.1143 -0.0632791,-1.88203 -0.184808,-2.30487 -0.126139,-0.422419 -0.38177,-0.76815 -0.772759,-1.03761 -0.39057,-0.273651 -0.85783,-0.408171 -1.40094,-0.408171 -0.543949,0 -1.03803,0.15254 -1.48727,0.457621 -0.44463,0.310109 -0.76354,0.71409 -0.952539,1.22619 -0.188161,0.507909 -0.282451,1.23164 -0.282451,2.17035l0 6.56678 0 0zm31.8482 -12.9634l0 8.17474c0,1.67627 0.0268203,3.2704 0.0758511,4.78868l-3.06338 0c-0.0360397,-0.61519 -0.06286,-1.31629 -0.0808799,-2.10623 -0.507909,0.8264 -1.08664,1.42818 -1.73326,1.80576 -0.652068,0.37716 -1.41561,0.56574 -2.29146,0.56574 -1.19518,0 -2.16071,-0.29628 -2.89701,-0.885488 -0.73672,-0.587951 -1.24044,-1.3473 -1.51409,-2.28601 -0.17517,-0.57915 -0.26066,-1.63562 -0.26066,-3.16228l0 -6.89533 3.23394 0 0 6.77883c0,0.902251 0.0854896,1.59413 0.25144,2.06558 0.166789,0.472288 0.445468,0.840229 0.831429,1.1055 0.38638,0.26485 0.840648,0.395599 1.36574,0.395599 0.57915,0 1.10005,-0.162598 1.56731,-0.481089 0.463069,-0.31891 0.795389,-0.772759 0.988579,-1.36113 0.192771,-0.58837 0.287899,-1.44201 0.287899,-2.56469l0 -5.93818 3.23855 0zm12.7476 1.52666l-2.16951 1.97674c-0.34112,-0.476479 -0.709061,-0.8264 -1.10005,-1.05521 -0.39057,-0.229649 -0.849029,-0.341959 -1.37496,-0.341959 -0.579569,0 -1.033,0.144159 -1.36993,0.43583 -0.33232,0.287899 -0.49869,0.61519 -0.49869,0.983969 0,0.255631 0.0720795,0.480251 0.21121,0.677631 0.13913,0.1978 0.35495,0.35495 0.647039,0.476898 0.28748,0.116501 0.822209,0.255631 1.60377,0.412781 1.19518,0.24683 2.0836,0.521738 2.67281,0.822209 0.587951,0.3055 1.04138,0.727919 1.36071,1.27103 0.31891,0.54353 0.480251,1.15914 0.480251,1.84222 0,0.79036 -0.196961,1.50445 -0.592141,2.14688 -0.395599,0.638239 -1.01121,1.15453 -1.84222,1.5451 -0.8352,0.390989 -1.86904,0.58376 -3.10822,0.58376 -1.22619,0 -2.2462,-0.18397 -3.05877,-0.551911 -0.809218,-0.368779 -1.50529,-0.867049 -2.08486,-1.50068l2.14688 -2.03918c0.499109,0.579569 0.979359,0.993188 1.44662,1.23499 0.463069,0.24683 0.993188,0.368779 1.59078,0.368779 0.70487,0 1.23499,-0.148769 1.59413,-0.45343 0.359559,-0.301309 0.53892,-0.660868 0.53892,-1.06988 0,-0.264431 -0.0674698,-0.49827 -0.206181,-0.70487 -0.13494,-0.2066 -0.31891,-0.367941 -0.557359,-0.489889 -0.23803,-0.116501 -0.6198,-0.22881 -1.14489,-0.33232 -1.33431,-0.26485 -2.31367,-0.53892 -2.94227,-0.822209 -0.62441,-0.28748 -1.11849,-0.700261 -1.47344,-1.23918 -0.35495,-0.539758 -0.53012,-1.17716 -0.53012,-1.91388 0,-1.18554 0.45343,-2.17873 1.36113,-2.98292 0.90728,-0.79958 2.17789,-1.20356 3.80932,-1.20356 1.11388,0 2.10623,0.206181 2.97328,0.6198 0.615609,0.29209 1.15453,0.72289 1.61676,1.30246l0 0zm4.67218 -7.97275c0.561131,0 1.03803,0.196961 1.42818,0.592561 0.391408,0.390989 0.589208,0.867049 0.589208,1.4198 0,0.561131 -0.1978,1.03719 -0.593399,1.42818 -0.395599,0.39057 -0.87124,0.58376 -1.42399,0.58376 -0.56155,0 -1.03719,-0.19319 -1.4286,-0.58376 -0.385961,-0.390989 -0.58376,-0.867049 -0.58376,-1.42818 0,-0.552749 0.1978,-1.02881 0.58376,-1.4198 0.391408,-0.395599 0.867049,-0.592561 1.4286,-0.592561l0 0zm1.62179 6.44609l0 12.9634 -3.23855 0 0 -12.9634 3.23855 0zm14.7243 1.49984l-2.23656 2.27721c-0.45343,-0.47145 -0.898479,-0.812571 -1.33012,-1.01456 -0.42661,-0.1978 -0.89806,-0.301309 -1.40597,-0.301309 -1.00115,0 -1.84138,0.368779 -2.51985,1.10089 -0.67805,0.732529 -1.01917,1.71524 -1.01917,2.95107 0,1.20398 0.349921,2.1737 1.05102,2.91545 0.70487,0.74091 1.55851,1.11346 2.5693,1.11346 0.543949,0 1.0242,-0.107281 1.4462,-0.32771 0.422419,-0.22001 0.849029,-0.59298 1.28947,-1.11807l2.13347 2.35306c-1.18596,1.25385 -2.82074,1.88287 -4.90979,1.88287 -2.02619,0 -3.67899,-0.629019 -4.95044,-1.88706 -1.27103,-1.26265 -1.90927,-2.91042 -1.90927,-4.95463 0,-2.0396 0.652068,-3.6924 1.94992,-4.96804 1.29827,-1.27983 2.9737,-1.91807 5.02629,-1.91807 1.01121,0 1.92771,0.170979 2.7583,0.51629 0.8264,0.34112 1.51409,0.79958 2.0572,1.37915l0 0zm27.7389 11.4636l-2.32708 0 0 -5.77809c0,-1.41309 -0.00963854,-2.59151 -0.0293347,-3.53776l2.21435 0 0 1.45584c0.358721,-0.564902 0.771502,-0.987321 1.23289,-1.26181 0.465164,-0.274489 1.02336,-0.409847 1.6792,-0.409847 0.745101,0 1.37454,0.180199 1.89125,0.53892 0.371293,0.257726 0.693975,0.661287 0.96553,1.21027 0.33232,-0.580827 0.738815,-1.01708 1.2132,-1.31042 0.478155,-0.293347 1.06569,-0.438763 1.76595,-0.438763 0.616447,0 1.14866,0.113148 1.5979,0.335253 0.448402,0.223363 0.803351,0.520062 1.06862,0.88465 0.264012,0.365007 0.447982,0.777788 0.548139,1.23918 0.106443,0.465164 0.161341,1.10466 0.161341,1.91723l0 5.15536 -2.32708 0 0 -5.16458c0,-0.551911 -0.0515452,-0.984388 -0.155055,-1.29073 -0.106443,-0.303404 -0.290413,-0.548978 -0.558616,-0.735881 -0.267784,-0.187742 -0.590046,-0.277422 -0.971397,-0.277422 -0.325615,0 -0.626505,0.0670507 -0.900156,0.206181 -0.274489,0.138292 -0.497432,0.322262 -0.662126,0.551911 -0.168046,0.232582 -0.281194,0.49408 -0.335253,0.79036 -0.0653744,0.297118 -0.0972235,0.681822 -0.0972235,1.15243l0 4.76772 -2.32414 0 0 -4.79287c0,-0.801256 -0.0452592,-1.35317 -0.132006,-1.65615 -0.0905184,-0.304243 -0.274489,-0.552749 -0.555683,-0.745939 -0.280775,-0.196961 -0.616447,-0.293347 -1.0066,-0.293347 -0.391408,0 -0.746358,0.109376 -1.06862,0.328967 -0.319329,0.222944 -0.548978,0.513357 -0.684336,0.881298 -0.135359,0.364588 -0.203666,0.88465 -0.203666,1.55893l0 4.71911zm15.4518 -9.31586l1.97883 4.90979c0.245573,0.609742 0.455107,1.21655 0.632372,1.81456 0.132425,-0.568674 0.323101,-1.19476 0.577893,-1.88203l1.76595 -4.84232 2.42095 0 -4.39601 11.2817c-0.271555,0.706966 -0.535986,1.22996 -0.797484,1.56605 -0.264431,0.338187 -0.623152,0.616447 -1.07784,0.838972 -0.458459,0.219172 -0.98816,0.329387 -1.58491,0.329387 -0.668412,0 -1.29156,-0.09429 -1.86317,-0.284546l0.294185 -1.9847c0.412781,0.157988 0.807123,0.235516 1.18135,0.235516 0.445468,0 0.803351,-0.0934519 1.07155,-0.277422 0.267784,-0.186904 0.49408,-0.512938 0.67805,-0.978102l0.529281 -1.3364 -3.97359 -9.39045 2.56259 0 0 0zm16.7945 -5.34185l0 14.6577 -2.33672 0 0 -14.6577 2.33672 0zm3.87679 0.710318c0.403561,0 0.74552,0.142064 1.02629,0.426191 0.281194,0.280775 0.423258,0.622733 0.423258,1.01959 0,0.403561 -0.142064,0.74552 -0.425772,1.02629 -0.284127,0.281194 -0.626924,0.419486 -1.02378,0.419486 -0.403142,0 -0.745101,-0.138292 -1.02629,-0.419486 -0.277422,-0.280775 -0.419486,-0.622733 -0.419486,-1.02629 0,-0.396856 0.142064,-0.738815 0.419486,-1.01959 0.281194,-0.284127 0.623152,-0.426191 1.02629,-0.426191l0 0zm1.16542 4.63153l0 9.31586 -2.32708 0 0 -9.31586 2.32708 0zm7.96269 0l0 1.9407 -2.14604 0 0 7.37516 -2.29858 0 0 -7.37516 -1.92016 0 0 -1.9407 1.92016 0 0 -1.53001c0,-0.957987 0.0972235,-1.70057 0.287899,-2.22357 0.19319,-0.522995 0.554845,-0.9429 1.0879,-1.26265 0.532215,-0.319329 1.23583,-0.477317 2.10413,-0.477317 0.503299,0 0.981455,0.0582503 1.42692,0.170979l-0.158407 1.96584c-0.386799,-0.112729 -0.703613,-0.170979 -0.955472,-0.170979 -0.56155,0 -0.965111,0.173913 -1.21027,0.522995 -0.190675,0.258145 -0.284127,0.741748 -0.284127,1.45542l0 1.54929 2.14604 0 0 0zm10.136 5.40093l-6.998 0c0.113148,0.761025 0.400628,1.34562 0.862021,1.74541 0.461393,0.400628 1.03929,0.600523 1.73997,0.600523 0.441696,0 0.845258,-0.0993188 1.21027,-0.299633 0.365007,-0.19738 0.738815,-0.5297 1.11681,-0.997379l1.67208 1.25888c-0.522995,0.635724 -1.11723,1.10676 -1.78481,1.41393 -0.667993,0.306338 -1.46925,0.458459 -2.39539,0.458459 -1.48811,0 -2.66568,-0.475222 -3.5407,-1.42399 -0.87124,-0.949186 -1.31042,-2.12676 -1.31042,-3.53148 0,-1.42692 0.457621,-2.59528 1.36825,-3.50885 0.910632,-0.913147 2.07522,-1.37161 3.49292,-1.37161 0.897222,0 1.70057,0.207019 2.41718,0.616866 0.713252,0.409428 1.25594,0.97433 1.62095,1.70099 0.367941,0.726662 0.548559,1.62305 0.548559,2.69544 0,0.138711 -0.00670507,0.352016 -0.0196961,0.642429l0 0zm-2.3627 -1.65615c-0.0134101,-0.675117 -0.226296,-1.21404 -0.639077,-1.62011 -0.412781,-0.407333 -0.935776,-0.61058 -1.57527,-0.61058 -0.623152,0 -1.1583,0.200314 -1.60084,0.597589 -0.445468,0.396856 -0.713671,0.942062 -0.810056,1.6331l4.62524 0z"/>
 </g>
</svg>
