<?xml version="1.0" encoding="UTF-8"?>
<!DOCTYPE svg PUBLIC "-//W3C//DTD SVG 1.1//EN" "http://www.w3.org/Graphics/SVG/1.1/DTD/svg11.dtd">
<!-- Creator: CorelDRAW -->
<svg xmlns="http://www.w3.org/2000/svg" xml:space="preserve" width="25in" height="39in" style="shape-rendering:geometricPrecision; text-rendering:geometricPrecision; image-rendering:optimizeQuality; fill-rule:evenodd; clip-rule:evenodd"
viewBox="0 0 0.619209 0.285994"
 xmlns:xlink="http://www.w3.org/1999/xlink">
 <defs>
  <style type="text/css">
   <![CDATA[
    .fil0 {fill:white}
   ]]>
  </style>
 </defs>
 <g id="Layer_x0020_1">
  <metadata id="CorelCorpID_0Corel-Layer"/>
  <path class="fil0" d="M0.128837 0.0754995c-6.97858e-005,-0.0203129 0.00695241,-0.0410358 0.0263965,-0.0499893 0.0172458,-0.00793988 0.0319008,-0.000655986 0.0412678,0.0134146l0 -0.0024931 0.0163857 -0.00610974c0.0178146,-0.00664186 0.0377925,0.00238144 0.0520951,0.0130238 0.0110733,0.00823996 0.016131,0.019957 0.015967,0.0313739 0.000132593,0 0.000265186,0 0.000397779,0 0.00541014,-3.31482e-005 0.0107941,-0.000432672 0.016199,0.000197145 0.00564916,0.000657731 0.0104679,0.00224012 0.0144474,0.00463726 -0.000310547,-0.00853829 -0.000631561,-0.0170783 -0.000631561,-0.0256341l0 -0.0251857 0.0587422 0 0 0.0556105c0.00620221,-0.00319968 0.0130918,-0.00503679 0.0202815,-0.00503679 0.0111587,0 0.0206357,0.00154924 0.0291251,0.00596494 0.0214539,-0.0108953 0.0518543,-0.00751244 0.0671252,0.0110471 0.000662965,0.000806026 0.00129802,0.00161554 0.00190341,0.00242854 0.00024425,-0.00251578 0.000383822,-0.0050804 0.000668199,-0.00759095 0.000472799,-0.00418889 0.00114449,-0.00843012 0.00239889,-0.012462 0.00376494,-0.0120869 0.0134669,-0.0212253 0.0268012,-0.0212253 0.00763805,0 0.0149185,0.00244774 0.0207595,0.00743393 0.0132052,0.0112739 0.0113716,0.0256515 0.0127307,0.0407479 0.000924662,0.0102742 0.00175162,0.0205205 0.00297113,0.0307703 0.00044314,0.00371435 0.00112355,0.00992005 0.00209357,0.0154506 0.0139502,-0.011417 0.0365765,-0.0112721 0.0499631,0.00100666 0.00934432,0.00856969 0.0139851,0.0212323 0.0117205,0.0337903 -0.0034544,0.0191353 -0.0205118,0.030362 -0.0392196,0.030362 -0.00808294,0 -0.0145277,-0.00202728 -0.0203984,-0.00635051 -0.00209706,6.80411e-005 -0.00444012,0.000301823 -0.00596319,0.000406502 -0.0075072,0.000512925 -0.0150039,0.00046582 -0.0219197,-0.000854876 -4.53608e-005,0.000108168 -9.24662e-005,0.000216336 -0.000139572,0.000324504 0.000697858,0.00200983 0.00125614,0.0040563 0.00168358,0.00613417l0.0156599 0.0117903 -0.0154157 0.0187479 -0.000792069 0.0176349 -0.0152098 0c-0.00287168,0.0022471 -0.00599809,0.00416272 -0.0093478,0.00569975 -0.00113576,0.000521649 -0.00228723,0.000994447 -0.00345265,0.0014184l0 0.0023134 -0.00899539 0c-0.0027199,0.000429183 -0.00548167,0.000636795 -0.00826264,0.000636795 -0.00269373,0 -0.00538048,-0.000209357 -0.00803234,-0.000636795l-0.0485447 0c-0.00303568,0.00275305 -0.00646216,0.00505947 -0.010173,0.00687739l-0.0002931 0.000141316c-0.00602949,0.00288564 -0.0125998,0.00430055 -0.0192766,0.00430055 -0.00537699,0 -0.0107174,-0.000821727 -0.0158204,-0.0025245l-0.0263633 -0.00879475 -0.0352976 0 0 -0.00897968 -0.00681284 0.000544329c-0.00549912,0.00388707 -0.0116699,0.00655114 -0.0182263,0.00800617l0 0.000429183 -0.00213544 0c-0.0032904,0.000591434 -0.00666629,0.000886279 -0.0100945,0.000886279 -0.00337589,0 -0.00672909,-0.000291356 -0.0100195,-0.000886279l-0.0310529 0c-0.00326597,0.000560031 -0.00658254,0.000821727 -0.00990784,0.000821727 -0.0033375,0 -0.00666978,-0.000258207 -0.00995494,-0.000821727l-0.0176994 0c-0.00260824,0.000427438 -0.00525138,0.00063854 -0.00789801,0.00063854 -0.00270769,0 -0.00540491,-0.000209357 -0.00806375,-0.00063854l-0.08722 0c-0.00447501,0.00703964 -0.0114047,0.0116978 -0.0222861,0.0116978 -0.0107889,0 -0.0207857,-0.0040563 -0.0270751,-0.0131738 -0.00424821,-0.00615685 -0.00560205,-0.0128266 -0.00554971,-0.0201419 1.04679e-005,-0.00142886 0.000191911,-0.00342648 4.53608e-005,-0.0048222l-7.15304e-005 -0.000458841 -0.00353814 -0.0312309c-0.00326946,0.000624583 -0.00674654,0.000865344 -0.0104731,0.000865344 -0.0155465,0 -0.0290762,-0.00978397 -0.0335129,-0.0247425 -0.0071513,-0.0241232 0.0117362,-0.0451671 0.0359065,-0.0451671 0.000169231,0 0.000336716,1.74464e-006 0.000502458,3.48929e-006 0.0011724,-0.00332704 0.00277398,-0.00647263 0.00502458,-0.00946818 0.00439301,-0.0058463 0.0101695,-0.00965486 0.0166788,-0.0116961l0.000425693 -0.00469658 3.83822e-005 -0.000322759c0.000334972,-0.00287517 -7.67644e-005,-0.00688786 -4.18715e-005,-0.00988864l8.72322e-006 -0.000783345 0.00244774 -0.0331325 1.22125e-005 -0.000151784c0.000298334,-0.00345614 -0.000167486,-0.00762584 -5.75733e-005,-0.0112285 0.000116891,-0.00381903 0.000605392,-0.00663314 0.00122125,-0.0103196 2.79143e-005,-0.000204123 3.66375e-005,-0.000418715 4.885e-005,-0.000626327 0.000218081,-0.00390277 -0.0001954,-0.00805502 -7.32751e-005,-0.0120433 0.000109913,-0.00357303 0.000176209,-0.0070187 0.000575733,-0.01059 0.00189294,-0.0168794 0.0118496,-0.0321782 0.0306185,-0.0321782 0.0207403,0 0.0304894,0.0173505 0.0311593,0.0357513 0.000200634,0.00548342 0.00108168,0.0108447 0.00121776,0.0163717 0.0001954,0.0078195 0.000840919,0.0156006 0.00159809,0.0233765zm0.0748121 0.0762218l0.00201157 0c-0.000586201,-0.000150039 -0.00116542,-0.000308802 -0.00173941,-0.000479777 -9.07215e-005,0.000160507 -0.000179698,0.000321015 -0.000272165,0.000479777zm0.134093 -0.0483772l0 0.00459714c-0.00621442,0 -0.0224169,-0.00170801 -0.0212114,0.0102044 0.00122997,0.0121671 0.0283889,0.0137722 0.0283889,-0.00215813l0 -0.0620675 -0.00837429 0c0,0.0178058 0.00119683,0.0315292 0.00119683,0.049424zm0.147389 0.101514c0.000582711,-4.01268e-005 0.0011724,-6.10626e-005 0.00176558,-6.10626e-005 0.00391847,0 0.00769737,0.000942108 0.0111151,0.00289785 0.00351197,0.00201855 0.0062877,0.00491466 0.00809864,0.0085191 0.00177954,0.00351197 0.00246518,0.00737636 0.00246518,0.0112896 0,0.000673433 -2.79143e-005,0.00135035 -5.75733e-005,0.00202379l-2.09357e-005 0.000474543 0.00370388 0.00278969 -0.00405106 0.00492513 -8.89769e-005 0.00196447 -0.00152656 0 -0.00138176 0.00168009c-0.00220872,0.00268675 -0.00490943,0.00486232 -0.00807596,0.00631561 -0.0032084,0.00147248 -0.00668897,0.00207264 -0.0102044,0.00207264 -0.0027705,0 -0.0054398,-0.000427438 -0.00792592,-0.00130325l0 0.000666454 -0.0530459 0 0 -0.0202797 -0.00709896 0.0182176c-0.000872322,0.00227153 -0.00194877,0.00454305 -0.0034544,0.00647786 -0.00168707,0.00215813 -0.00384869,0.00382601 -0.0063034,0.00502807l-8.54876e-005 4.18715e-005c-0.00263441,0.00125963 -0.00549389,0.00183362 -0.0084057,0.00183362 -0.00266756,0 -0.00531768,-0.000385566 -0.0078509,-0.00122997l-0.00845804 -0.00282283 0.00107645 -0.00726644 -0.0370632 0 0 -0.0245489c0,-0.00276526 -1.22125e-005,-0.00553576 -6.80411e-005,-0.00830102l-0.000223314 -0.0108499 0.0186084 0c0.00149167,-0.000354163 0.00303045,-0.000521649 0.00459016,-0.000521649 0.00241808,0 0.00477858,0.000409991 0.0069873,0.00126836 0.000476288,-0.000184932 0.000959554,-0.000348929 0.0014498,-0.000493734l-0.000106423 -0.000252973 0.0010747 0c0.00151261,-0.000354163 0.00307232,-0.000521649 0.00465122,-0.000521649 0.0015789,0 0.00314385,0.000165741 0.00466518,0.000521649l0.0360147 0 0 -0.0128685 0.0268919 0 0 0.00176907c0.00209706,0.000186677 0.00409294,0.000830451 0.00587596,0.00188596 0.000614115,-0.000490245 0.00126661,-0.000942108 0.00195226,-0.00135384 0.00319968,-0.00191911 0.00684075,-0.00266582 0.0105394,-0.00266582 0.00203774,0 0.00407374,0.000237272 0.00605043,0.000737985l0.00870403 0.00220872 -0.000783345 0.00973163zm-0.211425 -0.00654591c0.00379111,-0.00178826 0.00797826,-0.00263965 0.0123765,-0.00263965 0.00369167,0 0.00730832,0.000636795 0.0107104,0.00205345 0.00326946,0.00135035 0.00621617,0.00328342 0.00864122,0.00586898l0.00698381 0.0074444 -0.0114466 0.0116542 0.0111448 0.0122963 -0.00676748 0.0071513c-0.0051781,0.00547469 -0.0120921,0.00785788 -0.019547,0.00785788 -0.00462505,0 -0.00901981,-0.000952576 -0.012954,-0.00295368l0 0.0020674 -0.029064 0 0 -0.000422204c-0.00289088,0.000889769 -0.00592656,0.00124393 -0.00896224,0.00124393 -0.00251054,0 -0.00502981,-0.000237272 -0.00746708,-0.000821727l-0.0226315 0c-0.00177081,0.000430927 -0.00360095,0.00063854 -0.00545376,0.00063854 -0.00307406,0 -0.00606787,-0.000512925 -0.00883313,-0.00164869l0 0.00101015 -0.0692257 0 0 -0.0299974c0,-0.00388009 -1.57018e-005,-0.00776192 -9.42108e-005,-0.0116403l-0.000223314 -0.0108499 0.0221517 0c0.00190515,-0.000495479 0.00388009,-0.000725772 0.0058812,-0.000725772 0.00340904,0 0.00671339,0.000676922 0.00972639,0.00214068 0.00305662,-0.00149167 0.00640808,-0.00214068 0.00983456,-0.00214068 0.00306534,0 0.00608357,0.000516415 0.00889943,0.00169405l0 -0.000968278 0.0495967 0 0 0.000460586c0.00285598,-0.000982235 0.0059126,-0.00141316 0.00901807,-0.00141316 0.00231689,0 0.00460935,0.000251229 0.00683203,0.000790324 2.61697e-005,-0.00367597 0.00130674,-0.0071164 0.00365852,-0.00988515 -0.0482098,0.000162252 -0.110581,-0.000129104 -0.114515,-0.00165043 -0.00424646,-0.00164171 -0.004967,-0.00382949 -0.00647612,-0.00872148 -0.00113402,-0.00367073 -0.0022,-0.00810387 -0.00281935,-0.0110855 -0.0012038,-0.00580094 -0.000190166,-0.00879824 -0.00508738,-0.0100544 0,0.00805502 -0.00103283,0.0201559 -0.00717921,0.0252869l-0.0047402 -0.00128929c-0.00475939,-0.00920998 -0.00569103,-0.0859656 -0.00961822,-0.102156 -0.000163997,0.000247739 -0.000298334,0.000385566 -0.000343695,0.000818238 -4.53608e-005,0.000436161 -0.000266931,0.00063854 -0.000326248,0.000835685 -0.00034195,0.00111308 -0.000453608,0.00142712 -0.000746708,0.00273211 -0.000546074,0.00242506 -0.000715304,0.00323108 -0.000922917,0.00600681l-0.00254544 0.071192c-0.00093164,0.0180396 -0.000115147,0.0407758 -0.00262046,0.058327 -0.000809515,0.00568231 -0.00117415,0.0439912 -0.00685122,0.0439912 -0.010597,0 -0.00630863,-0.00785613 -0.00768341,-0.0167556l-0.00787009 -0.0694491c-0.00208311,0.00858888 -0.00607485,0.0097578 -0.0145765,0.0112826 -0.010433,0.001872 -0.00312291,0.00595971 -0.0165322,0.00595971 -0.0127307,0 -0.0141229,-0.01954 0.00239365,-0.01954 0.00742695,0 0.0158274,0.0109319 0.0210613,-0.00275654 0.00355559,-0.00930244 -6.97858e-006,-0.0202326 0.0136361,-0.0202326 0.00106598,0.00383647 0.00305138,0.00650054 0.00346312,0.0104661 0.000525138,0.005049 0.000701347,0.00987992 0.00114449,0.0138438 0.00102411,0.00916113 0.00137478,0.017928 0.00137478,0.0274136l0.007003 -0.0771778c0.000483266,-0.00412608 8.02536e-005,-0.00836731 0.000127359,-0.0125213l0.00237795 -0.0321974c0.00034544,-0.00401966 -9.94447e-005,-0.00855399 2.4425e-005,-0.0126208 0.000167486,-0.00549563 0.00095781,-0.00524963 0.00124044,-0.0103021 0.000230293,-0.00408945 -0.000170975,-0.0085662 -4.36161e-005,-0.0126853 0.000150039,-0.00496351 -4.885e-005,-0.0183537 0.00602077,-0.0183537 0.00505249,0 0.00581664,0.00664535 0.00599111,0.011485 0.000251229,0.00685122 0.00107121,0.0104557 0.00121078,0.0160786 0.000547818,0.0220767 0.00470007,0.0442948 0.00476288,0.0655376 2.9659e-005,0.0108011 0.00239191,0.0223192 0.00239191,0.0333332l0.00239365 0c0,-0.00475765 0.00090547,-0.007331 0.00169754,-0.0121619 0.00102062,-0.0062214 5.75733e-005,-0.0078509 0.00428485,-0.0108255 0.00653893,0.0016766 0.00818413,0.0157978 0.0107749,0.0252799 0.00246518,0.00903028 0.00314908,0.0229944 0.0131546,0.0229944l0.162718 0c0.00579222,0 0.00674654,-0.00890815 0.0107679,-0.0114937 0.00486756,0.00342648 0.00702568,0.0233154 0.00717921,0.029884l0.00714432 -0.0575035c0.000888024,-0.00569452 0.00039429,-0.00346486 0.00481871,-0.00571371 0.00319444,0.00458318 0.00265709,0.00443489 0.00411038,0.0109947 0.00276701,0.0124777 0.00454829,0.0257824 0.010248,0.0361298l0.0490542 0c-0.00258556,-0.0093007 -0.0299102,-0.0214504 -0.0299102,-0.0425275l0 -0.00804456c0,-0.0114728 0.0106982,-0.0241389 0.022731,-0.0241389 0.0112878,0 0.0183118,0.00141491 0.0255957,0.00989562 0.00268326,0.00312291 0.00138874,0.00284028 0.00551308,0.00389754 0.00455527,-0.0163909 0.0354739,-0.0183851 0.0456922,-0.00596494 0.0126626,0.0153895 0.00450816,0.0310459 -0.00500015,0.0439075 -0.00278096,0.00376145 -0.00527755,0.00769039 -0.00868833,0.0111936 -0.00324678,0.00333402 -0.0080463,0.00737461 -0.00927104,0.0117816 0.0092344,0 0.019472,0.00121427 0.0286575,-5.4084e-005 0.00518334,-0.000715304 0.00697683,-0.0031421 0.00862378,-0.00780728 0.00093164,-0.00264139 0.00182141,-0.00541887 0.0029467,-0.0086639 0.00196272,-0.00565963 0.0034544,-0.0138682 0.00762933,-0.0168062 0.00629991,0.00161554 0.0057329,0.00591609 0.0068896,0.0117729 0.00107993,0.00546248 0.00268326,0.0100875 0.00268326,0.0158117l0.00239191 0c0,-0.0131703 0.00707628,-0.0536251 0.00922045,-0.0693008 0.000694368,-0.0050804 0.00100143,-0.021501 0.00513798,-0.021501 0.00907738,0 0.00713036,0.0110663 0.00840744,0.0252555 0.001223,0.0135873 0.00414702,0.053346 0.0098363,0.0641104 0.00404757,0.00766073 0.0208851,0.004885 0.0332041,0.004885 0.000718793,-0.00296764 0.000598413,-0.00337763 0.0028176,-0.00533861 0.00431799,-0.00381379 0.0131686,-0.00385392 0.0172301,-0.000129104 0.00797302,0.00731529 0.00434416,0.0204106 -0.0104766,0.0204106 -0.00735542,0 -0.00631212,-0.00415225 -0.0110698,-0.00545899 -0.0130342,-0.00357652 -0.0364247,0.00609579 -0.0418191,-0.00810038 -0.00378064,-0.00995145 -0.00367073,-0.0442459 -0.00693496,-0.0577041l-0.000715304 0.00161031c-0.00207264,0.00592132 -0.00222791,0.0132104 -0.0032398,0.0198767 -0.000949087,0.00624757 -0.00248612,0.0157245 -0.00311593,0.0222931 -0.000797302,0.0083237 -0.00169754,0.0141281 -0.00286471,0.0225338 -0.000519904,0.00374924 0.000113402,0.0121602 -0.00315606,0.0155256 -0.00356954,0.00367597 -0.00230468,0.00152831 -0.00365852,0.000915938 -0.00561427,-0.00197145 -0.00491292,-0.00862029 -0.00648833,-0.0167538 -0.0012858,-0.00664535 -0.00308279,-0.0132715 -0.00308279,-0.020025l-0.00239191 0c-0.000889769,0.00366375 -0.0018092,0.00806549 -0.00310547,0.0119578 -0.00150563,0.00451688 -0.00327295,0.00758048 -0.0088593,0.00758048l-0.038288 0c-0.0048693,0 -0.00643425,-0.00181443 -0.00837429,-0.00459714 0.00139048,-0.0057329 0.00897794,-0.011471 0.0129941,-0.0162531 0.00917508,-0.0109215 0.0229909,-0.0232858 0.0176035,-0.0395476 -0.00713908,-0.0215498 -0.0362781,-0.0130796 -0.0413655,0.00522695 -0.00350848,-0.000898492 -0.00372133,-0.00225059 -0.00554448,-0.0050176 -0.0239121,-0.036327 -0.065869,0.00737636 -0.0149516,0.0453974 0.00799919,0.00597192 0.00935304,0.0147911 -0.00463029,0.0147911 -0.0119979,0 -0.0395755,0.00184583 -0.0502615,-0.00113925 -0.004154,-0.00116019 -0.00452037,-0.00201681 -0.00590213,-0.00582362 -0.00122823,-0.00338461 -0.00356082,-0.0152796 -0.00365852,-0.019472l-0.0075072 0.0640511c-0.00111832,0.00813702 0.00171324,0.015721 -0.00684947,0.0164066 -0.00478033,-0.00956763 -0.00377541,-0.0494101 -0.00837604,-0.0586201 -0.00646042,0.00165741 -0.00207613,0.00342474 -0.0085191,0.00427961l-0.00163299 9.59554e-005c-0.000282632,1.91911e-005 -0.000615859,3.31482e-005 -0.000921172,5.05947e-005 -0.00114623,6.10626e-005 -0.00202379,0.000116891 -0.00321015,0.000150039 -0.00501236,0.000143061 -0.0157541,0.000277398 -0.0294984,0.000376843 0.00244774,0.00281586 0.00376843,0.00634702 0.00376843,0.0101224 0,0.000584456 -3.14036e-005,0.00116368 -9.24662e-005,0.00173418zm-0.0520218 -0.144392c0,0.0194598 0.00119683,0.0347934 0.00119683,0.0540212 -0.00781252,0 -0.0134024,-0.00109738 -0.0177099,0.00252625 -0.0174796,0.0147074 0.0248891,0.0274241 0.0248891,0.00666978l0 -0.0528732c0.00727168,0.000155273 0.0203391,0.00460237 0.0203391,0.0126434 0,0.00522172 -0.0025559,0.0059946 -0.00478556,0.00919602 0.0105691,-0.00236574 0.0144265,-0.0150441 0.0043337,-0.022553 -0.00579745,-0.00431276 -0.0196534,-0.0128406 -0.0282632,-0.00963044zm0.0634126 0.0988481c-0.0134268,0 -0.0137461,0.01954 0.00359048,0.01954 0.00287168,0 0.00803583,-0.00254195 0.00996192,-0.00422204 0.0029467,-0.00256637 0.0040406,-0.00497573 0.00439476,-0.00957461l-0.00227153 -0.0506872c-7.50197e-005,-0.00599111 -0.000737985,-0.00726295 -0.00614115,-0.00789277 -0.00329738,-0.000383822 -0.00954495,-5.05947e-005 -0.0131302,-2.9659e-005 -0.0263947,0.000163997 -0.027281,-0.00521125 -0.0265151,0.00451863l0.000181443 0.0334413c4.885e-005,0.00867437 0.0017429,0.00873195 -7.67644e-005,0.0105534 -0.00494781,0.0049513 -0.0178512,-0.00320491 -0.0178512,0.0135472 0,0.00755605 0.0217784,0.011471 0.0265954,-0.000938619l-0.000273909 -0.035842c0.00268675,5.75733e-005 0.0259969,0.00190341 0.0273142,0.00249484 0.00443838,0.00199762 0.00231514,0.00611323 0.00260126,0.0124428 0.000235527,0.0051973 0.00119334,0.00625106 0.00119334,0.0126487l-0.00957286 0zm0.00717921 -0.0344829c-0.0054241,-0.000432672 -0.00824344,-0.00124917 -0.015557,-0.00114798 -0.00569452,8.02536e-005 -0.0131581,0.00167486 -0.0131581,-0.00344916l0 -0.00689658 0.0287151 0.00114972 0 0.010344zm-0.126825 -0.010344c0,-0.0144317 0.000518159,-0.0109442 0.00811085,-0.018645 0.00889245,-0.00901981 0.00969324,-0.0229874 0.00307406,-0.0346277 -0.00259778,-0.00457097 -0.00519381,-0.00889594 -0.0108709,-0.00628246 -0.0127917,0.00588992 -0.013425,0.0277154 -0.00988515,0.0423146 -0.00492339,0.00316827 -0.0133832,0.00810038 -0.0169754,0.0124271 -0.0103911,0.0125091 -0.0106755,0.0304196 0.001872,0.0400117 0.0123695,0.00945597 0.017497,0.00218604 0.017497,0.0119264 0,0.0124271 -0.00654067,0.0128022 -0.00656161,0.00739031 -2.26804e-005,-0.00622664 0.00514496,-0.00493385 -0.00420808,-0.00968801 -0.00371086,0.00188596 -0.00598064,0.0025088 -0.00598064,0.00804456 0,0.0113576 0.0251246,0.0273054 0.0251246,-0.0114937 0.0255154,-0.00571022 0.0231497,-0.0394307 -0.00119683,-0.0413777zm-0.00478556 -0.0333332c0,-0.00813528 0.00337065,-0.0163194 0.00837604,-0.0195383 0.0055532,0.010084 0.00670118,0.0289279 -0.00598239,0.0321817 -0.00105377,-0.00434068 -0.00239365,-0.00718968 -0.00239365,-0.0126434zm-0.0203391 0.0471263c0,-0.010426 0.0078823,-0.0187043 0.0167503,-0.0206897l0 0.0080463c-0.00712687,0.0015946 -0.0152831,0.0112128 -0.00837604,0.0149411 0.000793813,-0.00285598 0.00147074,-0.00373703 0.00391324,-0.00560729 0.00599983,-0.00459714 0.00468437,0.000507692 0.00458493,0.003259l-0.000122125 0.0195906c-0.0106301,-0.00237969 -0.0167503,-0.00784392 -0.0167503,-0.01954zm0.0251246 -0.00229944c0,-0.00735368 0.0119648,0.000315781 0.0119648,0.0080463 0,0.00692449 -0.0046111,0.0124864 -0.0119648,0.0126434l0 -0.0206897zm-0.0258068 0.119046l-0.00780205 0 0 -0.0193656c0,-0.0047402 -3.14036e-005,-0.00868833 -9.77001e-005,-0.0118583l0.00742346 0 0 0.00487977c0.00120032,-0.00189468 0.00258556,-0.00331133 0.00413306,-0.00423076 0.00155622,-0.000919428 0.00342823,-0.00137478 0.00562473,-0.00137478 0.00250008,0 0.00460935,0.000605392 0.00634004,0.00180745 0.00124568,0.000865344 0.00232736,0.00221744 0.00323632,0.0040563 0.00111483,-0.00194702 0.00247739,-0.00340729 0.00406677,-0.00439127 0.00160158,-0.000985724 0.00357129,-0.00147248 0.00591783,-0.00147248 0.0020674,0 0.00385217,0.000378588 0.00535606,0.0011253 0.00150388,0.000746708 0.00269548,0.00174116 0.00358175,0.00296415 0.000886279,0.001223 0.00150388,0.00260824 0.00183886,0.00415574 0.000357652,0.00155797 0.00054084,0.00369865 0.00054084,0.00642553l0 0.017279 -0.0078003 0 0 -0.0173104c0,-0.00185107 -0.00017272,-0.00329912 -0.000519904,-0.00432846 -0.000355907,-0.00101713 -0.000971767,-0.00183886 -0.00187026,-0.00246693 -0.000898492,-0.000626327 -0.00198017,-0.000929895 -0.00325725,-0.000929895 -0.00109215,0 -0.00209881,0.000226804 -0.00301823,0.000692624 -0.000919428,0.00046582 -0.00166614,0.00108168 -0.00221919,0.00184932 -0.000561775,0.000779856 -0.000940363,0.00165567 -0.00112355,0.00265186 -0.000218081,0.000994447 -0.000326248,0.00228199 -0.000326248,0.0038609l0 0.0159809 -0.00778809 0 0 -0.0160664c0,-0.00268326 -0.000151784,-0.00453259 -0.000444884,-0.00555146 -0.000303568,-0.00101713 -0.000919428,-0.00184932 -0.00186154,-0.00249833 -0.000940363,-0.000659476 -0.00206566,-0.000983979 -0.00337414,-0.000983979 -0.00131023,0 -0.00250008,0.00036812 -0.00358175,0.00110262 -0.00107121,0.000746708 -0.00183886,0.00172022 -0.00229421,0.00295368 -0.000453608,0.001223 -0.000680411,0.0029659 -0.000680411,0.00522695l0 0.0158169zm0.0767085 -0.0312239l0 0.0196901c0,0.00403711 6.45518e-005,0.00787707 0.000183188,0.0115338l-0.0073781 0c-8.72322e-005,-0.0014812 -0.000151784,-0.00317002 -0.0001954,-0.00507343 -0.001223,0.00199064 -0.00261697,0.00344044 -0.00417493,0.0043494 -0.00157018,0.00090896 -0.00340904,0.00136257 -0.00551831,0.00136257 -0.00287866,0 -0.00520427,-0.00071356 -0.00697858,-0.00213196 -0.0017743,-0.00141665 -0.00298683,-0.00324504 -0.00364631,-0.0055061 -0.000422204,-0.00139572 -0.000628072,-0.00393941 -0.000628072,-0.00761712l0 -0.0166073 0.00778984 0 0 0.0163264c0,0.00217383 0.000205868,0.00383996 0.000605392,0.00497573 0.000401268,0.00113751 0.00107296,0.00202379 0.00200285,0.00266233 0.000929895,0.00063854 0.00202379,0.000952576 0.00328865,0.000952576 0.00139572,0 0.00265011,-0.0003908 0.00377541,-0.00115844 0.00111483,-0.000767644 0.00191562,-0.00186154 0.00238144,-0.00327819 0.000464075,-0.00141665 0.000692624,-0.00347359 0.000692624,-0.00617779l0 -0.0143026 0.0078003 0zm0.030704 0.00367771l-0.00522521 0.00476113c-0.000821727,-0.00114798 -0.00170801,-0.00199064 -0.00265011,-0.00254195 -0.000940363,-0.000553052 -0.00204472,-0.000823472 -0.00331133,-0.000823472 -0.00139572,0 -0.00248786,0.000347184 -0.00329912,0.00105028 -0.000800792,0.000692624 -0.00120206,0.0014812 -0.00120206,0.00236923 0,0.000615859 0.000174464,0.0011567 0.000509436,0.00163299 0.000334972,0.000476288 0.000854876,0.000854876 0.00155797,0.00114798 0.000692624,0.000280888 0.00198017,0.000615859 0.00386264,0.000994447 0.00287866,0.000594924 0.00501934,0.00125614 0.00643774,0.00198017 0.00141665,0.00073624 0.0025088,0.00175337 0.00327819,0.00306185 0.000767644,0.00130848 0.0011567,0.00279143 0.0011567,0.00443663 0,0.00190341 -0.000474543,0.00362363 -0.00142712,0.00517113 -0.000952576,0.00153703 -0.00243552,0.00278096 -0.00443663,0.00372133 -0.00201157,0.000942108 -0.00450118,0.00140618 -0.00748627,0.00140618 -0.00295368,0 -0.00541014,-0.00044314 -0.00736763,-0.00132942 -0.00194877,-0.000888024 -0.00362537,-0.00208834 -0.00502109,-0.0036149l0.00517113 -0.00491117c0.00120206,0.00139572 0.00235876,0.00239191 0.00348405,0.00297462 0.00111483,0.000594924 0.00239191,0.000888024 0.00383124,0.000888024 0.00169754,0 0.00297462,-0.000357652 0.00383996,-0.00109215 0.000865344,-0.000725772 0.00129802,-0.00159112 0.00129802,-0.00257684 0,-0.000636795 -0.000162252,-0.00120032 -0.000497224,-0.00169754 -0.000324504,-0.000497224 -0.000767644,-0.000886279 -0.00134163,-0.00117938 -0.000573988,-0.000280888 -0.00149342,-0.000551308 -0.00275828,-0.000800792 -0.00321363,-0.00063854 -0.00557239,-0.00129802 -0.00708675,-0.00198017 -0.00150388,-0.000692624 -0.00269373,-0.00168707 -0.00354861,-0.00298509 -0.000854876,-0.00129976 -0.00127708,-0.00283505 -0.00127708,-0.00460935 0,-0.00285598 0.00109215,-0.00524789 0.00327819,-0.00718445 0.00218604,-0.00192609 0.00524615,-0.0028996 0.00917508,-0.0028996 0.00268326,0 0.00507343,0.000497224 0.00716177,0.00149342 0.00148295,0.000703092 0.00278096,0.00174116 0.00389405,0.00313687zm0.011253 -0.0192033c0.0013521,0 0.00250008,0.000474543 0.00344044,0.00142712 0.000942108,0.000942108 0.0014184,0.00208834 0.0014184,0.0034195 0,0.0013521 -0.000476288,0.00249833 -0.00142886,0.00344044 -0.000952576,0.000940363 -0.00209881,0.00140618 -0.00342997,0.00140618 -0.0013521,0 -0.00249833,-0.00046582 -0.00344044,-0.00140618 -0.000929895,-0.000942108 -0.00140618,-0.00208834 -0.00140618,-0.00344044 0,-0.00133116 0.000476288,-0.00247739 0.00140618,-0.0034195 0.000942108,-0.000952576 0.00208834,-0.00142712 0.00344044,-0.00142712zm0.00390626 0.0155256l0 0.0312239 -0.0078003 0 0 -0.0312239 0.0078003 0zm0.0354651 0.00361316l-0.00538746 0.00548516c-0.00109215,-0.00113576 -0.00216336,-0.00195749 -0.00320317,-0.00244425 -0.0010276,-0.000476288 -0.00216336,-0.000725772 -0.00338635,-0.000725772 -0.0024111,0 -0.00443489,0.000888024 -0.00606962,0.00265186 -0.00163299,0.00176384 -0.00245471,0.00413132 -0.00245471,0.00710768 0,0.0028996 0.000842663,0.00523568 0.00253148,0.00702219 0.00169754,0.00178477 0.00375447,0.00268152 0.00618825,0.00268152 0.00131023,0 0.00246693,-0.000258207 0.00348405,-0.000788579 0.00101713,-0.000530372 0.00204472,-0.00142886 0.00310547,-0.00269373l0.00513798 0.00566835c-0.00285598,0.00301998 -0.00679365,0.00453433 -0.0118252,0.00453433 -0.00487977,0 -0.00886105,-0.00151435 -0.0119229,-0.0045448 -0.00306185,-0.00304092 -0.00459888,-0.00700998 -0.00459888,-0.0119334 0,-0.00491292 0.00157018,-0.0088942 0.00469658,-0.0119665 0.0031264,-0.00308279 0.00716177,-0.00461982 0.0121061,-0.00461982 0.00243552,0 0.0046425,0.000411736 0.00664361,0.00124393 0.00199064,0.000821727 0.00364631,0.00192609 0.00495479,0.0033218zm0.0668112 0.0276107l-0.00560554 0 0 -0.013917c0,-0.0034038 -2.26804e-005,-0.00624234 -6.97858e-005,-0.00852084l0.00533338 0 0 0.00350674c0.000863599,-0.00136082 0.00185805,-0.00237795 0.00296938,-0.00303917 0.00112006,-0.00066122 0.00246518,-0.000987469 0.00404409,-0.000987469 0.00179524,0 0.00331133,0.000434416 0.00455527,0.00129802 0.000895003,0.000621093 0.00167137,0.00159286 0.00232561,0.0029153 0.000800792,-0.0013992 0.00177954,-0.00244948 0.00292228,-0.00315606 0.00115147,-0.000706581 0.00256637,-0.00105725 0.00425344,-0.00105725 0.00148469,0 0.00276701,0.000272165 0.00384869,0.00080777 0.00107993,0.00053735 0.00193481,0.00125265 0.00257335,0.00213021 0.000636795,0.000879301 0.00107993,0.00187375 0.0013207,0.00298509 0.000256463,0.00112006 0.000389056,0.00266058 0.000389056,0.00461807l0 0.0124166 -0.00560554 0 0 -0.0124393c0,-0.00132942 -0.00012387,-0.00237097 -0.000373354,-0.00310896 -0.000256463,-0.000731006 -0.000699602,-0.00132244 -0.00134512,-0.00177256 -0.000645518,-0.000451863 -0.00142189,-0.000668199 -0.00233957,-0.000668199 -0.00078509,0 -0.00150912,0.000162252 -0.00216859,0.000497224 -0.00066122,0.000333227 -0.00119857,0.000776367 -0.0015946,0.00132942 -0.000404757,0.000560031 -0.000676922,0.00118985 -0.00080777,0.00190341 -0.000157018,0.000715304 -0.000233782,0.00164171 -0.000233782,0.00277573l0 0.0114832 -0.00559856 0 0 -0.0115443c0,-0.00192958 -0.000108168,-0.003259 -0.000317525,-0.00398826 -0.000218081,-0.000732751 -0.00066122,-0.00133116 -0.00133814,-0.00179698 -0.000676922,-0.000474543 -0.00148469,-0.000706581 -0.00242506,-0.000706581 -0.000942108,0 -0.00179698,0.000263441 -0.00257335,0.000792069 -0.000769388,0.00053735 -0.00132244,0.00123695 -0.00164869,0.00212323 -0.000326248,0.000877556 -0.000490245,0.00213021 -0.000490245,0.00375447l0 0.0113664zm0.0372168 -0.0224379l0.00476637 0.0118252c0.000591434,0.00146899 0.00109564,0.002931 0.00152307,0.00437033 0.00031927,-0.00136955 0.000778111,-0.00287692 0.00139223,-0.00453259l0.00425344 -0.0116629 0.0058306 0 -0.0105882 0.0271728c-0.000654242,0.00170277 -0.00129104,0.00296241 -0.00192085,0.00377192 -0.000636795,0.000814749 -0.00150039,0.00148469 -0.00259603,0.0020203 -0.00110436,0.000528627 -0.00237969,0.000793813 -0.00381728,0.000793813 -0.00161031,0 -0.0031107,-0.000226804 -0.00448723,-0.000685645l0.000708326 -0.00478033c0.000994447,0.000380332 0.00194353,0.000567009 0.00284551,0.000567009 0.00107296,0 0.00193481,-0.000225059 0.00258033,-0.000668199 0.000645518,-0.000450118 0.00118985,-0.00123521 0.00163299,-0.00235527l0.00127534 -0.00321887 -0.00957112 -0.0226176 0.00617255 0zm0.0404513 -0.0128668l0 0.0353046 -0.00562822 0 0 -0.0353046 0.00562822 0zm0.00933734 0.0017115c0.000971767,0 0.00179524,0.00034195 0.00247216,0.00102585 0.000676922,0.000676922 0.00101887,0.00150039 0.00101887,0.00245646 0,0.000971767 -0.00034195,0.00179524 -0.00102585,0.00247216 -0.000683901,0.000676922 -0.00150912,0.00101015 -0.00246518,0.00101015 -0.000971767,0 -0.00179524,-0.000333227 -0.00247216,-0.00101015 -0.000668199,-0.000676922 -0.00101015,-0.00150039 -0.00101015,-0.00247216 0,-0.000956065 0.00034195,-0.00177954 0.00101015,-0.00245646 0.000676922,-0.000683901 0.00150039,-0.00102585 0.00247216,-0.00102585zm0.00280713 0.0111553l0 0.0224379 -0.00560554 0 0 -0.0224379 0.00560554 0zm0.0191789 0l0 0.0046739 -0.00516938 0 0 0.017764 -0.00553576 0 0 -0.017764 -0.00462505 0 0 -0.0046739 0.00462505 0 0 -0.00368469c0,-0.00230816 0.000233782,-0.00409642 0.000692624,-0.00535606 0.00046582,-0.00125963 0.0013364,-0.00227153 0.00262046,-0.00304092 0.00128231,-0.000769388 0.00297636,-0.00114972 0.00506819,-0.00114972 0.00121253,0 0.00236399,0.000139572 0.00343695,0.000411736l-0.000382077 0.00473496c-0.00093164,-0.000272165 -0.00169405,-0.000411736 -0.00230119,-0.000411736 -0.0013521,0 -0.00232387,0.000418715 -0.0029153,0.00125963 -0.000458841,0.000621093 -0.000683901,0.00178652 -0.000683901,0.00350499l0 0.00373179 0.00516938 0zm0.0244128 0.0130081l-0.016855 0c0.000272165,0.00183362 0.000964788,0.00324155 0.00207613,0.00420459 0.00111134,0.000964788 0.00250356,0.00144631 0.00419064,0.00144631 0.00106423,0 0.002036,-0.000239016 0.0029153,-0.000722283 0.000879301,-0.000474543 0.00177954,-0.00127534 0.00269024,-0.00240238l0.00402664 0.00303219c-0.00125963,0.0015318 -0.00269024,0.00266582 -0.0042988,0.00340555 -0.00160856,0.000737985 -0.00353814,0.00110436 -0.00576954,0.00110436 -0.0035835,0 -0.00642029,-0.00114449 -0.00852782,-0.00342997 -0.00209881,-0.00228548 -0.00315606,-0.00512228 -0.00315606,-0.00850514 0,-0.00343695 0.00110262,-0.00625106 0.00329563,-0.00845106 0.00219302,-0.0022 0.00499841,-0.00330436 0.00841268,-0.00330436 0.00216161,0 0.00409642,0.000498968 0.00582188,0.00148644 0.00171847,0.000985724 0.00302521,0.00234655 0.00390451,0.00409642 0.000886279,0.00174988 0.0013207,0.00390975 0.0013207,0.00649182 0,0.000334972 -1.57018e-005,0.000847897 -4.71054e-005,0.0015475zm-0.00569103 -0.00398826c-3.14036e-005,-0.00162601 -0.000544329,-0.00292402 -0.00153878,-0.00390277 -0.000994447,-0.00098049 -0.00225408,-0.00147074 -0.0037946,-0.00147074 -0.00150039,0 -0.00278969,0.000483266 -0.00385566,0.00143933 -0.00107296,0.000956065 -0.00171847,0.00226978 -0.00195051,0.00393417l0.0111396 0z"/>
 </g>
</svg>
