<?xml version="1.0" encoding="UTF-8"?>
<!DOCTYPE svg PUBLIC "-//W3C//DTD SVG 1.1//EN" "http://www.w3.org/Graphics/SVG/1.1/DTD/svg11.dtd">
<!-- Creator: CorelDRAW -->
<svg xmlns="http://www.w3.org/2000/svg" xml:space="preserve" width="5548in" height="7180in" style="shape-rendering:geometricPrecision; text-rendering:geometricPrecision; image-rendering:optimizeQuality; fill-rule:evenodd; clip-rule:evenodd"
viewBox="0 0 455.69 266.082"
 xmlns:xlink="http://www.w3.org/1999/xlink">
 <defs>
  <style type="text/css">
   <![CDATA[
    .fil0 {fill:red}
   ]]>
  </style>
 </defs>
 <g id="Layer_x0020_1">
  <metadata id="CorelCorpID_0Corel-Layer"/>
  <path class="fil0" d="M23.2447 266.082c0,-3.772 0,-7.54311 0,-11.4864 143.099,0 286.199,0 429.54,0 0,3.77111 0,7.54311 0,11.4864 -143.099,0 -286.199,0 -429.54,0zm314.043 -14.9158c-2.17888,-1.88555 -4.35776,-3.59977 -6.29534,-5.31489 6.05315,-0.856662 35.8354,-3.08578 30.751,-12.344 -9.68521,-8.05801 -19.3704,-16.1151 -29.0556,-24.1731 -8.95952,-15.0871 26.3924,-21.2596 41.8885,-20.0593 1.69449,1.71422 3.63207,3.42934 5.56875,5.31489 -6.53754,0.857559 -36.3198,2.91445 -31.2345,12.0013 15.7384,12.858 15.7384,12.858 30.7501,26.2309 2.66328,15.4298 -27.3603,16.63 -42.3729,18.3442zm-160.532 -0.513997c-28.8134,-7.20045 -26.3924,-19.5445 -26.3924,-39.6038 4.84216,-21.4309 32.6877,-25.202 59.0801,-18.5165 19.3704,8.5729 15.254,23.66 15.254,38.0609 -7.02194,19.888 -21.7915,19.5445 -47.9417,20.0593zm87.1669 0c-14.5283,-2.74311 -18.886,-3.94334 -23.9713,-13.2016 0,-15.4298 0.242198,-30.8596 0.484395,-46.2902 5.56875,0 11.1384,0 16.9494,0 0,15.2593 -2.90547,33.4322 2.17888,48.348 6.77974,6.17155 21.5502,3.94334 30.9932,3.42844 3.87337,-2.22822 5.32655,-4.62867 6.77974,-7.71444 0,-14.7445 0.242198,-29.4889 0.483498,-44.062 6.05404,0 12.1072,0 18.4025,0 -0.242198,14.5731 -0.484395,29.3176 -0.484395,44.062 -4.35866,18.5156 -30.5088,15.0871 -51.8159,15.4298zm-240.678 -1.20022c0,-26.4022 0,-52.6331 0,-78.8649 -7.74853,0 -15.4962,0 -23.2447,0 3.38987,-6.68555 6.77974,-13.372 10.1696,-20.0585 4.35776,-0.171332 8.71642,-0.342665 13.0751,-0.514894 0,-33.4313 0,-66.6914 0,-99.9523 9.68521,0 19.3704,0 29.0556,0 0,32.9174 0,65.8347 0,98.9243 19.6126,0 39.2253,0 59.0801,0 0,-32.9174 0.242198,-65.8347 0.484395,-98.5807 9.68521,-0.171332 19.3704,-0.343562 29.2978,-0.343562 0,66.3496 0,132.87 0,199.391 -9.92741,0 -19.8548,0 -29.7822,0 0,-26.4022 0,-52.6331 0,-78.8649 -19.8548,0 -39.4675,0 -59.0801,0 0,26.2318 0,52.4627 0,78.8649 -9.68521,0 -19.3704,0 -29.0556,0zm32.4455 0c0,-25.7169 0,-51.4338 0,-77.1498 17.1915,0 34.3822,0 51.5737,0 0,25.716 0,51.4329 0,77.1498 -17.1915,0 -34.3822,0 -51.5737,0zm346.247 0c0,-7.71534 0,-15.2585 0,-22.8025 -4.35776,0 -8.71642,0 -13.0751,0 1.93758,-2.22822 4.11646,-4.45733 6.29624,-6.51422 2.17888,-0.172229 4.35776,-0.343562 6.77884,-0.343562 0,-9.60089 0,-19.2018 0,-28.6314 15.9815,0.172229 32.2042,0.343562 48.427,0.514894 1.69449,1.71422 3.38987,3.42844 5.32655,5.31489 -12.1063,0.171332 -24.2135,0.342665 -36.0776,0.513997 0,7.37178 0,14.7445 0,22.2876 11.1384,0 22.5181,0 33.8987,0 0,2.22912 0,4.45823 0,6.85778 -11.3806,0 -22.7603,0 -33.8987,0 0,5.48623 0,10.9725 0,16.63 11.1384,0 22.5181,0 33.8987,0 0,2.05778 0,4.11467 0,6.17245 -17.1915,0 -34.3831,0 -51.5746,0zm-338.983 -4.45733c0,-22.8025 0,-45.4327 0,-68.0638 12.1063,0 24.2126,0.171332 36.3189,0.342665 0.242198,35.6605 0.242198,35.6605 -0.483498,32.746 -0.726593,-0.68533 -1.45319,-1.37156 -1.93758,-1.88555 -9.20082,0 -8.95862,0.513997 -8.23203,7.02911 2.66328,0 5.56875,0 8.47423,0 0.484395,-0.686227 0.968791,-1.20022 1.69538,-1.71422 0.725696,1.20022 0.725696,1.20022 1.69449,31.0309 -12.5907,0.171332 -25.1814,0.343562 -37.5299,0.514894zm120.097 -0.686227c-20.3392,-7.20045 -15.4971,-22.1162 -15.0127,-36.1745 4.11646,-10.8011 14.2861,-13.7156 29.0556,-10.9725 16.465,9.77223 13.0751,32.746 3.14767,44.5751 -6.05315,1.71512 -10.6531,2.40045 -17.1907,2.57178zm5.81095 -63.9483c-32.2033,-5.82979 -36.0776,-14.7445 -36.0776,-36.1754 5.56875,-28.2887 48.9105,-27.0885 80.8716,-21.7736 23.2447,8.22934 20.8236,20.5733 20.097,37.3756 -8.23203,22.2876 -37.2886,20.2298 -64.891,20.5733zm87.8935 -1.20022c0,-19.5454 0,-38.9185 0,-58.2916 22.7603,0 46.7316,-1.71422 68.5231,3.772 12.3485,4.97133 13.0751,17.144 5.56875,25.0307 -15.254,7.02911 -33.8978,5.82889 -51.5737,6.17245 0,7.71444 0,15.4298 0,23.3165 -7.50633,0 -15.0118,0 -22.5181,0zm105.811 0c0,-7.71534 0,-15.2585 0,-22.8025 -5.81095,0 -11.3797,0 -16.9485,0 1.93668,-6.00022 9.44302,-6.00022 16.9485,-6.34378 0,-9.77223 0,-19.5445 0,-29.1453 21.7924,0.171332 43.5839,0.342665 65.6176,0.513997 4.84306,3.42934 4.84306,3.42934 7.02194,5.82979 -16.465,0 -32.9299,0 -49.3949,0 0,7.37178 0,14.7445 0,22.2876 15.4971,0 31.2354,0 46.9738,0 0,2.22912 0,4.45733 0,6.85778 -15.4962,0 -30.751,0 -46.005,0 0,5.48623 0,10.9725 0,16.63 15.254,0 30.5088,0 46.005,0 0,2.05778 0,4.11467 0,6.17245 -23.4869,0 -46.9738,0 -70.2185,0zm-186.44 -5.14356c-15.7384,-4.45733 -19.3704,-9.42956 -20.3392,-21.6022 8.23203,0 16.7072,0 25.1814,0 0,7.20045 0,14.4018 0,21.6022 -1.69449,0 -3.38987,0 -4.84216,0zm10.4109 0c0,-7.20045 0,-14.4018 0,-21.6022 8.23293,0 16.465,0 24.9401,0 -1.93758,12.8589 -6.05315,19.7167 -24.9401,21.6022zm92.7366 -24.0027c0,-7.71444 0,-15.2585 0,-22.8016 11.3806,0 20.3392,-0.514894 30.0244,3.77111 6.05315,9.94446 2.66328,15.088 -10.654,18.1738 -6.53754,0.171332 -13.0751,0.513997 -19.3704,0.856662zm-123.487 -1.71422c0.968791,-14.9158 4.35866,-19.3731 24.4548,-22.8025 0.242198,7.54401 0.484395,15.088 0.726593,22.8025 -8.47423,0 -16.9494,0 -25.1814,0zm30.7501 0c0,-7.54311 0,-14.9158 0,-22.2876 20.3392,1.02889 22.519,9.60089 24.9401,22.2876 -8.47512,0 -16.7072,0 -24.9401,0zm62.2278 -36.518c-17.9172,-2.91445 -30.0235,-5.48623 -37.7721,-17.658 -2.17888,-10.9725 -2.66328,-21.0882 3.63207,-31.2031 14.2852,-13.3729 42.1307,-11.4873 63.1956,-11.4873 6.29624,0.857559 12.8338,1.71512 19.3704,2.57178 -5.56875,4.62956 -5.56875,4.62956 -10.1687,7.20134 -13.5595,-4.11467 -40.6784,-7.03001 -50.6059,3.42844 -3.63207,9.42956 -2.66328,18.8591 -2.66328,28.8027 4.11646,12.1727 21.0658,11.3151 35.8354,12.0013 0,-6.00112 0,-11.83 0,-17.6589 -6.29534,0 -12.3485,0 -18.4016,0 0,-9.25823 37.0455,-6.34378 44.3096,-6.34378 0,9.0869 0,18.1738 0,27.4311 -15.7384,2.74311 -30.5088,2.74311 -46.7316,2.91445zm-93.7045 -1.19933c0,-19.374 0,-38.7471 0,-58.2916 7.99073,0 15.9806,0 24.2135,0 0,19.3731 0,38.7462 0,58.2916 -7.99073,0 -15.9806,0 -24.2135,0zm176.029 0c0,-7.71534 0,-15.2593 0,-22.8025 -6.53754,0 -13.0751,0 -19.3704,0 0.242198,-0.686227 0.726593,-1.37156 1.21099,-1.88555 0.484395,-0.172229 1.21009,-0.343562 1.93668,-0.343562 0,-0.513997 0,-0.856662 0,-1.20022 6.05315,-3.08578 8.23293,-3.08578 16.2228,-3.42844 0,-9.60089 0,-19.2018 0,-28.6314 7.99073,0 15.9806,0 24.2135,0 0,9.42956 0,19.0305 0,28.6314 16.2228,0 32.6877,0 49.1527,0 0,-9.60089 0,-19.2018 0,-28.6314 7.98983,0 15.9806,0 24.2126,0 0,19.3731 0,38.7462 0,58.2916 -8.23203,0 -16.2228,0 -24.2126,0 0,-7.71534 0,-15.2593 0,-22.8025 -16.465,0 -32.9299,0 -49.1527,0 0,7.54311 0,15.0871 0,22.8025 -8.23293,0 -16.2228,0 -24.2135,0zm-315.739 -64.4631c0,-0.343562 0,-0.514894 0,-0.686227 66.3442,-15.2585 132.688,-30.3456 199.274,-45.4327 1.69449,0 3.38987,0 5.08436,0 23.0025,4.97223 46.005,9.94356 69.0075,15.0871 0,-4.97223 0,-9.94356 0.242198,-14.7445 24.4557,0 48.9105,0 73.6075,0 -0.483498,10.4585 -0.725696,20.916 -0.967894,31.5458 19.1282,4.45733 38.2565,8.91556 57.3847,13.5442 0,0.171332 0,0.342665 0,0.686227 -134.625,0 -269.249,0 -403.632,0z"/>
 </g>
</svg>
