<?xml version="1.0" encoding="UTF-8"?>
<!DOCTYPE svg PUBLIC "-//W3C//DTD SVG 1.1//EN" "http://www.w3.org/Graphics/SVG/1.1/DTD/svg11.dtd">
<!-- Creator: CorelDRAW -->
<svg xmlns="http://www.w3.org/2000/svg" xml:space="preserve" width="5548in" height="7180in" style="shape-rendering:geometricPrecision; text-rendering:geometricPrecision; image-rendering:optimizeQuality; fill-rule:evenodd; clip-rule:evenodd"
viewBox="0 0 703.275 602.902"
 xmlns:xlink="http://www.w3.org/1999/xlink">
 <defs>
  <style type="text/css">
   <![CDATA[
    .fil0 {fill:black}
   ]]>
  </style>
 </defs>
 <g id="Layer_x0020_1">
  <metadata id="CorelCorpID_0Corel-Layer"/>
  <g id="_581002720">
   <path id="_581006200" class="fil0" d="M82.7388 8.6317l16.924 1.87991 203.081 -0.0996924 45.1334 -1.78022 223.769 0c-0.441495,-5.30862 0.0439121,-7.52203 -5.64093,-7.52203l-257.617 0c-34.7535,0 -84.6567,-3.30528 -115.104,1.48114 -19.0519,2.99433 -106.626,-8.63764 -110.545,6.04089z"/>
   <path id="_581006080" class="fil0" d="M86.4927 14.9764l0.00712089 6.81825c25.4916,5.93882 199.303,0 244.453,0 41.535,0 79.265,-1.8811 122.228,-1.8811 20.6838,0 41.3688,0 62.0538,0 10.0286,0 20.0572,-0.00237363 30.0869,0 13.3695,0.00474726 23.4764,4.10994 24.4424,-7.88757l-483.271 2.95042z"/>
   <path id="_581006104" class="fil0" d="M259.498 78.2063l9.40076 1.8811 0 82.7376c0,11.6949 -11.7566,17.1685 -7.52084,26.3259 7.45557,-1.99029 13.2864,-13.989 20.2589,-19.2288 10.1544,-7.62884 25.9153,-2.56471 28.6319,-12.7381 -6.05275,-0.503209 -11.283,-3.36581 -11.283,-9.40195l0 -58.2928c0,-12.5304 5.66704,-7.37724 11.283,-15.0429 -2.29411,-1.28888 -2.01165,-1.8811 -5.64212,-1.8811l-45.1286 0 0 5.64093z"/>
   <path id="_581006464" class="fil0" d="M317.791 106.413c0,41.2833 50.7707,57.405 50.7707,101.543l0 13.163c0,63.2762 -86.4998,50.226 -86.4998,9.40195l0 -13.163c0,-16.4967 13.1796,-31.968 30.0869,-31.968l1.8811 0c5.07838,0 5.18401,0.898419 9.40195,1.8811l0 5.64093c0,7.5968 4.09332,13.163 11.2819,13.163 7.59561,0 13.163,-4.09451 13.163,-11.2819 0,-12.1921 -18.9475,-22.5649 -31.9669,-22.5649l-5.64093 0c-21.4327,0 -43.2499,21.8172 -43.2499,43.2487l0 11.283c0,26.7081 29.0651,52.6518 56.4129,52.6518l9.40195 0c29.4259,0 69.5758,-31.9894 69.5758,-58.2928l0 -20.685c0,-45.0325 -54.5329,-68.2312 -54.5329,-101.543l0 -1.87991c0,-9.29513 7.63003,-16.924 16.924,-16.924l3.76102 0c20.418,0 15.1295,23.3363 26.3259,26.3259l0 -31.9669c0,-7.18972 0.576792,-0.684792 -3.22932,-6.13464l-4.29271 11.7756c-5.87592,-3.93548 -17.0391,-11.283 -26.3259,-11.283 -21.6095,0 -43.2487,16.0623 -43.2487,37.609z"/>
   <path id="_581005816" class="fil0" d="M146.672 174.108l0 54.5318c0,6.17025 -3.79306,7.05561 -9.40195,7.52203l0 5.64093 45.1298 0c7.18972,0 0.684792,0.577979 6.12752,-2.75104l-11.7685 -6.65091 0 -54.5318c-2.47807,-1.18919 -15.7989,-5.64093 -18.8039,-5.64093 -6.49188,0 -4.02568,1.12035 -11.283,1.87991z"/>
   <path id="_581006416" class="fil0" d="M137.271 46.2395c5.60889,0.467605 9.40195,1.35178 9.40195,7.52203l0 99.6616c0,8.22225 -26.3259,9.94788 -26.3259,22.5661 0,4.79117 4.06603,11.2819 9.40195,11.2819l3.76102 0c4.4019,0 7.52203,-3.12014 7.52203,-7.52203l0 -9.40195c5.88185,-0.488968 6.67939,-1.87991 13.163,-1.87991l5.64093 0c17.1839,0 48.8908,15.4689 48.8908,28.2058l0 33.848c0,10.6267 -6.26045,-0.483034 -9.40195,11.2819l45.1298 0c7.18972,0 0.684792,0.577979 5.64093,-1.87991 -4.68673,-6.39812 -11.2819,-2.77477 -11.2819,-11.283l0 -172.998c0,-6.62243 7.55526,-8.07509 11.2819,-13.163 -2.29411,-1.28769 -2.01165,-1.87991 -5.64093,-1.87991l-39.4889 0c-5.20181,0 -4.52176,1.45029 -5.5448,5.25759l9.30581 2.26444 0.354858 127.173 -31.4363 -16.0802 -0.885364 1.73156 0 -107.184c0,-7.44964 6.16313,-4.29627 11.2819,-11.283 -2.29293,-1.28769 -2.01046,-1.87991 -5.64093,-1.87991l-45.1298 0 0 5.64093z"/>
   <polygon id="_581006128" class="fil0" points="90.2608,262.488 265.139,262.488 265.139,254.966 90.2608,254.966 "/>
   <path id="_581006008" class="fil0" d="M413.692 228.64l0 28.207c0,6.83131 2.23002,6.59513 3.76102,13.1618 27.3086,-0.607649 48.7116,-44.5946 54.5318,-69.5746 -2.19442,-4.14673 -1.64018,-7.52203 -7.52203,-7.52203l-1.87991 0c-9.91821,0 -11.5892,6.97372 -20.685,9.40195l0 -15.0429c0,-8.92247 -2.10541,-13.5819 -3.89513,-20.3337l-5.50682 -2.23121c-13.3968,8.97113 -18.8039,41.1967 -18.8039,63.9337z"/>
   <path id="_581006344" class="fil0" d="M314.03 326.421l0 1.87991c0,14.7343 13.6769,30.0881 30.0858,30.0881 13.1808,0 29.1066,-5.14484 30.0869,-16.924 -7.57781,1.76479 -9.39601,5.64093 -16.924,5.64093l-3.76102 0c-13.9261,0 -18.8039,-12.0687 -18.8039,-26.3259l0 -5.64093c0,-6.98322 4.18708,-20.685 9.40195,-20.685 11.4634,0 15.2743,8.48216 26.3259,9.40195 0.982683,-4.21675 1.8811,-4.32357 1.8811,-9.40195l0 -5.64093c-7.11377,-0.592221 -12.5541,-3.76102 -18.8051,-3.76102 -24.0081,0 -39.4877,17.1696 -39.4877,41.3688z"/>
   <path id="_581005552" class="fil0" d="M204.965 298.216l-0.179209 -12.2147 -30.0608 5.77623 -0.447429 2.08405 11.8836 4.35442 0 47.0097c0,10.6279 -6.26045,-0.483034 -9.40195,11.283l41.3688 0c-3.53433,-9.76274 -13.163,-2.41042 -13.163,-13.163l0 -31.9669c0,-6.27232 9.19781,-11.283 15.0429,-11.283 11.6237,0 4.96207,8.40739 16.924,9.40313l0 -22.5661c-4.21675,-0.982683 -4.32357,-1.87991 -9.40195,-1.87991l-1.87991 0c-12.3512,0 -12.0272,10.0286 -20.685,13.163z"/>
   <path id="_581005360" class="fil0" d="M584.809 128.978c3.34326,-3.34326 -3.34326,3.34326 0,0zm-31.9669 -73.3368l0 3.76102c0,15.9983 4.84932,29.8816 11.283,39.4889 -4.24524,-1.13341 -20.3408,-11.0754 -26.9549,-14.4151 -9.5052,-4.79829 -23.0242,-7.53865 -30.1107,-11.2581 -4.24286,-2.22765 -12.8045,-13.322 -23.1726,-18.1962 -8.31245,-3.90818 -21.4612,-8.78243 -32.5876,-8.78243l-15.0429 0c-5.84625,0 -18.8039,3.13082 -18.8039,7.52203 0,18.7196 28.9974,39.4889 48.8908,39.4889l7.52084 0c12.6087,0 24.2122,-7.96946 31.9669,-13.163 27.2979,6.35895 65.8848,29.3381 78.9778,48.8908 -11.6094,-2.70475 -22.0653,-9.40195 -37.6078,-9.40195l-3.76102 0c-18.233,0 -62.0538,12.5363 -62.0538,24.4448l0 1.8811c0,19.9254 36.0115,31.9669 58.2928,31.9669 32.6054,0 46.6608,-9.739 65.8148,-22.5649 17.0723,32.2647 20.685,45.2663 20.685,94.0206 -5.72045,-9.01504 -6.77196,-18.3766 -15.3491,-29.7819 -5.1484,-6.84792 -17.0818,-19.1089 -27.9008,-19.1089l-7.52203 0c-0.583913,2.2051 -1.87991,5.12585 -1.87991,5.64093 0,31.1207 15.6019,65.8148 43.2487,65.8148l5.64212 0c-4.41258,18.9404 -26.4173,62.2828 -41.37,67.6947 4.69148,-8.86432 7.52203,-20.2815 7.52203,-33.8468 0,-12.9576 -5.27776,-22.9269 -13.163,-28.207 -12.9387,6.84673 -28.2058,25.9912 -28.2058,45.1298l0 7.52203c0,11.2166 4.15622,20.1604 13.163,22.5649 -2.30717,8.64001 -32.9733,21.8742 -39.4889,18.8039 -0.467605,-1.05627 13.163,-38.0398 13.163,-52.6507l0 -28.207c0,-8.42045 -2.63592,-21.2179 -1.64493,-25.9972 1.61644,-7.80093 7.28586,-7.3179 7.28586,-21.0137l0 -13.1618c0,-17.7536 -25.3515,-39.4889 -45.1298,-39.4889l-5.64093 0 0 18.8039c0,21.7852 18.7422,54.3359 36.5586,58.269l1.04914 50.7957c-8.85008,-12.7369 -15.9733,-45.131 -41.3688,-45.131l-5.64093 0 0 20.685c0,24.1268 19.7569,39.4889 46.7023,40.093l-16.6107 39.6717 -229.143 1.31974 -4.03398 5.41425c15.9662,7.66089 325.188,1.8811 376.06,1.86686l3.79306 -8.85245 -114.714 -0.535253c7.31434,-5.08313 17.0973,-8.74682 24.5065,-13.1012 9.91584,-5.82607 14.4922,-11.6201 22.5032,-16.9857 9.11711,0.758375 11.7874,3.76102 22.5649,3.76102l5.64093 0c23.7161,0 77.0979,-30.259 77.0979,-45.1298 0,-7.09122 -14.6975,-11.283 -22.5649,-11.283l-16.924 0c-16.0303,0 -25.2625,10.3692 -35.5356,13.2235l12.9707 -45.1903c40.6721,19.516 71.4557,-43.5751 71.4557,-78.9778l0 -16.924c0,-4.99293 -1.49539,-15.0429 -5.64212,-15.0429 -12.7072,0 -33.823,18.8822 -40.2449,27.4498 -6.067,8.09645 -8.62696,10.5876 -13.9249,19.9219 -4.30102,7.58137 -6.39812,18.0491 -10.0108,23.658l-12.9149 -48.4648c12.9565,-3.45956 22.5637,-38.2214 22.5637,-56.4117 0,-8.92247 -2.10541,-13.5831 -3.76102,-20.685 -19.3,0.429627 -30.0858,31.6049 -30.3647,54.7537l-24.2941 -30.3255 2.00809 -18.7873 0 -7.52084c0,-22.2041 -11.5964,-49.6896 -24.446,-58.2928 -5.72519,4.1942 -9.40195,12.8129 -9.40195,22.5637z"/>
   <path id="_581005696" class="fil0" d="M116.586 360.269l28.207 0c4.40071,0 7.52084,3.12014 7.52084,7.52203 0,11.2071 -7.58849,15.0429 -18.8039,15.0429l-3.76102 0c-16.2427,0 -14.0626,-11.7412 -13.163,-22.5649zm5.64212 -60.1739c0,-4.40071 3.11895,-7.52084 7.52084,-7.52084l7.52203 0c2.13152,7.98133 3.76102,3.28866 3.76102,9.40195l0 11.2819c0,6.33759 -3.32308,13.163 -9.40195,13.163l-1.8811 0c-5.78097,0 -7.52084,-5.50801 -7.52084,-11.2819l0 -15.0441zm-77.0979 -110.945c-7.30128,-10.5081 -11.3816,-33.8468 -28.2058,-33.8468l-5.64093 0 0 22.5649c0,12.7191 13.792,41.3688 24.4448,41.3688l5.64093 0c0.494902,22.2219 5.77029,50.4052 13.163,65.8148 -12.6455,-3.37649 -27.089,-20.685 -47.0097,-20.685l-7.52203 0c2.1066,25.3148 29.6098,60.1739 56.4129,60.1739l7.52203 0c8.13205,0 7.57781,-3.76102 13.1618,-3.76102 2.04963,0 13.7813,12.9968 22.5661,15.0441l0 5.64093c0,10.6267 6.93337,10.9875 11.2819,16.924 -5.51631,2.64541 -15.0429,4.33425 -15.0429,13.1618 0,12.8805 13.7065,18.8051 26.3259,18.8051l11.2819 0c16.1798,0 35.7279,-9.35447 35.7279,-24.446l0 -3.76102c0,-21.5383 -27.197,-18.8039 -48.6179,-19.0306l-3.93073 -5.37508 1.77785 -5.68009 7.52084 0c13.919,0 35.7279,-1.8811 35.7279,-20.685 0,-8.99368 -2.12915,-11.6794 -5.60651,-17.1495l16.8896 2.10541 0 -9.40195 -13.163 0c-22.2623,0 -58.2928,-6.17144 -58.2928,20.685l0 3.76102c0,8.99843 5.99223,15.0096 13.163,16.9228 -1.40638,1.91908 -4.6357,5.64212 -7.52203,5.64212 -21.1763,0 -44.8509,-43.7009 -52.259,-62.7398 -3.95209,-10.1556 2.82106,-4.47429 12.8057,-10.5615 5.67179,-3.45838 9.87311,-8.31482 13.9296,-14.2762 5.99579,-8.81091 14.2418,-30.1047 14.2418,-44.0522l0 -13.163c0,-4.99293 -1.49539,-15.0429 -5.64093,-15.0429 -19.4151,0 -37.1817,42.5639 -44.4521,46.7961l14.3652 -71.2409c4.21675,0.981496 4.32238,1.87991 9.40195,1.87991l9.40195 0c15.1129,0 30.0858,-36.1729 30.0858,-54.5318l0 -20.685c0,-5.07838 -0.897232,-5.18519 -1.87991,-9.40195 -22.3145,0 -49.5234,26.8612 -53.8304,45.8348 -4.34849,19.1469 3.31833,27.8142 1.50013,35.2757 -3.01451,12.3702 -9.41025,27.0368 -9.72357,41.116z"/>
   <path id="_581005144" class="fil0" d="M259.498 335.825c0,-14.3533 14.4566,-12.4722 20.6838,-15.0441l0 22.5649c-3.39429,2.27275 -3.30647,3.76102 -7.52203,3.76102l-5.64093 0c-5.78097,0 -7.52084,-5.50919 -7.52084,-11.2819zm-15.0441 -45.131l1.87991 15.0441c9.68559,-2.25732 15.8986,-11.283 26.3259,-11.283l1.8811 0c4.33187,0 5.64093,1.30787 5.64093,5.64093l0 15.0441 -7.52203 0c-41.3308,0 -40.8727,43.2499 -15.0429,43.2499 12.7298,0 15.4227,-4.62027 22.5649,-9.40313 3.0869,5.83438 4.10401,9.40313 13.163,9.40313 9.5052,0 9.98823,-3.02756 18.8039,-3.7622l-0.122242 -6.60225 -13.0407 -2.7997 0 -45.1298c-6.43491,-9.60964 -11.9856,-15.0429 -28.2058,-15.0429 -11.4599,0 -17.2029,3.51534 -26.3259,5.64093z"/>
   <path id="_581005288" class="fil0" d="M398.649 313.259c0.672924,-8.08933 5.20893,-20.6838 13.1618,-20.6838l1.8811 0c8.67324,0 9.40195,11.5275 9.40195,20.6838l-24.4448 0zm-20.685 11.283c0,17.9529 13.8264,33.848 31.9669,33.848l5.64093 0c11.6225,0 27.305,-6.08955 28.207,-16.924 -8.10832,1.88822 -10.3016,5.64093 -20.685,5.64093l-5.64093 0c-13.1903,0 -18.8039,-12.7274 -18.8039,-26.3259l39.4877 0c4.33306,0 5.64212,-1.30787 5.64212,-5.64093l0 -3.76102c0,-14.6287 -14.6619,-26.3259 -30.0869,-26.3259 -21.1538,0 -35.7279,17.8343 -35.7279,39.4889z"/>
   <path id="_581005624" class="fil0" d="M65.8148 380.953c0,4.38528 5.01667,9.40313 9.40195,9.40313l1.87991 0c9.02454,0 9.14085,-4.77574 13.1641,-9.40313 -2.52435,-5.25759 -3.62453,-13.1618 -11.283,-13.1618 -8.77887,0 -13.163,4.38409 -13.163,13.1618z"/>
   <path id="_581005096" class="fil0" d="M289.593 388.91c1.00761,11.7874 23.2355,7.08766 37.5983,7.08766 15.0441,0 30.0869,0 45.131,0 31.11,0 59.7134,-1.88347 88.3797,-1.87991 24.1137,0.00118681 170.359,4.97394 176.758,-3.76102 -2.20154,-3.16998 -0.269407,-3.76102 -5.64093,-3.76102l-220.019 -0.462858 -122.207 2.77715z"/>
   <path id="_581005384" class="fil0" d="M105.304 427.964c0,23.1488 39.4889,16.975 39.4889,31.9669 0,4.38528 -5.01785,9.40313 -9.40313,9.40313 -25.4726,0 -18.5143,-15.6588 -30.0858,-16.924l0 20.6838c7.1019,1.65442 11.7625,3.76102 20.6838,3.76102l11.283 0c12.5731,0 24.4448,-10.8641 24.4448,-24.4448 0,-13.8074 -25.7919,-21.6926 -37.6078,-24.446l0 -9.40195c0,-4.33306 1.30787,-5.64093 5.64093,-5.64093l5.64093 0c19.6679,0 8.68036,13.8881 22.5661,15.0429l0 -16.924c0,-11.2605 -52.6518,-12.5779 -52.6518,16.924z"/>
   <path id="_581005600" class="fil0" d="M58.2928 414.801c8.00863,0.665803 11.283,2.73917 11.283,11.283l0 28.2058c0,21.9311 -8.15579,8.97588 -11.283,20.685l39.4889 0c-3.1415,-11.7661 -9.40195,-0.655122 -9.40195,-11.283l0 -58.2928c-9.70221,0 -27.9542,1.41587 -30.0869,9.40195z"/>
   <path id="_581004976" class="fil0" d="M189.922 486.257l-1.8811 15.0441 -5.64093 0 0 3.75983 47.0109 0c8.60085,0 6.53104,-28.2058 -1.8811,-28.2058 -5.2742,0 -4.5811,2.25851 -8.37654,6.60581l8.99962 7.97658 1.25802 -1.41943c-0.624264,7.49711 -3.59011,9.40195 -11.283,9.40195l-1.87991 0c-8.75394,0 -6.65922,-19.7189 -7.58493,-29.6098l-18.741 -2.35701 0 18.8039z"/>
   <path id="_581005048" class="fil0" d="M165.476 420.442c0,20.0144 15.1711,43.2499 33.848,43.2499l11.2819 0c11.0884,0 18.5428,-7.01882 18.6187,-19.3522l-20.4987 6.18924 0 -28.2058c0,-5.77385 1.74106,-11.283 7.52203,-11.283l1.87991 0c8.55931,0 8.10476,11.105 13.144,16.924l0.018989 -22.5649 -48.8908 0c2.73561,7.55645 7.13394,4.57873 7.60867,18.7327 0.391649,11.7257 -0.85332,13.4324 -0.0866375,22.6361 -10.3205,-2.4033 -15.0429,-14.0471 -15.0429,-26.3259 0,-23.2402 15.6422,-41.1469 36.097,-42.9128 19.5397,-1.68765 40.9985,23.1037 40.9985,39.153l0 78.9778c0,5.68366 -2.21222,5.19825 -7.52084,5.64093l0 3.75983 23.3862 -0.966067 -6.175 -4.69029 -1.21886 -30.0905 -0.948265 -26.3057 3.75983 0c0.339429,15.2078 13.163,40.4526 13.163,52.6518 0,5.07838 -0.897232,5.18401 -1.87991,9.40076l31.9669 0c-3.04418,-8.40858 -5.64093,-1.44079 -5.64093,-9.40076l0 -80.8589c0,-7.95997 2.59675,-0.993364 5.64093,-9.40195l-16.924 0c-5.29557,0 -3.48211,0.812968 -5.23504,3.11064l7.11614 4.41139 0 56.4129c-16.1882,-18.6247 -11.4551,-101.543 -67.6959,-101.543l-11.2819 0c-26.0826,0 -47.0109,25.0857 -47.0109,52.6507z"/>
   <path id="_581004832" class="fil0" d="M549.081 495.66c0,5.68366 -2.21341,5.19825 -7.52084,5.64093l0 3.75983 30.0858 0c5.29557,0 3.48211,-0.812968 5.53412,-3.35038l-7.41403 -2.29055 0 -28.2058c-3.69455,-1.95468 -5.54598,-3.76102 -11.283,-3.76102l-9.40195 0 0 28.207z"/>
   <path id="_581004544" class="fil0" d="M466.343 446.768l0 16.924c0,18.9724 5.95425,41.3688 24.4448,41.3688l11.283 0c4.21557,0 4.12774,-1.48827 7.52203,-3.75983 2.38668,1.59864 8.1463,7.52084 9.40195,7.52084 4.21557,0 4.12774,-1.48827 6.9132,-3.73491l-1.27227 -22.591c-0.341803,-8.14155 0.967254,-15.1734 7.52084,-16.924l0 5.64212c0,3.07741 1.12629,5.64093 3.76102,5.64093 5.07957,0 5.18519,-0.898419 9.40313,-1.87991l0 -9.40313c4.21675,-0.981496 4.32238,-1.87991 9.40076,-1.87991 15.8345,0 37.609,9.7485 37.609,24.4448l0 7.52322c0,5.68366 -2.21341,5.19825 -7.52203,5.64093l0 3.75983 34.6692 -0.966067 -6.2913 -4.67605 -0.170901 -80.8565 0.939957 -6.58207 4.70097 -6.58089 -33.848 0c2.74866,7.59087 7.52203,3.8168 7.52203,11.283l-0.45099 51.6692 -22.1139 -10.3004 0 -41.3688c0,-6.53579 3.33376,-2.64304 5.64093,-11.283l-28.2058 0c-5.29557,0 -3.48211,0.812968 -5.56853,3.53077l7.44845 2.11016 0 41.37c0,5.5448 -9.71883,7.71667 -15.0429,11.2819 -2.65609,-1.31736 -3.12251,-1.87991 -7.52203,-1.87991l-24.4448 0c-5.07838,0 -5.18519,0.897232 -9.40195,1.87991 0.219561,9.88498 1.39807,11.0623 11.0516,11.2095l2.11016 -7.44845 3.7622 0c1.20699,5.04278 1.87991,3.54502 1.87991,7.52203 0,7.8935 -3.57825,22.5649 -11.283,22.5649l-1.87991 0c-9.66186,0 -11.283,-17.7809 -11.283,-28.2058l0 -37.609c0,-7.75702 6.67583,-20.685 15.0441,-20.685 9.70102,0 11.7234,13.7659 15.0429,20.685 2.92668,-1.96062 5.64093,-2.4935 5.64093,-7.52203l0 -7.52084c0,-6.48357 -1.38976,-7.28229 -3.07266,-13.6769l-2.56827 8.03474c-13.1547,-3.51178 -20.6328,-12.82 -36.5966,-2.75341 -10.2921,6.49069 -14.1741,22.5946 -14.1741,38.4813z"/>
   <path id="_581004208" class="fil0" d="M334.714 448.649c0,-22.3062 3.74796,-23.474 7.52203,-37.609 16.1893,0 18.8039,10.3668 18.8039,26.3259l0 30.0869c0,18.4514 -0.53644,27.1662 -13.163,33.848 -11.9382,-6.31741 -13.163,-17.8414 -13.163,-35.7291l0 -16.9228zm-20.6838 1.87991l0 13.163c0,19.2786 9.55623,43.2499 28.2058,43.2499l9.40195 0c20.4512,0 30.0869,-20.8844 30.0869,-41.37l0 -16.9228c0,-23.5393 -8.52964,-45.131 -31.9669,-45.131l-3.76102 0c-23.7434,0 -31.9669,23.1809 -31.9669,47.0109z"/>
   <path id="_581004424" class="fil0" d="M389.246 409.16l7.52203 3.76102c0,40.9546 -11.5275,94.0206 28.207,94.0206 35.1831,0 24.4448,-59.5425 24.4591,-93.9981l7.50779 -3.78357c-2.20273,-3.16998 -0.270594,-3.76102 -5.64212,-3.76102l-17.9458 1.18088 8.83821 6.35183 -1.31024 74.5237 -14.027 8.20445c-5.83319,-3.0869 -9.40195,-4.10519 -9.40195,-13.1641l0.939957 -70.5158 4.70097 -6.58089 -28.2058 0c-3.40022,0 -5.16027,0.942331 -5.64212,3.76102z"/>
   <path id="_581004520" class="fil0" d="M218.128 525.746c1.11917,4.19064 0.439121,5.64093 5.64093,5.64093l415.571 0c5.29557,0 3.48211,-0.812968 5.64212,-3.75983 -2.20273,-3.16998 -0.269407,-3.76102 -5.64212,-3.76102l-411.81 0c-2.96229,0 -7.12564,0.995737 -9.40195,1.87991z"/>
   <path id="_581004496" class="fil0" d="M338.475 546.431c0,3.42515 2.86497,3.01926 5.64093,3.76102l0 -7.52203c-2.82106,0.675298 -5.64093,0.413011 -5.64093,3.76102z"/>
   <path id="_581004904" class="fil0" d="M430.616 550.192l5.64093 0c-0.61121,-7.35113 1.13816,-5.71214 -5.64093,-7.52203l0 7.52203z"/>
   <path id="_581004280" class="fil0" d="M314.126 556.216l3.66488 1.49657 0 11.283c0,5.07838 -0.898419,5.18519 -1.8811,9.40195l11.2819 0 0 -3.76102 -3.75983 0 0 -9.40195c0,-7.36181 3.24119,-4.27372 9.40195,-3.76102l-0.26466 -8.01575 -9.13729 4.25473 -0.0178022 -3.82748 -9.28801 2.3309z"/>
   <path id="_581004472" class="fil0" d="M588.57 561.474l7.52203 0c-0.303825,-3.64827 0.0890111,-7.52084 -3.76102,-7.52084 -3.55095,0 -3.76102,3.71948 -3.76102,7.52084z"/>
   <path id="_581004328" class="fil0" d="M161.715 578.398c18.468,0 40.9404,-38.4243 45.131,-56.4129 -1.96062,-2.92668 -2.4935,-5.64093 -7.52203,-5.64093 -8.58898,0 -15.0987,7.54221 -20.685,11.283l-6.44084 -17.4379c-13.2235,6.93931 -16.1241,27.3822 -16.1241,45.6437l0 7.52203c0,4.99293 1.49539,15.0429 5.64093,15.0429z"/>
   <path id="_581003536" class="fil0" d="M225.65 572.756c5.3466,-7.9837 13.163,-6.25926 13.163,-18.8027l0 -5.64212c-4.21794,-0.982683 -4.32357,-1.87991 -9.40195,-1.87991l-1.8811 0c-8.17359,0 -9.21918,1.20462 -9.40195,9.40195l5.64093 0 0 -5.64093c4.14554,0.0913847 9.40313,-0.574418 9.40313,3.76102 0,11.1928 -14.0009,11.9085 -15.0441,24.4448 11.4207,-0.950639 22.254,4.58941 22.5649,-9.40195l-3.76102 0 0 3.75983 -11.2819 0z"/>
   <path id="_581003464" class="fil0" d="M267.019 552.072c2.01402,-1.20699 6.4895,-3.76102 9.40195,-3.76102 3.05723,0 4.38409,5.14484 5.64093,7.52203l1.90721 0.0901979 0.448616 -9.46959 -11.7578 -0.0225495c-8.77768,0 -13.1618,4.38409 -13.1618,13.163l0 3.76102c0,9.09575 5.94594,15.0429 15.0429,15.0429l3.75983 0c6.25451,0 5.50801,-3.37649 5.64212,-9.40195l-3.76102 0 0 5.64093 -5.64093 0c-7.24076,0 -7.039,-6.35777 -9.40195,-11.2819l1.87991 -11.283z"/>
   <path id="_581003440" class="fil0" d="M304.627 568.996c0,4.33187 -1.30787,5.64093 -5.64093,5.64093 -2.63473,0 -3.76102,-2.56352 -3.76102,-5.64093l0 -5.64093c0,-4.33306 1.30906,-5.64212 5.64212,-5.64212 2.63473,0 3.75983,2.56352 3.75983,5.64212l0 5.64093zm-16.9228 -1.8811c0,7.18854 5.56735,11.283 13.163,11.283 7.18854,0 11.2819,-5.56735 11.2819,-13.163 0,-7.18854 -5.56735,-11.2819 -13.163,-11.2819 -7.18854,0 -11.2819,5.56616 -11.2819,13.1618z"/>
   <path id="_581004184" class="fil0" d="M344.116 574.637l0 -20.6838 -7.52203 1.87991c0.662243,1.48114 1.8811,7.00102 1.8811,9.40195l0 3.76102c0,5.07838 -0.897232,5.18519 -1.8811,9.40195l5.64212 0c5.37152,0 3.4382,-0.591034 5.64093,-3.76102l-3.76102 0z"/>
   <path id="_581003656" class="fil0" d="M368.521 554.055l-11.1869 1.00523 -4.22387 0.8011 -0.443869 22.5566 8.37298 -0.0201758c-0.488968,-5.88185 -1.87991,-6.68058 -1.87991,-13.163l0 -1.87991c0,-3.0786 1.1251,-5.64212 3.75983,-5.64212 2.28937,0 5.64212,3.88919 5.64212,7.52203l0 3.76102c0,5.07838 -0.898419,5.18519 -1.8811,9.40195l9.40313 0c-0.983869,-4.21675 -1.8811,-4.32357 -1.8811,-9.40195l0 -13.163 -5.68128 -1.77785z"/>
   <path id="_581003512" class="fil0" d="M389.246 568.996l0 -11.283 5.64212 0c-3.32308,-10.0215 -4.44699,4.95851 -5.64212,-9.40195l-2.94805 0.613583 -6.56546 8.7041 3.87258 0.0842638 0 15.0429c0,4.33306 1.30906,5.64212 5.64093,5.64212l1.8811 0c5.37152,0 3.4382,-0.591034 5.64093,-3.76102 -5.30862,-0.441495 -7.52203,0.0439121 -7.52203,-5.64093z"/>
   <path id="_581004160" class="fil0" d="M415.798 553.68l-9.53131 2.53622 -0.0973188 -13.5463 -9.40195 1.87991c2.27275,3.39429 3.76102,3.30528 3.76102,7.52203l0 16.924c0,5.07838 -0.898419,5.18519 -1.87991,9.40195l9.40195 0c-0.982683,-4.21675 -1.8811,-4.32357 -1.8811,-9.40195l0 -5.64093c0,-8.89636 9.40195,-4.50277 9.40195,1.87991l0 3.76102c0,4.21557 -1.48827,4.12774 -3.76102,7.52203 4.95732,2.45671 -1.54761,1.87991 5.64212,1.87991l5.64093 0 -2.34277 -20.6458 -4.95258 -4.07196z"/>
   <path id="_581003560" class="fil0" d="M438.136 578.398c-0.981496,-4.21675 -1.87991,-4.32357 -1.87991,-9.40195l0 -15.0429c-12.8354,1.06695 -5.64093,4.18946 -5.64093,15.0429l0 5.64093 -3.76102 0c2.15882,2.94805 0.34655,3.76102 5.64093,3.76102l5.64093 0z"/>
   <path id="_581003848" class="fil0" d="M456.941 567.115l-1.55117 7.60867 -5.97086 -1.96774c0.15666,-5.68247 2.09591,-5.18875 7.52203,-5.64093zm-9.40313 11.283c5.76911,-1.34466 2.11728,-1.20343 7.52203,-1.87991l7.76058 0.0272967 -0.23855 -1.9084 0 -13.163c0,-4.4019 -3.12014,-7.52084 -7.52203,-7.52084 -7.6241,0 -9.73781,1.73987 -10.9507,8.3623l12.6787 -4.98937 0.153099 6.02902c-6.79333,0.564924 -15.0441,2.23596 -15.0441,9.40076 0,2.58132 3.92361,4.49209 5.64093,5.64212z"/>
   <path id="_581003608" class="fil0" d="M488.908 578.398c9.8565,0 2.45789,-24.8709 -1.8811,-24.4448l-18.8039 1.87991c7.67513,14.5041 -3.97939,22.5649 5.64093,22.5649l5.64212 0c-0.982683,-4.21675 -1.8811,-4.32357 -1.8811,-9.40195l0 -5.64093c0,-6.96067 2.91007,-4.73776 7.52203,-3.76102l0 11.2819c0,4.59416 -4.16928,7.52203 3.76102,7.52203z"/>
   <path id="_581003800" class="fil0" d="M515.234 570.876c0,-7.54814 -6.01122,-3.19965 -11.283,-13.163l7.52203 0 0 3.76102 3.76102 0c-0.442682,-5.30862 0.0427253,-7.52084 -5.64093,-7.52084l-3.7622 0c-6.69601,0 -7.36893,4.45886 -7.52084,11.2819l12.3987 7.94691 -8.63764 1.45503 -3.1593 -5.97799c-0.467605,6.36251 -1.21411,9.739 5.03921,9.739 5.77385,0 11.283,-1.74106 11.283,-7.52203z"/>
   <path id="_581002672" class="fil0" d="M552.842 574.637c-4.19064,-1.11917 -5.64093,-0.439121 -5.64093,-5.64093l0 -22.5649 -13.4881 3.50704 7.59324 1.51912 0.253978 23.1797 -5.64212 0c2.16,2.94805 0.34655,3.76102 5.64212,3.76102l5.64093 0c5.37152,0 3.43939,-0.591034 5.64093,-3.76102z"/>
   <path id="_581003176" class="fil0" d="M567.886 572.756c4.48023,-6.69126 15.0429,-9.31412 15.0429,-18.8027 0,-0.516264 -1.296,-3.43583 -1.8811,-5.64212 -4.21675,-0.982683 -4.32357,-1.87991 -9.40195,-1.87991l-3.75983 0c-5.44273,0 -10.5971,4.39359 -2.56827,9.91584l3.31952 -7.71192 6.69719 1.78734c0.0723957,23.5167 -13.6709,12.3595 -14.9705,27.9756l7.52203 0 15.0773 -1.52624 -0.0344176 -7.8757 -5.41544 4.0328 -9.62744 -0.272967z"/>
   <path id="_581003248" class="fil0" d="M596.092 570.876l-7.52203 0c0.462858,3.60792 -0.225495,7.52203 3.76102,7.52203 3.85003,0 3.45719,-3.87376 3.76102,-7.52203z"/>
   <path id="_581003392" class="fil0" d="M618.657 555.833c0,4.59416 4.17047,7.52203 -3.76102,7.52203 -4.33306,0 -5.64093,-1.30906 -5.64093,-5.64212l0 -3.75983c0,-7.63122 4.60959,-4.87781 9.40195,-3.76102l0 5.64093zm7.52203 5.64093l0 -1.87991c0,-6.33759 -3.32308,-13.163 -9.40313,-13.163l-5.64093 0c-5.33592,0 -9.40195,6.49069 -9.40195,11.2819 0,1.44435 4.67605,7.95997 5.64093,9.40195l11.3768 -1.24259 1.40519 1.39095 -14.8067 10.9389c12.0106,-0.0688352 20.8298,-4.80304 20.8298,-16.7282z"/>
   <path id="_581003200" class="fil0" d="M73.3368 493.779c0,24.8222 45.9594,88.3797 65.8136,88.3797 8.13917,0 14.0258,-89.0372 -13.163,-103.423 -8.11306,4.29271 -10.3466,11.3281 -11.2819,22.5649 -10.2458,-6.86098 -17.5008,-20.685 -33.848,-20.685 -4.40071,0 -7.52084,3.12014 -7.52084,7.52084l0 5.64212z"/>
   <path id="_581002840" class="fil0" d="M88.3797 600.963c4.95614,2.45789 -1.54879,1.87991 5.64093,1.87991l549.081 0 0 -5.64093 -513.35 -2.34871 -18.8075 0.468792c-8.96876,0 -18.7173,0.388088 -22.5649,5.64093z"/>
  </g>
 </g>
</svg>
