<?xml version="1.0" encoding="UTF-8"?>
<!DOCTYPE svg PUBLIC "-//W3C//DTD SVG 1.1//EN" "http://www.w3.org/Graphics/SVG/1.1/DTD/svg11.dtd">
<!-- Creator: CorelDRAW -->
<svg xmlns="http://www.w3.org/2000/svg" xml:space="preserve" width="5548in" height="7180in" style="shape-rendering:geometricPrecision; text-rendering:geometricPrecision; image-rendering:optimizeQuality; fill-rule:evenodd; clip-rule:evenodd"
viewBox="0 0 36.1024 18.0512"
 xmlns:xlink="http://www.w3.org/1999/xlink">
 <defs>
  <style type="text/css">
   <![CDATA[
    .fil0 {fill:black}
   ]]>
  </style>
 </defs>
 <g id="Guía">
  <metadata id="CorelCorpID_0Corel-Layer"/>
  <g id="_328473112">
   <path id="_328473160" class="fil0" d="M4.80879 0.347165l0 0.636411c0,0.426264 0.510052,-0.0791693 0.510052,0.347094l0 2.60356c0,0.426335 -0.510052,-0.0791693 -0.510052,0.347165l0 0.578562c0,0.133252 0.0253711,0.173547 0.109302,0.173547l2.22221 0c0.0840019,0 0.109302,-0.0402953 0.109302,-0.173547l0 -0.462863c0,-0.156278 -0.0174116,-0.159547 -0.0363866,-0.289316 -0.170207,0 -0.54651,0.109089 -0.54651,-0.173547l0 -0.636411c0,-0.133323 0.0253711,-0.173547 0.109302,-0.173547l1.53009 0c0.0852811,0 0.145689,0.0959413 0.145689,0.231396l0 0.520712c0,0.129698 -0.0287824,0.126998 -0.0728443,0.231396 -0.170207,0 -0.546439,-0.109018 -0.546439,0.173618l0 0.578562c0,0.133252 0.0253711,0.173547 0.109302,0.173547l2.22221 0c0.0839309,0 0.109302,-0.0402953 0.109302,-0.173547l0 -0.578562c0,-0.461087 -0.521565,0.14512 -0.549921,-0.399471 -0.0182644,-0.350861 0.00348231,-0.90398 0.00348231,-1.27836 0,-0.44666 -0.00142135,-0.825237 -0.0250158,-1.24418 -0.0280006,-0.497615 0.571455,0.0761134 0.571455,-0.375806l0 -0.520712c0,-0.156278 -0.0174116,-0.159547 -0.0363866,-0.289316l-2.36797 0c-0.0190461,0.129769 -0.0364577,0.133039 -0.0364577,0.289316l0 0.520712c0,0.268138 0.423847,0.15912 0.619283,0.231396l-0.0072489 0.740596 -0.0656665 0.117759 -1.6757 0.0673721c-0.0553617,-0.166085 -0.120602,-0.983576 0.0728443,-0.983576l0.437208 0 0 -0.809958c0,-0.133323 -0.0253711,-0.173618 -0.109302,-0.173618l-2.18583 0c-0.0839309,0 -0.109302,0.0402953 -0.109302,0.173618z"/>
   <path id="_328473016" class="fil0" d="M28.6706 2.42994c0,-0.270697 0.208512,-1.09927 0.327835,-1.09927 0.109018,0 0.415603,0.907178 0.473595,1.09927l-0.80143 0zm-1.23864 -2.02493l0 0.578562c0,0.342759 0.51922,0.0718494 0.729722,0.232391l-1.02117 2.89181c-0.709042,0 -0.619283,-0.221873 -0.619283,0.867878 0.0816567,0.0302037 0.0837177,0.057849 0.182146,0.057849l1.74862 0c0.0839309,0 0.109302,-0.0402953 0.109302,-0.173547l0 -0.578562c0,-0.426335 -0.509981,0.0791693 -0.509981,-0.347165 0,-0.165303 0.167862,-0.462863 0.327835,-0.462863l1.23864 0c0.151872,0 0.40075,0.37012 0.40075,0.462863 0,0.433015 -0.582897,-0.0859208 -0.582897,0.347165l0 0.578562c0,0.133252 0.0253001,0.173547 0.109302,0.173547l2.4772 0c0.0839309,0 0.109302,-0.0402953 0.109302,-0.173547l0 -0.75218 -0.509981 0c-0.282565,0 -1.39072,-3.93423 -1.71223,-3.93423l-2.33152 0c-0.0852811,0 -0.14576,0.0960124 -0.14576,0.231467z"/>
   <path id="_328473304" class="fil0" d="M15.0164 10.5276c-0.207873,0.157912 -2.30984,0.725458 -2.7769,0.984144 -0.20105,0.111292 -2.67157,1.15883 -2.7312,1.15883 -0.0522347,0 -0.444954,-0.259184 -0.386324,-0.441117 0.0098784,-0.0307012 0.509128,-0.243122 0.567475,-0.254848 0.256199,-0.0515951 0.843857,-0.344536 1.1191,-0.479138 0.402882,-0.196999 1.92629,-0.849898 2.29975,-0.899076l1.21462 -0.422994 2.38908 -0.67763 0.117404 0.444528 -1.81301 0.587303zm2.798 -4.16343c0.26295,0 1.31468,-1.73568 1.67577,-1.73568l0.255062 0c0.122734,0 0.254991,0.102266 0.254991,0.289316l0 0.347094 0.109302 0c0.141354,0 0.00660929,-0.106886 0.254991,-0.115698l0 0.347165c0,0.26096 -0.234239,0.377227 -0.326343,0.523058 -0.0869157,0.137729 -0.201619,0.471889 -0.262879,0.681823 -0.0778901,0.266433 -0.445381,1.11235 -0.576216,1.28348 -0.399969,0.523413 -1.05422,1.56157 -1.74897,1.56157l-0.0728443 0c-0.133039,0 -0.327906,-0.240422 -0.327906,-0.347165 0,-0.568825 0.312769,-0.867807 0.728656,-0.867807 -0.029422,0.200197 -0.182217,0.500814 -0.182217,0.520712 0,0.413329 0.432446,-0.206167 0.502093,-0.301895 0.179375,-0.246605 0.276098,-0.534286 0.518012,-0.623832 0.0254422,-0.485818 0.728585,-0.98386 0.728585,-2.48779 -0.402101,0.148745 -1.01577,1.56207 -1.67577,1.56207l-0.437208 0c-0.436782,0 -0.217964,0.0198279 -0.551982,0.396202 -0.0892609,0.100561 -0.499534,0.471676 -0.61374,0.471676l-0.291448 0c-0.164024,0 -0.364293,-0.109444 -0.364293,-0.347165l0 -0.115698c0,-0.602156 0.364293,-0.941788 0.364293,-1.50422 -0.236158,0.0873421 -0.848476,0.971565 -1.02913,1.25847 -0.192309,0.305449 -0.260036,0.502946 -0.41873,0.781317 -0.158339,0.277732 -0.219599,0.737256 -0.446518,0.737256l-0.109302 0c-0.172908,0 -0.222015,-0.122307 -0.254991,-0.347094 -0.282067,0.00994947 -0.754383,0.983576 -1.12934,0.983576l-0.218604 0c-0.195507,0 -0.172268,-0.173618 -0.291448,-0.173618l-0.109302 0c-0.0536561,0 -0.831704,1.04142 -1.38433,1.04142l-0.254991 0c-0.191669,0 -0.313408,-0.0695752 -0.437208,-0.173547 -0.369694,0.310637 -0.489443,0.69426 -1.02003,0.69426l-0.182146 0c-0.146044,0 -0.189466,-0.322292 -0.218604,-0.520712l-0.109302 0c-0.0906112,0.397694 -0.760566,1.22123 -1.05642,1.33067 0.005259,0.377795 0.479067,0.502093 0.670168,0.613527 0.187263,0.109231 0.615375,0.479706 0.787003,0.485818l0 0.173547 -1.23864 0c-0.67365,0 -2.306,-1.47508 -2.76865,-1.96715 -0.212634,0.178664 -0.637619,1.61963 -0.84741,2.06778 -0.153861,0.328617 -0.288748,0.671589 -0.50124,0.881736 -0.11918,0.11783 -0.606989,0.52185 -0.764332,0.52185l-0.327835 0c0.0152795,-0.222513 0.256554,-0.435147 0.355765,-0.592064 0.130978,-0.207233 0.211355,-0.454691 0.326058,-0.697102 0.0729864,-0.154288 0.710889,-1.37217 0.520357,-1.37217 -0.182573,0 -1.462,1.17709 -1.74869,1.21497 0.00774637,-0.551769 0.421502,-0.795886 0.680188,-1.00269 0.121099,-0.0967941 0.366425,-0.226635 0.442112,-0.339206 0.113282,-0.168501 0.208299,-0.368343 0.327977,-0.52057 0.222584,-0.283276 0.646502,-0.437492 0.842791,-0.744362 0.11847,-0.185202 0.511758,-0.960976 0.552551,-1.19379l0.682889 -0.388313 0.034681 0.041006 -0.175182 0.734413c0.316393,-0.0112287 2.98733,-2.08363 2.98733,-2.31425 0,-0.133323 -0.0253711,-0.173618 -0.109302,-0.173618l-0.109302 0c-0.484042,0 -2.56725,1.15933 -3.01234,1.46449 -0.787714,0.540043 -2.1999,1.09515 -2.56419,2.15484l-0.580196 0.141354 -0.218533 0c-0.0852811,0 -0.14576,-0.0960124 -0.14576,-0.231396 0,-0.958489 2.25796,-2.29954 2.85294,-2.70128 0.452559,-0.305591 1.19735,-0.731499 1.6676,-0.938732 0.307581,-0.135526 0.560937,-0.261387 0.899716,-0.368415 0.0370262,-0.0116551 0.845776,-0.272971 0.91862,-0.272971l0.218604 0c0.2223,0 0.80143,0.234381 0.80143,0.636411 0,1.08897 -3.13138,2.97077 -3.20586,3.41352 0.222655,0.169638 0.360668,0.283773 0.575719,0.474305 0.240351,0.21299 0.444315,0.53521 0.444315,-0.12714 0.14043,-0.333023 0.180654,-0.622695 0.366567,-0.922173 0.200411,-0.322789 0.287753,-0.402243 0.523129,-0.673437 0.307012,-0.353704 0.839238,-0.892254 1.33259,-0.892254 0.239498,0 0.395207,0.0121526 0.40075,0.405014l-0.109302 0c-0.112642,0 -0.950743,0.624471 -1.02657,0.741804 -0.237224,0.366993 -0.603151,0.70826 -0.612816,1.3989 0.443746,-0.164166 1.70633,-2.87291 2.18092,-1.74002l-0.358252 1.01428 0.0352495 0.031483c0.374029,-0.0494631 1.3689,-3.00858 2.07652,-3.00858l0.40075 0c0.132257,0 0.473595,0.315753 0.473595,0.520712 0,0.24632 -0.225426,0.405014 -0.40075,0.405014 -0.157557,0 -0.146826,-0.115698 -0.254991,-0.115698 -0.21903,0 -1.02003,1.24894 -1.02003,1.90923l0.109302 0c0.296423,0 1.43862,-1.28035 1.5669,-1.61928 0.16907,-0.44666 0.306088,-0.851674 0.494346,-1.29784 0.156988,-0.37211 0.0259397,-0.392435 0.309144,-0.550419 0.173121,-0.0965809 0.106815,-0.493494 0.106815,-0.871715 0.0953727,-0.226137 0.324068,-0.69426 0.54651,-0.69426 0.0876974,0 0.218533,0.207873 0.218533,0.347165l0 0.173547c0,0.457818 -0.268138,0.717286 -0.364293,0.925727 0.037808,0.0896873 0.109302,0.210644 0.109302,0.347094 0,0.26295 -0.854872,1.82694 -0.874345,2.19855 0.219101,-0.00774637 0.738677,-0.93859 0.946976,-1.15748 0.229762,-0.241417 0.692412,-1.06829 0.700229,-1.60719l0.101556 -0.209294 0.619212 0.0233102 0 0.520712c0.227203,-0.0963677 0.712311,-1.04142 1.12934,-1.04142l0.218604 0c0.153861,0 0.23964,0.171842 0.40075,0.231467 0,0.798303 -0.327906,1.31091 -0.327906,1.56207 0,0.482123 0.573587,-0.783023 0.611537,-0.880244 0.112571,-0.28825 0.495839,-0.890691 0.663061,-1.08762 0.404233,-0.47594 1.11932,-1.38781 1.78557,-1.38781 0.23495,0 0.400679,0.132754 0.400679,0.520712 -0.990612,0.0351074 -2.35525,2.2564 -2.04007,2.2564zm5.61029 -5.03351c0,-0.133323 0.0253001,-0.173547 0.109231,-0.173547l0.728656 0c0.071423,0 0.55852,0.289885 0.624755,0.338495 0.149242,0.109728 0.322434,0.441543 0.322434,0.760779l0 0.69426c0,0.345389 -0.218817,0.755875 -0.368699,0.860913 -0.0762556,0.0533718 -0.646573,0.29621 -0.72425,0.29621l-0.582897 0c-0.0839309,0 -0.109231,-0.0402243 -0.109231,-0.173547l0 -2.60356zm-11.5484 1.21504c0,-0.593059 0.471463,-1.50429 0.837887,-1.50429l0.473595 0c0.269204,0 0.728585,0.77016 0.728585,1.27282l0 0.75218c0,0.285337 -0.3235,0.742515 -0.400679,0.925656 -0.392151,0 -0.449432,0.231467 -0.582897,0.231467 -0.643873,0 -1.05649,-0.69561 -1.05649,-1.67784zm5.06378 0.983505c0.0582044,-0.546723 -0.131049,-1.30189 0,-1.73568l0.0407217 -0.0506712 0.989759 2.00482 -0.42335 0.527464 -0.0286403 -0.0432091 -0.10049 -0.132541 -0.441543 0.00838598 -0.0655954 -0.127282 0.0291377 -0.451279zm-4.77233 1.73568l0.364293 0 0 0.173618c0,0.203538 -0.18236,0.304027 -0.237792,0.490224 -0.043138,0.145191 -0.0695041,0.5512 -0.199345,0.5512 -0.112216,0 -0.54516,-0.289316 -0.692199,-0.289316l-0.0364577 0c-0.504793,0 -1.51559,1.19273 -1.63932,1.73568 -0.147394,0 -0.837887,-0.486458 -0.837887,-0.636411 0,-0.200979 0.0728443,-0.088266 0.0728443,-0.289316l0 -0.347094c0,-0.597821 -0.577567,-1.09927 -0.983647,-1.09927l-0.692128 0c-0.400253,0 -1.52547,0.582399 -1.9034,0.737824 -0.66235,0.272331 -1.17695,0.704991 -1.75594,1.02984 -0.70826,0.397268 -2.86168,1.83411 -2.86168,3.03437l0 0.173618c0,0.190106 0.106673,0.481412 0.171344,0.595689 0.0507423,0.0895452 0.357115,0.333307 0.371968,0.287753l0.549566 -0.0734839c-0.17241,0.373816 -0.478427,0.299763 -0.697387,1.09096 -0.0601232,0.217254 -0.347379,1.463 -0.359034,1.68615l0.109231 0c0.0971494,0 0.890335,-0.83142 1.16579,-0.867807 -0.0263661,0.502803 -0.467554,0.171842 -0.53919,1.66625l0.0646715 0.106673 0.948113 -0.0950885c0.126714,-0.134815 0.505859,-0.257336 0.710889,-0.433157 0.243975,-0.209294 0.392506,-0.401106 0.542459,-0.758434 0.214695,-0.511403 0.682676,-1.31383 0.786719,-1.93268 0.408141,0 0.980307,0.812232 1.3844,0.983576l0 0.173547c-0.32748,0.12117 -1.28391,0.817491 -1.61522,1.0798 -0.518723,0.4107 -1.0626,0.745641 -1.55375,1.17738 -0.469188,0.412405 -1.00099,0.869654 -1.46428,1.31944 -0.242838,0.235731 -0.464569,0.429746 -0.710037,0.665904 -0.17504,0.168359 -0.626177,0.484397 -0.631294,0.848832 0.259752,-0.00916772 1.25548,-1.08399 1.59675,-1.34055 0.406436,-0.305591 1.25797,-1.10439 1.64273,-1.26749 0.17909,-0.0759713 0.602511,-0.417167 0.851461,-0.557028 0.327337,-0.183852 0.5738,-0.355409 0.885076,-0.561434 0.145973,-0.096652 1.78749,-1.01769 1.8,-1.01769l0.14576 0 -0.00490367 0.0655954 0.806333 0.107952 0 0.115698c-0.192096,0.00682249 -1.34041,0.648563 -1.54217,0.790698 -0.37012,0.260747 -1.26117,0.566693 -1.44509,1.00284 0.0444173,0.0396557 0.0389451,0.057849 0.109302,0.057849 0.242767,0 1.05855,-0.809958 1.4883,-0.816922l0.0781744 -0.166583c0.186553,0 1.40586,-0.679904 1.63441,-0.817846 0.192238,-0.115911 1.54728,-0.686442 1.75359,-0.686442 0.291377,-0.309855 4.4349,-1.67784 5.10024,-1.67784 0.152866,-0.162603 1.42853,-0.46798 1.71124,-0.464427 0.279509,0.00348231 0.615446,-0.134247 0.912153,-0.171273 0.160329,-0.01997 0.348729,0.0119394 0.511403,0.0022031 0.239498,-0.0143557 0.212208,-0.176461 0.398903,-0.176461l0.510052 0c0.115272,0 0.124155,0.142277 0.14576,0.289245 -0.264727,0.20169 -0.631862,0.190177 -0.984216,0.230543 -0.265935,0.0304169 -0.359602,0.0996368 -0.508844,0.117617 -0.396486,0.0476153 -0.32549,0.134247 -0.474234,0.172552l-0.00859918 -0.0847126 -1.84307 0.482478 -1.71074 0.532865 -0.00774637 -0.0627527c-0.0764688,0.0813014 -3.07943,1.25911 -3.39732,1.37367 -0.534997,0.192806 -1.13602,0.468691 -1.64685,0.740311 -0.283915,0.151019 -1.49448,0.623832 -1.5497,0.952377 0.0444883,0.0396557 0.0390161,0.057849 0.109302,0.057849l0.0364577 0c0.00945199,0 0.654035,-0.322931 0.746281,-0.376943 0.191314,-0.111932 0.653538,-0.210573 0.747347,-0.433015 0.45398,0 2.11014,-0.829928 2.66909,-1.026 0.279935,-0.0982155 2.6811,-0.897016 2.72566,-0.909168l1.23167 -0.337145 2.26258 -0.331246 1.45717 0c0.139577,0 0.291448,0.182857 0.291448,0.347165 0,1.09373 -1.18896,2.46647 -1.20218,2.71926 0.336363,-0.0119394 1.12813,-1.03048 1.40863,-1.29208 0.265153,-0.247315 0.329327,-0.600735 0.670381,-0.729012 0.335581,-0.126145 0.597394,-0.177456 1.01755,-0.177456l0.327835 0c0.578206,0 2.29122,0.43799 2.58658,0.752109 0.613171,0 1.17389,0.210431 1.77129,-0.0219599 0.291164,-0.113282 1.24162,-0.701366 1.36173,-0.961616 -0.48994,0 -1.34794,0.0787429 -1.34794,-0.636411 0,-0.217893 0.0239498,-0.109373 0.0364577,-0.347165 0.0688645,-0.0254422 0.325277,-0.173547 0.327835,-0.173547l0.434223 0.0293509 0.695112 0.202116c0.0808039,0.0206096 0.100561,-0.0234523 0.14576,-0.0579201l-0.00639609 0.0707123 1.4942 0.34084 0.00582755 -0.0643873c0.388242,0.0885503 1.32754,-0.239711 1.45824,-0.507707l-1.20325 0.218462 -0.145689 0c-0.444812,0 -2.95698,-0.873279 -3.16983,-1.08961l-0.801074 -0.0675853 -0.291448 0c-0.462579,0 -0.674645,0.368983 -0.947189,0.405014 0.0217467,0.415603 0.0961545,0.173618 0.218604,0.173618 0.0945199,0 0.546439,0.234878 0.546439,0.462792 0,0.492925 -0.555607,0.925727 -0.874345,0.925727l-0.582897 0c-0.194086,0 -0.827938,-0.300119 -0.977748,-0.414324 -0.17042,-0.129983 -0.726382,-0.635131 -0.843715,-0.68495l0 -0.115698c0.570957,-0.211284 1.21064,-0.242554 1.68309,-0.624827 0.19437,-0.157273 1.41126,-0.705844 1.66845,-0.705844l0.582897 0c0.321012,0 0.785013,0.289245 1.12934,0.289245l-0.0118683 0.0594836 1.50592 0.741306 0.728159 0.0670878 1.02003 0c0.510052,0 1.13225,-0.358963 1.53001,-0.578704 0.389024,-0.21498 0.92459,-0.840304 1.31155,-0.983434l0 -0.115698c-0.284839,0 -0.336434,0.115698 -0.473595,0.115698l-0.546439 0c-0.154714,0 -0.509981,-0.279722 -0.509981,-0.636411l0 -0.289316c0,-0.284057 0.687153,-0.534784 0.80143,-0.520712l-0.00312698 0.0645294 1.01719 0.163953 1.46321 0.407928 0.728585 0c0.0650269,0 0.549921,-0.22635 0.621202,-0.286189 0.202401,-0.169852 0.373958,-0.175111 0.508134,-0.465919 -0.214553,0.00760424 -0.918336,0.405014 -1.27502,0.405014l-0.0361734 -0.00348231 -1.96751 -0.459381c-0.209649,-0.22301 -0.608268,-0.264158 -0.874061,-0.405441 -0.100632,-0.0535139 -0.347521,-0.108662 -0.473666,-0.115627 -0.357328,-0.0196857 -0.284768,-0.173192 -0.473808,-0.173192l-0.947189 0c-0.3262,0 -1.25107,0.52121 -1.38511,0.847552l0.583678 0.0202543c0.241914,0.257265 0.983576,0.196005 0.983576,1.09927 0,0.641101 -0.598105,1.09927 -1.02003,1.09927l-0.910732 0c-0.363866,0 -1.16579,-0.223934 -1.16579,-0.752109 0,-0.439056 0.837816,-0.925727 1.16579,-0.925727l0.765043 0c0.148958,0 0.156491,0.115698 0.437137,0.115698 -0.0427827,-0.187547 -0.144623,-0.267996 -0.292159,-0.288108 -0.263306,-0.0358891 -0.278798,-0.174684 -0.363582,-0.174684l-1.42078 0c-0.0219599,0 -1.09672,0.425766 -1.19401,0.475798 -0.171202,0.0881239 -0.357754,0.207944 -0.557028,0.272544 -0.107596,0.0348942 -0.611679,0.235163 -0.616938,0.235163l-0.582897 0c-0.201264,0 -0.546439,-0.555393 -0.546439,-0.925656l0 -0.231467c0,-0.464924 0.415817,-0.983576 0.728585,-0.983576l0.0729154 0c0.393715,0 0.582826,0.31618 0.582826,0.983576l-0.0296352 -0.0338282 -0.116053 0.323144c0.284981,-0.0376658 0.683386,-0.525261 1.16636,-0.519789 0.257123,0.00298484 0.330322,-0.117688 0.691559,-0.116693 0.254991,0.000710676 0.510052,-0.000639609 0.765043,7.10676e-005 0.750901,0.00213203 1.9346,-0.649416 2.22214,-1.27332l-1.82139 0.926153c-0.0853522,-0.031554 -0.107596,-0.057849 -0.218604,-0.057849l-0.692128 0c-0.111008,0 -0.133252,0.026295 -0.218604,0.057849 -0.211497,-0.224929 -1.02458,-0.394781 -1.31667,-0.570318 -0.428182,-0.257194 -0.908955,-0.483473 -1.36237,-0.155141 -0.40807,0.295428 -0.650056,0.741022 -0.979383,1.16387 -0.0795247,0.102124 -0.353704,0.676422 -0.462366,0.503656 -0.105962,-0.16843 0.110723,-0.942072 -0.287255,-0.942072l-0.218604 0c-0.223294,0 -0.559373,0.234381 -0.655741,0.462863 0.306444,0.0405085 0.546439,0.284839 0.546439,0.809958l0 0.289316c0,0.988408 -0.352282,0.861766 -0.830567,1.02984l-0.0801643 -0.104185c0.0190461,-0.129769 0.0363866,-0.132968 0.0363866,-0.289245l0 -0.810029c0,-0.464782 -0.427614,-0.654249 -0.692128,-0.752109 0.159191,-0.47793 0.355978,-0.846415 0.656594,-1.09785 0.218959,-0.183212 0.921676,-0.418375 1.01918,-0.522134 0.142775,0 1.19991,-0.193659 1.30153,-0.247244 0.164948,-0.0870578 0.431736,-0.150166 0.56783,-0.255346 0.135526,-0.104683 0.364932,-0.270839 0.513606,-0.341409 0.126856,-0.0602653 0.806475,-0.603719 0.984784,-0.750332 0.269773,-0.221944 0.639538,-0.804557 0.639538,-1.35633l0 -1.15712c0,-0.536205 -0.275245,-1.13637 -0.463716,-1.40423 -0.12181,-0.173121 -0.813795,-0.620776 -0.993454,-0.620776l-3.31516 0c-0.0839309,0 -0.109302,0.0402953 -0.109302,0.173618l0 0.809958 0.437208 0c0.111932,0 0.145689,0.169496 0.145689,0.347165l0 2.31425c0,0.139079 -0.0589861,0.170065 -0.109302,0.289245 -0.182999,0 -0.473595,-0.0950174 -0.473595,0.173618l0 0.578562c0,0.309926 1.10837,0.173547 1.34794,0.173547 0.4979,0 0.995728,0 1.49981,0.00895452l-0.115769 0.215548 -0.691843 0.0647426c-0.0498895,0.0550063 -1.48716,0.449432 -1.67577,0.520784 -0.265864,0.100561 -1.47686,0.809958 -1.53009,0.809958 -0.139293,0 -0.0132896,0.0177669 -0.109302,-0.057849 0.0929565,-0.220523 0.546439,-0.579912 0.546439,-0.983576l0 -0.289316c0,-0.198208 -0.063108,-0.095657 -0.100561,-0.303174 -0.00959413,-0.0534429 -0.0319094,-0.377867 -0.0348942,-0.407431 -0.0276453,-0.277306 -0.0449147,-0.557526 -0.19238,-0.620065l0 -2.77711c0.199345,-0.0737682 0.655741,0.0393004 0.655741,-0.231396l0 -0.462863c0,-0.176532 -0.0350363,-0.233457 -0.0729154,-0.349226l-1.89438 0.05991c-0.167364,0.0962256 -0.109231,0.500529 -0.109231,0.867878 0.203111,0.0751185 0.692128,-0.0416456 0.692128,0.231396l0 1.33074c0,0.156278 -0.0174116,0.159476 -0.0363866,0.289245 -0.422852,-0.0149242 -0.683457,-0.512682 -0.85004,-0.964317 -0.137161,-0.371826 -0.466488,-0.936174 -0.643873,-1.29165 -0.371826,-0.745073 -0.318028,-0.521139 -1.12912,-0.521139 -0.497829,0 -0.995728,0 -1.49363,0 -0.0190461,0.129769 -0.0363866,0.133039 -0.0363866,0.289316l0 0.520712c0,0.133323 0.0253001,0.173547 0.109231,0.173547l0.40075 0 0 2.77711c0,0.629446 -0.509981,-0.498966 -0.509981,0.752109 -0.235163,0.250087 -0.785439,0.549068 -1.20225,0.231467 0.134957,-0.320018 0.116124,-0.172339 0.31021,-0.317388 0.0572805,-0.0428538 0.227274,-0.330322 0.282494,-0.419157 0.144196,-0.231894 0.318099,-0.728301 0.318099,-1.17276l0 -0.867807c0,-0.670523 -0.307723,-1.25996 -0.580551,-1.50798 -0.22564,-0.205243 -0.795176,-0.632715 -1.13168,-0.632715l-1.38433 0c-0.0117262,0 -0.580765,0.282636 -0.638756,0.316322 -0.308291,0.178806 -0.336647,0.193944 -0.588866,0.453269 -0.300048,0.308433 -0.490935,1.10617 -0.536561,1.86688 -0.0461229,0.769733 0.255772,1.42619 0.51524,1.83482 0.133962,0.210929 0.991607,0.793612 1.21248,0.793612z"/>
  </g>
 </g>
</svg>
