<?xml version="1.0" encoding="UTF-8"?>
<!DOCTYPE svg PUBLIC "-//W3C//DTD SVG 1.1//EN" "http://www.w3.org/Graphics/SVG/1.1/DTD/svg11.dtd">
<!-- Creator: CorelDRAW -->
<svg xmlns="http://www.w3.org/2000/svg" xml:space="preserve" width="5548in" height="7180in" style="shape-rendering:geometricPrecision; text-rendering:geometricPrecision; image-rendering:optimizeQuality; fill-rule:evenodd; clip-rule:evenodd"
viewBox="0 0 278.846 226.691"
 xmlns:xlink="http://www.w3.org/1999/xlink">
 <defs>
  <style type="text/css">
   <![CDATA[
    .fil0 {fill:black}
   ]]>
  </style>
 </defs>
 <g id="Layer_x0020_1">
  <metadata id="CorelCorpID_0Corel-Layer"/>
  <g id="_580999624">
   <path id="_581002696" class="fil0" d="M107.923 45.4418l-2.58152 5.16348c0.540847,-2.32225 0.462308,-4.59764 2.58152,-5.16348zm17.0224 -0.00490867l-4.11258 1.03751 0 -0.516303c2.65202,0 3.42358,-1.69081 4.75249,-3.07194l-0.639912 2.55072zm-20.1207 -23.2323c0,-8.05156 5.82526,-14.3855 12.9098,-14.9755 -2.3343,2.02907 -5.93816,2.45344 -8.36483,5.57759 -3.16833,4.07866 -2.8631,6.97746 -4.54498,9.39788zm-1.54891 -2.58196l0 1.03261c0,15.3548 20.6552,16.6868 20.6552,22.2046 0,4.64673 -15.1656,1.03261 -17.8926,1.08526l-3.27141 11.7322 8.77091 0.608229 2.06521 0c13.3494,0 27.8273,-2.79348 27.024,-15.7354 -0.977272,-15.7546 -22.3764,-16.7372 -22.3764,-20.9275 0,-1.69438 3.15895,-2.71048 4.66369,-2.77117l11.8607 1.22181c0.242756,-2.922 4.5249,-12.3931 1.54891,-12.3931l-14.4587 0c-9.00697,0 -18.5896,5.10591 -18.5896,13.9424z"/>
   <path id="_581002792" class="fil0" d="M144.07 18.5896c0,2.01032 1.41861,3.61501 3.61457,3.61501l1.54891 0c2.19596,0 3.61501,-1.60469 3.61501,-3.61501 0,-2.00988 -1.41905,-3.61457 -3.61501,-3.61457l-2.06566 0c-1.45877,0 -3.09782,2.15357 -3.09782,3.61457z"/>
   <path id="_581002984" class="fil0" d="M209.134 35.6303l0 1.03305c0,2.9162 4.4486,13.3096 6.19653,13.942l0.556019 -0.125841 -4.17059 -16.3981c-1.65512,0.0365919 -2.58196,-0.168234 -2.58196,1.54891z"/>
   <path id="_581003272" class="fil0" d="M168.857 46.4744c0,-2.49227 5.9685,-5.10145 8.77849,-5.16392 0.134319,1.6154 0.516303,1.8345 0.516303,3.61457 0,1.86039 -3.36378,4.64762 -4.64762,4.64762l-2.58152 0c-1.20887,0 -2.06566,-0.856787 -2.06566,-2.06566l0 -1.03261zm4.64717 -26.8518c0,-2.7261 3.55879,-6.71283 5.68067,-6.71283l3.09782 0c1.19013,0 1.54936,0.359226 1.54936,1.54891l0 0.516303c0,3.58199 -7.17469,9.07703 -10.3278,9.81154l0 -5.16392zm-8.77805 1.54891c0,7.78426 0.957637,6.23312 -2.06566,12.9094 -1.66672,3.67972 -2.85596,7.75972 -7.22958,8.77894 -5.22952,-3.50212 0.521658,-17.557 -9.8111,-17.557 -1.13881,0 -1.54891,2.75957 -1.54891,4.13087l0 2.06566c0,17.3754 17.9131,19.6039 23.0426,-1.34453l8.4563 8.05736c-0.839383,3.14378 -9.8111,2.60784 -9.8111,8.77849 0,3.10362 3.28926,5.16392 6.71283,5.16392l1.03261 0c5.07557,0 11.3605,-3.04873 11.3605,-7.74589l0 -2.06566c0,-1.78006 -0.381538,-1.99917 -0.516303,-3.61457 4.6262,-0.384661 15.4918,-7.29607 15.4918,-11.36 0,-0.845184 -0.309246,-1.54936 -1.03305,-1.54936 -0.673827,0 -8.07744,10.8442 -16.0076,10.8442 -1.08035,0 -7.74722,-7.60041 -8.26219,-9.81154 5.72574,-1.33382 11.0137,-6.98861 12.3931,-12.9094 -1.28786,-2.43426 -3.06703,-4.13132 -6.71283,-4.13132 -6.89445,0 -15.4913,4.86851 -15.4913,11.3605z"/>
   <path id="_581002528" class="fil0" d="M211.2 52.1547c-2.33162,-4.4071 -10.4693,-14.8403 -16.5239,-14.975 0,4.49858 3.85554,6.87794 6.87884,8.61249 2.86042,1.64128 7.24609,5.80384 9.6451,6.36253z"/>
   <path id="_581001976" class="fil0" d="M23.0824 15.4913l1.66716 0.613138 -1.47349 24.6924 -0.555126 -0.00267746 0.349408 -14.9804 0.0120486 -1.544 0 -8.77849zm23.9084 -7.74544l2.58196 0 -1.75418 23.2216 -0.311478 0.0156185 -0.516303 -13.4261 0 -9.8111zm22.7209 14.4587c1.54757,-3.22589 -1.14194,-14.9755 2.06521,-14.9755 1.84923,0 -1.03261,13.1182 -1.03261,16.5244l-1.03261 -1.54891zm-57.8349 -14.9755l1.54891 0 -1.23252 4.59407 -0.316386 0.0535492 0 -4.64762zm-1.03305 6.71328c0,4.04564 10.3278,-0.947374 10.3278,3.09827l0 37.6959 12.9094 0 0.0981735 -2.57705 1.97686 -36.2135 4.63825 0.578331 3.54138 -0.0093711 0.589487 -5.67086 0.395371 0.00223122 0.637235 40.792 0 3.09827 12.9098 0c0,-3.57307 0.517196,-6.15637 0.516303,-10.3278 -0.000446243,-3.39859 -0.706849,-8.77849 1.54936,-8.77849l6.71283 0 0 19.1063 15.0772 -0.00267746 -1.1348 -48.5374 -11.3605 0c-2.61409,0 -1.55426,7.20995 -1.54936,9.81154 0.00892486,4.36783 -0.516303,6.80074 -0.522551,11.2895l-8.16803 0.590826 0.945143 -21.6919 -50.0894 0 0 7.74589z"/>
   <path id="_581002072" class="fil0" d="M86.7519 7.22914l2.58196 0 -1.71491 24.2578 -0.350747 0.0124948 -0.516303 -17.0407 0 -7.22958zm0.516303 47.5075l11.5791 0.0107098 2.3633 -49.0671 -11.8768 0c-5.3036,0 -4.11704,0.576992 -4.13132,7.74589 -0.0093711,4.86316 0.516749,8.59598 0.516749,13.9424 0,4.81942 0,9.63885 0,14.4583 0,2.87202 -1.14729,12.9098 1.54891,12.9098z"/>
   <path id="_581002192" class="fil0" d="M192.61 52.1547c1.7225,3.25534 13.9362,8.29833 16.5244,7.22914 -1.79211,-2.67567 -10.667,-8.26219 -14.9755,-8.26219 -0.112899,0 -1.53731,1.0219 -1.54891,1.03305z"/>
   <path id="_581001904" class="fil0" d="M214.436 69.738l0.367258 0.461862 1.56007 -0.48819c-0.0544416,-2.44184 0.525228,-2.02817 -1.43289,-2.55965l-0.494437 2.58598z"/>
   <path id="_581002384" class="fil0" d="M244.764 68.679l0 1.03261c0,1.45431 0.223568,0.955853 1.03305,1.54891 0.331559,-1.38469 0.516303,-0.973256 0.516303,-2.06521 0,-1.18299 -0.174927,-0.600643 -0.516303,-2.06566 -0.870174,0.604659 -1.03305,0.0740763 -1.03305,1.54936z"/>
   <path id="_581002624" class="fil0" d="M221.011 68.679l0 1.03261c0,1.38112 0.745672,1.52749 1.54936,2.06521 0.289165,-0.415452 1.03261,-1.27492 1.03261,-1.54891 0,-1.78006 -0.381984,-1.99961 -0.516303,-3.61457 -1.1696,0.31237 -2.06566,0.496668 -2.06566,2.06566z"/>
   <path id="_581002336" class="fil0" d="M137.357 68.679c0,1.80505 5.57893,9.23232 7.74589,9.8111 -0.103975,-4.67083 -4.13132,-5.74002 -4.13132,-9.8111l0 -1.03305c0,-2.22541 4.13132,-4.0443 4.13132,-7.74544l0 -2.06566c-1.55114,0.561374 -7.74589,8.94226 -7.74589,10.8442z"/>
   <path id="_581002168" class="fil0" d="M143.323 68.5144c2.02282,2.84034 4.79979,9.6683 8.4929,9.97576 -0.360118,-4.32588 -4.13087,-6.20813 -4.13087,-9.8111l0 -0.516749c0,-3.30443 4.01083,-4.93277 4.13087,-10.3274l-0.931755 0.0718451 -7.56114 10.6076z"/>
   <path id="_581002288" class="fil0" d="M26.3355 58.8675c0,3.23482 4.13087,7.07295 4.13087,9.81154l0 1.03261c0,3.60118 -3.61457,3.92069 -3.61457,9.2948 1.92286,-0.513626 7.22914,-7.47948 7.22914,-9.8111 0,-1.25707 -6.25231,-10.6451 -7.22914,-11.3605 -0.00803237,0.00981735 -0.516303,0.963439 -0.516303,1.03261z"/>
   <path id="_581002552" class="fil0" d="M36.1466 68.679c0,4.90555 -4.93456,7.47323 -3.61457,10.3274 2.26022,-0.603321 7.22914,-7.80479 7.22914,-9.8111 0,-2.49941 -5.48656,-9.67723 -7.22914,-10.8442 0,6.02026 3.61457,6.61734 3.61457,10.3278z"/>
   <path id="_581001880" class="fil0" d="M42.3431 67.1297l0 2.58196c0,4.12998 -3.61457,4.33704 -3.61457,9.2948 1.84164,-0.666687 7.22914,-7.51027 7.22914,-9.8111 0,-2.03264 -5.90603,-9.83832 -7.22914,-11.3605 0,8.20998 3.61457,6.62269 3.61457,9.2948z"/>
   <path id="_581001304" class="fil0" d="M150.267 68.1623l0 0.516749c0,2.93717 5.23889,8.99492 7.22914,10.3274 0.160647,-0.605552 0.516303,-1.40745 0.516303,-1.54936 0,-2.34456 -4.64717,-5.91718 -4.64717,-8.26174 0,-3.74844 4.52267,-5.75921 4.64717,-11.3605 -2.3691,0.259267 -3.12192,2.87559 -4.2344,4.54409 -0.681413,1.02234 -3.51104,4.82924 -3.51104,5.78331z"/>
   <path id="_581001232" class="fil0" d="M48.5396 81.5884l5.68023 0 0 -8.77849 4.13132 0c1.18968,0 1.54891,0.359226 1.54891,1.54891l0 3.09827c0,2.15669 -1.57078,4.13132 1.03305,4.13132l3.09782 0c1.19013,0 1.54936,-0.359672 1.54936,-1.54936l0 -20.1385c0,-1.19013 -0.359226,-1.54936 -1.54936,-1.54936l-3.09782 0c-2.5119,0 -1.03305,4.30937 -1.03305,6.71283 0,1.18299 -0.174927,0.600643 -0.516303,2.06566l-5.16392 0 0 -7.22914c0,-1.19013 -0.359226,-1.54936 -1.54891,-1.54936l-4.13132 0 0 23.2372z"/>
   <path id="_581001784" class="fil0" d="M73.8425 70.2279c0,-2.53734 1.84521,-5.68023 4.13087,-5.68023l2.06566 0c7.22155,0 6.03901,11.3605 -0.516303,11.3605l-0.516303 0c-2.85685,0 -5.16392,-2.97778 -5.16392,-5.68023zm-5.68023 -1.03261l0 2.58152c0,4.7159 5.63873,9.81154 10.8442,9.81154l0.516303 0c15.3619,0 14.1883,-23.2372 0,-23.2372 -5.87345,0 -11.3605,5.02246 -11.3605,10.8442z"/>
   <path id="_581001664" class="fil0" d="M99.6617 81.5884l3.09827 0c2.39186,0 1.10311,-2.15312 3.09827,-3.61457 0.14012,1.68635 0.30166,3.61457 2.06521,3.61457l4.50839 -0.0517642 8.40142 -23.1854 -4.64762 0c-1.84343,0 -5.69361,11.2672 -6.19653,13.4257 -4.25002,-3.11388 5.43747,-13.4257 1.03261,-13.4257l-4.58381 0.0200809 -0.57967 2.04558 -1.03305 0c-0.121378,-1.45788 0.0120486,-2.06566 -1.54891,-2.06566l-4.64762 0c0.268192,3.22054 3.61501,8.7959 3.61501,10.8442 0,1.33784 -0.345838,0.530583 -0.516749,2.58152l-1.03261 0c-0.184745,-2.21649 -4.14872,-13.4257 -5.68023,-13.4257l-4.64762 0c0.0481942,2.15268 3.03713,9.74907 3.97067,12.0374 0.852324,2.0902 3.44678,11.1998 5.32457,11.1998z"/>
   <path id="_581001592" class="fil0" d="M128.062 81.5884l5.68023 0 0 -21.6879c0,-1.19013 -0.359226,-1.54936 -1.54891,-1.54936l-4.13132 0 0 23.2372z"/>
   <path id="_581001352" class="fil0" d="M267.485 88.8175c-0.0999584,-4.49054 -12.4399,-9.42822 -17.0402,-9.8111 1.01386,3.79753 11.6228,9.8111 17.0402,9.8111z"/>
   <path id="_581001472" class="fil0" d="M264.387 102.244c-0.105313,-4.72348 -4.48296,-6.93819 -7.37104,-9.15334 -1.95544,-1.49938 -7.55802,-6.67892 -9.66964,-6.85474 3.03044,4.52535 10.3435,16.0081 17.0407,16.0081z"/>
   <path id="_581001568" class="fil0" d="M246.83 104.309c0.910782,-0.86348 1.54936,-1.24948 1.54936,-3.09782l0 -1.03305c0,-2.46058 -3.99566,-12.2998 -5.68023,-12.9094 0,6.12647 0.0406081,14.876 4.13087,17.0402z"/>
   <path id="_581001400" class="fil0" d="M16.0099 135.292l-0.352978 -0.00223122 -0.681859 -49.5705 3.71944 0.00580116 -2.6846 49.5669zm-2.32493 35.1184l25.6773 -0.00758613 -0.633665 -28.398 0 -6.19653c4.40397,0 6.74586,-0.531922 10.8433,-0.516749 2.64711,0.0093711 10.3283,1.07946 10.3283,-1.54846l0 -13.9424c-4.36738,0 -9.4492,1.15979 -13.9264,1.56453 -7.36524,0.665795 -8.27781,3.79351 -8.27781,-4.66279l-0.0111561 -10.6567 33.5758 1.87824 0 -24.7861 -59.0634 0.0031237 1.48777 87.2695z"/>
   <path id="_581001712" class="fil0" d="M164.726 85.7193l3.61457 0 -2.82427 42.8433 -0.273993 0.016511 -0.167341 -4.64137 -0.348962 -6.71908 0 -31.4994zm36.3135 -0.513626l3.96398 -0.00267746 -4.43833 30.4699 0.474356 -30.4672zm-37.8628 80.0364l20.0707 -0.00267746 1.10088 -24.2671 0.0062474 -8.15866 13.02 -0.616708 -0.633219 26.3324 0 6.71283 22.2046 0c3.2897,0 1.02145,-17.2375 1.03216,-20.1381 0.0281133,-7.68073 -0.268192,-15.3423 -0.535492,-22.1854 -0.277563,-7.11177 0.543524,-15.2843 0.0236509,-22.2283 -0.258375,-3.45571 -0.521658,-6.58744 -0.520319,-10.8397 0.00178497,-5.49816 1.23699,-6.71283 -3.61457,-6.71283l-6.19653 0.140567 -4.13132 -0.140567 -2.58196 0c-4.22994,0 -3.64402,0.724252 -3.60921,5.68514 0.0240971,3.43741 -0.522997,5.78822 -0.521658,9.80619 0.00223122,7.31258 -0.516303,13.3672 -0.530583,20.0064l-12.854 1.16693 1.50741 -36.5303 -19.6222 -0.134319 -0.516303 0c-3.83278,0 -5.35447,-0.427501 -4.53963,4.53517 0.527905,3.21652 0.408759,6.98638 0.408759,10.9562 0,7.09526 0.196347,17.1161 0.308354,21.6682 0.318618,12.9281 0.724252,30.872 0.724252,44.9447z"/>
   <path id="_581000728" class="fil0" d="M134.259 121.866l2.06566 0 -2.15223 7.36658 0.0865711 -4.78506 0 -2.58152zm-33.5646 1.03261c0,-16.6498 10.3743,-30.9644 23.7535,-34.0814 -0.709973,0.96924 -6.21884,3.91757 -8.39785,6.06132 -2.65247,2.60918 -4.66369,4.50973 -6.9538,7.50447 -3.78905,4.95508 -7.88556,11.9968 -7.88556,20.5156l-0.516303 0zm-3.09827 -2.06566l0 8.26219c0,14.3516 8.13055,26.2917 17.8957,31.1607 13.8474,6.90383 23.6652,5.50218 41.4881,5.50218 2.17097,-4.10276 1.25528,-17.2857 2.3758,-23.4429 0.532368,-2.92468 0.594396,-9.09711 0.703279,-12.2061 0.0883561,-2.5177 2.02327,-10.3087 -0.497115,-10.3087l-25.8192 0c-2.29994,0 -2.06566,10.8437 -2.06566,13.4257l9.2948 0 0 9.81154c0,1.18968 -0.359226,1.54891 -1.54891,1.54891 -9.7513,0 -18.0733,-8.42418 -18.0733,-18.0733l0 -3.09827c0,-9.953 12.9955,-19.1063 23.2372,-19.1063l10.3274 0c1.78051,0 1.99961,0.38243 3.61501,0.516749l0.124948 -4.65298 -0.650176 -16.9537 -6.70435 -0.597966 -10.8442 0c-23.2903,0 -42.8594,15.2129 -42.8594,38.2122z"/>
   <path id="_581001016" class="fil0" d="M75.3914 86.2356c-0.0120486,-0.718897 0.711311,-1.03261 1.54936,-1.03261l2.06566 0 -2.68861 45.4347 -0.410097 0.00669365 -0.516303 -44.4088zm-2.58152 6.71328l1.03261 74.3588 20.1389 0 0 -2.58196c0,-11.4354 2.08485,-28.8014 2.06566,-40.7942 -0.0124948,-7.43709 1.05536,-14.4244 1.03439,-20.653 -0.014726,-4.38434 0.537723,-6.96318 0.516749,-10.8442 -0.0156185,-2.83721 1.51723,-9.29658 -1.03528,-9.29658l-23.7531 0 0 9.8111z"/>
   <path id="_581000704" class="fil0" d="M1.03261 187.447c7.05109,-4.7217 35.3148,-7.74589 48.0238,-7.74589l13.942 0c3.24329,0 12.9094,1.96258 12.9094,-0.516303l0 -2.58196 0.0419468 -0.579223 -33.5776 -2.40793 -6.22554 0.405189c-7.53704,0 -14.8336,0.751027 -21.6722,1.56497 -7.55623,0.898733 -14.4743,0.522551 -14.4743,8.76287l0 1.03261c0,1.158 0.408759,1.13346 1.03261,2.06566z"/>
   <path id="_581000920" class="fil0" d="M87.7849 183.832l3.19644 7.89761 3.18261 -8.02077c0.33379,2.86131 -0.780479,11.4832 1.88315,11.4832l1.03261 0c1.18968,0 1.54891,-0.359226 1.54891,-1.54891l0 -24.7866 -3.09827 0c-2.50789,0 -2.77429,6.62358 -4.64717,8.77894 -0.439103,-1.88493 -2.25487,-8.77894 -4.13132,-8.77894l-3.09827 0 0 26.3355 4.13132 0 0 -11.36z"/>
   <path id="_581000368" class="fil0" d="M5.68023 199.323c9.05784,-4.7931 31.8408,-7.74589 45.9577,-7.74589l16.0081 0 12.9036 0.619832 0.00580116 -4.2344c-4.68421,-0.104421 -15.0063,-1.42262 -20.1751,-2.02907 -7.13275,-0.837152 -14.0317,-0.273101 -20.5995,-0.0169572 -7.9284,0.309693 -13.1834,0.678289 -20.1738,1.5141 -6.44598,0.770662 -14.4431,0.405635 -14.4431,7.24476l0 2.06566c0,1.39451 0.246326,1.42352 0.516303,2.58196z"/>
   <path id="_581000608" class="fil0" d="M102.76 168.857c-1.39496,0 -1.42396,0.246772 -2.58196,0.516749 1.22047,2.30663 5.68023,12.1012 5.68023,14.975l0 10.8437 2.58152 0c2.92825,0 0.830012,-10.9673 2.11742,-14.407 0.94782,-2.53243 4.39817,-9.55094 4.59586,-11.9285l-3.61457 0c-2.45211,0 -1.65512,3.86625 -4.13132,5.68023 -0.368597,-1.58282 -1.36773,-5.68023 -3.09827,-5.68023l-1.54891 0z"/>
   <path id="_581000584" class="fil0" d="M127.03 185.381l3.61457 0c0.341376,1.46502 0.516303,0.882669 0.516303,2.06566 0,0.72336 -0.703725,1.03261 -1.54891,1.03261l-2.58196 0 0 -3.09827zm2.58196 -6.71283l-2.58196 0c-0.0481942,-2.1674 -1.04644,-3.09827 1.03261,-3.09827l2.58196 0c0.341376,1.46502 0.516303,0.882669 0.516303,2.06566 0,0.72336 -0.703725,1.03261 -1.54891,1.03261zm-7.22958 14.975c0,2.5592 9.77585,2.86622 12.2516,-2.20756 1.17987,-2.41864 0.658208,-11.4466 0.658208,-15.8657 0,-3.49587 -1.26867,-4.23529 -2.58196,-6.19653l-5.6655 -0.633665 -3.11299 0.116916c-1.19013,0 -1.54936,0.359672 -1.54936,1.54936l0 23.2372z"/>
   <path id="_581000536" class="fil0" d="M144.682 180.23l0.937557 -0.0133873 1.01565 5.16794 -2.66005 -0.0169572 0.706849 -5.1376zm-1.64441 -11.3738c-0.332897,4.00414 -3.19421,12.7313 -4.33704,17.3513 -0.352086,1.42352 -2.21604,8.0288 -2.07548,8.38669 0.142352,0.361011 2.9635,0.786726 3.7471,0.554234 1.39853,-0.41456 1.24323,-1.9001 1.6328,-3.57128l5.16348 0c2.7676,0 0.461415,3.61457 3.61501,3.61457l1.54891 0c2.74796,0 -0.883115,-9.84367 -1.54177,-12.4002 -0.771554,-2.9934 -3.10541,-10.3091 -3.10541,-13.4185 -1.15845,-0.269977 -1.18745,-0.516749 -2.58196,-0.516749l-2.06566 0z"/>
   <path id="_581000944" class="fil0" d="M159.045 195.192c2.6605,0 1.03261,-2.67389 1.03261,-5.16348l0 -12.9098c0,-1.18968 0.359226,-1.54891 1.54891,-1.54891l2.06566 0 0 -5.16392c0,-1.18968 -0.359226,-1.54936 -1.54891,-1.54936l-9.2948 0 0 6.71328 3.09827 0 0 18.0733c0,1.18968 0.359226,1.54891 1.54891,1.54891l1.54936 0z"/>
   <path id="_581000680" class="fil0" d="M177.635 171.955c0.0415006,-1.46368 -0.0896948,-3.09827 -1.54936,-3.09827l-8.26219 0c-1.18968,0 -1.54891,0.359672 -1.54891,1.54936l0 5.16392 3.61457 0 0 19.6222 3.09827 0c2.17811,0 1.03305,-0.803684 1.03305,-2.06521l0 -17.557 3.61457 0 0 -3.61501z"/>
   <path id="_581000176" class="fil0" d="M180.217 193.643c0,1.18968 0.359226,1.54891 1.54891,1.54891l9.2948 0 0 -6.71283 -6.19653 0 0 -18.0733c0,-1.18968 -0.359226,-1.54936 -1.54891,-1.54936l-1.54936 0c-1.18968,0 -1.54891,0.359672 -1.54891,1.54936l0 23.2372z"/>
   <path id="_580999984" class="fil0" d="M198.29 176.602c0,-0.72336 0.704171,-1.03261 1.54936,-1.03261l5.16348 0 0 -6.71328 -10.8442 0 0 26.3355 9.29524 0c1.18968,0 1.54891,-0.359226 1.54891,-1.54891l0 -5.16392 -6.19653 0 0 -3.09827 4.64762 0 0.597519 -6.70435 -5.24514 -0.00847862c-0.341376,-1.46502 -0.516303,-0.883115 -0.516303,-2.06566z"/>
   <path id="_580999888" class="fil0" d="M212.232 177.636c0,-1.0924 0.185191,-0.680967 0.516749,-2.06566l1.54891 0 5.6713 0.589487 0.00892486 -6.26971c-1.55293,-0.361903 -3.88812,-1.03305 -5.68023,-1.03305 -3.777,0 -6.19653,3.32585 -6.19653,7.22958l0 2.06521c0,3.64848 2.07057,7.22958 5.68023,7.22958l1.54936 0 0 1.54936c0,1.06295 -0.381092,1.69483 -1.54936,1.54891l-5.67086 -0.589487 -0.0093711 6.26971c6.73113,1.5681 11.8768,0.973702 11.8768,-7.22914l0 -2.06566c0,-6.64054 -7.74589,-5.59723 -7.74589,-7.22914z"/>
   <path id="_580999792" class="fil0" d="M250.961 72.8099l-2.06566 0 0 -1.54936 2.06566 0 0 1.54936zm-44.9255 -7.74589l2.06566 0 0 3.61501 1.54936 0 0 -3.61501 2.06566 0 0 8.26219c-1.26644,0.268192 -2.06566,0.878652 -2.06566,-1.03261l0 -1.54936 -1.54936 0 0 2.58196c-1.26644,0.268192 -2.06566,0.878652 -2.06566,-1.03261l0 -7.22958zm13.4261 2.58196c0,-1.20396 1.378,-2.58196 2.58196,-2.58196l0.516303 0c1.24145,0 1.51812,0.836706 2.58196,1.54936 0,4.12507 1.24145,5.20632 -2.58196,7.22914 -1.92554,-0.923723 -3.09827,-0.610907 -3.09827,-3.61457l0 -2.58196zm23.2372 1.54936c0,-2.40391 1.48108,-3.27587 3.09827,-4.13132l1.98578 1.63727c0.0798775,2.28566 0.871959,6.62492 -2.50208,6.62492 -1.14908,0 -2.58196,-2.79794 -2.58196,-4.13087zm-16.5244 -4.13132l2.58196 0 1.69885 4.30758c0.366812,-3.36289 -0.438211,-4.06884 2.43202,-4.30758l0 8.26219 -2.58152 0 -1.75909 -3.77879c-0.306569,3.35039 0.498453,4.05635 -2.37223,4.29509l0 -8.77849zm24.7866 3.61501l-2.06566 0 0 -1.54936 2.06566 0 0 1.54936zm4.64717 -2.06566l0 5.16348c0,1.5614 -0.607783,1.42798 -2.06566,1.54936l0 -2.58196c0,-1.89564 -0.800114,-2.49584 -1.54891,-3.61457 0.974595,-0.652854 3.61457,-3.60832 3.61457,-0.516303zm1.03305 -1.54936l4.13087 0 0 2.06566 -3.09827 0 2.51592 1.24189c0.41099,0.443119 1.09865,1.49804 1.09865,2.37267 0,0.927739 -1.51856,1.83584 -2.06566,2.58196l-2.72521 -1.24993 2.70334 -0.931755 0.0218659 -1.43289 -2.58152 0 0 -4.64762zm-19.6226 6.19653c0,-2.0072 2.06075,-2.1799 2.58196,-4.13087 -1.77962,0.376629 -1.86976,0.80413 -2.06566,-1.54936 1.39005,-0.145029 4.64762,-0.55111 4.64762,1.54936 0,2.72922 -2.27629,1.56854 -3.09827,4.64717l2.58196 0 0 1.54936 -4.64762 0 0 -2.06566zm-35.114 2.06566c-4.07331,0 -3.74666,-8.26219 0,-8.26219 2.29414,0 2.66273,0.712204 3.09827,2.58196l-3.62483 -0.452937c-0.331112,1.40165 -0.50604,0.819302 -0.50604,2.00229 0,1.58461 0.711758,2.22006 2.06521,2.58152l0 -1.54891 2.06566 0c-0.134319,1.61718 -0.353871,3.09827 -2.06566,3.09827l-1.03261 0zm-11.8768 -2.58196c0,-2.49628 1.8528,-0.884454 2.58196,-3.61457l-2.04558 0.57967 -0.506932 -2.01613 2.05986 -0.538615 2.01256 0.538615c0.298983,1.04555 0.545755,1.07455 0.545755,2.46906 0,1.05715 -1.59309,1.80148 -2.58196,2.06566l0 1.54891 2.06521 0 0 1.54936 -4.13087 0 0 -2.58196zm22.484 -5.69495c2.15401,0.014726 5.91718,0.391801 5.91718,2.59669l0 0.516303c0,1.98846 -0.286488,2.12501 -1.54936,2.58196l1.0393 2.06164 -3.14869 -0.33022 -1.78453 1.38201 -0.47391 -8.80839zm49.8096 -4.63245c-3.18618,0 -20.3282,0.90275 -21.2452,0.135212 -0.767538,-0.641697 -0.439549,-14.5315 -0.443119,-18.7252 -0.00669365,-7.85343 -0.516303,-14.2963 -0.516303,-21.6879 0,-8.93066 -0.978611,-13.2797 -1.54936,-20.1389 -3.00902,0.250342 -2.09466,1.7158 -2.06521,5.16392 0.0263283,3.10451 -0.464985,4.39505 -0.516303,6.71283l-2.08931 -0.425716 -0.622063 8.68121 -2.85819 -10.4711 -0.516749 0.195454 -1.93 4.70295c-0.648837,-1.83049 -0.710865,-4.55703 -1.73499,-5.84132 -1.53329,-1.92197 -1.83629,-1.62656 -2.12546,-5.10368l-1.03305 0 -0.729607 57.3204 -31.2861 -0.00178497c-2.61231,0 -3.96041,0.497115 -7.76597,0.495776 -4.16166,-0.000892486 -3.37851,1.00003 -5.1434,3.6351l1.23252 4.59407 -8.44827 1.18567 -0.0133873 1.96615 -0.489082 -0.417683 -2.619 3.06658 -1.82023 2.19061 54.5006 0.324419c3.03981,0 1.13078,15.1183 1.65913,18.4798 0.866158,5.51244 0.406527,13.3404 0.406527,19.732l0 4.64762c0,35.6553 1.03261,68.4465 1.03261,105.858l0.516749 0 1.13123 -10.8325 2.08172 -1.96213 0.290504 -10.9646 2.15669 0.585471c0.1544,-1.67832 0.536384,-1.89787 0.536384,-3.67793l0 -8.77849 1.03261 0 1.324 13.9674 0.773785 0.269085 2.4115 -4.49947 3.9671 10.3122 0.81841 0.0896948c0.775124,-9.31398 0.516303,-20.3264 0.516303,-30.4668 0,-5.16348 0.00446243,-10.3274 0,-15.4913 -0.00446243,-5.24514 0.987536,-9.40368 1.05269,-13.9223 0.280687,-19.5035 -1.05269,-40.0262 -1.05269,-60.4365l0 -5.16392c0,-5.18133 -0.746118,-8.33225 4.1157,-8.27736 4.54409,0.0513179 8.23497,-0.37886 11.8727,-0.520766 6.81993,-0.265961 18.7828,1.42932 21.7075,-2.56233 -1.98132,-2.95904 -2.23835,-1.03662 -4.42539,-2.28744 -0.404742,-0.2316 -1.89698,-3.32585 -2.28744,-3.90909l-4.72482 -0.554234 6.80074 -1.44449c-0.381984,-4.52758 -6.30809,-5.74672 -11.3707,-5.74672l-0.516303 0z"/>
  </g>
 </g>
</svg>
