<?xml version="1.0" encoding="UTF-8"?>
<!DOCTYPE svg PUBLIC "-//W3C//DTD SVG 1.1//EN" "http://www.w3.org/Graphics/SVG/1.1/DTD/svg11.dtd">
<!-- Creator: CorelDRAW -->
<svg xmlns="http://www.w3.org/2000/svg" xml:space="preserve" width="25in" height="39in" style="shape-rendering:geometricPrecision; text-rendering:geometricPrecision; image-rendering:optimizeQuality; fill-rule:evenodd; clip-rule:evenodd"
viewBox="0 0 0.678019 0.319156"
 xmlns:xlink="http://www.w3.org/1999/xlink">
 <defs>
  <style type="text/css">
   <![CDATA[
    .fil0 {fill:#141516}
   ]]>
  </style>
 </defs>
 <g id="Layer_x0020_1">
  <metadata id="CorelCorpID_0Corel-Layer"/>
  <path class="fil0" d="M0.295496 0.00585179l-0.00595223 0c-0.000807274,0 -0.00105173,0.000369527 -0.00105173,0.0015956l0 0.000530603c0,0.00268902 0.00658326,0.00478869 0.00875305,0.00478869l3.97952e-005 0.000638618 -0.00672349 0.000943715 2.84251e-005 0.000860334 0.0122531 0.000507863c-4.92703e-005,-0.00400795 -0.00137957,-0.00360999 -0.00348113,-0.00457076 -8.33804e-005,-3.97952e-005 -0.00643924,-0.00210346 -0.00351714,-0.00210346 0.0100985,0 0.0271972,0.0085446 0.0352339,0.0129638 0.00304528,0.00167519 0.0105116,0.00612467 0.0176615,0.0099507 -0.00100246,0.000464277 -0.00197081,0.00104984 -0.00289178,0.00176994 -0.00381655,0.00299222 -0.00585937,0.00778281 -0.00585937,0.0131495l0 0.0360734c-0.00181542,-0.0198502 -0.00711576,-0.0435303 -0.0134394,-0.0487472 -0.00966834,-0.0079761 -0.0292817,-0.0161644 -0.0421924,-0.0194068 -0.0141728,-0.00356072 -0.0324293,-0.00962475 -0.0480347,-0.0105344 -0.0166837,-0.00097214 -0.033464,-0.00426188 -0.0518115,-0.00426188l-0.00700396 0c-0.0368428,0 -0.0736003,0.0131552 -0.101489,0.0271915 -0.00318551,0.00160318 -0.00803105,0.00386392 -0.0111673,0.00590864 -0.00604508,0.00394731 -0.00485123,0.00147621 -0.00841384,0.010089 -0.00423345,0.0102387 -0.00703428,0.017563 -0.010307,0.0295527 -0.00274208,0.0100379 -0.00481522,0.023229 -0.00606024,0.0360071 -0.000735264,0.00751561 -0.00379949,0.00784724 -0.00774491,0.0111067 -0.00164676,0.00135683 -0.00801589,0.00730147 -0.00851807,0.00940304 -0.00170551,-5.87453e-005 -0.00411028,-0.00266059 -0.00664959,-0.00266059 -0.00352093,0 -0.00836836,0.00480385 -0.0103809,0.0076331 -0.00285957,0.00401363 -0.00545005,0.00691489 -0.00507484,0.0142088 0.000955085,0.0184669 0.0033409,0.0218798 0.00845174,0.0334791 -0.000547658,0.00357399 -0.0101535,0.00849722 -0.0101535,0.0276596l0 0.00638429c0,0.0072162 0.0101061,0.0112848 0.0144438,0.0131627 0.00343755,0.00148758 0.0154424,0.00704944 0.0184669,0.00704944 0.0052037,0.0118059 0.00604129,0.0171517 0.0153287,0.0240515 0.00719156,0.00534203 0.0144532,0.00839679 0.0252851,0.00839679l0.000701154 0c0.0228045,0 0.0260261,-0.0276596 0.0290581,-0.0276596l0.00700396 0 0.00350198 0.000513548c0.000695469,0.0127496 0.0106158,0.0241386 0.0169888,0.0289936 0.00521128,0.00397194 0.00699638,0.00457645 0.0129979,0.00737727 0.00469773,0.00219253 0.0019765,0.00163918 0.00423914,0.00738864 0.0009115,0.0023176 0.00298654,0.00507673 0.00428462,0.00679172 -0.0094182,0 -0.0238032,-0.000513548 -0.0324615,0.0012166 -0.00950537,0.0018988 -0.021677,0.000162971 -0.0315083,0.0021281 -0.00860903,0.00171877 -0.0582185,0.00365168 -0.0582185,0.0120807l0 0.000530603c0,0.0071385 0.0623629,0.00958306 0.0724709,0.00957548 0.0256755,-1.70551e-005 0.0514325,0.0015956 0.0773751,0.0015956l0.000350577 0 0.101887 -0.00219063 0.00139473 -0.000468067 3.03202e-005 0.000761794 0.0304206 -0.00266059 0.00176046 0.000303202c0.00221716,0 0.00259616,-0.0015956 0.00420313,-0.0015956l0.00280082 0c0.00223801,0 0.00266438,0.0010631 0.00490239,0.0010631l0.00595033 0 0.0125658 -0.00180405 3.97952e-005 0.000740949 0.0080519 0c0.0117377,0 0.0353609,-0.00659653 0.0353609,-0.0223422 0,-0.00484744 -0.00233086,-0.00754782 -0.00545384,-0.00820539 -0.00357588,-0.000754214 -0.00394352,-0.0035702 -0.00634449,-0.00684857 -0.00214705,-0.00292969 -0.00396815,-0.00481143 -0.00613415,-0.00599392 0.000390372,-0.00152359 0.000593138,-0.00314193 0.000593138,-0.0048209l0 -0.00450065 0.00238203 -0.00156528 0.0129031 0.0136213c0.000795904,0.000928555 0.00160697,0.00184574 0.00242182,0.00275345 0.00176804,0.00196892 0.0038355,0.00346597 0.00610004,0.00451202 0.00262459,0.00122607 0.00548226,0.00163729 0.00829067,0.00163729 0.00325942,0 0.00653399,-0.000634828 0.00942388,-0.00248436l4.73752e-005 -3.03202e-005c0.000699259,-0.000454802 0.00136062,-0.000966455 0.00197081,-0.00153117 0.000555238,0.000488913 0.00114838,0.000936135 0.00176804,0.00134167 0.00283493,0.00185332 0.00598065,0.00270418 0.00921543,0.00270418 0.00359483,0 0.00720293,-0.000824329 0.0101042,-0.00347166 0.00222095,-0.00201629 0.00401363,-0.00491755 0.00552395,-0.007671l0.00099488 -0.00183058 0.0205703 0 0.00102141 0.00184195 6.63253e-005 0.000111806c0.000604508,0.00102899 0.00124313,0.00203145 0.00187985,0.00303202 0.00103847,0.00162781 0.00222285,0.0031514 0.00361568,0.004368 0.00146484,0.00127724 0.00311919,0.00218116 0.00486828,0.00277429 0.00176994,0.000612088 0.00361757,0.000845174 0.00546142,0.000845174 0.00335796,0 0.00662874,-0.000869809 0.00954327,-0.00286904 0.000132651,-8.90655e-005 0.000261511,-0.000180026 0.000388477,-0.000274776 0.003303,0.00180405 0.00711955,0.00228159 0.0107182,0.00228159l0.0480158 0c0.00316467,0 0.00643166,-0.000494598 0.00925712,-0.00226643 0.00101762,-0.000631038 0.0019386,-0.00139852 0.00274397,-0.0022797 0.000689784,0.000822434 0.00147242,0.00156717 0.00234034,0.00222285 0.00300738,0.00226643 0.00646767,0.00318551 0.0100113,0.00318551 0.00356262,0 0.00707218,-0.000883075 0.0101099,-0.00314761 0.00396626,-0.00295432 0.00613225,-0.00781313 0.00613225,-0.0133105l0 -0.0399468c0,-0.00340154 -0.000830014,-0.00656052 -0.00240287,-0.00916995 0.00434526,-0.00137578 0.00857871,-0.00336364 0.0123668,-0.00623648 0.00401553,-0.00304528 0.00742086,-0.00696416 0.00979531,-0.0118666 0.00233465,-0.00484365 0.0034546,-0.0101629 0.0034546,-0.0157191 0,-0.0076312 -0.0020883,-0.0145992 -0.00628006,-0.0204358 -0.0013284,-0.00185332 -0.00281219,-0.00349819 -0.00441158,-0.00495735l0.0399942 0c0.0028861,0 0.00581768,-0.000473752 0.008393,-0.0020883 0.000551448,-0.000342997 0.00107258,-0.000727684 0.00156338,-0.00115027 0.000380897,0.000365737 0.000786429,0.000712524 0.0012147,0.00103278 0.00274018,0.00206746 0.0058878,0.002924 0.00912068,0.002924 0.00324805,0 0.00643545,-0.000824329 0.00920217,-0.0028861 0.00372369,-0.00277429 0.00578167,-0.00736401 0.00578167,-0.0125298l0 -0.0332877c0,-0.00517906 -0.00207125,-0.00978583 -0.00581958,-0.0125469 -0.00275913,-0.00203335 -0.00593328,-0.00283683 -0.00916427,-0.00283683 -0.00323857,0 -0.00640892,0.000841384 -0.00915479,0.00291642 -0.00109911,0.000828119 -0.0020504,0.00181542 -0.00284251,0.00292779 -0.00296569,-0.00356641 -0.00768616,-0.0051279 -0.0124256,-0.0051279l-0.0350349 0c-0.0028842,0 -0.0058082,0.000492703 -0.00838352,0.00209967 -0.00100057,0.000627248 -0.00190448,0.00138904 -0.00269091,0.00226454 -0.000691679,-0.000839489 -0.0014819,-0.00159181 -0.00236497,-0.00224369 -0.00275913,-0.00203335 -0.00593138,-0.00283683 -0.00916427,-0.00283683 -0.0032651,0 -0.00647904,0.000814854 -0.00924386,0.00293348 -0.00364979,0.00279135 -0.00562439,0.00735643 -0.00562439,0.0124502l0 0.0209531c0,1.70551e-005 0,3.79002e-005 0,5.68503e-005 -0.00133788,0.000415007 -0.00369716,0.000494598 -0.00467688,0.000494598 -0.00125071,0 -0.00343376,-5.49553e-005 -0.00479058,-0.000507863 -1.89501e-006,-7.76954e-005 -1.89501e-006,-0.000151601 -1.89501e-006,-0.000210346l0 -0.0207864c0,-0.00276861 -0.000593138,-0.00537614 -0.00171877,-0.00762931 0.00309266,-0.000920975 0.00610383,-0.00222664 0.00891413,-0.00401742 0.00417092,-0.00267196 0.00784155,-0.00632554 0.00999807,-0.011372l1.89501e-005 -4.16902e-005c0.0018969,-0.00448359 0.00259427,-0.00948073 0.00259427,-0.0144532l0 -0.0243869c0,-0.00551448 -0.00217926,-0.0103884 -0.00617205,-0.0133295 -0.00303202,-0.00223422 -0.00652641,-0.00309455 -0.010072,-0.00309455 -0.00357967,0 -0.00711387,0.000869809 -0.0101459,0.0031893 -0.00388856,0.00297517 -0.00595981,0.00781313 -0.00595981,0.0132347l0 0.025143c0,0.000331627 -2.84251e-005,0.00118249 -0.000159181,0.00154254 -0.00133409,0.000977825 -0.00570966,0.00115785 -0.00719346,0.00115785 -0.00190638,0 -0.00498388,-0.000100436 -0.00679361,-0.000905815 -0.000145916,-6.44303e-005 -0.000365737,-0.000168656 -0.000551448,-0.000280461 -0.000113701,-0.000523023 -0.000142126,-0.00135683 -0.000142126,-0.00171498l0 -0.0249421c0,-0.0054292 -0.00211104,-0.0102444 -0.00599771,-0.0132139 -0.00306234,-0.00233844 -0.00663443,-0.00321015 -0.0102444,-0.00321015 -0.00357588,0 -0.00708165,0.000898235 -0.0101061,0.00321015 -0.00274776,0.00209588 -0.00460487,0.00511274 -0.00546142,0.00861661 -0.000875495,-0.00357778 -0.00279514,-0.00664201 -0.00563197,-0.00873221 -0.00303202,-0.00223422 -0.00652452,-0.00309455 -0.0100701,-0.00309455 -0.00358157,0 -0.00711387,0.000869809 -0.0101478,0.0031893 -0.00388856,0.00297517 -0.00595791,0.00781313 -0.00595791,0.0132347l0 0.025143c0,0.000331627 -2.84251e-005,0.00118249 -0.000161076,0.00154254 -0.00133409,0.000977825 -0.00570777,0.00115785 -0.00719156,0.00115785 -0.00190638,0 -0.00498767,-0.000100436 -0.00679551,-0.000905815 -0.000144021,-6.44303e-005 -0.000365737,-0.000168656 -0.000551448,-0.000280461 -0.000113701,-0.000523023 -0.000142126,-0.00135683 -0.000142126,-0.00171498l0 -0.0249421c0,-0.0054292 -0.00210915,-0.0102444 -0.0059996,-0.0132139 -0.00306044,-0.00233844 -0.00663253,-0.00321015 -0.0102425,-0.00321015 -0.00357209,0 -0.00708165,0.000898235 -0.010108,0.00321015 -0.00269091,0.00205609 -0.00453097,0.00499525 -0.00540836,0.00841195 -0.000894445,-0.00348871 -0.00279703,-0.00647714 -0.00557701,-0.00852754 -0.00303391,-0.00223232 -0.00652831,-0.00309455 -0.0100739,-0.00309455 -0.00357399,0 -0.00707976,0.000898235 -0.0101061,0.00321015 -0.00388856,0.00296948 -0.0059996,0.0077847 -0.0059996,0.0132139l0 0.0043282 -0.0149422 0 0 -0.0043282c0,-0.0045954 -0.00151601,-0.00874737 -0.00433199,-0.0117055 0.000598823,0.000288041 0.00106689,0.000456697 0.00136441,0.000466172l0 -0.0010631c-0.000886865,-0.000111806 -0.0146731,-0.0110839 -0.0165321,-0.0126473 -0.00280082,-0.0023555 -0.00534393,-0.00392457 -0.00826035,-0.00606782 -0.00255826,-0.00187606 -0.00682014,-0.0031912 -0.00881748,-0.00522075l-0.00210157 0 7.01154e-005 -0.000540078 -0.00854081 -0.00158802 0.00249383 0.000735264 0.00100057 0.00150653c0.0039511,-0.000113701 0.0178396,0.00908089 0.0210687,0.0116069 0.00157665,0.00123365 0.00722378,0.00558459 0.0121186,0.00897287 -0.00186279,-0.000613983 -0.00381086,-0.000879285 -0.00577599,-0.000879285 -0.00144021,0 -0.00287473,0.000140231 -0.00427135,0.000460487 -0.00152738,-0.000845174 -0.00293348,-0.00164866 -0.00403827,-0.00237066 -0.0053174,-0.00347545 -0.010686,-0.00636344 -0.0161265,-0.00954516 -0.00790409,-0.00462761 -0.0259294,-0.0131457 -0.0361606,-0.0131457zm0.0748093 0.267786c-0.00102899,0.00191775 -0.00243888,0.0035702 -0.00419745,0.00485123 -0.00302254,0.00219821 -0.0064923,0.00306423 -0.0100151,0.00306423 -0.00201819,0 -0.00401174,-0.000344892 -0.00593896,-0.00103657 -0.00164866,0.00268333 -0.00302444,0.0056585 -0.00424103,0.00832099 0,-0.00349819 0.00089634,-0.00653589 0.00226264,-0.00916995 -0.00179647,-0.0009115 -0.00343186,-0.00217168 -0.00479816,-0.00386961l-9.28555e-005 -0.000115596 -9.09605e-005 -0.000119386c-0.00161644,-0.00213947 -0.0026189,-0.00474889 -0.0029638,-0.00757625 -0.000202766,-0.00168656 -0.000240666,-0.00344323 -0.000240666,-0.00514685l0 -0.00805 -3.03202e-005 3.79002e-006c1.13701e-005,-3.79002e-005 2.08451e-005,-7.39054e-005 3.03202e-005,-0.000109911l0 -0.0155126c-0.00243888,-0.00093803 -0.00499335,-0.00140041 -0.00703049,-0.00140041l-0.00105173 0c-0.00743791,0 -0.02054,0.00690731 -0.0210043,0.0154254 0.00159749,-0.00162592 0.004025,-0.0042543 0.00664959,-0.0042543l0.00245214 0c0.000985405,0 0.000648093,0.000229296 0.00104984,0.0010631 -0.00518664,0 -0.0114496,0.00519991 -0.011552,0.0122209l0.00314761 0.00107826c-0.00187606,0.00389046 -0.0065302,-0.00208262 -0.0099488,0.00828498 -0.00133409,0.00404964 -0.00279893,0.0154216 -0.00490618,0.0164847 -0.00502367,0.00253552 -0.0191036,0.010722 -0.0191036,0.0183153l0 0.0015956c0,0.00309834 0.0108641,0.00478679 0.0140041,0.00478679 0.00361568,0 0.00667612,-0.000631038 0.00970056,-0.00175099 0.00291832,-0.00108205 0.00559596,-0.00503694 0.00745497,-0.0056945 0.001101,0.00122797 0.00220769,0.00531929 0.00385066,0.00531929l0.00175099 0c0.00180594,0 0.00337691,-0.00252984 0.00455181,-0.00372369 0.00243698,0.000989195 0.00713092,0.00403827 0.0108887,0.00355883l0.0094163 -0.00249573 0.000367632 -0.000166761 0.00593517 0.00123176 0.00735264 0c0.0086185,0 0.032562,-0.00645251 0.032562,-0.0159579l0 -0.0031912c0,-0.00172446 -0.00152359,-0.0031912 -0.00280272,-0.0031912l-0.00279893 0c-0.00274587,0 -0.0051279,0.00203903 -0.00770511,0.0021281l-0.000248246 -0.000680309 0.00550121 -0.00410838c-0.000174341,-0.00318551 -0.00468067,-0.00809548 -0.00816749,-0.0104112zm-0.0303164 -0.0390562l0 -0.00943336c0,-0.0044438 0.00140231,-0.00849154 0.00404964,-0.0114515 -0.00256774,-0.00288989 -0.00394731,-0.00681825 -0.00394731,-0.0111446l0 -0.0391073c0,-0.00338638 0.000646198,-0.00669507 0.00225696,-0.00954706l9.28555e-005 -0.000161076 9.66455e-005 -0.000159181c0.00103089,-0.00168087 0.00231002,-0.00304528 0.00374833,-0.0041406 -0.00211862,-0.00202198 -0.00387909,-0.00448738 -0.00516959,-0.00739243l-2.27401e-005 -5.49553e-005c-0.00175288,-0.00400037 -0.0024692,-0.00841384 -0.0024692,-0.012888l0 -0.00533066c-0.000280461,0.0019386 -0.000579873,0.00372748 -0.00089255,0.00529466 -0.000744739,0.00373317 -0.00127534,0.029185 -0.00158233,0.0348284 -0.000559028,0.0102122 -0.00247678,0.0224009 -0.00461245,0.0302292 -0.00160507,0.00589159 -0.00336933,0.00665717 -0.00183058,0.0129429 0.00092287,0.00377486 0.00185142,0.0108508 0.00185142,0.015812l0 0.00691489c0,0.00491945 -0.000655673,0.00243319 0.00353609,0.00367063 0.00134735,0.000397952 0.00333522,0.000682204 0.00489481,0.00111806zm0.000600718 -0.133905c0.000697364,-0.00127534 0.00157286,-0.00242751 0.00261701,-0.0034167 -0.00122797,-0.00165245 -0.00211483,-0.00357209 -0.00264543,-0.00566797 6.44303e-005,0.00162402 0.000100436,0.00319309 0.000100436,0.00468636 0,0.00140231 -2.46351e-005,0.00287662 -7.20104e-005,0.00439832zm0.217291 0.135251c-0.000161076,0.000187606 -0.000322152,0.000375212 -0.000487018,0.000557133 -0.00190069,0.00206556 -0.00431873,0.003989 -0.0064563,0.00571156l-0.0127212 0.0103847 0.0114155 0c0.0027724,0 0.0056585,0.000356262 0.00824898,0.00162023l0 -0.0182736zm-0.0210896 -0.0263387c-0.00365547,-0.00279703 -0.00677087,-0.00633312 -0.00907141,-0.0106689l0 0.00325563c0,0.00267007 -0.000509758,0.00519043 -0.00149137,0.00741328l0.0105628 0zm-0.0396133 0.000651883c-0.00118438,-0.00237634 -0.00180405,-0.005126 -0.00180405,-0.00806516l0 -0.00340533c-0.00096835,0.0019348 -0.00212052,0.00373885 -0.00343944,0.00540078l-3.22152e-005 3.79002e-005c-0.0024294,0.00303391 -0.00533066,0.0054671 -0.00845364,0.00742086l-2.65301e-005 1.51601e-005c-0.00263785,0.00163539 -0.00543489,0.00287662 -0.0083172,0.00377296 -0.00162213,0.000515443 -0.003267,0.00092666 -0.00492513,0.00124692 0.000466172,0.000621563 0.000909605,0.00127155 0.00132651,0.00194618l3.41102e-005 5.68503e-005 3.41102e-005 5.87453e-005c0.000797799,0.00133409 0.00156149,0.00270418 0.00232707,0.00406669l0.0169319 0.0286961c0.000502178,-0.000405532 0.00100246,-0.000812959 0.00150464,-0.0012166l0.015323 -0.0125734 -0.00502936 0c-0.00310024,0 -0.00629143,-0.000466172 -0.00908468,-0.00213757 -0.00391509,-0.00231191 -0.00650367,-0.0066079 -0.00650367,-0.0118287 0,-0.00518096 0.00249952,-0.00945799 0.00634449,-0.0118628 0.00119954,-0.000748529 0.00247488,-0.00127345 0.00379002,-0.00162971zm-0.0820179 0.0446881l0.0184005 -0.0320295c0.000642408,-0.0011389 0.00129808,-0.00227022 0.00194618,-0.00340533 0.000337312,-0.000587453 0.000685994,-0.00116354 0.00105363,-0.00172256 -0.0029638,-3.79002e-006 -0.00616636,-0.000267196 -0.00897666,-0.00142315 -0.00329732,-0.00135683 -0.00610004,-0.00381655 -0.00763499,-0.00757625 -0.000415007,-0.00100246 -0.000733369,-0.00204093 -0.00096456,-0.00310213 -0.000725789,0.00403258 -0.00259237,0.00709681 -0.00516011,0.00923059 0.00167519,0.0023176 0.00267007,0.00520749 0.00267007,0.00848964 0,0.00617773 -0.00351145,0.0105457 -0.00783018,0.0133731l-2.08451e-005 1.51601e-005 -0.00711387 0.00462572 0.0112241 0.0110365c0.000816749,0.000788324 0.0016316,0.00161644 0.00240666,0.00248815zm-0.0267196 -0.0416788c-0.000208451,-0.000183816 -0.000415007,-0.000373317 -0.000617773,-0.000564713 -0.00088497,-0.000839489 -0.00175857,-0.00169603 -0.0026208,-0.00256584l-7.39054e-005 -7.01154e-005 -0.0136535 -0.0143623 0 0.00686562c0,0.0041387 -0.00126397,0.00790219 -0.00361757,0.010739 0.00283114,0.0028861 0.00439263,0.00695469 0.00447601,0.01148l0.0161076 -0.0115217zm0.139279 -0.0478831c0.00241614,-0.00450065 0.00568882,-0.00811443 0.00952621,-0.0109361 0.000684099,-0.000504073 0.00137957,-0.00097972 0.00208451,-0.00143073 -0.000661358,-0.000363842 -0.00131135,-0.000759899 -0.00194428,-0.00119007l-2.27401e-005 -1.32651e-005c-0.00344134,-0.00234413 -0.00624406,-0.00559975 -0.0080898,-0.00975172l-2.46351e-005 -5.49553e-005c-0.000183816,-0.000420692 -0.000356262,-0.000845174 -0.000517338,-0.00127534 -0.000145916,0.000399847 -0.000301307,0.000797799 -0.000468067,0.00119007l-1.51601e-005 3.79002e-005c-0.00134925,0.0031533 -0.0033428,0.00570587 -0.00569071,0.00777523 0.00335038,0.00298275 0.00516201,0.0074815 0.00516201,0.0125127l0 0.00313624zm-0.0317679 -0.00788893c-0.00229865,-2.08451e-005 -0.00461435,-0.000121281 -0.00692058,-0.000344892 0.00258669,0.00247488 0.00472047,0.00533824 0.0063426,0.00857492l0 -0.00347734c0,-0.00165434 0.000195186,-0.00324994 0.000577978,-0.00475268zm-0.0769393 0.00092287c7.58004e-005,-0.000312677 0.000162971,-0.000619668 0.000255826,-0.00092287 -0.000134546,1.89501e-006 -0.000272881,3.79002e-006 -0.000405532,3.79002e-006 -1.51601e-005,0 -2.84251e-005,0 -4.16902e-005,0 7.20104e-005,0.000303202 0.000136441,0.000610193 0.000191396,0.00091908zm0.0480669 -0.011118c-0.00125071,-0.00154822 -0.00232328,-0.00329542 -0.00318741,-0.00523781l-2.46351e-005 -5.49553e-005c-0.00123744,-0.00282735 -0.00195565,-0.00586127 -0.00227401,-0.00897666 -0.00119575,0.00111048 -0.00253363,0.0020883 -0.00398331,0.002924l-2.46351e-005 1.51601e-005c-0.0062649,0.00358157 -0.0141917,0.00435473 -0.0210687,0.00435473l-0.00274397 0 0 0.00175857c0,0.00166003 -0.000214136,0.00325373 -0.000629143,0.00474889 0.00106121,-0.000104226 0.00212052,-0.000145916 0.00316277,-0.000145916l0.0195167 0c0.00373127,0 0.00752319,0.000145916 0.0112564,0.000613983zm-0.0627855 -0.00146674c-7.95904e-005,-0.000390372 -0.000151601,-0.000786429 -0.000204661,-0.00119007 -0.000246351,0.000407427 -0.000507863,0.000801589 -0.000778849,0.00118438 0.000121281,-1.89501e-006 0.000244456,-3.79002e-006 0.000365737,-3.79002e-006 0.000206556,0 0.000413112,3.79002e-006 0.000617773,9.47505e-006zm-0.0150331 0.00968919c-0.00101952,0.000320257 -0.0020504,0.000591243 -0.00308697,0.000818644 -0.00312298,0.000691679 -0.00633312,0.00101383 -0.00952432,0.00111806l0.0115254 0.0119689 0 -0.00752319c0,-0.00226075 0.000367632,-0.00442106 0.00108584,-0.00638239zm0.258906 -0.0340533c-0.00115217,0.00103468 -0.00237255,0.0020125 -0.00351335,0.00293158l-0.00680498 0.00555427 0.00489481 0c0.00181352,0 0.00365926,0.000176236 0.00542352,0.000703049l0 -0.0091889zm-0.0522094 -0.00213947l0 0.00754024 0.0072143 -0.00591812c-0.0024673,-3.79002e-005 -0.00495166,-0.000439642 -0.0072143,-0.00162213zm-0.0886732 -0.023644c-0.00318172,-0.0025052 -0.00579304,-0.00577599 -0.00758572,-0.00981615l-2.46351e-005 -5.30603e-005c-0.00105173,-0.00240098 -0.00176615,-0.0049365 -0.00220769,-0.00754214 -0.000405532,0.00257721 -0.00107447,0.00509 -0.00207883,0.00746255l-1.51601e-005 3.79002e-005c-0.00204282,0.00477732 -0.00544057,0.00830583 -0.00933482,0.0109361 0.00337122,0.00281219 0.00521507,0.00719535 0.00521507,0.0120845l0 0.0207864c0,5.87453e-005 1.89501e-006,0.000132651 3.79002e-006,0.000210346 0.00135683,0.000452907 0.00353798,0.000507863 0.00479058,0.000507863 0.000981615,0 0.0033409,-7.95904e-005 0.00467878,-0.000494598 0,-1.89501e-005 0,-3.97952e-005 0,-5.68503e-005l0 -0.0209531c0,-0.00509379 0.00197271,-0.00966076 0.0056206,-0.0124521 0.000308887,-0.000234981 0.000621563,-0.000452907 0.00093803,-0.000657568zm-0.0802575 -0.0015577c-0.00237255,-0.00225696 -0.00434336,-0.00500851 -0.00578736,-0.00825845l-2.46351e-005 -5.30603e-005c-0.000653778,-0.00149516 -0.0011787,-0.00304149 -0.00158802,-0.00462382l0 0.00564713c0,0.0026568 -0.000505968,0.00516201 -0.00147621,0.00737538 0.000790219,-6.25353e-005 0.00158044,-8.71705e-005 0.00236118,-8.71705e-005l0.00651504 0zm-0.0384156 -0.000212241c-0.000879285,-0.00214515 -0.00133219,-0.00454613 -0.00133219,-0.00707597l0 -0.00684478 -0.0149422 0 0 0.00684478c0,0.00550879 -0.00216789,0.0103524 -0.00613983,0.0133049 0.00124692,0.00206746 0.00200303,0.00449496 0.00221716,0.00710818 0.00419366,0.00187795 0.00804432,0.00407238 0.00953569,0.005812l0 -0.00426946c0,-0.00509379 0.00197081,-0.00965886 0.00562249,-0.0124502 0.00156149,-0.00119575 0.0032651,-0.0019765 0.00503883,-0.0024294zm-0.0201345 0.0164373l0 0.0192287c0,5.87453e-005 0,0.000132651 1.89501e-006,0.000210346 0.00135872,0.000452907 0.00353988,0.000507863 0.00479248,0.000507863 0.00097972,0 0.00333901,-7.95904e-005 0.00467878,-0.000494598 0,-1.89501e-005 0,-3.97952e-005 0,-5.68503e-005l0 -0.015992 -0.00185521 -0.000329732 -0.00761794 -0.00307371zm0.0823173 0.0648567l0 0.0140193 0.00265301 0c0.00177752,0 0.00358157,-5.68503e-006 0.00535719,-0.000125071 0.00104226,-7.01154e-005 0.00208072,-0.000238771 0.00310592,-0.000485123 0.000562818,-0.000142126 0.00123176,-0.000346787 0.0017472,-0.000657568l5.30603e-005 -3.03202e-005 5.49553e-005 -3.22152e-005c0.00221148,-0.00128292 0.00267765,-0.00301686 0.00267765,-0.00586885 0,-0.000765584 -0.000102331,-0.00328974 -0.000640513,-0.00389993 -0.00103278,-0.00116733 -0.00225127,-0.00176425 -0.00364789,-0.00206556 -0.00330869,-0.000684099 -0.00681825,-0.000854649 -0.0101686,-0.000854649l-0.00119196 0zm0.129228 0.00337691c-0.000871705,-0.0013303 -0.00222853,-0.00216789 -0.00355125,-0.0027345 -0.00257911,-0.00111048 -0.00545194,-0.00146863 -0.00818455,-0.00146863 -0.0020523,0 -0.00411975,0.000233086 -0.0061133,0.000830014 -0.00132461,0.000411217 -0.00268523,0.00100625 -0.00382602,0.00191585 -0.000689784,0.000562818 -0.00120712,0.00124123 -0.00161265,0.00210536 -0.000399847,0.00088876 -0.000532498,0.00187037 -0.000532498,0.00286715 0,0.00104984 0.000142126,0.00206935 0.000559028,0.00300549 0.000416902,0.00090013 0.00097972,0.00158423 0.00170551,0.00216221 0.00119196,0.000947505 0.00254879,0.00157665 0.00393973,0.00199545l4.35852e-005 1.32651e-005c0.00195565,0.000600718 0.0040269,0.000812959 0.00604319,0.000812959 0.00262269,0 0.00523591,-0.000397952 0.00772027,-0.00140989 0.00144779,-0.000587453 0.00277619,-0.00145158 0.00375022,-0.00286525l3.41102e-005 -4.92703e-005c0.000725789,-0.00104036 0.000890655,-0.00235171 0.000890655,-0.00366495 0,-0.00130945 -0.000200871,-0.00245783 -0.000866019,-0.00351524zm0.0397308 0.0772671c0.00244267,0.00261322 0.00396247,0.00612846 0.00396247,0.0102615 0,0.00567366 -0.00275155,0.0102994 -0.00696416,0.0128614 -0.00289178,0.00175857 -0.00605266,0.00252226 -0.00929502,0.00252226 -0.0032291,0 -0.00639376,-0.000748529 -0.00928934,-0.00246541 -0.00428462,-0.0025431 -0.00705702,-0.00720862 -0.00705702,-0.0129183 0,-0.0039511 0.00138715,-0.00736211 0.00365737,-0.00995449 -0.000718209,-0.00187037 -0.00117491,-0.00387909 -0.00146863,-0.00591812l-3.97952e-005 -0.000269091 -0.00165055 -0.0169149c-0.000238771,-0.00261701 -0.000498388,-0.0053913 -0.000498388,-0.00802158 0,-0.00549932 0.00230623,-0.0102274 0.0062668,-0.0131343 0.00313056,-0.00229865 0.00673676,-0.00315898 0.0103884,-0.00315898 0.00465414,0 0.00932155,0.00132651 0.0124483,0.00568882 0.00253363,0.00353798 0.00350198,0.00795904 0.00350198,0.0125052 0,0.00210536 -0.000162971,0.00420124 -0.000473752,0.00627438l-0.00213947 0.0168182c-0.000231191,0.00202008 -0.000659463,0.0039871 -0.00134925,0.00582337zm-0.42509 -0.14945l-0.0147053 0 0 -0.0015956 0.0129543 0c0.00134925,0 0.0014421,0.000293727 0.00175099,0.0015956zm-0.0140344 -0.0122967l3.03202e-005 0.000593138 0.0105021 0c0.00479627,0 0.00770511,-0.000720104 0.00770511,0.00691489 0,0.00298275 -0.0113776,-0.000227401 -0.014006,0l-0.0357247 0.0028482 -0.0020883 0.000344892c-0.0018609,0 -0.000348682,-0.00128671 -0.000348682,-0.00266059 0,-0.00162213 -0.000335417,-0.00214705 -0.000739054,-0.00391888l0.0346692 -0.00412165zm-0.0362572 0.0117794l-0.0109778 0.00264543c-0.000507863,-0.00115406 -0.00105173,-0.00177183 -0.00105173,-0.00372369l0 -0.00159749c0,-0.00234602 0.00546142,-0.00264543 0.00707786,-0.00327268l0.000977825 0.00274208c0.00253173,-0.000320257 0.00238961,-0.0048986 0.00366495,-0.00743412l0.000308887 0.0106405zm0.00757814 -0.0356546c0.00122039,0 0.00280082,0.000761794 0.00280082,0.00266059l0 0.000530603c0,0.00206746 -0.00115975,0.00159749 -0.00245025,0.00159749l-0.00100815 0.0011389 -0.0014421 -0.003267c0.000521128,-0.00118249 0.000852754,-0.00266059 0.00209967,-0.00266059zm-0.00945231 0.00266059c0,-0.00642787 0.0061891,-0.0164904 0.0101535,-0.0164904l0.00314951 0c0.00255447,0 0.00595412,0.00616447 0.00595412,0.0101061l0 0.00531929c0,0.00841574 -0.00620616,0.0175535 -0.0126037,0.0175535 3.41102e-005,-0.00239719 0.00233655,-0.00807274 0.00322152,-0.00946557 0.00114269,-0.00179457 0.00483038,-0.000866019 0.00483038,-0.0064923 0,-0.00325184 -0.00295811,-0.00638239 -0.00490239,-0.00638239l-0.000699259 0c-0.00187795,0 -0.00459729,0.00488913 -0.0031533,0.00904299l-0.00401363 0.010053 -0.000538183 -0.000479437c-0.000435852,-0.00285199 -0.00139852,-0.00259427 -0.00139852,-0.00638239l0 -0.00638239zm0.00245025 -0.028194c0,-0.00336364 0.00243888,-0.0108338 0.00332953,-0.0140894 0.0018211,-0.00664769 0.00121091,-0.00766342 0.00628006,-0.0096058 0.00625732,-0.00239529 0.0146693,-0.00396436 0.0222493,-0.00396436l0.0126056 0 0.00454613 0.000615878c-0.000159181,7.58004e-005 -0.0261796,0.00635397 -0.0289046,0.00705891 -0.0123365,0.0031893 -0.0135986,0.00861282 -0.0201061,0.0199848zm0.0584686 0.00851238l0 0.0015956c0,0.00452339 -0.00376728,0.0232991 -0.00480953,0.0277998 -0.000547658,0.00236308 -0.00097214,0.00442864 -0.0015558,0.00669317 -0.0009115,0.0035323 -0.00230244,0.00399847 -0.00168656,0.000761794 0.000735264,-0.0038715 0.00202008,-0.00867725 0.00280272,-0.0129126 0.00260753,-0.0141292 0.00549932,-0.043805 0.00454992,-0.0611728l0.00665148 0 0 0.0122342c0,0.000284251 -0.00130756,0.017671 -0.00138715,0.0181068 -0.000909605,0.00507673 -0.00111806,0.01184 -0.0018211,0.0174455 -0.000712524,0.00568692 -0.00183816,0.0107523 -0.00279135,0.0159711 -0.000502178,0.00274587 -0.000894445,0.00518096 -0.00141178,0.00799505 -0.000782639,0.00426946 0.000234981,0.00431304 -0.00274208,0.00431304 0.000104226,-0.0018969 0.00160128,-0.0079742 0.00202956,-0.0096835 0.000845174,-0.00337122 0.000725789,-0.00674244 0.00133788,-0.0102027 0.000555238,-0.00316088 0.000909605,-0.00722567 0.00150085,-0.00995449 0.000519233,-0.00239908 0.000299412,-0.00294485 0.000430167,-0.00584042 0.000164866,-0.00360999 0.000966455,-0.00307939 -0.00109721,-0.00314951zm-0.0724728 0.046278c-0.00098351,0.000123176 -0.00912068,0.0037218 -0.00490239,0.0037218l0.00140231 0c0.00120523,0 0.00135304,-0.000392267 0.00245025,-0.000530603 0.000651883,0.0014819 0.00104984,0.00224369 0.00104984,0.00478679l0 0.0021281 -0.00104984 0c-0.000663253,0 -0.00531361,0.00206177 -0.00557891,0.00292779l0.00487776 -0.00133219 0.00140231 0c0.00211104,0 0.00169603,0.0130111 0.00314951,0.0164885 0.000206556,-0.00134546 0.000432062,-0.00128671 0.000301307,-0.00265301l-0.000856544 -0.0143395 0.000168656 -0.000632933 0.036098 -0.00471478 0.0080519 0 -0.000303202 0.000280461 0.00170551 0.00397573 0.00454992 0c0.000619668,0.00178131 0.000992985,0.0031912 0.00279893,0.0031912l0.000703049 0c0.00362326,0 0.00354556,-0.00183626 0.00544815,-0.00289178 0.00130756,-0.000725789 0.00231381,0.000219821 0.00339207,-0.000699259 0.0011787,-0.00100815 0.000396057,-0.00279135 0.0020125,-0.00279135l0.000350577 0c0.00206556,0 0.00146295,0.0114913 0.00280082,0.0138298 0,-0.0203676 0.000712524,-0.0127307 0.0115539,-0.0122361 0.0047072,0.000214136 0.015179,0.00264164 0.0193196,0.00415955 0.00617205,0.00226264 0.0122891,0.0031514 0.0182338,0.0058101 0.00261511,0.00116922 0.0158063,0.00786998 0.016714,0.00599013 -0.00130187,0 -0.0126227,-0.00692816 -0.0156338,-0.0081656 -0.00561681,-0.00230812 -0.011444,-0.00471857 -0.0173033,-0.00615878 -0.00495545,-0.00121849 -0.0136668,-0.00265491 -0.0184024,-0.00448359 -0.00254879,-0.000981615 -0.00680309,-0.000379002 -0.00957927,-0.0014061 -0.00488913,-0.00180784 -0.00560354,0.00237824 -0.00560354,-0.00797989l0.00105173 0c0.0100511,0 0.0225734,0.00350387 0.0328974,0.00480764 0.00922112,0.00116543 0.0226605,0.00441537 0.0317717,0.00705133 0.0100113,0.00289557 0.021082,0.00483038 0.0305248,0.00894255 0.00734316,0.00319688 0.0222872,0.00808222 0.0280461,0.0127117 -0.000420692,-0.00767858 -0.0477827,-0.0231589 -0.0567176,-0.0244722 -0.0101194,-0.00148569 -0.0213966,-0.0048228 -0.0319347,-0.00680309 -0.00403827,-0.000759899 -0.0315709,-0.00494029 -0.0328367,-0.00595981 0.000820539,-0.0053553 0.00286146,-0.0104623 0.00348303,-0.0170494 0.000468067,-0.00497819 0.00164297,-0.0135569 0.00239529,-0.0187019 0.00137578,-0.00940683 0.00287473,-0.0295337 0.00287473,-0.0403144l0.0017472 0c0.0189463,0 0.0408242,0.00474131 0.0584175,0.00805948 0.00530792,0.00100246 0.0224066,0.00545573 0.0266571,0.00790788 0.00173014,0.000996775 0.0241348,0.0116922 0.0241633,0.0116922l0 -0.0010631c-0.000974035,-0.000344892 -0.0101156,-0.00638239 -0.0118173,-0.00758004 -0.00306044,-0.00215463 -0.00925144,-0.00456697 -0.0129467,-0.00586127 -0.00910173,-0.00318551 -0.018554,-0.00585369 -0.0282091,-0.00873979 -0.00662685,-0.00198029 -0.0235948,-0.00551069 -0.0303429,-0.00549363 -0.0101933,2.46351e-005 -0.021317,-0.00264543 -0.0322227,-0.00264543 -0.0143547,0 -0.0551789,-0.0049384 -0.0609321,0.00742465 -0.00456508,0.00981047 -0.0153913,0.0631171 -0.0153913,0.0798121zm-0.0689727 0.0377657c0.00177941,-0.000720104 0.00363463,-0.00326889 0.00633123,-0.00420882 0.00214326,-0.000744739 0.00452149,-0.00244267 0.00695469,-0.003267 0.00323857,-0.001101 0.010938,-0.00582147 0.0143736,-0.00582147l0.00665148 0c0.000826224,0 0.00280461,0.00248246 0.00420124,0.0026587 -0.000598823,-0.00340912 -0.00526813,-0.00638239 -0.0080519,-0.00638239 -0.00743791,0 -0.0293215,0.00959822 -0.0304604,0.017021zm0.0745743 0.0244684c0.00202198,-0.00205609 0.00405532,-0.00556564 0.00644303,-0.00776386 0.00290505,-0.00267386 0.00484365,-0.00371801 0.00802347,-0.00589348 0.00428083,-0.00292779 0.0139492,-0.00495924 0.0201951,-0.00495924 -0.00101762,-0.00146674 -0.001065,-0.0021281 -0.0031514,-0.0021281l-0.00209967 0c-0.00689973,0 -0.0127004,0.00233465 -0.0176482,0.00563576 -0.00323289,0.00215842 -0.0116808,0.00950726 -0.0117623,0.0151089zm0.116238 0.00851049c0.0028482,-0.00115596 0.0100303,-0.0102842 0.015486,-0.0121072 0.00241235,-0.000805379 0.00703996,-0.00330869 0.00935566,-0.00333901 0.002202,-2.84251e-005 0.00936893,-0.000977825 0.0101629,-0.00256395l-0.00384497 -0.000606403 -0.0031514 0c-0.00814096,0 -0.0265188,0.0101459 -0.0280082,0.0186166zm-0.185561 -0.026064c0,-0.00142315 0.00293158,-0.00233276 0.00385255,-0.0026587l0 0.0015956c0,0.00276292 -0.00093045,0.00384687 -0.00210157,0.00478679 -0.000962665,-0.00097972 -0.00175099,-0.00122228 -0.00175099,-0.00372369zm0.0136024 -0.0048626c0.00154443,-0.000157286 0.00257153,-0.000456697 0.00460487,-0.000456697 0.00119954,0 0.00245025,0.00896529 0.00245025,0.0117036l0 0.0058499c0,0.0187758 -0.0159674,0.0158612 -0.0164563,0.00691489 0.00404774,-0.000136441 0.00700396,-0.0101402 0.00700396,-0.017021l0 -0.00372369c0,-0.00392078 -0.00133219,-0.0028861 0.00239719,-0.003267zm0.00845553 -0.000456697l0.00140041 0c0.00165624,0 0.00525297,0.0141462 0.00525297,0.0159579l0 0.00904299c0,0.00783208 -0.00846311,0.017021 -0.0136554,0.017021l-0.00140231 0c-0.00324615,0 -0.0102691,-0.00849912 -0.010504,-0.0127648 0.00144779,0.000794009 0.00462382,0.0058499 0.00700585,0.0058499l0.00279893 0c0.00401363,0 0.00980289,-0.00989195 0.00980289,-0.0164885l0 -0.00797989c0,-0.00232518 -0.00281788,-0.0106386 -0.000699259,-0.0106386zm-0.0521658 0.0106386c0.000784534,0.000278566 0.000803484,0.000532498 0.00175099,0.000532498l0.00488723 -0.000195186 0.0182186 -0.00246541c0.000837594,0.01527 0.00910173,0.0377675 0.0199563,0.0377675 0.00826982,0 0.0171555,-0.0110214 0.0171555,-0.0239378 0,-0.00488534 -0.000894445,-0.00954706 -0.00178889,-0.0132385 -0.00173772,-0.00717072 -0.00361568,-0.00803674 0.000739054,-0.00803674l0 -0.0021281c-0.0029619,-0.000375212 -0.00428083,-0.0021281 -0.00805379,-0.0021281l-0.00910363 0c-0.00295432,0 -0.00808222,0.00229296 -0.0107618,0.00332764 -0.00502557,0.00194049 -0.00278377,0.00385066 -0.0102198,0.00468636 -0.00258669,0.000291832 -0.0222114,0.00463709 -0.0227799,0.00581579zm0.0126018 0.0361719l-0.00595033 0c-0.00261322,0 -0.00637671,-0.00255068 -0.0080519,-0.00425619 -0.00146484,0.00480953 0.0099886,0.0096437 0.0144343,0.00863556 0.00434336,-0.000985405 0.00532877,-0.000437747 0.00890465,-0.0029638 0.00144968,-0.00102331 0.00642029,-0.00454044 0.00642029,-0.00673486 0,-0.00147242 -0.00097972,-0.00319309 -0.00175099,-0.00319309 -0.000416902,0 -0.00578546,0.00402311 -0.00670644,0.0047072 -0.00092287,0.000682204 -0.00640134,0.00380518 -0.00729958,0.00380518zm0.0126227 0.0340533c-0.00131893,-0.00105742 -0.00111427,-0.00213757 -0.00211862,-0.00213757l-0.000348682 0c-0.000816749,0 -0.00175099,0.00141936 -0.00175099,0.0026587l0 0.001065c0,0.00172825 0.000303202,0.000401742 0.000699259,0.0026587l0.00243319 -9.47505e-006 0.00108584 -0.00423535zm0.198845 0.0659482c0.00877769,0 0.011912,-0.000246351 0.0186526,-0.00357588 0.00654536,-0.0032291 0.00888002,-0.00711955 0.0139094,-0.0107864 -0.000365737,0.00669696 -0.0120011,0.0202141 -0.0182073,0.0202141l-0.00560165 0c-0.00256774,0 -0.00857302,-0.00260185 -0.00875305,-0.00585179zm-0.104332 -0.0276596c0.00411975,0 0.0115349,-0.00311161 0.0144134,-0.00523023 0.00155959,-0.00114838 0.00472615,-0.00353988 0.00586506,-0.00491945 0.00154064,-0.00187037 0.00317035,-0.00452907 0.0052795,-0.00527571 -0.00273071,0.0178074 -0.0266306,0.0248284 -0.027309,0.0154254l0.00175099 0zm0.157201 -0.0414912c0.00729389,0 0.0111048,-0.00523212 0.0136554,-0.00531929l0.00120902 0.0148626 -0.000159181 0.00162781c0,0.00606972 -0.00101952,0.00594654 -0.00415386,0.0064563 -0.00108584,0.000178131 -0.00500851,0.00248436 -0.00627248,0.00323478 -0.00426567,0.00253173 -0.00672349,0.00614931 -0.0095319,0.0110536l0.00409701 -0.0318418 0.00115596 -7.39054e-005zm-0.121489 0.00797989c0,-0.0127951 -0.00116164,-0.0141121 0.00620426,-0.0126189 0.00422208,0.000856544 0.00918701,0.00201819 0.0134754,0.00293348 0.00617773,0.00131893 0.0207864,0.00491945 0.0251354,0.0080898 -0.000992985,0.00647335 -0.00207504,0.0137881 -0.00525297,0.017021l-9.09605e-005 0.000547658 -0.0394712 -0.015973zm0.0829749 -0.00904299l-0.000699259 0 -0.000288041 -0.00215273 0.000541973 -0.00112943 9.66455e-005 0.00168656c0,0.0010252 0.000111806,0.000947505 0.000348682,0.0015956zm0 0c0.0012924,0.000708734 0.00149895,0.00372369 0.0031533,0.00372369l0.00245025 0c0.00123744,0 0.00374264,-0.00335417 0.00385066,-0.00531929 -0.00235171,7.95904e-005 -0.00202198,0.0015956 -0.00385066,0.0015956l-0.000701154 0c-0.00128671,0 -0.0063028,-0.00441158 -0.0063028,-0.00585179 0,-0.0165548 0.0137748,-0.0129107 0.0126056,-0.0010631l-0.000390372 0.00477732c-0.00127155,0.000183816 -0.00157286,0.00745686 -0.00591243,0.00745686 -0.00239529,0 -0.0047091,-0.00180594 -0.00490239,-0.00531929zm0.0227591 -0.00957548l0.000699259 0 0 0.00372369 -0.000699259 0 0 -0.00372369zm-0.268889 0.0164904c0.000557133,-0.0031533 0.00172067,-0.00531929 -0.00244835,-0.00531929l-0.000551448 0.00173962 -0.00292779 -0.0139549 0.0374378 0.00372748 0.00352472 0.025503 -0.0119196 0.00122228c-0.00160507,-1.32651e-005 -0.0139965,-0.00101004 -0.0152378,-0.00148 -0.00460866,-0.0017453 -0.00997723,-0.000270986 -0.00997723,-0.00877769l0 -0.00266059 0.00209967 0zm0.138997 -0.0138298c0,0.0124881 -0.00272123,0.0196816 0.00510137,0.00455939 0.00302065,-0.00583474 0.0050502,-0.0135645 0.0050502,-0.0237085l0.000701154 0c0.00132461,0.00863556 0.00310971,0.0144589 0.000981615,0.0248947 -0.00128861,0.00631228 -0.00411786,0.0144646 -0.00743412,0.0179628 -0.00415386,0.00438126 -0.00853891,0.00718777 -0.0144343,0.00377107 -0.00339775,-0.00196892 -0.00852186,-0.0100796 -0.00852186,-0.0163103l0.000699259 0 -0.000549553 0.000665148 0.00526244 0.0100909 0.000335417 -0.000540078 -0.00325942 -0.0141178 0.000663253 -0.000352472c0.00124123,0.000439642 0.00244835,0.0015956 0.00349819,0.0015956l0.00210346 0c0.00447791,0 0.00883075,-0.00811633 0.00980289,-0.00851049zm0.128707 -0.00685804c0.000684099,0.000553343 0.000835699,4.16902e-005 0.000835699,0.00153875l-0.000236876 0.00169603 -0.000598823 -0.00323478zm-0.29431 0.0116448c0,-0.0100928 0.00164676,-0.0120523 0.00279893,-0.0186166 0.00187037,0.000236876 0.0069111,0.00204661 0.0100132,0.00287283 0.0033049,0.000879285 0.00690731,0.00111048 0.0102406,0.00199545 0.00451581,0.00119575 0.0170172,0.00204661 0.022111,0.00204661l0.0273071 0 0.0490372 -0.005469 0.000680309 -0.000382792c0.00345271,0 0.00469394,0.00173204 0.00665148,0.00372369 -0.001065,0.00337122 -0.00158612,0.00806706 -0.00301686,0.0124369 -0.000939925,0.00287662 -0.00316277,0.00758383 -0.00462951,0.0094561 -0.00399658,0.00510516 -0.00918701,0.00831909 -0.0155902,0.00982563 -0.0117017,0.00275345 -0.0289368,0.00392078 -0.0408337,0.00392078 -0.00096077,-0.00625732 -0.00255637,-0.0138828 -0.00340154,-0.0203638 -0.00152359,-0.0116827 -0.00154064,-0.00988058 -0.0102653,-0.00993743 -0.00961149,-5.87453e-005 -0.0213871,-0.00321015 -0.031497,-0.00321015l-0.000701154 0c-0.0022039,0 0.00328026,0.022579 0.00350198,0.0265965 -0.00508052,0 -0.0224066,-0.00736211 -0.0224066,-0.0143623l0 -0.000532498zm0.152298 -0.0122342c0,-0.00756109 0.000649988,-0.0132973 0.00560165,-0.0132973l0.000350577 0c0.00159939,0 0.00446843,0.00445896 0.00420124,0.00797799l-0.000418797 0.00637102c-0.00174341,0.00185711 -0.001065,0.00426756 -0.0044817,0.00426756l-0.00140231 0c-0.000729579,0 -0.00333143,-0.00283493 -0.00280082,-0.00478679l0.000841384 0.00203524 0.00104984 0.000729579c0.00575325,0.000426377 0.00328974,-0.00106879 0.00616257,-0.00223422 -7.01154e-005,-0.00476784 -0.00095319,-0.0010631 -0.00385066,-0.0010631l-0.000701154 0c-0.00164866,0 -0.00250899,-0.00164866 -0.00350198,-0.00266059l-0.000428272 0.00263785 -0.000621563 2.27401e-005zm-0.00260185 -0.0107826l0.000151601 0.00173962 -0.000824329 -0.000117491 0.000672728 -0.00162213zm0.000502178 -0.000388477c0,-0.00231191 -0.000197081,-0.00112943 0.000699259,-0.0021262 -0.000136441,0.0024692 0.000375212,0.000928555 -0.000699259,0.0021262zm0.108182 0.0414912c0,-0.0202008 0.00984837,-0.045213 0.0224066,-0.045213 0.00544247,0 0.0133068,0.00803105 0.0133068,0.0154254 -0.0034167,-0.00597307 -0.00556375,-0.0132992 -0.0129543,-0.0132992 -0.00596928,0 -0.00952432,0.00388477 -0.0127136,0.00834373 -0.00393215,0.00549363 -0.00479248,0.00935377 -0.00479248,0.0203808l0 0.0031912c0,0.00677655 0.00201629,0.0163293 0.00455181,0.0191491 0.000691679,-0.00219253 -0.00140041,-0.00594654 -0.00140041,-0.00797799l0 -0.00372369c0,-0.00334469 0.00658326,0.00264543 0.00995259,0.00185332 0.00648472,-0.0015198 0.0052416,-0.00339775 0.00895203,-0.00717261 6.25353e-005,0.000197081 0.00105173,0.00616257 0.00105173,0.00638239l0 0.00372369c0,0.00220011 -0.00128292,0.00476405 -0.00140041,0.00691489 0.00637671,-0.00225696 0.0089255,-0.017364 0.010504,-0.0276596 0.00139473,0.00112185 0.00140041,0.00314382 0.00140041,0.00638239l0 0.0015956c0,0.0201724 -0.00963233,0.0452149 -0.0224066,0.0452149l-0.000701154 0c-0.0098749,0 -0.015757,-0.0169603 -0.015757,-0.0324483l0 -0.0010631zm-0.0836761 -0.045213l0.000699259 0 0 0.0021262 -0.000699259 -0.0021262zm-0.0227572 0l-0.000551448 0.00173772 -0.000147811 -0.00173772 0.000699259 0zm0 0c0.000619668,-0.0035323 0.00670265,-0.00957548 0.00980289,-0.00957548l0.00385255 0c0.00320636,0 0.00849722,0.00563197 0.00910173,0.00957548 -0.00122607,-0.000498388 -0.00467499,-0.00797989 -0.00840247,-0.00797989l-0.00700017 0c-0.000231191,0.000962665 -0.00297517,0.00306992 -0.00377865,0.0038355 -0.00137199,0.00129808 -0.00264733,0.00376728 -0.00357588,0.00414439zm0.116589 -0.00532119c0.000278566,-0.00508052 0.00738675,-0.00957359 0.011552,-0.00957359l0.00105173 0c0.00175667,0 0.00454992,0.000708734 0.00454992,0.0031912 0,0.00178131 -0.00369906,0.00104794 -0.00491187,0.00104794 -0.00255447,-1.89501e-006 -0.0023934,0.000742844 -0.0043301,0.00139852 -0.00317225,0.00107447 -0.00602803,0.00369906 -0.00791167,0.00393594zm-0.256634 -0.0191491c0.00307939,0 0.00560165,-0.00981805 0.00560165,-0.0159579l0.00140041 0c0.00199734,0 0.0031514,0.00752698 0.0031514,0.0106386l0 0.00797989c0,0.00372748 -0.00329542,0.00744739 -0.00560165,0.00744739l-0.000348682 0c-0.00239529,0 -0.00695469,-0.00673676 -0.00700396,-0.010108l0.00280082 0zm0.00490239 0.0132992c0.00150653,0 0.00540836,-0.00416523 0.00620237,-0.00600529 0.00141557,-0.00328784 0.00115027,-0.00841195 0.00115027,-0.0136763l0.000699259 0c0.000115596,0.000759899 0.00104984,0.00786429 0.00104984,0.00797799l0 0.00797989c0,0.0063786 -0.00394731,0.00957359 -0.0080519,0.00957359 -0.0066818,0 -0.0129562,-0.0129884 -0.0129562,-0.0239359 0.00205988,0.00360052 0.00503694,0.018086 0.0108546,0.018086l0.00105173 0zm0.00665148 -0.0234053c0.000547658,0.000610193 0.000701154,9.85405e-005 0.000701154,0.0015956l0 0.0015956 -0.000701154 0 0 -0.0031912zm-0.015757 -0.00372559c-0.00127534,-0.000159181 -0.00209778,-0.000644303 -0.00209778,-0.0026587 0,-0.000744739 0.000475647,-0.0010631 0.00104984,-0.0010631l0.00174909 0 -0.000701154 0.0037218zm0.0780782 -0.110638l0 0.0010631c-0.00293727,0.00104036 -0.00930639,0.00785292 -0.0124085,0.0104055 -0.00435663,0.00358536 -0.00686752,0.00815423 -0.00869241,0.0155182 -0.0017832,0.00720293 -0.00323668,0.0147413 -0.00480953,0.0219499 -0.00131703,0.00604319 -0.00405532,0.015757 -0.0049005,0.0212772l-0.00624595 0.00198029c0.00288799,-0.0195887 0.00496114,-0.033193 0.0103638,-0.048914 0.00329921,-0.00959443 0.00363273,-0.0122285 0.010631,-0.0157665 0.00280461,-0.00141557 0.0138051,-0.00743791 0.0160621,-0.00751371zm0 0l0.000377107 -0.00103657 0.00137199 -2.84251e-005c-0.000744739,0.00154633 4.92703e-005,0.00100246 -0.00174909,0.001065zm0.0378111 -0.0175535c0.00453665,-0.02581 0.106092,-0.0118836 0.125764,-0.00862229 0.0197877,0.00328216 0.0418456,0.00993364 0.0583966,0.018194 0.0121963,0.00608867 0.0149061,0.00537614 0.0206594,0.0218059 0.00319878,0.00913963 0.00664769,0.0290221 0.00664769,0.0430925l0 0.0042543c0,0.00618721 -0.00131893,0.0224805 -0.00235929,0.0272654 -0.00187795,0.00862798 -0.000737159,0.0187113 -0.00148948,0.02859 -0.000725789,0.00955653 -0.00170361,0.0177202 -0.00289747,0.0264505 -0.000693574,0.00507105 -0.00550879,0.0223497 -0.00550879,0.0224843 0,0.00300738 0.000890655,0.00184763 0.00105173,0.00478679 -0.00352661,0.0019386 -0.00513548,0.00531929 -0.0108546,0.00531929l-0.00104794 0c-0.00094561,0 -0.000966455,-0.000253931 -0.00175099,-0.000532498 0,-0.0200606 0.000403637,-0.0236402 -0.00412544,-0.0373506 -0.00232328,-0.00703428 -0.0107485,-0.0163729 -0.0175819,-0.0163729l-0.00735264 0c-0.00930639,0 -0.0244324,0.0130831 -0.0293253,0.020341 -0.00522644,0.00775059 -0.0163331,0.0256376 -0.0165396,0.0397668l-0.0447431 -0.0118324 -7.01154e-005 0.000661358c0,-0.014332 0.000244456,-0.0299942 -0.0042145,-0.0404054 -0.00369906,-0.00863177 -0.0114667,-0.0176141 -0.0208716,-0.0167822 -0.0160811,0.00142315 -0.0326889,0.0223043 -0.0358365,0.0428253 -0.00181921,-6.06403e-005 -0.00384687,-0.00255447 -0.00735074,-0.0021262l-0.0535321 0.00654157 -3.60052e-005 -0.000691679 -0.0147015 0c-0.00925523,0 -0.046333,-0.000744739 -0.0486676,-0.00744739l0.00448738 -0.00239908 0.000649988 -0.00561112c0.00200871,9.66455e-005 0.00374264,0.00269281 0.0064165,0.00269281l0.0031514 0c0.00498198,0 0.00875305,-0.00747392 0.00875305,-0.0159579 0,-0.00926849 -0.0032651,-0.0156907 -0.0031514,-0.0234072 -0.00309076,-0.00109153 -0.00742275,-0.00478679 -0.0115539,-0.00478679l-0.00735264 0c-0.000701154,0 -0.00138146,0.00137199 -0.0031514,0.0015956 0.000625353,-0.00355504 0.00696037,-0.0106386 0.0101535,-0.0106386l0.00245214 0c0.00245972,0 0.00560923,0.00545573 0.00875116,0.00585179l0.000270986 -0.000409322 -0.00210157 -0.0031912 -0.000270986 0.000409322 0 -0.0021281c0.00105931,-0.000430167 0.00643166,-0.0063047 0.00784345,-0.00776386 0.00118438,-0.00122418 0.00818455,-0.00698501 0.00826793,-0.00712145 4.16902e-005,-6.63253e-005 0.00392078,-0.0284972 0.00464088,-0.0317831 0.00275724,-0.0126056 0.0110896,-0.0469508 0.019511,-0.0480139 -7.39054e-005,0.00504262 -0.00231949,0.00466172 -0.00370664,0.00766152 -0.00123744,0.00267386 -0.00198597,0.00536288 -0.00298654,0.00823192 -0.00204472,0.00586506 -0.00363084,0.0114875 -0.00563576,0.0175023 -0.00347166,0.0104131 -0.00677276,0.0252813 -0.00745497,0.0402026 -0.000284251,0.00619479 0.000435852,0.00622321 0.00414818,0.00477542 0.00219821,-0.000858439 0.00494598,-0.0015577 0.00697932,-0.00216221 0.00404016,-0.00120333 0.0112052,-0.00245214 0.0153212,-0.00278566 0.0104529,-0.000848964 0.021245,-0.00214705 0.0325487,-0.00214705l-0.00571535 0.00498956 0.017129 -0.0054671 0.000140231 0.00100815c0.00192912,-0.00437747 0.00268712,-0.0211218 0.00398142,-0.027995 0.00165245,-0.00879095 0.00270607,-0.0189653 0.0047849,-0.0267727 0.00222285,-0.00835889 0.00392836,-0.0160564 0.00675192,-0.0237862 0.00577409,-0.0158082 0.00678603,-0.0108091 -0.00571535,-0.0108091zm-0.00175099 0c-0.0104832,0.00371043 -0.0222455,0.00435473 -0.0322114,0.00904109 -0.00460677,0.002166 -0.0105476,0.00460677 -0.015054,0.00638239 -0.00188743,0.000740949 -0.0158233,0.00993364 -0.00801779,0.000585558 0.00396626,-0.00474889 0.0513927,-0.0242353 0.0598349,-0.0245195l-0.00455181 0.00851049zm0.239008 0.0271953l0 0.0145309 0.0323175 0 0 -0.0145309c0,-0.00206556 0.000689784,-0.00362515 0.0020504,-0.00466362 0.00135872,-0.00103847 0.00314761,-0.0015577 0.00536856,-0.0015577 0.00223611,0 0.0040629,0.000505968 0.00545763,0.00153496 0.00139283,0.0010252 0.00209778,0.00259616 0.00209778,0.00468636l0 0.0399449c0,0.0020902 -0.000704944,0.00365926 -0.00211673,0.00469773 -0.00141178,0.00103847 -0.00323668,0.00155959 -0.00543868,0.00155959 -0.00225317,0 -0.00406101,-0.000521128 -0.00540457,-0.00157096 -0.00133977,-0.00104984 -0.0020144,-0.00260753 -0.0020144,-0.00468636l0 -0.0170456 -0.0323175 0 0 0.0170456c0,0.00210157 -0.000704944,0.00365926 -0.00211673,0.00469773 -0.00141178,0.00103847 -0.00323478,0.00155959 -0.00543868,0.00155959 -0.00225317,0 -0.00406101,-0.000521128 -0.00540267,-0.00157096 -0.00134356,-0.00104984 -0.0020144,-0.00260753 -0.0020144,-0.00468636l0 -0.0399449c0,-0.00206556 0.000670833,-0.00362515 0.00199545,-0.00466362 0.00132651,-0.00103847 0.00313435,-0.0015577 0.00542162,-0.0015577 0.00223801,0 0.00406101,0.000505968 0.00545384,0.00153496 0.00139662,0.0010252 0.00210157,0.00259616 0.00210157,0.00468636zm0.0634866 0.0243869l0 -0.0243869c0,-0.00206556 0.000687889,-0.00362515 0.00204851,-0.00466362 0.00135683,-0.00103847 0.00314951,-0.0015577 0.00536856,-0.0015577 0.00230623,0 0.00414628,0.000519233 0.0055069,0.0015577 0.00136062,0.00103847 0.00204661,0.00259806 0.00204661,0.00466362l0 0.0249421c0,0.00283304 0.000466172,0.00520559 0.00139662,0.00710629 0.0009115,0.00190069 0.00254689,0.00337501 0.00490429,0.00442674 0.0023555,0.00104984 0.00564334,0.00156907 0.00987679,0.00156907 0.00585179,0 0.00998291,-0.00106121 0.0124085,-0.00319878 0.00242751,-0.00213568 0.00363273,-0.00537046 0.00363273,-0.00970245l0 -0.025143c0,-0.0020902 0.000668938,-0.00366116 0.0020125,-0.00468636 0.00134167,-0.00102899 0.00314951,-0.00153496 0.00540457,-0.00153496 0.00223422,0 0.00406101,0.000505968 0.00545573,0.00153496 0.00139283,0.0010252 0.00209778,0.00259616 0.00209778,0.00468636l0 0.0243869c0,0.00396626 -0.000568503,0.00727115 -0.00168656,0.00991469 -0.00113511,0.0026568 -0.00325184,0.00498198 -0.00638429,0.0069888 -0.00268523,0.00171119 -0.00581768,0.00295243 -0.0093784,0.00373127 -0.00356451,0.000790219 -0.00772974,0.00118059 -0.0124957,0.00118059 -0.00567934,0 -0.0105666,-0.000426377 -0.0146806,-0.00126397 -0.00409322,-0.000837594 -0.00743223,-0.00214894 -0.0100303,-0.00390751 -0.00258479,-0.00175857 -0.00447601,-0.004025 -0.0056964,-0.00677466 -0.00120523,-0.00275155 -0.00180784,-0.00604508 -0.00180784,-0.00986921zm0.0784591 0l0 -0.0243869c0,-0.00206556 0.000685994,-0.00362515 0.00204661,-0.00466362 0.00136062,-0.00103847 0.00314951,-0.0015577 0.00537046,-0.0015577 0.00230623,0 0.00414818,0.000519233 0.005505,0.0015577 0.00136062,0.00103847 0.00204851,0.00259806 0.00204851,0.00466362l0 0.0249421c0,0.00283304 0.000464277,0.00520559 0.00139473,0.00710629 0.0009115,0.00190069 0.00254689,0.00337501 0.00490429,0.00442674 0.00235739,0.00104984 0.00564523,0.00156907 0.00987679,0.00156907 0.00585369,0 0.00998291,-0.00106121 0.0124085,-0.00319878 0.00242751,-0.00213568 0.00363273,-0.00537046 0.00363273,-0.00970245l0 -0.025143c0,-0.0020902 0.000670833,-0.00366116 0.0020144,-0.00468636 0.00134167,-0.00102899 0.00314951,-0.00153496 0.00540267,-0.00153496 0.00223801,0 0.00406101,0.000505968 0.00545573,0.00153496 0.00139283,0.0010252 0.00209967,0.00259616 0.00209967,0.00468636l0 0.0243869c0,0.00396626 -0.000568503,0.00727115 -0.00168656,0.00991469 -0.00113511,0.0026568 -0.00325184,0.00498198 -0.00638618,0.0069888 -0.00268523,0.00171119 -0.00581579,0.00295243 -0.0093784,0.00373127 -0.00356262,0.000790219 -0.00772785,0.00118059 -0.0124938,0.00118059 -0.00567934,0 -0.0105666,-0.000426377 -0.0146806,-0.00126397 -0.00409322,-0.000837594 -0.00743412,-0.00214894 -0.0100322,-0.00390751 -0.002581,-0.00175857 -0.00447412,-0.004025 -0.0056964,-0.00677466 -0.00120523,-0.00275155 -0.00180594,-0.00604508 -0.00180594,-0.00986921zm-0.158281 0.0578376l0 -0.020324c0,-0.00172067 0.000574188,-0.00301875 0.0017074,-0.00388477 0.00113322,-0.000866019 0.00262269,-0.00129808 0.00447222,-0.00129808 0.00192343,0 0.00345839,0.000432062 0.00459161,0.00129808 0.00113132,0.000866019 0.00170361,0.0021641 0.00170361,0.00388477l0 0.0207864c0,0.00236118 0.000390372,0.00433768 0.00116354,0.00592191 0.000759899,0.00158233 0.00212241,0.00281219 0.00408943,0.00368958 0.00196323,0.000875495 0.00470152,0.00130756 0.00823003,0.00130756 0.00487586,0 0.0083172,-0.00088497 0.0103392,-0.00266628 0.00202198,-0.00177941 0.00302633,-0.00447601 0.00302633,-0.00808601l0 -0.0209531c0,-0.00173962 0.000560923,-0.00304907 0.00167898,-0.00390562 0.00111806,-0.000854649 0.00262269,-0.00127724 0.00450254,-0.00127724 0.00186469,0 0.00338449,0.000422587 0.00454613,0.00127724 0.00116164,0.000856544 0.00174909,0.002166 0.00174909,0.00390562l0 0.020324c0,0.0033049 -0.000471857,0.00606024 -0.0014042,0.00826224 -0.00094561,0.00221337 -0.00271176,0.00415197 -0.00532119,0.00582337 -0.00223801,0.00142694 -0.00484744,0.00245972 -0.00781502,0.00310971 -0.00296948,0.000657568 -0.00644114,0.00098351 -0.0104131,0.00098351 -0.00473184,0 -0.00880611,-0.000354367 -0.0122323,-0.00105363 -0.00341481,-0.000697364 -0.00619668,-0.00178889 -0.00836268,-0.00325563 -0.00214894,-0.00146484 -0.00372748,-0.00335417 -0.004747,-0.00564713 -0.00100246,-0.00229107 -0.00150464,-0.00503504 -0.00150464,-0.00822245zm0.0892038 0.00100246l-0.0114307 0 0 0.0119613c0,0.00171309 -0.000589348,0.0030017 -0.00176425,0.00388667 -0.0011768,0.00088497 -0.00266628,0.0013284 -0.00445896,0.0013284 -0.00186658,0 -0.00338638,-0.000433957 -0.00453286,-0.00130945 -0.00114838,-0.0008736 -0.00172256,-0.0021641 -0.00172256,-0.00384497l0 -0.0325714c0,-0.00187795 0.000632933,-0.00322531 0.00189501,-0.00403258 0.00126018,-0.000807274 0.00325373,-0.00120902 0.00600908,-0.00120902l0.0160053 0c0.00473184,0 0.00835889,0.000244456 0.0109115,0.000746634 0.00252605,0.000481332 0.00470531,0.00127913 0.00653968,0.0023915 0.00183626,0.00111995 0.0032272,0.00247867 0.00417471,0.00409133 0.00096077,0.00161265 0.00143452,0.00343376 0.00143452,0.00545005 0,0.00430736 -0.0019367,0.00756488 -0.00579494,0.00978773 -0.0038715,0.00221337 -0.00962286,0.00332385 -0.0172654,0.00332385zm-0.00302633 -0.0193689l-0.00840437 0 0 0.0129164 0.00840437 0c0.00293916,0 0.0053913,-0.000206556 0.00736969,-0.000629143 0.00196513,-0.000422587 0.00347166,-0.00112185 0.0045196,-0.00207504 0.00103089,-0.00096456 0.00154822,-0.00222474 0.00154822,-0.00377865 0,-0.00186848 -0.000803484,-0.00338449 -0.00239529,-0.00456508 -0.00179457,-0.00124881 -0.00547847,-0.00186848 -0.0110422,-0.00186848zm0.0365983 0.0183664l0 -0.020324c0,-0.00172067 0.000574188,-0.00301875 0.00170551,-0.00388477 0.00113511,-0.000866019 0.00262648,-0.00129808 0.00447601,-0.00129808 0.00191964,0 0.0034565,0.000432062 0.00458971,0.00129808 0.00113132,0.000866019 0.00170551,0.0021641 0.00170551,0.00388477l0 0.0207864c0,0.00236118 0.000388477,0.00433768 0.00116164,0.00592191 0.000759899,0.00158233 0.00212241,0.00281219 0.00408754,0.00368958 0.00196323,0.000875495 0.00470531,0.00130756 0.00823192,0.00130756 0.00487586,0 0.0083172,-0.00088497 0.0103411,-0.00266628 0.00202198,-0.00177941 0.00302633,-0.00447601 0.00302633,-0.00808601l0 -0.0209531c0,-0.00173962 0.000557133,-0.00304907 0.00167708,-0.00390562 0.00111806,-0.000854649 0.00262459,-0.00127724 0.00450254,-0.00127724 0.00186279,0 0.00338449,0.000422587 0.00454613,0.00127724 0.00116164,0.000856544 0.00174909,0.002166 0.00174909,0.00390562l0 0.020324c0,0.0033049 -0.000473752,0.00606024 -0.0014061,0.00826224 -0.00094561,0.00221337 -0.00270986,0.00415197 -0.00531929,0.00582337 -0.00223611,0.00142694 -0.00484554,0.00245972 -0.00781692,0.00310971 -0.00296948,0.000657568 -0.00643735,0.00098351 -0.0104112,0.00098351 -0.00473184,0 -0.00880422,-0.000354367 -0.0122342,-0.00105363 -0.00341102,-0.000697364 -0.00619289,-0.00178889 -0.00836078,-0.00325563 -0.00215084,-0.00146484 -0.00372748,-0.00335417 -0.004747,-0.00564713 -0.00100436,-0.00229107 -0.00150464,-0.00503504 -0.00150464,-0.00822245zm0.0653816 0l0 -0.020324c0,-0.00172067 0.000572293,-0.00301875 0.0017074,-0.00388477 0.00113132,-0.000866019 0.00262269,-0.00129808 0.00447412,-0.00129808 0.00192154,0 0.0034565,0.000432062 0.00458782,0.00129808 0.00113511,0.000866019 0.0017074,0.0021641 0.0017074,0.00388477l0 0.0207864c0,0.00236118 0.000386582,0.00433768 0.00116164,0.00592191 0.000759899,0.00158233 0.00212241,0.00281219 0.00408754,0.00368958 0.00196513,0.000875495 0.00470341,0.00130756 0.00823192,0.00130756 0.00487586,0 0.00831909,-0.00088497 0.0103392,-0.00266628 0.00202198,-0.00177941 0.00302633,-0.00447601 0.00302633,-0.00808601l0 -0.0209531c0,-0.00173962 0.000559028,-0.00304907 0.00167898,-0.00390562 0.00111806,-0.000854649 0.00262269,-0.00127724 0.00450065,-0.00127724 0.00186658,0 0.00338638,0.000422587 0.00454802,0.00127724 0.00116164,0.000856544 0.00174909,0.002166 0.00174909,0.00390562l0 0.020324c0,0.0033049 -0.000471857,0.00606024 -0.0014042,0.00826224 -0.000947505,0.00221337 -0.00270986,0.00415197 -0.00532119,0.00582337 -0.00223801,0.00142694 -0.00484744,0.00245972 -0.00781692,0.00310971 -0.00296759,0.000657568 -0.00643924,0.00098351 -0.0104112,0.00098351 -0.00473184,0 -0.00880611,-0.000354367 -0.0122323,-0.00105363 -0.00341481,-0.000697364 -0.00619668,-0.00178889 -0.00836078,-0.00325563 -0.00215084,-0.00146484 -0.00372938,-0.00335417 -0.00474889,-0.00564713 -0.00100246,-0.00229107 -0.00150464,-0.00503504 -0.00150464,-0.00822245zm0.0636477 0.00760278l0.0316486 -0.0259692 -0.0271896 0c-0.00190827,0 -0.0033409,-0.000284251 -0.00430167,-0.000866019 -0.00097593,-0.000570398 -0.00144968,-0.00133788 -0.00144968,-0.00227022 0,-0.000985405 0.000473752,-0.00177183 0.00144968,-0.00238203 0.00096077,-0.000600718 0.0023934,-0.00090392 0.00430167,-0.00090392l0.0350349 0c0.00454802,0 0.00681256,0.00145537 0.00681256,0.00435663 0,0.00137767 -0.000373317,0.00249004 -0.00113322,0.00331627 -0.000759899,0.000824329 -0.0022778,0.00215273 -0.00457455,0.00400226l-0.0295849 0.02415 0.0326112 0c0.00192154,0 0.00336933,0.000276671 0.00431494,0.000816749 0.000962665,0.000551448 0.00143642,0.00131893 0.00143642,0.00229107 0,0.00102331 -0.000473752,0.00183058 -0.00143642,0.00242182 -0.00094561,0.000598823 -0.0023934,0.000894445 -0.00431494,0.000894445l-0.0400131 0c-0.00270797,0 -0.00476026,-0.000413112 -0.00612278,-0.00125071 -0.00137767,-0.000835699 -0.00206556,-0.00195755 -0.00206556,-0.00336364 0,-0.000471857 0.000113701,-0.00091529 0.000331627,-0.00131703 0.000227401,-0.000403637 0.000528708,-0.000786429 0.000902025,-0.0011408 0.000386582,-0.000354367 0.000902025,-0.000807274 0.00157665,-0.00135872 0.000674623,-0.000540078 0.00126208,-0.00102331 0.00176615,-0.00142694zm0.0577372 0.00536098l0 -0.0332877c0,-0.00172067 0.000572293,-0.00301875 0.00172067,-0.00388477 0.00114838,-0.000866019 0.00263785,-0.00129808 0.00445896,-0.00129808 0.00186658,0 0.00338638,0.000422587 0.00454613,0.00127724 0.00116354,0.000856544 0.00175099,0.002166 0.00175099,0.00390562l0 0.0332877c0,0.00174151 -0.000587453,0.00305097 -0.00175099,0.00391699 -0.00115975,0.000864124 -0.00267954,0.00129808 -0.00454613,0.00129808 -0.00179078,0 -0.00326889,-0.000433957 -0.00443053,-0.00130945 -0.00116164,-0.0008736 -0.00174909,-0.00217358 -0.00174909,-0.00390562zm-0.288769 0.0201042l0.0287757 0.0298767 0 -0.0301591c0,-0.00195944 0.000619668,-0.00342428 0.00184195,-0.004404 0.00122228,-0.00097972 0.00287473,-0.00147432 0.00497251,-0.00147432 0.00215273,0 0.00383929,0.000483227 0.00509379,0.00146295 0.00123934,0.00097972 0.0018609,0.00245593 0.0018609,0.00441537l0 0.0398748c0,0.00444948 -0.00268523,0.00667043 -0.00807274,0.00667043 -0.00134167,0 -0.00254689,-0.000130756 -0.00363084,-0.000401742 -0.00106689,-0.000259616 -0.00208262,-0.000684099 -0.00302823,-0.00126397 -0.00093045,-0.000566608 -0.00180784,-0.00125071 -0.00261511,-0.00201819 -0.000811064,-0.000767479 -0.00162023,-0.0015577 -0.00242751,-0.00237255l-0.0280689 -0.0295224 0 0.0296986c0,0.0019367 -0.000653778,0.00339965 -0.00196134,0.00439263 -0.00130945,0.00099109 -0.00299412,0.00148758 -0.00504262,0.00148758 -0.00211862,0 -0.00382034,-0.000496493 -0.00509379,-0.00149895 -0.00127345,-0.00100436 -0.00191017,-0.0024673 -0.00191017,-0.00438126l0 -0.0391073c0,-0.00166382 0.000274776,-0.0029619 0.000807274,-0.00390751 0.000636723,-0.00103847 0.00168656,-0.00188743 0.00316656,-0.00254879 0.00148,-0.000649988 0.00308129,-0.00097972 0.00480195,-0.00097972 0.00134167,0 0.00248057,0.000153496 0.00344134,0.000449117 0.00096456,0.000293727 0.00180784,0.000706839 0.00252984,0.0012147 0.000723894,0.000507863 0.00144589,0.00115785 0.0022039,0.00197081 0.000758004,0.000803484 0.00154822,0.00164108 0.0023555,0.00252605zm0.0682204 -0.00530034l0.0195167 0c0.00507484,0 0.00942957,0.000320257 0.0130604,0.00096835 0.00363273,0.000649988 0.00692058,0.00185332 0.00987869,0.00362326 0.00769184,0.00452339 0.0115482,0.0113928 0.0115482,0.0206234 0,0.00304528 -0.000379002,0.00581958 -0.00115217,0.00833425 -0.000775059,0.00251278 -0.00198029,0.00478111 -0.00358157,0.0067993 -0.00161644,0.00201819 -0.003682,0.00382413 -0.00621184,0.00540646 -0.00197839,0.00122797 -0.00414818,0.00220769 -0.00650557,0.00293916 -0.00234034,0.000744739 -0.00487018,0.00126208 -0.00758762,0.0015577 -0.00270418,0.000295622 -0.00574946,0.000449117 -0.00913963,0.000449117l-0.0195148 0c-0.00272123,0 -0.0047849,-0.000282356 -0.00616068,-0.000848964 -0.00137767,-0.000568503 -0.00227212,-0.00135872 -0.00268523,-0.00238582 -0.000430167,-0.0010271 -0.000636723,-0.00236118 -0.000636723,-0.003989l0 -0.0371839c0,-0.00220769 0.000721999,-0.00381465 0.002166,-0.00480574 0.00144589,-0.00099109 0.00378812,-0.00148758 0.00700585,-0.00148758zm0.00579873 0.00812201l0 0.034421 0.0113416 0c0.00249762,0 0.00444001,-4.54802e-005 0.00585179,-0.000140231 0.00141178,-9.47505e-005 0.00287283,-0.000318362 0.00438884,-0.000685994 0.00151411,-0.000377107 0.00281977,-0.00089634 0.00392267,-0.0015577 0.00500851,-0.00290505 0.00752129,-0.00790788 0.00752129,-0.0150161 0,-0.00500472 -0.001101,-0.00875684 -0.0033049,-0.0112488 -0.002202,-0.00249004 -0.00491945,-0.00407238 -0.00813907,-0.00475647 -0.00323668,-0.000672728 -0.00712524,-0.00101573 -0.0117017,-0.00101573l-0.00988058 0zm0.0619554 0.0371839l0 -0.0399449c0,-0.00206746 0.000687889,-0.00362515 0.00206556,-0.00466362 0.00137767,-0.00103847 0.00316656,-0.0015577 0.00535151,-0.0015577 0.00223801,0 0.00406101,0.000507863 0.00545573,0.00153306 0.00139473,0.0010271 0.00210157,0.00259806 0.00210157,0.00468825l0 0.0399449c0,0.0020902 -0.000706839,0.00365926 -0.00210157,0.00469773 -0.00139473,0.00104036 -0.00321773,0.00155959 -0.00545573,0.00155959 -0.00215084,0 -0.00392457,-0.000519233 -0.0053174,-0.00157096 -0.00139473,-0.00104984 -0.00209967,-0.00260753 -0.00209967,-0.00468636zm0.0642257 -0.0461662c0.00767668,0 0.0142505,0.00106121 0.0197574,0.00319878 0.00548795,0.00213568 0.00965507,0.00515822 0.0124767,0.00908847 0.00282167,0.00393215 0.00423345,0.00854649 0.00423345,0.0138601 0,0.00391699 -0.000775059,0.00747202 -0.00232328,0.0106822 -0.00154822,0.00319878 -0.00385445,0.00598444 -0.00695279,0.00833425 -0.00309834,0.00234792 -0.00689973,0.00414249 -0.0113928,0.0053932 -0.00450823,0.00124123 -0.00967023,0.00186658 -0.0154879,0.00186658 -0.00578167,0 -0.0109607,-0.000638618 -0.015541,-0.00192533 -0.00455939,-0.00127345 -0.00838163,-0.00308129 -0.011444,-0.00540457 -0.00306423,-0.00232707 -0.00536856,-0.00513548 -0.00693574,-0.00840626 -0.00156717,-0.00326889 -0.00234034,-0.00681067 -0.00234034,-0.0106121 0,-0.00389425 0.000809169,-0.00747202 0.00244456,-0.0107182 0.00163539,-0.00325752 0.00399089,-0.00602045 0.00708923,-0.00829825 0.00309834,-0.00228917 0.00685046,-0.00403827 0.0112905,-0.0052416 0.00443811,-0.0012166 0.00948263,-0.00181731 0.015126,-0.00181731zm0.0212885 0.0260753c0,-0.00371801 -0.00087739,-0.00693005 -0.00261701,-0.00965697 -0.00175478,-0.00271365 -0.00424861,-0.00477921 -0.00750234,-0.00617205 -0.00323668,-0.00139473 -0.0069509,-0.0020902 -0.0111692,-0.0020902 -0.00299601,0 -0.00574946,0.000390372 -0.00829635,0.00115785 -0.00252794,0.000778849 -0.00471289,0.00190069 -0.00655484,0.00337501 -0.001823,0.00147621 -0.00326889,0.00336364 -0.00433578,0.00565471 -0.00104984,0.00229107 -0.00158423,0.00487586 -0.00158423,0.00773164 0,0.00288041 0.000534393,0.00548984 0.00158423,0.00781502 0.00106689,0.00232518 0.00256205,0.00425998 0.00449117,0.00579494 0.00192722,0.00153496 0.00414818,0.00267954 0.00665906,0.00343565 0.00249573,0.000767479 0.00524918,0.00114459 0.00824329,0.00114459 0.00383929,0 0.00734885,-0.000661358 0.0105666,-0.00197081 0.00321962,-0.00131135 0.00576651,-0.0033409 0.00765773,-0.00609056 0.00191017,-0.00274018 0.00285767,-0.0061152 0.00285767,-0.0101288zm-0.225927 0.0430641l0 0.0177771 0.0293935 -0.0210232c0.00141178,-0.00101383 0.00261511,-0.00175857 0.00359862,-0.0022418 0.000996775,-0.000485123 0.00232139,-0.000731474 0.00395678,-0.000731474 0.00215084,0 0.00390562,0.000435852 0.00523212,0.00129808 0.00132461,0.000862229 0.00198029,0.00191206 0.00198029,0.00316277 0,0.00149895 -0.00111995,0.00298843 -0.00337501,0.00446275l-0.0181902 0.0118287 0.0209626 0.0206101c0.00148,0.00142694 0.00259616,0.00267954 0.00333711,0.00374075 0.000739054,0.00107447 0.001101,0.0021262 0.001101,0.00314003 0,0.00112185 -0.000651883,0.00210157 -0.00194428,0.00293916 -0.0012924,0.000826224 -0.00304718,0.00124123 -0.00526623,0.00124123 -0.00208262,0 -0.00378623,-0.000306992 -0.00509379,-0.000920975 -0.00130756,-0.000602613 -0.00241045,-0.00141747 -0.00332195,-0.00243319 -0.0009115,-0.00101383 -0.00172067,-0.0019348 -0.00242561,-0.00276103l-0.0176918 -0.0186753 -0.0122531 0.00805 0 0.0104832c0,0.00212431 -0.000704944,0.00369527 -0.00211673,0.00472236 -0.00141178,0.0010271 -0.00323478,0.00153496 -0.00543868,0.00153496 -0.0012905,0 -0.00251278,-0.000236876 -0.003682,-0.000697364 -0.00118817,-0.000460487 -0.00208262,-0.00107447 -0.00271934,-0.00186469 -0.000483227,-0.000638618 -0.000758004,-0.00139283 -0.000862229,-0.00224369 -0.000102331,-0.000848964 -0.000153496,-0.0020883 -0.000153496,-0.00370664l0 -0.0376917c0,-0.00206556 0.000670833,-0.00362326 0.00199545,-0.00466172 0.00132651,-0.00103847 0.00313435,-0.0015577 0.00542162,-0.0015577 0.00223801,0 0.00406101,0.000505968 0.00545384,0.00153306 0.00139662,0.0010271 0.00210157,0.00259806 0.00210157,0.00468636zm0.108645 0.0395924l-0.00352851 -0.00636155 -0.0300492 0 -0.00352661 0.00650367c-0.00139473,0.00253742 -0.00256584,0.00425051 -0.00354556,0.00513548 -0.00096456,0.00088497 -0.00256395,0.00133409 -0.004783,0.00133409 -0.00187606,0 -0.00354556,-0.000473752 -0.00499146,-0.00141747 -0.00144589,-0.000943715 -0.00216979,-0.00201819 -0.00216979,-0.00322341 0,-0.000684099 0.000172446,-0.0014042 0.000500283,-0.00213568 0.000342997,-0.000742844 0.000894445,-0.00176994 0.0016695,-0.00308129l0.0189141 -0.032922c0.000530603,-0.000943715 0.00118628,-0.00207883 0.00194428,-0.00339965 0.000756109,-0.00133409 0.00154822,-0.00243319 0.00240666,-0.0033049 0.000862229,-0.0008736 0.00199734,-0.00158233 0.00339017,-0.0021262 0.00139662,-0.000541973 0.0031154,-0.000812959 0.0051639,-0.000812959 0.00208451,0 0.00382034,0.000270986 0.00521507,0.000812959 0.00139283,0.000543868 0.00252984,0.00123934 0.00339017,0.0020902 0.000843279,0.000848964 0.00156528,0.00176994 0.00216789,0.00274966 0.000585558,0.00097972 0.00132651,0.00229107 0.00223801,0.00392078l0.0193101 0.0327211c0.00151411,0.00249004 0.00227212,0.00429599 0.00227212,0.0054292 0,0.00116922 -0.000723894,0.00224369 -0.00215084,0.00322341 -0.00143073,0.00097972 -0.00314951,0.00147621 -0.0051639,0.00147621 -0.00117301,0 -0.00218684,-0.000142126 -0.00303012,-0.000437747 -0.000843279,-0.000284251 -0.00154822,-0.000672728 -0.00211673,-0.00116922 -0.000568503,-0.000496493 -0.00118628,-0.00126208 -0.00184195,-0.00228917 -0.000651883,-0.0010271 -0.00122039,-0.00192533 -0.00168466,-0.00271555zm-0.0296531 -0.0140704l0.0220977 0 -0.0111521 -0.0209171 -0.0109456 0.0209171zm0.0546407 0.00799126l0.0379817 -0.0311634 -0.0326302 0c-0.00228917,0 -0.00400984,-0.000342997 -0.00516201,-0.00103847 -0.00116922,-0.000684099 -0.00173772,-0.00160507 -0.00173772,-0.00272692 0,-0.00118059 0.000568503,-0.00212431 0.00173772,-0.00285767 0.00115217,-0.000720104 0.00287283,-0.00108584 0.00516201,-0.00108584l0.0420427 0c0.00545573,0 0.00817697,0.0017472 0.00817697,0.00523023 0,0.00165245 -0.000449117,0.00298654 -0.00136062,0.00397763 -0.000913395,0.00099109 -0.00273639,0.00258479 -0.00548984,0.00480385l-0.035503 0.0289804 0.0391338 0c0.00230433,0 0.00404395,0.000331627 0.00517906,0.00097972 0.00115406,0.000661358 0.00172256,0.00158233 0.00172256,0.00275155 0,0.00122607 -0.000568503,0.00219442 -0.00172256,0.00290315 -0.00113511,0.000720104 -0.00287473,0.00107447 -0.00517906,0.00107447l-0.0480158 0c-0.00324994,0 -0.00571345,-0.000496493 -0.00734506,-0.00149895 -0.00165434,-0.00100436 -0.00248057,-0.00234981 -0.00248057,-0.00403827 0,-0.000566608 0.000136441,-0.00109721 0.000396057,-0.00158044 0.000276671,-0.000485123 0.000636723,-0.00094561 0.00108584,-0.00137009 0.000462382,-0.000424482 0.00108205,-0.00096835 0.00189122,-0.00162971 0.000809169,-0.000648093 0.00151411,-0.00122797 0.00211673,-0.00171119zm0.0692872 0.00643356l0 -0.0399468c0,-0.00206556 0.000685994,-0.00362326 0.00206367,-0.00466172 0.00137578,-0.00103847 0.00316656,-0.0015577 0.0053534,-0.0015577 0.00223611,0 0.00406101,0.000505968 0.00545573,0.00153306 0.00139283,0.0010271 0.00209778,0.00259806 0.00209778,0.00468636l0 0.0399468c0,0.0020883 -0.000704944,0.00365926 -0.00209778,0.00469773 -0.00139473,0.00104036 -0.00321962,0.00155959 -0.00545573,0.00155959 -0.00215463,0 -0.00392457,-0.000519233 -0.00531929,-0.00157096 -0.00139283,-0.00104984 -0.00209778,-0.00260943 -0.00209778,-0.00468636zm0.0352946 -0.0165738l-0.00161644 -0.0165605c-0.000293727,-0.00322341 -0.000447222,-0.00553722 -0.000447222,-0.00694142 0,-0.00192343 0.000721999,-0.00341102 0.00218495,-0.00448549 0.00146295,-0.00107447 0.00338828,-0.00160507 0.00578167,-0.00160507 0.00289178,0 0.00481901,0.000684099 0.00580062,0.0020523 0.00097972,0.00137009 0.00146295,0.00335417 0.00146295,0.00593896 0,0.00152359 -0.000121281,0.00305665 -0.000361947,0.00462572l-0.00216789 0.0170475c-0.000223611,0.00202956 -0.000723894,0.00358725 -0.00149895,0.00467309 -0.000773164,0.00107447 -0.00206367,0.00161834 -0.0038355,0.00161834 -0.00182489,0 -0.00308129,-0.000519233 -0.00378812,-0.00157096 -0.000704944,-0.00104984 -0.00120333,-0.00264354 -0.00151411,-0.00479248zm0.00559407 0.0227591c-0.00204661,0 -0.00383929,-0.000460487 -0.00536856,-0.0013682 -0.00153306,-0.000909605 -0.00228917,-0.00218495 -0.00228917,-0.00381465 0,-0.00144021 0.000721999,-0.00265491 0.00218495,-0.00365737 0.00146295,-0.00100436 0.00325373,-0.00150085 0.00538562,-0.00150085 0.00211673,0 0.00392457,0.000496493 0.00542162,0.00150085 0.00149706,0.00100246 0.00223801,0.00221716 0.00223801,0.00365737 0,0.00160697 -0.000758004,0.00288041 -0.00227212,0.00380139 -0.00151601,0.000920975 -0.00327079,0.00138146 -0.00530034,0.00138146z"/>
 </g>
</svg>
