<?xml version="1.0" encoding="UTF-8"?>
<!DOCTYPE svg PUBLIC "-//W3C//DTD SVG 1.1//EN" "http://www.w3.org/Graphics/SVG/1.1/DTD/svg11.dtd">
<!-- Creator: CorelDRAW -->
<svg xmlns="http://www.w3.org/2000/svg" xml:space="preserve" width="5548in" height="7180in" style="shape-rendering:geometricPrecision; text-rendering:geometricPrecision; image-rendering:optimizeQuality; fill-rule:evenodd; clip-rule:evenodd"
viewBox="0 0 1591.77 2296.32"
 xmlns:xlink="http://www.w3.org/1999/xlink">
 <defs>
  <style type="text/css">
   <![CDATA[
    .fil0 {fill:black}
   ]]>
  </style>
 </defs>
 <g id="Layer_x0020_1">
  <metadata id="CorelCorpID_0Corel-Layer"/>
  <g id="_581022736">
   <path id="_581024296" class="fil0" d="M764.082 162.74l44.7647 -19.0486 47.5718 20.4228 -27.7005 52.8154 63.9715 -7.48564 21.8241 33.0661 -26.9049 29.7618 -59.1076 -11.3279 0 91.333c0,38.8069 12.2501,49.1087 11.8251,83.1693l-31.3936 27.7321c-8.37162,-5.60519 -39.1459,-22.4298 -39.1459,-32.6186 0,-34.9692 13.0456,-44.95 13.0456,-84.8056l-0.908583 -87.7167 -44.7556 15.9522c-11.3776,-7.61673 -32.6186,-21.1099 -32.6186,-39.1369 0,-13.5383 19.0848,-32.6186 26.0958,-32.6186 18.8271,0 16.2505,12.2455 55.3061,11.7121l-21.8693 -51.2061zm-46.4824 6.8754l-32.6186 0c-24.2877,0 -48.5572,18.7548 -58.7144,32.6186 28.139,42.0209 110.901,89.3983 110.901,150.043 0,44.1138 -39.503,71.76 -84.8056,71.76l-19.5684 0c-41.3157,0 -71.7645,-42.613 -71.7645,-84.8102 0,-30.928 33.4684,-94.3661 45.6687,-117.424 -12.8196,-6.78047 -19.2385,-13.0456 -39.1414,-13.0456l-39.1459 0c-7.87891,-29.5177 -58.9992,-117.429 -91.3285,-117.429l-19.573 0c-20.3233,0 -32.6186,32.2751 -32.6186,52.1916l0 39.1414c0,32.9757 10.5052,34.6527 13.0502,65.2372 -35.037,2.9156 -49.276,17.1501 -52.1916,52.187 36.0088,8.38971 110.906,61.4356 110.906,104.379 0,15.2109 -17.4077,32.6186 -32.6186,32.6186l-26.0958 0c-60.6852,0 -78.5088,-123.237 -100.663,-134.186 -70.969,-35.0867 -64.2608,-87.78 -140.713,-94.1401 25.9692,38.7798 164.711,339.227 189.184,339.227l913.312 0c25.1058,0 167.853,-298.91 189.189,-339.227 -37.826,3.14614 -56.9515,17.2314 -76.6148,40.8139 -42.0615,50.4377 -8.57052,21.919 -64.4281,52.9917 -25.0968,13.9633 -32.0762,134.52 -106.86,134.52 -26.3489,0 -45.6642,-14.2028 -45.6642,-39.1414 0,-30.155 78.9066,-91.0527 104.379,-97.8558l0 -19.5684c0,-19.4645 -26.1952,-31.0003 -45.6642,-32.6186 0,-35.2313 13.0456,-58.407 13.0456,-84.8102 0,-37.9842 -19.3786,-53.1318 -26.0958,-78.2828 -72.4471,1.61375 -97.7699,74.4767 -124.467,120.814l-71.2402 16.1827c9.53335,40.9269 39.1414,60.7169 39.1414,110.901l0 32.6186c0,36.0902 -37.6181,65.2372 -71.76,65.2372l-6.52282 0c-42.9159,0 -84.8102,-22.8683 -84.8102,-65.2372l0 -19.5684c0,-41.4649 82.9387,-118.274 110.901,-136.997 -14.2752,-26.9863 -22.0501,-34.4358 -59.3563,-38.495 -57.8826,-6.30132 -33.2153,-1.13912 -38.9154,-58.9449 -4.52032,-45.8541 -42.8571,-111.317 -90.9126,-111.317 -50.3925,0 -84.8056,105.115 -84.8056,169.616z"/>
   <path id="_581023960" class="fil0" d="M1239.49 671.936c15.03,0 19.5684,-4.54292 19.5684,-19.573l0 -39.1414c0,-15.03 -4.5384,-19.573 -19.5684,-19.573l-887.22 0 0 58.7144c0,15.03 4.54292,19.573 19.573,19.573l867.647 0z"/>
   <path id="_581023624" class="fil0" d="M769.787 828.501c0,-15.03 4.54292,-19.573 19.573,-19.573 9.14008,0 13.0456,8.89598 13.0456,19.573l0 19.5684c14.6323,3.41284 14.9984,6.52734 32.6186,6.52734l78.2828 0c15.0346,0 19.573,-4.54292 19.573,-19.573 0,-78.1156 -59.6049,-117.424 -136.997,-117.424l-32.6186 0c-61.7068,0 -123.952,46.6903 -123.952,110.901l0 6.52282c0,110.043 134.393,116.095 169.62,182.661l-18.1762 20.9697c-11.5539,-8.19533 -20.9697,-10.0487 -20.9697,-27.4926l0 -19.5684 -110.901 0c-10.677,0 -19.573,3.90555 -19.573,13.0456 0,84.7378 63.8901,123.947 150.047,123.947l6.52282 0c63.7636,0 136.997,-37.5729 136.997,-97.8513l0 -32.6186c0,-81.4606 -163.093,-122.098 -163.093,-163.093l0 -6.52282z"/>
   <path id="_581023600" class="fil0" d="M469.701 815.456l143.52 0 0 -91.333c-14.6323,-3.40832 -14.9984,-6.52282 -32.6186,-6.52282l-208.757 0c-17.6202,0 -17.9863,3.1145 -32.6186,6.52282l0 397.941 273.994 0 0 -91.3285 -143.52 0 0 -45.6687c0,-27.262 38.4182,-19.5684 58.7099,-19.5684l26.0958 0 0 -71.76c0,-15.0346 -4.5384,-19.573 -19.5684,-19.573l-65.2372 0 0 -58.7099z"/>
   <path id="_581023888" class="fil0" d="M169.611 1128.59c87.3461,0 136.997,-79.0874 136.997,-169.611l0 -371.85c-14.6277,-3.40832 -14.9984,-6.52282 -32.6186,-6.52282l-78.2828 0c-34.5442,0 -19.573,156.656 -19.573,195.712 0,71.7555 0,143.52 0,215.28 -11.7709,7.88343 -11.468,13.0456 -26.0913,13.0456 -33.6944,0 11.242,-84.8056 -32.6186,-84.8056l-110.901 0 0 71.76c0,75.9503 63.2889,136.993 143.52,136.993l19.5684 0z"/>
   <path id="_581023840" class="fil0" d="M958.971 991.594c0,82.7127 57.7154,136.993 137.002,136.993l26.0913 0c79.9282,0 136.997,-53.1318 136.997,-136.993l0 -267.472c-14.6323,-3.40832 -14.9984,-6.52282 -32.6186,-6.52282l-78.2828 0c-33.6492,0 -19.5684,108.926 -19.5684,143.52 0,54.3613 0,108.727 0,163.088l-18.7864 13.9949 -19.573 -14.9396c-0.786535,-53.4166 -0.786535,-107.782 -0.786535,-162.144 0,-34.594 14.0808,-143.52 -19.5684,-143.52l-78.2873 0c-17.6157,0 -17.9863,3.1145 -32.6186,6.52282l0 267.472z"/>
   <path id="_581023792" class="fil0" d="M1415.63 730.646c0,-21.693 11.7121,-19.1029 32.6186,-19.5684l8.14561 51.9294 122.324 0.257658 0 -32.6186c0,-84.2768 -58.5381,-143.52 -143.52,-143.52l-13.0456 0c-83.9829,0 -136.997,70.318 -136.997,156.57 0,142.982 169.616,176.889 169.616,247.899 0,9.14008 -8.89598,13.0456 -19.573,13.0456 -7.93767,0 -19.5684,-13.4931 -19.5684,-26.0958l0 -26.0958 -123.952 0 0 52.1916c0,68.2839 62.0413,123.947 130.474,123.947l19.5684 0c73.7173,0 136.997,-52.4537 136.997,-123.947l0 -58.7144c0,-82.1974 -163.088,-158.374 -163.088,-202.23l0 -13.0502z"/>
   <path id="_581023744" class="fil0" d="M84.8056 1252.54c0,-15.0346 4.5384,-19.573 19.5684,-19.573l78.2873 0 0 306.613 -78.2873 0c-15.03,0 -19.5684,-4.5384 -19.5684,-19.573l0 -267.467zm652.363 0c0,-15.0346 4.54292,-19.573 19.573,-19.573l117.424 0 66.7515 195.169 11.5358 0.537918c2.65795,-31.9767 56.6667,-195.707 78.2828,-195.707l117.424 0 0 306.613 -78.2828 0c-46.392,0 3.26819,-122.008 -26.0958,-143.52l-48.5572 142.467 -101.486 1.05323 -52.4809 -145.916 -6.23351 2.39577 0 143.52 -97.8558 0 0 -287.04zm-508.843 39.1414c0,-46.5276 37.8983,-58.7144 84.8056,-58.7144l202.234 0 0 78.2873 -189.184 0 0 45.6642 136.993 0c46.6361,0 65.2372,18.6011 65.2372,65.2372l0 45.6642c0,44.1002 -23.3339,71.76 -65.2372,71.76l-234.848 0 0 -58.7144c0,-15.03 4.5384,-19.573 19.573,-19.573l182.661 0 0 -39.1369c-74.7118,-17.4077 -202.234,23.6458 -202.234,-58.7144l0 -71.76zm1063.35 130.474c0,-43.2233 -98.4841,-135.899 -110.901,-189.189l91.333 0c18.0948,0 61.0017,75.4757 65.2372,91.333l6.84376 4.69209 65.5446 -95.5911 97.2229 -0.43395c-20.8748,39.4488 -117.424,157.072 -117.424,189.189l0 117.424 -97.8558 0 0 -117.424zm-1291.68 169.611l1591.77 0 0 -391.419c0,-15.03 -4.54292,-19.5684 -19.573,-19.5684l-1572.2 0 0 410.987z"/>
   <path id="_581023432" class="fil0" d="M300.086 1865.76c0,-13.0954 113.889,-164.562 123.952,-202.234 -17.1998,-8.52531 5.37013,-6.52282 -19.573,-6.52282l-123.952 0c-52.5577,0 -73.7444,116.299 -110.901,143.52 0,-34.594 14.0808,-143.52 -19.5684,-143.52l-123.952 0c-15.2696,0 -26.0913,10.8262 -26.0913,26.0958l0 417.51c0,15.0346 4.5384,19.573 19.5684,19.573l150.043 0 0 -110.901c0,-17.6202 3.11902,-17.9863 6.52282,-32.6186l81.4064 141.866 166.497 1.65444c-1.15268,-51.6582 -123.952,-217.54 -123.952,-254.421z"/>
   <path id="_581023552" class="fil0" d="M482.747 2120.18l163.093 0 0 -443.606c0,-15.0346 -4.54292,-19.573 -19.573,-19.573l-123.947 0c-15.0346,0 -19.573,4.5384 -19.573,19.573l0 443.606z"/>
   <path id="_581023576" class="fil0" d="M880.689 1957.09c0,-22.4886 -4.82318,-25.2595 -6.52282,-45.6642l6.40981 -2.20139 72.4335 210.769 182.101 0.189853 0 -456.656c-14.6277,-3.40832 -14.9939,-6.52282 -32.6141,-6.52282l-110.906 0c-34.6799,0 -19.5684,168.603 -19.5684,208.757 -32.6141,-23.8989 -54.1534,-208.757 -97.8558,-208.757l-156.566 0c-3.40832,14.6323 -6.52282,14.9984 -6.52282,32.6186l0 410.987c0,15.0346 4.5384,19.573 19.5684,19.573l130.474 0c15.03,0 19.5684,-4.5384 19.5684,-19.573l0 -143.52z"/>
   <path id="_581022832" class="fil0" d="M1363.44 1787.48c0,-15.2741 10.8262,-26.0958 26.0958,-26.0958 14.6232,0 14.3204,5.1622 26.0958,13.0456 0,24.0571 -5.76792,45.6687 19.5684,45.6687l150.043 0 0 -32.6186c0,-84.887 -87.6128,-130.474 -176.139,-130.474l-52.187 0c-103.687,0 -163.093,57.0419 -163.093,163.093l0 156.566c0,101.73 88.2592,150.043 189.189,150.043 105.626,0 202.23,-38.2464 202.23,-143.52l0 -104.379c0,-15.03 -4.5384,-19.5684 -19.5684,-19.5684l-156.57 0c-15.03,0 -19.5684,4.5384 -19.5684,19.5684l0 45.6642c0,17.6202 3.1145,17.9909 6.52282,32.6186l19.573 0 0 39.1459c0,15.03 -4.54292,19.5684 -19.573,19.5684l-26.0958 0c-3.40832,-14.6323 -6.52282,-14.9984 -6.52282,-32.6186l0 -195.707z"/>
   <path id="_581022808" class="fil0" d="M1507.76 2192.19l14.8583 24.7171 30.0059 1.12556 -19.2927 13.5383 5.10344 25.9014 -25.2505 -5.68204 -31.9858 6.71267 7.61673 -27.0541 -22.1676 -11.3279 32.9893 -2.34604 8.12301 -25.585zm-130.054 64.5139c-15.8482,-2.9382 -16.2189,-6.05722 -33.8391,-6.05722 -3.46256,0 -14.3158,9.39774 -19.5684,13.0502l7.85179 -32.2841 -22.6603 -10.5956 26.7512 -3.51681 18.0135 -27.1309c4.19485,20.1832 2.50878,27.8632 22.2309,27.8632l19.573 0 -25.7477 20.0657 7.39524 18.6056zm-158.93 0.768454c-17.3671,-4.61072 -10.008,-6.82568 -24.9521,-6.82568 -13.796,0 -8.60216,2.337 -26.0958,6.52734l6.17023 -19.7086 -19.2159 -19.4328c28.9345,-0.646405 30.2726,2.07482 32.6186,-26.0958l20.6759 25.3635 24.9883 0.732291 -19.2927 13.5383 5.10344 25.9014zm-185.658 -67.3165l11.4635 27.6191 31.8185 0.257658 -19.2927 13.5383 -0.28026 25.6031 -25.8381 -7.32291 -25.9783 8.74681 7.57605 -27.149 -22.1631 -11.3279 31.1766 -3.21394 11.5178 -26.7512zm-132.056 66.7651c-19.3108,-4.05924 -11.9517,-6.2742 -26.8959,-6.2742 -13.796,0 -8.60216,2.337 -26.0958,6.52734l7.95123 -25.7251 -22.7553 -10.6318 28.2113 -2.6489 7.38167 -19.243 11.8297 -0.465592 6.17023 19.7086 26.4484 -0.135609 -18.1265 15.3329 5.88093 23.5554zm-189.189 -64.7309l13.9135 25.0968 30.9551 0.745852 -19.2972 13.5383 5.10796 25.9014 -25.2505 -5.68204 -25.5443 6.17927 -11.2511 -40.6919 23.248 0.497235 8.11849 -25.585zm-130.054 64.5139c-19.7267,-3.84227 -12.3676,-6.05722 -27.3117,-6.05722 -13.796,0 -8.60216,2.337 -26.0958,6.52734l7.95123 -25.7251 -22.7553 -10.6318 31.7688 -3.91007 11.5178 -26.7512c5.673,20.1968 3.98692,27.8768 23.7091,27.8768l19.573 0 -25.7477 20.0657 7.39072 18.6056zm-158.93 0.768454c-17.3625,-4.61072 -10.008,-6.82568 -24.9476,-6.82568 -13.8005,0 -8.60216,2.337 -26.0958,6.52734l6.16571 -19.7086 -26.6925 -18.0722 20.5268 -1.36061 11.9427 -0.732291 18.0135 -27.1309c5.00851,29.938 6.34652,27.2168 35.2811,27.8632l-18.131 15.3329 3.93719 24.1068zm-187.241 -65.2824l13.909 25.0968 30.9551 0.745852 -19.2927 13.5383 5.10344 25.9014 -31.4162 -7.05621 -25.7794 8.18177 7.57605 -27.149 -22.1676 -11.3279 32.9893 -2.34604 8.12301 -25.585zm-130.474 64.7309c-15.4278,-3.15518 -15.794,-6.2742 -33.4142,-6.2742 -3.46708,0 -14.3204,9.39774 -19.573,13.0502l7.85631 -32.2841 -22.6603 -10.5956 26.7467 -3.51681 18.0135 -27.1309c5.00851,29.938 6.34652,27.2168 35.2811,27.8632l-18.131 15.3329 5.88093 23.5554zm-105.174 39.3945l1591.77 0 0 -117.424 -19.573 0 -71.76 -2.17427 -104.379 2.17427 -345.754 -0.397788 -241.367 -1.35157 -84.8147 1.74936 -32.6186 -1.63183 -26.1545 0.822697 -117.365 0.809136 -32.6186 -1.63183 -97.8558 1.63183 -32.6186 -1.63183 -6.52282 1.63183 -32.6186 -1.63183 -97.8513 1.63183 -51.3779 -2.01154 -105.192 2.01154 -50.5552 -2.01154 -40.7732 2.01154 0 117.424z"/>
  </g>
 </g>
</svg>
