<?xml version="1.0" encoding="UTF-8"?>
<!DOCTYPE svg PUBLIC "-//W3C//DTD SVG 1.1//EN" "http://www.w3.org/Graphics/SVG/1.1/DTD/svg11.dtd">
<!-- Creator: CorelDRAW -->
<svg xmlns="http://www.w3.org/2000/svg" xml:space="preserve" width="1.98819in" height="1.98819in" style="shape-rendering:geometricPrecision; text-rendering:geometricPrecision; image-rendering:optimizeQuality; fill-rule:evenodd; clip-rule:evenodd"
viewBox="0 0 0.17099 0.17099"
 xmlns:xlink="http://www.w3.org/1999/xlink">
 <defs>
  <style type="text/css">
   <![CDATA[
    .fil1 {fill:black}
    .fil0 {fill:#333333;fill-rule:nonzero}
   ]]>
  </style>
 </defs>
 <g id="Layer_x0020_1">
  <metadata id="CorelCorpID_0Corel-Layer"/>
  <path class="fil0" d="M0.0347059 0l0.101578 0 2.37016e-006 0 0 3.38594e-006c0.00955987,6.77189e-007 0.0182367,0.00389756 0.0245203,0.0101815 0.00628296,0.0062833 0.0101785,0.0149581 0.0101798,0.0245159l3.38594e-006 0 0 5.07892e-006 0 0.101578 0 2.37016e-006 -3.38594e-006 0c-6.77189e-007,0.00955987 -0.00389756,0.0182367 -0.0101815,0.0245203 -0.0062833,0.00628296 -0.0149581,0.0101785 -0.0245159,0.0101798l0 3.38594e-006 -5.07892e-006 0 -0.101578 0 -2.37016e-006 0 0 -3.38594e-006c-0.00955987,-6.77189e-007 -0.0182367,-0.00389756 -0.0245203,-0.0101815 -0.00628296,-0.0062833 -0.0101785,-0.0149581 -0.0101798,-0.0245159l-3.38594e-006 0 0 -5.07892e-006 0 -0.101578 0 -2.37016e-006 3.38594e-006 0c6.77189e-007,-0.00955987 0.00389756,-0.0182367 0.0101815,-0.0245203 0.0062833,-0.00628296 0.0149581,-0.0101785 0.0245159,-0.0101798l0 -3.38594e-006 5.07892e-006 0zm0.101578 0.00169297l-0.101578 0 -5.07892e-006 0 0 -3.38594e-006c-0.0090855,1.01578e-006 -0.017337,0.00370964 -0.0233187,0.00969091 -0.00598229,0.00598195 -0.00969226,0.0142355 -0.0096926,0.0233231l3.38594e-006 0 0 2.37016e-006 0 0.101578 0 5.07892e-006 -3.38594e-006 0c1.01578e-006,0.0090855 0.00370964,0.017337 0.00969091,0.0233187 0.00598195,0.00598229 0.0142355,0.00969226 0.0233231,0.0096926l0 -3.38594e-006 2.37016e-006 0 0.101578 0 5.07892e-006 0 0 3.38594e-006c0.0090855,-1.01578e-006 0.017337,-0.00370964 0.0233187,-0.00969091 0.00598229,-0.00598195 0.00969226,-0.0142355 0.0096926,-0.0233231l-3.38594e-006 0 0 -2.37016e-006 0 -0.101578 0 -5.07892e-006 3.38594e-006 0c-1.01578e-006,-0.0090855 -0.00370964,-0.017337 -0.00969091,-0.0233187 -0.00598195,-0.00598229 -0.0142355,-0.00969226 -0.0233231,-0.0096926l0 3.38594e-006 -2.37016e-006 0z"/>
  <g id="_419707128">
   <path id="_419708400" class="fil1" d="M0.0836196 0.0273747l0.00264002 -0.00112346 0.00280593 0.00120438 -0.00163372 0.00311507 0.00377296 -0.000441527 0.00128734 0.0019503 -0.00158699 0.00175527 -0.00348617 -0.000668047 0 0.00538704c0,0.0022889 0.00072256,0.00289634 0.000697504,0.00490522l-0.00185177 0.00163575c-0.000493671,-0.000330807 -0.00230854,-0.00132289 -0.00230854,-0.00192389 0,-0.00206272 0.000769286,-0.00265119 0.000769286,-0.00500205l-5.34979e-005 -0.00517338 -0.00263968 0.000940954c-0.000671433,-0.000449315 -0.00192389,-0.00124501 -0.00192389,-0.00230854 0,-0.000798406 0.00112549,-0.00192389 0.00153891,-0.00192389 0.00111059,0 0.000958561,0.000722222 0.00326202,0.000691071l-0.00128971 -0.00302026zm-0.0027416 0.000405297l-0.00192389 0c-0.00143259,0 -0.00286417,0.00110653 -0.00346314,0.00192389 0.00165979,0.00247851 0.0065413,0.00527293 0.0065413,0.0088495 0,0.0026021 -0.00232987,0.00423243 -0.00500205,0.00423243l-0.00115427 0c-0.00243686,0 -0.00423243,-0.00251305 -0.00423243,-0.00500172 0,-0.00182435 0.00197367,-0.00556615 0.00269318,-0.00692595 -0.000755743,-0.00039988 -0.00113463,-0.000769625 -0.00230854,-0.000769625l-0.00230854 0c-0.00046489,-0.00174071 -0.00347973,-0.00692595 -0.0053867,-0.00692595l-0.00115427 0c-0.00119896,0 -0.00192389,0.00190358 -0.00192389,0.0030785l0 0.00230854c0,0.00194489 0.000619289,0.00204376 0.000769625,0.00384745 -0.00206678,0.000172006 -0.00290649,0.00101172 -0.0030785,0.00307816 0.002124,0.000495025 0.0065413,0.00362364 0.0065413,0.00615632 0,0.000897275 -0.00102662,0.00192389 -0.00192389,0.00192389l-0.00153891 0c-0.00357928,0 -0.00463062,-0.00726861 -0.00593725,-0.00791431 -0.00418604,-0.00206949 -0.00379023,-0.00517745 -0.00829929,-0.00555261 0.00153146,0.00228721 0.00971461,0.0200079 0.011158,0.0200079l0.0538677 0c0.00148067,0 0.00989982,-0.0176299 0.011158,-0.0200079 -0.00223066,0.00018555 -0.00335886,0.00101646 -0.00451854,0.00240741 -0.00248088,0.00297489 -0.000505521,0.00129275 -0.00380004,0.00312556 -0.00148033,0.000823462 -0.00189173,0.00793394 -0.0063026,0.00793394 -0.00155415,0 -0.00269318,-0.000837683 -0.00269318,-0.00230854 0,-0.00177864 0.00465398,-0.00537045 0.00615598,-0.00577168l0 -0.00115427c0,-0.00114783 -0.00154501,-0.00182807 -0.00269318,-0.00192355 0,-0.00207795 0.000769625,-0.00344486 0.000769625,-0.00500205 0,-0.00224048 -0.00114309,-0.00313403 -0.00153925,-0.00461741 -0.00427272,9.5145e-005 -0.0057666,0.00439292 -0.00734106,0.00712572l-0.00420196 0.000954498c0.000562405,0.00241384 0.00230888,0.00358097 0.00230888,0.00654097l0 0.00192389c0,0.0021284 -0.00221881,0.00384779 -0.00423277,0.00384779l-0.000384643 0c-0.00253133,0 -0.00500205,-0.00134896 -0.00500205,-0.00384779l0 -0.00115427c0,-0.00244533 0.00489167,-0.00697572 0.00654097,-0.00808022 -0.000841746,-0.00159139 -0.00130054,-0.00203089 -0.00350107,-0.00227028 -0.00341371,-0.000371777 -0.00195877,-6.73803e-005 -0.00229499,-0.00347635 -0.000266474,-0.00270469 -0.00252795,-0.00656568 -0.00536198,-0.00656568 -0.00297218,0 -0.00500205,0.00619966 -0.00500205,0.0100038l3.38594e-007 0z"/>
   <path id="_419708256" class="fil1" d="M0.111659 0.0574073c0.00088644,0 0.00115427,-0.000267828 0.00115427,-0.00115461l0 -0.00230854c0,-0.00088644 -0.000267828,-0.00115427 -0.00115427,-0.00115427l-0.0523284 0 0 0.0034628c0,0.000886779 0.000267828,0.00115461 0.00115427,0.00115461l0.0511741 0 0 0z"/>
   <path id="_419708328" class="fil1" d="M0.0839562 0.0666415c0,-0.00088644 0.000267828,-0.00115427 0.00115427,-0.00115427 0.000539042,0 0.000769625,0.000524483 0.000769625,0.00115427l0 0.00115427c0.000862738,0.000201125 0.000884409,0.000384643 0.00192389,0.000384643l0.00461707 0c0.00088644,0 0.00115427,-0.000267828 0.00115427,-0.00115427 0,-0.00460725 -0.00351563,-0.00692561 -0.00808022,-0.00692561l-0.00192389 0c-0.00363921,0 -0.00731059,0.00275345 -0.00731059,0.00654097l0 0.000384643c0,0.00649052 0.00792649,0.00684739 0.0100041,0.0107734l-0.00107199 0.00123689c-0.000681252,-0.000483513 -0.00123655,-0.00059254 -0.00123655,-0.00162153l0 -0.00115427 -0.0065413 0c-0.000629786,0 -0.00115427,0.000230244 -0.00115427,0.000769625 0,0.00499799 0.00376822,0.00731059 0.0088495,0.00731059l0.000384982 0c0.00376077,0 0.00807988,-0.0022161 0.00807988,-0.00577168l0 -0.00192389c0,-0.00480465 -0.00961879,-0.00720123 -0.00961879,-0.00961913l0 -0.000384643 0 0z"/>
   <path id="_419708112" class="fil1" d="M0.0662568 0.0658718l0.00846452 0 0 -0.0053867c-0.000862738,-0.000201125 -0.000884409,-0.000384643 -0.00192355,-0.000384643l-0.0123126 0c-0.00103915,0 -0.00106082,0.000183518 -0.00192389,0.000384643l0 0.0234707 0.0161601 0 0 -0.0053867 -0.00846452 0 0 -0.00269352c0,-0.00160798 0.00226587,-0.00115427 0.0034628,-0.00115427l0.00153891 0 0 -0.00423243c0,-0.00088644 -0.00026749,-0.00115427 -0.00115427,-0.00115427l-0.00384745 0 0 -0.0034628 0 0z"/>
   <path id="_419708040" class="fil1" d="M0.0485575 0.0843408c0.00515171,0 0.00808022,-0.00466481 0.00808022,-0.0100038l0 -0.0219321c-0.000863077,-0.000200786 -0.000884747,-0.000384643 -0.00192389,-0.000384643l-0.00461741 0c-0.00203732,0 -0.00115427,0.00923956 -0.00115427,0.011543 0,0.00423243 0,0.00846486 0,0.0126973 -0.000694457,0.000465229 -0.000676512,0.000769625 -0.00153891,0.000769625 -0.00198755,0 0.000662968,-0.00500205 -0.00192389,-0.00500205l-0.00654097 0 0 0.00423243c0,0.00447994 0.00373266,0.00808022 0.00846452,0.00808022l0.00115461 0 0 0z"/>
   <path id="_419707968" class="fil1" d="M0.0951142 0.0762606c0,0.00487847 0.00340389,0.00808022 0.00808022,0.00808022l0.00153891 0c0.00471425,0 0.00808022,-0.00313403 0.00808022,-0.00808022l0 -0.0157755c-0.000863077,-0.000201125 -0.000884747,-0.000384643 -0.00192389,-0.000384643l-0.00461707 0c-0.00198484,0 -0.00115427,0.00642449 -0.00115427,0.00846486 0,0.00320615 0,0.00641264 0,0.00961913l-0.00110822 0.000825493 -0.00115427 -0.000881361c-4.63874e-005,-0.00315062 -4.63874e-005,-0.00635711 -4.63874e-005,-0.00956326 0,-0.00204037 0.000830572,-0.00846486 -0.00115427,-0.00846486l-0.00461707 0c-0.00103948,0 -0.00106115,0.000183518 -0.00192389,0.000384643l0 0.0157755 0 0z"/>
   <path id="_419707944" class="fil1" d="M0.122048 0.0608698c0,-0.00127955 0.000690733,-0.0011265 0.00192389,-0.00115427l0.000480465 0.00306292 0.00721477 1.52367e-005 0 -0.00192389c0,-0.00497057 -0.00345265,-0.00846486 -0.00846486,-0.00846486l-0.000769625 0c-0.0049533,0 -0.00807988,0.00414744 -0.00807988,0.00923448 0,0.00843337 0.0100038,0.0104331 0.0100038,0.0146212 0,0.000539381 -0.000524483,0.000769625 -0.00115427,0.000769625 -0.000468276,0 -0.00115427,-0.000795697 -0.00115427,-0.00153891l0 -0.00153925 -0.00731059 0 0 0.00307816c0,0.00402758 0.00365919,0.00731059 0.00769523,0.00731059l0.00115427 0c0.00434789,0 0.00808022,-0.00309374 0.00808022,-0.00731059l0 -0.0034628c0,-0.00484799 -0.00961913,-0.00934114 -0.00961913,-0.011928l0 -0.000769625 0 0z"/>
   <path id="_419707440" class="fil1" d="M0.0435554 0.0916514c0,-0.000886779 0.000267828,-0.00115427 0.00115427,-0.00115427l0.00461741 0 0 0.018084 -0.00461741 0c-0.00088644,0 -0.00115427,-0.000267828 -0.00115427,-0.00115427l0 -0.0157755zm0.0384768 0c0,-0.000886779 0.000267828,-0.00115427 0.00115427,-0.00115427l0.00692595 0 0.00393684 0.0115109 0.000680236 3.18279e-005c0.000157108,-0.00188597 0.00334227,-0.0115427 0.00461707,-0.0115427l0.00692595 0 0 0.018084 -0.00461707 0c-0.00273618,0 0.00019266,-0.00719615 -0.00153925,-0.00846486l-0.00286383 0.00840256 -0.00598567 6.23014e-005 -0.00309543 -0.00860605 -0.000367375 0.000141194 0 0.00846486 -0.00577168 0 0 -0.0169297zm-0.030012 0.00230854c0,-0.00274397 0.0022354,-0.0034628 0.00500205,-0.0034628l0.0119277 0 0 0.00461707 -0.011158 0 0 0.00269352 0.00807988 0c0.00275074,0 0.00384779,0.00109705 0.00384779,0.00384745l0 0.00269352c0,0.00260108 -0.00137639,0.00423243 -0.00384779,0.00423243l-0.0138516 0 0 -0.0034628c0,-0.000886779 0.000267828,-0.00115427 0.00115461,-0.00115427l0.0107731 0 0 -0.00230888c-0.00440613,-0.00102662 -0.0119277,0.00139467 -0.0119277,-0.0034628l0 -0.00423243 0 0zm0.0627172 0.00769523c0,-0.00254928 -0.00580893,-0.00801521 -0.00654097,-0.011158l0.0053867 0c0.00106725,0 0.0035979,0.0044515 0.00384779,0.0053867l0.000403605 0.00027697 0.00386607 -0.00563827 0.0057341 -2.53946e-005c-0.00123113,0.00232648 -0.00692561,0.00926394 -0.00692561,0.011158l0 0.00692595 -0.00577168 0 0 -0.00692595zm-0.0761837 0.0100041l0.0938831 0 0 -0.023086c0,-0.000886779 -0.000267828,-0.00115427 -0.00115427,-0.00115427l-0.0927288 0 0 0.02424 0 3.38594e-007z"/>
   <path id="_419707752" class="fil1" d="M0.0562527 0.127819c0,-0.000771995 0.00671737,-0.00970581 0.00731059,-0.0119277 -0.00101409,-0.000502813 0.000316924,-0.000384643 -0.00115427,-0.000384643l-0.00731059 0c-0.00309983,0 -0.00434958,0.00685925 -0.00654097,0.00846486 0,-0.00204071 0.000830233,-0.00846486 -0.00115427,-0.00846486l-0.00731059 0c-0.000900661,0 -0.00153925,0.00063825 -0.00153925,0.00153891l0 0.0246253c0,0.00088644 0.000267828,0.00115427 0.00115427,0.00115427l0.00884984 0 0 -0.00654097c0,-0.00103948 0.000183857,-0.00106082 0.000384643,-0.00192389l0.00480127 0.00836734 0.00981991 9.75152e-005c-6.77189e-005,-0.00304701 -0.00731059,-0.0128307 -0.00731059,-0.0150062l0 0z"/>
   <path id="_419707368" class="fil1" d="M0.0670265 0.142826l0.00961913 0 0 -0.0261642c0,-0.000886779 -0.000267828,-0.00115427 -0.00115427,-0.00115427l-0.00731059 0c-0.000886779,0 -0.00115427,0.00026749 -0.00115427,0.00115427l0 0.0261642 0 0z"/>
   <path id="_419707656" class="fil1" d="M0.0904971 0.133206c0,-0.00132661 -0.000284758,-0.00148982 -0.000384982,-0.00269318l0.00037821 -0.00013002 0.00427205 0.0124312 0.0107406 1.11736e-005 0 -0.0269338c-0.000862738,-0.000200786 -0.000884409,-0.000384643 -0.00192389,-0.000384643l-0.00654097 0c-0.00204545,0 -0.00115427,0.00994418 -0.00115427,0.0123126 -0.00192355,-0.00140957 -0.00319396,-0.0123126 -0.00577168,-0.0123126l-0.00923415 0c-0.000201125,0.000863077 -0.000384982,0.000884747 -0.000384982,0.00192389l0 0.0242403c0,0.00088644 0.000267828,0.00115427 0.00115427,0.00115427l0.00769557 0c0.00088644,0 0.00115427,-0.000267828 0.00115427,-0.00115427l0 -0.00846486 0 0z"/>
   <path id="_419707200" class="fil1" d="M0.11897 0.123202c0,-0.000901 0.00063825,-0.00153925 0.00153925,-0.00153925 0.0008624,0 0.000844454,0.000304396 0.00153891,0.000769625 0,0.00141871 -0.000340287,0.00269352 0.00115427,0.00269352l0.0088495 0 0 -0.00192389c0,-0.0050068 -0.00516729,-0.00769523 -0.0103888,-0.00769523l-0.00307782 0c-0.00611569,0 -0.00961947,0.00336394 -0.00961947,0.00961913l0 0.00923415c0,0.00600023 0.00520555,0.00884984 0.0111584,0.00884984 0.00623014,0 0.0119277,-0.00225605 0.0119277,-0.00846486l0 -0.00615632c0,-0.000886779 -0.00026749,-0.00115427 -0.00115427,-0.00115427l-0.00923448 0c-0.00088644,0 -0.00115393,0.00026749 -0.00115393,0.00115427l0 0.00269318c0,0.00103948 0.000183518,0.00106115 0.000384643,0.00192389l0.00115427 0 0 0.00230888c0,0.00088644 -0.000267828,0.00115427 -0.00115427,0.00115427l-0.00153891 0c-0.000201464,-0.000863077 -0.000384982,-0.000884747 -0.000384982,-0.00192389l0 -0.011543 0 0z"/>
   <path id="_419707608" class="fil1" d="M0.127482 0.147073l0.000876282 0.00145799 0.00176983 6.60259e-005 -0.00113802 0.000798744 0.00030101 0.00152774 -0.00148914 -0.000335208 -0.00188665 0.000395817 0.000449315 -0.00159546 -0.00130731 -0.000668385 0.00194556 -0.000138147 0.000479111 -0.00150912zm-0.00767086 0.00380512c-0.00093452,-0.00017336 -0.000956191,-0.000357217 -0.00199534,-0.000357217 -0.000204511,0 -0.000844454,0.000554279 -0.00115427,0.000769625l0.000463197 -0.00190425 -0.00133677 -0.000624707 0.00157785 -0.000207558 0.00106251 -0.0016002c0.000247512,0.0011905 0.000147966,0.0016432 0.00131138,0.0016432l0.00115427 0 -0.0015186 0.00118373 0.000435771 0.00109738zm-0.00937331 4.53716e-005c-0.00102459,-0.00027223 -0.000590509,-0.000402589 -0.00147187,-0.000402589 -0.000813642,0 -0.000507214,0.000137808 -0.00153891,0.000384643l0.00036365 -0.00116206 -0.00113328 -0.00114648c0.00170652,-3.79226e-005 0.00178541,0.000122571 0.00192389,-0.00153891l0.00121928 0.00149591 0.0014739 4.30015e-005 -0.00113802 0.000798744 0.000301349 0.00152774zm-0.0109501 -0.0039707l0.000675834 0.00162932 0.00187683 1.48982e-005 -0.00113802 0.000798744 -1.62525e-005 0.00150979 -0.00152435 -0.000431708 -0.00153214 0.000515679 0.000446945 -0.00160087 -0.00130731 -0.000668385 0.00183891 -0.000189274 0.000679559 -0.00157819zm-0.00778903 0.00393785c-0.00113869,-0.000239386 -0.000704954,-0.000369745 -0.00158631,-0.000369745 -0.000813642,0 -0.000507214,0.000137808 -0.00153891,0.000384643l0.000468615 -0.0015169 -0.00134185 -0.000627077 0.00166385 -0.000156431 0.000435432 -0.00113497 0.000697843 -2.74261e-005 0.00036365 0.00116239 0.00156024 -8.12627e-006 -0.00106928 0.000904386 0.000346721 0.00138925zm-0.0111584 -0.00381765l0.000820753 0.00148033 0.0018257 4.36787e-005 -0.00113802 0.000798744 0.00030101 0.00152774 -0.00148948 -0.000335208 -0.00150641 0.000364666 -0.000663306 -0.0024003 0.00137097 2.94577e-005 0.000478772 -0.00150912zm-0.00767052 0.00380512c-0.00116341,-0.000226858 -0.000729671,-0.000357217 -0.00161069,-0.000357217 -0.000813981,0 -0.000507553,0.000137808 -0.00153925,0.000384643l0.000468953 -0.0015169 -0.00134219 -0.000627077 0.00187378 -0.000230583 0.00067922 -0.00157819c0.000334531,0.00119151 0.000235323,0.00164421 0.00139839,0.00164421l0.00115427 0 -0.0015186 0.00118373 0.00043611 0.00109738zm-0.00937365 4.53716e-005c-0.00102425,-0.00027223 -0.00059017,-0.000402589 -0.00147153,-0.000402589 -0.000813981,0 -0.000507553,0.000137808 -0.00153925,0.000384643l0.00036365 -0.00116206 -0.00157413 -0.0010659 0.00121047 -8.05855e-005 0.000704615 -4.30015e-005 0.00106217 -0.0016002c0.000295254,0.00176577 0.000374485,0.00160528 0.002081,0.0016432l-0.00106928 0.000904386 0.000232276 0.0014221zm-0.0110436 -0.0038505l0.000820414 0.00148033 0.0018257 4.36787e-005 -0.00113802 0.000798744 0.00030101 0.00152774 -0.00185279 -0.000416471 -0.00152063 0.000482497 0.000446945 -0.00160087 -0.00130731 -0.000668385 0.00194556 -0.000138147 0.000479111 -0.00150912zm-0.00769557 0.00381765c-0.000909803,-0.000185888 -0.000931473,-0.000369745 -0.00197062,-0.000369745 -0.000204511,0 -0.000844793,0.000554279 -0.00115461,0.000769625l0.000463536 -0.00190425 -0.00133677 -0.000624707 0.00157785 -0.000207897 0.00106217 -0.0016002c0.000295593,0.00176611 0.000374485,0.00160561 0.002081,0.00164354l-0.00106928 0.000904386 0.000346721 0.00138925zm-0.00620339 0.00232377l0.0938834 0 0 -0.00692595 -0.00115427 0 -0.00423277 -0.000128327 -0.00615598 0.000128327 -0.0203929 -2.3363e-005 -0.0142359 -7.99083e-005 -0.00500239 0.000103271 -0.00192389 -9.61608e-005 -0.00154264 4.87576e-005 -0.00692222 4.74032e-005 -0.00192389 -9.61608e-005 -0.00577168 9.61608e-005 -0.00192355 -9.61608e-005 -0.000384982 9.61608e-005 -0.00192389 -9.61608e-005 -0.00577134 9.61608e-005 -0.00303008 -0.000118508 -0.0062044 0.000118508 -0.002982 -0.000118508 -0.0024047 0.000118508 0 0.00692595 0 0z"/>
  </g>
 </g>
</svg>
