<?xml version="1.0" encoding="UTF-8"?>
<!DOCTYPE svg PUBLIC "-//W3C//DTD SVG 1.1//EN" "http://www.w3.org/Graphics/SVG/1.1/DTD/svg11.dtd">
<!-- Creator: CorelDRAW -->
<svg xmlns="http://www.w3.org/2000/svg" xml:space="preserve" width="25in" height="39in" style="shape-rendering:geometricPrecision; text-rendering:geometricPrecision; image-rendering:optimizeQuality; fill-rule:evenodd; clip-rule:evenodd"
viewBox="0 0 0.0417149 0.0404445"
 xmlns:xlink="http://www.w3.org/1999/xlink">
 <defs>
  <style type="text/css">
   <![CDATA[
    .fil0 {fill:#201613}
   ]]>
  </style>
 </defs>
 <g id="Layer_x0020_1">
  <metadata id="CorelCorpID_0Corel-Layer"/>
  <path class="fil0" d="M0.0240929 0.0285329c0.000349655,0.000162592 0.000513561,0.000872413 0.000673854,0.00123997 0.000779949,0.00178933 0.00159324,0.00355732 0.00243822,0.00531003 -0.000266881,-4.15513e-005 -0.000473981,-6.22448e-005 -0.000621299,-6.22448e-005 -0.000164399,0 -0.000283961,1.85585e-005 -0.000358688,5.58397e-005 -0.000179508,7.43982e-005 -0.0003196,0.000205457 -0.000420604,0.000393177 -0.00010084,0.000187884 -0.00015126,0.000382173 -0.00015126,0.000583032 0,0.000249144 9.90334e-005,0.000388743 0.0002971,0.000418469 2.61133e-005,-3.77739e-006 6.45441e-005,-1.21533e-005 0.000114964,-2.51279e-005 5.042e-005,-1.29745e-005 0.000112993,-3.07118e-005 0.00018772,-5.30477e-005 7.47267e-005,-2.23359e-005 0.000151424,-3.35038e-005 0.000229928,-3.35038e-005 8.9672e-005,0 0.000306461,3.35038e-005 0.000650368,0.000100511 -0.000171953,0 -0.00028314,5.84675e-005 -0.00033356,0.000175731 -5.05842e-005,0.000117099 -8.60588e-005,0.000216625 -0.000106588,0.000298414 -2.05293e-005,8.17887e-005 -3.08761e-005,0.000174745 -3.08761e-005,0.00027887l1.13322e-005 0.000161935c5.60039e-005,0.000539182 0.000125147,0.000977031 0.000207428,0.00131371 8.21172e-005,0.000336516 0.000198067,0.000504857 0.00034752,0.000504857l2.25001e-005 0c0.000119563,0 0.000214819,-0.000146004 0.000285932,-0.000437849 7.09493e-005,-0.000292009 0.000125147,-0.000537539 0.000162428,-0.000736427 3.74454e-005,-0.000199052 6.17521e-005,-0.000365422 7.29201e-005,-0.000499273 1.13322e-005,-0.000134015 1.69161e-005,-0.000269673 1.69161e-005,-0.000407301 0,-0.00039794 -0.000153231,-0.000615551 -0.000459856,-0.000652668l0.000285932 1.11679e-005 0.000275914 1.77373e-005c0.000289053,0.000585003 0.000581554,0.00116853 0.000877504,0.00175074l0.000396298 0.000608489c-0.000143705,-0.000671555 -0.000417484,-0.00156515 -0.000717704,-0.00246483 4.2044e-005,-2.46352e-005 8.52377e-005,-5.43616e-005 0.000129581,-8.88508e-005 0.000102811,-8.09676e-005 0.000172775,-0.000185092 0.00021022,-0.000312374 4.86134e-005,-0.000138614 7.29201e-005,-0.000317137 7.29201e-005,-0.000533762l0 -4.54929e-005c0,-0.000112501 -3.9252e-005,-0.000204636 -0.000117756,-0.000275257 -7.85041e-005,-7.16062e-005 -0.000181315,-0.000106917 -0.000308432,-0.000106917 -9.70625e-005,0 -0.000213997,2.13505e-005 -0.000350312,6.42157e-005 -2.64417e-005,8.21172e-006 -5.14054e-005,1.56023e-005 -7.52194e-005,2.23359e-005 -0.000122355,-0.000347027 -0.000240768,-0.00067796 -0.00034867,-0.000978509 -0.000435714,-0.00121517 -0.00130681,-0.00337584 -0.00159242,-0.00452794 0.000537047,0.000111515 0.00138597,0.000268523 0.00170278,0.000663836l0.00103271 0.00125705c0.000456572,0.000621463 0.00152245,0.00212454 0.00211879,0.00254596 -0.000118577,-0.000305804 -1.16606e-005,-6.01098e-005 -0.00012761,-0.000308761l-0.000345713 -0.00066712c-0.000145512,-0.000278706 -0.000317465,-0.000575477 -0.000455751,-0.000827741 -0.000319929,-0.000583689 -0.000721974,-0.0011457 -0.000974074,-0.00176191 0.00126953,0.000270658 0.00299761,0.00116902 0.00344416,0.00232507 0.000192811,0.000499108 0.000306133,0.000978837 0.000944841,0.000774858 0.00044524,-0.000293651 0.000196589,-0.000424053 0.000436864,-0.000760734 0.00030679,0.000271479 0.000654146,0.000558233 0.000989841,0.000833325 0.000265731,0.000217611 0.000710642,0.00067566 0.00101349,0.000839074 -0.000393998,-0.000882596 -0.00210204,-0.00205129 -0.00222965,-0.00297626l0.000553798 0.000504857c0.000189034,0.000225658 0.000190676,0.000326005 0.000425531,0.000583196 0.000387922,0.000424874 0.000595842,0.000677138 0.00100561,0.00101415 0.00047086,0.000387265 0.00225757,0.00142227 0.00288067,0.000491554 0.00023929,-0.000752029 -0.000467411,-0.000784219 -0.000912158,-0.00107771 -0.00118971,-0.000785041 -0.00185733,-0.00224738 -0.00287739,-0.00318007 -0.00153559,-0.00140388 -0.00245695,-0.00125442 -0.00406825,-0.00208676 -0.000488762,-0.000252428 -0.000957322,-0.000479893 -0.00112172,-0.000910351 0.000599291,-0.000501572 0.000925297,-6.43799e-005 0.00153904,0.000313524 0.00130369,0.000802778 0.00314443,0.0019084 0.00446816,0.00243609 -0.000577777,-0.000706208 -0.00353843,-0.0029398 -0.00455898,-0.00359641l0.000680916 -0.000843672c0.000654803,0.000168176 0.00152327,0.000547722 0.00218744,0.000792431 0.00156105,0.000575313 0.00491718,0.00188048 0.00639627,0.00217923 -0.000960114,-0.000890972 -0.00738283,-0.00354894 -0.00816639,-0.00407613 -0.000261461,-0.000175895 -0.000498451,-0.000877669 -0.000501736,-0.00122059 0.000883581,-0.000153888 0.00501046,0.000635751 0.00644949,0.000642157 -0.00112813,-0.00082807 -0.00441117,-0.000921848 -0.00556213,-0.00166271 0.000184764,-0.000373798 0.000384637,-0.000519145 0.000527192,-0.000956173 0.00146924,-3.53104e-005 0.00298644,-0.000124982 0.00446898,-0.000209399 0.000746774,-4.23725e-005 0.00147088,-9.42706e-005 0.00220715,-0.000147154 0.000455586,-3.28469e-005 0.00172282,1.0511e-005 0.00207559,-0.000297429l-0.0080984 -0.000461827c-4.25367e-005,-0.000256206 0.000260147,-0.00118856 0.00038825,-0.00142523 0.000921684,-0.000511754 0.00321029,-0.00069192 0.00400847,-0.00129335l-0.00390188 0.000422739 -7.75186e-005 -0.00165581 0.00468052 -0.00222127c0.000269509,-0.000133523 0.000517338,-0.000258998 0.000797522,-0.00039679l0.000727723 -0.000446553c-0.00188065,0.000393834 -0.00500636,0.00183975 -0.00650204,0.00207609 -0.000103303,-0.00055774 -0.000531463,-0.00130468 -0.000769931,-0.00168652 0.000456243,-0.000488269 0.000807376,-0.000634438 0.0012697,-0.00107015 0.000259655,-0.000244709 0.00038398,-0.000329618 0.000638379,-0.000555769 0.000125311,-0.000111351 0.000151424,-0.000138942 0.000301534,-0.000248158l0.000217118 -0.000303998c-0.000621627,0.000449838 -0.00212273,0.00118282 -0.00287098,0.00157944 -0.000407137,-0.000511426 -0.000814603,-0.000683872 -0.0012357,-0.00114094l0.0023704 -0.00265354c0.000642485,-0.000666792 0.00113535,-0.00138072 0.00172397,-0.00204028 0.000480878,-0.000538525 0.000640514,-0.000588945 0.000486134,-0.000697996 -0.000427831,0.000434728 -0.00096964,0.000803435 -0.00143853,0.00121632 -0.000514875,0.000453451 -0.000872413,0.000794238 -0.00138187,0.0011907 -0.000420276,0.000327155 -0.00243231,0.00241507 -0.00278788,0.00241572l-0.00140174 -0.00052982c0.000516025,-0.00124112 0.00161623,-0.00248634 0.00204965,-0.00379546 -0.000508306,0.000313195 -0.0012265,0.00141619 -0.00158306,0.00186505 -0.00162921,0.00205145 -0.000893764,0.00180083 -0.0028043,0.0018859 0.000159636,-0.000663836 0.000553306,-0.0015778 0.000800314,-0.00222915 0.000660058,-0.00174138 0.00188393,-0.00472552 0.00217397,-0.00634947 -0.000465769,0.000697668 -0.000937286,0.00166172 -0.00131043,0.00244447l-0.000430294 0.000876355 -3.61316e-006 -9.68983e-006c-7.6369e-005,-0.000194946 -0.000199052,-0.000375604 -0.000368214,-0.000539674l-0.000482521 -0.000463798c-0.000148468,-0.000147811 -0.000237154,-0.00030679 -0.00026606,-0.000476116 1.23176e-005,-0.000102647 5.042e-005,-0.000181643 0.000114471,-0.000237154 6.38872e-005,-5.5347e-005 0.000137136,-8.31026e-005 0.000219581,-8.31026e-005 7.4234e-005,0 0.00013615,1.23176e-005 0.000185585,3.69527e-005l0.000272301 0.000129252c6.19164e-005,-8.21172e-006 0.000116442,-3.38323e-005 0.000163906,-7.68617e-005 4.74637e-005,-4.30294e-005 7.11135e-005,-9.75552e-005 7.11135e-005,-0.000163249 0,-7.37413e-005 -3.90878e-005,-0.000168176 -0.000117428,-0.00028314 -7.83398e-005,-0.000114964 -0.000213505,-0.000226808 -0.000405331,-0.000335531 -0.000191826,-0.000108723 -0.000384637,-0.000163085 -0.000578434,-0.000163085 -0.000408451,0 -0.00074661,0.000125147 -0.0010148,0.00037544 -0.000268031,0.000250457 -0.000402046,0.00057055 -0.000402046,0.000960443l1.85585e-005 0.000123176 1.85585e-005 0.000153888c2.46352e-005,0.000131388 0.000148468,0.000320257 0.00037117,0.000566445 0.000222702,0.000246352 0.000382502,0.000426845 0.000479564,0.000541809 9.68983e-005,0.000114964 0.000170147,0.000207264 0.000219581,0.000277063 4.94346e-005,6.97996e-005 7.4234e-005,0.000143705 7.4234e-005,0.000221716 0,6.14237e-005 -1.85585e-005,0.000129252 -5.56755e-005,0.000203158 -3.7117e-005,7.37413e-005 -9.06574e-005,0.000135329 -0.000160785,0.000184599 -7.01281e-005,4.92703e-005 -0.000156844,7.39055e-005 -0.000259983,7.39055e-005l-0.000334053 -6.15879e-005c-0.000185585,-3.28469e-005 -0.000309418,-4.92703e-005 -0.00037117,-4.92703e-005 -6.19164e-005,0 -0.000119727,1.75731e-005 -0.000173267,5.23908e-005 -5.37047e-005,3.48177e-005 -8.04749e-005,8.50734e-005 -8.04749e-005,0.000150767 0,0.000262775 0.00010511,0.000450495 0.000315494,0.000563488 0.000210384,0.000112829 0.000387757,0.000189691 0.00053212,0.000230749 0.000144362,4.10586e-005 0.000288724,6.15879e-005 0.000433086,6.15879e-005l0.000173267 0c0.000181315,-2.6606e-005 0.000353925,-7.48909e-005 0.000517995,-0.000144855l-0.00115243 0.0023474c-0.000579255,0.0012697 -0.000395476,0.00130107 -0.00170672,0.00193534 -2.47994e-005,-0.00174466 0.00104223,-0.00584215 0.000761555,-0.00732584 3.12045e-006,2.23359e-005 -0.00010511,0.000415349 -0.000258505,0.000957815 3.28469e-007,-2.00366e-005 4.92703e-007,-4.00732e-005 4.92703e-007,-6.01098e-005 0,-0.000464948 -6.70076e-005,-0.000867158 -0.000201023,-0.00120679 -0.000134015,-0.000339637 -0.000258833,-0.000586974 -0.00037429,-0.000740861 -0.000115621,-0.000153888 -0.000231078,-0.000264746 -0.000346535,-0.00033044 -2.47994e-005,-2.46352e-005 -8.04749e-005,-3.67885e-005 -0.000167026,-3.67885e-005 -0.000132044,0 -0.000212519,7.58763e-005 -0.000241425,0.000227793l0.000241425 0.000763362c0.00013615,0.000418634 0.000204143,0.000736756 0.000204143,0.000954366l0 6.14237e-005c0,0.000283304 -5.87959e-005,0.000518324 -0.000176388,0.000705058 -0.000117592,0.000186735 -0.000291845,0.00028002 -0.000522758,0.00028002 -0.000226972,0 -0.000388743,-6.66792e-005 -0.000485805,-0.000200038 -9.68983e-005,-0.000133358 -0.000162921,-0.000261625 -0.000197902,-0.000384801 -3.51462e-005,-0.000123176 -5.2555e-005,-0.000268852 -5.2555e-005,-0.000437028l0 -0.000110858c0,-0.000213505 2.26643e-005,-0.000413542 6.7993e-005,-0.000600277 4.53287e-005,-0.000186735 9.1807e-005,-0.000337666 0.000139271,-0.00045263 4.74637e-005,-0.0001148 9.90334e-005,-0.000219581 0.000154709,-0.000314016 5.56755e-005,-9.42706e-005 8.34311e-005,-0.000178523 8.34311e-005,-0.000252264 0,-7.80113e-005 -2.26643e-005,-0.000137628 -6.7993e-005,-0.000178687 -4.54929e-005,-4.08944e-005 -0.000107245,-6.14237e-005 -0.000185585,-6.14237e-005 -5.37047e-005,0 -9.49275e-005,8.04749e-006 -0.000123833,2.46352e-005 -0.000166862,6.27375e-005 -0.000315166,0.000189034 -0.000445075,0.000378889 -7.50551e-005,-0.000938928 -0.000157501,-0.00186587 -0.000240275,-0.00276374 -0.000379382,0.00420703 -0.000600277,0.00850307 -0.000672704,0.0127331l-0.00170393 -0.00576775 5.58397e-006 0 0.000173103 0c0.000391863,-5.7482e-005 0.000743653,-0.000216461 0.00105504,-0.000476116 0.000311388,-0.000258505 0.000467083,-0.000578762 0.000467083,-0.000957322 0,-0.000164234 -3.81024e-005,-0.000344728 -0.000114471,-0.000540824 -7.6369e-005,-0.000194946 -0.000199052,-0.000375604 -0.000368049,-0.000539674l-0.000482685 -0.000463798c-0.000148468,-0.000147811 -0.000237154,-0.00030679 -0.00026606,-0.000476116 1.23176e-005,-0.000102647 5.05842e-005,-0.000181643 0.000114471,-0.000237154 6.38872e-005,-5.5347e-005 0.000137136,-8.31026e-005 0.000219581,-8.31026e-005 7.43982e-005,0 0.00013615,1.23176e-005 0.000185749,3.69527e-005l0.000272136 0.000129252c6.19164e-005,-8.21172e-006 0.000116606,-3.38323e-005 0.00016407,-7.68617e-005 4.72995e-005,-4.30294e-005 7.11135e-005,-9.75552e-005 7.11135e-005,-0.000163249 0,-7.37413e-005 -3.9252e-005,-0.000168176 -0.000117592,-0.00028314 -7.83398e-005,-0.000114964 -0.000213505,-0.000226808 -0.000405331,-0.000335531 -0.000191662,-0.000108723 -0.000384637,-0.000163085 -0.000578434,-0.000163085 -0.000408287,0 -0.00074661,0.000125147 -0.00101464,0.00037544 -0.000268195,0.000250457 -0.00040221,0.00057055 -0.00040221,0.000960443l1.85585e-005 0.000123176 1.85585e-005 0.000153888c1.46169e-005,7.73544e-005 6.33945e-005,0.000174417 0.000146497,0.000291516 2.43067e-005,0.000468232 8.83581e-005,0.00106375 0.00017064,0.00171264 -0.000176224,-3.08761e-005 -0.000294308,-4.63141e-005 -0.000354254,-4.63141e-005 -6.19164e-005,0 -0.000119563,1.75731e-005 -0.000173267,5.23908e-005 -5.37047e-005,3.48177e-005 -8.04749e-005,8.50734e-005 -8.04749e-005,0.000150767 0,0.000262775 0.000105274,0.000450495 0.000315659,0.000563488 0.000156351,8.37596e-005 0.000294472,0.000147811 0.000414199,0.00019199 0.000248979,0.0017936 0.000556755,0.00371761 0.000532284,0.00440838 -0.000513889,-0.00026606 -0.000739876,-0.000294965 -0.000983107,-0.000874877l-0.00163364 -0.00356651c7.16062e-005,-3.33396e-005 0.000139599,-7.30843e-005 0.000203815,-0.00011907 0.000235019,-0.000168176 0.000393998,-0.000358031 0.000476444,-0.000569401 8.24457e-005,-0.000211534 0.000123669,-0.000413542 0.000123669,-0.000606518l-1.23176e-005 -0.000172446c-1.23176e-005,-8.60588e-005 -3.9252e-005,-0.000149782 -8.04749e-005,-0.00019084 -4.12228e-005,-4.10586e-005 -9.68983e-005,-6.15879e-005 -0.000167026,-6.15879e-005 -1.65877e-005,0 -3.7117e-005,5.2555e-006 -6.19164e-005,1.5438e-005 -2.46352e-005,1.03468e-005 -5.15696e-005,2.15147e-005 -8.04749e-005,3.38323e-005 -0.000334053,0.000217611 -0.000647576,0.000326334 -0.000940406,0.000326334 -3.77739e-005,0 -7.48909e-005,-1.80658e-006 -0.000111351,-5.58397e-006 -0.000167848,-0.000353432 -0.000333889,-0.000705387 -0.000506663,-0.00105833 0.000142227,0.000106095 0.000267866,0.000180494 0.000376754,0.000223523 0.000140256,5.55112e-005 0.000296936,8.31026e-005 0.000470203,8.31026e-005 0.000395969,0 0.000594036,-0.000143705 0.000594036,-0.000430951 0,-0.000112829 -2.47994e-005,-0.000206278 -7.4234e-005,-0.000279034 -4.95988e-005,-7.29201e-005 -0.000121698,-0.000108887 -0.000216625,-0.000108887l-0.000253742 0c-0.000123669,-1.23176e-005 -0.000218596,-4.2044e-005 -0.000284454,-8.91793e-005 -6.60222e-005,-4.72995e-005 -0.00010938,-0.000126296 -0.000130074,-0.00023699 0,-6.97996e-005 2.79199e-005,-0.000137628 8.35953e-005,-0.000203322 5.56755e-005,-6.55295e-005 0.000120712,-9.83764e-005 0.000194946,-9.83764e-005 8.24457e-005,0 0.000193797,3.48177e-005 0.000334053,0.000104617 0.000140256,6.97996e-005 0.000235184,0.000104617 0.000284618,0.000104617 0.000189691,0 0.000313524,-8.81939e-005 0.00037117,-0.000264746 3.30111e-005,-0.000123012 4.95988e-005,-0.000207264 4.95988e-005,-0.000252428 0,-0.000217446 -8.77012e-005,-0.000374454 -0.000262939,-0.000471024 -0.000175402,-9.64056e-005 -0.000380531,-0.000144526 -0.000615715,-0.000144526 -0.000358852,0 -0.00063723,9.11501e-005 -0.000835296,0.000273943 -0.000197902,0.000182629 -0.000332082,0.000345713 -0.000402046,0.000489419 -6.25733e-005,0.000128103 -9.72268e-005,0.000267538 -0.000104125,0.000418469 -0.00028971,-0.00065004 -0.000630496,-0.00144428 -0.00101579,-0.00188048 0.000121041,0.000688142 0.000453451,0.00156253 0.00067681,0.00225133 -6.73361e-005,6.89785e-006 -0.00013615,4.54929e-005 -0.000206607,0.000115785 -7.83398e-005,7.68617e-005 -0.000154709,0.00023699 -0.000228943,0.000478086 -7.4234e-005,0.000241096 -0.000111351,0.000502886 -0.000111351,0.000785041 0,0.000510933 0.000161935,0.000917249 0.000485641,0.0012201 0.000282155,0.00026376 0.000654474,0.000412228 0.00111663,0.000445896 0.000425531,0.00113141 0.000981958,0.00258078 0.00115145,0.00339013 -0.000647741,-0.000116771 -0.000926446,-0.000550021 -0.00129039,-0.000900005 -0.000417648,-0.000401389 -0.000684365,-0.000609474 -0.00120417,-0.000907559 -0.00120827,-0.000693069 -0.000702266,-0.000441955 -0.00162149,-0.00149946l-9.21355e-005 -9.57487e-005c0.000248487,-2.15147e-005 0.000490897,-8.63873e-005 0.000727394,-0.000194289 0.000294965,-0.000134344 0.000442448,-0.000343743 0.000442448,-0.000625897 0,-8.21172e-005 -1.75731e-005,-0.000152902 -5.2555e-005,-0.00021137 -3.51462e-005,-5.7482e-005 -7.12777e-005,-9.95261e-005 -0.000108395,-0.000124161l-6.19164e-005 -3.69527e-005c0.000169161,-0.00105488 0.000253742,-0.00191777 0.000253742,-0.00258883 0,-0.000208413 -4.94346e-005,-0.000396133 -0.000147483,-0.000564474 -0.00010626,-0.000158979 -0.000258833,-0.000238961 -0.000458871,-0.000238961 -0.000208249,0 -0.000355732,4.91061e-005 -0.000441298,0.000147647 -8.55661e-005,9.85406e-005 -0.000144362,0.00019084 -0.000174253,0.000277063 -3.10403e-005,8.62231e-005 -4.64783e-005,0.000180658 -4.64783e-005,0.000283304l0 0.000215476c0,0.000192811 7.22631e-006,0.000377575 2.16789e-005,0.000553963 1.44526e-005,0.000176552 3.20257e-005,0.000361316 5.2555e-005,0.000554127l7.4234e-005 0.000892778 0 5.55112e-005c0,0.000127117 -4.31937e-005,0.00023387 -0.000129909,0.000320093 -8.65515e-005,8.62231e-005 -0.000181479,0.000129252 -0.000284618,0.000129252 -7.01281e-005,-2.05293e-005 -0.000122683,-5.02557e-005 -0.000157829,-8.93435e-005 -3.49819e-005,-3.89236e-005 -8.24457e-005,-0.000107738 -0.000142227,-0.000206114 -5.97813e-005,-9.85406e-005 -0.000116442,-0.000170475 -0.000170147,-0.000215476 -5.37047e-005,-4.51645e-005 -0.000121698,-6.78288e-005 -0.000204143,-6.78288e-005 -0.000165056,0 -0.000307283,6.78288e-005 -0.000427009,0.000203158 -0.000119563,0.000135493 -0.000179344,0.000279199 -0.000179344,0.000430951 0,0.000135493 1.95439e-005,0.000258669 5.87959e-005,0.000369527 3.90878e-005,0.000110858 0.000115457,0.000229764 0.000228943,0.000357046 0.000113322,0.000127282 0.000273286,0.000222702 0.0004794,0.000286261 0.000206278,6.35587e-005 0.000404345,9.54202e-005 0.000594036,9.54202e-005l4.38506e-005 0c0.000191169,0.000356553 0.000427338,0.000748416 0.000524893,0.00106851 -0.00156778,-0.000150767 -0.00344202,-4.86134e-005 -0.0045759,-0.00104535 -0.000254399,-0.000223523 -0.000738398,-0.000700788 -0.00103156,-0.000841373 9.32851e-005,0.0002273 0.000697996,0.000987706 0.000854019,0.00111236 -0.00041075,-1.8887e-005 -0.00103238,-0.000374947 -0.00135805,-0.000574656 -0.000597978,-0.000366407 -0.000531627,-0.000668434 -0.000887523,-0.00112878 -0.000358688,-0.000463962 -0.00112008,-0.000255877 -0.00105734,0.000520459 4.22082e-005,0.000521773 0.000310403,0.00099756 0.000408615,0.00147105 -0.00125492,-0.000678452 -0.00192433,-0.0021132 -0.00394951,-0.00221831 -0.00157254,-8.16245e-005 -0.00164859,0.00101021 -0.000912815,0.00122831 0.000603561,0.000179016 0.000572521,9.44348e-005 0.00111959,0.000437685 0.000301534,0.000189362 0.000654638,0.000390878 0.00087849,0.000588288 0.00100873,0.000889986 0.00192499,0.00191793 0.00358589,0.00248832 0.000738891,0.000253906 0.0041934,0.000408451 0.0039459,0.00205474 -0.000323542,-2.31571e-005 -0.00226102,-0.00114948 -0.00227629,-0.001148l-8.77012e-005 6.66792e-005c0.000354254,0.000236498 0.000614072,0.000509127 0.0010084,0.000831683 0.000311388,0.000254728 0.000743818,0.000477265 0.000994768,0.000791938 -7.55478e-005,0.000225822 -0.000545915,0.00172709 -0.000621463,0.0018437 -0.00187342,-0.000555933 -0.00406956,-0.00161853 -0.00599965,-0.00201959l0.000225165 0.000179837c0.00105488,0.000703744 0.00568711,0.00264401 0.00582884,0.00296919l5.45258e-005 0.00185798c-0.00134508,-4.89419e-005 -0.0028493,-0.000368049 -0.00405955,-0.000373469 0.00111367,0.000435385 0.00298233,0.000744475 0.00410044,0.00120039l0.000351954 0.00145249c-0.00276308,6.0274e-005 -0.00557789,0.000292501 -0.00828218,0.000550514 0.00278394,0.000425696 0.00599324,0.000384965 0.0088386,0.000569729 0.000213833,0.000297264 0.000509127,0.000719183 0.000645605,0.00101661 -0.00075088,0.000294637 -0.00205047,0.000577448 -0.00287328,0.00079046 -0.000876519,0.000226972 -0.00203339,0.000539346 -0.00277014,0.000851391 0.0021155,-2.18432e-005 0.00434564,-0.000554455 0.00646279,-0.000711463l0.000535568 0.000681409c-0.00101513,0.000302027 -0.00863298,0.00388365 -0.00922143,0.0043711 0.00162247,-0.000222702 0.00995868,-0.00349836 0.0103773,-0.00343578 0.000120877,1.80658e-005 0.00020595,7.86683e-005 0.000279691,0.000142391l0.00017688 0.000209399c6.89785e-006,-1.51096e-005 2.75914e-005,3.87593e-005 4.02374e-005,5.89602e-005 -0.000415842,0.000429309 -0.00435402,0.0032589 -0.00538295,0.00418469l-0.000616864 0.00064462c0.000645934,-0.000453123 0.00282762,-0.0015668 0.00370053,-0.00206196 0.000594036,-0.000336845 0.0031781,-0.0020958 0.00367261,-0.00193895 -8.50734e-005,0.000521609 -0.000623434,0.000768781 -0.000963563,0.00115375 -0.000349655,0.000395969 -0.000688471,0.000688963 -0.00102876,0.00108181 -0.000329783,0.00038086 -0.000632138,0.000795716 -0.000978016,0.00113305 -0.00107261,0.00104634 -0.00385261,0.00416778 -0.00472305,0.00528178 -8.62231e-005,0.00011053 -0.000270001,0.000216625 -0.000147483,0.000299892 0.000188377,-0.000178359 0.00033471,-0.000290695 0.000598306,-0.000494017 0.00142555,-0.00109889 0.00266552,-0.00241687 0.00404329,-0.00357308l0.00230224 -0.00201466c0.000369856,-0.000369199 0.00191382,-0.00200892 0.00214605,-0.00196162 0.000144526,0.000161114 0.000187391,-0.000176059 5.37047e-005,0.000292994l-0.00210072 0.00350657c-0.000664492,0.00115342 -0.00161114,0.002656 -0.00211386,0.0038577 0.00163676,-0.00192302 0.00324363,-0.00399829 0.00477594,-0.00606156 0.000190676,-0.000256863 0.000433415,-0.000660551 0.000709985,-0.000757121 0.00015438,0.000336845 -0.000247994,0.00102187 -0.000396626,0.00143541l-0.00158503 0.00418896c-0.000192154,0.000510441 -0.000464126,0.00121501 -0.00074661,0.00197459 -4.02374e-005,-9.36136e-006 -8.31026e-005,-1.39599e-005 -0.000128103,-1.39599e-005 -0.00023929,0 -0.000395312,0.000104125 -0.000468068,0.000312374 -7.29201e-005,0.000208249 -0.00010938,0.000416663 -0.00010938,0.000624912 0,0.000145019 3.77739e-006,0.000263925 1.11679e-005,0.000357046 4.43433e-006,5.35404e-005 2.16789e-005,0.00022533 5.20623e-005,0.000515203 -5.56755e-005,0.000164727 -0.00010938,0.000326826 -0.000160293,0.000485148 -6.3066e-005,-4.22082e-005 -0.000125968,-6.32303e-005 -0.00018887,-6.32303e-005 -0.00010084,0 -0.000185913,3.62958e-005 -0.000255056,0.000108887 -6.91427e-005,7.24274e-005 -0.000118741,0.000171953 -0.000148632,0.000298414l9.5256e-005 -0.000847942c3.74454e-005,-0.000331097 5.61682e-005,-0.000634109 5.61682e-005,-0.000909366 0,-0.000204636 -4.40148e-005,-0.000402539 -0.000131716,-0.0005942 -8.78654e-005,-0.000191497 -0.000243888,-0.000287246 -0.000468232,-0.000287246 -0.000190512,0 -0.000322392,7.16062e-005 -0.000395148,0.000214819 -7.29201e-005,0.000143212 -0.000122519,0.000268688 -0.000148632,0.00037659 -2.61133e-005,0.000107738 -3.9252e-005,0.000230585 -3.9252e-005,0.000368214l-5.58397e-006 0.000211862c0,0.000222209 1.77373e-005,0.000531955 5.3212e-005,0.000927924 3.54746e-005,0.000396133 8.04749e-005,0.000750387 0.000134508,0.00106276 5.41974e-005,0.000312374 0.000104782,0.000540167 0.000151424,0.000683379 4.68068e-005,0.000143212 8.9672e-005,0.000234363 0.000128924,0.000275257 3.9252e-005,4.08944e-005 7.94895e-005,6.14237e-005 0.000120548,6.22448e-005 2.98907e-005,-8.21172e-007 6.81573e-005,-2.13505e-005 0.000114964,-6.40514e-005 4.68068e-005,-4.28652e-005 8.03106e-005,-9.11501e-005 0.00010084,-0.000145019 2.06935e-005,-5.40331e-005 5.71536e-005,-0.000214819 0.00010938,-0.000482685 5.23908e-005,-0.000266717 8.9672e-005,-0.000501079 0.000112172,-0.000701938 1.11679e-005,5.58397e-005 2.98907e-005,0.000111515 5.60039e-005,0.000167355 2.62775e-005,5.58397e-005 6.73361e-005,0.000123669 0.00012334,0.000203651 3.51462e-005,4.99273e-005 8.03106e-005,8.42523e-005 0.000135822,0.000102975 -5.96171e-005,0.00022418 -0.000107738,0.000429473 -0.000140749,0.000608981 0.000128267,-0.000170147 0.000268852,-0.000386772 0.000416991,-0.000635751 4.86134e-005,-2.79199e-005 9.34494e-005,-6.91427e-005 0.000134672,-0.000123669 8.4088e-005,-0.000111515 0.000126132,-0.000219417 0.000126132,-0.000323542 7.85041e-005,0.000590423 0.000158815,0.000990169 0.000240932,0.00119842 6.35587e-005,0.000130238 0.000132701,0.000194454 0.000207592,0.000195275 8.58946e-005,-8.21172e-007 0.000155037,-6.88142e-005 0.000207428,-0.000206443 5.22265e-005,-0.000137464 0.00010084,-0.000321571 0.000145676,-0.000552156 4.4836e-005,-0.000230585 9.72268e-005,-0.000570058 0.000157008,-0.00101809 5.97813e-005,-0.000448196 8.9672e-005,-0.000880625 8.9672e-005,-0.00129614l-5.58397e-006 -0.000195275c0,-5.94529e-005 -2.95622e-006,-0.000116771 -8.86866e-006,-0.000171953 0.000368049,-0.000765004 0.000707522,-0.00149831 0.00095683,-0.0020145 0.000532941,-0.00110316 0.00219976,-0.00433283 0.00245136,-0.00529278l0.000473324 0.00033783c-0.000135986,0.00235069 -0.000742504,0.0049203 -0.000882267,0.0073871 -6.07667e-006,0.000105438 -2.79199e-005,0.000228122 -2.49636e-005,0.000503543l0.000140585 -0.00032929c0.000777978,-0.00213669 0.00116459,-0.00435435 0.00179886,-0.00653752 0.000832176,0.000703744 0.000651846,0.00088818 0.000702923,0.0022753 3.49819e-005,0.000948454 8.4745e-005,0.00187868 0.000134672,0.00284126 3.44892e-006,6.52011e-005 7.06208e-006,0.000143212 1.10037e-005,0.000231735 -0.000133523,-8.9672e-005 -0.000289053,-0.000134508 -0.000466754,-0.000134508 -0.00068765,0 -0.00119415,0.00107475 -0.00151933,0.00322441l-2.23359e-005 0.000184107 -3.36681e-005 0.000284618c0,7.06208e-005 6.56938e-006,0.000133851 1.97081e-005,0.000189691 1.29745e-005,5.56755e-005 3.62958e-005,0.000116114 6.99639e-005,0.000181315 3.36681e-005,6.50368e-005 0.000113979,9.75552e-005 0.000241096,9.75552e-005 0.000302848,0 0.000483999,-0.000308596 0.00054378,-0.000926118 0,0.000104125 5.51828e-005,0.000186899 0.000165384,0.000248322 0.000110366,6.14237e-005 0.000249472,9.19713e-005 0.000417648,9.19713e-005 0.000171953,0 0.000313031,-3.61316e-005 0.000423396,-0.000108723 0.000110201,-7.25916e-005 0.000165384,-0.000160785 0.000165384,-0.00026491l6.15879e-005 0.00026491c1.13322e-005,5.30477e-005 2.90695e-005,0.000116278 5.33762e-005,0.000189691 2.43067e-005,7.34128e-005 5.14054e-005,0.000145019 8.1296e-005,0.000216625l3.44892e-006 8.37596e-006c6.15879e-005,0.0007315 0.000138285,0.00132488 0.00023387,0.00153083 4.92703e-005,-0.000413706 9.31209e-005,-0.000831683 0.000132373,-0.00125294 1.64234e-005,1.31388e-006 3.33396e-005,1.97081e-006 5.07484e-005,1.97081e-006 0.000399911,0 0.000599784,-0.000203651 0.000599784,-0.000609967 0,-9.67341e-005 -1.77373e-005,-0.000265896 -5.3212e-005,-0.000505842 -3.54746e-005,-0.000240768 -0.00010084,-0.000544766 -0.00019626,-0.000911994 -6.91427e-005,-0.000266388 -0.000136807,-0.000494181 -0.00020283,-0.000682887 8.57304e-005,-0.00150406 0.000141734,-0.00301715 0.000210056,-0.00448853 5.55112e-005,-0.00119382 -0.000231571,-0.0014382 0.000669584,-0.00224656 0.000207592,0.000341608 0.000770752,0.00285308 0.000951903,0.00349359 0.000129252,0.000456407 0.000320421,0.00125475 0.000526371,0.00198642 -0.000100183,-1.52738e-005 -0.000210877,-2.29928e-005 -0.000332082,-2.29928e-005 -0.000198888,0 -0.000395148,1.85585e-005 -0.00058681,5.58397e-005 -1.49453e-005,-4.84492e-005 -5.14054e-005,-0.000102318 -0.000110201,-0.000161771 -5.87959e-005,-5.96171e-005 -0.000158815,-8.93435e-005 -0.000298085,-8.93435e-005 -0.000121369,0 -0.000205621,2.69344e-005 -0.000251279,8.09676e-005 -4.68068e-005,5.38689e-005 -7.47267e-005,9.57487e-005 -8.60588e-005,0.000125475l-0.000145676 -8.93435e-005c-4.86134e-005,-2.5949e-005 -9.34494e-005,-3.89236e-005 -0.000134672,-3.89236e-005 -0.000134508,0 -0.00020168,7.62048e-005 -0.00020168,0.000228614 0,0.000200859 2.70987e-005,0.000360823 8.1296e-005,0.000479893 5.41974e-005,0.000118906 0.000120384,0.000211862 0.000198888,0.00027887l0.000106588 7.81756e-005 5.042e-005 0.000769767 2.80841e-005 0.000557904 2.23359e-005 0.000546736 3.9252e-005 0.000619164c3.36681e-005,0.000364436 0.000117756,0.000546736 0.000252428,0.000546736 5.97813e-005,0 0.000106424,-1.85585e-005 0.000140092,-5.58397e-005 3.36681e-005,-3.7117e-005 5.79747e-005,-8.54019e-005 7.29201e-005,-0.000145019l3.9252e-005 -0.000150603 2.23359e-005 -0.000206443 8.9672e-005 -0.000607996c1.87227e-005,-0.000115293 3.74454e-005,-0.000234363 5.61682e-005,-0.000357046 1.85585e-005,-0.000122683 2.79199e-005,-0.000217611 2.79199e-005,-0.000284618 1.87227e-005,9.67341e-005 5.05842e-005,0.000180494 9.54202e-005,0.000251114l0.000168176 0.000262282c2.61133e-005,3.7117e-005 5.97813e-005,9.29567e-005 0.00010084,0.000167355 4.12228e-005,7.4234e-005 9.44348e-005,0.000178523 0.0001598,0.000312374 6.53653e-005,0.000133851 0.000134672,0.000303012 0.000207428,0.000507649 7.29201e-005,0.000204472 0.000238304,0.00030679 0.000496152,0.00030679 0.000157008,0 0.000322392,-3.7117e-005 0.000496152,-0.000111515 0.00017376,-7.43982e-005 0.000260804,-0.0001823 0.000260804,-0.000323542 0,-5.20623e-005 -1.97081e-005,-9.59129e-005 -5.89602e-005,-0.000131223 -3.9252e-005,-3.53104e-005 -6.91427e-005,-5.84675e-005 -8.9672e-005,-6.96354e-005 -2.05293e-005,-1.11679e-005 -5.41974e-005,-3.07118e-005 -0.00010084,-5.86317e-005 -4.68068e-005,-2.79199e-005 -8.688e-005,-5.76463e-005 -0.000120548,-8.93435e-005 -3.36681e-005,-3.1533e-005 -9.54202e-005,-0.000125475 -0.000185092,-0.000281662 -8.9672e-005,-0.000156187 -0.000162592,-0.000274271 -0.000218596,-0.000354254 -5.61682e-005,-7.99822e-005 -0.000116771,-0.000161771 -0.0001823,-0.000245366 -6.53653e-005,-8.37596e-005 -0.000152245,-0.000134836 -0.00026064,-0.000153395 0.000302684,0 0.000537375,-0.000108887 0.00070358,-0.000326498 0.000166369,-0.000217446 0.000249472,-0.00047513 0.000249472,-0.000772559 0,-0.000212027 -4.38506e-005,-0.000410093 -0.000132701,-0.0005942 -4.9763e-005,-0.000103468 -0.000108559,-0.000187227 -0.000176552,-0.000251279 -0.000108395,-0.00166764 -0.000449017,-0.00342347 -0.000675332,-0.00501638 -0.000104289,-0.000734621 -0.000386772,-0.00142506 -2.05293e-005,-0.00188114zm-0.00573375 0.00727444c-5.22265e-005,0.0001598 -0.000164399,0.000239782 -0.000336352,0.000239782 -4.4836e-005,0 -0.000130731,-3.1533e-005 -0.000257848,-9.47633e-005 -0.000127117,-6.32303e-005 -0.000227957,-9.49275e-005 -0.000302684,-9.49275e-005 -6.73361e-005,0 -0.000126132,2.97264e-005 -0.000176716,8.93435e-005 -5.042e-005,5.94529e-005 -7.55478e-005,0.000120877 -7.55478e-005,0.000184107 1.85585e-005,0.000100347 5.78105e-005,0.000171953 0.000117592,0.000214654 5.97813e-005,4.28652e-005 0.00014584,6.97996e-005 0.000258012,8.09676e-005l0.000229764 0c8.60588e-005,0 0.000151424,3.25184e-005 0.00019626,9.85406e-005 4.4836e-005,6.60222e-005 6.73361e-005,0.000150603 6.73361e-005,0.000252921 0,0.000260312 -0.000179508,0.000390549 -0.000538196,0.000390549 -0.000157008,0 -0.000299071,-2.51279e-005 -0.000426188,-7.53836e-005 -0.000127117,-5.02557e-005 -0.000279363,-0.000147811 -0.0004569,-0.00029283 -0.000177537,-0.000145019 -0.000266224,-0.000364436 -0.000266224,-0.000658252 0,-0.000156187 3.16972e-005,-0.000299399 9.5256e-005,-0.000429637 6.35587e-005,-0.000130238 0.000184928,-0.000278049 0.000364436,-0.000443433 0.000179344,-0.000165548 0.000431608,-0.000248322 0.000756792,-0.000248322 0.000213012,0 0.00039909,4.36864e-005 0.000557904,0.000131059 0.000158815,8.73727e-005 0.00023814,0.000229764 0.00023814,0.000426845 0,4.08944e-005 -1.49453e-005,0.000117099 -4.4836e-005,0.000228779zm-0.00017376 0.00175156c2.62775e-005,-1.10037e-005 5.042e-005,-2.13505e-005 7.29201e-005,-3.05476e-005 2.25001e-005,-9.36136e-006 4.10586e-005,-1.39599e-005 5.60039e-005,-1.39599e-005 6.35587e-005,0 0.000114143,1.85585e-005 0.000151424,5.56755e-005 3.74454e-005,3.72812e-005 6.17521e-005,9.49275e-005 7.29201e-005,0.000172939l1.11679e-005 0.000156351c0,0.000174745 -3.72812e-005,0.000357867 -0.000112172,0.000549364 -7.47267e-005,0.000191662 -0.000218596,0.000363615 -0.000431608,0.000516025 -0.000213012,0.000152574 -0.000471024,0.000228779 -0.000773708,0.000228779 -0.000508306,0 -0.000909202,-0.000136643 -0.00120252,-0.000410915 -0.000293487,-0.000274271 -0.000440148,-0.000642485 -0.000440148,-0.00110563 0,-0.000255549 3.36681e-005,-0.000492703 0.000101004,-0.000711135 6.71719e-005,-0.000218596 0.000136315,-0.000363615 0.000207428,-0.000433415 7.09493e-005,-7.06208e-005 0.000140092,-0.000105931 0.000207428,-0.000105931 6.71719e-005,0 0.000127939,1.95439e-005 0.000182136,5.86317e-005 5.41974e-005,3.81024e-005 8.1296e-005,8.73727e-005 8.1296e-005,0.00014584l0 7.25916e-005c0,0.00021022 3.74454e-005,0.000400732 0.000112172,0.000572685 7.47267e-005,0.000171132 0.000186899,0.000310567 0.000336352,0.000417484 0.000149453,0.000106917 0.000321407,0.00016095 0.000515696,0.00016095 0.000265403,0 0.000549528,-9.85406e-005 0.000852212,-0.000295786zm0.00182776 0.000535568c8.9672e-005,-0.000174745 0.000280348,-0.000262118 0.0005717,-0.000262118 0.000265403,0 0.00044294,7.62048e-005 0.000532612,0.000228779l-7.27558e-005 -0.000251114c-8.9672e-005,-0.000420276 -0.000176716,-0.000714091 -0.000260804,-0.000881446 -8.4088e-005,-0.000167355 -0.000172775,-0.00025095 -0.000266224,-0.00025095 -8.22814e-005,0 -0.000142063,4.91061e-005 -0.000179344,0.000147811 -3.74454e-005,9.85406e-005 -8.42523e-005,0.00027887 -0.000140256,0.000540988 -5.60039e-005,0.000262282 -9.5256e-005,0.000428652 -0.000117756,0.000499437l-2.23359e-005 7.80113e-005 -4.4836e-005 0.000150603zm0.00346469 -0.00187441l-2.80841e-005 0.000451973 -5.042e-005 0.000580076c2.25001e-005,-7.80113e-005 5.79747e-005,-0.000134836 0.000106588,-0.000170147 4.84492e-005,-3.53104e-005 0.000131716,-7.71902e-005 0.000249472,-0.000125475 0.000117592,-4.82849e-005 0.000206443,-9.95261e-005 0.000266224,-0.000153395 5.97813e-005,-5.40331e-005 8.9672e-005,-0.000129252 8.9672e-005,-0.000225987 0,-0.000237976 -0.000142063,-0.000357046 -0.000426024,-0.000357046l-0.000207428 0zm0.00755166 -0.00122174c0.000175731,0 0.000350476,4.92703e-005 0.000524236,0.000147811 0.00017376,9.85406e-005 0.000296279,0.000200038 0.000367228,0.000304162 7.09493e-005,0.000104125 0.000106588,0.000189527 0.000106588,0.000256534 0,5.94529e-005 -2.15147e-005,0.000108723 -6.45441e-005,0.000147811 -4.30294e-005,3.90878e-005 -9.2464e-005,6.24091e-005 -0.000148468,6.97996e-005l-0.000246844 -0.000117099c-4.4836e-005,-2.23359e-005 -0.00010084,-3.35038e-005 -0.000168176,-3.35038e-005 -7.47267e-005,0 -0.000141077,2.49636e-005 -0.000198888,7.52194e-005 -5.79747e-005,5.02557e-005 -9.26282e-005,0.000121862 -0.000103796,0.000214819 2.61133e-005,0.000153395 0.000106588,0.000297593 0.000241096,0.000431444l0.000437192 0.000420276c0.000153395,0.000148796 0.000264582,0.000312374 0.000333724,0.00048909 6.91427e-005,0.000177537 0.000103632,0.000341115 0.000103632,0.000489911 0,0.000343086 -0.000141077,0.000633288 -0.000423232,0.000867486 -0.000282155,0.000235184 -0.000600934,0.000379382 -0.000955844,0.000431444l-0.000157008 0c-0.000130895,0 -0.000261625,-1.85585e-005 -0.00039252,-5.58397e-005 -0.000130731,-3.7117e-005 -0.000291516,-0.000106917 -0.000482028,-0.00020907 -0.000190676,-0.000102318 -0.000285932,-0.000272465 -0.000285932,-0.000510441 0,-5.96171e-005 2.41425e-005,-0.00010511 7.27558e-005,-0.000136807 4.86134e-005,-3.1533e-005 0.000101004,-4.72995e-005 0.000157008,-4.72995e-005 5.61682e-005,0 0.000168176,1.47811e-005 0.000336352,4.45075e-005l0.000302848 5.58397e-005c9.34494e-005,0 0.000171789,-2.23359e-005 0.000235348,-6.70076e-005 6.35587e-005,-4.45075e-005 0.000112172,-0.000100347 0.00014584,-0.000167355 3.36681e-005,-6.68434e-005 5.042e-005,-0.000128267 5.042e-005,-0.000184107 0,-7.06208e-005 -2.23359e-005,-0.000137464 -6.71719e-005,-0.000200694 -4.50002e-005,-6.32303e-005 -0.000111187,-0.00014699 -0.000199052,-0.000251114 -8.78654e-005,-0.000104125 -0.00023272,-0.000267702 -0.000434564,-0.000490897 -0.000201844,-0.000223195 -0.000313852,-0.000394327 -0.000336352,-0.000513233l-1.67519e-005 -0.000139435 -1.69161e-005 -0.000111679c0,-0.000353268 0.000121533,-0.000643306 0.000364436,-0.000870278 0.000242903,-0.000226808 0.000549364,-0.000340294 0.000919384,-0.000340294zm-0.0112786 -0.0100538c4.40148e-005,-6.56938e-007 8.4088e-005,1.97081e-006 0.000120384,7.88325e-006 3.61316e-005,5.91244e-006 8.31026e-005,1.92154e-005 0.000140585,4.00732e-005 5.7482e-005,2.06935e-005 8.31026e-005,6.07667e-005 7.68617e-005,0.000120055 -3.28469e-006,3.03834e-005 -1.80658e-005,5.76463e-005 -4.41791e-005,8.1953e-005 -2.62775e-005,2.41425e-005 -5.7482e-005,4.02374e-005 -9.32851e-005,4.79564e-005l-9.2464e-005 -2.23359e-005c-5.28835e-005,-1.51096e-005 -9.95261e-005,-2.23359e-005 -0.000139928,-2.16789e-005 -0.000112501,1.64234e-006 -0.000196589,3.79382e-005 -0.000252428,0.000108887 -5.56755e-005,7.0785e-005 -9.47633e-005,0.000129909 -0.000117428,0.000177209 -2.25001e-005,4.72995e-005 -3.646e-005,9.62414e-005 -4.17155e-005,0.000146826 -7.06208e-006,6.65149e-005 2.95622e-006,0.000129417 3.00549e-005,0.000189034 2.70987e-005,5.94529e-005 5.7482e-005,9.96903e-005 9.11501e-005,0.000120877 3.38323e-005,2.11862e-005 6.43799e-005,3.54746e-005 9.16428e-005,4.30294e-005 2.72629e-005,7.55478e-006 6.0274e-005,1.10037e-005 9.90334e-005,1.03468e-005 0.000108887,-1.64234e-006 0.000200366,-4.13871e-005 0.000274436,-0.000118906 7.40697e-005,-7.76829e-005 0.000116278,-0.000165713 0.000126625,-0.000264089 3.94163e-006,-3.76097e-005 2.29928e-006,-8.08033e-005 -4.7628e-006,-0.000129909l-1.34672e-005 -9.72268e-005 1.64234e-007 -2.5949e-005c3.12045e-006,-3.03834e-005 1.90512e-005,-5.97813e-005 4.74637e-005,-8.83581e-005 2.85768e-005,-2.85768e-005 6.65149e-005,-4.33579e-005 0.000113979,-4.40148e-005 0.000100183,-1.64234e-006 0.000170804,7.75186e-005 0.000211862,0.000237154 1.49453e-005,7.47267e-005 1.70804e-005,0.000162099 6.56938e-006,0.000261954 -1.51096e-005,0.000143048 -5.20623e-005,0.000277228 -0.000110858,0.00040221 -5.87959e-005,0.000125147 -0.000159307,0.00022845 -0.000301206,0.000310075 -0.000142063,8.14603e-005 -0.000282483,0.000123504 -0.000421426,0.000125475 -0.000135329,2.13505e-006 -0.000257191,-2.34855e-005 -0.00036575,-7.65332e-005 -0.000108559,-5.3212e-005 -0.000180494,-0.000122847 -0.000216297,-0.000208906 -3.56389e-005,-8.60588e-005 -5.89602e-005,-0.000164399 -6.99639e-005,-0.000235019 -1.10037e-005,-7.06208e-005 -1.28103e-005,-0.000140585 -5.41974e-006,-0.000209892 1.16606e-005,-0.000111351 4.27009e-005,-0.000218103 9.29567e-005,-0.000319929 5.02557e-005,-0.000101661 0.000116278,-0.00019511 0.000198067,-0.000280184 8.17887e-005,-8.49092e-005 0.000171461,-0.000153888 0.00026918,-0.000206607 9.77195e-005,-5.27192e-005 0.000197574,-7.99822e-005 0.000299564,-8.14603e-005zm0.00128612 -1.11679e-005c1.29745e-005,-5.91244e-006 3.08761e-005,-9.19713e-006 5.37047e-005,-9.5256e-006 3.33396e-005,-4.92703e-007 5.89602e-005,6.40514e-006 7.68617e-005,2.05293e-005 1.77373e-005,1.41242e-005 2.51279e-005,3.49819e-005 2.23359e-005,6.24091e-005 -2.79199e-006,2.61133e-005 -1.77373e-005,5.58397e-005 -4.50002e-005,8.95078e-005 -2.72629e-005,3.36681e-005 -5.30477e-005,7.0785e-005 -7.76829e-005,0.000111679 -2.44709e-005,4.07301e-005 -4.9763e-005,9.42706e-005 -7.62048e-005,0.000160293 -2.61133e-005,6.60222e-005 -4.31937e-005,0.000136807 -5.12411e-005,0.000211862l-4.10586e-006 3.90878e-005c-6.24091e-006,5.92886e-005 -4.27009e-006,0.00011053 6.07667e-006,0.000153723 1.0511e-005,4.31937e-005 3.38323e-005,8.78654e-005 7.01281e-005,0.00013418 3.646e-005,4.64783e-005 0.000102975,6.88142e-005 0.000199709,6.73361e-005 9.83764e-005,-1.47811e-006 0.000176224,-3.54746e-005 0.000233213,-0.000102154 5.69893e-005,-6.65149e-005 9.08216e-005,-0.000149618 0.000101333,-0.000249472l2.29928e-006 -2.16789e-005c8.04749e-006,-7.66975e-005 -9.19713e-006,-0.000188213 -5.15696e-005,-0.000334874l-7.45624e-005 -0.000267374c1.80658e-005,-5.37047e-005 5.51828e-005,-8.09676e-005 0.000111351,-8.17887e-005 3.69527e-005,-6.56938e-007 6.0274e-005,3.28469e-006 6.97996e-005,1.18249e-005 4.68068e-005,2.25001e-005 9.19713e-005,6.07667e-005 0.000135493,0.000114143 4.35221e-005,5.35404e-005 8.75369e-005,0.000139763 0.000132044,0.000258505 4.45075e-005,0.000118906 5.8139e-005,0.000260147 4.08944e-005,0.000423889 -1.36315e-005,0.000129088 -5.38689e-005,0.000256041 -0.000120548,0.00038086 -6.66792e-005,0.000124818 -0.000160129,0.00022845 -0.000280184,0.000310403 -0.00012022,8.22814e-005 -0.000259326,0.00012449 -0.000417648,0.000126953 -0.00021449,3.28469e-006 -0.000369363,-6.7993e-005 -0.000464455,-0.000213669 -9.5256e-005,-0.00014584 -0.000132866,-0.00031418 -0.000112665,-0.000505021 1.79016e-005,-0.000169326 7.55478e-005,-0.000349491 0.000172939,-0.000540824 9.7391e-005,-0.000191333 0.000213341,-0.000308268 0.000347684,-0.000350805zm0.00127298 -3.26826e-005c6.53653e-005,-9.85406e-007 0.000111187,9.85406e-006 0.000136479,3.26826e-005 2.52921e-005,2.26643e-005 4.02374e-005,4.33579e-005 4.51645e-005,6.20806e-005 9.1807e-005,-1.59307e-005 0.000184764,-2.44709e-005 0.000278377,-2.5949e-005 0.000125804,-1.97081e-006 0.000225822,1.10037e-005 0.000300877,3.85951e-005 6.66792e-005,2.21716e-005 0.000116606,6.865e-005 0.000150767,0.000139599 3.41608e-005,7.09493e-005 4.68068e-005,0.000147647 3.81024e-005,0.000230092 -1.23176e-005,0.000115621 -6.19164e-005,0.000216297 -0.000149125,0.000302191 -8.72085e-005,8.57304e-005 -0.000201844,0.000129745 -0.0003444,0.00013188 5.02557e-005,6.56938e-006 8.90151e-005,2.57848e-005 0.000116442,5.78105e-005 2.72629e-005,3.20257e-005 5.2555e-005,6.33945e-005 7.55478e-005,9.41063e-005 2.31571e-005,3.07118e-005 5.2555e-005,7.60405e-005 8.83581e-005,0.00013615 3.58031e-005,6.01098e-005 6.0931e-005,9.62414e-005 7.55478e-005,0.00010823 1.44526e-005,1.19891e-005 3.21899e-005,2.33213e-005 5.30477e-005,3.38323e-005 2.06935e-005,1.0511e-005 3.58031e-005,1.79016e-005 4.50002e-005,2.20074e-005 9.19713e-006,4.27009e-006 2.23359e-005,1.29745e-005 3.9252e-005,2.64417e-005 1.70804e-005,1.34672e-005 2.44709e-005,3.03834e-005 2.23359e-005,5.05842e-005 -5.7482e-006,5.50185e-005 -5.10769e-005,9.75552e-005 -0.000135822,0.000127774 -8.49092e-005,3.00549e-005 -0.00016407,4.58214e-005 -0.000237976,4.6971e-005 -0.000121369,1.80658e-006 -0.000194946,-3.67885e-005 -0.000220895,-0.000115785 -2.57848e-005,-7.89968e-005 -5.14054e-005,-0.000144198 -7.66975e-005,-0.000195767 -2.52921e-005,-5.17338e-005 -4.59856e-005,-9.1807e-005 -6.24091e-005,-0.000120384 -1.62592e-005,-2.85768e-005 -2.97264e-005,-5.00915e-005 -4.05659e-005,-6.43799e-005l-6.83215e-005 -0.000100676c-1.823e-005,-2.70987e-005 -2.97264e-005,-5.94529e-005 -3.44892e-005,-9.68983e-005 -2.79199e-006,2.5949e-005 -1.11679e-005,6.29018e-005 -2.49636e-005,0.000110858 -1.37957e-005,4.77922e-005 -2.74271e-005,9.42706e-005 -4.08944e-005,0.000139107l-6.71719e-005 0.000237154 -1.90512e-005 8.04749e-005 -2.46352e-005 5.87959e-005c-9.5256e-006,2.31571e-005 -2.28286e-005,4.22082e-005 -4.02374e-005,5.68251e-005 -1.74088e-005,1.47811e-005 -4.00732e-005,2.23359e-005 -6.81573e-005,2.28286e-005 -6.33945e-005,9.85406e-007 -9.54202e-005,-6.93069e-005 -9.62414e-005,-0.000210877l6.89785e-006 -0.000240439 1.18249e-005 -0.000212355 9.68983e-006 -0.000216789 7.88325e-006 -0.000298907 -4.68068e-005 -2.95622e-005c-3.4325e-005,-2.54563e-005 -6.17521e-005,-6.10952e-005 -8.22814e-005,-0.000107081 -2.05293e-005,-4.58214e-005 -2.67702e-005,-0.000107902 -1.85585e-005,-0.000185913 6.24091e-006,-5.92886e-005 4.10586e-005,-8.93435e-005 0.000104289,-9.03289e-005 1.93797e-005,-3.28469e-007 3.9909e-005,4.43433e-006 6.17521e-005,1.41242e-005l6.48726e-005 3.36681e-005c6.56938e-006,-1.16606e-005 2.13505e-005,-2.80841e-005 4.56572e-005,-4.94346e-005 2.36498e-005,-2.11862e-005 6.43799e-005,-3.23542e-005 0.000121533,-3.33396e-005zm0.000189855 0.000467083l-3.16972e-005 0.000175895 -4.7628e-005 0.000225987c1.37957e-005,-3.05476e-005 3.28469e-005,-5.28835e-005 5.71536e-005,-6.70076e-005 2.43067e-005,-1.41242e-005 6.52011e-005,-3.08761e-005 0.000122519,-5.05842e-005 5.73178e-005,-1.97081e-005 0.000101168,-4.02374e-005 0.000131552,-6.15879e-005 3.03834e-005,-2.13505e-005 4.74637e-005,-5.09127e-005 5.14054e-005,-8.85224e-005 9.85406e-006,-9.2464e-005 -5.20623e-005,-0.000137793 -0.000185749,-0.000135658l-9.75552e-005 1.47811e-006zm-0.00186176 -0.00616651c0.000137957,5.07484e-005 0.000213341,0.000122847 0.000226315,0.000216297 1.31388e-005,9.32851e-005 1.47811e-005,0.000176388 4.7628e-006,0.000249472 -9.85406e-006,7.30843e-005 -3.25184e-005,0.000157172 -6.7993e-005,0.000252428l-6.66792e-005 0.000189527c-4.4836e-005,0.000120877 -9.87049e-005,0.000251114 -0.000161278,0.000390549 -6.25733e-005,0.000139599 -0.000166369,0.000347027 -0.000311388,0.000622777 -0.000145183,0.000275585 -0.000282483,0.00048055 -0.000412228,0.000615058 -1.74088e-005,2.54563e-005 -4.45075e-005,4.64783e-005 -8.14603e-005,6.32303e-005 -3.67885e-005,1.69161e-005 -7.02923e-005,1.97081e-005 -0.000100676,8.54019e-006 -2.25001e-005,-1.10037e-005 -4.13871e-005,-3.51462e-005 -5.66609e-005,-7.24274e-005 -1.5438e-005,-3.74454e-005 -2.44709e-005,-6.97996e-005 -2.75914e-005,-9.7391e-005 2.13505e-006,-0.000205457 4.66426e-005,-0.000498287 0.000133851,-0.00087849 8.70442e-005,-0.000380203 0.000175895,-0.000692412 0.000266717,-0.000936465l7.11135e-005 -0.000180001c3.02191e-005,-8.1296e-005 6.63507e-005,-0.000153231 0.00010823,-0.000215804 4.18798e-005,-6.25733e-005 0.000101168,-0.000127282 0.000177866,-0.000194125 7.66975e-005,-6.68434e-005 0.000175731,-7.80113e-005 0.0002971,-3.31754e-005zm0.000800643 0.000279199c0.000112008,4.12228e-005 0.000205621,0.000164891 0.000280512,0.000370349 7.47267e-005,0.00020595 0.00012876,0.000440641 0.000161771,0.000705223 3.30111e-005,0.000264582 4.04017e-005,0.000464126 2.23359e-005,0.000598306l8.35953e-005 -0.000203158c2.67702e-005,-9.31209e-005 5.05842e-005,-0.00017491 7.1442e-005,-0.000245202 2.08578e-005,-7.02923e-005 4.58214e-005,-0.000145019 7.53836e-005,-0.000224016l0.000105274 -0.000357703 7.71902e-006 -2.08578e-005c3.62958e-005,-9.77195e-005 7.71902e-005,-0.000164563 0.000122519,-0.000200694 4.53287e-005,-3.61316e-005 0.000104125,-4.08944e-005 0.000176552,-1.41242e-005 7.24274e-005,2.6606e-005 0.000107574,0.000101661 0.000105274,0.000225658 -2.13505e-006,0.000123504 -2.02008e-005,0.000252264 -5.37047e-005,0.000385294 -3.38323e-005,0.000133523 -6.43799e-005,0.000237319 -9.22997e-005,0.00031221 -0.000220238,0.000591572 -0.000382009,0.000985242 -0.000485313,0.00118052 -0.000103139,0.00019511 -0.000195767,0.000333396 -0.00027772,0.000414363 -8.21172e-005,8.1296e-005 -0.000161607,0.000107574 -0.000238633,7.9161e-005 -0.000258669,-9.54202e-005 -0.000374947,-0.000385951 -0.000347684,-0.000871592 2.67702e-005,-0.000485641 1.6095e-005,-0.000742668 -3.23542e-005,-0.000771081 -4.43433e-005,-1.64234e-005 -7.58763e-005,-1.21533e-005 -9.32851e-005,1.31388e-005l-0.000102318 0.000200202 -2.33213e-005 6.27375e-005c-6.07667e-006,1.62592e-005 -1.16606e-005,3.13688e-005 -1.69161e-005,4.53287e-005 -7.71902e-006,2.08578e-005 -1.29745e-005,3.48177e-005 -1.56023e-005,4.18798e-005 -2.85768e-005,7.66975e-005 -5.94529e-005,0.000188213 -9.26282e-005,0.000334546 -3.31754e-005,0.000146333 -6.93069e-005,0.000271808 -0.00010823,0.000376425 -5.71536e-005,0.000153395 -0.000147647,0.000207264 -0.000271315,0.000161607 -0.000126132,-4.64783e-005 -0.000143541,-0.000242574 -5.22265e-005,-0.000587467l0.000140256 -0.000441298c2.44709e-005,-6.56938e-005 4.82849e-005,-0.000134836 7.16062e-005,-0.000208249 2.34855e-005,-7.39055e-005 4.94346e-005,-0.000152738 7.83398e-005,-0.000237319 0.000128431,-0.000345221 0.000261297,-0.000627211 0.000398925,-0.000846793 9.70625e-005,-0.000139435 0.000166534,-0.000228122 0.000208906,-0.000267209 4.23725e-005,-3.87593e-005 0.000106752,-4.2044e-005 0.00019314,-1.01825e-005zm0.00060274 -0.00469136c9.62414e-005,-4.50002e-005 0.000204636,-6.29018e-005 0.000325184,-5.35404e-005 0.000120712,9.5256e-006 0.000213997,3.35038e-005 0.000279855,7.22631e-005 6.56938e-005,3.89236e-005 0.000107245,7.65332e-005 0.000124654,0.000113322 1.5438e-005,3.25184e-005 1.64234e-005,6.50368e-005 2.95622e-006,9.7391e-005 -1.3303e-005,3.23542e-005 -3.44892e-005,5.78105e-005 -6.32303e-005,7.62048e-005l-0.000165384 -8.21172e-007c-3.02191e-005,-8.21172e-007 -6.38872e-005,7.55478e-006 -0.000100676,2.47994e-005 -4.08944e-005,1.90512e-005 -7.0785e-005,4.99273e-005 -8.95078e-005,9.21355e-005 -1.87227e-005,4.23725e-005 -1.90512e-005,9.04932e-005 -1.14964e-006,0.000144198 5.40331e-005,7.73544e-005 0.000135329,0.000135658 0.000243724,0.000174417l0.000348177 0.00011792c0.000122355,4.22082e-005 0.000225658,0.000103139 0.000309253,0.000182136 8.37596e-005,7.94895e-005 0.000145019,0.000160129 0.000183614,0.000241589 8.88508e-005,0.000187884 8.67158e-005,0.00038283 -7.06208e-006,0.000583361 -9.36136e-005,0.000201187 -0.000230749,0.000361644 -0.000411571,0.000481207l-8.58946e-005 4.02374e-005c-7.16062e-005,3.36681e-005 -0.000147975,5.69893e-005 -0.000229271,7.01281e-005 -8.1296e-005,1.31388e-005 -0.000187227,1.62592e-005 -0.000318122,9.19713e-006 -0.000130731,-7.22631e-006 -0.000226972,-7.58763e-005 -0.00028856,-0.000206114 -1.5438e-005,-3.26826e-005 -1.39599e-005,-6.38872e-005 4.43433e-006,-9.36136e-005 1.83943e-005,-2.97264e-005 4.30294e-005,-5.17338e-005 7.37413e-005,-6.61865e-005 3.05476e-005,-1.42884e-005 9.57487e-005,-3.49819e-005 0.000195603,-6.17521e-005l0.000180165 -4.71353e-005c5.10769e-005,-2.39782e-005 8.83581e-005,-5.63324e-005 0.000111515,-9.70625e-005 2.31571e-005,-4.07301e-005 3.53104e-005,-8.35953e-005 3.646e-005,-0.000128924 1.14964e-006,-4.53287e-005 -5.58397e-006,-8.31026e-005 -2.00366e-005,-0.00011365 -1.823e-005,-3.87593e-005 -4.79564e-005,-6.96354e-005 -8.88508e-005,-9.27924e-005 -4.08944e-005,-2.29928e-005 -9.88691e-005,-5.18981e-005 -0.000173924,-8.63873e-005 -7.50551e-005,-3.44892e-005 -0.000196753,-8.688e-005 -0.000364929,-0.000157337 -0.00016834,-7.02923e-005 -0.000273943,-0.000135165 -0.000316972,-0.000194618l-4.53287e-005 -7.20989e-005 -3.81024e-005 -5.66609e-005c-9.14786e-005,-0.000193468 -0.000100183,-0.000383323 -2.5949e-005,-0.000569893 7.4234e-005,-0.000186406 0.000212684,-0.000326991 0.000415185,-0.000421918zm0.000944019 -0.000389893c3.12045e-005,-3.95805e-005 9.1807e-005,-8.03106e-005 0.000181972,-0.000122519 8.17887e-005,-3.84309e-005 0.00020283,-8.08033e-005 0.000363287,-0.000127282 0.000160457,-4.66426e-005 0.000264089,-8.08033e-005 0.000311224,-0.000102975l1.23176e-005 -5.58397e-006c3.67885e-005,-1.74088e-005 8.70442e-005,-5.51828e-005 0.000150603,-0.000113486 6.35587e-005,-5.84675e-005 0.000122026,-0.000100183 0.000175238,-0.000124982 6.94712e-005,-3.26826e-005 0.000134836,-3.95805e-005 0.000196424,-2.05293e-005 6.12594e-005,1.85585e-005 0.000106588,5.87959e-005 0.000135658,0.000120384l1.18249e-005 2.49636e-005c5.60039e-005,0.000118577 8.90151e-005,0.000222538 9.82122e-005,0.000310896 1.26461e-005,7.93252e-005 1.14964e-006,0.000154216 -3.41608e-005,0.000224837 -3.54746e-005,7.01281e-005 -7.4234e-005,0.000124325 -0.000116606,0.000161607 -4.23725e-005,3.72812e-005 -9.83764e-005,7.20989e-005 -0.000167848,0.000104617l-0.000196096 7.70259e-005 -0.000159307 6.71719e-005c0.000177373,-5.8139e-005 0.000317465,2.15147e-005 0.000420604,0.000239454 3.56389e-005,7.52194e-005 6.76646e-005,0.000151096 9.62414e-005,0.000227136 2.85768e-005,7.62048e-005 5.83032e-005,0.000173596 8.93435e-005,0.000292009 3.10403e-005,0.000118413 6.50368e-005,0.000266717 0.000101661,0.000444747 3.67885e-005,0.00017803 2.23359e-005,0.000282319 -4.30294e-005,0.000313031l-1.23176e-005 5.7482e-006c-8.17887e-005,3.82666e-005 -0.00018887,-2.41425e-005 -0.000320914,-0.000187227 -0.000132209,-0.000163249 -0.000283469,-0.00038513 -0.00045378,-0.000665971l-4.79564e-005 -8.57304e-005c-2.70987e-005,-5.69893e-005 -4.54929e-005,-0.000110366 -5.5347e-005,-0.000160457 -1.00183e-005,-5.00915e-005 -1.64234e-005,-0.00011365 -1.90512e-005,-0.000190676 -2.62775e-006,-7.71902e-005 4.30294e-005,-0.000137628 0.000137136,-0.000181807 -0.000205621,5.15696e-005 -0.000332903,8.88508e-005 -0.000382009,0.000111844 -4.30294e-005,2.00366e-005 -8.1953e-005,4.58214e-005 -0.000117099,7.71902e-005 -3.51462e-005,3.13688e-005 -6.48726e-005,5.71536e-005 -8.91793e-005,7.71902e-005 -2.41425e-005,2.00366e-005 -4.30294e-005,3.44892e-005 -5.63324e-005,4.31937e-005 -0.000116114,3.44892e-005 -0.000206443,-1.64234e-005 -0.000270987,-0.000152902 -5.20623e-005,-0.000109873 -7.47267e-005,-0.000229107 -6.81573e-005,-0.000357867 6.73361e-006,-0.000128596 4.94346e-005,-0.000236333 0.000128431,-0.000323049zm0.0021582 -0.00104814c0.000120712,-5.64966e-005 0.000215476,-5.92886e-005 0.000284618,-8.37596e-006 6.91427e-005,5.09127e-005 0.000124325,0.000102811 0.000165548,0.000155694 4.12228e-005,5.27192e-005 8.14603e-005,0.000120877 0.000121041,0.000204308l8.09676e-005 0.000163413c5.00915e-005,0.000105931 0.000100676,0.000223359 0.000151753,0.000352447 5.10769e-005,0.000128924 0.000120055,0.000327812 0.000207264,0.000596664 8.72085e-005,0.000268688 0.000133194,0.000487776 0.000138285,0.000656938 5.41974e-006,2.74271e-005 1.97081e-006,5.8139e-005 -1.0511e-005,9.26282e-005 -1.24818e-005,3.44892e-005 -3.20257e-005,5.78105e-005 -5.86317e-005,7.02923e-005 -2.13505e-005,7.55478e-006 -4.91061e-005,4.43433e-006 -8.31026e-005,-9.5256e-006 -3.41608e-005,-1.37957e-005 -6.10952e-005,-2.85768e-005 -8.09676e-005,-4.41791e-005 -0.000132373,-0.00013188 -0.000294637,-0.000346863 -0.000486791,-0.000644784 -0.000192154,-0.000297921 -0.000338816,-0.000553798 -0.000439984,-0.000767467l-7.19347e-005 -0.000160293c-3.36681e-005,-7.12777e-005 -5.76463e-005,-0.000140256 -7.17704e-005,-0.000206935 -1.39599e-005,-6.68434e-005 -1.83943e-005,-0.000146169 -1.3303e-005,-0.00023814 5.2555e-006,-9.19713e-005 6.10952e-005,-0.000162921 0.000167519,-0.000212684zm0.000672047 -0.000314837c0.000141077,-6.60222e-005 0.000257684,-5.73178e-005 0.000349984,2.69344e-005 9.21355e-005,8.35953e-005 0.000179016,0.000212027 0.000261133,0.000385622 0.000129417,0.000273286 0.000258341,0.000622613 0.000387265,0.00104831 5.2555e-005,8.4745e-005 0.000101333,0.000116606 0.000146333,9.55844e-005l2.75914e-005 -1.29745e-005c5.3212e-005,-2.49636e-005 0.000125311,-8.54019e-005 0.000216132,-0.000181315 9.06574e-005,-9.60771e-005 0.000177045,-0.000163085 0.000258833,-0.000201516 4.71353e-005,-2.20074e-005 9.50917e-005,-2.08578e-005 0.000144034,3.44892e-006 4.68068e-005,3.02191e-005 8.27741e-005,7.19347e-005 0.000107902,0.000124818 7.60405e-005,0.000160785 5.87959e-005,0.000319929 -5.15696e-005,0.000477429 -0.00011053,0.000157337 -0.000252757,0.000276735 -0.000426681,0.000358195 -0.000163577,7.66975e-005 -0.000329947,0.000117263 -0.000498944,0.000121862 -0.000168997,4.59856e-006 -0.000287739,-6.53653e-005 -0.00035606,-0.000209892 -2.31571e-005,-4.89419e-005 -3.26826e-005,-9.78837e-005 -2.84126e-005,-0.000147154 4.27009e-006,-4.92703e-005 1.65877e-005,-8.35953e-005 3.72812e-005,-0.000103303 -2.97264e-005,-6.3066e-005 -7.58763e-005,-0.000142227 -0.00013845,-0.000237319l-0.000215311 -0.000320586c-3.61316e-005,-5.51828e-005 -7.34128e-005,-0.000111679 -0.000112172,-0.00016949 -3.84309e-005,-5.78105e-005 -7.0785e-005,-0.000114143 -9.67341e-005,-0.000169161 -1.5438e-005,-3.25184e-005 -4.31937e-005,-8.60588e-005 -8.34311e-005,-0.000160457 -4.02374e-005,-7.43982e-005 -6.22448e-005,-0.000115621 -6.61865e-005,-0.000123833l-2.8741e-005 -6.10952e-005c-5.97813e-005,-0.000126132 -7.57121e-005,-0.000235019 -4.7628e-005,-0.000326498 2.79199e-005,-9.13143e-005 9.91976e-005,-0.000163906 0.000213833,-0.000217611zm0.0015282 -0.000715734c0.000141077,-6.61865e-005 0.000257684,-5.73178e-005 0.000349984,2.67702e-005 9.21355e-005,8.37596e-005 0.00017918,0.000212191 0.000261133,0.000385622 0.000129417,0.00027345 0.000258341,0.000622613 0.000387265,0.00104847 5.2555e-005,8.4745e-005 0.000101333,0.000116606 0.000146497,9.54202e-005l2.75914e-005 -1.28103e-005c5.3212e-005,-2.49636e-005 0.000125147,-8.54019e-005 0.000215968,-0.000181315 9.08216e-005,-9.60771e-005 0.000177045,-0.000163249 0.000258833,-0.000201516 4.71353e-005,-2.21716e-005 9.50917e-005,-2.1022e-005 0.000144198,3.28469e-006 4.68068e-005,3.03834e-005 8.26099e-005,7.19347e-005 0.000107738,0.000124818 7.60405e-005,0.00016095 5.87959e-005,0.000320093 -5.15696e-005,0.000477429 -0.00011053,0.000157501 -0.000252757,0.000276899 -0.000426517,0.000358359 -0.000163742,7.66975e-005 -0.000330111,0.000117263 -0.000499108,0.000121862 -0.000168997,4.59856e-006 -0.000287739,-6.53653e-005 -0.00035606,-0.000210056 -2.31571e-005,-4.87776e-005 -3.26826e-005,-9.78837e-005 -2.84126e-005,-0.00014699 4.27009e-006,-4.92703e-005 1.67519e-005,-8.37596e-005 3.72812e-005,-0.000103303 -2.97264e-005,-6.32303e-005 -7.58763e-005,-0.000142227 -0.00013845,-0.000237319l-0.000215311 -0.000320586c-3.61316e-005,-5.5347e-005 -7.34128e-005,-0.000111679 -0.000112008,-0.00016949 -3.85951e-005,-5.78105e-005 -7.09493e-005,-0.000114143 -9.68983e-005,-0.000169161 -1.5438e-005,-3.25184e-005 -4.31937e-005,-8.60588e-005 -8.34311e-005,-0.000160457 -4.02374e-005,-7.43982e-005 -6.22448e-005,-0.000115785 -6.60222e-005,-0.000123833l-2.89053e-005 -6.10952e-005c-5.97813e-005,-0.000126296 -7.55478e-005,-0.000235019 -4.7628e-005,-0.000326498 2.79199e-005,-9.14786e-005 9.91976e-005,-0.000163906 0.000213833,-0.000217611zm-0.00326662 -0.00608718c-0.000245695,0.000858125 -0.000475787,0.00166337 -0.000530641,0.00188311 -0.000188705,0.000756299 -0.000909366,0.00411998 -0.00122585,0.00444632 -0.000107738,-0.000292009 -0.000210549,-0.00409535 -0.000266552,-0.00579435 0.000205457,0.000131223 0.000449017,0.000196917 0.000730843,0.000196917 0.000371334,0 0.000687814,-0.000113814 0.000949768,-0.000342757 0.000131223,-0.000113979 0.000245366,-0.000243888 0.000342429,-0.000389236zm-0.00516665 -0.000217118l-0.000503214 -0.00170295c4.82849e-005,6.22448e-005 0.00010511,0.000129581 0.000170311,0.00020168 0.000222866,0.000246352 0.000382666,0.000426845 0.000479564,0.000541809 9.68983e-005,0.000114964 0.000170147,0.000207264 0.000219581,0.000277063 4.95988e-005,6.97996e-005 7.4234e-005,0.000143705 7.4234e-005,0.000221716 0,6.14237e-005 -1.85585e-005,0.000129252 -5.56755e-005,0.000203158 -3.7117e-005,7.37413e-005 -9.06574e-005,0.000135329 -0.000160785,0.000184599 -6.19164e-005,4.35221e-005 -0.000136643,6.78288e-005 -0.000224016,7.29201e-005zm-0.00902714 0.00456752c-0.000390714,-0.000102154 -0.000729037,-0.000399582 -0.0012334,-0.000576134 -0.000476773,-0.000166862 -0.00093318,-0.000181972 -0.00147499,-0.000269344 -0.00211797,-0.000341608 -0.00289315,-0.00136873 -0.00434367,-0.00255007 -0.00147351,-0.00120006 -0.000742996,-0.000540167 -0.00213685,-0.00125606 0.000796537,-9.50917e-005 0.00140355,1.80658e-005 0.00202025,0.000366079 0.000889822,0.0005019 0.0027552,0.00264056 0.00449641,0.00248405 -0.000952888,-0.000654967 -0.0015461,-0.00141652 -0.00170295,-0.0027079 0.000768124,0.000818709 0.000750059,0.00105537 0.00200514,0.0015847 0.00338142,0.00142588 0.00551253,-0.00017261 0.0080598,0.00259556 -0.00112287,-9.14786e-005 -0.000566773,-0.000290202 -0.00172676,-0.000842851 -0.000367064,-0.000174745 -0.001632,-0.000614729 -0.00196687,-0.000482192 0.000347356,0.000240768 0.00101152,0.000282647 0.00144001,0.000462156 0.00042471,0.000177702 0.00101349,0.000623598 0.00113075,0.000670733 -0.000880953,0.000131223 -0.00144362,-0.000643799 -0.00194798,-0.000406973l0.000782905 0.000425367c-0.000545587,5.97813e-005 -0.000617521,0.000154873 -0.00110842,-1.44526e-005 -0.000296772,-0.000102482 -0.000697339,-0.000265239 -0.000948782,-0.000136315l0.000789968 0.000367064c-0.000871428,0.000354089 -0.000435714,0.000104289 -0.00129055,0.000104617l0.000429145 0.000310567c-0.000756956,0.0005942 -0.000869129,-0.000750223 -0.00263859,-0.00112993 0.000157008,0.000239618 0.000492046,0.000352283 0.000707193,0.000493689 0.000251114,0.00016522 0.000496152,0.00026606 0.000658252,0.000507649zm0.00190266 0.000502722c5.55112e-005,-0.000201516 0.00076369,-0.000208249 0.00101497,-0.000175238 -0.000168012,0.000150767 0.000171461,5.99456e-005 -0.00024668,0.000153888l-0.000768289 2.13505e-005zm-0.000531955 0.000450331c9.91976e-005,-8.50734e-005 0.000227957,-0.00018772 0.000443269,-0.000224673 0.000439984,-7.55478e-005 0.000429801,7.62048e-005 0.000429966,7.6369e-005 -0.000234691,8.54019e-005 -0.000571372,0.000198559 -0.000873234,0.000148304zm0.0201323 0.00240554c-3.77739e-006,-1.97081e-005 -5.48543e-005,-2.77556e-005 -5.60039e-005,-8.86866e-006 -2.00366e-005,0.00035721 1.21533e-005,9.19713e-006 0.00010199,2.77556e-005l-4.59856e-005 -1.8887e-005zm-9.83764e-005 0.0015438c7.30843e-005,-2.62775e-005 0.000159636,-4.27009e-005 0.000226151,-8.77012e-005 0.000244381,-0.000165384 1.5438e-005,5.87959e-005 0.000126789,-0.000146169 -0.000263104,4.30294e-005 -0.00026491,-1.26461e-005 -0.00035294,0.00023387zm-0.000251771 0.00135313c0.000553963,-8.58946e-005 0.000703909,-0.000258833 0.00112336,-0.000365093 -0.000187227,-0.00011792 -9.70625e-005,-0.000181151 -0.000603397,6.25733e-005 -5.66609e-005,2.72629e-005 -0.00021449,9.85406e-005 -0.000262118,0.000124982 -2.1022e-005,1.18249e-005 -4.68068e-005,2.6606e-005 -6.56938e-005,3.77739e-005l-0.000192154 0.000139763zm-0.00367951 0.00257536c0.000160129,0.000129417 -2.57848e-005,7.70259e-005 0.000318451,0.000149453 0.000315166,6.61865e-005 8.39238e-005,1.51096e-005 0.000280512,-1.42884e-005l-0.000598963 -0.000135165zm-0.0141015 -0.00648053c-0.000352776,-0.000388579 -0.00074973,-0.000727887 -0.000453451,-0.00103074 0.000438342,0.000328797 0.000443761,0.000852541 0.00106703,0.00096964l-0.000440805 -0.000570386c-0.000183121,-0.000224016 -0.000273943,-0.000322721 -0.000315494,-0.000628361 0.000422739,2.77556e-005 0.000498123,0.000380203 0.000813125,0.00067681 -2.64417e-005,-0.000250786 -0.000268359,-0.000354254 -0.000340129,-0.000668763 -8.1953e-005,-0.000358852 0.000141734,-0.000358195 0.000326498,3.89236e-005 1.5438e-005,-1.90512e-005 2.25001e-005,-5.3212e-005 2.79199e-005,-6.7993e-005l4.71353e-005 -0.000130402c6.01098e-005,-0.000160621 0.000114471,-0.000291023 0.000756299,-0.000442612 0.000890643,-0.000210549 0.00193846,-0.000180494 0.00277852,8.65515e-005 0.000379382,0.000120712 0.0005942,-4.61499e-005 0.000704566,0.000587467 0.000293815,-0.00041617 -0.000107738,-0.00022106 0.000284618,-0.000327483l0.000239454 0.00075827c0.000171132,-0.000290038 -1.92154e-005,-0.00031648 0.000249636,-0.000559054l0.000265239 0.00108017c4.99273e-005,-0.000291516 2.62775e-006,-0.000600605 0.000194946,-0.000797687 8.73727e-005,0.000211862 0.000101825,0.000297593 0.000121369,0.000595021 6.89785e-006,0.00010511 4.43433e-006,0.000264582 1.56023e-005,0.000354746l0.000159472 -0.000578105c0.000283633,0.000171461 0.000105603,-8.45807e-005 0.000204143,0.000310732 0.000107245,0.000429966 -1.37957e-005,0.000963728 -2.5949e-005,0.00139041 0.000280348,-0.000347356 0.000118741,-0.000988198 0.000287739,-0.00134097 0.000324035,0.000407466 0.000114143,0.00143163 7.22631e-005,0.00200859 0.000319107,-0.000401389 0.000189855,-0.00107163 0.000331918,-0.00148665l6.3066e-005 -0.000121205c0.000405823,0.000988855 -0.000505678,0.00341788 -0.000191169,0.0042136 0.000236005,-0.000176388 0.00050847,-0.00143968 0.000633616,-0.00173842 0.000674675,-0.00161213 0.0016049,-0.00299679 0.00318401,-0.00379595 0.00111187,-0.000562667 0.00243691,-0.000877833 0.00390944,-0.000597485 0.000726902,0.000138285 0.00294341,0.000835625 0.00282056,0.00174417 0.000109709,7.37413e-005 2.23359e-005,-2.62775e-006 0.000128267,-3.94163e-006 9.42706e-005,-1.31388e-006 -1.3303e-005,-5.58397e-005 0.000157994,7.06208e-006l-0.000113979 0.000596499c0.00021991,-7.99822e-005 0.00017803,-0.000218432 0.000322228,-0.000440641 0.000236498,0.000438506 -0.000250457,0.00038398 0.000121369,0.000901154l0.000286261 -0.000546408c0.000108559,0.000587138 -0.000324856,0.000907067 -0.00053409,0.00138039 0.000455258,-0.000199216 0.000573014,-0.000445568 0.000748745,-0.000881118 0.000202173,0.000213012 0.000245038,0.000310403 -0.000123176,0.000768617 -0.000202501,0.000251936 -0.000360987,0.000355568 -0.00039909,0.000603726 0.000426681,-5.55112e-005 0.000639365,-0.000435878 0.000786354,-0.000848928 7.01281e-005,7.1442e-005 0.000139107,-0.000123176 0.000162264,0.000282483 3.02191e-005,0.00053097 -0.000777814,0.000980644 -0.00111762,0.00122765 -0.000214654,0.000156023 -8.27741e-005,3.95805e-005 -0.000209892,0.000198067 0.000940735,-0.000201516 0.00118282,-0.000913308 0.00149979,-0.00107491 0.000253085,0.000714255 -0.000549857,0.000787832 -0.000672704,0.0013078 0.000322556,-7.58763e-005 0.000375768,-0.000320914 0.000658087,-0.000447703l0.000176552 -1.90512e-005c8.37596e-006,-2.23359e-005 4.38506e-005,2.29928e-006 6.35587e-005,1.08395e-005 6.93069e-005,0.000487119 -0.000679602,0.000889658 -0.00104913,0.00112813 -0.000439327,0.000283633 -0.00131026,0.000541317 -0.00152278,0.00073035 0.00142441,-0.000138778 0.0017509,-0.000862723 0.00264237,-0.0012692 3.59673e-005,0.000460513 -0.000152081,0.000541645 -0.000495495,0.000793252 -0.00116672,0.00085484 -0.00269673,0.000947797 -0.00288199,0.00109084 0.000712613,3.02191e-005 0.00136068,-0.000124654 0.00195554,-0.000363615 0.000603397,-0.000242246 0.00097276,-0.000561846 0.00143869,-0.000797358 -4.05659e-005,0.000731336 -0.00108789,0.00106145 -0.00168702,0.0012807 -0.00111663,0.000408615 -0.00150389,0.000345057 -0.00270182,0.000339144 0.000268852,0.000225165 0.000855661,0.000208742 0.00120203,0.000192975 0.000413871,-1.8887e-005 0.000825442,-9.32851e-005 0.00119678,-0.000192647 0.000827577,-0.000221388 0.00128858,-0.000637886 0.00189658,-0.000834804 -5.7482e-005,0.000671062 -0.000219253,0.000619492 -0.000846464,0.000871756 -0.00148107,0.000596007 -0.00391798,0.000590587 -0.00422181,0.000767632 0.00232934,0.000202994 0.00291598,-0.000131552 0.00483785,-0.000761555 -0.00014042,0.000752029 -0.0003669,0.000640022 -0.0011296,0.000862231 -0.00368148,0.00107212 -0.0072117,-0.000371991 -0.0107748,-0.00134886 -0.00324396,-0.000889329 -0.00519933,-0.00145742 -0.00760143,-0.00351067 -0.00033044,-0.000282319 -0.00167059,-0.00139911 -0.00163857,-0.00196589 0.00025637,7.6369e-005 0.000502722,0.000483178 0.000692084,0.000710642 0.000456572,0.000548214 0.00101546,0.000911008 0.00160638,0.00132997 0.000180494,0.000127939 0.000428323,0.000392684 0.000666956,0.00043013 0.000285275,4.4836e-005 2.16789e-005,8.88508e-005 0.000279527,-5.87959e-005 -0.000660222,-0.000203322 -0.00131864,-0.000800314 -0.00177061,-0.00120039 -0.000262775,-0.000232392 -0.00132044,-0.00122289 -0.00109807,-0.0015663 0.000449181,0.000395969 0.00128793,0.00160194 0.00197771,0.00169687 -8.4745e-005,-0.000166698 3.21899e-005,7.39055e-006 -0.000114964,-0.000157501 -0.000309746,-0.000347356 -0.00175386,-0.00129778 -0.00156762,-0.00175238 0.000142555,-0.000347848 0.000675003,0.000549036 0.000858618,0.000717212 0.000258505,0.000236498 0.000695861,0.000580733 0.00110743,0.000721153 -0.000125968,-0.000244545 -0.000765661,-0.000591901 -0.000988527,-0.000837431zm0.0077765 0.000641992c0.000432922,0.000325348 -4.92703e-007,0.0010984 -0.000150439,0.00152623l0.000150439 -0.00152623zm0.00738053 0.0130087c-0.000369527,-0.00105504 -0.000451645,-0.00144871 -0.00187277,-0.00233164 -0.00161968,-0.00100626 -0.00739827,-0.00226545 -0.00969049,-0.00299679 -0.00305361,-0.000974239 -0.00669666,-0.00218136 -0.00716144,-0.00550711 -0.000205457,-0.00147023 0.000283797,-0.00225182 0.000765497,-0.00325759 0.000355239,0.000452302 3.35038e-005,-7.9161e-005 0.000205621,0.000465933 0.00125869,0.00398695 0.00860868,0.00560975 0.0118022,0.00647773 0.00141094,0.000383487 0.00972843,0.00248388 0.00867306,0.00520229 -0.000310403,0.000799657 -0.00170098,0.00167585 -0.00272169,0.00194716zm-0.0010874 -0.00627458c0.00246155,3.25184e-005 0.00286293,4.91061e-005 0.00514497,-0.000611773 -0.00015126,0.00054805 -0.000430787,0.000540824 -0.000993454,0.000702759 -0.00172807,0.000497138 -0.00275487,0.000611445 -0.00415152,-9.09859e-005zm0.00167273 0.00073577c0.00235693,-0.000325348 0.0010442,-0.000125311 0.00313458,-0.000599784 -0.000148139,0.000432101 -0.000174745,0.000345713 -0.000641992,0.000514054 -0.000304819,0.000109709 -0.000528671,0.00018345 -0.000843179,0.000262118 -0.00104223,0.000261133 -0.000886866,0.000243231 -0.00164941,-0.000176388zm0.00275536 0.000119727c-0.000236169,0.000161442 -0.000181315,0.000381845 -0.000689292,0.000553963 -0.000588945,0.000199545 -0.000656445,0.000165877 -0.0010649,-0.000101004l0.00175419 -0.000452959zm-0.000665806 0.000812632c-0.000141242,0.000338159 -0.00016407,0.000405987 -0.000450167,9.80479e-005l0.000450167 -9.80479e-005zm-0.00393161 0.00354894c-0.000433086,-0.000174253 -0.00086995,-0.000581718 -0.00121714,-0.000898198 0.000116442,4.72995e-005 0.000235348,0.000102318 0.000343578,0.000154873 0.000401225,0.000194454 0.000638215,0.00039252 0.000873563,0.000743325zm0.000310732 0.000433907c0.000256041,0.000121369 0.000147811,-0.000149946 0.00023929,0.000333889l-0.000396462 -0.000165548 0.000157172 -0.00016834zm0.000247994 0.000712285l-0.000894421 -0.000134344c5.042e-005,-0.000353104 0.000486462,-0.000175567 0.000702266,-5.51828e-005 0.000165548,9.22997e-005 8.9672e-005,5.83032e-005 0.000192154,0.000189527zm-0.000347027 0.000251443c-0.000363122,7.45624e-005 -0.000816081,0.00010084 -0.00111696,-4.86134e-005 0.000198231,-0.000383487 0.00079046,-8.1953e-005 0.00111696,4.86134e-005zm0.00101891 0.00030991c0.000322392,0.000167191 9.91976e-005,3.67885e-005 0.000368214,0.00040221 0.000208413,0.000282976 0.000720989,0.000797687 0.00105816,0.000812468 -1.0511e-005,-0.000211205 -0.000339637,-0.000362465 -0.000529163,-0.000517667 -0.000251771,-0.000206114 -0.000388086,-0.000423232 -0.000525714,-0.000833325 0.000268852,8.70442e-005 0.000154052,4.94346e-005 0.000314509,0.000219746 0.00169342,0.00179607 0.00342478,0.00132209 0.00488811,0.0026427 0.00104535,0.000943362 0.00307398,0.00392028 0.00395986,0.00390434 -0.002532,0.000400896 -0.00307611,-0.00346223 -0.00592279,-0.00394048 0.000305148,0.000396298 0.000593379,0.000516681 0.000873727,0.00121451 0.000229435,0.000571043 0.000322721,0.00120548 0.000282483,0.00185306 -0.000622941,-0.00232408 -0.00423019,-0.00312768 -0.00628328,-0.00376639 -0.00049878,-0.000155202 -0.002217,-0.000645605 -0.00182317,-0.0013055 0.000382666,0.000167355 0.000242574,0.000484163 0.000630824,0.000454272 -3.28469e-006,-3.28469e-006 -0.000190348,-0.000211041 -0.000230421,-0.000292337 -0.000250293,-0.000508798 -7.30843e-005,-0.000292501 -6.5858e-005,-0.00036575l4.41791e-005 -0.000158486c0.000384309,2.3814e-005 0.000238797,0.000785862 0.00121008,0.00129482 -7.40697e-005,-0.000268688 -0.000637886,-0.000654803 -0.000840716,-0.00139139 0.000851884,0.000106095 0.00033241,0.000108887 0.00106933,0.000954695 0.000189691,0.000217611 0.000740369,0.000685514 0.00116032,0.000729037 -0.000116442,-0.000199381 -0.000611445,-0.000469382 -0.00079161,-0.000638379 -0.000275421,-0.000258177 -0.00046117,-0.000497466 -0.000621956,-0.000936793 0.000510769,5.3212e-005 0.000400239,5.3212e-005 0.000611116,0.000401225 0.000186078,0.000306954 0.000181479,0.000354089 0.000530149,0.00039252 -0.000211862,-0.00049878 -0.000298578,-0.00024241 -0.000485148,-0.000813125 0.000672211,0.000136807 0.000356224,0.000436042 0.00126493,0.00113059 0.000286918,0.000219417 0.000993126,0.000816409 0.00144116,0.00085484l-0.000244052 -0.000215804c-0.000666135,-0.00044721 -0.0015824,-0.00104601 -0.00194043,-0.00180329l0.000281662 -0.000132044c0.000188048,0.000154545 0.000956173,0.00144838 0.00180641,0.00150899 -6.81573e-005,-0.000114471 -1.70804e-005,-6.70076e-005 -0.000177866,-0.000185749 -0.00032814,-0.00024241 -0.00117904,-0.000652339 -0.00131305,-0.00147351zm-0.009735 -0.004479c-0.000385458,-0.000136972 -0.000912486,-0.000135658 -0.0013101,-0.000245695 -0.00239207,-0.000662029 -0.00436289,-0.00126001 -0.00635341,-0.00274189 -0.000399254,-0.000297264 -0.000493524,-0.000213669 -0.000634438,-0.000864694 0.00120663,0.000532284 0.00188558,0.00228696 0.00818084,0.00351232l0.00466508 0.0012247c0.000363287,0.000122683 0.00368509,0.00146464 0.00357259,0.00205736 -0.000222538,6.88142e-005 -4.36864e-005,6.50368e-005 -0.000250293,-4.81207e-005 -0.000706865,-0.000386936 -0.000910187,-0.000886209 -0.0027322,-0.00150045l-0.00105833 -0.000235019c-1.00183e-005,8.21172e-007 -4.53287e-005,3.13688e-005 -5.22265e-005,1.42884e-005 -6.73361e-006,-1.67519e-005 -3.46535e-005,9.03289e-006 -5.02557e-005,1.75731e-005 0.000543944,0.000281662 0.00145676,0.000423396 0.00214195,0.000785533 0.000328469,0.000173596 0.000670898,0.000359016 0.000927596,0.000540988 0.000377739,0.000267702 0.000696354,0.000319929 0.000704073,0.000768124 -0.000600113,-0.000247665 -0.00171132,-0.00127988 -0.00255664,-0.00126116 0.000167683,0.00016522 0.000925461,0.000483342 0.0012219,0.000665971 0.000239782,0.000147647 0.000392192,0.000257191 0.000614072,0.000398104 0.000232063,0.000147483 0.000379874,0.000196096 0.000363122,0.000409108 -0.000361316,9.85406e-005 -0.00168849,-0.00111548 -0.00261018,-0.00111269 1.34672e-005,1.75731e-005 3.58031e-005,3.89236e-005 4.63141e-005,4.77922e-005l0.00174006 0.000925132c0.000338487,0.000196589 0.000418798,0.00012334 0.000480057,0.000526043 -0.000413871,6.10952e-005 -0.00145446,-0.000804749 -0.00208233,-0.00094599 0.000248651,0.000377903 0.00112303,0.000634602 0.00154627,0.00102876 0.000138614,0.000128924 4.07301e-005,1.31388e-006 0.000132537,0.00015438 -0.000244381,0.000125311 -0.000318779,2.33213e-005 -0.000607175,-0.00014157 -0.000488762,-0.000279363 -0.000441626,-0.000238304 -0.000658908,-0.000100511 0.000921027,0.000215311 0.000841373,0.000590423 0.000841537,0.000589109 1.80658e-006,-1.31388e-005 8.21172e-007,4.28652e-005 -5.41974e-006,6.3066e-005 -2.26643e-005,1.01825e-005 -5.61682e-005,1.59307e-005 -7.27558e-005,1.75731e-005 -1.59307e-005,1.47811e-006 -5.18981e-005,1.19891e-005 -7.16062e-005,1.24818e-005l-0.000276078 -4.79564e-005c-0.000222702,-7.4234e-005 -0.000125475,-9.62414e-005 -0.000465605,-0.000166205l0.000503543 0.000507977c-0.000243067,0.000355568 -0.000223359,0.00016834 -0.000666792,3.18615e-005 3.4325e-005,0.000227793 4.92703e-006,5.17338e-005 0.000110037,0.00021876 5.17338e-005,8.24457e-005 2.29928e-005,-5.66609e-005 0.000165713,0.000228943 -7.71902e-005,3.94163e-005 -0.000256698,7.86683e-005 -0.00026491,8.29384e-005 -0.000209399,0.000109216 -6.06025e-005,5.8139e-005 -0.000169161,0.000236333l-0.000775679 0.000933508c-0.000345057,0.000357046 -0.00102466,0.00123537 -0.00143459,0.00140716l-0.000845971 -0.00105159c-0.000176552,-0.0002071 -0.000213669,-0.000112008 -0.000238797,-0.000206443 -6.89785e-006,-2.56206e-005 -3.48177e-005,-2.18432e-005 -5.07484e-005,-3.48177e-005l0.000243231 -0.000175074 -0.000732814 -0.000358524 0.000306626 -6.96354e-005c0.000198888,-2.51279e-005 -3.08761e-005,8.688e-005 0.000222538,-2.39782e-005 -0.000220567,-0.000164891 -0.000600605,-0.000225822 -0.000859603,-0.000406644 -0.000197081,-0.000137464 -7.98179e-005,-2.75914e-005 -0.000200038,-0.000197246l0.000885224 0.000143377c-0.000150603,-0.000147154 -1.5438e-005,-4.58214e-005 -0.000204308,-0.000144855 -0.00010396,-5.43616e-005 -8.91793e-005,-4.04017e-005 -0.000213669,-7.98179e-005 -0.000351297,-0.000111187 -0.000818873,-0.000273286 -0.00106703,-0.000509455 0.000298085,3.49819e-005 0.000779785,0.000230914 0.00105094,6.52011e-005 -0.000497795,-0.000261625 -0.00110316,-0.00024356 -0.00174335,-0.000626554 0.000132373,-7.43982e-005 -2.25001e-005,-3.53104e-005 0.000188705,-5.33762e-005 0.000392028,-3.35038e-005 0.00093745,0.00028741 0.00127544,3.84309e-005 -0.000677631,-0.000223523 -0.0016182,-0.000298414 -0.00220862,-0.000625405 0.000108723,-6.17521e-005 7.71902e-006,-3.90878e-005 0.000194125,-6.20806e-005l0.0006415 7.62048e-005c0.000295458,4.04017e-005 0.000549364,3.56389e-005 0.000854676,3.67885e-005 -9.42706e-005,-0.000185913 -2.70987e-005,-9.62414e-005 -0.00028199,-0.00015865 -0.000788325,-0.000192811 -0.00172758,-0.000193468 -0.00236974,-0.00070358 0.000767796,0.000117099 0.00125623,0.000290366 0.00212618,0.00029283 -0.000391863,-0.000366407 -0.0022666,-0.000245695 -0.00316332,-0.00104256 0.000705387,0.000138285 0.00147729,0.000472667 0.00222997,0.00041929l0.000265731 -6.35587e-005c-0.000330604,-0.000176059 -0.00159504,-0.000288396 -0.00213061,-0.000459528 -0.000733142,-0.000234363 -0.0013395,-0.000504528 -0.0016793,-0.000907067 0.000981629,0.000314509 0.00248536,0.000951246 0.00374175,0.00093745 -0.000204308,-0.000180001 -0.000453287,-0.000189362 -0.000738398,-0.00025637l-0.00200465 -0.000555769c-0.000700788,-0.000230585 -0.00188311,-0.000651189 -0.00220862,-0.00122207 0.000534583,0.000206443 0.00426862,0.00191005 0.00495183,0.00145627 -0.00015553,-9.59129e-005 -0.00134689,-0.000290531 -0.00167552,-0.000381845 -0.000523579,-0.000145347 -0.00102252,-0.000312045 -0.00151638,-0.000515368 -0.000571207,-0.000234855 -0.00227859,-0.000905096 -0.0025747,-0.0014832 0.000917249,0.000383159 0.00366588,0.00197558 0.0049947,0.00173908 -0.000326662,-0.000270658 -0.00121057,-0.000371827 -0.00161738,-0.000505185 -0.00101316,-0.000331918 -0.00202205,-0.000780935 -0.00294242,-0.00127939 -0.00035179,-0.000190512 -0.00139107,-0.000677138 -0.00104502,-0.000957979 0.000964549,0.00100922 0.00541793,0.0025793 0.00642518,0.00237795l-0.000120712 -6.07667e-005c-0.000590587,-0.0002296 0.000430787,0.0001148 -0.000132209,-4.71353e-005l-0.000765825 -0.000143869c-0.000350476,-7.53836e-005 -0.000721153,-0.000174581 -0.00103451,-0.000264089 -0.000632303,-0.000180329 -0.00131552,-0.00043752 -0.00188081,-0.000694219 -0.000658908,-0.000299071 -0.00285209,-0.00132619 -0.00306741,-0.00209136 0.000945169,0.000380203 0.0020416,0.00190068 0.00682591,0.00283682 0.000306133,5.99456e-005 0.000834639,0.000204308 0.00109199,5.41974e-006z"/>
 </g>
</svg>
