<?xml version="1.0" encoding="UTF-8"?>
<!DOCTYPE svg PUBLIC "-//W3C//DTD SVG 1.1//EN" "http://www.w3.org/Graphics/SVG/1.1/DTD/svg11.dtd">
<!-- Creator: CorelDRAW -->
<svg xmlns="http://www.w3.org/2000/svg" xml:space="preserve" width="1in" height="2in" style="shape-rendering:geometricPrecision; text-rendering:geometricPrecision; image-rendering:optimizeQuality; fill-rule:evenodd; clip-rule:evenodd"
viewBox="0 0 0.126875 0.133862"
 xmlns:xlink="http://www.w3.org/1999/xlink">
 <defs>
  <style type="text/css">
   <![CDATA[
    .fil0 {fill:black}
   ]]>
  </style>
 </defs>
 <g id="Layer_x0020_1">
  <metadata id="CorelCorpID_0Corel-Layer"/>
  <path class="fil0" d="M0.0564875 0.0913824c0.00171859,-0.000700327 0.00179667,-0.000669384 0.00366109,-0.00258614 0.0041272,-0.00424307 0.0238902,-0.0227123 0.025264,-0.0249064 -0.00818024,-6.75331e-005 -0.0515212,-0.00092348 -0.0570096,0.00038314 0.00322345,0.00209564 0.0254495,0.0257648 0.0280845,0.0271094zm-0.00169797 0.0013536l0.00362097 0c0.00851859,-0.00710227 0.0347968,-0.0345776 0.0384938,-0.0368757 -0.000162019,-0.000115793 -0.000411071,-0.000235726 -0.000511731,-0.000315004 -0.00179795,-0.0014136 -0.00102926,-0.000378095 -0.00155236,-0.00179727l-0.000257409 -0.00173576c-3.7418e-005,0.000433357 -0.0201807,0.000138605 -0.0224787,0.00101819 -0.00315403,0.00374466 -0.00627373,0.00662284 -0.0103746,0.00684343 -0.00599088,0.000322232 -0.00896851,-0.00339269 -0.0114654,-0.00795754 -0.00017384,-4.7883e-005 -0.000130398,0.000435088 -0.000413556,0.000434787l-0.0286795 -2.96634e-005 -0.00356503 0.00326839c0.0073907,0.00771707 0.0288498,0.029573 0.0371834,0.0371461zm0.00447006 0.00244881l0 0.0352995c0.00645781,0.000101714 0.0117552,0.000290611 0.0151904,0.000942904 0.0022356,0.000424473 0.00456974,0.000886664 0.000937107,0.0013472 -0.00778965,0.000987701 -0.026563,0.00166446 -0.0355434,0.000393153 -0.00567783,-0.000803547 -0.00397678,-0.0019681 0.00060569,-0.00252079 0.00408165,-0.000492307 0.00931084,-6.96412e-005 0.0131991,-0.000231962l0 -0.0353172 -0.0385683 -0.0389632c-0.00260405,-0.00330039 -0.00145674,-0.000961275 -0.00443543,-0.00164218 -0.00463253,-0.00105885 -0.00372185,-0.00427928 -0.00240725,-0.00726618 0.0071144,-0.00126995 0.00303816,0.000617887 0.00789001,-0.00302695 0.00541876,-0.00407051 0.0144516,-0.0101925 0.0185877,-0.0153702 -0.00385466,-0.000941173 -0.00992542,-0.00196697 -0.0118006,-0.00311601 -0.00584286,0.000290385 -0.00038841,0.00114257 -0.00530914,0.00215029 -0.00132047,0.000270358 -0.00249127,0.000541244 -0.00353401,0.000806709 -0.00455694,0.00116071 -0.00758148,0.00373375 -0.0081935,0.00350916l-0.00119429 -0.00043825 0.00374617 -0.00164459c0.00184229,-0.000808591 0.00346294,-0.00118239 0.00417825,-0.00352753 -0.00311315,-0.00084759 -0.00713811,-0.00051941 -0.0108904,-0.000375536 -0.00186518,-0.00409423 -0.00319499,-0.00586221 0.00143905,-0.00781058 0.00207034,0.000721935 0.00312414,0.0021838 0.00630912,0.00219381 0.00291996,9.10982e-006 0.00448745,-0.000704543 0.00801107,-0.000384118 0.00942882,0.000856926 0.0111507,0.00127297 0.0211143,0.0012692 0.00939848,-4.06554e-006 0.00890256,-0.00338456 0.0139753,0.00339239 0.00120844,0.00161425 0.00691692,0.00832073 0.00914046,0.00946255 0.00237269,-0.00209985 0.00380128,-0.00356209 0.0035703,-0.00669075 -0.000134615,-0.00182324 8.1612e-005,-0.00302506 0.00071546,-0.00390834 0.000674955,-0.00094057 0.00182317,-0.00152029 0.00352475,-0.00210512 -0.00376612,-0.0270904 0.0111935,-0.0228309 0.0148664,-0.0181702 0.0145855,0.0185069 0.00745364,0.0137302 0.0125694,0.0291602 0.001112,0.00335362 0.00276826,0.00613776 0.0038256,0.0100595 0.0012171,0.00451426 0.00340459,0.00929804 0.00197555,0.0109277l-0.00157389 0.00118766c-0.00804164,0.00715731 -0.03305,0.031343 -0.041921,0.0404077zm0.0164616 -0.0765961c-0.00169337,0.00144214 -0.00099553,0.0011644 -0.00327284,0.00091309l-0.000505859 -0.00377395c0.00104221,0.000650336 0.00053364,0.000319371 0.00146111,0.00102301l0.00231758 0.00183785zm0.0227534 0.0317257c-0.0029823,-0.00106698 -0.00241764,-0.0017323 -0.00374948,-0.00490078 -0.00244934,-0.00582539 -0.00688168,-0.0125688 -0.00739808,-0.0160112l0.00196975 -0.00176542c0.00233347,0.00342748 0.00845226,0.018154 0.00917781,0.0226774zm-0.0259104 9.78741e-007c0.00153196,-0.00833413 0.00445372,-0.0150016 0.0118262,-0.0166967 0.00407849,0.0175184 0.0210425,0.0159914 -0.0118262,0.0166967zm-0.0486852 -0.000131151c0.00384276,-0.0070111 -0.00103476,-0.0041525 0.00745003,-0.00912857 0.00208103,-0.00122057 0.00405026,-0.00190696 0.00564207,-0.00298057 0.00232526,-0.00156802 0.000573768,-0.000285567 0.00208382,-0.0021658l0.0014639 -0.00164572c6.42958e-005,-0.000252289 0.00027608,-0.000272617 0.000436669,-0.000384946 0.00204459,0.00628977 0.00496531,0.0114507 0.00847537,0.0163485l-0.0255518 -4.2914e-005zm-0.00699785 0.00538963c-0.00198255,-0.00179938 -0.00416101,-0.00333231 -0.000589579,-0.00389351 0.000724269,-0.00011376 0.00182829,-9.42603e-005 0.002557,-0.000104575 -0.000559012,0.00236547 -0.000621576,0.00225502 -0.00196742,0.00399808zm0.0656762 0.0321034c-0.000481767,0 -0.000852408,-0.000132055 -0.00111177,-0.000396089 -0.000259442,-0.000264034 -0.000389163,-0.000636935 -0.000389163,-0.0011187l0 -0.00704581c0,-0.000491027 0.000129721,-0.000866186 0.000389163,-0.00112563 0.000259366,-0.000259366 0.000630008,-0.000389087 0.00111177,-0.000389087 0.000481691,0 0.000849999,0.000129721 0.00110477,0.000389087 0.000254774,0.000259442 0.000382161,0.000634601 0.000382161,0.00112563l0 0.00275162 2.77812e-005 0 0.00304343 -0.0035715c0.000185359,-0.000213064 0.000391497,-0.000379827 0.000618414,-0.000500287 0.000226993,-0.00012046 0.000488768,-0.000180691 0.000785176,-0.000180691 0.000444725,0 0.00076899,0.000115868 0.000972794,0.000347453 0.000203879,0.000231585 0.000301151,0.000502621 0.000291891,0.000812958 -9.2604e-006,0.000310412 -0.000129721,0.000590633 -0.000361306,0.000840814l-0.0024598 0.00275154 0.00262657 0.00319634c0.000259366,0.000315004 0.000389087,0.000636935 0.000389087,0.000965867 0,0.000328857 -0.000113534,0.000602152 -0.000340451,0.000819884 -0.000226993,0.000217732 -0.000553591,0.000326598 -0.000979795,0.000326598 -0.000370567,0 -0.00066705,-7.41585e-005 -0.000889375,-0.0002224 -0.000222325,-0.000148166 -0.000453985,-0.000365899 -0.000694831,-0.000653122l-0.0030018 -0.00362714 -2.77812e-005 0 0 0.00298787c0,0.000481767 -0.000125053,0.000854667 -0.000375234,0.0011187 -0.000250106,0.000264034 -0.000620673,0.000396089 -0.0011117,0.000396089zm0.011048 2.77812e-005c-0.000546589,0 -0.00102836,-9.96057e-005 -0.0014453,-0.000298817 -0.000416869,-0.000199136 -0.000741133,-0.000472431 -0.000972794,-0.000819884 -0.000231585,-0.000347453 -0.000347378,-0.000743467 -0.000347378,-0.00118819 0,-0.000500287 0.000129721,-0.000894043 0.000389087,-0.00118127 0.000259442,-0.000287223 0.00067631,-0.000493361 0.00125076,-0.000618414 0.000574371,-0.000125053 0.00132951,-0.000187617 0.00226518,-0.000187617l0.000541997 0 0 -0.000125053c0,-0.000268702 -7.40832e-005,-0.000451651 -0.000222325,-0.000548923 -0.000148242,-9.72718e-005 -0.000412276,-0.000145908 -0.000792178,-0.000145908 -0.000203804,0 -0.000433131,2.08547e-005 -0.000687905,6.24889e-005 -0.000254774,4.17094e-005 -0.000558184,0.000118127 -0.000910229,0.000229327 -0.000287223,9.26793e-005 -0.000532736,9.96057e-005 -0.00073654,2.08547e-005 -0.000203804,-7.8751e-005 -0.000358972,-0.000206138 -0.00046558,-0.000382161 -0.000106532,-0.000176023 -0.000157427,-0.000370567 -0.000152834,-0.000583706 4.66784e-006,-0.000213064 7.64171e-005,-0.00041461 0.000215398,-0.000604486 0.000138981,-0.000189951 0.000352046,-0.000335859 0.000639269,-0.000437799 0.000444725,-0.000157502 0.000852333,-0.0002617 0.00122297,-0.00031267 0.000370567,-5.09698e-005 0.000708684,-7.64171e-005 0.00101443,-7.64171e-005 0.00121371,0 0.00211702,0.000257108 0.00270991,0.000771248 0.000592967,0.000514216 0.00088945,0.00132258 0.00088945,0.0024251l0 0.00251529c0,0.000472506 -0.000113534,0.000833888 -0.000340527,0.00108399 -0.000226917,0.000250181 -0.000558184,0.000375234 -0.000993573,0.000375234 -0.00077825,0 -0.00121831,-0.000375234 -0.00132025,-0.0011257 -0.00010194,0.000352121 -0.000305744,0.000632342 -0.000611487,0.000840814 -0.000305744,0.000208472 -0.000685571,0.00031267 -0.00113956,0.00031267zm0.000680978 -0.00184832c0.000268702,0 0.000502621,-8.80114e-005 0.000701758,-0.000264034 0.000199211,-0.000176023 0.000298817,-0.000407608 0.000298817,-0.000694831l0 -0.0002224 -0.00055585 0c-0.000361381,0 -0.000643936,5.56377e-005 -0.000847741,0.000166838 -0.000203804,0.000111125 -0.000305744,0.000259366 -0.000305744,0.00044465 0,0.000166762 5.78963e-005,0.00030341 0.000173689,0.000409942 0.000115868,0.000106608 0.000294149,0.000159836 0.00053507,0.000159836zm0.0077962 0.00184832c-0.000426204,0 -0.000840814,-2.54473e-005 -0.00124383,-7.64171e-005 -0.00040294,-5.09698e-005 -0.000775916,-0.000136647 -0.0011187,-0.000257108 -0.000277887,-9.26793e-005 -0.000477099,-0.000229327 -0.000597559,-0.000409942 -0.00012046,-0.000180691 -0.000180615,-0.0003729 -0.000180615,-0.00057678 0,-0.000203804 5.32285e-005,-0.000391421 0.000159761,-0.000562776 0.000106608,-0.00017143 0.000252515,-0.000296483 0.000437799,-0.000375234 0.000185283,-7.8751e-005 0.000398348,-8.1085e-005 0.000639269,-6.92648e-006 0.000389087,0.000120385 0.00073654,0.000208397 0.00104228,0.000264034 0.000305668,5.55624e-005 0.000592891,8.33436e-005 0.000861593,8.33436e-005 0.000287223,0 0.000486359,-3.47077e-005 0.000597559,-0.000104198 0.0001112,-6.94906e-005 0.000166762,-0.000155168 0.000166762,-0.000257108 0,-0.00010194 -3.70416e-005,-0.000176023 -0.0001112,-0.000222325 -7.40832e-005,-4.63773e-005 -0.000166762,-7.41585e-005 -0.000277887,-8.34189e-005l-0.00162599 -0.000250106c-0.000574371,-9.26793e-005 -0.00102376,-0.00030341 -0.00134803,-0.000632342 -0.000324265,-0.000328857 -0.000486359,-0.000761988 -0.000486359,-0.00129939 0,-0.000500287 0.000143574,-0.000931084 0.000430797,-0.00129239 0.000287223,-0.000361306 0.000683312,-0.000641603 0.00118819,-0.000840739 0.000504955,-0.000199211 0.00108166,-0.000298817 0.00173019,-0.000298817 0.000426204,0 0.000806031,2.54473e-005 0.00113956,7.64171e-005 0.000333525,5.09698e-005 0.000662382,0.000141315 0.000986647,0.000271036 0.000231661,9.2604e-005 0.000398423,0.000226917 0.000500363,0.000403016 0.000101864,0.000176023 0.000145908,0.000365899 0.000131979,0.000569778 -1.39282e-005,0.000203804 -7.40832e-005,0.000389087 -0.000180691,0.00055585 -0.000106532,0.000166762 -0.000254774,0.000284889 -0.00044465,0.00035438 -0.000189951,6.94906e-005 -0.000410017,6.25642e-005 -0.000660123,-2.08547e-005 -0.000315004,-0.00010194 -0.000583706,-0.000176023 -0.000806031,-0.000222325 -0.000222325,-4.63773e-005 -0.000426204,-6.94906e-005 -0.000611487,-6.94906e-005 -0.000342785,0 -0.000574371,3.47077e-005 -0.000694831,0.000104198 -0.00012046,6.94906e-005 -0.000180691,0.000155168 -0.000180691,0.000257108 0,0.000148242 0.00012046,0.000245513 0.000361381,0.000291815l0.00162592 0.000250181c0.000592967,9.2604e-005 0.00105154,0.000296483 0.00137581,0.000611412 0.000324265,0.000315004 0.000486359,0.000745876 0.000486359,0.00129247 0,0.00078751 -0.000301076,0.00139666 -0.000903303,0.00182746 -0.000602152,0.000430797 -0.00139892,0.000646195 -0.00239024,0.000646195zm0.00553102 -2.77812e-005c-0.000463246,0 -0.000819959,-0.000125053 -0.00107007,-0.000375234 -0.000250181,-0.000250106 -0.000375234,-0.000611487 -0.000375234,-0.00108399l0 -0.00715693c0,-0.000472506 0.000125053,-0.000833812 0.000375234,-0.00108392 0.000250106,-0.000250181 0.00060682,-0.000375234 0.00107007,-0.000375234 0.00046317,0 0.000819884,0.000125053 0.00107007,0.000375234 0.000250106,0.000250106 0.000375159,0.000611412 0.000375159,0.00108392l0 0.00428026 2.78565e-005 0 0.00137581 -0.00184824c0.000250106,-0.0003336 0.000493286,-0.00057678 0.000729539,-0.000729614 0.000236253,-0.00015291 0.000553591,-0.000229327 0.000951939,-0.000229327 0.000398423,0 0.000706425,9.72718e-005 0.000924158,0.000291815 0.000217732,0.000194619 0.000333525,0.000437799 0.000347453,0.000729614 1.3853e-005,0.000291815 -9.50132e-005,0.000585965 -0.000326598,0.000882448l-0.00115341 0.00150086 0.00136188 0.00193173c0.000222325,0.000305744 0.000310336,0.000597559 0.000264034,0.000875522 -4.6302e-005,0.000277887 -0.000187617,0.000502546 -0.00042387,0.000673976 -0.000236253,0.00017143 -0.000534995,0.000257108 -0.000896376,0.000257108 -0.000435389,0 -0.000782842,-7.64171e-005 -0.00104221,-0.000229327 -0.000259442,-0.000152834 -0.000509623,-0.000400682 -0.000750469,-0.000743467l-0.00136188 -0.00191781 -2.78565e-005 0 0 0.00143137c0,0.000972794 -0.000481767,0.00145923 -0.00144522,0.00145923zm0.00840769 -0.00794911c-0.000509623,0 -0.00089871,-0.000115793 -0.00116741,-0.000347378 -0.000268627,-0.000231661 -0.000403016,-0.000565185 -0.000403016,-0.00100065 0,-0.000435389 0.000134389,-0.000768914 0.000403016,-0.00100057 0.000268702,-0.000231585 0.000657789,-0.000347378 0.00116741,-0.000347378 0.000509548,0 0.000898635,0.000115793 0.00116734,0.000347378 0.000268627,0.000231661 0.000403016,0.000565185 0.000403016,0.00100057 0,0.000435465 -0.000134389,0.00076899 -0.000403016,0.00100065 -0.000268702,0.000231585 -0.000657789,0.000347378 -0.00116734,0.000347378zm0 0.00794911c-0.000463246,0 -0.000819959,-0.000134313 -0.00107007,-0.000403016 -0.000250181,-0.000268702 -0.000375234,-0.000657789 -0.000375234,-0.00116734l0 -0.00400237c0,-0.000509548 0.000125053,-0.000898635 0.000375234,-0.00116734 0.000250106,-0.000268702 0.00060682,-0.000403016 0.00107007,-0.000403016 0.00046317,0 0.000819884,0.000134313 0.00107007,0.000403016 0.000250106,0.000268702 0.000375159,0.000657789 0.000375159,0.00116734l0 0.00400237c0,0.000509548 -0.000122719,0.000898635 -0.000368233,0.00116734 -0.000245513,0.000268702 -0.000604561,0.000403016 -0.00107699,0.000403016zm0.00661494 2.77812e-005c-0.000870854,0 -0.00162366,-0.000148242 -0.00225826,-0.000444725 -0.000634676,-0.000296483 -0.00112104,-0.000715686 -0.00145923,-0.00125768 -0.000338117,-0.000541922 -0.000507214,-0.00117893 -0.000507214,-0.0019108 0,-0.000704091 0.000159836,-0.00132484 0.000479433,-0.00186217 0.000319672,-0.000537404 0.000759729,-0.000958941 0.00132025,-0.00126468 0.000560518,-0.000305744 0.00119745,-0.000458578 0.0019108,-0.000458578 0.000713427,0 0.00133184,0.000148242 0.00185524,0.000444725 0.000523476,0.000296483 0.000928825,0.000715686 0.00121605,0.00125768 0.000287148,0.000541922 0.000430797,0.00117893 0.000430797,0.0019108 0,0.000370567 -0.000208472,0.00055585 -0.000625416,0.00055585l-0.00382168 0c8.34189e-005,0.000342861 0.000252515,0.000581372 0.000507289,0.000715761 0.000254774,0.000134313 0.000599893,0.00020147 0.00103528,0.00020147 0.000185359,0 0.000400757,-2.08547e-005 0.00064627,-6.25642e-005 0.000245513,-4.16341e-005 0.000479433,-9.49379e-005 0.000701758,-0.000159761 0.000268702,-8.34189e-005 0.000500287,-8.34189e-005 0.000694831,0 0.000194619,8.33436e-005 0.000342785,0.000210731 0.000444725,0.000382161 0.00010194,0.000171355 0.000155168,0.00036364 0.000159836,0.000576704 4.59256e-006,0.000213064 -4.86359e-005,0.000412276 -0.000159836,0.000597559 -0.0001112,0.000185283 -0.000287223,0.000324265 -0.000528069,0.000416944 -0.000602227,0.000240846 -0.00128313,0.000361306 -0.00204286,0.000361306zm-0.000375234 -0.00535033c-0.000296483,0 -0.000541997,8.33436e-005 -0.00073654,0.000250106 -0.000194544,0.000166762 -0.000324265,0.000435465 -0.000389087,0.000806031l0.0021262 0c-2.77812e-005,-0.000370567 -0.000127387,-0.000639269 -0.000298742,-0.000806031 -0.00017143,-0.000166762 -0.000405349,-0.000250106 -0.000701833,-0.000250106zm-0.0367158 0.0180496c-0.000398348,0 -0.000724946,-8.56775e-005 -0.00097972,-0.000257108 -0.000254774,-0.00017143 -0.00046558,-0.000442391 -0.000632342,-0.000812958l-0.00322405 -0.0070041c-0.000176023,-0.000389087 -0.000231661,-0.000734207 -0.000166762,-0.00103536 6.48228e-005,-0.000301076 0.000215398,-0.000537329 0.000451651,-0.000708684 0.000236253,-0.00017143 0.000530402,-0.000257108 0.000882448,-0.000257108 0.000444725,0 0.000780509,9.72718e-005 0.0010075,0.000291815 0.000226993,0.000194544 0.000419278,0.000481767 0.00057678,0.000861593l0.00214013 0.00494739 0.00214013 -0.00496124c0.000157502,-0.000379902 0.000349712,-0.000664791 0.000576704,-0.000854667 0.000226993,-0.000189951 0.000548923,-0.000284889 0.000965867,-0.000284889 0.000333525,0 0.000611412,8.56775e-005 0.000833812,0.000257108 0.000222325,0.000171355 0.00036364,0.000407608 0.00042387,0.000708684 6.01549e-005,0.000301151 2.25863e-006,0.00064627 -0.000173764,0.00103536l-0.00322405 0.0070041c-0.000166762,0.000370567 -0.0003729,0.000641527 -0.000618414,0.000812958 -0.000245513,0.00017143 -0.000572112,0.000257108 -0.000979795,0.000257108zm0.00732377 -0.00794911c-0.000509623,0 -0.00089871,-0.000115793 -0.00116741,-0.000347378 -0.000268627,-0.000231661 -0.000403016,-0.000565185 -0.000403016,-0.00100065 0,-0.000435389 0.000134389,-0.000768914 0.000403016,-0.00100057 0.000268702,-0.000231585 0.000657789,-0.000347378 0.00116741,-0.000347378 0.000509548,0 0.000898635,0.000115793 0.00116734,0.000347378 0.000268627,0.000231661 0.000403016,0.000565185 0.000403016,0.00100057 0,0.000435465 -0.000134389,0.00076899 -0.000403016,0.00100065 -0.000268702,0.000231585 -0.000657789,0.000347378 -0.00116734,0.000347378zm0 0.00794911c-0.000463246,0 -0.000819959,-0.000134313 -0.00107007,-0.000403016 -0.000250181,-0.000268702 -0.000375234,-0.000657789 -0.000375234,-0.00116734l0 -0.00400237c0,-0.000509548 0.000125053,-0.000898635 0.000375234,-0.00116734 0.000250106,-0.000268702 0.00060682,-0.000403016 0.00107007,-0.000403016 0.00046317,0 0.000819884,0.000134313 0.00107007,0.000403016 0.000250106,0.000268702 0.000375159,0.000657789 0.000375159,0.00116734l0 0.00400237c0,0.000509548 -0.000122719,0.000898635 -0.000368233,0.00116734 -0.000245513,0.000268702 -0.000604561,0.000403016 -0.00107699,0.000403016zm0.00751824 2.77812e-005c-0.000444725,0 -0.000852333,-9.49379e-005 -0.00122297,-0.000284889 -0.000370567,-0.000189951 -0.000643861,-0.000442391 -0.000819884,-0.000757395 -0.000148242,0.00067631 -0.00060682,0.0010145 -0.00137581,0.0010145 -0.000954273,0 -0.00143137,-0.000486434 -0.00143137,-0.00145923l0 -0.00715693c0,-0.000472506 0.000125053,-0.000833812 0.000375234,-0.00108392 0.000250106,-0.000250181 0.00060682,-0.000375234 0.00107007,-0.000375234 0.00046317,0 0.000819884,0.000125053 0.00107007,0.000375234 0.000250106,0.000250106 0.000375159,0.000611412 0.000375159,0.00108392l0 0.00233467c0.000194619,-0.000268627 0.000467914,-0.000484025 0.000819959,-0.000646195 0.000352046,-0.000162095 0.000731873,-0.00024318 0.00113956,-0.00024318 0.000583631,0 0.00110018,0.000143574 0.0015495,0.000430797 0.000449318,0.000287223 0.000801439,0.000699499 0.00105621,0.00123683 0.000254774,0.000537329 0.000382161,0.00118127 0.000382161,0.00193173 0,0.000741133 -0.000127387,0.00138274 -0.000382161,0.00192473 -0.000254774,0.000541922 -0.000606895,0.000956531 -0.00105621,0.00124375 -0.000449318,0.000287223 -0.000965867,0.000430797 -0.0015495,0.000430797zm-0.000958865 -0.00211235c0.000296408,0 0.000544255,-0.0001112 0.000743467,-0.000333525 0.000199211,-0.000222325 0.000298742,-0.00060682 0.000298742,-0.00115341 0,-0.000546665 -9.95305e-005,-0.000931159 -0.000298742,-0.00115348 -0.000199211,-0.000222325 -0.000447059,-0.000333525 -0.000743467,-0.000333525 -0.000296483,0 -0.000544331,0.0001112 -0.000743542,0.000333525 -0.000199136,0.000222325 -0.000298742,0.00060682 -0.000298742,0.00115348 0,0.000546589 9.96057e-005,0.000931084 0.000298742,0.00115341 0.000199211,0.000222325 0.000447059,0.000333525 0.000743542,0.000333525zm0.00735148 0.00211235c-0.000546589,0 -0.00102836,-9.96057e-005 -0.0014453,-0.000298817 -0.000416869,-0.000199136 -0.000741133,-0.000472431 -0.000972794,-0.000819884 -0.000231585,-0.000347453 -0.000347378,-0.000743467 -0.000347378,-0.00118819 0,-0.000500287 0.000129721,-0.000894043 0.000389087,-0.00118127 0.000259442,-0.000287223 0.00067631,-0.000493361 0.00125076,-0.000618414 0.000574371,-0.000125053 0.00132951,-0.000187617 0.00226518,-0.000187617l0.000541997 0 0 -0.000125053c0,-0.000268702 -7.40832e-005,-0.000451651 -0.000222325,-0.000548923 -0.000148242,-9.72718e-005 -0.000412276,-0.000145908 -0.000792178,-0.000145908 -0.000203804,0 -0.000433131,2.08547e-005 -0.000687905,6.24889e-005 -0.000254774,4.17094e-005 -0.000558184,0.000118127 -0.000910229,0.000229327 -0.000287223,9.26793e-005 -0.000532736,9.96057e-005 -0.00073654,2.08547e-005 -0.000203804,-7.8751e-005 -0.000358972,-0.000206138 -0.00046558,-0.000382161 -0.000106532,-0.000176023 -0.000157427,-0.000370567 -0.000152834,-0.000583706 4.66784e-006,-0.000213064 7.64171e-005,-0.00041461 0.000215398,-0.000604486 0.000138981,-0.000189951 0.000352046,-0.000335859 0.000639269,-0.000437799 0.000444725,-0.000157502 0.000852333,-0.0002617 0.00122297,-0.00031267 0.000370567,-5.09698e-005 0.000708684,-7.64171e-005 0.00101443,-7.64171e-005 0.00121371,0 0.00211702,0.000257108 0.00270991,0.000771248 0.000592967,0.000514216 0.00088945,0.00132258 0.00088945,0.0024251l0 0.00251529c0,0.000472506 -0.000113534,0.000833888 -0.000340527,0.00108399 -0.000226917,0.000250181 -0.000558184,0.000375234 -0.000993573,0.000375234 -0.00077825,0 -0.00121831,-0.000375234 -0.00132025,-0.0011257 -0.00010194,0.000352121 -0.000305744,0.000632342 -0.000611487,0.000840814 -0.000305744,0.000208472 -0.000685571,0.00031267 -0.00113956,0.00031267zm0.000680978 -0.00184832c0.000268702,0 0.000502621,-8.80114e-005 0.000701758,-0.000264034 0.000199211,-0.000176023 0.000298817,-0.000407608 0.000298817,-0.000694831l0 -0.0002224 -0.00055585 0c-0.000361381,0 -0.000643936,5.56377e-005 -0.000847741,0.000166838 -0.000203804,0.000111125 -0.000305744,0.000259366 -0.000305744,0.00044465 0,0.000166762 5.78963e-005,0.00030341 0.000173689,0.000409942 0.000115868,0.000106608 0.000294149,0.000159836 0.00053507,0.000159836zm0.00705966 0.00432197c-0.000324265,0 -0.000590633,-8.56775e-005 -0.000799105,-0.000257108 -0.000208472,-0.000171355 -0.000338117,-0.000396014 -0.000389087,-0.000673976 -5.09698e-005,-0.000277963 -2.33392e-006,-0.000574446 0.000145908,-0.000889375l0.000653122 -0.00140367 -0.00202893 -0.00459986c-0.000138981,-0.000324265 -0.000182949,-0.000623082 -0.000132055,-0.000896376 5.09698e-005,-0.000273295 0.000194619,-0.00049562 0.000430872,-0.00066705 0.000236253,-0.00017143 0.000558184,-0.000257108 0.000965792,-0.000257108 0.000342785,0 0.000618414,7.8751e-005 0.000826886,0.000236253 0.000208472,0.000157502 0.000400682,0.000467838 0.000576704,0.000931084l0.00088945 0.0023486 0.000945012 -0.00237638c0.000176023,-0.000435465 0.000375159,-0.000734207 0.000597559,-0.000896376 0.000222325,-0.000162095 0.000518808,-0.00024318 0.000889375,-0.00024318 0.000315004,0 0.000569778,8.56775e-005 0.000764322,0.000257108 0.000194619,0.00017143 0.000315004,0.000393755 0.000361381,0.00066705 4.6302e-005,0.000273295 -4.66784e-006,0.000572112 -0.00015291,0.000896376l-0.00302951 0.00674006c-0.000185359,0.000426129 -0.000396089,0.000713352 -0.000632342,0.000861593 -0.000236253,0.000148242 -0.000530402,0.000222325 -0.000882448,0.000222325zm0.00794904 -0.00247366c-0.000546589,0 -0.00102836,-9.96057e-005 -0.0014453,-0.000298817 -0.000416869,-0.000199136 -0.000741133,-0.000472431 -0.000972794,-0.000819884 -0.000231585,-0.000347453 -0.000347378,-0.000743467 -0.000347378,-0.00118819 0,-0.000500287 0.000129721,-0.000894043 0.000389087,-0.00118127 0.000259442,-0.000287223 0.00067631,-0.000493361 0.00125076,-0.000618414 0.000574371,-0.000125053 0.00132951,-0.000187617 0.00226518,-0.000187617l0.000541997 0 0 -0.000125053c0,-0.000268702 -7.40832e-005,-0.000451651 -0.000222325,-0.000548923 -0.000148242,-9.72718e-005 -0.000412276,-0.000145908 -0.000792178,-0.000145908 -0.000203804,0 -0.000433131,2.08547e-005 -0.000687905,6.24889e-005 -0.000254774,4.17094e-005 -0.000558184,0.000118127 -0.000910229,0.000229327 -0.000287223,9.26793e-005 -0.000532736,9.96057e-005 -0.00073654,2.08547e-005 -0.000203804,-7.8751e-005 -0.000358972,-0.000206138 -0.00046558,-0.000382161 -0.000106532,-0.000176023 -0.000157427,-0.000370567 -0.000152834,-0.000583706 4.66784e-006,-0.000213064 7.64171e-005,-0.00041461 0.000215398,-0.000604486 0.000138981,-0.000189951 0.000352046,-0.000335859 0.000639269,-0.000437799 0.000444725,-0.000157502 0.000852333,-0.0002617 0.00122297,-0.00031267 0.000370567,-5.09698e-005 0.000708684,-7.64171e-005 0.00101443,-7.64171e-005 0.00121371,0 0.00211702,0.000257108 0.00270991,0.000771248 0.000592967,0.000514216 0.00088945,0.00132258 0.00088945,0.0024251l0 0.00251529c0,0.000472506 -0.000113534,0.000833888 -0.000340527,0.00108399 -0.000226917,0.000250181 -0.000558184,0.000375234 -0.000993573,0.000375234 -0.00077825,0 -0.00121831,-0.000375234 -0.00132025,-0.0011257 -0.00010194,0.000352121 -0.000305744,0.000632342 -0.000611487,0.000840814 -0.000305744,0.000208472 -0.000685571,0.00031267 -0.00113956,0.00031267zm0.000680978 -0.00184832c0.000268702,0 0.000502621,-8.80114e-005 0.000701758,-0.000264034 0.000199211,-0.000176023 0.000298817,-0.000407608 0.000298817,-0.000694831l0 -0.0002224 -0.00055585 0c-0.000361381,0 -0.000643936,5.56377e-005 -0.000847741,0.000166838 -0.000203804,0.000111125 -0.000305744,0.000259366 -0.000305744,0.00044465 0,0.000166762 5.78963e-005,0.00030341 0.000173689,0.000409942 0.000115868,0.000106608 0.000294149,0.000159836 0.00053507,0.000159836zm-0.0407043 0.0145476c-0.000453985,0 -0.000799105,-0.00012046 -0.00103536,-0.000361306 -0.000236253,-0.000240921 -0.00035438,-0.000588299 -0.00035438,-0.00104228l0 -0.00719864c0,-0.000472506 0.000118127,-0.000836146 0.00035438,-0.00109092 0.000236253,-0.000254774 0.000553591,-0.000382161 0.000951939,-0.000382161 0.000333525,0 0.000599893,6.71567e-005 0.000799105,0.00020147 0.000199211,0.000134389 0.000419202,0.000349787 0.000660123,0.000646195l0.00347423 0.00421085 0 -0.00365492c0,-0.000453985 0.000118127,-0.000801439 0.00035438,-0.00104228 0.000236253,-0.000240921 0.000581372,-0.000361306 0.00103536,-0.000361306 0.00045391,0 0.000799029,0.000120385 0.00103528,0.000361306 0.000236253,0.000240846 0.00035438,0.000588299 0.00035438,0.00104228l0 0.00733762c0,0.000398348 -0.000108866,0.000720278 -0.000326598,0.000965792 -0.000217732,0.000245513 -0.000511882,0.000368308 -0.000882448,0.000368308 -0.000370567,0 -0.000662382,-6.71567e-005 -0.000875522,-0.000201545 -0.000213064,-0.000134313 -0.000440057,-0.000349712 -0.000680903,-0.000646195l-0.00347431 -0.00421077 0 0.00365492c0,0.000453985 -0.000118127,0.000801363 -0.00035438,0.00104228 -0.000236253,0.000240846 -0.000581297,0.000361306 -0.00103528,0.000361306zm0.0114928 2.77812e-005c-0.000546589,0 -0.00102836,-9.96057e-005 -0.0014453,-0.000298817 -0.000416869,-0.000199136 -0.000741133,-0.000472431 -0.000972794,-0.000819884 -0.000231585,-0.000347453 -0.000347378,-0.000743467 -0.000347378,-0.00118819 0,-0.000500287 0.000129721,-0.000894043 0.000389087,-0.00118127 0.000259442,-0.000287223 0.00067631,-0.000493361 0.00125076,-0.000618414 0.000574371,-0.000125053 0.00132951,-0.000187617 0.00226518,-0.000187617l0.000541997 0 0 -0.000125053c0,-0.000268702 -7.40832e-005,-0.000451651 -0.000222325,-0.000548923 -0.000148242,-9.72718e-005 -0.000412276,-0.000145908 -0.000792178,-0.000145908 -0.000203804,0 -0.000433131,2.08547e-005 -0.000687905,6.24889e-005 -0.000254774,4.17094e-005 -0.000558184,0.000118127 -0.000910229,0.000229327 -0.000287223,9.26793e-005 -0.000532736,9.96057e-005 -0.00073654,2.08547e-005 -0.000203804,-7.8751e-005 -0.000358972,-0.000206138 -0.00046558,-0.000382161 -0.000106532,-0.000176023 -0.000157427,-0.000370567 -0.000152834,-0.000583706 4.66784e-006,-0.000213064 7.64171e-005,-0.00041461 0.000215398,-0.000604486 0.000138981,-0.000189951 0.000352046,-0.000335859 0.000639269,-0.000437799 0.000444725,-0.000157502 0.000852333,-0.0002617 0.00122297,-0.00031267 0.000370567,-5.09698e-005 0.000708684,-7.64171e-005 0.00101443,-7.64171e-005 0.00121371,0 0.00211702,0.000257108 0.00270991,0.000771248 0.000592967,0.000514216 0.00088945,0.00132258 0.00088945,0.0024251l0 0.00251529c0,0.000472506 -0.000113534,0.000833888 -0.000340527,0.00108399 -0.000226917,0.000250181 -0.000558184,0.000375234 -0.000993573,0.000375234 -0.00077825,0 -0.00121831,-0.000375234 -0.00132025,-0.0011257 -0.00010194,0.000352121 -0.000305744,0.000632342 -0.000611487,0.000840814 -0.000305744,0.000208472 -0.000685571,0.00031267 -0.00113956,0.00031267zm0.000680978 -0.00184832c0.000268702,0 0.000502621,-8.80114e-005 0.000701758,-0.000264034 0.000199211,-0.000176023 0.000298817,-0.000407608 0.000298817,-0.000694831l0 -0.0002224 -0.00055585 0c-0.000361381,0 -0.000643936,5.56377e-005 -0.000847741,0.000166838 -0.000203804,0.000111125 -0.000305744,0.000259366 -0.000305744,0.00044465 0,0.000166762 5.78963e-005,0.00030341 0.000173689,0.000409942 0.000115868,0.000106608 0.000294149,0.000159836 0.00053507,0.000159836zm0.00737926 0.00184832c-0.000546589,0 -0.00102836,-9.96057e-005 -0.0014453,-0.000298817 -0.000416869,-0.000199136 -0.000741133,-0.000472431 -0.000972794,-0.000819884 -0.000231585,-0.000347453 -0.000347378,-0.000743467 -0.000347378,-0.00118819 0,-0.000500287 0.000129721,-0.000894043 0.000389087,-0.00118127 0.000259442,-0.000287223 0.00067631,-0.000493361 0.00125076,-0.000618414 0.000574371,-0.000125053 0.00132951,-0.000187617 0.00226518,-0.000187617l0.000541997 0 0 -0.000125053c0,-0.000268702 -7.40832e-005,-0.000451651 -0.000222325,-0.000548923 -0.000148242,-9.72718e-005 -0.000412276,-0.000145908 -0.000792178,-0.000145908 -0.000203804,0 -0.000433131,2.08547e-005 -0.000687905,6.24889e-005 -0.000254774,4.17094e-005 -0.000558184,0.000118127 -0.000910229,0.000229327 -0.000287223,9.26793e-005 -0.000532736,9.96057e-005 -0.00073654,2.08547e-005 -0.000203804,-7.8751e-005 -0.000358972,-0.000206138 -0.00046558,-0.000382161 -0.000106532,-0.000176023 -0.000157427,-0.000370567 -0.000152834,-0.000583706 4.66784e-006,-0.000213064 7.64171e-005,-0.00041461 0.000215398,-0.000604486 0.000138981,-0.000189951 0.000352046,-0.000335859 0.000639269,-0.000437799 0.000444725,-0.000157502 0.000852333,-0.0002617 0.00122297,-0.00031267 0.000370567,-5.09698e-005 0.000708684,-7.64171e-005 0.00101443,-7.64171e-005 0.00121371,0 0.00211702,0.000257108 0.00270991,0.000771248 0.000592967,0.000514216 0.00088945,0.00132258 0.00088945,0.0024251l0 0.00251529c0,0.000472506 -0.000113534,0.000833888 -0.000340527,0.00108399 -0.000226917,0.000250181 -0.000558184,0.000375234 -0.000993573,0.000375234 -0.00077825,0 -0.00121831,-0.000375234 -0.00132025,-0.0011257 -0.00010194,0.000352121 -0.000305744,0.000632342 -0.000611487,0.000840814 -0.000305744,0.000208472 -0.000685571,0.00031267 -0.00113956,0.00031267zm0.000680978 -0.00184832c0.000268702,0 0.000502621,-8.80114e-005 0.000701758,-0.000264034 0.000199211,-0.000176023 0.000298817,-0.000407608 0.000298817,-0.000694831l0 -0.0002224 -0.00055585 0c-0.000361381,0 -0.000643936,5.56377e-005 -0.000847741,0.000166838 -0.000203804,0.000111125 -0.000305744,0.000259366 -0.000305744,0.00044465 0,0.000166762 5.78963e-005,0.00030341 0.000173689,0.000409942 0.000115868,0.000106608 0.000294149,0.000159836 0.00053507,0.000159836zm-0.0201228 0.0145476c-0.000481767,0 -0.000852408,-0.000132055 -0.00111177,-0.000396089 -0.000259442,-0.000264034 -0.000389163,-0.000641527 -0.000389163,-0.00113263l0 -0.00701795c0,-0.000491027 0.000129721,-0.00086852 0.000389163,-0.00113263 0.000259366,-0.000264034 0.000630008,-0.000396014 0.00111177,-0.000396014 0.000481691,0 0.000849999,0.000131979 0.00110477,0.000396014 0.000254774,0.00026411 0.000382161,0.000641603 0.000382161,0.00113263l0 0.00222355 0.00347423 0 0 -0.00222355c0,-0.000491027 0.000129721,-0.00086852 0.000389163,-0.00113263 0.000259366,-0.000264034 0.000630008,-0.000396014 0.00111177,-0.000396014 0.000481767,0 0.000849999,0.000131979 0.00110477,0.000396014 0.000254774,0.00026411 0.000382161,0.000641603 0.000382161,0.00113263l0 0.00701795c0,0.000491102 -0.000127387,0.000868595 -0.000382161,0.00113263 -0.000254774,0.000264034 -0.000623006,0.000396089 -0.00110477,0.000396089 -0.000481767,0 -0.000852408,-0.000132055 -0.00111177,-0.000396089 -0.000259442,-0.000264034 -0.000389163,-0.000641527 -0.000389163,-0.00113263l0 -0.00234853 -0.00347423 0 0 0.00234853c0,0.000491102 -0.000125053,0.000868595 -0.000375234,0.00113263 -0.000250106,0.000264034 -0.000620673,0.000396089 -0.0011117,0.000396089zm0.0119653 2.77812e-005c-0.00089871,0 -0.00156343,-0.000250181 -0.00199422,-0.000750469 -0.000430797,-0.000500287 -0.000646195,-0.00126461 -0.000646195,-0.00229296l0 -0.0026682c0,-0.000472506 0.000125053,-0.000833888 0.000375159,-0.00108399 0.000250181,-0.000250181 0.000606895,-0.000375234 0.00107007,-0.000375234 0.000463246,0 0.000819959,0.000125053 0.00107007,0.000375234 0.000250181,0.000250106 0.000375234,0.000611487 0.000375234,0.00108399l0 0.00275154c0,0.000509623 0.000217732,0.000764397 0.000653197,0.000764397 0.000259366,0 0.000472506,-9.96057e-005 0.000639269,-0.000298817 0.000166762,-0.000199211 0.000250106,-0.000456319 0.000250106,-0.000771248l0 -0.00244587c0,-0.000472506 0.000125053,-0.000833888 0.000375234,-0.00108399 0.000250181,-0.000250181 0.00060682,-0.000375234 0.00107007,-0.000375234 0.000463246,0 0.000819959,0.000125053 0.00107007,0.000375234 0.000250181,0.000250106 0.000375234,0.000611487 0.000375234,0.00108399l0 0.00422462c0,0.000972794 -0.000467838,0.00145923 -0.00140359,0.00145923 -0.000759729,0 -0.00121371,-0.000324265 -0.00136196,-0.000972794 -0.000222325,0.000324265 -0.000491027,0.000572112 -0.000805956,0.000743467 -0.000315004,0.00017143 -0.000685646,0.000257108 -0.00111177,0.000257108zm0.00735155 -2.77812e-005c-0.000463246,0 -0.000819959,-0.000125053 -0.00107007,-0.000375234 -0.000250181,-0.000250106 -0.000375234,-0.000611487 -0.000375234,-0.00108399l0 -0.00715693c0,-0.000472506 0.000125053,-0.000833812 0.000375234,-0.00108392 0.000250106,-0.000250181 0.00060682,-0.000375234 0.00107007,-0.000375234 0.00046317,0 0.000819884,0.000125053 0.00107007,0.000375234 0.000250106,0.000250106 0.000375159,0.000611412 0.000375159,0.00108392l0 0.00428026 2.78565e-005 0 0.00137581 -0.00184824c0.000250106,-0.0003336 0.000493286,-0.00057678 0.000729539,-0.000729614 0.000236253,-0.00015291 0.000553591,-0.000229327 0.000951939,-0.000229327 0.000398423,0 0.000706425,9.72718e-005 0.000924158,0.000291815 0.000217732,0.000194619 0.000333525,0.000437799 0.000347453,0.000729614 1.3853e-005,0.000291815 -9.50132e-005,0.000585965 -0.000326598,0.000882448l-0.00115341 0.00150086 0.00136188 0.00193173c0.000222325,0.000305744 0.000310336,0.000597559 0.000264034,0.000875522 -4.6302e-005,0.000277887 -0.000187617,0.000502546 -0.00042387,0.000673976 -0.000236253,0.00017143 -0.000534995,0.000257108 -0.000896376,0.000257108 -0.000435389,0 -0.000782842,-7.64171e-005 -0.00104221,-0.000229327 -0.000259442,-0.000152834 -0.000509623,-0.000400682 -0.000750469,-0.000743467l-0.00136188 -0.00191781 -2.78565e-005 0 0 0.00143137c0,0.000972794 -0.000481767,0.00145923 -0.00144522,0.00145923zm0.0106312 2.77812e-005c-0.00078751,0 -0.00147767,-0.000143574 -0.00207064,-0.000430797 -0.000592967,-0.000287223 -0.00105388,-0.000701833 -0.00138274,-0.00124375 -0.000328932,-0.000541997 -0.000493361,-0.0011836 -0.000493361,-0.00192473 0,-0.000750469 0.000164429,-0.00139441 0.000493361,-0.00193173 0.000328857,-0.000537329 0.000789769,-0.000949605 0.00138274,-0.00123683 0.000592967,-0.000287223 0.00128313,-0.000430797 0.00207064,-0.000430797 0.000796771,0 0.00148934,0.000143574 0.00207764,0.000430797 0.000588299,0.000287223 0.00104688,0.000699499 0.00137581,0.00123683 0.000328857,0.000537329 0.000493286,0.00118127 0.000493286,0.00193173 0,0.000741133 -0.000164429,0.00138274 -0.000493286,0.00192473 -0.000328932,0.000541922 -0.00078751,0.000956531 -0.00137581,0.00124375 -0.000588299,0.000287223 -0.00128087,0.000430797 -0.00207764,0.000430797zm0 -0.00211235c0.000296483,0 0.000544331,-0.0001112 0.000743467,-0.000333525 0.000199211,-0.000222325 0.000298817,-0.00060682 0.000298817,-0.00115341 0,-0.000546665 -9.96057e-005,-0.000931159 -0.000298817,-0.00115348 -0.000199136,-0.000222325 -0.000446984,-0.000333525 -0.000743467,-0.000333525 -0.000296483,0 -0.000544255,0.0001112 -0.000743467,0.000333525 -0.000199211,0.000222325 -0.000298817,0.00060682 -0.000298817,0.00115348 0,0.000546589 9.96057e-005,0.000931084 0.000298817,0.00115341 0.000199211,0.000222325 0.000446984,0.000333525 0.000743467,0.000333525zm0.00626756 -0.00148693c-0.000287223,0 -0.00051655,-9.03453e-005 -0.000687905,-0.000271036 -0.00017143,-0.000180691 -0.000280296,-0.000433131 -0.000326598,-0.000757395l-0.000514216 -0.0035715c-8.33436e-005,-0.000555925 1.15943e-005,-0.00101217 0.000284889,-0.00136888 0.000273295,-0.000356638 0.000687905,-0.000534995 0.00124383,-0.000534995 0.00055585,0 0.000968126,0.000178357 0.00123683,0.000534995 0.000268627,0.000356714 0.000361306,0.000812958 0.000277887,0.00136888l-0.00051414 0.0035715c-4.63773e-005,0.000324265 -0.00015291,0.000576704 -0.000319672,0.000757395 -0.000166762,0.000180691 -0.000393755,0.000271036 -0.000680903,0.000271036zm0 0.00351594c-0.000481767,0 -0.000861669,-0.000141315 -0.00113956,-0.00042387 -0.000277963,-0.00028263 -0.000416944,-0.000650863 -0.000416944,-0.00110485 0,-0.000453985 0.000138981,-0.000819884 0.000416944,-0.00109785 0.000277887,-0.000277963 0.000657789,-0.000416944 0.00113956,-0.000416944 0.000491027,0 0.000870854,0.000138981 0.00113956,0.000416944 0.000268627,0.000277963 0.000403016,0.000643861 0.000403016,0.00109785 0,0.000453985 -0.000134389,0.000822218 -0.000403016,0.00110485 -0.000268702,0.000282555 -0.000648529,0.00042387 -0.00113956,0.00042387zm-0.0676016 -0.0660964c-0.00103205,-0.00102181 -0.00196388,-0.00220578 -0.00282495,-0.00351376l-0.0248507 -2.56731e-005c0.00139696,0.001445 0.0027986,0.00288631 0.00420384,0.00432438 0.00136677,-0.000299269 0.00299058,-0.00038329 0.00436985,-0.000461288 0.00229161,-0.000129495 0.00459421,-0.000187918 0.00688891,-0.00023151 0.00406803,-7.72453e-005 0.00814125,-9.74224e-005 0.012213,-9.21523e-005zm0.0354209 0.000349561c5.97785e-005,-5.81975e-005 0.000119557,-0.000116395 0.000179336,-0.000174517 0.00130933,-0.00127364 0.00262551,-0.00254653 0.0039633,-0.00379232 -0.00247674,5.30026e-005 -0.00495461,7.88263e-005 -0.00743151,0.000124225 -0.00216708,3.9752e-005 -0.00433876,8.51505e-005 -0.00650381,0.000184982 -0.000714406,3.29008e-005 -0.00177152,5.59388e-005 -0.00265457,0.000151404 -0.0010459,0.00118465 -0.00214615,0.00231879 -0.00332953,0.00332185 0.00487631,6.50487e-005 0.00975225,0.000134615 0.0146289,0.000174894l0.00114784 9.48626e-006zm-0.0566512 -0.0137051l0.0124207 2.08547e-005c-0.00101533,-0.00176068 -0.00194416,-0.00356036 -0.00278188,-0.0054162 -0.000150049,9.92293e-005 -0.000303636,0.000200416 -0.000459783,0.000305668 -0.00184937,0.00124737 -0.00393522,0.00198835 -0.0058467,0.00310946 -0.0010791,0.000632794 -0.00216746,0.00126122 -0.00323165,0.00191856 -3.19973e-005,1.97254e-005 -6.5651e-005,4.0279e-005 -0.00010066,6.16607e-005zm0.0474682 2.99645e-005c0.00269485,-4.7356e-005 0.00539046,-9.74977e-005 0.00808056,-0.000187391 0.000159685,-5.34543e-006 0.000354756,-1.05403e-005 0.000574596,-1.64127e-005 -0.000233844,-0.000320124 -0.000463472,-0.000643936 -0.00068798,-0.00097317 -0.00137724,-0.00201952 -0.00250324,-0.00412871 -0.00337703,-0.00635482 -0.00235335,0.00174126 -0.00371109,0.00457419 -0.00459015,0.00753179zm-0.00368504 0.0807742c0.00107948,-0.00020531 0.00227783,8.79361e-005 0.00334918,0.000448715 0.000318769,0.00010736 0.000637688,0.000220669 0.000949981,0.000345646 0.000181519,7.26527e-005 0.000361532,0.000150124 0.00053635,0.000237759 0.000111577,5.59388e-005 0.00023806,0.000114212 0.000463321,0.000266669 -0.000109544,-9.38839e-005 -0.000216001,-0.000193188 -0.000318919,-0.000297989 -0.00101488,-0.00103287 -0.001491,-0.00239242 -0.001491,-0.0038262l0 -0.00701795c0,-0.00100201 0.000232564,-0.00196772 0.000719074,-0.0028111 -0.000486284,-0.000830349 -0.000719074,-0.00178394 -0.000719074,-0.00277292l0 -0.00719864c0,-0.00137483 0.000434712,-0.00268529 0.00137957,-0.00370416 0.000390292,-0.000420859 0.000837953,-0.000761837 0.00132627,-0.00101985l-0.00271157 -0.00589089c-0.000488241,-0.00107925 -0.000673826,-0.00226149 -0.000422289,-0.00342861 0.000157954,-0.000733604 0.000467161,-0.00140961 0.000908648,-0.00199129 -0.000323512,-0.000721483 -0.000480637,-0.00151434 -0.000480637,-0.00233196l0 -0.00334127c-0.00474577,0.00460054 -0.00948107,0.00923345 -0.0141101,0.0139347l0 0.0299492c0.0011717,2.24358e-005 0.00234326,4.87865e-005 0.00351489,8.29671e-005 0.0017862,5.20992e-005 0.0035773,0.000116771 0.00536042,0.000234672 0.000546288,3.61381e-005 0.00114377,7.44596e-005 0.00174592,0.000132507z"/>
 </g>
</svg>
