<?xml version="1.0" encoding="UTF-8"?>
<!DOCTYPE svg PUBLIC "-//W3C//DTD SVG 1.1//EN" "http://www.w3.org/Graphics/SVG/1.1/DTD/svg11.dtd">
<!-- Creator: CorelDRAW -->
<svg xmlns="http://www.w3.org/2000/svg" xml:space="preserve" width="1in" height="2in" style="shape-rendering:geometricPrecision; text-rendering:geometricPrecision; image-rendering:optimizeQuality; fill-rule:evenodd; clip-rule:evenodd"
viewBox="0 0 0.0872042 0.0865009"
 xmlns:xlink="http://www.w3.org/1999/xlink">
 <defs>
  <style type="text/css">
   <![CDATA[
    .fil0 {fill:#DA251D}
   ]]>
  </style>
 </defs>
 <g id="Layer_x0020_1">
  <metadata id="CorelCorpID_0Corel-Layer"/>
  <path class="fil0" d="M0.00890761 0.0106449c-0.00111326,-0.00049191 -0.00156939,-0.00027964 -0.00199393,-0.000492794 0.000620686,-0.00219824 0.00278072,-0.00318449 0.00358319,-0.00215848 -0.000388536,0.000820366 -0.000855486,0.0021333 -0.00158927,0.00265128zm0.0394085 0.0120698c-0.000760727,-0.00234535 -0.000262411,-0.00740582 -0.000262411,-0.0094543 4.32934e-005,-0.000647634 8.63659e-005,-0.00129505 0.000129659,-0.00194268 0.000191065,0.000135623 0.000697333,-0.000744602 0.001432,-0.00109713 0.001487,-0.000713678 0.00508918,-0.00122878 0.00547485,-0.00157933 0.000647634,-0.000172732 0.000647634,-0.000172732 0.00172688,-0.000906511 0.000481749,0.00165222 0.003156,0.00424982 0.00470528,0.00470528 0,0.000734 -0.00103595,0.00241758 -0.00172666,0.00267646 -0.000777072,-0.000345243 -0.00211519,-0.00107902 -0.00297863,-0.00116539 -0.000215804,-0.000690706 -0.00155414,-0.00146778 -0.00202905,-0.00224485 -0.000215804,-4.30725e-005 -0.000215804,-4.30725e-005 -0.000906511,-0.000906511 -0.000906511,-0.000345464 -0.00142449,-0.00060434 -0.00224463,-0.000129438 0.00138119,0.00030217 0.00168358,0.000258877 0.00202883,0.00164029 -0.000140483,0.0018477 -0.000108013,0.00906731 0.000172732,0.0110944 -0.00165929,4.04219e-005 -0.00331879,8.08438e-005 -0.00494251,0.000121487 -0.000664863,1.54619e-005 -0.000419239,-0.000315202 -0.000579822,-0.000811751zm0.0211495 -0.00759821c0.000172511,-0.000215804 0.000345243,-0.000431609 0.000561047,-0.00060434 0.00272572,0.00140107 0.00449522,0.00915434 0.0112671,0.0106628 0,8.63659e-005 0,0.000172732 0,0.00030217 -0.000172511,4.32934e-005 -0.000345243,0.000129438 -0.000474681,0.000215804 -0.0037049,0.0018731 -0.00982296,0.000588658 -0.0113535,-0.0105764zm-0.0390248 0.0128645c0,-0.000302391 4.32934e-005,-0.000561268 8.63659e-005,-0.000820366 0.00146778,-0.000172732 0.00176995,-0.000863438 0.00202905,-0.00224463 -0.000216025,-0.00962682 -0.000216025,-0.00962682 -0.000345464,-0.0105333 -0.000474902,-0.000474902 -0.00129505,-0.000431609 -0.00185631,-0.000129438 -8.6145e-005,-8.63659e-005 -0.000129438,-0.000129659 -0.000172511,-0.000172732 0.000814181,-0.000904743 0.0036097,-0.00378088 0.00466221,-0.0040148 0.000711249,0.000415042 0.0018466,0.00115015 0.00263317,0.00138141 0,0.000172732 4.32934e-005,0.000345464 8.63659e-005,0.000561268 -0.000690706,0.000517974 -0.00120868,4.30725e-005 -0.00185631,0.000345464 0.000734,0.000733779 0.00112254,0.000647413 0.00207212,0.000561047 0.000649622,-0.000909382 0.00500878,-0.00358363 0.00595748,-0.00405787 0.00112231,0.000561268 0.00202883,0.00259009 0.00341024,0.00284919 -0.000140924,0.0035949 -8.70285e-005,0.00669501 4.35143e-005,0.0101099 1.94378e-005,0.000512011 -0.000104478,0.000888398 0.000271025,0.00120316 0.000132531,0.000110663 0.000278977,0.000256447 0.000462532,0.000299299 -0.000274118,0.000331327 -0.00532553,0.000824341 -0.00634579,0.000863438 -0.000788116,-0.00234778 0.000458115,-0.0100805 -0.000890165,-0.0113049 -0.000731791,-0.000664642 -0.00194091,0.000837815 -0.00239063,0.000987575 -0.000747253,0.00278491 -0.000172732,0.00840046 -0.000172732,0.0114396 -0.00234822,0.000714783 -0.00548192,0.00243194 -0.00768413,0.00267668zm-0.00733867 0.00345331c0,-0.00373715 2.18676e-005,-0.00664841 7.42172e-005,-0.0108839 3.55624e-005,-0.00285648 -0.00109758,-0.00205091 -0.0020169,-0.00215296 0.00224021,-0.0018815 0.00394279,-0.00360903 0.00508256,-0.00387454 0.000734662,-0.000171186 0.00179248,0.00233188 0.00247214,0.00223403 4.30725e-005,0.000215804 0.000129438,0.000474902 0.000215804,0.000733779 -0.000543155,0.0012237 0.000339279,0.0106625 0,0.0107924 -0.000647634,0.00133812 -0.00315136,0.00107902 -0.0040148,0.002331 -0.00030217,0 -0.00133812,0.000734 -0.00181302,0.000820145zm-0.0143752 -0.00048948c-0.000321166,-0.000910928 -0.000259539,-0.00393661 -0.00019482,-0.00521752 2.20885e-005,-0.000436026 0.00105693,-0.0016838 0.00193451,-0.00286642 0.00211166,-0.00284588 0.00237694,-0.00115147 0.00426064,0.000241869 -0.00154862,0.00211166 -0.00522989,0.00568513 -0.00600033,0.00784207zm0.0604795 -0.00184152c0.00391474,-0.00467171 0.00792534,-0.00109713 0.0101291,0.00222939 0.00186427,0.00281385 0.00206814,0.00482456 0.00217395,0.00821735 0.000841129,0.000696449 0.00252471,-0.00174543 0.00271975,-0.00289226 -0.000534762,0.00323751 -0.00152918,0.00423613 -0.0033665,0.00402253 -0.00267005,-0.00411199 -0.00708819,-0.00888023 -0.0116563,-0.011577zm-0.0236135 0.0274986c4.32934e-005,-8.63659e-005 8.63659e-005,-0.000172732 0.000172732,-0.000215804 -0.000527914,-0.00105627 -0.000147993,-0.0127287 0,-0.0129507 -0.000863438,-0.00107924 -0.000647413,-0.00159722 -0.00215848,-0.00159722 0,-0.000129659 0,-0.000259098 0,-0.000388536 0.000992876,-0.000474902 0.00298813,-0.00151218 0.00372191,-0.00224596 0.00151836,0.00101209 0.00288056,0.00316903 0.00265901,0.00449876 -0.000783257,5.52212e-005 -0.00124844,0.000164559 -0.00193451,0.000164559 0.00136242,0.00136242 0.0042887,-0.000904081 0.00556894,-0.0015442 0.00112762,0.00169153 0.00197625,0.00391827 0.00242244,0.00525683 -0.000854603,0.000394279 -0.00180396,0.00175957 -0.00294064,0.00159722 -0.000608979,-0.0015833 -0.00158087,-0.00299387 -0.00198575,-0.00474858 -0.000345243,8.63659e-005 -0.000690706,0.000172732 -0.00103595,0.000258877 0.000692252,0.00314407 -0.00066663,0.00901055 0,0.0116556 -0.000485504,0.000181567 -0.00358606,3.51207e-005 -0.0044897,0.000259098zm-0.0131232 0.00276283c-0.000561268,-0.00103617 -0.00103617,-0.00233122 -0.00194268,-0.00323773 0.000241648,-0.00233696 -0.000461649,-0.00405898 -0.000164117,-0.00661351 0.000275222,-0.00236391 0.000755646,-0.00467414 -0.000526589,-0.00547374 -0.000517974,8.63659e-005 -0.00103595,0.000215804 -0.00151085,0.000345243 0.000561268,-0.00116539 0.00315136,-0.00315136 0.00440311,-0.00366934 0.000172732,0.000388536 0.000820366,0.00103617 0.0012089,0.00116561 0.000886852,0.00140836 0.00105252,0.00284654 0.00108189,0.00454404 4.81529e-005,0.00278513 -0.000769341,0.00724457 0.00060169,0.00896792 0.000517974,-0.000259098 0.00107924,-0.000474902 0.00164029,-0.000690706 0.000129659,-0.000518195 0,-0.00112254 0.000129659,-0.00332409 -0.000431829,-0.00198575 0.000992876,-0.00612999 -0.000906731,-0.00716594 0.00142471,-0.000604561 0.00215848,-0.00112254 0.00297863,-0.00237429 0.00103617,0.00120868 0.00176995,0.0030217 0.00341046,0.0032808 0,0.000258877 4.30725e-005,0.000517974 8.63659e-005,0.000777072 -0.00167298,-0.00123099 -0.00135954,0.00433331 -0.00116141,0.00734176 6.91369e-005,0.00104876 0.000335745,0.00274847 0.000168535,0.00375261 -0.00278403,0.000389861 -0.00651389,0.000802032 -0.00949716,0.00237429zm-0.0115693 0.000777072c-0.000371749,-0.00390325 -8.63659e-005,-0.00770401 -8.63659e-005,-0.0115693 0.00120161,0 0.00232437,0.000742393 0.00258391,0.00203015 0.000594842,0.00294461 -0.000470705,0.00887934 0.000481087,0.0106184 -0.00137545,0.00143442 -0.00118991,-0.00167121 -0.00297863,-0.00107924zm-0.000949804 0.00496438c-0.000391849,-0.000195925 -0.00227114,-0.00111282 -0.00237429,-0.000906511 -0.000803357,-0.00338925 -0.000403335,-0.0131029 -0.000388536,-0.0157568 0.00172688,-0.000733779 0.00388536,-0.00159722 0.00522348,-0.00293534 0.000992876,-0.000474902 0.00142449,-0.00198575 0.00241758,-0.00228792 0.00066155,-0.000489039 0.00294395,0.0035706 0.00271953,0.00440311 -0.000935005,0.00174963 0.00287503,0.010196 -0.00263339,0.014807 -0.00122701,0.000427633 0.000147772,-5.9418e-005 -0.00496438,0.00267646zm-0.0170342 0.011446c-0.00201248,-0.00314142 -0.000329781,-0.0181355 -0.000492352,-0.022411 -0.000141145,-0.00302921 0.00712751,-0.00786857 0.0107491,-0.00946513 0.000647413,0.00116539 0.00120868,0.00316241 0.00211519,0.00406892 -0.000388536,0.00164051 -0.00319443,0.00349682 -0.00418731,0.00513711 -0.000172732,0 -0.00030217,0 -0.000431829,4.32934e-005 -0.000343917,-0.000424982 -0.000631067,-0.00111569 -0.00098117,-0.00172931 -0.000822354,-0.00144105 -0.00110663,-0.00121531 -0.00204053,-0.000904081 -3.46789e-005,0.00537103 -0.000141145,0.0135727 0.000258877,0.0185627 0.000561268,0.000388536 0.00112254,0.000777072 0.00172688,0.00120868 0.00446872,-0.000603899 0.00669678,-0.0028472 0.0105331,-0.00487802 0.00810868,-0.0050026 0.0159256,-0.00787984 0.0238348,-0.00845635 0.00470462,-0.000342592 0.00884577,0.000262411 0.0130748,0.00103131 -0.000276327,0.0020719 0.000474681,0.00439605 0.000474681,0.0060867 -0.000258877,4.32934e-005 -0.000474681,8.63659e-005 -0.000690706,0.000172732 -0.00441946,-0.00230294 -0.0112519,-0.00216379 -0.0141779,-0.00175625 -0.00491755,0.000684963 -0.00327219,0.0056087 0.00186051,0.00466818 0.00160075,-0.000293335 0.0103562,-0.00202529 0.0134399,-0.00121398 -0.000172732,0.000690706 0.000215804,0.00153979 8.63659e-005,0.00214413 -0.00505671,-0.000685184 -0.00967784,0.00121288 -0.0147206,0.00133812 -0.00327329,0.000891049 -0.00544724,-0.000138274 -0.00764681,-0.00130454 -0.00389641,-0.00206638 -0.0100405,-0.00202617 -0.0145852,0.00078657 0.00186979,0.00172975 0.00466067,0.00230449 0.00765542,0.001339 0.00426837,-0.00137655 0.00907041,-0.00104434 0.0106051,0.00120802 -0.000863438,-0.000215804 -0.00172688,-0.000388536 -0.00254702,-0.000561268 -8.63659e-005,4.32934e-005 -0.000172732,8.63659e-005 -0.000215804,0.000129438 -0.00468364,-0.00186382 -0.0103851,0.00442498 -0.0152819,0.000388536 -0.000359821,-0.00013474 -0.000827213,-0.000286046 -0.00130167,-0.000375725 -0.0010439,-0.00019725 -0.00212292,-9.78519e-005 -0.00216953,0.00112187 -3.09239e-005,0.000814181 0.000318957,0.00140924 0.00134386,0.00148655 0.000805566,6.05224e-005 0.00179292,0.000206527 0.00234314,0.000400685 0.000820366,-0.000172732 0.000820366,-0.000172732 0.000863438,-4.30725e-005 -0.00235839,0.00131007 -0.00765299,0.000450384 -0.0101457,0.000906952 -0.00146601,0.000268596 -0.00288188,0.000774642 -0.00427279,0.00172621 -0.000948037,0 -0.00452946,-3.31327e-006 -0.00507637,-0.000857032zm0.0567928 0.00962041c-0.000155724,-9.47595e-005 -0.000311226,-0.000191065 -0.000465846,-0.000288917 -0.00314275,-0.00198575 -0.00601425,-0.00453388 -0.00967872,-0.00575471 -4.32934e-005,-8.63659e-005 -8.63659e-005,-0.000129659 -8.63659e-005,-0.000172732 0.00334486,-0.000807333 0.00665548,0.00239152 0.0102064,0.0028874 0.00260003,0.000362693 0.00199172,-0.00216047 0.000153957,-0.0031465 -0.000668397,0.000668397 -0.00575449,-7.31128e-005 -0.00634579,-0.000992876 0.000717433,-0.000419018 0.00313369,-0.00120338 0.00433994,-0.000801369 0.00750257,0.00250108 0.00475786,-0.00515854 0.00032448,-0.00545475 -0.00495511,-0.000330885 -0.0100613,0.00205798 -0.0151034,0.000646308 0.00219051,-0.000426528 0.00432293,-0.00046187 0.00620067,-0.000785908 0.000433155,-7.48799e-005 0.000853277,-0.000165001 0.00125683,-0.000278977 0.00568999,-0.00160605 0.00936794,-0.00040687 0.00859352,-0.00187266 -0.000591087,-0.00402143 -0.00169772,-0.0175515 -0.000949804,-0.0231385 -0.00060434,-0.000259098 -0.00116539,-0.000474902 -0.00172666,-0.000690706 -4.30725e-005,-0.000777072 -8.63659e-005,-0.00151085 -8.63659e-005,-0.00224485 0.00164206,0.000169198 0.00431785,-0.000187752 0.00496438,-0.003065 0.0022475,-0.000323154 0.00131956,0.002073 0.00133834,0.00427368 0.00308289,-0.000544922 0.0055928,0.00170678 0.00805102,0.0033813 0.00607919,0.0041407 0.00853896,0.00287128 0.00936374,-0.00146005 -4.32934e-005,-8.63659e-005 -1.76708e-005,0.000625766 -6.09642e-005,0.000582694 8.63659e-005,-4.32934e-005 0.000172732,-4.32934e-005 0.000259098,-4.32934e-005 0.00201226,0.00374908 -0.000218234,0.00687923 -0.00358672,0.00749594 -0.00536993,0.000982274 -0.0126048,-0.00632349 -0.0135966,-0.00525683 0,0.00463703 -0.000689381,0.00882986 -0.000333757,0.0135632 0.0002697,0.00359114 0.00100944,0.00707692 0.00285847,0.00994378 0.00124159,0.00192523 0.00323265,0.00421603 0.00536374,0.00516826 0.00108145,0.000483296 0.00226804,0.000835165 0.00286266,0.000901209 0.00139997,-0.00126942 0.0013644,-0.00217262 0.00305572,-0.00210724 0.00160009,6.20686e-005 0.00827213,-0.00137766 0.00592346,-0.00479982 0,0.000474902 -0.000388536,0.00284919 -0.00138141,0.00237429 0.000690706,-0.00276283 0.000652272,-0.00675377 -0.000513336,-0.00938693 0.00330421,0.000674361 0.00666586,0.00600541 0.00552278,0.00897918 -0.000422994,0.00110001 -0.00209288,0.00284566 -0.00357877,0.00318184 -0.0049984,0.00113115 -0.00684544,0.00073665 -0.0104099,0.00551439 -0.00133834,-0.000777072 -0.00250373,-0.000561268 -0.00392843,-0.000172732 -0.00309062,0.00316439 -0.00459352,0.00386438 -0.00880645,0.00302192zm-0.023854 -0.0809233c-0.0101713,0.00346303 -0.0266935,0.0106204 -0.0358553,0.00195571 0.00863195,0.0115372 0.0267147,0.00332299 0.039211,-0.000627754 0.0102886,-0.00325253 0.0220039,-0.00716373 0.0328628,-0.00389641 0.00574653,0.00172886 0.0124742,0.00851775 0.0120691,0.0148099 -0.00107792,0.00149428 -0.00251742,0.000997294 -0.00396863,-0.000236126 -0.00241891,-0.00205555 -0.00487227,-0.00647126 -0.00574433,-0.00681164 0,8.63659e-005 0,0.000486167 0,0.000572533 -0.000785908,0.00061163 -0.00173461,0.00131316 -0.00272042,0.0017134 -0.00216865,0.000880667 -0.00467988,0.000725164 -0.0057081,0.00138561 -0.0072406,0.00465073 0.00107416,0.0128358 0.0023416,0.0142548 -0.000172511,0.000129659 -0.000345243,0.000259098 -0.000517974,0.000388536 -0.000585786,-0.00097631 -0.00252847,-0.00183776 -0.0037049,-0.00231156 -0.00182318,-0.000735104 -0.0050545,-0.0013982 -0.00757038,-0.00176995 -0.00433,-0.000639903 -0.00878304,-0.000227732 -0.013106,0.000322933 -0.00511304,0.000650947 -0.013159,0.00411817 -0.0185192,0.00676017 -0.0012544,0.000618477 -0.00282843,0.00116163 -0.00339279,-0.000535645 -0.000177812,-0.000534762 -0.000639903,-0.00658037 -0.00308708,-0.00842719 -0.00114772,-0.00086653 -0.00167188,-0.000139599 -0.00190425,-0.00176597 0.00163123,-0.00153404 0.0027626,-0.00280038 0.00345508,-0.00379701 0.00130631,-0.00188039 0.00097366,-0.00218344 -0.000538075,-0.00311514 -0.00192302,-0.0011846 -0.00306367,-0.00152742 -0.00444575,0.000107571 -0.0026325,0.00311381 -0.00627555,0.0118993 -0.0103427,0.0101717 0.00474571,-3.93175e-005 0.00445193,-0.00525131 0.00394964,-0.0106195 -0.0011274,-0.000516428 -0.00253178,-0.00095378 -0.00378618,-0.00121663 -0.0018477,0.00242266 -0.002881,0.0066621 -0.0031412,0.00955017 -0.000455685,0.00505605 0.000552653,0.0171296 4.2189e-005,0.0223164 4.30725e-005,4.30725e-005 8.63659e-005,8.63659e-005 0.000172732,0.000172732 0.00296317,-0.000987796 0.00384891,-0.00342614 0.00634579,-0.00384207 0.000905185,-0.00181059 -0.000121487,-0.00572069 0.000259098,-0.00781357 0.00116539,-0.000561268 0.00151085,-0.00263339 0.00293534,-0.00332409 0.000259098,0.000172732 0.000259098,0.000172732 0.000474902,0.000129438 0.00118571,0.00126059 0.00179822,0.00401745 0.00172953,0.00555348 -0.000150643,0.0033548 0.00236457,0.00471346 0.00345066,0.00480711 0.00278779,-0.00185168 0.00890872,-0.00491623 0.0135623,-0.00657596 0.00324877,-0.00115832 0.00641515,-0.00189386 0.00974896,-0.00274847 0.00228638,-0.000304821 0.0138643,-0.0024558 0.0129076,0.00142449 -0.00122414,0.00244961 -0.00656867,0.000302833 -0.00999105,0.000195262 -0.00212734,-6.71489e-005 -0.00748158,-0.000413496 -0.0099926,0.00211144 0.00532619,-0.00192125 0.0133595,0.000978961 0.0190339,0.000715224 0.00252537,-0.000631288 0.00579182,-0.00305815 0.00864123,-0.00281142 0.00315556,0.000273013 0.00434524,0.00234734 0.00689955,0.00311359 -0.00153051,0.00243989 -0.00490806,0.00198686 -0.00687106,0.00123872 -0.00265592,-0.00101209 -0.0053887,-0.00189298 -0.00971164,0.000747032 0.00287172,-0.0006092 0.00464675,-0.000916009 0.00738771,4.30725e-005 0.00141212,0.000977635 0.00286642,0.00215407 0.00474858,0.00168358 8.4157e-005,2.58435e-005 0.000828759,0.000363355 0.0016118,-5.743e-005 0.0072353,-0.00388978 0.00585941,0.00238445 3.71086e-005,0.00146027 4.41769e-007,0.00178563 0.0115169,0.00122746 0.0115176,0.00390701 0.000129438,0 0.000259098,0 0.000431829,0 0.00227158,-0.00283969 0.00527517,-0.00215451 0.00807466,-0.00380452 0.00482456,-0.00284389 0.000122149,-0.0123687 -0.00315357,-0.0150171 0.000992876,-0.00151085 0.00315136,-0.000906511 0.00345353,-0.00323773 0.000602132,-0.000903197 0.000711249,-0.00398918 0.00058667,-0.00520051 -0.000485725,-0.00471478 -0.0072269,-0.0156243 -0.0156,-0.0167713 -0.0112949,-0.00154774 -0.0218481,0.00039207 -0.0345693,0.00472273zm0.0191025 0.0136664c0,0 0.000778839,-0.000835827 0.00122392,-0.000891711 0.000445083,-5.56629e-005 0.00550754,0.00139356 0.00550754,0.00139356l0 0.00518328 -0.00517378 -0.00100326 5.56629e-005 -0.00256381c0,0 0.000278094,-0.00016721 -0.00038942,-0.00016721 -0.000667734,0 -0.00116826,0 -0.00116826,0l-5.56629e-005 -0.00195085zm0.0103862 0.0520605c-0.000894583,-0.00201756 -0.00141344,-0.0043205 -0.00164537,-0.00686001l-6.62654e-007 2.20885e-007 -3.31327e-006 -4.41769e-005 -2.20885e-007 -1.76708e-006c-1.63455e-005,-0.00018223 -3.22492e-005,-0.000366227 -4.55022e-005,-0.000550665l8.83539e-007 -2.20885e-007c-8.34944e-005,-0.00114926 -0.000111547,-0.00234491 -9.14462e-005,-0.00358231 2.8715e-006,-0.000176708 6.84742e-006,-0.00035452 1.17069e-005,-0.000532995l-6.62654e-007 0c2.20885e-005,-0.000712353 0.00118814,-0.000552653 0.0016732,-0.000582694 0.00255851,-0.000160362 0.00487117,-3.99801e-005 0.00687371,0.00044199l2.20885e-007 -2.20885e-007 3.31327e-006 1.10442e-006 5.96389e-006 1.54619e-006 9.05627e-006 2.20885e-006 3.57833e-005 8.83539e-006 4.85946e-006 1.32531e-006 1.10442e-005 2.65062e-006 1.17069e-005 2.8715e-006 2.42973e-006 6.62654e-007 9.27716e-006 2.20885e-006 0 0 1.56828e-005 3.97592e-006 3.09239e-006 6.62654e-007 9.27716e-006 2.65062e-006 3.53415e-006 8.83539e-007 1.41366e-005 3.31327e-006 1.98796e-006 4.41769e-007 2.07632e-005 5.08035e-006 6.18477e-005 1.59037e-005 6.62654e-007 2.20885e-007 9.05627e-006 2.42973e-006 2.54017e-005 6.62654e-006 2.65062e-006 4.41769e-007 9.27716e-006 2.65062e-006 7.39964e-005 1.94378e-005 9.05627e-006 2.42973e-006 1.30322e-005 3.53415e-006 1.47993e-005 3.75504e-006 9.27716e-006 2.42973e-006 1.76708e-006 4.41769e-007 7.28919e-006 2.20885e-006 9.27716e-006 2.42973e-006 9.27716e-006 2.65062e-006 9.05627e-006 2.42973e-006 9.27716e-006 2.65062e-006c5.23497e-005,1.41366e-005 0.00010492,2.76106e-005 0.000156165,4.30725e-005l-2.20885e-007 4.41769e-007c0.00123209,0.000352311 0.00233608,0.000854603 0.00329648,0.00152609l4.41769e-007 -4.41769e-007 3.8213e-005 2.76106e-005 7.73096e-006 5.30123e-006 4.41769e-007 4.41769e-007 1.17069e-005 8.17273e-006 3.31327e-006 2.20885e-006 7.73096e-006 5.52212e-006 5.08035e-005 3.66669e-005 8.39362e-006 5.96389e-006 1.76708e-006 1.32531e-006 7.51008e-006 5.743e-006 7.73096e-006 5.52212e-006 7.73096e-006 5.743e-006 3.02612e-005 2.16467e-005 6.62654e-007 4.41769e-007c7.90767e-005,5.83135e-005 0.000156607,0.000117732 0.000233696,0.000178254l9.93981e-006 7.73096e-006 5.52212e-006 4.19681e-006 9.05627e-006 7.28919e-006 5.96389e-006 4.85946e-006 8.39362e-006 6.40565e-006 6.84742e-006 5.743e-006 1.87752e-005 1.41366e-005 -2.20885e-007 4.41769e-007c0.000106246,8.43779e-005 0.000210061,0.000171186 0.000311668,0.000261086 0.000777293,0.000683417 0.00143531,0.00150334 0.00196411,0.0024728l2.20885e-007 -2.20885e-007 3.09239e-006 6.40565e-006 8.83539e-007 1.98796e-006 4.63858e-006 8.17273e-006 4.19681e-006 8.17273e-006 4.41769e-006 8.17273e-006 6.62654e-007 1.10442e-006 8.17273e-006 1.5241e-005 4.19681e-006 8.17273e-006 4.63858e-006 7.95185e-006 4.41769e-007 1.10442e-006c3.42371e-005,6.40565e-005 6.80325e-005,0.000128997 0.000101386,0.000194378l2.8715e-006 5.743e-006 6.44983e-005 0.000129659 1.10442e-006 1.54619e-006 3.97592e-006 8.83539e-006 3.97592e-006 8.6145e-006 5.52212e-005 0.000113976 2.42973e-006 4.63858e-006 -2.20885e-007 2.20885e-007c0.0011285,0.00239616 0.00153338,0.00562814 0.00106709,0.00987796 -0.00013739,0.00125197 7.20084e-005,0.00134298 -0.00153095,0.0014733 -0.000851731,6.91369e-005 -0.00162836,0.000249158 -0.00235772,0.000531448 -0.000825004,0.00031962 -0.00159501,0.000773538 -0.002348,0.00135248 -0.00102071,0.000785024 -0.000811972,0.000618477 -0.00231598,-0.000174278 -0.00248451,-0.00131007 -0.0042856,-0.0031169 -0.00554266,-0.00533878l-7.51008e-006 -1.36948e-005 -1.98796e-006 -3.53415e-006 -1.83334e-005 -3.26909e-005 -5.08035e-006 -8.83539e-006 -4.41769e-006 -8.17273e-006 -3.26909e-005 -5.85344e-005 -8.83539e-007 -1.76708e-006 -1.10442e-006 -1.98796e-006 -3.53415e-006 -6.18477e-006 -6.60445e-005 -0.000121045 -4.63858e-006 -8.83539e-006 -4.63858e-006 -8.17273e-006 -4.41769e-007 -1.10442e-006 -4.13054e-005 -7.75305e-005 -4.63858e-006 -8.6145e-006 -4.41769e-006 -8.6145e-006 -4.63858e-006 -8.6145e-006 -4.63858e-006 -8.83539e-006 -4.63858e-006 -8.6145e-006 -4.41769e-006 -8.6145e-006 -4.63858e-006 -8.6145e-006 -4.19681e-006 -7.95185e-006 -5.08035e-006 -9.93981e-006 -4.63858e-006 -8.6145e-006 -4.41769e-006 -8.83539e-006 -3.60042e-005 -6.97995e-005 -4.63858e-006 -8.6145e-006 -1.32531e-005 -2.60644e-005c-0.000128555,-0.000251588 -0.000250262,-0.000507372 -0.000365785,-0.000768237zm0.00190292 -0.0116245l1.17069e-005 2.8715e-006c0.00118637,0.000281628 0.0023109,0.000663317 0.00336584,0.00114727 0.000198134,9.10045e-005 0.000393175,0.000185543 0.000586228,0.000283616 0.000219559,-0.000318295 0.000425645,-0.000656911 0.000608095,-0.000977856 -0.00137722,-0.000315865 -0.00290883,-0.000458777 -0.00457187,-0.000455906zm0.00517179 0.000607212c-0.000198354,0.000355183 -0.000428958,0.000740626 -0.000678999,0.00110796 0.00089392,0.000497432 0.0017271,0.00107593 0.00249423,0.00173748l0.00135358 -0.00141963c-0.000920205,-0.000629079 -0.00198178,-0.00109802 -0.00316881,-0.00142581zm0.00365432 0.00178342l-0.00139444 0.00146248c0.000681208,0.000638578 0.00130609,0.00134718 0.00187067,0.002128 2.36347e-005,-2.73897e-005 3.73295e-005,-4.15263e-005 3.77713e-005,-4.19681e-005l7.24502e-005 -5.743e-005 0.00158242 -0.000896792c-0.000495886,-0.00091137 -0.00111171,-0.00168027 -0.00183776,-0.00231885 -0.000107792,-9.47595e-005 -0.000218455,-0.000186427 -0.000331106,-0.000275443zm0.00243812 0.00312905l-0.0015135 0.000857695c-2.14258e-005,2.47391e-005 -5.3675e-005,6.29521e-005 -9.40969e-005,0.000115302 0.00127561,0.00192368 0.00220597,0.00425313 0.00273698,0.0070069 0.000208957,-0.00336098 -0.000198354,-0.00598134 -0.00112938,-0.0079799zm0.000881992 0.0104242c-0.000369098,-0.00360219 -0.00135248,-0.00655829 -0.00285162,-0.00890386 -0.000370865,0.000647413 -0.00082655,0.00174079 -0.000877133,0.00325451 -6.29521e-005,0.00188967 -0.00110796,0.00538185 -0.00175736,0.00738947 0.000668618,-0.00047181 0.00135756,-0.000851731 0.00209067,-0.00113557 0.00102667,-0.000398034 0.00213662,-0.000604561 0.00339544,-0.000604561zm-0.00633077 0.00239218c0.000557513,-0.00165708 0.00193429,-0.00594312 0.00200475,-0.00806008 6.09642e-005,-0.00182627 0.000680104,-0.00310608 0.00110906,-0.00378155 -0.000572533,-0.000814843 -0.00121155,-0.00154951 -0.00191198,-0.00220664l-0.00782373 0.0082052c0.00140019,0.00254901 0.00353195,0.00454117 0.00662013,0.00584461l1.76708e-006 -1.54619e-006zm-0.00691369 -0.00640367l0.00767066 -0.00804484c-0.000748136,-0.000643658 -0.00156077,-0.00120448 -0.00243282,-0.00168513 -0.000223977,0.000288034 -0.000457231,0.000546469 -0.00069159,0.000744823 -0.000933679,0.000790104 -0.00463261,0.00144989 -0.00640389,0.00172776 0.000224861,0.00248981 0.000729361,0.00474239 0.00160097,0.00670827 8.21691e-005,0.000185764 0.000167651,0.000368656 0.000256668,0.000549119zm-0.00190601 -0.007854c0.00173902,-0.000271688 0.00524314,-0.000891932 0.00606571,-0.00158794 0.000181567,-0.000153736 0.000363134,-0.000349881 0.000540946,-0.000570324 -0.000155945,-7.79723e-005 -0.000313435,-0.000153294 -0.000473135,-0.000226407 -0.0010132,-0.000464741 -0.00210128,-0.000833398 -0.00325584,-0.00110774 -0.000864542,-0.000205202 -0.00176376,-0.00035695 -0.00269523,-0.000456789l-0.000259981 2.25302e-005c-3.46789e-005,0.00136175 -1.19278e-005,0.00267293 7.75305e-005,0.00392667z"/>
 </g>
</svg>
