<?xml version="1.0" encoding="UTF-8"?>
<!DOCTYPE svg PUBLIC "-//W3C//DTD SVG 1.1//EN" "http://www.w3.org/Graphics/SVG/1.1/DTD/svg11.dtd">
<!-- Creator: CorelDRAW -->
<svg xmlns="http://www.w3.org/2000/svg" xml:space="preserve" width="5548in" height="7180in" style="shape-rendering:geometricPrecision; text-rendering:geometricPrecision; image-rendering:optimizeQuality; fill-rule:evenodd; clip-rule:evenodd"
viewBox="0 0 43.9764 102.664"
 xmlns:xlink="http://www.w3.org/1999/xlink">
 <defs>
  <style type="text/css">
   <![CDATA[
    .fil0 {fill:red}
   ]]>
  </style>
 </defs>
 <g id="Layer_x0020_1">
  <metadata id="CorelCorpID_0Corel-Layer"/>
  <path class="fil0" d="M1.02211 4.78026c0.805953,1.33981 0.00517362,0.674834 0.367489,1.6866 0.493111,0.242837 1.19042,0.102179 1.18023,1.05881 -0.00388022,0.355525 -0.432482,1.23197 -0.510895,1.59283 -0.24607,1.1306 0.489069,2.09451 0.413405,3.54846 -0.211148,4.05838 1.5938,3.22349 2.41123,5.7791l-3.27684 1.24345c-0.109293,1.35921 0.463201,2.28852 1.08889,2.99714 1.35322,0.0992688 3.38937,-1.2829 4.77266,-1.61191l0.930282 1.35225c-0.689385,0.909749 -0.370884,-0.205005 -0.668044,1.19915 -0.313974,1.48467 -0.103149,2.81251 0.893743,3.96574 0.891803,1.03133 1.58022,0.173316 2.60653,1.13415 0.162807,0.152622 1.32768,1.86752 1.39251,2.06217 -0.0292633,1.77779 -0.0839097,3.06699 0.0628918,4.77153 0.190131,2.20671 0.247202,2.6345 -0.279375,4.38965 0.821636,0.914114 0.643954,0.572493 0.967467,2.10696 0.32416,1.53851 -0.0942569,1.79783 1.02114,1.87802 0.410494,-0.610972 -0.0611134,-1.70083 -0.116406,-2.42384 -0.0431674,-0.563116 0.126269,-1.87705 0.221334,-2.46022 0.187059,-1.14628 0.773133,-3.42461 1.24264,-4.28537 0.618248,0.189646 0.794636,0.341782 1.23132,0.854294l-1.16859 0.539027c-0.204035,2.3194 0.412596,2.54785 0.827294,4.50444 0.18819,0.887438 0.309932,2.37744 1.17587,2.83498 0.376866,0.199184 0.199831,-0.160867 0.525607,0.00808378 0.236046,2.14721 -0.364094,2.59069 -0.303142,3.65177 0.107191,1.86089 0.511542,6.41141 -0.0269998,7.74814 -0.169759,0.421165 -0.615822,0.604343 -0.886952,1.13318 -0.33483,0.653493 -0.467889,1.38976 -0.214544,1.87431 0.677583,1.29648 0.720103,1.35112 0.993335,2.94185 0.289399,1.68434 0.386405,1.82144 -0.35892,3.32842 -0.514775,1.04071 -1.19446,5.90617 -0.964395,7.37985 0.163939,1.04976 -0.187705,0.30686 0.402734,0.735786 0.167334,-0.258519 0.234268,-0.735301 0.263855,-1.11702 0.134999,-1.73898 0.312681,-4.92367 1.24135,-6.07739 0.54226,0.947419 0.560691,2.19087 0.797869,3.34814 0.151813,0.740636 0.463524,0.937072 0.490847,1.35791 0.153915,2.38294 -0.375411,0.333698 0.417608,5.6449 0.170891,1.1445 0.130796,2.31131 0.773295,2.99245l0.245424 0.220202c-0.860761,2.33411 0.242675,2.59926 -0.275172,3.84675 -0.614206,1.48014 -1.40302,1.19317 -1.96808,2.52165 -0.719133,1.69113 -0.553901,1.79589 -1.91618,2.74978 -0.741283,0.51914 -2.11924,1.21645 -2.54316,1.80301 -0.959707,1.32849 0.214705,2.36596 1.31652,2.63046 2.96562,0.711696 4.95132,-2.17066 6.78957,-1.69889 1.14337,0.293441 2.7687,0.174125 3.31791,-0.591086 0.691648,-1.1867 -0.957605,-6.05459 0.100239,-9.69504 0.211472,-0.727055 -0.0793827,0.750337 0.0910234,-0.280669 0.0984605,-0.596906 -0.0227963,-0.333698 -0.196759,-0.950006 0.870462,-0.920258 1.99346,-1.02519 1.92637,-3.14055 -0.0601433,-1.89177 -1.10441,-2.66975 -1.06496,-3.82023 0.0362153,-1.05235 0.287136,-1.33399 -0.000970054,-2.46329 -0.436524,-1.71037 0.0953886,-4.90395 0.866905,-6.31537 0.206136,1.79363 0.651229,2.9142 0.81533,5.08357 0.136616,1.80301 0.158765,3.39826 0.468213,5.12867 0.295543,1.65232 0.947257,3.35768 0.992203,4.85172 0.0412273,1.35824 -0.302333,4.52207 0.226023,5.44685 0.544362,0.953239 3.02398,1.79023 3.37579,2.43758 0.172185,0.316723 0.341944,1.99556 0.4535,2.52262 0.236531,1.11734 0.0818079,1.36163 -0.183017,2.35044 -0.494242,1.84682 -0.0282932,3.71838 -0.332728,5.74514 -0.167011,1.11281 -0.928018,3.94844 -0.659475,4.68827 0.744678,1.67819 4.8999,1.3875 5.64458,-0.0714606 0.285357,-0.558589 0.605152,-6.72668 0.527871,-7.5661 -0.107353,-1.16487 -0.195304,-2.59021 -0.255447,-3.74004 -0.208723,-3.98789 0.610972,-5.02197 0.434099,-7.01591 -0.240088,-2.7071 -0.660768,-4.77347 -0.7159,-7.48607 -0.0281316,-1.37958 -0.347441,-2.1325 -0.458835,-3.58241 -0.114143,-1.48451 -0.468374,-2.14285 -0.237987,-3.62929 0.172346,-1.11314 -0.0313651,-3.9174 -0.318339,-5.39431 -0.147125,-0.756965 -0.117538,-0.940629 -0.169598,-1.74771 -0.132412,-2.05215 -0.679846,-1.70584 -1.08307,-2.80911 -0.48244,-1.31976 0.268705,-6.09452 -0.677098,-7.24291 0.0132574,-0.066772 0.0551314,-0.138718 0.0745325,-0.186735 0.469344,-1.16309 0.130311,-1.13027 -0.0318501,-2.45456 0.584619,-0.506206 1.21499,-0.679361 1.92911,-0.950814 -0.00113173,-1.2559 -2.25085,-2.88203 -2.81784,-4.71414l1.54045 -0.380099c0.0805145,-0.629242 -0.638457,-2.16451 0.179298,-3.92225 1.60592,0.429895 1.11928,2.77064 1.91844,4.98947 0.632313,1.75564 -0.290531,1.63939 -0.24025,2.75495 0.0464009,1.03311 0.980886,1.16811 1.30294,1.96274 1.05801,2.60961 -1.68563,5.1636 -1.20723,8.74665 0.0898916,0.672571 0.053353,0.307992 0.197729,0.661253l0.299908 1.79411c1.13157,0.0643469 1.79977,-0.357465 2.59037,-0.807893 2.65277,-1.51102 1.62452,-5.29391 1.69598,-7.98661 0.0305567,-1.15194 -0.290854,-2.17502 0.0446225,-3.26488 0.164747,-0.534985 0.30298,-0.585589 0.411303,-1.22873 0.36668,-2.17421 0.670307,-1.30941 0.576374,-2.55625 -0.261268,-3.46924 -0.915407,-2.32684 -1.18573,-3.86162 -0.394004,-2.23614 0.217777,-3.95701 0.0116406,-6.38619 -0.0992688,-1.16972 -0.29231,-1.64327 -0.395944,-2.9868 -0.0680654,-0.881941 -0.588984,-2.14447 -0.576212,-2.60346 0.0198861,-0.700379 0.36086,-0.664487 0.163939,-1.3757 -0.197083,-0.710888 -0.753247,-0.561499 -1.3993,-3.55234 -0.56441,-2.61349 -1.38411,-2.45262 -1.22421,-5.52947 -0.662385,-0.33386 -1.25751,-0.726085 -2.03824,-1.10263 -0.464009,-0.223759 -1.71554,-0.718486 -2.0625,-0.969245 -1.11653,-0.806761 -0.450105,-2.33443 -3.20199,-3.00943 -1.30375,-0.319956 -1.70746,0.100562 -1.51118,-1.44393 0.330627,-2.60185 2.47234,-1.86784 1.11977,-4.27066 -1.20384,-2.13865 1.2331,-4.35425 -3.1682,-6.20689 -1.98877,-0.836995 -3.35897,-0.249627 -4.3439,0.950329 -1.77229,2.15966 -0.862701,2.14576 -0.91088,4.73289 -0.0181077,0.964557 -0.834731,1.09794 -0.305244,2.63159 0.424722,1.23116 0.804498,0.162484 0.83554,2.05522 -1.52864,1.69097 -0.528841,1.11766 -0.949521,3.48039l-1.64279 -0.0232813c-1.80123,3.62267 -3.75815,2.0363 -5.2821,6.43194 -0.0409039,-0.0572332 -0.0690355,-0.139203 -0.0919934,-0.192556 -1.20206,-2.80814 -0.845887,-0.230873 -2.0279,-2.26411 -2.77629,-4.77638 -1.40528,-3.17127 -1.84892,-4.01586 -0.601595,-1.14563 -0.3995,0.367165 -1.13593,-0.473548 -0.484219,-0.553092 -0.595451,-1.77876 -1.47658,-2.66441 -0.848797,0.0606284 -0.718486,0.364579 -1.64553,0.585427 -0.462069,-0.970862 -2.80976,-3.77302 -2.88154,-4.75019 -0.0609517,-0.831983 0.427794,-1.16762 0.0661253,-2.18165 -0.500386,-0.666912 -0.793019,0.0974904 -2.2072,0.406129 -0.812743,-0.63684 -1.33657,-1.77908 -2.08853,-2.3873l-0.554062 0.433937c0.0171376,0.0168143 0.942246,1.49986 1.02211,1.63309zm29.174 56.8642c-0.0202095,0.0514128 -0.0342752,0.096197 -0.0421973,0.134514 -0.00792211,0.0383171 -0.011479,0.0790594 -0.0106706,0.122227 0.000970054,0.048341 -0.0127724,0.0868198 -0.0412273,0.115436 -0.0284549,0.0284549 -0.155209,0.134191 -0.380099,0.316723 -0.083748,0.0704906 -0.155209,0.132897 -0.214059,0.187544 -0.0286166,0.0260298 -0.0515745,0.0430057 -0.0687121,0.0510895l-0.0858498 -0.502003c0.00937719,-0.017946 0.0341136,-0.0375087 0.0743708,-0.0586883 0.0402572,-0.0211795 0.0601433,-0.0420357 0.05982,-0.0622451l-0.0375087 -0.27016c-0.00824546,-0.0202095 -0.0659637,-0.048341 -0.173155,-0.084233 -0.0352453,-0.0121257 -0.08973,-0.0287783 -0.163777,-0.0501194 -0.0213412,0.000323351 -0.047371,0.0556164 -0.0780893,0.165718 -0.0669337,0.235238 -0.120448,0.411949 -0.160706,0.529811 -0.0640235,0.186897 -0.128047,0.372662 -0.192071,0.557134 -0.0200478,0.0614367 -0.0297483,0.111233 -0.0289399,0.149388 0.000323351,0.0177843 0.0531913,0.0415506 0.158442,0.0711373 0.105251,0.0297483 0.164747,0.0507661 0.17849,0.0632152 -0.017461,0.0894066 -0.0316884,0.155855 -0.042359,0.199184 -0.0339519,0.138071 -0.0596583,0.212442 -0.0767959,0.222951l-0.878384 -0.314136c0.00711373,-0.0331435 0.0276465,-0.0984605 0.0614367,-0.195789 0.0337902,-0.0973287 0.0594966,-0.148742 0.0767959,-0.154239l0.21616 0.0528679c0.0247364,-0.0208562 0.048826,-0.072269 0.0724307,-0.154077 0.0486644,-0.179137 0.100562,-0.363932 0.155694,-0.554547 0.0552931,-0.190616 0.110101,-0.380584 0.164262,-0.569907 0.0198861,-0.071784 0.0295866,-0.12158 0.0289399,-0.14955 -0.000485027,-0.0227963 -0.0260298,-0.0426824 -0.0767959,-0.0594966 -0.105251,-0.03088 -0.204196,-0.0606284 -0.296836,-0.0892449 -0.0924785,-0.0286166 -0.190454,-0.0585266 -0.293926,-0.0894066 -0.0641852,-0.0190777 -0.110909,-0.0282932 -0.140011,-0.0276465l-0.000808378 -0.0381554c0.00194011,-0.00517362 0.0247364,-0.0743708 0.0685505,-0.20743 0.03088,-0.0973287 0.0539997,-0.153754 0.0691972,-0.169274l0.747265 0.305244c0.0227963,-0.0208562 0.0612751,-0.152622 0.115436,-0.395459 0.0541613,-0.242675 0.0809995,-0.375572 0.0805145,-0.398369 -0.000323351,-0.0203711 -0.0160059,-0.0302333 -0.0470476,-0.0295866 -0.0426824,0.000808378 -0.103311,0.0135808 -0.18237,0.0379938 -0.0268382,0.00824546 -0.0643469,0.0216645 -0.112526,0.0404189l-0.005982 -0.293603 0.983473 -0.378806c0.00776043,0 0.0316884,0.084718 0.0719457,0.254316 0.0255447,0.112688 0.0457542,0.201286 0.0606284,0.265795 -0.0192394,0.00549697 -0.03088,0.00824546 -0.0347603,0.00840713 -0.0153592,0.000323351 -0.0318501,0.000646703 -0.0493111,0.000970054 -0.0522212,0.000970054 -0.0919934,0.00565865 -0.118832,0.0139041 -0.0269998,0.00808378 -0.0402572,0.024898 -0.0397722,0.0502811 0.000970054,0.0459159 0.0746941,0.287298 0.221172,0.724307l0.185604 0.549535c0.0143891,0.0430057 0.0287783,0.0858498 0.0433291,0.128855 0.00808378,0.0202095 0.017946,0.0302333 0.0295866,0.02991 0.00194011,0 0.0163292,-0.00921551 0.0430057,-0.0274849 0.0268382,-0.018431 0.0528679,-0.0278082 0.0779277,-0.0282932 0.0116406,-0.000323351 0.0213412,0.000808378 0.0291016,0.00307184zm-0.807246 -0.39562l-0.000646703 -0.030395c-0.0109939,-0.0633768 -0.0187544,-0.111556 -0.0232813,-0.144538 -0.0153592,-0.0913467 -0.0273232,-0.152137 -0.0357303,-0.182532 -0.018916,0.0208562 -0.0397722,0.0664487 -0.0625685,0.136778 -0.0227963,0.0704906 -0.0388022,0.112041 -0.048341,0.124975l0.000808378 0.0381554 0.137748 0.0582032 0.0320118 -0.000646703zm3.69186 -1.52897c-0.0347603,0.194011 -0.0622451,0.342752 -0.0824546,0.446225 -0.0202095,0.103472 -0.0379938,0.15537 -0.0535146,0.155694 -0.0116406,0.000161676 -0.0291016,-0.00323351 -0.0525446,-0.0105089 -0.0564248,-0.0166526 -0.0924785,-0.0247364 -0.107999,-0.024413 -0.0638619,0.00129341 -0.120772,0.298777 -0.170729,0.892449 -0.00436524,0.066287 -0.0192394,0.221172 -0.0442991,0.464494 -0.0250597,0.243483 -0.0370237,0.394489 -0.0357303,0.453015 0.00307184,0.155047 0.00501194,0.244615 0.00549697,0.268867 0.000485027,0.0240897 0.00113173,0.0565865 0.00194011,0.0971671 0.000970054,0.0509278 0.017946,0.0759875 0.0509278,0.0753408 0.0344369,-0.018431 0.0622451,-0.0355686 0.0832629,-0.0512512 0.0648319,-0.0496344 0.11867,-0.113173 0.161676,-0.190292 0.00242513,0.0177843 0.00759875,0.0806761 0.0155209,0.188514 0.00808378,0.107999 0.0132574,0.219232 0.0155209,0.333537 0.00113173,0.0559398 -0.0622451,0.127239 -0.190292,0.213735 -0.158927,0.0949036 -0.317854,0.189646 -0.476781,0.284549 -0.0531913,-0.138879 -0.106383,-0.277759 -0.159574,-0.416476 -0.106383,-0.272585 -0.218424,-0.545009 -0.336285,-0.817432 -0.134352,-0.312681 -0.227316,-0.501518 -0.279052,-0.566673 -0.018916,0.0208562 -0.0326585,0.0554547 -0.041389,0.103957 -0.00873048,0.0485027 -0.011964,0.1274 -0.00970054,0.236693 0.00307184,0.150035 0.00485027,0.237825 0.0053353,0.263208 0.000485027,0.0253831 0.000970054,0.0470476 0.00129341,0.0648319 -0.00371854,0.00776043 -0.00646703,0.0153592 -0.00824546,0.0231196 -0.0143891,0.0536763 -0.0205328,0.132574 -0.018431,0.236855l0.00565865 0.274687 0.348573 -0.00711373 0.00291016 0.144861 -0.0577182 0.588823 -0.0291016 0.000646703 -0.92915 -0.240573 -0.00258681 -0.133544c-0.00226346,-0.11188 -0.00258681,-0.175418 -0.000970054,-0.190777 0.00792211,-0.0814845 0.048826,-0.123035 0.122388,-0.12449l0.168466 -0.00339519 -0.0226346 -1.1099c-0.00776043,-0.00242513 -0.0126107,-0.00485027 -0.0147125,-0.00743708 -0.00986221,-0.012449 -0.0150358,-0.0315267 -0.0156825,-0.0569098l-0.00258681 -0.129664 -0.0746941 -0.811127c-0.0198861,-0.0250597 -0.0336285,-0.0375087 -0.041389,-0.0373471 -0.0345986,0.0108323 -0.0654786,0.0242513 -0.0921551,0.0399339 -0.0746941,0.047371 -0.165071,0.128047 -0.271292,0.24219 -0.0142275,-0.0378321 -0.023928,-0.180107 -0.0289399,-0.426824l-0.00646703 -0.316561c-0.000485027,-0.0253831 0.0486644,-0.0569098 0.147772,-0.0945802 0.0989455,-0.0376704 0.220849,-0.0706522 0.365549,-0.0989455 0.048341,-0.00873048 0.123844,-0.0312034 0.226831,-0.0677421 0.102826,-0.036377 0.209208,-0.0746941 0.318824,-0.115113 0.0155209,-0.000323351 0.054323,0.0992688 0.116568,0.298938 0.0559398,0.182047 0.112041,0.364094 0.167981,0.54614 0.0329818,0.0984605 0.0949036,0.258196 0.185604,0.478883 0.0907,0.220687 0.148095,0.349866 0.172185,0.387536l0.00468859 -0.625846c-0.00792211,-0.00242513 -0.0127724,-0.00485027 -0.0147125,-0.0072754 -0.00986221,-0.0100239 -0.0151975,-0.0289399 -0.0156825,-0.0569098 -0.00274849,-0.129664 -0.00501194,-0.24219 -0.00695205,-0.337579 -0.00194011,-0.0953886 -0.00291016,-0.144215 -0.00291016,-0.146801 -0.0155209,-0.0963587 -0.0402572,-0.163292 -0.0738858,-0.200801 -0.0218262,-0.024898 -0.0520596,-0.0370237 -0.0908617,-0.0362153 -0.0252214,0.000485027 -0.0425207,0.000808378 -0.0522212,0.000970054 -0.0232813,0.000485027 -0.0352453,-0.0145508 -0.035892,-0.0449458 0.00792211,-0.0866581 0.0143891,-0.151652 0.0194011,-0.195142 0.0166526,-0.132574 0.0365387,-0.199023 0.05982,-0.199508 0.0467243,0.00921551 0.0816462,0.0148742 0.104927,0.0169759 0.0758259,0.0111556 0.124329,0.0164909 0.14567,0.0160059 0.247849,-0.00501194 0.394165,-0.00808378 0.438626,-0.00889216 0.0446225,-0.000970054 0.0708139,-0.00145508 0.0784127,-0.00161676 0.00226346,0.0101856 0.00420357,0.0164909 0.00630535,0.018916 0.0100239,0.0150358 0.0245747,0.0224729 0.0439758,0.0219879l0.357303 -0.0072754 0.000808378 0.0381554zm3.61733 0.231519l-0.226508 0.57702c-0.113496,-0.0562631 -0.178652,-0.0879515 -0.195304,-0.0952269 -0.0164909,-0.0072754 -0.0355686,-0.0106706 -0.0567481,-0.0103472 -0.0232813,0.000485027 -0.0767959,0.0824546 -0.160706,0.245585 -0.0839097,0.163292 -0.166849,0.324645 -0.248819,0.484057 -0.0989455,0.182532 -0.196921,0.365225 -0.294088,0.547757 -0.0371854,0.0719457 -0.0552931,0.137263 -0.0539997,0.195628l0.0168143 0.831498 0.0320118 -0.000646703c0.0444608,-0.00339519 0.0903767,-0.00808378 0.137748,-0.0142275 0.047371,-0.005982 0.0873048,-0.0169759 0.119963,-0.0329818l0.0320118 -0.000646703 0.00274849 0.137263c0.00274849,0.132251 -0.00549697,0.256418 -0.024413,0.372662 -0.018916,0.116083 -0.0350836,0.174286 -0.0486644,0.17461 -0.0331435,-0.00953886 -0.065802,-0.018431 -0.0979754,-0.0266765 -0.0321734,-0.00824546 -0.0549697,-0.0122873 -0.0685505,-0.011964l-1.10101 0.0224729c-0.000646703,-0.0279699 -0.000161676,-0.0565865 0.00113173,-0.0871432 0.00129341,-0.02991 0.00177843,-0.0515745 0.00161676,-0.0643469 -0.000646703,-0.0279699 -0.00242513,-0.071784 -0.00565865,-0.132089 -0.00323351,-0.0604667 -0.00517362,-0.109939 -0.00582032,-0.147448 0.0231196,-0.000485027 0.0459159,-0.000970054 0.0682271,-0.00145508 0.0223112,-0.000485027 0.0439758,-0.000808378 0.065317,-0.00129341 0.0271615,-0.000485027 0.0485027,-0.000970054 0.0638619,-0.00129341l0.071299 -0.0701672 -0.0166526 -0.817432c-0.00840713,-0.035407 -0.0177843,-0.0670954 -0.0281316,-0.0949036 -0.0635385,-0.169113 -0.183178,-0.389315 -0.359243,-0.66093 -0.0979754,-0.148095 -0.190777,-0.300232 -0.278244,-0.454794 -0.0873048,-0.154724 -0.15149,-0.236693 -0.192394,-0.24607l-0.372824 0.102987 -0.0818079 -0.449135c-0.000161676,-0.00517362 0.111395,-0.0468859 0.334669,-0.125137 0.136454,-0.0486644 0.271938,-0.107353 0.406129,-0.176226 0.0421973,-0.0211795 0.17946,-0.0805145 0.411949,-0.176873 0.163454,-0.0669337 0.276465,-0.12643 0.339357,-0.178652l0.0523829 -0.00113173c0.000646703,0.0381554 0.012449,0.140981 0.0352453,0.308477 0.0227963,0.167334 0.0394489,0.268867 0.0497961,0.304112l0.00226346 0.106868 -0.332405 0.0907 0.000808378 0.0381554c0.000485027,0.0279699 0.0764726,0.190454 0.227801,0.487614 0.0627301,0.125945 0.126269,0.251729 0.190777,0.377674 0.0242513,0.0452692 0.0470476,0.0677421 0.0682271,0.0672571 0.0116406,-0.000161676 0.047371,-0.0582032 0.107029,-0.173801 0.048341,-0.0952269 0.116406,-0.230064 0.203873,-0.404836 0.0780893,-0.159412 0.143891,-0.304435 0.197406,-0.435231 0.0185927,-0.0436524 0.0388022,-0.096197 0.06079,-0.157634 -0.000323351,-0.0127724 -0.0462392,-0.0347603 -0.137909,-0.0659637 -0.0645086,-0.0215029 -0.116245,-0.0472093 -0.155694,-0.0769576 0.0379938,-0.135484 0.0831013,-0.252214 0.135322,-0.350028 0.0168143,-0.0333052 0.0410656,-0.0719457 0.0732391,-0.115921 0.0840713,0.0415506 0.211148,0.0981371 0.381231,0.169759 0.170083,0.0714606 0.387536,0.144053 0.652523,0.217454zm-4.36637 8.44286l-1.16229 0.284064c-0.00388022,-0.0215029 -0.0129341,-0.0907 -0.0269998,-0.20743 -0.0142275,-0.11673 -0.0203711,-0.178652 -0.0187544,-0.185927 0.0160059,-0.00759875 0.0504428,-0.017946 0.103311,-0.0310417 0.0527063,-0.0130957 0.0958736,-0.0344369 0.129502,-0.0641852 -0.0231196,-0.0742091 -0.0764726,-0.226346 -0.160382,-0.456087 -0.0496344,-0.138879 -0.0866581,-0.239442 -0.111395,-0.301687 -0.0664487,-0.17461 -0.129341,-0.348249 -0.188675,-0.520757 -0.0494727,-0.141143 -0.0860114,-0.211633 -0.109454,-0.211148 -0.0250597,0.000485027 -0.0929635,0.159897 -0.203388,0.478075 -0.071299,0.208885 -0.12837,0.363123 -0.171214,0.462877 -0.0527063,-0.117053 -0.0960353,-0.211472 -0.129826,-0.283094 -0.0958736,-0.203065 -0.192394,-0.395297 -0.289723,-0.576535 -0.0242513,-0.0452692 -0.0485027,-0.0918318 -0.0729157,-0.139688 -0.0148742,-0.0261915 -0.0278082,-0.0391255 -0.0386405,-0.0389638 -0.0143891,0.000323351 -0.0362153,0.0743708 -0.0654786,0.221981 -0.0360537,0.172023 -0.0675804,0.348734 -0.0944186,0.530134 -0.0365387,0.242028 -0.0651553,0.423428 -0.0860114,0.544362 -0.00970054,0.0582032 -0.0218262,0.127077 -0.036377,0.206945 0.000646703,0.0265148 0.0433291,0.0480177 0.128209,0.0643469 0.0848797,0.0163292 0.166849,0.0237663 0.245909,0.0221496l0.00129341 0.0651553c-0.0410656,0.0997539 -0.0755025,0.199184 -0.103149,0.298777 -0.0276465,0.0994305 -0.0522212,0.154077 -0.0735624,0.164262l-0.926886 -0.216322c0.0111556,-0.0701672 0.0205328,-0.158442 0.0282932,-0.264663 0.00776043,-0.106221 0.0215029,-0.159574 0.0412273,-0.160059 0.0452692,0.0135808 0.0805145,0.0237663 0.105736,0.030395 0.077766,0.0202095 0.134676,0.02991 0.170568,0.0291016 0.0143891,-0.000323351 0.0349219,-0.145346 0.0612751,-0.435392 0.0147125,-0.164262 0.0210178,-0.291016 0.0192394,-0.380261l-0.00242513 -0.119317 0.0227963 -0.340489c-0.00226346,-0.108484 -0.00468859,-0.203065 -0.00711373,-0.283902 -0.00258681,-0.0806761 -0.0053353,-0.147448 -0.00824546,-0.200478 0.00177843,-0.0072754 0.00323351,-0.0218262 0.00452692,-0.0434907 0.0103472,-0.0219879 0.0181077,-0.0426824 0.0231196,-0.0620834 0.0164909,-0.0701672 0.0236046,-0.159574 0.0215029,-0.268058 -0.000646703,-0.0265148 -0.017946,-0.0394489 -0.0520596,-0.0388022 -0.042844,0.0153592 -0.0759875,0.0268382 -0.0991072,0.0345986 -0.0714606,0.0279699 -0.122065,0.0578799 -0.151975,0.0898916 -0.00210178,-0.0168143 -0.00565865,-0.0776043 -0.0105089,-0.18237 -0.00485027,-0.104927 -0.00808378,-0.201933 -0.00986221,-0.291178 -0.00113173,-0.0506045 0.0706522,-0.106221 0.215029,-0.167173 0.0855264,-0.0378321 0.221657,-0.0869815 0.408393,-0.147448 0.186735,-0.0606284 0.29328,-0.101856 0.319794,-0.124167l0.0297483 -0.000646703c0.0289399,0.0958736 0.0973287,0.275495 0.205166,0.538542 0.130472,0.318016 0.223274,0.503135 0.278405,0.555032l0.358758 -1.19026c0.0973287,0.012449 0.172185,0.0229579 0.224567,0.0315267 0.142436,0.0213412 0.256903,0.036377 0.343399,0.0454309 0.0866581,0.00921551 0.157634,0.0130957 0.213412,0.011964 0.035892,-0.000646703 0.0737241,-0.00388022 0.113173,-0.00953886 0.0394489,-0.00565865 0.0654786,-0.00856881 0.0779277,-0.00873048l0.0134191 0.65802 -0.0215029 0.000485027 -0.343722 -0.0580415 -0.107838 0.00210178 0.00210178 0.104927c0.0121257,0.0696822 0.0282932,0.152622 0.0481793,0.248657 0.0357303,0.167981 0.105251,0.44283 0.208238,0.824222 0.0486644,0.179783 0.0818079,0.305729 0.0994305,0.377836 0.0468859,0.17752 0.0885982,0.3261 0.125137,0.446063 0.0100239,0.0480177 0.0198861,0.0947419 0.02991,0.140334 0.0135808,0.0480177 0.0310417,0.071784 0.0527063,0.071299 0.0197244,-0.000323351 0.0785744,-0.0281316 0.176226,-0.0831013 0.0320118,-0.0176226 0.0800294,-0.0451075 0.144053,-0.0826162 0.0108323,-0.000161676 0.0289399,0.0982988 0.0546464,0.295543 0.00840713,0.0649936 0.0203711,0.163616 0.0355686,0.296028zm2.31891 -1.50892c-0.0187544,0.0486644 -0.0318501,0.0911851 -0.0392872,0.127562 -0.0072754,0.0362153 -0.0105089,0.0748558 -0.00970054,0.115921 0.000970054,0.0457542 -0.0118023,0.0821312 -0.0383171,0.109293 -0.0263531,0.0269998 -0.143891,0.127077 -0.352615,0.300232 -0.077766,0.0666104 -0.143891,0.125945 -0.198699,0.177682 -0.0265148,0.0245747 -0.0476943,0.0407423 -0.0637002,0.048341l-0.0798678 -0.475973c0.00873048,-0.0169759 0.0316884,-0.0355686 0.0690355,-0.0556164 0.0373471,-0.0200478 0.0557781,-0.0397722 0.0554547,-0.0590116l-0.0349219 -0.256094c-0.00759875,-0.0192394 -0.0611134,-0.0459159 -0.160867,-0.0800294 -0.0324968,-0.0113173 -0.0832629,-0.0271615 -0.151975,-0.0475326 -0.0197244,0.000485027 -0.0438141,0.0527063 -0.072269,0.156987 -0.0620834,0.223274 -0.111718,0.390608 -0.148903,0.502326 -0.059335,0.177196 -0.118832,0.353423 -0.178167,0.528194 -0.0185927,0.0582032 -0.0274849,0.105574 -0.0266765,0.141628 0.000323351,0.0169759 0.0493111,0.0394489 0.146963,0.0675804 0.0976521,0.0281316 0.152945,0.0481793 0.165718,0.0599817 -0.0161676,0.084718 -0.0292633,0.14761 -0.0392872,0.188837 -0.0315267,0.130957 -0.0551314,0.201286 -0.0711373,0.21131l-0.81533 -0.29813c0.00646703,-0.0315267 0.0253831,-0.0934485 0.0569098,-0.185604 0.0313651,-0.0923168 0.0549697,-0.140981 0.0711373,-0.146155l0.200639 0.0501194c0.0229579,-0.0197244 0.0454309,-0.0683888 0.0670954,-0.145993 0.0451075,-0.169759 0.0932868,-0.345016 0.144538,-0.525769 0.0510895,-0.180753 0.101856,-0.36086 0.152137,-0.54032 0.018431,-0.0679038 0.0273232,-0.115113 0.0268382,-0.141628 -0.000485027,-0.0216645 -0.0242513,-0.0405806 -0.071299,-0.0564248 -0.0978138,-0.029425 -0.189646,-0.0577182 -0.275657,-0.0848797 -0.0858498,-0.0271615 -0.176873,-0.0554547 -0.272747,-0.0848797 -0.0596583,-0.0181077 -0.103149,-0.0268382 -0.129987,-0.0261915l-0.000808378 -0.0362153c0.00177843,-0.00485027 0.0227963,-0.0704906 0.0633768,-0.196598 0.0287783,-0.0923168 0.0501194,-0.145831 0.0641852,-0.160544l0.693912 0.289723c0.0211795,-0.0197244 0.0567481,-0.1447 0.106868,-0.374764 0.0502811,-0.230226 0.0750175,-0.356171 0.0746941,-0.377836 -0.000485027,-0.0192394 -0.0150358,-0.0286166 -0.0438141,-0.0279699 -0.0394489,0.000808378 -0.0958736,0.0127724 -0.169113,0.035892 -0.0250597,0.00776043 -0.05982,0.0205328 -0.104442,0.0383171l-0.00565865 -0.278405 0.912497 -0.358597c0.0072754,-0.000161676 0.0295866,0.0801911 0.0669337,0.241058 0.0237663,0.106706 0.0425207,0.190777 0.0564248,0.252052 -0.017946,0.00517362 -0.0286166,0.00776043 -0.0321734,0.00792211 -0.0143891,0.000161676 -0.0297483,0.000485027 -0.0459159,0.000808378 -0.0485027,0.000970054 -0.0852031,0.0053353 -0.110263,0.0130957 -0.0250597,0.00776043 -0.0373471,0.0237663 -0.036862,0.047856 0.000970054,0.0433291 0.0693588,0.272262 0.20549,0.686798l0.172508 0.521081c0.0134191,0.0407423 0.0268382,0.0813228 0.0402572,0.122065 0.00759875,0.0192394 0.0168143,0.0286166 0.0276465,0.0284549 0.00177843,0 0.0150358,-0.00873048 0.0399339,-0.0261915 0.0247364,-0.0172993 0.048826,-0.0263531 0.072269,-0.0268382 0.0106706,-0.000161676 0.0197244,0.000808378 0.0269998,0.00307184zm-0.749528 -0.375411l-0.000485027 -0.0289399c-0.0103472,-0.0599817 -0.017461,-0.105736 -0.0216645,-0.136939 -0.0143891,-0.0864965 -0.0255447,-0.144215 -0.0333052,-0.172993 -0.017461,0.0197244 -0.036862,0.0628918 -0.0580415,0.129664 -0.0211795,0.066772 -0.0360537,0.106221 -0.0447841,0.118508l0.000808378 0.0360537 0.127885 0.0552931 0.0295866 -0.000646703zm3.42607 -1.44813c-0.0321734,0.183987 -0.0575565,0.324968 -0.0763109,0.423105 -0.0185927,0.0979754 -0.0352453,0.147125 -0.0496344,0.147448 -0.0106706,0.000323351 -0.0269998,-0.00307184 -0.0486644,-0.00986221 -0.0525446,-0.0158442 -0.0860114,-0.0236046 -0.100401,-0.0232813 -0.0591733,0.00129341 -0.11188,0.283256 -0.157957,0.84621 -0.00420357,0.0627301 -0.0177843,0.209532 -0.0410656,0.440404 -0.0231196,0.230711 -0.0341136,0.373794 -0.0329818,0.429249 0.00291016,0.147125 0.00468859,0.232166 0.00517362,0.254962 0.000485027,0.0229579 0.00113173,0.0536763 0.00194011,0.0923168 0.000970054,0.0481793 0.0166526,0.0719457 0.0472093,0.071299 0.0320118,-0.017461 0.0578799,-0.0336285 0.0772809,-0.0486644 0.0601433,-0.0470476 0.110263,-0.107029 0.150035,-0.180268 0.00226346,0.0168143 0.00695205,0.0764726 0.0145508,0.178813 0.00743708,0.102341 0.0122873,0.207753 0.0145508,0.316238 0.000970054,0.0530296 -0.0578799,0.12061 -0.176711,0.20258 -0.147448,0.0898916 -0.294896,0.179622 -0.442345,0.269513 -0.0493111,-0.131604 -0.0987838,-0.26337 -0.148257,-0.394974 -0.0987838,-0.258519 -0.202903,-0.516715 -0.312519,-0.775073 -0.124652,-0.296513 -0.211148,-0.47565 -0.259166,-0.53741 -0.0176226,0.0197244 -0.030395,0.0525446 -0.0384788,0.0984605 -0.00808378,0.0460776 -0.0109939,0.120933 -0.00889216,0.224567 0.00291016,0.142275 0.00468859,0.225376 0.00517362,0.249465 0.000485027,0.0240897 0.000808378,0.0446225 0.00113173,0.0614367 -0.00339519,0.00743708 -0.005982,0.0147125 -0.00759875,0.0219879 -0.0132574,0.0509278 -0.0190777,0.125784 -0.0169759,0.224567l0.0053353 0.260459 0.323513 -0.0066287 0.00274849 0.137424 -0.053353 0.558104 -0.0268382 0.000646703 -0.862539 -0.228448 -0.00258681 -0.126592c-0.00210178,-0.106059 -0.00242513,-0.166364 -0.000970054,-0.180915 0.00743708,-0.0772809 0.0452692,-0.116568 0.113496,-0.118023l0.156502 -0.00323351 -0.0215029 -1.05235c-0.0072754,-0.00210178 -0.0118023,-0.00452692 -0.0135808,-0.00679038 -0.00921551,-0.011964 -0.0140658,-0.02991 -0.0145508,-0.0539997l-0.00258681 -0.123035 -0.0695205 -0.769091c-0.0185927,-0.0237663 -0.0313651,-0.0355686 -0.0386405,-0.035407 -0.0321734,0.0103472 -0.0606284,0.0229579 -0.0855264,0.0379938 -0.0691972,0.0447841 -0.153107,0.121257 -0.251567,0.229418 -0.0132574,-0.035892 -0.0223112,-0.170891 -0.0271615,-0.404674l-0.005982 -0.300232c-0.000646703,-0.0240897 0.0451075,-0.053838 0.137101,-0.0895683 0.0918318,-0.0355686 0.205005,-0.0669337 0.339195,-0.0937719 0.0447841,-0.00808378 0.114951,-0.029425 0.210502,-0.0638619 0.0955503,-0.0345986 0.194172,-0.0709756 0.295866,-0.109131 0.0143891,-0.000323351 0.0504428,0.0940952 0.108323,0.283579 0.0520596,0.172508 0.104119,0.345177 0.156179,0.517685 0.0307184,0.0934485 0.0881132,0.244777 0.172508,0.454147 0.084233,0.20937 0.137586,0.331758 0.159897,0.367489l0.00404189 -0.59335c-0.0072754,-0.00226346 -0.0118023,-0.00452692 -0.0135808,-0.00695205 -0.00921551,-0.00937719 -0.0140658,-0.0274849 -0.0145508,-0.0539997 -0.00258681,-0.122873 -0.00468859,-0.229579 -0.0066287,-0.319956 -0.00177843,-0.0903767 -0.00274849,-0.136778 -0.00274849,-0.139203 -0.0145508,-0.0913467 -0.0373471,-0.154885 -0.0687121,-0.190454 -0.0202095,-0.0236046 -0.048341,-0.0350836 -0.084233,-0.0344369 -0.023443,0.000485027 -0.0396105,0.000808378 -0.0486644,0.00113173 -0.0215029,0.000323351 -0.0324968,-0.0139041 -0.0331435,-0.042844 0.0072754,-0.0821312 0.0132574,-0.14373 0.0177843,-0.184795 0.0153592,-0.125784 0.0339519,-0.188837 0.0554547,-0.189322 0.0433291,0.00873048 0.0758259,0.0142275 0.0974904,0.0161676 0.0703289,0.0105089 0.115436,0.0156825 0.135161,0.0153592 0.230064,-0.00468859 0.365872,-0.00759875 0.407261,-0.00840713 0.0412273,-0.000808378 0.0654786,-0.00129341 0.072754,-0.00145508 0.00194011,0.00953886 0.00388022,0.0156825 0.00565865,0.017946 0.00937719,0.0143891 0.0229579,0.0213412 0.0409039,0.0208562l0.331758 -0.0066287 0.000646703 0.0360537zm-11.7973 -11.9648c-0.171861,-0.0378321 -0.323351,-0.0940952 -0.455117,-0.170244 -0.131604,-0.0761492 -0.240897,-0.162646 -0.328848,-0.257064 -0.0877899,-0.0955503 -0.15246,-0.189807 -0.193849,-0.285034 -0.0415506,-0.0939335 -0.0588499,-0.17849 -0.0504428,-0.252052 0.00404189,-0.0342752 0.0185927,-0.0601433 0.0438141,-0.0764726 0.0250597,-0.0163292 0.0606284,-0.0216645 0.106221,-0.0137424 0.0674187,0.0118023 0.141143,0.0441374 0.219394,0.096682 0.0784127,0.0512512 0.158442,0.122227 0.238148,0.212603 0.0806761,0.0905384 0.156502,0.196921 0.229256,0.32222 0.071784,0.125299 0.135969,0.265956 0.191424,0.423105zm0.267897 -0.0539997c-0.0370237,-0.191424 -0.0903767,-0.367812 -0.159736,-0.530134 -0.0683888,-0.163292 -0.147772,-0.306699 -0.23734,-0.429734 -0.0903767,-0.123359 -0.184795,-0.220041 -0.283902,-0.293118 -0.030395,-0.0221496 -0.0622451,-0.0405806 -0.0953886,-0.0554547 -0.0342752,-0.0137424 -0.0675804,-0.0274849 -0.101856,-0.0412273 -0.0341136,-0.0150358 -0.066772,-0.0336285 -0.0991072,-0.0562631 -0.0158442,-0.0143891 -0.0362153,-0.03088 -0.0609517,-0.0507661 -0.0258681,-0.0200478 -0.0575565,-0.0397722 -0.0960353,-0.0582032 -0.0384788,-0.0197244 -0.0843947,-0.0328202 -0.139364,-0.0438141 -0.140658,-0.023443 -0.254477,-0.00323351 -0.340327,0.0606284 -0.0868198,0.0637002 -0.138071,0.164747 -0.155047,0.302818 -0.00711373,0.0622451 -0.00242513,0.147125 0.0134191,0.253507 0.0168143,0.106383 0.0454309,0.227963 0.0850414,0.362962 0.0405806,0.135322 0.0940952,0.276627 0.159412,0.423913 0.0654786,0.147448 0.14373,0.291825 0.234591,0.435877 0.0780893,0.121095 0.164262,0.232005 0.255447,0.332082 0.0919934,0.100239 0.184634,0.187705 0.278567,0.263693 0.0940952,0.0746941 0.183987,0.135808 0.268867,0.181723 0.0856881,0.0460776 0.160867,0.0746941 0.225537,0.0861731 0.128209,0.0210178 0.240088,0.017461 0.335639,-0.012449 0.0963587,-0.0297483 0.172831,-0.0784127 0.230064,-0.145993 0.0573948,-0.0688738 0.0908617,-0.149712 0.102826,-0.244615 0.0140658,-0.114143 0.0347603,-0.226993 0.0612751,-0.33871 0.0273232,-0.110424 0.0531913,-0.217292 0.0795444,-0.319956 0.0255447,-0.104281 0.0446225,-0.201933 0.0561014,-0.292956 0.00776043,-0.0763109 0.00808378,-0.162969 0.000970054,-0.261268 -0.00808378,-0.0971671 -0.0218262,-0.196759 -0.0420357,-0.298615 -0.0202095,-0.101856 -0.0451075,-0.196921 -0.0737241,-0.284711 -0.0286166,-0.0877899 -0.0611134,-0.159574 -0.0952269,-0.217292 -0.0331435,-0.0562631 -0.0682271,-0.0882749 -0.104119,-0.0958736 -0.0295866,-0.00388022 -0.0549697,0.005982 -0.0771193,0.0292633 -0.0231196,0.024413 -0.0367004,0.0582032 -0.0430057,0.105089 -0.00258681,0.0305567 0.00371854,0.0679038 0.0181077,0.111718 0.0140658,0.0452692 0.030395,0.0973287 0.0497961,0.15634 0.0192394,0.0590116 0.0337902,0.126269 0.0444608,0.201933 0.0108323,0.0743708 0.011964,0.15731 0.00242513,0.248819 -0.0139041,0.119317 -0.0472093,0.223436 -0.0981371,0.312842 -0.0520596,0.0892449 -0.117862,0.156664 -0.199669,0.201771zm-0.937395 1.97875c0.0588499,-0.0310417 0.103796,-0.0683888 0.136293,-0.114466 0.0313651,-0.0462392 0.0496344,-0.0871432 0.0539997,-0.123844 0.00129341,-0.0205328 0.000323351,-0.054323 -0.00501194,-0.100562 -0.00452692,-0.0447841 -0.0113173,-0.0952269 -0.0205328,-0.14858 -0.00840713,-0.0531913 -0.017461,-0.101371 -0.0269998,-0.144376 -0.00953886,-0.0431674 -0.018916,-0.0719457 -0.0258681,-0.0861731 -0.0171376,-0.0287783 -0.036862,-0.0504428 -0.0596583,-0.0622451 -0.0229579,-0.0118023 -0.0499578,-0.0203711 -0.0814845,-0.0245747 -0.0562631,-0.00856881 -0.100077,-0.005982 -0.132574,0.00646703 -0.0316884,0.0139041 -0.0588499,0.0312034 -0.0798678,0.053353 -0.0218262,0.0219879 -0.0433291,0.0402572 -0.0664487,0.0556164 -0.0229579,0.0140658 -0.0535146,0.0190777 -0.0907,0.0139041 -0.048341,-0.00970054 -0.0934485,-0.0292633 -0.134837,-0.0572332 -0.0421973,-0.029425 -0.0793827,-0.0604667 -0.113981,-0.0950653 -0.0339519,-0.0344369 -0.0633768,-0.0641852 -0.0894066,-0.0907 -0.0261915,-0.0253831 -0.0476943,-0.0407423 -0.0645086,-0.0449458 -0.0210178,-0.00371854 -0.053353,-0.000323351 -0.096197,0.0101856 -0.042844,0.00937719 -0.0882749,0.0260298 -0.136454,0.0486644 -0.0470476,0.0215029 -0.0879515,0.0491494 -0.123682,0.0818079 -0.0357303,0.0324968 -0.0565865,0.0703289 -0.0624068,0.112041 -0.00274849,0.0240897 0.0108323,0.0821312 0.0389638,0.174933 0.0287783,0.0944186 0.0729157,0.215999 0.131119,0.367327 0.0300717,0.0751792 0.0855264,0.140496 0.164586,0.193202 0.0800294,0.0541613 0.175741,0.090215 0.288591,0.111395 0.0455925,0.00792211 0.0915084,0.0121257 0.139364,0.0101856 0.0485027,-0.000646703 0.0986221,-0.0072754 0.152622,-0.0211795 0.0585266,0.0970054 0.142275,0.202256 0.249627,0.313004 0.108323,0.110909 0.238633,0.241058 0.390123,0.389315 -0.185119,-0.107514 -0.351321,-0.196113 -0.499093,-0.267411 -0.147933,-0.0698439 -0.279214,-0.116245 -0.395944,-0.137909 -0.216484,-0.0379938 -0.332728,0.011479 -0.348411,0.14858 -0.00339519,0.036862 0.00194011,0.0753408 0.0137424,0.116245 0.0127724,0.0397722 0.0245747,0.0884366 0.0367004,0.143568 0.0118023,0.0564248 0.0164909,0.125945 0.0116406,0.209208 -0.00614367,0.0958736 0.00161676,0.187867 0.0232813,0.277112 0.0210178,0.0877899 0.0502811,0.161514 0.0871432,0.219717 0.0367004,0.0594966 0.0763109,0.0936102 0.117053,0.102017 0.0352453,0.00614367 0.0661253,-0.0103472 0.0928018,-0.0485027 0.0268382,-0.0392872 0.0457542,-0.101856 0.0567481,-0.189322 0.00307184,-0.0355686 0.00937719,-0.0643469 0.0176226,-0.0861731 0.00824546,-0.0205328 0.0215029,-0.0350836 0.041874,-0.0431674 0.0200478,-0.00679038 0.0501194,-0.0066287 0.0890833,0.000161676 0.191909,0.0336285 0.351968,0.0824546 0.4805,0.14373 0.12837,0.0625685 0.221981,0.133382 0.280507,0.214867 0.0357303,0.0515745 0.0624068,0.105413 0.0819695,0.161837 0.018916,0.0551314 0.0384788,0.103796 0.0590116,0.144861 0.0203711,0.0412273 0.0493111,0.0669337 0.0881132,0.0750175 0.0286166,0.00371854 0.0643469,-0.00291016 0.107353,-0.0226346 0.0438141,-0.0194011 0.0877899,-0.047856 0.133059,-0.0866581 0.0451075,-0.0386405 0.084233,-0.0835863 0.117377,-0.135969 0.0331435,-0.0523829 0.054323,-0.109454 0.0622451,-0.170244 0.00339519,-0.0381554 -0.00145508,-0.0882749 -0.0153592,-0.152783 -0.0139041,-0.0645086 -0.0331435,-0.132574 -0.0575565,-0.20549 -0.0245747,-0.0729157 -0.0515745,-0.141143 -0.0803528,-0.203065 -0.029425,-0.0633768 -0.0577182,-0.112365 -0.084718,-0.148095 -0.0391255,-0.0470476 -0.0903767,-0.0974904 -0.154077,-0.151328 -0.0625685,-0.0536763 -0.134029,-0.113981 -0.21228,-0.18334 -0.0784127,-0.0682271 -0.158442,-0.146963 -0.242028,-0.236531 -0.0835863,-0.0910234 -0.164424,-0.195789 -0.242675,-0.315752zm-0.877575 3.22381c0.0751792,0.00291016 0.15149,-0.0108323 0.228448,-0.0400956 0.0761492,-0.0307184 0.150035,-0.0746941 0.221011,-0.134676 0.0706522,-0.0588499 0.135322,-0.131604 0.194496,-0.216969 0.120125,0.0923168 0.224082,0.190777 0.312842,0.295543 0.0885982,0.104766 0.160867,0.20937 0.217939,0.311226 0.0561014,0.101856 0.0978138,0.194496 0.123035,0.27792 0.0252214,0.0832629 0.0352453,0.148418 0.029425,0.197891 -0.00695205,0.0609517 -0.030395,0.104766 -0.0683888,0.131604 -0.0389638,0.0268382 -0.0892449,0.0349219 -0.152945,0.0237663 -0.0446225,-0.00792211 -0.107191,-0.0291016 -0.18528,-0.0661253 -0.0780893,-0.0370237 -0.167819,-0.090215 -0.268543,-0.158442 -0.100401,-0.0693588 -0.206783,-0.155209 -0.318016,-0.257549 -0.111233,-0.103634 -0.223274,-0.224244 -0.334022,-0.364094zm-0.419063 0.00420357c0.0683888,0.26434 0.155532,0.5075 0.263855,0.728349 0.107353,0.220687 0.229418,0.41292 0.365387,0.579122 0.134837,0.166041 0.279214,0.301202 0.430219,0.402734 0.151167,0.101532 0.304435,0.166041 0.459159,0.194496 0.0455925,0.00792211 0.0974904,0.00404189 0.155532,-0.0129341 0.0582032,-0.0169759 0.117215,-0.0493111 0.175095,-0.0986221 0.0578799,-0.0481793 0.108323,-0.11576 0.15246,-0.203711 0.0447841,-0.0866581 0.0750175,-0.196436 0.0911851,-0.329495 0.012449,-0.107838 0.0126107,-0.226831 0.000485027,-0.357141 -0.0121257,-0.130311 -0.0360537,-0.266441 -0.0708139,-0.409686 -0.0360537,-0.142275 -0.0834246,-0.285196 -0.142436,-0.428764 -0.0590116,-0.143568 -0.129179,-0.282771 -0.211795,-0.416315 -0.117862,-0.195304 -0.250597,-0.346794 -0.396914,-0.456572 -0.145185,-0.109454 -0.313489,-0.18043 -0.502488,-0.213574 -0.0523829,-0.0247364 -0.0984605,-0.0444608 -0.137424,-0.0590116 -0.0400956,-0.0147125 -0.0737241,-0.0245747 -0.102341,-0.0295866 -0.0779277,-0.0122873 -0.152298,-0.005982 -0.224891,0.0176226 -0.0716223,0.024898 -0.138556,0.0596583 -0.199184,0.106059 -0.0615984,0.0460776 -0.115598,0.0949036 -0.161352,0.147772 -0.0468859,0.0525446 -0.0834246,0.100562 -0.109778,0.145023 -0.0265148,0.0446225 -0.041874,0.0767959 -0.0442991,0.0982988 -0.00323351,0.0279699 -0.000485027,0.0711373 0.00840713,0.12837 0.00792211,0.0570715 0.0223112,0.117862 0.0409039,0.183178 0.0185927,0.065317 0.0410656,0.123682 0.0688738,0.176388 0.0268382,0.0525446 0.0575565,0.0890833 0.0921551,0.107999zm0.924461 3.98239c0.0997539,-0.302172 0.222789,-0.521242 0.370561,-0.659798 0.14664,-0.137263 0.310902,-0.191424 0.491332,-0.159736 0.132897,0.0232813 0.263208,0.0863348 0.392872,0.18916 0.128694,0.102826 0.248334,0.241543 0.35698,0.415991 0.0570715,0.0940952 0.103472,0.186412 0.138718,0.276627 0.0350836,0.090215 0.0606284,0.171053 0.0745325,0.243483 0.0148742,0.0737241 0.0198861,0.130311 0.0150358,0.172185 -0.00824546,0.072269 -0.0350836,0.136131 -0.0784127,0.193202 -0.0442991,0.0569098 -0.103634,0.0995922 -0.177358,0.126754 -0.0738858,0.0271615 -0.160867,0.0326585 -0.259651,0.0166526 -0.0790594,-0.0126107 -0.182208,-0.0501194 -0.311064,-0.110101 -0.128532,-0.0614367 -0.279214,-0.149873 -0.449943,-0.26531 -0.170729,-0.115275 -0.358273,-0.262076 -0.563601,-0.439111zm-0.213574 0.692457c0.120772,0.0780893 0.24025,0.159897 0.359405,0.24413 0.118185,0.084233 0.240573,0.165071 0.368135,0.24316 0.126754,0.0779277 0.263046,0.148257 0.409039,0.208885 0.145185,0.060305 0.306537,0.106706 0.482117,0.138879 0.258196,0.0465626 0.459159,0.0687121 0.603858,0.0656403 0.14373,-0.00323351 0.237178,-0.0399339 0.279375,-0.112688 0.00759875,-0.0155209 0.0205328,-0.0430057 0.0376704,-0.0827779 0.0172993,-0.0409039 0.0349219,-0.0843947 0.0539997,-0.131604 0.018916,-0.0470476 0.035407,-0.0895683 0.0494727,-0.127239 0.0130957,-0.0376704 0.0216645,-0.06079 0.0229579,-0.072269 0.0106706,-0.101694 -0.0150358,-0.231681 -0.0772809,-0.38883 -0.0622451,-0.158442 -0.156179,-0.35213 -0.281639,-0.582517 -0.286004,-0.536763 -0.548242,-0.951461 -0.784935,-1.2428 -0.236693,-0.292633 -0.453177,-0.456087 -0.648804,-0.491656 -0.162322,-0.0284549 -0.308315,0.00291016 -0.437979,0.0928018 -0.129664,0.0911851 -0.248657,0.241058 -0.358273,0.452207 -0.110424,0.209693 -0.216322,0.481147 -0.319471,0.81242 0.00824546,-0.231519 0.0185927,-0.430219 0.0312034,-0.597715 0.0113173,-0.166203 0.0211795,-0.301525 0.0271615,-0.404027 0.00614367,-0.103796 0.00468859,-0.175256 -0.00517362,-0.215837 -0.0313651,-0.123197 -0.0729157,-0.224891 -0.126754,-0.304274 -0.0530296,-0.0779277 -0.110586,-0.124167 -0.171214,-0.136131 -0.0305567,-0.00404189 -0.059335,0.00129341 -0.084718,0.0200478 -0.0252214,0.0176226 -0.0465626,0.042359 -0.0628918,0.0743708 -0.0172993,0.0333052 -0.0281316,0.0675804 -0.0326585,0.106868 -0.00194011,0.0255447 -0.00161676,0.0813228 0.00177843,0.169921 0.00339519,0.0885982 0.00501194,0.207915 0.00485027,0.360537 0.000970054,0.151652 -0.00485027,0.336932 -0.0155209,0.555032 -0.298615,-0.258034 -0.544685,-0.486159 -0.736918,-0.684211 -0.192232,-0.198053 -0.330465,-0.36862 -0.41583,-0.511703 -0.0224729,-0.0400956 -0.0434907,-0.0839097 -0.0633768,-0.130149 -0.0197244,-0.0475326 -0.0415506,-0.0939335 -0.065317,-0.139526 -0.023928,-0.0442991 -0.054323,-0.0832629 -0.0903767,-0.115598 -0.035892,-0.0334669 -0.0809995,-0.0541613 -0.135969,-0.0651553 -0.042844,-0.00630535 -0.0835863,-0.00565865 -0.122227,0.00194011 -0.0384788,0.00614367 -0.0735624,0.00776043 -0.105251,0.00485027 -0.0111556,-0.00339519 -0.0252214,-0.00840713 -0.0409039,-0.0150358 -0.0164909,-0.00808378 -0.0342752,-0.0137424 -0.0541613,-0.0172993 -0.0522212,-0.00905384 -0.0940952,0.000323351 -0.127077,0.0269998 -0.0321734,0.0266765 -0.0527063,0.0696822 -0.0591733,0.126754 -0.0215029,0.186412 0.00582032,0.36862 0.0824546,0.545009 0.0755025,0.176388 0.197891,0.358273 0.367489,0.54323 0.169598,0.185119 0.38301,0.384303 0.640559,0.59626 0.258519,0.21228 0.558751,0.44865 0.901018,0.706684 0.005982,0.140819 0.00953886,0.252861 0.00986221,0.334345 0.00129341,0.0818079 0.00388022,0.134029 0.00889216,0.158119 0.0111556,0.0381554 0.0360537,0.0827779 0.072754,0.134514 0.0365387,0.0515745 0.0790594,0.103149 0.126592,0.154077 0.047371,0.0510895 0.0936102,0.0953886 0.138071,0.130311 0.0441374,0.0362153 0.0805145,0.0569098 0.107029,0.0628918 0.0181077,0.00307184 0.0375087,-0.0142275 0.0573948,-0.0520596 0.0206945,-0.0365387 0.0446225,-0.0931252 0.072754,-0.168466 0.0291016,-0.0764726 0.0649936,-0.169759 0.107999,-0.281316zm-0.141951 2.289c-0.172023,-0.0378321 -0.323351,-0.0942569 -0.455117,-0.170406 -0.131766,-0.0761492 -0.240897,-0.162484 -0.328848,-0.256903 -0.0877899,-0.095712 -0.152622,-0.189807 -0.193849,-0.285034 -0.0415506,-0.0939335 -0.0588499,-0.178652 -0.0504428,-0.252052 0.00404189,-0.0342752 0.0185927,-0.060305 0.0436524,-0.0766342 0.0252214,-0.0161676 0.0606284,-0.0216645 0.106383,-0.0135808 0.0672571,0.0118023 0.141143,0.0441374 0.219394,0.096682 0.0784127,0.0512512 0.158442,0.122227 0.237987,0.212442 0.0806761,0.0905384 0.156664,0.197083 0.229418,0.322381 0.071784,0.125137 0.135969,0.265795 0.191424,0.423105zm0.267897 -0.0539997c-0.0370237,-0.191586 -0.0903767,-0.367812 -0.159897,-0.530134 -0.0682271,-0.163454 -0.14761,-0.306699 -0.237178,-0.429734 -0.0903767,-0.123359 -0.184795,-0.220041 -0.284064,-0.293118 -0.030395,-0.0221496 -0.0620834,-0.0407423 -0.0952269,-0.0556164 -0.0342752,-0.0137424 -0.0675804,-0.0273232 -0.101856,-0.0410656 -0.0341136,-0.0150358 -0.0669337,-0.0337902 -0.0991072,-0.0562631 -0.0158442,-0.0143891 -0.0362153,-0.03088 -0.0611134,-0.0507661 -0.0257064,-0.0200478 -0.0573948,-0.0399339 -0.0958736,-0.0582032 -0.0384788,-0.0197244 -0.0843947,-0.0329818 -0.139364,-0.0439758 -0.140658,-0.0232813 -0.254477,-0.00307184 -0.340327,0.06079 -0.0868198,0.0637002 -0.138233,0.164747 -0.155047,0.302818 -0.0072754,0.0620834 -0.00242513,0.147125 0.0134191,0.253346 0.0168143,0.106544 0.0454309,0.227963 0.0850414,0.363123 0.0405806,0.135161 0.0940952,0.276627 0.159412,0.423913 0.065317,0.147286 0.14373,0.291825 0.234591,0.435877 0.0780893,0.121095 0.164101,0.231843 0.255286,0.33192 0.0921551,0.100401 0.184795,0.187705 0.278729,0.263693 0.0940952,0.0746941 0.183987,0.135808 0.268705,0.181723 0.0858498,0.0460776 0.161029,0.0748558 0.225537,0.0861731 0.12837,0.0211795 0.24025,0.017461 0.3358,-0.0122873 0.0963587,-0.0297483 0.17267,-0.0784127 0.229903,-0.146155 0.0573948,-0.0688738 0.0910234,-0.149712 0.102826,-0.244615 0.0142275,-0.113981 0.0349219,-0.226831 0.0614367,-0.33871 0.0271615,-0.110424 0.0530296,-0.21713 0.0795444,-0.319956 0.0255447,-0.104119 0.0444608,-0.201771 0.0559398,-0.292956 0.00792211,-0.0763109 0.00824546,-0.162969 0.00113173,-0.261268 -0.00808378,-0.0971671 -0.0218262,-0.196598 -0.0420357,-0.298453 -0.0203711,-0.102017 -0.0452692,-0.196921 -0.0738858,-0.284711 -0.0286166,-0.0879515 -0.0609517,-0.159574 -0.0950653,-0.217292 -0.0331435,-0.0562631 -0.0682271,-0.0882749 -0.104281,-0.0958736 -0.0295866,-0.00388022 -0.054808,0.00582032 -0.0769576,0.0291016 -0.0231196,0.024413 -0.0367004,0.0583649 -0.0431674,0.105089 -0.00258681,0.0305567 0.00388022,0.0679038 0.0181077,0.11188 0.0142275,0.0452692 0.0305567,0.0971671 0.0497961,0.156179 0.0194011,0.0591733 0.0339519,0.12643 0.0446225,0.201933 0.0108323,0.0743708 0.0118023,0.157472 0.00226346,0.24898 -0.0137424,0.119155 -0.0470476,0.223436 -0.0979754,0.312842 -0.0520596,0.0892449 -0.117862,0.156664 -0.199669,0.201771zm-2.03356 2.81154c-0.121418,-0.350028 -0.237501,-0.645894 -0.348411,-0.885336 -0.110748,-0.240735 -0.220041,-0.426824 -0.329172,-0.557296 -0.108969,-0.130311 -0.222304,-0.205975 -0.339034,-0.226346 -0.144538,-0.0240897 -0.281477,0.0205328 -0.411949,0.134837 -0.129341,0.113173 -0.24316,0.293926 -0.340166,0.538218 -0.096197,0.245909 -0.166364,0.551961 -0.210825,0.920743 -0.0502811,0.444123 -0.0675804,0.872078 -0.0517362,1.28112 0.0147125,0.410333 0.0573948,0.81242 0.126107,1.20885 0.0683888,0.39756 0.157957,0.797708 0.267088,1.20368 0.0341136,0.132897 0.0638619,0.244292 0.0882749,0.335154 0.0253831,0.0911851 0.0485027,0.159897 0.0700055,0.207753 0.0224729,0.0491494 0.0455925,0.0753408 0.072269,0.0798678 0.0257064,0.00323351 0.0520596,-0.00630535 0.0792211,-0.0313651 0.0278082,-0.0236046 0.0522212,-0.0580415 0.0737241,-0.102179 0.0216645,-0.0441374 0.0352453,-0.0947419 0.0425207,-0.15052 0.00517362,-0.0520596 0.000323351,-0.0944186 -0.0143891,-0.126754 -0.0147125,-0.0323351 -0.0318501,-0.05982 -0.0523829,-0.084233 -0.0202095,-0.0255447 -0.0375087,-0.0518979 -0.0506045,-0.0813228 -0.0150358,-0.0375087 -0.0349219,-0.143245 -0.059335,-0.317046 -0.0255447,-0.174125 -0.0475326,-0.412111 -0.0659637,-0.714283 -0.0192394,-0.337255 -0.0263531,-0.662062 -0.0213412,-0.974419 0.00517362,-0.313489 0.0247364,-0.618086 0.0588499,-0.913629 0.0379938,-0.329818 0.0871432,-0.604667 0.145185,-0.822282 0.0590116,-0.217292 0.123197,-0.378159 0.194172,-0.482278 0.0709756,-0.102664 0.145023,-0.147933 0.221981,-0.134514 0.11867,0.0208562 0.239603,0.131281 0.361022,0.331273 0.122227,0.199993 0.247687,0.489877 0.378321,0.869815 0.0194011,0.0578799 0.036377,0.112526 0.0507661,0.164262 0.0135808,0.0502811 0.0305567,0.0973287 0.0499578,0.138233 0.0205328,0.0410656 0.0486644,0.0745325 0.0850414,0.102826 0.0169759,0.0302333 0.0336285,0.053838 0.0507661,0.0724307 0.017461,0.0171376 0.0365387,0.0282932 0.059335,0.0323351 0.0502811,0.00873048 0.0858498,-0.00565865 0.107676,-0.0433291 0.0227963,-0.0386405 0.0379938,-0.103311 0.0475326,-0.193526 0.00792211,-0.0774426 0.0142275,-0.157957 0.0194011,-0.243807 0.00517362,-0.0869815 0.0122873,-0.173801 0.0213412,-0.261429 0.0347603,-0.300717 0.101371,-0.518009 0.199346,-0.653493 0.0981371,-0.135646 0.226184,-0.18819 0.382848,-0.160706 0.11479,0.0213412 0.216807,0.0780893 0.306052,0.170083 0.0890833,0.0919934 0.162646,0.210987 0.220202,0.358273 0.0578799,0.145993 0.0968437,0.312034 0.117053,0.497961 0.0202095,0.186089 0.018916,0.382525 -0.00436524,0.592056 -0.0258681,0.216645 -0.0672571,0.398369 -0.124814,0.544847 -0.0577182,0.147772 -0.12546,0.256256 -0.204358,0.326585 -0.077766,0.0704906 -0.159412,0.0976521 -0.24607,0.083748 -0.0633768,-0.012449 -0.145831,-0.0709756 -0.246394,-0.173963 -0.101371,-0.103149 -0.226993,-0.241705 -0.378321,-0.415668 -0.150682,-0.17267 -0.333213,-0.371692 -0.546787,-0.594158 -0.223759,-0.228124 -0.411141,-0.400794 -0.561499,-0.516392 -0.15052,-0.115598 -0.262238,-0.180592 -0.333537,-0.191747 -0.0514128,-0.00776043 -0.0936102,0.00436524 -0.125299,0.0362153 -0.03088,0.0321734 -0.0507661,0.0790594 -0.0580415,0.141304 -0.00711373,0.0711373 0.00161676,0.137424 0.0245747,0.199669 0.0236046,0.0637002 0.0518979,0.129502 0.0863348,0.200154 0.030395,0.0725924 0.0569098,0.145831 0.0793827,0.219717 0.0215029,0.0737241 0.048826,0.139364 0.0818079,0.196759 0.0172993,0.0276465 0.0874665,0.0995922 0.21034,0.2181 0.123035,0.11867 0.299423,0.277597 0.529164,0.478398 0.429572,0.375572 0.767151,0.666427 1.01387,0.871432 0.245747,0.204843 0.408231,0.316076 0.486967,0.331112 0.0779277,0.012449 0.156987,-0.0176226 0.237016,-0.0903767 0.0813228,-0.0737241 0.15343,-0.186574 0.217615,-0.33968 0.0640235,-0.153107 0.109131,-0.341944 0.137263,-0.568775 0.0245747,-0.21422 0.0373471,-0.433452 0.0381554,-0.658505 0.000485027,-0.223759 -0.00856881,-0.446548 -0.0295866,-0.66772 -0.0210178,-0.221011 -0.0525446,-0.434907 -0.0931252,-0.63878 -0.0412273,-0.205166 -0.0921551,-0.394004 -0.152298,-0.568937 -0.0763109,-0.220364 -0.160382,-0.407261 -0.250112,-0.561499 -0.0908617,-0.1544 -0.181723,-0.273879 -0.272747,-0.358273 -0.0910234,-0.0845564 -0.176226,-0.134514 -0.255124,-0.148418 -0.135969,-0.0224729 -0.260944,0.0113173 -0.375087,0.102502 -0.113335,0.0915084 -0.210502,0.236208 -0.291501,0.435554 -0.0800294,0.198214 -0.137748,0.445578 -0.172993,0.743546 -0.00404189,0.0342752 -0.00759875,0.0737241 -0.0101856,0.121095 -0.00339519,0.047371 -0.00679038,0.101209 -0.0109939,0.162484zm2.42869 -23.1874c0.00145508,0.0690355 -0.0879515,0.239118 -0.26919,0.510087 -0.197891,0.294411 -0.346309,0.442506 -0.445578,0.444608 -0.0863348,0.00177843 -0.131766,-0.0779277 -0.134999,-0.23928 -0.00145508,-0.0690355 -0.00986221,-0.11382 -0.0252214,-0.134191 -0.0153592,-0.0203711 -0.0528679,-0.0300717 -0.111556,-0.0289399 -0.213412,0.00436524 -0.54711,0.0688738 -1.00465,0.193364 -0.528518,0.144376 -0.962778,0.30298 -1.30391,0.475973 -0.437333,0.220849 -0.653978,0.434907 -0.649613,0.642337 0.00210178,0.105898 0.0612751,0.181885 0.17752,0.227963 0.116083,0.0459159 0.308639,0.066287 0.577505,0.06079 0.183502,-0.00371854 0.332728,-0.00905384 0.447841,-0.0160059 0.460452,-0.0278082 0.714121,-0.0421973 0.761169,-0.0431674 0.567481,-0.0116406 1.01451,0.0345986 1.3411,0.138556 0.438141,0.138556 0.660768,0.380584 0.667882,0.726085 0.00679038,0.331597 -0.244454,0.680169 -0.75357,1.04539 -0.357626,0.256094 -0.605152,0.466273 -0.742738,0.630373 -0.193687,0.12837 -0.572332,0.297483 -1.13577,0.507015 -0.622775,0.233945 -1.21014,0.421003 -1.76226,0.561338 -0.683726,0.175256 -1.23682,0.26725 -1.65912,0.275819 -0.0640235,0.00129341 -0.110101,-0.00808378 -0.138394,-0.0282932 -0.0281316,-0.0202095 -0.042844,-0.0670954 -0.0444608,-0.140819 -0.00129341,-0.0645086 0.107514,-0.175095 0.326261,-0.331597 0.218747,-0.156502 0.333052,-0.308639 0.342914,-0.456249 0.0831013,-0.112365 0.237987,-0.258358 0.464817,-0.438141 0.226831,-0.179783 0.368135,-0.27016 0.42359,-0.271292 0.0255447,-0.000646703 0.0514128,0.00921551 0.0774426,0.029425 0.0260298,0.0202095 0.0391255,0.0373471 0.0394489,0.0510895 0.00177843,0.0921551 -0.0389638,0.182855 -0.12255,0.2721 -0.0963587,0.0895683 -0.192717,0.1814 -0.288914,0.275495 0.000161676,0.00921551 0.0153592,0.0203711 0.0454309,0.0336285 0.128047,-0.00258681 0.506368,-0.0793827 1.13512,-0.230549 0.794312,-0.191262 1.44344,-0.386566 1.94738,-0.585751 0.68599,-0.2721 1.02664,-0.525607 1.02179,-0.760522 -0.00274849,-0.138233 -0.108323,-0.240897 -0.316723,-0.308154 -0.2084,-0.0670954 -0.532398,-0.096197 -0.971832,-0.0873048l-0.69084 0.0347603c-0.512027,0.0105089 -0.862378,-0.104442 -1.05073,-0.344854 -0.0921551,-0.118023 -0.208562,-0.17558 -0.349381,-0.17267 -0.123682,0.00258681 -0.216969,-0.0185927 -0.279861,-0.0633768 -0.0627301,-0.0447841 -0.0953886,-0.127239 -0.0978138,-0.246879 -0.00711373,-0.345501 0.239118,-0.726247 0.738696,-1.14191 0.453338,-0.377998 1.00692,-0.704906 1.66089,-0.980886 0.653816,-0.276142 1.20917,-0.41874 1.66574,-0.428117 0.140658,-0.00274849 0.256418,0.0190777 0.346956,0.0656403 0.0907,0.0465626 0.137424,0.138879 0.140173,0.277112zm2.20332 1.28241c0.000323351,0.0229579 -0.06079,0.164747 -0.183502,0.425369 -0.134999,0.288591 -0.21034,0.465141 -0.226184,0.529973 0.281639,-0.00565865 0.42359,0.047856 0.426015,0.160706 0.000970054,0.0541613 -0.0388022,0.142598 -0.119478,0.26628 -0.0806761,0.123844 -0.144538,0.191909 -0.191101,0.206783l-0.35213 0.00711373c-0.0674187,0.0381554 -0.125299,0.134999 -0.173316,0.290369 -0.0480177,0.15537 -0.0711373,0.281477 -0.0690355,0.378159 0.00210178,0.110586 0.0263531,0.196598 0.0724307,0.257873 0.0460776,0.0612751 0.120287,0.0908617 0.222627,0.0887599 0.0470476,-0.000970054 0.148742,-0.0376704 0.305244,-0.109939 0.071784,-0.0337902 0.135484,-0.0510895 0.190939,-0.0522212 0.0853647,-0.00177843 0.128855,0.0410656 0.130796,0.128694 0.000646703,0.0367004 -0.00824546,0.0691972 -0.0268382,0.0973287 -0.0187544,0.0279699 -0.0637002,0.0750175 -0.134837,0.140981 -0.146478,0.141143 -0.288429,0.247849 -0.425692,0.319794 -0.137263,0.071784 -0.293441,0.109616 -0.468374,0.113173 -0.196274,0.00404189 -0.353585,-0.0711373 -0.472093,-0.226508 -0.118347,-0.155532 -0.179783,-0.340974 -0.184149,-0.555194 -0.00161676,-0.078251 0.0218262,-0.189322 0.0700055,-0.334345 0.048341,-0.145023 0.0986221,-0.293441 0.151005,-0.445578 -0.000485027,-0.0263531 -0.00517362,-0.0447841 -0.0139041,-0.053838 -0.00873048,-0.00905384 -0.0151975,-0.0158442 -0.0195628,-0.0203711 -0.119478,0.00242513 -0.179783,-0.023928 -0.180915,-0.0803528 -0.00161676,-0.0737241 0.0564248,-0.161352 0.173963,-0.260459 0.167658,-0.147448 0.259974,-0.231196 0.276627,-0.249951 0.154885,-0.355686 0.279375,-0.637002 0.373471,-0.842977 0.0939335,-0.205813 0.168466,-0.316723 0.223759,-0.331758 0.0764726,-0.0106706 0.158119,-0.0434907 0.244454,-0.0994305 0.0863348,-0.054808 0.15731,-0.0826162 0.212765,-0.083748 0.05982,-0.00129341 0.101856,0.0255447 0.12643,0.0803528 0.0247364,0.054808 0.0381554,0.139688 0.0405806,0.254962zm2.9522 0.651876c0.00404189,0.193526 -0.0575565,0.524152 -0.184634,0.992365 -0.127077,0.468051 -0.18819,0.821797 -0.18334,1.0614 0.000485027,0.0229579 0.0100239,0.0700055 0.0286166,0.141143 0.018431,0.0709756 0.0321734,0.115598 0.0410656,0.133867 -0.0158442,0.060305 -0.0404189,0.109131 -0.0737241,0.146801 -0.0334669,0.0375087 -0.0779277,0.0567481 -0.133382,0.0578799 -0.0171376,0.000485027 -0.0470476,-0.00824546 -0.090215,-0.0257064 -0.0430057,-0.0176226 -0.0772809,-0.0260298 -0.102987,-0.0255447l-0.153107 0.0237663c-0.0939335,0.00194011 -0.156502,-0.0866581 -0.187867,-0.265795 -0.0315267,-0.178975 -0.0502811,-0.42068 -0.0564248,-0.72463 -0.0507661,0.231519 -0.317369,0.451237 -0.799809,0.659152 -0.376543,0.164424 -0.628918,0.247849 -0.756804,0.250436 -0.08973,0.00194011 -0.163292,-0.0507661 -0.221011,-0.157957 -0.0577182,-0.107029 -0.0876282,-0.215837 -0.0898916,-0.326423 -0.00194011,-0.0968437 0.0145508,-0.180107 0.0493111,-0.249951 0.0349219,-0.0698439 0.0687121,-0.137263 0.101532,-0.20258 0.124975,-0.361992 0.428764,-0.748396 0.911366,-1.15921 0.503458,-0.429572 0.932222,-0.647996 1.28645,-0.655271 0.110909,-0.00226346 0.240573,0.0261915 0.389153,0.0853647 0.148418,0.0591733 0.223759,0.139526 0.225699,0.240897zm-0.560853 0.128855c-0.000323351,-0.018431 -0.00808378,-0.0320118 -0.0231196,-0.0409039 -0.0151975,-0.00889216 -0.0334669,-0.0132574 -0.054808,-0.0127724 -0.196274,0.00404189 -0.480823,0.229903 -0.853809,0.677583 -0.372824,0.44768 -0.557134,0.782187 -0.552607,1.00336 0.000970054,0.0460776 0.0206945,0.0687121 0.0590116,0.0679038 0.179298,-0.00371854 0.462392,-0.244454 0.849767,-0.722528 0.387213,-0.477913 0.579122,-0.802073 0.575565,-0.972641zm3.5124 0.163616c0.00274849,0.138071 -0.0194011,0.309124 -0.0664487,0.512835 -0.101856,0.444608 -0.15149,0.733522 -0.148742,0.867228 0.000646703,0.0321734 0.0231196,0.0869815 0.0672571,0.164424 0.0223112,0.0410656 0.0334669,0.066287 0.0336285,0.0755025 0.00161676,0.0827779 -0.0881132,0.182532 -0.26919,0.299262 -0.181238,0.116568 -0.314459,0.175741 -0.399824,0.17752 -0.0640235,0.00129341 -0.120448,-0.041389 -0.169113,-0.127885 -0.0486644,-0.0866581 -0.0750175,-0.226669 -0.0790594,-0.420195 -0.00307184,-0.156664 0.048826,-0.378806 0.156179,-0.66675 0.107191,-0.287944 0.159412,-0.503296 0.156502,-0.646217 -0.0512512,0.00113173 -0.161837,0.12546 -0.331758,0.373147 -0.107838,0.1544 -0.271292,0.406614 -0.490524,0.756642 -0.202418,0.326746 -0.326585,0.51817 -0.372339,0.574434 -0.0126107,0.00953886 -0.114143,0.0599817 -0.304274,0.15149 -0.0255447,0.00970054 -0.0614367,0.0287783 -0.107676,0.0573948 -0.0258681,-0.00856881 -0.0661253,-0.0459159 -0.120772,-0.111556 -0.054808,-0.0656403 -0.0822929,-0.112365 -0.0829396,-0.140011 -0.00274849,-0.133544 0.071299,-0.483087 0.221981,-1.04847 0.126754,-0.486482 0.232328,-0.850414 0.317046,-1.0918 0.00808378,-0.0231196 0.0522212,-0.0632152 0.132089,-0.120125 0.159897,-0.113981 0.265471,-0.171376 0.316723,-0.172346 0.0724307,-0.00161676 0.142275,0.0200478 0.20937,0.0648319 0.0670954,0.0446225 0.101371,0.106221 0.102987,0.184472 0.000970054,0.0507661 -0.0819695,0.271292 -0.24898,0.6619 -0.0978138,0.232328 -0.158765,0.385758 -0.182855,0.459967l0.0392872 0.0405806c0.314944,-0.467243 0.511865,-0.750013 0.591086,-0.848474 0.303627,-0.388668 0.542907,-0.584781 0.718001,-0.588338 0.0937719,-0.00194011 0.168143,0.0345986 0.223112,0.109454 0.054808,0.0750175 0.0845564,0.225214 0.0892449,0.451075zm2.69206 -0.490524c0.00646703,0.318016 -0.0215029,0.619218 -0.0840713,0.903928 -0.0624068,0.284711 -0.166041,0.543715 -0.310579,0.777175 -0.217615,0.221011 -0.435069,0.442021 -0.652523,0.663032 -0.2181,0.188837 -0.44671,0.285681 -0.685666,0.290531 -0.149227,0.00307184 -0.274202,-0.054323 -0.374764,-0.172023 -0.100724,-0.117862 -0.152622,-0.257388 -0.155855,-0.418578 -0.00194011,-0.0921551 0.0108323,-0.203065 0.0379938,-0.332567 0.0507661,-0.236046 0.0814845,-0.400309 0.0924785,-0.492787 0.131119,-0.269998 0.33289,-0.527548 0.605314,-0.772809 0.251567,-0.221657 0.514937,-0.392872 0.789947,-0.513805 -0.155532,-0.508308 -0.36377,-0.881941 -0.624715,-1.1209 -0.233621,-0.151975 -0.465141,-0.30395 -0.694397,-0.455925 -0.00129341,-0.0599817 0.083748,-0.133059 0.254801,-0.219556 0.171053,-0.0864965 0.29716,-0.130472 0.378321,-0.132089 0.290208,-0.005982 0.581547,0.158604 0.874503,0.493596 0.353908,0.403057 0.537086,0.903928 0.549212,1.50277zm-0.585912 0.779438c-0.00371854,-0.175095 -0.0169759,-0.30395 -0.0399339,-0.386405 -0.00485027,-0.0274849 -0.0182693,-0.0549697 -0.0400956,-0.0821312 -0.221981,0.207268 -0.409524,0.434584 -0.56247,0.682109 -0.181723,0.298615 -0.27016,0.56538 -0.265471,0.800294 0.00339519,0.161352 0.0690355,0.240573 0.197083,0.237987 0.200478,-0.00404189 0.374441,-0.161999 0.521727,-0.473871 0.130957,-0.279214 0.194011,-0.538542 0.18916,-0.777983zm5.14323 -12.0757l-0.517685 0.992203c-0.0617601,0.11188 -0.152298,0.277435 -0.271615,0.496344 -0.0987838,0.181723 -0.174125,0.356171 -0.226346,0.523182l0.0585266 0.0402572c0.169436,-0.0633768 0.319148,-0.20355 0.449297,-0.420518 0.129987,-0.216969 0.207753,-0.332567 0.232975,-0.346956l0.0257064 -0.000485027c0.017461,0.0226346 0.0265148,0.047856 0.0271615,0.0755025 0.00371854,0.188837 -0.140334,0.451075 -0.432321,0.786552 -0.291986,0.335477 -0.525446,0.504913 -0.700379,0.50847 -0.136454,0.00274849 -0.231196,-0.0321734 -0.283902,-0.104766 -0.0130957,-0.0181077 -0.0514128,-0.118832 -0.114951,-0.301848 -0.139526,0.279375 -0.334992,0.42165 -0.586883,0.426824 -0.115113,0.00226346 -0.216484,-0.0486644 -0.30395,-0.152945 -0.0874665,-0.104119 -0.132574,-0.218424 -0.135161,-0.342914 -0.00177843,-0.0919934 0.0176226,-0.18916 0.0582032,-0.291501l0.706361 -1.78409 0.734816 -0.0771193c-0.165718,0.247525 -0.326261,0.541128 -0.48147,0.880809 -0.188029,0.414051 -0.279699,0.729319 -0.275334,0.945802 0.00113173,0.0552931 0.0129341,0.110263 0.035407,0.165232 0.0271615,0.0730774 0.0619218,0.109293 0.104604,0.108323 0.115275,-0.00226346 0.333213,-0.30395 0.653978,-0.90506 0.242675,-0.451883 0.424722,-0.8336 0.546464,-1.14483l0.696499 -0.0764726zm-3.20231 1.22663c-0.235238,-0.0227963 -0.404189,-0.14373 -0.506853,-0.362962 -0.0706522,0.0936102 -0.173155,0.293926 -0.30783,0.600787l-0.000161676 -0.00679038c-0.00743708,0.0507661 -0.0396105,0.148257 -0.0965203,0.29231 -0.0486644,0.120772 -0.072269,0.220364 -0.0706522,0.298615 0.00177843,0.0921551 0.0454309,0.137424 0.130796,0.135646 0.277274,-0.00565865 0.561014,-0.324806 0.851222,-0.957605zm0.21034 -0.681786c-0.00323351,-0.151975 -0.0601433,-0.226831 -0.171053,-0.224567 -0.0811612,0.00161676 -0.169921,0.0449458 -0.26628,0.129826 -0.0965203,0.0848797 -0.143891,0.171214 -0.142113,0.258681 0.00177843,0.0876282 0.0472093,0.169598 0.136293,0.24607 0.0890833,0.0766342 0.176226,0.113981 0.261591,0.112203 0.00856881,-0.000161676 0.0192394,-0.00258681 0.0318501,-0.00759875l-0.000161676 -0.00679038c0.0384788,-0.000808378 0.0753408,-0.0753408 0.110748,-0.223597 0.0274849,-0.120287 0.0404189,-0.215029 0.0391255,-0.284226zm0.555194 0.541775c0.00113173,0.0552931 -0.05982,0.100401 -0.182855,0.135161 -0.0976521,0.0295866 -0.182693,0.0451075 -0.255286,0.0465626 -0.0468859,0.000970054 -0.0937719,0.00194011 -0.140658,0.00291016 -0.155532,0.331597 -0.341459,0.6349 -0.557781,0.90894 -0.299747,0.375896 -0.5712,0.565865 -0.814522,0.570715 -0.337094,0.00695205 -0.508955,-0.155532 -0.515745,-0.487129 -0.00824546,-0.405482 0.168143,-0.865288 0.529003,-1.37958 0.377674,-0.533045 0.749852,-0.803366 1.11686,-0.810803 0.290208,-0.005982 0.438141,0.136131 0.444123,0.426339 0.00194011,0.0968437 -0.0410656,0.286651 -0.129341,0.569583 0.0430057,0.0129341 0.0814845,0.0190777 0.115598,0.018431 0.0342752,-0.000808378 0.0853647,-0.00873048 0.153268,-0.023928 0.0680654,-0.0151975 0.118993,-0.0231196 0.153268,-0.023928 0.0554547,-0.00113173 0.0834246,0.0145508 0.0840713,0.0467243zm-3.43367 -3.22058c0.00258681,0.129017 -0.0869815,0.3358 -0.269028,0.620673 -0.30201,0.476296 -0.469344,0.744678 -0.502326,0.805306 -0.176711,0.335315 -0.2624,0.632152 -0.257226,0.890024 0.00420357,0.207268 0.0588499,0.372177 0.163777,0.494404 0.104927,0.122388 0.251244,0.181562 0.439111,0.177682 0.285843,-0.00582032 0.585589,-0.166203 0.899402,-0.48147 0.163131,-0.164586 0.389962,-0.450267 0.680493,-0.857204 -0.275495,0.5172 -0.548565,1.05041 -0.819049,1.59978 -0.225537,0.456249 -0.432159,0.792211 -0.619703,1.00805 -0.292148,0.333213 -0.617278,0.503458 -0.975712,0.510733 -0.183502,0.00371854 -0.359243,-0.0295866 -0.527224,-0.0999155 -0.21519,-0.0923168 -0.324483,-0.21907 -0.327878,-0.380423 -0.00210178,-0.105898 0.0646703,-0.178652 0.200478,-0.218424 0.216484,-0.0596583 0.341782,-0.0944186 0.375734,-0.104442 0.134999,-0.071784 0.200801,-0.199831 0.197083,-0.384141 -0.00274849,-0.133544 -0.0507661,-0.23637 -0.144053,-0.308154 -0.0931252,-0.071784 -0.203873,-0.106544 -0.33192,-0.103796 -0.196274,0.00388022 -0.357788,0.0832629 -0.484865,0.237987 -0.127077,0.154562 -0.188514,0.337902 -0.184149,0.549859 0.00679038,0.336285 0.161352,0.586559 0.463524,0.750983 0.237501,0.128855 0.526739,0.189807 0.868198,0.182855 0.477913,-0.00986221 0.918964,-0.147772 1.32332,-0.414213 0.391902,-0.256741 0.715415,-0.609032 0.971024,-1.05671 0.185442,-0.326423 0.376704,-0.784288 0.573948,-1.3736 0.253184,-0.770223 0.422782,-1.25056 0.50847,-1.44134 0.0286166,-0.0604667 0.165394,-0.266118 0.410009,-0.616631 0.236531,-0.33677 0.354716,-0.507338 0.354555,-0.511865 -0.000485027,-0.0276465 -0.0221496,-0.0410656 -0.0648319,-0.0402572 -0.128047,0.00258681 -0.425045,0.2991 -0.891156,0.889216 -0.286974,0.369914 -0.71978,0.917994 -1.29826,1.64408 -0.487452,0.590601 -0.846372,0.888408 -1.07676,0.893096 -0.119478,0.00242513 -0.180107,-0.0402572 -0.181885,-0.127724 -0.00242513,-0.119802 0.0873048,-0.324321 0.26919,-0.613882 0.285357,-0.452853 0.45253,-0.728187 0.501841,-0.825839 0.180592,-0.349381 0.268543,-0.643792 0.263693,-0.883396 -0.00614367,-0.304112 -0.101694,-0.542907 -0.286651,-0.716546 -0.184957,-0.17364 -0.420518,-0.257549 -0.706361,-0.251729 -0.537571,0.0108323 -1.02777,0.149873 -1.4706,0.416961 -0.464009,0.276789 -0.823252,0.662062 -1.07789,1.15582 -0.131442,0.251567 -0.194981,0.480985 -0.190777,0.688253 0.00485027,0.239603 0.0855264,0.429087 0.242028,0.568775 0.156502,0.139688 0.347926,0.207268 0.57411,0.202741 0.388183,-0.00792211 0.704097,-0.169921 0.947257,-0.485997 0.243322,-0.316076 0.360698,-0.681301 0.352291,-1.096l-0.00129341 -0.0690355c-0.00873048,-0.42844 -0.160382,-0.63975 -0.454794,-0.633768 -0.337094,0.00695205 -0.604667,0.176065 -0.802881,0.507176 -0.173316,0.293926 -0.256094,0.63199 -0.248334,1.01435 0.00921551,0.0321734 0.018431,0.0664487 0.0278082,0.103149 0.129987,-0.113173 0.338225,-0.264986 0.624553,-0.455117 0.0227963,-0.143245 0.0706522,-0.303303 0.143891,-0.479853 0.0978138,-0.23249 0.193526,-0.349704 0.287459,-0.351644 0.0809995,-0.00161676 0.122712,0.0506045 0.124814,0.156502 0.00776043,0.382363 -0.102502,0.730289 -0.33095,1.04378 -0.240735,0.332082 -0.534015,0.501679 -0.879677,0.508632 -0.136454,0.00291016 -0.246394,-0.0502811 -0.329818,-0.159089 -0.0832629,-0.108969 -0.12643,-0.239442 -0.129502,-0.391417 -0.00679038,-0.32707 0.158765,-0.690032 0.496344,-1.08856 0.304435,-0.356495 0.613074,-0.609355 0.925916,-0.758582 0.12255,-0.0577182 0.311549,-0.110101 0.566673,-0.156664 0.238148,-0.0464009 0.433937,-0.0711373 0.587529,-0.0742091 0.328525,-0.00679038 0.495536,0.12352 0.501033,0.39077zm-7.06603 2.38181l-0.036377 -1.78571 -0.27501 0.00565865c-0.187382,0.00371854 -0.321088,0.0375087 -0.400632,0.101371 -0.104927,0.0848797 -0.155047,0.241382 -0.150358,0.469021 0.00614367,0.305405 0.0905384,0.575565 0.253022,0.81048 0.162646,0.234915 0.36571,0.367974 0.609355,0.399177zm1.0247 1.02001l-0.7159 0.0145508c-0.639265,0.0130957 -1.15469,-0.180915 -1.54659,-0.582032 -0.413566,-0.421327 -0.62811,-1.01516 -0.643792,-1.78118 -0.0139041,-0.683241 0.162646,-1.12187 0.529488,-1.31572 0.198214,-0.107676 0.629727,-0.168143 1.29438,-0.181723l-0.0278082 -1.36648 1.00352 -0.0205328 0.106706 5.23312zm-4.34261 -2.17179c-0.00840713,-0.414213 -0.170244,-0.617924 -0.485512,-0.611619 -0.328202,0.00679038 -0.488584,0.193849 -0.480985,0.561338 0.00485027,0.238148 0.0507661,0.503943 0.137748,0.797223 0.105574,0.370722 0.232975,0.554547 0.38204,0.551476 0.144861,-0.00291016 0.262723,-0.1814 0.353585,-0.535308 0.0669337,-0.275819 0.0979754,-0.530296 0.0931252,-0.763109zm1.01144 -0.261429c0.0127724,0.626331 -0.0950653,1.193 -0.323351,1.69986 -0.269028,0.611296 -0.642014,0.921874 -1.11928,0.931575 -0.473063,0.00970054 -0.858498,-0.282771 -1.15614,-0.877414 -0.253184,-0.502326 -0.386243,-1.06399 -0.398854,-1.68515 -0.0113173,-0.559074 0.127562,-0.95809 0.4168,-1.19688 0.230711,-0.186089 0.591086,-0.284064 1.08112,-0.293926 0.473063,-0.00970054 0.826486,0.0788977 1.06059,0.265795 0.281639,0.221981 0.427955,0.607415 0.439111,1.15614zm-3.36867 2.56983l-0.600948 0.0121257c-0.886306,0.0181077 -1.59881,-0.218585 -2.13735,-0.709918 -0.59529,-0.54711 -0.903605,-1.35112 -0.92527,-2.41236 -0.0278082,-1.36648 0.5442,-2.06169 1.71603,-2.08562l1.5149 -0.0307184 0.298938 1.17457c-0.0895683,0.00177843 -0.264501,-0.00630535 -0.524961,-0.0242513 -0.260298,-0.0181077 -0.465141,-0.0255447 -0.614367,-0.0224729 -0.83942,0.0171376 -1.25218,0.367165 -1.23827,1.05057 0.0105089,0.51235 0.134191,0.939659 0.371531,1.28176 0.250112,0.357303 0.582517,0.560368 0.997054,0.60887l-0.0253831 -1.25008 -0.447518 0.00905384 -0.0240897 -1.18007 1.56615 -0.0320118 0.0735624 3.61054zm16.9606 -9.83861c-0.00291016,-0.145023 -0.102502,-0.215514 -0.298453,-0.211472 -0.336609,0.00695205 -0.501033,0.204358 -0.493111,0.592703 0.00307184,0.150035 0.0187544,0.297321 0.047371,0.441698 0.500871,-0.315752 0.748882,-0.590116 0.744193,-0.822929zm1.01209 -0.230388c0.00776043,0.38301 -0.106544,0.737564 -0.342914,1.06334 -0.165879,0.226023 -0.421003,0.469506 -0.765211,0.730289 0.184149,0.042844 0.50847,0.0594966 0.972964,0.0499578l-0.208885 1.04523 -0.364417 0.00743708c-0.622128,0.0126107 -1.12284,-0.186897 -1.50213,-0.598685 -0.392387,-0.426985 -0.596098,-1.01565 -0.611457,-1.76631 -0.0121257,-0.595128 0.117862,-1.01468 0.389962,-1.25848 0.230388,-0.206621 0.599008,-0.315106 1.10602,-0.325453 0.404836,-0.00824546 0.704421,0.0452692 0.898593,0.160382 0.276142,0.160059 0.418578,0.457542 0.42747,0.892288zm-3.3053 0.0907c-0.301687,0.0475326 -0.518332,0.194334 -0.649613,0.440404l0.0494727 2.43015 -1.00352 0.0205328 -0.0788977 -3.86663 0.965203 -0.0197244 0.00468859 0.225214c0.112526,-0.126592 0.217292,-0.211472 0.314459,-0.254962 0.084718,-0.0328202 0.210017,-0.0509278 0.376219,-0.054323l0.0219879 1.07935zm-3.2222 0.663678c-0.00840713,-0.414051 -0.170244,-0.617924 -0.485674,-0.611457 -0.32804,0.0066287 -0.488422,0.193849 -0.480823,0.561338 0.00485027,0.237987 0.0506045,0.503781 0.137586,0.797223 0.105736,0.370561 0.233136,0.554547 0.382201,0.551476 0.144861,-0.00307184 0.262723,-0.1814 0.353585,-0.53547 0.066772,-0.275819 0.0979754,-0.530134 0.0931252,-0.763109zm1.01144 -0.261429c0.0127724,0.626331 -0.0950653,1.193 -0.323513,1.70002 -0.268867,0.611296 -0.642014,0.921874 -1.11912,0.931575 -0.473063,0.00953886 -0.858498,-0.282932 -1.15614,-0.877575 -0.253346,-0.502326 -0.386243,-1.06399 -0.398854,-1.68515 -0.011479,-0.559074 0.127562,-0.957928 0.4168,-1.19688 0.230711,-0.185927 0.591086,-0.283902 1.08112,-0.293926 0.473063,-0.00953886 0.826486,0.0790594 1.06043,0.265795 0.281639,0.222142 0.428117,0.607577 0.439273,1.15614zm-3.27522 -1.62646c-0.00856881,0.000161676 -0.0852031,-0.000970054 -0.230226,-0.00307184 -0.0981371,-0.00323351 -0.178975,0.000970054 -0.242837,0.0126107 -0.0850414,0.00695205 -0.15925,0.0265148 -0.222466,0.0590116 -0.0367004,0.0887599 -0.0539997,0.179622 -0.0520596,0.272908l0.594481 -0.0121257 0.0205328 1.00934 -0.594481 0.0121257 0.0582032 2.85713 -1.00352 0.0205328 -0.0582032 -2.85729 -0.223759 0.00452692 -0.0205328 -1.00934 0.223759 -0.00452692c-0.00986221,-0.486482 0.0470476,-0.829396 0.170891,-1.02874 0.144538,-0.230873 0.412758,-0.350189 0.804821,-0.358273l0.498608 -0.0100239 0.276789 1.03521zm-3.27894 1.58911c-0.00291016,-0.144861 -0.102502,-0.215352 -0.298453,-0.21131 -0.336609,0.00679038 -0.501033,0.204358 -0.493111,0.592541 0.00307184,0.150197 0.018916,0.297483 0.047371,0.441859 0.500871,-0.315752 0.748882,-0.590116 0.744193,-0.823091zm1.01209 -0.230226c0.00776043,0.38301 -0.106544,0.737403 -0.342914,1.06334 -0.165879,0.226023 -0.421003,0.469344 -0.765211,0.730127 0.184149,0.042844 0.50847,0.0596583 0.972964,0.0501194l-0.208885 1.04507 -0.364255 0.00743708c-0.622289,0.0127724 -1.123,-0.186735 -1.50229,-0.598523 -0.392387,-0.426985 -0.596098,-1.01581 -0.611457,-1.76631 -0.0121257,-0.59529 0.117862,-1.01484 0.389962,-1.25848 0.230388,-0.206621 0.599008,-0.315106 1.10602,-0.325453 0.404836,-0.00824546 0.704421,0.0451075 0.898593,0.160221 0.276142,0.160221 0.418578,0.457542 0.42747,0.892449zm-3.018 1.63826c0.0111556,0.543553 -0.164586,0.917348 -0.527063,1.12154 -0.236046,0.134191 -0.607577,0.20646 -1.11459,0.216807l-1.83453 0.0373471 -0.0793827 -3.89768 1.11847 -0.0227963 0.0554547 2.71761 0.703127 -0.0143891c0.106544,-0.00210178 0.216969,-0.0250597 0.331112,-0.0688738 0.0580415,-0.0840713 0.0861731,-0.167496 0.0843947,-0.250274 -0.00856881,-0.419225 -0.381393,-0.833761 -1.1188,-1.24329 0.167334,-0.158765 0.334669,-0.314944 0.502003,-0.468536 0.24219,-0.248334 0.361668,-0.450105 0.358597,-0.605475 -0.00145508,-0.0672571 -0.0282932,-0.131442 -0.0806761,-0.192394 -0.235561,-0.0573948 -0.521727,-0.0826162 -0.858498,-0.0758259 -0.149065,0.00307184 -0.370561,0.0153592 -0.664163,0.036862 -0.293765,0.0215029 -0.506691,0.0336285 -0.63878,0.036377l0.225214 -1.18524 1.84084 -0.0375087c0.443315,-0.00905384 0.770708,0.0515745 0.982179,0.181885 0.289238,0.175418 0.438788,0.506368 0.44865,0.99285 0.00840713,0.414051 -0.162484,0.813713 -0.512673,1.19882 0.5075,0.429895 0.767151,0.937234 0.779115,1.52218zm-5.87707 -2.18925c-0.104927,0.121742 -0.414051,0.295543 -0.92721,0.521566 -0.51332,0.226023 -1.01387,0.446548 -1.50213,0.661577 -0.561499,0.264016 -0.914276,0.47953 -1.05817,0.646217 -0.0738858,0.0856881 -0.122873,0.167173 -0.147125,0.244615 -0.0240897,0.0774426 -0.0100239,0.148742 0.042359,0.214059 0.104766,0.130311 0.295866,0.223436 0.573625,0.279214 0.194172,0.0266765 0.331273,0.0476943 0.411141,0.0630535 0.0822929,0.102502 0.0826162,0.200963 0.000808378,0.295705 -0.151652,0.175741 -0.482117,0.199023 -0.991395,0.0700055 -0.509278,-0.129179 -0.842492,-0.291501 -0.99964,-0.487129 0.00873048,-0.120125 -0.0147125,-0.266118 -0.0700055,-0.437818 -0.0928018,-0.283741 -0.102179,-0.468374 -0.0282932,-0.554062 0.0693588,-0.0352453 0.117538,-0.0687121 0.144861,-0.100239 0.0232813,-0.0271615 0.0497961,-0.0690355 0.0792211,-0.125622 0.0295866,-0.0567481 0.0522212,-0.0940952 0.0677421,-0.112203 0.159412,-0.184795 0.45835,-0.378321 0.896815,-0.580577 0.438303,-0.202256 0.885336,-0.412435 1.34126,-0.630373 0.455764,-0.217939 0.784773,-0.444123 0.98703,-0.678553 0.0622451,-0.0721073 0.112526,-0.107676 0.150682,-0.107029 0.102664,0.0158442 0.29522,0.0916701 0.577182,0.227801 0.282124,0.136131 0.445578,0.232166 0.490524,0.288106 0.0711373,0.0884366 0.0580415,0.188999 -0.0392872,0.301687zm-3.78127 -0.86448c0.0738858,-0.0856881 0.0716223,-0.177358 -0.00695205,-0.275172 -0.138394,-0.172185 -0.385758,-0.211472 -0.742253,-0.117538 -0.356333,0.0937719 -0.610487,0.228609 -0.762139,0.404512 -0.023443,0.0269998 -0.0286166,0.0531913 -0.0156825,0.078736 0.0129341,0.0253831 0.0268382,0.0475326 0.041874,0.0661253 0.101047,0.125622 0.345501,0.163616 0.733684,0.113981 0.388183,-0.0497961 0.63878,-0.139849 0.751468,-0.270645zm0.602565 0.259328c-0.116568,0.135161 -0.257711,0.240088 -0.422943,0.314782 -0.165394,0.0746941 -0.26919,0.123035 -0.311549,0.145185 -0.223436,0.133221 -0.490686,0.188675 -0.801264,0.166526 -0.310741,-0.0221496 -0.583164,-0.104119 -0.817432,-0.246232 -0.0336285,-0.041874 -0.0619218,-0.0630535 -0.0848797,-0.0635385 -0.0360537,0.104766 -0.0345986,0.249142 0.00436524,0.433129 0.0389638,0.184149 0.0940952,0.320441 0.165071,0.408878 0.0635385,0.0792211 0.140819,0.144861 0.231519,0.197083 0.0907,0.0520596 0.18334,0.104442 0.27792,0.156664 0.0336285,0.041874 0.0501194,0.0879515 0.0493111,0.138394 -0.000808378,0.0504428 -0.0168143,0.0936102 -0.0480177,0.129664 -0.0894066,0.103796 -0.264663,0.0819695 -0.525446,-0.0651553 -0.215675,-0.118832 -0.377674,-0.245747 -0.486159,-0.380746 -0.0635385,-0.0792211 -0.122873,-0.185765 -0.178005,-0.319794 -0.0916701,-0.226346 -0.141304,-0.344207 -0.148742,-0.353423 -0.244454,-0.453985 -0.373794,-0.713151 -0.388022,-0.77766 -0.0457542,-0.234591 0.0596583,-0.500709 0.316399,-0.798193 0.36183,-0.419225 0.906839,-0.612427 1.63519,-0.57993 0.72851,0.0324968 1.26851,0.267735 1.61999,0.705391 0.0822929,0.102502 0.112688,0.231358 0.0910234,0.386728 -0.0216645,0.155532 -0.0809995,0.289561 -0.178328,0.402249zm-2.65601 -2.81558c0.0740474,-0.0856881 0.0716223,-0.177358 -0.00695205,-0.275172 -0.138394,-0.172346 -0.385758,-0.211472 -0.742253,-0.1177 -0.356333,0.0939335 -0.610487,0.228771 -0.762139,0.404512 -0.023443,0.0269998 -0.0286166,0.053353 -0.0156825,0.078736 0.0129341,0.0255447 0.0269998,0.0475326 0.041874,0.0661253 0.101047,0.125784 0.345662,0.163777 0.733684,0.114143 0.388183,-0.0497961 0.63878,-0.140011 0.751468,-0.270645zm0.602727 0.259166c-0.11673,0.135322 -0.257873,0.24025 -0.423105,0.314944 -0.165394,0.0746941 -0.26919,0.123035 -0.311549,0.145185 -0.223436,0.133059 -0.490524,0.188514 -0.801264,0.166526 -0.310579,-0.0221496 -0.583164,-0.104281 -0.817432,-0.246394 -0.0336285,-0.041874 -0.0619218,-0.0630535 -0.0848797,-0.0635385 -0.0360537,0.104766 -0.0345986,0.249142 0.00436524,0.433291 0.0389638,0.183987 0.0940952,0.320279 0.165071,0.408878 0.0637002,0.0790594 0.140819,0.1447 0.231519,0.196921 0.0907,0.0522212 0.18334,0.104442 0.27792,0.156664 0.0336285,0.041874 0.0501194,0.0881132 0.0493111,0.138556 -0.000808378,0.0502811 -0.0168143,0.0936102 -0.047856,0.129664 -0.0895683,0.103634 -0.264663,0.0818079 -0.525607,-0.065317 -0.215675,-0.118832 -0.377674,-0.245747 -0.486159,-0.380746 -0.0635385,-0.0790594 -0.122873,-0.185765 -0.178005,-0.319633 -0.0916701,-0.226508 -0.141304,-0.344207 -0.148742,-0.353585 -0.244454,-0.453985 -0.373794,-0.713151 -0.388022,-0.77766 -0.0457542,-0.234591 0.0596583,-0.500709 0.316399,-0.798193 0.36183,-0.419063 0.906839,-0.612427 1.63535,-0.579769 0.728349,0.0324968 1.26835,0.267573 1.61983,0.705391 0.0822929,0.102341 0.112688,0.231358 0.0910234,0.386728 -0.0215029,0.15537 -0.0809995,0.289399 -0.178167,0.402087zm-2.424 -2.65294c-0.11673,0.135161 -0.283094,0.27404 -0.499093,0.416476 -0.470638,0.311711 -0.762462,0.532883 -0.875312,0.663517 -0.0271615,0.0315267 -0.0551314,0.108969 -0.0839097,0.232166 -0.0163292,0.0638619 -0.0282932,0.100239 -0.0360537,0.109293 -0.0700055,0.0811612 -0.233136,0.0767959 -0.48923,-0.0130957 -0.256256,-0.08973 -0.42165,-0.181238 -0.496506,-0.274364 -0.0561014,-0.0698439 -0.0677421,-0.173155 -0.0349219,-0.309932 0.0326585,-0.136939 0.130796,-0.30007 0.294088,-0.489392 0.132251,-0.153107 0.36862,-0.30783 0.708948,-0.463847 0.340327,-0.156179 0.570715,-0.30395 0.691325,-0.443638 -0.0449458,-0.0559398 -0.247202,-0.0599817 -0.606607,-0.011964 -0.225699,0.0276465 -0.583487,0.0871432 -1.07336,0.17849 -0.455602,0.0873048 -0.727379,0.132412 -0.815169,0.135322 -0.0190777,-0.00501194 -0.14955,-0.0695205 -0.391902,-0.193364 -0.0300717,-0.018916 -0.0774426,-0.0404189 -0.141951,-0.0646703 -0.0147125,-0.036862 -0.0171376,-0.117215 -0.00759875,-0.240735 0.00970054,-0.12352 0.0261915,-0.198861 0.0494727,-0.225861 0.11285,-0.130796 0.47759,-0.382525 1.09438,-0.75551 0.528033,-0.324321 0.932545,-0.554709 1.21338,-0.691325 0.0269998,-0.0132574 0.0992688,-0.00258681 0.216969,0.0316884 0.235561,0.0688738 0.375734,0.131119 0.42068,0.187059 0.0635385,0.0792211 0.104927,0.177358 0.123844,0.294573 0.0192394,0.117215 -0.00436524,0.21422 -0.0704906,0.290854 -0.042844,0.0496344 -0.304274,0.168143 -0.784288,0.355848 -0.284387,0.113658 -0.468859,0.192556 -0.553416,0.236693l-0.00145508 0.0824546c0.673379,-0.0968437 1.0863,-0.148257 1.23908,-0.1544 0.595936,-0.0342752 0.970539,0.0441374 1.12381,0.235076 0.0822929,0.102341 0.11479,0.219879 0.0973287,0.352453 -0.017461,0.132574 -0.121418,0.309285 -0.312034,0.530134zm-0.603373 -5.46367c-0.264501,0.306537 -0.510895,0.434584 -0.739019,0.384303 -0.0379938,-0.00986221 -0.283902,-0.142921 -0.737726,-0.399339 -0.162969,-0.0719457 -0.709433,-0.139849 -1.63955,-0.203873 -0.594805,-0.0391255 -1.02923,-0.0797061 -1.30327,-0.121742 0.136293,0.300555 0.20452,0.684696 0.20452,1.1521 -0.0139041,0.375572 -0.0257064,0.753408 -0.0357303,1.13367 0.00873048,0.403542 0.08973,0.700702 0.242998,0.891641 0.11964,0.149065 0.274849,0.23443 0.465302,0.256579 0.202095,0.00856881 0.404189,0.0169759 0.606284,0.0255447 0.0711373,0.0885982 0.065802,0.180107 -0.0158442,0.274687 -0.155694,0.180268 -0.424399,0.27598 -0.806115,0.286813 -0.477266,0.0135808 -0.861893,-0.161191 -1.15356,-0.524476 -0.30298,-0.377028 -0.465141,-0.85009 -0.48632,-1.41887 -0.0108323,-0.275172 0.0291016,-0.73045 0.11964,-1.36567 0.0648319,-0.461746 0.0522212,-0.748396 -0.0375087,-0.860114 -0.0822929,-0.102502 -0.352615,-0.018431 -0.811288,0.252214 -0.323513,0.18625 -0.573625,0.309609 -0.750175,0.370399 -0.072269,-0.0151975 -0.251406,-0.0840713 -0.537571,-0.20646 -0.286166,-0.12255 -0.446063,-0.204681 -0.479692,-0.246555 -0.0224729,-0.0279699 -0.0333052,-0.0693588 -0.0323351,-0.124329 0.000808378,-0.0551314 0.0148742,-0.0982988 0.0421973,-0.129826 0.0194011,-0.0226346 0.0818079,-0.0499578 0.187382,-0.0822929 0.105413,-0.0323351 0.217615,-0.0679038 0.336609,-0.106868 0.323836,-0.195304 0.745325,-0.423105 1.26479,-0.683403 0.30783,-0.149873 0.832791,-0.39853 1.57504,-0.746133 0.449782,-0.206621 0.899725,-0.413243 1.34967,-0.619864 0.103796,-0.048341 0.307022,-0.0455925 0.609517,0.00840713 0.302495,0.0541613 0.483733,0.118347 0.543553,0.192879 0.0410656,0.0512512 0.0573948,0.104281 0.048826,0.159089 -0.00840713,0.054808 -0.0302333,0.102502 -0.065317,0.143083 -0.108808,0.126269 -0.374926,0.290531 -0.798031,0.493111 -0.184634,0.0881132 -0.576697,0.263693 -1.17635,0.527063 -0.449782,0.197406 -0.707493,0.325291 -0.773295,0.383656 0.644924,-0.00113173 1.24765,0.0106706 1.80834,0.0352453 0.781863,0.0291016 1.41644,0.0805145 1.90373,0.154077 0.612912,0.0898916 0.977329,0.207106 1.09341,0.351321 0.0934485,0.116568 0.0856881,0.237825 -0.0231196,0.363932zm16.758 25.9721c-0.355363,0.501841 -0.531589,0.85106 -0.527548,1.04523 0.00210178,0.108646 0.0394489,0.162322 0.11188,0.160867 0.06079,-0.00129341 0.138879,-0.0404189 0.233136,-0.119963 0.0953886,-0.0784127 0.243807,-0.218585 0.445416,-0.420842l0.0053353 0.261429c-0.287783,0.360537 -0.509602,0.620188 -0.664002,0.779923 -0.154562,0.159736 -0.281801,0.241382 -0.381878,0.243322 -0.170568,0.00355686 -0.258519,-0.131927 -0.264178,-0.404997 -0.00161676,-0.0801911 0.00743708,-0.160706 0.0261915,-0.238633 0.0195628,-0.0793827 0.0467243,-0.161514 0.0811612,-0.246394 0.0345986,-0.0861731 0.0874665,-0.207592 0.158927,-0.367004 0.071299,-0.160706 0.153915,-0.340974 0.247849,-0.54226 -0.11673,0.0761492 -0.262885,0.224082 -0.436363,0.445093 -0.114466,0.138233 -0.209855,0.270968 -0.289399,0.394327 -0.0784127,0.12449 -0.161999,0.262238 -0.251567,0.415506 -0.0895683,0.151975 -0.154724,0.254316 -0.197244,0.30686 -0.0415506,0.0527063 -0.083748,0.0793827 -0.1274,0.0803528 -0.0670954,0.00129341 -0.129502,-0.0814845 -0.189484,-0.249951 -0.05982,-0.168304 -0.0915084,-0.364417 -0.096197,-0.589631 -0.00274849,-0.139688 0.00776043,-0.248657 0.0328202,-0.326908 0.023928,-0.0793827 0.072754,-0.191747 0.14761,-0.336932 0.137263,-0.270807 0.258034,-0.469991 0.358758,-0.596421 0.101856,-0.127562 0.200801,-0.191747 0.295543,-0.193687 0.0670954,-0.00145508 0.12061,0.0105089 0.161676,0.0381554 0.0410656,0.0263531 0.0622451,0.0685505 0.0633768,0.126754 0.000485027,0.0260298 -0.00420357,0.0518979 -0.0164909,0.0806761 -0.0122873,0.0274849 -0.0255447,0.0536763 -0.0410656,0.0759875 -0.0143891,0.0236046 -0.0465626,0.0682271 -0.0952269,0.135161 -0.320279,0.449297 -0.478398,0.738696 -0.475811,0.870623 0.00145508,0.0737241 0.0224729,0.109616 0.0619218,0.108808 0.0245747,-0.000485027 0.0714606,-0.0506045 0.141951,-0.149227 0.0693588,-0.0984605 0.159412,-0.228448 0.26919,-0.388668 0.110748,-0.160221 0.241543,-0.327231 0.392548,-0.502488 0.151975,-0.175256 0.324483,-0.344531 0.519302,-0.507661 0.107838,-0.0953886 0.198538,-0.143891 0.270968,-0.145346 0.0341136,-0.000808378 0.0672571,0.054323 0.102502,0.164909 0.0342752,0.110586 0.0525446,0.222789 0.054808,0.335477 0.00113173,0.0556164 -0.041874,0.141951 -0.129017,0.257549zm-2.84533 -0.352291c-0.535146,0.311226 -0.915569,0.575242 -1.1403,0.789624 -0.225861,0.21422 -0.336447,0.432806 -0.33192,0.655271 0.00161676,0.0814845 0.0147125,0.147286 0.0381554,0.198699 0.024413,0.0512512 0.0559398,0.0764726 0.0952269,0.0756642 0.023443,-0.000485027 0.0637002,-0.0194011 0.120448,-0.0556164 0.21519,-0.160867 0.411303,-0.369429 0.587368,-0.62423 0.175903,-0.256094 0.386243,-0.60208 0.63102,-1.03941zm-1.48612 0.448327c0.309285,-0.355848 0.610811,-0.620834 0.904575,-0.796414 0.293765,-0.17558 0.522212,-0.26434 0.68405,-0.267735 0.0436524,-0.000808378 0.084718,0.0203711 0.123844,0.0635385 0.0381554,0.0433291 0.0690355,0.0944186 0.0916701,0.152137 0.023443,0.0578799 0.0350836,0.100401 0.0355686,0.127562 0.000970054,0.0465626 -0.0132574,0.0805145 -0.0415506,0.101694 -0.0284549,0.0226346 -0.0790594,0.0496344 -0.151975,0.0808378 0.0158442,0.0397722 0.0360537,0.0911851 0.0596583,0.154077 0.0247364,0.0630535 0.042844,0.114466 0.0564248,0.152945 0.0135808,0.0386405 0.0197244,0.0734007 0.0202095,0.103149 0.00129341,0.06079 -0.0464009,0.175741 -0.144376,0.343399 -0.096682,0.167658 -0.165556,0.290854 -0.20452,0.369267 -0.0388022,0.0798678 -0.0570715,0.175903 -0.054808,0.289884 0.00371854,0.18625 0.0759875,0.279375 0.217777,0.276465 0.145831,-0.00307184 0.370561,-0.173316 0.673702,-0.510895l0.00468859 0.231681c-0.511703,0.71978 -0.881617,1.08339 -1.10845,1.08808 -0.0809995,0.00161676 -0.139203,-0.0295866 -0.175741,-0.0936102 -0.035407,-0.0640235 -0.054323,-0.158119 -0.0569098,-0.284872 -0.00404189,-0.199346 0.0496344,-0.490362 0.160221,-0.871917 -0.295381,0.415021 -0.51526,0.712019 -0.658667,0.887276 -0.144538,0.176388 -0.26434,0.265471 -0.360213,0.267411 -0.0457542,0.000970054 -0.104281,-0.0457542 -0.174448,-0.140011 -0.0701672,-0.095712 -0.134352,-0.218747 -0.189646,-0.370399 -0.0564248,-0.15149 -0.0863348,-0.310256 -0.08973,-0.473225 -0.00242513,-0.118993 0.00517362,-0.218909 0.0216645,-0.29813 0.0176226,-0.0806761 0.0520596,-0.162969 0.104766,-0.246879 0.0527063,-0.0852031 0.136616,-0.196921 0.252214,-0.335315zm-0.32416 0.670792l0.00501194 0.245909c-0.339842,0.479368 -0.652523,0.875474 -0.939335,1.18815 -0.285519,0.313812 -0.56635,0.555194 -0.842007,0.72657 -0.274687,0.171214 -0.542583,0.259651 -0.802558,0.264825 -0.224729,0.00468859 -0.41874,-0.0457542 -0.582841,-0.151167 -0.163131,-0.105413 -0.287783,-0.260783 -0.373956,-0.468859 -0.0863348,-0.206621 -0.132897,-0.452853 -0.138718,-0.737564 -0.00452692,-0.225214 0.0203711,-0.464009 0.0738858,-0.717516 0.0544847,-0.252214 0.135646,-0.507661 0.24219,-0.766181 0.107676,-0.259813 0.239765,-0.526578 0.397237,-0.802881 0.157472,-0.276304 0.344369,-0.567643 0.558751,-0.87224 0.221657,-0.315267 0.442021,-0.588984 0.660122,-0.820019 0.2181,-0.229741 0.4168,-0.412435 0.59432,-0.5442 0.178328,-0.133059 0.344854,-0.232328 0.497961,-0.298777 0.154239,-0.0666104 0.282447,-0.100239 0.383656,-0.102341 0.104442,-0.00210178 0.193526,0.0258681 0.26725,0.0852031 0.0746941,0.0591733 0.131927,0.147448 0.17364,0.261753 0.041874,0.11576 0.0648319,0.249789 0.0679038,0.401279 0.00582032,0.286004 -0.0675804,0.604667 -0.221334,0.958575 -0.152783,0.352615 -0.345016,0.695852 -0.578152,1.0268 -0.232005,0.329657 -0.455602,0.600948 -0.66869,0.811127 -0.213088,0.210178 -0.36765,0.316884 -0.463524,0.318824 -0.0638619,0.00129341 -0.124167,-0.0286166 -0.180915,-0.0895683 -0.0565865,-0.0609517 -0.0856881,-0.130311 -0.0873048,-0.207915 -0.00291016,-0.145023 0.0564248,-0.320926 0.178975,-0.528033 0.12158,-0.206945 0.255124,-0.397399 0.399662,-0.5712 0.14567,-0.173963 0.23249,-0.261106 0.262238,-0.261753 0.0139041,-0.000161676 0.0215029,0.00743708 0.0218262,0.0229579 0.000485027,0.0219879 -0.00937719,0.0609517 -0.0307184,0.117053 -0.0202095,0.0561014 -0.0300717,0.0911851 -0.02991,0.104119 0.000485027,0.0195628 0.00711373,0.0297483 0.0187544,0.029425 0.0352453,-0.000646703 0.135161,-0.117862 0.298777,-0.350351 0.163616,-0.233783 0.313004,-0.490524 0.447841,-0.770384 0.135161,-0.278567 0.200801,-0.507661 0.197244,-0.683726 -0.00161676,-0.0737241 -0.0155209,-0.129179 -0.0430057,-0.168628 -0.0263531,-0.0383171 -0.0661253,-0.0569098 -0.117215,-0.0559398 -0.145993,0.00307184 -0.364579,0.151167 -0.654948,0.443153 -0.290369,0.29328 -0.586559,0.664487 -0.888569,1.11459 -0.30201,0.450267 -0.552607,0.913629 -0.750822,1.39025 -0.198053,0.476458 -0.293926,0.894066 -0.286651,1.25379 0.00420357,0.206945 0.0333052,0.379938 0.0873048,0.517362 0.0539997,0.138718 0.130796,0.244615 0.231358,0.317531 0.0995922,0.0743708 0.219556,0.109454 0.359243,0.106706 0.301363,-0.00614367 0.640559,-0.155532 1.01823,-0.449297 0.376543,-0.293765 0.788815,-0.722852 1.23779,-1.28742zm12.9638 -24.1872l0.0284549 1.83906 0.0121257 1.03925c0.000970054,0.047856 0.00177843,0.0827779 0.00226346,0.108646 0.00274849,0.139849 -0.00145508,0.229256 -0.0111556,0.265633 -0.018916,0.0405806 -0.0590116,0.0646703 -0.119317,0.0724307 -0.0103472,0.0053353 -0.0253831,0.00824546 -0.0434907,0.00856881 -0.066287,0.00145508 -0.15731,-0.0226346 -0.272908,-0.0721073 -0.048826,-0.0210178 -0.118832,-0.0557781 -0.21034,-0.105736 -0.00630535,-0.0101856 -0.0223112,-0.0551314 -0.0496344,-0.137424 -0.0242513,-0.0824546 -0.0645086,-0.128209 -0.118832,-0.137424 -0.0963587,0.084718 -0.167496,0.145831 -0.213574,0.183017 -0.1544,0.122227 -0.26628,0.183987 -0.331112,0.18528 0,0 0,0 0,0 -0.308315,-0.0286166 -0.548565,-0.129826 -0.719618,-0.303789 -0.179945,-0.167173 -0.29716,-0.444446 -0.353261,-0.831659l0.018431 -1.39073c-0.00274849,-0.134514 -0.00258681,-0.26919 0.000808378,-0.403866 -0.00274849,-0.129502 0.00582032,-0.226669 0.0287783,-0.288106 0.0169759,-0.0572332 0.0491494,-0.107029 0.0965203,-0.150843 0.041389,-0.0357303 0.0953886,-0.0549697 0.161676,-0.0562631 0.115113,0.023443 0.199993,0.0386405 0.252861,0.047856 0.163777,0.0394489 0.265471,0.0683888 0.30201,0.08973 0.0307184,0.023928 0.0510895,0.0622451 0.0641852,0.11382 0.0130957,0.0515745 0.0202095,0.103149 0.0213412,0.154885 0.000485027,0.0258681 0.000970054,0.0491494 0.00129341,0.0700055 0.000161676,0.00517362 -0.00274849,0.0129341 -0.00856881,0.023443l-0.0480177 1.56098c0.00840713,0.120125 0.0169759,0.244292 0.0257064,0.373471 0.00856881,0.129341 0.0258681,0.23249 0.0499578,0.30977l0.161837 -0.128855c0.232005,-0.160059 0.342914,-0.489877 0.332728,-0.992042l0.054323 -0.816624 0.0135808 -0.738211c0.0108323,-0.0611134 0.018916,-0.106544 0.024413,-0.132574 0.0284549,-0.0873048 0.0637002,-0.134676 0.104281,-0.140658 0.110101,-0.00226346 0.224891,0.00840713 0.345986,0.0318501 0.121257,0.023443 0.227639,0.0679038 0.319471,0.133221 0.048826,0.0236046 0.0743708,0.095712 0.0767959,0.215999zm-4.02103 1.19139c-0.00323351,-0.15537 -0.024413,-0.302495 -0.0648319,-0.441374 -0.0585266,-0.205975 -0.142113,-0.30783 -0.250597,-0.305729 -0.00614367,0.000161676 -0.0121257,0.000323351 -0.0181077,0.000485027 -0.083748,0.0379938 -0.172831,0.250759 -0.267573,0.634577 -0.0992688,0.385273 -0.14761,0.676127 -0.14373,0.871593 0.0276465,0.166364 0.0496344,0.290208 0.0695205,0.372662 0.0594966,0.257711 0.12255,0.388507 0.188999,0.392387 0.107999,-0.0229579 0.201286,-0.114143 0.274849,-0.276142 0.0691972,-0.158119 0.122388,-0.361183 0.161029,-0.610487 0.0373471,-0.24413 0.0539997,-0.456734 0.0504428,-0.637972zm0.936102 0.198376c0.00695205,0.341621 -0.0375087,0.676612 -0.134837,1.00481 -0.122388,0.436201 -0.312842,0.714445 -0.569745,0.8336 -0.0970054,0.0486644 -0.1717,0.0850414 -0.225699,0.106868 -0.041874,0.0164909 -0.0793827,0.024898 -0.117053,0.0257064 -0.0121257,0.000323351 -0.0195628,0.000485027 -0.0255447,0.000485027 -0.243322,-0.0156825 -0.51332,-0.0931252 -0.811773,-0.232005 -0.243645,-0.114143 -0.387213,-0.199184 -0.429087,-0.255286 -0.197244,-0.208238 -0.300555,-0.534985 -0.309609,-0.981533 -0.00371854,-0.184957 0.00614367,-0.368944 0.0324968,-0.550829 0.0205328,-0.181562 0.0831013,-0.439273 0.192394,-0.772809 0.107838,-0.333698 0.217777,-0.563763 0.329818,-0.690355 0.0885982,-0.100239 0.205166,-0.151813 0.351321,-0.154724 0.181562,0.0260298 0.323836,0.0491494 0.425369,0.0690355 0.3088,0.0557781 0.521242,0.116245 0.638619,0.179783 0.205328,0.0800294 0.365387,0.239927 0.478883,0.479692 0.108969,0.242352 0.166688,0.554547 0.174448,0.937557zm-1.99686 -3.69542c0.0433291,0.0561014 0.065802,0.120287 0.0672571,0.192717 0.00177843,0.0881132 -0.0265148,0.179298 -0.0848797,0.27501 -0.0072754,0.0143891 -0.0219879,0.0328202 -0.0457542,0.0539997 -0.0918318,0.157149 -0.242352,0.463201 -0.451883,0.916701 -0.231034,0.508308 -0.404189,0.892449 -0.519464,1.15501 -0.0792211,0.186735 -0.159736,0.374764 -0.238957,0.561499l-0.164909 0.417608c-0.00582032,0.0143891 -0.0242513,0.289238 -0.0556164,0.823252 -0.00856881,0.176226 -0.0242513,0.440566 -0.0472093,0.791887 -0.00420357,0.0932868 -0.00824546,0.187867 -0.012449,0.281154 -0.00404189,0.0984605 -0.017946,0.155694 -0.0402572,0.1717 -0.048826,0.0425207 -0.0785744,0.0638619 -0.0890833,0.0640235 -0.0316884,0.000646703 -0.0801911,-0.00873048 -0.146963,-0.029425l-0.699732 -0.209693c-0.0261915,-0.0305567 -0.0420357,-0.0690355 -0.0491494,-0.11673 -0.0129341,-0.0464009 -0.0202095,-0.108323 -0.0218262,-0.184795 -0.00177843,-0.0879515 -0.000161676,-0.161676 0.00468859,-0.218747 -0.000161676,-0.00905384 0.00242513,-0.0273232 0.00792211,-0.053353l0.0274849 -0.498931c0.0105089,-0.0766342 0.0177843,-0.167334 0.0216645,-0.270968 0.00388022,-0.103634 0.00420357,-0.163292 0.00388022,-0.178813 -0.00274849,-0.134514 -0.00937719,-0.24316 -0.0231196,-0.325776 -0.0197244,-0.0772809 -0.054323,-0.145185 -0.103796,-0.201124 -0.0493111,-0.0559398 -0.125137,-0.218747 -0.227154,-0.491171 -0.121257,-0.323675 -0.194334,-0.508632 -0.221011,-0.554709 -0.168628,-0.359082 -0.293441,-0.63102 -0.375572,-0.815654 -0.222789,-0.497799 -0.334669,-0.806276 -0.337094,-0.923976 -0.000323351,-0.0168143 0.00242513,-0.02991 0.00824546,-0.0402572 0.0231196,-0.0523829 0.041874,-0.0915084 0.0518979,-0.116406 0.0481793,-0.0798678 0.0911851,-0.11964 0.133382,-0.120448 0.0177843,-0.0106706 0.0433291,-0.0164909 0.0719457,-0.0169759 0.0664487,-0.00145508 0.151167,0.0176226 0.254639,0.0569098 0.145831,0.0539997 0.243645,0.114143 0.29328,0.18043 0.103796,0.137748 0.253669,0.380584 0.44768,0.728834 0.194334,0.353261 0.329495,0.625038 0.407261,0.813713 0.0129341,0.0373471 0.0289399,0.0887599 0.0468859,0.155694 0.0195628,0.0721073 0.035407,0.109293 0.0475326,0.109131 0.0240897,-0.000485027 0.0698439,-0.0544847 0.132574,-0.159412 0.0567481,-0.170729 0.247525,-0.581062 0.57217,-1.22987 0.289884,-0.582032 0.493111,-0.966659 0.610002,-1.1542 0.0410656,-0.0591733 0.100724,-0.0926401 0.178975,-0.0994305 0.005982,-0.000161676 0.0150358,-0.000323351 0.0257064,-0.000646703 0.0858498,-0.00161676 0.198376,0.0388022 0.33871,0.118832 0.048826,0.0300717 0.116245,0.077766 0.202095,0.143406zm-5.74886 1.23698l-0.0261915 0.489877c-0.0113173,0.0350836 -0.0619218,0.0750175 -0.15149,0.118347 -0.095712,0.0433291 -0.185604,0.065802 -0.27016,0.0675804 -0.132574,0.00274849 -0.224082,-0.0420357 -0.274202,-0.134191 -0.0153592,-0.165394 -0.0312034,-0.346309 -0.0472093,-0.544038 -0.0160059,-0.190131 -0.0541613,-0.285034 -0.114466,-0.283902 -0.0708139,0.00145508 -0.125784,0.196759 -0.160059,0.585912 -0.00937719,0.129664 -0.0142275,0.261753 -0.017461,0.396429 -0.00937719,0.134837 -0.0139041,0.204843 -0.0139041,0.21131 -0.0122873,0.0572332 -0.0176226,0.0949036 -0.0171376,0.115598 0.00129341,0.0672571 0.0145508,0.121418 0.0409039,0.162322 0.017461,0.0410656 0.0601433,0.06079 0.12643,0.0594966 0.0601433,-0.0103472 0.126269,-0.0206945 0.198538,-0.0286166 0.066287,-0.00646703 0.132574,-0.0105089 0.198861,-0.0118023 0.0784127,-0.00161676 0.125299,0.00646703 0.137748,0.0231196 0.0355686,0.0457542 0.0551314,0.113981 0.0570715,0.207268 0.00194011,0.0982988 -0.0108323,0.209855 -0.0384788,0.333375 0.000485027,0.0219879 -0.00646703,0.0507661 -0.023928,0.0860114l-0.0714606 0.0415506c-0.0622451,-0.0181077 -0.152945,-0.0266765 -0.273555,-0.0242513 -0.149227,0.00307184 -0.242513,0.0192394 -0.279537,0.0510895 -0.0118023,0.0105089 -0.0147125,0.0908617 -0.0116406,0.241058 -0.00291016,0.15537 -0.00388022,0.253831 -0.00307184,0.296513 0.000970054,0.0465626 0.00145508,0.0750175 0.00177843,0.0840713 0,0.00517362 0.000161676,0.0103472 0.000323351,0.0155209l-0.00323351 0.730289 0.0181077 0.892773c0.00646703,0.0206945 0.0130957,0.0515745 0.0200478,0.0928018 0.00695205,0.0465626 0.0106706,0.0774426 0.0109939,0.0929635 0.00161676,0.0829396 -0.0197244,0.144215 -0.0612751,0.181238 -0.0594966,0.0362153 -0.110424,0.0578799 -0.15246,0.0640235 -0.0528679,0.000970054 -0.14955,-0.0072754 -0.288591,-0.023928 -0.139203,-0.017946 -0.246717,-0.0415506 -0.325776,-0.072269 -0.0430057,-0.035407 -0.0696822,-0.161837 -0.0801911,-0.379129 -0.0163292,-0.211957 -0.0297483,-0.423913 -0.0400956,-0.636032l-0.0462392 -1.45928c-0.060305,0.00113173 -0.107191,0.00210178 -0.137263,0.00274849 -0.193364,-0.0116406 -0.296675,-0.0535146 -0.310256,-0.12449l-0.0801911 -0.380261c-0.00129341,-0.0672571 0.0518979,-0.117538 0.159897,-0.150843 0.126107,-0.0284549 0.255286,-0.0569098 0.387375,-0.0855264 0.00953886,-0.347118 0.0221496,-0.614044 0.0379938,-0.800779 0.054808,-0.565541 0.152945,-0.932707 0.292795,-1.10117 0.0704906,-0.0947419 0.143891,-0.192071 0.218747,-0.29328 0.0724307,-0.0725924 0.174286,-0.110909 0.30686,-0.113658 0.162969,-0.00323351 0.343076,0.0318501 0.543715,0.104119 0.249304,0.0945802 0.411626,0.213088 0.488422,0.356495 0.0171376,0.0307184 0.0379938,0.159736 0.0606284,0.387051 0.000808378,0.0362153 0.00485027,0.0879515 0.0122873,0.156502zm-3.29075 -0.641206l-0.0143891 0.178975 0.0313651 1.54384c-0.00371854,0.108808 -0.00679038,0.255124 -0.00921551,0.436524 -0.000808378,0.181238 -0.00161676,0.289884 -0.000808378,0.326261 0.00274849,0.134514 0.00743708,0.222466 0.0129341,0.263693l0.0383171 0.550829 0.0334669 1.63826c0.00177843,0.0879515 0,0.152783 -0.00517362,0.192879 -0.0260298,0.131281 -0.0940952,0.197406 -0.204196,0.199669 -0.174771,0.00355686 -0.366195,-0.0572332 -0.573787,-0.183825 -0.0656403,-0.0386405 -0.152945,-0.104281 -0.257388,-0.195304l-0.0337902 -1.65507 -0.0392872 -1.4816c-0.00242513,-0.124167 -0.00388022,-0.344207 -0.00436524,-0.660122 -0.000323351,-0.315914 0.00242513,-0.621481 0.0100239,-0.916701 -0.000485027,-0.0206945 -0.000808378,-0.0362153 -0.000970054,-0.0465626 -0.00695205,-0.041389 -0.0106706,-0.0840713 -0.0116406,-0.12546 -0.00145508,-0.0763109 0.00614367,-0.146316 0.0229579,-0.208885 0.0108323,-0.0622451 0.0370237,-0.104281 0.0788977,-0.127077 0.0779277,-0.0261915 0.174125,-0.0412273 0.288753,-0.0434907 0.174771,-0.00355686 0.3261,0.0192394 0.453823,0.0683888 0.120125,0.0493111 0.182208,0.130957 0.184472,0.244777zm10.6518 66.8991l1.8174 -0.0370237 -0.0247364 -1.22081c-0.0208562,0.0273232 -0.0462392,0.0578799 -0.0784127,0.0932868l-0.172023 -8.43106 3.29333 -0.0748558 -0.0284549 -1.31911 -3.29139 0.0570715 -0.0632152 -2.2544 -1.66962 0.0320118 0.0396105 2.26475 -3.21249 0.0643469 0.024413 1.32914 3.21864 -0.0599817 0.167981 8.43171c-0.0169759,-0.00873048 -0.0315267,-0.0177843 -0.0444608,-0.0271615l0.023443 1.1521zm2.856 16.8621l1.06269 -0.0216645 -0.0145508 -0.713798c-0.0121257,0.0158442 -0.0269998,0.0337902 -0.0457542,0.0544847l-0.100724 -4.92949 1.92556 -0.0438141 -0.0166526 -0.771354 -1.92442 0.0333052 -0.036862 -1.31814 -0.976197 0.0187544 0.0231196 1.32412 -1.87835 0.0378321 0.0142275 0.777013 1.8819 -0.0350836 0.0982988 4.92997c-0.00986221,-0.00501194 -0.018431,-0.0103472 -0.0260298,-0.0158442l0.0137424 0.673702zm-13.9161 -10.2184l1.06269 -0.0216645 -0.00953886 -0.464494c-0.0122873,0.0103472 -0.0271615,0.0221496 -0.0460776,0.0357303l-0.0656403 -3.20845 1.92556 -0.0421973 -0.0111556 -0.502003 -1.92426 0.0352453 -0.0276465 -0.857851 -0.976197 0.0192394 0.0137424 0.861893 -1.87835 0.0378321 0.00873048 0.505883 1.8819 -0.0362153 0.0632152 3.20878c-0.00986221,-0.00323351 -0.018431,-0.0066287 -0.0258681,-0.0101856l0.00889216 0.438464z"/>
 </g>
</svg>
