<?xml version="1.0" encoding="UTF-8"?>
<!DOCTYPE svg PUBLIC "-//W3C//DTD SVG 1.1//EN" "http://www.w3.org/Graphics/SVG/1.1/DTD/svg11.dtd">
<!-- Creator: CorelDRAW -->
<svg xmlns="http://www.w3.org/2000/svg" xml:space="preserve" width="5548in" height="7180in" style="shape-rendering:geometricPrecision; text-rendering:geometricPrecision; image-rendering:optimizeQuality; fill-rule:evenodd; clip-rule:evenodd"
viewBox="0 0 101.473 236.893"
 xmlns:xlink="http://www.w3.org/1999/xlink">
 <defs>
  <style type="text/css">
   <![CDATA[
    .fil0 {fill:#141516}
   ]]>
  </style>
 </defs>
 <g id="Layer_x0020_1">
  <metadata id="CorelCorpID_0Corel-Layer"/>
  <path class="fil0" d="M2.35847 11.0299c1.8595,3.09162 0.0119753,1.55745 0.84825,3.89197 1.13765,0.560178 2.74634,0.235514 2.72305,2.44296 -0.00864883,0.820308 -0.997942,2.8428 -1.1789,3.67575 -0.567496,2.60862 1.12834,4.8327 0.954032,8.18778 -0.486995,9.36468 3.67775,7.43799 5.56386,13.3352l-7.56107 2.86875c-0.252147,3.13686 1.06846,5.28111 2.51215,6.91573 3.12289,0.229527 7.8212,-2.95989 11.0126,-3.719l2.1469 3.12023c-1.59072,2.099 -0.855569,-0.473024 -1.54149,2.76696 -0.724506,3.4256 -0.238175,6.48995 2.06241,9.15046 2.05776,2.37976 3.64581,0.399842 6.01426,2.61727 0.375891,0.351941 3.06368,4.30911 3.21337,4.75819 -0.06786,4.1022 -0.193601,7.0774 0.145034,11.01 0.438429,5.09216 0.570157,6.07946 -0.64467,10.1291 1.89542,2.10965 1.4856,1.32127 2.23206,4.86197 0.748456,3.55001 -0.217551,4.14811 2.35647,4.33306 0.947379,-1.40976 -0.141042,-3.92457 -0.268779,-5.59246 -0.0997942,-1.29932 0.291399,-4.33173 0.510946,-5.67696 0.431776,-2.64521 1.78365,-7.90237 2.86742,-9.88827 1.42639,0.437764 1.83355,0.788374 2.84081,1.97127l-2.69644 1.24344c-0.470363,5.35229 0.952036,5.87921 1.90939,10.3939 0.433772,2.04778 0.715191,5.48602 2.71307,6.54184 0.86954,0.459718 0.461049,-0.371234 1.21283,0.0186282 0.544876,4.95445 -0.840267,5.97767 -0.69989,8.42595 0.247489,4.29381 1.1809,14.7942 -0.0618724,17.8785 -0.391858,0.971995 -1.42107,1.39446 -2.04645,2.61461 -0.773072,1.50822 -1.07977,3.20738 -0.495644,4.32508 1.56411,2.99183 1.66191,3.11757 2.2926,6.788 0.66729,3.88665 0.891494,4.20333 -0.828291,7.68016 -1.18822,2.40171 -2.75631,13.6286 -2.22541,17.0289 0.378552,2.42234 -0.433107,0.707873 0.929416,1.69783 0.385871,-0.596769 0.540219,-1.6965 0.608744,-2.57735 0.311358,-4.01239 0.721179,-11.3612 2.86409,-14.0231 1.25142,2.18616 1.294,5.05491 1.84153,7.7254 0.349945,1.70914 1.06913,2.16221 1.13233,3.13354 0.355267,5.49799 -0.866213,0.769746 0.963346,13.0251 0.39452,2.64055 0.302044,5.333 1.78432,6.90509l0.566831 0.50762c-1.98657,5.38622 0.559513,5.99829 -0.635356,8.87636 -1.41708,3.41562 -3.23732,2.75365 -4.5413,5.81866 -1.65924,3.90262 -1.27803,4.14412 -4.42155,6.34491 -1.71047,1.1982 -4.88991,2.80688 -5.8679,4.16075 -2.21476,3.06501 0.495644,5.45941 3.03773,6.06948 6.84322,1.64195 11.4251,-5.009 15.6664,-3.91991 2.63856,0.676604 6.38882,0.401838 7.65621,-1.36385 1.59604,-2.73835 -2.20944,-13.9712 0.231522,-22.3712 0.487661,-1.67787 -0.183621,1.7311 0.209568,-0.647331 0.227531,-1.37782 -0.0525583,-0.770411 -0.453731,-2.19214 2.00852,-2.12362 4.59985,-2.36579 4.44483,-7.24705 -0.138381,-4.365 -2.54808,-6.15996 -2.45693,-8.81448 0.0831618,-2.42832 0.661968,-3.07832 -0.00266118,-5.68427 -1.00726,-3.94653 0.220212,-11.3153 2.00054,-14.5726 0.475685,4.1388 1.5029,6.7248 1.88145,11.7305 0.31535,4.16009 0.365912,7.84116 1.08044,11.8343 0.681927,3.81214 2.18549,7.74735 2.28928,11.1949 0.0951371,3.1342 -0.697894,10.4345 0.521591,12.5681 1.25608,2.19946 6.97761,4.13081 7.78927,5.62506 0.397181,0.730493 0.789039,4.6045 1.04651,5.82066 0.545541,2.57802 0.188944,3.14152 -0.422462,5.42348 -1.14031,4.26121 -0.0651988,8.57964 -0.76775,13.2567 -0.385205,2.56804 -2.14092,9.11054 -1.52153,10.8177 1.71846,3.87268 11.306,3.20206 13.0245,-0.164328 0.658641,-1.28934 1.39645,-15.522 1.21815,-17.4587 -0.247489,-2.68779 -0.450404,-5.977 -0.589451,-8.6302 -0.481673,-9.20169 1.40976,-11.5881 1.00193,-16.1886 -0.55419,-6.24645 -1.52485,-11.0146 -1.65193,-17.2737 -0.0651988,-3.18343 -0.80168,-4.92052 -1.05915,-8.26628 -0.263457,-3.4256 -1.08044,-4.94447 -0.548868,-8.37473 0.397846,-2.56804 -0.0725171,-9.03935 -0.734485,-12.447 -0.3393,-1.7464 -0.27144,-2.17019 -0.391193,-4.03301 -0.306035,-4.7349 -1.56876,-3.93588 -2.49951,-6.4813 -1.11304,-3.04572 0.620054,-14.063 -1.56211,-16.7129 0.0306035,-0.154348 0.127071,-0.320007 0.171646,-0.431111 1.0831,-2.6838 0.300713,-2.60795 -0.0731824,-5.66365 1.34855,-1.16826 2.80355,-1.56743 4.45148,-2.19414 -0.00266118,-2.89802 -5.19395,-6.65028 -6.50259,-10.8776l3.55467 -0.876858c0.185617,-1.45234 -1.47296,-4.99436 0.413813,-9.05066 3.70569,0.991954 2.58267,6.39348 4.42687,11.5129 1.45899,4.05098 -0.670617,3.78286 -0.55419,6.35689 0.106447,2.38375 2.26333,2.69577 3.00647,4.52932 2.44096,6.02158 -3.88998,11.9148 -2.78625,20.1824 0.207572,1.55213 0.123745,0.710534 0.456392,1.52552l0.691906 4.14013c2.61128,0.148361 4.15343,-0.824965 5.97767,-1.86415 6.12071,-3.48681 3.74827,-12.2155 3.91326,-18.4287 0.0705212,-2.65852 -0.671282,-5.01898 0.103121,-7.53379 0.379883,-1.23412 0.698559,-1.35121 0.94871,-2.83548 0.846254,-5.01632 1.54681,-3.0211 1.32992,-5.89783 -0.602757,-8.00549 -2.11231,-5.36959 -2.73569,-8.91095 -0.909457,-5.15936 0.502297,-9.1305 0.0266118,-14.7356 -0.228861,-2.6991 -0.674608,-3.79151 -0.913449,-6.89178 -0.157009,-2.03514 -1.3592,-4.94846 -1.32992,-6.00761 0.0459053,-1.616 0.832949,-1.5335 0.378552,-3.17412 -0.455061,-1.64062 -1.73841,-1.29599 -3.22867,-8.19709 -1.30265,-6.03023 -3.19408,-5.65899 -2.82484,-12.759 -1.52885,-0.770411 -2.90201,-1.67521 -4.70363,-2.54409 -1.07046,-0.516268 -3.9585,-1.65791 -4.75885,-2.23672 -2.57602,-1.86149 -1.03852,-5.38622 -7.38809,-6.94368 -3.00846,-0.738477 -3.93987,0.231522 -3.48747,-3.33179 0.763093,-6.00428 5.7049,-4.31044 2.584,-9.85434 -2.7776,-4.93515 2.84546,-10.0473 -7.31025,-14.3225 -4.5892,-1.93135 -7.75068,-0.576145 -10.0233,2.19281 -4.08956,4.98305 -1.99056,4.95112 -2.10233,10.9208 -0.0412482,2.22607 -1.92603,2.53344 -0.703881,6.07214 0.979979,2.84147 1.85617,0.375226 1.92802,4.74288 -3.52739,3.90129 -1.22015,2.57868 -2.19148,8.03077l-3.79018 -0.0538888c-4.15676,8.35942 -8.67211,4.69897 -12.1882,14.8414 -0.0944718,-0.132394 -0.159671,-0.321337 -0.212229,-0.444417 -2.77361,-6.4793 -1.95197,-0.532901 -4.67968,-5.22456 -6.40612,-11.0213 -3.24264,-7.31691 -4.26587,-9.26622 -1.38847,-2.64321 -0.922098,0.847585 -2.62126,-1.09241 -1.11769,-1.2767 -1.37383,-4.10487 -3.40697,-6.14799 -1.95863,0.139712 -1.65791,0.840932 -3.7975,1.35055 -1.0658,-2.24005 -6.48329,-8.70604 -6.64895,-10.9607 -0.140377,-1.92004 0.987297,-2.69444 0.153018,-5.03428 -1.15495,-1.53883 -1.83022,0.225535 -5.09349,0.9374 -1.87546,-1.46964 -3.08364,-4.10487 -4.81873,-5.50864l-1.2787 1.00127c0.0392524,0.0385871 2.17418,3.46086 2.35847,3.76823l0 0zm67.3178 131.212c-0.0465706,0.118422 -0.07917,0.221543 -0.0977983,0.310027 -0.0179629,0.0884841 -0.0259465,0.182291 -0.0246159,0.282085 0.00266118,0.111769 -0.029273,0.200254 -0.0951371,0.266118 -0.0651988,0.0658641 -0.357928,0.310027 -0.876858,0.731158 -0.192935,0.162332 -0.357928,0.306701 -0.493648,0.432441 -0.0665294,0.0605418 -0.119088,0.0991289 -0.159005,0.118422l-0.197592 -1.15894c0.0212894,-0.0412482 0.0785047,-0.0864883 0.171646,-0.135055 0.0924759,-0.0492318 0.138381,-0.097133 0.137716,-0.143704l-0.0864883 -0.623381c-0.0192935,-0.0465706 -0.152352,-0.111769 -0.399842,-0.194266 -0.0811659,-0.0279424 -0.206907,-0.0665294 -0.377887,-0.115761 -0.0492318,0.000665294 -0.109108,0.128402 -0.180295,0.382544 -0.154348,0.54288 -0.277428,0.950706 -0.370569,1.22215 -0.147695,0.431776 -0.295391,0.860226 -0.443086,1.28601 -0.0465706,0.141708 -0.0685253,0.256138 -0.0665294,0.344622 0.000665294,0.040583 0.122414,0.0958024 0.365247,0.164328 0.242832,0.0685253 0.379883,0.117092 0.411817,0.145699 -0.0399177,0.206241 -0.0731824,0.359259 -0.0977983,0.459718 -0.0785047,0.318011 -0.137716,0.489657 -0.176968,0.514273l-2.02715 -0.725171c0.0166324,-0.0765088 0.0638683,-0.226865 0.141708,-0.451735 0.0785047,-0.224204 0.137716,-0.343292 0.177634,-0.355932l0.498305 0.122414c0.0572153,-0.0485665 0.1131,-0.166989 0.167654,-0.355932 0.111769,-0.413148 0.231522,-0.839601 0.359259,-1.27936 0.127071,-0.43976 0.254142,-0.878189 0.378552,-1.31529 0.0459053,-0.165658 0.0685253,-0.280089 0.0671947,-0.344622 -0.00133059,-0.0525583 -0.0598765,-0.0984636 -0.177634,-0.137716 -0.242832,-0.0711865 -0.471028,-0.139712 -0.684588,-0.205576 -0.213559,-0.0658641 -0.43976,-0.135055 -0.6786,-0.206241 -0.147695,-0.0439094 -0.255473,-0.0651988 -0.322668,-0.0638683l-0.00199588 -0.0884841c0.00465706,-0.01131 0.0572153,-0.170981 0.15834,-0.478347 0.0711865,-0.224869 0.12441,-0.354602 0.159671,-0.390528l1.72444 0.704547c0.0525583,-0.0485665 0.141042,-0.352606 0.266118,-0.912784 0.125075,-0.560178 0.186948,-0.866879 0.185617,-0.919437 -0.000665294,-0.0465706 -0.0365912,-0.0698559 -0.108443,-0.06786 -0.0984636,0.00199588 -0.238175,0.0312688 -0.420466,0.0878189 -0.0625377,0.0186282 -0.149026,0.0498971 -0.26013,0.0931412l-0.0139712 -0.677935 2.26932 -0.873531c0.0179629,0 0.0731824,0.194931 0.166324,0.58679 0.0592112,0.259465 0.105782,0.464375 0.139712,0.612736 -0.0439094,0.0133059 -0.0711865,0.0192935 -0.0798353,0.0199588 -0.0359259,0.000665294 -0.0738477,0.00133059 -0.113765,0.00199588 -0.120418,0.00199588 -0.212229,0.0133059 -0.274101,0.0319341 -0.0625377,0.0186282 -0.0931412,0.0578806 -0.0918106,0.116427 0.00199588,0.105782 0.172311,0.662633 0.510281,1.67122l0.427784 1.26805c0.0332647,0.0991289 0.0665294,0.197592 0.100459,0.297387 0.0186282,0.0465706 0.0412482,0.0691906 0.06786,0.0685253 0.00465706,0 0.0379218,-0.0212894 0.0991289,-0.063203 0.0625377,-0.0425788 0.122414,-0.0638683 0.180295,-0.0651988 0.0266118,-0.000665294 0.0492318,0.00199588 0.0671947,0.00731824l0 0zm-1.86282 -0.913449l-0.00133059 -0.0698559c-0.0252812,-0.146365 -0.0432441,-0.257469 -0.0538888,-0.333312 -0.0352606,-0.210898 -0.063203,-0.351275 -0.0824965,-0.421131 -0.0439094,0.0479012 -0.0918106,0.153018 -0.144369,0.31535 -0.0525583,0.162332 -0.0898147,0.2588 -0.111769,0.288072l0.00199588 0.0884841 0.318011 0.134389 0.0738477 -0.00199588 0 0zm8.51843 -3.52806c-0.0798353,0.447743 -0.143038,0.791035 -0.190274,1.02988 -0.0465706,0.238841 -0.0871536,0.358594 -0.123079,0.359259 -0.0266118,0.000665294 -0.0671947,-0.00731824 -0.121084,-0.0239506 -0.130398,-0.0385871 -0.213559,-0.0572153 -0.249485,-0.05655 -0.14703,0.00266118 -0.278758,0.689245 -0.393854,2.05909 -0.00997942,0.153018 -0.0445747,0.510281 -0.102455,1.07179 -0.0578806,0.562174 -0.0851577,0.910788 -0.0824965,1.04584 0.00731824,0.357263 0.0119753,0.56417 0.0126406,0.620054 0.00133059,0.0558847 0.00266118,0.130398 0.00465706,0.224204 0.00266118,0.117757 0.0412482,0.175638 0.117757,0.173642 0.07917,-0.0425788 0.143704,-0.0818312 0.19227,-0.117757 0.149026,-0.115096 0.273436,-0.261461 0.372565,-0.439094 0.00598765,0.040583 0.0179629,0.185617 0.0359259,0.434437 0.0186282,0.249485 0.0306035,0.506289 0.0359259,0.769746 0.00266118,0.129067 -0.143704,0.29406 -0.439094,0.493648 -0.366577,0.218882 -0.733154,0.437098 -1.1004,0.65598 -0.122414,-0.320007 -0.245494,-0.640678 -0.367908,-0.960685 -0.245494,-0.628703 -0.504293,-1.25741 -0.775733,-1.88611 -0.310027,-0.721844 -0.524917,-1.15761 -0.644005,-1.30797 -0.0439094,0.0485665 -0.0758436,0.128402 -0.0958024,0.240171 -0.0199588,0.111769 -0.0272771,0.29406 -0.0219547,0.546207 0.00665294,0.345953 0.0106447,0.548868 0.0119753,0.607414 0.00133059,0.0585459 0.00199588,0.108443 0.00332647,0.149691 -0.00864883,0.0179629 -0.0153018,0.0352606 -0.0192935,0.0532235 -0.0332647,0.123745 -0.0472359,0.306035 -0.0425788,0.546207l0.0133059 0.634026 0.804341 -0.0166324 0.00665294 0.334643 -0.133724 1.35853 -0.0665294 0.00133059 -2.14424 -0.554855 -0.00598765 -0.308031c-0.00532235,-0.258134 -0.00598765,-0.405164 -0.00199588,-0.440425 0.0179629,-0.188278 0.112435,-0.284081 0.282085,-0.287407l0.388532 -0.00798353 -0.051893 -2.56072c-0.0179629,-0.00532235 -0.029273,-0.01131 -0.03393,-0.0172977 -0.02262,-0.0286077 -0.0345953,-0.0725171 -0.0365912,-0.131063l-0.00532235 -0.299382 -0.172977 -1.87147c-0.0459053,-0.0578806 -0.0771741,-0.0864883 -0.0951371,-0.0864883 -0.0798353,0.0252812 -0.151022,0.0558847 -0.212894,0.0924759 -0.172311,0.109108 -0.380548,0.295391 -0.626042,0.558847 -0.0325994,-0.0871536 -0.0552194,-0.415809 -0.0665294,-0.985301l-0.0146365 -0.729828c-0.00133059,-0.0592112 0.111769,-0.131728 0.340631,-0.218882 0.228196,-0.0864883 0.509615,-0.162997 0.843593,-0.228196 0.111769,-0.0199588 0.285411,-0.0718518 0.523587,-0.156344 0.236845,-0.0838271 0.482338,-0.172311 0.73515,-0.265452 0.0359259,-0.000665294 0.125741,0.228861 0.269444,0.68991 0.129067,0.419801 0.258134,0.840267 0.387201,1.26007 0.0765088,0.227531 0.218882,0.596104 0.42845,1.10505 0.209568,0.50895 0.341961,0.807002 0.397181,0.894156l0.01131 -1.44369c-0.0186282,-0.00598765 -0.0299382,-0.01131 -0.0345953,-0.0172977 -0.02262,-0.02262 -0.0345953,-0.0665294 -0.0359259,-0.131063 -0.00598765,-0.299382 -0.01131,-0.558847 -0.0159671,-0.77906 -0.00465706,-0.220212 -0.00665294,-0.332647 -0.00665294,-0.338635 -0.0359259,-0.222208 -0.0931412,-0.376557 -0.170315,-0.46371 -0.0505624,-0.0572153 -0.120418,-0.0851577 -0.210233,-0.0831618 -0.0578806,0.00133059 -0.0977983,0.00199588 -0.120418,0.00199588 -0.0532235,0.00133059 -0.0811659,-0.0332647 -0.0824965,-0.103786 0.0179629,-0.199588 0.0332647,-0.349945 0.0445747,-0.449739 0.0385871,-0.306035 0.0844924,-0.459718 0.138381,-0.460384 0.107778,0.0212894 0.188278,0.03393 0.242167,0.0385871 0.174972,0.0259465 0.286742,0.0385871 0.335974,0.0372565 0.571488,-0.01131 0.909457,-0.0186282 1.01191,-0.0206241 0.103121,-0.00199588 0.163662,-0.00332647 0.18096,-0.00332647 0.00532235,0.0232853 0.00997942,0.0379218 0.0146365,0.0432441 0.0232853,0.0345953 0.05655,0.051893 0.101125,0.0505624l0.824965 -0.0166324 0.00133059 0.0878189 0 0zm8.34745 0.534231l-0.522921 1.33192c-0.262126,-0.129732 -0.412482,-0.202915 -0.450404,-0.220212 -0.0385871,-0.0166324 -0.0824965,-0.0246159 -0.131063,-0.0232853 -0.0538888,0.000665294 -0.177634,0.190274 -0.371234,0.566165 -0.193601,0.377222 -0.38454,0.749121 -0.574149,1.11703 -0.228196,0.421131 -0.454396,0.842928 -0.6786,1.26406 -0.085823,0.166324 -0.127071,0.31668 -0.12441,0.45107l0.0385871 1.91871 0.0738477 -0.00133059c0.103121,-0.00798353 0.208902,-0.0186282 0.318011,-0.0325994 0.109108,-0.0139712 0.201584,-0.0392524 0.276762,-0.0765088l0.0738477 -0.00133059 0.00665294 0.31668c0.00598765,0.30537 -0.0126406,0.592112 -0.05655,0.860226 -0.0432441,0.267448 -0.0811659,0.401838 -0.112435,0.402503 -0.0765088,-0.0219547 -0.151687,-0.0425788 -0.225535,-0.0612071 -0.074513,-0.0192935 -0.127071,-0.0286077 -0.15834,-0.0279424l-2.54076 0.051893c-0.00133059,-0.0645336 0,-0.130398 0.00266118,-0.200919 0.00332647,-0.0691906 0.00399177,-0.119088 0.00399177,-0.148361 -0.00199588,-0.0645336 -0.00598765,-0.165658 -0.0133059,-0.304705 -0.00731824,-0.139712 -0.0119753,-0.254142 -0.0133059,-0.340631 0.0532235,-0.000665294 0.105782,-0.00199588 0.157009,-0.00332647 0.051893,-0.000665294 0.10179,-0.00199588 0.151022,-0.00266118 0.0625377,-0.00133059 0.111769,-0.00266118 0.147695,-0.00332647l0.164328 -0.161667 -0.0385871 -1.88611c-0.0192935,-0.0818312 -0.0412482,-0.155014 -0.0651988,-0.218882 -0.146365,-0.390528 -0.422462,-0.898813 -0.828291,-1.52552 -0.2262,-0.341296 -0.440425,-0.692571 -0.642674,-1.04917 -0.200919,-0.357263 -0.34928,-0.546207 -0.443751,-0.567496l-0.860226 0.23751 -0.188944 -1.03653c0,-0.0119753 0.257469,-0.108443 0.772407,-0.288738 0.314684,-0.112435 0.627373,-0.247489 0.9374,-0.406495 0.097133,-0.0492318 0.413813,-0.185617 0.95004,-0.408491 0.377222,-0.154348 0.638017,-0.291399 0.783051,-0.411817l0.121084 -0.00266118c0.00133059,0.0878189 0.0286077,0.325329 0.0811659,0.711865 0.0525583,0.385871 0.0911453,0.620054 0.115096,0.70122l0.00532235 0.246824 -0.767084 0.209568 0.00199588 0.0878189c0.00133059,0.0645336 0.176303,0.43976 0.525583,1.12501 0.145034,0.290734 0.291399,0.580802 0.440425,0.871536 0.0558847,0.104451 0.108443,0.156344 0.157009,0.155014 0.0272771,0 0.109774,-0.134389 0.246824,-0.400507 0.111769,-0.220212 0.268779,-0.530905 0.471028,-0.934739 0.179629,-0.367242 0.331982,-0.701886 0.455061,-1.00393 0.0432441,-0.100459 0.0898147,-0.222208 0.140377,-0.363916 -0.000665294,-0.029273 -0.106447,-0.0798353 -0.318011,-0.152352 -0.149026,-0.0492318 -0.268114,-0.108443 -0.359259,-0.176968 0.0878189,-0.312688 0.191605,-0.582133 0.312023,-0.807667 0.0385871,-0.0771741 0.0951371,-0.166324 0.168985,-0.268114 0.194266,0.0964677 0.486995,0.226865 0.879519,0.391858 0.392524,0.164993 0.894156,0.332647 1.50623,0.501632l0 0zm-10.0752 19.4818l-2.68247 0.655315c-0.00864883,-0.0492318 -0.029273,-0.208902 -0.0618724,-0.478347 -0.0332647,-0.269444 -0.0472359,-0.412482 -0.0432441,-0.429115 0.0365912,-0.0172977 0.116427,-0.0412482 0.238175,-0.0718518 0.121749,-0.0299382 0.221543,-0.07917 0.298717,-0.147695 -0.0532235,-0.171646 -0.176303,-0.522256 -0.369904,-1.0525 -0.114431,-0.320672 -0.200254,-0.55286 -0.256804,-0.696563 -0.153683,-0.402503 -0.298717,-0.80301 -0.435768,-1.20152 -0.113765,-0.325329 -0.198258,-0.488326 -0.252147,-0.486995 -0.0578806,0.00133059 -0.21489,0.369238 -0.469698,1.10306 -0.164328,0.482338 -0.296056,0.837606 -0.395185,1.0678 -0.121749,-0.27011 -0.221543,-0.487661 -0.299382,-0.652654 -0.221543,-0.469033 -0.443751,-0.912119 -0.668621,-1.33059 -0.0558847,-0.104451 -0.111769,-0.211564 -0.168319,-0.322002 -0.03393,-0.0605418 -0.0638683,-0.09048 -0.0891494,-0.09048 -0.0332647,0.00133059 -0.0831618,0.171646 -0.151022,0.512277 -0.0831618,0.397181 -0.155679,0.805006 -0.217551,1.22348 -0.0844924,0.558182 -0.150357,0.977317 -0.198923,1.25608 -0.0219547,0.134389 -0.0498971,0.293395 -0.0838271,0.477681 0.00133059,0.0612071 0.0997942,0.110439 0.296056,0.148361 0.195597,0.0379218 0.385205,0.0545541 0.567496,0.0512277l0.00266118 0.150357c-0.0944718,0.230192 -0.174307,0.459718 -0.238175,0.689245 -0.063203,0.229527 -0.120418,0.355267 -0.16965,0.379218l-2.13826 -0.499636c0.0252812,-0.161667 0.0472359,-0.365247 0.0651988,-0.61074 0.0179629,-0.244828 0.0492318,-0.367908 0.0951371,-0.369238 0.104451,0.0312688 0.185617,0.0552194 0.243498,0.0705212 0.179629,0.0465706 0.311358,0.0685253 0.393854,0.0671947 0.0332647,-0.000665294 0.0805006,-0.335308 0.141708,-1.00459 0.03393,-0.379218 0.0479012,-0.671947 0.0439094,-0.877523l-0.00532235 -0.275432 0.0525583 -0.785713c-0.00532235,-0.250151 -0.0106447,-0.468367 -0.0166324,-0.655315 -0.00598765,-0.185617 -0.0119753,-0.339965 -0.0186282,-0.46238 0.00399177,-0.0166324 0.00731824,-0.0505624 0.00997942,-0.100459 0.0239506,-0.0505624 0.0419135,-0.0984636 0.0538888,-0.143038 0.0379218,-0.162332 0.0538888,-0.368573 0.0492318,-0.618724 -0.00133059,-0.0612071 -0.0412482,-0.0911453 -0.119753,-0.0891494 -0.0991289,0.0352606 -0.175638,0.0618724 -0.228861,0.0798353 -0.164993,0.0645336 -0.282085,0.133059 -0.35061,0.206907 -0.00532235,-0.0385871 -0.0133059,-0.178964 -0.0246159,-0.420466 -0.01131,-0.242167 -0.0186282,-0.466371 -0.02262,-0.671947 -0.00266118,-0.117092 0.162997,-0.245494 0.49631,-0.385871 0.197592,-0.0871536 0.511611,-0.200919 0.942057,-0.339965 0.431111,-0.140377 0.67727,-0.235514 0.737811,-0.286742l0.0691906 -0.00133059c0.0665294,0.220878 0.224204,0.635356 0.473024,1.24277 0.301378,0.73382 0.515603,1.16094 0.642674,1.28069l0.827626 -2.747c0.224869,0.029273 0.397181,0.0532235 0.518264,0.0731824 0.328655,0.0492318 0.592777,0.0838271 0.792366,0.104451 0.200254,0.0212894 0.363916,0.0306035 0.492318,0.0279424 0.0831618,-0.00133059 0.170315,-0.00931412 0.261461,-0.0219547 0.0911453,-0.0133059 0.151022,-0.0199588 0.179629,-0.0199588l0.0312688 1.5182 -0.0498971 0.000665294 -0.793031 -0.133724 -0.24882 0.00465706 0.00465706 0.242167c0.0279424,0.161001 0.0651988,0.352606 0.111104,0.574149 0.0824965,0.387201 0.242832,1.02189 0.480343,1.90141 0.112435,0.415144 0.188944,0.705877 0.229527,0.872201 0.108443,0.409821 0.204911,0.752448 0.288738,1.02921 0.0232853,0.110439 0.0459053,0.218882 0.0691906,0.323998 0.0312688,0.110439 0.0718518,0.165658 0.121749,0.164328 0.04524,-0.000665294 0.18096,-0.0651988 0.406495,-0.191605 0.0738477,-0.040583 0.184952,-0.104451 0.332647,-0.190939 0.0246159,0 0.0665294,0.226865 0.125741,0.681927 0.0192935,0.150357 0.0472359,0.377887 0.0824965,0.683257l0 0zm5.3503 -3.48149c-0.0432441,0.111769 -0.0731824,0.210233 -0.09048,0.29406 -0.0166324,0.0838271 -0.0239506,0.172977 -0.02262,0.267448 0.00266118,0.105782 -0.0272771,0.189609 -0.0884841,0.252147 -0.0605418,0.0625377 -0.331982,0.293395 -0.813655,0.692571 -0.178964,0.153683 -0.331982,0.290734 -0.458388,0.410487 -0.0612071,0.05655 -0.109774,0.0938065 -0.14703,0.111104l-0.184287 -1.0984c0.0206241,-0.0385871 0.0731824,-0.0818312 0.159671,-0.127737 0.085823,-0.0465706 0.128402,-0.0918106 0.127737,-0.136385l-0.0805006 -0.590781c-0.0172977,-0.0445747 -0.141042,-0.106447 -0.371234,-0.184952 -0.0751783,-0.0259465 -0.19227,-0.0625377 -0.35061,-0.109774 -0.04524,0.00133059 -0.101125,0.121749 -0.166989,0.362585 -0.143038,0.514938 -0.257469,0.901474 -0.343292,1.15894 -0.137051,0.409156 -0.274101,0.815651 -0.411152,1.21882 -0.0425788,0.134389 -0.063203,0.243498 -0.0618724,0.32666 0.00133059,0.0392524 0.113765,0.0911453 0.3393,0.156344 0.225535,0.0645336 0.353271,0.111104 0.382544,0.138381 -0.0372565,0.194931 -0.06786,0.340631 -0.09048,0.435768 -0.0731824,0.302044 -0.127737,0.464375 -0.164328,0.486995l-1.88145 -0.687914c0.0153018,-0.0725171 0.0585459,-0.215555 0.131728,-0.427784 0.0718518,-0.213559 0.126406,-0.325329 0.163662,-0.337304l0.463045 0.115761c0.0532235,-0.0459053 0.105117,-0.15834 0.155014,-0.337304 0.103786,-0.391858 0.21489,-0.795692 0.333312,-1.21283 0.117757,-0.41714 0.234849,-0.832949 0.351275,-1.24676 0.0425788,-0.157009 0.063203,-0.266118 0.0618724,-0.327325 -0.00133059,-0.0498971 -0.0558847,-0.0931412 -0.164328,-0.129732 -0.2262,-0.06786 -0.437764,-0.133059 -0.636021,-0.196262 -0.198258,-0.0625377 -0.408491,-0.127737 -0.629368,-0.195597 -0.137716,-0.0419135 -0.238175,-0.0618724 -0.300048,-0.0605418l-0.00199588 -0.0831618c0.00399177,-0.01131 0.0525583,-0.162997 0.146365,-0.453731 0.0665294,-0.212894 0.115761,-0.336639 0.147695,-0.370569l1.60136 0.668621c0.0485665,-0.0459053 0.131063,-0.333978 0.246824,-0.864883 0.115761,-0.53157 0.172977,-0.821639 0.172311,-0.872201 -0.00133059,-0.0439094 -0.0345953,-0.0658641 -0.101125,-0.0645336 -0.0911453,0.00199588 -0.221543,0.0299382 -0.390528,0.0831618 -0.0578806,0.0179629 -0.137716,0.0472359 -0.240837,0.0884841l-0.0133059 -0.642674 2.10566 -0.826961c0.0166324,-0.000665294 0.0685253,0.184952 0.154348,0.556186 0.0552194,0.246159 0.0984636,0.43976 0.130398,0.581467 -0.0412482,0.0119753 -0.0658641,0.0179629 -0.074513,0.0179629 -0.0325994,0.000665294 -0.0685253,0.00133059 -0.105782,0.00199588 -0.111769,0.00199588 -0.196262,0.0126406 -0.254142,0.0299382 -0.0578806,0.0179629 -0.0864883,0.0552194 -0.0851577,0.110439 0.00199588,0.100459 0.160336,0.628703 0.474355,1.58473l0.397846 1.20285c0.0312688,0.0938065 0.0618724,0.187613 0.0931412,0.28142 0.0172977,0.0445747 0.0385871,0.0658641 0.063203,0.0658641 0.00465706,0 0.0352606,-0.0199588 0.0924759,-0.0605418 0.0572153,-0.0399177 0.112435,-0.0605418 0.166989,-0.0618724 0.0246159,-0.000665294 0.04524,0.00199588 0.0618724,0.00731824l0 0zm-1.7291 -0.866213l-0.00133059 -0.0671947c-0.0239506,-0.138381 -0.040583,-0.244163 -0.0498971,-0.316015 -0.0332647,-0.199588 -0.0592112,-0.332647 -0.0771741,-0.399177 -0.0399177,0.0459053 -0.0851577,0.145034 -0.133724,0.299382 -0.0485665,0.153683 -0.0831618,0.244828 -0.103121,0.273436l0.00199588 0.0831618 0.294725 0.127737 0.0685253 -0.00133059 0 0zm7.90503 -3.34177c-0.0738477,0.424458 -0.132394,0.749787 -0.175638,0.975987 -0.0432441,0.2262 -0.0818312,0.339965 -0.114431,0.340631 -0.0246159,0.000665294 -0.0625377,-0.00731824 -0.112435,-0.02262 -0.121084,-0.0365912 -0.198923,-0.0545541 -0.231522,-0.0538888 -0.137051,0.00266118 -0.258134,0.653319 -0.364581,1.95264 -0.00997942,0.144369 -0.0412482,0.483004 -0.0951371,1.0159 -0.0532235,0.532235 -0.0785047,0.862887 -0.0758436,0.990623 0.00665294,0.3393 0.0106447,0.535562 0.0119753,0.58812 0.00133059,0.0532235 0.00266118,0.123745 0.00465706,0.212894 0.00199588,0.111769 0.0379218,0.166324 0.108443,0.164993 0.0738477,-0.040583 0.133724,-0.0778394 0.178299,-0.112435 0.139047,-0.108443 0.254808,-0.246824 0.346618,-0.415809 0.00532235,0.0385871 0.0159671,0.176303 0.0332647,0.412482 0.0172977,0.236179 0.0286077,0.479012 0.03393,0.729828 0.00199588,0.122414 -0.133724,0.278093 -0.407825,0.467037 -0.340631,0.207572 -0.680596,0.414478 -1.02056,0.62205 -0.113765,-0.303374 -0.228196,-0.607414 -0.342627,-0.911453 -0.227531,-0.596104 -0.467702,-1.19221 -0.721179,-1.78831 -0.287407,-0.683923 -0.486995,-1.09774 -0.597434,-1.24011 -0.0412482,0.0459053 -0.0705212,0.121084 -0.0891494,0.227531 -0.0186282,0.105782 -0.0252812,0.278758 -0.0206241,0.517599 0.00665294,0.328655 0.01131,0.52026 0.0119753,0.576145 0.00133059,0.0552194 0.00199588,0.102455 0.00266118,0.141708 -0.00798353,0.0172977 -0.0139712,0.03393 -0.0172977,0.0505624 -0.0306035,0.117757 -0.0439094,0.290068 -0.0392524,0.518264l0.0119753 0.600761 0.74646 -0.0153018 0.00665294 0.317345 -0.123079 1.28801 -0.0618724 0.00133059 -1.99056 -0.526913 -0.00598765 -0.29273c-0.00465706,-0.244163 -0.00532235,-0.383875 -0.00199588,-0.41714 0.0172977,-0.178299 0.104451,-0.268779 0.262126,-0.272105l0.36059 -0.00798353 -0.0492318 -2.42766c-0.0166324,-0.00532235 -0.0272771,-0.0106447 -0.0312688,-0.0159671 -0.0212894,-0.0279424 -0.0325994,-0.0691906 -0.03393,-0.12441l-0.00598765 -0.284081 -0.160336 -1.77434c-0.0425788,-0.0552194 -0.0725171,-0.0824965 -0.0891494,-0.0818312 -0.0738477,0.0239506 -0.139712,0.0525583 -0.196927,0.0871536 -0.159671,0.103786 -0.353937,0.280089 -0.580802,0.529574 -0.0306035,-0.0824965 -0.0512277,-0.39452 -0.0625377,-0.933408l-0.0139712 -0.693237c-0.00133059,-0.0552194 0.103786,-0.123745 0.31668,-0.206241 0.211564,-0.0824965 0.473024,-0.154348 0.782386,-0.216886 0.103121,-0.0186282 0.265452,-0.06786 0.485665,-0.14703 0.220212,-0.0798353 0.448408,-0.163662 0.682592,-0.252147 0.0332647,-0.000665294 0.116427,0.217551 0.250151,0.65465 0.119753,0.397846 0.240171,0.796357 0.36059,1.19487 0.0705212,0.215555 0.202915,0.56417 0.397846,1.04784 0.194266,0.483004 0.317345,0.765088 0.369238,0.847585l0.00931412 -1.36918c-0.0172977,-0.00532235 -0.0272771,-0.00997942 -0.0319341,-0.0159671 -0.0212894,-0.0212894 -0.0319341,-0.063203 -0.0332647,-0.12441 -0.00598765,-0.283415 -0.0106447,-0.529574 -0.0153018,-0.738477 -0.00399177,-0.208237 -0.00665294,-0.31535 -0.00665294,-0.321337 -0.0332647,-0.210233 -0.085823,-0.357263 -0.15834,-0.439094 -0.0465706,-0.0545541 -0.111769,-0.0811659 -0.194266,-0.0798353 -0.0538888,0.00133059 -0.0911453,0.00199588 -0.112435,0.00266118 -0.0492318,0.000665294 -0.0751783,-0.0319341 -0.0765088,-0.0984636 0.0166324,-0.189609 0.0306035,-0.331982 0.0412482,-0.426454 0.0352606,-0.290068 0.0785047,-0.435768 0.127737,-0.437098 0.100459,0.0199588 0.174972,0.0325994 0.224869,0.0372565 0.162332,0.0246159 0.266783,0.0365912 0.312023,0.0352606 0.530905,-0.0106447 0.844259,-0.0172977 0.940061,-0.0192935 0.0951371,-0.00133059 0.151022,-0.00266118 0.167654,-0.00332647 0.00465706,0.0219547 0.00864883,0.0365912 0.0133059,0.0419135 0.0212894,0.0325994 0.0525583,0.0492318 0.0938065,0.0479012l0.765754 -0.0153018 0.00133059 0.0831618 0 0zm-27.2212 -27.6084c-0.396515,-0.0871536 -0.74646,-0.216886 -1.0505,-0.392524 -0.303374,-0.175638 -0.555521,-0.375226 -0.758436,-0.593443 -0.202915,-0.220212 -0.351941,-0.437764 -0.447743,-0.657311 -0.0958024,-0.216886 -0.13572,-0.411817 -0.116427,-0.582133 0.00931412,-0.07917 0.0432441,-0.138381 0.101125,-0.176303 0.0578806,-0.0372565 0.140377,-0.0498971 0.245494,-0.0319341 0.155014,0.0272771 0.325329,0.102455 0.506289,0.223539 0.18096,0.118422 0.365247,0.282085 0.549533,0.490322 0.185617,0.208902 0.36059,0.454396 0.528909,0.743799 0.165658,0.288738 0.313354,0.613401 0.441755,0.975987l0 0zm0.618058 -0.12441c-0.085823,-0.441755 -0.208902,-0.848916 -0.368573,-1.22348 -0.157675,-0.376557 -0.341296,-0.707208 -0.547537,-0.991289 -0.208902,-0.284746 -0.426454,-0.50762 -0.655315,-0.676604 -0.0705212,-0.0512277 -0.143704,-0.0938065 -0.220212,-0.127737 -0.07917,-0.0319341 -0.155679,-0.0638683 -0.234849,-0.0951371 -0.07917,-0.0345953 -0.154348,-0.0778394 -0.228861,-0.129732 -0.0365912,-0.0332647 -0.0838271,-0.0711865 -0.140377,-0.117092 -0.0598765,-0.0465706 -0.133059,-0.0918106 -0.221543,-0.134389 -0.0891494,-0.0459053 -0.194931,-0.0758436 -0.322002,-0.101125 -0.324664,-0.0545541 -0.58679,-0.00731824 -0.785047,0.139712 -0.200254,0.14703 -0.318676,0.379883 -0.357928,0.698559 -0.0166324,0.143704 -0.00532235,0.339965 0.0312688,0.585459 0.0385871,0.245494 0.104451,0.525583 0.196262,0.83694 0.0931412,0.312688 0.216886,0.638683 0.367242,0.978648 0.151687,0.339965 0.331982,0.673278 0.54155,1.00526 0.180295,0.279424 0.379218,0.535562 0.589451,0.766419 0.212229,0.231522 0.425788,0.433107 0.642674,0.608744 0.217551,0.172311 0.424458,0.313354 0.62072,0.419135 0.197592,0.106447 0.371234,0.172311 0.52026,0.198923 0.296056,0.0485665 0.55419,0.040583 0.774403,-0.0286077 0.222208,-0.0685253 0.399177,-0.18096 0.530905,-0.337304 0.132394,-0.15834 0.209568,-0.345288 0.23751,-0.56417 0.0319341,-0.263457 0.0798353,-0.523587 0.141042,-0.781721 0.063203,-0.254808 0.123079,-0.500967 0.183621,-0.737811 0.0592112,-0.240837 0.103121,-0.466371 0.129732,-0.675939 0.0179629,-0.176303 0.0186282,-0.376557 0.00199588,-0.603422 -0.0186282,-0.224204 -0.0505624,-0.453731 -0.097133,-0.68858 -0.0465706,-0.235514 -0.103786,-0.454396 -0.16965,-0.657311 -0.0665294,-0.202249 -0.141042,-0.367908 -0.220212,-0.500967 -0.0765088,-0.130398 -0.157009,-0.204245 -0.240171,-0.221543 -0.06786,-0.00864883 -0.127071,0.0139712 -0.177634,0.06786 -0.0538888,0.0558847 -0.0851577,0.133724 -0.0997942,0.242167 -0.00532235,0.0705212 0.00864883,0.157009 0.0419135,0.257469 0.0325994,0.104451 0.0705212,0.224869 0.115096,0.361255 0.0445747,0.13572 0.0778394,0.291399 0.102455,0.465706 0.0252812,0.171646 0.0279424,0.363251 0.00598765,0.574149 -0.0325994,0.275432 -0.109108,0.515603 -0.226865,0.721844 -0.119753,0.206241 -0.272105,0.361255 -0.460384,0.465706l0 0zm-2.16287 4.56592c0.13572,-0.0718518 0.239506,-0.157675 0.314019,-0.264122 0.0725171,-0.107112 0.114431,-0.200919 0.125075,-0.286077 0.00266118,-0.0472359 0.000665294,-0.125075 -0.0119753,-0.231522 -0.0106447,-0.103786 -0.0259465,-0.220212 -0.0472359,-0.343292 -0.0192935,-0.122414 -0.040583,-0.233518 -0.0625377,-0.333312 -0.0219547,-0.0991289 -0.0432441,-0.165658 -0.0592112,-0.198258 -0.0399177,-0.0665294 -0.0851577,-0.116427 -0.137716,-0.143704 -0.0532235,-0.0272771 -0.115761,-0.0472359 -0.188278,-0.0572153 -0.129732,-0.0192935 -0.230857,-0.0133059 -0.306035,0.0153018 -0.0731824,0.0319341 -0.13572,0.0718518 -0.184287,0.123079 -0.0498971,0.0505624 -0.0997942,0.0931412 -0.153018,0.128402 -0.0532235,0.0325994 -0.123745,0.0439094 -0.209568,0.0319341 -0.111104,-0.02262 -0.215555,-0.0671947 -0.310692,-0.131728 -0.0977983,-0.06786 -0.183621,-0.139712 -0.263457,-0.219547 -0.0785047,-0.0798353 -0.146365,-0.148361 -0.206241,-0.209568 -0.0605418,-0.0585459 -0.109774,-0.0938065 -0.149026,-0.103786 -0.0479012,-0.00864883 -0.123079,-0.000665294 -0.221543,0.0239506 -0.0991289,0.0212894 -0.20358,0.0598765 -0.31535,0.111769 -0.108443,0.0498971 -0.202915,0.113765 -0.284746,0.188944 -0.0824965,0.0751783 -0.131063,0.162332 -0.144369,0.2588 -0.00598765,0.0552194 0.0252812,0.189609 0.0898147,0.403834 0.0665294,0.217551 0.168319,0.498305 0.302709,0.847585 0.0691906,0.172977 0.197592,0.323998 0.379883,0.445747 0.184287,0.12441 0.405164,0.208237 0.66596,0.256804 0.105117,0.0179629 0.210898,0.0279424 0.321337,0.0232853 0.111769,-0.00133059 0.227531,-0.0166324 0.351941,-0.0485665 0.135055,0.223539 0.328655,0.466371 0.576145,0.721844 0.250151,0.256138 0.550864,0.556851 0.900143,0.898813 -0.427119,-0.248155 -0.810329,-0.4524 -1.15162,-0.617393 -0.341296,-0.161001 -0.644005,-0.268114 -0.913449,-0.318011 -0.499636,-0.0878189 -0.76775,0.0266118 -0.803676,0.342627 -0.00798353,0.0851577 0.00399177,0.174307 0.0312688,0.268114 0.0299382,0.0918106 0.0572153,0.204245 0.0851577,0.331317 0.0272771,0.130398 0.0379218,0.290734 0.0266118,0.483004 -0.0139712,0.221543 0.00399177,0.433772 0.0538888,0.639348 0.0485665,0.202915 0.115761,0.372565 0.200919,0.506954 0.0844924,0.137716 0.176303,0.216221 0.27011,0.235514 0.0811659,0.0139712 0.152352,-0.0239506 0.214225,-0.111769 0.0618724,-0.0911453 0.105117,-0.235514 0.131063,-0.437098 0.00665294,-0.0818312 0.0212894,-0.148361 0.040583,-0.198923 0.0186282,-0.0472359 0.0492318,-0.0805006 0.0964677,-0.0991289 0.0459053,-0.0159671 0.115761,-0.0153018 0.205576,0 0.443086,0.0778394 0.812324,0.190274 1.10838,0.331982 0.296721,0.144369 0.512277,0.307366 0.647331,0.495644 0.0824965,0.119088 0.144369,0.242832 0.189609,0.37323 0.0432441,0.127071 0.0884841,0.239506 0.13572,0.334643 0.0472359,0.0951371 0.113765,0.154348 0.20358,0.172977 0.0658641,0.00864883 0.148361,-0.00665294 0.247489,-0.0525583 0.101125,-0.0445747 0.202915,-0.110439 0.307366,-0.199588 0.103786,-0.0891494 0.194266,-0.192935 0.270775,-0.314019 0.0765088,-0.121084 0.125075,-0.252812 0.143704,-0.392524 0.00731824,-0.0884841 -0.00332647,-0.204245 -0.0359259,-0.352606 -0.0319341,-0.149026 -0.0765088,-0.306035 -0.132394,-0.474355 -0.05655,-0.168319 -0.119088,-0.325994 -0.185617,-0.468367 -0.06786,-0.146365 -0.133059,-0.259465 -0.195597,-0.341961 -0.0898147,-0.108443 -0.208237,-0.224869 -0.355267,-0.34928 -0.144369,-0.123745 -0.309362,-0.262791 -0.489657,-0.423127 -0.18096,-0.157009 -0.365912,-0.338635 -0.558847,-0.545541 -0.192935,-0.210233 -0.379218,-0.451735 -0.559513,-0.728497l0 0zm-2.02516 7.43866c0.173642,0.00665294 0.34928,-0.0252812 0.526913,-0.0924759 0.175638,-0.0711865 0.346618,-0.172311 0.510281,-0.310692 0.162997,-0.13572 0.312023,-0.30404 0.448408,-0.500967 0.277428,0.213559 0.516934,0.440425 0.721844,0.681927 0.204911,0.242167 0.371234,0.483669 0.502963,0.718518 0.129732,0.234849 0.225535,0.448408 0.284081,0.641344 0.0578806,0.19227 0.0811659,0.342627 0.06786,0.456392 -0.0159671,0.140377 -0.0698559,0.241502 -0.157675,0.30404 -0.0898147,0.0618724 -0.206241,0.0805006 -0.353271,0.0545541 -0.102455,-0.0186282 -0.246824,-0.0671947 -0.427119,-0.152352 -0.180295,-0.085823 -0.387201,-0.208237 -0.620054,-0.365912 -0.231522,-0.159671 -0.477016,-0.357928 -0.73382,-0.594108 -0.256138,-0.239506 -0.514938,-0.517599 -0.770411,-0.840267l0 0zm-0.967338 0.00997942c0.15834,0.60941 0.359259,1.17092 0.60941,1.68053 0.247489,0.50895 0.528909,0.952702 0.842928,1.33591 0.310692,0.38321 0.644005,0.695233 0.992619,0.929416 0.348614,0.234184 0.702551,0.38321 1.05915,0.449074 0.105782,0.0179629 0.225535,0.00931412 0.359259,-0.0299382 0.134389,-0.0392524 0.27011,-0.113765 0.403834,-0.227531 0.133724,-0.111104 0.250151,-0.267448 0.351941,-0.470363 0.103121,-0.199588 0.172977,-0.453065 0.210233,-0.760431 0.0286077,-0.24882 0.029273,-0.522921 0.00133059,-0.823634 -0.0279424,-0.300713 -0.0831618,-0.614732 -0.163662,-0.945383 -0.0831618,-0.328655 -0.19227,-0.657976 -0.328655,-0.989293 -0.13572,-0.331317 -0.298052,-0.652654 -0.488326,-0.960685 -0.272105,-0.450404 -0.578141,-0.800349 -0.91611,-1.05383 -0.334643,-0.252147 -0.723175,-0.415809 -1.15961,-0.492318 -0.120418,-0.0572153 -0.226865,-0.103121 -0.31668,-0.136385 -0.0924759,-0.03393 -0.170315,-0.05655 -0.236179,-0.0685253 -0.180295,-0.0279424 -0.351941,-0.0133059 -0.51893,0.040583 -0.165658,0.0578806 -0.320007,0.137716 -0.459718,0.244828 -0.142373,0.106447 -0.266783,0.218882 -0.372565,0.341296 -0.107778,0.121084 -0.19227,0.232188 -0.252812,0.334643 -0.0612071,0.103121 -0.097133,0.176968 -0.102455,0.226865 -0.00731824,0.0645336 -0.00133059,0.163662 0.0192935,0.296056 0.0186282,0.131728 0.0512277,0.272105 0.0944718,0.422462 0.0425788,0.151022 0.0944718,0.285411 0.159005,0.40716 0.0618724,0.121084 0.132394,0.205576 0.212229,0.249485l0 0zm2.1336 9.18905c0.230192,-0.697228 0.513607,-1.20285 0.854903,-1.52286 0.338635,-0.31668 0.717187,-0.44109 1.13366,-0.368573 0.306701,0.0538888 0.607414,0.199588 0.906796,0.436433 0.296721,0.23751 0.572818,0.557517 0.823634,0.96002 0.131728,0.217551 0.238841,0.430445 0.320007,0.638683 0.0811659,0.208237 0.139712,0.39452 0.171646,0.561508 0.0345953,0.170315 0.0459053,0.300713 0.0352606,0.397181 -0.0192935,0.166989 -0.0811659,0.314684 -0.18096,0.445747 -0.102455,0.131728 -0.239506,0.230192 -0.409821,0.29273 -0.170315,0.0625377 -0.370569,0.0751783 -0.598765,0.0385871 -0.182291,-0.029273 -0.420466,-0.115761 -0.717853,-0.254142 -0.296721,-0.141708 -0.644005,-0.345953 -1.03852,-0.612071 -0.393854,-0.266118 -0.826296,-0.604753 -1.29999,-1.01324l0 0zm-0.492983 1.59737c0.278758,0.180295 0.55419,0.369238 0.829622,0.563504 0.272105,0.194266 0.554855,0.381214 0.848916,0.561508 0.29273,0.179629 0.607414,0.341961 0.944053,0.481673 0.335308,0.139047 0.707208,0.246159 1.11237,0.320672 0.596104,0.107112 1.05981,0.15834 1.39379,0.151022 0.331317,-0.00731824 0.546872,-0.0918106 0.644005,-0.259465 0.0179629,-0.0359259 0.0479012,-0.0997942 0.0871536,-0.191605 0.0399177,-0.0938065 0.0805006,-0.194266 0.12441,-0.303374 0.0439094,-0.108443 0.0818312,-0.206907 0.114431,-0.293395 0.0299382,-0.0871536 0.0498971,-0.140377 0.0532235,-0.166989 0.0246159,-0.234849 -0.0352606,-0.534897 -0.178299,-0.897482 -0.143704,-0.365247 -0.36059,-0.812324 -0.649993,-1.34389 -0.659972,-1.23878 -1.26539,-2.19547 -1.8116,-2.86742 -0.546207,-0.675274 -1.04518,-1.0525 -1.49691,-1.13499 -0.374561,-0.0651988 -0.7112,0.00731824 -1.01058,0.214225 -0.299382,0.210898 -0.573484,0.556186 -0.826961,1.04385 -0.254808,0.483669 -0.498971,1.10971 -0.737146,1.87413 0.0192935,-0.534231 0.0432441,-0.992619 0.0725171,-1.37916 0.0259465,-0.38321 0.0485665,-0.695233 0.0625377,-0.932077 0.0139712,-0.239506 0.0106447,-0.404499 -0.0119753,-0.498305 -0.0725171,-0.284081 -0.168319,-0.518264 -0.29273,-0.701886 -0.122414,-0.179629 -0.254808,-0.286077 -0.395185,-0.314019 -0.0705212,-0.00931412 -0.136385,0.00332647 -0.194931,0.0465706 -0.0585459,0.040583 -0.107778,0.097133 -0.145034,0.171646 -0.0399177,0.0765088 -0.0651988,0.155679 -0.0758436,0.246159 -0.00399177,0.0592112 -0.00332647,0.187613 0.00399177,0.391858 0.00798353,0.204911 0.0119753,0.480343 0.01131,0.832283 0.00266118,0.349945 -0.01131,0.777729 -0.0359259,1.28069 -0.68858,-0.595438 -1.25674,-1.12169 -1.69983,-1.57874 -0.443751,-0.457057 -0.763093,-0.850911 -0.96002,-1.1809 -0.051893,-0.0924759 -0.100459,-0.193601 -0.146365,-0.300048 -0.04524,-0.109774 -0.0958024,-0.216886 -0.150357,-0.322002 -0.0552194,-0.102455 -0.125075,-0.19227 -0.208902,-0.266783 -0.0824965,-0.0771741 -0.186282,-0.125075 -0.313354,-0.150357 -0.0991289,-0.0146365 -0.192935,-0.0133059 -0.282085,0.00465706 -0.0884841,0.0139712 -0.16965,0.0179629 -0.242832,0.0106447 -0.0259465,-0.00731824 -0.0585459,-0.0192935 -0.0944718,-0.0345953 -0.0379218,-0.0186282 -0.07917,-0.0312688 -0.125075,-0.0399177 -0.120418,-0.0206241 -0.216886,0.000665294 -0.293395,0.0625377 -0.0738477,0.0618724 -0.121084,0.161001 -0.136385,0.29273 -0.0492318,0.42978 0.0133059,0.850246 0.190274,1.25741 0.174307,0.40716 0.457057,0.826296 0.84825,1.25341 0.391193,0.427119 0.883511,0.886837 1.47762,1.37583 0.596769,0.489657 1.28934,1.0352 2.07904,1.63064 0.0139712,0.324664 0.02262,0.583463 0.0232853,0.771741 0.00266118,0.188278 0.00864883,0.308697 0.0206241,0.364581 0.0252812,0.0878189 0.0831618,0.190939 0.167654,0.310692 0.0844924,0.118422 0.182291,0.23751 0.292064,0.355267 0.109108,0.117757 0.216221,0.220212 0.318676,0.300713 0.10179,0.0838271 0.185617,0.131063 0.246824,0.145034 0.0419135,0.00731824 0.0864883,-0.0325994 0.132394,-0.120418 0.0479012,-0.0838271 0.103121,-0.21489 0.167654,-0.388532 0.0671947,-0.176303 0.150357,-0.391858 0.249485,-0.649327l0 0zm-0.327325 5.28177c-0.397181,-0.0871536 -0.74646,-0.216886 -1.0505,-0.393189 -0.30404,-0.175638 -0.555521,-0.374561 -0.758436,-0.592777 -0.202915,-0.220878 -0.352606,-0.437764 -0.447743,-0.657311 -0.0958024,-0.216886 -0.13572,-0.412482 -0.116427,-0.581467 0.00931412,-0.07917 0.0432441,-0.139712 0.101125,-0.176968 0.0578806,-0.0372565 0.139712,-0.0498971 0.245494,-0.0312688 0.155014,0.0272771 0.325329,0.10179 0.506289,0.222874 0.18096,0.118422 0.365247,0.282085 0.548868,0.490322 0.186282,0.208902 0.361255,0.454396 0.529574,0.743799 0.165658,0.288738 0.313354,0.613401 0.441755,0.975987l0 0zm0.618058 -0.12441c-0.085823,-0.441755 -0.208902,-0.848916 -0.369238,-1.22281 -0.157009,-0.377222 -0.340631,-0.707873 -0.546872,-0.991954 -0.208902,-0.284746 -0.426454,-0.50762 -0.65598,-0.676604 -0.0698559,-0.0505624 -0.143038,-0.0938065 -0.219547,-0.127737 -0.07917,-0.0319341 -0.155679,-0.063203 -0.234849,-0.0951371 -0.0785047,-0.0345953 -0.154348,-0.0778394 -0.228861,-0.129732 -0.0365912,-0.0332647 -0.0831618,-0.0711865 -0.141042,-0.117092 -0.0592112,-0.0465706 -0.132394,-0.0924759 -0.220878,-0.134389 -0.0891494,-0.04524 -0.194931,-0.0758436 -0.322002,-0.10179 -0.324664,-0.0532235 -0.58679,-0.00665294 -0.785047,0.140377 -0.200254,0.14703 -0.319341,0.380548 -0.357928,0.699224 -0.0166324,0.143038 -0.00532235,0.3393 0.0312688,0.584128 0.0385871,0.246159 0.104451,0.526248 0.196262,0.838271 0.0931412,0.311358 0.216886,0.638017 0.367908,0.977983 0.150357,0.339965 0.331317,0.673278 0.540884,1.00593 0.180295,0.279424 0.378552,0.534897 0.589451,0.765754 0.212229,0.231522 0.426454,0.433107 0.642674,0.608744 0.217551,0.172311 0.424458,0.313354 0.620054,0.419135 0.198258,0.106447 0.3719,0.172311 0.520925,0.198923 0.296056,0.0485665 0.55419,0.0399177 0.774403,-0.0286077 0.222208,-0.0685253 0.398511,-0.18096 0.530905,-0.337304 0.132394,-0.159005 0.209568,-0.345288 0.236845,-0.56417 0.0332647,-0.263457 0.0805006,-0.523587 0.141708,-0.781721 0.0625377,-0.254808 0.122414,-0.500967 0.183621,-0.738477 0.0592112,-0.240171 0.102455,-0.465706 0.129067,-0.675939 0.0186282,-0.175638 0.0192935,-0.375891 0.00266118,-0.602757 -0.0186282,-0.224204 -0.0505624,-0.453731 -0.097133,-0.68858 -0.0465706,-0.235514 -0.104451,-0.454396 -0.170315,-0.657311 -0.0658641,-0.202915 -0.140377,-0.367908 -0.219547,-0.500967 -0.0765088,-0.129732 -0.157009,-0.20358 -0.240171,-0.221543 -0.0685253,-0.00864883 -0.126406,0.0133059 -0.177634,0.0671947 -0.0532235,0.05655 -0.0851577,0.135055 -0.0997942,0.242832 -0.00598765,0.0705212 0.00864883,0.156344 0.0419135,0.258134 0.0325994,0.104451 0.0705212,0.224204 0.115096,0.359924 0.0445747,0.137051 0.0778394,0.292064 0.102455,0.466371 0.0252812,0.171646 0.0272771,0.363251 0.00532235,0.574149 -0.0319341,0.275432 -0.108443,0.515603 -0.2262,0.721844 -0.119753,0.206241 -0.27144,0.36192 -0.460384,0.465706l0 0zm-4.69232 6.48729c-0.280089,-0.807667 -0.548203,-1.49026 -0.804341,-2.04245 -0.255473,-0.555521 -0.50762,-0.984636 -0.759101,-1.28601 -0.251481,-0.300713 -0.512942,-0.47502 -0.782386,-0.522256 -0.333312,-0.0558847 -0.649327,0.0472359 -0.950706,0.311358 -0.298717,0.260795 -0.560843,0.677935 -0.785047,1.24144 -0.221543,0.567496 -0.383875,1.27404 -0.48633,2.12495 -0.115761,1.02455 -0.155679,2.01185 -0.119088,2.9559 0.03393,0.946714 0.132394,1.8748 0.290734,2.78958 0.157675,0.917441 0.364581,1.8402 0.616063,2.7776 0.07917,0.306035 0.147695,0.563504 0.20358,0.773072 0.0592112,0.210233 0.112435,0.368573 0.161667,0.479012 0.051893,0.113765 0.105117,0.174307 0.166989,0.184287 0.0592112,0.00798353 0.120418,-0.0139712 0.182956,-0.0718518 0.0638683,-0.0545541 0.120418,-0.134389 0.16965,-0.236179 0.0505624,-0.10179 0.0818312,-0.218217 0.0984636,-0.347284 0.0119753,-0.119753 0.000665294,-0.217551 -0.0332647,-0.292064 -0.03393,-0.0751783 -0.0731824,-0.138381 -0.121084,-0.194931 -0.0465706,-0.0585459 -0.0864883,-0.119753 -0.116427,-0.187613 -0.0345953,-0.0864883 -0.0805006,-0.329986 -0.137051,-0.731158 -0.0592112,-0.401838 -0.109774,-0.951371 -0.152352,-1.6486 -0.0445747,-0.777729 -0.0605418,-1.52752 -0.0492318,-2.24803 0.0119753,-0.723175 0.0572153,-1.42639 0.13572,-2.10832 0.0878189,-0.761097 0.201584,-1.39512 0.335308,-1.89742 0.136385,-0.500967 0.284081,-0.872201 0.447743,-1.11304 0.163662,-0.236845 0.334643,-0.341296 0.512277,-0.310027 0.274101,0.0479012 0.55286,0.302709 0.832949,0.764423 0.282085,0.461714 0.571488,1.13034 0.872866,2.00719 0.04524,0.133059 0.0844924,0.259465 0.117757,0.378552 0.0312688,0.116427 0.0705212,0.224869 0.115096,0.319341 0.0472359,0.0944718 0.112435,0.171646 0.196262,0.236845 0.0392524,0.0698559 0.0771741,0.12441 0.117092,0.167654 0.0399177,0.0392524 0.0844924,0.0651988 0.137051,0.074513 0.115761,0.0199588 0.197592,-0.0133059 0.248155,-0.0997942 0.0525583,-0.0891494 0.0878189,-0.238841 0.109774,-0.447078 0.0179629,-0.178299 0.0325994,-0.363916 0.0445747,-0.562174 0.0119753,-0.200919 0.0286077,-0.401172 0.0492318,-0.603422 0.0805006,-0.693902 0.234184,-1.19553 0.460384,-1.50756 0.2262,-0.313354 0.521591,-0.434437 0.882846,-0.371234 0.265452,0.0492318 0.500301,0.180295 0.706543,0.392524 0.205576,0.212229 0.375226,0.486995 0.508285,0.826961 0.133059,0.336639 0.223539,0.719848 0.27011,1.14896 0.0465706,0.429115 0.0432441,0.88218 -0.00997942,1.36585 -0.0598765,0.500301 -0.155679,0.919437 -0.288072,1.25741 -0.133724,0.340631 -0.289403,0.591447 -0.471694,0.753778 -0.179629,0.162332 -0.367908,0.224869 -0.568161,0.192935 -0.145699,-0.0286077 -0.335974,-0.163662 -0.568161,-0.401172 -0.234184,-0.238175 -0.523587,-0.558182 -0.872866,-0.959354 -0.347949,-0.398511 -0.76908,-0.857564 -1.26206,-1.37117 -0.516268,-0.526248 -0.94871,-0.924759 -1.29533,-1.19154 -0.347284,-0.266783 -0.605418,-0.416474 -0.769746,-0.442421 -0.118422,-0.0179629 -0.216221,0.00997942 -0.289403,0.0838271 -0.0711865,0.0738477 -0.117092,0.182291 -0.133724,0.325994 -0.0166324,0.164328 0.00399177,0.317345 0.05655,0.460384 0.0545541,0.14703 0.119753,0.299382 0.199588,0.46238 0.0698559,0.166989 0.131063,0.335974 0.182956,0.506954 0.0498971,0.16965 0.112435,0.321337 0.188944,0.453731 0.0399177,0.0638683 0.201584,0.230192 0.485,0.503628 0.284081,0.273436 0.691241,0.640013 1.22148,1.10372 0.991289,0.866213 1.76968,1.5375 2.33917,2.01052 0.566831,0.473024 0.942057,0.729163 1.12368,0.764423 0.179629,0.0286077 0.362585,-0.0412482 0.546872,-0.208902 0.187613,-0.170315 0.353937,-0.430445 0.502297,-0.783717 0.147695,-0.353271 0.251481,-0.789039 0.31668,-1.31263 0.05655,-0.494314 0.085823,-0.999937 0.0878189,-1.51953 0.00133059,-0.516268 -0.0192935,-1.02988 -0.06786,-1.54016 -0.0485665,-0.510281 -0.121749,-1.00393 -0.21489,-1.47429 -0.0951371,-0.47369 -0.212894,-0.908792 -0.351941,-1.31263 -0.175638,-0.508285 -0.369904,-0.940061 -0.57681,-1.29599 -0.209568,-0.355932 -0.419135,-0.63203 -0.629368,-0.826296 -0.210233,-0.195597 -0.406495,-0.310692 -0.588785,-0.342627 -0.313354,-0.051893 -0.602091,0.0259465 -0.865548,0.236179 -0.261461,0.211564 -0.485665,0.545541 -0.672613,1.00526 -0.184287,0.457723 -0.318011,1.02855 -0.399177,1.71579 -0.00931412,0.07917 -0.0172977,0.170315 -0.0232853,0.279424 -0.00798353,0.109108 -0.0159671,0.233518 -0.0252812,0.375226l0 -0.000665294zm5.60377 -53.5036c0.00332647,0.159671 -0.202915,0.552194 -0.62072,1.17691 -0.457057,0.679266 -0.799684,1.02123 -1.02855,1.02588 -0.198923,0.00465706 -0.30404,-0.179629 -0.311358,-0.552194 -0.00332647,-0.159005 -0.02262,-0.262126 -0.0578806,-0.309362 -0.0359259,-0.0472359 -0.122414,-0.0691906 -0.257469,-0.0665294 -0.492983,0.00997942 -1.26273,0.159005 -2.31855,0.445747 -1.21948,0.333312 -2.22142,0.699224 -3.00846,1.0984 -1.00925,0.509615 -1.50889,1.00393 -1.49891,1.48228 0.00465706,0.244163 0.141042,0.419801 0.409156,0.526248 0.268114,0.105782 0.71253,0.153018 1.33258,0.139712 0.423792,-0.00798353 0.76775,-0.0206241 1.03387,-0.0365912 1.06248,-0.0638683 1.64727,-0.097133 1.75638,-0.0997942 1.3093,-0.0266118 2.34051,0.0798353 3.09428,0.320007 1.01125,0.319341 1.52485,0.878189 1.54082,1.67521 0.0159671,0.765088 -0.563504,1.56943 -1.73841,2.41236 -0.82563,0.590781 -1.39645,1.07578 -1.7138,1.45433 -0.447078,0.296056 -1.32061,0.686584 -2.62059,1.17025 -1.43704,0.539554 -2.79291,0.97133 -4.06694,1.29533 -1.57741,0.403834 -2.85345,0.616063 -3.8281,0.636021 -0.147695,0.00332647 -0.254142,-0.0186282 -0.319341,-0.0651988 -0.0645336,-0.0465706 -0.0991289,-0.155014 -0.102455,-0.324664 -0.00332647,-0.149026 0.248155,-0.404499 0.752448,-0.765088 0.504958,-0.361255 0.76908,-0.71253 0.7917,-1.05316 0.191605,-0.259465 0.548868,-0.596104 1.07245,-1.01058 0.523587,-0.415144 0.849581,-0.623381 0.977317,-0.626042 0.0592112,-0.00199588 0.118422,0.0212894 0.178964,0.06786 0.0598765,0.0465706 0.0898147,0.085823 0.09048,0.117757 0.00465706,0.212894 -0.0898147,0.421797 -0.28275,0.628038 -0.222208,0.206241 -0.444417,0.41847 -0.666625,0.635356 0.000665294,0.0212894 0.0359259,0.0472359 0.105117,0.0778394 0.295391,-0.00598765 1.16826,-0.183621 2.61926,-0.532235 1.83289,-0.44109 3.33046,-0.89216 4.4934,-1.35121 1.58274,-0.628038 2.36911,-1.21283 2.3578,-1.75505 -0.00665294,-0.319341 -0.250151,-0.556186 -0.731158,-0.7112 -0.480343,-0.155014 -1.22813,-0.222208 -2.24204,-0.201584l-1.59405 0.0805006c-1.18156,0.0239506 -1.9899,-0.240837 -2.42433,-0.795692 -0.212894,-0.272771 -0.481673,-0.405164 -0.806337,-0.398511 -0.285411,0.00598765 -0.500967,-0.0432441 -0.646001,-0.146365 -0.144369,-0.103121 -0.220212,-0.293395 -0.225535,-0.569492 -0.0166324,-0.797688 0.551529,-1.67588 1.70448,-2.63523 1.04584,-0.872201 2.32321,-1.62664 3.8321,-2.26333 1.50889,-0.636687 2.79024,-0.966007 3.84407,-0.987962 0.324664,-0.00598765 0.591447,0.0445747 0.800349,0.151687 0.209568,0.107778 0.317345,0.320672 0.323333,0.639348l0 0zm5.08418 2.95923c0.000665294,0.0532235 -0.140377,0.379883 -0.423127,0.981309 -0.312023,0.66596 -0.485665,1.07379 -0.522256,1.22281 0.649993,-0.0126406 0.977317,0.110439 0.983305,0.371234 0.00199588,0.125075 -0.0898147,0.328655 -0.276097,0.614067 -0.186282,0.286077 -0.333312,0.443086 -0.440425,0.477681l-0.81299 0.0159671c-0.155679,0.0884841 -0.288738,0.311358 -0.399842,0.669951 -0.110439,0.358594 -0.164328,0.649993 -0.159005,0.872866 0.00465706,0.254808 0.0605418,0.453731 0.166989,0.594773 0.106447,0.141708 0.277428,0.209568 0.513607,0.204911 0.108443,-0.00199588 0.343292,-0.0871536 0.704547,-0.253477 0.165658,-0.0778394 0.312688,-0.117757 0.440425,-0.120418 0.196927,-0.00399177 0.297387,0.0944718 0.302044,0.296721 0.00133059,0.0844924 -0.0192935,0.159671 -0.0625377,0.224869 -0.0432441,0.0645336 -0.146365,0.172977 -0.310692,0.325329 -0.33797,0.325329 -0.66596,0.571488 -0.98264,0.737811 -0.31668,0.165658 -0.676604,0.252812 -1.08044,0.260795 -0.453065,0.00931412 -0.815651,-0.163662 -1.08909,-0.522256 -0.273436,-0.359259 -0.415144,-0.787043 -0.425123,-1.28136 -0.00399177,-0.180295 0.0505624,-0.437098 0.161667,-0.771741 0.111104,-0.334643 0.227531,-0.676604 0.347949,-1.02788 -0.000665294,-0.0605418 -0.0119753,-0.103121 -0.0319341,-0.12441 -0.0199588,-0.0206241 -0.0352606,-0.0365912 -0.04524,-0.0465706 -0.275432,0.00532235 -0.414478,-0.0552194 -0.41714,-0.185617 -0.00399177,-0.170315 0.130398,-0.372565 0.401172,-0.600761 0.387201,-0.340631 0.600096,-0.533566 0.638683,-0.57681 0.357263,-0.820973 0.64467,-1.4703 0.861556,-1.94532 0.216886,-0.47502 0.388532,-0.730493 0.516268,-0.765754 0.176303,-0.0246159 0.364581,-0.0997942 0.56417,-0.229527 0.198923,-0.126406 0.362585,-0.190274 0.490987,-0.192935 0.137716,-0.00266118 0.234849,0.0592112 0.291399,0.185617 0.0572153,0.126406 0.0884841,0.322002 0.0938065,0.58812l0 0zm6.81195 1.50423c0.00931412,0.446413 -0.132394,1.20951 -0.425788,2.28994 -0.293395,1.07977 -0.434437,1.89609 -0.423127,2.44895 0.00133059,0.0532235 0.0232853,0.161667 0.0658641,0.325994 0.0425788,0.163662 0.074513,0.266118 0.0951371,0.308697 -0.0365912,0.139047 -0.0938065,0.251481 -0.170315,0.338635 -0.0771741,0.0864883 -0.179629,0.131063 -0.308031,0.133724 -0.0392524,0.000665294 -0.108443,-0.0192935 -0.208237,-0.0592112 -0.0991289,-0.0412482 -0.178299,-0.0605418 -0.23751,-0.0592112l-0.353271 0.0545541c-0.216886,0.00465706 -0.361255,-0.199588 -0.433107,-0.612736 -0.0731824,-0.413148 -0.116427,-0.970664 -0.130398,-1.67255 -0.117092,0.534231 -0.732489,1.04119 -1.84553,1.52086 -0.868874,0.379883 -1.45101,0.572153 -1.7464,0.578141 -0.206907,0.00465706 -0.376557,-0.117092 -0.509615,-0.364581 -0.133724,-0.246824 -0.202249,-0.49764 -0.207572,-0.753113 -0.00465706,-0.223539 0.0332647,-0.415809 0.113765,-0.57681 0.0805006,-0.161001 0.15834,-0.31668 0.234184,-0.467037 0.288072,-0.83561 0.989293,-1.7271 2.103,-2.67515 1.1616,-0.991289 2.1509,-1.49492 2.96854,-1.51221 0.255473,-0.00465706 0.554855,0.0605418 0.897482,0.196927 0.342627,0.137051 0.516268,0.322002 0.520925,0.556186l0 0zm-1.294 0.297387c-0.000665294,-0.0425788 -0.0186282,-0.0738477 -0.0532235,-0.0944718 -0.0352606,-0.0206241 -0.0771741,-0.0306035 -0.126406,-0.029273 -0.453065,0.00931412 -1.10971,0.53024 -1.9706,1.56344 -0.860226,1.03254 -1.28535,1.80494 -1.2747,2.31522 0.00199588,0.106447 0.0479012,0.15834 0.136385,0.156344 0.413148,-0.00864883 1.06647,-0.56417 1.96062,-1.66723 0.89349,-1.10239 1.33591,-1.85085 1.32793,-2.24404l0 0zm8.10462 0.377222c0.00665294,0.318676 -0.0445747,0.713196 -0.153018,1.18356 -0.235514,1.02588 -0.349945,1.69251 -0.343292,2.00121 0.00133059,0.0738477 0.0532235,0.200254 0.155014,0.379218 0.0512277,0.0951371 0.0771741,0.153018 0.0778394,0.174307 0.00332647,0.190939 -0.20358,0.421131 -0.621385,0.690576 -0.41847,0.268779 -0.725836,0.405164 -0.922763,0.409821 -0.147695,0.00266118 -0.277428,-0.0958024 -0.389862,-0.295391 -0.112435,-0.200254 -0.172977,-0.522921 -0.182291,-0.969334 -0.00731824,-0.36192 0.112435,-0.874197 0.359924,-1.53883 0.247489,-0.664629 0.367908,-1.16094 0.361255,-1.49092 -0.118422,0.00266118 -0.37323,0.289403 -0.765754,0.860891 -0.24882,0.356598 -0.626042,0.938065 -1.13167,1.74573 -0.467037,0.754444 -0.753778,1.1962 -0.858895,1.32593 -0.029273,0.0219547 -0.263457,0.138381 -0.702551,0.34928 -0.0585459,0.02262 -0.141708,0.0665294 -0.248155,0.132394 -0.0598765,-0.0199588 -0.152352,-0.105782 -0.278758,-0.257469 -0.126406,-0.151022 -0.189609,-0.2588 -0.191605,-0.322668 -0.00598765,-0.308697 0.164993,-1.11503 0.512277,-2.41968 0.29273,-1.12235 0.536227,-1.96195 0.731824,-2.51947 0.0186282,-0.0532235 0.120418,-0.145699 0.304705,-0.276762 0.369238,-0.262791 0.612736,-0.39585 0.731158,-0.397846 0.166989,-0.00399177 0.32799,0.0465706 0.483004,0.149691 0.154348,0.103121 0.233518,0.244828 0.23751,0.425788 0.00199588,0.117092 -0.188944,0.626042 -0.574814,1.52685 -0.225535,0.536227 -0.365912,0.890164 -0.421797,1.06181l0.09048 0.0938065c0.727167,-1.07844 1.18156,-1.7311 1.36452,-1.95796 0.700555,-0.896817 1.25208,-1.34922 1.65658,-1.35787 0.216221,-0.00465706 0.387867,0.0798353 0.514938,0.252812 0.126406,0.172977 0.194931,0.519595 0.205576,1.04052l0 0zm6.21185 -1.13167c0.0146365,0.73382 -0.0498971,1.42905 -0.194266,2.0857 -0.143704,0.657311 -0.382544,1.25475 -0.716522,1.79363 -0.501632,0.509615 -1.00393,1.0199 -1.50556,1.52951 -0.502963,0.435768 -1.03054,0.659307 -1.58207,0.670617 -0.344622,0.00731824 -0.632695,-0.125741 -0.864883,-0.397181 -0.232188,-0.272105 -0.351941,-0.593443 -0.359259,-0.966007 -0.00465706,-0.212229 0.0246159,-0.468367 0.0871536,-0.767084 0.117757,-0.544876 0.188278,-0.923429 0.213559,-1.13699 0.302709,-0.623381 0.768415,-1.21749 1.39712,-1.78299 0.580137,-0.511611 1.18822,-0.906796 1.82224,-1.18555 -0.358594,-1.17291 -0.838936,-2.03514 -1.44103,-2.58666 -0.539554,-0.35061 -1.07379,-0.70122 -1.60269,-1.05183 -0.00266118,-0.138381 0.193601,-0.307366 0.58812,-0.506954 0.39452,-0.199588 0.685918,-0.300713 0.872866,-0.304705 0.669951,-0.0139712 1.3419,0.365912 2.01784,1.13898 0.816981,0.930081 1.23944,2.0857 1.26739,3.46751l0 0zm-1.35188 1.79829c-0.00864883,-0.403834 -0.0392524,-0.70122 -0.0924759,-0.891494 -0.0106447,-0.063203 -0.0419135,-0.126406 -0.0924759,-0.189609 -0.512277,0.478347 -0.944718,1.00326 -1.29732,1.57409 -0.419801,0.689245 -0.623381,1.30464 -0.612736,1.84686 0.00798353,0.3719 0.159005,0.554855 0.454396,0.548868 0.463045,-0.00931412 0.864217,-0.373895 1.20418,-1.09308 0.302044,-0.64467 0.447743,-1.24277 0.436433,-1.79563l0 0zm11.8675 -27.8639l-1.1942 2.28928c-0.142373,0.258134 -0.351275,0.640013 -0.626707,1.14564 -0.228196,0.419135 -0.401838,0.821639 -0.522256,1.20684l0.135055 0.0931412c0.390528,-0.146365 0.736481,-0.469698 1.03653,-0.970664 0.300048,-0.500301 0.479677,-0.767084 0.537558,-0.800349l0.0592112 -0.00133059c0.040583,0.0525583 0.0612071,0.110439 0.0625377,0.174307 0.00864883,0.435768 -0.323333,1.04119 -0.997276,1.81492 -0.673943,0.774403 -1.21217,1.16493 -1.616,1.17358 -0.314684,0.00598765 -0.533566,-0.074513 -0.655315,-0.242167 -0.0299382,-0.0412482 -0.118422,-0.274101 -0.265452,-0.695898 -0.321337,0.64467 -0.772407,0.97266 -1.35387,0.984636 -0.265452,0.00532235 -0.499636,-0.112435 -0.70122,-0.353271 -0.202249,-0.240171 -0.306035,-0.503628 -0.312023,-0.791035 -0.00399177,-0.212229 0.040583,-0.436433 0.134389,-0.672613l1.62997 -4.11684 1.69517 -0.177634c-0.381879,0.570823 -0.752448,1.24876 -1.11104,2.03247 -0.433772,0.955363 -0.645336,1.68253 -0.635356,2.18217 0.00266118,0.127737 0.0299382,0.254808 0.0818312,0.381214 0.0625377,0.168985 0.143038,0.252147 0.241502,0.250151 0.266118,-0.00532235 0.76908,-0.70122 1.50889,-2.08836 0.560178,-1.04252 0.979979,-1.92337 1.2614,-2.64188l1.60669 -0.176303 0 0zm-7.38876 2.83016c-0.54288,-0.0525583 -0.932743,-0.331317 -1.16959,-0.837606 -0.162997,0.216221 -0.399842,0.6786 -0.710534,1.38647l0 -0.0153018c-0.0172977,0.117092 -0.0918106,0.341961 -0.222874,0.673943 -0.112435,0.278758 -0.166989,0.50895 -0.162997,0.689245 0.00399177,0.212894 0.104451,0.317345 0.301378,0.313354 0.640013,-0.0133059 1.29466,-0.749787 1.96461,-2.21011l0 0zm0.485 -1.57276c-0.00731824,-0.35061 -0.138381,-0.523587 -0.39452,-0.518264 -0.187613,0.00332647 -0.391858,0.103786 -0.614732,0.299382 -0.222208,0.195597 -0.331982,0.395185 -0.32799,0.596769 0.00465706,0.202249 0.109108,0.391193 0.314684,0.568161 0.205576,0.176968 0.406495,0.262791 0.603422,0.2588 0.0199588,-0.000665294 0.0445747,-0.00598765 0.0738477,-0.0172977l-0.000665294 -0.0159671c0.0891494,-0.00199588 0.174307,-0.173642 0.255473,-0.516268 0.0638683,-0.277428 0.0938065,-0.495644 0.09048,-0.655315l0 0zm1.28136 1.25009c0.00266118,0.127071 -0.138381,0.231522 -0.421797,0.311358 -0.225535,0.0685253 -0.421797,0.104451 -0.589451,0.107778 -0.107778,0.00199588 -0.216221,0.00465706 -0.324664,0.00665294 -0.358594,0.765088 -0.787709,1.46498 -1.28668,2.09767 -0.691906,0.866879 -1.31795,1.30531 -1.87946,1.31662 -0.777729,0.0159671 -1.17424,-0.358594 -1.19021,-1.12435 -0.0192935,-0.935404 0.387867,-1.99655 1.22082,-3.18277 0.871536,-1.23013 1.72977,-1.85418 2.57669,-1.87081 0.669951,-0.0139712 1.01125,0.314019 1.02522,0.983305 0.00399177,0.223539 -0.0951371,0.661303 -0.298717,1.31462 0.0991289,0.0299382 0.188278,0.0439094 0.266783,0.0425788 0.07917,-0.00199588 0.196927,-0.0206241 0.353937,-0.0552194 0.157009,-0.0352606 0.274101,-0.0538888 0.353271,-0.0552194 0.128402,-0.00266118 0.192935,0.0332647 0.194266,0.107778l0 0zm-7.92299 -7.43134c0.00598765,0.297387 -0.200919,0.774403 -0.62072,1.43171 -0.697228,1.09907 -1.0831,1.71846 -1.15961,1.85817 -0.40716,0.773737 -0.605418,1.45899 -0.593443,2.05376 0.00997942,0.478347 0.13572,0.858895 0.377887,1.14098 0.242167,0.28275 0.580137,0.419135 1.01324,0.409821 0.659972,-0.0133059 1.35121,-0.38321 2.07572,-1.11104 0.375891,-0.379218 0.899478,-1.03852 1.57009,-1.97792 -0.636021,1.19354 -1.26606,2.42433 -1.8901,3.69172 -0.52026,1.0525 -0.997276,1.82823 -1.42972,2.32587 -0.673943,0.76908 -1.4244,1.1616 -2.25136,1.1789 -0.423792,0.00798353 -0.828957,-0.0685253 -1.21682,-0.230857 -0.49631,-0.212894 -0.748456,-0.505624 -0.75644,-0.877523 -0.00465706,-0.244828 0.149026,-0.412482 0.46238,-0.504293 0.499636,-0.137716 0.789039,-0.217551 0.866879,-0.240837 0.312023,-0.165658 0.46371,-0.461049 0.455061,-0.886837 -0.00665294,-0.308031 -0.117092,-0.544876 -0.332647,-0.710534 -0.21489,-0.165658 -0.470363,-0.246159 -0.765754,-0.239506 -0.453065,0.00864883 -0.82563,0.19227 -1.11903,0.548868 -0.29273,0.356598 -0.434437,0.779725 -0.424458,1.26872 0.0153018,0.776399 0.3719,1.35387 1.06913,1.73309 0.548203,0.297387 1.21549,0.437764 2.00387,0.421797 1.10239,-0.02262 2.12029,-0.340631 3.05304,-0.956028 0.9048,-0.592112 1.65126,-1.4051 2.24071,-2.4383 0.427784,-0.753113 0.86954,-1.8096 1.3246,-3.16946 0.584128,-1.777 0.975322,-2.88538 1.17291,-3.32581 0.0665294,-0.139047 0.381879,-0.614067 0.946049,-1.4224 0.546207,-0.777064 0.818977,-1.17092 0.818312,-1.18156 -0.00133059,-0.0638683 -0.0512277,-0.0944718 -0.149691,-0.0924759 -0.295391,0.00598765 -0.980644,0.68991 -2.05642,2.05177 -0.661968,0.853573 -1.66057,2.1183 -2.99516,3.79351 -1.12501,1.36252 -1.9533,2.04977 -2.48487,2.06108 -0.275432,0.00532235 -0.415809,-0.0931412 -0.419801,-0.294725 -0.00532235,-0.276762 0.201584,-0.748456 0.621385,-1.41708 0.658641,-1.04451 1.04385,-1.67987 1.15761,-1.9054 0.41714,-0.806337 0.620054,-1.4856 0.608744,-2.03846 -0.0139712,-0.701886 -0.234849,-1.25275 -0.661303,-1.65326 -0.427119,-0.400507 -0.970664,-0.594108 -1.62997,-0.580802 -1.24077,0.0252812 -2.37177,0.345953 -3.39367,0.962016 -1.07046,0.638683 -1.89942,1.52752 -2.48687,2.66717 -0.303374,0.580137 -0.449739,1.10971 -0.440425,1.58806 0.01131,0.55286 0.197592,0.989958 0.558847,1.31263 0.361255,0.322002 0.802345,0.478347 1.3246,0.467702 0.895486,-0.0186282 1.62465,-0.392524 2.18549,-1.12169 0.561508,-0.729163 0.832283,-1.57209 0.81299,-2.52878l-0.00266118 -0.159005c-0.0206241,-0.988627 -0.370569,-1.47629 -1.04983,-1.46298 -0.777729,0.0166324 -1.39512,0.406495 -1.85218,1.17025 -0.399842,0.6786 -0.591447,1.45833 -0.573484,2.34117 0.0212894,0.0738477 0.0425788,0.153018 0.0645336,0.23751 0.300048,-0.260795 0.78039,-0.611406 1.44103,-1.04983 0.0525583,-0.330651 0.162997,-0.69989 0.331982,-1.10705 0.225535,-0.536893 0.446413,-0.807002 0.663298,-0.811659 0.186948,-0.00399177 0.283415,0.116427 0.288072,0.361255 0.0179629,0.88218 -0.236845,1.68519 -0.763758,2.40837 -0.555521,0.766419 -1.23213,1.15761 -2.02981,1.17358 -0.314684,0.00665294 -0.568827,-0.115761 -0.761097,-0.367242 -0.19227,-0.251481 -0.291399,-0.552194 -0.298717,-0.902804 -0.0159671,-0.755109 0.366577,-1.59271 1.14497,-2.51215 0.702551,-0.822304 1.41508,-1.40577 2.13693,-1.75039 0.28275,-0.133059 0.718518,-0.254142 1.3073,-0.361255 0.549533,-0.107112 1.00127,-0.164328 1.35587,-0.171646 0.75777,-0.0153018 1.14364,0.285411 1.15628,0.902139l0 0zm-16.305 5.496l-0.0838271 -4.12083 -0.634691 0.0133059c-0.431776,0.00864883 -0.740473,0.0864883 -0.924094,0.233518 -0.242167,0.196262 -0.357928,0.557517 -0.347284,1.08243 0.0146365,0.704547 0.208902,1.32793 0.584128,1.87014 0.375226,0.542215 0.843593,0.848916 1.40577,0.921433l0 0zm2.36446 2.35315l-1.65193 0.03393c-1.47496,0.0299382 -2.66384,-0.417805 -3.56864,-1.34323 -0.954032,-0.971995 -1.44901,-2.3425 -1.48494,-4.11019 -0.0325994,-1.57608 0.375226,-2.58866 1.22148,-3.03574 0.457057,-0.248155 1.453,-0.387867 2.98651,-0.419135l-0.0638683 -3.1535 2.31522 -0.0472359 0.246159 12.0751 0 0zm-10.02 -5.011c-0.0192935,-0.956028 -0.393189,-1.42573 -1.12036,-1.41109 -0.757105,0.0153018 -1.12767,0.447078 -1.10971,1.29466 0.01131,0.549533 0.117092,1.16293 0.318011,1.83954 0.243498,0.855569 0.537558,1.28003 0.881515,1.27271 0.333978,-0.00665294 0.606083,-0.41847 0.815651,-1.23479 0.154348,-0.636687 0.2262,-1.22414 0.21489,-1.76103l0 0zm2.33385 -0.603422c0.029273,1.44502 -0.219547,2.75299 -0.74646,3.92258 -0.62072,1.41042 -1.48095,2.12695 -2.58267,2.14957 -1.09108,0.0219547 -1.98058,-0.652654 -2.66717,-2.02449 -0.584794,-1.15961 -0.891494,-2.4556 -0.920767,-3.88865 -0.0259465,-1.29001 0.294725,-2.21077 0.962016,-2.76164 0.532235,-0.42978 1.36385,-0.655315 2.49419,-0.6786 1.09175,-0.0219547 1.9074,0.182291 2.44762,0.613401 0.649993,0.512277 0.987297,1.40178 1.01324,2.66783l0 0zm-7.7733 5.92977l-1.38647 0.0279424c-2.04511,0.0419135 -3.68906,-0.504293 -4.93183,-1.63795 -1.37383,-1.26273 -2.08503,-3.11757 -2.13493,-5.56652 -0.0645336,-3.15283 1.25541,-4.75685 3.95983,-4.81207l3.49546 -0.0711865 0.68991 2.71041c-0.206907,0.00399177 -0.61074,-0.0146365 -1.2115,-0.0558847 -0.600761,-0.0419135 -1.07312,-0.0592112 -1.41774,-0.051893 -1.93667,0.0392524 -2.88937,0.84692 -2.85744,2.42367 0.0246159,1.18223 0.310027,2.16819 0.857564,2.9579 0.57681,0.8243 1.34389,1.29333 2.30059,1.4051l-0.0585459 -2.88472 -1.03254 0.0206241 -0.0558847 -2.72238 3.61388 -0.0738477 0.16965 8.33082 0 0zm39.1359 -22.7018c-0.00665294,-0.334643 -0.236179,-0.49764 -0.68858,-0.488326 -0.777064,0.0159671 -1.15628,0.471694 -1.13765,1.36785 0.00665294,0.345953 0.0432441,0.685918 0.109108,1.01923 1.15562,-0.728497 1.72777,-1.36186 1.71712,-1.89875zm2.33518 -0.53157c0.0179629,0.883511 -0.245494,1.70182 -0.791035,2.45361 -0.382544,0.521591 -0.97133,1.0831 -1.76569,1.68519 0.425123,0.0984636 1.17291,0.137051 2.24537,0.115096l-0.482338 2.41169 -0.840932 0.0172977c-1.43571,0.029273 -2.59066,-0.431111 -3.46618,-1.38182 -0.905466,-0.985301 -1.37516,-2.34317 -1.41042,-4.07559 -0.0286077,-1.37317 0.27144,-2.34117 0.899478,-2.90401 0.53157,-0.476351 1.38248,-0.726501 2.55207,-0.750452 0.934073,-0.0192935 1.62531,0.104451 2.07372,0.369904 0.636687,0.369238 0.965342,1.05582 0.985966,2.05909l0 0zm-7.62693 0.208902c-0.695898,0.109774 -1.19553,0.448408 -1.49891,1.01657l0.114431 5.6071 -2.31589 0.0472359 -0.181625 -8.9216 2.22674 -0.0459053 0.01131 0.519595c0.259465,-0.292064 0.500967,-0.487661 0.725171,-0.58812 0.195597,-0.0758436 0.485,-0.117757 0.868209,-0.125075l0.0505624 2.4902 0 0zm-7.43466 1.53151c-0.0192935,-0.955363 -0.393189,-1.42573 -1.12102,-1.41109 -0.75644,0.0153018 -1.12701,0.447743 -1.10905,1.29533 0.01131,0.549533 0.116427,1.16293 0.317345,1.83954 0.244163,0.854903 0.537558,1.28003 0.88218,1.27271 0.333978,-0.00731824 0.606083,-0.41847 0.815651,-1.23545 0.153683,-0.636687 0.2262,-1.22348 0.21489,-1.76103l0 0zm2.33385 -0.603422c0.029273,1.44568 -0.219547,2.75299 -0.74646,3.92324 -0.62072,1.41042 -1.48161,2.12695 -2.58267,2.14957 -1.09108,0.0219547 -1.98058,-0.653319 -2.66783,-2.02516 -0.584128,-1.15894 -0.890829,-2.45494 -0.920102,-3.88865 -0.0266118,-1.29001 0.294725,-2.21011 0.962016,-2.76164 0.532235,-0.429115 1.36385,-0.655315 2.49419,-0.677935 1.09175,-0.0219547 1.9074,0.182291 2.44695,0.612736 0.649993,0.512942 0.987962,1.40244 1.01391,2.66783l0 0zm-7.55774 -3.75293c-0.0192935,0.000665294 -0.196262,-0.00199588 -0.530905,-0.00665294 -0.226865,-0.00798353 -0.413148,0.00199588 -0.560178,0.0286077 -0.196262,0.0159671 -0.367908,0.0612071 -0.513607,0.136385 -0.0844924,0.204911 -0.12441,0.414478 -0.120418,0.630034l1.37184 -0.0286077 0.0479012 2.3292 -1.37184 0.0279424 0.134389 6.59307 -2.31589 0.0472359 -0.134389 -6.59307 -0.516268 0.0106447 -0.0472359 -2.3292 0.516268 -0.0106447c-0.02262,-1.12235 0.108443,-1.91339 0.39452,-2.37377 0.333312,-0.532901 0.952036,-0.807667 1.85684,-0.826296l1.15029 -0.0232853 0.638683 2.38841 0 0zm-7.56573 3.6671c-0.00665294,-0.334643 -0.236845,-0.496975 -0.68858,-0.487661 -0.777064,0.0153018 -1.15628,0.471694 -1.13765,1.36718 0.00665294,0.346618 0.0432441,0.686584 0.109108,1.0199 1.15562,-0.729163 1.72777,-1.36186 1.71712,-1.89942l0 0zm2.33518 -0.53157c0.0179629,0.884176 -0.245494,1.70182 -0.791035,2.45361 -0.382544,0.521591 -0.97133,1.0831 -1.76569,1.68519 0.425123,0.0984636 1.17291,0.137716 2.2447,0.115096l-0.481673 2.41169 -0.840267 0.0172977c-1.43637,0.029273 -2.59132,-0.431111 -3.46685,-1.38115 -0.905466,-0.985301 -1.37516,-2.34383 -1.41109,-4.07559 -0.0279424,-1.37383 0.272105,-2.34184 0.900143,-2.90401 0.53157,-0.477016 1.38182,-0.727167 2.55207,-0.751117 0.934073,-0.0186282 1.62531,0.104451 2.07372,0.369904 0.636687,0.369904 0.965342,1.05582 0.985966,2.05909l0 0zm-6.96364 3.7802c0.0252812,1.25475 -0.379883,2.11697 -1.21616,2.588 -0.544876,0.310027 -1.40244,0.476351 -2.57203,0.500301l-4.23327 0.0864883 -0.182956 -8.99411 2.58068 -0.0525583 0.127737 6.27106 1.62265 -0.0332647c0.246159,-0.00465706 0.500967,-0.0578806 0.764423,-0.159005 0.133724,-0.194266 0.198258,-0.386536 0.194266,-0.577475 -0.0192935,-0.967338 -0.880184,-1.92403 -2.58134,-2.86875 0.385871,-0.366577 0.772407,-0.727167 1.15828,-1.0811 0.558847,-0.573484 0.834279,-1.03852 0.827626,-1.39712 -0.00332647,-0.155014 -0.0651988,-0.303374 -0.186282,-0.444417 -0.543545,-0.132394 -1.20418,-0.190274 -1.98125,-0.174307 -0.343957,0.00665294 -0.854903,0.0352606 -1.53217,0.0844924 -0.677935,0.0498971 -1.16892,0.0778394 -1.47429,0.0844924l0.519595 -2.73503 4.2479 -0.0864883c1.02322,-0.0212894 1.77833,0.119088 2.26666,0.419135 0.66729,0.405164 1.01191,1.16892 1.0352,2.29127 0.0192935,0.955363 -0.375226,1.87746 -1.18289,2.76629 1.17092,0.991954 1.76968,2.16287 1.79763,3.51209l0 0zm-13.5614 -5.05158c-0.242167,0.28142 -0.955363,0.681927 -2.13959,1.20352 -1.18422,0.521591 -2.33917,1.03054 -3.46552,1.52685 -1.29599,0.608744 -2.10965,1.10638 -2.4423,1.49092 -0.170315,0.197592 -0.283415,0.385871 -0.3393,0.56417 -0.0552194,0.178964 -0.0232853,0.343292 0.0977983,0.494314 0.241502,0.300713 0.682592,0.515603 1.32394,0.644005 0.447743,0.0618724 0.764423,0.110439 0.94871,0.145699 0.189609,0.236845 0.190274,0.46371 0.00133059,0.682592 -0.349945,0.405164 -1.11237,0.459053 -2.28728,0.161001 -1.17491,-0.298052 -1.94399,-0.672613 -2.30658,-1.12368 0.0199588,-0.277428 -0.03393,-0.614067 -0.161667,-1.01058 -0.214225,-0.65465 -0.235514,-1.08044 -0.0651988,-1.27803 0.159671,-0.0818312 0.27144,-0.159005 0.333978,-0.231522 0.0538888,-0.0625377 0.115096,-0.159005 0.182956,-0.290068 0.0685253,-0.130398 0.120418,-0.216886 0.156344,-0.2588 0.367908,-0.426454 1.05782,-0.872866 2.06907,-1.33924 1.01191,-0.467037 2.04312,-0.952036 3.09495,-1.455 1.05183,-0.502963 1.81093,-1.02455 2.27797,-1.56544 0.143704,-0.166324 0.259465,-0.24882 0.347284,-0.246824 0.236845,0.0365912 0.681261,0.211564 1.33192,0.525583 0.651323,0.314019 1.02855,0.535562 1.13167,0.664629 0.164328,0.204245 0.134389,0.435768 -0.09048,0.695898l0 0zm-8.72467 -1.99455c0.170315,-0.197592 0.164993,-0.409156 -0.0166324,-0.634691 -0.319341,-0.397846 -0.889499,-0.488326 -1.71247,-0.27144 -0.822304,0.216221 -1.40843,0.527578 -1.75837,0.933408 -0.0545541,0.0625377 -0.0658641,0.122414 -0.0365912,0.181625 0.0299382,0.0585459 0.0618724,0.109774 0.097133,0.152352 0.232853,0.290068 0.797023,0.377887 1.69251,0.263457 0.896151,-0.115096 1.47429,-0.322668 1.73442,-0.624711l0 0zm1.3898 0.5981c-0.268779,0.312023 -0.594108,0.55419 -0.975322,0.726501 -0.381879,0.172311 -0.621385,0.284081 -0.719183,0.335308 -0.515603,0.307366 -1.13233,0.435103 -1.84885,0.383875 -0.717187,-0.0512277 -1.34589,-0.240171 -1.88611,-0.568161 -0.0778394,-0.0964677 -0.143038,-0.145034 -0.196262,-0.146365 -0.0831618,0.241502 -0.0798353,0.574814 0.0106447,0.999272 0.0898147,0.425123 0.216886,0.739807 0.380548,0.943387 0.14703,0.182956 0.325329,0.334643 0.534231,0.455061 0.209568,0.119753 0.423127,0.240837 0.641344,0.361255 0.0778394,0.0964677 0.115761,0.202915 0.113765,0.319341 -0.00199588,0.116427 -0.0385871,0.216221 -0.110439,0.299382 -0.206907,0.239506 -0.61074,0.188944 -1.21283,-0.150357 -0.49764,-0.274101 -0.871536,-0.566831 -1.12169,-0.878854 -0.146365,-0.182291 -0.283415,-0.42845 -0.410487,-0.737811 -0.211564,-0.522256 -0.32666,-0.794361 -0.343292,-0.815651 -0.56417,-1.04717 -0.862887,-1.64527 -0.895486,-1.7943 -0.105782,-0.540884 0.137716,-1.15495 0.729828,-1.84153 0.834944,-0.967338 2.09235,-1.41309 3.77355,-1.33857 1.68053,0.0751783 2.92663,0.618058 3.73762,1.62798 0.190274,0.236845 0.26013,0.533566 0.210233,0.89216 -0.0498971,0.359259 -0.186948,0.668621 -0.411817,0.928086l0 0zm-6.12803 -6.4966c0.170315,-0.197592 0.164993,-0.409156 -0.0166324,-0.634691 -0.319341,-0.397846 -0.889499,-0.488326 -1.71247,-0.272105 -0.822304,0.216886 -1.40843,0.528244 -1.75837,0.933408 -0.0545541,0.0625377 -0.0658641,0.123745 -0.0365912,0.182291 0.0299382,0.0585459 0.0625377,0.109108 0.097133,0.152352 0.232853,0.290068 0.797023,0.377887 1.69251,0.263457 0.896151,-0.115096 1.47429,-0.323333 1.73442,-0.624711l0 0zm1.39047 0.5981c-0.269444,0.312023 -0.594773,0.55419 -0.975987,0.726501 -0.381879,0.172311 -0.621385,0.284081 -0.719183,0.335308 -0.515603,0.306701 -1.13167,0.435103 -1.84885,0.383875 -0.716522,-0.0505624 -1.34589,-0.240171 -1.88611,-0.568161 -0.0778394,-0.0964677 -0.143038,-0.145699 -0.196262,-0.14703 -0.0831618,0.242167 -0.0798353,0.57548 0.0106447,0.999937 0.0898147,0.424458 0.216886,0.739142 0.380548,0.943387 0.14703,0.182956 0.325329,0.333978 0.534231,0.454396 0.209568,0.120418 0.423127,0.241502 0.641344,0.36192 0.0778394,0.0964677 0.115761,0.202915 0.113765,0.319341 -0.00199588,0.116427 -0.0385871,0.216221 -0.110439,0.299382 -0.206907,0.238841 -0.61074,0.188944 -1.21283,-0.151022 -0.49764,-0.274101 -0.871536,-0.566831 -1.12169,-0.878189 -0.146365,-0.182291 -0.283415,-0.42845 -0.410487,-0.737811 -0.211564,-0.522256 -0.32666,-0.794361 -0.343292,-0.815651 -0.56417,-1.04784 -0.862887,-1.64527 -0.895486,-1.7943 -0.105782,-0.54155 0.137716,-1.15562 0.729828,-1.8422 0.834944,-0.966673 2.09235,-1.41309 3.77355,-1.33724 1.68053,0.074513 2.92663,0.617393 3.73762,1.62731 0.190274,0.236179 0.26013,0.534231 0.210233,0.89216 -0.0498971,0.358594 -0.186948,0.667956 -0.411152,0.928086l0 0zm-5.59313 -6.12137c-0.269444,0.312023 -0.653319,0.63203 -1.15162,0.960685 -1.08643,0.719183 -1.7597,1.22946 -2.01983,1.53084 -0.0625377,0.0731824 -0.127071,0.251481 -0.193601,0.536227 -0.0379218,0.14703 -0.0651988,0.230857 -0.0831618,0.252147 -0.161667,0.186948 -0.538223,0.176968 -1.129,-0.0306035 -0.591447,-0.206907 -0.97266,-0.417805 -1.14564,-0.632695 -0.129732,-0.161001 -0.156344,-0.399842 -0.0805006,-0.715191 0.0751783,-0.316015 0.302044,-0.692571 0.6786,-1.12967 0.30537,-0.353271 0.850246,-0.709869 1.63596,-1.06979 0.785047,-0.36059 1.31662,-0.70122 1.59471,-1.02389 -0.103121,-0.129067 -0.570157,-0.138381 -1.39911,-0.0272771 -0.520925,0.063203 -1.34656,0.200919 -2.47689,0.411817 -1.05117,0.200919 -1.67854,0.30537 -1.88079,0.312023 -0.0445747,-0.01131 -0.345288,-0.160336 -0.9048,-0.446413 -0.0691906,-0.0432441 -0.178299,-0.0931412 -0.327325,-0.149026 -0.03393,-0.0851577 -0.0392524,-0.270775 -0.0172977,-0.555521 0.0219547,-0.284746 0.0598765,-0.459053 0.113765,-0.520925 0.260795,-0.302044 1.10239,-0.882846 2.52546,-1.74374 1.21815,-0.748456 2.15156,-1.28003 2.79956,-1.59471 0.0625377,-0.0306035 0.229527,-0.00598765 0.500967,0.0725171 0.543545,0.159005 0.866879,0.302709 0.970664,0.431776 0.146365,0.182956 0.242167,0.409156 0.285411,0.679931 0.0445747,0.27011 -0.00997942,0.494314 -0.162332,0.671282 -0.0991289,0.114431 -0.701886,0.387867 -1.8096,0.820973 -0.656646,0.262126 -1.08177,0.444417 -1.27737,0.546207l-0.00332647 0.190274c1.55413,-0.223539 2.50683,-0.341961 2.85944,-0.356598 1.37516,-0.07917 2.23938,0.10179 2.59332,0.54288 0.189609,0.236179 0.264787,0.506954 0.224204,0.81299 -0.0399177,0.306035 -0.280089,0.713861 -0.719848,1.22348l0 0zm-1.39246 -12.6073c-0.610075,0.707208 -1.1789,1.0026 -1.70515,0.886837 -0.0878189,-0.02262 -0.655315,-0.329986 -1.70249,-0.921433 -0.375891,-0.166324 -1.63662,-0.322668 -3.78286,-0.470363 -1.3725,-0.09048 -2.3751,-0.184287 -3.00713,-0.28142 0.314019,0.693902 0.471694,1.58007 0.471694,2.65852 -0.0319341,0.866879 -0.0592112,1.73841 -0.0824965,2.61594 0.0199588,0.931412 0.206907,1.61733 0.560843,2.05776 0.276097,0.343957 0.634026,0.540884 1.07379,0.592112 0.466371,0.0192935 0.932743,0.0392524 1.39845,0.0585459 0.164328,0.204911 0.152352,0.415809 -0.0359259,0.634026 -0.359259,0.415809 -0.979313,0.636687 -1.86016,0.661968 -1.10173,0.0312688 -1.98923,-0.3719 -2.66184,-1.21017 -0.699224,-0.870205 -1.07312,-1.96195 -1.12235,-3.27391 -0.0252812,-0.635356 0.0671947,-1.68586 0.276097,-3.1515 0.149691,-1.06514 0.120418,-1.7271 -0.0864883,-1.98457 -0.190274,-0.236845 -0.813655,-0.0425788 -1.87214,0.582133 -0.74646,0.42978 -1.32327,0.713861 -1.7311,0.854238 -0.166324,-0.0345953 -0.580137,-0.193601 -1.24011,-0.476351 -0.660637,-0.28275 -1.02921,-0.472359 -1.10705,-0.568827 -0.051893,-0.0645336 -0.0765088,-0.159671 -0.074513,-0.286742 0.00199588,-0.127071 0.0345953,-0.226865 0.097133,-0.299382 0.04524,-0.0525583 0.188944,-0.115761 0.432441,-0.190274 0.243498,-0.074513 0.502297,-0.156344 0.777064,-0.246159 0.747126,-0.45107 1.71979,-0.976652 2.91798,-1.57741 0.710534,-0.345953 1.92204,-0.919437 3.6345,-1.72178 1.03786,-0.476351 2.07638,-0.953367 3.11424,-1.42972 0.239506,-0.111769 0.708538,-0.105782 1.40643,0.0192935 0.697894,0.125075 1.11636,0.272771 1.25408,0.445082 0.0951371,0.117757 0.132394,0.240171 0.1131,0.366577 -0.0192935,0.127071 -0.0698559,0.236845 -0.151022,0.330651 -0.250816,0.291399 -0.864883,0.669951 -1.84153,1.13765 -0.425788,0.20358 -1.33059,0.608744 -2.7144,1.21616 -1.03786,0.455727 -1.63197,0.750452 -1.78432,0.885507 1.48826,-0.00266118 2.87939,0.0246159 4.17273,0.0811659 1.80428,0.0671947 3.26859,0.185617 4.39294,0.355267 1.41442,0.207572 2.25535,0.478347 2.5228,0.810994 0.215555,0.268779 0.197592,0.548868 -0.0532235,0.839601l0 0zm38.6682 59.9297c-0.819643,1.15761 -1.2268,1.96328 -1.21682,2.41169 0.00465706,0.250816 0.09048,0.374561 0.258134,0.371234 0.139712,-0.00332647 0.320007,-0.0938065 0.537558,-0.276762 0.220212,-0.18096 0.562839,-0.504958 1.02788,-0.97133l0.0119753 0.603422c-0.663964,0.831618 -1.17558,1.43105 -1.53151,1.79962 -0.357263,0.368573 -0.650658,0.556851 -0.881515,0.561508 -0.393854,0.00798353 -0.596769,-0.304705 -0.60941,-0.934739 -0.00399177,-0.184952 0.0172977,-0.370569 0.0605418,-0.550864 0.0445747,-0.182956 0.107778,-0.372565 0.186948,-0.568161 0.0798353,-0.198923 0.201584,-0.479012 0.366577,-0.84692 0.164993,-0.371234 0.355267,-0.787043 0.572153,-1.25142 -0.269444,0.175638 -0.606748,0.516934 -1.00659,1.02721 -0.264122,0.318676 -0.484334,0.625377 -0.667956,0.909457 -0.18096,0.287407 -0.373895,0.605418 -0.580802,0.959354 -0.206241,0.35061 -0.356598,0.58679 -0.455061,0.707873 -0.0958024,0.121749 -0.192935,0.182956 -0.29406,0.185617 -0.154348,0.00266118 -0.298717,-0.188278 -0.437098,-0.57681 -0.137716,-0.388532 -0.210898,-0.840932 -0.222208,-1.36053 -0.00598765,-0.322668 0.0179629,-0.574149 0.0758436,-0.754444 0.0552194,-0.183621 0.168319,-0.442421 0.340631,-0.777729 0.31668,-0.624711 0.595438,-1.08443 0.828291,-1.37583 0.234849,-0.294725 0.463045,-0.442421 0.681927,-0.447078 0.154348,-0.00332647 0.278093,0.0239506 0.372565,0.0878189 0.0951371,0.0612071 0.143704,0.15834 0.146365,0.29273 0.00133059,0.0598765 -0.00931412,0.119753 -0.0379218,0.186282 -0.0286077,0.063203 -0.0592112,0.123745 -0.0944718,0.174972 -0.0332647,0.0545541 -0.107778,0.157675 -0.220212,0.312023 -0.739142,1.03653 -1.10372,1.70448 -1.09774,2.00919 0.00332647,0.16965 0.051893,0.252812 0.143038,0.250816 0.05655,-0.00133059 0.164993,-0.117092 0.327325,-0.344622 0.160336,-0.226865 0.367908,-0.526913 0.621385,-0.896817 0.255473,-0.369238 0.556851,-0.755109 0.905466,-1.15894 0.35061,-0.404499 0.749121,-0.795027 1.1982,-1.17158 0.24882,-0.220212 0.458388,-0.331982 0.625377,-0.335308 0.0785047,-0.00199588 0.155014,0.125075 0.236845,0.380548 0.0785047,0.254808 0.121084,0.513607 0.126406,0.773737 0.00266118,0.128402 -0.097133,0.32799 -0.298052,0.594108l0 0.000665294zm-6.56512 -0.81299c-1.23479,0.717853 -2.11297,1.32726 -2.63124,1.82158 -0.521591,0.494314 -0.776399,0.998607 -0.765754,1.51221 0.00332647,0.188278 0.03393,0.339965 0.0878189,0.458388 0.05655,0.118422 0.129067,0.176303 0.219547,0.174972 0.0545541,-0.00133059 0.14703,-0.04524 0.278093,-0.128402 0.49631,-0.371234 0.94871,-0.852907 1.3552,-1.44036 0.40583,-0.591447 0.891494,-1.3898 1.45633,-2.39839l0 0zm-3.42959 1.03453c0.713861,-0.821639 1.40976,-1.43304 2.08769,-1.83821 0.677935,-0.405164 1.20485,-0.60941 1.57808,-0.617393 0.101125,-0.00199588 0.195597,0.0465706 0.286077,0.146365 0.0878189,0.0997942 0.159005,0.218217 0.211564,0.351275 0.0538888,0.133724 0.0805006,0.231522 0.0818312,0.29406 0.00199588,0.107778 -0.0306035,0.185617 -0.0958024,0.234849 -0.0658641,0.051893 -0.182291,0.114431 -0.35061,0.186282 0.0365912,0.0918106 0.0831618,0.210898 0.137716,0.355932 0.0572153,0.145034 0.0984636,0.264122 0.129732,0.352606 0.0319341,0.0891494 0.0459053,0.16965 0.0472359,0.238175 0.00266118,0.140377 -0.107112,0.405164 -0.333312,0.792366 -0.223539,0.386536 -0.381879,0.671282 -0.472359,0.852242 -0.0891494,0.184287 -0.131063,0.40583 -0.126406,0.668621 0.00864883,0.42978 0.175638,0.64467 0.502963,0.638017 0.335974,-0.00731824 0.854903,-0.399842 1.55413,-1.1789l0.01131 0.534897c-1.1809,1.66057 -2.03447,2.49951 -2.55806,2.51016 -0.186948,0.00399177 -0.321337,-0.06786 -0.405164,-0.215555 -0.0818312,-0.147695 -0.125741,-0.365247 -0.131728,-0.657311 -0.00931412,-0.460384 0.114431,-1.13167 0.369904,-2.01185 -0.681927,0.957359 -1.18888,1.64261 -1.5202,2.04711 -0.333312,0.40716 -0.60941,0.612736 -0.830953,0.616728 -0.105782,0.00266118 -0.240837,-0.105117 -0.402503,-0.322668 -0.161667,-0.220878 -0.310027,-0.504958 -0.437764,-0.854903 -0.129732,-0.34928 -0.198923,-0.715857 -0.206907,-1.09175 -0.00532235,-0.274767 0.0119753,-0.504958 0.0498971,-0.687914 0.040583,-0.186282 0.120418,-0.375891 0.242167,-0.569492 0.121084,-0.196927 0.314684,-0.454396 0.581467,-0.773737l0 0zm-0.747791 1.54747l0.01131 0.567496c-0.783717,1.10638 -1.50556,2.01983 -2.16686,2.74168 -0.659307,0.72384 -1.3073,1.28069 -1.94332,1.67654 -0.63336,0.395185 -1.25208,0.598765 -1.85151,0.61074 -0.51893,0.01131 -0.966673,-0.105117 -1.34523,-0.348614 -0.376557,-0.243498 -0.663964,-0.601426 -0.862887,-1.08177 -0.198923,-0.477016 -0.306701,-1.04518 -0.320007,-1.70182 -0.0106447,-0.519595 0.0472359,-1.07112 0.170315,-1.65592 0.125741,-0.582133 0.313354,-1.17158 0.558847,-1.76769 0.24882,-0.59943 0.553525,-1.21483 0.916776,-1.85284 0.363251,-0.637352 0.794361,-1.30996 1.28934,-2.01252 0.511611,-0.727167 1.0199,-1.3592 1.52352,-1.8921 0.502963,-0.53024 0.96135,-0.952036 1.37117,-1.25608 0.411152,-0.306701 0.795692,-0.535562 1.14896,-0.689245 0.355932,-0.153683 0.651988,-0.230857 0.885507,-0.236179 0.240837,-0.00465706 0.446413,0.0598765 0.616063,0.196927 0.172977,0.136385 0.304705,0.339965 0.401172,0.604087 0.0964677,0.266783 0.149691,0.576145 0.156344,0.925424 0.0133059,0.659972 -0.155679,1.39579 -0.510281,2.2121 -0.352606,0.813655 -0.796357,1.60536 -1.33458,2.36911 -0.534897,0.761097 -1.05117,1.38714 -1.54282,1.87214 -0.491653,0.485 -0.84825,0.731158 -1.06979,0.73515 -0.14703,0.00332647 -0.286077,-0.0658641 -0.41714,-0.206241 -0.130398,-0.141042 -0.197592,-0.300713 -0.201584,-0.479677 -0.00665294,-0.334643 0.130398,-0.741138 0.413148,-1.21882 0.280754,-0.477681 0.588785,-0.916776 0.922098,-1.31795 0.335974,-0.401172 0.536227,-0.602757 0.605418,-0.604087 0.0319341,0 0.0492318,0.0172977 0.0498971,0.0532235 0.00133059,0.0505624 -0.0212894,0.140377 -0.0705212,0.27011 -0.0465706,0.129067 -0.0698559,0.210233 -0.0691906,0.240171 0.00133059,0.04524 0.0166324,0.0685253 0.0432441,0.06786 0.0811659,-0.00133059 0.312023,-0.272105 0.689245,-0.808333 0.377887,-0.539554 0.72251,-1.13167 1.03387,-1.77767 0.311358,-0.642674 0.463045,-1.17158 0.455061,-1.57741 -0.00399177,-0.170315 -0.0359259,-0.298052 -0.0991289,-0.389197 -0.0612071,-0.0884841 -0.153018,-0.131728 -0.270775,-0.129067 -0.336639,0.00665294 -0.840932,0.348614 -1.51155,1.02256 -0.669951,0.676604 -1.35321,1.53284 -2.04977,2.57136 -0.697228,1.03919 -1.27537,2.10832 -1.73309,3.20805 -0.456392,1.09973 -0.677935,2.06308 -0.661303,2.89337 0.00997942,0.477681 0.0771741,0.876858 0.201584,1.19354 0.12441,0.320007 0.302044,0.564835 0.534231,0.732489 0.229527,0.171646 0.506289,0.252812 0.828291,0.246824 0.695898,-0.0146365 1.47828,-0.359259 2.34982,-1.03719 0.868874,-0.677935 1.82025,-1.66789 2.85611,-2.97054l0 0zm29.9136 -55.8109l0.0651988 4.24391 0.0279424 2.39772c0.00266118,0.110439 0.00465706,0.190939 0.00532235,0.250816 0.00665294,0.322668 -0.00332647,0.528909 -0.0252812,0.612736 -0.0439094,0.0938065 -0.136385,0.149691 -0.275432,0.166989 -0.0239506,0.0126406 -0.0585459,0.0192935 -0.100459,0.0199588 -0.153018,0.00332647 -0.363251,-0.051893 -0.630034,-0.166324 -0.112435,-0.0485665 -0.274101,-0.128402 -0.485,-0.244163 -0.0146365,-0.0232853 -0.051893,-0.127071 -0.114431,-0.31668 -0.0558847,-0.190274 -0.149026,-0.296056 -0.274101,-0.317345 -0.222874,0.195597 -0.386536,0.336639 -0.492983,0.422462 -0.356598,0.282085 -0.614732,0.424458 -0.764423,0.427119 0,0 0,0 0,0 -0.7112,-0.0658641 -1.26539,-0.299382 -1.65991,-0.700555 -0.415809,-0.385871 -0.685918,-1.02588 -0.815651,-1.91937l0.0425788 -3.20871c-0.00598765,-0.310692 -0.00598765,-0.621385 0.00199588,-0.932077 -0.00598765,-0.298717 0.0133059,-0.522921 0.0665294,-0.664629 0.0392524,-0.132394 0.1131,-0.246824 0.222874,-0.347949 0.0951371,-0.0824965 0.219547,-0.127071 0.372565,-0.129732 0.266118,0.0538888 0.461714,0.0891494 0.583463,0.110439 0.377887,0.09048 0.612736,0.157675 0.697228,0.206907 0.0705212,0.0552194 0.117757,0.143704 0.147695,0.262791 0.0306035,0.118422 0.0472359,0.23751 0.0492318,0.357263 0.00133059,0.0592112 0.00266118,0.1131 0.00332647,0.161001 0.000665294,0.0119753 -0.00665294,0.0299382 -0.0199588,0.0545541l-0.110439 3.6019c0.0192935,0.276762 0.0392524,0.563504 0.0592112,0.861556 0.0199588,0.298717 0.0598765,0.536227 0.115096,0.714526l0.37323 -0.296721c0.535562,-0.369904 0.7917,-1.13034 0.76775,-2.28928l0.125741 -1.88411 0.0312688 -1.70382c0.0252812,-0.141042 0.0439094,-0.245494 0.05655,-0.306035 0.0651988,-0.200919 0.14703,-0.310692 0.240171,-0.323998 0.254142,-0.00532235 0.51893,0.0192935 0.798353,0.0731824 0.280089,0.0538888 0.525583,0.157009 0.737146,0.307366 0.1131,0.0545541 0.171646,0.220878 0.177634,0.498305l0 0zm-9.27886 2.749c-0.00731824,-0.358594 -0.0558847,-0.697894 -0.149026,-1.01857 -0.135055,-0.47502 -0.32799,-0.709869 -0.578806,-0.705212 -0.0139712,0.000665294 -0.0279424,0.000665294 -0.0412482,0.00133059 -0.193601,0.0878189 -0.399177,0.578806 -0.617393,1.46431 -0.229527,0.888833 -0.340631,1.56012 -0.331982,2.01118 0.0638683,0.383875 0.114431,0.669286 0.160336,0.85956 0.137716,0.594773 0.28275,0.896817 0.436433,0.905466 0.24882,-0.0532235 0.464375,-0.263457 0.634026,-0.637352 0.159671,-0.364581 0.282085,-0.832949 0.3719,-1.40843 0.085823,-0.563504 0.12441,-1.05383 0.115761,-1.4723l0 0zm2.16021 0.457723c0.0159671,0.788374 -0.0864883,1.56145 -0.311358,2.31855 -0.282085,1.00659 -0.721844,1.6486 -1.31462,1.92403 -0.223539,0.111769 -0.39585,0.195597 -0.52026,0.246159 -0.097133,0.0379218 -0.183621,0.0578806 -0.27011,0.0592112 -0.0279424,0.000665294 -0.04524,0.00133059 -0.0592112,0.00133059 -0.561508,-0.0359259 -1.18422,-0.21489 -1.8728,-0.535562 -0.562174,-0.263457 -0.89349,-0.459053 -0.990623,-0.588785 -0.455061,-0.480343 -0.693237,-1.23479 -0.713861,-2.26466 -0.00864883,-0.427119 0.0139712,-0.851577 0.074513,-1.27138 0.0472359,-0.41847 0.191605,-1.01324 0.444417,-1.78299 0.24882,-0.769746 0.502297,-1.30065 0.760431,-1.59271 0.204911,-0.231522 0.47369,-0.35061 0.810994,-0.357263 0.419135,0.0598765 0.747126,0.1131 0.981309,0.159005 0.71253,0.129067 1.20285,0.268114 1.47363,0.415144 0.47369,0.184287 0.842928,0.553525 1.10505,1.10705 0.251481,0.558847 0.38454,1.27936 0.402503,2.16287l0 0zm-4.60783 -8.52708c0.100459,0.129732 0.152352,0.278093 0.155679,0.445082 0.00399177,0.202915 -0.0612071,0.413813 -0.196262,0.634691 -0.0166324,0.0332647 -0.0505624,0.0758436 -0.105117,0.12441 -0.212229,0.362585 -0.559513,1.06846 -1.04318,2.11497 -0.532901,1.17291 -0.932743,2.05975 -1.1982,2.66517 -0.182956,0.431111 -0.368573,0.864883 -0.551529,1.29599l-0.380548 0.963346c-0.0133059,0.0332647 -0.0558847,0.66729 -0.128402,1.89942 -0.0199588,0.40716 -0.0558847,1.01657 -0.109108,1.82756 -0.00931412,0.215555 -0.0186282,0.433772 -0.0286077,0.648662 -0.00931412,0.227531 -0.0412482,0.359259 -0.0931412,0.396515 -0.112435,0.0977983 -0.18096,0.14703 -0.204911,0.147695 -0.0731824,0.00133059 -0.185617,-0.0206241 -0.3393,-0.06786l-1.61467 -0.484334c-0.0605418,-0.0705212 -0.097133,-0.159005 -0.113765,-0.269444 -0.029273,-0.106447 -0.0465706,-0.249485 -0.0498971,-0.425788 -0.00399177,-0.202915 -0.000665294,-0.37323 0.0106447,-0.504958 -0.000665294,-0.0212894 0.00532235,-0.063203 0.0179629,-0.123079l0.0638683 -1.15162c0.0239506,-0.176303 0.040583,-0.385871 0.0498971,-0.624711 0.00864883,-0.239506 0.00997942,-0.377222 0.00864883,-0.413148 -0.00598765,-0.310027 -0.0212894,-0.560843 -0.0532235,-0.751117 -0.04524,-0.178964 -0.125075,-0.335308 -0.239506,-0.464375 -0.113765,-0.129067 -0.288738,-0.504958 -0.524252,-1.13366 -0.279424,-0.74646 -0.448408,-1.17358 -0.509615,-1.28003 -0.389197,-0.828291 -0.67727,-1.45566 -0.866879,-1.88145 -0.513607,-1.14896 -0.771741,-1.86083 -0.777729,-2.13227 -0.000665294,-0.0385871 0.00598765,-0.0691906 0.0192935,-0.0931412 0.0532235,-0.120418 0.0964677,-0.210898 0.119753,-0.268114 0.111104,-0.184287 0.210233,-0.276097 0.307366,-0.278093 0.0412482,-0.0246159 0.100459,-0.0379218 0.166324,-0.0392524 0.153018,-0.00332647 0.348614,0.040583 0.587455,0.131063 0.336639,0.125075 0.562174,0.263457 0.676604,0.416474 0.239506,0.318011 0.585459,0.878189 1.0332,1.68186 0.448408,0.814986 0.760431,1.44236 0.939396,1.87746 0.0299382,0.0864883 0.0671947,0.204911 0.108443,0.359259 0.04524,0.166324 0.0818312,0.252147 0.109774,0.252147 0.0552194,-0.00133059 0.161001,-0.125741 0.306035,-0.367908 0.130398,-0.393854 0.570823,-1.34123 1.31994,-2.83815 0.669286,-1.34323 1.13765,-2.23073 1.40776,-2.66317 0.0944718,-0.136385 0.232188,-0.213559 0.413148,-0.229527 0.0133059,0 0.0345953,-0.000665294 0.0592112,-0.00133059 0.197592,-0.00399177 0.457723,0.0891494 0.781056,0.274101 0.1131,0.0691906 0.268779,0.179629 0.466371,0.330651l0 0zm-13.2646 2.85478l-0.0605418 1.13034c-0.0266118,0.0805006 -0.143038,0.172977 -0.349945,0.272771 -0.220878,0.0997942 -0.427784,0.151687 -0.623381,0.156344 -0.306035,0.00598765 -0.516934,-0.097133 -0.632695,-0.310027 -0.0352606,-0.381214 -0.0718518,-0.799019 -0.108443,-1.25541 -0.0372565,-0.438429 -0.125075,-0.657311 -0.264122,-0.65465 -0.163662,0.00332647 -0.290734,0.453731 -0.369904,1.35188 -0.0212894,0.298717 -0.0325994,0.604087 -0.0399177,0.91478 -0.0219547,0.310692 -0.0319341,0.472359 -0.0319341,0.487661 -0.0286077,0.131728 -0.0412482,0.218882 -0.0399177,0.266783 0.00332647,0.155014 0.03393,0.280089 0.0944718,0.373895 0.040583,0.0951371 0.139047,0.140377 0.292064,0.137716 0.138381,-0.0239506 0.290734,-0.0479012 0.457723,-0.0658641 0.153018,-0.0153018 0.306035,-0.0246159 0.459053,-0.0272771 0.18096,-0.00399177 0.288738,0.0146365 0.318011,0.0532235 0.0818312,0.105782 0.127071,0.262791 0.131728,0.478347 0.00399177,0.226865 -0.0252812,0.484334 -0.0891494,0.76908 0.00133059,0.0505624 -0.0146365,0.117092 -0.0552194,0.198258l-0.164993 0.0958024c-0.143704,-0.0412482 -0.352606,-0.0612071 -0.631364,-0.0558847 -0.343957,0.00731824 -0.559513,0.0445747 -0.64467,0.117757 -0.0272771,0.0246159 -0.03393,0.210233 -0.0266118,0.556851 -0.00731824,0.357928 -0.00931412,0.585459 -0.00731824,0.683923 0.00199588,0.107112 0.00332647,0.172977 0.00399177,0.194266 0,0.01131 0.000665294,0.0232853 0.000665294,0.0352606l-0.00731824 1.68519 0.0419135 2.06042c0.0146365,0.0472359 0.0299382,0.119088 0.0459053,0.214225 0.0159671,0.107112 0.0246159,0.178299 0.0252812,0.214225 0.00399177,0.191605 -0.04524,0.332647 -0.141042,0.41847 -0.137051,0.0831618 -0.254808,0.133059 -0.351941,0.147695 -0.121749,0.00199588 -0.345288,-0.0172977 -0.66596,-0.0552194 -0.321337,-0.0419135 -0.568827,-0.0964677 -0.751783,-0.166989 -0.0991289,-0.0818312 -0.160336,-0.37323 -0.184952,-0.874862 -0.0372565,-0.488991 -0.0685253,-0.977983 -0.0924759,-1.46764l-0.106447 -3.36705c-0.139047,0.00266118 -0.247489,0.00465706 -0.31668,0.00598765 -0.446413,-0.0266118 -0.684588,-0.123079 -0.715857,-0.286742l-0.185617 -0.877523c-0.00266118,-0.155679 0.119753,-0.27144 0.369238,-0.347949 0.290734,-0.0658641 0.588785,-0.131728 0.894156,-0.197592 0.0219547,-0.801014 0.0505624,-1.41708 0.0871536,-1.84752 0.126406,-1.30531 0.353271,-2.15223 0.675939,-2.54142 0.162332,-0.218217 0.331982,-0.443086 0.504958,-0.676604 0.166989,-0.167654 0.401838,-0.256138 0.707873,-0.262126 0.375891,-0.00731824 0.7917,0.0731824 1.25475,0.240171 0.574814,0.218217 0.949375,0.491653 1.12701,0.822304 0.0392524,0.0711865 0.0871536,0.369238 0.139712,0.89349 0.00199588,0.0838271 0.01131,0.202915 0.0286077,0.361255l0 0zm-7.59367 -1.47961l-0.0332647 0.413148 0.0725171 3.56199c-0.00864883,0.250816 -0.0159671,0.588785 -0.0212894,1.00726 -0.00199588,0.41847 -0.00399177,0.668621 -0.00199588,0.753113 0.00665294,0.310027 0.0172977,0.512942 0.0299382,0.608079l0.0884841 1.27138 0.0771741 3.7802c0.00399177,0.202915 0,0.352606 -0.0119753,0.445082 -0.0598765,0.302709 -0.216886,0.455061 -0.471028,0.460384 -0.403168,0.00798353 -0.844924,-0.131728 -1.32394,-0.423792 -0.151687,-0.0891494 -0.353271,-0.240837 -0.594108,-0.45107l-0.0778394 -3.81879 -0.09048 -3.41895c-0.00598765,-0.286077 -0.00931412,-0.794361 -0.00997942,-1.52286 -0.00133059,-0.729163 0.00532235,-1.43437 0.02262,-2.11564 -0.000665294,-0.0472359 -0.00133059,-0.0831618 -0.00199588,-0.107112 -0.0159671,-0.0958024 -0.0246159,-0.194266 -0.0266118,-0.289403 -0.00332647,-0.176303 0.0139712,-0.33797 0.0525583,-0.482338 0.0252812,-0.143704 0.085823,-0.240171 0.182291,-0.293395 0.179629,-0.0598765 0.401838,-0.0951371 0.66596,-0.0997942 0.403834,-0.00864883 0.752448,0.0439094 1.04717,0.157675 0.277428,0.113765 0.420466,0.302044 0.425788,0.564835l0 0zm24.5786 154.366l4.19335 -0.0851577 -0.05655 -2.81686c-0.0485665,0.0625377 -0.107112,0.133059 -0.18096,0.21489l-0.397181 -19.4539 7.59899 -0.172977 -0.0651988 -3.04372 -7.595 0.131728 -0.145699 -5.20194 -3.85272 0.0738477 0.0911453 5.22589 -7.41271 0.148361 0.05655 3.06701 7.42668 -0.138381 0.387867 19.4559c-0.0392524,-0.0206241 -0.0725171,-0.0412482 -0.102455,-0.063203l0.0538888 2.65852 0 0zm6.59041 38.9084l2.45161 -0.0498971 -0.0332647 -1.64727c-0.0279424,0.0365912 -0.0625377,0.0785047 -0.105782,0.125741l-0.232188 -11.3745 4.44284 -0.101125 -0.0385871 -1.77966 -4.44017 0.0771741 -0.0851577 -3.04173 -2.25269 0.0432441 0.0538888 3.05503 -4.33439 0.0878189 0.0325994 1.79297 4.34238 -0.0811659 0.226865 11.3759c-0.02262,-0.0119753 -0.0425788,-0.0239506 -0.0598765,-0.0365912l0.0319341 1.55413 0 0zm-32.1111 -23.578l2.45227 -0.0505624 -0.0219547 -1.07179c-0.0286077,0.0239506 -0.0625377,0.0512277 -0.106447,0.0824965l-0.151687 -7.4034 4.4435 -0.097133 -0.0259465 -1.15828 -4.44017 0.0811659 -0.0638683 -1.97925 -2.25269 0.0445747 0.0319341 1.98856 -4.33439 0.0871536 0.0206241 1.16759 4.34238 -0.0838271 0.145699 7.40406c-0.02262,-0.00731824 -0.0425788,-0.0153018 -0.0598765,-0.0232853l0.0206241 1.01191 0 0z"/>
 </g>
</svg>
