<?xml version="1.0" encoding="UTF-8"?>
<!DOCTYPE svg PUBLIC "-//W3C//DTD SVG 1.1//EN" "http://www.w3.org/Graphics/SVG/1.1/DTD/svg11.dtd">
<!-- Creator: CorelDRAW -->
<svg xmlns="http://www.w3.org/2000/svg" xml:space="preserve" width="1in" height="2in" style="shape-rendering:geometricPrecision; text-rendering:geometricPrecision; image-rendering:optimizeQuality; fill-rule:evenodd; clip-rule:evenodd"
viewBox="0 0 0.0863686 0.090165"
 xmlns:xlink="http://www.w3.org/1999/xlink">
 <defs>
  <style type="text/css">
   <![CDATA[
    .fil0 {fill:#141516}
   ]]>
  </style>
 </defs>
 <g id="Layer_x0020_1">
  <metadata id="CorelCorpID_0Corel-Layer"/>
  <path class="fil0" d="M0.0502593 0.0829955c0.000683918,-0.000130077 0.00144315,5.57132e-005 0.00212192,0.00028429 0.00020196,6.80197e-005 0.000404016,0.000139808 0.000601874,0.000218989 0.000115004,4.60302e-005 0.000229054,9.51131e-005 0.000339812,0.000150635 7.06909e-005,3.54408e-005 0.000150826,7.23604e-005 0.000293544,0.000168952 -6.9403e-005,-5.94815e-005 -0.00013685,-0.000122397 -0.000202056,-0.000188795 -0.000642991,-0.000654391 -0.000944644,-0.00151575 -0.000944644,-0.00242414l0 -0.00444632c0,-0.000634835 0.000147344,-0.00124668 0.000455579,-0.00178101 -0.000308092,-0.000526079 -0.000455579,-0.00113024 -0.000455579,-0.00175683l0 -0.0045608c0,-0.000871043 0.000275418,-0.0017013 0.000874048,-0.00234682 0.000247275,-0.000266641 0.000530897,-0.000482673 0.000840277,-0.000646139l-0.00171795 -0.00373226c-0.000309332,-0.000683774 -0.000426912,-0.0014328 -0.000267547,-0.00217224 0.000100074,-0.000464785 0.000295976,-0.00089308 0.000575687,-0.00126161 -0.000204965,-0.000457106 -0.000304515,-0.000959431 -0.000304515,-0.00147745l0 -0.00211691c-0.00300675,0.00291473 -0.00600686,0.00584998 -0.00893968,0.00882854l0 0.0189747c0.00074235,1.42145e-005 0.0014846,3.09094e-005 0.00222691,5.2565e-005 0.00113167,3.30082e-005 0.00226645,7.39822e-005 0.00339617,0.00014868 0.000346109,2.28958e-005 0.000724653,4.7175e-005 0.00110615,8.39514e-005zm-0.025237 0.00528603c-0.00866631,-0.00463579 0.00731092,-0.00568103 0.0100828,-0.00564086l0 -0.0189544 -0.0238273 -0.0240713 -8.481e-005 -0.000107467c-8.87213e-006,-1.12571e-005 -1.79351e-005,-2.27527e-005 -2.71411e-005,-3.45345e-005 -0.000448424,2.60917e-005 -0.000901142,-2.3182e-005 -0.00141396,-0.00014038 -0.00172596,-0.000394524 -0.00325774,-0.00132452 -0.00385404,-0.00307739 -0.000559994,-0.00164611 -2.69503e-005,-0.00335915 0.0006428,-0.00488087l0.000522931 -0.0011881 0.00127783 -0.0002281c0.000899711,-0.000160605 0.00170035,-0.000246989 0.00256681,-0.000337332 0.000461303,-0.000378401 0.000906436,-0.000761334 0.00139746,-0.0011302 0.00196131,-0.00147335 0.00396475,-0.00288454 0.00590736,-0.00438489 0.000785232,-0.000606453 0.00164106,-0.00127635 0.00247509,-0.0019864 -0.000955662,-0.000217176 -0.00200033,-0.000484438 -0.00287223,-0.000826301 -0.000650671,0.000633594 -0.00162565,0.000975887 -0.00262296,0.00118009 -0.000712347,0.000145866 -0.00142197,0.000305946 -0.0021265,0.000485296 -0.00105292,0.000268167 -0.00202146,0.000705669 -0.00297321,0.00122168 -0.00114193,0.000619189 -0.00227251,0.00143619 -0.0036577,0.000927854l-0.00643554 -0.00236156 0.00304677 -0.0013375 -0.000624054 -0.00136984c-0.000698037,-0.0015323 -0.00162203,-0.00314966 -0.00119903,-0.00489656 0.000416275,-0.0017191 0.00185285,-0.00266274 0.00338291,-0.00330606l0.000862267 -0.000362517 0.000883207 0.000307949c0.00052856,0.000184359 0.00100203,0.000426721 0.0014889,0.000697894 0.000636695,0.000354647 0.000963485,0.000553936 0.00171423,0.000556273 0.000569248,1.76489e-006 0.00111589,-5.98631e-005 0.00167955,-0.000128503 0.00125336,-0.000152591 0.00234053,-0.000220182 0.00360876,-0.000104844 0.00212044,0.000192707 0.00424422,0.000430155 0.00636633,0.000591571 0.00226344,0.000172196 0.00452035,0.000203391 0.00678952,0.000202533 0.00118481,-5.24696e-007 0.00227771,-0.000106752 0.00344258,-0.000300365 0.00101758,-0.000169143 0.00196131,-0.00035126 0.00299573,-0.000139903 0.00194724,0.00039791 0.00324095,0.00206201 0.00436623,0.00356531 0.000563762,0.000753082 0.00226459,0.00275504 0.00359336,0.00409459 7.00708e-005,-0.000205108 0.000101648,-0.000434544 8.20911e-005,-0.000699945 -0.000106561,-0.00144306 3.49638e-005,-0.00286508 0.000903336,-0.00407512 0.000434162,-0.000605022 0.000975267,-0.00105345 0.00157924,-0.00140843 -0.000347349,-0.00345589 -0.000331322,-0.00747234 0.00111422,-0.0104685 0.00124038,-0.00257082 0.00348422,-0.00419757 0.00638493,-0.00416437 0.00236142,2.6998e-005 0.00499721,0.00124634 0.00646435,0.00310801 0.00176737,0.0022426 0.00369143,0.0046874 0.00512809,0.00715872 0.000840945,0.00144663 0.00142736,0.00280965 0.00169825,0.00446693 0.000161988,0.000991151 0.000219943,0.00199866 0.000373345,0.00299439 0.000241074,0.00156498 0.000664885,0.00309447 0.00116263,0.00459567 0.000172864,0.000521357 0.000375158,0.00103198 0.000587135,0.0015385 0.000698323,0.00166844 0.00140137,0.00320542 0.00187641,0.0049673 8.42853e-005,0.000312671 0.000175535,0.000623482 0.00026998,0.000933244 0.000725321,0.00237845 0.00235927,0.00606515 0.000461446,0.00822943l-0.000164707 0.000187841 -0.00111756 0.00084333c-0.00192091,0.00171237 -0.00380004,0.003494 -0.00566901,0.00526242 -0.00185485,0.00175497 -0.0037013,0.00351918 -0.00554198,0.00528927 1.47869e-006,-8.10894e-007 2.90968e-006,-1.57409e-006 4.38837e-006,-2.33728e-006 0.000506809,-0.000268931 0.00106642,-0.000398626 0.00163896,-0.000398626 0.000935152,0 0.00181764,0.000334422 0.00244403,0.0010462 0.00022042,0.000250375 0.000397672,0.000530372 0.000528226,0.00082964 0.000252617,-2.81905e-005 0.000506761,-4.44561e-005 0.000760905,-4.44561e-005 0.000899138,0 0.00178993,0.000157457 0.00256972,0.000574161 0.000151017,-7.99446e-005 0.000307281,-0.000151589 0.000467981,-0.000214982 0.00063493,-0.000250471 0.00130888,-0.000359178 0.00198974,-0.000359178 0.000103222,0 0.000206539,1.71719e-006 0.000309857,5.43776e-006 0.00015283,-0.000326456 0.000361039,-0.000628443 0.00062725,-0.000894559 0.000643611,-0.000643802 0.00149758,-0.000951036 0.00239986,-0.000951036 0.000902143,0 0.00175616,0.000307329 0.00239972,0.00095094 2.54716e-005,2.54239e-005 5.03708e-005,5.11817e-005 7.4793e-005,7.72734e-005 0.000146676,-0.000210212 0.000321066,-0.000404493 0.000522836,-0.000578501 0.000655107,-0.000564621 0.00147497,-0.000810703 0.00232946,-0.000810703 0.000854444,0 0.00167431,0.00024613 0.00232965,0.000810942 0.000450952,0.000388895 0.00076515,0.000879104 0.000939158,0.00142312 0.000196904,-2.20372e-005 0.000395955,-3.29128e-005 0.000596389,-3.29128e-005 0.000834458,0 0.0016464,0.000185027 0.00237544,0.00059801 0.000738629,0.000418326 0.00132443,0.00102526 0.001722,0.00177548 0.000385747,0.00072804 0.000556321,0.00153001 0.000556321,0.00235069 0,0.000368098 -6.56347e-005,0.000714159 -0.000185981,0.00102888 1.26404e-005,0.000105273 2.0177e-005,0.0002115 2.25142e-005,0.000318347 1.27835e-005,0.000592191 -0.000143051,0.00117651 -0.000447852,0.00168432 -0.000204298,0.000340432 -0.000469555,0.000629826 -0.00078008,0.000861742 0.000275179,0.000143385 0.00053686,0.000318586 0.000780605,0.000529991 0.000994728,0.0008626 0.00140323,0.0020871 0.00140323,0.00337604l0 0.0015936c0,0.000859071 -0.000263588,0.0016797 -0.000847241,0.00232283 -0.000629492,0.00069403 -0.00150306,0.00103666 -0.00243297,0.00103666 -0.000320351,0 -0.00062706,-3.99246e-005 -0.000915452,-0.000116053 -0.000332562,9.01046e-005 -0.000678671,0.000133654 -0.00103041,0.000133654 -0.000665887,0 -0.00131947,-0.000126929 -0.00192416,-0.000407784 -0.000286484,0.00059181 -0.000691931,0.00110601 -0.00125879,0.00146176 -0.000558801,0.00035064 -0.00119655,0.000513248 -0.00185327,0.000513248 -0.000751556,0 -0.00147025,-0.000238069 -0.00205256,-0.000716878 -0.000300699,-0.000247132 -0.000547687,-0.000542202 -0.00073467,-0.000871854 -5.68103e-005,2.62348e-006 -0.000113859,3.91137e-006 -0.000171099,3.91137e-006 -0.000320351,0 -0.00062706,-3.99246e-005 -0.000915452,-0.000116053 -1.9223e-005,5.19926e-006 -3.84936e-005,1.02554e-005 -5.7812e-005,1.51685e-005 0.000865319,0.000850151 0.00122464,0.00200234 0.00122464,0.00321124l0 0.0015936c0,0.000859071 -0.000263588,0.0016797 -0.000847241,0.00232283 -1.64087e-005,1.80782e-005 -3.30082e-005,3.59178e-005 -4.97507e-005,5.3519e-005 4.37883e-005,2.19418e-005 8.70519e-005,4.49331e-005 0.000129838,6.89737e-005 0.000693839,-0.000302559 0.00143934,-0.000435545 0.00219743,-0.000435545 0.000295356,0 0.0005889,1.98908e-005 0.000878294,6.20572e-005 0.000100217,-0.000212311 0.000223902,-0.000416275 0.000371771,-0.000609315 0.00065754,-0.000858069 0.00164774,-0.0012929 0.00272084,-0.0012929 0.00107901,0 0.00207408,0.000440268 0.00272866,0.00130902 0.000585513,0.000777552 0.000781606,0.00172949 0.00064032,0.00268477l-0.00032245 0.00223983c0.000243554,0.000483197 0.000365761,0.00102196 0.000365761,0.00158096 0,0.000890695 -0.000310048,0.00173011 -0.000925707,0.00237788 -0.000654964,0.000688735 -0.0015427,0.00102564 -0.00248658,0.00102564 -0.00060197,0 -0.00118061,-0.000138567 -0.00169162,-0.000417133 -0.000716544,0.00032846 -0.00149162,0.000469937 -0.00227928,0.000469937 -0.000745212,0 -0.00147821,-0.000128503 -0.00216194,-0.000420234 -0.000501943,0.00027184 -0.00106337,0.000402633 -0.00164168,0.000402633 -0.000518304,0 -0.00102683,-8.53347e-005 -0.00149925,-0.000283384 -0.000426483,0.000183596 -0.000909203,0.000283384 -0.00143266,0.000283384 -0.000447804,0 -0.000883684,-7.56993e-005 -0.00128784,-0.00023058 -0.000389897,0.000149681 -0.000824059,0.00023058 -0.00129194,0.00023058 -0.000341243,0 -0.000669608,-4.44561e-005 -0.000978272,-0.000129886 -0.000355553,9.974e-005 -0.000724987,0.000147487 -0.00109962,0.000147487 -0.000660783,0 -0.00130067,-0.000123256 -0.00187474,-0.000389897 -0.000490925,0.000250614 -0.00104181,0.000372296 -0.00161187,0.000372296 -0.000744448,0 -0.00145617,-0.000207207 -0.00204574,-0.000637506 -0.000588518,0.000431634 -0.00130206,0.000637506 -0.00204841,0.000637506 -0.000712537,0 -0.00139512,-0.000189845 -0.00196928,-0.000583414 0.00173331,0.00131847 0.00335162,0.00265096 0.0020311,0.0036931 -0.00410036,0.00323551 -0.0261584,0.00309661 -0.0308952,0.000562904zm0.0275717 -0.0564616c0.00170736,-3.00031e-005 0.0034152,-6.1771e-005 0.00511956,-0.000118724 0.000101171,-3.38667e-006 0.000224761,-6.67795e-006 0.000364044,-1.03985e-005 -0.000148155,-0.000202819 -0.000293639,-0.000407975 -0.000435879,-0.000616566 -0.00087257,-0.0012795 -0.00158597,-0.0026158 -0.00213957,-0.00402618 -0.001491,0.0011032 -0.00235121,0.00289804 -0.00290815,0.00477187zm-0.0300742 -1.89845e-005l0.0078693 1.32128e-005c-0.000643277,-0.0011155 -0.00123175,-0.00225572 -0.0017625,-0.00343151 -9.50654e-005,6.28681e-005 -0.000192373,0.000126976 -0.000291302,0.000193661 -0.00117169,0.000790288 -0.00249321,0.00125975 -0.00370426,0.00197004 -0.000683679,0.000400916 -0.00137323,0.000799064 -0.00204746,0.00121553 -2.02723e-005,1.24973e-005 -4.15941e-005,2.55193e-005 -6.37744e-005,3.9066e-005zm0.0358922 0.00868305c3.78735e-005,-3.68718e-005 7.5747e-005,-7.37437e-005 0.000113621,-0.000110568 0.000829545,-0.000806935 0.00166343,-0.00161339 0.002511,-0.00240268 -0.00156918,3.35806e-005 -0.00313907,4.99415e-005 -0.00470834,7.87044e-005 -0.00137299,2.51854e-005 -0.00274888,5.39483e-005 -0.00412058,0.000117198 -0.000452622,2.08447e-005 -0.00112237,3.54408e-005 -0.00168184,9.5924e-005 -0.000662643,0.000750554 -0.00135973,0.0014691 -0.00210947,0.0021046 0.00308946,4.12125e-005 0.00617868,8.5287e-005 0.00926838,0.000110806l0.000727229 6.01016e-006zm-0.0224414 -0.000221469c-0.000653867,-0.00064738 -0.00124425,-0.0013975 -0.00178979,-0.00222619l-0.0157445 -1.62656e-005c0.000885067,0.000915499 0.00177309,0.00182866 0.00266341,0.00273977 0.000865939,-0.000189606 0.00189473,-0.000242839 0.00276858,-0.000292256 0.00145188,-8.20434e-005 0.00291073,-0.000119058 0.00436457,-0.000146676 0.00257735,-4.89398e-005 0.005158,-6.17233e-005 0.00773774,-5.83844e-005zm0.0428299 0.0418763c-0.00030523,0 -0.000545922,-8.95322e-005 -0.000721982,-0.000268549 -0.000176107,-0.000179064 -0.000264161,-0.000412363 -0.000264161,-0.000699992 0,-0.000287629 8.80535e-005,-0.000519449 0.000264161,-0.000695556 0.000176059,-0.000176107 0.000416752,-0.000264161 0.000721982,-0.000264161 0.000311097,0 0.000551742,8.80535e-005 0.000721982,0.000264161 0.000170192,0.000176107 0.000255336,0.000407927 0.000255336,0.000695556 0,0.000287629 -8.51439e-005,0.000520928 -0.000255336,0.000699992 -0.00017024,0.000179017 -0.000410885,0.000268549 -0.000721982,0.000268549zm0 -0.00222757c-0.000181974,0 -0.000327267,-5.72396e-005 -0.000435832,-0.000171719 -0.000108612,-0.000114479 -0.000177586,-0.000274416 -0.000206921,-0.000479858l-0.000325789 -0.00226278c-5.28035e-005,-0.000352214 7.34575e-006,-0.000641274 0.000180495,-0.000867275 0.00017315,-0.000225953 0.000435832,-0.000338954 0.000788046,-0.000338954 0.000352166,0 0.00061337,0.000113 0.00078361,0.000338954 0.000170192,0.000226001 0.000228911,0.000515061 0.000176059,0.000867275l-0.000325741 0.00226278c-2.9383e-005,0.000205442 -9.6878e-005,0.000365379 -0.000202533,0.000479858 -0.000105655,0.000114479 -0.000249469,0.000171719 -0.000431396,0.000171719zm-0.0039709 0.000942068c0.000187841,0 0.000344868,-7.04524e-005 0.000471034,-0.000211309 0.000126213,-0.000140857 0.00018932,-0.000384459 0.00018932,-0.000730759 0,-0.000346347 -6.31066e-005,-0.000589949 -0.00018932,-0.000730806 -0.000126166,-0.000140857 -0.000283193,-0.000211309 -0.000471034,-0.000211309 -0.000187841,0 -0.000344821,7.04524e-005 -0.000471034,0.000211309 -0.000126213,0.000140857 -0.00018932,0.000384459 -0.00018932,0.000730806 0,0.000346299 6.31066e-005,0.000589902 0.00018932,0.000730759 0.000126213,0.000140857 0.000283193,0.000211309 0.000471034,0.000211309zm0 0.00133831c-0.000498938,0 -0.000936201,-9.09632e-005 -0.00131188,-0.000272937 -0.000375682,-0.000181974 -0.0006677,-0.000444656 -0.000876052,-0.000787998 -0.0002084,-0.00034339 -0.000312576,-0.000749886 -0.000312576,-0.00121944 0,-0.00047547 0.000104176,-0.000883445 0.000312576,-0.00122388 0.000208352,-0.000340432 0.000500369,-0.000601636 0.000876052,-0.00078361 0.000375682,-0.000181974 0.000812945,-0.000272937 0.00131188,-0.000272937 0.000504805,0 0.000943594,9.09632e-005 0.00131632,0.000272937 0.000372725,0.000181974 0.000663264,0.000443177 0.000871663,0.00078361 0.000208352,0.000340432 0.000312528,0.000748407 0.000312528,0.00122388 0,0.000469555 -0.000104176,0.000876052 -0.000312528,0.00121944 -0.0002084,0.000343342 -0.000498938,0.000606024 -0.000871663,0.000787998 -0.000372725,0.000181974 -0.000811514,0.000272937 -0.00131632,0.000272937zm-0.00673552 -1.76012e-005c-0.000293496,0 -0.000519497,-7.92291e-005 -0.000677955,-0.000237735 -0.000158506,-0.000158458 -0.000237735,-0.000387417 -0.000237735,-0.00068678l0 -0.00453438c0,-0.000299363 7.92291e-005,-0.000528274 0.000237735,-0.000686732 0.000158458,-0.000158506 0.000384459,-0.000237735 0.000677955,-0.000237735 0.000293448,0 0.000519449,7.92291e-005 0.000677955,0.000237735 0.000158458,0.000158458 0.000237687,0.000387369 0.000237687,0.000686732l0 0.00271182 1.76489e-005 0 0.000871663 -0.00117098c0.000158458,-0.000211357 0.000312528,-0.000365427 0.00046221,-0.000462257 0.000149681,-9.6878e-005 0.000350735,-0.000145293 0.000603114,-0.000145293 0.000252427,0 0.000447566,6.16279e-005 0.000585513,0.000184884 0.000137947,0.000123304 0.000211309,0.000277373 0.000220134,0.000462257 8.77673e-006,0.000184884 -6.0197e-005,0.000371246 -0.000206921,0.000559088l-0.000730759 0.000950892 0.000862839 0.00122388c0.000140857,0.000193708 0.000196618,0.000378592 0.000167283,0.000554699 -2.93353e-005,0.000176059 -0.000118868,0.000318395 -0.000268549,0.000427007 -0.000149681,0.000108612 -0.000338954,0.000162894 -0.000567912,0.000162894 -0.000275847,0 -0.000495981,-4.84151e-005 -0.000660306,-0.000145293 -0.000164373,-9.68303e-005 -0.000322879,-0.000253858 -0.00047547,-0.000471034l-0.000862839 -0.00121505 -1.76489e-005 0 0 0.000906866c0,0.000616327 -0.00030523,0.000924515 -0.000915642,0.000924515zm-0.00465768 1.76012e-005c-0.000569391,0 -0.000990531,-0.000158506 -0.00126347,-0.00047547 -0.000272937,-0.000316964 -0.000409406,-0.000801211 -0.000409406,-0.00145274l0 -0.00169048c0,-0.000299363 7.92291e-005,-0.000528321 0.000237687,-0.00068678 0.000158506,-0.000158506 0.000384507,-0.000237735 0.000677955,-0.000237735 0.000293496,0 0.000519497,7.92291e-005 0.000677955,0.000237735 0.000158506,0.000158458 0.000237735,0.000387417 0.000237735,0.00068678l0 0.00174328c0,0.000322879 0.000137947,0.000484295 0.000413842,0.000484295 0.000164325,0 0.000299363,-6.31066e-005 0.000405018,-0.00018932 0.000105655,-0.000126213 0.000158458,-0.000289108 0.000158458,-0.000488635l0 -0.00154962c0,-0.000299363 7.92291e-005,-0.000528321 0.000237735,-0.00068678 0.000158506,-0.000158506 0.000384459,-0.000237735 0.000677955,-0.000237735 0.000293496,0 0.000519497,7.92291e-005 0.000677955,0.000237735 0.000158506,0.000158458 0.000237735,0.000387417 0.000237735,0.00068678l0 0.00267657c0,0.000616327 -0.000296406,0.000924515 -0.000889265,0.000924515 -0.000481337,0 -0.000768966,-0.000205442 -0.000862887,-0.000616327 -0.000140857,0.000205442 -0.000311097,0.00036247 -0.000510625,0.000471034 -0.000199575,0.000108612 -0.000434401,0.000162894 -0.000704381,0.000162894zm-0.00758076 -1.76012e-005c-0.00030523,0 -0.000540055,-8.36652e-005 -0.000704381,-0.000250948 -0.000164373,-0.000167283 -0.000246559,-0.000406449 -0.000246559,-0.000717593l0 -0.00444632c0,-0.000311097 8.21865e-005,-0.000550263 0.000246559,-0.000717593 0.000164325,-0.000167283 0.000399151,-0.0002509 0.000704381,-0.0002509 0.000305182,0 0.000538529,8.36175e-005 0.000699945,0.0002509 0.000161416,0.00016733 0.000242123,0.000406496 0.000242123,0.000717593l0 0.00140876 0.00220115 0 0 -0.00140876c0,-0.000311097 8.21865e-005,-0.000550263 0.000246559,-0.000717593 0.000164325,-0.000167283 0.000399151,-0.0002509 0.000704381,-0.0002509 0.00030523,0 0.000538529,8.36175e-005 0.000699945,0.0002509 0.000161416,0.00016733 0.000242123,0.000406496 0.000242123,0.000717593l0 0.00444632c0,0.000311145 -8.07078e-005,0.000550311 -0.000242123,0.000717593 -0.000161416,0.000167283 -0.000394715,0.000250948 -0.000699945,0.000250948 -0.00030523,0 -0.000540055,-8.36652e-005 -0.000704381,-0.000250948 -0.000164373,-0.000167283 -0.000246559,-0.000406449 -0.000246559,-0.000717593l0 -0.00148794 -0.00220115 0 0 0.00148794c0,0.000311145 -7.92291e-005,0.000550311 -0.000237735,0.000717593 -0.000158458,0.000167283 -0.000393236,0.000250948 -0.000704333,0.000250948zm0.0127491 -0.00921686c0.00017024,0 0.000318443,-5.57609e-005 0.000444608,-0.000167283 0.000126213,-0.000111522 0.00018932,-0.000258246 0.00018932,-0.00044022l0 -0.000140905 -0.000352166 0c-0.000228958,0 -0.000407975,3.525e-005 -0.000537098,0.000105702 -0.000129123,7.04047e-005 -0.000193708,0.000164325 -0.000193708,0.000281714 0,0.000105655 3.6681e-005,0.00019223 0.000110043,0.000259725 7.34098e-005,6.75427e-005 0.000186363,0.000101266 0.000339001,0.000101266zm-0.000431443 0.00117103c-0.000346299,0 -0.000651529,-6.31066e-005 -0.00091569,-0.00018932 -0.000264113,-0.000126166 -0.000469555,-0.000299315 -0.000616327,-0.000519449 -0.000146724,-0.000220134 -0.000220086,-0.000471034 -0.000220086,-0.000752796 0,-0.000316964 8.21865e-005,-0.000566433 0.000246512,-0.000748407 0.000164373,-0.000181974 0.000428486,-0.000312576 0.000792434,-0.000391805 0.000363901,-7.92291e-005 0.000842328,-0.000118868 0.00143514,-0.000118868l0.00034339 0 0 -7.92291e-005c0,-0.00017024 -4.69365e-005,-0.00028615 -0.000140857,-0.000347778 -9.39206e-005,-6.16279e-005 -0.000261203,-9.24419e-005 -0.000501896,-9.24419e-005 -0.000129123,0 -0.000274416,1.32128e-005 -0.000435832,3.95907e-005 -0.000161416,2.64256e-005 -0.000353645,7.48407e-005 -0.000576689,0.000145293 -0.000181974,5.87183e-005 -0.000337523,6.31066e-005 -0.000466646,1.32128e-005 -0.000129123,-4.98938e-005 -0.000227432,-0.000130602 -0.000294975,-0.000242123 -6.7495e-005,-0.000111522 -9.974e-005,-0.000234778 -9.68303e-005,-0.000369815 2.95738e-006,-0.00013499 4.84151e-005,-0.000262682 0.000136469,-0.00038298 8.80535e-005,-0.000120346 0.000223044,-0.000212788 0.000405018,-0.000277373 0.000281762,-9.97877e-005 0.000540008,-0.000165804 0.000774833,-0.000198097 0.000234778,-3.22927e-005 0.000448997,-4.84151e-005 0.000642705,-4.84151e-005 0.000768966,0 0.00134127,0.000162894 0.0017169,0.000488635 0.000375682,0.000325789 0.000563524,0.00083794 0.000563524,0.00153645l0 0.0015936c0,0.000299363 -7.19311e-005,0.000528321 -0.000215746,0.00068678 -0.000143767,0.000158506 -0.000353645,0.000237735 -0.000629492,0.000237735 -0.000493071,0 -0.000771876,-0.000237735 -0.000836461,-0.000713205 -6.45853e-005,0.000223091 -0.000193708,0.000400629 -0.000387417,0.00053271 -0.000193708,0.00013208 -0.000434353,0.000198097 -0.000721982,0.000198097zm-0.00467523 -0.00117103c0.00017024,0 0.000318443,-5.57609e-005 0.000444608,-0.000167283 0.000126213,-0.000111522 0.00018932,-0.000258246 0.00018932,-0.00044022l0 -0.000140905 -0.000352166 0c-0.000228958,0 -0.000407975,3.525e-005 -0.000537098,0.000105702 -0.000129123,7.04047e-005 -0.000193708,0.000164325 -0.000193708,0.000281714 0,0.000105655 3.6681e-005,0.00019223 0.000110043,0.000259725 7.34098e-005,6.75427e-005 0.000186363,0.000101266 0.000339001,0.000101266zm-0.000431443 0.00117103c-0.000346299,0 -0.000651529,-6.31066e-005 -0.00091569,-0.00018932 -0.000264113,-0.000126166 -0.000469555,-0.000299315 -0.000616327,-0.000519449 -0.000146724,-0.000220134 -0.000220086,-0.000471034 -0.000220086,-0.000752796 0,-0.000316964 8.21865e-005,-0.000566433 0.000246512,-0.000748407 0.000164373,-0.000181974 0.000428486,-0.000312576 0.000792434,-0.000391805 0.000363901,-7.92291e-005 0.000842328,-0.000118868 0.00143514,-0.000118868l0.00034339 0 0 -7.92291e-005c0,-0.00017024 -4.69365e-005,-0.00028615 -0.000140857,-0.000347778 -9.39206e-005,-6.16279e-005 -0.000261203,-9.24419e-005 -0.000501896,-9.24419e-005 -0.000129123,0 -0.000274416,1.32128e-005 -0.000435832,3.95907e-005 -0.000161416,2.64256e-005 -0.000353645,7.48407e-005 -0.000576689,0.000145293 -0.000181974,5.87183e-005 -0.000337523,6.31066e-005 -0.000466646,1.32128e-005 -0.000129123,-4.98938e-005 -0.000227432,-0.000130602 -0.000294975,-0.000242123 -6.7495e-005,-0.000111522 -9.974e-005,-0.000234778 -9.68303e-005,-0.000369815 2.95738e-006,-0.00013499 4.84151e-005,-0.000262682 0.000136469,-0.00038298 8.80535e-005,-0.000120346 0.000223044,-0.000212788 0.000405018,-0.000277373 0.000281762,-9.97877e-005 0.000540008,-0.000165804 0.000774833,-0.000198097 0.000234778,-3.22927e-005 0.000448997,-4.84151e-005 0.000642705,-4.84151e-005 0.000768966,0 0.00134127,0.000162894 0.0017169,0.000488635 0.000375682,0.000325789 0.000563524,0.00083794 0.000563524,0.00153645l0 0.0015936c0,0.000299363 -7.19311e-005,0.000528321 -0.000215746,0.00068678 -0.000143767,0.000158506 -0.000353645,0.000237735 -0.000629492,0.000237735 -0.000493071,0 -0.000771876,-0.000237735 -0.000836461,-0.000713205 -6.45853e-005,0.000223091 -0.000193708,0.000400629 -0.000387417,0.00053271 -0.000193708,0.00013208 -0.000434353,0.000198097 -0.000721982,0.000198097zm-0.0072814 -1.76012e-005c-0.000287629,0 -0.000506284,-7.63194e-005 -0.000655966,-0.000228911 -0.000149681,-0.000152639 -0.000224522,-0.000372725 -0.000224522,-0.000660354l0 -0.0045608c0,-0.000299363 7.48407e-005,-0.000529752 0.000224522,-0.000691168 0.000149681,-0.000161416 0.000350735,-0.000242123 0.000603114,-0.000242123 0.000211309,0 0.000380071,4.25481e-005 0.000506284,0.000127644 0.000126213,8.51439e-005 0.000265592,0.000221613 0.00041823,0.000409406l0.00220115 0.00266784 0 -0.00231563c0,-0.000287629 7.48407e-005,-0.000507763 0.000224522,-0.000660354 0.000149681,-0.000152639 0.000368337,-0.000228911 0.000655966,-0.000228911 0.000287581,0 0.000506236,7.62717e-005 0.000655918,0.000228911 0.000149681,0.000152591 0.000224522,0.000372725 0.000224522,0.000660354l0 0.00464886c0,0.000252379 -6.89737e-005,0.000456343 -0.000206921,0.000611891 -0.000137947,0.000155549 -0.00032431,0.000233347 -0.000559088,0.000233347 -0.000234778,0 -0.000419661,-4.25481e-005 -0.000554699,-0.000127692 -0.00013499,-8.50962e-005 -0.000278804,-0.000221565 -0.000431396,-0.000409406l-0.0022012 -0.00266779 0 0.00231563c0,0.000287629 -7.48407e-005,0.000507715 -0.000224522,0.000660354 -0.000149681,0.000152591 -0.000368289,0.000228911 -0.000655918,0.000228911zm0.0257888 -0.00921686c0.00017024,0 0.000318443,-5.57609e-005 0.000444608,-0.000167283 0.000126213,-0.000111522 0.00018932,-0.000258246 0.00018932,-0.00044022l0 -0.000140905 -0.000352166 0c-0.000228958,0 -0.000407975,3.525e-005 -0.000537098,0.000105702 -0.000129123,7.04047e-005 -0.000193708,0.000164325 -0.000193708,0.000281714 0,0.000105655 3.6681e-005,0.00019223 0.000110043,0.000259725 7.34098e-005,6.75427e-005 0.000186363,0.000101266 0.000339001,0.000101266zm-0.000431443 0.00117103c-0.000346299,0 -0.000651529,-6.31066e-005 -0.00091569,-0.00018932 -0.000264113,-0.000126166 -0.000469555,-0.000299315 -0.000616327,-0.000519449 -0.000146724,-0.000220134 -0.000220086,-0.000471034 -0.000220086,-0.000752796 0,-0.000316964 8.21865e-005,-0.000566433 0.000246512,-0.000748407 0.000164373,-0.000181974 0.000428486,-0.000312576 0.000792434,-0.000391805 0.000363901,-7.92291e-005 0.000842328,-0.000118868 0.00143514,-0.000118868l0.00034339 0 0 -7.92291e-005c0,-0.00017024 -4.69365e-005,-0.00028615 -0.000140857,-0.000347778 -9.39206e-005,-6.16279e-005 -0.000261203,-9.24419e-005 -0.000501896,-9.24419e-005 -0.000129123,0 -0.000274416,1.32128e-005 -0.000435832,3.95907e-005 -0.000161416,2.64256e-005 -0.000353645,7.48407e-005 -0.000576689,0.000145293 -0.000181974,5.87183e-005 -0.000337523,6.31066e-005 -0.000466646,1.32128e-005 -0.000129123,-4.98938e-005 -0.000227432,-0.000130602 -0.000294975,-0.000242123 -6.7495e-005,-0.000111522 -9.974e-005,-0.000234778 -9.68303e-005,-0.000369815 2.95738e-006,-0.00013499 4.84151e-005,-0.000262682 0.000136469,-0.00038298 8.80535e-005,-0.000120346 0.000223044,-0.000212788 0.000405018,-0.000277373 0.000281762,-9.97877e-005 0.000540008,-0.000165804 0.000774833,-0.000198097 0.000234778,-3.22927e-005 0.000448997,-4.84151e-005 0.000642705,-4.84151e-005 0.000768966,0 0.00134127,0.000162894 0.0017169,0.000488635 0.000375682,0.000325789 0.000563524,0.00083794 0.000563524,0.00153645l0 0.0015936c0,0.000299363 -7.19311e-005,0.000528321 -0.000215746,0.00068678 -0.000143767,0.000158506 -0.000353645,0.000237735 -0.000629492,0.000237735 -0.000493071,0 -0.000771876,-0.000237735 -0.000836461,-0.000713205 -6.45853e-005,0.000223091 -0.000193708,0.000400629 -0.000387417,0.00053271 -0.000193708,0.00013208 -0.000434353,0.000198097 -0.000721982,0.000198097zm-0.00503622 0.00156722c-0.000205442,0 -0.000374204,-5.42822e-005 -0.000506284,-0.000162894 -0.00013208,-0.000108564 -0.000214219,-0.0002509 -0.000246512,-0.000427007 -3.22927e-005,-0.000176107 -1.47869e-006,-0.000363948 9.24419e-005,-0.000563476l0.000413794 -0.000889312 -0.00128546 -0.00291431c-8.80535e-005,-0.000205442 -0.00011591,-0.000394762 -8.36652e-005,-0.000567912 3.22927e-005,-0.00017315 0.000123304,-0.000314007 0.000272985,-0.000422619 0.000149681,-0.000108612 0.000353645,-0.000162894 0.000611891,-0.000162894 0.000217176,0 0.000391805,4.98938e-005 0.000523885,0.000149681 0.00013208,9.97877e-005 0.000253858,0.000296406 0.000365379,0.000589902l0.000563524 0.00148799 0.000598726 -0.00150559c0.000111522,-0.000275895 0.000237687,-0.000465167 0.000378592,-0.000567912 0.000140857,-0.000102697 0.000328698,-0.00015407 0.000563476,-0.00015407 0.000199575,0 0.000360991,5.42822e-005 0.000484247,0.000162894 0.000123304,0.000108612 0.000199575,0.000249469 0.000228958,0.000422619 2.93353e-005,0.00017315 -2.95738e-006,0.00036247 -9.6878e-005,0.000567912l-0.00191939 0.00427026c-0.000117437,0.00026998 -0.000250948,0.000451954 -0.000400629,0.000545875 -0.000149681,9.39206e-005 -0.000336044,0.000140857 -0.000559088,0.000140857zm-0.00447275 -0.00273825c0.00017024,0 0.000318443,-5.57609e-005 0.000444608,-0.000167283 0.000126213,-0.000111522 0.00018932,-0.000258246 0.00018932,-0.00044022l0 -0.000140905 -0.000352166 0c-0.000228958,0 -0.000407975,3.525e-005 -0.000537098,0.000105702 -0.000129123,7.04047e-005 -0.000193708,0.000164325 -0.000193708,0.000281714 0,0.000105655 3.6681e-005,0.00019223 0.000110043,0.000259725 7.34098e-005,6.75427e-005 0.000186363,0.000101266 0.000339001,0.000101266zm-0.000431443 0.00117103c-0.000346299,0 -0.000651529,-6.31066e-005 -0.00091569,-0.00018932 -0.000264113,-0.000126166 -0.000469555,-0.000299315 -0.000616327,-0.000519449 -0.000146724,-0.000220134 -0.000220086,-0.000471034 -0.000220086,-0.000752796 0,-0.000316964 8.21865e-005,-0.000566433 0.000246512,-0.000748407 0.000164373,-0.000181974 0.000428486,-0.000312576 0.000792434,-0.000391805 0.000363901,-7.92291e-005 0.000842328,-0.000118868 0.00143514,-0.000118868l0.00034339 0 0 -7.92291e-005c0,-0.00017024 -4.69365e-005,-0.00028615 -0.000140857,-0.000347778 -9.39206e-005,-6.16279e-005 -0.000261203,-9.24419e-005 -0.000501896,-9.24419e-005 -0.000129123,0 -0.000274416,1.32128e-005 -0.000435832,3.95907e-005 -0.000161416,2.64256e-005 -0.000353645,7.48407e-005 -0.000576689,0.000145293 -0.000181974,5.87183e-005 -0.000337523,6.31066e-005 -0.000466646,1.32128e-005 -0.000129123,-4.98938e-005 -0.000227432,-0.000130602 -0.000294975,-0.000242123 -6.7495e-005,-0.000111522 -9.974e-005,-0.000234778 -9.68303e-005,-0.000369815 2.95738e-006,-0.00013499 4.84151e-005,-0.000262682 0.000136469,-0.00038298 8.80535e-005,-0.000120346 0.000223044,-0.000212788 0.000405018,-0.000277373 0.000281762,-9.97877e-005 0.000540008,-0.000165804 0.000774833,-0.000198097 0.000234778,-3.22927e-005 0.000448997,-4.84151e-005 0.000642705,-4.84151e-005 0.000768966,0 0.00134127,0.000162894 0.0017169,0.000488635 0.000375682,0.000325789 0.000563524,0.00083794 0.000563524,0.00153645l0 0.0015936c0,0.000299363 -7.19311e-005,0.000528321 -0.000215746,0.00068678 -0.000143767,0.000158506 -0.000353645,0.000237735 -0.000629492,0.000237735 -0.000493071,0 -0.000771876,-0.000237735 -0.000836461,-0.000713205 -6.45853e-005,0.000223091 -0.000193708,0.000400629 -0.000387417,0.00053271 -0.000193708,0.00013208 -0.000434353,0.000198097 -0.000721982,0.000198097zm-0.00465763 -0.00133831c0.000187794,0 0.000344821,-7.04524e-005 0.000471034,-0.000211309 0.000126213,-0.000140857 0.000189272,-0.000384459 0.000189272,-0.000730759 0,-0.000346347 -6.30589e-005,-0.000589949 -0.000189272,-0.000730806 -0.000126213,-0.000140857 -0.000283241,-0.000211309 -0.000471034,-0.000211309 -0.000187841,0 -0.000344868,7.04524e-005 -0.000471082,0.000211309 -0.000126166,0.000140857 -0.000189272,0.000384459 -0.000189272,0.000730806 0,0.000346299 6.31066e-005,0.000589902 0.000189272,0.000730759 0.000126213,0.000140857 0.000283241,0.000211309 0.000471082,0.000211309zm0.000607503 0.00133831c-0.000281762,0 -0.000540008,-6.01493e-005 -0.000774833,-0.000180495 -0.000234778,-0.000120346 -0.000407927,-0.000280283 -0.000519449,-0.000479858 -9.39206e-005,0.000428486 -0.000384459,0.000642753 -0.000871663,0.000642753 -0.000604593,0 -0.000906866,-0.000308187 -0.000906866,-0.000924515l0 -0.00453438c0,-0.000299363 7.92291e-005,-0.000528274 0.000237735,-0.000686732 0.000158458,-0.000158506 0.000384459,-0.000237735 0.000677955,-0.000237735 0.000293448,0 0.000519449,7.92291e-005 0.000677955,0.000237735 0.000158458,0.000158458 0.000237687,0.000387369 0.000237687,0.000686732l0 0.00147917c0.000123304,-0.000170192 0.000296453,-0.000306661 0.000519497,-0.000409406 0.000223044,-0.000102697 0.000463688,-0.00015407 0.000721982,-0.00015407 0.000369768,0 0.000697035,9.09632e-005 0.000981706,0.000272937 0.000284671,0.000181974 0.000507763,0.000443177 0.000669178,0.00078361 0.000161416,0.000340432 0.000242123,0.000748407 0.000242123,0.00122388 0,0.000469555 -8.07078e-005,0.000876052 -0.000242123,0.00121944 -0.000161416,0.000343342 -0.000384507,0.000606024 -0.000669178,0.000787998 -0.000284671,0.000181974 -0.000611939,0.000272937 -0.000981706,0.000272937zm-0.00476329 -1.76012e-005c-0.000293496,0 -0.000519497,-8.50962e-005 -0.000677955,-0.000255336 -0.000158506,-0.00017024 -0.000237735,-0.000416752 -0.000237735,-0.000739583l0 -0.00253576c0,-0.000322831 7.92291e-005,-0.000569343 0.000237735,-0.000739583 0.000158458,-0.00017024 0.000384459,-0.000255336 0.000677955,-0.000255336 0.000293448,0 0.000519449,8.50962e-005 0.000677955,0.000255336 0.000158458,0.00017024 0.000237687,0.000416752 0.000237687,0.000739583l0 0.00253576c0,0.000322831 -7.77504e-005,0.000569343 -0.000233299,0.000739583 -0.000155549,0.00017024 -0.000383028,0.000255336 -0.000682343,0.000255336zm0 -0.00503627c-0.000322879,0 -0.000569391,-7.33621e-005 -0.000739631,-0.000220086 -0.000170192,-0.000146772 -0.000255336,-0.000358081 -0.000255336,-0.000633976 0,-0.000275847 8.51439e-005,-0.000487156 0.000255336,-0.000633928 0.00017024,-0.000146724 0.000416752,-0.000220086 0.000739631,-0.000220086 0.000322831,0 0.000569343,7.33621e-005 0.000739583,0.000220086 0.000170192,0.000146772 0.000255336,0.000358081 0.000255336,0.000633928 0,0.000275895 -8.51439e-005,0.000487204 -0.000255336,0.000633976 -0.00017024,0.000146724 -0.000416752,0.000220086 -0.000739583,0.000220086zm-0.00464008 0.00503627c-0.000252379,0 -0.0004593,-5.42822e-005 -0.000620715,-0.000162894 -0.000161416,-0.000108612 -0.000294975,-0.000280283 -0.000400629,-0.000515061l-0.00204264 -0.00443755c-0.000111522,-0.000246512 -0.000146772,-0.000465167 -0.000105655,-0.000655966 4.10694e-005,-0.000190751 0.000136469,-0.000340432 0.00028615,-0.000448997 0.000149681,-0.000108612 0.000336044,-0.000162894 0.000559088,-0.000162894 0.000281762,0 0.000494502,6.16279e-005 0.000638317,0.000184884 0.000143814,0.000123256 0.000265639,0.00030523 0.000365427,0.000545875l0.00135591 0.00313449 0.00135591 -0.00314326c9.97877e-005,-0.000240692 0.000221565,-0.000421188 0.000365379,-0.000541486 0.000143814,-0.000120346 0.000347778,-0.000180495 0.000611939,-0.000180495 0.000211309,0 0.000387369,5.42822e-005 0.000528274,0.000162894 0.000140857,0.000108564 0.000230389,0.000258246 0.000268549,0.000448997 3.8112e-005,0.000190799 1.43099e-006,0.000409454 -0.000110091,0.000655966l-0.00204264 0.00443755c-0.000105655,0.000234778 -0.000236256,0.000406449 -0.000391805,0.000515061 -0.000155549,0.000108612 -0.00036247,0.000162894 -0.000620763,0.000162894zm0.0232618 -0.0114356c-0.000187841,0 -0.00034339,5.28035e-005 -0.000466646,0.000158458 -0.000123256,0.000105655 -0.000205442,0.000275895 -0.000246512,0.000510672l0.00134709 0c-1.76012e-005,-0.000234778 -8.07078e-005,-0.000405018 -0.000189272,-0.000510672 -0.000108612,-0.000105655 -0.000256815,-0.000158458 -0.000444656,-0.000158458zm0.000237735 0.00338978c-0.000551742,0 -0.00102869,-9.39206e-005 -0.00143075,-0.000281762 -0.000402108,-0.000187841 -0.000710248,-0.000453433 -0.000924515,-0.000796823 -0.000214219,-0.000343342 -0.000321353,-0.000746929 -0.000321353,-0.00121062 0,-0.000446087 0.000101266,-0.000839371 0.000303751,-0.0011798 0.000202533,-0.00034048 0.000481337,-0.00060755 0.000836461,-0.000801259 0.000355124,-0.000193708 0.000758663,-0.000290539 0.00121062,-0.000290539 0.000452002,0 0.000843807,9.39206e-005 0.00117541,0.000281762 0.000331656,0.000187841 0.000588471,0.000453433 0.000770445,0.000796823 0.000181926,0.000343342 0.000272937,0.000746929 0.000272937,0.00121062 0,0.000234778 -0.00013208,0.000352166 -0.000396241,0.000352166l-0.00242128 0c5.28512e-005,0.000217224 0.000159985,0.000368337 0.0003214,0.000453481 0.000161416,8.50962e-005 0.000380071,0.000127644 0.000655918,0.000127644 0.000117437,0 0.000253905,-1.32128e-005 0.000409454,-3.96384e-005 0.000155549,-2.63779e-005 0.000303751,-6.01493e-005 0.000444608,-0.000101219 0.00017024,-5.28512e-005 0.000316964,-5.28512e-005 0.00044022,0 0.000123304,5.28035e-005 0.000217176,0.000133511 0.000281762,0.000242123 6.45853e-005,0.000108564 9.8309e-005,0.000230389 0.000101266,0.000365379 2.90968e-006,0.00013499 -3.0814e-005,0.000261203 -0.000101266,0.000378592 -7.04524e-005,0.000117389 -0.000181974,0.000205442 -0.000334565,0.000264161 -0.000381549,0.000152591 -0.000812945,0.000228911 -0.00129428,0.000228911zm-0.00419099 -1.76012e-005c-0.000293496,0 -0.000519497,-8.50962e-005 -0.000677955,-0.000255336 -0.000158506,-0.00017024 -0.000237735,-0.000416752 -0.000237735,-0.000739583l0 -0.00253576c0,-0.000322831 7.92291e-005,-0.000569343 0.000237735,-0.000739583 0.000158458,-0.00017024 0.000384459,-0.000255336 0.000677955,-0.000255336 0.000293448,0 0.000519449,8.50962e-005 0.000677955,0.000255336 0.000158458,0.00017024 0.000237687,0.000416752 0.000237687,0.000739583l0 0.00253576c0,0.000322831 -7.77504e-005,0.000569343 -0.000233299,0.000739583 -0.000155549,0.00017024 -0.000383028,0.000255336 -0.000682343,0.000255336zm0 -0.00503627c-0.000322879,0 -0.000569391,-7.33621e-005 -0.000739631,-0.000220086 -0.000170192,-0.000146772 -0.000255336,-0.000358081 -0.000255336,-0.000633976 0,-0.000275847 8.51439e-005,-0.000487156 0.000255336,-0.000633928 0.00017024,-0.000146724 0.000416752,-0.000220086 0.000739631,-0.000220086 0.000322831,0 0.000569343,7.33621e-005 0.000739583,0.000220086 0.000170192,0.000146772 0.000255336,0.000358081 0.000255336,0.000633928 0,0.000275895 -8.51439e-005,0.000487204 -0.000255336,0.000633976 -0.00017024,0.000146724 -0.000416752,0.000220086 -0.000739583,0.000220086zm-0.00532681 0.00503627c-0.000293496,0 -0.000519497,-7.92291e-005 -0.000677955,-0.000237735 -0.000158506,-0.000158458 -0.000237735,-0.000387417 -0.000237735,-0.00068678l0 -0.00453438c0,-0.000299363 7.92291e-005,-0.000528274 0.000237735,-0.000686732 0.000158458,-0.000158506 0.000384459,-0.000237735 0.000677955,-0.000237735 0.000293448,0 0.000519449,7.92291e-005 0.000677955,0.000237735 0.000158458,0.000158458 0.000237687,0.000387369 0.000237687,0.000686732l0 0.00271182 1.76489e-005 0 0.000871663 -0.00117098c0.000158458,-0.000211357 0.000312528,-0.000365427 0.00046221,-0.000462257 0.000149681,-9.6878e-005 0.000350735,-0.000145293 0.000603114,-0.000145293 0.000252427,0 0.000447566,6.16279e-005 0.000585513,0.000184884 0.000137947,0.000123304 0.000211309,0.000277373 0.000220134,0.000462257 8.77673e-006,0.000184884 -6.0197e-005,0.000371246 -0.000206921,0.000559088l-0.000730759 0.000950892 0.000862839 0.00122388c0.000140857,0.000193708 0.000196618,0.000378592 0.000167283,0.000554699 -2.93353e-005,0.000176059 -0.000118868,0.000318395 -0.000268549,0.000427007 -0.000149681,0.000108612 -0.000338954,0.000162894 -0.000567912,0.000162894 -0.000275847,0 -0.000495981,-4.84151e-005 -0.000660306,-0.000145293 -0.000164373,-9.68303e-005 -0.000322879,-0.000253858 -0.00047547,-0.000471034l-0.000862839 -0.00121505 -1.76489e-005 0 0 0.000906866c0,0.000616327 -0.00030523,0.000924515 -0.000915642,0.000924515zm-0.00350425 1.76012e-005c-0.000270028,0 -0.00053271,-1.61225e-005 -0.000788046,-4.84151e-005 -0.000255289,-3.22927e-005 -0.000491593,-8.65749e-005 -0.000708769,-0.000162894 -0.000176059,-5.87183e-005 -0.000302273,-0.000145293 -0.000378592,-0.000259725 -7.63194e-005,-0.000114479 -0.000114431,-0.000236256 -0.000114431,-0.000365427 0,-0.000129123 3.37236e-005,-0.00024799 0.000101219,-0.000356555 6.75427e-005,-0.000108612 0.000159985,-0.000187841 0.000277373,-0.000237735 0.000117389,-4.98938e-005 0.000252379,-5.13725e-005 0.000405018,-4.38837e-006 0.000246512,7.62717e-005 0.000466646,0.000132033 0.000660354,0.000167283 0.000193661,3.52023e-005 0.000375635,5.28035e-005 0.000545875,5.28035e-005 0.000181974,0 0.00030814,-2.19895e-005 0.000378592,-6.60163e-005 7.04524e-005,-4.40268e-005 0.000105655,-9.8309e-005 0.000105655,-0.000162894 0,-6.45853e-005 -2.34682e-005,-0.000111522 -7.04524e-005,-0.000140857 -4.69365e-005,-2.9383e-005 -0.000105655,-4.69842e-005 -0.000176059,-5.28512e-005l-0.00103017 -0.000158458c-0.000363901,-5.87183e-005 -0.00064862,-0.00019223 -0.000854062,-0.000400629 -0.000205442,-0.000208352 -0.00030814,-0.000482768 -0.00030814,-0.000823248 0,-0.000316964 9.09632e-005,-0.000589902 0.000272937,-0.000818812 0.000181974,-0.000228911 0.000432922,-0.000406496 0.000752796,-0.000532662 0.000319922,-0.000126213 0.000685301,-0.00018932 0.00109619,-0.00018932 0.000270028,0 0.000510672,1.61225e-005 0.000721982,4.84151e-005 0.000211309,3.22927e-005 0.000419661,8.95322e-005 0.000625104,0.000171719 0.000146772,5.86706e-005 0.000252427,0.000143767 0.000317012,0.000255336 6.45376e-005,0.000111522 9.24419e-005,0.00023182 8.36175e-005,0.000360991 -8.82443e-006,0.000129123 -4.69365e-005,0.000246512 -0.000114479,0.000352166 -6.7495e-005,0.000105655 -0.000161416,0.000180495 -0.000281714,0.000224522 -0.000120346,4.40268e-005 -0.000259772,3.96384e-005 -0.00041823,-1.32128e-005 -0.000199575,-6.45853e-005 -0.000369815,-0.000111522 -0.000510672,-0.000140857 -0.000140857,-2.9383e-005 -0.000270028,-4.40268e-005 -0.000387417,-4.40268e-005 -0.000217176,0 -0.000363901,2.19895e-005 -0.00044022,6.60163e-005 -7.63194e-005,4.40268e-005 -0.000114479,9.8309e-005 -0.000114479,0.000162894 0,9.39206e-005 7.63194e-005,0.000155549 0.000228958,0.000184884l0.00103012 0.000158506c0.000375682,5.86706e-005 0.000666221,0.000187841 0.000871663,0.000387369 0.000205442,0.000199575 0.00030814,0.00047256 0.00030814,0.00081886 0,0.000498938 -0.000190751,0.000884876 -0.0005723,0.00115781 -0.000381502,0.000272937 -0.000886307,0.000409406 -0.00151437,0.000409406zm-0.00493939 -0.00117103c0.00017024,0 0.000318443,-5.57609e-005 0.000444608,-0.000167283 0.000126213,-0.000111522 0.00018932,-0.000258246 0.00018932,-0.00044022l0 -0.000140905 -0.000352166 0c-0.000228958,0 -0.000407975,3.525e-005 -0.000537098,0.000105702 -0.000129123,7.04047e-005 -0.000193708,0.000164325 -0.000193708,0.000281714 0,0.000105655 3.6681e-005,0.00019223 0.000110043,0.000259725 7.34098e-005,6.75427e-005 0.000186363,0.000101266 0.000339001,0.000101266zm-0.000431443 0.00117103c-0.000346299,0 -0.000651529,-6.31066e-005 -0.00091569,-0.00018932 -0.000264113,-0.000126166 -0.000469555,-0.000299315 -0.000616327,-0.000519449 -0.000146724,-0.000220134 -0.000220086,-0.000471034 -0.000220086,-0.000752796 0,-0.000316964 8.21865e-005,-0.000566433 0.000246512,-0.000748407 0.000164373,-0.000181974 0.000428486,-0.000312576 0.000792434,-0.000391805 0.000363901,-7.92291e-005 0.000842328,-0.000118868 0.00143514,-0.000118868l0.00034339 0 0 -7.92291e-005c0,-0.00017024 -4.69365e-005,-0.00028615 -0.000140857,-0.000347778 -9.39206e-005,-6.16279e-005 -0.000261203,-9.24419e-005 -0.000501896,-9.24419e-005 -0.000129123,0 -0.000274416,1.32128e-005 -0.000435832,3.95907e-005 -0.000161416,2.64256e-005 -0.000353645,7.48407e-005 -0.000576689,0.000145293 -0.000181974,5.87183e-005 -0.000337523,6.31066e-005 -0.000466646,1.32128e-005 -0.000129123,-4.98938e-005 -0.000227432,-0.000130602 -0.000294975,-0.000242123 -6.7495e-005,-0.000111522 -9.974e-005,-0.000234778 -9.68303e-005,-0.000369815 2.95738e-006,-0.00013499 4.84151e-005,-0.000262682 0.000136469,-0.00038298 8.80535e-005,-0.000120346 0.000223044,-0.000212788 0.000405018,-0.000277373 0.000281762,-9.97877e-005 0.000540008,-0.000165804 0.000774833,-0.000198097 0.000234778,-3.22927e-005 0.000448997,-4.84151e-005 0.000642705,-4.84151e-005 0.000768966,0 0.00134127,0.000162894 0.0017169,0.000488635 0.000375682,0.000325789 0.000563524,0.00083794 0.000563524,0.00153645l0 0.0015936c0,0.000299363 -7.19311e-005,0.000528321 -0.000215746,0.00068678 -0.000143767,0.000158506 -0.000353645,0.000237735 -0.000629492,0.000237735 -0.000493071,0 -0.000771876,-0.000237735 -0.000836461,-0.000713205 -6.45853e-005,0.000223091 -0.000193708,0.000400629 -0.000387417,0.00053271 -0.000193708,0.00013208 -0.000434353,0.000198097 -0.000721982,0.000198097zm-0.00699964 -1.76012e-005c-0.00030523,0 -0.000540055,-8.36652e-005 -0.000704381,-0.000250948 -0.000164373,-0.000167283 -0.000246559,-0.000403539 -0.000246559,-0.000708769l0 -0.00446397c0,-0.000311097 8.21865e-005,-0.000548784 0.000246559,-0.000713157 0.000164325,-0.000164325 0.000399151,-0.000246512 0.000704381,-0.000246512 0.000305182,0 0.000538529,8.21865e-005 0.000699945,0.000246512 0.000161416,0.000164373 0.000242123,0.00040206 0.000242123,0.000713157l0 0.00174333 1.76012e-005 0 0.00192821 -0.00226278c0.000117437,-0.00013499 0.000248038,-0.000240645 0.000391805,-0.000316964 0.000143814,-7.63194e-005 0.000309666,-0.000114479 0.00049746,-0.000114479 0.000281762,0 0.000487204,7.34098e-005 0.000616327,0.000220134 0.000129171,0.000146724 0.000190799,0.000318443 0.000184932,0.000515061 -5.86706e-006,0.000196666 -8.21865e-005,0.000374204 -0.000228911,0.00053271l-0.00155844 0.00174328 0.0016641 0.00202509c0.000164325,0.000199575 0.000246512,0.000403539 0.000246512,0.000611939 0,0.000208352 -7.19311e-005,0.000381502 -0.000215698,0.000519449 -0.000143814,0.000137947 -0.000350735,0.000206921 -0.000620763,0.000206921 -0.000234778,0 -0.000422619,-4.69842e-005 -0.000563476,-0.000140905 -0.000140857,-9.38729e-005 -0.000287629,-0.00023182 -0.00044022,-0.000413794l-0.00190183 -0.00229803 -1.76012e-005 0 0 0.00189301c0,0.00030523 -7.92291e-005,0.000541486 -0.000237735,0.000708769 -0.000158458,0.000167283 -0.000393236,0.000250948 -0.000704333,0.000250948zm-0.0416101 -0.0203396c-0.00125607,-0.00114002 -0.00263626,-0.00211123 -0.000373536,-0.00246679 0.000458871,-7.20742e-005 0.00115834,-5.972e-005 0.00162002,-6.62548e-005 -0.00035417,0.00149868 -0.000393808,0.0014287 -0.00124649,0.00253304zm0.00443359 -0.00341467c0.00243464,-0.00444198 -0.000655584,-0.00263087 0.00472007,-0.00578353 0.00131847,-0.000773307 0.0025661,-0.00120818 0.00357461,-0.00188838 0.0014732,-0.000993441 0.000363519,-0.000180925 0.00132023,-0.00137218l0.000927472 -0.00104267c4.07355e-005,-0.000159842 0.000174915,-0.00017272 0.000276658,-0.000243888 0.00129538,0.00398497 0.00314584,0.00725473 0.00536969,0.0103578l-0.0161887 -2.71888e-005zm0.0308452 8.30928e-005c0.000970592,-0.00528021 0.00282172,-0.00950449 0.00749266,-0.0105784 0.00258399,0.011099 0.0133318,0.0101315 -0.00749266,0.0105784zm0.0164159 -6.20095e-007c-0.00188948,-0.000675999 -0.00153173,-0.00109752 -0.00237554,-0.00310496 -0.00155181,-0.00369076 -0.00435999,-0.00796317 -0.00468716,-0.0101441l0.00124797 -0.00111851c0.0014784,0.00217153 0.00535505,0.0115017 0.00581473,0.0143676zm-0.0144157 -0.0201003c-0.00107286,0.000913687 -0.000630732,0.000737723 -0.00207355,0.000578501l-0.000320494 -0.00239104c0.000660306,0.00041203 0.000338095,0.000202342 0.000925707,0.000648143l0.00146834 0.0011644zm-0.0104295 0.0485286l0 0.0223645c0.00409144,6.44422e-005 0.00744768,0.000184121 0.00962407,0.00059739 0.00141639,0.000268931 0.00289523,0.000561759 0.000593717,0.000853537 -0.00493524,0.000625772 -0.0168294,0.00105454 -0.022519,0.000249088 -0.00359727,-0.000509098 -0.00251954,-0.00124692 0.000383744,-0.00159708 0.00258599,-0.000311908 0.00589902,-4.41222e-005 0.00836246,-0.000146963l0 -0.0223757 -0.0244355 -0.0246857c-0.00164984,-0.00209101 -0.00092294,-0.000609029 -0.00281013,-0.00104042 -0.00293501,-0.000670848 -0.00235803,-0.0027112 -0.00152515,-0.00460359 0.00450743,-0.000804598 0.00192487,0.000391471 0.00499883,-0.00191776 0.00343313,-0.00257893 0.00915604,-0.00645763 0.0117765,-0.00973798 -0.00244217,-0.000596293 -0.00628839,-0.0012462 -0.00747644,-0.00197419 -0.00370183,0.000183978 -0.000246082,0.00072389 -0.00336368,0.00136235 -0.000836604,0.000171289 -0.00157838,0.000342913 -0.00223902,0.000511102 -0.00288712,0.000735385 -0.00480335,0.00236557 -0.0051911,0.00222328l-0.000756659 -0.00027766 0.00237344 -0.00104195c0.00116721,-0.000512294 0.00219399,-0.000749123 0.00264719,-0.00223492 -0.00197238,-0.000537003 -0.00452245,-0.00032908 -0.00689975,-0.000237926 -0.00118171,-0.00259395 -0.00202423,-0.00371409 0.000911731,-0.0049485 0.00131169,0.000457392 0.00197934,0.00138358 0.00399723,0.00138992 0.00184998,5.77166e-006 0.00284309,-0.000446373 0.00507553,-0.000243364 0.00597376,0.000542917 0.0070647,0.000806506 0.0133773,0.000804121 0.00595454,-2.57578e-006 0.00564034,-0.00214434 0.00885425,0.0021493 0.000765627,0.00102273 0.00438231,0.00527172 0.00579107,0.00599513 0.00150325,-0.00133039 0.00240836,-0.00225681 0.00226201,-0.00423902 -8.5287e-005,-0.00115514 5.17064e-005,-0.00191657 0.00045329,-0.00247618 0.000427627,-0.000595912 0.00115509,-0.000963199 0.00223315,-0.00133373 -0.00238608,-0.0171635 0.00709179,-0.0144649 0.00941882,-0.011512 0.00924085,0.0117253 0.00472236,0.00869898 0.00796355,0.0184748 0.000704524,0.00212473 0.00175387,0.00388867 0.00242376,0.00637334 0.000771112,0.00286007 0.00215703,0.00589091 0.00125164,0.00692341l-0.000997161 0.000752462c-0.00509489,0.00453461 -0.0209393,0.0198578 -0.0265596,0.0256009zm-0.00283207 -0.00155148l0.00229411 0c0.00539707,-0.00449975 0.022046,-0.0219071 0.0243883,-0.0233631 -0.00010265,-7.33621e-005 -0.00026044,-0.000149348 -0.000324214,-0.000199575 -0.00113912,-0.000895609 -0.000652102,-0.000239548 -0.000983519,-0.00113869l-0.000163085 -0.00109972c-2.37067e-005,0.000274559 -0.0127858,8.7815e-005 -0.0142417,0.00064509 -0.00199828,0.00237249 -0.00397481,0.00419599 -0.00657296,0.00433575 -0.0037956,0.000204154 -0.00568212,-0.00214949 -0.00726404,-0.00504161 -0.000110138,-3.0337e-005 -8.26158e-005,0.000275656 -0.000262014,0.000275465l-0.0181703 -1.87937e-005 -0.00225867 0.00207074c0.00468248,0.00488926 0.0182782,0.0187364 0.023558,0.0235344zm0.00107577 -0.000857592c0.00108884,-0.000443702 0.0011383,-0.000424098 0.00231954,-0.00163848 0.00261485,-0.00268826 0.015136,-0.0143897 0.0160064,-0.0157798 -0.00518271,-4.27866e-005 -0.032642,-0.000585084 -0.0361193,0.000242744 0.00204226,0.00132772 0.0161239,0.0163237 0.0177934,0.0171755z"/>
 </g>
</svg>
