<?xml version="1.0" encoding="UTF-8"?>
<!DOCTYPE svg PUBLIC "-//W3C//DTD SVG 1.1//EN" "http://www.w3.org/Graphics/SVG/1.1/DTD/svg11.dtd">
<!-- Creator: CorelDRAW -->
<svg xmlns="http://www.w3.org/2000/svg" xml:space="preserve" width="1in" height="2in" style="shape-rendering:geometricPrecision; text-rendering:geometricPrecision; image-rendering:optimizeQuality; fill-rule:evenodd; clip-rule:evenodd"
viewBox="0 0 0.13629 0.176747"
 xmlns:xlink="http://www.w3.org/1999/xlink">
 <defs>
  <style type="text/css">
   <![CDATA[
    .fil0 {fill:#040404}
   ]]>
  </style>
 </defs>
 <g id="Layer_x0020_1">
  <metadata id="CorelCorpID_0Corel-Layer"/>
  <path class="fil0" d="M0.0745844 0.120659c0.00226918,-0.000924691 0.00237237,-0.000883834 0.004834,-0.00341466 0.00544953,-0.00560242 0.0315439,-0.0299886 0.0333582,-0.0328857 -0.0108012,-8.91687e-005 -0.0680273,-0.00121934 -0.075274,0.000505886 0.00425604,0.00276701 0.0336027,0.0340191 0.0370819,0.0357944zm-0.00224194 0.00178725l0.00478101 0c0.0112476,-0.00937763 0.0459447,-0.0456552 0.050826,-0.0486895 -0.000213727,-0.000152889 -0.000542766,-0.000311246 -0.000675575,-0.000415922 -0.00237376,-0.00186648 -0.001359,-0.000499226 -0.00204959,-0.00237306l-0.000340074 -0.00229185c-4.92068e-005,0.000572191 -0.0266459,0.00018301 -0.0296801,0.00134439 -0.00416439,0.00494434 -0.00828355,0.0087446 -0.0136982,0.00903586 -0.00791027,0.000425465 -0.0118417,-0.00447961 -0.0151386,-0.0105069 -0.000229433,-6.32233e-005 -0.000172075,0.000574477 -0.000545947,0.00057408l-0.0378676 -3.91666e-005 -0.00470715 0.00431549c0.00975836,0.0101894 0.0380923,0.0390473 0.0490958,0.0490466zm0.00590204 0.00323334l0 0.0466084c0.00532577,8.39001e-005 0.0180985,0.000243947 0.0209017,0.00102052 0.00744246,0.00206142 -0.0053199,-0.00230367 0.00171319,0.000639391l0.00158148 0.000906996c-0.00877005,0.00180952 -0.0482863,0.00333026 -0.0552992,-0.000420892 0.00475527,-0.00327926 0.0161408,-0.00192235 0.0236943,-0.00223777l0 -0.0466318 -0.0509246 -0.0514459c-0.00343812,-0.00435774 -0.00192324,-0.00126924 -0.00585631,-0.00216828 -0.00611656,-0.00139807 -0.00491392,-0.00565024 -0.00317836,-0.00959404 0.00939353,-0.00167681 0.0040113,0.000815839 0.0104177,-0.00399669 0.00715477,-0.00537458 0.0190813,-0.0134579 0.0245425,-0.0202943 -0.00508968,-0.0012427 -0.0131051,-0.00259713 -0.0155812,-0.00411429 -0.00771484,0.000383416 -0.000512745,0.00150861 -0.00700993,0.00283918 -0.00174371,0.000356973 -0.0032895,0.000714642 -0.0046663,0.00106515 -0.00601685,0.00153257 -0.0100104,0.00492993 -0.0108185,0.00463339l-0.00157681 -0.000578652 0.00494643 -0.00217146c0.00243261,-0.00106764 0.00457216,-0.0015612 0.00551673,-0.00465765 -0.00411061,-0.00111913 -0.00942495,-0.000685814 -0.0143794,-0.000495846 -0.00246263,-0.00540589 -0.00421857,-0.00774028 0.00190018,-0.0103129 0.00273371,0.000953221 0.00412482,0.00288342 0.00833037,0.00289664 0.00385543,1.20283e-005 0.0059252,-0.000930258 0.0105775,-0.000507178 0.0124496,0.00113146 0.0147232,0.00168079 0.0278789,0.00167582 0.0124094,-5.36802e-006 0.0117546,-0.00446887 0.0184525,0.00447921 0.00159549,0.0021314 0.00913279,0.0109864 0.0120688,0.0124941 0.00313274,-0.00277258 0.0050191,-0.00470328 0.00471411,-0.00883427 -0.000177642,-0.00240736 0.000107857,-0.0039942 0.000944771,-0.00516045 0.000891091,-0.0012419 0.00240716,-0.00200734 0.00465397,-0.00277954 -0.00497277,-0.0357694 0.0147794,-0.0301453 0.0196291,-0.0239914 0.0192583,0.024436 0.00984156,0.018129 0.0165962,0.0385022 0.00146805,0.00442802 0.00365522,0.00810412 0.0050512,0.0132823 0.00160703,0.00596049 0.00449542,0.0122769 0.00260836,0.0144286l-0.00207772 0.00156816c-0.0106181,0.0094503 -0.0436384,0.0413843 -0.0553515,0.0533531zm0.0217354 -0.101135c-0.00223588,0.00190416 -0.00131447,0.00153744 -0.00432115,0.00120562l-0.00066802 -0.00498301c0.0013761,0.000858684 0.000704602,0.000421688 0.00192921,0.00135075l0.00305997 0.00242664zm0.030043 0.0418897c-0.00393784,-0.00140881 -0.00319208,-0.00228727 -0.0049508,-0.00647085 -0.00323383,-0.00769167 -0.00908636,-0.0165955 -0.0097681,-0.0211407l0.0026008 -0.00233101c0.00308114,0.00452554 0.0111602,0.02397 0.0121181,0.0299426zm-0.0342115 1.2923e-006c0.00202285,-0.0110041 0.00588056,-0.0198077 0.0156152,-0.0220459 0.00538512,0.0231308 0.0277838,0.0211145 -0.0156152,0.0220459zm-0.0642823 -0.000173168c0.00507367,-0.00925725 -0.00136646,-0.00548283 0.00983669,-0.0120531 0.00274773,-0.0016116 0.00534794,-0.0025179 0.00744971,-0.00393545 0.00307011,-0.00207036 0.000757586,-0.000377054 0.00275131,-0.00285966l0.00193298 -0.00217295c8.5093e-005,-0.000333115 0.000364429,-0.000359955 0.000576465,-0.000508272 0.00269952,0.00830482 0.00655604,0.0151191 0.0111906,0.0215861l-0.0337378 -5.66624e-005zm-0.00923975 0.0071163c-0.002618,-0.00237584 -0.00549407,-0.00439989 -0.000778561,-0.00514087 0.000956302,-0.000150205 0.00241412,-0.000124458 0.00337609,-0.000138077 -0.000738003,0.00312329 -0.000820611,0.00297746 -0.00259752,0.00527895z"/>
 </g>
</svg>
