<?xml version="1.0" encoding="UTF-8"?>
<!DOCTYPE svg PUBLIC "-//W3C//DTD SVG 1.1//EN" "http://www.w3.org/Graphics/SVG/1.1/DTD/svg11.dtd">
<!-- Creator: CorelDRAW -->
<svg xmlns="http://www.w3.org/2000/svg" xml:space="preserve" width="25in" height="39in" style="shape-rendering:geometricPrecision; text-rendering:geometricPrecision; image-rendering:optimizeQuality; fill-rule:evenodd; clip-rule:evenodd"
viewBox="0 0 0.321735 0.197991"
 xmlns:xlink="http://www.w3.org/1999/xlink">
 <defs>
  <style type="text/css">
   <![CDATA[
    .fil0 {fill:#141516}
    .fil1 {fill:#141516;fill-rule:nonzero}
   ]]>
  </style>
 </defs>
 <g id="Layer_x0020_1">
  <metadata id="CorelCorpID_0Corel-Layer"/>
  <g id="_145267344">
   <path id="_145269048" class="fil0" d="M0.0596187 0.00273759l0 0.102189c0,0.0021025 0.000715279,0.00273709 0.00308377,0.00273709l0.0154183 0 0 -0.107663 -0.0154183 0c-0.00236849,0 -0.00308377,0.000635084 -0.00308377,0.00273709z"/>
   <path id="_145269288" class="fil0" d="M0.283702 0.107663l0.0123346 0c0.00236849,0 0.00308377,-0.000634586 0.00308377,-0.00273709l0 -0.104926 -0.0154183 0 0 0.107663z"/>
   <path id="_145268808" class="fil0" d="M0.046256 0.104926c0,0.00149332 0.00061516,0.00273709 0.00205568,0.00273709 0.00236849,0 0.00308377,-0.000634586 0.00308377,-0.00273709l0 -0.104926 -0.00513945 0 0 0.104926z"/>
   <path id="_145269144" class="fil0" d="M0.230251 0.107663l0.011307 0c0.00236849,0 0.00308327,-0.000634586 0.00308327,-0.00273709l0 -0.102189c0,-0.002102 -0.000714781,-0.00273709 -0.00308327,-0.00273709l-0.011307 0 0 0.107663z"/>
   <path id="_145269672" class="fil0" d="M0.0904559 0.107663l0.00513945 0 0 -0.104926c0,-0.00303446 -0.00184548,-0.00267184 -0.00513945,-0.00273709l0 0.107663z"/>
   <path id="_145270104" class="fil0" d="M0.116154 0.107663c0.00236849,0 0.00308377,-0.000634586 0.00308377,-0.00273709l0 -0.104926 -0.0133632 0 0 0.107663 0.0102794 0z"/>
   <polygon id="_145269744" class="fil0" points="0.125404,0.107663 0.150075,0.107663 0.148792,0.0282889 0.149047,4.98105e-007 0.125404,4.98105e-007 "/>
   <polygon id="_145269552" class="fil0" points="0.159325,0.107663 0.172688,0.107663 0.172688,4.98105e-007 0.159325,4.98105e-007 "/>
   <path id="_145269912" class="fil0" d="M0.218944 0.107663c0.00329347,-7.02328e-005 0.00513945,0.000301354 0.00513945,-0.00273709l0 -0.102189c0,-0.00303446 -0.00184548,-0.00267184 -0.00513945,-0.00273709l0 0.107663z"/>
   <path id="_145270008" class="fil0" d="M0.0246697 0.107663l0.00822372 0 0 -0.107663 -0.00513995 0c-0.00236849,0 -0.00308377,0.000635084 -0.00308377,0.00273709l0 0.104926z"/>
   <path id="_145270080" class="fil0" d="M0.181939 0.104926c0,0.0021025 0.000715279,0.00273709 0.00308377,0.00273709l0.011307 0 0 -0.107663 -0.011307 0c-0.00236849,0 -0.00308377,0.000635084 -0.00308377,0.00273709l0 0.102189z"/>
   <polygon id="_145269456" class="fil0" points="0.20147,0.107663 0.213805,0.107663 0.213805,4.98105e-007 0.20147,4.98105e-007 "/>
   <path id="_145270872" class="fil0" d="M0.2652 0.104926c0,0.0021025 0.000715279,0.00273709 0.00308377,0.00273709l0.00411186 0c0.00236849,0 0.00308327,-0.000634586 0.00308327,-0.00273709l0 -0.104926 -0.00719513 0c-0.00236849,0 -0.00308377,0.000635084 -0.00308377,0.00273709l0 0.102189z"/>
   <path id="_145270848" class="fil0" d="M0 0.137773c0,0.002102 0.000715279,0.00273709 0.00308377,0.00273709l0.011307 0c0.00236849,0 0.00308377,-0.000635084 0.00308377,-0.00273709l0 -0.137772 -0.0174745 0 0 0.137772z"/>
   <path id="_145270320" class="fil0" d="M0.318651 0.14051c0.00236849,0 0.00308377,-0.000635084 0.00308377,-0.00273709l0 -0.137772 -0.0154188 0 0 0.140509 0.0123351 0z"/>
   <path id="_145270608" class="fil0" d="M0.246067 0.146314l-0.00447896 -0.00220412 -0.0140869 0.00825958 0.000752637 0.000714781 0.0041004 0.000951879c0.001972,-0.000788501 0.00298365,-0.00166467 0.00612022,-0.00166467l0.0133627 0 0 0.00364962 -0.0267258 0 0 0.00273709 0.0267258 0 0 0.00273709 -0.0174745 0c-0.00236849,0 -0.00308377,0.000635084 -0.00308377,0.00273709l0 0.00729923 0.00719563 0 0 -0.00729923 0.0133627 0 0 0.00729923 0.00719513 0 0 -0.00729923 0.011307 0 0 0.00547467 -0.00411136 0 0 0.00182456 0.0102789 0 0 -0.0100363 -0.0174745 0 0 -0.00273709 0.0236421 0 0 -0.00273709 -0.0236421 0 0 -0.00364962 0.0143908 0c0.00293633,0 0.00187985,-0.000287407 0.00308377,-0.00182506 -0.00118051,-0.00143006 -0.000188782,-0.00182456 -0.00308377,-0.00182456l-0.0143908 0 0 -0.00456215 -0.00719513 0 0 0.00456215 -0.00826655 -3.58636e-005 0.0024965 -0.00237198z"/>
   <polygon id="_145270176" class="fil0" points="0.288842,0.166969 0.296037,0.166969 0.296037,0.147809 0.288842,0.147809 "/>
   <path id="_145270416" class="fil0" d="M0.301176 0.171531l0.0133627 0 0 -0.0273719 -0.00616704 0 0 0.0218977c0,0.002102 -0.000715279,0.00273709 -0.00308377,0.00273709l-0.00411186 0 0 0.00273709z"/>
   <path id="_145270656" class="fil0" d="M0.224112 0.188976l-2.88901e-005 0.002628c0.0104866,0 0.0222125,-0.00456165 0.0277534,-0.00456165 0.00144052,0 0.00205568,0.00124377 0.00205568,0.00273709 0,0.0026295 -0.0101957,0.00341551 -0.0133627,0.00364962 0.000213687,0.00227634 3.98484e-006,0.0040486 0.00308377,0.00364962l0.0403077 -0.00505178 -0.000238094 -0.00160838 -0.0225931 0.00121787 -1.99242e-006 -0.00733161c0.00390714,-0.000807927 0.00984605,-0.00456165 0.0123346,-0.00456165 0.000552399,0 0.00336769,0.00288154 0.00490883,0.00385434 0.00201932,0.00127465 0.00346582,0.00198296 0.00570032,0.00315151 0.00463636,0.00242478 0.00703474,0.00349969 0.012629,0.00521367 0.0058084,0.00177923 0.0248574,0.00916962 0.0250736,0.000553893l-0.0237028 -0.0033657 -0.000513546 -0.00152072 0.0105967 -0.00387825c-0.000365111,-0.00151374 -0.000731717,-0.00309672 -0.00385484,-0.00309672 -0.000212193,0 -0.0113513,0.00393354 -0.0143908,0.00456215l-0.00789098 -0.00463387 0.000695853 -0.000840303 0.0390604 0 0 -0.00364962 -0.0421442 0 0 -0.00364962 -0.00411186 0c-0.00310768,0 -0.00284219,0.00107391 -0.00308327,0.00364962l-0.0472841 0c0.000843292,0.00583381 0.00856392,0.00364962 0.0164469,0.00364962 0.00685243,-4.98105e-007 0.0137054,0 0.0205578,0l0.000315301 0.001182 -0.0383187 0.00805087z"/>
   <path id="_145270728" class="fil0" d="M0.146991 0.158758c-0.00278939,0.00927073 -0.0307186,0.0245511 -0.0442004,0.0255468 0.000695355,0.00231121 0.00198595,0.00456215 0.00513945,0.00456215 0.0030225,0 0.0207531,-0.00806881 0.0239768,-0.00973945 0.0056251,-0.00291491 0.0168549,-0.0125159 0.0191955,-0.0130703 0.00134339,0.00240485 0.00102809,-0.000751641 0.00102809,0.00273709l0 0.00912379c0,0.0021025 -0.000715279,0.00273709 -0.00308377,0.00273709l-0.0154188 0 0 0.00364962 0.0174745 0 0 0.0127739 0.00822322 0 0 -0.0127739 0.0185021 0 0 -0.00364962 -0.0195302 0 0 -0.0100363c0,-0.00246413 0.000491132,-0.00251543 0.00102809,-0.00456165 0.00803842,0.00190475 0.028137,0.0209852 0.0441999,0.0209852 0.00141063,0 0.00245516,-0.00190376 0.00308377,-0.00273759 -0.0037851,-0.00458556 -0.0401099,-0.015369 -0.0431718,-0.0255468 0.00788052,0 0.015761,0 0.0236416,0 0.0089111,0 0.0172947,0.00259762 0.0174745,-0.00456215l-0.045228 0 0 -0.0100363 -0.00513945 0c-0.00236849,0 -0.00308377,0.000635084 -0.00308377,0.00273709l0 0.00729923 -0.0411161 0c-0.00236849,0 -0.00308377,0.000635084 -0.00308377,0.00273709 0,0.00328998 0.0343518,0.00182506 0.0400885,0.00182506z"/>
   <path id="_145271568" class="fil0" d="M0.011307 0.171531l0.057563 0 0 0.0200726 -0.057563 0 0 -0.0200726zm-0.00102759 -0.0209852c0,-0.002102 0.000715279,-0.00273709 0.00308377,-0.00273709l0.0524231 0c0.00236849,0 0.00308377,0.000635084 0.00308377,0.00273709l0 0.0173356 -0.0585906 0 0 -0.0173356zm-0.0102794 0.0447074c0,0.0021025 0.000715279,0.00273759 0.00308377,0.00273759l0.0740095 0c0.00236799,0 0.00308377,-0.000635084 0.00308377,-0.00273759l0 -0.0510941 -0.080177 0 0 0.0510941z"/>
   <path id="_145271400" class="fil1" d="M0.0286381 0.114866l0.00385982 0 0.00514642 0.00605248 0.00514592 -0.00605248 0.00386032 0c0,0 0,0.00706463 0,0.0211844l-0.00514642 0 0 -0.0136187 -0.00385982 0.00453973 -0.00385982 -0.00453973 0 0.0136187 -0.00514642 0c0,0 0,-0.00705964 0,-0.0211844z"/>
   <path id="_1452714001" class="fil1" d="M0.0569434 0.114866c0,0 0.000856243,0 0.00257321,0 0.000614662,0 0.00137876,0.000335723 0.0022878,0.00100169 0.000909042,0.000666465 0.0017608,0.00146144 0.00254681,0.0023914 0.000789995,0.000924483 0.00146642,0.00192617 0.00203327,0.00299511 0.000566346,0.00106893 0.00085176,0.00196752 0.00085176,0.00269076l0 0.0121055 -0.00514642 0 0 -0.00605248 -0.00771963 0 0 0.00605248 -0.00514642 0 0 -0.0121055c0,-0.000723249 0.000280931,-0.00162183 0.000847277,-0.00269076 0.000566346,-0.00106893 0.00124726,-0.00207062 0.00203327,-0.00299511 0.000790493,-0.000929962 0.00163827,-0.00172494 0.00254681,-0.0023914 0.000909042,-0.000665967 0.00167314,-0.00100169 0.00229228,-0.00100169zm0.0041273 0.00482863c-0.000675929,-0.00119794 -0.00162432,-0.00180214 -0.00284069,-0.00180214 -0.00122086,0 -0.00216526,0.000604202 -0.00284567,0.00180214 -0.000675929,0.00119794 -0.00101414,0.00261854 -0.00101414,0.00425033l0 0.00302649 0.00771963 0 0 -0.00302649c0,-0.00163179 -0.000338213,-0.00305239 -0.00101912,-0.00425033z"/>
   <path id="_14527140012" class="fil1" d="M0.0698094 0.114866c0,0 0.00342945,0 0.0102928,0 0.000614662,0 0.00137876,0.000335723 0.0022878,0.00100169 0.000909042,0.000666465 0.0017608,0.00146144 0.00254681,0.0023914 0.000789995,0.000924483 0.00146642,0.00192617 0.00203327,0.00299511 0.000566346,0.00106893 0.00085176,0.00196752 0.00085176,0.00269076l0 0.00302649c0,0.00072823 -0.000285414,0.00162681 -0.00085176,0.00269575 -0.000566844,0.00106893 -0.00124327,0.00206564 -0.00203327,0.00299511 -0.00078601,0.000924483 -0.00163777,0.00172494 -0.00254681,0.0023914 -0.000909042,0.000665967 -0.00167314,0.000996708 -0.0022878,0.000996708l-0.0102928 0 0 -0.0211844zm0.00514642 0.00302649l0 0.0151314 0.00257321 0c0.00128661,0 0.00246363,-0.000630103 0.00353455,-0.00188981 0.00107641,-0.00126021 0.00161187,-0.00264942 0.00161187,-0.00416267l0 -0.00302649c0,-0.00151324 -0.000535463,-0.00289748 -0.00161187,-0.00415719 -0.00107093,-0.00126569 -0.00224795,-0.00189529 -0.00353455,-0.00189529l-0.00257321 0z"/>
   <polygon id="_145271400123" class="fil1" points="0.0903951,0.114866 0.0955416,0.114866 0.108408,0.114866 0.108408,0.117893 0.0955416,0.117893 0.0955416,0.123945 0.105834,0.123945 0.105834,0.126971 0.0955416,0.126971 0.0955416,0.133024 0.108408,0.133024 0.108408,0.13605 0.0955416,0.13605 0.0903951,0.13605 "/>
   <polygon id="_1452714001234" class="fil1" points="0.121273,0.114866 0.131566,0.114866 0.131566,0.117893 0.128993,0.117893 0.128993,0.133024 0.131566,0.133024 0.131566,0.13605 0.121273,0.13605 0.121273,0.133024 0.123846,0.133024 0.123846,0.117893 0.121273,0.117893 "/>
   <polygon id="_14527140012345" class="fil1" points="0.134139,0.114866 0.139286,0.114866 0.147005,0.123945 0.147005,0.114866 0.152152,0.114866 0.152152,0.13605 0.147005,0.13605 0.147005,0.129998 0.139286,0.120919 0.139286,0.13605 0.134139,0.13605 "/>
   <polygon id="_145271400123456" class="fil1" points="0.165018,0.114866 0.170164,0.114866 0.170164,0.123945 0.177884,0.114866 0.18303,0.114866 0.174024,0.125458 0.18303,0.13605 0.177884,0.13605 0.170164,0.126971 0.170164,0.13605 0.165018,0.13605 "/>
   <path id="_1452714001234567" class="fil1" d="M0.193323 0.114866c0,0 0.000856243,0 0.00257321,0 0.000614662,0 0.00137876,0.000335723 0.0022878,0.00100169 0.000909042,0.000666465 0.0017608,0.00146144 0.00254681,0.0023914 0.000789995,0.000924483 0.00146642,0.00192617 0.00203327,0.00299511 0.000566346,0.00106893 0.00085176,0.00196752 0.00085176,0.00269076l0 0.0121055 -0.00514642 0 0 -0.00605248 -0.00771963 0 0 0.00605248 -0.00514642 0 0 -0.0121055c0,-0.000723249 0.000280931,-0.00162183 0.000847277,-0.00269076 0.000566346,-0.00106893 0.00124726,-0.00207062 0.00203327,-0.00299511 0.000790493,-0.000929962 0.00163827,-0.00172494 0.00254681,-0.0023914 0.000909042,-0.000665967 0.00167314,-0.00100169 0.00229228,-0.00100169zm0.0041273 0.00482863c-0.000675929,-0.00119794 -0.00162432,-0.00180214 -0.00284069,-0.00180214 -0.00122086,0 -0.00216526,0.000604202 -0.00284567,0.00180214 -0.000675929,0.00119794 -0.00101414,0.00261854 -0.00101414,0.00425033l0 0.00302649 0.00771963 0 0 -0.00302649c0,-0.00163179 -0.000338213,-0.00305239 -0.00101912,-0.00425033z"/>
   <polygon id="_14527140012345678" class="fil1" points="0.206189,0.114866 0.211336,0.114866 0.219055,0.123945 0.219055,0.114866 0.224202,0.114866 0.224202,0.13605 0.219055,0.13605 0.219055,0.129998 0.211336,0.120919 0.211336,0.13605 0.206189,0.13605 "/>
   <path id="_145271400123456789" class="fil1" d="M0.234494 0.114866c0,0 0.000856243,0 0.00257321,0 0.000614662,0 0.00137876,0.000335723 0.0022878,0.00100169 0.000909042,0.000666465 0.0017608,0.00146144 0.00254681,0.0023914 0.000789995,0.000924483 0.00146642,0.00192617 0.00203327,0.00299511 0.000566346,0.00106893 0.00085176,0.00196752 0.00085176,0.00269076l0 0.0121055 -0.00514642 0 0 -0.00605248 -0.00771963 0 0 0.00605248 -0.00514642 0 0 -0.0121055c0,-0.000723249 0.000280931,-0.00162183 0.000847277,-0.00269076 0.000566346,-0.00106893 0.00124726,-0.00207062 0.00203327,-0.00299511 0.000790493,-0.000929962 0.00163827,-0.00172494 0.00254681,-0.0023914 0.000909042,-0.000665967 0.00167314,-0.00100169 0.00229228,-0.00100169zm0.0041273 0.00482863c-0.000675929,-0.00119794 -0.00162432,-0.00180214 -0.00284069,-0.00180214 -0.00122086,0 -0.00216526,0.000604202 -0.00284567,0.00180214 -0.000675929,0.00119794 -0.00101414,0.00261854 -0.00101414,0.00425033l0 0.00302649 0.00771963 0 0 -0.00302649c0,-0.00163179 -0.000338213,-0.00305239 -0.00101912,-0.00425033z"/>
   <polygon id="_14527140012345678910" class="fil1" points="0.247361,0.114866 0.257653,0.114866 0.257653,0.117893 0.25508,0.117893 0.25508,0.133024 0.257653,0.133024 0.257653,0.13605 0.247361,0.13605 0.247361,0.133024 0.249934,0.133024 0.249934,0.117893 0.247361,0.117893 "/>
   <path id="_1452714001234567891011" class="fil1" d="M0.260227 0.114866c0,0 0.00429018,0 0.0128661,0 0.00128611,0 0.00246313,0.000635084 0.00353505,0.00189529 0.00107142,0.00126021 0.00161137,0.00264394 0.00161137,0.00415719 0,0.0017354 -0.00065451,0.00324864 -0.00195855,0.00453973 0.00130404,0.00129109 0.00195855,0.00280433 0.00195855,0.00453973l0 0.00605248 -0.00514642 0 0 -0.00605248c0,-8.26855e-005 -4.48295e-006,-0.000191272 -1.34488e-005,-0.000330742 -8.46779e-006,-0.000144451 -4.83162e-005,-0.000387526 -0.000118051,-0.00072823 -6.6248e-005,-0.000340704 -0.00016288,-0.000645544 -0.000281429,-0.000909042 -0.000118549,-0.000263498 -0.000311814,-0.000500596 -0.000579794,-0.000722751 -0.000263498,-0.000222155 -0.000579296,-0.000335723 -0.000939426,-0.000335723l-0.00578748 0 0 0.00907896 -0.00514642 0 0 -0.0211844zm0.00514642 0.00302649l0 0.00605248 0.00578748 0c0.000566346,0 0.00101464,-0.000253037 0.0013394,-0.000754131 0.000324765,-0.000506075 0.000504581,-0.00101215 0.000539946,-0.00151324l5.27991e-005 -0.000759112c0,-7.72063e-005 -4.48295e-006,-0.000190774 -1.34488e-005,-0.000330244 -8.46779e-006,-0.000139469 -4.83162e-005,-0.000382545 -0.000118051,-0.00072823 -6.6248e-005,-0.000341202 -0.00016288,-0.000645544 -0.000281429,-0.000909042 -0.000118549,-0.000258018 -0.000311814,-0.000501094 -0.000579794,-0.000723249 -0.000263498,-0.000221657 -0.000579296,-0.000335225 -0.000939426,-0.000335225l-0.00578748 0z"/>
   <path id="_145271400123456789101112" class="fil1" d="M0.285959 0.114866c0,0 0.00257321,0 0.00771963,0 0.00128611,0 0.00246313,0.000635084 0.00353505,0.00189529 0.00107142,0.00126021 0.00161137,0.00264394 0.00161137,0.00415719l0 0.00907946c0,0.00151275 -0.000539946,0.00290196 -0.00161137,0.00416217 -0.00107192,0.00126021 -0.00224894,0.00189031 -0.00353505,0.00189031l-0.00771963 0c-0.00128661,0 -0.00246811,-0.000630103 -0.00353904,-0.00189031 -0.00107142,-0.00126021 -0.00160739,-0.00264942 -0.00160739,-0.00416217l0 -0.00907946c0,-0.00151324 0.000535961,-0.00289698 0.00160739,-0.00415719 0.00107093,-0.00126021 0.00225243,-0.00189529 0.00353904,-0.00189529zm0.00192767 0.00302649c-0.000566844,0 -0.00101016,0.000253037 -0.00133492,0.000759112 -0.000329746,0.000506075 -0.000509562,0.00100667 -0.000539946,0.00151324l-5.27991e-005 0.000753633 0 0.00907946c0,8.21874e-005 4.48295e-006,0.000190774 1.29507e-005,0.000335225 8.96589e-006,0.000139469 4.88143e-005,0.000382545 0.000114564,0.000723249 7.02328e-005,0.000346183 0.000162382,0.000645544 0.000285414,0.000909042 0.000118549,0.000263498 0.000311316,0.000506075 0.000574813,0.00072823 0.000268479,0.000222155 0.000579794,0.000330244 0.000939924,0.000330244l0.00385982 0c0.000566346,0 0.00101464,-0.000253037 0.0013394,-0.000753633 0.000324765,-0.000506573 0.000504581,-0.00101265 0.000539946,-0.00151324l5.27991e-005 -0.000759112 0 -0.00907946c0,-7.72063e-005 -4.48295e-006,-0.000190774 -1.34488e-005,-0.000330244 -8.46779e-006,-0.000139469 -4.83162e-005,-0.000382545 -0.000118051,-0.00072823 -6.6248e-005,-0.000341202 -0.00016288,-0.000645544 -0.000281429,-0.000909042 -0.000118549,-0.000258018 -0.000311814,-0.000501094 -0.000579794,-0.000723249 -0.000263498,-0.000221657 -0.000579296,-0.000335225 -0.000939426,-0.000335225l-0.00385982 0z"/>
  </g>
 </g>
</svg>
