<?xml version="1.0" encoding="UTF-8"?>
<!DOCTYPE svg PUBLIC "-//W3C//DTD SVG 1.1//EN" "http://www.w3.org/Graphics/SVG/1.1/DTD/svg11.dtd">
<!-- Creator: CorelDRAW -->
<svg xmlns="http://www.w3.org/2000/svg" xml:space="preserve" width="25in" height="39in" style="shape-rendering:geometricPrecision; text-rendering:geometricPrecision; image-rendering:optimizeQuality; fill-rule:evenodd; clip-rule:evenodd"
viewBox="0 0 0.634535 0.359082"
 xmlns:xlink="http://www.w3.org/1999/xlink">
 <defs>
  <style type="text/css">
   <![CDATA[
    .fil0 {fill:#0A0B0C}
   ]]>
  </style>
 </defs>
 <g id="Layer_x0020_1">
  <metadata id="CorelCorpID_0Corel-Layer"/>
  <path class="fil0" d="M0.0854 0.131231c-0.000186659,-0.00504267 0.00215185,-0.0166366 0.00300282,-0.0219588 0.000380976,-0.00237105 0.000584866,-0.00889168 0.00305834,-0.00896539 0.00329286,-0.000104338 0.00887828,0.0013315 0.010742,0.00230979l-0.00460139 0.031018 0.0129484 0.00194987 0.00477848 -0.0310381 0.0112168 0.00244093 -0.00466552 0.0304025 0.00605829 0.000548491 7.75354e-005 0.00131427 0.00603819 0.000721749c0.000485314,-0.0106329 0.00517477,-0.023072 0.0047287,-0.0349129l-5.74336e-005 -0.00150763c-0.000276639,-0.0072845 -0.00758698,-0.00819769 -0.013361,-0.0091329 -0.00372936,-0.000603053 -0.0167113,-0.00251081 -0.0195437,-0.00246677l-5.45619e-005 -0.00150955c-0.0142512,0.000536047 -0.0265209,-0.0101265 -0.028982,0.0124171 -0.000658572,0.00602766 -0.00211643,0.0135074 -0.00309567,0.0196902 -0.000612625,0.00387964 -0.00244763,0.00680876 0.00105391,0.00757837 0.00282478,0.000624112 0.00728354,0.00122621 0.0106578,0.00110081zm0.110572 -0.0132059l0.0302847 0.00413235 5.83908e-005 0.00150955 0.00226384 -8.80649e-005c0.00203506,-7.56209e-005 0.00209058,0.000285254 0.00369011,0.000598267l-0.0022581 0.0174723 -0.00120323 9.85944e-005 -0.00199869 0.0132356 0.0124717 0.00224565 0.0014569 -0.0114523 0.00150955 -6.12625e-005c-0.000618369,-0.0164155 0.0129025,-0.0352154 -0.0171401,-0.0340859l-9.76372e-005 -0.00125492 -0.0273001 -0.00376382 -0.00173737 0.011414zm0.0530907 0.00855761c0.00498332,0.000230692 0.034866,0.00321437 0.0350096,0.00699159l8.13643e-005 0.00323064 -0.0181739 -0.00255101 -7.27493e-005 -0.00136309 -0.00906303 -0.000558063c-0.00266492,-0.000209633 -0.00250793,0.000619326 -0.00524752,0.000952441 0.000917024,0.00211356 -0.00144446,0.00170482 -0.00333019,0.00564477 -0.00120515,0.00251464 -0.00229639,0.00545332 -0.00216525,0.00890604 0.000360875,0.00961343 0.00623825,0.011727 0.0141354,0.0130068 0.00678291,0.00109507 0.0170654,0.00318661 0.0242169,0.00291763 0.0101466,-0.000379062 0.012824,-0.0204301 0.0124382,-0.0306705l-0.000114867 -0.00301527c-0.000231649,-0.00622485 -0.00587737,-0.00884095 -0.0124037,-0.00859303 -0.00140329,-0.00313588 -0.0127503,-0.00318278 -0.0161791,-0.00374276 -0.00424243,-0.000688246 -0.01383,-0.00260174 -0.0172224,-0.00253952l-0.00190871 0.0113833zm0.103424 0.0391525l8.23215e-005 0.00225618c0.000282382,0.00754103 0.00562275,0.00960865 0.0131877,0.00932435l5.64764e-005 0.0015038c0.00718686,-0.000266109 0.016226,0.00316842 0.0227609,0.0029205 0.0100834,-0.000377147 0.00756784,-0.0114695 0.0112005,-0.0133265l0.00387486 -0.0264865 -0.000827044 -0.00204081 -0.011413 -0.0013047 -0.00351302 0.0250679 -0.00150859 5.26475e-005 0.000112953 0.00301622c0.000208675,0.00559308 -0.0197351,-0.0012779 -0.0219521,-0.00143776 -6.50914e-005,-0.00418117 0.00184266,-0.0138511 0.00263142,-0.0186659 0.00171822,-0.0105209 0.00475742,-0.0116648 -0.00534133,-0.012958 -0.00460809,-0.000587737 -0.00476986,-0.00167228 -0.00560648,0.00353025 -0.000562849,0.00350345 -0.000872034,0.00652733 -0.00137841,0.00963928 -0.000843317,0.00519296 -0.0025759,0.0134462 -0.00236722,0.0189091zm-0.0955839 0.0111268l0.0251617 0.00360205 9.18938e-005 0.0012511 0.00982019 0.00139277 8.80649e-005 0.0022648 -0.00150955 5.74336e-005 5.74336e-005 0.00150668c-0.00822162,0.000128268 -0.0184458,-0.00383274 -0.0273154,-0.00350345 -0.00446259,0.000170386 -0.0064766,0.00496322 -0.00882276,0.00637609 -0.000805028,0.00185319 -0.00138032,0.00335508 -0.00127981,0.00608796l0.00014167 0.00377052c0.000521689,0.0137917 0.0188851,0.0122429 0.0305518,0.0141363 0.015777,0.00256345 0.0194958,-0.00842073 0.0189004,-0.0243059l0.00167228 -5.74336e-005 -0.000755252 -0.0117538 -0.00134108 0.000503501c-0.000805028,-0.00663071 -0.0158555,-0.0084638 -0.022962,-0.00819674l-0.000111038 -0.00114772 -0.0209968 -0.00331009 -0.00139181 0.0113259zm0.10128 0.0400006c0.000563807,0.0150323 0.0222594,0.0131274 0.0346133,0.0152553 0.00753242,0.00130183 0.012913,-0.00213749 0.0142723,-0.00921235 0.000799285,-0.00417447 0.00350537,-0.0183998 0.00338284,-0.0215979 -0.000309184,-0.00820918 -0.00491919,-0.0118974 -0.013271,-0.0115824l-5.36047e-005 -0.00150763c-0.0100078,0.000375233 -0.0236588,-0.00634833 -0.0310323,-0.00112857 -0.00519774,0.00368245 -0.00823694,0.0210915 -0.00791148,0.0297736zm0.0363909 0.00391602c-0.00175268,2.77596e-005 -0.0210389,-0.00265535 -0.0219396,-0.00302388 -0.00378775,-0.00153826 0.000664316,-0.0173201 0.00139947,-0.0211193 0.00250698,-9.38082e-005 0.0204971,0.00244667 0.0219463,0.00303154 0.00340486,0.00136883 -0.00063847,0.0171526 -0.00140617,0.0211116zm-0.193632 -0.0289599c0.000370447,0.00986135 0.00698776,0.00958567 0.015329,0.0109334 0.00436304,0.00070069 0.0185664,0.00337901 0.0220851,0.00309089 0.00854612,-0.000701647 0.00974457,-0.00718112 0.0110464,-0.0149184 0.00174502,-0.0103677 0.00447887,-0.012421 -0.0111852,-0.0118332 -0.000135926,0.00292816 -0.000847146,0.00656562 -0.0013248,0.00968618 -0.000865333,0.00561701 0.000763867,0.00564477 -0.00490387,0.00492015 -0.00579122,-0.00073515 -0.0132691,-0.0019738 -0.0190814,-0.00309472l0.00307557 -0.0204894c0.00093904,0.000481485 0.00083183,0.000721749 0.00228969,0.000667187l0.00301431 -0.000115824 5.74336e-005 0.00151242c0.00610232,-0.000229734 0.0147691,0.00223608 0.0205766,0.0029205 0.00957131,0.00113144 0.0110722,0.00340869 0.0108597,-0.010115l-0.0333986 -0.00481389 -5.74336e-005 -0.00150572 -0.00904867 0.000336944c-0.000890221,0.00392846 -0.00586302,0.00310333 -0.00702892,0.0138587 -0.000692075,0.006378 -0.00259026,0.0114638 -0.002305,0.0189598zm0.213008 0.0221943l-0.001477 0.000805985c0.000127311,0.00341634 -0.00125588,0.0105659 -0.00190488,0.0142493 -0.00112857,0.00644884 -0.00220641,0.00704902 0.00797179,0.00666709l5.93481e-005 0.00150668 0.00362119 -0.000166558 0.002484 -0.0181854 0.00150955 -5.55192e-005c-9.2851e-005,-0.00244667 0.000615497,-0.00857293 0.00108741,-0.0106482 0.000871077,-0.00381646 0.00476125,-0.00154688 0.00904292,-0.00105486 0.00616454,0.000697819 0.0153175,0.00319522 0.0212543,0.00297123l5.55192e-005 0.0015105 0.00226288 -8.71077e-005c0.00405769,-0.000154114 0.00375137,0.00298751 0.00462724,-0.0029808 0.000301527,-0.00207048 0.00104816,-0.00515754 0.0010204,-0.00787415l-0.00949282 -0.00108167 -0.000435538 -0.00149232c-0.00951101,0.000145499 -0.0216056,-0.00447408 -0.0311118,-0.00411799 -0.00786553,0.000297698 -0.010876,0.011974 -0.0105745,0.0200338zm-0.0888766 -0.0744301l-0.00839297 -0.000453726 -0.00167993 0.0136721 -0.00150955 5.26475e-005c0.000584866,0.0155406 -0.00831543,0.0399547 -0.00773057,0.055411l8.61504e-005 0.00226288c0.000356088,0.00955408 0.0113537,0.00926787 0.0193293,0.010541 0.0068748,0.0010989 0.0196806,0.00384614 0.0264874,0.00358769l0.000542748 -0.00605829 0.0015105 -5.55192e-005 -0.000199103 -0.00528102c-0.00594151,0.000225906 -0.016113,-0.00207431 -0.0219483,-0.00301048 -0.0128268,-0.00204655 -0.0143479,0.001589 -0.0123616,-0.0106185 0.00161867,-0.00993889 0.00678578,-0.03556 0.00642969,-0.0449715 0.00277596,-0.00124248 0.00337901,-0.0106195 0.00322873,-0.0143689l-0.00379253 -0.000709305 0.0126679 0.00113527 -0.00884765 0.0602594 -0.00135639 0.000446068 -0.000551363 0.00718686 0.0121826 0.00218822 0.00046617 -0.00531931 0.00113431 -0.000117739 0.00871364 -0.0591461 0.00150859 -5.83908e-005 -0.000337901 -0.00904771c-0.00226384,-0.000722706 -0.00418117,-0.00495269 -0.00825895,-0.00678674 -0.00244763,-0.00110081 -0.0093837,-0.00159665 -0.012466,-0.0022514 -0.00549927,-0.00116495 -0.0207479,-0.00374563 -0.026362,-0.00350441l-0.00124248 0.0110646 0.0227495 0.00395143zm-0.242708 0.151837l0.00034173 0.0090525c0.000479571,0.0127445 0.00909461,0.0294041 0.0154965,0.0358549 0.00611285,0.0061655 0.0210255,0.0191541 0.0319379,0.0190258l-0.000784926 0.00169908 0.0242619 0.00190967c0.0130499,0.00133916 0.03142,-0.00888307 0.0387323,-0.0135562 0.0106013,-0.00677812 0.0158469,-0.0189521 0.0317062,-0.0208072 0.0317072,-0.00370447 0.0635838,-0.00692171 0.098603,-0.00824077l0.0301641 -0.00113144c0.0170453,-0.000642299 0.0679823,-0.000509245 0.0795896,0.00598267 0.0214285,0.0119826 0.0162968,0.0342017 0.0570191,0.0326682l0.00376956 -0.000138798c0.018596,-0.000699733 0.0383877,-0.023363 0.0376477,-0.042945l-0.000253665 -0.00678674c-0.00073515,-0.0195045 -0.0168654,-0.0317378 -0.0301268,-0.0381331 0.003133,0.00773727 0.0162499,0.0104118 0.0169716,0.0295668l0.000223034 0.0060334c0.000693032,0.0183902 -0.0113776,0.0351628 -0.0281004,0.0357907l-0.00226193 8.4236e-005c-0.0122429,0.000460426 -0.0171583,-0.00498524 -0.0222306,-0.00541503l0.00158804 -0.00136118c-0.00494695,-0.000223991 -0.0144513,-0.0129838 -0.014994,-0.0177355l-0.0435376 -0.00271278 -0.00045564 -0.00116877 -0.105181 -0.00693894 -5.93481e-005 -0.00150572c-0.0168864,0.00063177 -0.0407712,-0.00258451 -0.0575877,-0.00381551 -0.00503119,-0.000366618 -0.0098872,-0.000593481 -0.0143919,-0.00095627 -0.00620187,-0.000499673 -0.0101906,0.00125875 -0.0117299,-0.00383274 -0.0017948,-0.00593864 -0.00783395,-0.0195045 -0.00815462,-0.0249415l-0.0015105 5.83908e-005 0.000705476 0.0188516c0.000567636,0.0149452 -0.00717825,0.0266511 -0.0147298,0.0343664 -0.00584004,0.00597118 -0.0226729,0.0161187 -0.033189,0.016515l-0.0067877 0.000254622c-0.0118639,0.000447025 -0.0286785,-0.00822545 -0.0334924,-0.0148849 -0.0077813,-0.0107621 -0.0137975,-0.0179279 -0.0144857,-0.036166 -0.00108932,-0.0288862 0.0223943,-0.0536976 0.0507953,-0.0547649l0.00155837 -0.000445111 0.0158708 0.00205421c-0.0038672,-0.00310716 -0.0209422,-0.00601043 -0.0289092,-0.00570794l-0.000751423 2.68024e-005c-0.0213835,0.000805028 -0.0339021,0.00980775 -0.0453371,0.0198069 -0.00797466,0.00697914 -0.0185568,0.0280515 -0.0179394,0.04449zm0.382954 -0.0566879l5.83908e-005 0.00150572c0.000229734,0.00614731 0.0058075,0.00959716 0.0128087,0.00933392l0.000452768 0.00136213 0.0332435 0.00492493 -9.66799e-005 -0.00079067 0.00126833 -0.0111785 -0.0341357 -0.00491536c-0.000558063,-0.00200443 -0.000805985,-0.00138989 -0.000864376,-0.00298751 -9.76372e-005,-0.00257877 0.0130556,0.00093904 0.0170224,0.000868205l0.000429795 0.00149136c0.00672261,-0.000248879 0.00927457,0.00314928 0.0143316,-0.00125875 0.00321628,-0.00281138 0.00653116,-0.00629185 0.00630143,-0.0123492l-0.000142627 -0.00377243c-0.000157942,-0.00420318 -0.00395718,-0.00668432 -0.00564955,-0.00960099 -0.00813643,0.000122525 -0.0283512,-0.00643927 -0.0347205,-0.00383274 -0.00841785,0.00344602 -0.0107315,0.0198127 -0.0103074,0.0311999zm-0.381884 -0.215931l-0.000694947 0.00153443c0.00302579,0.000139755 0.0157378,0.00442143 0.0219167,0.00539876 0.00402227,0.000636556 0.0206838,0.00148753 0.0223254,0.00465021l0.0580194 0.00875767 0.000433624 0.00149136c0.00704711,-0.000105295 0.0213806,0.00307461 0.0287953,0.00426157 0.00443292,0.000707391 0.0270388,0.00305834 0.0282755,0.00529538l0.0549984 0.00888211 0.000499673 0.00111326 0.0523603 0.00897688c0.00122429,0.00274628 0.0193025,0.0046952 0.0239268,0.00558542 0.00615401,0.00118792 0.0192709,0.00487229 0.0247797,0.00466744 0.00110464,0.00246486 0.021931,0.00593576 0.026384,0.00685949 0.0102825,0.00213557 0.0176455,0.00487899 0.02699,0.00698489 0.0177518,0.00400504 0.0331497,0.00908791 0.0507072,0.0151567 0.0226566,0.00783873 0.0244198,0.0140167 0.0383542,0.0300454 0.00592906,0.00681641 0.0257973,0.0341902 0.0267602,0.041871l0.00143776 -0.000875863c0.000839488,0.00692745 0.00649,0.0119759 0.00685566,0.02164 6.41342e-005,0.00176417 -0.00113719,0.00306408 -0.00290231,0.00312822l-0.00150763 5.83908e-005c-0.0103945,0.00039342 -0.0206024,-0.00084236 -0.0299851,-0.00219205 -0.00737543,-0.00106348 -0.0215692,-0.00479188 -0.027727,-0.00473732l0.000765782 -0.00149997c-0.0109459,0.000168472 -0.0412708,-0.0115087 -0.0490962,-0.0161111 -0.0130977,-0.00769706 -0.0229017,-0.022625 -0.0306399,-0.036009 -0.00402897,-0.00202645 -0.00450854,-0.00748743 -0.0089807,-0.0107162 -0.00312726,-0.00226097 -0.0135591,-0.00243231 -0.0150438,-0.00574815 -0.00564668,0.000216333 -0.0205718,-0.00340007 -0.027168,-0.00444345 -0.00399355,-0.000632727 -0.00964693,-0.00141957 -0.0138626,-0.00231553 -0.00319427,-0.000675802 -0.0116877,-0.000454683 -0.0130001,-0.00301814l-0.0587891 -0.00862844 -0.00046617 -0.00130566 -0.060312 -0.00849156 -0.000467127 -0.00123674 -0.0618129 -0.00849826 -0.000467127 -0.00125588 -0.0628917 -0.00882276 -0.000123482 0.000824172 0.0524915 0.00815749 0.000115824 0.00116973 0.0553804 0.00882276c0.00197572,0.00440707 0.0512681,0.00706051 0.0533836,0.0110828l0.0527078 0.00908887 0.000486271 0.00122429 0.048407 0.0098537 0.0375664 0.00907451c0.000456597,0.00375233 0.0023251,0.00472104 0.00351972,0.00876246 0.000943826,0.00321245 0.00156794,0.00716676 0.00243806,0.0107047 0.00100605,0.00407874 0.00444441,0.0179231 0.00466265,0.0209738l0.00144063 -0.000877777c0.00058678,0.00485697 0.00501396,0.00678387 0.00913577,0.00819674 0.00458607,0.00157081 0.00755444,0.00339816 0.0123827,0.0046952 0.00412852,0.00111134 0.0248496,0.00522359 0.026138,0.00769323l0.0463317 0.00910323 5.74336e-005 0.00151242c0.00679823,-0.000105295 0.0275203,0.0050197 0.0352872,0.00667666 0.00820822,0.00175077 0.027639,0.00573762 0.0313932,0.0108731 0.00549257,0.00751423 0.0226901,0.0499232 0.0232195,0.0640146l0.00161963 0.000300569 0.00301622 0.0225523 0.000143584 0.00377147c0.000432667,0.0114609 -0.00300569,0.0174809 -0.0144273,0.0179078l-0.000755252 2.87168e-005c-0.0101744,0.000382891 -0.0216238,-0.00316746 -0.0294433,-0.00591566 -0.00868779,-0.00305451 -0.0169803,-0.0073314 -0.0183146,-0.0180265l-0.00143488 0.000874906c-0.000465212,-0.00383369 -0.00758411,-0.0218477 -0.0094038,-0.0267354 -0.00322298,-0.00863515 -0.00830394,-0.0163092 -0.0163954,-0.0199831 -0.0114341,-0.00519104 -0.0371146,-0.0188717 -0.052904,-0.0182754 -0.000991687,-0.00221024 -0.00383465,-0.00212122 -0.0068748,-0.00200922l-0.00753912 0.000283339c-0.0135065,0.000510202 -0.01307,0.0474086 -0.0526724,0.0464753l-0.0748169 -0.00317225 -5.64764e-005 -0.0015038c-0.0177853,0.00066623 -0.0492264,-0.00453151 -0.0619747,-0.01007 -0.00971585,-0.00422424 -0.01618,-0.00620379 -0.0247606,-0.01175 -0.0119701,-0.00774492 -0.0104587,-0.0094373 -0.019291,-0.0184304 -0.00561605,-0.00571369 -0.0111852,-0.0141957 -0.0164538,-0.0207039 -0.00240264,-0.00297123 -0.00547151,-0.00805219 -0.00796987,-0.0102375 -0.00351398,-0.00307461 -0.00675515,-0.00474019 -0.0106128,-0.00816993 -0.00688533,-0.00612242 -0.0419677,-0.0171995 -0.0566027,-0.0166481l-0.0113096 0.000423094c-0.0291619,0.0010989 -0.0501415,0.0494599 -0.052501,0.049547 -0.00762144,0.000285254 -0.0166395,-0.00381551 -0.0212878,-0.00676377l-0.00117356 -0.00824938 -0.000481485 -0.0128154 -0.000861504 -6.50914e-005 0.00469424 -0.0585986 0.00149519 -0.000433624c-0.000630813,-0.0167429 0.0105305,-0.047085 0.0147729,-0.061253 0.00497758,-0.0166213 0.0181873,-0.0378535 0.0294252,-0.0483859 -0.00499673,0.000607839 -0.0241173,0.0181414 -0.0263582,0.0221263 -0.00609275,0.0108712 -0.0123655,0.0161676 -0.0182419,0.029653 -0.00146551,0.00336561 -0.00366905,0.00544949 -0.00435634,0.00760038 -0.00129034,0.00403758 -0.00180724,0.00492876 -0.00336848,0.00852219 -0.00176991,0.00408066 -0.00511351,0.0135438 -0.00637513,0.0173708 -0.00191541,0.00578357 -0.00933966,0.032986 -0.00911567,0.0388443l-0.000914152 -0.000218248 -0.00971394 0.0399489 -0.00149997 -0.000760995c-0.000208675,0.00463489 -0.00425392,0.0109918 -0.00833649,0.0126392 -0.00626888,0.00252421 -0.00525901,0.00731034 -0.00493738,0.0157942l5.93481e-005 0.00150763c0.000872991,0.0233104 0.00883616,0.0335853 0.0244351,0.0411253 0.0131657,0.00635982 0.0321504,0.0127474 0.0479255,0.0158038 0.00294156,-0.0067743 0.00548874,-0.0199189 0.00830873,-0.027951 0.00161006,-0.00458895 0.00276734,-0.00913577 0.00448652,-0.0133026 0.00213557,-0.00517477 0.0035561,-0.00787128 0.00581133,-0.0128039 0.00505224,-0.0110416 0.00691979,-0.0141086 0.0132107,-0.0234042 0.00514127,-0.0075956 0.0124037,-0.0125445 0.0251846,-0.013025l0.00377052 -0.00014167c0.0226528,-0.000856718 0.0543198,0.011995 0.0643563,0.0239776 0.00440899,0.00525996 0.0120477,0.0222469 0.0154315,0.0296482 0.0046684,0.0102107 0.00823694,0.0230893 0.0133131,0.0327228 0.00325649,-0.00100126 0.00394378,-0.00392176 0.00815079,-0.00408066 0.0054897,-0.000206761 0.0141469,0.00399738 0.0220373,0.00370064l3.06313e-005 0.00185702 0.102156 0.00719165 0.000433624 -0.00083183 5.55192e-005 0.00151242 0.000424052 -0.00075238 0.0793915 0.00529634 0.000529347 -0.00643352 0.00149423 -0.000433624c-0.000581994,-0.0155396 0.00989007,-0.042656 0.025556,-0.0432475 0.00953877,-0.000357046 0.0326807,0.00738596 0.0396637,0.0105841 0.0136386,0.00624399 0.0218372,0.00934828 0.027638,0.0243423 0.00315693,0.00816898 0.0102222,0.0344391 0.0132471,0.0390711 0.00416872,0.00639236 0.0296051,0.0102069 0.0415264,0.0097551l0.000433624 0.00149423c0.0163609,-0.000617411 0.0277433,0.00536143 0.0353992,-0.00719069 0.00384327,-0.00630334 0.00868588,-0.0251253 0.00830682,-0.035226l0.00150859 -6.03053e-005 -0.000171344 -0.00452385c-0.00525422,-0.0010137 -0.0122678,-0.00734767 -0.0143574,-0.0119787 -0.00234329,-0.005192 -0.00334072,-0.0169075 -0.00361928,-0.0243432 -0.000333115,-0.00887158 -0.000784926,-0.0171612 -0.00260461,-0.0246467 -0.00191637,-0.00785118 -0.00755826,-0.00984604 -0.0123214,-0.0149615 -0.00768175,-0.00825225 -0.00579122,-0.00368532 -0.0104807,-0.0161609 -0.0025491,-0.00678578 -0.00508192,-0.0134797 -0.00753146,-0.0201238 -0.00155454,-0.00421563 -0.00346612,-0.00513552 -0.00469328,-0.00906685 -0.0012645,-0.00406247 -0.00235669,-0.00612817 -0.00399834,-0.00980966 -0.0030526,-0.00685662 -0.00662784,-0.0125962 -0.00913195,-0.0184008 -0.00576059,-0.0133619 -0.0136816,-0.0231525 -0.0196107,-0.0331028 -0.00163111,-0.00273097 -0.0107477,-0.010853 -0.0137936,-0.0124775 -0.00545141,-0.00290806 -0.0132681,-0.00523316 -0.01938,-0.00734767 -0.0134261,-0.00464447 -0.0689443,-0.0229744 -0.0832539,-0.0224374 -0.0012444,-0.00277596 -0.018754,-0.00506756 -0.0228729,-0.00593481 -0.00493451,-0.00103955 -0.0205469,-0.00451045 -0.0250813,-0.00434102 -0.00132002,-0.00294922 -0.0230529,-0.00467031 -0.0275586,-0.00559499 -0.00557298,-0.00114101 -0.0244093,-0.00453151 -0.0294472,-0.00434294l-0.00012444 -0.00105582 -0.0591404 -0.008795 -0.000111038 -0.00115633 -0.0587804 -0.00871077 -0.000473827 -0.00121089 -0.058791 -0.00863993 -0.000467127 -0.00126258 -0.0584224 -0.00860164 -0.000100509 -0.00121472 -0.0470161 -0.00683173c0.00400887,0.00257015 0.0379397,0.0186037 0.0422357,0.0188009zm0.0607657 0.0898319l0.0248688 0.00455736 0.00950048 0.00173737 -0.000766739 0.00376669c-0.00830873,0.000128268 -0.0181356,-0.00384614 -0.0265621,-0.00353025 -0.00590226,0.000221119 -0.0110675,0.0068748 -0.0108272,0.0132413l0.000115824 0.00301718c0.00031397,0.00838435 0.00579984,0.0103323 0.012689,0.0114245 0.00730843,0.00115442 0.0137515,0.0022514 0.0210877,0.00316938 0.00795264,0.000996473 0.0125598,-0.00266301 0.0138176,-0.00974553 0.000741851,-0.004185 0.00326127,-0.0178264 0.00313683,-0.021103 -0.000224948,-0.00601043 -0.00302005,-0.00984891 -0.00783012,-0.0111737 -0.00209346,-0.000574336 -0.0141162,-0.00234808 -0.0172129,-0.00223225l-0.000433624 -0.00149232c-0.0143134,0.000219205 -0.0218698,-0.0102825 -0.0215836,0.00836329z"/>
 </g>
</svg>
