<?xml version="1.0" encoding="UTF-8"?>
<!DOCTYPE svg PUBLIC "-//W3C//DTD SVG 1.1//EN" "http://www.w3.org/Graphics/SVG/1.1/DTD/svg11.dtd">
<!-- Creator: CorelDRAW -->
<svg xmlns="http://www.w3.org/2000/svg" xml:space="preserve" width="25in" height="39in" style="shape-rendering:geometricPrecision; text-rendering:geometricPrecision; image-rendering:optimizeQuality; fill-rule:evenodd; clip-rule:evenodd"
viewBox="0 0 0.452952 0.160714"
 xmlns:xlink="http://www.w3.org/1999/xlink">
 <defs>
  <style type="text/css">
   <![CDATA[
    .fil0 {fill:#1F1A17}
   ]]>
  </style>
 </defs>
 <g id="Layer_x0020_1">
  <metadata id="CorelCorpID_0Corel-Layer"/>
  <path class="fil0" d="M0.0223084 0.071003l-1.01474e-005 0.000745112c0.00359219,4.20394e-005 0.00565502,0.00219764 0.00702202,0.0019715 0.0019773,-0.000329067 0.00111477,-0.0003972 0.00170187,-0.00187003 -0.00389082,-0.00180769 -0.00530131,-0.000805996 -0.00871375,-0.000846586zm0.00562023 -0.00589566c0.0132149,-0.00272821 0.00365308,-0.00047403 0.0147225,0.00565067 0.00308192,0.00170622 0.00792515,0.00421553 0.0121218,0.0043518 -0.000201499,0.00201064 -0.00039575,0.00202369 -0.000836438,0.00371686 0.00779323,-0.00340374 0.00965891,-0.00327907 0.0170941,-0.00841947 0.0104417,-0.00722207 0.00665817,-0.00509256 0.0132815,-0.0120856 -0.00123944,-0.00166998 -0.000574055,-0.000690025 -0.00185408,0.000476929 -0.00182219,0.00165983 -0.0035719,0.00262819 -0.0061189,0.00315585 6.52335e-005,-0.00548251 -0.00253686,-0.0100836 -0.00700463,-0.0112593 0.00150472,-0.00188452 0.00178885,-0.00155691 0.00475045,-0.00221359 0.00548251,-0.00121479 0.0147123,-0.00351826 0.0199006,-0.00345738l8.6978e-006 -0.000745112c-0.0109027,-0.000127568 -0.0289753,0.0035661 -0.0372367,0.00637114 -0.00648711,0.00220054 -0.0251903,0.00947625 -0.0288289,0.0144572zm0.0174521 -0.000539264c-0.00368352,-4.3489e-005 -0.00244698,-0.00284708 -0.000242089,-0.00401838 0.00263978,-0.0014018 0.00299639,-0.000642188 0.00584492,-0.000385602 -0.000147863,0.0041677 -0.00171927,0.00445037 -0.00560283,0.00440399zm0.0774206 -0.0423018c-7.97298e-005,7.39313e-005 0.000218895,0.000210197 0.000233391,0.000226143l-0.000233391 -0.000226143zm0.00309207 0.0067408c-7.97298e-005,7.39313e-005 0.000218895,0.000211646 0.000234841,0.000224693l-0.000234841 -0.000224693zm-0.0175217 0.00650161c0.0074946,-0.0142586 0.0141354,-0.0257411 0.0297421,-0.0339229l0.00194396 -0.00114521c7.1032e-005,-0.000218895 0.000318919,-0.000446487 0.000584202,-0.000440689l0.000650885 0.000877028c-0.00547092,0.00335155 -0.0162576,0.0158633 -0.0176986,0.021398 0.00360524,-0.000858183 0.0130655,-0.00800343 0.0230999,-0.00866881l-0.00291811 0.00171347c-0.00449966,0.00214256 -0.00381544,0.00182799 -0.00808316,0.00503313 -0.00424018,0.00318629 -0.0059435,0.00447357 -0.00900657,0.00866591 0.0025615,-0.000611745 0.00274561,-0.00145833 0.00478959,-0.00292971 0.0013931,-0.00100315 0.00252091,-0.00182509 0.0041387,-0.00279924 0.0023629,-0.00142209 0.00738153,-0.00389082 0.0102243,-0.00447792 -0.000817593,0.000652335 -0.0015975,0.00126988 -0.00262529,0.00199325 -0.00383573,0.00270067 -0.00324718,0.00188307 -0.00653495,0.00576954 -0.00152067,0.0017961 -0.00254701,0.00267747 -0.00384878,0.00458519 -0.00125973,0.00184393 -0.00201064,0.00353131 -0.00305873,0.0053448 -0.00406332,-0.00189032 -0.0156097,-0.000929215 -0.0213995,-0.000995898zm0.0237783 0.00102489c0.000584202,-0.0019686 0.00123509,-0.0023861 0.00274126,-0.00414305 0.00230637,-0.00268907 0.00728006,-0.00745546 0.0108476,-0.00883262l0 0.000921967c-0.00127278,0.00186423 -0.00219764,0.00354725 -0.00348782,0.0059493 -0.00153516,0.00286158 -0.0017613,0.0053535 -0.00298335,0.00767871 -0.00237305,-0.000549411 -0.00450256,-0.00134091 -0.0071177,-0.0015743zm0.0087036 0.00159315c0.000452286,-0.00173666 0.000414595,-0.00173521 0.00145978,-0.00311816 0.00189032,-0.00251076 0.00224403,-0.00284853 0.00342548,-0.00368497l0 0.0069336c-7.97298e-005,0.000495775 -0.000130467,0.000971254 -0.000146413,0.00141484 -0.00191642,-0.000443588 -0.0031718,-0.000817593 -0.00473885,-0.00154531zm-0.0342969 0.0167317c0.00561153,6.66831e-005 0.010059,-0.000626242 0.0166606,-0.000547961 0.000968355,-0.00191352 0.000579853,-0.00144673 4.3489e-005,-0.00372411 0.00812085,-0.000704522 0.000781352,-0.000800198 0.0110998,0.000129017 5.79853e-005,0.00479829 0.00148877,0.0082977 0.00141919,0.0141731 -9.85751e-005,0.00835859 -0.000165258,0.0189453 -0.00428077,0.0267747l-0.0063436 -7.53809e-005c0.000465332,-0.00463593 0.00469971,-0.0293855 0.00039575,-0.0335257 -0.00413146,-0.00192076 -0.0126046,-0.0023832 -0.0190032,-0.00245858l8.6978e-006 -0.000745112zm0.0339794 0.0100865l-0.00221069 -0.0141818c0.00232811,0.000537814 0.00495195,0.000788601 0.00741342,0.00119595l0 0.0225403c-0.0025673,0.00826146 -0.00618993,0.0156256 -0.00842527,0.0167288 -0.00149457,0.000737863 -0.000598699,0.000453735 -0.00264268,0.000471131 0.00375165,-0.00648276 0.00577389,-0.0189583 0.00586522,-0.0267544zm-0.0411174 -0.00233246c0.00211502,0.000820492 -2.60934e-005,-0.00117855 -0.000878478,-0.000398649 -0.00134236,0.00123364 0.000861082,0.000391401 0.000878478,0.000398649zm-0.0225592 0.0224447c0.00116695,0.000897323 -0.000230492,0.000259484 0.00208312,0.00103794 0.00183669,0.000617544 0.000382703,0.000302973 0.00265718,0.000508821 -0.000936463,-0.000627691 0.000721917,-9.56758e-005 -0.00208167,-0.00103649 -0.00183814,-0.000618993 -0.000384153,-0.000305873 -0.00265863,-0.000510271zm-0.0768581 -0.00537669c0.00239914,-0.00414595 0.00416625,-0.00603917 0.00812375,-0.00951539 0.0123161,-0.0108259 0.0265094,-0.0173492 0.0427033,-0.0222055 0.0108157,-0.00324428 0.0214604,-0.00562458 0.0340171,-0.00720758 0.00371831,-0.000469681 0.00646392,-0.000759608 0.00997638,-0.00104374 0.00836149,-0.000676979 0.0155009,0.0100315 0.0157256,0.0129626 -0.00660308,-7.82802e-005 -0.0106881,0.00171782 -0.0158923,0.00279199l0.00359509 0.00112202c0.00479539,0.00102779 0.0059145,0.000916168 0.0109056,0.00325878 0.00421263,0.00197875 0.00841802,0.0037531 0.0107389,0.00709451 -0.00357045,-0.000826291 -0.00627691,-0.00249772 -0.0107273,-0.00343128 -0.00422713,-0.000884276 -0.00753519,-0.00171782 -0.00905876,0.000217445 0.00438079,0.00101329 0.00539264,0.00128293 0.00610296,0.00545207 0.00195266,0.0114608 0.000360959,0.018822 -7.53809e-005,0.0267805 -0.000743662,-0.000208747 -0.00150037,-0.000376905 -0.00226723,-0.000504472 -0.00154966,-0.000256585 -0.00312396,-0.000407347 -0.00469826,-0.000484178 -0.00130032,-0.000952409 -0.00283983,-0.00202514 -0.00478379,-0.00315005 -0.00311091,-0.00180044 -0.00862967,-0.00484033 -0.0127872,-0.00521433 0.00242524,0.00202949 0.00854994,0.00391836 0.0142731,0.00829915l-0.00524912 0c-0.00830785,-0.00459244 -0.0207283,-0.00918343 -0.0280432,-0.00927041 0.0015917,0.00106838 0.00424598,0.00181204 0.00608991,0.00251656 0.00239914,0.000916168 0.00379949,0.00151342 0.00601598,0.00258615 0.00197005,0.000953859 0.0045533,0.00241219 0.00734529,0.0041677l-0.00298335 0c-0.00242669,0 -0.00485047,0.000431991 -0.00692635,0.0015975 -0.011887,-0.00853689 -0.0252947,-0.0151284 -0.0404796,-0.0178508 -0.0177769,-0.00318919 -0.0230042,0.000458084 -0.0316411,0.00103069zm0.108836 0.0172492c0.000389951,-0.00162359 0.000703072,-0.00311671 0.000920517,-0.00433295 0.00143079,-0.00797733 0.00182799,-0.0177653 0.000597249,-0.0235377 0.00309642,0.000717569 0.00694664,0.00370961 0.00945306,0.00532885 -0.000821942,0.00818173 -0.00296015,0.0175739 -0.00569126,0.0260398 -0.000974154,-0.00091037 -0.00203673,-0.00171782 -0.00319064,-0.00240929 -0.000675529,-0.000408797 -0.00137425,-0.000771205 -0.00208892,-0.00108867zm-0.0150008 0.0392387c-0.0011742,0.00122349 -0.00253831,0.0025847 -0.00392851,0.00388212l-0.000775554 0 0 -0.00206718c0.000452286,-0.00055521 0.000917618,-0.00115536 0.00139745,-0.00181494l0.00330661 0zm0.00178015 -0.0194947c-0.000608846,-0.00063349 -0.00132931,-0.00128293 -0.00213966,-0.00199035 0.00142354,4.78379e-005 0.00315295,0.000189902 0.00435325,0.000566807 4.3489e-006,9.85751e-005 5.79853e-006,0.000191352 5.79853e-006,0.000260934 0,0.000134816 -5.79853e-006,0.000308772 -7.97298e-005,0.000430541l-5.50861e-005 9.27765e-005 -5.21868e-005 9.56758e-005c-2.7543e-005,4.92875e-005 -7.39313e-005,0.000139165 -0.000115971,0.000179755 -1.5946e-005,7.24817e-006 -2.7543e-005,8.6978e-006 -4.3489e-005,1.44963e-005 -0.000511721,0.000178305 -0.00118145,0.000284128 -0.00187293,0.000349362zm0.00717858 -0.0789963c0.00452286,5.36364e-005 0.00549266,-0.000681328 0.0103156,-0.000623342 0.0114536,0.000134816 0.0225809,0.00189902 0.0326283,0.00492585l0 0.00663932c-0.00648566,-0.00161779 -0.0138483,-0.00284128 -0.0204964,-0.00268762 -0.00707131,0.000162359 -0.011858,0.00157285 -0.0144224,-0.000108723 -0.00170187,-0.00111767 -0.00761058,-0.00661758 -0.00802517,-0.00814549zm-0.082345 0.0564009c-0.00529551,-0.00341969 -0.00673065,-0.00782512 -0.00893119,-0.010965 -0.00113361,-0.00161779 -0.00169897,-0.00175261 -0.00279489,-0.00332981 0.017974,0.000211646 0.0250062,0.000962557 0.0380993,0.00556949 0.00576084,0.00202659 0.0175899,0.0076932 0.0236058,0.0123393 -0.000169607,0.000149312 -0.000336315,0.000304423 -0.000500124,0.000468232 -0.00139745,0.00139745 -0.00225563,0.00308917 -0.00273546,0.00491136 -0.00186713,-0.00201064 -0.0021701,-0.00444458 -0.0047461,-0.00626242 -0.000289927,0.00289057 -0.000737863,0.00193236 -0.000853834,0.00520563 -0.00457359,-0.00120609 -0.00520708,-0.00753229 -0.00859053,-0.0112781 -0.00180624,0.0069336 -0.000558109,0.00735254 -0.000149312,0.0126654 -0.00596814,-0.00385458 -0.00913559,-0.0133062 -0.0109172,-0.0157764 -0.00195556,0.007512 0.000249337,0.00975748 0.00216865,0.0179088 -0.00420829,-0.00271661 -0.00842527,-0.0105693 -0.010665,-0.0152704l-0.00256875 -0.00574925c-5.50861e-005,0.00469681 -0.000379804,0.00822522 0.000616094,0.0119638 0.00086978,0.00326892 0.00243104,0.00608701 0.00310222,0.00894279 -0.00792225,-0.00559269 -0.0134627,-0.0201789 -0.0155952,-0.022536 -7.1032e-005,0.00601598 0.00112057,0.00682632 0.00145543,0.0111926zm0.209855 -0.0104866l0.000411696 0.000298624c-0.000136266,-3.18919e-005 -0.00027543,-6.66831e-005 -0.000417494,-0.000102924l5.79853e-006 -0.000195701zm-0.0140484 0.0138541c0.000756709,0.00173521 0.00147138,0.00352551 0.00210197,0.0053419 -0.000426192,0.00145688 -0.000600148,0.00300364 -0.000600148,0.0045533l0 0.00494905c-0.00265863,-0.00618993 -0.00590001,-0.0125886 -0.0090892,-0.0182262 0.00210197,0.00201209 0.00469826,0.0031515 0.00758738,0.00338199zm-0.0110114 -0.00917473c-0.000823392,-0.00133076 -0.00162649,-0.00257745 -0.00239624,-0.00372846 0.000388502,-0.0013815 0.000746561,-0.0027746 0.00109302,-0.00414595l0.000624792 -0.00248612 0 0.00508821c0,0.00179175 0.000195701,0.00357914 0.000678428,0.00527232zm-0.0591972 -0.0015801c-0.000382703,0.000401548 -0.000966905,0.000881377 -0.00259049,0.0021585l-0.000849485 0.000691475c-0.00110027,0.000911819 -0.000476929,0.00146848 -0.00156705,-1.44963e-006 0.00173086,-0.00116116 0.00331096,-0.00320804 0.00470986,-0.00578259 3.04423e-005,0.0009872 0.000124668,0.00197005 0.000297175,0.00293406zm0.0779743 0.00941392l-0.000192801 -0.000240639c0.00043344,-0.000246438 0.000850935,-0.000520418 0.00125538,-0.000821942l0.000418944 0.000501573c-0.000505922,0.000155111 -0.0010017,0.000340664 -0.00148153,0.000561008zm-0.104419 0.0137947c0.000150762,-0.000429091 0.000289927,-0.00086833 0.000421843,-0.00132496l0 0.0041706c-6.66831e-005,-0.000959657 -0.000208747,-0.00191062 -0.000421843,-0.00284563zm0.0226404 -0.00639288c0.000707421,0.000176855 0.000420394,-0.000256585 -0.000101474,-0.000533465 -0.000255135,-0.00122784 -0.000669731,-0.00240929 -0.00128148,-0.00349941 0.00127713,0.000279779 0.0025557,0.000539264 0.00368352,0.000852384 0.0067292,0.00187148 0.0157126,0.00499109 0.0219272,0.00788311 0.00458664,0.00213386 0.00425612,0.00161779 0.00286737,0.00252671 -0.00082919,-0.00055521 7.97298e-005,-9.56758e-005 -0.00152501,-0.000811795 -0.000748011,-0.000334865 -0.00111187,-0.000440689 -0.00170477,-0.000646536 -0.00655089,-0.00228607 -0.0169462,-0.00548541 -0.0236493,-0.00556369l0.00598264 0.00261659c0.00229912,0.000917618 0.0159257,0.00764972 0.0154342,0.00818898l-0.000933564 0.000611745c-0.00303988,-0.00254266 -0.0140382,-0.00605657 -0.0173739,-0.00616674 0.00104374,0.00137135 0.00229912,0.00195701 0.00372121,0.00321964 0.00424453,0.00376615 0.00389227,0.00267747 0.00254266,0.0035603 -0.00118145,-0.00098865 -0.000349362,-0.00031602 -0.00183089,-0.00126698 -0.00183379,-0.0011771 -0.00475625,-0.00288477 -0.0075294,-0.00410971l0 -0.00400534c0,-0.000962557 -7.1032e-005,-0.00192076 -0.000229042,-0.00285578zm0.00262819 0.00509256c0.00211502,0.000820492 -2.7543e-005,-0.00117855 -0.000879927,-0.000398649 -0.00134236,0.00123364 0.000861082,0.000391401 0.000879927,0.000398649zm-0.0261195 -0.0141412c0.00128727,-0.00112057 0.00473885,-0.000975603 0.00703507,-0.00100894 0.00791935,-0.000114521 0.00238755,-0.000259484 0.00909065,0.000347912 0.00412711,0.000374005 0.0107882,0.000981402 0.0173463,0.00205993 0.00190047,0.00108578 0.00405752,0.00163374 0.00636969,0.00163374 0.000476929,0 0.00094806,-2.31941e-005 0.00141194,-6.81328e-005 0.00385747,0.000958208 0.00723657,0.00214691 0.00944726,0.00362843l-0.0259006 -0.00287752c-0.000804547,-0.000113071 -0.00222954,-0.00023919 -0.00382848,-0.000337765 -0.000105823,-0.000124668 -0.000214546,-0.000247887 -0.000327617,-0.000368207 -0.00215705,-0.00231796 -0.00504182,-0.00347042 -0.00819623,-0.00347042 -0.00318339,0 -0.00607396,0.0011974 -0.00820782,0.0035719 -0.00181059,0.00201789 -0.00266008,0.004533 -0.00289637,0.00715829 -0.000511721,0.000487077 -0.00111332,0.000927765 -0.00184538,0.00129742 -0.000662482,-0.0013815 -0.00149022,-0.00267167 -0.00247742,-0.00384878l0.002979 -0.00771785zm0.0237204 0.0188336c0.000601598,0.000539264 0.00131917,0.00127858 0.00222084,0.0023716 0.00247452,0.00299929 0.00337185,0.00180769 0.00155401,0.00299784 -0.000636389,-0.000917618 -0.00208747,-0.00220344 -0.00377485,-0.00341969l0 -0.00194976zm-0.0940493 0.0295479c8.84276e-005,0.000234841 0.00303843,0.00125538 0.000926316,8.26291e-005 -7.24817e-006,-4.3489e-006 -0.00171347,-0.00219185 -0.000926316,-8.26291e-005zm0.00148877 0.00821362c-0.00630011,-7.39313e-005 -0.00955018,7.68306e-005 -0.0154908,-0.00210632 -0.000521868,-0.000191352 -0.00102634,-0.00031602 -0.00149602,-0.000659583 -0.0015656,-0.00114666 9.56758e-005,-8.6978e-005 -0.000368207,-0.00274995 -0.000545062,-0.00314715 -0.0023629,-0.00364873 -0.00229187,-0.00961687 0.00260499,0.00288187 0.00477654,0.00763087 0.0102025,0.00906021 -0.00329792,-0.0047432 -0.00348927,-0.00748156 -0.00423003,-0.013267 -1.5946e-005,-0.000113071 -0.0001986,-0.00147138 -0.000155111,-0.00188162 1.44963e-005,-0.000134816 4.63883e-005,-0.000368207 6.95824e-005,-0.000498674l0.00055376 -0.00153371c0.00128727,0.00546947 0.00703797,0.0130597 0.0117261,0.0142948 -0.000320369,-0.00418364 -0.00233246,-0.00411986 -0.00226578,-0.00971254 0.00228027,0.00160909 0.00508821,0.00718148 0.0133743,0.00909935 -0.00172796,-0.0031573 -0.00312251,-0.00404303 -0.00306452,-0.00897903 0.00351681,0.000927765 0.00406477,0.00353856 0.0102083,0.00383138l0 0.00692635c-0.00470841,0.00457359 -0.0106113,0.00786571 -0.0167723,0.00779323zm0.0167723 -0.0161808c-0.000811795,-0.00142934 -0.00142209,-0.00274271 -0.00145253,-0.00524622 0.000534915,0.000273981 0.00101474,0.000508821 0.00145253,0.000707421l0 0.0045388zm-0.0414117 0.00980532c0.000263833,2.89927e-006 0.000498674,0.000242089 0.000558109,0.000469681 5.9435e-005,0.000226143 0.000337765,0.00027688 0.000424743,0.000347912 0.0145775,0.0121204 0.0298349,0.0100851 0.0404288,0.00160184l0 0.000272531c0,0.00249627 0.000447937,0.00499544 0.00168013,0.0071264 -0.0103359,0.00522883 -0.0250076,0.00574345 -0.034236,-1.30467e-005 -0.00351246,-0.0021904 -0.00688431,-0.00601888 -0.00952699,-0.00894279l0.00067118 -0.000862532zm0.0648305 -0.0300176c0.000858183,0.000781352 0.00160764,0.00146558 0.00223533,0.00210922l-0.00320659 0 0 -0.00210922 0.000971254 0zm0.211658 -0.0990042c0.00055231,-0.00134671 0.00131192,-0.00261224 0.00232666,-0.0037415 0.00256295,-0.00285578 0.00600728,-0.00425902 0.00983141,-0.00425902 0.00386037,0 0.00737718,0.00136845 0.00997203,0.00425902 0.00268327,0.00299059 0.00358639,0.0069249 0.00358639,0.0108491l0 0.0371932c0,0.00282534 0.000218895,0.00604642 0.00112347,0.00874274l1.01474e-005 3.04423e-005c0.000498674,0.00151777 0.00131337,0.00266443 0.00265428,0.00353566 0.00181639,0.00117855 0.00483453,0.0013989 0.0069278,0.0013989 0.00253831,0 0.00637549,-0.000321819 0.0080904,-0.00252236 0.00211502,-0.00271516 0.00248322,-0.00759898 0.00248322,-0.0108853l0 -0.0374933c0,-0.00391836 0.000865431,-0.0078889 0.0035487,-0.0108809 0.00256875,-0.00286448 0.00604497,-0.00422713 0.0098691,-0.00422713 0.00379949,0 0.00724817,0.00135396 0.00984736,0.00414595 0.00278185,0.00298624 0.00371251,0.00698288 0.00371251,0.0109621l0 0.036367c0,0.00543323 -0.000437789,0.0111767 -0.0019599,0.0164229 -0.00149167,0.00508386 -0.00428657,0.00944001 -0.00815564,0.0130525 -0.00339794,0.00315875 -0.00736704,0.00543757 -0.0117754,0.00684372 -0.00467652,0.00151342 -0.00967195,0.00204108 -0.0145703,0.00204108 -0.000723367,0 -0.00145108,-8.6978e-006 -0.00218025,-2.7543e-005 0,1.44963e-006 1.44963e-006,2.89927e-006 2.89927e-006,4.3489e-006 0.00226578,0.00243248 0.00307612,0.00564342 0.00307612,0.00889495l0 0.00416335 0.0111245 -0.0116c0.00104229,-0.00109302 0.00217445,-0.0021788 0.00340229,-0.00306163l3.91401e-005 -2.89927e-005c0.00183089,-0.00129452 0.00399519,-0.00183814 0.00621748,-0.00183814 0.00291376,0 0.00565357,0.000946611 0.00778018,0.00296305 0.00211646,0.00200629 0.00324573,0.00464028 0.00324573,0.00755404 0,0.00352841 -0.00174536,0.00652915 -0.00424598,0.00891525l-0.00946466 0.00897178 0.0122132 0.0175072c0.000843687,0.00118725 0.00166418,0.00243538 0.00236725,0.00373281l0 -0.0360031c0,-0.00208312 0.000218895,-0.00425467 0.000975603,-0.00621023l3.04423e-005 -7.53809e-005 3.18919e-005 -7.68306e-005c0.000927765,-0.00220779 0.00247162,-0.00399954 0.00447502,-0.00530421l4.05897e-005 -2.60934e-005c0.0019918,-0.00127423 0.00423438,-0.00194831 0.00660018,-0.00194831 0.00167433,0 0.00332111,0.000292826 0.00485627,0.000978503 0.00135831,0.000605947 0.00257745,0.00146268 0.00361539,0.00252526 0.000884276,0.000904571 0.00164243,0.00192946 0.00232231,0.00299349 0.000569706,0.000881377 0.00113941,0.0017613 0.00169607,0.00264993l0.00999087 0.015124 0 -0.0122653c0,-0.00304423 0.000707421,-0.00605512 0.00272676,-0.00841512 0.00204398,-0.00238755 0.00488381,-0.00359074 0.00801357,-0.00359074 0.00312831,0 0.00597249,0.00115826 0.00804836,0.00351826l2.60934e-005 2.89927e-005c0.00204978,0.0023629 0.0027659,0.00539698 0.0027659,0.00845861l0 0.0418741c0,0.00728731 -0.0039662,0.0128351 -0.0116464,0.0128351 -0.0015656,0 -0.00311381,-0.000230492 -0.00458954,-0.000765406 -0.00151487,-0.000540713 -0.00288622,-0.0013902 -0.00408217,-0.00245568 -0.00102489,-0.00091037 -0.00193236,-0.00195121 -0.00273546,-0.00306018 -0.000626242,-0.000866881 -0.00123944,-0.00174246 -0.00184103,-0.00262674l-3.33416e-005 -4.78379e-005 -0.00953424 -0.014621 0 0.0115724c0,0.00311671 -0.000785701,0.00616529 -0.00292101,0.00852384 -0.00207298,0.00229187 -0.00487077,0.00348057 -0.00795559,0.00348057 -0.00314136,0 -0.00599713,-0.0011974 -0.00806866,-0.00357625 -0.000727716,-0.000836438 -0.00129307,-0.00175551 -0.00171927,-0.00272966 -0.000549411,0.00126553 -0.00136845,0.00241509 -0.00241799,0.00340809l-3.04423e-005 2.89927e-005c-0.00213821,0.0019947 -0.00487802,0.00286882 -0.00777148,0.00286882 -0.00246873,0 -0.00487947,-0.000568256 -0.00693939,-0.0019686 -0.00167288,-0.00112781 -0.00302973,-0.00260934 -0.00408652,-0.00432281 -0.00059145,-0.000959657 -0.00117565,-0.00192366 -0.00174681,-0.00289492l-0.00883262 -0.0135947 -0.00194251 0.00186133 0 0.00851805c0,0.00328197 -0.000807446,0.0065132 -0.00311236,0.00895873 -0.00215705,0.00228897 -0.00502443,0.00344288 -0.00816144,0.00344288 -0.00196135,0 -0.00383573,-0.000521868 -0.0055376,-0.00149457 -0.0017729,-0.00100605 -0.00319354,-0.00242379 -0.00417929,-0.00420829l-3.62408e-005 -6.66831e-005 -3.47912e-005 -6.66831e-005c-0.000736414,-0.00141919 -0.00112202,-0.00296885 -0.00125393,-0.0045562 -0.00012032,-0.00144383 -0.000131917,-0.00292826 -0.000131917,-0.00437644l0 -0.0333778c-0.00208167,0.00169172 -0.00469681,0.00231796 -0.00735834,0.00231796l-0.0154154 0 0 0.00196135 0.0119319 0c0.00277605,0 0.00550281,0.00071177 0.00760043,0.00261659l3.62408e-005 3.18919e-005c0.00205703,0.00189902 0.00309207,0.00445762 0.00309207,0.00724817 0,0.00283548 -0.00106983,0.00543757 -0.00320659,0.00731485 -0.00210052,0.00184973 -0.00477509,0.00254556 -0.00752215,0.00254556l-0.0119319 0 0 0.0117087c0,0.00326023 -0.000801647,0.00649001 -0.00307612,0.00893264 -0.00214691,0.00230492 -0.00500124,0.00346897 -0.00813534,0.00346897 -0.00316165,0 -0.00603772,-0.00118725 -0.00818318,-0.00351826 -0.00224693,-0.00244118 -0.00305293,-0.00563762 -0.00305293,-0.00888335l0 -0.00614065c-0.000485627,0.00128003 -0.00105533,0.00252816 -0.00171202,0.0037386 -0.00148297,0.00269632 -0.00338924,0.00511286 -0.00567242,0.00719453 -0.00184248,0.00166563 -0.00391401,0.00304133 -0.00617399,0.00406767 -0.00222084,0.00102634 -0.00456779,0.00171202 -0.00697998,0.00209327 -0.00247307,0.0003943 -0.00499399,0.000543613 -0.0074975,0.000543613l-0.0140571 0c-0.0025586,0 -0.00521143,-0.000387052 -0.00743807,-0.00172361 -0.00123364,-0.000739313 -0.00226868,-0.00168737 -0.00306887,-0.00281084 -0.000479829,0.000781352 -0.00106258,0.00151052 -0.00173376,0.0021817 -0.00211936,0.00212081 -0.00484178,0.00325733 -0.00784252,0.00325733 -0.00166273,0 -0.00329647,-0.000321819 -0.00478669,-0.00107273 -0.00137135,-0.000678428 -0.0025586,-0.00163809 -0.00350376,-0.00284128 -0.000863981,-0.00109737 -0.00152791,-0.00239769 -0.00208602,-0.00367337 -0.00043489,-0.000997348 -0.000872679,-0.00199615 -0.00128003,-0.00300509l-2.02949e-005 -5.36364e-005 -0.00113216 -0.00297755 -0.0135715 0 -0.00113361 0.00305003c-0.000839338,0.00222519 -0.00191497,0.0049476 -0.00335735,0.00685242 -0.00194541,0.00259049 -0.0049244,0.00372121 -0.008102,0.00372121 -0.00250062,0 -0.00480698,-0.000824841 -0.0067379,-0.00233536 -0.00184973,0.00101764 -0.0039662,0.00143079 -0.00611745,0.00143079l-0.0260441 0c-0.00338199,0 -0.00676834,-0.000816144 -0.00921822,-0.00329502 -0.00208167,-0.00210632 -0.00296305,-0.00486932 -0.00317035,-0.00772945 -0.000221794,0.000401548 -0.000456635,0.000798748 -0.000707421,0.00119015 -0.00214256,0.00336025 -0.00509401,0.00588841 -0.00874129,0.00749315l-6.23342e-005 2.7543e-005 -6.23342e-005 2.60934e-005c-0.00225128,0.000927765 -0.00463738,0.00150327 -0.00704957,0.00181639 -0.00268182,0.000360959 -0.00542308,0.000471131 -0.00812809,0.000471131l-0.0162765 0c-0.00341099,0 -0.00681328,-0.000833539 -0.00924286,-0.00338344 -0.00233681,-0.00245278 -0.00312106,-0.00575504 -0.00312106,-0.00905441l0 -0.0400287c0,-0.0033646 0.000792949,-0.0067292 0.00324428,-0.00918053 0.00243538,-0.00243393 0.00577389,-0.00325733 0.00911964,-0.00325733l0.0172564 0c0.00251801,0 0.00507372,0.000137715 0.00756419,0.000549411 0.00249627,0.000416045 0.00488671,0.00125538 0.00705682,0.00256585 0.00181929,0.00109012 0.00341244,0.00246873 0.00478814,0.00408797 0.00140325,0.00165548 0.00249047,0.00353856 0.00323993,0.00558544 0.0005929,0.00163664 0.00094951,0.00332836 0.00107128,0.00505342l0 -0.00638274c0,-0.00320079 0.000782802,-0.00635954 0.0029674,-0.00879348 0.00213386,-0.0023745 0.00502443,-0.0035719 0.00820782,-0.0035719 0.0031544,0 0.00603917,0.00115246 0.00819623,0.00347042 0.00226723,0.00243248 0.00307612,0.00564342 0.00307612,0.00889495l0 0.0329183 0.0160358 0c0.00164243,0 0.00325153,0.000250787 0.00473595,0.000826291l0.0127162 -0.0322717c0.000463883,-0.00119595 0.000935014,-0.0023832 0.00140035,-0.00356755 0.000624792,-0.00160619 0.0013699,-0.00318774 0.00233536,-0.00461563 0.000810345,-0.0012003 0.00180624,-0.00223678 0.00295145,-0.00309497 -0.000769755,-0.000291376 -0.00151632,-0.000656684 -0.00223533,-0.00110172l-3.18919e-005 -2.02949e-005c-0.00200629,-0.00126118 -0.00366322,-0.00293696 -0.00484178,-0.00499399l-1.88452e-005 -3.04423e-005c-0.000956758,-0.00169317 -0.00168157,-0.00349217 -0.0021788,-0.00537234 -0.000404448,-0.00152212 -0.000805996,-0.00304568 -0.00121189,-0.00456779l-2.17445e-005 -7.97298e-005 -0.000623342 -0.00248032 0 0.00508821c0,0.00375165 -0.000859633,0.00750475 -0.00341244,0.0103736 -0.00246148,0.00276445 -0.00579129,0.00411841 -0.0094777,0.00411841 -0.00363133,0 -0.00687851,-0.00134816 -0.00934869,-0.00401693l-2.60934e-005 -2.7543e-005c-0.00261949,-0.00286882 -0.00348057,-0.00665962 -0.00348057,-0.0104475l0 -0.0598133c0,-0.00445327 0.00126118,-0.00888335 0.00512155,-0.0115101l5.65357e-005 -3.91401e-005c0.00302104,-0.00200194 0.00661903,-0.00269632 0.0101938,-0.00269632l0.00475335 0c0.00270067,0 0.00581158,0.000185553 0.00836004,0.00118435 0.00272096,0.00108143 0.00477944,0.00310946 0.00600148,0.00576374 0.00106548,0.00231217 0.00181204,0.00504762 0.00245423,0.0074975l0.00534625 0.0201601 0.00534335 -0.0201514c0.000643637,-0.00245858 0.00139165,-0.00519404 0.00245568,-0.0075062 0.00122784,-0.00266733 0.00328632,-0.00469246 0.00601888,-0.00576374 0.00253106,-0.0010046 0.00566082,-0.00118435 0.00836149,-0.00118435l0.0047345 0c0.0035748,0 0.00717279,0.000694374 0.0101938,0.00269632l5.65357e-005 3.91401e-005c0.00143369,0.000975603 0.00250932,0.00219909 0.00329357,0.00358059 0.000645087,-0.00118725 0.00150907,-0.00226578 0.00259774,-0.00319789 0.00267602,-0.00230927 0.00609426,-0.00311816 0.00955743,-0.00311816l0.0486714 0c0.0035719,0 0.00711335,0.000811795 0.00982706,0.00326747 0.00111622,0.00101039 0.0019918,0.002173 0.00262384,0.00344868zm-0.00126118 0.0128669c-0.000421843,0.000536364 -0.000898773,0.00104084 -0.00142789,0.00151342l-3.47912e-005 3.04423e-005c-0.00270212,0.0023745 -0.00621023,0.0031747 -0.00972704,0.0031747l-0.0108737 0 0 0.0490889c0,0.00397055 -0.000891525,0.00798748 -0.00365018,0.0109882 -0.00256875,0.00279344 -0.00598554,0.00417204 -0.00976763,0.00417204 -0.00380239,0 -0.00723512,-0.0013989 -0.00981692,-0.00420539 -0.0027601,-0.00299784 -0.00368932,-0.00697998 -0.00368932,-0.0109549l0 -0.0490889 -0.0108737 0c-0.00352551,0 -0.00705102,-0.000807446 -0.00973574,-0.00322978 -0.000205848,-0.000185553 -0.000402998,-0.000376905 -0.00059145,-0.000572605l0 0.0535596c0,0.00375165 -0.000859633,0.00750475 -0.00341244,0.0103736 -0.00247307,0.00277895 -0.00582898,0.00411841 -0.00952989,0.00411841 -0.00363423,0 -0.00686546,-0.00137715 -0.00931969,-0.00406042l-2.7543e-005 -2.89927e-005c-0.0025876,-0.00286737 -0.00345593,-0.00663207 -0.00345593,-0.0104026l0 -0.00508821 -0.000624792 0.00248612c-0.000616094,0.00243393 -0.00126118,0.00493745 -0.00206428,0.00731775 -0.000853834,0.00253106 -0.00240784,0.00469101 -0.00438659,0.00646536 -0.000374005,0.000337765 -0.000763957,0.000647986 -0.00116551,0.000929215 0.000339214,0.000150762 0.00067263,0.000318919 0.00100025,0.000504472 0.00173086,0.000982851 0.00321674,0.00230347 0.0043518,0.00393865l3.18919e-005 4.63883e-005c0.000833539,0.00122494 0.00153806,0.00253686 0.00211357,0.00390241l2.31941e-005 5.65357e-005c0.000568256,0.00138585 0.00110317,0.00278764 0.00164098,0.00418509l0.0122711 0.0303191 0 -0.0307206c0,-0.00336605 0.000820492,-0.00671905 0.00327037,-0.00916893 0.00244988,-0.00244843 0.00580288,-0.00326892 0.00916893,-0.00326892l0.0140571 0c0.00362408,0 0.00736269,0.000288477 0.0108795,0.00120465 0.00353856,0.000921967 0.00670455,0.00263978 0.00945886,0.00503603 0.0037473,0.00321819 0.00629286,0.00713075 0.0079208,0.0114376l0 -0.00524042c0,-0.00214546 0.000327617,-0.00430976 0.00124379,-0.00626532 0.00104519,-0.00223244 0.0027775,-0.0039575 0.00502008,-0.00497949 0.00193526,-0.000881377 0.00406187,-0.00119305 0.00617399,-0.00119305l0.0254251 0c0.00283548,0 0.00561443,0.000708871 0.00775699,0.00265863l3.33416e-005 3.18919e-005c0.00051317,0.00047403 0.000964006,0.00098865 0.00135106,0.00153806 0.00031602,-0.000526217 0.000681328,-0.00103069 0.00109737,-0.00150762 0.000748011,-0.000853834 0.00159605,-0.00155546 0.00251946,-0.00210487 -0.000176855,-5.07372e-005 -0.000353711,-0.000101474 -0.000530566,-0.000155111 -0.00476494,-0.00142064 -0.00913994,-0.0037589 -0.0127031,-0.00727426 -0.00351826,-0.00349362 -0.00586232,-0.00783092 -0.00730325,-0.0125611 -0.0015801,-0.00525782 -0.00209762,-0.0109259 -0.00209762,-0.0163983l0 -0.0306076zm-0.180475 0.0869983c-0.000244988,0.00363133 -0.00143369,0.00677994 -0.00340809,0.00940377 0.00134671,0.0011945 0.00249337,0.0025528 0.00340809,0.00407492l0 -0.0134787zm0.328272 0.0247394c0.000447937,0.000327617 0.000878478,0.000690025 0.00128727,0.00109012 0.00220344,0.00215271 0.0033675,0.00493455 0.0033675,0.00801357 0,0.00322978 -0.0011684,0.00620008 -0.00359944,0.00835569 -0.00215995,0.00191352 -0.00480119,0.00291811 -0.00768741,0.00291811 -0.00286737,0 -0.00551296,-0.000982851 -0.00768306,-0.00285868 -0.00248757,-0.00215271 -0.00366467,-0.00515055 -0.00366467,-0.00841512 0,-0.00304713 0.00112637,-0.00581013 0.00328342,-0.00796574 0.00035516,-0.00035661 0.000729166,-0.000684227 0.00111767,-0.000984301 -0.000504472,-0.000597249 -0.000937913,-0.00127713 -0.00128727,-0.00203529 -0.000968355,-0.00210342 -0.00137135,-0.00460838 -0.0015975,-0.00689881l-8.6978e-006 -9.13269e-005 -0.00117275 -0.0175058c-0.00015801,-0.00252381 -0.000334865,-0.00512735 -0.000334865,-0.00765696 0,-0.00322688 0.00090892,-0.00629866 0.00314425,-0.008692 0.00222229,-0.00237885 0.00518679,-0.00353711 0.00842672,-0.00353711 0.00401548,0 0.00759898,0.00172651 0.00941102,0.00541728 0.00131772,0.00267892 0.00165258,0.00585652 0.00165258,0.00880652 0,0.00181059 -0.000100025,0.00361684 -0.000287027,0.00541728l-0.00155546 0.0178174c-0.000179755,0.00236145 -0.000605947,0.00486062 -0.00165983,0.00701333 -0.000324718,0.000656684 -0.00071177,0.00125538 -0.00115246,0.00179175zm-0.359166 -0.00409231l0 0.00388212 0.00574635 0c0.000863981,0 0.00432716,-0.000163809 0.0049244,-0.000992999 0.000150762,-0.000207298 0.000178305,-0.000824841 0.000178305,-0.00105968 0,-0.0001986 -2.17445e-005,-0.000717569 -0.00011742,-0.000924866 -7.24817e-006,-4.3489e-006 -1.30467e-005,-8.6978e-006 -2.02949e-005,-1.44963e-005 -0.00123799,-0.000766856 -0.00393865,-0.000890075 -0.0053245,-0.000890075l-0.00538684 0zm0 -0.0215082l0 0.00210922 0.00404883 0c0.00120609,0 0.00315585,-4.49386e-005 0.00430831,-0.000445037 1.5946e-005,-5.79853e-006 2.7543e-005,-7.24817e-006 4.3489e-005,-1.44963e-005 4.20394e-005,-4.05897e-005 8.84276e-005,-0.000130467 0.000115971,-0.000179755l5.21868e-005 -9.56758e-005 5.50861e-005 -9.27765e-005c7.39313e-005,-0.000121769 7.97298e-005,-0.000295725 7.97298e-005,-0.000430541 0,-6.95824e-005 -1.44963e-006,-0.000162359 -5.79853e-006,-0.000260934 -0.00164678,-0.000517519 -0.00429236,-0.000590001 -0.00577824,-0.000590001l-0.00291956 0zm0.151074 0.00043344l0 0.0244858 0.00233826 0c0.0011974,0 0.00245568,-5.79853e-006 0.00364873,-0.000121769 0.000598699,-5.79853e-005 0.0011916,-0.000205848 0.00175985,-0.000404448 0.000339214,-0.000126118 0.000678428,-0.000295725 0.000952409,-0.000534915l3.76905e-005 -3.33416e-005 3.76905e-005 -3.18919e-005c0.00290217,-0.00245278 0.00335155,-0.00782512 0.00335155,-0.0113144 0,-0.00247018 -0.000210197,-0.00660598 -0.00153516,-0.00878913 -0.0005929,-0.000978503 -0.00144963,-0.00208602 -0.00259049,-0.00244698 -0.00211646,-0.000637839 -0.00451706,-0.000808895 -0.00671615,-0.000808895l-0.00128438 0zm-0.062443 -0.0361249l-0.0121102 -0.0481612 0 0.0521911c0,0.00288767 -0.000650885,0.00505197 -0.00193671,0.00649581 -0.00128438,0.00144383 -0.00299204,0.0021643 -0.00512155,0.0021643 -0.00207732,0 -0.00374875,-0.000720468 -0.00506937,-0.00214691 -0.00130322,-0.00142499 -0.00195411,-0.00359074 -0.00195411,-0.0065132l0 -0.0598133c0,-0.00330951 0.000862532,-0.00552745 0.0025702,-0.00668861 0.00172506,-0.00114376 0.00404738,-0.00172506 0.00696984,-0.00172506l0.00475335 0c0.00285143,0 0.00491136,0.000263833 0.00621313,0.000774104 0.00128582,0.000510271 0.00223533,0.00144383 0.00285143,0.00278185 0.000616094,0.00133801 0.00132062,0.00351971 0.00211212,0.00654799l0.0109853 0.0414189 0.0109839 -0.0414189c0.0007915,-0.00302828 0.00149602,-0.00520998 0.00211212,-0.00654799 0.000616094,-0.00133801 0.00156705,-0.00227158 0.00286882,-0.00278185 0.00128582,-0.000510271 0.0033617,-0.000774104 0.00621458,-0.000774104l0.0047345 0c0.00292246,0 0.00524477,0.000581303 0.00696984,0.00172506 0.00170767,0.00116116 0.0025702,0.0033791 0.0025702,0.00668861l0 0.0598133c0,0.00288767 -0.000650885,0.00505197 -0.00193671,0.00649581 -0.00128438,0.00144383 -0.00300944,0.0021643 -0.00517374,0.0021643 -0.00204253,0 -0.00369657,-0.000720468 -0.00501718,-0.0021643 -0.00130322,-0.00144383 -0.00195411,-0.00360814 -0.00195411,-0.00649581l0 -0.0521911 -0.0121102 0.0481612c-0.000792949,0.00313266 -0.00144383,0.00542163 -0.00193671,0.00688141 -0.000492875,0.00146123 -0.00142499,0.00279924 -0.002763,0.00399664 -0.00133801,0.00121479 -0.00318629,0.00181204 -0.00556224,0.00181204 -0.0017961,0 -0.00329212,-0.000387052 -0.0045417,-0.00116116 -0.00123219,-0.000774104 -0.00220054,-0.00175985 -0.00288767,-0.00295725 -0.000685677,-0.00121479 -0.00123219,-0.00253396 -0.00161924,-0.00399519 -0.000387052,-0.00146123 -0.0007915,-0.00299204 -0.00121479,-0.00457649zm-0.0824377 0.0750069l-0.0162765 0c-0.00234261,0 -0.00401693,-0.000520418 -0.00502008,-0.0015743 -0.0010046,-0.00105243 -0.00151342,-0.00273836 -0.00151342,-0.00503168l0 -0.0400287c0,-0.00234261 0.000508821,-0.00402853 0.00153806,-0.00505777 0.00102924,-0.00102924 0.00270212,-0.00154966 0.00499544,-0.00154966l0.0172564 0c0.00253976,0 0.0047345,0.000160909 0.00660598,0.000471131 0.00185988,0.000310222 0.00353421,0.000917618 0.00500848,0.00181059 0.00126408,0.000755259 0.00236725,0.00171057 0.0033472,0.00286303 0.000966905,0.00114086 0.00169897,0.00241799 0.00220634,0.00380529 0.000508821,0.0014018 0.000768306,0.00286448 0.000768306,0.00441413 0,0.0053303 -0.00266443,0.00923416 -0.00799473,0.0117014 0.00700318,0.00221939 0.0104997,0.00655814 0.0104997,0.0130047 0,0.00297465 -0.000768306,0.00565212 -0.00229332,0.00803242 -0.00152501,0.0023919 -0.00358349,0.0041532 -0.00617399,0.00529261 -0.00162359,0.000669731 -0.00348347,0.00115391 -0.00558979,0.00142644 -0.00210777,0.000284128 -0.004562,0.000420394 -0.00736414,0.000420394zm-0.000805996 -0.0236392l-0.0112187 0 0 0.0155444 0.0115782 0c0.00728876,0 0.0109331,-0.00262674 0.0109331,-0.00788311 0,-0.00269052 -0.000942262,-0.00463738 -0.00282534,-0.00585217 -0.00189757,-0.00120175 -0.00471131,-0.00180914 -0.00846731,-0.00180914zm-0.0112187 -0.0215082l0 0.013773 0.0098807 0c0.00267747,0 0.00475915,-0.000260934 0.00622183,-0.000768306 0.00146268,-0.000508821 0.0025789,-0.00147573 0.00336025,-0.00290072 0.000607396,-0.00101764 0.000904571,-0.00215705 0.000904571,-0.00342113 0,-0.00269052 -0.000953859,-0.00447647 -0.00286303,-0.0053564 -0.00192221,-0.000879927 -0.00483453,-0.00132641 -0.00875289,-0.00132641l-0.00875144 0zm0.0533422 -0.00246583l0 0.0387501 0.0218663 0c0.00173521,0 0.00307467,0.000421843 0.00400389,0.00127713 0.000942262,0.000843687 0.0014018,0.00190917 0.0014018,0.00318629 0,0.00131337 -0.000459534,0.00236725 -0.00137715,0.00318484 -0.000916168,0.000805996 -0.00226723,0.00121479 -0.00402853,0.00121479l-0.0260441 0c-0.00234261,0 -0.00404158,-0.000520418 -0.00507082,-0.00156126 -0.00102779,-0.00104084 -0.00153661,-0.00272676 -0.00153661,-0.00504472l0 -0.0410072c0,-0.0021701 0.000495775,-0.00380674 0.00147428,-0.00489686 0.000979952,-0.00109157 0.00226868,-0.00163664 0.00386907,-0.00163664 0.00161054,0 0.00292536,0.000533465 0.00392851,0.00161199 0.0010046,0.00107853 0.00151342,0.00272676 0.00151342,0.00492151zm0.0674485 0.0415769l-0.00254121 -0.00668136 -0.0216445 0 -0.00254121 0.00683067c-0.0010046,0.00266443 -0.00184683,0.00446197 -0.00255425,0.00539119 -0.000694374,0.000930665 -0.00184683,0.0014018 -0.00344578,0.0014018 -0.00135106,0 -0.00255425,-0.000495775 -0.00359509,-0.00148732 -0.00104084,-0.000992999 -0.00156126,-0.00212081 -0.00156126,-0.00338489 0,-0.000719018 0.000123219,-0.00147573 0.000359509,-0.00224403 0.000247887,-0.000779903 0.000643637,-0.00185988 0.00120175,-0.00323558l0.0136237 -0.0345723c0.000384153,-0.000992999 0.000855284,-0.00218315 0.00140035,-0.00357045 0.000546512,-0.0014018 0.00111622,-0.00255425 0.00173666,-0.00347187 0.000618993,-0.000917618 0.00143659,-0.00166128 0.00244118,-0.00223099 0.0010046,-0.000569706 0.00224403,-0.000855284 0.00371976,-0.000855284 0.00149892,0 0.0027514,0.000285578 0.003756,0.000855284 0.00100315,0.000569706 0.00182219,0.00130177 0.00244118,0.00219474 0.000607396,0.000891525 0.00112781,0.00185843 0.0015627,0.00288767 0.000420394,0.00102924 0.000953859,0.00240494 0.00161054,0.00411551l0.0139092 0.0343636c0.00109012,0.00261514 0.00163664,0.00451126 0.00163664,0.00570141 0,0.00122784 -0.000520418,0.00235565 -0.00154966,0.00338489 -0.00102924,0.00102779 -0.00226868,0.00154966 -0.00371976,0.00154966 -0.000842237,0 -0.0015743,-0.000149312 -0.0021817,-0.000459534 -0.000607396,-0.000297175 -0.00111477,-0.000705971 -0.00152356,-0.00122639 -0.000410246,-0.000520418 -0.000856733,-0.00132641 -0.00132641,-0.00240494 -0.000471131,-0.00107853 -0.000881377,-0.00202079 -0.00121479,-0.00285143zm-0.0213589 -0.0147761l0.0159155 0 -0.00803242 -0.0219663 -0.00788311 0.0219663zm0.0474653 -0.0324297l0.0140571 0c0.00365742,0 0.00679298,0.000334865 0.00940957,0.00101619 0.00261514,0.000682777 0.00498239,0.00194686 0.0071148,0.00380674 0.0055405,0.00474755 0.008318,0.0119624 0.008318,0.0216561 0,0.00319789 -0.000272531,0.00611165 -0.00083064,0.00875144 -0.000558109,0.00264123 -0.00142499,0.00502153 -0.0025789,0.00714089 -0.00116551,0.00211936 -0.00265283,0.00401693 -0.00447502,0.00567676 -0.00142499,0.00129017 -0.00298769,0.00231796 -0.00468522,0.00308772 -0.00168592,0.000781352 -0.00350811,0.00132641 -0.00546657,0.00163664 -0.00194686,0.000308772 -0.0041416,0.000469681 -0.00658279,0.000469681l-0.0140571 0c-0.0019599,0 -0.00344723,-0.000297175 -0.00443878,-0.000891525 -0.000991549,-0.000595799 -0.00163664,-0.00142644 -0.00193381,-0.00250497 -0.000310222,-0.00107853 -0.000458084,-0.00247887 -0.000458084,-0.00418944l0 -0.0390488c0,-0.00231796 0.000520418,-0.00400389 0.00156126,-0.00504472 0.00104229,-0.00104229 0.00272821,-0.0015627 0.00504617,-0.0015627zm0.00417639 0.00852964l0 0.0361466 0.00817013 0c0.00179755,0 0.00319789,-4.92875e-005 0.00421408,-0.000147863 0.00101764,-0.000100025 0.00207008,-0.000334865 0.00316165,-0.000719018 0.00109012,-0.0003972 0.00203239,-0.000942262 0.00282679,-0.00163664 0.00360669,-0.00305003 0.00541728,-0.00830495 0.00541728,-0.0157677 0,-0.00525637 -0.000794399,-0.00919792 -0.0023803,-0.0118145 -0.00158735,-0.00261514 -0.0035458,-0.00427642 -0.00586377,-0.00499544 -0.00233101,-0.000705971 -0.0051317,-0.00106548 -0.00842962,-0.00106548l-0.00711625 0zm0.0760028 -0.000211646l-0.0212473 0 0 0.0136237 0.0177638 0c0.00163664,0 0.00287607,0.000372556 0.00368207,0.00110317 0.000805996,0.000743662 0.00121479,0.00172361 0.00121479,0.00296305 0,0.00123944 -0.000408797,0.00221939 -0.00122784,0.00293841 -0.00083064,0.000730615 -0.00205703,0.00109012 -0.00366902,0.00109012l-0.0177638 0 0 0.0175406c0,0.00221939 -0.000508821,0.00388067 -0.00151197,0.0049592 -0.0010046,0.00107853 -0.00229332,0.00161199 -0.00386762,0.00161199 -0.00158735,0 -0.00288912,-0.000546512 -0.00389372,-0.00163664 -0.00100315,-0.00109157 -0.00151197,-0.00273981 -0.00151197,-0.00493455l0 -0.0409695c0,-0.00154966 0.00023629,-0.00281374 0.000694374,-0.00379224 0.000459534,-0.000979952 0.0011771,-0.00169897 0.00215705,-0.00214546 0.000979952,-0.000446487 0.00223099,-0.000669731 0.003756,-0.000669731l0.0254251 0c0.00172361,0 0.00299929,0.000384153 0.00382993,0.00114086 0.00083064,0.000768306 0.00125248,0.00175985 0.00125248,0.00299929 0,0.00126553 -0.000421843,0.00226868 -0.00125248,0.00303843 -0.00083064,0.000755259 -0.00210632,0.00113941 -0.00382993,0.00113941zm0.023974 -0.00268907l0 0.0186684 0.0211733 -0.0220779c0.00101619,-0.00106548 0.00188452,-0.00184683 0.00259049,-0.00235565 0.000719018,-0.000507372 0.00167433,-0.000768306 0.00285143,-0.000768306 0.00154966,0 0.00281374,0.000459534 0.00376905,0.0013641 0.000953859,0.000904571 0.00142499,0.00200774 0.00142499,0.00332111 0,0.00157575 -0.000805996,0.00313701 -0.00242959,0.00468666l-0.0131032 0.0124205 0.0150994 0.0216445c0.00106548,0.00150037 0.00187148,0.00281374 0.00240494,0.00392996 0.000532015,0.00112781 0.000792949,0.00223099 0.000792949,0.00329792 0,0.0011771 -0.000471131,0.00220634 -0.00140035,0.00308627 -0.000930665,0.000866881 -0.00219474,0.00130177 -0.00379369,0.00130177 -0.00150037,0 -0.00272676,-0.000323268 -0.00366902,-0.000966905 -0.000942262,-0.00063204 -0.00173521,-0.00148877 -0.00239334,-0.00255425 -0.000656684,-0.00106548 -0.00123944,-0.00203239 -0.00174681,-0.00290072l-0.0127437 -0.0196106 -0.00882682 0.00845426 0 0.0110071c0,0.00223244 -0.000507372,0.00388067 -0.00152501,0.0049592 -0.00101619,0.00107853 -0.00232956,0.00161199 -0.00391691,0.00161199 -0.000929215,0 -0.00180914,-0.000247887 -0.00265283,-0.000732065 -0.000855284,-0.000482728 -0.00150037,-0.00112781 -0.00195845,-0.00195845 -0.000346462,-0.000669731 -0.000545062,-0.00146268 -0.000618993,-0.00235565 -7.53809e-005,-0.000892974 -0.000111622,-0.0021933 -0.000111622,-0.00389227l0 -0.0395808c0,-0.0021701 0.000482728,-0.00380674 0.00143659,-0.00489686 0.000955308,-0.00109157 0.00225708,-0.00163664 0.00390531,-0.00163664 0.00161199,0 0.00292536,0.000533465 0.00392996,0.00161199 0.0010046,0.00107853 0.00151197,0.00272676 0.00151197,0.00492151zm0.0582506 -6.23342e-005l0.0207269 0.0313744 0 -0.0316716c0,-0.00205848 0.000446487,-0.00359509 0.00132641,-0.00462433 0.000879927,-0.00102924 0.00207008,-0.00154966 0.00358204,-0.00154966 0.00154966,0 0.00276445,0.000508821 0.00367047,0.00153661 0.000891525,0.00102924 0.00133801,0.0025789 0.00133801,0.00463738l0 0.0418741c0,0.00467362 -0.00193381,0.00700463 -0.00581448,0.00700463 -0.000965456,0 -0.00183379,-0.000136266 -0.00261514,-0.000421843 -0.000768306,-0.000272531 -0.00149892,-0.000719018 -0.0021817,-0.00132641 -0.000669731,-0.00059435 -0.00130177,-0.00131482 -0.00188452,-0.00211936 -0.000582753,-0.000805996 -0.00116406,-0.00163664 -0.00174681,-0.00249192l-0.0202195 -0.0310033 0 0.0311889c0,0.00203384 -0.000471131,0.00357045 -0.00141194,0.00461128 -0.000942262,0.00104084 -0.00215705,0.0015627 -0.00363278,0.0015627 -0.00152501,0 -0.0027514,-0.000521868 -0.00366902,-0.0015743 -0.000917618,-0.00105388 -0.0013757,-0.00259194 -0.0013757,-0.00459969l0 -0.0410696c0,-0.00174681 0.00019715,-0.00311091 0.000581303,-0.00410246 0.000459534,-0.00109157 0.00121624,-0.0019831 0.00228172,-0.00267747 0.00106548,-0.000681328 0.00221939,-0.00102924 0.00345883,-0.00102924 0.000966905,0 0.0017845,0.000160909 0.00247887,0.000471131 0.000694374,0.000310222 0.00130177,0.000743662 0.00182219,0.00127713 0.000520418,0.000532015 0.00104084,0.00121479 0.00158735,0.00207008 0.000545062,0.000842237 0.00111477,0.00172216 0.00169752,0.00265283zm0.0450358 0.0246061l-0.00116551 -0.0173913c-0.000210197,-0.00338489 -0.000321819,-0.00581448 -0.000321819,-0.00728876 0,-0.00202079 0.000520418,-0.00358349 0.0015743,-0.00471131 0.00105388,-0.00112781 0.00244263,-0.00168592 0.0041648,-0.00168592 0.00208312,0 0.00347187,0.000719018 0.00417784,0.00215705 0.000707421,0.00143804 0.00105388,0.00351971 0.00105388,0.00623487 0,0.00159895 -8.6978e-005,0.00321094 -0.000259484,0.00485917l-0.0015627 0.0179015c-0.000160909,0.00213096 -0.000520418,0.0037676 -0.00107853,0.00490846 -0.000558109,0.00112781 -0.00148732,0.00169897 -0.00276445,0.00169897 -0.00131337,0 -0.00221939,-0.000546512 -0.00272676,-0.00164968 -0.000508821,-0.00110317 -0.00086833,-0.00277605 -0.00109157,-0.00503313zm0.00402853 0.0239001c-0.00147428,0 -0.00276445,-0.000482728 -0.00386762,-0.00143804 -0.00110317,-0.000953859 -0.00164823,-0.00229332 -0.00164823,-0.00400389 0,-0.00151197 0.000520418,-0.00278909 0.0015743,-0.00384298 0.00105388,-0.00105243 0.00234261,-0.0015743 0.00388067,-0.0015743 0.00152356,0 0.00282534,0.000521868 0.00390386,0.0015743 0.00107853,0.00105388 0.00161199,0.00233101 0.00161199,0.00384298 0,0.00168592 -0.000545062,0.00302538 -0.00163664,0.00399229 -0.00109012,0.000966905 -0.00235565,0.00144963 -0.00381833,0.00144963zm-0.152355 -0.127395l-0.0167041 0 0 0.0549194c0,0.00315005 -0.000704522,0.00551006 -0.00211357,0.00704087 -0.00140759,0.00153081 -0.00323848,0.00228752 -0.00547382,0.00228752 -0.00225273,0 -0.00410101,-0.000774104 -0.00552745,-0.00232231 -0.00142499,-0.00154966 -0.00214691,-0.00389082 -0.00214691,-0.00700608l0 -0.0549194 -0.0167056 0c-0.00262239,0 -0.0045591,-0.000581303 -0.00582608,-0.00172506 -0.00128438,-0.00116261 -0.00191786,-0.00267602 -0.00191786,-0.00457794 0,-0.00195411 0.000668281,-0.00350231 0.0019889,-0.00462868 0.00131917,-0.00114376 0.00323848,-0.00170767 0.00575504,-0.00170767l0.0486714 0c0.00265863,0 0.00461128,0.000581303 0.0059145,0.00175985 0.00128438,0.00116261 0.00193671,0.00269342 0.00193671,0.00457649 0,0.00190192 -0.000669731,0.00341534 -0.0019715,0.00457794 -0.00130322,0.00114376 -0.00325733,0.00172506 -0.00587971,0.00172506zm0.0170216 0.0317194l0 -0.036367c0,-0.00308047 0.000704522,-0.00540423 0.00209472,-0.00695389 0.0013902,-0.00154821 0.00322109,-0.00232231 0.00549266,-0.00232231 0.00235855,0 0.00424163,0.000774104 0.00563183,0.00232231 0.00139165,0.00154966 0.00209472,0.00387342 0.00209472,0.00695389l0 0.0371932c0,0.00422568 0.00047548,0.00776279 0.00142644,0.0105968 0.000933564,0.00283403 0.00260499,0.00503458 0.00501718,0.00660163 0.00241074,0.00156705 0.00577244,0.00234116 0.0101039,0.00234116 0.00598409,0 0.0102083,-0.00158445 0.0126915,-0.00477074 0.00248177,-0.00318629 0.00371396,-0.00800922 0.00371396,-0.0144688l0 -0.0374933c0,-0.00311526 0.000685677,-0.00545642 0.00205848,-0.00698868 0.0013728,-0.00153081 0.00322253,-0.00228752 0.00552745,-0.00228752 0.00228897,0 0.00415465,0.000756709 0.00557964,0.00228752 0.00142644,0.00153226 0.00214836,0.00387342 0.00214836,0.00698868l0 0.036367c0,0.0059145 -0.000581303,0.0108433 -0.00172506,0.0147863 -0.00116261,0.0039604 -0.00332691,0.00742792 -0.0065306,0.01042 -0.00274561,0.0025528 -0.0059493,0.00440109 -0.00959367,0.00556224 -0.00364438,0.00118 -0.0079034,0.00175985 -0.01278,0.00175985 -0.00580868,0 -0.010807,-0.00063349 -0.0150139,-0.00188307 -0.00418944,-0.00124958 -0.00760478,-0.00320369 -0.0102634,-0.00582608 -0.00263978,-0.00262239 -0.00457649,-0.00600293 -0.00582608,-0.0101039 -0.00123219,-0.00410101 -0.00184828,-0.00901237 -0.00184828,-0.0147152z"/>
 </g>
</svg>
