<?xml version="1.0" encoding="UTF-8"?>
<!DOCTYPE svg PUBLIC "-//W3C//DTD SVG 1.1//EN" "http://www.w3.org/Graphics/SVG/1.1/DTD/svg11.dtd">
<!-- Creator: CorelDRAW -->
<svg xmlns="http://www.w3.org/2000/svg" xml:space="preserve" width="25in" height="39in" style="shape-rendering:geometricPrecision; text-rendering:geometricPrecision; image-rendering:optimizeQuality; fill-rule:evenodd; clip-rule:evenodd"
viewBox="0 0 0.594986 0.266974"
 xmlns:xlink="http://www.w3.org/1999/xlink">
 <defs>
  <style type="text/css">
   <![CDATA[
    .fil0 {fill:#0A0B0C}
   ]]>
  </style>
 </defs>
 <g id="Layer_x0020_1">
  <metadata id="CorelCorpID_0Corel-Layer"/>
  <path class="fil0" d="M0.123074 0.197992l-0.00246752 0.000726977 -0.00309228 0.000756591 -0.00121991 0.000669659 -0.00121991 0.000669659 -0.00184371 0.000697363 -0.00121991 0.000669659 -0.000596102 0.000640045 -0.00121895 0.000669659 -0.000596102 0.000640045 -0.000596102 0.000640045 -0.00121895 0.000669659 -0.000596102 0.000640045 -0.000595146 0.000640045 -0.00121991 0.000669659 -0.000596102 0.000640045 -0.000596102 0.000640045 -0.000595146 0.000640045 -0.000567443 0.00125048 -0.000595146 0.000640045 -0.000596102 0.000641 -0.000595146 0.000640045 -0.000567443 0.00125048 -0.000595146 0.000640045 -0.000596102 0.000640045 -0.000538784 0.00186282 -0.000566488 0.00125048 -0.000596102 0.000640045 -0.000538784 0.00186282 -0.000566488 0.00125143 -0.000538784 0.00186186 -0.000452808 0.00369507 -0.000453763 0.00369507 0.000228315 0.00488822 0.000795758 0.00363679 0.000794802 0.00363679 0.000681123 0.0011922 0.000709781 0.00180454 0.000709781 0.00180359 0.000652464 0.000581772 0.000681123 0.00119316 0.000709781 0.00180359 0.000653419 0.000581772 0.000652464 0.000581772 0.000681123 0.00119316 0.000652464 0.000581772 0.000652464 0.000581772 0.000653419 0.000581772 0.000681123 0.00119316 0.000652464 0.000581772 0.000652464 0.000581772 0.000652464 0.000581772 0.00127722 0.000553114 0.000652464 0.000581772 0.000652464 0.000581772 0.000653419 0.000581772 0.00127627 0.000552158 0.000653419 0.000582728 0.00127627 0.000552158 0.000652464 0.000581772 0.00127722 0.000553114 0.00190103 0.0005235 0.000652464 0.000581772 0.00127627 0.000553114 0.00314959 0.000465227 0.00190103 0.0005235 0.00252579 0.000494841 0.00998661 -0.000466182 0.00309228 -0.000757546 0.00184371 -0.000697363 0.00246752 -0.000727932 0.00122086 -0.000669659 0.00121895 -0.000668704 0.00184467 -0.000699273 0.000595146 -0.00063909 0.00121991 -0.000669659 0.00121991 -0.000669659 0.000595146 -0.000640045 0.000596102 -0.000640045 0.00121991 -0.000668704 -5.73175e-005 -0.00122182 0.00124857 -5.82728e-005 0.000595146 -0.000640045 0.000596102 -0.000641 0.000596102 -0.000640045 0.000595146 -0.000640045 0.000595146 -0.000640045 0.000596102 -0.000640045 0.000595146 -0.000640045 0.000567443 -0.00125143 0.000596102 -0.000640045 0.000595146 -0.000640045 0.000567443 -0.00125143 0.000566488 -0.00125048 0.000596102 -0.000641 0.000538784 -0.00186186 0.000567443 -0.00125048 0.00050917 -0.00247325 0.000567443 -0.00125143 0.000538784 -0.00186186 -0.000741306 -0.0158865 -0.000709781 -0.00180359 -0.000709781 -0.00180359 -0.000709781 -0.00180359 -0.000681123 -0.00119316 -0.000681123 -0.00119316 -0.000681123 -0.00119316 -0.000652464 -0.000581772 -0.000682078 -0.0011922 -0.000681123 -0.00119316 -0.000652464 -0.000581772 -0.000681123 -0.00119316 -0.000652464 -0.000581772 -0.00124857 5.82728e-005 -5.73175e-005 -0.00122182 -0.000652464 -0.000581772 -0.00124857 5.82728e-005 -5.63622e-005 -0.00122182 -0.00127722 -0.000553114 -0.000681123 -0.00119316 -0.00187237 8.78868e-005 -5.73175e-005 -0.00122182 -0.00127627 -0.000553114 -0.00127722 -0.000552158 -0.00127722 -0.000553114 -0.000652464 -0.000581772 -0.00190103 -0.0005235 -0.00127722 -0.000553114 -0.00127627 -0.000553114 -0.00252579 -0.000493886 -0.00314864 -0.000465227 -0.00314959 -0.000465227 -0.00624092 0.000291364 -0.00309323 0.000756591zm0.257561 0.0234925l-0.000168131 0.00980511 0.000228315 0.00488822 0.00127627 0.000552158 0.00627053 0.000320023 0.00436855 -0.000203477 0.000567443 -0.00125143 -0.000170997 -0.00366545 -0.00190103 -0.000524455 -0.00504585 0.000224493 0.000619984 -0.00124188 0.00561711 -0.000262705 0.000567443 -0.00125143 -0.000143294 -0.00305407 -0.00624092 0.000291364 -8.31103e-005 -0.00191058 0.00377053 0.000512991 0.00312094 -0.000145204 0.000596102 -0.000640045 -0.000199656 -0.00427779 -0.00314959 -0.000464271 -0.00564577 -0.000348681 -0.00374474 0.000174818 -0.000510125 0.00247229zm-0.0505578 0.00236052l0.00445548 -0.000197745 -0.000596102 0.00246656 0.000456629 0.00977549 0.00561711 -0.00026175 -0.000570309 -0.0122201 0.0043695 -0.000203477 -0.000199656 -0.00427779 -0.00127722 -0.000552158 -0.0106391 -0.00011559 -0.00187237 8.69315e-005 0.000256018 0.00549961zm-0.113796 0.00102503l0.000227359 0.00488822 0.00499331 -0.000233091 0.000571264 0.0122191 0.00311998 -0.000145204 0.00246847 -0.000727932 -0.000170997 -0.00366545 -0.000966755 -0.0073032 -0.000681123 -0.0011922 0.00499331 -0.000233091 -0.000228315 -0.00488822 -0.00187237 8.69315e-005 -0.0124541 0.00119411zm0.102337 0.00808176l0.000143294 0.00305502 0.00502101 0.000378295 0.00686663 -0.000320978 0.000595146 -0.000640045 -0.000199656 -0.00427684 -0.000652464 -0.000581772 -0.00624187 0.000291364 -0.000570309 -0.0122201 -0.00499331 0.000233091 3.15246e-005 0.0140819zm-0.125941 -0.00453095l-0.000481467 0.00308464 -0.000567443 0.00125048 -0.000566488 0.00125143 -0.000653419 -0.000581772 -0.000709781 -0.00180359 -0.000652464 -0.000582728 -0.000652464 -0.000581772 -0.000709781 -0.00180359 -0.00561711 0.000262705 0.000199656 0.00427684 0.00085212 0.00485861 0.000994458 0.00791363 0.000653419 0.000581772 0.000623805 -2.86587e-005 0.00434084 -0.000814863 -0.000114635 -0.00244459 -0.00011368 -0.00244363 8.50209e-005 0.0018332 0.0043695 -0.000204432 0.000595146 -0.000640045 0.000538784 -0.00186186 0.000228315 0.00488822 0.00187237 -8.78868e-005 0.00371704 -0.000786205 -8.59762e-005 -0.00183225 -0.000823461 -0.00424818 -0.000938096 -0.00669181 -0.000795758 -0.00363679 -0.00499331 0.000233091 -0.000595146 0.000640045zm0.107866 -0.00748375l0.000512991 0.0109983 0.000709781 0.00180359 0.000653419 0.000581772 0.000681123 0.0011922 0.00190007 0.000524455 0.00127722 0.000552158 0.00499331 -0.000233091 0.00121991 -0.000668704 0.00121991 -0.000669659 0.000595146 -0.000640045 0.000596102 -0.000640045 0.000538784 -0.00186186 8.2155e-005 -0.0116383 -5.73175e-005 -0.00122182 -0.000652464 -0.000581772 -0.00499331 0.000233091 0.000595146 0.0129108 -0.00314577 -0.000545471 -0.00119411 -0.0121905 -0.00499331 0.000233091 -0.000538784 0.00186186zm-0.0549837 0.00134123l0.000228315 0.00488822 0.0043695 -0.000203477 0.000570309 0.0122191 0.00561807 -0.00026175 -0.000199656 -0.00427684 -0.00102407 -0.00852502 0.0043695 -0.000204432 -0.000228315 -0.00488727 -0.00624187 0.000291364 -0.00746178 0.000960068zm0.101232 0.011196l0.000652464 0.000581772 0.000652464 0.000581772 0.000652464 0.000581772 0.00127722 0.000552158 0.00190103 0.000524455 0.00374474 -0.000174818 0.00121991 -0.000669659 0.00184371 -0.000698318 0.000596102 -0.000640045 0.000595146 -0.000640045 0.000538784 -0.00186186 0.000396446 -0.00491784 -0.000399312 -0.00855368 -0.00499331 0.000233091 -0.000538784 0.00186186 -0.000139473 0.0104165 -0.00249618 0.000116546 -0.000399312 -0.00855368 -0.000170997 -0.00366641 -0.00561807 0.00026175 0.000684944 0.0146647zm0.0170481 -0.00998088l-0.00031047 0.00675009 0.000285632 0.00611004 0.00499331 -0.000233091 2.00611e-005 -0.00560374 0.000404088 0.00129729 0.000681123 0.00119316 0.000681123 0.00119316 0.00124857 -5.82728e-005 8.59762e-005 0.00183225 0.0037734 0.000436568 0.00311998 -0.00014616 -2.77034e-005 -0.000610431 -0.000709781 -0.00180359 -0.000652464 -0.000582728 -0.000653419 -0.000581772 -0.000681123 -0.0011922 -0.000652464 -0.000581772 -2.86587e-005 -0.000611386 0.000595146 -0.000640045 0.000596102 -0.000640045 0.000596102 -0.000640045 0.000566488 -0.00125143 -0.000256018 -0.00549866 -0.000653419 -0.000581772 -0.000652464 -0.000582728 -0.000652464 -0.000581772 -0.000652464 -0.000581772 -0.00252579 -0.000493886 -0.00564577 -0.000348681 -0.00249618 0.000116546 -0.000396446 0.00491688zm0.00763278 0.00270538l-0.00124857 5.82728e-005 -0.00124857 5.82728e-005 -0.000109858 -0.00252483 0.00314577 0.000546427 5.63622e-005 0.00122182 -0.000595146 0.000640045zm-0.136466 -0.0022029l-0.000538784 0.00186186 -0.000538784 0.00186186 -0.000510125 0.00247325 -0.000566488 0.00125143 -0.000538784 0.00186186 -0.000481467 0.00308464 -0.000596102 0.000640045 -0.000510125 0.00247325 2.86587e-005 0.000610431 0.000652464 0.000581772 0.00499331 -0.000233091 0.000596102 -0.000640045 -0.000140428 -0.0031324 0.00377053 0.000513947 0.000682078 0.00119316 0.000709781 0.00180359 0.00561711 -0.000262705 -8.59762e-005 -0.00183225 -0.000681123 -0.00119316 -0.000709781 -0.00180359 -0.000681123 -0.00119316 -0.000681123 -0.00119316 -0.000708826 -0.00180359 -0.000710737 -0.00180359 -0.000681123 -0.00119316 -0.000709781 -0.00180359 -0.000681123 -0.00119316 -0.000681123 -0.00119316 -0.000652464 -0.000581772 -0.0043695 0.000204432 -0.000595146 0.000640045zm0.00286683 0.0078267c0.000602789,-0.000647687 0.00230034,0.00075468 0.000749904,0.000299006 -2.86587e-006,0 -0.000102216,-2.67482e-005 -0.000108903,-2.9614e-005 -4.29881e-005,-1.62399e-005 -0.000797668,-0.000101261 -0.000641,-0.000269392zm0.0244564 0.00130779l0.000709781 0.00180359 0.000681123 0.00119316 0.000653419 0.000581772 0.000652464 0.000581772 0.00127627 0.000552158 0.00127722 0.000553114 0.0043695 -0.000204432 0.00121895 -0.000668704 0.00184467 -0.000698318 0.000567443 -0.00125143 0.000595146 -0.000640045 0.000595146 -0.000640045 -0.00065533 -0.0140533 -0.00499331 0.000233091 -5.34963e-005 0.0122497 -0.00312094 0.000145204 -0.00119507 -0.0121905 -0.00499331 0.000233091 0.000570309 0.0122201zm-0.0565446 -0.00532097l-0.000567443 0.00125048 -0.000452808 0.00369507 -0.000538784 0.00186282 -0.000538784 0.00186186 -0.000510125 0.00247325 -0.000566488 0.00125048 -0.000538784 0.00186282 8.50209e-005 0.00183225 0.00561807 -0.00026175 0.000595146 -0.000640045 -0.000142338 -0.00305502 0.00436855 -0.000204432 8.59762e-005 0.0018332 0.000681123 0.00119316 0.00312094 -0.000145204 0.00246847 -0.000727932 -5.73175e-005 -0.00122182 -0.000681123 -0.00119316 -0.000681123 -0.0011922 -0.000709781 -0.00180454 -0.000652464 -0.000581772 -0.000709781 -0.00180359 -0.000709781 -0.00180454 -0.000652464 -0.000581772 -0.000709781 -0.00180359 -0.000681123 -0.00119316 -0.000709781 -0.00180359 -0.000681123 -0.00119316 -0.00499426 0.000233091 -0.000537829 0.00186282zm0.00343427 0.00657527c-0.000112724,-0.00241402 0.000112724,0.00241402 0,0zm0.0787838 -0.0140877l-0.000596102 0.000641 -0.00121991 0.000668704 -0.000537829 0.00186282 -0.000538784 0.00186186 0.000313335 0.00672047 0.000709781 0.00180359 0.000681123 0.00119316 0.000652464 0.000581772 0.000653419 0.000581772 0.00127627 0.000553114 0.00190103 0.0005235 0.00312094 -0.000145204 0.00121991 -0.000669659 0.00184371 -0.000698318 0.000596102 -0.000640045 0.000566488 -0.00125143 0.000596102 -0.000640045 -5.73175e-005 -0.00122182 -0.00190103 -0.0005235 -0.000652464 -0.000581772 -0.00249713 0.000116546 5.73175e-005 0.00122182 -0.00317825 0.000147115 0.000311425 -0.00797382 0.00187237 -8.69315e-005 0.000652464 0.000581772 0.000652464 0.000581772 0.00124857 -5.82728e-005 0.00121991 -0.000669659 0.000595146 -0.000640045 0.000596102 -0.000640045 -8.59762e-005 -0.0018332 -0.000652464 -0.000581772 -0.000652464 -0.000581772 -0.000652464 -0.000581772 -0.000653419 -0.000581772 -0.00686568 0.000320978 -0.000595146 0.00063909zm0.280652 -0.218841l-0.00434084 0.000814863 -0.00746082 0.000960068 -0.00371704 0.000786205 -0.00246752 0.000727932 -0.00621321 0.000901795 -0.00371704 0.000786205 -0.00433989 0.000813908 -0.0105827 0.00110718 -0.435636 0.0209457 -0.00433989 0.000814863 -0.0049656 0.000844477 -0.00184371 0.000698318 -0.00184371 0.000698318 -0.00184371 0.000698318 -0.00121991 0.000669659 -0.00121991 0.000668704 -0.00121991 0.000669659 -0.000596102 0.000640045 -0.00121895 0.000669659 -0.00122086 0.000668704 -0.000595146 0.000640045 -0.00121991 0.000669659 -0.000595146 0.000640045 5.63622e-005 0.00122182 -0.00124761 5.82728e-005 -0.000596102 0.000640045 5.73175e-005 0.00122182 -0.00124857 5.82728e-005 -0.000596102 0.000641 5.73175e-005 0.00122182 -0.00124857 5.82728e-005 -0.000595146 0.00063909 -0.000567443 0.00125143 -0.000595146 0.000641 -0.000596102 0.00063909 -0.000567443 0.00125143 -0.000595146 0.000640045 -0.000595146 0.000641 -0.000567443 0.00125048 -0.000567443 0.00125143 -0.000595146 0.000640045 -0.000538784 0.00186186 -0.000596102 0.000640045 -0.000566488 0.00125143 -0.00121991 0.000668704 -0.000596102 0.000641 -0.00184371 0.000698318 -0.00121991 0.000668704 -0.000595146 0.000640045 -0.00246847 0.000727932 -0.000595146 0.000640045 -0.00121991 0.000669659 -0.00246847 0.000726977 -0.000596102 0.000640045 -0.00121895 0.000668704 -0.00122086 0.000669659 -0.00121895 0.000669659 -0.000596102 0.000640045 -0.00184371 0.000698318 5.73175e-005 0.00122182 -0.00124857 5.82728e-005 -0.00121991 0.000669659 -0.000595146 0.000640045 -0.00121991 0.000669659 -0.000596102 0.000640045 -0.000595146 0.000640045 -0.00121991 0.000668704 -0.000596102 0.000640045 5.73175e-005 0.00122277 -0.00124857 5.82728e-005 -0.000595146 0.000640045 5.73175e-005 0.00122182 -0.00124857 5.82728e-005 -0.000567443 0.00125048 -0.000596102 0.000641 -0.000595146 0.000640045 -0.000567443 0.00125048 -0.000566488 0.00125143 -0.000596102 0.000640045 -0.000566488 0.00125143 -0.000538784 0.00186186 -0.000596102 0.000640045 -0.000538784 0.00186186 -0.000566488 0.00125143 -0.000538784 0.00186186 -0.000538784 0.00186282 -0.000567443 0.00125048 -0.000566488 0.00125143 -0.000481467 0.00308368 -0.000567443 0.00125143 -0.000567443 0.00125143 0.000285632 0.00611004 0.000652464 0.000581772 0.00314959 0.000465227 0.00561711 -0.00026175 0.00184371 -0.000699273 0.000567443 -0.00125048 0.000596102 -0.000640045 0.000566488 -0.00125143 0.000538784 -0.00186186 0.000566488 -0.00125143 0.000538784 -0.00186186 0.000538784 -0.00186186 0.000567443 -0.00125143 0.000567443 -0.00125143 0.000537829 -0.00186186 0.000567443 -0.00125143 0.000596102 -0.000640045 0.000537829 -0.00186186 0.000567443 -0.00125143 0.000596102 -0.000640045 0.000538784 -0.00186186 0.000566488 -0.00125143 0.000596102 -0.000640045 -5.73175e-005 -0.00122182 0.00124857 -5.82728e-005 0.000566488 -0.00125143 0.00121991 -0.000668704 0.000596102 -0.000641 0.000595146 -0.000640045 0.00121991 -0.000668704 0.00121991 -0.000669659 -5.73175e-005 -0.00122182 0.00187237 -8.69315e-005 0.00122086 -0.000669659 0.000595146 -0.000640045 0.000623805 -2.9614e-005 -0.000595146 0.000641 -0.000538784 0.00186186 -0.000538784 0.00186186 -0.000567443 0.00125143 -0.000595146 0.000640045 -0.000510125 0.00247325 -0.000567443 0.00125143 -0.000595146 0.00063909 -0.000510125 0.00247325 -0.000567443 0.00125143 -0.000566488 0.00125143 -0.000567443 0.00125048 -0.000538784 0.00186282 -0.000595146 0.000640045 -0.000538784 0.00186186 -0.000567443 0.00125143 -0.000510125 0.00247229 -0.000567443 0.00125143 -0.000595146 0.000640045 -0.000538784 0.00186186 -0.000567443 0.00125143 -0.000567443 0.00125143 -0.000537829 0.00186186 -0.000596102 0.000640045 -0.000566488 0.00125143 -0.000538784 0.00186186 -0.000567443 0.00125143 -0.000566488 0.00125143 -0.000538784 0.00186186 -0.000567443 0.00125048 -0.000567443 0.00125143 -0.000537829 0.00186186 -0.000596102 0.000640045 -0.000538784 0.00186282 -0.000566488 0.00125048 -0.000567443 0.00125143 -0.000567443 0.00125143 -0.000538784 0.00186186 -0.000566488 0.00125143 -0.000567443 0.00125143 -0.000538784 0.00186186 -0.000595146 0.000640045 -0.000538784 0.00186186 -0.000538784 0.00186186 -0.000567443 0.00125143 -0.000537829 0.00186186 -0.000596102 0.000640045 -0.000566488 0.00125143 -0.000538784 0.00186186 -0.000538784 0.00186282 -0.000596102 0.000640045 -0.00050917 0.00247229 -0.000596102 0.000641 -0.000567443 0.00125048 -0.000510125 0.00247325 -0.000566488 0.00125143 -0.000596102 0.000640045 -0.000510125 0.00247325 -0.000566488 0.00125143 -0.000567443 0.00125048 -0.000538784 0.00186282 -0.000567443 0.00125048 -0.000566488 0.00125143 -0.000510125 0.00247325 -0.000596102 0.000640045 -0.000566488 0.00125143 -0.000510125 0.00247229 -0.000596102 0.000641 -0.000566488 0.00125048 -0.000538784 0.00186186 -0.000596102 0.000640045 -0.000538784 0.00186282 -0.000566488 0.00125143 -0.000567443 0.00125048 -0.000538784 0.00186186 -0.000567443 0.00125143 -0.000566488 0.00125143 -0.000510125 0.00247325 -0.000567443 0.00125143 -0.000567443 0.00125048 -0.000481467 0.00308368 -0.000537829 0.00186282 -0.000538784 0.00186186 -0.000452808 0.00369507 -0.000538784 0.00186282 0.00042797 0.00916411 0.000708826 0.00180454 0.000795758 0.00363584 0.000709781 0.00180454 0.000681123 0.0011922 0.000709781 0.00180454 0.000652464 0.000581772 0.000681123 0.00119316 0.000709781 0.00180359 0.000652464 0.000581772 0.000653419 0.000581772 0.000709781 0.00180359 0.000652464 0.000581772 0.000652464 0.000581772 0.000681123 0.00119316 0.00124857 -5.82728e-005 5.73175e-005 0.00122182 0.000652464 0.000582728 0.000652464 0.000581772 0.000681123 0.0011922 0.00127722 0.000553114 0.000681123 0.0011922 0.00127627 0.000553114 0.000681123 0.00119316 0.00127722 0.000552158 0.000681123 0.00119316 0.00127722 0.000553114 0.000681123 0.0011922 0.00187237 -8.69315e-005 5.73175e-005 0.00122182 0.000652464 0.000581772 0.00127627 0.000553114 0.000653419 0.000581772 0.000652464 0.000581772 0.00127627 0.000553114 0.000653419 0.000581772 0.000652464 0.000581772 0.00127627 0.000552158 0.000653419 0.000581772 0.00127722 0.000553114 0.000651509 0.000581772 0.000653419 0.000581772 0.00190103 0.0005235 0.000652464 0.000581772 0.000652464 0.000581772 0.00252483 0.000494841 0.000653419 0.000581772 0.00190103 0.0005235 0.00439721 0.000406954 0.00627053 0.000320023 0.0131362 -9.55291e-007 0.0124828 -0.000582728 0.000595146 -0.000640045 -2.86587e-005 -0.000610431 -0.000681123 -0.00119316 -0.00127627 -0.000553114 -0.00564577 -0.000348681 -0.00439816 -0.000406954 -0.00689434 -0.000290409 -0.0037734 -0.000436568 -0.00439721 -0.000406954 -0.00627053 -0.000319067 -0.00127722 -0.000553114 -0.00190007 -0.0005235 -0.000653419 -0.000581772 -0.000652464 -0.000581772 -0.000681123 -0.00119316 -0.000652464 -0.000581772 -0.000681123 -0.00119316 -0.000767099 -0.00302541 -0.000709781 -0.00180454 -0.000709781 -0.00180359 -0.000823461 -0.00424722 -0.00073844 -0.00241498 -0.00073844 -0.00241498 -0.000965799 -0.0073032 0.00124761 -5.82728e-005 0.000596102 -0.000640045 -5.73175e-005 -0.00122182 0.00124857 -5.82728e-005 0.000595146 -0.000640045 0.000596102 -0.000640045 0.00121991 -0.000669659 0.000596102 -0.000640045 0.000595146 -0.000640045 0.000595146 -0.000640045 0.000367787 -0.00552827 -0.000745127 -0.0293571 0.000367787 -0.00552827 0.000367787 -0.00552731 -0.000114635 -0.00244459 -0.00439721 -0.000406954 -0.00127722 -0.000552158 -0.000681123 -0.00119316 -0.000681123 -0.00119316 0.000652464 0.000581772 0.000653419 0.000581772 0.000681123 0.00119316 0.00561711 -0.00026175 0.000510125 -0.00247325 0.000567443 -0.00125143 0.000537829 -0.00186186 0.000511081 -0.00247325 0.000566488 -0.00125143 0.000567443 -0.00125048 0.000538784 -0.00186282 0.000595146 -0.000640045 0.000567443 -0.00125143 0.000538784 -0.00186186 0.000595146 -0.000640045 0.000596102 -0.000640045 0.000538784 -0.00186186 0.000595146 -0.000640045 0.000567443 -0.00125143 0.000566488 -0.00125143 -5.63622e-005 -0.00122182 0.00124857 -5.82728e-005 0.000537829 -0.00186186 0.000596102 -0.000640045 0.000566488 -0.00125143 0.000567443 -0.00125143 0.000596102 -0.000640045 0.000595146 -0.000640045 0.000538784 -0.00186186 0.000595146 -0.000640045 0.000567443 -0.00125143 0.000596102 -0.000640045 0.000595146 -0.000640045 0.000567443 -0.00125143 0.000566488 -0.00125048 0.000596102 -0.000641 -8.50209e-005 -0.00183225 0.00124761 -5.82728e-005 0.000567443 -0.00125143 0.000566488 -0.00125048 0.000596102 -0.000641 0.000596102 -0.000640045 0.000566488 -0.00125143 0.000596102 -0.000640045 0.000566488 -0.00125048 0.000567443 -0.00125143 0.000595146 -0.000640045 0.000596102 -0.000640045 0.000567443 -0.00125143 0.000567443 -0.00125048 0.000595146 -0.000640045 -8.59762e-005 -0.0018332 0.00124857 -5.82728e-005 0.000567443 -0.00125143 0.000595146 -0.000640045 0.000567443 -0.00125143 0.000595146 -0.000640045 0.000567443 -0.00125143 0.000596102 -0.000640045 -5.73175e-005 -0.00122182 0.00124857 -5.82728e-005 0.000595146 -0.000640045 -5.63622e-005 -0.00122182 0.00124761 -5.82728e-005 0.000596102 -0.000640045 -5.73175e-005 -0.00122182 0.00124857 -5.82728e-005 0.000595146 -0.000640045 0.000596102 -0.000640045 0.00121991 -0.000669659 0.00121991 -0.000669659 0.000595146 -0.000640045 0.00184467 -0.000698318 0.00121895 -0.000668704 0.00121991 -0.000669659 0.00246847 -0.000727932 0.00121991 -0.000668704 0.00121991 -0.000669659 0.00309228 -0.000756591 0.00121991 -0.000668704 0.00121895 -0.000669659 0.00309323 -0.000756591 0.00184371 -0.000698318 0.00184371 -0.000698318 0.00309228 -0.000756591 0.00184371 -0.000699273 0.00246847 -0.000726977 0.00496465 -0.000844477 0.00184371 -0.000698318 0.00496465 -0.000843522 0.00309323 -0.000756591 0.00246752 -0.000727932 0.00621321 -0.000901795 0.00371608 -0.000786205 0.00371704 -0.000785249 0.00558845 -0.000874091 0.00371704 -0.000785249 0.00309228 -0.000756591 0.00621226 -0.00090275 0.00309228 -0.000756591 0.00246847 -0.000726977 0.00621321 -0.00090275 0.00246752 -0.000727932 0.00309323 -0.000756591 0.00496369 -0.000843522 0.00309323 -0.000756591 0.00246752 -0.000727932 0.00496465 -0.000844477 0.00309228 -0.000756591 0.00246847 -0.000726977 0.00496465 -0.000844477 0.00246847 -0.000726977 0.00246752 -0.000727932 0.00808558 -0.000989682 0.00371704 -0.000785249 0.00246752 -0.000727932 0.00309228 -0.000756591 0.000596102 -0.000640045 0.00184371 -0.000698318 0.00121991 -0.000669659 0.000596102 -0.000640045 0.00184371 -0.000698318 0.00184371 -0.000698318 0.00496465 -0.000844477 0.0374493 -0.00174818 0.180383 -0.00841898 0.0293074 -0.00198032 0.018696 -0.00148548 0.0268102 -0.00186377 0.00496465 -0.000843522 0.00246847 -0.000727932 0.00184371 -0.000698318 0.00371704 -0.000785249 0.00184371 -0.000699273 0.00309228 -0.000755635 0.00561711 -0.000262705 0.00127722 0.000553114 0.000652464 0.000581772 0.000709781 0.00180359 0.00102312 0.00852502 0.00190103 0.0005235 0.00127722 0.000552158 0.00127722 0.000553114 0.00190007 0.0005235 0.000653419 0.000581772 0.00127627 0.000553114 0.000652464 0.000581772 0.000653419 0.000581772 0.000652464 0.000581772 0.000341994 0.00733186 -0.000281811 0.00736147 -0.00031047 0.00675009 2.86587e-006 0.0134706 -0.000253152 0.0079719 -0.00031047 0.00675009 -5.34963e-005 0.0122497 -0.00031047 0.00675009 -0.000224493 0.00858329 -5.44516e-005 0.0122487 -0.00031047 0.00675009 -0.000253152 0.0079719 3.15246e-005 0.0140819 -0.000452808 0.00369507 -0.000424149 0.00430645 -0.000396446 0.00491688 -0.000538784 0.00186186 -0.000510125 0.00247325 -0.000566488 0.00125143 -0.000567443 0.00125143 -0.000510125 0.00247325 -0.000567443 0.00125048 -0.000595146 0.000640045 -0.000538784 0.00186282 -0.000595146 0.00063909 -0.000596102 0.000641 -0.000567443 0.00125048 -0.000595146 0.000641 -0.000596102 0.000640045 5.73175e-005 0.00122182 -0.00124857 5.82728e-005 -0.000566488 0.00125048 -0.00121991 0.000669659 -0.000596102 0.000640045 5.73175e-005 0.00122182 -0.00187237 8.78868e-005 5.63622e-005 0.00122182 -0.00124761 5.82728e-005 -0.00121991 0.000669659 -0.000596102 0.000640045 -0.00184371 0.000698318 -0.00121991 0.000668704 -0.00121991 0.000669659 -0.00246752 0.000726977 -0.00184467 0.000698318 -0.00121895 0.000669659 -0.00434084 0.000814863 -0.00246847 0.000727932 -0.00371608 0.000785249 -0.00995795 0.00107757 -0.00558941 0.000873136 -0.00558845 0.000873136 -0.00871034 0.0010193 -0.00434084 0.000814863 -0.00121895 0.000668704 0.00011368 0.00244459 0.000623805 -2.9614e-005 0.000596102 -0.000640045 0.0524006 -0.00305789 0.00371704 -0.000786205 0.00184371 -0.000698318 0.00309228 -0.000756591 0.00121991 -0.000669659 0.00121991 -0.000668704 0.00246752 -0.000727932 0.000596102 -0.000640045 0.00121991 -0.000669659 0.00121991 -0.000668704 0.000595146 -0.000640045 0.00121991 -0.000669659 0.00121991 -0.000669659 0.000595146 -0.00063909 0.000596102 -0.000640045 0.00121991 -0.000669659 0.000596102 -0.000640045 0.000595146 -0.000640045 0.000596102 -0.000640045 0.00121895 -0.000669659 0.000596102 -0.000640045 0.000595146 -0.000640045 0.000596102 -0.000640045 0.000595146 -0.000640045 0.000596102 -0.000640045 0.000595146 -0.000640045 0.000596102 -0.000640045 0.000596102 -0.000641 0.000595146 -0.000640045 0.000596102 -0.000640045 0.000566488 -0.00125143 0.00121991 -0.000668704 0.000567443 -0.00125143 0.000595146 -0.000640045 0.000596102 -0.000640045 0.000566488 -0.00125143 0.000596102 -0.000640045 0.000538784 -0.00186186 0.000595146 -0.000640045 0.000596102 -0.000640045 0.000538784 -0.00186186 0.000595146 -0.000641 0.000567443 -0.00125048 0.000567443 -0.00125143 0.000566488 -0.00125048 0.000567443 -0.00125143 0.000510125 -0.00247325 0.000566488 -0.00125143 0.000538784 -0.00186186 0.000425105 -0.00430645 0.000510125 -0.00247325 0.000510125 -0.00247229 0.000253152 -0.0079719 0.00031047 -0.00675104 -0.00134027 -0.028717 -0.00105178 -0.00913545 -0.00159438 -0.0207451 -0.00105464 -0.022606 5.34963e-005 -0.0122497 0.000452808 -0.00369507 0.000510125 -0.00247229 0.000396446 -0.00491784 0.00050917 -0.00247325 0.000510125 -0.00247325 0.000482422 -0.00308368 0.000537829 -0.00186186 0.000538784 -0.00186186 0.000453763 -0.00369507 0.000566488 -0.00125143 0.000510125 -0.00247325 0.000481467 -0.00308368 0.000538784 -0.00186282 0.000424149 -0.00430645 0.000510125 -0.00247325 -0.000427015 -0.00916411 -0.000709781 -0.00180359 -0.000682078 -0.00119316 -0.000652464 -0.000581772 -0.000652464 -0.000581772 -0.000681123 -0.00119316 -0.00127722 -0.000553114 -0.00190103 -0.0005235 -0.00127627 -0.000552158 -0.0131075 0.000611386 -0.00496465 0.000844477zm-0.52937 0.156972l-0.00558845 0.000873136 5.63622e-005 0.00122182 -0.000652464 -0.000581772 -0.000652464 -0.000581772 -0.0037734 -0.000436568 -0.000855941 -0.0183292 0.0112352 -0.000524455 0.000652464 0.000581772 0.000798623 0.0171074 -0.00121991 0.000669659zm0.39275 0.0251433l-0.00246847 0.000726977 -0.00371608 0.000786205 -0.000596102 0.000640045 -0.00121991 0.000669659 -0.00184371 0.000697363 -0.00121991 0.000669659 -0.000595146 0.000640045 -0.00184467 0.000698318 5.73175e-005 0.00122277 -0.00124857 5.82728e-005 -0.000595146 0.000640045 -0.000596102 0.000640045 -0.00121991 0.000668704 -0.000595146 0.000641 -0.000596102 0.000640045 -0.000595146 0.000640045 -0.000596102 0.000640045 -0.000595146 0.000640045 -0.000567443 0.00125048 -0.000596102 0.000641 -0.000595146 0.000640045 -0.000567443 0.00125048 -0.000595146 0.000640045 -0.000596102 0.000640045 -0.000566488 0.00125143 -0.000567443 0.00125143 -0.000595146 0.000640045 -0.000511081 0.00247325 -0.000566488 0.00125048 -0.000538784 0.00186282 -0.000481467 0.00308368 -0.000481467 0.00308464 0.000341994 0.00733186 0.000767099 0.00302541 0.000766144 0.00302636 0.000709781 0.00180359 0.000681123 0.00119316 0.00073844 0.00241402 0.000653419 0.000582728 0.000681123 0.0011922 0.000681123 0.00119316 0.000652464 0.000581772 0.000652464 0.000581772 0.000681123 0.00119316 0.000652464 0.000581772 0.000681123 0.00119316 0.000653419 0.000581772 0.000652464 0.000581772 0.000652464 0.000581772 0.000652464 0.000581772 0.000653419 0.000581772 0.000652464 0.000581772 0.000652464 0.000581772 0.00127627 0.000553114 0.000653419 0.000581772 0.00124761 -5.82728e-005 5.73175e-005 0.00122182 0.00190103 0.0005235 0.000652464 0.000581772 0.00127722 0.000553114 0.00190103 0.0005235 0.000652464 0.000581772 0.00127722 0.000553114 0.00314864 0.000465227 0.00190198 0.0005235 0.00252483 0.000494841 0.00998661 -0.000466182 0.00246752 -0.000727932 0.00184467 -0.000698318 0.00309228 -0.000756591 0.00121895 -0.000669659 0.00122086 -0.000668704 0.00184371 -0.000699273 0.000595146 -0.000640045 0.000596102 -0.00063909 0.00184371 -0.000699273 0.000596102 -0.000640045 -5.73175e-005 -0.00122182 0.00187237 -8.69315e-005 -5.73175e-005 -0.00122182 0.00124857 -5.82728e-005 0.000595146 -0.000640045 0.000596102 -0.000641 0.000596102 -0.000640045 0.000595146 -0.000640045 -5.73175e-005 -0.00122182 0.00124857 -5.82728e-005 0.000567443 -0.00125143 0.000595146 -0.000640045 0.000596102 -0.000640045 0.000566488 -0.00125143 0.000596102 -0.000640045 0.000567443 -0.00125048 0.000537829 -0.00186282 0.000596102 -0.000640045 0.000567443 -0.00125048 0.000510125 -0.00247325 0.000566488 -0.00125143 0.000510125 -0.00247325 -0.000683988 -0.0146637 -0.000709781 -0.00180359 -0.000709781 -0.00180359 -0.00073844 -0.00241498 -0.000652464 -0.000582728 -0.000681123 -0.0011922 -0.000709781 -0.00180454 -0.000653419 -0.000581772 -0.000652464 -0.000581772 -0.000709781 -0.00180359 -0.000652464 -0.000581772 -0.00124857 5.82728e-005 -8.50209e-005 -0.0018332 -0.00124857 5.82728e-005 -5.63622e-005 -0.00122182 -0.000653419 -0.000581772 -0.00124857 5.82728e-005 -5.63622e-005 -0.00122182 -0.00127722 -0.000553114 -0.000652464 -0.000581772 -0.000652464 -0.000581772 -0.00127722 -0.000553114 -0.000652464 -0.000581772 -0.000652464 -0.000581772 -0.00127722 -0.000552158 -0.00127722 -0.000553114 -0.000652464 -0.000581772 -0.00190103 -0.0005235 -0.00127627 -0.000553114 -0.00127722 -0.000553114 -0.00314959 -0.000465227 -0.00252483 -0.000493886 -0.00314959 -0.000465227 -0.00624187 0.000291364 -0.00309132 0.000756591zm-0.273776 -0.0894802l-0.000596102 0.000640045 -0.000596102 0.000640045 -0.000595146 0.000640045 -0.000596102 0.000641 -0.000595146 0.000640045 -0.000596102 0.00063909 -0.000595146 0.000641 -0.000595146 0.000640045 -0.00121991 0.000668704 -0.000567443 0.00125143 -0.00121991 0.000669659 -0.000566488 0.00125048 -0.00122086 0.000669659 -0.000566488 0.00125143 -0.00121991 0.000668704 -0.000567443 0.00125143 0.000170997 0.00366641 0.000767099 0.00302541 0.00073844 0.00241498 0.000794802 0.00363679 0.00122659 0.0262724 -0.000681123 -0.00119316 -0.000652464 -0.000581772 -0.000653419 -0.000581772 -0.000681123 -0.0011922 -0.000652464 -0.000581772 -0.000652464 -0.000582728 -0.000652464 -0.000580817 -0.000681123 -0.00119316 -0.00124857 5.82728e-005 -5.73175e-005 -0.00122182 -0.000652464 -0.000581772 -0.000652464 -0.000582728 -0.000681123 -0.0011922 -0.000652464 -0.000581772 -0.000653419 -0.000581772 -0.000681123 -0.00119316 -0.000652464 -0.000581772 -0.000681123 -0.00119316 -0.000652464 -0.000581772 -0.00124857 5.82728e-005 -8.59762e-005 -0.0018332 -0.00127627 -0.000552158 -0.000681123 -0.00119316 -0.000653419 -0.000581772 -0.000652464 -0.000581772 -0.000681123 -0.00119316 -0.000652464 -0.000581772 -0.000652464 -0.000581772 -0.000653419 -0.000581772 -0.00187237 8.69315e-005 -0.000595146 0.000640045 -0.000596102 0.000641 -0.000595146 0.000640045 -0.000596102 0.00063909 -0.000595146 0.000641 -0.000596102 0.000640045 -0.00121991 0.000668704 -0.000595146 0.000640045 5.73175e-005 0.00122182 -0.00124857 5.82728e-005 -0.000596102 0.000640045 5.73175e-005 0.00122277 -0.00124857 5.82728e-005 -0.000595146 0.000640045 5.63622e-005 0.00122182 -0.00124761 5.82728e-005 -0.000596102 0.000640045 5.73175e-005 0.00122182 -0.00124857 5.82728e-005 -0.000595146 0.000641 0.000142338 0.00305407 0.000681123 0.00119316 0.000652464 0.000581772 0.000709781 0.00180359 0.000709781 0.00180454 0.000709781 0.00180359 0.000823461 0.00424818 0.000853075 0.00485861 0.000769965 0.0164969 -0.000367787 0.00552827 0.000284677 0.00611004 0.00187333 -8.78868e-005 0.000595146 -0.000640045 -5.73175e-005 -0.00122182 0.00124857 -5.82728e-005 0.000596102 -0.000640045 -5.73175e-005 -0.00122182 0.00124761 -5.82728e-005 0.000567443 -0.00125143 0.00121991 -0.000669659 0.000596102 -0.000640045 0.000595146 -0.000640045 0.000596102 -0.000640045 0.000595146 -0.000640045 0.000596102 -0.000640045 0.000595146 -0.000640045 0.000596102 -0.000640045 0.000595146 -0.000641 0.000596102 -0.00063909 0.000595146 -0.000640045 0.000596102 -0.000641 0.000596102 -0.000640045 0.000424149 -0.0043055 7.64233e-005 -0.00438192 0.000405043 0.00129729 0.000652464 0.000582728 0.000652464 0.000581772 0.000681123 0.0011922 0.000653419 0.000581772 0.000652464 0.000581772 0.000681123 0.00119316 0.000652464 0.000581772 0.000653419 0.000581772 0.000680167 0.00119316 0.000653419 0.000581772 0.000681123 0.00119316 0.000652464 0.000581772 0.000652464 0.000581772 0.000681123 0.00119316 0.000653419 0.000580817 0.000652464 0.000582728 0.000652464 0.000581772 0.000623805 -2.9614e-005 0.00121991 -0.000668704 0.000596102 -0.000641 -5.73175e-005 -0.00122182 0.00187237 -8.69315e-005 0.000567443 -0.00125143 0.00121991 -0.000668704 0.000566488 -0.00125143 0.00121991 -0.000669659 -5.63622e-005 -0.00122182 0.00124761 -5.82728e-005 0.000596102 -0.000640045 -5.73175e-005 -0.00122182 0.00124857 -5.82728e-005 0.000595146 -0.000640045 0.000596102 -0.000640045 0.000596102 -0.000640045 0.000595146 -0.000640045 0.000596102 -0.000640045 0.000595146 -0.000640045 0.000395491 -0.00491784 0.000511081 -0.00247325 0.000133741 -0.00315915 0.000404088 0.00129729 0.000681123 0.00119316 0.00073844 0.00241498 0.000681123 0.0011922 0.000681123 0.00119316 0.00073844 0.00241498 0.000652464 0.000581772 0.000709781 0.00180359 0.00073844 0.00241498 0.000681123 0.00119316 0.000652464 0.000581772 0.00073844 0.00241498 0.000681123 0.0011922 0.000681123 0.00119316 0.000709781 0.00180359 0.000681123 0.00119316 0.000681123 0.00119316 0.00073844 0.00241498 0.000652464 0.000581772 0.000709781 0.00180359 0.000682078 0.00119316 0.000681123 0.0011922 0.000709781 0.00180454 -0.00124857 5.82728e-005 -0.000596102 0.000640045 8.59762e-005 0.0018332 0.000623805 -2.9614e-005 0.00121991 -0.000669659 0.000596102 -0.000640045 0.000652464 0.000581772 0.000709781 0.00180454 0.000652464 0.000581772 0.000681123 0.0011922 0.000681123 0.00119316 0.000652464 0.000581772 0.000653419 0.000581772 0.000681123 0.00119316 0.000652464 0.000581772 0.000652464 0.000581772 0.00312094 -0.000145204 0.000596102 -0.000640045 0.00121895 -0.000669659 0.000567443 -0.00125143 0.000595146 -0.000640045 0.000596102 -0.000640045 0.000595146 -0.000640045 0.000596102 -0.000640045 0.000596102 -0.000640045 0.000595146 -0.000640045 0.000596102 -0.000640045 0.000595146 -0.000640045 0.000596102 -0.000640045 0.000595146 -0.000641 0.000596102 -0.00063909 0.000595146 -0.000641 0.000596102 -0.000640045 0.000595146 -0.000640045 0.000596102 -0.000640045 0.000595146 -0.000640045 0.000596102 -0.000640045 -5.73175e-005 -0.00122182 -0.00127627 -0.000553114 -0.00124857 5.82728e-005 -5.73175e-005 -0.00122182 -0.000652464 -0.000581772 -0.000681123 -0.00119316 -0.000681123 -0.0011922 -0.000653419 -0.000582728 -0.000652464 -0.000581772 -0.000709781 -0.00180359 -0.000681123 -0.00119316 -0.000652464 -0.000581772 -5.73175e-005 -0.00122182 -5.63622e-005 -0.00122182 0.00124761 -5.82728e-005 -8.50209e-005 -0.0018332 0.00124761 -5.82728e-005 0.00184467 -0.000698318 0.00309228 -0.000756591 0.00184371 -0.000698318 0.00184371 -0.000698318 0.00246847 -0.000727932 0.00184371 -0.000698318 0.000596102 -0.000640045 0.00246752 -0.000726977 0.00121991 -0.000669659 0.00187237 -8.78868e-005 0.000653419 0.000582728 0.000681123 0.0011922 0.000652464 0.000581772 0.000652464 0.000581772 0.000681123 0.00119316 0.00124857 -5.82728e-005 5.73175e-005 0.00122182 0.000652464 0.000581772 0.000652464 0.000581772 0.000652464 0.000582728 0.000653419 0.000580817 0.000652464 0.000582728 0.000652464 0.000581772 0.000681123 0.0011922 0.000652464 0.000581772 0.00127722 0.000553114 0.000652464 0.000581772 0.000652464 0.000581772 0.00124857 -5.82728e-005 5.73175e-005 0.00122182 0.00127722 0.000553114 0.00127627 0.000553114 0.00127722 0.000552158 0.000652464 0.000582728 0.00314864 0.000464271 0.00686568 -0.000320023 0.00184467 -0.000698318 0.000595146 -0.000640045 0.00122086 -0.000669659 0.00121895 -0.000668704 0.000596102 -0.000641 0.000595146 -0.000640045 0.00121991 -0.000668704 0.000596102 -0.000640045 0.000595146 -0.000640045 0.00121991 -0.000669659 0.000567443 -0.00125048 0.00125907 -0.00067157 -7.64233e-006 0.0140839 -0.000339128 0.00613966 -0.000538784 0.00186186 -0.000566488 0.00125048 -0.000567443 0.00125143 -0.000567443 0.00125143 -0.000595146 0.000640045 -0.000596102 0.000640045 -0.000595146 0.000640045 -0.000596102 0.000640045 -0.000595146 0.000640045 -0.000596102 0.000640045 -0.000595146 0.000640045 -0.000596102 0.000640045 5.73175e-005 0.00122277 0.00187237 -8.78868e-005 0.000595146 -0.000640045 0.000596102 -0.000640045 0.00121991 -0.000669659 0.000595146 -0.000640045 0.00121991 -0.000668704 0.000596102 -0.000640045 -5.73175e-005 -0.00122277 0.00124857 -5.82728e-005 0.000595146 -0.000640045 0.000596102 -0.000640045 0.00121991 -0.000668704 0.000567443 -0.00125143 0.00121895 -0.000669659 0.000567443 -0.00125048 0.000595146 -0.000640045 0.000596102 -0.000640045 0.000596102 -0.000640045 0.000595146 -0.000641 0.000567443 -0.00125143 0.000595146 -0.00063909 0.000596102 -0.000640045 0.000566488 -0.00125143 0.000596102 -0.000640045 0.000566488 -0.00125143 0.000567443 -0.00125048 0.000567443 -0.00125143 0.000567443 -0.00125143 0.000424149 -0.00430645 0.000339128 -0.0061387 -0.000170997 -0.00366641 -0.00105273 -0.00913545 -0.00108043 -0.00974684 -0.000794802 -0.00363679 -0.000767099 -0.00302541 -0.000909437 -0.00608138 -0.000737485 -0.00241498 -0.00073844 -0.00241498 -0.000767099 -0.00302541 0.00374474 -0.000174818 0.0049656 -0.000844477 0.00184371 -0.000698318 0.00121991 -0.000668704 0.00246752 -0.000727932 0.00184467 -0.000698318 0.000595146 -0.000640045 0.00246847 -0.000727932 0.000595146 -0.000640045 0.00121991 -0.000668704 0.00121991 -0.000669659 0.00121991 -0.000668704 -5.73175e-005 -0.00122277 0.00187237 -8.69315e-005 0.000596102 -0.000640045 0.00121991 -0.000669659 0.000595146 -0.000640045 0.00121991 -0.000668704 -5.63622e-005 -0.00122182 0.00124761 -5.82728e-005 0.000596102 -0.000641 0.000595146 -0.000640045 0.000596102 -0.000640045 0.000595146 -0.000640045 0.000596102 -0.000640045 0.000595146 -0.000640045 0.000596102 -0.000640045 0.000595146 -0.000641 0.000596102 -0.00063909 -5.73175e-005 -0.00122277 0.00124857 -5.82728e-005 0.000595146 -0.000640045 -5.63622e-005 -0.00122182 0.00124761 -5.82728e-005 0.000596102 -0.000640045 0.000596102 -0.000640045 -5.73175e-005 -0.00122182 -0.00124857 5.82728e-005 -0.00121991 0.000669659 -0.000595146 0.000640045 -0.00121991 0.000668704 -0.000596102 0.000640045 -0.000595146 0.000640045 -0.00184467 0.000698318 -0.000595146 0.000640045 -0.00121991 0.000669659 -0.00184371 0.000698318 -0.00121991 0.000668704 -0.00121991 0.000669659 -0.00309228 0.000756591 -0.00121991 0.000669659 -0.00184371 0.000698318 -0.00434084 0.000814863 -0.00309228 0.000756591 -0.0149799 0.000699273 -0.0037734 -0.000436568 -0.00502197 -0.00037734 -0.00190103 -0.0005235 -0.00190103 -0.000524455 -0.00314864 -0.000465227 -0.00127722 -0.000552158 -0.00127722 -0.000553114 -0.00252483 -0.000493886 -0.00127722 -0.000553114 -0.00127627 -0.000553114 -0.00190103 -0.000522544 -0.000652464 -0.000582728 -0.00127722 -0.000552158 -0.00190103 -0.0005235 -0.00127627 -0.000553114 -0.000653419 -0.000581772 -0.00190103 -0.0005235 -0.000652464 -0.000581772 -0.00127627 -0.000553114 -0.00127722 -0.000553114 -0.000652464 -0.000581772 -0.000653419 -0.000581772 -0.00190103 -0.0005235 -0.000652464 -0.000581772 -0.000652464 -0.000581772 -0.00127627 -0.000552158 -0.000653419 -0.000582728 -0.00127627 -0.000552158 -0.000653419 -0.000581772 -0.00127627 -0.000553114 -0.00312094 0.000145204 -0.000596102 0.000641 -0.000595146 0.000640045 -0.000596102 0.000640045 -0.000595146 0.000640045 -0.000596102 0.000640045 -0.000595146 0.000640045 -0.000596102 0.000640045 -0.000595146 0.000640045 -0.000596102 0.000640045 -0.000595146 0.000640045 -0.000596102 0.000641 -0.000595146 0.000640045 -0.000596102 0.000640045 -0.000595146 0.000640045 -0.000596102 0.000640045 -0.00121991 0.000669659 -5.73175e-005 -0.00122277 -0.000708826 -0.00180359 -0.000653419 -0.000581772 -0.000681123 -0.00119316 -0.000681123 -0.00119316 -0.000652464 -0.000581772 -0.000623805 2.9614e-005 -0.000596102 0.000640045 -0.000595146 0.000640045 -0.000596102 0.000640045 -0.000596102 0.000640045 -0.000595146 0.000640045 -0.000596102 0.000640045 -0.000595146 0.000641 -0.000595146 0.000640045 -0.00121991 0.000668704 -0.000567443 0.00125143 -0.00121991 0.000668704 -0.000596102 0.000640045 -0.000595146 0.000641 -0.000596102 0.000640045 -0.000595146 0.000640045 -0.000596102 0.000640045 -0.000595146 0.000640045 -0.000596102 0.000640045 5.73175e-005 0.00122182 0.000709781 0.00180454 0.000681123 0.0011922 0.000652464 0.000582728 0.000709781 0.00180359 0.000681123 0.0011922 0.000653419 0.000581772 0.000737485 0.00241498 0.000681123 0.00119316 0.000653419 0.000581772 0.000709781 0.00180359 0.000681123 0.00119316 2.86587e-005 0.000611386 -0.000596102 0.000640045 -0.000596102 0.000640045 -0.000595146 0.000640045 -0.000596102 0.000640045 -0.000595146 0.000640045 -0.000596102 0.000640045 -0.000595146 0.000640045 -0.000596102 0.000640045 -0.00121895 0.000669659 0.00011368 0.00244363 0.000652464 0.000581772 0.000681123 0.00119316 0.000709781 0.00180359 0.000681123 0.00119316 0.000709781 0.00180359 0.000880778 0.00547 0.000341994 0.00733186 5.73175e-005 0.00122277 -0.00312094 0.000145204 -0.000623805 2.9614e-005 -0.000681123 -0.00119316 -0.00073844 -0.00241498 -0.000681123 -0.00119316 -0.000709781 -0.00180359 -0.000709781 -0.00180359 -0.000709781 -0.00180454 -0.000681123 -0.0011922 -0.00073844 -0.00241498 -0.000681123 -0.00119316 -0.000681123 -0.00119316 -0.000737485 -0.00241402 -0.000710737 -0.00180454 -0.000652464 -0.000581772 -0.000766144 -0.00302541 -0.000681123 -0.00119316 -0.000682078 -0.0011922 -0.000737485 -0.00241593 -0.000682078 -0.0011922 -0.000737485 -0.00241498 -0.000709781 -0.00180359 -0.000681123 -0.00119316 -0.00073844 -0.00241498 -0.000681123 -0.00119316 -0.000681123 -0.0011922 -0.00073844 -0.00241498 -0.000681123 -0.00119316 -0.000681123 -0.00119316 -0.000767099 -0.00302541 -0.000681123 -0.00119316 -0.000681123 -0.00119316 -0.00073844 -0.00241402 -0.000681123 -0.00119316 -0.000709781 -0.00180359 -0.000737485 -0.00241498 -0.000653419 -0.000581772 -0.000709781 -0.00180359 -0.000709781 -0.00180454 -0.000681123 -0.00119316 -0.00187237 8.78868e-005 -0.000595146 0.000640045zm0.0464759 0.0174255l0.000652464 0.000581772 0.000653419 0.000581772 0.00127627 0.000553114 0.000653419 0.000581772 0.00127627 0.000552158 0.00127722 0.000553114 0.000652464 0.000581772 0.00127627 0.000553114 0.00127722 0.000552158 0.000652464 0.000581772 0.00190103 0.0005235 0.000652464 0.000581772 0.00127722 0.000553114 0.00190103 0.0005235 0.000652464 0.000581772 0.00127722 0.000553114 0.00190103 0.0005235 0.00190103 0.0005235 0.000652464 0.000581772 0.00252483 0.000494841 0.00127722 0.000552158 0.00190103 0.0005235 0.00252483 0.000494841 0.00190103 0.0005235 0.00252579 0.000494841 0.00502101 0.00037734 0.00314959 0.000465227 0.0037734 0.000436568 -0.000595146 0.000640045 -0.00121991 0.000669659 -0.000567443 0.00125048 -0.00121991 0.000669659 0.000285632 0.00611004 0.000681123 0.00119316 0.000709781 0.00180359 0.000794802 0.00363679 0.00073844 0.00241498 0.00073844 0.00241498 0.000795758 0.00363679 0.000766144 0.00302541 0.00085212 0.00485957 0.000880778 0.00553973 -0.00502101 -0.000448987 -0.00127722 -0.000552158 -0.00190103 -0.0005235 -0.000652464 -0.000581772 -0.00127722 -0.000553114 -0.00127722 -0.000552158 -0.000652464 -0.000581772 -0.000652464 -0.000582728 -0.00127627 -0.000552158 -0.000653419 -0.000581772 -0.000652464 -0.000581772 -0.000652464 -0.000581772 -0.000652464 -0.000581772 -0.000653419 -0.000582728 -0.000652464 -0.000581772 -0.000652464 -0.000581772 -0.000652464 -0.000581772 -0.000653419 -0.000581772 -0.000652464 -0.000581772 -0.000652464 -0.000581772 -0.000681123 -0.00119316 -0.000652464 -0.000581772 0.000595146 -0.000640045 0.00121991 -0.000669659 0.000596102 -0.000640045 0.000595146 -0.000640045 0.00121991 -0.000668704 0.000595146 -0.000641 0.000596102 -0.000640045 0.000596102 -0.000640045 0.000595146 -0.00063909 0.000596102 -0.000641 0.000595146 -0.000640045 0.000596102 -0.000640045 0.000595146 -0.000640045 0.000595146 -0.000640045 0.000596102 -0.000640045 0.000596102 -0.000640045 0.000595146 -0.000641 0.000596102 -0.000640045 0.000595146 -0.000640045 0.000596102 -0.000640045 0.000595146 -0.000640045 0.000596102 -0.000640045 -5.73175e-005 -0.00122182 -0.00124761 5.82728e-005 -0.00122086 0.000668704 -0.00121895 0.000669659 -0.000596102 0.000640045 -0.00121991 0.000669659 -0.00121991 0.000668704 -0.000595146 0.000640045 -0.00184371 0.000698318 -0.000596102 0.000641 -0.00121991 0.000668704 -0.00121991 0.000669659 -0.000595146 0.000640045 -0.00121991 0.000669659 -0.00184467 0.000698318 -0.00121895 0.000668704 -0.000596102 0.000641 -0.00184371 0.000697363 -8.59762e-005 -0.00183225 -0.00124761 5.82728e-005 -8.59762e-005 -0.0018332 -0.000652464 -0.000582728 -0.000653419 -0.000580817 -0.000708826 -0.00180454 -0.000653419 -0.000581772 -0.000652464 -0.000581772 -0.000681123 -0.00119316 -0.000652464 -0.000580817 -0.000681123 -0.00119316 -0.000681123 -0.00119316 -0.000653419 -0.000581772 -0.000652464 -0.000581772 -0.000681123 -0.00119316 -0.000681123 -0.00119316 -0.00124857 5.82728e-005 -8.50209e-005 -0.00183225 -0.000652464 -0.000581772 -0.000681123 -0.00119316 -0.000682078 -0.00119316 -0.000652464 -0.000581772 -0.000681123 -0.00119316 -0.000709781 -0.00180359 -0.000652464 -0.000581772 -0.000681123 -0.00119316 -0.000709781 -0.00180359 -0.000652464 -0.000581772 -0.000681123 -0.00119316 -0.000681123 -0.00119316 -0.000682078 -0.0011922 -0.000681123 -0.00119316 -0.000681123 -0.00119316 -0.000652464 -0.000581772 -2.86587e-005 -0.000610431zm-0.000499617 0.0428859l-0.00193351 0.000685899 0.000627626 -0.00184944 0.000538784 -0.00186186 0.000538784 -0.00186186 0.000481467 -0.00308464 0.000681123 0.00119316 0.000652464 0.000581772 0.000681123 0.00119316 0.000681123 0.0011922 0.000653419 0.000581772 0.000652464 0.000581772 0.000681123 0.00119316 -0.00121991 0.000669659 -0.00371608 0.000785249zm0.245557 -0.0996369l-0.000595146 0.000640045 -0.00121991 0.000669659 -0.000596102 0.000640045 -0.000595146 0.000640045 -0.00121991 0.000669659 -0.000596102 0.000640045 -0.000595146 0.000640045 -0.000596102 0.000640045 -0.000595146 0.000640045 -0.000596102 0.000640045 -0.00121895 0.000669659 -0.000596102 0.000640045 -0.000596102 0.000640045 -0.000595146 0.000640045 -0.000595146 0.000640045 -0.000596102 0.000640045 -0.000596102 0.000640045 -0.000595146 0.000640045 -0.000596102 0.000640045 -0.000595146 0.000640045 -0.000596102 0.000641 -0.000595146 0.000640045 -0.000596102 0.000640045 -0.000595146 0.000640045 -0.000596102 0.000640045 -0.000566488 0.00125143 -0.00121991 0.000668704 -0.000567443 0.00125143 -0.000596102 0.000640045 -0.000595146 0.000640045 -0.000567443 0.00125143 -0.000595146 0.000640045 -0.000567443 0.00125048 -0.000567443 0.00125143 -0.000595146 0.000640045 -0.000567443 0.00125143 -0.000566488 0.00125048 -0.000567443 0.00125143 -0.000538784 0.00186186 -0.000538784 0.00186282 -0.000566488 0.00125143 -0.000425105 0.0043055 -0.000452808 0.00369507 0.000485288 0.0103869 0.000823461 0.00424818 0.000880778 0.00547 0.00073844 0.00241498 0.000709781 0.00180359 0.00085212 0.00485861 -0.00124857 5.82728e-005 -5.63622e-005 -0.00122182 -0.000653419 -0.000581772 -0.00124857 5.82728e-005 -5.63622e-005 -0.00122182 -0.000652464 -0.000581772 -0.00124857 5.82728e-005 -5.73175e-005 -0.00122277 -0.00127722 -0.000552158 -0.000652464 -0.000581772 -0.000652464 -0.000581772 -0.00124857 5.82728e-005 -5.63622e-005 -0.00122277 -0.000653419 -0.000581772 -0.00124761 5.82728e-005 -5.73175e-005 -0.00122182 -0.000652464 -0.000581772 -0.00124857 5.82728e-005 -5.73175e-005 -0.00122182 -0.000652464 -0.000581772 -0.00127722 -0.000553114 -0.000652464 -0.000581772 -0.000652464 -0.000581772 -0.000652464 -0.000581772 -0.000652464 -0.000581772 -0.000653419 -0.000581772 -0.000652464 -0.000582728 -0.000652464 -0.000580817 -0.000652464 -0.000582728 -0.000653419 -0.000581772 -0.000652464 -0.000581772 -0.000652464 -0.000581772 -0.000652464 -0.000581772 -0.000652464 -0.000581772 -0.000653419 -0.000581772 -0.000652464 -0.000581772 -0.000652464 -0.000581772 -0.00249713 0.000116546 -0.000595146 0.000640045 -0.00121991 0.000668704 -0.000596102 0.000641 -0.000595146 0.00063909 -0.000596102 0.000641 -0.000595146 0.000640045 -0.000596102 0.000640045 -0.000595146 0.000640045 -0.000596102 0.000640045 -0.000595146 0.000640045 -0.000596102 0.000640045 -0.000595146 0.000640045 -0.000596102 0.000640045 -0.000595146 0.000640045 -0.000596102 0.000640045 -0.000595146 0.000641 -0.000596102 0.00063909 -0.000566488 0.00125143 -0.00121991 0.000669659 0.00011368 0.00244363 0.000652464 0.000582728 0.000652464 0.000581772 0.000653419 0.000581772 0.000652464 0.000580817 0.000652464 0.000582728 0.000681123 0.0011922 0.000652464 0.000581772 0.000653419 0.000582728 0.00073844 0.00241402 0.000652464 0.000582728 0.000709781 0.00180359 0.000681123 0.00119316 -0.00124857 5.82728e-005 -0.000595146 0.00063909 -0.000596102 0.000641 -0.00184371 0.000698318 -0.00121991 0.000669659 5.63622e-005 0.00122086 -0.00187237 8.78868e-005 -0.00121991 0.000669659 -0.000595146 0.000640045 -0.00184371 0.000698318 -0.00121991 0.000668704 -0.000596102 0.000641 -0.00246752 0.000726977 -5.73175e-005 -0.00122182 -0.000681123 -0.00119316 -0.000681123 -0.00119316 -0.000652464 -0.000581772 -0.000681123 -0.0011922 -0.000653419 -0.000581772 -0.000681123 -0.00119316 -0.000681123 -0.00119316 -0.000652464 -0.000581772 -0.000681123 -0.0011922 -0.000652464 -0.000582728 -0.000653419 -0.000581772 -0.000709781 -0.00180359 -0.000652464 -0.000581772 -0.000652464 -0.000581772 -0.000681123 -0.00119316 -0.000652464 -0.000581772 -0.000682078 -0.00119316 -0.000681123 -0.0011922 -0.000652464 -0.000581772 -0.000652464 -0.000582728 -0.000709781 -0.00180359 -0.000681123 -0.00119316 -0.000652464 -0.000580817 -0.000709781 -0.00180454 -0.000681123 -0.00119316 -0.000653419 -0.000581772 -0.000708826 -0.00180359 -0.000681123 -0.00119316 -0.000682078 -0.0011922 -0.000681123 -0.00119316 -0.000652464 -0.000581772 -0.000709781 -0.00180454 -0.000652464 -0.000580817 -0.000681123 -0.00119316 -0.000709781 -0.00180454 -0.000652464 -0.000580817 -0.000681123 -0.00119316 -0.000710737 -0.00180454 -0.000652464 -0.000581772 -0.000681123 -0.0011922 -0.000681123 -0.00119316 -0.000681123 -0.00119316 -0.000681123 -0.0011922 -0.00124761 5.82728e-005 5.63622e-005 0.00122182 -0.00124857 5.82728e-005 -0.000595146 0.000640045 -0.000567443 0.00125048 -0.00121991 0.000669659 -0.000595146 0.000640045 -0.000596102 0.000640045 -0.000595146 0.000640045 -0.000596102 0.000641 -0.000595146 0.000640045 -0.00121991 0.000668704 -0.000596102 0.000640045 5.73175e-005 0.00122182 -0.00124857 5.82728e-005 -0.000595146 0.000641 5.63622e-005 0.00122182 -0.00124857 5.82728e-005 -0.000595146 0.000640045 5.73175e-005 0.00122182 0.000681123 0.00119316 0.000652464 0.000581772 0.00073844 0.00241498 0.000681123 0.0011922 0.000652464 0.000582728 0.000709781 0.00180359 0.000681123 0.00119316 0.000653419 0.000581772 0.000708826 0.00180359 0.000682078 0.0011922 0.000681123 0.00119316 5.63622e-005 0.00122182 -0.000595146 0.000640045 -0.000596102 0.000640045 5.73175e-005 0.00122277 -0.00124857 5.82728e-005 -0.000595146 0.000640045 5.73175e-005 0.00122182 -0.00124857 5.82728e-005 -0.000596102 0.000640045 -0.000595146 0.000640045 0.00011368 0.00244363 0.000709781 0.00180454 0.000681123 0.0011922 0.000652464 0.000582728 0.000795758 0.00363679 0.000709781 0.00180359 0.000766144 0.00302541 0.00034295 0.00733281 5.63622e-005 0.00122182 -0.00374474 0.000174818 -0.00246752 0.000726977 -0.000596102 0.000640045 -0.000596102 0.000640045 -0.000595146 0.000641 -0.000596102 0.000640045 -0.000595146 0.000640045 -0.000795758 -0.00363679 -0.000766144 -0.00302636 -0.000709781 -0.00180359 -0.00073844 -0.00241498 -0.000681123 -0.00119316 -0.000709781 -0.00180359 -0.000767099 -0.00302541 -0.000652464 -0.000582728 -0.000709781 -0.00180359 -0.000766144 -0.00302541 -0.000682078 -0.00119316 -0.000737485 -0.00241498 -0.000709781 -0.00180359 -0.000681123 -0.00119316 -0.00073844 -0.00241498 -0.000709781 -0.00180359 -0.000681123 -0.00119316 -0.000767099 -0.00302541 -0.00073844 -0.00241498 -0.000398356 -0.00855368 0.00050917 -0.00247325 0.000538784 -0.00186186 0.000596102 -0.000640045 0.000595146 -0.000640045 0.000596102 -0.000641 -8.59762e-005 -0.00183225 -0.00124857 5.82728e-005 -0.000595146 0.000640045 -0.000596102 0.000640045 -0.000595146 0.000640045 -0.000596102 0.000640045 -0.000595146 0.000640045 -0.000595146 0.000640045 -0.000596102 0.000640045 -0.000596102 0.000641 -0.000595146 0.00063909 -0.000567443 0.00125143 -0.00121991 0.000669659 -0.000567443 0.00125048 -0.00121895 0.000669659 -0.000567443 0.00125143 -0.00121991 0.000668704 5.73175e-005 0.00122182 -0.00124857 5.82728e-005 -0.000595146 0.000641 -0.000567443 0.00125048 -0.000595146 0.000640045 -0.000567443 0.00125143 -0.000538784 0.00186186 -0.000510125 0.00247325 0.000341994 0.00733186 0.000767099 0.00302541 0.000709781 0.00180454 0.00073844 0.00241498 0.000709781 0.00180359 0.000737485 0.00241498 0.000709781 0.00180359 0.000653419 0.000582728 0.000766144 0.00302541 0.000709781 0.00180359 0.000681123 0.00119316 0.00073844 0.00241498 0.000709781 0.00180359 0.000681123 0.00119316 0.00073844 0.00241498 0.000709781 0.00180359 0.000709781 0.00180359 5.63622e-005 0.00122182 -0.000652464 -0.000581772 -0.000681123 -0.00119316 -0.00124857 5.82728e-005 -8.50209e-005 -0.00183225 -0.000652464 -0.000582728 -0.000653419 -0.000581772 -0.000681123 -0.0011922 -0.000681123 -0.00119316 -0.000652464 -0.000581772 -0.000681123 -0.00119316 -0.000681123 -0.0011922 -0.000681123 -0.00119316 -0.000681123 -0.00119316 -0.000653419 -0.000581772 -0.000708826 -0.00180359 -0.000653419 -0.000581772 -0.000681123 -0.00119316 -0.000709781 -0.00180359 -0.000681123 -0.00119316 -0.000652464 -0.000581772 -0.000709781 -0.00180359 -0.000681123 -0.00119316 -0.000681123 -0.00119316 -0.000709781 -0.00180359 -0.000681123 -0.00119316 -0.000653419 -0.000581772 -0.000737485 -0.00241498 -0.000681123 -0.0011922 -0.000681123 -0.00119316 -0.000709781 -0.00180359 -0.000709781 -0.00180454 -0.000652464 -0.000581772 -0.00124857 5.82728e-005 -0.00121991 0.000669659 -0.000596102 0.000640045 5.73175e-005 0.00122182 -0.00124857 5.82728e-005 -0.000566488 0.00125143 -0.00121991 0.000669659 -0.000596102 0.000640045 -0.000595146 0.000640045 -0.000596102 0.000640045 -0.000595146 0.000640045 -0.00121991 0.000668704 -0.000567443 0.00125143 -0.00121991 0.000669659 -0.000567443 0.00125048 -0.000595146 0.000640045 0.00011368 0.00244459 0.000681123 0.00119316 0.00073844 0.00241498 0.000456629 0.00977549 -0.000652464 -0.000581772 -0.000709781 -0.00180454 -0.000652464 -0.000581772 -0.000681123 -0.0011922 -0.00073844 -0.00241498 -0.00073844 -0.00241498 -0.000228315 -0.00488822 0.000510125 -0.00247325 0.000538784 -0.00186186 0.000595146 -0.000640045 0.000567443 -0.00125143 0.000567443 -0.00125143 0.000595146 -0.00063909 0.000596102 -0.000640045 0.000567443 -0.00125143 -5.73175e-005 -0.00122277 -0.00124857 5.82728e-005 -0.000596102 0.000641 -0.000595146 0.000640045 -0.000596102 0.000640045 -0.000595146 0.000640045 -0.000596102 0.000640045 -0.000595146 0.000640045 -0.000596102 0.000640045 -0.000595146 0.000640045 -0.000596102 0.000640045 -0.000595146 0.000640045 -0.000596102 0.000641 -0.000595146 0.000640045 -0.000596102 0.000640045 -0.000595146 0.000640045 -0.000596102 0.000640045 -0.000595146 0.000640045 -0.000596102 0.000640045 -0.000595146 0.000640045 -0.000596102 0.000640045 -0.000595146 0.000640045 -0.000596102 0.000641 -0.000595146 0.00063909 -0.000596102 0.000641 -0.000567443 0.00125048 -0.000566488 0.00125143 -0.000596102 0.000640045 -0.000510125 0.00247325 -0.000566488 0.00125143 -0.000482422 0.00308368 0.000171952 0.00366641 0.000737485 0.00241498 0.000681123 0.0011922 0.00073844 0.00241498 0.000681123 0.00119316 0.000653419 0.000581772 0.000681123 0.0011922 0.000681123 0.00119316 0.000652464 0.000581772 0.000681123 0.00119316 0.00127722 0.000553114 0.000681123 0.0011922 0.00127627 0.000553114 0.000681123 0.0011922 0.00124857 -5.82728e-005 5.73175e-005 0.00122277 0.000652464 0.000581772 0.00127722 0.000552158 0.000652464 0.000582728 0.000652464 0.000580817 0.000652464 0.000582728 0.000653419 0.000581772 0.00127627 0.000553114 0.000652464 0.000581772 0.00124857 -5.82728e-005 5.73175e-005 0.00122182 0.00127722 0.000552158 0.000652464 0.000581772 0.00127627 0.000553114 0.00124857 -5.82728e-005 0.000595146 -0.000640045 0.000596102 -0.000640045 0.000596102 -0.000640045 0.000595146 -0.000640045 0.000596102 -0.000640045 0.00121991 -0.000669659 0.000595146 -0.000640045 -5.73175e-005 -0.00122277 0.00124857 -5.82728e-005 0.000595146 -0.00063909 0.000596102 -0.000641 0.00121991 -0.000668704 4.87198e-005 -0.00499331 0.000404088 0.00129824 0.00073844 0.00241498 0.000681123 0.0011922 0.000652464 0.000581772 0.000681123 0.00119316 0.000653419 0.000581772 0.000681123 0.00119316 0.000652464 0.000581772 0.000652464 0.000581772 0.000652464 0.000582728 0.000653419 0.000580817 0.000652464 0.000581772 0.000652464 0.000581772 0.000652464 0.000582728 0.00127722 0.000552158 0.000652464 0.000581772 0.00624187 -0.000291364 0.00121991 -0.000668704 0.000595146 -0.000640045 0.00121991 -0.000669659 0.000567443 -0.00125143 0.00121991 -0.000668704 -5.73175e-005 -0.00122182 0.00124857 -5.82728e-005 0.000595146 -0.000640045 0.000596102 -0.000641 0.000595146 -0.000640045 0.000596102 -0.000640045 0.000595146 -0.000640045 0.000596102 -0.000640045 0.00121991 -0.000669659 0.000595146 -0.000640045 -5.63622e-005 -0.00122182 0.00124761 -5.82728e-005 0.000596102 -0.000640045 -5.73175e-005 -0.00122182 0.00561711 -0.00026175 0.00374474 -0.000174818 -0.000566488 0.00125048 -0.000538784 0.00186186 -0.000595146 0.000641 -0.000596102 0.00063909 -0.000538784 0.00186282 -0.000595146 0.000640045 -0.000596102 0.000640045 -0.000537829 0.00186282 -0.000596102 0.00063909 -0.000596102 0.000641 -0.000566488 0.00125048 -0.000596102 0.000640045 -0.000595146 0.000640045 -0.000567443 0.00125143 -0.000595146 0.000640045 -0.000596102 0.000640045 -0.000567443 0.00125143 -0.000595146 0.000640045 5.73175e-005 0.00122182 0.00124761 -5.82728e-005 0.000596102 -0.000640045 0.000595146 -0.000640045 0.000596102 -0.000640045 0.00121991 -0.000668704 0.000595146 -0.000641 0.000596102 -0.000640045 0.000595146 -0.000640045 0.000596102 -0.000640045 0.000595146 -0.000640045 0.00121991 -0.000669659 0.000596102 -0.000640045 0.000595146 -0.000640045 0.000596102 -0.000640045 0.000595146 -0.000640045 0.000596102 -0.000640045 0.000566488 -0.00125143 0.000596102 -0.000640045 0.000567443 -0.00125143 0.000595146 -0.000640045 0.000596102 -0.000640045 -5.73175e-005 -0.00122182 0.00124857 -5.82728e-005 0.000566488 -0.00125048 0.000596102 -0.000641 0.000567443 -0.00125048 0.000595146 -0.000640045 0.000567443 -0.00125143 0.000595146 -0.000640045 0.00184371 -0.000698318 0.00371704 -0.000786205 0.00184371 -0.000698318 0.00121991 -0.000668704 0.00246847 -0.000727932 0.00184371 -0.000698318 0.00121991 -0.000669659 0.00184371 -0.000698318 0.00184371 -0.000698318 0.00124857 -5.82728e-005 0.000652464 0.000581772 0.000653419 0.000581772 0.000681123 0.00119316 0.000652464 0.000581772 0.000652464 0.000581772 0.000652464 0.000581772 0.000681123 0.00119316 0.00124857 -5.82728e-005 5.73175e-005 0.00122182 0.000652464 0.000581772 0.00124857 -5.82728e-005 5.73175e-005 0.00122182 0.000652464 0.000581772 0.000652464 0.000582728 0.000681123 0.0011922 0.00127722 0.000553114 0.000652464 0.000581772 0.000652464 0.000581772 0.00127722 0.000553114 0.000652464 0.000581772 0.000652464 0.000581772 0.00190103 0.0005235 0.000652464 0.000581772 0.00127722 0.000553114 0.00252483 0.000493886 0.00686568 -0.000320023 0.00184467 -0.000698318 0.00121895 -0.000669659 0.000596102 -0.000640045 0.000652464 0.000581772 0.000681123 0.00119316 0.00062476 -2.9614e-005 0.00121991 -0.000668704 0.000595146 -0.000640045 -5.73175e-005 -0.00122182 0.00124857 -5.82728e-005 0.000596102 -0.000641 0.000595146 -0.000640045 0.00121991 -0.000668704 -5.73175e-005 -0.00122277 0.00124857 -5.82728e-005 0.000596102 -0.000640045 0.000595146 -0.000640045 0.00121991 -0.000668704 0.000596102 -0.000641 0.000595146 -0.00063909 0.000596102 -0.000641 0.000595146 -0.00063909 0.000596102 -0.000641 -5.73175e-005 -0.00122182 0.00124857 -5.82728e-005 0.000367787 -0.00552827 -8.59762e-005 -0.00183225 -0.00085212 -0.00485957 -8.59762e-005 -0.00183225 0.00127722 0.000552158 0.000681123 0.00119316 0.00127627 0.000552158 0.000653419 0.000582728 0.000652464 0.000581772 0.00124857 -5.82728e-005 5.63622e-005 0.00122182 0.000653419 0.000581772 0.00124761 -5.82728e-005 5.73175e-005 0.00122182 0.00127722 0.000553114 0.000652464 0.000581772 0.000652464 0.000581772 0.000652464 0.000581772 0.000653419 0.000581772 0.000652464 0.000581772 0.000652464 0.000581772 0.00127722 0.000553114 0.000652464 0.000581772 0.000652464 0.000581772 0.000652464 0.000581772 0.000652464 0.000581772 0.000653419 0.000581772 0.00124761 -5.82728e-005 5.73175e-005 0.00122277 0.00127722 0.000552158 0.000681123 0.00119316 0.00187237 -8.78868e-005 5.73175e-005 0.00122182 0.000652464 0.000582728 0.00124761 -5.82728e-005 5.73175e-005 0.00122182 0.000652464 0.000581772 0.00127722 0.000552158 0.000652464 0.000581772 0.000653419 0.000582728 0.000652464 0.000581772 0.000652464 0.000581772 0.000652464 0.000581772 0.000652464 0.000581772 0.000653419 0.000581772 -0.000596102 0.000640045 -0.000566488 0.00125143 -0.000596102 0.000640045 -0.000596102 0.000640045 -0.000566488 0.00125143 -0.000596102 0.000640045 -0.000595146 0.000640045 -0.000567443 0.00125143 -0.000596102 0.00063909 2.86587e-005 0.000611386 0.00187333 -8.69315e-005 0.000595146 -0.000641 0.000596102 -0.00063909 0.000595146 -0.000640045 0.00121991 -0.000669659 0.000595146 -0.000640045 0.000596102 -0.000640045 0.000596102 -0.000640045 0.000595146 -0.000641 0.000596102 -0.00063909 0.000595146 -0.000641 0.000596102 -0.000640045 0.000595146 -0.000640045 0.000596102 -0.000640045 -5.73175e-005 -0.00122182 0.00124857 -5.82728e-005 0.000595146 -0.000640045 -5.63622e-005 -0.00122182 0.00124761 -5.82728e-005 0.000567443 -0.00125143 0.000596102 -0.000640045 0.000566488 -0.00125143 0.000595146 -0.000640045 0.000567443 -0.00125048 0.000596102 -0.000641 0.000595146 -0.000640045 -5.63622e-005 -0.00122182 0.00124761 -5.82728e-005 0.000567443 -0.00125143 0.000596102 -0.000640045 0.00184371 -0.000698318 0.00309228 -0.000756591 0.00184371 -0.000698318 0.00121991 -0.000668704 0.00309228 -0.000757546 0.00121991 -0.000668704 0.00121991 -0.000669659 0.00246752 -0.000726977 0.00121991 -0.000669659 0.00187237 -8.69315e-005 0.000653419 0.000581772 0.000681123 0.0011922 0.000652464 0.000581772 0.000681123 0.00119316 0.000652464 0.000581772 0.000652464 0.000581772 0.000653419 0.000581772 0.000652464 0.000582728 0.000652464 0.000581772 0.000652464 0.000581772 0.000681123 0.0011922 0.000653419 0.000581772 0.000652464 0.000582728 0.000652464 0.000581772 0.000652464 0.000581772 0.000653419 0.000581772 0.00127627 0.000553114 0.000652464 0.000580817 0.000653419 0.000582728 0.00124761 -5.82728e-005 5.73175e-005 0.00122182 0.00190103 0.0005235 0.00127722 0.000552158 0.000652464 0.000582728 0.00314864 0.000465227 0.00686663 -0.000320978 0.00184371 -0.000697363 0.00121991 -0.000669659 -5.73175e-005 -0.00122182 0.00187237 -8.78868e-005 0.000596102 -0.000640045 0.000595146 -0.000640045 0.00121991 -0.000669659 0.000596102 -0.000640045 -5.73175e-005 -0.00122182 0.00124857 -5.82728e-005 0.000595146 -0.000640045 0.000596102 -0.000640045 0.00121991 -0.000669659 0.000566488 -0.00125143 0.00121991 -0.000668704 0.000567443 -0.00125143 0.00121991 -0.000669659 0.000567443 -0.00125048 0.000566488 -0.00125143 0.000596102 -0.000640045 0.000595146 -0.000640045 -5.73175e-005 -0.00122182 0.00124857 -5.82728e-005 0.000567443 -0.00125143 -5.73175e-005 -0.00122182 -0.00124857 5.82728e-005 -0.000595146 0.000640045 -0.000596102 0.000640045 -0.000595146 0.000640045 -0.00121991 0.000669659 -0.000596102 0.000640045 -0.000595146 0.000640045 -0.000596102 0.000640045 -0.000595146 0.000640045 -0.00121991 0.000669659 -0.000595146 0.000640045 -0.00499331 0.000233091 -0.00127722 -0.000553114 -0.00190103 -0.0005235 -0.00127722 -0.000552158 -0.000652464 -0.000582728 -0.00187237 8.78868e-005 -5.73175e-005 -0.00122182 -0.000652464 -0.000581772 -0.00127722 -0.000553114 -0.000652464 -0.000581772 -0.000652464 -0.000581772 -0.000652464 -0.000581772 -0.00127722 -0.000553114 -0.000652464 -0.000581772 -0.000652464 -0.000581772 -0.000681123 -0.0011922 -0.000653419 -0.000582728 -0.000652464 -0.000581772 -0.000652464 -0.000581772 -0.000652464 -0.000581772 -0.000652464 -0.000581772 -5.73175e-005 -0.00122182 0.00121991 -0.000669659 0.00121895 -0.000668704 -5.63622e-005 -0.00122277 0.00187237 -8.69315e-005 -5.73175e-005 -0.00122182 0.00124857 -5.82728e-005 0.000596102 -0.000640045 -5.73175e-005 -0.00122277 0.00124857 -5.82728e-005 0.000595146 -0.000640045 -5.73175e-005 -0.00122182 0.00124857 -5.82728e-005 0.000596102 -0.000640045 -5.73175e-005 -0.00122182 0.00124857 -5.82728e-005 0.000595146 -0.000640045 -5.73175e-005 -0.00122277 0.00124857 -5.82728e-005 0.000596102 -0.00063909 0.000566488 -0.00125143 -5.63622e-005 -0.00122182 -0.00124857 5.82728e-005 -0.000596102 0.000640045 -0.00121895 0.000668704 -0.000596102 0.000640045 -0.00121991 0.000669659 -0.00121991 0.000668704 -0.000595146 0.000641 -0.00121991 0.000668704 -0.00121991 0.000669659 -0.000595146 0.000640045 -0.00184467 0.000698318 -0.000595146 0.000640045 -0.00121991 0.000669659 -0.00184371 0.000698318 -0.000596102 0.000640045 -0.00121991 0.000669659 -0.00184371 0.000697363 -5.73175e-005 -0.00122182 -0.000652464 -0.000581772 -0.000709781 -0.00180359 -0.00124857 5.82728e-005 -5.73175e-005 -0.00122182 -0.000681123 -0.00119316 -0.000681123 -0.0011922 -0.00124761 5.82728e-005 -8.59762e-005 -0.0018332 -0.000652464 -0.000581772 -0.000652464 -0.000581772 -0.000681123 -0.00119316 -0.000682078 -0.00119316 -0.000652464 -0.000581772 -0.000681123 -0.00119316 -0.000652464 -0.000581772 -0.000652464 -0.000581772 -0.000709781 -0.00180359 -0.00124857 5.82728e-005 -8.59762e-005 -0.0018332 -0.000652464 -0.000581772 -0.000681123 -0.00119316 -0.000709781 -0.00180359 -0.000652464 -0.000581772 -0.000681123 -0.00119316 -0.000709781 -0.00180359 -0.000652464 -0.000581772 -0.000681123 -0.00119316 -0.000681123 -0.00119316 -0.000681123 -0.0011922 -0.000653419 -0.000581772 -0.000709781 -0.00180454 -0.000652464 -0.000580817 -0.000681123 -0.00119411 -0.000709781 -0.00180359 -0.000652464 -0.000581772 -0.000681123 -0.00119316 -0.000709781 -0.00180359 -0.000653419 -0.000581772 -0.000681123 -0.00119316 -0.000708826 -0.00180359 -0.000652464 -0.000581772 -0.000682078 -0.0011922 -0.000681123 -0.00119316 -0.000652464 -0.000581772 -0.00124857 5.82728e-005 -0.000567443 0.00125048 -0.000595146 0.000641 -0.000596102 0.000640045 5.73175e-005 0.00122182 -0.00187237 8.69315e-005 -0.000567443 0.00125143 -0.00121895 0.000668704 -0.000596102 0.000641 -0.000596102 0.000640045 -0.000595146 0.000640045 -0.000595146 0.000640045 -0.000596102 0.000640045 -0.000596102 0.000640045 -0.000595146 0.000640045 -0.000596102 0.000640045 -0.000595146 0.000640045 -0.000596102 0.000640045 8.59762e-005 0.0018332 0.000709781 0.00180454 0.000681123 0.0011922 0.000652464 0.000581772 0.000709781 0.00180454 0.000681123 0.0011922 0.000653419 0.000581772 0.000708826 0.00180454 0.000681123 0.0011922 0.000653419 0.000581772 0.00073844 0.00241498 0.000652464 0.000581772 2.86587e-005 0.000611386 -0.000596102 0.000640045 -0.000596102 0.000640045 -0.000595146 0.000640045 -0.000596102 0.000640045 -0.000595146 0.000640045 -0.000596102 0.000640045 -0.000595146 0.000641 -0.000596102 0.000640045 -0.000595146 0.000640045 -0.000596102 0.000640045 8.59762e-005 0.0018332 0.000652464 0.000580817 0.000681123 0.00119316 0.000709781 0.00180454 0.000709781 0.00180359 0.000709781 0.00180359 0.00085212 0.00485861 0.000314291 0.00672143 -0.000681123 -0.00119316 -0.000709781 -0.00180359 -0.000681123 -0.00119316 -0.000682078 -0.00119316 -0.000737485 -0.00241402 -0.000681123 -0.00119316 -0.000682078 -0.00119316 -0.000709781 -0.00180359 -0.000708826 -0.00180359 -0.000681123 -0.00119316 -0.00073844 -0.00241498 -0.000681123 -0.0011922 -0.00073844 -0.00241498 -0.000709781 -0.00180454 -0.000681123 -0.0011922 -0.000767099 -0.00302636 -0.000709781 -0.00180359 -0.000708826 -0.00180359 -0.000795758 -0.00363679 -0.00073844 -0.00241498 -0.00073844 -0.00241498 -0.000909437 -0.00608138 -0.000908482 -0.00608043 -0.000256973 -0.00549866 0.000395491 -0.00491688 0.000396446 -0.00491784 0.000538784 -0.00186186 0.000567443 -0.00125143 0.00050917 -0.00247325 0.000567443 -0.00125048 0.000567443 -0.00125143 0.000566488 -0.00125143 0.000596102 -0.000640045 0.000595146 -0.000640045 0.000596102 -0.000640045 0.000595146 -0.000640045 0.000596102 -0.000640045 0.000595146 -0.000640045 0.000596102 -0.000640045 0.000595146 -0.000640045 0.000596102 -0.000640045 0.000596102 -0.000640045 0.000566488 -0.00125143 0.00121991 -0.000669659 0.000567443 -0.00125143 0.00121895 -0.000668704 0.000567443 -0.00125143 -5.73175e-005 -0.00122182 -0.00124761 5.82728e-005 -0.000596102 0.000640045zm-0.0229346 0.0714883l0.000732708 6.78257e-005 -0.00070405 0.000543561 -2.86587e-005 -0.000611386zm-0.0703276 0.0210403l-0.00124857 5.82728e-005 0.000538784 -0.00186186 0.000481467 -0.00308464 0.000538784 -0.00186186 0.000596102 -0.000640045 0.000681123 0.00119316 0.000681123 0.0011922 0.000652464 0.000581772 0.000652464 0.000581772 0.000681123 0.00119316 0.000682078 0.00119316 -0.000596102 0.000640045 -0.00434084 0.000814863zm0.0285976 -0.00378391l0.00121991 -0.000669659 0.000595146 -0.000640045 0.00121991 -0.000669659 0.000596102 -0.000640045 0.00121991 -0.000668704 0.000595146 -0.000640045 0.000596102 -0.000640045 0.000595146 -0.000640045 0.000596102 -0.000641 0.000595146 -0.000640045 0.000596102 -0.000640045 0.000595146 -0.000640045 0.000567443 -0.00125143 0.000681123 0.00119316 0.000880778 0.00547 0.000767099 0.00302541 0.000766144 0.00302636 0.00102407 0.00852502 -0.00124857 5.82728e-005 -5.73175e-005 -0.00122277 -0.00190103 -0.0005235 -0.000652464 -0.000581772 -0.000652464 -0.000581772 -0.00127722 -0.000552158 -0.000681123 -0.00119316 -0.00127627 -0.000553114 -0.000682078 -0.00119316 -0.00127627 -0.000552158 -0.000681123 -0.0011922 -0.00127722 -0.000553114 -0.000681123 -0.00119316 -0.00127722 -0.000552158 -8.50209e-005 -0.0018332zm0.0825037 -0.00140237l-0.00192969 0.000691631 0.000595146 -0.00246561 0.000567443 -0.00125143 0.000538784 -0.00186186 0.000481467 -0.00308464 0.000681123 0.00119316 0.000681123 0.00119316 0.000652464 0.000581772 0.000681123 0.0011922 0.000652464 0.000581772 0.000652464 0.000582728 0.000682078 0.0011922 -0.00121991 0.000669659 -0.00371608 0.000785249z"/>
 </g>
</svg>
