<?xml version="1.0" encoding="UTF-8"?>
<!DOCTYPE svg PUBLIC "-//W3C//DTD SVG 1.1//EN" "http://www.w3.org/Graphics/SVG/1.1/DTD/svg11.dtd">
<!-- Creator: CorelDRAW -->
<svg xmlns="http://www.w3.org/2000/svg" xml:space="preserve" width="25in" height="39in" style="shape-rendering:geometricPrecision; text-rendering:geometricPrecision; image-rendering:optimizeQuality; fill-rule:evenodd; clip-rule:evenodd"
viewBox="0 0 2.71669 2.48839"
 xmlns:xlink="http://www.w3.org/1999/xlink">
 <defs>
  <style type="text/css">
   <![CDATA[
    .fil0 {fill:black}
   ]]>
  </style>
 </defs>
 <g id="Layer_x0020_1">
  <metadata id="CorelCorpID_0Corel-Layer"/>
  <path class="fil0" d="M1.81927 1.77658c0.0306163,-0.0578099 0.142043,-0.145236 0.188388,-0.200025 0.0138562,-0.0163804 0.194308,-0.216651 0.194308,-0.158814l0 0.00587725c0,0.0505743 -0.115909,0.195741 -0.148402,0.228213 -0.0350817,0.035055 -0.182457,0.136819 -0.234293,0.124749zm-0.0706501 -0.852988c0.0237336,-0.0125513 0.125176,-0.100004 0.135412,-0.100004 0.0129899,0 0.0588795,0.232657 0.0588795,0.25884 0,0.00160969 -0.004059,0.0107438 -0.00588795,0.0176425 -0.0361834,-0.00965282 -0.179815,-0.139637 -0.188404,-0.176478zm-1.03034 -0.0235304c0.110555,-0.0091929 0.206249,-0.0149204 0.27521,-0.0662221 0.0468041,-0.0348197 0.0521626,-0.0331404 0.0914638,-0.0792066 0.0299264,-0.0350764 0.0406809,-0.0746609 0.0807895,-0.0840036 0.0121021,0.145279 0.0241989,0.323548 -0.141305,0.323548l-0.0529862 0c-0.0639171,0 -0.242417,-0.0538953 -0.253171,-0.0941163zm0.235507 0.152948c0.0397503,0 0.142364,-0.0176692 0.170756,-0.029397 0.0198511,-0.00820356 0.134883,-0.0706073 0.135401,-0.0706073 0.0193217,0 0.0263273,0.0131824 0.0366967,0.0243433l-0.25454 0.416863c-0.0438147,-0.0293221 -0.133674,-0.125337 -0.179072,-0.168162 -0.0237818,-0.0224395 -0.0730405,-0.0607566 -0.0903247,-0.080351 -0.0420125,-0.0476544 -0.0603074,-0.0376059 -0.0603074,-0.116219 -0.0127599,-0.00853512 -0.0196051,-0.0176478 -0.041221,-0.0176478l-0.0353224 0c-0.153445,0 -0.185799,0.0970897 -0.231935,0.109935 -0.0343384,0.0095726 -0.256401,-0.0334613 -0.309724,-0.0334613l-0.0176638 0c-0.027445,0 -0.076538,0.0309639 -0.076538,0.0647086l0 0.00588795c0,0.0894744 0.261048,0.0729924 0.294381,0.0941163 0.0412852,0.0149365 0.0344079,0.12354 0.10009,0.12354l0.0176585 0c0.0380123,0 0.035424,-0.029413 0.0588742,-0.029413 0.0443548,0 0.073955,0.029413 0.141311,0.029413 0.017958,0 0.023755,-0.00565265 0.0353224,-0.0117652 -0.00197869,-0.00847095 -0.0176638,-0.0875117 -0.0176638,-0.088239 0,-0.0287178 0.0184393,-0.0647086 0.0471036,-0.0647086 0.0134926,0 0.270894,0.364721 0.300269,0.364721l0.0058826 0c0.0108668,0 0.304323,-0.291954 0.317933,-0.317661 0.0486384,0.0325415 0.255556,0.319538 0.311077,0.389225 0.0259744,0.0326057 0.048109,0.0626497 0.0740352,0.0966244 0.045173,0.059179 0.0458522,0.0370657 0.0388305,0.125979 -0.00777573,0.0984748 -0.00421408,0.246337 -0.0239048,0.329575l0.0121021 0.0233539c0.0311992,0 0.100084,-0.0264771 0.100084,0.0117706l0 0.0058826c0,0.0381086 -0.00451356,0.0693024 -0.0176638,0.0941216 -0.0322206,-0.000716608 -0.0415098,-0.0117652 -0.076538,-0.0117652l-0.0176638 0c-0.114133,0 -0.238465,0.0470769 -0.247278,0.152953 0.0106261,0.00710725 0.010348,0.0117652 0.0235465,0.0117652l0.435687 0c0.0213431,0 0.0328677,-0.00494139 0.0470983,-0.0117652 -0.00288248,-0.0346646 -0.0176585,-0.0529327 -0.0176585,-0.100004l0 -0.170601c0,-0.0254503 0.0402263,-0.0332527 0.0701687,-0.0355256l-0.0112892 -0.282146c0.0465528,0.0669494 0.0290761,0.0832869 0.053906,0.163798 0.00856186,0.0277712 0.0259904,0.165638 0.0520664,0.165638l0.00588795 0c0.0260492,0 0.0541788,-0.0314826 0.10009,-0.0352956l0.0074816 0.000235304 -0.0074816 0.288012c0.0132038,0.00308034 0.0135353,0.00588795 0.0294397,0.00588795l0.447457 0c0.0746556,0 -0.0164766,-0.164713 -0.200174,-0.164713l-0.0588795 0c-0.0523445,0 -0.100812,0.0235251 -0.111871,0.0235251 -0.0341298,0 -0.0105673,-0.153424 -0.00555104,-0.182034 0.00913942,-0.0521412 0.129193,-0.062254 0.129193,-0.0885652 0,-0.0307339 -0.119192,-0.348619 -0.137706,-0.409504 -0.00751904,-0.0247176 -0.0673879,-0.197404 -0.065944,-0.200372 0.000508043,-0.00104282 0.168328,-0.0113641 0.168328,-0.107817l0 -0.0235304c0,-0.0320174 -0.0626016,-0.0612967 -0.0765915,-0.082303 -0.0288301,-0.0432639 -0.0344239,-0.0508578 -0.0941484,-0.0647674 -0.00431034,-0.0184553 -0.00710191,-0.0411729 -0.0294397,-0.0411729l-0.0117706 0c-0.0257177,0 -0.0600507,0.0312366 -0.0706607,0.0470608 -0.0194661,-0.00933195 -0.0353224,2.13913e-005 -0.0353224,-0.0235304l-0.00187174 -0.0178403 0.0195356 -0.211592c0.0121235,-0.117941 -0.0421194,-0.323548 -0.141305,-0.323548l-0.0647621 0c-0.175162,0 -0.465255,0.235309 -0.518113,0.235309 0.00245465,-0.0294184 0.0443869,-0.094742 0.0579918,-0.136182 0.0172039,-0.0524033 0.0303221,-0.100015 0.0303221,-0.169718l0 -0.0117599c0,-0.286911 -0.228999,-0.523568 -0.512225,-0.523568 -0.285579,0 -0.520739,0.239401 -0.514364,0.522525 0.00665269,0.295365 0.218528,0.530482 0.508481,0.530482z"/>
 </g>
</svg>
