<?xml version="1.0" encoding="UTF-8"?>
<!DOCTYPE svg PUBLIC "-//W3C//DTD SVG 1.1//EN" "http://www.w3.org/Graphics/SVG/1.1/DTD/svg11.dtd">
<!-- Creator: CorelDRAW -->
<svg xmlns="http://www.w3.org/2000/svg" xml:space="preserve" width="25in" height="39in" style="shape-rendering:geometricPrecision; text-rendering:geometricPrecision; image-rendering:optimizeQuality; fill-rule:evenodd; clip-rule:evenodd"
viewBox="0 0 0.702191 0.698197"
 xmlns:xlink="http://www.w3.org/1999/xlink">
 <defs>
  <style type="text/css">
   <![CDATA[
    .fil0 {fill:#080A09}
   ]]>
  </style>
 </defs>
 <g id="Layer_x0020_1">
  <metadata id="CorelCorpID_0Corel-Layer"/>
  <path class="fil0" d="M0.315212 0.553197c0,-0.0190642 0.0182653,-0.0315212 0.0378271,-0.0315212l0.0110332 0c0.0123049,0 0.0267911,0.017035 0.0267911,0.0283696l0 0.00157578c0,0.00862811 -0.00395881,0.00812496 -0.0094547,0.0110332 -0.00426291,-0.00636395 -0.0178008,-0.0141848 -0.0283696,-0.0141848l-0.00157578 0c-0.0102592,0 -0.020253,0.00361324 -0.0204907,0.0141848l-0.00472735 0c-0.00531067,0 -0.0110332,-0.00278665 -0.0110332,-0.00788168l0 -0.00157578zm-0.0110305 -0.0740757c0.0394913,0 0.0326934,-0.0409759 0.0441302,-0.0409759l0.00157578 0c0.0191195,0 0.00961504,0.0409759 0.0441275,0.0409759l0.00945747 0c0.0469777,0 0.0286378,-0.00920589 0.0425545,-0.0252153 0,0.0247481 -1.93517e-005,0.0803788 -0.0220665,0.0803788l-0.00472735 0c-0.00620361,0 -0.0267054,-0.0147764 -0.0317894,-0.018644 -0.0228931,-0.0174166 -0.015603,-0.00486281 -0.0372134,-0.00847329 -0.0275347,-0.00460018 -0.0524985,0.0318474 -0.064961,0.0318474l-0.00473012 0c-0.00986385,0 -0.0199212,-0.0239602 -0.021732,-0.0334315 -0.00289723,-0.0151745 -0.00191029,-0.0341143 -0.00191029,-0.0516774 0.0071629,0.0112848 0.00511439,0.0252153 0.0283724,0.0252153l0.0189122 0zm-0.0409787 -0.0630424c0.000693898,-0.0311369 0.0486005,-0.0583123 0.0835304,-0.0583123l0.0110332 0c0.03258,0 0.0796959,0.0275596 0.0803815,0.0583123l-0.0299454 0 -0.0472072 0.00533831 -0.0126837 -0.000608197 -0.0645352 -0.00702191 -0.00323727 0.000716014 -0.0173364 0.00157578zm0.171166 -0.092363c0.00445919,0.00334232 0.0171401,0.0160315 0.0204907,0.0204907 0.0106241,0.0141378 0.0226885,0.0354911 0.0226885,0.059266l0 0.0141848c0,0.0221992 -0.0126864,0.0530763 -0.0252181,0.0614639 -0.00205958,-0.00415233 -0.00157578,0.00129933 -0.00157578,-0.00472735l0 -0.00157578c0,-0.00664041 0.012609,-0.0292764 0.012609,-0.0488576 0,-0.0527252 -0.052222,-0.0997139 -0.104018,-0.100867 -0.0166038,0.00191306 -0.0454517,0.00671505 -0.0659645,0.0160122 -0.011412,0.00516968 -0.0205239,0.0129408 -0.0288949,0.0221964 -0.0143147,0.0158297 -0.026498,0.036865 -0.026498,0.0547764l0 0.0173391c0,0.0173779 0.0126063,0.0337715 0.0126063,0.0425545 0,0.000210104 -0.0015509,0.00311839 -0.00157578,0.0031488 -0.0136098,-0.0036326 -0.0267911,-0.0443956 -0.0267911,-0.066194l0 -0.00472735c0.00756929,-0.0261801 0.00775175,-0.0572092 0.0461318,-0.0862562 0.00843735,-0.00645242 0.0152851,-0.00985279 0.0247785,-0.0146244 0.0487442,-0.0192743 0.101265,-0.0135683 0.141232,0.0163964zm-0.117578 -0.226001l-0.00142926 0.0157772 -0.00960399 -0.00316815 -0.00157578 0.0394001 -0.000326215 0.00534108 -0.0138586 -0.00691686c-0.000539084,0.0064773 -0.00157578,0.00352201 -0.00157578,0.00945747 0,0.0206041 0.00404451,0.0250356 0.00774346,0.039613l-0.0172009 -0.00966757 0 0.0141848c0,0.0124045 0.00359389,0.0218426 0.00771305,0.0302993l-0.015592 -0.00665976 0 0.00472735c0,0.00623402 0.010132,0.0363011 0.012363,0.041656l-0.0139388 -0.00540466c-0.00183289,0.0219863 -0.0208501,0.0233824 -0.0321626,0.0387587 -0.0098915,0.0134439 -0.0233022,0.025771 -0.027731,0.0447716 -0.00610685,-0.00702468 -0.0137066,-0.0306946 -0.0231806,-0.031383l-0.00361048 0.0124708c-0.0067731,-0.00974774 -0.0102177,-0.0271201 -0.024867,-0.0283171l-0.0019407 0.0141433 -0.014171 -0.0189232c0,0.0235455 -0.0128164,-0.00696109 -0.0167033,-0.00696109l-0.00693621 0.00853688c-0.00226415,-0.0113235 -0.0125316,-0.0233575 -0.0252181,-0.0236423l0 0.00473012c-0.0105467,-0.00281706 -0.0128578,-0.0122635 -0.0283696,-0.012609l5.52907e-006 0.00471906 -0.0646237 -0.0346645c0.00449237,0.0192854 0.0385542,0.0523934 0.0409566,0.0612593l-0.00785957 0.00178312 0.0188928 0.0252319 -0.00779322 0.00191582 0.00623679 0.00752506 0.0204631 0.0219283 -0.0110056 0.00171401c0.00168636,0.00631419 0.0254918,0.0230064 0.033097,0.0236395l0 0.00315433c-0.0041938,9.12296e-005 -0.012609,0.00117216 -0.012609,0.00472735 0,0.00863916 0.024198,0.016496 0.0297823,0.0200733l-0.0124459 0.00514203c0.00834059,0.0124542 0.03143,0.0139111 0.0361324,0.0201949l-0.0124902 0.00502316c0.00542954,0.00741171 0.0222932,0.0141848 0.0367019,0.0147515l-0.00865852 0.00690304 -0.000450619 0.00237473 0.031159 0.0115585 -0.00831848 0.00381505c0.00241067,0.00903173 0.0212869,0.0141821 0.0330223,0.0141682l-0.00148732 0.00943535 0.0204769 0.00633907c-0.000790656,0.00140438 -0.00102841,0.00315433 -0.00315433,0.00315433 -0.00611515,0 -0.000284747,-0.00291382 -0.0110332,-0.00315433l3.59389e-005 0.00779598 -0.0220831 -0.00779598c0.000702191,0.0184422 -0.0131536,0.00538254 -0.0402295,0.00218122l-0.0023775 0.01241 -0.0255 -0.001902 0.00189647 0.00780151 -0.00472735 0c0.00128274,0.00550418 -0.0403926,-0.00765499 -0.0403926,-0.00192964 0.0444896,0.0186744 -0.0234018,0.0248974 -0.0415647,0.0287207l5.52907e-005 0.00289447 0.0471408 0.00968416 -0.00143203 0.00443431 0.0191499 0.00359113 -0.00184118 0.00439008 0.017306 0.00179971 0.00793974 1.38227e-005 -0.00155367 0.00840141 0.0252706 -0.00360772 -0.00477711 0.00980856 0.0255498 -0.00496787 -0.00319304 0.00895709 0.0261746 -0.0076854 -0.00361601 0.00766052 0.00131592 0.00179695 0.0230313 -0.0109199 0 0.00787892 0.012609 0c0.0121695,0 0.0202613,-0.00516415 0.0283807,-0.00947405l0.00594927 0.0037183 0.00123575 0.00106435 -0.0119262 0.00626996 0 0.00315157 0.00357731 0.000787892 -0.0161863 0.0102454 0.00315433 0 -0.000389799 0.00254613 -0.0121584 0.00829083 0.00662935 0.00231115 -0.0161476 0.0120672 0.00722096 0.00085977 -0.0102232 0.0125537 -0.00507292 0.0108729 -0.00172507 -0.000555671 0.00114175 0.00566453 -0.0165568 0.0226139 -0.00157855 0.00315433 0.0270675 -0.0129712 0.0182763 -0.00325385 0.0129712 -0.00899302 0.000348331 0.00661 0.0138365 -0.0144889 0 0.00630313 0.00230286 -0.000641372 0.00975327 -0.0116193 0.00321792 0.00410257 0.00994402 -0.0154841 0 0.00473012 0.00171677 0.00100353 0.00780151 -0.0152547 0.00426844 0.00303822 0.00518626 -0.0126229 0.00632802 0.00180248 0.00149008 -0.00476053c0.0109337,0.00291935 0.0216463,0.0173364 0.0409787,0.0173364 0.0107817,0 0.0373903,-0.0117824 0.0402239,-0.0138614l0.00567282 0.012515 0.00403069 -0.00313498 0.00735089 0.0143341 0.00370447 -0.00484899 0.00938835 0.0151358 0.00321515 -0.00394222 0.0115226 0.0105965 0.000467206 -0.00515309 0.0137176 0.013032 0.000541848 -0.00542678 0.0126173 0.00845118 0.0124736 0.00354966 0.0121916 0.00445919 0.00945747 0.00630313 0.00787892 0.00315433 -0.00157578 -0.0063059c-0.00497339,-0.0074283 -0.0207312,-0.028906 -0.0177041,-0.0358809l-0.0106047 -0.0112074 0.00641924 -0.00202087 -0.0156638 -0.0117244 0.0057834 -0.00334232 -0.0123602 -0.00674546 0 -0.00315157 0.00315157 0 -0.000312392 -0.00247426 -0.0150999 -0.00800609 0.00402792 -0.00302163 -0.0131592 -0.00682287 0.000904002 -0.00174166c0.00184671,-0.000489322 0.00429608,-0.00157578 0.00472735,-0.00157578 0.00842353,0 0.0199461,0.00787892 0.0283696,0.00787892 0.0125178,0 0.0146907,0.00105605 0.01275,-0.0081996l0.0238524 0.00970904 -0.00192964 -0.0078098 0.0255388 0.0062202 -0.00192964 -0.00765223 0.0243085 0.00421591 -0.00531896 -0.00938006 0.0271671 0.00325109 -0.00353584 -0.00722372 0.0254779 -0.00215634 -0.0018163 -0.00434861 0.0205654 -0.00344737 -0.000223927 -0.00514756 0.0442215 -0.00900685 1.10581e-005 -0.0031958 -0.0456314 -0.0109558 0.0014652 -0.00464441 -0.0190808 -0.00333126 0.0017693 -0.00624231 -0.0110858 0.000348331 -0.0140742 -0.00189923 0.00306587 -0.00823001 -0.0252429 0.00188541 0.00155367 -0.00843735 -0.0217983 0.00372935 -0.00176377 -0.00788445 -0.0235538 0.00658788 0.00377082 -0.00783192 -0.00543507 -0.000334508c-0.00861981,0 -0.0118764,0.00600456 -0.0189122,0.00788168 0,-0.0392868 -0.0172396,-0.0145331 0.038145,-0.0320824l0.00101458 -0.00249637 -0.00905937 -0.00814984 0.0124542 -0.0029774 0.0094547 -0.00315157 0.00945747 -0.00472735 -0.00945747 -0.00945747c0.0155837,0 0.0334204,-0.00361048 0.0360937,-0.0152547l-0.0137314 -0.00455042 0.0381505 -0.0165927 -9.12296e-005 -0.00250467 -0.0131398 -0.00680351c0.0122579,-0.00102011 0.028812,-0.0103366 0.031524,-0.020499l-0.0141876 -0.00314051 0 -0.00315433c0.0111549,-0.000248808 0.028483,-0.013596 0.0336029,-0.0215661l-0.00996061 -0.00364918c0.00565347,-0.00844288 0.0243417,-0.0194291 0.0251268,-0.0296026l-0.00630037 -0.00196558 0.00323727 -0.0062589 -0.00472735 0c-0.000823831,-0.00353307 -0.00157578,-0.0036243 -0.00157578,-0.00787892l0 -0.00157855c0,-0.00670676 0.00889627,-0.00643583 0.0141848,-0.0110305l0.00630313 -0.00945747 0.00788168 -0.0094547 0.0276343 -0.0420071 -0.00178312 -0.00221439 -0.0636782 0.0363398 0 -0.00472735c-0.0167116,0 -0.0201286,0.0117907 -0.0299454,0.012609l0 -0.00473012 -0.00126339 -0.00164213 -0.0304486 0.023739 -0.00138503 -0.0110637c-0.0152409,0.00126892 -0.0299454,0.0436713 -0.0299454,0.0189122 0,-0.0149534 -0.0337384,0.0384491 -0.033097,0.0315212 0,-0.00875527 -0.0019877,-0.0113208 0.00315157,-0.020488 -0.006516,0.00173889 -0.0187905,0.0226553 -0.020488,0.0299454l-0.00315157 0c-0.00428779,-0.0184035 -0.0256245,-0.0443597 -0.0394029,-0.0535877 -0.00635013,0.00148179 -0.00787339,0.00473012 -0.0141848,0.00473012 -0.0102841,0 -0.0179418,-0.0184615 -0.00472735,-0.0299454l-0.0145746 0.00302993 0.013983 -0.0452803 -0.00145138 -0.0012551 -0.0152934 0.00725413c0.00333956,-0.0143369 0.0108618,-0.0245684 0.0061345,-0.0444095l-0.0171677 0.00973668c0.00482411,-0.00911466 0.00787892,-0.0206898 0.00787892,-0.0346728l-0.000519732 -0.0151054 -0.013748 0.00722925 -0.00343355 -0.0447688 -0.00908978 0.00536319c0,-0.0136927 -0.000962057,-0.0335614 -0.0104803,-0.035903l-0.00239961 0.00408045 -0.020217 -0.083229c-0.00798121,0.00584699 -0.0204907,0.0664151 -0.021168,0.0841745l-0.00534937 -0.00563412 -0.00156473 -0.00020734 -0.00659065 0.0193821z"/>
 </g>
</svg>
