<?xml version="1.0" encoding="UTF-8"?>
<!DOCTYPE svg PUBLIC "-//W3C//DTD SVG 1.1//EN" "http://www.w3.org/Graphics/SVG/1.1/DTD/svg11.dtd">
<!-- Creator: CorelDRAW -->
<svg xmlns="http://www.w3.org/2000/svg" xml:space="preserve" width="25in" height="39in" style="shape-rendering:geometricPrecision; text-rendering:geometricPrecision; image-rendering:optimizeQuality; fill-rule:evenodd; clip-rule:evenodd"
viewBox="0 0 0.38646 0.760882"
 xmlns:xlink="http://www.w3.org/1999/xlink">
 <defs>
  <style type="text/css">
   <![CDATA[
    .str0 {stroke:#1F1A17;stroke-width:0.00113961}
    .fil1 {fill:blue}
    .fil0 {fill:yellow}
   ]]>
  </style>
 </defs>
 <g id="Layer_x0020_1">
  <metadata id="CorelCorpID_0Corel-Layer"/>
  <g id="_439883888">
   <path id="_439884392" class="fil0 str0" d="M0.213224 0.000569807c0.0327601,0 0.0646349,0.0409947 0.0682153,0.0744652 0.00113812,0.0106484 0.0041397,0.0220864 0.00546177,0.0345234 0.00107979,0.0101578 0.00466165,0.0224483 0.00638303,0.0336021 0.00166306,0.010765 0.00990805,0.0199402 0.00990805,0.0300786 0.00176625,0.00071338 0.0080087,0.010931 0.00873404,0.0139864 0.00153743,0.00648622 0.00169297,0.0127676 0.00307935,0.0187288 0.00103941,0.00165259 0.0027264,0.00818069 0.0027264,0.00818069l0 0.0027264c0,0.00136245 0.00272789,0.0036342 0.00272789,0.0036342 0,0.00395574 0.00867422,0.027264 0.00999629,0.027264 0.00249758,0 0.00476933,-0.0027264 0.00999629,-0.0027264l0.0036357 0c0.00690049,0 0.0201571,0.0131011 0.0243297,0.0174726 0.00855607,0.00896286 0.0103089,0.0158963 0.0164122,0.0252495l0.00106035 0.0199821 0 0.00182009c0,0.0121963 -0.0327242,0.0507098 -0.0402349,0.0606373 -0.00648921,0.00858299 -0.0143768,0.0160638 -0.0210574,0.0246617 -0.00202947,0.00260974 -0.00372992,0.0614359 -0.00477531,0.110885l-0.00250506 0 -0.00213266 -0.104393 -0.000179467 -0.00273238c0,-0.00315712 -0.0018171,-0.00138638 -0.0018171,-0.0045435 0,-0.016472 -0.016324,-0.0188799 -0.0162014,2.99111e-006 -0.00455845,0.0718704 -0.00768865,0.168317 -0.010101,0.247188l-5.08489e-005 0.018174 0.00677187 0.00511629 -0.000658044 0.0112152 0.00297466 2.692e-005c-0.000608691,0.00730579 -0.0140807,0.0148583 -0.0154506,0.0199911l0.00537503 -0.00200404 0.000958651 0.000880882 -0.00570554 0.00726541 0.00300756 0.000219847 0 0.00999629c0.00789952,-0.00183953 0.0089853,-0.0145966 0.0163584,-0.0172677l-0.000910793 0.00545579 -0.000906307 0.0099948c-0.00267704,0.00179168 -0.0111434,0.0175354 -0.0152636,0.0210888 -0.00707996,0.00610037 -0.0138728,0.00963437 -0.0219892,0.0143618 -0.0150019,0.00873703 -0.0352787,0.0145323 -0.0590789,0.0145323l-0.0181755 0c-0.0315413,0 -0.0687761,-0.0179272 -0.0821763,-0.0359666 -0.00922159,-0.0124161 -0.0118912,-0.0263053 -0.0132446,-0.0458253 -0.000755255,-0.0109101 -0.0014791,-0.0165977 -0.00416064,-0.0258282 -0.00234204,-0.00805805 -0.00674645,-0.0134286 -0.00674645,-0.0232439 -0.00443133,-0.00661634 -0.00908699,-0.0225799 -0.00908699,-0.0336261l-0.000285651 -0.00186047 0.00210275 -0.0154057 0 -0.00636209c0,-0.00203695 -0.000719362,-0.00199358 -0.0018171,-0.0036342 0,-0.0100441 -0.000366411,-0.0311958 -0.00375384,-0.0380499 -0.00496225,-0.0100397 -0.0116967,-0.01499 -0.0116967,-0.0310178l0 -0.0209019c0,-0.00786213 0.00505647,-0.0141988 0.00636209,-0.0190848l-0.0118134 0c-0.0210664,0 -0.0268632,-0.0493189 -0.0305273,-0.0703494 -0.00339042,-0.0194632 -0.00339042,-0.0248546 -0.00960296,-0.0412878 -0.0033635,-0.00890304 -0.00712632,-0.031127 -0.00712632,-0.0437629l0 -0.0036357c0,-0.00741048 0.00529427,-0.0201481 0.00891052,-0.0247141 0.00469754,-0.00593287 0.0162627,-0.0130622 0.018352,-0.0161819 -0.000599718,-0.00720708 -0.00569956,-0.0257445 -0.00779035,-0.0349212 -0.00196965,-0.00864132 -0.00674944,-0.0283318 -0.00674944,-0.0368729l0 -0.0018171c0,-0.0151889 0.0122561,-0.0482765 0.0189143,-0.0574218 0.00987216,-0.0135647 0.0254678,-0.0277904 0.041065,-0.0352727l0.0045435 0c0.0096912,-0.00270845 0.017492,0.00357587 0.017492,0.00357587 -4.18756e-005,9.422e-005 -3.14067e-005,0.000183953 1.94422e-005,0.000272191 -0.000179467,-0.000326031 0.000171989,-0.000658044 0.00157332,-0.00112167 0.0145532,0.00770061 0.031637,0.00226278 0.0472566,0.0127227l0.00360878 0.00186645c2.54244e-005,-0.0187408 0.00108577,-0.0248965 0.00349362,-0.0392957 0.00118747,-0.00710538 0.00111718,-0.0123757 0.00305692,-0.0187528 0.00204592,-0.00672701 0.00501759,-0.00877143 0.00715474,-0.0137471 0.00244972,-0.00569358 0.000577284,-0.012129 0.00472296,-0.0170882 0.00360878,-0.00431767 0.00615421,-0.00705902 0.0106573,-0.0102446 0.00853065,-0.00602858 0.0171361,-0.0108847 0.0318299,-0.0108847l0.0045435 0zm-0.114814 0.098916c-9.72111e-005,-0.000154042 -0.000213864,-0.000299111 -0.000343978,-0.000433711 0.000130113,0.000136096 0.000246767,0.000279669 0.000343978,0.000433711zm0.208863 0.375435c0.000919767,0 0.00166605,0.00969868 0.00166605,0.0216586 0,0.01196 -0.000746282,0.0216571 -0.00166605,0.0216571 -0.000921262,0 -0.00166605,-0.00969718 -0.00166605,-0.0216571 0,-0.01196 0.000744787,-0.0216586 0.00166605,-0.0216586z"/>
   <path id="_439884080" class="fil1" d="M0.11144 0.170513l0 -0.00545279c0,-0.0053825 0.00375235,-0.0172662 0.00817919,-0.0172662l0.0018186 0c0.00149256,0 0.0206671,0.010439 0.022719,0.0118134 0,0.00563974 -0.000186944,0.00545279 0.00545279,0.00545279 0.00305542,0.00456294 0.0136305,0.00481718 0.0136305,0.00726989 0,0.00203695 -0.000719362,0.00199507 -0.0018171,0.0036357l-0.0054513 0c-0.00068646,0.00102446 -0.00213565,0.0036357 -0.0036357,0.0036357 -0.00355643,0 -0.000100202,-0.00137292 -0.00549617,-0.00182757l-0.00090182 0.0053511 -0.00359831 0.00101997c-0.00108727,0.0130682 -0.0308997,0.00960894 -0.0308997,-0.013632zm0.164133 0.281274l-5.98222e-006 0.000305093c-0.000532418,0.00258432 -0.00178719,0.00388097 -0.00375983,0.00388097 -0.00284903,-0.000237793 -0.00462725,-0.000523444 -0.00534661,-0.000839007l-0.00149107 0.000171989 -0.00205489 -0.00036342 -0.00182159 0 -0.000728335 0.000191431 -0.013958 -0.00105885c-0.0130024,0 -0.0195125,0.000258731 -0.01952,0.000782175 -0.000867422,0.000506993 -0.00169147,0.00075376 -0.00247514,0.00075376 -0.00152547,0 -0.00247963,-0.00111568 -0.00286997,-0.00334705 2.99111e-005,-0.00171839 0.00166754,-0.00368206 0.00490991,-0.00590595 0.0063262,-0.00158379 0.0110207,-0.0039019 0.0140896,-0.00695433l0.00436852 -0.00321395 0.00183953 0 -0.00460631 -0.000143573 -0.000173484 0.000143573 -0.000418756 0 -0.000693938 -0.000171989c-0.0134929,-0.000782175 -0.0202259,-0.00204143 -0.020196,-0.0037688l2.99111e-006 -0.000198909c2.84156e-005,-0.00162268 0.0034308,-0.00252898 0.0102176,-0.00273836l0.0159725 0.000839007 0.000868918 0 0.00550663 -0.00016152 0.00180962 0.00016152 0.00851868 -0.00273836c0.00290138,0.000506993 0.00432664,0.00199358 0.00428178,0.0044747 -4.18756e-005,0.00247963 -0.00209677,0.00418756 -0.0061572,0.00514172 -0.00186047,0.00111568 -0.0043401,0.00220295 -0.00743141,0.00327228 -0.00396771,0.0021551 -0.00698574,0.00404398 -0.00904661,0.00566516l-0.00153594 0 0.0197443 0.00120243 0.00256936 -0.00016152c0.000243776,0.000219847 0.00150902,0.000391836 0.00382563,0.000496524 0.00341585,0.000523444 0.00512228,0.00116354 0.00511031,0.00190683 0.000257236,0 0.0004711,0.000792644 0.000655053,0.00237644zm-0.00101997 0.0228356l-7.47778e-006 0.000420251c-0.000550364,0.00204143 -0.00181261,0.00321395 -0.00377329,0.00352054l-0.0151425 0.00295671 -0.00268303 -0.00036342c-2.99111e-006,0.000210873 -0.000598222,0.000372393 -0.00179317,0.000506993 -0.0011097,-0.000373889 -0.00166007,-0.00109774 -0.00164062,-0.00218501l4.48667e-006 -0.000278173c2.54244e-005,-0.00146864 0.00176775,-0.00239289 0.00521949,-0.00276528l0.00709641 -0.00162268 0.00319899 -0.000667018c-0.000332013,-0.000209378 -0.00228371,-0.000954164 -0.00585659,-0.00224184 -0.00334556,-0.00131609 -0.0080087,-0.00247963 -0.0139715,-0.00349063 -0.00711585,-0.00117401 -0.0115412,-0.00175578 -0.0132955,-0.00175578l-0.00254843 0 5.98222e-006 -0.000361924c0.000548869,0.00301504 0.00358335,0.00737309 0.00911092,0.0130771l-2.39289e-005 0.00145069c-0.000441189,-0.000505498 -0.000889855,-0.00209826 -0.00133852,-0.0047783 -0.000610187,-0.000583267 -0.000903315,-0.00119345 -0.000892847,-0.00184252l2.99111e-006 -0.000170493c1.346e-005,-0.00082106 0.000504002,-0.00153594 0.00145817,-0.00214762l0.000925749 0c0.0034323,0.000649071 0.00582369,0.00183206 0.00717717,0.00354895 0.0029627,0.00297616 0.00512228,0.00666868 0.00645781,0.0110656l0.000553355 0.00321544c-3.58933e-005,0.00203994 -0.00121738,0.00405445 -0.00353998,0.00602858l-0.00213565 0.000477082c-0.0029283,-0.00059224 -0.00553655,-0.00197413 -0.0078068,-0.00413072l-0.00490094 -0.00559039 -0.00621702 -0.00723998c-0.00200704,-0.0025574 -0.0036686,-0.00520902 -0.00497422,-0.00796533 -0.000462127,-0.00132656 -0.000801618,-0.00273687 -0.00102296,-0.00424439 7.17867e-005,-0.00414119 0.00195619,-0.00660138 0.00564123,-0.00738356l0.00271593 -0.000305093 0.00345772 0.000305093 0.000451658 -0.000163016c0.00866973,0.00059224 0.0158723,0.00167951 0.0215973,0.0032633l0.00734168 0.0023555c0.00749124,0.0031287 0.0112032,0.00629629 0.0111479,0.00950126zm-0.000910793 0.0395709c-4.93533e-005,0.00286997 -0.00190982,0.00450162 -0.00558889,0.00489196 -0.00764528,0.00123084 -0.013792,0.00201302 -0.0184342,0.00234653 -0.00278772,0.000629629 -0.00779932,0.00146116 -0.0150498,0.0024916 -0.00239438,0.00055186 -0.00665073,0.00125776 -0.0127511,0.0020878 -2.99111e-006,0.000171989 -0.000818069,0.000372393 -0.00244374,0.000590744 -0.00141031,-0.000542887 -0.00213565,-0.00109624 -0.00218202,-0.00167801 2.39289e-005,-0.0014118 0.0015135,-0.00259479 0.00444928,-0.00354895 0.00304046,-0.00197413 0.00670607,-0.00386302 0.0110028,-0.00567563 0.00174232,-0.000391836 0.00260376,-0.000459136 0.00259928,-0.000219847l-0.0009422 -0.00349212 4.18756e-005 -0.00234653 9.57155e-005 -0.000562329c-0.00817321,-0.00180364 -0.0122351,-0.00351904 -0.0122067,-0.00514172l-0.000324536 -0.000505498c2.54244e-005,-0.00152547 0.000792644,-0.0022897 0.00230016,-0.0022897 0.0135079,0.00111568 0.0250371,0.00300607 0.0345862,0.00567713 0.00743889,0.00168699 0.0117506,0.00278472 0.0129351,0.00327078 0.00130263,0.00131609 0.00193824,0.0026905 0.00191282,0.0041038zm-0.0251627 -0.00128917c-0.000198909,0 -0.00326629,-0.000830033 -0.00919916,-0.00250954l7.47778e-006 -0.000361924c-1.04689e-005,0.000533913 0.000227324,0.00169746 0.000720858,0.00349212 0.00244523,-0.000783671 0.00527931,-0.00132656 0.00848877,-0.00162268l-1.79467e-005 0.00100202zm0.0252928 0.0418965l-5.98222e-006 0.000305093c-0.000530922,0.00258432 -0.00178569,0.00388246 -0.00375833,0.00388246 -0.00284903,-0.000239289 -0.00462725,-0.00052494 -0.00534661,-0.000839007l-0.00149107 0.000171989 -0.00205489 -0.00036342 -0.00182159 0 -0.000728335 0.000191431 -0.013958 -0.00106035c-0.0130024,0 -0.0195125,0.000258731 -0.0195215,0.000783671 -0.000865927,0.000505498 -0.00168998,0.00075376 -0.00247365,0.00075376 -0.00152547,0 -0.00247963,-0.00111718 -0.00286997,-0.00334855 2.99111e-005,-0.00171839 0.00166754,-0.00368206 0.00490991,-0.00590445 0.0063247,-0.00158529 0.0110207,-0.0039019 0.0140896,-0.00695433l0.00436702 -0.00321544 0.00183953 0 -0.00460482 -0.000143573 -0.00017498 0.000143573 -0.000418756 0 -0.000692442 -0.000171989c-0.0134944,-0.000782175 -0.0202274,-0.00203994 -0.0201975,-0.0037688l4.48667e-006 -0.000198909c2.84156e-005,-0.00162118 0.0034308,-0.00252749 0.0102176,-0.00273836l0.0159725 0.000839007 0.000868918 0 0.00550663 -0.00016152 0.00180962 0.00016152 0.00851868 -0.00273687c0.00289988,0.000505498 0.00432664,0.00199208 0.00428178,0.0044747 -4.18756e-005,0.00247963 -0.00209677,0.00418606 -0.00615571,0.00514022 -0.00186197,0.00111568 -0.0043416,0.00220445 -0.00743291,0.00327228 -0.00396771,0.00215659 -0.00698574,0.00404398 -0.00904661,0.00566666l-0.00153594 0 0.0197458 0.00120243 0.00256787 -0.000163016c0.000243776,0.000219847 0.00150902,0.000391836 0.00382563,0.000496524 0.00341585,0.000523444 0.00512228,0.00116354 0.00510882,0.00190833 0.000257236,0 0.0004711,0.000791149 0.000655053,0.00237494zm-0.000792644 0.0454155c-3.88844e-005,0.00215659 -0.00182308,0.00324236 -0.00534212,0.00324236 -0.00422644,0 -0.00952818,-0.00119944 -0.0158963,-0.00360429 -0.000429224,0 -0.0047783,-0.00170792 -0.0130472,-0.0051133 -0.0133194,-0.00525688 -0.0203695,-0.00852915 -0.0211486,-0.00981683 -0.00286548,-0.00252749 -0.0042743,-0.0048456 -0.00423691,-0.00692442 2.84156e-005,-0.0017169 0.00146415,-0.00257535 0.00431617,-0.00257535 0.00317357,0.00185898 0.00961642,0.00438796 0.0193196,0.00757349l-0.000103193 -2.84156e-005 -1.346e-005 0.000677487c0.000157033,-0.00188889 0.00209826,-0.00488448 0.00582369,-0.00900474l0.00195768 -0.00175578c0.00710538,-0.00537054 0.0142452,-0.00887163 0.0214268,-0.0105123l0.000640098 0c0.00249309,0.000409782 0.00371945,0.0017169 0.00368056,0.00391088l-5.98222e-006 0.000361924c-3.88844e-005,0.00226128 -0.00284156,0.00480821 -0.00840353,0.00766023 -0.0108458,0.00643089 -0.0162851,0.010436 -0.0163135,0.0120213 0.00348165,0.00105736 0.00698873,0.00234653 0.0105018,0.00385255 0.0111374,0.00406342 0.0166949,0.00708744 0.0166605,0.00908101l0.000183953 0.000954164zm-0.001177 0.0193659c-5.08489e-005,0.00287147 -0.00191282,0.00450162 -0.00559188,0.00489346 -0.00764378,0.00123084 -0.0137905,0.00201302 -0.0184327,0.00234653 -0.00278622,0.000629629 -0.00779932,0.00145966 -0.0150483,0.0024901 -0.00239438,0.000553355 -0.00665223,0.00125926 -0.0127526,0.0020878 -4.48667e-006,0.000171989 -0.000816573,0.000373889 -0.00244224,0.00059224 -0.0014118,-0.000542887 -0.00213715,-0.00109624 -0.00218501,-0.00167801 2.54244e-005,-0.0014133 0.001515,-0.00259628 0.00445077,-0.00354895 0.00303897,-0.00197563 0.00670607,-0.00386452 0.0110013,-0.00567713 0.00174232,-0.00039034 0.00260376,-0.00045764 0.00259928,-0.000218351l-0.000940704 -0.00349212 4.038e-005 -0.00234653 9.72111e-005 -0.000562329c-0.00817321,-0.00180364 -0.0122351,-0.00352054 -0.0122067,-0.00514172l-0.000326031 -0.000506993c2.692e-005,-0.00152397 0.00079414,-0.0022882 0.00230166,-0.0022882 0.0135064,0.00111568 0.0250356,0.00300607 0.0345862,0.00567713 0.00743889,0.00168699 0.0117521,0.00278472 0.0129351,0.00327078 0.00130263,0.00131609 0.00193824,0.0026905 0.00191431,0.00410231zm-0.0251627 -0.00128917c-0.000200404,0 -0.00326928,-0.000828538 -0.00919916,-0.00250805l4.48667e-006 -0.000361924c-7.47778e-006,0.000533913 0.00022882,0.00169746 0.000722353,0.00349063 0.00244523,-0.000782175 0.00527931,-0.00132506 0.00849027,-0.00162118l-1.79467e-005 0.00100053zm-0.0910659 -0.259537c0.00209826,1.49556e-005 0.00419952,3.29022e-005 0.00628582,4.78578e-005 1.19644e-005,0 2.39289e-005,0 4.93533e-005,1.49556e-006 0,6.58044e-005 0,6.58044e-005 0,6.58044e-005 0.00259479,1.94422e-005 0.00475587,0.000399313 0.00646379,0.0011112 0,0 0,0 1.19644e-005,0 0.000248262,6.87955e-005 0.000542887,0.000236298 0.000889855,0.000405296 0,0 0,0 0,0 0.00171391,0.000909298 0.00295821,0.00224782 0.0037688,0.00394827 0.000146564,0.000698424 0.000291633,0.00139685 0.000438198,0.00206237 -2.99111e-006,0.0025903 -0.00157632,0.00457191 -0.0047125,0.00581173 -0.00173335,0.000684964 -0.00432664,0.00136395 -0.00776343,0.00203695 -4.78578e-005,6.58044e-005 -8.37511e-005,6.58044e-005 -0.00012114,6.58044e-005 -0.001681,0.000252749 -0.00336201,0.000506993 -0.00504152,0.000693938 0.00025574,0.00129814 0.000405296,0.0027608 0.000433711,0.00428925 1.49556e-005,0.000765724 2.84156e-005,0.00152846 4.18756e-005,0.00225978 -8.52467e-005,0.00049802 -0.000171989,0.00102894 -0.000257236,0.00152696 -0.000486056,0.00142526 -0.000960147,0.00285053 -0.00144471,0.00424289 6.43089e-005,0.000200404 0.000116653,0.000399313 0.000168998,0.00063262 2.39289e-005,0.00109774 -0.000400809,0.00302102 -0.0012443,0.00563974 -0.000562329,0.00172438 -0.001346,0.00397818 -0.00236896,0.0067629 0.00187842,1.346e-005 0.0037703,2.54244e-005 0.00568311,-2.84156e-005 0.00230316,-1.64511e-005 0.00459285,-6.73e-005 0.00690647,-0.000151051 0.0027249,-8.076e-005 0.00511181,0.000101698 0.00719063,0.000448667 0.00223137,0.000414269 0.00414269,0.00105736 0.00576686,0.00203246 0.000596727,0.0003365 0.00120243,0.000673 0.00180962,0.000975102 -7.47778e-006,0.000864431 -1.19644e-005,0.00162716 -1.94422e-005,0.00242579 -2.99111e-006,0.000364916 -4.48667e-006,0.000696929 -7.47778e-006,0.00099604 -2.09378e-005,0.00279071 -0.00166007,0.00487102 -0.00490393,0.00624544 -0.00211621,0.000882378 -0.00519556,0.00159277 -0.00919467,0.00206536 -0.000113662,6.58044e-005 -0.00022882,6.43089e-005 -0.000333509,6.43089e-005 -0.000541391,-4.48667e-006 -0.00107231,-8.97333e-006 -0.00160324,-1.19644e-005 -1.04689e-005,0 -2.24333e-005,0 -3.43978e-005,0 -0.00280118,-8.52467e-005 -0.00559338,-0.000137591 -0.00840801,-0.000189936 -0.00130263,2.54244e-005 -0.0025918,5.08489e-005 -0.00389293,0.00010768 -5.83267e-005,0 -0.000116653,0 -0.00016152,-1.49556e-006 -0.00312721,-0.000119644 -0.00624394,-0.000239289 -0.00937414,-0.000360429 -0.000469604,6.43089e-005 -0.00092874,9.422e-005 -0.00139087,9.12289e-005 -5.83267e-005,0 -0.000116653,0 -0.00016152,-1.49556e-006 -0.00055186,6.28133e-005 -0.00109325,5.98222e-005 -0.00162417,5.68311e-005 -0.00140433,2.24333e-005 -0.00283258,8.076e-005 -0.00426233,7.17867e-005 -0.00133553,2.24333e-005 -0.00266059,1.49556e-005 -0.00395275,5.98222e-006 -0.0063262,2.54244e-005 -0.0115247,-0.00017498 -0.0155613,-0.000535409 -0.000234802,-3.43978e-005 -0.00045764,-0.000103193 -0.000680478,-0.000137591 -0.00173933,-0.000577284 -0.00313468,-0.00131908 -0.00415764,-0.00212369 -0.00110222,-0.000904811 -0.00186645,-0.00190683 -0.00229717,-0.00304046 -4.63622e-005,0 -8.52467e-005,-6.73e-005 -0.000124131,-0.000100202 -0.00140732,-0.00144022 -0.0028266,-0.00294624 -0.0042414,-0.00448517 0.00167801,-0.000587753 0.00338295,-0.00117401 0.00507741,-0.00176176 4.63622e-005,0 9.27244e-005,0 0.000136096,-3.29022e-005 0.000776193,-0.000225829 0.00158379,-0.000518958 0.0024243,-0.00071338 0,0 0,0 0,0 0.000840502,-0.000194422 0.001681,-0.000387349 0.0024901,-0.000548869 0.00358634,-0.000674495 0.00743441,-0.000846484 0.0114679,-0.000451658 0.000225829,-0.000764229 0.000477082,-0.00142676 0.000707398,-0.00212369 0,0 0,0 0,0 0.000517462,-0.00142526 0.00105437,-0.00278622 0.00157332,-0.00401108 1.346e-005,0 2.09378e-005,-3.29022e-005 4.18756e-005,-0.000100202 0,0 0,0 1.19644e-005,0 4.18756e-005,-0.000100202 8.22555e-005,-0.000198909 0.000122636,-0.000332013 -1.19644e-005,0 -1.19644e-005,0 -1.49556e-005,-6.58044e-005 5.98222e-005,-0.000200404 0.000113662,-0.00049802 0.000143573,-0.000764229 0,0 0,0 0,0 0.000249758,-0.00192628 7.62733e-005,-0.00485158 -0.00052494,-0.00874601 2.84156e-005,-0.00056532 5.68311e-005,-0.00112914 8.22555e-005,-0.00172737 0,0 8.97333e-006,-6.73e-005 1.79467e-005,-0.000100202 9.12289e-005,-0.000332013 0.000151051,-0.000731327 0.000200404,-0.00112914 4.038e-005,-0.000364916 7.17867e-005,-0.000664027 6.73e-005,-0.00099604 0,0 0,0 -2.99111e-006,-3.29022e-005 -5.98222e-006,-0.00119794 -0.000297616,-0.00233008 -0.000868918,-0.00349661 -0.0011426,8.97333e-005 -0.00229717,0.00014806 -0.00341734,0.000173484 -0.000133104,0 -0.000264713,-1.49556e-006 -0.000399313,-1.49556e-006 -4.78578e-005,-1.49556e-006 -9.57155e-005,-1.49556e-006 -0.0001346,-3.43978e-005 -1.19644e-005,0 -1.19644e-005,0 -1.19644e-005,0 -0.0007403,-7.32822e-005 -0.00147013,-0.000177971 -0.00216556,-0.00028266 -0.000583267,-7.02911e-005 -0.00120392,-0.00017498 -0.00187991,-0.000312571 -0.00456743,-0.000930235 -0.00697976,-0.00297616 -0.00721905,-0.00623647 -0.000348464,-0.00472446 0.00946986,-0.0081089 0.0295148,-0.0100546 0,0 0,0 0,0 0.00520005,-0.00065954 0.0104061,-0.00135198 0.0156226,-0.00207733 0.000122636,1.49556e-006 0.000246767,2.99111e-006 0.000369402,-6.43089e-005zm0.01681 0.0595231c0.000263218,2.99111e-006 0.000527931,2.99111e-006 0.000791149,4.48667e-006 5.83267e-005,1.49556e-006 0.000116653,1.49556e-006 0.000171989,1.49556e-006 5.83267e-005,3.43978e-005 0.000116653,3.43978e-005 0.000185449,3.43978e-005 0,0 0,0 1.04689e-005,0 0.00168848,0.000112167 0.00320348,0.000321544 0.00452406,0.000527931 0.00137591,0.00024228 0.00256637,0.000483064 0.00352652,0.000822555 0.00315861,0.00111568 0.00471848,0.00298513 0.00467062,0.00564273 -3.88844e-005,0.000299111 -7.77689e-005,0.000563824 -0.000106184,0.000830033 -1.19644e-005,6.58044e-005 -1.19644e-005,6.58044e-005 -1.19644e-005,6.58044e-005 -1.19644e-005,3.29022e-005 -2.39289e-005,6.58044e-005 -2.39289e-005,6.58044e-005 -0.000146564,0.000530922 -0.00025574,0.00092874 -0.000327527,0.00116055 0,0 0,0 0,0 -1.19644e-005,0 -1.19644e-005,0 -1.19644e-005,0 -9.57155e-005,0.000364916 -0.000204891,0.000696929 -0.000346969,0.00109325 -0.000297616,0.000828538 -0.000637107,0.00155687 -0.0010095,0.00225231 9.57155e-005,0.000299111 0.000203396,0.00063262 0.000311076,0.000966129 -0.000257236,0.000496524 -0.000499515,0.000958651 -0.000743291,0.00138937 -0.000116653,0.000231811 -0.000233307,0.000463622 -0.00034996,0.000695433 0.00018844,0.000266209 0.000387349,0.000566815 0.000584762,0.00083452 -0.000131609,0.000596727 -0.000264713,0.00119345 -0.000397818,0.00172288 -0.00092874,0.00388097 -0.00185,0.00776044 -0.00275033,0.0116429 -4.78578e-005,0.00514621 5.98222e-005,0.00893445 0.000324536,0.0114604 8.82378e-005,0.000797131 -0.00253796,0.00121439 -0.00147312,0.00122037 0.000445676,0.000136096 0.000898829,0.000270696 0.00135497,0.000373889 0,0 0,0 0,0 1.04689e-005,0 2.24333e-005,0 3.29022e-005,0 0,0 0,0 0,0 0,0 0,0 0,0 0.000151051,0.000100202 0.000355942,0.000233307 0.000604204,0.000400809 0.000258731,0.000167502 0.000441189,0.000302102 0.000568311,0.000436702 1.19644e-005,0 2.24333e-005,0 4.48667e-005,0 0.00142676,0.00113662 0.00212967,0.00247066 0.00210425,0.00399612 0,0 0,0 1.04689e-005,0 -3.58933e-005,0.00222688 -0.00147013,0.00374637 -0.00427131,0.00452705 0,0 0,0 0,0 -0.00152846,0.000456144 -0.00377329,0.000774698 -0.00668962,0.000924253 -6.43089e-005,3.29022e-005 -0.000118149,3.29022e-005 -0.000171989,3.14067e-005 -0.0045779,-2.39289e-005 -0.00975999,-0.00145069 -0.0156016,-0.0042414 -0.000372393,-0.000300607 -0.000734318,-0.000569807 -0.00109624,-0.000870413 -0.00177822,-0.00227025 -0.00398566,-0.00431019 -0.00659839,-0.00608691 -0.00270247,-0.00180962 -0.00586557,-0.00329022 -0.0094564,-0.0045091 -9.72111e-005,0 -0.000197413,-6.73e-005 -0.000287147,-0.000100202 -0.00152995,-0.000673 -0.00305093,-0.00138189 -0.0045749,-0.00205639 -8.97333e-006,3.43978e-005 -1.79467e-005,6.73e-005 -2.692e-005,0.000100202 -0.000185449,0.00139535 -0.000396322,0.0026905 -0.000629629,0.00398566 -0.000266209,0.00146116 -0.000568311,0.00282211 -0.000891351,0.00394976 -0.00193226,0.00710389 -0.00510583,0.0106095 -0.00947285,0.010584 -0.000171989,-1.49556e-006 -0.000332013,-1.49556e-006 -0.000493533,-1.49556e-006 -0.00283707,-1.79467e-005 -0.00517013,-0.00106184 -0.00702911,-0.00316759 -0.00165708,-0.00186944 -0.00277575,-0.00450461 -0.00336051,-0.00799973 -1.94422e-005,-0.000266209 -3.14067e-005,-0.00056532 -4.48667e-005,-0.000864431 0.000342482,-0.00435356 0.000690947,-0.00870862 0.00104689,-0.0132282 -4.48667e-006,-6.73e-005 -1.19644e-005,-0.000166007 -1.94422e-005,-0.000266209 -0.000245271,-0.00149855 -0.000495029,-0.00303 -0.000744787,-0.00459285 2.99111e-006,-0.000267704 5.98222e-006,-0.000532418 7.47778e-006,-0.000798627 -0.00203844,-0.00197413 -0.00408885,-0.00398266 -0.00614972,-0.00599119 -0.000644584,-0.000602709 -0.00127122,-0.00127272 -0.00190085,-0.00190833 0.000317058,-0.000795635 0.000647575,-0.00155837 0.000973607,-0.00238691 0.000900324,-0.00212219 0.0026576,-0.00367458 0.00528081,-0.00452256 0,0 1.19644e-005,0 2.24333e-005,1.49556e-006 0.00213715,-0.000750769 0.00496674,-0.00109923 0.00847232,-0.0010768 0,0 0,0 0,0 0.00354148,-1.04689e-005 0.00661933,0.000541391 0.00925749,0.00158978 0.00257684,0.00107979 0.00466763,0.0026232 0.00628881,0.00462725 0.00139087,0.000840502 0.00277276,0.00177971 0.00413372,0.00285053 0.00143872,0.00110671 0.00287745,0.00231213 0.00429224,0.00365065 0.00261573,0.00161071 0.0050819,0.00302252 0.00739103,0.00426532 0.00116205,0.000638602 0.0022867,0.0012099 0.0033665,0.0017498 0.00057878,-0.00368505 0.00117401,-0.0074374 0.00177373,-0.0113199 -0.000110671,-0.000499515 -0.000210873,-0.00103193 -0.000311076,-0.00156435 -0.000200404,-0.000964633 -0.000402304,-0.00196217 -0.000602709,-0.0029941 0.000527931,-0.000230316 0.00107979,-0.00045764 0.00162118,-0.000687955 4.18756e-005,-0.000198909 9.27244e-005,-0.000530922 0.000140582,-0.00099604 8.52467e-005,-0.000330518 0.000180962,-0.000629629 0.000278173,-0.000994544 0,0 0,0 1.04689e-005,-6.73e-005 0,0 0,0 0,0 0.000230316,-0.000529427 0.000448667,-0.00102595 0.000693938,-0.00145667 0,0 0,0 0,0 0.000254244,-0.000496524 0.000520453,-0.000894342 0.000789653,-0.00132357 0.00160024,-0.00238092 0.00352203,-0.00369851 0.00575938,-0.00378376 0.000481569,-0.000128618 0.00101997,-0.000258731 0.0016167,-0.000321544 0.00111419,-9.12289e-005 0.00270995,-0.000213864 0.0048127,-0.000299111 3.43978e-005,0 7.92644e-005,0 0.000127122,0zm-0.01043 0.0593721c0.00010768,1.49556e-006 0.000213864,1.49556e-006 0.000330518,2.99111e-006 0,0 0,0 0,0 0.00426084,-1.04689e-005 0.00785615,0.00017498 0.0107665,0.000590744 0.00308683,0.000415764 0.00548271,0.00106035 0.00715922,0.00193226 0.000535409,0.000303598 0.00107231,0.000571302 0.00161969,0.000839007 -7.47778e-006,0.000664027 -1.64511e-005,0.00129665 -2.54244e-005,0.00192777 -1.49556e-006,0.000198909 -4.48667e-006,0.000397818 -7.47778e-006,0.000596727 -7.47778e-006,0.000499515 -1.346e-005,0.00103044 -2.09378e-005,0.00149556 -0.000393331,0.000329022 -0.000774698,0.00065954 -0.00115606,0.000924253 -1.19644e-005,0 -1.19644e-005,0 -1.19644e-005,0 -2.09378e-005,3.29022e-005 -4.18756e-005,6.58044e-005 -5.23444e-005,6.58044e-005 -0.000412773,0.000329022 -0.00100501,0.000590744 -0.00174232,0.000819564 0,0 0,0 0,0 -0.00048456,0.000163016 -0.00114709,0.000360429 -0.00196516,0.000521949 -0.00337996,0.000744787 -0.00950276,0.00150902 -0.0183624,0.00225978 0.00366411,0.000450162 0.00589997,0.00129366 0.00669411,0.00259329 0.000496524,0.000800122 0.000993049,0.00160024 0.00148658,0.00236746 -0.000741795,0.000560833 -0.00148359,0.00108727 -0.00221342,0.0016167 -1.19644e-005,0 -2.09378e-005,0 -3.29022e-005,0 -8.97333e-006,3.29022e-005 -1.94422e-005,3.29022e-005 -2.99111e-005,3.29022e-005 -0.00039034,0.000263218 -0.000831529,0.000526435 -0.00129515,0.000756751 -0.000483064,0.000263218 -0.000966129,0.000460631 -0.00145966,0.000656549 -0.00248412,0.000984075 -0.00604803,0.00173036 -0.0106708,0.00233755 0,0 0,0 0,0 -0.00203695,0.000421747 -0.00432066,0.000776193 -0.00687058,0.00106334 -0.00204592,0.000254244 -0.00432066,0.000475587 -0.00679879,0.000662531 -0.000427729,0.00192628 -0.000853962,0.00381815 -0.00126823,0.00571153 0.000167502,6.73e-005 0.000333509,0.000167502 0.000508489,0.0002019 -0.000239289,0.000895838 -0.000478578,0.00175877 -0.000716371,0.00265611 -6.73e-005,0.000264713 -0.0001346,0.000530922 -0.000204891,0.000762733 8.97333e-006,0.000133104 1.49556e-005,0.000300607 2.39289e-005,0.000432216 -1.94422e-005,0.000233307 -2.84156e-005,0.000466613 -3.73889e-005,0.000631124 -0.000508489,0.00282361 -0.00150154,0.0049802 -0.0029627,0.00646828 -0.00159426,0.00168998 -0.00364467,0.00251104 -0.00616318,0.00249907 -0.000541391,-2.99111e-006 -0.00107979,-5.98222e-006 -0.00160922,-7.47778e-006 -9.12289e-005,-1.49556e-006 -0.000180962,-1.49556e-006 -0.000263218,-3.43978e-005 -4.038e-005,-1.49556e-006 -7.92644e-005,-1.49556e-006 -0.000110671,-1.49556e-006 -8.97333e-006,0 -1.94422e-005,0 -1.94422e-005,0 -0.000604204,-6.87955e-005 -0.00120542,-0.000204891 -0.00178121,-0.000439693 -0.00056532,-0.0002019 -0.00111718,-0.000505498 -0.00163464,-0.000873404 -0.00226278,-0.00154042 -0.00393331,-0.0044089 -0.00504451,-0.00857103 0,0 0,0 0,0 -0.000486056,-0.00176476 -0.000973607,-0.00353101 -0.00145368,-0.00526286 -4.48667e-005,-0.000198909 -8.076e-005,-0.000364916 -0.000116653,-0.00056532 -0.000118149,-0.00146265 -0.000240784,-0.0029283 -0.00036342,-0.00442385 1.04689e-005,-0.000167502 1.346e-005,-0.000333509 1.94422e-005,-0.000532418 0.000542887,-0.00581771 0.00116205,-0.0102057 0.00184851,-0.0131938 0.000886864,-0.00395126 0.00225679,-0.00610635 0.00412026,-0.0064952 0.00122636,-0.000459136 0.00245421,-0.000916775 0.00369103,-0.00144321 0.000240784,-3.14067e-005 0.000478578,-9.57155e-005 0.000729831,-0.000194422 0.00108577,-6.13178e-005 0.00218202,-0.000186944 0.00327826,-0.000314067 8.37511e-005,0 0.000168998,0 0.000263218,-3.29022e-005 0.000191431,1.49556e-006 0.000391836,2.99111e-006 0.000593735,4.48667e-006 0.00148658,7.47778e-006 0.00267854,0.000113662 0.0035654,0.000218351 0,0 0,0 0,0 0.000566815,0.000103193 0.00108278,0.000206387 0.00152547,0.000373889 0.000717867,-2.84156e-005 0.00189188,-0.000122636 0.00347717,-0.000212369 0.00300008,-0.00028266 0.00632919,-0.000563824 0.0100337,-0.0008749 3.14067e-005,0 6.43089e-005,0 9.422e-005,-3.29022e-005 0.00337098,-0.000182458 0.00629928,-0.000332013 0.00880433,-0.00041726 0.00260227,-8.52467e-005 0.00454499,-0.00010768 0.00583117,-0.000100202 0,0 0,0 0,0zm-0.00317357 0.0458373c0.00169446,7.47778e-006 0.00338743,1.64511e-005 0.00507292,2.39289e-005 8.97333e-006,0 1.79467e-005,0 3.88844e-005,0 0,3.43978e-005 0,3.43978e-005 0,3.43978e-005 0.00209228,8.97333e-006 0.0038376,0.000216856 0.005215,0.000655053 0,0 0,0 8.97333e-006,0 0.000200404,0.000100202 0.000439693,0.0002019 0.000717867,0.000302102 0,0 0,0 0,0 0.00138488,0.000604204 0.0023884,0.00147312 0.00304346,0.00257086 0.000118149,0.000466613 0.000236298,0.000931731 0.000354447,0.00133254 -2.99111e-006,0.00172587 -0.00127571,0.00301654 -0.0038032,0.0038361 -0.0014133,0.00045764 -0.00351456,0.000879387 -0.00629778,0.00133404 -3.88844e-005,3.29022e-005 -6.73e-005,3.14067e-005 -9.87067e-005,3.14067e-005 -0.00136096,0.00016152 -0.00272341,0.000352951 -0.00408287,0.000480073 0.0002019,0.000865927 0.000318553,0.00179616 0.0003365,0.0027937 1.04689e-005,0.00049802 1.94422e-005,0.000997535 2.84156e-005,0.00149556 -7.02911e-005,0.000364916 -0.000142078,0.000696929 -0.000212369,0.00102894 -0.000400809,0.00092874 -0.000789653,0.00189038 -0.001177,0.00278622 4.038e-005,0.000133104 8.37511e-005,0.000299111 0.000122636,0.000399313 1.64511e-005,0.000764229 -0.00032304,0.00202498 -0.00101698,0.00375085 -0.000465118,0.00116055 -0.00112017,0.00265461 -0.00196366,0.00447769 0.00154042,7.47778e-006 0.00308084,1.346e-005 0.00462874,-1.346e-005 0.00186645,-2.54244e-005 0.00374188,-5.23444e-005 0.00562628,-0.000109176 0.0022194,-5.83267e-005 0.0041726,4.93533e-005 0.00585809,0.000288642 0.0018171,0.000273687 0.00338295,0.000677487 0.00469904,0.00131459 0.000486056,0.000233307 0.000979589,0.000469604 0.00147462,0.000670009 -2.99111e-006,0.000499515 -7.47778e-006,0.00103044 -1.19644e-005,0.00156136 -1.49556e-006,0.000231811 -4.48667e-006,0.000465118 -5.98222e-006,0.000696929 -1.49556e-005,0.00186047 -0.00134899,0.00324984 -0.00399912,0.00416961 -0.00172737,0.00059224 -0.00423691,0.00107979 -0.00751367,0.00139984 -9.422e-005,3.29022e-005 -0.00018844,3.29022e-005 -0.000272191,3.29022e-005 -0.00044418,-2.99111e-006 -0.000877891,-4.48667e-006 -0.0013116,-5.98222e-006 -8.97333e-006,0 -1.79467e-005,0 -2.84156e-005,-3.29022e-005 -0.00229119,2.54244e-005 -0.00457042,-1.79467e-005 -0.0068631,-5.98222e-005 -0.00106484,2.99111e-005 -0.00212668,5.83267e-005 -0.00319152,5.384e-005 -4.93533e-005,0 -9.57155e-005,0 -0.000133104,0 -0.0025559,-7.62733e-005 -0.00510433,-0.000152547 -0.00765126,-0.00022882 -0.000384358,3.29022e-005 -0.000761238,6.43089e-005 -0.00113662,9.57155e-005 -4.63622e-005,0 -9.422e-005,-1.49556e-006 -0.000131609,-1.49556e-006 -0.000451658,3.14067e-005 -0.000894342,3.14067e-005 -0.00133703,2.99111e-005 -0.00115756,2.84156e-005 -0.00231662,5.68311e-005 -0.00348315,5.23444e-005 -0.00109325,2.99111e-005 -0.00217603,2.54244e-005 -0.0032319,2.09378e-005 -0.00517163,1.346e-005 -0.00941901,-7.02911e-005 -0.0127152,-0.000314067 -0.000189936,-3.43978e-005 -0.000372393,-6.87955e-005 -0.000553355,-0.000101698 -0.00140582,-0.000372393 -0.00254693,-0.0008749 -0.00337397,-0.00141031 -0.000889855,-0.000602709 -0.00150303,-0.00127122 -0.00183953,-0.00203695 -3.88844e-005,0 -6.87955e-005,-3.29022e-005 -0.000100202,-6.58044e-005 -0.00113214,-0.000970615 -0.00226128,-0.00193824 -0.00340388,-0.00297466 0.00138488,-0.000394827 0.00277276,-0.000788158 0.00416213,-0.00114859 3.73889e-005,0 7.47778e-005,1.49556e-006 0.000110671,-3.29022e-005 0.000634115,-0.000195918 0.00129814,-0.000360429 0.00199507,-0.000489047 0,0 0,0 0,0 0.000687955,-0.000131609 0.00136395,-0.000261722 0.00202648,-0.000357438 0.0029283,-0.000454649 0.00606448,-0.000575789 0.00935919,-0.000329022 0.000189936,-0.00049802 0.000402304,-0.000963138 0.000595231,-0.00142826 0,0 0,0 -1.49556e-006,-3.29022e-005 0.000433711,-0.00092874 0.000873404,-0.00179018 0.00130712,-0.00262021 1.04689e-005,0 1.79467e-005,-3.43978e-005 3.58933e-005,-6.73e-005 0,0 0,0 8.97333e-006,0 3.43978e-005,-6.58044e-005 6.87955e-005,-0.000164511 0.000101698,-0.000230316 -1.04689e-005,-1.49556e-006 -1.04689e-005,-1.49556e-006 -1.04689e-005,-1.49556e-006 4.78578e-005,-0.000166007 9.72111e-005,-0.000332013 0.000124131,-0.000530922 0,0 0,0 0,0 0.000218351,-0.00129665 0.000101698,-0.00319152 -0.000351456,-0.0057878 2.692e-005,-0.000364916 5.53355e-005,-0.000729831 8.076e-005,-0.00112914 0,0 7.47778e-006,-3.43978e-005 1.64511e-005,-6.73e-005 7.47778e-005,-0.000198909 0.000128618,-0.000465118 0.000171989,-0.000762733 3.58933e-005,-0.000233307 6.28133e-005,-0.000432216 6.13178e-005,-0.000631124 0,0 0,0 -1.49556e-006,-3.29022e-005 5.98222e-006,-0.000765724 -0.000221342,-0.00153145 -0.000674495,-0.00229717 -0.000925749,6.13178e-005 -0.00185299,8.97333e-005 -0.00277126,0.000119644 -0.000106184,0 -0.00021536,0 -0.00032304,-1.49556e-006 -3.73889e-005,0 -7.77689e-005,0 -0.000109176,-3.29022e-005 -1.04689e-005,0 -1.04689e-005,0 -1.04689e-005,0 -0.000598222,-3.58933e-005 -0.00118897,-0.000104689 -0.0017513,-0.00017498 -0.000472596,-3.43978e-005 -0.000976598,-0.000103193 -0.00152098,-0.000206387 -0.00369103,-0.000580275 -0.00562179,-0.00192029 -0.00577883,-0.00408287 -0.000230316,-0.00309281 0.00774249,-0.0052838 0.0239453,-0.00660587 0,0 0,0 0,0 0.00420102,-0.000445676 0.00840652,-0.000891351 0.012618,-0.00137142 0.000100202,1.49556e-006 0.000200404,1.49556e-006 0.000299111,-3.14067e-005zm0.0135632 0.0392628c0.00021536,1.49556e-006 0.000433711,1.49556e-006 0.000649071,2.99111e-006 4.63622e-005,0 9.422e-005,0 0.000140582,0 4.63622e-005,1.49556e-006 9.422e-005,1.49556e-006 0.000151051,1.49556e-006 0,0 0,0 8.97333e-006,0 0.00138937,7.02911e-005 0.00262021,0.00017498 0.0037,0.000345473 0.00112615,0.000136096 0.00209976,0.000340987 0.0028939,0.000542887 0.00257983,0.0007403 0.00386003,0.00200704 0.00382862,0.0037673 -3.14067e-005,0.000198909 -6.28133e-005,0.000397818 -8.52467e-005,0.000563824 -8.97333e-006,3.29022e-005 -8.97333e-006,3.29022e-005 -8.97333e-006,3.29022e-005 -1.04689e-005,3.29022e-005 -1.94422e-005,3.29022e-005 -1.94422e-005,3.29022e-005 -0.000118149,0.000366411 -0.000206387,0.000664027 -0.000266209,0.000797131 0,0 0,0 0,0 -8.97333e-006,0 -8.97333e-006,0 -8.97333e-006,0 -7.77689e-005,0.000231811 -0.000166007,0.000463622 -0.00028266,0.000762733 -0.00024228,0.000529427 -0.000518958,0.00102745 -0.000822555,0.00149107 8.076e-005,0.000231811 0.000168998,0.000432216 0.000258731,0.000665522 -0.000210873,0.000332013 -0.000408287,0.000628133 -0.000607195,0.000927244 -9.57155e-005,0.000166007 -0.000189936,0.000332013 -0.000285651,0.000463622 0.000154042,0.000200404 0.000318553,0.000366411 0.000483064,0.000533913 -0.000109176,0.000397818 -0.00021536,0.000795635 -0.00032304,0.00119345 -0.000756751,0.00262171 -0.00149705,0.00527632 -0.00223286,0.00789803 -2.99111e-005,0.00348614 6.58044e-005,0.00607794 0.000279669,0.0078053 7.47778e-005,0.000532418 -0.00209378,0.000824051 -0.00120542,0.000827042 0.000367907,0.000100202 0.000744787,0.000167502 0.00112017,0.0002692 0,0 0,0 0,0 8.97333e-006,0 1.79467e-005,0 2.692e-005,0 0,0 0,0 0,0 0,0 0,0 0,0 0.000116653,6.58044e-005 0.000285651,0.0001346 0.000490542,0.000267704 0.000213864,0.000100202 0.000364916,0.000200404 0.0004711,0.000266209 1.04689e-005,3.29022e-005 1.79467e-005,3.29022e-005 3.58933e-005,3.29022e-005 0.00118149,0.00076722 0.00176625,0.00170045 0.0017483,0.00272939 0,0 0,0 8.97333e-006,0 -2.54244e-005,0.00152846 -0.00120691,0.00255441 -0.00351605,0.00307785 0,0 0,0 0,0 -0.00127421,0.000329022 -0.00313169,0.000556347 -0.00554552,0.000649071 -5.384e-005,3.29022e-005 -9.87067e-005,3.29022e-005 -0.000143573,3.29022e-005 -0.00378974,-1.19644e-005 -0.00807899,-0.000987067 -0.0129066,-0.0028954 -0.000308084,-0.000167502 -0.0006057,-0.000367907 -0.000904811,-0.000566815 -0.00146265,-0.00156734 -0.00327826,-0.00293578 -0.00543933,-0.0041382 -0.00221492,-0.00123682 -0.00481868,-0.00224184 -0.0077739,-0.00308234 -8.22555e-005,0 -0.000164511,-3.29022e-005 -0.000237793,-6.73e-005 -0.00125627,-0.000469604 -0.00250655,-0.000937713 -0.00375983,-0.00140881 -7.47778e-006,3.43978e-005 -1.49556e-005,6.73e-005 -2.54244e-005,6.73e-005 -0.000160024,0.000963138 -0.000343978,0.00186197 -0.000544382,0.00272341 -0.00022882,0.000997535 -0.000490542,0.00189487 -0.000762733,0.0027249 -0.00165408,0.00481569 -0.0043072,0.0072355 -0.00792495,0.00722503 -0.000140582,0 -0.000275182,0 -0.000408287,0 -0.00234952,-7.47778e-006 -0.00427131,-0.000744787 -0.00577883,-0.00214612 -0.00135946,-0.00126823 -0.00225679,-0.00310029 -0.00270097,-0.00546177 -1.346e-005,-0.0002019 -2.09378e-005,-0.000400809 -2.692e-005,-0.000599718 0.000330518,-0.0029597 0.000662531,-0.00595231 0.00101548,-0.00901072 -1.49556e-006,-3.29022e-005 -7.47778e-006,-0.000100202 -1.19644e-005,-0.000133104 -0.000185449,-0.00103044 -0.000373889,-0.00209677 -0.000562329,-0.0031287 5.98222e-006,-0.000198909 8.97333e-006,-0.000366411 1.49556e-005,-0.000530922 -0.00166455,-0.00136993 -0.00332462,-0.00270546 -0.00499216,-0.00407539 -0.000512975,-0.000402304 -0.00102146,-0.00083452 -0.00152846,-0.00126973 0.0002692,-0.000530922 0.000550364,-0.00106184 0.000827042,-0.00159426 0.000755255,-0.00142826 0.00221342,-0.00245271 0.00438198,-0.00307636 0,0 8.97333e-006,0 1.94422e-005,0 0.0017513,-0.000492038 0.00407539,-0.000716371 0.00694685,-0.000705902 0,0 0,0 0,0 0.00289988,8.97333e-006 0.00542737,0.000351456 0.007572,0.00105736 0.00210275,0.000705902 0.00380619,0.00174232 0.00512228,0.00307785 0.00113662,0.000568311 0.00226427,0.00117102 0.00337547,0.00190683 0.00117252,0.000734318 0.00234802,0.00157033 0.00349511,0.00247215 0.00215061,0.00106932 0.0041711,0.00204143 0.00606597,0.00287894 0.000952669,0.000400809 0.00187692,0.000803113 0.00276229,0.00117102 0.000489047,-0.002523 0.000990058,-0.0050475 0.00149256,-0.0076707 -8.82378e-005,-0.000332013 -0.000170493,-0.000698424 -0.000251253,-0.00106484 -0.00016152,-0.000664027 -0.00032304,-0.00129665 -0.000486056,-0.00199358 0.000435207,-0.000131609 0.000877891,-0.000297616 0.00132207,-0.000427729 3.43978e-005,-0.000166007 7.77689e-005,-0.000399313 0.000118149,-0.000696929 7.02911e-005,-0.000200404 0.000151051,-0.000465118 0.000230316,-0.000698424 0,0 0,0 8.97333e-006,0 0,0 0,0 0,0 0.000189936,-0.00036342 0.000379871,-0.000695433 0.000580275,-0.000994544 0,0 0,0 0,0 0.000209378,-0.000330518 0.000429224,-0.000596727 0.000650567,-0.000894342 0.00131609,-0.00162417 0.00289091,-0.00248113 0.00472147,-0.00254095 0.000393331,-0.000131609 0.00083452,-0.000195918 0.00133104,-0.000227324 0.000912289,-6.28133e-005 0.00221791,-0.000124131 0.00392733,-0.000183953 2.84156e-005,0 6.58044e-005,0 0.000103193,0zm-0.0120407 0.0392329c0.00150004,2.99111e-006 0.00300158,7.47778e-006 0.00450312,1.19644e-005 7.47778e-006,0 1.64511e-005,0 3.43978e-005,0 0,3.29022e-005 0,3.29022e-005 0,3.29022e-005 0.00185449,5.98222e-006 0.00339192,0.000176476 0.0046108,0.000544382 0,0 0,0 8.97333e-006,0 0.000176476,3.43978e-005 0.000388844,0.0001346 0.000635611,0.000200404 0,0 0,0 0,0 0.00122636,0.000469604 0.00211621,0.00116952 0.00269649,0.00203545 0.000104689,0.000364916 0.000209378,0.000698424 0.000314067,0.00103044 -1.49556e-006,0.00136096 -0.00113064,0.0023884 -0.00337397,0.00304794 -0.00125328,0.000327527 -0.00310926,0.000687955 -0.00557992,0.00104689 -3.58933e-005,3.43978e-005 -6.13178e-005,3.43978e-005 -8.82378e-005,3.43978e-005 -0.00121738,0.000128618 -0.0024243,0.000258731 -0.0036342,0.000355942 0.000179467,0.000698424 0.000281164,0.00142826 0.000294624,0.00219398 8.97333e-006,0.000397818 1.64511e-005,0.000797131 2.39289e-005,0.00122935 -6.28133e-005,0.000264713 -0.000128618,0.000530922 -0.000192927,0.000797131 -0.000355942,0.000729831 -0.000702911,0.00149256 -0.00104988,0.00218949 3.58933e-005,0.0001346 7.32822e-005,0.000233307 0.000109176,0.000300607 1.346e-005,0.000631124 -0.000291633,0.00159426 -0.000913784,0.00298812 -0.000414269,0.000895838 -0.00100202,0.00205788 -0.00175728,0.00355194 0.00136993,2.99111e-006 0.00274135,7.47778e-006 0.00412026,-2.24333e-005 0.00166904,-3.14067e-005 0.00332911,-5.98222e-005 0.00501609,-0.000122636 0.00196666,-2.99111e-005 0.00370449,7.32822e-005 0.00520453,0.00024228 0.0016167,0.000204891 0.00301205,0.000539895 0.00419055,0.00104091 0.000433711,0.000198909 0.000873404,0.000366411 0.0013131,0.000533913 -1.49556e-006,0.000397818 -5.98222e-006,0.000830033 -8.97333e-006,0.00122935 -1.49556e-006,0.000198909 -2.99111e-006,0.000364916 -4.48667e-006,0.000563824 -1.19644e-005,0.00146265 -0.00120093,0.00258881 -0.00356989,0.00331415 -0.00153893,0.000495029 -0.00377478,0.000855458 -0.0066971,0.00111568 -8.37511e-005,3.29022e-005 -0.000168998,3.29022e-005 -0.000243776,3.29022e-005 -0.000394827,0 -0.000782175,-1.49556e-006 -0.00116803,-1.49556e-006 -8.97333e-006,0 -1.64511e-005,-1.49556e-006 -2.54244e-005,-3.43978e-005 -0.00203396,-2.99111e-006 -0.00407539,-7.47778e-006 -0.00611682,-4.48667e-005 -0.000949678,3.14067e-005 -0.00189936,6.28133e-005 -0.00284754,6.13178e-005 -4.18756e-005,0 -8.37511e-005,0 -0.000116653,0 -0.00227923,-7.02911e-005 -0.00455098,-0.00010768 -0.00682123,-0.000179467 -0.000342482,3.29022e-005 -0.000678982,6.43089e-005 -0.00101399,6.43089e-005 -4.18756e-005,0 -8.37511e-005,0 -0.000116653,0 -0.000402304,3.14067e-005 -0.000798627,3.14067e-005 -0.00119345,2.99111e-005 -0.00102296,3.29022e-005 -0.00205489,6.43089e-005 -0.00310477,6.13178e-005 -0.000973607,3.14067e-005 -0.00193974,2.84156e-005 -0.00287296,2.692e-005 -0.00461828,-8.97333e-006 -0.00839455,-8.22555e-005 -0.0113408,-0.000254244 -0.000170493,-3.43978e-005 -0.000332013,-6.73e-005 -0.000493533,-6.73e-005 -0.00125028,-0.000302102 -0.0022553,-0.000704407 -0.00298812,-0.00113812 -0.000788158,-0.000466613 -0.00132805,-0.00100053 -0.00163165,-0.00159875 -3.58933e-005,-3.43978e-005 -6.28133e-005,-6.73e-005 -9.12289e-005,-6.73e-005 -0.000999031,-0.00076722 -0.00199507,-0.00153444 -0.00299709,-0.00233456 0.00122935,-0.000330518 0.00246767,-0.000626638 0.00371646,-0.000924253 3.29022e-005,0 6.73e-005,0 0.000100202,-3.29022e-005 0.00056532,-0.000164511 0.00115756,-0.000297616 0.00176924,-0.000394827 0,0 0,0 0,0 0.000611682,-0.000131609 0.00121738,-0.000197413 0.00180813,-0.00029612 0.00261872,-0.000360429 0.00540195,-0.000453153 0.00833174,-0.000246767 0.000173484,-0.000399313 0.000364916,-0.000765724 0.000539895,-0.00112914 0,0 0,0 -1.49556e-006,-3.43978e-005 0.00039034,-0.000731327 0.000785167,-0.00146116 0.001177,-0.00205938 8.97333e-006,0 1.64511e-005,-3.29022e-005 3.14067e-005,-6.58044e-005 0,0 0,0 8.97333e-006,0 3.14067e-005,-3.29022e-005 6.13178e-005,-0.000133104 8.97333e-005,-0.000200404 -7.47778e-006,0 -7.47778e-006,0 -7.47778e-006,0 4.33711e-005,-0.000131609 8.82378e-005,-0.000264713 0.000113662,-0.00043072 0,0 0,0 0,0 0.0002019,-0.000997535 0.00010768,-0.00252749 -0.000281164,-0.00455696 2.692e-005,-0.000266209 5.384e-005,-0.00056532 7.77689e-005,-0.000897333 0,0 8.97333e-006,-3.29022e-005 1.49556e-005,-3.29022e-005 6.73e-005,-0.000200404 0.000116653,-0.000399313 0.000157033,-0.000598222 4.18756e-005,-0.000200404 6.58044e-005,-0.000366411 6.58044e-005,-0.000530922 0,0 0,0 0,0 1.04689e-005,-0.00063262 -0.000189936,-0.00123084 -0.000595231,-0.00183056 -0.000824051,3.14067e-005 -0.0016481,6.13178e-005 -0.00246168,9.27244e-005 -9.72111e-005,0 -0.000191431,0 -0.000287147,-1.49556e-006 -3.43978e-005,0 -6.87955e-005,0 -9.57155e-005,0 -7.47778e-006,0 -7.47778e-006,0 -7.47778e-006,0 -0.000532418,-3.43978e-005 -0.00105736,-0.000101698 -0.00155538,-0.000136096 -0.000418756,-3.43978e-005 -0.000864431,-0.000103193 -0.00134899,-0.000170493 -0.0032633,-0.000472596 -0.00497571,-0.00150902 -0.00509237,-0.00320647 -0.000179467,-0.00242729 0.00689451,-0.0041711 0.0212608,-0.00522697 0,0 0,0 0,0 0.00373291,-0.000357438 0.00745235,-0.000711884 0.0111853,-0.00110073 8.82378e-005,1.49556e-006 0.000176476,1.49556e-006 0.000264713,-3.14067e-005zm-0.00159127 0.0320318c0.00119794,6.87955e-005 0.00239438,0.000137591 0.00359083,0.000206387 0.00190683,2.99111e-006 0.00382264,5.98222e-006 0.00574592,8.97333e-006 0.00204742,4.48667e-006 0.00424738,4.18756e-005 0.00659689,7.92644e-005 0.00218052,7.02911e-005 0.00425336,0.000140582 0.00624095,0.000243776 0.00108727,-2.99111e-005 0.00216706,-2.84156e-005 0.00325283,-9.27244e-005 2.692e-005,0 5.08489e-005,1.49556e-006 7.62733e-005,1.49556e-006 0.00108577,1.49556e-006 0.00218202,2.99111e-006 0.00326779,4.48667e-006 1.64511e-005,0 3.29022e-005,0 5.08489e-005,0 0,0 0,0 0,0 0.00157931,2.99111e-006 0.00289689,0.000104689 0.00395126,0.000306589 0.000273687,6.73e-005 0.000547373,0.000101698 0.000813582,0.0002019 0,0 0,0 0,0 0.00166904,0.000433711 0.00274883,0.00119944 0.00321395,0.00226278 4.038e-005,0.000231811 8.22555e-005,0.000463622 0.000139087,0.000664027 -2.99111e-006,6.58044e-005 -4.48667e-006,0.000166007 -8.97333e-006,0.000231811 -6.73e-005,0.00162567 -0.00198012,0.00271892 -0.00570853,0.00327676 -0.00261274,0.000394827 -0.00644734,0.00068646 -0.0115128,0.000844989 -4.18756e-005,0 -8.22555e-005,0 -0.000115158,0 -0.00192179,-3.58933e-005 -0.00385106,-7.32822e-005 -0.00578182,-0.000143573 0.00032304,0.000400809 0.000544382,0.000798627 0.000641593,0.00123084 5.83267e-005,0.000266209 0.000113662,0.000530922 0.000179467,0.000764229 -4.038e-005,6.73e-005 -8.22555e-005,0.000100202 -0.000115158,0.000166007 6.58044e-005,0.000100202 0.000131609,0.000231811 0.000204891,0.000332013 -0.000140582,0.000266209 -0.000279669,0.000530922 -0.000411278,0.000797131 -7.47778e-006,0 -1.64511e-005,0 -2.39289e-005,0 6.43089e-005,0.000166007 0.000130113,0.000333509 0.000203396,0.00049802 -0.000263218,0.000100202 -0.00052494,0.000166007 -0.000779184,0.000231811 -7.47778e-006,3.29022e-005 -1.64511e-005,6.58044e-005 -1.64511e-005,0.000100202 0.000263218,0 0.00052494,0 0.000786662,0 -1.49556e-006,0.000332013 -1.49556e-006,0.000665522 -2.99111e-006,0.000963138 -2.39289e-005,0.000133104 -4.038e-005,0.000233307 -5.68311e-005,0.000333509 0.000130113,9.87067e-005 0.0002692,0.000231811 0.000408287,0.000332013 -0.000164511,0.000364916 -0.000320049,0.000731327 -0.000475587,0.00109475 -8.97333e-006,3.43978e-005 -8.97333e-006,3.43978e-005 -8.97333e-006,3.43978e-005 0,0 0,0 0,0 -0.000481569,0.00109624 -0.000976598,0.00212369 -0.00149556,0.00305392 -0.000499515,0.000930235 -0.00103941,0.00182607 -0.00160174,0.00265461 -0.00302252,0.00448368 -0.00660288,0.00667167 -0.0107545,0.00666719 -0.000885369,3.29022e-005 -0.00176924,3.14067e-005 -0.00263666,2.99111e-005 -0.0030614,-2.99111e-006 -0.00554552,-0.000602709 -0.00744787,-0.00166904 -0.00197862,-0.00116504 -0.00325134,-0.00282959 -0.00382414,-0.00502507 -0.000140582,-0.000399313 -0.00028266,-0.000830033 -0.000415764,-0.00126374 -5.98222e-006,-0.000266209 -1.19644e-005,-0.00056532 -1.94422e-005,-0.000864431 0.000293129,-0.000997535 0.000586258,-0.00199358 0.000886864,-0.00299111 -1.346e-005,-0.000333509 -2.84156e-005,-0.000631124 -4.33711e-005,-0.000931731 -2.99111e-006,-9.87067e-005 -5.98222e-006,-0.000166007 -8.97333e-006,-0.000231811 7.62733e-005,-0.000266209 0.000160024,-0.00056532 0.000243776,-0.000864431 0.000115158,-0.000198909 0.000231811,-0.000862935 0.00034996,-0.00199358 0,0 0,0 0,0 9.422e-005,-0.000997535 0.000163016,-0.00219398 0.000204891,-0.00362373 -0.00500712,-7.47778e-006 -0.00940555,-6.73e-005 -0.0131878,-0.000122636 -0.00378974,-5.53355e-005 -0.00697826,-0.000176476 -0.00956408,-0.000281164 -0.00381217,-0.000171989 -0.00653408,-0.000577284 -0.00816125,-0.0012114 -1.04689e-005,3.43978e-005 -2.39289e-005,6.73e-005 -3.14067e-005,0.000100202 -0.000125627,-3.29022e-005 -0.000252749,-6.73e-005 -0.000379871,-0.000100202 -0.000559338,-0.000136096 -0.0011097,-0.0002692 -0.00166306,-0.0004038 -4.78578e-005,-0.000465118 -9.57155e-005,-0.000931731 -0.000143573,-0.00139685 -2.39289e-005,-0.000233307 -4.48667e-005,-0.000466613 -7.02911e-005,-0.00069992 -0.00016152,-0.00156286 0.00222688,-0.0025245 0.00715324,-0.00288044 0.00354596,-0.000227324 0.00896286,-0.000382862 0.0162447,-0.000436702 1.04689e-005,0 1.79467e-005,0 2.54244e-005,-3.29022e-005 0.000216856,0 0.000433711,1.49556e-006 0.00065954,1.49556e-006 0.000692442,-3.14067e-005 0.00139087,-6.28133e-005 0.00209079,-0.000128618 0.000278173,6.73e-005 0.000556347,6.73e-005 0.000840502,0.000101698 8.97333e-006,0 1.64511e-005,0 3.43978e-005,0 0.000291633,0 0.000590744,-3.29022e-005 0.000891351,-3.29022e-005 4.18756e-005,0 8.37511e-005,0 0.000133104,0 0.000711884,1.49556e-006 0.00142078,2.99111e-006 0.00213266,4.48667e-006 0.0027249,5.98222e-006 0.00524641,-5.68311e-005 0.00756901,-8.52467e-005 0.00240485,-9.422e-005 0.00485308,-0.000191431 0.00734019,-0.000318553 0.000100202,0 0.0002019,0 0.000302102,1.49556e-006zm0.0268796 0.0287401c7.47778e-006,0 1.49556e-005,0 2.24333e-005,0 0,0 0,0 0,0 0.00226577,2.99111e-006 0.00403052,0.0002692 0.00527632,0.000768715 0,0 0,0 8.97333e-006,0 0.00171839,0.000698424 0.0025574,0.00176176 0.00250805,0.00322292 0,0 0,0 8.97333e-006,0 0,0 0,0 0,0 -9.27244e-005,0.0023555 -0.0025918,0.00511031 -0.00745235,0.00812685 -1.64511e-005,0 -3.14067e-005,-3.29022e-005 -4.63622e-005,-6.58044e-005 -0.00052494,0.000465118 -0.00127421,0.00099604 -0.00226427,0.00159277 -0.00164661,0.00099604 -0.00391836,0.002357 -0.00681076,0.00398266 0,0 0,0 0,0 -4.63622e-005,3.29022e-005 -8.52467e-005,6.58044e-005 -0.000124131,9.87067e-005 -5.98222e-006,0 -5.98222e-006,0 -5.98222e-006,0 -0.00142975,0.000831529 -0.00262919,0.00152846 -0.00364168,0.00212518 -0.00115756,0.000696929 -0.00223436,0.00129366 -0.00323339,0.00185898 -0.00515817,0.00289091 -0.00869217,0.00448517 -0.010608,0.00481718 -0.000599718,0.000166007 -0.00118448,0.000332013 -0.00175728,0.000465118 -0.000637107,0.000166007 -0.0012443,0.000266209 -0.00182308,0.000399313 -0.00311674,0.000631124 -0.00604653,0.000931731 -0.00875947,0.000931731 -0.00178719,0 -0.00320647,-0.000167502 -0.00425635,-0.000566815 -0.00152696,-0.000598222 -0.0023226,-0.00146265 -0.00239588,-0.0026935 -1.94422e-005,-0.000300607 -3.73889e-005,-0.000598222 -5.68311e-005,-0.000898829 0.000348464,-0.000166007 0.000698424,-0.000299111 0.00105287,-0.000465118 0,0 8.97333e-006,0 1.49556e-005,0 8.97333e-006,0 1.49556e-005,0 2.24333e-005,-3.43978e-005 0.000421747,-0.000164511 0.000853962,-0.00036342 0.00126823,-0.000563824 0,0 0,0 0,0 0.000504002,-0.000233307 0.000985571,-0.000499515 0.00142377,-0.000731327 0.00187094,-0.000997535 0.00402304,-0.00235999 0.00647127,-0.00408735 -0.000332013,-3.29022e-005 -0.000656549,-0.000100202 -0.000972111,-0.0001346 -0.00270247,-0.000399313 -0.005888,-0.000999031 -0.00957604,-0.00173185 -4.78578e-005,0 -8.52467e-005,0 -0.000125627,-3.29022e-005 -0.00104091,-0.000234802 -0.0020848,-0.000533913 -0.00311375,-0.000800122 -3.88844e-005,0 -7.77689e-005,0 -0.000110671,0 -0.00493982,-0.00153294 -0.00908849,-0.00306589 -0.0124266,-0.00459734 -0.00347118,-0.00160024 -0.00611383,-0.00326629 -0.007907,-0.00499815 -0.000183953,-0.000332013 -0.000360429,-0.000665522 -0.000535409,-0.000997535 -1.04689e-005,-0.000101698 -1.94422e-005,-0.0002019 -3.14067e-005,-0.000300607 4.63622e-005,-0.000233307 0.000100202,-0.000499515 0.000152547,-0.000765724 0,0 0,0 5.98222e-006,0 5.98222e-006,0 1.19644e-005,-3.29022e-005 2.54244e-005,-6.58044e-005 0.000183953,-0.000267704 0.000414269,-0.00056532 0.000698424,-0.000798627 0.000278173,-0.000233307 0.000596727,-0.000432216 0.000951173,-0.000598222 0,0 0,0 0,0 0.00145817,-0.000731327 0.00380021,-0.00106184 0.00701266,-0.00109176 0.000213864,0 0.000436702,0 0.000658044,0 0.00225231,2.99111e-006 0.0046781,0.000337996 0.00723849,0.00100501 0.0024572,0.000634115 0.00505348,0.00153594 0.00779483,0.00280118 0.00585211,0.00233307 0.0105078,0.00403052 0.013958,0.00509685 0.00266059,0.000865927 0.00461977,0.00136544 0.00588501,0.00153294 4.63622e-005,-3.29022e-005 9.87067e-005,-6.58044e-005 0.000152547,-9.87067e-005 0.0003365,-0.000267704 0.000637107,-0.000499515 0.000880882,-0.000665522 0,0 0,0 0,0 0.00157632,-0.00112914 0.00333958,-0.00225829 0.00527632,-0.00335304 0,0 0,0 0,0 0.00365813,-0.0024557 0.00688853,-0.00431318 0.00967923,-0.00553954 0.00307337,-0.00135796 0.00568909,-0.0020878 0.00785765,-0.0020848 0.000526435,0 0.00106035,-3.14067e-005 0.00159277,-6.43089e-005 4.038e-005,0 8.67422e-005,0 0.000136096,0zm0.0185449 -0.512235c-0.00208181,0 -0.00105586,-0.00030958 -0.00391237,-0.00126823l0.00573097 -0.00418456c0.0134421,0 0.0181979,-0.000614673 0.0290287,-0.00277874 0.00354746,-0.000708893 0.0227713,-0.0106199 0.0227713,-0.00449265l0 0.0027264c0,0.00687955 -0.0427774,0.00999779 -0.0536187,0.00999779zm-0.0209019 -0.0181755l-0.0155568 -0.00143424 0.0119181 0.00418756 -0.0228252 -0.00288642 -0.00263966 0.00211771 -0.00917374 -0.000945191 -0.00261722 -0.00194871c-0.00203844,0.000475587 -0.00209079,0.000909298 -0.0045435,0.000909298 -0.000809095,0 -0.0018186,-0.001011 -0.0018186,-0.0018186 0,-0.00390938 0.00726989,-0.00608691 0.00726989,-0.00999629l0 -0.00545279c0.00284305,-0.000236298 0.0032289,-0.000907802 0.00636209,-0.000907802l0.0045435 0c0.00346371,0 0.0046422,0.00856505 0.00644584,0.0113288l0.0135482 0.00230166 0.0118134 0 0 0.0018186 -0.0027264 0 0 0.0027264zm-0.0228641 -0.0300008l-0.00530773 -0.00180813c0,-0.00453153 -0.000130113,-0.0245361 0.0036357,-0.0245361 9.57155e-005,0 0.0179467,0.00908699 0.0236268,0.00908699l0.0181755 0c0.00893594,0 0.0144216,-0.0036357 0.0227205,-0.0036357 0.00443582,0 0.00314515,0.0266897 0.00448218,0.030961 0.00141629,0.00452555 0.017329,0.0130801 0.017329,0.0190235 0,0.00148808 -0.000545878,0.0027249 -0.0018186,0.0027249 -0.00245421,0 -0.00250506,-0.000432216 -0.00414718,-0.000771707l-0.00220146 0.00721306 -0.020006 0.00264713 -0.000909298 0c-0.00320498,0 -0.00516116,-0.00568012 -0.00593436,-0.00745534l0.0108742 -0.00641294 -0.000167502 -0.00138937 -0.00473942 -0.00110821 -0.000940704 -0.00453602 0.0027264 0c0.0025589,0 0.0016825,-0.000393331 0.00295671,-0.00233755l-0.00659241 -0.00311524 1.19644e-005 -0.0254529 -0.00182906 -0.00362822 -0.0173081 0.000369402 -0.0333509 -0.00398865 -0.00128618 0.0181501zm0.00832426 -0.0536082c0.00168848,-0.00632769 0.0131684,-0.0127227 0.0218112,-0.0127227l0.0054513 0c0.00464669,0 0.0106902,0.00305841 0.0118149,0.00727139 -0.0138758,0.00773352 -0.0238885,0.00731327 -0.0390774,0.0054513zm0.0434264 -0.020187l0.000118149 0.00290287 0.0054857 -0.0011097 -0.00082106 0.00568012 0.00359083 -8.97333e-006c-0.000939209,0.00351904 -0.00260526,0.008076 -0.00727139,0.00817919l-0.00382862 -0.0129171 0.0027264 -0.0027264zm-0.016164 0.00201152l0.00349511 -0.0035684 -0.0020848 -0.00441787 0.00404249 -0.000192927c0.00273088,0 0.00586407,0.00197413 0.00908849,0.0027264 -0.000936218,0.00401557 -0.00329022,0.00726989 -0.00817919,0.00726989 -0.00233157,0 -0.00478428,-0.00106035 -0.00636209,-0.0018171zm-0.022719 -0.00726989c0.00214911,-0.00805207 0.0227803,-0.0199926 0.0327168,-0.0199926l0.0099948 0 0.00816424 0.00101548c-0.00105586,0.00448816 -0.00441787,0.00988861 -0.00998134,0.00988861l-0.0027264 0 -0.0041711 0.00578929 -0.00764229 -0.0003365c-0.00579528,0.00387947 -0.00884471,0.0163584 -0.0199941,0.0163584l-0.000909298 0c-0.00203695,0 -0.00199358,-0.000719362 -0.0036327,-0.0018171l-0.00140582 -0.00648323c0.0037688,-0.00209079 0.0108951,-0.0034308 0.0114006,-0.00805805l-0.0118134 0.0036357zm-0.0399867 0.0963302l0.00636209 -0.0018171c-0.000182458,0.00812834 -0.00727139,0.00342781 -0.00727139,0.0109056 0,0.00879087 0.0183819,0.00537503 0.0261722,0.0110866 0.00331565,0.00243177 0.0277844,0.00436254 0.0338085,0.00436254l0 0.0036357c0,0.00424588 -0.0078412,0.0018171 -0.0136335,0.0018171l-0.031806 0 0 -0.0027264 0.00908849 0c-0.00291185,-0.00253198 -0.0327168,-0.00239289 -0.0327168,-0.013632 0,-0.00894342 0.00505498,-0.0103238 0.00999629,-0.013632zm0.0463473 0.0527094c0.0167697,0 0.0323279,-0.00120691 0.0468692,-0.00402304 0.0197907,-0.00383161 0.0215061,-0.00698574 0.0349227,-0.015971 0.00790999,0.00418756 0.0093532,0.00548121 0.0134809,0.013783 0.00164511,0.00330817 0.00741945,0.0169611 0.00741945,0.0207508 0,0.013463 -0.0428536,0.0133643 -0.0523325,0.00689601 -0.00263068,-0.00179616 -0.00628881,-0.00463024 -0.00951173,-0.00502806 -0.00681375,-0.000846484 -0.00836763,-0.00249309 -0.0120048,-0.00290287l0.00205639 -0.00441638 -0.00636209 0c-0.00251403,0 -0.00218501,0.000701415 -0.0027264,0.0027264l-0.00545279 -0.000260227 -0.00999629 0.000260227 -0.00727139 0c-0.00452854,0 -0.00273986,-0.00545279 -0.0072684,-0.00545279 -0.00352652,0 -0.000166007,0.00167951 -0.00636209,0.0018171l0 -0.0045435c0,-0.00203695 0.000719362,-0.00199507 0.0018171,-0.0036357l0.0127227 0zm0.119051 0.0127242l0.00545279 0c0.00268751,0 0.00817919,0.00619459 0.00817919,0.00908699 0,0.0042055 -0.00782774,0.00794439 -0.00999629,0.0109041 -0.00502058,0.00134151 -0.0131056,0.00783821 -0.0208854,0.0100142 -0.00788307,0.00220445 -0.0157437,0.00486953 -0.0241622,0.00673748 -0.00970615,0.0021521 -0.0163509,0.00308683 -0.0276902,0.00320647 -0.0391566,0.00041726 -0.0786812,0.00789205 -0.115693,-0.0105556 -0.0100397,-0.00500712 -0.00740749,-0.00424439 -0.0124101,-0.0121275l0.00398416 0.025393 -0.005215 -0.00213416c-0.00766472,-0.000539895 -0.0037688,-0.00284156 -0.00739851,-0.0100845 -0.0106095,-0.0211651 -0.020691,-0.0474465 -0.0458403,-0.0479759 -0.00402604,0.000267704 -0.00335752,-0.0015494 -0.00732822,-0.0015494 -0.00069992,0 -0.00969419,0.00838109 -0.0181755,0.00908699l0 -0.0036357c0,-0.00945789 0.0154506,-0.0404548 0.0206656,-0.0465836 0.00560684,-0.00658643 0.0102535,-0.0112316 0.0163539,-0.0172707 0.00620955,-0.00614673 0.0137666,-0.00946836 0.0193256,-0.014299l-0.0045435 0c-0.0155971,0.00748226 -0.0311928,0.021708 -0.041065,0.0352727 -0.00665821,0.00914682 -0.0189143,0.042233 -0.0189143,0.0574218l0 0.0018171c0,0.00854112 0.0047798,0.0282316 0.00674944,0.0368729 0.00209079,0.00917673 0.00719063,0.0277141 0.00779035,0.0349212 -0.00208929,0.00311973 -0.0136544,0.010249 -0.018352,0.0161819 -0.00361476,0.00456593 -0.00891052,0.0173036 -0.00891052,0.0247141l0 0.0036357c0,0.0126359 0.00376282,0.0348614 0.00712782,0.0437629 0.00621104,0.0164347 0.00621104,0.0218246 0.00960147,0.0412893 0.00366411,0.021029 0.00946088,0.0703479 0.0305273,0.0703479l0.0118134 0c-0.00130562,0.00488748 -0.0063606,0.0112226 -0.0063606,0.0190848l0 0.0209019c0,0.0160279 0.00673449,0.0209782 0.0116952,0.0310178 0.00338743,0.00685413 0.00375384,0.0280058 0.00375384,0.0380499 0.00109774,0.00164062 0.0018171,0.00159725 0.0018171,0.0036357l0 0.0063606 -0.00210425 0.0154057 0.000287147 0.00186047c0,0.0110462 0.00465566,0.0270097 0.00908699,0.0336261 0,0.00981533 0.00440441,0.0151859 0.00674495,0.0232439 0.00268303,0.00923057 0.00340837,0.0149182 0.00416213,0.0258282 0.00135348,0.01952 0.00402304,0.0334092 0.0132446,0.0458253 0.0134002,0.0180394 0.050635,0.0359666 0.0821763,0.0359666l0.0181755 0c0.0238003,0 0.044077,-0.00579528 0.0590789,-0.0145323 0.00811638,-0.00472745 0.0149092,-0.00826145 0.0219877,-0.0143618 0.00412175,-0.00355344 0.0125881,-0.0192972 0.0152636,-0.0210888l0.000907802 -0.00999629 0.000909298 -0.00545279c-0.00737159,0.00266957 -0.00845737,0.0154267 -0.0163584,0.0172677l0 -0.00999779 -0.00300607 -0.000219847 0.00570704 -0.00726541 -0.000960147 -0.000880882 -0.00537503 0.00200554c0.00137142,-0.00513424 0.0148419,-0.0126883 0.0154506,-0.0199926l-0.00297616 -2.692e-005 0.00065954 -0.0112152 -0.00677187 -0.00511629 5.08489e-005 -0.018174c0.00241233,-0.0788711 0.00554402,-0.175318 0.010101,-0.247188 -0.000122636,-0.0188829 0.0162028,-0.016475 0.0162028,-1.49556e-006 0,0.00315562 0.0018171,0.00138638 0.0018171,0.004542l0.000177971 0.00273238 0.00213266 0.104393 0.00250356 0c0.00104689,-0.049449 0.00274734,-0.108275 0.0047768,-0.110885 0.00668065,-0.00859795 0.0145682,-0.0160787 0.0210574,-0.0246602 0.00751068,-0.00992899 0.0402349,-0.048444 0.0402349,-0.0606403l0 -0.0018171 -0.00106035 -0.0199836c-0.00610336,-0.0093532 -0.00785615,-0.0162866 -0.0164122,-0.0252495 -0.0041726,-0.00437151 -0.0174292,-0.0174726 -0.0243297,-0.0174726l-0.0036357 0c-0.00522846,0 -0.00749871,0.0027264 -0.00999629,0.0027264 -0.00132207,0 -0.00999629,-0.0233067 -0.00999629,-0.027264l-0.0018186 0c-0.00110671,0.0133015 -0.0219383,0.0204966 -0.0330787,0.0250835 -0.00679281,0.00279818 -0.0148299,0.0046452 -0.0220505,0.00702911 -0.00573396,0.00189188 -0.0197039,0.00155538 -0.0239334,0.0042384l-0.00999779 0c0.00104539,-0.00142526 0.022716,-0.00528529 0.0262395,-0.00647725 0.00698574,-0.00236298 0.0175474,-0.00469156 0.0243955,-0.00741197 0.0068317,-0.00271144 0.037516,-0.0219921 0.037516,-0.0260959l0 -0.0027264c-0.0024901,0.000900324 -0.00675991,0.00530623 -0.012437,0.00755555 -0.00545728,0.00216257 -0.00803711,0.0038346 -0.0137412,0.00534063 -0.00891201,0.002354 -0.0203396,0.00671953 -0.0311046,0.0070665 -0.00668962,0.000213864 -0.0110507,0.00281613 -0.0172228,0.00276977 -0.00606448,-4.63622e-005 -0.0111808,0.0011441 -0.0168953,0.002188 -0.0293458,0.00536755 -0.0732897,0.00305243 -0.102194,-0.00490243 -0.00558889,-0.00153743 -0.0123264,-0.00507442 -0.0172393,-0.00638752l0 -0.00545279 0.0108323 0.00216706c0.0382563,0.00780979 0.0755076,0.00926497 0.115521,0.00877442 0.00576836,-7.17867e-005 0.0149331,-0.00278622 0.0209647,-0.00357288 0.00715773,-0.000933227 0.0155448,-0.00373291 0.0208047,-0.00373291 0.00344875,-0.00230914 0.0138713,-0.00517911 0.0190728,-0.00819116 0.00532268,-0.00307935 0.0103836,-0.00749273 0.0154611,-0.0108936l0.00545279 -0.000909298c-0.00138788,-0.00596128 -0.00154341,-0.0122426 -0.00308234,-0.0187273 -0.000723849,-0.00305692 -0.0069663,-0.0132745 -0.00873255,-0.0139879 0,-0.0101384 -0.0082435,-0.0193136 -0.00990656,-0.0300786 -0.00172288,-0.0111539 -0.00530473,-0.0234443 -0.00638453,-0.0336021 -0.00132207,-0.012437 -0.00432365,-0.0238765 -0.00546326,-0.0345234 -0.00357886,-0.0334705 -0.0354536,-0.0744652 -0.0682153,-0.0744652l-0.004542 0c-0.0146953,0 -0.0232993,0.00485607 -0.0318299,0.0108847 -0.00450312,0.00318553 -0.00704855,0.00592838 -0.0106573,0.0102446 -0.00414568,0.00495926 -0.00227324,0.0113946 -0.00472147,0.0170882 -0.00214014,0.00497721 -0.00511031,0.00702014 -0.00715623,0.0137471 -0.00193824,0.00637705 -0.00186944,0.0116489 -0.00305692,0.0187528 -0.00240784,0.0143992 -0.00346819,0.0205549 -0.00349362,0.0392957l-0.00360878 -0.00186645c-0.0156196,-0.0104614 -0.0327033,-0.00502207 -0.0472566,-0.0127227 -0.00450162,0.00149107 0.0018171,0.00162716 0.0018171,0.004542 0,0.00304944 -0.00582519,0.014643 -0.00743141,0.0171062 -0.00362523,0.00555898 -0.0122994,0.00973307 -0.0125612,0.0128842l0.0018171 0c-0.000177971,0.00801618 -0.0153025,0.0170359 -0.0159725,0.0229912l-0.00647426 0.0053152 0.000635611 0.000774698c0.026917,0 0.0411786,0.0135931 0.0418053,0.0418053 0.00163913,-0.00109923 0.00159725,-0.0018186 0.0036357,-0.0018186l0.000907802 0c0.00330219,0 0.00239438,0.00309131 0.00758097,0.00423242 0.00351605,0.000773202 0.0065939,0.000891351 0.0101967,0.0016167 0.0281673,0.00845587 0.130837,0.030282 0.175792,-0.0203889zm-0.0272625 0.0736097c-0.00118897,-0.00239438 -0.000909298,0.000749273 -0.000909298,-0.0027249l0 -0.0036357 0.0036357 0c0.00185598,0 0.0221761,-0.00866525 0.0237838,-0.00983926 0.00169746,-0.00123832 0.0195708,-0.0128094 0.0198356,-0.0128797l0 0.0027264c0,0.00438198 0.00545429,0.00984823 0.00545429,0.0154491l0 0.00817919c0,0.00245421 -0.000435207,0.00250506 -0.000909298,0.0045435 -0.00223286,-0.00149556 -0.00454499,-0.00551262 -0.00454499,-0.00908699l0 -0.013632 -0.0127212 0.0118134c-0.0102879,0.00274734 -0.0204143,0.00908699 -0.0336246,0.00908699zm-0.209206 0.221727l0.00200255 0.00274434 -0.000130113 0.00556047 0.00194871 0.00261722c-0.000474091,0.00203844 -0.000909298,0.00208929 -0.000909298,0.00454499 0,0.00342183 0.000598222,0.00171839 0.000909298,0.00545279l-0.0018186 0c-0.00159277,-0.00684067 -0.00817919,-0.018346 -0.00817919,-0.0254469l0 -0.0018171c0,-0.00676888 0.00242878,-0.0113827 0.00803562,-0.0127361l-0.00185898 0.0190803zm0.0126838 -0.0236746l-0.000684964 -0.00448068 0.0010783 0.000275182 0.00642042 0.0172467 0.0115861 0.165144 -0.00179018 -2.99111e-006 -0.0166096 -0.178182zm-0.066117 -0.118986c-0.00214313,-0.00919916 -0.00699621,-0.0349332 -0.00377329,-0.0455785 0.00587454,-0.0194078 0.0205893,-0.025571 0.0219488,-0.028942l0.00454499 0c0.00332163,0 0.00372543,0.00378376 0.00545279,0.00636209 0.000173484,0.0219174 -0.00217902,0.0290915 -0.0227399,0.0335408l-0.00209228 0.0182278 -0.00165408 0.00264713 0.000131609 0.00647127c0.00428028,-0.00286548 0.00830482,-0.00947733 0.0145398,-0.00999629l0 0.0018186c-0.00824649,0.000684964 -0.00841848,0.00948631 -0.0145398,0.0099948l0 0.00545429 -0.0018186 0zm0.0418053 -0.0999659c0,-0.0116623 0.000987067,-0.0107635 0.0081777,-0.0118149l0.0036357 0c0.00377628,0 0.0109056,0.00960147 0.0109056,0.0109056 0,0.00385554 -0.0201033,0.00869965 -0.022719,0.0045435l0 -0.0036342z"/>
  </g>
 </g>
</svg>
