<?xml version="1.0" encoding="UTF-8"?>
<!DOCTYPE svg PUBLIC "-//W3C//DTD SVG 1.1//EN" "http://www.w3.org/Graphics/SVG/1.1/DTD/svg11.dtd">
<!-- Creator: CorelDRAW -->
<svg xmlns="http://www.w3.org/2000/svg" xml:space="preserve" width="25in" height="39in" style="shape-rendering:geometricPrecision; text-rendering:geometricPrecision; image-rendering:optimizeQuality; fill-rule:evenodd; clip-rule:evenodd"
viewBox="0 0 0.866543 0.475506"
 xmlns:xlink="http://www.w3.org/1999/xlink">
 <defs>
  <style type="text/css">
   <![CDATA[
    .fil0 {fill:#141516}
   ]]>
  </style>
 </defs>
 <g id="Layer_x0020_1">
  <metadata id="CorelCorpID_0Corel-Layer"/>
  <path class="fil0" d="M0.631831 0.399717c0.00737657,0.00355379 0.0120196,0.011096 0.0120196,0.0202495 0,0.00930983 -0.00480067,0.0169514 -0.0123972,0.020427l0 0.0112007c0,0.00590709 -0.0017504,0.0115651 -0.0056434,0.0160888 -0.0044164,0.00513326 -0.0107051,0.00770121 -0.0174271,0.00770121 -0.00660142,0 -0.0127881,-0.00250038 -0.0172204,-0.00746668 -0.00405334,-0.00454228 -0.00590444,-0.0102983 -0.00590444,-0.0163233l0 -0.0112007c-0.00759653,-0.00347562 -0.0123972,-0.0111172 -0.0123972,-0.020427 0,-0.00583156 0.00188423,-0.0110085 0.00515976,-0.0149188 -0.00880896,-9.8054e-005 -0.0191218,-0.000886461 -0.0264441,-0.00380953 -0.00344514,-0.00137408 -0.00653781,-0.0032159 -0.0092396,-0.00550692l-0.033174 -0.00572821c-0.0011369,0.000801657 -0.00232812,0.00153839 -0.00356174,0.00221019l0.00665044 0.0102665c0.00025441,-0.000161657 0.000512796,-0.000320663 0.000772506,-0.000477019 0.00592829,-0.00355644 0.0125787,-0.00521674 0.0194756,-0.00521674 0.00692075,0 0.013599,0.00165234 0.0195419,0.00523926 0.00585276,0.00353127 0.0104215,0.00852274 0.0135513,0.0145994 0.00312183,0.00605947 0.00447868,0.012702 0.00447868,0.0194915 0,0.00678825 -0.00135685,0.0134307 -0.00447868,0.0194902 -0.00311918,0.00605682 -0.00766543,0.0110403 -0.0134798,0.0145862 -0.00595877,0.00363595 -0.0126609,0.00531346 -0.0196134,0.00531346 -0.00693003,0 -0.0136056,-0.00168679 -0.0195459,-0.00528961 -0.00586469,-0.00355644 -0.0104414,-0.0085731 -0.0135659,-0.0146776 -0.00309532,-0.00604489 -0.0044588,-0.0126569 -0.0044588,-0.0194226 0,-0.00592431 0.00103354,-0.0117373 0.00336961,-0.0171475l-0.00957219 -0.007521c0.00142443,0.00343056 0.00200348,0.00717516 0.00174112,0.0109966 -0.000348489,0.00511338 -0.00220886,0.00980275 -0.00511073,0.0138892 0.00382808,0.00400564 0.00606477,0.00956954 0.00606477,0.0159311 0,0.0128928 -0.00918792,0.02251 -0.0221854,0.02251l-0.0217508 0c-0.00694858,0 -0.0134095,-0.00275214 -0.0178471,-0.0081557 -0.00393408,-0.00479272 -0.005654,-0.0107806 -0.00517036,-0.0169382 0.000406791,-0.00521674 0.00239305,-0.0100293 0.00546585,-0.0142562 -0.00352729,-0.00395793 -0.00557317,-0.00931248 -0.00557317,-0.0153971 0,-0.0128928 0.0091866,-0.02251 0.022184,-0.02251l0.0197618 0 -0.00338021 -0.00677897 -0.00958146 -0.00359089 0.00249243 -0.00831471 -0.0173264 0.0163432 0.00939595 -0.0417776 -0.0142735 0.00341864 0.0200348 -0.0345799c0.000556522,-0.000959339 0.00113822,-0.00187495 0.00174775,-0.00274551 -0.01686,-0.0138495 -0.0279149,-0.0365052 -0.0353511,-0.0562565 -0.000103354,-0.000275611 -0.000206708,-0.000549897 -0.000308737,-0.000824183 -0.000100704,0.000274286 -0.000204058,0.000548572 -0.000307412,0.000824183 -0.0074362,0.0197499 -0.0184911,0.0424057 -0.0353524,0.0562565 0.000609525,0.000869235 0.00119122,0.00178352 0.00174775,0.00274154l0.020052 0.0345879 -0.0142894 -0.00342261 0.00939463 0.0417683 -0.0173118 -0.0163273 0.00249905 0.00830013 -0.00960664 0.0036015 -0.00351669 0.00704663c0.00210418,-0.000585674 0.00430907,-0.000879835 0.00656299,-0.000879835 0.00661599,0 0.0128172,0.00253748 0.017223,0.0075634 0.00397119,0.00454361 0.00573616,0.0102612 0.00573616,0.0162266l0 0.0182208c0,0.00965036 -0.00242485,0.0191179 -0.00917202,0.0263156 -0.00680812,0.00727189 -0.0160795,0.0102718 -0.0258531,0.0102718 -0.00973517,0 -0.0189628,-0.00297077 -0.0258213,-0.0101194 -0.00690353,-0.00719371 -0.0094251,-0.0167195 -0.0094251,-0.0264679l0 -0.0182208c0,-0.00518228 0.00135023,-0.0101671 0.0043051,-0.0143477l1.06004e-005 -0.000634701 -0.0125549 0.00470659c0.00119255,0.00290584 0.00176762,0.00604887 0.00168017,0.00925152 -0.000141781,0.00520746 -0.00201541,0.0100982 -0.00533334,0.0141065l-0.00131578 0.00162187 0.00246725 0.00330468c0.00316158,0.00422692 0.00496365,0.0092025 0.00496365,0.0145014 0,0.00576001 -0.00208828,0.0111941 -0.00605284,0.0153865 -0.00429582,0.00453433 -0.0101499,0.00678957 -0.0163538,0.00678957 -0.00429847,0 -0.00846974,-0.00104017 -0.0121282,-0.00325831 -0.00360945,0.00217176 -0.00779794,0.00325831 -0.0121693,0.00325831 -0.00660407,0 -0.0127934,-0.00250038 -0.017223,-0.00746933 -0.00405334,-0.00454228 -0.00590179,-0.0102957 -0.00590179,-0.0163207l0 -0.0308963c0,-0.00573483 0.00165234,-0.0112272 0.00530419,-0.0156555 -0.00215321,3.04762e-005 -0.00422427,1.98758e-005 -0.0061456,-1.32505e-005l-0.0116353 -0.000197433c0.00378435,0.00449458 0.00548175,0.010089 0.00548175,0.0159271l0 0.0307744c0,0.00592696 -0.00173449,0.0116075 -0.0056434,0.0161498 -0.0044164,0.00513326 -0.0107051,0.00770121 -0.0174271,0.00770121 -0.00660407,0 -0.0127934,-0.00250038 -0.017223,-0.00746933 -0.00406924,-0.00455951 -0.00590179,-0.0103367 -0.00590179,-0.0163816l0 -0.0307744c0,-0.0050352 0.00127205,-0.00988357 0.00404539,-0.0139965l4.37268e-005 -0.0025547 -0.00583951 -9.9379e-005 0.00591106 -0.00401624 0.000266336 -0.0156277c-0.000121905,1.32505e-006 -0.000245135,2.65011e-006 -0.000368365,2.65011e-006 -0.00296149,0 -0.00584084,-0.00049557 -0.00852009,-0.00149069 -0.00270973,0.00100042 -0.00561823,0.00149069 -0.00860357,0.00149069 -0.00310858,0 -0.00613367,-0.000532671 -0.00893749,-0.00161657 -0.00280514,0.00108389 -0.00583024,0.00161657 -0.00893881,0.00161657 -0.0030887,0 -0.0060979,-0.000526046 -0.00888846,-0.00159801 -0.00271901,0.00103752 -0.00574146,0.00159801 -0.00898784,0.00159801 -0.00295487,0 -0.00583421,-0.000479669 -0.00851877,-0.00145888 -0.0025971,0.000948738 -0.0054685,0.00145888 -0.00854659,0.00145888 -0.00223537,0 -0.00439123,-0.000278261 -0.00642651,-0.000812258 -0.00234269,0.000625425 -0.00476887,0.000927537 -0.00722684,0.000927537 -0.00213069,0 -0.00422957,-0.000189483 -0.00626353,-0.000580373 -0.000882486,0.00101897 -0.00184845,0.00199023 -0.00290187,0.00290717 -0.00671935,0.00584614 -0.0152288,0.0080868 -0.0239835,0.0080868 -0.00275876,0 -0.00551885,-0.000159006 -0.00824581,-0.000541947 -0.00241557,-0.000336564 -0.00482584,-0.000810933 -0.00715794,-0.00153044 -0.00480597,-0.00144563 -0.00900374,-0.00426402 -0.0119109,-0.00842071 -2.25259e-005,-3.18013e-005 -4.37268e-005,-6.49276e-005 -6.62527e-005,-9.67289e-005 -0.00386783,-0.00025441 -0.00759388,-0.00132108 -0.0109171,-0.00341731 -0.000222609,-0.000140456 -0.000442568,-0.000284886 -0.000659877,-0.000430642 -0.00387711,0.00263686 -0.00848167,0.00390891 -0.0132823,0.00390891 -0.00623835,0 -0.0121454,-0.00214924 -0.0165552,-0.00664779 -0.00432497,-0.00441375 -0.00637616,-0.0102228 -0.00637616,-0.0163432l0 -0.0299661c0,-0.00601442 0.00191603,-0.0117439 0.00604489,-0.0161961 0.00430642,-0.00464961 0.0102175,-0.00708374 0.0165406,-0.00708374 0.00460589,0 0.00906734,0.00117665 0.0129113,0.00376713 5.56522e-005,3.84265e-005 0.00011263,7.68531e-005 0.000168282,0.00011528 0.00374063,-0.00253218 0.00815703,-0.0037976 0.0127709,-0.00387843 -0.00216514,-0.00116075 -0.0042362,-0.0024858 -0.00618137,-0.00399901 -0.000890436,-0.000691678 -0.0017398,-0.00141118 -0.00255338,-0.00215851l-0.000968614 -0.000102029c-0.0229711,-0.00244207 -0.0290915,-0.0395303 -0.0322757,-0.0576292 -0.00117135,-0.00666369 -0.00224994,-0.0135646 -0.00314568,-0.0204973 -0.00683728,-0.00773964 -0.0105739,-0.0221098 -0.0104123,-0.0316264 5.30021e-005,-0.0030834 0.000320663,-0.00612307 0.000759256,-0.00914154l-0.00932043 -0.00277996 0.00278924 -0.0113862c-0.0018299,-0.00546585 -0.0024752,-0.0111954 -0.0018352,-0.0170985 0.00131578,-0.0121216 0.00750908,-0.0218395 0.0138256,-0.0318569l4.10767e-005 -0.000165632 2.91512e-005 5.43272e-005c4.37268e-005,-6.89028e-005 8.61285e-005,-0.000137806 0.000129855,-0.000206708 0.00237052,-0.0037605 0.00509086,-0.008002 0.00664912,-0.0121746 0.0106879,-0.0286251 0.0229221,-0.0469586 0.0566288,-0.0475416 0.0227856,-0.000396191 0.0254264,-0.00430642 0.0416266,-0.0185613 0.00764953,-0.00673127 0.0159298,-0.0151931 0.0252847,-0.019363 0.0119507,-0.00532671 0.0278248,-0.00430775 0.0406765,-0.00408646l0.0280805 0.000482319c0.00566063,9.67289e-005 0.0137209,-0.00337756 0.0188264,-0.0056487 0.0120408,-0.00535454 0.0257365,-0.0129789 0.0391871,-0.012747l0.00075528 1.32505e-005c0.0148154,0.00025441 0.0280209,0.01355 0.0391341,0.0221734 0.00347164,0.00269383 0.0119295,0.00905807 0.0165062,0.00913624l0.00151454 2.65011e-005c0.000938138,1.59006e-005 0.00188025,-6.36026e-005 0.00280779,-0.000190808 0.000779131,-0.000106004 0.00155429,-0.00024911 0.00232282,-0.000413417 0.0122302,-0.00260638 0.0214248,-0.00804705 0.0348065,-0.00570568 0.0117055,0.00204721 0.0200547,0.00964241 0.0257789,0.0197221 0.0032106,0.00565135 0.00567918,0.0151202 0.00748788,0.0256451 0.00805897,0.0042362 0.0133115,0.0125642 0.0167023,0.0223444 0.00339081,-0.00978022 0.00864332,-0.0181082 0.0167036,-0.0223444 0.0018087,-0.0105249 0.00427727,-0.0199937 0.00748655,-0.0256451 0.00572556,-0.0100797 0.0140747,-0.0176762 0.0257816,-0.0197234 0.0133817,-0.00233872 0.0225749,0.00310195 0.0348052,0.00570833 0.00166162,0.000355114 0.00342394,0.000633376 0.00512663,0.000604224l0.00152116 -2.65011e-005c0.00457408,-7.81782e-005 0.0130306,-0.00644373 0.0165022,-0.00913757 0.0111132,-0.00862345 0.0243187,-0.021919 0.0391315,-0.0221734l0.000760581 -1.32505e-005c0.0134493,-0.000231884 0.027145,0.00739247 0.0391871,0.0127483 0.00510411,0.00227114 0.0131644,0.00574543 0.0188237,0.0056487l0.0280805 -0.000483644c0.0128517,-0.000221284 0.0287258,-0.00124025 0.0406765,0.00408646 0.00935488,0.00416862 0.0176365,0.0126317 0.025286,0.0193617 0.0162001,0.0142549 0.0188396,0.0181665 0.0416239,0.0185627 0.033708,0.000583024 0.0459423,0.0189165 0.0566301,0.0475416 0.00155826,0.00417259 0.0042786,0.00841409 0.00665044,0.0121772 6.36026e-005,0.000102029 0.00012853,0.000204058 0.000192133,0.000304762l1.32505e-005 -2.3851e-005 1.85507e-005 7.4203e-005c0.00997898,0.0158622 0.0182274,0.0311255 0.0119864,0.0490045l0.00276539 0.011304 -0.00931645 0.00277599c0.000437268,0.00301847 0.000703603,0.00605682 0.000756605,0.00913889 0.000164307,0.00951653 -0.00357102,0.0238841 -0.0104096,0.0316237 -0.000895736,0.00693533 -0.00197433,0.0138362 -0.003147,0.0205012 -0.0031841,0.0180989 -0.00930453,0.0551858 -0.0322757,0.0576279l-0.000968614 0.000102029c-0.000813583,0.00074733 -0.00166294,0.00146683 -0.00255338,0.00215851 -0.00352464,0.00274021 -0.0074574,0.00486427 -0.0116194,0.00651396l0.000141781 0.00861152 -0.0143159 0.00157681c-0.00208298,0.00074733 -0.00423885,0.00110112 -0.00657094,0.0011422 -0.0129153,0.000221284 -0.0318609,-0.000141781 -0.0438222,-0.00811065l-0.00622378 0.00847769c0.00129458,-0.000215984 0.00261566,-0.000321988 0.00395263,-0.000321988 0.00282501,0 0.0055798,0.000516771 0.0081398,0.00153574 0.00252158,-0.00102029 0.00524059,-0.00153574 0.00802452,-0.00153574 0.00283561,0 0.00559968,0.000531346 0.00815305,0.00158211 0.00254278,-0.00103487 0.00526311,-0.00158211 0.0080603,-0.00158211 0.00301052,0 0.00594021,0.000573748 0.00862875,0.00171859 0.00332323,-0.00122302 0.00684655,-0.00182857 0.0104573,-0.00182857 0.00449856,0 0.00886991,0.000928862 0.0128702,0.00286742 0.00376448,-0.0019094 0.00791322,-0.00286742 0.0122037,-0.00286742 0.00218766,0 0.00434353,0.000266336 0.00643313,0.000793707 0.00180472,-0.000449193 0.00371015,-0.000683728 0.00568978,-0.000683728 0.0024805,0 0.00489872,0.00037499 0.00717384,0.00111569 0.00159934,-0.00036704 0.00328613,-0.000560498 0.00504713,-0.000560498l0.0133883 0c0.00285814,0 0.00564605,0.000522071 0.00822991,0.00156489 0.00362137,-0.00149201 0.00750113,-0.00223006 0.0114882,-0.00223006 0.00562353,0 0.0110483,0.00145093 0.015796,0.00451048 0.00463504,0.00299065 0.00818353,0.00719239 0.0105103,0.0121905 0.00217309,0.00466949 0.00311123,0.00972457 0.00311123,0.0148565 0,0.00227247 -0.00036174,0.00443628 -0.00103487,0.00643843 7.4203e-005,0.000679752 0.00011793,0.00136613 0.00013118,0.00205383 6.89028e-005,0.00371412 -0.000800332,0.00740042 -0.00253218,0.0106932 -0.00219694,0.00417127 -0.00570833,0.00740175 -0.0100081,0.00932043 -0.00447073,0.00201806 -0.0092767,0.00294162 -0.0141714,0.00294162 -0.00421499,0 -0.00835711,-0.000658552 -0.012262,-0.00211611 -0.00240895,0.000939463 -0.00508025,0.00145093 -0.0079437,0.00145093l-0.0118354 0c-0.000564473,0.000675777 -0.00116472,0.00133168 -0.00180605,0.00196638 -0.00614825,0.00608597 -0.0142496,0.00867512 -0.0227763,0.00867512 -0.00255338,0 -0.00511073,-0.000172257 -0.00763363,-0.000572423 -0.00517433,-0.000822858 -0.00252423,-0.000140456 -0.00677897,-0.00165897 -0.004268,-0.00147213 -0.00795032,-0.00411164 -0.0105501,-0.00775686 -0.000312713,7.95032e-006 -0.000625425,1.19255e-005 -0.000939463,1.19255e-005 -0.0055745,0 -0.0110244,-0.00115412 -0.0159629,-0.0037817 -0.000162982,-8.61285e-005 -0.000325963,-0.000174907 -0.000486295,-0.000265011 -0.0036174,0.00251098 -0.00797947,0.00393541 -0.0128119,0.00393541 -0.00288464,0 -0.00560233,-0.000504845 -0.0080921,-0.00144431 -0.0024646,0.000938138 -0.00515711,0.00144431 -0.0080232,0.00144431 -0.0044111,0 -0.00843662,-0.00118592 -0.0118619,-0.00330468 -0.00396986,0.00226319 -0.00842734,0.00341599 -0.0130664,0.00341599 -0.00216116,0 -0.0042892,-0.000262361 -0.00634833,-0.000781782 -0.00178617,0.000439918 -0.0036704,0.000670477 -0.00562883,0.000670477 -0.00267793,0 -0.00518096,-0.000410767 -0.00746933,-0.00117267 -0.00230559,0.000777806 -0.00476224,0.00117267 -0.00728249,0.00117267 -0.00525119,0 -0.0102215,-0.00171462 -0.0141436,-0.00503388 -0.00379893,0.00321458 -0.00858105,0.0049239 -0.0136481,0.00502858l0.00025441 0.0148141zm-0.125377 0.00733815l-0.00357367 -0.00133963 9.01036e-005 0.00526576c0.00106667,-0.00139396 0.00222874,-0.00270576 0.00348357,-0.00392613zm-0.183193 0.00160066l0.0106508 -0.0164413c-0.00123495,-0.000673127 -0.00242617,-0.00140986 -0.00356307,-0.00221151l-0.033174 0.00572821c-0.00181135,0.00153574 -0.0037976,0.00287007 -0.00594949,0.00399769 0.000206708,0.00011263 0.000413417,0.000230559 0.00061615,0.000349814 0.00357764,-0.00207901 0.00760448,-0.0031099 0.0117373,-0.0031099 0.0067326,0 0.0130253,0.00265541 0.0172681,0.00796622 0.000934163,0.0011687 0.0017398,0.00241425 0.00241425,0.00372075zm0.360567 -0.0961326l6.75777e-005 -0.00104547c-0.000679752,6.22775e-005 -0.0013489,0.000147081 -0.00200613,0.00025176 0.000659877,0.000233209 0.0013065,0.00049822 0.00193855,0.000793707zm-0.0608279 -0.000556522c-0.00405334,-0.00277069 -0.00754088,-0.00605682 -0.00990477,-0.00961061l-0.00316025 -7.5528e-005c-0.0019465,0.0018299 -0.00405201,0.00325566 -0.00627545,0.00436738l0.00299462 0.00214924c0.00328348,0.00235594 0.00623438,0.00508555 0.00885533,0.0081027 0.00216249,-0.00220356 0.00470924,-0.00385193 0.00749053,-0.00493317zm-0.437621 0.00830013c-0.0110827,-0.000968614 -0.0188926,-0.00779529 -0.029762,-0.00878908l0.000585674 0.00900771c0.00178352,0.000109979 0.00350609,0.000400166 0.00514651,0.000858635 0.0024911,-0.000689028 0.00507628,-0.00102294 0.00769989,-0.00102294 0.00297474,0 0.00589516,0.000461119 0.00867247,0.00139263 0.00246062,-0.000797682 0.00501798,-0.00125218 0.00762701,-0.00136481 9.27537e-006,-2.78261e-005 1.98758e-005,-5.43272e-005 3.04762e-005,-8.21533e-005zm0.0410157 -0.00594551c0.00198891,-0.00200878 0.00414477,-0.00385988 0.00646494,-0.00552547l0.00307015 -0.00220224c-0.00238775,-0.00112762 -0.00458468,-0.0025441 -0.00650866,-0.0043104l-0.0030039 7.28779e-005c-0.00158874,0.0023904 -0.00368762,0.00465889 -0.0061244,0.00672995 0.0011687,0.000678427 0.00228704,0.00146948 0.00334311,0.00237847 0.00102029,0.000881161 0.0019412,0.00183652 0.00275876,0.00285682zm-0.0875105 0.00615222l-0.00477947 -0.00650601c-0.00679222,0.00452638 -0.0158397,0.00660009 -0.0247573,0.0075051 0.000405466,0.000121905 0.000808283,0.000255735 0.00120447,0.000398841 0.00266733,-0.000961989 0.00552415,-0.00143503 0.00845517,-0.00143503 0.0032159,0 0.00634303,0.000569773 0.00922767,0.00173052 0.00288464,-0.00116075 0.00601177,-0.00173052 0.00922767,-0.00173052 0.000475694,0 0.000950063,1.19255e-005 0.00142178,3.71015e-005zm0.469168 0.0622126l-0.000496895 7.95032e-006c-0.000430642,7.95032e-006 -0.00086261,1.45756e-005 -0.00129325,2.25259e-005l0.00323976 0.00220091 -0.00144961 -0.00223139zm-0.374799 3.04762e-005c-0.000431967,-7.95032e-006 -0.000863935,-1.45756e-005 -0.0012959,-2.25259e-005l-0.000494245 -7.95032e-006 -0.00145093 0.00223271 0.00324108 -0.00220224zm-0.0996255 0.0571721c-0.00137938,-0.00345706 -0.00211744,-0.00731694 -0.00211744,-0.0115121 0,-0.00613765 0.00163114,-0.0120302 0.00504978,-0.0171462 0.00325698,-0.00487355 0.00775951,-0.00858635 0.0130743,-0.0110549 0.00510543,-0.00236655 0.0106296,-0.00338949 0.0162372,-0.00338949 0.0030304,0 0.00605284,0.000352464 0.00902361,0.000968614 0.00338684,0.000703603 0.00667959,0.00182062 0.00971927,0.00348092 0.00417657,0.00225127 0.00748523,0.00570568 0.00951388,0.00999488 0.00170932,0.00360812 0.00246725,0.00759521 0.00218766,0.0115677 -0.000160331,0.00233209 -0.000659877,0.00460456 -0.00148671,0.0067591 0.00230559,0.00413417 0.00357632,0.00898519 0.00357632,0.0144192 0,0.00606212 -0.00160199,0.0118831 -0.0049239,0.0169686 -0.00324903,0.00496895 -0.00778469,0.0087533 -0.013175,0.0112285 -0.00510013,0.00234269 -0.0106163,0.00333251 -0.0162067,0.00333251 -0.00229632,0 -0.00459529,-0.000182857 -0.00687438,-0.00050352 -0.00220886,-0.000311388 -0.00440315,-0.000746005 -0.00656034,-0.00131578 -0.005014,-0.00132638 -0.00191603,-0.000270311 -0.00624233,-0.00211479l-0.000141781 -6.09525e-005 -0.000140456 -6.22775e-005c-0.00478742,-0.00214394 -0.0086526,-0.00576001 -0.0109304,-0.0104918 -0.00185242,-0.00384398 -0.00258783,-0.00806162 -0.00217309,-0.0122978 0.000298137,-0.0030781 0.0011687,-0.00604489 0.00259048,-0.00877053zm0.575129 -0.0103566c0.000519421,0.00197698 0.000792382,0.00408116 0.000792382,0.00627943 0,0.00235462 -0.000314038,0.00460191 -0.000906337,0.00669947 0.00140853,0.00300125 0.00217971,0.00642783 0.00217971,0.0101181 0,0.0126119 -0.00900109,0.0221456 -0.0217415,0.0221456l-0.0182645 0c-0.00659744,0 -0.0127907,-0.00243545 -0.0172588,-0.00735405 -0.00416464,-0.00458601 -0.00603164,-0.0104361 -0.00603164,-0.0165579l0 -0.0294334c0,-0.00612175 0.001867,-0.0119719 0.00603164,-0.0165579 0.00446808,-0.0049186 0.0106614,-0.00735405 0.0172588,-0.00735405l0.0182645 0c0.0127404,0 0.0217415,0.00953376 0.0217415,0.0221456 0,0.00358824 -0.000728779,0.00692738 -0.00206576,0.009869zm-0.0828755 -0.39399c-0.0195512,0.000335239 -0.0426932,-0.0186607 -0.0580095,-0.018397l-0.000759256 1.32505e-005c-0.0135977,0.000233209 -0.0349867,0.0309559 -0.0556363,0.031311l-0.00151851 2.65011e-005c-0.0197393,0.000339214 -0.0379641,-0.0183931 -0.051102,0.00473574 -0.00573748,0.0101022 -0.00948606,0.0476873 -0.00919587,0.0645977l-0.000855985 9.67289e-005 -0.00307412 -0.0328825c-0.0118195,0.00379628 -0.0150129,0.0348237 -0.0146789,0.0541867l0.000245135 0.0143305c0.000710229,0.0413271 -0.0105421,0.0628393 0.00481657,0.103632 0.00898519,0.0238655 0.0254927,0.0585819 0.0548983,0.0580771 0.0142297,-0.000245135 0.0240457,-0.00593624 0.0332019,-0.0115333l-0.00109052 -0.00753823c-0.00387711,0.000413417 -0.0151599,0.0120341 -0.0307108,0.0123018l-0.00379363 6.49276e-005c-0.0103314,0.000177557 -0.0254357,-0.00955629 -0.0276393,-0.0180751 0.0146246,0.00826038 0.0397635,0.0165075 0.0508171,-0.00256 -0.0056964,0.000625425 -0.0130584,0.00696978 -0.0226505,0.00713541 -0.00717516,0.00012323 -0.0169527,-0.00342394 -0.0198771,-0.00809078l0.0106084 0.00183785 0.0121878 -0.000543272c0.00739512,-0.000127205 0.0218766,-0.0105898 0.0247825,-0.0156038l-0.00406129 -0.032758 -0.000119255 -0.0337822 0.00323313 -0.0565864 -0.00323313 -0.0420214c0.00416464,0.00597202 0.000678427,0.0216527 0.00930718,0.0217176l0.00543669 -0.0353551 2.65011e-005 -0.000153706 0.00155826 0.000222609 -0.0113239 0.100868 0.00163644 0.000233209 0.000682403 0.0396178c0.000470394,0.0273345 0.0073196,0.0642956 0.0217799,0.0746707 -0.00323181,-0.0124966 -0.0113027,-0.0199262 -0.0120938,-0.0411098 0.00544199,0.00671272 0.0140588,0.0157787 0.0253191,0.0155853 0.00720299,-0.00012323 0.0246195,-0.00543537 0.0288265,-0.00878245 0.0100373,-0.00798345 0.00953243,-0.0110562 0.0123336,-0.025653 0.00232944,0.00183122 0.00314965,0.00657492 0.00322385,0.0109065l2.91512e-005 0.00168547c7.95032e-005,0.00465491 -0.00141781,0.0056646 -0.00211744,0.00931248 0.014565,-0.0112285 0.00173847,-0.0369928 0.0121189,-0.0457408l0.0063205 0.0596725 0.000780456 7.15529e-005 -0.000931513 -2.25259e-005 0.00175172 -0.102069 0.00160199 -9.27537e-006 -0.0080921 -0.0916632 0.00201938 -0.000276936 0.0115359 0.0875781 -0.000518096 0.00515313 -0.00267661 0.0556536 0.00098849 0.0227936c0.000173582,0.010077 0.00743355,0.0175782 0.0162412,0.0174271l2.91512e-005 0.00168547 -0.00983057 0.0012429c0.0017875,0.00241292 0.0114697,0.00700291 0.0160318,0.00623968l0.0324227 -0.00576398 -0.0163631 -0.00577591 0.008748 -0.000922237c0.0093562,-0.00135553 0.0162624,0.00382808 0.0242962,-0.00186435 0.00775421,-0.00549235 0.00610187,-0.0124555 0.00953906,-0.018723 0.00024381,0.00263288 0.000810933,0.00298137 0.000861285,0.00588854l2.91512e-005 0.00168547 -0.00164704 0.0253483c0.00742427,-0.0101115 0.0118314,-0.0749225 0.0141529,-0.0954953 0.00199686,-0.0177054 0.00217839,-0.0326414 0.00285417,-0.0523727 0.000340539,-0.0099644 -5.0352e-005,-0.0164386 -0.000471719,-0.0261208 -0.00049292,-0.0113782 -0.00270311,-0.0164254 -0.00343984,-0.0244101l0.00151719 -2.65011e-005 0.00733947 0.0386916 0.00316158 -0.0278407c0.00221549,0.00403346 0.0036068,0.0149161 0.00372473,0.0217879 0.000299462,0.0174337 -0.00601839,0.0243121 -0.0069393,0.0330959 -0.00121772,0.0116114 -0.00107594,0.0261248 -0.0017928,0.0377918 -0.000772506,0.0125827 -0.00307147,0.0247798 -0.00376448,0.0365026 -0.000658552,0.0111304 -0.00340539,0.0274273 -0.00325433,0.0362243 0.000201408,0.0117227 0.0116141,0.020007 0.0156277,0.025869l-0.000315363 0.000874535 -0.0151732 -0.0068174c0.00226054,0.00744945 0.0128398,0.00855852 0.0163485,0.0118314l-0.000152381 0.00103884 -0.0205715 -0.00379893 0.000160331 -0.00110244c0.000934163,0.01013 0.0262679,0.0105103 0.0373758,0.0103195 0.00196638,-3.44514e-005 0.000769856,-0.000577723 0.00377905,-0.000908987l-2.78261e-005 -0.00168547 -0.0116578 -0.00329408c0.0400444,-0.0023957 0.0336126,-0.0193869 0.0430815,-0.0233859l-0.000805632 0.00926212c0.0134387,-0.00142841 0.0212313,-0.0664183 0.0222834,-0.0846749l0.00151851 -2.65011e-005 0.000215984 0.0126437c0.00318013,-0.00267793 0.00659347,-0.0138945 0.00648216,-0.0203475 -0.000287537,-0.0167964 -0.00886196,-0.0298641 -0.00920117,-0.0495888l0.00745475 0.0219946 0.00128398 -0.000290187 -0.00206841 -0.0235608 0.000891761 -0.000386916 0.00681077 0.0278473 -0.00102294 0.000304762c0.012213,-0.0202892 -0.00914552,-0.0366589 -0.0161339,-0.0553727 -0.00800862,-0.0214486 -0.0147637,-0.0359434 -0.0408633,-0.0363952 -0.0293778,-0.000510146 -0.0356983,-0.00791322 -0.052655,-0.0228333 -0.021984,-0.0193431 -0.0189403,-0.0197857 -0.0543404,-0.0191775l-0.0280792 0.000483644zm-0.412251 -1.32505e-006c0.0195512,0.000336564 0.0426932,-0.0186594 0.0580108,-0.0183957l0.000757931 1.32505e-005c0.0135977,0.000233209 0.034988,0.0309559 0.0556377,0.0313097l0.00151719 2.65011e-005c0.0197393,0.000339214 0.0379654,-0.0183904 0.051102,0.00473707 0.00573881,0.0101022 0.00948606,0.0476873 0.00919587,0.064599l0.00085731 9.40788e-005 0.0030728 -0.0328812c0.0118208,0.00379628 0.0150129,0.0348237 0.0146803,0.0541867l-0.00024646 0.0143305c-0.000710229,0.0413271 0.0105421,0.0628393 -0.00481524,0.103632 -0.00898519,0.0238655 -0.025494,0.0585819 -0.0548983,0.0580771 -0.0142311,-0.000245135 -0.0240471,-0.00593756 -0.0332032,-0.0115333l0.00109184 -0.00753823c0.00387578,0.000413417 0.0151586,0.0120341 0.0307094,0.0123018l0.00379363 6.49276e-005c0.0103314,0.000177557 0.0254357,-0.00955629 0.0276393,-0.0180751 -0.0146246,0.00826038 -0.0397635,0.0165075 -0.0508171,-0.00256 0.0056964,0.000625425 0.0130597,0.00696978 0.0226518,0.00713541 0.00717384,0.00012323 0.0169514,-0.00342394 0.0198758,-0.00809078l-0.0106084 0.00183785 -0.0121878 -0.000543272c-0.00739512,-0.000127205 -0.0218766,-0.0105898 -0.0247825,-0.0156038l0.00406129 -0.032758 0.00011793 -0.0337822 -0.00323181 -0.0565864 0.00323313 -0.0420214c-0.00416464,0.00597202 -0.000677102,0.0216527 -0.00930718,0.0217176l-0.00543537 -0.0353551 -2.65011e-005 -0.000153706 -0.00155959 0.000222609 0.0113239 0.100868 -0.00163777 0.000231884 -0.000681077 0.0396191c-0.000469069,0.0273345 -0.00732092,0.0642956 -0.0217799,0.0746694 0.00323181,-0.0124953 0.0113054,-0.0199248 0.0120938,-0.0411085 -0.00544067,0.00671272 -0.0140575,0.0157787 -0.0253191,0.0155853 -0.00720299,-0.00012323 -0.0246195,-0.00543537 -0.0288265,-0.00878245 -0.010036,-0.00798345 -0.00953243,-0.0110562 -0.0123336,-0.0256517 -0.00232944,0.0018299 -0.00314833,0.00657359 -0.00322385,0.0109052l-2.91512e-005 0.00168547c-7.95032e-005,0.00465491 0.00141781,0.0056646 0.00211744,0.00931248 -0.014565,-0.0112285 -0.00173847,-0.0369928 -0.0121189,-0.0457408l-0.00631918 0.0596725 -0.000780456 7.15529e-005 0.000930187 -2.25259e-005 -0.0017504 -0.102069 -0.00160331 -9.27537e-006 0.00809343 -0.0916632 -0.00202071 -0.000276936 -0.0115359 0.0875781 0.000518096 0.00515313 0.00267661 0.0556536 -0.000987165 0.0227922c-0.000173582,0.0100784 -0.0074362,0.0175795 -0.0162412,0.0174284l-2.91512e-005 0.00168547 0.00983057 0.0012429c-0.00178882,0.00241292 -0.011471,0.00700291 -0.0160331,0.00623968l-0.0324227 -0.00576398 0.0163644 -0.00577591 -0.00874933 -0.000922237c-0.0093562,-0.00135685 -0.0162624,0.00382808 -0.0242962,-0.00186435 -0.00775289,-0.00549235 -0.00610187,-0.0124568 -0.00953906,-0.018723 -0.000242485,0.00263288 -0.000810933,0.00298137 -0.00085996,0.00588721l-2.91512e-005 0.00168679 0.00164704 0.0253483c-0.0074256,-0.0101115 -0.0118327,-0.0749225 -0.0141542,-0.0954953 -0.00199686,-0.0177054 -0.00217706,-0.0326414 -0.00285284,-0.0523741 -0.000341864,-0.00996308 5.0352e-005,-0.0164373 0.000470394,-0.0261195 0.00049292,-0.0113782 0.00270311,-0.0164254 0.00343984,-0.0244115l-0.00151719 -2.65011e-005 -0.0073408 0.0386929 -0.00316025 -0.0278394c-0.00221549,0.00403346 -0.0036068,0.0149148 -0.00372473,0.0217865 -0.000299462,0.0174337 0.00601839,0.0243121 0.0069393,0.0330959 0.00121905,0.0116114 0.00107594,0.0261248 0.0017928,0.0377918 0.000772506,0.0125827 0.0030728,0.0247798 0.0037658,0.0365026 0.000657226,0.0111304 0.00340406,0.0274273 0.00325301,0.0362243 -0.000201408,0.0117227 -0.0116141,0.020007 -0.0156264,0.0258703l0.000315363 0.00087321 0.0151719 -0.0068174c-0.00226054,0.00744945 -0.0128398,0.00855852 -0.0163485,0.0118314l0.000152381 0.00103884 0.0205715 -0.00380025 -0.000160331 -0.00110112c-0.000935488,0.01013 -0.0262679,0.0105103 -0.0373745,0.0103195 -0.0019677,-3.44514e-005 -0.000769856,-0.000577723 -0.00378038,-0.000908987l2.91512e-005 -0.00168547 0.0116565 -0.00329408c-0.0400444,-0.0023957 -0.0336126,-0.0193869 -0.0430815,-0.0233859l0.000805632 0.00926212c-0.0134387,-0.00142841 -0.02123,-0.0664183 -0.0222834,-0.0846749l-0.00151719 -2.5176e-005 -0.000217309 0.0126437c-0.0031788,-0.00267926 -0.00659347,-0.0138958 -0.00648349,-0.0203488 0.000290187,-0.0167964 0.00886461,-0.0298641 0.00920382,-0.0495888l-0.00745608 0.0219946 -0.00128265 -0.000290187 0.00206708 -0.0235608 -0.000891761 -0.000386916 -0.00680945 0.0278473 0.00102162 0.000304762c-0.012213,-0.0202892 0.00914684,-0.0366589 0.0161339,-0.0553727 0.00800862,-0.0214486 0.0147624,-0.0359434 0.0408633,-0.0363952 0.0293778,-0.000510146 0.0356996,-0.00791322 0.0526563,-0.0228333 0.0219826,-0.0193431 0.018939,-0.0197857 0.0543391,-0.0191775l0.0280792 0.000482319zm0.0691082 0.263421c-0.0087427,-0.000149731 -0.0119758,-0.00532406 -0.0234375,-0.0054632 -0.00891893,-0.000108654 -0.0186607,-0.000283561 -0.0203621,-0.00793707 0.0113014,0.00690618 0.00946221,0.00269251 0.0219654,0.00290717l0.00455288 7.81782e-005c0.00706651,0.00012058 0.0139488,0.00698568 0.0203753,0.00709566l0.00455288 7.81782e-005c0.00204986,3.57764e-005 0.00210021,-0.000365715 0.00380953,-0.000777806l-2.91512e-005 0.00168679c-0.00401756,0.000300787 -0.00440978,0.00245267 -0.00915082,0.00237185l-0.00227644 -3.97516e-005zm-0.12897 -0.00474502c0.0123694,-0.00921177 0.0267515,0.00383205 0.0348516,0.00397119l0.00607139 0.000104679c0.00592829,0.000100704 0.0129617,-0.00449591 0.017557,-0.005601 -0.00286344,0.00456878 -0.0133923,0.0107316 -0.0206788,0.0106071l-0.00379495 -6.62527e-005c-0.00878908,-0.000151056 -0.0167792,-0.00872018 -0.0340062,-0.00901566zm0.121619 0.0349748c0.0178829,0.000307412 0.0311109,-0.00881028 0.0479404,-0.00676572l0.0113491 0.00123495 -0.00341069 0.00717119 0.0129299 -0.00635363 -0.00458733 0.0107608c0.006294,-0.00157681 0.0101791,-0.010672 0.0216355,-0.0104745 0.00540887,9.27537e-005 0.00766941,0.00245665 0.00976432,0.00607007l-0.00216911 -0.000519421 0.0031258 0.0138985 -0.00675247 -0.00636821c-4.77019e-005,0.00667562 0.0024487,0.0110536 0.00229632,0.0199103l-8.74535e-005 0.00505905c-9.54038e-005,0.0055586 -0.00111702,0.0109449 -0.00328083,0.0142775l0.00100042 -0.00037499 -0.00561823 -0.0186992 -0.00125483 0.000437268 0.00086526 0.010941c0.000265011,0.00557847 -0.00244737,0.0156105 -0.00503255,0.0176418l0.00011528 -0.00674452c-0.00693533,-0.000119255 -0.0167566,-0.00374725 -0.0180539,-0.00958544l0.000119255 0.00087056 -0.0388625 0.00671007 -0.00236787 -0.000698303 -0.000772506 -0.00926477c-0.00343586,0.00281574 -0.00227114,0.0128265 -0.0126967,0.0169872 -0.00575868,0.00229764 -0.0175636,0.00270576 -0.0254225,0.00257193 0.0116234,-0.00789732 0.0333556,0.00262228 0.0338988,-0.0289299l2.78261e-005 -0.00168547c0.000296812,-0.0172177 -0.0267608,-0.0299727 -0.0404724,-0.0302072 -0.0124091,-0.000214659 -0.0189191,0.0253297 -0.0241054,0.0333132 0.000295487,-0.01728 0.0080762,-0.0309943 0.0173476,-0.0376461 0.0103685,0.00113822 0.0188489,0.00622643 0.0325314,0.00646229zm-0.0399411 0.0271384c0.00103752,-0.00455686 0.00553077,-0.0116061 0.00783902,-0.0150553 0.00427197,-0.00638278 0.00535057,-0.007415 0.0127139,-0.00452638 0.00716456,0.00281044 0.0267078,0.00825906 0.0265567,0.0170177l-0.000116605 0.00674452c-0.000111304,0.00650071 -0.040862,0.00519951 -0.0501877,0.00503918 0.000502195,-0.00545657 0.0073355,-0.0031894 0.0129868,-0.00311653 0.00513193,6.62527e-005 0.00845384,-0.000730104 0.014406,-0.000628075l2.91512e-005 -0.00168679 -0.0242273 -0.00378833zm0.321328 -0.0573682c0.00874138,-0.000149731 0.0119745,-0.00532406 0.0234362,-0.0054632 0.00892026,-0.000108654 0.0186607,-0.000283561 0.0203621,-0.00793707 -0.0113001,0.00690618 -0.00946221,0.00269251 -0.0219641,0.00290717l-0.00455421 7.81782e-005c-0.00706651,0.00012058 -0.0139488,0.00698568 -0.020374,0.00709566l-0.00455421 7.81782e-005c-0.00204853,3.57764e-005 -0.00209888,-0.000365715 -0.0038082,-0.000777806l2.91512e-005 0.00168547c0.00401624,0.000302112 0.00440845,0.002454 0.00915082,0.00237317l0.00227644 -3.97516e-005zm0.128967 -0.00474502c-0.0123667,-0.00921177 -0.0267502,0.00383205 -0.0348502,0.00397119l-0.00607139 0.000104679c-0.00592829,0.000100704 -0.0129617,-0.00449591 -0.0175556,-0.005601 0.00286212,0.00456878 0.013391,0.0107316 0.0206788,0.0106057l0.00379363 -6.49276e-005c0.0087904,-0.000151056 0.0167792,-0.00872018 0.0340048,-0.00901566zm-0.121616 0.0349748c-0.0178842,0.000307412 -0.0311123,-0.00881028 -0.0479418,-0.00676572l-0.0113491 0.00123495 0.00341201 0.00717119 -0.0129299 -0.00635363 0.00458733 0.0107621c-0.00629533,-0.00157814 -0.0101791,-0.0106733 -0.0216368,-0.0104772 -0.00540887,9.40788e-005 -0.00766941,0.00245797 -0.00976299,0.00607139l0.00216911 -0.000519421 -0.0031258 0.0138985 0.00675115 -0.00636821c4.9027e-005,0.00667562 -0.0024487,0.0110536 -0.00229632,0.0199116l8.74535e-005 0.00505773c9.54038e-005,0.00555727 0.00111702,0.0109449 0.00328216,0.0142775l-0.00100042 -0.00037499 0.00561823 -0.0186992 0.0012535 0.000437268 -0.000863935 0.010941c-0.000265011,0.00557847 0.00244737,0.0156105 0.00503123,0.0176404l-0.00011528 -0.0067432c0.00693533,-0.000119255 0.0167566,-0.00374725 0.0180539,-0.00958544l-0.000119255 0.00087056 0.0388638 0.00671007 0.00236655 -0.000698303 0.000772506 -0.00926477c0.00343586,0.00281574 0.00227114,0.0128265 0.012698,0.0169872 0.00575736,0.00229764 0.0175623,0.00270576 0.0254211,0.0025706 -0.0116234,-0.00789599 -0.0333556,0.00262361 -0.0338988,-0.0289286l-2.78261e-005 -0.00168547c-0.000296812,-0.0172164 0.0267608,-0.0299727 0.0404724,-0.0302072 0.0124091,-0.000214659 0.0189191,0.0253297 0.0241067,0.0333132 -0.000296812,-0.01728 -0.00807753,-0.0309943 -0.0173476,-0.0376461 -0.0103699,0.00113822 -0.0188502,0.00622643 -0.0325314,0.00646229zm0.0399411 0.0271384c-0.00103884,-0.00455553 -0.00553077,-0.0116061 -0.00783902,-0.0150553 -0.0042733,-0.00638411 -0.00535057,-0.007415 -0.0127139,-0.00452638 -0.00716589,0.00281044 -0.0267078,0.00825906 -0.026558,0.017019l0.000116605 0.0067432c0.000111304,0.00650071 0.0408633,0.00519951 0.050189,0.00503918 -0.00050352,-0.00545657 -0.0073355,-0.0031894 -0.0129895,-0.00311653 -0.00512928,6.62527e-005 -0.00845252,-0.000730104 -0.0144033,-0.000628075l-2.91512e-005 -0.00168547 0.0242273 -0.00378965zm-0.565473 0.01099c-0.00188953,0 -0.00332588,-0.00050087 -0.00430907,-0.00150394 -0.00098319,-0.00100307 -0.00147478,-0.0024487 -0.00147478,-0.00433955l0 -0.0299661c0,-0.0019677 0.000491595,-0.00348092 0.00147478,-0.00454096 0.00098319,-0.00106137 0.00230427,-0.00159139 0.00396323,-0.00159139 0.00138733,0 0.0024964,0.000279586 0.00332588,0.000838759 0.000829483,0.000559173 0.0017451,0.00145623 0.00274816,0.00268986l0.014463 0.0175291 0 -0.0152156c0,-0.00188953 0.000491595,-0.00333516 0.00147478,-0.00433822 0.00098319,-0.00100307 0.00241955,-0.00150394 0.0043104,-0.00150394 0.00188953,0 0.00332588,0.00050087 0.00430907,0.00150394 0.00098319,0.00100307 0.00147611,0.0024487 0.00147611,0.00433822l0 0.0305465c0,0.00165764 -0.000453168,0.0029986 -0.0013595,0.00402021 -0.000906337,0.00102162 -0.00213069,0.00153309 -0.00367437,0.00153309 -0.00154236,0 -0.00275744,-0.000279586 -0.0036439,-0.000838759 -0.000887786,-0.000559173 -0.00183255,-0.00145623 -0.00283561,-0.00268986l-0.0144616 -0.0175291 0 0.0152143c0,0.00189085 -0.00049292,0.00333648 -0.00147611,0.00433955 -0.00098319,0.00100307 -0.00241955,0.00150394 -0.0043104,0.00150394zm0.0522402 0.0105289c-0.00212141,0 -0.00407851,-0.000124555 -0.00587131,-0.000376315 -0.00179412,-0.000250435 -0.00330733,-0.000568448 -0.00454228,-0.000954038 -0.00131048,-0.000385591 -0.00225524,-0.00099379 -0.00283429,-0.00182195 -0.000577723,-0.000829483 -0.000877185,-0.00171727 -0.000897061,-0.00266203 -1.85507e-005,-0.000944763 0.000193458,-0.00181267 0.000637351,-0.0026024 0.000442568,-0.000791057 0.00106004,-0.00137938 0.0018511,-0.00176497 0.000789732,-0.000385591 0.00166824,-0.000405466 0.00263156,-5.83024e-005 0.00169739,0.000579048 0.00320133,0.000964639 0.00451313,0.00115677 0.00131048,0.000193458 0.00241027,0.000290187 0.00329673,0.000290187 0.00227512,0 0.00396323,-0.000414742 0.0050617,-0.00124423 0.00109979,-0.000829483 0.00164969,-0.00218899 0.00164969,-0.00407851l0 -0.0018511c-0.000809608,0.0011952 -0.00200613,0.00217839 -0.00358692,0.00295089 -0.00158079,0.000771181 -0.00325963,0.00115677 -0.00503255,0.00115677 -0.002507,0 -0.00471587,-0.000588324 -0.00662527,-0.00176497 -0.00190808,-0.00117532 -0.00339346,-0.00283429 -0.0044535,-0.00497558 -0.00106137,-0.00213996 -0.00159139,-0.00463636 -0.00159139,-0.00749053 0,-0.00289259 0.000530021,-0.00541019 0.00159139,-0.00755015 0.00106004,-0.00213996 0.00254543,-0.00379893 0.0044535,-0.00497558 0.0019094,-0.00117665 0.00411827,-0.00176365 0.00662527,-0.00176365 0.00188953,0 0.00362402,0.000394866 0.00520613,0.00118592 0.00158079,0.000789732 0.00271901,0.00182195 0.00341334,0.00309532 0.000654576,-0.00277731 0.00258385,-0.00416597 0.00578518,-0.00416597 0.00192795,0 0.00339346,0.000520746 0.00439653,0.00156224 0.00100307,0.00104149 0.00150394,0.00254543 0.00150394,0.00451181l0 0.0187442c0,0.00512928 -0.00148538,0.00898651 -0.00445483,0.0115704 -0.00296944,0.00258385 -0.00721227,0.00387578 -0.0127271,0.00387578zm0.000809608 -0.0206523c0.00135023,0 0.00243942,-0.000463769 0.00326891,-0.00138866 0.000829483,-0.000926212 0.00124423,-0.00227512 0.00124423,-0.00404936 0,-0.00177425 -0.000414742,-0.00313375 -0.00124423,-0.00407851 -0.000829483,-0.000944763 -0.00191868,-0.00141781 -0.00326891,-0.00141781 -0.0013489,0 -0.00243942,0.000473044 -0.00326758,0.00141781 -0.000829483,0.000944763 -0.00124423,0.00230427 -0.00124423,0.00407851 0,0.00177425 0.000414742,0.00312315 0.00124423,0.00404936 0.000828158,0.000924887 0.00191868,0.00138866 0.00326758,0.00138866zm0.0323393 0.0102387c-0.00374063,0 -0.00650866,-0.00104017 -0.00830146,-0.00312315 -0.00179412,-0.00208298 -0.00268986,-0.00526444 -0.00268986,-0.00954568l0 -0.0111079c0,-0.00196638 0.000520746,-0.00347031 0.00156224,-0.00451181 0.00104017,-0.00104149 0.00252555,-0.00156224 0.0044535,-0.00156224 0.00192928,0 0.00341334,0.000520746 0.00445483,0.00156224 0.00104149,0.00104149 0.00156224,0.00254543 0.00156224,0.00451181l0 0.0114551c0,0.00212141 0.000906337,0.00318145 0.00271901,0.00318145 0.00107992,0 0.00196638,-0.000414742 0.00266071,-0.00124423 0.000694328,-0.000828158 0.00104149,-0.0018988 0.00104149,-0.0032106l0 -0.0101817c0,-0.00196638 0.000520746,-0.00347031 0.00156224,-0.00451181 0.00104149,-0.00104149 0.00252555,-0.00156224 0.00445483,-0.00156224 0.00192795,0 0.00341334,0.000520746 0.00445483,0.00156224 0.00104017,0.00104149 0.00156091,0.00254543 0.00156091,0.00451181l0 0.0175874c0,0.00404936 -0.0019465,0.00607404 -0.00584216,0.00607404 -0.0031629,0 -0.00505243,-0.00135023 -0.0056699,-0.00404936 -0.000926212,0.0013489 -0.00204456,0.00238112 -0.00335504,0.00309532 -0.0013118,0.000712879 -0.00285417,0.00106932 -0.00462841,0.00106932zm0.0307187 -0.00011528c-0.00192795,0 -0.00341334,-0.000520746 -0.0044535,-0.00156224 -0.00104149,-0.00104149 -0.00156224,-0.00254543 -0.00156224,-0.00451181l0 -0.0175874c0,-0.00196638 0.000510146,-0.00347031 0.00153309,-0.00451181 0.00102162,-0.00104149 0.00247785,-0.00156224 0.00436738,-0.00156224 0.00323976,0 0.00512928,0.00144563 0.0056699,0.00433822 0.000886461,-0.00131048 0.00208166,-0.00238112 0.00358692,-0.0032106 0.00150394,-0.000828158 0.00323976,-0.0012429 0.00520613,-0.0012429 0.00181267,0 0.00343189,0.000414742 0.00485897,0.0012429 0.00142708,0.000829483 0.00252688,0.00209226 0.00329806,0.00378965 0.00100307,-0.00158079 0.00233342,-0.00281574 0.00399106,-0.0037022 0.00165897,-0.000887786 0.00347164,-0.00133035 0.00543934,-0.00133035 0.00335504,0 0.00583289,0.00102162 0.00743355,0.00306617 0.00160066,0.00204323 0.00239967,0.00524456 0.00239967,0.00960266l0 0.0111079c0,0.00196638 -0.000519421,0.00347031 -0.00156091,0.00451181 -0.00104149,0.00104149 -0.00252688,0.00156224 -0.00445483,0.00156224 -0.00192795,0 -0.00341334,-0.000520746 -0.00445483,-0.00156224 -0.00104149,-0.00104149 -0.00156224,-0.00254543 -0.00156224,-0.00451181l0 -0.0108191c0,-0.00138733 -0.000182857,-0.00237185 -0.000548572,-0.00294957 -0.00036704,-0.000579048 -0.00099379,-0.00086791 -0.00188025,-0.00086791 -0.00227644,0 -0.00341334,0.00161922 -0.00341334,0.00485897l0 0.00977757c0,0.00196638 -0.000520746,0.00347031 -0.00156224,0.00451181 -0.00104149,0.00104149 -0.00252688,0.00156224 -0.00445483,0.00156224 -0.00192795,0 -0.00341334,-0.000520746 -0.00445483,-0.00156224 -0.00104017,-0.00104149 -0.00156091,-0.00254543 -0.00156091,-0.00451181l0 -0.0108191c0,-0.00138733 -0.000184182,-0.00237185 -0.000549897,-0.00294957 -0.00036704,-0.000579048 -0.00099379,-0.00086791 -0.00188025,-0.00086791 -0.00227512,0 -0.00341334,0.00161922 -0.00341334,0.00485897l0 0.00977757c0,0.00404936 -0.00200613,0.00607404 -0.00601707,0.00607404zm0.0528763 -0.0330906c-0.00212141,0 -0.00374063,-0.000482319 -0.00485897,-0.00144696 -0.00111835,-0.000964639 -0.00167752,-0.00235197 -0.00167752,-0.00416464 0,-0.00181267 0.000559173,-0.00320133 0.00167752,-0.00416597 0.00111835,-0.000963314 0.00273756,-0.00144563 0.00485897,-0.00144563 0.00212141,0 0.00374195,0.000482319 0.0048603,0.00144563 0.00111835,0.000964639 0.00167752,0.00235329 0.00167752,0.00416597 0,0.00181267 -0.000559173,0.0032 -0.00167752,0.00416464 -0.00111835,0.000964639 -0.00273889,0.00144696 -0.0048603,0.00144696zm0 0.0330906c-0.00192795,0 -0.00341334,-0.000559173 -0.00445483,-0.00167752 -0.00104017,-0.00111835 -0.00156091,-0.00273889 -0.00156091,-0.0048603l0 -0.0166599c0,-0.00212141 0.000520746,-0.00374195 0.00156091,-0.0048603 0.00104149,-0.00111835 0.00252688,-0.00167752 0.00445483,-0.00167752 0.00192928,0 0.00341334,0.000559173 0.00445483,0.00167752 0.00104149,0.00111835 0.00156224,0.00273889 0.00156224,0.0048603l0 0.0166599c0,0.00212141 -0.000511471,0.00374195 -0.00153309,0.0048603 -0.00102294,0.00111835 -0.00251628,0.00167752 -0.00448398,0.00167752zm0.423502 0.000441243c-0.00152514,0 -0.00269383,-0.000470394 -0.00350477,-0.00141251 -0.000810933,-0.000942113 -0.00121772,-0.00228174 -0.00121772,-0.00401889l0 -0.0293195c0,-0.00173715 0.000438593,-0.00307677 0.00131445,-0.00401889 0.000877185,-0.000942113 0.00211081,-0.00141251 0.00370087,-0.00141251 0.00133035,0 0.0023851,0.000295487 0.00316423,0.000886461 0.000779131,0.000590974 0.00149334,0.00155164 0.00214261,0.00288199l0.00866585 0.0174033 0.00866717 -0.0174033c0.000649276,-0.00133035 0.00137143,-0.00229102 0.00216646,-0.00288199 0.000795032,-0.000590974 0.00184182,-0.000886461 0.00314038,-0.000886461 0.00152514,0 0.00270178,0.000470394 0.00352994,0.00141251 0.000828158,0.000942113 0.00124158,0.00228174 0.00124158,0.00401889l0 0.0293195c0,0.00173715 -0.000405466,0.00307677 -0.00121772,0.00401889 -0.000810933,0.000942113 -0.00197963,0.00141251 -0.00350477,0.00141251 -0.00152646,0 -0.00269516,-0.000470394 -0.00350609,-0.00141251 -0.000810933,-0.000942113 -0.0012164,-0.00228174 -0.0012164,-0.00401889l0 -0.0135235 -0.00555065 0.0104745c-0.00048762,0.000924887 -0.00103089,0.00161657 -0.00163114,0.00207901 -0.000600249,0.000462444 -0.00137143,0.000693003 -0.00231222,0.000693003 -0.000942113,0 -0.00171329,-0.000230559 -0.00231354,-0.000693003 -0.000600249,-0.000462444 -0.00114352,-0.00115412 -0.00163114,-0.00207901l-0.00540357 -0.0101976 0 0.0132466c0,0.00173715 -0.000406791,0.00307677 -0.00121772,0.00401889 -0.000810933,0.000942113 -0.00197963,0.00141251 -0.00350609,0.00141251zm0.0550175 0.000111304c-0.00155826,0 -0.00298667,-0.000378965 -0.0042839,-0.0011369 -0.00129855,-0.000756605 -0.00225657,-0.00176365 -0.00287272,-0.0030198 -0.000519421,0.00269648 -0.00212671,0.00404539 -0.00482054,0.00404539 -0.00334311,0 -0.005014,-0.00193988 -0.005014,-0.00581963l0 -0.028543c0,-0.00188555 0.000437268,-0.00332588 0.00131445,-0.00432365 0.00087586,-0.000997765 0.00212539,-0.00149599 0.00374858,-0.00149599 0.00162319,0 0.00287272,0.00049822 0.00374858,0.00149599 0.000877185,0.000997765 0.00131445,0.0024381 0.00131445,0.00432365l0 0.00931115c0.000681077,-0.00107197 0.00163909,-0.0019306 0.00287272,-0.00257723 0.00123362,-0.000646626 0.00256398,-0.000969939 0.00399239,-0.000969939 0.00204456,0 0.00385458,0.000572423 0.00542874,0.00171727 0.00157416,0.00114617 0.00280779,0.00279056 0.00370087,0.00493317 0.000891761,0.00214394 0.0013383,0.00471189 0.0013383,0.00770386 0,0.00295619 -0.000446543,0.00551487 -0.0013383,0.00767736 -0.000893086,0.00216116 -0.00212671,0.00381483 -0.00370087,0.00495967 -0.00157416,0.00114617 -0.00338419,0.00171859 -0.00542874,0.00171859zm-0.00335901 -0.00842469c0.00103884,0 0.00190675,-0.000443893 0.00260373,-0.00133035 0.000698303,-0.000886461 0.00104812,-0.00241955 0.00104812,-0.00460059 0,-0.00217971 -0.000349814,-0.0037128 -0.00104812,-0.00459926 -0.000696978,-0.000887786 -0.00156489,-0.00133035 -0.00260373,-0.00133035 -0.00103884,0 -0.00190675,0.000442568 -0.00260506,0.00133035 -0.000698303,0.000886461 -0.00104679,0.00241955 -0.00104679,0.00459926 0,0.00218104 0.000348489,0.00371412 0.00104679,0.00460059 0.000698303,0.000886461 0.00156621,0.00133035 0.00260506,0.00133035zm0.0282872 0.00831339c-0.0025971,0 -0.00444688,-0.00144033 -0.00555065,-0.00432232l-0.00642651 -0.016905c-0.000486295,-0.00129325 -0.000657226,-0.00248448 -0.000511471,-0.00357499 0.000145756,-0.00109052 0.000600249,-0.00197698 0.00136348,-0.00266071 0.000763231,-0.000683728 0.00184182,-0.00102559 0.00323711,-0.00102559 0.0011369,0 0.00208563,0.000314038 0.00284886,0.000943438 0.000761906,0.00062675 0.00145226,0.00184712 0.00206973,0.00365715l0.00350477 0.009922 0.0037976 -0.0112524c0.000357764,-0.00110774 0.000852009,-0.0019306 0.00148538,-0.00246592 0.000633376,-0.000535322 0.00145226,-0.000804307 0.00245797,-0.000804307 0.00103884,0 0.001867,0.000278261 0.00248315,0.000832134 0.000617475,0.000553872 0.00110377,0.00136746 0.00146153,0.0024381l0.00394336 0.0115836 0.00360282 -0.0106415c0.000551222,-0.00162584 0.00124953,-0.00273359 0.00209358,-0.00332456 0.000844059,-0.000592299 0.00171992,-0.000887786 0.00262891,-0.000887786 0.00126543,0 0.00223934,0.000341864 0.00292174,0.00102559 0.000681077,0.000683728 0.00107064,0.00157946 0.0011687,0.00268853 9.67289e-005,0.00110907 -9.8054e-005,0.00230957 -0.000584349,0.00360282l-0.00632978 0.0167937c-0.00110377,0.00291909 -0.00295354,0.00437798 -0.00555065,0.00437798 -0.00262891,0 -0.00446278,-0.00145888 -0.00550162,-0.00437798l-0.00272696 -0.00737127 -0.00248183 0.00725997c-0.00103884,0.0029933 -0.00284091,0.00448928 -0.00540489,0.00448928zm0.0453765 0.000111304c-0.00305027,0 -0.00568845,-0.000590974 -0.00791189,-0.00177425 -0.00222344,-0.00118195 -0.00392746,-0.00285417 -0.00511206,-0.00501533 -0.0011846,-0.00216116 -0.0017769,-0.00470261 -0.0017769,-0.00762171 0,-0.00280779 0.000560498,-0.00528299 0.00168017,-0.0074256 0.00111967,-0.00214394 0.00266071,-0.00382543 0.00462444,-0.00504448 0.00196373,-0.00121905 0.00419512,-0.00182857 0.00669549,-0.00182857 0.00249905,0 0.00466551,0.000590974 0.00649939,0.00177292 0.00183387,0.00118327 0.00325433,0.00285417 0.00426005,0.00501665 0.00100704,0.00216116 0.00150924,0.00470129 0.00150924,0.00762038 0,0.00147876 -0.000730104,0.00221681 -0.00219031,0.00221681l-0.0133897 0c0.000291512,0.00136746 0.000885136,0.00231884 0.0017769,0.00285549 0.000893086,0.000535322 0.00210153,0.000802982 0.003628,0.000802982 0.000649276,0 0.00140323,-8.34784e-005 0.00226319,-0.00024911 0.00085996,-0.000166957 0.00168017,-0.000378965 0.0024593,-0.000637351 0.000940788,-0.000332588 0.00175305,-0.000332588 0.00243412,0 0.000681077,0.000332588 0.0012005,0.000840084 0.00155826,0.00152381 0.000356439,0.000683728 0.000543272,0.00145093 0.000559173,0.00230029 1.59006e-005,0.000849359 -0.000169607,0.00164439 -0.000559173,0.00238245 -0.000389566,0.00073938 -0.00100704,0.00129325 -0.00184977,0.00166294 -0.00211081,0.000960664 -0.00449591,0.00144166 -0.00715794,0.00144166zm-0.00131445 -0.0213387c-0.00103884,0 -0.0018988,0.000332588 -0.00257988,0.000997765 -0.000682403,0.000665177 -0.0011369,0.00173582 -0.00136348,0.00321458l0.00744945 0c-9.8054e-005,-0.00147876 -0.000446543,-0.0025494 -0.00104679,-0.00321458 -0.000600249,-0.000665177 -0.00142046,-0.000997765 -0.0024593,-0.000997765zm0.0272166 0.031315c-0.00178485,0 -0.00343321,-0.00012058 -0.00494245,-0.000360415 -0.00150924,-0.000239835 -0.00278261,-0.000544597 -0.00382145,-0.000914287 -0.00110377,-0.00036969 -0.0018988,-0.000951388 -0.0023851,-0.00174642 -0.00048762,-0.000793707 -0.00073938,-0.00164307 -0.00075528,-0.0025494 -1.59006e-005,-0.000905011 0.000161657,-0.00173582 0.000535322,-0.00249375 0.000373665,-0.000757931 0.000893086,-0.00132108 0.00155826,-0.00169077 0.000665177,-0.00036969 0.00140323,-0.000388241 0.00221549,-5.56522e-005 0.00142841,0.000555197 0.00269383,0.000924887 0.0037976,0.00110907 0.00110377,0.000184182 0.00202866,0.000276936 0.00277466,0.000276936 0.00191603,0 0.00333516,-0.000397516 0.00426005,-0.00119122 0.000924887,-0.000795032 0.00138866,-0.00209756 0.00138866,-0.00390758l0 -0.00177425c-0.000682403,0.00114617 -0.00168812,0.00208828 -0.00301847,0.00282766 -0.00133168,0.000738055 -0.00274286,0.00110774 -0.0042362,0.00110774 -0.00210949,0 -0.00396853,-0.000563148 -0.0055745,-0.00169077 -0.00160729,-0.0011263 -0.00285682,-0.00271503 -0.0037499,-0.00476622 -0.000891761,-0.00205118 -0.0013383,-0.0044429 -0.0013383,-0.00717781 0,-0.00277069 0.000446543,-0.00518228 0.0013383,-0.00723214 0.000893086,-0.00205118 0.00214261,-0.00363992 0.0037499,-0.00476754 0.00160596,-0.0011263 0.00346501,-0.00168944 0.0055745,-0.00168944 0.00159006,0 0.00305027,0.000378965 0.00438195,0.00113557 0.00133035,0.000757931 0.00228837,0.00174642 0.00287272,0.00296547 0.000551222,-0.00266071 0.00217441,-0.00399106 0.00486825,-0.00399106 0.00162319,0 0.00285682,0.000499545 0.00369955,0.00149731 0.000845384,0.000997765 0.00126675,0.0024381 0.00126675,0.00432232l0 0.0179584c0,0.00491462 -0.00124953,0.00860887 -0.00374858,0.0110854 -0.00250038,0.0024752 -0.00607007,0.0037128 -0.0107117,0.0037128zm0.000681077 -0.019787c0.0011369,0 0.00205383,-0.000442568 0.00275081,-0.00133035 0.000698303,-0.000886461 0.00104679,-0.00217971 0.00104679,-0.00387976 0,-0.00169872 -0.000348489,-0.00300125 -0.00104679,-0.00390626 -0.000696978,-0.000906337 -0.00161392,-0.00135818 -0.00275081,-0.00135818 -0.00113557,0 -0.00205251,0.000451843 -0.00275081,0.00135818 -0.000696978,0.000905011 -0.00104679,0.00220754 -0.00104679,0.00390626 0,0.00170004 0.000349814,0.0029933 0.00104679,0.00387976 0.000698303,0.000887786 0.00161524,0.00133035 0.00275081,0.00133035zm0.0213744 0.00914552c-0.00100704,0 -0.00182592,-0.000295487 -0.0024593,-0.000886461 -0.00063205,-0.000592299 -0.00106269,-0.00133963 -0.00128928,-0.00224464 -0.000227909,-0.000906337 -0.000227909,-0.00187628 0,-0.00290982 0.000226584,-0.00103487 0.000712879,-0.00199553 0.00146021,-0.00288199l0.00837434 -0.010032 -0.00642651 0c-0.00250038,0 -0.0037499,-0.00140456 -0.0037499,-0.00421234 0,-0.00280911 0.00124953,-0.00421234 0.0037499,-0.00421234l0.0133883 0c0.0011369,0 0.00205383,0.000295487 0.00275081,0.000886461 0.000698303,0.000590974 0.00117665,0.00133963 0.00143636,0.00224464 0.00025971,0.000905011 0.000275611,0.00187495 4.9027e-005,0.00290982 -0.000226584,0.00103487 -0.000714204,0.00199553 -0.00146021,0.00288199l-0.00837434 0.010032 0.0069128 0c0.00250038,0 0.0037499,0.00140456 0.0037499,0.00421234 0,0.00280779 -0.00124953,0.00421234 -0.0037499,0.00421234l-0.0143623 0zm0.034568 0.000665177c-0.0030516,0 -0.00568845,-0.000590974 -0.00791189,-0.00177425 -0.00222344,-0.00118195 -0.00392746,-0.00285417 -0.00511206,-0.00501533 -0.0011846,-0.00216116 -0.0017769,-0.00470261 -0.0017769,-0.00762171 0,-0.00280779 0.000559173,-0.00528299 0.00167884,-0.0074256 0.001121,-0.00214394 0.00266203,-0.00382543 0.00462576,-0.00504448 0.00196373,-0.00121905 0.00419512,-0.00182857 0.00669417,-0.00182857 0.00250038,0 0.00466684,0.000590974 0.00650071,0.00177292 0.00183387,0.00118327 0.00325301,0.00285417 0.00426005,0.00501665 0.00100572,0.00216116 0.00150924,0.00470129 0.00150924,0.00762038 0,0.00147876 -0.000730104,0.00221681 -0.00219164,0.00221681l-0.0133883 0c0.000291512,0.00136746 0.000883811,0.00231884 0.0017769,0.00285549 0.000893086,0.000535322 0.00210153,0.000802982 0.00362667,0.000802982 0.000649276,0 0.00140456,-8.34784e-005 0.00226452,-0.00024911 0.00085996,-0.000166957 0.00168017,-0.000378965 0.0024593,-0.000637351 0.000940788,-0.000332588 0.00175172,-0.000332588 0.00243412,0 0.000681077,0.000332588 0.0012005,0.000840084 0.00155826,0.00152381 0.000356439,0.000683728 0.000543272,0.00145093 0.000559173,0.00230029 1.59006e-005,0.000849359 -0.000170932,0.00164439 -0.000559173,0.00238245 -0.000389566,0.00073938 -0.00100704,0.00129325 -0.0018511,0.00166294 -0.00210949,0.000960664 -0.00449458,0.00144166 -0.00715661,0.00144166zm-0.00131445 -0.0213387c-0.00103884,0 -0.0018988,0.000332588 -0.0025812,0.000997765 -0.000681077,0.000665177 -0.00113557,0.00173582 -0.00136348,0.00321458l0.00744945 0c-9.67289e-005,-0.00147876 -0.000445218,-0.0025494 -0.00104679,-0.00321458 -0.000600249,-0.000665177 -0.00141913,-0.000997765 -0.00245797,-0.000997765zm-0.673513 0.111825c-0.00140191,0 -0.00289657,-0.00011263 -0.00448266,-0.000335239 -0.00158741,-0.000223934 -0.00310858,-0.000528696 -0.00456613,-0.000914287 -0.00145756,-0.000385591 -0.00275876,-0.000822858 -0.00390228,-0.00131048 -0.00118062,-0.000528696 -0.00201143,-0.00128928 -0.0024911,-0.00228572 -0.000479669,-0.000995115 -0.000663852,-0.00206178 -0.000552547,-0.00319868 0.000109979,-0.00113822 0.000461119,-0.00215321 0.00105077,-0.00304762 0.000590974,-0.000893086 0.00138336,-0.00151321 0.0023798,-0.00185772 0.00099644,-0.000345839 0.00212274,-0.000234534 0.00337624,0.000335239 0.00129193,0.000568448 0.00281441,0.00103619 0.00456613,0.00140191 0.00175305,0.00036439 0.00329408,0.000547247 0.00462179,0.000547247 0.00213996,0 0.00359752,-0.000263686 0.00437268,-0.000791057 0.000775156,-0.000528696 0.00116207,-0.00113822 0.00116207,-0.00182857 0,-0.000650601 -0.000267661,-0.00118857 -0.000802982,-0.00161524 -0.000533997,-0.000426667 -0.00152116,-0.000801657 -0.00296017,-0.00112762l-0.00664249 -0.00158344c-0.00704663,-0.00166559 -0.0105713,-0.00578916 -0.0105713,-0.0123707 0,-0.00292572 0.000719504,-0.00546452 0.00215851,-0.00761773 0.00143901,-0.00215321 0.00345044,-0.00382808 0.00603297,-0.00502725 0.00258385,-0.00119785 0.0055904,-0.0017981 0.00902229,-0.0017981 0.00173449,0 0.00357897,0.000204058 0.00553475,0.000609525 0.00195578,0.000406791 0.00363462,0.000995115 0.00503653,0.00176762 0.00099644,0.000528696 0.00172522,0.00128 0.00218634,0.00225524 0.000461119,0.000973914 0.000654576,0.00199023 0.000580373,0.0030463 -7.28779e-005,0.00105607 -0.00037764,0.00200083 -0.000912962,0.00283429 -0.000535322,0.000832134 -0.00128265,0.00140058 -0.00224067,0.00170534 -0.000960664,0.000304762 -0.00212274,0.000193458 -0.00348754,-0.000335239 -0.000922237,-0.000365715 -0.00202998,-0.000659877 -0.00332058,-0.000882486 -0.00129193,-0.000223934 -0.00247255,-0.000335239 -0.00354187,-0.000335239 -0.0018087,0 -0.00316423,0.000283561 -0.00406924,0.000852009 -0.000903686,0.000569773 -0.00135553,0.00132108 -0.00135553,0.00225524 0,0.000528696 0.000258385,0.00100572 0.000775156,0.00143238 0.000516771,0.000426667 0.00151189,0.000801657 0.002988,0.00112762l0.00664249 0.00158344c0.00704796,0.00170667 0.0105713,0.00574941 0.0105713,0.0121269 0,0.00288464 -0.000710229,0.00541284 -0.00213069,0.00758726 -0.00142046,0.00217309 -0.00341334,0.00384928 -0.00597864,0.00502725 -0.00256398,0.00117797 -0.0055798,0.00176762 -0.00904879,0.00176762zm0.0625438 -0.000121905c-0.00191868,0 -0.00339479,-0.000579048 -0.004427,-0.00173715 -0.00103354,-0.0011581 -0.00155031,-0.00281309 -0.00155031,-0.0049663l0 -0.0307744c0,-0.00215321 0.000516771,-0.0038082 0.00155031,-0.0049663 0.00103222,-0.0011581 0.00250833,-0.00173715 0.004427,-0.00173715 0.00191868,0 0.00338551,0.000579048 0.0044005,0.00173715 0.00101499,0.0011581 0.00152249,0.00281309 0.00152249,0.0049663l0 0.0307744c0,0.00215321 -0.00049822,0.0038082 -0.00149466,0.0049663 -0.00099644,0.0011581 -0.00247255,0.00173715 -0.00442833,0.00173715zm0.0531903 0c-0.00191868,0 -0.00339479,-0.000579048 -0.004427,-0.00173715 -0.00103354,-0.0011581 -0.00155031,-0.00279321 -0.00155031,-0.00490535l0 -0.0308963c0,-0.00215321 0.000516771,-0.0037976 0.00155031,-0.00493582 0.00103222,-0.0011369 0.00250833,-0.00170667 0.004427,-0.00170667 0.00191868,0 0.00338551,0.000569773 0.0044005,0.00170667 0.00101499,0.00113822 0.00152249,0.00278261 0.00152249,0.00493582l0 0.0120659 0.000109979 0 0.0121216 -0.0156608c0.000738055,-0.000934163 0.00155826,-0.00166559 0.00246327,-0.00219429 0.000903686,-0.000527371 0.0019465,-0.000792382 0.00312713,-0.000792382 0.0017716,0 0.0030622,0.000508821 0.00387313,0.00152381 0.000812258,0.00101632 0.0012005,0.00220356 0.0011634,0.00356572 -3.71015e-005,0.00136083 -0.000516771,0.00258915 -0.00143901,0.0036863l-0.00979744 0.0120659 0.0104613 0.0140151c0.00103354,0.00138203 0.00155031,0.00279321 0.00155031,0.00423487 0,0.00144298 -0.000453168,0.00264083 -0.00135685,0.00359619 -0.000903686,0.000954038 -0.00220489,0.00143238 -0.00390228,0.00143238 -0.00147478,0 -0.00265541,-0.000325963 -0.00354187,-0.000975239 -0.000885136,-0.000650601 -0.00180737,-0.00160464 -0.00276671,-0.00286477l-0.011956 -0.0159046 -0.000109979 0 0 0.0131021c0,0.00211214 -0.00049822,0.00374725 -0.00149466,0.00490535 -0.00099644,0.0011581 -0.00247255,0.00173715 -0.00442833,0.00173715zm0.0877278 0.000121905c-0.00586734,0 -0.01035,-0.00161524 -0.0134493,-0.00484572 -0.0030993,-0.00322916 -0.00464961,-0.00809475 -0.00464961,-0.0145941l0 -0.0182208c0,-0.00215321 0.000516771,-0.0037976 0.00155031,-0.00493582 0.00103222,-0.0011369 0.00250833,-0.00170667 0.004427,-0.00170667 0.00191868,0 0.00338551,0.000569773 0.0044005,0.00170667 0.00101499,0.00113822 0.00152249,0.00278261 0.00152249,0.00493582l0 0.0184646c0,0.00272166 0.000533997,0.00478344 0.00160464,0.00618535 0.00106932,0.00140191 0.00260108,0.00210286 0.00459396,0.00210286 0.00199288,0 0.00352332,-0.000700953 0.00459396,-0.00210286 0.00106932,-0.00140191 0.00160464,-0.00346369 0.00160464,-0.00618535l0 -0.0184646c0,-0.00215321 0.000507495,-0.0037976 0.00152249,-0.00493582 0.00101499,-0.0011369 0.00246195,-0.00170667 0.00434485,-0.00170667 0.00188158,0 0.00332058,0.000569773 0.00431702,0.00170667 0.000995115,0.00113822 0.00149466,0.00278261 0.00149466,0.00493582l0 0.0182208c0,0.00649939 -0.00151321,0.011365 -0.00453963,0.0145941 -0.0030251,0.00323048 -0.00747065,0.00484572 -0.013338,0.00484572zm0.0799232 -0.000731429c-0.00202998,0 -0.00356042,-0.000630725 -0.00459396,-0.00188953 -0.00103354,-0.0012588 -0.00147611,-0.00283429 -0.0013277,-0.00472249 0.000147081,-0.00188953 0.000939463,-0.00378833 0.0023798,-0.00569773l0.0151639 -0.0199275 -0.0125628 0c-0.00335769,0 -0.00503653,-0.0017875 -0.00503653,-0.00536249 0,-0.00357499 0.00167884,-0.00536249 0.00503653,-0.00536249l0.0208656 0c0.00202998,0 0.00356042,0.000630725 0.00459396,0.00188953 0.00103354,0.0012588 0.00148538,0.00283429 0.00135553,0.00472249 -0.00012853,0.00188953 -0.000931513,0.00378833 -0.00240762,0.00569773l-0.0151652 0.0199275 0.0134493 0c0.00335769,0 0.00503785,0.0017875 0.00503785,0.00536249 0,0.00357499 -0.00168017,0.00536249 -0.00503785,0.00536249l-0.0217508 0zm0.0850141 0.000731429c-0.00402154,0 -0.00757268,-0.000935488 -0.0106534,-0.00280381 -0.00308075,-0.00186833 -0.0054791,-0.00447868 -0.00719504,-0.00783107 -0.00171594,-0.00335106 -0.00257458,-0.00722022 -0.00257458,-0.0116075 0,-0.00442833 0.000858635,-0.00830808 0.00257458,-0.0116393 0.00171594,-0.00333118 0.00411429,-0.00592166 0.00719504,-0.00777011 0.00308075,-0.00184845 0.00663189,-0.00277334 0.0106534,-0.00277334 0.00405996,0 0.00762038,0.000924887 0.0106826,0.00277334 0.00306352,0.00184845 0.00545127,0.00443893 0.00716721,0.00777011 0.00171594,0.00333118 0.00257458,0.00721094 0.00257458,0.0116393 0,0.004427 -0.000858635,0.00830676 -0.00257458,0.0116379 -0.00171594,0.00333118 -0.00410369,0.00593226 -0.00716721,0.00780059 -0.0030622,0.00186833 -0.00662262,0.00280381 -0.0106826,0.00280381zm0 -0.0109078c0.00250965,0 0.00448398,-0.00100572 0.00592299,-0.00301715 0.00143901,-0.00201143 0.00215851,-0.00478344 0.00215851,-0.00831736 0,-0.00353524 -0.000719504,-0.00629798 -0.00215851,-0.00828821 -0.00143901,-0.00199023 -0.00341334,-0.00298667 -0.00592299,-0.00298667 -0.00250833,0 -0.00448266,0.00098584 -0.00592166,0.00295619 -0.00143901,0.00197035 -0.00215851,0.00474369 -0.00215851,0.00831869 0,0.00357499 0.000719504,0.00635761 0.00215851,0.00834784 0.00143901,0.00199023 0.00341334,0.00298667 0.00592166,0.00298667zm0.0758832 0.0107859c-0.00191868,0 -0.00339346,-0.000579048 -0.004427,-0.00173715 -0.00103354,-0.0011581 -0.00155031,-0.00279321 -0.00155031,-0.00490535l0 -0.0263262 -0.00752763 0c-0.00324638,0 -0.00486957,-0.0017663 -0.00486957,-0.00530154 0,-0.00353392 0.00162319,-0.00530154 0.00486957,-0.00530154l0.0269542 0c0.00324771,0 0.0048709,0.00176762 0.0048709,0.00530154 0,0.00353524 -0.00162319,0.00530154 -0.0048709,0.00530154l-0.0075263 0 0 0.0263262c0,0.00211214 -0.00049822,0.00374725 -0.00149466,0.00490535 -0.00099644,0.0011581 -0.00247255,0.00173715 -0.00442833,0.00173715zm0.0624339 -0.000609525c-0.00199288,0 -0.00351404,-0.000579048 -0.00456613,-0.00173715 -0.00105209,-0.0011581 -0.00157681,-0.00283429 -0.00157681,-0.00502725l0 -0.0294334c0,-0.00219296 0.000524721,-0.00386916 0.00157681,-0.00502725 0.00105209,-0.0011581 0.00257325,-0.00173715 0.00456613,-0.00173715l0.0182645 0c0.0030622,0 0.00459396,0.00166559 0.00459396,0.0049981 0,0.00333118 -0.00153176,0.00499545 -0.00459396,0.00499545l-0.0130624 0 0 0.00615487 0.011789 0c0.00306352,0 0.00459396,0.00166559 0.00459396,0.0049981 0,0.00333118 -0.00153044,0.00499678 -0.00459396,0.00499678l-0.011789 0 0 0.00682403 0.0130624 0c0.0030622,0 0.00459396,0.00166559 0.00459396,0.00499678 0,0.00333251 -0.00153176,0.0049981 -0.00459396,0.0049981l-0.0182645 0z"/>
 </g>
</svg>
