<?xml version="1.0" encoding="UTF-8"?>
<!DOCTYPE svg PUBLIC "-//W3C//DTD SVG 1.1//EN" "http://www.w3.org/Graphics/SVG/1.1/DTD/svg11.dtd">
<!-- Creator: CorelDRAW -->
<svg xmlns="http://www.w3.org/2000/svg" xml:space="preserve" width="5548in" height="7180in" style="shape-rendering:geometricPrecision; text-rendering:geometricPrecision; image-rendering:optimizeQuality; fill-rule:evenodd; clip-rule:evenodd"
viewBox="0 0 885.082 364.489"
 xmlns:xlink="http://www.w3.org/1999/xlink">
 <defs>
  <style type="text/css">
   <![CDATA[
    .fil0 {fill:#312D2E}
    .fil1 {fill:#393637}
    .fil2 {fill:#F1F1F1}
   ]]>
  </style>
 </defs>
 <g id="Layer_x0020_1">
  <metadata id="CorelCorpID_0Corel-Layer"/>
  <path class="fil0" d="M596.106 221.324c0,24.7254 -22.3366,33.855 -45.9461,33.855l-10.8819 0c-25.462,0 -34.9133,-27.3237 -35.1073,-53.1569 -0.227235,-30.2161 -8.42038,-59.8239 -8.42038,-81.0534l0 -7.25473c0,-32.3164 9.96476,-64.0824 42.3189,-64.0824l2.41802 0c9.14048,0 14.7199,3.62719 19.3458,3.62719l12.0908 0c23.1184,0 43.7405,-36.273 58.0372,-36.273l7.25439 0c12.621,0 28.1864,18.0914 36.6681,24.9962 18.7046,15.2268 19.9456,11.2768 47.9692,11.2768 6.90822,0 24.9479,17.9396 45.3997,22.3102 19.6276,4.19443 42.9156,2.06774 54.691,13.0189 6.97403,6.48597 53.4654,73.9148 53.4654,83.1629 0,17.6952 -11.4735,66.7787 -19.3458,72.5463l-2.9688 -0.673823 14.2826 -62.925 2.79743 0.354734 -9.27654 9.95893 -0.529873 -1.23626 -4.30479 -19.2338c-3.39173,40.7587 -0.923678,115.585 -37.913,119.646 -24.0218,2.63668 -29.7589,-27.9873 -31.7379,-46.3676 -2.03449,-18.8931 -11.359,-60.4614 -11.359,-68.4417l0 -6.04555c0,-11.0615 8.00636,-14.3134 9.67275,-20.5547l-0.949041 -1.1067 -13.1395 11.2696 0.611787 -1.12007 -15.5534 -25.4918 -1.19718 0.730374c0.0318746,1.42545 14.9605,37.2378 17.4783,47.8136 3.52026,14.7878 7.91279,41.7911 7.91279,58.5876l0 14.5091c0,27.5606 -15.3379,43.5277 -43.5277,43.5277l-16.9275 0c-13.7856,0 -28.0778,-10.4621 -29.0182,-21.7639 7.92547,-9.1182 19.3455,-13.2513 19.3455,-31.4366l0 -4.83637c0,-50.3951 -19.3455,-80.3467 -19.3455,-136.629l-3.04043 -0.189877 -3.79788 14.2411 -15.2501 -16.0984 -0.884606 0.837994c19.4692,36.7946 29.0186,60.6224 29.0186,117.283 0,38.6478 -20.4614,55.6185 -59.2463,55.6185 0.562776,6.76153 14.5095,11.5866 14.5095,25.3914l0 14.5091c0,23.3127 -18.6261,31.4647 -43.5531,31.4116 -28.1638,-0.0603219 -37.8996,10.9069 -65.2662,10.9069l-2.41836 0c-32.0189,0 -37.4822,-20.0114 -37.4822,-51.9913l-1.12075 -0.639206 -5.42246 9.50858 -2.98525 0.0253626 -9.81053 -51.7359 3.62068 -0.686504 -2.91464 0.354391 -6.7581 11.7367c-9.70599,-14.4944 -14.8426,-30.6613 -5.82243,-49.3453 10.9638,-22.7098 5.82243,-28.8294 5.82243,-58.2651 0,-9.00818 4.033,-14.5091 13.2999,-14.5091 1.35861,5.83066 4.83637,19.6646 4.83637,25.391l0 13.3003c0,6.55829 -4.6249,1.62903 -9.2666,1.03918l29.1622 69.6738 4.68214 -1.51661 -6.38178 10.9847 20.4954 -2.79845 1.20918 0c9.14048,0 14.7199,3.62719 19.3458,3.62719l21.7639 0c7.72634,0 9.2008,-2.41802 16.9271,-2.41802l9.67309 0c20.7658,0 4.2993,3.1292 2.52426,-19.4408 -1.0971,-13.9484 -0.408201,-27.2576 -1.54198,-40.7879 -1.93201,-23.056 -16.7006,-55.9458 -16.7006,-67.9365l0 -20.5547c0,-17.7627 4.12348,-1.82919 -7.25473,1.20918l1.43847 -1.58928 -24.1202 -21.8321 -1.50051 1.65748c1.72089,6.44381 20.4981,23.6918 27.7628,53.2471 4.96696,20.2068 12.1377,44.62 12.1377,68.8721zm15.7183 -211.593l-26.166 27.0694 -1.64343 -1.67839c-0.28413,3.41367 0.0281045,4.83637 -3.62719,4.83637l-7.29963 -1.15777 -67.7953 2.63257 0.130583 3.36192 -0.0404431 9.48938 -7.16802 1.40625 -26.0577 87.4492 -2.31279 -1.25408 -10.5999 90.9972 -5.81283 -0.67725 -0.28413 14.5331 1.49331 20.531 3.62719 0 0.0983658 4.5872 8.36554 2.66719c0,8.33059 13.1289,21.5634 17.8333,31.9157 8.03857,17.6884 6.27142,3.8109 10.7897,33.3282 4.63279,30.2665 36.589,24.2299 72.9415,24.2299l0 -3.62719c19.5014,0 30.1136,-2.02592 53.3029,-2.31588 31.7067,-0.396548 32.653,-18.9541 38.5889,-19.448 0,-38.0422 5.55818,-32.6458 38.6913,-32.6458l0 7.25439c39.1784,0 56.1195,-7.44872 94.3331,-7.23143 30.1609,0.171369 60.4322,-12.0863 60.4322,-38.7143l4.45422 1.43676 25.5737 -79.2739 1.40865 0.45447 -0.614872 -37.8311 -10.6485 -7.66842 -23.3459 -25.3321 0.781785 -1.41722 -13.6886 -21.2 -5.80598 -10.5848 -2.29669 1.2599c0,-21.9637 -33.9561,-17.6794 -55.9691,-20.2044 -32.1372,-3.6858 -28.0432,-24.5325 -55.2682,-24.5325l-0.446587 3.32901 -37.0359 -5.74737c-0.941844,-8.6106 -20.8772,-31.4366 -30.2274,-31.4366l-30.2274 0c-4.14781,0 -4.70922,0.816401 -8.46391,1.20918z"/>
  <path class="fil0" d="M303.53 116.09l-7.30032 -8.42141c0.15149,6.79409 2.41836,6.72897 2.41836,13.3003l0 14.5091 -3.43903 -0.567574 -21.721 131.588 -2.63017 -0.232719 18.1175 -1.41379 4.83637 0c7.72634,0 9.2008,2.41836 16.9275,2.41836l18.1363 0c5.54447,0 6.85647,-3.62754 14.5095,-3.62754l3.68135 -0.483603 26.1735 2.37312 -7.18961 -11.3676 5.07012 1.78601 29.0878 -68.5092 -9.62031 1.53821 -1.35039 -0.481204 5.85088 -42.3456 1.49708 0.207014c9.50618,0.791039 13.2999,10.2784 13.2999,20.5547l0 7.25473c0,5.28193 -2.41802,4.39081 -2.41802,9.67275l0 9.67275c0,17.1105 12.0911,29.7935 12.0911,39.9005l0 2.41836c0,11.3042 -4.83672,28.2162 -11.627,33.0228l-5.30044 -11.2589 -3.62754 0c0.47195,5.6682 2.41836,5.97906 2.41836,12.0908l0 3.62754c0,10.2016 -7.18104,29.2784 -11.4149,36.5873l-5.57772 -9.45305 -1.14406 0.675194c0,28.366 -6.27142,51.9913 -32.6458,51.9913l-10.8819 0c-17.8878,0 -38.9419,-10.2372 -62.0328,-11.7227 -25.1905,-1.62012 -44.3681,-5.94959 -44.3681,-30.5959l0 -14.5095c0,-12.4037 13.6016,-21.9921 14.5091,-25.391 -32.5553,0 -59.246,-15.9798 -59.246,-47.1549l0 -19.3458c0,-22.5734 3.68306,-41.9593 8.25724,-59.4527 5.88686,-22.5138 18.1353,-38.3229 20.7613,-48.1574l-1.07414 -0.932247 -14.9201 16.3034 -5.08349 -13.6584 -1.89534 0.705697c0,52.4194 -19.3458,84.3947 -19.3458,130.583l0 12.0908c0,16.6787 11.5962,21.3121 19.3458,30.2278 -2.25761,9.69091 -16.4319,21.7639 -29.0186,21.7639l-9.67275 0c-41.2081,0 -51.9916,-14.5194 -51.9916,-55.6188 0,-16.5251 4.32364,-44.135 7.54914,-58.9519 4.46005,-20.4902 14.4162,-35.1615 17.8422,-49.8673l-1.31097 -0.805777 -14.4073 24.988 -2.90539 -0.834909 -10.3949 -7.629c3.08635,11.5585 12.1987,11.4954 6.9257,33.4022 -2.68706,11.1637 -5.20173,23.4501 -7.06246,36.5893 -2.87283,20.288 -6.49797,59.927 -19.7043,68.6288 -24.1449,15.9092 -42.31,-16.716 -45.8652,-35.4319 -3.73584,-19.667 -6.84002,-59.7392 -6.84002,-81.4246l-2.46874 -0.00685476 -2.60035 19.3212 -1.13446 1.16154 -9.16789 -11.0896 2.89819 -0.449672 14.5979 64.3367 -2.12463 0.482232c-6.91542,-2.50336 -20.5547,-54.2568 -20.5547,-68.9191l0 -6.04555c0,-6.00579 47.986,-75.2008 53.5483,-80.662 12.5521,-12.3238 33.821,-9.06781 54.5015,-13.2084 21.6295,-4.33049 39.9523,-22.2032 45.5063,-22.2032l7.25473 0c55.5451,0 55.6377,-37.4822 79.8007,-37.4822l7.25473 0c13.9162,0 35.0658,36.273 55.6188,36.273l12.0908 0c24.5239,0 33.5657,-11.2373 52.4283,8.02692 11.0745,11.31 15.2817,31.6402 15.2817,53.6374l0 1.20884c0,26.2136 -8.37548,51.1344 -8.43718,83.4549 -0.0531244,27.7268 -8.37034,56.8013 -35.0905,56.8013l-13.3003 0c-17.3065,0 -44.7365,-11.7504 -44.7365,-29.0186l0 -12.0911c0,-16.1001 9.81464,-48.8569 13.1224,-64.2599 6.22823,-29.0035 24.297,-41.3133 26.7778,-50.6049l-1.52141 -1.63657 -23.824 22.1491zm-71.3827 -113.613l0 3.62754 -1.92756 -2.22094 -35.8343 31.1011 -0.929505 -1.07071c-0.347879,15.6203 -58.0368,-9.50515 -58.0224,25.4757l-81.0243 14.4245 -0.97269 5.68396 -12.2813 33.0245 -1.51319 -2.06123 -18.1507 13.023 -0.937045 -1.30617c0,18.3755 -20.5547,19.3212 -20.5547,35.0641l0.329714 15.7183 -0.329714 9.67275 0 14.5095c0,0.116874 12.2779,28.8273 13.2999,41.1093l2.9424 -0.985714 16.5213 49.3104 0.60596 -1.54746 24.2134 11.0458 0.147377 4.42577 59.3978 3.35815 0.154575 -2.73333c18.9441,1.07106 17.8025,6.04521 31.4366,6.04521l4.8494 0.293041 39.8875 -1.50188c0.28413,-3.41367 -0.0281045,-4.83637 3.62719,-4.83637l13.3003 0c6.11547,0 -0.300238,4.5872 10.6321,4.85831l1.45903 19.3236 3.62719 0 -2.69837 3.79514 28.2762 19.8887 77.5136 8.47556 -0.317718 2.9047c31.3835,0 39.3343,6.12027 54.8141,-11.6867 12.5953,-14.4889 3.8085,-42.723 22.5686,-42.723l-2.01598 -1.13378 25.8932 -46.042 -2.11332 -1.18827 3.62719 0 1.22872 -0.17274 -18.1562 -125.574 -8.46357 0c0,-19.2444 -13.8963,-66.1014 -18.8067,-79.1279 -13.847,-36.7316 -76.4518,-4.77502 -77.9214,-22.437l-1.8902 2.46634 -23.7627 -18.2117 -0.947327 1.23626c-1.99336,-23.9526 -37.6271,-13.5933 -50.7824,-13.3003z"/>
  <path class="fil1" d="M597.297 319.262c0,-23.0525 25.1049,-26.6002 48.3641,-26.6002 1.1588,4.3394 7.25473,9.9723 7.25473,16.9275l0 12.0911c0,11.3234 -9.83212,15.7183 -21.7639,15.7183l-1.23626 0.309835 -19.3188 -1.51901c-4.73629,-3.1717 -13.2999,-9.39067 -13.2999,-16.9275zm33.855 22.973c15.3437,0 29.0182,-9.21588 29.0182,-22.973l0 -1.20918c0,-9.57952 -5.65586,-31.4366 -13.2999,-31.4366l-4.83637 0c-20.2328,0 -48.3641,6.61998 -48.3641,25.3914l0 8.46357c0,9.70325 10.0881,21.7639 19.3455,21.7639l18.1367 0z"/>
  <path class="fil2" d="M249.075 304.753l0 14.5091c0,7.47683 8.52218,13.3003 18.1367,13.3003l20.5547 0c8.41284,0 16.9275,-9.37491 16.9275,-18.1367 0,-12.3893 -8.20274,-17.9403 -15.7454,-22.7242l-28.9915 -2.66684 -1.20918 0c-3.98056,0 -9.67275,11.6887 -9.67275,15.7183z"/>
  <path class="fil1" d="M249.075 304.753c0,-4.02957 5.69219,-15.7183 9.67275,-15.7183l1.20918 0 28.9915 2.66684c7.54263,4.78393 15.7454,10.3349 15.7454,22.7242 0,8.76175 -8.51464,18.1367 -16.9275,18.1367l-20.5547 0c-9.61448,0 -18.1367,-5.82346 -18.1367,-13.3003l0 -14.5091zm-7.25473 9.67275c0,12.5843 11.7415,22.973 25.3914,22.973l21.7639 0c8.55405,0 21.3402,-12.5764 20.5547,-19.3458l-1.44361 -14.482c-11.3974,-17.3977 -25.8702,-21.7909 -54.1752,-21.7909 -7.60432,7.21326 -12.0911,17.7973 -12.0911,32.6458z"/>
  <path class="fil2" d="M597.297 319.262c0,7.5368 8.56365,13.7558 13.2999,16.9275l19.3188 1.51901 1.23626 -0.309835c11.9317,0 21.7639,-4.39493 21.7639,-15.7183l0 -12.0911c0,-6.95518 -6.09593,-12.5881 -7.25473,-16.9275 -23.2592,0 -48.3641,3.54768 -48.3641,26.6002z"/>
 </g>
</svg>
