<?xml version="1.0" encoding="UTF-8"?>
<!DOCTYPE svg PUBLIC "-//W3C//DTD SVG 1.1//EN" "http://www.w3.org/Graphics/SVG/1.1/DTD/svg11.dtd">
<!-- Creator: CorelDRAW -->
<svg xmlns="http://www.w3.org/2000/svg" xml:space="preserve" width="25in" height="39in" style="shape-rendering:geometricPrecision; text-rendering:geometricPrecision; image-rendering:optimizeQuality; fill-rule:evenodd; clip-rule:evenodd"
viewBox="0 0 0.294312 0.287505"
 xmlns:xlink="http://www.w3.org/1999/xlink">
 <defs>
  <style type="text/css">
   <![CDATA[
    .fil0 {fill:#141516}
   ]]>
  </style>
 </defs>
 <g id="Layer_x0020_1">
  <metadata id="CorelCorpID_0Corel-Layer"/>
  <path class="fil0" d="M0.205989 0.0800392c0.00132162,-0.00114921 0.00266829,-0.00228138 0.00266829,-0.00474519 0,-0.00223627 -0.00132162,-0.00384306 -0.00266829,-0.00474519 -0.00402599,0.00213102 -0.00364509,0.00704862 0,0.00949037zm0.0830272 0.122276l-0.00177869 0.00319253 -0.0225797 -0.0114595 0.00177869 -0.00319253 0.0225797 0.0114595zm0.00529599 0.00268784l-0.00177869 0.00319303 -0.00334539 -0.001698 0.00177919 -0.00319253 0.00334489 0.0016975zm-0.0146706 0.0106932l-0.00222675 0.0029254 -0.0206888 -0.0143473 0.00222675 -0.0029254 0.0206888 0.0143473zm0.00485344 0.00336543l-0.00222725 0.0029254 -0.00306523 -0.00212551 0.00222725 -0.0029254 0.00306523 0.00212551zm-0.0362184 0.0165099c0.0024162,-0.000389919 0.00455825,5.91394e-005 0.00642565,0.00134868 0.000556312,0.000382402 0.00104747,0.000824444 0.00147347,0.00132613 0.000425503,0.000501683 0.00077633,0.00105248 0.00105248,0.00165139 0.000481134,0.00106852 0.000709673,0.00219317 0.000686619,0.00337496 -2.30544e-005,0.00118078 -0.000310231,0.00233551 -0.000862533,0.00346367 -0.000551801,0.00112816 -0.00133465,0.002121 -0.00234804,0.00297852l-0.0050474 0.0039012 -2.85673e-005 -3.35792e-005c-7.41749e-005,9.47233e-005 -0.000169901,0.000186941 -0.000286676,0.000277153 -0.00158925,0.0012284 -0.00337395,0.00190599 -0.00535513,0.00203379 -0.00198067,0.000127801 -0.00375185,-0.000294695 -0.00531202,-0.00126749 -0.000641011,-0.000390922 -0.00121937,-0.000867044 -0.00173459,-0.00142887l0.00529248 -0.00409115c0.000743753,0.000238061 0.00164989,0.000211499 0.00271891,-7.91867e-005 0.00106852,-0.000290685 0.00209394,-0.000814921 0.00307525,-0.00157371l3.50827e-005 -2.70638e-005c2.35555e-005,-1.80425e-005 5.81371e-005,-4.51063e-005 0.000105248,-8.11914e-005 4.66099e-005,-3.60851e-005 8.16926e-005,-6.36501e-005 0.000105248,-8.11914e-005 0.000705162,-0.000582373 0.00129806,-0.00120634 0.00177719,-0.00187292 0.000479631,-0.000665569 0.000802392,-0.00131209 0.00096728,-0.00193807 0.000164889,-0.000626477 0.00015687,-0.00118329 -2.40567e-005,-0.00167044 -8.16926e-005,-0.000233049 -0.000197967,-0.000438534 -0.000349324,-0.000616955 -0.000151357,-0.000178421 -0.000337796,-0.000329777 -0.000559319,-0.00045407 -0.000523234,-0.000297201 -0.00118981,-0.000409967 -0.00199921,-0.000338298 -0.000809408,7.21701e-005 -0.00164287,0.00030973 -0.00249939,0.000713683 -0.00443145,0.00179974 -0.00769715,0.0030131 -0.0097966,0.00363908 -0.0014404,0.000263622 -0.0028427,0.000183934 -0.00420692,-0.000238562 -0.000827952,-0.000246581 -0.00160027,-0.000609437 -0.00231746,-0.00108957 -0.000532756,-0.000400444 -0.00101239,-0.000851507 -0.00143839,-0.00135319 -0.000425503,-0.000501683 -0.000787857,-0.00104346 -0.00108756,-0.00162433 -0.000761295,-0.00162734 -0.000908141,-0.0033509 -0.000440539,-0.00517119 0.000467602,-0.00182029 0.00145593,-0.00336894 0.00296499,-0.00464545l0.0050474 -0.0039012c9.32198e-005,-7.26713e-005 0.000198468,-0.000153863 0.000315243,-0.000244075 0.00105148,-0.000812916 0.00221572,-0.00138978 0.00349374,-0.00173108 0.00127751,-0.000340803 0.00253748,-0.000429011 0.00378091,-0.00026312 0.00124293,0.00016539 0.00238512,0.000565333 0.00342708,0.00120083 0.000579867,0.000363858 0.00108957,0.000782344 0.0015291,0.00125546l-0.00543281 0.0041989c-0.000752274,-0.00015687 -0.00162633,-8.16926e-005 -0.00262218,0.000226534 -0.000996349,0.000308227 -0.0019501,0.00081442 -0.00286125,0.00151908l-3.50827e-005 2.70638e-005c-2.30544e-005,1.80425e-005 -5.86382e-005,4.51063e-005 -0.000105248,8.11914e-005 -4.66099e-005,3.60851e-005 -8.16926e-005,6.31489e-005 -0.000104747,8.11914e-005 -0.00105599,0.000853011 -0.00183833,0.00179022 -0.00234603,0.00281013 -0.000507697,0.00102041 -0.000620964,0.00190198 -0.0003393,0.00264423 8.16926e-005,0.000232548 0.000197466,0.000438534 0.000348822,0.000616955 0.000151858,0.000178421 0.000338298,0.000329777 0.000559319,0.000453569 0.000160378,9.77304e-005 0.000344312,0.000177418 0.000550799,0.000239064 0.000310733,9.27186e-005 0.00147949,-0.000183432 0.00350677,-0.000826448 0.00202678,-0.000643517 0.00415229,-0.00135369 0.00637503,-0.00213052 0.00222374,-0.000776831 0.00353233,-0.00120634 0.00392626,-0.00128954zm-0.0258164 0.0159932c0.000176917,0.000268132 0.000333787,0.00053025 0.000470609,0.000785853l0.0071253 0.0133485 -0.00546538 0.00265777 -0.00145343 -0.00272342c-0.000291186,0.000592898 -0.000622969,0.00117276 -0.000994845,0.0017401 -0.000120284,0.000154865 -0.000182931,0.00024157 -0.000189447,0.000261116 -7.01654e-006,1.90449e-005 -3.00709e-005,5.513e-005 -6.96642e-005,0.000106752l-4.05957e-005 1.95461e-005c-7.96879e-005,0.000102742 -0.000159376,0.000206487 -0.000239565,0.000309229l-1.95461e-005 5.81371e-005c-6.71583e-005,6.46524e-005 -0.00013983,0.00014835 -0.000220019,0.000252094 -5.31252e-005,9.02127e-005 -0.00010625,0.00014835 -0.000159877,0.000174411 -2.65626e-005,7.7182e-005 -8.62032e-005,0.000154364 -0.000179924,0.000232047 0,0 -5.31252e-005,5.86382e-005 -0.000159877,0.000174912 -5.31252e-005,9.02127e-005 -9.27186e-005,0.000141834 -0.000119782,0.000154865 -6.66571e-005,6.46524e-005 -0.000153362,0.000154865 -0.000260113,0.000271139 0,0 -1.6539e-005,1.6539e-005 -4.9617e-005,4.86146e-005 -3.35792e-005,3.20756e-005 -6.36501e-005,5.46288e-005 -9.07139e-005,6.76595e-005 1.40331e-005,2.60614e-005 -6.01418e-006,5.16217e-005 -5.96406e-005,7.76831e-005l-6.01418e-005 7.76831e-005c-0.000106752,0.000116274 -0.00018644,0.000187442 -0.000240066,0.000213503 -0.00116124,0.00111212 -0.00247834,0.00202628 -0.00395182,0.00274297 -0.00225031,0.00109458 -0.00462641,0.00163836 -0.0071278,0.00163034 -0.00313339,1.00236e-005 -0.00601067,-0.000796879 -0.00863235,-0.00242071 -0.000283669,-0.000152359 -0.000567338,-0.000336293 -0.000851507,-0.000552302 -9.47233e-005,-5.06193e-005 -0.000175414,-0.000107754 -0.000243574,-0.000171404 -0.000161882,-0.000114771 -0.000337796,-0.0002546 -0.000527744,-0.00041999 -0.000107754,-7.61796e-005 -0.000223026,-0.00016539 -0.000344813,-0.00026713 -8.11914e-005,-8.92103e-005 -0.000189948,-0.000197466 -0.000325267,-0.000324766 0,0 -2.00473e-005,-6.01418e-006 -6.0643e-005,-1.90449e-005 -6.81607e-005,-6.36501e-005 -0.000169399,-0.000158875 -0.000304718,-0.000286175 -1.40331e-005,-2.55603e-005 -2.7565e-005,-5.11205e-005 -4.10969e-005,-7.7182e-005 -0.000121787,-0.000101239 -0.000230042,-0.000209494 -0.000325267,-0.000324766 -0.000149352,-0.00015286 -0.00027164,-0.000286676 -0.000366364,-0.000401446 -6.76595e-005,-6.36501e-005 -0.000128804,-0.000114771 -0.000182931,-0.00015286 -2.70638e-005,-5.11205e-005 -8.16926e-005,-0.000121286 -0.000162884,-0.000210496 -8.11914e-005,-8.92103e-005 -0.00013582,-0.000159376 -0.000162884,-0.000210496 -0.000108756,-0.000140832 -0.000210496,-0.000268633 -0.000305721,-0.000382903 -9.47233e-005,-0.000114771 -0.000149352,-0.000185437 -0.000162884,-0.000210496 0,0 -1.70402e-005,-3.20756e-005 -5.11205e-005,-9.62269e-005 -3.40803e-005,-6.41512e-005 -5.81371e-005,-0.000108756 -7.1669e-005,-0.000134317 -8.16926e-005,-8.92103e-005 -0.000136321,-0.000159376 -0.000163385,-0.000210496 -4.05957e-005,-7.66808e-005 -0.000108756,-0.000172406 -0.000203981,-0.000287177 -0.000217513,-0.000344813 -0.000422496,-0.000696642 -0.000613446,-0.00105449 -0.00129706,-0.00242973 -0.0018649,-0.00497974 -0.00170452,-0.00765054 0.000160378,-0.0026708 0.000997852,-0.0051316 0.00251292,-0.0073824 0.00151507,-0.00225031 0.00354536,-0.00399492 0.00609036,-0.00523284 5.36264e-005,-2.60614e-005 0.000147849,-7.11678e-005 0.000281163,-0.000136823 8.06902e-005,-3.90922e-005 0.000160879,-7.76831e-005 0.00024157,-0.000117276 2.65626e-005,-1.25295e-005 4.66099e-005,-2.25532e-005 6.01418e-005,-2.90685e-005 1.30307e-005,-6.51536e-006 3.35792e-005,-1.60378e-005 6.01418e-005,-2.95697e-005 9.42221e-005,-1.35319e-005 0.000167896,-3.3078e-005 0.000221021,-5.91394e-005 0.000107754,-5.21229e-005 0.000187943,-9.1215e-005 0.00024157,-0.000117276 0.000107253,-5.21229e-005 0.000207489,-8.46997e-005 0.000301711,-9.87328e-005 0.000107253,-5.21229e-005 0.000234553,-9.77304e-005 0.000382402,-0.000137324 5.31252e-005,-2.60614e-005 0.000133815,-6.51536e-005 0.000241068,-0.000117276 4.00945e-005,1.25295e-005 0.0001273,-1.35319e-005 0.000261116,-7.86855e-005 9.42221e-005,-1.35319e-005 0.000201976,-3.35792e-005 0.000322761,-6.0643e-005 5.36264e-005,-2.60614e-005 0.000140331,-5.21229e-005 0.000261617,-7.81843e-005 0.000174411,-5.31252e-005 0.00033529,-9.92339e-005 0.000482638,-0.000138827 0.000147849,-3.95933e-005 0.000268633,-6.56548e-005 0.000362354,-7.91867e-005 2.70638e-005,-1.30307e-005 4.05957e-005,-1.95461e-005 4.05957e-005,-1.95461e-005 9.3721e-005,-1.35319e-005 0.000187943,-2.70638e-005 0.000281664,-4.10969e-005 0.000362855,-7.91867e-005 0.000752274,-0.00013983 0.00116876,-0.000181428 2.65626e-005,-1.30307e-005 7.01654e-005,-2.60614e-005 0.000130808,-3.95933e-005 6.01418e-005,-1.30307e-005 9.72292e-005,-7.01654e-006 0.000111262,1.85437e-005 0.000953749,-0.000109258 0.00192203,-0.000129305 0.00290385,-5.96406e-005 0.000107754,1.25295e-005 0.000215508,2.45579e-005 0.000323262,3.60851e-005 0,0 1.30307e-005,-6.51536e-006 4.00945e-005,-1.95461e-005 0.000107754,1.25295e-005 0.000235555,3.05721e-005 0.000383905,5.513e-005 0.000147849,2.45579e-005 0.00027565,4.31016e-005 0.000383404,5.513e-005 0.000215508,2.40567e-005 0.000417484,5.46288e-005 0.000605929,9.17162e-005 6.71583e-005,-5.01182e-007 0.000141333,1.20284e-005 0.000222023,3.70874e-005 0.00030973,7.46761e-005 0.000619962,0.000149352 0.000929692,0.000224028 8.11914e-005,2.55603e-005 0.000161882,5.01182e-005 0.000242572,7.56784e-005 0.000161882,5.01182e-005 0.000303716,9.3721e-005 0.000424501,0.00013131 6.76595e-005,-5.01182e-007 0.000141333,1.20284e-005 0.000222525,3.70874e-005 0.000283168,8.77068e-005 0.000572851,0.000188444 0.00086955,0.000301711 4.05957e-005,1.25295e-005 0.000101239,3.15744e-005 0.00018243,5.66335e-005 4.00945e-005,1.25295e-005 6.36501e-005,2.50591e-005 7.06666e-005,3.75886e-005 6.51536e-006,1.30307e-005 3.00709e-005,2.60614e-005 7.06666e-005,3.80898e-005 4.05957e-005,1.25295e-005 0.000128302,5.06193e-005 0.00026312,0.000113768 8.11914e-005,2.50591e-005 0.000168397,6.31489e-005 0.00026312,0.000113768 0.000270137,0.000126298 0.000540274,0.000252596 0.000809909,0.000379394 0.000108255,7.56784e-005 0.000202477,0.000126298 0.000283669,0.000151357 0.000283669,0.000151858 0.000546789,0.000297702 0.000790363,0.000437532 0.000108255,7.61796e-005 0.000188945,0.000133314 0.000243073,0.000171404 0.000148851,8.87091e-005 0.000230042,0.000145844 0.000243574,0.000171404 9.47233e-005,5.06193e-005 0.000175414,0.000107754 0.000243574,0.000171404l-0.00659054 0.00320506c-0.00014835,-2.45579e-005 -0.000283168,-5.56312e-005 -0.000404454,-9.32198e-005 -2.65626e-005,1.30307e-005 -6.0643e-005,1.35319e-005 -0.000100737,1.00236e-006 -4.05957e-005,-1.25295e-005 -8.06902e-005,-2.50591e-005 -0.000121286,-3.75886e-005 -0.00022904,-5.01182e-005 -0.000471612,-9.27186e-005 -0.000727214,-0.000129305 -4.05957e-005,-1.30307e-005 -9.42221e-005,-1.90449e-005 -0.00016138,-1.85437e-005 -0.000174912,-1.15272e-005 -0.000336794,-2.95697e-005 -0.000484643,-5.41276e-005 0,0 -6.76595e-005,5.01182e-007 -0.000201976,1.00236e-006 -0.000282666,-2.30544e-005 -0.000571848,-2.7565e-005 -0.000867545,-1.25295e-005 -6.66571e-005,5.01182e-007 -0.000167896,1.00236e-006 -0.000302212,2.00473e-006 -0.000120785,2.65626e-005 -0.000232047,4.05957e-005 -0.000332785,4.10969e-005 -0.000100737,5.01182e-007 -0.000197967,8.01891e-006 -0.000292189,2.15508e-005 -2.70638e-005,1.30307e-005 -4.00945e-005,1.95461e-005 -4.00945e-005,1.95461e-005 -6.71583e-005,5.01182e-007 -0.000127801,1.35319e-005 -0.000181428,3.95933e-005 -4.00945e-005,-1.25295e-005 -7.36737e-005,-1.20284e-005 -0.000100737,5.01182e-007 -2.65626e-005,1.30307e-005 -4.00945e-005,2.00473e-005 -4.00945e-005,2.00473e-005 -9.3721e-005,1.35319e-005 -0.000188444,2.70638e-005 -0.000282165,4.05957e-005 -6.71583e-005,0 -0.00016138,1.40331e-005 -0.000282165,4.05957e-005 -0.000321759,9.17162e-005 -0.000657049,0.000190449 -0.00100587,0.000295697 -2.70638e-005,1.30307e-005 -0.000100737,3.25768e-005 -0.000221522,5.91394e-005 -8.01891e-005,3.90922e-005 -0.00017391,8.46997e-005 -0.000281163,0.000137324 -9.42221e-005,1.30307e-005 -0.00016138,2.95697e-005 -0.000201475,4.9617e-005 -4.00945e-005,1.90449e-005 -0.000114269,5.513e-005 -0.000221021,0.000107253 -8.06902e-005,3.90922e-005 -0.000174411,8.46997e-005 -0.000281664,0.000136823 -0.00128553,0.000625475 -0.00236157,0.00147047 -0.00322711,0.00253548 -0.000865541,0.00106551 -0.00146145,0.00224128 -0.00178721,0.00352681 -5.26241e-005,0.000154364 -9.17162e-005,0.000302714 -0.000117778,0.000444047 -5.16217e-005,0.000218515 -9.02127e-005,0.000430515 -0.000115773,0.000635999 -2.55603e-005,0.000141333 -4.46052e-005,0.000295196 -5.66335e-005,0.000462591 -1.15272e-005,0.000295196 -2.2052e-005,0.000590392 -3.35792e-005,0.000885588 1.50354e-005,0.000218014 3.70874e-005,0.00044956 6.6156e-005,0.000692633 1.50354e-005,0.000218515 5.06193e-005,0.000442543 0.00010625,0.000673087 0.000154865,0.000923176 0.00045808,0.00180676 0.000908642,0.00265025 2.70638e-005,5.16217e-005 7.51772e-005,0.000140832 0.000143338,0.000268633 4.05957e-005,7.66808e-005 6.81607e-005,0.000127801 8.16926e-005,0.000153362 0.000190449,0.000294194 0.000387915,0.00056834 0.000591394,0.000823942 1.40331e-005,2.55603e-005 4.76122e-005,7.31725e-005 0.000102241,0.000143338 5.41276e-005,7.06666e-005 0.000105248,0.000134317 0.00015286,0.000191451 4.71111e-005,5.71347e-005 0.000105248,0.000118279 0.000172908,0.000181929 2.70638e-005,5.11205e-005 7.46761e-005,0.000108255 0.000142336,0.000171905 2.7565e-005,5.11205e-005 6.81607e-005,9.62269e-005 0.000122288,0.000134317 1.35319e-005,2.50591e-005 5.41276e-005,7.01654e-005 0.000122288,0.000133815 6.71583e-005,6.36501e-005 0.000118279,0.000111262 0.000152359,0.000143338 3.35792e-005,3.15744e-005 5.76359e-005,6.01418e-005 7.11678e-005,8.5702e-005 6.76595e-005,6.41512e-005 0.000131811,0.000121286 0.000192955,0.000171905 6.0643e-005,5.06193e-005 0.000118279,9.57257e-005 0.000172406,0.000133815 6.76595e-005,6.36501e-005 0.000128804,0.000114269 0.000182931,0.000152359 5.36264e-005,3.8591e-005 0.000114771,8.92103e-005 0.00018243,0.00015286 6.81607e-005,6.36501e-005 0.000128804,0.000114771 0.000182931,0.00015286 0.000202477,0.000126799 0.000405456,0.000254099 0.000607933,0.000380397 1.40331e-005,2.60614e-005 6.76595e-005,6.36501e-005 0.000162383,0.000114269 0.000188945,0.00010174 0.000384907,0.000215508 0.000587385,0.000342307 8.11914e-005,2.55603e-005 0.000162383,5.01182e-005 0.000243073,7.56784e-005 5.41276e-005,3.80898e-005 0.000121286,6.96642e-005 0.000202477,9.47233e-005 5.41276e-005,3.80898e-005 0.000121286,6.96642e-005 0.000202477,9.47233e-005 0.000175414,7.56784e-005 0.000370874,0.000157872 0.000586884,0.00024608 0.00264273,0.000904633 0.00522331,0.000744756 0.00774175,-0.000479631 0.0015271,-0.000742751 0.00276953,-0.00179824 0.00372679,-0.00316546 5.26241e-005,-9.02127e-005 0.000105749,-0.000180425 0.000159376,-0.000270137 5.26241e-005,-9.07139e-005 9.92339e-005,-0.000161882 0.000138827,-0.000213002 9.32198e-005,-0.000142336 0.000192955,-0.000303215 0.000299205,-0.00048364 2.60614e-005,-7.7182e-005 4.61087e-005,-0.000135319 5.91394e-005,-0.00017391 0.000132312,-0.000257607 0.000258109,-0.000527744 0.000376889,-0.000811413 0.00027565,-0.000810411 0.000457579,-0.00163936 0.000544784,-0.00248736l-0.00743453 0.00361602 -0.00276402 -0.00517871 0.0140657 -0.0067439zm-0.0399031 0.00971891c0.00147648,0.00192654 0.00241219,0.00408062 0.00280762,0.00646173 0.00025861,0.00155918 0.000258109,0.00311384 -2.50591e-006,0.004664 -4.66099e-005,0.000268633 -9.57257e-005,0.000523234 -0.000146846,0.0007633 -3.60851e-005,0.000150856 -6.21465e-005,0.000271139 -7.76831e-005,0.00036035 -1.05248e-005,0.000117778 -4.91158e-005,0.0002546 -0.000114269,0.000409967 -1.1026e-005,0.000117778 -3.70874e-005,0.00023756 -7.76831e-005,0.000359848 -2.45579e-005,3.3078e-005 -3.60851e-005,5.66335e-005 -3.40803e-005,7.11678e-005 2.50591e-006,1.40331e-005 3.50827e-006,2.05484e-005 3.50827e-006,2.05484e-005 -8.5702e-005,0.00021651 -0.000158875,0.000416482 -0.000219518,0.000600416 -0.000182931,0.000550297 -0.000412472,0.00109358 -0.000688623,0.00162934 0,0 -1.80425e-005,3.15744e-005 -5.26241e-005,9.52245e-005 -3.55839e-005,6.36501e-005 -6.56548e-005,0.000111262 -9.02127e-005,0.00014434 -6.56548e-005,0.000155366 -0.000158875,0.000329276 -0.000279158,0.00052173 -9.52245e-005,0.000159877 -0.000202979,0.000335792 -0.000323262,0.000528245 -2.50591e-005,3.3078e-005 -7.26713e-005,0.000112265 -0.000142837,0.000239565 -2.50591e-005,3.25768e-005 -5.61323e-005,7.36737e-005 -9.3721e-005,0.000123291 -3.75886e-005,4.91158e-005 -6.86619e-005,9.02127e-005 -9.3721e-005,0.000123291 -0.000145343,0.000225031 -0.00031825,0.000469106 -0.000518222,0.000731725 0,0 -2.45579e-005,3.25768e-005 -7.46761e-005,9.87328e-005l-7.46761e-005 9.82316e-005 -4.46052e-005 6.51536e-006c-4.56075e-005,9.42221e-005 -0.000107754,0.000176416 -0.000187943,0.000246581 -0.000124794,0.000163886 -0.000252094,0.000314241 -0.0003819,0.00044956 -7.96879e-005,7.06666e-005 -0.000132312,0.000121787 -0.00015687,0.000154865 -7.51772e-005,9.87328e-005 -0.000152359,0.000182931 -0.000232047,0.000253097 -2.50591e-005,3.25768e-005 -0.000104747,0.000103243 -0.000239064,0.000210496 -0.000493664,0.000510203 -0.00102642,0.000968784 -0.00159827,0.00137474 -5.513e-005,3.70874e-005 -0.000122288,9.1215e-005 -0.000201976,0.00016138 -0.000681106,0.000480633 -0.0014018,0.000909143 -0.00216109,0.00128553 -0.000253097,0.000125295 -0.000436529,0.000211499 -0.000550799,0.000257607 -0.000114269,4.61087e-005 -0.000198468,8.8208e-005 -0.000253097,0.000125295 -0.000312737,0.000134317 -0.000612444,0.000252596 -0.000900122,0.000353834 -5.96406e-005,9.02127e-006 -0.000116274,3.25768e-005 -0.000171404,6.96642e-005 -0.000172908,5.513e-005 -0.000331782,0.000108255 -0.000475621,0.000159376l-0.00026713 4.00945e-005c-5.46288e-005,3.75886e-005 -0.00015687,6.71583e-005 -0.00030522,8.97115e-005 -0.000173409,5.56312e-005 -0.000319253,9.22174e-005 -0.000438033,0.000109759 -8.46997e-005,4.20993e-005 -0.000171404,6.96642e-005 -0.000260614,8.31961e-005 -8.87091e-005,1.35319e-005 -0.000163385,2.45579e-005 -0.000222525,3.35792e-005 -5.96406e-005,9.02127e-006 -0.000160879,3.90922e-005 -0.000304718,8.97115e-005l-4.46052e-005 6.51536e-006 -4.46052e-005 7.01654e-006c-0.00014835,2.25532e-005 -0.00023756,3.60851e-005 -0.00026713,4.00945e-005 -0.00014835,2.25532e-005 -0.000252596,3.8591e-005 -0.000311735,4.76122e-005 -0.000415981,6.26477e-005 -0.000833966,0.000111262 -0.00125446,0.000145844 -5.96406e-005,9.02127e-006 -0.000180425,1.25295e-005 -0.000363357,1.15272e-005 -5.96406e-005,8.52009e-006 -0.000150856,8.01891e-006 -0.000274647,-2.50591e-006 0,0 -8.92103e-005,1.35319e-005 -0.00026713,4.05957e-005 -0.000182931,-1.50354e-006 -0.000350827,-5.01182e-006 -0.000504189,-1.1026e-005 -5.91394e-005,9.02127e-006 -0.000150856,8.52009e-006 -0.000274647,-2.00473e-006 0,0 -1.45343e-005,2.00473e-006 -4.4104e-005,6.51536e-006 -0.000182931,-1.50354e-006 -0.000350827,-5.01182e-006 -0.000504189,-1.05248e-005 -9.3721e-005,-1.55366e-005 -0.000172908,-3.20756e-005 -0.000237059,-5.16217e-005 -0.000182931,-1.50354e-006 -0.000352832,-1.90449e-005 -0.000511205,-5.36264e-005 -0.000340803,-3.55839e-005 -0.000681607,-7.11678e-005 -0.00102241,-0.000106752 -3.40803e-005,-2.40567e-005 -5.11205e-005,-3.60851e-005 -5.11205e-005,-3.60851e-005 -0.000217513,-2.50591e-005 -0.000372879,-4.51063e-005 -0.000467101,-6.01418e-005l-7.01654e-006 -4.26004e-005c-0.000187442,-2.95697e-005 -0.000345314,-6.41512e-005 -0.000473617,-0.000102742 0,0 -1.50354e-005,2.50591e-006 -4.46052e-005,6.51536e-006 -0.000665569,-0.000160378 -0.00130708,-0.000354335 -0.00192253,-0.000580869 -0.00288831,-0.00107403 -0.00523133,-0.00281213 -0.00703007,-0.00521329 -0.00147648,-0.00192704 -0.00241269,-0.00408112 -0.00280762,-0.00646224 -0.00025861,-0.00155918 -0.000258109,-0.00311384 2.50591e-006,-0.004664 -9.52245e-006,-5.71347e-005 1.50354e-006,-0.000174912 3.25768e-005,-0.000353834 1.55366e-005,-8.97115e-005 4.36028e-005,-0.000195461 8.41985e-005,-0.000317749 3.10733e-005,-0.000179423 6.46524e-005,-0.000344312 0.000100737,-0.000494666 1.55366e-005,-8.97115e-005 3.35792e-005,-0.000164889 5.36264e-005,-0.000226033 3.60851e-005,-0.000150856 7.86855e-005,-0.000259111 0.000128804,-0.000324766 1.1026e-005,-0.000117778 4.91158e-005,-0.000254099 0.000114771,-0.000409465 8.11914e-005,-0.000245078 0.000162383,-0.000489654 0.000243574,-0.000734231 0.000110761,-0.000249087 0.000217012,-0.000526742 0.00031825,-0.000832964 5.01182e-005,-6.56548e-005 9.77304e-005,-0.000145343 0.000142837,-0.000239565 5.01182e-005,-6.51536e-005 9.57257e-005,-0.000159376 0.000136321,-0.000281664 4.51063e-005,-9.42221e-005 9.27186e-005,-0.00017391 0.000142336,-0.000239565 0.000160879,-0.000315243 0.000336794,-0.00063199 0.000527243,-0.000951744 7.51772e-005,-9.82316e-005 0.000122789,-0.000178421 0.000142837,-0.000239565 0.000195461,-0.000290685 0.000420491,-0.000586382 0.000675092,-0.000886089 4.56075e-005,-9.42221e-005 0.000120284,-0.000192454 0.000225031,-0.000295697 4.51063e-005,-9.3721e-005 0.000107754,-0.000175915 0.000187442,-0.00024608l-7.01654e-006 -4.26004e-005 8.21938e-005 -5.61323e-005c0.000124794,-0.000164388 0.000264624,-0.00033078 0.000419489,-0.000499177 2.45579e-005,-3.3078e-005 0.000116775,-0.000119281 0.000276151,-0.000259612 0.000100236,-0.000131811 0.000192454,-0.000218014 0.000276652,-0.000260113 7.51772e-005,-9.82316e-005 0.000152359,-0.000182931 0.000232047,-0.000253097 0.000184435,-0.000172908 0.00036887,-0.000346316 0.000553304,-0.000519224 0.000134317,-0.000107754 0.000243574,-0.000181929 0.000327773,-0.000224028 0.000129806,-0.00013582 0.000303716,-0.000278657 0.000522732,-0.000427508 0.000109759,-7.46761e-005 0.000231546,-0.000165891 0.000365863,-0.000273144 0.000109258,-7.46761e-005 0.000203981,-0.000147347 0.000283669,-0.000217513 0.000193456,-0.000116274 0.000414477,-0.000251593 0.000663564,-0.000405456 5.41276e-005,-3.70874e-005 0.000165891,-9.72292e-005 0.00033529,-0.000181428 0.000113768,-4.61087e-005 0.000210496,-0.000104246 0.000290184,-0.000174411 0,0 1.50354e-005,-2.50591e-006 4.46052e-005,-7.01654e-006 2.95697e-005,-4.51063e-006 0.000128804,-4.81134e-005 0.000297702,-0.000132312 2.50591e-005,-3.25768e-005 3.75886e-005,-4.91158e-005 3.75886e-005,-4.91158e-005 8.41985e-005,-4.15981e-005 0.000198468,-8.77068e-005 0.000342307,-0.000138827 0.000109258,-7.46761e-005 0.000221021,-0.000135319 0.000334789,-0.000181428 0.00014434,-5.06193e-005 0.000231045,-7.81843e-005 0.000260614,-8.2695e-005 0.000198468,-8.8208e-005 0.0003819,-0.000174411 0.000550799,-0.000257607 8.92103e-005,-1.35319e-005 0.000175414,-4.10969e-005 0.000260113,-8.31961e-005 0.000228038,-9.27186e-005 0.000488652,-0.000175414 0.000780841,-0.000248586 8.92103e-005,-1.35319e-005 0.000205484,-4.56075e-005 0.000349324,-9.6728e-005 0.000233049,-6.41512e-005 0.00043703,-0.000116775 0.000612945,-0.000157872 0.000175915,-4.10969e-005 0.000365361,-9.17162e-005 0.000568841,-0.000151357 5.91394e-005,-8.52009e-006 0.000192454,-2.90685e-005 0.000400945,-6.0643e-005 0.000118279,-1.80425e-005 0.000252094,-3.80898e-005 0.000400444,-6.0643e-005 0.00044555,-6.71583e-005 0.000893607,-0.000120284 0.00134367,-0.000159376 0.000632992,-3.75886e-005 0.00125596,-4.46052e-005 0.00186891,-2.10496e-005 0.000706165,3.8591e-005 0.00140531,0.000121787 0.00209644,0.000249588l4.46052e-005 -6.51536e-006c0.000690628,0.000128302 0.00138877,0.000298203 0.00209394,0.000511205 0.000256104,7.76831e-005 0.000515215,0.000169399 0.00077633,0.000275149 0.00288731,0.00107453 0.00523083,0.00281213 0.00702957,0.00521429zm-0.00365411 0.0121025c0.000596406,-0.00154314 0.000760292,-0.00312236 0.000492661,-0.00473867 -0.000442543,-0.00266428 -0.0018238,-0.0047512 -0.00414427,-0.00625976 -0.000270137,-0.000162383 -0.000523735,-0.000313238 -0.000759791,-0.000452066 -0.000196964,-8.62032e-005 -0.000393929,-0.000172908 -0.000590893,-0.000259111l-4.46052e-005 6.51536e-006c-0.000201976,-0.000114771 -0.000398941,-0.000200974 -0.000590893,-0.000259111 -0.000128302,-3.8591e-005 -0.000227035,-8.21938e-005 -0.000295697,-0.000129806 -0.000286175,-7.31725e-005 -0.00058939,-0.000157872 -0.000909645,-0.0002546 -0.000409967,-8.36973e-005 -0.000817427,-0.000152359 -0.00122188,-0.000207489 -2.95697e-005,4.51063e-006 -7.56784e-005,4.00945e-006 -0.000137324,-1.00236e-006 -6.16453e-005,-5.513e-006 -9.27186e-005,-8.01891e-006 -9.27186e-005,-8.01891e-006 -0.00015286,-6.01418e-006 -0.000306222,-1.20284e-005 -0.000459583,-1.75414e-005 -5.91394e-005,9.02127e-006 -0.000136321,6.01418e-006 -0.000230042,-9.02127e-006 -0.000394931,1.50354e-006 -0.000788359,1.75414e-005 -0.00117878,4.76122e-005 -0.00011878,1.75414e-005 -0.000208492,3.10733e-005 -0.00026713,4.00945e-005 -3.00709e-005,4.51063e-006 -6.71583e-005,1.05248e-005 -0.000111763,1.70402e-005 -4.46052e-005,6.51536e-006 -8.16926e-005,1.20284e-005 -0.000111262,1.70402e-005l-8.92103e-005 1.30307e-005c-2.95697e-005,5.01182e-006 -5.96406e-005,9.02127e-006 -8.92103e-005,1.35319e-005 -2.95697e-005,4.51063e-006 -5.91394e-005,9.02127e-006 -8.92103e-005,1.35319e-005 -0.00032677,4.91158e-005 -0.000633493,0.000125295 -0.000921172,0.000226534 -0.00011878,1.80425e-005 -0.00020799,3.15744e-005 -0.00026713,4.05957e-005 -0.000228539,9.27186e-005 -0.000459082,0.000170903 -0.000692132,0.000235555 -2.45579e-005,3.25768e-005 -9.42221e-005,7.21701e-005 -0.00020799,0.000118279 -8.46997e-005,4.20993e-005 -0.000156369,6.71583e-005 -0.000215508,7.61796e-005 -0.00014434,5.11205e-005 -0.000285673,0.000115773 -0.000424501,0.00019496 -8.46997e-005,4.15981e-005 -0.000154364,8.11914e-005 -0.000208492,0.00011878 -0.000139328,7.91867e-005 -0.000208993,0.00011878 -0.000208993,0.00011878 -0.000138827,7.86855e-005 -0.000278156,0.000157872 -0.000416983,0.000237059 -5.513e-005,3.75886e-005 -0.000124293,7.7182e-005 -0.000208993,0.000119281 -0.000133815,0.000107253 -0.000256104,0.000197967 -0.000365361,0.000273144 -7.96879e-005,7.01654e-005 -0.000146846,0.000123291 -0.000201475,0.000160879 -5.46288e-005,3.70874e-005 -0.000109759,7.46761e-005 -0.000164388,0.000112265 -5.46288e-005,3.70874e-005 -0.000106752,8.87091e-005 -0.00015687,0.000154364 -0.000134317,0.000107253 -0.000254099,0.000212501 -0.000358846,0.000315744 -0.000159376,0.000140331 -0.000316246,0.000294695 -0.000470609,0.000463593 -8.01891e-005,7.01654e-005 -0.000132312,0.000121787 -0.000157371,0.000154364 -0.000304718,0.000365361 -0.000591895,0.000743252 -0.000862032,0.00113267 -4.56075e-005,9.42221e-005 -9.32198e-005,0.00017391 -0.000143338,0.000239565 -0.000140331,0.000254099 -0.000290685,0.000538269 -0.000452066,0.000853011 -2.45579e-005,3.25768e-005 -4.86146e-005,7.26713e-005 -7.11678e-005,0.000119782 -2.25532e-005,4.66099e-005 -3.15744e-005,8.46997e-005 -2.70638e-005,0.000112766 -4.51063e-005,9.42221e-005 -7.81843e-005,0.000171905 -9.82316e-005,0.000233049 4.51063e-006,2.80662e-005 -8.01891e-006,4.46052e-005 -3.75886e-005,4.91158e-005 -0.000596406,0.00154314 -0.000760292,0.00312286 -0.000492661,0.00473817 0.000442543,0.00266478 0.0018238,0.0047512 0.00414427,0.00626026 9.87328e-005,4.31016e-005 0.000164889,7.66808e-005 0.00019947,0.000100737 6.81607e-005,4.81134e-005 0.000134818,8.11914e-005 0.000198969,0.000100236 0.000103243,7.21701e-005 0.000221522,0.000141333 0.000354335,0.00020799 6.86619e-005,4.81134e-005 0.000137324,9.57257e-005 0.000206487,0.000143338 0.000127801,3.90922e-005 0.00025861,9.17162e-005 0.000391423,0.000158875 0.000162884,6.26477e-005 0.000244075,9.3721e-005 0.000244075,9.3721e-005 0.000133314,6.71583e-005 0.000263622,0.000120284 0.000391924,0.000158875 0.000162383,6.26477e-005 0.000307725,0.000113267 0.000436028,0.000151858 9.82316e-005,4.36028e-005 0.000177418,6.0643e-005 0.000236558,5.16217e-005 5.01182e-006,2.85673e-005 3.80898e-005,4.51063e-005 9.97351e-005,5.01182e-005 6.21465e-005,5.513e-006 9.27186e-005,7.51772e-006 9.27186e-005,7.51772e-006 0.000162383,6.26477e-005 0.000305721,9.92339e-005 0.000429513,0.000109759 6.36501e-005,1.95461e-005 0.000142837,3.65863e-005 0.000236558,5.16217e-005 3.45815e-005,2.35555e-005 6.6156e-005,3.3078e-005 9.62269e-005,2.85673e-005l0.000140832 2.25532e-005c0.000128302,3.8591e-005 0.000268633,6.11442e-005 0.000421995,6.66571e-005 0.000123291,1.05248e-005 0.000184936,1.60378e-005 0.000184936,1.60378e-005 9.42221e-005,1.45343e-005 0.000155867,2.00473e-005 0.000185437,1.55366e-005 6.41512e-005,1.90449e-005 0.000126799,3.15744e-005 0.000188945,3.65863e-005 6.16453e-005,5.513e-006 0.000107253,5.513e-006 0.000137324,1.50354e-006 5.86382e-005,-9.02127e-006 0.00013582,-6.51536e-006 0.000229541,8.52009e-006 0.000642014,1.90449e-005 0.00127551,-1.85437e-005 0.00189898,-0.000112766 0.00011878,-1.80425e-005 0.00023756,-3.60851e-005 0.00035634,-5.41276e-005 8.92103e-005,-1.30307e-005 0.000163385,-2.45579e-005 0.000222525,-3.35792e-005 3.00709e-005,-4.51063e-006 8.72056e-005,-2.7565e-005 0.000171404,-6.91631e-005 0.00014835,-2.25532e-005 0.000252596,-3.80898e-005 0.000311735,-4.71111e-005 0.000114269,-4.61087e-005 0.000185938,-7.21701e-005 0.000215508,-7.66808e-005 0.000436028,-0.000123291 0.000853011,-0.000273645 0.00124995,-0.000450061 0.000143839,-5.06193e-005 0.000228038,-9.27186e-005 0.000253097,-0.000125295 3.00709e-005,-4.51063e-006 5.96406e-005,-9.02127e-006 8.87091e-005,-1.35319e-005 0,0 2.7565e-005,-1.85437e-005 8.2695e-005,-5.61323e-005 5.41276e-005,-3.70874e-005 9.6728e-005,-5.81371e-005 0.000126298,-6.26477e-005 2.95697e-005,-4.51063e-006 4.46052e-005,-7.01654e-006 4.46052e-005,-7.01654e-006 2.50591e-005,-3.25768e-005 9.47233e-005,-7.21701e-005 0.000208492,-0.000118279 0,0 1.35319e-005,-9.52245e-006 4.10969e-005,-2.80662e-005 2.7565e-005,-1.85437e-005 4.10969e-005,-2.80662e-005 4.10969e-005,-2.80662e-005 0.000114269,-4.66099e-005 0.000198468,-8.8208e-005 0.000253097,-0.000125295 0.000109258,-7.46761e-005 0.000191451,-0.000130808 0.00024608,-0.000168397 7.96879e-005,-6.96642e-005 0.000176917,-0.000128302 0.000290685,-0.000174411 5.46288e-005,-3.70874e-005 0.000121787,-9.1215e-005 0.000201475,-0.00016138 0.000268633,-0.000214506 0.000537267,-0.000429513 0.000806401,-0.000645021 5.46288e-005,-3.70874e-005 0.000106752,-8.87091e-005 0.00015687,-0.000154364 0.000444047,-0.000444548 0.000851006,-0.000927687 0.00122088,-0.00144841 5.01182e-005,-6.56548e-005 9.82316e-005,-0.000145343 0.000142837,-0.000239565 0.000295697,-0.000422496 0.000541777,-0.000866543 0.00073824,-0.00133214 4.05957e-005,-0.000122288 7.31725e-005,-0.000199971 9.87328e-005,-0.000232548 2.45579e-005,-3.3078e-005 3.70874e-005,-4.91158e-005 3.70874e-005,-4.91158e-005zm-0.0455659 0.00701504l0.0100492 0.00134818 -0.000847498 0.00575507 -0.0110761 -0.001486 6.01418e-006 -4.26004e-005 -0.00734933 -0.0113322 -4.46052e-005 -6.51536e-006 -0.00065304 0.00443395 0.002546 0.000341806 -0.000846997 0.00575507 -0.0110771 -0.001486 0.000847999 -0.00575507 0.0025009 0.00033529 0.00269936 -0.0183312 -0.002546 -0.000341305 0.000847498 -0.00575507 0.00857522 0.00115021 0.00817377 0.00109659c0.00011878,1.60378e-005 0.000238061,3.20756e-005 0.000356841,4.76122e-005 0.00238212,0.000319754 0.00426556,0.00155066 0.00565082,0.00369271 0.00138476,0.00214205 0.00187743,0.00457027 0.00147798,0.00728417 -0.000399442,0.0027144 -0.00157471,0.0049186 -0.00352431,0.00661309 -0.0019501,0.001695 -0.0041162,0.00238262 -0.00649832,0.00206286 -0.00011878,-1.60378e-005 -0.000238061,-3.20756e-005 -0.000356841,-4.76122e-005l-0.00209945 -0.000281664 0.00318802 0.00494867zm-0.00338448 -0.00980061c5.96406e-005,7.51772e-006 0.000148851,2.00473e-005 0.000267631,3.55839e-005 0.00148901,0.000199971 0.00282817,-7.66808e-005 0.00401697,-0.000830458 0.0011888,-0.000753276 0.00187592,-0.00176215 0.00206236,-0.00302714 0.00018644,-0.00126448 -0.000182931,-0.00241519 -0.00110861,-0.00345264 -0.000925181,-0.00103694 -0.00213203,-0.0016554 -0.00362054,-0.00185487 -0.000119281,-1.60378e-005 -0.000208492,-2.80662e-005 -0.000268633,-3.60851e-005l-0.00518071 -0.000695139 -0.00134918 0.00916561 0.00518071 0.000695139zm-0.0431337 -0.0265391l0.0243274 0.00845142 -0.00208241 0.00546138 -0.000879574 0.00230594 -0.00572149 -0.00198819 0.000879072 -0.00230594 -0.0106802 -0.00371025 -0.00228288 0.00598711 0.0119096 0.00413725 -0.00206737 0.00542128 -0.0119096 -0.00413776 -0.00228288 0.00598711 0.00258509 0.000898117 -0.00208241 0.00546138 -0.0105108 -0.00365161 0.00208241 -0.00546138 0.0022042 0.000765805 0.00228288 -0.00598711 -4.26004e-005 -1.45343e-005 0.00206737 -0.00542128 4.20993e-005 1.50354e-005 0.00228338 -0.00598711 -0.0022037 -0.000765805 0.00208241 -0.00546087zm-0.0242251 -0.0050063c-0.000554808,0.00232749 -0.00164388,0.00441491 -0.0032672,0.00626176 -0.00106351,0.00120935 -0.00229341,0.00222875 -0.0036897,0.00305821 -0.000243073,0.000142336 -0.000476122,0.000274146 -0.000700151,0.00039443 -0.000142837,7.31725e-005 -0.0002546,0.000133314 -0.000335792,0.000180927 -0.000100236,6.96642e-005 -0.000233049,0.000131811 -0.000398941,0.00018644 -0.000100236,6.91631e-005 -0.000212,0.000129806 -0.000335792,0.000180425 -4.20993e-005,4.00945e-006 -6.81607e-005,1.1026e-005 -7.81843e-005,2.15508e-005 -9.52245e-006,1.1026e-005 -1.40331e-005,1.6539e-005 -1.40331e-005,1.6539e-005 -0.000227536,8.01891e-005 -0.000434023,0.000158875 -0.000618959,0.000235054 -0.000554808,0.000230042 -0.00113518,0.000420993 -0.0017401,0.000573352 0,0 -3.65863e-005,8.01891e-006 -0.000109759,2.45579e-005 -7.31725e-005,1.60378e-005 -0.000130808,2.60614e-005 -0.000173409,2.95697e-005 -0.000165891,5.46288e-005 -0.000364359,0.00010174 -0.000595404,0.000141333 -0.000188945,3.60851e-005 -0.000398439,7.41749e-005 -0.000629985,0.000113768 -4.20993e-005,3.50827e-006 -0.000136321,2.15508e-005 -0.000283168,5.41276e-005 -4.20993e-005,3.50827e-006 -9.52245e-005,8.01891e-006 -0.000158875,1.35319e-005 -6.31489e-005,5.01182e-006 -0.000116274,9.52245e-006 -0.000158875,1.30307e-005 -0.000273144,4.31016e-005 -0.000579366,7.91867e-005 -0.000918165,0.000107253 0,0 -4.26004e-005,3.50827e-006 -0.0001273,1.05248e-005l-0.0001273 1.05248e-005 -3.45815e-005 -2.7565e-005c-0.000103745,2.95697e-005 -0.000209995,3.80898e-005 -0.000317248,2.65626e-005 -0.000212,1.80425e-005 -0.000413976,2.45579e-005 -0.000606931,2.00473e-005 -0.000107754,-1.1026e-005 -0.00018243,-1.55366e-005 -0.000225031,-1.15272e-005 -0.0001273,1.05248e-005 -0.000244075,1.00236e-005 -0.000351829,-1.00236e-006 -4.26004e-005,3.50827e-006 -0.000150354,-8.01891e-006 -0.000323763,-3.40803e-005 -0.000727214,-2.10496e-005 -0.00143939,-0.000104246 -0.00213553,-0.000249588 -6.56548e-005,-1.50354e-005 -0.000151858,-2.80662e-005 -0.000259612,-3.95933e-005 -0.000827451,-0.000175414 -0.00163886,-0.000412974 -0.00243474,-0.000713181 -0.000265125,-0.000100236 -0.000453569,-0.000175915 -0.000564832,-0.000228038 -0.000111763,-5.16217e-005 -0.000199971,-8.52009e-005 -0.000265125,-0.000100236 -0.000311234,-0.000136823 -0.000601919,-0.00027565 -0.000870552,-0.000415981 -4.66099e-005,-3.70874e-005 -0.00010174,-6.26477e-005 -0.000167395,-7.76831e-005 -0.000157371,-8.87091e-005 -0.000303716,-0.000168397 -0.000438033,-0.000238562l-0.000207489 -0.000165891c-6.51536e-005,-1.50354e-005 -0.000155366,-6.86619e-005 -0.000270638,-0.000160879 -0.000157371,-8.87091e-005 -0.000282165,-0.000169901 -0.000374884,-0.000243574 -8.8208e-005,-3.35792e-005 -0.000166893,-7.76831e-005 -0.000236057,-0.000133314 -6.86619e-005,-5.513e-005 -0.000126298,-0.000101239 -0.000172406,-0.000138326 -4.61087e-005,-3.65863e-005 -0.000136823,-9.02127e-005 -0.000271139,-0.000160378l-3.45815e-005 -2.80662e-005 -3.45815e-005 -2.7565e-005c-0.000115272,-9.22174e-005 -0.000183934,-0.000147347 -0.000206988,-0.000165891 -0.000115272,-9.22174e-005 -0.000195962,-0.00015687 -0.000242071,-0.000193456 -0.000322761,-0.00025861 -0.000635498,-0.000527744 -0.000938212,-0.000807905 -4.61087e-005,-3.70874e-005 -0.000128804,-0.000121787 -0.000247584,-0.0002546 -4.61087e-005,-3.65863e-005 -0.000105749,-0.000103243 -0.000178421,-0.00019947 0,0 -6.86619e-005,-5.513e-005 -0.000206988,-0.000165891 -0.000119281,-0.000132312 -0.000226534,-0.000255603 -0.00032226,-0.000369872 -4.61087e-005,-3.70874e-005 -0.000105749,-0.000103243 -0.000178421,-0.000198969 0,0 -1.15272e-005,-9.52245e-006 -3.45815e-005,-2.7565e-005 -0.00011878,-0.000132813 -0.000226033,-0.000256104 -0.00032226,-0.000370373 -4.9617e-005,-7.76831e-005 -8.77068e-005,-0.000145844 -0.000114269,-0.000204983 -0.000119281,-0.000132312 -0.000217012,-0.000266629 -0.000293191,-0.00040295 -0.000195461,-0.000268633 -0.000390922,-0.000537768 -0.000585881,-0.000806401 -4.00945e-006,-4.05957e-005 -6.01418e-006,-6.0643e-005 -6.01418e-006,-6.0643e-005 -0.000122288,-0.000173409 -0.000208492,-0.000298203 -0.00025861,-0.000375886l2.90685e-005 -3.3078e-005c-9.97351e-005,-0.000154364 -0.000175915,-0.000290685 -0.000229541,-0.000408463 0,0 -1.15272e-005,-9.52245e-006 -3.45815e-005,-2.80662e-005 -0.00030973,-0.000584879 -0.00057686,-0.00117377 -0.000801891,-0.00176616 -0.00104496,-0.00278507 -0.00120835,-0.00561323 -0.000489654,-0.0084845 0.000554808,-0.00232799 0.00164388,-0.00441541 0.0032677,-0.00626226 0.00106301,-0.00120885 0.0022924,-0.00222825 0.0036897,-0.00305771 3.8591e-005,-4.4104e-005 0.000138827,-0.000113768 0.000300709,-0.000208492 8.11914e-005,-4.76122e-005 0.000183432,-9.6728e-005 0.000306723,-0.000147849 0.000161882,-9.52245e-005 0.000314742,-0.000179423 0.000457078,-0.000252094 8.11914e-005,-4.76122e-005 0.000152359,-8.41985e-005 0.000214005,-0.000109759 0.000142837,-7.26713e-005 0.000256605,-0.000112766 0.000341305,-0.000120284 0.000100236,-6.91631e-005 0.000233049,-0.00013131 0.000398941,-0.000185938 0.000247083,-0.00010174 0.000493664,-0.000204482 0.000740245,-0.000306222 0.000269636,-8.36973e-005 0.000558817,-0.000189447 0.000867545,-0.000316747 8.46997e-005,-7.51772e-006 0.000178922,-2.50591e-005 0.000283168,-5.46288e-005 8.46997e-005,-7.01654e-006 0.000188444,-3.60851e-005 0.000312236,-8.67044e-005 0.000103745,-2.95697e-005 0.000197967,-4.71111e-005 0.000282666,-5.46288e-005 0.000354837,-9.07139e-005 0.000720699,-0.000171905 0.00109809,-0.000244075 0.0001273,-1.05248e-005 0.000221522,-2.90685e-005 0.000283168,-5.41276e-005 0.000358345,-5.06193e-005 0.000739744,-8.21938e-005 0.0011437,-9.57257e-005 0.000104246,-2.90685e-005 0.000231546,-3.95933e-005 0.000381399,-3.15744e-005 0.000104246,-2.95697e-005 0.000209995,-3.80898e-005 0.000317749,-2.70638e-005l2.90685e-005 -3.25768e-005 9.82316e-005 2.2052e-005c0.000211499,-1.75414e-005 0.000435026,-2.60614e-005 0.00067008,-2.50591e-005 4.20993e-005,-3.50827e-006 0.000170903,6.01418e-006 0.000386912,2.90685e-005 0.000169399,-1.45343e-005 0.000297702,-5.01182e-006 0.000386411,2.85673e-005 0.0001273,-1.05248e-005 0.000244577,-1.00236e-005 0.000352331,1.00236e-006 0.000258109,1.90449e-005 0.000515716,3.80898e-005 0.000773824,5.76359e-005 0.000172908,2.60614e-005 0.000303716,5.61323e-005 0.000391924,8.92103e-005 0.000192955,4.51063e-006 0.00041999,3.65863e-005 0.000681106,9.62269e-005 0.000130808,2.95697e-005 0.000282666,5.76359e-005 0.000456075,8.41985e-005 0.000130808,2.95697e-005 0.00025009,5.01182e-005 0.000357844,6.16453e-005 0.000219518,6.31489e-005 0.000471111,0.000133815 0.000755782,0.000212 6.56548e-005,1.50354e-005 0.00018644,5.56312e-005 0.000363357,0.000122288 0.000111262,5.21229e-005 0.000221021,8.31961e-005 0.000328775,9.47233e-005 0,0 1.15272e-005,9.52245e-006 3.45815e-005,2.80662e-005 2.30544e-005,1.80425e-005 0.000122789,6.0643e-005 0.000300208,0.0001273 4.20993e-005,-3.50827e-006 6.31489e-005,-5.01182e-006 6.31489e-005,-5.01182e-006 8.87091e-005,3.3078e-005 0.000199971,8.46997e-005 0.000334789,0.000155366 0.000130307,2.95697e-005 0.000251593,7.06666e-005 0.000362855,0.000122288 0.000134317,7.06666e-005 0.000213503,0.000114771 0.000236558,0.000133314 0.000199971,8.46997e-005 0.000388416,0.000160879 0.000564832,0.000227536 6.91631e-005,5.56312e-005 0.000147849,9.97351e-005 0.000236558,0.000133314 0.000223026,0.000103243 0.000459583,0.000236558 0.000708671,0.000398941 6.91631e-005,5.513e-005 0.000170903,0.000118279 0.000305721,0.000188444 0.00020348,0.000125797 0.000379394,0.000238061 0.000526742,0.000338298 0.000147849,9.92339e-005 0.000312236,0.000202477 0.000492661,0.000310231 4.61087e-005,3.65863e-005 0.000149853,0.000119782 0.000311234,0.000248586 9.17162e-005,7.36737e-005 0.000195461,0.00015687 0.000310733,0.000249588 0.000345314,0.000276652 0.000681607,0.00056433 0.00100788,0.000862533 0.000445049,0.000431517 0.000859025,0.000876065 0.00124243,0.00133264 0.000433021,0.00053426 0.000825947,0.00109207 0.00117778,0.00167395l3.45815e-005 2.7565e-005c0.000352331,0.000581872 0.000675593,0.00119632 0.000969285,0.00184385 0.000107253,0.000236057 0.000204482,0.000482638 0.000292189,0.000739744 0.00104496,0.00278557 0.00120785,0.00561323 0.000489153,0.008485zm-0.0119667 0.00530751c0.0016113,-0.000582874 0.002968,-0.00150054 0.00406959,-0.00275399 0.00181678,-0.00206637 0.00256054,-0.00443045 0.00223126,-0.00709172 -4.91158e-005,-0.000301711 -9.62269e-005,-0.000582874 -0.000141333,-0.00084399 -6.11442e-005,-0.000198468 -0.000121787,-0.000397437 -0.000182931,-0.000595905l-3.45815e-005 -2.7565e-005c-4.15981e-005,-0.00022052 -0.000102241,-0.000418988 -0.00018243,-0.000596406 -5.36264e-005,-0.000117276 -8.41985e-005,-0.00021651 -9.17162e-005,-0.000297702 -0.000129806,-0.000253598 -0.000261617,-0.000527744 -0.000395432,-0.000822439 -0.000202477,-0.000349825 -0.00041548,-0.000688623 -0.000637002,-0.0010164 -2.35555e-005,-1.85437e-005 -5.31252e-005,-5.16217e-005 -8.92103e-005,-9.97351e-005 -3.65863e-005,-4.76122e-005 -5.513e-005,-7.11678e-005 -5.513e-005,-7.11678e-005 -9.52245e-005,-0.000114269 -0.000191451,-0.00022904 -0.000287177,-0.000342808 -4.61087e-005,-3.70874e-005 -9.3721e-005,-9.42221e-005 -0.000143839,-0.000171905 -0.000260614,-0.000283669 -0.000531252,-0.00055581 -0.000811413,-0.000817928 -9.22174e-005,-7.41749e-005 -0.000160879,-0.000129305 -0.000206988,-0.000166392 -2.30544e-005,-1.80425e-005 -5.21229e-005,-4.10969e-005 -8.62032e-005,-6.91631e-005 -3.50827e-005,-2.7565e-005 -6.36501e-005,-5.06193e-005 -8.67044e-005,-6.91631e-005l-6.91631e-005 -5.513e-005c-2.30544e-005,-1.85437e-005 -4.61087e-005,-3.70874e-005 -6.86619e-005,-5.513e-005 -2.35555e-005,-1.85437e-005 -4.66099e-005,-3.70874e-005 -6.96642e-005,-5.56312e-005 -0.000253097,-0.000202979 -0.000514212,-0.000374383 -0.000783347,-0.000515215 -9.22174e-005,-7.36737e-005 -0.000160879,-0.000128804 -0.000207489,-0.000165891 -0.000223026,-0.000103745 -0.000436028,-0.000218014 -0.000639508,-0.000343811 -4.26004e-005,3.50827e-006 -0.000119782,-2.05484e-005 -0.000230544,-7.21701e-005 -8.87091e-005,-3.35792e-005 -0.000155867,-6.86619e-005 -0.000201976,-0.000105248 -0.000134818,-7.06666e-005 -0.000278657,-0.000129806 -0.00043252,-0.000178421 -8.8208e-005,-3.3078e-005 -0.00016539,-5.71347e-005 -0.000230544,-7.21701e-005 -0.000153863,-4.81134e-005 -0.000231045,-7.21701e-005 -0.000231045,-7.21701e-005 -0.000153362,-4.86146e-005 -0.000307725,-9.6728e-005 -0.000461588,-0.000144841 -6.51536e-005,-1.50354e-005 -0.000142336,-3.90922e-005 -0.000230544,-7.26713e-005 -0.000172908,-2.60614e-005 -0.000325267,-5.41276e-005 -0.000456075,-8.41985e-005 -0.000107754,-1.1026e-005 -0.000193957,-2.45579e-005 -0.000259612,-3.90922e-005 -6.56548e-005,-1.50354e-005 -0.000130808,-3.00709e-005 -0.000195962,-4.51063e-005 -6.51536e-005,-1.45343e-005 -0.000140331,-1.90449e-005 -0.000225532,-1.15272e-005 -0.000172908,-2.65626e-005 -0.000334789,-4.36028e-005 -0.000484643,-5.11205e-005 -0.000215508,-2.30544e-005 -0.000440539,-3.45815e-005 -0.000675593,-3.50827e-005 -0.000107754,-1.15272e-005 -0.000182931,-1.55366e-005 -0.000225031,-1.20284e-005 -0.000489153,2.05484e-005 -0.000976302,6.11442e-005 -0.00146145,0.000122288 -0.000104246,2.90685e-005 -0.000198468,4.71111e-005 -0.000283168,5.41276e-005 -0.00029269,6.51536e-005 -0.000616453,0.000142837 -0.00097129,0.000233551 -4.20993e-005,3.50827e-006 -8.92103e-005,1.25295e-005 -0.000141333,2.70638e-005 -5.21229e-005,1.50354e-005 -8.77068e-005,3.25768e-005 -0.000107253,5.513e-005 -0.000103745,2.90685e-005 -0.000186941,5.61323e-005 -0.000248085,8.16926e-005 -2.00473e-005,2.2052e-005 -4.05957e-005,2.40567e-005 -6.41512e-005,5.513e-006 -0.0016108,0.000582373 -0.0029675,0.00150054 -0.00406909,0.00275349 -0.00181678,0.00206687 -0.00256104,0.00443095 -0.00223126,0.00709222 3.05721e-005,9.92339e-005 4.71111e-005,0.000169399 5.11205e-005,0.000209995 7.01654e-006,8.01891e-005 2.45579e-005,0.000150354 5.11205e-005,0.000209494 1.1026e-005,0.000121286 3.35792e-005,0.000251593 6.76595e-005,0.000391423 8.01891e-006,8.06902e-005 1.50354e-005,0.000161882 2.25532e-005,0.000242572 5.31252e-005,0.000117778 9.72292e-005,0.000246581 0.00013131,0.00038591 5.71347e-005,0.000158875 8.5702e-005,0.00023756 8.5702e-005,0.00023756 3.45815e-005,0.00013983 7.81843e-005,0.000268633 0.000131811,0.000386411 5.71347e-005,0.000157872 0.000112265,0.000296198 0.000165891,0.000413976 3.05721e-005,9.92339e-005 6.86619e-005,0.000167395 0.000114771,0.000204482 -1.95461e-005,2.15508e-005 -1.05248e-005,5.66335e-005 2.55603e-005,0.000104246 3.60851e-005,4.81134e-005 5.46288e-005,7.21701e-005 5.46288e-005,7.21701e-005 5.71347e-005,0.000158373 0.000122288,0.000284671 0.00019496,0.000380898 2.65626e-005,5.86382e-005 6.51536e-005,0.000126799 0.000114771,0.000204482 3.50827e-006,4.00945e-005 1.70402e-005,6.96642e-005 4.00945e-005,8.8208e-005l7.46761e-005 0.000115773c5.36264e-005,0.000118279 0.000128302,0.000233551 0.000224028,0.00034782 7.26713e-005,9.62269e-005 0.000108756,0.000143839 0.000108756,0.000143839 5.01182e-005,7.76831e-005 8.62032e-005,0.000125295 0.000109759,0.000143839 2.65626e-005,5.86382e-005 5.81371e-005,0.000112265 9.47233e-005,0.000160378 3.65863e-005,4.76122e-005 6.56548e-005,8.06902e-005 8.87091e-005,9.92339e-005 4.61087e-005,3.70874e-005 9.42221e-005,9.42221e-005 0.00014434,0.000171404 0.000405957,0.00047512 0.000851006,0.000906637 0.00133515,0.00129405 9.17162e-005,7.36737e-005 0.000183934,0.000147849 0.000276151,0.000221522 6.91631e-005,5.513e-005 0.000126799,0.000101239 0.000172908,0.000138326 2.30544e-005,1.80425e-005 7.86855e-005,4.4104e-005 0.000166893,7.76831e-005 0.000115272,9.22174e-005 0.000195962,0.00015687 0.00024157,0.000193456 0.000111763,5.21229e-005 0.000178922,8.72056e-005 0.000201976,0.000105749 0.000383905,0.000232548 0.00077633,0.000434023 0.00117627,0.000604425 0.000134317,7.06666e-005 0.000222525,0.000103745 0.000265125,0.000100236 2.30544e-005,1.85437e-005 4.61087e-005,3.70874e-005 6.91631e-005,5.513e-005 0,0 3.25768e-005,7.51772e-006 9.82316e-005,2.25532e-005 6.51536e-005,1.45343e-005 0.000109258,3.15744e-005 0.000132312,5.01182e-005 2.30544e-005,1.80425e-005 3.45815e-005,2.7565e-005 3.45815e-005,2.7565e-005 4.26004e-005,-3.50827e-006 0.000119281,2.05484e-005 0.000230544,7.26713e-005 0,0 1.6539e-005,3.50827e-006 4.91158e-005,1.1026e-005 3.25768e-005,7.01654e-006 4.91158e-005,1.1026e-005 4.91158e-005,1.1026e-005 0.000111763,5.16217e-005 0.000199971,8.52009e-005 0.000265626,0.000100236 0.000130307,2.95697e-005 0.000228539,5.21229e-005 0.000294194,6.71583e-005 0.000107253,1.1026e-005 0.000217012,4.26004e-005 0.000328775,9.42221e-005 6.51536e-005,1.50354e-005 0.000151858,2.85673e-005 0.000259612,3.95933e-005 0.000346316,5.26241e-005 0.000692633,0.000105248 0.00103895,0.000157872 6.51536e-005,1.50354e-005 0.000140832,1.90449e-005 0.000225031,1.20284e-005 0.000643016,2.7565e-005 0.00129154,4.00945e-006 0.00194659,-7.11678e-005 8.46997e-005,-7.01654e-006 0.000178922,-2.50591e-005 0.000283168,-5.41276e-005 0.000527243,-6.46524e-005 0.00103995,-0.000178421 0.00153712,-0.000342307 0.000123291,-5.06193e-005 0.000205986,-7.81843e-005 0.000248586,-8.16926e-005 4.26004e-005,-4.00945e-006 6.36501e-005,-5.513e-006 6.36501e-005,-5.513e-006zm-0.0140276 -0.0402399l0.00542278 0.00933801 -0.00532505 0.00281714 -0.00133415 -0.00229692 -0.0223316 0.0117166 -0.00395733 -0.00681457 0.000148851 -0.000276151 0.00886941 -0.0157181 -0.00867846 0.00459183 0.00133364 0.00229692 -0.00532556 0.00281714 -0.00542228 -0.00933751 0.00532505 -0.00281764 0.00113718 0.00195812 0.0169625 -0.00897466 -0.00113718 -0.00195812 0.00532556 -0.00281714 0.00542278 0.00933751 -0.00532556 0.00281764 -0.00133364 -0.00229692 -0.0109273 0.0193667 0.0169625 -0.00897466 -0.00113718 -0.00195762 0.00532505 -0.00281764zm0.0561404 -0.091621c-0.00871404,0.00715687 -0.022278,0.0195651 -0.0255051,0.0256665l0.0136382 -0.001483c0.000971791,-0.00364108 0.0149678,-0.00780741 0.0204457,-0.00801891 0.00967581,-0.00037338 0.0171975,0.000660056 0.0244176,0.00377189 0.00608635,0.00262369 0.0131746,0.00673488 0.016117,0.0123496 0.00176115,0.00336092 0.00248787,0.00729821 0.000786354,0.0112736 -0.000624472,0.00145994 -0.00180726,0.00325367 -0.00283769,0.00427859 -0.00109207,0.00108606 -0.00359046,0.00266629 -0.00407962,0.00333386 0.00480082,-0.00111864 0.0107634,-0.000766307 0.0155366,-0.00195611 0.00325267,-0.000811413 0.00357192,-0.00152109 0.00586332,-0.00303265 0.00217362,-0.00143438 0.00400795,-0.0012715 0.00617305,-0.00272242 -0.000758789,-0.00113317 -0.00152309,-0.00247634 -0.00218565,-0.00397537l-0.0683697 -0.0394856zm0.0713878 0.0412287c0.00355438,0.00702957 0.00960063,0.0134693 0.0136928,0.0164703 0.00579015,0.00424651 0.00698296,0.00462691 0.0153482,0.00629735 0.00295497,0.000589891 0.00591194,0.00132663 0.00863235,0.00233851 0.00226484,0.000841985 0.00533257,0.00263221 0.00833866,0.00263221l0.0011858 0c0.0002546,0 0.000502685,-1.70402e-005 0.000744255,-5.01182e-005l-0.047942 -0.0276883zm0.0317724 -0.0232423c0.00199671,-0.00265326 0.00452066,-0.00484943 0.00653491,-0.00773774 0.00193105,-0.00276853 0.00387163,-0.00626327 0.00600716,-0.00882029 0.00489153,-0.00585881 0.0090368,-0.00956054 0.0152129,-0.0141433 0.00352832,-0.00261767 0.0122504,-0.00987628 0.0130999,-0.0153542 -0.000316747,-0.000718193 -0.000641512,-0.00143188 -0.000975299,-0.00214105 -0.000287177,-8.87091e-005 -0.00028016,-0.000176416 -0.00103143,-0.000176416 -0.00444849,0 -0.0142706,0.00454522 -0.0181764,0.00613747 -0.00493864,0.00201375 -0.0130653,0.0045392 -0.0197741,0.0045392l-0.000296699 0c-0.00116625,0 -0.00197215,-0.000151357 -0.00266829,-0.000592898 0.00704611,0 0.0167831,-0.0032256 0.0219407,-0.00533808 0.00274196,-0.00112315 0.013998,-0.00619511 0.0193211,-0.00599363 -0.00141484,-0.0028863 -0.0029675,-0.00569342 -0.00464796,-0.00841484 -0.00237209,-0.00107052 -0.00510103,-0.00170001 -0.00762949,-0.00212952 -0.0066191,-0.00112415 -0.00450211,-7.01654e-006 -0.00845193,-0.00400143 -0.00184535,-0.0018664 -0.00508449,-0.00378091 -0.00867295,-0.00378091 -0.00412222,0 -0.00697795,0.00208542 -0.0091175,0.00422546 -0.00464645,0.00464896 -0.000410468,0.00320004 -0.00782445,0.00551951 -0.00591895,0.00185136 -0.0125335,0.00628281 -0.0171574,0.00952846 -0.00580519,0.0040741 -0.00928489,0.00722704 -0.0174276,0.00925933 -0.00563679,0.00140732 -0.0115317,0.00264574 -0.0174005,0.00401797l0.050904 0.0304698c0.000176917,-0.00053877 0.000384406,-0.00113267 0.000649531,-0.00180676 0.00333386,-0.00849002 0.00539221,-0.0116931 0.0103765,-0.0183879 0.00321207,-0.00431417 0.010816,-0.00995146 0.0157907,-0.0126759 0.00362254,-0.00198368 0.0157647,-0.00849954 0.0202628,-0.00849954 -0.00011026,0.00493513 -0.0100171,0.0123551 -0.0135164,0.0149512 -0.00587986,0.00436279 -0.00991287,0.0083542 -0.0145698,0.0138968 -0.0020779,0.00247383 -0.00381499,0.00580468 -0.00565283,0.00858073 -0.0018258,0.002757 -0.0041999,0.00541426 -0.00650935,0.00772471l-0.000191953 0.00019095 0.00159225 0.000952746zm-0.091605 0.000265125c-0.00715487,0 -0.0167595,0.00271691 -0.0204572,0.00593199 0.0106596,0 0.0363452,0.00524787 0.0403216,0.0106767 -0.00168948,-0.000140331 -0.00717291,-0.00242522 -0.0093756,-0.00307776 -0.0032662,-0.000967782 -0.00658102,-0.00187141 -0.00991638,-0.00253648 -0.00650183,-0.00129606 -0.0142671,-0.00268984 -0.0219192,-0.00268984l-0.00355789 0c-0.0104501,0 -0.023126,0.00322059 -0.023126,0.013346 0,0.00990385 0.0111523,0.0166337 0.0184766,0.0197766 0.00880526,0.00377741 0.0198368,0.00572951 0.0322225,0.00572951l0.00177869 0c0.0139108,0 0.0254204,-0.00234904 0.0383198,0.000223527 0.00580619,0.00115773 0.0110345,0.00316045 0.0167094,0.00375285 0.00790313,0.000824945 0.00799385,-0.00872156 0.00159927,-0.00872156l-0.000296699 0c-0.00249588,0 -0.00402599,0.0011863 -0.00652288,0.0011863l-0.00148199 0c-0.00666371,0 -0.0129706,-0.00394029 -0.0198729,-0.00473667 -0.00757837,-0.000875063 -0.0147899,-0.000898619 -0.0234142,-0.000898619 -0.00791316,0 -0.0159887,-0.000436028 -0.0225557,-0.00175614 -0.00517119,-0.00103945 -0.015037,-0.00362104 -0.0180621,-0.00625174 0.00168597,0.000140331 0.00563529,0.00171254 0.00782695,0.00225482 0.00276151,0.00068311 0.00526491,0.00128353 0.00795776,0.00182631 0.0052188,0.00105198 0.0116389,0.00185086 0.0177178,0.00185086l0.00415079 0c0.0118334,0 0.030538,-0.0037323 0.030538,-0.0145323l0 -0.001483c0,-0.0112646 -0.0213107,-0.0198713 -0.0340959,-0.0198713l-0.00296449 0zm0.0254971 0.0370729c0.0118179,0 0.0192158,0.00563529 0.0281659,0.00563529 0.00177819,0 0.00438484,-0.000985323 0.00640861,-0.00132362 0.0028432,-0.000475621 0.0045377,0.00161982 0.00545135,0.00161982 0.00154965,0 0.00355789,-0.00244126 0.00355789,-0.00415229 0,-0.00316647 -0.00291587,-0.00477275 -0.00591144,-0.00413926 -0.00275199,0.000581872 -0.004241,0.00214857 -0.00783447,0.00284621 -0.00593249,0.00115071 -0.0127135,-0.00137624 -0.0191642,-0.00137624l-0.00326119 0 -0.00741248 0.000593399 0 0.000296699zm0.0272768 -0.000296699c0.00281013,0 0.00948737,-0.00181327 0.00948737,-0.00415229 0,-0.00246832 -0.00168297,-0.00415179 -0.00415079,-0.00415179l-0.000593399 0c-0.00317098,0 -0.00641462,0.00434875 -0.0115913,0.00501232 -0.00316596,0.000405957 -0.0126804,0.000654543 -0.0144987,0.00180876 0.0037749,0 0.00649982,8.92103e-005 0.0103765,0.000296699 0.00325768,0.000174912 0.00592747,0.0011863 0.00978407,0.0011863l0.0011863 0zm0.0403216 -0.0925327c0,0.00521379 0.00415329,0.00860078 0.00889447,0.00860078 0.00459333,0 0.00830207,-0.00396385 0.00830207,-0.00860078 0,-0.0111117 -0.0171965,-0.0110831 -0.0171965,0zm-0.0508479 -0.0749973c0.0687546,0 0.124509,0.0557549 0.124509,0.124509 0,0.0687526 -0.0557544,0.124508 -0.124509,0.124508 -0.0687511,0 -0.124508,-0.0557549 -0.124508,-0.124508 0,-0.0687536 0.0557564,-0.124509 0.124508,-0.124509zm-0.080607 0.0590988l0.174478 0.104438c0.00567839,-0.00810812 0.00991487,-0.0141925 0.00979309,-0.03901 0.00105348,-0.0583962 -0.0490361,-0.106356 -0.103664,-0.104079 -0.0419609,0.00328825 -0.060871,0.0165355 -0.080607,0.0386511zm0.164492 0.126568l-0.178717 -0.103216c-0.00567488,0.0128658 -0.00883032,0.0271009 -0.00883032,0.0420757 0,0.0574715 0.0464214,0.104078 0.103662,0.104078 0.0344873,0 0.0650408,-0.0169209 0.0838853,-0.0429382z"/>
 </g>
</svg>
