<?xml version="1.0" encoding="UTF-8"?>
<!DOCTYPE svg PUBLIC "-//W3C//DTD SVG 1.1//EN" "http://www.w3.org/Graphics/SVG/1.1/DTD/svg11.dtd">
<!-- Creator: CorelDRAW -->
<svg xmlns="http://www.w3.org/2000/svg" xml:space="preserve" width="25in" height="39in" style="shape-rendering:geometricPrecision; text-rendering:geometricPrecision; image-rendering:optimizeQuality; fill-rule:evenodd; clip-rule:evenodd"
viewBox="0 0 0.800467 0.435773"
 xmlns:xlink="http://www.w3.org/1999/xlink">
 <defs>
  <style type="text/css">
   <![CDATA[
    .fil0 {fill:#141516}
   ]]>
  </style>
 </defs>
 <g id="Layer_x0020_1">
  <metadata id="CorelCorpID_0Corel-Layer"/>
  <path class="fil0" d="M0.58799 0.156047c0,0.00699683 -0.00485115,0.0108219 -0.00935456,0.0108219l-0.0013362 0c-0.00311591,0 -0.00668216,-0.00577463 -0.00668216,-0.0108219 0,-0.00665479 0.00391512,-0.0086591 0.00801836,-0.0086591l0.00133734 0c0.00410324,0 0.00801722,0.00200431 0.00801722,0.0086591zm0.151237 0.273856c-0.00123359,-0.00161097 -0.0025584,-0.00399949 -0.00397669,-0.00716442 -0.00141715,-0.00316493 -0.00298936,-0.00710742 -0.00471548,-0.0118263 -0.00357537,-0.00932378 -0.00678021,-0.0157699 -0.00961565,-0.0193373 -0.00443843,-0.0058704 -0.0102324,-0.00886318 -0.0173832,-0.00897833 -0.00283544,0.000921205 -0.00425259,0.00247517 -0.00425259,0.00466189 0,0.000806054 0.000924625,0.00281948 0.00277388,0.00604256 0.00135559,0.00195642 0.00234178,0.00345338 0.00295857,0.00448859 0.000616797,0.00103636 0.000924625,0.00155396 0.000924625,0.00155396 0.00616455,0.0123166 0.00906156,0.0193955 0.00869102,0.0212367l-0.0331007 -0.00397099 -0.0144246 0c-0.00123245,0 -0.00332797,0.000172156 -0.00628654,0.000517608 -0.00147986,0.000230301 -0.00277388,0.000403597 -0.00388434,0.000518748 -0.00110932,0.000115151 -0.00203395,0.000172156 -0.00277388,0.000172156 -0.00135559,0 -0.00228021,-5.70053e-005 -0.00277388,-0.000172156 0.00616455,-0.00759766 0.0107569,-0.0132948 0.013777,-0.0170936 0.00302014,-0.00379769 0.00459234,-0.00575411 0.00471548,-0.00586926 0.00912312,-0.0143881 0.0136847,-0.025381 0.0136847,-0.0329775 0,-0.0058704 -0.00221864,-0.0108766 -0.00665707,-0.0150209 -0.00147986,-0.00138067 -0.0036985,-0.00258918 -0.00665707,-0.00362553 -0.000616797,-0.000230301 -0.00154142,-0.000517608 -0.00277388,-0.00086306 -0.00123359,-0.000345452 -0.00277388,-0.000806054 -0.00462313,-0.00138067 -0.00110932,-0.000230301 -0.00231213,-0.000460603 -0.00360615,-0.000690904 -0.00129402,-0.000230301 -0.00268153,-0.000460603 -0.00416138,-0.000690904 -0.000986191,-0.000115151 -0.00178654,-0.000632758 -0.00240334,-0.00155396 0.0040679,-0.00322308 0.00807537,-0.00661831 0.0120201,-0.0101868 0.00505409,-0.00506435 0.0075817,-0.00943779 0.0075817,-0.0131215 0,-0.00149582 -0.000370534,-0.00293463 -0.00110932,-0.00431644 -0.00147986,-0.00264732 -0.00573359,-0.0049492 -0.0127601,-0.00690562 -0.00628768,-0.00172612 -0.0127601,-0.00259032 -0.0194171,-0.00259032 -0.00295857,0 -0.00567088,0.000288447 -0.00813579,0.0008642 -0.00367,0.000894983 -0.00693754,0.00193476 -0.00980262,0.00312047 -0.017569,-0.00795793 -0.040671,-0.0183796 -0.0443284,-0.0200659 -0.0103533,-0.00477248 -0.0529465,-0.0333207 -0.0568947,-0.0420471 0.0277946,0.0104878 0.0560829,0.030304 0.0908709,0.030304l0.0440993 0c0.0260662,0 0.0599376,-0.0200659 0.0761396,-0.0368493 0.0195699,-0.0202722 0.0321042,-0.0536226 0.0321042,-0.106014l0 -0.0064929c0,-0.0156149 -0.0045969,-0.0330425 -0.00534595,-0.0476211l0.00400975 0c0.0225365,0 0.0251975,0.00910602 0.0387533,0.02381l0 -0.0064929c-0.00966809,-0.0180194 0.00459234,-0.0236686 -0.01896,-0.049378 -0.0116815,-0.0127521 -0.0155237,-0.0220542 -0.0344927,-0.0220542l-0.0106908 0c-0.029816,0 -0.223633,0.140728 -0.253905,0.166673 -0.00490587,-0.0118651 -0.0187091,-0.0361493 -0.0187091,-0.054114 0,-0.0184469 0.0331394,-0.0596081 0.0424963,-0.0697003 0.00690106,-0.00744375 0.0525486,-0.0489253 0.0537206,-0.0515168 -0.0103761,0.00391512 -0.0455928,0.0329126 -0.0553453,0.0423937 -0.0159934,0.0155488 -0.0350765,0.0388434 -0.04889,0.0506834l-0.00519546 -0.106261 -0.0080252 0.101956c-0.0017455,-0.000717126 -0.0412114,-0.0430185 -0.0513697,-0.0512512 -0.0125081,-0.0101367 -0.0441848,-0.0348428 -0.0570167,-0.0396848 0.0082156,0.0181619 0.0785601,0.0687791 0.0975531,0.114722 -0.00504953,0.0154587 -0.0147758,0.0476211 -0.0280637,0.0476211 -0.00297339,0 -0.13976,-0.0793354 -0.155195,-0.0884562 -0.0404076,-0.0238761 -0.118353,-0.0630649 -0.170872,-0.0630649l-0.012027 0c-0.00263364,0 -0.0343491,0.0395286 -0.038954,0.0451333 -0.0153071,0.0186293 -0.0214146,0.0275541 -0.0265268,0.0630957l0.0307749 -0.0236754c-0.00167367,0.0112369 -0.00538358,0.0306403 -0.00538358,0.0431575l0 0.0281389c0,0.0599752 0.0581191,0.0952421 0.097552,0.0952421l0.0521176 0c0.0734718,0 0.150567,-0.035585 0.211142,-0.0584441 -0.00341119,0.00754294 -0.0387225,0.0477145 -0.0462199,0.0550089 -0.00644844,0.00627514 -0.0310166,0.0299015 -0.042779,0.0422614 -0.000286166,-4.3324e-005 -0.000575753,-8.43678e-005 -0.00086762,-0.000124271 -0.00258804,-0.000345452 -0.00856789,-0.000690904 -0.0179373,-0.00103636 -0.00517722,-0.000230301 -0.0106634,0.00100785 -0.0164574,0.00371218 -0.00579516,0.00270547 -0.0107877,0.00618735 -0.0149798,0.0104456 -0.00678021,0.00702077 -0.0101697,0.0134669 -0.0101697,0.0193373 0,0.00161097 0.000246263,0.00293463 0.000738788,0.00397099 0.00554775,0.0122003 0.0180615,0.018301 0.0375402,0.018301 0.00123245,0 0.00249569,-2.85026e-005 0.00379085,-8.6648e-005 0.00129402,-5.70053e-005 0.00268153,-0.000143653 0.00416024,-0.000258804 0.0043153,-0.000804914 0.0080138,-0.00152432 0.0110955,-0.00215822 0.0030817,-0.000632758 0.00548619,-0.00123701 0.00721231,-0.00181277 0.00678021,-0.00172612 0.012328,-0.00512135 0.0166433,-0.0101857 0.00394476,-0.00472004 0.00591715,-0.00989953 0.00591715,-0.0155396 0,-0.00759652 -0.00345224,-0.0137542 -0.0103556,-0.0184731 -0.00272257,-0.00187319 -0.00579858,-0.00335761 -0.00922801,-0.00445325 0.0330745,-0.0190238 0.0988608,-0.0859218 0.0992678,-0.0859218 0.00360957,0 0.00368482,0.00103408 0.00668216,0.00216506 0.00417165,-0.00452394 0.0126369,-0.0238111 0.0173729,-0.0238111l0.018708 0c0.00856105,0 0.019644,0.0575411 0.0272006,0.0924147 -0.00140233,-0.00424005 -0.00412946,-0.00702875 -0.00818254,-0.00836381 -0.000369394,-0.000115151 -0.00104776,-0.000173296 -0.00203395,-0.000173296 -0.00234178,0 -0.00542462,0.00138181 -0.00924625,0.00414428 -0.00357537,0.00276248 -0.00628768,0.00483405 -0.00813579,0.00621585 -0.00184925,0.00138067 -0.00277502,0.00207157 -0.00277502,0.00207157 -0.011588,0.00748137 -0.0200328,0.0149057 -0.0253343,0.022272 -0.00209551,0.00299278 -0.00314327,0.0061007 -0.00314327,0.00932378 0,0.0051795 0.0030817,0.0116245 0.00924625,0.0193373 -0.00246605,0.000344312 -0.00511565,0.000632758 -0.00795223,0.00086306 -0.00283544,0.000230301 -0.00591715,0.000402457 -0.00924511,0.000517608 -0.00357537,0.00333823 -0.00536306,0.00598555 -0.00536306,0.00794197 0,0.00322308 0.00412946,0.00483405 0.0123895,0.00483405 0.00690334,0 0.0129448,-0.000747909 0.018122,-0.00224373 0.00086306,0.00103522 0.00169534,0.00207157 0.00249683,0.00310679 0.000801494,0.00103636 0.00163377,0.00212972 0.00249683,0.00328122 0.000986191,0.00126552 0.00197238,0.00235888 0.00295857,0.00328008 0.000986191,0.000921205 0.00197238,0.00166911 0.00295857,0.00224487 0.00197238,-0.000230301 0.00372928,-0.000403597 0.00527071,-0.000518748 0.00154142,-0.000115151 0.00280466,-0.000230301 0.00379085,-0.000345452 0.000986191,-0.000920065 0.00147872,-0.00184127 0.00147872,-0.00276133 0,-0.00115151 -0.000801494,-0.00282062 -0.00240334,-0.00500734 -0.00147986,-0.00218672 -0.00209551,-0.00379883 -0.00184925,-0.00483405 0.000369394,-0.000115151 0.0034511,-0.000518748 0.00924625,-0.00120851 0.0034511,-0.000345452 0.00702647,-0.00115151 0.010725,-0.00241702 0.00135673,0.000115151 0.00280466,-0.000288447 0.00434608,-0.00120851 0.00154142,-0.000921205 0.00249683,-0.00201457 0.00286622,-0.00328122 -0.00123245,-0.00207157 -0.00480782,-0.00333823 -0.010725,-0.00379769 -0.00246605,-0.000115151 -0.0049321,-0.000230301 -0.007397,-0.000345452 -0.00246605,-0.000115151 -0.0049321,-0.000288447 -0.007397,-0.000518748 -0.00443843,-0.000115151 -0.0078291,-0.000115151 -0.0101709,0 -0.00283544,-0.00172612 -0.00523992,-0.0054098 -0.00721231,-0.0110488 -0.000369394,-0.00103636 -0.000554091,-0.00207271 -0.000554091,-0.00310793 0,-0.00437458 0.00320484,-0.00920863 0.00961565,-0.0145033 0.00246491,-0.00195642 0.00499252,-0.00385584 0.0075817,-0.00569711 0.00258918,-0.00184241 0.00517722,-0.00374069 0.0077664,-0.00569825 0.000616797,0.00264732 0.00126438,0.00532429 0.0019416,0.00802862 0.000678363,0.00270547 0.00132594,0.0054383 0.0019416,0.00820078 0.00147986,0.0054098 0.00314441,0.00846072 0.00499366,0.00915048 0.00382163,-0.00126552 0.00678021,-0.00207157 0.00887572,-0.00241702 0.00147986,-0.00276248 0.00221978,-0.00604256 0.00221978,-0.00984139 0,-0.00379769 -0.000739928,-0.00857473 -0.00221978,-0.01433 -0.000246263,-0.00184127 -0.000554091,-0.00362553 -0.000924625,-0.00535165 -0.000331771,-0.00155282 -0.000614517,-0.00315239 -0.000847098,-0.00479756 0.00245237,0.0112791 0.00452166,0.0200488 0.00599239,0.023477l0.000907524 -0.000311249c-0.000828857,0.00124614 -0.00124499,0.00237484 -0.00124499,0.00338611 0,0.00115037 0.00215822,0.00408614 0.00647238,0.00880503 0.00234292,0.00115037 0.00437686,0.00221522 0.00610298,0.00319343 0.00172612,0.00097935 0.00320484,0.00187091 0.00443843,0.00267697 -0.00209665,0.00161097 -0.0041306,0.00328008 -0.00610298,0.0050062 -0.00197238,0.00172726 -0.00400633,0.00339637 -0.00610184,0.00500734 -0.00443843,0.00402913 -0.0075817,0.00851773 -0.00943209,0.0134669 -0.000615657,0.00172612 -0.000923485,0.00333823 -0.000923485,0.00483405 0,0.0058704 0.00302014,0.0112802 0.00906042,0.0162294 0.00604142,0.00483405 0.0122048,0.00696376 0.0184925,0.00638801l0.0110955 -0.000517608c0.00197238,-0.000115151 0.00434494,-0.000460603 0.00711882,-0.00103636 0.00277502,-0.000574613 0.0060722,-0.00132366 0.00989383,-0.00224373 0.00567088,-0.00149696 0.0114649,-0.00431644 0.0173832,-0.00846072 0.00436774,-0.00296541 0.0073286,-0.00588408 0.00888256,-0.00875487 0.000368254,-0.000314669 0.000735368,-0.000619077 0.00110248,-0.000913224 0.00086306,-0.000690904 0.00172612,-0.00143881 0.00258918,-0.00224487 0.000616797,-0.000459462 0.00160299,-0.000689764 0.00295857,-0.000689764 0,-0.000575753 6.15657e-005,-0.00123815 0.000185837,-0.00198606 0.000123131,-0.000747909 0.000492525,-0.00141031 0.00110932,-0.00198606 0.00184925,0.000460603 0.00412946,0.000690904 0.00684177,0.000690904 0.00480782,0 0.0127601,-0.00103522 0.0238556,-0.00310793 0.00271117,0.00241702 0.0053927,0.00492069 0.00804344,0.00751101 0.00265074,0.00258918 0.00527071,0.00526615 0.00785989,0.00802862 0.00332797,-0.00149696 0.00523878,-0.00276248 0.00573245,-0.00379883 0.000492525,-0.00103636 0.000739928,-0.00212972 0.000739928,-0.00328008 0,-0.00230187 -0.00108082,-0.00521256 -0.00323904,-0.00873321 0.000883582,0.00134646 0.00171586,0.00264618 0.00249911,0.00389916 0.00086306,0.00138067 0.00178769,0.00281948 0.00277388,0.0043153 0.0030817,0.00356853 0.00653394,0.00529579 0.0103556,0.00518064 0.00443843,-0.000690904 0.00665707,-0.00247517 0.00665707,-0.00535279 0,-0.00161097 -0.000801494,-0.00408614 -0.00240448,-0.00742437 -0.00172612,-0.00356739 -0.00246491,-0.00598441 -0.00221864,-0.00725107 0.00357537,-0.000575753 0.00687255,-0.00103636 0.00989269,-0.00138067 0.00302128,-0.000345452 0.00576437,-0.000518748 0.00822928,-0.000518748 0.0109724,0 0.0164586,0.00339523 0.0164586,0.0101868 0,0.00483405 -0.0030817,0.0119711 -0.00924625,0.0214089 -0.00283544,0.00448859 -0.00893843,0.012776 -0.0183078,0.0248623 -0.00752013,0.00989839 -0.012328,0.0169192 -0.0144235,0.0210634 -0.000246263,0.000690904 -0.000370534,0.00115037 -0.000370534,0.00138067 0,0.00195756 0.00258918,0.00293577 0.00776754,0.00293577 0.00567088,0 0.0121433,-0.000806054 0.0194171,-0.00241702 0.00517722,-0.00115151 0.0105711,-0.00187091 0.0161804,-0.00215822 0.00560932,-0.000288447 0.0114341,-0.000143653 0.0174755,0.00043096 0.00961565,0.00126666 0.0182759,0.00247517 0.0259819,0.00362667 0.00770483,0.00115037 0.0145158,0.00218672 0.020433,0.00310679 0.00147986,0 0.00314441,-0.000632758 0.00499366,-0.00189828 0.00184925,-0.00126666 0.00302014,-0.00259032 0.0035138,-0.00397213zm-0.129466 -0.117668c-0.00032037,0.000368254 -0.000622497,0.000744489 -0.000905244,0.00112756 -0.000246263,0.000460603 -0.000307828,0.00126666 -0.000184697,0.00241702 0.000123131,0.000460603 0.000246263,0.00086306 0.000369394,0.00120851 0.000123131,0.000345452 0.000246263,0.000749049 0.000370534,0.00120851 0.000123131,0.00172726 -0.000247403,0.00448973 -0.00111046,0.00828743 0.000123131,0.000806054 0.00021662,0.00201457 0.000278186,0.00362553 6.15657e-005,0.00161211 9.23485e-005,0.00362667 9.23485e-005,0.0060437 0.000246263,0.0049492 0.000615657,0.00868988 0.00110932,0.0112221 -0.000493666,0.000460603 -0.000924625,0.000921205 -0.00129402,0.00138181 -0.000370534,0.000459462 -0.000801494,0.000920065 -0.00129516,0.00138067 -0.000171016,0.000206359 -0.00032151,0.000411578 -0.000449201,0.000617937 -0.0014753,-0.00172612 -0.00311249,-0.00354231 -0.00491271,-0.00545198 -0.00998618,-0.0105893 -0.0148556,-0.0184743 -0.0146093,-0.0236538 -0.0030817,-0.00184127 -0.00665707,-0.00276248 -0.0107261,-0.00276248 -0.00160185,0 -0.0026496,0.000230301 -0.00314327,0.000690904 -0.00604028,0.0051795 -0.0133757,0.0166319 -0.0220052,0.0343582 -0.000590575,0.00126324 -0.00109678,0.00244781 -0.0015209,0.00355713 -0.00155624,0.000420699 -0.00302242,0.00211262 -0.00439739,0.00507461 -0.00283544,0.00541094 -0.0080138,0.00972624 -0.0155339,0.0129493 -0.00702647,0.00299278 -0.0141772,0.00448973 -0.0214511,0.00448973 -0.0109712,0 -0.0164574,-0.00293577 -0.0164574,-0.00880617 0,-0.0054098 0.00560932,-0.0123154 0.016828,-0.020718 0.00480782,-0.00345338 0.00986191,-0.00558196 0.0151634,-0.00638801 0.00209551,-0.000230301 0.0041306,-0.000460603 0.00610298,-0.000690904 0.00197238,-0.000230301 0.00394476,-0.000460603 0.00591715,-0.000690904 0.0040679,-0.000574613 0.00690334,-0.00207157 0.00850633,-0.00448859 -0.0030817,-0.0049492 -0.00893729,-0.00742437 -0.0175679,-0.00742437l-0.00869102 0c-0.00850633,0 -0.0146709,-0.00207157 -0.0184925,-0.00621471 0.00826006,-0.00667646 0.0155339,-0.0100147 0.0218205,-0.0100147 0.00480896,0 0.0084459,0.00236002 0.0109108,0.00707891 0.00123245,0.000230301 0.00215822,0.000345452 0.00277388,0.000345452 0.000986191,0 0.00234292,-0.000287307 0.00406904,-0.00086306 0.00172498,-0.000575753 0.00302014,-0.00097821 0.0038832,-0.00120851 0.000246263,-0.00115151 0.000369394,-0.00201457 0.000369394,-0.00259032 0,-0.00414314 -0.00314327,-0.00776868 -0.00943095,-0.0108766 -0.00579401,-0.00276248 -0.0109724,-0.00379883 -0.0155339,-0.00310793 -0.00801266,0.00126552 -0.0122664,0.00195642 -0.0127589,0.00207157 -0.00443843,0.00161211 -0.00961565,0.00437458 -0.0155339,0.00828743 -0.00420813,0.00293007 -0.00719862,0.00551355 -0.00897263,0.0077493l-0.0128843 -0.0985644 0.00812211 0.0160721c0.00290043,-0.00328008 0.00283772,-0.00499252 0.00583392,-0.00499252 5.81454e-005,0 0.0588443,0.0506036 0.0693093,0.0565697 0.0210463,0.0119985 0.0364765,0.0187388 0.0580325,0.0216928zm0.0429215 0.00233608c-0.000123131,0.00195756 -0.00332911,0.00575525 -0.00961679,0.0113954 -0.00628654,0.00552495 -0.0114649,0.00926564 -0.0155328,0.0112221 0,0.000115151 0,-5.70053e-005 0,-0.000517608 0,-0.000575753 -6.15657e-005,-0.00138067 -0.000184697,-0.00241702 -0.000124271,-0.00126552 -0.00021662,-0.00276248 -0.000278186,-0.00448859 -6.04256e-005,-0.00172726 -9.23485e-005,-0.00368368 -9.23485e-005,-0.0058704 0,-0.00581682 0.00379085,-0.00909918 0.0113703,-0.00984823 0.00101925,9.12084e-006 0.00204877,1.48214e-005 0.00309539,1.48214e-005 -1.14011e-005,-1.25412e-005 -0.000133392,-7.41068e-005 -0.000336331,-0.000172156 0.000279326,-5.70053e-006 0.000562072,-7.98074e-006 0.000850519,-7.98074e-006 0.000492525,0 0.00160185,5.70053e-005 0.00332797,0.000172156 0.00172612,0.000115151 0.00419217,0.000287307 0.007397,0.000517608zm-0.0667566 0.0371207c-0.00135673,-0.000115151 -0.00271231,-0.000201799 -0.00406904,-0.000258804 -0.00135559,-5.81454e-005 -0.00271231,-0.000143653 -0.0040679,-0.000258804 -0.00295857,-0.000115151 -0.00554775,-0.000575753 -0.00776754,-0.00138181 0.00111046,-0.00195642 0.00212744,-0.00368254 0.00305206,-0.0051795 0.000924625,-0.00149582 0.00169534,-0.00276248 0.00231099,-0.00379769 0.00480782,0.0051795 0.00832163,0.00880503 0.0105414,0.0108766zm-0.295507 -0.0298685c0.00998618,0.000574613 0.0149787,0.0049492 0.0149787,0.0131215 0,0.0051795 -0.00203395,0.00972624 -0.00610298,0.0136391 -0.00419103,0.00425943 -0.00930668,0.00604256 -0.0153481,0.00535279 -0.00357537,0.000115151 -0.00702647,-2.85026e-005 -0.0103556,-0.0004321 -0.00332797,-0.000402457 -0.00647238,-0.00106486 -0.00943095,-0.00198492 -0.00715074,-0.00218786 -0.0102324,-0.00529465 -0.00924625,-0.00932378 0.00110932,-0.00437344 0.00437686,-0.00886318 0.00980034,-0.0134669 0.00480896,-0.00414314 0.00961679,-0.00696376 0.0144246,-0.00845958 0.000616797,-0.000230301 0.00221864,0.000230301 0.00480782,0.00138067 0.000616797,0.000115151 0.00147986,0.000201799 0.00258918,0.000258804 0.00110932,5.81454e-005 0.00240334,2.96427e-005 0.0038832,-8.55079e-005zm-0.0591749 -0.0238271l-0.000739928 0 -0.000184697 0.00293577 0.000738788 0 0.000185837 -0.00293577zm0.00832163 -0.00224373c-0.00209665,-0.000230301 -0.00289815,-0.00109336 -0.00240448,-0.00259032 -0.000739928,0.00115151 -0.00135559,0.00172726 -0.00184925,0.00172726 0,-0.000345452 6.15657e-005,-0.000690904 0.000184697,-0.00103636 0.000123131,-0.000345452 0.000184697,-0.000575753 0.000184697,-0.000690904 -0.00123245,0.000460603 -0.00147872,0.00155396 -0.000738788,0.00328008 -0.00123359,0.00115151 -0.00209665,0.00178426 -0.00258918,0.00189942 -0.00086306,-0.000804914 -0.00154142,-0.00109336 -0.00203395,-0.00086306 -0.00283544,0.00448859 -0.00585672,0.0123166 -0.00906156,0.0234805 -0.000986191,0.00402913 -0.00203395,0.00811527 -0.00314327,0.0122584 -0.00111046,0.00414428 -0.00215822,0.00828743 -0.00314441,0.0124317 -0.000615657,-0.000460603 -0.0021263,-0.00146732 -0.00453078,-0.00302128 -0.00240334,-0.00155396 -0.00570167,-0.00377033 -0.00989269,-0.00664795 -0.00283544,-0.00195642 -0.00539384,-0.00362553 -0.00767519,-0.0050062 -0.00228021,-0.00138181 -0.00443729,-0.00261882 -0.00647124,-0.00371218 -0.00203509,-0.00109336 -0.00400747,-0.00210121 -0.00591829,-0.00302128 -0.00191082,-0.000921205 -0.00379085,-0.00189942 -0.0056401,-0.00293577 -0.00493096,-0.00230187 -0.00899885,-0.00345224 -0.0122048,-0.00345224 -0.0030817,0 -0.00560932,0.00086306 -0.0075817,0.00258918 -0.000123131,0.000460603 -0.000523308,0.00135216 -0.00120167,0.00267583 -0.000678363,0.00132366 -0.000955408,0.00221636 -0.000832277,0.00267697 0.00283544,0.00425829 0.00505409,0.00713592 0.00665707,0.00863174 0.00234178,0.00552495 0.00382163,0.0113383 0.00443843,0.017439 0.000369394,0.00195642 0.000739928,0.00396985 0.00110932,0.00604256 0.000369394,0.00207157 0.000801494,0.00420129 0.00129402,0.00638801 0.000986191,0.00414314 0.00326754,0.00615771 0.00684291,0.00604256l0.00332797 0c0.00221978,-0.00184127 0.00332911,-0.00431644 0.00332911,-0.00742437 0,-0.00149582 -0.0004321,-0.00443045 -0.00129516,-0.00880503 -0.000738788,-0.00483405 -0.00110932,-0.00915048 -0.00110932,-0.0129493 0.0136847,0.00644616 0.0250265,0.0136402 0.0340264,0.0215822 0.00086306,0.000921205 0.00172498,0.00178426 0.00258804,0.00259032 0.00086306,0.000804914 0.00178769,0.00166797 0.00277388,0.00258918 0.00234292,0.00218672 0.0043153,0.00345338 0.00591829,0.00379883 0.00135559,0.000230301 0.0032664,0.000143653 0.00573245,-0.000259944 0.00246491,-0.000402457 0.00419103,-0.000948568 0.00517722,-0.00163947 0.00172612,-0.00103636 0.00258918,-0.00293577 0.00258918,-0.00569825 0,-0.000804914 -6.15657e-005,-0.00172612 -0.000184697,-0.00276248 -0.000123131,-0.00103522 -0.000307828,-0.00224373 -0.000555231,-0.00362553 -0.000369394,-0.00287763 -0.000554091,-0.00771167 -0.000554091,-0.0145021 0.000739928,-0.0110499 0.00147872,-0.0193373 0.00221864,-0.0248623 0.00184925,-0.00322308 0.00277388,-0.00868988 0.00277388,-0.0164027 0,-0.00241702 -0.000184697,-0.00448859 -0.000554091,-0.00621471zm-0.0618325 -0.139705c0.00622954,-0.0067574 0.0191629,-0.0151531 0.0293999,-0.0151531 0.0144896,0 0.0316676,0.012068 0.0374171,0.025975 -0.0045456,0.00493096 -0.0111776,0.010823 -0.018708,0.010823l-0.0187091 0c-0.0110294,0 -0.0250869,-0.0112129 -0.0293999,-0.0216449zm0.402239 0.038962c0.00320256,-0.0194354 0.037864,-0.0541151 0.0547889,-0.0541151l0.0120281 0 0 0.00649404c0,0.0266978 -0.027578,0.05195 -0.0467728,0.05195l-0.00668102 0c-0.0052194,0 -0.00992918,-0.00165999 -0.0133632,-0.00432898zm-0.391549 -0.0865842c0.00450342,0 0.00935456,0.00382619 0.00935456,0.010823l0 0.00433012c0,0.00699683 -0.00485115,0.010823 -0.00935456,0.010823l-0.0013362 0c-0.00450342,0 -0.00935456,-0.00382619 -0.00935456,-0.010823l0 -0.00433012c0,-0.00699683 0.00485115,-0.010823 0.00935456,-0.010823l0.0013362 0zm0.462374 0.00216506c0.0268312,-0.0101241 0.0473144,-0.0268575 0.0828526,-0.0281401l0.00468355 0.0431199c0.000852799,0.0158019 -0.00908664,0.0501498 -0.013451,0.0595659 -0.00759082,0.0163765 -0.0151315,0.0249113 -0.0268597,0.0344186 -0.0207374,0.0168131 -0.0501703,0.0252397 -0.0806339,0.0252397l-0.0106908 0c-0.0304089,0 -0.0857302,-0.0197922 -0.105571,-0.036798 0.0056059,-0.0135581 0.0432043,-0.0471057 0.0574624,-0.0476211l0 0.00649404c0,0.0253662 0.0201582,0.0476211 0.0374183,0.0476211l0.00668102 0c0.0255178,0 0.0547912,-0.0283544 0.0547912,-0.069266 0,-0.0166763 -0.00488649,-0.0221465 -0.00668216,-0.0346341zm-0.56396 -0.024323l0.0133871 0.000513047 0.000183557 -0.00221636 0.0680073 0.0147587c-0.000692044,0.0131922 -0.00538244,0.0156354 -0.00538244,0.0307486l0 0.010823c0,0.0346626 0.0268905,0.0541151 0.0494441,0.0541151l0.012027 0c0.0195881,0 0.0374183,-0.0220679 0.0374183,-0.0584441 0.0183762,0.00693412 0.0367319,0.0138204 0.0537104,0.0212288 0.0172487,0.00752697 0.0367809,0.0238749 0.0491876,0.0285562 -0.0203201,0.0286098 -0.142186,0.0584441 -0.188424,0.0584441l-0.00400861 0c-0.0482265,0 -0.113589,-0.0255532 -0.113589,-0.097406l0 -0.025975 0.00269065 -0.0320666 0.025348 -0.00307942z"/>
 </g>
</svg>
