<?xml version="1.0" encoding="UTF-8"?>
<!DOCTYPE svg PUBLIC "-//W3C//DTD SVG 1.1//EN" "http://www.w3.org/Graphics/SVG/1.1/DTD/svg11.dtd">
<!-- Creator: CorelDRAW -->
<svg xmlns="http://www.w3.org/2000/svg" xml:space="preserve" width="25in" height="39in" style="shape-rendering:geometricPrecision; text-rendering:geometricPrecision; image-rendering:optimizeQuality; fill-rule:evenodd; clip-rule:evenodd"
viewBox="0 0 4.84645 3.28334"
 xmlns:xlink="http://www.w3.org/1999/xlink">
 <defs>
  <style type="text/css">
   <![CDATA[
    .fil0 {fill:black}
   ]]>
  </style>
 </defs>
 <g id="Layer_x0020_1">
  <metadata id="CorelCorpID_0Corel-Layer"/>
  <path class="fil0" d="M2.88487 1.62173l-0.300326 0.0267664c0.0200558,-0.0127232 0.329437,-0.0857657 0.360824,-0.0848459l0.236678 0.0230373c0.0686681,0.0073939 0.376835,-0.0417995 0.4594,-0.0556908 0.12301,-0.0206983 0.336627,-0.0576298 0.458104,-0.0585263l0.205388 0.155424c-0.0707093,-0.00588417 -0.14711,-0.0412067 -0.216336,-0.0412067 -0.0442729,0 -0.0881953,0.0322008 -0.126616,0.0368381 -0.018146,0.00219014 -0.114979,-0.0204121 -0.142041,-0.0257297 -0.130696,-0.0256801 -0.145495,-0.0467112 -0.276556,-0.0206311 -0.163151,0.0324666 -0.408458,0.0993154 -0.569316,0.108715l0.104969 -0.0578926 -0.331715 0.0460338 0.137543 -0.0522917zm-0.949337 -0.0968537l0.0515091 0 0 0.0206019 -0.0515091 0.0103024 0 -0.0309043zm-0.0623722 0.000216093l-0.0116603 -0.0303845 0.0328258 -0.000735886 -0.0211655 0.0311204zm-1.10172 -0.000216093c0.00981181,-0.027111 0.221884,-0.236941 0.24724,-0.236941 0.030256,0 0.0521603,0.0309043 0.0824134,0.0309043 0.0388005,0 0.0194805,-0.00677774 0.0618115,-0.0102995l0.311361 0.181454c-0.0723942,-0.0123524 -0.230484,-0.078439 -0.290757,-0.078439l-0.0721139 0 0.0534715 0.13309 -0.132588 -0.146251 -0.093732 0.138314 0.0173254 -0.125328 -0.184433 0.113496zm1.45255 0.133922c-0.101211,0 -0.164827,-0.102948 -0.164827,-0.206036 0,-0.12195 0.0850941,-0.267845 0.195731,-0.267845 0.0845071,0 0.154527,0.0885078 0.154527,0.175129l0 0.0721139c0,0.0951103 -0.0943073,0.226638 -0.185432,0.226638zm-0.41207 -0.216336c0.0413848,0.01105 0.0298209,0.00279461 0.0309043,0.0515091 -0.026743,-0.0179095 -0.0274906,-0.0104805 -0.0309043,-0.0515091zm0.072111 0.0309043l-0.0311204 -0.0211684 0.0303845 -0.0116574 0.000735886 0.0328258zm0.0824163 -0.0206048l-0.0309072 0c-0.0311437,0 -0.0284835,-0.0121217 -0.0309043,-0.0412067l0.0613151 0.0127787 0.000496431 0.028428zm0.0102995 -0.103015l-0.0618086 -0.0103024 0 -0.0309043c0.0439079,0.00365315 0.0523034,0.00560675 0.0618086,0.0412067zm1.1538 0.133922c-0.0354452,0 -0.0515091,-0.0866126 -0.0515091,-0.133922l0.0103024 0 0 0.0515091 0.060915 -0.0324841 0.000896496 -0.0396298 -0.0412067 0.0309043 0 -0.0206019 -0.0206048 0c0.00122064,-0.0547885 0.0273738,-0.103018 0.0824134,-0.103018 0.0186045,0 0.0412096,0.0565844 0.0412096,0.0824134l0 0.0309072c0,0.0541081 -0.0326068,0.133922 -0.0824163,0.133922zm0.0124049 -0.21581c-0.0409351,0.00984101 -0.0601178,0.0382398 -0.0127729,0.05089l0.0127729 -0.05089zm-1.12201 -0.0256684c-0.0312051,0.0175912 -0.0440422,0.00913433 -0.0745318,-0.00554835l0.0116603 -0.0303845 0.0628715 0.0359328zm-0.0834004 -0.124911l0.0100221 0.00411162 -0.0662765 0.0619049 -0.00904672 -0.00744062 0.0235922 0.0284251 -0.0133423 0.021329 -0.0295756 -0.00922194c0.00702596,0.0286645 0.0105185,0.0170451 0.0105185,0.0406431 0,0.0183387 -0.0154478,0.016902 -0.0309043,0.0206019l0.022097 0.0296661 -0.0228767 0.0317073c0.0142417,0.0275928 0.0110792,-0.0080451 0.0110792,0.0313423 0,0.0138971 -0.0114325,0.0154536 -0.0206019,0.0206048l0.0125509 0.0406168 -0.0324169 -0.011634 -0.000738806 -0.0495876 0.0206048 0 0 -0.0206019 -0.0206048 0 0.025756 -0.0360584 -0.0169487 -0.024512 0.0271081 -0.0366483c-0.01244,-0.032452 -0.00483874,-0.055685 0.0361986,-0.0367038l-0.0207304 -0.0411308 0.0600915 -0.0257151 -0.0175883 -0.0129422 0.0420331 -0.0187563zm0.101021 0.0985445l-0.0626905 -0.0314504 0.0120604 -0.0195156c0.0330535,0.0174101 0.039548,0.00945847 0.0506301,0.0509659zm-0.669612 -0.0206048c-0.028501,0 -0.0247777,-0.00794874 -0.0309072,-0.0309043l0.0614669 0.0118618 0.000344581 0.0190425 -0.0309043 0zm0.713392 -0.0344348c-0.0250084,0.0139059 -0.0643813,0.00817359 -0.0643813,-0.0170743 0,-0.00138417 0.010136,-0.0204062 0.0102995,-0.0206019l0.0540818 0.0376762zm-0.52796 -0.0479786l-0.103018 -0.0103024 0 -0.0309043 0.360143 0.064206 -0.0222401 0.131169c-0.0582868,-0.000987022 -0.2647,-0.0393874 -0.276094,-0.0820571l0.0423631 -0.000914017 -0.0752648 -0.0196995 0.0019974 -0.0102907 0.0721139 0 0 -0.0103024 -0.0840954 -0.0118005 0.0840954 -0.00880143 0 -0.0103024zm0.0309043 0.0789792l-0.0309043 0 0.0309043 0zm2.63725 -0.130488c0.0183125,-0.0183154 -0.0183154,0.0183154 0,0zm-2.20692 -0.239283c0.0605033,0.0158916 0.125133,0.0351035 0.179232,0.0520873 0.0526976,0.0165458 0.0918514,0.124487 0.0909549,0.125384l-0.00858534 0.0120195c-0.0771191,-0.114319 -0.142952,-0.121675 -0.313111,-0.137982l0.0515091 -0.0515091zm1.26765 -0.433504c0.0144461,0.0504899 0.0549169,0.0945613 0.104829,0.10619l-0.0129685 0.0820571c0.0215918,-0.0268803 0.0167998,-0.0614523 0.0541752,-0.0614523l0.0412067 0c0.0369432,0.158575 0.130401,0.103085 0.156913,0.172743 0.024074,0.0632511 -0.00684199,0.0495526 0.0386486,0.126178 0.0107258,0.0180672 0.0159471,0.0336025 0.0274964,0.0549169 0.0137161,0.0253121 0.000902336,0.00471609 0.0157135,0.0254932 0.00238871,0.00334945 0.00719241,0.00922486 0.00903796,0.0115668 0.00183387,0.00232739 0.0131729,0.00742894 0.00973297,0.0108689l-0.00858242 0.0120195c-0.0218079,-0.031719 -0.0548936,-0.0617881 -0.0822907,-0.0962755 -0.0251165,-0.0316139 -0.051293,-0.0921201 -0.0636512,-0.101176l-0.0380909 0.0940649 -0.0157573 -0.114375 -0.0776506 -0.0851321 -0.0664137 0.170471c-0.0115814,-0.0447898 -0.0552586,-0.165697 -0.0709633,-0.208224 -0.0229585,-0.0621794 -0.0822294,-0.0746778 -0.125699,-0.140397l0.104315 -0.0595396zm0.0842239 0.188603c-0.0183125,0.0183154 0.0183154,-0.0183125 0,0zm0.607804 0.28845c0.0183154,-0.0183125 -0.0183154,0.0183154 0,0zm-2.56513 -0.12362c0,-0.0450642 0.0351327,-0.0535737 0.0618086,-0.0721139 -0.10692,0.00238287 -0.0941525,0.154527 -0.0309043,0.154527 0.035124,0 0.0539591,-0.0693134 0.0618115,-0.103018l-0.0211684 -0.0409059c-0.0170042,0.0114646 -0.0406431,0.0221145 -0.0406431,0.0512083 0,0.0227716 -0.00242667,0.0161194 0.0138241,0.0260831 0.00591629,0.00362687 0.00743478,0.00961908 0.0111551,-0.00185432 0.000730046,-0.00224562 0.00428975,-0.00526217 0.00592505,-0.00362395l0.0120195 0.00858242 -0.0498066 0.0375448c-0.0103024,-0.0179299 -0.0240214,-0.0389815 -0.0240214,-0.0564296zm0.0515091 0.103018c0.0924792,0 0.243724,-0.000814731 0.296285,0.0436713 0.142756,0.120828 0.0209611,0.0623634 0.229103,0.110853 -0.00181635,0.0815665 -0.067062,0.0857482 -0.12362,0.123623 -0.142546,-0.0332112 -0.617166,-0.0709633 -0.628406,-0.206036l0.0618086 0c0.0241003,0 0.0266525,0.00308663 0.0412067,0.0103024l0.0694186 -0.0453154c-0.0115201,-0.0171181 -0.0282119,-0.0226343 -0.0282119,-0.0474004l0 -0.0515091c0,-0.0514887 0.0230578,-0.0893196 0.0414432,-0.121696l0.215635 -0.0263546 0.185899 0.00382544c0.0240214,0 0.0515091,0.0274877 0.0515091,0.0515091l0 0.0515091c0,0.0688667 -0.0278556,0.128111 -0.0412067,0.185432 -0.0773731,-0.0518128 -0.0318767,-0.0641418 -0.154527,-0.0927158l0.0129422 -0.164599 -0.0148404 -0.0026194 -0.0326272 0.166509 -0.0169838 0.000709604c0,-0.0646558 0.0368206,-0.13785 0,-0.16483l-0.0295347 0.166643 -0.012037 -0.00184556 0.0137833 -0.163665 -0.0172116 -0.00177547 -0.0280045 0.16532 -0.0197112 0.000151849c0.0012294,-0.0552265 0.0368001,-0.137868 0,-0.16483 -0.00900876,0.0187768 -0.0183095,0.0777382 -0.0201288,0.103494 -0.00526217,0.0744267 -0.00713693,0.0431807 -0.0519822,0.0716379zm-0.0515091 0.0206019c-0.0183154,0.0183154 0.0183125,-0.0183125 0,0zm0.0291872 0.00171707l0.0240798 -0.0194718 -0.0343822 0.00916937 0.0103024 0.0103024zm0.640425 -0.228355c0.074891,-0.0501483 0.100148,-0.160841 0.236508,-0.165259 0.139097,-0.00450876 0.250365,-0.00987022 0.3919,-0.00987022 0.0359153,0 0.396313,0.288342 0.473878,0.309052l0 0.247243 0.0123874 -0.00408533 0.0377521 0.114459c-0.0376119,-0.0162596 -0.0445386,-0.0382631 -0.0913462,-0.0382631l-0.0412067 0c-0.0786463,0 -0.168728,0.149724 -0.175129,0.226638l-0.381066 -0.012805 -0.0310036 0.00250552 0 -0.123623c0,-0.0278235 -0.00492051,-0.0284046 -0.0103024,-0.0515091l-0.0716846 -0.0129276c-0.0604945,-0.255195 -0.132094,-0.333745 -0.422799,-0.357935 -0.0700114,0.0370454 -0.0472427,0.0958053 -0.133922,0.103018l0.0233585 -0.15408c0.00619955,-0.0559536 -0.0571334,-0.0931596 -0.116074,-0.0931596l-0.0309072 0 -0.298752 0.0205698 -0.00129656 -0.0104922 0.299281 -0.0369199 0.0419747 0.00623751 0.28845 0.0412067zm0.883761 -0.38667l0.242559 0.405161 -0.251162 -0.254961 0.0261707 0.0938693 -0.00335821 0.0103958 -0.145224 -0.11596 -0.0625299 0.000922778 -0.0393232 -0.0467784 0.232867 -0.0926486zm-0.378975 0.190936c0,-0.0330389 -0.00280337,-0.0515091 0.0309072,-0.0515091l0.0412067 0c0.0237352,0 0.0309043,0.00716905 0.0309043,0.0309072 0,0.0128838 -0.0190688,0.0206165 -0.0309043,0.0309043 -0.0271577,-0.013465 0.00848021,-0.0103024 -0.0309072,-0.0103024l-0.0412067 0zm-0.103018 -0.0618086c0.0217904,0 0.0135847,0.00368819 0.0412096,0.0102995 -0.000735886,0.0330156 0.00335529,0.0515091 -0.0309072,0.0515091l-0.0412067 0c-0.0550454,0 -0.0311408,-0.0618086 0.0309043,-0.0618086zm-0.184868 0.0106032l0.0200412 -0.000303699 0.0618115 0 0.00566515 0.0221496 -0.0165312 0.0393611 -0.0200412 0.000300779 -0.0309043 0c-0.0230957,0 -0.0226139,-0.00815315 -0.0417703,-0.0209056l0.0217291 -0.0406022zm-0.0888641 -0.152308l0.0689718 0.0892495 -0.224185 0.241473c-0.177284,-0.0440217 -0.150664,-0.00640396 -0.07584,-0.147811l0.100507 0.045657 0.130547 -0.228568zm0.451834 -0.195912l0.00732966 0.00796042c0.00756035,0.0324491 0.0309072,0.0604594 0.0309072,0.0824134 0,0.0285127 -0.0503965,0.0499672 -0.0618115,0.0927158l0.0711064 -0.0526596c0.0120253,0.0219802 0.0422142,0.0618407 0.0422142,0.0835639 0,0.00031538 -0.0375769,0.0755539 -0.0412067,0.0824163 -0.0322242,-0.00268365 -0.0365986,-0.0103024 -0.0721139,-0.0103024 -0.0494387,0 -0.041306,0.0130123 -0.0740354,0.0150857 -0.022535,0.00142797 -0.0410373,-0.0179591 -0.0701895,-0.0150857l-0.148725 0.00541402 0.316524 -0.291522zm-0.0458936 0.215711l0.0202602 -0.0243806 -0.00652661 -0.00995782 -0.024036 0.0240389 0.0103024 0.0102995zm-0.275928 0.0297625l-0.126967 -0.0955454 -0.151683 0.197988 -0.0824163 0 -0.00917521 -0.00535561 -0.114445 0.180488c-0.0663611,-0.0154624 -0.301488,0.0127904 -0.371155,0.0306123 -0.12247,0.0313277 -0.142671,0.129189 -0.154235,0.268137l-0.0412067 0c-0.0355153,0 -0.0398868,0.00762168 -0.072111,0.0103024l-0.00535269 0.0312226 0.0156551 0.133604c-0.0397466,0.0190717 -0.1166,0.0227862 -0.150991,0.044743 -0.0425003,0.0271314 -0.0589702,0.0674036 -0.0935188,0.102215 -0.0890013,0.0896817 -0.112477,0.111639 -0.219069,0.182698 -0.0982262,0.0654822 -0.36217,0.291262 -0.422539,0.384316l0.103185 0.00715153 4.1001 -0.0025756 0.0515091 0.0025756 0.0412067 0c-0.0200909,-0.0752356 -0.157158,-0.0919536 -0.204746,-0.238231 -0.0345282,-0.10614 -0.12909,-0.157634 -0.186722,-0.266554l0.0646353 -0.00210837 -0.0748443 -0.101281 0.0550192 0.00821447 -0.0551126 -0.090257 0.0259663 -0.00332609 -0.0748735 -0.108821 -0.0377959 0.084694 -0.0467229 -0.0677395 0.0633154 0.0113741 -0.0838267 -0.124467 0.0448686 0.0100921 -0.0763628 -0.141766 -0.0199419 0.000262816 -0.0688491 0.172124 -0.0760357 -0.110576 0.0418141 -0.000359182 -0.0727184 -0.133563c-0.0459403,0.0122648 -0.0795516,0.1194 -0.0753407,0.152092l-0.0379799 0.0436392c-0.0181519,-0.0779105 -0.072111,-0.0530393 -0.072111,-0.185432 -0.182856,-0.0967515 -0.0912002,-0.10659 -0.169595,-0.180666 -0.0524611,-0.0495701 -0.111282,0.0107755 -0.201268,-0.15929 -0.0163413,0.00864666 -0.123162,0.0824134 -0.123623,0.0824134 -0.0369315,0 -0.174659,-0.216336 -0.195731,-0.216336 -0.0290996,0 -0.100968,0.0303349 -0.122484,0.0402985l-0.186757 -0.236246 -0.328964 0.289235zm-2.2064 2.20695l4.58363 0c0.0167151,0 0.0303874,0.01416 0.0303874,0.031465l0 0.724223c0,0.0173079 -0.0136723,0.0314679 -0.0303874,0.0314679l-4.58363 0c-0.0167151,0 -0.0303874,-0.01416 -0.0303874,-0.0314679l0 -0.724223c0,-0.017305 0.0136723,-0.031465 0.0303874,-0.031465zm4.3453 0.102274l0.192347 0 0 0.324342 -0.355377 0c-0.0215188,0 -0.043645,-0.0021843 -0.0640279,-0.00859994l0 0.00859994 -0.463059 0 0 -0.206866c0,-0.0343034 0.0116749,-0.0667524 0.0407891,-0.0893079 0.028574,-0.0221321 0.0667758,-0.0281681 0.103039,-0.0281681l0.174992 0c0.0363533,0 0.0747888,0.00596885 0.103459,0.028171 0.000408825,0.00031538 0.00080889,0.0006366 0.00120896,0.0009549 0.000236535,-0.000189812 0.000473069,-0.000376703 0.000715445,-0.000560675 0.0284864,-0.0223452 0.0665422,-0.0285652 0.102884,-0.0285652l0.163031 0zm-1.23604 0.00875471l0 -0.00875471 0.463047 0 0 0.206872c0,0.0343063 -0.011669,0.0667554 -0.0407833,0.0893079 -0.0286645,0.0221992 -0.0670912,0.0281622 -0.103447,0.0281622l-0.174998 0c-0.0362628,0 -0.0744646,-0.00603018 -0.103036,-0.0281622 -0.000513952,-0.000402985 -0.00102206,-0.00080305 -0.00152434,-0.00120604 -0.000271577,0.000213173 -0.000543154,0.000432187 -0.000811811,0.00064536 -0.0284105,0.0224971 -0.0665276,0.0287229 -0.10289,0.0287229l-0.0998206 0c-0.0218167,0 -0.0442466,-0.00223978 -0.0648572,-0.00886275l0 0.00886275 -0.242816 0c-0.0218167,0 -0.0442466,-0.00223978 -0.0648572,-0.00886275l0 0.00886275 -0.242819 0c-0.0363387,0 -0.0743946,-0.00621999 -0.102881,-0.0285506 -0.000388384,-0.000303699 -0.000776768,-0.000610318 -0.00115639,-0.000919857 -0.000306619,0.000251136 -0.000619079,0.000502271 -0.000928618,0.000747567 -0.0284105,0.0224971 -0.0665276,0.0287229 -0.10289,0.0287229l-0.0998206 0c-0.0363417,0 -0.0743916,-0.00621999 -0.102878,-0.0285506 -0.0184672,-0.0144724 -0.0299173,-0.0328988 -0.0357605,-0.053267l-0.118872 0 0 0.0818177 -0.193579 0 0 -0.206866c0,-0.0341661 0.0117362,-0.0663524 0.0405263,-0.0889108 0.0284893,-0.0223452 0.0665451,-0.0285652 0.10289,-0.0285652l0.242816 0 0 0.00886275c0.0206106,-0.00662297 0.0430406,-0.00886275 0.0648572,-0.00886275l0.0998206 0c0.0216648,0 0.0439546,0.0022135 0.0644426,0.00875471l0 -0.00875471 0.193579 0 0 0.162505 0.114094 0 0 -0.162505 0.193579 0 0 0.162505 0.114094 0 0 -0.0450292c0,-0.0341661 0.0117362,-0.0663524 0.0405292,-0.0889108 0.0284864,-0.0223452 0.0665422,-0.0285652 0.102887,-0.0285652l0.0998206 0c0.0216648,0 0.0439517,0.0022135 0.0644426,0.00875471zm-2.00544 -0.00875471l0.384594 0 0 0.161842 -0.0953031 0 0 0.162499 -0.193579 0 0 -0.162499 -0.0476136 0c-0.00276249,0.00224854 -0.00565639,0.00437443 -0.00865834,0.00637476 -0.0100483,0.00669306 -0.021183,0.0117304 -0.0330127,0.0151236 -0.0113946,0.00326768 -0.0231979,0.00501395 -0.0351327,0.00501395l-0.00405613 0 0 0.135987 -0.386232 0 0 -0.00875763c-0.0204909,0.00654705 -0.0427777,0.00875763 -0.0644455,0.00875763l-0.0998206 0c-0.0363358,0 -0.0743887,-0.00621999 -0.102875,-0.0285506 -0.000388384,-0.000303699 -0.000776768,-0.000610318 -0.00115639,-0.000919857 -0.000309539,0.000251136 -0.000619079,0.000502271 -0.000931538,0.000747567 -0.0284105,0.0224971 -0.0665247,0.0287229 -0.102893,0.0287229l-0.243231 0 0 -0.324342 0.243231 0c0.0363709,0 0.0744909,0.00623167 0.10289,0.0287258 0.00031538,0.000248215 0.000624919,0.000496431 0.000934458,0.000747567 0.000379624,-0.000306619 0.000762168,-0.000610318 0.00114763,-0.000908177 0.0284922,-0.0223452 0.0665451,-0.0285652 0.102884,-0.0285652l0.0998206 0c0.0363709,0 0.074488,0.00623167 0.102887,0.0287258 0.00031538,0.000248215 0.000627839,0.000496431 0.000934458,0.000747567 0.000382544,-0.000306619 0.000765088,-0.000610318 0.00114763,-0.000908177 0.0284922,-0.0223452 0.0665451,-0.0285652 0.10289,-0.0285652l0.0998177 0c0.0212356,0 0.0430668,0.00212297 0.0632073,0.00836924l0 -0.00836924 0.112555 0zm-0.897503 0.109521l0 0.105305 0.0784536 0c0.00739682,0 0.0133569,-0.000572356 0.0178744,-0.00170831 0.00452044,-0.00113595 0.00801006,-0.00283842 0.0104718,-0.00511032 0.00246755,-0.0022719 0.0041087,-0.0051804 0.00492927,-0.00871382 0.000820571,-0.00353342 0.00123232,-0.00757787 0.00123232,-0.0121217l0 -0.0499994c0,-0.00454672 -0.000411746,-0.00858534 -0.00123232,-0.0121246 -0.000820571,-0.00353342 -0.00246171,-0.00643608 -0.00492927,-0.00870798 -0.00246171,-0.00227482 -0.00595133,-0.00398021 -0.0104718,-0.00511616 -0.00451752,-0.00113595 -0.0104776,-0.00170247 -0.0178744,-0.00170247l-0.0784536 0zm0.192653 0.0973501c0,0.0219685 -0.00677774,0.0383215 -0.0203332,0.0490532 -0.0135555,0.0107317 -0.0355328,0.016096 -0.0659319,0.016096l-0.186492 0 0 -0.2197 0.186492 0c0.0303991,0 0.0523764,0.00536437 0.0659319,0.0161019 0.0135555,0.0107317 0.0203332,0.0270847 0.0203332,0.0490532l0 0.0893955zm0.149525 -0.0973501c-0.00739682,0 -0.0133511,0.000566515 -0.0178686,0.00170247 -0.00452044,0.00113595 -0.00801006,0.00284134 -0.0104718,0.00511616 -0.00246755,0.0022719 -0.00411454,0.00517456 -0.00492927,0.00870798 -0.000826412,0.00353926 -0.00123524,0.00757787 -0.00123524,0.0121246l0 0.0499994c0,0.0045438 0.000408825,0.00858826 0.00123524,0.0121217 0.000814731,0.00353342 0.00246171,0.00644192 0.00492927,0.00871382 0.00246171,0.0022719 0.00595133,0.00397437 0.0104718,0.00511032 0.00451752,0.00113595 0.0104718,0.00170831 0.0178686,0.00170831l0.0439546 0c0.00739098,0 0.0133511,-0.000572356 0.0178686,-0.00170831 0.00452044,-0.00113595 0.00801006,-0.00283842 0.0104776,-0.00511032 0.00246171,-0.0022719 0.0041087,-0.0051804 0.00492927,-0.00871382 0.000814731,-0.00353342 0.0012294,-0.00757787 0.0012294,-0.0121217l0 -0.0499994c0,-0.00454672 -0.000414666,-0.00858534 -0.0012294,-0.0121246 -0.000820571,-0.00353342 -0.00246755,-0.00643608 -0.00492927,-0.00870798 -0.00246755,-0.00227482 -0.00595717,-0.00398021 -0.0104776,-0.00511616 -0.00451752,-0.00113595 -0.0104776,-0.00170247 -0.0178686,-0.00170247l-0.0439546 0zm0.158148 0.0973501c0,0.0219685 -0.0067719,0.0383215 -0.0203332,0.0490532 -0.0135555,0.0107317 -0.0355328,0.016096 -0.065929,0.016096l-0.0998206 0c-0.0303933,0 -0.0524435,-0.00536437 -0.0661304,-0.016096 -0.0136957,-0.0107317 -0.0205435,-0.0270847 -0.0205435,-0.0490532l0 -0.0893955c0,-0.0219685 0.00684783,-0.0383215 0.0205435,-0.0490532 0.0136869,-0.0107375 0.0357372,-0.0161019 0.0661304,-0.0161019l0.0998206 0c0.0303962,0 0.0523735,0.00536437 0.065929,0.0161019 0.0135613,0.0107317 0.0203332,0.0270847 0.0203332,0.0490532l0 0.0893955zm0.115023 0.0651493l-0.0801006 0 0 -0.154545c0,-0.0219685 0.00684199,-0.0383215 0.0205376,-0.0490532 0.0136898,-0.0107375 0.0357372,-0.0161019 0.0661363,-0.0161019l0.0998177 0c0.0303991,0 0.0523764,0.00536437 0.065929,0.0161019 0.0135584,0.0107317 0.0203332,0.0270847 0.0203332,0.0490532l0 0.154545 -0.0796888 0 0 -0.134848c0,-0.00454672 -0.000411746,-0.00858534 -0.00123232,-0.0121246 -0.000820571,-0.00353342 -0.00246171,-0.00643608 -0.00492927,-0.00870798 -0.00246171,-0.00227482 -0.00595717,-0.00398021 -0.0104776,-0.00511616 -0.00451752,-0.00113595 -0.0104718,-0.00170247 -0.0178686,-0.00170247l-0.0439487 0c-0.00739974,0 -0.013354,0.000566515 -0.0178686,0.00170247 -0.00452336,0.00113595 -0.0080159,0.00284134 -0.0104776,0.00511616 -0.00246755,0.0022719 -0.0041087,0.00517456 -0.00492927,0.00870798 -0.000826412,0.00353926 -0.00123232,0.00757787 -0.00123232,0.0121246l0 0.134848zm0.305209 -0.2197l-0.0788683 0 0 0.0837158 0.0271081 0c0.00602434,0 0.0121217,-0.000887735 0.0182803,-0.00265445 0.00616158,-0.00176671 0.0117099,-0.00428975 0.0166392,-0.00757203 0.00492927,-0.0032852 0.00896496,-0.00700844 0.0121158,-0.0111785 0.0031538,-0.00416418 0.00472485,-0.00877515 0.00472485,-0.0138241l0 -0.0484867zm0.3048 0.0572005l0 -0.0572005 -0.271116 0 0 0.0572005 0.0957119 0 0 0.162499 0.0801035 0 0 -0.162499 0.0953001 0zm0.468698 0.0806817l0 -0.0575772 -0.192653 0c0.000548994,-0.00782901 0.00308079,-0.0136373 0.00760123,-0.0174218 0.00451752,-0.0037904 0.0134854,-0.00568267 0.0269066,-0.00568267l0.158145 0 0 -0.0572005 -0.186077 0c-0.030402,0 -0.0524465,0.00536437 -0.0661392,0.0161019 -0.0136957,0.0107317 -0.0205376,0.0270847 -0.0205376,0.0490532l0 0.154545 0.0801006 0 0 -0.0818177 0.192653 0zm0.149528 -0.0806817c-0.0073939,0 -0.0133511,0.000566515 -0.0178686,0.00170247 -0.00452044,0.00113595 -0.00801006,0.00284134 -0.0104747,0.00511616 -0.00246463,0.0022719 -0.0041087,0.00517456 -0.00492927,0.00870798 -0.000826412,0.00353926 -0.0012294,0.00757787 -0.0012294,0.0121246l0 0.0499994c0,0.0045438 0.000402985,0.00858826 0.0012294,0.0121217 0.000820571,0.00353342 0.00246463,0.00644192 0.00492927,0.00871382 0.00246463,0.0022719 0.00595425,0.00397437 0.0104747,0.00511032 0.00451752,0.00113595 0.0104747,0.00170831 0.0178686,0.00170831l0.0439546 0c0.00739098,0 0.0133511,-0.000572356 0.0178686,-0.00170831 0.00452044,-0.00113595 0.00801006,-0.00283842 0.0104747,-0.00511032 0.00246463,-0.0022719 0.00411162,-0.0051804 0.00492927,-0.00871382 0.000820571,-0.00353342 0.00123232,-0.00757787 0.00123232,-0.0121217l0 -0.0499994c0,-0.00454672 -0.000411746,-0.00858534 -0.00123232,-0.0121246 -0.000817651,-0.00353342 -0.00246463,-0.00643608 -0.00492927,-0.00870798 -0.00246463,-0.00227482 -0.00595425,-0.00398021 -0.0104747,-0.00511616 -0.00451752,-0.00113595 -0.0104776,-0.00170247 -0.0178686,-0.00170247l-0.0439546 0zm0.158151 0.0973501c0,0.0219685 -0.00677774,0.0383215 -0.0203361,0.0490532 -0.0135555,0.0107317 -0.0355299,0.016096 -0.065926,0.016096l-0.0998206 0c-0.0303962,0 -0.0524465,-0.00536437 -0.0661334,-0.016096 -0.0136957,-0.0107317 -0.0205406,-0.0270847 -0.0205406,-0.0490532l0 -0.0893955c0,-0.0219685 0.00684491,-0.0383215 0.0205406,-0.0490532 0.0136869,-0.0107375 0.0357372,-0.0161019 0.0661334,-0.0161019l0.0998206 0c0.0303962,0 0.0523705,0.00536437 0.065926,0.0161019 0.0135584,0.0107317 0.0203361,0.0270847 0.0203361,0.0490532l0 0.0893955zm0.307673 0.00795458l0 0.0571947 -0.18608 0c-0.0303991,0 -0.0524435,-0.00536437 -0.0661363,-0.016096 -0.0136957,-0.0107317 -0.0205406,-0.0270847 -0.0205406,-0.0490532l0 -0.154551 0.0801035 0 0 0.134851c0,0.0045438 0.000408825,0.00858826 0.00123232,0.0121217 0.000817651,0.00353342 0.00246171,0.00644192 0.00492927,0.00871382 0.00246171,0.0022719 0.00595133,0.00397437 0.0104747,0.00511032 0.0045146,0.00113595 0.0104718,0.00170831 0.0178686,0.00170831l0.158148 0zm0.307676 0l0 0.0571947 -0.18608 0c-0.030402,0 -0.0524465,-0.00536437 -0.0661392,-0.016096 -0.0136957,-0.0107317 -0.0205376,-0.0270847 -0.0205376,-0.0490532l0 -0.154551 0.0801006 0 0 0.134851c0,0.0045438 0.000408825,0.00858826 0.00123232,0.0121217 0.000820571,0.00353342 0.00246755,0.00644192 0.00492927,0.00871382 0.00246463,0.0022719 0.00595717,0.00397437 0.0104776,0.00511032 0.00451752,0.00113595 0.0104689,0.00170831 0.0178686,0.00170831l0.158148 0zm0.149525 -0.105305c-0.0073939,0 -0.0133511,0.000566515 -0.0178686,0.00170247 -0.00452044,0.00113595 -0.00801006,0.00284134 -0.0104776,0.00511616 -0.00246171,0.0022719 -0.00410578,0.00517456 -0.00492635,0.00870798 -0.000823491,0.00353926 -0.0012294,0.00757787 -0.0012294,0.0121246l0 0.0499994c0,0.0045438 0.000405905,0.00858826 0.0012294,0.0121217 0.000820571,0.00353342 0.00246463,0.00644192 0.00492635,0.00871382 0.00246755,0.0022719 0.00595717,0.00397437 0.0104776,0.00511032 0.00451752,0.00113595 0.0104747,0.00170831 0.0178686,0.00170831l0.0439546 0c0.00739098,0 0.0133511,-0.000572356 0.0178686,-0.00170831 0.00452044,-0.00113595 0.00801006,-0.00283842 0.0104776,-0.00511032 0.00246171,-0.0022719 0.0041087,-0.0051804 0.00492343,-0.00871382 0.000823491,-0.00353342 0.00123524,-0.00757787 0.00123524,-0.0121217l0 -0.0499994c0,-0.00454672 -0.000411746,-0.00858534 -0.00123524,-0.0121246 -0.000814731,-0.00353342 -0.00246171,-0.00643608 -0.00492343,-0.00870798 -0.00246755,-0.00227482 -0.00595717,-0.00398021 -0.0104776,-0.00511616 -0.00451752,-0.00113595 -0.0104776,-0.00170247 -0.0178686,-0.00170247l-0.0439546 0zm0.158151 0.0973501c0,0.0219685 -0.00677774,0.0383215 -0.0203361,0.0490532 -0.0135555,0.0107317 -0.0355299,0.016096 -0.065926,0.016096l-0.0998206 0c-0.0303962,0 -0.0524465,-0.00536437 -0.0661334,-0.016096 -0.0136957,-0.0107317 -0.0205435,-0.0270847 -0.0205435,-0.0490532l0 -0.0893955c0,-0.0219685 0.00684783,-0.0383215 0.0205435,-0.0490532 0.0136869,-0.0107375 0.0357372,-0.0161019 0.0661334,-0.0161019l0.0998206 0c0.0303962,0 0.0523705,0.00536437 0.065926,0.0161019 0.0135584,0.0107317 0.0203361,0.0270847 0.0203361,0.0490532l0 0.0893955zm0.303976 -0.154551l0.0805182 0 0 0.154551c0,0.0222197 -0.00684783,0.0386369 -0.0205435,0.049243 -0.0136957,0.0106061 -0.0360088,0.0159062 -0.0669539,0.0159062l-0.174998 0c-0.0306678,0 -0.0528495,-0.00530013 -0.0665422,-0.0159062 -0.0136957,-0.0106061 -0.0205406,-0.0270234 -0.0205406,-0.049243l0 -0.154551 0.0805123 0 0 0.134851c0,0.0045438 0.000411746,0.00858826 0.00123524,0.0121217 0.000817651,0.00353342 0.00246463,0.00644192 0.00492927,0.00871382 0.00246463,0.0022719 0.00595425,0.00397437 0.0104689,0.00511032 0.00452044,0.00113595 0.0104776,0.00170831 0.0178686,0.00170831l0.0201347 0 0 -0.162505 0.0805123 0 0 0.162505 0.0184877 0c0.00739098,0 0.0133482,-0.000572356 0.0178686,-0.00170831 0.0045146,-0.00113595 0.00800422,-0.00283842 0.0104689,-0.00511032 0.00246463,-0.0022719 0.00417878,-0.0051804 0.00513368,-0.00871382 0.00096366,-0.00353342 0.00143965,-0.00757787 0.00143965,-0.0121217l0 -0.134851zm0.357384 0.0848517c0,-0.00454672 0.000411746,-0.00858534 0.0012294,-0.0121246 0.000823491,-0.00353342 0.00246463,-0.00643608 0.00492927,-0.00870798 0.00246463,-0.00227482 0.00596009,-0.00398021 0.0104747,-0.00511616 0.00452044,-0.00113595 0.0104776,-0.00170247 0.0178686,-0.00170247l0.0188965 0 0 0.162499 0.0805153 0 0 -0.162499 0.0197141 0c0.00739974,0 0.0133511,0.000566515 0.0178686,0.00170247 0.00452336,0.00113595 0.00801298,0.00284134 0.0104776,0.00511616 0.00246463,0.0022719 0.00417586,0.00517456 0.00513368,0.00870798 0.00096366,0.00353926 0.00143965,0.00757787 0.00143965,0.0121246l0 0.134848 0.0805123 0 0 -0.154545c0,-0.0222255 -0.00684783,-0.0386369 -0.0205376,-0.049243 -0.0136957,-0.0106061 -0.0360146,-0.0159121 -0.0669598,-0.0159121l-0.174992 0c-0.0306765,0 -0.0528553,0.00530597 -0.0665451,0.0159121 -0.0136927,0.0106061 -0.0205435,0.0270175 -0.0205435,0.049243l0 0.154545 0.0805182 0 0 -0.134848zm0.575912 0.0776535l-0.158148 0c-0.0136957,0 -0.0227979,-0.00202369 -0.0273183,-0.0060623 -0.00451752,-0.00403861 -0.00691499,-0.0102265 -0.00718657,-0.0185607l0.192653 0 0 -0.0575772 -0.192653 0c0.000546074,-0.00782901 0.00307787,-0.0136373 0.00759831,-0.0174218 0.00451752,-0.0037904 0.0134883,-0.00568267 0.0269066,-0.00568267l0.158148 0 0 -0.0572005 -0.186083 0c-0.0303933,0 -0.0524435,0.00536437 -0.0661334,0.0161019 -0.0136957,0.0107317 -0.0205406,0.0270847 -0.0205406,0.0490532l0 0.0893955c0,0.0219685 0.00684491,0.0383215 0.0205406,0.0490532 0.0136898,0.0107317 0.0357401,0.016096 0.0661334,0.016096l0.186083 0 0 -0.0571947zm0.112558 -0.162505l-0.0788712 0 0 0.148109 0.0788712 0 0 -0.148109zm0 0.162505l-0.0788712 0 0 0.0571947 0.0788712 0 0 -0.0571947zm-4.16414 0.243622c0,0.0041087 -0.000373783,0.00770344 -0.00111551,0.0107842 -0.000738806,0.00308079 -0.0022281,0.00564763 -0.0044562,0.00770344 -0.0022281,0.00205289 -0.0053819,0.00359474 -0.00946431,0.00462265 -0.00408825,0.00102498 -0.00946723,0.00153894 -0.0161515,0.00153894l-0.0397291 0c-0.00668138,0 -0.0120604,-0.000513952 -0.0161486,-0.00153894 -0.00408533,-0.0010279 -0.00724205,-0.00256976 -0.00946723,-0.00462265 -0.0022281,-0.00205581 -0.00371155,-0.00462265 -0.0044562,-0.00770344 -0.000741726,-0.00308079 -0.00111551,-0.00667554 -0.00111551,-0.0107842l0 -0.056488 -0.0723972 0 0 0.0739478c0,0.020085 0.00618787,0.0349779 0.0185694,0.0446788 0.0123728,0.00970084 0.0323001,0.0145513 0.0597732,0.0145513l0.00890656 0 0 0.0653916 0.0724001 0 0 -0.0653916 0.00890948 0c0.027476,0 0.0473391,-0.00485042 0.0595892,-0.0145513 0.0122531,-0.00970084 0.0183796,-0.0245938 0.0183796,-0.0446788l0 -0.0739478 -0.0720263 0 0 0.056488zm0.207166 -0.00479202c-0.00667846,0 -0.0120604,0.000513952 -0.0161486,0.00154186 -0.00407949,0.00102498 -0.00723913,0.00256684 -0.00946723,0.00461973 -0.0022281,0.00205581 -0.00370863,0.00468105 -0.0044562,0.00787281 -0.000738806,0.00319468 -0.00111259,0.00685075 -0.00111259,0.0109594l0 0.0451927c0,0.00410578 0.000373783,0.00775892 0.00111259,0.0109536 0.000747567,0.00319468 0.0022281,0.005817 0.0044562,0.00787281 0.0022281,0.00205289 0.00538774,0.00359474 0.00946723,0.00461973 0.00408825,0.0010279 0.00947015,0.00154186 0.0161486,0.00154186l0.039732 0c0.00668138,0 0.0120633,-0.000513952 0.0161515,-0.00154186 0.00407949,-0.00102498 0.00723913,-0.00256684 0.00946723,-0.00461973 0.0022281,-0.00205581 0.00371155,-0.00467813 0.0044562,-0.00787281 0.000738806,-0.00319468 0.00110967,-0.00684783 0.00110967,-0.0109536l0 -0.0451927c0,-0.0041087 -0.000370863,-0.00776476 -0.00110967,-0.0109594 -0.000744646,-0.00319176 -0.0022281,-0.005817 -0.0044562,-0.00787281 -0.0022281,-0.00205289 -0.00538774,-0.00359474 -0.00946723,-0.00461973 -0.00408825,-0.0010279 -0.00947015,-0.00154186 -0.0161515,-0.00154186l-0.039732 0zm0.142943 0.0879851c0,0.0198572 -0.00612654,0.0346363 -0.0183796,0.0443371 -0.0122502,0.00970084 -0.0321103,0.0145513 -0.0595863,0.0145513l-0.090219 0c-0.0274731,0 -0.0474004,-0.00485042 -0.0597732,-0.0145513 -0.0123787,-0.00970084 -0.0185636,-0.0244799 -0.0185636,-0.0443371l0 -0.0807956c0,-0.0198572 0.00618495,-0.0346363 0.0185636,-0.0443371 0.0123728,-0.00969792 0.0323001,-0.0145483 0.0597732,-0.0145483l0.090219 0c0.027476,0 0.0473362,0.00485042 0.0595863,0.0145483 0.0122531,0.00970084 0.0183796,0.0244799 0.0183796,0.0443371l0 0.0807956zm0.206063 -0.0177985c0,0.00410578 -0.000376703,0.00775892 -0.00111843,0.0109536 -0.000738806,0.00319468 -0.0022281,0.005817 -0.0044562,0.00787281 -0.00222518,0.00205289 -0.0053819,0.00359474 -0.00946431,0.00461973 -0.00408825,0.0010279 -0.00946723,0.00154186 -0.0161515,0.00154186l-0.0397262 0c-0.0066843,0 -0.0120633,-0.000513952 -0.0161515,-0.00154186 -0.00408533,-0.00102498 -0.00724205,-0.00256684 -0.00946723,-0.00461973 -0.0022281,-0.00205581 -0.00371155,-0.00467813 -0.0044562,-0.00787281 -0.000741726,-0.00319468 -0.00111551,-0.00684783 -0.00111551,-0.0109536l0 -0.121883 -0.0723972 0 0 0.139681c0,0.0198572 0.00618787,0.0346363 0.0185694,0.0443371 0.0123728,0.00970084 0.0323001,0.0145513 0.0597732,0.0145513l0.0902161 0c0.027476,0 0.0473391,-0.00485042 0.0595922,-0.0145513 0.0122502,-0.00970084 0.0183767,-0.0244799 0.0183767,-0.0443371l0 -0.139681 -0.0720234 0 0 0.121883zm0.492676 -0.121883l0.072768 0 0 0.139681c0,0.020085 -0.00618495,0.0349195 -0.0185607,0.0445094 -0.0123816,0.00958696 -0.0325483,0.014379 -0.0605179,0.014379l-0.158163 0c-0.0277242,0 -0.0477713,-0.00479202 -0.0601441,-0.014379 -0.0123787,-0.00958988 -0.0185694,-0.0244244 -0.0185694,-0.0445094l0 -0.139681 0.0727739 0 0 0.121883c0,0.00410578 0.000370863,0.00775892 0.00111259,0.0109536 0.000741726,0.00319468 0.0022281,0.005817 0.0044562,0.00787281 0.0022281,0.00205289 0.00538482,0.00359474 0.00946431,0.00461973 0.00408533,0.0010279 0.00947015,0.00154186 0.0161544,0.00154186l0.0181927 0 0 -0.146871 0.072768 0 0 0.146871 0.0167093 0c0.0066843,0 0.0120604,-0.000513952 0.0161486,-0.00154186 0.00408533,-0.00102498 0.00724205,-0.00256684 0.00946723,-0.00461973 0.0022281,-0.00205581 0.00377288,-0.00467813 0.00464309,-0.00787281 0.000861454,-0.00319468 0.00129656,-0.00684783 0.00129656,-0.0109536l0 -0.121883zm0.207543 0.051696c-0.0066843,0 -0.0120662,0.000513952 -0.0161515,0.00154186 -0.00408241,0.00102498 -0.00724205,0.00256684 -0.00947015,0.00461973 -0.0022281,0.00205581 -0.00370863,0.00468105 -0.00445036,0.00787281 -0.000744646,0.00319468 -0.00111843,0.00685075 -0.00111843,0.0109594l0 0.0451927c0,0.00410578 0.000373783,0.00775892 0.00111843,0.0109536 0.000741726,0.00319468 0.00222226,0.005817 0.00445036,0.00787281 0.0022281,0.00205289 0.00538774,0.00359474 0.00947015,0.00461973 0.00408533,0.0010279 0.00946723,0.00154186 0.0161515,0.00154186l0.0397262 0c0.0066843,0 0.0120633,-0.000513952 0.0161515,-0.00154186 0.00408533,-0.00102498 0.00723913,-0.00256684 0.00946723,-0.00461973 0.0022281,-0.00205581 0.00371447,-0.00467813 0.0044562,-0.00787281 0.000738806,-0.00319468 0.00110967,-0.00684783 0.00110967,-0.0109536l0 -0.0451927c0,-0.0041087 -0.000370863,-0.00776476 -0.00110967,-0.0109594 -0.000741726,-0.00319176 -0.0022281,-0.005817 -0.0044562,-0.00787281 -0.0022281,-0.00205289 -0.0053819,-0.00359474 -0.00946723,-0.00461973 -0.00408825,-0.0010279 -0.00946723,-0.00154186 -0.0161515,-0.00154186l-0.0397262 0zm0.14294 0.0879851c0,0.0198572 -0.00612654,0.0346363 -0.0183767,0.0443371 -0.0122531,0.00970084 -0.0321162,0.0145513 -0.0595922,0.0145513l-0.0902161 0c-0.027476,0 -0.0474004,-0.00485042 -0.0597761,-0.0145513 -0.0123787,-0.00970084 -0.0185636,-0.0244799 -0.0185636,-0.0443371l0 -0.0807956c0,-0.0198572 0.00618495,-0.0346363 0.0185636,-0.0443371 0.0123757,-0.00969792 0.0323001,-0.0145483 0.0597761,-0.0145483l0.0902161 0c0.027476,0 0.0473391,0.00485042 0.0595922,0.0145483 0.0122502,0.00970084 0.0183767,0.0244799 0.0183767,0.0443371l0 0.0807956zm0.103958 0.0588884l-0.072403 0 0 -0.139684c0,-0.0198572 0.00619079,-0.0346363 0.0185694,-0.0443371 0.0123728,-0.00969792 0.0323001,-0.0145483 0.0597732,-0.0145483l0.090219 0c0.0274789,0 0.0473362,0.00485042 0.0595892,0.0145483 0.0122502,0.00970084 0.0183767,0.0244799 0.0183767,0.0443371l0 0.139684 -0.0720234 0 0 -0.12188c0,-0.0041087 -0.000373783,-0.00776476 -0.00111843,-0.0109594 -0.000738806,-0.00319176 -0.00222226,-0.005817 -0.00445036,-0.00787281 -0.0022281,-0.00205289 -0.00538774,-0.00359474 -0.00947015,-0.00461973 -0.00408533,-0.0010279 -0.00946723,-0.00154186 -0.0161515,-0.00154186l-0.0397262 0c-0.00668138,0 -0.0120633,0.000513952 -0.0161515,0.00154186 -0.00407949,0.00102498 -0.00723913,0.00256684 -0.00946723,0.00461973 -0.0022281,0.00205581 -0.00371155,0.00468105 -0.0044562,0.00787281 -0.000738806,0.00319468 -0.00110967,0.00685075 -0.00110967,0.0109594l0 0.12188zm0.275855 -0.198569l-0.0712846 0 0 0.0756619 0.0245032 0c0.00544614,0 0.0109536,-0.00080013 0.0165224,-0.00239747 0.00557171,-0.00159734 0.0105827,-0.00388092 0.0150389,-0.00684491 0.00445328,-0.00296983 0.00810643,-0.0063368 0.0109536,-0.0101009 0.00284718,-0.00376411 0.00426639,-0.00793413 0.00426639,-0.0124955l0 -0.0438232zm0.27549 0.051696l0 -0.051696 -0.245044 0 0 0.051696 0.0865104 0 0 0.146873 0.0723972 0 0 -0.146873 0.0861366 0zm0.250233 0.0249938c0,-0.0041087 0.000367943,-0.00776476 0.00111259,-0.0109594 0.000744646,-0.00319176 0.0022281,-0.005817 0.0044562,-0.00787281 0.0022281,-0.00205289 0.0053819,-0.00359474 0.00946723,-0.00461973 0.00408241,-0.0010279 0.00947015,-0.00154186 0.0161486,-0.00154186l0.0170772 0 0 0.146873 0.0727709 0 0 -0.146873 0.0178219 0c0.0066843,0 0.0120662,0.000513952 0.0161486,0.00154186 0.00408825,0.00102498 0.00723913,0.00256684 0.00946723,0.00461973 0.0022281,0.00205581 0.0037758,0.00468105 0.00464601,0.00787281 0.000861454,0.00319468 0.00129656,0.00685075 0.00129656,0.0109594l0 0.12188 0.0727709 0 0 -0.139684c0,-0.020085 -0.00618787,-0.0349195 -0.0185665,-0.0445065 -0.0123757,-0.00958988 -0.0325454,-0.014379 -0.0605149,-0.014379l-0.158166 0c-0.0277184,0 -0.0477683,0.0047891 -0.0601441,0.014379 -0.0123728,0.00958696 -0.0185636,0.0244215 -0.0185636,0.0445065l0 0.139684 0.0727709 0 0 -0.12188zm0.547254 0.12188l-0.040465 -0.141054c-0.00197988,-0.00638936 -0.00482706,-0.0130094 -0.00854445,-0.0198543 -0.00370571,-0.00685075 -0.00810351,-0.0130707 -0.0131729,-0.0186629 -0.0050782,-0.00559215 -0.0108339,-0.0101564 -0.017267,-0.0136957 -0.00643608,-0.00353342 -0.0133628,-0.00530305 -0.0207917,-0.00530305l-0.0790815 0c-0.00718073,0 -0.0139848,0.0019974 -0.0204238,0.00599221 -0.00643316,0.00399481 -0.0123115,0.0089562 -0.0176291,0.0148929 -0.00532641,0.00593089 -0.00984393,0.0122093 -0.0135555,0.0188293 -0.00371155,0.00661713 -0.00631051,0.0125509 -0.00779397,0.0178014l-0.0393524 0.141054 0.0746223 0 0.0178219 -0.0623079 0.0920733 0 0.0185665 0.0623079 0.0749932 0zm-0.144421 -0.146873l0.010025 0c0.00568851,0 0.0104543,0.00239747 0.0142885,0.00718949 0.00383712,0.00479202 0.00761291,0.0133511 0.0113274,0.0256772l-0.0620071 0c0.00396561,-0.0123261 0.00773556,-0.0208851 0.0113274,-0.0256772 0.00358598,-0.00479202 0.00859994,-0.00718949 0.0150389,-0.00718949zm0.425847 0.146873l-0.0868754 -0.0989445 0.0868754 -0.0996249 -0.0827872 0 -0.0638615 0.0725811 -0.0363884 0 0 -0.0725811 -0.0720263 0 0 0.198569 0.0720263 0 0 -0.0739507 0.0345282 0 0.0653449 0.0739507 0.0831639 0zm0.268803 -0.0516989l-0.14294 0c-0.0123787,0 -0.0206077,-0.00182219 -0.0246901,-0.00547534 -0.00408241,-0.00365607 -0.00624919,-0.00924238 -0.00650033,-0.0167764l0.17413 0 0 -0.0520376 -0.17413 0c0.000499351,-0.0070756 0.00278585,-0.0123232 0.00687411,-0.0157485 0.00408241,-0.00342537 0.0121888,-0.0051366 0.0243164,-0.0051366l0.14294 0 0 -0.051696 -0.168185 0c-0.0274731,0 -0.0474004,0.00485042 -0.0597761,0.0145483 -0.0123787,0.00970084 -0.0185636,0.0244799 -0.0185636,0.0443371l0 0.0807956c0,0.0198572 0.00618495,0.0346363 0.0185636,0.0443371 0.0123757,0.00970084 0.0323031,0.0145513 0.0597761,0.0145513l0.168185 0 0 -0.0516989zm0.248011 -0.146871l-0.0716583 0 0 0.198569 0.0716583 0 0 -0.198569zm0.275481 0.051696l0 -0.051696 -0.245041 0 0 0.051696 0.0865075 0 0 0.146873 0.072403 0 0 -0.146873 0.0861308 0zm0.247263 -0.051696l-0.0712846 0 0 0.133861 0.0712846 0 0 -0.133861zm0 0.146871l-0.0712846 0 0 0.0516989 0.0712846 0 0 -0.0516989zm-2.75204 -2.49806c0.0183154,-0.0183154 -0.0183154,0.0183125 0,0zm-0.0206019 0.0515091l0 0.0309043c0,0.0443108 -0.0120136,0.0558426 -0.015404,0.0953936l0.0464309 -0.0959805 0.411947 0.0830003c-0.0462382,-0.0293361 -0.160537,-0.04288 -0.217656,-0.0604916 -0.0603426,-0.0186045 -0.192694,-0.0167414 -0.194005,-0.0966025l0.083672 0.00728877 -0.125287 -0.0356262c0.00268073,0.0322242 0.0103024,0.0365986 0.0103024,0.0721139zm-0.136151 -0.0138679c-0.00465769,0.016575 -0.0183767,0.0376265 -0.0183767,0.0550746 0,0.0317541 0.0376295,0.0169604 0.0515091,0.0103024 -0.0070756,0.0303641 -0.0153134,0.0515091 -0.0515091,0.0515091 -0.0377784,0 -0.0212414,-0.0641038 -0.020526,-0.0925902l0.0389027 -0.0242959zm-0.0698858 0.0756765l0 0.0309072c0,0.0213757 0.0301363,0.0515091 0.0412067,0.0515091 0.0580649,0 0.0824134,-0.0484575 0.0824134,-0.103018 0,-0.0387975 -0.00677774,-0.0194805 -0.0102995,-0.0618115 -0.0231045,-0.0053819 -0.0236856,-0.0103024 -0.0515091,-0.0103024 -0.0350947,0 -0.0618115,0.057367 -0.0618115,0.0927158zm0.906553 0.0412096c0.032782,0.00763628 0.257545,0.084951 0.257545,0.103015 0,0.0445503 -0.0963835,0.23963 -0.103447,0.322417l-0.170092 -0.024623 -0.0452511 -0.225464 0.00963952 -0.0306269 0.0634001 0.00733842 -0.0527034 -0.0405 0.0833946 0.00916937 -0.0725724 -0.0422667 0.124835 0.0192352 -0.104624 -0.04844 0.133499 0.0228563c-0.0493306,-0.0342771 -0.0942197,-0.0161603 -0.123623,-0.072111zm0.122534 0.0767628l0.0317132 -0.00610902 -0.0317132 0.00610902zm-0.0813271 0.0571596c0.0104221,0.0104192 0.0372966,-0.0145045 0.0121129,-0.00563303 -4.67229e-005,1.75211e-005 -0.00165282,0.000546074 -0.00176379,0.000595717 -0.000695003,0.000300779 -0.0130591,0.00232446 -0.0103491,0.00503731zm-0.0309043 0.0309043c0.0104192,0.0104192 0.0372966,-0.0145016 0.0121129,-0.00563011 -4.67229e-005,1.46009e-005 -0.00165282,0.000546074 -0.00176379,0.000592797 -0.000695003,0.000300779 -0.013062,0.00232446 -0.0103491,0.00503731zm-0.343574 -0.45723l0.199349 0.00395393c-0.0323147,0.0441035 -0.234765,0.00377288 -0.278147,0.12362l-0.0449562 -0.0144023 0.123754 -0.113172zm-0.171514 0.137876l0.473881 0.144225c-0.00631343,0.0758751 -0.0626554,0.148807 -0.0542833,0.208428 0.0104251,0.0742281 0.042401,0.163618 0.0438027,0.236929l0.195912 0.0182219c0.0324345,-0.0613005 0.0452979,-0.120566 0.072111,-0.185432 0.0260831,-0.0630935 0.0343589,-0.166888 0.0927158,-0.154527 0.00153018,-0.0686652 0.0618115,-0.152854 0.0618115,-0.216336 0,-0.0137862 -0.234505,-0.161197 -0.275411,-0.163352l-0.116398 0.226723 -0.0674708 -0.0158157 0.160531 -0.253592c-0.305606,-0.00680694 -0.4463,-0.0558864 -0.587202,0.154527zm-0.732934 0.275992l0.413778 0.0519354 -0.0328579 -0.0378894 -0.338753 -0.0435808 -0.0421674 0.0295347zm1.57655 0.00174043l0.196864 0.082828 -0.000344581 -0.226019 -0.121261 -0.0616888 -0.0752589 0.20488zm-1.53383 0.0416214c-0.0355153,0 -0.0398868,-0.00762168 -0.0742135,-0.00977385l0.0127729 0.0508871 0.0924004 0.0100075c-0.000788449,-0.0326243 0.00330273,-0.0511207 -0.0309598,-0.0511207zm1.42164 0.267845l0.0424857 0.000592797 0.0708349 -0.16542c0.0322242,-0.00268365 0.0365957,-0.0103024 0.072111,-0.0103024l0.0724556 -0.00228942 0.0923741 0.0125918c-0.0336901,-0.0234111 -0.0878478,-0.0309072 -0.144225,-0.0309072l-0.0309043 0c-0.106265,0 -0.138303,0.126131 -0.175132,0.195734zm-0.947342 -0.21612l-0.144383 -0.0131554 -0.000259896 0.054146 0.112903 0.0203887 0.0317395 -0.0613793zm1.24609 0.288234c0.00940883,-0.00630175 0.0309043,-0.0167706 0.0309043,-0.0309072 0,-0.018768 -0.0156901,-0.0165399 -0.0309043,-0.0206019l0 0.0515091zm-0.906553 -0.0103024c0,0.0168611 0.00616742,0.0309043 0.0206019,0.0309043 0.0155675,0 0.0618115,-0.0287142 0.0618115,-0.0412067 0,-0.0395509 -0.0413702,-0.0505951 -0.0824134,-0.0515091l0 0.0618115zm-0.123623 0.0103024c0,0.0322184 0.0184906,0.0291843 0.0412067,0.0412067 0.0175678,-0.0117654 0.0412067,-0.0224153 0.0412067,-0.0515091l0 -0.0515091c-0.0306298,0.00254932 -0.0824134,0.0352641 -0.0824134,0.0618115zm0.175129 0.0824134l0 0.0103024c0,0.0355795 0.032452,0.0446671 0.0591863,0.0510798l0.0132956 -0.0717781 -0.0106703 -0.0514156c-0.0224591,0.0150419 -0.0618115,0.0297596 -0.0618115,0.0618115zm0.834442 0.0103024c-0.0173634,0.0120633 -0.0206019,0.00147469 -0.0206019,0.0309043 0,0.0138971 0.0114325,0.0154507 0.0206019,0.0206019 0.013465,-0.0271548 0.0103024,0.00848313 0.0103024,-0.0309043 0,-0.00138417 -0.010136,-0.0204062 -0.0103024,-0.0206019zm-0.958062 0l0 0.0309043c0,0.0168611 0.00616742,0.0309043 0.0206048,0.0309043 0.0241119,0 0.0412067,-0.0170918 0.0412067,-0.0412067l0 -0.0309043c0,-0.0168611 -0.00616742,-0.0309072 -0.0206048,-0.0309072 -0.0241119,0 -0.0412067,0.0170947 -0.0412067,0.0412096zm-0.0927158 0.0206019l0.0103024 0.0824134c0.0438057,-0.00364439 0.0618115,-0.0258056 0.0618115,-0.072111l0 -0.0103024c0,-0.0341428 -0.0295552,-0.038523 -0.0618115,-0.0412067 -0.00429559,0.0179358 -0.0118851,0.0318358 -0.0103024,0.0412067zm0.16483 0.0927158l0.0102995 0.0618115c0.0470996,-0.00391888 0.0719328,-0.0431574 0.0824163,-0.0824134 -0.0282936,-0.00659377 -0.0418696,-0.0206048 -0.0618115,-0.0206048 -0.0163735,0 -0.0244886,0.0282644 -0.0309043,0.0412067zm-0.113321 0.0412067c0,0.0200967 0.0824134,0.0708816 0.0824134,0.0103024 0,-0.042147 -0.0104367,-0.058392 -0.0515091,-0.0618115 -0.010647,0.039878 -0.0309043,0.035889 -0.0309043,0.0515091zm-1.89552 0.587199c0,-0.0679585 0.0737988,-0.113318 0.144225,-0.113318l0.144225 0c0.0776214,0 0.154527,0.0480224 0.154527,0.12362 0,0.175877 -0.442977,0.161098 -0.442977,0.0103024l0 -0.0206048zm0.597501 0c0,-0.129055 -0.112009,-0.216295 -0.218383,-0.234917 -0.0840341,-0.014709 -0.302811,-0.017305 -0.386299,0.0216999 -0.273528,0.127793 -0.142315,0.470763 0.110199,0.470763l0.216336 0c0.148614,0 0.278147,-0.10838 0.278147,-0.257545zm0.453277 -0.113318c0.0275256,0 0.0882216,-0.0912236 0.103018,-0.113321 -0.0118793,-0.0164494 -0.0206515,-0.0201201 -0.0515091,-0.0206019l-0.103071 0.00349838 -0.13387 -0.00349838c-0.0592709,0 -0.0468543,0.00667846 -0.113399,0.000864374 -0.0546512,-0.0047745 -0.133841,-0.00613238 -0.133841,0.0300399l0 0.473881 0.133922 0c0.051731,0 0.0360905,-0.153155 0.0206019,-0.185432l0.257545 0 0.10826 -0.12989 -0.355503 -0.00403277 0 -0.0515091 0.267845 0zm0.545995 0c0.0264101,0 0.106578,-0.108683 0.113318,-0.133922l-0.546013 0.00292602 2.04413e-005 0.50186 0.164827 0 0 -0.185432 0.267848 0 0.0874507 -0.130307 -0.355299 -0.00361519 0 -0.0515091 0.267848 0zm0.432076 -0.133709c-0.154521,0.00895912 -0.183452,-0.0375827 -0.298154,0.133709 0.103228,0 0.525387,-0.0365461 0.525387,0.0515091l0 0.0206019c0,0.0361752 -0.0457125,0.0412067 -0.0824134,0.0412067l-0.442974 0 0 0.257545 0.154524 0 0 -0.12362 0.206036 0c0.0144695,0 0.139535,0.106683 0.164827,0.12362l0.216339 0 -0.17783 -0.151271c0.0661772,-0.0180438 0.126321,-0.0788186 0.126321,-0.15778 0,-0.1718 -0.205654,-0.206325 -0.392064,-0.195521zm1.08228 0.288237c0,0.101056 -0.259277,0.106922 -0.356937,0.0787865 -0.118825,-0.0342304 -0.114337,-0.233314 0.068487,-0.233314l0.144225 0c0.0600302,0 0.144225,0.043572 0.144225,0.0927158l0 0.0618115zm-0.113321 0.216336c0.287404,0 0.378269,-0.367759 0.120811,-0.471072 -0.213427,-0.0856431 -0.604992,-0.0373141 -0.604992,0.213527 0,0.145568 0.13189,0.257545 0.278147,0.257545l0.206033 0zm0.613735 -0.301929l0.127848 0.168109 -0.0926632 0.00801006 -0.0205143 0.00219014c-0.039548,0 -0.0739624,-0.0262612 -0.107384,0.0160172 -0.019206,0.0242959 -0.0607398,0.081365 -0.0677453,0.107603l0.576899 0c-0.0582927,-0.0870535 -0.311849,-0.508196 -0.410753,-0.502598 -0.0810818,0.00459053 -0.184439,0.17204 -0.228098,0.23461 -0.0289244,0.041452 -0.177217,0.237761 -0.185288,0.267988l0.190746 -0.00362687 0.216952 -0.298302zm0.447346 -0.0689338c0.162421,0 0.473881,-0.049392 0.473881,0.113318l0 0.0206048c0,0.0886626 -0.10322,0.115522 -0.195734,0.113321l-0.123489 -0.00558339 -0.000131408 -0.179848 -0.16483 0c0.013465,0.0271548 0.0103024,-0.00848313 0.0103024,0.0309043l0 0.226638 -0.0025756 0.0515091 0.352834 0c0.133993,0 0.278147,-0.0959105 0.278147,-0.226638l0 -0.0721139c0,-0.189686 -0.309601,-0.206033 -0.391465,-0.206033l-0.0412067 0c-0.130821,0 -0.128792,0.033953 -0.195734,0.133922z"/>
 </g>
</svg>
