<?xml version="1.0" encoding="UTF-8"?>
<!DOCTYPE svg PUBLIC "-//W3C//DTD SVG 1.1//EN" "http://www.w3.org/Graphics/SVG/1.1/DTD/svg11.dtd">
<!-- Creator: CorelDRAW -->
<svg xmlns="http://www.w3.org/2000/svg" xml:space="preserve" width="25in" height="39in" style="shape-rendering:geometricPrecision; text-rendering:geometricPrecision; image-rendering:optimizeQuality; fill-rule:evenodd; clip-rule:evenodd"
viewBox="0 0 0.377594 0.160431"
 xmlns:xlink="http://www.w3.org/1999/xlink">
 <defs>
  <style type="text/css">
   <![CDATA[
    .fil1 {fill:#0A0B0C}
    .fil12 {fill:#75C5F0}
    .fil0 {fill:black}
    .fil7 {fill:#0A0B0C;fill-rule:nonzero}
    .fil2 {fill:url(#id0);fill-rule:nonzero}
    .fil3 {fill:url(#id1);fill-rule:nonzero}
    .fil8 {fill:url(#id2);fill-rule:nonzero}
    .fil11 {fill:url(#id3);fill-rule:nonzero}
    .fil6 {fill:url(#id4);fill-rule:nonzero}
    .fil10 {fill:url(#id5);fill-rule:nonzero}
    .fil5 {fill:url(#id6);fill-rule:nonzero}
    .fil9 {fill:url(#id7);fill-rule:nonzero}
    .fil4 {fill:url(#id8);fill-rule:nonzero}
   ]]>
  </style>
  <linearGradient id="id0" gradientUnits="userSpaceOnUse" x1="0.0114448" y1="0.0443301" x2="0.156977" y2="0.0443301">
   <stop offset="0" style="stop-color:#C2C1C1"/>
   <stop offset="1" style="stop-color:white"/>
  </linearGradient>
  <linearGradient id="id1" gradientUnits="userSpaceOnUse" xlink:href="#id0" x1="0.0675496" y1="0.139347" x2="0.096336" y2="0.139347">
  </linearGradient>
  <linearGradient id="id2" gradientUnits="userSpaceOnUse" xlink:href="#id0" x1="0.18881" y1="0.1146" x2="0.230319" y2="0.1146">
  </linearGradient>
  <linearGradient id="id3" gradientUnits="userSpaceOnUse" xlink:href="#id0" x1="0.18881" y1="0.0454589" x2="0.230319" y2="0.0454589">
  </linearGradient>
  <linearGradient id="id4" gradientUnits="userSpaceOnUse" xlink:href="#id0" x1="0.23452" y1="0.114972" x2="0.27603" y2="0.114972">
  </linearGradient>
  <linearGradient id="id5" gradientUnits="userSpaceOnUse" xlink:href="#id0" x1="0.23903" y1="0.0454589" x2="0.280539" y2="0.0454589">
  </linearGradient>
  <linearGradient id="id6" gradientUnits="userSpaceOnUse" xlink:href="#id0" x1="0.281338" y1="0.114972" x2="0.322959" y2="0.114972">
  </linearGradient>
  <linearGradient id="id7" gradientUnits="userSpaceOnUse" xlink:href="#id0" x1="0.288507" y1="0.0454589" x2="0.330017" y2="0.0454589">
  </linearGradient>
  <linearGradient id="id8" gradientUnits="userSpaceOnUse" xlink:href="#id0" x1="0.328155" y1="0.114972" x2="0.369663" y2="0.114972">
  </linearGradient>
 </defs>
 <g id="Dummy_x0025_Layer_x0025_Dummy_x0025_Layer">
  <metadata id="CorelCorpID_0Corel-Layer"/>
  <g id="_140639296">
   <path id="_383093720" class="fil0" d="M0.0675496 0.140473c0,-0.00641017 0.00564904,-0.00746268 0.0111564,-0.00803353 0.00430219,-0.000446968 0.0134348,-0.00194545 0.0168619,-0.00194545 -0.00177994,0.00491665 -0.0233722,0.00105449 -0.0237963,0.00614061l0.0238281 0.0023389c0.000442013,0.00133496 0.000736357,0.00268676 0.000736357,0.00418624 0,0.00415452 -0.00233196,0.00398604 -0.00585122,0.0045123 -0.0010971,0.000164516 -0.00910288,0.000527244 -0.00984915,0.000462825 -0.00673822,-0.000582743 -0.013086,-0.00031813 -0.013086,-0.00766188zm-0.0460565 -0.0840538c0,-0.0057868 0.00391171,-0.00977978 0.00823769,-0.0113367 0.00547957,-0.00197221 0.0125161,-0.00036471 0.0154595,-0.00411389 0.00318031,-0.00405046 0.00308319,-0.0104289 0.00553309,-0.0140413 0.00190283,-0.00280866 0.00892251,-0.00620205 0.0133724,-0.00620205l0.00614061 0c0.0056867,0 0.0319627,0.01763 0.036585,0.0213712 0.0111702,0.00904045 0.0207548,0.0169699 0.0308695,0.0270847 0.00494737,0.00494737 0.00947552,0.00992051 0.0143951,0.0147737 0.00486809,0.00480466 0.00697111,0.0136945 0.00353115,0.0217676 -0.00257081,0.00603357 -0.00801371,0.0120771 -0.0123615,0.0164238 -0.00390775,0.00390775 -0.00956769,0.0121861 -0.0165993,0.0121861l-0.0161196 0c-0.0101425,0 -0.00311391,-0.00446472 -0.0101603,-0.0067283 -0.00495728,-0.00159164 -0.00996114,-0.000926641 -0.0151602,-0.000937543 -0.0239886,-4.9553e-005 -0.0154883,0.00760242 -0.0218885,0.0118878 -0.000654099,-0.000438048 -0.00153515,-0.000835463 -0.00153515,-0.00191968l0 -0.00230223c0,-0.00824264 0.012746,-0.0161612 0.0188638,-0.0191334 0.00394937,-0.00191869 0.023395,-0.01042 0.0275772,-0.01042l0.00038354 0c0.002993,0 0.00402568,0.00359854 0.00690868,0.00383837 0.00399595,-0.00596717 -0.000943489,-0.00599195 0.00818318,-0.0133099 0.00195635,-0.00156885 0.0110067,-0.00838437 0.0110067,-0.0104864 0,-0.00356187 -0.0167182,-0.0215942 -0.0197488,-0.0251561 -0.00359755,-0.00422687 -0.00146974,-0.00349448 -0.00344889,-0.0076817 -0.0011645,-0.00246377 -0.00291768,-0.00455194 -0.00465005,-0.00647955 -0.00302769,-0.00336762 -0.00909099,-0.00838139 -0.0143704,-0.00558759 0.000659055,0.00246972 0.00593347,0.00582149 0.00796317,0.00777288 0.000599591,0.000577788 0.00892747,0.00873025 0.00393451,0.00873025 -0.00376008,0 -0.00797506,-0.00268577 -0.0118977,-0.00268577 -0.00586906,0 -0.000136766,0.00651424 0.00038354,0.00729222 0.0120315,0 0.012306,0.00997898 0.0142009,0.00997898l0.00038354 0c0.000808705,0 0.00264613,-0.00153614 0.00345483,-0.00153614l0.00230223 0c0.00324968,0 0.0092119,0.00838337 0.0092119,0.0122822 0,0.000969256 -0.00301877,0.0030703 -0.00383837,0.0030703l-0.00345384 0c-0.00516144,0 -0.0141196,-0.00575707 -0.0184228,-0.00575707l-0.00115161 0c-0.00964103,0 -0.00999979,0.0092119 -0.0153525,0.0092119l-0.00537254 0c-0.017512,0 -0.01873,-0.0387643 -0.0245644,-0.0387643l-0.00115161 0c-0.000884025,0 -0.00115062,0.000266595 -0.00115062,0.00115062l0 0.000768071c0,0.00178193 0.00707518,0.0245793 0.00810885,0.0272006 0.00176508,0.00447067 0.00366197,0.0078601 0.00564508,0.0120107 0.00243008,0.00508414 0.00735565,0.0047888 0.00735565,0.00991555l0 0.00153515c0,0.00192266 -0.00151533,0.00343799 -0.00268676,0.00422191 -0.00957562,-0.000213078 -0.00766783,-0.00076708 -0.0134863,0.00647162 -0.00440229,0.0054766 -0.00911279,0.00326951 -0.01186,-0.00223484 -0.00173535,-0.00347961 -0.0109889,-0.0291837 -0.0130344,-0.0291837l-0.00230322 0c-0.000884025,0 -0.00115161,0.000266595 -0.00115161,0.00115161l0 0.00345384c0,0.000589681 0.00959346,0.0191691 0.0106945,0.0219292 0.00156191,0.00391865 0.00294147,0.00779964 0.00426552,0.0118551 0.00197816,0.00606231 0.00428237,0.00459654 0.010755,0.00459654l0.000768071 0c0.00129333,0 0.00268676,0.000677885 0.00268676,0.00191869l0 0.00268676c0,0.00346474 -0.00736457,0.00806029 -0.0118987,0.00806029l-0.00191869 0c-0.0100285,0 -0.0160859,-0.0287853 -0.0211096,-0.0287853l-0.00038354 0c-0.00118035,0 -0.00153515,0.00112386 -0.00153515,0.00230223l0 0.00038354c0,0.00359556 0.0078036,0.018847 0.00966779,0.0218053 0.0025163,0.00399397 0.00376603,0.00553507 0.00674416,0.00899089 0.00228538,0.00265108 0.00930308,0.00461239 0.00930308,0.00604943l0 0.00038354c0,0.002661 -0.00436562,0.00498999 -0.00729222,0.00498999 -0.00897999,0 -0.0148857,-0.0115538 -0.0177618,-0.0183158 -0.00126856,-0.0029821 -0.0110236,-0.0240025 -0.0110236,-0.0246705l0 -0.00191869c0,-0.00210105 0.00537254,-0.00493548 0.00537254,-0.0092119l0 -0.00038354c0,-0.00936651 -0.00539434,-0.0101177 0.000104061,-0.0175517 0.00286714,-0.00387504 0.0110265,-0.00794929 0.0110265,-0.0120017 0,-0.00353412 -0.00153515,-0.00605934 -0.00153515,-0.00921091l0 -0.00345483zm-0.00997898 0.0142009c0,-0.0130443 7.03652e-005,-0.0261085 -2.97318e-006,-0.0391518 -6.6401e-005,-0.0115954 0.00747655,-0.019954 0.0188093,-0.019954l0.108234 0c0.0130959,0 0.0184228,0.0101316 0.0184228,0.0237963 0,0.0139442 0,0.0278894 0,0.0418346 -0.00144199,-0.000965292 -0.00834671,-0.00754395 -0.0102634,-0.00931002 -0.00342411,-0.00315653 -0.00711977,-0.00593248 -0.0103605,-0.00921388 -0.00580067,-0.00587302 -0.0142465,-0.0127738 -0.0207796,-0.0179858 -0.00940119,-0.00750034 -0.0356801,-0.0268181 -0.0507096,-0.0268181l-0.00191968 0c-0.00855483,0 -0.0165477,0.00241026 -0.018517,0.00911676 -0.00114368,0.00389685 -0.00179481,0.00682246 -0.00335276,0.0104646 -0.00177994,0.00416344 -0.00539335,0.00229529 -0.0103695,0.00229529 -0.00797506,0 -0.0165041,0.0104646 -0.0165041,0.0191899 0,0.00869159 0.00361043,0.0115201 -0.00268676,0.015736zm0.0629442 0.0836702c0.0193098,0 0.0392737,0 0.0594903,0 0.0112743,0 0.0181542,-0.000454896 0.0238974,-0.00603952 0.00457771,-0.00445283 0.010645,-0.0105825 0.010645,-0.019292l0 -0.103627c0,-0.011865 -0.0135438,-0.0253315 -0.025715,-0.0253315l-0.117445 0c-0.0120186,0 -0.0253315,0.0132911 -0.0253315,0.0253315l0 0.103627c0,0.0102842 0.00871439,0.0188519 0.0153604,0.0226368 0.00220709,0.00125765 0.00425759,0.00170363 0.00713167,0.00246377 0.00162137,0.000428138 0.00381657,0.0025827 0.00564508,0.00356583 0.00376603,0.00202275 0.0103219,0.00280569 0.0160007,0.00280569 0.00729816,0 0.00980158,-0.00185427 0.0146925,-0.00373035 0.00408911,-0.00156885 0.0102585,-0.00241026 0.015628,-0.00241026z"/>
   <path id="_383093888" class="fil1" d="M0.286334 0.0147301c0.00277001,-0.00225962 0.00611682,-0.00345979 0.00976392,-0.00345979l0.0311748 0c0.00282254,0 0.00545578,0.0010644 0.00747854,0.00303264 0.00207032,0.00201582 0.00319617,0.0047115 0.00319617,0.00760044 0,0.00283443 -0.00107134,0.00546569 -0.00304949,0.00749539l-3.46871e-005 3.66692e-005 -3.66692e-005 3.56782e-005c-0.00202474,0.00202573 -0.00468969,0.00312184 -0.00755386,0.00312184l-0.0253444 0 0 0.00219123 0.0178371 0c0.00293651,0 0.00566292,0.0011526 0.00768666,0.00328437 0.00192266,0.00202672 0.00294642,0.00464113 0.00294642,0.00743295 0,0.00285326 -0.00107233,0.0055202 -0.0030931,0.00753998 -0.00201978,0.00201978 -0.00468672,0.00309211 -0.00753998,0.00309211l-0.0178371 0 0 0.00219222 0.0253444 0c0.00286416,0 0.00552813,0.00109512 0.00755386,0.00312085l3.66692e-005 3.66692e-005 3.56782e-005 3.66692e-005c0.00197716,0.0020287 0.0030485,0.00465996 0.0030485,0.00749439 0,0.00288894 -0.00112584,0.00558462 -0.00319617,0.00760044 -0.00202275,0.00196924 -0.004656,0.00303264 -0.00747854,0.00303264l-0.0311748 0c-0.00365998,0 -0.00701869,-0.00119224 -0.00980753,-0.00345384 -0.000286416,0.000375612 -0.000600582,0.000734375 -0.000941507,0.0010753 -0.00202573,0.00202573 -0.00468969,0.00312085 -0.00755485,0.00312085 -0.00337456,0 -0.00646865,-0.0014747 -0.00848942,-0.00418921l-1.98212e-005 -2.67586e-005 -0.0168351 -0.0230193 0 0.01663c0,0.00289588 -0.00110602,0.00557868 -0.00318328,0.00760143 -0.00201086,0.00195734 -0.00464411,0.0030039 -0.00744881,0.0030039 -0.0027938,0 -0.00540722,-0.00103962 -0.00743295,-0.00296129 -0.000522288,-0.00049553 -0.000986104,-0.00103268 -0.00138847,-0.00160453 -0.00285425,0.00250639 -0.00637945,0.00382351 -0.0102248,0.00382351l-0.0263711 0c-0.0041347,0 -0.00788586,-0.00152128 -0.010863,-0.00438742l-2.77497e-005 -2.67586e-005 -2.67586e-005 -2.57676e-005c-0.00300192,-0.00294543 -0.00460248,-0.00674912 -0.00460248,-0.0109542l0 -0.0375879c0,-0.00421399 0.0016293,-0.00802263 0.00465699,-0.0109522 0.00296228,-0.00289389 0.00671939,-0.00444292 0.010863,-0.00444292l0.0263711 0c0.00386117,0 0.00737448,0.00134487 0.0102317,0.0038691 0.000363719,-0.000516342 0.000775009,-0.00100493 0.00123189,-0.00146181 0.00203167,-0.00203266 0.00470654,-0.00314959 0.0075826,-0.00314959 0.00320806,0 0.0061416,0.00139343 0.00818913,0.00386117l0.000153614 0.000184337 0.0170016 0.0232156 0 -0.0166558c0,-0.00285425 0.00107332,-0.00550633 0.00309211,-0.00752611l7.63116e-005 -7.53205e-005 7.73027e-005 -7.33384e-005c0.00201879,-0.00191275 0.00460545,-0.00293056 0.00738637,-0.00293056 0.00278091,0 0.00538245,0.00101683 0.00740123,0.00293056l3.96424e-005 3.66692e-005 3.86513e-005 3.76603e-005c0.000386513,0.000377594 0.000741313,0.000776991 0.00106043,0.0011972z"/>
   <path id="_383093648" class="fil1" d="M0.335745 0.0887137l0.0311738 0c0.000770053,0 0.00141424,0.000265604 0.00194644,0.000783928 0.000532199,0.000518324 0.000797803,0.00116251 0.000797803,0.00191869 0,0.000770053 -0.000265604,0.00141424 -0.000797803,0.00196032 -0.000532199,0.000532199 -0.00117639,0.000798794 -0.00194644,0.000798794l-0.0289191 0c-0.00120513,0 -0.00224079,0.000420209 -0.0030812,0.00126063 -0.000854294,0.000854294 -0.0012745,0.0018622 -0.0012745,0.00303859l0 0.0137519 0.0257685 0c0.000770053,0 0.00141424,0.000266595 0.00193257,0.000812669 0.000518324,0.000546074 0.000770053,0.00120414 0.000770053,0.00197419 0,0.000770053 -0.000251729,0.00141523 -0.000770053,0.00193257 -0.000518324,0.000518324 -0.00116251,0.000771045 -0.00193257,0.000771045l-0.0257685 0 0 0.0137519c0,0.00117639 0.000420209,0.0021843 0.0012745,0.00303859 0.000840419,0.000840419 0.00187608,0.00126063 0.0030812,0.00126063l0.0289191 0c0.000770053,0 0.00141424,0.000266595 0.00194644,0.000798794 0.000532199,0.000546074 0.000797803,0.00119026 0.000797803,0.00196032 0,0.000756179 -0.000265604,0.00140037 -0.000797803,0.00191869 -0.000532199,0.000517333 -0.00117639,0.000783928 -0.00194644,0.000783928l-0.0311738 0c-0.00208717,0 -0.00386513,-0.000728429 -0.00536461,-0.00217042 -0.00148362,-0.00145686 -0.00222592,-0.00322094 -0.00222592,-0.00529424l0 -0.0375879c0,-0.00204456 0.000742304,-0.00380864 0.00225466,-0.0052655 0.00149848,-0.00146974 0.00327644,-0.00219817 0.00533587,-0.00219817z"/>
   <path id="_383093504" class="fil1" d="M0.283088 0.0882231c0.000335969,-0.000167489 0.000685813,-0.000251729 0.00107827,-0.000251729 0.000546074,0 0.00105052,0.000153614 0.00152623,0.000447959 0.000490575,0.00030822 0.000826544,0.000714554 0.0010089,0.00123288l0.0154328 0.0424332 0.0154605 -0.0424332c0.00019623,-0.000518324 0.000532199,-0.000924659 0.0010089,-0.00123288 0.000475709,-0.000294345 0.000994033,-0.000447959 0.00154011,-0.000447959 0.000377594,0 0.000742304,8.42401e-005 0.0010644,0.000251729 0.000714554,0.000266595 0.00120414,0.000756179 0.00148461,0.00142911 0.000265604,0.000685813 0.000251729,0.0013855 -4.26156e-005,0.00210006l-0.0179818 0.0485391c-0.000489584,0.00112089 -0.00133,0.00168084 -0.00253414,0.00168084 -0.00117639,0 -0.00201681,-0.000559949 -0.00250738,-0.00168084l-0.0179669 -0.0485391c-0.00030822,-0.000714554 -0.000322094,-0.00141424 -4.26156e-005,-0.00210006 0.000266595,-0.00067293 0.000770053,-0.00116251 0.00147073,-0.00142911z"/>
   <path id="_383093696" class="fil1" d="M0.242111 0.0887137l0.0263711 0c0.00205843,0 0.00382252,0.000728429 0.005321,0.00219817 0.00148461,0.00145686 0.00222691,0.00322094 0.00222691,0.0052655l0 0.0375879c0,0.0020733 -0.000728429,0.00383738 -0.00221304,0.00529424 -0.00146974,0.00144199 -0.00324869,0.00217042 -0.00533487,0.00217042l-0.0263711 0c-0.00208618,0 -0.00386513,-0.000728429 -0.00536362,-0.00217042 -0.00148461,-0.00145686 -0.00222691,-0.00322094 -0.00222691,-0.00529424l0 -0.0375879c0,-0.00204456 0.000742304,-0.00380864 0.00225466,-0.0052655 0.00149848,-0.00146974 0.00327743,-0.00219817 0.00533587,-0.00219817z"/>
   <path id="_200969720" class="fil1" d="M0.244366 0.0941755c-0.00120414,0 -0.00224079,0.000420209 -0.0030812,0.00126063 -0.000854294,0.000854294 -0.00127351,0.0018622 -0.00127351,0.00303859l0 0.0329944c0,0.00117639 0.000419218,0.0021843 0.00127351,0.00303859 0.000840419,0.000840419 0.00187707,0.00126063 0.0030812,0.00126063l0.021945 0c0.00117639,0 0.00218529,-0.000420209 0.00301084,-0.00126063 0.000840419,-0.000854294 0.00126063,-0.0018622 0.00126063,-0.00303859l0 -0.0329944c0,-0.00117639 -0.000420209,-0.0021843 -0.00126063,-0.00303859 -0.000825553,-0.000840419 -0.00183445,-0.00126063 -0.00301084,-0.00126063l-0.021945 0z"/>
   <path id="_140640808" class="fil1" d="M0.1943 0.131469c0,0.00117639 0.000420209,0.0021843 0.0012745,0.00303859 0.000839428,0.000840419 0.00187608,0.00126063 0.00308021,0.00126063l0.0289191 0c0.000771045,0 0.00141523,0.000266595 0.00194743,0.000798794 0.000532199,0.000546074 0.000797803,0.00119026 0.000797803,0.00196032 0,0.000756179 -0.000265604,0.00140037 -0.000797803,0.00191869 -0.000532199,0.000517333 -0.00117639,0.000783928 -0.00194743,0.000783928l-0.0311738 0c-0.00208618,0 -0.00386513,-0.000728429 -0.00536362,-0.00217042 -0.00148461,-0.00145686 -0.00222691,-0.00322094 -0.00222691,-0.00529424l0 -0.043119c0,-0.000742304 0.000266595,-0.00137262 0.000812669,-0.00189094 0.000546074,-0.000518324 0.00120414,-0.000783928 0.00197419,-0.000783928 0.00075717,0 0.00140136,0.000251729 0.00191869,0.000756179 0.000532199,0.000518324 0.000784919,0.00114864 0.000784919,0.00191869l0 0.0408227z"/>
   <path id="_140640304" class="fil1" d="M0.296098 0.0192008l0.0311748 0c0.000770053,0 0.00141424,0.000266595 0.00194644,0.000783928 0.000532199,0.000518324 0.000797803,0.00116251 0.000797803,0.00191869 0,0.000770053 -0.000265604,0.00141424 -0.000797803,0.00196032 -0.000532199,0.00053319 -0.00117639,0.000798794 -0.00194644,0.000798794l-0.0289201 0c-0.00120414,0 -0.00224079,0.000420209 -0.00308021,0.00126063 -0.000854294,0.000854294 -0.0012745,0.0018622 -0.0012745,0.00303859l0 0.0137519 0.0257676 0c0.000771045,0 0.00141523,0.000266595 0.00193356,0.000812669 0.000517333,0.000546074 0.000770053,0.00120414 0.000770053,0.00197518 0,0.000770053 -0.00025272,0.00141424 -0.000770053,0.00193257 -0.000518324,0.000517333 -0.00116251,0.000770053 -0.00193356,0.000770053l-0.0257676 0 0 0.0137519c0,0.00117639 0.000420209,0.00218529 0.0012745,0.00303859 0.000839428,0.000840419 0.00187608,0.00126063 0.00308021,0.00126063l0.0289201 0c0.000770053,0 0.00141424,0.000266595 0.00194644,0.000798794 0.000532199,0.000546074 0.000797803,0.00119026 0.000797803,0.00196032 0,0.000756179 -0.000265604,0.00140037 -0.000797803,0.00191869 -0.000532199,0.000518324 -0.00117639,0.000783928 -0.00194644,0.000783928l-0.0311748 0c-0.00208618,0 -0.00386513,-0.000728429 -0.00536362,-0.00217042 -0.00148461,-0.00145686 -0.00222691,-0.00322094 -0.00222691,-0.00529325l0 -0.0375879c0,-0.00204456 0.000742304,-0.00380963 0.00225565,-0.0052655 0.00149848,-0.00147073 0.00327644,-0.00219916 0.00533487,-0.00219916z"/>
   <path id="_140640472" class="fil1" d="M0.241818 0.0184585c0.000839428,0 0.00154011,0.000335969 0.00208618,0.000994033l0.0311877 0.0425878 0 -0.040907c0,-0.000770053 0.00025272,-0.00140037 0.000770053,-0.00191869 0.000532199,-0.000504449 0.00116251,-0.000756179 0.00193257,-0.000756179 0.000771045,0 0.00141523,0.000251729 0.00194743,0.000756179 0.000532199,0.000518324 0.000797803,0.00114864 0.000797803,0.00191869l0 0.0485669c0,0.000771045 -0.000265604,0.00142911 -0.000797803,0.00196131 -0.000532199,0.000532199 -0.00117639,0.000797803 -0.00194743,0.000797803 -0.000923668,0 -0.00163822,-0.000335969 -0.00212781,-0.000994033l-0.031146 -0.0425878 0 0.040907c0,0.000770053 -0.00025272,0.00140037 -0.000784919,0.00191869 -0.000517333,0.000504449 -0.00116152,0.000756179 -0.0019177,0.000756179 -0.000771045,0 -0.00142911,-0.000265604 -0.00197518,-0.000783928 -0.000546074,-0.000518324 -0.000812669,-0.00114864 -0.000812669,-0.00189094l0 -0.0486511c0,-0.000685813 0.000266595,-0.00130225 0.000812669,-0.00184833 0.000546074,-0.000546074 0.00120414,-0.000826544 0.00197518,-0.000826544z"/>
   <path id="_140640208" class="fil1" d="M0.1964 0.0192008l0.0263711 0c0.00205843,0 0.00382252,0.000728429 0.005321,0.00219916 0.00148461,0.00145587 0.00222691,0.00322094 0.00222691,0.0052655l0 0.0375879c0,0.00207231 -0.000728429,0.00383639 -0.00221304,0.00529325 -0.00146974,0.00144199 -0.00324869,0.00217042 -0.00533487,0.00217042l-0.0263711 0c-0.00208618,0 -0.00386513,-0.000728429 -0.00536362,-0.00217042 -0.00148461,-0.00145686 -0.00222691,-0.00322094 -0.00222691,-0.00529325l0 -0.0375879c0,-0.00204456 0.000742304,-0.00380963 0.00225565,-0.0052655 0.00149848,-0.00147073 0.00327644,-0.00219916 0.00533487,-0.00219916z"/>
   <path id="_140640088" class="fil1" d="M0.198655 0.0246625c-0.00120414,0 -0.00224079,0.000420209 -0.00308021,0.00126063 -0.000854294,0.000854294 -0.0012745,0.0018622 -0.0012745,0.00303859l0 0.0329944c0,0.00117639 0.000420209,0.00218529 0.0012745,0.00303859 0.000839428,0.000840419 0.00187608,0.00126063 0.00308021,0.00126063l0.021945 0c0.00117639,0 0.00218529,-0.000420209 0.00301183,-0.00126063 0.000839428,-0.000853302 0.00125964,-0.0018622 0.00125964,-0.00303859l0 -0.0329944c0,-0.00117639 -0.000420209,-0.0021843 -0.00125964,-0.00303859 -0.000826544,-0.000840419 -0.00183544,-0.00126063 -0.00301183,-0.00126063l-0.021945 0z"/>
   <path id="_140640064" class="fil1" d="M0.327615 0.0830736c0.00241422,-0.00150245 0.00517432,-0.00229034 0.00813065,-0.00229034l0.0311738 0c0.00282353,0 0.00545678,0.00106341 0.00747854,0.00303264 0.00207032,0.00201582 0.00319617,0.0047115 0.00319617,0.00760044 0,0.00283443 -0.00107134,0.00546569 -0.0030485,0.00749539l-3.56782e-005 3.56782e-005 -3.56782e-005 3.66692e-005c-0.00202573,0.00202573 -0.00468969,0.00312085 -0.00755485,0.00312085l-0.0253444 0 0 0.00219222 0.0178381 0c0.00293552,0 0.00566292,0.0011526 0.00768567,0.00328437 0.00192266,0.00202672 0.00294741,0.00464113 0.00294741,0.00743196 0,0.00285425 -0.00107332,0.0055202 -0.00309409,0.00754097 -0.00201978,0.00201978 -0.00468573,0.00309211 -0.00753899,0.00309211l-0.0178381 0 0 0.00219123 0.0253444 0c0.00286416,0 0.00552813,0.00109611 0.00755386,0.00312085l3.66692e-005 3.66692e-005 3.56782e-005 3.76603e-005c0.00197716,0.0020287 0.0030485,0.00465996 0.0030485,0.00749439 0,0.00288894 -0.00112584,0.00558462 -0.00319617,0.00760044 -0.00202176,0.00196824 -0.00465501,0.00303264 -0.00747854,0.00303264l-0.0311738 0c-0.0041347,0 -0.00788586,-0.00152128 -0.010864,-0.00438742l-2.67586e-005 -2.67586e-005 -2.77497e-005 -2.67586e-005c-0.00300093,-0.00294444 -0.00460248,-0.00674813 -0.00460248,-0.0109542l0 -0.012635 -0.00819805 0.0221304 -9.11775e-005 0.000209114c-0.00174922,0.00399694 -0.00543299,0.00643297 -0.00980059,0.00643297 -0.00435571,0 -0.00803056,-0.0024499 -0.00977284,-0.00643297l-9.11775e-005 -0.000210105 -0.00831004 -0.0224495 0 0.0129551c0,0.00420408 -0.00158669,0.00800875 -0.0045896,0.0109552 -0.00296228,0.00290579 -0.00673921,0.00443995 -0.0108888,0.00443995l-0.0263711 0c-0.00290876,0 -0.00562823,-0.000753205 -0.00802164,-0.00219817 -0.00186319,0.00143307 -0.00412083,0.00219817 -0.00651523,0.00219817l-0.0311738 0c-0.0041347,0 -0.00788586,-0.00152128 -0.010863,-0.00438742l-2.77497e-005 -2.67586e-005 -2.67586e-005 -2.67586e-005c-0.00300192,-0.00294444 -0.00460248,-0.00674813 -0.00460248,-0.0109542l0 -0.043119c0,-0.00292264 0.0011635,-0.0056312 0.00328437,-0.00764305 0.00202474,-0.00192266 0.00463915,-0.00296228 0.00743196,-0.00296228 0.0028047,0 0.00543894,0.00104656 0.00745079,0.0030039 0.00207627,0.00202275 0.00318229,0.00470555 0.00318229,0.00760143l0 0.0371915 0.0243612 0 0 -0.0316604c0,-0.00421399 0.0016293,-0.00802263 0.00465699,-0.0109512 0.00296228,-0.00289389 0.00671939,-0.00444292 0.010863,-0.00444292l0.0263711 0c0.00297813,0 0.00574914,0.000799785 0.00817228,0.00232404 0.000928623,-0.000904838 0.00202969,-0.00163525 0.00325761,-0.00215357 0.00133991,-0.000604546 0.00277794,-0.000912766 0.00425462,-0.000912766 0.00202573,0 0.00397118,0.000567877 0.00569364,0.00163128l2.67586e-005 1.5857e-005 2.57676e-005 1.6848e-005c0.00197915,0.00124378 0.00346375,0.00306337 0.00425066,0.00526253l0.00797803 0.0219341 0.00801966 -0.0220104 1.6848e-005 -4.55887e-005c0.000796812,-0.00210699 0.00222691,-0.00386018 0.00411785,-0.00508414l6.93742e-005 -4.55887e-005 7.13563e-005 -4.36066e-005c0.00172246,-0.00106341 0.00368278,-0.00163128 0.00570751,-0.00163128 0.00147172,0 0.00292561,0.000311193 0.00426057,0.000920695 0.00121008,0.000510396 0.00229232,0.00122594 0.00321004,0.00211195z"/>
   <path id="_140640496" class="fil2" d="M0.0648639 0.0138174c0.0150294,0 0.0413084,0.0193177 0.0507096,0.0268181 0.00653307,0.00521198 0.0149789,0.0121127 0.0207796,0.0179858 0.00324077,0.0032814 0.00693643,0.00605736 0.0103605,0.00921388 0.00191671,0.00176607 0.00882142,0.00834472 0.0102634,0.00931002 0,-0.0139452 0,-0.0278904 0,-0.0418346 0,-0.0136647 -0.00532695,-0.0237963 -0.0184228,-0.0237963l-0.108234 0c-0.0113328,0 -0.0188757,0.0083586 -0.0188093,0.019954 7.33384e-005,0.0130433 2.97318e-006,0.0261075 2.97318e-006,0.0391518 0.00629719,-0.00421597 0.00268676,-0.00704445 0.00268676,-0.015736 0,-0.00872529 0.00852906,-0.0191899 0.0165041,-0.0191899 0.00497611,0 0.00858952,0.00186815 0.0103695,-0.00229529 0.00155795,-0.00364214 0.00220907,-0.00656676 0.00335276,-0.0104646 0.00196924,-0.0067065 0.00996213,-0.00911676 0.018517,-0.00911676l0.00191968 0z"/>
   <path id="_140640616" class="fil3" d="M0.0955996 0.138973l-0.0238281 -0.0023389c0.000423183,-0.00508612 0.0220164,-0.00122396 0.0237963,-0.00614061 -0.00342808,0 -0.0125597,0.00149848 -0.0168619,0.00194545 -0.00550732,0.00057085 -0.0111564,0.00162336 -0.0111564,0.00803353 0,0.00734375 0.00634774,0.00707914 0.013086,0.00766188 0.000746268,6.44189e-005 0.00875205,-0.000298309 0.00985014,-0.000462825 0.00351826,-0.000526253 0.00585023,-0.000357773 0.00585023,-0.0045123 0,-0.00149947 -0.000294345,-0.00285128 -0.000736357,-0.00418624z"/>
   <path id="_140640784" class="fil4" d="M0.335745 0.0887137l0.0311738 0c0.000770053,0 0.00141424,0.000265604 0.00194644,0.000783928 0.000532199,0.000518324 0.000797803,0.00116251 0.000797803,0.00191869 0,0.000770053 -0.000265604,0.00141424 -0.000797803,0.00196032 -0.000532199,0.000532199 -0.00117639,0.000798794 -0.00194644,0.000798794l-0.0289191 0c-0.00120513,0 -0.00224079,0.000420209 -0.0030812,0.00126063 -0.000854294,0.000854294 -0.0012745,0.0018622 -0.0012745,0.00303859l0 0.0137519 0.0257685 0c0.000770053,0 0.00141424,0.000266595 0.00193257,0.000812669 0.000518324,0.000546074 0.000770053,0.00120414 0.000770053,0.00197419 0,0.000770053 -0.000251729,0.00141523 -0.000770053,0.00193257 -0.000518324,0.000518324 -0.00116251,0.000771045 -0.00193257,0.000771045l-0.0257685 0 0 0.0137519c0,0.00117639 0.000420209,0.0021843 0.0012745,0.00303859 0.000840419,0.000840419 0.00187608,0.00126063 0.0030812,0.00126063l0.0289191 0c0.000770053,0 0.00141424,0.000266595 0.00194644,0.000798794 0.000532199,0.000546074 0.000797803,0.00119026 0.000797803,0.00196032 0,0.000756179 -0.000265604,0.00140037 -0.000797803,0.00191869 -0.000532199,0.000517333 -0.00117639,0.000783928 -0.00194644,0.000783928l-0.0311738 0c-0.00208717,0 -0.00386513,-0.000728429 -0.00536461,-0.00217042 -0.00148362,-0.00145686 -0.00222592,-0.00322094 -0.00222592,-0.00529424l0 -0.0375879c0,-0.00204456 0.000742304,-0.00380864 0.00225466,-0.0052655 0.00149848,-0.00146974 0.00327644,-0.00219817 0.00533587,-0.00219817z"/>
   <path id="_140640424" class="fil5" d="M0.283088 0.0882231c0.000335969,-0.000167489 0.000685813,-0.000251729 0.00107827,-0.000251729 0.000546074,0 0.00105052,0.000153614 0.00152623,0.000447959 0.000490575,0.00030822 0.000826544,0.000714554 0.0010089,0.00123288l0.0154328 0.0424332 0.0154605 -0.0424332c0.00019623,-0.000518324 0.000532199,-0.000924659 0.0010089,-0.00123288 0.000475709,-0.000294345 0.000994033,-0.000447959 0.00154011,-0.000447959 0.000377594,0 0.000742304,8.42401e-005 0.0010644,0.000251729 0.000714554,0.000266595 0.00120414,0.000756179 0.00148461,0.00142911 0.000265604,0.000685813 0.000251729,0.0013855 -4.26156e-005,0.00210006l-0.0179818 0.0485391c-0.000489584,0.00112089 -0.00133,0.00168084 -0.00253414,0.00168084 -0.00117639,0 -0.00201681,-0.000559949 -0.00250738,-0.00168084l-0.0179669 -0.0485391c-0.00030822,-0.000714554 -0.000322094,-0.00141424 -4.26156e-005,-0.00210006 0.000266595,-0.00067293 0.000770053,-0.00116251 0.00147073,-0.00142911z"/>
   <path id="_140640592" class="fil6" d="M0.242111 0.0887137l0.0263711 0c0.00205843,0 0.00382252,0.000728429 0.005321,0.00219817 0.00148461,0.00145686 0.00222691,0.00322094 0.00222691,0.0052655l0 0.0375879c0,0.0020733 -0.000728429,0.00383738 -0.00221304,0.00529424 -0.00146974,0.00144199 -0.00324869,0.00217042 -0.00533487,0.00217042l-0.0263711 0c-0.00208618,0 -0.00386513,-0.000728429 -0.00536362,-0.00217042 -0.00148461,-0.00145686 -0.00222691,-0.00322094 -0.00222691,-0.00529424l0 -0.0375879c0,-0.00204456 0.000742304,-0.00380864 0.00225466,-0.0052655 0.00149848,-0.00146974 0.00327743,-0.00219817 0.00533587,-0.00219817z"/>
   <path id="_140639680" class="fil7" d="M0.244366 0.0941755c-0.00120414,0 -0.00224079,0.000420209 -0.0030812,0.00126063 -0.000854294,0.000854294 -0.00127351,0.0018622 -0.00127351,0.00303859l0 0.0329944c0,0.00117639 0.000419218,0.0021843 0.00127351,0.00303859 0.000840419,0.000840419 0.00187707,0.00126063 0.0030812,0.00126063l0.021945 0c0.00117639,0 0.00218529,-0.000420209 0.00301084,-0.00126063 0.000840419,-0.000854294 0.00126063,-0.0018622 0.00126063,-0.00303859l0 -0.0329944c0,-0.00117639 -0.000420209,-0.0021843 -0.00126063,-0.00303859 -0.000825553,-0.000840419 -0.00183445,-0.00126063 -0.00301084,-0.00126063l-0.021945 0z"/>
   <path id="_140639488" class="fil8" d="M0.1943 0.131469c0,0.00117639 0.000420209,0.0021843 0.0012745,0.00303859 0.000839428,0.000840419 0.00187608,0.00126063 0.00308021,0.00126063l0.0289191 0c0.000771045,0 0.00141523,0.000266595 0.00194743,0.000798794 0.000532199,0.000546074 0.000797803,0.00119026 0.000797803,0.00196032 0,0.000756179 -0.000265604,0.00140037 -0.000797803,0.00191869 -0.000532199,0.000517333 -0.00117639,0.000783928 -0.00194743,0.000783928l-0.0311738 0c-0.00208618,0 -0.00386513,-0.000728429 -0.00536362,-0.00217042 -0.00148461,-0.00145686 -0.00222691,-0.00322094 -0.00222691,-0.00529424l0 -0.043119c0,-0.000742304 0.000266595,-0.00137262 0.000812669,-0.00189094 0.000546074,-0.000518324 0.00120414,-0.000783928 0.00197419,-0.000783928 0.00075717,0 0.00140136,0.000251729 0.00191869,0.000756179 0.000532199,0.000518324 0.000784919,0.00114864 0.000784919,0.00191869l0 0.0408227z"/>
   <path id="_140639464" class="fil9" d="M0.296098 0.0192008l0.0311748 0c0.000770053,0 0.00141424,0.000266595 0.00194644,0.000783928 0.000532199,0.000518324 0.000797803,0.00116251 0.000797803,0.00191869 0,0.000770053 -0.000265604,0.00141424 -0.000797803,0.00196032 -0.000532199,0.00053319 -0.00117639,0.000798794 -0.00194644,0.000798794l-0.0289201 0c-0.00120414,0 -0.00224079,0.000420209 -0.00308021,0.00126063 -0.000854294,0.000854294 -0.0012745,0.0018622 -0.0012745,0.00303859l0 0.0137519 0.0257676 0c0.000771045,0 0.00141523,0.000266595 0.00193356,0.000812669 0.000517333,0.000546074 0.000770053,0.00120414 0.000770053,0.00197518 0,0.000770053 -0.00025272,0.00141424 -0.000770053,0.00193257 -0.000518324,0.000517333 -0.00116251,0.000770053 -0.00193356,0.000770053l-0.0257676 0 0 0.0137519c0,0.00117639 0.000420209,0.00218529 0.0012745,0.00303859 0.000839428,0.000840419 0.00187608,0.00126063 0.00308021,0.00126063l0.0289201 0c0.000770053,0 0.00141424,0.000266595 0.00194644,0.000798794 0.000532199,0.000546074 0.000797803,0.00119026 0.000797803,0.00196032 0,0.000756179 -0.000265604,0.00140037 -0.000797803,0.00191869 -0.000532199,0.000518324 -0.00117639,0.000783928 -0.00194644,0.000783928l-0.0311748 0c-0.00208618,0 -0.00386513,-0.000728429 -0.00536362,-0.00217042 -0.00148461,-0.00145686 -0.00222691,-0.00322094 -0.00222691,-0.00529325l0 -0.0375879c0,-0.00204456 0.000742304,-0.00380963 0.00225565,-0.0052655 0.00149848,-0.00147073 0.00327644,-0.00219916 0.00533487,-0.00219916z"/>
   <path id="_140639392" class="fil10" d="M0.241818 0.0184585c0.000839428,0 0.00154011,0.000335969 0.00208618,0.000994033l0.0311877 0.0425878 0 -0.040907c0,-0.000770053 0.00025272,-0.00140037 0.000770053,-0.00191869 0.000532199,-0.000504449 0.00116251,-0.000756179 0.00193257,-0.000756179 0.000771045,0 0.00141523,0.000251729 0.00194743,0.000756179 0.000532199,0.000518324 0.000797803,0.00114864 0.000797803,0.00191869l0 0.0485669c0,0.000771045 -0.000265604,0.00142911 -0.000797803,0.00196131 -0.000532199,0.000532199 -0.00117639,0.000797803 -0.00194743,0.000797803 -0.000923668,0 -0.00163822,-0.000335969 -0.00212781,-0.000994033l-0.031146 -0.0425878 0 0.040907c0,0.000770053 -0.00025272,0.00140037 -0.000784919,0.00191869 -0.000517333,0.000504449 -0.00116152,0.000756179 -0.0019177,0.000756179 -0.000771045,0 -0.00142911,-0.000265604 -0.00197518,-0.000783928 -0.000546074,-0.000518324 -0.000812669,-0.00114864 -0.000812669,-0.00189094l0 -0.0486511c0,-0.000685813 0.000266595,-0.00130225 0.000812669,-0.00184833 0.000546074,-0.000546074 0.00120414,-0.000826544 0.00197518,-0.000826544z"/>
   <path id="_140639536" class="fil11" d="M0.1964 0.0192008l0.0263711 0c0.00205843,0 0.00382252,0.000728429 0.005321,0.00219916 0.00148461,0.00145587 0.00222691,0.00322094 0.00222691,0.0052655l0 0.0375879c0,0.00207231 -0.000728429,0.00383639 -0.00221304,0.00529325 -0.00146974,0.00144199 -0.00324869,0.00217042 -0.00533487,0.00217042l-0.0263711 0c-0.00208618,0 -0.00386513,-0.000728429 -0.00536362,-0.00217042 -0.00148461,-0.00145686 -0.00222691,-0.00322094 -0.00222691,-0.00529325l0 -0.0375879c0,-0.00204456 0.000742304,-0.00380963 0.00225565,-0.0052655 0.00149848,-0.00147073 0.00327644,-0.00219916 0.00533487,-0.00219916z"/>
   <path id="_140639872" class="fil12" d="M0.100461 0.0476888c-0.00202969,-0.0019514 -0.00730411,-0.00530316 -0.00796317,-0.00777288 0.00527938,-0.0027938 0.0113417,0.00221997 0.0143694,0.00558759 0.00173336,0.00192761 0.00348655,0.00401577 0.00465104,0.00647955 0.00197915,0.00418723 -0.000148659,0.00345483 0.00344889,0.0076827 0.00303066,0.00356088 0.0197498,0.0215932 0.0197498,0.0251551 0,0.00210204 -0.00905135,0.00891756 -0.0110077,0.0104864 -0.00912667,0.00731799 -0.00418723,0.00734276 -0.00818318,0.0133099 -0.00288299,-0.000239836 -0.00391568,-0.00383837 -0.00690868,-0.00383837l-0.00038354 0c-0.00418227,0 -0.0236279,0.00850131 -0.0275772,0.01042 -0.00611781,0.0029712 -0.0188638,0.0108908 -0.0188638,0.0191334l0 0.00230223c0,0.00108422 0.000881052,0.00148163 0.00153515,0.00191968 0.00640026,-0.00428534 -0.00210006,-0.0119373 0.0218885,-0.0118878 0.0051991,1.09017e-005 0.010203,-0.000654099 0.0151602,0.000937543 0.00704643,0.00226259 1.78391e-005,0.0067283 0.0101603,0.0067283l0.0161196 0c0.00703157,0 0.0126915,-0.00827832 0.0165993,-0.0121861 0.00434778,-0.00434679 0.00979068,-0.0103903 0.0123615,-0.0164248 0.00343997,-0.00807218 0.00133694,-0.016962 -0.00353115,-0.0217666 -0.00491962,-0.00485322 -0.00944777,-0.00982636 -0.0143951,-0.0147737 -0.0101148,-0.0101148 -0.0196993,-0.0180442 -0.0308695,-0.0270847 -0.0046223,-0.00374125 -0.0308983,-0.0213712 -0.036585,-0.0213712l-0.00614061 0c-0.00444986,0 -0.0114695,0.00339339 -0.0133724,0.00620205 -0.0024499,0.00361241 -0.00235278,0.00999087 -0.00553309,0.0140413 -0.00294345,0.00374918 -0.00997997,0.00214168 -0.0154595,0.00411389 -0.00432598,0.00155695 -0.00823769,0.00554993 -0.00823769,0.0113367l0 0.00345483c0,0.00315157 0.00153515,0.00567679 0.00153515,0.00921091 0,0.00405244 -0.0081594,0.00812669 -0.0110265,0.0120017 -0.0054984,0.00743394 -0.000104061,0.00818516 -0.000104061,0.0175517l0 0.00038354c0,0.00427642 -0.00537254,0.00711085 -0.00537254,0.0092119l0 0.00191869c0,0.000667974 0.009755,0.0216884 0.0110236,0.0246705 0.00287606,0.006762 0.00878178,0.0183158 0.0177618,0.0183158 0.0029266,0 0.00729222,-0.00232899 0.00729222,-0.00498999l0 -0.00038354c0,-0.00143704 -0.00701769,-0.00339834 -0.00930308,-0.00604943 -0.00297813,-0.00345483 -0.00422786,-0.00499692 -0.00674416,-0.00899089 -0.00186418,-0.00295831 -0.00966779,-0.0182097 -0.00966779,-0.0218053l0 -0.00038354c0,-0.00117837 0.000354799,-0.00230223 0.00153515,-0.00230223l0.00038354 0c0.00502368,0 0.011081,0.0287853 0.0211096,0.0287853l0.00191869 0c0.0045341,0 0.0118987,-0.00459554 0.0118987,-0.00806029l0 -0.00268676c0,-0.00124081 -0.00139343,-0.00191869 -0.00268676,-0.00191869l-0.000768071 0c-0.00647261,0 -0.00877683,0.00146578 -0.010755,-0.00459654 -0.00132406,-0.00405542 -0.00270361,-0.00793641 -0.00426552,-0.0118551 -0.00110107,-0.0027601 -0.0106945,-0.0213395 -0.0106945,-0.0219292l0 -0.00345384c0,-0.000885016 0.000267586,-0.00115161 0.00115161,-0.00115161l0.00230322 0c0.00204555,0 0.0112991,0.0257041 0.0130344,0.0291837 0.00274722,0.00550435 0.00745772,0.00771144 0.01186,0.00223484 0.00581851,-0.0072387 0.00391072,-0.0066847 0.0134863,-0.00647162 0.00117143,-0.000783928 0.00268676,-0.00229926 0.00268676,-0.00422191l0 -0.00153515c0,-0.00512675 -0.00492557,-0.00483142 -0.00735565,-0.00991555 -0.00198311,-0.00415056 -0.00388,-0.00753998 -0.00564508,-0.0120107 -0.00103368,-0.00262135 -0.00810885,-0.0254187 -0.00810885,-0.0272006l0 -0.000768071c0,-0.000884025 0.000266595,-0.00115062 0.00115062,-0.00115062l0.00115161 0c0.00583437,0 0.00705238,0.0387643 0.0245644,0.0387643l0.00537254 0c0.00535271,0 0.00571148,-0.0092119 0.0153525,-0.0092119l0.00115161 0c0.00430417,0 0.0132614,0.00575707 0.0184228,0.00575707l0.00345384 0c0.000819606,0 0.00383837,-0.00210105 0.00383837,-0.0030703 0,-0.00389883 -0.00596222,-0.0122822 -0.0092119,-0.0122822l-0.00230223 0c-0.000808705,0 -0.00264613,0.00153614 -0.00345483,0.00153614l-0.00038354 0c-0.00189491,0 -0.00216943,-0.00997898 -0.0142009,-0.00997898 -0.000520306,-0.000777982 -0.0062526,-0.00729222 -0.00038354,-0.00729222 0.00392261,0 0.00813759,0.00268577 0.0118977,0.00268577 0.00499395,0 -0.00333492,-0.00815246 -0.00393451,-0.00873025z"/>
   <path id="_140639824" class="fil7" d="M0.198655 0.0246625c-0.00120414,0 -0.00224079,0.000420209 -0.00308021,0.00126063 -0.000854294,0.000854294 -0.0012745,0.0018622 -0.0012745,0.00303859l0 0.0329944c0,0.00117639 0.000420209,0.00218529 0.0012745,0.00303859 0.000839428,0.000840419 0.00187608,0.00126063 0.00308021,0.00126063l0.021945 0c0.00117639,0 0.00218529,-0.000420209 0.00301183,-0.00126063 0.000839428,-0.000853302 0.00125964,-0.0018622 0.00125964,-0.00303859l0 -0.0329944c0,-0.00117639 -0.000420209,-0.0021843 -0.00125964,-0.00303859 -0.000826544,-0.000840419 -0.00183544,-0.00126063 -0.00301183,-0.00126063l-0.021945 0z"/>
   <polygon id="_140639752" class="fil12" points="0.20223,0.032593 0.20223,0.0583258 0.216941,0.0583258 0.216941,0.032593 "/>
   <polygon id="_140639992" class="fil12" points="0.24794,0.102105 0.24794,0.127838 0.262652,0.127838 0.262652,0.102105 "/>
  </g>
 </g>
</svg>
