<?xml version="1.0" encoding="UTF-8"?>
<!DOCTYPE svg PUBLIC "-//W3C//DTD SVG 1.1//EN" "http://www.w3.org/Graphics/SVG/1.1/DTD/svg11.dtd">
<!-- Creator: CorelDRAW -->
<svg xmlns="http://www.w3.org/2000/svg" xml:space="preserve" width="25in" height="39in" style="shape-rendering:geometricPrecision; text-rendering:geometricPrecision; image-rendering:optimizeQuality; fill-rule:evenodd; clip-rule:evenodd"
viewBox="0 0 3.02037 5.25858"
 xmlns:xlink="http://www.w3.org/1999/xlink">
 <defs>
  <style type="text/css">
   <![CDATA[
    .fil1 {fill:#1F1A17}
    .fil0 {fill:#DA251D}
   ]]>
  </style>
 </defs>
 <g id="Layer_x0020_1">
  <metadata id="CorelCorpID_0Corel-Layer"/>
  <g id="_375370632">
   <path id="_375370704" class="fil0" d="M0.634393 4.48865c-0.0345948,-0.0363856 -0.0852966,-0.0781437 -0.0852966,-0.133017 -0.0149166,-0.0375864 -0.0501014,-0.207579 -0.0441389,-0.239193 0.0852966,-0.11572 0.246346,-0.175966 0.358484,-0.264243 0.0226698,-0.0131257 0.127055,-0.0662084 0.119301,-0.090669 -0.0244607,-0.0184878 -0.142561,-0.0894683 -0.174775,-0.0835058 -0.104975,0.0524926 -0.203998,0.125854 -0.301219,0.190282 -0.0137261,0 -0.0244607,-0.168813 -0.0232702,-0.173585 -0.00417167,-0.0137158 -0.00715291,-0.0292224 -0.00357128,-0.0435385 0.0310132,-0.0184878 0.280941,-0.160459 0.300629,-0.147333 0.0381661,0.0411577 0.0811146,0.0876878 0.124063,0.123473 0.020879,0 -0.0584551,-0.120492 -0.0560639,-0.132417 0.130026,-0.0852966 0.304801,-0.135408 0.446762,-0.196244 0.0238603,0 -0.0357852,0.123473 -0.0357852,0.138379 -0.0167074,0.0441389 -0.0411577,0.0888782 -0.0578651,0.134808 -0.0870874,0.0614363 -0.0763425,0.0674092 -0.0769429,-0.0202786 -0.020879,-0.020879 -0.0894683,0.0226698 -0.109157,0.0381764 -0.00298124,0.0125254 0.0292224,0.127645 0.0513022,0.131827 0.151505,-0.100814 0.334624,-0.289305 0.527286,-0.182529 0.118701,0.113329 0.103795,0.286313 0.0220695,0.421121 -0.0357852,0.107956 -0.223676,0.196834 -0.332243,0.175365 -0.0936503,-0.0292327 -0.122272,-0.13958 -0.101404,-0.227858 0.0178978,-0.0232599 0.104985,-0.0918595 0.137789,-0.0972319 -0.0220695,0.206979 0.190282,0.0912694 0.183719,-0.0477206 -0.0196783,-0.0512918 -0.0507018,-0.0793238 -0.106766,-0.0644176 -0.215333,0.124663 -0.427684,0.30302 -0.614384,0.462879 -0.0220695,0.0280319 0.0202786,0.105575 0.032804,0.13957 0,0.0172974 -0.150905,0.172984 -0.181328,0.187901zm-0.153896 -0.903088c-0.0775433,-0.0423481 -0.0703801,-0.135998 -0.0662084,-0.218904 0.0286323,-0.0226698 0.20877,-0.0638275 0.253509,-0.06979 0.0459297,-0.0226698 0.0644176,0.119301 0.0739617,0.155087 -0.0811249,0.0447393 -0.176556,0.0936503 -0.261262,0.133607zm0.784977 -0.0512918c0.0811249,-0.228458 0.171194,-0.478386 0.0137158,-0.696699 0,-0.00834333 0.129436,-0.0554738 0.150915,-0.065018 0.0286323,0 0.065608,0.146143 0.06979,0.164041 0.0256511,0.150315 0.032804,0.385325 -0.0459297,0.523115 -0.0763529,0.0190882 -0.118111,0.0214691 -0.180738,0.0709804 -0.00238085,0.00119043 -0.00477206,0.0023912 -0.0077533,0.00358163zm-0.455716 -0.0835058c-0.0310132,-0.0232702 -0.0900687,-0.16344 -0.0530826,-0.183719 0.0608359,-0.0131257 0.119291,-0.053683 0.180727,-0.0679992 0.0709804,-0.0351952 0.30242,-0.135408 0.380564,-0.135408 0.00298124,0.0399673 0.0238603,0.172984 -0.0196886,0.182529 -0.152105,0.0638275 -0.311364,0.146143 -0.467641,0.198035 -0.00477206,0.00477206 -0.0137158,0.00536209 -0.020879,0.00656287zm-0.0966315 -0.215933c-0.011925,-0.0143162 -0.0345948,-0.14136 -0.0274316,-0.148524 0.0906587,-0.0310132 0.0357852,-0.0268415 -0.00776365,-0.0787337 -0.0626268,-0.375792 0.759326,-0.235611 0.809438,-0.561291 0,-0.118701 -0.0769533,-0.21056 -0.172984,-0.0918595 -0.0232599,0.0512918 -0.11572,0.0155066 -0.16224,0.00358163 0.0125254,-0.0626371 0.0644176,-0.109157 0.104975,-0.153896 0,-0.0167074 -0.0769429,0.0256511 -0.0876775,0.0280319 -0.0286323,0.0190882 -0.18551,0.0656183 -0.101404,0.0990227 0.0149062,0.0137158 0.0339944,0.0280319 0.0387665,0.0483106 -0.0172974,0.06979 -0.0244503,0.165821 0.00954411,0.23382 0,0.0715808 -0.263043,0.0984223 -0.316736,0.143162 -0.0733613,0.0178874 -0.106165,0.0990124 -0.189681,0.048911 -0.103184,0 -0.201606,-0.183719 -0.156277,-0.274978 0.00954411,-0.0119353 0.0202786,-0.0310235 -0.00358163,-0.0262515 -0.152095,0.101404 -0.172384,-0.0691896 -0.188481,-0.184909 -0.0131257,-0.032804 -0.0238603,-0.0709804 -0.0387768,-0.103194 0,-0.00596248 0.178347,-0.0113246 0.197435,0.0125254 0.048911,0.128245 0.0524926,0.00597283 0.145543,0.0214794 0.0548838,0.0632271 0.0954411,0.159258 0.133618,0.23263 -0.0220695,0.016107 -0.0477206,0.0274316 -0.0614363,0.0507018 -0.0298228,0.193853 0.317326,0.143752 0.353111,-0.0184982 0,-0.109747 -0.141961,-0.141961 -0.0942403,-0.0626268 0.0334044,0.109757 0.00954411,0.086487 -0.108556,0.124073 -0.016107,0 -0.0864974,-0.196845 -0.119301,-0.241584 -0.0101445,-0.0411577 -0.126454,-0.151505 -0.103194,-0.174765 0.0566643,-0.00298124 0.119301,-0.0131257 0.175365,-0.0077533 0.0190882,0.0292224 0.0405676,0.097822 0.0775433,0.0858866 0.0942507,-0.0626268 0.195054,-0.110347 0.298838,-0.153886 0.0381764,-0.0119353 0.221895,-0.0387768 0.0918595,-0.0614363 -0.028622,-0.00954411 -0.159258,-0.036986 -0.161049,-0.053093 0.0357956,-0.122873 0.0387768,-0.18551 0.159269,-0.107966 0.148524,0.053093 0.270796,0.0692 0.430065,0.0733716 0.0178874,0.0178978 0.0256407,0.0948407 0.0286323,0.125264 0.0280319,0.0846962 -0.0196886,0.0554738 -0.0733716,0.0888782 -0.101404,0.016697 0.0363856,0.0823154 0.0501014,0.131816 0.0620367,0.103194 0.0155066,0.217123 -0.0292224,0.311964 -0.192663,0.21056 -0.520734,0.225467 -0.76768,0.34894 -0.127055,0.137789 0.280941,-0.0274316 0.298248,-0.0339944 0.0310132,0 0.0894683,-0.0584551 0.113919,-0.0340048 0.0214794,0.0554738 0.090669,0.134218 0.00418202,0.152105 -0.133618,0.0668088 -0.304211,0.0924599 -0.434247,0.166422 -0.0387665,0.0107345 -0.0769429,0.0286323 -0.115119,0.0423481zm0.454525 -0.600057c-0.0357956,-0.032214 -0.0596455,-0.203408 -0.0274419,-0.235611 0.143752,0 0.131226,-0.000600389 0.134808,0.106165 0.0077533,0.0286323 0.0244503,0.053093 0.0310132,0.0793341 -0.0459297,0.0178978 -0.0918595,0.0345948 -0.138379,0.0501118zm-0.769471 -0.449753c-0.0477206,-0.00358163 -0.192062,0.0107345 -0.201016,-0.0441389 -0.0399569,-0.0674092 0.131226,0 0.161649,0.00536209 0.016107,0 0.0674092,0.0250611 0.0393669,0.0387768z"/>
   <path id="_375370896" class="fil1" d="M2.7034 3.18725l0.316964 0 0 0.138514 -0.138503 0 0 0.138503 0.114529 0 0 0.138514 -0.114529 0 0 0.187777 0.138503 0 0 0.137178 -0.316964 0 0 -0.740486zm-1.59241 1.93726c-0.0471098,-0.0548528 -0.0155169,-0.20877 0.0286323,-0.260072 0.0584551,-0.123473 0.150905,-0.227858 0.251708,-0.322699 0.0328143,-0.0560742 0.183129,-0.214732 0.053683,-0.261852 -0.223086,-0.0262515 -0.225467,0.195044 -0.295257,0.330452 0,0.048911 -0.0799242,0.14077 -0.109157,0.172384 -0.0196783,0.0149062 -0.137189,0.0918595 -0.14136,0.0596455 -0.020879,-0.0423481 -0.158078,0.0411577 -0.154497,0.0304231 0.0685996,-0.0685996 -0.0077533,-0.0429485 0.0429485,-0.097822 0.011925,-0.0357956 -0.0220695,-0.0149166 -0.0131257,-0.0363856 0.11691,-0.116921 0.0882882,-0.344778 0.281541,-0.405014 0.134808,-0.0590555 0.579189,-0.330452 0.564283,-0.0113349 -0.0745621,0.246946 -0.316146,0.378762 -0.403824,0.623328 -0.0316136,0.245155 0.324489,0.143752 0.438418,0.0775433 0.337605,-0.258881 0.27915,-0.797503 0.0733613,-1.12736 0.00308476,-0.0229597 0.00551737,-0.0459918 0.00701834,-0.068848l-0.0114902 -0.0123597 0 -0.153368c-0.0208997,-0.0824913 -0.069614,-0.152292 -0.166121,-0.193698 -0.0322036,-0.0190882 -0.0602459,-0.00656287 -0.0304231,-0.0596455 0.0566746,-0.223086 0.0459297,-0.423502 -0.0387665,-0.635263 -0.020879,-0.0250507 0.11631,-0.109147 0.120492,-0.0793238 -0.00433729,0.0296571 -0.00712185,0.0590555 -0.0087988,0.0882882l0.151174 0 0.0495114 0.0495114 0 0.100379 -0.0454432 0.0325556 0.0535795 0.0413647 0 0.0997059 -0.0576477 0.0535795 -0.128266 0c0.0246159,0.0873462 0.0631133,0.16696 0.10071,0.247495l0 -0.105658 0.113204 -0.113204 0.197103 0 0.113215 0.113204 0 0.514078 -0.113215 0.113204 -0.100917 0c0.0669019,0.204629 0.111217,0.417488 0.111217,0.630108 -0.00536209,0.104975 -0.0177218,0.213894 -0.0638172,0.308382 -0.230384,0.472216 -0.692766,0.464256 -0.869673,0.258281zm-0.0542834 0.0703801c-0.0196886,-0.0196886 -0.097822,-0.0703801 -0.152105,-0.101994 -0.00536209,-0.00537244 -0.0632271,-0.0924599 -0.0572647,-0.0674092 0.065018,0.0900687 -0.0673988,-0.0668088 -0.0632271,-0.0852966 -0.0286323,-0.0345948 0.0870874,-0.0584551 0.0495114,-0.0077533 -0.00238085,0.0268415 -0.0190882,0.0316136 0.020879,0.0238603 0.0304231,-0.0507018 0.16284,-0.0578651 0.21056,-0.112739 0.00238085,-0.00119043 -0.0674092,0.239793 -0.0417581,0.243364 0.0137158,0.0232702 0.0429485,0.107966 0.0334044,0.107966zm0.011925 -0.00358163c-0.00178046,-0.00357128 -0.00596248,-0.00656287 -0.00417167,-0.0107345 0.0023912,0.00298124 0.00894372,0.00835368 0.00417167,0.0107345zm-0.033394 -0.0310132c-0.0226698,-0.0226698 -0.0125357,-0.0256511 0.00417167,-0.00119043 -0.00119043,0 -0.0023912,0.000590037 -0.00417167,0.00119043zm-0.0310235 -0.00596248c-0.0137158,-0.0137261 0.00358163,-0.016107 0.00358163,-0.00120078 -0.00119043,0 -0.0023912,0.000600389 -0.00358163,0.00120078zm0.392489 -0.127655c-0.0155066,-0.0077533 -0.0405573,-0.011925 -0.0584551,-0.0178874 -0.0644176,-0.0501118 -0.0232599,-0.156287 0.0250507,-0.204598 0.119301,-0.191472 0.523715,-0.471823 0.193263,-0.678201 0.00358163,-0.0155066 0.0876775,-0.0841062 0.103194,-0.105575 0.00954411,-0.016107 0.0256407,-0.06979 0.0345948,-0.0268415 0.0954308,0.143151 0.178947,0.555318 0.0948407,0.695499 -0.0262515,0.1867 -0.20937,0.331052 -0.392489,0.337605zm-0.578588 -0.0155066c-0.016107,-0.016107 -0.016107,-0.016107 -0.0190882,-0.0214691 0,-0.0149166 0.0286323,0.0184878 0.0190882,0.0214691zm-0.0250507 -0.0322036c-0.00954411,-0.00954411 -0.0501118,-0.0411577 -0.0393669,-0.0519026 0.0155066,0 0.011925,0.000600389 0.0137158,0.0155169 0.00358163,0.00417167 0.0339944,0.0322036 0.0256511,0.0363856zm0.00477206 -0.0501118c0,-0.00715291 0.00238085,-0.011925 0.0107345,-0.011925 -0.00119043,0.0077533 -0.00418202,0.0107345 -0.0107345,0.011925zm-0.109757 -0.0930499c-0.0107345,-0.016107 -0.011925,-0.0202786 -0.0143162,-0.0393669 0.0483209,0.00656287 0.0620367,0.00179081 0.020879,0.0375761 -0.00179081,0.000600389 -0.00417167,0.00119043 -0.00656287,0.00179081zm0.0023912 -0.00715291c-0.000600389,-0.00656287 -0.000600389,-0.00656287 0.000590037,-0.00835368 0.00894372,0 0.00417167,0.00596248 -0.000590037,0.00835368zm0.112138 -0.0107449c0,-0.00536209 -0.00120078,-0.0101341 0.00596248,-0.0077533 0,0.00596248 -0.00119043,0.00537244 -0.00596248,0.0077533zm-0.132427 -0.0322036c-0.0298228,-0.0298228 -0.0178874,-0.0763529 -0.0363856,-0.073972 -0.00417167,-0.00953376 -0.0453293,-0.0918491 -0.016697,-0.0632271 0.00119043,0 -0.0137158,-0.0417477 -0.0190882,-0.0417477 -0.00835368,-0.0143162 -0.0483106,-0.131226 -0.00894372,-0.0668088 -0.00418202,0.0340048 0.048911,0.111548 0.0626268,0.166422 0.0268415,0.0339944 0.113929,-0.118701 0.141961,-0.150315 0.0608463,-0.0918595 -0.032804,0.0846962 -0.0417477,0.101404 -0.0328143,0.016107 -0.0453397,0.110347 -0.0817253,0.128245zm0.0023912 -0.0202786c-0.0023912,-0.0023912 -0.0023912,-0.00299159 -0.00119043,-0.00656287 0.00834333,0 0.00655252,0.00298124 0.00119043,0.00656287zm-0.00596248 -0.00597283c-0.0101445,-0.0077533 -0.00656287,-0.0155066 0.00238085,-0.00656287 -0.000600389,0.00537244 -0.000600389,0.00537244 -0.00238085,0.00656287zm0.225467 -0.0143162c-0.0172974,-0.0113246 0.0363856,-0.0709804 0.0429485,-0.0918595 -0.00716326,0.00716326 -0.0733716,0.106176 -0.0662084,0.0685996 0.0518922,-0.0691896 0.0393669,-0.0530826 -0.00895407,-0.020879 -0.0667984,0 -0.00536209,-0.0101341 -0.00536209,-0.0548735 -0.0375761,0.0501014 0.0417477,-0.126454 0.0471202,-0.141371 0.011925,-0.0190882 0.0596455,-0.0835058 0.0823154,-0.0763425 0,0.00298124 -0.102594,0.161639 -0.0781437,0.132417 0.0298331,-0.0596455 0.0852966,-0.0960311 0.0280423,-0.0220695 -0.0149166,0.0435385 0.000590037,0.011925 0.000590037,0.0501014 0.00477206,0.00477206 0.0101445,-0.0172974 0.0238603,-0.0149062 0.0125254,0.0256407 -0.0232599,0.0262411 0.0137261,0.0262411 -0.00954411,0.0501014 -0.036986,0.11631 -0.0799345,0.144942zm-0.184909 -0.0477102c-0.000600389,-0.00120078 -0.00179081,-0.0023912 -0.00298124,-0.00358163 0,-0.00895407 0.011925,-0.000600389 0.00298124,0.00358163zm0.143151 -0.00358163c0.00418202,-0.0077533 0.00954411,-0.0262515 0.020289,-0.0262515 -0.00537244,0.0125254 -0.00954411,0.0178978 -0.020289,0.0262515zm0.135998 -0.00119043c-0.00655252,-0.00656287 0.0107449,-0.0590555 0.0262515,-0.0435489 -0.00418202,0.0184878 -0.0107345,0.032804 -0.0262515,0.0435489zm-0.0274316 -0.00835368c-0.00596248,-0.00596248 0.0155066,-0.0763529 0.0274316,-0.0518922 0,0.0113246 -0.0178874,0.048911 -0.0274316,0.0518922zm-0.338806 -0.0178978c-0.00537244,-0.00536209 0.00417167,-0.0125254 0.00715291,0 -0.00238085,0 -0.00477206,0 -0.00715291,0zm0.316736 -0.0131257c-0.00298124,-0.00655252 -0.000600389,-0.00834333 0.00417167,-0.00954411 -0.00119043,0.00299159 -0.00238085,0.00597283 -0.00417167,0.00954411zm-0.06979 -0.0202786c0,-0.00834333 0.016697,-0.0524926 0.016697,-0.0268415 -0.00536209,0.00716326 -0.0137158,0.0250507 -0.016697,0.0268415zm0.0644176 -0.0250507c0,-0.0131257 0.00596248,-0.0184878 0.00358163,-0.00119043 -0.00119043,0 -0.0023912,0.000590037 -0.00358163,0.00119043zm-0.254099 -0.011925c0,-0.0757525 -0.0524926,-0.0554738 0.0262411,-0.124674 0.0155066,-0.0178874 0.122883,-0.145543 0.131827,-0.118101 0.0226698,0.0345948 0.00715291,0.0465301 -0.0178978,0.0715808 -0.0268415,0.053683 -0.110948,0.115119 -0.118701,0.147333 -0.00358163,0.00477206 -0.0155066,0.020879 -0.0214691,0.0238603zm0.237402 -0.00954411c0.000590037,-0.00358163 0.00179081,-0.00716326 0.00298124,-0.0107449 0.00656287,-0.00655252 -0.000600389,0.00954411 -0.00298124,0.0107449zm-0.0262515 -0.00120078c0.000600389,-0.00298124 0.00179081,-0.00596248 0.00298124,-0.00894372 0.0107449,0 0.00120078,0.00716326 -0.00298124,0.00894372zm0.378172 -0.0178874c0.00537244,-0.0381764 0.0626371,-0.242174 0.120492,-0.184319 0.0238603,0.0721812 -0.0775433,0.146743 -0.120492,0.184319zm-0.591714 -0.00119043c0,-0.00179081 0,-0.00418202 -0.000590037,-0.00656287 0.016697,-0.00954411 0.0137158,0.00357128 0.000590037,0.00656287zm0.23382 -0.230249c-0.0238499,-0.0381764 -0.0429381,-0.0990124 -0.053683,-0.142561 0.000600389,-0.00179081 0.193863,-0.184909 0.240984,-0.184909 0.0214691,0.0751625 0.036986,0.11572 0.0912591,0.172984 0.0423585,0.0155066 -0.182518,0.0948407 -0.193253,0.101404 -0.0310235,0.0113246 -0.0566746,0.0435385 -0.085307,0.0530826zm1.08561 -0.0286323c-0.0548735,-0.0548735 -0.0483106,-0.134808 -0.0775433,-0.196834 0,-0.0668088 -0.032804,-0.109157 -0.0405573,-0.173585 0.00116972,-0.00242226 0.00169765,-0.00552772 0.0016873,-0.0091611l0.0344602 0c0.0185499,0.0537451 0.0338909,0.108577 0.0407954,0.166039 0.00894372,0.0286323 0.0632271,0.206389 0.0411577,0.213542zm-0.270506 -0.747908c-0.0064283,-0.0366548 -0.0112521,-0.0752039 -0.0128255,-0.0859798 -0.00656287,-0.00954411 -0.0620367,-0.127645 -0.0178874,-0.0763425 0.00687342,0.0312202 0.0177218,0.0614156 0.030713,0.0910728l0 0.0712496zm-0.427384 0.687072c0,-0.0638275 0.11632,-0.0357956 0.0387768,-0.0232702 -0.0119353,0.0155169 -0.0184878,0.0196886 -0.0387768,0.0232702zm-0.793321 -0.233831c-0.00537244,-0.0107345 -0.0101445,-0.0697797 0.00119043,-0.0811146 0.0841062,-0.0417581 0.174175,-0.101404 0.249927,-0.158068 0.0501014,-0.00954411 0.0399673,-0.0280423 0.0960311,0.00954411 0,0.0220695 -0.310163,0.206979 -0.334624,0.224866 -0.00417167,0.00120078 -0.00835368,0.00299159 -0.0125254,0.00477206zm0.893534 -0.170593c-0.0524926,-0.0459297 0.0405573,-0.118701 0.0405573,-0.0381764 -0.00477206,0.0220798 -0.0178874,0.0340048 -0.0405573,0.0381764zm-0.999709 -0.528487c-0.00179081,-0.00119043 -0.053683,-0.129436 -0.0638275,-0.153296 -0.0507018,-0.0673988 -0.127645,-0.181928 -0.143752,-0.263643 -0.000590037,-0.000600389 -0.0596455,-0.134208 -0.049501,-0.141371 0.0715705,0.0196886 0.081715,0.0238603 0.0375761,-0.0393669 -0.0190882,-0.0888679 0.0375761,-0.178947 0.128245,-0.123473 0.0363856,0.0471305 0.0459297,0.00597283 0.0721709,0.0143162 0.0316136,0.124073 0.0900687,0.239793 0.222485,0.274388 0,0.0554738 -0.00894372,0.0763529 0.00477206,0.136599 0.00477206,0.00834333 0.0101445,0.0190779 0.0101445,0.028622 -0.0518922,0.032214 0.0703904,0.177756 0.032804,0.196244 -0.0769429,0.0149166 -0.179537,0.0423585 -0.251118,0.0709804zm0.114529 -0.120481c-0.0328143,-0.0262515 -0.0721812,-0.0262515 -0.0357956,-0.0793341 0.0566643,-0.0101445 0.104385,-0.0495114 0.0996128,0.0345948 -0.016107,0.032214 -0.0292224,0.0411577 -0.0638172,0.0447393zm-0.109757 -0.143162c-0.00835368,-0.00417167 -0.0387665,-0.0143162 -0.0465301,-0.0155066 -0.109157,-0.0847066 0.150315,-0.183719 0.170604,-0.0196886 -0.00597283,0.00597283 -0.0393772,-0.00298124 -0.0495114,-0.00417167 -0.0292327,0.00656287 -0.0477206,0.0286323 -0.0745621,0.0393669zm-0.00238085 -0.0274419c0,-0.00894372 0.00477206,-0.0190779 0.0172974,-0.0149062 -0.0137261,0.0137158 -0.0137261,0.0137158 -0.0172974,0.0149062zm0.0620264 -0.145532c-0.053683,-0.0536934 -0.123473,0.0411473 -0.148524,-0.0435489 -0.0357852,-0.086487 0.0620367,-0.065018 0.114529,-0.032214 0.0077533,0.00895407 0.0679992,0.06979 0.0339944,0.0757628zm-0.107366 -0.0214794c-0.0244503,-0.0178978 0.0381764,-0.0232599 0.0381764,-0.0143162 -0.0125254,0.00477206 -0.0250507,0.00954411 -0.0381764,0.0143162zm-0.227858 -0.167012c-0.111538,-0.0835161 -0.0691896,-0.23382 -0.00357128,-0.327471 0.0131154,-0.104985 -0.204008,-0.194453 -0.0888782,-0.309583 0.0351848,-0.0709804 0.129436,-0.0966212 0.159258,-0.16284 0,-0.0972216 -0.165821,0.0787441 -0.176556,0.112138 -0.00895407,0.00179081 -0.00656287,-0.016697 -0.00716326,-0.0220695 0,-0.109747 0.0727713,-0.130626 0.131827,-0.204588 0.0101341,-0.0852966 -0.0894786,0.0363856 -0.090669,0.0363856 -0.0691896,-0.103795 0.0417581,-0.263053 0.090669,-0.351331 0.0125254,-0.0471202 -0.0238603,-0.0632271 -0.0596455,-0.0393669 -0.0513022,-0.0513022 0.306592,-0.259471 0.133607,-0.248737 -0.0399673,0.0178978 -0.0888782,0.0793341 -0.0787337,0.0202786 0.0202786,-0.0345948 0.181928,-0.172974 0.0763529,-0.172974 0.0107345,-0.135408 0.112728,-0.114529 0.187891,-0.187301 0.0226595,-0.0572647 -0.0900687,0.0429485 -0.0572647,-0.0172974 0.0513022,-0.0465301 0.0882778,-0.0984223 0.133618,-0.149714 0.00298124,-0.0918595 0.0250507,-0.113339 0.103184,-0.168212 0.0507018,-0.0178978 0.0632271,-0.0614363 0.114529,-0.0727713 0.0632271,-0.00417167 0.0703801,-0.0745621 0.0178978,-0.112138 -0.123473,0.0202786 -0.0190882,-0.0674092 0.0274316,-0.085897 0.0638275,0 -0.00596248,0.0393669 0.0167074,0.0620367 0.125254,0.0077533 0.147923,0.032804 0.1861,-0.0823154 0.00537244,-0.0381764 -0.0423481,-0.00596248 -0.036986,-0.0393669 0.0334044,-0.0351952 0.14018,-0.0405573 0.0823154,0.00179081 -0.0483106,0.0190882 0.0304231,0.0852966 0.0519026,0.0960311 0.033394,0 0.165821,-0.16224 0.14077,-0.199826 -0.153896,-0.0334044 0.0906587,-0.104975 0.0829054,-0.0310132 -0.0662084,0.0596455 -0.0524926,0.0101445 -0.0250507,0.106176 0.0387665,0.0614363 0.0763529,0.158668 0.131827,0.0608359 0.0733613,-0.0733613 -0.0405676,-0.0542731 -0.00477206,-0.0900687 0.0274316,-0.0137158 0.135398,-0.00954411 0.0769429,0.032214 -0.0501014,0.00477206 -0.0143162,0.0590555 -0.00477206,0.0924599 0.0232599,0.0393669 0.213542,0.0238499 0.172384,-0.0351952 0,-0.101404 0.198035,0.0799242 0.0757525,0.0596455 -0.0590555,-0.0393669 -0.108556,0.0900687 -0.0876775,0.11632 0.0375761,0.0226595 0.0232599,0.0662084 0.0620264,0.0662084 0.0775433,-0.0256511 0.177756,0.0620264 0.195654,0.130026 -0.0626371,-0.0310132 0.00716326,0.06655 0.0172974,0.0888782 0.0281148,0.0619436 0.23235,-0.0271314 0.194371,0.0814769 -0.000590037,0.0016873 -0.155625,0.043435 -0.108484,0.0789822 0.029212,0.0220177 0.0805245,0.0775433 0.0805245,0.11691 -0.000590037,0 -0.081715,-0.0954411 -0.0578547,-0.0256511 0.0507018,0.090669 0.0345948,0.121092 0.0417581,0.224877 0.0274316,0.109757 -0.0292327,-0.0793341 -0.0483209,-0.100803 -0.109747,0 0.0534967,0.185023 0.0584551,0.214132 0.025589,0.150035 0.0437249,0.25914 0.0549977,0.332843l0.071291 0 0 0.153958 0.0379798 0 0 -0.153958 0.0868183 0 0 0.377086 -0.0868183 0 0 -0.153275 -0.0379798 0 0 0.153275 -0.0868079 0 0 -0.335027c-0.0131257,-0.044967 -0.0303817,-0.107459 -0.0514057,-0.184019 -0.00141816,-0.00517576 -0.0167074,-0.118111 -0.0793341,-0.132427 -0.0167074,0.00418202 0.00698728,0.0606807 0.00298124,0.0775433 -0.0200923,0.0845927 0.0231357,0.142634 0.0461368,0.200913l0.0658564 0 0 0.0664672 -0.0495114 0 0 0.30655 -0.0881743 0 0 -0.168927c-0.0266862,0.0684754 -0.118867,0.129311 -0.0960829,0.226057l0.0349778 -0.0345638 0.0915593 0 0.0617262 0.0535692 0 0.0922425 -0.0868183 0 0 -0.0793445 -0.0379798 0 0 0.240766 0.0379798 0 0 -0.0915593 0.0868183 0 0 0.103764 -0.0535899 0.0576477 -0.0956274 0 -0.062399 -0.0535795 0 -0.108981c-0.020672,0.052327 -0.0518301,0.123194 -0.0648316,0.136195 -0.00358163,-0.00357128 -0.0644176,-0.14017 -0.0638275,-0.143151 0.0638275,-0.0316136 0.113329,-0.020879 0.0614363,-0.112138 -0.0195333,-0.0790857 0.0349468,-0.00940954 0.0672228,0.0347087l0 -0.0724918 0.00631443 -0.00624197c-0.0358681,-0.0313341 -0.0877189,-0.0779677 -0.10395,-0.0949546 -0.0131257,-0.0184982 -0.0316136,-0.0757525 -0.0459297,-0.0781437 -0.112739,0.0220695 -0.309583,0.0113349 -0.412767,-0.0530826 -0.0805349,-0.0196886 -0.0918595,-0.0703904 -0.178947,-0.0268415 -0.0316136,0.00477206 -0.112138,0.211751 -0.097822,0.23322 0.0101341,0.00418202 0.115709,0.032214 0.0662084,0.0441389 -0.0584551,0.0399673 -0.135408,0.0590555 -0.195654,0.102004 -0.0226595,0 -0.0441389,-0.053093 -0.0620264,-0.0709804 -0.0381764,-0.00179081 -0.238603,0.00715291 -0.2553,0.0238603 -0.00954411,0.0250507 -0.0345948,0.0662084 -0.0113349,0.0894683 0,0.0125254 -0.0280319,0.0178978 -0.0375761,0.016107 -0.0214794,-0.0268415 -0.016107,-0.0942507 -0.0441389,-0.114529 -0.0113349,-0.000590037 -0.294066,-0.0596455 -0.306002,-0.0357852 0.0286323,0.100213 0.174775,0.37399 0.112739,0.461078 -0.0620367,0.0387768 -0.127645,0.0775433 -0.105575,0.159269 -0.000600389,0 -0.00120078,0 -0.0023912,0zm1.79163 -1.10182c-0.0229804,-0.0361061 -0.0430106,-0.0651111 -0.0481036,-0.0511883 -0.00812595,0.0222144 -0.00601424,0.0451223 0.000548631,0.0681545l0 -0.0169662 0.0475549 0zm-0.0287151 0.0664672c0.00725642,0.0166763 0.0146474,0.0331974 0.0199785,0.0493561 0.00449256,0.00675955 0.00799138,0.0133328 0.0106931,0.0197714l0 -0.0691275 -0.0306716 0zm-0.530578 0.87429c-0.0268415,-0.0268415 -0.00596248,-0.206378 0.0590555,-0.14136 0.0137158,0.0512918 -0.00835368,0.119891 -0.0590555,0.14136zm-0.820762 -0.470022c-0.00835368,-0.0167074 0.0298228,-0.0638275 0.0381764,-0.0781437 0,-0.11691 -0.0381764,-0.13958 0.0554738,-0.226667 0.00477206,-0.0125254 0.0614363,-0.118101 0.0721709,-0.107366 -0.00596248,0.0894786 -0.00238085,0.100213 -0.0662084,0.182529 -0.0298228,0.0626268 0.0829158,-0.109757 0.0876878,-0.100213 0,0.085897 -0.113339,0.120492 -0.13839,0.196244 0.00537244,0.0393669 0.00298124,0.121092 -0.048911,0.133618zm-0.275578 -0.0513022c-0.0507018,-0.101994 0.0286323,-0.198035 0.0662084,-0.292275 0.0310235,0.00417167 -0.0560639,0.181928 -0.00536209,0.11631 0.00715291,-0.0184878 0.0369757,-0.086487 0.0447393,-0.0900687 0.0280319,0.0280423 -0.0703904,0.172384 -0.0948511,0.199226 -0.0077533,0.0155169 -0.00417167,0.065018 -0.0107345,0.0668088zm0.527297 -0.0930499c-0.0375761,-0.0375761 0.0190882,-0.121682 0.0310132,-0.158068 0,-0.0703904 0.0172974,-0.0721812 0.0304231,-0.144942 0.0077533,-0.0190882 0.0340048,-0.153306 0.0387768,-0.0608463 -0.00954411,0.053683 -0.00954411,0.053683 -0.0107449,0.0721709 0.0238603,0 0.0131257,-0.127044 0.0405676,-0.0721709 0.0125254,0.053683 -0.0393669,0.0948407 -0.0244607,0.151505 0.0268415,0.0429485 -0.081715,0.206389 -0.105575,0.212351zm-0.28035 -0.0262411c-0.0524926,-0.105586 -0.0113349,-0.180148 0.0471202,-0.27797 0.0238603,0.00596248 -0.0190882,0.0847066 -0.0107345,0.0823154 0.020879,-0.020879 0.0399673,-0.106766 0.0507018,-0.106766 0.0167074,0.0685892 -0.0608359,0.1867 -0.0930499,0.240383 0,0.0190882 0.0220695,0.0542731 0.00596248,0.0620367zm1.2216 -0.0238603c-0.0566643,-0.0423585 -0.0190882,-0.240383 -0.00716326,-0.137789 -0.00179081,0.0483106 0.00418202,0.0906587 0.00954411,0.136588 -0.000590037,0 -0.00119043,0.000600389 -0.00238085,0.00120078zm-0.264844 -0.0310235c-0.151505,-0.144942 -0.0578547,-0.248137 0.0441389,-0.401432 0.032214,-0.0107345 -0.0149062,0.0781437 -0.0178874,0.0841062 -0.0184982,0.0250507 -0.128845,0.176556 -0.0841062,0.191472 0.00179081,-0.00477206 0.00179081,-0.00477206 0.00536209,-0.0465301 0.0423585,-0.0787337 0.106776,-0.137189 0.130036,-0.223086 0.00358163,-0.0471202 0.0244607,-0.0286323 0.020879,0.00477206 -0.0423481,0.132427 -0.205788,0.236212 -0.0960311,0.382944 -0.000600389,0.00656287 -0.000600389,0.00656287 -0.0023912,0.0077533zm-1.23114 -0.132417c-0.0471305,-0.0948407 0.0787337,-0.170003 0.134208,-0.211161 0.0250507,0.00597283 -0.0262515,0.0572647 -0.0345948,0.0644279 -0.053683,0.0196783 -0.06979,0.137189 -0.0996128,0.146733zm0.229048 -0.00119043c0,-0.0107449 0.0524926,-0.090669 0.0524926,-0.0495114 -0.0113349,0.0184878 -0.0304231,0.0453293 -0.0524926,0.0495114zm-0.0453397 -0.0190882c-0.0155066,-0.0310235 0.0524926,-0.126454 0.032214,-0.0435489 -0.00656287,0.0172974 -0.0131257,0.0399673 -0.032214,0.0435489zm0.213542 -0.0023912c-0.0208687,-0.0417477 0.0447393,-0.211751 0.0709908,-0.229048 0.0393669,0.0196886 -0.0918595,0.20996 -0.032214,0.142561 0.00537244,-0.00894372 0.0608359,-0.137789 0.0542834,-0.0554738 -0.00537244,0.0244607 -0.0781437,0.134808 -0.0930603,0.141961zm0.193263 -0.0274316c-0.00656287,-0.0137261 -0.00119043,-0.0274419 0.00179081,-0.0417581 0.0268415,-0.0268415 0.0107345,0.0334044 -0.00179081,0.0417581zm-0.405604 -0.0262515c-0.00835368,-0.00835368 0.00715291,-0.0214691 0.00715291,-0.00417167 -0.00238085,0.00298124 -0.00238085,0.00298124 -0.00715291,0.00417167zm0.39606 -0.0238603c-0.00238085,-0.00238085 -0.00238085,-0.00477206 -0.00238085,-0.00894372 0.0143162,-0.0316136 -0.0125254,-0.235611 0.0131257,-0.184319 0.00417167,0.0393772 0.0596455,0.179547 -0.0107449,0.193263zm-0.44259 -0.00715291c-0.0131257,-0.0393669 0.0584551,-0.124073 0.0775433,-0.160459 0.0125254,-0.0769429 -0.00894372,-0.230239 0.0876878,-0.266624 0.011925,0 -0.073972,0.111538 -0.0387768,0.0763529 0.0137261,-0.0280423 0.0381764,-0.0304231 0.00895407,0.00298124 -0.0149166,0.0262411 -0.0334044,0.0775433 0.0143058,0.0459297 0.0334044,0.00536209 -0.0608359,0.200416 -0.0775433,0.236802 -0.0208687,0.0196783 -0.0471202,0.0542834 -0.0721709,0.065018zm1.23472 -0.0167074c-0.0441389,-0.0357852 -0.0435385,-0.133017 -0.0149062,-0.176556 0.016697,0.00835368 0.00894372,0.0733716 0.0077533,0.0882778 0,0.0172974 0.0131257,0.0823154 0.00715291,0.0882778zm-1.36236 -0.0178874c0,-0.000600389 -0.000600389,-0.00179081 -0.00119043,-0.00298124 0.0172974,-0.0214794 0.016697,-0.00179081 0.00119043,0.00298124zm-0.036986 -0.0119353c0,-0.0238603 0.0423481,-0.0542731 0.0590555,-0.0691896 0.0262411,0 -0.0405573,0.0638275 -0.0590555,0.0691896zm0.887571 -0.00834333c-0.00238085,-0.016107 -0.00298124,-0.0298331 -0.0190882,-0.00716326 -0.0632271,0 -0.0190882,-0.0453293 -0.0351952,-0.06979 0,-0.109747 0.174775,-0.103194 0.260672,-0.103194 0.065608,0.0167074 0.0632271,0.119301 0.0512918,0.119301 -0.0256511,-0.0184878 -0.0292224,-0.036986 -0.0238603,0.016107 -0.020879,0.0101341 -0.016697,-0.0149166 -0.0286323,-0.0113349 0,0.0363856 -0.0202786,0.0125254 -0.0411577,0.0125254 -0.000590037,0.0077533 0,0.0351952 -0.0101341,0.0351952 -0.0316136,-0.0501118 -0.0143162,0.0214691 -0.0566643,-0.00656287 -0.0023912,-0.00596248 -0.00656287,-0.0304231 -0.0155169,-0.0274419 -0.0113246,0.020879 -0.0566643,0.0381764 -0.081715,0.0423585zm-0.143151 -0.00954411c-0.0107449,-0.0107449 -0.00954411,-0.0274419 -0.0107449,-0.0411577 0.00597283,-0.0256511 0.0196886,0.0322036 0.0107449,0.0411577zm-0.310173 -0.0131257c-0.0101445,-0.020879 0.0262411,-0.169403 0.0417477,-0.113929 -0.00298124,0.0220695 -0.0256511,0.108556 -0.0417477,0.113929zm-0.0226698 -0.0167074c-0.0345948,-0.0524823 0.065018,-0.199226 0.0703904,-0.267815 0.00596248,-0.0125254 0.0369757,-0.0393669 0.0322036,-0.00954411 -0.0417477,0.0751521 -0.0799242,0.184309 -0.0948407,0.268415 -0.00179081,0.00417167 -0.00358163,0.0077533 -0.0077533,0.00894372zm1.14048 -0.0357852c-0.0345948,-0.06979 -0.0262411,-0.143752 -0.0739617,-0.215333 0,-0.0244503 0.0256407,0.0131257 0.0316136,0.0190882 0.020879,0.0298228 0.0685892,0.187891 0.0423481,0.196244zm-0.959152 -0.0739617c-0.00715291,-0.00716326 -0.00596248,-0.0113349 -0.00298124,-0.0202786 0.0113349,-0.00120078 0.0107345,0.0178874 0.00298124,0.0202786zm0.72294 -0.0178978c-0.0155066,-0.0399673 0.0137261,-0.0471202 0.00716326,-0.00537244 -0.00298124,0.00358163 -0.00298124,0.00358163 -0.00716326,0.00537244zm-0.406805 -0.00715291c-0.0387665,-0.0387768 0.0214794,-0.0721812 0.00716326,-0.00358163 -0.0023912,0.00238085 -0.0023912,0.00238085 -0.00716326,0.00358163zm0.503436 -0.00597283c-0.00477206,-0.00596248 -0.00954411,-0.0125254 -0.0143162,-0.0190882 0,-0.0202786 0.0316136,0.0190882 0.0143162,0.0190882zm-0.614374 -0.00596248c-0.121682,-0.0280319 0.0232599,-0.0912591 0.0691896,-0.0912591 0.0345948,-0.0345948 -0.133017,0.0316136 -0.150315,0.00715291 -0.0101445,-0.0846962 0.00954411,-0.0256407 0.0590555,-0.0751521 0.0471202,-0.00298124 0.0578547,-0.0363856 0.0184878,-0.0167074 -0.00656287,0.000600389 -0.0584551,0.0131257 -0.0495114,-0.00954411 0.0184982,-0.00715291 0.164631,-0.0787337 0.0626371,-0.0512918 -0.020289,-0.0137158 0.0226595,-0.0238603 0.0226595,-0.0441389 -0.0232599,-0.0077533 0.0262515,-0.0942507 0.0399673,-0.090669 0.0351952,-0.0274419 -0.0184878,-0.065608 -0.00119043,-0.108556 0.0238603,0 0.00596248,0.044729 0.0178874,0.0411577 0.0196886,-0.0196886 -0.011925,-0.107966 0.0131257,-0.112138 0.0238603,-0.0483209 -0.0781333,-0.0644279 -0.0596455,-0.111548 0.0483106,-0.0178978 -0.0268415,-0.0799242 0.0077533,-0.0751521 0.104385,0.0626268 -0.081715,-0.111548 -0.081715,-0.124073 0.0644176,0 0.114519,0.102594 0.144342,0.142561 0.0143162,0 -0.0226595,-0.0548735 -0.0256407,-0.0638275 -0.0107449,-0.0131154 -0.0483209,-0.048911 -0.0483209,-0.065608 0.0518922,0.00835368 0.0507018,0.100203 0.0936503,0.085897 0.0471202,0.0375761 0.0316136,0.16403 0.0172974,0.0626268 -0.0298228,-0.0894786 0.0149166,0.14077 0.0405573,0.153296 0.0119353,-0.011925 -0.0155066,-0.0357852 0.0190882,-0.0590555 0.00954411,-0.0125254 0.0560742,-0.123473 0.00716326,-0.0691896 -0.0220695,0.0835058 -0.032214,-0.00715291 0.0101341,-0.0495114 0.00597283,-0.0280319 0.0835161,-0.152095 0.0835161,-0.110937 -0.0178978,0.0262411 -0.032214,0.049501 -0.0465301,0.0781333 0.011925,0 0.196834,-0.251118 0.206979,-0.138379 -0.00715291,0.0143162 -0.135398,0.081715 -0.135398,0.101393 -0.0077533,0 -0.0167074,0.0262515 0.00715291,0.0101445 0.0757525,0 0.085897,-0.0190882 0.0119353,0.0548735 -0.0184982,0 -0.0107449,-0.0381661 -0.0286323,-0.00715291 -0.0137261,0.0596455 0.00417167,0.0936503 -0.0590555,0.144352 -0.00656287,0.0155066 -0.0280319,0.115119 -0.00298124,0.0501014 0.00894372,-0.00656287 0.0274419,0.0638275 0.0202786,0.0739617 -0.0345948,0.0172974 0.0345948,0.143752 0.0542834,0.110948 0.0512918,0 0.0250507,0.100213 -0.00596248,0.120492 -0.00477206,0.0286323 0.0745517,0.0405573 0.0924495,0.0453293 0.0441389,-0.00417167 0.0477206,0.0226698 0.0107345,0.0167074 -0.0703801,-0.0023912 -0.0882778,0.0184878 -0.0155066,0.0286323 0.00358163,0.00119043 0.0077533,0.00298124 0.0119353,0.00477206 0.0829054,0.0554635 -0.135408,-0.0334044 -0.0477206,0.0250507 0.0286323,0.0101341 0.0745621,0.0113349 0.049501,0.0518922 0,0.0942403 -0.228448,0.0077533 -0.20877,-0.102594 0.0226698,-0.0590555 0.0340048,-0.0596559 0.0924599,-0.0864974 0.134208,-0.0960311 -0.200416,-0.0393669 -0.221895,-0.0477102 -0.0465198,0 -0.0596455,0.0262411 -0.0244503,0.0614363 0.122873,0.0614363 0.156277,0.121082 0.0250507,0.20877 -0.032804,0.00835368 -0.0614363,0.0286323 -0.0960311,0.0310132zm-0.464069 -0.00119043c0.00179081,-0.00835368 0.000600389,-0.00656287 0.00716326,-0.00835368 0,0.00537244 -0.0023912,0.00716326 -0.00716326,0.00835368zm0.751573 -0.0023912c-0.016107,-0.0160966 -0.0137158,-0.0584551 0.0125254,-0.0322036 0,0.0113349 -0.000600389,0.0286323 -0.0125254,0.0322036zm0.392489 -0.00715291c-0.00954411,-0.00954411 -0.0745621,-0.122873 -0.0566643,-0.118701 0.0172974,0.0244607 0.0638172,0.0936503 0.0566643,0.118701zm-0.682383 -0.00358163c-0.00417167,-0.00417167 -0.0334044,0 -0.0184878,-0.0149062 0.0381764,-0.00954411 0.0703801,-0.036986 0.109157,-0.0435489 -0.00477206,0.0143162 -0.0703904,0.0501118 -0.090669,0.0584551zm0.359084 -0.0369757c-0.00954411,-0.0023912 -0.0190882,-0.00537244 -0.0125254,-0.0172974 0.0125254,0 0.0429485,0.0137158 0.0125254,0.0172974zm0.0286323 -0.0238603c-0.0507018,-0.0334044 -0.0459297,-0.0363856 0.00179081,-0.00656287 0,0.00298124 0.00119043,0.00536209 -0.00179081,0.00656287zm-0.448552 -0.0167074c-0.0477206,-0.011925 0.110937,-0.0554738 0.0501014,-0.0149062 -0.0184878,0.00715291 -0.0298228,0.0125254 -0.0501014,0.0149062zm0.39725 -0.00834333c-0.00417167,-0.00418202 -0.00536209,-0.00418202 -0.00715291,-0.00954411 0.0077533,0.00238085 0.00537244,0.00238085 0.00715291,0.00954411zm-0.23382 -0.00954411c0.00179081,-0.00776365 0.00179081,-0.00835368 0.00954411,-0.00954411 0,0.00536209 -0.00477206,0.00894372 -0.00954411,0.00954411zm-0.0751521 -0.0226698c0.00417167,-0.0172974 0.0334044,-0.0155066 0.0113349,-0.0023912 -0.00358163,0.000600389 -0.00716326,0.00120078 -0.0113349,0.0023912zm-0.11572 -0.0190882c-0.0310132,-0.0310132 -0.0077533,-0.102004 -0.00477206,-0.141371 0.0125254,-0.0471202 0.0685996,-0.0930499 0.0799242,-0.14017 -0.00178046,-0.00417167 -0.00178046,-0.00417167 -0.00417167,-0.00477206 -0.0262411,0.0131257 -0.127055,0.250528 -0.097822,0.103194 -0.0178978,0 -0.0190882,0.032804 -0.0393669,0.032804 -0.00835368,-0.016697 0.0155066,-0.0715808 0.00238085,-0.0757525 -0.065018,0.0518922 -0.0459297,-0.171794 0.00597283,-0.146143 0,0.0184982 -0.0256511,0.0703904 0.00178046,0.0202786 0.0184982,-0.0184878 0.0125254,0.0310235 0.0131257,0.0357956 0.0226698,0.00298124 0.0787337,0.0745621 0.0721709,-0.0131257 -0.0506914,-0.0507018 -0.0620264,-0.0936503 0.00179081,-0.0256511 0.0763529,0.0345948 0.104985,0.0023912 0.0614363,0.0894786 -0.0405573,0.044729 0.0107449,0.0501014 -0.0262411,0.0870874 -0.0190882,0 -0.00298124,-0.00597283 -0.00596248,-0.016107 -0.0292327,0.00715291 -0.0238603,0.0829054 -0.0447393,0.117511 -0.00298124,0.0137158 -0.0101341,0.0733613 -0.0155066,0.0769429zm0.726522 -0.0131257c-0.0566746,-0.0256511 -0.0375864,-0.0960311 -0.0679992,-0.109157 -0.0328143,-0.032804 -0.020879,-0.0673988 -0.0411577,-0.0876775 -0.00954411,0 -0.0626371,-0.0232702 -0.0238603,-0.0232702 0.0137158,0.0137261 0.0560639,0.0137261 0.0184878,-0.000590037 0,-0.0172974 0.0268415,-0.00596248 0.0363856,-0.0023912 0.0841062,0.0614363 0.0375761,0.14077 0.0829158,0.214142 0,0.00537244 -0.000600389,0.00596248 -0.00477206,0.00894372zm0.110937 -0.0143162c-0.0345948,-0.0131154 -0.123463,-0.125854 -0.0852966,-0.118701 0.0190882,0.020879 -0.0155066,-0.0715705 -0.0256407,-0.0888679 -0.0125254,-0.06979 0.00536209,0.0351848 -0.0137261,0.0160966 -0.0155066,-0.0339944 -0.0256407,-0.0596455 -0.0512918,-0.0888679 -0.0584551,-0.0471305 0.0435385,0.0172974 0.00357128,-0.0286323 -0.0381661,-0.0298228 -0.0107345,-0.0357956 0.0131257,-0.0119353 0.0393669,0.0077533 -0.0703801,-0.0405573 -0.0441389,-0.048911 0.020879,0.00179081 0.0775433,0.0244607 0.0340048,-0.00596248 -0.00179081,-0.000600389 -0.0477206,-0.0155066 -0.0387768,-0.0286323 0.172984,0 0.170003,0.23203 0.187891,0.344168 0.00597283,0.0143162 0.0387768,0.0566746 0.0202786,0.0602459zm-1.29676 -0.0143162c-0.0101341,-0.0101341 0.0340048,-0.0477102 0.0393669,-0.0721709 0.00358163,-0.065018 0.0250611,-0.06979 0.0501118,-0.124073 0.00358163,-0.0781333 0.065018,-0.146133 0.149114,-0.118101 0,0.00119043 -0.103184,0.0542834 -0.048911,0.0274419 0.0023912,0 0.0596559,-0.00835368 0.0471305,0.0101341 -0.0196886,0.00835368 -0.0847066,0.0477206 -0.0447393,0.020879 0.0381764,-0.00358163 0.0345948,0.00596248 -0.000600389,0.0202786 -0.0286323,0.0340048 0.0441389,-0.00715291 0.0149166,0.0220695 -0.032214,0.00597283 -0.115119,0.147333 -0.0715808,0.0471305 0,-0.0190882 -0.0542834,0.0966212 -0.0542834,0.0966212 0.0453397,-0.0262411 -0.0310132,0.0542834 -0.0524823,0.065018 -0.00895407,0.00120078 -0.0184982,0.00298124 -0.0280423,0.00477206zm0.202807 -0.016697c-0.0214691,-0.0214794 0.036986,-0.0566643 0.036986,-0.0399673 -0.0107345,0.0125254 -0.0238603,0.0310235 -0.036986,0.0399673zm0.527297 -0.0167074c-0.0077533,-0.0077533 -0.00656287,-0.0172974 -0.00895407,-0.0274316 -0.0524823,-0.0685996 0.0912694,-0.0316136 0.090669,-0.0292327 -0.0190882,0.0178978 -0.0459297,0.0894786 -0.0459297,0.0250507 -0.032214,-0.0322036 -0.0155066,0.0292327 -0.0357852,0.0316136zm-0.600068 -0.028622c0,-0.0429485 0.0411577,-0.110358 0.085897,-0.117511 0.00238085,0.00238085 -0.0781437,0.113929 -0.085897,0.117511zm0.576208 -0.0703904c-0.0119353,-0.0244503 0.0125254,-0.0447393 0.00477206,-0.00119043 -0.00119043,0 -0.00298124,0.000590037 -0.00477206,0.00119043zm0.236201 -0.0155066c-0.0077533,-0.0077533 -0.0262411,-0.0709804 0.00776365,-0.0542834 0.00477206,0.0077533 -0.00358163,0.0518922 -0.00776365,0.0542834zm-0.13957 -0.00596248c-0.00656287,-0.0137261 0.00715291,-0.0292327 0.00715291,-0.00537244 -0.00298124,0.00358163 -0.00298124,0.00358163 -0.00715291,0.00537244zm-0.0513022 -0.020289c-0.000590037,-0.00655252 -0.000590037,-0.00655252 0.00119043,-0.0125254 0.000600389,0.00299159 0.00358163,0.0125254 -0.00119043,0.0125254zm0.329261 -0.0417477c-0.0626268,-0.0513022 0.0107345,-0.0507018 0.0107345,-0.0077533 -0.00715291,0.00656287 -0.00715291,0.00656287 -0.0107345,0.0077533zm-0.130036 -0.0023912c-0.0137158,-0.0101341 -0.0292224,-0.0363856 -0.0113349,-0.048911 0.0107449,0.00358163 0.0250611,0.0423585 0.0113349,0.048911zm0.0202786 -0.0190882c-0.044729,-0.0298228 0.00298124,-0.0888679 0.020879,-0.0709804 0.000600389,0.00358163 0.016107,0.0596559 -0.00596248,0.0423585 -0.020879,-0.053093 -0.00716326,0.0268415 -0.0149166,0.028622zm0.184909 -0.0155066c-0.00119043,-0.00179081 -0.00298124,-0.00417167 -0.00477206,-0.00656287 0.00418202,0 0.00477206,0.00358163 0.00477206,0.00656287zm-0.255289 -0.00834333c-0.0262515,-0.0787441 0.0632271,-0.0769533 0.0996128,-0.122883 0.0501014,-0.00238085 -0.0507018,0.110347 -0.0751625,0.0942507 -0.0137158,0.00655252 -0.00834333,0.0232599 -0.0244503,0.0286323zm0.120492 -0.0178978c-0.0119353,-0.0119353 0.00298124,-0.0220695 0.00596248,0 -0.00179081,0 -0.00358163,0 -0.00596248,0zm-0.407995 -0.0178978c-0.0214794,-0.0393669 -0.0131257,-0.0727713 -0.048911,-0.104975 0.00655252,-0.0196886 0.028622,-0.000600389 0.028622,-0.0125357 -0.0739617,-0.0387665 0.0328143,-0.0310132 0.0393772,0.0513022 -0.00179081,0.00954411 -0.0143162,0.0638275 -0.0190882,0.0662084zm0.134798 -0.00119043c0,-0.00596248 -0.00238085,-0.00656287 0.00358163,-0.00835368 0,0.00477206 0.00179081,0.00835368 -0.00358163,0.00835368zm-0.638234 -0.00358163c-0.0507018,-0.016697 0.0733716,-0.0918595 0.0846962,-0.0972216 0.0268415,-0.00716326 0.134808,-0.00954411 0.0632271,0.000590037 0,0.0113349 0.0220695,0.020879 0.0131257,0.0298228 -0.011925,0 -0.0835058,-0.00477206 -0.0745621,0.0131257 0.107966,-0.0196783 -0.0799242,0.0513022 -0.086487,0.053683zm0.416349 -0.0250507c-0.0196886,-0.00298124 -0.0596559,-0.0423481 -0.0292327,-0.0483106 0.0125254,0.0125254 0.0143162,0.0232599 0.032804,0.0256407 0.0340048,-0.0298228 0.0393772,0.0155169 -0.00357128,0.0226698zm0.32568 -0.0131257c-0.0453397,-0.0226595 0.00238085,-0.0912591 0.0441389,-0.0942403 0.0304231,-0.0155066 0.130036,-0.0357852 0.137189,0 -0.0781333,0 -0.149714,-0.0167074 -0.166422,0.0841062 -0.00477206,0.00596248 -0.00834333,0.0077533 -0.0149062,0.0101341zm0.446172 -0.00238085c-0.0721812,-0.0238603 -0.105586,-0.0709804 -0.184909,-0.0870874 0,-0.032804 0.0679992,0.00596248 0.0727713,-0.00358163 -0.0167074,-0.0339944 -0.0954411,-0.0184878 -0.11572,-0.0286323 0.00358163,-0.0202786 0.0232599,-0.0113349 0.0274316,-0.0280319 -0.0667984,-0.0351952 0.0763529,0.00238085 0.103194,0.0202786 0.00656287,0.00537244 0.122283,0.118701 0.0972319,0.127055zm-0.374591 -0.0202786c-0.0346052,-0.0316136 0,-0.020879 0.0184878,-0.0190882 0.0393669,-0.0393669 0.0322036,0.00596248 -0.0184878,0.0190882zm-0.501055 -0.0250611c-0.0393669,-0.0196783 0.112138,-0.0757525 0.112138,-0.0256407 -0.0196783,0.00954411 -0.0918491,0.0202786 -0.112138,0.0256407zm0.128845 -0.0143058c-0.0178978,-0.0178978 0.00835368,-0.0137261 0.00835368,-0.00120078 -0.0023912,0 -0.00537244,0.000600389 -0.00835368,0.00120078zm-0.178947 -0.00358163c-0.0202786,-0.0202786 0.0691896,-0.0459297 0.0614363,-0.0572647 -0.0942403,0.0137158 0.0823154,-0.0835058 0.0888782,-0.00715291 -0.00835368,0.00477206 -0.0417581,-0.00776365 -0.036986,0.00715291 0.0602459,0.011925 -0.0948407,0.0542834 -0.113329,0.0572647zm-0.0226698 -0.0238603c-0.000590037,-0.000600389 -0.00119043,-0.00119043 -0.00238085,-0.0023912 0.00358163,-0.0143162 0.0155066,-0.00417167 0.00238085,0.0023912zm0.694308 -0.0250507c-0.0077533,-0.0077533 -0.0417477,-0.00895407 -0.0530826,-0.0107345 0,-0.0274419 0.106176,-0.000600389 0.0530826,0.0107345zm-0.161049 -0.00358163c-0.00954411,-0.0125254 -0.00417167,-0.0190882 0.00895407,-0.0262411 0.0238499,0 0.00357128,0.0232599 -0.00895407,0.0262411zm0.125264 -0.0310132c-0.016107,-0.0107449 0.0143162,-0.0262515 0.0143162,-0.00835368 -0.00656287,0.00536209 -0.00656287,0.00536209 -0.0143162,0.00835368zm-0.46645 -0.0023912c-0.0274419,-0.00954411 -0.176556,-0.0190882 -0.0685996,-0.0393669 0.0292327,0 -0.0178874,-0.00656287 -0.0143162,-0.0226698 0.0304231,-0.0256407 0.112739,-0.0101341 0.123473,0.0393669 -0.00894372,0.00895407 -0.0172974,-0.0298228 -0.0405573,-0.0131154 -0.036986,0 0.0232599,0.0244503 0,0.0357852zm-0.252909 -0.00835368c-0.0214794,-0.0298228 0.0990124,-0.0339944 0.0518922,-0.00715291 -0.0316136,0.00477206 -0.0465301,0.00537244 -0.0518922,0.00715291zm0.683574 -0.00119043c-0.0381764,-0.0310132 -0.0137261,-0.0316136 -0.053683,-0.0250507 -0.0244607,-0.0244607 0.0942403,-0.081715 0.0781333,-0.0495114 -0.0393669,0.0560742 0.0632271,-0.0202786 0.0167074,0.0340048 -0.0143162,0.00536209 -0.0220695,0.0125254 -0.00179081,0.016107 0.00834333,0.016697 -0.0274419,0.0232599 -0.0393669,0.0244503zm-0.183719 -0.00954411c0,-0.00715291 -0.00358163,-0.0155066 0.00596248,-0.0155066 0,0.00894372 0.00179081,0.0131257 -0.00596248,0.0155066zm-0.740838 -0.0238603c-0.0149062,-0.0149062 0.00656287,-0.0477206 0.0178978,-0.0310132 0,0.0143162 -0.00298124,0.0274419 -0.0178978,0.0310132zm0.659713 -0.0322036c-0.0149166,-0.0256511 -0.0357852,-0.0668088 -0.0357852,-0.0960415 0.0214691,-0.0214691 0.0530826,0.0876878 0.0357852,0.0960415zm-0.138379 -0.00477206c-0.0745621,-0.0155169 -0.085307,-0.0894786 -0.180738,-0.0644279 -0.102594,0 0.0614363,0.0316136 0.0870874,0.0423585 0.0393669,0.0357852 0.00358163,0.0137158 -0.0262515,0.00655252 -0.0238603,-0.00298124 -0.198625,0.0178978 -0.143752,-0.0184878 0.0507018,-0.0238603 0.0226698,-0.0596455 0.122883,-0.0554738 0.028622,0.00716326 0.145543,0.0429485 0.145543,0.0870874 -0.00120078,0.000600389 -0.00299159,0.00119043 -0.00477206,0.0023912zm-0.337615 -0.0119353c-0.0184878,-0.0184878 0.0781437,-0.0721709 0.0280319,-0.0554738 -0.00894372,0.00656287 -0.0685892,0.0721812 -0.0620264,0.0375761 0.0757525,-0.0894683 0.201606,-0.128235 0.300619,-0.0578547 0.0184982,0.0238603 -0.00954411,0.00537244 -0.0232599,0.00298124 -0.065018,-0.0387665 -0.125264,-0.00298124 -0.180738,0.0292327 -0.0214691,0.0184878 -0.0369757,0.0363856 -0.0626268,0.0435385zm0.547575 -0.0107345c-0.0131257,-0.0131257 0.00894372,-0.0584551 0.0202786,-0.06979 0.0578547,-0.032804 -0.00358163,0.0656183 -0.0202786,0.06979zm-0.0513022 -0.0023912c-0.0125254,-0.0178874 -0.0149062,-0.0411577 -0.0238603,-0.0608359 0,-0.0626268 0.0524926,0.0513022 0.0238603,0.0608359zm-0.62869 -0.00238085c-0.0345948,-0.0226698 0.0888782,-0.100803 0.103784,-0.0256511 -0.0143162,0.0214794 -0.0507018,-0.0137158 -0.0733716,0.00895407 -0.0155066,0.00238085 -0.016697,0.0125254 -0.0304128,0.016697zm0.554728 -0.016697c-0.0584551,-0.0477206 0.020879,-0.0685996 0.00835368,-0.00358163 -0.00298124,0.00238085 -0.00298124,0.00238085 -0.00835368,0.00358163zm0.3734 -0.00477206c0,-0.0220695 0.0501014,-0.0244607 0.0184878,-0.0292327 -0.0155066,0.0023912 -0.109747,0.0495114 -0.0823154,0.00835368 0.0363856,-0.0250507 0.199826,-0.0137261 0.174175,0.00536209 -0.0357852,0.00895407 -0.0733613,0.0113349 -0.110347,0.0155169zm-0.471222 -0.0596559c-0.0620367,-0.0351848 0.316136,-0.081715 0.316136,-0.0280319 -0.00954411,0.0113349 -0.180137,0.00954411 -0.21056,0.0107345 -0.0339944,0.00596248 -0.0715808,0.0137261 -0.105575,0.0172974zm-0.0620367 -0.0322036c-0.0155066,-0.0107449 0.000600389,-0.0608463 -0.0292224,-0.0423585 -0.0268415,0.0632271 0.00298124,-0.0155066 -0.065018,0.0220695 -0.126454,0 -0.110948,0.0220798 -0.0107449,-0.0280319 0.0644279,0 0.135408,-0.0363856 0.203408,-0.0363856 0.133607,-0.0190882 0.296447,-0.0202786 0.429464,-0.00417167 0.0256511,0.0155066 -0.00298124,0.0286323 -0.0202786,0.0244503 -0.020879,-0.0208687 -0.0662084,0.00597283 -0.0662084,0.0310235 -0.00835368,0.0155066 -0.0894683,-0.00358163 -0.107966,-0.00596248 -0.111538,0.0107345 -0.222485,0.028622 -0.333433,0.0393669zm0.0262411 -0.0250611c-0.0387665,-0.0316136 0.0524926,-0.0441389 0.00954411,-0.00119043 -0.00298124,0 -0.00596248,0.000600389 -0.00954411,0.00119043zm0.0501118 -0.0131154c-0.00358163,-0.00716326 -0.000600389,-0.0304231 0.00954411,-0.0202786 0,0.0137158 0.00298124,0.0160966 -0.00954411,0.0202786zm0.0465198 -0.00358163c-0.033394,-0.0334044 0.065018,-0.0441389 0.0423585,-0.00656287 -0.00954411,0.0077533 -0.0304231,0.00596248 -0.0423585,0.00656287zm0.20877 -0.00596248c-0.00655252,-0.00656287 -0.00178046,-0.0345948 0.00716326,-0.0316136 0.00179081,0.020879 0.0143162,0.0280319 -0.00716326,0.0316136zm0.0656183 0c-0.0727713,-0.0119353 0.0184878,-0.0668088 0.0316136,-0.0131257 -0.00716326,0.00716326 -0.0220695,0.0101445 -0.0316136,0.0131257zm-0.194453 -0.00358163c-0.00298124,-0.0113349 -0.00596248,-0.0310132 0.0113349,-0.0268415 0.00596248,0.0184878 0.00656287,0.0238603 -0.0113349,0.0268415zm0.0560639 0c-0.0298228,-0.0244503 0.0244607,-0.0501014 0.0441493,-0.0238603 0,0.0256511 -0.0256511,0.0220695 -0.0441493,0.0238603zm1.54389 1.1882l0.161422 0 0 0.0705353 -0.0705353 0 0 0.0705353 0.0583309 0 0 0.0705353 -0.0583309 0 0 0.0956274 0.0705353 0 0 0.0698521 -0.161422 0 0 -0.377086zm-0.12427 0.0705353l-0.0379798 0 0 0.083423 0.0379798 0 0 -0.083423zm0 0.153275l-0.0379798 0 0 0.153275 -0.0868183 0 0 -0.377086 0.14989 0 0.0617158 0.0535795 0 0.100379 -0.0454432 0.0325556 0.0454432 0.0372966 0 0.153275 -0.0868079 0 0 -0.153275zm-0.306726 -0.22381l0.161422 0 0 0.0705353 -0.0705353 0 0 0.0705353 0.0583205 0 0 0.0705353 -0.0583205 0 0 0.0956274 0.0705353 0 0 0.0698521 -0.161422 0 0 -0.377086zm0.0189226 0.599043l0 0.177694 -0.0827398 0 0 -0.377086 0.0786716 0 0.0542627 0.178367 0 -0.178367 0.0827398 0 0 0.377086 -0.0746035 0 -0.0583309 -0.177694zm-0.212444 -0.124788l-0.016283 0.157343 0.0406919 0 -0.0162726 -0.157343 -0.0081363 0zm0.0298331 0.228562l-0.0501842 0 -0.0088195 0.0739203 -0.0861351 0 0.057658 -0.377086 0.124788 0 0.0576477 0.377086 -0.0868079 0 -0.00814665 -0.0739203zm0.299635 0.233779l0.0216968 -0.132934 0.0908864 0 -0.0739306 0.215674 0 0.161411 -0.0922321 0 0 -0.161411 -0.0739306 -0.215674 0.0908864 0 0.0325556 0.132934 0.00406815 0zm-0.285019 -0.132934l0.0868079 0 0 0.307233 0.0793548 0 0 0.0698521 -0.166163 0 0 -0.377086zm-0.170397 0.199402l0 0.177684 -0.0827501 0 0 -0.377086 0.078682 0 0.0542524 0.178367 0 -0.178367 0.0827398 0 0 0.377086 -0.0746035 0 -0.0583205 -0.177684zm-0.237547 -0.124798l0 0.23263 0.0339116 0 0 -0.23263 -0.0339116 0zm-0.0332284 -0.0746035l0.100379 0 0.0576477 0.0576477 0 0.26179 -0.0576477 0.0576477 -0.104457 0 -0.0535692 -0.0576477 0 -0.26179 0.0576477 -0.0576477zm0.11043 0.395284l0.161411 0 0 0.0705353 -0.0705353 0 0 0.0705353 0.0583309 0 0 0.0705353 -0.0583309 0 0 0.0956274 0.0705353 0 0 0.0698625 -0.161411 0 0 -0.377096zm-0.12428 0.0705353l-0.0379798 0 0 0.083423 0.0379798 0 0 -0.083423zm0 0.153275l-0.0379798 0 0 0.083423 0.0379798 0 0 -0.083423zm0.650594 0.573475l0 0.348929 -0.162488 0 0 -0.740486 0.154497 0 0.106538 0.350265 0 -0.350265 0.162488 0 0 0.740486 -0.146505 0 -0.114529 -0.348929zm-0.466461 -0.245052l0 0.456803 0.0665914 0 0 -0.456803 -0.0665914 0z"/>
  </g>
 </g>
</svg>
