<?xml version="1.0" encoding="UTF-8"?>
<!DOCTYPE svg PUBLIC "-//W3C//DTD SVG 1.1//EN" "http://www.w3.org/Graphics/SVG/1.1/DTD/svg11.dtd">
<!-- Creator: CorelDRAW -->
<svg xmlns="http://www.w3.org/2000/svg" xml:space="preserve" width="25in" height="39in" style="shape-rendering:geometricPrecision; text-rendering:geometricPrecision; image-rendering:optimizeQuality; fill-rule:evenodd; clip-rule:evenodd"
viewBox="0 0 0.454785 0.674808"
 xmlns:xlink="http://www.w3.org/1999/xlink">
 <defs>
  <style type="text/css">
   <![CDATA[
    .fil0 {fill:black}
   ]]>
  </style>
 </defs>
 <g id="Dummy_x0025_Layer_x0025_Dummy_x0025_Layer">
  <metadata id="CorelCorpID_0Corel-Layer"/>
  <g id="_210178784">
   <path id="_210179168" class="fil0" d="M0.20074 0.38447c0.0080318,0 0.0214743,-0.00240168 0.0273706,-0.00438519 0.0117613,-0.00395852 0.0125838,-0.00592502 0.0199175,-0.0118389 0.00509453,-0.00410836 0.011816,-0.00117055 0.0188675,-0.00267107l0.0336633 -0.00603979c0.0230343,-0.00393036 0.0464416,-0.0165849 0.0602587,-0.0350087 0.00685806,-0.00914338 0.00744626,-0.0121816 0.0123102,-0.0194456 0.0109521,0.00733362 0.0380947,0.0344954 0.0458694,0.0448604 0.0163851,0.0218494 0.0324662,0.0519001 0.0163128,0.0785646 -0.0064298,0.0106131 -0.010179,0.0123506 -0.0170939,0.019198 -0.00644149,0.00638039 -0.0244195,0.018783 -0.0326134,0.0206916 0.000550473,-0.00661418 0.00793935,-0.01852 0.00793935,-0.0510356l0.00226778 0c0.00109829,0.00471515 0.00120456,0.00788037 0.00567157,0.00907271 -0.000262484,-0.0117958 -0.00937398,-0.0223861 -0.0167278,-0.0297723 -0.00786177,-0.00789525 -0.0154919,-0.0144589 -0.0309057,-0.0144589 0.0027529,0.00375714 0.00590589,0.00370347 0.0102087,0.00566892 0.00758016,0.00346384 0.0249482,0.0178946 0.0249482,0.0226847 0,0.0304864 -0.00697337,0.0593453 -0.0211815,0.0831581 -0.00236714,0.00396755 -0.0041583,0.00656211 -0.00683469,0.0101774 -0.00260093,0.00351219 -0.00383206,0.00641492 -0.00827516,0.00760195 -0.0005255,-0.00630653 -0.00418328,-0.0137379 -0.00907271,-0.0170121 0.000594575,0.00255311 0.00336872,0.00890905 0.00453715,0.0113421 -0.018155,-0.00423057 -0.0280646,0.00529379 -0.0366899,0.0222857 -0.00676349,0.0133229 -0.00735275,0.026063 -0.0188835,0.02875 -0.00421516,-0.00796857 -0.0123166,-0.0213521 -0.0215487,-0.0238165 0.00182995,0.0068485 0.0104988,0.00966197 0.0124765,0.0181449 -0.0174382,0 -0.030666,-0.00031615 -0.0434518,-0.00531663 -0.0172947,-0.00676189 -0.0171151,-0.0123447 -0.0279987,-0.0196332 -0.00715296,0.00237086 0.00488253,0.000144526 -0.00406266,0.00274174 -0.00285863,0.000830492 -0.00367319,0.000237511 -0.00631078,-0.000192878 -0.0157097,-0.00256639 -0.0179026,-0.0182522 -0.0270529,-0.0206953 0.000318807,-0.0143118 0.011332,-0.021308 0.00935113,-0.0284609 -0.0014697,-0.00530176 -0.00369869,-0.0105892 -0.0045143,-0.0160705 -0.000905411,-0.00608124 -0.00185652,-0.0120073 -0.00237883,-0.016901 -0.0013799,-0.0128995 -0.0018342,-0.0234668 -0.00424119,-0.0354545 -0.00136502,-0.00679377 -0.00360305,-0.00894253 -0.00094845,-0.0146369 0.00242187,-0.00519602 0.00282941,-0.00983997 0.00499942,-0.0143649 0.00895847,0 0.0152783,0.00226884 0.0238165,0.00226884zm0.046499 -0.012476c0.00327415,0.00327255 -0.00327255,-0.00327255 0,0zm-0.153106 -0.0102071c0,-0.00578687 -1.59403e-005,-0.00188096 0.00113336,-0.00340273 0.000827835,0.0039091 0.00176672,0.00410729 -0.0034022,0.00453715l0 -0.00453715 0.00226884 0.00340273zm-0.0601084 -0.0124754c-0.00517051,0.00120456 -0.00297128,0.00255045 -0.00567157,-0.00113442 0.00557221,-0.00262378 -0.005594,0.00192612 0.00173484,-0.000282675 0.00496541,-0.00149627 0.00349731,-0.00260784 0.00393673,-0.00425288l-0.0028682 0.00152868c-0.00235067,0.000441547 -0.000951107,-0.000699249 -0.000534533,-0.0026631 -0.00548773,0.00146545 -0.00221411,0.00155099 -0.00363652,0.00280072 -0.00213282,0.0018714 0.000112645,0.000261422 -0.000977674,0.000688623l-0.00105738 -8.71405e-005c5.36658e-005,0.00240327 0.000582885,0.00689473 0.000934104,0.00915294l0.00133527 0.00445692c-0.000123272,4.25076e-005 -0.000341655,-8.44838e-005 -0.000380443,-8.87345e-005 -3.87882e-005,-3.71941e-006 -0.000334747,-6.80121e-005 -0.000383099,-6.80121e-005 -5.10091e-005,-1.59403e-006 -0.000341655,-4.03822e-005 -0.00039904,-3.50687e-005 -0.00260412,0.000239636 -0.00267107,0.00228797 -0.00284907,0.00180976 -7.65136e-005,-0.000206162 -0.000343249,0.000439422 -0.000664712,0.000605201l0.00127416 -0.00449092 -0.00453715 0c-0.00134377,0.00370879 0.00147076,0.000823584 -0.0034022,0.0034022 -0.00118968,-0.001034 -0.00271517,-0.00275555 -0.00420506,-0.00374917 -0.0111168,-0.00742235 -0.00431877,-0.000772044 -0.00552811,-0.00818589 -0.000434109,-0.00265779 -0.000907005,-0.00206693 -0.00160891,-0.005077 0.000286926,-0.00013815 0.00272633,-0.00126035 0.00306373,-0.00147342 0.000203505,-0.000127523 0.000468646,-0.000331028 0.000666837,-0.000467583 0.0127416,-0.00877144 0.00788887,-0.00129648 0.0144159,0.00307436l0.00209137 -0.00132783c0.00112486,-0.00106588 0.000191284,-0.00163282 0.00131136,-0.00434268l0.00753075 0.00380974c0.00445798,0.00240858 0.0618581,0.00980012 0.0661875,0.00980012 -0.000254514,0.00306214 -0.000531876,0.00308499 -0.00113495,0.00566998 -0.00303504,-0.00070722 -0.00614022,-0.00120828 -0.00882882,-0.00225715 -0.00430655,-0.00167692 0.00137831,-0.000613172 -0.00364609,-0.00227841 -0.000676402,0.00813382 -0.00404247,0.00657167 -0.00771672,0.0065892 -0.000263016,1.59403e-006 -0.000580228,9.5642e-006 -0.000848026,1.06269e-005 -0.000277362,1.59403e-006 -0.000592449,2.97553e-005 -0.000876187,2.97553e-005l-0.0324779 -0.00335172c-0.00491759,-0.000381505 -0.0104043,-0.000136556 -0.0125195,-0.00101009 -0.00163973,0.0041955 -0.000124335,0.000736975 -0.000100424,0.00223324 7.38569e-005,0.00440432 0.00152336,-0.00285066 0.000100424,0.00116949 -0.00305257,-0.00220508 -0.000977674,-0.00126619 -0.00226778,-0.00680493l0.00340273 0c0.000325183,0.00372526 0.00026089,0.00623161 0.00161263,0.001729 0.000431452,-0.00143729 -9.5642e-006,-0.00291336 -0.00047821,-0.00513173zm-0.00340273 0.00453715c-0.000113708,0.000112645 0.00031615,0.00031615 0.000337935,0.000337404l-0.000337935 -0.000337404zm0.0782538 -0.172389c0,-0.0194488 0.0129361,-0.0359433 0.0233335,-0.0492503 0.00982562,-0.0125753 0.0137422,-0.0112842 0.0273664,-0.0214015 0.00483577,-0.00359295 0.00985485,-0.00557274 0.0154446,-0.0083724 0.0164887,-0.0082555 0.0312462,-0.00945953 0.0359274,-0.0117061 -0.000392132,0.0176242 -0.0279126,0.0359035 -0.0409837,0.0463439 -0.0146518,0.0116991 -0.032734,0.0287877 -0.032734,0.0545935 0,0.020003 0.0081131,0.0408731 0.0167761,0.0546754 0.0114436,0.0182336 0.0112587,0.0143197 0.0203377,0.0216241 0.00381505,0.00306745 0.00508125,0.00587667 0.0124526,0.0113644 0.0249206,0.0185577 0.0509379,0.020622 0.0627284,0.0359412 0.010968,0.0142469 0.0120435,0.026106 0.00225981,0.0408524 -0.00919864,0.0138644 -0.0295109,0.0226746 -0.0453726,0.0226746 -0.0137565,0 -0.00929322,-0.000900629 -0.0108729,-0.0011307 -0.00330868,-0.000482461 -0.00116683,0.00179223 -0.00986388,0.000401696 -0.0136566,-0.00218223 -0.00658389,0.000722097 -0.0126614,-0.0196911 -0.00200689,-0.00673639 -0.00754403,-0.00330178 -0.00516254,-0.0090674 -0.00368487,0.00133421 -0.000105738,0.0022545 -0.00869758,0.000878844 -0.00429964,-0.000687029 -0.00432674,0.000256108 -0.0105823,0.000256108l-0.00167692 -0.00292558c-0.00104622,-0.00165195 -0.00161316,-0.0026445 -0.00266469,-0.00404566 -0.0110722,-0.0147464 -0.0223473,-0.00550526 -0.0285491,-0.00550526 -0.00293887,0 -0.00116418,-0.000758229 -0.00566998,-0.00113336 -0.00763276,-0.0327606 -0.00102868,-0.0144451 0.0135222,-0.0284407 0.0110982,-0.0106731 0.0200407,-0.0190774 0.011019,-0.031259l-0.0118442 -0.00874699c-0.000132305,-5.36658e-005 -0.000439422,-0.000155684 -0.000581291,-0.000198723 -0.00590696,-0.00181188 -0.0168925,-0.00227841 -0.0234642,-0.000543565 -0.00686657,0.00181242 -0.00229488,0.00124441 -0.00679802,0.00454353 0.000271517,-0.0122018 0.0114569,-0.0249514 0.0238165,-0.0249514 0.0318408,0 0.0305789,0.0120413 0.0396957,0.0181465 -0.00182039,-0.00781077 -0.00719228,-0.0134005 -0.0133553,-0.017266 -0.0154297,-0.00967844 -0.0256315,-0.00541706 -0.0320103,-0.00541706 0.00122262,-0.00524703 0.00226778,-0.0116811 0.00226778,-0.0181454 0,-0.00863063 -0.00340273,-0.0209982 -0.00340273,-0.0430979zm0.0625669 0.173711l0.000717847 -0.00109563 -0.00223005 -0.00268435 -0.000718378 0.00109723 0.00223058 0.00268276zm0.00207862 0.00208075c-0.000212538,0.00171837 -0.000465989,0.00122687 0.0015138,7.75763e-005 0.00363174,-0.00210997 -0.00145216,-0.000570664 -0.0015138,-7.75763e-005zm0.0683872 0.00714233l-0.000338998 -0.000337935c-0.000112645,0.000112645 0.00031615,0.00031615 0.000338998,0.000337935zm-0.0771209 -0.0158776l-0.000338466 -0.000338998c-0.000112645,0.000112645 0.00031615,0.00031615 0.000338466,0.000338998zm-0.0661189 0.0302829c0,-0.0355475 0.0390756,-0.0507806 0.0453657,-0.0272192 -0.0056296,0.008408 -0.0170115,0.00700259 -0.0170115,0.0385607 0.00535914,-0.00392611 -0.000174281,-0.000510622 0.00349731,-0.0123814 0.0025733,-0.00831979 0.00472153,-0.0139095 0.0120451,-0.0185763 0.00780917,-0.00497657 0.010061,-0.00420081 0.0184812,-0.00420081 0.0113809,0 0.0153686,0.0313302 0.000818802,0.0484533 -0.00542131,0.00637879 -0.0151492,0.0133766 -0.0223675,0.0150588l0 0.00226778c0.00896113,-0.000746008 0.00550792,-0.00551483 0.0139122,0.00309721 0.00236023,0.00241656 0.00820609,0.00926824 0.00990426,0.0105127 0.00157278,-0.00339848 -0.000167374,-0.00732618 -0.00219392,-0.0102741 -0.00200689,-0.00291921 -0.00417956,-0.00571461 -0.00801321,-0.00673798 0.00304088,-0.00454087 0.00599569,-0.00371463 0.0136099,-0.0124749 0.00307117,0.0131821 0.00284641,0.0269886 0.00499623,0.0415331 0.00134908,0.00912744 0.00354566,0.0108931 -0.00266044,0.0152092 -0.0189637,0.0131901 -0.0284222,0.00554033 -0.0423126,-0.00996059 -0.00206321,-0.00230285 -0.00283844,-0.00397711 -0.00473534,-0.00660674 -0.0103612,-0.0143718 -0.0134813,-0.0216693 -0.0255099,-0.0368663 -0.0107794,-0.0136178 -0.0137034,-0.0222299 -0.0137034,-0.04187l0.0124749 0.00113495c0,0.00880863 -0.000691279,0.0154483 0.00453715,0.0192798 -0.000294896,-0.00354726 -0.00113495,-0.00402972 -0.00113495,-0.00793935zm-0.00793776 -0.0328897c0.00355523,-0.000949513 0.00566732,-0.00314503 0.00917154,-0.0044362 0.00405097,-0.00149361 0.00697496,-0.00123378 0.0123761,-0.00123378 -0.00394364,0.00588995 -0.00370772,0.00219552 -0.00907271,0.0102071 -0.00489315,-0.000407541 -0.00721088,-0.00215141 -0.0124749,-0.00226937l0 -0.00226778zm0.00226778 -0.00566998c0,-0.00569601 -0.00118809,-0.0078283 -0.00115993,-0.0147177 1.96597e-005,-0.00492397 2.55045e-005,-0.00984528 2.55045e-005,-0.0147708 0.00368487,0.000306586 0.00722363,0.00295746 0.0102071,0.00453715 0,0.00648453 0.00033209,0.0175126 0.00221411,0.021384l-0.0112868 0.00356745zm0.201874 -0.0646455c0.000413917,-0.00496701 0.00363812,-0.00695371 0.00680493,-0.0090743 0.00241549,0.00176991 0.00147501,8.71405e-005 0.00226937,0.00340273 -0.00452387,-0.00217001 -0.00671938,-3.50687e-005 -0.00793935,0.00453662l0.00793935 -0.00226778c-0.0030717,0.00162485 -0.00484905,0.00305045 -0.0090743,0.00340273zm-0.0317547 -0.00680493c-0.00326405,0.000272048 -0.00280231,0.000119021 -0.0051195,0.00168489 -0.00310624,0.00210041 -0.00200264,0.000925602 -0.00277574,0.0041243l0.00449305 -0.00127363c-0.00219392,0.0029936 -0.00435065,0.0043804 -0.00567157,-0.00113336 -0.0030717,0.00162485 -0.00484799,0.00305045 -0.00907271,0.00340273 0.00046227,-0.0055483 0.00407222,-0.00702756 0.00777463,-0.00893775l0.0024325 0.00326618c-0.00487456,-0.00113601 -0.0075706,-0.00108926 -0.00907271,0.00453662l0.00881554 -0.00301379c0.00364768,-0.00163017 0.00163017,-0.00339582 0.00819652,-0.00492556 0.00135705,0.00582301 -0.00121625,0.00699781 -0.00132305,0.00699515l-0.000945793 -0.00132358c0.00241496,-0.00176938 0.00147448,-8.71405e-005 0.00226884,-0.0034022zm-0.0340236 0.00566998c0.00151221,-0.003153 0.00113442,-0.00219552 0.00113442,-0.0068044l0.00680334 0 -4.30389e-005 0.00326299 -0.00789472 0.00354141zm0.00226778 -0.0034022c0.00531929,-0.000555786 0.00189637,0.00133527 0.00453662,-0.00226778l-0.00453662 0 0 0.00226778zm0.0430963 0c0.00107172,-0.00401059 0.00120987,-0.00349731 0.00567157,-0.00453715 -0.00101646,0.00251857 2.70986e-005,0.000600419 -0.00135015,0.00205365l-0.00205205 0.00134908c0.00341548,0.000911787 0.00248988,-1.3815e-005 0.0034022,0.0034022 -0.00260678,0.00174547 -0.00228,0.00216735 -0.00680493,0.00226937 0.00131561,-0.00396914 -0.000583948,-0.000811895 0.00567051,-0.00226937l-0.00453715 -0.00226778zm-0.0555717 0.0034022c0.00137884,-0.00380815 0.00483577,-0.00794201 0.0102077,-0.0068044l0 0.00453662c-0.0040871,0.00109032 -0.00655042,0.00532354 -0.0102077,0.00226778zm0.00907271 -0.00566998c-0.00528157,0.000439422 -0.00572364,0.00103293 -0.0068044,0.00566998 0.00438784,-0.00210572 0.00536074,-0.00026089 0.0068044,-0.00566998zm0.0374263 0.00226778c8.71405e-005,-0.0031615 0.000392664,-0.00209934 0.00226778,-0.0034022 0.000376723,0.00451643 0.000459613,0.00369975 0.00340273,0.00566998l0.00113442 -0.00566998c0,0.00447764 -0.000356001,0.00460251 -0.00113442,0.00793935 -0.00410198,-0.00274758 -0.000604139,-0.00174547 -0.00567051,-0.00453715zm-0.0680477 0.00226778c0.000617422,-0.00257596 0.000879907,-0.00261368 0.00113442,-0.00566998l0.00453715 0 0 0.0034022c-0.0043108,0 -0.0026615,0.00025292 -0.00567157,0.00226778zm-0.11568 -0.0260848c0.00120031,-0.00515723 0.000937823,-0.00900257 0.00382993,-0.0131821 0.0111311,-0.0160811 0.0160849,-0.00112114 0.0188521,0.00410995 -0.00396064,-0.000922946 -0.00381877,-0.00226937 -0.00793935,-0.00226937 -0.0109802,0 -0.00966835,0.00929375 -0.0147427,0.0113415zm0.0805231 -0.0113415c-0.00216204,-0.00927621 -0.00377255,-0.0117475 0.00346755,-0.0180795 0.0234567,-0.0205136 0.0664595,0.01229 0.0362265,0.0282867 0,-0.00777729 -0.0020563,-0.0123277 -0.00629059,-0.016392 -0.00324173,-0.00311262 -0.00938461,-0.00629006 -0.0152586,-0.00629006 -0.0147666,0 -0.015087,0.0102337 -0.0181449,0.0124749zm0.107742 -0.199607c0,-0.0111768 0.0134382,-0.0122124 0.0235678,-0.00201964 0.00940055,0.00945953 0.0144733,0.0286549 0.0171672,0.0418088 0.00698134,0.0340964 0.0160849,0.0330023 0.0261783,0.0520755 -0.00440006,0.0011748 -0.00555096,0.00254142 -0.00566998,0.00793935 0.00447658,0 0.00460091,-0.000356001 0.00793776,-0.00113442 0,0.0191794 -0.00437456,0.0155142 -0.00793776,0.0192814 0.000579697,-0.00249307 0.000882563,-0.00199998 0.000566413,-0.00422366 -0.000328371,-0.00231347 -0.00153505,-0.00360092 -0.00159828,-0.00373854 -0.000112114,-0.000245481 -0.000270454,-0.000529219 -0.000378849,-0.000782671 -0.00163707,-0.00382143 -0.000671088,-0.0043092 -0.00312643,-0.00713436 0.00161688,-0.00446436 0.00017003,-0.000124335 0.0033581,-0.00467477l4.41016e-005 -0.00212963c-0.000227415,-0.000158341 -0.000621142,-0.000317744 -0.00073113,-0.000397977 -0.00644202,-0.00469124 -0.00199732,0.00168914 -0.00137565,-0.00147608l0.00210678 -0.00152868c-0.00841331,0 -0.00507647,-0.00140488 -0.0106115,-0.0109372l-0.00431452 -0.00702544c-0.00705785,-0.00976399 -0.00234589,-0.0120961 -0.00775604,-0.016061 0,0.00542609 0.00172156,0.012476 -0.0034022,0.012476 -0.00990479,0 -0.0119914,-0.00802118 -0.0166141,-0.0151417l-0.00274068 -0.00406425c-0.00671938,-0.0108102 -0.0146694,-0.036242 -0.0146694,-0.0511111zm0.0623761 0.0986696c0.00099574,-0.00372632 0.00164504,-0.00373482 0.00439794,-0.00562588l0.00127363 0.00449252c-0.00258499,0.000601482 -0.00260943,0.000878844 -0.00567157,0.00113336zm-0.28013 -0.053304c0,-0.0118612 0.0251246,0.00313865 0.0292999,0.00859078 0.0031971,0.00417265 0.00334163,0.00291868 0.00394311,0.00291868l0.000781077 -0.000167374c0.00226778,0.00548666 -0.00347871,0.0020292 0.0034022,0.00566998l0 -0.0034022c0.014901,0.00997812 0.0052635,0.0161375 0.00466733,0.0201024l7.06688e-005 0.00095642c-0.000254514,0.00243887 -0.00274439,0.00517158 -0.0044617,0.00642714 -0.00206162,0.00150424 -0.00282091,0.00174122 -0.00594628,0.00200104 0.00220614,0.0032938 0.00229488,0.00152177 0.0034022,0.00567157 -0.00530548,-0.00610409 -0.0139441,-0.0122741 -0.0206996,-0.0189961 -0.00465352,-0.00463067 -0.00509931,-0.00486765 -0.00858759,-0.0106917 -0.00587242,-0.00980437 -0.00587136,-0.00941861 -0.00587136,-0.0190806zm0.0332287 0.0128139l-0.000337935 -0.000338466c-0.000113708,0.000112114 0.000315087,0.00031615 0.000337935,0.000338466zm0.234426 0.580337l0.0136099 0 0.00600898 -0.00306373c0.0113389,-0.0060908 0.011942,-0.00330603 0.0184749,-0.00761098 0.0277829,-0.0183128 0.0117369,-0.0561381 -0.0186544,-0.0562912l-0.00242718 -0.00788675c0.00274599,-0.00410039 0.00644574,-0.00673639 0.00994358,-0.0104712 0.0125509,-0.0134032 0.0194658,-0.0401845 0.0166311,-0.0592083 -0.00227044,-0.0152427 -0.00201592,-0.00772256 0.0106992,-0.024606 0.0157113,-0.0208579 0.00873212,-0.0240673 0.0208643,-0.0290369 0.0100047,-0.00409879 0.0213255,-0.0116673 0.0296931,-0.0179403 0.0113006,-0.00846963 0.0198468,-0.0195142 0.025589,-0.0322516 0.00238042,-0.00527891 0.00318807,-0.012637 0.00452918,-0.0147512l0 -0.0158787 -0.00468593 -0.0168633c-0.0101832,-0.0284806 -0.0366065,-0.0563231 -0.0604298,-0.0745312 -0.00294152,-0.00224918 -0.00307808,-0.00300316 -0.00633469,-0.00387244 0.000357595,-0.00429858 0.000473959,-0.00248616 0.00170508,-0.00623267 0.00385916,-0.0117385 0.00743989,-0.028496 0.00607646,-0.0412414 -0.00436978,-0.040837 -0.0326888,-0.0682156 -0.0282335,-0.0783813 0.00468061,-0.0106774 0.0136954,-0.016232 0.0034548,-0.0420102 -0.00781874,-0.0196858 -0.0240433,-0.0364524 -0.0293828,-0.0534081 -0.00578103,-0.0183622 -0.00523746,-0.0213441 -0.0152113,-0.0392265 -0.0181359,-0.0325119 -0.0312324,-0.0328307 -0.0416138,-0.0400443l-0.0102071 0c-0.000227947,0.000158341 -0.00056907,0.000328371 -0.00072316,0.000411261l-0.00222899 0.00117374c-0.00103293,0.000503715 -0.00123644,0.000548879 -0.00233898,0.00106375 -0.00625552,0.00291602 -0.00730864,0.00424491 -0.0115854,0.00996165 -0.0104925,0.0140264 -0.0163596,0.0476616 -0.0205498,0.065645 -0.0211778,0 -0.0374306,0.00100212 -0.0552072,0.00943827 -0.0155169,0.00736337 -0.00717156,0.00383099 -0.0305773,-0.00304195 -0.0125419,-0.00368381 -0.0131662,-0.00313068 -0.0235758,-0.009315 -0.00256799,-0.00152602 -0.00412855,-0.00221836 -0.00653926,-0.00366787 -0.0173229,-0.0104149 -0.0584437,-0.0313488 -0.0799833,-0.0203112 -0.0104632,0.00536233 -0.0119659,0.0161938 -0.00786974,0.0287744 0.0127268,0.0390836 0.0365863,0.0393349 0.0579383,0.0691168 0.00548029,0.00764499 0.00343195,0.00455309 0.000493088,0.0139069 -0.00678846,0.0216162 0.000511685,0.01657 -0.0133431,0.0297617l-0.00113601 0.00113176c-0.0120222,0.0124202 -0.0157352,0.0278462 -0.00554405,0.0427456 0.00217532,0.00317903 0.00286235,0.00321251 0.00318382,0.00815667 0.00123644,0.0189733 0.00606689,0.0158038 0.00891756,0.0217192 0.00272314,0.00565404 -0.00578262,0.0217283 -0.000174281,0.0353243 0.00397711,0.00963912 0.00221039,0.00381665 0.00141072,0.0177958 -0.000477147,0.0083453 -0.00206959,0.0091556 3.34747e-005,0.01818 -0.0102018,-0.000848026 -0.0213494,-0.00410676 -0.0317632,-0.00452865 -0.006518,-0.000265672 -0.00978524,-0.000921883 -0.0170142,-0.00120562 -0.00297287,-0.000116896 -0.00492981,-0.000425076 -0.00615828,-0.000904348 -0.00609346,-0.00237511 -0.00186449,-0.00395692 -0.00806369,-0.000787453 -0.00847388,0.00433046 -0.0039463,-0.000714127 -0.00847654,0.00399943 -0.00723213,0.00752437 -0.00194791,0.0020749 -0.0090472,0.00682884 0.000141869,0.00641386 0.00194632,0.00487349 0.00211528,0.00919757 0.000196597,0.00500952 -0.00249147,0.0047109 -0.00179116,0.00774754 0.00160732,0.00697655 0.0118564,-0.00411208 0.0121508,0.00914125 0.00599994,0.00049787 0.00151805,0.000782139 0.00665775,-0.0001424l0.0467158 0.00460835c0.00448986,0.000511685 0.00317319,-0.000813489 0.00453821,0.00340114 0.00128851,0.00397393 0.00115993,0.0103251 0.00264716,0.0154993 0.00473481,0.0164791 0.0165726,0.0288361 0.0265465,0.043769l0.0141412 0.0210173c0.0142151,0.0192304 0.0326618,0.0321485 0.0563969,0.0195891 0.00184164,0.00790216 0.00452227,0.00383896 -0.00030818,0.0121338 -0.00644415,0.0110684 -0.00855146,0.0251602 -0.00959608,0.0380825 -0.000605733,0.00749993 0.00247128,0.0219095 0.00422047,0.0280523 0.0030276,0.0106264 0.005984,0.0127725 0.0113474,0.0204079l0.0103357 0.0149032c0.00104994,0.00238839 0.00187246,-0.000534001 0.000467583,0.00273536 -0.00227841,0.00530335 -0.024682,-0.00766039 -0.042226,0.00196013l-0.00863594 0.00724276c-0.00463758,0.00579325 -0.00753765,0.0158118 -0.00407222,0.0252282 0.00229753,0.00624489 0.0016663,0.00133952 0.00473641,0.0122757 0.00550154,0.0195986 0.0298005,0.0140705 0.0312462,0.014239 0.00219233,0.000254514 0.00839312,0.00326192 0.0118612,0.00389954 0.00550526,0.00101274 0.00947972,0.00131295 0.0136242,0.000694999 0.0440076,-0.00654723 0.0320592,-0.0237389 0.0475506,-0.0489262 0.0121641,-0.0197777 -0.000833148,-0.0277505 -0.00230657,-0.0345491 -0.00154196,-0.00711152 0.00160625,-0.00772734 0.00207065,-0.0133197 0.00860831,0.00071519 0.0141683,0.0034649 0.0249259,0.00342877 0.00360517,-1.16896e-005 0.011705,-0.000674808 0.0143065,-0.000520718 0.00289477,0.000171093 0.00204143,-0.00114398 0.00275662,0.00275662 0.00185917,0.0101333 -0.0077757,0.0168086 -0.00770503,0.0272367 5.79166e-005,0.00856899 0.00532088,0.0131997 0.00774382,0.0192113 0.00552439,0.013706 -0.0126837,0.028174 -0.00126301,0.0454863 0.000755572,0.00114398 0.000874593,0.00141072 0.00189265,0.0026445 0.00353929,0.00428742 0.00970767,0.0079165 0.0153043,0.00851267 0.0103262,0.00109829 0.00563544,-0.00146173 0.0192193,0.00459719 0.00237777,0.0010595 0.000999459,0.000352281 0.0022088,0.0011934z"/>
   <path id="_210178808" class="fil0" d="M0.114547 0.187132c0,0.0092895 0.000325714,0.00980809 0.00226778,0.0181454 0.00354885,-0.00559293 0.00107704,-0.0173282 0.00435756,-0.0285321 0.00307861,-0.0105084 0.00858387,-0.0207692 0.0092523,-0.0236374 -0.0095387,0.00504724 -0.0158776,0.0237272 -0.0158776,0.0340241z"/>
   <path id="_210178856" class="fil0" d="M0.196204 0.407153c0.00384853,0.0052534 0.00203877,-6.58867e-005 0.00764233,0.000789047 0.000704563,0.0001068 0.00371569,0.00424491 0.00823531,-0.001924 -0.00267001,0.000623267 -0.00335013,0.00105738 -0.00680493,0.00113495 0.0011748,-0.00439794 0.00153134,-0.00441919 0.00680493,-0.00453715l0 -0.00226778c-0.00902701,0.00210306 -0.00424491,0.00680493 -0.0158776,0.00680493z"/>
   <path id="_210178928" class="fil0" d="M0.197338 0.406018c0.00254355,-0.000591918 0.00260784,-0.00113283 0.00567157,-0.00113283l-0.0034022 -0.00226937c0.00492769,0 0.00240965,0.000633894 0.00453556,-0.00226778 -0.0052821,0.000439422 -0.00572418,0.00103293 -0.00680493,0.00566998z"/>
  </g>
 </g>
</svg>
