<?xml version="1.0" encoding="UTF-8"?>
<!DOCTYPE svg PUBLIC "-//W3C//DTD SVG 1.1//EN" "http://www.w3.org/Graphics/SVG/1.1/DTD/svg11.dtd">
<!-- Creator: CorelDRAW -->
<svg xmlns="http://www.w3.org/2000/svg" xml:space="preserve" width="1in" height="2in" style="shape-rendering:geometricPrecision; text-rendering:geometricPrecision; image-rendering:optimizeQuality; fill-rule:evenodd; clip-rule:evenodd"
viewBox="0 0 0.064698 0.0465927"
 xmlns:xlink="http://www.w3.org/1999/xlink">
 <defs>
  <style type="text/css">
   <![CDATA[
    .fil0 {fill:#1F1A17}
   ]]>
  </style>
 </defs>
 <g id="Layer_x0020_1">
  <metadata id="CorelCorpID_0Corel-Layer"/>
  <path class="fil0" d="M0 0.0465926l0.064698 0 0 -0.0465926 -0.064698 0 0 0.0465926zm0.063605 -0.0454198c3.99137e-005,0.00078183 3.1916e-005,0.00143054 -2.39931e-005,0.0019462l0 0.0407456c0,0.000582261 7.99769e-006,0.00110622 2.39931e-005,0.00155536l-0.0623923 0 -8.77503e-005 -0.000773458 8.77503e-005 -0.0434737 0.0623923 0zm-0.0616422 0.0130579l0.0606767 0 0 -0.0121763 -0.0606767 0 0 0.0121763zm0 0.0304158l0.0606767 0 0 -0.0125755 -0.0606767 0 0 0.0125755zm0.00271264 -0.0398641l0.00170739 0c0.000446824,0 0.000797825,4.15581e-005 0.00105315,0.000116452 0.00024733,8.31161e-005 0.000430829,0.000191272 0.000558567,0.000332689 0.000119592,0.000141342 0.000207342,0.000307724 0.000255253,0.000507292 4.79114e-005,0.00020794 7.18297e-005,0.000515739 7.18297e-005,0.000939915l0 0.000607151c0,0.000424102 -4.78366e-005,0.000740197 -0.000127589,0.000939765 -8.78998e-005,0.00020794 -0.000247405,0.000357654 -0.000470817,0.000465809 -0.000223337,0.000108156 -0.000526577,0.00015801 -0.000901571,0.00015801l-0.000462745 0 0 0.00272803 -0.00168348 0 0 -0.00679512zm0.00168348 0.00116437l0 0.00172997c4.78366e-005,0 8.78251e-005,0 0.000135662,0 0.000159505,0 0.000263251,-4.15581e-005 0.000319085,-0.000116452 5.59091e-005,-8.31161e-005 7.97526e-005,-0.000249498 7.97526e-005,-0.000490699l0 -0.000557222c0,-0.000232905 -3.18413e-005,-0.000382618 -0.000103596,-0.000449066 -7.18297e-005,-7.4969e-005 -0.000215489,-0.000116527 -0.000430903,-0.000116527zm0.0462996 -0.00116437l0.000989246 0.00682001 -0.00175531 0 -9.5748e-005 -0.0012143 -0.000606329 0 -9.56733e-005 0.0012143 -0.00175531 0 0.000869655 -0.00682001 0.00244946 0zm-0.000909643 0.00438311c-7.97526e-005,-0.000781755 -0.000159505,-0.00172989 -0.000255253,-0.00285271 -0.000167578,0.00130572 -0.000279321,0.00225385 -0.000327158,0.00285271l0.000582411 0zm-0.0315551 -0.00435822l0.00119674 0c0.000789902,0 0.00132448,3.33361e-005 0.0015958,9.15623e-005 0.000271249,6.65228e-005 0.000502584,0.00023283 0.00069408,0.000490699 0.000183573,0.000257869 0.000279321,0.000673749 0.000279321,0.00123927 0,0.000540629 -6.39067e-005,0.000889911 -0.000199494,0.00106459 -0.000135736,0.000166307 -0.000375069,0.000274463 -0.000734068,0.000299427 0.000327158,9.97842e-005 0.000542572,0.000224533 0.000662238,0.000365875 0.000119666,0.000149714 0.000191421,0.000282834 0.000223412,0.000407583 3.1916e-005,0.000116452 4.79114e-005,0.000449216 4.79114e-005,0.000981398l0 0.0017799 -0.00156381 0 0 -0.00223733c0,-0.000357654 -3.19907e-005,-0.000582112 -9.5748e-005,-0.000657006 -6.39067e-005,-8.31909e-005 -0.000215489,-0.000124824 -0.000446824,-0.000124824l0 0.00301916 -0.00165956 0 0 -0.0067203zm0.00147606 0.000998141l0 0.00131409c0.000151582,0 0.000263251,-2.49647e-005 0.000335081,-7.48942e-005 7.17549e-005,-4.99295e-005 0.000103746,-0.00020794 0.000103746,-0.000482328l0 -0.000299427c0,-0.000191272 -3.19907e-005,-0.000316095 -0.000103746,-0.000374322 -7.18297e-005,-5.82261e-005 -0.000183498,-8.31161e-005 -0.000335081,-8.31161e-005zm0.006311 -0.00112282l0.00287229 0 0 0.00138898 -0.00114098 0 0 0.00131409 0.00106915 0 0 0.00131409 -0.00106915 0 0 0.00153862 0.00126064 0 0 0.00138898 -0.00299196 0 0 -0.00694476zm0.0108908 0.000124674l0 0.0067203 -0.00147613 0 -0.000885501 -0.00304405 0 0.00304405 -0.0014043 0 0 -0.0067203 0.0014043 0 0.000933412 0.00301916 0 -0.00301916 0.00142822 0zm0.00741206 0l0 0.00133913 -0.00100539 0 0 0.0054311 -0.00170739 0 0 -0.0054311 -0.000981249 0 0 -0.00133913 0.00369403 0zm-0.0312999 -4.98547e-005l0.000981398 0.00682008 -0.00175531 0 -9.5748e-005 -0.0012143 -0.000606404 0 -8.77503e-005 0.0012143 -0.00175531 0 0.000861807 -0.00682008 0.00245731 0zm-0.000909494 0.00438311c-7.98274e-005,-0.00078183 -0.000167578,-0.00172997 -0.000263326,-0.00285278 -0.000167503,0.00130579 -0.000279246,0.002254 -0.000327083,0.00285278l0.000590409 0zm0.0444803 -0.00443304l0 0.00548096 0.00102923 0 0 0.00136402 -0.00273655 0 0 -0.00684497 0.00170732 0zm-0.0523631 0.0131078l-0.000351076 0.00801772 0.000773907 0 -0.000374994 -0.00801772 -4.78366e-005 0zm-0.00149205 -0.00231208l0.00303987 0 0.00111699 0.0155198 -0.00203455 0 -0.000135587 -0.0035349 -0.000909643 0 -0.000143585 0.0035349 -0.0020584 0 0.00112491 -0.0155198zm0.0088562 0.00170493l0 0.0122096 0.000143585 0c0.000215489,0 0.000359074,-4.15581e-005 0.000430903,-0.000124749 7.17549e-005,-8.31909e-005 0.000103671,-0.000299353 0.000103671,-0.000657006l0 -9.97842e-005 0 -0.0105463c0,-0.000357504 -3.1916e-005,-0.000582112 -0.000103671,-0.000657006 -7.18297e-005,-8.31909e-005 -0.000215414,-0.000124749 -0.000430903,-0.000124749l-0.000143585 0zm-0.00203455 -0.00175486l0.00271271 0c0.000829741,0 0.00137231,0.000174604 0.00165163,0.000523886 0.000271249,0.000349357 0.000406836,0.0012143 0.000406836,0.00259499l0 0.00935684c0,0.00138054 -0.000135587,0.00224556 -0.000406836,0.00259484 -0.000279321,0.000349282 -0.000821893,0.000524035 -0.00165163,0.000524035l-0.00271271 0 0 -0.0155946zm0.00783497 -5.00042e-005l0.00198664 0 0.000414908 0.0107208 9.5748e-005 0 0.000558418 -0.0107208 0.00187505 0 -0.00126064 0.0155697 -0.00243339 0 -0.00123673 -0.0155697zm0.00626308 0.0193457l0.00100539 0 0 0.00770162 -0.00100539 0 0 -0.00770162zm0.0117763 -0.0163515l0 0.00237045 -0.00201048 0 0 -0.00314391c0,-0.00018305 -2.39931e-005,-0.000316095 -7.98274e-005,-0.000407508 -5.58343e-005,-8.32656e-005 -0.000143659,-0.000133195 -0.000271249,-0.000133195 -0.000119741,0 -0.000207491,4.17076e-005 -0.000255328,0.000108156 -4.79114e-005,7.48942e-005 -7.17549e-005,0.000216311 -7.17549e-005,0.000432548l0 0.0031688c0,0.000274463 3.18413e-005,0.000457438 9.5748e-005,0.000557222 6.37573e-005,9.97842e-005 0.000207342,0.000216311 0.000422831,0.00036595l0.00123665 0.000781905c0.000343078,0.00020794 0.000582486,0.00046566 0.00072607,0.000765162 0.000143585,0.000299427 0.000207342,0.000740197 0.000207342,0.00133068l0 0.00345993c0,0.00131409 -0.000143585,0.00212918 -0.000438752,0.00244527 -0.000295242,0.000316095 -0.000949408,0.000474031 -0.00196272,0.000474031 -0.000941485,0 -0.00155581,-0.000157936 -0.00185098,-0.000474031 -0.000295242,-0.000316095 -0.000438826,-0.00113119 -0.000438826,-0.00244527l0 -0.00365958 0.00200264 0 0 0.00440807c0,0.000216311 3.18413e-005,0.000357654 8.77503e-005,0.000440919 5.58343e-005,8.31161e-005 0.000135587,0.000124674 0.000239333,0.000124674 0.000127589,0 0.000215414,-4.98547e-005 0.000271249,-0.000133046 5.58343e-005,-9.14128e-005 7.98274e-005,-0.000232905 7.98274e-005,-0.000432548l0 -0.00409197c0,-0.000257869 -2.39931e-005,-0.000432473 -8.77503e-005,-0.000524035 -6.3832e-005,-9.14128e-005 -0.000207491,-0.00020794 -0.000422906,-0.000349282l-0.00123665 -0.00080672c-0.000343078,-0.00020794 -0.000590409,-0.000457438 -0.00072607,-0.000740197 -0.000143585,-0.000282834 -0.000207417,-0.000731975 -0.000207417,-0.00133076l0 -0.00256173c0,-0.00133068 0.000143585,-0.00215414 0.000438826,-0.00247016 0.000295167,-0.000316095 0.000925489,-0.000474031 0.00189089,-0.000474031 0.000989321,0 0.00162757,0.000157936 0.00192281,0.000490699 0.000295167,0.000324317 0.000438752,0.00113933 0.000438752,0.0024535zm0.00491484 0.0178403l0 0.00477402c0,0.000648784 -7.17549e-005,0.00105629 -0.000215414,0.00120601 -0.000135587,0.00015801 -0.000438826,0.00023283 -0.000909569,0.00023283 -0.000494586,0 -0.000821818,-7.48195e-005 -0.000973401,-0.00023283 -0.000143585,-0.000149714 -0.00021534,-0.000557222 -0.00021534,-0.00120601l0 -0.00477402c0,-0.000632116 7.17549e-005,-0.00103133 0.00021534,-0.00119771 0.000151582,-0.000158085 0.000470817,-0.000241201 0.000949482,-0.000241201 0.000486663,0 0.0007979,7.48942e-005 0.000933487,0.00023283 0.000143659,0.000149863 0.000215414,0.000557297 0.000215414,0.00120608zm-0.000981324 -0.00036595c0,-9.9859e-005 -1.59954e-005,-0.000166382 -4.78366e-005,-0.00020794 -3.19907e-005,-4.15581e-005 -7.18297e-005,-5.82261e-005 -0.000119741,-5.82261e-005 -6.3832e-005,0 -0.000103746,1.66681e-005 -0.000127589,5.82261e-005 -2.39931e-005,4.15581e-005 -3.19907e-005,0.000108081 -3.19907e-005,0.00020794l0 0.00550585c0,9.9859e-005 7.99769e-006,0.000166382 3.19907e-005,0.00020794 2.38436e-005,4.16328e-005 6.37573e-005,5.83009e-005 0.000127589,5.83009e-005 4.79114e-005,0 8.77503e-005,-1.66681e-005 0.000119741,-5.83009e-005 3.18413e-005,-4.15581e-005 4.78366e-005,-0.000108081 4.78366e-005,-0.00020794l0 -0.00550585zm0.00930295 -0.0187635l0 0.00541443c3.19907e-005,0 5.58343e-005,0 7.98274e-005,8.29666e-006 2.39183e-005,8.37141e-006 4.78366e-005,8.37141e-006 7.97526e-005,8.37141e-006 0.000175501,0 0.000303239,-4.99295e-005 0.000382917,-0.00015801 8.77503e-005,-9.9859e-005 0.000135662,-0.000249573 0.000135662,-0.000449141l0 -0.00401723c0,-0.000374247 -3.99137e-005,-0.00059878 -0.000111669,-0.000682046 -6.3832e-005,-8.31161e-005 -0.000207417,-0.000124674 -0.000430829,-0.000124674l-0.000135662 0zm-0.0020584 -0.00163018l0.00271264 0c0.000821818,0 0.00137239,0.000174678 0.00164356,0.000524035 0.000271323,0.000349282 0.000406985,0.0012143 0.000406985,0.00259491l0 0.00238697c0,0.000648784 -6.39067e-005,0.00114778 -0.000207491,0.00149714 -0.000143585,0.000349282 -0.000374994,0.00062382 -0.000702152,0.000815091 0.000327158,0.000199568 0.000558567,0.000449066 0.000702152,0.000748494 0.000143585,0.000299427 0.000207491,0.00080672 0.000207491,0.00152203l0 0.00548103 -0.00202663 0 0 -0.00613804c0,-0.000199643 -4.79114e-005,-0.000340985 -0.000135662,-0.000432473 -7.96779e-005,-8.32656e-005 -0.00021534,-0.00013312 -0.000406836,-0.00013312l-0.000135662 0 0 0.00670363 -0.0020584 0 0 -0.0155697zm0.00736415 2.50395e-005l0.00203448 0 0.000582411 0.00594662 0.000462819 -0.00594662 0.00189889 0 -0.00130848 0.00913209 0 0.00631272 -0.00205847 0 0 -0.00631272 -0.00161165 -0.00913209zm-0.0436427 0.0200276l0 0.00319377 7.18297e-005 0c0.000103746,0 0.000175501,-2.49647e-005 0.000207491,-6.65976e-005 3.1916e-005,-3.31867e-005 4.79114e-005,-0.000149639 4.79114e-005,-0.000324392l0 -4.98547e-005 0 -0.00236208c0,-0.0001829 -1.59954e-005,-0.000291056 -4.79114e-005,-0.000332689 -3.19907e-005,-4.15581e-005 -0.000103746,-5.81514e-005 -0.000207491,-5.81514e-005l-7.18297e-005 0zm-0.00100524 -0.000806795l0.00133247 0c0.000406836,0 0.000670161,9.14875e-005 0.000805748,0.000257795 0.000135662,0.000174678 0.000199494,0.000598855 0.000199494,0.00128083l0 0.00172997c0,0.000682046 -6.3832e-005,0.00110622 -0.000199494,0.0012809 -0.000135587,0.000166382 -0.000398913,0.000249498 -0.000805748,0.000249498l-0.000327232 0 0 0.00280293 -0.00100524 0 0 -0.00760191zm0.0402757 7.48195e-005l0.00161165 0 0 0.000806795 -0.000606404 0 0 0.0022623 0.000606404 0 0 0.00080672 -0.000606404 0 0 0.00296923 0.000606404 0 0 0.00080672 -0.00161165 0 0 -0.00765177zm-0.0446 -2.489e-005l0.000981324 0 0.000303165 0.00272803 2.39931e-005 0 0.000279172 -0.00272803 0.000869655 0 -0.000470668 0.00350979 0.000486663 0.00404219 -0.000981398 0 -0.000327083 -0.00341008 -2.39931e-005 0 -0.00030309 0.00341008 -0.000861732 0 0.000470817 -0.00404219 -0.000446824 -0.00350979zm0.00845722 -2.49647e-005l0.00100524 0 0 0.00677838 0.000590483 0 0 0.000798573 -0.00159573 0 0 -0.00757695zm0.0119678 -0.0192708l0.00203448 0 0 0.0154698 -0.00203448 0 0 -0.0154698zm0.0109227 0.0207845l0 0.00116445 -0.00100532 0 0 -0.0015304c0,-9.97842e-005 -1.59206e-005,-0.000166307 -3.99137e-005,-0.00020794 -2.39183e-005,-4.15581e-005 -6.3832e-005,-5.81514e-005 -0.000127589,-5.81514e-005 -6.39067e-005,0 -0.000103746,1.65933e-005 -0.000127739,5.81514e-005 -2.39183e-005,4.16328e-005 -3.1916e-005,0.000108156 -3.1916e-005,0.00020794l0 0.00548096c0,9.9859e-005 7.99769e-006,0.000174753 3.1916e-005,0.000216311 2.39931e-005,4.99295e-005 6.3832e-005,7.48942e-005 0.000127739,7.48942e-005 6.37573e-005,0 0.000103671,-2.49647e-005 0.000127589,-7.48942e-005 2.39931e-005,-4.15581e-005 3.99137e-005,-0.000116452 3.99137e-005,-0.000216311l0 -0.00217074 0.00100532 0 0 0.00180486c0,0.000648784 -7.98274e-005,0.00105629 -0.000223412,0.00120601 -0.000151657,0.00015801 -0.000454822,0.00023283 -0.000925564,0.00023283 -0.000494661,0 -0.000821744,-7.48195e-005 -0.000965403,-0.00023283 -0.000151582,-0.000149714 -0.000223337,-0.000557222 -0.000223337,-0.00120601l0 -0.00474913c0,-0.000648709 7.17549e-005,-0.00105622 0.000223337,-0.00120593 0.000143659,-0.000158085 0.000462745,-0.00023283 0.000941559,-0.00023283 0.000486663,0 0.00079775,7.47447e-005 0.000949408,0.00023283 0.000143585,0.000149714 0.000223412,0.000557222 0.000223412,0.00120593zm-0.0195235 -0.00148869l0.000981398 0 0 0.00755198 -0.000981398 0 0 -0.00755198zm0.0401161 2.489e-005l0.00191489 0 0 0.000806795 -0.000470668 0 0 0.00684497 -0.000981398 0 0 -0.00684497 -0.000462819 0 0 -0.000806795zm-0.0351135 0.00133913l0 0.00117274 -0.000981398 0 0 -0.00156373c0,-9.14875e-005 -7.99769e-006,-0.000166307 -3.1916e-005,-0.00020794 -2.39931e-005,-3.32614e-005 -6.3832e-005,-5.81514e-005 -0.000127664,-5.81514e-005 -6.37573e-005,0 -0.000103671,2.489e-005 -0.000127664,5.81514e-005 -2.38436e-005,4.16328e-005 -3.98389e-005,0.000116452 -3.98389e-005,0.00020794l0 0.005506c0,9.97842e-005 1.59954e-005,0.000166307 3.98389e-005,0.00020794 2.39931e-005,4.15581e-005 6.39067e-005,6.64481e-005 0.000127664,6.64481e-005 6.3832e-005,0 0.000103671,-2.489e-005 0.000127664,-6.64481e-005 2.39183e-005,-4.16328e-005 3.1916e-005,-0.000108156 3.1916e-005,-0.00020794l0 -0.00216251 0.000981398 0 0 0.00180486c0,0.000648709 -6.39067e-005,0.00104792 -0.000207491,0.00120601 -0.000143585,0.000149714 -0.000446824,0.000224608 -0.000909569,0.000224608 -0.000502658,0 -0.000821744,-7.48942e-005 -0.000973326,-0.000224608 -0.000143659,-0.000158085 -0.000223412,-0.000557297 -0.000223412,-0.00120601l0 -0.00475735c0,-0.000648859 7.97526e-005,-0.00105637 0.000223412,-0.0012143 0.000151582,-0.000166382 0.00046267,-0.000249498 0.000949408,-0.000249498 0.00047874,0 0.000789902,8.31161e-005 0.000933487,0.000249498 0.000143585,0.000157936 0.000207491,0.000565444 0.000207491,0.0012143zm0.021534 -0.0177405l0 0.00963131c0,0.00131409 -0.000151582,0.00212918 -0.000446749,0.00244512 -0.000295167,0.000316095 -0.000909569,0.000474106 -0.00185098,0.000474106 -0.00101339,0 -0.00166755,-0.00015801 -0.0019628,-0.000474106 -0.000295167,-0.000315946 -0.000438826,-0.00113104 -0.000438826,-0.00244512l0 -0.00963131c0,-0.00129749 0.000143659,-0.00210421 0.000438826,-0.00243683 0.000295242,-0.000324467 0.000941485,-0.000482477 0.00192281,-0.000482477 0.000965478,0 0.0015958,0.00015801 0.00189097,0.000474106 0.000295167,0.000316021 0.000446749,0.00113104 0.000446749,0.0024452zm-0.00201056 -0.000748568c0,-0.000199568 -3.1916e-005,-0.000332614 -8.77503e-005,-0.00041588 -4.79114e-005,-8.31161e-005 -0.000135662,-0.000124674 -0.000239407,-0.000124674 -0.000127664,0 -0.00021534,4.15581e-005 -0.000271249,0.000124674 -5.58343e-005,8.32656e-005 -7.97526e-005,0.000216311 -7.97526e-005,0.00041588l0 0.0111284c0,0.000199643 2.39183e-005,0.000340985 7.97526e-005,0.000432473 5.59091e-005,8.31909e-005 0.000143585,0.00013312 0.000271249,0.00013312 0.000103746,0 0.000191496,-4.99295e-005 0.000239407,-0.00013312 5.58343e-005,-9.14875e-005 8.77503e-005,-0.00023283 8.77503e-005,-0.000432473l0 -0.0111284zm0.0115689 0.01715l0.000837739 0 0.000630322 0.00367624 7.17549e-005 0 -4.79114e-005 -0.00367624 0.000869655 0 0 0.00752709 -0.000821744 0 -0.000654166 -0.00399234 -7.19044e-005 0 4.79114e-005 0.00399234 -0.000861657 0 0 -0.00752709zm-0.0260659 -2.489e-005l0.00189889 0 0 0.00080672 -0.000470817 0 0 0.00674526 -0.000981249 0 0 -0.00674526 -0.000446824 0 0 -0.00080672zm-0.0250766 -9.97842e-005l0.0015878 0 0 0.00080672 -0.00058256 0 0 0.0022706 0.00058256 0 0 0.000798423 -0.00058256 0 0 0.00297746 0.00058256 0 0 0.000798573 -0.0015878 0 0 -0.00765177zm0.0402039 9.97842e-005l0.000837739 0 0.000630322 0.00370113 7.17549e-005 0 -4.78366e-005 -0.00370113 0.000869655 0 0 0.00755198 -0.000821818 0 -0.000654166 -0.00399234 -7.18297e-005 0 4.78366e-005 0.00399234 -0.000861657 0 0 -0.00755198zm0.00404511 2.489e-005l0.00191481 0 0 0.000806795 -0.000446824 0 0 0.00684497 -0.00100524 0 0 -0.00684497 -0.000462745 0 0 -0.000806795z"/>
 </g>
</svg>
