<?xml version="1.0" encoding="UTF-8"?>
<!DOCTYPE svg PUBLIC "-//W3C//DTD SVG 1.1//EN" "http://www.w3.org/Graphics/SVG/1.1/DTD/svg11.dtd">
<!-- Creator: CorelDRAW -->
<svg xmlns="http://www.w3.org/2000/svg" xml:space="preserve" width="1in" height="2in" style="shape-rendering:geometricPrecision; text-rendering:geometricPrecision; image-rendering:optimizeQuality; fill-rule:evenodd; clip-rule:evenodd"
viewBox="0 0 0.144302 0.173424"
 xmlns:xlink="http://www.w3.org/1999/xlink">
 <defs>
  <style type="text/css">
   <![CDATA[
    .fil0 {fill:black}
   ]]>
  </style>
 </defs>
 <g id="Dummy_x0025_Layer_x0025_Dummy_x0025_Layer">
  <metadata id="CorelCorpID_0Corel-Layer"/>
  <g id="_544716016">
   <path id="_544716760" class="fil0" d="M0.061783 0.0749788c0.00664217,-0.00111692 0.00934245,0.00929046 0.00192933,0.0107954 -0.00326072,0.000662144 -0.00606638,-0.00166232 -0.00640413,-0.00439924 -0.000417284,-0.00338486 0.0017018,-0.00593003 0.0044748,-0.00639618zm0.0376598 -0.00693873c0.000205375,-0.000612149 0.000923195,-0.000984552 0.00139417,-0.00138678 0.00130241,-0.00111238 0.00267783,-0.00300251 0.00372374,-0.0043785 0.000794516,-0.00104506 0.00142172,-0.00207051 0.00216454,-0.00324141 0.000694811,-0.00109505 0.00135355,-0.00223157 0.00197507,-0.00342406 0.00309086,-0.00593117 0.00403734,-0.00943533 0.00581471,-0.0158077 0.00358626,-0.0128571 0.00297695,-0.021945 0.0029761,-0.0346479 -2.8406e-007,-0.00166061 0.000151688,-0.00357291 5.76642e-005,-0.00515199 -0.00048205,-2.21567e-005 -0.000648509,0.000158505 -0.000987392,0.000457621 -0.000317863,0.000280935 -0.000486311,0.000407626 -0.000815252,0.000657031 -0.00167539,0.00127032 -0.00309398,0.00262045 -0.00464324,0.0039544l-0.00153023 0.00141774c-0.00110016,0.00106665 -0.00330901,0.00312438 -0.00418648,0.00429101 -0.000450519,0.00059965 -0.000930864,0.000961827 -0.00138877,0.00155267l-0.00249831 0.00315647c-0.0057613,0.00762388 -0.00954498,0.0157159 -0.0114576,0.0256392 -0.00212875,0.011044 -3.74959e-005,0.0175052 -0.000403933,0.021188 -0.000448247,-0.000159642 -0.000315875,-5.65279e-005 -0.000624648,-0.000480913l-0.0125214 -0.0167044c-0.00139928,-0.002085 -0.00507104,-0.00614223 -0.00687141,-0.00823547l-0.00915582 -0.00963929c-0.000632601,-0.000619819 -0.00126151,-0.00128281 -0.00193189,-0.00187423 -0.000360188,-0.000317579 -0.00069055,-0.000601639 -0.00103,-0.000937114 -0.00159755,-0.00157881 -0.00330788,-0.00294314 -0.00499491,-0.00433902l-0.00203557 -0.00164868c-0.00323771,-0.00280594 -0.00988699,-0.0070586 -0.0135338,-0.00906492 -0.00117544,-0.00064652 -0.0090956,-0.0048685 -0.0100586,-0.0047972 -0.000422681,0.000804174 -0.000137201,-8.74905e-005 -0.000151404,0.000799345 -6.1641e-005,0.0037993 0.00068146,0.00771734 0.00164726,0.0113314 0.000978302,0.0036604 0.00238752,0.00679897 0.00386151,0.00989409 0.00282498,0.00593146 0.00711314,0.0111141 0.0116135,0.0157761 0.000601923,0.000623512 0.00109249,0.00097461 0.00176373,0.00167368 0.00040024,0.000417 0.0013294,0.00125611 0.00182537,0.00162113l0.00281873 0.00233725c0.000413023,0.000310762 0.000597094,0.000449667 0.000967224,0.00074793 0.00571898,0.00460859 0.0153336,0.00960889 0.0220428,0.0122268 0.000730602,0.000284912 0.00449752,0.00157199 0.00476425,0.00200177l-0.00563546 0.00112715c-0.00520653,0.000876041 -0.0106483,0.00285253 -0.0150742,0.00519318 -0.00367119,0.00194155 -0.00612916,0.00397343 -0.00863116,0.00660184 -0.00203955,0.00214295 -0.00271306,0.00336526 -0.00418108,0.00601184 -0.00175379,0.00316187 -0.00292127,0.00867292 -0.00214153,0.0125523 0.000386037,0.00192223 0.00114732,0.0033093 0.00205262,0.00469097 0.000907571,0.00138564 0.00205972,0.00241195 0.00322209,0.00353427 0.000650781,0.000628056 0.00124134,0.000977734 0.00192081,0.00152057 0.00321215,0.0025662 0.00727563,0.00420437 0.0110729,0.00575363 0.000966372,0.000394275 0.00445008,0.00135298 0.0049185,0.00170834 1.56233e-005,0.000348826 -0.00178873,0.00313886 -0.00178759,0.00633084 8.5218e-007,0.00207705 0.00065277,0.00526931 0.00184753,0.00624619 0.000674074,0.000257358 0.0141377,-0.00747021 0.0153745,-0.00762133 0.000130952,0.0016075 -0.00108568,0.00515455 -0.000839965,0.00637118 0.000893937,-5.39714e-006 0.0160335,-0.00508751 0.0171754,-0.00547298 0.0073117,-0.00246763 0.00608826,-0.00110499 0.00690379,-0.00451513 0.00111011,-0.00464182 0.00220374,-0.00945096 0.00283492,-0.0142115 0.000683732,-0.00515824 0.00108795,-0.0107855 0.00034002,-0.0159559 -0.00161346,-0.011155 -0.00716058,-0.0132883 -0.00796192,-0.0148296z"/>
   <path id="_544716088" class="fil0" d="M0.0903668 0.163955c0.000878597,-0.000385469 0.00265823,0.000160778 0.00301927,0.000734011 0.000470687,0.000747362 0.00110187,0.00333799 -0.00197507,0.00338173 -0.00176856,2.49973e-005 -0.0014078,0.000114192 -0.00141661,-0.00250825 -2.27248e-006,-0.000702764 -0.000207364,-0.00135298 0.000372403,-0.0016075zm-0.000218158 -0.0046083c-0.000292866,-0.000444554 -0.000150836,-0.00155949 -0.000154529,-0.0022597 -5.96526e-006,-0.00103653 -0.00026446,-0.00148791 0.000802469,-0.00148791 0.00148024,0 0.00277612,0.000173561 0.00277441,0.00185775 -1.98842e-006,0.00229804 -0.00244235,0.00225515 -0.00342235,0.00188985zm0.00942766 0.000258495c0.00189269,-0.0022793 0.00168021,-0.00865275 -0.00349451,-0.0087979 -0.00318289,-8.94789e-005 -0.00650668,-3.12466e-006 -0.00970718,-3.12466e-006 -0.00497758,0 -0.00513524,-0.000473812 -0.00513495,0.000869507 2.8406e-007,0.000809287 -4.65858e-005,0.00291957 8.49339e-005,0.00346439 0.00239463,0.000349962 0.00200575,-0.000765257 0.00200575,0.00772302 0,0.00669274 0.000223555,0.00520568 -0.00203643,0.00570818 -9.17514e-005,0.000614422 -0.000163619,0.00358569 3.40872e-005,0.00407938 0.000285764,0.000431771 0.00164073,0.000233781 0.00209892,0.000233781 0.00308404,-5.6812e-007 0.0141382,0.000291161 0.0155801,-0.000582323 0.0023523,-0.00142513 0.00368568,-0.00660525 0.000560166,-0.00973417 -0.000852464,-0.000853316 -0.00199779,-0.000928024 -0.00324311,-0.00128566 0.000586584,-0.000388878 0.00213926,-0.000335191 0.0032522,-0.0016751z"/>
   <path id="_544716064" class="fil0" d="M0.112353 0.155415c0.00146404,-0.000362176 0.00240741,0.000627204 0.0027622,0.00166772 0.000527499,0.00154671 0.000441713,0.00673875 0.000172992,0.00840959 -0.000223839,0.00139161 -0.000544543,0.00232247 -0.00173703,0.00267499 -0.00115129,0.00034002 -0.00230117,-0.000192877 -0.0027318,-0.00162227 -0.000346553,-0.00114987 -0.000400809,-0.00278265 -0.000400524,-0.00405268 0,-0.00247104 -0.000333202,-0.00651633 0.00193416,-0.00707735zm-0.0007948 0.0180088l0.00276333 0 0.000554769 -0.000245428c0.00151006,-0.000236906 0.00191712,-0.000258495 0.00359819,-0.00106352 0.00372147,-0.00178191 0.0053551,-0.00684584 0.00509461,-0.0110965 -0.000377516,-0.00615558 -0.00433816,-0.0108218 -0.0106659,-0.0107855 -0.0114746,6.59019e-005 -0.0124824,0.0142291 -0.0082883,0.0194428 0.00148166,0.00184156 0.00254347,0.00249035 0.00488242,0.00322067 0.000439157,0.000137201 0.00186201,0.000272982 0.00206085,0.000527499z"/>
   <path id="_544715608" class="fil0" d="M0.0516322 0.162241c-0.000858997,0.000141178 -0.00182963,8.29455e-005 -0.00273209,8.80586e-005 -0.00101807,5.39714e-006 -0.000840249,-0.000113908 -0.000384901,-0.00158704 0.000221851,-0.000718103 0.000990233,-0.00371266 0.00150353,-0.0040416 0.000197138,0.000154245 0.000222135,0.000193729 0.000357347,0.000646236l0.000552497 0.00203018c0.000176969,0.000706741 0.000707593,0.00216681 0.000703616,0.00286418zm-0.00527272 0.00600588c-0.000110783,-0.00133849 0.00051074,-0.000945635 0.00341355,-0.000946204 0.00342377,-8.5218e-007 0.00355359,-0.000349962 0.00345701,0.00101466 -0.000562155,0.000219294 -0.0010425,0.000184639 -0.00146859,0.000331498 -8.29455e-005,0.000622943 -8.94789e-005,0.00353967 3.2951e-005,0.00414898 0.00192848,0.000157653 0.00848061,0.000232077 0.0100969,-2.86901e-005 0.000169584,-0.00058772 0.000145439,-0.00338883 4.20409e-005,-0.00413904 -0.00117146,-0.000231793 -0.00142286,-0.000199978 -0.0018694,-0.00119788l-0.00412171 -0.0143064c-9.74326e-005,-0.000369278 -0.000477789,-0.00203529 -0.000762417,-0.00221624 -0.000233497,-0.000148563 -0.00819058,-0.00028548 -0.00840334,9.43079e-005 -9.9421e-006,1.78958e-005 -3.72118e-005,5.7096e-005 -4.88583e-005,7.95368e-005l-0.000177537 0.000447394c-6.67541e-005,0.000197422 -0.000106807,0.000311898 -0.00017839,0.000555621l-0.00407086 0.0132554c-0.00136604,0.00420835 -0.00240258,0.00270425 -0.0028815,0.0034073 -0.000127827,0.000466142 -0.000156801,0.00352206 4.09046e-005,0.0038956 0.000338599,0.000332066 -0.000393991,-0.000113624 0.000213897,0.000159926 0.000384617,0.000172992 0.0052392,7.81165e-005 0.00592293,7.86846e-005 0.000424101,2.8406e-007 0.00155466,0.000139189 0.00184184,-0.00023719 0.000203103,-0.0003778 0.000171288,-0.00344167 6.76063e-005,-0.00396945l-0.00114703 -0.000427794z"/>
   <path id="_544715584" class="fil0" d="M0.0117987 0.158807c-0.00034911,0.000897913 -0.0011263,0.00158363 -0.0024432,0.00151461 -0.000773495,-4.06206e-005 -0.000581471,-0.00059539 -0.000595958,-0.00138991 -1.19305e-005,-0.00065561 -9.65804e-006,-0.00131264 -9.08992e-006,-0.00196854 5.6812e-007,-0.00074935 -0.00016021,-0.00133025 0.000601639,-0.00141547 0.00191939,-0.000214749 0.00308915,0.00160636 0.00244661,0.0032593zm-0.00882176 -0.0080031c-0.00321698,-1.47711e-005 -0.00292866,-0.000231793 -0.00292354,0.00124447 9.9421e-006,0.0028548 -0.000294002,0.00307751 0.000834852,0.00315562 0.00157994,0.000109363 0.00120101,0.00150353 0.00119959,0.00298888 -1.13624e-006,0.00139218 0,0.00278407 0,0.00417596 0,0.007383 0.000199978,0.00562723 -0.00198302,0.0062283 -6.02207e-005,0.00078571 -0.000226112,0.00349081 5.14148e-005,0.00405694 0.000279515,0.000273834 6.39135e-005,0.000167879 0.000499945,0.000218158l0.00932739 7.95368e-006c0.000515001,3.12466e-006 0.000599082,5.56757e-005 0.000960691,-0.000113624 0.000514148,-0.000240883 0.000222419,-0.00400098 0.000189752,-0.00404615 -0.000283776,-0.000392855 -0.00186201,0.000128679 -0.0022097,-0.000755031 -0.00021901,-0.000556473 -0.000358768,-0.00220743 8.5218e-007,-0.00258722 0.00028406,-0.000368142 0.00268721,-0.000271561 0.00380583,-0.000349962 0.00847635,-0.000594253 0.00767075,-0.0100211 0.00481055,-0.0121842 -0.00348087,-0.00263267 -0.010506,-0.00202165 -0.0145646,-0.00204012z"/>
   <path id="_544715920" class="fil0" d="M0.0752574 0.160463c0.000555053,-0.00104875 0.00123055,-0.00208983 0.00166914,-0.00324794 0.000353086,-0.000932001 0.000582891,-0.00188161 0.00171118,-0.00199296 0.00115385,-0.000113908 0.000754179,-3.66437e-005 0.000946772,-0.000295422 0.000221283,-0.000279515 0.000199126,-0.00366665 -3.46553e-005,-0.00389702 -0.000297127,-0.000404501 -0.00133735,-0.000226112 -0.00189553,-0.000225828 -0.00673563,3.97684e-006 -0.0063317,-0.000555621 -0.00629477,0.00149359 8.23774e-005,0.00459154 2.13045e-005,0.00212676 0.00101807,0.00307779 0.000467279,0.000446258 -0.00128423,0.0031488 -0.00184724,0.00340162 -0.000460461,-0.000288889 -0.000911264,-0.00106608 -0.00128225,-0.00151262 -0.00176373,-0.00212278 4.20409e-005,-0.00178248 0.000239747,-0.00242814 5.6812e-007,-2.27248e-006 0.000220999,-0.00343343 -0.000106522,-0.00382941 -0.000172992,-0.000182366 0.000146859,-9.60123e-005 -0.000443702,-0.000205091l-0.00835619 -5.6812e-007c-0.00214891,-4.43133e-005 -0.00169442,-0.000308773 -0.001741,0.00284827 -1.44871e-005,0.000986256 -0.000266448,0.00141149 0.000629477,0.00160096 0.000807866,0.000170436 0.000990517,0.000332918 0.00134815,0.000866099 0.00124361,0.00185576 0.00220061,0.00367602 0.00349735,0.00546503l0.0017393 0.00268891c0.000389446,0.000678335 0.000392003,0.00318942 0.000105386,0.00391463 -0.000770371,0.000534885 -0.00122004,0.000217874 -0.00197706,0.000488015 -0.000146007,0.000624932 -0.000169868,0.00347206 2.78379e-005,0.00406547 0.000798492,0.000322692 0.00658451,0.000143734 0.00828489,0.000143734 0.000492844,0 0.000985688,-1.4203e-006 0.00147882,3.40872e-006 0.000497389,4.82902e-006 0.000609593,4.65858e-005 0.000976314,-0.00010567 0.000509319,-0.000211057 0.000292298,-0.00352859 0.000204239,-0.00410978 -0.000801617,-0.000267869 -0.00122259,0.000103114 -0.00198217,-0.000482902 -0.000193161,-0.000711854 -0.000101978,-0.00170152 -9.54441e-005,-0.00250172 9.37398e-006,-0.00115158 -5.2267e-005,-0.00113936 0.000458473,-0.00202847 0.000603059,-0.00104989 0.0011459,-0.00210659 0.0017214,-0.00319397z"/>
   <path id="_544715656" class="fil0" d="M0.142199 0.155801c0.000668961,-0.000831727 0.00172197,-0.000487163 0.00194979,-0.000758724 0.000205659,-0.000571813 0.000211341,-0.00359307 -2.15886e-005,-0.00412796 -0.0006451,-0.000312182 -0.00313687,-0.000110783 -0.00407796,-0.000110783l-0.00355643 1.13624e-006c-0.000795368,0.000162482 -0.000467279,0.000997618 -0.000472108,0.00272129 -6.53338e-006,0.00240712 0.000107659,0.00131605 0.000884279,0.00180151 0.000812695,0.000507899 -0.0015558,0.00330362 -0.00164584,0.00334878 -0.000503354,-0.000184923 -0.00100841,-0.000896493 -0.00132542,-0.0013686 -0.000320988,-0.000478925 -0.000943647,-0.00101381 -0.000734295,-0.00190689 0.00126236,-0.000622091 0.000985688,8.15252e-005 0.000979439,-0.0018748l-5.08467e-005 -0.002429c-5.39714e-006,-2.69857e-005 -2.75538e-005,-4.71539e-005 -3.20988e-005,-0.000101693 -4.54496e-006,-5.36873e-005 -2.01683e-005,-6.76063e-005 -3.55075e-005,-9.91369e-005 -0.000728046,-0.000245144 -0.00814741,-8.83426e-005 -0.00961628,-0.000102262 -0.00126293,-1.22146e-005 -0.00105841,0.000232077 -0.00104875,0.00137883 3.72118e-005,0.00450036 -4.14727e-005,0.00230429 0.00142882,0.00331015 0.000383481,0.000262471 0.00341298,0.00486027 0.00389418,0.00568745 0.000306217,0.000526647 0.000539714,0.000917514 0.000899618,0.00143706 0.000923763,0.00133366 0.0013169,0.00141121 0.00131008,0.00344621 -2.27248e-006,0.00067379 0.00018748,0.00175464 -0.000253666,0.00216993 -0.000456484,0.000429499 -0.00136832,0.000223839 -0.00185832,0.000476368 -0.000161914,0.000506763 -0.000148279,0.00351666 1.22146e-005,0.00403024 0.00060874,0.000309625 0.00673819,0.000157085 0.00827296,0.000150836 0.000494832,-1.98842e-006 0.000985688,-2.8406e-006 0.00148024,2.55654e-006 0.000803321,8.80586e-006 0.000827751,3.66437e-005 0.00107204,-0.000266448 0.000247416,-0.000321272 0.000221567,-0.00345644 4.97105e-005,-0.00385299 -0.000230657,-0.00032184 -0.00081582,-0.000178958 -0.00122941,-0.000260199 -0.00113397,-0.000221851 -0.000858713,-0.00160039 -0.000847067,-0.00331441 9.65804e-006,-0.00141717 0.00278634,-0.00547213 0.00370727,-0.00742874 0.000298547,-0.00063459 0.000402797,-0.00138508 0.000864962,-0.00195973z"/>
   <path id="_544715632" class="fil0" d="M0.0377933 0.17278c0.000255654,-0.000186343 0.000269857,-0.000169868 0.000329794,-0.000814968 3.03944e-005,-0.000327237 4.77221e-005,-0.000646236 5.05627e-005,-0.000992789 6.24932e-006,-0.000697935 -7.66962e-006,-0.00139445 5.6812e-006,-0.00209295 1.16465e-005,-0.000599082 0.000170152,-0.00372687 -0.000126975,-0.00400439 -0.000359336,-0.000295422 -0.00256932,-0.00031275 -0.00294513,4.54496e-006 -0.000319851,0.000273834 -0.000183219,0.000339168 -0.000286332,0.000825762 -0.000196001,0.000922343 -0.000456768,0.00179469 -0.00139133,0.00194751 -0.000718388,0.000117601 -0.00348059,0.000209636 -0.00404558,-1.36349e-005 -0.000257074,-0.000226964 -0.000125839,-0.00936404 -0.000129247,-0.0109235 -4.54496e-006,-0.0020671 0.00081724,-0.00106863 0.00203728,-0.00165067 0.00022526,-0.000537725 0.000240883,-0.00366579 -4.88583e-005,-0.00414046 -0.000653054,-0.000352518 -0.00682028,-0.000120725 -0.00812298,-0.000120441 -0.00298575,2.8406e-007 -0.00270482,-0.000359336 -0.00269346,0.0014933 2.07364e-005,0.00335617 -0.000251393,0.00279401 0.00109789,0.00291644 0.00137485,0.000124986 0.000962111,0.00193303 0.000962111,0.0032255l0 0.00810735c-3.40872e-006,0.00119192 0.000127259,0.00188531 -0.00109022,0.00195945 -0.00125526,7.64121e-005 -0.000968644,-1.70436e-006 -0.000968928,0.00221567 -5.6812e-007,0.00262244 -0.000604764,0.00216056 0.00441202,0.00216056 0.00186116,0 0.0126483,0.000120725 0.0129537,-0.000102262z"/>
   <path id="_544716184" class="fil0" d="M0.0753205 0.138147c0.000218158,-0.000346269 0.00244348,-0.0162139 0.00231992,-0.0170231 -0.000595958,5.96526e-006 -0.0048668,0.00233014 -0.00577579,0.00278492 -0.00612405,0.00306245 -0.00519688,0.00340986 -0.00704923,0.00204978 -0.000459609,-0.000337179 -0.000830307,-0.000472108 -0.00129815,-0.000796788l-0.00518097 -0.0034144c-0.000520966,-0.000363029 -0.00202563,-0.00155381 -0.00262301,-0.00146887 -0.000166459,0.00279969 -3.89162e-005,0.00772387 -4.14727e-005,0.0108934 -3.12466e-006,0.00421943 -0.000538578,0.00393963 0.00287554,0.00251166l0.00546077 -0.00227589c0.00192564,-0.000774063 0.00143081,-0.00108852 0.00482987,0.0017072 0.00089905,0.000739692 0.00584823,0.00503723 0.00648253,0.00503212z"/>
   <path id="_544716160" class="fil0" d="M0.103365 0.123598c0.000215317,-0.000524375 0.00046387,-0.00336583 0.00032468,-0.0039615 -0.000858713,-0.000132372 -0.012047,0.00332435 -0.0139868,0.00380441 -0.00114732,0.00028406 -0.00223868,0.000680608 -0.003434,0.00099421 -0.00106949,0.000280651 -0.00241678,0.00062408 -0.00345161,0.000969212 -0.000569256,0.000189752 -0.00113425,0.000330362 -0.00171771,0.000495401 -0.000618683,0.000174981 -0.00125839,0.000198274 -0.00147512,0.000729182 -0.000182366,0.000445974 -0.000544543,0.00335248 -0.000543123,0.0039669 0.000832864,1.98842e-005 0.0159761,-0.00460972 0.0182937,-0.00524687l0.00598997 -0.00175095z"/>
  </g>
 </g>
</svg>
