<?xml version="1.0" encoding="UTF-8"?>
<!DOCTYPE svg PUBLIC "-//W3C//DTD SVG 1.1//EN" "http://www.w3.org/Graphics/SVG/1.1/DTD/svg11.dtd">
<!-- Creator: CorelDRAW -->
<svg xmlns="http://www.w3.org/2000/svg" xml:space="preserve" width="1in" height="2in" style="shape-rendering:geometricPrecision; text-rendering:geometricPrecision; image-rendering:optimizeQuality; fill-rule:evenodd; clip-rule:evenodd"
viewBox="0 0 0.118972 0.201651"
 xmlns:xlink="http://www.w3.org/1999/xlink">
 <defs>
  <style type="text/css">
   <![CDATA[
    .fil0 {fill:#1F1A17}
   ]]>
  </style>
 </defs>
 <g id="Dummy_x0025_Layer_x0025_Dummy_x0025_Layer">
  <metadata id="CorelCorpID_0Corel-Layer"/>
  <path class="fil0" d="M0.118168 0c-0.0270672,0.0229103 -0.0388048,0.053405 -0.0352128,0.0915464l-0.00248894 -0.00391664 -0.00107483 -0.00118125c-0.000282733,-0.000807905 -0.000650287,-0.00130547 -0.00107483,-0.00155392l-0.00690114 -0.00994754c-0.0172245,-0.028412 -0.038041,-0.0493325 -0.0624778,-0.0627303l-0.00280017 -0.00192748 -0.00613776 -0.00354352 0 0.00310829 0.000339503 0.00118147c0,0.00211382 0.000254683,0.00385452 0.000735329,0.00519139l0 0.00118125 0.000339503 0.00236227c0.000282956,0.00158553 0.00050892,0.00248694 0.000735329,0.00273561l0 0.00118102 0.00214944 0.00864207c0.0129258,0.0310853 0.0344779,0.0508246 0.0646562,0.0592173 -0.0242107,0.00155437 -0.0402474,0.0129007 -0.0481669,0.0339454 -0.00330909,0.0187136 0.00675978,0.0308371 0.0301786,0.036339 -0.00260204,0.00578179 -0.00282845,0.0113151 -0.000678783,0.0165996 0.000452373,0.000777183 0.00093302,0.0012743 0.00141411,0.0015232l0.00506271 -0.00317062 0.0032245 -0.00192748c0.000735107,-0.000310561 0.00118793,-0.000559456 0.00141389,-0.000808128l0.00893794 -0.00509811 0.00149871 0.000714848c-0.000282956,0.0039478 -0.000424323,0.00727426 -0.000424323,0.00994754l0.00110311 0 0.0133216 -0.00556428 0.00282822 -0.00118147 0.00257376 -0.00155392 0.00387501 -0.0019896c0.00339391,-0.00158553 0.00602423,-0.00329529 0.00797598,-0.00512905 0.00933332,-0.0249927 0.00704251,-0.0466904 -0.00690114,-0.0650928l0 -0.00164765c0.0141418,-0.0175943 0.0213257,-0.0369294 0.0215521,-0.0580055l0.000423877 -0.0011808 0.000339503 -0.00547145 0 -0.00711843c0.000480647,-0.00186493 0.000594185,-0.00360585 0.000311007,-0.00519139l0 -0.0113772c0.000283179,-0.00369891 0.00016964,-0.00674531 -0.000311007,-0.00910802l-0.000339503 0zm-0.0736783 0.108115c0.00288499,0 0.00528912,0.000932575 0.00721237,0.00282867 0.00214944,0.00416553 0.00169707,0.00786489 -0.00141411,0.0110043 -0.00480825,0.00236249 -0.00837203,0.00105658 -0.0107479,-0.00391664 0,-0.00472499 0.00164052,-0.00805145 0.00494962,-0.00991637zm0.0538801 0.0686677l-0.00141433 0.000435009 -0.00183821 0.000372896 -0.00322427 0.00118125 -0.00605272 0.00202099c-0.00144261,0.000776738 -0.0027434,0.00130547 -0.0039596,0.0015232l-0.0104651 0.00391664c-0.000933243,0.00292173 -0.0004241,0.00450726 0.00149938,0.00475593l0.00356355 -0.00118125 0.00183821 -0.000746015 0.00644877 -0.0019896 0.00141433 -0.000373119 0.00141389 -0.000465954 0.0125861 -0.00391664c0.0012162,-0.00180326 0.00169729,-0.00379241 0.00141433,-0.00590646l-0.00175361 0 -0.00147066 0.000373119zm-0.0614035 0.00472499l0.000396049 0.00236227 0.00107483 0.00674575 0.000339503 0.00236227 0.00033928 0.00357469 0.00214944 -0.000839073c0.00387501,-0.00285984 0.00772129,-0.00466287 0.0115113,-0.005471 0.00166902,0.0010568 0.00345068,0.00245577 0.00540221,0.00428976l0.00214966 0.00164742 0.000735107 0.000715293c0.00166902,0.00214454 0.00322472,0.00369891 0.00463861,0.00475593 0.00050892,-0.00158531 0.000763825,-0.002891 0.000763825,-0.00391686l-0.000424545 -0.00556406 -0.00033928 -0.00118147 -0.000735107 -0.0137709 -0.00107483 0.000372896 -0.00356378 0.00236272c-0.00336586,0.00158553 -0.00599617,0.00317062 -0.00786288,0.00475615l-0.00149893 -0.000373119 -0.00429911 -0.00236272 -0.00217794 -0.000839073 -0.00752338 -0.00391686 0 0.00428998z"/>
 </g>
</svg>
