<?xml version="1.0" encoding="UTF-8"?>
<!DOCTYPE svg PUBLIC "-//W3C//DTD SVG 1.1//EN" "http://www.w3.org/Graphics/SVG/1.1/DTD/svg11.dtd">
<!-- Creator: CorelDRAW -->
<svg xmlns="http://www.w3.org/2000/svg" xml:space="preserve" width="5548in" height="7180in" style="shape-rendering:geometricPrecision; text-rendering:geometricPrecision; image-rendering:optimizeQuality; fill-rule:evenodd; clip-rule:evenodd"
viewBox="0 0 2064.16 2515.48"
 xmlns:xlink="http://www.w3.org/1999/xlink">
 <defs>
  <style type="text/css">
   <![CDATA[
    .fil0 {fill:#28166F}
   ]]>
  </style>
 </defs>
 <g id="Layer_x0020_1">
  <metadata id="CorelCorpID_0Corel-Layer"/>
  <path class="fil0" d="M1480.5 291.875c21.0845,85.5263 -17.3212,126.982 -59.401,185.938 8.68534,11.5276 199.485,148.037 196.306,5.06067l-104.373 -21.1637 42.3472 -109.057c176.965,-2.23818 36.3457,-55.2316 35.7911,-99.2129 -0.594208,-47.9031 22.7978,-2.53529 27.7,-96.9351l102.313 40.9112 -6.98194 17.4301 20.3912 -2.92152 28.5319 -46.982 5.07057 -12.7359 -203.902 -71.2653c19.6782,79.812 -18.6482,175.42 -83.7932,210.934zm-1094.38 2223.61l-94.9346 -41.8619 -41.4262 -190.236 -26.0065 160.496 -119.446 -52.6666 -58.8365 -365.26 94.0829 -0.524884 46.2294 235.158 19.7574 -236.594 78.9207 -1.7232 44.9221 261.026 36.6923 -261.343 91.7754 -0.316911 -61.6194 432.029 0.792277 61.7184 -10.9037 0.0990346zm92.538 -2334.4c31.4237,-0.396139 50.4185,80.3369 50.9533,122.813l-48.7349 14.469 -51.4584 -124.308c3.94158,-1.58455 46.1204,-12.924 49.24,-12.9636l0 -0.00990346zm-148.334 -10.468c23.9565,31.8396 100.144,107.284 100.966,171.558 0.356525,28.2744 -4.001,14.4095 -11.7257,49.5371 35.2662,18.0738 87.6754,96.1329 88.0022,122.337 0.425849,33.3351 -5.46671,34.1075 -11.5276,61.9759l98.4503 -26.0461 -0.475366 -37.0291 -15.4296 8.67543 -60.223 -131.171c83.8526,0.812084 79.297,48.7647 112.543,109.691l79.9705 -5.16961 -108.255 -150.137 -10.6264 7.65538c-2.8621,-226.562 -91.409,-266.195 -261.669,-181.877zm493.688 -18.6581c-5.06067,-61.243 -45.2588,-78.9999 36.0684,-86.794l26.8879 172.479c-81.2183,-0.77247 -56.9845,-13.2508 -62.9563,-85.6848zm-74.9197 -73.048l2.33722 185.135c18.2521,26.5215 37.5737,40.6339 38.1382,85.9522l0.792277 61.6986c0.425849,33.3351 -5.47662,34.1174 -9.78462,67.3634l84.3478 -31.2553c-1.7034,-48.7151 -44.625,-147.581 -1.88166,-148.126 71.5921,-0.911119 32.1367,147.74 88.3191,147.037 28.2843,-0.366428 14.3105,-4.36743 51.0127,-14.4789l-27.8584 -35.1771 -12.9537 -170.389 -27.5415 -174.786c-25.6599,-16.717 -32.5329,-36.6329 -62.2235,-36.2566l-61.7382 0.77247c-28.0664,0.356525 -62.5206,34.3254 -60.9657,62.5107zm409.716 167.646c10.0025,6.52638 38.98,20.9557 40.3566,36.831l-12.7061 158.832 51.2504 13.5776 22.4413 -159.04 47.0018 -39.7327c-41.0003,-82.7038 70.8692,-185.918 83.4763,-235.613l-49.3886 0.623918c-36.2962,0.455559 -77.0291,114.831 -84.5855,149.215l-27.6505 0.851698 -23.6594 -161.288 -74.3651 -10.8146c24.4616,87.101 74.3651,155.881 27.8287,246.557zm-741.433 459.976l-28.7993 -45.4866 -8.72495 8.93292 37.5242 36.5537zm-269.642 -323.744c51.7654,-0.653629 82.9613,69.8293 87.9923,122.357 -86.4671,-0.851698 -170.508,-121.298 -88.0022,-122.347l0.00990346 -0.00990346zm-147.72 38.9107c65.9274,4.64472 147.77,96.737 150.364,170.934 57.9353,12.726 122.892,75.7516 131.211,153.682l87.9725 -72.1467 -8.30901 -10.1312c-63.2732,-0.614015 -97.9948,-46.675 -100.203,-109.839 21.0052,-5.88266 49.2202,-14.9641 48.933,-37.653 -1.05967,-83.7734 -84.1101,-196.455 -163.041,-195.455l-12.3298 0.148552c-61.1539,0.77247 -109.928,62.5998 -134.608,100.461l0.00990346 0zm1889.9 13.1419c-0.237683,-17.6183 69.8788,-76.8608 85.3382,-87.4971l26.9473 35.2068c-18.4303,77.2569 -14.5383,68.4428 -74.6226,101.194 -19.3811,-12.6269 -37.2568,-15.8951 -37.6728,-48.9033l0.00990346 0zm-98.9554 -11.0919c1.29735,102.947 -54.2809,128.745 -126.22,168.299l91.9834 54.3403c0.643725,-66.9573 37.3856,-106.581 97.3808,-112.335 -6.67494,94.6672 -60.5399,96.1032 -59.8763,148.908 0.307007,22.6789 28.73,31.0474 49.8639,36.3952 1.95098,-27.5415 69.8788,-166.982 91.9834,-178.559 54.5879,-28.5814 126.893,-94.3503 126.091,-157.515l-0.148552 -12.3397c-0.584304,-46.3977 -86.4572,-105.799 -137.252,-109.384 0.950733,75.2168 -73.7214,147.393 -133.806,162.189zm-1268.54 287.626c20.8864,27.7495 51.4683,61.0846 99.5793,60.4805 148.394,-1.88166 384.631,-177.708 405.339,-177.965l12.3595 -0.158455c11.1315,-0.138649 260.62,169.537 409.696,167.656 48.111,-0.604111 77.8412,-34.7116 98.0146,-62.9563 -320.684,4.04061 -338.154,-109.354 -521.318,-203.288 -131.013,116.762 -254.271,213.093 -503.67,216.242l0 -0.00990346zm124.902 109.532c21.3519,31.0077 149.869,170.944 187.423,170.468l148.195 -1.88166 -2.04011 -160.456 111.156 -1.40629 2.02031 160.466 148.195 -1.88166c36.9003,-0.465463 161.595,-139.084 170.696,-174.984 -180.005,-12.6962 -337.867,-143.878 -397.04,-143.125 -4.88241,0.0495173 -225.314,147.799 -368.607,152.81l0 -0.00990346zm707.345 262.66l-0.316911 -24.6893 -26.8879 22.5601 27.2048 2.12924zm-193.375 335.767l24.6992 -0.316911 -2.12924 27.1751 -22.57 -26.8582zm-256.52 30.3937l-2.82249 -27.1157 27.2147 2.11934 -24.3922 24.9963zm256.52 -30.3937l-25.0062 -24.3823 24.6893 -0.316911 0.316911 24.6992zm-77.6432 -70.4532l46.2195 27.6307 -8.70515 8.93292 -37.5143 -36.5636zm50.2898 -139.084l-33.8897 40.1189 -8.93292 -8.70515 42.8226 -31.4138zm-197.742 -9.83414l43.6149 30.3046 -8.71505 8.93292 -34.8998 -39.2375zm197.742 9.83414l-0.307007 -24.6794 24.6992 -0.307007 -10.1213 14.5284 -14.2709 10.4581zm24.3922 -24.9864l-0.316911 -24.6992 24.6992 -0.307007 -10.1114 14.5383 -14.2709 10.468zm-222.135 15.1523l-37.5143 -36.5636 37.5143 36.5636zm246.517 -40.1585l30.3244 -43.5951 8.93292 8.70515 -39.2573 34.8899zm-284.031 3.59496l-37.5242 -36.5636 37.5242 36.5636zm-37.5242 -36.5636l-40.1189 -33.8798 8.70515 -8.92302 31.4138 42.8028zm406.904 -54.5285l-21.8768 27.4425 -2.81258 -27.1157 24.6893 -0.326814zm0 0l-0.307007 -24.6794 24.6992 -0.316911 -24.3922 24.9963zm-484.369 -16.0931l27.1355 -2.80268 -2.12924 27.1751 -25.0062 -24.3724zm-37.5143 -36.5636l27.1454 -2.80268 -2.13915 27.185 -25.0062 -24.3823zm607.241 -34.8404l-33.9095 40.1189 -8.93292 -8.70515 42.8424 -31.4138zm-644.755 -1.7232l27.1355 -2.80268 -2.11934 27.185 -25.0162 -24.3823zm644.755 1.7232l-0.316911 -24.6794 24.7091 -0.316911 -24.3922 24.9963zm-682.279 -38.2868l27.1454 -2.79278 -2.12924 27.1751 -25.0162 -24.3823zm730.737 -36.3853l24.6992 -0.316911 -24.3922 24.9963 -0.307007 -24.6794zm-765.815 -2.67394l24.7091 -0.307007 0.307007 24.6794 -25.0162 -24.3724zm827.405 -10.4581l-24.6992 0.307007 21.8867 -27.4326 2.81258 27.1256zm-827.405 10.4581c-20.52,36.316 282.546,336.431 350.305,353.593l0.465463 37.0192 -162.417 158.762 66.1254 11.2899 7.50683 11.6267 -6.09063 6.24909 15.2414 13.2805 -28.522 46.982 37.346 11.9634 4.50608 -98.6682 108.879 -107.562 32.1565 -5.48652 110.434 111.969 -17.2716 27.5911 25.343 67.0266c29.5618,-23.9169 1.03986,-128.468 92.9935,-85.7937l-173.004 -172.796 363.408 -397.505 152.622 -181.729c-81.0202,-39.1187 -514.128,507.285 -580.799,508.127 -35.9892,0.445656 -250.29,-225.977 -290.479,-264.868 -95.2911,-92.231 -175.727,-207.388 -296.322,-233.87 23.8079,34.5829 147.255,206.616 162.565,158.426l25.0062 24.3724zm305.136 199.842l37.5242 36.5636 12.1912 -12.5081 -49.7154 -24.0555zm207.448 -4.02081l-53.1618 -4.10003 4.80318 42.4661 48.3586 -38.366zm-659.472 189.295c32.1466,40.9706 36.2863,110.107 79.0395,109.562 52.0724,-0.653629 -21.5598,-191.196 -35.1672,-239.02 -31.7604,-111.622 -31.3841,-140.174 -33.137,-278.614l-67.3832 -79.9705 -17.5291 45.6154 74.1769 442.427zm1054.63 97.2223c84.328,-181.511 94.1621,-367.716 91.3,-593.723l-49.9729 61.3718c2.47587,89.6462 -18.569,192.266 -29.4034,263.591 -8.42785,55.5188 -61.966,218.569 -61.9462,220.015 0.475366,37.5044 21.9461,41.6342 50.0224,48.7449zm-506.632 -18.2818l0.316911 24.6794 24.6893 -0.307007 -25.0062 -24.3724zm60.2428 75.7714l2.12924 -27.185 -27.1355 2.82249 25.0062 24.3625zm-392.573 14.8453c101.164,-1.27755 192.612,-89.4877 232.751,-151.077l-374.985 -353.276c3.51573,279 100.758,336.094 142.224,504.364l0.00990346 -0.00990346zm649.826 -378.57l-214.044 230.493c84.3775,57.0142 112.771,141.144 243.417,139.49 14.261,-64.838 66.8484,-139.817 91.102,-228.186 25.4717,-92.8648 39.7723,-166.646 38.3363,-279.605l-158.812 137.807zm-719.883 322.18l-16.3605 -15.6376 -73.1569 74.9989 11.5375 11.2503c49.0023,12.4189 124.269,59.9457 125.051,121.872l0.158455 12.3496c0.158455,13.0924 -232.593,201.308 -206.665,261.858l-49.3886 0.614015 36.8904 13.6272 0.623918 22.9364 -26.4621 7.13049 -34.9592 -19.2127 24.7488 74.4443 42.3868 -45.8332 44.526 5.36768 29.6312 -40.6339 6.11044 -19.3712 -38.4353 -5.09038 105.462 -77.9403 6.43725 32.7111 46.3581 -29.5519 2.24809 -32.7904 -29.8788 -19.3811 84.2488 -73.355 18.4204 17.9748 62.1244 -1.02006 93.2312 118.346 6.31841 15.2513 73.1569 -74.9989 -20.2229 -16.2813 -25.5014 43.9219c-4.66453,-66.3037 -81.3669,-139.619 -139.639,-110.76l-23.7683 -74.484 82.8326 52.5181 21.5598 -44.1001 13.9639 -6.77397 -104.254 -92.7558c-16.0535,13.0825 -34.0778,30.3541 -41.4559,30.4432 -60.0744,0.752663 -58.4899,-67.4624 -137.46,-85.1698l29.5816 -32.4735zm122.427 290.29c35.4148,65.3827 27.0464,45.9323 87.5268,85.3183 -11.9832,-42.674 -44.5755,-74.4344 -87.5367,-85.3183l0.00990346 0zm583.324 -4.49617c-45.6055,9.12109 -77.3857,41.7134 -85.358,87.507l85.358 -87.507zm-424.512 -133.311l-31.7505 100.639c20.1734,14.3402 138.678,107.888 157.891,107.641l12.3496 -0.168359c9.82424,-0.118842 138.134,-98.6583 159.139,-113.107l-99.7873 -179.173 -13.538 7.76432 2.17876 172.806 -111.137 1.40629 -2.18867 -172.806 -11.1711 -7.85345 -61.9858 82.8524zm384.076 93.9046c-38.7721,-27.6406 -21.7876,-49.2499 11.4088,-74.2166l-11.4088 74.2166zm157.257 -261.243c20.1238,46.5661 -61.144,122.605 -134.281,125.16l-19.9258 -40.1189 -94.5979 111.889c22.6294,8.32881 41.3866,5.4271 41.6837,27.908 1.03986,81.7036 -79.2178,58.678 -84.734,136.876l-32.9587 -29.0469 -15.6574 16.3605 75.0385 73.1272 11.2602 -11.5474c25.343,-99.9161 86.071,-114.118 183.511,-138.114l77.663 83.0108 -51.8743 3.07998 -6.97204 10.26 59.3911 40.3863 16.4298 -23.5306 102.055 73.9096 -33.2855 10.0916 -0.0594208 22.9463 73.7016 14.3798 45.5658 62.065 12.3199 -6.90271 -31.5425 -76.2567 -15.489 0.435752 40.525 -14.7859c-50.1908,-8.78437 -90.3196,-83.9517 -130.359,-136.064 -44.6349,-58.1036 -133.717,-90.1413 -134.311,-137.391 -0.633822,-50.6265 81.7036,-113.712 121.931,-125.002l11.2503 -11.5474 -86.279 -61.5797zm-537.59 463.571l123.645 61.352 133.112 -69.1757 -35.9793 -56.1328 -65.5708 41.6243 2.13915 16.7567 -132.647 -45.9224 -0.307007 26.5116 -24.6992 0.307007 0.307007 24.6794zm-340.927 387.027l12.3397 -0.158455 16.4893 110.493c-2.45606,2.19857 -14.4393,24.8676 -14.776,25.2835 -19.5296,-13.9342 -24.729,-1.96089 -25.1647,-36.7121l-0.148552 -12.3496c-0.74276,-58.7771 11.8544,-38.9404 11.2503,-86.5563l0.00990346 0zm-21.6094 210.251l61.3024 -0.881408 15.8951 60.9954 96.0339 -0.693243 -93.5283 -492.479 -110.315 1.24784 -81.3074 494.648 97.3808 -1.67369 14.5383 -61.1638zm291.875 -324.774c-0.356525,-28.4527 8.12084,-37.1479 36.5834,-37.5044 28.4626,-0.356525 37.1479,8.13074 37.5143,36.5636l1.40629 111.087c0.356525,28.4427 -8.13074,37.138 -36.5834,37.5044 -28.4527,0.356525 -37.1578,-8.12084 -37.5143,-36.5636l-1.40629 -111.087zm126.457 232.949c-0.277297,-21.9659 18.262,-20.4804 36.7419,-25.1449l-3.75341 -296.252c-22.471,-14.6274 -22.0253,-24.4021 -49.7055,-24.0456l-209.934 2.64423 6.08073 481.388 98.8069 -1.24784 -1.88166 -148.116 24.6992 -0.326814c11.8247,48.012 20.7874,160.238 76.118,159.545l61.7481 -0.792277c-4.38723,-45.7243 -38.7721,-135.984 -38.9206,-147.641l0 -0.00990346zm181.808 -273.89c39.5841,0.376332 61.6887,-4.79328 62.2136,36.2467l1.39639 111.087c0.534787,41.0499 -21.7084,36.4348 -61.2727,37.8213l-2.33722 -185.155zm114.583 270.147c14.4591,-14.5086 36.8904,-11.8743 36.415,-49.8342l-3.26814 -259.223c-0.366428,-28.4328 -9.08148,-36.9102 -37.5242,-36.5438l-209.944 2.64423 6.24909 493.727 61.7481 -0.77247c56.6379,-0.722953 35.9397,-87.9527 35.1672,-148.592l64.8083 146.898 97.6085 -0.802181 -51.2603 -147.502zm88.1606 134.677l98.797 -1.24784 -6.09063 -481.388 -98.797 1.25774 6.09063 481.378zm241.833 -410.449c39.5742,0.376332 61.6887,-4.79328 62.2037,36.2566l3.27805 259.213c0.51498,41.0499 -21.7183,36.4249 -61.2826,37.8114l-4.19907 -333.281zm-94.4295 346.859c0.48527,37.9006 12.3694,73.9294 50.3294,73.4441l148.195 -1.87175c28.9082,-0.366428 49.141,-21.1043 48.7647,-50.0026l-5.1399 -407.329c-0.356525,-28.4328 -9.07157,-36.9201 -37.5242,-36.5636l-172.885 2.18867c-28.4427,0.366428 -36.9399,9.06167 -36.5834,37.5044l4.84279 382.63zm390.811 -350.602c39.5742,0.386235 61.6887,-4.80318 62.2037,36.2566l1.40629 111.077c0.366428,28.4427 -8.12084,37.1479 -36.5735,37.5044 -17.3014,0.217876 -24.9171,-16.5091 -25.1746,-36.7121l-1.86185 -148.126zm126.923 269.988c-0.297104,-23.6099 24.5804,-8.71505 24.0654,-49.6758l-3.26814 -259.213c-0.356525,-28.4527 -9.07157,-36.9201 -37.5242,-36.5636l-209.934 2.64423 6.24909 493.747 98.7871 -1.24784 -1.86185 -148.126 24.6893 -0.316911c4.09013,42.5453 19.3415,147.908 63.6199,147.344l74.0977 -0.940829c-5.79353,-60.3616 -38.267,-95.3407 -38.9206,-147.641l0 -0.00990346z"/>
 </g>
</svg>
