<?xml version="1.0" encoding="UTF-8"?>
<!DOCTYPE svg PUBLIC "-//W3C//DTD SVG 1.1//EN" "http://www.w3.org/Graphics/SVG/1.1/DTD/svg11.dtd">
<!-- Creator: CorelDRAW -->
<svg xmlns="http://www.w3.org/2000/svg" xml:space="preserve" width="25in" height="39in" style="shape-rendering:geometricPrecision; text-rendering:geometricPrecision; image-rendering:optimizeQuality; fill-rule:evenodd; clip-rule:evenodd"
viewBox="0 0 8.18919 5.06602"
 xmlns:xlink="http://www.w3.org/1999/xlink">
 <defs>
  <style type="text/css">
   <![CDATA[
    .fil2 {fill:#1F1A17}
    .fil1 {fill:#FFF500}
    .fil3 {fill:black}
    .fil0 {fill:#436C56}
   ]]>
  </style>
 </defs>
 <g id="Layer_x0020_1">
  <metadata id="CorelCorpID_0Corel-Layer"/>
  <g id="_317410480">
   <path id="_317411680" class="fil0" d="M3.20392 2.6079c0.0286406,0.00353444 0.0579714,0.00620601 0.0875047,0.00791847 -0.0307944,-0.000939198 -0.0598399,-0.00361077 -0.0875047,-0.00791847z"/>
   <path id="_317411224" class="fil0" d="M4.11005 3.23847c-1.03552,0.172527 -2.21297,-0.0429974 -2.68304,-0.504721 -0.417296,-0.410018 -0.146777,-0.886513 0.592505,-1.15977l0.676438 0.375049c-0.00909993,0.018618 -0.0139353,0.0380093 -0.0139353,0.0582635 0,0.0389485 0.019378,0.0762178 0.0577292,0.111094 0.0181999,0.0174598 0.0442386,0.0366652 0.0736491,0.0561461 -0.0888455,0.0212697 -0.170499,0.0484301 -0.241185,0.0825731 -0.13475,0.0650403 -0.20889,0.144092 -0.20889,0.233512 0,0.11362 0.109319,0.208565 0.301187,0.280767 0.188132,0.0715583 0.41116,0.107487 0.657183,0.107487 0.169769,0 0.325643,-0.0169985 0.463685,-0.0510087l0.32467 0.410605z"/>
   <path id="_317410504" class="fil0" d="M2.61442 1.41877c1.04031,-0.178567 2.22971,0.0367183 2.7027,0.501353 0.422533,0.415099 0.139911,0.898258 -0.62009,1.16975l-0.434437 -0.240846 0.0797057 0c0.0810863,0 0.163513,-0.00699586 0.230177,-0.0292413 0.0724742,-0.0251891 0.115495,-0.0614295 0.115495,-0.102107 0,-0.0417462 -0.0435084,-0.0791648 -0.118256,-0.103342 -0.0665039,-0.0217874 -0.147023,-0.02801 -0.227415,-0.02801l-0.0418856 0c0.0552899,-0.0413778 0.102091,-0.0857392 0.142227,-0.130412 0.0112936,-0.000846274 0.0222222,-0.0019149 0.0325799,-0.00322248l0.00507764 -0.000643832 0.00499799 -0.00075335c0.0529336,-0.00806781 0.0996114,-0.0225607 0.13548,-0.0419685 0.043389,-0.0229622 0.0671941,-0.0513041 0.0671941,-0.082072 0,-0.040661 -0.0422506,-0.0766625 -0.113059,-0.101281l-0.00345147 -0.00116155c-0.0666233,-0.022189 -0.148197,-0.0289094 -0.229161,-0.0289094l-0.358472 0 -0.0148679 0.0230352c-0.00414508,-0.00471258 -0.00865191,-0.00942849 -0.0133645,-0.0140681 -0.114439,-0.112422 -0.368707,-0.176115 -0.626631,-0.168455 -0.0131222,-0.0111409 -0.0225076,-0.0210473 -0.0251891,-0.0282855 0.00211403,-0.0102017 0.0355468,-0.0232211 0.0502123,-0.0285244 0.0508627,-0.0180472 0.10607,-0.0255575 0.171638,-0.0255575 0.0352614,0 0.0678015,0.0023928 0.101317,0.00732774 0.035955,0.00557877 0.0698359,0.0141046 0.102008,0.0246017l0.0950216 0.0309902 0.267024 -0.0524059c0.0545996,-0.0101852 0.107288,-0.0234069 0.146083,-0.0440494 0.0433491,-0.0223914 0.0676422,-0.0503815 0.0676422,-0.0808938 0,-0.0405315 -0.040505,-0.0766226 -0.111313,-0.101261 -0.0560997,-0.0203305 -0.12565,-0.0310101 -0.199505,-0.0310101 -0.0401366,0 -0.0849062,0.00548585 -0.127724,0.0123755 -0.0412318,-0.00720163 -0.0834426,-0.0132052 -0.126503,-0.0178647 -0.0715384,-0.00745717 -0.143933,-0.011433 -0.21657,-0.011433 -0.212099,0 -0.409411,0.0273828 -0.576054,0.0873189 -0.0129165,0.00464289 -0.0253086,0.00946499 -0.0374551,0.0143468l-0.295177 -0.373316z"/>
   <path id="_317410720" class="fil0" d="M4.46865 4.73119l1.03232 -0.19011c-0.00579117,-0.00095911 -0.0116388,-0.00213726 -0.0174863,-0.00355435 -0.00579117,-0.00141709 -0.0116388,-0.00353444 -0.0174863,-0.00638854 -0.00585091,-0.0018784 -0.0123788,-0.0042546 -0.0197032,-0.00709211 -0.007268,-0.00283419 -0.0152728,-0.00567169 -0.0240176,-0.00850588 -0.00874151,-0.00189831 -0.0182231,-0.00401565 -0.0284448,-0.00639186 -0.0102183,-0.00235629 -0.0196999,-0.00497144 -0.0284448,-0.00780563 -0.0116952,-0.0018784 -0.0233372,-0.00401565 -0.034976,-0.00637194 -0.0116952,-0.0023762 -0.0248108,-0.00449355 -0.0394032,-0.00638854 -0.0291251,-0.0047325 -0.0634208,-0.0080479 -0.102768,-0.0099263 -0.0394032,-0.00189831 -0.0838608,-0.00283751 -0.133426,-0.00283751 -0.113782,0 -0.213653,0.00661089 -0.299671,0.0198526 -0.0860179,0.0132384 -0.15824,0.0326297 -0.21655,0.0581705 -0.0583099,0.0255409 -0.102027,0.0524989 -0.131212,0.0808772 -0.0291848,0.0283751 -0.0437739,0.0576926 -0.0437739,0.087966 0,0.000939198 0,0.00163945 0,0.00211734 0,0.000477896 0,0.000716844 0,0.000716844 0,0 0,0 0,0 0,0 0,0 0,0 0,0.000939198 0,0.00142041 0,0.00142041 0,0 0,0 0,0 0,0.0274193 0.0153292,0.053677 0.0459311,0.07874 0.0306617,0.025063 0.0751159,0.0489445 0.133426,0.0716512 0.0583697,0.0226868 0.130532,0.0397185 0.21655,0.0510618 0.0860179,0.0113633 0.184471,0.017035 0.2953,0.017035 0.119574,0 0.219444,-0.00449355 0.299614,-0.0134806 0.0802268,-0.0089871 0.14075,-0.0224644 0.181574,-0.0404386 0.0408236,-0.0189101 0.0780132,-0.0411355 0.111512,-0.0666797 0.0335556,-0.0255409 0.0634772,-0.0543938 0.0897084,-0.0865456 0,0 0,0 0,0 0,0 0,-0.000481215 0,-0.00142041 0,0 0,0 0,0 0,0 0,0 0,0 0,0 0,0 0,0 0,0 0.00147351,-0.000477896 0.00437076,-0.00141709 0,0 0,-0.000238948 0,-0.000716844 0,-0.000461302 0,-0.00070025 0,-0.00070025l0.380578 0.00708879c0,0.00189831 0,0.00355435 0,0.00497144 0,0.00142041 0.00147683,0.00259856 0.00437407,0.00353776 0,0.00189499 0,0.00331208 0,0.00427119 0,0.000939198 0,0.00235629 0,0.0042546 0,0.000939198 0,0.00211734 0,0.00353444 0,0.00141709 0.00147351,0.00261515 0.00437076,0.00355435 0,0.00189499 0,0.0033154 0,0.0042546 0,0.000939198 0,0.00189499 0,0.00283419 0,0.00757 -0.00147683,0.0153756 -0.00437076,0.0234235 -0.00289724,0.00802799 -0.007268,0.0163148 -0.0131156,0.024824 -0.00295366,0.00377339 -0.00658766,0.00802799 -0.0109584,0.0127605 -0.00437407,0.0047325 -0.00800807,0.0089871 -0.010902,0.0127804 -0.00584759,0.00471258 -0.0109584,0.00920613 -0.0153292,0.0134773 -0.00437407,0.0042546 -0.00948159,0.00874815 -0.0153325,0.0134607 -0.0349727,0.0236658 -0.0816439,0.0468305 -0.139954,0.0695338 -0.0583099,0.0227067 -0.129795,0.0439764 -0.214336,0.0638456 -0.0817003,0.0198493 -0.1772,0.0347636 -0.286555,0.0446899 -0.109352,0.0099263 -0.231139,0.0148977 -0.365249,0.0148977 -0.154606,0 -0.297513,-0.00780895 -0.428726,-0.0234235 -0.131212,-0.015598 -0.249309,-0.0394795 -0.354347,-0.0716313 -0.107878,-0.0331109 -0.188105,-0.0702341 -0.240567,-0.111373 -0.0525188,-0.0411555 -0.0787499,-0.0867879 -0.0787499,-0.136911 0,-0.0529801 0.0218604,-0.0997873 0.0656343,-0.140465 0.0437175,-0.0406776 0.109352,-0.0756668 0.196847,-0.104981 0.0874948,-0.0293342 0.17936,-0.053458 0.275597,-0.0723714 0.0962396,-0.0189101 0.19685,-0.0326297 0.301831,-0.0411355 0.0116388,-0.000939198 0.0225972,-0.00165936 0.0328155,-0.00213726 0.0102217,-0.000461302 0.0211237,-0.00117815 0.0328188,-0.00211734 0.0116388,0 0.0225972,-0.000238948 0.0327591,-0.000720163 0.0102217,-0.000457984 0.0211801,-0.00117815 0.0328188,-0.00211734 0.0233339,-0.000955792 0.0459311,-0.00165604 0.0677915,-0.00213394 0.0219168,-0.000481215 0.0430372,-0.000720163 0.0634772,-0.000720163 0.119574,0 0.231083,0.00545266 0.334647,0.0163347 0.103504,0.0108655 0.199004,0.0271803 0.286499,0.0489445 0.0845975,0.0217476 0.161134,0.0458714 0.229665,0.0723514 0.0685283,0.0264801 0.129052,0.0548585 0.181574,0.0851318l-1.44799 0.253952 -0.170559 -0.0993094 0 0z"/>
   <path id="_317410672" class="fil0" d="M1.90805 4.91988l0.638495 0c0.00418159,0.00189499 0.0083665,0.00283419 0.0125116,0.00283419 0.00418491,0 0.0083665,0 0.0125514,0 0.00414508,0 0.00832999,0 0.0125116,0 0.00414508,0 0.00832999,0 0.0125149,0 0.00418159,0.00095911 0.00832667,0.00142041 0.0125116,0.00142041 0.00418491,0 0.00836981,0 0.0125116,0 0.00418491,0 0.00836981,0 0.0125116,0 0.00418491,0 0.00836981,0 0.0125547,0 0.0250232,0 0.0485031,-0.00070025 0.0704,-0.00212066 0.0219401,-0.00141709 0.043306,-0.00403225 0.0641874,-0.00780563 0.0208416,-0.00283751 0.0365225,-0.00828685 0.0469201,-0.0163148 0.0104407,-0.0080479 0.015681,-0.0182131 0.015681,-0.0305156 0,-0.0132384 -0.00783882,-0.0250597 -0.02348,-0.0354639 -0.0156411,-0.0104042 -0.0391211,-0.0193913 -0.0704432,-0.0269613 -0.0312789,-0.00756668 -0.0672738,-0.0146555 -0.107978,-0.0212664 -0.0406643,-0.00663081 -0.085029,-0.0132583 -0.133004,-0.0198692 -0.00625579,-0.000939198 -0.0125547,-0.00165936 -0.0188105,-0.00213726 -0.00625579,-0.000461302 -0.0125116,-0.00117815 -0.0187674,-0.00211734 -0.00832667,-0.000939198 -0.0156411,-0.00165604 -0.0218969,-0.00213726 -0.00625579,-0.000457984 -0.0125116,-0.00117815 -0.0187674,-0.00211734 -0.0146256,-0.00189499 -0.0287235,-0.0037933 -0.0422905,-0.00568829 -0.0135703,-0.0018784 -0.0265697,-0.0037767 -0.0391211,-0.00567169 -0.0667461,-0.00757 -0.126749,-0.0174963 -0.179968,-0.0297955 -0.0532157,-0.0122826 -0.100667,-0.0260022 -0.142386,-0.0411389 -0.0396521,-0.0160759 -0.0693878,-0.0347669 -0.0892105,-0.0560333 -0.019826,-0.0212896 -0.0297391,-0.0456523 -0.0297391,-0.0730716 0,-0.0387793 0.0145858,-0.070712 0.0437938,-0.0957717 0.0292479,-0.025063 0.0730417,-0.042317 0.131461,-0.051782 0.058456,-0.0104042 0.122076,-0.0182131 0.190933,-0.0234069 0.0688601,-0.00521039 0.143973,-0.00780563 0.225384,-0.00780563l0.566509 -0.00283751 0 0.110653 -0.591572 0c-0.0375381,0.00189831 -0.0725174,0.0037933 -0.104852,0.00569161 -0.0323376,0.0018784 -0.0620767,0.00471258 -0.0892139,0.00850588 -0.027094,0.0037767 -0.0469201,0.00946499 -0.0594715,0.0170151 -0.0125149,0.00757 -0.0187707,0.017035 -0.0187707,0.0283784 0,0.0122992 0.00678678,0.0234235 0.0203537,0.0333498 0.0135669,0.00992298 0.0339206,0.0182098 0.061018,0.0248207 0.0271372,0.00663081 0.0558176,0.0125414 0.0860843,0.0177352 0.0302634,0.00521039 0.0620734,0.0101818 0.0954663,0.0148944 0.0104407,0.00095911 0.0203537,0.00189831 0.0297357,0.00283751 0.00938534,0.000955792 0.0182397,0.00189499 0.0266095,0.0028541 0.00418491,0.000939198 0.00832667,0.00165604 0.0125116,0.00211734 0.00418491,0.000477896 0.00938534,0.000716844 0.0156411,0.000716844 0.00418491,0.000939198 0.00836981,0.00165936 0.0125547,0.00212066 0.00414176,0.000477896 0.00832667,0.000716844 0.0125116,0.000716844 0.00625579,0.000939198 0.0125116,0.0018784 0.0187674,0.00283419 0.00625579,0.000939198 0.0125116,0.00189831 0.0187674,0.00283751 0.00418491,0 0.00731446,0.000238948 0.00938534,0.000716844 0.00211403,0.000461302 0.00524026,0.00070025 0.00942517,0.00070025 0.00207088,0.000939198 0.00467276,0.00165936 0.00779899,0.00213726 0.00312955,0.000461302 0.00572811,0.00070025 0.00784214,0.00070025 0.0918091,0.0141776 0.170051,0.028853 0.234727,0.0439896 0.0646752,0.0151201 0.114765,0.0307347 0.150229,0.0468106 0.035507,0.0160759 0.0620734,0.0352282 0.0798285,0.0574537 0.0177518,0.0222255 0.0266095,0.0470694 0.0266095,0.0744854 -0.0020742,0.0312126 -0.0130426,0.0574736 -0.0328653,0.0787433 -0.019826,0.0212863 -0.0474909,0.038079 -0.0829548,0.0503815 -0.033393,0.0122826 -0.0693878,0.0222255 -0.107981,0.0297756 -0.0385934,0.00757 -0.0787698,0.0127804 -0.120493,0.0156146 -0.0146223,0.000939198 -0.0286804,0.00142041 -0.0422473,0.00142041 -0.0135703,0 -0.0266095,0 -0.0391211,0 -0.00625579,0 -0.0125149,0 -0.0188105,0 -0.00625579,0 -0.0125116,0.000477896 -0.0187674,0.00141709 -0.00625579,0 -0.0119839,0 -0.0172242,0 -0.00520044,0 -0.0109285,0 -0.0171843,0 -0.00629893,0 -0.012027,0 -0.0172275,0 -0.00519712,0 -0.0099097,0 -0.0140946,0 -0.00625579,0 -0.0119839,0 -0.0172242,0 -0.00520044,0 -0.00991302,0 -0.0140581,0 -0.00625579,-0.000939198 -0.0120237,-0.00141709 -0.0172242,-0.00141709 -0.00520044,0 -0.00991302,0 -0.0140946,0 -0.00418491,0 -0.00832999,0 -0.0125149,0 -0.00418491,0 -0.00832667,0 -0.0125116,0l-0.613469 0 0 -0.123433 0 0z"/>
   <path id="_317410408" class="fil0" d="M1.11011 4.20483c0,-0.0104042 0.00796161,-0.0201081 0.0240408,-0.0290952 0.0159996,-0.0089871 0.0420714,-0.0167761 0.0782123,-0.0234036 0.0320024,-0.00567169 0.0671278,-0.0101652 0.105217,-0.0134806 0.0380923,-0.0033154 0.0771968,-0.00497144 0.11724,-0.00497144 0.0441025,0 0.0842225,0.00141709 0.120284,0.00427119 0.0360612,0.00283751 0.0722021,0.00755009 0.108263,0.0141809 0.0360612,0.00662749 0.0631453,0.0144165 0.0811792,0.0234036 0.0180306,0.0089871 0.0270841,0.0196302 0.0270841,0.0319327 0,0.0122992 -0.00905347,0.0231647 -0.0270841,0.0326297 -0.0180339,0.00946499 -0.043087,0.017493 -0.075169,0.0241238 -0.0360612,0.00661089 -0.0722021,0.0113434 -0.108263,0.0141776 -0.0360612,0.00283751 -0.0741535,0.0042546 -0.114274,0.0042546 -0.0400437,0.000955792 -0.0801637,0 -0.120284,-0.00283751 -0.0400437,-0.00283419 -0.0781327,-0.00756668 -0.114194,-0.0141776 -0.0361409,-0.00663081 -0.0622127,-0.0148977 -0.0782123,-0.0248406 -0.0160792,-0.0099263 -0.0240408,-0.0210307 -0.0240408,-0.0333299l0 -0.00283751z"/>
   <polygon id="_317410384" class="fil0" points="1.15218,5.04331 1.15218,4.36231 1.67539,4.36231 1.67539,5.04331 1.15218,5.04331 "/>
   <polygon id="_317410336" class="fil0" points="0,4.04876 0.565357,4.04876 0.565357,5.04331 0,5.04331 0,4.04876 "/>
   <path id="_317410552" class="fil0" d="M3.22444 4.23105c-0.195649,-0.139914 -0.589541,-0.310284 -1.02719,-0.507207 -0.879235,-0.38374 -1.92198,-0.870547 -1.91678,-1.44245 -0.0117815,-0.27489 0.215146,-0.567239 0.817524,-0.87373 0.192356,-0.0978757 0.477378,-0.194218 0.55424,-0.312441 0,-0.21429 -0.775439,-0.19687 -1.04791,-0.279201 0,-0.0248041 0.0360745,-0.0232211 0.0826693,-0.0295532 0.352418,0 1.56059,-0.0312889 2.001,-0.0141444 0.145314,0.00423469 0.223961,0.0124684 0.190405,0.0268119 -0.116915,0.04996 -0.226928,0.0986092 -0.332715,0.146432 -3.61598,1.84197 0.495538,2.51734 0.793964,3.15014 0.0110513,0.00918622 0.0216945,0.0185052 0.0324604,0.0278042 0.0107626,-0.00929906 0.0214489,-0.018618 0.0324571,-0.0278042 0.298386,-0.632817 4.4099,-1.30817 0.794004,-3.15014 -0.105827,-0.0478228 -0.215836,-0.0964719 -0.332715,-0.146432 -0.0335556,-0.0143435 0.045055,-0.0225773 0.190408,-0.0268119 0.440408,-0.0171445 1.64854,0.0141444 2.00095,0.0141444 0.0465982,0.00633212 0.0826727,0.00474909 0.0826727,0.0295532 -0.272427,0.0823308 -1.04791,0.0649109 -1.04791,0.279201 0.0768583,0.118223 0.36188,0.214565 0.554236,0.312441 0.602378,0.306491 0.829305,0.59884 0.817527,0.87373 0.00524026,0.571902 -1.03739,1.05871 -1.91674,1.44245 -0.438539,0.197291 -0.833085,0.36792 -1.02833,0.508l0 0.130466 0.569635 0 0 0.122016 -0.569635 0 0 0.346172c0,0.0132417 0.00207088,0.025063 0.00625579,0.0354672 0.00414508,0.0104042 0.0104009,0.0203504 0.0187707,0.0297955 0.00832667,0.00946499 0.0266062,0.0163148 0.0547589,0.0205694 0.0281959,0.00427119 0.0673169,0.00638854 0.117367,0.00638854l0.34746 -0.00283419 0 0.123433 -0.369357 0c-0.0020742,0 -0.00418491,0 -0.00625579,0 -0.0020742,0 -0.00418491,0 -0.00625911,0 -0.00207088,0 -0.00365391,0 -0.00471258,0 -0.00101553,0 -0.00259856,0.000477896 -0.00466944,0.00141709 -0.00211403,0 -0.00418491,0 -0.00625579,0 -0.00211403,0 -0.00418491,0 -0.00625579,0 -0.00211403,0 -0.00365723,0 -0.00471258,0 -0.00105867,0 -0.00260188,0 -0.00467276,0 -0.0709709,0 -0.132517,-0.0047325 -0.18468,-0.0141809 -0.0521603,-0.00946499 -0.0949387,-0.0241205 -0.128332,-0.0439896 -0.033393,-0.0198526 -0.0589471,-0.0411389 -0.076699,-0.0638456 -0.017712,-0.0227034 -0.0286804,-0.0463493 -0.0328653,-0.070931 -0.00207088,-0.00189831 -0.00312624,-0.00401565 -0.00312624,-0.00639186 0,-0.00235629 0,-0.00497144 0,-0.00780563 0,-0.0018784 0,-0.00401565 0,-0.00637194 0,-0.0023762 0,-0.00497144 0,-0.00780895l0 -0.00283419 0 -0.589524z"/>
   <path id="_317410168" class="fil0" d="M6.27349 5.04331l0 -0.412856c0,-0.0378401 0.0203803,-0.0735462 0.0612039,-0.107115 0.0408236,-0.0335888 0.102087,-0.0650403 0.183731,-0.0943579 0.0846008,-0.0283751 0.183734,-0.0498837 0.297457,-0.0645624 0.113782,-0.0146555 0.243518,-0.0219865 0.389323,-0.0219865 0.0233372,0 0.0488881,0.000481215 0.0765928,0.00142041 0.027708,0.000955792 0.0575732,0.00237289 0.0896519,0.00425128 0.0320788,0.00189831 0.0648976,0.00427451 0.0984532,0.0071087 0.0334992,0.00283751 0.0677915,0.00661089 0.102768,0.0113434 0.0612603,0.0085092 0.119574,0.0193913 0.174986,0.0326297 0.055416,0.0132417 0.109355,0.0293176 0.161874,0.0482476 0.0524623,0.0179709 0.0918655,0.0401997 0.118097,0.0666797 0.0262876,0.0264801 0.0394032,0.0567535 0.0394032,0.0908002 0,0.000939198 0,0.00211734 0,0.00353776 0,0.00141709 0,0.00307314 0,0.00497144 0,0.000939198 0,0.00213394 0,0.00355435 0,0.00141709 0,0.00307314 0,0.00495153l0 0.421381 -0.41561 0 0 -0.401512c0,-0.0208084 -0.00948159,-0.0413778 -0.0284448,-0.0617249 -0.0189068,-0.0203305 -0.0473548,-0.0394795 -0.0852812,-0.0574537 -0.0379263,-0.0189101 -0.0874948,-0.0331076 -0.148755,-0.042556 -0.0612072,-0.00946499 -0.13411,-0.0141975 -0.218707,-0.0141975 -0.0787499,0 -0.148018,0.0042546 -0.207805,0.0127804 -0.0597868,0.00850588 -0.111512,0.0212697 -0.155286,0.0383014 -0.0437208,0.017035 -0.0780132,0.0352282 -0.102768,0.0546195 -0.0248108,0.019388 -0.0415603,0.0399574 -0.0503052,0.0617249l0 0.410018 -0.380578 0 0 0z"/>
   <path id="_317410792" class="fil1" d="M6.13753 0.777533l1.89996 0 0 3.55178 -0.682206 0 0 0.00270808 -3.0929 0 0 -0.100196c0.19532,-0.140077 0.589906,-0.310762 1.02841,-0.508036 0.879232,-0.383684 1.9221,-0.870474 1.91678,-1.44241 0.0116587,-0.274856 -0.215146,-0.567242 -0.817567,-0.873677 -0.192356,-0.0978724 -0.477418,-0.194255 -0.554197,-0.312478 0,-0.214306 0.775316,-0.196886 1.04791,-0.279164 0,-0.0248771 -0.0363201,-0.0232377 -0.0826727,-0.0297191 -0.130851,0 -0.379794,-0.00429111 -0.663515,-0.00880457z"/>
   <path id="_317410576" class="fil2" d="M3.8971 2.70215c-0.154779,0.0715782 -0.348598,0.106601 -0.575403,0.106601 -0.209624,0 -0.397633,-0.0301805 -0.558222,-0.0912615 -0.156362,-0.0588509 -0.245453,-0.134166 -0.245453,-0.226868 0,-0.0715583 0.0591894,-0.133486 0.166968,-0.185523 0.101682,-0.0491138 0.231315,-0.0806748 0.371186,-0.100123 -0.0640248,-0.0369739 -0.141295,-0.0827357 -0.177651,-0.117539 -0.027625,-0.0251725 -0.0418026,-0.0520375 -0.0418026,-0.0801405 0,-0.0729754 0.0829149,-0.13019 0.206494,-0.174624 0.13922,-0.0500695 0.302853,-0.0721291 0.479894,-0.0721291 0.0609782,0 0.121386,0.003332 0.180983,0.00955792 0.0550443,0.00594715 0.108223,0.0145094 0.159531,0.0251891 0.0394463,-0.00732774 0.0985162,-0.0178249 0.130283,-0.0178249 0.038756,0 0.0748305,0.00546925 0.104689,0.0162982 0.0326197,0.0113434 0.0514302,0.0271239 0.0514302,0.0458515 0,0.0134806 -0.011048,0.0252654 -0.0303066,0.0352282 -0.0215285,0.0114529 -0.0588243,0.0195373 -0.0885999,0.0250431l-0.188052 0.0369208 -0.0237654 -0.00775253c-0.044524,-0.0145294 -0.0924994,-0.0262975 -0.144052,-0.0343056 -0.0489545,-0.00718171 -0.0981479,-0.010829 -0.149621,-0.010829 -0.100179,0 -0.189147,0.0128368 -0.267877,0.0407705 -0.0587414,0.0212697 -0.108791,0.0488151 -0.108791,0.0844482 0,0.0473084 0.151812,0.137797 0.213278,0.173187l0.532585 0.306567c0.0848663,-0.0642869 0.14759,-0.134206 0.194022,-0.206059l0.0108887 -0.0168126 0.242569 0c0.0457419,0 0.0998537,0.00274458 0.138245,0.015525 0.0325799,0.0113235 0.0527278,0.0269016 0.0527278,0.0457054 0,0.0140481 -0.0109252,0.0263672 -0.0308309,0.0369208 -0.0175527,0.00948159 -0.0411123,0.0167761 -0.0682926,0.020898 -0.026281,0.00333531 -0.0661753,0.00412517 -0.100584,0.00429111 -0.0595976,0.0736789 -0.137757,0.150172 -0.243422,0.21265l0.0996512 0.0544337 0.152505 0c0.0456191,0 0.0994886,0.00230319 0.136984,0.0147882 0.0345711,0.0110314 0.053989,0.0272168 0.053989,0.0464422 0,0.0188171 -0.0201081,0.0343786 -0.0530962,0.0458315 -0.0379828,0.0126709 -0.0920945,0.0153955 -0.137876,0.0153955l-0.308462 0 -0.136741 -0.0767521zm-0.683627 -0.391217c-0.102539,0.01059 -0.199223,0.0299448 -0.275029,0.0639186 -0.0707684,0.0322613 -0.108184,0.0701412 -0.108184,0.11577 0,0.056405 0.053667,0.100896 0.147507,0.137226 0.0981512,0.0377139 0.209786,0.0584493 0.338848,0.0584493 0.166968,0 0.294367,-0.0333664 0.395236,-0.0901763l-0.498379 -0.285188z"/>
   <path id="_317410768" class="fil3" d="M4.18265 0.668888l0.852258 -0.668888 0.391091 0 0.913196 0.705938 -0.507197 0 -0.178461 -0.144736 -0.875455 0 -0.178464 0.144736 -0.976856 0 -0.59348 -0.249717 -0.253374 0 0 0.249717 -0.442684 0 0 -0.705938 1.32594 0c0.0961201,0 0.210556,0.00637194 0.286442,0.0356497 0.0752786,0.0287103 0.0969299,0.0730683 0.0969299,0.11581l0 0.154865c0,0.0426124 -0.0220562,0.0862171 -0.0970095,0.114798 -0.0760087,0.0289459 -0.19069,0.0350988 -0.286362,0.0350988l-0.049804 0 0.573292 0.212667zm-1.40674 -0.508627l0 0.135716 0.73656 0c0.0208017,0 0.073898,-0.000902692 0.0912018,-0.00714521 0.0123091,-0.00443713 0.014015,-0.0164078 0.014015,-0.0227797l0 -0.0758859c0,-0.00637194 -0.00170582,-0.0183393 -0.0140548,-0.0227797 -0.0172242,-0.00624251 -0.0704034,-0.00712529 -0.091162,-0.00712529l-0.73656 0zm2.20395 0.23394l0.476688 0 -0.242243 -0.201845 -0.234444 0.201845zm-4.30553 0.0544868l0 0.257251 -0.442724 0 0 -0.705938 1.32598 0c0.096442,0 0.211449,0.00629893 0.287743,0.0357061 0.0745849,0.02878 0.095629,0.0732342 0.095629,0.115754l0 0.145768c0,0.0427418 -0.0216912,0.0870998 -0.0968469,0.115774 -0.075929,0.0293143 -0.190448,0.0356862 -0.286525,0.0356862l-0.883254 0zm0 -0.288427l0 0.128166 0.73656 0c0.0207586,0 0.0739378,-0.00088278 0.0912018,-0.00712529 0.0123091,-0.00444045 0.014015,-0.0164078 0.014015,-0.0227797l0 -0.0683557c0,-0.00637194 -0.00170582,-0.0183393 -0.0140548,-0.0227797 -0.0172242,-0.00624251 -0.0704034,-0.00712529 -0.091162,-0.00712529l-0.73656 0zm6.22735 0.235523l-0.842832 -0.395784 0.609447 0 0.482618 0.235025 0.488994 -0.235025 0.549285 0 -0.839789 0.392947 0 0.312992 -0.447722 0 0 -0.310154z"/>
  </g>
 </g>
</svg>
