<?xml version="1.0" encoding="UTF-8"?>
<!DOCTYPE svg PUBLIC "-//W3C//DTD SVG 1.1//EN" "http://www.w3.org/Graphics/SVG/1.1/DTD/svg11.dtd">
<!-- Creator: CorelDRAW -->
<svg xmlns="http://www.w3.org/2000/svg" xml:space="preserve" width="1in" height="2in" style="shape-rendering:geometricPrecision; text-rendering:geometricPrecision; image-rendering:optimizeQuality; fill-rule:evenodd; clip-rule:evenodd"
viewBox="0 0 0.0772773 0.0829448"
 xmlns:xlink="http://www.w3.org/1999/xlink">
 <defs>
  <style type="text/css">
   <![CDATA[
    .fil0 {fill:black}
   ]]>
  </style>
 </defs>
 <g id="Dummy_x0025_Layer_x0025_Dummy_x0025_Layer">
  <metadata id="CorelCorpID_0Corel-Layer"/>
  <path class="fil0" d="M0.0425217 0.0829448c-0.00513346,-0.00123841 -0.00693259,-0.00379845 -0.0057313,-0.00785536 0.00209242,-0.00360572 0.0065993,-0.00428402 0.0113649,-0.00323393 -5.75016e-005,0.000717705 -0.000114851,0.00143967 -0.000172657,0.00216194 -0.00358107,-0.000840162 -0.00666243,-0.00121225 -0.00828358,0.00184659 0,0.000875302 0,0.0017506 0,0.00262591 0.000419701,0.000564368 0.00083925,0.00112889 0.00126488,0.00169782 0.00133942,0.000686977 0.00350075,0.000949537 0.00500097,0.000498956 -2.87508e-005,-0.00129972 -0.00012048,-0.00215737 -0.000655336,-0.00338286 0.00113847,-4.38107e-005 0.00228211,-8.74694e-005 0.00342621,-0.000126869 -4.60926e-005,0.00164108 -8.61003e-005,0.00328657 -0.000126564,0.0049319 -0.00221305,0.00056452 -0.00379374,0.000765775 -0.00608756,0.000835903zm0.0132044 0c-0.00255821,-0.000612742 -0.00339746,-0.000835903 -0.0043689,-0.00280952 -6.90628e-005,-0.00276129 0.000396579,-0.00593407 -0.000678306,-0.00857276 0.00109801,0 0.00219601,0 0.00329965,0 2.87508e-005,0.00251182 6.31301e-005,0.00502363 9.78136e-005,0.00753986 0.000770187,0.00206565 0.00154631,0.0018469 0.00417328,0.0018469 0.00102332,-0.000393992 0.00120723,-0.000643318 0.0016499,-0.00140468 2.87508e-005,-0.00266089 6.31301e-005,-0.00532148 9.78136e-005,-0.00798207 0.000971442,0 0.00194288,0 0.00291448,0 -3.45314e-005,0.00255989 -6.92149e-005,0.00511992 -9.78136e-005,0.00768453 -0.000942844,0.0032995 -0.00306979,0.00343093 -0.00708791,0.00369775zm-0.0518458 -0.000148774c0.000224226,-0.000402663 0.0004483,-0.000805327 0.000678306,-0.00120358 0,-0.00299328 0,-0.00598656 0,-0.00897983 -0.000207036,-0.000358853 -0.000408292,-0.000717705 -0.000609243,-0.00107199 0.00116114,-1.32345e-005 0.00232821,-2.6469e-005 0.00349497,-3.51399e-005 5.73495e-005,0.00310691 0.000115155,0.00621839 0.000172505,0.00932986 0.00160381,1.32345e-005 0.00320762,2.6469e-005 0.00481142,3.93992e-005 -0.000327516,0.000638907 -0.000649707,0.00127781 -0.000971442,0.00192128 -0.00252931,0 -0.00505314,0 -0.00757652,0zm0.00932408 0c0.00147724,-0.00297594 0.000672373,-0.00685745 0.000672373,-0.0100345 -0.000200951,-0.000407227 -0.000402207,-0.000813998 -0.000603615,-0.00122092 0.00275962,-4.39629e-005 0.00551878,-8.76215e-005 0.00827795,-0.000127021 0,0.000638907 0,0.00127781 0,0.00192098 -0.00154068,8.97512e-006 -0.00308105,2.20575e-005 -0.00461595,3.51399e-005 0,0.000862068 0,0.00172429 0,0.00258636 0.00134505,1.29303e-005 0.00269041,2.61647e-005 0.00403546,3.93992e-005 0,0.000638907 0,0.00127781 0,0.00192113 -0.00134505,8.67088e-006 -0.00269041,2.17533e-005 -0.00403546,3.49877e-005 0,0.00095836 0,0.00192113 0,0.00288375 0.00166709,1.32345e-005 0.00333403,2.6469e-005 0.0050069,3.93992e-005 -0.000327516,0.000638907 -0.000649707,0.00127781 -0.000971442,0.00192128 -0.00259259,0 -0.00517956,0 -0.00776621,0zm0.00931815 0c0.000287508,-0.000354441 0.000574864,-0.000704623 0.000868,-0.00105465 0.00149474,-0.00336536 0.00299526,-0.00672617 0.00449562,-0.0100871 0.00101753,0 0.00203477,0 0.0030523,0 0.00155802,0.00340902 0.00312136,0.00681805 0.00468501,0.0102315 0.000218445,0.00026256 0.000437043,0.00052938 0.000655336,0.000796504 -0.00111535,4.25938e-006 -0.00223039,8.67088e-006 -0.00334574,1.74939e-005 -0.000316107,-0.000744022 -0.000632213,-0.00148789 -0.000948472,-0.00223176 -0.00170147,3.92471e-005 -0.00340309,8.30579e-005 -0.00509863,0.000126716 -0.000293441,0.00073094 -0.000580644,0.00146614 -0.000868,0.00220134 -0.00116722,0 -0.00233399,0 -0.00349543,0zm0.0423321 0c0.000155315,-0.000306371 0.000316107,-0.00060833 0.00047705,-0.00091029 0,-0.00319027 0,-0.00638055 0,-0.00956626 -0.000160944,-0.000302112 -0.000321735,-0.000604071 -0.00047705,-0.000905878 0.00278229,0 0.00556442,0 0.00834671,0 0,0.000638907 0,0.00127781 0,0.00192098 -0.00160381,8.97512e-006 -0.00320746,2.20575e-005 -0.00480564,3.51399e-005 0,0.000862068 0,0.00172429 0,0.00258636 0.00140848,1.29303e-005 0.00281667,2.61647e-005 0.00422515,3.93992e-005 0,0.000638907 0,0.00127781 0,0.00192113 -0.00140848,8.67088e-006 -0.00281667,2.17533e-005 -0.00422515,3.49877e-005 0,0.00095836 0,0.00192113 0,0.00288375 0.00170725,5.26337e-005 0.0034145,0.000109527 0.00512175,0.000166572 -0.000298765,0.000594944 -0.00059753,0.00119445 -0.000896599,0.00179411 -0.00259259,0 -0.00517925,0 -0.00776621,0zm-0.0372848 -0.00413996c0.000615024,-0.001431 0.0012302,-0.00285759 0.00184522,-0.00428433 0.000586577,0.00138308 0.00117848,0.00276586 0.00177068,0.0041532 -0.00120723,4.38107e-005 -0.00241431,8.74694e-005 -0.00361591,0.000131128zm-0.0275699 -0.00931252c0.000224378,-0.000402511 0.0004483,-0.000805175 0.000672677,-0.00120343 0,-0.00299328 0,-0.00598656 0,-0.00897557 -0.000201256,-0.000358548 -0.000402663,-0.000717401 -0.000603615,-0.00107625 0.0041964,-4.39629e-005 0.0076684,-0.000599507 0.00973222,0.00251166 0,0.00350973 -0.00152912,0.00430197 -0.00606459,0.00493647 -1.73418e-005,0.00126899 -3.46835e-005,0.00253813 -4.60926e-005,0.00380712 -0.0012302,0 -0.0024604,0 -0.0036906,0zm0.0106808 0c0.000155011,-0.000301959 0.000316259,-0.000603919 0.00047705,-0.000905726 0,-0.0032426 0,-0.00648125 0,-0.00971944 -0.000160792,-0.000253889 -0.000322039,-0.000507627 -0.00047705,-0.000757104 0.00286276,3.07284e-005 0.00571411,-0.000153033 0.00841577,0.000682565 0.00186819,0.00174619 0.00172444,0.00295844 0.000390646,0.0049888 -0.00124146,0.000630388 -0.00124146,0.000630388 -0.00131067,0.000831644 0.00308136,0.00426683 0.00308136,0.00426683 0.00337449,0.00487927 -0.00118974,-3.48356e-005 -0.00237993,-6.5564e-005 -0.00356982,-9.61402e-005 -0.000683934,-0.00112022 -0.00159803,-0.00430182 -0.00375936,-0.00445044 -1.73418e-005,0.00151406 -3.46835e-005,0.00302811 -4.60926e-005,0.00454658 -0.00116707,0 -0.00233383,0 -0.00349497,0zm0.0120373 0c0.000224074,-0.000402511 0.000448452,-0.000805175 0.000672373,-0.00120343 0,-0.00299328 0,-0.00598656 0,-0.00897557 -0.000407988,-0.000909986 -0.000407988,-0.000909986 -0.000649251,-0.00109375 0.00279354,-8.97512e-006 0.00559317,-1.32345e-005 0.0083928,-1.7646e-005 4.00077e-005,0.000608178 8.04718e-005,0.00121666 0.000126412,0.0018291 -0.00160396,8.97512e-006 -0.00320777,2.20575e-005 -0.00480595,3.51399e-005 0,0.000862068 0,0.00172429 0,0.00259077 0.00136239,3.93992e-005 0.00273057,8.30579e-005 0.00409889,0.000126716 0,0.000577754 0,0.00115536 0,0.00173737 -0.00136833,4.39629e-005 -0.0027365,8.76215e-005 -0.00409889,0.000131432 0,0.00095836 0,0.00191672 0,0.00287934 0.00166724,1.32345e-005 0.00333418,2.6469e-005 0.00500127,3.93992e-005 -0.000304698,0.000608483 -0.000603615,0.00121666 -0.00090238,0.00182499 -0.00261556,3.05762e-005 -0.0052255,6.13046e-005 -0.00783528,9.61402e-005zm0.0102897 0c0.00149459,-0.00300621 0.000672677,-0.00696682 0.000672677,-0.010179 -0.000201256,-0.000358548 -0.000402663,-0.000717401 -0.000603615,-0.00107625 0.00116114,-1.32345e-005 0.00232821,-2.6469e-005 0.00349497,-3.51399e-005 0.00137411,0.00176353 0.00274791,0.00353163 0.00412764,0.00529943 0.00135646,-0.00176779 0.00271307,-0.00353589 0.00407562,-0.00529943 0.000954101,0 0.00190851,0 0.00286261,0 4.04641e-005,0.00376346 8.04718e-005,0.00752708 0.000126564,0.0112904 -0.000971442,0 -0.00194304,0 -0.00291448,0 -3.43793e-005,-0.00245507 -6.90628e-005,-0.00490543 -9.78136e-005,-0.00735625 -0.00112676,0.00143982 -0.00225336,0.00287949 -0.00337449,0.00432372 -0.000488307,-8.823e-006 -0.000971442,-1.30824e-005 -0.00145412,-1.74939e-005 -0.00104629,-0.00138734 -0.00209257,-0.00277453 -0.00313308,-0.00415746 -7.45391e-005,0.00236761 -0.000149382,0.00473947 -0.000218445,0.00711134 -0.00118974,3.05762e-005 -0.00237993,6.13046e-005 -0.00356403,9.61402e-005zm0.0170847 0c0.000160944,-0.000354289 0.000321735,-0.000704471 0.000482679,-0.0010545 0,-0.0031422 0,-0.0062841 0,-0.0094219 -0.000160944,-0.000302112 -0.000321735,-0.000604071 -0.000482679,-0.000905878 0.00116114,0 0.00232821,0 0.00349497,0 0,0.00379404 0,0.00758823 0,0.0113823 -0.00116677,0 -0.00233383,0 -0.00349497,0zm0.00602443 0c0.000224074,-0.000402511 0.000448452,-0.000805175 0.000672373,-0.00120343 0,-0.00299328 0,-0.00598656 0,-0.00897557 -0.000413616,-0.000909986 -0.000413616,-0.000909986 -0.000649251,-0.00109375 0.00279354,-8.97512e-006 0.00559317,-1.32345e-005 0.00839265,-1.7646e-005 4.01598e-005,0.000608178 8.04718e-005,0.00121666 0.00012626,0.0018291 -0.00160381,8.97512e-006 -0.00320746,2.20575e-005 -0.00481127,3.51399e-005 0,0.000862068 0,0.00172429 0,0.00259077 0.00136802,3.93992e-005 0.00273619,8.30579e-005 0.00410452,0.000126716 0,0.000577754 0,0.00115536 0,0.00173737 -0.00136833,4.39629e-005 -0.0027365,8.76215e-005 -0.00410452,0.000131432 0,0.00095836 0,0.00191672 0,0.00287934 0.00166709,1.32345e-005 0.00333403,2.6469e-005 0.0050069,3.93992e-005 -0.000304698,0.000608483 -0.000603615,0.00121666 -0.00090238,0.00182499 -0.00261556,3.05762e-005 -0.00522565,6.13046e-005 -0.00783528,9.61402e-005zm0.0102897 0c0.000155163,-0.000253585 0.000316107,-0.000507474 0.00047705,-0.000761364 0,-0.00329098 0,-0.00657724 0,-0.00986381 -0.000137973,-0.000209926 -0.000275795,-0.000420157 -0.000407988,-0.000630084 0.00333981,-3.07284e-005 0.00820889,-0.000805327 0.00973222,0.00206975 0,0.00167607 -0.000160944,0.00218384 -0.00123598,0.00364116 -0.00100019,0.000463816 -0.00100019,0.000463816 -0.00106926,0.000665071 0.000362199,0.000275643 0.000362199,0.000275643 0.00337449,0.00487927 -0.00119019,-3.48356e-005 -0.00237993,-6.5564e-005 -0.00356982,-9.61402e-005 -0.00235696,-0.0038774 -0.00235696,-0.0038774 -0.00283994,-0.00439355 -0.000241415,-2.20575e-005 -0.000482831,-3.93992e-005 -0.000724094,-5.68931e-005 -5.78058e-005,0.00148333 -0.000115155,0.00296681 -0.000172657,0.00445044 -0.00118974,3.05762e-005 -0.00237993,6.13046e-005 -0.00356403,9.61402e-005zm-0.0627161 -0.00576324c0,-0.00123415 0,-0.00246816 0,-0.00369805 0.00164412,6.14567e-005 0.00261556,-4.25938e-006 0.00320184,0.00133045 0,0.00192995 -0.000937063,0.00208299 -0.00320184,0.00236761zm0.0104852 -0.00044191c0,-0.00108553 0,-0.00217061 0,-0.00325614 0.00291448,8.77736e-005 0.00320199,3.93992e-005 0.00320199,0.00221898 -0.000827993,0.000910138 -0.00180506,0.000879562 -0.00320199,0.00103716zm0.0559215 0c0,-0.00108553 0,-0.00217061 0,-0.00325614 0.00178209,5.70452e-005 0.00247744,-8.73172e-005 0.00320184,0.00118608 0,0.00175486 -0.00130489,0.00185557 -0.00320184,0.00207006zm-0.0440794 -0.00694963c-0.00569129,-0.00125134 -0.00806528,-0.00374141 -0.00806528,-0.0081526 0.000701276,-0.0024639 0.00307527,-0.00625353 0.00709369,-0.00500203 -0.000109375,0.000507779 -0.000212969,0.00101966 -0.000316411,0.0015317 -0.00198867,0.000608178 -0.00335107,0.00119901 -0.00395468,0.00127781 -4.60926e-005,-7.87985e-005 -8.64045e-005,-0.000153185 -0.000126564,-0.00022742 -0.000919721,0.00140468 -0.00117848,0.00231497 -0.000948472,0.00388151 9.75093e-005,-0.000236395 0.000195323,-0.000468075 0.000298917,-0.000700211 0.00135661,0.000393992 0.00271307,0.000787833 0.00407546,0.00118152 6.34343e-005,0.00108097 0.000126564,0.00216635 0.000195627,0.00325158 -0.000569235,7.01276e-005 -0.00113832,0.000144362 -0.00170162,0.000218749 0.00163819,0.000849137 0.00300058,0.00116859 0.00494955,0.00136985 -0.000437043,-0.000682565 -0.000437043,-0.000682565 -0.000408292,-0.00105039 0.001058,-0.000468075 0.0021846,-0.000892796 0.002794,-0.00171972 0.00100582,0.000188021 0.00201773,0.000376346 0.00302918,0.000568779 -6.87585e-005,0.000324017 -0.000132193,0.000652141 -0.000195323,0.000980418 0.00114988,-0.000949689 0.00196601,-0.00165416 0.00271916,-0.00280526 -0.000322039,-0.000975854 -0.000603615,-0.00182469 -0.00119004,-0.00271748 2.29702e-005,-0.000367676 2.29702e-005,-0.000367676 0.000971442,-0.00166283 0,-0.00166313 -0.00205789,-0.00252094 -0.0039778,-0.00263899 -6.90628e-005,-0.000196996 -0.000132497,-0.000393688 -0.000195627,-0.000590684 0.000460013,-7.87985e-005 0.000919721,-0.000153338 0.00138551,-0.000227725 0.00712822,0.00376362 0.00488049,0.011842 -0.0036906,0.0131548 -0.000914093,2.63169e-005 -0.00182819,5.24816e-005 -0.00274182,7.86464e-005zm-0.0157281 -0.000739458c-0.000103442,-9.17287e-005 -0.000201256,-0.000183762 -0.000299069,-0.00027549 0.00047705,-0.00265663 0.00174771,-0.00266957 0.00510471,-0.00301549 0.000137973,-0.00027549 0.000137973,-0.00027549 0.000137973,-0.0015708 -0.000959881,-0.00255578 -0.00154631,-0.00505466 -0.00193726,-0.00768453 -0.000523143,-0.000840314 -0.00104035,-0.00167607 -0.00155772,-0.00251197 -0.000776272,-0.00266059 -0.000965814,-0.00399104 -0.00118411,-0.00438503 -0.00139723,0.000687281 -0.00196601,0.000748434 -0.00356419,0.000669635 0.00041392,-0.00120784 0.00159818,-0.00226264 0.00203477,-0.00356662 1.17133e-005,-0.000918961 2.9055e-005,-0.00183792 4.60926e-005,-0.00275262 -0.00135676,0.00022742 -0.00159803,0.00128679 -0.00337449,0.00116403 0.00102332,-0.00118593 0.00194897,-0.00322511 0.000776272,-0.00452939 -0.000275795,0.000350182 -0.000551894,0.000700363 -0.00082206,0.00105465 -0.00177053,-0.00205667 -0.00118411,-0.00528634 -0.000534704,-0.00755735 -0.000977223,0.000700059 -0.00141989,0.00136954 -0.00206352,0.00227101 -0.000845334,-0.00243758 -0.000126564,-0.00463436 0.00189116,-0.00653784 -0.0018685,-0.000315194 -0.0018685,-0.000315194 -0.00269041,-0.000630236 0,-8.74694e-005 0,-0.000175243 0,-0.000258301 0.0015924,-0.000826928 0.00208694,-0.00154904 0.00288573,-0.00291889 0.000465793,-0.00142218 0.000937063,-0.00512449 0.0040528,-0.00404793 2.31223e-005,-0.000533943 -0.00041392,-0.000752541 -0.000850811,-0.00115962 -0.000258757,0 -0.00051721,0 -0.000775967,0 -0.000212665,0.000157597 -0.000419549,0.000315042 -0.000626585,0.00047705 -8.61003e-005,-8.74694e-005 -0.000166876,-0.000175091 -0.000247348,-0.000258301 0.000373913,-0.00182043 0.00140848,-0.00189481 0.00327668,-0.000980265 2.29702e-005,-0.000350182 2.29702e-005,-0.000350182 -0.000407988,-0.000883821 0.00210383,-0.00121666 0.00558754,-0.0010548 0.00811107,-0.00110729 -2.87508e-005,0.00051645 -5.18731e-005,0.00103275 -7.48434e-005,0.0015492 0.000529076,-0.000446474 0.00106363,-0.000888537 0.00159803,-0.00133045 0.00142583,0 0.00355841,9.2033e-005 0.00434593,0.0010723 0.00196601,-4.38107e-005 0.00263868,-9.62924e-005 0.00250056,0.00160594 -0.00105191,-0.000730788 -0.00178209,-0.000209926 -0.00228211,0.000573343 6.90628e-005,5.24816e-005 0.000143906,0.000109527 0.000218597,0.000166116 0.000471422,-0.000288725 0.00112082,-0.000157293 0.00171866,-0.000148622 5.9327e-006,0.000551437 1.17133e-005,0.00110698 2.29702e-005,0.00166283 0.00110379,0.0014529 0.00239134,0.00242891 0.00262712,0.00416187 -0.000994565,-0.000227725 -0.000994565,-0.000227725 -0.0014599,-0.000205667 0.00187382,0.00150539 0.00230508,0.0035972 0.00424812,0.00502378 4.00077e-005,0.000118198 8.04718e-005,0.000236243 0.000126412,0.000354441 -0.000747369,3.07284e-005 -0.00149459,6.13046e-005 -0.00223633,9.2033e-005 0.00362154,0.00311573 0.00877797,0.00434989 0.01294,0.00692742 0.00403546,0.00153611 0.00778356,0.00216179 0.0122326,0.00295388 0.00136239,0.000459556 0.00215601,0.000857808 0.00327105,0.00161035 0.00282823,3.07284e-005 0.00673727,-0.00164108 0.0038631,-0.00382903 -0.00511643,-0.00173296 -0.0107096,-0.000604071 -0.0159696,-0.00208314 -0.0034145,-0.00209181 -0.000764406,-0.00403044 0.00235133,-0.0049713 0.00102316,-0.00136102 0.00130489,-0.00140027 0.00317886,-0.00197802 4.59404e-005,0.000201256 9.2033e-005,0.000402511 0.000143754,0.000608178 0.00228211,-0.000573038 0.00428265,-0.000533639 0.00640945,0.000262712 -0.00343184,0.00101084 -0.00481705,0.00424477 -0.00891016,0.00271322 -0.0020982,-2.20575e-005 -0.00371342,0.00108097 -0.00152334,0.00219693 0.00530597,0.0010151 0.0162857,-0.00112493 0.0183205,0.0041967 0,0.00298887 -0.00273041,0.00403044 -0.00606459,0.00508053 0.00135676,0.00373745 0.000764558,0.00742197 0.00159818,0.0111813 0.00184507,0.00244184 0.00156334,0.00531251 0.00271885,0.00798207 0.00136833,0.00139145 0.00196601,0.0017109 0.00192022,0.00332581 -0.000770491,0.000503215 -0.00602459,0.000105115 -0.00725479,9.18809e-005 -3.43793e-005,-0.000551437 -6.90628e-005,-0.00109831 -0.000103442,-0.00164549 0.00319621,-0.00487075 -0.00536347,-0.0094438 -0.00883547,-0.0130453 -0.000321735,0 -0.000643927,0 -0.000965814,0 -0.00336278,0.00256004 0.00223039,0.00522063 0.00223039,0.00776332 -0.000982851,0.00184233 -0.00287995,0.00327333 -0.00390889,0.0052077 -0.00191429,0.00144408 -0.00191429,0.00144408 -0.00200601,0.00171972 -0.00242039,1.7646e-005 -0.00484048,3.51399e-005 -0.00726041,5.26337e-005 -3.46835e-005,-0.00238936 0.00164975,-0.00271779 0.00451251,-0.00293654 0.00192554,-0.0012121 0.00247181,-0.00229748 0.00242572,-0.0042142 -0.00236837,-0.00132162 -0.00438609,-0.00273513 -0.00635773,-0.00437621 -0.00185678,-0.00280069 -0.00145458,-0.00247683 -0.00555879,-0.00203051 -0.00123583,0.00124724 -0.00306964,0.00108964 -0.00485736,0.00044191 -0.000672677,0.000538203 -0.0023168,0.000380758 -0.00310433,0 -0.00196601,-2.19054e-005 -0.00196601,-2.19054e-005 -0.00242572,-0.000188021 -0.00459906,0.00206534 -0.00598443,0.00557507 -0.00485782,0.00938676 0.000523143,0.000792092 0.00105207,0.0015886 0.00158114,0.0023851 0.000804566,0.000586273 0.00096551,0.000826928 0.000293136,0.00154904 -0.00292041,2.6469e-005 -0.00584067,5.26337e-005 -0.00876078,7.87985e-005zm0.0211659 -0.00118152c-0.000206884,-0.000730635 -0.000241263,-0.000997759 -0.00092535,-0.00151847 0.000609243,4.7918e-005 0.00117239,-8.67088e-006 0.00162678,0.000315042 -0.000235635,0.000398252 -0.000471422,0.000800763 -0.000701428,0.00120343zm-0.00155193 -0.00384211c-0.00349543,-0.0011117 -0.00349543,-0.0011117 -0.00413327,-0.00144439 0.000126412,-0.00120769 0.000258605,-0.00241568 0.000390798,-0.00362336 0.00162115,-0.000516297 0.00303526,-0.000625824 0.00475392,-0.000590837 0.0024604,0.00275703 0.00231695,0.00368056 -0.00101145,0.00565858zm0.00582318 -0.000446626c-0.000166572,-0.000949385 -0.000528923,-0.00202168 -9.78136e-005,-0.00295388 0.000586577,0.000884125 0.000402511,0.00202625 9.78136e-005,0.00295388zm-0.00407592 -0.00266059c-0.000500021,-0.000398252 -0.00099426,-0.000792092 -0.00148865,-0.00118578 -0.000678306,-0.000218902 -0.00266728,-0.000385322 -0.0027651,-0.00047705 0.00115536,-0.000223465 0.00196023,-0.000332688 0.00315605,-0.000315194 0.000390646,0.000546874 0.00129896,0.00136102 0.0010977,0.00197802zm-0.00271885 -0.00591217c-0.000132193,-5.26337e-005 -0.000264386,-0.000100552 -0.00039095,-0.000148926 -8.61003e-005,-0.000236395 -0.000166876,-0.000468075 -0.000247348,-0.000700211 -0.000436586,0.000127173 -0.000655336,0.000459556 -0.00108629,0.000625976 -0.000747369,-8.823e-006 -0.00149459,-1.32345e-005 -0.00223602,-1.74939e-005 -5.78058e-005,-0.000253889 -0.000115155,-0.000507779 -0.000172657,-0.000757104 -0.000833621,0.000135692 -0.00100019,0.000485721 -0.00196023,0.000459556 -0.0007819,-0.000638907 0.000195627,-0.00164108 0.000649555,-0.00221868 0.00222476,-0.00109846 0.00542097,0.000223161 0.00692118,-0.00145732 -4.59404e-005,-9.2033e-005 -8.61003e-005,-0.000183914 -0.000126412,-0.000275795 -0.000724094,-0.00016642 -0.00129333,-0.000161856 -0.00167287,-0.000665224 0.000252977,-0.000665224 0.0017649,-0.00112463 0.00252383,-0.00150097 -3.46835e-005,-0.000271231 -6.92149e-005,-0.000542614 -9.78136e-005,-0.000809586 -0.000218445,-0.000118046 -0.000437043,-0.000236243 -0.000655336,-0.000350182 0,-0.000774598 0.000218293,-0.00122974 0.000580492,-0.00196038 0,-0.00223191 -0.0028801,-0.00613989 0.00104629,-0.00715058 0.00402983,0 0.00762824,0.0025074 0.0111176,0.00384211 0.0041964,0.00106332 0.00874922,0.00108523 0.0124743,0.00297578 0.00154631,0.00163241 0.00411015,0.00512023 0.00228774,0.00707635 -0.000166572,-8.823e-006 -0.000327516,-1.32345e-005 -0.000488459,-1.74939e-005 -0.00192585,-0.00222324 -0.00252946,-0.00603037 -0.00706494,-0.00622736 0.000632213,0.00168915 0.000821908,0.00283583 0.00079909,0.00459937 -0.000115155,0 -0.000224226,0 -0.000333448,0 -0.000603615,-0.00061259 -0.00120145,-0.00122092 -0.00179944,-0.0018291 -0.00272478,-0.00124313 -0.00633461,0.000949385 -0.00907673,-9.2033e-005 -0.00090238,-0.00136985 -0.000994565,-0.00192113 -0.000948472,-0.00341769 -0.00274791,0.000135692 -0.00181084,0.00396031 -0.00182241,0.00533883 -0.00193726,0.001628 -0.00193726,0.001628 -0.00368467,0.00280952 -0.00227086,0.00066066 -0.00207523,0.00174619 -0.00453563,0.00186865zm-0.0102957 -0.00798207c0.000856743,-0.00208329 0.00102894,-0.00323408 0.000460013,-0.0053259 -9.2033e-005,-1.74939e-005 -0.000183914,-3.49877e-005 -0.000270318,-5.26337e-005 -0.000609243,0.000507779 -0.00121286,0.00101966 -0.00181647,0.0015317 -0.000873629,0.00142689 -0.000873629,0.00142689 -0.000994413,0.00135235 0,-0.000752693 0,-0.00150554 0,-0.00225808 0.000776119,-0.00147481 0.00232821,-0.00354472 0.00383405,-0.0060217 3.48356e-005,0.00174604 -0.00101145,0.00387725 0.000414072,0.00537397 0.00079909,-0.00127355 0.00079909,-0.00127355 0.00167287,-0.00223191 0.00304652,-0.00236304 0.00472517,-0.00248991 0.0051505,-0.00582014 0.000574864,0.00133014 0.000574864,0.00230615 0.000574864,0.00371524 -0.000890971,0.00156228 -0.00178209,0.00312456 -0.00266713,0.00469125 -0.000810499,-0.000870891 -0.000402511,-0.00221868 -0.000195627,-0.00319453 -0.00321324,0.000494544 -0.00205774,0.0067394 -0.00616241,0.00824037zm-0.00640367 -0.00561477c-0.0012877,-0.00248565 0.00124724,-0.00338697 0.00370764,-0.00467801 1.73418e-005,9.62924e-005 3.46835e-005,0.000192585 5.1721e-005,0.000293289 -0.00163819,0.00150523 -0.00275354,0.00259929 -0.00375936,0.00438473zm0.0127156 -0.00266074c0,0 0,0 0,0zm-0.00766855 -0.00547011c-9.75093e-005,-0.000393992 -0.000195323,-0.000787681 -0.000293136,-0.00118152 -0.000230006,-0.000100704 -0.00045408,-0.000201256 -0.000678458,-0.000297548 -6.87585e-005,0.00044191 -0.000132193,0.000883821 -0.000195171,0.00133029 -0.00129941,-0.000371935 -0.00352403,-0.00109831 -0.0025754,-0.00240259 0.00141396,-0.000625672 0.00141396,-0.000625672 0.00179913,-0.000923372 0.00083925,0 0.00167865,0 0.00252353,0 0.000971442,0.000590989 0.000971442,0.000590989 0.00179365,0.000923372 0.000207036,0.00133471 -0.00116707,0.00190805 -0.00237415,0.00255137zm0.00213851 -0.00354913c-0.000741436,-0.000280054 -0.00147755,-0.000555849 -0.00221336,-0.000831339 0,-0.000332688 0,-0.000665376 0,-0.000997759 0.000563607,-0.000328276 0.00112676,-0.000656401 0.00169599,-0.000980418 -3.45314e-005,-0.000126869 -6.92149e-005,-0.000249326 -9.78136e-005,-0.000371935 -0.000580644,-0.000148774 -0.000580644,-0.000148774 -0.00369029,-0.000127021 -0.000126564,-0.00295814 -0.000897055,-0.00314631 -0.00462781,-0.00304561 4.04641e-005,-0.000118198 8.04718e-005,-0.000236395 0.000120936,-0.000354593 0.00101753,-0.000315042 0.00101753,-0.000315042 0.00169554,-0.000686977 4.04641e-005,-0.00034577 8.04718e-005,-0.000687129 0.000126564,-0.00102849 0.00171896,-0.000372087 0.00171896,-0.000372087 0.00239727,-0.000354441 0.00160381,0.0015317 0.00160381,0.0015317 0.00186819,0.0015886 0.000574864,-0.000538203 0.00114973,-0.00107215 0.00172459,-0.00160624 0.00140818,0.000144667 0.00140818,0.000144667 0.0033284,0.000665376 0.000258757,0.000590684 0.00051721,0.00118152 0.000775815,0.00177677 -0.0017646,-4.82222e-005 -0.00292574,-0.000393992 -0.00398374,0.000757104 2.31223e-005,0.000862068 2.31223e-005,0.000862068 0.000167028,0.000936455 0.00014345,-0.000192585 0.000293136,-0.000380758 0.000442671,-0.000568931 0.000729723,-6.5564e-005 0.00146553,-0.000126869 0.00220164,-0.000188173 0.000517058,-0.000402511 0.000517058,-0.000402511 0.000977223,-0.000494544 0.000712685,0.00198685 0.000304393,0.00165431 -0.00204085,0.00282716 0,0.000975854 0.000597986,0.00175486 0.000684087,0.00279202 -0.000517514,9.59881e-005 -0.00103457,0.00019228 -0.00155209,0.000292984zm-0.00680071 -0.000148622c-0.00083925,-0.000787833 0.000120936,-0.00188204 0.000586577,-0.00266089 0.00161522,0.000118198 0.00266135,0.000542766 0.00302933,0.00179426 -0.00143115,0.000687129 -0.0019257,0.000800763 -0.00361591,0.000866631zm-0.0023279 -0.00399119c-5.76537e-005,-0.000669635 -0.000275947,-0.0013522 0.000361895,-0.00186865 0.000402663,0.000201256 0.000805022,0.000402511 0.00121316,0.00060833 0.000689867,-4.4115e-006 0.00118989,-9.18809e-005 0.0017935,0.000170679 4.0312e-005,0.000262408 8.04718e-005,0.000529532 0.000126564,0.000796352 -0.00133379,7.01276e-005 -0.00192007,0.000218902 -0.00349512,0.000293289zm0.00135646 -0.00842398c2.87508e-005,-0.000446626 6.34343e-005,-0.000888537 9.78136e-005,-0.00133045 0.000546113,0.000367523 0.00109801,0.000735199 0.0016499,0.00110729 -0.000586273,7.42349e-005 -0.00116677,0.000148622 -0.00174771,0.000223161zm0.00932423 0c-0.00039095,-7.45391e-005 -0.0007819,-0.000148926 -0.00116677,-0.000223161 0.000528771,-0.000363416 0.00106317,-0.00072668 0.00159772,-0.00108979 4.60926e-005,0.000437651 9.78136e-005,0.000875302 0.000149535,0.00131295 -0.000195323,0 -0.00039095,0 -0.000580492,0zm-0.00582896 -0.000293289c0.000425329,-0.000415746 0.000856439,-0.000831644 0.0012877,-0.00124283 0.00010907,0 0.000224074,0 0.000339077,0 0.000419701,0.000376346 0.000839402,0.000752541 0.00125895,0.00112889 -0.000965814,3.51399e-005 -0.00192585,7.45391e-005 -0.00288573,0.000113938zm-0.00465641 0.00181267c-0.000683934,-0.00190379 -0.000683934,-0.00190379 -0.00187382,-0.00431049 0.000195323,-3.51399e-005 0.000195323,-3.51399e-005 0.00174741,0.0012734 6.90628e-005,-3.07284e-005 0.000143754,-6.11525e-005 0.000218597,-8.76215e-005 0.000195323,-0.00118578 0.000195323,-0.00118578 0.000459709,-0.00170223 0.000954405,0.0006958 0.00190851,0.0013916 0.00286869,0.00208755 0.00083925,-0.000783573 0.0016785,-0.00156684 0.00252353,-0.00234585 0.00010907,0 0.000224074,0 0.000339077,0 0.00198913,0.00197802 0.00198913,0.00197802 0.00252353,0.00234585 0.000954253,-0.000695952 0.00190866,-0.00139175 0.00286276,-0.00208755 0.000264386,0.000372087 0.000460013,0.00155361 0.000684087,0.00178985 0.000574864,-0.000450733 0.00114973,-0.000901619 0.00172459,-0.00134794 -0.000615024,0.00146158 -0.0012302,0.00292345 -0.00184522,0.00438503 -0.00407577,-0.000542614 -0.00815701,-0.000564672 -0.0122329,0z"/>
 </g>
</svg>
