<?xml version="1.0" encoding="UTF-8"?>
<!DOCTYPE svg PUBLIC "-//W3C//DTD SVG 1.1//EN" "http://www.w3.org/Graphics/SVG/1.1/DTD/svg11.dtd">
<!-- Creator: CorelDRAW -->
<svg xmlns="http://www.w3.org/2000/svg" xml:space="preserve" width="1in" height="2in" style="shape-rendering:geometricPrecision; text-rendering:geometricPrecision; image-rendering:optimizeQuality; fill-rule:evenodd; clip-rule:evenodd"
viewBox="0 0 0.0663336 0.106326"
 xmlns:xlink="http://www.w3.org/1999/xlink">
 <defs>
  <style type="text/css">
   <![CDATA[
    .fil0 {fill:black}
   ]]>
  </style>
 </defs>
 <g id="Dummy_x0025_Layer_x0025_Dummy_x0025_Layer">
  <metadata id="CorelCorpID_0Corel-Layer"/>
  <path class="fil0" d="M0.037522 0.0641717c7.08273e-005,9.75902e-005 0.000298042,0.000508226 0.000329671,0.000601491 0.00020667,0.000606627 -2.33838e-005,0.00113945 -0.000379683,0.00141479 -0.000329401,0.000254383 -0.00128503,0.00028412 -0.00177041,0.00028412 -0.000588921,0 -0.000801673,-0.000464162 -0.000958466,-0.000951707 -0.000145169,-0.000451186 -0.00104605,-0.00281241 -0.000376844,-0.00301083 0.000607844,-0.000180312 0.00258857,0.000880475 0.00315573,0.00166214zm-0.0120706 -0.0026148c0,-0.00102483 0.000979417,-0.000778559 0.00152752,-0.000752066 0.00255735,0.000123542 0.00158658,0.00107457 0.00213063,0.00262574 0.000233838,0.000666912 0.000534989,0.00117527 0.000154495,0.00177528 -0.000347513,6.89349e-006 -0.00123407,-0.000199235 -0.00158699,-0.000280876 -0.00139032,-0.000321831 -0.00222565,-0.00212279 -0.00222565,-0.00336808zm0.00787075 0.0021601c0.000159091,0.00060879 0.000983472,0.00244719 0.000159902,0.00252383 -0.000200452,1.87881e-005 -0.00164484,-0.00033305 -0.00190382,-0.000419016 -0.000453754,-0.00015044 -0.00103227,-0.000660288 -0.00118203,-0.00110782 -0.000185178,-0.000552966 -0.000400363,-0.00123083 -0.000489843,-0.00180339 -9.63737e-005,-0.000617576 -0.000490384,-0.00128706 0.000128003,-0.00159307 0.000191936,-9.51572e-005 0.00161483,0.000245598 0.00195167,0.000305882 0.00120961,0.000215996 0.000952113,0.00062474 0.00133612,0.00209359zm-0.00812837 -0.0170375c0,0.0015924 -0.0016858,0.00272442 -0.00310694,0.00290676 -0.00229783,0.000294798 -0.00370681,-0.00150238 -0.00343404,-0.0024311 8.01537e-005,-0.000272901 0.000510389,-0.000589596 0.000768422,-0.000735711 0.000411447,-0.000232757 0.000520256,-0.000349 0.000927513,-0.000574863l0.00229121 -0.00149819c0.000168958,-0.000106376 0.000230459,-0.000172743 0.000428072,-0.000287094 0.000391442,-0.000226404 0.000735306,-0.000332239 0.0011627,-0.000146385 0.000390766,0.000169904 0.000482544,0.000447671 0.000697054,0.00080789 0.000328049,0.000550939 0.000266008,0.0013149 0.000266008,0.0019587zm-0.0251937 -0.045061c0,0.0025833 0.00036941,0.00359732 0.000867093,0.00594084 0.000256681,0.00120825 0.00122528,0.00372546 0.00175392,0.00496467 8.78582e-005,0.000205859 0.000155712,0.000518364 0.000268441,0.000737739l0.00130503 0.0026275c0.00012949,0.000273577 0.000242354,0.000369005 0.000356434,0.000571619 0.000168823,0.00030007 0.000178014,0.000363057 0.000369005,0.000631768 0.000151927,0.000213833 0.000180718,0.000380494 0.000331969,0.000600545 8.47494e-005,0.000123407 0.000131247,0.000150711 0.000216807,0.000281957 0.000707462,0.00108525 0.000949139,0.00151616 0.00186192,0.00257208 0.000179366,0.000207481 0.000249788,0.000340079 0.000429424,0.000502414 0.000577702,0.000522013 0.000920889,0.00115743 0.00192869,0.00200303 0.0002802,0.000235055 0.00054783,0.000590543 0.00101618,0.000918727l0.00267887 0.00218091c0.000219375,0.00017085 0.000361706,0.000217753 0.000589732,0.000414826l0.00174446 0.00118487c0.000608114,0.000339809 0.00186205,0.00111945 0.00246503,0.00139627 0.000894397,0.000410636 0.00156212,0.00106363 0.00249382,0.00144182 0.000533773,0.000216672 0.000788697,0.000389415 0.00134626,0.000585406 0.000273442,9.61034e-005 0.00107201,0.000448077 0.00133977,0.0005923 0.000670561,0.00036103 0.00140357,0.000583649 0.002109,0.000823705 0.00027209,9.25891e-005 0.000421449,0.000215996 0.000686916,0.000313451 0.000227891,8.36681e-005 0.000453619,0.000123272 0.000704488,0.00022316 0.00066975,0.000266548 0.00142438,0.000651773 0.00211035,0.000822083 0.00043848,0.000108944 0.0011427,0.000392388 0.00132058,0.000713139 -0.000172337,0.000244246 -0.000570673,0.000289392 -0.000856956,0.000384549l-0.00288053 0.000846278c-0.00120839,0.000310883 -0.00245314,0.000931297 -0.003613,0.00131639 -0.0012315,0.000408879 -0.00229053,0.00105768 -0.00340349,0.00153495 -0.000669615,0.000287229 -0.00213725,0.00117919 -0.00275402,0.00160767 -0.000582973,0.000405094 -0.00125935,0.000800456 -0.00178041,0.00129341l-0.00135504 0.00114986c-0.000898857,0.000902372 -0.00226066,0.00219145 -0.00282079,0.00332902 -0.000152468,0.000309396 -0.000320885,0.000465243 -0.000459972,0.000756257 -0.000695837,0.00145574 -0.000956438,0.00214158 -0.00134653,0.00365436 -0.000259655,0.00100726 -0.000268035,0.00227012 -0.000268035,0.00329604 0,0.000553372 0.000936704,0.00501035 0.0018407,0.00500035 0.000754635,-0.000293447 0.00111837,-0.00153198 0.00256411,-0.00173148 0.00091305,-0.000125975 0.00150075,0.000877231 0.000486329,0.00156969 -0.000169499,0.000115703 -0.000500251,0.00022708 -0.0007349,0.000338998 -0.000627173,0.000298853 -0.000977389,0.000279795 -0.00135207,0.000795996 -0.000337781,0.000465513 0.000506739,0.00133234 0.000770449,0.00166349 0.000156793,0.000196802 0.000130301,9.74551e-005 0.000295339,0.000277632 0.000193694,0.000211265 0.000290338,0.00035346 0.000502144,0.000569321 0.0011577,0.00118014 0.00288161,0.000784506 0.00288161,0.000313586 0,-0.000802619 -0.0012434,-0.000971442 -0.00086074,-0.00194978 0.000263304,-0.0006734 0.00112486,-0.000829652 0.00168255,-0.00111188l0.0040331 -0.00147183c0.00171256,-0.000627308 0.00773274,-0.00219564 0.00899803,-0.00192018 0.00019883,0.000559184 -9.47517e-005,0.00052796 -0.000524446,0.000803835 -0.000232216,0.000149089 -0.000198695,0.000179771 -0.000465784,0.00032048 -0.000563239,0.000296826 -0.000919403,0.00066137 -0.00147805,0.000954276 -0.000412528,0.000216402 -0.00276267,0.0016489 -0.0029861,0.00188233 -0.000529718,0.000553507 0.000188557,0.00197695 5.28501e-005,0.00277808 -0.0008725,0.000288851 -0.00108093,-0.000345486 -0.00175487,-0.00088088 -0.000647448,-0.000514579 -0.000741929,-0.00037306 -0.00137059,-3.60895e-005l-0.00235392 0.00136194c-0.000492682,0.00032467 -0.00147345,0.000788832 -0.00167863,0.00134396 0.000329806,0.000580405 0.00154549,0.00103267 0.00221646,0.0012311 0.00024776,7.31251e-005 0.000416313,0.000175716 0.000606087,0.000254519 0.000210319,8.71824e-005 0.000460377,0.000149494 0.000655963,0.000193829 0.000506604,0.000114892 0.000898587,0.00030845 0.00132963,0.000391848 0.00093373,0.000180582 0.00203777,0.000220457 0.0026225,0.000814784 0.00126016,0.00128084 0.000895073,0.00367653 0.000547154,0.00528785 -9.04264e-005,0.000419151 -0.000142736,0.000801943 -0.000221538,0.0012119 -0.000123677,0.000642987 -0.000502144,0.00125475 -0.000183556,0.00179596 0.000348865,0.00059284 0.000625821,0.000493358 0.00114189,0.000164092l0.00329441 -0.00171418c0.000707732,-0.000409419 0.00244787,-0.00143817 0.00325941,-0.00174757 0.000573512,-0.000218835 0.00112026,-0.000773017 0.00173973,-0.000418881 0.00108714,0.00062136 0.000654206,8.75879e-005 0.00176703,-7.71801e-005 0.000669885,-9.90771e-005 0.000935893,0.000137735 0.00118838,0.000628795 0.000291149,0.000565942 -1.3787e-005,0.0013099 -0.000211806,0.00184624 -0.000259925,0.000704082 -0.000345621,0.00036549 -0.000303584,0.00117108 0.000562563,-0.00013368 0.000701514,-0.000246949 0.00101186,-0.000603248 0.000298313,-0.000342377 0.000293311,-0.000672453 0.000358597,-0.00120852 5.87974e-005,-0.000482274 0.000188422,-0.000830463 0.000306828,-0.00127165 0.000151386,-0.00056432 0.000313857,-0.000634472 0.000542423,-0.00103565 0.000196397,-0.000344675 5.13633e-005,-0.000198019 0.000359948,-0.000423882 0.000216537,-0.000158415 0.000225998,-0.000225458 0.000418611,-0.000368194 0.000225187,-0.000166931 0.000699216,-0.000535395 0.000955087,-0.000618252 0.000398876,-0.000129219 0.000936974,-0.000222484 0.00134518,-5.35259e-005 0.00029223,0.000120839 0.000234649,0.00020275 0.000352514,0.000437534 0.000185584,0.000369545 0.000217348,0.000433209 0.000217348,0.000906156 0,0.000520256 -0.000760447,0.00145601 -9.24539e-005,0.00171526 0.000168147,6.52854e-005 0.00472772,-0.00216348 0.00557481,-0.00269035 0.000155441,-9.67792e-005 0.000179771,-0.000143952 0.000319398,-0.000253167 0.000519986,-0.000406851 0.000579053,-0.000323453 0.00134396,-0.00108782 0.00130071,-0.0012999 0.00215847,-0.00371248 0.00246382,-0.00547803 0.00023965,-0.00138654 0.000453078,-0.00277646 0.000579189,-0.00420219 0.000140708,-0.00158996 0.000411312,-0.00276551 0.000412393,-0.00445455 1.622e-006,-0.00227039 -5.55534e-005,-0.00455633 -0.000507145,-0.00677914 -0.000102862,-0.000506199 -0.000553507,-0.00160294 -0.00023127,-0.00197492l0.00019883 2.433e-006c2.0275e-006,5.40666e-007 0.000222349,0.000116108 0.000232757,0.000123137 0.0010762,0.000728412 0.0027401,0.00321886 0.00317006,0.00433898 0.000299934,0.000781262 0.00075058,0.00111337 0.000523094,0.00209643 -0.00190679,0.000596895 -0.00290567,-0.00118892 -0.00188774,0.00270428 0.000122866,0.000469704 0.000643528,0.00145534 0.00115297,0.00152603 0.000887503,-0.000189368 0.00115851,-0.000917645 0.0019906,-0.000945355 0.000509443,0.000836951 -0.000112999,0.0016224 0.000870337,0.00191572l0.000364003 -0.000497278c0.000416448,-0.000776667 0.000590272,-0.0017696 0.000797212,-0.00199317 0.000385089,-0.000416178 0.00224579,0.000306017 0.00320182,0.000306017 0.000709219,0 0.000710976,-0.000359002 0.000683267,-0.00103024 -2.05453e-005,-0.000496331 -9.15077e-005,-0.00110215 -0.000181799,-0.00157726 -8.86692e-005,-0.000466324 -0.000227485,-0.00101564 -0.000326157,-0.00146237 -0.00014571,-0.000660018 -0.000240056,-0.000779505 -0.000575134,-0.00120717 -0.00115284,7.47471e-005 -0.00177798,0.00149981 -0.00289027,0.00149981 -0.00028385,0 -0.000303854,-0.000328995 -0.000386982,-0.000593922 -9.09671e-005,-0.000289527 -0.00022708,-0.000444698 -0.000318587,-0.000678806 -0.000353325,-0.000903453 -0.000839654,-0.00180664 -0.00137518,-0.00263345l-0.00246719 -0.00354298c-0.000607709,-0.000857902 -0.00142979,-0.00169445 -0.00214698,-0.00242867l-0.00174486 -0.0017596c-0.000658802,-0.000679888 -0.00137099,-0.00125097 -0.00209711,-0.00197978l-0.00162862 -0.00137424c-0.000858713,-0.000912374 -0.000558643,-0.00119284 0.000461999,-0.00255478 0.000100969,-0.000134761 0.000124488,-0.00012584 0.000234514,-0.000268306l0.0014479 -0.00212482c0.00014625,-0.000226809 0.000190044,-0.000452402 0.000332374,-0.000671778 0.00105092,-0.00161862 0.00133166,-0.00219497 0.00211684,-0.00396565 0.000335754,-0.000757068 0.000332915,-0.000980768 -0.000231946,-0.00135734 -0.000804106,-0.00053607 -0.0017619,-0.00100956 -0.00246598,-0.00161064 -0.00020302,-0.000173283 -0.000378601,-0.000293717 -0.000561887,-0.000441589 -0.00035684,-0.000287905 -0.00082384,-0.000511335 -0.00123826,-0.000763691 -0.00055175,-0.000335889 -0.00114121,-0.000920619 -0.00171756,-0.00128584l-0.00055621 -0.000446185c-0.000953465,-0.000714085 -0.00196843,-0.00144682 -0.00273334,-0.00234325 -0.000231811,-0.000271685 -0.000558373,-0.00046646 -0.000811134,-0.000691377 -0.000421044,-0.000374546 -0.000841682,-0.000962386 -0.0012807,-0.00128503 -0.000621631,0.000182069 -0.00058838,0.000753148 -0.000669885,0.00137654 -0.000506334,0.00386725 -0.00090075,0.00770652 -0.00108498,0.0116219 -3.0818e-005,0.0006538 -0.000125435,0.00124056 -0.000125435,0.00199519 -0.00027155,0.000137464 -0.000221132,0.000148007 -0.00056432,0.000171797 -0.000272361,-0.000444968 -0.000589461,-0.000875338 -0.000936569,-0.00128192l-0.0038905 -0.00512065c-0.00033305,-0.000452673 -0.000711652,-0.000797347 -0.00104957,-0.00123813 -0.000326562,-0.000426315 -0.000717194,-0.000773963 -0.00102145,-0.00119433l-0.0046969 -0.00546154c-0.000260196,-0.00027628 -0.000346297,-0.000239785 -0.000588245,-0.000557562 -0.000404553,-0.000531204 -0.00359435,-0.00367693 -0.00427856,-0.00423004l-0.00146101 -0.00133207c-0.000453619,-0.000435642 -0.000761934,-0.000677049 -0.00123542,-0.00105214 -0.000402391,-0.000318723 -0.00072206,-0.000696648 -0.00116622,-0.00104916 -0.00093792,-0.000744227 -0.00144344,-0.00123475 -0.00249382,-0.00201358 -0.000475921,-0.00035292 -0.00083979,-0.000639878 -0.00129341,-0.000995096 -0.000226674,-0.000177609 -0.000436588,-0.000275469 -0.000679212,-0.000463891l-0.00554156 -0.00347148c-0.000179501,-8.86692e-005 -0.000218294,-8.09647e-005 -0.00038982,-0.000183826 -0.000123677,-7.42064e-005 -0.000197884,-0.000147872 -0.000342782,-0.000227891 -0.000487275,-0.000268981 -0.00108552,-0.000454159 -0.00158658,-0.000702055 -0.00145993,-0.000722195 -0.00149643,-0.00081992 -0.0031041,-0.00140141 -0.00142749,-0.000516336 -0.00243638,-0.0011185 -0.00243638,0.00113756zm0.0654553 0.0305559c0.000164092,-0.0006046 -5.27149e-005,-0.000561482 -0.000217618,-0.00108363l-0.0041219 -0.0103961c-0.000191936,-0.000347108 -0.000230729,-0.000730305 -0.000409149,-0.0010935l-0.00169147 -0.00417529c-0.000484977,-0.00148224 -0.00100591,-0.0027601 -0.00224849,-0.00354217 -0.00127624,-0.00080343 -0.00264034,-0.00124029 -0.00439562,-0.0014698 -0.00362287,-0.000473894 -0.00686673,0.000467541 -0.00930473,0.00214388 -0.000484977,0.000333456 -0.00102443,0.00100023 -0.00141722,0.00144655 -0.000435101,0.000494304 -0.0014475,0.00171067 -0.000593246,0.00236001 0.000384819,0.0002925 0.0010793,0.00115311 0.00139654,0.00153279l0.000740577 0.000691512c0.000717734,0.000477949 0.000882637,0.000780992 0.00121947,0.000997123 0.000236271,0.000151522 0.000206805,9.02912e-005 0.000423477,0.000291284 0.000122596,0.000113675 0.000254789,0.000239245 0.00037306,0.000343864l0.00591651 0.00431438c0.000214374,0.000167066 0.000129354,0.000142871 0.000420773,0.000290878 0.000215726,0.000109755 0.000267495,0.000127597 0.000444428,0.000268846 0.000278713,0.000222484 0.000575809,0.00039347 0.000838438,0.000593787 0.00119406,0.000911428 0.00236501,0.00143925 0.00370099,0.00216456l0.000938731 0.000565942c0.000294663,0.00019883 0.000636364,0.000291419 0.000926702,0.000501738 0.00030845,0.000223565 0.000622577,0.000322372 0.000965089,0.000536746l0.00484883 0.00244678c0.000420233,0.000187476 0.000740577,0.000281822 0.00124583,0.000269792zm-0.0577854 0.0532539c0.000582433,-0.00017031 0.00144966,0.00111985 0.00117825,0.00227255 -0.000193288,0.000820731 -0.00100469,0.00180839 -0.00160524,0.00204791 -0.000610547,0.000243705 -0.00113121,0.000371438 -0.00115067,-0.000439021 -1.75716e-005,-0.00073071 0.00053945,-0.00357786 0.00157766,-0.00388144zm0.0186073 0.00188179c-5.29853e-005,-0.000401309 0.000360759,-0.00129219 0.000540125,-0.00152238 0.000218429,-0.0002802 0.00100861,-0.00108147 0.00121988,-0.00142574l0.000678266 -0.00082384c0.000688538,-0.000667452 0.000819515,-0.000544991 0.00133058,-0.000318452 9.08319e-005,0.000928459 -0.000955762,0.00227255 -0.00141398,0.00273996 -0.00067002,0.000683537 -0.00156374,0.00189179 -0.00235487,0.00135045zm-0.00650408 -0.00432087c-0.000313992,-6.90701e-005 -0.000685159,-4.73083e-006 -0.000951302,0.000167471 -0.00015017,9.71847e-005 -0.000196532,0.000168958 -0.000304395,0.000268576 -0.000124083,0.000114621 -0.00021478,0.000161389 -0.00032075,0.000250869 -0.000220727,0.000186124 -0.000103132,0.000159361 -0.000305341,0.000338862 -0.000476056,0.000422395 -0.000350757,0.000516336 -0.000631903,0.0010866 -0.000141519,0.000287229 -0.000228972,0.000594462 -0.000371438,0.000841141l-0.00131544 0.00218997c-0.00026006,0.000408744 -0.000709489,0.000977659 -0.00118311,0.00117811 -0.0018457,0.000780992 -0.000849927,-0.00236068 -0.000535259,-0.00282309 1.60848e-005,-2.37893e-005 0.00027993,-0.000355353 0.000284526,-0.000359948 0.000108133,-0.000108133 0.000194099,-0.000140979 0.000379277,-0.000196127 0.000714355,-0.000212752 0.00141709,-0.000468757 0.00193721,-0.000991582 0.00012165,-0.000122326 0.00012192,-0.000184908 0.000240732,-0.000334267 0.000291825,-0.000366707 0.000267224,-0.000243976 0.000395362,-0.000815054 7.93427e-005,-0.000353866 0.000143682,-0.000651503 4.44698e-005,-0.001027 -0.000365625,-0.00138411 -0.00218416,0.000441184 -0.00284296,0.000942922 -0.000542018,0.000412934 -0.0023446,0.00186043 -0.0030011,0.00163173 -0.00102497,-0.000356975 0.000433479,-0.00239772 -0.00226823,-0.00238596 -0.00224755,9.73199e-006 -0.00256803,9.02912e-005 -0.00206399,-0.00221565 0.000231405,-0.00105889 0.000773558,-0.00199654 0.000979011,-0.00259858l0.000563915 -0.00178839c0.000237758,-0.000872635 0.000704623,-0.00160145 0.00104403,-0.00246503 0.000524176,-0.00133328 -3.244e-005,-0.00195302 -0.00124556,-0.00124596 -0.000759365,0.00044267 -0.0011527,0.00122853 -0.00147832,0.00202371 -0.000230324,0.000562428 -0.000315614,0.00125489 -0.0005235,0.00183597 -0.00013422,0.000375087 -0.000181393,0.000582838 -0.000271009,0.00094184 -9.25891e-005,0.000370897 -0.000184908,0.000480652 -0.000320615,0.000829247 -0.000236136,0.000606898 -0.000411041,0.00106863 -0.000754229,0.00160389 -0.000751796,0.00117298 -0.00150332,0.0024207 -0.00240029,0.00353542 -0.000141114,0.000175581 -0.000138816,0.000121785 -0.000261007,0.000316425 -0.000204642,0.000326022 -0.000580675,0.000586893 -0.000827084,0.000885611l-0.000421584 0.00068597 0.00053999 7.94779e-005 0.000490249 -0.000798564c6.93404e-005,-9.24539e-005 0.000204507,-0.000299664 0.000271009,-0.000376033 0.000139222,-0.000160037 0.000166255,-0.000122596 0.000302232,-0.000267359l0.000313451 -0.000331699c0.000395768,-0.000342377 0.000379953,-0.000769773 0.00114743,-0.00060041 0.000343728,0.000720167 -0.000164227,0.00179366 -0.000328725,0.00257006 -0.000297637,0.00140492 6.40689e-005,0.0029888 -0.000228161,0.00441832 -0.000289662,0.00141695 -0.000295069,0.00265859 0.00175108,0.0025318 0.00182799,-0.00011327 0.00288581,-0.00155401 0.00377655,-0.00244341 0.000165309,-0.000165038 0.000587163,-0.000671102 0.000707867,-0.000863173 0.000392794,-0.000624875 0.000530664,-0.00155915 0.0011258,-0.0020225 0.000369275,-0.000287499 0.000585271,-0.00036549 0.00096171,-9.71847e-005 1.35167e-007,0.000572836 -0.000138546,0.00100131 -0.000384819,0.0014598 -0.000635688,0.00118338 -0.00123529,0.00367477 0.00107985,0.00300975 0.00178474,-0.000512551 0.00260628,-0.00256546 0.00428518,-0.00311897l0.000743146 0.000656233c0.000249788,0.000228567 0.000625145,0.00034062 0.00103389,0.000396443 0.00133085,0.000181664 0.00231554,-0.0003613 0.00323481,-0.00100767 0.000120163,-8.44791e-005 0.000293311,-0.000168688 0.000437669,-0.000276551 0.000387117,-0.000289121 0.00180988,-0.00162416 0.00225093,-0.00120555 0.000348594,0.000752472 -0.000359948,0.00156617 -8.47494e-005,0.00208927 0.000322642,0.00061325 0.00132693,0.000276956 0.00177893,-8.66417e-005 0.000871419,-0.000700974 0.00213536,-0.00210481 0.00299894,-0.00204602 0.000525933,0.00078721 0.000516606,0.00131679 0.000917105,0.00215861 0.00026371,0.000554318 0.000525798,0.00174067 0.000693539,0.00237798 0.00021924,0.000832626 0.000784642,0.00120744 0.00132287,0.00175392 0.000588245,0.000597301 0.0011327,0.00154482 0.00179217,0.00207291 0.00124826,0.000999556 0.00242502,5.20391e-005 0.00211536,-0.000678806 -0.000208292,-0.000491601 -0.00215415,-0.000696648 -0.00337389,-0.00271049 -0.000233838,-0.000386036 -0.000627173,-0.00106092 -0.000792481,-0.0015044l-0.000447131 -0.0018457c-0.00016612,-0.00136532 0.000738685,-0.00608628 0.00148845,-0.00752769l0.00130287 -0.002556c0.000107322,-0.000236136 0.000169904,-0.000251545 0.000299394,-0.000492952 0.000101375,-0.000188828 0.000150575,-0.000336565 0.000262223,-0.000521202 0.000127732,-0.00021113 0.000163687,-0.000184232 0.000290743,-0.000424017l0.000559454 -0.00101605c0.000196938,-0.000444022 0.000315479,-0.000378466 0.000500116,-0.00100199 0.000138816,-0.000468352 0.000303178,-0.000580946 0.000395497,-0.0011058 7.40713e-005,-0.000421314 0.000131517,-0.000970496 -0.000134356,-0.00125827 -0.000434696,-0.000196532 -0.000669074,6.60964e-005 -0.000919132,0.000205048 -0.000293041,0.000162876 -0.000486059,0.000208021 -0.000753148,0.000391172 -0.000578107,0.000396579 -0.000797212,0.000427802 -0.0012953,0.000993339 -0.00027601,0.000313316 -0.000203696,0.00043794 -0.000380764,0.000762474l-0.000407797 0.000739361c-0.000256952,0.00045024 -0.000685835,0.000964143 -0.000837897,0.00144574 -8.48846e-005,0.000268981 -0.00011354,0.000647312 -0.000183151,0.000966981 -7.29899e-005,0.000334807 -0.00019491,0.000549046 -0.000254383,0.000893991 -0.000132328,0.000768692 -0.000215185,0.00111958 -0.000682996,0.00159983 -0.000873581,0.000896695 -0.000862633,0.000723141 -0.00124488,0.00104497l-0.000666506 0.000476867c-0.000306558,0.000203426 -0.000630687,0.000538233 -0.000977254,0.000737469 -0.000814919,0.000468217 -0.00159064,0.00101916 -0.00233879,0.00166768 -0.000774369,0.000671237 -0.00469109,0.00431816 -0.00565794,0.00217753 -0.000679077,-0.00150332 0.000301827,-0.00316182 -6.63668e-005,-0.00379967zm0.0417355 0.000893721c-0.000420233,-0.000916834 0.000105295,-0.00168025 0.000274253,-0.00261209 0.000169904,-0.000936704 0.000421314,-0.00172053 0.00063704,-0.00265535 0.000206805,-0.00089683 0.000631498,-0.00159091 0.000957384,-0.00233027 0.000787345,-0.00178609 -0.000778289,-0.00188044 -0.00190206,-0.000256681 -0.000984012,0.00142182 -0.00132923,0.0013199 -0.00248328,0.00245287 -0.00106917,0.0010497 -0.00139992,0.0015482 -0.00223525,0.002699 -0.000126516,0.000174365 -0.00024776,0.000633661 -0.000884935,0.000774234 -0.000436588,-0.00028412 -0.000670426,-0.000502684 -0.000450104,-0.0011773 0.000167877,-0.000514173 0.000173283,-0.000977659 0.000333996,-0.0014552 0.000110026,-0.000326697 0.000455376,-0.00096982 0.000625686,-0.00123164 0.000233703,-0.000359137 0.000448618,-0.000892234 0.000319939,-0.00141952 -8.35329e-005,-0.000342106 -0.000580946,-0.000784236 -0.00104876,-0.000801402 -0.00129949,-4.78489e-005 -0.00185205,0.00223363 -0.00218578,0.00316533 -0.00019464,0.000543369 -0.000209373,0.000967792 -0.000335889,0.00152319 -0.000359137,0.00157699 -0.00107768,0.00323778 0.00155888,0.00298056 0.000472677,-4.60918e-005 0.000891694,-0.000291014 0.00128543,-0.000563104l0.000529177 -0.000403742c0.000637716,-0.00050309 0.00192531,-0.00212455 0.00229986,-0.00212806 0.000509037,0.000191396 0.000555264,0.000170986 0.000671913,0.000745984 0.00021113,0.00104119 -0.00029196,0.00257803 -0.000468217,0.00353001 -0.000150846,0.000814784 -0.000380899,0.00139492 -0.00050728,0.00228485 -7.05569e-005,0.000496737 -0.000267089,0.00181556 -0.000569051,0.00214577 -0.000102456,0.000111918 -0.000236812,0.000168282 -0.000390496,0.000327373l-0.000665154 0.000763691c-0.000131382,0.000145574 -0.000155847,0.000179636 -0.000285742,0.000358191 -0.000126246,0.000173824 -0.000208427,0.000225187 -0.000330752,0.000385495l-0.0011112 0.00160456c-0.000111512,0.000167336 -0.000173824,0.000165579 -0.000300745,0.000346297l-0.000544586 0.000807214c-0.000244922,0.000493628 -0.000136924,0.00023938 -0.000313046,0.000409149 -0.000229107,0.000220862 -5.47424e-005,0.00013368 -0.000213158,0.00042645 -0.000155712,0.000287634 -0.000160037,0.00010178 -0.000341971,0.000382116 -0.000131247,0.000202344 -0.000135302,0.000250599 -6.69074e-005,0.000424828 0.000331834,-2.41948e-005 0.000140844,0.000100023 0.000289392,-0.000196262 0.000351027,-0.000700298 0.000143412,-6.75833e-006 0.00043429,-0.000507821 9.16429e-005,-0.000157874 9.05616e-006,-0.000117595 0.000152603,-0.000277902 0.000153955,-0.000171797 0.000106646,-4.81193e-005 0.000267765,-0.000231135l0.00143371 -0.00178406c0.000106917,-0.000138411 0.000306287,-0.000769368 0.000932514,-0.000912644l0.00028412 0.000252761c2.6763e-005,0.0009782 -0.00040158,0.00180555 -0.000556616,0.00267292 -0.000169364,0.000946841 -0.000409825,0.00160416 -0.000518364,0.00263426 -3.91983e-005,0.000371978 -0.000405094,0.00246057 -0.00051958,0.0026175 -0.000121244,0.00016612 -5.14984e-005,-5.81216e-006 -0.00021924,0.000218159 -6.10953e-005,8.13702e-005 -8.55604e-005,0.000157199 -0.000119893,0.000237082 -0.000200857,0.000467676 -0.000672589,0.000808431 -0.000814649,0.0011973 -5.74458e-005,0.000157334 -0.000120298,0.000229918 6.46096e-005,0.00026006 0.000500116,8.15054e-005 0.000772612,-0.000298853 0.00104497,-0.000876285 0.000132328,-0.000280606 7.33954e-005,-0.000577026 0.00021924,-0.000779505 0.000182475,-0.000253572 0.000107187,0.000150711 0.000369545,-0.000630281 0.000138816,-0.000413069 0.0001991,-0.000332915 0.000371978,-0.000632714l0.000911833 -0.00209211c0.000131517,-0.000268306 0.000170175,-0.000502279 0.000243029,-0.000755175 7.54229e-005,-0.000262358 0.00018707,-0.000449699 0.000289392,-0.000715031l0.000489303 -0.00151535c7.94779e-005,-0.000247084 0.000114756,-0.000554994 0.000185178,-0.000813162 7.88021e-005,-0.000288716 0.000175581,-0.000466595 0.000254654,-0.000754094 0.000147196,-0.000534448 0.000180042,-0.00104997 0.000399552,-0.00159875l0.000767475 -0.00223241c0.000117189,-0.000286553 0.0002114,-0.000337916 0.000349541,-0.000655558 0.000473353,-0.00108809 0.00182488,-0.00253086 0.00267819,-0.00332888l0.00160456 -0.00139924c0.000141114,-0.000126786 0.000770044,-0.000477003 0.00116595,-0.000836951 0.0001868,-0.000169634 0.000287634,-0.000322913 0.000510794,-0.000480652 -6.06898e-005,-0.000912644 -0.000500522,-0.000844926 -0.00113634,-0.000288175 -0.000735306,0.000644068 -0.002689,0.00270901 -0.00368869,0.0027013zm-0.0433613 -0.00868607c-0.000359948,0.000500657 -0.000501873,0.000474029 -0.000647042,0.00127976 -0.000399147,0.00221443 -0.000120569,0.00213698 2.08156e-005,0.00410528 8.13702e-005,0.00113472 0.000145439,0.000756797 0.000409825,0.00154184 0.000453078,0.00134572 0.00115324,-0.000843304 0.00241786,0.000507415 0.000209238,0.00022343 6.78536e-005,0.000220727 0.000380629,0.000408473 0.000571349,0.000343053 0.00120231,-0.000197208 0.00178906,-0.000404148 0.000773693,-0.000272766 0.00158172,-0.00083195 0.00221889,-0.00100496 0.0010935,-0.000296961 0.00110985,0.00080762 0.0024526,0.00080762 0.000339809,0 0.00118419,-0.000642717 0.00137275,-0.000768286l0.00124232 -0.000904399c0.00124394,-0.00100334 0.00105254,-0.00228769 0.00137856,-0.00298177 0.00015463,-0.000328995 0.000163687,-0.00134045 0.000938596,-0.00228323 0.00016612,-0.000202074 0.000235866,-0.000448212 0.000401985,-0.000668669 0.000488357,-0.000647718 0.000122055,-0.00100875 -0.000605816,-0.000607168l-0.0056601 0.0029984c-0.000448077,0.000213563 -0.00118947,0.000556481 -0.00171513,0.000356434 -0.000477543,-0.000181664 -0.00104741,-0.000486059 -0.00149981,-0.000646231 -0.0013987,-0.000495385 -0.00362598,-0.00168782 -0.004896,-0.00173635zm0.0214711 0.00879123c0.000460377,-0.000162605 0.00100726,0.000263034 0.00121028,0.000553372 0.000775991,0.00110999 -0.000206534,0.00303881 -0.00113932,0.00360435 -0.00040604,0.000246138 -0.00111675,0.000390902 -0.00129922,-8.89396e-005 -0.00028831,-0.000757608 0.000314668,-0.00227661 0.000515795,-0.00298029 0.000137735,-0.000481869 0.000257763,-0.000928053 0.000712463,-0.0010885zm-0.000690431 -0.00347689c0,-0.00117149 0.00107822,-0.00390996 0.00145128,-0.00512092 0.000143277,-0.000464838 0.000323859,-0.000761393 0.00047457,-0.0011723 0.000414015,-0.00112783 0.00156225,-0.00241434 0.000956168,-0.00352731 -0.000503495,-0.000134491 -0.000773152,-5.69051e-005 -0.00112459,0.000213293 -0.000299123,0.000230053 -0.000508902,0.000338187 -0.000789778,0.00056797 -0.000594327,0.000486194 -0.000788832,0.000885611 -0.000936298,0.00185678l-0.000605681 0.00218186c-7.77207e-005,0.000206399 -0.000153414,0.000282768 -0.000230189,0.00048741 -6.25821e-005,0.000167066 -9.54276e-005,0.00032075 -0.000147737,0.000492682 -0.000124083,0.000407257 -0.000271144,0.000505388 -0.000426586,0.000930351l-0.000715707 0.00143195c-7.82614e-005,0.000114621 -0.000165444,0.000230324 -0.000256411,0.000387793l-0.000869661 0.00127543c-0.000126651,0.000152468 -0.000149494,0.00023519 -0.000261412,0.000381305 -0.000447807,0.00058473 -0.00146791,0.00168404 -0.00200303,0.00214888 -0.0006046,0.000525122 -0.000475245,0.00209657 0.000928324,0.000212752 0.000157874,-0.000211941 0.000159632,-0.000167471 0.000293311,-0.000420368l0.000642446 -0.000862362c0.000364274,-0.000379277 0.00034116,-0.000482274 0.00107403,-0.000482274 0.000298042,0.000851549 3.3251e-005,0.000760717 -0.000212617,0.00147886 -9.08319e-005,0.000265332 -0.000273983,0.00325927 -0.000321831,0.00383454 -8.23164e-005,0.000992393 -0.000675833,0.00343715 0.000613115,0.00395754 0.0010989,0.000443617 0.00214712,-2.40596e-005 0.00304341,-0.000586488 0.000439697,-0.00027601 0.000729223,-0.000623658 0.00103443,-0.000968063l0.00178474 -0.00229134c0.000476597,-0.000830733 0.00081181,-0.00202777 0.00081181,-0.00318939 0,-0.000412528 -0.00013395,-0.00162822 -0.000276416,-0.00193599 -0.000498764,-0.00107741 -0.00291257,-0.000266413 -0.0038955,-0.000739902l-3.41971e-005 -0.000542694zm0.00263859 -0.000433614c0.000863444,0 0.00153238,-0.00026006 0.00230716,-0.000692593 0.000611493,-0.000341431 0.00125678,-0.000569592 0.00183556,-0.000884665 0.000549993,-0.000299529 0.00139695,-0.000396714 0.00186746,-0.000776802 0.000213158,-0.000172337 2.96015e-005,-9.67792e-005 0.00035319,-0.000291825l0.00119568 -0.000879529c0.000617305,-0.00039739 0.00154874,-0.000112864 0.00225606,-0.000386847 0.00197681,-0.000765583 0.00128354,-0.000950221 0.000481598,-0.0032321 -0.000169904,-0.000483491 -0.000618927,-0.00147737 -0.000862092,-0.00185895 -0.000223971,-0.000351298 -0.000256546,-0.00046254 -0.0007349,-0.000325481l-0.0064519 0.0030695c-0.00162538,0.000865066 -0.00168634,2.29783e-006 -0.00253248,0.00283079 -0.000111648,0.000373735 -0.00027155,0.000587974 -0.000371032,0.000988878 -0.000110431,0.000445914 -0.000185584,0.000621225 -0.000344269,0.00102037 -0.000362922,0.000913185 2.24376e-005,0.00141925 0.000999962,0.00141925zm0.00560198 0.00300854c0,-0.000813432 -0.000919943,-0.00291135 0.00176108,-0.00250923 0.000476327,7.15031e-005 0.000768692,0.000290338 0.000951978,0.00063312 0.000434696,0.000813297 -5.87974e-005,0.00174716 -0.000368194,0.00238407 -0.000204507,0.000420638 -0.00036103,0.000601491 -0.00055202,0.00102348 -0.000147467,0.000325751 -0.000399552,0.000739226 -0.000814378,0.000739226 -0.00139546,0 -0.00097847,-0.000980633 -0.00097847,-0.00227066zm-0.000380494 0.00463135c0.000408879,0 0.00146088,-0.000298988 0.00176,-0.000510254 0.000718275,-0.000507145 0.00176622,-0.00172351 0.00214185,-0.00243651l0.000545532 -0.00173662c0.000425504,-0.00125245 0.000693675,-0.0025583 0.000549452,-0.00388009 -4.66324e-005,-0.000426991 -0.00038955,-0.0013741 -0.000678401,-0.00160416 -0.000176392,-0.000140438 -0.000595814,-0.000268035 -0.000804511,-0.000333861 -0.000435912,-0.000137329 -0.000534043,-8.89396e-005 -0.00094603,7.09624e-005 -0.000418476,0.00016247 -0.000428478,0.000237623 -0.00073017,0.000415502 -0.000120569,7.10976e-005 -0.000245598,0.000121244 -0.000371843,0.000197073 -0.000646907,0.000388874 -0.000814378,0.000601356 -0.00130341,0.00098658l-0.000814649 0.000902777c-0.000431992,0.000753553 -0.00087696,0.00130395 -0.00147805,0.0019541 -0.000689214,0.000745443 -0.000581216,0.00299205 -0.00042226,0.00395889 9.47517e-005,0.00057608 0.000434696,0.00113026 0.000830869,0.0014671 0.000330888,0.000281552 0.00122623,0.000548506 0.00172162,0.000548506zm0.00265737 0.0157537c3.06828e-005,-0.000367383 0.000288175,-0.0019368 -0.000208427,-0.00183516 -0.000201398,4.12258e-005 -0.000581757,0.00109958 -0.000631768,0.00129165 -0.000127732,0.000489573 -0.000363868,0.00174513 -0.000363868,0.00218835 0,0.00109958 0.00142655,0.0015063 0.00225039,0.000985499 0.000260601,-0.000164768 0.000314938,-0.000155712 0.000324805,-0.000521067 -0.0012784,-0.000569321 -0.00137343,-0.000376168 -0.00137113,-0.00210927zm-0.0150039 -0.0229164l0.0005604 5.10929e-005c6.19063e-005,-0.000144088 0.000164092,-0.000318047 0.000252761,-0.000469839 0.000139086,-0.000238299 0.000164768,-0.000242354 0.000293987,-0.000422531 0.000133545,-0.000186395 0.000129625,-0.000272766 0.000245733,-0.000468893 8.77231e-005,-0.000148278 0.000200993,-0.000282363 0.000298042,-0.000485788 0.000377115,-0.00079113 0.00127516,-0.00177136 0.000538909,-0.00177136 -0.000900885,0 -0.00182299,0.00190923 -0.00195599,0.00235365 -6.02843e-005,0.000201804 -0.000104078,0.000361435 -0.00016666,0.000549182 -1.7031e-005,5.13633e-005 -8.21812e-005,0.000250328 -8.85341e-005,0.000285337l2.13563e-005 0.000379142zm0.0151835 0.0207198c0.000173959,-0.000121244 0.000141925,-6.73129e-005 0.000233433,-0.000384549 0.000100564,-0.00034873 5.67699e-006,-0.00015855 0.000226674,-0.000340484 0.000222484,-0.000183286 0.000358867,-0.00046308 0.000227891,-0.000747876 -0.00021505,-7.83966e-005 -0.000226945,-5.05523e-005 -0.000336024,0.0001991l-0.000233838 0.000349811c-0.000221808,0.000221808 -0.000181393,0.000603924 -0.000118136,0.000923998z"/>
 </g>
</svg>
