<?xml version="1.0" encoding="UTF-8"?>
<!DOCTYPE svg PUBLIC "-//W3C//DTD SVG 1.1//EN" "http://www.w3.org/Graphics/SVG/1.1/DTD/svg11.dtd">
<!-- Creator: CorelDRAW -->
<svg xmlns="http://www.w3.org/2000/svg" xml:space="preserve" width="1in" height="2in" style="shape-rendering:geometricPrecision; text-rendering:geometricPrecision; image-rendering:optimizeQuality; fill-rule:evenodd; clip-rule:evenodd"
viewBox="0 0 0.69755 0.315777"
 xmlns:xlink="http://www.w3.org/1999/xlink">
 <defs>
  <style type="text/css">
   <![CDATA[
    .fil0 {fill:#1F1A17}
   ]]>
  </style>
 </defs>
 <g id="Layer_x0020_1">
  <metadata id="CorelCorpID_0Corel-Layer"/>
  <path class="fil0" d="M0.69755 0.000543109l-0.000819666 0.0196863c0,0 -0.00598492,0.00691178 -0.0188387,0.0120013 -0.0255054,0.0101011 -0.0375553,0.0237139 -0.0466881,0.0538714 -0.00230393,0.00761068 -0.0188616,0.0264444 -0.0244692,0.0272584 -0.00560832,0.000813949 0.000160789,0.00782649 0.00200593,0.00876407 0.00561332,0.00285132 0.0078708,0.0100104 0.00866188,0.0176968 0.000789652,0.00768643 0.00011148,0.015901 -0.000142924,0.0208597 -0.000325866,0.00635295 -3.14432e-005,0.0112574 0.000560975,0.0150391 0.000593847,0.00378319 0.00148712,0.00644514 0.00236181,0.00830957 0.00212813,0.0045464 0.00518312,0.00830386 0.00897202,0.0115496 0.00438561,0.00375889 0.00926144,0.00796656 0.00942152,0.00994676 0.000300139,0.00369957 0.00258191,0.0160675 0.00409547,0.01838l0.00585629 0.00895487 -0.00176082 0.0209919 -0.0149691 -0.00117412c-0.0123586,-0.000969736 -0.00746132,-0.0414064 -0.00829742,-0.0401208 -0.0246579,-0.00890056 -0.0520327,-0.0487105 -0.0567699,-0.0697102 -0.00104477,-0.00463644 -0.0179062,-0.014664 -0.0190731,-0.0151013l-0.0139915 -0.00523958 -0.0328281 -0.0020631c-0.0360639,-0.00226605 -0.0582792,-0.0426105 -0.0637575,-0.038127 -0.011769,0.00963019 -0.0255461,0.0161604 -0.0435752,0.00732626 -0.0226269,-0.0110873 -0.0172437,-0.0120949 -0.0260478,-0.00884053l-0.00409547 0.00151427 0.00163862 0.0060571c0,0 -0.00901061,0.00530032 -0.0131054,0.00151427 -0.00409619,-0.00378604 -0.00806875,-0.00832887 -0.00806875,-0.00832887 0.0023468,-0.0189681 0.0216086,-0.0178226 0.030184,-0.0174145l0.0119598 0.00056955c0.00657377,-0.00172008 0.00743988,-0.0114696 0.000635295,-0.0137885 -0.00507307,-0.00172795 -0.0207861,-0.00116768 -0.0207861,-0.00116768l-0.000743917 -0.000164362c-0.0140129,-0.0031093 -0.0219388,-0.0156387 -0.00850609,-0.0241391 0.00440133,-0.00805088 0.0100096,-0.0134184 0.0156251,-0.0161496 0.00333369,-0.00232251 0.00254189,-0.0113789 0.00783578,-0.00887126l0.00324579 0.00643656 0.00302069 0.000435202c0.00135777,0.000194376 0.00273127,0.000498088 0.00354879,-0.000636724 0.00179941,-0.00249616 0.00179583,-0.00640512 0.00544038,-0.00647015 0.00554043,-9.93318e-005 -0.000320149,0.00850895 0.0056512,0.0105277 0.00920713,0.00311002 0.0239811,0.00275914 0.0373016,0.00976596 0.0130568,0.00686819 0.048947,0.0304984 0.0579583,0.0372916 0.0259885,0.0195884 0.0419573,0.0333583 0.0664444,0.0412513 0.0230421,0.00742559 0.0402272,-0.00144853 0.0546382,-0.0152042 0.00563619,-0.00538107 0.017794,-0.0367606 0.024347,-0.0473613 0.00655304,-0.0105999 0.0297131,-0.0321414 0.038723,-0.0336556 0.0090099,-0.00151427 0.0172008,-0.00227105 0.0172008,-0.00227105zm-0.69755 0.314212l0 -0.15272 0.0981827 -0.000292279c0.011789,-3.57309e-005 0.0093179,0.0064337 0.00928645,0.0118805l-0.000580269 0.0949591c-4.64501e-005,0.00753493 -0.00381463,0.00858399 -0.010447,0.00858399l-0.049826 0 0.000409476 0.03855 -0.0470254 -0.000961161zm0.0465302 -0.133621l0 0.0772544c0.00253689,-0.000521671 0.0091471,0.00145496 0.0151749,-0.00321864l-8.50395e-005 -0.0697445c-0.00242041,-0.00465216 -0.00803016,-0.00536535 -0.0150899,-0.00429128zm0.0774074 -0.0192982l0.0455383 0 0.000494515 0.133324c0.00577411,0.0035102 0.0107243,0.00335799 0.017819,-0.000458784l0 -0.132865 0.0440533 0 0 0.148443c0,0.00361668 -0.00468146,0.00549755 -0.00792082,0.00549755l-0.0930546 0c-0.00512381,0 -0.00692965,-0.00365312 -0.00692965,-0.00732983l0 -0.146611zm0.123744 0.153941l0.0460328 0 -0.000494515 -0.129657c-3.28724e-005,-0.00897488 0.0193361,-0.00897274 0.0193032,0l-0.00049523 0.1292 0.0430636 0 0 -0.130117c0,-0.00939936 0.0173738,-0.00675957 0.0173238,0l-0.000989745 0.130117 0.0455383 -0.00091614 -0.00099046 -0.143403c-1.64362e-005,-0.00248615 -0.00113767,-0.00916425 -0.00841391,-0.00916425l-0.148988 0c-0.00594991,0 -0.0108901,0.00462643 -0.0108901,0.00916425l0 0.144777zm0.189081 0l0.0420724 0 0 -0.038485 0.01683 0 0 0.0375689 0.0455369 0 0 -0.143403c0,-0.00445778 -0.00321935,-0.0105377 -0.00890914,-0.0105377l-0.0861264 0c-0.00452996,0 -0.00940365,0.0030557 -0.00940365,0.00778933l0 0.147068zm0.0420724 -0.0563533l0.0173245 0 -0.000494515 -0.0737628c-6.07425e-005,-0.00921285 -0.01683,-0.00883696 -0.01683,0l0 0.0737628z"/>
 </g>
</svg>
