<?xml version="1.0" encoding="UTF-8"?>
<!DOCTYPE svg PUBLIC "-//W3C//DTD SVG 1.1//EN" "http://www.w3.org/Graphics/SVG/1.1/DTD/svg11.dtd">
<!-- Creator: CorelDRAW -->
<svg xmlns="http://www.w3.org/2000/svg" xml:space="preserve" width="25in" height="39in" style="shape-rendering:geometricPrecision; text-rendering:geometricPrecision; image-rendering:optimizeQuality; fill-rule:evenodd; clip-rule:evenodd"
viewBox="0 0 6.12148 6.12149"
 xmlns:xlink="http://www.w3.org/1999/xlink">
 <defs>
  <style type="text/css">
   <![CDATA[
    .fil0 {fill:black}
   ]]>
  </style>
 </defs>
 <g id="Layer_x0020_1">
  <metadata id="CorelCorpID_0Corel-Layer"/>
  <path class="fil0" d="M1.78045 0.677157c0.0231755,-0.0169814 0.0547393,-0.0974514 0.0717098,-0.131888 0.0233103,-0.047289 0.0607393,-0.0734673 0.0995323,-0.104071 0.058804,-0.0463887 0.167371,-0.154277 0.261416,-0.154277 0.101209,0 0.0678661,0.168811 0.0678661,0.254505l0 0.0254505c0,0.0171808 0.0488632,0.0651329 0.0593808,0.110282 0.0507769,-0.0011267 0.0939958,-0.0489656 0.186973,-0.0590466 0.0706586,-0.00766048 0.122994,-0.0512352 0.203269,-0.0512352 0.0662434,0 0.127953,0.0339304 0.169668,0.0339304 0.0542109,0 0.0645561,-0.0169652 0.118767,-0.0169652l0.110282 0c0.0442863,0 0.0490896,0.0169652 0.0848367,0.0169652 0.067796,0 0.120875,-0.0339304 0.186639,-0.0339304 0.0904001,0 0.131015,0.0401083 0.203512,0.0509872 0.10984,0.0164908 0.106907,0.0255475 0.186725,0.0677799 0.00369816,-0.0444157 0.0437903,-0.0714618 0.0598121,-0.101376 0.017294,-0.0322915 -0.000425882,-0.0938772 -0.000425882,-0.144643 0,-0.0700818 0.00629119,-0.152703 0.0763514,-0.152703l0.00847989 0c0.0696882,0 0.202644,0.111538 0.248089,0.150633 0.131533,0.113155 0.0859849,0.13722 0.167603,0.231119 -0.0110999,-0.133344 -0.27713,-0.390237 -0.415693,-0.390237l-0.0339304 0c-0.0657906,0 -0.0650035,0.134897 -0.0612569,0.179889 0.0063397,0.0760225 -0.0134341,0.193383 -0.0659955,0.193383l-0.00848528 0c-0.00621571,0 -0.0640332,-0.0281729 -0.0778608,-0.0324209 -0.0314074,-0.00964433 -0.0656504,-0.00971441 -0.0937586,-0.0165285 -0.0615965,-0.014922 -0.103085,-0.0443672 -0.176202,-0.0443672l-0.0254505 0c-0.0708581,0 -0.131996,0.0339357 -0.161183,0.0339357 -0.0390733,0 -0.0688257,-0.0254505 -0.127252,-0.0254505l-0.0593862 0c-0.058556,0 -0.111355,0.0254505 -0.135738,0.0254505 -0.0295422,0 -0.093667,-0.0339357 -0.152697,-0.0339357l-0.0593862 0c-0.0603512,0 -0.122659,0.0414722 -0.171172,0.0493969 -0.117139,0.0191485 -0.104519,0.0356015 -0.172547,0.0495586l-0.0646423 -0.0905726 0.00963894 -0.135635 0 -0.0169652c0,-0.245281 -0.200806,-0.107268 -0.288494,-0.0424749 -0.0825779,0.0610143 -0.218423,0.178401 -0.228995,0.305459zm1.28029 -0.677157c1.69011,0 3.06075,1.37064 3.06075,3.06075 0,1.6901 -1.37063,3.06074 -3.06075,3.06074 -0.311853,0 -0.61279,-0.0467607 -0.89627,-0.133533 0.0368954,-0.0534508 0.117721,-0.0517635 0.178935,-0.0819418 0.0568633,-0.0280273 0.166627,-0.0987021 0.166627,-0.172714 0,-0.0683028 -0.110616,-0.0729066 -0.144223,-0.118772 0.0489872,-0.0731492 0.135738,-0.105581 0.135738,-0.229054l0 -0.0508955c0.0190245,-0.00443672 0.0195043,-0.00848528 0.0424156,-0.00848528 0.0292457,0 0.0328468,0.00627501 0.0593862,0.00848528 -0.0464966,0.0694349 -0.0484157,0.0834081 -0.0509009,0.195118 -0.0636342,0.0336716 -0.00945026,0.0737799 -0.0933166,0.0933166l0.0875699 0.116605 -0.0138385 0.00240973 0.0061618 0.279632 0.0134234 7.54727e-005c0.0221674,-0.0830361 0.0678661,-0.0491111 0.0678661,-0.195118 0,-0.0300866 0.00371972,-0.0763514 0.0339357,-0.0763514 0.00790846,0 0.15811,0.0619469 0.175307,0.0707125 0.0438065,0.0223399 0.142352,0.0338387 0.147064,0.0904756 0.0360112,-0.00961738 0.0148412,-0.0169706 0.0424156,-0.0169706 0.0073478,0 0.0424156,0.0350678 0.0424156,0.042421 0,0.0142374 -0.066292,0.137684 -0.076815,0.155878l0.0261297 0.00383832 0.10695 -0.136713 0.148444 0.0766479 0.00313751 -0.0148196 0.0312133 0.0142536 0.00837747 -0.00435585c-0.0198978,-0.0137899 -0.154115,-0.108169 -0.154115,-0.120179 0,-0.0155042 0.0345234,-0.0771654 0.0423833,-0.0933543 0.0203075,-0.0418334 0.0139409,-0.0508686 0.0763837,-0.0508686l0 -0.0169652 0.135802 0.0337039 -0.00956886 0.0764323c0.0341029,-0.0379142 0.0152185,-0.0527446 0.0715104,-0.0820604 0.0383347,-0.0199571 0.0673594,-0.0268629 0.110966,-0.0417364 0.0483133,-0.01648 0.181841,-0.0767072 0.217264,-0.079656l0 0.0169652 0.0509009 0 0 0.0339357c0,0.0683567 -0.251184,0.249788 -0.305406,0.29692 0.0484696,-0.0112939 0.246817,-0.135738 0.27147,-0.135738 0.00754727,0 0.0169706,0.00941791 0.0169706,0.0169652 0,0.0319519 -0.00558498,0.0160433 -0.00848528,0.0509063 0.0907882,-0.104454 0.170644,-0.226952 0.269335,-0.324506 0.071009,-0.0701896 0.222704,-0.234601 0.222704,-0.362657l0 -0.0593808c0,-0.151026 -0.198887,-0.152962 -0.220569,-0.246025l-0.0169706 0 -0.00801628 0.0256284c-0.0832464,-0.0001779 -0.338409,0.0225717 -0.365255,0.0592083l0.0362538 0.0115851c-0.137042,0.0165932 -0.123915,0.00481947 -0.222666,0.0564967 -0.0547824,0.0286688 -0.052529,0.0157792 -0.111322,0.0086524 -0.0517527,-0.00627501 -0.0665238,0.017542 -0.102427,0.0236229 -0.145377,0.0246095 -0.0844,-0.0176983 -0.219027,0.0439574 -0.0142697,0.00653378 -0.19217,0.0677691 -0.195221,0.0677691 -0.0909068,0 -0.131786,-0.0222483 -0.235766,-0.00671168 -0.0736829,0.0110082 -0.158315,0.0576126 -0.205372,0.0576126 -0.00462001,0 -0.129387,-0.0166849 -0.149328,-0.0203614 -0.0709012,-0.0130729 -0.0784053,0.00332619 -0.129414,0.0215744 -0.0664375,0.0237685 -0.197426,0.033305 -0.221782,0.100589 0.0571166,-0.0302214 0.100282,-0.0401299 0.180908,-0.0192833 0.0774026,0.0200164 -0.0366905,0.0570573 -0.0366905,0.12957 0,0.0746856 0.0303724,0.119781 -0.0593862,0.127252 0.0336015,0.045855 0.0687556,0.0178493 0.0685238,0.127247 -5.39091e-005,0.0227766 -0.0115581,0.155652 -0.0203614,0.166929 -0.00601086,0.00769282 -0.0180811,0.0159193 -0.0339142,0.0243992 -1.19315,-0.417833 -2.0492,-1.55372 -2.0492,-2.88933 0,-1.69011 1.37063,-3.06075 3.06074,-3.06075zm1.35241 1.90726l0 0.0254505 0 -0.0254505zm-1.02216 -0.425299l0.0112131 0.00819418c-0.0935214,0.107381 -0.205016,0.246914 -0.205016,0.442556l-0.0169652 0 0 -0.0254505 -0.0343239 -0.0069974 -0.0038545 0.0154827 -0.0146309 -0.0420545c-0.0989986,-0.00876022 -0.0143614,-0.255135 0.0273588,-0.237901l0.0132778 -0.03558 0.0139031 0.0436286 0.0278009 0.0122104 0.0220003 -0.0190569 0.00746101 0.00579522 0.0262699 -0.0138762 0.125506 -0.146951zm-0.00716451 0.18776c0.0150784,-0.0150784 -0.0150838,0.0150838 0,0zm-0.644747 -0.0254451c0.0150838,-0.0150838 -0.0150784,0.0150784 0,0zm0.634849 -0.0155582l0.0113101 -0.0113101 0.00565506 0.00848528 -0.00848528 0.0113101 -0.00847989 -0.00848528zm-0.637135 -0.00626962l0.0258602 0.0163129 -0.0258602 -0.0163129zm1.173 -0.130875c0.00858232,-0.00858232 0.0307174,0.0119409 0.00997857,0.00463618 -3.77363e-005,-1.61727e-005 -0.0013639,-0.000452836 -0.00145554,-0.000490572 -0.000571436,-0.000247982 -0.0107549,-0.00191377 -0.00852302,-0.00414561zm-1.16899 0.0067602c-0.00188682,-0.00160649 -0.0130945,-0.00387606 -0.0116228,-0.008178l0.00848528 -0.00847989 0.16142 0.172159 0.0211216 -0.0246526 0.0545614 -0.0225987c0.012232,0.0426367 0.0782005,0.0689659 0.0782005,0.181911l0 0.0254505c0,0.0562379 -0.0268629,0.0441084 -0.0320759,0.047882 -0.0138546,0.0100271 -0.0150191,0.0460653 -0.018825,0.0623997l-0.0420545 -0.0103883 -0.000361191 0.0273588 -0.0254505 0 0 -0.0678715c0,-0.0837423 -0.0429332,-0.165857 -0.0779255,-0.218995 -0.0197738,-0.0300273 -0.0380921,-0.0587555 -0.0576396,-0.0865833 -0.0123937,-0.0176444 -0.0212186,-0.0245178 -0.0340705,-0.0422755 -0.00519144,-0.00716451 -0.00556341,-0.010081 -0.0146094,-0.0193264 -0.00232887,-0.002372 -0.00729389,-0.00623728 -0.00915376,-0.00781142zm1.09264 -0.227334c0.0150784,-0.0150784 -0.0150838,0.0150838 0,0zm-1.53551 0c0.0150838,-0.0150784 -0.0150784,0.0150838 0,0zm0.500524 0.0509009c0,-0.0453321 0.0795482,-0.0760657 0.108363,-0.103726 0.025499,-0.0244801 0.0785778,-0.0992573 0.103726,-0.108357 -0.0279465,0.104659 -0.178159,0.145619 -0.178159,0.27147l-0.0169652 0c-0.00311055,-0.0374129 -0.0169652,-0.0371164 -0.0169652,-0.0593862zm-0.606849 -0.181523l0.0651329 -0.0381029 -0.0858663 0.111435 0.00765509 0.00532082 0.0939527 -0.0498335c-0.0463833,0.0692731 -0.182191,0.113554 -0.202008,0.24762 -0.00962816,0.0651545 -0.00735859,0.140514 -0.0415477,0.179021 -0.0306096,0.0344802 -0.083241,0.0863138 -0.0957802,0.133269 -0.0266796,-0.0192671 -0.000221027,-0.0225717 0.0121565,-0.0733379 0.0113532,-0.0465397 -0.0121565,-0.0681464 -0.0121565,-0.0793649 0,-0.00169814 0.0383293,-0.143641 0.0424156,-0.161183 -0.0402485,-0.0133479 0.0484049,-0.0497904 0.0678661,-0.0763514 -0.139285,0.0324479 -0.221917,0.2612 -0.31023,0.319503l0.0472459 -0.0819687 -0.0509009 0c0.0115689,-0.0319681 0.110557,-0.0880604 0.140757,-0.122228 0.0435963,-0.049316 0.0706856,-0.102578 0.134282,-0.128708 0.106406,-0.0437149 0.158369,-0.213054 0.252952,-0.273535l-0.0659254 0.0884432zm1.75685 -0.000291109l-0.0673701 -0.087144c0.0823137,0.0504319 0.137624,0.213307 0.24637,0.271858 0.0951818,0.0512513 0.188116,0.212569 0.28285,0.234639l0 0.0169652 -0.0254505 0c-0.0163776,0 -0.0150999,0.0026685 -0.0254505,0.00848528l0.0465774 0.0737584c-0.0521408,-0.0102212 -0.170633,-0.280904 -0.301077,-0.311298l0.059273 0.0425989 -0.00688958 0.0341406c0.0252133,0.0191755 0.0399412,0.133236 0.0409331,0.177765l-0.0169652 0 0.026782 0.109953c-0.0160541,-0.00952034 -0.0797153,-0.0952627 -0.101182,-0.12039 -0.0266149,-0.031154 -0.0424696,-0.117802 -0.0439898,-0.176579 -0.00315368,-0.12171 -0.144023,-0.168762 -0.195501,-0.245642l0.0890362 0.0531382c0.0325665,-0.0203021 -0.0522972,-0.0702489 -0.0635857,-0.112519l0.0556395 0.0302699zm0.154611 0.210202l-0.0247443 -0.0268413 -0.0072885 0.00683567 0.0320328 0.0200056zm-0.135258 -0.42531l0.0663944 0.0500977 -0.0058707 0.00786533 -0.0656504 -0.0377795 0.0174342 0.0356231c-0.040572,-0.00839364 -0.0957802,-0.121748 -0.0957802,-0.159409 0,-0.0179302 0.0385611,-0.162525 0.0461354,-0.1999 0.012081,-0.0595857 -0.012205,-0.141247 -0.012205,-0.215787 0,-0.0114826 0.00916454,-0.00471704 0.0169652,-0.0339357l0.0509009 0c0.0235529,0 0.220661,0.211846 0.244391,0.247658 0.0479467,0.0723513 0.14342,0.237232 0.145851,0.346182l-0.0388253 -0.0531813c-0.00359034,0.0555263 0.0207658,0.0940336 0.0323832,0.15294 0.0207981,0.105435 -0.00204315,0.0744107 -0.00204315,0.146266 0,0.0469009 0.0593862,0.0365773 0.0593862,0.0933166l0 0.0933166 0.0296931 -0.0212078 0.0127225 -0.00424264 -0.0251647 0.0595318 0.0102373 0.0503457 -0.0190083 0.000409709c-0.00153641,-0.0689712 -0.05406,-0.069947 -0.103392,-0.108691 -0.0198439,-0.0155797 -0.083683,-0.0960444 -0.0932249,-0.118859 -0.0157091,-0.0375746 -0.0458658,-0.110842 -0.0678823,-0.144207 -0.0245124,-0.0371541 -0.0822976,-0.0828582 -0.0833218,-0.128767l-0.115177 -0.0656882 -0.00494885 0.00810253zm-0.0056335 -0.00564428c0.0207388,0.00730468 -0.00139624,-0.0132185 -0.00997317,-0.00463618 -0.00223723,0.00223183 0.00795159,0.00389762 0.00851763,0.00414561 9.70363e-005,3.77363e-005 0.00141781,0.0004744 0.00145554,0.000490572zm-2.20719 0.0208143c0.0296446,-0.0560223 0.0393105,-0.121446 0.0678068,-0.178213 0.0274721,-0.0547231 0.053715,-0.0980282 0.089985,-0.147554 0.0301352,-0.0411542 0.206854,-0.242628 0.24093,-0.242628l0.0254505 0c0.0686909,0 0.0254505,0.177145 0.0254505,0.246025 0,0.0515047 0.0424156,0.129964 0.0424156,0.203598 0,0.0503672 -0.0469548,0.151075 -0.0848313,0.161188l0.00952034 -0.0336015 -0.0592029 0.0276769 -0.00546099 -0.00680332 0.0296931 -0.0296877c-0.0299734,0.0024906 -0.0693756,0.0249707 -0.0812895,0.0459629 -0.0358226,0.0631059 -0.0173965,0.0258494 -0.051122,0.0676505 -0.0395639,0.0490303 -0.0551058,0.0934136 -0.0821143,0.15542 -0.0139409,0.0320058 -0.0731115,0.122481 -0.099225,0.146794 -0.0437688,0.0407499 -0.117673,0.0631922 -0.118907,0.118627l-0.0169706 0 0.00879257 -0.0423402 -0.0213965 -0.0292295 -0.00436124 -0.0387121 0.0375423 0.0383886c-0.0391541,-0.0962169 0.0276068,-0.140541 0.0557743,-0.182606l-0.010647 -0.101559c-0.00617798,-0.0739794 0.0764538,-0.15742 0.0361029,-0.203846l-0.0218439 0.0526098 -0.0120918 -0.0271594zm0.434367 -0.0218386l-0.00377363 -0.00802167 -0.0476502 0.0323724 0.0514238 -0.0243507zm-0.510718 0.0557689l-0.0169706 -0.0339304 0 0.0551436 -0.0169652 0.00424264c-0.0140433,0.0602703 -0.0509009,0.103877 -0.0509009,0.186633l0 0.101802c0,0.0411919 0.0225555,0.0889823 -0.0264909,0.101468l0.00952573 -0.0336015c-0.0170892,0.019666 -0.0624914,0.126233 -0.0580385,0.159641 0.00424803,0.031898 0.0558767,0.112697 0.0715319,0.149236 0.0413482,0.0964703 0.0883084,0.222855 0.0883084,0.352835 0.010577,-0.0121727 0.0254505,-0.0290246 0.0254505,-0.0509009 0,-0.0286149 -0.0254505,-0.0324047 -0.0243507,-0.102389l0.0401569 0.0683028 0.00964433 -0.0337848c0.0308036,0.132234 -0.178153,0.278386 -0.178153,0.475074l0 0.127252c0,0.136606 0.0618337,0.339314 0.137775,0.396684 0.0801412,0.0605399 0.0699793,0.0439898 0.137732,0.125252 0.0514724,0.061742 0.0617259,0.121851 0.0977641,0.173706 0,-0.0903138 -0.0012453,-0.140509 -0.0456502,-0.200364 -0.0395315,-0.0532783 -0.0754242,-0.113522 -0.157954,-0.113522 -0.0574832,-0.0384965 -0.118174,-0.233211 -0.136411,-0.321697 -0.0215421,-0.104524 -0.00643135,-0.316748 0.0600601,-0.365466 0,0.0909446 0.0088303,0.129754 0.0509009,0.178153 0.00669011,-0.028712 0.0509009,-0.200973 0.0509009,-0.203598 0,-0.0355153 -0.0216714,-0.0500599 -0.0593862,-0.0509063 0.0137306,-0.0286149 0.0593862,-0.125791 0.0593862,-0.161183l0 -0.0848367 0.0169652 0 0 -0.0254505 0.00898664 -0.000150945 0.00349331 0.0520869 0.0153156 -0.0533807 0.0146255 0.0184153 0 -0.042421 0.00847989 0 0.00445828 0.0436987 0.0171646 -0.0530735 0.00617259 0.0277901 0.0146255 -0.0184153 0.00234504 0.0269006 0.0134234 -0.0181835 0.00968207 0.0252187c0.0116336,-0.139835 0.206887,-0.226391 0.211819,-0.432922 0.00185447,-0.0777369 0.0885887,-0.148385 0.137398,-0.184967 0.0204908,-0.0153587 0.185,-0.145554 0.185237,-0.145619 -0.0196714,0.0844431 -0.094136,0.100303 -0.0852679,0.142487l-0.0432566 0.0140325 0.018356 0.00474939 -0.0354614 0.0437472 0.00862545 0.00325072 0.0182374 -0.00466313c-0.0221997,0.0302969 -0.0449386,0.0257308 -0.0257793,0.0668257l-0.0274774 0.0135635 -0.0146094 0.0214073 0.0277362 0.00362808 -0.0291864 0.0156875 0.0159948 0.0121781 -0.0552837 0.0448092 -0.00168196 0.0594347 0.0275799 0.00291109 -0.0275799 0.0225394c0.151867,0 0.19872,-0.0535748 0.332058,-0.00120756 0.0603566,0.0237038 0.21073,0.122487 0.23775,0.172288l0.00435046 -0.00837208 -0.0140972 -0.0281351 0.0351972 0.0110567 0.00204315 -0.00781142 -0.0102427 -0.0247227 0.00819957 -0.00422647 -0.00819957 -0.00536934 -0.0170838 0.0146579 -0.00957964 -0.0229868 0.0348953 -0.0116444 -0.0268952 -0.0368684 0.017887 -0.00513214 -0.0348576 -0.0415261c0.100271,0.0267766 0.186639,0.242893 0.184293,0.391687l-0.0146255 -0.0184153c-0.0139948,0.0524212 -0.0403024,-0.00858771 -0.0358549,0.0426582l0.0150622 0.0939743 0.00382754 -0.0263507c0.0943139,0.00784916 0.0684753,-0.101796 0.161188,-0.101796l0.0424156 0c0.0570304,0 0.0774619,0.101894 0.118767,0.0848313l0.00382215 0.035208 0.00568741 -0.0194666 0.0244262 0.0181943c0.00961738,-0.0360112 0.0169652,-0.0148412 0.0169652,-0.0424156l-0.00162266 -0.0564751 -0.0492783 -0.0283616c0,-0.114514 0.00876022,-0.151409 0.0543457,-0.225609 0.030491,-0.0496341 0.0742651,-0.134147 0.134217,-0.145732l-0.0443456 0.0447283 0.0181997 0.00526152 -0.0181997 0.0244316 0.0169706 0 0 0.0169652 -0.0169706 0 0.00130999 0.0184153 0.0313158 -0.0283454 0.00602164 0.0061618 -0.0415423 0.0341406 0.0219949 0.0149598 -0.0275799 0.0204154 0.0424156 0.00212402c0.0283238,-0.0423024 0.163328,-0.14287 0.217749,-0.164013 0.118406,-0.0459952 0.215722,0.00282483 0.334808,0.00127764l-0.0263507 -0.0251001 0.0266311 0.0110945 0.00725077 -0.0103613 -0.0256284 -0.00802167 0.0192509 -0.0290732 -0.0289923 -0.0169221 0.0262699 -0.0116551 -0.0369547 -0.0105877 -0.0056335 -0.0828798 -0.0251486 -0.0101457 0.00846372 -0.0412997 -0.0348792 -0.0133371 0.0205232 -0.00829121 -0.0291864 -0.0156875 0.0180865 -0.0135851 -0.0350517 -0.0118654 0.0165663 -0.0113317 -0.0401461 -0.0274667 0.0165447 -0.00975754c-0.0482109,-0.0128735 -0.0796021,-0.0853003 -0.101802,-0.127252 0.00114826,0.0004151 0.159441,0.129614 0.183275,0.147581 0.0479737,0.0361676 0.139306,0.117306 0.147306,0.18355 0.0191701,0.1588 0.0217685,0.132848 0.0951764,0.235674 0.020534,0.0287605 0.0571059,0.0735589 0.0704537,0.0992196 0.0161619,0.0311001 0.0395369,0.0964163 0.0565021,0.114169l-0.00742328 -0.0520654 0.0134234 0.0181835 0.00967668 -0.0252187 0 0.0169652 0.0254505 0 0.00357956 0.0267065 0.0149759 -0.0269168 0.00690036 0.0680817 0.00847989 0 0.00453375 -0.0436879 0.0209167 0.0606531 -0.0001779 -0.041952 0.0256284 0.00801628 0 0.0763514c0,0.0873812 0.0464157,0.115775 0.0505721,0.170708l-0.0336069 -0.00952034c-0.0037952,0.0162913 -0.0169652,0.0484157 -0.0169652,0.0593862 0,0.0369439 0.0424156,0.121252 0.0424156,0.203598l0.0202375 0.000975754 0.0476071 -0.159635 -0.00845833 -0.00252294c0.0385827,0.0258386 0.0678661,0.130498 0.0678661,0.195118l0 0.0169652c0,0.0832248 -0.00370355,0.225043 -0.0593862,0.254505 0,0.070071 -0.0434345,0.175878 -0.0848313,0.203604l-0.0509009 0c-0.0526314,0.0352457 -0.0688688,0.0729551 -0.107031,0.122023 -0.0575533,0.0739956 -0.0456717,0.0710899 -0.0456717,0.191862 0.0604051,-0.095198 0.0800388,-0.193587 0.180196,-0.269427 0.0553161,-0.0418873 0.0829121,-0.0377795 0.116956,-0.112098 0.0206256,-0.0450195 0.0415154,-0.117241 0.0540654,-0.174983 0.078152,-0.359606 -0.0492513,-0.441715 -0.164579,-0.682074 0.0211054,-0.0315206 0.0509009,-0.0658445 0.0509009,-0.118767l0 -0.00848528c0,-0.0292457 -0.00627501,-0.0328468 -0.0074664,-0.0606153l0.021073 0.0173857 0.0203237 -0.0500869c0,0.0704268 -0.0305826,0.186046 -0.0579307,0.22831l0.0324802 0.0601248c0,-0.106012 0.0221297,-0.199463 0.0533646,-0.277486 0.0162536,-0.0405935 0.0993382,-0.213437 0.0993382,-0.231518l0 -0.00848528c0,-0.0632892 -0.0375099,-0.0937263 -0.0475424,-0.153377l-0.00437742 0.0358387 -0.0262537 -0.0183291 0.0103074 -0.169539c0.00410248,-0.0573269 -0.0254505,-0.0941576 -0.029898,-0.150077l-0.0459898 -0.0618283 0.00768743 -0.0259896 -0.0251162 0.0173264 0 -0.0339357c0,-0.0516503 -0.165242,-0.359261 -0.198358,-0.403967 -0.0300543,-0.0405773 -0.117236,-0.11894 -0.157749,-0.147652 -0.0734565,-0.05206 -0.119031,-0.0809121 -0.212283,-0.0591867 -0.00666316,0.0800226 -0.0165393,0.118352 -0.00773595,0.220531 0.00852841,0.0990363 -0.0601355,0.0464804 -0.0601355,0.135775l0 0.0508955c-0.0872141,0.0203237 -0.0379628,0.103991 -0.0933166,0.118772l0.0070567 -0.00865779 -0.0494723 -0.0337632 0 0.0169706c-0.086869,-0.0072292 -0.0597366,-0.136153 -0.203604,-0.169673l0.000328845 -0.0180002 0.0364587 0.00373051 -0.0714241 -0.0352026 0.0033801 -0.0092454 0.200924 0.067203 0.00178439 -0.0212348 0.133948 0.0551705c-0.0592838,-0.0809175 -0.165215,-0.0535263 -0.257944,-0.0898772 -0.147813,-0.0579361 -0.154983,0.00737476 -0.287341,0.00153641l0.053246 0.0289546c-0.0646909,-0.00538012 -0.116578,-0.0570627 -0.195065,-0.0502217l-0.0509548 -0.000679254c-0.0438065,0.0034394 -0.113419,0.0254505 -0.127252,0.0254505 -0.063424,0 -0.136471,-0.0339304 -0.212084,-0.0339304 -0.0550088,0 -0.1104,0.049289 -0.177889,0.0511651 -0.0806048,0.00223723 -0.136951,0.0183506 -0.168978,0.0696721l0.118832 -0.0542002 0.0240596 0.0171539 0.197431 -0.0635588 -0.069478 0.0486691 0.0336069 -0.00952034 0 0.0169652c-0.0587932,0.00489494 -0.100077,0.061521 -0.128632,0.100427 -0.0260812,0.0355422 -0.0165986,0.0297255 -0.0629604,0.0473214 -0.0661033,0.0250839 -0.0335907,0.0196768 -0.0713972,0.0473753 -0.037359,-0.0778608 -0.0016604,-0.083241 -0.0848367,-0.127252 0.00290031,-0.034863 0.00848528,-0.018949 0.00848528,-0.0509009 0,-0.0334074 -0.0318063,-0.0392889 -0.0446798,-0.0865294l-0.010178 0.0135689 -0.0114018 -0.00371972 0.0068734 -0.143889 0 -0.0763514c0,-0.0363024 -0.0261459,-0.0678715 -0.0593808,-0.0678715 -0.0916346,0 -0.301934,0.18163 -0.33663,0.248736 -0.0690252,0.133522 -0.151959,0.244019 -0.189345,0.40449zm0.790377 1.12689l0.00565506 -0.00565506 0.0113101 0.00848528 -0.00848528 0.00564967 -0.00847989 -0.00847989zm0.108869 -0.00706748c0,-0.0335206 0,0.0335153 0,0zm-0.0848367 0c0.0150838,-0.0150838 -0.0150784,0.0150784 0,0zm0.0098977 -0.0098977l0.00565506 -0.00566045 0.0113101 0.00848528 -0.00847989 0.00565506 -0.00848528 -0.00847989zm0.108869 -0.0410086c0,-0.0335153 0,0.0335206 0,0zm-0.500524 -0.0593808c0.0150838,-0.0150838 -0.0150784,0.0150784 0,0zm-0.0678661 -0.0848367c0.0150838,-0.0150784 -0.0150838,0.0150838 0,0zm-0.00169814 -0.061079l0.00169814 0.0186633 -0.0186633 -0.00169814 0.0169652 -0.0169652zm-0.0407175 -0.0831385l-0.0337578 -0.00837208 -0.0421299 0.0590951 0.00802167 0.0256284c-0.0149274,0.022286 -0.0593862,0.112012 -0.0593862,0.144217 0,0.0910901 0.074098,0.220569 0.161183,0.220569l0.00848528 0c0.0452135,0 0.0709605,-0.0593808 0.220569,-0.0593808 -0.0649119,-0.0885995 -0.206579,0.133242 -0.332651,-0.0321352 -0.0830792,-0.108988 -0.00532082,-0.268273 0.0794242,-0.323745l-0.01117 0.0179571 0.0156714 0.00608633 0.00373051 0.0506529 0.0254666 0.0185285 -0.0070567 0.0315368 0.0195151 0.0233157 -0.00642596 0.00561193 0.00862006 0.00325072 0.019941 -0.002965 -0.0200811 0.0166849 0.00820496 0.00536934 0.0216337 -0.013391 -0.0213534 0.0249868 0.00819957 0.00536934 0.0224423 -0.0123452 -0.0306419 0.0324263 0.00819957 0.00537473 0.0191054 -0.0155851 0.0165231 0.0257631c0.0300058,-0.0200919 0.0395585,-0.0509009 0.0848367,-0.0509009l0.0509009 0c0.0569819,0 0.209868,0.136832 0.238952,0.179566l0.00325072 -0.00862545 -0.0028464 -0.0200596 0.0250461 0.028685 0.00536934 -0.00819957 -0.0154234 -0.0189275 0.020038 -0.0188358 0.0235744 0.027251 -0.00589765 -0.0358873 0.0171593 0.0290085 0.00812949 -0.0205393 0.0268305 0.0351217 -0.00484103 -0.0243399 0.0156552 0.000619954 -0.0141134 -0.0441677 0.0261351 0.0253912 -0.0199194 -0.0360382 0.0511597 0.00311594 -0.0096012 0.0250246 0.0111484 0.000878718 0.000625345 -0.0444049 0.0576773 -0.0152509 0.00306203 -0.0372134 0.0209059 0.0197307 0.0192725 -0.0508524 -0.0347606 -0.0674025c0.0813434,0.0544643 0.144223,0.267206 0.144223,0.415693 0.00909985,-0.0143452 0.0169652,-0.0361083 0.0169652,-0.0593862 0,-0.0799956 -0.036491,-0.175409 -0.0649981,-0.231922 -0.0199571,-0.0395585 -0.110654,-0.182881 -0.112826,-0.191215l0.0336069 -0.00952034 0 -0.0339357c0.102163,0.068416 0.0771816,0.22417 0.127252,0.237539 -0.00240434,-0.107786 -0.0914837,-0.255497 -0.150978,-0.307131 -0.089985,-0.0780819 -0.150757,-0.142492 -0.315616,-0.142492l-0.0509009 0c-0.117732,0 -0.292446,0.125091 -0.339336,0.195118zm1.45067 0.26299c0,-0.0335206 0,0.0335153 0,0zm0.576875 -0.042421c0.0150784,-0.0150838 -0.0150838,0.0150838 0,0zm-0.0271486 0.00169814l0.0186633 -0.00169814 -0.00169814 0.0186633 -0.0169652 -0.0169652zm0.0339357 -0.0169652l0.0186633 -0.00169814 -0.00169814 0.0186633 -0.0169652 -0.0169652zm-0.623739 -0.0201135l0.00660386 -0.00721303 0.00567662 0.0270785 -0.0122805 -0.0198655zm-0.00234504 -0.0494508c0,-0.0335206 0,0.0335153 0,0zm0.0254505 -0.0763514c0.0150838,-0.0150838 -0.0150784,0.0150784 0,0zm0.693497 -0.0745239l0.029747 0.0217954 -0.00650682 0.00553107 -0.0232402 -0.0273265zm-0.8462 0.278128c0.0300705,-0.0220272 0.039332,-0.130972 0.0711923,-0.183318 0.0062858,-0.0103344 0.0491704,-0.0705885 0.0547878,-0.0739309 0.0397741,-0.0236661 0.00784377,0.0312565 0.0267227,0.0706101 -0.0884432,0.132083 -0.169668,0.226682 -0.169668,0.449623l0.00848528 0c0,-0.112088 0.0788043,-0.340042 0.139538,-0.379962l-0.0207712 0.0448685 0.0184531 0.00384911 0.0069974 0.0343239 0.0188197 0.000485181 -0.00919149 0.0311055 0.0442917 0.0216121 -0.00443132 0.00759579 0.0110082 0.00222105 0.0243399 0.00484642 0.000431272 0.0356662 0.0415208 -0.0103937 -0.00819957 0.0251647 0.026092 -0.00819418 0.0078815 0.0252618 0.0447876 -0.0154072 -0.0182806 0.0419682 0.0352457 -0.0334883 -0.0176498 0.0423563 0.0251755 -0.0261567 -0.01117 0.0179571 0.0098977 0.00706748c0.00144476,0.00144476 0.00288953,-0.00637744 0.00338549,-0.0050998 0.000997317,0.00256068 0.00501893,-0.00763352 0.00673324,-0.0102319 0.00153641,-0.00233426 0.00831817,-0.0129436 0.0100918,-0.0153587 0.00995161,-0.013542 0.0167495,-0.0195313 0.0284155,-0.0309708 0.0255529,-0.0250623 0.0421784,-0.0293427 0.0678445,-0.0509225 0.038766,-0.0325934 0.0897208,-0.0825348 0.154999,-0.0825348l0.042421 0c0.0203561,0 0.058184,0.0376878 0.0729551,0.0492028l-0.00437202 -0.0131269 0.0515964 -0.00921306 0.00537473 -0.00819957 -0.0152724 -0.0186633c0.0481084,-0.0159517 0.0383455,-0.0719147 0.0246742,-0.128449l0.0332511 -0.0208574 -0.0324748 -0.0203614c0.0472028,-0.0653593 0.152703,0.122401 0.152703,0.186633l0 0.0169706c0,0.0734403 -0.0637636,0.175323 -0.129716,0.183172 -0.0430572,0.00512136 -0.162153,-0.0896238 -0.23507,-0.0389547 0.139403,0 0.18563,0.0593808 0.203598,0.0593808l0.00848528 0c0.0914298,0 0.169673,-0.104384 0.169673,-0.195118l0 -0.0254505c0,-0.098756 -0.0688095,-0.184072 -0.110287,-0.246019 -0.0550304,0.0131754 -0.178622,-0.169668 -0.347821,-0.169668l-0.0424156 0c-0.158757,0 -0.244014,0.060087 -0.324624,0.141964 -0.0701087,0.0712031 -0.150455,0.178622 -0.150455,0.316144zm-0.958627 0.229049c0.0324371,0 0.00308899,0.0026092 0.0254505,-0.00847989 -0.0162805,-0.024313 -0.0215421,-0.0307875 -0.0593808,-0.0339357 0.00210245,0.0253049 0.00609711,0.0424156 0.0339304,0.0424156zm1.46764 0l0.0254505 0 0.0165016 -0.000247982 0.0174342 -0.0336824c-0.0296069,-0.0136929 -0.0505074,0.000679254 -0.0593862,0.0339304zm-1.46764 0.0848367c0.0391218,0 0.0585129,-0.0117737 0.0584913,-0.0522648l-0.0437795 0.0257847 0.019224 -0.041386c-0.103171,0.00858232 -0.0460329,-0.027526 -0.10309,-0.0427014l0.00976832 -0.0506152c-0.0897586,0.0474939 -0.0156929,0.161183 0.0593862,0.161183zm1.56096 -0.101802c-0.0440114,-0.0181781 0.00283023,0.0426421 -0.104034,0.0351271l0.0195366 0.0406313 -0.0512406 -0.0248575c0.0151754,0.0316284 0.0100379,0.0509009 0.0593862,0.0509009 0.0429925,0 0.101796,-0.0355207 0.101796,-0.0848367l0 -0.0169652c0,-0.0314236 -0.00827504,-0.0383186 -0.0254451,-0.0509009l0 0.0509009zm-1.6967 -0.127252c0.211092,0 0.224472,0.159592 0.336576,0.234321l-0.0815428 -0.14501 0.00795698 -0.00447445 -0.0169652 0 0 0.0169652c-0.0585398,-0.0391973 -0.0932627,-0.118767 -0.195124,-0.118767l-0.00847989 0c-0.0228035,0 -0.0329007,0.00417256 -0.042421,0.0169652zm1.52702 0.101802l-0.0156929 -0.000420491 -0.00441515 -0.0135797 -0.0807881 0.145527 0.00757961 0.00420491c0.0869445,-0.100023 0.152552,-0.237534 0.330856,-0.237534 -0.0136552,-0.00948799 -0.0267712,-0.0169652 -0.0509009,-0.0169652 -0.071133,0 -0.170617,0.0745077 -0.186639,0.118767zm-0.00848528 0.169668l0.0604374 -7.54727e-005 0.000549872 0.0393913 0.102055 -0.0313158 -0.0115689 -0.0344694 0.0181997 -0.0244316c-0.025348,0.00677098 -0.0548201,0.0238008 -0.0863623,0.0324101 -0.0486529,0.0132724 -0.0762867,-0.00269006 -0.0833111,0.0184908zm-1.01801 0.763509c0,0.0613862 0.0372673,0.101807 0.101802,0.101807l0.00848528 0c0.0324371,0 0.00308899,0.00260381 0.0276284,-0.00986536l-0.0530789 -0.0834566 0.00188682 0.0405342 0.0320489 0.0358172c-0.0602865,0.0278818 -0.101802,-0.0348145 -0.101802,-0.101802 0,-0.0633593 0.104605,-0.097101 0.161183,-0.110282l0 0.0424156c0.0539953,-0.00120217 0.0536665,-0.0254505 0.110287,-0.0254505l0.152697 0c0.0575264,0 0.10984,0.0254505 0.127258,0.0254505 0.0261459,0 0.0139624,-0.0309869 0.00847989,-0.0424156 0.0554509,0.0129166 0.169668,0.0515856 0.169668,0.110282 0,0.0646208 -0.0419574,0.129479 -0.0987722,0.103354l0.0380436 -0.0742435 -0.0118061 -0.0063451 -0.0462324 0.0960066 0.0339357 0c0.127139,0 0.118228,-0.152563 0.0309061,-0.209059 -0.00650143,-0.00420491 -0.127835,-0.0515478 -0.139721,-0.0554023 -0.080125,-0.025968 -0.0934783,-0.00700818 -0.17114,-0.00700818 -0.156741,0 -0.0937802,-0.0165231 -0.2323,0.030685 -0.0678931,0.0231378 -0.149457,0.0554886 -0.149457,0.138978zm1.67124 -0.118762l0.049882 0.0496664 -0.0244316 0.0181997c-0.0189976,-0.0127225 -0.0298009,-0.0339357 -0.0508955,-0.0339357 -0.0299788,0 -0.0848367,0.116185 -0.0848367,0.135738 0,0.0238871 0.00367121,0.0157037 0.0169652,0.0254451 0.00958503,-0.11515 0.1688,-0.0820658 0.237534,-0.0763514 -0.00876022,-0.032809 -0.10674,-0.132611 -0.144217,-0.135732l0 0.0169706zm-2.72318 0.118762c0.0829876,-0.0398172 0.225733,0.000398927 0.246019,0.0763514 0.0341083,-0.024631 -0.061521,-0.169668 -0.0763514,-0.169668 -0.0305233,0 -0.0413105,0.042421 -0.0593862,0.042421 -0.0324317,0 -0.00308899,0.00260381 -0.0302645,-0.0129328l0.0642003 -0.0719039c-0.0523187,0.00435585 -0.132169,0.0905888 -0.144217,0.135732zm1.11982 -0.00847989c0.0190245,-0.00443132 0.0195043,-0.00848528 0.0424156,-0.00848528 0.0850415,0 0.152703,0.0348576 0.152703,0.118772 0,0.0330247 -0.0233103,0.0593808 -0.0593862,0.0593808l-0.00847989 0c-0.0470518,0 -0.118772,-0.0276931 -0.118772,0.0169706l0 0.00847989c0,0.0335853 0.0504643,0.0448901 0.074319,0.0614186 0.0294397,0.0203938 0.0421838,0.0435909 0.0637421,0.0719955 0.0366905,0.0483456 0.086082,0.104125 0.167344,0.104125 0.0759255,0 0.130676,-0.059645 0.167371,-0.104104 0.0235043,-0.0284694 0.0319896,-0.0522271 0.0630466,-0.0726856 0.0284694,-0.018755 0.0749875,-0.0261998 0.0749875,-0.06923 0,-0.00540169 -0.0191162,-0.0244801 -0.0254505,-0.0339357 -0.0218062,0.0104584 -0.0517042,0.0169652 -0.0848367,0.0169652l-0.0339304 0c-0.0197846,0 -0.042421,-0.0226364 -0.042421,-0.0424156l0 -0.0254505c0,-0.113069 0.111128,-0.101802 0.195124,-0.101802 -0.00994083,-0.0142967 -0.00121834,-0.0169652 -0.0254559,-0.0169652l-0.0424156 0c-0.0504643,0 -0.0638607,0.0159301 -0.110287,0.0169652 -0.00414561,0.049882 -0.0339304,0.0584159 -0.0339304,0.101802l0 0.0169652c0,0.0410356 0.0268305,0.0678715 0.0678661,0.0678715l0.00848528 0c0.0709497,0 0.108605,-0.0501085 0.107144,0.0200218l-0.131107 0.0813865 0.0069974 0.0343239c-0.02503,0.0167603 -0.118956,0.101802 -0.152703,0.101802 -0.066955,0 -0.150191,-0.0770037 -0.178153,-0.118767l0.0169652 0c-0.0102265,-0.038297 -0.104837,-0.0912896 -0.147156,-0.103635l0.0199032 -0.0321028c0.0320435,0.0074664 0.0530681,0.0169706 0.093322,0.0169706l0.0169652 0c0.028588,0 0.0593862,-0.0149975 0.0593862,-0.042421l0 -0.0509009c0,-0.0487176 -0.0397202,-0.0587716 -0.0254505,-0.0933166 -0.0627286,0 -0.141662,-0.0525128 -0.178153,0zm0.27995 0.237534l0.0247982 0.171172 0.00851224 -0.00140703 -0.0163398 -0.135829 0 -0.00847989c0,-0.0190245 0.00671168,-0.0186256 0.0169652,-0.0339357 0,-0.0541193 0.0153587,-0.143722 -0.00848528,-0.161188 -0.00251755,0.0302969 -0.0296122,0.144271 -0.0254505,0.169668zm-0.262985 0.517495c0.0481677,0.00107279 0.0859795,0.0339304 0.118767,0.0339304 0.0186579,0 0.0791169,-0.0133101 0.118082,-0.0176552 0.0673162,-0.00749875 0.0638499,-0.0027871 0.127942,0.000690036 0.0958072,0.00519683 0.147037,0.0265879 0.228326,-0.0299734l-0.109559 0.0214935c-0.0352781,0.00563889 -0.107376,-0.0169706 -0.161188,-0.0169706l-0.059866 -0.00332619 -0.143738 0.0202968c-0.0286473,0.00414022 -0.0636882,-0.0254559 -0.0848313,-0.0254559 -0.0171646,0 -0.0265502,0.00704052 -0.0339357,0.0169706zm-0.780479 -0.492039c0,-0.0335206 0,0.0335153 0,0zm0.585361 -0.458108c0.0360274,-0.0263993 0.0154665,-0.0447176 0.0846264,-0.0765562 0.0180649,-0.00831817 0.0932303,-0.0381946 0.110492,-0.0422108 -0.0366959,0.0500869 -0.120869,0.0548363 -0.19349,0.171296 -0.026534,0.0425558 -0.03627,0.0857046 -0.0514454,0.135193 -0.00333697,0.0108842 -0.0337201,0.144428 -0.0350193,0.143134l-0.0098977 -0.00707287c0.00216714,-0.00259303 0.0299573,-0.169247 0.0405019,-0.199862 0.0152347,-0.0442216 0.0326419,-0.159005 0.0542325,-0.174822l0 0.0509009zm-0.449623 -0.0593862c0.0150784,-0.0150784 -0.0150838,0.0150838 0,0zm0.373272 -0.186633c0.0150838,-0.0150838 -0.0150838,0.0150784 0,0zm-0.0339357 0c0.0150838,-0.0150838 -0.0150838,0.0150784 0,0zm1.14527 -0.00848528c0.0150838,-0.0150838 -0.0150784,0.0150838 0,0zm-1.16365 -0.0410032l0.0113155 -0.0113101 0.00565506 0.00848528 -0.00848528 0.0113101 -0.00848528 -0.00848528zm1.53692 -0.13715c0.0150838,-0.0150784 -0.0150784,0.0150838 0,0zm-1.86533 -0.00971441l0.00709982 -0.00691653 0.0163075 0.0263454 -0.0234073 -0.0194288zm1.18666 -0.0242159c0.0150784,-0.0150838 -0.0150838,0.0150784 0,0zm-0.415693 -0.203604l0.0678715 -0.0339357c-0.0214612,0.0292888 -0.0582649,0.0490518 -0.0899419,0.0966967 -0.0308468,0.0463941 -0.0560762,0.0715858 -0.0813002,0.108384l0.0355045 0.0409385c-0.0919796,0.17383 -0.0866426,0.135818 -0.246149,0.228925 -0.0688904,0.0402054 -0.0795752,0.0447984 -0.140961,0.0965781 -0.0450788,0.0380274 -0.0922761,0.117117 -0.113414,0.132605 0.00265772,-0.119241 0.136158,-0.195178 0.213501,-0.247437l-0.00862545 -0.00325072 -0.0182374 0.00466852 -6.46909e-005 -0.017073 -0.0355692 0.0153749 0.0200757 -0.0166849 -0.00837208 -0.00466313 -0.0565344 0.0262375 0.224682 -0.181345c-0.110142,0.00916454 -0.104519,0.0968422 -0.186779,0.118638l0.0607124 -0.0723136 -0.127101 0.0309546 0.0236876 -0.042076 -0.0146687 -0.00678176 0.0258656 -0.0163129 -0.0117791 -0.00239895 0.0010081 -0.0266796 -0.0218116 0 -0.00408631 -0.0365989 0.178601 -0.022782c-0.0728796,-0.0633485 -0.190498,0.0301837 -0.254505,-0.0254505l0.0405666 -0.000485181 0.0109651 -0.0302052 0.0603997 -0.011736 -0.00164423 -0.0084745c-0.142018,0 -0.0962115,-0.0193749 -0.195124,-0.0424156 0.0480977,0.0418011 0.0479413,0.0100109 0.043386,0.0741896l0.0329654 0.0191269c-0.0417364,-0.00347174 -0.12302,-0.047785 -0.149592,-0.0709767 -0.0445612,-0.03889 0.00286257,-0.0975053 -0.113392,-0.107177l0.00223183 0.0126363 0.0572999 0.029499 -0.00813488 0.00455532 0.0522217 0.0908637 -0.0257308 0.0237847 -0.0100217 0.0931656c-0.0366689,-0.0245556 -0.0933166,-0.123026 -0.0951495,-0.189571l-0.0308252 0.0154449 -0.0531921 -0.0126632 0.00949878 -0.0761951c-0.0163398,0.0257524 -0.0593862,0.120541 -0.0593862,0.161183l0 0.0509009c0,0.0682111 0.104842,0.149409 0.151452,0.179404 0.128428,0.0826534 0.0971172,0.185566 0.120848,0.202574l0.0188574 -0.0780927 0.0142482 0.0269707c-0.0294451,0.126384 -0.220569,0.0677367 -0.220391,0.432189l-0.0256284 -0.00801628c-0.00221027,0.026534 -0.00848528,0.0301352 -0.00848528,0.0593808l0.00167657 0.0338872 0.000587609 0.0611275 0.010178 -0.0135743 0.00907828 0.00416717 -0.00394614 0.0315799 0.0185124 0.0121673 0.0148142 0.0487985c0.0407714,-0.0168412 0.0763514,0.0683729 0.0801089,0.131829l0.0471435 0.0378388c-0.00815105,-0.0349816 -0.0148358,-0.0895537 -0.0240596,-0.120152 -0.0178385,-0.0591436 -0.0439305,-0.069106 -0.0522918,-0.100416 0.0628148,0.0146363 0.101802,0.112832 0.101802,0.186639 0.050006,-0.036642 -0.00439898,-0.16439 -0.0293912,-0.208154 -0.0509009,-0.0891494 -0.123312,0.00128304 -0.123312,-0.173603l0 -0.0254505c0,-0.0953328 0.0741896,-0.249195 0.135738,-0.27147 -0.0103074,0.0442324 -0.0254774,0.0346797 -0.0377417,0.0895106 -0.00906211,0.0405019 -0.00210784,0.0801035 -0.00496502,0.122999 -0.00588148,0.0881197 0.0307012,0.110195 0.105748,0.127344l-0.0206256 0.160671 -0.00188143 0.00876561 0.0103667 0.0760711c0.0628795,-0.0723459 0.0304856,-0.331126 0.118767,-0.390242 -0.00315907,0.0379897 -0.0350786,0.136228 -0.0472782,0.198741 -0.0127171,0.0651275 -0.0205879,0.15308 -0.0205879,0.208466 -0.0527716,0.035332 -0.0763514,0.12536 -0.0763514,0.212084l0 0.042421c0,0.0855644 0.0851386,0.146665 0.127252,0.195118 -0.0157091,-0.0674241 -0.110287,-0.0993813 -0.110287,-0.195118l0 -0.0593862c0,-0.0407714 0.0357309,-0.124029 0.0507608,-0.152336l0.044006 0.016356 -0.00993005 -0.0676235c-0.00936939,-0.0554455 0.0245178,-0.206623 0.0357794,-0.252656 0.0257631,-0.105301 0.00563889,-0.143188 0.0745023,-0.222418 -0.00532621,0.064044 -0.0358495,0.121743 -0.0424156,0.203604 -0.0063397,0.0790091 -0.00848528,0.15522 -0.00424264,0.247022l0.011709 -0.0347821 0.00957964 0.0758932 0.0423402 0.00878718 0 0.0254505 0.00991387 -0.00410787 0.0070513 0.021073 0.0158061 -0.000150945 0.00933705 -0.0337039 0.0134449 0.0432351 0.00382754 -0.0263454 0.0187011 0.000436663 -0.010329 0.0401946 0.0407984 0.00135312 0.0153425 -0.0426528 0.00335853 0.0346042c0.0641356,-0.0171269 0.0944594,-0.118772 0.229049,-0.118772l0.00848528 0c0.0229113,0 0.0233911,0.00405396 0.0403455,0.00887343l-0.00640979 -0.0682543c-0.0670359,-0.0448901 -0.135738,-0.19887 -0.135738,-0.322371l0 -0.0424156 0.0172832 -4.85181e-005 0.00816722 0.0763999c0.0354398,-0.0407714 0.0579684,-0.0823461 0.115894,-0.104681 0.0197577,-0.00761735 0.166741,-0.0481408 0.18101,-0.0457203l0.186655 -0.00230192c0.0533322,0.000420491 0.129382,0.030809 0.183339,0.0457095 0.0926535,0.0255852 0.0785239,0.0688742 0.132455,0.106627l-0.00570358 -0.0397148 0.0207604 -0.03627c0.0227496,0.273335 -0.123365,0.284041 -0.135732,0.432652 0.0190245,-0.00443132 0.0195043,-0.00848528 0.0424156,-0.00848528l0.00848528 0c0.108276,0 0.154891,0.0747934 0.217173,0.117311l0.0221512 -0.032588 -0.00135312 0.0408038 0.0419844 0.0102104 0.00291109 -0.0445451 0.022534 0.0275799 0 -0.0339357 0.0169706 0 0 0.0169652 0.0165609 8.62545e-005 -0.0101187 -0.0505775 0.0029057 0.0103074 0.0602488 -0.0111484 -0.00866858 -0.0408523 0.0239087 -0.0265826 0 0.042421c0.0126255,-0.019914 0.0169652,-0.0429655 0.0169652,-0.0763514l0 -0.042421c0,-0.154115 -0.0327929,-0.233669 -0.0593862,-0.347821 0.0565452,0.0204693 0.110287,0.317853 0.110287,0.424173l0 0.110287 0.0254505 0c0.041165,0 0.0678661,0.126977 0.0678661,0.169668 0,0.102319 -0.0681896,0.162379 -0.120179,0.221981l0.00989231 0.00707287c0.000463618,0.000463618 0.0703028,-0.0809984 0.0786857,-0.0909877 0.0279357,-0.0332619 0.0485667,-0.0622865 0.0485667,-0.121101 0,-0.119985 -0.0367929,-0.191253 -0.0848313,-0.262985 0,-0.126535 -0.0256068,-0.301885 -0.0678661,-0.381757 0.0880389,0.0235097 0.0666478,0.345837 0.131166,0.389994l-0.0198601 -0.247006 0.0244262 0.0181997c0.0230946,-0.0315206 0.0612245,-0.0228413 0.0735266,-0.0791762 0.007585,-0.034712 0.0113101,-0.111123 0.0113101,-0.149878 0,-0.0492297 -0.0486583,-0.10467 -0.042421,-0.118767 0.0439035,-0.0194234 0.135738,0.187043 0.135738,0.262985l0 0.00848528c0,0.144412 -0.0360598,0.113376 -0.098977,0.155522 -0.0469224,0.0314344 -0.0474993,0.152309 -0.0868744,0.16666l0.0161835 0.08502 0.0169652 0 0 -0.0339304c0,-0.0667071 0.0437095,-0.147652 0.101802,-0.161188 -0.00989231,0.0370463 -0.0374884,0.019941 -0.0546099,0.0980929 -0.0117845,0.0537635 -0.00972519,0.0885402 -0.0132562,0.130961 0.015267,-0.0219733 0.0339304,-0.0365288 0.0339304,-0.0678661l0 -0.0254505c0.0364695,-0.0147226 0.0354236,-0.0662219 0.0736559,-0.0875321 0.0303562,-0.0169167 0.0446097,-0.0739309 0.0535964,-0.107586l-0.0169652 0 0 -0.0169706 0.0169652 0 -0.00306203 -0.113559 -0.0223884 0.0202428c0,-0.153398 -0.0112023,-0.166164 -0.0664645,-0.264392 -0.0258009,-0.045855 -0.0148789,-0.0574671 -0.0749929,-0.0861952 -0.0391164,-0.0186849 -0.0791115,-0.0377417 -0.0791115,-0.090551l0.00650143 -0.0276877 0.0359142 0.0785886c0,-0.119279 0.0431488,-0.159883 0.121743,-0.200628 0.0413213,-0.0214181 0.141247,-0.131193 0.141247,-0.189614 0,-0.0789983 -0.037014,-0.163458 -0.0718877,-0.211032l0.0178223 0.0786533 -0.0478012 0.030685 -0.0338711 -0.017073c-0.0145015,0.0622434 -0.0636181,0.180396 -0.120212,0.193808l0.0264693 -0.0313535 -0.0165447 -0.00975215 0.0169706 0c-0.00876561,-0.032836 -0.0254505,-0.0295529 -0.0254505,-0.042421 0,-0.0324317 -0.00260381,-0.0030836 0.00847989,-0.0254451 -0.004744,-0.00683028 -0.0169652,-0.0209491 -0.0169652,-0.0254505 0,-0.00884108 0.0523187,-0.11536 0.0933166,-0.118772l0 -0.0169652c-0.0992196,0.00825887 -0.0614294,0.0903947 -0.178196,0.152654 -0.0984002,0.0524643 -0.14874,0.0339789 -0.279907,0.0339789l-0.0509009 0 0 0.0169706 0.0678661 0c0.0396717,0 0.0471866,0.0254505 0.111807,0.0281675l-0.0265071 0.0140703 0.00614563 0.022658 -0.0229113 0.0195582 0.0394776 0.0766209 -0.146665 -0.0375692 0.0810738 0.0800981c-0.086179,-0.0200757 -0.073381,-0.116417 -0.204914,-0.12556l0.21983 0.179992 -0.0587501 -0.0388792 -0.00537473 0.00819957 0.0134395 0.021596 -0.0352781 -0.0203668 -0.00530465 0.0259195c0.0889985,0.0595965 0.200876,0.119813 0.212084,0.254505 -0.0355315,-0.0260381 -0.0476826,-0.086896 -0.106896,-0.130638 -0.0537635,-0.0397148 -0.0649766,-0.0661572 -0.136228,-0.101311 -0.148449,-0.0732408 -0.180153,-0.0801735 -0.258391,-0.226655l0.0264424 -0.050405c-0.0368253,-0.069602 -0.111365,-0.152929 -0.167501,-0.208143l0.065699 0.0299896c-0.00626423,-0.0753109 -0.0900659,-0.152703 -0.178153,-0.152703 -0.0866965,0 -0.153371,0.0912411 -0.169668,0.161188zm0.169668 1.45067c-0.0690036,0.00574671 -0.133414,0.0175905 -0.191992,0.0370625 -0.0565991,0.018825 -0.115053,0.0647448 -0.172795,0.0647448l-0.0339304 0c-0.0127333,0.0315368 -0.189269,0.0933166 -0.246025,0.0933166l-0.00844216 -0.000442054 -0.0998557 -0.00974676 -0.0389601 -0.045386 -0.0111376 0.00919688 0.0990148 0.114244c0.181539,0 0.235184,-0.0208466 0.361336,-0.105252 0.0525613,-0.0351649 0.268839,-0.143624 0.351487,-0.133845l0.084621 0.0100433c0.0475208,0.0318225 0.0854836,0.0300489 0.138719,0.0563997 0.0535371,0.0264963 0.0817693,0.0460006 0.129964,0.0736344 0.0928368,0.0532352 0.164191,0.0990201 0.282737,0.0990201l0.00848528 0c0.0454669,0 0.0715589,0.00853919 0.107107,-0.037111 0.0205286,-0.0263615 0.059618,-0.0717152 0.0614779,-0.108071l-0.0669928 0.0668796 -0.110077 0.0104368c-0.058583,0.00627501 -0.127813,-0.0435585 -0.170805,-0.0582487 -0.0292403,-0.00999474 -0.0535371,-0.0282645 -0.0769282,-0.0333589 -0.0381622,-0.00830739 -0.0635696,-0.0061079 -0.096357,-0.02241 -0.057246,-0.0284532 -0.0928799,-0.0503996 -0.164158,-0.0648957 -0.0171646,-0.00348792 -0.0966535,-0.00818339 -0.106276,-0.0129058 -0.0325449,-0.0159786 -0.00288953,-0.0318495 -0.030216,-0.0711707l0 0.0678661zm0.838825 0.432329c0.0316231,-0.00783838 0.0237308,-0.000442054 0.0264909,-0.0336015l-0.0159301 0.000328845 -0.0105608 0.0332727zm-0.32133 -0.0929877c0,0.0102751 -0.0254505,0.070443 -0.024534,0.144687l0.0910632 -0.191539 -0.100465 -0.0379789c0.0054556,0.0233965 0.0339357,0.0764215 0.0339357,0.0848313zm-1.09484 -0.0440167l0.0937964 0.19672 0 -0.110287c-0.0102535,-0.0153102 -0.0169706,-0.0149112 -0.0169706,-0.0339304 0,-0.0233642 0.0157091,-0.0609927 0.0268683,-0.0777692l-0.00867397 -0.00293804 -0.0950201 0.0282052zm0.942142 -0.0662704c0.0150784,-0.0150784 -0.0150838,0.0150838 0,0zm-0.0686316 -0.0318549l0.0585668 0.00701357 0.0100648 0.0248413c-0.0190245,-0.00443132 -0.0195043,-0.00847989 -0.0424156,-0.00847989l-0.042421 0c-0.0448362,0 -0.0765023,0.013542 -0.101802,0.013542 -0.0252941,0 -0.0569657,-0.013542 -0.101802,-0.013542l-0.0763514 0.00269006 -0.322371 -0.00269006c-0.023445,0 -0.0409871,0.0276176 -0.0509009,0.0424156 0.0103505,0.0058114 0.00907289,0.00848528 0.0254505,0.00848528l0.730619 -0.000328845 -0.00952573 -0.0336069c0.0650574,0.0435639 0.0509009,0.0347713 0.0509009,0.101802l0 0.161183 0.0509009 0c0,-0.0469494 0.0134395,-0.174482 0.00557959,-0.200698 -0.0187334,-0.0625345 -0.0976563,-0.0682974 -0.107381,-0.104702l-0.0259303 -0.0040324 -0.0511813 0.0061079zm-0.694877 0.540864c0.0493483,-0.0361568 0.111904,-0.28844 0.203598,-0.28844 0.0565452,0 0.0812517,0.126347 0.093322,0.178159 0.0723459,-0.0382862 0.178169,-0.0763514 0.288435,-0.0763514l0.0339304 0c0.0549387,0 0.169673,0.0196768 0.169673,-0.0509063l0 -0.178148c0,-0.0382323 -0.0283076,-0.0169706 -0.0509009,-0.0169706l-0.653227 0c-0.108751,0 -0.0848313,-0.0385665 -0.0848313,0.144217 0,0.0961468 0,0.192294 0,0.28844zm-0.398728 -0.135738c0,-0.0366851 0.0034394,-0.0856669 0.0264693,-0.101646l-0.00949878 0.0761951 0 0.0254505c0,0.036491 0.00989231,0.0459898 0.0169652,0.0763514 -0.0142158,-0.016356 -0.0339357,-0.0479467 -0.0339357,-0.0763514zm-0.212084 -0.0678661c0.0150784,-0.0150784 -0.0150838,0.0150838 0,0zm-0.120185 -0.643329l0.0113155 -0.0113101 0.00564967 0.00848528 -0.00847989 0.0113101 -0.00848528 -0.00848528zm-0.388824 -0.120179c0.00968746,-0.0144692 0.0184585,-0.0339357 0.042421,-0.0339357l0.00847989 0c0.0413644,0 0.0775697,0.0581679 0.0763514,0.0593862l-0.00706748 0.0098977 -0.0600331 -0.0288791c-0.0855591,0.0427014 -0.0264262,0.034588 -0.068637,0.0953328l0.00848528 -0.101802zm0.204348 0.144077l-0.0625399 -0.0966374c0.00570897,-0.0220165 -0.00643135,-0.0861898 -0.0400059,-0.0983409 0,-0.048944 0.00737476,-0.042103 0.0424156,-0.0339357 0,0.0731438 0.00218871,0.143894 0.0509009,0.169668l0.00922923 0.059246zm-0.229798 -0.27133c0.0150838,-0.0150838 -0.0150784,0.0150784 0,0zm-0.00847989 -0.00848528c0,0.0868906 -0.0227874,0.175053 -0.00639361,0.295476 0.00507284,0.0372404 -0.00106201,0.0825294 0.00818339,0.143872 0.00771978,0.0512028 0.0321729,0.105716 0.0325018,0.145651 0.00134773,0.165479 0.00451219,0.172741 0.0673755,0.280446 0.0402539,0.0689605 0.0755697,0.163609 0.15983,0.186892l-0.0069974 -0.0343239c0.0853704,0.0625453 0.0708958,0.126314 0.219976,0.160002l0.199965 -0.100557 0.00635049 0.0067602 -0.129366 -0.176487c0.0164045,0.0109867 0.118767,0.154336 0.118767,0.0933166 0,-0.0665992 -0.00791924,-0.102988 -0.00824269,-0.161431 -0.000361191,-0.0653647 -0.0426582,-0.114605 -0.0426582,-0.127004 0,-0.0200164 0.0166417,-0.0377471 0.0216337,-0.0496287l-0.00484642 -0.0185124 -0.04482 0.0256499 0.00294343 -0.0489225 0.0420545 -0.0103883c0.0261189,0.112115 0.224251,0.294387 0.28844,0.390237 -0.0648202,-0.0173102 -0.164892,-0.200251 -0.220569,-0.237534 0,0.0579576 0.0254451,0.078842 0.0254451,0.152703l0.000959581 0.155711 0.0612838 -0.019472 -0.0018383 -0.0102212 0.0248359 0.0139732 0.160315 0.0213695 -0.00920228 -0.0232887 0.0605668 0.0231108c0.00221027,-0.026534 0.00848528,-0.0301352 0.00848528,-0.0593862 0,-0.131112 -0.0656882,-0.268553 -0.118767,-0.347821 -0.123463,0 -0.176951,-0.127247 -0.229054,-0.127247l-0.0254505 0c-0.0469224,0 -0.0762975,0.0424156 -0.0848313,0.0424156 -0.0416178,0 -0.0169706,-0.0327821 -0.0169706,-0.0593862 0,-0.0476772 -0.144385,-0.0598606 -0.17769,-0.107117l0.0928583 -0.020135 -0.0825779 -0.00102427 -0.0200649 -0.0421731 0.109931 -0.128697 -0.0441623 0.0173587 0.0165285 -0.036022 -0.151215 0.130341 -0.00659308 -0.00764969 0.00121834 -0.0595533 -0.0170245 -0.0760279 -0.0112077 0.0335638 0.0100486 -0.084621c0.000555263,-0.00404318 -0.060804,-0.0711707 -0.0678715,-0.0763514l0 0.042421c-0.025251,-0.029057 -0.0195259,-0.152703 -0.101802,-0.152703 -0.0247604,0 -0.0439898,0.0114018 -0.0678661,0.0169652 0.0150406,-0.0224531 0.0301783,-0.0424156 0.0678661,-0.0424156 0.0588741,0 0.156212,0.151339 0.186639,0.195118 0,-0.0893111 0.0509009,-0.1597 0.0509009,-0.212084 0,-0.0899958 -0.12446,-0.118772 -0.178153,-0.118772 -0.0696559,0 -0.169668,0.138169 -0.169668,0.203604zm1.11982 1.17072l0 -0.534454c0.0469817,-0.00104584 0.0659092,-0.0311217 0.0848313,-0.0593862 -0.155344,0.0361945 -0.120756,0.0968854 -0.11908,0.254817 0.000706209,0.0669173 -0.00284101,0.311853 0.0342484,0.339023zm-1.0774 -3.31703c0,0.136314 -0.00457688,0.0450572 -0.0414291,0.145209 -0.0105177,0.0285772 -0.0434076,0.137835 -0.0434076,0.168681 0,0.103597 0.161188,0.279114 0.161188,0.398722l0 0.135732c0,0.0108896 -0.0973382,0.139878 -0.113867,0.200024 -0.0245502,0.0893327 -0.0167226,0.198525 -0.0136767,0.292306 0.00660386,0.20307 0.0935592,0.33864 0.22086,0.423887 -0.0255205,0.0381137 -0.0619523,0.0659146 -0.0955754,0.0995377 -0.0291163,0.0291109 -0.0518228,0.0835159 -0.0811655,0.122438 -0.078842,0.104578 -0.0862491,0.144358 -0.0862491,0.320964 0,0.0748365 0.0120271,0.295179 0.0288306,0.352926 0.0352673,0.121193 0.00572514,0.213631 0.0599199,0.321837 0.0385989,0.077063 0.0920389,0.178293 0.155484,0.226272 0.0304263,0.0230084 0.082869,0.0450841 0.122395,0.0727179 0.0450302,0.0314883 0.0522433,0.0697098 0.125414,0.0697098 -0.0259734,-0.0225717 -0.0520546,-0.0242213 -0.0786695,-0.0485828 -0.0348468,-0.0319088 -0.0258602,-0.0296284 -0.0705831,-0.0566746 -0.0630736,-0.0381407 -0.109317,-0.052847 -0.149393,-0.113586 -0.0730036,-0.110643 -0.134013,-0.203291 -0.134013,-0.383482 0,-0.0626801 -0.027871,-0.129867 -0.0324101,-0.220892 -0.00305664,-0.0612676 -0.0100055,-0.161867 -0.0100055,-0.245696 0,-0.0661141 0.0159463,-0.0898125 0.0167819,-0.161307 0.000808636,-0.0690845 0.0383832,-0.0842814 0.0682273,-0.126961 0.041111,-0.0587986 0.110336,-0.187771 0.177975,-0.212256 -0.00336932,-0.0405558 -0.0644159,-0.0718931 -0.0920659,-0.0945727 -0.0351757,-0.0288575 -0.0604698,-0.0749174 -0.0765994,-0.118514 -0.0313966,-0.0848313 -0.0603835,-0.207577 -0.0603835,-0.321373 0,-0.0888906 0.0103074,-0.168159 0.0373051,-0.234159 0.0229275,-0.0560439 0.0984271,-0.140433 0.0984271,-0.173048l0 -0.110282c0,-0.141231 -0.161183,-0.316263 -0.161183,-0.407207 0,-0.0482917 0.0240596,-0.115484 0.0354668,-0.159646 0.023445,-0.0907882 0.0493645,-0.0144207 0.0493645,-0.137274l0 -0.0509009c0,-0.208925 0.0980228,-0.247809 0.127252,-0.373272 -0.0345665,0.0253265 -0.0753541,0.128153 -0.102724,0.168746 -0.0312241,0.0463025 -0.0414938,0.15625 -0.0414938,0.229976zm2.74132 3.00401l0.00731546 0.00761196c0.00113209,0.00113748 -0.0729066,0.109797 -0.0813326,0.122271 -0.0357633,0.0529549 -0.0543781,0.0726856 -0.105306,0.106783 0.0179032,-0.0670413 0.0593862,-0.0782975 0.0593862,-0.195118l-0.000145554 -0.0424049 0.000145554 -0.0848475 -0.0209329 -0.00235583 0.0798339 -0.12481 0.0174504 0.110201c0.00128843,0.00740171 -0.0339357,0.147474 -0.0282969,0.199313l0.0718823 -0.0966428zm0.277087 -0.889936l0.0186633 -0.00169274 -0.00169274 0.0186633 -0.0169706 -0.0169706zm-0.161361 -0.0758069c0.0122967,0.00280866 0.0188412,-0.000258763 0.0188412,0.0232132l0 0.00847989c0,0.0275367 -0.0373051,0.0683567 -0.055812,0.0775643l0.0369708 -0.109257zm0.163021 -2.05523c0.00589226,0.0463456 -0.0257038,0.0644267 0.00287335,0.107425 0.0293912,0.044227 0.0300974,0.0183776 0.0480761,0.0876777 0.0190676,0.073505 0.0486098,0.132465 0.0115419,0.206682 -0.0387822,0.0776398 -0.159388,0.282915 -0.148935,0.387364l0.0101295 0.101608c0.0527662,0.035332 0.127252,0.180083 0.127252,0.27147l0 0.178153c0,0.208574 -0.101468,0.355703 -0.229054,0.441143 0.0378226,0.0714726 0.101958,0.0809822 0.133091,0.155344 0.0175905,0.0420221 0.0919149,0.131457 0.123878,0.17549l-0.00246364 0.398738 -0.000609172 0.0832571 -0.0264154 0.00994622 0.0100594 -0.161069 0 -0.186639c0,-0.0856723 -0.0648957,-0.29692 -0.152703,-0.29692 -0.0464912,0 -0.186639,0.0152886 -0.186639,0.093322l0 0.00847989c0,0.0293427 0.0456124,0.131554 0.0509009,0.195118l0.0169652 0c0.0085338,-0.0366312 0.107225,-0.161183 0.152703,-0.161183 0.0345287,0 0.045634,0.0133964 0.0593862,0.0339357 -0.239879,0 -0.0903893,0.170967 -0.165765,0.229248l0.00428577 -0.127705 -0.0516125 0.0597744 0.0179733 0.161053 0.0169652 0 0 -0.0339357c0,-0.0464211 0.0286095,-0.0379466 0.0407391,-0.0865132 0.00731546,-0.0292834 0.0162482,-0.0882922 0.0186471,-0.11709l0.0374991 0.00148789 -0.0459844 0.117279c0.0445073,-0.0118816 0.0370679,-0.0678661 0.101802,-0.0678661 0.0551328,0 0.0509009,0.0861305 0.0509009,0.144217l-0.00848528 0c0,-0.0460383 -0.00997857,-0.101802 -0.0509009,-0.101802 -0.112557,0 -0.108724,0.104891 -0.135301,0.162919l0.0419844 -0.0102158c0.01717,0.00908907 0.0509009,0.0260327 0.0509009,0.0509009 0,0.0589873 -0.00107279,0.135446 -0.0338818,0.144228l0.0169167 -0.118778 0 -0.00848528c0,-0.0204261 -0.0304748,-0.0508955 -0.0509009,-0.0508955l-0.0339357 0c-0.0234828,0 -0.127252,0.0625615 -0.127252,0.110282 0,0.0229167 0.00405396,0.0233911 0.000754727,0.0441893l-0.0330462 -0.120347 -0.0101241 0.101608c-0.040793,0 -0.161188,0.0475909 -0.161188,0.0678661 0,0.0319519 0.00558498,0.0160433 0.0082373,0.0504373l-0.0336824 0.0174342c-0.0191054,-0.0285233 -0.0371919,-0.0424156 -0.0848367,-0.0424156l-0.00848528 0c-0.0476071,0 -0.105354,0.127247 -0.238564,0.126746l-0.066513 0.140514 0.194795 -0.0212402 0.0509009 0c0.00708365,-0.0265448 0.0514238,-0.0782382 0.0680063,-0.101662 0.0154935,-0.0218871 0.0164692,-0.0296284 0.0306796,-0.0548039 0.0256499,-0.0454292 0.00208089,-0.00159571 0.0455316,-0.0216876 0.0187064,0.0883354 -0.0571436,0.103036 -0.0589765,0.201561l0.0504912 0.010523c0.00290031,0.0348576 0.00848528,0.0189544 0.00848528,0.0509009 0,0.0661949 -0.0763514,0.0285718 -0.0763514,0.101802 0,0.0229113 0.00404857,0.0233911 0.00848528,0.0424156 0.0643405,-0.0171808 0.149905,-0.212892 0.195113,-0.246019 -0.0110244,0.0473429 -0.0766048,0.131781 -0.105193,0.174762 -0.0468955,0.0705184 -0.0972789,0.103732 -0.133376,0.156423l0.00952034 0.0336069c-0.025375,0.0479575 -0.0888637,0.0955053 -0.144223,0.110282 0.00909446,0.0274181 0.114201,0.00574671 0.160309,-0.00935861 0.0357201,-0.0117037 0.0470087,-0.0175636 0.0773164,-0.0330409 0.0456825,-0.0233318 0.0446097,-0.00328845 0.0897586,-0.0113263 0.185447,-0.0330139 0.165194,-0.109613 0.268219,-0.183081l-0.018728 0.0501732c0.108848,-0.072885 0.123042,-0.110492 0.183776,-0.231917 0.0282591,-0.0564859 0.045855,-0.0754727 0.0453699,-0.158234 -0.000668472,-0.11419 0.00525613,-0.0944702 0.0253588,-0.16976 0.00755266,0.00424264 0.0169706,0.00552029 0.0169706,0.0169652 0,0.0273265 -0.0261782,0.0474831 -0.0219679,0.103063 0.0016604,0.0219464 0.00297578,0.0816291 -0.0065176,0.131446 -0.0121026,0.063521 -0.0728796,0.158703 -0.103802,0.210084 -0.0523511,0.086993 -0.0906696,0.0924109 -0.172951,0.140934 -0.082621,0.0487122 -0.0751923,0.101635 -0.220736,0.101635l0 0.0169652c0.131748,0 0.135161,-0.0372889 0.206844,-0.0900712 0.0712839,-0.0524912 0.122977,-0.0518767 0.17845,-0.126961 0.0415639,-0.0562703 0.0769821,-0.12984 0.109813,-0.195587 0.0411542,-0.0824269 0.00484642,-0.179733 0.0394668,-0.265939 0.0521193,-0.129786 0.026782,-0.406485 0.0256661,-0.551872 -0.000819418,-0.106147 -0.246354,-0.361913 -0.246354,-0.364458 0,-0.0264963 0.0690683,-0.0631976 0.0914567,-0.0866965 0.0282052,-0.0295961 0.0502594,-0.0696128 0.0672731,-0.11088 0.031801,-0.0771115 0.0618391,-0.197932 0.0618391,-0.302947l0 -0.0763514c0,-0.194622 -0.135738,-0.334204 -0.135738,-0.347821l0 -0.0933166c0,-0.170681 0.161188,-0.336802 0.161188,-0.424173l0 -0.0169652c0,-0.0884594 -0.0360166,-0.166288 -0.0733756,-0.223545 -0.0267928,-0.0410571 0.00460383,-0.20307 -0.0402862,-0.268074l0.0203075 0.160768zm-2.04447 3.77513c0.016852,-0.00892195 0.0704376,-0.0339357 0.0933166,-0.0339357 0.0383725,0 0.0291971,0.0671599 0.0254505,0.0848313l-0.0254505 0c-0.0356285,0 -0.0786479,-0.0289923 -0.0933166,-0.0508955zm0.509004 -0.127252c-0.0326635,-0.00271702 -0.076346,-0.0279087 -0.076346,-0.0593862l0 -0.0254505c0.0430572,0.00358495 0.0598444,0.0536449 0.076346,0.0848367zm-0.246019 -0.0509009c0,-0.0390355 0.0105985,-0.0847019 0.0339357,-0.101802l0.0103667 0.0760657 -0.00188682 0.0172509c0,0.0195474 -0.00590304,0.0254505 -0.0254451,0.0254505 -0.00755266,0 -0.0169706,-0.00941791 -0.0169706,-0.0169652zm0.551425 -0.0254505c0,-0.00744484 0.142633,-0.157247 0.161188,-0.169673 0.0110837,0.0223669 0.00847989,-0.00698122 0.00847989,0.0254559l0 0.00847989c0,0.0671006 -0.00574131,0.195118 -0.0678661,0.195118 -0.0271756,0 -0.101802,-0.0330678 -0.101802,-0.0593808zm-1.0265 -0.203604c0.019887,-0.00985997 0.0377256,-0.0169652 0.0678715,-0.0169652 0.0409439,0 0.101796,0.0671707 0.101796,0.118767 0,0.0831763 -0.203598,0.205162 -0.203598,0.135732 0,-0.0982654 0.0339304,-0.120303 0.0339304,-0.237534zm0.593841 -0.0763514c0.0336878,-0.0636612 0.0319357,-0.0424156 0.093322,-0.0424156l0.0933166 0c-0.0094233,0.0352943 -0.0246957,0.0260111 -0.0376285,0.0726532 -0.00961198,0.0346689 -0.00126147,0.0614348 -0.00508901,0.0967128 -0.00483025,0.0445397 -0.0517257,0.109479 -0.1015,0.110584l0 -0.0509009c0,-0.0190191 -0.00671707,-0.0186202 -0.0169652,-0.0339304l-0.0254559 -0.152703zm0.45827 0.0934783c-0.0230299,0.0375369 -0.186795,0.159048 -0.186795,0.0931548 0,-0.059273 0.0339304,-0.125409 0.0339304,-0.195118 0,-0.0229113 -0.00404857,-0.0233857 -0.00848528,-0.0424156 0.0141781,-0.0211647 0.0329438,-0.0339357 0.0678715,-0.0339357 0.0770037,0 0.143085,0.0974406 0.0934783,0.178315zm0.154951 -0.0861844l-0.0536826 -0.108912c0.0308252,0.000495963 0.0852086,0.00258224 0.0852086,0.0337525l0 0.0169652c0,0.0345287 -0.0134018,0.045634 -0.031526,0.0581948zm0.125252 -0.26554c-0.0838879,0.0511597 -0.0924271,0.0303292 -0.167592,0.0656127 -0.116557,0.0547231 -0.0435531,0.0399304 -0.189124,0.0399304l-0.0593808 0c-0.144395,0 -0.247124,0.0918287 -0.310753,0.0924001l-0.0540384 -0.185717c-0.102352,0.06854 -0.199663,0.417073 -0.201981,0.598558l-0.235906 0.0810846 -0.00325072 -0.00945026c0.0515047,-0.076912 0.145258,-0.0969069 0.180444,-0.235658 0.0262375,-0.103457 -0.109651,-0.197 -0.205895,-0.197l-0.0593862 0c-0.130072,0 -0.279529,0.0678931 -0.347821,0.127252 0.0426744,-0.00994083 0.055742,-0.0339304 0.110287,-0.0339304l0.0424156 0c0.0292511,0 0.0328468,0.00627501 0.0593862,0.00847989 -0.0411057,0.0613808 -0.0509009,0.0847073 -0.0509009,0.186639 -0.0659469,0.00548794 -0.00884108,0.0716613 -0.103656,0.0951495l0.0886427 0.0916939 -0.0104368 0.110077c-0.00463618,0.0432566 0.0169652,0.118217 0.0169652,0.186633 0.0153856,-0.0221351 0.062141,-0.0910793 0.0710144,-0.115619 0.0137468,-0.0380113 -0.0100756,-0.164331 0.0307875,-0.164331 0.0868313,0 0.373703,0.168304 0.490184,0.179506l-0.0575264 -0.0861898c0.0326689,-0.0617366 0.0560385,-0.152703 0.144217,-0.152703 0.0143668,0 0.0317039,0.0112993 0.0398118,0.0176013l0.06199 0.270839c0.0177253,-0.0255098 0.0509009,-0.153835 0.0509009,-0.195124 0,-0.0350193 -0.0169652,-0.0533538 -0.0169652,-0.101802 0.0190245,-0.00443132 0.0195043,-0.00847989 0.0424156,-0.00847989l0.0242321 0.000188682 0.0266688 0.20341c0.0353967,-0.0237038 0.0853758,-0.0866858 0.0827073,-0.144196l0.00212402 -0.110303c0.047316,-0.0110244 0.139199,0.0337039 0.19404,0.0519791 0.0671329,0.0223723 0.14343,0.0302915 0.180256,0.0849876l0.0253373 -0.0207388 0.151792 0.05344c-0.0215043,-0.0186903 -0.0933166,-0.068416 -0.0933166,-0.101802 0,-0.0341783 0.241577,-0.111791 0.285853,-0.129835 0.0472351,-0.0192509 0.276004,-0.113527 0.307988,-0.116185 -0.0154665,-0.0211108 -0.106007,-0.0339357 -0.144217,-0.0339357 -0.0425019,0 -0.0662866,0.0310732 -0.100389,0.0438281 -0.0330085,0.0123506 -0.079187,0.0149274 -0.118665,0.0255529 -0.0681788,0.018356 -0.136358,0.0568417 -0.215421,0.0766587l-0.0236337 -0.0272726c0.0281567,-0.0532082 0.0365989,-0.139075 0.0903138,-0.164185 0.0267658,-0.0125123 0.170051,-0.0812194 0.172676,-0.0818339l-0.000285718 -0.0150784 -0.0760657 -0.0103721c-0.0371272,-0.00556881 -0.0506961,0.0308522 -0.110287,0.0169706 0,-0.0721034 0.0327282,-0.160816 0.0878879,-0.183587 0.028313,-0.0116875 0.184326,-0.0695696 0.200552,-0.0709174l0 -0.0169706c-0.0320435,-0.00746101 -0.0530681,-0.0169652 -0.093322,-0.0169652l-0.00812949 0.00407013 -0.203544 0.017639zm-0.636666 1.86162c0,0.0335206 0,-0.0335206 0,0zm0.244526 -0.0632299c-0.0207388,0.00730468 0.00139624,-0.0132185 0.00997317,-0.00463618 0.00223723,0.00223183 -0.00794619,0.00389762 -0.00852302,0.00414561 -9.16454e-005,3.77363e-005 -0.00141242,0.0004744 -0.00145015,0.000490572zm-0.159695 -0.140374c-0.0176175,0 -0.0238332,-0.0314613 -0.0246634,-0.048847l0.0925349 -0.0359897c-0.00498659,0.0186687 -0.050529,0.0848367 -0.0678715,0.0848367zm-0.907731 -0.0254505c0.000803245,-0.0359034 0.0186202,-0.127252 0.0509009,-0.127252 0.0492351,0 0.0750198,0.0218116 0.118772,0.0254505 -0.00940174,0.0352134 -0.120055,0.100697 -0.169673,0.101802zm0.644741 -0.169668c0,-0.00303508 0.148147,-0.160935 0.161188,-0.169668 0.0102535,0.0153102 0.0169706,0.0149112 0.0169706,0.0339304 0,0.0915699 -0.0203722,0.172671 -0.0848367,0.203604 -0.0231593,-0.0122535 -0.093322,-0.038545 -0.093322,-0.0678661zm0.246025 0.0169652c0.00461461,-0.0554562 0.059521,-0.184326 0.105026,-0.200375 0.0568255,-0.0200434 0.0593161,-0.0085931 0.112826,-0.0398819 0.0398819,-0.0233157 0.0557204,-0.028836 0.0960336,-0.0481785 0.0354668,0.0308252 0.054901,0.06261 0.0432081,0.119376 -0.0177199,0.0860442 -0.010922,0.0681195 -0.0868205,0.0915106 -0.0751223,0.0231593 -0.18493,0.0775482 -0.270273,0.0775482zm-0.364792 -0.373272c0.0131592,-0.00880874 0.0308899,-0.0254505 0.0509009,-0.0254505 0.195587,0 0.135463,0.288435 -0.0848313,0.288435l0.0339304 -0.262985zm-0.492039 0.0424156c0.019887,-0.00985997 0.0377256,-0.0169652 0.0678715,-0.0169652l0.0254451 0c0.0471542,0 0.068265,0.0280651 0.0848367,0.0593862 -0.0211162,0.0399035 -0.108309,0.122848 -0.161188,0.127247l-0.0169652 -0.169668zm0.748409 -0.0697421c-0.00178978,-0.00171431 -0.0132455,-0.00371433 -0.011763,-0.00802167l0.00848528 -0.00848528c0.0308791,0.0201081 0.0920281,0.0134665 0.100627,0.0298117 0.00446906,0.00850146 -0.0124799,0.0903731 -0.0313481,0.0903731 -0.0136983,0 -0.029499,-0.041704 -0.036766,-0.0565506 -0.0046847,-0.00958503 -0.011515,-0.025844 -0.0170676,-0.0338333 -0.00491651,-0.00706209 -0.0077629,-0.00908368 -0.0121673,-0.013294zm0.210224 0.112163c-0.0163183,-0.070044 0.0439844,-0.203604 0.135732,-0.203604l0.0424156 0c0.0324586,0 0.0716074,0.0254505 0.135738,0.0254505 0,0.10026 -0.00933166,0.127252 -0.110282,0.127252l0.00952034 0.0336015 -0.0434561 0.000328845 -0.14487 0.0124045 -0.0247982 0.0045661zm0.831375 0.0763514c0.00130999,-0.058707 0.0673324,-0.356306 0.110287,-0.356306 0.0438712,0 0.101802,0.0667286 0.101802,0.118767 0,0.0322807 -0.0602056,0.116039 -0.0765832,0.143986 -0.0334182,0.0570142 -0.0422054,0.0791061 -0.10157,0.110519l-0.0339357 -0.0169652zm-0.407202 -0.161188c0,-0.0556234 0.0471542,-0.159684 0.0857531,-0.177231 0.0149813,-0.0068141 0.193377,-0.068788 0.194202,-0.068788l0.0424156 0c0.0229113,0 0.0233911,0.00404857 0.0424156,0.00847989 0,0.0640386 -0.0611059,0.22748 -0.0813595,0.308883 -0.00907828,0.036491 -0.0368414,0.117608 -0.0585291,0.136589 -0.0110406,0.0096605 -0.122923,0.0489656 -0.140067,0.046572l-0.144131 -0.0175905c0.00167118,-0.0782274 0.0322969,-0.118902 0.0999851,-0.136843 0.0734133,-0.0194558 0.113031,-0.0720494 0.154433,-0.0831008 -0.0144692,-0.0197469 -0.0519036,-0.0254559 -0.0848367,-0.0254559 -0.0287551,0 -0.0507392,0.0254559 -0.0848313,0.0254559 -0.013887,0 -0.0254505,-0.00508362 -0.0254505,-0.0169706z"/>
 </g>
</svg>
