<?xml version="1.0" encoding="UTF-8"?>
<!DOCTYPE svg PUBLIC "-//W3C//DTD SVG 1.1//EN" "http://www.w3.org/Graphics/SVG/1.1/DTD/svg11.dtd">
<!-- Creator: CorelDRAW -->
<svg xmlns="http://www.w3.org/2000/svg" xml:space="preserve" width="1in" height="2in" style="shape-rendering:geometricPrecision; text-rendering:geometricPrecision; image-rendering:optimizeQuality; fill-rule:evenodd; clip-rule:evenodd"
viewBox="0 0 0.114253 0.139728"
 xmlns:xlink="http://www.w3.org/1999/xlink">
 <defs>
  <style type="text/css">
   <![CDATA[
    .fil0 {fill:#BA8FBA}
   ]]>
  </style>
 </defs>
 <g id="Layer_x0020_1">
  <metadata id="CorelCorpID_0Corel-Layer"/>
  <path class="fil0" d="M0.00996724 0.139728c-0.00556216,-0.00591679 0.00345309,-0.00901524 0.00571171,-0.0139987 0.000130581,-3.73863e-005 0.000279855,-5.60794e-005 0.00042913,-7.47726e-005 0.0114792,-0.0133084 0.0114792,-0.0133084 0.0115727,-0.0136815 -0.000504173,-0.000504173 -0.00257586,-0.00199746 -0.00274383,-0.00278122 -0.00214673,-0.00125054 -0.00526361,0.0034157 -0.00677559,0.0048529 -0.00390118,0.00440508 -0.00498376,0.00606606 -0.00584229,0.00690617 -0.0044422,-0.00785817 -0.0072421,-0.0145216 -0.00923929,-0.0234623 -0.00268775,-0.015884 -0.00238893,-0.0316562 -0.00244501,-0.0477269 0.00393829,-3.73863e-005 0.00789528,-5.60794e-005 0.0118523,-7.47726e-005 -9.31948e-005,-0.000447823 -9.31948e-005,-0.000447823 -0.00214646,-0.00274383 0,-0.00201561 0.000205354,-0.00518884 0.00240789,-0.00606606 -9.34657e-005,-0.000466787 -0.00421842,-0.00586098 -0.00839945,-0.0118712 -0.00151171,-0.00240762 -0.0044422,-0.00550608 -0.004349,-0.00838049 0.00169864,-0.000840108 0.00302368,0.00085853 0.004349,0.00181053 0.00502114,0.00464755 0.0100607,0.0092951 0.0151003,0.0139616 0.0013627,-0.000522866 0.0013627,-0.000522866 0.00369555,-0.00102677 0.00214673,0 0.00354655,0.000298819 0.00378929,0.000167967 -0.00414392,-0.00959392 -0.00414392,-0.00959392 -0.005301,-0.0127295 0.00453566,0.00229574 0.00907132,0.00459147 0.013607,0.00688721 9.31948e-005,-9.31948e-005 0.000186661,-0.00018639 0.000279855,-0.000279855 -0.00210907,-0.0231822 -0.00210907,-0.0231822 -0.00199719,-0.0241529 0.0153056,0.0189267 0.0153056,0.0189267 0.0162015,0.0197291 0.0023892,-0.0083431 0.0047784,-0.0166678 0.00716733,-0.0249927 0.000167967,0 0.000335935,0 0.000522595,0 0.00229574,0.0082873 0.00459174,0.0165749 0.00688748,0.0248622 0.000111888,3.73863e-005 0.000224047,7.47726e-005 0.000354628,0.000112159 0.0107887,-0.0134203 0.0107887,-0.0134203 0.0161081,-0.0197107 -0.000690563,0.00815671 -0.00136243,0.0163134 -0.0020343,0.0244701 0.00207169,-0.00104519 0.0120763,-0.00712995 0.0138308,-0.00670082 -0.00175445,0.00410653 -0.00350889,0.00821279 -0.00524492,0.0123377 9.34657e-005,9.34657e-005 0.000186661,0.000186661 0.000298819,0.000298819 0.00251978,-0.000280126 0.00457278,-0.000186661 0.00699936,0.000765065 0.0058049,-0.00531942 0.0115911,-0.0110869 0.0179747,-0.0158466 0.000466516,0 0.000933303,1.86931e-005 0.00141851,3.73863e-005 0.00233312,0.00281833 -0.0123751,0.0175453 -0.0123751,0.0203075 0.00190399,0.00242659 0.00395699,0.0066637 -9.31948e-005,0.00838076 0,0.000112159 0,0.00024274 0,0.000373321 0.00395699,1.86931e-005 0.00791397,3.73863e-005 0.011871,7.47726e-005 9.34657e-005,0.0160894 0.000336206,0.0321043 -0.0024824,0.0479883 -0.00220254,0.00854873 -0.00464755,0.0154175 -0.00909002,0.0231448 -0.000167967,0 -0.000317242,0 -0.000466516,0 -0.00315454,-0.00421815 -0.00699964,-0.00933249 -0.0114605,-0.0121698 -0.00279964,0.00246397 -0.00279964,0.00246397 -0.00371452,0.00362105 0.000168238,5.60794e-005 0.000336206,0.000112159 0.000504173,0.000167967 0.000503902,0.000858801 0.00931379,0.0109753 0.0107326,0.0123193 0.00266906,0.00309819 0.00533811,0.00621534 0.00802586,0.00933249 0.000653447,0.00201588 0.000448094,0.00414365 -0.00128793,0.00539419 -0.0014559,0 -0.0029118,0 -0.004349,0 -0.00655127,-0.0073353 -0.0130841,-0.0146709 -0.0196172,-0.0219877 -0.00339701,0.00296788 -0.00679401,0.00593575 -0.0101723,0.00890336 -1.86931e-005,-0.00321035 -5.60794e-005,-0.0063275 -0.000503902,-0.00950045 -0.000205354,7.45017e-005 -0.000410707,0.000149274 -0.000597368,0.000224047 -0.00461043,0.00582332 -0.0109005,0.00675662 -0.017788,0.00475971 -0.0028931,-0.00143748 -0.00440508,-0.00289337 -0.00658893,-0.00524519 -0.000578404,0.00324773 -0.000559982,0.00638357 -0.000597097,0.00968739 -0.00989274,-0.00882886 -0.00989274,-0.00882886 -0.0103406,-0.00892205 -0.0038451,0.00470363 -0.0038451,0.00470363 -0.0182174,0.0208491 -0.00188503,0.0015304 -0.0029863,0.00130662 -0.00543158,0.00139982zm0.0230703 -0.0985151c-0.00302368,-0.00727949 -0.00350916,-0.00800744 -0.00466624,-0.0111433 0.00358367,0.00184791 0.00718603,0.00369583 0.0107884,0.00556243 7.47726e-005,-9.34657e-005 0.000149274,-0.000186661 0.000224047,-0.000280126 -0.000559982,-0.00629011 -0.00192241,-0.0131589 -0.0014559,-0.019449 0.00444247,0.00546869 0.00890336,0.0109377 0.0133642,0.0164253 0.00190399,-0.0068127 0.00380771,-0.013607 0.00573013,-0.020401 0.00197876,0.00677532 0.00397568,0.0135509 0.00597287,0.0203262 0.00444247,-0.00545027 0.00890336,-0.0109003 0.0133645,-0.0163505 0.000653177,0.00619664 -0.00115735,0.0133269 -0.00143721,0.0197291 0.00173575,-0.000895917 0.00936987,-0.00571171 0.0109005,-0.00533838 -0.00419973,0.00965 -0.00419973,0.00965 -0.00455436,0.0109192 -0.00647704,-0.00199719 -0.0124686,-0.00371452 -0.0192252,-0.00455436 -0.0034157,0 -0.0068314,0 -0.0102471,0 -0.00660762,0.00100808 -0.0124312,0.00244528 -0.0187587,0.00455436zm0.0181426 0.00259455c7.45017e-005,-0.000261433 0.000167967,-0.000522595 0.000261162,-0.000784029 0.000205354,3.73863e-005 0.000410707,9.34657e-005 0.000616061,0.000149274 5.60794e-005,0.000205354 0.000111888,0.000410707 0.000167967,0.000634754 -0.000354628,0 -0.000709256,0 -0.00104519,0zm-0.0072421 0.000522595c-3.73863e-005,-0.000298819 -7.47726e-005,-0.000597368 -0.000112159,-0.000895917 0.00141878,-0.000317242 0.00141878,-0.000317242 0.00177341,-0.000186661 -1.86931e-005,0.00115708 -0.000727949,0.000970418 -0.00166125,0.00108258zm-0.0241155 0.0010265c-0.00472232,-0.00522623 -0.0091461,-0.0110124 -0.012879,-0.0169666 0.00119447,0.000989111 0.00119447,0.000989111 0.00173575,0.00115708 1.86931e-005,0.000149545 3.73863e-005,0.000298819 5.60794e-005,0.000448094 0.00459174,0.00405045 0.0101913,0.00938857 0.0122072,0.0116285 0,0.000727949 -0.00048548,0.000970418 -0.00106388,0.00119447 9.31948e-005,0.000448094 9.31948e-005,0.000448094 0.00138113,0.00205327 -0.000485209,0.000149274 -0.000970689,0.000317242 -0.00143721,0.000485209zm0.0741384 0.000261433c-0.000410707,-0.000261433 -0.000802722,-0.000504173 -0.00119474,-0.000746642 0.000690563,-0.000709256 0.00123185,-0.00108258 0.0013814,-0.00205327 -0.000392014,-0.000279855 -0.000765335,-0.000541289 -0.00113866,-0.000802451 0.000877223,-0.00100808 0.00175445,-0.00199719 0.00265036,-0.00298657 0.011162,-0.0103593 0.011162,-0.0103593 0.0114231,-0.0103032 -0.0029118,0.00393829 -0.00582359,0.00789528 -0.00873539,0.0118525 -0.00345281,0.0039941 -0.00345281,0.0039941 -0.00360236,0.00451697 -0.000466516,5.58085e-005 -0.000466516,5.58085e-005 -0.000783758,0.000522595zm-0.0318802 0.000261162c-0.000448094,-0.000130581 -0.000877494,-0.000261162 -0.00130662,-0.000392014 0.000261162,-0.000130581 0.000522595,-0.000261162 0.000783758,-0.000391743 3.73863e-005,-0.000784029 7.47726e-005,-0.00156806 0.000130852,-0.00233339 -0.000466787,0.000877494 -0.00091461,0.00175472 -0.0013627,0.00265063 -0.000373321,5.60794e-005 -0.000746642,0.000130581 -0.00110127,0.000205354 -0.000392014,-0.000951996 -0.000783758,-0.00190399 -0.00117577,-0.00285599 0,0.000690834 0,0.0013814 0,0.00209065 0.000186661,0.000186661 0.000373321,0.000373321 0.000578675,0.000559982 -0.000840108,5.60794e-005 -0.00167995,0.000130581 -0.00252005,0.000205354 0,-0.000186661 0,-0.000354628 0,-0.000522595 0.000186661,-7.47726e-005 0.000373321,-0.000130852 0.000578675,-0.000186661 1.86931e-005,-0.000970689 3.73863e-005,-0.00194138 7.47726e-005,-0.0029118 -0.000205354,-0.000205354 -0.000410707,-0.000410707 -0.000597368,-0.000597368 0.00110127,-7.47726e-005 0.00220254,-0.000130581 0.0033225,-0.000186661 0.000205354,0.000690563 0.00042913,0.00138113 0.000653177,0.00207196 0.00119474,-0.00209065 0.00167995,-0.00270644 0.0042745,-0.00141878 -0.000261433,0.000130852 -0.000522595,0.000261433 -0.000784029,0.000392014 -5.60794e-005,0.000933303 -9.34657e-005,0.0018853 -0.000130581,0.00283729 0.000186661,0.000186661 0.000373321,0.000373321 0.000578404,0.000578404 -0.00067187,5.60794e-005 -0.00134374,0.000130852 -0.00199692,0.000205354zm0.00802586 0.00130662c-0.00181053,-0.000392014 -0.00362105,-0.000784029 -0.00543158,-0.00117577 0.000503902,-0.000522866 0.000503902,-0.000522866 0.00102677,-0.000653447 3.71154e-005,-0.00128793 0.000317242,-0.0024637 -0.000261433,-0.00362105 0.00197849,0.000373321 0.00397568,0.000765335 0.00597287,0.00115735 0.000186661,0.000317242 0.000186661,0.000317242 0,0.00143721 -0.00128793,-0.000895917 -0.00205327,-0.00104519 -0.00363975,-0.00130662 0,0.000261433 0,0.000522595 0,0.000784029 0.000690563,0 0.00138113,0 0.00207196,0 -0.000130852,0.000503902 -0.000261433,0.0010265 -0.000373321,0.00154909 -0.000335935,-0.000335935 -0.000335935,-0.000335935 -0.0019598,-0.000765335 -7.47726e-005,0.000261433 -0.000130852,0.000541289 -0.000186661,0.000821415 0.00108258,0.000541289 0.00237051,0.000261162 0.00356497,0.000205354 -9.34657e-005,0.000522595 -0.000186661,0.00104519 -0.000261433,0.00156779 -0.000186661,0 -0.000354628,0 -0.000522595,0zm-0.0282592 0.00024274c0.000765335,-0.00154936 0.000709256,-0.0028931 -0.000746371,-0.00395699 0.0024637,-0.000746642 0.00388221,-0.00108258 0.00645808,-0.000951996 -0.000167967,0.00164256 -0.000167967,0.00164256 -0.000410707,0.0019598 0.000317242,0.000317242 0.000634754,0.000653177 0.000951996,0.000989382 0.000373321,-5.60794e-005 0.000746642,-0.000112159 0.00111996,-0.000149545 0.000447823,-0.000895917 0.000895917,-0.00179183 0.00134374,-0.00268775 -0.00141851,-0.00214646 0.00203457,-0.00130662 0.00335989,-0.00119447 -0.00119474,0.00119447 0.000392014,0.00328512 0.00167995,0.00365844 0,0.000167967 0,0.000335935 0,0.000522595 -0.00100808,-9.34657e-005 -0.00201588,-0.000167967 -0.00302396,-0.00024274 0.000130581,-0.000224047 0.000261433,-0.000429401 0.000392014,-0.000634483 -0.000746642,-3.73863e-005 -0.00149328,-7.47726e-005 -0.00223993,-9.34657e-005 0,0.000111888 0,0.00024274 0,0.000373321 0.000541289,0.000224047 0.000541289,0.000224047 0.000858801,0.000616061 -0.0037519,0.00061579 -0.0037519,0.00061579 -0.00543158,0.000597097 -0.000653447,-0.000933303 -0.000821415,-0.00138113 -0.00192269,-0.00108258 0,0.000298819 0,0.000597368 0,0.00091461 0.000280126,0.000186661 0.000578675,0.000373321 0.000877223,0.000559982 -0.00110127,0.000261433 -0.00218385,0.000522595 -0.00326642,0.000802722zm-0.00569274 0.00130662c-0.004349,-0.00293049 0.00265036,-0.00459174 0.00440481,-0.00492768 7.47726e-005,0.00042913 0.000168238,0.00085853 0.000261433,0.00128793 -0.00113866,-3.73863e-005 -0.00576751,-3.73863e-005 -0.00365844,0.00242632 0.00184791,0 0.00255717,-0.000802451 0.00418103,-0.00111996 -0.000447823,0.0023147 -0.0033225,0.00222123 -0.00518884,0.00233339zm0.0406901 0.000522595c-0.000522595,-0.000186661 -0.00104519,-0.000354628 -0.00154909,-0.000522595 -0.00048548,-0.00111996 -0.000970689,-0.00222123 -0.00143721,-0.0033225 -0.000354628,0.00104519 1.84222e-005,0.00179183 -9.34657e-005,0.00268775 -0.000765335,-0.000298549 -0.00151198,-0.000597368 -0.00225835,-0.000895917 0.00115708,-0.000784029 0.00160517,-0.00242659 0.0010265,-0.00369583 0.000709256,-0.000111888 0.000709256,-0.000111888 0.00259455,0.000448094 0.000522595,0.00104519 0.00104519,0.00209038 0.00158648,0.00315427 0.000242469,-0.000746371 0.000503902,-0.00173575 -9.34657e-005,-0.00233312 0.00110127,-5.58085e-005 0.00149328,0.000149545 0.00251978,0.000634754 -0.00139982,0.000746642 -0.0014559,0.00220254 -0.00194111,0.00367713 -0.000130581,5.58085e-005 -0.00024274,0.000111888 -0.000354628,0.000167967zm-0.0453564 0c0,-0.000354628 0,-0.000709256 0,-0.00104546 0.000335935,0.000205354 0.00067187,0.000429401 0.0010265,0.000653447 -0.000354628,0.000130581 -0.000690563,0.000261162 -0.0010265,0.000392014zm0.0505452 0.00207169c-0.000839837,-0.00042913 -0.00167967,-0.00085853 -0.00250109,-0.00128793 0.00110127,-0.00085853 0.00160517,-0.00162387 0.00156806,-0.00313557 -0.00048548,-0.000149545 -0.00164256,0.000130581 -0.00209065,3.71154e-005 0.000130581,-0.000447823 0.000280126,-0.000895917 0.000429401,-0.00132505 0.00192241,0.000653177 0.00386352,0.00130662 0.0058049,0.0019598 -0.00024274,0.00117577 -0.00024274,0.00117577 -0.000597368,0.00156779 -0.000634483,-0.000783758 -0.000784029,-0.00125054 -0.00177314,-0.00139982 -0.000410707,0.00143721 -0.000877223,0.00218385 -0.000317242,0.00358367 -0.000186661,0 -0.000354628,0 -0.000522866,0zm-0.0523557 0.000522595c0.00037305,-0.00108258 0.00037305,-0.00108258 0.000690563,-0.00410626 -0.000224047,-0.000130581 -0.000448094,-0.000261433 -0.000672141,-0.000392014 0.00111996,-0.000466516 0.00223993,-0.000933303 0.00335989,-0.00138113 9.31948e-005,0.000447823 9.31948e-005,0.000447823 -0.000167967,0.00104519 0.00104519,0.000821144 0.00209038,0.00164256 0.00315427,0.0024637 -0.00106388,0.000504173 -0.00173575,0.000951996 -0.0029118,0.000821415 9.34657e-005,-0.000224047 0.000186661,-0.000429401 0.000280126,-0.000634754 -0.000709256,0.000130852 -0.00141851,0.000261433 -0.00212777,0.000410707 0,0.000130581 0,0.000261433 0,0.000392014 0.000279855,0.000186661 0.000578404,0.000373321 0.000877223,0.000559982 -0.000840108,0.000261162 -0.00166125,0.000541289 -0.0024824,0.000821144zm0.0580674 0.000504173c-0.000392014,-0.000224047 -0.000784029,-0.000448094 -0.00115735,-0.000672141 0,-0.000503902 0,-0.0010078 0,-0.00151171 0.000727949,-0.000727949 0.00162387,-0.000690834 0.00253848,-0.000261433 9.34657e-005,0.000373321 0.000205354,0.000746642 0.000317513,0.00111996 -0.000559982,0.000802451 -0.000784029,0.000989111 -0.00169864,0.00132532zm-0.000784029 0.000783758c-0.00167967,-0.00128793 -0.00251978,-0.00160517 -0.00192241,-0.00373294 0.00240789,-0.00177314 0.00591679,-0.000802722 0.00591679,0.0024637 -0.00106388,0.00153067 -0.00222123,0.00117604 -0.00399437,0.00126924zm-0.0627337 0.000522595c-0.000186661,-0.000447823 -0.000354628,-0.000877223 -0.000522866,-0.00130635 0.00113866,-3.73863e-005 0.00356524,9.31948e-005 0.00410653,-0.00113866 -0.00166125,-7.47726e-005 -0.00569301,0.00171706 -0.00447958,-0.00154936 0.00160517,-0.000895917 0.00261298,-0.00121316 0.0044422,-0.0015304 5.60794e-005,-0.000149274 0.000130581,-0.000298819 0.000205354,-0.000448094 0.000167967,0.000354628 0.000354628,0.000709256 0.000541289,0.00106388 -0.00100808,0.000186661 -0.00343439,0.000205354 -0.00401307,0.0013627 0.0019598,3.73863e-005 0.0048716,-0.00171733 0.00474102,0.00130662 -0.000466787,0.000335935 -0.000933303,0.000690563 -0.00138113,0.00104519 -0.00108285,0.000224047 -0.00302396,0.000261162 -0.00363975,0.00119447zm0.0176198 0.000522595c0,-0.000186661 0,-0.000354628 0,-0.000522595 0.000672141,-0.000410437 0.0013627,-0.000802451 0.00205327,-0.00119447 0.00884728,0 0.0176946,1.86931e-005 0.0265605,3.73863e-005 0.000616061,0.000466516 0.00123185,0.000951725 0.00186661,0.00143721 -0.0101726,7.45017e-005 -0.0203265,0.000149274 -0.0304804,0.000242469zm0.0295658 0.00128793c-0.0112365,-0.000130581 -0.022473,-0.000261162 -0.0337094,-0.000391743 0.000186661,-0.000336206 0.000186661,-0.000336206 0,-0.00141878 0.0138497,-0.00449828 0.0245262,-0.00496479 0.0384318,-7.45017e-005 5.60794e-005,0.00061579 0.000130581,0.00125054 0.000205354,0.00188503 -0.00164256,0 -0.00328512,0 -0.00492768,0zm-0.0238541 0.0344748c-0.00085853,-0.00953784 -0.00110127,-0.0189454 -0.00128793,-0.0285206 0.00128793,-5.58085e-005 0.00259455,-0.000111888 0.00390091,-0.000167967 9.34657e-005,0.000802722 0.000186661,0.00160517 0.000298819,0.00242659 0.00515145,0.00356497 0.00515145,0.00356497 0.00599156,0.00393829 5.58085e-005,-0.00207196 0.000111888,-0.00414365 0.000167967,-0.00619691 0.00138113,0 0.00276225,0 0.00414365,0 -0.000186661,0.00925798 -0.000335935,0.018516 -0.00102677,0.0277553 -0.00104519,0 -0.00209038,0 -0.00311688,0 -5.60794e-005,-0.00502087 -0.000112159,-0.0100417 -0.000167967,-0.0150629 -0.00197849,-0.00128793 -0.00393857,-0.00257586 -0.00589837,-0.0038451 0,0.00640227 5.60794e-005,0.0127671 0.000373321,0.0191507 -0.00113839,0.000167967 -0.00225835,0.000335935 -0.00337831,0.000522595zm0.0282592 0.00233312c-0.00354655,-0.00119447 -0.00720499,-0.00184791 -0.0108819,-0.00259455 0.000690563,-0.00940726 0.00117577,-0.0188332 0.00154909,-0.0282592 0.00397568,0 0.00795136,0 0.011927,0 -9.31948e-005,0.00272514 -0.000167967,0.00545027 -0.000242469,0.0081941 -0.00102677,-0.000578675 -0.00203457,-0.00115735 -0.00304238,-0.00173575 0,-0.000858801 0,-0.00171733 0,-0.00257586 -0.00156806,-7.47726e-005 -0.00313584,-0.000130581 -0.0047039,-0.000186661 -0.00042913,0.00713022 -0.00085853,0.0142602 -0.00128766,0.0213904 0.00395699,0.000727949 0.00395699,0.000727949 0.0044422,0.000559982 0.000541289,-0.00416234 0.000541289,-0.00416234 0.000765335,-0.00854873 -0.000205354,-9.34657e-005 -0.000410707,-0.000167967 -0.000597368,-0.00024274 0,-0.000783758 0,-0.00156779 0,-0.00233312 0.0013814,7.47726e-005 0.00276252,0.000167967 0.00414365,0.000261433 -0.00042913,0.00520753 -0.000839837,0.0104151 -0.00169837,0.0155668 -0.000130852,0.000167967 -0.000261433,0.000335935 -0.000373321,0.000503902zm-0.0378531 0c-0.00147459,-0.0102471 -0.0018853,-0.0205132 -0.00207196,-0.0308537 0.00164256,0 0.00328512,0 0.00492768,0 7.47726e-005,0.00996724 0.000653177,0.0196359 0.00154936,0.0295658 -0.00147459,0.000429401 -0.00294918,0.00085853 -0.00440508,0.00128793zm0.0619686 0.0142602c-0.00595417,-0.00502087 -0.0117033,-0.00867931 -0.0186652,-0.0121882 0.000559982,-0.00444247 0.00111969,-0.00888466 0.00169837,-0.0133271 0.00130662,0 0.00522623,0.00375163 0.00642096,0.00466624 1.86931e-005,0.00220254 -0.000261433,0.00412523 -0.000111888,0.00461043 0.00201561,0.00111996 0.00403149,0.00225862 0.00606606,0.00339701 0.00416234,-0.00974319 -0.00349047,-0.0140735 -0.00929537,-0.0208304 -0.00268775,-0.00539419 -0.00237051,-0.00953784 -0.00244501,-0.0155855 0.0073353,0 0.0146709,0 0.0220249,0 -9.31948e-005,0.00515172 -0.000167967,0.0103032 -0.000242469,0.0154549 -0.0023892,-0.00175445 -0.00475971,-0.00350916 -0.00713022,-0.00524492 -7.47726e-005,-0.00166125 -0.000149274,-0.0033225 -0.000224047,-0.00496506 -0.0023892,0 -0.00475971,0 -0.00712995,0 1.84222e-005,0.00134401 3.71154e-005,0.00268775 5.58085e-005,0.00405045 0.00285572,0.00690617 0.00948203,0.0109377 0.0127111,0.0176387 0.00104519,0.00752196 -0.000727949,0.0153801 -0.00373294,0.0223234zm-0.0860841 0c-0.00604764,-0.0155107 -0.00533838,-0.0330373 -0.0052823,-0.0493694 0.00255717,0 0.00513303,0 0.00770862,0 7.47726e-005,0.00623403 0.000149545,0.0124683 0.000224047,0.0187026 0.00242659,-0.000858801 0.0047784,-0.00315454 0.00686878,-0.00466651 1.86931e-005,-0.00455436 3.73863e-005,-0.00910844 7.47726e-005,-0.0136628 0.00233312,-0.000224047 0.00440508,-0.000392014 0.0067382,-0.000261433 1.86931e-005,0.00513303 5.58085e-005,0.0102658 9.31948e-005,0.0153988 -0.00179183,0.00134401 -0.00358367,0.00268775 -0.0053755,0.00403176 3.73863e-005,0.000205354 7.45017e-005,0.000429401 0.000130581,0.000653177 0.00192269,0.00104546 0.0038451,0.00209065 0.00576751,0.00313584 0.00106388,0.00838076 0.00106388,0.00838076 0.00197849,0.0138497 -0.0044235,0.00197849 -0.00586071,0.00294891 -0.00673793,0.00311688 -0.000634754,-0.00438612 -0.00126924,-0.0087725 -0.0018853,-0.0131589 -0.00244528,-0.00139982 -0.0048716,-0.00279991 -0.00729818,-0.00419973 0.000298819,0.00735426 0.00149328,0.0140922 0.00311715,0.0212598 -0.00128793,0.00186661 -0.00421842,0.00380771 -0.00612214,0.00517015zm0.0267098 0.0132152c-0.000877223,-0.000802722 -0.00449828,-0.0033225 -0.00522623,-0.0047971 -0.00582359,-0.00505826 -0.00582359,-0.00505826 -0.00670082,-0.00556216 -9.31948e-005,-0.000877494 -0.00125054,-0.00162387 -0.00207169,-0.00181053 -0.000112159,-0.00091461 -0.00154936,-0.00173602 -0.00223993,-0.0023147 0.00582359,-0.00197849 0.00582359,-0.00197849 0.0107513,-0.00406888 0.00317296,-0.00167995 0.00976189,-0.00655154 0.0136815,-0.00558085 -0.00393829,0.00324773 -0.00569274,0.00591679 -0.00679401,0.0110124 0,0.00272514 0.000261162,0.00453566 0.000261162,0.00640227 -0.000503902,0.00227704 -0.0010265,0.00438612 -0.00113839,0.00671951 -0.000186661,0 -0.000354628,0 -0.000522866,0zm0.0321416 0.000261162c-0.000392014,-0.00362105 -0.00115735,-0.0067382 -0.00115735,-0.0077647 0.00111996,-0.00576751 -0.000261162,-0.0135509 -0.00610345,-0.0164627 0.00658893,0.000634483 0.0119083,0.0048716 0.0178999,0.00750327 0.00207196,0.000690563 0.00414365,0.0013814 0.00621561,0.00209065 -0.00492768,0.00414365 -0.00699936,0.00621534 -0.0108819,0.00957523 -0.000261433,0.000130581 -0.000522595,0.000261433 -0.000784029,0.000392014 0,0.000167967 0,0.000335935 0,0.000522595 -0.000783758,0.000392014 -0.00414365,0.00350916 -0.00518884,0.00414365zm-0.0160707 0.000784029c3.71154e-005,-0.00713022 7.45017e-005,-0.0142604 0.000130581,-0.0213904 -0.000522595,-0.00182922 -0.00179183,-0.000840108 -0.0033225,-0.000466787 -0.000111888,0.00472232 -0.00240762,0.00772759 -0.00472205,0.0117407 -0.000765335,0.00272514 -0.000765335,0.00272514 -0.00128793,0.00571143 -0.00175472,-0.00393829 0.00350889,-0.0110311 0.00518884,-0.013999 3.73863e-005,-0.00104519 7.47726e-005,-0.00209038 0.000130581,-0.00311715 -0.00545027,0.00166125 -0.00714864,0.00660762 -0.00791397,0.0116659 -0.000429401,-0.00556216 0.00210907,-0.00996724 0.00739138,-0.0121885 -0.000392014,-0.00128793 -0.000392014,-0.00128793 -0.000727949,-0.00162387 0.000167967,-0.000130581 0.000335935,-0.000261162 0.000522595,-0.000392014 0.000298819,0.000429401 0.000597368,0.000858801 0.00091461,0.00130662 0.00110127,7.47726e-005 0.00110127,7.47726e-005 0.00375163,-0.000522595 0,-0.000559982 0,-0.00111996 0,-0.00167995 0.00024274,-7.45017e-005 0.00048548,-0.000130581 0.000727949,-0.000186661 0,0.000690834 0,0.0013814 0,0.00207196 0.00128793,0.000167967 0.00257586,0.000335935 0.00388249,0.000522595 0.000111888,-0.000821144 0.000335935,-0.000989111 0.00091461,-0.00156779 7.45017e-005,0.000130581 0.000167967,0.000261162 0.000261162,0.000392014 -0.000522595,0.00091461 -0.000522595,0.00091461 -0.000653177,0.00167967 0.00511434,0.00220254 0.00832468,0.00685036 0.00739138,0.0124499 -0.000783758,-0.00612241 -0.00242632,-0.0091274 -0.00791397,-0.0119273 5.60794e-005,0.00162387 0.000111888,0.0028931 0.000653177,0.00440508 0.00255717,0.00408784 0.00522623,0.00767151 0.0047971,0.0127111 -0.000167967,-7.47726e-005 -0.000317242,-0.000149274 -0.000466787,-0.000205354 0.00024274,-0.00565563 -0.00386352,-0.00933249 -0.00563693,-0.0143162 -3.71154e-005,-0.000989111 -5.58085e-005,-0.0019598 -7.45017e-005,-0.00293049 -0.000821415,-0.000317242 -0.00251978,-0.000559982 -0.00315454,-0.00042913 0,0.00742877 0,0.0148575 0,0.0222863 -0.000261162,0 -0.000522595,0 -0.000783758,0zm-0.0305923 0.00128793c-5.60794e-005,-0.00130662 -9.34657e-005,-0.00259455 -0.000130852,-0.00388249 0.000522595,-0.000616061 0.00104546,-0.00121316 0.00156806,-0.00181053 9.31948e-005,0.00197849 0.000895917,0.0048529 -0.00143721,0.00569301zm0.0617072 0.000261162c-0.00181053,-0.00229574 -0.00141851,-0.00268775 -0.00108258,-0.00586071 0.00186661,0.00212777 0.00139982,0.00311688 0.00108258,0.00586071zm-0.0676616 0.00649546c5.60794e-005,-0.00259428 -0.000205083,-0.00373294 0.00141878,-0.00571143 9.31948e-005,0.00201588 0.000970418,0.0048529 -0.00141878,0.00571143zm0.0736158 0.00024274c-0.00179183,-0.00214646 -0.0014559,-0.00313584 -0.00115735,-0.00595417 0.00167995,0.00205327 0.00121343,0.00326642 0.00115735,0.00595417zm0.00571171 0.00649546c-0.00130662,-0.00169837 -0.00166125,-0.00328512 -0.000821415,-0.00535681 0.000392014,0.000373321 0.000784029,0.000765335 0.00119474,0.00115708 0,0.0023892 0,0.0023892 -0.000373321,0.00419973zm-0.0850389 0c-5.60794e-005,-0.00263167 -0.000541289,-0.00371425 0.00117577,-0.00571143 7.47726e-005,0.00138113 0.000168238,0.00276225 0.000261433,0.00414365 -0.000485209,0.000522595 -0.000970689,0.00104519 -0.00143721,0.00156779z"/>
 </g>
</svg>
