<?xml version="1.0" encoding="UTF-8"?>
<!DOCTYPE svg PUBLIC "-//W3C//DTD SVG 1.1//EN" "http://www.w3.org/Graphics/SVG/1.1/DTD/svg11.dtd">
<!-- Creator: CorelDRAW -->
<svg xmlns="http://www.w3.org/2000/svg" xml:space="preserve" width="1in" height="2in" style="shape-rendering:geometricPrecision; text-rendering:geometricPrecision; image-rendering:optimizeQuality; fill-rule:evenodd; clip-rule:evenodd"
viewBox="0 0 0.0736669 0.0809562"
 xmlns:xlink="http://www.w3.org/1999/xlink">
 <defs>
  <style type="text/css">
   <![CDATA[
    .fil0 {fill:black}
   ]]>
  </style>
 </defs>
 <g id="Layer_x0020_1">
  <metadata id="CorelCorpID_0Corel-Layer"/>
  <path class="fil0" d="M0.0366026 0.0809562c-0.000314085,-0.00170178 -0.00124598,-0.00310976 -0.00203615,-0.0046394 -0.00171192,-0.00232973 -0.0027959,-0.00455829 -0.00366695,-0.00731341 -0.000394972,-0.00265395 -0.000232973,-0.0051966 -0.00010139,-0.00785055 -0.000182277,1.0139e-005 -0.000364555,3.04171e-005 -0.000536693,5.06952e-005 -0.00347454,0.00226889 -0.00589552,0.00187392 -0.00922811,5.04699e-005 -0.000851004,-0.00067864 -0.00343398,-0.00218801 -0.00356579,-0.0032312 0.00367709,0.000425389 0.00712121,0.00124598 0.00920783,-0.00241084 0,-0.00534846 -0.00147872,-0.0109198 -0.00711085,-0.0124393 -0.00426471,0 -0.00614877,0.000972447 -0.00765813,0.0050141 -0.000344277,0.00198545 -1.0139e-005,0.00388979 -0.000192417,0.00583468 -0.000851004,-0.00067864 -0.00344412,-0.00269451 -0.00384923,-0.00370751 -0.000698918,-8.0887e-005 -0.00388979,-0.00475071 -0.00410248,-0.00504451 -0.00324157,-0.00528762 -0.00633104,-0.0134013 -0.000425615,-0.0181117 0.00475093,-0.00254265 0.00863058,-0.00215759 0.0138574,-0.000871057 0.00154992,0.000567111 0.00154992,0.000567111 0.00252237,0.000789944 1.0139e-005,7.09733e-005 2.02781e-005,0.000152086 3.04171e-005,0.000232973 0.00210689,0.000658587 0.0040822,0.0015702 0.00601696,0.00262376 0.000202556,-3.04171e-005 0.00041525,-5.06952e-005 0.00062817,-7.09733e-005 -0.000283668,-0.00239056 -0.000283668,-0.00239056 -0.000385058,-0.00585496 -0.000435528,-0.000121669 -0.00067864,-0.000394972 -0.00178267,-0.000871282 -2.02781e-005,-9.10261e-005 -3.04171e-005,-0.000172138 -4.05562e-005,-0.000253025 -0.0021274,-0.000881421 -0.00424443,-0.0015702 -0.00645271,-0.00221842 -0.00169164,-0.000141947 -0.00169164,-0.000141947 -0.00194489,-0.000273529 0.00244126,-0.00078003 0.00415318,-0.000992725 0.00675643,-0.000992725 0.00138792,0.000101165 0.00281618,0.000769891 0.0041329,0.000617806 0.00124598,-0.00560171 0.00324157,-0.0104842 0.0062096,-0.0153766 0.00237028,-0.00304915 0.00348468,-0.00430526 0.00365682,-0.0046394 0.000172138,0 0.000354416,0 0.000536919,0 0.00516596,0.0053079 0.00823538,0.0126722 0.00987633,0.0198845 0.000587389,0.000587389 0.0020562,-0.000141947 0.00271479,-0.000344502 0.00259312,-0.000212695 0.00567246,-0.00041525 0.00803283,0.000851004 -0.00026339,0.000131582 -0.00026339,0.000131582 -0.00181331,0.000273529 -0.0029579,0.000871057 -0.00548004,0.0017322 -0.00811394,0.00332245 -0.000141721,0.000283668 -0.000141721,0.00281595 -0.000445667,0.00599668 0.000212695,-2.02781e-005 0.000435528,-4.05562e-005 0.000658587,-5.04699e-005 0.00533832,-0.00246153 0.0101904,-0.00477121 0.0161972,-0.00477121 0.00136742,0.000283668 0.0027452,0.000567336 0.00412276,0.000861143 0.000759752,0.000465945 0.00276548,0.00134714 0.00307934,0.00213731 0.000931891,0.000111304 0.00187415,0.00327176 0.00213731,0.00409234 4.05562e-005,0.00094203 9.12514e-005,0.0018942 0.000141947,0.00284637 -0.00036478,0.00561185 -0.00351509,0.00987633 -0.00676657,0.0142523 -0.001175,0.00117523 -0.00342384,0.00289729 -0.00441657,0.00439629 -0.000232973,0.000111529 -0.000465945,0.000222834 -0.000698918,0.000334363 0.00104342,-0.00370751 6.08343e-005,-0.00702996 -0.00241084,-0.0097853 -0.00674652,-0.00334273 -0.0106462,0.00126625 -0.0121556,0.0075466 -0.000415476,0.00361626 -0.000385058,0.00568282 0.00360612,0.00652346 0.00185364,0 0.00366695,1.0139e-005 0.00548004,-0.000486224 -0.000232973,0.00120542 -0.00201564,0.00150937 -0.00211703,0.00239079 -0.000293807,8.0887e-005 -0.00181309,0.00118514 -0.00268437,0.00163081 -0.00202601,0.00210689 -0.00613863,0.000374694 -0.00815427,-0.000698918 -0.000172364,2.02781e-005 -0.000334363,4.05562e-005 -0.000496363,7.0748e-005 0.000243112,0.00261362 0.000253251,0.00526757 -0.000141947,0.00787083 -0.000374694,0.00103328 -0.000749613,0.00206656 -0.00112431,0.00309962 -0.00175248,0.00287678 -0.00359598,0.00553074 -0.00470024,0.00871147 -0.000101165,0 -0.000192417,0 -0.000283443,0zm0.000141721 -0.00394026c-0.00079017,-0.00156006 -0.0010637,-0.00181331 -0.00164095,-0.00280604 7.0748e-005,-9.10261e-005 7.0748e-005,-9.10261e-005 0.00347431,-0.00015186 -0.000516641,0.0010432 -0.00108375,0.00188406 -0.0015497,0.0029579 -0.00010139,0 -0.000192417,0 -0.000283668,0zm-0.00253251 -0.00647299c-0.000425389,-0.000141721 -0.000850778,-0.000283668 -0.00126603,-0.00041525 -0.00021292,-0.00140798 -0.000496363,-0.00218801 -0.000425615,-0.00253251 0.00292748,0.000202781 0.00579413,0.000243112 0.00872161,0 -9.10261e-005,0.000952169 -0.000334138,0.00231981 -0.00112431,0.00287701 -0.00197531,2.00528e-005 -0.00394048,4.03309e-005 -0.00590566,7.0748e-005zm0.000567336 -0.0061891c-0.000769891,-0.000131808 -0.00153978,-0.00026339 -0.00229931,-0.000395197 9.91373e-006,-0.000901474 2.00528e-005,-0.00180295 4.03309e-005,-0.00269451 0.0029072,0.00010139 0.00569296,0.00010139 0.00859002,0 5.06952e-005,0.00089156 0.000101165,0.00179303 0.000161999,0.00269451 -0.00218801,0.000283668 -0.00428476,0.000354641 -0.00649304,0.000395197zm-0.009998 -0.00323143c-0.000698918,-0.000354641 -0.000698918,-0.000354641 -0.00182323,-0.000709057 0,-0.00010139 0,-0.000192417 0,-0.000283668 0.00336301,-0.000516641 0.00512563,-0.00199559 0.00574343,-0.00542957 0.000861143,0.00118537 0.00194489,0.00204628 0.00303901,0.00301873 -1.0139e-005,0.000111529 -1.0139e-005,0.000232973 -1.0139e-005,0.000354641 -0.00257306,0.00163081 -0.00398104,0.00269428 -0.00694908,0.00304892zm0.023359 0c-0.00205642,-0.000384833 -0.00453801,-0.0015195 -0.00604738,-0.00302887 -0.00010139,-3.01918e-005 -0.000192417,-5.04699e-005 -0.000283668,-7.0748e-005 0,-0.00010139 0,-0.000192417 0,-0.000283668 0.00136742,-0.000830726 0.00209675,-0.00175248 0.00303878,-0.00300859 8.11124e-005,0 0.000162225,0 0.000243112,0 0.000648448,0.00351509 0.00216795,0.00474079 0.00566254,0.00552082 -0.00078003,0.000607667 -0.0016815,0.000698918 -0.0026134,0.000871057zm-0.0122367 -0.00365682c-0.000627945,-0.000182277 -0.00125589,-0.000364555 -0.00187392,-0.000536919 -7.09733e-005,-0.00115472 0.00126625,-0.00145867 0.00214745,-0.00179281 0.000374919,0.000374694 0.000253251,0.00164095 0.000283668,0.00218801 -0.000192417,4.03309e-005 -0.000374694,9.10261e-005 -0.000557197,0.000141721zm0.00153978 0c-0.00010139,-0.000830726 -0.000293807,-0.00150937 -5.06952e-005,-0.00231959 0.000881421,0 0.00156006,0.000607667 0.00230967,0.00105333 1.0139e-005,0.000243112 3.04171e-005,0.000496363 5.04699e-005,0.000749613 -0.000769666,0.000172138 -0.00153956,0.000344502 -0.00230945,0.000516641zm-0.00506479 -0.00126625c-6.08343e-005,-0.000131582 -0.000121669,-0.00026339 -0.000172138,-0.000394972 -0.000658587,-0.000182277 -0.000820587,-0.000952169 -0.00136764,-0.001013 -0.000425389,-0.00139784 -0.00146881,-0.00219814 -0.0015497,-0.00379854 0.000709057,6.0609e-005 0.000709057,6.0609e-005 0.00268437,0.000617806 0.00141811,0.000192417 0.00283623,0.000385058 0.00425434,0.000587614 0.000303946,0.000364555 0.000141947,0.00131672 0.000141947,0.00179281 -0.000921977,0.000587614 -0.0026339,0.000840865 -0.0030897,0.00197531 -0.000303946,7.09733e-005 -0.000607667,0.000152086 -0.000901474,0.000232973zm0.00830636 0c-0.00100286,-0.00108375 -0.00190456,-0.00158011 -0.00329226,-0.00206634 0,-0.000648448 0,-0.00129667 0,-0.00193476 0.00141811,-0.000202556 0.00283623,-0.000395197 0.00425457,-0.000587614 0.000759752,-0.000212695 0.00208662,-0.000840639 0.00283623,-0.000617806 -0.000212695,0.00129645 -0.00113445,0.00386951 -0.00232973,0.00436587 -2.02781e-005,9.10261e-005 -4.05562e-005,0.000182277 -6.08343e-005,0.000273529 -0.000557197,0.000212695 -0.000820587,0.000476084 -0.00140798,0.000567111zm-0.00506479 -0.00493298c-0.00108398,-0.000162225 -0.00216773,-0.000324224 -0.00324157,-0.000486224 -0.00308948,-0.000851004 -0.00308948,-0.000851004 -0.00327198,-0.00102314 -2.00528e-005,-0.00116486 2.02781e-005,-0.00210712 0.000567336,-0.00317059 0.000952169,-6.08343e-005 0.0020767,0.00111417 0.00284637,0.00166123 0.0029579,0.00112431 0.0029579,0.00112431 0.00379876,0.001337 1.0139e-005,0.00047631 2.02781e-005,0.000952394 3.04171e-005,0.00143862 -0.000243112,8.0887e-005 -0.000486224,0.000161999 -0.000729335,0.000243112zm0.00196495 0c-9.10261e-005,-5.06952e-005 -0.000182277,-9.12514e-005 -0.000273529,-0.000131808 -5.04699e-005,-0.000739474 -0.000172138,-0.00103328 0.000253251,-0.00163081 0.0022894,-0.00062817 0.0040216,-0.00153978 0.00591579,-0.0029579 0.000202556,0 0.00041525,1.0139e-005 0.00062817,2.02781e-005 0.000354416,0.00108375 0.000638084,0.00208662 0.000425389,0.00321115 -0.00232995,0.0008305 -0.00451796,0.00120542 -0.00694908,0.00148909zm-0.0279982 -0.00153978c-0.000152086,-0.000232973 -0.000303946,-0.000455806 -0.000455806,-0.00067864 -8.11124e-005,-1.0139e-005 -0.000162225,-2.02781e-005 -0.000243112,-3.04171e-005 -6.08343e-005,-0.000182277 -0.000121669,-0.000354641 -0.000182503,-0.00052678 -8.0887e-005,-1.0139e-005 -0.000161999,-2.02781e-005 -0.000243112,-3.04171e-005 -2.02781e-005,-9.12514e-005 -3.04171e-005,-0.000172138 -4.03309e-005,-0.000253251 -0.00146881,-0.000607667 -0.00293762,-0.00395062 -0.0039709,-0.00522679 -0.00219814,-0.00420387 -0.00476107,-0.0113048 0.000314085,-0.0144044 4.03309e-005,-0.000101165 8.0887e-005,-0.000202556 0.000121443,-0.000293807 0.00113445,-0.000384833 0.00226912,-0.000769891 0.0034137,-0.00114459 0.00250209,0 0.00462926,3.04171e-005 0.00707052,0.000557197 0.00351487,0.00112431 0.0040822,0.00140798 0.00482168,0.00156997 0.00190434,0.000931891 0.00381881,0.00186401 0.00573352,0.0027959 0.00103306,0.000688779 0.00209675,0.00143839 0.00327176,0.0018435 0.000121669,0.000395197 0.000243112,0.00079017 0.000374919,0.00118514 -0.0016209,-0.000536693 -0.00285673,-0.00106347 -0.00456865,-0.000789944 -0.00222856,-0.00150937 -0.00499382,-0.00272492 -0.00759707,-0.00338351 -8.11124e-005,-9.10261e-005 -0.000162225,-0.000182277 -0.000243112,-0.000263165 -0.00417346,-0.0014082 -0.00850891,-0.00225898 -0.012186,0.000526554 -0.00129667,0.00313026 -0.000709057,0.00568282 0.000476084,0.008823 0.00026339,0.000273529 0.00026339,0.000273529 0.000506502,0.000962308 8.0887e-005,1.0139e-005 0.000161999,2.02781e-005 0.000253251,4.05562e-005 0.00041525,0.00131672 0.0013877,0.00246153 0.00213731,0.00361626 0.000253251,-5.06952e-005 0.000516641,-0.00010139 0.00078003,-0.000141947 0.00238042,-0.00590543 0.00963322,-0.00644235 0.0148095,-0.00418337 1.0139e-005,0.000121443 2.02781e-005,0.000253251 3.04171e-005,0.000384833 0.00158011,0.000273529 0.00283623,0.00309962 0.00411262,0.00437601 0,0.00104342 -0.000425615,0.00193476 -0.000759752,0.00291734 -0.00213731,-0.00444698 -0.00467996,-0.00663499 -0.00998786,-0.00663499 -0.00486224,0.00079017 -0.00668569,0.00357593 -0.00755674,0.00829622 -7.09733e-005,3.04171e-005 -0.000131808,6.08343e-005 -0.000192417,9.12514e-005zm0.0543151 -0.000141947c-0.000425389,-0.00260326 -0.00120542,-0.00511526 -0.00352501,-0.00661449 -0.00010139,-0.000162225 -0.000192642,-0.000324224 -0.000283668,-0.000486224 -0.00336301,-0.00134737 -0.00634118,-0.00174234 -0.00964358,0.000212695 -2.00528e-005,9.10261e-005 -4.03309e-005,0.000182277 -6.0609e-005,0.000273529 -0.00184373,0.000719196 -0.00332268,0.0032312 -0.00388979,0.00497354 -8.11124e-005,0 -0.000162225,0 -0.000243112,0 -0.000314085,-0.00163081 -0.00148909,-0.00314017 0.000536693,-0.00415318 0.000223059,-0.00067864 0.00078003,-0.00114459 0.00125611,-0.00167137 0.00141811,-0.00355542 0.00783027,-0.00327176 0.0108287,-0.00260326 0.00322129,0.00125611 0.00409234,0.00228917 0.00580427,0.00499382 0.000202556,2.02781e-005 0.000405111,4.05562e-005 0.000607667,6.08343e-005 0.000324224,-0.000324224 0.000182503,-0.000557197 0.000638309,-0.00078003 0.000161999,-0.000455806 0.001337,-0.00217787 0.00239056,-0.00407207 0.000901474,-0.00272492 0.00171192,-0.00528762 0.000587389,-0.00809344 -0.00385937,-0.00471037 -0.0120035,-0.00111439 -0.0164099,0.000597528 -0.00146881,0.000719196 -0.00282609,0.0015702 -0.00434559,0.00210689 -0.00127639,-0.000638084 -0.00277562,0.000820587 -0.00404165,0.00062817 0.000283443,-0.000577475 0.000283443,-0.000577475 0.000374694,-0.00113445 0.00255256,-0.00121556 0.0050141,-0.00262376 0.00757702,-0.00387987 0.00513576,-0.00204606 0.0153465,-0.00577385 0.0189019,0.000749613 8.11124e-005,1.0139e-005 0.000161999,2.02781e-005 0.000253251,4.05562e-005 0.000891335,0.00353537 0.000860918,0.00786069 -0.00134714,0.0109806 -0.000152086,0.000465945 -0.000425615,0.000698918 -0.00062817,0.00139784 -8.11124e-005,1.0139e-005 -0.000161999,2.02781e-005 -0.000243112,3.04171e-005 -0.000445667,0.000810448 -0.00145867,0.00187392 -0.00158011,0.00278576 -0.000800309,0.000394972 -0.00124598,0.00136742 -0.00184373,0.00204606 -0.000567111,0.000425389 -0.00100286,0.00141811 -0.00167137,0.00161053zm-0.0279984 -0.00140798c-0.000101165,-5.06952e-005 -0.000192417,-0.000101165 -0.000283443,-0.000141721 -2.02781e-005,-9.12514e-005 -3.04171e-005,-0.000172138 -4.05562e-005,-0.000253251 -0.00118514,-0.000496363 -0.00257306,-0.00180317 -0.00329226,-0.00285651 -0.000709057,-0.000374919 -0.000668501,-0.000607892 -0.000607667,-0.00138792 0.00131672,-0.000546832 0.00215759,-0.00151928 0.00370751,-0.00146881 0.000648223,0.00052678 0.000648223,0.00052678 0.000931891,0.000618031 1.0139e-005,0.00179281 3.04171e-005,0.00359598 5.06952e-005,0.00539915 -0.000162225,3.04171e-005 -0.000314085,6.0609e-005 -0.000466171,9.10261e-005zm0.00140798 0c-3.01918e-005,-0.00156997 -5.04699e-005,-0.00314017 -7.0748e-005,-0.00471015 0.000425389,-0.00188429 0.00183336,-0.00138792 0.00316045,-0.000851004 0.00052678,0.000334363 0.00105333,0.000668501 0.00158011,0.001013 8.11124e-005,0.00197531 -0.00285651,0.00322129 -0.00411262,0.0044774 -0.000192417,2.00528e-005 -0.000374694,4.03309e-005 -0.000557197,7.0748e-005zm-0.00520651 -0.00140798c-0.00010139,-0.000121443 -0.000202556,-0.000243112 -0.000303946,-0.000364555 -0.00307934,-0.00147895 -0.00650318,-0.0064223 -0.00637138,-0.00996758 0.00187392,-0.0017322 0.0053586,0.00112431 0.00654374,0.00265395 0.000597528,0.000131582 0.000516415,0.00110403 0.00125589,0.00134714 -3.01918e-005,0.00015186 -6.0609e-005,0.000314085 -9.10261e-005,0.000476084 -0.00109412,0.000516641 -0.00403173,-0.00210689 -0.00477121,-0.00257284 -8.0887e-005,-0.000405336 -0.00015186,-0.000810448 -0.000222834,-0.00121556 -0.000212695,3.04171e-005 -0.000425389,6.0609e-005 -0.000627945,9.10261e-005 -0.00111417,0.0022387 0.00268437,0.00817477 0.00473043,0.00926866 -5.04699e-005,9.12514e-005 -0.000101165,0.000182277 -0.000141721,0.000283668zm0.00942052 0c0.000121669,-0.000354416 0.00148909,-0.00188406 0.00275534,-0.0035757 0.000962308,-0.00192462 0.0026134,-0.00379876 0.00187392,-0.00606765 -0.00026339,3.04171e-005 -0.000516641,6.0609e-005 -0.000769891,9.10261e-005 -5.06952e-005,0.000385058 -0.000101165,0.000769891 -0.00015186,0.00116509 -0.000283668,0.000273304 -0.00273506,0.00171192 -0.00391007,0.0026134 -0.000374694,7.09733e-005 -0.000374694,7.09733e-005 -0.000840865,-8.11124e-005 2.02781e-005,-0.000212695 4.05562e-005,-0.00041525 6.08343e-005,-0.000617806 0.000658362,-0.000293807 0.000810448,-0.00105356 0.00146881,-0.00142825 0.000688779,-0.00154992 0.00421401,-0.00344412 0.00589552,-0.00284659 0.00161053,0.00182345 -0.00205642,0.0070401 -0.0035757,0.00829622 -0.000283668,0.000800309 -0.00210712,0.00193476 -0.00280604,0.0024514zm-0.0109704 -0.00449745c-5.04699e-005,-0.000192642 -0.000101165,-0.000385058 -0.000141721,-0.000567336 0.000111529,2.02781e-005 0.000222834,5.06952e-005 0.000334363,8.11124e-005 7.0748e-005,0.000161999 0.00015186,0.000323999 0.000232973,0.000486224 -0.000141947,0 -0.000283668,0 -0.000425615,0zm0.012095 0c7.0748e-005,-0.000162225 0.000141721,-0.000324224 0.000222834,-0.000486224 0.000111304,-3.04171e-005 0.000222834,-6.08343e-005 0.000344277,-8.11124e-005 0,0.000182277 0,0.000374694 0,0.000567336 -0.000192417,0 -0.000384833,0 -0.000567111,0zm-0.00660457 -0.00113467c-0.000303946,-0.000354416 -0.000303946,-0.000354416 -0.000567336,-0.00041525 -5.06952e-005,-0.000455806 -0.00146881,-0.00181331 -0.00190434,-0.00210689 0,-0.000121669 1.0139e-005,-0.000232973 2.02781e-005,-0.000344502 0.00112431,0 0.00142825,-0.000202556 0.00237028,-0.000810448 1.0139e-005,-0.000121443 2.02781e-005,-0.000243112 4.05562e-005,-0.000364555 -0.000222834,-6.08343e-005 -0.000445667,-0.000121443 -0.000668501,-0.000172138 -0.000871282,-0.00174234 -0.000901699,-0.00492307 -0.00267423,-0.00591579 -0.000293807,-0.000759752 -0.000759752,-0.000840639 -0.00146881,-0.00121556 0,-8.11124e-005 0,-0.000161999 0,-0.000243112 0.000607667,-0.000303946 0.000607667,-0.000303946 0.00142825,-0.000405111 8.11124e-005,-0.000202556 0.000161999,-0.000395197 0.000243112,-0.000587614 -0.00128653,-0.00309962 -0.00588538,-0.00564227 -0.00864049,-0.0070401 0.00237028,0 0.00360612,0.00209698 0.00562176,0.0027452 1.0139e-005,8.11124e-005 2.02781e-005,0.000161999 3.04171e-005,0.000243112 0.00160062,0.000688779 0.00305929,0.00279567 0.00410248,0.00405179 0.001013,0.00160062 0.001013,0.00160062 0.00126625,0.0017322 0.000202556,-0.000567336 0.000111529,-0.00107384 9.12514e-005,-0.00167137 0.000952169,-2.02781e-005 0.00190434,-4.05562e-005 0.00286665,-6.08343e-005 1.0139e-005,0.000638309 -0.000445667,0.00120542 -0.000162225,0.00185387 0.000243112,-5.06952e-005 0.000243112,-5.06952e-005 0.000597753,-0.000405336 0.00247167,-0.00404165 0.00506479,-0.00590543 0.00905597,-0.0082151 0.000850778,-0.000283668 0.000850778,-0.000283668 0.00142825,-0.000273529 -0.00296804,0.00147895 -0.00568282,0.0032517 -0.00782013,0.00584482 -5.06952e-005,0.00015186 -0.00010139,0.000303946 -0.00015186,0.000465945 -0.000385058,0.000172138 -0.000385058,0.000324224 -0.000557197,0.000719196 0.000425389,0.000688779 0.00120542,0.000739474 0.00196517,0.00100286 0,8.11124e-005 0,0.000161999 0,0.000243112 -0.0018942,0.000810448 -0.00215759,0.00159048 -0.00307934,0.00348468 -0.000293807,0.00121556 -0.000486224,0.00326162 -0.00172206,0.00381881 1.0139e-005,0.000172138 3.04171e-005,0.000344277 5.04699e-005,0.000516641 0.000840865,0.000597528 0.00131695,0.000627945 0.00230967,0.00057725 -0.000172138,0.00089156 -0.00191448,0.00278576 -0.00280604,0.00294776 -2.00528e-005,-0.000617806 2.02781e-005,-0.00123584 -0.000303721,-0.00176262 -0.000161999,3.04171e-005 -0.000324224,6.08343e-005 -0.000486224,9.12514e-005 -7.09733e-005,0.00052678 -0.000131808,0.0010637 -0.000192417,0.00160062 -0.00010139,2.00528e-005 -0.000192642,4.03309e-005 -0.000283668,7.0748e-005zm-0.00394048 -0.00449745c-0.000131582,-0.000202556 -0.000131582,-0.000202556 -0.000486224,-0.000374919 -0.000962308,-0.0016815 -0.00124598,-0.00301851 -0.000698918,-0.00489243 0.000557197,0 0.000648223,-2.02781e-005 0.00110403,0.000323999 0,0.000972447 -0.000283443,0.00183359 -0.000283443,0.00281618 0.000192417,0.000617806 0.000384833,0.00123584 0.000587389,0.00185364 -8.11124e-005,9.12514e-005 -0.00015186,0.000182277 -0.000222834,0.000273529zm0.0092788 0c0.000101165,-0.00104342 0.00041525,-0.00200573 0.000496363,-0.00309962 -0.000141947,-0.000496363 -0.000283668,-0.000982586 -0.000425615,-0.00146881 0.000374919,-0.000638309 0.000506502,-0.000709057 0.00119551,-0.000709057 0.00118514,0.00118514 5.04699e-005,0.00450759 -0.00126625,0.00527749zm-0.0130773 -0.00647277c-0.000354641,-0.00267423 -0.000354641,-0.00267423 -0.000425615,-0.00435596 0.000658587,0.000314085 0.00125611,0.00115495 0.00186401,0.00164117 0,0.000253251 0,0.000516641 0,0.00078003 -0.000962308,0.000506276 -0.000962308,0.000871057 -0.00116486,0.00193476 -9.12514e-005,0 -0.000182503,0 -0.000273529,0zm0.0168759 0c-0.000192417,-0.000911838 -0.000243112,-0.00167159 -0.00126625,-0.00182345 -9.10261e-005,-0.00115472 0.000921977,-0.00220828 0.00197531,-0.00253251 -0.000222834,0.00281618 -0.000222834,0.00281618 -0.000516641,0.00426471 -7.0748e-005,3.04171e-005 -0.000131582,6.08343e-005 -0.000192417,9.12514e-005zm-0.0154679 -0.00857988c-0.000405111,-0.000283668 -0.000810448,-0.000557197 -0.00120542,-0.000830726 0,-0.00160039 0.000709057,-0.0032819 0.00112431,-0.00482168 0.00180317,-0.00517632 0.00379876,-0.0089343 0.0070908,-0.0132799 0.000111529,0 0.000232973,1.0139e-005 0.000354641,2.02781e-005 0.000587389,0.000891335 0.000587389,0.000891335 0.00126603,0.0015497 0.000871282,0.00159048 0.00148909,0.00236037 0.00265395,0.00451796 8.11124e-005,1.0139e-005 0.000162225,2.02781e-005 0.000243112,4.05562e-005 0.00171192,0.0038997 0.0034644,0.00773902 0.00384923,0.0120035 -0.000364555,0.000374919 -0.000962308,0.000749613 -0.00150914,0.000709057 -0.000425615,-0.00283623 -0.0015702,-0.00544962 -0.00214745,-0.00822524 -9.12514e-005,-9.12514e-005 -0.000182503,-0.000172138 -0.00026339,-0.000253251 -0.00114481,-0.00269451 -0.00253251,-0.00510535 -0.00395062,-0.00761758 -0.000212695,-2.00528e-005 -0.000425389,-4.03309e-005 -0.000627945,-5.04699e-005 -0.00336323,0.0049634 -0.00551068,0.010322 -0.00646285,0.0162378 -0.000141721,0 -0.000283668,0 -0.00041525,0z"/>
 </g>
</svg>
