<?xml version="1.0" encoding="UTF-8"?>
<!DOCTYPE svg PUBLIC "-//W3C//DTD SVG 1.1//EN" "http://www.w3.org/Graphics/SVG/1.1/DTD/svg11.dtd">
<!-- Creator: CorelDRAW -->
<svg xmlns="http://www.w3.org/2000/svg" xml:space="preserve" width="5548in" height="7180in" style="shape-rendering:geometricPrecision; text-rendering:geometricPrecision; image-rendering:optimizeQuality; fill-rule:evenodd; clip-rule:evenodd"
viewBox="0 0 38.9532 38.9532"
 xmlns:xlink="http://www.w3.org/1999/xlink">
 <defs>
  <style type="text/css">
   <![CDATA[
    .fil1 {fill:black}
    .fil0 {fill:#1F1A17;fill-rule:nonzero}
   ]]>
  </style>
 </defs>
 <g id="Layer_x0020_1">
  <metadata id="CorelCorpID_0Corel-Layer"/>
  <g id="_408328520">
   <path id="_408328688" class="fil0" d="M31.6069 24.4067l0.729146 -2.92433 0.784663 0.19561 -0.244685 0.981576 2.39187 0.596337 -0.239854 0.962022 -2.39187 -0.596414 -0.244531 0.980809 -0.784739 -0.19561zm0.679842 3.32606l0.374733 -0.86809c0.148452,0.0529089 0.273363,0.0696251 0.375193,0.0510686 0.164324,-0.0302884 0.289236,-0.131045 0.375347,-0.300124 0.0641042,-0.125755 0.0837341,-0.238167 0.0581998,-0.337544 -0.025841,-0.0986867 -0.0785199,-0.168312 -0.15796,-0.208799 -0.0753761,-0.0384165 -0.15957,-0.0410236 -0.252583,-0.00628773 -0.0930124,0.0348125 -0.225975,0.156503 -0.399731,0.366529 -0.286398,0.342068 -0.544655,0.558458 -0.776151,0.64848 -0.232186,0.0913254 -0.461995,0.0790567 -0.690193,-0.0372663 -0.150139,-0.0764496 -0.270372,-0.191392 -0.360011,-0.344445 -0.0897152,-0.153053 -0.129205,-0.334093 -0.118777,-0.544272 0.0111185,-0.209872 0.0924756,-0.463528 0.244071,-0.761122 0.186255,-0.365455 0.397584,-0.609143 0.633834,-0.73022 0.23625,-0.121154 0.51498,-0.122534 0.835885,-0.00513753l-0.374733 0.858045c-0.142317,-0.0447809 -0.261784,-0.0470046 -0.357864,-0.00621105 -0.095006,0.0404102 -0.174753,0.123071 -0.238167,0.247598 -0.0526022,0.103134 -0.0702385,0.191392 -0.0519121,0.266155 0.017713,0.0744559 0.0588133,0.128055 0.122687,0.160644 0.0461611,0.0235406 0.0984566,0.0233106 0.1575,-0.000230039 0.0601168,-0.0222371 0.145615,-0.102751 0.258564,-0.242231 0.281644,-0.342835 0.508693,-0.575174 0.680762,-0.697938 0.172069,-0.122841 0.341454,-0.189935 0.509153,-0.200134 0.167008,-0.0104284 0.330643,0.0243074 0.490289,0.105665 0.186792,0.0951594 0.333096,0.234256 0.439144,0.415757 0.106661,0.181807 0.153973,0.384472 0.142547,0.608453 -0.0111185,0.223214 -0.0873381,0.47365 -0.228429,0.750617 -0.247598,0.485919 -0.514367,0.774311 -0.801149,0.863796 -0.286552,0.090482 -0.582918,0.072769 -0.89025,-0.0527556zm-2.70395 -0.124374l0.597948 -0.793557 2.61462 1.97021 -0.598024 0.793634 -2.61454 -1.97028zm-0.582152 2.54791l0.295907 -0.29583c0.0316687,-0.0317454 0.0831974,-0.103748 0.154126,-0.216697 0.0368062,-0.0562062 0.0506085,-0.11847 0.0413303,-0.186868 -0.00973831,-0.0678615 -0.0396434,-0.127442 -0.0903286,-0.17805 -0.074916,-0.074916 -0.155276,-0.108808 -0.241694,-0.102214 -0.086878,0.00605769 -0.193999,0.0733057 -0.321824,0.201131l-0.308022 0.308022 0.470506 0.470506zm0.67294 2.08131l-2.31496 -2.31496 1.1686 -1.1686c0.21662,-0.21662 0.401341,-0.363615 0.553704,-0.439451 0.152362,-0.0769097 0.314923,-0.0993001 0.488142,-0.0665579 0.172606,0.0321288 0.33256,0.122304 0.479708,0.269452 0.128822,0.128822 0.212403,0.266232 0.252276,0.412843 0.0393366,0.147148 0.0407936,0.29652 0.00552093,0.448269 -0.0235406,0.0968464 -0.0747626,0.209489 -0.155046,0.337237 0.112029,-0.0549026 0.201284,-0.087108 0.268455,-0.0970764 0.0441675,-0.00651777 0.122151,-0.00360394 0.233259,0.00927823 0.111646,0.0134189 0.191852,0.0280647 0.242154,0.0456244l1.01018 0.331869 -0.792407 0.792484 -1.08226 -0.333173c-0.138637,-0.0434773 -0.240697,-0.0611137 -0.305722,-0.0510686 -0.0857278,0.0146458 -0.161104,0.0544425 -0.225055,0.118317l-0.0618038 0.0618038 0.939479 0.939479 -0.704226 0.704226zm-5.00933 -0.793404l0.858658 -0.495734 0.572797 0.992158 0.938865 -0.542048 -0.572873 -0.992158 0.862492 -0.497957 1.63696 2.83523 -0.862492 0.497957 -0.662052 -1.14659 -0.938789 0.541972 0.661975 1.14667 -0.858582 0.495657 -1.63696 -2.83515zm-0.180657 2.08799l0.90919 0.0184798c0.0124988,0.254883 -0.0187098,0.479554 -0.0933191,0.674627 -0.0746859,0.194996 -0.190089,0.358937 -0.345595,0.491593 -0.155276,0.133346 -0.371359,0.238934 -0.647176,0.31799 -0.335397,0.0961562 -0.624019,0.124988 -0.864256,0.086878 -0.241157,-0.0387232 -0.475184,-0.161104 -0.701465,-0.367449 -0.225515,-0.206498 -0.3949,-0.504475 -0.506929,-0.895005 -0.149372,-0.520961 -0.128592,-0.960642 0.0628773,-1.31766 0.191239,-0.357787 0.5353,-0.607839 1.03157,-0.750157 0.388536,-0.111415 0.716648,-0.119083 0.985256,-0.0224671 0.268685,0.0966163 0.504475,0.295447 0.707369,0.596491l-0.786886 0.43255c-0.056973,-0.0874914 -0.108042,-0.148988 -0.153129,-0.184414 -0.0743792,-0.0587366 -0.15612,-0.0972298 -0.244531,-0.11548 -0.0891017,-0.0180197 -0.180964,-0.0131122 -0.276507,0.0142624 -0.215393,0.0618038 -0.355947,0.198063 -0.419974,0.408319 -0.049075,0.15681 -0.0336624,0.37596 0.0472346,0.658064 0.10022,0.349506 0.221144,0.573334 0.361774,0.6734 0.141321,0.0998369 0.305568,0.122457 0.49305,0.0687049 0.182421,-0.0522955 0.305338,-0.143851 0.368676,-0.275357 0.0635674,-0.130815 0.0875681,-0.301888 0.072769,-0.51337zm-6.69873 1.02904l0.94546 -0.0108118c0.011962,0.157117 0.0475414,0.27804 0.105895,0.363538 0.0944693,0.137793 0.237323,0.210946 0.426799,0.220837 0.141014,0.00736124 0.251663,-0.0203968 0.332099,-0.0841175 0.0796701,-0.0637208 0.121844,-0.14017 0.126445,-0.229195 0.00444742,-0.0845009 -0.0273746,-0.162484 -0.0969997,-0.233336 -0.0695484,-0.0707753 -0.23487,-0.142854 -0.497344,-0.21616 -0.429022,-0.122457 -0.731754,-0.270372 -0.908117,-0.445202 -0.177897,-0.174983 -0.260174,-0.389916 -0.246755,-0.645719 0.00881816,-0.168235 0.0649476,-0.324815 0.168235,-0.468973 0.103364,-0.144234 0.252736,-0.253886 0.448959,-0.329876 0.196223,-0.0752227 0.461075,-0.104054 0.794631,-0.0865713 0.409546,0.0213936 0.718105,0.11548 0.924833,0.281951 0.206728,0.166625 0.321364,0.420664 0.344675,0.761582l-0.936335 0.00659445c-0.0168695,-0.148222 -0.0634907,-0.258257 -0.139787,-0.329416 -0.0756061,-0.0703919 -0.183571,-0.109575 -0.323051,-0.116936 -0.115633,-0.00605769 -0.203508,0.0138023 -0.264315,0.0609603 -0.0608069,0.0464678 -0.0930891,0.105818 -0.0968464,0.17736 -0.00268379,0.0517587 0.0187865,0.0994535 0.0642575,0.143774 0.0447809,0.0459311 0.153129,0.0912487 0.326502,0.137717 0.427719,0.117857 0.73229,0.230729 0.914481,0.338004 0.182191,0.107275 0.312393,0.23464 0.389839,0.383781 0.0775231,0.148298 0.112336,0.311933 0.102981,0.490826 -0.0109652,0.209335 -0.0785966,0.399654 -0.201207,0.570343 -0.122687,0.171379 -0.288622,0.297057 -0.497881,0.377647 -0.208415,0.080667 -0.468282,0.112872 -0.778605,0.0966163 -0.544655,-0.0285248 -0.916628,-0.154893 -1.115,-0.380561 -0.199214,-0.224901 -0.303575,-0.502865 -0.31385,-0.834658zm-0.897842 -2.3875l0.960566 0.23947 -0.47227 1.89406c-0.0468512,0.187865 -0.119927,0.357404 -0.218844,0.510303 -0.0987633,0.152132 -0.225208,0.2762 -0.378874,0.370593 -0.153666,0.0944693 -0.303728,0.149755 -0.45126,0.167162 -0.204581,0.0236173 -0.437381,0.00329722 -0.699855,-0.0621872 -0.151519,-0.0377264 -0.314233,-0.0893318 -0.487759,-0.156196 -0.173679,-0.0660212 -0.312316,-0.146151 -0.4166,-0.240544 -0.104284,-0.0943159 -0.191622,-0.213476 -0.262168,-0.35679 -0.0705452,-0.143238 -0.108195,-0.282334 -0.113869,-0.417214 -0.00912487,-0.216773 0.00582765,-0.403181 0.0447042,-0.559224l0.47227 -1.89414 0.960566 0.239547 -0.483542 1.93923c-0.043324,0.173833 -0.0299817,0.320904 0.0394133,0.441061 0.0698551,0.121154 0.188172,0.202511 0.35564,0.244225 0.165321,0.0412536 0.307792,0.0256877 0.425955,-0.0469279 0.11732,-0.0721555 0.1986,-0.19722 0.242461,-0.373276l0.483465 -1.93915zm-5.57837 0.17736l0.874454 0.359551c-0.0503018,0.149295 -0.064871,0.274513 -0.0445509,0.376037 0.0332023,0.163711 0.13603,0.286858 0.306642,0.370056 0.126905,0.0618805 0.239624,0.0795168 0.338541,0.0522955 0.0982266,-0.027528 0.166855,-0.0814338 0.205961,-0.161564 0.0371129,-0.0760662 0.0382631,-0.16026 0.00191699,-0.252659 -0.0364228,-0.0923989 -0.160414,-0.223291 -0.37343,-0.39329 -0.347052,-0.280341 -0.567966,-0.53484 -0.661975,-0.764726 -0.0953128,-0.230499 -0.0870314,-0.460538 0.0252276,-0.69073 0.0738425,-0.151442 0.186638,-0.27367 0.33808,-0.365992 0.151442,-0.0923989 0.331869,-0.135033 0.542202,-0.128285 0.209949,0.0075146 0.465062,0.0844243 0.765263,0.230806 0.368599,0.179814 0.615891,0.386925 0.741109,0.621028 0.125218,0.234026 0.131506,0.51268 0.0197067,0.835578l-0.864409 -0.359704c0.0423271,-0.143007 0.0424038,-0.262551 0,-0.357864 -0.0420971,-0.0943159 -0.126138,-0.172606 -0.251739,-0.233873 -0.104054,-0.0507619 -0.192619,-0.0668646 -0.267075,-0.047158 -0.0740725,0.0190165 -0.126981,0.061037 -0.15842,0.125448 -0.0226972,0.0465445 -0.0216237,0.09884 0.00299051,0.1575 0.0232339,0.0596567 0.105204,0.143774 0.246678,0.25427 0.347665,0.275587 0.583915,0.498494 0.709747,0.668416 0.125755,0.169922 0.19584,0.33808 0.208875,0.505625 0.0134189,0.166778 -0.0184798,0.331026 -0.0969997,0.492053 -0.0918622,0.188402 -0.228429,0.33716 -0.408012,0.446352 -0.179967,0.109805 -0.381788,0.160644 -0.605846,0.153129 -0.223444,-0.00720788 -0.475184,-0.0790567 -0.754527,-0.215316 -0.490213,-0.239087 -0.783206,-0.500718 -0.877675,-0.785966 -0.0954661,-0.284865 -0.0829673,-0.581538 0.0372663,-0.891017zm-1.03962 -3.57718l2.09358 1.63565 -0.430326 0.55079 -1.31053 -1.02383 -0.320521 0.410236 1.21576 0.94983 -0.411079 0.526176 -1.21576 -0.94983 -0.397047 0.508156 1.34879 1.05373 -0.456627 0.584452 -2.13177 -1.66556 2.01552 -2.57981zm-0.757595 -0.982956l0.651853 0.749927 -1.34327 1.16768c-0.281874,0.245068 -0.517971,0.406785 -0.707906,0.485765 -0.189935,0.0789033 -0.400038,0.0893318 -0.631303,0.0300584 -0.230729,-0.0598101 -0.446659,-0.204735 -0.647636,-0.435924 -0.212709,-0.244685 -0.344061,-0.463145 -0.39283,-0.656378 -0.0498418,-0.193233 -0.041637,-0.382555 0.0251509,-0.568273 0.0657144,-0.185795 0.188479,-0.368752 0.368216,-0.547723l0.721018 0.628389c-0.107735,0.0956195 -0.180581,0.17575 -0.21823,0.23924 -0.0377264,0.0634907 -0.0543658,0.130432 -0.0503018,0.200134 0.00314386,0.0477714 0.0280647,0.0973064 0.0741492,0.150369 0.0725389,0.0834274 0.157653,0.117396 0.25519,0.101831 0.0976898,-0.0165628 0.221834,-0.0898685 0.371973,-0.220377l1.52393 -1.32472zm19.836 -18.2392l0.510456 -0.528629 1.21345 1.17182 -1.0466 1.08387c-0.384702,-0.0660212 -0.694717,-0.15612 -0.92836,-0.271906 -0.23418,-0.115173 -0.473573,-0.291459 -0.718565,-0.528093 -0.301888,-0.291536 -0.497804,-0.580235 -0.588363,-0.86671 -0.0917088,-0.286475 -0.0910954,-0.582152 0.00138023,-0.88634 0.0918622,-0.304801 0.264391,-0.588899 0.518814,-0.852294 0.268072,-0.277657 0.558688,-0.463682 0.871311,-0.558764 0.312623,-0.0939325 0.63046,-0.0877982 0.954124,0.0188632 0.251663,0.0840409 0.523185,0.267305 0.814414,0.548489 0.280571,0.270986 0.466135,0.499338 0.556694,0.685132 0.0899452,0.185258 0.129282,0.375423 0.118163,0.5718 -0.0111185,0.19515 -0.072769,0.397507 -0.185488,0.606689l-0.888027 -0.596721c0.061267,-0.126138 0.0788266,-0.251049 0.0534457,-0.373967 -0.0248442,-0.122304 -0.0955428,-0.239854 -0.211022,-0.351269 -0.172222,-0.166395 -0.367295,-0.239164 -0.585142,-0.218537 -0.21846,0.0213169 -0.452256,0.160337 -0.702692,0.419668 -0.265772,0.275203 -0.403488,0.522035 -0.41361,0.739882 -0.0107351,0.217233 0.0764496,0.41591 0.261784,0.594804 0.0875681,0.0846543 0.184261,0.152822 0.288085,0.203891 0.104514,0.0517587 0.238014,0.0971531 0.399271,0.135033l0.231496 -0.2397 -0.525025 -0.507006zm-4.21562 -5.40637l0.917088 0.447272 0.338847 2.34057 0.857125 -1.75727 0.925216 0.45126 -1.54931 3.17661 -0.925216 -0.45126 -0.339461 -2.32439 -0.85053 1.744 -0.923069 -0.450186 1.54931 -3.17661zm-2.66193 -0.63391l1.06638 0.246218 -0.795014 3.44368 -1.06638 -0.246218 0.795014 -3.44368zm-5.07926 -0.280034l1.14199 -0.0199367 0.840025 2.52928 0.738885 -2.55688 1.10909 -0.0193233 -1.2498 3.55663 -1.18317 0.0206268 -1.39703 -3.51039zm-2.80049 2.25139l0.435694 -0.149985c0.0466979,-0.0161027 0.132579,-0.0621872 0.257567,-0.139174 0.0635674,-0.037573 0.107582,-0.0918622 0.131889,-0.162944 0.023464,-0.0706986 0.0230039,-0.142777 -0.00214703,-0.21593 -0.0372663,-0.108195 -0.0999135,-0.178817 -0.188172,-0.212863 -0.088565,-0.0347359 -0.226895,-0.0193233 -0.415143,0.045471l-0.453637 0.156196 0.23395 0.679228zm-0.352726 2.34502l-1.15058 -3.3417 1.721 -0.59258c0.318987,-0.109882 0.572643,-0.166701 0.759742,-0.169385 0.187635,-0.00368062 0.358631,0.0506085 0.513293,0.163558 0.154356,0.112259 0.267842,0.27505 0.340994,0.487452 0.0640275,0.185948 0.0792867,0.359167 0.0470046,0.520808 -0.0329722,0.161871 -0.104438,0.308329 -0.213169,0.439758 -0.0704686,0.0835041 -0.175826,0.169385 -0.3173,0.25634 0.137103,-0.00107351 0.240774,0.00935491 0.311779,0.0310552 0.0467746,0.0143391 0.122074,0.0536757 0.225208,0.11824 0.103441,0.065331 0.17529,0.117243 0.216313,0.15796l0.832971 0.796625 -1.16706 0.401878 -0.903363 -0.831667c-0.115326,-0.107351 -0.207265,-0.172299 -0.2762,-0.192926 -0.0916321,-0.0259177 -0.185258,-0.0223904 -0.279344,0.010045l-0.0910954 0.031362 0.466979 1.35608 -1.03717 0.357097zm-5.06116 -0.954585l2.39693 -1.67836 0.43278 0.618114 -1.50047 1.05059 0.322361 0.460384 1.39197 -0.974598 0.413457 0.590433 -1.39189 0.974675 0.399271 0.57019 1.54425 -1.08126 0.459234 0.655841 -2.44071 1.70904 -2.02718 -2.89504zm-1.40247 4.85781l0.647099 -0.815794c0.140247,0.0963096 0.266462,0.147992 0.378797,0.15612 0.181271,0.0125755 0.341761,-0.0598868 0.481625,-0.21524 0.104054,-0.115556 0.157577,-0.229042 0.1598,-0.341071 0.00176363,-0.111339 -0.0331256,-0.19929 -0.104668,-0.263701 -0.0678615,-0.0611137 -0.15543,-0.0868013 -0.263241,-0.0753761 -0.107812,0.0115019 -0.282948,0.104054 -0.526712,0.27873 -0.400498,0.283791 -0.734821,0.442365 -1.00404,0.474493 -0.270372,0.0334323 -0.508002,-0.0420971 -0.713427,-0.227125 -0.135186,-0.121691 -0.227738,-0.275893 -0.27712,-0.462071 -0.0493817,-0.186255 -0.0378797,-0.388459 0.0345825,-0.607839 0.072999,-0.218767 0.232569,-0.464909 0.478711,-0.738271 0.302271,-0.335703 0.595341,-0.53576 0.878672,-0.599558 0.283331,-0.0637974 0.576247,0.0105818 0.878595,0.221987l-0.644109 0.805213c-0.136183,-0.0861112 -0.261017,-0.120924 -0.373736,-0.103978 -0.111569,0.0169462 -0.21938,0.0825839 -0.322361,0.19699 -0.0853444,0.094776 -0.129665,0.183341 -0.132196,0.267382 -0.00322054,0.0835041 0.0242308,0.151366 0.0816638,0.203124 0.041637,0.0374197 0.0965396,0.051452 0.165398,0.0426339 0.0695484,-0.00720788 0.182804,-0.0690117 0.342221,-0.185795 0.395744,-0.285862 0.701925,-0.469663 0.918392,-0.552707 0.216467,-0.0829673 0.413917,-0.107888 0.592887,-0.072999 0.178357,0.0343525 0.339921,0.115633 0.483542,0.244991 0.168235,0.151442 0.281107,0.338387 0.339307,0.559071 0.0588133,0.221221 0.0491516,0.448422 -0.0283715,0.681989 -0.0769097,0.233029 -0.230192,0.477101 -0.459234,0.731447 -0.401955,0.446429 -0.766183,0.678768 -1.0933,0.695331 -0.327115,0.017713 -0.63299,-0.0815871 -0.918775,-0.297977zm11.703 -9.78892l0 0.0037573 -0.000153359 0 -0.000306718 0 0 -0.0037573c-4.83749,0 -9.22026,1.96407 -12.3952,5.13891 -3.17492,3.17492 -5.13899,7.55785 -5.13899,12.3954l0.0037573 0 0 0.000153359 0 0.000306718 -0.0037573 0c0,4.83749 1.96407,9.22026 5.13891,12.3952 3.17492,3.17492 7.55777,5.13899 12.3954,5.13899l0 -0.0037573 0.000153359 0 0.000306718 0 0 0.0037573c4.83749,0 9.22026,-1.96407 12.3952,-5.13891 3.17492,-3.17492 5.13899,-7.55777 5.13899,-12.3954l-0.0037573 0 0 -0.000153359 0 -0.000306718 0.0037573 0c0,-4.83749 -1.96407,-9.22026 -5.13891,-12.3952 -3.17492,-3.17492 -7.55785,-5.13899 -12.3954,-5.13899zm-0.000153359 -1.94214l0.000153359 0 0 0.0037573c5.37984,7.66796e-005 10.2488,2.17916 13.7713,5.70159 3.52235,3.52235 5.70128,8.39128 5.70144,13.771l0.0037573 0 0 0.000306718 0 0.000153359 -0.0037573 0c-7.66796e-005,5.37984 -2.17916,10.2488 -5.70159,13.7713 -3.52235,3.52235 -8.39128,5.70128 -13.771,5.70144l0 0.0037573 -0.000306718 0 -0.000153359 0 0 -0.0037573c-5.37984,-7.66796e-005 -10.2488,-2.17908 -13.7713,-5.70159 -3.52235,-3.52235 -5.70128,-8.39128 -5.70144,-13.771l-0.0037573 0 0 -0.000306718 0 -0.000153359 0.0037573 0c7.66796e-005,-5.37984 2.17908,-10.2488 5.70159,-13.7713 3.52235,-3.52235 8.39128,-5.70128 13.771,-5.70144l0 -0.0037573 0.000306718 0z"/>
   <path id="_408328544" class="fil1" d="M20.6268 11.5703c0.199367,-0.497574 -1.186,-0.916858 -1.34381,-0.916858l-0.186331 0c-0.723089,0 -0.0339691,0.344368 -1.30455,0.372663l0 0.745556c0,0.647406 -0.37274,0.284328 -0.37274,0.931811l0 2.79543 -2.04965 0.189629c0.071312,-0.865483 0.558688,-1.03142 0.558688,-2.42599l0 -1.30463c-0.582918,-0.0483848 -0.662052,-0.186255 -1.30455,-0.186255l-1.49096 0 0 1.30447 -0.211712 2.97969 -0.65124 2.77519 0.16072 -0.125064 0.9085 0.266232 0.201284 -0.478021 3.67778 -0.992388 0.0147225 0.606306c0,0.647406 -0.37274,0.284405 -0.37274,0.931811l0 1.11822 0.164861 1.86539 -2.94956 -0.438454 -0.420741 -0.271446c-0.299127,0.187942 -0.290386,0.335473 -0.708213,0.335473l-0.559148 0c-0.417827,0 -0.409086,-0.147532 -0.745403,-0.37274 -0.214089,0.292073 -0.0343525,0.37274 -0.559148,0.37274l-0.931811 0c-0.359704,0 -0.331793,-0.0586599 -0.559071,-0.186408l2.65588 -3.88191c-0.450033,-1.76279 -0.19929,-1.89184 -1.27188,-3.0931 -0.480474,-0.538138 -1.95464,-1.59777 -2.68862,-1.59777l-1.8637 0c-0.828677,0 0.0893318,0.442058 -1.11814,0.186255 -0.155276,0.429022 -2.79551,1.85082 -2.79551,3.54099l0 1.11822 0.945383 0.344061 1.65168 -0.405252c0.0467746,-1.49694 1.79699,-3.10706 2.99396,-3.10706 0.568656,0 0.752074,0.17897 1.11822,0.37274 -0.272136,0.567122 -0.313773,2.17831 -0.7076,3.01972 -0.376344,0.803756 -0.696481,1.74822 -1.1528,2.38826 -0.942699,1.32196 -1.86132,3.08827 -3.54421,3.53761l0 0.745479 0.558994 0 0 0.559071 0.931887 0c0.33647,-0.833507 4.12782,-1.30455 5.59094,-1.30455l6.52291 0c0.803756,0 2.23674,0.424038 2.50712,-0.678231 0.322591,-1.31536 -1.71555,0.701158 -1.76164,-1.3718l0.559071 0 0 0.37274 0.37274 0 0.71013 -2.75786 -0.17805 -0.0601168 0.426799 -0.514137 -0.0355027 -1.51404 1.64907 -0.65009c-0.0901752,-0.507312 0.224441,-1.0785 -0.215853,-1.3241 -0.603545,-0.336854 -1.23838,0.249592 -1.23838,-0.634294 0,-0.0989934 0.268379,-0.409009 0.146841,-0.582075l0.265081 -2.60113zm3.4581 1.79476l0.229962 0.0838875 0 0.745403 -0.832741 3.5245 -1.51013 7.07653 -0.293223 0.558534 0.201974 0.0903286 -0.938635 2.42009 -0.190549 -0.0684749 0.250129 -1.66778 0.437151 -1.70206 0.29629 -2.40107 0.370439 -0.539901 0.376804 -3.37298 0.108118 -0.648173 1.49441 -4.09883zm-1.63366 2.50666c0,0.701849 -0.122611,0.352343 -0.186408,1.11814l-1.46404 0.78934 -0.0268379 1.26069 -0.399808 0.536681 0.0874914 1.15004 -0.651317 1.65375 0.777301 0.0141857 0.0621105 0.43485 0.124221 0.310552c-0.75192,0.303498 -0.316227,1.49096 -1.8637,1.49096l-9.13193 0c0.260557,0.976055 2.07526,3.11112 3.07899,3.63017 0.712047,0.368216 1.41558,0.84984 2.14036,1.21438 0.120847,0.0607303 2.41173,0.746476 2.4217,0.746476l2.79551 0c0.670103,0 3.20459,-1.13701 3.72732,-1.49096 0.756751,-0.512373 2.35767,-1.4813 2.6091,-2.42277l-0.745479 0c-0.43623,0 -0.745403,-0.309249 -0.745403,-0.745479 0,-1.14851 0.424192,-1.26468 0.615277,-1.96906 0.211712,-0.780599 -0.429022,-1.39503 -0.429022,-1.75826 0,-0.443438 1.43299,-2.63065 2.05011,-2.79551l1.03794 -2.27884 -0.877445 -1.90004c-0.496884,0.304035 -0.488142,0.451566 -0.90597,0.451566l-0.559071 0c-0.602012,0 -0.92514,-0.653847 -1.30455,-0.931811l0.786273 -2.22379c-2.31235,-1.21453 -2.90976,-2.43542 -6.5637,-2.43542l-1.11814 0c-2.2188,0 -2.71546,0.832127 -3.91373,0.931887l2.79551 1.11822c0.0700085,-3.14294 4.09952,-1.18033 4.84554,-1.11822l0 1.11822 -0.379794 2.79451 1.09828 0.445202c0.124374,0.346439 0.213323,0.356944 0.213323,0.860345zm6.15009 8.01371c0.047388,-2.12679 6.70916,-10.3485 6.70916,-11.5547l0 -0.559071 -0.744022 -0.37504 -5.96498 -0.0261478 -0.536834 0.428179c-1.06063,-0.0269912 -1.62216,-0.0266845 -1.69976,0.90482l-0.559071 0 0.185718 0.0415604 -0.415297 1.85411 1.93746 -0.240084 2.01621 -0.377417c0.339614,-0.19883 0.330873,-0.346362 0.7487,-0.346362l0.559071 0 -0.231112 1.10925 -0.518201 0.185105c-0.0251509,1.31168 -1.84299,3.46132 -2.52575,4.37611 -0.518508,0.694641 -0.784586,1.46021 -1.25172,2.10332 -1.09667,1.50982 0.240391,1.82444 0.240391,2.10363 0,0.523338 -0.411463,0.706603 -0.613284,1.44786 -0.104591,0.384242 -0.140477,1.93785 0.240621,0.788573l1.08479 0.463835 0.0333556 -0.836575 0.175596 0.0969997 0.726846 -1.31483 0.402108 -0.273133z"/>
  </g>
 </g>
</svg>
