<?xml version="1.0" encoding="UTF-8"?>
<!DOCTYPE svg PUBLIC "-//W3C//DTD SVG 1.1//EN" "http://www.w3.org/Graphics/SVG/1.1/DTD/svg11.dtd">
<!-- Creator: CorelDRAW -->
<svg xmlns="http://www.w3.org/2000/svg" xml:space="preserve" width="25in" height="39in" style="shape-rendering:geometricPrecision; text-rendering:geometricPrecision; image-rendering:optimizeQuality; fill-rule:evenodd; clip-rule:evenodd"
viewBox="0 0 0.757652 0.494779"
 xmlns:xlink="http://www.w3.org/1999/xlink">
 <defs>
  <style type="text/css">
   <![CDATA[
    .fil0 {fill:#282828}
   ]]>
  </style>
 </defs>
 <g id="Layer_x0020_1">
  <metadata id="CorelCorpID_0Corel-Layer"/>
  <path class="fil0" d="M0.656047 0.0906885l-0.000311711 -0.017338 -0.0318915 0.0389326 0.00192396 0.00215961 0.0188533 -0.0126579 0.000439975 0.0120911 0.0306595 -0.0149204 4.92175e-005 0.00590014 0.0202493 -0.00269205 -0.00898742 0.013757 0.0205789 0.00163611 -0.0153768 0.00714251 0.00883977 0.0142671 -0.0183 -0.00263687 0.00946021 0.0256274 -0.0391309 -0.0205908 -0.000620439 0.0121463 -0.0294783 -0.021963 -0.00351085 0.00346163 0.0420914 0.0459364 -3.7286e-005 -0.0253739 0.0540781 0.0280107 -0.0172888 -0.0309116 0.0142343 -0.000626405 0.0262598 0.00232963 -0.0290891 -0.0240137 0.0479095 -0.0164416 -0.0494472 -0.00492772 0.0211725 -0.0274351 -0.0365552 0.00611491 0.00207758 -0.018118 -0.038852 0.0211337zm-0.624948 0.00826706c-0.00147802,0.00634011 -0.00282926,0.0064997 -0.00282926,0.0141359l0 0.0197929c0,0.0156736 0.00393293,0.025447 0.0197929,0.025447l0.0169636 0c0.00651014,0 0.00848331,-0.00196721 0.00848331,-0.00848331l0 -0.0282747c0.00895908,-0.00361525 0.0115303,-0.0197884 0.0226162,-0.0197884l0.0226177 0c-0.00201643,-0.0242762 -0.0717293,-0.00415217 -0.0876445,-0.00282926zm0.155501 0.0480632c-0.0227266,0 -0.0277318,-0.0073886 -0.0430922,-0.0107607l0.0176467 0.0248966 0.0169636 0c0.00634011,0 0.00620738,-0.00223567 0.011493,-0.00458171l0.056363 -0.00955417 0.00565405 0c0.0095139,0 0.0226162,0.0126638 0.0226162,0.025447l0 0.00848182 0.0298691 0.000346014 0.00647584 0.0231785 0.00324239 -0.000906796c0,0.0109323 0.000444449,0.0339288 0.0113051,0.0339288 0.0106847,0 0.0188593,-0.00689493 0.025447,-0.0113066 -0.00221926,-0.00462496 -0.0113111,-0.0456127 -0.0113111,-0.0537217l0 -0.0141344c0,-0.00763618 0.00135125,-0.00779576 0.00288892,-0.0117734l0.180886 -0.00519171 0 -0.00565853 0.0876445 0 0 -0.0169577 -0.0876445 0 0 -0.00565853 -0.04809 0.000692028 -0.115892 -0.00351682 0 0.00565405 -0.0141359 0 0 -0.0169651 -0.0904738 -0.00565256c-0.00239973,0.0288579 -0.0350041,0.0537157 -0.0678561,0.0537157zm0.0697084 0.0788286l-0.0301271 -0.00248921c-0.0104878,-0.00130799 -0.0113051,0.0182612 -0.0113051,0.0282762l0.000137213 0.0237422 0.0507552 -0.0067786 0.000659217 -0.00854297 -0.0050709 -0.0485628 -0.00504853 0.0143551zm-0.171493 -0.101445c0,0.0200837 0.0495024,0.0819696 0.0622035,0.0905126 0.0565897,-0.0103566 0.121573,-0.0138003 0.121573,-0.0424494l0 -0.00282926c0,-0.0066906 -0.00897698,-0.0177601 -0.0170188,-0.0175304l-0.0395262 0.00339601 -0.000286357 0.00430131 -0.0506061 0.00983307c-0.00267564,-0.0100255 -0.0407357,-0.0621976 -0.0508924,-0.0621976l-0.0113126 0c-0.00773461,0 -0.0141344,0.0142612 -0.0141344,0.0169636zm0.0395813 -0.0706809l-0.0113066 0c-0.00181807,0.00757652 -0.00282777,0.00532892 -0.00282777,0.0113066 0,0.00652058 0.00790464,0.00551535 0.0141344,0.00565853l0 0.0226162c0,0.0221181 0.0373889,0.0398453 0.0395873,0.0480632l0.0418334 -0.0007144 0.0369877 -0.0304388 0.00316931 -0.0253918 0 -0.0141344 0.0113111 0 0 -0.0169651 -0.0113111 0c-0.000614474,-0.0276707 -0.0230666,-0.0537217 -0.0508924,-0.0537217l-0.0197929 0c-0.0262151,0 -0.0503481,0.0293739 -0.0508924,0.0537217zm-0.0452339 0.107433l0 0.0593743c0,0.0265283 0.0185356,0.141949 0.0310995,0.147019l0 0.0113126c0,0.0180464 0.0108935,0.0320824 0.0113111,0.0508924l-0.0849152 -0.000632371 -0.025353 0.00345567c-0.00432816,0.0162328 -0.0113051,0.00329012 -0.0113051,0.0169636l0 0.0197944c0,0.0140956 0.0145356,0.0254455 0.0282703,0.0254455l0.135714 0c0.0172485,0 0.0367506,-0.0160524 0.0367506,-0.0282747l0 -0.0169651 -0.00400899 -0.000356454 -0.00850419 -0.0368013 -0.0129323 -0.0561393 0.0226222 0c0.0153768,0 0.0561334,-0.0136243 0.0791627,-0.0141344l0 0.0254395c0,0.0186564 0.0113111,0.0460035 0.0113111,0.0706868l0 0.0310995c0.0152172,0.00550938 0.00349445,0.0254455 0.0367521,0.0254455l0.00565256 0c0.0143715,0 0.0301047,-0.017514 0.0292591,-0.0312308l-0.0151187 -0.132753c-0.00919026,-0.0137227 -0.00955268,-0.0628672 -0.0341689,-0.0610491l-0.0902322 0.012986 -0.00848182 0c-0.00116034,-0.0138928 -0.00565405,-0.010361 -0.00565405,-0.0226162l0 -0.025447 0.00323643 0.00090083 0.00521259 -0.0237318 -0.0480348 0.00586733c-0.00509774,0.00341689 -0.00497246,0.00565256 -0.0113066,0.00565256l-0.00282926 0 0.000357946 -0.00285611 -0.0427671 -0.00279645c-0.00981219,-0.00123044 -0.0120315,-0.00960339 -0.0159316,-0.0171292l-0.00857578 -0.0541497 -0.0037629 0.000592102c-0.00147802,0.00634011 -0.00282926,0.0064997 -0.00282926,0.0141359zm-0.0366805 0.00335127l-0.0113827 0.00795982 0.000878459 0.0112395 0.0104326 0.166885 0.00565256 0 0 0.025441c0,0.0103327 0.00780023,0.0226222 0.0169636,0.0226222l0.00855938 0.000636845 0.0308132 -0.00343926 -0.00544972 -0.0452608c-0.0165073,-0.00666376 -0.0282688,-0.119782 -0.0282688,-0.152677l-7.15892e-005 -0.0372801 -0.0281271 0.00387327zm0.366872 0.0158212c0.00320212,0.00110367 0.00627897,0.00261002 0.00925141,0.00452652 0.00296648,0.00191203 0.00554816,0.00405374 0.00772865,0.00640574 0.00218645,0.00234604 0.00393889,0.00488894 0.00523048,0.00757503 0.00131247,0.00270846 0.00193887,0.00540051 0.0019165,0.00808659 -2.23716e-005,0.00110963 -0.000137213,0.00236244 -0.000384792,0.00369281 -0.000229682,0.00132291 -0.000730806,0.00258168 -0.00148846,0.00372413 -0.000747212,0.00115288 -0.00181807,0.0021253 -0.00320809,0.00288445 -0.00142283,0.000741246 -0.00329012,0.001132 -0.00564212,0.00106041 -0.00224164,-2.23716e-005 -0.00434457,-0.000423569 -0.00628941,-0.00117675 -0.00194484,-0.000774058 -0.00290085,-0.00176885 -0.00289041,-0.00296051 1.19315e-005,-0.000560782 0.000231173,-0.00107682 0.000671148,-0.00158689l4.47432e-006 0.000104401c0.00150039,-0.00171963 0.0025444,-0.00347804 0.0031365,-0.00523645 0.000583153,-0.00176288 0.000902322,-0.00348848 0.000912762,-0.00516933 3.87775e-005,-0.0021089 -0.000374352,-0.00408655 -0.00120807,-0.00595532 -0.000841173,-0.00181807 -0.00195677,-0.00346611 -0.00331846,-0.00485017 -0.00139002,-0.00139002 -0.00291129,-0.00248921 -0.00465329,-0.00329012 -0.00173007,-0.000802395 -0.00349892,-0.00122 -0.00532295,-0.00124834 -0.00129159,-2.08802e-005 -0.00219242,0.000577188 -0.00268161,0.00174797 -0.000505598,0.00121851 -0.000757652,0.00274127 -0.000774058,0.00455337 -4.92175e-005,0.00234007 0.000214767,0.00492772 0.000796429,0.00778979 0.000560782,0.00287401 0.0012364,0.00568686 0.0020209,0.00846542 0.000785989,0.00275917 0.00157198,0.00524092 0.00236841,0.00748256 0.000802395,0.00221926 0.00141239,0.00387924 0.00182403,0.00494413 0.0021089,0.00510968 0.00403733,0.0103118 0.00584496,0.0156348 0.00179122,0.00534532 0.00265924,0.0105147 0.00257721,0.015596 -2.83374e-005,0.00226401 -0.000325134,0.00452205 -0.000868018,0.00679053 -0.000560782,0.00232366 -0.00128562,0.0044609 -0.00218198,0.00648777 -0.00132887,0.0026652 -0.00335127,0.00512608 -0.00603139,0.00743931 -0.00267564,0.00227445 -0.00582408,0.00424613 -0.00943784,0.00588373 -0.00363166,0.00166445 -0.00762574,0.00293814 -0.0119658,0.00386134 -0.0043729,0.000945573 -0.0088875,0.00136169 -0.0135736,0.00130203 -0.00617009,-7.15892e-005 -0.0120538,-0.000583153 -0.0177004,-0.00147205 -0.00561975,-0.000873984 -0.0105698,-0.00231322 -0.0148488,-0.00433413 -0.00425806,-0.00198362 -0.00763618,-0.00460408 -0.010109,-0.00786138 -0.00246684,-0.00322002 -0.00367491,-0.00729016 -0.00360332,-0.0121627 5.51833e-005,-0.00366447 0.000917236,-0.00713207 0.0026145,-0.0104386 0.00169726,-0.00329012 0.00390012,-0.00614772 0.00662051,-0.00856385 0.0027353,-0.00247281 0.00584496,-0.00437887 0.00934388,-0.00581811 0.00348848,-0.00143327 0.00710373,-0.00212679 0.0108279,-0.00207609 0.00251009,4.92175e-005 0.00524689,0.000450415 0.00817459,0.00125132 0.00295604,0.000775549 0.0056973,0.00190755 0.00822977,0.00337364 0.00255931,0.00148846 0.00466374,0.00329012 0.00631774,0.00543332 0.00165252,0.00214171 0.00247728,0.00458767 0.00242807,0.00731701 -1.19315e-005,0.000939608 -0.000116332,0.00190159 -0.000302762,0.00292322 -0.000181956,0.00102164 -0.000609999,0.00197168 -0.00126325,0.00283374 -0.000675623,0.000884424 -0.00164208,0.00158838 -0.00290085,0.00213276 -0.00127518,0.000554816 -0.00291726,0.000823275 -0.00502616,0.000784498 -0.00120956,-3.28117e-005 -0.00241763,-0.000147653 -0.00357647,-0.000378826 -0.00117078,-0.000208802 -0.00222523,-0.000544376 -0.00319765,-0.000988825 -0.000927676,-0.000444449 -0.00168682,-0.000933642 -0.00231322,-0.00145565 -0.000581662,-0.00054885 -0.000884424,-0.001132 -0.000878459,-0.00176288 1.64058e-005,-0.000159584 4.92175e-005,-0.000384792 0.000170024,-0.000675623 7.15892e-005,-0.000325134 0.000192396,-0.000626405 0.000374352,-0.00090083 0.00124684,-0.00196721 0.00187325,-0.00382405 0.0019001,-0.00558694 2.83374e-005,-0.00246237 -0.000868018,-0.00444449 -0.00271293,-0.00591207 -0.00185237,-0.00147205 -0.00390608,-0.0022297 -0.00615965,-0.00224611 -0.00258616,-4.47432e-005 -0.00513652,0.000516038 -0.00756906,0.00164208 -0.00244,0.0011156 -0.00466523,0.0026309 -0.00664735,0.00455486 -0.00197318,0.00191054 -0.00357647,0.00413577 -0.00479051,0.00670701 -0.00119763,0.00256528 -0.00182403,0.00523048 -0.00185088,0.00797622 -5.0709e-005,0.00287848 0.000653251,0.00544525 0.00204327,0.00765855 0.00140643,0.00225804 0.00328415,0.00420288 0.00570774,0.00582855 0.00240569,0.0016212 0.00520811,0.00285163 0.00835505,0.00371965 0.00314843,0.000839681 0.0065161,0.00129606 0.0100642,0.00133931 0.00546613,8.35207e-005 0.0101582,-0.000542884 0.0140971,-0.00187325 0.00391652,-0.00130203 0.0071798,-0.00311413 0.00977341,-0.00541542 0.00260853,-0.00228041 0.00452652,-0.00496202 0.00578381,-0.00801649 0.0012364,-0.00304254 0.00190606,-0.00621782 0.00195677,-0.00954671 5.36919e-005,-0.0048621 -0.000747212,-0.00976745 -0.00241166,-0.0146788 -0.00165997,-0.00493369 -0.00352278,-0.00983456 -0.00552728,-0.0147459 -0.00192843,-0.00474576 -0.00368088,-0.00944231 -0.0052797,-0.0141016 -0.00157049,-0.00462048 -0.00235648,-0.00906498 -0.00229085,-0.0132887 3.28117e-005,-0.00261002 0.000505598,-0.00500975 0.00140643,-0.00718576 0.000912762,-0.00217005 0.0022476,-0.00407611 0.00405523,-0.00565256 0.00180166,-0.00161523 0.00402092,-0.0028576 0.00663542,-0.00371965 0.00261002,-0.00089039 0.00564809,-0.0013244 0.00912463,-0.00126325 0.00225357,5.51833e-005 0.00445642,0.000231173 0.00662498,0.000581662 0.00217005,0.00034154 0.0041477,0.000835207 0.00596725,0.00150039zm0.0163372 0.0715534c-0.000164058,-0.000356454 -0.000268459,-0.000692028 -0.000313203,-0.00101567 -4.32518e-005,-0.000319168 -5.51833e-005,-0.000665183 -3.28117e-005,-0.000999265 1.04401e-005,-0.00175841 0.000686063,-0.00426403 0.00198362,-0.0075273 0.0012901,-0.00328415 0.00297095,-0.00691581 0.0050366,-0.0109591 0.00205521,-0.00402689 0.00429087,-0.00821336 0.00671894,-0.0125743 0.00246684,-0.00440124 0.00490684,-0.00866378 0.0073006,-0.0127846 0.00177481,-0.00314247 0.00353322,-0.00622378 0.00526926,-0.00922903 0.00173007,-0.00299929 0.00326327,-0.00577337 0.00460855,-0.00830583 0.00135125,-0.00249965 0.00239525,-0.00469655 0.00320809,-0.00655936 0.000812835,-0.00185684 0.00122,-0.00319168 0.00121403,-0.00396127 2.23716e-005,-0.000137213 -2.08802e-005,-0.000241613 -9.24693e-005,-0.000307237 -0.000269951,-0.000153618 -0.000407163,-0.000450415 -0.000390757,-0.000956013 0,-0.000780023 0.000759143,-0.00144968 0.00225804,-0.00202687 0.00146161,-0.000587628 0.00321405,-0.000884424 0.00519767,-0.000835207 0.000956013,1.04401e-005 0.00205371,0.000147653 0.00325134,0.000417603 0.00122,0.000252053 0.00234007,0.000681588 0.00337811,0.00127369 0.00102313,0.000554816 0.00187474,0.00137362 0.00257124,0.00239525 0.000687554,0.00103357 0.00100523,0.00228638 0.000967945,0.00377484 0,0.00141687 -0.000374352,0.00317528 -0.00109919,0.00527373 -0.00072484,0.0021089 -0.00171367,0.00442212 -0.00296051,0.00696055 -0.00125281,0.00249369 -0.00269802,0.00520811 -0.00434606,0.00807466 -0.00164208,0.00287401 -0.00341092,0.00581214 -0.00526329,0.00882933 0.00227445,-0.00159882 0.00459364,-0.00288445 0.00695459,-0.0038852 0.00237437,-0.000988825 0.00462048,-0.00147653 0.00679053,-0.00144968 0.00330205,5.51833e-005 0.00589417,0.00105445 0.00777935,0.00301569 0.00187325,0.00197765 0.00279645,0.00466374 0.00274127,0.00804334 -1.19315e-005,0.000477261 -2.23716e-005,0.000972419 -8.20292e-005,0.00148846 -5.0709e-005,0.000483227 -0.000126772,0.000927676 -0.000192396,0.00135721 -0.000208802,0.00162567 -0.000615965,0.00331846 -0.00125878,0.00507537 -0.000630879,0.00174797 -0.00142283,0.00350489 -0.00235648,0.00529014 -0.000945573,0.00178078 -0.0019344,0.00354963 -0.00300525,0.00525733 -0.00105445,0.00171963 -0.00208653,0.00333486 -0.00306491,0.0048785 -0.00142283,0.00215961 -0.0026309,0.00411488 -0.00365403,0.00587777 -0.00102164,0.00173604 -0.00154812,0.00311562 -0.00157049,0.00411041 2.23716e-005,0.000696503 0.000522004,0.00108129 0.00155408,0.00108726 0.000697994,1.04401e-005 0.00171963,-0.000478752 0.00308281,-0.00145565 0.00133931,-0.000961979 0.00282926,-0.00221479 0.00441168,-0.00372562 0.0016033,-0.00156452 0.0032409,-0.00325134 0.00496501,-0.00513503 0.00170323,-0.00187922 0.0033289,-0.00379124 0.00481884,-0.00571371 0.00151083,-0.00191203 0.00285611,-0.00371369 0.0040433,-0.00542735 0.00120807,-0.00171963 0.00208205,-0.00312159 0.00260853,-0.00425806 0.000632371,-0.00125281 0.0017256,-0.00188369 0.00326924,-0.00185684 0.000966454,5.96576e-006 0.0018121,0.000263985 0.00255484,0.00072484 0.000712909,0.000466821 0.00107682,0.00108726 0.00108129,0.00186728 -4.47432e-006,0.000149144 -4.92175e-005,0.000335574 -0.000137213,0.000577188 -9.84351e-005,0.000253545 -0.00019687,0.000445941 -0.000274425,0.000577188 -0.000894864,0.00140046 -0.00206565,0.00312606 -0.00352129,0.00518574 -0.00146758,0.00206565 -0.0031365,0.00423569 -0.00505897,0.00655339 -0.00188518,0.00229085 -0.00391205,0.00459811 -0.00608806,0.00688449 -0.00213723,0.00230726 -0.0043729,0.0043729 -0.00664139,0.00621334 -0.00229085,0.00184044 -0.00455337,0.0033289 -0.00685019,0.0044609 -0.00226401,0.00113648 -0.00443853,0.00169129 -0.00652058,0.00164804 -0.0017256,-1.19315e-005 -0.0032588,-0.000335574 -0.00454889,-0.000956013 -0.00129606,-0.000599559 -0.00236841,-0.00147205 -0.00322002,-0.00252203 -0.000856087,-0.00108726 -0.00151083,-0.0023177 -0.00197168,-0.00374053 -0.000439975,-0.00141239 -0.000659217,-0.00289638 -0.000653251,-0.00445046 3.28117e-005,-0.00219689 0.000378826,-0.00437887 0.00107682,-0.00660261 0.000686063,-0.00221479 0.00153171,-0.0043565 0.00255931,-0.00641767 0.00103804,-0.00207609 0.00215961,-0.00407014 0.00339004,-0.00597024 0.00125281,-0.00195677 0.00239973,-0.00372562 0.00347207,-0.00542884 0.00123491,-0.00194931 0.00234604,-0.00366298 0.00325731,-0.00512012 0.000927676,-0.00147653 0.00140046,-0.00259212 0.00144521,-0.00337215 -2.23716e-005,-0.000577188 -0.000478752,-0.000857578 -0.00144521,-0.000868018 -0.000966454,-5.96576e-006 -0.00245044,0.000626405 -0.00444449,0.00196124 -0.00202687,0.00129606 -0.0041641,0.00296051 -0.00645496,0.0049829 -0.00228041,0.0020045 -0.00458171,0.00419095 -0.00686063,0.00655936 -0.00230278,0.00236692 -0.00419841,0.00461452 -0.00570327,0.00669657l0 -9.99265e-005 -0.00172411 0.00272486 -5.96576e-006 -0.000104401c-7.15892e-005,6.71148e-005 -0.000114841,0.000137213 -0.000126772,0.000214767l5.96576e-006 9.39608e-005c-0.00248921,0.00412532 -0.00452205,0.00770627 -0.0060821,0.0107563 -0.00156005,0.00306491 -0.00235648,0.00529014 -0.00238929,0.00670701 1.04401e-005,0.000489193 4.32518e-005,0.000775549 0.000131247,0.000845647l5.96576e-006 -0.000104401c0.00016555,0.000220733 0.000258019,0.000495158 0.000247579,0.000857578 0,0.000829241 -0.000615965,0.00157198 -0.00185684,0.00218049 -0.00121403,0.000615965 -0.00265327,0.000918727 -0.00430131,0.000906796 -0.00165401,-3.87775e-005 -0.00330802,-0.000483227 -0.00493369,-0.00133484 -0.00161523,-0.00089039 -0.0029277,-0.00243851 -0.00384046,-0.00472488l0.000126772 0.000104401zm0.117063 -0.0373233c-2.23716e-005,0.0016376 -0.000577188,0.00283523 -0.00167638,0.00363762 -0.00108726,0.000796429 -0.00234604,0.0011857 -0.00372413,0.00118122 -0.00139002,-3.87775e-005 -0.00262046,-0.000423569 -0.00370325,-0.00112604 -0.00107085,-0.000720366 -0.0016033,-0.00169875 -0.00159882,-0.00286357 3.43031e-005,-0.00129606 0.000566747,-0.00227892 0.00161523,-0.0029441 -0.000346014,-0.000159584 -0.00055929,-0.000235648 -0.000630879,-0.000241613 -0.00133037,-1.64058e-005 -0.00277408,0.00053841 -0.00434009,0.00163164 -0.00158838,0.00109919 -0.00320809,0.00258765 -0.00487254,0.00443853 -0.00167638,0.00183596 -0.00329608,0.00391801 -0.00491131,0.00627449 -0.00158838,0.00235648 -0.00299481,0.00475173 -0.0042521,0.00725586 -0.00126922,0.00248325 -0.00228041,0.00491131 -0.0030485,0.00728569 -0.000763618,0.00239973 -0.00115438,0.00455933 -0.00119315,0.00645496 -1.04401e-005,0.00162567 0.000313203,0.00304254 0.000994791,0.00424613 0.000665183,0.00121403 0.00175841,0.00182403 0.00321853,0.00183447 0.00103357,1.64058e-005 0.00225357,-0.000466821 0.00360929,-0.00147802 0.00135125,-0.000988825 0.00276364,-0.00227445 0.00420288,-0.00380168 0.00146161,-0.00152724 0.00289489,-0.00320212 0.00430728,-0.00502019 0.0014288,-0.00181359 0.00266968,-0.00352726 0.00373009,-0.00514845 -0.00156005,-0.000708434 -0.0026309,-0.00163611 -0.00320212,-0.00272934 -0.000609999,-0.00109323 -0.000902322,-0.002352 -0.000873984,-0.00376887 5.96576e-006,-0.00091127 0.000192396,-0.00181807 0.000544376,-0.0027353 0.000378826,-0.000917236 0.000894864,-0.00173156 0.0016033,-0.00246088 0.000697994,-0.000747212 0.00153768,-0.00133633 0.00250562,-0.00177034 0.000960488,-0.000454889 0.00203731,-0.000669657 0.00324687,-0.000642811 0.000522004,0 0.00121403,2.83374e-005 0.0020209,7.15892e-005 0.000818801,6.11491e-005 0.00164804,0.000231173 0.00240569,0.000577188 0.000780023,0.000329608 0.00144521,0.000896356 0.00198958,0.00165997 0.000565256,0.000780023 0.000839681,0.00188369 0.000812835,0.00327371 -1.64058e-005,0.000653251 -0.000104401,0.0014109 -0.000307237,0.00227892 -0.00017599,0.000896356 -0.000417603,0.00175244 -0.000671148,0.00260406 0.00249518,-0.00018643 0.00461004,-0.000542884 0.00626256,-0.00108726 0.00165997,-0.000554816 0.00297841,-0.00114244 0.00400004,-0.00179569 0.000994791,-0.000654742 0.00174648,-0.00131396 0.00226401,-0.00192396 0.000450415,-0.000642811 0.000790464,-0.00112007 0.000970928,-0.00144968 0.000615965,-0.00107682 0.00161523,-0.00158838 0.00301718,-0.00158838 0.000960488,2.23716e-005 0.00178525,0.000325134 0.00251009,0.000902322 0.000741246,0.000575696 0.00109919,0.00124088 0.00108726,0.00201046 5.96576e-006,0.000235648 -2.08802e-005,0.000411638 -4.92175e-005,0.000598068 -5.96576e-005,0.000159584 -0.00017599,0.000495158 -0.000368386,0.00100523 -0.000796429,0.00133037 -0.00192247,0.00250562 -0.0034333,0.00354366 -0.00148249,0.00104401 -0.00323493,0.00191799 -0.00523496,0.0026309 -0.00201643,0.00070396 -0.00419691,0.00125281 -0.0065161,0.0016376 -0.00238929,0.000401198 -0.00479498,0.000604033 -0.00731701,0.000653251 -0.00124088,0.00208802 -0.00279645,0.0043729 -0.00465777,0.00680694 -0.0018464,0.00244447 -0.0039896,0.00474726 -0.00642214,0.0068994 -0.00241166,0.00215364 -0.00504853,0.00393442 -0.00793297,0.00534085 -0.00290085,0.00141687 -0.00601498,0.00209846 -0.00942143,0.00203731 -0.00258168,-3.28117e-005 -0.00493369,-0.000471295 -0.00699933,-0.00132887 -0.00207012,-0.000808361 -0.00378528,-0.00196124 -0.00516933,-0.00339004 -0.00137362,-0.00143327 -0.00240122,-0.00308728 -0.00311413,-0.00496053 -0.000709926,-0.00187325 -0.00104997,-0.00384046 -0.0010276,-0.00589417 6.56234e-005,-0.00409251 0.00103804,-0.00835058 0.00297692,-0.0127563 0.00193887,-0.00441765 0.00457574,-0.00845498 0.00799412,-0.0121135 0.00337811,-0.00366447 0.00739307,-0.00664735 0.0120195,-0.00898146 0.00464136,-0.0023356 0.0096526,-0.00347207 0.0150188,-0.00339004 0.00219838,1.64058e-005 0.00396127,0.000307237 0.00540647,0.000873984 0.00141687,0.00053841 0.00258168,0.00119763 0.00347655,0.00199853 0.000906796,0.000780023 0.00157198,0.00169279 0.00196721,0.00271442 0.000434009,0.00103357 0.000747212,0.0020045 0.000894864,0.00291726l-4.47432e-006 0.000114841zm0.0553369 0.000775549c-2.83374e-005,0.00161523 -0.000589119,0.0028233 -0.00169279,0.00361376 -0.00108726,0.000796429 -0.0023177,0.00119315 -0.00371965,0.00116482 -0.00138853,-1.04401e-005 -0.00262494,-0.000384792 -0.00369132,-0.00110963 -0.00108129,-0.000708434 -0.00159286,-0.00166445 -0.00158689,-0.00286804 3.28117e-005,-0.00127369 0.000542884,-0.00225655 0.00158689,-0.00295007 -0.000340048,-0.000141687 -0.000542884,-0.000225208 -0.000636845,-0.000208802 -0.00130203,-3.7286e-005 -0.00273083,0.000511564 -0.00431325,0.0016376 -0.00158689,0.00109323 -0.00320809,0.00256528 -0.00487254,0.00442212 -0.00168085,0.00185237 -0.00333486,0.00393442 -0.00489938,0.00627449 -0.0016212,0.00235051 -0.00303359,0.0047741 -0.00427447,0.00725138 -0.00125728,0.00248325 -0.00226848,0.00491579 -0.00305447,0.0073006 -0.000753178,0.00238481 -0.00114244,0.00452652 -0.00118719,0.00644452 -1.64058e-005,0.0016197 0.000313203,0.00302613 0.00100523,0.00424613 0.000659217,0.00122447 0.00173604,0.00181807 0.00322002,0.0018464 0.00101567,4.47432e-006 0.00224164,-0.000472787 0.00357647,-0.00148995 0.00138406,-0.000993299 0.00279049,-0.00226848 0.00423569,-0.00380168 0.00146609,-0.00153768 0.00287251,-0.00320809 0.00431772,-0.00502019 0.0013945,-0.00181359 0.00264283,-0.00352129 0.00369728,-0.00513056 -0.00154961,-0.000720366 -0.00262046,-0.00164357 -0.00320809,-0.00275917 -0.000587628,-0.0010977 -0.000896356,-0.00234454 -0.000863544,-0.00375694 0,-0.00091127 0.000192396,-0.00181807 0.000554816,-0.0027353 0.000380317,-0.000917236 0.000906796,-0.00175244 0.00158838,-0.00247877 0.000718874,-0.000708434 0.00154961,-0.00133484 0.00250562,-0.00175692 0.000956013,-0.000445941 0.00205371,-0.000659217 0.00326327,-0.000648777 0.000520513,2.23716e-005 0.00117973,5.51833e-005 0.00201494,9.39608e-005 0.000824767,2.08802e-005 0.00164357,0.000225208 0.00242359,0.00055929 0.000757652,0.000319168 0.00144371,0.000868018 0.00197765,0.00165997 0.00055929,0.000802395 0.000829241,0.00188369 0.000812835,0.00329608 0,0.000626405 -0.000110367,0.00140046 -0.000307237,0.00227445 -0.000187922,0.000872493 -0.000407163,0.00173604 -0.000681588,0.00255931 0.00253247,-0.000164058 0.00460408,-0.000499633 0.00626853,-0.00106041 0.00165252,-0.000532444 0.00298736,-0.00113051 0.00400452,-0.00179569 0.000999265,-0.000648777 0.00173604,-0.00130203 0.00221926,-0.00191799 0.000499633,-0.000630879 0.000835207,-0.00112604 0.00100523,-0.00146609 0.000626405,-0.00104401 0.00161523,-0.00157198 0.00302166,-0.0015332 0.000956013,-1.04401e-005 0.00180166,0.000302762 0.00253247,0.000868018 0.000708434,0.000560782 0.00109323,0.00125281 0.00105445,0.00201643 0,0.000208802 0,0.000407163 -4.32518e-005,0.000571222 -6.11491e-005,0.00018643 -0.00017599,0.000511564 -0.000335574,0.00101716 -0.000812835,0.00133484 -0.00196124,0.00249965 -0.00346163,0.0035541 -0.00147653,0.0010276 -0.00321853,0.00190606 -0.00522899,0.0026145 -0.00201046,0.000708434 -0.00418647,0.00125878 -0.00653698,0.00165401 -0.00235797,0.000395232 -0.00479051,0.000614474 -0.00730657,0.000647285 -0.0012364,0.00208802 -0.00279645,0.0043729 -0.00464733,0.0068129 -0.00186281,0.00245044 -0.00398364,0.0047577 -0.0064117,0.00690537 -0.00241166,0.00215364 -0.0050709,0.00391652 -0.00793297,0.00531699 -0.00289489,0.00141836 -0.00603735,0.00209846 -0.00942143,0.00206117 -0.00259809,-3.87775e-005 -0.00495009,-0.000483227 -0.00702618,-0.0013244 -0.00205521,-0.000841173 -0.00377931,-0.00198362 -0.00514696,-0.00340645 -0.00137958,-0.00142283 -0.00241166,-0.00309325 -0.00312009,-0.0049665 -0.000709926,-0.00186132 -0.00106638,-0.00384493 -0.00103953,-0.00588224 6.11491e-005,-0.004094 0.00106041,-0.0083461 0.00299481,-0.0127682 0.0019165,-0.00442212 0.00458171,-0.00843708 0.00798219,-0.0121075 0.00339452,-0.00365254 0.007405,-0.00665332 0.01203,-0.00898146 0.00463241,-0.0023356 0.00964216,-0.0034676 0.0150263,-0.00339601 0.00216408,4.92175e-005 0.00395978,0.000308728 0.00537814,0.000873984 0.00143924,0.00053841 0.00259809,0.00122 0.00349295,0.00201643 0.000906796,0.000790464 0.00158242,0.00167489 0.00198958,0.00269652 0.000405672,0.00106638 0.000708434,0.00201643 0.000872493,0.00292919l-4.47432e-006 0.000120807zm-0.00400601 -0.011493c-0.000104401,0.000988825 -0.000466821,0.001742 -0.00108129,0.00226848 -0.000615965,0.000516038 -0.00134081,0.000759143 -0.00221926,0.000763618 -0.00103804,-2.23716e-005 -0.00209846,-0.000577188 -0.0031708,-0.00164208 -0.00107682,-0.00107085 -0.00159286,-0.00270846 -0.00156452,-0.00488447 3.28117e-005,-0.00246684 0.000712909,-0.00450415 0.00202687,-0.00610298 0.00135125,-0.00160479 0.00315887,-0.00285611 0.0054706,-0.00373606 0.00230278,-0.000884424 0.00505449,-0.00147205 0.00823574,-0.00177929 0.00316931,-0.000329608 0.00656532,-0.000456381 0.0102283,-0.000411638 0.00277408,4.32518e-005 0.00564212,0.000147653 0.00858175,0.000329608 0.00297692,0.000192396 0.00602691,0.000401198 0.00924544,0.000659217 0.000972419,-0.00197318 0.00180763,-0.00378528 0.00248325,-0.0054721 0.000659217,-0.00167489 0.000999265,-0.00286804 0.0010276,-0.00358244 0,-0.000125281 -2.23716e-005,-0.000246088 -0.000126772,-0.000301271 -0.000258019,-0.000153618 -0.000384792,-0.000445941 -0.000390757,-0.000862053 1.19315e-005,-0.000791955 0.000742737,-0.00144521 0.00218198,-0.00204477 0.00143924,-0.000581662 0.00314694,-0.000835207 0.0051574,-0.000818801 0.00103357,1.78973e-005 0.00218198,0.000143178 0.0033796,0.000423569 0.0012021,0.000253545 0.00232963,0.00070396 0.00337215,0.00131247 0.0010112,0.000615965 0.00188518,0.00140643 0.00256677,0.00241763 0.000669657,0.000988825 0.000999265,0.00228041 0.000970928,0.00382405 -1.04401e-005,0.00184044 -0.000454889,0.00401048 -0.00138406,0.00654742l0.00351682 3.28117e-005c0.00321256,5.51833e-005 0.00633415,2.23716e-005 0.00938265,-7.60635e-005 0.00303806,-8.20292e-005 0.00572415,-0.000280391 0.00807466,-0.00053841 0.00235797,-0.000231173 0.0042521,-0.00054885 0.00568686,-0.000966454 0.00142283,-0.000401198 0.00216408,-0.000912762 0.00216408,-0.00154364 2.68459e-005,-0.00170919 0.000956013,-0.0025444 0.00277408,-0.00252203 0.000961979,2.23716e-005 0.00202239,0.000483227 0.00323643,0.00137809 0.00120807,0.000896356 0.00179569,0.00192396 0.00179122,0.00303806 -3.43031e-005,0.00119763 -0.00114841,0.00235797 -0.00339004,0.00345119 -0.0022312,0.00108129 -0.00518574,0.00204327 -0.00887258,0.00284567 -0.00371369,0.000784498 -0.0079986,0.00143327 -0.0128652,0.00192694 -0.00485762,0.000495158 -0.0099494,0.000781515 -0.0152619,0.000847138 -0.00196124,0.00377334 -0.00427894,0.00781664 -0.0069874,0.0120687 -0.00271442,0.00427447 -0.00535129,0.00849823 -0.00792253,0.0127071 -0.00204924,0.0031365 -0.00397171,0.00620141 -0.00580618,0.00921263 -0.00179569,0.00302762 -0.00344374,0.0058017 -0.00492175,0.00830136 -0.00147205,0.0025265 -0.00261002,0.00475173 -0.00347804,0.00668016 -0.000857578,0.0019165 -0.00127966,0.00341689 -0.00131247,0.0044773 2.23716e-005,0.00055929 0.000147653,0.000833715 0.000395232,0.000851613 0.000774058,1.64058e-005 0.00183,-0.000445941 0.0031365,-0.00139002 0.00133037,-0.000945573 0.00276364,-0.00216557 0.00436246,-0.00368684 0.00158242,-0.00153768 0.00322449,-0.00325283 0.00494413,-0.00513652 0.00171963,-0.00187922 0.00336171,-0.0037629 0.00490535,-0.0056809 0.00154961,-0.00192247 0.00289489,-0.00374053 0.00410444,-0.00544972 0.0012021,-0.0017077 0.00206565,-0.00315291 0.00260406,-0.00436694 0.000614474,-0.00125281 0.00171367,-0.00185684 0.00328415,-0.00184044 0.000950048,2.83374e-005 0.00179122,0.000253545 0.00252799,0.00070396 0.000730806,0.000483227 0.00109323,0.00110367 0.00108129,0.00188369 5.96576e-006,0.000137213 -5.51833e-005,0.000329608 -0.000147653,0.000577188 -8.7995e-005,0.000247579 -0.00017599,0.000439975 -0.000258019,0.000571222 -0.000896356,0.00140046 -0.00207758,0.00312606 -0.00353322,0.00517977 -0.00147802,0.00207161 -0.0031365,0.00424166 -0.00503212,0.00655488 -0.0019001,0.00229085 -0.00393889,0.00460855 -0.00610298,0.00690537 -0.0021432,0.00228489 -0.0043565,0.00436097 -0.00664139,0.00620141 -0.00228041,0.0018464 -0.0045653,0.00331249 -0.00685615,0.00445642 -0.00225804,0.00113648 -0.00442809,0.00166892 -0.00650417,0.00165252 -0.00339601,-4.32518e-005 -0.00602095,-0.00105445 -0.00784498,-0.00302613 -0.00184044,-0.00196124 -0.00274723,-0.00463689 -0.00268161,-0.00802693 1.19315e-005,-0.000493667 2.83374e-005,-0.000956013 7.15892e-005,-0.0014109 4.47432e-005,-0.000466821 0.000126772,-0.000956013 0.000241613,-0.0014288 0.000263985,-0.00169726 0.000988825,-0.00390012 0.0021432,-0.00659217 0.00116929,-0.00270249 0.00260853,-0.00570774 0.00430131,-0.00905304 0.00170323,-0.00331398 0.00357647,-0.00681887 0.00560931,-0.010537 0.00205371,-0.00370772 0.00409699,-0.00742141 0.00614623,-0.0111306l0.00587329 -0.0105027c-0.00424166,-6.71148e-005 -0.00825662,-6.71148e-005 -0.0119822,-5.96576e-006 -0.00373009,4.92175e-005 -0.00696503,0.000252053 -0.00970033,0.000609999 -0.00274127,0.000329608 -0.00494413,0.000888899 -0.00661454,0.00164208 -0.00164804,0.000757652 -0.00252799,0.00179719 -0.00263239,0.00314843l0 9.84351e-005zm-0.0777175 0.10251c0.000204327,0.0010276 0.000346014,0.00206565 0.000423569,0.00311562 7.75549e-005,0.00104848 0.000114841,0.00216408 0.000114841,0.0033453 0,0.00440572 -0.000604033,0.00875177 -0.00180763,0.0130307 -0.0012021,0.00427894 -0.00290533,0.0083118 -0.00511415,0.012103 -0.00220286,0.00379572 -0.00481139,0.00728867 -0.00783901,0.0104983 -0.00302166,0.00320212 -0.00634011,0.00596576 -0.00995388,0.00829987 -0.00361525,0.00232963 -0.00747212,0.0041477 -0.0115706,0.00545569 -0.00409699,0.0013065 -0.00829987,0.00196124 -0.0126071,0.00196124 -0.00466374,0 -0.00888899,-0.000665183 -0.0126847,-0.00200002 -0.00378975,-0.00132887 -0.00702021,-0.00329012 -0.00968542,-0.00587777 -0.00266371,-0.00258765 -0.00472488,-0.00575249 -0.006185,-0.00949302 -0.00146161,-0.00374202 -0.00219242,-0.0079986 -0.00219242,-0.0127623 0,-0.0027189 0.000258019,-0.00549894 0.000769583,-0.00833864 0.000510073,-0.00284567 0.00126922,-0.0056809 0.00226848,-0.00849823 0.000999265,-0.00281882 0.0022133,-0.00559887 0.00364806,-0.00834014 0.00143924,-0.00274127 0.00307535,-0.0053662 0.00492175,-0.00787779 0.00143327,-0.00184491 0.00307684,-0.00373009 0.00492175,-0.00565256 0.00184044,-0.0019165 0.00375246,-0.00366447 0.00572415,-0.00522452 0.00197318,-0.00156601 0.00398364,-0.00284567 0.00603288,-0.00384493 0.00205371,-0.00100076 0.00399855,-0.00150039 0.00584496,-0.00150039 0.00189562,0 0.00349892,0.000307237 0.00480691,0.000923202 0.00130203,0.000615965 0.00195528,0.00141239 0.00195528,0.00238481 0,0.000768092 -0.00053841,0.00156452 -0.00161523,0.00238332 -0.00348251,0.00235648 -0.00672341,0.00516486 -0.0097227,0.0084162 -0.00299481,0.00325283 -0.00559887,0.00676219 -0.00780173,0.0105311 -0.00220286,0.00376887 -0.00393293,0.00771373 -0.00518574,0.0118391 -0.00125728,0.00412532 -0.00188369,0.00821336 -0.00188369,0.0122611 0,0.00389564 0.000522004,0.00739456 0.00157645,0.0104938 0.00104848,0.00309772 0.00249369,0.00572415 0.00434009,0.00787779 0.00184491,0.00215364 0.00402092,0.00380616 0.00653698,0.00496053 0.00251009,0.00115288 0.00522452,0.00173007 0.00814774,0.00173007 0.00369132,0 0.00723945,-0.000669657 0.0106459,-0.00200002 0.00340645,-0.00133484 0.0065862,-0.00314247 0.0095318,-0.00542139 0.0029441,-0.00228041 0.00562422,-0.00494413 0.00803141,-0.00799412 0.00241166,-0.0030485 0.00447134,-0.00625063 0.00619097,-0.00960786 0.00171367,-0.00335574 0.0030321,-0.00680097 0.0039553,-0.0103387 0.000923202,-0.0035377 0.00138406,-0.00694415 0.00138406,-0.0102238 0,-0.00246088 -0.000307237,-0.00494413 -0.000923202,-0.00746019 -0.000614474,-0.00251009 -0.00151083,-0.0047741 -0.00268608,-0.00680097 -0.00118122,-0.0020209 -0.0026145,-0.00369132 -0.00430728,-0.00499334 -0.00169129,-0.00130799 -0.00358691,-0.00196124 -0.00569134,-0.00196124 -0.00148249,0 -0.00327968,0.000560782 -0.00537814,0.00169129 -0.00199853,0.00122596 -0.00386731,0.00271442 -0.00561378,0.00445642 -0.001742,0.00174051 -0.0032409,0.00365254 -0.00449371,0.00572862 -0.00125878,0.00207161 -0.00225804,0.00429087 -0.00299929,0.00664735 -0.000741246,0.00235648 -0.0011156,0.00471444 -0.0011156,0.00707092 0,0.00153768 0.000114841,0.00296051 0.000346014,0.0042685 0.000231173,0.0013065 0.000577188,0.00258765 0.00103804,0.00384493 0.000462347,0.00125281 0.00106638,0.00252203 0.00180763,0.00380168 0.000741246,0.00128562 0.00162567,0.00269205 0.00265327,0.00422973 0.000357946,0.000615965 0.00053841,0.00112604 0.00053841,0.00153917 0,0.00055929 -0.000208802,0.00108726 -0.000614474,0.00157645 -0.000413129,0.000483227 -0.000951539,0.000906796 -0.00161523,0.00126922 -0.000665183,0.000356454 -0.00143477,0.000636845 -0.00230726,0.000839681 -0.000868018,0.000208802 -0.00176885,0.000308728 -0.00269205,0.000308728 -0.0024564,0 -0.00454889,-0.000781515 -0.00626256,-0.00234156 -0.00171963,-0.00156452 -0.0031365,-0.00347207 -0.0042685,-0.00572862 -0.00112604,-0.00225357 -0.00194484,-0.00462645 -0.0024564,-0.0071097 -0.000516038,-0.00248772 -0.000768092,-0.00462496 -0.000768092,-0.00642214 0,-0.00471295 0.000894864,-0.0089919 0.00268608,-0.0128324 0.00179569,-0.00384493 0.00410295,-0.00713654 0.00692178,-0.00988378 0.00281733,-0.00274127 0.00595532,-0.00486657 0.00941547,-0.0063774 0.00346163,-0.00151083 0.00685615,-0.00226848 0.010185,-0.00226848 0.00281882,0 0.00548254,0.000489193 0.00799412,0.00146161 0.00251009,0.000972419 0.00475173,0.00234454 0.00672938,0.00411339 0.00197168,0.00177034 0.00363613,0.00389564 0.00499334,0.00637889 0.00135721,0.00248772 0.00234604,0.00526777 0.00296051,0.00833864zm0.0365105 0.00861456c-9.84351e-005,0.00117526 -0.000329608,0.00240569 -0.000692028,0.00368535 -0.000356454,0.00128115 -0.000806869,0.00256677 -0.00134528,0.00384643 -0.00053841,0.00127966 -0.00110963,0.00255931 -0.0017256,0.00384493 -0.000614474,0.00127966 -0.00120807,0.00248325 -0.00176885,0.00360929 -0.000823275,0.00158838 -0.00152724,0.00302762 -0.00211486,0.00430728 -0.000587628,0.00127966 -0.000884424,0.00228041 -0.000884424,0.00299929 0,0.000511564 0.000307237,0.000763618 0.000923202,0.000763618 0.000411638,0 0.00100971,-0.000356454 0.00180763,-0.00107085 0.000790464,-0.000720366 0.00165252,-0.00164208 0.00257572,-0.00276961 0.000917236,-0.00112604 0.00187922,-0.00238332 0.00287848,-0.00376738 0.00100076,-0.00138555 0.0019344,-0.00278005 0.00280689,-0.00418647 0.000873984,-0.00141239 0.00165401,-0.00274723 0.00234604,-0.00400004 0.000692028,-0.00125728 0.00119166,-0.00229533 0.00150039,-0.00311413 0.000356454,-0.000923202 0.000999265,-0.00138406 0.0019165,-0.00138406 0.000566747,0 0.00106638,0.000170024 0.00150039,0.000499633 0.000439975,0.000335574 0.000653251,0.000785989 0.000653251,0.00134528 0,0.000104401 -2.23716e-005,0.000241613 -7.60635e-005,0.000423569 -5.0709e-005,0.000180464 -9.99265e-005,0.000319168 -0.00015511,0.000423569 -0.000510073,0.00102611 -0.00119166,0.00229533 -0.00203731,0.00380616 -0.000841173,0.00151083 -0.00181807,0.00310965 -0.00291726,0.00480095 -0.00110367,0.00169279 -0.00228041,0.00338408 -0.0035377,0.00507686 -0.00125281,0.00169129 -0.00254887,0.00321405 -0.00388371,0.00456977 -0.00133037,0.00136318 -0.0026652,0.00246237 -0.00399408,0.00330802 -0.00133484,0.000845647 -0.0026145,0.00126922 -0.00384493,0.00126922 -0.00102313,0 -0.00192396,-0.000220733 -0.00269205,-0.000654742 -0.000769583,-0.000434009 -0.00140643,-0.00103804 -0.00191799,-0.00180613 -0.000516038,-0.000769583 -0.00091127,-0.00166445 -0.00119166,-0.00269205 -0.000286357,-0.00102164 -0.000423569,-0.00209846 -0.000423569,-0.00322449 0,-0.00158838 0.000192396,-0.00319168 0.000577188,-0.00480691 0.000384792,-0.00161523 0.000868018,-0.00317528 0.00146161,-0.00468611 0.000587628,-0.0015168 0.00124088,-0.00297244 0.00195528,-0.00438484 0.000720366,-0.00140643 0.00138406,-0.00272934 0.00200002,-0.00395978 0.000718874,-0.00143477 0.00134528,-0.00268758 0.00188369,-0.0037644 0.00053841,-0.00107682 0.000808361,-0.00189413 0.000808361,-0.00246088 0,-0.000411638 -0.000280391,-0.000614474 -0.000847138,-0.000614474 -0.000460855,0 -0.00117973,0.00037286 -0.00215215,0.00111411 -0.000972419,0.000742737 -0.00204924,0.00171516 -0.00323046,0.00292322 -0.00117675,0.00120359 -0.00237885,0.00254887 -0.00360929,0.00403286 -0.00123044,0.00148846 -0.0023356,0.00297095 -0.00330802,0.0044609l7.75549e-005 -7.75549e-005c-0.000462347,0.000972419 -0.000945573,0.00194484 -0.00146161,0.00292322 -0.000510073,0.000972419 -0.00102164,0.0019165 -0.00153768,0.0028397 -0.00133037,0.00235648 -0.00247281,0.00453696 -0.00341689,0.00653698 -0.000951539,0.00200002 -0.00142283,0.00356007 -0.00142283,0.00468611 0,0.000208802 2.08802e-005,0.000374352 7.60635e-005,0.000499633 4.92175e-005,0.000132738 9.99265e-005,0.000269951 0.000153618,0.000423569 5.0709e-005,0.000104401 7.75549e-005,0.000284865 7.75549e-005,0.00053841 0,0.000614474 -0.000356454,0.00115288 -0.00107682,0.00161523 -0.000720366,0.000460855 -0.00156601,0.000692028 -0.00253843,0.000692028 -0.000460855,0 -0.00100971,-0.000104401 -0.00165252,-0.000307237 -0.000638337,-0.000204327 -0.00124237,-0.000550342 -0.00180763,-0.00103953 -0.000560782,-0.000483227 -0.00104997,-0.00113648 -0.00145565,-0.00196124 -0.000413129,-0.000817309 -0.000615965,-0.00184491 -0.000615965,-0.00307088 0,-0.00113051 0.000192396,-0.00241166 0.000577188,-0.00384493 0.000384792,-0.00143327 0.000884424,-0.0029441 0.00149442,-0.00453696 0.000614474,-0.00158838 0.00129606,-0.00321405 0.00203731,-0.0048785 0.000747212,-0.00166445 0.00150039,-0.00326924 0.00226997,-0.00480691 0.00107533,-0.00235648 0.00202687,-0.00449371 0.00284567,-0.00641618 0.000817309,-0.00192396 0.00123044,-0.00331846 0.00123044,-0.00419244 0,-9.84351e-005 -5.51833e-005,-0.000252053 -0.00015511,-0.000460855 -0.000104401,-9.99265e-005 -0.000180464,-0.000192396 -0.000229682,-0.000269951 -5.51833e-005,-7.60635e-005 -7.75549e-005,-0.000241613 -7.75549e-005,-0.000499633 0,-0.000560782 0.000434009,-0.00106041 0.00130799,-0.00150039 0.000868018,-0.000434009 0.00189562,-0.000647285 0.00307088,-0.000647285 0.000614474,0 0.00128562,8.7995e-005 0.00200002,0.000263985 0.000718874,0.000180464 0.00138406,0.000499633 0.00199853,0.000960488 0.000615965,0.000462347 0.00112604,0.00109323 0.00153917,0.00188518 0.000405672,0.000796429 0.000614474,0.00177929 0.000614474,0.00296051l0 0.000384792c0.00179122,-0.00179719 0.00358841,-0.00331846 0.00537814,-0.00457574 0.00179719,-0.00125281 0.00356603,-0.00187922 0.00530655,-0.00187922 0.00194484,0 0.00348401,0.000702469 0.00461004,0.0021089 0.001132,0.00141239 0.00169129,0.0033453 0.00169129,0.00580767 0,0.000405672 -1.04401e-005,0.000768092 -3.7286e-005,0.00107682 -2.23716e-005,0.000307237 -6.11491e-005,0.000636845 -0.000116332,0.000999265zm-0.127621 0.0708226c0.00240569,0.00090083 0.00473532,0.0021432 0.00697696,0.00373009 0.0022476,0.00158838 0.00420288,0.00336767 0.00586136,0.00534532 0.00165997,0.00197765 0.00299481,0.00410444 0.00400004,0.00637889 0.00100971,0.00227445 0.0015153,0.00454889 0.0015153,0.00682782 0,0.000956013 -8.20292e-005,0.00200599 -0.000241613,0.00314247 -0.000164058,0.00113797 -0.000522004,0.00220286 -0.00107682,0.00319168 -0.00054885,0.000984351 -0.00135125,0.00180763 -0.00238929,0.00246684 -0.00104401,0.000659217 -0.00243851,0.000988825 -0.00420288,0.000988825 -0.00169129,0 -0.00326775,-0.000313203 -0.00473532,-0.000944082 -0.00146161,-0.000626405 -0.00219689,-0.00145117 -0.00219689,-0.00246684 0,-0.000483227 0.000164058,-0.000929168 0.000489193,-0.00135125l0 9.24693e-005c0.00110963,-0.0014989 0.00187325,-0.00299332 0.00229085,-0.00449371 0.000428043,-0.00149442 0.000642811,-0.00296051 0.000642811,-0.00439975 0,-0.00179719 -0.000329608,-0.00347207 -0.000984351,-0.00503212 -0.000647285,-0.00155557 -0.00148846,-0.00291726 -0.00253247,-0.00408804 -0.00104401,-0.00116482 -0.00221926,-0.00208205 -0.00352129,-0.00274127 -0.00130203,-0.000653251 -0.0026309,-0.000982859 -0.00399855,-0.000982859 -0.000978385,0 -0.00164357,0.000505598 -0.00200002,0.00152724 -0.000357946,0.00101567 -0.00053841,0.00230129 -0.00053841,0.00386134 0,0.00197318 0.000225208,0.00417603 0.000681588,0.0066041 0.000460855,0.0024221 0.000999265,0.00480095 0.00160926,0.00714102 0.000626405,0.0023356 0.0012364,0.00444449 0.00186281,0.00632967 0.000608508,0.00188966 0.00108129,0.00327968 0.0014109,0.00418051 0.00162567,0.00431176 0.00314247,0.008713 0.00453845,0.0132007 0.00140643,0.00449371 0.00210293,0.00889346 0.00210293,0.0132067 0,0.0019165 -0.00019687,0.0038509 -0.000587628,0.00579574 -0.000389266,0.00194484 -0.00091127,0.00378528 -0.00156005,0.00552579 -0.000976894,0.00227445 -0.00245491,0.00440124 -0.00444449,0.00637889 -0.00198212,0.00197168 -0.00432816,0.00368088 -0.00703065,0.00512012 -0.00270398,0.00143327 -0.00567493,0.00256975 -0.00893373,0.00341092 -0.00325731,0.000841173 -0.00663542,0.00125878 -0.0101522,0.00125878 -0.00462496,0 -0.00904708,-0.000347506 -0.0132828,-0.00103357 -0.00423569,-0.000686063 -0.00795982,-0.00185684 -0.0111798,-0.00350489 -0.00322449,-0.00164804 -0.00577933,-0.00383449 -0.00766302,-0.00655936 -0.00188966,-0.00272486 -0.00283523,-0.00615219 -0.00283523,-0.0102835 0,-0.00311562 0.000615965,-0.00607613 0.00186281,-0.00889495 0.0012364,-0.00281286 0.00285611,-0.00526777 0.0048785,-0.00736623 0.00201643,-0.00209398 0.00432816,-0.00376887 0.00693222,-0.00502616 0.00259809,-0.00125878 0.00530655,-0.00189115 0.008103,-0.00189115 0.00188966,0 0.00393889,0.000319168 0.00615368,0.000945573 0.00220733,0.000626405 0.00427298,0.00155408 0.00619694,0.00278452 0.00192247,0.00122596 0.00352129,0.00274127 0.00478454,0.00453845 0.00127369,0.00179569 0.00190606,0.00386134 0.00190606,0.00619694 0,0.000780023 -6.56234e-005,0.0016033 -0.000198362,0.00247132 -0.000125281,0.000868018 -0.000434009,0.00167638 -0.000927676,0.00242359 -0.000489193,0.000747212 -0.00120359,0.00136169 -0.00214767,0.00184044 -0.000945573,0.000483227 -0.00219838,0.000718874 -0.00375843,0.000718874 -0.00091127,0 -0.00180763,-8.7995e-005 -0.00268608,-0.000268459 -0.000873984,-0.000181956 -0.00167489,-0.000450415 -0.00239525,-0.000808361 -0.0007144,-0.000356454 -0.00129606,-0.000763618 -0.00175244,-0.00121403 -0.000456381,-0.000450415 -0.000681588,-0.000939608 -0.000681588,-0.00148249 0,-0.000116332 2.83374e-005,-0.000313203 9.39608e-005,-0.000583153 6.56234e-005,-0.000268459 0.000164058,-0.000522004 0.000296797,-0.000763618 0.00091127,-0.00167489 0.00136765,-0.00326327 0.00136765,-0.0047577 0,-0.00209846 -0.00070396,-0.0037629 -0.00210442,-0.00498738 -0.0013945,-0.00123044 -0.0029441,-0.00184044 -0.00463689,-0.00184044 -0.00194931,0 -0.00384493,0.000493667 -0.005663,0.00148249 -0.00182403,0.000984351 -0.00346163,0.00230278 -0.00493369,0.00395083 -0.00146161,0.00164804 -0.0026309,0.00356454 -0.00351085,0.005751 -0.000878459,0.00218198 -0.00131843,0.00444449 -0.00131843,0.00678009 0,0.00245491 0.00053841,0.00462496 0.00161076,0.00651461 0.00107682,0.00188518 0.00252053,0.00350041 0.00434009,0.00485166 0.00182851,0.00134528 0.00392696,0.00236244 0.00629985,0.00305447 0.00237885,0.000686063 0.00490684,0.00103208 0.00756459,0.00103208 0.00410444,0 0.00761977,-0.000587628 0.010549,-0.00175244 0.00293366,-0.00116929 0.00535576,-0.00274127 0.00727823,-0.00471892 0.00191799,-0.00197168 0.0033289,-0.00426254 0.00424613,-0.00687256 0.000912762,-0.00260406 0.00136914,-0.00531251 0.00136914,-0.00812537 0,-0.00413577 -0.000654742,-0.00828346 -0.00195677,-0.0124431 -0.00130203,-0.0041641 -0.0027353,-0.0083118 -0.00429535,-0.0124416 -0.00149442,-0.00401048 -0.00286207,-0.00798219 -0.00409848,-0.0119047 -0.0012364,-0.00392249 -0.00185684,-0.00768092 -0.00185684,-0.0112738 0,-0.0022133 0.000323643,-0.0042521 0.000972419,-0.00610894 0.000653251,-0.00185684 0.00164804,-0.00347207 0.00298288,-0.00485017 0.00133484,-0.00137362 0.00297692,-0.0024564 0.00492772,-0.00323046 0.00195528,-0.000780023 0.00423569,-0.00117078 0.00683975,-0.00117078 0.00168682,0 0.00335127,0.000138704 0.00497694,0.000407163 0.00162567,0.000269951 0.00312606,0.000669657 0.00449371,0.00120807zm0.0410042 0.0170695c0,0.000477261 -0.000241613,0.000856087 -0.000730806,0.00112604 -0.000489193,0.000268459 -0.00112007,0.000401198 -0.0019001,0.000401198 -0.000785989,0 -0.00169726,-0.000149144 -0.00273679,-0.000450415 -0.00103804,-0.000296797 -0.00203731,-0.000730806 -0.00298288,-0.00130203 -0.000939608,-0.000566747 -0.00175244,-0.00130203 -0.00243254,-0.00219838 -0.000687554,-0.00090083 -0.0010276,-0.00197765 -0.0010276,-0.00323493 0,-0.00053841 0.000225208,-0.00118122 0.000680097,-0.00192843 0.000462347,-0.000753178 0.000945573,-0.00154364 0.00146758,-0.00238481 0.000389266,-0.000659217 0.000763618,-0.00126922 0.00112604,-0.00184044 0.000356454,-0.000571222 0.000532444,-0.000944082 0.000532444,-0.00112007 0,-0.000961979 0.000812835,-0.00143924 0.00244,-0.00143924 0.0007144,0 0.00159286,0.000147653 0.00263687,0.000450415 0.00103804,0.000296797 0.00203731,0.000730806 0.00298288,0.00130203 0.000939608,0.000565256 0.00173604,0.00130203 0.00238332,0.00219689 0.000654742,0.00090083 0.000984351,0.00197765 0.000984351,0.00323643 0,0.000417603 -0.000181956,0.000960488 -0.00053841,0.00161523 -0.000357946,0.000659217 -0.000736772,0.00131843 -0.00112156,0.00197765 -0.000460855,0.000659217 -0.000868018,0.00134528 -0.00122447,0.00206565 -0.000356454,0.000718874 -0.00053841,0.00123044 -0.00053841,0.00152724zm0.00693222 0.0215618c-0.000520513,0.00101716 -0.00128413,0.00237885 -0.00229533,0.00408804 -0.00100523,0.00170173 -0.00219838,0.00354814 -0.00356007,0.00551982 -0.00136765,0.00197765 -0.00286207,0.00397171 -0.00449371,0.00597769 -0.0016212,0.0020045 -0.00330205,0.00383449 -0.00502616,0.00547657 -0.0017256,0.00164804 -0.00347207,0.00299481 -0.00522452,0.0040433 -0.00175841,0.00104997 -0.0034497,0.00157198 -0.00507686,0.00157198 -0.00253694,0 -0.00451012,-0.000824767 -0.00590461,-0.00246684 -0.00140195,-0.00164804 -0.00210442,-0.00391205 -0.00210442,-0.00678456 0,-0.00149442 0.000231173,-0.00314247 0.000681588,-0.00493965 0.000460855,-0.00179569 0.00106489,-0.0036421 0.0018121,-0.00552579 0.000741246,-0.00188369 0.00156005,-0.00377484 0.00244,-0.00565853 0.000878459,-0.00188966 0.00173604,-0.00366894 0.00258616,-0.00534532 0.00103953,-0.00215811 0.00198958,-0.0041641 0.00282926,-0.00602095 0.000847138,-0.00185684 0.00127518,-0.00320212 0.00127518,-0.0040433 0,-0.000114841 -6.56234e-005,-0.000296797 -0.000198362,-0.00053841 -0.000131247,-0.000114841 -0.000229682,-0.000225208 -0.000296797,-0.000313203 -6.56234e-005,-8.7995e-005 -9.24693e-005,-0.000284865 -9.24693e-005,-0.000581662 0,-0.000659217 0.00053841,-0.00124237 0.00161523,-0.00175244 0.00106489,-0.000511564 0.00235648,-0.000763618 0.0038509,-0.000763618 0.000845647,0 0.00172411,0.000120807 0.00263687,0.000356454 0.00091127,0.000241613 0.00175841,0.000632371 0.00253843,0.00117078 0.000780023,0.00053841 0.00143327,0.00128562 0.00194931,0.00224611 0.000522004,0.000956013 0.000785989,0.00215364 0.000785989,0.00359288 0,0.00131843 -0.000274425,0.00280242 -0.000829241,0.00444449 -0.000554816,0.00164804 -0.00127518,0.00336767 -0.00215364,0.00516933 -0.000873984,0.00179719 -0.00183447,0.00357647 -0.00287401,0.00533936 -0.00104848,0.00176885 -0.00205371,0.00346163 -0.0030321,0.00507686 -0.00136169,0.00227892 -0.00259809,0.00440572 -0.00370772,0.0063774 -0.00110963,0.00197765 -0.00165997,0.00341689 -0.00165997,0.00431325 0,0.00036242 0.000231173,0.00053841 0.000681588,0.00053841 0.000522004,0 0.00127518,-0.000384792 0.0022476,-0.00116482 0.000976894,-0.000780023 0.00206565,-0.00181359 0.00327371,-0.00309921 0.00120359,-0.0012901 0.00243851,-0.00272486 0.00370772,-0.00431176 0.00126922,-0.00158838 0.00247877,-0.00320212 0.00360929,-0.00485017 0.00114244,-0.00164953 0.00217005,-0.00323643 0.00307684,-0.00476366 0.00091127,-0.00152724 0.00159286,-0.00282926 0.00205521,-0.00390608 0.000450415,-0.00107682 0.00126325,-0.0016212 0.00243851,-0.0016212 0.000720366,0 0.00135125,0.000198362 0.00190159,0.000589119 0.000554816,0.000389266 0.000829241,0.00091127 0.000829241,0.00157049 0,0.000120807 -2.83374e-005,0.000286357 -9.39608e-005,0.000495158 -6.56234e-005,0.000208802 -0.000131247,0.00037286 -0.000198362,0.000493667zm0.0277318 -0.0107786c0.000258019,-0.000839681 0.000472787,-0.00156005 0.000638337,-0.00215811 0.000158093,-0.000599559 0.000246088,-0.00113797 0.000246088,-0.00161523 0,-0.000181956 -2.08802e-005,-0.000302762 -5.51833e-005,-0.00036242 -3.28117e-005,-6.11491e-005 -7.60635e-005,-0.000149144 -0.000141687,-0.000269951l0 9.39608e-005c-0.000132738,-0.000241613 -0.000198362,-0.000483227 -0.000198362,-0.000720366 0,-0.00053841 0.000583153,-0.00110963 0.00175244,-0.0017077 0.00117526,-0.000599559 0.00251009,-0.000896356 0.00401048,-0.000896356 0.000648777,0 0.00141239,0.000104401 0.00229085,0.000313203 0.000878459,0.000208802 0.00170919,0.000566747 0.00248921,0.00107682 0.000784498,0.000511564 0.00144968,0.00117078 0.00199853,0.00197765 0.000560782,0.000808361 0.000835207,0.00184044 0.000835207,0.00309921 0,0.00143924 -0.000438484,0.00338408 -0.00131843,0.00583899 -0.000878459,0.0024564 -0.00198809,0.00510371 -0.00331846,0.00794938 -0.00133484,0.00284567 -0.00276811,0.00574652 -0.00430131,0.008713 -0.00152724,0.00296648 -0.00291129,0.00567493 -0.0041477,0.00812984 -0.000522004,0.00101716 -0.000960488,0.00182403 -0.00131843,0.00242359 -0.000350489,0.000598068 -0.000653251,0.00108129 -0.000878459,0.00143924 -0.000225208,0.00036242 -0.000407163,0.000659217 -0.00053841,0.00090083 -0.000126772,0.000235648 -0.000225208,0.000505598 -0.000290831,0.000806869 0.0022133,-0.0016197 0.00442809,-0.00360929 0.00664139,-0.0059762 0.0022133,-0.00236244 0.00427894,-0.0047577 0.0062029,-0.00718576 0.0019165,-0.0024221 0.00359288,-0.0047577 0.00502616,-0.00700381 0.00143327,-0.0022476 0.00244447,-0.0040597 0.00302613,-0.00543928 0.000259511,-0.000653251 0.000615965,-0.00112007 0.00107682,-0.00139002 0.000456381,-0.000268459 0.000945573,-0.000407163 0.00146161,-0.000407163 0.000720366,0 0.00133484,0.000198362 0.00185088,0.000589119 0.00052797,0.000389266 0.000785989,0.00091127 0.000785989,0.00157049 0,0.000181956 -6.56234e-005,0.000511564 -0.000192396,0.000988825 -0.00156452,0.00293366 -0.00349892,0.00604928 -0.00581214,0.0093394 -0.00230726,0.00329608 -0.00480095,0.00643855 -0.00747063,0.00943187 -0.0026652,0.00299481 -0.00544972,0.00571968 -0.00834461,0.00817459 -0.00289489,0.0024564 -0.00571371,0.00431325 -0.00844901,0.00557053l-0.00234007 0.00485166c-0.000851613,0.00173604 -0.00168235,0.00344374 -0.00249518,0.00512012 -0.000812835,0.00167489 -0.00138406,0.00287848 -0.00170323,0.00359139 -0.000592102,0.00137958 -0.00142283,0.00259362 -0.00249369,0.00364359 -0.00107085,0.00104252 -0.00227892,0.00192694 -0.00360929,0.00264731 -0.00134081,0.000720366 -0.00278452,0.00125728 -0.00435053,0.00161523 -0.00156005,0.00036242 -0.00312009,0.00053841 -0.00468611,0.00053841 -0.00130203,0 -0.0026309,-0.00016555 -0.00400004,-0.000495158 -0.00136765,-0.000323643 -0.00263687,-0.000806869 -0.00381212,-0.00143327 -0.00116929,-0.000632371 -0.00213127,-0.00143924 -0.00288445,-0.00242807 -0.000741246,-0.000988825 -0.00112007,-0.00217005 -0.00112007,-0.00354963 0,-0.00107533 0.000329608,-0.00204775 0.000978385,-0.00291577 0.000653251,-0.000868018 0.00151083,-0.00167638 0.00258616,-0.00242807 0.00107682,-0.000747212 0.00230278,-0.00145117 0.00366,-0.00211039 0.00136765,-0.000659217 0.0027353,-0.00128562 0.00410295,-0.00188369 0.00136765,-0.000659217 0.00278601,-0.00134677 0.0042521,-0.00206565 0.00146161,-0.000720366 0.00268161,-0.00143924 0.0036585,-0.00215961 0.000522004,-0.00131843 0.0010112,-0.00251606 0.00146758,-0.00359288 0.000450415,-0.00107682 0.00113648,-0.00257572 0.00204327,-0.00448775 -0.00103804,0.00053841 -0.00207609,0.000956013 -0.00312009,0.00125728 -0.00103804,0.000296797 -0.00214767,0.000445941 -0.00331846,0.000445941 -0.00253843,0 -0.0046697,-0.000401198 -0.00639977,-0.00120956 -0.0017256,-0.000812835 -0.00312009,-0.00184491 -0.00419691,-0.00310369 -0.00107235,-0.00125728 -0.00185684,-0.00266371 -0.00234007,-0.00421929 -0.000489193,-0.00156005 -0.000730806,-0.00308728 -0.000730806,-0.00458171 0,-0.00185684 0.000307237,-0.0038509 0.00092171,-0.0059762 0.000621931,-0.00212679 0.00129159,-0.00405374 0.00200002,-0.00578977 0.00319765,-0.00664735 0.00699933,-0.0116526 0.0114319,-0.0150039 0.00442361,-0.00335127 0.00895014,-0.00503212 0.0135691,-0.00503212 0.000780023,0 0.00170919,9.39608e-005 0.00278601,0.000269951 0.00107085,0.000180464 0.00209249,0.00053841 0.00307684,0.00108129 0.000972419,0.00053841 0.00180166,0.00125878 0.00248772,0.00215364 0.000681588,0.00090083 0.00102164,0.00206565 0.00102164,0.00350489l0 0.000450415zm-0.00800307 0.000445941c0,-0.00107682 0.000389266,-0.00191799 0.00116929,-0.00251606l-0.000395232 0c-0.00155408,0 -0.00354366,0.00148249 -0.00594936,0.00444897 -0.00240719,0.002962 -0.00495009,0.00699337 -0.00761977,0.0120807 -0.000906796,0.00173604 -0.00162567,0.00362569 -0.0021432,0.00565853 -0.000526479,0.00203731 -0.000784498,0.00392249 -0.000784498,0.005663 0,0.00155557 0.000246088,0.00291726 0.00073528,0.00408804 0.000483227,0.00116482 0.00128562,0.00174648 0.00239078,0.00174648 0.000845647,0 0.00183447,-0.00054885 0.00297692,-0.00165848 0.00114244,-0.00110963 0.00232963,-0.00251606 0.00356454,-0.00422525 0.0012364,-0.00170323 0.00247281,-0.00356007 0.00370921,-0.00556457 0.0012364,-0.00201046 0.00234604,-0.00391205 0.00331846,-0.00570774 0.000454889,-0.000835207 0.000927676,-0.00170919 0.00141687,-0.00260406 0.000489193,-0.00090083 0.000960488,-0.00167489 0.00141687,-0.0023341 0,-6.11491e-005 3.28117e-005,-0.000137213 9.84351e-005,-0.000225208 6.71148e-005,-8.7995e-005 0.000126772,-0.000192396 0.000192396,-0.000313203 0.000522004,-0.00119763 0.00104401,-0.00232366 0.00156601,-0.00336767 0.000516038,-0.00104997 0.000972419,-0.00205521 0.00136318,-0.00301122 -0.000780023,0.000775549 -0.00179122,0.00116482 -0.00302762,0.00116482 -0.00103804,0 -0.00196721,-0.000296797 -0.00278005,-0.000894864 -0.000812835,-0.000599559 -0.00121851,-0.00140643 -0.00121851,-0.00242807zm-0.0231457 0.0597367c0.00130203,0 0.00253843,-0.000686063 0.00370921,-0.00206565 0.00117526,-0.00137362 0.00257572,-0.00394933 0.00420139,-0.00772417l-0.00302613 0.00143924c-0.000978385,0.000417603 -0.00193887,0.000835207 -0.00288445,0.00125878 -0.000939608,0.000417603 -0.00180166,0.000851613 -0.00258168,0.00130203 -0.000785989,0.000444449 -0.00141687,0.00091127 -0.00190606,0.00139002 -0.000489193,0.000477261 -0.000736772,0.000988825 -0.000736772,0.00152724 0,0.000718874 0.000313203,0.00137809 0.000933642,0.00197765 0.000615965,0.000598068 0.00137958,0.000894864 0.00229085,0.000894864zm0.0421809 -0.0274843c-0.000120807,-0.000302762 -0.000208802,-0.000587628 -0.000243105,-0.000857578 -3.28117e-005,-0.000268459 -4.92175e-005,-0.000554816 -4.92175e-005,-0.000851613 0,-0.0014989 0.000472787,-0.00363613 0.00141836,-0.00642214 0.000939608,-0.00278452 0.00216408,-0.00590014 0.00366298,-0.00934388 0.00149442,-0.00344523 0.00314247,-0.00703662 0.00492772,-0.0107786 0.00179122,-0.00374053 0.00356603,-0.00738263 0.00532444,-0.0109159 0.00130203,-0.00269205 0.00258765,-0.00532892 0.0038509,-0.00790464 0.00127369,-0.00257721 0.00239525,-0.00493965 0.00337811,-0.00709777 0.000972419,-0.00215364 0.00175244,-0.00402689 0.00234007,-0.00561527 0.000583153,-0.00158689 0.000873984,-0.00270846 0.000873984,-0.00336767 0,-0.000120807 -2.83374e-005,-0.000208802 -9.39608e-005,-0.000268459 -0.00019687,-0.000120807 -0.000290831,-0.000390757 -0.000290831,-0.000808361 0,-0.000659217 0.000554816,-0.00124088 0.00165848,-0.00175244 0.00110516,-0.000510073 0.00240719,-0.000763618 0.00390608,-0.000763618 0.0007144,0 0.00152724,0.000104401 0.00244,0.000313203 0.00091127,0.000208802 0.00175692,0.000554816 0.00253694,0.00103357 0.000785989,0.000483227 0.00143477,0.00115288 0.00195677,0.0020209 0.000516038,0.000868018 0.000780023,0.0019344 0.000780023,0.00319168 0,0.00119763 -0.000263985,0.00269205 -0.000780023,0.00448924 -0.000522004,0.00179569 -0.0012364,0.00377334 -0.00214767,0.00593295 -0.000912762,0.00215364 -0.00197318,0.0044609 -0.00317528,0.00691581 -0.00120359,0.0024564 -0.00248921,0.00497246 -0.00385687,0.00754371 0.00169129,-0.00137362 0.00341689,-0.00249965 0.00516933,-0.00336767 0.00176288,-0.000868018 0.00345567,-0.00130203 0.00508134,-0.00130203 0.00247281,0 0.00442809,0.000823275 0.00586136,0.00247132 0.00143477,0.00164357 0.00214767,0.00390608 0.00214767,0.00678009 0,0.000422078 -1.64058e-005,0.000839681 -5.36919e-005,0.00125728 -2.83374e-005,0.000417603 -7.75549e-005,0.000808361 -0.000143178,0.00117078 -0.000132738,0.00137362 -0.000423569,0.00281286 -0.00087995,0.00431176 -0.000454889,0.00149442 -0.00102611,0.00300525 -0.00170173,0.00453249 -0.000687554,0.00152724 -0.00142283,0.00302613 -0.00219838,0.00449371 -0.000784498,0.00146609 -0.00153768,0.00286207 -0.00224611,0.00417454 -0.00104401,0.00185684 -0.00193887,0.0035377 -0.00268608,0.00503212 -0.000747212,0.00150039 -0.00112753,0.0026652 -0.00112753,0.00350489 0,0.000599559 0.000390757,0.000896356 0.00117078,0.000896356 0.000522004,0 0.00128562,-0.000417603 0.00229682,-0.00125878 0.00100971,-0.000835207 0.00209846,-0.00191203 0.00326775,-0.00323046 0.00117675,-0.00131843 0.00239525,-0.00278452 0.00366447,-0.00439975 0.00126922,-0.0016212 0.00246088,-0.00325283 0.00356603,-0.00490087 0.00110963,-0.00164208 0.00209846,-0.00320212 0.00297692,-0.00466821 0.000878459,-0.00146758 0.00151083,-0.00268161 0.00190606,-0.00363762 0.000450415,-0.00107682 0.00126325,-0.0016212 0.00244,-0.0016212 0.000718874,0 0.00135125,0.000198362 0.0019001,0.000589119 0.000554816,0.000389266 0.000829241,0.00091127 0.000829241,0.00157049 0,0.000120807 -2.68459e-005,0.000286357 -9.24693e-005,0.000495158 -6.71148e-005,0.000208802 -0.000132738,0.00037286 -0.000198362,0.000493667 -0.000653251,0.00119763 -0.00151083,0.00268161 -0.00258765,0.00444449 -0.00107085,0.00176885 -0.00230726,0.00363613 -0.00370772,0.00561378 -0.00140046,0.00197765 -0.00289489,0.0039553 -0.00449371,0.00592848 -0.00159286,0.00197765 -0.00323643,0.00375694 -0.00492772,0.00534532 -0.00169726,0.00158689 -0.00338408,0.00287848 -0.00508134,0.00386134 -0.00169279,0.000988825 -0.00331846,0.00148398 -0.0048785,0.00148398 -0.00130203,0 -0.00244447,-0.000253545 -0.00342286,-0.000763618 -0.000972419,-0.000505598 -0.00178525,-0.00120956 -0.00243403,-0.00211039 -0.000653251,-0.000894864 -0.00115885,-0.00194484 -0.0015153,-0.00314247 -0.00036242,-0.00119763 -0.00053841,-0.00245491 -0.00053841,-0.00377334 0,-0.00185684 0.000241613,-0.00373009 0.000730806,-0.00561527 0.000493667,-0.00188369 0.00110963,-0.00371369 0.00185684,-0.00548254 0.000747212,-0.00176288 0.00157645,-0.00347207 0.00249369,-0.00512012 0.000906796,-0.00164208 0.00175244,-0.00318572 0.00253843,-0.00462496 0.000905304,-0.00167489 0.0017077,-0.00314247 0.00238332,-0.00439975 0.000687554,-0.00125878 0.0010276,-0.00221479 0.0010276,-0.00287401 0,-0.000477261 -0.000356454,-0.000718874 -0.00107085,-0.000718874 -0.000720366,0 -0.00182403,0.000565256 -0.00332442,0.0017077 -0.00148846,0.00113797 -0.00309176,0.00257124 -0.00477858,0.00431325 -0.00169279,0.00173604 -0.00339004,0.00361973 -0.00507686,0.00565853 -0.00169726,0.00203134 -0.00309176,0.00394933 -0.00419691,0.00574503l0 -8.65036e-005 -0.00127369 0.0023341 0 -8.7995e-005c-6.71148e-005,6.11491e-005 -9.39608e-005,0.000114841 -9.39608e-005,0.00017599l0 9.39608e-005c-0.00183,0.00353173 -0.00330652,0.00660261 -0.00444449,0.00920666 -0.00113648,0.00260406 -0.00171367,0.00450415 -0.00171367,0.00570178 0,0.000417603 3.87775e-005,0.000659217 0.000104401,0.000720366l0 -8.7995e-005c0.000131247,0.00017599 0.00019687,0.000417603 0.00019687,0.0007144 0,0.000718874 -0.000460855,0.00135125 -0.00136765,0.00188966 -0.000917236,0.00053841 -0.00198809,0.000806869 -0.00322449,0.000806869 -0.0012364,0 -0.00247132,-0.000356454 -0.00370772,-0.00107682 -0.00124237,-0.000718874 -0.00221926,-0.00203731 -0.00293366,-0.0039553l9.39608e-005 9.39608e-005zm0.042773 -0.0427626c-6.71148e-005,0.000841173 -0.000329608,0.00148398 -0.000781515,0.0019344 -0.000460855,0.000444449 -0.00100971,0.000669657 -0.00165848,0.000669657 -0.000785989,0 -0.00158242,-0.000444449 -0.00239525,-0.00134528 -0.000812835,-0.00090083 -0.00122,-0.00227445 -0.00122,-0.00413129 0,-0.00209846 0.000489193,-0.00383449 0.00146161,-0.00521408 0.000984351,-0.00137362 0.00232963,-0.00245491 0.00405523,-0.00323046 0.00173007,-0.000780023 0.00377334,-0.00131843 0.00615219,-0.0016197 0.00237885,-0.000296797 0.00493369,-0.000445941 0.00766302,-0.000445941 0.00208205,0 0.00423122,6.11491e-005 0.00644452,0.00017599 0.0022133,0.000120807 0.00452056,0.000269951 0.00693222,0.000450415 0.000720366,-0.00167489 0.00131396,-0.00323493 0.00180763,-0.0046697 0.000489193,-0.00143924 0.000730806,-0.00245491 0.000730806,-0.00305298 0,-0.000122298 -3.28117e-005,-0.000208802 -9.84351e-005,-0.000269951 -0.000192396,-0.000120807 -0.000290831,-0.00036242 -0.000290831,-0.000720366 0,-0.000659217 0.000532444,-0.00124088 0.00160926,-0.00175244 0.00107682,-0.000510073 0.00235648,-0.000763618 0.00385687,-0.000763618 0.000784498,0 0.00163164,0.000104401 0.00253694,0.000313203 0.000912762,0.000208802 0.00176437,0.000572713 0.00253843,0.00108279 0.000785989,0.000505598 0.00143327,0.00118122 0.00195528,0.00201643 0.000522004,0.000839681 0.000780023,0.0019165 0.000780023,0.00323493 0,0.00156005 -0.000323643,0.00341689 -0.000972419,0.00557053l0.00263239 0c0.00241166,0 0.00475173,-5.96576e-005 0.00703662,-0.000180464 0.00227445,-0.000120807 0.00429087,-0.000296797 0.00604928,-0.00053841 0.00175692,-0.000237139 0.00317528,-0.00053841 0.0042521,-0.000896356 0.00107085,-0.00036242 0.00160926,-0.000812835 0.00160926,-0.00135125 0,-0.00143327 0.000681588,-0.00215364 0.00204924,-0.00215364 0.0007144,0 0.00152724,0.000374352 0.00243851,0.00112156 0.000912762,0.000751686 0.00136765,0.0016033 0.00136765,0.00255931 0,0.00102164 -0.000829241,0.00201046 -0.00248772,0.00296648 -0.00165997,0.000956013 -0.00387327,0.00179719 -0.00664139,0.00251606 -0.00276961,0.000720366 -0.00597173,0.00131843 -0.00961979,0.00179719 -0.0036421,0.000477261 -0.00744975,0.000780023 -0.0114215,0.000894864 -0.00143327,0.00323643 -0.00314247,0.00668016 -0.00513056,0.0103342 -0.00198362,0.00365254 -0.00391652,0.00727376 -0.0058017,0.0108666 -0.0014989,0.00269652 -0.00291726,0.00533339 -0.0042521,0.00790464 -0.00133484,0.00257572 -0.00253843,0.00494413 -0.00361525,0.00709777 -0.00107085,0.00215811 -0.0019165,0.0040597 -0.00253694,0.00570774 -0.000620439,0.00164208 -0.000923202,0.00291726 -0.000923202,0.00381809 0,0.000477261 9.39608e-005,0.0007144 0.000290831,0.0007144 0.000587628,0 0.00136765,-0.000401198 0.00234007,-0.00120956 0.000978385,-0.000812835 0.00205521,-0.00187325 0.00322449,-0.00319168 0.00117078,-0.00131843 0.00239078,-0.00278452 0.00366,-0.00439975 0.00127369,-0.00161523 0.00247132,-0.00325283 0.00361376,-0.00489491 0.00114244,-0.00164804 0.00214767,-0.00320809 0.00302762,-0.00467567 0.000878459,-0.00146609 0.00151083,-0.00270696 0.00190606,-0.00372413 0.000450415,-0.00107682 0.00126325,-0.0016212 0.00243851,-0.0016212 0.000720366,0 0.00135274,0.000198362 0.00190159,0.000589119 0.000554816,0.000389266 0.000829241,0.00091127 0.000829241,0.00157049 0,0.000120807 -2.68459e-005,0.000286357 -9.39608e-005,0.000495158 -6.56234e-005,0.000208802 -0.000131247,0.00037286 -0.00019687,0.000493667 -0.000654742,0.00119763 -0.00151083,0.00268161 -0.00258765,0.00444449 -0.00107085,0.00176885 -0.00230726,0.00363613 -0.00370772,0.00561378 -0.00140195,0.00197765 -0.00289638,0.0039553 -0.00449371,0.00592848 -0.00159435,0.00197765 -0.00323643,0.00375694 -0.00492772,0.00534532 -0.00169875,0.00158689 -0.00338408,0.00287848 -0.00508283,0.00386134 -0.00169129,0.000988825 -0.00331696,0.00148398 -0.00487701,0.00148398 -0.00253843,0 -0.00451012,-0.000824767 -0.00590611,-0.00246684 -0.00140046,-0.00164804 -0.00210442,-0.00391205 -0.00210442,-0.00678456 0,-0.000417603 2.23716e-005,-0.000824767 4.92175e-005,-0.00121403 3.87775e-005,-0.000390757 8.35207e-005,-0.000791955 0.000149144,-0.00120956 0.000192396,-0.00143924 0.000718874,-0.00331249 0.00156005,-0.00561378 0.000845647,-0.00230726 0.00188369,-0.00488447 0.00313053,-0.00773014 0.0012364,-0.00284567 0.00259958,-0.00584943 0.004094,-0.00902471 0.0014989,-0.00317528 0.00299929,-0.00635055 0.00449819,-0.00952136l0.00429087 -0.00898742c-0.00318572,0 -0.0061865,4.92175e-005 -0.00898146,0.000137213 -0.00279645,8.7995e-005 -0.00522452,0.000296797 -0.00727972,0.000626405 -0.00204327,0.000329608 -0.00368535,0.000824767 -0.00492175,0.00148398 -0.0012364,0.000659217 -0.00189562,0.00156005 -0.00195528,0.00269652l0 8.7995e-005z"/>
 </g>
</svg>
