<?xml version="1.0" encoding="UTF-8"?>
<!DOCTYPE svg PUBLIC "-//W3C//DTD SVG 1.1//EN" "http://www.w3.org/Graphics/SVG/1.1/DTD/svg11.dtd">
<!-- Creator: CorelDRAW -->
<svg xmlns="http://www.w3.org/2000/svg" xml:space="preserve" width="1in" height="2in" style="shape-rendering:geometricPrecision; text-rendering:geometricPrecision; image-rendering:optimizeQuality; fill-rule:evenodd; clip-rule:evenodd"
viewBox="0 0 0.369114 0.52524"
 xmlns:xlink="http://www.w3.org/1999/xlink">
 <defs>
  <style type="text/css">
   <![CDATA[
    .fil0 {fill:#DA251D}
   ]]>
  </style>
 </defs>
 <g id="Layer_x0020_1">
  <metadata id="CorelCorpID_0Corel-Layer"/>
  <path class="fil0" d="M0.180456 0.52524c-0.0316979,-0.0205064 -0.0633958,-0.0410128 -0.0950242,-0.0614496 -0.0104271,-0.00785466 -0.015919,-0.0110524 -0.0194637,-0.0234258 -0.000347898,-0.0617975 -0.000694816,-0.123594 -0.000973134,-0.18539 -0.0206455,-0.0463655 -0.0412215,-0.092731 -0.0617975,-0.139027 -0.00111229,-0.00326632 -0.00215403,-0.00653362 -0.00319674,-0.00973134 0.0164051,0.00715984 0.0164051,0.00715984 0.0787572,0.0383707 0.00118187,-0.0286394 0.00236375,-0.0572091 0.0036152,-0.0857789 0.000417478,-0.00118089 0.000903555,-0.00229319 0.00139061,-0.00340548 0.045114,0.049771 0.045114,0.049771 0.0487283,0.0526208 0.0170999,-0.0360079 0.0341998,-0.0720149 0.0513007,-0.108023 0.0464341,0.0984306 0.0501189,0.104825 0.0509528,0.107885 0.00159935,-0.000347898 0.00159935,-0.000347898 0.0213404,-0.021063 0.00945401,-0.0110524 0.0193245,-0.0208543 0.0287089,-0.0314196 0.00319772,0.0864041 0.00319772,0.0864041 0.00396212,0.0901585 0.0800097,-0.0389969 0.0800097,-0.0389969 0.0803576,-0.0383021 -0.0222449,0.0495622 -0.0444192,0.0991255 -0.0665936,0.148688 -0.000347898,0.0620758 -0.000694816,0.124151 -0.000973134,0.186295 -0.00570063,0.0217578 -0.029196,0.0234258 -0.043793,0.0380238 -0.0480344,0.0307944 -0.0480344,0.0307944 -0.0674285,0.0422642 -6.95796e-005,0.000555657 -0.000139159,0.00111131 -0.000208739,0.00173753 -0.00326632,0.000278318 -0.00646404,0.000625236 -0.00966176,0.000973134zm0.00284982 -0.0144588c0,-0.081122 0,-0.162243 0,-0.243295 -0.0351034,-0.000346918 -0.0701382,-0.000694816 -0.105173,-0.000973134 0,-0.00486567 0,-0.00973134 0,-0.0145274 0.0350348,0 0.0700696,0 0.105173,0 0,-0.00451875 0,-0.00903751 0,-0.0134867 -0.0371202,-0.000277338 -0.0742395,-0.000555657 -0.11129,-0.000764396 -0.0152232,-0.0341998 -0.0304465,-0.0684007 -0.0456001,-0.102531 6.95796e-005,-0.000626216 0.000139159,-0.00118187 0.000208739,-0.00173851 0.0214099,0.010775 0.0428199,0.0215491 0.0642298,0.0323241 0.00319772,-0.0750049 0.00319772,-0.0750049 0.00417086,-0.0788974 0.0308639,0.0347565 0.0308639,0.0347565 0.0405257,0.0444182 0.0160572,-0.033505 0.0321144,-0.0669405 0.0482422,-0.100376 0.000139159,0.0318371 0.000277338,0.0636732 0.000486077,0.0955798 0.0100792,0.00152879 0.0177957,0.00354562 0.0262766,0.00938443 6.95796e-005,0.000694816 0.000138179,0.00138963 0.000277338,0.00215501 -0.00917569,0.00917569 -0.0130682,0.0192549 -0.0149449,0.0319067 -0.00389254,0 -0.00778508,0 -0.011609,0 0,0.00257151 0,0.00514399 0,0.0077155 0.00382394,0 0.00771648,0 0.011609,0 0.00145921,0.0098705 0.00417086,0.0173087 0.00917569,0.0260669 0.00576923,0.00674334 0.00576923,0.00674334 0.00625628,0.00868961 -0.00910611,0.00528315 -0.0168226,0.00743816 -0.027041,0.00868863 0,0.00542231 0,0.0109142 0,0.0164051 0.0369811,0.000278318 0.0740317,0.000626216 0.111081,0.000973134 -0.00194529,0.00479707 -0.00389156,0.00959317 -0.00583881,0.0144588 -0.0351044,0 -0.0702078,0 -0.105243,0 0,0.00451875 0,0.00903751 0,0.0135553 0.0350348,0 0.0701382,0 0.105243,0 -0.000208739,0.0572787 -0.000347898,0.114557 -0.000486077,0.171836 -0.000695796,0.00187669 -0.00132103,0.00382296 -0.00194627,0.00576923 -0.0327416,0.0230789 -0.0670806,0.044627 -0.100864,0.0661761 -0.000973134,0.000140139 -0.00194627,0.000278318 -0.0029194,0.000487057zm0.00966274 -0.0173782c0,-0.070834 0,-0.141667 0,-0.212431 0.0125126,0 0.0250937,0 0.0376759,0 0.000139159,0.0183514 0.000278318,0.0367028 0.000486077,0.0550541 0.00319772,-0.00583881 0.00639544,-0.011609 0.00966274,-0.0173782 0.000139159,-0.0125821 0.000278318,-0.0251633 0.000487057,-0.0376759 0.0123028,0.000208739 0.0246067,0.000416498 0.0369105,0.000694816 6.95796e-005,0.0158494 0.000139159,0.0316979 0.000208739,0.0475474 -0.0061867,0.011122 -0.0177947,0.026206 -0.019741,0.038649 0.0125116,0.00722942 0.0125116,0.00722942 0.0195323,0.0123038 6.95796e-005,0.0190462 0.000139159,0.0380934 0.000208739,0.0572091 -0.00215501,0.00215501 -0.00215501,0.00215501 -0.0364244,0.0238433 -0.000417478,-0.0198811 -0.000833975,-0.0397623 -0.00118187,-0.0595729 -0.00319772,-0.00222459 -0.00632586,-0.00437959 -0.00945401,-0.0065346 -0.000278318,0.0250251 -0.000486077,0.0500493 -0.000694816,0.0750744 -0.0308639,0.0188375 -0.0328102,0.0207837 -0.0376759,0.023217zm0.011609 -0.0222439c0,-0.059225 0,-0.11845 0,-0.177605 0.00423946,-0.000139159 0.00847989,-0.000208739 0.0127899,-0.000278318 0,0.0567917 0,0.113584 0,0.170376 -0.00431002,0.00250291 -0.00855045,0.00500483 -0.0127899,0.00750774zm-0.0434461 -0.00194627c-0.0198116,-0.0127909 -0.0395526,-0.0255112 -0.0592946,-0.0382325 -0.000208739,-0.0110524 -0.000417478,-0.0221048 -0.000556637,-0.0331571 0.00709026,0.00340548 0.00875919,0.00521259 0.0128605,0.007299 0.000556637,0.00604657 0.00111229,0.0120951 0.00166795,0.0182112 0.0110534,0.00716082 0.0221057,0.0143207 0.0331581,0.0214795 -0.000208739,-0.0191148 -0.000417478,-0.038162 -0.000555657,-0.0572082 -0.0155721,-0.0101498 -0.0311423,-0.020229 -0.0467134,-0.0303083 -0.000139159,-0.0216187 -0.000278318,-0.0431678 -0.000417478,-0.0647169 0.020576,0 0.0411519,0 0.0617975,0 -0.000208739,0.0119569 -0.000417478,0.0239824 -0.000625236,0.0360089 -0.00431002,0.000207759 -0.00862003,0.000416498 -0.01293,0.000625236 -0.000139159,-0.00736858 -0.000208739,-0.0146676 -0.000277338,-0.0219666 -0.0114699,-0.000346918 -0.0228701,-0.000694816 -0.0342704,-0.000973134 6.95796e-005,0.0143893 0.000208739,0.0287785 0.000347898,0.0431678 0.0157093,0.0101488 0.0314196,0.0203672 0.0471299,0.0305856 0.000207759,0.0296821 0.000416498,0.0594337 0.000625236,0.0891854 -0.000694816,0 -0.00132005,0 -0.00194627,0zm0.0916873 -0.0298908c-0.000208739,-0.0148067 -0.000347898,-0.0296125 -0.000486077,-0.0444182 -0.00820255,-0.00625726 -0.00820255,-0.00625726 -0.0277358,-0.0191168 -6.95796e-005,-0.000764396 -0.000139159,-0.00145921 -0.000208739,-0.00215403 0.00931485,-0.0171009 0.0186297,-0.0341312 0.0279445,-0.0511626 0.000138179,-0.00966176 0.000277338,-0.0193245 0.000486077,-0.0289167 0.00451875,0 0.00903653,0 0.0135553,0 -0.000208739,0.0109132 -0.000347898,0.0218264 -0.000487057,0.0328102 -0.0077155,0.0141109 -0.015431,0.0282915 -0.0231475,0.042472 0,0.000625236 0,0.00125145 0,0.00194627 0.00528315,0.00431002 0.0120255,0.00820255 0.0228701,0.0161268 0.000207759,0.0148763 0.000486077,0.0297516 0.000764396,0.0446975 -0.011609,0.00722844 -0.011609,0.00722844 -0.0135553,0.0077155zm-0.0772285 -0.219174c-0.00583881,-0.00201683 -0.0143893,-0.00417184 -0.0180045,-0.00959317 0.00813297,-0.00938443 0.0135553,-0.0193245 0.0151546,-0.0319067 0.00347506,0 0.00702068,0 0.0105653,0 0,0.0138326 0,0.0276662 0,0.0414998 -0.00257151,0 -0.00514399,0 -0.0077155,0zm0.0415684 -0.0144588c-0.00785466,-0.00841129 -0.0115394,-0.015919 -0.0135553,-0.027041 0.00868961,0 0.0173782,0 0.0260679,0 -0.00264206,0.0114003 -0.00451875,0.0182122 -0.0125126,0.027041zm-0.0676363 -0.000974114c-0.00583881,-0.00820157 -0.00882779,-0.0164041 -0.0105653,-0.0260669 0.00799381,0 0.0160572,0 0.0241206,0 -0.00166795,0.0102184 -0.00542231,0.0192549 -0.0135553,0.0260669zm0.054081 -0.0347555c0.00305856,-0.0126517 0.00528315,-0.0183514 0.0139728,-0.0278054 0.007299,0.00813297 0.00994008,0.0173087 0.0120951,0.0278054 -0.00868961,0 -0.0173782,0 -0.0260679,0zm-0.0646463 -0.000974114c0.00138963,-0.00889737 0.00458735,-0.0196018 0.0110524,-0.0260669 0.00813297,0.00757732 0.0100792,0.0149449 0.0136249,0.0251633 -0.00827311,0.000278318 -0.0164747,0.000556637 -0.0246772,0.000903555zm0.0337833 0c-0.00229417,-0.0135543 -0.00722942,-0.0209925 -0.0151546,-0.0323232 0.00535273,-0.0069511 0.0173782,-0.00875821 0.02572,-0.00917569 0,0.0138336 0,0.0276662 0,0.0414988 -0.00354464,0 -0.00709026,0 -0.0105653,0z"/>
 </g>
</svg>
