<?xml version="1.0" encoding="UTF-8"?>
<!DOCTYPE svg PUBLIC "-//W3C//DTD SVG 1.1//EN" "http://www.w3.org/Graphics/SVG/1.1/DTD/svg11.dtd">
<!-- Creator: CorelDRAW -->
<svg xmlns="http://www.w3.org/2000/svg" xml:space="preserve" width="25in" height="39in" style="shape-rendering:geometricPrecision; text-rendering:geometricPrecision; image-rendering:optimizeQuality; fill-rule:evenodd; clip-rule:evenodd"
viewBox="0 0 0.327598 0.69448"
 xmlns:xlink="http://www.w3.org/1999/xlink">
 <defs>
  <style type="text/css">
   <![CDATA[
    .fil0 {fill:black}
   ]]>
  </style>
 </defs>
 <g id="Layer_x0020_1">
  <metadata id="CorelCorpID_0Corel-Layer"/>
  <path class="fil0" d="M0.181735 0.075701c-0.0858243,0.0372914 -0.037249,0.131423 0.0230067,0.115969 0.080721,-0.0206991 0.0320855,-0.139909 -0.0230067,-0.115969zm0.0675997 0.190847l0.00679715 -0.0130229 0.0455144 0.135486 -0.016483 0.0103024 -0.0793143 -0.11547 -0.00524278 0.00412997 0.00293513 0.00163504 0.0457933 -0.0230614zm-0.0463675 0.18316c0.0129764,0 0.119641,-0.0434679 0.119839,-0.0437222 0.017321,-0.0223997 -0.0171228,-0.118757 -0.0263342,-0.13731 -0.0666632,-0.134286 -0.181712,-0.0160933 -0.180607,-0.144891 0.000564607,-0.065534 0.0615134,-0.076133 0.0733032,-0.0990755 0.0332544,-0.0647206 -0.0719279,0.0166689 -0.0816451,0.0296166 -0.0291244,0.0388116 -0.0301429,0.0915128 -0.00554764,0.134633 0.0359735,0.063061 -0.0157461,0.0957904 0.0608873,0.0939612l0 0.00505412 -0.0259965 0.00741918 0.0100194 0.0049926 -0.059769 0.141616 0.0498262 0.00748206 0.0660248 0.000222835zm-0.0141575 0.240073c0.0404917,0 0.0188644,-0.104292 0.0165144,-0.106136l-0.0316248 0.104112c0.00481625,0.00279979 -0.00334253,0.00202466 0.00567478,0.00202466l0.00943563 0zm0.0495418 -0.227437c0.00925381,-0.0122846 -0.0522432,0.00280936 -0.0577963,0.00884095 -0.00578414,0.0062845 -0.0183531,0.0542679 -0.0225843,0.0667876 -0.00750667,0.0222275 -0.0424795,0.11937 -0.0341033,0.137645 0.0435923,0.0951041 0.101225,-0.195672 0.114484,-0.213274zm-0.230365 0.0465971c0.00115792,-0.00492014 0.00275878,-0.0096735 0.00480394,-0.0142614 0.00204379,-0.00458794 0.00433913,-0.0085771 0.00688601,-0.0119675 0.00254688,-0.00339037 0.00528652,-0.00611634 0.00821756,-0.00817791 0.0029324,-0.00206157 0.0058648,-0.00309235 0.0087972,-0.00309235 0.00123448,0 0.00258516,0.000166785 0.00405068,0.000498987 0.00146688,0.000332202 0.0028367,0.00106359 0.00410946,0.00219417 0.00127412,0.00113058 0.00233498,0.00275878 0.00318258,0.00488733 0.000848961,0.00212719 0.00127412,0.00498576 0.00127412,0.00857573 0,0.00345736 -0.000406025,0.00668232 -0.00121534,0.00967487 -0.000810682,0.00299119 -0.00187154,0.00448814 -0.00318258,0.00448814 -0.000617923,0 -0.0011962,-0.000333569 -0.00173757,-0.000997973l0.000116202 0c-0.00192896,-0.00225979 -0.00385792,-0.00382237 -0.00578688,-0.00468774 -0.00192896,-0.000863999 -0.00381964,-0.001296 -0.00567204,-0.001296 -0.00231448,0 -0.00447584,0.000664404 -0.00648136,0.00199458 -0.00200688,0.00133018 -0.00376222,0.00305817 -0.00526602,0.00518673 -0.00150516,0.00212719 -0.00268222,0.00452095 -0.00353118,0.00717994 -0.000848961,0.00265898 -0.00127276,0.00538495 -0.00127276,0.00817791 0,0.00199458 0.000654834,0.00335756 0.00196724,0.00408896 0.0013124,0.000731391 0.00297068,0.00109777 0.00497756,0.00109777 0.00254688,0 0.00538222,-0.000466176 0.00850738,-0.00139716 0.00312516,-0.000930986 0.00619153,-0.00202739 0.00920186,-0.00329058 0.00300896,-0.00126319 0.00572946,-0.00252638 0.00816014,-0.00378956 0.00243068,-0.00126319 0.0042243,-0.00222835 0.00538222,-0.00289275 0.00555584,-0.00332475 0.0112265,-0.00641574 0.0170148,-0.00927431 0.00578688,-0.00285994 0.0114589,-0.00428855 0.0170148,-0.00428855 0.00246896,0 0.00495842,0.000397822 0.00746566,0.0011962 0.00250724,0.000798378 0.0048805,0.00186197 0.00711842,0.00319215 0.0029324,0.00199458 0.00567204,0.00501857 0.00821756,0.00907472 0.00254688,0.00405615 0.00474652,0.00884232 0.00659756,0.0143612 0.0018524,0.00551893 0.00331929,0.0116025 0.00439928,0.0182506 0.00108,0.00664951 0.00162,0.0135642 0.00162,0.0207442 0,0.0094411 -0.000444303,0.018483 -0.00133018,0.0271271 -0.000888606,0.00864272 -0.0023924,0.016256 -0.00451549,0.0228385 -0.00212172,0.00658252 -0.00493792,0.0118007 -0.00844996,0.0156572 -0.00350931,0.00385655 -0.00792773,0.00578414 -0.0132525,0.00578414 -0.00401103,0 -0.00783204,-0.00126319 -0.0114589,-0.00378956 -0.00362688,-0.00252638 -0.00679032,-0.00585113 -0.00949031,-0.0099729 -0.00270136,-0.00412177 -0.00486136,-0.00884232 -0.00648272,-0.0141616 -0.00162,-0.00531933 -0.00242931,-0.0108369 -0.00242931,-0.0165554 0,-0.00385655 0.000404658,-0.0080453 0.00121397,-0.0125663 0.000810682,-0.00452095 0.00200688,-0.00874252 0.0035886,-0.0126661 0.00158172,-0.00392217 0.00353118,-0.00717994 0.00584566,-0.0097733 0.00231448,-0.00259336 0.00497619,-0.00388936 0.00798652,-0.00388936 0.00100207,0 0.0020643,0.000132607 0.00318258,0.000399189 0.00111964,0.000265215 0.00216136,0.000896809 0.00312516,0.00189478 0.000963796,0.000996606 0.00175534,0.00245939 0.00237326,0.00438835 0.000616556,0.00192759 0.000925518,0.00448814 0.000925518,0.00767892 0,0.00186197 -0.000116202,0.00368977 -0.00034724,0.00548475 -0.000232405,0.00179498 -0.000578278,0.00342455 -0.00104172,0.00488733 -0.000463442,0.00146278 -0.000984302,0.00265898 -0.00156258,0.00358997 -0.000578278,0.000930986 -0.00121534,0.00139716 -0.00190982,0.00139716 -0.000154481,0 -0.000404658,-6.69872e-005 -0.000751898,-0.000199595 -0.00034724,-0.000133974 -0.000675341,-0.000333569 -0.000984302,-0.000598784 -0.00216,-0.00186197 -0.00420516,-0.00279296 -0.00613412,-0.00279296 -0.00270136,0 -0.00484222,0.00142997 -0.00642394,0.00428855 -0.00158172,0.00285858 -0.00237326,0.00601791 -0.00237326,0.00947528 0,0.00398916 0.000635695,0.00784434 0.00190982,0.0115683 0.00127276,0.00372258 0.00297068,0.00708014 0.0050924,0.0100727 0.00212309,0.00299255 0.00459068,0.00538495 0.00740824,0.00718131 0.0028162,0.00179498 0.00572946,0.00269179 0.00873842,0.00269179 0.00316344,0 0.0059605,-0.0010964 0.00839118,-0.00329058 0.00243068,-0.00219417 0.00451549,-0.00515255 0.00625169,-0.00887649 0.0017362,-0.00372258 0.00304724,-0.00801113 0.00393447,-0.0128657 0.000887239,-0.00485316 0.00133154,-0.0100057 0.00133154,-0.0154576 0,-0.00837751 -0.000753265,-0.0155588 -0.00225706,-0.0215425 -0.00150516,-0.00598374 -0.00352982,-0.0109367 -0.0060767,-0.0148589 -0.00254688,-0.00392354 -0.00549842,-0.00681493 -0.00885462,-0.0086769 -0.0033562,-0.00186197 -0.00684774,-0.00279296 -0.0104746,-0.00279296 -0.0053248,0 -0.0106687,0.00133018 -0.0160318,0.00398916 -0.00536308,0.00266035 -0.010707,0.00558592 -0.0160305,0.00877669 -0.00517032,0.00305817 -0.0102819,0.00585113 -0.015336,0.00837751 -0.00505412,0.00252638 -0.00989634,0.00378956 -0.0145267,0.00378956 -0.00285584,0 -0.00547928,-0.000664404 -0.00787168,-0.00199458 -0.00239103,-0.00133018 -0.00447447,-0.00335756 -0.00624895,-0.00608353 -0.00177448,-0.00272597 -0.00316481,-0.00608353 -0.00416825,-0.0100727 -0.00100207,-0.00398916 -0.0015038,-0.00864409 -0.0015038,-0.0139621 0,-0.00345736 0.00017362,-0.0068491 0.00052086,-0.0101725 0.00034724,-0.00332475 0.0008681,-0.00638293 0.00156258,-0.00917588zm0.0497715 -0.0979367c0.00131104,0.00106359 0.00306637,0.00262617 0.00526602,0.00468774 0.00219964,0.00206157 0.00457154,0.00448814 0.00711842,0.00727974 0.00254551,0.00279296 0.0051129,0.00585113 0.0076967,0.00917588 0.00258516,0.00332475 0.00493928,0.00674794 0.007061,0.0102723 0.00212172,0.00352435 0.00385792,0.00708151 0.0052086,0.0106715 0.00135068,0.00358997 0.00202602,0.00704733 0.00202602,0.0103721 0,0.00518536 -0.00106086,0.00920869 -0.00318394,0.0120673 -0.00212172,0.00285858 -0.00503498,0.00428855 -0.00873842,0.00428855 -0.000462075,0 -0.000984302,-3.28101e-005 -0.00156258,-9.97973e-005 -0.000578278,-6.69872e-005 -0.0011005,-0.000166785 -0.00156258,-0.000299392 -0.00208344,-0.000664404 -0.00470688,-0.00196177 -0.00787168,-0.00388936 -0.00316344,-0.00192759 -0.00663584,-0.00415594 -0.0104158,-0.00668232 -0.00378136,-0.00252638 -0.0077172,-0.00528516 -0.0118062,-0.00827771 -0.00409032,-0.00299119 -0.00806444,-0.00595093 -0.0119224,-0.00887649 -0.0034724,-0.00265898 -0.0068491,-0.00521817 -0.0101274,-0.00767892 -0.00327964,-0.00245939 -0.00628996,-0.00465356 -0.00902961,-0.00658252 -0.00273827,-0.00192759 -0.0050924,-0.00345736 -0.00705963,-0.00458658 -0.00196724,-0.00113058 -0.00341498,-0.00169655 -0.0043405,-0.00169655l-0.000116202 0c-0.000231038,0.000533164 -0.000616556,0.000798378 -0.00115656,0.000798378 -0.000848961,0 -0.00160223,-0.0010964 -0.00225706,-0.00329058 -0.000656201,-0.00219417 -0.000984302,-0.00482035 -0.000984302,-0.00787852 0,-0.00159676 0.000135342,-0.00332475 0.000404658,-0.00518673 0.000270683,-0.00186197 0.000732758,-0.00358997 0.00138896,-0.00518536 0.000656201,-0.00159676 0.00154344,-0.00292556 0.00266308,-0.00398916 0.00111828,-0.00106496 0.00252638,-0.00159676 0.0042243,-0.00159676 0.00200552,0 0.00462895,0.000898176 0.00787032,0.00269316 0.00324136,0.00179498 0.00680946,0.00415594 0.010707,0.00708151 0.0038962,0.0029242 0.00798652,0.00614915 0.0122682,0.0096735 0.00428308,0.00352298 0.00847047,0.00708014 0.0125594,0.0106715 0.00339584,0.00292556 0.00671376,0.00575133 0.00995376,0.0084773 0.00324136,0.00272597 0.00625032,0.00515255 0.00902824,0.00727974 0.00277929,0.00212719 0.00522911,0.00385655 0.00735082,0.00518536 0.00212172,0.00133018 0.00376222,0.00199458 0.00491878,0.00199458 0.000617923,0 0.000925518,-0.000198228 0.000925518,-0.000597417 0,-0.00119757 -0.00052086,-0.00279296 -0.00156258,-0.00478754 -0.00104172,-0.00199458 -0.00241154,-0.00418875 -0.00410809,-0.00658252 -0.00169792,-0.00239377 -0.0035886,-0.00488597 -0.00567204,-0.00747933 -0.00208344,-0.00259336 -0.00418602,-0.00505275 -0.00630774,-0.00737953 -0.00212172,-0.00232815 -0.0041286,-0.00438835 -0.00601928,-0.00618333 -0.00189068,-0.00179635 -0.00349154,-0.00309235 -0.00480394,-0.00389073 -0.00138896,-0.000929619 -0.00208344,-0.002592 -0.00208344,-0.00498576 0,-0.00146278 0.000251544,-0.00275878 0.000753265,-0.00388936 0.000500354,-0.00113058 0.00117569,-0.00169519 0.00202466,-0.00169519 0.000154481,0 0.000366379,6.56201e-005 0.000637062,0.000198228 0.000269316,0.000133974 0.000481214,0.000266582 0.000637062,0.000399189zm-0.0144692 -0.0566466c0.000385518,0 0.000732758,3.28101e-005 0.00104172,9.84302e-005 0.000308962,6.69872e-005 0.000617923,0.000166785 0.000925518,0.000299392 -0.00123448,-0.000930986 -0.00233362,-0.00166238 -0.00329878,-0.00219417 -0.000963796,-0.000531797 -0.00175534,-0.000797011 -0.00237189,-0.000797011 -0.000154481,0 -0.000385518,0.000132607 -0.00069448,0.000399189 -0.000154481,0.000265215 -0.000289822,0.000464809 -0.000406025,0.000597417 -0.000114835,0.000133974 -0.000366379,0.000199595 -0.000751898,0.000199595 -0.000848961,0 -0.00160086,-0.0010964 -0.00225706,-0.00329058 -0.000656201,-0.00219417 -0.000984302,-0.00482035 -0.000984302,-0.00787852 0,-0.00172936 0.000154481,-0.00352435 0.000463442,-0.00538632 0.000308962,-0.00186197 0.000810682,-0.00358997 0.00150516,-0.00518536 0.00069448,-0.00159539 0.00165828,-0.00292556 0.00289275,-0.00398916 0.00123585,-0.00106359 0.00277792,-0.00159676 0.00463032,-0.00159676 0.00169792,0 0.00360774,0.000565974 0.00572946,0.00169655 0.00212309,0.00112921 0.0043405,0.002592 0.00665498,0.00438835 0.00231584,0.00179498 0.00461118,0.00375539 0.00688738,0.00588394 0.0022762,0.00212719 0.0044567,0.00418875 0.00654014,0.00618333 0.0029324,0.00279159 0.00567204,0.00531797 0.00821756,0.00757913 0.00254688,0.00226116 0.00439792,0.00339037 0.00555584,0.00339037 0.000463442,0 0.00069448,-0.000464809 0.00069448,-0.0013958 0,-0.00106359 -0.000500354,-0.00259336 -0.0015038,-0.00458794 -0.00100344,-0.00199458 -0.00233498,-0.00422156 -0.00399463,-0.00668232 -0.00165828,-0.00245939 -0.00350931,-0.00498576 -0.00555447,-0.00757913 -0.00204516,-0.00259336 -0.0041286,-0.00505275 -0.00625169,-0.00737953 -0.00212172,-0.00232678 -0.00416551,-0.00442116 -0.00613412,-0.00628313 -0.00196724,-0.00186197 -0.00364602,-0.00325777 -0.00503498,-0.00418875 -0.00138896,-0.000930986 -0.00208344,-0.00259336 -0.00208344,-0.00498713 0,-0.00146278 0.000251544,-0.00275878 0.000753265,-0.00388936 0.000500354,-0.00113058 0.00117569,-0.00169519 0.00202466,-0.00169519 0.000154481,0 0.000366379,6.69872e-005 0.000637062,0.000199595 0.000269316,0.000132607 0.000481214,0.000265215 0.000637062,0.000399189 0.00154207,0.00132881 0.00345326,0.00309098 0.00572809,0.00528516 0.00227757,0.00219417 0.00468774,0.00472055 0.00723462,0.00757913 0.00254688,0.00285994 0.00509376,0.00591812 0.00763928,0.00917588 0.00254688,0.00325777 0.00484222,0.00661533 0.00688738,0.0100727 0.00204516,0.00345736 0.00370344,0.00691472 0.00497756,0.0103721 0.00127276,0.00345736 0.00190982,0.00678212 0.00190982,0.0099729 0,0.00465493 -0.000887239,0.00841032 -0.00266308,0.0112703 -0.00177448,0.00285858 -0.00420516,0.00455376 -0.00729067,0.00508556 0.00293103,0.00372394 0.00532343,0.00777872 0.00717584,0.0121671 0.00185104,0.00438835 0.00277792,0.00937548 0.00277792,0.01496 0,0.00505275 -0.00052086,0.00937411 -0.00156258,0.0129654 -0.00104309,0.00358997 -0.00237326,0.00648272 -0.00399326,0.0086769 -0.00162136,0.00219281 -0.00343412,0.00378956 -0.005441,0.00478617 -0.00200688,0.000997973 -0.00397412,0.00149559 -0.00590308,0.00149559 -0.00246896,0 -0.00503361,-0.000597417 -0.0076967,-0.00179498 -0.00266172,-0.0011962 -0.00515118,-0.002592 -0.00746566,-0.00418875 -0.00902824,-0.00651553 -0.0155875,-0.0142614 -0.0196765,-0.0232364 -0.00409032,-0.00897629 -0.00613548,-0.0182506 -0.00613548,-0.0278257 0,-0.00159539 0.000116202,-0.00349017 0.00034724,-0.00568435 0.000231038,-0.00219417 0.00069448,-0.00428855 0.00138896,-0.00628313 0.00069448,-0.00199458 0.00162136,-0.00368977 0.00277792,-0.00508556 0.00115792,-0.00139716 0.00266308,-0.00209438 0.00451412,-0.00209438zm0.00115792 0.0163558c-0.00138896,0 -0.00246896,-0.000798378 -0.00324136,-0.00239377l0 0.000399189c0,0.00332339 0.0018524,0.00747933 0.00555584,0.0124651 0.00370344,0.00498713 0.00895168,0.0102067 0.015742,0.0156586 0.00223792,0.00186197 0.0046686,0.00332475 0.00729204,0.00438835 0.00262344,0.00106359 0.00505412,0.00159539 0.00729204,0.00159539 0.00200688,0 0.00376222,-0.000498987 0.00526602,-0.00149559 0.00150516,-0.000997973 0.00225706,-0.00262617 0.00225706,-0.00488733 0,-0.00199458 -0.000675341,-0.00412177 -0.00202466,-0.00638293 -0.00135068,-0.00225979 -0.00308688,-0.00458794 -0.0052086,-0.00698034 -0.00212172,-0.00239377 -0.00449498,-0.00478754 -0.00711842,-0.00718131 -0.00262481,-0.00239377 -0.00517032,-0.00472055 -0.00763928,-0.00698171l0.000114835 0c-0.000925518,-0.000797011 -0.0018319,-0.00159539 -0.00271913,-0.0023924 -0.000887239,-0.000798378 -0.00175671,-0.00159676 -0.00260567,-0.00239377l0.000116202 0 -0.00486136 -0.00378956 -0.00625032 -0.00478754c0.000848961,0.000664404 0.00144638,0.0016282 0.00179498,0.00289275 0.00034724,0.00126319 0.00052086,0.00262617 0.00052086,0.00408896 0,0.00212719 -0.000386885,0.00402197 -0.00115792,0.00568435 -0.000771037,0.00166238 -0.00181276,0.00249357 -0.00312516,0.00249357zm0.0733838 -0.0263287c-0.00138896,0 -0.00264395,-0.000665771 -0.00376222,-0.00199458 -0.00111964,-0.00133018 -0.00216136,-0.00309235 -0.00312516,-0.00528652 -0.000963796,-0.00219417 -0.00187154,-0.00468774 -0.00271913,-0.00747933 -0.000848961,-0.00279296 -0.00165964,-0.00558455 -0.00243068,-0.00837751 -0.000772404,-0.00279296 -0.00160223,-0.00561873 -0.00248946,-0.0084773 -0.000887239,-0.00285858 -0.00179498,-0.00528516 -0.0027205,-0.00727974 -0.00177448,-0.00106496 -0.00379913,-0.00242795 -0.0060767,-0.00408896 -0.0022762,-0.00166238 -0.0047643,-0.00355716 -0.00746566,-0.00568571 0.00154344,0.00305817 0.00277792,0.00611771 0.00370344,0.00917588 0.000926885,0.00305817 0.00139033,0.00605072 0.00139033,0.00897492 0,0.00505412 -0.0011005,0.00894348 -0.00329878,0.0116694 -0.00219964,0.00272597 -0.00507326,0.00408896 -0.00862358,0.00408896 -0.00192896,0 -0.00405068,-0.000466176 -0.00636515,-0.0013958 -0.00231584,-0.000930986 -0.00468911,-0.00216136 -0.00711979,-0.00369113 -0.00242931,-0.0015284 -0.00485999,-0.00319078 -0.00729204,-0.00498576 -0.00243068,-0.00179498 -0.00472602,-0.00355716 -0.00688738,-0.00528652 -0.00277655,-0.00212719 -0.00536171,-0.00405478 -0.00775411,-0.00578414 -0.0023924,-0.001728 -0.0041286,-0.00259336 -0.0052086,-0.00259336 -0.000154481,0 -0.000385518,0.000133974 -0.00069448,0.000399189 -0.000154481,0.000266582 -0.000289822,0.000466176 -0.000406025,0.000598784 -0.000114835,0.000132607 -0.000366379,0.000199595 -0.000751898,0.000199595 -0.000848961,0 -0.00160086,-0.00109777 -0.00225706,-0.00329194 -0.000656201,-0.00219417 -0.000984302,-0.00482035 -0.000984302,-0.00787852 0,-0.001728 0.000154481,-0.00352298 0.000463442,-0.00538495 0.000308962,-0.00186197 0.000810682,-0.00358997 0.00150516,-0.00518673 0.00069448,-0.00159539 0.00165828,-0.00292556 0.00289275,-0.00398916 0.00123585,-0.00106359 0.00277792,-0.00159539 0.00463032,-0.00159539 0.00169792,0 0.00360774,0.000564607 0.00572946,0.00169519 0.00212309,0.00113058 0.0043405,0.00259336 0.00665498,0.00438835 0.00231584,0.00179498 0.00461118,0.00375675 0.00688738,0.00588394 0.0022762,0.00212855 0.0044567,0.00418875 0.00654014,0.00618333 0.0029324,0.00279296 0.00567204,0.00531933 0.00821756,0.00758049 0.00254688,0.00225979 0.00439792,0.00339037 0.00555584,0.00339037 0.000463442,0 0.00069448,-0.000466176 0.00069448,-0.0013958 0,-0.00146278 -0.000847594,-0.00362415 -0.00254551,-0.00648272 -0.00169792,-0.00285994 -0.00380187,-0.00595093 -0.0063091,-0.00927568 -0.00250724,-0.00332339 -0.00522774,-0.00661533 -0.00816014,-0.0098731 -0.0029324,-0.00325777 -0.0056324,-0.00601655 -0.00810135,-0.00827771 -0.00447584,-0.00345736 -0.00854702,-0.00641574 -0.0122122,-0.00887649 -0.00366516,-0.00245939 -0.00630774,-0.00368977 -0.00792773,-0.00368977 -0.000232405,0 -0.000386885,3.41772e-005 -0.000463442,9.97973e-005 -7.65568e-005,6.69872e-005 -0.000192759,0.000166785 -0.00034724,0.000299392l0.000114835 0c-0.000307594,0.000266582 -0.000616556,0.000399189 -0.000925518,0.000399189 -0.00069448,0 -0.00142724,-0.00119757 -0.00219827,-0.00358997 -0.000772404,-0.00239377 -0.00115792,-0.00511974 -0.00115792,-0.00817791 0,-0.00133018 0.000135342,-0.00289275 0.000404658,-0.00468774 0.000270683,-0.00179498 0.000734125,-0.00349017 0.00138896,-0.00508693 0.000656201,-0.00159539 0.00150516,-0.00295838 0.00254688,-0.00408896 0.00104172,-0.00113058 0.00237189,-0.00169519 0.00399326,-0.00169519 0.00185104,0 0.00435964,0.000898176 0.00752308,0.00269316 0.00316481,0.00179498 0.00657842,0.00405478 0.0102436,0.00678075 0.00366516,0.00272597 0.00740824,0.00565154 0.0112279,0.00877669 0.00381964,0.00312516 0.00731118,0.00595093 0.0104746,0.0084773 0.0013124,0.00106359 0.00235412,0.00196177 0.00312516,0.00269316 0.000772404,0.000731391 0.00138896,0.00132881 0.0018524,0.00179498 0.000462075,0.000464809 0.000848961,0.000831189 0.00115792,0.0010964 0.000308962,0.000266582 0.000654834,0.000466176 0.00104172,0.000598784 -0.00208344,-0.00452095 -0.00464946,-0.00904191 -0.00769806,-0.0135629 -0.00304724,-0.00452095 -0.00613412,-0.00874388 -0.00925928,-0.0126661 -0.00312516,-0.00392354 -0.00613412,-0.00734672 -0.00902824,-0.0102723 -0.00289412,-0.00292556 -0.00522774,-0.00498713 -0.00700358,-0.00618333 -0.000847594,-0.000531797 -0.00144638,-0.00126319 -0.00179362,-0.00219417 -0.00034724,-0.000930986 -0.00052086,-0.00192759 -0.00052086,-0.00299255 0,-0.00146278 0.000251544,-0.00272597 0.000753265,-0.00378956 0.000500354,-0.00106359 0.00117569,-0.00159539 0.00202466,-0.00159539 0.000232405,0 0.000656201,0.000132607 0.00127412,0.000399189 0.00377999,0.00319078 0.00779239,0.00714713 0.0120372,0.0118677 0.0042448,0.00472055 0.00829548,0.00980748 0.0121534,0.0152594 0.00385792,0.00545194 0.00736996,0.0111363 0.0105334,0.017053 0.00316344,0.00591812 0.00555584,0.0116694 0.00717584,0.017254l0.00625032 0.00478754c0.00223792,0.001728 0.00443756,0.00342318 0.00659756,0.00508556 0.00216136,0.00166238 0.00370344,0.00282577 0.00463032,0.00349017 0.00177448,0.00119757 0.00333706,0.00289275 0.00468774,0.00508693 0.00135068,0.00219417 0.0024881,0.00465356 0.00341361,0.00737953 0.000926885,0.00272597 0.00162136,0.00568571 0.00208481,0.00887649 0.000462075,0.00319078 0.000693113,0.00638293 0.000693113,0.00957371 0,0.00279296 -0.000192759,0.00551893 -0.000578278,0.00817791 -0.000385518,0.00266035 -0.000963796,0.00508693 -0.0017362,0.0072811 -0.000772404,0.00219417 -0.00175534,0.00405615 -0.00295154,0.00558455 -0.0011962,0.00152977 -0.00256602,0.00256055 -0.00410946,0.00309235l-0.000809315 0zm0.0035886 -0.0179526c0,-0.00265898 -0.000888606,-0.00521817 -0.00266308,-0.00767892 -0.00177448,-0.00245939 -0.0050924,-0.00528516 -0.00995376,-0.0084773l0.0018524 0.00618333c0.000539999,0.00199458 0.00107863,0.00395635 0.00162,0.00588394 0.000539999,0.00192896 0.00109914,0.00369113 0.00167742,0.00528652 0.000578278,0.00159539 0.00117706,0.00289139 0.00179362,0.00388936 0.00061929,0.000996606 0.00127412,0.00149559 0.0019686,0.00149559 0.000925518,0 0.00177448,-0.000631594 0.00254688,-0.00189478 0.000771037,-0.00126319 0.00115792,-0.00282577 0.00115792,-0.00468774z"/>
 </g>
</svg>
