<?xml version="1.0" encoding="UTF-8"?>
<!DOCTYPE svg PUBLIC "-//W3C//DTD SVG 1.1//EN" "http://www.w3.org/Graphics/SVG/1.1/DTD/svg11.dtd">
<!-- Creator: CorelDRAW -->
<svg xmlns="http://www.w3.org/2000/svg" xml:space="preserve" width="25in" height="39in" style="shape-rendering:geometricPrecision; text-rendering:geometricPrecision; image-rendering:optimizeQuality; fill-rule:evenodd; clip-rule:evenodd"
viewBox="0 0 0.753633 0.425966"
 xmlns:xlink="http://www.w3.org/1999/xlink">
 <defs>
  <style type="text/css">
   <![CDATA[
    .fil0 {fill:black}
   ]]>
  </style>
 </defs>
 <g id="Dummy_x0025_Layer_x0025_Dummy_x0025_Layer">
  <metadata id="CorelCorpID_0Corel-Layer"/>
  <path class="fil0" d="M0.555083 0.0343244c0.00241964,-0.00478587 0.00307239,-0.00597862 0.00735386,-0.00897832l0.00490158 0.00256502c0.00165562,0.00744138 0.00411828,0.0192384 -0.00735386,0.0192384 -0.011487,0 -0.00476955,-0.00728561 -0.0012254,-0.0128251 -0.00592967,0.00131441 -0.00172535,0.00101325 -0.00367619,0zm0.00367619 -0.00128325c-0.000121649,0.000127584 0.000342695,0.000357531 0.000366432,0.000382751l-0.000366432 -0.000382751zm-0.0147047 0.0192384c0,0.0032964 -0.0158945,0.0138458 -0.0128429,-0.000443575 0.00183661,-0.00860299 0.00529472,-0.01639 0.0128429,-0.0110998 -0.00124023,0.00270596 -0.000901986,0.00115864 -0.0012254,0.00513005l-0.00612698 0c0.00329047,0.00470131 0.00201167,0.00116605 0.00735237,0.00384828l0 0.00256502zm0.000563741 -0.0061522c-0.000256651,-0.00501878 0.00231431,-0.00528582 0.00678863,-0.00539115 0,0.00532142 -0.000455444,0.00456334 0.0012254,0.00769507 -0.0041524,0.000361981 -0.00776924,0.00252348 -0.00801403,-0.00230392zm0.0263964 -0.0105212c0.0168128,0 0.0300237,0.00642962 0.0397274,0.0186999 0.00167936,0.00212293 0.00214518,0.0011705 0.00214073,0.00203392l-0.00142864 0.00106962c-0.0100153,-0.0156542 -0.0243803,-0.0166734 -0.0404395,-0.0166734l0 -0.00513005zm-0.024143 0.0709216l-0.000366432 -0.000381267c-0.000121649,0.000127584 0.000341212,0.000357531 0.000366432,0.000381267zm-0.0126204 -0.00551131c-0.000562258,-0.00252348 -0.000866381,-0.00442685 -0.00164375,-0.00739836 -0.00394619,-0.0150801 0.0101221,-0.0124616 0.0151231,-0.0349267 0.00616407,0.0015043 0.00805112,0.00513005 0.0159316,0.00513005 0.0149169,0 0.0235599,-0.00749924 0.0352516,0.0028647 0.0107823,0.00955541 -0.000443575,0.0289719 0.0129839,0.0402778 0.0122851,0.0103432 0.0114825,-0.000703193 0.0149644,0.0215334 0.00113935,0.00728561 0.00243299,0.0235852 0.00802441,0.0276174l-0.00137523 -0.00507961c0.00568934,0.00398624 0.00981058,0.00749182 0.0154198,0.0120789 0.00787012,0.00643555 0.0178187,0.0154539 0.00508554,0.022207 -0.0031436,0.001666 -0.0064133,0.00290772 -0.0107022,0.00290772 -0.0155919,0 -0.0201627,-0.0015132 -0.0310132,-0.0149955 -0.0080615,-0.0100168 -0.0195411,-0.0152937 -0.0216803,-0.0183498 0.0091608,-0.0022342 0.0211967,-0.0148249 0.0220586,-0.0256517 -0.00110671,0.00133221 -0.0001261,-0.000111265 -0.00154435,0.00223123l-0.000897535 0.00162595c-0.000890118,0.00160815 -0.00118386,0.00237661 -0.00226387,0.0040441 -0.0010993,0.00169567 -0.00345959,0.00510483 -0.00480515,0.00651418 -0.0122287,0.0127999 -0.0195114,0.00887447 -0.0347487,0.00240777 -0.0224206,-0.00951536 -0.0138844,-0.023152 -0.0197576,-0.0306245 -0.00292849,-0.00372514 -0.0119602,-0.00760161 -0.0119602,-0.0131322 0,-0.00619967 0.00439718,-0.00219562 0.00612698,-0.00897684 -0.00393284,0.00109781 -0.00351893,0.0012788 -0.00692512,0.00557807l-0.00165265 0.002117zm0.0196063 0.00384679c-0.00996487,-0.000867865 -0.00168974,0.00252052 -0.00857777,0.00513005 0.00189595,0.00270744 0.00346998,0.0032697 0.00612698,0.00513153 0.00262436,-0.00410196 0.00201315,-0.000899019 0.00245079,-0.0064133 0.010407,0.000241815 0.00674709,0.00844128 -0.000149836,0.00892788l0.00137523 -0.00508109c-0.00507219,0.00355602 -0.00421322,0.00748441 0.000572642,0.00695924 0.0027742,-0.000304124 0.00394174,-0.00156216 0.00511521,-0.00371476 0.00338096,-0.0062056 -0.00319552,-0.00901244 -0.00464493,-0.0113327l-0.000890118 -0.00178172c-0.00156512,-0.0019004 0.000166155,-0.000899019 -0.00260359,-0.00167194l0.0012254 0.00384679zm0.0723013 0.0102616c0.00289733,0.000808524 0.00143161,0.000396102 0.00269261,0.00102809 0.00335574,0.00168381 0.00260211,0.00155177 0.00098358,0.00281871l-0.00367619 -0.00384679zm0.0833299 0.00513005c0.000728413,0.00172089 0.00176985,-0.000723962 6.23082e-005,0.00153545 -0.00201908,0.00267184 -6.08247e-005,0.000344179 -0.0025131,0.00102957 0.00349371,-0.00491493 0.000649786,-0.00323261 0.00245079,-0.00256502zm-0.0784283 0.0141069c0.00704677,-0.00171793 0.00826178,-0.00536593 0.011082,-0.011487 0.00372663,-0.00808969 0.000235881,-0.00921272 0.00730045,-0.0141633 0.0043141,0.00105182 0.00911629,0.00486153 0.0116071,0.00837156 0.0104826,0.014776 -0.00180397,0.027874 -0.00180397,0.0519087 -0.00352338,-0.00247008 -0.00505142,-0.0050618 -0.00839381,-0.00788941 -0.00290178,-0.00245227 -0.00510038,-0.00446246 -0.00824842,-0.00675748 -0.0112911,-0.00823211 -0.0115433,-0.00434377 -0.0115433,-0.0199831zm0.0919076 0.0294985c0.00093314,0.00365245 0.00160963,0.00392394 0.00367619,0.0064133 -0.00103847,-0.00466718 -0.00067649,-0.00411234 -0.00367619,-0.0064133zm-0.0229176 -0.0188557l-0.000364948 -0.000381267c-0.000121649,0.000127584 0.000341212,0.000356047 0.000364948,0.000381267zm-0.000364948 -0.000381267c-0.000339728,-0.00426811 -0.00238997,-0.0181777 0.00980316,-0.0192384 -0.00161853,0.00319997 -0.00279645,0.00484817 -0.00267035,0.00708979l0.000458411 0.00171941c0.000437641,0.00147314 0.000795172,0.002387 0.00162001,0.00453367 0.00198645,0.0051701 0.00124171,-0.00133814 0.00181732,0.00589555 -0.00624566,-0.00174611 -0.00490158,-0.00375481 -0.00490158,-0.0115433 -0.00432597,0.00331717 -0.00266145,0.00756007 0,0.0128251 -0.00815793,0.000189892 -0.00284986,-0.0013515 -0.00490158,0.00384828 0.00424289,-0.00118682 0.00534071,-0.00384828 0.0147047,-0.00384828 -0.00505587,-0.00790276 -0.0092053,-0.0121916 -0.00367619,-0.0205202 0,0.00924387 -0.000998415,0.00989663 0.00310503,0.0159865 0.01234,0.0183112 0.0182949,0.00837898 0.0189209,0.0366313 0.000212145,0.00958805 0.0186658,0.10257 -0.00364355,0.10257 -0.0103847,0 -0.0168306,-0.00178469 -0.0259128,-0.00622637 -0.00125655,-0.000614181 -0.00388981,-0.00226387 -0.005449,-0.00327563 -0.00402482,-0.00261546 -0.017657,-0.012745 -0.017657,-0.0174315 0,-0.00997229 0.00697407,-0.0230867 0.0159316,-0.0230867 0.00408119,0 0.00758825,0.00382899 0.012254,0.0064133 -0.000936107,0.00204134 -0.00502175,0.0147211 0,0.0205217 0,-0.0320472 0.0110286,-0.0360676 0.0110286,-0.0666936 0,-0.0107215 -0.00338393,-0.0155637 -0.0109737,-0.020578 -0.00836117,-0.00552615 -0.00687023,-0.0114855 -0.0196627,-0.0114855 0.00374295,-0.00534516 0.00944415,-0.00177875 0.0140624,-0.000608247 0.00927799,0.00235288 0.00706308,-0.00264365 0.0190248,0.00573829 -0.00321036,-0.0125833 -0.0330872,0.00279349 -0.0330872,-0.0346285 0.0071699,0.00549796 0.000741765,0.0128578 0.00980465,0.0153916zm-0.186268 -0.00128325c0,-0.00920382 0.00373849,-0.0132019 0.00785974,-0.0187088 0.00382157,-0.00510483 0.00887596,-0.00912519 0.0141989,-0.012073 0,0.00432152 0.000774402,0.0142567 0.00147314,0.0189788 0.00310058,0.0209296 0.0285861,0.0124542 0.037741,0.0207813 -0.0228909,0 -0.0346004,0.00384679 -0.0477919,0.00384679 -0.00978833,0 -0.0134808,-0.00444762 -0.0134808,-0.0128251zm0.0920604 0.0267733c0.000185441,0.000179507 0.000452477,0.000436158 0.000639401,0.000614181 0.00295964,0.00282612 0.00446839,0.00396844 0.00656165,0.00724111l-0.0183572 -0.00900354c-0.00630797,-0.00418207 -0.0136381,-0.0151869 -0.0325753,-0.00838936 -0.00256947,0.000922755 -0.00657055,0.00315398 -0.00877656,0.00377558 -0.00447284,0.00125952 -0.0130491,-0.00405597 -0.015043,-0.00690286 0.00995745,0 0.016976,-0.00256502 0.0281856,-0.00256502 0.0185174,0 0.0169612,-0.00131737 0.0318751,0.00896349 0.00113045,0.000778853 0.00303827,0.00204579 0.00432746,0.00316437l0.00316289 0.00310206zm0.0562184 -0.00496982l0 -0.00256502c0.0144392,0.000336761 0.0145549,0.0106651 0.0207694,0.0154569 0.00587478,0.00452922 0.0172193,0.00743248 0.0172193,0.0178884 0,0.00796655 0.000272969,0.0207427 -0.00612698,0.0256517 -0.00150727,-0.00381564 5.19235e-005,-0.00242557 0.0012254,-0.00769507 -0.00318514,0.00244041 -0.00580357,0.00830332 -0.0122554,0.0128251 0.00448619,-0.0201523 0.00602758,-0.00868903 0.0105969,-0.0184076 0.000789238,-0.00167787 0.00165859,-0.00521016 0.00165859,-0.00724408 0,-0.00653643 -0.0195856,-0.0223375 -0.0262926,-0.0246919 -0.00323855,-0.00113787 -0.0017921,0.00116457 -0.00456482,-0.00222233 -0.00762089,-0.00930915 0.00633467,-0.00386905 0.00634802,-0.00386608 -0.00214073,-0.00305755 -0.00446839,-0.00412866 -0.00857777,-0.00513005zm-0.0465665 0.0410418c0,-0.0115567 -0.0161779,-0.0265626 -0.0196078,-0.0333468 0.00439718,0.00107111 0.0165354,0.00843683 0.0212323,0.011125 0.0151543,0.00867123 0.023465,0.00770842 0.0375897,0.00426515 0.0253758,0.0396622 0.0107467,0.0374206 0.00861189,0.0795543 -0.000359014,0.00707792 -0.0016304,0.0114736 -0.00130699,0.0178825 0.000272969,0.00544752 0.00159924,0.0313143 0.00372366,0.0359489 -0.0152967,-0.00372959 -0.0397527,-0.0151379 -0.0506611,-0.0239323 -0.00992481,-0.00800068 -0.000489565,-0.015353 -0.00656314,-0.0316066 -0.00276382,-0.00739243 -0.00924536,-0.0181599 -0.0163025,-0.0201315l0 -0.00256502c0.00735831,-0.000640885 0.0122554,-0.00673671 0.0157862,-0.0116947 0.00732567,-0.0102942 0.00749776,-0.0134096 0.00749776,-0.0254989zm0.069849 0.00641182c-0.00189595,-0.00852139 -0.00613885,-0.0196627 -0.010987,-0.0269765 -0.00185886,-0.00280239 -0.00312135,-0.00352042 -0.00494312,-0.00636879 0.00847244,0.00236771 0.0341657,0.0232469 0.0159301,0.0333453zm-0.15808 -0.0153901c0,-0.0114825 0.00870535,-0.0222782 0.0167105,-0.0262051 0.00852288,-0.00418059 0.00198645,0.00211106 0.0135105,-0.00497576 0.0320591,-0.0197161 0.0406606,0.0224859 0.0469804,0.0273326l-0.00387943 -0.0079087 0.00142864 -0.00106814c0.0106473,0.0166408 0.0176421,0.0250524 0.0025042,0.0475086 -0.00577686,0.0085659 -0.0139615,0.00924091 -0.0184343,0.0114885 -8.30777e-005,-0.000185441 -8.30777e-005,-0.000520719 -0.000106814,-0.000603797 -0.00107704,-0.00378448 -0.00181881,-0.00331569 -0.00475175,-0.00710166 -0.00224161,-0.00289437 -0.00388981,-0.00439867 -0.00700819,-0.00680792 -0.0132153,-0.0102037 -0.0225942,-0.00614626 -0.0285728,-0.0060083 -0.000836711,0.00247749 0.000738798,0.00047918 0.0012254,0.00513153 -0.0112422,-0.00274156 -0.0196063,-0.0152581 -0.0196063,-0.0307818zm0.144217 0.112462c-0.00156957,0.00369251 -0.0017832,0.00599939 -0.00451735,0.0080971 -9.34624e-005,-0.0043957 -0.00087825,-0.0106962 -0.00130551,-0.0165888 -0.00314063,-0.0432078 0.00498169,-0.0458351 0.00498169,-0.0770367 0,-0.0262407 -0.0109069,-0.0269172 -0.0134794,-0.0384768 0.00461971,-0.00129067 0.00567598,-0.00330975 0.00612698,-0.00897684 0.00444762,0.0031169 0.0111532,0.0133547 0.01365,0.0190589 0.00875728,0.0200098 0.00424289,0.0242958 -0.00106814,0.0531059 -0.00912222,0.0494965 0.0017654,0.0316111 -0.00145831,0.0509667 -0.000815941,0.00489268 -0.00118089,0.00573681 -0.00292997,0.00985064zm0.00528582 -0.0547482c0.000544455,-0.00684352 0.00265403,-0.0121427 0.00414647,-0.0187444 0.00240183,-0.0106132 0.0114662,-0.016347 0.0166867,-0.0081876 -0.012254,0.000284838 -0.0183824,0.0153189 -0.0183824,0.026932l-0.00245079 0zm-0.129896 -0.0179552c0.000103847,-0.00486894 0.00109188,-0.010134 0.00451141,-0.0119721 0.00591632,-0.00318217 0.0298011,0.00724853 0.0298011,0.0171021 0,0.00248343 -0.00166749,0.00417317 -0.00245079,0.00769507l-0.00245079 0c-0.000445059,-0.00560626 -0.00610918,-0.00958063 -0.0106102,-0.011981 -0.00459004,-0.00245079 -0.0139155,-0.00329789 -0.0188008,-0.000844128zm-0.134162 0.0923631c2.96706e-006,0 9.04953e-005,-1.92859e-005 9.19788e-005,-1.92859e-005 0.00121204,-0.000206211 -0.000728413,-0.00328157 -0.000728413,0 0,0.00290327 -8.60447e-005,5.19235e-005 0.000636434,1.92859e-005zm0.120682 -0.0526045c0.00134259,-0.00602906 0.0128221,-0.0384753 0.0183809,-0.0384753 0.0115715,0 0.023284,0.00610176 0.023284,0.0141069 0,0.00313915 -0.00506774,0.0191375 -0.0062783,0.0229294 -0.00259321,0.00812232 -0.0044046,0.012254 -0.00801848,0.0198229 -0.0111443,0.0233359 -0.0153293,0.0213762 -0.0543283,0.0213762 -0.0135506,0 -0.0294852,-0.00769655 -0.0477919,-0.00769655 -0.0227648,0 -0.0174196,0.00942783 -0.0172312,0.020578 0.000112748,0.0066566 -0.0114959,0.0212234 -0.0121798,0.0217456 -0.00240332,-0.0108001 0.00284986,-0.0101177 0.00367619,-0.0205202 -0.00322668,0.00226238 -0.00412866,0.00371179 -0.00688654,0.0068999l-0.00377558 0.00374443c-0.0151899,0.012561 -0.00584214,0.0149926 -0.0150712,0.0175724 0.00233656,-0.00509889 0.00170161,-0.0107422 0.00442834,-0.0158871l0.00782562 -0.0110464c-0.00531994,0.0014865 -0.00877063,0.00991295 -0.012254,0.0141084 0,-0.0109484 0.00306497,-0.00714468 0.00490158,-0.0153916 -0.00247156,0.00189595 -0.00398624,0.00410493 -0.00490158,0.00769507l-0.00245079 0c0.000228464,-0.0107066 0.0058006,-0.00804666 0.00857777,-0.0205202 -0.00393877,0.00197903 -0.00440163,0.000790721 -0.00924536,0.00186628 -0.00409751,0.000909404 -0.00352932,0.00159924 -0.00791018,0.001982 0.00390465,-0.00610472 0.00822914,-0.00556324 0.0156839,-0.00795469 0.0192236,-0.00616407 0.021075,-0.0213065 0.0492146,-0.0215957 0.0512367,-0.00052517 0.0645187,-0.0165236 0.0846042,-0.0114914 -0.00269261,-0.00384679 -0.00598604,-0.00384828 -0.012254,-0.00384828zm0.0661728 0.0448901c0.00263772,-0.000999899 0.00118979,-5.78577e-005 0.00304717,-0.00194194 0.00187963,-0.0019093 0.000901986,-0.000431707 0.00158293,-0.00347294l-0.0046301 0.00541488zm0.0159316 -0.00256502c-0.000121649,0.000127584 0.000341212,0.000356047 0.000364948,0.000381267l-0.000364948 -0.000381267zm0.035538 0.0666921c-0.000121649,0.000127584 0.000341212,0.000357531 0.000364948,0.000381267l-0.000364948 -0.000381267zm-0.124995 0.0166734c0.00308426,-0.00482147 0.00762534,-0.00963553 0.0149466,-0.0215512 0.0161645,-0.0263015 0.0163307,-0.039861 0.0405004,-0.065345 0.00216892,-0.00228612 0.00375185,-0.00432894 0.00635099,-0.0061789 0.0159168,-0.0113342 0.0205736,-0.0193037 0.0301097,-0.00568192 -0.0046835,0.00259469 -0.0120418,0.00719215 -0.0134808,0.0128266 0.00304124,-0.00213183 0.00573384,-0.00471466 0.00911777,-0.00714913 0.00799474,-0.00574868 0.00733012,-0.0038824 0.01049,-0.00311245 -0.0015488,0.00607209 -0.00592225,0.00721886 -0.00709721,0.0130981l0.0107734 -0.0105331c0.00582434,0.00142122 0.0227114,0.0119647 0.0367633,0.0153916 -0.000431707,0.0202799 -0.0120923,0.0539337 -0.012254,0.061562 0.00546087,-0.00822766 0.0136781,-0.0441736 0.0145045,-0.0527944 0.000583027,-0.00609286 -0.000290772,-0.0099708 0.00510186,-0.0164627 0.00730193,0.0328038 0.0050173,0.0348704 0.00366729,0.0679649 -0.000213628,0.0052517 -0.000761051,0.00673819 -0.00108594,0.0116887 -0.000289288,0.00441053 0.000657204,0.00755858 -0.00380674,0.00755858l-0.144601 -0.00128177zm0.150728 -0.112864c0.011573,0.00811046 0.0224992,0.0352398 0.0277257,0.0517826 0.00338245,0.0107096 0.0156705,0.0533017 0.01639,0.0623631l-0.0257333 0c0,-0.0220438 -0.0031347,-0.044043 -0.00930915,-0.0646463 -0.00115715,-0.00386459 -0.000924239,-0.00345959 -0.00294629,-0.00589406l0.00630797 0.0344401c0.00180694,0.0113045 0.0034952,0.0225749 0.0034952,0.0361002l-0.0171555 0c0.00364058,-0.00793985 0.00367619,-0.0422895 0.00367619,-0.053867 0,-0.00962366 -0.00158589,-0.0247512 -0.00368509,-0.0321229 -0.00271338,-0.00953613 -0.00288101,-0.00316289 0.000172089,-0.0125269 0.00155771,-0.00477845 0.00106221,-0.00914151 0.00106221,-0.015629zm-0.123769 -0.0923438c0,0.0147656 0.0211299,0.0244486 0.024953,-0.00220304 0.00110523,-0.00770249 -0.00166897,-0.0159865 -0.00166897,-0.0260122 -0.00517752,0.001261 -0.0105776,0.00662841 -0.0144347,0.010542 -0.0045218,0.00458707 -0.00884925,0.0118119 -0.00884925,0.0176733zm0.0330872 0.0256502c0,0.00346404 0.000585994,0.00353673 0.0012254,0.0064133 0.0202947,0 0.0164301,-0.0308085 0,-0.0423236 0.00729897,0.0327905 -0.0012254,0.0288101 -0.0012254,0.0359103zm-0.0563697 -0.0256502c0,0.0210053 0.012254,0.0196701 0.012254,0.0153901 0,-0.00799474 -0.00245079,-0.00448174 -0.00245079,-0.0179552 0,-0.00819502 0.0083226,-0.0147136 0.00980316,-0.0205202 -0.00540005,0.00271041 -0.0196063,0.00479625 -0.0196063,0.0230852zm0.0490173 -0.061562c0.00317475,-0.000887151 0.0044402,-0.0022342 0.00735237,-0.00384828 -0.000304124,0.00382602 -0.000881217,0.0064133 -0.00490158,0.0064133 -0.00165265,0 -0.00183809,-0.00142419 -0.00245079,-0.00256502zm-0.00857777 0c0.000218079,0.000198793 0.000574126,0.000188408 0.000670555,0.000578577l0.00449806 0.00427998c0.00887893,0.00850656 0.018016,0.000952426 0.0144377,-0.0151187 -0.00413608,0.00229057 -0.00659726,0.00213183 -0.0106829,0.00420877 -0.00531104,0.00270299 -0.00369547,0.00459004 -0.00892343,0.00605132zm0.00857777 -0.0384768c0.000669072,-0.00300415 0.0012254,-0.00378893 0.0012254,-0.00769507l0.0012254 0c0,0.00665066 0.00109336,0.00497724 -0.00245079,0.00769507zm0.00245079 0.00384828c0.00106962,-0.0134571 0.00208436,-0.0156705 0.00980316,-0.0102601 -0.00153397,0.006891 -0.00321926,0.00865491 -0.00980316,0.0102601zm-0.00735237 -0.0153901c0.000559291,0.00703786 0.00330975,0.00460339 -0.00245079,0.00513005 0.00261843,0.00373998 0.00652308,0.00348926 0.00857777,0.0115419 0.00509444,0 0.00456185,0.00068094 0.00792798,-0.00196271 0.00472356,-0.00370734 0.00432597,-0.00671891 0.00432597,-0.0108624 -0.010361,-0.00726188 -0.0064044,-0.00397734 -0.0103758,-0.00477548 -0.00256651,-0.000516268 -0.00264958,-0.000793688 -0.00432894,-0.00163782 -0.000551873,0.00527395 0.000169122,0.00442685 -0.00367619,0.00256651zm0.136023 0.111581c0.00482741,-0.00370141 0.0012254,0.000725446 0.0012254,-0.0166734 -0.015491,-0.00377707 -0.00799326,-0.0100806 -0.0245094,-0.0141069 0.0026392,0.0103447 0.023284,0.00746364 0.023284,0.0307803zm-0.145827 -0.117994l0 0.00256502c0.0117525,-0.000274453 -0.00219414,-0.0064133 0.0220571,-0.0064133 -0.00145238,-0.00132034 0.00106221,-0.000369399 -0.00202502,-0.00172683 -0.0090703,-0.00398624 -0.0153308,0.0042607 -0.0200321,0.0055751zm0.00367619 0.0474537c-0.002387,-0.0021704 0.0012966,0.000799622 -0.00197903,-0.00177727 -0.00137078,-0.00107853 -0.00182919,-0.00130402 -0.00292255,-0.00206952 0.00117941,0.00462268 0.000111265,0.00342992 0.00490158,0.00384679zm-0.165353 -0.12359l0.33314 0c0.0101785,0 0.018507,0.0070171 0.018507,0.0155934l0 0.391702c0,0.00857629 -0.00832854,0.0155934 -0.018507,0.0155934l-0.33314 0c-0.0101785,0 -0.018507,-0.0070171 -0.018507,-0.0155934l0 -0.391702c0,-0.00857629 0.00832854,-0.0155934 0.018507,-0.0155934zm0.0892506 0.103654c-0.0024953,0.00126693 -0.00520867,0.0019004 -0.00814013,0.0019004 -0.00636286,0 -0.0109796,-0.00253239 -0.0138487,-0.00759864 -0.0033691,0.00181732 -0.00729897,0.00272524 -0.0117911,0.00272524 -0.00835969,0 -0.0154702,-0.00313915 -0.0213346,-0.00941596 -0.00586439,-0.0062783 -0.00879585,-0.0138502 -0.00879585,-0.0227158 0,-0.00892046 0.00293145,-0.0165191 0.00879585,-0.0227974 0.00586439,-0.00627681 0.012975,-0.00941596 0.0213346,-0.00941596 0.00829738,0 0.0153783,0.00313915 0.0212412,0.00941596 0.00586439,0.0062783 0.00879585,0.0138769 0.00879585,0.0227974 0,0.00765501 -0.0021526,0.0142627 -0.00645632,0.0198244 0,0.00324893 0.00106072,0.00605725 0.00318217,0.00842497 0.00180842,0.00198348 0.00414795,0.00344179 0.0070171,0.0043779 0.000749182,0.000219562 0.00112303,0.000578577 0.00112303,0.00107408 0,0.00055039 -0.000373849,0.00101918 -0.00112303,0.00140342zm-0.0233938 -0.0340307l0 -0.0178409c0,-0.00236771 -0.000919788,-0.0043779 -0.00275937,-0.00603055 -0.00184106,-0.00165117 -0.00416427,-0.00247749 -0.00697111,-0.00247749l-0.00130996 0c-0.00280832,0 -0.00514636,0.000826326 -0.00701858,0.00247749 -0.00187073,0.00165265 -0.00280684,0.00366283 -0.00280684,0.00603055l0 0.0224666c0.003243,-0.00418504 0.00767282,-0.00627681 0.0132865,-0.00627681 0.00299525,0 0.0055217,0.00055039 0.00757935,0.00165117zm0 0.0156943l0 -0.00132182c0,-0.00225793 -0.000965778,-0.00426811 -0.0029003,-0.00602906 -0.00212145,-0.00192859 -0.00461674,-0.0028914 -0.00748589,-0.0028914 -0.00255761,0 -0.00491197,0.000811491 -0.00706457,0.00243596 -0.0021526,0.00162446 -0.00329047,0.00359311 -0.00341509,0.00590593l0 0.0014049c0,0.00253239 0.000967261,0.00466718 0.0029003,0.00640143 0.00193452,0.00173425 0.00424141,0.00260211 0.00692512,0.00260211l0.00130996 0c0.00268222,0 0.00502175,-0.000936107 0.0070171,-0.00280832 0.00180991,-0.00176243 0.00271338,-0.00366283 0.00271338,-0.00569972zm0.00362723 0.0273978c0,0.000413905 -0.000344179,0.000839678 -0.00102957,0.00128029 -0.000342695,0.000247749 -0.000560774,0.000633467 -0.00065572,0.00115715 -3.11541e-005,0.000274453 -4.59894e-005,0.00108743 -4.59894e-005,0.00243596l0 0.0161482c0,0.00319404 -0.00135743,0.00565818 -0.00407081,0.00739243 -0.00227722,0.00145979 -0.00502175,0.00218969 -0.00823507,0.00218969 -0.00336761,0 -0.00622192,-0.000743248 -0.00856145,-0.00222975 -0.00271338,-0.00170754 -0.00407081,-0.00414498 -0.00407081,-0.00731083l0 -0.0161898c0,-0.00217485 -0.000265552,-0.00340025 -0.000795172,-0.0036747 -0.000623082,-0.000330827 -0.000936107,-0.000703193 -0.000936107,-0.00111561 0,-0.000661654 0.000577093,-0.000909404 0.00173128,-0.000743248 0.000936107,0.000164672 0.00229354,0.000247749 0.00407081,0.000247749 0.00174611,0 0.00305607,-8.30777e-005 0.00392987,-0.000247749 0.00115419,-0.000192859 0.00173128,2.67035e-005 0.00173128,0.000660171 0,0.000413905 -0.000342695,0.000839678 -0.00102957,0.00128029 -0.000342695,0.000247749 -0.000560774,0.000646819 -0.000654237,0.00119721 -3.11541e-005,0.000275937 -4.74729e-005,0.00107408 -4.74729e-005,0.0023959l0 0.0175116c0,0.00192711 0.000624566,0.00330382 0.00187221,0.00413015 0.000778853,0.000495499 0.00166897,0.000743248 0.0026659,0.000743248 0.000998415,0 0.0018559,-0.000247749 0.00257392,-0.000743248 0.00121649,-0.000798139 0.00182474,-0.00217485 0.00182474,-0.00413015l0 -0.0175116c0,-0.00129364 -3.11541e-005,-0.00214667 -9.34624e-005,-0.00256057 -9.34624e-005,-0.00055039 -0.00032786,-0.000922755 -0.00070171,-0.00111413 -0.000624566,-0.000330827 -0.000936107,-0.000703193 -0.000936107,-0.00111561 0,-0.000661654 0.000577093,-0.000909404 0.00173128,-0.000743248 0.000936107,0.000164672 0.00229205,0.000247749 0.00407081,0.000247749 0.00174611,0 0.00305607,-8.30777e-005 0.00392987,-0.000247749 0.00115419,-0.000192859 0.00173128,2.67035e-005 0.00173128,0.000660171zm-0.00166155 0.0612164c-0.000124616,0.00253387 -0.000919788,0.00440608 -0.00238552,0.00561813 -0.000531104,0.000440608 -0.00112303,0.000563741 -0.00177875,0.000370882 -0.00109188,-0.000329344 -0.00240183,-0.000495499 -0.00392987,-0.000495499l-0.0105271 0c-0.00112303,0 -0.00261991,4.15388e-005 -0.00449213,0.000124616 -0.000560774,5.48906e-005 -0.000841161,-0.000166155 -0.000841161,-0.000661654 0,-0.000137968 0.000256651,-0.000501433 0.000771435,-0.00109336 0.000514785,-0.000591928 0.000772919,-0.00139748 0.000772919,-0.00241667l0 -0.0215171c0,-0.00129364 -3.11541e-005,-0.00214815 -9.49459e-005,-0.00256057 -9.34624e-005,-0.00055039 -0.000326377,-0.000922755 -0.00070171,-0.00111561 -0.000623082,-0.000330827 -0.000934624,-0.00070171 -0.000934624,-0.00111561 0,-0.000631984 0.000311541,-0.000921272 0.000934624,-0.000866381 0.000313025,2.67035e-005 0.00184106,9.64294e-005 0.00458559,0.000206211l0.0102927 0c0.00162298,0 0.00293294,-0.00015132 0.00392987,-0.00045396 0.00065572,-0.000192859 0.00124913,-6.97259e-005 0.00177875,0.000370882 0.00146573,0.00121204 0.0022609,0.00307091 0.00238552,0.00557659 3.26377e-005,0.000631984 -0.000249233,0.000949459 -0.000841161,0.000949459 -0.000375333,0 -0.000718028,-0.00015132 -0.00102957,-0.00045396 -0.00159034,-0.00165265 -0.00413311,-0.00247898 -0.00762683,-0.00247898l-0.00538076 0c0.000468795,0.000661654 0.000703193,0.00158293 0.000703193,0.00276678l0 0.00673226 0.00463158 0c0.00152804,0 0.00296261,-0.000164672 0.00430372,-0.000495499 0.000749182,-0.000192859 0.00124765,-6.82424e-005 0.00149688,0.000372366 0.000124616,0.000274453 0.000188408,0.000591928 0.000188408,0.000949459 0,0.000826326 -0.000296706,0.00188557 -0.000890118,0.00318069 -0.000716545,0.0014865 -0.00148056,0.00222975 -0.00229205,0.00222975 -0.000531104,0 -0.000888634,-0.000192859 -0.00107556,-0.000578577 -0.000313025,-0.000715061 -0.000811491,-0.00123875 -0.00149836,-0.00156957 -0.000872315,-0.000384234 -0.0022609,-0.000577093 -0.00416278,-0.000577093l-0.00070171 0 0 0.00825881c0,0.00132182 -0.000219562,0.00223123 -0.00065572,0.00272673l0.00556769 0c0.00352487,0 0.00606615,-0.000812974 0.00762534,-0.00243744 0.000313025,-0.00030264 0.00065572,-0.00045396 0.00102957,-0.00045396 0.000593412,0 0.000873799,0.00030264 0.000842645,0.00090792zm0 0.0363554c-0.000124616,0.00253239 -0.000919788,0.0044046 -0.00238552,0.00561664 -0.000531104,0.000440608 -0.00112303,0.000563741 -0.00177875,0.000370882 -0.00109188,-0.000329344 -0.00240183,-0.000495499 -0.00392987,-0.000495499l-0.0105271 0c-0.00112303,0 -0.00261991,4.15388e-005 -0.00449213,0.000124616 -0.000560774,5.48906e-005 -0.000841161,-0.000164672 -0.000841161,-0.000661654 0,-0.000136485 0.000256651,-0.000501433 0.000771435,-0.00109336 0.000514785,-0.000591928 0.000772919,-0.00139748 0.000772919,-0.00241667l0 -0.0215171c0,-0.00129364 -3.11541e-005,-0.00214815 -9.49459e-005,-0.00256057 -9.34624e-005,-0.00055039 -0.000326377,-0.000922755 -0.00070171,-0.00111561 -0.000623082,-0.000329344 -0.000934624,-0.00070171 -0.000934624,-0.00111413 0,-0.000633467 0.000311541,-0.000922755 0.000934624,-0.000867865 0.000313025,2.81871e-005 0.00184106,9.64294e-005 0.00458559,0.000206211l0.0102927 0c0.00162298,0 0.00293294,-0.00015132 0.00392987,-0.00045396 0.00065572,-0.000192859 0.00124913,-6.97259e-005 0.00177875,0.000372366 0.00146573,0.00121056 0.0022609,0.00306942 0.00238552,0.0055751 3.26377e-005,0.000633467 -0.000249233,0.000949459 -0.000841161,0.000949459 -0.000375333,0 -0.000718028,-0.00015132 -0.00102957,-0.00045396 -0.00159034,-0.00165265 -0.00413311,-0.00247749 -0.00762683,-0.00247749l-0.00538076 0c0.000468795,0.000660171 0.000703193,0.00158293 0.000703193,0.00276678l0 0.00673226 0.00463158 0c0.00152804,0 0.00296261,-0.000166155 0.00430372,-0.000495499 0.000749182,-0.000192859 0.00124765,-6.97259e-005 0.00149688,0.000370882 0.000124616,0.000275937 0.000188408,0.000591928 0.000188408,0.000949459 0,0.000826326 -0.000296706,0.00188705 -0.000890118,0.00318069 -0.000716545,0.0014865 -0.00148056,0.00222975 -0.00229205,0.00222975 -0.000531104,0 -0.000888634,-0.000192859 -0.00107556,-0.000578577 -0.000313025,-0.000715061 -0.000811491,-0.00123875 -0.00149836,-0.00156809 -0.000872315,-0.000385718 -0.0022609,-0.000578577 -0.00416278,-0.000578577l-0.00070171 0 0 0.00826029c0,0.00132034 -0.000219562,0.00222975 -0.00065572,0.00272524l0.00556769 0c0.00352487,0 0.00606615,-0.000811491 0.00762534,-0.00243596 0.000313025,-0.000304124 0.00065572,-0.000455444 0.00102957,-0.000455444 0.000593412,0 0.000873799,0.00030264 0.000842645,0.000909404zm0.000818908 0.0114914c0,0.000330827 -0.000342695,0.0007566 -0.00102957,0.00128029 -0.000498466,0.000385718 -0.000732864,0.00194046 -0.00070171,0.00466718l0 0.0185842c0,0.000221046 -6.23082e-005,0.000977646 -0.000186925,0.00227128 -0.000155771,0.00159776 -0.000967261,0.00271189 -0.00243299,0.00334536 -0.000936107,0.000413905 -0.00204282,0.000523686 -0.00332162,0.000330827 -0.000562258,-8.30777e-005 -0.000842645,-0.00030264 -0.000842645,-0.000660171 -3.11541e-005,-0.000137968 0.000218079,-0.000502917 0.000749182,-0.00109484 0.00052962,-0.000591928 0.000795172,-0.00139748 0.000795172,-0.00241667l0 -0.000949459c0,-0.00123875 -0.000359014,-0.00222975 -0.00107556,-0.00297299l-0.00977943 -0.0100776c-0.000218079,-0.000219562 -0.000436158,-0.000330827 -0.000654237,-0.000330827 -0.000531104,0 -0.000795172,0.000372366 -0.000795172,0.00111561l0 0.0101459c0,0.00176243 -9.34624e-005,0.00306349 -0.000281871,0.00388833 -0.000186925,0.000937591 -0.000654237,0.00172831 -0.00140342,0.00238255 -0.000749182,0.000646819 -0.00165265,0.000970228 -0.00271338,0.000970228 -0.000936107,0 -0.00152804,-2.67035e-005 -0.00177875,-8.30777e-005 -0.000373849,-8.15941e-005 -0.000560774,-0.000287805 -0.000560774,-0.000618632 0,-0.000221046 0.000109781,-0.000468795 0.00032786,-0.000743248 0.000373849,-0.000413905 0.000577093,-0.000620115 0.000608247,-0.000620115 0.000436158,-0.000694292 0.000654237,-0.0016304 0.000654237,-0.00281426l0 -0.0184818c0,-0.0015221 -0.000405004,-0.00237513 -0.00121649,-0.00256799 -0.000560774,-0.000137968 -0.000841161,-0.000427257 -0.000841161,-0.000867865 0,-0.000357531 0.000280387,-0.000824842 0.000841161,-0.00140342 0.000780337,-0.000799622 0.00168529,-0.00156364 0.00271338,-0.0022787 0.00134259,-0.000909404 0.00241815,-0.00136336 0.00322964,-0.00136336 0.000747699,0 0.00137226,0.000743248 0.00187073,0.00223123 0.000313025,0.000936107 0.00140342,0.00238107 0.00327563,0.00433636l0.00589555 0.00611214c0.000335278,0.000357531 0.000654237,0.000537038 0.00095836,0.000537038 0.000483631,0 0.000725446,-0.000317475 0.000725446,-0.000949459l0 -0.00495647c0,-0.00275343 -0.000225497,-0.00430965 -0.000686874,-0.00466718 -0.000209178,-0.000164672 -0.000436158,-0.000336761 -0.000677973,-0.000516268 -0.000241815,-0.000179507 -0.000366432,-0.000406487 -0.000366432,-0.00068094 0,-0.000633467 0.00052962,-0.000881217 0.00159034,-0.000743248 0.00190337,0.000274453 0.00379042,0.000274453 0.00566115,0 0.000967261,-0.000111265 0.00145089,0.000109781 0.00145089,0.000660171zm-0.272078 -0.193608c-0.00241964,-0.00478587 -0.00307239,-0.00597862 -0.00735386,-0.00897832l-0.00490158 0.00256502c-0.00165562,0.00744287 -0.00411828,0.0192384 0.00735386,0.0192384 0.011487,0 0.00476955,-0.00728561 0.0012254,-0.0128251 0.00592967,0.00131441 0.00172535,0.00101325 0.00367619,0zm-0.00367619 -0.00128325c0.000121649,0.000127584 -0.000342695,0.000357531 -0.000366432,0.000382751l0.000366432 -0.000382751zm0.0147047 0.0192384c0,0.0032964 0.0158945,0.0138458 0.0128429,-0.000443575 -0.00183661,-0.00860299 -0.00529472,-0.01639 -0.0128429,-0.0110998 0.00124023,0.00270596 0.000901986,0.00115864 0.0012254,0.00513005l0.00612698 0c-0.00329047,0.00470131 -0.00201167,0.00116605 -0.00735237,0.00384828l0 0.00256502zm-0.000563741 -0.00615071c0.000256651,-0.00502026 -0.00231431,-0.0052873 -0.00678863,-0.00539263 0,0.00532142 0.000455444,0.00456334 -0.0012254,0.00769655 0.0041524,0.000360498 0.00776924,0.002522 0.00801403,-0.00230392zm-0.0263964 -0.0105227c-0.0168128,0 -0.0300237,0.00642962 -0.0397274,0.0186999 -0.00167936,0.00212441 -0.00214518,0.00117199 -0.00214073,0.00203392l0.00142864 0.00106962c0.0100153,-0.0156527 0.0243803,-0.0166734 0.0404395,-0.0166734l0 -0.00513005zm0.024143 0.0709216l0.000366432 -0.000381267c0.000121649,0.000127584 -0.000341212,0.000357531 -0.000366432,0.000381267zm0.0126204 -0.00551131c0.000562258,-0.002522 0.000866381,-0.00442685 0.00164375,-0.00739836 0.00394619,-0.0150801 -0.0101221,-0.0124616 -0.0151231,-0.0349253 -0.00616407,0.00150282 -0.00805112,0.00513005 -0.0159316,0.00513005 -0.0149169,0 -0.0235599,-0.00750073 -0.0352516,0.00286321 -0.0107823,0.00955541 0.000443575,0.0289719 -0.0129839,0.0402778 -0.0122851,0.0103432 -0.0114825,-0.000703193 -0.0149644,0.0215334 -0.00113935,0.00728561 -0.00243299,0.0235852 -0.00802441,0.0276189l0.00137523 -0.00508109c-0.00568934,0.00398624 -0.00981058,0.00749331 -0.0154198,0.0120789 -0.00787012,0.00643704 -0.0178187,0.0154539 -0.00508554,0.022207 0.0031436,0.001666 0.0064133,0.00290772 0.0107022,0.00290772 0.0155919,0 0.0201627,-0.0015132 0.0310132,-0.0149955 0.0080615,-0.0100168 0.0195411,-0.0152937 0.0216803,-0.0183498 -0.0091608,-0.0022342 -0.0211967,-0.0148249 -0.0220586,-0.0256517 0.00110671,0.00133221 0.0001261,-0.000111265 0.00154435,0.00223271l0.000897535 0.00162446c0.000890118,0.00160815 0.00118386,0.00237661 0.00226387,0.0040441 0.0010993,0.00169567 0.00345959,0.00510483 0.00480515,0.00651418 0.0122287,0.0127999 0.0195114,0.00887447 0.0347487,0.00240777 0.0224206,-0.00951536 0.0138844,-0.023152 0.0197576,-0.0306245 0.00292849,-0.00372514 0.0119602,-0.00760012 0.0119602,-0.0131322 0,-0.00619967 -0.00439718,-0.00219562 -0.00612698,-0.00897684 0.00393284,0.0010993 0.00351893,0.0012788 0.00692512,0.00557807l0.00165265 0.002117zm-0.0196063 0.00384679c0.00996487,-0.000867865 0.00168974,0.002522 0.00857777,0.00513005 -0.00189595,0.00270893 -0.00346998,0.0032697 -0.00612698,0.00513153 -0.00262436,-0.00410196 -0.00201315,-0.000899019 -0.00245079,-0.0064133 -0.010407,0.000243299 -0.00674709,0.00844128 0.000149836,0.00892788l-0.00137523 -0.00508109c0.00507219,0.00355602 0.00421322,0.00748441 -0.000572642,0.00695924 -0.0027742,-0.000304124 -0.00394174,-0.00156216 -0.00511521,-0.00371476 -0.00338096,-0.0062056 0.00319552,-0.00901244 0.00464493,-0.0113327l0.000890118 -0.00178172c0.00156512,-0.0019004 -0.000166155,-0.000897535 0.00260359,-0.00167194l-0.0012254 0.00384679zm-0.0723013 0.0102616c-0.00289733,0.000808524 -0.00143161,0.000396102 -0.00269261,0.00102809 -0.00335574,0.00168381 -0.00260211,0.00155177 -0.00098358,0.00281871l0.00367619 -0.00384679zm-0.0833299 0.00513005c-0.000728413,0.00172238 -0.00176985,-0.000723962 -6.23082e-005,0.00153545 0.00201908,0.00267332 6.08247e-005,0.000344179 0.0025131,0.00102957 -0.00349371,-0.00491345 -0.000649786,-0.00323261 -0.00245079,-0.00256502zm0.0784283 0.0141069c-0.00704677,-0.00171793 -0.00826178,-0.00536593 -0.011082,-0.011487 -0.00372663,-0.00808969 -0.000235881,-0.00921272 -0.00730045,-0.0141633 -0.0043141,0.00105182 -0.00911629,0.00486153 -0.0116071,0.00837156 -0.0104826,0.014776 0.00180397,0.027874 0.00180397,0.0519087 0.00352338,-0.00247008 0.00505142,-0.0050618 0.00839381,-0.00788941 0.00290178,-0.00245227 0.00510038,-0.00446246 0.00824842,-0.00675748 0.0112911,-0.00823062 0.0115433,-0.00434377 0.0115433,-0.0199831zm-0.0919076 0.0294985c-0.00093314,0.00365245 -0.00160963,0.00392394 -0.00367619,0.0064133 0.00103847,-0.00466718 0.00067649,-0.00411234 0.00367619,-0.0064133zm0.0229176 -0.0188557l0.000364948 -0.000381267c0.000121649,0.000127584 -0.000341212,0.000357531 -0.000364948,0.000381267zm0.000364948 -0.000381267c0.000339728,-0.00426811 0.00238997,-0.0181762 -0.00980316,-0.0192384 0.00161853,0.00319997 0.00279645,0.00484817 0.00267035,0.00708979l-0.000458411 0.00171941c-0.000437641,0.00147314 -0.000795172,0.002387 -0.00162001,0.00453367 -0.00198645,0.0051701 -0.00124171,-0.00133814 -0.00181732,0.00589555 0.00624566,-0.00174611 0.00490158,-0.00375481 0.00490158,-0.0115433 0.00432597,0.00331717 0.00266145,0.00756007 0,0.0128251 0.00815793,0.000189892 0.00284986,-0.0013515 0.00490158,0.00384828 -0.00424289,-0.00118682 -0.00534071,-0.00384828 -0.0147047,-0.00384828 0.00505587,-0.00790276 0.0092053,-0.0121916 0.00367619,-0.0205202 0,0.00924387 0.000998415,0.00989663 -0.00310503,0.015988 -0.01234,0.0183097 -0.0182949,0.00837749 -0.0189209,0.0366298 -0.000212145,0.00958805 -0.0186658,0.10257 0.00364355,0.10257 0.0103847,0 0.0168306,-0.00178469 0.0259128,-0.00622637 0.00125655,-0.000614181 0.00388981,-0.00226387 0.005449,-0.00327563 0.00402482,-0.00261546 0.017657,-0.012745 0.017657,-0.0174315 0,-0.00997229 -0.00697407,-0.0230852 -0.0159316,-0.0230852 -0.00408119,0 -0.00758825,0.00382751 -0.012254,0.00641182 0.000936107,0.00204134 0.00502175,0.0147211 0,0.0205217 0,-0.0320457 -0.0110286,-0.0360676 -0.0110286,-0.0666936 0,-0.0107215 0.00338393,-0.0155622 0.0109737,-0.020578 0.00836117,-0.00552615 0.00687023,-0.0114855 0.0196627,-0.0114855 -0.00374295,-0.00534516 -0.00944415,-0.00177875 -0.0140624,-0.000608247 -0.00927799,0.00235288 -0.00706308,-0.00264365 -0.0190248,0.00573829 0.00321036,-0.0125833 0.0330872,0.00279349 0.0330872,-0.0346285 -0.0071699,0.00549796 -0.000741765,0.0128578 -0.00980465,0.0153916zm0.186268 -0.00128325c0,-0.00920382 -0.00373849,-0.0132019 -0.00785974,-0.0187088 -0.00382157,-0.00510483 -0.00887596,-0.00912519 -0.0141989,-0.012073 0,0.00432152 -0.000774402,0.0142582 -0.00147314,0.0189788 -0.00310058,0.0209311 -0.0285861,0.0124542 -0.037741,0.0207813 0.0228909,0 0.0346004,0.00384679 0.0477919,0.00384679 0.00978833,0 0.0134808,-0.00444762 0.0134808,-0.0128251zm-0.0920604 0.0267733c-0.000185441,0.000179507 -0.000452477,0.000437641 -0.000639401,0.000614181 -0.00295964,0.00282612 -0.00446839,0.00396844 -0.00656165,0.00724111l0.0183572 -0.00900354c0.00630797,-0.00418207 0.0136381,-0.0151869 0.0325753,-0.00838936 0.00256947,0.000922755 0.00657055,0.00315398 0.00877656,0.00377558 0.00447284,0.00125952 0.0130491,-0.00405597 0.015043,-0.00690286 -0.00995745,0 -0.016976,-0.00256502 -0.0281856,-0.00256502 -0.0185174,0 -0.0169612,-0.00131737 -0.0318751,0.00896349 -0.00113045,0.000778853 -0.00303827,0.00204579 -0.00432746,0.00316437l-0.00316289 0.00310206zm-0.0562184 -0.00496982l0 -0.00256502c-0.0144392,0.000336761 -0.0145549,0.0106651 -0.0207694,0.0154569 -0.00587478,0.00452922 -0.0172193,0.00743248 -0.0172193,0.0178884 0,0.00796655 -0.000272969,0.0207427 0.00612698,0.0256517 0.00150727,-0.00381564 -5.19235e-005,-0.00242557 -0.0012254,-0.00769507 0.00318514,0.00244041 0.00580357,0.00830332 0.0122554,0.0128251 -0.00448619,-0.0201523 -0.00602758,-0.00868903 -0.0105969,-0.0184076 -0.000789238,-0.00167787 -0.00165859,-0.00521016 -0.00165859,-0.00724408 0,-0.00653643 0.0195856,-0.0223375 0.0262926,-0.0246919 0.00323855,-0.00113638 0.0017921,0.00116457 0.00456482,-0.00222233 0.00762089,-0.00930915 -0.00633467,-0.00386905 -0.00634802,-0.00386608 0.00214073,-0.00305755 0.00446839,-0.00412866 0.00857777,-0.00513005zm0.0465665 0.0410418c0,-0.0115567 0.0161779,-0.0265626 0.0196078,-0.0333468 -0.00439718,0.00107259 -0.0165354,0.00843832 -0.0212323,0.011125 -0.0151543,0.00867123 -0.023465,0.0077099 -0.0375897,0.00426515 -0.0253758,0.0396622 -0.0107467,0.0374206 -0.00861189,0.0795543 0.000359014,0.00707792 0.0016304,0.0114736 0.00130699,0.0178825 -0.000272969,0.00544752 -0.00159924,0.0313143 -0.00372366,0.0359489 0.0152967,-0.00372959 0.0397527,-0.0151379 0.0506611,-0.0239323 0.00992481,-0.00800068 0.000489565,-0.015353 0.00656314,-0.0316066 0.00276382,-0.00739243 0.00924536,-0.0181599 0.0163025,-0.0201315l0 -0.00256502c-0.00735831,-0.000640885 -0.0122554,-0.00673671 -0.0157862,-0.0116947 -0.00732567,-0.0102942 -0.00749776,-0.0134081 -0.00749776,-0.0254989zm-0.069849 0.00641182c0.00189595,-0.00852139 0.00613885,-0.0196627 0.010987,-0.026975 0.00185886,-0.00280387 0.00312135,-0.0035219 0.00494312,-0.00637028 -0.00847244,0.00236771 -0.0341657,0.0232469 -0.0159301,0.0333453zm0.15808 -0.0153901c0,-0.0114825 -0.00870535,-0.0222782 -0.0167105,-0.0262051 -0.00852288,-0.00418059 -0.00198645,0.00211106 -0.0135105,-0.00497576 -0.0320591,-0.0197161 -0.0406606,0.0224859 -0.0469804,0.0273326l0.00387943 -0.0079087 -0.00142864 -0.00106814c-0.0106473,0.0166408 -0.0176421,0.0250524 -0.0025042,0.0475086 0.00577686,0.0085659 0.0139615,0.00924239 0.0184343,0.0114885 8.30777e-005,-0.000185441 8.30777e-005,-0.000520719 0.000106814,-0.000603797 0.00107704,-0.00378448 0.00181881,-0.00331569 0.00475175,-0.00710166 0.00224161,-0.00289437 0.00388981,-0.00439867 0.00700819,-0.00680792 0.0132153,-0.0102037 0.0225942,-0.00614626 0.0285728,-0.0060083 0.000836711,0.00247749 -0.000738798,0.00047918 -0.0012254,0.00513153 0.0112422,-0.00274156 0.0196063,-0.0152581 0.0196063,-0.0307818zm-0.144217 0.112462c0.00156957,0.00369251 0.0017832,0.00599939 0.00451735,0.0080971 9.34624e-005,-0.0043957 0.00087825,-0.0106962 0.00130551,-0.0165888 0.00314063,-0.0432078 -0.00498169,-0.0458351 -0.00498169,-0.0770367 0,-0.0262407 0.0109069,-0.0269172 0.0134794,-0.0384768 -0.00461971,-0.00129067 -0.00567598,-0.00330975 -0.00612698,-0.00897684 -0.00444762,0.0031169 -0.0111532,0.0133547 -0.01365,0.0190604 -0.00875728,0.0200084 -0.00424289,0.0242943 0.00106814,0.0531044 0.00912222,0.0494965 -0.0017654,0.0316111 0.00145831,0.0509667 0.000815941,0.00489416 0.00118089,0.00573829 0.00292997,0.00985064zm-0.00528582 -0.0547482c-0.000544455,-0.00684352 -0.00265403,-0.0121427 -0.00414647,-0.0187444 -0.00240183,-0.0106132 -0.0114662,-0.0163455 -0.0166867,-0.0081876 0.012254,0.000284838 0.0183824,0.0153189 0.0183824,0.026932l0.00245079 0zm0.129896 -0.0179552c-0.000103847,-0.00486894 -0.00109188,-0.010134 -0.00451141,-0.0119721 -0.00591632,-0.00318069 -0.0298011,0.00724853 -0.0298011,0.0171021 0,0.00248343 0.00166749,0.00417317 0.00245079,0.00769507l0.00245079 0c0.000445059,-0.00560626 0.00610918,-0.00958063 0.0106102,-0.011981 0.00459004,-0.00245079 0.0139155,-0.00329789 0.0188008,-0.000844128zm0.134162 0.0923646c-2.96706e-006,0 -9.04953e-005,-2.07694e-005 -9.19788e-005,-2.07694e-005 -0.00121204,-0.000206211 0.000728413,-0.00328157 0.000728413,0 0,0.00290327 8.60447e-005,5.19235e-005 -0.000636434,2.07694e-005zm-0.120682 -0.052606c-0.00134259,-0.00602906 -0.0128221,-0.0384753 -0.0183809,-0.0384753 -0.0115715,0 -0.023284,0.00610176 -0.023284,0.0141069 0,0.00313915 0.00506774,0.0191375 0.0062783,0.0229294 0.00259321,0.00812232 0.0044046,0.012254 0.00801848,0.0198229 0.0111443,0.0233359 0.0153293,0.0213762 0.0543283,0.0213762 0.0135506,0 0.0294852,-0.00769507 0.0477919,-0.00769507 0.0227648,0 0.0174196,0.00942635 0.0172312,0.0205766 -0.000112748,0.0066566 0.0114959,0.0212234 0.0121798,0.0217471 0.00240332,-0.0108016 -0.00284986,-0.0101192 -0.00367619,-0.0205217 0.00322668,0.00226238 0.00412866,0.00371179 0.00688654,0.0068999l0.00377558 0.00374443c0.0151899,0.012561 0.00584214,0.014994 0.0150712,0.0175724 -0.00233656,-0.00509889 -0.00170161,-0.0107422 -0.00442834,-0.0158871l-0.00782562 -0.0110464c0.00531994,0.0014865 0.00877063,0.00991295 0.012254,0.0141084 0,-0.0109484 -0.00306497,-0.00714468 -0.00490158,-0.0153916 0.00247156,0.00189595 0.00398624,0.00410493 0.00490158,0.00769507l0.00245079 0c-0.000228464,-0.0107066 -0.0058006,-0.00804518 -0.00857777,-0.0205202 0.00393877,0.00197903 0.00440163,0.000792205 0.00924536,0.00186628 0.00409751,0.000909404 0.00352932,0.00159924 0.00791018,0.001982 -0.00390465,-0.00610472 -0.00822914,-0.00556324 -0.0156839,-0.0079532 -0.0192236,-0.00616555 -0.021075,-0.0213079 -0.0492146,-0.0215972 -0.0512367,-0.00052517 -0.0645187,-0.0165236 -0.0846042,-0.0114914 0.00269261,-0.00384679 0.00598604,-0.00384828 0.012254,-0.00384828zm-0.0661728 0.0448901c-0.00263772,-0.000999899 -0.00118979,-5.78577e-005 -0.00304717,-0.00194194 -0.00187963,-0.0019093 -0.000901986,-0.000431707 -0.00158293,-0.00347294l0.0046301 0.00541488zm-0.0159316 -0.00256502c0.000121649,0.000127584 -0.000341212,0.000357531 -0.000364948,0.000381267l0.000364948 -0.000381267zm-0.035538 0.0666921c0.000121649,0.000127584 -0.000341212,0.000357531 -0.000364948,0.000381267l0.000364948 -0.000381267zm0.124995 0.0166734c-0.00308426,-0.00482147 -0.00762534,-0.00963553 -0.0149466,-0.0215498 -0.0161645,-0.026303 -0.0163307,-0.039861 -0.0405004,-0.0653465 -0.00216892,-0.00228612 -0.00375185,-0.00432894 -0.00635099,-0.0061789 -0.0159168,-0.0113342 -0.0205736,-0.0193037 -0.0301097,-0.00568044 0.0046835,0.00259321 0.0120418,0.00719067 0.0134808,0.0128251 -0.00304124,-0.00213035 -0.00573384,-0.00471466 -0.00911777,-0.00714765 -0.00799474,-0.00574868 -0.00733012,-0.00388388 -0.01049,-0.00311393 0.0015488,0.00607209 0.00592225,0.00721886 0.00709721,0.0130981l-0.0107734 -0.0105316c-0.00582434,0.00141974 -0.0227114,0.0119632 -0.0367633,0.0153901 0.000431707,0.0202799 0.0120923,0.0539337 0.012254,0.061562 -0.00546087,-0.00822766 -0.0136781,-0.0441736 -0.0145045,-0.0527944 -0.000583027,-0.00609286 0.000290772,-0.0099708 -0.00510186,-0.0164627 -0.00730193,0.0328038 -0.0050173,0.0348704 -0.00366729,0.0679649 0.000213628,0.0052517 0.000761051,0.00673819 0.00108594,0.0116887 0.000289288,0.00441202 -0.000657204,0.00755858 0.00380674,0.00755858l0.144601 -0.00128177zm-0.150728 -0.112864c-0.011573,0.00811046 -0.0224992,0.0352398 -0.0277257,0.0517826 -0.00338245,0.0107096 -0.0156705,0.0533017 -0.01639,0.0623631l0.0257333 0c0,-0.0220438 0.0031347,-0.0440415 0.00930915,-0.0646463 0.00115715,-0.00386311 0.000924239,-0.00345959 0.00294629,-0.00589406l-0.00630797 0.0344401c-0.00180694,0.011306 -0.0034952,0.0225749 -0.0034952,0.0361002l0.0171555 0c-0.00364058,-0.00793837 -0.00367619,-0.0422895 -0.00367619,-0.053867 0,-0.00962366 0.00158589,-0.0247512 0.00368509,-0.0321229 0.00271338,-0.00953613 0.00288101,-0.00316289 -0.000172089,-0.0125269 -0.00155771,-0.00477845 -0.00106221,-0.00914151 -0.00106221,-0.015629zm0.123769 -0.0923438c0,0.0147656 -0.0211299,0.0244486 -0.024953,-0.00220304 -0.00110523,-0.00770249 0.00166897,-0.0159865 0.00166897,-0.0260122 0.00517752,0.00126248 0.0105776,0.00662841 0.0144347,0.010542 0.0045218,0.00458707 0.00884925,0.0118119 0.00884925,0.0176733zm-0.0330872 0.0256502c0,0.00346404 -0.000585994,0.00353673 -0.0012254,0.0064133 -0.0202947,0 -0.0164301,-0.0308085 0,-0.0423236 -0.00729897,0.0327905 0.0012254,0.0288116 0.0012254,0.0359103zm0.0563697 -0.0256502c0,0.0210053 -0.012254,0.0196701 -0.012254,0.0153901 0,-0.00799474 0.00245079,-0.00448174 0.00245079,-0.0179552 0,-0.00819502 -0.0083226,-0.0147136 -0.00980316,-0.0205202 0.00540005,0.00271041 0.0196063,0.00479625 0.0196063,0.0230852zm-0.0490173 -0.061562c-0.00317475,-0.000887151 -0.0044402,-0.0022342 -0.00735237,-0.00384828 0.000304124,0.00382602 0.000881217,0.0064133 0.00490158,0.0064133 0.00165265,0 0.00183809,-0.00142419 0.00245079,-0.00256502zm0.00857777 0c-0.000218079,0.000198793 -0.000574126,0.000188408 -0.000670555,0.000578577l-0.00449806 0.00427998c-0.00887893,0.00850656 -0.018016,0.000952426 -0.0144377,-0.0151187 0.00413608,0.00229057 0.00659726,0.00213183 0.0106829,0.00421026 0.00531104,0.00270299 0.00369547,0.00458856 0.00892343,0.00604983zm-0.00857777 -0.0384768c-0.000669072,-0.00300415 -0.0012254,-0.00378893 -0.0012254,-0.00769507l-0.0012254 0c0,0.00665066 -0.00109336,0.00497873 0.00245079,0.00769507zm-0.00245079 0.00384828c-0.00106962,-0.0134571 -0.00208436,-0.0156705 -0.00980316,-0.0102601 0.00153397,0.006891 0.00321926,0.00865491 0.00980316,0.0102601zm0.00735237 -0.0153901c-0.000559291,0.00703786 -0.00330975,0.00460339 0.00245079,0.00513005 -0.00261843,0.00374146 -0.00652308,0.00348926 -0.00857777,0.0115419 -0.00509444,0 -0.00456185,0.00068094 -0.00792798,-0.00196271 -0.00472356,-0.00370734 -0.00432597,-0.00671742 -0.00432597,-0.0108624 0.010361,-0.00726188 0.0064044,-0.00397734 0.0103758,-0.00477548 0.00256651,-0.000516268 0.00264958,-0.000793688 0.00432894,-0.00163633 0.000551873,0.00527246 -0.000169122,0.00442537 0.00367619,0.00256502zm-0.136023 0.111581c-0.00482741,-0.00370141 -0.0012254,0.000725446 -0.0012254,-0.0166734 0.015491,-0.00377707 0.00799326,-0.0100806 0.0245094,-0.0141069 -0.0026392,0.0103447 -0.023284,0.00746364 -0.023284,0.0307803zm0.145827 -0.117994l0 0.00256502c-0.0117525,-0.000274453 0.00219414,-0.0064133 -0.0220571,-0.0064133 0.00145238,-0.00132034 -0.00106221,-0.000369399 0.00202502,-0.00172683 0.0090703,-0.00398624 0.0153308,0.0042607 0.0200321,0.0055751zm-0.00367619 0.0474537c0.002387,-0.0021704 -0.0012966,0.000799622 0.00197903,-0.00177727 0.00137078,-0.00107853 0.00182919,-0.00130402 0.00292255,-0.00206952 -0.00117941,0.00462268 -0.000111265,0.00342992 -0.00490158,0.00384679zm0.165353 -0.12359l-0.33314 0c-0.0101785,0 -0.018507,0.0070171 -0.018507,0.0155934l0 0.391702c0,0.00857629 0.00832854,0.0155934 0.018507,0.0155934l0.33314 0c0.0101785,0 0.018507,-0.0070171 0.018507,-0.0155934l0 -0.391702c0,-0.00857629 -0.00832854,-0.0155934 -0.018507,-0.0155934zm-0.0170903 0.0823003c0,0.0111858 -0.00873651,0.0167787 -0.0262095,0.0167787 -0.00425031,0 -0.00791018,-0.000556324 -0.0109796,-0.00166749 -0.00204727,-0.000765501 -0.00448619,-0.00211996 -0.00731974,-0.00406487 -0.00228315,-0.00152804 -0.00342399,-0.00298783 -0.00342399,-0.00437641 0,-0.00159924 0.00098358,-0.00239738 0.00295222,-0.00239738 0.000629017,0 0.00125803,0.000139452 0.00188853,0.000416872 0.00700523,0.00284838 0.0126323,0.00427257 0.0168826,0.00427257 0.00220304,0 0.00397438,-0.000520719 0.00531252,-0.00156364 0.00133814,-0.00104144 0.00200722,-0.00236178 0.00200722,-0.00395954 0,-0.0034047 -0.00232172,-0.00590593 -0.00696517,-0.00750369 0,6.97259e-005 -0.00310948,-0.000937591 -0.00932695,-0.00302195 -0.00818612,-0.00278013 -0.0122792,-0.00802441 -0.0122792,-0.0157373 0,-0.00423696 0.00171199,-0.00791908 0.00513598,-0.0110464 0.00342399,-0.0031258 0.00769358,-0.00468944 0.0128103,-0.00468944 0.00228167,0 0.0049179,0.000450993 0.00791018,0.00135446 0.00133666,0.000416872 0.00287211,0.00062605 0.00460339,0.00062605 0.0021259,0 0.00389723,-0.000278904 0.00531252,-0.000833744 0.00236178,-0.00104292 0.00389723,-0.00156364 0.00460488,-0.00156364 0.00180991,0 0.00271486,0.00211848 0.00271486,0.00635692 0,0.00139007 -0.000629017,0.00284838 -0.00188853,0.0043779 -0.00165265,0.00187518 -0.00377707,0.00281277 -0.00637473,0.00281277 -0.00189002,0 -0.00389575,-0.000798139 -0.00602165,-0.00239738 -0.0021259,-0.00159776 -0.00421026,-0.0023959 -0.00625753,-0.0023959 -0.00425031,0 -0.00637473,0.00173721 -0.00637473,0.00519235 0,0.00298783 0.00169271,0.00510779 0.00509592,0.00634061 0.00218376,0.000712094 0.0063955,0.00210216 0.012613,0.00420284 0.00417169,0.00139007 0.00747699,0.00343882 0.0099174,0.00614923 0.00244041,0.00270893 0.00365987,0.00548906 0.00365987,0.00833744zm-0.0175516 0.0681252c-0.000235881,0.000520719 -0.00102364,0.00111116 -0.00236178,0.00177133 -0.000864898,0.000313025 -0.00188853,0.000468795 -0.00306942,0.000468795l-0.000826326 0c-0.00121946,0 -0.00230244,-0.000520719 -0.00324596,-0.00156364 -0.000945008,-0.00104144 -0.00141677,-0.00234398 -0.00141677,-0.00390762l0 -0.0238136c7.86271e-005,-0.00229205 -0.000216595,-0.00361239 -0.000885667,-0.00395954 -0.00110226,-0.000556324 -0.00165265,-0.00100732 -0.00165265,-0.00135446 0,-0.000556324 0.000314508,-0.00116457 0.000943525,-0.00182474 0.000945008,-0.00100732 0.0021259,-0.0019093 0.00354267,-0.00270893 0.00184996,-0.00104292 0.00360053,-0.00156364 0.00525318,-0.00156364 0.00114232,0.000139452 0.00171199,0.00135446 0.00171199,0.003648l0 0.0287107c0,0.00198051 0,0.00310948 0,0.00338838 7.86271e-005,0.000867865 0.000333794,0.00144051 0.000768468,0.00171941 0.000314508,0.000137968 0.000618632,0.00027742 0.000913854,0.000416872 0.000295222,0.000137968 0.00040352,0.000329344 0.000324893,0.000572642zm0.00707347 0.0459197c-0.000275937,0.000590445 -0.00106221,0.00116457 -0.00236178,0.00171941 -0.000746215,0.000347146 -0.00176985,0.000520719 -0.00306942,0.000520719l-0.000531104 0c-0.0016126,0 -0.0028914,-0.000728413 -0.00383641,-0.00218821 -0.00169271,0.00145979 -0.00403372,0.00218821 -0.00702451,0.00218821 -0.00283354,0 -0.00524428,-0.000858964 -0.00723221,-0.00257837 -0.00198645,-0.00171941 -0.00298041,-0.00383047 -0.00298041,-0.0063317 0,-0.00246563 0.00108149,-0.00456779 0.00324596,-0.006305 0.00216595,-0.00173721 0.0046835,-0.00260508 0.0075571,-0.00260508 0.00263623,0 0.00450548,0.00027742 0.00560774,0.000833744l0 -0.00192859c0,-0.00274305 -0.00120018,-0.00411531 -0.00360053,-0.00411531 -0.00102364,0 -0.00207694,0.000433191 -0.00315843,0.00130254 -0.00108298,0.000867865 -0.00211551,0.00130254 -0.00309909,0.00130254 -0.00153545,0 -0.00273563,-0.0005044 -0.00360053,-0.00151172 -0.000670555,-0.000764018 -0.00100435,-0.00157996 -0.00100435,-0.00244931 0,-0.00194491 0.000393135,-0.0029181 0.00118089,-0.0029181 0.000433191,0 0.00108149,0.000200277 0.00194787,0.000599346 0.000866381,0.000399069 0.00192859,0.000599346 0.00318811,0.000599346 0.00110078,0 0.00235139,-0.000200277 0.00374888,-0.000599346 0.001396,-0.000399069 0.00286173,-0.000599346 0.00439718,-0.000599346 0.00220453,0 0.00411234,0.000660171 0.00572642,0.00198051 0.00188853,0.00156364 0.00283206,0.00368212 0.00283206,0.00635692l0 0.0115686c0,0.00173573 2.07694e-005,0.00274453 5.93412e-005,0.00302195 7.86271e-005,0.000486598 0.000335278,0.000867865 0.000766985,0.00114677 0.000315992,0.000137968 0.0006305,0.00027742 0.000945008,0.000416872 0.000314508,0.000137968 0.000413905,0.000329344 0.000295222,0.000572642zm-0.010625 -0.00302195l0 -5.19235e-005 0 -0.00833744c-0.0006305,-0.000313025 -0.00155474,-0.000468795 -0.0027742,-0.000468795 -0.00133814,0 -0.00251903,0.000502917 -0.00354267,0.00151023 -0.00102364,0.00100732 -0.00153397,0.00220601 -0.00153397,0.00359608 0,0.00142419 0.000412421,0.00259618 0.00123875,0.00351745 0.000826326,0.000921272 0.0019093,0.00138117 0.00324745,0.00138117 0.00153397,0 0.00265552,-0.000382751 0.00336465,-0.00114677zm0.0113431 0.0240347c0.000158738,0.000347146 0.000237365,0.000815941 0.000237365,0.00140639 0,0.00257096 -0.00157551,0.00720847 -0.00472356,0.0139125 -0.00240035,0.00503807 -0.00484076,0.00963998 -0.00731974,0.0138087 -0.00397438,0.00653198 -0.00810601,0.00979723 -0.0123964,0.00979723 -0.000590445,0 -0.00120018,-6.97259e-005 -0.00182919,-0.000209178 -0.00118089,-0.000243299 -0.00177133,-0.00178914 -0.00177133,-0.00463751 0,-0.00211848 0.000393135,-0.00305607 0.00118089,-0.00281277 0.00121946,0.000381267 0.00238107,0.000572642 0.00348184,0.000572642 0.00181139,0 0.00342399,-0.000450993 0.00484076,-0.00135595 0.00125952,-0.000762534 0.00214518,-0.00171941 0.002657,-0.0028647 0.000118682,-0.000243299 7.86271e-005,-0.000416872 -0.000118682,-0.000520719 -3.85718e-005,0 -7.86271e-005,0 -0.000117199,0 -0.000118682,-3.56047e-005 -0.000197309,-5.34071e-005 -0.000237365,-5.34071e-005 -0.00141677,0 -0.00297003,-0.00197903 -0.00466273,-0.00594005l-0.00596231 -0.0138606c-0.000235881,-0.000556324 -0.000590445,-0.00119869 -0.00106221,-0.00192711 -7.86271e-005,-0.000139452 -0.000384234,-0.000382751 -0.000915338,-0.000729897 -0.000531104,-0.000347146 -0.000796655,-0.000695775 -0.000796655,-0.00104292 0,-0.000658687 0.00100287,-0.00147611 0.00302047,-0.00244931 0.00188853,-0.000901986 0.00334536,-0.00135446 0.00436899,-0.00135446 0.00130847,0 0.00234991,0.000869348 0.00313767,0.00259766 0.00121946,0.00270893 0.00361091,0.00862376 0.00718177,0.0177252 0.00110226,-0.00222381 0.00216447,-0.00519384 0.00318811,-0.00891156 0.000590445,-0.00211848 0.000885667,-0.00428888 0.000885667,-0.0065127 0,-0.00184106 -0.000235881,-0.00330085 -0.000709127,-0.00437641 -0.000157254,-0.000382751 0.000216595,-0.000686874 0.00112155,-0.000912371 0.000904953,-0.000225497 0.00196864,-0.000339728 0.00318811,-0.000339728 0.00240035,0 0.00377855,0.000330827 0.00413163,0.000990998z"/>
 </g>
</svg>
