<?xml version="1.0" encoding="UTF-8"?>
<!DOCTYPE svg PUBLIC "-//W3C//DTD SVG 1.1//EN" "http://www.w3.org/Graphics/SVG/1.1/DTD/svg11.dtd">
<!-- Creator: CorelDRAW -->
<svg xmlns="http://www.w3.org/2000/svg" xml:space="preserve" width="5548in" height="7180in" style="shape-rendering:geometricPrecision; text-rendering:geometricPrecision; image-rendering:optimizeQuality; fill-rule:evenodd; clip-rule:evenodd"
viewBox="0 0 66.0022 77.5841"
 xmlns:xlink="http://www.w3.org/1999/xlink">
 <defs>
  <style type="text/css">
   <![CDATA[
    .fil0 {fill:#040507}
   ]]>
  </style>
 </defs>
 <g id="Layer_x0020_1">
  <metadata id="CorelCorpID_0Corel-Layer"/>
  <path class="fil0" d="M28.3078 6.44803c0.561416,-0.141881 0.957736,-0.131038 1.77848,-0.16479 0.410829,-0.0167997 0.818604,-0.05269 1.22913,-0.0200069 1.34153,0.106602 0.0977437,-0.0317667 0.718111,0.184797l-0.452523 0.139132c-0.683595,0.122638 -2.42603,0.194877 -3.27319,-0.139132zm-15.5727 21.8376c-0.0447483,-0.0320722 -0.0248941,-0.0647552 0.123096,-0.088733m1.10817 -1.14498l-0.13455 0.0908711 0.13455 -0.0908711zm0.308504 -0.124318l-0.308504 0.124318 0.308504 -0.124318zm-13.0595 13.4149l1.05059 0.318583c-0.330038,0.881221 -1.55764,0.818146 -1.24852,2.09477l-0.965525 0.211065 -0.0519264 0.595015c0.00290177,1.03318 0.171968,2.00665 1.54466,2.13799 2.51095,0.240236 2.72079,-0.311864 3.05266,-0.485664 0.383033,-0.200527 0.405789,-0.16815 0.887024,-0.334467l-1.29587 -1.01989c0.434349,-0.834487 0.606011,-0.258257 0.597306,-1.09549l0.384255 -1.36261c-0.0340576,-0.0181742 -0.0902602,-0.0462756 -0.105227,-0.05269l-0.656868 -0.218243c-0.327442,-0.0768205 -0.653661,-0.122332 -1.02463,-0.223742 -0.508267,-0.139132 -0.18327,-0.023825 -0.617771,-0.195793 -0.0768205,-0.0303922 -0.293995,-0.120958 -0.358292,-0.156848 -0.538507,-0.30102 -0.381048,-0.00503991 -0.558056,-0.558361l-0.633807 0.346379zm12.6164 -13.1997c-0.245887,0.856785 -0.474821,0.719486 -0.973619,1.05411 0.016647,-0.00259632 0.0355848,-0.00519264 0.0555918,-0.00763623 0.109045,-0.0134398 0.268337,-0.0233669 0.493759,-0.027185l0.510406 0.0233669c-0.958041,1.41912 -0.111184,0.527816 -0.799513,0.535452 -1.09198,0.0123707 0.586768,-0.599291 -0.802262,-0.0248941l-0.0247414 0.0102325m2.09065 5.26289c0.500937,-0.339354 0.891606,-0.912835 1.39315,-1.13658 0.761943,-0.339812 1.07121,0.103395 1.42049,-1.0396l0.763012 -0.0291704 -0.163721 0.293689 0.387462 0.295369 -0.0612426 0.0655189c0.0529954,0.330496 -0.112558,0.255508 0.446872,0.255508 -0.34195,1.29572 0.0881221,1.16926 0.315682,1.9871 0.199458,0.716278 -0.360888,1.24898 0.247872,2.03551 -0.0818604,0.392044 -0.0603262,0.913751 -0.509642,1.22668l-0.110267 1.21874m-6.56548 -3.13024l0.0562027 -0.103547m6.50927 3.23379l0.0435265 0.987823 -0.159139 0.654119 -0.038792 0.222672 -0.038792 0.216105 -0.20068 0.555459c0.101409,0.968121 -0.438625,1.49884 -0.802262,2.30858 -0.403957,0.899701 -0.320722,1.57138 -0.431447,2.5366 -0.203887,1.77878 -1.22806,3.04365 -1.66821,4.77631 -0.969038,3.81384 1.24104,6.12029 0.588448,7.46945 -0.618535,1.27907 -0.741783,0.937271 -0.530565,2.35715 -0.762096,0.262534 0.698257,0.243901 -0.178993,-0.0755987 -0.737049,-0.26849 0.471614,-0.288649 -0.336147,-0.0983546 -0.351419,1.38903 -1.09336,2.15143 -1.36566,3.41675 -0.307129,1.42736 -0.298577,2.3373 -0.852967,3.6825 -0.583408,1.4156 -0.940325,1.47975 -0.209385,2.06942l0.322554 0.201902c0.552863,0.527358 -0.425796,1.36062 -1.33588,2.2391 -0.860909,0.83128 -1.1352,0.541561 -1.36093,1.17216l1.69952 -0.806539c0.305755,0.196557 0.52186,0.120652 -0.635029,0.717042 -0.739951,0.381506 -0.671683,0.371273 -1.41331,0.558056 -1.29908,0.326983 -2.62335,0.678097 -1.94922,3.28144l10.4551 -0.00824713c-0.159597,-0.814786 -0.175175,-5.92602 -0.401666,-6.60855 2.91124,-0.626171 1.22485,-0.450385 2.79959,-1.77558 2.49781,-2.10195 2.66734,-5.92938 3.16262,-8.64986 0.0728496,-0.400444 3.95664,-9.96864 4.35861,-10.5392l0.547059 -0.665268c0.621284,1.40919 -0.374328,2.51537 0.697799,4.00917 0.820742,1.1433 2.6681,5.8747 2.63755,7.35522 -0.0294758,1.43072 0.124623,2.78951 0.750183,4.10508 0.679624,1.42935 1.07686,1.92876 2.29377,3.05632 0.0995764,0.0920929 0.675348,0.6054 0.699326,0.63732 0.656563,0.873279 -0.0349739,-0.204346 0.168455,0.809593 0.401666,2.00329 1.72426,0.0151197 2.17465,2.52637l-0.492384 5.71144 9.44892 0.0268795c0.0586462,-1.20652 -0.0855258,-1.76061 -0.502311,-2.68444 -1.68745,-0.342714 -2.77943,-0.157459 -3.25258,-1.20714l1.94418 0.424422c-1.41805,-1.64988 -0.618076,0.23153 -2.11982,-3.35918 -0.14463,-0.345768 -0.0986601,0.0928566 -0.121874,-0.319194 -0.0123707,-0.222214 0.747892,-1.28976 -0.703297,-2.00084 1.20805,-1.10496 1.22241,-1.56802 0.360277,-3.13376 -1.24929,-2.26949 -1.6702,-5.57032 -2.37609,-7.02014 -0.645567,-1.3255 0.731245,-1.03089 0.721318,-3.65668 -0.00839985,-2.20565 1.05899,-2.40053 0.40976,-3.37017 -1.82216,-2.7214 -0.28926,-5.50313 -1.51778,-7.51405 -1.97794,-3.23776 0.264824,-0.718722 -0.633807,-2.96377l-0.206178 -3.803 0.00763623 -0.782866c-0.137147,-0.106144 -0.269864,-0.194418 -0.480319,-0.439694 -0.492384,-0.573634 -0.633807,-5.27297 -0.614716,-5.82201 0.657479,1.08068 -0.368219,0.439083 0.985532,0.774925 0.368219,-0.53362 0.953918,-0.851134 1.183,-1.1998 0.431294,-0.65641 0.165706,-1.04586 0.323471,-1.77634 0.0994237,0.259326 0.0846094,0.893592 0.511627,1.26899 0.0969801,-0.978965 0.481846,-1.96434 1.23997,-2.68963 1.23371,-1.18041 0.960638,-0.880305 1.6201,-2.38357 0.432363,-0.985379 1.18407,-1.43851 1.36948,-2.52515 0.178382,-1.04571 0.814175,-2.07751 0.799208,-2.85167l-0.127525 -0.237334c-0.0270323,0.0557445 0.0711697,0.113474 -0.196862,0.208469 -0.848232,0.300715 -0.214273,0.00244359 -0.386393,-0.0639916 0.151503,-0.183117 0.256272,-0.344852 0.384713,-0.448094 0.252454,-0.202971 0.315376,-0.170593 0.470697,-0.231072 1.49792,-5.3585 7.87372,-6.85092 3.96259,-8.18787 0.24329,-0.374786 0.609218,-0.416785 0.947809,-0.697493 -0.618076,-0.869308 0.118514,-1.59124 -0.578063,-2.39335 4.95362,-0.72422 7.46747,-0.810815 11.7262,-1.37956 4.1254,-0.550878 5.20944,-0.807149 2.10653,-3.89066 -4.9973,0.220229 -7.93358,3.4166 -11.5171,2.83044 -0.310642,-0.798139 0.722082,-1.1265 0.957125,-2.25024 -0.807149,-0.286511 -1.80139,-0.398153 -3.10764,-0.399986 0.398764,0.872516 0.00778895,1.17735 -0.427476,1.91868 -0.477417,0.0757514 -0.00839985,-0.00137452 -0.385477,-0.0293231l-2.40389 0.0284068 -1.8608 0.511169c-0.498951,-1.52419 -2.80586,-3.36284 -4.62694,-3.82819 -0.777063,0.263297 -1.40583,0.694744 -1.9393,1.23111 0.04933,0.0355848 0.13119,0.042152 0.156695,0.102631 0.0390975,0.0933147 3.13864,1.44309 3.19836,2.71453 0.0197015,0.419993 0.0555918,0.270933 -0.49437,1.01043 -2.91964,-0.561874 -10.9925,0.678403 -11.9846,0.687261 -2.33882,0.0209233 -3.34864,-0.245734 -3.68204,-0.228781 -0.875723,0.0442901 -1.0958,0.668628 -8.04324,0.354627 0.207553,1.61018 1.21095,0.940173 3.14949,0.738576 1.86202,-0.193808 3.64829,-0.0864421 5.51168,-0.125234 0.636403,0.607538 0.0192433,-0.584782 -0.094842,0.277806 -0.00229087,0.0169524 -0.0224505,0.0701006 -0.0219923,0.088733l0.0902602 0.288802c0.3027,0.443818 0.651065,0.77691 1.39178,0.90978l0.401666 -0.903824 7.66998 -0.0203124c3.63897,-0.124623 2.37609,0.243901 4.69032,0.184644l3.2147 -0.493606c1.50968,0.565997 -0.400291,0.218854 2.46406,1.29526 0.0389448,0.0145088 0.128136,0.0444429 0.180215,0.0746823 -0.0558972,0.804859 -2.00741,2.94514 -2.81456,3.80681 -0.492384,0.525525 -0.39067,0.871905 -1.37803,2.0068 -2.4746,2.84465 -1.1937,1.43943 -2.73438,3.84835l-2.51537 4.1312c-0.565997,0.515751 -1.92693,1.60132 -2.96255,0.880152 -0.28529,-0.198695 0.215342,-1.02325 0.396473,-1.29037 0.524762,-0.774161 0.528274,-0.639305 1.70425,-0.913446 -0.407622,-1.24089 -0.775994,-0.297202 -1.32321,-1.72884 -0.550267,-1.43912 -1.01043,-3.67914 -5.6056,-3.96962 -6.77914,-0.428392 -7.00991,2.74003 -7.05053,5.57567 -1.49013,0.383491 1.15246,0.0617007 -0.603415,-0.0481082 -0.0835404,-0.00519264 -0.187699,-0.0365012 -0.33798,-0.0137452 -0.0791113,0.509337 -0.295217,0.43832 0.152114,0.836778 0.931773,0.830364 1.57154,-0.726511 2.5586,1.65966 -1.2557,0.630142 -2.13356,0.894966 -2.50911,1.7939 -0.858465,0.133481 -0.483068,0.0264214 -1.12802,0.116682l-0.99607 0.184491 -0.233058 0.00778895c-0.689399,0.10706 -1.35955,0.210913 -2.00818,0.398917l-1.67615 0.580964 0.0187851 0.0453592c-0.753696,0.224963 -0.563554,0.0441374 -0.967663,0.461076 -0.196557,0.268032 0.0827767,0.121416 -0.412509,0.370052 1.01317,0.212898 -0.104158,-0.583408 1.07503,0.387462 -0.926275,0.249399 -0.359056,0.156848 0.460617,0.75675 0.70406,0.515293 3.68372,2.61541 3.22631,2.95797 -0.348518,-0.25001 -3.02883,-3.04563 -4.60663,-3.56123 -0.517736,0.23428 -0.482304,0.375855 -1.5164,0.720707l-0.0195487 0.00641443c0.939409,0.303922 -0.00305449,0.201291 -0.159139,0.0899548 -0.124929,0.0960638 -0.265588,0.223742 -0.425185,0.400138l-0.012218 -0.0201596c-0.169677,0.13287 -0.085373,0.0264214 -0.398306,0.33523 -0.172884,0.170593 -0.151656,0.126761 -0.312933,0.343325 -0.295369,0.39632 -0.308962,0.502158 -0.478181,0.927191 -1.0709,0.451454 -0.916653,0.286053 -1.53687,1.07549 -0.694591,0.883817 -0.207095,0.342103 -1.00355,0.995153 -0.358292,0.293689 -0.249705,0.0533009 -0.43664,0.44901m-5.67876 6.89536c0.0230614,0.324998 0.299187,0.704519 0.840749,0.811731 0.754459,0.149365 0.62388,-0.252301 0.694897,-0.36211 0.777063,0.140507 1.41881,0.237639 2.17052,0.0789586 0.757056,-0.159903 0.973925,-0.311405 1.19034,-0.726969 -0.563096,0.292468 -0.621436,0.262381 -1.51656,0.333245 0.467948,-0.884581 -0.170288,-0.185255 0.765456,-0.795084 0.273224,-0.178077 0.192891,0.0713224 0.86213,-0.426713 -0.394335,-0.253828 -0.743158,-0.678708 -1.74014,-0.772481 -1.58834,-0.149517 -1.30671,0.527358 -2.54821,-0.0508573 1.02906,-0.101715 1.73587,-0.449621 3.14628,-0.140507 0.981256,0.215036 1.20714,0.735216 1.66424,0.810662 -0.038792,-0.364706 0.216869,0.0363485 -0.187393,-0.414495 -0.803026,-0.895119 -3.12856,-1.06571 -3.88486,-0.5269l-0.24833 0.18388c-1.57077,1.14482 -1.88844,0.722082 -1.51625,1.63889 -0.0328358,-0.801499 0.0794168,-0.842123 1.22271,-1.2134l-0.192433 0.632433c-0.00610898,0.0342103 -0.013287,0.0852203 -0.0178688,0.119431 -0.194266,1.49487 0.681304,0.641901 0.32118,1.52862 -0.0366539,-0.022756 -0.0823186,-0.0982019 -0.093162,-0.0757514l-0.9333 -0.632585zm2.85366 -4.19809c0.110725,-0.259326 0.509489,-0.903061 0.714904,-1.11611 1.03792,-1.0764 -1.14666,0.933605 0.534842,-0.400138 0.483832,-0.383797 0.191517,0.10706 0.410829,-0.466115l0.309878 -0.112405 -0.309878 0.112405m-2.67833 3.02013l0.00534536 -0.138521 0.2242 -0.0791113m4.7508 1.09488l-0.264672 0.241458m1.85576 -0.638389l-0.00198542 -0.000152725m0.474515 -0.298882l-0.0533009 0.342409 -0.283915 -0.0294758m-2.86389 -4.22925l-0.842734 0.404415 -0.0119125 0.198084c1.73724,0.115002 0.910544,-0.117598 1.57077,0.20908l-1.76595 0.291551c0.00290177,0.893133 -0.215189,0.221145 0.232294,0.725442 -0.0140507,0.00244359 -2.21619,0.192433 -0.488566,0.603109 1.81926,0.432516 1.51182,0.170593 2.25941,1.36062 1.42385,0.101409 0.810815,-0.00458174 2.11707,-0.358292 0.691384,-0.18724 0.097591,0.44168 0.500631,-0.135772 0.0453592,-0.0650607 0.165859,-0.0488719 0.244054,-0.0775841 -0.458632,0.585699 -0.142339,0.0788059 -0.228171,0.599139m0 0l-0.385782 0.0965219 0.385782 -0.0965219zm-2.4494 0.792488c0.39464,0.175786 0.343019,-0.276432 0.305755,0.3363 0.277653,-0.487344 -0.0018327,-0.327747 0.760263,-0.57455 0.242527,-0.0786532 0.410524,-0.1289 0.523082,-0.158834 0.235959,-0.0626171 0.226338,-0.0349739 0.137299,0.0140507 -0.180215,0.0991183 -0.684053,0.284984 -0.135314,-0.0138979 -0.10202,-0.00427629 -1.75679,-0.0258105 -2.53416,-0.144172l0.763928 0.447789c0.0374175,0.0203124 0.119583,0.0620062 0.179146,0.0933147zm-3.96259 -1.91501l-0.106754 -0.172121 -0.681457 0.992252c0.819367,-0.0279486 1.35971,-0.0516209 2.158,0.088733 0.0985074,0.0174106 0.335841,0.0803331 0.42152,0.102173 0.0610898,0.0157306 0.13455,0.0406247 0.193655,0.0572717l0.811578 0.244665c0.0490246,0.0138979 0.147379,0.042152 0.222978,0.0609371l-0.311558 -1.0344c-0.924747,-0.235501 -0.50002,-0.153794 -1.33237,-0.206484 -0.46749,-0.0296286 -0.384713,0.0145088 -0.841971,-0.0270323 -1.6676,-0.151197 -0.0714751,0.111794 -0.53362,-0.105991zm-1.01776 1.03776l-0.0412356 0.121569 0.0287122 0.397542 1.17796 -0.112558c0.832349,0.0351267 1.74091,0.322096 2.33898,0.570579 1.07946,0.448552 0.145088,0.230156 1.17231,0.392349l0.0389448 -0.250774 -1.54175 -0.652745c-1.30121,-0.522776 -2.14227,-0.20572 -3.17392,-0.465963zm7.71412 -0.617924c0.317514,-0.117903 0.542325,-0.221603 0.708184,-0.318889 0.558514,-0.327594 0.447025,-0.58127 0.938798,-1.05151l0.73262 -0.568594c-0.290788,-0.544921 -0.126914,-0.100187 -0.786073,-0.392044 -0.211065,0.862894 -0.109809,1.03975 -1.63782,1.26563 0.0218396,0.136689 0.0473446,0.244818 0.0728496,0.331107 0.129663,0.44061 0.254897,0.30606 -0.139285,0.428392 -0.0988128,0.0306976 -0.230309,0.0775841 -0.402735,0.153794 0.507046,-0.254286 0.453287,-0.252148 0.402735,-0.153794 -0.0366539,0.0716278 -0.0717806,0.19396 0.110725,0.305907zm28.2255 39.2058c-0.708642,-0.652134 -0.0539118,-0.729871 1.01745,-0.992099 -0.244665,0.342256 -0.594557,0.756292 -1.01745,0.992099zm5.87822 -69.0923c-0.00626171,0.0125234 -0.0093162,0.0386393 -0.0093162,0.0785004 0,0.0470392 0.00610898,0.117598 0.0186324,0.211524 0.00458174,0.0934675 0.00763623,0.143103 0.00763623,0.148906 0,0.101256 -0.0169524,0.179757 -0.0542172,0.234585 -0.0372648,0.0574244 -0.108587,0.088733 -0.2158,0.0946892l-0.436029 -0.0274904c-0.135009,0 -0.271544,-0.0442901 -0.40808,-0.133176 -0.0435265,-0.0287122 -0.0962165,-0.0731551 -0.158375,-0.133939l-1.3035 -1.14818c-0.0125234,0.00259632 -0.0201596,0.0287122 -0.0201596,0.0789586 -0.00626171,0.0496355 -0.0125234,0.0888857 -0.0186324,0.117598l0.0667406 0.500937c-0.00626171,0.0189378 -0.0093162,0.033294 -0.0093162,0.0430683 0,0.0398611 0.00305449,0.11042 0.0093162,0.212287 0.00610898,0.104616 0.0093162,0.164637 0.0093162,0.180368 0,0.13058 -0.0125234,0.228629 -0.0372648,0.293231 -0.0248941,0.0685733 -0.0745296,0.102478 -0.149059,0.102478 -0.0930093,0 -0.167539,-0.0012218 -0.223436,-0.00381811 -0.343019,-0.0157306 -0.541561,-0.0620062 -0.595931,-0.13791l-0.038792 -0.355848c0,-0.188157 0.00305449,-0.46245 0.0093162,-0.823644 0,-0.357986 0.00626171,-0.676112 0.0186324,-0.955598 0.00626171,-0.279639 0.0232141,-0.425949 0.046581,-0.43893 0.0806386,-0.018327 0.173801,-0.0268795 0.280861,-0.0268795 0.153641,0 0.315071,0.0163415 0.484137,0.0503991 0.159903,0.0339049 0.251385,0.0626171 0.270017,0.0861367l1.36887 1.4657c0.0355848,0 0.0542172,-0.0117598 0.0542172,-0.0352794l-0.0186324 -0.689704 0.0279486 -0.787753c0.0140507,-0.0548281 0.0264214,-0.109656 0.038792,-0.164484 0.0125234,-0.0549809 0.0264214,-0.0836931 0.0450538,-0.0856785 0.0433738,-0.00259632 0.091482,-0.00580353 0.14127,-0.00916348 0.0481082,0 0.0884275,0 0.119431,0 0.136536,0 0.257646,0.00458174 0.363179,0.0125234 0.105533,0.0103853 0.184644,0.0287122 0.240541,0.0548281l0.0279486 0.0861367 0.0201596 0.545532 0.0093162 0.504755 0.0186324 0.854341zm3.60659 -0.160666c0,0.172426 -0.0528427,0.341034 -0.159903,0.505671 -0.135009,0.218702 -0.336758,0.357223 -0.60372,0.414647 -0.100798,0.0235196 -0.178382,0.0412356 -0.23428,0.0516209 -0.0435265,0.00794168 -0.0823186,0.0117598 -0.121111,0.0117598 -0.0123707,0 -0.0201596,0 -0.0262686,0 -0.249857,-0.0103853 -0.526136,-0.0522318 -0.830364,-0.125387 -0.24833,-0.0600208 -0.394182,-0.104464 -0.436029,-0.133176 -0.198695,-0.107213 -0.297966,-0.273072 -0.297966,-0.498493 0,-0.0933147 0.0138979,-0.186019 0.0450538,-0.277501 0.0247414,-0.091482 0.0945365,-0.22084 0.21412,-0.388073 0.117903,-0.167081 0.235807,-0.282082 0.353863,-0.344852 0.0930093,-0.0496355 0.21412,-0.0743769 0.364706,-0.0743769 0.186171,0.014967 0.332023,0.0281013 0.436029,0.0390975 0.316598,0.0314613 0.533772,0.0639916 0.653356,0.0974383 0.209538,0.0424574 0.370815,0.124623 0.48261,0.246803 0.10706,0.123401 0.159903,0.281471 0.159903,0.474821zm-0.95911 -0.109656c0,-0.0783477 -0.0186324,-0.152877 -0.0574244,-0.223436 -0.0558972,-0.104464 -0.139743,-0.156695 -0.251385,-0.156695 -0.00626171,0 -0.0125234,0 -0.0186324,0 -0.0869003,0.018327 -0.183117,0.124776 -0.288649,0.317362 -0.110267,0.193349 -0.166012,0.339659 -0.166012,0.43832 0.0247414,0.084304 0.044901,0.146921 0.0635334,0.188768 0.0558972,0.13058 0.117903,0.19732 0.186324,0.199916 0.111642,-0.010538 0.209385,-0.0555918 0.288649,-0.136536 0.0743769,-0.0791113 0.133329,-0.180979 0.178382,-0.306366 0.0435265,-0.122791 0.0652134,-0.229851 0.0652134,-0.321333zm-12.8422 18.8644l3.49739 2.56654 -0.52858 0.875417 -2.3573 -0.225727 1.85469 1.05823 -0.52858 0.875265 -5.03457 -0.0209233 0.616244 -1.02035 3.0047 0.136078 -2.29774 -1.30686 0.45069 -0.746518 2.91719 0.281166 -2.20702 -1.4573 0.612884 -1.01501zm2.61587 -0.191517c0.0864421,0.0262686 0.156695,-0.00534536 0.21076,-0.094842l0.434501 -0.719638c0.0583408,-0.0966747 0.0462756,-0.157612 -0.0363485,-0.182659l-0.0902602 -0.0273377c-0.082624,-0.0250468 -0.153183,0.0106907 -0.211524,0.107365l-0.434501 0.719638c-0.0540645,0.0894966 -0.0397084,0.146768 0.0429156,0.171815l0.0844567 0.0256577zm1.18346 -1.91578c0.57119,0.17319 0.715057,0.49437 0.431905,0.963387l-0.736133 1.21905 0.152114 0.0461228c0.120194,0.0365012 0.214884,-0.00259632 0.284068,-0.11714l0.98263 -1.62728 0.941089 0.285442 -1.19339 1.97626c-0.3027,0.501242 -0.713224,0.673363 -1.23172,0.516056l-1.75251 -0.531482c-0.5185,-0.157306 -0.626324,-0.486428 -0.323776,-0.98767l0.833418 -1.38032c0.285442,-0.47253 0.689552,-0.633807 1.21233,-0.483679l0.399986 0.121263zm2.33058 -1.94907c-0.0864421,-0.0262686 -0.156695,0.00534536 -0.21076,0.094842l-0.434501 0.719638c-0.0583408,0.0966747 -0.0462756,0.157612 0.0363485,0.182659l0.0902602 0.0273377c0.082624,0.0250468 0.15303,-0.0106907 0.211524,-0.107365l0.434501 -0.719638c0.0540645,-0.0894966 0.0397084,-0.146768 -0.0429156,-0.171968l-0.0844567 -0.025505zm-1.18362 1.91578c-0.593488,-0.180062 -0.748656,-0.504602 -0.465505,-0.973619l0.736133 -1.21905 -0.118362 -0.0358903c-0.120194,-0.0365012 -0.214884,0.00259632 -0.284068,0.11714l-0.98263 1.62728 -0.941089 -0.285442 1.19339 -1.97641c0.3027,-0.501242 0.713224,-0.67321 1.23157,-0.515904l1.75267 0.531482c0.5185,0.157306 0.626324,0.486428 0.323623,0.98767l-0.833265 1.38017c-0.28758,0.476195 -0.69169,0.637472 -1.21233,0.483832l-0.400138 -0.121263zm3.13773 -4.79876c0.0972856,-0.161124 0.063228,-0.26681 -0.10202,-0.316904l-0.856632 -0.259785c-0.165248,-0.0500937 -0.294453,0.0018327 -0.38731,0.155779l-0.463825 0.767899 1.35253 0.410218 0.457257 -0.757209zm0.892828 -1.11443c0.525983,0.159597 0.639763,0.486428 0.341492,0.980492l-0.719944 1.19217 0.991794 0.300867 -0.55775 0.923678 -4.29416 -1.30228 1.27769 -2.116c0.298424,-0.494064 0.702991,-0.663588 1.21401,-0.508726l1.74686 0.529802zm1.02371 -2.05949c0.0994237,-0.164637 0.0607844,-0.273835 -0.115765,-0.327442l-0.845331 -0.256272c-0.16143,-0.0490246 -0.294148,0.0123707 -0.398,0.184339l-0.317667 0.526289c-0.0865948,0.143103 -0.0452065,0.240389 0.12386,0.291704l0.822727 0.249552c0.184033,0.0557445 0.318278,0.0138979 0.402582,-0.125692l0.327594 -0.542478zm0.90978 -1.10924c0.5185,0.157306 0.630905,0.475126 0.337521,0.953765l-0.833418 1.38017c-0.3027,0.501242 -0.703908,0.676112 -1.20347,0.524609l-1.78077 -0.540034c-0.5185,-0.157306 -0.629683,-0.481082 -0.333551,-0.971634l0.836778 -1.38552c0.293995,-0.487039 0.702075,-0.651218 1.22424,-0.492842l1.75267 0.531482zm0.163873 -3.7054l2.52469 0.765608 -0.55775 0.923678 -2.0795 -0.6306c-0.165248,-0.0500937 -0.296591,0.00534536 -0.393877,0.16647l-0.327594 0.542478c-0.084304,0.13959 -0.0474973,0.233363 0.110267,0.281166l2.0908 0.634113 -0.564317 0.934369 -2.52469 -0.765608c-0.112711,-0.0342103 -0.205109,-0.0833876 -0.277501,-0.147685 -0.0722387,-0.0642971 -0.123249,-0.140048 -0.152725,-0.227407 -0.0294758,-0.0873585 -0.0363485,-0.182659 -0.0207705,-0.2859 0.0157306,-0.103242 0.0560499,-0.208622 0.120805,-0.315987l0.830211 -1.37483c0.0691842,-0.114543 0.151961,-0.211218 0.248483,-0.290024 0.0965219,-0.0788059 0.198389,-0.138979 0.305755,-0.18052 0.107213,-0.0415411 0.21916,-0.0647552 0.335383,-0.0697951 0.116376,-0.00488719 0.227101,0.00855258 0.332329,0.040472zm-23.2033 22.4927l-0.0818604 0.0972856c-0.190906,0 -0.374939,0.00977437 -0.552099,0.0291704 -0.20908,0.506435 -0.563401,0.890995 -1.06327,1.15383 -0.499868,0.262992 -1.12237,0.394335 -1.86752,0.394335 -0.372648,0 -0.686192,-0.042152 -0.940631,-0.126456 -0.331718,-0.113627 -0.497577,-0.288955 -0.497577,-0.525831 0,-0.136383 0.0624644,-0.250774 0.187546,-0.343172 0.124929,-0.0925511 0.282846,-0.138827 0.473599,-0.138827 0.331718,0 0.497577,0.0989655 0.497577,0.296897 0,0.0974383 -0.0681152,0.165553 -0.204498,0.204498 -0.118056,0.0195487 -0.233974,0.0406247 -0.347601,0.0633807 -0.149976,0.0357376 -0.224811,0.0891912 -0.224811,0.160666 0,0.103853 0.120347,0.18327 0.361194,0.238556 0.181742,0.042152 0.363485,0.063228 0.545227,0.063228 0.518042,0 0.956514,-0.141118 1.31542,-0.423505 0.268184,-0.204498 0.515751,-0.511169 0.743005,-0.920166 -0.218091,0.0291704 -0.454356,0.0925511 -0.708948,0.189837 -0.00442901,0.00320722 -0.22252,0.0940783 -0.654272,0.272613l-0.0340576 -0.00962165c-0.00458174,-0.00977437 -0.00901075,-0.0178688 -0.0135925,-0.0244359 0,-0.0908711 0.213509,-0.201138 0.64068,-0.330954 0.349892,-0.107213 0.624796,-0.173648 0.824713,-0.199611 0.118056,-0.237029 0.331718,-0.520944 0.64068,-0.852051 0.377077,-0.412204 0.68161,-0.621589 0.913293,-0.628004l0.0273377 0.00977437 0.0135925 0.0340576c-0.172732,0.298577 -0.288497,0.516056 -0.347601,0.652287 -0.0954529,0.214273 -0.170441,0.443054 -0.224963,0.686497 0.131801,-0.00641443 0.324845,-0.0146616 0.579437,-0.0242832zm-3.05358 0.10706c-0.245428,0 -0.447636,-0.0494828 -0.606622,-0.148448 -0.158986,-0.0989655 -0.238556,-0.234585 -0.238556,-0.406553 0,-0.152572 0.070406,-0.313238 0.211371,-0.481999 0.290788,-0.347296 0.704213,-0.62556 1.24043,-0.834945 0.536216,-0.209385 1.09045,-0.314002 1.66302,-0.314002 0.222672,0 0.540798,0.033294 0.954223,0.0998819 0.413578,0.0664352 0.711086,0.0997292 0.892981,0.0997292 0.0953001,0 0.272613,-0.0357376 0.531634,-0.10706l0.0407775 0.00977437 0.0137452 0.0291704c0,0.10706 -0.109045,0.212593 -0.327289,0.316445 -0.199916,0.100646 -0.379368,0.150892 -0.538354,0.150892 -0.163568,0 -0.495286,-0.063228 -0.995153,-0.189837 -0.499868,-0.126609 -0.895119,-0.189837 -1.18591,-0.189837 -0.622505,0 -1.22241,0.21412 -1.7994,0.642512 -0.368066,0.272613 -0.552099,0.527511 -0.552099,0.764387 0,0.10706 0.0432211,0.199611 0.12951,0.277501 0.0862894,0.0778895 0.202207,0.116834 0.347601,0.116834 0.368066,0 0.683901,-0.116834 0.947351,-0.350503 0.25001,-0.21748 0.374939,-0.460923 0.374939,-0.730329 0,-0.0745296 -0.0432211,-0.111947 -0.12951,-0.111947 -0.100035,0 -0.204498,0.0812495 -0.313544,0.243443 -0.0818604,0.123401 -0.136383,0.235349 -0.163568,0.335994 -0.100035,0.0323776 -0.2158,0.0810968 -0.347601,0.146005 -0.20908,0.103853 -0.318125,0.158986 -0.327136,0.165553 -0.00916348,-0.022756 -0.0181742,-0.0470392 -0.0273377,-0.0730024 0,-0.266199 0.0977437,-0.501548 0.293078,-0.706046 0.218091,-0.233669 0.504449,-0.350503 0.85877,-0.350503 0.313544,0 0.470392,0.150892 0.470392,0.452828l0 0.0487191c0,0.292009 -0.133023,0.54767 -0.398764,0.766677 -0.265894,0.21916 -0.605553,0.328663 -1.01898,0.328663zm4.82564 0.394335c0,0.0389448 -0.065977,0.0697951 -0.197626,0.0925511 -0.104616,0.019396 -0.195487,0.0291704 -0.272613,0.0291704 -0.0500937,0 -0.100035,0 -0.149976,0 -0.172732,0.231225 -0.37723,0.442138 -0.613495,0.632127 -0.327136,0.260395 -0.620215,0.390211 -0.879235,0.390211 -0.358903,0 -0.538507,-0.116834 -0.538507,-0.350503 0,-0.285595 0.197778,-0.606928 0.59303,-0.963998 0.413578,-0.369899 0.815702,-0.555001 1.20637,-0.555001 0.308962,0 0.463519,0.102325 0.463519,0.306824 0,0.0681152 -0.0499409,0.201138 -0.149976,0.399069 0.0455119,0.00977437 0.0864421,0.0146616 0.122791,0.0146616 0.0363485,0 0.0908711,-0.00488719 0.163568,-0.0146616 0.0726969,-0.00962165 0.12722,-0.0145088 0.163568,-0.0145088 0.0589517,0 0.0885803,0.0113016 0.0885803,0.0340576zm-0.579437 -0.389448c0,-0.10706 -0.0589517,-0.160666 -0.177161,-0.160666 -0.0862894,0 -0.181742,0.0291704 -0.286206,0.0876639 -0.104616,0.0583408 -0.156848,0.118362 -0.156848,0.180062 0,0.0617007 0.046581,0.120042 0.139743,0.175328 0.093162,0.0551336 0.185255,0.0827767 0.276126,0.0827767 0.00901075,0 0.0204651,-0.00167997 0.0340576,-0.00488719l0 -0.00488719c0.0409302,0 0.0817077,-0.0519264 0.122638,-0.155779 0.0317667,-0.0844567 0.0476501,-0.150892 0.0476501,-0.199611zm-0.238556 0.477112c-0.249857,-0.0195487 -0.427018,-0.107213 -0.531634,-0.262992 -0.0771259,0.064908 -0.190753,0.204498 -0.340729,0.418771l0 -0.00488719c-0.00901075,0.0357376 -0.0453592,0.103853 -0.109045,0.204498 -0.0545227,0.084304 -0.0818604,0.154099 -0.0818604,0.209385 0,0.064908 0.0455119,0.0972856 0.136383,0.0972856 0.295369,0 0.604331,-0.220687 0.926886,-0.662061zm2.83548 -0.516056c0,0.0940783 -0.0478028,0.189837 -0.143103,0.287275 -0.104616,0.110267 -0.218091,0.165401 -0.340881,0.165401 -0.022756,0 -0.0635334,-0.0161888 -0.122638,-0.0485664 -0.0273377,-0.0389448 -0.0409302,-0.0665879 -0.0409302,-0.0827767 0,-0.0746823 0.0499409,-0.145241 0.149976,-0.211829 0.100035,-0.0665879 0.199916,-0.0933147 0.299951,-0.0803331l0 -0.043832c0,-0.0453592 -0.0682679,-0.0681152 -0.204498,-0.0681152l-0.0409302 0c-0.0636862,0 -0.219313,0.0771259 -0.466879,0.231225 -0.247719,0.154099 -0.398764,0.260395 -0.453287,0.318889 -0.13623,0.146005 -0.277195,0.329427 -0.422589,0.550114 -0.113627,0.191517 -0.229392,0.383033 -0.347601,0.57455l-0.68161 -0.00977437 0.668017 -1.01745c0.0363485,-0.0487191 0.0908711,-0.120958 0.163568,-0.216716 0.0726969,-0.0957583 0.109045,-0.164637 0.109045,-0.206942 0,-0.0519264 -0.0204651,-0.0778895 -0.0613953,-0.0778895 -0.0181742,0 -0.0873585,0.0470392 -0.207858,0.14127 -0.120347,0.0940783 -0.196557,0.141118 -0.228323,0.141118 -0.00458174,-0.00320722 -0.0135925,-0.00641443 -0.027185,-0.00977437l-0.00687261 -0.0145088c0.00458174,-0.0584935 0.13287,-0.184186 0.385171,-0.377382 0.252148,-0.193044 0.416785,-0.289566 0.494064,-0.289566 0.204498,0 0.306671,0.124929 0.306671,0.374786 0,0.0291704 0.0114543,0.043832 0.0342103,0.043832 0,0 0.115765,-0.05437 0.347601,-0.16311 0.231683,-0.10874 0.404415,-0.16311 0.517889,-0.16311 0.0818604,0 0.155626,0.0276432 0.221603,0.0827767 0.0658243,0.0551336 0.0988128,0.111947 0.0988128,0.170441zm4.21902 0.890843c-0.0181742,0.0682679 -0.111336,0.169677 -0.279486,0.30438 -0.16815,0.134703 -0.30438,0.221451 -0.408996,0.260395 -0.145394,0.0584935 -0.333856,0.0876639 -0.565692,0.0876639 -0.308962,0 -0.463519,-0.102325 -0.463519,-0.306671 0,-0.0617007 0.100035,-0.232141 0.299951,-0.511322 0.199916,-0.279028 0.299951,-0.501395 0.299951,-0.666948l0 -0.063228 -0.00687261 0.00488719c-0.00901075,-0.0551336 -0.0432211,-0.0827767 -0.102173,-0.0827767 -0.0682679,0 -0.188615,0.063228 -0.361346,0.189837 -0.12722,0.0908711 -0.233974,0.176855 -0.320263,0.258105 -0.0499409,0.0453592 -0.155626,0.217327 -0.316904,0.516056 -0.16143,0.298577 -0.242068,0.472224 -0.242068,0.520791 0,0.0552863 0.0568135,0.102325 0.170441,0.14127l-0.831585 0.0389448c-0.0135925,-0.0161888 -0.0203124,-0.0389448 -0.0203124,-0.0681152 0,-0.136383 0.111184,-0.371732 0.333856,-0.706046 0.222672,-0.334314 0.334009,-0.585699 0.334009,-0.754612l0.0135925 -0.0583408 -0.00671988 0.00488719c-0.00916348,-0.0551336 -0.0432211,-0.0827767 -0.103395,-0.0827767 -0.131801,0 -0.348823,0.141118 -0.650912,0.423505 -0.146616,0.136383 -0.280555,0.332634 -0.404415,0.589059 -0.16479,0.337521 -0.271544,0.54202 -0.322707,0.613495l-0.849607 0.0389448 0.667865 -1.01745c0.0363485,-0.0487191 0.0908711,-0.120958 0.163568,-0.216716 0.0728496,-0.0957583 0.109198,-0.164637 0.109198,-0.206942 0,-0.0519264 -0.0204651,-0.0778895 -0.0613953,-0.0778895 -0.0181742,0 -0.0875112,0.0470392 -0.207858,0.14127 -0.1205,0.0940783 -0.196557,0.141118 -0.228323,0.141118 -0.00458174,-0.00320722 -0.0137452,-0.00641443 -0.0273377,-0.00977437l-0.00671988 -0.0145088c0.00901075,-0.0617007 0.137452,-0.188309 0.385019,-0.379826 0.247719,-0.191517 0.412356,-0.287122 0.494217,-0.287122 0.204346,0 0.306671,0.124929 0.306671,0.374786 0,0.0291704 0.0113016,0.043832 0.0340576,0.043832 -0.00916348,0 0.103395,-0.05269 0.337369,-0.158223 0.233974,-0.105533 0.419229,-0.158223 0.555459,-0.158223 0.308962,0 0.461228,0.111947 0.456647,0.335841 0.122791,-0.064908 0.263603,-0.13791 0.422589,-0.219007 0.181742,-0.0778895 0.343172,-0.116834 0.483984,-0.116834 0.299951,0 0.449774,0.10874 0.449774,0.32622 0,0.13959 -0.0953001,0.348059 -0.286206,0.62556 -0.190906,0.277501 -0.286206,0.429156 -0.286206,0.455119 0,0.0163415 0.027185,0.0389448 0.0817077,0.0682679 0.236265,0 0.456647,-0.0584935 0.661145,-0.175328 0.0636862,-0.0357376 0.161277,-0.0940783 0.293078,-0.175175l0.00687261 0.00962165zm2.147 -0.866559c0,0.227254 -0.165859,0.425185 -0.497577,0.593946 -0.263603,0.136383 -0.577146,0.232141 -0.940631,0.287275 -0.0681152,0.123401 -0.102173,0.219007 -0.102173,0.287275 0,0.0778895 0.0407775,0.116834 0.122638,0.116834 0.190906,0 0.38395,-0.0584935 0.579284,-0.175328 0.0864421,-0.0519264 0.231836,-0.160666 0.436334,-0.32622 0.145394,-0.116834 0.245276,-0.175175 0.299798,-0.175175 0.0181742,0 0.0273377,0.0080944 0.0273377,0.0242832 0,0.0357376 -0.138674,0.176855 -0.415869,0.423658 -0.386088,0.343936 -0.781492,0.515904 -1.18591,0.515904 -0.381659,0 -0.572564,-0.129816 -0.572564,-0.389448 0,-0.314765 0.193197,-0.642512 0.579437,-0.983394 0.408844,-0.360277 0.827004,-0.54034 1.25402,-0.54034 0.277195,0 0.415869,0.113627 0.415869,0.340729zm-0.286359 -0.043832c0,-0.0485664 -0.0113016,-0.0875112 -0.0340576,-0.116834 -0.0181742,-0.00641443 -0.0386393,-0.00977437 -0.0612426,-0.00977437 -0.149976,0 -0.343172,0.131496 -0.579437,0.394488 -0.177161,0.194724 -0.318125,0.379673 -0.422589,0.555001 0.254439,-0.0455119 0.495286,-0.147685 0.72254,-0.306824 0.249857,-0.171968 0.374786,-0.343936 0.374786,-0.516056zm3.96687 -1.63568c-0.113627,0.207705 -0.302242,0.516056 -0.565692,0.9249 -0.118209,0.181742 -0.245428,0.371732 -0.381659,0.569663 -0.149976,0.21748 -0.295369,0.400749 -0.436334,0.550114 -0.268032,0.288802 -0.452065,0.525831 -0.551947,0.71078l0.0612426 0.0291704c0.181742,-0.042152 0.33859,-0.135467 0.470392,-0.279944 0.131649,-0.144325 0.22252,-0.228018 0.272613,-0.250621l0.027185 0c0.0181742,0.0161888 0.0273377,0.0340576 0.0273377,0.0534536 0,0.133176 -0.159139,0.315682 -0.477112,0.547823 -0.318125,0.231989 -0.570274,0.348059 -0.756598,0.348059 -0.145394,0 -0.245428,-0.0259632 -0.299951,-0.0778895 -0.0135925,-0.0129816 -0.0522318,-0.0844567 -0.115765,-0.214273 -0.154557,0.194724 -0.365775,0.292162 -0.63396,0.292162 -0.122638,0 -0.229392,-0.0374175 -0.320263,-0.111947 -0.0908711,-0.0746823 -0.136383,-0.155932 -0.136383,-0.243443 0,-0.275973 0.318125,-0.652439 0.955445,-1.12955 0.340729,-0.256425 0.651981,-0.384561 0.934827,-0.384561 0.0409302,0 0.104464,0.0169524 0.190906,0.0511627 0.0862894,0.0340576 0.152114,0.05269 0.197626,0.0558972 0.0181742,-0.00641443 0.0340576,-0.0291704 0.0476501,-0.0681152 0.0181742,-0.0519264 0.0977437,-0.197167 0.238556,-0.437403 0.25337,-0.434807 0.46581,-0.774772 0.638389,-1.01821l0.381811 -0.00977437c0.0998819,0 0.177161,0.0308504 0.231683,0.0925511zm-1.66989 1.57734c-0.0135925,-0.042152 -0.0545227,-0.0633807 -0.122638,-0.0633807 -0.0636862,0 -0.131801,0.0212287 -0.204498,0.0633807l0 -0.00488719c-0.222672,0.133023 -0.436181,0.306671 -0.64068,0.520944 -0.236265,0.249857 -0.354474,0.459243 -0.354474,0.628004 0,0.0681152 0.0386393,0.102173 0.115918,0.102173 0.104464,0 0.322554,-0.18327 0.654272,-0.550114 0.295369,-0.327747 0.479402,-0.559888 0.552099,-0.696119zm-12.1042 5.84446c-0.0167997,0.0351267 -0.0375702,0.061548 -0.0626171,0.0806386 -0.0251996,0.0192433 -0.0606317,0.0288649 -0.106602,0.0288649 -0.121111,0 -0.231836,-0.0113016 -0.332023,-0.0335994 -0.10034,-0.0224505 -0.185866,-0.05437 -0.256883,-0.095911 -0.0209233,-0.0160361 -0.0647552,-0.130274 -0.131649,-0.342714 -0.0668934,-0.212593 -0.100187,-0.339507 -0.100187,-0.381048 -0.0209233,-0.0128289 -0.0397084,-0.0192433 -0.0565081,-0.0192433 -0.121111,0 -0.300715,0.0160361 -0.538812,0.0479555 -0.238098,0.0319194 -0.41984,0.0479555 -0.545074,0.0479555l-0.476195 0c-0.0125234,0.00641443 -0.160819,0.16143 -0.444887,0.464894 -0.196404,0.207705 -0.45741,0.479402 -0.783172,0.814938 -0.292468,0.297202 -0.461686,0.456952 -0.507657,0.479402 -0.0710169,0.025505 -0.129358,0.0462756 -0.175328,0.0623116 -0.0919402,0.0319194 -0.150434,0.0479555 -0.175481,0.0479555 -0.0293231,0 -0.0595626,-0.0103853 -0.0908711,-0.0311558 -0.0313085,-0.0207705 -0.0470392,-0.0424574 -0.0470392,-0.0647552 0,-0.0383339 0.144172,-0.201291 0.432363,-0.488871 0.267421,-0.262075 0.534689,-0.524151 0.80211,-0.786226 0.288191,-0.284373 0.432211,-0.445803 0.432211,-0.484137l-0.0250468 -0.0143561 -0.350808 0c-0.0794168,0 -0.144172,-0.00794168 -0.194266,-0.0239778 -0.0751405,-0.025505 -0.112711,-0.0655189 -0.112711,-0.119889 0,-0.0383339 0.078195,-0.103853 0.23489,-0.196557 0.156695,-0.0925511 0.293384,-0.138979 0.410371,-0.138979 0.0584935,0 0.127372,0.00167997 0.206789,0.00488719 0.0794168,0.00320722 0.154557,0.00794168 0.225574,0.0143561 0.0459701,-0.00962165 0.275668,-0.199764 0.689246,-0.570426 0.751863,-0.667865 1.13612,-1.00982 1.15292,-1.02585 0.426102,-0.367455 0.666185,-0.551336 0.720555,-0.551336 0.0375702,0 0.072086,0.0200069 0.103395,0.0600208 0.0313085,0.0398611 0.0470392,0.0774314 0.0470392,0.112558 -0.05437,0.272461 -0.102478,0.544921 -0.144172,0.816618 -0.0418465,0.272308 -0.0626171,0.58631 -0.0626171,0.941853 0,0.0927038 0.00106907,0.158223 0.00305449,0.196557 0.00213814,0.0383339 0.00733078,0.0751405 0.0157306,0.110267 0.0125234,0.0128289 0.044901,0.0279486 0.0971328,0.0455119 0.0522318,0.0175633 0.0783477,0.0479555 0.0783477,0.0894966 0,0.0606317 -0.0502464,0.10706 -0.150434,0.138979 0,0.190906 0.0250468,0.342714 0.0751405,0.455425 0.0500937,0.112558 0.0982019,0.214884 0.144172,0.307587zm-0.83968 -2.4216c-0.0876639,0.0736133 -0.246345,0.220534 -0.476195,0.441069 -0.137758,0.131038 -0.338285,0.324387 -0.601429,0.580048 -0.10034,0.0989655 -0.200527,0.196557 -0.300867,0.292315l0.037723 0.0192433c0.137758,0 0.275668,0.00320722 0.413425,0.00962165 0.480472,0.0222978 0.726816,0.0334467 0.73934,0.0334467l0 -0.34027c0,-0.201291 0.0198542,-0.383491 0.0595626,-0.546449 0.0397084,-0.162957 0.0824713,-0.326067 0.128441,-0.489024zm3.9099 0.733383c0,0.0160361 -0.0250468,0.0894966 -0.0752932,0.220534 -0.033294,0.0894966 -0.0563554,0.153488 -0.0688788,0.191822l-0.401055 1.2415c-0.137758,0.425033 -0.329885,0.797375 -0.576383,1.11687 -0.0375702,0.0511627 -0.131649,0.0998819 -0.28193,0.146157 -0.150434,0.0464283 -0.271544,0.0694897 -0.363485,0.0694897 -0.0751405,0 -0.194266,-0.0158834 -0.35707,-0.0478028 -0.162957,-0.0320722 -0.273682,-0.061548 -0.332176,-0.088733 -0.0584935,-0.027185 -0.131496,-0.104616 -0.219313,-0.232447 -0.0876639,-0.12783 -0.131496,-0.228476 -0.131496,-0.302089 0,-0.0511627 0.0470392,-0.143714 0.140965,-0.277959 0.0930093,-0.134245 0.169219,-0.201291 0.227712,-0.201291 0.125234,0 0.249552,0.14295 0.374786,0.429003 0.125387,0.2859 0.247567,0.429003 0.368677,0.429003 0.0710169,0 0.133634,-0.0862894 0.186935,-0.258868 0.0375702,-0.147837 0.0772786,-0.293231 0.119125,-0.436945l0.317362 -0.881221c-0.325762,0.220382 -0.595168,0.367455 -0.808219,0.440916 -0.213051,0.0734605 -0.417702,0.110267 -0.614106,0.110267 -0.0667406,0 -0.139896,-0.0398611 -0.219313,-0.119889 -0.0459701,-0.0478028 -0.0688788,-0.0893439 -0.0688788,-0.124623 0,-0.252454 0.142034,-0.511322 0.426102,-0.776452 0.233821,-0.217327 0.522165,-0.409149 0.864574,-0.575314 0.304991,-0.146921 0.530565,-0.220382 0.676723,-0.220382 0.0293231,0 0.121263,0.00946892 0.275668,0.0287122 0.0752932,0.00962165 0.156695,0.0143561 0.244512,0.0143561 0.0708642,0 0.137758,0.00641443 0.200375,0.0192433 0.0627698,0.0126761 0.0940783,0.0415411 0.0940783,0.0861367zm-0.645414 0.143867l-0.0500937 -0.0287122c-0.196404,0 -0.436487,0.118209 -0.720555,0.354627 -0.313391,0.258868 -0.469934,0.509795 -0.469934,0.752627l0.0187851 0.0192433c0.208775,-0.0415411 0.464741,-0.195793 0.767594,-0.462603 0.302853,-0.26681 0.454203,-0.478639 0.454203,-0.635182zm2.34341 -0.733383c0,0.0287122 -0.0209233,0.0855258 -0.0626171,0.170135 -0.0418465,0.0847621 -0.082624,0.135772 -0.12218,0.153488 -0.0397084,0.0175633 -0.131649,0.0374175 -0.275821,0.059868 -0.144019,0.0222978 -0.241152,0.0335994 -0.291246,0.0335994 -0.0418465,0 -0.0752932,-0.0160361 -0.10034,-0.0479555 -0.0250468,-0.0320722 -0.0375702,-0.0639916 -0.0375702,-0.095911 0,-0.0830822 0.0668934,-0.169372 0.200527,-0.258868 0.154557,-0.10538 0.3279,-0.158223 0.520027,-0.158223 0.0459701,0 0.0856785,0.0160361 0.119125,0.0479555 0.0334467,0.0319194 0.0500937,0.0639916 0.0500937,0.095911zm-0.043832 1.82155c0,0.131038 -0.12951,0.239625 -0.388531,0.325914 -0.171204,0.0511627 -0.286053,0.087053 -0.344547,0.107824 -0.0584935,0.0207705 -0.119125,0.0432211 -0.181742,0.0671988 -0.0626171,0.0239778 -0.123249,0.0358903 -0.181742,0.0358903 -0.108587,0 -0.199458,-0.0366539 -0.272613,-0.110267 -0.0730024,-0.0734605 -0.109504,-0.153335 -0.109504,-0.239625 0,-0.0894966 0.078195,-0.301937 0.23489,-0.637472 0.156695,-0.335689 0.274599,-0.552863 0.354016,-0.651981l0.588906 -0.215647c0.0962165,0 0.144172,0.0430683 0.144172,0.129358 0,0.0575772 -0.0846094,0.222062 -0.253676,0.493759 -0.169219,0.271544 -0.253828,0.48093 -0.253828,0.627851 0,0.0416938 0.0135925,0.0775841 0.0407775,0.107976 0.0270323,0.0302395 0.0678097,0.0455119 0.12218,0.0455119 0.0416938,0 0.127372,-0.0335994 0.256883,-0.100646 0.0626171,-0.0320722 0.108587,-0.0479555 0.137758,-0.0479555 0.0710169,0 0.106602,0.0207705 0.106602,0.0623116zm2.59403 -1.00187c0,0.095911 -0.0250468,0.21412 -0.0752932,0.354779 -0.108587,0.306671 -0.162804,0.506435 -0.162804,0.599139 0,0.0224505 0.0207705,0.0607844 0.0626171,0.115002 0.0209233,0.0288649 0.0313085,0.0464283 0.0313085,0.0528427 0,0.0574244 -0.0898021,0.125387 -0.269406,0.203582 -0.179604,0.0783477 -0.311253,0.117445 -0.394793,0.117445 -0.0626171,0 -0.116987,-0.0302395 -0.162804,-0.0910239 -0.0459701,-0.0606317 -0.0690315,-0.158223 -0.0690315,-0.292315 0,-0.10874 0.055439,-0.262075 0.166164,-0.460312 0.110573,-0.198084 0.166012,-0.346685 0.166012,-0.445803 -0.0500937,0 -0.160819,0.0847621 -0.332176,0.254134 -0.108587,0.10538 -0.27353,0.277959 -0.49498,0.517736 -0.204651,0.223589 -0.330038,0.354627 -0.375855,0.39296 -0.0125234,0.00641443 -0.112863,0.0400138 -0.300867,0.100798 -0.0250468,0.00626171 -0.0604789,0.0190906 -0.106449,0.0383339 -0.0250468,-0.00641443 -0.0636862,-0.0328358 -0.115918,-0.0791113 -0.0522318,-0.0464283 -0.0783477,-0.0791113 -0.0783477,-0.0983546 0,-0.0925511 0.0794168,-0.333856 0.238098,-0.723762 0.133634,-0.335536 0.244359,-0.586462 0.332176,-0.752627 0.00824713,-0.0158834 0.0520791,-0.0430683 0.131496,-0.0814022 0.158681,-0.0768205 0.263144,-0.115154 0.313238,-0.115154 0.0710169,0 0.138979,0.0160361 0.203735,0.0479555 0.0647552,0.0319194 0.0971328,0.0751405 0.0971328,0.12951 0,0.0351267 -0.0856785,0.186935 -0.256883,0.455272 -0.10034,0.159903 -0.162957,0.265283 -0.188004,0.316445l0.0375702 0.0287122c0.317514,-0.3195 0.515904,-0.512849 0.595168,-0.580048 0.304991,-0.26513 0.543089,-0.397848 0.714293,-0.397848 0.0919402,0 0.164026,0.0264214 0.216258,0.0791113 0.0522318,0.05269 0.0783477,0.157459 0.0783477,0.314002zm1.90478 -0.819673c0,0.0287122 -0.0209233,0.0855258 -0.0626171,0.170135 -0.0418465,0.0847621 -0.082624,0.135772 -0.122332,0.153488 -0.0395557,0.0175633 -0.131496,0.0374175 -0.275668,0.059868 -0.144019,0.0222978 -0.241152,0.0335994 -0.291246,0.0335994 -0.0418465,0 -0.0752932,-0.0160361 -0.10034,-0.0479555 -0.0250468,-0.0320722 -0.0375702,-0.0639916 -0.0375702,-0.095911 0,-0.0830822 0.0668934,-0.169372 0.200527,-0.258868 0.154557,-0.10538 0.3279,-0.158223 0.520027,-0.158223 0.0459701,0 0.0856785,0.0160361 0.119125,0.0479555 0.033294,0.0319194 0.0500937,0.0639916 0.0500937,0.095911zm-0.043832 1.82155c0,0.131038 -0.12951,0.239625 -0.388531,0.325914 -0.171204,0.0511627 -0.286206,0.087053 -0.344699,0.107824 -0.0583408,0.0207705 -0.118972,0.0432211 -0.18159,0.0671988 -0.0627698,0.0239778 -0.123249,0.0358903 -0.181742,0.0358903 -0.108587,0 -0.199458,-0.0366539 -0.272613,-0.110267 -0.0730024,-0.0734605 -0.109656,-0.153335 -0.109656,-0.239625 0,-0.0894966 0.0783477,-0.301937 0.235043,-0.637472 0.156695,-0.335689 0.274599,-0.552863 0.354016,-0.651981l0.588906 -0.215647c0.0960638,0 0.144172,0.0430683 0.144172,0.129358 0,0.0575772 -0.0846094,0.222062 -0.253828,0.493759 -0.169066,0.271544 -0.253676,0.48093 -0.253676,0.627851 0,0.0416938 0.0135925,0.0775841 0.0406247,0.107976 0.027185,0.0302395 0.0679624,0.0455119 0.12218,0.0455119 0.0418465,0 0.127525,-0.0335994 0.257035,-0.100646 0.0626171,-0.0320722 0.108587,-0.0479555 0.137758,-0.0479555 0.0710169,0 0.106602,0.0207705 0.106602,0.0623116zm1.81696 -1.31343c0,0.115002 -0.0125234,0.199764 -0.0375702,0.253981 -0.0416938,0.0927038 -0.123249,0.139132 -0.244359,0.139132 -0.0334467,0 -0.0794168,-0.0113016 -0.137758,-0.0335994 -0.0584935,-0.0224505 -0.0982019,-0.0432211 -0.119125,-0.0623116 -0.0209233,0.0383339 -0.0313085,0.0751405 -0.0313085,0.110267 0,0.0222978 0.0939256,0.158223 0.28193,0.407469 0.0919402,0.121416 0.13791,0.223589 0.13791,0.306671 0,0.21412 -0.13791,0.393113 -0.413578,0.53698 -0.246497,0.12783 -0.515904,0.191669 -0.808371,0.191669 -0.150281,0 -0.271392,-0.0175633 -0.363332,-0.05269 -0.125387,-0.0479555 -0.188004,-0.123096 -0.188004,-0.225269 0,-0.0511627 0.0533009,-0.128594 0.15975,-0.232447 0.106602,-0.104005 0.193197,-0.155932 0.26009,-0.155932 0.0751405,0 0.144172,0.0352794 0.206789,0.105533 0.142034,0.153335 0.233821,0.230156 0.275668,0.230156 0.0500937,0 0.0751405,-0.027185 0.0751405,-0.0815549 0,-0.178993 -0.072086,-0.353099 -0.216105,-0.522471 -0.144172,-0.169372 -0.216258,-0.279639 -0.216258,-0.330801 0,-0.121416 0.142034,-0.274752 0.426102,-0.460159 0.284068,-0.185408 0.505518,-0.277959 0.664199,-0.277959 0.0626171,0 0.126303,0.0143561 0.191058,0.0430683 0.0647552,0.0287122 0.0971328,0.0655189 0.0971328,0.110267zm1.89852 -0.42656c0,0.0158834 -0.0626171,0.113322 -0.187851,0.292315 -0.13791,0.198084 -0.215189,0.319653 -0.231836,0.364248 0.275668,0 0.413425,0.0392502 0.413425,0.117445 0,0.0375702 -0.0406247,0.0983546 -0.12218,0.182964 -0.0814022,0.0847621 -0.145088,0.131038 -0.191058,0.140659l-0.344547 0c-0.0668934,0.025505 -0.125387,0.0919402 -0.175481,0.199 -0.0500937,0.10706 -0.0752932,0.194113 -0.0752932,0.261159 0,0.0766677 0.0219923,0.136689 0.0658243,0.179757 0.043832,0.0432211 0.115918,0.0647552 0.216258,0.0647552 0.0459701,0 0.146157,-0.0239778 0.300715,-0.0719333 0.0710169,-0.0222978 0.133634,-0.0335994 0.188004,-0.0335994 0.0835404,0 0.125234,0.0303922 0.125234,0.0911766 0,0.025505 -0.0093162,0.0479555 -0.0281013,0.0670461 -0.0187851,0.0192433 -0.0636862,0.0511627 -0.134703,0.095911 -0.14631,0.095911 -0.287275,0.167692 -0.423047,0.215647 -0.135772,0.0479555 -0.28926,0.0719333 -0.460465,0.0719333 -0.192128,0 -0.344699,-0.05437 -0.45741,-0.163721 -0.112863,-0.109504 -0.169219,-0.238861 -0.169219,-0.387462 0,-0.05437 0.0250468,-0.131038 0.0751405,-0.23092 0.0502464,-0.0998819 0.102478,-0.202207 0.156695,-0.306824 0,-0.018327 -0.00412356,-0.0311558 -0.0125234,-0.0375702 -0.00839985,-0.00641443 -0.0146616,-0.0111489 -0.0187851,-0.0143561 -0.116987,0 -0.175481,-0.0190906 -0.175481,-0.0583408 0,-0.0511627 0.0584935,-0.111031 0.175481,-0.178077 0.167081,-0.0998819 0.259021,-0.156695 0.275668,-0.169372 0.158834,-0.244512 0.286206,-0.437861 0.38227,-0.579284 0.0960638,-0.141423 0.171204,-0.217327 0.225574,-0.226949 0.0751405,-0.00626171 0.155626,-0.0279486 0.241152,-0.0653661 0.0856785,-0.0368066 0.155626,-0.0551336 0.209996,-0.0551336 0.0584935,0 0.0991183,0.0190906 0.12218,0.0574244 0.0229087,0.0383339 0.034363,0.0974383 0.034363,0.177466zm-9.19738 8.79465l-2.63236 0c-0.0684206,0 -0.102631,-0.0198542 -0.102631,-0.0594099 0,-0.0087053 0.293231,-0.60708 0.879846,-1.79482l-3.17499 1.82124c-0.0439847,0.0264214 -0.151503,0.0395557 -0.322554,0.0395557 -0.210302,0 -0.327594,-0.0109962 -0.35203,-0.0329885l-1.64255 -1.82781 -0.872516 1.7684c-0.0293231,0.0572717 -0.0879694,0.0858312 -0.175939,0.0858312l-1.01195 0c-0.0684206,0 -0.102631,-0.0198542 -0.102631,-0.0594099 0,-0.0087053 0.721013,-1.46936 2.16304,-4.38167 0.0293231,-0.057119 0.0879694,-0.0858312 0.176091,-0.0858312l1.07778 0c0.0439847,0 0.0757514,0.0109962 0.0953001,0.0329885l2.00191 2.91673 5.15476 -2.91673c0.0342103,-0.0219923 0.0733078,-0.0329885 0.117292,-0.0329885l0.960638 0c0.0684206,0 0.102631,0.0198542 0.102631,0.0594099 0,0.00885803 -0.721013,1.46936 -2.16319,4.38167 -0.0293231,0.0572717 -0.0879694,0.0858312 -0.175939,0.0858312zm8.98234 -2.07201l-3.5342 0c-0.0586462,0 -0.0881221,-0.0198542 -0.0881221,-0.0594099 0,-0.00885803 0.102784,-0.222214 0.308046,-0.640069 0.0293231,-0.0572717 0.0855258,-0.0858312 0.168608,-0.0858312l3.53435 0c0.0635334,0 0.0953001,0.0219923 0.0953001,0.065977 0,0.00442901 -0.105075,0.215647 -0.315376,0.633502 -0.0244359,0.0572717 -0.0806386,0.0858312 -0.168608,0.0858312zm-1.03379 2.07201l-4.96416 0c-0.444887,0 -0.796917,-0.0989655 -1.05594,-0.296897 -0.273682,-0.215647 -0.410676,-0.519111 -0.410676,-0.910697 0,-0.329885 0.0954529,-0.681915 0.286053,-1.05579 0.317667,-0.633502 0.772328,-1.15918 1.36383,-1.57719 0.645261,-0.457563 1.33206,-0.686344 2.06041,-0.686344l4.96416 0c0.0635334,0 0.0953001,0.0198542 0.0953001,0.0594099 0,0.00885803 -0.00244359,0.0177161 -0.00733078,0.0264214l-0.300562 0.613647c-0.0244359,0.0528427 -0.0830822,0.0792641 -0.175939,0.0792641l-3.33642 0c-0.34699,0 -0.6306,0.103395 -0.850523,0.310184 -0.151503,0.136383 -0.312933,0.378299 -0.483984,0.7259l-0.351877 0.71918c-0.190753,0.378452 -0.286053,0.655494 -0.286053,0.831585 0,0.25505 0.168608,0.382728 0.505977,0.382728l3.33627 0c0.0684206,0 0.102631,0.0197015 0.102631,0.0592571 -0.00488719,0.00885803 -0.00733078,0.0177161 -0.00733078,0.0264214l-0.300562 0.60708c-0.0293231,0.0572717 -0.090413,0.0858312 -0.18327,0.0858312zm-15.4779 9.00632c-0.152419,-0.0320722 -0.321485,-0.0384866 -0.507962,-0.018327 -0.186629,0.0184797 -0.371121,0.0586462 -0.553321,0.119125 -0.183422,0.0612426 -0.357986,0.135009 -0.528274,0.221145 -0.496508,0.260854 -1.04235,0.447636 -1.634,0.558361 -0.0494828,0.0116071 -0.119583,0.0099271 -0.211829,-0.00412356 -0.0920929,-0.0140507 -0.164484,-0.0390975 -0.215953,-0.0757514 -0.188462,-0.133939 -0.345158,-0.290329 -0.472072,-0.469323 -0.125845,-0.179757 -0.192433,-0.342409 -0.200986,-0.488566 -0.0192433,-0.238098 0.111947,-0.549809 0.393724,-0.936813 0.280555,-0.38624 0.678555,-0.762248 1.19614,-1.12802 0.308809,-0.218243 0.570274,-0.370357 0.786532,-0.456494 0.215342,-0.0852203 0.373259,-0.0928566 0.471919,-0.022756 0.160055,0.113627 0.261923,0.217174 0.304533,0.311253 0.0447483,0.0942311 0.0555918,0.168913 0.0346685,0.224047 -0.021076,0.0568135 -0.0716278,0.146921 -0.148754,0.271239 -0.0879694,0.129052 -0.156237,0.247261 -0.204804,0.354474 -0.0484137,0.107213 -0.0838458,0.202055 -0.108129,0.286053 -0.0232141,0.0832349 -0.0441374,0.13058 -0.0617007,0.143103 -0.0209233,0.0146616 -0.0406247,0.0161888 -0.057119,0.00458174 -0.0372648,-0.0264214 -0.0546754,-0.0917875 -0.0511627,-0.198389 0.00137452,-0.106449 0.0311558,-0.219313 0.0862894,-0.337369 0.0572717,-0.127525 0.0760568,-0.196709 0.0586462,-0.209233 -0.0274904,-0.019396 -0.106602,0.0163415 -0.237334,0.10874 -0.397848,0.281013 -0.729718,0.565386 -0.995917,0.854341 -0.266046,0.28758 -0.43893,0.541714 -0.517278,0.761638 -0.0794168,0.219313 -0.058799,0.370968 0.0617007,0.456647 0.0745296,0.0529954 0.168913,0.0623116 0.279791,0.0274904 0.110878,-0.0349739 0.341492,-0.123401 0.688482,-0.266046 0.347143,-0.142797 0.677639,-0.25673 0.987212,-0.34363 0.444734,-0.124623 0.812495,-0.190448 1.10649,-0.194877 0.294148,-0.00427629 0.528885,0.0566608 0.706351,0.182811 0.122791,0.0872057 0.214731,0.194571 0.279181,0.32454 0.0646025,0.128289 0.0905657,0.269864 0.0804859,0.423047 -0.0125234,0.153335 -0.058799,0.305602 -0.140354,0.458021 -0.0726969,0.127372 -0.18159,0.275821 -0.326831,0.445192 -0.145088,0.169524 -0.315529,0.342714 -0.514529,0.520638 -0.196862,0.177924 -0.396778,0.337827 -0.601277,0.482304 -0.375855,0.265588 -0.713071,0.454203 -1.01287,0.565234 -0.298729,0.111642 -0.520333,0.116071 -0.663894,0.0140507 -0.0635334,-0.0452065 -0.124776,-0.143256 -0.182659,-0.294911 -0.0589517,-0.150892 -0.059868,-0.280861 -0.00137452,-0.388837 0.0560499,-0.0910239 0.124318,-0.168608 0.204498,-0.233058 0.0801804,-0.0646025 0.133023,-0.0878166 0.159292,-0.0691842 0.00656716,0.00473446 0.00977437,0.0117598 0.0087053,0.0203124 0,0.0093162 -0.00106907,0.0178688 -0.00549809,0.027185 -0.00442901,0.0093162 -0.00885803,0.0186324 -0.013287,0.0279486 -0.0264214,0.0419993 -0.0473446,0.0769732 -0.064908,0.101867 -0.0164943,0.0256577 -0.0287122,0.0481082 -0.0352794,0.0668934 -0.00549809,0.0178688 0,0.0325303 0.0163415,0.0442901 0.044901,0.0319194 0.290024,-0.108587 0.733994,-0.422283 0.386699,-0.273377 0.688941,-0.507198 0.907795,-0.7007 0.219771,-0.194113 0.387004,-0.383797 0.502617,-0.56951 0.116682,-0.184949 0.18724,-0.377688 0.213967,-0.578368zm3.25181 -2.41763l0.202818 0.144019c0.00274904,0.26681 -0.00320722,0.491468 -0.0178688,0.674279 -0.0157306,0.181895 -0.0444429,0.33126 -0.0830822,0.447025 -0.0398611,0.116682 -0.095911,0.199764 -0.166317,0.249552 -0.16815,0.11882 -0.350197,0.107671 -0.546296,-0.0317667 -0.158986,-0.112863 -0.290329,-0.279486 -0.395251,-0.502006 -0.1037,-0.221756 -0.199764,-0.5017 -0.28697,-0.840902 -0.0429156,0.106449 -0.0728496,0.214578 -0.0894966,0.324234 -0.0155779,0.11042 -0.0201596,0.216105 -0.0093162,0.317209 0.00855258,0.101104 0.0171052,0.186629 0.0258105,0.25673 0.0160361,0.209233 0.0419993,0.417702 0.0777368,0.625254 0.0346685,0.206942 0.0542172,0.343783 0.0584935,0.410676 0.00412356,0.0668934 -0.0134398,0.115154 -0.0540645,0.143867 -0.16815,0.11882 -0.457716,0.0314613 -0.868697,-0.260548 -0.134703,-0.095911 -0.262839,-0.216563 -0.384408,-0.360583 -0.121569,-0.143867 -0.228629,-0.374175 -0.317973,-0.69001 -0.185255,-0.664352 -0.321333,-1.21752 -0.410371,-1.6592 -0.0890384,-0.441832 -0.136689,-0.79035 -0.143867,-1.04464 -0.00717806,-0.254286 0.0216869,-0.402124 0.0864421,-0.44168 0.0812495,-0.0481082 0.157154,-0.079875 0.226338,-0.0962165 0.0690315,-0.0161888 0.119583,-0.0131343 0.149212,0.00794168 0.0536063,0.0381811 0.106144,0.126914 0.154099,0.266963 0.0491773,0.139132 0.114543,0.366386 0.195182,0.679014 0.0804859,0.334467 0.135925,0.570274 0.167539,0.707878 0.0303922,0.136994 0.0684206,0.33691 0.111794,0.598222 0.0456647,0.261312 0.0801804,0.496202 0.108282,0.706199 0.0270323,0.209233 0.0485664,0.442596 0.0656716,0.697646l0.38563 0.274141c-0.0320722,-0.430836 -0.0433738,-0.792488 -0.0361957,-1.08496 0.00610898,-0.293078 0.0317667,-0.528733 0.073766,-0.706046 0.0409302,-0.176397 0.0971328,-0.289108 0.16647,-0.338132 0.0636862,-0.0450538 0.162499,-0.0604789 0.294148,-0.0462756 0.131649,0.0140507 0.222672,0.0398611 0.270933,0.0740714 0.0218396,0.0155779 0.0371121,0.0419993 0.0491773,0.0801804 0.0291704,0.240389 0.0583408,0.435571 0.0876639,0.585699 0.0305449,0.150892 0.0675043,0.27689 0.113474,0.379673 0.0458174,0.102631 0.103853,0.178077 0.171815,0.226491 0.100798,0.0716278 0.199611,0.0733078 0.296286,0.00488719 0.103242,-0.0730024 0.193808,-0.332634 0.271392,-0.778895zm-0.198237 -0.673821c0.0303922,-0.440916 0.127678,-0.820284 0.290788,-1.13902 0.16311,-0.318583 0.329121,-0.53698 0.496202,-0.655036 0.0450538,-0.0317667 0.10538,-0.0481082 0.1822,-0.0496355 0.0757514,-0.000610898 0.150434,0.0087053 0.221603,0.028254 0.0723915,0.0187851 0.119583,0.0366539 0.142645,0.0529954 0.0394029,0.0281013 0.0525373,0.0592571 0.040472,0.0927038 -0.0111489,0.0340576 -0.0419993,0.087053 -0.0925511,0.158528 0.04933,0.013287 0.113016,0.0303922 0.189684,0.0522318 0.0778895,0.021076 0.139285,0.0398611 0.185408,0.0539118 0.0459701,0.0140507 0.0810968,0.0311558 0.106296,0.0490246 0.0514682,0.0366539 0.0963692,0.141728 0.132107,0.315071 0.0371121,0.172732 0.0664352,0.297966 0.090413,0.374175 0.0250468,0.0771259 0.0852203,0.149365 0.181742,0.217938 0.157765,0.112253 0.310336,0.117751 0.456494,0.0145088 0.150434,-0.106449 0.245428,-0.372343 0.284679,-0.797681l0.196098 0.139438c0.0577299,0.810357 -0.029934,1.29953 -0.264061,1.46493 -0.0835404,0.0589517 -0.170288,0.0814022 -0.261312,0.0681152 -0.0899548,-0.0140507 -0.187546,-0.0584935 -0.294911,-0.134856 -0.168761,-0.119889 -0.352641,-0.337827 -0.551794,-0.652134 0.0331412,0.467337 0.0478028,0.808066 0.0418465,1.01867 -0.00580353,0.21244 -0.0577299,0.353099 -0.156543,0.423047 -0.0473446,0.033294 -0.147227,0.0464283 -0.298577,0.0384866 -0.152572,-0.0087053 -0.321485,-0.0383339 -0.504602,-0.0922457 -0.184339,-0.0529954 -0.346532,-0.129358 -0.484595,-0.22756 -0.100798,-0.0716278 -0.175328,-0.138674 -0.223436,-0.199306 -0.048261,-0.0623116 -0.079875,-0.137758 -0.0939256,-0.227254 -0.0152725,-0.0901075 -0.019396,-0.219313 -0.0123707,-0.38731zm1.18774 -1.34107c-0.304075,0.575161 -0.484901,1.01058 -0.543547,1.30366 -0.059868,0.293995 0.00442901,0.507809 0.192891,0.641749 0.0690315,0.0491773 0.136994,0.0803331 0.203887,0.0951474 0.0681152,0.0140507 0.121874,0.00717806 0.162499,-0.0216869 0.0241305,-0.0169524 0.0505518,-0.0574244 0.0803331,-0.120347 0.0927038,-0.253523 0.126151,-0.522471 0.10034,-0.805622 -0.0268795,-0.283915 -0.0919402,-0.647858 -0.196404,-1.0929zm3.18874 -0.987517l0.237639 0.168913c0.14463,0.738271 0.0755987,1.20637 -0.20572,1.40507 -0.151656,0.107213 -0.354779,0.132718 -0.606928,0.076515 -0.252301,-0.0563554 -0.514376,-0.180215 -0.783935,-0.371884 -0.218091,-0.154863 -0.426102,-0.376008 -0.623116,-0.662367 -0.199153,-0.286359 -0.365317,-0.600666 -0.5017,-0.942311 -0.136536,-0.341492 -0.226949,-0.659618 -0.271392,-0.954529 -0.0444429,-0.294758 -0.0329885,-0.531176 0.0331412,-0.708337 0.0265741,-0.0731551 0.0562027,-0.122027 0.0936202,-0.148448 0.0450538,-0.0319194 0.0945365,-0.038792 0.149365,-0.0216869 0.0536063,0.0180215 0.129358,0.0607844 0.225727,0.129358 0.298118,0.211829 0.54202,0.556528 0.733231,1.03654 0.191058,0.478486 0.295217,1.03242 0.313849,1.6592 0.0898021,0.0934675 0.164179,0.161888 0.224505,0.204804 0.136994,0.0972856 0.278417,0.155779 0.422131,0.175328 0.144783,0.0187851 0.270017,-0.00901075 0.374328,-0.0827767 0.0539118,-0.0381811 0.0913293,-0.0940783 0.111184,-0.167081 0.0209233,-0.0739187 0.034363,-0.157917 0.0410829,-0.249705 0.00565081,-0.0925511 0.0169524,-0.274446 0.0329885,-0.546601zm-1.53916 0.269101c0.00152725,-0.15639 -0.0146616,-0.320416 -0.0494828,-0.493148 -0.0346685,-0.172732 -0.0859839,-0.347754 -0.151503,-0.525067 -0.0665879,-0.17823 -0.137605,-0.329885 -0.21076,-0.456799 -0.0733078,-0.126761 -0.142339,-0.213204 -0.206942,-0.259174 -0.04933,-0.0349739 -0.0910239,-0.0397084 -0.125081,-0.0155779 -0.0131343,0.0093162 -0.0253523,0.0349739 -0.0384866,0.0769732 -0.0233669,0.168608 0.0386393,0.42152 0.18724,0.757667 0.148448,0.335994 0.346532,0.641901 0.595015,0.915126zm3.04899 -1.33619l0.237792 0.169066c0.144477,0.738118 0.0754459,1.20622 -0.205873,1.40507 -0.151656,0.10706 -0.354627,0.132565 -0.606928,0.0763623 -0.252301,-0.0562027 -0.514376,-0.180215 -0.783935,-0.371732 -0.218091,-0.155015 -0.426102,-0.376161 -0.622964,-0.662519 -0.199153,-0.286359 -0.365317,-0.600666 -0.501853,-0.942311 -0.136536,-0.341492 -0.226949,-0.659618 -0.271392,-0.954376 -0.0444429,-0.294911 -0.0329885,-0.531176 0.033294,-0.708489 0.0264214,-0.0730024 0.0562027,-0.122027 0.0934675,-0.148448 0.0450538,-0.0317667 0.0945365,-0.038792 0.149365,-0.0216869 0.0537591,0.0180215 0.129358,0.0607844 0.225727,0.129358 0.298118,0.211829 0.542172,0.556681 0.733231,1.03669 0.191058,0.478486 0.295369,1.03227 0.313849,1.65905 0.0898021,0.0934675 0.164332,0.161888 0.224505,0.204804 0.136994,0.0972856 0.278417,0.155779 0.422131,0.175328 0.144783,0.0189378 0.270017,-0.00901075 0.374328,-0.0827767 0.0539118,-0.0380284 0.0913293,-0.0940783 0.111184,-0.167081 0.021076,-0.0739187 0.034363,-0.157917 0.0410829,-0.249552 0.00565081,-0.0925511 0.0171052,-0.274599 0.0329885,-0.546754zm-1.53901 0.269101c0.00137452,-0.156237 -0.0148143,-0.320416 -0.0494828,-0.493148 -0.0348212,-0.172579 -0.0859839,-0.347601 -0.151503,-0.525067 -0.0665879,-0.178077 -0.137605,-0.329885 -0.210913,-0.456647 -0.0733078,-0.126914 -0.142187,-0.213204 -0.206942,-0.259174 -0.04933,-0.0351267 -0.0910239,-0.0398611 -0.125081,-0.0157306 -0.0131343,0.0093162 -0.0251996,0.0349739 -0.0384866,0.0769732 -0.0233669,0.168761 0.0386393,0.42152 0.18724,0.757667 0.148601,0.336147 0.346532,0.641901 0.595168,0.915126zm9.34827 5.25983c-1.1911,0.175481 -2.42298,-0.370968 -3.69532,-1.63935l-1.35833 0.200069 -0.331718 -1.13062 4.57639 -0.674279 0.331718 1.13062 -1.63186 0.240541c0.643887,0.552099 1.19064,0.795084 1.64041,0.728802 0.346379,-0.05101 0.403346,-0.472835 0.170899,-1.26532 -0.0594099,-0.202513 -0.139743,-0.43328 -0.241152,-0.692453 -0.101409,-0.259174 -0.150739,-0.384408 -0.148296,-0.375702l1.46157 0.0542172 0.464283 1.58284c0.310795,1.0596 -0.10202,1.6731 -1.2386,1.84064zm-0.474515 2.24016c-0.138368,-0.298729 -0.37051,-0.495897 -0.696577,-0.591655l-2.85351 0.420451 -0.297508 -1.0144 4.53989 -0.668781 0.286206 0.975605 -0.264366 0.0389448c0.17991,0.0946892 0.308809,0.188157 0.386546,0.279944 0.0617007,0.0807913 0.11714,0.205262 0.16647,0.373106l-1.26716 0.186782zm0.583102 3.47952c-0.735369,0.108282 -1.43317,0.085373 -2.0934,-0.0690315 -0.794473,-0.179451 -1.26257,-0.510406 -1.404,-0.992863 -0.140201,-0.478028 0.0997292,-0.913293 0.720096,-1.3058 0.523693,-0.333245 1.15002,-0.553627 1.87943,-0.661145 0.65641,-0.0966747 1.16483,-0.0164943 1.52557,0.240389 0.282235,0.205567 0.495897,0.555918 0.641291,1.05136 0.140201,0.478028 0.131954,0.849912 -0.0245887,1.11565 -0.185408,0.319347 -0.600055,0.526594 -1.2444,0.621436zm-0.583866 -0.985685c0.486275,-0.0716278 0.682526,-0.26681 0.589059,-0.585546 -0.0972856,-0.331565 -0.361652,-0.465657 -0.793252,-0.402124 -0.279486,0.0412356 -0.580506,0.128289 -0.902908,0.261159 -0.408538,0.163568 -0.590739,0.320722 -0.546449,0.471461 0.0429156,0.146463 0.285595,0.238709 0.727885,0.27689 0.34363,0.0258105 0.652134,0.0184797 0.925664,-0.0218396zm-0.512238 3.66799c-0.753696,0.111031 -1.22653,-0.160819 -1.41851,-0.815549l-0.250163 -0.852814 1.14574 -0.43832c0.161888,0.573634 0.21076,0.761943 0.146616,0.564776 0.109504,0.329732 0.209691,0.487955 0.300867,0.474515 0.018327,-0.00259632 0.123096,-0.110114 0.314307,-0.322554 0.229851,-0.254134 0.443207,-0.456188 0.640069,-0.606622 0.294606,-0.22756 0.575619,-0.361041 0.84304,-0.400444 0.723151,-0.106602 1.18774,0.191211 1.39376,0.893286l0.189531 0.646025 -1.14589 0.438472c-0.117598,-0.423047 -0.162652,-0.587226 -0.134856,-0.492384 -0.0907184,-0.287733 -0.187699,-0.423963 -0.291093,-0.408691 -0.596542,0.797833 -1.1743,1.23783 -1.73342,1.3203zm2.5783 2.88894c-0.765761,0.112863 -1.45699,0.0259632 -2.07369,-0.260548 -0.562637,-0.254134 -1.01913,-0.642971 -1.36933,-1.16651l-1.48586 0.218854 -0.29766 -1.01424 6.13541 -0.903977 0.399833 1.36322c0.142797,0.486733 0.130427,0.865948 -0.0371121,1.1378 -0.191364,0.320263 -0.615175,0.528733 -1.27158,0.625407zm-0.41984 -1.00966c0.431447,-0.0636862 0.591655,-0.284984 0.480472,-0.664047l-0.0757514 -0.25841 -2.10592 0.310336c0.44733,0.509184 1.0144,0.713224 1.7012,0.61212zm1.93197 4.05698c-0.449774,0.0662825 -0.89909,0.00442901 -1.34795,-0.18556 -0.311864,-0.133787 -0.668476,-0.35539 -1.06999,-0.664657 -0.000305449,0.193197 0.0684206,0.524609 0.206025,0.994084l-1.28976 -0.0525373 -0.107976 -0.368372c-0.184491,-0.628767 -0.0855258,-1.16682 0.296744,-1.61415 0.396931,-0.462756 1.03593,-0.759194 1.91715,-0.88901 0.698868,-0.102936 1.22928,-0.0351267 1.59093,0.203735 0.306518,0.201902 0.534994,0.559277 0.685275,1.07182 0.120042,0.409149 0.138674,0.721013 0.0557445,0.935285 -0.113627,0.30438 -0.425796,0.494217 -0.936202,0.569357zm-0.547518 -0.99103c0.170135,-0.0250468 0.226185,-0.136689 0.167997,-0.334772 -0.0997292,-0.34027 -0.377535,-0.476806 -0.833418,-0.409607 -0.176244,0.0259632 -0.345616,0.0642971 -0.508267,0.115307 0.508878,0.459701 0.900159,0.669392 1.17369,0.629073zm1.13199 3.08076c-0.138368,-0.298577 -0.370663,-0.495744 -0.69673,-0.591502l-2.85335 0.420451 -0.297508 -1.0144 4.53989 -0.668934 0.286206 0.975605 -0.264366 0.0389448c0.17991,0.094842 0.308809,0.188157 0.386393,0.280097 0.0618535,0.0807913 0.117292,0.205109 0.166623,0.373106l-1.26716 0.186629z"/>
 </g>
</svg>
