<?xml version="1.0" encoding="UTF-8"?>
<!DOCTYPE svg PUBLIC "-//W3C//DTD SVG 1.1//EN" "http://www.w3.org/Graphics/SVG/1.1/DTD/svg11.dtd">
<!-- Creator: CorelDRAW -->
<svg xmlns="http://www.w3.org/2000/svg" xml:space="preserve" width="1in" height="2in" style="shape-rendering:geometricPrecision; text-rendering:geometricPrecision; image-rendering:optimizeQuality; fill-rule:evenodd; clip-rule:evenodd"
viewBox="0 0 0.0531852 0.0855597"
 xmlns:xlink="http://www.w3.org/1999/xlink">
 <defs>
  <style type="text/css">
   <![CDATA[
    .fil0 {fill:#DA251D}
   ]]>
  </style>
 </defs>
 <g id="Layer_x0020_1">
  <metadata id="CorelCorpID_0Corel-Layer"/>
  <path class="fil0" d="M0.0221969 0.0855123c-0.000291927,-0.000598737 -0.00078846,-0.000540392 -0.00140188,-0.000511219 -0.000233581,-0.000102204 -0.000467162,-0.000204408 -0.000700941,-0.000291927 -0.000394329,-0.000890862 -0.000394329,-0.000890862 -0.000525706,-0.00100775 -0.00150409,-0.000116691 -0.00150409,-0.000116691 -0.0018107,-0.000219094 -0.000759485,-0.00105141 -0.000759485,-0.00105141 -0.00110996,-0.00169381 -0.00105141,-0.000146063 -0.00230723,-1.46856e-005 -0.00296451,-0.000890862 -5.83456e-005,-0.000335983 -0.000102204,-0.000671769 -0.000145864,-0.00100755 -0.000365156,-0.000204607 -0.00070114,-0.000350669 -0.000905548,-0.000715627 -0.00236558,-8.77169e-005 -0.00283294,0.000146063 -0.00227806,-0.00208834 0,-0.00322727 -0.00163546,-0.00623564 -0.00102224,-0.00944822 0.000365156,-0.000993066 0.0007448,-0.00252633 0.0014896,-0.00448329 0.00150409,-0.00264322 0.00312506,-0.00438088 0.00570973,-0.00598737 0,-0.000569366 -0.00016055,-0.000949208 -0.000379643,-0.00147491 -0.00147491,-0.00230723 -0.00147491,-0.00230723 -0.0022342,-0.00373829 -0.00086169,-0.00229275 -0.00131436,-0.00400144 -0.0037238,-0.00483376 -0.00408896,-0.00386986 -0.00715567,-0.00807551 -0.00908326,-0.0134058 -0.000482046,-0.00182538 -0.00086169,-0.00354857 -0.00110996,-0.00541781 0,-0.00135802 0,-0.00270156 0,-0.0040451 0.000482046,-0.00243861 0.000978579,-0.00486293 0.00147491,-0.00728705 0.000993066,-0.00211731 0.0022344,-0.00408876 0.00356325,-0.00601655 0.0022344,-0.0025555 0.00449777,-0.00455612 0.00719933,-0.00662977 0.003724,-0.00205916 0.00677603,-0.00332967 0.0109817,-0.00413282 0.00642556,-0.000700941 0.0120916,0.000569564 0.0176116,0.00394289 0.00110976,0.00086169 0.00221971,0.00172318 0.00332947,0.00259936 0.00210282,0.00210302 0.00379683,0.00419116 0.00540312,0.006703 0.00160649,0.00356305 0.00296451,0.00687804 0.0036216,0.0107334 0,0.00115362 0,0.00230723 0,0.00347553 -0.000248267,0.00154795 -0.000496533,0.00311058 -0.000744601,0.00467301 -0.000759485,0.00280377 -0.000759485,0.00280377 -0.00150429,0.00500899 -0.000832318,0.00188373 -0.00185456,0.00367994 -0.00299369,0.00540312 -0.00172318,0.00205897 -0.00405959,0.00503816 -0.00676115,0.00570993 -0.00157712,0.000832318 -0.00200062,0.00246778 -0.00267239,0.00407427 -0.00115362,0.00169401 -0.00249715,0.00332947 -0.00337333,0.00518403 1.44872e-005,5.85441e-005 2.91728e-005,0.00011689 4.366e-005,0.000175235 0.00258487,0.00217605 0.00395758,0.00439577 0.00519891,0.00753532 0.000554879,0.0021322 0.000759287,0.00417667 0.000832318,0.00636702 -0.0007448,0.00186924 -0.00150409,0.00341719 -0.0022342,0.00524257 -0.000189921,0.0007448 -0.000379842,0.00242412 -0.000482046,0.00264322 -0.000525706,0.000262952 -0.000978381,-0.000146063 -0.00147491,-0.000277439 -0.000189723,0.00011689 -0.000584052,0.000832318 -0.00125582,0.0015918 -0.000569564,0.000277439 -0.00108058,5.83456e-005 -0.00156263,0.00046736 0.000262952,0.000919837 -0.000481848,0.00118279 -0.00125582,0.00122665 -0.000248267,0.000233581 -0.000496533,0.000481848 -0.0007448,0.000730114 -0.00110976,0.000262754 -0.00173787,0.000204408 -0.00230723,0.00112444 -0.000613423,0 -0.00122665,0.00016055 -0.00166483,-0.000277439 -0.00128499,0.00175235 -0.00419116,0.00124133 -0.00603123,0.00127051zm0.000379842 -0.00046736c-0.000131575,-0.00156263 8.75184e-005,-0.00356325 0.00051102,-0.00509651 0.000978381,0 0.00182538,-0.000248267 0.00242412,0.000598737 8.77169e-005,0.00131417 0.000219094,0.00140188 -0.000963695,0.00189842 0.000131377,0.000306612 0.00100755,0.00204448 0.000803145,0.00246798 -0.000511219,-0.000409015 -0.000817831,-0.00113913 -0.00132885,-0.00144574 -5.85441e-005,0.000525706 -0.000102403,0.00105141 -0.000146063,0.00157712 -0.000438188,0 -0.000876177,0 -0.00129968,0zm0.00373829 -8.75184e-005c-0.000145864,-0.00173787 -0.000204408,-0.00338802 -0.000189723,-0.00514037 0.00108058,0.000481848 0.00165015,0.00166464 0.00229275,0.00261384 0,0.0010661 -0.00119747,0.00211751 -0.00210302,0.00252652zm-0.00541781 -0.00046736c-0.000408816,-0.000248267 -0.000584052,-0.000803145 -0.000817633,-0.00121216 2.91728e-005,-0.000949208 -0.000102204,-0.0043664 0.00159161,-0.00426419 0.000715627,0.00109527 0.000555077,0.00264322 0.00046736,0.00388455 -0.000204408,0.00102224 -0.000277439,0.00131436 -0.00124133,0.0015918zm0.00813406 -0.00046736c-5.83456e-005,-0.000817831 0.000102204,-0.00154795 -0.00016055,-0.0023366 -7.30313e-005,-0.00078846 -0.000146063,-0.00156243 -0.000219094,-0.00233641 0.00016055,2.91728e-005 0.000321298,7.30313e-005 0.000496533,0.00011689 0.000204408,0.00150409 0.000408816,0.002979 0.00046736,0.00448309 -0.000204607,1.46856e-005 -0.000394329,4.38584e-005 -0.00058425,7.30313e-005zm-0.00804634 -0.000569564c-0.000511219,-0.00102224 -0.000379643,-0.00202979 -0.000131377,-0.00312506 0.000394131,-0.000204408 0.000394131,-0.000204408 0.00062791,-0.000189921 0.000248267,0.000832517 0.00051102,0.00292066 -0.000496533,0.00331498zm0.00541781 0c0,-0.000569564 0,-0.00112444 0,-0.00167932 0.000876177,7.30313e-005 0.00108058,0.000934522 0.000525706,0.00157712 -0.000175235,2.91728e-005 -0.000350471,5.85441e-005 -0.000525706,0.000102204zm0.00449777 -0.000277439c-0.000759287,-0.00162098 -0.000949208,-0.00347553 -0.00122665,-0.00522789 0.000920035,0 0.00227806,0.00207365 0.0026577,0.00185456 0,-0.000934522 -0.000379643,-0.00185456 -0.000496533,-0.00278928 0.000160748,2.91728e-005 0.000321298,7.30313e-005 0.000496533,0.00011689 0.000248267,0.00166483 0.000920035,0.00325644 0.00127051,0.00492128 -0.00100755,-8.75184e-005 -0.000963695,-0.0011683 -0.00169401,-0.00175235 -0.000525706,0.000715627 0.000511219,0.00185456 -7.30313e-005,0.00273073 -0.000321099,4.38584e-005 -0.00062791,8.77169e-005 -0.000934522,0.000146063zm-0.0126318 -8.75184e-005c-0.000131377,-4.38584e-005 -0.000248267,-7.30313e-005 -0.000365156,-0.000102204 -0.000773973,-0.00198613 -0.000496335,-0.00313975 0.000335983,-0.00506734 0.000861491,-0.00046736 0.00150409,-0.000452873 0.00204448,0.000394131 0,0.000993066 8.75184e-005,0.0011683 -0.000890862,0.00131436 0,-0.000350471 0,-0.000700941 0,-0.00103692 -0.00100755,0.00011689 -0.00201531,0.00220523 -0.000934522,0.00262873 0.000116691,-0.000219094 0.000248267,-0.000438188 0.000379643,-0.000657281 0.00113913,0.000409015 0.000890862,0.00122685 0.000554879,0.00224909 -0.000379643,8.75184e-005 -0.000759287,0.000175235 -0.00112444,0.000277439zm0.00579745 -0.00103692c1.46856e-005,-0.000437989 0,-0.000861491 0.000189921,-0.00125582 0.000292125,0.000379643 0.000306612,0.000452675 0.000277439,0.000934522 -0.00016055,0.000102204 -0.000321298,0.000204408 -0.00046736,0.000321298zm-0.00879114 -0.000832318c-0.0010661,-0.000233779 -0.00143106,-0.000482046 -0.000890862,-0.00150409 0,-0.00110996 -0.000145864,-0.00226357 0.000219094,-0.0033005 0.000803145,7.30313e-005 0.00261404,-0.000116691 0.00245349,0.00110996 -0.00046736,0.000379643 -0.000978579,-0.000292125 -0.00134354,-0.000452675 -0.00011689,0.000423502 -0.000321298,0.000847004 -8.77169e-005,0.00125582 0.000292125,2.91728e-005 0.00058425,5.83456e-005 0.000876177,8.75184e-005 -4.366e-005,0.000204607 -7.30313e-005,0.000423502 -0.000102204,0.000642596 -0.000233581,0 -0.00046736,0 -0.000686256,1.46856e-005 -2.91728e-005,-7.30313e-005 -4.38584e-005,-0.000131377 -5.85441e-005,-0.000189921 -0.000102204,4.38584e-005 -0.000204408,8.77169e-005 -0.000306612,0.000146063 -5.83456e-005,0.000262952 -0.000102204,0.000525706 -0.000146063,0.000803145 0.000262952,0.00011689 0.00110996,0.000204408 0.00140188,0.000321298 0,0.000379643 1.46856e-005,0.000613423 -0.000102204,0.000963894 -0.000408816,2.91728e-005 -0.000817633,5.83456e-005 -0.00122665,0.000102204zm0.0126318 -0.000569564c-0.000993066,-0.00102224 -0.00125582,-0.002132 -0.00271625,-0.00125582 -0.00078846,-0.000350471 -0.00150409,-0.000102204 -0.00235109,-0.000102204 -0.00062791,-0.000438188 -0.000978381,-0.00129988 -0.00186924,-0.000920035 -0.000394329,-0.0015918 -0.00185456,-0.00186924 -0.00299369,-0.000934721 -7.30313e-005,-0.000291927 -0.000145864,-0.000569564 -0.000218895,-0.000847004 -0.000920035,-0.00141637 -0.00300837,-0.000116691 -0.00300837,-0.00242412 -0.00271625,-0.002979 -0.0015918,-0.00703878 0.000306612,-0.0101055 0.00176704,-0.00205897 0.00176704,-0.00205897 0.00257018,-0.00284762 0,0.003724 -0.000467162,0.00730174 0.00202999,0.0103099 0.00353388,0.00286231 0.00353388,0.00286231 0.00500879,0.00422033 0.0007448,0.00134354 0.0007448,0.00134354 0.00103692,0.00214668 0.00150409,-0.00249715 0.00270156,-0.00439557 0.0052134,-0.00589966 0.000379643,-0.000335785 0.000759287,-0.000671769 0.00115362,-0.00100755 0.00113893,-0.00129968 0.00166483,-0.00232192 0.00204448,-0.00400144 4.366e-005,-0.00119747 8.75184e-005,-0.00239475 0.000131377,-0.00359223 0.00207365,0.00277459 0.00313975,0.00519871 0.00254101,0.00857204 -0.000511219,0 -0.000876177,-0.000175235 -0.00141657,-0.000146063 -0.000598737,0.000993066 -0.00051102,0.00160629 -0.000540392,0.00276011 -0.00170849,-0.000102204 -0.00160629,0.00143106 -0.00299369,0.00200062 -0.000525706,0 -0.000525706,0 -0.000700941,0.000116691 0,0.000511219 0.000219094,0.000890862 0.000131575,0.0013874 -0.000773973,-0.000525706 -0.00105141,-0.000890862 -0.00198613,-0.000788658 -0.000219094,0.000452873 -0.00016055,0.000905548 -0.000437989,0.00134354 -0.00124133,0.000189921 -0.000905548,0.00090535 -0.0007448,0.00201531 -7.30313e-005,0 -0.000131575,0 -0.000189921,0zm0.00616261 -8.77169e-005c-0.000671769,-0.00135802 -0.00224889,-0.00471667 0.000262952,-0.0052132 0.000759287,0.000262754 0.000861491,0.00119747 0.000102204,0.00151857 -0.000102204,-7.28328e-005 -0.000189921,-0.000131377 -0.000277638,-0.000189723 -2.91728e-005,-0.00046736 1.46856e-005,-0.000788658 -0.00051102,-0.000700941 -0.000204408,0.000700941 -0.000350471,0.00102224 -0.000379643,0.00176704 0.000233581,0.00103673 0.00146023,0.00328561 0.00224889,0.00112444 -2.91728e-005,-0.000233779 -4.38584e-005,-0.00046736 -5.83456e-005,-0.000700941 -0.000321298,0 -0.000657281,0.000306612 -0.00100775,0.000423303 0.00011689,-0.000496335 0.000832517,-0.0010659 0.00134354,-0.0010659 0.000817831,0.00119747 0.000613423,0.00239495 -0.000686256,0.002979 -0.000350669,1.46856e-005 -0.00070114,2.91728e-005 -0.00103692,5.83456e-005zm-0.0205615 -0.00150409c-0.000642397,-0.000379643 -0.000452675,-0.0019129 -0.00113893,-0.0019129 -0.000277439,0.000364958 -0.000219094,0.00109507 -0.000262952,0.00154795 -0.000481848,-5.85441e-005 -0.000963695,-0.00011689 -0.00144574,-0.000160748 0,-0.00163546 0.000262952,-0.00299369 0.000598737,-0.00461466 0.00103692,0.000102204 0.00192779,0.000321298 0.00293534,0.000613423 0.000292125,0.00102224 0.000102204,0.00173767 -0.00086169,0.00202979 0,0.000847004 0.000628109,0.00144574 0.000569564,0.00236578 -0.000131377,4.38584e-005 -0.000262754,8.75184e-005 -0.000394329,0.000131377zm0.0244022 -8.75184e-005c-0.000496533,-0.000409015 -0.00258487,-0.00201531 -0.000934721,-0.0023366 0.000204607,0.000438188 0.000365156,0.000730114 0.000700941,0.0010661 0.000365156,-0.00046736 0.000102403,-0.00129968 -1.44872e-005,-0.00182538 -0.00090535,-0.000496533 -0.00105141,0.000277439 -0.00200062,0.000481848 0,-0.00128499 0,-0.00257018 0,-0.00384069 0.000759287,0.000204408 0.00162098,0.000890862 0.00162098,0.00172318 -0.000262952,0.000262952 -0.000350471,0.000365156 -0.000730313,0.000365156 -8.75184e-005,-0.000262952 -0.000175235,-0.000511219 -0.000262754,-0.000759485 -0.000102204,1.46856e-005 -0.000204408,4.38584e-005 -0.000306612,7.30313e-005 -0.000189921,0.000715627 -0.000146063,0.00112444 0.000248267,0.00172318 0.000919837,0 0.00147491,-0.00078846 0.00242412,-0.000963695 -5.85441e-005,0.0014894 -0.000131575,0.00286211 -0.000555077,0.00429336 -7.30313e-005,0 -0.000131377,0 -0.000189723,0zm-0.0254389 -0.00335884c2.91728e-005,-0.000292125 5.83456e-005,-0.000569564 0.000102204,-0.000847004 0.000365156,4.38584e-005 0.000365156,4.38584e-005 0.000657083,0.000248267 0,0.000554879 -0.000248267,0.000525706 -0.000759287,0.000598737zm0.0268408 -0.000934522c-2.91728e-005,-0.000423502 -4.38584e-005,-0.000832517 -5.83456e-005,-0.00124133 0.000291927,-0.000613423 0.000584052,-0.00122665 0.000876177,-0.00184007 0.000204408,-1.44872e-005 0.000408816,-2.91728e-005 0.00062791,-2.91728e-005 -0.000759485,0.00207365 -0.00112444,0.00271625 -0.00125582,0.00311058 -7.30313e-005,0 -0.000131575,0 -0.000189921,0zm-0.0287977 -0.000847004c-0.000291927,-0.000715627 -0.000350471,-0.00143125 -0.000321099,-0.00219054 7.30313e-005,-1.46856e-005 0.000145864,-2.91728e-005 0.000218895,-4.38584e-005 0.000394329,0.000233779 0.000540392,0.00113913 0.000496533,0.00160649 -0.000131377,0.000204408 -0.000262754,0.000408816 -0.000394329,0.00062791zm0.00261404 -0.000189921c-0.000671769,-0.000598737 -0.000642596,-0.00103673 -0.0007448,-0.00195676 0.000102204,1.44872e-005 0.000204607,2.91728e-005 0.000306811,4.38584e-005 0.000233581,0.00062791 0.000467162,0.00127031 0.000715429,0.0019129 -0.000102204,0 -0.000189723,0 -0.000277439,0zm0.0245044 -0.000379643c-0.000189921,-0.000248267 -0.000365156,-0.000496533 -0.000540392,-0.0007448 0.000335983,-0.000335785 0.000262952,-0.000861491 0.000847004,-0.00078846 -0.000189921,0.00140188 -0.000189921,0.00140188 -0.000306612,0.00153326zm0.00110976 -0.000554879c2.91728e-005,-0.000934721 5.83456e-005,-0.00184007 0.00046736,-0.00267239 0.000540392,0.000540193 -0.000219094,0.00200062 -0.000277439,0.00267239 -7.30313e-005,0 -0.000131575,0 -0.000189921,0zm-0.0271035 -0.000189921c-0.000277638,-0.000730114 -0.000350669,-0.00118279 -0.000379842,-0.00195676 8.77169e-005,0 0.000175235,0 0.000277439,0 7.30313e-005,0.00062791 0.000146063,0.00125582 0.000219094,0.00189842 -4.38584e-005,1.44872e-005 -8.75184e-005,2.91728e-005 -0.000116691,5.83456e-005zm-0.00178172 -0.0014896c4.38584e-005,-0.00318341 4.38584e-005,-0.00318341 0.000131377,-0.00373829 0.000131575,-0.000204408 0.000394329,-0.00011689 0.000613423,-0.000102204 -0.000102204,0.00124113 -0.000189921,0.00248247 -0.000277439,0.00373829 -0.000160748,2.93713e-005 -0.000321298,5.85441e-005 -0.00046736,0.000102204zm0.00252633 -0.000102204c-1.44872e-005,-0.000949208 -2.91728e-005,-0.00189842 -2.91728e-005,-0.00283294 7.30313e-005,0 0.000146063,0 0.000233779,0 0,0.000920035 0,0.00184007 0,0.00275991 -7.30313e-005,1.46856e-005 -0.000146063,4.38584e-005 -0.000204607,7.30313e-005zm0.0254244 0c-0.000292125,-0.000992868 -0.000233779,-0.002132 -0.000277439,-0.00316892 0.000145864,0 0.000306612,0 0.000467162,0 4.38584e-005,0.00103692 8.77169e-005,0.00207385 0.000131575,0.00311058 -0.00011689,1.46856e-005 -0.000219094,2.91728e-005 -0.000321298,5.83456e-005zm0.00252633 -0.000554879c-0.000773973,-0.000993066 -0.000423502,-0.00338802 -0.000423502,-0.00458549 0.000817831,0.00144574 0.000686256,0.00295003 0.000715627,0.00458549 -0.000102204,0 -0.000204607,0 -0.000292125,0zm-0.00129968 -0.00233641c-0.000379643,-0.000715627 -0.000540392,-0.00140208 -0.000730114,-0.00217605 0.000145864,-0.000218895 0.000145864,-0.000233581 0.000379643,-0.000277439 0.000335785,0.000832517 0.000379643,0.00157712 0.000350471,0.00245349zm-0.0266511 -0.0007448c0.000131575,-0.000613423 0.000233779,-0.00204448 0.00102224,-0.00224889 -0.000189723,0.000919837 -0.000306612,0.00159161 -0.00102224,0.00224889zm0.024957 -0.000102204c-0.000554879,-0.000730313 -0.00115362,-0.00179621 -0.0010661,-0.00274542 0.000102204,-7.30313e-005 0.000204408,-0.000146063 0.000321298,-0.000219094 0.000803145,0.000657083 0.000920035,0.00163546 0.00127051,0.00259936 -0.000175235,0.00011689 -0.000350471,0.000233581 -0.000525706,0.000365156zm-0.027016 -0.000934721c0.000292125,-0.0010661 0.000730114,-0.00202979 0.00121196,-0.00303735 0.000598737,0.000598737 -0.000291927,0.00235109 -0.000540193,0.00296432 -0.000233779,1.46856e-005 -0.000452675,4.38584e-005 -0.000671769,7.30313e-005zm0.029075 -0.00112444c-0.000861491,-0.000671769 -0.00124113,-0.00201531 -0.00166464,-0.002979 5.83456e-005,-0.000131377 0.000116691,-0.000262952 0.000175235,-0.000379643 5.83456e-005,0 0.000116691,0 0.000189723,0 0.0007448,0.00113893 0.00115381,0.00202979 0.0014896,0.00335864 -7.30313e-005,0 -0.000131377,0 -0.000189921,0zm-0.0256141 -0.0007448c-0.00051102,-0.000613224 0.000730313,-0.00172318 0.00119747,-0.00211731 0.000175235,1.44872e-005 0.000350669,2.91728e-005 0.000540392,4.366e-005 -0.000481848,0.000773973 -0.000803145,0.00179621 -0.00173787,0.00207365zm-0.00140188 -0.000277439c0.000788658,-0.00135802 0.000788658,-0.00135802 0.000934721,-0.00146023 -8.77169e-005,0.000715429 -0.000262952,0.00113893 -0.000934721,0.00146023zm0.0158885 0c-0.00100775,-0.00127051 -0.00153346,-0.00232192 -0.00216137,-0.00381132 -0.000832318,0.000350471 -0.00115362,0.00132885 -0.00154795,0.00205897 -0.00115362,0.000978381 -0.00207365,0.00167932 -0.00365077,0.00124133 -0.000993066,-0.000773973 -0.0014896,-0.00165015 -0.00185456,-0.00284762 -0.000248267,-0.00128519 -0.000496533,-0.00257018 -0.0007448,-0.00384069 -0.00205916,-0.00359242 -0.00502348,-0.00733091 -0.00411813,-0.0116973 0.000379643,-0.00103673 0.00147491,-0.00392821 0.00281845,-0.00376746 0.000306612,0.000277439 0.000613224,0.000569366 0.000934522,0.000861491 0.000759485,0.000452675 0.00388455,0.00170849 0.0021322,0.00311038 -0.000189921,0.0007448 -0.000189921,0.0007448 -0.000189921,0.00137271 0.000803145,0.00194227 0.00283294,0.00127051 0.0044686,0.00127051 0.00112444,0.000496533 0.00162098,0.000759485 0.00281845,0.00046736 0.00140188,-0.000569564 0.00188373,-0.000890862 0.00325644,-0.000277439 0.00154795,-0.000292125 0.00271625,-0.00163566 0.00198613,-0.00321278 0,-0.000116691 0,-0.000218895 1.44872e-005,-0.000321298 0.00132905,-0.00100755 0.00289148,-0.00204428 0.00392841,-0.00337313 5.83456e-005,0 0.000116691,0 0.000175235,0 0.0007448,0.00115362 0.0007448,0.00115362 0.00115362,0.00201511 0.000920035,0.00337333 0.00062791,0.00686355 -0.00115362,0.00990109 -0.00134354,0.00186904 -0.0028768,0.00365077 -0.00373849,0.00579745 -0.000189921,0.000759287 -0.000189921,0.000759287 -0.000379643,0.00267239 -0.000379643,0.000773973 -0.000949208,0.0014896 -0.00166483,0.00200062 -0.000847004,0.000189921 -0.00162098,0.000321298 -0.00248247,0.000379643zm0.00738926 0c-0.000452675,-0.0007448 -0.00119747,-0.00119747 -0.00163566,-0.0019129 1.46856e-005,-0.000335983 2.91728e-005,-0.000657281 4.38584e-005,-0.000978579 0.000861491,0.000277638 0.00150409,0.00160649 0.00202979,0.0023366 0,0.000248267 -0.000262754,0.000408816 -0.000437989,0.000554879zm0.00186924 0c-0.000555077,-0.000569564 -0.00119747,-0.000993066 -0.00128519,-0.00178153 7.30313e-005,-8.77169e-005 0.000146063,-0.000175235 0.000233581,-0.000248267 0.000832517,0.000569564 0.00118299,0.000949208 0.00118299,0.00197145 -4.38584e-005,1.44872e-005 -8.77169e-005,2.91728e-005 -0.000131377,5.83456e-005zm-0.0253367 -0.0015918c0.000219094,-0.00127031 0.00078846,-0.00201511 0.00197145,-0.00252633 -0.000248267,0.000905548 -0.00105141,0.00235109 -0.00197145,0.00252633zm0.00186924 -0.000744601c0.000394131,-0.000715627 0.000744601,-0.00125602 0.00150409,-0.00156263 0,0.00062791 -0.00086169,0.00147491 -0.00150409,0.00156263zm0.00205897 -8.77169e-005c-1.44872e-005,-0.000204408 -2.91728e-005,-0.000408816 -4.38584e-005,-0.000613224 0.000409015,-0.000379842 0.000963894,-0.00109527 0.0014896,-0.00119747 -0.000233581,0.00100755 -0.000569564,0.00128499 -0.00144574,0.0018107zm0.0207512 0c-0.000467162,-0.000423502 -0.000467162,-0.000423502 -0.000934522,-0.000657083 -0.000321298,-0.00118299 -0.00125582,-0.00128519 -0.00125582,-0.00267239 0.000876177,0 0.002132,0.00178153 0.00259936,0.00251164 0,0.000219094 0,0.000438188 0,0.000657281 -0.000146063,4.366e-005 -0.000277439,0.000102204 -0.000409015,0.00016055zm-0.00214668 -0.000759287c-0.000364958,-0.000219094 -0.000437989,-0.000613423 -0.000467162,-0.00102224 0.000218895,0.000131377 0.000452675,0.000277439 0.000686256,0.000423502 -2.91728e-005,0.000175235 -5.83456e-005,0.000350471 -7.30313e-005,0.000540193 -5.83456e-005,1.46856e-005 -0.000102204,2.93713e-005 -0.000146063,5.85441e-005zm-0.0200064 -0.00112444c-0.00016055,-0.000262952 -0.000262952,-0.000350471 -0.000233581,-0.000686454 0.000803145,-0.000554879 0.00165015,-0.00134354 0.00257018,-0.00165015 4.366e-005,0.000102204 0.000102204,0.000219094 0.00016055,0.000335983 -0.000788658,0.000978381 -0.00132885,0.00147491 -0.00249715,0.00200062zm0.00195676 -0.000175235c-8.75184e-005,-0.000657281 0.000219094,-0.000993066 0.000876177,-0.000978579 0,0.000613423 -0.000321099,0.000876375 -0.000876177,0.000978579zm0.00692209 -0.00169401c-0.00134354,-0.000496533 -0.00162098,-0.0011683 -0.00243881,-0.00238046 -0.000496533,-0.000481848 -0.00165015,-0.00127031 -0.00286231,-0.00240944 0.000482046,1.46856e-005 0.000963894,2.91728e-005 0.00146043,5.83456e-005 0.00201511,-0.000890664 0.00403041,-0.00422033 0.00616261,-0.00186924 0.00105141,-0.000277439 0.00165015,-0.00109507 0.00275991,-0.000540193 0.000993066,0.00100755 0.000993066,0.00100755 0.00189842,0.00175235 0.00113913,0.000496533 0.00210282,0.000584052 0.00331498,0.000671769 -0.00124133,0.000700941 -0.00227806,0.00162098 -0.00332947,0.0025555 -0.000949208,0.0015918 -0.000934721,0.00210282 -0.00267239,0.00210282 -0.00176704,-0.000364958 -0.0025557,-0.000437989 -0.00429336,5.85441e-005zm-0.000189921 -0.000642596c-0.00090535,-0.000481848 -0.00122665,-0.000949208 -0.00173787,-0.00179621 0.00147491,-0.000379643 0.00316892,-0.00127051 0.00439557,-4.38584e-005 0.00147511,-0.00109527 0.0023366,-0.000175235 0.00389923,5.85441e-005 -0.000277638,0.000437989 -0.000555077,0.000890664 -0.000817831,0.00134334 -0.00115362,0.000759485 -0.00278928,8.77169e-005 -0.0041473,8.77169e-005 -0.000934721,0.000292125 -0.000934721,0.000292125 -0.0015918,0.000350471zm0.0061771 -0.00252633c-0.000569366,-0.000321298 -0.000569366,-0.000321298 -0.00175235,-0.00128519 -0.00113893,0.000905548 -0.00132885,0.0010661 -0.00273073,0.000978579 -0.000409015,-0.000365156 -0.000803145,-0.000715627 -0.00119747,-0.0010661 -0.0007448,0.000934522 -0.00150409,0.00112444 -0.0026579,0.00112444 -0.000554879,-0.000277439 -0.00110976,-0.000554879 -0.00166464,-0.000832318 0.000394329,-0.000131575 0.00078846,-0.000262952 0.00119747,-0.000379842 0.00239495,-0.00170849 0.00236558,-0.00227806 0.00497962,-0.00112444 0.00137271,0 0.00184007,-0.00113893 0.00325664,-0.000291927 0.000949208,0.000861491 0.00156243,0.0014894 0.00277459,0.00182538 -0.000671769,0.000671769 -0.00127051,0.000876177 -0.00220523,0.00105141zm-0.00354857 -0.00664446c-0.00119747,-0.000394329 -0.0022342,-0.00112444 -0.0034025,-0.00157712 0,0.000379643 0.000277439,0.00051102 0.000408816,0.000832318 -0.00144574,-0.000204408 -0.00262853,-0.000949208 -0.00182538,-0.00257018 0.000671769,-0.000481848 0.00143125,-0.000803145 0.00219054,-0.00113893 0.000525706,-0.000452873 0.00369463,-0.00403061 0.00378215,-0.00400144 0.00112464,0.00195696 0.00201531,0.00401593 0.00410364,0.00505265 0.000686256,0.00121216 -5.83456e-005,0.00186924 -0.00086169,0.00259956 -0.000248267,-1.46856e-005 -0.000496533,-2.93713e-005 -0.000730114,-2.93713e-005 0.000189921,-0.000204408 0.000189921,-0.000204408 0.000394329,-0.00062791 -2.91728e-005,-4.38584e-005 -5.83456e-005,-7.30313e-005 -8.77169e-005,-0.000102204 -0.00140188,0.000423502 -0.00254081,0.00124133 -0.00397207,0.00156263zm0.0132744 -0.00252633c-0.0007448,-0.000803344 -0.000963894,-0.00227806 -0.000394329,-0.00322727 0.00354857,-0.00249715 0.00703878,-0.00427888 0.0110547,-0.00592903 -0.000496533,0.00156263 -0.00112444,0.00439557 -0.00280396,0.00514037 0,-0.000379643 0.000189921,-0.00170849 -0.000204408,-0.00210282 -0.000598737,0.000408816 -0.00115362,0.000920035 -0.00202979,0.00146023 2.91728e-005,0.000160748 2.91728e-005,0.000160748 0.000481848,0.000598737 0.00062791,0.0015918 0.000598737,0.00248247 -0.000847004,0.0036216 -0.000394329,0.000189921 -0.000394329,0.000189921 -0.00124113,0.000350471 -1.46856e-005,-0.00127051 -2.91728e-005,-0.00243861 0.000131377,-0.00370911 -0.00103673,0.00146023 -0.00170849,0.002979 -0.0034025,0.00373829 -0.000248267,1.46856e-005 -0.000496533,2.91728e-005 -0.0007448,5.85441e-005zm-0.0292649 -0.00205916c-0.00103692,-0.000321298 -0.00103692,-0.000321298 -0.00146043,-0.000554879 -0.000773973,-0.0013872 -0.000657083,-0.00258467 -0.00016055,-0.0040451 0.000993066,0 0.00184007,0.000817831 0.00292066,0.000817831 0.000219094,-0.000102204 0.000437989,-0.000204408 0.000671769,-0.000306612 0,-0.00128519 -0.00313975,-0.00636702 -0.00407427,-0.00338802 -0.000146063,0.00115362 -0.000189921,0.00200062 -0.000876375,0.00292066 -0.000350471,-0.00011689 -0.000350471,-0.00011689 -0.00109507,-0.000686454 -0.00267239,-0.00284762 -0.00369463,-0.0053156 -0.00362179,-0.00927299 0.0007448,-0.000321298 0.00118299,-0.000321298 0.00198613,-0.00011689 0.00160629,0.000949208 0.00343187,0.00150409 0.00179621,0.00347553 -0.00137271,-0.00109507 -0.00137271,-0.00109507 -0.00154795,-0.00110976 -0.000481848,0.00132885 0.000306612,0.00264322 0.00103692,0.00378215 0.000569366,0 0.000715429,7.30313e-005 0.0011681,-0.000277439 0.000394329,-0.000949208 0.000773973,-0.00217586 0.000978579,-0.00248247 0.00121196,-0.000642596 0.00246778,0.000963894 0.00315424,0.00170849 0.00112444,0.0019131 0.00204448,0.0036216 0.00375297,0.00505285 4.38584e-005,0.00127051 0.000292125,0.00236578 -0.000408816,0.00347553 -0.0013874,0.000657083 -0.00270156,0.000817831 -0.00422033,0.00100755zm0.0273957 -0.00251164c-0.00016055,-0.000189921 -0.00016055,-0.000189921 -0.000146063,-0.000423502 0.000365156,-0.000335983 0.000730114,-0.000671769 0.00110996,-0.000993066 0.00143106,-0.00166483 0.00235109,-0.00305203 0.00430785,-0.00131436 -1.44872e-005,7.30313e-005 -1.44872e-005,0.000146063 -1.44872e-005,0.000233779 -0.00163566,0.00156243 -0.00300837,0.00232192 -0.00525726,0.00249715zm-0.00233641 -0.00131436c0.000686256,-0.00198593 0.000686256,-0.00198593 0.0014894,-0.0048921 0.000525706,0 0.00105141,1.46856e-005 0.0015918,2.91728e-005 -0.000262952,0.00210302 -0.00143106,0.00328581 -0.00286231,0.0047899 -7.30313e-005,1.46856e-005 -0.000146063,4.38584e-005 -0.000218895,7.30313e-005zm-0.0108503 -0.0007448c5.83456e-005,-0.00178153 0.00011689,-0.00356305 0.000189921,-0.00533009 0.000525706,0 0.00105141,0 0.00159161,0 -2.91728e-005,0.00100755 -0.000204408,0.0019129 -0.000437989,0.00289148 -0.000730313,0.00157712 -0.00112444,0.00224889 -0.00115362,0.00243861 -7.30313e-005,0 -0.000131575,0 -0.000189921,0zm0.0204738 -0.0015918c-0.000613423,-0.000423303 -0.00046736,-0.00122665 -0.000525706,-0.00188373 -4.38584e-005,-1.46856e-005 -8.77169e-005,-2.91728e-005 -0.000131575,-2.91728e-005 -0.000832318,0.000803145 -0.00150409,0.00122665 -0.00267219,0.0011683 0.000481848,-0.00110996 0.000671769,-0.00202999 0.000861491,-0.00322747 0.00306672,-0.00183987 0.005958,-0.00398655 0.00930216,-0.00528623 0,0.00217586 -0.000321099,0.00426399 -0.000817633,0.0063815 -0.000686454,0.000379643 -0.000686454,0.000379643 -0.00189842,0.000817831 2.91728e-005,-0.00100755 0.000291927,-0.00201531 0.000116691,-0.00300817 -4.366e-005,-1.46856e-005 -8.75184e-005,-2.93713e-005 -0.000131377,-2.93713e-005 -0.000584052,0.000949208 -0.00182538,0.000963894 -0.00275991,0.00140188 0.000759287,0.000978579 0.00112444,0.00128519 0.00112444,0.00251184 -0.00100775,0.000759485 -0.00129988,0.0010661 -0.00246798,0.00118279zm-0.0307545 -0.0054323c-0.00334416,-0.000759485 -0.00569525,-0.00230743 -0.00801717,-0.00484824 -0.00144574,-0.00201531 -0.00391372,-0.00518423 -0.00257018,-0.00773973 0.00238026,-0.000555077 0.00420565,0.000759287 0.0062795,0.00178153 0.00321258,0.00202979 0.00600186,0.00576828 0.00649839,0.0095798 -0.000409015,0.00135802 -0.000832318,0.00115362 -0.00219054,0.00122665zm0.0256141 0c-0.00197145,-0.00046736 -0.0037238,-0.00153346 -0.00518423,-0.00294983 0,-0.0015918 0.00150429,-0.0037238 0.00221971,-0.00509651 0.00249715,-0.0038262 0.00559304,-0.00708264 0.00863059,-0.0104998 0.000481848,-8.77169e-005 0.000540193,-0.000102204 0.00100755,8.77169e-005 0.00202979,0.00438088 0.0028768,0.0129384 -0.00131436,0.0165309 -0.000657083,0.000394131 -0.00131417,0.000803145 -0.00195676,0.00121196 -0.0011681,0.000409015 -0.00219034,0.00058425 -0.0034025,0.000715627zm-0.00579745 -0.000175235c-0.00484824,-0.000481848 -0.00975503,-0.0010661 -0.014618,-0.000409015 -8.75184e-005,-0.00105141 0.00442494,-0.00141637 0.00527194,-0.00151857 0.00137251,0 0.00274522,0 0.00411793,0 0.00220523,0.000321298 0.00417667,0.000715429 0.00626481,0.00146023 0,0.000146063 0,0.000306612 0,0.00046736 -0.000350471,0 -0.000700941,0 -0.00103673,0zm-0.0130845 -0.00252633c-0.000189921,-5.85441e-005 -0.000379643,-0.000102204 -0.000569564,-0.000146063 -0.0028768,-0.00163566 -0.00635253,-0.00407427 -0.00620647,-0.00775441 0.00119747,-0.00118279 0.00194227,-0.00188373 0.00368014,-0.00173767 0.000423502,0.00201511 0.000584052,0.00470218 0.0026577,0.00573891 0.00220523,-0.000963695 0.00154795,-0.00527175 0.00121216,-0.00695107 -0.000204408,-0.000379643 -0.000204408,-0.000379643 -0.000554879,-0.00141657 -0.00194227,-0.00159161 -0.00398675,0.00141657 -0.00597289,0.000423502 -0.000248267,-0.000525706 -0.000379643,-0.000861491 -0.000481848,-0.00143106 0.000569564,-0.00277459 0.00115362,-0.00534478 0.0022342,-0.00795882 0.000788658,-0.00122665 0.00204448,-0.0036216 0.003724,-0.00351939 0.00245329,0.00110996 0.00385518,0.00359242 0.00385518,0.00626481 -0.000394329,0.00011689 -0.000773973,0.000248267 -0.00115362,0.000379643 -0.000700941,0 -0.00141657,-8.75184e-005 -0.00207365,0.000204607 -0.00113913,-0.000715627 -0.000817831,-0.00229275 -0.00131436,-0.00349022 -0.000569564,0.000131377 -0.000963695,0.000657083 -0.0013872,0.00105141 -0.00113913,0.00165015 -0.00137271,0.00378215 -2.93713e-005,0.00537395 0.00207365,0.000131377 0.00480458,-0.00289148 0.00642556,-0.000379643 0.000730114,0.00473135 0.00062791,0.00933153 -0.0014896,0.0136979 -0.000715627,0.000846805 -0.00147491,0.00135802 -0.0025555,0.00165015zm-0.00766669 -0.000189921c-0.00264322,-0.000788658 -0.00376766,-0.00211751 -0.00549084,-0.00420565 -0.000379643,-0.000613423 -0.00131436,-0.00175255 -0.00115362,-0.00252652 0.00230723,0.000686454 0.0045708,0.00281845 0.00610406,0.00462935 0.000773973,0.00137271 0.000773973,0.00137271 0.00105141,0.00201531 -0.000175235,2.91728e-005 -0.000350471,5.83456e-005 -0.00051102,8.75184e-005zm0.0163556 -0.00102224c-0.00129968,-0.00115362 -0.00186924,-0.00306672 -0.00239495,-0.00467301 -0.000671769,-0.0047899 5.83456e-005,-0.0106457 0.00328561,-0.0144572 0.00170869,-0.00151877 0.00363628,-0.00327113 0.00611895,-0.00294983 0.000233581,0.000467162 0.000481848,0.000934522 0.000730114,0.00141637 0.00141657,0.00476073 0.000248267,0.00988641 -0.00172318,0.0143258 -0.000817831,0.00132885 -0.00163566,0.00262873 -0.00261404,0.00384069 -0.000759287,0.000715627 -0.00151877,0.00143106 -0.00227806,0.00214668 -0.000379643,0.00011689 -0.000759485,0.000233581 -0.00112444,0.000350471zm0.0112299 0c-0.000350471,-0.000131377 -0.000700941,-0.000262754 -0.00103692,-0.000379643 -0.000350471,-0.0019131 0.00175235,-0.00452695 0.002979,-0.005856 0.00086169,-0.000759287 0.0013874,-0.00179621 0.00249715,-0.00113893 0.000525706,0.00185456 0.000160748,0.00441006 -0.000773973,0.00608958 -0.000350471,0.000306612 -0.000686256,0.000613224 -0.00102224,0.000934522 -0.000773973,0.000189921 -0.000773973,0.000189921 -0.00264302,0.000350471zm-0.0101932 -0.00562222c-0.00147491,-0.00220503 -0.000379643,-0.0052134 0.000233779,-0.00752063 0.000920035,-0.00156263 0.00153326,-0.00391372 0.00331479,-0.00462935 0.000642596,0.000963894 0.000598737,0.00194227 0.000598737,0.0030814 -0.000423502,0.00160629 -0.00175235,0.00839681 -0.0041473,0.00906858z"/>
 </g>
</svg>
