<?xml version="1.0" encoding="UTF-8"?>
<!DOCTYPE svg PUBLIC "-//W3C//DTD SVG 1.1//EN" "http://www.w3.org/Graphics/SVG/1.1/DTD/svg11.dtd">
<!-- Creator: CorelDRAW -->
<svg xmlns="http://www.w3.org/2000/svg" xml:space="preserve" width="5548in" height="7180in" style="shape-rendering:geometricPrecision; text-rendering:geometricPrecision; image-rendering:optimizeQuality; fill-rule:evenodd; clip-rule:evenodd"
viewBox="0 0 32.8133 14.7382"
 xmlns:xlink="http://www.w3.org/1999/xlink">
 <defs>
  <style type="text/css">
   <![CDATA[
    .fil0 {fill:lime}
   ]]>
  </style>
 </defs>
 <g id="Layer_x0020_1">
  <metadata id="CorelCorpID_0Corel-Layer"/>
  <path class="fil0" d="M19.7833 1.82753c0.301327,-0.201724 0.43807,-0.527338 0.476762,-0.993183l-1.23147 0c0.188418,0.281497 0.66279,0.598197 0.754706,0.993183zm-7.82584 2.18493c0,-1.10887 0.160901,-1.34405 0.603687,-2.01841 0.11504,-0.174983 0.471723,-0.538448 0.643476,-0.667376 0.22149,-0.165875 0.636953,-0.368891 0.778864,-0.492329l-1.43016 0 -1.763 1.85298 1.16713 1.32513zm1.9863 -1.70816c0,1.23534 2.39666,1.07257 3.73419,1.07257 1.62452,0 2.81038,0.359784 3.37667,1.42996l1.83903 -2.13519 -1.58453 -1.65384 -0.0217033 1.763c-0.550656,0.000193779 -1.10674,-0.000452152 -1.66301,0.000193779 -0.491489,0.000452152 -0.437812,0.0950164 -0.518683,-0.315666 -0.0380453,-0.193198 -0.139779,-0.422374 -0.234731,-0.559505 -0.445692,-0.64367 -1.22365,-0.991956 -2.30539,-0.991956l-0.198688 0c-0.924069,0 -2.42315,0.397635 -2.42315,1.23153l0 0.158899zm0.180861 4.30552c0.189775,-0.34047 0.398023,-0.53173 0.891708,-0.53173 1.07515,0 1.64971,0.913669 1.74795,0.913669l0.0397893 0c0.845653,0 2.86012,-0.177179 2.86012,-0.87388 0,-0.852823 -2.46771,-0.624809 -3.31317,-0.77867 -0.283887,-0.0517391 -1.63169,-0.0939184 -1.92927,-0.0967605 -0.724735,-0.0065239 -1.15086,-0.186286 -1.72405,-0.303911l1.42693 1.67128zm-4.1534 -3.86861c0.0986983,-0.186739 0.970899,-1.07102 1.18218,-1.28082 0.219746,-0.21826 0.953653,-1.18212 1.24103,-1.18212l8.9382 0c0.106062,0 2.22472,2.22013 2.22472,2.34383l0 0.198495c0,0.102574 -3.01534,3.69027 -3.34728,4.08138 -0.572812,0.67474 -1.11714,1.37603 -1.70842,2.02577 -0.263927,0.290023 -1.47757,1.9356 -1.73736,1.95711l-6.79306 -8.14364zm11.5601 -2.7412l-9.37511 0 -2.17627 2.26405 -0.0484448 -1.62839 0 -0.119368 -5.04511 1.03323c0.137842,0.287181 -0.130866,0.483479 0.125246,0.449762 0.306042,-0.0399831 0.289312,-0.0776409 0.589735,-0.0525788 0.0324257,0.138681 0.0795787,0.133643 0.0795787,0.278009l0 5.32331c0,0.324968 -0.159351,0.404547 -0.404353,0.469527 -0.369085,0.0978585 -0.390207,-0.00303588 -0.390207,0.324774l0.00981815 0.0397893 -0.00587797 0.219358 5.20007 -1.01392c0,-0.338468 0.0245454,-1.18257 0.0710524,-1.47821 0.0286793,-0.182992 0.00891385,-0.544778 0.00826792,-0.746244 -0.00174401,-0.534572 0.148887,-0.436972 -0.198495,-0.436972l-0.158899 0c-0.0151794,0.68107 -0.512159,1.7041 -0.882988,2.05671 -0.22543,0.21432 -1.89775,1.13535 -1.89775,0.247327l0 -2.46293c0.124083,-0.0103995 0.141071,-0.0397893 0.278009,-0.0397893l0.198688 0c0.541936,0 0.648644,0.69696 0.754512,1.1506l0.357846 -0.0382391 0.000193779 -3.25594 -0.357781 0.0382391c-0.0656912,0.788423 -0.409972,1.61037 -1.23147,1.62865l0 -2.22472c0,-0.494525 0.471013,-0.595871 0.953394,-0.595871l0.317863 0c0.816069,0 1.2482,0.955009 1.30904,1.70015l0.319607 -0.0713108c0.240609,0.4548 1.30426,1.56735 1.7008,2.07299 0.55085,0.703031 1.20492,1.3613 1.7393,2.07428 0.316054,0.421728 3.36943,4.0775 3.49662,4.10295l6.68913 -7.97214c0,1.31557 -0.133062,2.76639 0.3437,3.62878 0.422762,0.76433 1.45754,1.40257 2.63185,1.25343 2.44272,-0.309982 0.294092,-6.19325 1.79149,-6.19325l0.11911 0 -0.00368181 -0.499563 -1.90298 -0.414106 0 0.516486c0.464554,0.0104641 0.754706,0.421535 0.754706,0.913669l0 3.69447c0,0.992796 -0.576881,1.55669 -1.53428,1.17669 -0.732163,-0.290411 -0.968444,-1.04951 -0.968444,-2.05057l0 -3.69447c0,-0.141523 0.0510931,-0.382779 0.201272,-0.373219l0.513709 0.0952102 -0.00219617 -0.506281 -2.65923 -0.566546 0 0.516551c0.408035,0 0.449116,0.0869423 0.688885,0.237767l0.0138875 1.08478 -2.01382 -2.15689zm-1.27126 9.25619l0.0028421 0.151342 0.116268 0.047153c0.11349,-0.060007 0.317798,-0.144559 0.317798,-0.317798l0 -0.0395956c0,-0.0915284 -0.0275813,-0.119303 -0.11911,-0.119303l-0.0397893 0c-0.0960499,0 -0.278009,0.181894 -0.278009,0.278202zm-6.51499 0.357394c0,0.0930787 0.0660787,0.158899 0.158899,0.158899 0.128863,0 0.238478,-0.172593 0.238478,-0.317798l0 -0.039531c0,-0.0917868 -0.0276458,-0.119368 -0.119174,-0.119368 -0.116074,0 -0.278202,0.198042 -0.278202,0.317798zm4.97832 -2.01511l-1.67606 0.223428 -0.481735 -0.0356554 -1.54952 -0.157155 1.80822 2.166 0.0406291 0.00155023 1.85847 -2.19817zm-18.7233 1.49882l0 0.556082c0.181959,0.286535 0.0830667,1.03278 0.834349,1.03278l0.198688 0c0.754706,0 1.48816,-0.687787 1.87662,-1.10254 0.499821,-0.533474 0.725251,-1.21196 0.880662,-2.09889 0.107354,-0.612795 0.0234473,-2.22685 0.0234473,-2.95597 0,-1.14885 -0.209992,-1.99967 0.75477,-2.22446l0 -0.516551c-0.31431,0.166327 -2.74101,1.29522 -2.74101,1.46975l0.00348803 0.405451 0.586312 -0.228466 0.0853921 0.0217033c0.0208636,0.0891385 0.0397893,0.0913346 0.0397893,0.198688l0 3.97248c0,0.589993 -0.116914,1.2856 -0.317992,1.66825 -0.172205,0.32781 -0.677194,0.834478 -1.15195,0.834478 -0.221748,0 -0.436908,-0.123437 -0.436908,-0.357587l0 -0.0793203c0,-0.380841 0.993183,-0.288925 0.993183,-1.43016l0 -0.238284c0,-0.266705 -0.135193,-0.635596 -0.357587,-0.635596 -0.399573,0 -0.720601,0.330394 -0.8826,0.587151 -0.22782,0.360817 -0.308884,0.99538 -0.388657,1.12101zm32.8133 0.317863l0 -0.397441c-0.0237057,-0.037141 -0.119368,-0.733196 -0.142363,-0.850562 -0.0580692,-0.294351 -0.150437,-0.547427 -0.254561,-0.778476 -0.205018,-0.454348 -0.526951,-0.863868 -0.86432,-1.2013 -0.502147,-0.502147 -1.75803,-1.49578 -1.75803,-2.3736l0 -0.11911c0,-0.301714 0.102186,-0.595871 0.397377,-0.595871 0.701739,0 1.21848,0.929559 1.46975,1.42996 0.163291,0.324774 0.277621,0.696055 0.402415,1.06759 0.193004,0.57391 0.0352032,0.639536 0.51907,0.958239l-0.0871361 -2.62164c-0.0243516,-0.0163421 -0.2326,-0.158964 -0.238284,-0.158964 -0.0591027,0 -0.286923,0.191131 -0.357587,0.238478 -0.0830667,-0.0608467 -0.600199,-0.750184 -0.803474,-0.944545 -0.22543,-0.21516 -0.76123,-0.56519 -1.18276,-0.56519 -0.642831,0 -0.913669,0.689338 -0.913669,1.35084l0 0.158899c0,2.78015 3.05881,3.64383 3.05881,5.28333l0 0.198688c0,0.278913 -0.155411,0.635596 -0.436908,0.635596 -0.699543,0 -1.23909,-0.927105 -1.53344,-1.40626 -0.201078,-0.326906 -0.720407,-1.77315 -0.735651,-2.23989l-0.328908 -0.168071 0.0589089 2.85495 0.270903 0.160385 0.401059 -0.353195c0.152375,0.570809 1.3706,1.74795 2.14514,1.74795l0.11911 0c0.746761,0 0.639988,-1.06734 0.79456,-1.31079zm-13.5463 1.54927c0,0.0556793 0.054129,0.0793203 0.119174,0.0793203 0.165423,0 0.320382,-0.461905 0.397829,-0.595419 0.0436649,-0.0753801 0.436262,-0.593223 0.436262,-0.596259 0,-0.10632 -0.0571649,-0.117624 -0.11911,-0.158899 -0.267157,0.141265 -0.834155,0.89061 -0.834155,1.27126zm-7.69149 -0.418692l-0.134547 -0.177373c-0.284533,0.150631 -0.556082,0.838871 -0.556082,1.27126l0 0.158899 0.119174 0c0.0853921,0 0.4517,-0.726931 0.480185,-0.841454l0.274521 0.126473c0.244614,-0.117366 0.508283,-0.147595 0.516551,-0.516486l-0.0202176 -0.0367535 -0.416755 0.235442c0.0337176,-0.126732 0.238284,-0.329554 0.238284,-0.357587 0,-0.10632 -0.0574233,-0.11743 -0.130478,-0.172399l-0.370635 0.309982zm8.28736 0.339114l0 0.0397893c0,0.0649807 0.0237057,0.11911 0.0793849,0.11911 0.224978,0 0.378645,-0.397377 0.556276,-0.516486 -0.0311339,0.133062 -0.119368,0.309336 -0.119368,0.437166 0,0.160837 0.0428252,0.357394 0.198688,0.357394l0.0397893 0c0.20954,0 0.0793203,-0.193263 0.0793203,-0.357394 0,-0.500403 0.55634,-0.725381 0.55634,-0.913863l-0.0124019 -0.195007 -0.504149 0.195007c-0.0028421,-0.127184 0.0130478,-0.198495 -0.11911,-0.198495 -0.157607,0 -0.75477,0.839775 -0.75477,1.03278zm-5.8396 -0.476697l0 0.0795787c0,0.163033 0.198688,0.406291 0.275231,0.55324l-0.116332 0.121952c-0.298033,-0.157607 -0.158899,-0.187643 -0.158899,-0.516293 -0.198688,0.00432774 -0.278202,0.0773825 -0.278202,0.278009l0 0.11911c0,0.226076 0.182798,0.397183 0.397377,0.397183 0.183444,0 0.436908,-0.201918 0.436908,-0.357394 0,-0.31347 -0.278009,-0.432386 -0.278009,-0.635596 0,-0.154378 0.2326,-0.304169 0.397118,-0.317863 -0.0234473,0.281755 -0.155863,0.0856504 -0.359525,0.318961l0.0815165 0.157801c0.279365,-0.0232535 0.595871,-0.226528 0.595871,-0.516486 0,-0.472176 -0.993054,-0.144366 -0.993054,0.317798zm8.91385 -0.540644l-0.365597 0.0667247 -0.0589089 0.13177 0.170849 0.103866c-0.116332,0.219358 -0.437166,0.649548 -0.437166,0.953265 0,0.170203 0.122598,0.317798 0.278267,0.317798 0.184349,0 0.714981,-0.438652 0.714981,-0.595871l0 -0.039531c0,-0.386977 -0.386331,0.293705 -0.67545,0.317604 0.00781577,-0.352162 0.378451,-0.732163 0.516486,-0.994088l0.608467 -0.0341697 0.0680811 -0.252559 -0.358685 -0.0300358c0.0636888,-0.0952102 0.198688,-0.184349 0.198688,-0.317798 0,-0.0545812 -0.0830667,-0.0947581 -0.143461,-0.143461l-0.516551 0.516486zm-9.78792 1.53389c0,0.0556147 0.054129,0.0793203 0.11911,0.0793203l0.0397893 0c0.165617,0 0.230404,-0.552788 0.273035,-0.680424 0.0823562,-0.247392 0.243451,-0.454348 0.243451,-0.709943l-0.11911 0c-0.221942,0 -0.556276,1.00953 -0.556276,1.31105zm11.7985 -0.238478c0.121112,-0.180667 0.169557,-0.178729 0.357587,-0.278073 -0.0393372,0.147401 -0.207344,0.243064 -0.357587,0.278073zm-1.82734 0.278009c0,0.0339114 0.0852629,0.119368 0.119174,0.119368 0.168007,0 0.458417,-0.636113 0.754706,-0.715239 -0.0723443,0.136744 -0.278009,0.374123 -0.278009,0.55634 0,0.0928203 0.0517391,0.19843 0.158899,0.19843l0.0793849 0c0.19843,0 0.38885,-0.192617 0.516486,-0.278009 -0.0130478,0.157801 -0.0397893,0.0956624 -0.0397893,0.198688 0,0.186286 0.164971,0.317798 0.357587,0.317798l0.198688 0c0.273681,0 0.74844,-0.276523 0.75477,-0.556276 -0.291961,-0.061751 -0.76433,0.591737 -0.993248,0.158899 0.326518,-0.0271937 0.913669,-0.363272 0.913669,-0.635402 0,-0.0910763 -0.0135,-0.0463133 -0.0397893,-0.158899 -0.0888801,-0.0208636 -0.09127,-0.0397893 -0.19843,-0.0397893l-0.0795787 0c-0.201983,0 -0.511061,0.230856 -0.596969,0.359784l-0.153021 -0.0760907 -0.521266 0.391499c0.0693084,-0.297387 0.556276,-0.590187 0.556276,-0.75477 0,-0.0767366 -0.0708586,-0.158899 -0.11911,-0.158899 -0.219358,0 -0.265671,0.0793203 -0.437166,0.119368 0.110648,-0.208959 0.913863,-1.05933 0.913863,-1.15215 0,-0.10632 -0.0573587,-0.11743 -0.119368,-0.158899 -0.290604,0.153861 -1.74776,1.97668 -1.74776,2.26425zm-12.9902 -0.238219c0.0164712,-0.198301 0.110196,-0.271743 0.238219,-0.357652 -0.0308755,0.13261 -0.147595,0.291121 -0.238219,0.357652zm0.794495 -0.158964c-0.341697,0.00762199 -0.404094,0.556082 -0.715175,0.556082 -0.0908825,0 -0.0460549,-0.0134354 -0.158899,-0.039531l0 -0.0795787c0.242353,-0.056519 0.595871,-0.458223 0.595871,-0.75477 0,-0.10716 -0.0189258,-0.10955 -0.0424377,-0.19126l-0.116268 -0.0469592c-0.408293,0.0949519 -0.970447,0.779703 -0.671058,1.26667 0.276071,0.448922 1.10797,-0.239576 1.10797,-0.710653zm-1.78774 0.67545l0.158899 -0.834349 -0.158899 0c-0.155217,0 -0.36676,0.680876 -0.595871,0.834349 0.0269999,-0.323676 0.317798,-0.600651 0.317798,-0.75477 0,-0.055873 -0.054129,-0.0795787 -0.11911,-0.0795787l-0.0397893 0c-0.188224,0 -0.476697,0.739526 -0.476697,0.993248 0,0.144366 0.047153,0.139327 0.0795787,0.278009l0.11911 0c0.286277,0 0.233698,-0.22149 0.436908,-0.357587 0.00329425,0.142169 0.0174401,0.278073 0.158964,0.278073l0.0793203 0c0.30714,0 0.635661,-0.942155 0.635661,-1.35064 0,-0.124148 -0.0713108,-0.112586 -0.158964,-0.158899 -0.266059,0.252624 -0.0799663,0.741464 -0.436908,1.15215zm-1.58905 0.397118c-0.13332,-0.278009 0.145399,-0.758452 0.317798,-0.87388 -0.00523204,0.241126 -0.158899,0.430901 -0.158899,0.436972 0,0.0210574 0.0573587,0.0871361 0.0795141,0.11911l-0.238413 0.317798zm-0.0793849 0.317863l0.0397893 0c0.384523,0 0.635661,-0.788488 0.635661,-1.19174 0,-0.138423 -0.0569711,-0.317798 -0.198688,-0.317798l-0.0397893 0c-0.548912,0 -0.921098,1.50954 -0.436972,1.50954zm19.1477 -0.0793849c0,0.048251 0.0821624,0.119174 0.158899,0.119174 0.106772,0 0.689144,-0.748699 0.79456,-0.874138 0.19281,-0.229306 0.623905,-0.626941 0.87388,-0.794301 -0.0932724,0.400606 -0.714981,1.25388 -0.714981,1.78755l0 0.0397893c0,0.0767366 0.0708586,0.158899 0.11911,0.158899 0.243516,0 1.00436,-0.994734 1.16804,-1.21564 0.301714,-0.407582 1.00688,-0.813421 1.21558,-1.20776 -0.031909,-0.0221554 -0.0982461,-0.0793203 -0.119303,-0.0793203 -0.441946,0 -1.54429,1.47169 -1.86693,1.70816 0.0378516,-0.455188 0.913669,-1.66973 0.913669,-1.74795l0 -0.119174c-0.0467008,-0.0123373 -0.108452,-0.0397248 -0.119303,-0.0397248 -0.355456,0 -2.42321,1.91292 -2.42321,2.26444zm-20.1409 -1.94664c0.157866,-0.105416 0.296741,-0.238284 0.55634,-0.238284 0.129315,0 0.153021,0.11265 0.198688,0.198495 -0.100442,0.430836 -0.44763,1.03304 -0.953459,1.03304l0.19843 -0.993248zm0.0397893 -0.397183c-0.0891385,-0.0208636 -0.09127,-0.0397893 -0.19843,-0.0397893 -0.0915284,0 -0.116978,0.168717 -0.119368,0.278073 -0.11827,0.0315214 -0.317798,0.258695 -0.317798,0.357587l0 0.0397893c0,0.168653 0.142557,0.139327 0.238478,0.11911 -0.0100119,0.119562 -0.060007,0.319994 -0.0941767,0.46197 -0.0727964,0.30081 -0.223686,0.147983 -0.223686,0.33259l0 0.039531c0,0.0891385 0.0315214,0.0873945 0.0793849,0.158899 -0.0269999,0.324387 -0.158899,0.580627 -0.158899,0.993248l0 0.11911c0,0.124342 0.0712462,0.11265 0.163679,0.164777l0.095404 -0.0886863 0.217614 -1.18845c0.594773,-0.0132416 1.27126,-0.707811 1.27126,-1.31079 0,-0.610405 -0.509317,-0.671962 -0.953459,-0.436972zm-2.89991 2.7808c0.0359138,-0.154378 0.0950164,-0.345444 0.238284,-0.397377 -0.0878466,0.183444 -0.0645931,0.281045 -0.238284,0.397377zm-1.23147 1.23147l0.268255 -1.00429 0.0495429 0.0110454c0,0.204179 -0.0955978,0.715239 0.198688,0.715239 0.204179,0 0.380453,-0.31586 0.397183,-0.516551 0.0654328,0.075251 0.166069,0.278073 0.317798,0.278073 0.332202,0 0.79456,-0.518037 0.79456,-0.834091l-0.00193779 -0.113296 -0.0776409 -0.0456673c-0.220004,0.147208 -0.296482,0.675256 -0.635596,0.675256 -0.0722151,0 -0.0636888,-0.0604591 -0.0793849,-0.119174 0.216968,-0.0578108 0.476762,-0.477989 0.476762,-0.75477 0,-0.139069 -0.0873945,-0.278009 -0.198688,-0.278009 -0.437812,0 -0.353906,0.670606 -0.697605,0.760196l-0.176275 0.550656 -0.0795787 0c0.00716983,-0.314375 0.158899,-0.612601 0.158899,-0.87388 0,-0.0498013 -0.0735069,-0.0795787 -0.145012,-0.145464l-0.371281 0.383683c0,-0.457578 0.238284,-1.03607 0.238284,-1.39037 0,-0.0337176 -0.0854567,-0.11911 -0.119174,-0.11911 -0.260181,0 -0.322772,1.03581 -0.373865,1.33449 -0.0630429,0.370635 -0.256112,1.3208 0.0560668,1.48603zm26.7352 -1.31105c0.022866,-0.275619 0.422374,-0.635596 0.675192,-0.635596 0.00549041,0 0.078739,0.0390788 0.0795787,0.0397248l-0.75477 0.595871zm-0.317798 0.0397893l0 0.0793203c0,0.12221 0.116332,0.158964 0.238284,0.158964l0.0397248 0c0.144366,0 0.139392,-0.0469592 0.278073,-0.0793849 0,0.357846 0.21348,0.358492 0.443432,0.484577l0.549816 -0.405193c-0.0613634,0.0839064 -0.238478,0.193004 -0.238478,0.317798l0 0.11911c0.287827,0.0611051 0.38885,-0.24132 0.675385,-0.317604 -0.0352032,0.132157 -0.158899,0.241772 -0.158899,0.397183 0,0.0812581 0.0784806,0.278009 0.158899,0.278009 0.0767366,0 0.158899,-0.0706649 0.158899,-0.11911 0,-0.301973 -0.0477989,-0.315021 0.230016,-0.524754 0.117818,-0.0889447 0.524754,-0.195911 0.524754,-0.349126l0 -0.11911c-0.0891385,-0.0208636 -0.09127,-0.0397893 -0.198688,-0.0397893 -0.143913,0 -0.221748,0.0332654 -0.317798,0.0793203 0,-0.099538 0.0193133,-0.238219 -0.0793849,-0.238219 -0.170849,0 -0.215418,0.0462487 -0.356941,0.0795141l0.115686 -0.270839 -0.116332 -0.047153c-0.202822,0.107354 -0.386073,0.203856 -0.546522,0.367341 -0.087782,0.0895906 -0.417142,0.42063 -0.486257,0.466944 -0.0221554,-0.031909 -0.0795787,-0.0980523 -0.0795787,-0.11911 0,-0.33498 0.556276,-0.58108 0.556276,-0.913669 0,-0.151923 -0.117559,-0.238478 -0.278009,-0.238478l-0.0795787 0c-0.429544,0 -1.03278,0.528695 -1.03278,0.953459zm3.37273 0.349319c-0.0337176,0.149598 -0.350418,0.249588 -0.353712,0.246552l-0.0445692 -0.0496075 0.398281 -0.196944zm-0.949519 0.48503l0 0.11911c0,0.182605 0.235183,0.278009 0.436908,0.278009l0.119368 0c0.313212,0 0.730419,-0.104576 0.75477,-0.397118 -0.312824,-0.0730548 -0.373929,0.158899 -0.75477,0.158899 -0.162645,0 -0.225236,-0.0404353 -0.238478,-0.198688l0.238478 0c0.250621,0 0.75477,-0.223298 0.75477,-0.436972l0 -0.0795787c0,-0.0930141 -0.0660787,-0.158899 -0.158964,-0.158899l-0.198688 0c-0.371475,0 -0.953394,0.35565 -0.953394,0.715239zm-30.1912 1.15189l0.0793203 0 0.11911 -0.11911c-0.25327,-0.528242 0.198688,-2.30623 0.198688,-2.86038 0.127378,-0.0103995 0.953459,-0.374769 0.953459,-0.516293 0,-0.111488 -0.0476051,-0.0966959 -0.11911,-0.158899 -0.599359,0.287633 -1.74124,0.693019 -2.02383,1.23063l0.0375932 0.120014c0.106514,0.0253851 0.0747342,0.0397893 0.158899,0.0397893 0.00477989,0 0.501307,-0.396537 0.639342,-0.441558l-0.202435 1.91125 0 0.516551c0,0.165617 0.072861,0.20321 0.158964,0.278009z"/>
 </g>
</svg>
