<?xml version="1.0" encoding="UTF-8"?>
<!DOCTYPE svg PUBLIC "-//W3C//DTD SVG 1.1//EN" "http://www.w3.org/Graphics/SVG/1.1/DTD/svg11.dtd">
<!-- Creator: CorelDRAW -->
<svg xmlns="http://www.w3.org/2000/svg" xml:space="preserve" width="5548in" height="7180in" style="shape-rendering:geometricPrecision; text-rendering:geometricPrecision; image-rendering:optimizeQuality; fill-rule:evenodd; clip-rule:evenodd"
viewBox="0 0 767.479 344.716"
 xmlns:xlink="http://www.w3.org/1999/xlink">
 <defs>
  <style type="text/css">
   <![CDATA[
    .fil0 {fill:#1D0924}
   ]]>
  </style>
 </defs>
 <g id="Layer_x0020_1">
  <metadata id="CorelCorpID_0Corel-Layer"/>
  <path class="fil0" d="M462.714 42.7444c7.0479,-4.71803 10.2464,-12.3342 11.1514,-23.2297l-28.8034 0c4.407,6.5838 15.5024,13.9912 17.652,23.2297l0 0zm-183.04 51.1036c0,-25.9356 3.76357,-31.4363 14.1198,-47.2088 2.69074,-4.09285 11.0331,-12.594 15.0503,-15.6096 5.1808,-3.87971 14.8981,-8.628 18.2171,-11.515l-33.4503 0 -41.2351 43.3398 27.2981 30.9936 0 0zm46.4581 -39.9522c0,28.8933 56.0562,25.0866 87.3399,25.0866 37.9961,0 65.7325,8.41485 78.9775,33.4454l43.0136 -49.9405 -37.0608 -38.6818 -0.507712 41.2351c-12.8793,0.00444971 -25.8858,-0.0106793 -38.8967,0.00444971 -11.4954,0.0106793 -10.2401,2.22263 -12.1313,-7.38297 -0.889943,-4.51868 -3.26965,-9.87926 -5.4905,-13.0866 -10.4243,-15.0547 -28.6201,-23.2008 -53.9212,-23.2008l-4.64728 0c-21.6132,0 -56.6756,9.30035 -56.6756,28.8043l0 3.7164 0 0.000444971zm4.23034 100.703c4.43859,-7.96365 9.30925,-12.437 20.8563,-12.437 25.1471,0 38.5853,21.3702 40.8831,21.3702l0.93088 0c19.779,0 66.8957,-4.14446 66.8957,-20.4398 0,-19.9467 -57.7177,-14.6138 -77.4922,-18.2122 -6.63986,-1.21032 -38.1639,-2.19682 -45.1241,-2.26312 -16.9512,-0.152625 -26.9177,-4.35716 -40.3242,-7.10842l33.3746 39.0899 0 0.000444971zm-97.1448 -90.4841c2.30851,-4.36784 22.7082,-25.0501 27.6501,-29.9573 5.13987,-5.10516 22.3051,-27.6492 29.0268,-27.6492l209.058 0c2.48072,0 52.0345,51.9273 52.0345,54.8205l0 4.64283c0,2.39884 -70.5266,86.3124 -78.2905,95.4602 -13.3976,15.7818 -26.1292,32.1843 -39.9589,47.3814 -6.17264,6.78314 -34.5592,45.2723 -40.6352,45.7751l-158.885 -190.474 0 0zm270.382 -64.1146l-219.277 0 -50.9012 52.9543 -1.1329 -38.0864 0 -2.7922 -118.002 24.1664c3.22426,6.71729 -3.06096,11.3085 2.92969,10.5196 7.15781,-0.934885 6.76668,-1.81593 13.7932,-1.22946 0.758231,3.2434 1.86132,3.12548 1.86132,6.50237l0 124.508c0,7.601 -3.72708,9.46232 -9.45742,10.9819 -8.63289,2.28893 -9.12681,-0.0707505 -9.12681,7.59655l0.229605 0.930435 -0.137496 5.13052 121.626 -23.7148c0,-7.91649 0.574013,-27.6594 1.66197,-34.5743 0.670572,-4.27974 0.208247,-12.7418 0.193118,-17.454 -0.0404924,-12.5033 3.48235,-10.2205 -4.64239,-10.2205l-3.71685 0c-0.354642,15.93 -11.9786,39.8579 -20.6525,48.105 -5.27247,5.01305 -44.3868,26.555 -44.3868,5.78463l0 -57.606c2.9021,-0.242954 3.29946,-0.930435 6.50237,-0.930435l4.64728 0c12.6755,0 15.1713,16.3015 17.6476,26.9114l8.36947 -0.894393 0.00489469 -76.1537 -8.36858 0.894393c-1.53649,18.4405 -9.58869,37.6655 -28.803,38.0927l0 -52.0345c0,-11.5661 11.0166,-13.937 22.2993,-13.937l7.43458 0c19.087,0 29.1941,22.3371 30.6171,39.7653l7.47552 -1.66775c5.62755,10.6375 30.5055,36.659 39.7804,48.4854 12.8841,16.4435 28.1823,31.8399 40.6811,48.5161 7.39187,9.86368 78.808,95.3694 81.7831,95.9648l156.454 -186.462c0,30.7702 -3.11213,64.7037 8.03885,84.8743 9.88816,17.8772 34.0906,32.8051 61.5569,29.3169 57.1334,-7.25036 6.87837,-144.856 41.9016,-144.856l2.78597 0 -0.0863245 -11.6845 -44.5092 -9.68569 0 12.0805c10.8653,0.244734 17.652,9.85923 17.652,21.3698l0 86.4108c0,23.2208 -13.4929,36.4098 -35.8856,27.5219 -17.1247,-6.79249 -22.6513,-24.5473 -22.6513,-47.9612l0 -86.4108c0,-3.31014 1.19519,-8.95283 4.7078,-8.72945l12.0151 2.22708 -0.0516167 -11.8416 -62.1972 -13.2512 0 12.0819c9.54375,0 10.5044,2.03352 16.1124,5.56125l0.324829 25.3723 -47.1016 -50.4482 0 -0.000444971zm-29.7334 216.495l0.0663007 3.53975 2.71922 1.10308c2.6547,-1.40344 7.43325,-3.38134 7.43325,-7.43325l0 -0.925986c0,-2.14076 -0.645209,-2.79042 -2.78597,-2.79042l-0.930435 0c-2.24666,0 -6.50237,4.25437 -6.50237,6.50682l0 0zm-152.381 8.35923c0,2.17725 1.54583,3.71685 3.7164,3.71685 3.01424,0 5.57816,-4.03723 5.57816,-7.43325l0 -0.924651c0,-2.14699 -0.646543,-2.79175 -2.7873,-2.79175 -2.71522,0 -6.50726,4.63171 -6.50726,7.4328l0 0zm116.439 -47.1318l-39.202 5.22574 -11.2671 -0.833876 -36.242 -3.67546 42.2928 50.6609 0.950459 0.0360427 43.4679 -51.4133 0 0zm-437.924 35.0562l0 13.0065c4.25571,6.70171 1.94275,24.1557 19.5147,24.1557l4.64728 0c17.652,0 34.8066,-16.0866 43.8924,-25.7874 11.6907,-12.4774 16.9632,-28.3469 20.5982,-49.0915 2.51097,-14.3325 0.548205,-52.0844 0.548205,-69.1379 0,-26.8705 -4.91159,-46.7705 17.6538,-52.0283l0 -12.0819c-7.35182,3.89039 -64.1101,30.2941 -64.1101,34.3763l0.0814298 9.48323 13.7136 -5.34366 1.99703 0.507712c0.488134,2.08469 0.93088,2.13631 0.93088,4.64728l0 92.9132c0,13.7995 -2.73479,30.0694 -7.4377,39.0191 -4.02788,7.6673 -15.8392,19.5178 -26.9435,19.5178 -5.18614,0 -10.2188,-2.88697 -10.2188,-8.36368l0 -1.85509c0,-8.90788 23.2297,-6.75778 23.2297,-33.4503l0 -5.57327c0,-6.23805 -3.16197,-14.8665 -8.36368,-14.8665 -9.34574,0 -16.8542,7.72782 -20.6431,13.7332 -5.32853,8.43933 -7.22456,23.2814 -9.09077,26.2195l0.000444971 0zm767.478 7.43458l0 -9.2959c-0.554434,-0.868584 -2.79175,-17.1488 -3.32972,-19.8938 -1.3585,-6.8846 -3.51883,-12.8041 -5.95416,-18.2078 -4.79501,-10.6273 -12.3248,-20.2053 -20.2155,-28.0977 -11.745,-11.745 -41.1194,-34.985 -41.1194,-55.5169l0 -2.78552c0,-7.0568 2.39039,-13.937 9.29456,-13.937 16.4132,0 28.4991,21.7413 34.3763,33.4454 3.81919,7.59611 6.49347,16.2802 9.41204,24.97 4.51424,13.4235 0.823642,14.9586 12.141,22.4128l-2.03841 -61.3184c-0.569563,-0.38223 -5.44022,-3.71774 -5.57327,-3.71774 -1.38208,0 -6.71061,4.47018 -8.36368,5.57772 -1.94275,-1.42302 -14.038,-17.5461 -18.7925,-22.0924 -5.27247,-5.03218 -17.8046,-13.2192 -27.6639,-13.2192 -15.0351,0 -21.3702,16.1231 -21.3702,31.5952l0 3.7164c0,65.0255 71.5434,85.2263 71.5434,123.573l0 4.64728c0,6.52328 -3.63497,14.8661 -10.2188,14.8661 -16.362,0 -28.9814,-21.6843 -35.866,-32.8914 -4.70335,-7.64594 -16.8497,-41.4727 -17.2066,-52.3892l-7.69267 -3.93132 1.37763 66.7751 6.33639 3.75155 9.38044 -8.26089c3.56378,13.3505 32.0571,40.8831 50.1732,40.8831l2.78597 0c17.466,0 14.9688,-24.9642 18.5842,-30.6585l-0.000444971 0zm-316.837 36.2362c0,1.30243 1.26594,1.85553 2.7873,1.85553 3.86903,0 7.49332,-10.8039 9.3048,-13.9267 1.02121,-1.76298 10.2041,-13.8751 10.2041,-13.9458 0,-2.48695 -1.33714,-2.75126 -2.78597,-3.7164 -6.24873,3.30391 -19.5102,20.8304 -19.5102,29.7334l0 0zm-179.898 -9.79293l-3.14684 -4.14847c-6.65499,3.52328 -13.0061,19.6206 -13.0061,29.7339l0 3.7164 2.7873 0c1.99703,0 10.565,-17.0024 11.2311,-19.6811l6.42094 2.95817c5.721,-2.74503 11.8883,-3.45209 12.0814,-12.0801l-0.47256 -0.859685 -9.74754 5.50697c0.788489,-2.9644 5.57327,-7.70824 5.57327,-8.36368 0,-2.48695 -1.34337,-2.74681 -3.05206,-4.03233l-8.66893 7.25036 0 -0.000444971zm193.835 7.93162l0 0.93088c0,1.51958 0.554434,2.78597 1.85642,2.78597 5.26223,0 8.85627,-9.29456 13.011,-12.0805 -0.727973,3.11258 -2.79175,7.23524 -2.79175,10.225 0,3.76179 1.00163,8.35923 4.64684,8.35923l0.93088 0c4.90092,0 1.85509,-4.52002 1.85509,-8.35923 0,-11.7041 13.0123,-16.9659 13.0123,-21.3742l-0.289676 -4.5614 -11.7917 4.5614c-0.0667457,-2.97508 0.30525,-4.64283 -2.78597,-4.64283 -3.68614,0 -17.6534,19.6415 -17.6534,24.1557l0 0zm-136.584 -11.1492l0 1.86087c0,3.81341 4.64728,9.50325 6.4374,12.9402l-2.721 2.85227c-6.97048,-3.68659 -3.7164,-4.38875 -3.7164,-12.0756 -4.64728,0.101009 -6.50682,1.8097 -6.50682,6.50237l0 2.78597c0,5.2876 4.27529,9.28967 9.29412,9.28967 4.29086,0 10.2192,-4.72293 10.2192,-8.35923 0,-7.33179 -6.50237,-10.1133 -6.50237,-14.8661 0,-3.61094 5.44022,-7.1142 9.28833,-7.43458 -0.54865,6.59003 -3.64565,2.00326 -8.40907,7.46039l1.90626 3.69059c6.53441,-0.543755 13.937,-5.29827 13.937,-12.0801 0,-11.0437 -23.2266,-3.37644 -23.2266,7.43325l0 0zm208.488 -12.6456l-8.55102 1.56096 -1.37808 3.08187 3.99629 2.42954c-2.721,5.13052 -10.225,15.1922 -10.225,22.2957 0,3.98116 2.8674,7.43325 6.50815,7.43325 4.31177,0 16.7229,-10.2597 16.7229,-13.937l0 -0.924651c0,-9.05116 -9.03603,6.86947 -15.7983,7.42835 0.182883,-8.23642 8.85182,-17.1247 12.0805,-23.2506l14.2315 -0.799169 1.59211 -5.90744 -8.38905 -0.70261c1.48932,-2.22664 4.64684,-4.31177 4.64684,-7.4328 0,-1.27662 -1.94275,-2.2164 -3.35508,-3.35553l-12.0819 12.0801 0 0zm-228.932 35.8767c0,1.30065 1.26594,1.85509 2.78597,1.85509l0.930435 0c3.87392,0 5.38905,-12.9291 6.38623,-15.9144 1.92628,-5.78641 5.6943,-10.6268 5.6943,-16.605l-2.78597 0c-5.19104,0 -13.011,23.612 -13.011,30.6643l0 0zm275.958 -5.57772c2.83269,-4.22589 3.96559,-4.18051 8.36368,-6.50415 -0.920201,3.44764 -4.84974,5.6854 -8.36368,6.50415zm-42.74 6.50237c0,0.792939 1.99392,2.79175 2.7873,2.79175 3.92954,0 10.722,-14.8781 17.652,-16.7287 -1.69223,3.19845 -6.50237,8.75036 -6.50237,13.0123 0,2.17102 1.20988,4.64105 3.7164,4.64105l1.85687 0c4.64105,0 9.09477,-4.50489 12.0801,-6.50237 -0.30525,3.69104 -0.93088,2.23732 -0.93088,4.64728 0,4.35716 3.85879,7.4328 8.36368,7.4328l4.64728 0c6.40136,0 17.5056,-6.46766 17.6534,-13.0105 -6.82853,-1.44438 -17.8767,13.8399 -23.2311,3.7164 7.63704,-0.636309 21.3702,-8.49673 21.3702,-14.8616 0,-2.13008 -0.31593,-1.08351 -0.93088,-3.7164 -2.07891,-0.488134 -2.13453,-0.93088 -4.64105,-0.93088l-1.86132 0c-4.72426,0 -11.9533,5.39973 -13.9628,8.4153l-3.57891 -1.77989 -12.1922 9.15707c1.62103,-6.95579 13.011,-13.8043 13.011,-17.6538 0,-1.79457 -1.65707,-3.7164 -2.78597,-3.7164 -5.13052,0 -6.21358,1.85509 -10.225,2.79175 2.58795,-4.88712 21.3746,-24.7769 21.3746,-26.9479 0,-2.4865 -1.34159,-2.74636 -2.79175,-3.7164 -6.79694,3.59893 -40.8791,46.233 -40.8791,52.9592l0.000444971 0zm-303.831 -5.57193c0.385345,-4.63794 2.57727,-6.35597 5.57149,-8.36502 -0.722189,3.10145 -3.45209,6.80895 -5.57149,8.36502zm18.5825 -3.71774c-7.99213,0.177989 -9.45119,13.0061 -16.7274,13.0061 -2.12563,0 -1.07728,-0.31415 -3.7164,-0.924651l0 -1.86132c5.66849,-1.32201 13.937,-10.7171 13.937,-17.6534 0,-2.50652 -0.442747,-2.56215 -0.992731,-4.4733l-2.71922 -1.09863c-9.54998,2.22085 -22.698,18.2367 -15.6955,29.6266 6.45698,10.5 25.9142,-5.60353 25.9142,-16.6215l0 0zm-41.814 15.7983l3.71685 -19.5151 -3.71685 0c-3.63008,0 -8.57816,15.9251 -13.937,19.5151 0.631859,-7.57074 7.43325,-14.0491 7.43325,-17.6538 0,-1.30688 -1.26594,-1.86132 -2.78597,-1.86132l-0.930435 0c-4.40255,0 -11.1496,17.2969 -11.1496,23.2315 0,3.37644 1.10264,3.25853 1.86132,6.50237l2.78597 0c6.69549,0 5.46603,-5.18036 10.2188,-8.36368 0.0769801,3.32527 0.408039,6.5037 3.71818,6.5037l1.85509 0c7.18362,0 14.8678,-22.0363 14.8678,-31.5903 0,-2.90388 -1.6682,-2.63334 -3.71818,-3.7164 -6.22293,5.90878 -1.87021,17.3423 -10.2192,26.9479l0 0zm-37.1667 9.28789c-3.11791,-6.50237 3.40092,-17.7392 7.43325,-20.4393 -0.122367,5.64001 -3.7164,10.0786 -3.7164,10.2205 0,0.492583 1.34159,2.03797 1.85954,2.78597l-5.57638 7.4328 0 0zm-1.85642 7.43458l0.930435 0c8.99376,0 14.8678,-18.4418 14.8678,-27.8739 0,-3.23761 -1.33269,-7.4328 -4.64728,-7.4328l-0.930435 0c-12.8388,0 -21.5442,35.3067 -10.2205,35.3067l0 0zm447.85 -1.85642c0,1.12845 1.92183,2.7873 3.7164,2.7873 2.49718,0 16.1186,-17.5114 18.5842,-20.4455 4.50979,-5.36324 14.5928,-14.6636 20.4393,-18.578 -2.18169,9.36976 -16.7229,29.3272 -16.7229,41.8095l0 0.930435c0,1.79501 1.65752,3.7164 2.78597,3.7164 5.69563,0 23.4914,-23.2658 27.3195,-28.4328 7.0568,-9.53307 23.5501,-19.0252 28.4315,-28.2486 -0.746217,-0.517947 -2.29783,-1.85509 -2.79042,-1.85509 -10.3367,0 -36.1197,34.4217 -43.6659,39.9527 0.885493,-10.6468 21.3702,-39.0538 21.3702,-40.8835l0 -2.7873c-1.0924,-0.288341 -2.53678,-0.9291 -2.79042,-0.9291 -8.31385,0 -56.6773,44.7419 -56.6773,52.9636l0 0zm-471.08 -45.5304c3.69237,-2.46603 6.94022,-5.57371 13.0123,-5.57371 3.02447,0 3.57891,2.63512 4.64728,4.64283 -2.34945,10.0768 -10.4697,24.1619 -22.3011,24.1619l4.6415 -23.2311 0 0zm0.930435 -9.29011c-2.08469,-0.487689 -2.13453,-0.930435 -4.64105,-0.930435 -2.14076,0 -2.73613,3.94601 -2.79175,6.5037 -2.76639,0.737318 -7.43325,6.05072 -7.43325,8.36368l0 0.93088c0,3.94467 3.33417,3.25853 5.57772,2.78597 -0.234055,2.7962 -1.40344,7.48442 -2.20261,10.8048 -1.70246,7.03589 -5.23197,3.46143 -5.23197,7.77899l0 0.924651c0,2.08514 0.737318,2.0442 1.85687,3.71685 -0.631414,7.58676 -3.7164,13.5801 -3.7164,23.2311l0 2.78597c0,2.90833 1.66642,2.63468 3.82809,3.8539l2.23153 -2.07446 5.09003 -27.7969c13.9111,-0.3097 29.7334,-16.5552 29.7334,-30.6581 0,-14.2769 -11.9123,-15.7168 -22.3006,-10.2205l0 0zm-67.8266 65.041c0.840106,-3.61094 2.22219,-8.07979 5.57327,-9.29456 -2.05488,4.29086 -1.51068,6.57356 -5.57327,9.29456zm-28.803 28.803l6.2741 -23.4896 1.15871 0.258528c0,4.77543 -2.23598,16.7287 4.64728,16.7287 4.77543,0 8.89854,-7.38786 9.28967,-12.0819 1.5307,1.76031 3.88416,6.50415 7.43325,6.50415 7.76965,0 18.5842,-12.1166 18.5842,-19.5089l-0.0453871 -2.6498 -1.81593 -1.06838c-5.14609,3.44319 -6.93443,15.7938 -14.8661,15.7938 -1.68911,0 -1.48976,-1.41412 -1.85687,-2.7873 5.07445,-1.35227 11.151,-11.1799 11.151,-17.6534 0,-3.25274 -2.0442,-6.50237 -4.64728,-6.50237 -10.2401,0 -8.27736,15.6848 -16.3162,17.7802l-4.12311 12.8797 -1.86132 0c0.167754,-7.35315 3.7164,-14.3285 3.7164,-20.4398 0,-1.16449 -1.71892,-1.86132 -3.39157,-3.40225l-8.68406 8.97418c0,-10.7025 5.57327,-24.2327 5.57327,-32.5198 0,-0.788489 -1.99881,-2.78597 -2.7873,-2.78597 -6.08543,0 -7.54939,24.2269 -8.74413,31.213 -1.47464,8.66893 -5.99065,30.8926 1.31133,34.7572l0 0zm625.316 -30.6643c0.534856,-6.44675 9.87881,-14.8661 15.792,-14.8661 0.128597,0 1.84174,0.913971 1.86132,0.9291l-17.6534 13.937 0 0zm-7.43325 0.930435l0 1.85509c0,2.8585 2.721,3.71818 5.57327,3.71818l0.9291 0c3.37689,0 3.26031,-1.09819 6.50415,-1.85687 0,8.36991 4.99302,8.38504 10.3714,11.3339l12.8597 -9.477c-1.43503,1.96277 -5.57772,4.51424 -5.57772,7.43325l0 2.78597c6.73197,1.4288 9.09522,-5.64446 15.7969,-7.4288 -0.823642,3.09122 -3.7164,5.65514 -3.7164,9.28967 0,1.90092 1.83551,6.50281 3.7164,6.50281 1.79457,0 3.7164,-1.65307 3.7164,-2.78597 0,-7.06303 -1.11777,-7.36828 5.38015,-12.2736 2.75526,-2.08024 12.2732,-4.58232 12.2732,-8.16567l0 -2.78597c-2.08469,-0.488134 -2.13453,-0.93088 -4.64684,-0.93088 -3.36621,0 -5.18659,0.778255 -7.43325,1.85553 0,-2.32809 0.451646,-5.57193 -1.85687,-5.57193 -3.99584,0 -5.03841,1.08173 -8.34855,1.85998l2.70587 -6.33506 -2.721 -1.10264c-4.74384,2.51097 -9.02981,4.76787 -12.7827,8.59195 -2.0531,2.09537 -9.75644,9.83787 -11.373,10.9214 -0.518392,-0.746662 -1.86132,-2.29338 -1.86132,-2.78597 0,-7.83506 13.011,-13.5912 13.011,-21.3702 0,-3.5531 -2.74948,-5.57772 -6.50237,-5.57772l-1.86132 0c-10.047,0 -24.1562,12.3658 -24.1562,22.3006l0 0zm78.8859 8.17057c-0.788934,3.49881 -8.19593,5.83758 -8.27335,5.76638l-1.04212 -1.16004 9.31548 -4.60634 0 0zm-22.2085 11.3441l0 2.78597c0,4.27128 5.50074,6.50237 10.2188,6.50237l2.79175 0c7.32601,0 17.0842,-2.44601 17.6538,-9.28833 -7.31667,-1.70869 -8.74591,3.71685 -17.6538,3.71685 -3.80406,0 -5.26802,-0.946009 -5.57772,-4.64728l5.57772 0c5.86205,0 17.6538,-5.22263 17.6538,-10.2205l0 -1.86132c0,-2.17547 -1.54583,-3.7164 -3.71818,-3.7164l-4.64728 0c-8.68851,0 -22.2989,8.3183 -22.2989,16.7287l0 0zm-706.149 26.9421l1.85509 0 2.78597 -2.78597c-5.92346,-12.3551 4.64728,-53.9412 4.64728,-66.9023 2.97908,-0.242954 22.3006,-8.76549 22.3006,-12.0756 0,-2.60753 -1.11332,-2.26134 -2.78597,-3.7164 -14.0184,6.72752 -40.726,16.209 -47.3356,28.7834l0.879264 2.80732c2.4914,0.593592 1.74785,0.930435 3.7164,0.930435 0.111688,0 11.725,-9.27454 14.9537,-10.3278l-4.73494 44.7027 0 12.0819c0,3.87348 1.70424,4.75274 3.71818,6.50237l0 0z"/>
 </g>
</svg>
