<?xml version="1.0" encoding="UTF-8"?>
<!DOCTYPE svg PUBLIC "-//W3C//DTD SVG 1.1//EN" "http://www.w3.org/Graphics/SVG/1.1/DTD/svg11.dtd">
<!-- Creator: CorelDRAW -->
<svg xmlns="http://www.w3.org/2000/svg" xml:space="preserve" width="5548in" height="7180in" style="shape-rendering:geometricPrecision; text-rendering:geometricPrecision; image-rendering:optimizeQuality; fill-rule:evenodd; clip-rule:evenodd"
viewBox="0 0 1790.78 1132.08"
 xmlns:xlink="http://www.w3.org/1999/xlink">
 <defs>
  <style type="text/css">
   <![CDATA[
    .fil0 {fill:#0A0B0C}
   ]]>
  </style>
 </defs>
 <g id="Layer_x0020_1">
  <metadata id="CorelCorpID_0Corel-Layer"/>
  <path class="fil0" d="M170.177 1031.01c6.84232,9.57431 8.83402,7.45922 21.4682,14.2804 5.40405,-1.40301 4.62852,-3.16911 4.135,2.67559 7.44159,4.42406 10.4203,7.62137 12.7751,16.043 -2.49933,5.89052 -0.0282012,4.93168 -7.86461,8.05849 -5.42873,3.38767 -4.84356,3.79659 -11.8234,1.88595 -0.838986,-4.36413 -0.687404,0.34899 0.539348,-3.81421 0.102229,-0.345465 0.380716,-1.22675 0.507622,-1.61804 0.144531,-0.451219 0.507622,-1.38891 0.666253,-1.8366 0.172732,-0.497046 0.620426,-1.58632 0.779058,-2.01639 0.169207,-0.451219 0.652153,-1.37128 0.849561,-2.11156l-36.4148 -17.2486c-4.2055,0.782583 -3.34537,1.63567 -1.90358,-3.20084 -6.91634,-6.31354 -3.28896,-9.4897 0.24676,-14.5271 -0.613376,-5.15024 -1.87185,-4.766 2.08336,-3.28544 -0.257336,-4.71665 -0.740281,-3.02458 3.55335,-1.21265 17.5623,-11.6506 66.7311,-10.6918 84.1629,4.92463 -14.2839,5.24542 -58.9299,-15.4155 -73.7602,3.00343zm112.142 -259.095l63.6466 0c-0.860136,-6.34174 -1.82955,-16.3673 -1.77315,-39.8765 0.0352515,-14.6611 0.0282012,-44.5367 2.16092,-58.0522 11.0619,0.0528772 21.1474,4.31831 29.2446,7.46274l1.44179 -40.9164 -122.51 -2.30192c-1.64977,13.7763 -3.22551,29.5901 0.620426,42.2172 12.264,-1.41006 -0.46532,0.71913 5.91168,-1.47704 6.77181,-2.33012 0.215034,-0.556974 6.83174,-2.82364 6.59908,-2.26315 7.43101,-2.62624 14.1817,-0.567549l0.243235 96.3353zm83.5778 73.7567c-12.2146,5.54506 -42.3934,12.5777 -56.843,10.5296 -4.17025,-7.50857 -2.65091,-11.9397 -5.61204,-17.735 -17.3332,-1.67445 -19.4765,-0.458269 -16.5612,20.5093 23.7348,2.05869 61.7218,-4.51924 74.2714,15.4754 6.04211,9.63071 6.89519,25.0568 6.79296,40.3806 -0.317263,47.5719 -12.0067,41.2019 -92.9758,36.9013 -29.9743,-1.59337 -53.6916,-2.23847 -48.4743,-42.612 21.3448,-3.81774 34.3561,-10.7905 58.4963,-9.42272l1.61099 18.3343 18.5388 -1.67092 0.71208 -19.8995c-19.8677,-0.613376 -59.6279,0.489996 -72.5899,-9.14071 -15.8949,-11.8128 -6.62728,-73.2879 -6.61318,-73.3125 19.279,-27.26 154.715,-45.6789 139.247,31.6629zm166.641 208.629c-15.1722,-2.9153 -22.1485,-7.35699 -25.8393,-22.5892 4.1773,-8.34403 5.75304,-10.6389 13.1065,-14.0759 0.525247,-0.24676 1.17035,-0.514672 1.71322,-0.729706 0.549923,-0.222084 1.19503,-0.444169 1.76257,-0.638052 1.84718,-0.623951 3.66616,-1.08927 5.53448,-1.42769 16.6599,-3.0281 42.0092,0.58165 52.352,15.0806l-2.78134 14.8127 -13.5013 1.52991 -3.64853 -21.4787 -36.7285 -2.14329c-0.0282012,0.0317263 -0.0669778,0.10928 -0.12338,0.222084 0.34899,1.02229 0.539348,1.80488 -0.250286,0.571074 -1.10337,2.67911 -4.01162,11.3439 -3.08803,15.7116 2.46408,11.6471 -2.53106,-1.17035 7.45569,10.0467 3.28191,3.69083 1.52286,0.757907 4.0363,5.10794zm-8.15367 -31.4373c-0.0669778,0.137481 -0.151581,0.327839 -0.250286,0.571074 -0.271437,-0.423018 -0.655678,-1.08222 -1.18798,-2.05516 -3.83184,-6.96922 1.38891,-1.14215 0.694454,-0.560499 -0.0176257,0.0141006 0.430068,1.12452 0.743807,2.04459zm903.57 17.6575c16.2968,1.7379 18.8772,-3.37004 43.1725,-13.7763 8.71417,-3.72961 25.7512,-15.2286 34.7192,-13.8856 0.320789,0.0458269 1.24438,1.27963 1.52639,0.690929 0.289062,-0.609851 1.07165,0.451219 1.51581,0.853086l-25.6173 10.2582c-89.1969,50.0712 -41.0327,43.726 -100.03,76.7073 -55.6551,31.1059 -106.819,17.4706 -170.483,0.250286 -54.9359,-14.862 -109.008,-43.1055 -167.321,-55.8489 -32.0401,-7.00095 -140.252,-26.9991 -178.616,-4.89996 4.78363,11.069 13.5754,15.5494 23.9146,21.8454 -10.7482,5.80945 -25.3917,-23.5374 -58.1509,-9.73294 -0.23971,-0.564024 -0.317263,-1.50171 -0.373666,-1.84718l-1.00467 -9.91977c-175.975,-31.9238 -279.343,66.8016 -410.602,78.4522 -71.9553,6.38405 -96.5997,-29.5443 -132.567,-70.9824 -27.2388,-31.3774 -95.9828,-59.3529 -137.068,-68.2821 -92.9124,-20.1921 -113.57,22.4411 -84.4273,33.9824 13.8538,5.48513 40.2995,14.1641 41.7483,-6.78239 -15.6094,-17.238 -12.902,2.55573 -29.3539,-0.59575 -1.0646,-20.8689 15.2674,-18.7397 28.9133,-14.1817 15.6975,5.2419 27.5702,23.6009 11.4814,32.2727 -0.489996,0.264386 -5.15729,2.05164 -5.40758,2.12567 -65.3457,19.1698 -120.969,-68.5818 19.6703,-56.4553 44.3252,3.82126 87.1487,21.2672 125.71,42.9575 12.1688,6.84584 23.6256,15.842 37.1939,19.8113 9.66948,-9.08431 7.40986,-11.633 19.8748,-19.3636 39.9082,-24.743 104.736,-21.7784 143.646,-1.51229 16.1311,8.40396 28.811,30.8803 9.64481,49.7328 -55.7643,54.8549 -173.959,3.29249 -117.014,-28.0249 13.7833,-7.5826 45.6154,-12.6729 55.0946,6.06326 -18.6551,-2.47818 -37.5146,-8.09374 -50.734,2.29487 -2.83422,19.2015 14.6223,29.5443 32.8826,33.4396 72.329,15.4225 102.508,-61.9475 0.898913,-66.1953 -114.754,-4.79773 -92.6832,90.1768 10.5825,99.6912 129.338,11.915 232.614,-111.426 400.725,-87.3532 60.9992,8.7318 20.1991,20.4141 77.9798,3.52867 43.0139,-12.5636 94.9816,-11.3228 139.652,-1.45236 69.6076,15.3838 131.396,53.1734 195.688,73.0622 37.8495,11.7105 75.9811,17.3896 116.101,12.3592 23.1743,-2.90825 65.3034,-10.5155 78.1208,-39.5769 31.2998,-70.9824 -168.446,-80.525 -156.859,-16.265 2.69674,9.77876 15.5812,16.533 24.4857,20.2978 56.3354,23.823 129.123,-22.9311 58.6162,-36.4359 -9.69064,-1.85423 -9.29934,-0.0599275 -10.1101,-2.78134 -0.253811,-0.856611 -1.20208,-0.47237 -1.7379,-0.860136 10.0079,-1.28315 23.3612,-2.11509 31.053,-0.292587 7.24418,1.71675 17.5975,5.39348 23.5198,12.472 2.64386,27.0344 -13.6529,29.9179 -31.1553,35.1457 -16.8114,5.01981 -35.7521,5.72484 -55.6586,3.57803 -28.7123,-3.09861 -90.7444,-28.3951 -52.7785,-62.5961 37.1833,-33.4995 167.191,-30.7992 188.937,18.0276zm-32.8332 -24.5632c-2.17149,1.83308 4.7096,-3.97989 0,0zm-1286.01 -17.6398c-0.482945,0.990567 2.26667,-4.61442 0,0zm1012.96 20.8231c15.9654,-5.47103 22.8112,-6.80354 43.2254,-7.87871 27.5949,-1.45589 33.3726,7.94921 33.1787,28.596 -10.8293,4.24781 -11.2664,11.5167 -24.4822,8.901 4.84356,-5.07269 9.13719,-9.45445 9.99732,-21.3871 -11.633,-6.33822 -15.56,-5.93283 -29.1565,-5.78477 -14.016,0.155107 -16.8784,-0.800209 -20.8372,13.1664l20.5093 3.20436c-9.99732,1.58984 -13.6036,5.26305 -30.3938,3.4758 -4.24428,-10.8363 -2.11509,-9.29934 -2.04106,-22.293zm413.814 12.5037c0.722656,-0.419493 1.61452,-0.70503 2.2843,-0.913014 0.666253,-0.207984 1.46646,-0.599275 2.29135,-0.82841 16.2368,-4.44874 39.4429,-1.27963 53.6457,6.91282 2.45703,34.8602 -24.6196,22.5962 -48.8832,34.906 1.86833,10.5049 0.5887,6.99037 11.0654,12.9197 -13.1629,0.211509 -27.0132,1.7238 -25.3423,-12.2605 2.61919,-21.9088 40.2502,-5.51333 44.4909,-32.6676l-8.09022 -4.36061c-0.81431,-0.264386 -7.05382,-1.55459 -8.15367,-1.7661 -9.88099,-1.88948 -13.4766,-1.73085 -23.3083,-1.94236zm-1371.91 -98.0943c2.26667,-16.1417 -5.04449,-20.5833 -15.6023,-25.4833 -37,-17.1781 -87.6599,11.3404 -43.9939,40.3594 18.3026,12.1618 83.5954,11.7282 97.7559,-8.39338 16.2051,-23.0263 -20.326,-53.6175 -35.8472,-65.1166l-33.3056 -25.4375c-6.51095,-5.16082 -16.7092,-16.8819 -20.7138,-22.85 -21.5845,-32.1881 -14.1147,-57.1391 12.5707,-80.0561l37.8531 -22.2437c-7.25123,14.0266 -11.7669,2.57688 -37.1939,36.2526 -10.9244,14.4637 -21.0134,34.7333 -9.4051,52.1828 13.6635,-5.16082 12.5354,-16.0218 39.7461,-15.8561 18.4824,0.112805 28.7723,5.74247 30.1894,24.6831 -8.18892,16.5894 -32.6676,15.5459 -42.4569,8.2982 2.48876,-18.0629 5.22427,-7.50857 15.6834,-3.76133 9.08431,3.25371 10.3816,-2.83422 12.6976,-12.9408 -40.9587,-25.3493 -72.7309,10.3428 -16.8114,47.2088l22.2684 15.8667c6.08441,4.07155 14.9396,10.2758 20.3824,15.2956 10.0291,9.25704 29.8756,31.6946 15.1793,51.0583 -5.72837,7.55087 -14.1782,10.9174 -23.615,13.66l-17.8478 3.12328c-79.5626,12.902 -111.155,-27.9967 -93.8324,-51.5377 12.2569,-16.6599 98.7712,-21.3095 99.7194,23.555 -7.46627,14.1323 -19.3989,16.5294 -34.6452,15.9266 -8.2559,-0.327839 -17.1005,-1.49466 -23.5974,-5.18902 -11.2629,-6.40872 -9.98322,-7.17015 -3.87766,-19.0499 8.57316,6.24656 3.41587,17.3437 21.2108,17.5517 13.7481,0.162157 19.3601,-0.482945 27.4891,-7.1067zm1427.89 55.8842c3.98342,-3.00343 -0.549923,-1.26553 8.10784,-4.25486 1.81545,-0.627477 6.01743,-1.24438 8.01971,-1.45941 29.1072,-3.11623 87.0148,-8.17835 106.103,14.7034 27.2529,32.6676 -61.3411,57.7067 -86.5495,35.6146 -3.30306,-37.5499 44.0714,-32.4913 55.5282,-27.1013l-3.62738 13.9984c-19.7021,-0.754382 2.32307,-8.40396 -19.1839,-8.30525 -7.38519,0.0317263 -11.2734,4.09622 -14.1711,10.096 4.88586,11.7775 6.40167,9.53905 21.1192,9.75409 46.7012,0.680354 53.117,-22.9452 34.1305,-33.9824 -27.4997,-15.9901 -78.4769,-9.79287 -109.477,-9.06316zm-65.4268 -44.4557c-18.2144,15.3238 -52.137,11.8339 -74.6415,11.5202 -23.0439,-0.320789 -57.3048,3.55335 -79.1185,-0.71208 6.65548,-19.2297 6.64138,-88.7562 6.99037,-118.262 0.253811,-21.5845 -1.29373,-15.9584 -3.84241,-31.2963 40.8001,-2.67206 93.1239,-3.25019 133.92,-1.94236 30.6759,0.983517 29.079,16.6281 27.4962,47.8645 -1.21265,23.8758 -0.489996,59.5045 -4.29716,81.0361 0.47942,-0.602801 1.02934,-1.42416 1.35366,-1.89301l14.7633 -21.4505 64.9615 -42.055c-5.68254,8.10079 -12.0772,11.4144 -19.3707,16.473l-27.1754 20.6574c-35.1634,26.636 -5.73189,51.8972 11.781,57.5375 12.9373,4.17025 30.4784,4.64967 45.975,4.17025 16.2333,-0.504096 63.851,-2.10099 61.119,-33.6229 -2.00228,-23.0968 -56.702,-23.4528 -73.8166,-14.1288 -19.6598,10.7094 -31.2716,35.4313 33.1505,30.9931 3.71198,-10.4732 2.08689,-12.4826 7.07145,-16.1945 17.6539,14.4884 -14.6012,23.5621 -28.3598,24.179 -47.6036,2.13977 -52.3308,-32.1388 -25.582,-43.4404 6.03506,-2.54868 13.5754,-4.66025 20.252,-5.8447 14.7034,-2.61214 28.1765,-3.25371 43.1796,-3.85651 17.2803,-0.694454 51.0124,9.17949 37.1198,39.2173 -3.69436,7.98799 -5.45693,9.5038 -12.8703,13.7587 -18.2285,10.4697 -38.5193,11.418 -42.8552,12.0913l-12.9479 2.11509c-6.69778,0.454744 -14.9748,1.04697 -21.6726,1.19503 -25.1801,0.549923 -65.4197,-4.90701 -72.7943,-35.3079l-9.78934 7.19836zm-1079.29 -44.6143l0.299638 58.0451 -66.2446 -2.49581c9.02086,-35.96 0.401867,-142.201 1.46999,-152.29l67.6688 1.39596c-3.77896,20.1921 -5.05859,36.5664 -2.67559,56.9699 19.3883,6.4475 25.1202,1.13157 19.7303,-37.4124 -0.941215,-6.71188 -4.0645,-11.4462 -0.916539,-19.9241l69.4419 1.43474c-8.37576,32.6922 -5.10794,120.648 -3.47227,153.288l-67.8203 -1.29373c4.135,-15.1017 4.8224,-37.8143 3.64148,-56.4094l-21.1227 -1.30783zm224.89 -46.4156c-18.01,-12.6623 -33.637,-7.57202 -57.2661,-9.58488l0.504096 23.1849 37.8319 -1.60747c0.867187,8.27 1.38538,16.3214 1.14567,24.7501l-2.06221 13.8433 -37.5111 0.627477 -0.733231 21.3166c10.9597,2.29487 22.5398,2.37948 33.7639,2.2984 14.8409,-0.10928 16.1593,-4.15968 26.428,-6.38405 2.19617,13.533 1.81545,29.5654 -1.02229,42.82 -43.4439,1.51934 -85.3086,-5.22075 -127.582,-4.60385 5.62261,-22.5927 6.90224,-124.046 1.00819,-151.811 4.39939,-3.15501 -1.94941,-0.94474 7.68483,-3.48637l19.5117 0.525247c11.0972,0.141006 22.011,0.341939 33.1505,0.532298 22.9875,0.391292 46.7435,0.747332 69.6076,2.77077 -0.0317263,12.8104 1.85423,36.2667 -4.45931,44.8082zm17.7104 -45.8516c27.3587,3.14796 59.8324,1.70617 87.4519,1.41711 28.8569,-0.306688 57.0334,-6.94454 72.0858,19.8818 6.15491,10.9703 4.01867,30.5525 3.84241,45.6154 -0.229135,19.5434 1.22323,28.5431 -11.6189,37.208 -23.1497,15.6235 -54.3578,2.62976 -77.6696,8.07964 -4.84003,26.562 2.25257,30.5736 2.59451,44.9633 -16.1734,10.3005 -53.5153,22.8112 -77.518,20.9006 1.7661,-12.264 3.92702,-7.84698 5.40405,-19.3143 0.631002,-4.88233 0.546398,-17.8796 0.535823,-23.3964 -0.0881287,-59.9945 2.8448,-76.4499 -5.10794,-135.355zm249.499 95.9264c-5.74599,24.5597 -0.444169,39.7002 1.57222,58.6796 -8.01266,-3.79306 -53.2403,-2.12919 -71.5535,-0.599275l2.00581 -37.5287c0.82841,-40.1303 2.54868,-78.3782 -3.15148,-115.42l74.4617 -0.511147c-3.65205,13.7657 -4.21255,14.862 -4.49104,29.3151l0.338414 22.2895c1.48761,8.75295 0.884813,4.35003 2.11861,7.78706l21.1861 -0.197408c1.36423,-10.5402 0.793159,-20.9817 0.800209,-31.5113 0.0141006,-16.8467 -3.08098,-15.0947 -3.6027,-28.5185l73.9083 0.0599275c-5.40405,26.636 -4.14558,52.6798 -4.39586,79.9997l0.669778 72.6886 -70.0236 1.92826c0.0141006,-11.0619 3.25724,-16.0606 3.33832,-30.2 0.0528772,-8.9151 -0.193883,-17.9747 -0.070503,-27.9016l-23.1109 -0.359565zm-853.615 -235.24c-4.79068,-39.7602 57.957,-24.7783 63.0156,-7.79763 12.5848,42.2348 -96.3917,48.9573 -102.43,12.2675 -2.9858,-18.1475 9.31697,-29.5549 19.6633,-34.1763 26.2412,-11.7141 60.6643,-12.6694 88.2556,-3.59565 30.4185,10.0008 56.1838,28.7159 25.1449,61.2918 -2.97523,3.12328 0.916539,-0.623951 -4.12442,3.91644 -0.024676,0.024676 -4.0927,3.48285 -4.18083,3.55688 -3.54983,2.98228 -3.38062,3.07041 -6.89872,5.31945l-15.0559 10.1313c-5.93635,4.35708 -10.6847,6.10556 -17.0088,9.81754l-11.5731 8.51676c-12.331,9.9656 -22.286,14.7034 -31.1517,30.8028 -17.1322,31.1094 2.39358,50.4096 8.97503,61.5562 12.8844,21.8066 23.8794,23.3823 41.0927,37.0916 -11.1218,6.38405 -30.2528,-19.0675 -54.5235,-27.1754 -4.84356,8.24532 -2.69321,10.3111 -11.4109,14.5835 -18.9688,9.29229 -37.9835,2.28782 -50.5647,-10.3111l1.99171 -15.7045c8.03029,-5.45341 16.5682,-10.4168 30.2035,-4.10327 5.40405,2.49933 13.036,11.6718 19.554,13.2475l4.67082 -0.352515c0.172732,-21.4223 -14.1253,-36.5911 0.264386,-63.9321 8.51324,-16.1734 18.2462,-26.8546 31.0671,-34.201 3.63795,-2.08689 2.37948,-1.1915 4.81183,-3.08803l20.9041 -16.9242c26.2518,-23.4916 11.7458,-0.592225 35.7415,-36.4747 23.266,-34.7897 -30.5701,-44.2124 -53.1311,-45.5167 -66.6147,-3.84946 -75.3219,43.4545 -27.2565,49.0666 27.2283,3.17616 33.5665,-0.902438 47.103,-17.3543 -5.23485,-10.0608 -10.6495,-16.1346 -25.8147,-16.9524 -17.5588,-0.941215 -17.8549,7.48037 -19.7972,9.79992 -5.08679,6.08088 1.79078,1.85423 -7.53677,6.69426zm1094.24 138.577l-0.0810784 41.7906c-26.8687,-8.29468 -35.0893,-6.52153 -62.4938,-6.94102 -2.55221,22.0216 -0.338414,16.5964 0.905963,24.9369l38.4946 -1.03992 -0.895388 39.9787c-11.7916,-3.94112 -28.1483,-5.78477 -38.5087,-2.60156 -10.7376,27.3129 4.2337,22.0886 21.9899,21.8912 6.86699,-0.0775533 13.8574,0.190358 20.6891,-1.2761 9.19711,-1.96703 9.24294,-4.67435 17.9007,-5.28067l-2.22084 39.9893 -101.302 1.752c-40.1338,0.0387766 -29.2305,3.4617 -26.6043,-14.8162l1.89301 -60.0121c0.341939,-43.7506 0.757907,-38.5651 -3.38767,-78.001l133.621 -0.370141zm15.2991 -1.41711c69.0436,5.82355 159.686,-18.0241 164.505,28.0743 3.97989,38.0998 -8.13604,43.317 -22.2014,53.2262 15.7645,15.3309 20.541,3.92349 19.7444,38.1351 -1.32193,56.9135 0.426543,28.8357 3.75076,53.5364 -29.0754,-0.895388 -50.1276,-10.0996 -75.484,-18.366 4.29363,-37.631 20.4635,-56.4553 -18.4859,-53.2897 -2.18912,15.8279 0.532298,46.7999 0.0141006,50.8996l-72.0576 -0.905963c6.64138,-21.4047 4.82593,-51.6082 5.16082,-76.5698 0.779058,-58.4611 3.89176,-36.235 -4.94578,-74.7402zm454.127 19.4976c-1.18798,-4.52982 -5.11147,-6.6026 -8.38633,-8.53086 -2.83422,-1.6674 -5.18902,-2.95408 -8.32993,-4.1491 -43.7013,-16.6176 -45.3651,19.1874 -29.3292,19.0605 8.73885,-0.070503 5.79535,-5.14319 16.3884,-4.61795 4.60032,0.229135 2.50991,0.00352515 5.31945,1.63567 -12.0983,19.1451 -36.6193,13.6 -48.7563,1.25848 2.44998,-29.2587 21.3377,-31.469 42.753,-30.2317 33.8238,1.95998 21.1791,14.7104 43.8,18.9336 3.00343,-12.271 3.61328,-30.073 -0.324314,-34.483 -7.44512,-8.33698 0.095179,4.61442 -3.69083,-8.47798 -0.144531,-0.493521 -0.352515,-1.35013 -0.518197,-1.87185 -3.09508,-9.71884 -3.61328,-8.96445 -10.5049,-14.7245 -0.426543,-0.35604 -1.00114,-0.803734 -1.42769,-1.1633l-28.5678 -22.1133c-7.92454,-5.23837 -5.96103,-2.11509 -9.13014,-9.21474l13.1277 -0.398342c0.267911,0.0916539 7.88223,4.7096 8.24885,4.95283 6.72951,4.43111 11.0513,5.97865 15.6199,9.14776l26.8934 27.0661c18.7185,35.5758 -10.4662,58.2848 -20.3013,76.5204 -8.24885,-10.6001 -0.824885,2.68264 -2.83775,-7.1913 -0.23266,-1.14215 -0.0493521,-5.3547 -0.0599275,-6.13729l0.0141006 -5.2701zm-976.195 -74.6909l8.39338 -3.38767 -1.60042 39.5275 -126.828 -1.72027c7.72008,-32.5689 5.95398,-114.881 2.35127,-143.787l127.973 -1.35013 -1.63567 41.3112c-51.3614,-13.6423 -19.5152,-3.62033 -58.9088,-7.85403l-1.84365 22.0075c18.0699,2.97875 26.2447,-1.64977 39.531,-1.04697l-1.262 13.0431 -1.03639 25.025c-50.2158,-21.6761 -38.6709,16.4166 -39.873,23.8406 23.5727,1.40653 41.8682,5.99628 54.7385,-5.60851zm-129.567 -108.483c-9.63071,12.4191 -6.27124,81.6389 -6.66606,111.233 -0.243235,18.1334 1.81193,18.7256 3.02105,32.9355l-68.1094 -3.45112c3.41939,-11.2911 4.44874,-26.6678 4.0363,-40.3912 -0.556974,-18.5529 -5.12557,-13.8926 -22.3812,-13.6952 -4.38881,22.8888 -0.401867,36.3584 0.0070503,55.0417l-65.7194 -1.63214c6.08088,-23.615 5.57679,-116.573 2.40063,-141.986l67.7393 0.888338c-6.29592,20.8372 -4.52982,32.6993 -5.01276,55.9018 20.185,0.655678 23.3189,6.28534 23.2025,-15.2674l-2.05516 -41.2619 69.5371 1.68502zm725.254 -7.1067c68.1764,3.37004 64.7922,-14.5835 62.1872,100.978 -1.26905,56.3566 -10.5895,48.6929 -100.41,49.2428 -13.5119,0.0846036 -52.8385,3.95874 -60.2801,-15.3485 -2.88005,-7.47684 -0.965891,-68.2962 -0.853086,-79.7882 0.373666,-37.913 -7.56145,-53.6739 31.8215,-54.3825 20.3824,-0.366616 46.0244,-1.7661 67.5348,-0.701505zm-294.449 70.5594c2.56983,79.4745 6.87052,81.6213 -67.3092,81.5508 -85.8515,-0.0810784 -94.8688,10.8222 -94.7877,-50.1311 0.148056,-105.948 -7.97389,-95.2284 56.1169,-97.1073 22.5962,-0.659203 45.5097,0.137481 67.771,-0.176257 27.1719,-0.377191 42.1467,6.87757 37.4336,39.5874 -21.5563,8.53086 -40.9058,17.238 -67.3797,17.3825l-1.60747 -21.2531c-7.72008,-4.49809 -15.1476,-2.31955 -22.5927,-1.25143 -2.52048,13.741 -1.41006,26.3646 -1.57574,40.3806 -0.260861,22.0428 -7.5826,52.3132 26.7136,38.7766l1.0928 -13.1206c-17.6257,-2.97523 -18.1052,13.4625 -16.1628,-38.6638 29.435,7.03267 56.2261,-2.82717 82.2876,4.02572zm177.322 64.1189c-19.6492,16.4695 -27.7394,16.4836 -57.4353,16.9736 -23.8335,0.391292 -87.05,8.40748 -100.181,-11.6013 -5.55916,-8.47093 -3.37004,-23.4951 -2.97875,-38.544 0.489996,-19.0006 -1.99523,-65.8181 1.22675,-80.9551 5.06916,-23.7983 38.1844,-17.668 57.615,-17.8619 24.6831,-0.24676 82.9679,-7.09613 97.5832,7.7095l3.56745 4.51924c5.78477,10.0996 2.02344,106.449 0.602801,119.76zm-1016.29 -169.873c9.35222,-26.5479 19.836,-15.7222 44.2018,-12.6729 -9.66243,12.9549 -26.9004,12.962 -44.2018,12.6729zm-111.842 7.52267c4.2196,-4.6532 0.849561,-4.73428 3.64148,0.23971l17.1428 11.0936c5.36175,3.86004 3.76838,2.35832 6.85289,6.31707 -5.82707,13.1453 -50.7974,29.0966 -15.1934,65.9767 25.0004,25.8993 64.4327,14.6787 78.5157,19.1733l-46.398 43.8881c-9.76114,8.61547 -12.6271,20.5093 -21.9617,25.092 -11.7528,5.77772 -20.1392,1.60747 -32.026,10.3216 -6.62023,22.4658 2.9435,12.3239 -9.4474,30.7358 -7.33584,10.8962 -4.32536,19.8078 -2.35832,34.5535 46.0349,33.7075 78.988,-8.2136 112.41,24.6972 -15.2568,9.29229 -39.6086,2.71437 -58.1967,20.0581 -25.998,24.2566 6.45455,44.3675 9.45798,58.937 -11.9679,5.8447 -29.3292,8.36165 -39.1115,19.836 -24.5174,28.7582 18.9336,55.3378 49.3239,61.9475 20.3154,4.42054 37.4547,-2.03401 50.1241,1.06812 12.4332,25.5291 10.2864,33.7921 43.8106,43.2924 43.8141,12.4156 53.1416,-12.5989 59.6526,-18.4365 13.5824,3.19379 47.4697,5.84117 56.6703,14.4531 16.1699,15.1299 17.8091,20.5763 39.4041,31.9625 36.3443,19.1627 79.0726,19.4765 119.555,15.2639 39.3583,-4.0927 70.9507,-14.0583 105.078,-26.636 38.8154,-14.3015 60.0932,8.51676 82.3475,-7.96684 9.50028,-7.03267 7.27591,-12.3063 12.1723,-26.3258l65.5008 -15.3273c23.4422,-4.11385 51.2063,-7.55792 75.6638,-3.09861 -6.55678,14.8444 -34.765,30.5666 -23.1673,45.3264 30.8415,25.3106 66.3715,-29.1213 82.5943,-27.5067 9.63423,0.958841 52.9618,55.3977 80.0879,20.8125 -3.14091,-15.5635 -12.9725,-21.8524 -22.5997,-37.0105l-2.3266 -3.74371c32.2586,2.68616 44.8329,-8.39691 111.194,6.35937 41.0927,9.13719 25.1237,10.7799 34.4337,26.146 8.82697,14.58 32.2445,12.0172 49.9655,14.4249 2.4253,-1.73437 0.0564024,-0.627477 5.02334,-3.10918 19.1416,-9.56021 24.595,-1.44531 45.6754,7.93511 44.297,19.7126 115.452,33.1435 162.418,33.8344 91.0335,1.33956 115.72,-47.9773 135.211,-50.8891l56.0605 -5.04801c10.23,34.1411 80.6695,32.1776 103.787,-4.26191 6.28887,-9.90567 4.99514,-9.3346 7.51209,-20.1216 55.2743,6.09498 92.0663,11.7705 121.336,-30.5348 17.7809,-25.6948 -16.4801,-41.6214 -37.1057,-48.425 9.45093,-15.5389 42.2912,-39.4112 22.219,-60.0016 -17.9042,-18.366 -47.5789,-17.8267 -75.0645,-23.4211 46.2782,-37.5464 69.4243,3.21141 122.658,-17.7844 16.5541,-6.52858 20.5728,-13.7234 24.6901,-38.477 -6.95864,-4.18083 -6.51095,-3.18674 -9.22532,-11.21 -22.1908,-4.84708 5.16082,-25.3776 -26.4386,-35.4701 -28.0179,-8.94683 -21.5034,3.59565 -39.0516,-21.5387 -13.3286,-19.0922 -58.8559,-52.1334 -62.1977,-58.0381 41.5862,-2.22789 68.4408,6.65901 96.0462,-19.9559 38.6533,-37.2679 -28.0496,-68.4584 -31.9097,-71.5711 4.86823,-3.91997 10.0008,-8.62957 15.4966,-13.4343 5.2983,-4.63557 8.88338,-8.63309 11.9362,-17.9924l0.468845 -10.7094 -4.64262 -11.6295 -7.23008 -10.2793c-12.1688,-12.0807 -30.905,-16.7057 -47.5472,-18.1862 -23.7172,-2.10804 -47.0043,2.20674 -70.161,1.18093 -1.0646,-5.70722 -1.28668,-3.72256 -2.44293,-5.9716 -0.215034,-0.419493 -0.638052,-1.10337 -0.870712,-1.53344l-9.69416 -19.0429 -2.47113 -2.00228 -1.49819 -0.965891 -5.74952 -6.24656 -41.9704 -10.6636c1.61804,-12.0983 19.1486,-35.7697 24.3482,-46.3451 30.3233,-61.669 -3.77896,-138.44 -28.8392,-154.419l-2.54163 -4.32888c-2.55573,-8.45683 -0.655678,-4.25486 -7.29706,-9.14071 -5.14319,-12.754 -17.1287,-18.6234 -26.5585,-27.0908 -10.9773,-9.85632 -19.2896,-15.1793 -31.5994,-24.1614 -20.4705,-14.9361 -62.871,-36.0024 -64.7253,-37.3842 -3.11271,-2.31602 -3.07746,-2.86947 -3.65558,-3.62033l-6.40872 -1.69207 -3.28191 -2.79544 -3.40529 -0.796684 -3.93054 -2.73552c-24.9017,-4.63557 -76.8271,-36.2456 -133.12,-41.7942 8.45331,-16.6599 41.9881,-21.1156 72.6992,-46.962 21.6832,-18.2532 48.3862,-36.4818 29.8228,-77.3594 -117.356,-22.0745 -204.152,10.8363 -304.404,38.0681 -15.9055,4.31831 -29.9955,7.93159 -46.8034,12.1336 -27.542,6.88814 -31.5113,9.42625 -46.6906,1.34308 -6.88814,-3.66616 -97.8511,-14.5694 -109.622,-13.8679 -13.5507,0.803734 -40.4194,4.88586 -52.4789,3.68378 -21.7008,-2.16444 8.02324,-7.43454 -50.7481,-12.7716 -34.9131,-3.16911 -71.9977,0.0810784 -103.756,9.38042 -36.5699,10.7094 -44.0326,4.82593 -91.2555,27.8734l-8.49561 -8.18187c-14.2416,-11.5731 -58.4047,-8.3123 -75.3289,-8.83402 -29.5866,-0.909489 -57.9358,-9.84222 -86.2287,-16.5682 -105.518,-25.085 -156.263,-3.09508 -178.277,-5.62261 -4.68845,5.70017 -24.6866,10.5049 -38.8753,16.8502 -32.2868,14.439 -1.15272,48.4884 14.0935,55.6339 20.2555,16.466 50.8609,23.6185 76.6332,33.2668 12.9514,4.84356 21.4118,12.3662 36.5241,16.9806 14.4002,4.39939 30.5983,7.64252 45.1818,9.67654l-9.62366 8.8446c-0.602801,0.359565 -7.18073,3.22551 -8.19245,3.64853 -31.5254,13.3074 -95.4223,45.3475 -117.751,70.4395l-8.19597 6.32412 -5.38995 4.46636c-3.67673,4.03982 -2.95055,3.20084 -7.38519,8.37223 -0.373666,0.437119 -3.6168,4.15615 -3.72961,4.26543 -4.08917,4.05392 0.0775533,0.93769 -4.29011,3.58155 1.08575,5.50276 2.03401,4.67082 -2.49933,2.93997l-2.58746 5.62614c-15.3027,26.5691 -38.9071,42.5133 -39.6403,106.565 -0.447694,39.2102 23.4458,86.8526 41.625,101.274 -2.07279,4.21608 -2.48876,3.00695 1.63567,3.37357 -6.16196,25.3176 -36.7603,-1.53697 -47.9597,54.5975 -24.253,-3.11623 -61.8875,-9.76114 -80.9515,5.65081 -0.609851,0.454744 -1.45589,0.860136 -1.93883,1.13157l-7.1913 3.95522c-6.99742,4.8224 -2.48171,0.916539 -3.93759,4.31126 -0.35604,0.83546 1.52286,4.07507 -2.56631,8.92215 -4.36061,5.16434 -3.76133,2.3266 -7.08555,16.0817 -2.17149,8.97151 -2.08336,14.4425 -1.39948,16.8502zm1700.21 -40.5251c4.86118,33.7251 -25.2612,38.0117 -53.8925,40.9834 -147.231,15.285 -204.956,-53.614 -237.32,-53.8678 -8.90453,24.5914 -31.3809,30.422 -52.4613,36.7779 -21.5528,6.49333 -46.8457,9.42625 -71.0141,8.29115 -24.81,-1.1633 -48.8621,-9.14776 -66.8897,-22.1203 -31.9202,-22.9734 8.3687,-49.486 11.6295,-53.5259l3.10566 -3.15501c4.2337,1.43474 3.29954,2.68616 3.70141,-2.06574l1.0787 0.772008 4.03277 -2.16092 2.78487 -1.66387 2.99638 0.408917 4.38176 -3.84946 1.27963 1.05754c51.3015,-7.83993 59.0357,-11.5413 104.397,12.0948 0.905963,9.532 3.65205,17.7879 -3.49695,25.998 -13.392,15.3697 -56.7338,14.3897 -65.1412,8.9151 -5.27362,-3.4335 -3.4758,-2.10099 -6.45455,-6.79649 14.6717,2.21379 22.6526,7.5967 38.9529,5.00924 44.8893,-7.11728 17.1322,-55.6762 -55.0734,-37.2926 -13.1277,3.34537 -26.8687,5.12909 -35.2691,18.5352 -10.1983,16.2756 1.65682,29.442 14.6047,36.4007 37.839,20.3225 163.084,15.3415 147.7,-43.4757 -14.8656,-16.258 -13.2052,-16.9701 -34.2927,-31.6065 -35.9953,-24.9792 -121.628,-24.5456 -156.665,-4.29716l-2.36185 0.549923c-9.03143,0.186833 -4.1068,-0.955315 -5.21017,3.48285 -9.52848,-1.90358 -4.54392,-2.82364 -7.06087,2.22084 -9.01733,-2.11861 -4.27953,-1.91416 -5.47808,2.21732 -8.96445,-2.18559 -3.82479,-1.73085 -6.18311,2.30545 -15.2956,-1.44531 -28.6348,14.3192 -42.4111,13.9843 -0.518197,6.19369 0.69798,3.92349 -5.8588,3.58508l-2.9858 0.634527c-12.0948,16.4131 -106.939,47.8751 -129.613,53.9771 -47.7129,12.8421 -110.57,17.5059 -154.669,-3.65911 -26.6995,-12.8139 -49.5178,26.354 -149.519,15.3309 -43.6131,-4.80478 -101.785,-31.5219 -141.306,-49.5389 -57.0616,-26.0086 -156.393,-71.9518 -221.626,-36.0834 -13.741,7.55792 -45.6965,32.2163 -35.4066,57.1286 14.7633,35.7521 109.65,41.632 136.325,10.7024 23.7066,-27.4926 -11.8128,-45.5555 -38.128,-46.8246 -21.8136,-1.05049 -61.2706,0.525247 -54.6433,31.1271 4.96694,5.69312 0.920064,2.84127 10.0326,6.04211 2.67911,0.941215 6.15491,1.77315 10.4239,2.29135 3.98694,0.489996 8.69654,0.236185 12.0172,0.623951l9.83164 3.17616c-8.64014,6.26772 -23.904,4.66377 -36.3901,2.07631 -10.4838,-2.17502 -21.4082,-6.29239 -23.8723,-17.4354 -6.72599,-39.7989 72.3784,-40.1585 101.464,-31.8497 45.7247,13.0572 54.4459,57.9429 3.84946,77.652 -29.2411,11.3933 -96.9733,8.8728 -122.4,-9.9515 -17.2521,-12.7716 -21.0487,-30.1224 -45.2946,-18.2356 -10.1912,4.99514 -39.4993,19.8466 -47.8116,21.4787l-6.22894 4.1632c-2.10804,1.34308 -2.95408,1.89653 -4.89643,3.02105 -20.2273,11.7176 -60.8194,17.2768 -83.1477,18.9124 -34.8003,2.54516 -83.6306,5.9152 -94.4423,-31.3245 4.33946,-18.2991 4.18435,-15.3802 15.2463,-21.0028 22.8888,-11.6436 62.4551,-17.1111 68.053,3.21846 6.32764,22.984 -48.6048,45.6154 -49.8562,10.1137 10.8962,-3.09861 3.25019,-2.33012 10.4485,0.849561l5.24542 4.46636c10.8363,-5.61556 9.44388,-0.162157 15.1476,-9.81402 -13.875,-13.7657 -36.5417,-10.4873 -46.955,-2.40415l-3.80364 3.70493c-7.54029,9.46855 1.43826,19.8184 9.69064,25.0074 46.183,29.0472 122.777,2.51696 166.376,-14.1006 74.148,-32.308 62.159,-56.2402 86.1758,-76.0762 10.2088,-8.43216 20.5728,-9.79992 29.4632,-17.1569l2.4253 -2.53106 4.52629 0.786108 3.94112 -2.44998 3.83184 1.25848c80.9586,-25.9592 158.011,17.8337 228.155,47.1524 68.8462,28.7793 170.162,50.4837 241.885,26.5197 -5.08327,-14.0019 -10.6742,-8.25237 -15.3873,-19.4271 15.976,2.13272 21.8841,13.4943 41.7448,11.1359 2.91882,-0.345465 5.51686,-1.16682 7.86108,-2.2702 -5.12204,4.15263 -1.63567,-0.10928 -5.23132,7.71655 26.9251,19.1733 122.369,12.331 155.903,3.83184 23.3294,-5.9152 45.0267,-12.8633 67.3586,-20.2167 22.3882,-7.36756 46.5707,-21.8877 64.1612,-26.2906l1.6956 0.282012 4.21608 -3.19026c18.2603,-5.07622 42.6402,-20.0828 64.4997,-26.7947 53.3426,-16.3814 97.7453,-22.0815 151.317,-5.96808 13.3074,4.00104 22.7901,8.45683 32.4067,15.8773 10.2194,7.88576 13.4449,16.7586 24.2248,22.9558l-1.0787 3.4758 8.15367 5.11147 2.37948 1.45941c42.0233,33.0377 80.0738,53.5364 132.056,65.2258 139.141,31.2928 186.889,-32.8896 119.957,-45.4392 -16.3708,-3.07041 -27.5349,1.03287 -38.8154,6.52153 1.07165,13.8221 2.66501,17.8725 14.7245,18.2356l17.6539 -6.00333c1.35013,-0.976466 2.30897,-1.58984 2.97875,-1.95293 0.0141006,0.0740281 0.0282012,0.144531 0.0423018,0.215034 -0.260861,-0.169207 -0.440644,-0.602801 -0.377191,-1.50524 0.133956,0.440644 0.23971,0.867187 0.334889,1.2902 2.51343,-1.37481 0.863662,0.750857 0.0423018,0.215034 4.87881,23.5374 -51.4496,15.6376 -53.2157,-3.58508 1.32193,-10.5508 4.00104,-12.479 12.7505,-16.6035 7.39929,-3.49342 18.1721,-5.3265 27.0308,-5.16434 30.9825,0.578125 29.3962,8.2136 48.1606,19.5117l2.78134 2.66149zm-1541.24 -156.788l-0.59575 3.78249c-0.775533,4.99514 -1.7379,3.77544 2.3548,4.13853 5.77067,46.606 54.5059,80.0667 72.9107,101.218 -3.10213,2.89415 -7.58612,6.22894 -13.9807,6.84937 -14.3509,1.39596 -19.2085,-15.9584 -32.6217,-24.6267 0.486471,-5.79535 1.31488,-4.30421 -3.74371,-2.57336 1.80135,-5.3547 2.31602,-4.08565 -2.48523,-2.81659 -0.740281,-4.54039 4.87176,-3.03515 -3.14796,-4.45579 1.43121,-4.82945 2.17149,-3.87061 -2.08336,-3.014 1.39596,-4.92111 1.52639,-3.19026 -3.04573,-1.88948 1.38186,-5.28772 1.8507,-3.93054 -2.76372,-2.39358 1.67445,-4.94226 2.03401,-3.48285 -2.61919,-2.89062 -1.08575,-4.31478 3.70846,-1.33956 -4.50867,-8.05497 -4.0504,-10.2088 -34.335,-44.4698 -30.2705,-91.1745 1.88595,-21.662 6.94807,-39.7143 14.2169,-55.8102 8.70007,-19.2614 15.2498,-27.9368 27.2424,-41.9281 4.14558,-3.40177 1.80488,-0.412442 6.4193,-7.1208 4.96341,-9.29229 2.92587,-7.7659 10.1912,-10.1172 31.9097,-29.3856 48.3227,-45.1113 91.3507,-63.7136 33.8978,-14.6611 69.7698,-39.591 110.119,-31.1306l-101.983 43.2219 -69.7486 44.2336c-8.77762,6.01038 -9.64833,11.9044 -18.9794,19.0675l-5.30888 4.90701 -2.20322 2.76724 -2.47113 3.72961c-2.12919,2.65796 -4.78363,5.9575 -7.15605,8.9574 -0.941215,1.1915 -2.49581,3.10566 -3.40882,4.17378 -0.229135,0.267911 -1.1069,1.73437 -1.2197,1.2902 -0.112805,-0.444169 -0.779058,0.916539 -1.23733,1.262l-1.27963 4.78715c-14.4531,28.5608 -24.676,53.9348 -20.9711,87.7374l3.0281 11.5872zm108.504 175.313c-2.70026,10.089 -1.20913,12.4121 -8.62604,14.6893 -4.66025,1.42769 -10.1489,0.387766 -14.2804,-1.15272l-0.824885 -12.4544 23.7313 -1.08222zm-68.4901 -36.0729c7.74123,-3.85299 7.0785,-1.33603 8.42158,-0.606326 -1.48409,3.96579 3.84594,9.00323 -17.6257,7.71303l9.20417 -7.1067zm1122.92 85.9749c37.4723,-2.22437 74.1621,-2.62976 111.62,-2.58746 60.7736,0.070503 51.6434,7.04325 51.6611,73.3161 0.0141006,60.0051 8.36165,76.5239 -49.9443,76.6085 -35.886,0.0528772 -74.9658,3.22551 -110.838,1.262 -0.207984,-0.733231 -0.289062,-1.752 -0.320789,-2.30192 -0.0317263,-0.539348 -0.222084,-1.60394 -0.23971,-2.27372l2.02344 -113.69c-0.176257,-23.2695 -4.39586,-25.3176 -3.96227,-30.3339zm-1151.27 -118.928l14.8127 5.23837c0.59575,5.37585 2.9294,17.6222 -3.08451,20.2379 -0.391292,0.169207 -1.25848,0.606326 -1.74142,0.807259 -14.781,6.12671 -27.7288,6.05268 -34.483,17.4072l5.70369 5.66139c0.539348,0.334889 1.14567,0.634527 1.72027,0.913014 13.17,6.39815 46.6377,1.01524 60.9498,0.186833l-3.89882 3.79659c-17.1428,13.2792 -70.8943,5.54506 -83.1689,-6.68368l2.9012 -18.5388c7.06087,-2.19264 11.5942,-5.33003 18.923,-8.09022 7.33231,-2.76372 12.9302,-3.12681 19.0288,-5.20665 3.31717,-3.22551 2.01286,4.23723 3.12328,-8.93625l-9.25704 -2.30545c5.71779,-6.58498 -0.687404,-2.17854 8.47093,-4.48752zm1513.27 295.831c-2.56983,13.2828 -8.17835,20.9147 -5.43931,32.664 12.7646,15.2322 47.7622,21.2849 54.7808,-4.43816 -17.936,-15.627 -14.7245,-2.9294 -30.0025,-1.6533l-3.0563 -0.634527c1.57574,-14.9149 33.8062,-11.009 42.7283,-5.92225 3.05983,26.3681 -9.09841,31.0989 -30.9896,33.0306 -21.0663,1.85775 -33.4924,-2.30545 -39.041,-22.3389 -12.3944,5.256 4.43816,-4.55449 -7.71655,1.55812 -8.49914,3.38414 -9.13366,7.95274 -15.0489,5.85527l1.55459 -5.30182c0.10928,-0.169207 4.95636,-4.95283 5.07622,-5.04096 4.21608,-3.01048 1.41358,-1.56164 5.397,-2.4112 0.423018,-0.0916539 2.2843,0.341939 3.07041,0.380716 -4.93521,-15.8103 40.8953,-49.7152 -27.7288,-97.6008 -12.7399,-8.89043 -29.5055,-18.8278 -44.3323,-27.3058 -13.9455,-7.97036 -28.8392,-17.8901 -38.6004,-32.2657 -15.4402,-22.7407 4.85766,-39.034 18.4929,-45.8728 27.3939,-13.741 103.097,-24.6584 136.392,3.95874 18.8172,16.1734 11.1747,34.9801 -12.6165,47.1312 -37.4864,19.1451 -125.034,-6.86347 -92.2391,-37.5746 16.1346,-15.1053 92.1862,-17.3332 66.2834,15.5882 -13.6353,-2.82012 -4.48399,-2.39358 -5.33003,-4.42406 -0.257336,-0.616901 2.3971,-13.3356 -21.4153,-15.1934 -6.38405,-0.497046 -14.855,0.320789 -20.9429,2.77429 -24.0944,9.71179 -13.9243,34.8673 29.569,35.6639 9.4474,0.172732 19.0605,0 27.5526,-2.37595 39.3548,-11.0126 21.7255,-40.2466 -5.00571,-48.4673 -41.0962,-12.6341 -131.47,1.0646 -105.663,48.6153 25.9768,47.868 115.829,50.2757 114.271,131.601zm-584.304 -243.919c6.38052,-6.82116 10.5331,-8.47093 22.1274,-8.98561l-4.46636 5.01981c-0.384241,0.683879 -0.750857,1.47704 -1.07517,2.16444 -2.72494,5.78125 -1.05754,0.764957 -1.88243,8.20302 23.3682,15.6693 37.2362,6.13023 51.7703,-6.5885 3.99399,-3.4899 0.941215,-2.18207 6.26067,-3.82831 0.271437,0.645102 0.507622,1.56517 0.609851,2.04459l1.43826 13.452c-15.07,10.5895 -72.886,16.7762 -74.7825,-11.4814zm449.034 11.1218l32.6993 -6.4052c6.26067,6.19016 6.25009,8.97151 13.8503,13.5612 -14.2628,3.12328 -34.1516,-3.11271 -46.5496,-7.15605zm-16.1099 -73.1327c-7.85756,4.14558 -8.31935,0.236185 -8.47446,10.9033 6.25009,6.15491 -4.89643,1.25495 9.5179,5.13967 17.6363,4.75543 42.0057,-0.324314 41.0363,30.1647l-23.8159 7.86813c-0.535823,0.148056 -1.17035,0.324314 -1.70617,0.47237l-19.2403 3.16911c-22.7901,1.50876 -33.3232,-2.14329 -54.527,-7.76943 20.7385,3.17968 45.6648,7.49799 66.3609,3.27839 16.9454,-3.45112 13.4802,-8.00561 15.1088,-11.4673 -2.30545,-7.18425 1.03287,-2.96465 -4.37471,-7.98446 -6.06326,-5.62966 -25.4199,-4.61442 -42.0727,-14.1746l-1.23028 -18.1686 23.4176 -1.43121zm-32.0189 -222.899l-0.609851 0.12338 7.75885 9.73646c3.12681,5.52038 4.62852,8.3405 8.60136,14.5236 9.39805,14.6258 14.5166,25.5573 18.9336,44.1243 12.3627,51.9501 -15.3132,99.0461 -45.5837,131.664 -14.7704,15.916 -32.7063,39.1679 -53.7726,22.8888 17.2803,-19.4518 51.1746,-37.6909 69.7451,-90.5893 10.7165,-30.5313 10.8962,-50.244 1.32193,-75.9705 -8.47446,-22.7654 -13.4661,-27.2741 -27.1049,-45.2312 -38.6815,-50.9314 -122.615,-96.3529 -194.26,-117.557l-81.1419 -25.9098c-11.7705,-3.16558 -22.011,-3.30659 -28.4444,-12.8527 19.4941,0.655678 25.2612,-5.04449 50.2404,0.740281 16.5083,3.82479 29.5196,9.05258 45.2594,13.8538 29.6923,9.05611 55.9089,22.2296 84.7904,33.0095 24.9545,9.31697 51.9043,25.0215 76.9822,40.4581 18.6657,11.4885 48.2699,36.087 64.1612,53.0112l3.12328 3.97637zm-410.652 -138.746l-0.539348 -1.28315 0.930639 0.909489c-0.130431,0.12338 -0.267911,0.24676 -0.391292,0.373666zm-5.56974 1.262l0.0176257 0.70503c-4.58269,0.423018 -4.20198,-1.31136 -3.42645,2.99638l-4.92816 0.119855 -5.44636 2.40415c1.0787,-3.72961 1.37833,-4.7378 1.85423,-7.639 1.85423,-11.8445 -0.881287,-5.79535 8.54849,-5.09737l2.2843 0.419493c0.144531,0.0211509 0.694454,0.236185 1.03639,0.151581l-13.0008 -15.3027c-9.97617,-5.83412 -0.24676,-8.52029 -12.5707,-11.3228 -7.40986,-1.68502 -5.2701,2.78487 -14.1887,-1.94236 -7.36756,-3.90587 -10.9949,-9.9515 -23.3647,-14.4919 -11.8234,-4.33946 -22.5539,-5.84822 -35.3713,-7.75885 0.609851,0.440644 1.63919,0.0881287 1.92473,1.13157 0.285537,1.02934 1.41711,0.842511 1.90711,1.09985 9.16186,4.79773 22.9945,10.0925 30.2705,16.4871 9.16891,8.05849 17.943,20.5657 11.707,35.188 -13.2158,4.16673 -23.7172,-2.88357 -38.2831,-1.40301 -9.66948,0.983517 -21.6973,9.89509 -26.6149,15.0066 -9.82459,10.2124 -38.3289,40.1867 -41.2442,49.5072 12.0454,-1.52286 12.4614,-5.36175 22.1626,-8.21007 14.8515,-4.36061 51.6752,22.5892 70.2985,-27.1084 -12.8668,2.06926 -14.0407,2.10451 -24.8876,-3.59565 6.88814,-8.7741 35.3467,-19.7514 33.7568,3.99047 -1.48409,22.1591 -4.89996,56.8501 8.48151,73.6157l0.391292 0.112805c-0.0775533,5.79535 -1.39243,4.51572 3.13033,4.91406l-0.82136 2.66149 2.05164 4.20198 -0.648627 1.02934c0.47237,10.7517 -0.641577,4.45931 2.96113,6.79296l-1.43121 1.1633 -1.58279 26.9321c-0.454744,0.387766 -1.1069,0.236185 -1.29725,1.26553 -0.22561,1.22675 -0.902438,1.32898 -1.10337,1.97056 -1.7238,5.57326 -0.0987042,-3.07746 -1.18798,4.88938l-0.10928 1.57222 -0.12338 0.0987042c0.0881287,-0.623951 0.165682,-1.1774 0.23266,-1.67092l0.0141006 -0.169207 -0.24676 1.84013 0.12338 -0.0987042 -1.87538 26.9815 -0.133956 0.0387766c-7.57907,73.8836 -48.1888,69.0365 -71.5958,90.7056 -9.3205,8.62957 -2.95408,7.01152 -17.4636,12.8985 -13.2299,5.37233 -31.3386,12.1371 -47.1066,11.1395 4.55097,-10.1947 5.9575,-5.45693 9.71531,-20.1039 -11.4003,1.96703 -30.7605,14.4778 -43.8705,21.2708 -63.911,33.1153 -221.933,49.8491 -259.225,-15.8032 -4.62852,-8.15015 -5.40053,-14.4778 -14.09,-21.7995 -36.3231,-30.6124 -2.49933,-46.2605 1.94941,-78.0503 -23.9463,12.0736 -20.5657,17.9959 -37.8636,38.5228 -18.1404,0.327839 -26.5232,-14.0724 -38.4206,-21.9934 -0.627477,1.30078 -1.25143,1.30783 -2.15739,5.98218 -0.36309,1.88243 -0.482945,4.87528 -0.648627,6.93044 1.97056,5.887 4.55449,9.15834 8.24885,13.5895l2.33012 -0.211509c5.59794,3.64148 12.7681,6.14434 19.2297,8.66129 12.9161,5.03744 10.1736,1.34661 12.4156,16.399 3.74371,25.1801 4.07155,-3.95169 23.2589,26.8264 8.46741,13.5859 9.20769,20.9535 23.1179,33.1258 11.3545,9.93035 21.5704,18.9336 38.9882,21.2214 -5.83412,15.0348 -0.415968,16.9947 13.5542,19.3425 0.260861,-0.708555 0.920064,-2.2561 2.23847,-5.17139l4.0222 -7.17015c71.772,19.0111 141.066,9.62366 203.944,-23.5515 33.0624,-17.446 75.7167,9.45798 119.376,-33.7674 5.07622,-5.02686 11.3122,-8.8023 19.3707,-12.7716l36.2949 -27.4398 1.03287 -6.07383 1.85775 -0.916539c17.7914,-33.3338 31.9414,-90.7973 10.9667,-121.836 -1.32898,-6.87757 1.78373,-2.34422 -3.12328,-8.49208l-0.236185 -1.69912 -2.10451 -3.39824 -2.76019 -2.96113 0.620426 -0.0423018 -2.89415 -7.87871c-0.211509,-0.423018 -0.623951,-0.994092 -0.997617,-1.52286l0.10928 0.0528772c0.112805,-6.40872 1.6533,-5.84822 -1.6956,-6.06678l0.0564024 -0.0493521c-0.863662,-8.00914 -3.47227,-16.4906 -2.9858,-24.5632 0.680354,-11.3157 3.69788,-13.2581 8.45331,-19.9136 0.260861,-0.366616 0.831935,-1.08575 1.18798,-1.68502l6.96217 0.130431c-1.07517,17.2345 -3.19379,20.6362 3.83889,31.7404 13.2792,20.957 1.45941,14.9925 8.9574,23.474 33.496,12.7399 23.4563,32.2833 21.8171,43.0668 10.5402,10.4591 18.8595,14.0689 12.8492,40.3806l12.2005 10.5895c1.80135,2.64034 1.46999,2.46055 3.014,5.20312 -2.73904,8.56964 -4.35003,9.11604 -8.98208,13.5436 19.6598,1.72732 34.5218,-1.99523 53.1064,7.99504 7.90338,4.25133 9.85984,9.94092 17.8408,9.63776 6.46865,-0.243235 14.8938,-4.91053 22.9452,-5.3688 1.82603,-0.105754 51.9184,3.70846 53.621,4.135 12.7892,3.19731 7.97036,9.5179 18.6198,11.1395 4.25133,0.645102 15.0453,-2.12567 21.7784,-1.89301 8.3123,0.285537 19.5611,1.55812 27.958,2.51343 13.3638,1.52286 10.727,4.24781 18.916,10.6671 10.2723,8.06202 74.1832,-2.40063 93.6421,11.5061 13.4449,9.60603 11.5484,1.18093 47.1171,2.13977 -2.9294,19.8008 -11.1782,31.0284 -20.816,43.095 -57.6362,72.1598 -46.7259,51.2733 -97.9745,30.8098 -63.3399,-25.2965 -125.83,-8.04792 -142.617,-12.9902 -9.28524,-2.73904 -20.4529,-17.594 -35.456,-18.2955 9.21122,7.26533 12.4262,11.3298 14.5271,19.0358 -5.36528,6.33469 -3.80716,4.23723 -11.7987,8.47093l-2.04106 1.52991 -5.21722 -0.902438c-2.61919,3.14443 -85.365,38.5722 -99.1061,36.9788 -19.1944,-2.22437 -24.6126,-4.30773 -39.323,-5.3124 8.89395,-1.59689 4.20903,2.4394 5.93988,-8.2982 -16.6317,-0.701505 -22.4799,-0.250286 -36.3936,4.96694 3.89882,6.16549 -0.0987042,6.66606 18.158,6.82469 -8.54849,9.68711 -11.3193,13.318 -10.935,33.57 -46.8281,6.13729 -68.0742,23.1461 -143.516,16.6881 8.06907,-13.8785 12.1336,-16.2932 24.105,-27.2811 16.2157,5.30535 41.7942,11.2911 55.2461,1.60747 -71.9659,5.44283 -33.7674,-21.2813 -64.6794,-27.683 -22.0463,-4.56859 -28.8851,-3.07746 -39.4711,8.3405 -20.1639,21.7537 -33.3091,39.6227 -54.661,9.73646 -0.327839,-0.458269 -0.740281,-1.11042 -1.0787,-1.55812l-7.21246 -8.16072c-4.98809,-5.29477 -5.61556,-6.92692 -13.7657,-9.24999 -10.1947,-2.90472 -28.2153,-1.63567 -38.5123,-0.895388 -16.3073,1.17387 -20.1392,4.36766 -27.4962,17.2803l26.696 -0.024676c12.0701,25.4798 22.3318,23.2166 28.1483,38.7484 -27.4644,3.89882 -50.9913,3.10566 -78.7342,-0.726181 -23.9675,-3.31012 -18.6586,-2.44645 -31.9449,-14.5342 -14.8374,-13.4978 -17.2732,-3.48637 -31.1553,-0.0775533 -2.55221,-59.1273 -44.2477,-24.8171 -72.886,-30.0413 -1.09985,-8.68597 0.638052,-7.59317 -1.8225,-20.252 -2.96113,-15.2604 0.162157,-9.4615 1.77315,-23.1708 -11.915,-13.882 -9.33107,6.25362 -8.2418,-21.2249 0.578125,-14.5412 -4.42759,-5.37585 -8.69302,-21.863 -4.76248,-18.4119 0.69798,-8.96445 -12.8386,-19.7479 -9.55668,-7.61432 -6.98685,-11.8022 -10.8398,-23.7525 -14.6117,-8.87985 -22.1908,-22.4023 -26.5796,-43.8846 -5.70369,-27.9192 3.01753,-45.6331 -0.211509,-72.121l1.36776 -0.849561c-4.58269,-5.23837 -0.606326,3.42645 -4.39586,-7.36404 -0.0317263,-0.0987042 -1.11042,-5.86585 -1.1351,-6.15844 -0.415968,-5.42873 0.289062,-12.8351 0.683879,-18.5388 1.06107,-42.6296 -13.2757,-25.8006 -14.5377,-48.8268 7.32526,-6.45102 30.2634,-13.6141 39.7073,-4.87176 -4.08565,8.45683 -0.623951,4.74838 -9.82107,7.45217 -2.89062,0.849561 -4.68492,0.842511 -7.45922,1.81193 -3.87414,1.35718 -3.65911,1.43826 -5.40053,2.70731 9.10194,13.7587 4.27248,2.23494 10.1137,20.0793 18.433,1.48409 21.8595,-0.285537 37.9941,-3.16911 13.3286,-2.383 17.8337,6.93397 33.9648,10.0467 -6.08793,-7.64957 -14.9079,-14.513 -20.2555,-21.5034 -6.66958,-8.72122 -6.90929,-15.0418 -15.2604,-22.9628 -18.2321,-17.2909 -36.4853,-8.05497 -57.682,-8.70007l2.44998 -22.7478 -0.317263 -2.17502 2.82364 -5.42873c8.86575,-17.8055 20.1251,-19.0464 35.114,-30.4467 -14.231,-0.930639 -31.0389,5.11852 -42.4287,11.6083 -9.78934,6.49685 -14.8197,13.2369 -19.9982,26.8229 -7.96684,-3.64148 -13.2863,-5.61909 -17.1217,-13.3603 -6.58145,-10.4873 -9.75409,-18.2955 -21.165,-26.0861 -32.5971,-22.2507 -9.66948,-30.5454 -51.2204,-40.6626 -28.6348,-6.97275 -25.9028,-8.68949 -25.9486,5.28067 26.0015,3.19026 30.1541,10.7764 38.5193,29.5126 6.23246,4.67787 0.609851,-0.324314 4.60032,3.82479 6.17254,6.41577 -0.606326,-0.913014 3.5886,5.03744 7.30411,6.6026 16.1452,9.88099 21.729,15.5917 13.2228,13.526 -3.01048,6.46865 18.4965,16.6916 -6.05268,3.65205 -0.863662,-0.0176257 -6.377,1.91416l-3.70846 1.50524c-0.253811,-0.676829 -1.33251,0.444169 -1.92121,0.863662 4.43464,0.391292 3.59213,-1.06107 2.93645,3.97284 2.07631,8.64719 0.860136,-1.16682 1.43121,10.0714 -103.512,-3.59918 -86.1123,0.405392 -179.557,-30.1118 -12.687,-4.14558 -44.4662,-19.5047 -50.4026,-19.8501l-9.55315 -9.97617c-13.4872,-10.1701 -25.8711,-17.1816 -24.5879,-35.8472 11.4744,-11.0584 64.059,-19.9171 83.123,-21.9123 94.5093,-9.88099 121.554,15.7504 196.171,23.6714 32.7804,3.48285 72.9565,0.274962 103.082,10.8293 -1.43474,10.7693 -2.89062,5.12909 -4.40291,18.0417 6.29944,-2.24552 0.313738,-0.00352515 5.26305,-2.22789l8.16425 -4.05392c24.3799,-14.2663 11.7881,-6.30649 40.8917,-13.7939l58.9722 -16.3426c23.5409,-10.6213 104.725,-12.2393 132.08,-8.66482 -15.1053,6.9939 -12.8597,0.733231 -24.3905,16.8749 31.0319,-1.2197 57.9323,-12.4015 92.9018,-10.6565 19.3037,0.962366 31.0002,6.24304 48.8938,9.87042 22.4693,4.55802 36.6122,-2.3689 55.9053,1.48761 -7.13843,8.20302 -2.18207,2.50638 -17.1957,8.43216 26.0191,5.73189 165.428,-20.95 194.324,-29.6641 61.4398,-18.5247 113.379,-35.6498 181.189,-30.7217 9.26409,0.673304 20.5023,-0.556974 14.7739,26.7136 -1.88595,8.97856 -3.07746,8.96445 -9.04201,15.6728 -7.63547,8.59079 -14.0865,15.6446 -23.2695,23.1215 -8.1713,6.64843 -16.2157,14.2945 -25.723,19.8219 -64.2529,37.3595 -149.808,27.5067 -168.16,45.2594l-0.930639 -0.909489c-5.80592,-1.42064 -4.80478,-3.40529 -5.03039,2.54516zm-232.935 404.373c7.27943,-6.07031 11.6753,-13.3321 17.1851,-10.3287 -4.38176,3.06688 -9.41567,5.68959 -15.3309,9.21827l-1.85423 1.11042zm184.253 -305.578l-0.00352515 0.267911 -0.391292 -0.112805 0.394817 -0.155107zm4.33593 -17.3719c-0.22561,-0.0141006 -0.47237,-0.0317263 -0.743807,-0.0564024l0.800209 0.0070503 -0.0564024 0.0493521zm1.58632 6.0139l-0.215034 -0.310213 0.324314 0.36309 -0.10928 -0.0528772zm-387.608 264.693l0.229135 0.0387766c-0.324314,0.525247 -0.511147,0.729706 -0.229135,-0.0387766zm0.229135 0.0387766l0.250286 0.0423018c2.16092,-4.42759 0.542873,-1.30783 -0.250286,-0.0423018zm120.941 -160.638c-0.493521,0.327839 -1.23733,0.095179 -1.53344,0.860136 -0.648627,1.6674 -2.24905,1.19855 -3.18674,1.53344 -9.72941,3.4899 -19.8395,3.07041 -31.7863,13.7481 -27.9157,24.951 -5.95045,-1.55107 -42.7953,-7.87871 -16.473,-2.83069 -31.1588,2.69321 -38.8189,-9.78229 0.0775533,-0.556974 0.475895,-1.94588 0.525247,-1.58632l7.6108 -12.0877c-25.0709,5.46046 -29.5831,22.4023 -12.3028,28.3211 9.30639,3.18321 28.8181,1.05754 43.3417,10.1137 24.7042,15.4049 12.19,28.8639 35.0365,41.2407 3.75076,-22.3847 25.1378,-38.6462 40.6027,-44.988 24.5104,-10.0467 51.2275,7.008 48.7986,-30.6335l-17.6398 -4.66025 3.38062 15.3415 -31.2328 0.458269zm-150.675 76.9998c5.64729,10.6988 11.4603,11.7105 23.5409,14.7457 10.3146,2.59804 21.9899,4.07507 33.1258,5.19255 23.0721,2.3125 45.2805,2.10804 68.4514,2.17502 20.2908,0.0564024 38.7625,-3.67321 57.3507,-8.1995 19.4341,-4.72723 38.6674,-12.9867 54.0476,-17.1146 -2.66854,-2.21027 0.126905,-1.33251 -4.87528,-2.23847 -7.639,-1.38538 -79.2665,14.0019 -112.174,9.99732 -13.9807,-1.70265 -12.6905,-9.21122 -28.1589,-4.26543 -25.2859,8.09022 -67.0096,8.98561 -91.3084,-0.292587zm795.478 507.893c33.0976,9.30287 25.9028,-6.42282 26.9603,-37.4336 1.7661,-51.9678 4.98809,-46.7646 -22.9734,-45.411l-3.98694 82.8445zm-534.846 -595.338l6.26419 4.98809c13.8644,11.0408 13.6459,38.6779 1.51934,51.9783 21.4153,1.00467 13.7269,-8.9433 26.1108,-12.8104 12.2534,-3.82479 44.1525,3.84946 81.2864,-17.8972l11.9467 -8.20655c-0.553448,-6.59203 -2.2843,-5.77772 2.3548,-5.3688 -11.4955,-5.256 -35.7979,19.0816 -63.636,13.8856 -4.8224,4.52982 5.4252,1.64977 -7.42044,3.4335 -3.24666,0.451219 -4.94578,-0.458269 -7.91749,-0.888338l-15.7539 0.204459 -6.72599 -18.2991c-0.0599275,-1.01877 -0.553448,-1.25848 -0.838986,-1.88595 -7.54382,-2.64739 -18.0981,-10.9068 -26.0015,-15.3697l-1.18798 6.23599zm507.985 421.492c28.1236,7.80116 24.6831,-0.599275 24.9299,-26.3752 0.151581,-16.2404 0.444169,-37.0528 -1.29725,-51.6998 -10.4168,-3.0563 -12.1653,-2.77782 -22.5363,0.11633l-1.09632 77.9587zm-176.109 -76.7848c-3.67321,11.9573 -3.34184,64.0273 -2.63329,77.8106 27.4186,4.91758 23.4563,-0.532298 23.6044,-28.3916 0.0740281,-13.7093 2.30897,-38.1421 -1.21265,-48.8022 -8.62604,-2.56631 -10.6213,-1.51229 -19.7585,-0.616901zm-178.796 2.4535c-1.41358,13.4167 -2.35127,68.0706 0.0528772,76.7778l21.091 0.23971c2.06926,-13.5436 2.4394,-66.2799 -0.22561,-76.6932l-20.9182 -0.324314zm-299.493 208.414c27.7888,5.21017 26.2976,-7.54029 23.7137,-35.4842l-22.071 -1.56164 -1.64272 37.0458zm390.498 -454.258c2.4676,5.42168 -3.14443,3.79659 8.58726,2.64034 0.95179,-0.095179 9.49323,-3.18321 10.3287,-3.66263 6.76829,-3.88824 9.49675,-8.73885 11.5554,-18.0805 -5.82002,-13.8362 -15.1088,-22.5257 -30.6617,-28.4656 4.64967,12.613 9.33107,10.3534 12.472,23.6714 3.66968,15.5706 -2.89062,21.2637 -12.2816,23.897zm116.876 442.78l22.1097 -5.05859 0.278487 -23.0686c-23.1144,-4.70607 -24.2953,-1.59337 -24.2742,14.7704l1.88595 13.3568z"/>
 </g>
</svg>
