<?xml version="1.0" encoding="UTF-8"?>
<!DOCTYPE svg PUBLIC "-//W3C//DTD SVG 1.1//EN" "http://www.w3.org/Graphics/SVG/1.1/DTD/svg11.dtd">
<!-- Creator: CorelDRAW -->
<svg xmlns="http://www.w3.org/2000/svg" xml:space="preserve" width="5548in" height="7180in" style="shape-rendering:geometricPrecision; text-rendering:geometricPrecision; image-rendering:optimizeQuality; fill-rule:evenodd; clip-rule:evenodd"
viewBox="0 0 33.4087 15.0056"
 xmlns:xlink="http://www.w3.org/1999/xlink">
 <defs>
  <style type="text/css">
   <![CDATA[
    .fil0 {fill:lime}
   ]]>
  </style>
 </defs>
 <g id="Layer_x0020_1">
  <metadata id="CorelCorpID_0Corel-Layer"/>
  <path class="fil0" d="M20.1422 1.86069c0.306794,-0.205384 0.446019,-0.536906 0.485412,-1.0112l-1.25381 0c0.191837,0.286604 0.674816,0.609051 0.768399,1.0112zm-7.96784 2.22457c0,-1.12899 0.163821,-1.36844 0.614641,-2.05503 0.117128,-0.178158 0.480283,-0.548218 0.655152,-0.679485 0.225509,-0.168885 0.64851,-0.375585 0.792996,-0.501262l-1.45611 0 -1.79499 1.8866 1.18831 1.34917zm2.02234 -1.73916c0,1.25776 2.44015,1.09203 3.80195,1.09203 1.65399,0 2.86137,0.366312 3.43794,1.45591l1.8724 -2.17393 -1.61328 -1.68385 -0.0220971 1.79499c-0.560648,0.000197295 -1.12682,-0.000460356 -1.69319,0.000197295 -0.500407,0.000460356 -0.445756,0.0967405 -0.528094,-0.321394 -0.0387356,-0.196703 -0.142316,-0.430038 -0.23899,-0.569657 -0.453779,-0.655349 -1.24585,-1.00995 -2.34722,-1.00995l-0.202293 0c-0.940836,0 -2.46711,0.40485 -2.46711,1.25388l0 0.161782zm0.184142 4.38364c0.193218,-0.346648 0.405245,-0.541378 0.907887,-0.541378 1.09466,0 1.67964,0.930247 1.77967,0.930247l0.0405113 0c0.860997,0 2.91201,-0.180394 2.91201,-0.889736 0,-0.868297 -2.51249,-0.636146 -3.37329,-0.792798 -0.289038,-0.0526778 -1.66129,-0.0956225 -1.96427,-0.0985161 -0.737884,-0.00664228 -1.17174,-0.189667 -1.75534,-0.309425l1.45282 1.70161zm-4.22876 -3.9388c0.100489,-0.190127 0.988515,-1.09045 1.20363,-1.30406 0.223733,-0.22222 0.970956,-1.20357 1.26354,-1.20357l9.10038 0c0.107986,0 2.26508,2.26041 2.26508,2.38635l0 0.202096c0,0.104435 -3.07005,3.75723 -3.40801,4.15543 -0.583205,0.686982 -1.13741,1.40099 -1.73942,2.06253 -0.268716,0.295285 -1.50438,1.97072 -1.76888,1.99262l-6.91632 -8.2914zm11.7698 -2.79094l-9.54521 0 -2.21576 2.30513 -0.0493238 -1.65794 0 -0.121534 -5.13665 1.05198c0.140343,0.292392 -0.13324,0.492252 0.127519,0.457922 0.311595,-0.0407086 0.294562,-0.0790497 0.600435,-0.0535328 0.0330141,0.141198 0.0810226,0.136068 0.0810226,0.283053l0 5.4199c0,0.330864 -0.162243,0.411887 -0.41169,0.478047 -0.375782,0.0996341 -0.397287,-0.00309096 -0.397287,0.330667l0.0099963 0.0405113 -0.00598462 0.223338 5.29442 -1.03231c0,-0.344609 0.0249907,-1.20403 0.0723416,-1.50503 0.0291997,-0.186313 0.00907558,-0.554663 0.00841793,-0.759784 -0.00177566,-0.544272 0.151589,-0.444901 -0.202096,-0.444901l-0.161782 0c-0.0154548,0.693427 -0.521452,1.73501 -0.899009,2.09403 -0.22952,0.218209 -1.93218,1.15595 -1.93218,0.251815l0 -2.50762c0.126335,-0.0105882 0.143631,-0.0405113 0.283053,-0.0405113l0.202293 0c0.551769,0 0.660413,0.709605 0.768202,1.17147l0.364339 -0.0389329 0.000197295 -3.31502 -0.364273 0.0389329c-0.0668831,0.802729 -0.417411,1.63959 -1.25381,1.6582l0 -2.26508c0,-0.503498 0.479559,-0.606683 0.970693,-0.606683l0.32363 0c0.830876,0 1.27084,0.972337 1.3328,1.731l0.325406 -0.0726047c0.244975,0.463052 1.32793,1.59579 1.73166,2.1106 0.560845,0.715787 1.22678,1.386 1.77086,2.11191 0.321789,0.42938 3.43057,4.15149 3.56006,4.1774l6.8105 -8.11679c0,1.33944 -0.135476,2.81659 0.349936,3.69462 0.430433,0.778198 1.48399,1.42802 2.6796,1.27617 2.48704,-0.315607 0.299429,-6.30562 1.824,-6.30562l0.121271 0 -0.00374861 -0.508627 -1.93751 -0.42162 0 0.525858c0.472983,0.0106539 0.768399,0.429183 0.768399,0.930247l0 3.7615c0,1.01081 -0.587348,1.58494 -1.56212,1.19804 -0.745447,-0.29568 -0.986016,-1.06855 -0.986016,-2.08778l0 -3.7615c0,-0.144091 0.0520202,-0.389724 0.204924,-0.379991l0.52303 0.0969378 -0.00223601 -0.515467 -2.70748 -0.576826 0 0.525924c0.415438,0 0.457265,0.0885198 0.701385,0.242081l0.0141395 1.10446 -2.05036 -2.19603zm-1.29432 9.42414l0.00289366 0.154088 0.118377 0.0480085c0.115549,-0.0610958 0.323564,-0.147182 0.323564,-0.323564l0 -0.040314c0,-0.0931892 -0.0280817,-0.121468 -0.121271,-0.121468l-0.0405113 0c-0.0977927,0 -0.283053,0.185195 -0.283053,0.28325zm-6.6332 0.363878c0,0.0947675 0.0672777,0.161782 0.161782,0.161782 0.131201,0 0.242805,-0.175724 0.242805,-0.323564l0 -0.0402482c0,-0.0934522 -0.0281475,-0.121534 -0.121337,-0.121534 -0.11818,0 -0.28325,0.201636 -0.28325,0.323564zm5.06865 -2.05167l-1.70647 0.227481 -0.490476 -0.0363023 -1.57764 -0.160006 1.84103 2.2053 0.0413662 0.00157836 1.89219 -2.23805zm-19.0631 1.52601l0 0.566172c0.18526,0.291734 0.0845739,1.05152 0.849488,1.05152l0.202293 0c0.768399,0 1.51516,-0.700267 1.91067,-1.12254 0.50889,-0.543154 0.738411,-1.23395 0.896641,-2.13697 0.109302,-0.623914 0.0238727,-2.26725 0.0238727,-3.00961 0,-1.1697 -0.213802,-2.03596 0.768465,-2.26482l0 -0.525924c-0.320013,0.169345 -2.79074,1.31872 -2.79074,1.49642l0.00355132 0.412808 0.59695 -0.232611 0.0869415 0.0220971c0.0212421,0.0907558 0.0405113,0.0929919 0.0405113,0.202293l0 4.04455c0,0.600698 -0.119035,1.30892 -0.323762,1.69852 -0.17533,0.333758 -0.689481,0.849619 -1.17285,0.849619 -0.225772,0 -0.444835,-0.125677 -0.444835,-0.364076l0 -0.0807595c0,-0.387751 1.0112,-0.294167 1.0112,-1.45611l0 -0.242607c0,-0.271544 -0.137646,-0.647129 -0.364076,-0.647129 -0.406823,0 -0.733675,0.336389 -0.898614,0.597805 -0.231954,0.367364 -0.314489,1.01344 -0.395709,1.14135zm33.4087 0.32363l0 -0.404653c-0.0241358,-0.0378149 -0.121534,-0.7465 -0.144946,-0.865995 -0.0591228,-0.299692 -0.153167,-0.557359 -0.25918,-0.792601 -0.208738,-0.462592 -0.536512,-0.879542 -0.880003,-1.2231 -0.511258,-0.511258 -1.78993,-1.52292 -1.78993,-2.41667l0 -0.121271c0,-0.307189 0.10404,-0.606683 0.404587,-0.606683 0.714472,0 1.24059,0.946426 1.49642,1.45591 0.166254,0.330667 0.282658,0.708685 0.409717,1.08697 0.196506,0.584323 0.035842,0.65114 0.528488,0.975625l-0.0887171 -2.66921c-0.0247934,-0.0166386 -0.23682,-0.161848 -0.242607,-0.161848 -0.0601751,0 -0.292129,0.194599 -0.364076,0.242805 -0.0845739,-0.0619507 -0.611089,-0.763796 -0.818052,-0.961683 -0.22952,-0.219064 -0.775042,-0.575445 -1.20422,-0.575445 -0.654494,0 -0.930247,0.701845 -0.930247,1.37535l0 0.161782c0,2.8306 3.11431,3.70994 3.11431,5.37919l0 0.202293c0,0.283974 -0.158231,0.647129 -0.444835,0.647129 -0.712236,0 -1.26157,-0.943927 -1.56126,-1.43177 -0.204727,-0.332837 -0.733478,-1.80532 -0.748999,-2.28054l-0.334876 -0.171121 0.0599778 2.90675 0.275819 0.163295 0.408336 -0.359604c0.15514,0.581166 1.39547,1.77967 2.18406,1.77967l0.121271 0c0.76031,0 0.651601,-1.0867 0.808977,-1.33457zm-13.7921 1.57738c0,0.0566895 0.0551112,0.0807595 0.121337,0.0807595 0.168424,0 0.326195,-0.470286 0.405047,-0.606223 0.0444572,-0.0767479 0.444178,-0.603987 0.444178,-0.607078 0,-0.108249 -0.0582021,-0.119758 -0.121271,-0.161782 -0.272004,0.143828 -0.849291,0.906769 -0.849291,1.29432zm-7.83105 -0.426289l-0.136989 -0.180591c-0.289695,0.153364 -0.566172,0.854091 -0.566172,1.29432l0 0.161782 0.121337 0c0.0869415,0 0.459895,-0.74012 0.488898,-0.856722l0.279502 0.128768c0.249052,-0.119495 0.517506,-0.150273 0.525924,-0.525858l-0.0205845 -0.0374203 -0.424316 0.239714c0.0343294,-0.129031 0.242607,-0.335534 0.242607,-0.364076 0,-0.108249 -0.0584652,-0.119561 -0.132846,-0.175527l-0.37736 0.315607zm8.43773 0.345267l0 0.0405113c0,0.0661597 0.0241358,0.121271 0.0808253,0.121271 0.22906,0 0.385515,-0.404587 0.566369,-0.525858 -0.0316988,0.135476 -0.121534,0.314949 -0.121534,0.445098 0,0.163755 0.0436023,0.363878 0.202293,0.363878l0.0405113 0c0.213342,0 0.0807595,-0.196769 0.0807595,-0.363878 0,-0.509482 0.566435,-0.738542 0.566435,-0.930445l-0.0126269 -0.198545 -0.513297 0.198545c-0.00289366,-0.129491 0.0132846,-0.202096 -0.121271,-0.202096 -0.160467,0 -0.768465,0.855012 -0.768465,1.05152zm-5.94556 -0.485346l0 0.0810226c0,0.165991 0.202293,0.413662 0.280225,0.563278l-0.118443 0.124165c-0.30344,-0.160467 -0.161782,-0.191048 -0.161782,-0.52566 -0.202293,0.00440626 -0.28325,0.0787866 -0.28325,0.283053l0 0.121271c0,0.230178 0.186115,0.40439 0.404587,0.40439 0.186773,0 0.444835,-0.205582 0.444835,-0.363878 0,-0.319158 -0.283053,-0.440232 -0.283053,-0.647129 0,-0.157179 0.23682,-0.309688 0.404324,-0.32363 -0.0238727,0.286867 -0.158691,0.0872045 -0.366049,0.324748l0.0829956 0.160664c0.284434,-0.0236754 0.606683,-0.230638 0.606683,-0.525858 0,-0.480743 -1.01107,-0.146985 -1.01107,0.323564zm9.07558 -0.550454l-0.37223 0.0679354 -0.0599778 0.134161 0.173949 0.10575c-0.118443,0.223338 -0.445098,0.661334 -0.445098,0.970561 0,0.173291 0.124822,0.323564 0.283316,0.323564 0.187694,0 0.727954,-0.446611 0.727954,-0.606683l0 -0.0402482c0,-0.393999 -0.393341,0.299034 -0.687706,0.323367 0.00795758,-0.358551 0.385318,-0.745447 0.525858,-1.01212l0.619507 -0.0347897 0.0693164 -0.257142 -0.365194 -0.0305808c0.0648444,-0.0969378 0.202293,-0.187694 0.202293,-0.323564 0,-0.0555715 -0.0845739,-0.0964774 -0.146064,-0.146064l-0.525924 0.525858zm-9.96552 1.56172c0,0.0566238 0.0551112,0.0807595 0.121271,0.0807595l0.0405113 0c0.168622,0 0.234584,-0.562818 0.277989,-0.69277 0.0838505,-0.25188 0.247869,-0.462592 0.247869,-0.722824l-0.121271 0c-0.225969,0 -0.566369,1.02784 -0.566369,1.33483zm12.0126 -0.242805c0.12331,-0.183945 0.172633,-0.181972 0.364076,-0.283119 -0.0400509,0.150076 -0.211106,0.247474 -0.364076,0.283119zm-1.86049 0.283053c0,0.0345267 0.0868099,0.121534 0.121337,0.121534 0.171055,0 0.466735,-0.647655 0.768399,-0.728217 -0.0736569,0.139225 -0.283053,0.380911 -0.283053,0.566435 0,0.0945045 0.0526778,0.20203 0.161782,0.20203l0.0808253 0c0.20203,0 0.395906,-0.196112 0.525858,-0.283053 -0.0132846,0.160664 -0.0405113,0.0973981 -0.0405113,0.202293 0,0.189667 0.167964,0.323564 0.364076,0.323564l0.202293 0c0.278647,0 0.76202,-0.28154 0.768465,-0.566369 -0.297258,-0.0628714 -0.778198,0.602474 -1.01127,0.161782 0.332443,-0.0276871 0.930247,-0.369863 0.930247,-0.646931 0,-0.0927288 -0.0137449,-0.0471536 -0.0405113,-0.161782 -0.0904928,-0.0212421 -0.0929261,-0.0405113 -0.20203,-0.0405113l-0.0810226 0c-0.205647,0 -0.520333,0.235044 -0.607801,0.366312l-0.155798 -0.0774713 -0.530724 0.398602c0.070566,-0.302783 0.566369,-0.600896 0.566369,-0.768465 0,-0.0781289 -0.0721443,-0.161782 -0.121271,-0.161782 -0.223338,0 -0.270492,0.0807595 -0.445098,0.121534 0.112656,-0.21275 0.930445,-1.07855 0.930445,-1.17305 0,-0.108249 -0.0583994,-0.119561 -0.121534,-0.161782 -0.295877,0.156652 -1.77947,2.01254 -1.77947,2.30533zm-13.2259 -0.242542c0.0167701,-0.201899 0.112195,-0.276674 0.242542,-0.364141 -0.0314357,0.135016 -0.150273,0.296403 -0.242542,0.364141zm0.808911 -0.161848c-0.347897,0.00776028 -0.411426,0.566172 -0.728151,0.566172 -0.0925315,0 -0.0468905,-0.0136791 -0.161782,-0.0402482l0 -0.0810226c0.246751,-0.0575445 0.606683,-0.466538 0.606683,-0.768465 0,-0.109104 -0.0192692,-0.111538 -0.0432077,-0.19473l-0.118377 -0.0478112c-0.415701,0.0966747 -0.988055,0.793851 -0.683234,1.28965 0.28108,0.457067 1.12807,-0.243923 1.12807,-0.723548zm-1.82018 0.687706l0.161782 -0.849488 -0.161782 0c-0.158034,0 -0.373414,0.69323 -0.606683,0.849488 0.0274898,-0.329549 0.323564,-0.61155 0.323564,-0.768465 0,-0.0568868 -0.0551112,-0.0810226 -0.121271,-0.0810226l-0.0405113 0c-0.19164,0 -0.485346,0.752945 -0.485346,1.01127 0,0.146985 0.0480085,0.141855 0.0810226,0.283053l0.121271 0c0.291471,0 0.237938,-0.225509 0.444835,-0.364076 0.00335402,0.144749 0.0177566,0.283119 0.161848,0.283119l0.0807595 0c0.312713,0 0.647194,-0.95925 0.647194,-1.37515 0,-0.126401 -0.0726047,-0.114629 -0.161848,-0.161782 -0.270886,0.257207 -0.0814172,0.754918 -0.444835,1.17305zm-1.61789 0.404324c-0.135739,-0.283053 0.148037,-0.772214 0.323564,-0.889736 -0.00532697,0.245501 -0.161782,0.438719 -0.161782,0.444901 0,0.0214394 0.0583994,0.0887171 0.0809568,0.121271l-0.242739 0.323564zm-0.0808253 0.32363l0.0405113 0c0.3915,0 0.647194,-0.802795 0.647194,-1.21337 0,-0.140935 -0.0580048,-0.323564 -0.202293,-0.323564l-0.0405113 0c-0.558872,0 -0.93781,1.53693 -0.444901,1.53693zm19.4951 -0.0808253c0,0.0491265 0.0836532,0.121337 0.161782,0.121337 0.10871,0 0.701648,-0.762283 0.808977,-0.889999 0.196309,-0.233466 0.635225,-0.638316 0.889736,-0.808713 -0.0949648,0.407875 -0.727954,1.27663 -0.727954,1.81998l0 0.0405113c0,0.0781289 0.0721443,0.161782 0.121271,0.161782 0.247934,0 1.02258,-1.01278 1.18923,-1.2377 0.307189,-0.414978 1.02515,-0.82818 1.23763,-1.22968 -0.032488,-0.0225574 -0.100029,-0.0807595 -0.121468,-0.0807595 -0.449965,0 -1.57231,1.49839 -1.90081,1.73916 0.0385384,-0.463447 0.930247,-1.70003 0.930247,-1.77967l0 -0.121337c-0.0475482,-0.0125611 -0.11042,-0.0404455 -0.121468,-0.0404455 -0.361905,0 -2.46718,1.94763 -2.46718,2.30553zm-20.5063 -1.98196c0.16073,-0.107329 0.302125,-0.242607 0.566435,-0.242607 0.131662,0 0.155798,0.114694 0.202293,0.202096 -0.102265,0.438653 -0.455752,1.05178 -0.970759,1.05178l0.20203 -1.01127zm0.0405113 -0.40439c-0.0907558,-0.0212421 -0.0929261,-0.0405113 -0.20203,-0.0405113 -0.0931892,0 -0.119101,0.171778 -0.121534,0.283119 -0.120416,0.0320934 -0.323564,0.263389 -0.323564,0.364076l0 0.0405113c0,0.171713 0.145144,0.141855 0.242805,0.121271 -0.0101936,0.121731 -0.0610958,0.3258 -0.0958855,0.470352 -0.0741173,0.306268 -0.227745,0.150668 -0.227745,0.338625l0 0.0402482c0,0.0907558 0.0320934,0.0889802 0.0808253,0.161782 -0.0274898,0.330272 -0.161782,0.591163 -0.161782,1.01127l0 0.121271c0,0.126598 0.0725389,0.114694 0.166649,0.167767l0.0971351 -0.0902955 0.221563 -1.21001c0.605565,-0.0134818 1.29432,-0.720654 1.29432,-1.33457 0,-0.62148 -0.518558,-0.684154 -0.970759,-0.444901zm-2.95252 2.83125c0.0365654,-0.157179 0.0967405,-0.351712 0.242607,-0.404587 -0.0894405,0.186773 -0.0657651,0.286144 -0.242607,0.404587zm-1.25381 1.25381l0.273122 -1.02252 0.0504418 0.0112458c0,0.207883 -0.0973324,0.728217 0.202293,0.728217 0.207883,0 0.387356,-0.321591 0.40439,-0.525924 0.06662,0.0766163 0.169082,0.283119 0.323564,0.283119 0.33823,0 0.808977,-0.527436 0.808977,-0.849225l-0.00197295 -0.115352 -0.0790497 -0.0464959c-0.223996,0.149879 -0.301862,0.687508 -0.647129,0.687508 -0.0735254,0 -0.0648444,-0.0615561 -0.0808253,-0.121337 0.220905,-0.0588598 0.485412,-0.486662 0.485412,-0.768465 0,-0.141592 -0.0889802,-0.283053 -0.202293,-0.283053 -0.445756,0 -0.360327,0.682773 -0.710263,0.773989l-0.179473 0.560648 -0.0810226 0c0.00729993,-0.320079 0.161782,-0.623716 0.161782,-0.889736 0,-0.0507049 -0.0748407,-0.0810226 -0.147643,-0.148103l-0.378018 0.390645c0,-0.46588 0.242607,-1.05487 0.242607,-1.41559 0,-0.0343294 -0.0870072,-0.121271 -0.121337,-0.121271 -0.264902,0 -0.328628,1.05461 -0.380648,1.35871 -0.0641867,0.37736 -0.260759,1.34476 0.0570841,1.51299zm27.2203 -1.33483c0.0232808,-0.28062 0.430038,-0.647129 0.687443,-0.647129 0.00559003,0 0.0801677,0.0397879 0.0810226,0.0404455l-0.768465 0.606683zm-0.323564 0.0405113l0 0.0807595c0,0.124428 0.118443,0.161848 0.242607,0.161848l0.0404455 0c0.146985,0 0.141921,-0.0478112 0.283119,-0.0808253 0,0.364339 0.217354,0.364996 0.451477,0.49337l0.559793 -0.412544c-0.0624768,0.0854289 -0.242805,0.196506 -0.242805,0.323564l0 0.121271c0.293049,0.0622138 0.395906,-0.245698 0.68764,-0.323367 -0.035842,0.134555 -0.161782,0.246159 -0.161782,0.40439 0,0.0827325 0.0799046,0.283053 0.161782,0.283053 0.0781289,0 0.161782,-0.071947 0.161782,-0.121271 0,-0.307452 -0.0486662,-0.320736 0.23419,-0.534276 0.119956,-0.0905585 0.534276,-0.199466 0.534276,-0.35546l0 -0.121271c-0.0907558,-0.0212421 -0.0929261,-0.0405113 -0.202293,-0.0405113 -0.146525,0 -0.225772,0.033869 -0.323564,0.0807595 0,-0.101344 0.0196638,-0.242542 -0.0808253,-0.242542 -0.173949,0 -0.219327,0.0470878 -0.363418,0.0809568l0.117785 -0.275753 -0.118443 -0.0480085c-0.206502,0.109302 -0.393078,0.207555 -0.556439,0.374006 -0.0893748,0.0912162 -0.424711,0.428262 -0.49508,0.475416 -0.0225574,-0.032488 -0.0810226,-0.0998314 -0.0810226,-0.121271 0,-0.341058 0.566369,-0.591623 0.566369,-0.930247 0,-0.15468 -0.119692,-0.242805 -0.283053,-0.242805l-0.0810226 0c-0.437338,0 -1.05152,0.538287 -1.05152,0.970759zm3.43392 0.355658c-0.0343294,0.152312 -0.356776,0.254116 -0.36013,0.251025l-0.0453779 -0.0505076 0.405508 -0.200518zm-0.966747 0.49383l0 0.121271c0,0.185918 0.239451,0.283053 0.444835,0.283053l0.121534 0c0.318895,0 0.743672,-0.106474 0.768465,-0.404324 -0.3185,-0.0743803 -0.380714,0.161782 -0.768465,0.161782 -0.165597,0 -0.229323,-0.041169 -0.242805,-0.202293l0.242805 0c0.255169,0 0.768465,-0.22735 0.768465,-0.444901l0 -0.0810226c0,-0.0947017 -0.0672777,-0.161782 -0.161848,-0.161782l-0.202293 0c-0.378215,0 -0.970693,0.362103 -0.970693,0.728217zm-30.739 1.17279l0.0807595 0 0.121271 -0.121271c-0.257865,-0.537827 0.202293,-2.34808 0.202293,-2.91228 0.129689,-0.0105882 0.970759,-0.381569 0.970759,-0.52566 0,-0.113511 -0.0484689,-0.0984504 -0.121271,-0.161782 -0.610234,0.292852 -1.77283,0.705594 -2.06055,1.25296l0.0382753 0.122192c0.108447,0.0258457 0.0760902,0.0405113 0.161782,0.0405113 0.00486662,0 0.510403,-0.403732 0.650943,-0.44957l-0.206108 1.94592 0 0.525924c0,0.168622 0.074183,0.206897 0.161848,0.283053z"/>
 </g>
</svg>
