<?xml version="1.0" encoding="UTF-8"?>
<!DOCTYPE svg PUBLIC "-//W3C//DTD SVG 1.1//EN" "http://www.w3.org/Graphics/SVG/1.1/DTD/svg11.dtd">
<!-- Creator: CorelDRAW -->
<svg xmlns="http://www.w3.org/2000/svg" xml:space="preserve" width="5548in" height="7180in" style="shape-rendering:geometricPrecision; text-rendering:geometricPrecision; image-rendering:optimizeQuality; fill-rule:evenodd; clip-rule:evenodd"
viewBox="0 0 64.5202 46.5646"
 xmlns:xlink="http://www.w3.org/1999/xlink">
 <defs>
  <style type="text/css">
   <![CDATA[
    .fil0 {fill:black}
   ]]>
  </style>
 </defs>
 <g id="Layer_x0020_1">
  <metadata id="CorelCorpID_0Corel-Layer"/>
  <path class="fil0" d="M32.0805 1.07741c0.960182,0.460659 1.52638,0.321077 1.84479,1.62672 0.204483,0.838635 0.431828,2.20054 0.432463,3.15844 0.00101607,1.30539 0.116848,2.15685 0.116848,3.47431 0,0.817933 -0.29885,3.05633 0.359052,3.2321l0.0670603 -2.04013 -0.579919 -7.64424 0.153807 -0.0116848c0.0377214,0.452657 0.284498,0.901504 0.409347,1.62558 0.166381,0.965262 -0.062488,1.10027 0.682288,1.48892l-0.133994 1.07512 0 0.359052c0,0.331237 0.092335,0.287928 0.359052,0.359179 0.0541055,-0.650028 0.321712,-1.56372 0.364641,-2.27802 0.0283228,-0.470692 -0.121674,-1.73773 -0.122309,-2.51311 -0.00215914,-3.09201 -0.839778,-2.032 -2.87572,-2.032 0.293262,-0.400203 1.10065,-0.598463 1.79551,-0.598463l1.07728 0c1.13774,0 1.89966,0.184289 2.50879,0.682288l-1.87883 0.274846 -0.15114 11.1329 1.43646 0c0.625134,0 0.359179,-2.32692 0.359179,-2.99257 0,-1.08973 -0.046612,-2.2798 -0.0045723,-3.35619 0.0838254,-2.14974 0.124849,-4.30431 1.91973,-4.78364 -0.576617,-0.861116 -2.61472,-1.31682 -4.06985,-1.31682l-0.838 0c-1.0642,0 -3.02203,0.291484 -3.23198,1.07741zm1.19705 11.9703c1.08859,0 4.32184,-0.102115 5.33892,-0.287166 1.53909,-0.280053 4.01054,-0.531783 4.35702,0.765986l-7.18168 0.149489 -0.000508033 -0.149489 3.47952 -0.227218 -0.00812852 -0.131835 -5.98513 0 0 -0.119769zm16.8781 0.119769c0.699942,0 2.3941,0.015622 2.3941,-0.598463l0.0266717 -0.123706 -0.160665 -1.07131c0.668825,0.477424 0.550073,2.61357 0.0143519,3.22995l-0.197752 -1.08706 -7.34361 0.00965262 -0.942528 -0.971359 7.29027 -0.415317 -2.05715 0.597955 -1.07678 0.174382 0.0181622 0.135518c0.37442,0.031244 0.42535,0.119769 0.838,0.119769l1.19693 0zm-26.6938 0.359052c0.656378,0.895916 11.9065,1.07741 14.2447,1.07741 2.55363,0 5.10738,0 7.66101,0 1.95694,0 6.40744,-0.598971 6.82313,0.957642 0.653711,-0.174636 0.837873,-1.30933 0.837873,-2.15469l0 -0.957642c0,-0.709468 -0.148854,-1.52384 -0.718231,-1.67587 -0.28145,1.20861 -1.22207,1.25903 -2.63504,1.31517 -1.07881,0.0428018 -2.59198,0.247285 -3.70877,0.241443 -2.44529,-0.0125738 -5.27376,0.0593128 -7.6624,0.238013 -4.76751,0.356766 -10.6047,-0.0287039 -14.8423,0.958531zm-3.95021 2.63352c0,-0.55528 0.156093,-0.960563 0.478821,-1.19705l0.0906839 1.08059 6.73245 -0.00330221c0.742998,0 1.3628,0.650282 1.67587,1.07741l-7.30564 0.286658 1.83451 -0.501936 -0.0353083 -0.1439 1.19705 0 0 -0.23941 -1.07335 -0.146186 -1.20099 0.0265447 -2.16905 0.265574 0.164603 1.52651c-0.294024,-0.299612 -0.389661,-0.743379 -0.389661,-1.31326l0 -0.718231zm11.2487 -0.146821l3.834 0.0270527 1.79361 0.139963 0.00190512 0.0995744 -3.35162 0.123071 -0.000127008 0.116213 5.98425 0.152156 0.000889057 0.0872546c-1.81685,0 -3.57617,0.178193 -5.26233,0.243983 -1.53731,0.0600749 -4.20169,0.506255 -4.3118,-0.825426l1.31123 -0.163841zm-11.4881 0.505874c0,0.874324 0.0847145,1.89788 0.59859,2.27446 0.870895,-0.638216 -0.0321331,-1.13075 2.51273,-1.31771 1.29663,-0.0952562 2.46231,-0.125357 3.83196,-0.118245 2.33695,0.0120658 5.29421,-0.240935 7.66063,-0.239918 2.33962,0.000889057 5.24328,-0.251476 7.53997,-0.240681 0.985584,0.0045723 3.05188,0.108465 3.90372,-0.046485 0.662983,-0.120658 1.17216,-0.0242586 1.84479,-0.0704896 0.585127,-0.0402616 1.0736,-0.310535 1.67435,-0.360576l0 -0.23941c-5.04032,-1.17432 -17.0817,-1.19705 -22.983,-1.19705 -1.67638,0 -5.3111,0.550581 -5.74572,-1.07728 -0.551089,0.403759 -0.838,1.66673 -0.838,2.63339zm19.0221 0.837492l-1.78485 0.000508033 0 5.98513 1.56157 -0.717977 0.22328 -5.26767zm-3.10154 8.02057c-0.643297,0.232933 -0.345081,4.80675 0.119642,5.14726l-0.148727 -4.18835 0.0290849 -0.958912zm10.6536 9.33688l0.11164 -2.03581 0.72763 0.478059 -0.00127008 -0.47717 -1.91224 -0.262399 0.0508033 0.519718 0.0836984 -0.251349 0.580682 -0.00596939 -0.333651 2.03874 0.692703 -0.00381025zm-4.06985 -10.0551c0,-2.12675 1.19693,-3.15323 1.19693,-3.35162 0,-0.742998 -2.41824,0.669714 -2.91319,0.917253 -0.705785,0.352956 -2.4383,1.32914 -3.07195,1.47685l0 0.598463c1.39531,0.031117 1.31682,1.89661 1.31682,3.35175l0 3.95021c0,0.378738 -0.294532,0.40795 -0.59859,0.478821l0 -5.14726c0,-0.908363 -0.112402,-1.60754 -0.478821,-2.15469l-0.840286 -0.105036 0.00241316 2.61878c-0.416333,-0.599225 -0.359179,-3.73696 -0.359179,-4.90785 -0.536356,0.772083 -0.478821,6.7087 -0.478821,8.37924 0,0.0793801 0.63212,1.49616 0.718231,1.67587l-0.592366 0.144154c-1.18918,-5.10281 -8.74451,-3.04223 -8.74451,-7.2067 0,-1.08859 0.869371,-2.51375 1.91528,-2.51375l0.359179 0c1.63561,0 2.64139,3.59116 4.06985,3.59116 1.13787,0 1.88417,-3.26805 2.15469,-4.42903 -0.793801,0.211977 -1.10434,0.718231 -2.3941,0.718231 -1.03867,0 -2.50943,-0.838 -4.18962,-0.838 -2.99028,0 -5.98513,2.26989 -5.98513,5.26703 0,4.94278 7.3332,4.08738 8.02006,5.98513 -3.58239,0 -7.33434,-1.9384 -11.3718,-2.27434l0.606083 -1.07297c-0.451514,-0.515145 -1.03575,-1.68019 -1.92278,-1.68019l-0.718231 0c-1.59903,0 -1.35492,2.93224 -2.51375,3.35162l0 -8.61865c1.85305,0 3.13075,0.69156 4.23941,1.50632 0.722042,0.53064 2.26113,2.40211 2.34432,3.40153 0.757731,-0.0629961 0.45253,-0.615609 0.330856,-1.40814 -0.0760779,-0.495586 -0.147584,-1.07106 -0.239156,-1.67625 -0.14517,-0.960817 -0.450879,-2.27078 -0.450879,-3.37956 -0.38928,0.260748 -0.670476,0.718231 -1.31669,0.718231l-9.69606 0 0 0.598463c1.64374,0.136788 1.20328,2.68064 1.19693,4.42916 -0.00596939,1.63929 0.119896,3.54531 0.119896,5.38654l-3.56957 0.711246 -0.0215914 -7.89343c0,-2.37023 0.637835,-2.15381 0.957642,-3.35175l-1.19705 0c-1.55915,0 -4.43475,0.9866 -5.02749,1.79564 1.68248,0.391947 1.79551,2.02781 1.79551,4.06985l0 5.14726c0,0.80447 -0.614212,-0.119642 -0.837873,0.718231 0.428399,0.0998284 0.562392,0.23941 1.07728,0.23941l3.23198 0c3.44802,0 6.83444,-2.15469 10.6536,-2.15469l0.59859 0c4.46599,0 8.01396,2.27434 12.5689,2.27434 4.46053,0 7.77062,-2.27434 11.9703,-2.27434l1.19705 0c1.50797,0 4.45062,0.907093 5.91325,1.26894 1.92697,0.476789 3.8453,1.0054 6.17679,1.0054 1.69353,0 7.26881,-1.01441 7.54137,-2.03493 -0.315615,-0.156474 0.0985584,-0.119642 -0.359179,-0.119642l-0.598463 0c-0.912173,-3.91541 -8.37924,-2.46498 -8.37924,-6.46408 0,-1.15387 0.816663,-2.51375 1.91528,-2.51375l0.359052 0c1.5542,0 2.7388,3.59116 3.95021,3.59116 1.27935,0 1.98704,-3.19553 2.27434,-4.42903 -0.700577,0.163206 -1.11843,0.718231 -2.15457,0.718231 -1.41995,0 -2.6866,-0.838 -4.5488,-0.838 -2.91649,0 -5.86537,2.31015 -5.86537,5.26703 0,4.87991 6.59096,3.91007 7.90042,5.86549 -1.77596,0 -3.6031,0.20715 -5.15717,-0.109862 -1.5481,-0.315869 -2.85172,-0.749983 -4.29948,-1.08719l0 -4.30939c0,-2.09627 -0.75989,-5.17381 -1.43646,-6.58372l-2.55363 2.838c1.47901,1.69073 2.79304,4.61319 2.79304,7.69594 -1.0515,-0.0233695 -1.9671,-0.490633 -3.23198,-0.478821 -1.28227,0.0120658 -2.17159,0.093478 -3.35162,0.119769l0 -6.46408zm2.27434 8.73842c0,-0.28018 -0.198641,-0.478821 -0.478821,-0.478821l-0.119769 0c-0.28018,0 -0.478821,0.198641 -0.478821,0.478821l0 0.119642c0,0.323109 0.318791,0.478821 0.59859,0.478821 0.148981,0 0.478821,-0.182003 0.478821,-0.478821l0 -0.119642zm7.06255 1.91528c-0.204229,0.17743 -0.208039,0.23941 -0.59859,0.23941l-0.119642 0c-0.515145,0 -0.281069,-0.621451 -0.119769,-0.957642l0.287293 0.458119 0.337334 -0.808407 -0.599352 0.284244c0.218962,-0.562646 0.129548,-1.62075 1.05201,-0.293135l0.134375 -0.474122 -1.56042 -0.407188 -0.492919 2.11151 -0.118118 -0.0233695 1.78497 0.405664 0.0668063 -0.428018 -0.0539785 -0.107068zm-28.6092 -0.838c0.352194,0 0.59859,-0.246396 0.59859,-0.598463 0,-0.149108 -0.182003,-0.478821 -0.478821,-0.478821l-0.119769 0c-0.28018,0 -0.478821,0.198641 -0.478821,0.478821l0 0.119642c0,0.280307 0.198641,0.478821 0.478821,0.478821zm-4.64393 -1.07119l0.214898 -0.00609639 0.235219 0.600495 -0.59859 -0.0030482 0.148473 -0.59135zm-0.383565 1.07119c0.151775,-0.209056 0.171969,-0.359052 0.478821,-0.359052l0.478821 0 0.062361 0.594652 0.7811 -0.0684574 -1.14765 -2.04636 -0.91484 2.23001 0.500793 0.00838254 -0.23941 -0.359179zm3.59116 -1.91516c0.105925,0.500158 -0.163714,0.786054 -0.59859,1.07728l-0.324252 -1.0501 -0.748205 -0.172731 0.711881 1.46301 -0.303423 0.859083 0.783768 -0.0219724 0 -0.718231c0,-0.319426 0.744522,-1.13152 0.957642,-1.31669l-0.478821 -0.119642zm19.3406 1.33511l0.765605 -0.15622 0.197371 0.961579 0.638724 -0.134375 -0.695116 -2.0936 -0.57903 0.19229 0.381787 0.948497 -0.773734 0.161808 -0.189496 -0.63466 0.202832 -0.326665 -0.849685 0.241697 0.700958 1.98285 0.60621 -0.102496 -0.406426 -1.04071zm-33.4656 0.939226c0,-0.73741 0.561884,-0.164857 0.718231,0l0 -0.478821 -1.19705 0 -0.717596 0.122944 -0.000635041 0.475519 0.66819 -0.447704 0.0500412 2.00381 0.718231 0 -0.283736 -1.4291 0.0443259 -0.24665zm21.78 -0.580554c-0.0535975,0.69918 -0.180606,1.62621 -0.592493,2.01702l1.78993 0.272306 0.139963 -0.507144c-0.230647,0.14009 -0.225059,0.234838 -0.493427,0.234838l-0.598463 0 0 -0.359179c0,-0.323363 0.0571537,-0.330094 0.119642,-0.598463l0.465866 0.489236 0.117991 -0.850828 -0.558582 0.295421 0.124976 -0.886517 0.964119 0.538007 -0.0369594 -0.54296 -1.69391 -0.185559 0.251349 0.0838254zm5.03359 0.341144l0.337715 -0.0814123 0.380517 0.201054 0 0.23941 0 0.119769c0,0.398044 -0.214898,0.350543 -0.598463,0.359052l0 -0.478821c0,-0.457611 0.0367054,-0.0435638 -0.119769,-0.359052zm-1.92227 -0.0140979l-0.0331491 2.05131 0.638724 -0.00228615c-0.305963,-0.637454 -0.0490252,-3.13393 0.478821,-1.67587l0.136788 0 0 -0.359052 0.222264 0 0.233949 2.02438 0.603924 0.0105417 -0.150378 -1.07385 0.964119 0.859337 0.503079 -0.0248936 -0.74249 -0.814377 0.402616 -0.609385c-0.537499,-0.992061 -0.856543,-0.491522 -2.05423,-0.491522l-1.91528 0 -0.00723947 0.464088 0.718485 -0.358417zm-20.6124 -0.579538l0.509303 -0.00495332c0.268368,0 0.262653,0.0947481 0.478821,0.23941 -0.0758239,-0.910776 -0.738553,-0.257573 -1.55623,-0.23941l0.485425 2.12701 -0.120277 0.0520734 1.66393 -0.407823 0.00584238 -0.574204c-0.345081,0.253 -0.296564,0.59859 -0.718104,0.59859l-0.359179 0 -0.145424 -0.833174 0.503588 0.236108 -0.129167 -0.837492 -0.483012 0.479329 -0.135518 -0.83546zm4.0348 1.15781l0.406807 -1.2871 0.799517 1.11805 0.535975 -2.31028c-0.423064,0.112656 -0.313837,0.724582 -0.47971,1.43634l-0.674414 -1.15692 -0.283228 -0.0401346c-0.231028,0 -0.21312,0.0377214 -0.359052,0.119769 0.165111,0.246523 0.359052,0.310662 0.359052,0.598463 0,0.450752 -0.0787451,0.226329 -0.119642,0.718231l-0.808661 -1.26678c-0.225186,0.106433 0.188988,0.0697275 -0.268749,0.0697275l-0.373277 0.00901758 1.26538 1.99162zm33.4752 0.110497l0.127262 -0.0562646 -0.174382 -0.0506763 0.403886 -2.02603 -0.723312 -0.128405 0.0189242 0.989648c-0.339366,-0.157998 0.0746808,-0.121166 -0.38293,-0.121166l-0.359179 0 0.193433 -0.969708 -0.666412 -0.136407 -0.312059 2.1933 0.665396 -0.00990664 -0.01486 -0.479964 0.01486 -0.477678 0.835968 0.130183 -0.148219 0.822505 -0.237378 0.105417 0.759001 0.215152zm-24.5516 0.0435638l0.714294 0.137804 0.342033 -1.93815 0.123452 -0.0908109 0.517431 0.554518 0.113037 -0.454308 -1.92024 -0.519464 -0.129421 0.514764c0.272814,-0.0284498 1.01734,-0.864926 0.67416,0.42751 -0.158633,0.597066 -0.187972,0.901758 -0.434749,1.36813zm14.3444 0.378992l0.729027 -0.291357c-0.229631,-0.194577 -1.43773,-2.52911 0.00914459,-1.76351l-0.0986854 -0.484282c-0.693846,0.328316 -1.75729,0.251603 -1.81647,0.963103l0.23941 0 0.429288 -0.43259 0.388645 1.88899 0.119642 0.119642zm21.3327 -1.19604l0.454816 0.358544 0.0185432 -0.499142 -1.67448 0.133994 0.255413 0.330348 0.0839524 1.80428 1.21204 -0.141106 0.362481 0.0270527 0 -0.598463c-0.225567,0.259478 -0.338477,0.478821 -0.837873,0.478821 -0.167778,0 -0.239537,-0.163206 -0.239537,-0.359052l0 -0.478821 0.477932 0.240808 0.000889057 -0.839397 -0.436654 0.512859c-0.198514,-0.349527 -0.161808,0.0645202 -0.161808,-0.39309l0.00685844 -0.452657 0.477424 -0.124976zm-3.23744 0.0988124c0.156474,0.315488 0.119642,-0.0985584 0.119642,0.359052l0 1.43646c0,0.231028 -0.0375944,0.21312 -0.119642,0.359179l0.837873 0 -0.185813 -0.947481 0.124468 -0.0911919 0.42878 0.309011 -0.00825553 -0.706801 -0.573188 0.293008 -0.0254016 -0.891598 0.478821 0c0.287801,0 0.35194,0.193942 0.59859,0.359179 -0.062361,-0.748967 -0.81298,-0.478821 -1.67587,-0.478821zm-29.6057 -0.852225l-0.675303 -0.123579c-0.0405156,1.6586 -1.11221,1.95072 0.355115,2.2925l-0.256684 -0.3447 0.241316 -0.737029 0.737537 0.232679 -0.337969 0.977328 0.810947 0.121674 -0.1486 -0.0401346 0.422175 -2.14225 -0.631866 -0.0967803 0.00114307 0.592747c0,0.548167 -0.33454,0.250714 -0.871022,0.227218l0.35321 -0.959674zm9.49551 2.40833c1.3233,0 0.59859,-1.3125 0.59859,-2.3941l-0.478821 0.119769c0.649393,0.61599 0.271925,0.995109 0.598463,1.67587l-0.562519 0.519083c-0.525179,-0.465612 -0.7684,-1.44294 -0.634533,-2.07531l-0.835079 0.249952c0.567092,0.530132 0.309646,1.90474 1.07449,1.90474l0.23941 0zm-27.2924 -1.91528c0.144662,0.216041 0.23941,0.210453 0.23941,0.478821l0 0.478821 -0.714167 0.137804 -0.00393725 -0.975677 -0.718231 0 0.248936 2.14644 -0.129294 0.00812852 0.837873 0 -0.285641 -1.06484 0.884231 -0.0124468 0 0.59859c0,0.231028 -0.0377214,0.212993 -0.119769,0.359052l0.838 0 -0.256811 -0.3447 -0.0698545 -1.80504 -0.750745 -0.00495332zm44.5344 -0.030228l-0.617768 -0.152791 -0.125103 0.0434368 0.156855 0.0527084 -0.486441 2.03302 -0.124722 -0.0501682 1.78129 0.419889 0.13374 -0.638851c-0.250968,0.164095 -0.31498,0.358036 -0.602781,0.358036 -0.323363,0 -0.330094,-0.0572807 -0.625007,-0.126754l0.509938 -1.93853zm1.99949 0.507906l0.288182 -0.0646472 -0.861497 -0.126119 -0.139328 2.11583 0.632628 0.106687 0.0800152 -2.03175zm3.98298 3.1291c-0.446053,0.647615 -1.09151,1.77989 -2.1566,1.77989l-0.59859 0c-1.03601,0 -2.09221,-1.04642 -2.51375,-1.67587l1.07335 0.146313 2.04496 0.0210834 2.15063 -0.271417zm-23.5572 6.09055c-0.203848,-0.205626 -0.265701,-0.20931 -0.265701,-0.59986l0 -5.02749c0,-0.41265 0.0885247,-0.46358 0.119642,-0.837873l0.463961 -0.000762049 -0.317902 6.46599zm-7.44789 -4.31066c-1.24951,0 -2.63352,-1.48587 -2.87293,-2.51375 0.632628,0.30355 4.01943,0.957642 5.02749,0.957642l0.359179 0c-0.17108,0.73398 -1.11577,1.5561 -2.03493,1.5561l-0.478821 0zm-13.7659 -3.23198c0.976947,-0.0812852 1.74954,-0.478821 2.99257,-0.478821l2.15469 0 1.07512 0.134121c-0.425986,1.82333 -4.00774,3.51216 -6.22239,3.69645l0 -3.35175zm29.2062 -0.612815c0.399314,-0.0248936 2.76548,0.326284 2.89642,0.466755 0.341271,0.366292 -1.21636,1.22347 -1.93738,1.22347l-0.718231 0c-0.785165,0 -1.76122,-0.895408 -1.91224,-1.52562l1.67143 -0.164603zm-22.0042 0.496602l1.29942 0.223788 -1.0341 3.82396c0.660824,-0.138058 1.03562,-0.579792 1.9892,-0.579792 2.08255,0 3.62939,1.32216 6.46535,0.599733 1.10929,-0.282466 1.73011,-0.54296 2.54537,-1.16543 1.01797,-0.777163 0.859846,-0.983552 2.12167,-1.589l-0.471073 0.842953c-0.0077475,1.78967 -0.0323871,7.84047 1.06966,8.13475 0.359179,-1.5415 0.805613,-2.52378 0.836222,-4.55032 0.0234965,-1.55585 0.36083,-3.28278 0.36083,-4.9062l1.32495 -0.329459c0.154569,1.92671 2.33378,4.04026 4.66018,4.04026 2.42713,0 4.58652,-2.4162 5.02749,-4.30939l2.98558 0.746173 -0.644059 3.07284c0.605956,-0.136153 0.993458,-0.586905 1.8481,-0.586905 2.78516,0 3.77748,1.54963 7.40674,0.344192 1.11894,-0.371626 1.84327,-0.917888 2.61954,-1.68984 0.354226,-0.352067 0.648504,-0.78834 0.904679,-1.25001 0.534197,-0.962849 0.9645,-0.214009 1.03944,-1.11513l-0.359179 0c-2.11304,0 -3.76744,1.19693 -6.34419,1.19693l-2.51375 0c-3.41119,0 -6.9255,-2.15457 -10.7733,-2.15457l-0.838 0c-4.2328,0 -7.74344,2.27434 -12.2097,2.27434 -4.285,0 -7.82002,-2.27434 -11.8506,-2.27434l-0.718231 0c-2.4237,0 -5.35238,0.906839 -7.39937,1.45869 -2.15088,0.579792 -5.21991,0.875087 -7.92264,0.935415 0.117864,0.441481 0.279037,0.466247 0.837873,0.478694 0,1.2335 0.0276878,4.90785 -0.957642,4.90785l-0.359052 0c-0.37569,0 -1.00806,-1.07741 -2.03505,-1.31669 -0.501936,0.265574 -1.07728,0.833301 -1.07728,1.5561l0 0.718231c0,0.733599 0.95688,1.5561 1.67587,1.5561l0.718231 0c3.17178,0 5.2448,-4.15863 5.50631,-7.30183l3.47152 -0.598082 -0.000127008 1.0769c0,0.75989 -0.563408,1.16911 -1.19705,1.31669l0 0.59859 8.61865 0c1.55115,0 1.84162,0.662221 2.49127,0.714167l0.880294 -4.90036z"/>
 </g>
</svg>
