<?xml version="1.0" encoding="UTF-8"?>
<!DOCTYPE svg PUBLIC "-//W3C//DTD SVG 1.1//EN" "http://www.w3.org/Graphics/SVG/1.1/DTD/svg11.dtd">
<!-- Creator: CorelDRAW -->
<svg xmlns="http://www.w3.org/2000/svg" xml:space="preserve" width="25in" height="39in" style="shape-rendering:geometricPrecision; text-rendering:geometricPrecision; image-rendering:optimizeQuality; fill-rule:evenodd; clip-rule:evenodd"
viewBox="0 0 0.145252 0.181198"
 xmlns:xlink="http://www.w3.org/1999/xlink">
 <defs>
  <style type="text/css">
   <![CDATA[
    .fil0 {fill:black}
   ]]>
  </style>
 </defs>
 <g id="Layer_x0020_1">
  <metadata id="CorelCorpID_0Corel-Layer"/>
  <path class="fil0" d="M0.0737922 0.0268162c-0.000711965,0.00106309 -0.00135359,0.00205698 -0.00203353,0.00321614 -0.000768008,0.00131013 -0.000510671,0.00268431 -0.00116202,0.00408708 -0.000802891,0.0017293 -0.00075028,0.00189686 -0.0018534,0.00339628 -0.000299083,0.000407164 -0.00231718,0.00277867 -0.00261283,0.00277867 -0.000460347,0 -0.00139305,-0.00185969 -0.00161722,-0.00235492 -0.00024304,-0.000537548 -0.000367134,-0.000772583 -0.00061189,-0.00137475 -0.000217879,-0.000535261 -0.000124665,-0.00167212 -0.000295652,-0.0018431 -0.00074113,-0.000742274 -0.00528227,0.00201009 -0.00598737,0.00202553l-0.000149255 -6.9195e-005 0.00170986 -0.0036193 -0.000425464 0c-0.000803463,0 -0.00308919,0.00216792 -0.00365361,0.00273063 -0.000872658,0.000870942 -0.00216335,0.00271062 -0.00216335,0.00436272l0 0.000426036c0,0.00173102 0.000907541,0.00184368 0.00113514,0.00269518l-0.000425464 0c-0.00167784,0 -0.00439817,-0.00315381 -0.00439817,-0.0052491l0 -0.00141878c0,-0.00155546 0.00124837,-0.00498833 0.00246757,-0.00533488 0.00201409,-0.000573004 0.00377142,-0.00142679 0.0057003,-0.0021033 0.0033957,-0.00119118 0.00788023,-0.00334424 0.0122618,-0.00334424 0.00116945,0 0.00365247,0.000362559 0.00411453,0.00099332zm-0.0344883 0.0148958c-2.8593e-006,0.00036885 0.000229316,0.000428323 0.000438616,0.000568429 0.000131528,-0.000564997 0.000630761,-0.00136503 0.00127639,-0.00141878 0.00020587,0.000882952 7.54855e-005,0.00129412 0.000136674,0.00227543 6.86232e-005,0.00108825 0.000619324,0.000800032 0.00146739,0.00108596 0.0010568,0.000355697 0.00293193,0.000862365 0.00400931,0.00109854 0.00167898,0.00036885 0.00669419,0.00186312 0.00700528,0.00314809l-0.00396413 -0.000372281c-0.00127239,-0.000125809 -0.00329563,0.00048265 -0.00429066,0.000674795 -0.000714825,0.000137246 -0.00129297,0.000380287 -0.00196148,0.000450054 -0.000920694,9.55006e-005 -0.00176018,-0.000177277 -0.00178935,0.000646202l0.00250818 0.00149198c0,0.00155946 -0.00156003,0.00184711 -0.00156003,0.00425578 0,0.00274321 0.00243727,0.00357355 0.00269518,0.00453999 -0.00176991,-3.94583e-005 -0.00425349,-0.00189 -0.00508383,-0.00300284 -0.00188428,-0.00252533 -0.00138276,-0.00263456 -0.00215191,-0.00593476 -0.00145481,0.000973877 -0.00656495,0.00851213 -0.00751881,0.00851213l-0.000426036 0c2.23025e-005,-0.00097788 0.00526797,-0.00878205 0.00615436,-0.0104187l-0.000904682 -0.000930988c0.00093785,-7.83448e-005 0.00255393,-0.00114429 0.00255393,-0.00212846 0,-0.000641055 -0.00142507,-0.00232804 -0.00184482,-0.00312121 0.000241897,-0.000456344 0.000632477,-0.000834343 0.000767436,-0.00121863 0.000262484,-0.000747421 0.00025219,-0.000737699 0.000603312,-0.00138333 0.00031967,-0.000588444 0.00140106,-0.00189228 0.00202667,-0.00221538l-0.000146968 0.00339799zm0.0063974 0.0270987l-1.02935e-005 0.000256765 -0.000415742 0.000168699c-0.00263284,-0.000219022 -0.0050581,-0.0004552 -0.00780817,-0.000562138 -0.00192774,-7.49136e-005 -0.00596793,-0.000463778 -0.00765549,-0.000856646l-1.94432e-005 -0.00016927 0.00881522 -0.000965871 0.00099332 0c0.00103106,0 0.00461205,0.00200437 0.0061006,0.00212846zm-0.00439703 0.00168356l0.00226914 1.88714e-005c-0.000159549,0.000439188 -0.00164924,0.001516 -0.00218336,0.00165839 -0.000320241,8.46352e-005 -0.00270089,-0.000458632 -0.00329563,-0.00057815 -0.000922982,-0.000185854 -0.00603655,-0.00115058 -0.00628874,-0.0016441l0.00949859 0.000544982zm-0.0120605 0.00597708c0,0.000786879 0.00174188,0.00277409 0.00198607,0.00368907 -0.00123522,-0.000102935 -0.00221538,-0.00197349 -0.00387206,9.95036e-005 -0.000663929,0.00083034 -0.00144795,0.00313665 -0.002654,0.00316353 6.57639e-005,-0.00296109 0.00193346,-0.00774527 0.00453999,-0.00780303l0 0.000850927zm-0.00340485 -0.00340485l0 0.000283642c-0.000826909,0.000220738 -0.00084864,0.000908113 -0.00103278,0.00181222 -0.00019386,0.000957865 0.000491228,0.00182195 -0.000244184,0.00201867 -0.000201867,-0.000755999 -0.00127696,-0.00175618 -0.00127696,-0.00326303l0 -0.000425464c0,-0.000459775 0.000616465,-0.000851499 0.00113514,-0.000851499l0.000141821 0c0.000568429,0 0.000705103,0.00029222 0.00127696,0.000425464zm0.00879635 0.00198664c-0.00247329,0.00020587 -0.00160578,0.00288275 -0.00212846,0.00397214 -0.000643342,-0.00043061 -0.00127696,-0.00171844 -0.00127696,-0.00283757l0 -0.000425464c0,-0.000770867 0.000654779,-0.00141878 0.00141878,-0.00141878l0.00113514 0c0.000377427,0 0.000760574,0.000369421 0.000851499,0.000709678zm0.00674509 0.0147889c0.00426665,-0.00533259 0.0081816,-0.00745019 0.01405,-0.0114441 0.00600853,-0.00408823 0.0101888,-0.00683201 0.0131568,-0.0140832 0.00139076,-0.00339856 0.00154059,-0.00729407 0.00151543,-0.012104 -2.17307e-005,-0.00420031 0.000851499,-0.00957636 -0.00340428,-0.00993035l0 -0.000283642c0.000918407,-0.000332822 0.00235034,-0.00340543 0.00326303,-0.00340543 0.000963584,0 0.00309433,0.00243098 0.00365018,0.0031601 0.000774298,0.00101734 0.00194718,0.00298168 0.00233833,0.00432955 0.000501521,0.00172702 0.00109626,0.00316696 0.00137361,0.00529485 0.00016927,0.0013027 0.000638767,0.00474472 0.000410595,0.00619667 -0.000296223,0.00188428 -0.000135531,0.00443592 -0.000658211,0.0061515 -0.000538692,0.00176705 -0.000923554,0.00353695 -0.00144337,0.00522451 -0.00103106,0.00334824 -0.00271004,0.00616179 -0.00463893,0.00869684 -0.00396299,0.00520736 -0.00991033,0.00776071 -0.0151165,0.011698 -0.000197863,0.000149827 -0.000410023,0.00031681 -0.000632477,0.000498662l0.0023532 0c0.00184082,-0.000475787 0.00371709,-0.000803463 0.00561166,-0.0010019 0.00162751,-0.000952718 0.00319727,-0.0019712 0.00458288,-0.00318755 0.0062653,-0.00550015 0.0130933,-0.0145407 0.0130933,-0.0262055 0,-0.00434042 -0.00128097,-0.0107041 -0.00255335,-0.0137618 -0.000967015,-0.00232289 -0.00146911,-0.00338598 -0.00269346,-0.00539321 -0.000526683,-0.000863508 -0.00116717,-0.00151486 -0.00188085,-0.00223368 -0.000437473,-0.000440332 -0.00209415,-0.0012924 -0.00209415,-0.00187856 0,-0.00040602 0.000996752,-0.00239724 0.00156061,-0.00269575 0.000836059,0.000401446 0.00229259,0.000519821 0.00328991,0.000966443 0.000779445,0.000349978 0.00208157,0.000951003 0.00263456,0.0014794 0.00197578,0.00188942 0.00223997,0.00197406 0.00382631,0.00440275 0.00177162,0.00271119 0.0030177,0.00889013 0.0030177,0.0134393l0 0.00226971c0,0.0133089 -0.00434442,0.0241599 -0.00894789,0.0334561 0.000502093,0.00010465 0.0010019,0.000219022 0.00149942,0.00034426l0.00129012 0c0.00215648,-0.00391667 0.00468182,-0.00890443 0.00541894,-0.0122652 0.000702244,-0.0032007 0.00161836,-0.00585413 0.00221481,-0.0094191 0.000558135,-0.00333623 0.00107853,-0.00671649 0.00107853,-0.0105548l0 -0.00113514c0,-0.00638882 -0.0015932,-0.0118792 -0.00396814,-0.0158943 -0.00153144,-0.00258767 -0.00248016,-0.00340142 -0.00450797,-0.00542352 -0.000813185,-0.000811469 -0.00493286,-0.00369364 -0.00613663,-0.00379372l0 -0.000425464c0,-0.000485509 0.00170243,-0.00249045 0.00170243,-0.0032636l0 -0.000141821c0,-0.00140906 -0.00290848,-0.00250189 -0.00439989,-0.00255164 -0.00163152,-5.48985e-005 -0.00435071,-0.000853215 -0.00609888,-0.000853215l-0.00340485 0c-0.00188885,0 -0.00909028,0.0003414 -0.0103083,0.000757714 -0.00111284,0.000380287 -0.00543381,0.00385205 -0.00632877,0.00473786 -0.00382231,0.00378571 -0.00747421,0.007015 -0.0110283,0.0111038 9.49287e-005,-0.00114315 0.00685546,-0.0125712 0.00788766,-0.0141032 0.000428895,-0.000637052 0.000691378,-0.001142 0.00105222,-0.00178477 0.000583297,-0.00103907 0.000658782,-0.000595306 0.00170586,-0.000989317 0.000876661,-0.000329963 0.00286959,-0.00126553 0.00379886,-0.00173445 0.00123522,-0.000623899 0.00719228,-0.00181794 0.0091063,-0.00181794l0.00567514 0c0.00358385,0 0.00764805,0.0012072 0.0106703,0.00167212 0.0030177,0.00046435 0.00692465,0.00171901 0.00969931,0.00264371 0.00311549,0.00103907 0.00610346,0.0021805 0.00901709,0.00332594 0.00121406,0.000477503 0.00802605,0.0035747 0.00863508,0.00328248 -0.00117746,-0.00160693 -0.0158216,-0.00849898 -0.018956,-0.00927671 -0.00169213,-0.000419745 -0.00338884,-0.00128497 -0.00536404,-0.0017293 -0.000816044,-0.000184139 -0.00203754,-0.000684516 -0.00277924,-0.000768008 -0.000566713,-6.40483e-005 -0.00219365,-0.000422033 -0.00281012,-0.000594734 -0.00267688,-0.000749708 -0.00910286,-0.00153487 -0.0125106,-0.00153487l-0.00184425 0c-0.00252648,0 -0.0068343,0.000486653 -0.00885296,0.00107796 -0.00129583,0.000380287 -0.00268259,0.000652492 -0.00374625,0.00121921 -0.00213647,0.00113743 -0.00134559,0.000539264 -0.00258138,0.00238466 -0.000695382,0 -0.00113457,0.000363131 -0.00113457,-0.000283642 0,-0.001321 0.00334824,-0.00484194 0.00429238,-0.00563854 0.00144109,-0.00121635 0.00415056,-0.00310463 0.00620582,-0.00358327l0 -0.000283642c-0.00339913,-0.000283071 -0.00728778,0.00256879 -0.00944884,0.00417057 -0.000912116,0.00067651 -0.00257794,0.00276494 -0.00311263,0.00383947 -0.000944141,0.001898 -0.000569572,0.00332365 -0.00247672,0.00433298 -0.000849212,-0.000407736 -0.000597593,-0.000630189 -0.0012741,-0.000854359 -0.000320241,-0.000105794 -0.00112199,-0.000420889 -0.00141936,-0.000566713 -0.000910973,-0.000448338 -0.00192031,-0.000833772 -0.00283986,-0.00127468 -0.000333394,0.00049809 -0.000425464,0.00101391 -0.000425464,0.00184425 0,0.00246243 0.000702244,0.00474872 0.00170243,0.00624242l0.00112027 -0.000463206 1.48684e-005 -0.000671363c0,-0.000810325 -0.000851499,-0.0029874 -0.000851499,-0.00368907l0 -0.000141821c0,-0.000273921 4.46051e-005,-0.000252762 0.000141821,-0.000425464 0.00147425,0.00098703 0.00425635,0.00174989 0.00425635,0.00411396l0 0.000284214c0,0.00108711 -0.00341801,0.00561566 -0.00417115,0.00675309 -0.00067651,0.00102249 -0.00415685,0.00589244 -0.00434156,0.00658268 0.000705103,-0.000164124 0.00145996,-0.000567857 0.00227028,-0.000567857 0.000434613,0 0.000992749,0.000111513 0.000992749,0.000567857 0,2.91648e-005 -0.000738271,0.00096244 -0.000830912,0.00115458 -0.000257337,0.000532973 -0.000369421,0.000814328 -0.000610174,0.00137647 -0.000327104,0.000764577 -0.000657067,0.00206384 -0.00121635,0.00261397 -0.00115973,0.00114086 -0.00225541,0.00306002 -0.00318469,0.00447652 -0.000916119,0.00139591 -0.00522394,0.00865967 -0.00522394,0.0102409 0,0.000419173 0.00189629,0.000424892 0.0024121,0.000424892 0.00108367,0 0.00327847,-7.09106e-005 0.00410881,-0.000288789 0.000838918,-0.000220738 0.00235663,-0.00112942 0.00326818,-0.00112942 0.000264199,0 0.000851499,0.000398586 0.000851499,0.000850927 0,0.000207013 -0.00080575,0.00165267 -0.000968159,0.00186941 -0.000773154,0.00103049 -0.00061818,0.000610746 -0.00161608,0.00122149 -0.00116373,0.000711394 -0.00242011,0.0014245 -0.00351637,0.00215877l0.00016927 0.0029771c0.00129069,0.00197063 0.00184425,0.00213532 0.0043976,0.00281298 0.000849212,0.000224741 0.00565684,0.00148226 0.0059319,0.000452341l-0.00308804 -0.00108425 -0.000201867 -0.000324244 -0.000682801 -1.02935e-005 0 -0.000284214 0.0107979 0.00190086c0.00657467,-0.00307603 0.0119747,-0.00802376 0.0162608,-0.0135737 0.00138676,-0.00179564 0.00434842,-0.0075657 0.00444221,-0.0104542 0.000150971,-0.00465151 -0.000674795,-0.00914118 -0.00511243,-0.0095106l0 -0.000283642 0.0036336 -0.00181394c0.000100647,0.000281927 0.00192374,0.00269575 0.00220738,0.00306688 0.000660498,0.00086408 0.00126781,0.0022394 0.00166068,0.00330478 0.000773726,0.00210044 0.00172015,0.00541265 0.00172015,0.00821076l0 0.00269575c0,0.00500434 -0.00240639,0.0109362 -0.00442334,0.0140197 -0.00220624,0.00337397 -0.00638081,0.00631734 -0.00990118,0.00840062 -0.00380687,0.00225198 -0.00753311,0.00465837 -0.0109551,0.00734668 -0.001142,0.000896676 -0.00286216,0.00269289 -0.00431983,0.00474243l0.00399787 0zm0.0474123 0l0.00310005 0c0.000607887,-0.00317039 0.0014937,-0.00643114 0.00198378,-0.00903367 0.000900679,-0.00478761 0.00162179,-0.00995379 0.00162179,-0.0155449l0 -0.000567285c0,-0.0030137 -0.000278496,-0.00620353 -0.000677082,-0.00882837 -0.00021845,-0.0014388 -0.000442048,-0.00275751 -0.000600453,-0.00408136 -0.000127525,-0.00107052 -0.000850356,-0.00272949 -0.000850356,-0.00383146 -0.000321957,-0.000480934 -0.00175961,-0.00505753 -0.00222453,-0.00614578 -0.000758286,-0.00177334 -0.00189686,-0.00394126 -0.00291134,-0.00545897 -0.00119404,-0.00178763 -0.00613148,-0.0083989 -0.00834172,-0.0083989l-0.000709678 0c9.89317e-005,0.000369993 0.00236979,0.00254363 0.00284843,0.00310977 0.000821191,0.000973305 0.00188485,0.00228058 0.00254764,0.00341172 0.0014428,0.00246186 0.00304401,0.00496317 0.00409223,0.00782476 0.000533545,0.00145596 0.00103278,0.00296795 0.00156232,0.00439589 0.000541551,0.00145939 0.0007011,0.00329563 0.0012112,0.00474758 0.00059645,0.00169671 0.00149999,0.00817302 0.00149999,0.0104176l0 0.0069521c0,0.00100762 -0.000665645,0.00530057 -0.000946428,0.00614692 -0.000518677,0.00156232 -0.00135817,0.00388293 -0.00160464,0.00548928 -0.000255049,0.00166468 -0.000877805,0.00388693 -0.00122435,0.005869 -0.000166411,0.000949859 -0.00029508,0.00224341 -0.000376856,0.00352609zm0.0140986 0l0.00337969 0c-9.72162e-005,-0.00043976 -0.000200723,-0.000896676 -0.000330535,-0.00139648 -0.000613034,-0.00236864 -0.000642199,-0.00648718 -0.000794313,-0.00927843 -0.000340828,-0.00624814 -0.00206899,-0.0116648 -0.00315781,-0.0172719 -0.000503808,-0.00259396 -0.00141307,-0.00574262 -0.00180708,-0.00840805 -0.00026134,-0.00176991 -0.00212903,-0.00703388 -0.00212903,-0.0079437 0,-0.00097159 0.00323387,0.00246071 0.0035095,0.00273292 0.00106766,0.00105737 0.00240581,0.00228858 0.00354896,0.00326074 0.00126495,0.00107681 0.00229201,0.00216049 0.00363932,0.00317096 0.000535833,0.000402017 0.0038063,0.00262484 0.00391495,0.00289475l0.000709678 0c-0.000105794,-0.000292792 -0.00280497,-0.00258652 -0.00334824,-0.00332022 -0.000898392,-0.00121234 -0.00210101,-0.00221253 -0.00303715,-0.00348892 -0.00179106,-0.00244356 -0.0040379,-0.0047939 -0.00590102,-0.0072935 -0.00133129,-0.00178592 -0.00457945,-0.0057632 -0.00648603,-0.00670792 -0.000666789,-0.000330535 -0.00212332,-0.00309776 -0.00275293,-0.00391495 -0.000671363,-0.000871514 -0.00052897,-0.00116602 -0.00174303,-0.00152058 -0.000639339,-0.000186426 -0.00169728,-0.000852071 -0.00241096,-0.000852071l-0.000425464 0c0.000137246,0.000514102 0.00215305,0.00323615 0.00263799,0.0040299 0.00078402,0.00128325 0.00160635,0.00288046 0.00224283,0.0042838 0.00141592,0.00312235 0.00256365,0.00590045 0.00371366,0.00933847 0.00231203,0.00691436 0.00333852,0.0135765 0.00459947,0.0215048 0.000234463,0.00147082 0.000573575,0.00459261 0.000567857,0.00610003 -7.43418e-006,0.00211817 -5.43267e-005,0.00442505 0.000319098,0.00620754 0.000186998,0.000889814 9.66443e-005,0.00199922 0.000370565,0.00289247 0.000143537,0.000467209 0.000508383,0.00226228 0.000573004,0.0026906 6.23327e-005,0.000416886 0.00031052,0.00134101 0.000597022,0.00228973zm0.0123413 0l0.0300198 0 -0.011913 0.0901148 -0.0503957 0 -0.000154402 -0.00102878c-0.00431583,0.00157033 -0.00887298,0.00226971 -0.0134976,0.00226971 -0.0046841,0 -0.00930988,-0.00069481 -0.0136629,-0.0022983l0 0.00105737 -0.0465728 0 0 -0.0470658 -0.00905597 0 0 -0.043049 0.0150937 0c0.000291648,-0.000127525 0.000577578,-0.00026763 0.000841206,-0.000432898 0.000967015,-0.000604456 0.00165954,-0.00101677 0.00261168,-0.0016441 0.000778873,-0.00051353 0.00431297,-0.00338255 0.00431297,-0.00419974l0 -0.000567285c0,-0.00206441 -0.000140106,-0.00374454 -0.000141821,-0.00567514 -2.8593e-006,-0.00346776 0.000379715,-0.00187398 -0.000762861,-0.00462806 -0.000431182,-0.0010385 -0.00158748,-0.00150742 -0.00219651,-0.00347805 -0.000581581,-0.0018797 -0.000173274,-0.00340028 -0.000305945,-0.00479104 -4.28895e-005,-0.000442619 -0.000273349,-0.000714825 -0.000369421,-0.00106023 -0.000114944,-0.000412311 -3.88865e-005,-0.000905826 -8.9782e-005,-0.00133987 -9.14976e-005,-0.000788595 1.37246e-005,-0.00144681 0.000364847,-0.0022497 0.000607315,-0.00139019 0.00115458,-0.00254764 0.00191802,-0.00375655 0.00140563,-0.00222568 0.00309776,-0.00459947 0.00456287,-0.0067874 0,-0.00146625 5.7186e-006,-0.00293307 -1.71558e-006,-0.00439932 -7.43418e-006,-0.00155374 0.000852643,-0.00293993 0.000852643,-0.00354553 0,-0.000494087 -0.00174131,0.000283642 -0.00269518,0.000283642l-0.00198664 0c-0.00147311,0 -0.00301313,-0.000718828 -0.00385662,-0.00139191 -0.000627902,-0.000500949 -0.00230517,-0.00202839 -0.00195976,-0.00286387 0.000527255,0.000352837 0.00110083,0.000850927 0.00198607,0.000850927l0.00141878 0c0.00152343,0 0.00490884,-0.00251046 0.00585298,-0.00336825 0.000973305,-0.000884095 0.00446508,-0.00345746 0.00492943,-0.00415113l-0.00109911 -0.00256822 -0.000705675 -0.00465322c-0.000117803,-0.00162294 0.000701672,-0.00347748 0.00166297,-0.00398643 0.000792598,0.000419745 0.000476931,0.000474644 0.000916691,0.000785735 0.000269918,0.000191001 0.000818331,0.00039344 0.00114486,0.000557563 0.000650776,0.000326532 0.00188027,0.000763433 0.00233662,0.00106881 -3.77427e-005,-0.00166411 -0.00515303,-0.00469783 -0.000710822,-0.00794599 0.00183681,-0.00134273 0.00559393,-0.00349749 0.00835945,-0.00384175 0.00039058,-4.86081e-005 0.00186941,-0.000426036 0.00255507,-0.000566141 0.000721115,-0.000146396 0.00196663,-0.000225313 0.00259624,-0.000383146 0.00176247,-0.000440332 0.00318297,-0.00071654 0.00487568,-0.00122435 0.00208043,-0.000624471 0.00651577,-0.00335053 0.00604627,-0.00618981l-0.000299655 -0.00169957c0.00119462,2.91648e-005 0.0028593,0.00247101 0.00334424,0.0034546 0.00116488,0.00236407 0.000850356,0.00270089 0.00146568,0.00534403l0.00538806 -0.000466066 0.00213132 4.00302e-005c0.0052491,0 0.0101694,0.00193003 0.013875,0.00400073 0.00340886,0.00190544 0.00653293,0.00586099 0.00976165,0.00825708 0.00348148,0.00258366 0.00643685,0.00538749 0.0103667,0.00765091 0.00317782,0.00183052 0.00831484,0.00491914 0.013099,0.00491914l0.000283642 0c0.00243498,0 0.00511815,-0.00134158 0.00553274,-0.00312121l0.000559279 0.000173274c0.000263627,0.0010648 0.000844065,0.00125695 0.000610174,0.00283357 -0.00023675,0.0015932 -0.000268774,0.00160807 -0.000904682,0.00279125 -0.00073484,0.00136732 -0.0025402,0.00256365 -0.00411396,0.00312121 -0.00232232,0.000822906 -0.00366734,0.00075657 -0.00637052,0.000733124 -0.00207013,-1.82995e-005 -0.00465837,-0.00110826 -0.00609545,-0.00114029 9.83599e-005,0.000368278 0.00387092,0.00487053 0.0045034,0.00571174 0.00130441,0.00173559 0.00280726,0.004357 0.00381888,0.00639568 0.000869799,0.00175161 0.00258652,0.00527884 0.00374797,0.00646716 0.00256479,0.00262369 0.00320585,0.00228115 0.00764977,0.00228115 1.94432e-005,0 0.000281355,0.000139534 0.000283642,0.000141821 -0.00144623,0.00216049 -0.00523137,0.00513301 -0.00831084,0.00573404 -0.00232175,0.000452913 -0.00374111,0.000410023 -0.00566885,-0.000550129 -0.00178535,-0.000889242 -0.00232747,-0.00224226 -0.00375426,-0.00319784 0,0.00693437 0.0023715,0.0174452 0.00417229,0.0233513 0.000413455,0.00135702 0.0010202,0.00309319 0.00180021,0.00491571zm-0.0366894 0.0081307l-4.68925e-005 -0.000311664 0.057835 0 -0.00984514 0.0744767 -0.0368095 0 -0.000890386 -0.0059279c-0.00178763,0.00182252 -0.00396356,0.00326017 -0.00631104,0.00438216l-1.20091e-005 5.7186e-006c-0.00413112,0.00196548 -0.00861621,0.00278038 -0.0131716,0.00278038 -0.00492371,0 -0.00980454,-0.000915548 -0.014173,-0.00325789 -0.00291706,-0.00155889 -0.00546012,-0.0036193 -0.00730951,-0.00624814l0 0.00826566 -0.0309342 0 0 -0.0470658 -0.00905597 0 0 -0.027411 0.0490707 0 0 0.000589587c0.00350836,-0.00131585 0.00726662,-0.00182995 0.0110123,-0.00182995 0.00360043,0 0.00722087,0.000436329 0.0106412,0.00155203zm-0.0294725 0.00750738l0 0.0117729 -0.00908056 0 0 0.0470658 -0.0152955 0 0 -0.0470658 -0.00905597 0 0 -0.0117729 0.0334321 0zm0.0359134 0.017802l-0.0142039 0 0 -0.00435471c0,-0.00203411 -0.000186426,-0.0033368 -0.000546126,-0.00389494 -0.0003597,-0.000558135 -0.000967587,-0.000831484 -0.00182309,-0.000831484 -0.000918407,0 -0.00161322,0.000372281 -0.00208443,0.00112885 -0.000471212,0.000744561 -0.000706819,0.00188599 -0.000706819,0.00341172 0,0.00195976 0.000260196,0.00344889 0.000793741,0.00444106 0.000508383,0.000992177 0.00195976,0.00218336 0.00432955,0.00359757 0.00681028,0.00404419 0.0110901,0.0073564 0.012864,0.00994922 0.00177391,0.00259281 0.00265514,0.00677311 0.00265514,0.0125415 0,0.00419345 -0.000496374,0.00728206 -0.00147654,0.00926699 -0.000980168,0.00198493 -0.00287817,0.00365933 -0.00568143,0.0049992 -0.00281584,0.00133987 -0.00607887,0.0020221 -0.00981254,0.0020221 -0.00409394,0 -0.00759201,-0.000781732 -0.0104828,-0.00233204 -0.00290276,-0.00155088 -0.00480076,-0.00352323 -0.00569401,-0.00591761 -0.000893245,-0.00240639 -0.00133987,-0.00580552 -0.00133987,-0.010222l0 -0.00384576 0.0142044 0 0 0.00715797c0,0.00220852 0.000198435,0.00362273 0.000595306,0.00425521 0.000409452,0.000620468 0.00111627,0.000942997 0.00213361,0.000942997 0.00101734,0 0.00177391,-0.000397443 0.00227028,-0.00120376 0.000496374,-0.000793741 0.00074399,-0.00198435 0.00074399,-0.00355983 0,-0.00346147 -0.000471212,-0.00573175 -0.00141364,-0.00679827 -0.000968159,-0.00106709 -0.00336196,-0.002841 -0.00715797,-0.00533431 -0.00380859,-0.00253048 -0.00632706,-0.00435414 -0.00756742,-0.00549557 -0.00122835,-0.00114143 -0.0022577,-0.00271691 -0.00306402,-0.00472642 -0.000818903,-0.00200952 -0.00121577,-0.00457774 -0.00121577,-0.00770352 0,-0.0045034 0.000570716,-0.00780303 0.00172416,-0.00988746 0.00114143,-0.00208386 0.00300226,-0.00370908 0.00556991,-0.00488769 0.00256822,-0.00116602 0.00566942,-0.00176133 0.00930416,-0.00176133 0.00398186,0 0.00736899,0.000645058 0.0101602,0.00192259 0.00280326,0.00129069 0.00465151,0.00290333 0.00556991,0.0048631 0.000905254,0.00194775 0.00135188,0.00525997 0.00135188,0.00993664l0 0.00232004zm0.0424263 -0.017802l-0.00777786 0.0588387 -0.0232227 0 -0.00883295 -0.0588387 0.0161396 0c0.00186083,0.0162014 0.00318812,0.0299094 0.00399444,0.041099 0.000793741,-0.0113137 0.00163723,-0.0213618 0.00250589,-0.0301576l0.00105451 -0.0109414 0.016139 0z"/>
 </g>
</svg>
