<?xml version="1.0" encoding="UTF-8"?>
<!DOCTYPE svg PUBLIC "-//W3C//DTD SVG 1.1//EN" "http://www.w3.org/Graphics/SVG/1.1/DTD/svg11.dtd">
<!-- Creator: CorelDRAW -->
<svg xmlns="http://www.w3.org/2000/svg" xml:space="preserve" width="25in" height="39in" style="shape-rendering:geometricPrecision; text-rendering:geometricPrecision; image-rendering:optimizeQuality; fill-rule:evenodd; clip-rule:evenodd"
viewBox="0 0 0.195867 0.169484"
 xmlns:xlink="http://www.w3.org/1999/xlink">
 <defs>
  <style type="text/css">
   <![CDATA[
    .fil0 {fill:#141516}
   ]]>
  </style>
 </defs>
 <g id="Layer_x0020_1">
  <metadata id="CorelCorpID_0Corel-Layer"/>
  <path class="fil0" d="M0.0457959 0.0528541c-0.00543459,-0.0045716 -0.00658835,-0.0129371 -0.00357525,-0.0194262l0.000338063 -0.000728076c0.00190044,-0.00409552 0.00623943,-0.00649918 0.0105885,-0.00447933 0.00219198,0.00101807 0.00293867,0.00199581 0.00423897,0.0037404 6.66821e-005,3.48918e-005 0.000138017,6.82329e-005 0.00019772,9.61463e-005 0.000441963,0.000205474 0.000898658,0.000335737 0.00138404,0.000390788 0.00594091,0.000666821 0.0166426,-0.00989377 0.0206071,-0.0136776 0.00455144,-0.00434519 0.00914553,-0.00897418 0.0141583,-0.0127774 0.00472435,-0.00358455 0.0105575,-0.00690238 0.0167171,-0.00576801 0.00110336,0.000203148 0.00217415,0.000545088 0.00319221,0.00101807 0.00443049,0.00205784 0.00746142,0.00626037 0.00829417,0.0110297 0.000268279,2.63627e-005 0.000535783,5.50515e-005 0.000804063,8.68419e-005 0.00089168,0.000105451 0.00188183,0.00030007 0.00276808,0.000341164 0.00147166,6.90083e-005 0.00530743,-0.00164457 0.00660463,-0.00219586 0.00279057,-0.00118787 0.00513918,-0.00298441 0.00806699,-0.00403505 0.00486314,-0.00174459 0.00942079,-0.000963014 0.0140149,0.00117159 0.00878498,0.00407924 0.00911064,0.017839 0.0107064,0.0302582l0.000510971 0.00357835c0.00126619,0.00788555 0.00348065,0.0147375 0.00936729,0.0174715 0.0035357,0.00164224 0.00542374,0.00213848 0.00921687,0.00196635 0.00230674,-0.000104675 0.00435295,-0.000103125 0.00664805,0.00030007 0.00460805,-0.00035202 0.00616655,0.00235248 0.0046755,0.00811661 -0.000850585,0.00232457 -0.000276808,0.00447236 -0.00144762,0.00699232l-0.000339614 0.000731177c-0.00116694,0.00251376 -0.00269908,0.00480732 -0.00454524,0.00687291 -0.00624098,0.00698457 -0.0152973,0.0106048 -0.0236272,0.0144126 -0.00550748,0.00251764 -0.0117578,0.00550903 -0.0158424,0.0101101 -0.0115143,0.0129697 -0.0261278,0.0445429 -0.0478987,0.0365527l-0.00231449 -0.00084981 -0.00040552 0.000872296c-0.0119183,0.0256618 -0.0442684,0.0296976 -0.0678468,0.018747 -0.0277436,-0.0128844 -0.038481,-0.0444793 -0.0257145,-0.0719702l0.000679227 -0.0014608c0.00839652,-0.0180802 0.0227898,-0.030214 0.0397782,-0.0374885zm0.0911436 -0.0119501l-0.000738931 0.00192448 0.00657362 0.0008816c-0.000282236,0.00321935 0.00572226,0.0114872 0.00771342,0.0147693 0.00439404,0.00724277 0.00497635,0.00800108 0.0150663,0.0126874 -0.00209816,-0.00359076 -0.0086524,-0.00596418 -0.0126549,-0.0129627 -0.00197488,-0.00345429 -0.0053873,-0.0120935 -0.0083593,-0.0147236l0.00328526 -0.00135458 -0.0108855 -0.00122199zm-0.0262379 0.00301155c-0.000769171,-0.000357447 -0.0155424,-0.0118648 -0.0174715,-0.0132651l-0.00963014 0.007563 0.000168256 0.000925021 0.00736062 0.00101729c0.000484609,0.00309374 0.0024277,0.00556873 0.00634101,0.00738621 0.00319764,0.00148484 0.0093797,-8.52911e-005 0.0104644,0.000418702 0.00226021,0.00104908 0.00558347,0.00703419 0.00926339,0.00874311 0.00454679,0.00211134 0.0139978,0.000107777 0.0180073,-0.000520276 0.000457471,0.00292471 0.00200279,0.00714817 0.00566178,0.00884779l0.00146158 0.000678452c0.0029627,0.00137629 0.00409785,0.00108165 0.00574164,-0.000886252 -0.00485927,-0.00405753 -0.00341707,-0.0149112 -0.0124463,-0.0191044l-0.00292316 -0.00135768c-0.00424129,-0.00196945 -0.0157913,0.002437 -0.0219989,-0.00044584zm0.0117647 0.0454361c0.00348143,-0.00445297 0.0125549,-0.00672172 0.0179515,-0.00730402 0.0065364,-0.00070559 0.00398387,0.00130263 0.00913856,-0.0032085 0.00259828,-0.00227417 0.00700163,-0.00407924 0.00519345,-0.00736062 -0.0065302,0.00537489 -0.00815228,0.00831666 -0.0172738,0.00915872 -0.00433511,0.000400093 -0.0176723,0.00396061 -0.0150097,0.00871443zm-0.00602078 -0.0711925l-0.00456307 -0.00740637 0.00406761 0.00273474c-0.000377607,-0.00241141 -0.00186012,-0.00530511 -0.00487943,-0.00670776 -0.0144421,-0.00670698 -0.038395,0.0390176 -0.0560587,0.0308141 -0.00316042,-0.00146778 -0.00226642,-0.00282856 -0.00443669,-0.00383655 -0.00102349,-0.000475304 -0.0019237,0.000317128 -0.00247887,0.00151353l-0.000339614 0.000730402c-0.00225091,0.00484764 -0.000917267,0.011122 0.00362565,0.0132318 0.00266574,0.0012375 0.0049213,0.000283011 0.00642087,-0.00234861l-0.00438474 -0.00203536c-0.0029627,-0.00137629 -0.0034698,-0.0024339 -0.00302628,-0.00495929 0.000398542,0.000682329 0.00112507,0.00229976 0.00151353,0.00247965 0.00816701,0.00379313 0.0246251,0.000973869 0.0283042,-0.00553074l-0.0128293 0.00472358c0.00426843,-0.00511204 0.0134651,-0.00790494 0.0220051,-0.0189152l0.00409863 0.0059068 0.000731177 -0.000476855 -0.00371404 -0.00697061 0.000730402 -0.000367527 0.0045119 0.00452276 0.000215554 -0.00506939c0.00342172,0.00563232 0.00335349,0.0139932 0.0127851,0.0183733l0.00292316 0.00135768c0.00812514,0.00377374 0.0325797,0.000561371 0.0366395,-0.00430177 -0.00849422,0.000441188 -0.0287214,0.00620221 -0.0374226,0.00216174 -0.006165,-0.00286346 -0.0112879,-0.0131372 -0.0120547,-0.0180344 0.00883228,0.00690703 0.0100101,0.0118151 0.0240141,0.0125882 0.00891447,0.000491587 0.0175219,-0.000486935 0.0233512,-0.00746762l0.00292238 0.0013569c0.00260215,0.00120881 0.00366829,-0.000402419 0.00495852,-0.00302628 0.00169419,0.00307281 0.00111576,0.0175878 0.0021726,0.0228611 0.00104675,0.00522447 0.00625959,0.0174738 0.0116802,0.0199907 0.00462433,0.00214779 0.00822517,0.00115531 0.0134396,0.0035768 0.00163836,0.000761417 0.00133519,0.00132356 0.00224393,0.00281926l-0.00241529 0.00434054 0.000327208 -0.00175777c-0.00222532,0.000348918 -0.0132364,0.00483523 -0.0165814,0.00607583 -0.0058626,0.0021757 -0.0116027,0.0034822 -0.0177863,0.00443979 -0.0109126,0.00168954 -0.0256633,0.00398697 -0.0318686,0.017349 -0.000522602,0.00112507 0.00143522,0.00333101 0.0026355,0.0038885 0.00675428,0.00313716 0.0309948,-0.0205195 0.0423571,-0.0185245 -0.0018198,0.00217958 -0.00421416,0.0023928 -0.00721563,0.00514926 -0.00285725,0.00262386 -0.00431651,0.00428161 -0.00710165,0.00711948 -0.00435527,0.00443901 -0.00963557,0.00980072 -0.0134613,0.0146073 -0.00473366,0.00594789 -0.00756145,0.0102877 -0.0132977,0.0150539 -0.00378925,0.00314802 -0.014363,0.00712026 -0.0154811,0.0090835 0.0166543,0.00611227 0.0301147,-0.0223548 0.0412297,-0.0348748 0.0118369,-0.0133326 0.0357029,-0.0141079 0.0430433,-0.0299139l0.000339614 -0.000731177c0.00147166,-0.00316818 -0.000115531,-0.00279522 0.001253,-0.00652399 -0.00595642,-0.00104598 -0.00815383,0.00154222 -0.01738,-0.00274172 -0.0193339,-0.0089796 -0.0100457,-0.0464146 -0.0205846,-0.0513088 -0.00834767,-0.00387687 -0.0110615,0.000365976 -0.0171203,0.00294409 -0.0107164,0.0045592 -0.00784368,0.00190819 -0.0180585,0.00203691zm-0.104891 0.0747553l-0.000679227 0.00146158c-0.0111406,0.0239885 -0.00238738,0.0521865 0.0227495,0.0638606 0.0216275,0.0100442 0.0496883,0.0058564 0.0597379,-0.015782l0.000678452 -0.0014608c0.0053873,-0.0115996 0.00717143,-0.0248647 0.0129464,-0.0374947 0.00277506,-0.00606885 0.00684267,-0.0116585 0.0106009,-0.015875 0.00483058,-0.00541986 0.00907342,-0.00545088 0.0132294,-0.00860587 -0.00706366,-0.0012406 -0.0212321,0.00812747 -0.0250213,0.0186268l-0.0149655 0.0445227 -0.000679227 0.00146158c-0.00881833,0.0189874 -0.0402613,0.0215376 -0.0592471,0.0101527 -0.0247903,-0.0148655 -0.027404,-0.030138 -0.0142359,-0.0584926l0.000731177 0.000339614c-0.0045623,0.00982321 -0.00563387,0.032026 0.00284019,0.0359618l0.00219198 0.00101807c0.00463518,0.00215244 0.0119059,-0.012247 0.0146166,-0.0180833 0.000928122,0.00706908 -0.00553694,0.0231876 0.00550283,0.0283151l0.00292316 0.00135768c0.00864774,0.00401644 0.0317748,-0.0107622 0.0358851,-0.017977 0.00198496,0.00360316 -0.00256106,0.0112522 -0.00493448,0.0163619 0.013866,-0.00619989 0.0167644,-0.0265348 0.0240133,-0.0421431l0.000339614 -0.000731177c0.00816236,-0.0175746 0.0163914,-0.0178886 0.0269737,-0.0240715l-0.0106335 -0.00919981c-0.00216174,0.000112429 -0.00633403,0.00061177 -0.00866403,-0.000470652l-0.00146158 -0.000678452c-0.00283477,-0.00131658 -0.00428316,-0.00388462 -0.00521827,-0.00597736 -0.0056548,0.000885477 -0.0132752,0.003155 -0.0184322,0.00599209 -0.0028619,0.00157401 -0.0162906,0.0110894 -0.0171141,0.0112546 0.0056959,-0.00999844 0.0251919,-0.0146445 0.0290222,-0.0184996l-0.00584554 -0.00271458c-0.00228037,-0.00105916 -0.00360781,-0.00330077 -0.00482748,-0.00490657 -0.0258246,0.0013414 -0.0585531,0.0113205 -0.0730232,0.0424773z"/>
 </g>
</svg>
