<?xml version="1.0" encoding="UTF-8"?>
<!DOCTYPE svg PUBLIC "-//W3C//DTD SVG 1.1//EN" "http://www.w3.org/Graphics/SVG/1.1/DTD/svg11.dtd">
<!-- Creator: CorelDRAW -->
<svg xmlns="http://www.w3.org/2000/svg" xml:space="preserve" width="25in" height="39in" style="shape-rendering:geometricPrecision; text-rendering:geometricPrecision; image-rendering:optimizeQuality; fill-rule:evenodd; clip-rule:evenodd"
viewBox="0 0 0.217976 0.388293"
 xmlns:xlink="http://www.w3.org/1999/xlink">
 <defs>
  <style type="text/css">
   <![CDATA[
    .str0 {stroke:#1F1A17;stroke-width:0.000776516}
    .fil0 {fill:#0A0B0C}
   ]]>
  </style>
 </defs>
 <g id="Layer_x0020_1">
  <metadata id="CorelCorpID_0Corel-Layer"/>
  <path class="fil0 str0" d="M0.0219412 0.233268l0.176487 0 0 0.0260704 -0.176487 0 0 -0.0260704zm0.0882446 -0.162747c0.0150881,0 0.0273238,0.0116029 0.0273238,0.0259114 0,0.0143075 -0.0122357,0.0259104 -0.0273238,0.0259104 -0.0150901,0 -0.0273258,-0.0116029 -0.0273258,-0.0259104 0,-0.0143085 0.0122357,-0.0259114 0.0273258,-0.0259114zm-1.01905e-006 -0.0570485c0.0485221,0 0.0878706,0.0350237 0.0878706,0.0782131 -0.0054886,0.0531149 -0.0475163,0.0974691 -0.0877748,0.135526 -0.0353131,-0.034663 -0.0867242,-0.0866131 -0.0879664,-0.135526 0,-0.0431894 0.0393496,-0.0782131 0.0878706,-0.0782131zm-0.0754341 0.281004l0 -0.0268927 0.00873122 0 0 0.0211208 0.00999688 0 0 -0.0211208 0.00873122 0 0 0.0268927 -0.00360642 0.00402015 -0.0202465 0 -0.00360642 -0.00402015zm0.0520398 0.00402015l0.00676955 0 0 -0.00731168 -0.00211962 -0.00269335 0.00208803 -0.00239477 0 -0.0144939 -0.00360642 -0.00401913 -0.0238529 0 0 0.0309129 0.00873122 0 0 -0.0211646 0.00999688 0 0 0.00397633 -0.00869963 0 0 0.00495972 0.0106929 0.0122286zm0.03445 0l-0.0238529 0 0 -0.0309129 0.0238529 0 0.00360642 0.00401913 0 0.00833685 -0.00256189 0.00312135 0.00256189 0.00307855 0 0.00833685 -0.00360642 0.00402015zm-0.0051248 -0.011074l-0.00869963 0 0 -0.00876485 0.00869963 0 0 -0.00128298 -0.00999586 0 0 0.0113298 0.00999586 0 0 -0.00128196zm0.0400823 0.011074l-0.0193609 0 0.00430243 -0.00979205 0.00411289 0 -0.00278404 -0.00645568 -0.00714965 0.0162477 -0.0066116 0 0 -0.00731168 0.010218 -0.0236012 0.00705386 0 0.010219 0.0236012 0 0.00731168zm0.0313501 -0.0309129l0 0.0309129 -0.00677057 0 -0.0119891 -0.01364 0 0.01364 -0.00873122 0 0 -0.0309129 0.00664319 0 0.0121165 0.0137246 0 -0.0137246 0.00873122 0zm-0.142928 0.0679401l-0.00705386 0 -0.00569445 -0.0131692 0 0.0131692 -0.00873122 0 0 -0.0309129 0.0108508 0 0.00711806 0.0162477 0.00708545 -0.0162477 0.0108508 0 0 0.0309129 -0.00873122 0 0 -0.0131692 -0.00569445 0.0131692zm0.0458073 0l-0.0193599 0 0.00430243 -0.00979103 0.00411187 0 -0.00278303 -0.0064567 -0.00714965 0.0162477 -0.0066116 0 0 -0.00731168 0.010218 -0.0236012 0.00705386 0 0.010218 0.0236012 0 0.00731168zm-0.0014552 -0.0211218l0 -0.00979103 0.0271434 0 0 0.00979103 -0.0092061 0 0 0.0211218 -0.00873122 0 0 -0.0211218 -0.0092061 0zm0.0531791 0.0211218l-0.0193609 0 0.00430243 -0.00979103 0.00411289 0 -0.00278404 -0.0064567 -0.00714965 0.0162477 -0.0066116 0 0 -0.00731168 0.010218 -0.0236012 0.00705488 0 0.010218 0.0236012 0 0.00731168zm-0.0014552 -0.0211218l0 -0.00979103 0.0271424 0 0 0.00979103 -0.00920508 0 0 0.0211218 -0.00873122 0 0 -0.0211218 -0.0092061 0zm0.0310015 0.0171027l0 -0.0268937 0.00873224 0 0 0.0211218 0.00999586 0 0 -0.0211218 0.00873122 0 0 0.0268937 -0.00360642 0.00401913 -0.0202465 0 -0.00360642 -0.00401913zm-0.149757 0.014442l0.176487 0 0 0.0260704 -0.176487 0 0 -0.0260704zm0.156551 -0.345558l-0.139008 0c-0.021503,0 -0.0390958,0.0232201 -0.0390958,0.0516016l0 0.284313c0,0.0283805 0.0175929,0.0516016 0.0390958,0.0516016l0.139008 0c0.021503,0 0.0390958,-0.0232211 0.0390958,-0.0516016l0 -0.284313c0,-0.0283816 -0.0175929,-0.0516016 -0.0390958,-0.0516016z"/>
 </g>
</svg>
