<?xml version="1.0" encoding="UTF-8"?>
<!DOCTYPE svg PUBLIC "-//W3C//DTD SVG 1.1//EN" "http://www.w3.org/Graphics/SVG/1.1/DTD/svg11.dtd">
<!-- Creator: CorelDRAW -->
<svg xmlns="http://www.w3.org/2000/svg" xml:space="preserve" width="1in" height="2in" style="shape-rendering:geometricPrecision; text-rendering:geometricPrecision; image-rendering:optimizeQuality; fill-rule:evenodd; clip-rule:evenodd"
viewBox="0 0 0.109069 0.108657"
 xmlns:xlink="http://www.w3.org/1999/xlink">
 <defs>
  <style type="text/css">
   <![CDATA[
    .fil0 {fill:black}
   ]]>
  </style>
 </defs>
 <g id="Layer_x0020_1">
  <metadata id="CorelCorpID_0Corel-Layer"/>
  <path class="fil0" d="M0.0156452 0.108657c0.000424351,-0.0270249 0.000424351,-0.0270249 0.000509024,-0.0441 -0.00404758,-0.00242369 -0.00808334,-0.00483556 -0.0121188,-0.00724711 0,-0.000108959 0,-0.000218247 0,-0.000327206 0.00768327,-0.00101805 0.0153665,-0.00202362 0.023062,-0.00302953 0,0.000169675 0,0.000169675 -0.000339349,0.000169675 -4.8244e-005,0.000339349 -9.68163e-005,0.000690513 -0.000133245,0.00104201 -0.0182146,0.00256941 -0.0182146,0.00256941 -0.0183843,0.00273908 0.00908924,0.00538069 0.00908924,0.00538069 0.00980404,0.00592581 -0.000157532,0.0137062 -0.000315063,0.0274128 -0.000460452,0.041119 0.00155136,-0.0015635 0.00310239,-0.00312667 0.00466589,-0.00467803 0.00135707,-0.0052353 0.00271447,-0.0104706 0.00408401,-0.0156938 0.000108959,-0.000230062 0.000217919,-0.000448309 0.000339349,-0.000666227 -0.000436494,0.00464127 -0.000872659,0.00928288 -0.00130882,0.0139242 0.00153889,-0.00121168 0.0030781,-0.00242369 0.00462913,-0.00362323 0.00542926,-0.0192205 0.00542926,-0.0192205 0.00905282,-0.0313393 -0.000884802,-0.000193961 -0.00103019,-0.00132097 -0.000678699,-0.00202362 -0.000339349,-3.64292e-005 -0.000678699,-6.07153e-005 -0.0010059,-8.50014e-005 -0.00060584,0.000569739 -0.00090876,0.000920903 -0.00173285,0.00138168 -0.00373251,0.0128457 -0.00373251,0.0128457 -0.00390219,0.0130154 0.000327206,-0.00432654 0.000666556,-0.00865275 0.0010059,-0.0129671 -0.000945518,-0.000642269 -0.00181785,-0.000242205 -0.00282375,-0.000799801 -0.000969476,-0.00179356 -0.00460517,-0.00643484 -0.000799801,-0.00727107 0.000593697,-0.0013574 0.000593697,-0.0013574 0.00113915,-0.0022422 0.00156317,-3.6101e-005 0.00222973,0.000133574 0.00357498,0.000133574 0.000848373,-0.000678699 0.000848373,-0.000678699 0.0016846,-0.00109091 -0.000472595,-0.00138136 -0.0022783,-0.000169675 -0.00302986,0.000242533 -0.00106629,0 -0.00213291,0 -0.0031992,0 -0.000181818,0.000181818 -0.000363635,0.000363307 -0.000545453,0.000545125 -0.000351492,-0.00247226 -0.00209648,-0.00489595 -0.00289628,-0.00735607 -0.00117558,-0.00465342 -0.00173318,-0.00939184 -0.0023633,-0.0141424 -0.000266491,-0.000811944 -0.000569411,-0.0015635 -0.000133245,-0.0023994 0.00479913,-0.00333278 0.0104827,-0.00744107 0.0166268,-0.00525959 0.00458089,-0.00397505 0.00809548,-0.00352674 0.0132218,-0.0010059 0.00167213,0.00117558 0.00167213,0.00117558 0.00196324,0.00121168 -3.64292e-005,-0.000290777 -0.000375778,-0.000617983 -0.000618311,-0.00129668 0.00184213,-0.000254348 0.00184213,-0.000254348 0.00757432,-0.000424023 0.00083623,-0.000363635 0.00167246,-0.000727271 0.00252083,-0.00109058 -0.000921232,-0.00134525 -0.000921232,-0.00134525 -0.00159993,-0.00269051 0,-0.00219363 0.000884802,-0.00399933 0.00159993,-0.00605939 -0.00454479,0.000581882 -0.00454479,0.000581882 -0.00555036,0.000581882 0.00233869,-0.00134525 0.0046777,-0.00265408 0.00689529,-0.00420544 0.00467803,-0.000581554 0.0106524,-0.000254348 0.0138884,0.00362355 0.00134493,0.00302986 0.00134493,0.00302986 0.00407186,0.00996158 -0.000787986,0 -0.00157564,0 -0.00235116,0 -7.28584e-005,0.00181785 0.000169675,0.00418115 -0.000933046,0.00573218 -0.00252083,0.000896945 -0.0055264,8.50014e-005 -0.00810763,-0.000290777 0.00117558,0.000666556 0.00117558,0.000666556 0.00286018,0.00201181 0.000751229,0.00110272 0.000751229,0.00110272 0.00129668,0.00163603 0.00425368,0.000642269 0.00631373,0.0014785 0.00821658,0.00552608 0,0.000726943 0,0.00145421 0,0.00218116 -0.000509024,0.00134525 -0.000509024,0.00134525 -0.000509024,0.00185428 0.00149064,0.00149064 0.00179356,0.00278732 0.00109058,0.00471413 -0.000278634,0 -0.000557596,0 -0.00083623,0 -0.000557268,-0.00256908 -0.00221759,-0.00428978 -0.00505348,-0.00428978 -0.0016846,0.000969476 -0.00285985,0.00145421 -0.0047627,0.00187824 -4.85722e-005,0.000290777 -8.46732e-005,0.000593697 -0.000121102,0.000896945 -0.000133245,3.6101e-005 -0.000254676,7.25302e-005 -0.000375778,0.000121102 -0.000436166,-0.000884802 2.42861e-005,-0.00174499 0.000496881,-0.00253298 0.00241155,-3.6101e-005 0.00241155,-3.6101e-005 0.00324778,-0.000193633 -0.00134493,-0.000339349 -0.00134493,-0.000339349 -0.00202362,-0.000678699 0.000617983,-0.000121431 0.00123597,-0.00023039 0.00185395,-0.000339349 -0.0015146,-0.000339349 -0.0015146,-0.000339349 -0.00302953,-0.000921232 -0.00179356,0.00358713 -0.00468985,0.00459303 -0.00841055,0.00529601 -0.000787658,0.000617983 -0.00157532,0.00123597 -0.00236297,0.00185428 -0.00420544,0.000217919 -0.00841055,0.000448309 -0.0126157,0.000678699 0.00184213,0.0015146 0.00184213,0.0015146 0.00285985,0.00209648 0,0.000108959 0,0.000217919 0,0.000339349 -0.00505348,0.000327206 -0.010107,0.000666556 -0.0151483,0.00100558 -0.000145389,-0.00512601 0.000242533,-0.00993729 0.0010059,-0.0149786 0.00201181,-0.000630126 0.00330849,-0.0013574 0.00496881,-0.00260551 9.68163e-005,6.07153e-005 0.000193633,0.000133245 0.000290777,0.000206104 0.00111486,0.00358713 0.00252051,0.00572004 0.00512601,0.00832554 0.00293271,0.000617983 0.00614439,0.00173285 0.00913782,0.00173285 0.00101772,-0.000581554 0.00203577,-0.00116344 0.00306596,-0.00173285 4.8244e-005,0.00030292 -0.000290777,0.000981619 -0.000254676,0.0013574 0.00250869,0.00129668 0.00467803,0.00107843 0.00712601,3.6101e-005 -0.00111486,9.71445e-005 -0.00648374,0.000799801 -0.00648374,-0.00158746 0.00127272,-0.00150279 0.00237545,-0.00290843 0.00340564,-0.00459303 -0.000121431,0 -0.00023039,0 -0.000339349,0 -0.00237545,0.00353855 -0.00407186,0.00551393 -0.00837412,0.00551393 -0.00196324,-0.000290777 -0.00392647,-0.000569411 -0.00588971,-0.000848045 -0.00306596,-0.00226649 -0.00436264,-0.00469017 -0.00588971,-0.0081562 0.00151493,-0.000327206 0.00630159,-0.0021933 0.00611977,-0.00431407 -0.00135707,0.00132097 -0.00281128,0.00250836 -0.00460485,0.00322349 -0.00293271,0 -0.00473842,-0.00179356 -0.00698062,-0.00353855 -0.000254348,8.46732e-005 -0.000509024,0.000169675 -0.000763372,0.000254348 0,0.000109288 0,0.000218247 0,0.000339349 0.00176928,0.000920903 0.00332063,0.0023633 0.00505348,0.00318739 -0.00060584,0.00204791 -0.00648341,0.00250836 -0.00825269,0.00261765 -0.000509024,-6.07153e-005 -0.00101805,-0.000121431 -0.00151493,-0.000169675 -0.00155136,-0.00226649 -0.00226616,-0.00294486 -0.00487166,-0.00117558 0.00230226,0 0.00264161,-0.000121102 0.00412011,0.0015996 0.00113915,0.00492024 -0.000436166,0.0100587 0.00117558,0.014809 0.000884802,0.00121201 0.000884802,0.00121201 0.00126025,0.00143026 -0.000169346,0.000108959 -0.000339021,0.000217919 -0.000496553,0.000339349 0.00116311,0.00083623 0.00168428,0.00037545 0.00302953,-8.50014e-005 0,-0.000121102 0,-0.000230062 0,-0.000339349 0.00599867,-0.000424023 0.0119977,-0.000848373 0.0180085,-0.00126025 -0.000824087,-0.00053331 -0.00271479,-0.0013935 -0.00302986,-0.0022783 0.00499309,-0.000278634 0.00998586,-0.000557596 0.014979,-0.00083623 0,0.000278634 0,0.000557596 0,0.00083623 -0.00409615,0.00030292 -0.0081923,0.000617983 -0.0122884,0.000933046 0.00106629,0.000557596 0.00213291,0.00111486 0.0031992,0.00167246 -0.000872331,0.000872659 -0.0153665,0.00140564 -0.0191837,0.00185428 0.000775515,0.000363307 0.00156317,0.000726943 0.00235083,0.00110272 0,0.000108959 0,0.000218247 0,0.000327206 -0.000411879,3.64292e-005 -0.000824087,7.25302e-005 -0.00122382,0.000121102 -0.000412208,0.00181785 -0.000206104,0.00329635 -0.000254676,0.00513848 0.000206104,1.21431e-005 0.000424351,2.42861e-005 0.000642269,4.8244e-005 0.00454479,-0.000896617 0.00908924,-0.00179356 0.0136337,-0.00269018 -0.000642269,-0.00030292 -0.0012724,-0.00060584 -0.00190252,-0.000896945 -4.85722e-005,-0.000133245 -8.50014e-005,-0.000254348 -0.000121431,-0.00037545 0.00576861,-0.000811944 0.0115494,-0.00162389 0.0173298,-0.00243583 -0.00106629,-0.000424351 -0.00213258,-0.000848373 -0.00318706,-0.00126058 0,-0.000121102 0,-0.000230062 0,-0.000339349 0.000666556,-3.6101e-005 0.00133311,-6.03871e-005 0.00201181,-8.46732e-005 0.000509024,0.000339349 0.000509024,0.000339349 0.000775515,0.000315063 -0.000909089,-0.00163603 -0.00103019,-0.00260551 -0.00103019,-0.0044355 0.000424351,-0.000678699 0.000848373,-0.0013574 0.0012724,-0.00202395 0.000121431,3.64292e-005 0.000242533,7.28584e-005 0.000363635,0.000121431 9.71445e-005,0.0014785 -0.000436166,0.00498062 0.00164817,0.0053564 -0.00166032,-0.00232687 -0.00221759,-0.00613225 0.00155136,-0.00602296 0.000205776,0.000472595 0.000424023,0.0007148 0.00030292,0.00122382 -0.00277518,0.00083623 -0.00170889,0.00265408 -0.000266819,0.00435083 -0.000217919,-0.00122415 -0.000993434,-0.00208467 -0.000993434,-0.00334492 0.000642269,-0.000690842 0.00173285,-0.000751229 0.00260551,-0.00083623 0,-0.000121102 0,-0.000230062 0,-0.000339349 -0.000824087,-0.000242205 -0.000921232,-0.00112701 -0.0010059,-0.00185395 0.000496881,-8.50014e-005 0.0010059,-0.000169675 0.0015146,-0.000254676 0.0039629,-0.00197538 0.0065927,-0.00206005 0.00706529,0.00277518 0.0202021,-0.00126025 0.0202021,-0.00126025 0.0249162,-0.00142993 -0.0244072,0.00488381 -0.0244072,0.00488381 -0.0245769,0.00505348 0.00207252,-0.000230062 0.00414472,-0.000460452 0.00622906,-0.000678699 0.00241155,0 0.00441121,-0.000484738 0.00597471,0.0015996 0.00235083,-0.00208434 0.0038779,-0.0031992 0.00681062,-0.0015996 0.00117558,-0.000254348 0.00235116,-0.000509024 0.00353855,-0.000751229 -0.000799801,0.00309024 -0.00243583,0.00711354 -0.00243583,0.0102645 0.00206038,0.00367213 0.00109091,0.00856808 -0.00118772,0.0119491 -0.00199934,0.0016846 -0.00376861,0.00196324 -0.00622873,0.00110272 -0.00512634,0.000193961 -0.0103009,0.000278962 -0.0153908,0.0010059 -0.00118772,0.000666556 -0.00118772,0.000666556 -0.00253298,0.00117558 -0.0165178,0 -0.0323934,0.011743 -0.0452756,0.0208683 -0.00689562,0.00539283 -0.00689562,0.00539283 -0.0166632,0.013464 -0.0010059,0.00101805 -0.0010059,0.00101805 -0.00134525,0.00110272 0,0.000109288 0,0.000218247 0,0.000339349 -0.000121102,0 -0.00023039,0 -0.000339349,0zm0.0154877 -0.0156573c0.00124844,-0.00254512 0.00124844,-0.00254512 0.00225434,-0.00421725 0.00281128,-0.00872561 0.00562289,-0.0174391 0.00844665,-0.0261522 0.000751229,-0.000751557 0.000739414,-0.00195109 0.00134525,-0.00286018 0.000811944,-0.00030292 0.00162389,-0.000593697 0.00244798,-0.000884474 0.000218247,0.00588971 0.000218247,0.00588971 0.000351492,0.0217771 0.000121102,3.64292e-005 0.000242205,7.28584e-005 0.000363307,0.000121431 0.000109288,-0.000266819 0.00023039,-0.000521167 0.000351492,-0.000775843 0.000775843,-0.00605939 0.0015635,-0.0121188 0.00235116,-0.0181778 0,-0.0014785 0,-0.0014785 -0.000121102,-0.00178175 -0.000412208,-4.8244e-005 -0.00112701,-0.00112701 -0.00140597,-0.00140564 0.0028359,-0.000763372 0.00576861,-0.00192681 0.00871347,-0.00192681 0.00418082,0.00169642 0.00199967,0.0092343 -0.000254348,0.0118641 0.000363307,0.00189071 0.000739086,0.00378109 0.00111486,0.00568361 8.46732e-005,0 0.000169675,0 0.000254348,0 0.000872659,-0.00510173 0.00175713,-0.0102038 0.00264194,-0.0152937 0,-0.00140564 -0.000484738,-0.00175713 -0.0013574,-0.00286018 8.50014e-005,-8.46732e-005 0.000169675,-0.000169346 0.000254676,-0.000242205 0.00279947,-0.000666556 0.00539283,-0.00151493 0.00827697,-0.00151493 0.00419329,0.00167246 0.0015996,0.00716211 0.000218247,0.00992547 -0.000654412,0.000617983 -0.000654412,0.000617983 -0.000727271,0.00094519 -0.000108959,1.21431e-005 -0.000205776,2.42861e-005 -0.00030292,3.64292e-005 0.000448309,0.00204791 0.000896945,0.00409582 0.00134525,0.00614406 0.000557268,-0.000218247 0.00083623,-0.000690842 0.00121168,-0.00115129 0.00202395,-0.0146393 0.00202395,-0.0146393 0.00201181,-0.0153058 -0.000448309,-0.00046078 -0.000896617,-0.000909089 -0.00134525,-0.0013574 0.00209681,-0.000460452 0.00419329,-0.000920903 0.00628978,-0.00136954 0,-8.46732e-005 0,-0.000169675 0,-0.000254348 -0.00145421,0.000206104 -0.00145421,0.000206104 -0.00305382,0.000193961 -0.000181818,-0.000363635 -0.000363635,-0.000727271 -0.000545453,-0.00109091 0.000169675,-2.42861e-005 0.000339349,-3.6101e-005 0.000509024,-4.8244e-005 0.000206104,0.000327206 0.000411879,0.000654412 0.000617983,0.000981619 0.000642269,0 0.00181785,-0.000339349 0.0023633,-0.000339349 0.000581554,0.000424023 0.00134493,0.00134493 0.00168428,0.0015146 0.00119987,-0.00018149 0.00184213,-0.000811944 0.00282375,-0.0015146 0.00121201,0 0.00172103,0.000169675 0.00269051,0.000169675 0.000436166,-0.000266819 0.000630126,-0.000642269 0.000787658,-0.000606168 -0.000327206,0.000521167 -0.000327206,0.000521167 -0.000327206,0.000860516 0.00261765,0.00494452 0.00141778,0.0169904 -0.00462946,0.0192687 -0.00236297,-0.000217919 -0.00241155,-0.000642269 -0.00347817,-0.0027509 -0.000787658,-0.00510205 0.000424351,-0.00998586 0.00221791,-0.0147364 -3.64292e-005,-0.000108959 -7.28584e-005,-0.000217919 -0.000109288,-0.000327206 -0.000472595,-0.000157532 -0.000569411,-0.000193961 -0.000775515,-0.000617983 -0.000108959,0 -0.000217919,1.21431e-005 -0.000327206,2.42861e-005 -0.000387593,0.000545125 -0.000775515,0.00110272 -0.00115129,0.00166032 -0.000642269,0.00485952 -0.00197538,0.0102645 -0.00185395,0.0151483 0.00153889,0.00161175 0.00153889,0.00161175 0.0014785,0.00175713 -0.00350245,0.000811944 -0.00689562,0.00172103 -0.0103252,0.00279947 -0.00161175,-0.00722282 -0.00161175,-0.00722282 -0.00179356,-0.00750146 -0.000933375,0.00140564 -0.00103019,0.00433868 -0.00133311,0.00604724 0.000569411,0.000593697 0.00113915,0.00119987 0.00170856,0.00180571 -3.6101e-005,7.28584e-005 -6.03871e-005,0.000145389 -8.46732e-005,0.00023039 -0.00311453,0.00128454 -0.00619263,0.00248408 -0.00914963,0.00410829 -0.000218247,-0.000472923 -0.000218247,-0.000472923 -0.00157564,-0.0083984 -0.000108959,0 -0.000217919,1.21431e-005 -0.000327206,2.42861e-005 -0.000157532,0.000327206 -0.000157532,0.000327206 -0.000835902,0.00572004 0,0.00170856 0.000387593,0.00185395 0.00158746,0.00305382 -0.00413258,0.00225401 -0.00816801,0.00458089 -0.0120341,0.00725925 -0.000121102,-2.42861e-005 -0.000230062,-3.64292e-005 -0.000339021,-4.85722e-005 0.000557268,-0.0013574 0.00112701,-0.00271447 0.00169642,-0.00407186 1.21431e-005,-0.00144207 2.42861e-005,-0.00288414 4.85722e-005,-0.0043144 -0.000642269,0.000266819 -0.0012724,0.00053331 -0.00190285,0.000811944 -0.00201148,0.00723497 -0.00201148,0.00723497 -0.00201148,0.00770756 0.000327206,0.000484738 0.000424023,0.000678699 0.000484738,0.00126025 -0.00230259,0.00162422 -0.00460517,0.0032481 -0.00689562,0.00488414 -0.000193961,3.6101e-005 -0.000387922,7.25302e-005 -0.000569739,0.000108959zm-0.00791334 -0.0131247c-9.71445e-005,-0.000702985 -9.71445e-005,-0.000702985 0.000509024,-0.0176813 0.0013935,-0.000278634 0.00279947,-0.000557268 0.00420511,-0.00083623 -0.00149064,0.00605939 -0.00298129,0.0121188 -0.00447193,0.0181903 -8.46732e-005,0.000109288 -0.000169675,0.000218247 -0.000242205,0.000327206zm0.017851 -0.00438693c0.000290777,-0.00119987 0.000666556,-0.00449621 0.00149064,-0.00531997 0.000121102,0.000254348 0.000121102,0.000254348 -0.000424351,0.00488381 -0.000363635,0.000145389 -0.0007148,0.000290777 -0.00106629,0.000436166zm0.042076 -0.00555036c0.000521167,-0.000848373 0.00104233,-0.00169675 0.00157564,-0.00253298 0.000739086,-0.00496848 0.0014785,-0.00992515 0.00221759,-0.0148818 -0.00119954,-0.00175713 -0.00119954,-0.00175713 -0.0012724,-0.00210863 0.00246012,-0.000363307 0.00492024,-0.000933046 0.00741678,-0.000933046 0.00413225,0.00115129 0.00288414,0.00585328 0.0013935,0.00890743 -0.000799801,0.000933046 -0.000799801,0.000933046 -0.0010059,0.00136921 0.000811944,0.00311453 0.00163603,0.00622906 0.00246012,0.00934359 -0.00146636,0 -0.00292057,0 -0.00437478,0 -0.000581554,-0.00269018 -0.00116344,-0.00536855 -0.00173285,-0.00804691 -0.000145717,0 -0.000278962,0 -0.000412208,0 -0.000315063,0.00214506 -0.000848373,0.00435083 -0.000787658,0.00651984 0.000387922,0.000509024 0.000775515,0.00101805 0.00117558,0.00153921 -0.000751557,0.00023039 -0.000751557,0.00023039 -0.00665341,0.000824087zm0.0156455 -0.000339349c-0.0043144,-0.002872 -0.00241155,-0.00512634 -0.000751557,-0.00925859 0.000557596,0.0019872 0.00112701,0.00365966 0.00242402,0.00528354 0.000133245,-3.6101e-005 0.000278634,-6.03871e-005 0.000424023,-8.46732e-005 0.000727271,-0.00219363 -0.000811944,-0.0035146 -0.0021572,-0.00496881 -0.00198752,-0.00346602 -0.00180571,-0.00936788 0.00206038,-0.0114279 0.00144207,0 0.00156317,-1.21431e-005 0.00225401,0.00122415 0.000799801,-0.000218247 0.00129668,-0.000594025 0.00198752,-0.00106662 -0.000751557,0.00259336 -0.00229044,0.00598686 -0.00229044,0.00866489 0.00161175,0.00287233 0.00123597,0.00572004 0.000339349,0.008786 -0.00118772,0.00241187 -0.0016846,0.00271479 -0.00429011,0.00284804zm-0.0196931 -0.00184213c-3.64292e-005,-0.00163603 -6.03871e-005,-0.00325992 -8.46732e-005,-0.00488381 0.000678699,-0.00488381 0.000678699,-0.00488381 0.00144207,-0.00859204 0.000108959,0 0.000218247,0 0.000327206,0 6.07153e-005,0.00472628 -0.000254676,0.00887067 -0.00134525,0.0134758 -0.000121102,0 -0.000230062,0 -0.000339349,0zm-0.0269277 -0.000169675c0.000593697,-0.00522316 0.000593697,-0.00522316 0.000969476,-0.00745288 0.000715128,-0.000206104 0.000715128,-0.000206104 0.00109058,-0.000169675 0.00118772,0.00197538 -1.21431e-005,0.00519887 -0.0010059,0.00698029 -0.000351164,0.000206104 -0.000702657,0.000424351 -0.00105415,0.000642269zm0.0106038 -0.00353855c0.000424023,-0.00210863 0.000848373,-0.00420511 0.0012724,-0.00630192 0.000412208,-9.68163e-005 0.00083623,-0.00018149 0.00126058,-0.000266491 0.000751229,0.0022783 -0.000254676,0.00563536 -0.00253298,0.00656841zm-0.0445969 -0.000339349c0,-4.85722e-005 0,-0.000108959 0,-0.000169675 4.8244e-005,0 0.000108959,0 0.000169675,0 0,4.85722e-005 0,0.000108959 0,0.000169675 -4.85722e-005,0 -0.000109288,0 -0.000169675,0zm0.0206987 -0.00134525c3.64292e-005,-0.000193961 7.28584e-005,-0.00037545 0.000121102,-0.000557268 0.000787986,-0.000448637 0.00158779,-0.00053331 0.00241187,-0.00106662 2.39579e-005,0.00060584 -1.21431e-005,0.000787658 -0.000291105,0.00134525 -0.000751229,8.46732e-005 -0.00150246,0.000181818 -0.00224187,0.000278634zm-0.0107735 -0.00117558c0,-4.8244e-005 0,-0.000108959 0,-0.000169675 4.85722e-005,0 0.000108959,0 0.000169675,0 0,4.85722e-005 0,0.000109288 0,0.000169675 -4.85722e-005,0 -0.000108959,0 -0.000169675,0zm0.00723497 -0.00100558c-0.000109288,-6.07153e-005 -0.000218247,-0.000121431 -0.000327206,-0.000169675 -0.000133245,-0.00235116 -4.85722e-005,-0.00604724 0.00132097,-0.00802262 0.000399736,0.000145389 0.000799801,0.000290777 0.00119954,0.000448309 -0.000266491,0.0013574 -0.000266491,0.0013574 -0.000775515,0.00253265 0,0.00185428 0.000400065,0.00339349 -0.000399736,0.00504167 -0.000339349,4.8244e-005 -0.000678699,0.000108959 -0.00101805,0.000169675zm0.00336888 0c0.000145389,-0.00175746 0.000315063,-0.00307843 0.000921232,-0.00471446 0,-0.00105415 -0.000957661,-0.00439907 0.00110272,-0.00336888 0.000472595,0.000993762 0.000557268,0.00151493 8.46732e-005,0.00252083 0.000400065,0.00181752 0.000775843,0.00380504 -0.000726943,0.00525926 -0.000460452,9.71445e-005 -0.000921232,0.000193961 -0.00138168,0.000303248zm-0.00639874 -0.000169675c-0.000254348,-0.00202395 -0.000509024,-0.00404791 -0.000751229,-0.00605939 -0.000351492,-0.000351492 -0.000775515,-0.000278962 -0.00126025,-0.000339349 0.000157532,-0.000400065 0.000327206,-0.000787658 0.000496881,-0.00117558 0.000933046,0.000145389 0.00186609,0.000290777 0.00281128,0.000448309 -0.000593697,0.00179356 -8.46732e-005,0.00470199 -3.6101e-005,0.00661698 -0.000496881,0.000339349 -0.000666556,0.000424023 -0.00126058,0.000509024zm0.00556251 -0.000169675c8.50014e-005,-0.00539283 8.50014e-005,-0.00539283 0.000242533,-0.00588971 0.000545125,0.0015996 2.42861e-005,0.00414439 8.46732e-005,0.00588971 -0.000108959,0 -0.000217919,0 -0.000327206,0zm-0.00707711 -0.000678699c-0.000945518,-0.0014785 -0.00180571,-0.00264194 -0.00174532,-0.00444764 0.000242533,-3.64292e-005 0.000484738,-7.28584e-005 0.000739414,-9.68163e-005 0.000133245,0.000242205 0.000266491,0.000496881 0.000399736,0.000751229 6.07153e-005,-0.000145389 0.000121102,-0.000278634 0.000193961,-0.000411879 0.000581554,0.00107843 0.000799801,0.00147817 0.00083623,0.00269018 -0.000108959,-0.000218247 -0.000206104,-0.000424023 -0.00030292,-0.000630126 -7.28584e-005,1.21431e-005 -0.000145389,3.64292e-005 -0.000218247,6.07153e-005 0.000339349,0.00105415 0.000339349,0.00105415 0.000436166,0.00208434 -0.000121102,0 -0.000230062,0 -0.000339021,0zm0.0592483 -0.00083623c-9.68163e-005,-0.000363635 -9.68163e-005,-0.000363635 0.000678699,-0.00572004 0.0013574,-9.71445e-005 0.0013574,-9.71445e-005 0.0016846,0 -0.000109288,0.00232687 -0.000145389,0.00456874 -0.0023633,0.00572004zm-0.0560491 -0.000678699c2.42861e-005,-0.00129668 4.85722e-005,-0.00258122 8.46732e-005,-0.00386576 0.000751557,0.00107843 0.000193961,0.00267804 -8.46732e-005,0.00386576zm0.0679982 -0.000496881c-0.00128454,-0.00174499 -0.00161175,-0.00163603 -0.00158746,-0.00395076 0.000108959,-8.46732e-005 0.000108959,-8.46732e-005 0.000472595,0.000339349 0.000460452,0.00115129 0.000920903,0.00230259 0.00138168,0.00345388 -9.71445e-005,4.85722e-005 -0.000181818,9.68163e-005 -0.000266819,0.000157532zm-0.0715246 -0.000339349c0,-4.85722e-005 0,-0.000108959 0,-0.000169675 0.000108959,0 0.000217919,0 0.000327206,0 0,4.85722e-005 0,0.000109288 0,0.000169675 -0.000109288,0 -0.000218247,0 -0.000327206,0zm-0.0304666 -0.000169675c0,-4.8244e-005 0,-0.000108959 0,-0.000169675 4.85722e-005,0 0.000108959,0 0.000169675,0 0,4.85722e-005 0,0.000109288 0,0.000169675 -4.85722e-005,0 -0.000109288,0 -0.000169675,0zm0.0304666 -0.000169675c-4.85722e-005,-7.25302e-005 -9.71445e-005,-0.000145389 -0.000133574,-0.000217919 9.71445e-005,-4.85722e-005 0.000193961,-8.50014e-005 0.000291105,-0.000121431 -6.07153e-005,0.000109288 -0.000109288,0.000218247 -0.000157532,0.000339349zm-0.000169675 -0.000509024c-4.85722e-005,-7.25302e-005 -9.71445e-005,-0.000145389 -0.000133574,-0.000217919 9.71445e-005,-3.64292e-005 0.000193961,-7.28584e-005 0.000303248,-0.000109288 -6.07153e-005,0.000109288 -0.000121431,0.000218247 -0.000169675,0.000327206zm0.0445969 -0.00134493c0,0 0,0 0,0zm-0.0217046 -0.000169675c0,-4.85722e-005 0,-0.000109288 0,-0.000169675 0.000108959,0 0.000217919,0 0.000327206,0 0,4.8244e-005 0,0.000108959 0,0.000169675 -0.000109288,0 -0.000218247,0 -0.000327206,0zm0.0272671 -0.000327206c0,-4.85722e-005 0,-0.000109288 0,-0.000169675 0.000108959,0 0.000218247,0 0.000327206,0 0,4.8244e-005 0,0.000108959 0,0.000169675 -0.000108959,0 -0.000218247,0 -0.000327206,0zm-0.0624478 -0.000169675c-0.00110305,-0.00407186 -0.00187856,-0.00775613 -0.0022783,-0.0119491 0,-0.0157302 0.00713782,-0.0286852 0.0206261,-0.03695 0.00544108,-0.00271479 0.0104463,-0.00430225 0.0164936,-0.00505348 0.00229044,0 0.00459303,0 0.00689562,0 0.00454446,0.00067837 0.00454446,0.00067837 0.00740431,0.00134493 0.00570789,0.00198752 0.0103131,0.00439907 0.0151486,0.00808334 0.00140564,0.00134525 0.00281128,0.00269018 0.00421725,0.00403543 0.00693172,0.00866489 0.0112704,0.0191112 0.00996158,0.030418 -0.000460452,3.64292e-005 -0.000920903,8.50014e-005 -0.00138168,0.000133245 2.42861e-005,-0.00202362 4.85722e-005,-0.00404758 8.50014e-005,-0.00605939 -0.00122415,-0.00975547 -0.00413258,-0.0170994 -0.0107735,-0.0245766 -0.00220577,-0.00206038 -0.00438693,-0.0038418 -0.00682309,-0.00563536 -0.00140564,-0.000448309 -0.00281128,-0.000896617 -0.00420511,-0.00134525 -0.00712568,-0.00153889 -0.0139727,-0.00136921 -0.0212077,-0.000508696 -0.00672594,0.00134493 -0.00672594,0.00134493 -0.00891957,0.00193895 4.85722e-005,0.000278634 0.000109288,0.000557268 0.000169675,0.000848373 0.00678666,-0.000496881 0.0135851,-0.000981619 0.0203839,-0.00146668 1.21431e-005,4.85722e-005 2.42861e-005,0.000109288 3.6101e-005,0.000169675 -0.00237512,0.00112734 -0.00475023,0.00225434 -0.00712568,0.00339349 -0.00992515,-0.00117558 -0.00992515,-0.00117558 -0.0127853,-0.00134525 0.000448309,0.000448309 0.000896945,0.000896617 0.00134525,0.00134525 0.00578075,0.00333245 0.0119612,0.00536855 0.0173298,0.00942827 -0.00124811,0.000375778 -0.00306596,-4.85722e-005 -0.00437478,-0.000169675 -0.00504134,-0.00269018 -0.00504134,-0.00269018 -0.0106038,-0.00538069 -0.00237545,-0.00141778 -0.00522316,-0.00278732 -0.00605939,-0.00564718 -0.00170889,9.68163e-005 -0.00279947,0.00109058 -0.00425368,0.00197505 -0.000193961,0.00199967 0.00436264,0.00557465 0.00568361,0.00787724 -0.000678699,0.000412208 -0.00128454,0.0010059 -0.00209648,0.0010059 -0.00179356,-0.00246012 -0.00357498,-0.00492024 -0.00535673,-0.00736821 -0.000133245,-1.21431e-005 -0.000254348,-2.42861e-005 -0.00037545,-3.64292e-005 -0.000921232,0.000775843 -0.00296914,0.00202395 -0.00335706,0.00311453 0.00167246,0.000496881 0.00158779,0.00432654 0.00121201,0.00558679 -0.000690842,0.000218247 -0.00146636,0.000617983 -0.00219363,0.000509024 0.000436494,-0.00166032 0.000884802,-0.00358713 -0.000448309,-0.00492024 -0.00517458,0.00677451 -0.00922249,0.0134276 -0.0114522,0.0217167 -0.000630126,0.00319953 -0.0010059,0.00618082 -0.0010059,0.00942859 0.000666556,0.00285985 0.000666556,0.00285985 0.0015996,0.00588971 -0.000508696,4.8244e-005 -0.00101772,0.000108959 -0.0015146,0.000169675zm0.0690888 -0.0016846c0,0 0,0 0,0zm-0.00951327 -0.000169675c-0.000508696,-0.000811944 -0.00202362,-0.00281161 -0.00192681,-0.0038779 0.000702985,0.00122382 0.00144207,0.00264194 0.00277518,0.0031992 0,0.000108959 0,0.000218247 0,0.000339349 -0.000290777,0.000108959 -0.000569411,0.000218247 -0.000848373,0.000339349zm-0.0614298 -0.000169675c0,-4.85722e-005 0,-0.000108959 0,-0.000169675 4.85722e-005,0 0.000108959,0 0.000169675,0 0,4.85722e-005 0,0.000108959 0,0.000169675 -4.85722e-005,0 -0.000108959,0 -0.000169675,0zm0.086855 -0.0010059c0,-4.85722e-005 0,-0.000108959 0,-0.000169675 4.85722e-005,0 0.000108959,0 0.000169675,0 0,4.85722e-005 0,0.000109288 0,0.000169675 -4.85722e-005,0 -0.000108959,0 -0.000169675,0zm-0.0318119 -0.000169675c0.000109288,-6.03871e-005 0.000218247,-0.000121102 0.000327206,-0.000169675 0,0.000169675 0,0.000169675 -0.000327206,0.000169675zm0.00925892 -0.000339349c-0.00129668,-0.00135707 -0.00250869,-0.00335674 -0.00243583,-0.00528354 0.000496881,-0.000351492 0.0010059,-0.000690842 0.00151493,-0.00103019 -0.0015635,0.00216934 -0.00111519,0.00232687 0.000508696,0.00444764 0.000896945,0.000751229 0.000896945,0.000751229 0.00158779,0.00102986 -3.64292e-005,0.000121431 -7.28584e-005,0.000254676 -0.000109288,0.000387922 -0.000363307,0.000145389 -0.0007148,0.000290777 -0.00106629,0.000448309zm-0.0016846 -0.00083623c-0.00115129,-0.00121168 -0.00292057,-0.00318706 -0.00170856,-0.00481095 0.00067837,-0.000351492 0.00135707,-0.000690842 0.00204791,-0.00103019 1.21431e-005,4.85722e-005 2.42861e-005,0.000108959 4.85722e-005,0.000169675 -0.00214506,0.00130882 -0.00239973,0.00141778 -0.00133311,0.00379323 0.000400065,0.000569411 0.000799801,0.00113915 0.00121201,0.0017207 -9.71445e-005,4.85722e-005 -0.000181818,9.71445e-005 -0.000266819,0.000157532zm-0.00370823 -0.000339349c0,0 0,0 0,0zm0.00774399 -0.00101772c-0.00141811,-0.00149064 -0.00151493,-0.00370856 -0.00336921,-0.00462946 0.00030292,0 0.00060584,1.21431e-005 0.000909089,2.42861e-005 0.00135707,0.0017207 0.00135707,0.0017207 0.00155103,0.00224187 0.000315063,0.000109288 0.000315063,0.000109288 0.022953,-0.00158746 -0.00667737,0.00111486 -0.0133429,0.00222973 -0.0200082,0.00335674 -0.00118772,0 -0.00118772,0 -0.00182999,0.000133574 -7.25302e-005,0.000145389 -0.000145389,0.00030292 -0.000205776,0.000460452zm-0.0533589 -0.000666556c-0.00138168,-0.00155136 -0.00182999,-0.00410829 -0.00244798,-0.00604724 -0.000509024,-0.00332063 -0.00101805,-0.00662913 -0.00151493,-0.00993729 0,-0.00166032 -6.07153e-005,-0.00275122 0.00220544,-0.00238759 -0.000436166,0.000460452 -0.000436166,0.000460452 -0.000532982,0.000775515 0.000145389,8.50014e-005 0.000290777,0.000169675 0.000436166,0.000254676 0,0.000108959 0,0.000217919 0,0.000339349 -0.000266491,6.03871e-005 -0.00053331,0.000133245 -0.000799801,0.000205776 0,8.50014e-005 0,0.000169675 0,0.000254676 0.00023039,9.68163e-005 0.000460452,0.000206104 0.000690842,0.000315063 3.64292e-005,0.000133245 7.25302e-005,0.000266491 0.000108959,0.000400065 -0.000230062,8.46732e-005 -0.000460452,0.000169675 -0.000678699,0.000266491 -9.68163e-005,0.000327206 -9.68163e-005,0.000327206 0.00126058,0.00964651 0.00067837,0.0031992 0.00134493,0.00555036 0.0012724,0.005914zm0.0111129 0c0.000411879,-0.00319953 0.00083623,-0.00639874 0.00126025,-0.00959827 0.000678699,0.00387823 0.000678699,0.00387823 0.0010059,0.00479913 -0.000315063,0.000193961 -0.000617983,0.000387922 -0.000920903,0.000594025 0.000593697,0.0015146 0.000593697,0.0015146 0.000593697,0.00201148 -0.000315063,0.000254676 -0.000630126,0.000509024 -0.000933046,0.0007637 0.000448309,0.000387593 0.000896617,0.000775515 0.00134493,0.00117525 -0.000496881,0.000169675 -0.000496881,0.000169675 -0.00235083,0.000254676zm-0.0234013 -0.00706529c0.000521167,-0.00897996 0.00259336,-0.0165057 0.00803477,-0.0237892 0.000884474,-0.00037545 0.000884474,-0.00037545 0.00290843,-0.000787658 -0.0039629,0.00575647 -0.00704101,0.0108585 -0.00934359,0.0174995 -0.000666556,0.00253298 -0.000666556,0.00253298 -0.0015996,0.00707743zm0.0363563 -0.000848373c-0.000569739,-0.000145389 -0.00112734,-0.000290777 -0.0016846,-0.000424023 -0.00179356,-0.00179356 -0.00265408,-0.00420544 -0.0036357,-0.00649588 0.000169675,-4.8244e-005 0.000933046,0.000751557 0.002957,0.00226649 0.000727271,0.000399736 0.00145421,0.000799801 0.00219363,0.00119954 -0.0007637,0 -0.00152707,0 -0.0022783,1.21431e-005 0.000872331,0.000496881 0.00174499,0.000993762 0.00261765,0.00150279 -0.00167246,0.000327206 -0.00167246,0.000327206 -0.00193928,0.000521167 0.00244798,0.00124811 0.00244798,0.00124811 0.00244798,0.00141778 -0.000230062,0 -0.000460452,0 -0.00067837,0zm0.0299694 -0.00285985c-0.0012724,-0.00209681 -0.0022783,-0.00271479 -0.00438693,-0.00379323 0.0021572,-0.00116344 0.00386609,0.00226616 0.00448407,0.0036357 -3.64292e-005,4.8244e-005 -7.28584e-005,9.68163e-005 -9.71445e-005,0.000157532zm-0.0479779 -0.00202395c0,-4.85722e-005 0,-0.000108959 0,-0.000169675 4.8244e-005,0 0.000108959,0 0.000169675,0 0,4.85722e-005 0,0.000108959 0,0.000169675 -4.85722e-005,0 -0.000109288,0 -0.000169675,0zm0.0415791 -0.00083623c-0.000993434,-0.00459303 -0.00498062,-0.00414472 -0.00894353,-0.00410829 -2.42861e-005,-0.000121102 -3.64292e-005,-0.000230062 -4.85722e-005,-0.000339349 0.000291105,-0.000351164 0.000581882,-0.000690513 0.000884802,-0.00102986 0.00272661,0.000496881 0.00272661,0.000496881 0.00525959,0.00117525 0.00140564,0.000715128 0.00222973,0.00184213 0.0031992,0.00302986 0.000436494,2.42861e-005 0.000884802,6.07153e-005 0.00133311,9.68163e-005 0,0.000109288 0,0.000218247 0,0.000327206 -0.000860516,0.000266819 -0.000860516,0.000266819 -0.0016846,0.000848373zm-0.0116216 -0.00555036c-0.00229044,-0.00254479 -0.0053203,-0.00294486 -0.00858022,-0.00353855 0,-0.000509024 0,-0.00101805 0,-0.00151493 0.00339316,0.000363635 0.00559894,0.00157532 0.00801048,0.00402329 0.000666556,0.000945518 0.000666556,0.000945518 0.000569739,0.00103019zm-0.01304 -0.000339349c0,0 0,0 0,0zm-0.0268431 -0.000509024c8.50014e-005,-0.000145389 0.000169675,-0.000278634 0.000266819,-0.000411879 0.00501705,-0.00309024 0.00922216,-0.00504134 0.0151119,-0.00338135 0.00293271,-0.00528354 0.00888314,-0.00312635 0.0127853,-0.000315063 6.07153e-005,0.000133574 0.000133245,0.000278962 0.000206104,0.000424351 -0.00373251,-0.00195109 -0.00929502,-0.00399933 -0.0118159,0.00105415 -0.000593697,1.21431e-005 -0.00142993,-0.000327206 -0.00311453,-0.000666556 -0.00122382,0 -0.00244798,0 -0.0036718,0 -0.0036357,0.000727271 -0.00642302,0.00174532 -0.00976794,0.00329635zm0.042246 -0.0015146c-0.000375778,-0.000509024 -0.000751229,-0.0010059 -0.00111486,-0.00150279 0.000375778,-0.00140597 0.000242205,-0.00231473 -0.000169675,-0.00373251 4.85722e-005,-2.42861e-005 0.000108959,-3.64292e-005 0.000169675,-4.85722e-005 0.00184213,0.00261765 0.00213291,0.00235083 0.00111486,0.00528387zm0.00891957 -0.000339349c-0.00282375,-0.000690842 -0.00492024,-0.00104233 -0.00682309,-0.00319953 -7.25302e-005,-0.000521167 -0.000145389,-0.00104201 -0.000205776,-0.00156317 -0.00133311,-0.000557596 -0.00282375,-0.00270265 -0.00282375,-0.00415686 0.000290777,-0.000472595 0.000581554,-0.000933046 0.000884474,-0.0013935 0.00127272,-3.64292e-005 0.00278732,0.000739086 0.0032481,0.0020722 0.00101772,0.000351492 0.0015996,0.000509024 0.00235083,0.00126025 0.00277518,0.00462946 0.00277518,0.00462946 0.00435083,0.00684704 -0.000327206,3.64292e-005 -0.000654412,8.50014e-005 -0.000981619,0.000133574zm-0.0215474 -0.00269051c0,0 0,0 0,0zm0.0272674 -0.00235116c-0.000678699,-6.03871e-005 -0.00134525,-0.000121102 -0.00201181,-0.000169675 0.000411879,-0.000848045 0.000411879,-0.000848045 0.000411879,-0.00134493 -0.00180571,-0.00151493 -0.00421725,-0.00167246 -0.00647127,-0.00210863 -0.00118772,-0.000678699 -0.00118772,-0.000678699 -0.00202395,-0.000921232 0,-0.000121102 0,-0.000230062 0,-0.000339349 0.00201181,0.000133245 0.00403576,0.000278962 0.00605939,0.000424351 0.000448637,-0.000460452 0.000896945,-0.000909089 0.00134525,-0.0013574 -0.00370823,-0.000327206 -0.00370823,-0.000327206 -0.00403543,-0.000496881 0.00450803,-0.00649555 -0.0110403,-0.00391433 -0.012846,-0.00367213 0,-0.000121102 0,-0.000230062 0,-0.000339021 0.00101805,-0.000630455 0.00204824,-0.00126058 0.0030781,-0.00187856 0.00453264,-0.000763372 0.0104466,-0.000399736 0.013549,0.00344174 0.00100558,0.0027509 0.00201148,0.00550179 0.00302953,0.00825301 -3.64292e-005,0.000169675 -6.07153e-005,0.000339021 -8.46732e-005,0.000508696zm-0.0161545 -0.000169675c0,-4.8244e-005 0,-0.000108959 0,-0.000169346 4.85722e-005,0 0.000109288,0 0.000169675,0 0,4.8244e-005 0,0.000108959 0,0.000169346 -4.8244e-005,0 -0.000108959,0 -0.000169675,0zm0.00336921 -0.00285985c-0.000594025,-0.000654412 -0.000884802,-0.00083623 -0.0016846,-0.00118772 2.42861e-005,-0.000133245 6.07153e-005,-0.000266491 9.68163e-005,-0.000399736 0.000206104,0 0.000412208,0 0.000630455,0 0.000339349,0.000387593 0.00067837,0.000775515 0.00101772,0.00117525 -2.39579e-005,0.000133574 -4.8244e-005,0.000266819 -6.03871e-005,0.000412208zm-0.0429247 -0.00270265c0.000799801,-0.0017207 0.0047627,-0.00524711 0.00673809,-0.00605906 0.000278634,0.000617983 0.000557596,0.00123597 0.00083623,0.00185395 -0.000351492,9.71445e-005 -0.000351492,9.71445e-005 -0.00461732,0.00369641 -0.00210863,0.000254348 -0.00210863,0.000254348 -0.002957,0.000508696zm0.0289517 -0.00487166c-0.0038779,-0.000593697 -0.0038779,-0.000593697 -0.00690776,-0.000848373 0,-0.000121102 0,-0.000230062 0,-0.000339021 0.00364784,-0.000145717 0.00729568,-0.000278962 0.0109435,-0.000412208 -0.00136954,0.000666556 -0.00252083,0.00144207 -0.00403576,0.0015996zm-0.0202018 -0.000509024c-0.000436494,-0.000448309 -0.000860516,-0.000896617 -0.00128454,-0.00133278 0.00271447,-0.00189071 0.00548965,-0.00317525 0.00853132,-0.00449621 4.85722e-005,0.000193961 -0.00110272,0.00219363 -0.00129668,0.00286018 -0.00273875,0.00135707 -0.00508991,0.00270232 -0.0059501,0.00296881zm0.00774366 -0.00353855c0.000581882,-0.00134525 0.00111519,-0.0021572 0.00229044,-0.00310239 0.00944074,-0.00255693 0.0184086,-0.00167246 0.0273399,0.00218148 -0.00197538,-0.000400065 -0.00395076,-0.000799801 -0.00592614,-0.00118772 -0.00556251,-0.000569739 -0.0109189,-0.000339349 -0.0164571,0.000339349 -0.00335674,0.000666556 -0.00335674,0.000666556 -0.00724711,0.00176928z"/>
 </g>
</svg>
