<?xml version="1.0" encoding="UTF-8"?>
<!DOCTYPE svg PUBLIC "-//W3C//DTD SVG 1.1//EN" "http://www.w3.org/Graphics/SVG/1.1/DTD/svg11.dtd">
<!-- Creator: CorelDRAW -->
<svg xmlns="http://www.w3.org/2000/svg" xml:space="preserve" width="1in" height="2in" style="shape-rendering:geometricPrecision; text-rendering:geometricPrecision; image-rendering:optimizeQuality; fill-rule:evenodd; clip-rule:evenodd"
viewBox="0 0 0.0705086 0.0759376"
 xmlns:xlink="http://www.w3.org/1999/xlink">
 <defs>
  <style type="text/css">
   <![CDATA[
    .fil0 {fill:#28166F}
   ]]>
  </style>
 </defs>
 <g id="Layer_x0020_1">
  <metadata id="CorelCorpID_0Corel-Layer"/>
  <path class="fil0" d="M0.0347267 0.0759374c-0.0017619,-0.000321663 -0.00339954,-0.000679808 -0.00497138,-0.00157184 -0.00214204,-0.00167412 -0.00291696,-0.00526372 -0.00363341,-0.00769827 -0.000482579,-4.39768e-005 -0.00134529,0.000760265 -0.00195214,0.000943002 -0.000745606,-0.0010088 -0.00135245,-0.00205425 -0.00198112,-0.00314367 -0.000270524,-0.000848052 -0.000541048,-0.0016961 -0.000811571,-0.00254416 -0.000745773,0.00149871 -0.00119903,0.00283667 -0.00157184,0.0044743 -0.000102279,-5.11397e-005 -0.000204725,-0.000102446 -0.000307005,-0.000153586 -0.00309253,-0.00377967 -0.00463522,-0.00671862 -0.00477398,-0.0116315 -0.00232494,0.00160832 -0.00349465,0.00338488 -0.00512496,0.00568783 -0.0012575,-0.00380899 -0.00242722,-0.00698198 -0.00137444,-0.0109664 -0.00337039,-0.000175407 -0.00467903,0.00492024 -0.00562953,0.00731097 -0.00154985,-0.00519076 -0.00216402,-0.00968705 -0.00111841,-0.0150239 0.000943002,-0.00283667 0.00206891,-0.00508848 0.00380882,-0.0075157 -0.00181304,0.000292512 -0.00351648,0.000731114 -0.00528571,0.00122102 0.000526389,-0.0010163 0.00105278,-0.00203243 0.00157917,-0.00304872 0.00103812,-0.00135978 0.00209823,-0.00263911 0.00326794,-0.00388928 -0.000255865,1.44923e-005 -0.00051173,2.91513e-005 -0.000760265,5.11397e-005 0.000277853,-0.000957828 0.00055554,-0.00191549 0.000840723,-0.00286582 0.00135245,-0.00270507 0.00260996,-0.0042331 0.00505183,-0.00596568 7.32946e-006,-8.04575e-005 1.46589e-005,-0.000153586 2.19884e-005,-0.000226714 -0.00192282,-0.00527855 -0.00395524,-0.010769 -0.00395524,-0.0164495 0.000241206,-0.00111858 0.000482579,-0.00174008 0.00157184,-0.00228829 0.00120636,0 0.00187884,0.000204725 0.00294628,0.000818734 0.00434271,0.00302674 0.00890463,0.00585607 0.0136275,0.00824665 7.31281e-005,-0.00162298 -0.000782254,-0.00336289 -0.00134512,-0.00484711 0.00156451,0.000453261 0.00305589,0.000972487 0.00456925,0.00157184 0.00152803,0.000811571 0.002844,0.00162314 0.00304872,0.00167428 -0.000102446,-0.000848052 -0.000204725,-0.0016961 -0.000307171,-0.00253683 0.00135262,0.000789583 0.00270507,0.00158633 0.00406485,0.00238324 0.00162298,0.00122102 0.00162298,0.00122102 0.0018277,0.00127216 -0.000102279,-0.000679974 -0.000204725,-0.00135978 -0.000307005,-0.00203243 0.00203976,0.000182737 0.00290963,0.00040945 0.00446697,0.00177656 0.000862711,0.00106727 0.000862711,0.00106727 0.000913851,0.001272 7.31281e-005,-2.91513e-005 0.000146256,-5.84691e-005 0.000226547,-8.02909e-005 0.00130864,-0.00182054 0.00236875,-0.00315833 0.00444515,-0.00418196 0.000102279,0.00176923 0.000197396,0.0033997 0.000687137,0.00509581 7.31281e-005,7.32946e-006 0.000146256,1.44923e-005 0.000226714,2.91513e-005 0.00676976,-0.00236142 0.0123846,-0.00725967 0.0184819,-0.0109664 0.00146939,-0.000489741 0.00190083,0.000380299 0.00248569,0.00167428 0.00103079,0.00459857 -0.000979649,0.00970154 -0.00233227,0.0140149 -0.000358144,0.000943169 -0.00158633,0.00324612 -0.00149871,0.00418179 0.00294628,0.00203243 0.00404303,0.00500069 0.00525656,0.00820284 -1.46589e-005,8.7787e-005 -2.19884e-005,0.000182903 -2.91513e-005,0.000277853 -0.000818901,-0.000394792 -0.00217868,-0.00134512 -0.00307071,-0.00134512 0.00183503,0.00183503 0.00305605,0.0037212 0.00391143,0.00614842 0.000102279,0.000913851 0.000102279,0.000913851 7.31281e-005,0.00260996 -0.00155734,-0.000789583 -0.0029098,-0.00127949 -0.00459124,-0.0016961 0.00170343,0.0023321 0.00332641,0.00460573 0.00441567,0.00731081 0.00130864,0.00502268 0.000665315,0.00945301 -0.00101613,0.0143148 -0.00131597,-0.00222249 -0.00348,-0.00654321 -0.00657986,-0.00642627 -2.19884e-005,0.000233877 -2.19884e-005,0.000233877 0.000387462,0.00185702 0,0.00322396 -0.000752936,0.00587057 -0.0018277,0.00893378 -3.64807e-005,2.93179e-005 -7.31281e-005,6.57986e-005 -0.000102279,0.000102446 -0.00144757,-0.00213487 -0.00275621,-0.00425492 -0.00495688,-0.00566601 -0.000270524,0.00340687 -0.000855382,0.00587073 -0.00266109,0.00881701 -0.00162298,0.00212738 -0.00162298,0.00212738 -0.00243455,0.00304123 -0.000445931,-0.00155718 -0.000811571,-0.00315817 -0.00162298,-0.00456925 -0.000679974,0.00205442 -0.00128682,0.00404287 -0.00287315,0.00560754 -0.000679974,6.57986e-005 -0.00131597,-0.000701963 -0.00195214,-0.000935839 -0.000628668,0.00269041 -0.00149138,0.00499336 -0.00294628,0.00731081 -0.00222249,0.0013891 -0.0039186,0.00164496 -0.0064994,0.00203243zm0.000307171 -0.00436453c-0.00334107,-0.000643327 -0.00459124,-0.00166695 -0.00532969,-0.0049787 -0.00040945,-0.00415997 -0.00040945,-0.00415997 -0.000606846,-0.00527855 -0.00128665,-0.0030852 -0.00257331,-0.00616308 -0.00386013,-0.00924095 -0.000913851,0.00274888 0.000541048,0.00611194 0.00193015,0.00837824 -0.000431439,0.000526389 -0.00157917,0.00232494 -0.00218601,0.00243455 -0.00144757,-0.00144757 -0.00133779,-0.00423293 -0.0015207,-0.00614109 -0.00209823,0.000555707 -0.00335573,0.00149871 -0.00492756,0.00299742 -0.00125001,-0.00156451 -0.000957661,-0.00386746 -0.0005044,-0.00563669 0.000606846,-0.00111858 0.000606846,-0.00111858 0.000606846,-0.0013233 -0.00277087,-0.00225897 -0.00541014,-0.000745606 -0.00761798,0.00137444 -0.00143291,-0.00186418 0.000307005,-0.00434987 0.00142558,-0.00584125 0,-6.57986e-005 0,-0.000131597 0,-0.000197396 -0.00272689,-0.00200328 -0.0053735,-0.00258813 -0.00840739,-0.000848219 0.00141825,-0.00743507 0.00679908,-0.0125307 0.012538,-0.017005 0,-0.000124268 0,-0.000241206 0,-0.000358311 -0.00144024,-0.000760265 -0.0036554,-0.000789583 -0.00530037,-0.000884533 0.000285183,-0.000935839 0.00097232,-0.00138177 0.00172542,-0.00197396 0.0013233,-0.000848052 0.00286582,-0.00204709 0.00436453,-0.0025953 -0.000752936,-0.00141842 -0.00386746,-0.000965157 -0.00507365,-0.000965157 0.0016961,-0.00135978 0.00362609,-0.00241989 0.0054831,-0.00355296 -0.00046059,-0.000438768 -0.00182037,-0.000606846 -0.00187884,-0.00126483 0.00164496,-0.00113323 0.00396241,-0.00138177 0.00584142,-0.00218601 -0.00179122,-0.00100164 -0.00418912,-0.0011404 -0.00581959,-0.00225897 0,-0.000124434 0,-0.000241373 0,-0.000358311 0.00046059,-0.000277853 0.00144024,-0.000701796 0.00165229,-0.00129398 -0.0036554,-0.00228096 -0.0041598,-0.00269041 -0.00436453,-0.00274155 0.000358144,0.00792498 0.000358144,0.00792498 0.000328993,0.0094675 -0.000328993,0.000131597 -0.000328993,0.000131597 -0.00083356,0.000182737 -0.001579,-0.0108639 -0.001579,-0.0108639 -0.00178372,-0.0116755 -0.000380299,-0.000672478 -0.00143308,-0.00312169 -0.0020764,-0.00335556 2.19884e-005,-8.04575e-005 4.39768e-005,-0.000153586 7.31281e-005,-0.000226714 0.000175407,-7.32946e-006 0.000350981,-1.46589e-005 0.000533718,-2.19884e-005 0.000709126,0.000402121 0.00294628,0.00212754 0.00527855,0.00375052 0.00386013,0.00246387 0.00798345,0.00467903 0.0124942,0.00563669 -3.64807e-005,-0.00128665 -7.31281e-005,-0.00257331 -0.000102279,-0.0038528 0.00206158,0.000226714 0.00420361,0.00311452 0.00522724,0.00456925 0.000321663,-0.00123551 0.0005044,-0.00239057 0.000657986,-0.0036554 0.000584858,0.000190066 0.000862711,0.000657986 0.001272,0.00111125 0.00162298,0.00274155 0.00162298,0.00274155 0.00233227,0.0041673 0,0.000811405 -0.000197396,0.00203243 -0.000197396,0.00274155 0.000423943,0.00240523 0.000182737,0.00459124 -0.000102446,0.0070038 -0.000292346,0.00125017 -0.000577528,0.00250035 -0.000862711,0.00375785 -8.02909e-005,-2.93179e-005 -0.000160748,-5.84691e-005 -0.000233877,-8.04575e-005 -0.00124284,-0.00229562 -0.00280735,-0.00453277 -0.00576096,-0.00367739 0.000336322,0.000672645 0.000672645,0.00135245 0.0010163,0.00203243 -0.00178389,-0.000380133 -0.0034655,-0.000767595 -0.00527855,-0.000913851 0,6.57986e-005 0,0.000131597 0,0.000204725 0.00260263,0.00150604 0.00520542,0.00301208 0.00781537,0.00451811 0.00121353,0.00133796 0.00204692,0.00217868 -0.000102446,0.00274155 0.000965157,0.000855382 0.0019593,0.00168877 0.00228829,0.00299009 5.13062e-005,0.000701963 0.000548377,0.00368472 0.000204725,0.0041673 -0.00112574,-0.0016961 -0.00287315,-0.00254416 -0.00482512,-0.00157184 -0.000233877,0.000255865 -0.00046059,0.000519059 -0.000687304,0.000782254 0.000182903,2.91513e-005 0.000182903,2.91513e-005 0.0011917,-0.000277853 0.00141109,0 0.00210555,0.000102446 0.00325345,0.0010163 -0.000343652,5.11397e-005 -0.000679974,0.000102279 -0.0010163,0.000153419 0,6.57986e-005 0,0.000131597 0,0.000204725 0.00183503,0.000606846 0.00199595,0.0040357 0.00228096,0.00552708 -3.64807e-005,5.11397e-005 -6.57986e-005,0.000102279 -9.49499e-005,0.000153419 -0.00114789,-0.000796746 -0.0025808,-0.000994142 -0.00373586,-0.000131597 -0.00125017,0.00186435 -0.000402121,0.00285133 0.000891862,0.00440118 -1.46589e-005,0.000102446 -2.18218e-005,0.000212055 -2.91513e-005,0.000321663 -0.00176207,0.000117105 -0.00285133,-0.00257331 -0.00332658,-0.00387462 -0.0005044,-0.00258813 0.000277853,-0.00523474 0.00342886,-0.00399189 7.32946e-006,-0.000131597 1.46589e-005,-0.000255865 2.93179e-005,-0.000380133 -0.00122102,-0.0013891 -0.00230295,-0.00133046 -0.00391143,-0.000453261 -0.00171809,0.00275621 -0.000475082,0.00522724 0.0011917,0.00768378 -0.000840723,6.57986e-005 -0.00154985,-0.00111858 -0.00187884,-0.00177656 -0.000109775,-2.91513e-005 -0.000219384,-5.11397e-005 -0.000328993,-7.31281e-005 -0.00041678,0.0016961 -0.000387462,0.00256615 5.11397e-005,0.00426958 0.00119903,0.00269041 0.00222982,0.00514695 0.002844,0.0080201 0.00013876,0.00167412 0.000204559,0.00329709 0.000204559,0.0049787 0.000767761,0.00274888 0.0034655,0.00278536 0.00593653,0.00278536 0.00263927,-0.000577528 0.00301208,-0.00201044 0.00329709,-0.00451811 0.000131597,-0.00244188 0.000299842,-0.00464971 0.0010163,-0.0070038 0.000943169,-0.00224448 0.0022005,-0.00429873 0.00299742,-0.00660168 0.000102446,0 0.000204725,0 0.000307171,0 -0.00157917,0.00629468 -0.00157917,0.00629468 -0.00239074,0.00913851 -0.000826064,0.00235409 -0.00097232,0.00489841 -0.00162298,0.00731097 -0.00130864,0.00296094 -0.00224448,0.00391127 -0.00543197,0.00406485zm-0.000913851 -0.00325328c-0.000555707,-0.000248702 -0.000526389,-0.00133796 -0.000358311,-0.00182787 0.000204725,0.000511896 0.000350981,0.000775091 0.000804242,0.00106011 0.000299675,-0.000350815 0.000299675,-0.000350815 0.00046792,-0.000752936 6.57986e-005,0 0.000131597,0 0.000204725,0 0.000109609,0.000248535 0.000219218,0.000497071 0.000336156,0.000752936 0.000109775,-0.000233877 0.000219384,-0.00046792 0.000328993,-0.000694467 5.84691e-005,0 0.000117105,0 0.000182903,0 0.000131597,0.000241206 0.000263194,0.000482412 0.000394792,0.000723785 0.000584858,-0.000204725 0.000628668,-0.000519059 0.000789583,-0.00108942 6.57986e-005,0 0.000131597,0 0.000197396,0 -2.19884e-005,0.000541048 8.02909e-005,0.00135995 -0.00036564,0.00176207 -0.000994308,2.18218e-005 -0.00198862,4.38102e-005 -0.00298276,6.57986e-005zm-0.00172542 -0.000914017c-9.49499e-005,-0.00013876 -9.49499e-005,-0.00013876 -0.000307005,-0.000197396 -0.000577528,-0.00126467 -0.000723785,-0.00241256 5.11397e-005,-0.0036554 0,0.00106744 -6.57986e-005,0.00180588 0.00106744,0.00212754 5.11397e-005,0.00097232 0.000160748,0.00150604 -0.000811571,0.00172526zm0.00589256 0c-0.000394792,-0.000672478 -0.000350981,-0.000928343 -0.000307005,-0.00172526 0.00103079,-0.000321663 0.000979649,-0.00102363 0.00110392,-0.00199595 0.000526389,0.00113323 0.000950332,0.00351664 -0.000796913,0.0037212zm0.00131597 -0.0103522c3.64807e-005,-0.00174724 0.000336322,-0.0023979 -0.00122086,-0.00335573 0.000328993,-0.000877204 0.000372803,-0.00105994 0.00132313,-0.00105994 0.00100164,0.00100147 0.00105278,0.00349449 -0.000102279,0.00441567zm-0.00842938 -0.000102279c-0.00083356,-0.0013891 -0.00083356,-0.00299742 8.76204e-005,-0.00432072 0.000738443,0 0.0013233,0.000233877 0.00127216,0.00110392 -0.00141825,0.000709126 -0.00120636,0.00176923 -0.00115506,0.0032168 -7.31281e-005,0 -0.000138927,0 -0.000204725,0zm0.00355296 -0.00142558c-0.000255865,-0.000292512 -0.00051173,-0.000584858 -0.000760265,-0.00087737 -0.000190066,5.84691e-005 -0.000190066,5.84691e-005 -0.000650656,0.000635998 -0.00040945,-0.000540881 -0.000475249,-0.000935673 -0.00051173,-0.0015865 0.000204725,-2.18218e-005 0.00040945,-3.64807e-005 0.000614009,-5.11397e-005 0.00117705,0.000584858 0.00223715,0.000299842 0.00353847,0.000292512 0.000453261,-0.000219384 0.000753102,-0.000424109 0.00126483,-0.000182737 7.32946e-006,0.000614009 -0.000190066,0.00105994 -0.000541048,0.00152786 -0.00014609,-0.000219218 -0.000292346,-0.000438602 -0.000438602,-0.000650656 -0.000445931,2.93179e-005 -0.000767595,0.000475249 -0.0008847,0.000892029 -0.000445931,-0.000117105 -0.000540881,-0.000657986 -0.000921014,-0.000753102 -0.000241373,0.000248535 -0.000475249,0.000497237 -0.000709292,0.000753102zm-0.000709126 -0.00375052c-0.000672478,-0.000321663 -0.000738277,-0.000584858 -0.000913851,-0.0013233 0.000570366,5.84691e-005 0.000935839,0.000358311 0.00143291,0.000650656 0.000636164,0 0.00127216,0 0.00190816,0 0.000541048,-0.000219384 0.000848052,-0.000570199 0.00143291,-0.000650656 -0.000116938,0.00041678 -0.000168078,0.000848052 -0.000475082,0.00115506 -0.000431439,0.000109775 -0.000431439,0.000109775 -0.00338505,0.000168245zm-0.00436453 -0.0138104c-0.000424109,-0.000650656 -0.000628835,-0.00096499 -0.00127216,-0.00138893 -0.00353847,0.00051173 -0.00512496,-0.000972487 -0.00599483,-0.00418912 -0.000694633,-0.00153536 -0.002208,-0.00226647 -0.0020909,-0.00413798 0.00133046,0.00111858 0.00133046,0.00111858 0.00151337,0.00115506 7.29615e-005,-0.000694467 7.29615e-005,-0.000694467 0.000226547,-0.00108926 6.57986e-005,0 0.000131597,0 0.000204725,0 0.000870041,0.00224448 0.00383098,0.00356029 0.00572448,0.00493473 0.000928343,0.00139643 0.00214937,0.00296094 0.00199578,0.00471551 -0.000102279,0 -0.000204725,0 -0.000307005,0zm-0.00456925 -0.00254416c-0.00116988,-0.000884533 -0.00213487,-0.00173991 -0.00156467,-0.00339221 0.00104545,0 0.000943169,0.00143291 0.00167428,0.00191549 0.000541048,0 0.000899192,6.57986e-005 0.00135978,-0.000226714 0.000328993,0.000204725 0.000635998,0.000336322 0.00082623,0.000679974 -0.000775091,0.00097232 -0.00104561,0.000957661 -0.00229562,0.00102346zm0.019498 0c-0.000475249,-0.000336322 -0.00100897,-0.000614009 -0.00111858,-0.00121353 0.000270524,-0.000160915 0.000541048,-0.000321663 0.000818901,-0.000475249 0.00116972,0.000584858 0.00194464,0.000153586 0.00198112,-0.00108926 0.000343652,-0.000219384 0.000672645,-0.000541048 0.00109675,-0.00051173 0.000380133,0.00152053 -0.000270524,0.00260996 -0.00165962,0.00323862 -0.000372803,1.46589e-005 -0.000745773,2.93179e-005 -0.00111858,5.11397e-005zm-0.00426958 -0.00243438c0.000328993,-0.00219334 0.00146223,-0.00424043 0.00260996,-0.00611927 8.04575e-005,0 0.000168245,0 0.000255865,0 9.51164e-005,0.000380133 0.000190233,0.000760265 0.000285183,0.00114773 0.000811571,-0.000562869 0.000811571,-0.000562869 0.00294628,-0.00173259 -0.000358144,0.000716455 -0.000358144,0.000716455 -0.00051173,0.00122086 0.000738443,2.93179e-005 0.00106744,0.000124268 0.00172542,0.00046059 -0.00249302,0.00116972 -0.00489841,0.00212754 -0.00675527,0.00421844 -0.00041678,0.000738443 -0.00041678,0.000738443 -0.000555707,0.000804242zm-0.00520542 0.0310784c-0.000212055,-5.84691e-005 -0.00041678,-9.49499e-005 -0.000635998,-0.000116938 -7.32946e-006,-2.18218e-005 -1.46589e-005,-4.38102e-005 -2.19884e-005,-5.84691e-005 -0.000102279,-2.19884e-005 -0.000197396,-4.38102e-005 -0.000292346,-6.57986e-005 0,-2.19884e-005 0,-3.64807e-005 0,-5.11397e-005 -5.86357e-005,-1.46589e-005 -0.000117105,-2.93179e-005 -0.000175574,-4.38102e-005 -3.64807e-005,-7.31281e-005 -0.00040945,-0.000270524 -0.0005044,-0.000307171 -0.000394792,-0.00040945 -0.000943169,-0.000913851 -0.0010821,-0.00149138 -0.00014609,-7.31281e-005 -0.000131597,-0.000343652 -0.000248535,-0.00046059 -5.11397e-005,-0.000424109 -0.000204725,-0.000804242 -0.000248535,-0.00126483 -0.000109609,-0.000109609 -0.000190066,-0.00192265 0,-0.00220783 2.19884e-005,-0.000343652 0.000248535,-0.000943169 0.000621339,-0.00100164 0,-0.000153419 0.000402121,-0.000212055 0.000519226,-0.000285016 0.000204559,0 0.000409284,0 0.000614009,7.16288e-006 7.32946e-006,1.46589e-005 1.46589e-005,3.66473e-005 2.19884e-005,5.86357e-005 0.000489741,8.76204e-005 0.00103079,0.000562869 0.00114773,0.00104545 0.000182903,8.76204e-005 0.000299842,0.000957661 0.000321663,0.00114773 4.39768e-005,9.51164e-005 4.39768e-005,9.51164e-005 9.51164e-005,0.000372803 5.11397e-005,-0.000160748 5.11397e-005,-0.000160748 9.51164e-005,-0.000204559 2.18218e-005,-0.000263194 5.84691e-005,-0.000804242 0.000219218,-0.0010163 5.11397e-005,-0.000321663 0.000438768,-0.000943169 0.000716455,-0.00103079 9.51164e-005,-0.000285183 0.000979649,-0.00046792 0.0011917,-0.000299842 0.000248535,1.46589e-005 0.000314334,3.66473e-005 0.000497071,0.000190066 0.000606846,9.51164e-005 0.000709292,0.00130148 0.000716455,0.00174741 1.46589e-005,1.46589e-005 2.93179e-005,2.91513e-005 5.13062e-005,4.38102e-005 -7.32946e-006,0.000153586 -7.32946e-006,0.000314334 -7.32946e-006,0.000475249 -0.000197396,0.000197396 5.11397e-005,0.000833393 -0.000116938,0.00111125 -3.66473e-005,0.000292346 -0.000117105,0.00055554 -0.000175574,0.000840723 -2.18218e-005,7.32946e-006 -3.64807e-005,1.46589e-005 -5.11397e-005,2.19884e-005 -5.84691e-005,0.000489741 -0.000314334,0.000745606 -0.00046059,0.00119887 -2.19884e-005,7.32946e-006 -3.64807e-005,1.46589e-005 -5.11397e-005,2.19884e-005 -7.32946e-006,2.93179e-005 -1.46589e-005,6.57986e-005 -2.19884e-005,0.000102446 -0.000387462,0.00055554 -0.00101613,0.00119154 -0.00171076,0.00133779 -0.000175407,0.000175574 -0.000811405,0.000175574 -0.00102346,0.000182737z"/>
 </g>
</svg>
